<?xml version="1.0" encoding="UTF-8" standalone="no"?>
<!DOCTYPE svg PUBLIC "-//W3C//DTD SVG 1.1//EN"
 "http://www.w3.org/Graphics/SVG/1.1/DTD/svg11.dtd">
<!-- Generated by graphviz version 2.43.0 (0)
 -->
<!-- Title: VortexEngine/src/Patterns/Single/BlendPattern.cpp Pages: 1 -->
<!--zoomable 487 -->
<svg id="main" version="1.1" xmlns="http://www.w3.org/2000/svg" xmlns:xlink="http://www.w3.org/1999/xlink" xml:space="preserve" onload="init(evt)">
<style type="text/css"><![CDATA[
.edge:hover path { stroke: red; }
.edge:hover polygon { stroke: red; fill: red; }
]]></style>
<script type="text/javascript"><![CDATA[
var edges = document.getElementsByTagName('g');
if (edges && edges.length) {
  for (var i=0;i<edges.length;i++) {
    if (edges[i].id.substr(0,4)=='edge') {
      edges[i].setAttribute('class','edge');
    }
  }
}
]]></script>
        <defs>
                <circle id="rim" cx="0" cy="0" r="7"/>
                <circle id="rim2" cx="0" cy="0" r="3.5"/>
                <g id="zoomPlus">
                        <use xlink:href="#rim" target="_top" fill="#404040">
                                <set attributeName="fill" to="#808080" begin="zoomplus.mouseover" end="zoomplus.mouseout"/>
                        </use>
                        <path d="M-4,0h8M0,-4v8" fill="none" stroke="white" stroke-width="1.5" pointer-events="none"/>
                </g>
                <g id="zoomMin">
                        <use xlink:href="#rim" target="_top" fill="#404040">
                                <set attributeName="fill" to="#808080" begin="zoomminus.mouseover" end="zoomminus.mouseout"/>
                        </use>
                        <path d="M-4,0h8" fill="none" stroke="white" stroke-width="1.5" pointer-events="none"/>
                </g>
                <g id="dirArrow">
                        <path fill="none" stroke="white" stroke-width="1.5" d="M0,-3.0v7 M-2.5,-0.5L0,-3.0L2.5,-0.5"/>
                </g>
               <g id="resetDef">
                       <use xlink:href="#rim2" target="_top" fill="#404040">
                               <set attributeName="fill" to="#808080" begin="reset.mouseover" end="reset.mouseout"/>
                       </use>
               </g>
        </defs>

<script type="text/javascript">
var viewWidth = 582;
var viewHeight = 487;
var sectionId = 'dynsection-0';
</script>
<script xlink:href="svgpan.js" target="_top"/>
<svg id="graph" class="graph">
<g id="viewport">
<title>VortexEngine/src/Patterns/Single/BlendPattern.cpp</title>
<!-- Node1 -->
<g id="node1" class="node">
<title>Node1</title>
<g id="a_node1"><a xlink:title=" ">
<polygon fill="#bfbfbf" stroke="black" points="278,-448.5 278,-478.5 419,-478.5 419,-448.5 278,-448.5"/>
<text text-anchor="start" x="286" y="-466.5" font-family="Helvetica,sans-Serif" font-size="10.00">VortexEngine/src/Patterns</text>
<text text-anchor="middle" x="348.5" y="-455.5" font-family="Helvetica,sans-Serif" font-size="10.00">/Single/BlendPattern.cpp</text>
</a>
</g>
</g>
<!-- Node2 -->
<g id="node2" class="node">
<title>Node2</title>
<g id="a_node2"><a xlink:href="BlendPattern_8h.html" target="_top" target="_top" xlink:title=" ">
<polygon fill="none" stroke="black" points="149.5,-392.5 149.5,-411.5 237.5,-411.5 237.5,-392.5 149.5,-392.5"/>
<text text-anchor="middle" x="193.5" y="-399.5" font-family="Helvetica,sans-Serif" font-size="10.00">BlendPattern.h</text>
</a>
</g>
</g>
<!-- Node1&#45;&gt;Node2 -->
<g id="edge1" class="edge">
<title>Node1&#45;&gt;Node2</title>
<path fill="none" stroke="midnightblue" d="M311.77,-448.4C285.53,-438.33 250.57,-424.91 225.48,-415.28"/>
<polygon fill="midnightblue" stroke="midnightblue" points="226.64,-411.97 216.05,-411.66 224.14,-418.51 226.64,-411.97"/>
</g>
<!-- Node11 -->
<g id="node11" class="node">
<title>Node11</title>
<g id="a_node11"><a xlink:href="Colorset_8h.html" target="_top" target="_top" xlink:title=" ">
<polygon fill="none" stroke="black" points="446,-168.5 446,-187.5 555,-187.5 555,-168.5 446,-168.5"/>
<text text-anchor="middle" x="500.5" y="-175.5" font-family="Helvetica,sans-Serif" font-size="10.00">../Colors/Colorset.h</text>
</a>
</g>
</g>
<!-- Node1&#45;&gt;Node11 -->
<g id="edge30" class="edge">
<title>Node1&#45;&gt;Node11</title>
<path fill="none" stroke="midnightblue" d="M392.4,-448.46C435.08,-431.74 493.5,-399.3 493.5,-347 493.5,-347 493.5,-347 493.5,-289 493.5,-256.88 496.51,-219.6 498.58,-197.73"/>
<polygon fill="midnightblue" stroke="midnightblue" points="502.09,-197.84 499.58,-187.55 495.12,-197.15 502.09,-197.84"/>
</g>
<!-- Node17 -->
<g id="node17" class="node">
<title>Node17</title>
<g id="a_node17"><a xlink:href="TimeControl_8h.html" target="_top" target="_top" xlink:title=" ">
<polygon fill="none" stroke="black" points="231.5,-168.5 231.5,-187.5 317.5,-187.5 317.5,-168.5 231.5,-168.5"/>
<text text-anchor="middle" x="274.5" y="-175.5" font-family="Helvetica,sans-Serif" font-size="10.00">TimeControl.h</text>
</a>
</g>
</g>
<!-- Node1&#45;&gt;Node17 -->
<g id="edge29" class="edge">
<title>Node1&#45;&gt;Node17</title>
<path fill="none" stroke="midnightblue" d="M329.25,-448.44C304.73,-428.75 265.5,-390.46 265.5,-347 265.5,-347 265.5,-347 265.5,-289 265.5,-256.84 269.37,-219.57 272.03,-197.71"/>
<polygon fill="midnightblue" stroke="midnightblue" points="275.54,-197.9 273.32,-187.54 268.59,-197.02 275.54,-197.9"/>
</g>
<!-- Node18 -->
<g id="node18" class="node">
<title>Node18</title>
<g id="a_node18"><a xlink:href="Leds_8h.html" target="_top" target="_top" xlink:title=" ">
<polygon fill="none" stroke="black" points="335.5,-168.5 335.5,-187.5 427.5,-187.5 427.5,-168.5 335.5,-168.5"/>
<text text-anchor="middle" x="381.5" y="-175.5" font-family="Helvetica,sans-Serif" font-size="10.00">../../Leds/Leds.h</text>
</a>
</g>
</g>
<!-- Node1&#45;&gt;Node18 -->
<g id="edge31" class="edge">
<title>Node1&#45;&gt;Node18</title>
<path fill="none" stroke="midnightblue" d="M367.75,-448.44C392.27,-428.75 431.5,-390.46 431.5,-347 431.5,-347 431.5,-347 431.5,-289 431.5,-258.9 425.42,-251.18 412.5,-224 407.77,-214.06 400.96,-203.88 394.93,-195.73"/>
<polygon fill="midnightblue" stroke="midnightblue" points="397.69,-193.58 388.82,-187.78 392.14,-197.85 397.69,-193.58"/>
</g>
<!-- Node3 -->
<g id="node3" class="node">
<title>Node3</title>
<g id="a_node3"><a xlink:href="BasicPattern_8h.html" target="_top" target="_top" xlink:title=" ">
<polygon fill="none" stroke="black" points="128.5,-336.5 128.5,-355.5 214.5,-355.5 214.5,-336.5 128.5,-336.5"/>
<text text-anchor="middle" x="171.5" y="-343.5" font-family="Helvetica,sans-Serif" font-size="10.00">BasicPattern.h</text>
</a>
</g>
</g>
<!-- Node2&#45;&gt;Node3 -->
<g id="edge2" class="edge">
<title>Node2&#45;&gt;Node3</title>
<path fill="none" stroke="midnightblue" d="M189.87,-392.08C186.89,-384.77 182.57,-374.18 178.88,-365.1"/>
<polygon fill="midnightblue" stroke="midnightblue" points="182.08,-363.69 175.07,-355.75 175.6,-366.33 182.08,-363.69"/>
</g>
<!-- Node16 -->
<g id="node16" class="node">
<title>Node16</title>
<g id="a_node16"><a xlink:href="Timings_8h.html" target="_top" target="_top" xlink:title=" ">
<polygon fill="none" stroke="black" points="293.5,-224.5 293.5,-243.5 403.5,-243.5 403.5,-224.5 293.5,-224.5"/>
<text text-anchor="middle" x="348.5" y="-231.5" font-family="Helvetica,sans-Serif" font-size="10.00">../../Time/Timings.h</text>
</a>
</g>
</g>
<!-- Node2&#45;&gt;Node16 -->
<g id="edge23" class="edge">
<title>Node2&#45;&gt;Node16</title>
<path fill="none" stroke="midnightblue" d="M201.83,-392.08C226.87,-365.27 301.64,-285.19 333.67,-250.89"/>
<polygon fill="midnightblue" stroke="midnightblue" points="336.23,-253.27 340.5,-243.57 331.12,-248.49 336.23,-253.27"/>
</g>
<!-- Node4 -->
<g id="node4" class="node">
<title>Node4</title>
<g id="a_node4"><a xlink:href="SingleLedPattern_8h.html" target="_top" target="_top" xlink:title=" ">
<polygon fill="none" stroke="black" points="118,-280.5 118,-299.5 225,-299.5 225,-280.5 118,-280.5"/>
<text text-anchor="middle" x="171.5" y="-287.5" font-family="Helvetica,sans-Serif" font-size="10.00">SingleLedPattern.h</text>
</a>
</g>
</g>
<!-- Node3&#45;&gt;Node4 -->
<g id="edge3" class="edge">
<title>Node3&#45;&gt;Node4</title>
<path fill="none" stroke="midnightblue" d="M171.5,-336.08C171.5,-329.01 171.5,-318.86 171.5,-309.99"/>
<polygon fill="midnightblue" stroke="midnightblue" points="175,-309.75 171.5,-299.75 168,-309.75 175,-309.75"/>
</g>
<!-- Node15 -->
<g id="node15" class="node">
<title>Node15</title>
<g id="a_node15"><a xlink:href="Timer_8h.html" target="_top" target="_top" xlink:title=" ">
<polygon fill="none" stroke="black" points="0,-168.5 0,-187.5 99,-187.5 99,-168.5 0,-168.5"/>
<text text-anchor="middle" x="49.5" y="-175.5" font-family="Helvetica,sans-Serif" font-size="10.00">../../Time/Timer.h</text>
</a>
</g>
</g>
<!-- Node3&#45;&gt;Node15 -->
<g id="edge20" class="edge">
<title>Node3&#45;&gt;Node15</title>
<path fill="none" stroke="midnightblue" d="M155.29,-336.48C141.43,-328.54 121.69,-315.6 108.5,-300 81.81,-268.45 63.84,-222.75 55.28,-197.51"/>
<polygon fill="midnightblue" stroke="midnightblue" points="58.53,-196.18 52.1,-187.75 51.87,-198.35 58.53,-196.18"/>
</g>
<!-- Node5 -->
<g id="node5" class="node">
<title>Node5</title>
<g id="a_node5"><a xlink:href="Pattern_8h.html" target="_top" target="_top" xlink:title=" ">
<polygon fill="none" stroke="black" points="137,-224.5 137,-243.5 206,-243.5 206,-224.5 137,-224.5"/>
<text text-anchor="middle" x="171.5" y="-231.5" font-family="Helvetica,sans-Serif" font-size="10.00">../Pattern.h</text>
</a>
</g>
</g>
<!-- Node4&#45;&gt;Node5 -->
<g id="edge4" class="edge">
<title>Node4&#45;&gt;Node5</title>
<path fill="none" stroke="midnightblue" d="M171.5,-280.08C171.5,-273.01 171.5,-262.86 171.5,-253.99"/>
<polygon fill="midnightblue" stroke="midnightblue" points="175,-253.75 171.5,-243.75 168,-253.75 175,-253.75"/>
</g>
<!-- Node6 -->
<g id="node6" class="node">
<title>Node6</title>
<g id="a_node6"><a xlink:href="LedTypes_8h.html" target="_top" target="_top" xlink:title=" ">
<polygon fill="none" stroke="black" points="243,-112.5 243,-131.5 348,-131.5 348,-112.5 243,-112.5"/>
<text text-anchor="middle" x="295.5" y="-119.5" font-family="Helvetica,sans-Serif" font-size="10.00">../Leds/LedTypes.h</text>
</a>
</g>
</g>
<!-- Node5&#45;&gt;Node6 -->
<g id="edge5" class="edge">
<title>Node5&#45;&gt;Node6</title>
<path fill="none" stroke="midnightblue" d="M176.94,-224.21C185.47,-210.91 203.03,-185.39 222.5,-168 236.44,-155.55 254.25,-144.49 268.8,-136.46"/>
<polygon fill="midnightblue" stroke="midnightblue" points="270.65,-139.43 277.81,-131.62 267.34,-133.26 270.65,-139.43"/>
</g>
<!-- Node5&#45;&gt;Node11 -->
<g id="edge10" class="edge">
<title>Node5&#45;&gt;Node11</title>
<path fill="none" stroke="midnightblue" d="M206.09,-227.32C261.17,-218.28 369.6,-200.49 438.38,-189.2"/>
<polygon fill="midnightblue" stroke="midnightblue" points="439.35,-192.58 448.65,-187.51 438.22,-185.68 439.35,-192.58"/>
</g>
<!-- Node13 -->
<g id="node13" class="node">
<title>Node13</title>
<g id="a_node13"><a xlink:href="Patterns_8h.html" target="_top" target="_top" xlink:title=" ">
<polygon fill="none" stroke="black" points="21,-112.5 21,-131.5 86,-131.5 86,-112.5 21,-112.5"/>
<text text-anchor="middle" x="53.5" y="-119.5" font-family="Helvetica,sans-Serif" font-size="10.00">Patterns.h</text>
</a>
</g>
</g>
<!-- Node5&#45;&gt;Node13 -->
<g id="edge16" class="edge">
<title>Node5&#45;&gt;Node13</title>
<path fill="none" stroke="midnightblue" d="M163.47,-224.32C151.59,-211.6 128.47,-187.3 107.5,-168 96.28,-157.67 83.14,-146.7 72.63,-138.18"/>
<polygon fill="midnightblue" stroke="midnightblue" points="74.51,-135.2 64.52,-131.66 70.13,-140.65 74.51,-135.2"/>
</g>
<!-- Node14 -->
<g id="node14" class="node">
<title>Node14</title>
<g id="a_node14"><a xlink:href="PatternArgs_8h.html" target="_top" target="_top" xlink:title=" ">
<polygon fill="none" stroke="black" points="104.5,-112.5 104.5,-131.5 186.5,-131.5 186.5,-112.5 104.5,-112.5"/>
<text text-anchor="middle" x="145.5" y="-119.5" font-family="Helvetica,sans-Serif" font-size="10.00">PatternArgs.h</text>
</a>
</g>
</g>
<!-- Node5&#45;&gt;Node14 -->
<g id="edge18" class="edge">
<title>Node5&#45;&gt;Node14</title>
<path fill="none" stroke="midnightblue" d="M169.46,-224.37C165.26,-206.62 155.58,-165.67 149.9,-141.6"/>
<polygon fill="midnightblue" stroke="midnightblue" points="153.24,-140.52 147.53,-131.59 146.42,-142.13 153.24,-140.52"/>
</g>
<!-- Node7 -->
<g id="node7" class="node">
<title>Node7</title>
<g id="a_node7"><a xlink:title=" ">
<polygon fill="none" stroke="#bfbfbf" points="182,-56.5 182,-75.5 247,-75.5 247,-56.5 182,-56.5"/>
<text text-anchor="middle" x="214.5" y="-63.5" font-family="Helvetica,sans-Serif" font-size="10.00">inttypes.h</text>
</a>
</g>
</g>
<!-- Node6&#45;&gt;Node7 -->
<g id="edge6" class="edge">
<title>Node6&#45;&gt;Node7</title>
<path fill="none" stroke="midnightblue" d="M282.49,-112.32C269.97,-103.98 250.82,-91.21 236.03,-81.35"/>
<polygon fill="midnightblue" stroke="midnightblue" points="237.74,-78.29 227.48,-75.65 233.86,-84.11 237.74,-78.29"/>
</g>
<!-- Node8 -->
<g id="node8" class="node">
<title>Node8</title>
<g id="a_node8"><a xlink:title=" ">
<polygon fill="none" stroke="#bfbfbf" points="267.5,-56.5 267.5,-75.5 323.5,-75.5 323.5,-56.5 267.5,-56.5"/>
<text text-anchor="middle" x="295.5" y="-63.5" font-family="Helvetica,sans-Serif" font-size="10.00">stdarg.h</text>
</a>
</g>
</g>
<!-- Node6&#45;&gt;Node8 -->
<g id="edge7" class="edge">
<title>Node6&#45;&gt;Node8</title>
<path fill="none" stroke="midnightblue" d="M295.5,-112.08C295.5,-105.01 295.5,-94.86 295.5,-85.99"/>
<polygon fill="midnightblue" stroke="midnightblue" points="299,-85.75 295.5,-75.75 292,-85.75 299,-85.75"/>
</g>
<!-- Node9 -->
<g id="node9" class="node">
<title>Node9</title>
<g id="a_node9"><a xlink:href="VortexConfig_8h.html" target="_top" target="_top" xlink:title=" ">
<polygon fill="none" stroke="black" points="468,-56.5 468,-75.5 565,-75.5 565,-56.5 468,-56.5"/>
<text text-anchor="middle" x="516.5" y="-63.5" font-family="Helvetica,sans-Serif" font-size="10.00">../VortexConfig.h</text>
</a>
</g>
</g>
<!-- Node6&#45;&gt;Node9 -->
<g id="edge8" class="edge">
<title>Node6&#45;&gt;Node9</title>
<path fill="none" stroke="midnightblue" d="M330.52,-112.44C368.75,-103.1 430.07,-88.12 471.76,-77.93"/>
<polygon fill="midnightblue" stroke="midnightblue" points="472.76,-81.29 481.65,-75.52 471.1,-74.49 472.76,-81.29"/>
</g>
<!-- Node10 -->
<g id="node10" class="node">
<title>Node10</title>
<g id="a_node10"><a xlink:href="ColorConstants_8h.html" target="_top" target="_top" xlink:title=" ">
<polygon fill="none" stroke="black" points="410.5,-0.5 410.5,-19.5 544.5,-19.5 544.5,-0.5 410.5,-0.5"/>
<text text-anchor="middle" x="477.5" y="-7.5" font-family="Helvetica,sans-Serif" font-size="10.00">Colors/ColorConstants.h</text>
</a>
</g>
</g>
<!-- Node9&#45;&gt;Node10 -->
<g id="edge9" class="edge">
<title>Node9&#45;&gt;Node10</title>
<path fill="none" stroke="midnightblue" d="M510.06,-56.08C504.55,-48.46 496.47,-37.26 489.74,-27.94"/>
<polygon fill="midnightblue" stroke="midnightblue" points="492.51,-25.81 483.82,-19.75 486.84,-29.91 492.51,-25.81"/>
</g>
<!-- Node11&#45;&gt;Node9 -->
<g id="edge15" class="edge">
<title>Node11&#45;&gt;Node9</title>
<path fill="none" stroke="midnightblue" d="M507.39,-168.32C513.77,-159.68 522.81,-145.77 526.5,-132 530.66,-116.49 527.23,-98.41 523.3,-85.26"/>
<polygon fill="midnightblue" stroke="midnightblue" points="526.53,-83.9 520.03,-75.54 519.9,-86.13 526.53,-83.9"/>
</g>
<!-- Node12 -->
<g id="node12" class="node">
<title>Node12</title>
<g id="a_node12"><a xlink:href="ColorTypes_8h.html" target="_top" target="_top" xlink:title=" ">
<polygon fill="none" stroke="black" points="405,-112.5 405,-131.5 484,-131.5 484,-112.5 405,-112.5"/>
<text text-anchor="middle" x="444.5" y="-119.5" font-family="Helvetica,sans-Serif" font-size="10.00">ColorTypes.h</text>
</a>
</g>
</g>
<!-- Node11&#45;&gt;Node12 -->
<g id="edge11" class="edge">
<title>Node11&#45;&gt;Node12</title>
<path fill="none" stroke="midnightblue" d="M491.5,-168.32C483.31,-160.42 470.99,-148.55 461.03,-138.94"/>
<polygon fill="midnightblue" stroke="midnightblue" points="463.29,-136.26 453.66,-131.83 458.43,-141.29 463.29,-136.26"/>
</g>
<!-- Node12&#45;&gt;Node7 -->
<g id="edge12" class="edge">
<title>Node12&#45;&gt;Node7</title>
<path fill="none" stroke="midnightblue" d="M408.06,-112.44C367.01,-102.81 300.4,-87.17 257.02,-76.98"/>
<polygon fill="midnightblue" stroke="midnightblue" points="257.59,-73.52 247.05,-74.64 255.99,-80.34 257.59,-73.52"/>
</g>
<!-- Node12&#45;&gt;Node9 -->
<g id="edge13" class="edge">
<title>Node12&#45;&gt;Node9</title>
<path fill="none" stroke="midnightblue" d="M456.07,-112.32C466.92,-104.18 483.38,-91.84 496.38,-82.09"/>
<polygon fill="midnightblue" stroke="midnightblue" points="498.82,-84.63 504.72,-75.83 494.62,-79.03 498.82,-84.63"/>
</g>
<!-- Node12&#45;&gt;Node10 -->
<g id="edge14" class="edge">
<title>Node12&#45;&gt;Node10</title>
<path fill="none" stroke="midnightblue" d="M446.03,-112.47C448.38,-99.95 453.27,-75.89 459.5,-56 462.33,-46.97 466.15,-37.18 469.54,-29.05"/>
<polygon fill="midnightblue" stroke="midnightblue" points="472.78,-30.39 473.5,-19.82 466.34,-27.63 472.78,-30.39"/>
</g>
<!-- Node13&#45;&gt;Node7 -->
<g id="edge17" class="edge">
<title>Node13&#45;&gt;Node7</title>
<path fill="none" stroke="midnightblue" d="M79.01,-112.44C106.1,-103.36 149.09,-88.94 179.37,-78.78"/>
<polygon fill="midnightblue" stroke="midnightblue" points="180.74,-82.01 189.11,-75.52 178.51,-75.38 180.74,-82.01"/>
</g>
<!-- Node14&#45;&gt;Node7 -->
<g id="edge19" class="edge">
<title>Node14&#45;&gt;Node7</title>
<path fill="none" stroke="midnightblue" d="M156.59,-112.32C166.99,-104.18 182.76,-91.84 195.22,-82.09"/>
<polygon fill="midnightblue" stroke="midnightblue" points="197.49,-84.75 203.21,-75.83 193.18,-79.24 197.49,-84.75"/>
</g>
<!-- Node15&#45;&gt;Node6 -->
<g id="edge22" class="edge">
<title>Node15&#45;&gt;Node6</title>
<path fill="none" stroke="midnightblue" d="M88.48,-168.44C131.39,-159.02 200.45,-143.87 246.87,-133.68"/>
<polygon fill="midnightblue" stroke="midnightblue" points="247.69,-137.08 256.7,-131.52 246.19,-130.24 247.69,-137.08"/>
</g>
<!-- Node15&#45;&gt;Node7 -->
<g id="edge21" class="edge">
<title>Node15&#45;&gt;Node7</title>
<path fill="none" stroke="midnightblue" d="M38.08,-168.5C22.1,-155.58 -3.39,-130.55 11.5,-112 31.2,-87.45 118.25,-75.47 171.76,-70.32"/>
<polygon fill="midnightblue" stroke="midnightblue" points="172.34,-73.78 181.98,-69.38 171.7,-66.81 172.34,-73.78"/>
</g>
<!-- Node16&#45;&gt;Node9 -->
<g id="edge28" class="edge">
<title>Node16&#45;&gt;Node9</title>
<path fill="none" stroke="midnightblue" d="M403.68,-229.26C460.85,-224.09 544.59,-212.48 564.5,-188 590.63,-155.86 554.74,-107.72 532.24,-82.96"/>
<polygon fill="midnightblue" stroke="midnightblue" points="534.64,-80.4 525.24,-75.52 529.54,-85.2 534.64,-80.4"/>
</g>
<!-- Node16&#45;&gt;Node17 -->
<g id="edge24" class="edge">
<title>Node16&#45;&gt;Node17</title>
<path fill="none" stroke="midnightblue" d="M336.61,-224.32C325.35,-216.11 308.21,-203.6 294.79,-193.81"/>
<polygon fill="midnightblue" stroke="midnightblue" points="296.75,-190.9 286.61,-187.83 292.62,-196.56 296.75,-190.9"/>
</g>
<!-- Node17&#45;&gt;Node6 -->
<g id="edge27" class="edge">
<title>Node17&#45;&gt;Node6</title>
<path fill="none" stroke="midnightblue" d="M277.97,-168.08C280.81,-160.77 284.93,-150.18 288.46,-141.1"/>
<polygon fill="midnightblue" stroke="midnightblue" points="291.73,-142.34 292.1,-131.75 285.21,-139.8 291.73,-142.34"/>
</g>
<!-- Node17&#45;&gt;Node7 -->
<g id="edge25" class="edge">
<title>Node17&#45;&gt;Node7</title>
<path fill="none" stroke="midnightblue" d="M264.62,-168.27C255.6,-159.81 242.5,-146.21 234.5,-132 226.36,-117.53 221.13,-99.34 218.06,-85.89"/>
<polygon fill="midnightblue" stroke="midnightblue" points="221.45,-84.97 215.99,-75.89 214.59,-86.39 221.45,-84.97"/>
</g>
<!-- Node17&#45;&gt;Node9 -->
<g id="edge26" class="edge">
<title>Node17&#45;&gt;Node9</title>
<path fill="none" stroke="midnightblue" d="M317.66,-169.25C379.55,-157.99 486.86,-137.78 493.5,-132 506.88,-120.35 512.47,-100.4 514.82,-85.67"/>
<polygon fill="midnightblue" stroke="midnightblue" points="518.3,-85.99 516.05,-75.64 511.35,-85.14 518.3,-85.99"/>
</g>
<!-- Node18&#45;&gt;Node6 -->
<g id="edge34" class="edge">
<title>Node18&#45;&gt;Node6</title>
<path fill="none" stroke="midnightblue" d="M367.68,-168.32C354.27,-159.9 333.68,-146.97 317.91,-137.07"/>
<polygon fill="midnightblue" stroke="midnightblue" points="319.61,-134.01 309.28,-131.65 315.89,-139.94 319.61,-134.01"/>
</g>
<!-- Node18&#45;&gt;Node7 -->
<g id="edge32" class="edge">
<title>Node18&#45;&gt;Node7</title>
<path fill="none" stroke="midnightblue" d="M380.68,-168.09C378.91,-154.17 373.53,-127.26 357.5,-112 342.94,-98.14 293.88,-84.62 257.26,-76.08"/>
<polygon fill="midnightblue" stroke="midnightblue" points="257.83,-72.62 247.3,-73.8 256.27,-79.44 257.83,-72.62"/>
</g>
<!-- Node18&#45;&gt;Node12 -->
<g id="edge33" class="edge">
<title>Node18&#45;&gt;Node12</title>
<path fill="none" stroke="midnightblue" d="M391.62,-168.32C401.03,-160.26 415.24,-148.08 426.57,-138.37"/>
<polygon fill="midnightblue" stroke="midnightblue" points="428.88,-141 434.19,-131.83 424.32,-135.68 428.88,-141"/>
</g>
</g>
</svg>
        <g id="navigator" transform="translate(0 0)" fill="#404254">
                <rect fill="#f2f5e9" fill-opacity="0.5" stroke="#606060" stroke-width=".5" x="0" y="0" width="60" height="60"/>
                <use id="zoomplus" xlink:href="#zoomPlus" target="_top" x="17" y="9" onmousedown="handleZoom(evt,'in')"/>
                <use id="zoomminus" xlink:href="#zoomMin" target="_top" x="42" y="9" onmousedown="handleZoom(evt,'out')"/>
                <use id="reset" xlink:href="#resetDef" target="_top" x="30" y="36" onmousedown="handleReset()"/>
                <g id="arrowUp" xlink:href="#dirArrow" target="_top" transform="translate(30 24)" onmousedown="handlePan(0,-1)">
                  <use xlink:href="#rim" target="_top" fill="#404040">
                        <set attributeName="fill" to="#808080" begin="arrowUp.mouseover" end="arrowUp.mouseout"/>
                  </use>
                  <path fill="none" stroke="white" stroke-width="1.5" d="M0,-3.0v7 M-2.5,-0.5L0,-3.0L2.5,-0.5"/>
                </g>
                <g id="arrowRight" xlink:href="#dirArrow" target="_top" transform="rotate(90) translate(36 -43)" onmousedown="handlePan(1,0)">
                  <use xlink:href="#rim" target="_top" fill="#404040">
                        <set attributeName="fill" to="#808080" begin="arrowRight.mouseover" end="arrowRight.mouseout"/>
                  </use>
                  <path fill="none" stroke="white" stroke-width="1.5" d="M0,-3.0v7 M-2.5,-0.5L0,-3.0L2.5,-0.5"/>
                </g>
                <g id="arrowDown" xlink:href="#dirArrow" target="_top" transform="rotate(180) translate(-30 -48)" onmousedown="handlePan(0,1)">
                  <use xlink:href="#rim" target="_top" fill="#404040">
                        <set attributeName="fill" to="#808080" begin="arrowDown.mouseover" end="arrowDown.mouseout"/>
                  </use>
                  <path fill="none" stroke="white" stroke-width="1.5" d="M0,-3.0v7 M-2.5,-0.5L0,-3.0L2.5,-0.5"/>
                </g>
                <g id="arrowLeft" xlink:href="#dirArrow" target="_top" transform="rotate(270) translate(-36 17)" onmousedown="handlePan(-1,0)">
                  <use xlink:href="#rim" target="_top" fill="#404040">
                        <set attributeName="fill" to="#808080" begin="arrowLeft.mouseover" end="arrowLeft.mouseout"/>
                  </use>
                  <path fill="none" stroke="white" stroke-width="1.5" d="M0,-3.0v7 M-2.5,-0.5L0,-3.0L2.5,-0.5"/>
                </g>
        </g>
        <svg viewBox="0 0 15 15" width="100%" height="30px" preserveAspectRatio="xMaxYMin meet">
         <g id="arrow_out" transform="scale(0.3 0.3)">
          <a xlink:href="BlendPattern_8cpp__incl_org.svg" target="_top" target="_base">
           <rect id="button" ry="5" rx="5" y="6" x="6" height="38" width="38"
                fill="#f2f5e9" fill-opacity="0.5" stroke="#606060" stroke-width="1.0"/>
           <path id="arrow"
             d="M 11.500037,31.436501 C 11.940474,20.09759 22.043105,11.32322 32.158766,21.979434 L 37.068811,17.246167 C 37.068811,17.246167 37.088388,32 37.088388,32 L 22.160133,31.978069 C 22.160133,31.978069 26.997745,27.140456 26.997745,27.140456 C 18.528582,18.264221 13.291696,25.230495 11.500037,31.436501 z"
             style="fill:#404040;"/>
          </a>
         </g>
        </svg>
</svg>
