<?xml version="1.0" encoding="UTF-8" standalone="no"?>
<!DOCTYPE svg PUBLIC "-//W3C//DTD SVG 1.1//EN"
 "http://www.w3.org/Graphics/SVG/1.1/DTD/svg11.dtd">
<!-- Generated by graphviz version 2.43.0 (0)
 -->
<!-- Title: VortexEngine/src/Patterns/Multi/BlinkStepPattern.h Pages: 1 -->
<!--zoomable 173 -->
<svg id="main" version="1.1" xmlns="http://www.w3.org/2000/svg" xmlns:xlink="http://www.w3.org/1999/xlink" xml:space="preserve" onload="init(evt)">
<style type="text/css"><![CDATA[
.edge:hover path { stroke: red; }
.edge:hover polygon { stroke: red; fill: red; }
]]></style>
<script type="text/javascript"><![CDATA[
var edges = document.getElementsByTagName('g');
if (edges && edges.length) {
  for (var i=0;i<edges.length;i++) {
    if (edges[i].id.substr(0,4)=='edge') {
      edges[i].setAttribute('class','edge');
    }
  }
}
]]></script>
        <defs>
                <circle id="rim" cx="0" cy="0" r="7"/>
                <circle id="rim2" cx="0" cy="0" r="3.5"/>
                <g id="zoomPlus">
                        <use xlink:href="#rim" fill="#404040">
                                <set attributeName="fill" to="#808080" begin="zoomplus.mouseover" end="zoomplus.mouseout"/>
                        </use>
                        <path d="M-4,0h8M0,-4v8" fill="none" stroke="white" stroke-width="1.5" pointer-events="none"/>
                </g>
                <g id="zoomMin">
                        <use xlink:href="#rim" fill="#404040">
                                <set attributeName="fill" to="#808080" begin="zoomminus.mouseover" end="zoomminus.mouseout"/>
                        </use>
                        <path d="M-4,0h8" fill="none" stroke="white" stroke-width="1.5" pointer-events="none"/>
                </g>
                <g id="dirArrow">
                        <path fill="none" stroke="white" stroke-width="1.5" d="M0,-3.0v7 M-2.5,-0.5L0,-3.0L2.5,-0.5"/>
                </g>
               <g id="resetDef">
                       <use xlink:href="#rim2" fill="#404040">
                               <set attributeName="fill" to="#808080" begin="reset.mouseover" end="reset.mouseout"/>
                       </use>
               </g>
        </defs>

<script type="text/javascript">
var viewWidth = 2574;
var viewHeight = 173;
var sectionId = 'dynsection-1';
</script>
<script xlink:href="svgpan.js"/>
<svg id="graph" class="graph">
<g id="viewport">
<title>VortexEngine/src/Patterns/Multi/BlinkStepPattern.h</title>
<!-- Node1 -->
<g id="node1" class="node">
<title>Node1</title>
<g id="a_node1"><a xlink:title=" ">
<polygon fill="#bfbfbf" stroke="black" points="1143,-134.5 1143,-164.5 1284,-164.5 1284,-134.5 1143,-134.5"/>
<text text-anchor="start" x="1151" y="-152.5" font-family="Helvetica,sans-Serif" font-size="10.00">VortexEngine/src/Patterns</text>
<text text-anchor="middle" x="1213.5" y="-141.5" font-family="Helvetica,sans-Serif" font-size="10.00">/Multi/BlinkStepPattern.h</text>
</a>
</g>
</g>
<!-- Node2 -->
<g id="node2" class="node">
<title>Node2</title>
<g id="a_node2"><a xlink:href="BlinkStepPattern_8cpp.html" target="_top" xlink:title=" ">
<polygon fill="none" stroke="black" points="0,-67.5 0,-97.5 149,-97.5 149,-67.5 0,-67.5"/>
<text text-anchor="start" x="8" y="-85.5" font-family="Helvetica,sans-Serif" font-size="10.00">VortexEngine/src/Patterns</text>
<text text-anchor="middle" x="74.5" y="-74.5" font-family="Helvetica,sans-Serif" font-size="10.00">/Multi/BlinkStepPattern.cpp</text>
</a>
</g>
</g>
<!-- Node1&#45;&gt;Node2 -->
<g id="edge1" class="edge">
<title>Node1&#45;&gt;Node2</title>
<path fill="none" stroke="midnightblue" d="M1132.8,-148.08C955.7,-146.4 519.88,-138.16 157.5,-98 154.74,-97.69 151.93,-97.35 149.09,-96.99"/>
<polygon fill="midnightblue" stroke="midnightblue" points="1132.79,-151.58 1142.82,-148.17 1132.85,-144.58 1132.79,-151.58"/>
</g>
<!-- Node3 -->
<g id="node3" class="node">
<title>Node3</title>
<g id="a_node3"><a xlink:href="BouncePattern_8h.html" target="_top" xlink:title=" ">
<polygon fill="none" stroke="black" points="167,-67.5 167,-97.5 308,-97.5 308,-67.5 167,-67.5"/>
<text text-anchor="start" x="175" y="-85.5" font-family="Helvetica,sans-Serif" font-size="10.00">VortexEngine/src/Patterns</text>
<text text-anchor="middle" x="237.5" y="-74.5" font-family="Helvetica,sans-Serif" font-size="10.00">/Multi/BouncePattern.h</text>
</a>
</g>
</g>
<!-- Node1&#45;&gt;Node3 -->
<g id="edge2" class="edge">
<title>Node1&#45;&gt;Node3</title>
<path fill="none" stroke="midnightblue" d="M1132.8,-147.34C975.31,-144.33 616.19,-133.8 316.5,-98 313.73,-97.67 310.91,-97.3 308.07,-96.91"/>
<polygon fill="midnightblue" stroke="midnightblue" points="1132.82,-150.84 1142.88,-147.53 1132.95,-143.84 1132.82,-150.84"/>
</g>
<!-- Node6 -->
<g id="node6" class="node">
<title>Node6</title>
<g id="a_node6"><a xlink:href="CrossDopsPattern_8h.html" target="_top" xlink:title=" ">
<polygon fill="none" stroke="black" points="326,-67.5 326,-97.5 469,-97.5 469,-67.5 326,-67.5"/>
<text text-anchor="start" x="334" y="-85.5" font-family="Helvetica,sans-Serif" font-size="10.00">VortexEngine/src/Patterns</text>
<text text-anchor="middle" x="397.5" y="-74.5" font-family="Helvetica,sans-Serif" font-size="10.00">/Multi/CrossDopsPattern.h</text>
</a>
</g>
</g>
<!-- Node1&#45;&gt;Node6 -->
<g id="edge5" class="edge">
<title>Node1&#45;&gt;Node6</title>
<path fill="none" stroke="midnightblue" d="M1132.66,-145.88C996.87,-140.83 714.55,-127.52 477.5,-98 474.84,-97.67 472.13,-97.31 469.4,-96.92"/>
<polygon fill="midnightblue" stroke="midnightblue" points="1132.85,-149.39 1142.97,-146.26 1133.11,-142.4 1132.85,-149.39"/>
</g>
<!-- Node8 -->
<g id="node8" class="node">
<title>Node8</title>
<g id="a_node8"><a xlink:href="DoubleStrobePattern_8h.html" target="_top" xlink:title=" ">
<polygon fill="none" stroke="black" points="487,-67.5 487,-97.5 644,-97.5 644,-67.5 487,-67.5"/>
<text text-anchor="start" x="495" y="-85.5" font-family="Helvetica,sans-Serif" font-size="10.00">VortexEngine/src/Patterns</text>
<text text-anchor="middle" x="565.5" y="-74.5" font-family="Helvetica,sans-Serif" font-size="10.00">/Multi/DoubleStrobePattern.h</text>
</a>
</g>
</g>
<!-- Node1&#45;&gt;Node8 -->
<g id="edge8" class="edge">
<title>Node1&#45;&gt;Node8</title>
<path fill="none" stroke="midnightblue" d="M1132.63,-143.14C1023.41,-135.47 822.81,-119.83 652.5,-98 649.77,-97.65 646.99,-97.28 644.18,-96.89"/>
<polygon fill="midnightblue" stroke="midnightblue" points="1132.69,-146.66 1142.91,-143.86 1133.18,-139.67 1132.69,-146.66"/>
</g>
<!-- Node10 -->
<g id="node10" class="node">
<title>Node10</title>
<g id="a_node10"><a xlink:href="DripPattern_8h.html" target="_top" xlink:title=" ">
<polygon fill="none" stroke="black" points="662,-67.5 662,-97.5 803,-97.5 803,-67.5 662,-67.5"/>
<text text-anchor="start" x="670" y="-85.5" font-family="Helvetica,sans-Serif" font-size="10.00">VortexEngine/src/Patterns</text>
<text text-anchor="middle" x="732.5" y="-74.5" font-family="Helvetica,sans-Serif" font-size="10.00">/Multi/DripPattern.h</text>
</a>
</g>
</g>
<!-- Node1&#45;&gt;Node10 -->
<g id="edge11" class="edge">
<title>Node1&#45;&gt;Node10</title>
<path fill="none" stroke="midnightblue" d="M1132.73,-139.71C1051.42,-130.55 922.5,-115.14 811.5,-98 808.74,-97.57 805.94,-97.13 803.1,-96.66"/>
<polygon fill="midnightblue" stroke="midnightblue" points="1132.56,-143.22 1142.89,-140.85 1133.34,-136.26 1132.56,-143.22"/>
</g>
<!-- Node12 -->
<g id="node12" class="node">
<title>Node12</title>
<g id="a_node12"><a xlink:href="FillPattern_8h.html" target="_top" xlink:title=" ">
<polygon fill="none" stroke="black" points="821,-67.5 821,-97.5 962,-97.5 962,-67.5 821,-67.5"/>
<text text-anchor="start" x="829" y="-85.5" font-family="Helvetica,sans-Serif" font-size="10.00">VortexEngine/src/Patterns</text>
<text text-anchor="middle" x="891.5" y="-74.5" font-family="Helvetica,sans-Serif" font-size="10.00">/Multi/FillPattern.h</text>
</a>
</g>
</g>
<!-- Node1&#45;&gt;Node12 -->
<g id="edge14" class="edge">
<title>Node1&#45;&gt;Node12</title>
<path fill="none" stroke="midnightblue" d="M1133.99,-132.45C1080.98,-121.75 1011.97,-107.82 961.13,-97.55"/>
<polygon fill="midnightblue" stroke="midnightblue" points="1133.53,-135.93 1144.03,-134.48 1134.92,-129.07 1133.53,-135.93"/>
</g>
<!-- Node14 -->
<g id="node14" class="node">
<title>Node14</title>
<g id="a_node14"><a xlink:href="LighthousePattern_8h.html" target="_top" xlink:title=" ">
<polygon fill="none" stroke="black" points="980.5,-67.5 980.5,-97.5 1124.5,-97.5 1124.5,-67.5 980.5,-67.5"/>
<text text-anchor="start" x="988.5" y="-85.5" font-family="Helvetica,sans-Serif" font-size="10.00">VortexEngine/src/Patterns</text>
<text text-anchor="middle" x="1052.5" y="-74.5" font-family="Helvetica,sans-Serif" font-size="10.00">/Multi/LighthousePattern.h</text>
</a>
</g>
</g>
<!-- Node1&#45;&gt;Node14 -->
<g id="edge17" class="edge">
<title>Node1&#45;&gt;Node14</title>
<path fill="none" stroke="midnightblue" d="M1169.02,-130.54C1143.26,-120.14 1111.3,-107.24 1087.37,-97.58"/>
<polygon fill="midnightblue" stroke="midnightblue" points="1167.98,-133.9 1178.57,-134.4 1170.6,-127.41 1167.98,-133.9"/>
</g>
<!-- Node16 -->
<g id="node16" class="node">
<title>Node16</title>
<g id="a_node16"><a xlink:href="MeteorPattern_8h.html" target="_top" xlink:title=" ">
<polygon fill="none" stroke="black" points="1143,-67.5 1143,-97.5 1284,-97.5 1284,-67.5 1143,-67.5"/>
<text text-anchor="start" x="1151" y="-85.5" font-family="Helvetica,sans-Serif" font-size="10.00">VortexEngine/src/Patterns</text>
<text text-anchor="middle" x="1213.5" y="-74.5" font-family="Helvetica,sans-Serif" font-size="10.00">/Multi/MeteorPattern.h</text>
</a>
</g>
</g>
<!-- Node1&#45;&gt;Node16 -->
<g id="edge20" class="edge">
<title>Node1&#45;&gt;Node16</title>
<path fill="none" stroke="midnightblue" d="M1213.5,-124.11C1213.5,-115.15 1213.5,-105.32 1213.5,-97.58"/>
<polygon fill="midnightblue" stroke="midnightblue" points="1210,-124.4 1213.5,-134.4 1217,-124.4 1210,-124.4"/>
</g>
<!-- Node18 -->
<g id="node18" class="node">
<title>Node18</title>
<g id="a_node18"><a xlink:href="SnowballPattern_8h.html" target="_top" xlink:title=" ">
<polygon fill="none" stroke="black" points="1302,-67.5 1302,-97.5 1443,-97.5 1443,-67.5 1302,-67.5"/>
<text text-anchor="start" x="1310" y="-85.5" font-family="Helvetica,sans-Serif" font-size="10.00">VortexEngine/src/Patterns</text>
<text text-anchor="middle" x="1372.5" y="-74.5" font-family="Helvetica,sans-Serif" font-size="10.00">/Multi/SnowballPattern.h</text>
</a>
</g>
</g>
<!-- Node1&#45;&gt;Node18 -->
<g id="edge23" class="edge">
<title>Node1&#45;&gt;Node18</title>
<path fill="none" stroke="midnightblue" d="M1257.42,-130.54C1282.87,-120.14 1314.43,-107.24 1338.07,-97.58"/>
<polygon fill="midnightblue" stroke="midnightblue" points="1255.93,-127.37 1248,-134.4 1258.58,-133.85 1255.93,-127.37"/>
</g>
<!-- Node20 -->
<g id="node20" class="node">
<title>Node20</title>
<g id="a_node20"><a xlink:href="SparkleTracePattern_8h.html" target="_top" xlink:title=" ">
<polygon fill="none" stroke="black" points="1461,-67.5 1461,-97.5 1614,-97.5 1614,-67.5 1461,-67.5"/>
<text text-anchor="start" x="1469" y="-85.5" font-family="Helvetica,sans-Serif" font-size="10.00">VortexEngine/src/Patterns</text>
<text text-anchor="middle" x="1537.5" y="-74.5" font-family="Helvetica,sans-Serif" font-size="10.00">/Multi/SparkleTracePattern.h</text>
</a>
</g>
</g>
<!-- Node1&#45;&gt;Node20 -->
<g id="edge26" class="edge">
<title>Node1&#45;&gt;Node20</title>
<path fill="none" stroke="midnightblue" d="M1293.51,-132.45C1346.84,-121.75 1416.29,-107.82 1467.44,-97.55"/>
<polygon fill="midnightblue" stroke="midnightblue" points="1292.52,-129.08 1283.4,-134.48 1293.9,-135.94 1292.52,-129.08"/>
</g>
<!-- Node22 -->
<g id="node22" class="node">
<title>Node22</title>
<g id="a_node22"><a xlink:href="TheaterChasePattern_8h.html" target="_top" xlink:title=" ">
<polygon fill="none" stroke="black" points="1632.5,-67.5 1632.5,-97.5 1790.5,-97.5 1790.5,-67.5 1632.5,-67.5"/>
<text text-anchor="start" x="1640.5" y="-85.5" font-family="Helvetica,sans-Serif" font-size="10.00">VortexEngine/src/Patterns</text>
<text text-anchor="middle" x="1711.5" y="-74.5" font-family="Helvetica,sans-Serif" font-size="10.00">/Multi/TheaterChasePattern.h</text>
</a>
</g>
</g>
<!-- Node1&#45;&gt;Node22 -->
<g id="edge29" class="edge">
<title>Node1&#45;&gt;Node22</title>
<path fill="none" stroke="midnightblue" d="M1294.45,-139.51C1377.25,-130.09 1509.53,-114.4 1623.5,-98 1626.41,-97.58 1629.38,-97.14 1632.37,-96.69"/>
<polygon fill="midnightblue" stroke="midnightblue" points="1293.9,-136.06 1284.36,-140.66 1294.69,-143.01 1293.9,-136.06"/>
</g>
<!-- Node24 -->
<g id="node24" class="node">
<title>Node24</title>
<g id="a_node24"><a xlink:href="VortexPattern_8h.html" target="_top" xlink:title=" ">
<polygon fill="none" stroke="black" points="1809,-67.5 1809,-97.5 1950,-97.5 1950,-67.5 1809,-67.5"/>
<text text-anchor="start" x="1817" y="-85.5" font-family="Helvetica,sans-Serif" font-size="10.00">VortexEngine/src/Patterns</text>
<text text-anchor="middle" x="1879.5" y="-74.5" font-family="Helvetica,sans-Serif" font-size="10.00">/Multi/VortexPattern.h</text>
</a>
</g>
</g>
<!-- Node1&#45;&gt;Node24 -->
<g id="edge32" class="edge">
<title>Node1&#45;&gt;Node24</title>
<path fill="none" stroke="midnightblue" d="M1294.41,-143.92C1407.7,-136.97 1619.88,-121.96 1799.5,-98 1802.58,-97.59 1805.72,-97.14 1808.89,-96.67"/>
<polygon fill="midnightblue" stroke="midnightblue" points="1293.86,-140.45 1284.09,-144.55 1294.28,-147.44 1293.86,-140.45"/>
</g>
<!-- Node26 -->
<g id="node26" class="node">
<title>Node26</title>
<g id="a_node26"><a xlink:href="VortexWipePattern_8h.html" target="_top" xlink:title=" ">
<polygon fill="none" stroke="black" points="1968,-67.5 1968,-97.5 2115,-97.5 2115,-67.5 1968,-67.5"/>
<text text-anchor="start" x="1976" y="-85.5" font-family="Helvetica,sans-Serif" font-size="10.00">VortexEngine/src/Patterns</text>
<text text-anchor="middle" x="2041.5" y="-74.5" font-family="Helvetica,sans-Serif" font-size="10.00">/Multi/VortexWipePattern.h</text>
</a>
</g>
</g>
<!-- Node1&#45;&gt;Node26 -->
<g id="edge35" class="edge">
<title>Node1&#45;&gt;Node26</title>
<path fill="none" stroke="midnightblue" d="M1294.2,-145.88C1431.34,-140.79 1718.45,-127.38 1959.5,-98 1962.23,-97.67 1965,-97.3 1967.8,-96.92"/>
<polygon fill="midnightblue" stroke="midnightblue" points="1294.06,-142.38 1284.19,-146.25 1294.31,-149.38 1294.06,-142.38"/>
</g>
<!-- Node28 -->
<g id="node28" class="node">
<title>Node28</title>
<g id="a_node28"><a xlink:href="WarpPattern_8h.html" target="_top" xlink:title=" ">
<polygon fill="none" stroke="black" points="2133,-67.5 2133,-97.5 2274,-97.5 2274,-67.5 2133,-67.5"/>
<text text-anchor="start" x="2141" y="-85.5" font-family="Helvetica,sans-Serif" font-size="10.00">VortexEngine/src/Patterns</text>
<text text-anchor="middle" x="2203.5" y="-74.5" font-family="Helvetica,sans-Serif" font-size="10.00">/Multi/WarpPattern.h</text>
</a>
</g>
</g>
<!-- Node1&#45;&gt;Node28 -->
<g id="edge38" class="edge">
<title>Node1&#45;&gt;Node28</title>
<path fill="none" stroke="midnightblue" d="M1294.25,-147.44C1453.56,-144.59 1819.37,-134.31 2124.5,-98 2127.27,-97.67 2130.09,-97.3 2132.93,-96.91"/>
<polygon fill="midnightblue" stroke="midnightblue" points="1293.99,-143.94 1284.06,-147.62 1294.12,-150.94 1293.99,-143.94"/>
</g>
<!-- Node30 -->
<g id="node30" class="node">
<title>Node30</title>
<g id="a_node30"><a xlink:href="WarpWormPattern_8h.html" target="_top" xlink:title=" ">
<polygon fill="none" stroke="black" points="2292.5,-67.5 2292.5,-97.5 2436.5,-97.5 2436.5,-67.5 2292.5,-67.5"/>
<text text-anchor="start" x="2300.5" y="-85.5" font-family="Helvetica,sans-Serif" font-size="10.00">VortexEngine/src/Patterns</text>
<text text-anchor="middle" x="2364.5" y="-74.5" font-family="Helvetica,sans-Serif" font-size="10.00">/Multi/WarpWormPattern.h</text>
</a>
</g>
</g>
<!-- Node1&#45;&gt;Node30 -->
<g id="edge41" class="edge">
<title>Node1&#45;&gt;Node30</title>
<path fill="none" stroke="midnightblue" d="M1294.29,-148.26C1473.12,-146.96 1915.72,-139.42 2283.5,-98 2286.34,-97.68 2289.23,-97.32 2292.14,-96.93"/>
<polygon fill="midnightblue" stroke="midnightblue" points="1294.15,-144.77 1284.18,-148.33 1294.2,-151.76 1294.15,-144.77"/>
</g>
<!-- Node4 -->
<g id="node4" class="node">
<title>Node4</title>
<g id="a_node4"><a xlink:href="BouncePattern_8cpp.html" target="_top" xlink:title=" ">
<polygon fill="none" stroke="black" points="54,-0.5 54,-30.5 195,-30.5 195,-0.5 54,-0.5"/>
<text text-anchor="start" x="62" y="-18.5" font-family="Helvetica,sans-Serif" font-size="10.00">VortexEngine/src/Patterns</text>
<text text-anchor="middle" x="124.5" y="-7.5" font-family="Helvetica,sans-Serif" font-size="10.00">/Multi/BouncePattern.cpp</text>
</a>
</g>
</g>
<!-- Node3&#45;&gt;Node4 -->
<g id="edge3" class="edge">
<title>Node3&#45;&gt;Node4</title>
<path fill="none" stroke="midnightblue" d="M204.11,-62.3C186.43,-52.12 165.1,-39.85 148.97,-30.58"/>
<polygon fill="midnightblue" stroke="midnightblue" points="202.57,-65.44 212.98,-67.4 206.06,-59.38 202.57,-65.44"/>
</g>
<!-- Node5 -->
<g id="node5" class="node">
<title>Node5</title>
<g id="a_node5"><a xlink:href="PatternBuilder_8cpp.html" target="_top" xlink:title=" ">
<polygon fill="none" stroke="black" points="1222,-0.5 1222,-30.5 1363,-30.5 1363,-0.5 1222,-0.5"/>
<text text-anchor="start" x="1230" y="-18.5" font-family="Helvetica,sans-Serif" font-size="10.00">VortexEngine/src/Patterns</text>
<text text-anchor="middle" x="1292.5" y="-7.5" font-family="Helvetica,sans-Serif" font-size="10.00">/PatternBuilder.cpp</text>
</a>
</g>
</g>
<!-- Node3&#45;&gt;Node5 -->
<g id="edge4" class="edge">
<title>Node3&#45;&gt;Node5</title>
<path fill="none" stroke="midnightblue" d="M318.09,-66.93C714.79,-23.74 820.25,-74.76 1213.5,-31 1216.27,-30.69 1219.09,-30.34 1221.94,-29.96"/>
<polygon fill="midnightblue" stroke="midnightblue" points="317.62,-63.46 308.06,-68.04 318.39,-70.42 317.62,-63.46"/>
</g>
<!-- Node6&#45;&gt;Node5 -->
<g id="edge7" class="edge">
<title>Node6&#45;&gt;Node5</title>
<path fill="none" stroke="midnightblue" d="M479.57,-66.86C804.65,-30.51 891.5,-68.26 1213.5,-31 1216.27,-30.68 1219.09,-30.32 1221.93,-29.93"/>
<polygon fill="midnightblue" stroke="midnightblue" points="478.93,-63.41 469.39,-68.01 479.72,-70.36 478.93,-63.41"/>
</g>
<!-- Node7 -->
<g id="node7" class="node">
<title>Node7</title>
<g id="a_node7"><a xlink:href="CrossDopsPattern_8cpp.html" target="_top" xlink:title=" ">
<polygon fill="none" stroke="black" points="213.5,-0.5 213.5,-30.5 367.5,-30.5 367.5,-0.5 213.5,-0.5"/>
<text text-anchor="start" x="221.5" y="-18.5" font-family="Helvetica,sans-Serif" font-size="10.00">VortexEngine/src/Patterns</text>
<text text-anchor="middle" x="290.5" y="-7.5" font-family="Helvetica,sans-Serif" font-size="10.00">/Multi/CrossDopsPattern.cpp</text>
</a>
</g>
</g>
<!-- Node6&#45;&gt;Node7 -->
<g id="edge6" class="edge">
<title>Node6&#45;&gt;Node7</title>
<path fill="none" stroke="midnightblue" d="M365.42,-62.02C348.77,-51.9 328.81,-39.77 313.67,-30.58"/>
<polygon fill="midnightblue" stroke="midnightblue" points="363.92,-65.2 374.28,-67.4 367.55,-59.21 363.92,-65.2"/>
</g>
<!-- Node8&#45;&gt;Node5 -->
<g id="edge10" class="edge">
<title>Node8&#45;&gt;Node5</title>
<path fill="none" stroke="midnightblue" d="M654.22,-66.88C902.45,-39.03 968.8,-61.2 1213.5,-31 1216.27,-30.66 1219.09,-30.28 1221.93,-29.88"/>
<polygon fill="midnightblue" stroke="midnightblue" points="653.71,-63.41 644.17,-68.02 654.5,-70.37 653.71,-63.41"/>
</g>
<!-- Node9 -->
<g id="node9" class="node">
<title>Node9</title>
<g id="a_node9"><a xlink:href="DoubleStrobePattern_8cpp.html" target="_top" xlink:title=" ">
<polygon fill="none" stroke="black" points="385.5,-0.5 385.5,-30.5 553.5,-30.5 553.5,-0.5 385.5,-0.5"/>
<text text-anchor="start" x="393.5" y="-18.5" font-family="Helvetica,sans-Serif" font-size="10.00">VortexEngine/src/Patterns</text>
<text text-anchor="middle" x="469.5" y="-7.5" font-family="Helvetica,sans-Serif" font-size="10.00">/Multi/DoubleStrobePattern.cpp</text>
</a>
</g>
</g>
<!-- Node8&#45;&gt;Node9 -->
<g id="edge9" class="edge">
<title>Node8&#45;&gt;Node9</title>
<path fill="none" stroke="midnightblue" d="M536.31,-61.73C521.45,-51.68 503.74,-39.68 490.29,-30.58"/>
<polygon fill="midnightblue" stroke="midnightblue" points="534.43,-64.69 544.67,-67.4 538.35,-58.89 534.43,-64.69"/>
</g>
<!-- Node10&#45;&gt;Node5 -->
<g id="edge13" class="edge">
<title>Node10&#45;&gt;Node5</title>
<path fill="none" stroke="midnightblue" d="M813.04,-66.87C990.96,-43.22 1038.97,-54.78 1213.5,-31 1216.26,-30.62 1219.08,-30.22 1221.92,-29.79"/>
<polygon fill="midnightblue" stroke="midnightblue" points="812.53,-63.41 803.08,-68.21 813.46,-70.34 812.53,-63.41"/>
</g>
<!-- Node11 -->
<g id="node11" class="node">
<title>Node11</title>
<g id="a_node11"><a xlink:href="DripPattern_8cpp.html" target="_top" xlink:title=" ">
<polygon fill="none" stroke="black" points="572,-0.5 572,-30.5 713,-30.5 713,-0.5 572,-0.5"/>
<text text-anchor="start" x="580" y="-18.5" font-family="Helvetica,sans-Serif" font-size="10.00">VortexEngine/src/Patterns</text>
<text text-anchor="middle" x="642.5" y="-7.5" font-family="Helvetica,sans-Serif" font-size="10.00">/Multi/DripPattern.cpp</text>
</a>
</g>
</g>
<!-- Node10&#45;&gt;Node11 -->
<g id="edge12" class="edge">
<title>Node10&#45;&gt;Node11</title>
<path fill="none" stroke="midnightblue" d="M704.74,-61.45C690.89,-51.45 674.48,-39.6 661.99,-30.58"/>
<polygon fill="midnightblue" stroke="midnightblue" points="702.82,-64.38 712.97,-67.4 706.91,-58.7 702.82,-64.38"/>
</g>
<!-- Node12&#45;&gt;Node5 -->
<g id="edge16" class="edge">
<title>Node12&#45;&gt;Node5</title>
<path fill="none" stroke="midnightblue" d="M972.18,-66.92C1080.47,-49.26 1109.37,-48.3 1213.5,-31 1216.25,-30.54 1219.05,-30.07 1221.89,-29.58"/>
<polygon fill="midnightblue" stroke="midnightblue" points="971.45,-63.5 962.15,-68.57 972.58,-70.4 971.45,-63.5"/>
</g>
<!-- Node13 -->
<g id="node13" class="node">
<title>Node13</title>
<g id="a_node13"><a xlink:href="FillPattern_8cpp.html" target="_top" xlink:title=" ">
<polygon fill="none" stroke="black" points="731,-0.5 731,-30.5 872,-30.5 872,-0.5 731,-0.5"/>
<text text-anchor="start" x="739" y="-18.5" font-family="Helvetica,sans-Serif" font-size="10.00">VortexEngine/src/Patterns</text>
<text text-anchor="middle" x="801.5" y="-7.5" font-family="Helvetica,sans-Serif" font-size="10.00">/Multi/FillPattern.cpp</text>
</a>
</g>
</g>
<!-- Node12&#45;&gt;Node13 -->
<g id="edge15" class="edge">
<title>Node12&#45;&gt;Node13</title>
<path fill="none" stroke="midnightblue" d="M863.74,-61.45C849.89,-51.45 833.48,-39.6 820.99,-30.58"/>
<polygon fill="midnightblue" stroke="midnightblue" points="861.82,-64.38 871.97,-67.4 865.91,-58.7 861.82,-64.38"/>
</g>
<!-- Node14&#45;&gt;Node5 -->
<g id="edge19" class="edge">
<title>Node14&#45;&gt;Node5</title>
<path fill="none" stroke="midnightblue" d="M1113.98,-64.85C1153.11,-54.25 1203.23,-40.68 1240.4,-30.61"/>
<polygon fill="midnightblue" stroke="midnightblue" points="1113.02,-61.48 1104.28,-67.48 1114.85,-68.24 1113.02,-61.48"/>
</g>
<!-- Node15 -->
<g id="node15" class="node">
<title>Node15</title>
<g id="a_node15"><a xlink:href="LighthousePattern_8cpp.html" target="_top" xlink:title=" ">
<polygon fill="none" stroke="black" points="890,-0.5 890,-30.5 1045,-30.5 1045,-0.5 890,-0.5"/>
<text text-anchor="start" x="898" y="-18.5" font-family="Helvetica,sans-Serif" font-size="10.00">VortexEngine/src/Patterns</text>
<text text-anchor="middle" x="967.5" y="-7.5" font-family="Helvetica,sans-Serif" font-size="10.00">/Multi/LighthousePattern.cpp</text>
</a>
</g>
</g>
<!-- Node14&#45;&gt;Node15 -->
<g id="edge18" class="edge">
<title>Node14&#45;&gt;Node15</title>
<path fill="none" stroke="midnightblue" d="M1025.91,-61.17C1012.91,-51.23 997.6,-39.51 985.91,-30.58"/>
<polygon fill="midnightblue" stroke="midnightblue" points="1023.99,-64.1 1034.06,-67.4 1028.24,-58.54 1023.99,-64.1"/>
</g>
<!-- Node16&#45;&gt;Node5 -->
<g id="edge22" class="edge">
<title>Node16&#45;&gt;Node5</title>
<path fill="none" stroke="midnightblue" d="M1238.56,-60.88C1250.56,-51.01 1264.63,-39.43 1275.39,-30.58"/>
<polygon fill="midnightblue" stroke="midnightblue" points="1236.14,-58.34 1230.64,-67.4 1240.59,-63.75 1236.14,-58.34"/>
</g>
<!-- Node17 -->
<g id="node17" class="node">
<title>Node17</title>
<g id="a_node17"><a xlink:href="MeteorPattern_8cpp.html" target="_top" xlink:title=" ">
<polygon fill="none" stroke="black" points="1063,-0.5 1063,-30.5 1204,-30.5 1204,-0.5 1063,-0.5"/>
<text text-anchor="start" x="1071" y="-18.5" font-family="Helvetica,sans-Serif" font-size="10.00">VortexEngine/src/Patterns</text>
<text text-anchor="middle" x="1133.5" y="-7.5" font-family="Helvetica,sans-Serif" font-size="10.00">/Multi/MeteorPattern.cpp</text>
</a>
</g>
</g>
<!-- Node16&#45;&gt;Node17 -->
<g id="edge21" class="edge">
<title>Node16&#45;&gt;Node17</title>
<path fill="none" stroke="midnightblue" d="M1188.13,-60.88C1175.97,-51.01 1161.72,-39.43 1150.82,-30.58"/>
<polygon fill="midnightblue" stroke="midnightblue" points="1186.17,-63.81 1196.14,-67.4 1190.59,-58.37 1186.17,-63.81"/>
</g>
<!-- Node18&#45;&gt;Node5 -->
<g id="edge25" class="edge">
<title>Node18&#45;&gt;Node5</title>
<path fill="none" stroke="midnightblue" d="M1347.13,-60.88C1334.97,-51.01 1320.72,-39.43 1309.82,-30.58"/>
<polygon fill="midnightblue" stroke="midnightblue" points="1345.17,-63.81 1355.14,-67.4 1349.59,-58.37 1345.17,-63.81"/>
</g>
<!-- Node19 -->
<g id="node19" class="node">
<title>Node19</title>
<g id="a_node19"><a xlink:href="SnowballPattern_8cpp.html" target="_top" xlink:title=" ">
<polygon fill="none" stroke="black" points="1381.5,-0.5 1381.5,-30.5 1527.5,-30.5 1527.5,-0.5 1381.5,-0.5"/>
<text text-anchor="start" x="1389.5" y="-18.5" font-family="Helvetica,sans-Serif" font-size="10.00">VortexEngine/src/Patterns</text>
<text text-anchor="middle" x="1454.5" y="-7.5" font-family="Helvetica,sans-Serif" font-size="10.00">/Multi/SnowballPattern.cpp</text>
</a>
</g>
</g>
<!-- Node18&#45;&gt;Node19 -->
<g id="edge24" class="edge">
<title>Node18&#45;&gt;Node19</title>
<path fill="none" stroke="midnightblue" d="M1398.15,-61.17C1410.69,-51.23 1425.47,-39.51 1436.74,-30.58"/>
<polygon fill="midnightblue" stroke="midnightblue" points="1395.96,-58.44 1390.29,-67.4 1400.3,-63.93 1395.96,-58.44"/>
</g>
<!-- Node20&#45;&gt;Node5 -->
<g id="edge28" class="edge">
<title>Node20&#45;&gt;Node5</title>
<path fill="none" stroke="midnightblue" d="M1474.74,-64.85C1434.8,-54.25 1383.63,-40.68 1345.69,-30.61"/>
<polygon fill="midnightblue" stroke="midnightblue" points="1474.08,-68.29 1484.64,-67.48 1475.87,-61.53 1474.08,-68.29"/>
</g>
<!-- Node21 -->
<g id="node21" class="node">
<title>Node21</title>
<g id="a_node21"><a xlink:href="SparkleTracePattern_8cpp.html" target="_top" xlink:title=" ">
<polygon fill="none" stroke="black" points="1545.5,-0.5 1545.5,-30.5 1709.5,-30.5 1709.5,-0.5 1545.5,-0.5"/>
<text text-anchor="start" x="1553.5" y="-18.5" font-family="Helvetica,sans-Serif" font-size="10.00">VortexEngine/src/Patterns</text>
<text text-anchor="middle" x="1627.5" y="-7.5" font-family="Helvetica,sans-Serif" font-size="10.00">/Multi/SparkleTracePattern.cpp</text>
</a>
</g>
</g>
<!-- Node20&#45;&gt;Node21 -->
<g id="edge27" class="edge">
<title>Node20&#45;&gt;Node21</title>
<path fill="none" stroke="midnightblue" d="M1565.26,-61.45C1579.11,-51.45 1595.52,-39.6 1608.01,-30.58"/>
<polygon fill="midnightblue" stroke="midnightblue" points="1563.09,-58.7 1557.03,-67.4 1567.18,-64.38 1563.09,-58.7"/>
</g>
<!-- Node22&#45;&gt;Node5 -->
<g id="edge31" class="edge">
<title>Node22&#45;&gt;Node5</title>
<path fill="none" stroke="midnightblue" d="M1622.36,-66.85C1510.44,-49.78 1480.59,-48.54 1372.5,-31 1369.43,-30.5 1366.31,-29.98 1363.15,-29.45"/>
<polygon fill="midnightblue" stroke="midnightblue" points="1621.94,-70.32 1632.36,-68.38 1623,-63.4 1621.94,-70.32"/>
</g>
<!-- Node23 -->
<g id="node23" class="node">
<title>Node23</title>
<g id="a_node23"><a xlink:href="TheaterChasePattern_8cpp.html" target="_top" xlink:title=" ">
<polygon fill="none" stroke="black" points="1727.5,-0.5 1727.5,-30.5 1897.5,-30.5 1897.5,-0.5 1727.5,-0.5"/>
<text text-anchor="start" x="1735.5" y="-18.5" font-family="Helvetica,sans-Serif" font-size="10.00">VortexEngine/src/Patterns</text>
<text text-anchor="middle" x="1812.5" y="-7.5" font-family="Helvetica,sans-Serif" font-size="10.00">/Multi/TheaterChasePattern.cpp</text>
</a>
</g>
</g>
<!-- Node22&#45;&gt;Node23 -->
<g id="edge30" class="edge">
<title>Node22&#45;&gt;Node23</title>
<path fill="none" stroke="midnightblue" d="M1742.21,-61.73C1757.84,-51.68 1776.47,-39.68 1790.63,-30.58"/>
<polygon fill="midnightblue" stroke="midnightblue" points="1739.93,-59.04 1733.42,-67.4 1743.72,-64.93 1739.93,-59.04"/>
</g>
<!-- Node24&#45;&gt;Node5 -->
<g id="edge34" class="edge">
<title>Node24&#45;&gt;Node5</title>
<path fill="none" stroke="midnightblue" d="M1798.86,-67.01C1608.97,-42.46 1558.08,-55.58 1372.5,-31 1369.42,-30.59 1366.28,-30.15 1363.11,-29.67"/>
<polygon fill="midnightblue" stroke="midnightblue" points="1798.52,-70.5 1808.89,-68.33 1799.43,-63.55 1798.52,-70.5"/>
</g>
<!-- Node25 -->
<g id="node25" class="node">
<title>Node25</title>
<g id="a_node25"><a xlink:href="VortexPattern_8cpp.html" target="_top" xlink:title=" ">
<polygon fill="none" stroke="black" points="1916,-0.5 1916,-30.5 2057,-30.5 2057,-0.5 1916,-0.5"/>
<text text-anchor="start" x="1924" y="-18.5" font-family="Helvetica,sans-Serif" font-size="10.00">VortexEngine/src/Patterns</text>
<text text-anchor="middle" x="1986.5" y="-7.5" font-family="Helvetica,sans-Serif" font-size="10.00">/Multi/VortexPattern.cpp</text>
</a>
</g>
</g>
<!-- Node24&#45;&gt;Node25 -->
<g id="edge33" class="edge">
<title>Node24&#45;&gt;Node25</title>
<path fill="none" stroke="midnightblue" d="M1911.58,-62.02C1928.23,-51.9 1948.19,-39.77 1963.33,-30.58"/>
<polygon fill="midnightblue" stroke="midnightblue" points="1909.45,-59.21 1902.72,-67.4 1913.08,-65.2 1909.45,-59.21"/>
</g>
<!-- Node26&#45;&gt;Node5 -->
<g id="edge37" class="edge">
<title>Node26&#45;&gt;Node5</title>
<path fill="none" stroke="midnightblue" d="M1957.7,-66.87C1698.19,-36.85 1628.7,-61.96 1372.5,-31 1369.42,-30.63 1366.27,-30.21 1363.1,-29.76"/>
<polygon fill="midnightblue" stroke="midnightblue" points="1957.46,-70.37 1967.8,-68.06 1958.28,-63.42 1957.46,-70.37"/>
</g>
<!-- Node27 -->
<g id="node27" class="node">
<title>Node27</title>
<g id="a_node27"><a xlink:href="VortexWipePattern_8cpp.html" target="_top" xlink:title=" ">
<polygon fill="none" stroke="black" points="2075.5,-0.5 2075.5,-30.5 2233.5,-30.5 2233.5,-0.5 2075.5,-0.5"/>
<text text-anchor="start" x="2083.5" y="-18.5" font-family="Helvetica,sans-Serif" font-size="10.00">VortexEngine/src/Patterns</text>
<text text-anchor="middle" x="2154.5" y="-7.5" font-family="Helvetica,sans-Serif" font-size="10.00">/Multi/VortexWipePattern.cpp</text>
</a>
</g>
</g>
<!-- Node26&#45;&gt;Node27 -->
<g id="edge36" class="edge">
<title>Node26&#45;&gt;Node27</title>
<path fill="none" stroke="midnightblue" d="M2074.89,-62.3C2092.57,-52.12 2113.9,-39.85 2130.03,-30.58"/>
<polygon fill="midnightblue" stroke="midnightblue" points="2072.94,-59.38 2066.02,-67.4 2076.43,-65.44 2072.94,-59.38"/>
</g>
<!-- Node28&#45;&gt;Node5 -->
<g id="edge40" class="edge">
<title>Node28&#45;&gt;Node5</title>
<path fill="none" stroke="midnightblue" d="M2122.53,-66.88C1790.28,-29.53 1701.54,-68.53 1372.5,-31 1369.41,-30.65 1366.27,-30.25 1363.1,-29.82"/>
<polygon fill="midnightblue" stroke="midnightblue" points="2122.6,-70.41 2132.93,-68.07 2123.4,-63.46 2122.6,-70.41"/>
</g>
<!-- Node29 -->
<g id="node29" class="node">
<title>Node29</title>
<g id="a_node29"><a xlink:href="WarpPattern_8cpp.html" target="_top" xlink:title=" ">
<polygon fill="none" stroke="black" points="2252,-0.5 2252,-30.5 2393,-30.5 2393,-0.5 2252,-0.5"/>
<text text-anchor="start" x="2260" y="-18.5" font-family="Helvetica,sans-Serif" font-size="10.00">VortexEngine/src/Patterns</text>
<text text-anchor="middle" x="2322.5" y="-7.5" font-family="Helvetica,sans-Serif" font-size="10.00">/Multi/WarpPattern.cpp</text>
</a>
</g>
</g>
<!-- Node28&#45;&gt;Node29 -->
<g id="edge39" class="edge">
<title>Node28&#45;&gt;Node29</title>
<path fill="none" stroke="midnightblue" d="M2238.15,-62.57C2256.87,-52.35 2279.59,-39.94 2296.73,-30.58"/>
<polygon fill="midnightblue" stroke="midnightblue" points="2236.42,-59.53 2229.32,-67.4 2239.78,-65.67 2236.42,-59.53"/>
</g>
<!-- Node30&#45;&gt;Node5 -->
<g id="edge43" class="edge">
<title>Node30&#45;&gt;Node5</title>
<path fill="none" stroke="midnightblue" d="M2281.96,-66.94C1878.9,-24.05 1771.94,-74.87 1372.5,-31 1369.41,-30.66 1366.27,-30.27 1363.09,-29.85"/>
<polygon fill="midnightblue" stroke="midnightblue" points="2281.83,-70.45 2292.15,-68.04 2282.58,-63.49 2281.83,-70.45"/>
</g>
<!-- Node31 -->
<g id="node31" class="node">
<title>Node31</title>
<g id="a_node31"><a xlink:href="WarpWormPattern_8cpp.html" target="_top" xlink:title=" ">
<polygon fill="none" stroke="black" points="2411,-0.5 2411,-30.5 2566,-30.5 2566,-0.5 2411,-0.5"/>
<text text-anchor="start" x="2419" y="-18.5" font-family="Helvetica,sans-Serif" font-size="10.00">VortexEngine/src/Patterns</text>
<text text-anchor="middle" x="2488.5" y="-7.5" font-family="Helvetica,sans-Serif" font-size="10.00">/Multi/WarpWormPattern.cpp</text>
</a>
</g>
</g>
<!-- Node30&#45;&gt;Node31 -->
<g id="edge42" class="edge">
<title>Node30&#45;&gt;Node31</title>
<path fill="none" stroke="midnightblue" d="M2400.34,-62.71C2419.89,-52.46 2443.7,-39.98 2461.65,-30.58"/>
<polygon fill="midnightblue" stroke="midnightblue" points="2398.64,-59.65 2391.41,-67.4 2401.89,-65.85 2398.64,-59.65"/>
</g>
</g>
</svg>
        <g id="navigator" transform="translate(0 0)" fill="#404254">
                <rect fill="#f2f5e9" fill-opacity="0.5" stroke="#606060" stroke-width=".5" x="0" y="0" width="60" height="60"/>
                <use id="zoomplus" xlink:href="#zoomPlus" x="17" y="9" onmousedown="handleZoom(evt,'in')"/>
                <use id="zoomminus" xlink:href="#zoomMin" x="42" y="9" onmousedown="handleZoom(evt,'out')"/>
                <use id="reset" xlink:href="#resetDef" x="30" y="36" onmousedown="handleReset()"/>
                <g id="arrowUp" xlink:href="#dirArrow" transform="translate(30 24)" onmousedown="handlePan(0,-1)">
                  <use xlink:href="#rim" fill="#404040">
                        <set attributeName="fill" to="#808080" begin="arrowUp.mouseover" end="arrowUp.mouseout"/>
                  </use>
                  <path fill="none" stroke="white" stroke-width="1.5" d="M0,-3.0v7 M-2.5,-0.5L0,-3.0L2.5,-0.5"/>
                </g>
                <g id="arrowRight" xlink:href="#dirArrow" transform="rotate(90) translate(36 -43)" onmousedown="handlePan(1,0)">
                  <use xlink:href="#rim" fill="#404040">
                        <set attributeName="fill" to="#808080" begin="arrowRight.mouseover" end="arrowRight.mouseout"/>
                  </use>
                  <path fill="none" stroke="white" stroke-width="1.5" d="M0,-3.0v7 M-2.5,-0.5L0,-3.0L2.5,-0.5"/>
                </g>
                <g id="arrowDown" xlink:href="#dirArrow" transform="rotate(180) translate(-30 -48)" onmousedown="handlePan(0,1)">
                  <use xlink:href="#rim" fill="#404040">
                        <set attributeName="fill" to="#808080" begin="arrowDown.mouseover" end="arrowDown.mouseout"/>
                  </use>
                  <path fill="none" stroke="white" stroke-width="1.5" d="M0,-3.0v7 M-2.5,-0.5L0,-3.0L2.5,-0.5"/>
                </g>
                <g id="arrowLeft" xlink:href="#dirArrow" transform="rotate(270) translate(-36 17)" onmousedown="handlePan(-1,0)">
                  <use xlink:href="#rim" fill="#404040">
                        <set attributeName="fill" to="#808080" begin="arrowLeft.mouseover" end="arrowLeft.mouseout"/>
                  </use>
                  <path fill="none" stroke="white" stroke-width="1.5" d="M0,-3.0v7 M-2.5,-0.5L0,-3.0L2.5,-0.5"/>
                </g>
        </g>
        <svg viewBox="0 0 15 15" width="100%" height="30px" preserveAspectRatio="xMaxYMin meet">
         <g id="arrow_out" transform="scale(0.3 0.3)">
          <a xlink:href="BlinkStepPattern_8h__dep__incl_org.svg" target="_base">
           <rect id="button" ry="5" rx="5" y="6" x="6" height="38" width="38"
                fill="#f2f5e9" fill-opacity="0.5" stroke="#606060" stroke-width="1.0"/>
           <path id="arrow"
             d="M 11.500037,31.436501 C 11.940474,20.09759 22.043105,11.32322 32.158766,21.979434 L 37.068811,17.246167 C 37.068811,17.246167 37.088388,32 37.088388,32 L 22.160133,31.978069 C 22.160133,31.978069 26.997745,27.140456 26.997745,27.140456 C 18.528582,18.264221 13.291696,25.230495 11.500037,31.436501 z"
             style="fill:#404040;"/>
          </a>
         </g>
        </svg>
</svg>
