<?xml version="1.0" encoding="UTF-8" standalone="no"?>
<!DOCTYPE svg PUBLIC "-//W3C//DTD SVG 1.1//EN"
 "http://www.w3.org/Graphics/SVG/1.1/DTD/svg11.dtd">
<!-- Generated by graphviz version 2.43.0 (0)
 -->
<!-- Title: VortexEngine/src/Buttons/Button.cpp Pages: 1 -->
<svg width="369pt" height="319pt"
 viewBox="0.00 0.00 368.50 319.00" xmlns="http://www.w3.org/2000/svg" xmlns:xlink="http://www.w3.org/1999/xlink">
<g id="graph0" class="graph" transform="scale(1 1) rotate(0) translate(4 315)">
<title>VortexEngine/src/Buttons/Button.cpp</title>
<!-- Node1 -->
<g id="node1" class="node">
<title>Node1</title>
<g id="a_node1"><a xlink:title=" ">
<polygon fill="#bfbfbf" stroke="black" points="138.5,-280.5 138.5,-310.5 277.5,-310.5 277.5,-280.5 138.5,-280.5"/>
<text text-anchor="start" x="146.5" y="-298.5" font-family="Helvetica,sans-Serif" font-size="10.00">VortexEngine/src/Buttons</text>
<text text-anchor="middle" x="208" y="-287.5" font-family="Helvetica,sans-Serif" font-size="10.00">/Button.cpp</text>
</a>
</g>
</g>
<!-- Node2 -->
<g id="node2" class="node">
<title>Node2</title>
<g id="a_node2"><a xlink:href="Button_8h.html" target="_top" xlink:title=" ">
<polygon fill="none" stroke="black" points="0,-168.5 0,-187.5 58,-187.5 58,-168.5 0,-168.5"/>
<text text-anchor="middle" x="29" y="-175.5" font-family="Helvetica,sans-Serif" font-size="10.00">Button.h</text>
</a>
</g>
</g>
<!-- Node1&#45;&gt;Node2 -->
<g id="edge1" class="edge">
<title>Node1&#45;&gt;Node2</title>
<path fill="none" stroke="midnightblue" d="M186.05,-280.34C151.6,-258.11 85.23,-215.28 50.84,-193.09"/>
<polygon fill="midnightblue" stroke="midnightblue" points="52.74,-190.15 42.44,-187.67 48.94,-196.03 52.74,-190.15"/>
</g>
<!-- Node4 -->
<g id="node4" class="node">
<title>Node4</title>
<g id="a_node4"><a xlink:href="TimeControl_8h.html" target="_top" xlink:title=" ">
<polygon fill="none" stroke="black" points="81,-168.5 81,-187.5 203,-187.5 203,-168.5 81,-168.5"/>
<text text-anchor="middle" x="142" y="-175.5" font-family="Helvetica,sans-Serif" font-size="10.00">../Time/TimeControl.h</text>
</a>
</g>
</g>
<!-- Node1&#45;&gt;Node4 -->
<g id="edge3" class="edge">
<title>Node1&#45;&gt;Node4</title>
<path fill="none" stroke="midnightblue" d="M199.91,-280.34C187.85,-259.24 165.2,-219.6 152.08,-196.65"/>
<polygon fill="midnightblue" stroke="midnightblue" points="154.95,-194.62 146.95,-187.67 148.88,-198.09 154.95,-194.62"/>
</g>
<!-- Node9 -->
<g id="node9" class="node">
<title>Node9</title>
<g id="a_node9"><a xlink:href="Timings_8h.html" target="_top" xlink:title=" ">
<polygon fill="none" stroke="black" points="259.5,-224.5 259.5,-243.5 360.5,-243.5 360.5,-224.5 259.5,-224.5"/>
<text text-anchor="middle" x="310" y="-231.5" font-family="Helvetica,sans-Serif" font-size="10.00">../Time/Timings.h</text>
</a>
</g>
</g>
<!-- Node1&#45;&gt;Node9 -->
<g id="edge11" class="edge">
<title>Node1&#45;&gt;Node9</title>
<path fill="none" stroke="midnightblue" d="M232.17,-280.4C248.52,-270.86 270.01,-258.32 286.27,-248.84"/>
<polygon fill="midnightblue" stroke="midnightblue" points="288.28,-251.72 295.16,-243.66 284.76,-245.67 288.28,-251.72"/>
</g>
<!-- Node10 -->
<g id="node10" class="node">
<title>Node10</title>
<g id="a_node10"><a xlink:href="Log_8h.html" target="_top" xlink:title=" ">
<polygon fill="none" stroke="black" points="231,-112.5 231,-131.5 303,-131.5 303,-112.5 231,-112.5"/>
<text text-anchor="middle" x="267" y="-119.5" font-family="Helvetica,sans-Serif" font-size="10.00">../Log/Log.h</text>
</a>
</g>
</g>
<!-- Node1&#45;&gt;Node10 -->
<g id="edge14" class="edge">
<title>Node1&#45;&gt;Node10</title>
<path fill="none" stroke="midnightblue" d="M212.83,-280.47C223.46,-249.57 248.87,-175.69 260.72,-141.25"/>
<polygon fill="midnightblue" stroke="midnightblue" points="264.11,-142.15 264.06,-131.56 257.49,-139.88 264.11,-142.15"/>
</g>
<!-- Node3 -->
<g id="node3" class="node">
<title>Node3</title>
<g id="a_node3"><a xlink:title=" ">
<polygon fill="none" stroke="#bfbfbf" points="8.5,-56.5 8.5,-75.5 73.5,-75.5 73.5,-56.5 8.5,-56.5"/>
<text text-anchor="middle" x="41" y="-63.5" font-family="Helvetica,sans-Serif" font-size="10.00">inttypes.h</text>
</a>
</g>
</g>
<!-- Node2&#45;&gt;Node3 -->
<g id="edge2" class="edge">
<title>Node2&#45;&gt;Node3</title>
<path fill="none" stroke="midnightblue" d="M27.72,-168.11C26.13,-155.53 23.98,-131.87 27,-112 28.37,-103 31.19,-93.33 33.95,-85.26"/>
<polygon fill="midnightblue" stroke="midnightblue" points="37.27,-86.37 37.4,-75.78 30.69,-83.98 37.27,-86.37"/>
</g>
<!-- Node4&#45;&gt;Node3 -->
<g id="edge4" class="edge">
<title>Node4&#45;&gt;Node3</title>
<path fill="none" stroke="midnightblue" d="M115.13,-168.42C97.09,-161.35 74.13,-149.6 60,-132 49.31,-118.69 44.64,-99.57 42.59,-85.51"/>
<polygon fill="midnightblue" stroke="midnightblue" points="46.06,-85.07 41.45,-75.53 39.11,-85.86 46.06,-85.07"/>
</g>
<!-- Node5 -->
<g id="node5" class="node">
<title>Node5</title>
<g id="a_node5"><a xlink:href="VortexConfig_8h.html" target="_top" xlink:title=" ">
<polygon fill="none" stroke="black" points="205.5,-56.5 205.5,-75.5 302.5,-75.5 302.5,-56.5 205.5,-56.5"/>
<text text-anchor="middle" x="254" y="-63.5" font-family="Helvetica,sans-Serif" font-size="10.00">../VortexConfig.h</text>
</a>
</g>
</g>
<!-- Node4&#45;&gt;Node5 -->
<g id="edge5" class="edge">
<title>Node4&#45;&gt;Node5</title>
<path fill="none" stroke="midnightblue" d="M150.79,-168.37C169.6,-149.89 213.99,-106.29 237.97,-82.74"/>
<polygon fill="midnightblue" stroke="midnightblue" points="240.57,-85.1 245.25,-75.59 235.67,-80.1 240.57,-85.1"/>
</g>
<!-- Node7 -->
<g id="node7" class="node">
<title>Node7</title>
<g id="a_node7"><a xlink:href="LedTypes_8h.html" target="_top" xlink:title=" ">
<polygon fill="none" stroke="black" points="69.5,-112.5 69.5,-131.5 174.5,-131.5 174.5,-112.5 69.5,-112.5"/>
<text text-anchor="middle" x="122" y="-119.5" font-family="Helvetica,sans-Serif" font-size="10.00">../Leds/LedTypes.h</text>
</a>
</g>
</g>
<!-- Node4&#45;&gt;Node7 -->
<g id="edge7" class="edge">
<title>Node4&#45;&gt;Node7</title>
<path fill="none" stroke="midnightblue" d="M138.7,-168.08C136.02,-160.85 132.15,-150.41 128.81,-141.4"/>
<polygon fill="midnightblue" stroke="midnightblue" points="132,-139.91 125.24,-131.75 125.43,-142.34 132,-139.91"/>
</g>
<!-- Node6 -->
<g id="node6" class="node">
<title>Node6</title>
<g id="a_node6"><a xlink:href="ColorConstants_8h.html" target="_top" xlink:title=" ">
<polygon fill="none" stroke="black" points="187,-0.5 187,-19.5 321,-19.5 321,-0.5 187,-0.5"/>
<text text-anchor="middle" x="254" y="-7.5" font-family="Helvetica,sans-Serif" font-size="10.00">Colors/ColorConstants.h</text>
</a>
</g>
</g>
<!-- Node5&#45;&gt;Node6 -->
<g id="edge6" class="edge">
<title>Node5&#45;&gt;Node6</title>
<path fill="none" stroke="midnightblue" d="M254,-56.08C254,-49.01 254,-38.86 254,-29.99"/>
<polygon fill="midnightblue" stroke="midnightblue" points="257.5,-29.75 254,-19.75 250.5,-29.75 257.5,-29.75"/>
</g>
<!-- Node7&#45;&gt;Node3 -->
<g id="edge8" class="edge">
<title>Node7&#45;&gt;Node3</title>
<path fill="none" stroke="midnightblue" d="M108.99,-112.32C96.47,-103.98 77.32,-91.21 62.53,-81.35"/>
<polygon fill="midnightblue" stroke="midnightblue" points="64.24,-78.29 53.98,-75.65 60.36,-84.11 64.24,-78.29"/>
</g>
<!-- Node7&#45;&gt;Node5 -->
<g id="edge10" class="edge">
<title>Node7&#45;&gt;Node5</title>
<path fill="none" stroke="midnightblue" d="M142.92,-112.44C164.74,-103.52 199.15,-89.44 223.89,-79.32"/>
<polygon fill="midnightblue" stroke="midnightblue" points="225.25,-82.54 233.18,-75.52 222.6,-76.06 225.25,-82.54"/>
</g>
<!-- Node8 -->
<g id="node8" class="node">
<title>Node8</title>
<g id="a_node8"><a xlink:title=" ">
<polygon fill="none" stroke="#bfbfbf" points="106,-56.5 106,-75.5 162,-75.5 162,-56.5 106,-56.5"/>
<text text-anchor="middle" x="134" y="-63.5" font-family="Helvetica,sans-Serif" font-size="10.00">stdarg.h</text>
</a>
</g>
</g>
<!-- Node7&#45;&gt;Node8 -->
<g id="edge9" class="edge">
<title>Node7&#45;&gt;Node8</title>
<path fill="none" stroke="midnightblue" d="M123.98,-112.08C125.57,-104.93 127.86,-94.64 129.85,-85.69"/>
<polygon fill="midnightblue" stroke="midnightblue" points="133.3,-86.27 132.06,-75.75 126.47,-84.75 133.3,-86.27"/>
</g>
<!-- Node9&#45;&gt;Node4 -->
<g id="edge12" class="edge">
<title>Node9&#45;&gt;Node4</title>
<path fill="none" stroke="midnightblue" d="M283.38,-224.44C254.99,-215.32 209.86,-200.81 178.25,-190.65"/>
<polygon fill="midnightblue" stroke="midnightblue" points="179.09,-187.24 168.5,-187.52 176.94,-193.91 179.09,-187.24"/>
</g>
<!-- Node9&#45;&gt;Node5 -->
<g id="edge13" class="edge">
<title>Node9&#45;&gt;Node5</title>
<path fill="none" stroke="midnightblue" d="M312.72,-224.21C318.63,-203.42 330.67,-150.11 312,-112 305.48,-98.68 292.9,-88.18 281.13,-80.68"/>
<polygon fill="midnightblue" stroke="midnightblue" points="282.78,-77.59 272.39,-75.53 279.23,-83.62 282.78,-77.59"/>
</g>
<!-- Node10&#45;&gt;Node5 -->
<g id="edge16" class="edge">
<title>Node10&#45;&gt;Node5</title>
<path fill="none" stroke="midnightblue" d="M264.85,-112.08C263.13,-104.93 260.65,-94.64 258.5,-85.69"/>
<polygon fill="midnightblue" stroke="midnightblue" points="261.85,-84.65 256.11,-75.75 255.04,-86.29 261.85,-84.65"/>
</g>
<!-- Node10&#45;&gt;Node8 -->
<g id="edge15" class="edge">
<title>Node10&#45;&gt;Node8</title>
<path fill="none" stroke="midnightblue" d="M245.93,-112.44C223.94,-103.52 189.27,-89.44 164.34,-79.32"/>
<polygon fill="midnightblue" stroke="midnightblue" points="165.56,-76.04 154.98,-75.52 162.92,-82.52 165.56,-76.04"/>
</g>
</g>
</svg>
