<?xml version="1.0" encoding="UTF-8" standalone="no"?>
<!DOCTYPE svg PUBLIC "-//W3C//DTD SVG 1.1//EN"
 "http://www.w3.org/Graphics/SVG/1.1/DTD/svg11.dtd">
<!-- Generated by graphviz version 2.43.0 (0)
 -->
<!-- Title: VortexEngine/src/Serial/ByteStream.h Pages: 1 -->
<!--zoomable 173 -->
<svg id="main" version="1.1" xmlns="http://www.w3.org/2000/svg" xmlns:xlink="http://www.w3.org/1999/xlink" xml:space="preserve" onload="init(evt)">
<style type="text/css"><![CDATA[
.edge:hover path { stroke: red; }
.edge:hover polygon { stroke: red; fill: red; }
]]></style>
<script type="text/javascript"><![CDATA[
var edges = document.getElementsByTagName('g');
if (edges && edges.length) {
  for (var i=0;i<edges.length;i++) {
    if (edges[i].id.substr(0,4)=='edge') {
      edges[i].setAttribute('class','edge');
    }
  }
}
]]></script>
        <defs>
                <circle id="rim" cx="0" cy="0" r="7"/>
                <circle id="rim2" cx="0" cy="0" r="3.5"/>
                <g id="zoomPlus">
                        <use xlink:href="#rim" target="_top" fill="#404040">
                                <set attributeName="fill" to="#808080" begin="zoomplus.mouseover" end="zoomplus.mouseout"/>
                        </use>
                        <path d="M-4,0h8M0,-4v8" fill="none" stroke="white" stroke-width="1.5" pointer-events="none"/>
                </g>
                <g id="zoomMin">
                        <use xlink:href="#rim" target="_top" fill="#404040">
                                <set attributeName="fill" to="#808080" begin="zoomminus.mouseover" end="zoomminus.mouseout"/>
                        </use>
                        <path d="M-4,0h8" fill="none" stroke="white" stroke-width="1.5" pointer-events="none"/>
                </g>
                <g id="dirArrow">
                        <path fill="none" stroke="white" stroke-width="1.5" d="M0,-3.0v7 M-2.5,-0.5L0,-3.0L2.5,-0.5"/>
                </g>
               <g id="resetDef">
                       <use xlink:href="#rim2" target="_top" fill="#404040">
                               <set attributeName="fill" to="#808080" begin="reset.mouseover" end="reset.mouseout"/>
                       </use>
               </g>
        </defs>

<script type="text/javascript">
var viewWidth = 4754;
var viewHeight = 173;
var sectionId = 'dynsection-1';
</script>
<script xlink:href="svgpan.js" target="_top"/>
<svg id="graph" class="graph">
<g id="viewport">
<title>VortexEngine/src/Serial/ByteStream.h</title>
<!-- Node1 -->
<g id="node1" class="node">
<title>Node1</title>
<g id="a_node1"><a xlink:title=" ">
<polygon fill="#bfbfbf" stroke="black" points="2039.5,-134.5 2039.5,-164.5 2168.5,-164.5 2168.5,-134.5 2039.5,-134.5"/>
<text text-anchor="start" x="2047.5" y="-152.5" font-family="Helvetica,sans-Serif" font-size="10.00">VortexEngine/src/Serial</text>
<text text-anchor="middle" x="2104" y="-141.5" font-family="Helvetica,sans-Serif" font-size="10.00">/ByteStream.h</text>
</a>
</g>
</g>
<!-- Node2 -->
<g id="node2" class="node">
<title>Node2</title>
<g id="a_node2"><a xlink:href="Colorset_8cpp.html" target="_top" target="_top" xlink:title=" ">
<polygon fill="none" stroke="black" points="0,-67.5 0,-97.5 132,-97.5 132,-67.5 0,-67.5"/>
<text text-anchor="start" x="8" y="-85.5" font-family="Helvetica,sans-Serif" font-size="10.00">VortexEngine/src/Colors</text>
<text text-anchor="middle" x="66" y="-74.5" font-family="Helvetica,sans-Serif" font-size="10.00">/Colorset.cpp</text>
</a>
</g>
</g>
<!-- Node1&#45;&gt;Node2 -->
<g id="edge1" class="edge">
<title>Node1&#45;&gt;Node2</title>
<path fill="none" stroke="midnightblue" d="M2029.14,-148.23C1716.9,-146.84 517.16,-138.92 141,-98 138.1,-97.68 135.14,-97.32 132.16,-96.91"/>
<polygon fill="midnightblue" stroke="midnightblue" points="2029.42,-151.73 2039.43,-148.27 2029.45,-144.73 2029.42,-151.73"/>
</g>
<!-- Node3 -->
<g id="node3" class="node">
<title>Node3</title>
<g id="a_node3"><a xlink:href="ColorTypes_8cpp.html" target="_top" target="_top" xlink:title=" ">
<polygon fill="none" stroke="black" points="150,-67.5 150,-97.5 282,-97.5 282,-67.5 150,-67.5"/>
<text text-anchor="start" x="158" y="-85.5" font-family="Helvetica,sans-Serif" font-size="10.00">VortexEngine/src/Colors</text>
<text text-anchor="middle" x="216" y="-74.5" font-family="Helvetica,sans-Serif" font-size="10.00">/ColorTypes.cpp</text>
</a>
</g>
</g>
<!-- Node1&#45;&gt;Node3 -->
<g id="edge2" class="edge">
<title>Node1&#45;&gt;Node3</title>
<path fill="none" stroke="midnightblue" d="M2029.07,-148.02C1732.06,-145.86 636.95,-135.47 292,-98 288.8,-97.65 285.52,-97.24 282.22,-96.78"/>
<polygon fill="midnightblue" stroke="midnightblue" points="2029.27,-151.52 2039.3,-148.09 2029.32,-144.52 2029.27,-151.52"/>
</g>
<!-- Node4 -->
<g id="node4" class="node">
<title>Node4</title>
<g id="a_node4"><a xlink:href="EditorConnection_8cpp.html" target="_top" target="_top" xlink:title=" ">
<polygon fill="none" stroke="black" points="278,-0.5 278,-30.5 448,-30.5 448,-0.5 278,-0.5"/>
<text text-anchor="start" x="286" y="-18.5" font-family="Helvetica,sans-Serif" font-size="10.00">VortexEngine/src/Menus</text>
<text text-anchor="middle" x="363" y="-7.5" font-family="Helvetica,sans-Serif" font-size="10.00">/MenuList/EditorConnection.cpp</text>
</a>
</g>
</g>
<!-- Node1&#45;&gt;Node4 -->
<g id="edge3" class="edge">
<title>Node1&#45;&gt;Node4</title>
<path fill="none" stroke="midnightblue" d="M2029.35,-147.78C1738.51,-144.73 690.22,-131.5 545,-98 529.31,-94.38 440.34,-53 392.86,-30.64"/>
<polygon fill="midnightblue" stroke="midnightblue" points="2029.33,-151.28 2039.37,-147.88 2029.41,-144.28 2029.33,-151.28"/>
</g>
<!-- Node5 -->
<g id="node5" class="node">
<title>Node5</title>
<g id="a_node5"><a xlink:href="EditorConnection_8h.html" target="_top" target="_top" xlink:title=" ">
<polygon fill="none" stroke="black" points="300.5,-67.5 300.5,-97.5 459.5,-97.5 459.5,-67.5 300.5,-67.5"/>
<text text-anchor="start" x="308.5" y="-85.5" font-family="Helvetica,sans-Serif" font-size="10.00">VortexEngine/src/Menus</text>
<text text-anchor="middle" x="380" y="-74.5" font-family="Helvetica,sans-Serif" font-size="10.00">/MenuList/EditorConnection.h</text>
</a>
</g>
</g>
<!-- Node1&#45;&gt;Node5 -->
<g id="edge4" class="edge">
<title>Node1&#45;&gt;Node5</title>
<path fill="none" stroke="midnightblue" d="M2028.87,-147.41C1750.93,-143.18 781.09,-126.68 473,-98 468.61,-97.59 464.11,-97.11 459.57,-96.57"/>
<polygon fill="midnightblue" stroke="midnightblue" points="2029.2,-150.91 2039.25,-147.57 2029.3,-143.92 2029.2,-150.91"/>
</g>
<!-- Node7 -->
<g id="node7" class="node">
<title>Node7</title>
<g id="a_node7"><a xlink:href="ModeSharing_8cpp.html" target="_top" target="_top" xlink:title=" ">
<polygon fill="none" stroke="black" points="2906.5,-0.5 2906.5,-30.5 3057.5,-30.5 3057.5,-0.5 2906.5,-0.5"/>
<text text-anchor="start" x="2914.5" y="-18.5" font-family="Helvetica,sans-Serif" font-size="10.00">VortexEngine/src/Menus</text>
<text text-anchor="middle" x="2982" y="-7.5" font-family="Helvetica,sans-Serif" font-size="10.00">/MenuList/ModeSharing.cpp</text>
</a>
</g>
</g>
<!-- Node1&#45;&gt;Node7 -->
<g id="edge7" class="edge">
<title>Node1&#45;&gt;Node7</title>
<path fill="none" stroke="midnightblue" d="M2028.97,-148.11C1775.14,-146.43 962.28,-137.95 924,-98 914.47,-88.05 914.38,-76.86 924,-67 941.66,-48.9 2537.33,-23.32 2906.41,-17.65"/>
<polygon fill="midnightblue" stroke="midnightblue" points="2029.18,-151.61 2039.2,-148.18 2029.22,-144.61 2029.18,-151.61"/>
</g>
<!-- Node8 -->
<g id="node8" class="node">
<title>Node8</title>
<g id="a_node8"><a xlink:href="PatternSelect_8cpp.html" target="_top" target="_top" xlink:title=" ">
<polygon fill="none" stroke="black" points="466,-0.5 466,-30.5 618,-30.5 618,-0.5 466,-0.5"/>
<text text-anchor="start" x="474" y="-18.5" font-family="Helvetica,sans-Serif" font-size="10.00">VortexEngine/src/Menus</text>
<text text-anchor="middle" x="542" y="-7.5" font-family="Helvetica,sans-Serif" font-size="10.00">/MenuList/PatternSelect.cpp</text>
</a>
</g>
</g>
<!-- Node1&#45;&gt;Node8 -->
<g id="edge8" class="edge">
<title>Node1&#45;&gt;Node8</title>
<path fill="none" stroke="midnightblue" d="M2029.16,-148.38C1729.45,-147.6 629.2,-141.75 570,-98 548.82,-82.35 543.53,-49.7 542.29,-30.82"/>
<polygon fill="midnightblue" stroke="midnightblue" points="2029.47,-151.88 2039.48,-148.41 2029.49,-144.88 2029.47,-151.88"/>
</g>
<!-- Node9 -->
<g id="node9" class="node">
<title>Node9</title>
<g id="a_node9"><a xlink:href="Mode_8cpp.html" target="_top" target="_top" xlink:title=" ">
<polygon fill="none" stroke="black" points="591,-67.5 591,-97.5 725,-97.5 725,-67.5 591,-67.5"/>
<text text-anchor="start" x="599" y="-85.5" font-family="Helvetica,sans-Serif" font-size="10.00">VortexEngine/src/Modes</text>
<text text-anchor="middle" x="658" y="-74.5" font-family="Helvetica,sans-Serif" font-size="10.00">/Mode.cpp</text>
</a>
</g>
</g>
<!-- Node1&#45;&gt;Node9 -->
<g id="edge9" class="edge">
<title>Node1&#45;&gt;Node9</title>
<path fill="none" stroke="midnightblue" d="M2029.1,-147.24C1781.11,-142.82 988.13,-126.76 734,-98 731.06,-97.67 728.07,-97.29 725.05,-96.86"/>
<polygon fill="midnightblue" stroke="midnightblue" points="2029.38,-150.74 2039.44,-147.42 2029.51,-143.74 2029.38,-150.74"/>
</g>
<!-- Node10 -->
<g id="node10" class="node">
<title>Node10</title>
<g id="a_node10"><a xlink:href="Modes_8cpp.html" target="_top" target="_top" xlink:title=" ">
<polygon fill="none" stroke="black" points="636,-0.5 636,-30.5 770,-30.5 770,-0.5 636,-0.5"/>
<text text-anchor="start" x="644" y="-18.5" font-family="Helvetica,sans-Serif" font-size="10.00">VortexEngine/src/Modes</text>
<text text-anchor="middle" x="703" y="-7.5" font-family="Helvetica,sans-Serif" font-size="10.00">/Modes.cpp</text>
</a>
</g>
</g>
<!-- Node1&#45;&gt;Node10 -->
<g id="edge10" class="edge">
<title>Node1&#45;&gt;Node10</title>
<path fill="none" stroke="midnightblue" d="M2028.79,-148.87C1728.98,-149.99 632.75,-150.46 582,-98 554.18,-69.24 606.79,-44.93 651.15,-30.54"/>
<polygon fill="midnightblue" stroke="midnightblue" points="2029.13,-152.37 2039.12,-148.83 2029.11,-145.37 2029.13,-152.37"/>
</g>
<!-- Node11 -->
<g id="node11" class="node">
<title>Node11</title>
<g id="a_node11"><a xlink:href="Modes_8h.html" target="_top" target="_top" xlink:title=" ">
<polygon fill="none" stroke="black" points="743,-67.5 743,-97.5 877,-97.5 877,-67.5 743,-67.5"/>
<text text-anchor="start" x="751" y="-85.5" font-family="Helvetica,sans-Serif" font-size="10.00">VortexEngine/src/Modes</text>
<text text-anchor="middle" x="810" y="-74.5" font-family="Helvetica,sans-Serif" font-size="10.00">/Modes.h</text>
</a>
</g>
</g>
<!-- Node1&#45;&gt;Node11 -->
<g id="edge11" class="edge">
<title>Node1&#45;&gt;Node11</title>
<path fill="none" stroke="midnightblue" d="M2029.15,-148.9C1838.61,-149.16 1319.94,-145.1 891,-98 886.46,-97.5 881.78,-96.9 877.08,-96.23"/>
<polygon fill="midnightblue" stroke="midnightblue" points="2029.34,-152.4 2039.33,-148.88 2029.33,-145.4 2029.34,-152.4"/>
</g>
<!-- Node19 -->
<g id="node19" class="node">
<title>Node19</title>
<g id="a_node19"><a xlink:href="BlinkStepPattern_8cpp.html" target="_top" target="_top" xlink:title=" ">
<polygon fill="none" stroke="black" points="932.5,-67.5 932.5,-97.5 1081.5,-97.5 1081.5,-67.5 932.5,-67.5"/>
<text text-anchor="start" x="940.5" y="-85.5" font-family="Helvetica,sans-Serif" font-size="10.00">VortexEngine/src/Patterns</text>
<text text-anchor="middle" x="1007" y="-74.5" font-family="Helvetica,sans-Serif" font-size="10.00">/Multi/BlinkStepPattern.cpp</text>
</a>
</g>
</g>
<!-- Node1&#45;&gt;Node19 -->
<g id="edge24" class="edge">
<title>Node1&#45;&gt;Node19</title>
<path fill="none" stroke="midnightblue" d="M2029.26,-147.87C1861.13,-145.77 1440.49,-136.73 1091,-98 1087.91,-97.66 1084.76,-97.27 1081.59,-96.86"/>
<polygon fill="midnightblue" stroke="midnightblue" points="2029.45,-151.37 2039.49,-147.99 2029.53,-144.37 2029.45,-151.37"/>
</g>
<!-- Node20 -->
<g id="node20" class="node">
<title>Node20</title>
<g id="a_node20"><a xlink:href="BouncePattern_8cpp.html" target="_top" target="_top" xlink:title=" ">
<polygon fill="none" stroke="black" points="1099.5,-67.5 1099.5,-97.5 1240.5,-97.5 1240.5,-67.5 1099.5,-67.5"/>
<text text-anchor="start" x="1107.5" y="-85.5" font-family="Helvetica,sans-Serif" font-size="10.00">VortexEngine/src/Patterns</text>
<text text-anchor="middle" x="1170" y="-74.5" font-family="Helvetica,sans-Serif" font-size="10.00">/Multi/BouncePattern.cpp</text>
</a>
</g>
</g>
<!-- Node1&#45;&gt;Node20 -->
<g id="edge25" class="edge">
<title>Node1&#45;&gt;Node20</title>
<path fill="none" stroke="midnightblue" d="M2029.11,-147.1C1880.2,-143.63 1536.59,-132.32 1250,-98 1246.92,-97.63 1243.77,-97.22 1240.6,-96.77"/>
<polygon fill="midnightblue" stroke="midnightblue" points="2029.41,-150.6 2039.49,-147.33 2029.57,-143.6 2029.41,-150.6"/>
</g>
<!-- Node21 -->
<g id="node21" class="node">
<title>Node21</title>
<g id="a_node21"><a xlink:href="DoubleStrobePattern_8cpp.html" target="_top" target="_top" xlink:title=" ">
<polygon fill="none" stroke="black" points="1259,-67.5 1259,-97.5 1427,-97.5 1427,-67.5 1259,-67.5"/>
<text text-anchor="start" x="1267" y="-85.5" font-family="Helvetica,sans-Serif" font-size="10.00">VortexEngine/src/Patterns</text>
<text text-anchor="middle" x="1343" y="-74.5" font-family="Helvetica,sans-Serif" font-size="10.00">/Multi/DoubleStrobePattern.cpp</text>
</a>
</g>
</g>
<!-- Node1&#45;&gt;Node21 -->
<g id="edge26" class="edge">
<title>Node1&#45;&gt;Node21</title>
<path fill="none" stroke="midnightblue" d="M2029.35,-144.74C1905.85,-138.09 1651.34,-122.61 1437,-98 1433.72,-97.62 1430.38,-97.22 1427,-96.79"/>
<polygon fill="midnightblue" stroke="midnightblue" points="2029.28,-148.24 2039.45,-145.28 2029.65,-141.25 2029.28,-148.24"/>
</g>
<!-- Node22 -->
<g id="node22" class="node">
<title>Node22</title>
<g id="a_node22"><a xlink:href="DripMorphPattern_8cpp.html" target="_top" target="_top" xlink:title=" ">
<polygon fill="none" stroke="black" points="1445.5,-67.5 1445.5,-97.5 1598.5,-97.5 1598.5,-67.5 1445.5,-67.5"/>
<text text-anchor="start" x="1453.5" y="-85.5" font-family="Helvetica,sans-Serif" font-size="10.00">VortexEngine/src/Patterns</text>
<text text-anchor="middle" x="1522" y="-74.5" font-family="Helvetica,sans-Serif" font-size="10.00">/Multi/DripMorphPattern.cpp</text>
</a>
</g>
</g>
<!-- Node1&#45;&gt;Node22 -->
<g id="edge27" class="edge">
<title>Node1&#45;&gt;Node22</title>
<path fill="none" stroke="midnightblue" d="M2029.21,-142.42C1931.96,-134.17 1756.91,-118.11 1608,-98 1605,-97.59 1601.94,-97.16 1598.86,-96.71"/>
<polygon fill="midnightblue" stroke="midnightblue" points="2028.98,-145.92 2039.24,-143.27 2029.57,-138.94 2028.98,-145.92"/>
</g>
<!-- Node23 -->
<g id="node23" class="node">
<title>Node23</title>
<g id="a_node23"><a xlink:href="FillPattern_8cpp.html" target="_top" target="_top" xlink:title=" ">
<polygon fill="none" stroke="black" points="1616.5,-67.5 1616.5,-97.5 1757.5,-97.5 1757.5,-67.5 1616.5,-67.5"/>
<text text-anchor="start" x="1624.5" y="-85.5" font-family="Helvetica,sans-Serif" font-size="10.00">VortexEngine/src/Patterns</text>
<text text-anchor="middle" x="1687" y="-74.5" font-family="Helvetica,sans-Serif" font-size="10.00">/Multi/FillPattern.cpp</text>
</a>
</g>
</g>
<!-- Node1&#45;&gt;Node23 -->
<g id="edge28" class="edge">
<title>Node1&#45;&gt;Node23</title>
<path fill="none" stroke="midnightblue" d="M2029.06,-137.94C1960.7,-128.15 1856.94,-112.89 1767,-98 1763.94,-97.49 1760.81,-96.97 1757.65,-96.43"/>
<polygon fill="midnightblue" stroke="midnightblue" points="2028.91,-141.45 2039.3,-139.4 2029.9,-134.52 2028.91,-141.45"/>
</g>
<!-- Node24 -->
<g id="node24" class="node">
<title>Node24</title>
<g id="a_node24"><a xlink:href="HueShiftPattern_8cpp.html" target="_top" target="_top" xlink:title=" ">
<polygon fill="none" stroke="black" points="1775.5,-67.5 1775.5,-97.5 1918.5,-97.5 1918.5,-67.5 1775.5,-67.5"/>
<text text-anchor="start" x="1783.5" y="-85.5" font-family="Helvetica,sans-Serif" font-size="10.00">VortexEngine/src/Patterns</text>
<text text-anchor="middle" x="1847" y="-74.5" font-family="Helvetica,sans-Serif" font-size="10.00">/Multi/HueShiftPattern.cpp</text>
</a>
</g>
</g>
<!-- Node1&#45;&gt;Node24 -->
<g id="edge29" class="edge">
<title>Node1&#45;&gt;Node24</title>
<path fill="none" stroke="midnightblue" d="M2038.7,-131.98C1996.72,-121.37 1942.76,-107.72 1902.79,-97.61"/>
<polygon fill="midnightblue" stroke="midnightblue" points="2038,-135.42 2048.55,-134.48 2039.71,-128.63 2038,-135.42"/>
</g>
<!-- Node25 -->
<g id="node25" class="node">
<title>Node25</title>
<g id="a_node25"><a xlink:href="LighthousePattern_8cpp.html" target="_top" target="_top" xlink:title=" ">
<polygon fill="none" stroke="black" points="1936.5,-67.5 1936.5,-97.5 2091.5,-97.5 2091.5,-67.5 1936.5,-67.5"/>
<text text-anchor="start" x="1944.5" y="-85.5" font-family="Helvetica,sans-Serif" font-size="10.00">VortexEngine/src/Patterns</text>
<text text-anchor="middle" x="2014" y="-74.5" font-family="Helvetica,sans-Serif" font-size="10.00">/Multi/LighthousePattern.cpp</text>
</a>
</g>
</g>
<!-- Node1&#45;&gt;Node25 -->
<g id="edge30" class="edge">
<title>Node1&#45;&gt;Node25</title>
<path fill="none" stroke="midnightblue" d="M2076.24,-128.45C2062.39,-118.45 2045.98,-106.6 2033.49,-97.58"/>
<polygon fill="midnightblue" stroke="midnightblue" points="2074.32,-131.38 2084.47,-134.4 2078.41,-125.7 2074.32,-131.38"/>
</g>
<!-- Node26 -->
<g id="node26" class="node">
<title>Node26</title>
<g id="a_node26"><a xlink:href="Sequence_8cpp.html" target="_top" target="_top" xlink:title=" ">
<polygon fill="none" stroke="black" points="2109.5,-67.5 2109.5,-97.5 2278.5,-97.5 2278.5,-67.5 2109.5,-67.5"/>
<text text-anchor="start" x="2117.5" y="-85.5" font-family="Helvetica,sans-Serif" font-size="10.00">VortexEngine/src/Patterns</text>
<text text-anchor="middle" x="2194" y="-74.5" font-family="Helvetica,sans-Serif" font-size="10.00">/Multi/Sequencer/Sequence.cpp</text>
</a>
</g>
</g>
<!-- Node1&#45;&gt;Node26 -->
<g id="edge31" class="edge">
<title>Node1&#45;&gt;Node26</title>
<path fill="none" stroke="midnightblue" d="M2131.76,-128.45C2145.61,-118.45 2162.02,-106.6 2174.51,-97.58"/>
<polygon fill="midnightblue" stroke="midnightblue" points="2129.59,-125.7 2123.53,-134.4 2133.68,-131.38 2129.59,-125.7"/>
</g>
<!-- Node27 -->
<g id="node27" class="node">
<title>Node27</title>
<g id="a_node27"><a xlink:href="SequencedPattern_8cpp.html" target="_top" target="_top" xlink:title=" ">
<polygon fill="none" stroke="black" points="2296.5,-67.5 2296.5,-97.5 2505.5,-97.5 2505.5,-67.5 2296.5,-67.5"/>
<text text-anchor="start" x="2304.5" y="-85.5" font-family="Helvetica,sans-Serif" font-size="10.00">VortexEngine/src/Patterns</text>
<text text-anchor="middle" x="2401" y="-74.5" font-family="Helvetica,sans-Serif" font-size="10.00">/Multi/Sequencer/SequencedPattern.cpp</text>
</a>
</g>
</g>
<!-- Node1&#45;&gt;Node27 -->
<g id="edge32" class="edge">
<title>Node1&#45;&gt;Node27</title>
<path fill="none" stroke="midnightblue" d="M2177.95,-132.32C2226.76,-121.63 2290.08,-107.77 2336.78,-97.55"/>
<polygon fill="midnightblue" stroke="midnightblue" points="2177.1,-128.92 2168.08,-134.48 2178.6,-135.76 2177.1,-128.92"/>
</g>
<!-- Node28 -->
<g id="node28" class="node">
<title>Node28</title>
<g id="a_node28"><a xlink:href="VortexPattern_8cpp.html" target="_top" target="_top" xlink:title=" ">
<polygon fill="none" stroke="black" points="2523.5,-67.5 2523.5,-97.5 2664.5,-97.5 2664.5,-67.5 2523.5,-67.5"/>
<text text-anchor="start" x="2531.5" y="-85.5" font-family="Helvetica,sans-Serif" font-size="10.00">VortexEngine/src/Patterns</text>
<text text-anchor="middle" x="2594" y="-74.5" font-family="Helvetica,sans-Serif" font-size="10.00">/Multi/VortexPattern.cpp</text>
</a>
</g>
</g>
<!-- Node1&#45;&gt;Node28 -->
<g id="edge33" class="edge">
<title>Node1&#45;&gt;Node28</title>
<path fill="none" stroke="midnightblue" d="M2178.62,-140.68C2261.11,-131.71 2397.84,-115.93 2515,-98 2517.76,-97.58 2520.56,-97.13 2523.4,-96.67"/>
<polygon fill="midnightblue" stroke="midnightblue" points="2178.15,-137.21 2168.59,-141.76 2178.91,-144.17 2178.15,-137.21"/>
</g>
<!-- Node29 -->
<g id="node29" class="node">
<title>Node29</title>
<g id="a_node29"><a xlink:href="VortexWipePattern_8cpp.html" target="_top" target="_top" xlink:title=" ">
<polygon fill="none" stroke="black" points="2683,-67.5 2683,-97.5 2841,-97.5 2841,-67.5 2683,-67.5"/>
<text text-anchor="start" x="2691" y="-85.5" font-family="Helvetica,sans-Serif" font-size="10.00">VortexEngine/src/Patterns</text>
<text text-anchor="middle" x="2762" y="-74.5" font-family="Helvetica,sans-Serif" font-size="10.00">/Multi/VortexWipePattern.cpp</text>
</a>
</g>
</g>
<!-- Node1&#45;&gt;Node29 -->
<g id="edge34" class="edge">
<title>Node1&#45;&gt;Node29</title>
<path fill="none" stroke="midnightblue" d="M2178.96,-143.66C2288.12,-136.2 2497.12,-120.38 2674,-98 2676.92,-97.63 2679.89,-97.24 2682.89,-96.82"/>
<polygon fill="midnightblue" stroke="midnightblue" points="2178.45,-140.18 2168.71,-144.35 2178.92,-147.17 2178.45,-140.18"/>
</g>
<!-- Node30 -->
<g id="node30" class="node">
<title>Node30</title>
<g id="a_node30"><a xlink:href="WarpPattern_8cpp.html" target="_top" target="_top" xlink:title=" ">
<polygon fill="none" stroke="black" points="2859.5,-67.5 2859.5,-97.5 3000.5,-97.5 3000.5,-67.5 2859.5,-67.5"/>
<text text-anchor="start" x="2867.5" y="-85.5" font-family="Helvetica,sans-Serif" font-size="10.00">VortexEngine/src/Patterns</text>
<text text-anchor="middle" x="2930" y="-74.5" font-family="Helvetica,sans-Serif" font-size="10.00">/Multi/WarpPattern.cpp</text>
</a>
</g>
</g>
<!-- Node1&#45;&gt;Node30 -->
<g id="edge35" class="edge">
<title>Node1&#45;&gt;Node30</title>
<path fill="none" stroke="midnightblue" d="M2178.79,-146.2C2313.47,-141.45 2605.49,-128.34 2850,-98 2853.08,-97.62 2856.22,-97.19 2859.4,-96.74"/>
<polygon fill="midnightblue" stroke="midnightblue" points="2178.47,-142.71 2168.59,-146.56 2178.71,-149.71 2178.47,-142.71"/>
</g>
<!-- Node31 -->
<g id="node31" class="node">
<title>Node31</title>
<g id="a_node31"><a xlink:href="WarpWormPattern_8cpp.html" target="_top" target="_top" xlink:title=" ">
<polygon fill="none" stroke="black" points="3018.5,-67.5 3018.5,-97.5 3173.5,-97.5 3173.5,-67.5 3018.5,-67.5"/>
<text text-anchor="start" x="3026.5" y="-85.5" font-family="Helvetica,sans-Serif" font-size="10.00">VortexEngine/src/Patterns</text>
<text text-anchor="middle" x="3096" y="-74.5" font-family="Helvetica,sans-Serif" font-size="10.00">/Multi/WarpWormPattern.cpp</text>
</a>
</g>
</g>
<!-- Node1&#45;&gt;Node31 -->
<g id="edge36" class="edge">
<title>Node1&#45;&gt;Node31</title>
<path fill="none" stroke="midnightblue" d="M2179.12,-147.14C2334.63,-143.7 2702.96,-132.33 3010,-98 3012.71,-97.7 3015.46,-97.37 3018.24,-97.01"/>
<polygon fill="midnightblue" stroke="midnightblue" points="2178.67,-143.65 2168.74,-147.36 2178.82,-150.65 2178.67,-143.65"/>
</g>
<!-- Node32 -->
<g id="node32" class="node">
<title>Node32</title>
<g id="a_node32"><a xlink:href="Pattern_8cpp.html" target="_top" target="_top" xlink:title=" ">
<polygon fill="none" stroke="black" points="3191.5,-67.5 3191.5,-97.5 3332.5,-97.5 3332.5,-67.5 3191.5,-67.5"/>
<text text-anchor="start" x="3199.5" y="-85.5" font-family="Helvetica,sans-Serif" font-size="10.00">VortexEngine/src/Patterns</text>
<text text-anchor="middle" x="3262" y="-74.5" font-family="Helvetica,sans-Serif" font-size="10.00">/Pattern.cpp</text>
</a>
</g>
</g>
<!-- Node1&#45;&gt;Node32 -->
<g id="edge37" class="edge">
<title>Node1&#45;&gt;Node32</title>
<path fill="none" stroke="midnightblue" d="M2178.88,-148.46C2354.73,-147.61 2807.61,-141.04 3183,-98 3185.77,-97.68 3188.59,-97.33 3191.44,-96.94"/>
<polygon fill="midnightblue" stroke="midnightblue" points="2178.69,-144.96 2168.7,-148.5 2178.72,-151.96 2178.69,-144.96"/>
</g>
<!-- Node33 -->
<g id="node33" class="node">
<title>Node33</title>
<g id="a_node33"><a xlink:href="PatternArgs_8cpp.html" target="_top" target="_top" xlink:title=" ">
<polygon fill="none" stroke="black" points="3350.5,-67.5 3350.5,-97.5 3491.5,-97.5 3491.5,-67.5 3350.5,-67.5"/>
<text text-anchor="start" x="3358.5" y="-85.5" font-family="Helvetica,sans-Serif" font-size="10.00">VortexEngine/src/Patterns</text>
<text text-anchor="middle" x="3421" y="-74.5" font-family="Helvetica,sans-Serif" font-size="10.00">/PatternArgs.cpp</text>
</a>
</g>
</g>
<!-- Node1&#45;&gt;Node33 -->
<g id="edge38" class="edge">
<title>Node1&#45;&gt;Node33</title>
<path fill="none" stroke="midnightblue" d="M2178.72,-149.11C2371.83,-149.88 2903.05,-146.99 3342,-98 3344.77,-97.69 3347.59,-97.34 3350.44,-96.96"/>
<polygon fill="midnightblue" stroke="midnightblue" points="2178.7,-145.61 2168.68,-149.06 2178.67,-152.61 2178.7,-145.61"/>
</g>
<!-- Node34 -->
<g id="node34" class="node">
<title>Node34</title>
<g id="a_node34"><a xlink:href="PatternBuilder_8cpp.html" target="_top" target="_top" xlink:title=" ">
<polygon fill="none" stroke="black" points="3509.5,-67.5 3509.5,-97.5 3650.5,-97.5 3650.5,-67.5 3509.5,-67.5"/>
<text text-anchor="start" x="3517.5" y="-85.5" font-family="Helvetica,sans-Serif" font-size="10.00">VortexEngine/src/Patterns</text>
<text text-anchor="middle" x="3580" y="-74.5" font-family="Helvetica,sans-Serif" font-size="10.00">/PatternBuilder.cpp</text>
</a>
</g>
</g>
<!-- Node1&#45;&gt;Node34 -->
<g id="edge39" class="edge">
<title>Node1&#45;&gt;Node34</title>
<path fill="none" stroke="midnightblue" d="M2178.7,-147.23C2429.64,-142.76 3241.18,-126.39 3501,-98 3503.77,-97.7 3506.59,-97.35 3509.44,-96.98"/>
<polygon fill="midnightblue" stroke="midnightblue" points="2178.53,-143.74 2168.59,-147.41 2178.65,-150.74 2178.53,-143.74"/>
</g>
<!-- Node35 -->
<g id="node35" class="node">
<title>Node35</title>
<g id="a_node35"><a xlink:href="ByteStream_8cpp.html" target="_top" target="_top" xlink:title=" ">
<polygon fill="none" stroke="black" points="3668.5,-67.5 3668.5,-97.5 3797.5,-97.5 3797.5,-67.5 3668.5,-67.5"/>
<text text-anchor="start" x="3676.5" y="-85.5" font-family="Helvetica,sans-Serif" font-size="10.00">VortexEngine/src/Serial</text>
<text text-anchor="middle" x="3733" y="-74.5" font-family="Helvetica,sans-Serif" font-size="10.00">/ByteStream.cpp</text>
</a>
</g>
</g>
<!-- Node1&#45;&gt;Node35 -->
<g id="edge40" class="edge">
<title>Node1&#45;&gt;Node35</title>
<path fill="none" stroke="midnightblue" d="M2178.89,-147.69C2448.34,-144.54 3367.88,-131.52 3660,-98 3662.7,-97.69 3665.44,-97.33 3668.21,-96.94"/>
<polygon fill="midnightblue" stroke="midnightblue" points="2178.78,-144.2 2168.82,-147.81 2178.86,-151.19 2178.78,-144.2"/>
</g>
<!-- Node36 -->
<g id="node36" class="node">
<title>Node36</title>
<g id="a_node36"><a xlink:href="Serial_8cpp.html" target="_top" target="_top" xlink:title=" ">
<polygon fill="none" stroke="black" points="3815.5,-67.5 3815.5,-97.5 3944.5,-97.5 3944.5,-67.5 3815.5,-67.5"/>
<text text-anchor="start" x="3823.5" y="-85.5" font-family="Helvetica,sans-Serif" font-size="10.00">VortexEngine/src/Serial</text>
<text text-anchor="middle" x="3880" y="-74.5" font-family="Helvetica,sans-Serif" font-size="10.00">/Serial.cpp</text>
</a>
</g>
</g>
<!-- Node1&#45;&gt;Node36 -->
<g id="edge41" class="edge">
<title>Node1&#45;&gt;Node36</title>
<path fill="none" stroke="midnightblue" d="M2179.13,-147.94C2464.97,-145.53 3484.74,-134.53 3807,-98 3809.7,-97.69 3812.44,-97.34 3815.21,-96.95"/>
<polygon fill="midnightblue" stroke="midnightblue" points="2178.85,-144.44 2168.88,-148.02 2178.9,-151.44 2178.85,-144.44"/>
</g>
<!-- Node37 -->
<g id="node37" class="node">
<title>Node37</title>
<g id="a_node37"><a xlink:href="Storage_8cpp.html" target="_top" target="_top" xlink:title=" ">
<polygon fill="none" stroke="black" points="3962.5,-67.5 3962.5,-97.5 4101.5,-97.5 4101.5,-67.5 3962.5,-67.5"/>
<text text-anchor="start" x="3970.5" y="-85.5" font-family="Helvetica,sans-Serif" font-size="10.00">VortexEngine/src/Storage</text>
<text text-anchor="middle" x="4032" y="-74.5" font-family="Helvetica,sans-Serif" font-size="10.00">/Storage.cpp</text>
</a>
</g>
</g>
<!-- Node1&#45;&gt;Node37 -->
<g id="edge42" class="edge">
<title>Node1&#45;&gt;Node37</title>
<path fill="none" stroke="midnightblue" d="M2178.97,-148.02C2479.95,-145.85 3601.13,-135.38 3954,-98 3956.74,-97.71 3959.53,-97.38 3962.34,-97.01"/>
<polygon fill="midnightblue" stroke="midnightblue" points="2178.59,-144.52 2168.62,-148.09 2178.64,-151.52 2178.59,-144.52"/>
</g>
<!-- Node38 -->
<g id="node38" class="node">
<title>Node38</title>
<g id="a_node38"><a xlink:href="IRReceiver_8cpp.html" target="_top" target="_top" xlink:title=" ">
<polygon fill="none" stroke="black" points="4119.5,-67.5 4119.5,-97.5 4262.5,-97.5 4262.5,-67.5 4119.5,-67.5"/>
<text text-anchor="start" x="4127.5" y="-85.5" font-family="Helvetica,sans-Serif" font-size="10.00">VortexEngine/src/Wireless</text>
<text text-anchor="middle" x="4191" y="-74.5" font-family="Helvetica,sans-Serif" font-size="10.00">/IRReceiver.cpp</text>
</a>
</g>
</g>
<!-- Node1&#45;&gt;Node38 -->
<g id="edge43" class="edge">
<title>Node1&#45;&gt;Node38</title>
<path fill="none" stroke="midnightblue" d="M2178.94,-148.16C2495.61,-146.49 3725.53,-137.54 4111,-98 4113.67,-97.73 4116.38,-97.41 4119.12,-97.07"/>
<polygon fill="midnightblue" stroke="midnightblue" points="2178.48,-144.66 2168.5,-148.22 2178.52,-151.66 2178.48,-144.66"/>
</g>
<!-- Node39 -->
<g id="node39" class="node">
<title>Node39</title>
<g id="a_node39"><a xlink:href="IRSender_8h.html" target="_top" target="_top" xlink:title=" ">
<polygon fill="none" stroke="black" points="4602.5,-67.5 4602.5,-97.5 4745.5,-97.5 4745.5,-67.5 4602.5,-67.5"/>
<text text-anchor="start" x="4610.5" y="-85.5" font-family="Helvetica,sans-Serif" font-size="10.00">VortexEngine/src/Wireless</text>
<text text-anchor="middle" x="4674" y="-74.5" font-family="Helvetica,sans-Serif" font-size="10.00">/IRSender.h</text>
</a>
</g>
</g>
<!-- Node1&#45;&gt;Node39 -->
<g id="edge44" class="edge">
<title>Node1&#45;&gt;Node39</title>
<path fill="none" stroke="midnightblue" d="M2178.77,-148.59C2540.11,-148.77 4107.94,-146.67 4594,-98 4596.67,-97.73 4599.38,-97.43 4602.12,-97.09"/>
<polygon fill="midnightblue" stroke="midnightblue" points="2178.68,-145.09 2168.68,-148.58 2178.68,-152.09 2178.68,-145.09"/>
</g>
<!-- Node41 -->
<g id="node41" class="node">
<title>Node41</title>
<g id="a_node41"><a xlink:href="VLReceiver_8cpp.html" target="_top" target="_top" xlink:title=" ">
<polygon fill="none" stroke="black" points="4441.5,-67.5 4441.5,-97.5 4584.5,-97.5 4584.5,-67.5 4441.5,-67.5"/>
<text text-anchor="start" x="4449.5" y="-85.5" font-family="Helvetica,sans-Serif" font-size="10.00">VortexEngine/src/Wireless</text>
<text text-anchor="middle" x="4513" y="-74.5" font-family="Helvetica,sans-Serif" font-size="10.00">/VLReceiver.cpp</text>
</a>
</g>
</g>
<!-- Node1&#45;&gt;Node41 -->
<g id="edge48" class="edge">
<title>Node1&#45;&gt;Node41</title>
<path fill="none" stroke="midnightblue" d="M2178.96,-148.47C2526.19,-148.06 3980.6,-143.62 4433,-98 4435.67,-97.73 4438.38,-97.42 4441.12,-97.08"/>
<polygon fill="midnightblue" stroke="midnightblue" points="2178.76,-144.97 2168.77,-148.48 2178.77,-151.97 2178.76,-144.97"/>
</g>
<!-- Node42 -->
<g id="node42" class="node">
<title>Node42</title>
<g id="a_node42"><a xlink:href="VLSender_8h.html" target="_top" target="_top" xlink:title=" ">
<polygon fill="none" stroke="black" points="4280.5,-67.5 4280.5,-97.5 4423.5,-97.5 4423.5,-67.5 4280.5,-67.5"/>
<text text-anchor="start" x="4288.5" y="-85.5" font-family="Helvetica,sans-Serif" font-size="10.00">VortexEngine/src/Wireless</text>
<text text-anchor="middle" x="4352" y="-74.5" font-family="Helvetica,sans-Serif" font-size="10.00">/VLSender.h</text>
</a>
</g>
</g>
<!-- Node1&#45;&gt;Node42 -->
<g id="edge49" class="edge">
<title>Node1&#45;&gt;Node42</title>
<path fill="none" stroke="midnightblue" d="M2179.12,-148.32C2511.64,-147.3 3853.18,-140.57 4272,-98 4274.67,-97.73 4277.38,-97.42 4280.12,-97.07"/>
<polygon fill="midnightblue" stroke="midnightblue" points="2178.63,-144.83 2168.64,-148.36 2178.65,-151.83 2178.63,-144.83"/>
</g>
<!-- Node5&#45;&gt;Node4 -->
<g id="edge5" class="edge">
<title>Node5&#45;&gt;Node4</title>
<path fill="none" stroke="midnightblue" d="M373.77,-57.7C371.39,-48.59 368.75,-38.49 366.68,-30.58"/>
<polygon fill="midnightblue" stroke="midnightblue" points="370.39,-58.61 376.31,-67.4 377.17,-56.84 370.39,-58.61"/>
</g>
<!-- Node6 -->
<g id="node6" class="node">
<title>Node6</title>
<g id="a_node6"><a xlink:href="Menus_8cpp.html" target="_top" target="_top" xlink:title=" ">
<polygon fill="none" stroke="black" points="126,-0.5 126,-30.5 260,-30.5 260,-0.5 126,-0.5"/>
<text text-anchor="start" x="134" y="-18.5" font-family="Helvetica,sans-Serif" font-size="10.00">VortexEngine/src/Menus</text>
<text text-anchor="middle" x="193" y="-7.5" font-family="Helvetica,sans-Serif" font-size="10.00">/Menus.cpp</text>
</a>
</g>
</g>
<!-- Node5&#45;&gt;Node6 -->
<g id="edge6" class="edge">
<title>Node5&#45;&gt;Node6</title>
<path fill="none" stroke="midnightblue" d="M329.92,-64.09C299.73,-53.6 261.78,-40.41 233.5,-30.58"/>
<polygon fill="midnightblue" stroke="midnightblue" points="328.83,-67.42 339.42,-67.4 331.13,-60.81 328.83,-67.42"/>
</g>
<!-- Node11&#45;&gt;Node4 -->
<g id="edge15" class="edge">
<title>Node11&#45;&gt;Node4</title>
<path fill="none" stroke="midnightblue" d="M732.71,-66.85C609.69,-47.4 576.67,-48 457,-31 454.06,-30.58 451.06,-30.15 448.04,-29.71"/>
<polygon fill="midnightblue" stroke="midnightblue" points="732.47,-70.36 742.9,-68.47 733.58,-63.44 732.47,-70.36"/>
</g>
<!-- Node11&#45;&gt;Node6 -->
<g id="edge21" class="edge">
<title>Node11&#45;&gt;Node6</title>
<path fill="none" stroke="midnightblue" d="M733,-66.97C526.82,-40.11 471.25,-58.04 269,-31 266.07,-30.61 263.08,-30.18 260.07,-29.72"/>
<polygon fill="midnightblue" stroke="midnightblue" points="732.56,-70.44 742.93,-68.28 733.47,-63.5 732.56,-70.44"/>
</g>
<!-- Node11&#45;&gt;Node7 -->
<g id="edge18" class="edge">
<title>Node11&#45;&gt;Node7</title>
<path fill="none" stroke="midnightblue" d="M887.13,-67.41C888.43,-67.27 889.72,-67.13 891,-67 1094.23,-46.48 2555.47,-23.02 2906.38,-17.64"/>
<polygon fill="midnightblue" stroke="midnightblue" points="886.56,-63.96 877.07,-68.68 887.43,-70.9 886.56,-63.96"/>
</g>
<!-- Node11&#45;&gt;Node8 -->
<g id="edge19" class="edge">
<title>Node11&#45;&gt;Node8</title>
<path fill="none" stroke="midnightblue" d="M742.46,-65.12C698.61,-54.48 642.04,-40.76 600.18,-30.61"/>
<polygon fill="midnightblue" stroke="midnightblue" points="741.63,-68.52 752.18,-67.48 743.28,-61.72 741.63,-68.52"/>
</g>
<!-- Node11&#45;&gt;Node10 -->
<g id="edge22" class="edge">
<title>Node11&#45;&gt;Node10</title>
<path fill="none" stroke="midnightblue" d="M777.92,-62.02C761.27,-51.9 741.31,-39.77 726.17,-30.58"/>
<polygon fill="midnightblue" stroke="midnightblue" points="776.42,-65.2 786.78,-67.4 780.05,-59.21 776.42,-65.2"/>
</g>
<!-- Node12 -->
<g id="node12" class="node">
<title>Node12</title>
<g id="a_node12"><a xlink:href="Leds_8cpp.html" target="_top" target="_top" xlink:title=" ">
<polygon fill="none" stroke="black" points="788,-0.5 788,-30.5 912,-30.5 912,-0.5 788,-0.5"/>
<text text-anchor="start" x="796" y="-18.5" font-family="Helvetica,sans-Serif" font-size="10.00">VortexEngine/src/Leds</text>
<text text-anchor="middle" x="850" y="-7.5" font-family="Helvetica,sans-Serif" font-size="10.00">/Leds.cpp</text>
</a>
</g>
</g>
<!-- Node11&#45;&gt;Node12 -->
<g id="edge12" class="edge">
<title>Node11&#45;&gt;Node12</title>
<path fill="none" stroke="midnightblue" d="M823.93,-58.87C829.72,-49.46 836.26,-38.83 841.34,-30.58"/>
<polygon fill="midnightblue" stroke="midnightblue" points="820.94,-57.05 818.68,-67.4 826.9,-60.71 820.94,-57.05"/>
</g>
<!-- Node13 -->
<g id="node13" class="node">
<title>Node13</title>
<g id="a_node13"><a xlink:href="Menu_8cpp.html" target="_top" target="_top" xlink:title=" ">
<polygon fill="none" stroke="black" points="930,-0.5 930,-30.5 1064,-30.5 1064,-0.5 930,-0.5"/>
<text text-anchor="start" x="938" y="-18.5" font-family="Helvetica,sans-Serif" font-size="10.00">VortexEngine/src/Menus</text>
<text text-anchor="middle" x="997" y="-7.5" font-family="Helvetica,sans-Serif" font-size="10.00">/Menu.cpp</text>
</a>
</g>
</g>
<!-- Node11&#45;&gt;Node13 -->
<g id="edge13" class="edge">
<title>Node11&#45;&gt;Node13</title>
<path fill="none" stroke="midnightblue" d="M860.08,-64.09C890.27,-53.6 928.22,-40.41 956.5,-30.58"/>
<polygon fill="midnightblue" stroke="midnightblue" points="858.87,-60.81 850.58,-67.4 861.17,-67.42 858.87,-60.81"/>
</g>
<!-- Node14 -->
<g id="node14" class="node">
<title>Node14</title>
<g id="a_node14"><a xlink:href="ColorSelect_8cpp.html" target="_top" target="_top" xlink:title=" ">
<polygon fill="none" stroke="black" points="1082.5,-0.5 1082.5,-30.5 1225.5,-30.5 1225.5,-0.5 1082.5,-0.5"/>
<text text-anchor="start" x="1090.5" y="-18.5" font-family="Helvetica,sans-Serif" font-size="10.00">VortexEngine/src/Menus</text>
<text text-anchor="middle" x="1154" y="-7.5" font-family="Helvetica,sans-Serif" font-size="10.00">/MenuList/ColorSelect.cpp</text>
</a>
</g>
</g>
<!-- Node11&#45;&gt;Node14 -->
<g id="edge14" class="edge">
<title>Node11&#45;&gt;Node14</title>
<path fill="none" stroke="midnightblue" d="M887.06,-66.94C945.49,-55.9 1025.21,-40.84 1082.28,-30.05"/>
<polygon fill="midnightblue" stroke="midnightblue" points="886.32,-63.52 877.14,-68.81 887.62,-70.4 886.32,-63.52"/>
</g>
<!-- Node15 -->
<g id="node15" class="node">
<title>Node15</title>
<g id="a_node15"><a xlink:href="FactoryReset_8cpp.html" target="_top" target="_top" xlink:title=" ">
<polygon fill="none" stroke="black" points="1244,-0.5 1244,-30.5 1394,-30.5 1394,-0.5 1244,-0.5"/>
<text text-anchor="start" x="1252" y="-18.5" font-family="Helvetica,sans-Serif" font-size="10.00">VortexEngine/src/Menus</text>
<text text-anchor="middle" x="1319" y="-7.5" font-family="Helvetica,sans-Serif" font-size="10.00">/MenuList/FactoryReset.cpp</text>
</a>
</g>
</g>
<!-- Node11&#45;&gt;Node15 -->
<g id="edge16" class="edge">
<title>Node11&#45;&gt;Node15</title>
<path fill="none" stroke="midnightblue" d="M887.15,-67.56C888.44,-67.37 889.73,-67.18 891,-67 1043.2,-45.44 1082.73,-52.09 1235,-31 1237.93,-30.59 1240.92,-30.16 1243.93,-29.71"/>
<polygon fill="midnightblue" stroke="midnightblue" points="886.48,-64.12 877.12,-69.1 887.54,-71.04 886.48,-64.12"/>
</g>
<!-- Node16 -->
<g id="node16" class="node">
<title>Node16</title>
<g id="a_node16"><a xlink:href="GlobalBrightness_8cpp.html" target="_top" target="_top" xlink:title=" ">
<polygon fill="none" stroke="black" points="1412,-0.5 1412,-30.5 1582,-30.5 1582,-0.5 1412,-0.5"/>
<text text-anchor="start" x="1420" y="-18.5" font-family="Helvetica,sans-Serif" font-size="10.00">VortexEngine/src/Menus</text>
<text text-anchor="middle" x="1497" y="-7.5" font-family="Helvetica,sans-Serif" font-size="10.00">/MenuList/GlobalBrightness.cpp</text>
</a>
</g>
</g>
<!-- Node11&#45;&gt;Node16 -->
<g id="edge17" class="edge">
<title>Node11&#45;&gt;Node16</title>
<path fill="none" stroke="midnightblue" d="M887.14,-67.5C888.44,-67.32 889.72,-67.16 891,-67 1117.38,-38.86 1176.3,-56.41 1403,-31 1405.95,-30.67 1408.96,-30.31 1411.99,-29.94"/>
<polygon fill="midnightblue" stroke="midnightblue" points="886.51,-64.05 877.1,-68.92 887.49,-70.98 886.51,-64.05"/>
</g>
<!-- Node17 -->
<g id="node17" class="node">
<title>Node17</title>
<g id="a_node17"><a xlink:href="Randomizer_8cpp.html" target="_top" target="_top" xlink:title=" ">
<polygon fill="none" stroke="black" points="1600.5,-0.5 1600.5,-30.5 1745.5,-30.5 1745.5,-0.5 1600.5,-0.5"/>
<text text-anchor="start" x="1608.5" y="-18.5" font-family="Helvetica,sans-Serif" font-size="10.00">VortexEngine/src/Menus</text>
<text text-anchor="middle" x="1673" y="-7.5" font-family="Helvetica,sans-Serif" font-size="10.00">/MenuList/Randomizer.cpp</text>
</a>
</g>
</g>
<!-- Node11&#45;&gt;Node17 -->
<g id="edge20" class="edge">
<title>Node11&#45;&gt;Node17</title>
<path fill="none" stroke="midnightblue" d="M887.14,-67.46C888.43,-67.3 889.72,-67.15 891,-67 1200.49,-31.48 1281.47,-66.19 1591,-31 1594.02,-30.66 1597.09,-30.27 1600.19,-29.86"/>
<polygon fill="midnightblue" stroke="midnightblue" points="886.53,-64.01 877.09,-68.82 887.47,-70.95 886.53,-64.01"/>
</g>
<!-- Node18 -->
<g id="node18" class="node">
<title>Node18</title>
<g id="a_node18"><a xlink:href="VortexEngine_8cpp.html" target="_top" target="_top" xlink:title=" ">
<polygon fill="none" stroke="black" points="4156,-6 4156,-25 4342,-25 4342,-6 4156,-6"/>
<text text-anchor="middle" x="4249" y="-13" font-family="Helvetica,sans-Serif" font-size="10.00">VortexEngine/src/VortexEngine.cpp</text>
</a>
</g>
</g>
<!-- Node11&#45;&gt;Node18 -->
<g id="edge23" class="edge">
<title>Node11&#45;&gt;Node18</title>
<path fill="none" stroke="midnightblue" d="M887.29,-70.49C899.55,-69.08 912.11,-67.84 924,-67 1089.29,-55.27 3633.22,-23.95 4155.66,-17.62"/>
<polygon fill="midnightblue" stroke="midnightblue" points="886.61,-67.05 877.09,-71.7 887.43,-74 886.61,-67.05"/>
</g>
<!-- Node39&#45;&gt;Node7 -->
<g id="edge45" class="edge">
<title>Node39&#45;&gt;Node7</title>
<path fill="none" stroke="midnightblue" d="M4591.85,-66.89C4270.04,-34.62 3331.96,-20.82 3057.95,-17.39"/>
<polygon fill="midnightblue" stroke="midnightblue" points="4591.81,-70.41 4602.11,-67.95 4592.53,-63.45 4591.81,-70.41"/>
</g>
<!-- Node39&#45;&gt;Node18 -->
<g id="edge46" class="edge">
<title>Node39&#45;&gt;Node18</title>
<path fill="none" stroke="midnightblue" d="M4592.4,-66.78C4525.62,-56.1 4388.5,-36.38 4309,-25.03"/>
<polygon fill="midnightblue" stroke="midnightblue" points="4592.06,-70.27 4602.49,-68.41 4593.18,-63.36 4592.06,-70.27"/>
</g>
<!-- Node40 -->
<g id="node40" class="node">
<title>Node40</title>
<g id="a_node40"><a xlink:href="IRSender_8cpp.html" target="_top" target="_top" xlink:title=" ">
<polygon fill="none" stroke="black" points="4602.5,-0.5 4602.5,-30.5 4745.5,-30.5 4745.5,-0.5 4602.5,-0.5"/>
<text text-anchor="start" x="4610.5" y="-18.5" font-family="Helvetica,sans-Serif" font-size="10.00">VortexEngine/src/Wireless</text>
<text text-anchor="middle" x="4674" y="-7.5" font-family="Helvetica,sans-Serif" font-size="10.00">/IRSender.cpp</text>
</a>
</g>
</g>
<!-- Node39&#45;&gt;Node40 -->
<g id="edge47" class="edge">
<title>Node39&#45;&gt;Node40</title>
<path fill="none" stroke="midnightblue" d="M4674,-57.11C4674,-48.15 4674,-38.32 4674,-30.58"/>
<polygon fill="midnightblue" stroke="midnightblue" points="4670.5,-57.4 4674,-67.4 4677.5,-57.4 4670.5,-57.4"/>
</g>
<!-- Node42&#45;&gt;Node4 -->
<g id="edge50" class="edge">
<title>Node42&#45;&gt;Node4</title>
<path fill="none" stroke="midnightblue" d="M4270.08,-66.94C3411.37,12.01 1298.72,-99.53 457,-31 454.12,-30.77 451.19,-30.5 448.24,-30.2"/>
<polygon fill="midnightblue" stroke="midnightblue" points="4269.84,-70.43 4280.12,-67.88 4270.49,-63.46 4269.84,-70.43"/>
</g>
<!-- Node42&#45;&gt;Node7 -->
<g id="edge51" class="edge">
<title>Node42&#45;&gt;Node7</title>
<path fill="none" stroke="midnightblue" d="M4269.83,-66.86C3804.64,-16.61 3255.28,-14.65 3057.52,-15.77"/>
<polygon fill="midnightblue" stroke="midnightblue" points="4269.79,-70.38 4280.11,-67.98 4270.55,-63.42 4269.79,-70.38"/>
</g>
<!-- Node42&#45;&gt;Node18 -->
<g id="edge52" class="edge">
<title>Node42&#45;&gt;Node18</title>
<path fill="none" stroke="midnightblue" d="M4321.06,-61.97C4301.53,-49.65 4277.28,-34.35 4262.48,-25.01"/>
<polygon fill="midnightblue" stroke="midnightblue" points="4319.33,-65.02 4329.65,-67.4 4323.06,-59.1 4319.33,-65.02"/>
</g>
<!-- Node43 -->
<g id="node43" class="node">
<title>Node43</title>
<g id="a_node43"><a xlink:href="VLSender_8cpp.html" target="_top" target="_top" xlink:title=" ">
<polygon fill="none" stroke="black" points="4360.5,-0.5 4360.5,-30.5 4503.5,-30.5 4503.5,-0.5 4360.5,-0.5"/>
<text text-anchor="start" x="4368.5" y="-18.5" font-family="Helvetica,sans-Serif" font-size="10.00">VortexEngine/src/Wireless</text>
<text text-anchor="middle" x="4432" y="-7.5" font-family="Helvetica,sans-Serif" font-size="10.00">/VLSender.cpp</text>
</a>
</g>
</g>
<!-- Node42&#45;&gt;Node43 -->
<g id="edge53" class="edge">
<title>Node42&#45;&gt;Node43</title>
<path fill="none" stroke="midnightblue" d="M4377.37,-60.88C4389.53,-51.01 4403.78,-39.43 4414.68,-30.58"/>
<polygon fill="midnightblue" stroke="midnightblue" points="4374.91,-58.37 4369.36,-67.4 4379.33,-63.81 4374.91,-58.37"/>
</g>
</g>
</svg>
        <g id="navigator" transform="translate(0 0)" fill="#404254">
                <rect fill="#f2f5e9" fill-opacity="0.5" stroke="#606060" stroke-width=".5" x="0" y="0" width="60" height="60"/>
                <use id="zoomplus" xlink:href="#zoomPlus" target="_top" x="17" y="9" onmousedown="handleZoom(evt,'in')"/>
                <use id="zoomminus" xlink:href="#zoomMin" target="_top" x="42" y="9" onmousedown="handleZoom(evt,'out')"/>
                <use id="reset" xlink:href="#resetDef" target="_top" x="30" y="36" onmousedown="handleReset()"/>
                <g id="arrowUp" xlink:href="#dirArrow" target="_top" transform="translate(30 24)" onmousedown="handlePan(0,-1)">
                  <use xlink:href="#rim" target="_top" fill="#404040">
                        <set attributeName="fill" to="#808080" begin="arrowUp.mouseover" end="arrowUp.mouseout"/>
                  </use>
                  <path fill="none" stroke="white" stroke-width="1.5" d="M0,-3.0v7 M-2.5,-0.5L0,-3.0L2.5,-0.5"/>
                </g>
                <g id="arrowRight" xlink:href="#dirArrow" target="_top" transform="rotate(90) translate(36 -43)" onmousedown="handlePan(1,0)">
                  <use xlink:href="#rim" target="_top" fill="#404040">
                        <set attributeName="fill" to="#808080" begin="arrowRight.mouseover" end="arrowRight.mouseout"/>
                  </use>
                  <path fill="none" stroke="white" stroke-width="1.5" d="M0,-3.0v7 M-2.5,-0.5L0,-3.0L2.5,-0.5"/>
                </g>
                <g id="arrowDown" xlink:href="#dirArrow" target="_top" transform="rotate(180) translate(-30 -48)" onmousedown="handlePan(0,1)">
                  <use xlink:href="#rim" target="_top" fill="#404040">
                        <set attributeName="fill" to="#808080" begin="arrowDown.mouseover" end="arrowDown.mouseout"/>
                  </use>
                  <path fill="none" stroke="white" stroke-width="1.5" d="M0,-3.0v7 M-2.5,-0.5L0,-3.0L2.5,-0.5"/>
                </g>
                <g id="arrowLeft" xlink:href="#dirArrow" target="_top" transform="rotate(270) translate(-36 17)" onmousedown="handlePan(-1,0)">
                  <use xlink:href="#rim" target="_top" fill="#404040">
                        <set attributeName="fill" to="#808080" begin="arrowLeft.mouseover" end="arrowLeft.mouseout"/>
                  </use>
                  <path fill="none" stroke="white" stroke-width="1.5" d="M0,-3.0v7 M-2.5,-0.5L0,-3.0L2.5,-0.5"/>
                </g>
        </g>
        <svg viewBox="0 0 15 15" width="100%" height="30px" preserveAspectRatio="xMaxYMin meet">
         <g id="arrow_out" transform="scale(0.3 0.3)">
          <a xlink:href="ByteStream_8h__dep__incl_org.svg" target="_top" target="_base">
           <rect id="button" ry="5" rx="5" y="6" x="6" height="38" width="38"
                fill="#f2f5e9" fill-opacity="0.5" stroke="#606060" stroke-width="1.0"/>
           <path id="arrow"
             d="M 11.500037,31.436501 C 11.940474,20.09759 22.043105,11.32322 32.158766,21.979434 L 37.068811,17.246167 C 37.068811,17.246167 37.088388,32 37.088388,32 L 22.160133,31.978069 C 22.160133,31.978069 26.997745,27.140456 26.997745,27.140456 C 18.528582,18.264221 13.291696,25.230495 11.500037,31.436501 z"
             style="fill:#404040;"/>
          </a>
         </g>
        </svg>
</svg>
