<?xml version="1.0" encoding="UTF-8" standalone="no"?>
<!DOCTYPE svg PUBLIC "-//W3C//DTD SVG 1.1//EN"
 "http://www.w3.org/Graphics/SVG/1.1/DTD/svg11.dtd">
<!-- Generated by graphviz version 2.43.0 (0)
 -->
<!-- Title: SequencedPattern Pages: 1 -->
<svg width="112pt" height="252pt"
 viewBox="0.00 0.00 112.00 252.00" xmlns="http://www.w3.org/2000/svg" xmlns:xlink="http://www.w3.org/1999/xlink">
<g id="graph0" class="graph" transform="scale(1 1) rotate(0) translate(4 248)">
<title>SequencedPattern</title>
<!-- Node1 -->
<g id="node1" class="node">
<title>Node1</title>
<g id="a_node1"><a xlink:title=" ">
<polygon fill="#bfbfbf" stroke="black" points="0,-56.5 0,-75.5 104,-75.5 104,-56.5 0,-56.5"/>
<text text-anchor="middle" x="52" y="-63.5" font-family="Helvetica,sans-Serif" font-size="10.00">SequencedPattern</text>
</a>
</g>
</g>
<!-- Node5 -->
<g id="node5" class="node">
<title>Node5</title>
<g id="a_node5"><a xlink:href="classChaserPattern.html" target="_top" xlink:title=" ">
<polygon fill="none" stroke="black" points="9.5,-0.5 9.5,-19.5 94.5,-19.5 94.5,-0.5 9.5,-0.5"/>
<text text-anchor="middle" x="52" y="-7.5" font-family="Helvetica,sans-Serif" font-size="10.00">ChaserPattern</text>
</a>
</g>
</g>
<!-- Node1&#45;&gt;Node5 -->
<g id="edge4" class="edge">
<title>Node1&#45;&gt;Node5</title>
<path fill="none" stroke="midnightblue" d="M52,-45.8C52,-36.91 52,-26.78 52,-19.75"/>
<polygon fill="midnightblue" stroke="midnightblue" points="48.5,-46.08 52,-56.08 55.5,-46.08 48.5,-46.08"/>
</g>
<!-- Node2 -->
<g id="node2" class="node">
<title>Node2</title>
<g id="a_node2"><a xlink:href="classCompoundPattern.html" target="_top" xlink:title=" ">
<polygon fill="none" stroke="black" points="0,-112.5 0,-131.5 104,-131.5 104,-112.5 0,-112.5"/>
<text text-anchor="middle" x="52" y="-119.5" font-family="Helvetica,sans-Serif" font-size="10.00">CompoundPattern</text>
</a>
</g>
</g>
<!-- Node2&#45;&gt;Node1 -->
<g id="edge1" class="edge">
<title>Node2&#45;&gt;Node1</title>
<path fill="none" stroke="midnightblue" d="M52,-101.8C52,-92.91 52,-82.78 52,-75.75"/>
<polygon fill="midnightblue" stroke="midnightblue" points="48.5,-102.08 52,-112.08 55.5,-102.08 48.5,-102.08"/>
</g>
<!-- Node3 -->
<g id="node3" class="node">
<title>Node3</title>
<g id="a_node3"><a xlink:href="classMultiLedPattern.html" target="_top" xlink:title=" ">
<polygon fill="none" stroke="black" points="5.5,-168.5 5.5,-187.5 98.5,-187.5 98.5,-168.5 5.5,-168.5"/>
<text text-anchor="middle" x="52" y="-175.5" font-family="Helvetica,sans-Serif" font-size="10.00">MultiLedPattern</text>
</a>
</g>
</g>
<!-- Node3&#45;&gt;Node2 -->
<g id="edge2" class="edge">
<title>Node3&#45;&gt;Node2</title>
<path fill="none" stroke="midnightblue" d="M52,-157.8C52,-148.91 52,-138.78 52,-131.75"/>
<polygon fill="midnightblue" stroke="midnightblue" points="48.5,-158.08 52,-168.08 55.5,-158.08 48.5,-158.08"/>
</g>
<!-- Node4 -->
<g id="node4" class="node">
<title>Node4</title>
<g id="a_node4"><a xlink:href="classPattern.html" target="_top" xlink:title=" ">
<polygon fill="none" stroke="black" points="26.5,-224.5 26.5,-243.5 77.5,-243.5 77.5,-224.5 26.5,-224.5"/>
<text text-anchor="middle" x="52" y="-231.5" font-family="Helvetica,sans-Serif" font-size="10.00">Pattern</text>
</a>
</g>
</g>
<!-- Node4&#45;&gt;Node3 -->
<g id="edge3" class="edge">
<title>Node4&#45;&gt;Node3</title>
<path fill="none" stroke="midnightblue" d="M52,-213.8C52,-204.91 52,-194.78 52,-187.75"/>
<polygon fill="midnightblue" stroke="midnightblue" points="48.5,-214.08 52,-224.08 55.5,-214.08 48.5,-214.08"/>
</g>
</g>
</svg>
