<?xml version="1.0" encoding="UTF-8" standalone="no"?>
<!DOCTYPE svg PUBLIC "-//W3C//DTD SVG 1.1//EN"
 "http://www.w3.org/Graphics/SVG/1.1/DTD/svg11.dtd">
<!-- Generated by graphviz version 2.43.0 (0)
 -->
<!-- Title: VortexEngine/src/Colors/Colorset.h Pages: 1 -->
<svg width="227pt" height="207pt"
 viewBox="0.00 0.00 227.00 207.00" xmlns="http://www.w3.org/2000/svg" xmlns:xlink="http://www.w3.org/1999/xlink">
<g id="graph0" class="graph" transform="scale(1 1) rotate(0) translate(4 203)">
<title>VortexEngine/src/Colors/Colorset.h</title>
<!-- Node1 -->
<g id="node1" class="node">
<title>Node1</title>
<g id="a_node1"><a xlink:title=" ">
<polygon fill="#bfbfbf" stroke="black" points="65.5,-168.5 65.5,-198.5 197.5,-198.5 197.5,-168.5 65.5,-168.5"/>
<text text-anchor="start" x="73.5" y="-186.5" font-family="Helvetica,sans-Serif" font-size="10.00">VortexEngine/src/Colors</text>
<text text-anchor="middle" x="131.5" y="-175.5" font-family="Helvetica,sans-Serif" font-size="10.00">/Colorset.h</text>
</a>
</g>
</g>
<!-- Node2 -->
<g id="node2" class="node">
<title>Node2</title>
<g id="a_node2"><a xlink:href="ColorTypes_8h.html" target="_top" target="_top" xlink:title=" ">
<polygon fill="none" stroke="black" points="58,-112.5 58,-131.5 137,-131.5 137,-112.5 58,-112.5"/>
<text text-anchor="middle" x="97.5" y="-119.5" font-family="Helvetica,sans-Serif" font-size="10.00">ColorTypes.h</text>
</a>
</g>
</g>
<!-- Node1&#45;&gt;Node2 -->
<g id="edge1" class="edge">
<title>Node1&#45;&gt;Node2</title>
<path fill="none" stroke="midnightblue" d="M123.44,-168.4C118.65,-160.02 112.54,-149.33 107.46,-140.42"/>
<polygon fill="midnightblue" stroke="midnightblue" points="110.45,-138.6 102.45,-131.66 104.37,-142.08 110.45,-138.6"/>
</g>
<!-- Node4 -->
<g id="node4" class="node">
<title>Node4</title>
<g id="a_node4"><a xlink:href="VortexConfig_8h.html" target="_top" target="_top" xlink:title=" ">
<polygon fill="none" stroke="black" points="122,-56.5 122,-75.5 219,-75.5 219,-56.5 122,-56.5"/>
<text text-anchor="middle" x="170.5" y="-63.5" font-family="Helvetica,sans-Serif" font-size="10.00">../VortexConfig.h</text>
</a>
</g>
</g>
<!-- Node1&#45;&gt;Node4 -->
<g id="edge6" class="edge">
<title>Node1&#45;&gt;Node4</title>
<path fill="none" stroke="midnightblue" d="M136.28,-168.34C143.34,-147.43 156.55,-108.31 164.33,-85.27"/>
<polygon fill="midnightblue" stroke="midnightblue" points="167.69,-86.26 167.57,-75.67 161.06,-84.02 167.69,-86.26"/>
</g>
<!-- Node3 -->
<g id="node3" class="node">
<title>Node3</title>
<g id="a_node3"><a xlink:title=" ">
<polygon fill="none" stroke="#bfbfbf" points="0,-56.5 0,-75.5 65,-75.5 65,-56.5 0,-56.5"/>
<text text-anchor="middle" x="32.5" y="-63.5" font-family="Helvetica,sans-Serif" font-size="10.00">inttypes.h</text>
</a>
</g>
</g>
<!-- Node2&#45;&gt;Node3 -->
<g id="edge2" class="edge">
<title>Node2&#45;&gt;Node3</title>
<path fill="none" stroke="midnightblue" d="M87.06,-112.32C77.35,-104.26 62.68,-92.08 51,-82.37"/>
<polygon fill="midnightblue" stroke="midnightblue" points="53.06,-79.53 43.13,-75.83 48.59,-84.92 53.06,-79.53"/>
</g>
<!-- Node2&#45;&gt;Node4 -->
<g id="edge3" class="edge">
<title>Node2&#45;&gt;Node4</title>
<path fill="none" stroke="midnightblue" d="M109.23,-112.32C120.34,-104.11 137.24,-91.6 150.48,-81.81"/>
<polygon fill="midnightblue" stroke="midnightblue" points="152.6,-84.59 158.56,-75.83 148.44,-78.97 152.6,-84.59"/>
</g>
<!-- Node5 -->
<g id="node5" class="node">
<title>Node5</title>
<g id="a_node5"><a xlink:href="ColorConstants_8h.html" target="_top" target="_top" xlink:title=" ">
<polygon fill="none" stroke="black" points="64.5,-0.5 64.5,-19.5 198.5,-19.5 198.5,-0.5 64.5,-0.5"/>
<text text-anchor="middle" x="131.5" y="-7.5" font-family="Helvetica,sans-Serif" font-size="10.00">Colors/ColorConstants.h</text>
</a>
</g>
</g>
<!-- Node2&#45;&gt;Node5 -->
<g id="edge5" class="edge">
<title>Node2&#45;&gt;Node5</title>
<path fill="none" stroke="midnightblue" d="M99.2,-112.48C101.79,-99.96 107.1,-75.92 113.5,-56 116.4,-46.99 120.22,-37.21 123.6,-29.07"/>
<polygon fill="midnightblue" stroke="midnightblue" points="126.84,-30.4 127.54,-19.83 120.4,-27.66 126.84,-30.4"/>
</g>
<!-- Node4&#45;&gt;Node5 -->
<g id="edge4" class="edge">
<title>Node4&#45;&gt;Node5</title>
<path fill="none" stroke="midnightblue" d="M164.06,-56.08C158.55,-48.46 150.47,-37.26 143.74,-27.94"/>
<polygon fill="midnightblue" stroke="midnightblue" points="146.51,-25.81 137.82,-19.75 140.84,-29.91 146.51,-25.81"/>
</g>
</g>
</svg>
