<?xml version="1.0" encoding="UTF-8" standalone="no"?>
<!DOCTYPE svg PUBLIC "-//W3C//DTD SVG 1.1//EN"
 "http://www.w3.org/Graphics/SVG/1.1/DTD/svg11.dtd">
<!-- Generated by graphviz version 2.43.0 (0)
 -->
<!-- Title: VortexEngine/src/Patterns/Multi/DoubleStrobePattern.h Pages: 1 -->
<!--zoomable 431 -->
<svg id="main" version="1.1" xmlns="http://www.w3.org/2000/svg" xmlns:xlink="http://www.w3.org/1999/xlink" xml:space="preserve" onload="init(evt)">
<style type="text/css"><![CDATA[
.edge:hover path { stroke: red; }
.edge:hover polygon { stroke: red; fill: red; }
]]></style>
<script type="text/javascript"><![CDATA[
var edges = document.getElementsByTagName('g');
if (edges && edges.length) {
  for (var i=0;i<edges.length;i++) {
    if (edges[i].id.substr(0,4)=='edge') {
      edges[i].setAttribute('class','edge');
    }
  }
}
]]></script>
        <defs>
                <circle id="rim" cx="0" cy="0" r="7"/>
                <circle id="rim2" cx="0" cy="0" r="3.5"/>
                <g id="zoomPlus">
                        <use xlink:href="#rim" target="_top" fill="#404040">
                                <set attributeName="fill" to="#808080" begin="zoomplus.mouseover" end="zoomplus.mouseout"/>
                        </use>
                        <path d="M-4,0h8M0,-4v8" fill="none" stroke="white" stroke-width="1.5" pointer-events="none"/>
                </g>
                <g id="zoomMin">
                        <use xlink:href="#rim" target="_top" fill="#404040">
                                <set attributeName="fill" to="#808080" begin="zoomminus.mouseover" end="zoomminus.mouseout"/>
                        </use>
                        <path d="M-4,0h8" fill="none" stroke="white" stroke-width="1.5" pointer-events="none"/>
                </g>
                <g id="dirArrow">
                        <path fill="none" stroke="white" stroke-width="1.5" d="M0,-3.0v7 M-2.5,-0.5L0,-3.0L2.5,-0.5"/>
                </g>
               <g id="resetDef">
                       <use xlink:href="#rim2" target="_top" fill="#404040">
                               <set attributeName="fill" to="#808080" begin="reset.mouseover" end="reset.mouseout"/>
                       </use>
               </g>
        </defs>

<script type="text/javascript">
var viewWidth = 538;
var viewHeight = 431;
var sectionId = 'dynsection-0';
</script>
<script xlink:href="svgpan.js" target="_top"/>
<svg id="graph" class="graph">
<g id="viewport">
<title>VortexEngine/src/Patterns/Multi/DoubleStrobePattern.h</title>
<!-- Node1 -->
<g id="node1" class="node">
<title>Node1</title>
<g id="a_node1"><a xlink:title=" ">
<polygon fill="#bfbfbf" stroke="black" points="143,-392.5 143,-422.5 300,-422.5 300,-392.5 143,-392.5"/>
<text text-anchor="start" x="151" y="-410.5" font-family="Helvetica,sans-Serif" font-size="10.00">VortexEngine/src/Patterns</text>
<text text-anchor="middle" x="221.5" y="-399.5" font-family="Helvetica,sans-Serif" font-size="10.00">/Multi/DoubleStrobePattern.h</text>
</a>
</g>
</g>
<!-- Node2 -->
<g id="node2" class="node">
<title>Node2</title>
<g id="a_node2"><a xlink:href="BlinkStepPattern_8h.html" target="_top" target="_top" xlink:title=" ">
<polygon fill="none" stroke="black" points="127,-336.5 127,-355.5 234,-355.5 234,-336.5 127,-336.5"/>
<text text-anchor="middle" x="180.5" y="-343.5" font-family="Helvetica,sans-Serif" font-size="10.00">BlinkStepPattern.h</text>
</a>
</g>
</g>
<!-- Node1&#45;&gt;Node2 -->
<g id="edge1" class="edge">
<title>Node1&#45;&gt;Node2</title>
<path fill="none" stroke="midnightblue" d="M211.78,-392.4C205.95,-383.93 198.48,-373.1 192.31,-364.14"/>
<polygon fill="midnightblue" stroke="midnightblue" points="195.02,-361.91 186.47,-355.66 189.26,-365.88 195.02,-361.91"/>
</g>
<!-- Node15 -->
<g id="node15" class="node">
<title>Node15</title>
<g id="a_node15"><a xlink:href="Timings_8h.html" target="_top" target="_top" xlink:title=" ">
<polygon fill="none" stroke="black" points="262.5,-224.5 262.5,-243.5 372.5,-243.5 372.5,-224.5 262.5,-224.5"/>
<text text-anchor="middle" x="317.5" y="-231.5" font-family="Helvetica,sans-Serif" font-size="10.00">../../Time/Timings.h</text>
</a>
</g>
</g>
<!-- Node1&#45;&gt;Node15 -->
<g id="edge23" class="edge">
<title>Node1&#45;&gt;Node15</title>
<path fill="none" stroke="midnightblue" d="M229.36,-392.47C246.8,-361.3 288.72,-286.41 307.78,-252.37"/>
<polygon fill="midnightblue" stroke="midnightblue" points="310.88,-254 312.71,-243.56 304.77,-250.58 310.88,-254"/>
</g>
<!-- Node3 -->
<g id="node3" class="node">
<title>Node3</title>
<g id="a_node3"><a xlink:href="MultiLedPattern_8h.html" target="_top" target="_top" xlink:title=" ">
<polygon fill="none" stroke="black" points="155.5,-280.5 155.5,-299.5 257.5,-299.5 257.5,-280.5 155.5,-280.5"/>
<text text-anchor="middle" x="206.5" y="-287.5" font-family="Helvetica,sans-Serif" font-size="10.00">MultiLedPattern.h</text>
</a>
</g>
</g>
<!-- Node2&#45;&gt;Node3 -->
<g id="edge2" class="edge">
<title>Node2&#45;&gt;Node3</title>
<path fill="none" stroke="midnightblue" d="M184.79,-336.08C188.35,-328.69 193.52,-317.95 197.92,-308.81"/>
<polygon fill="midnightblue" stroke="midnightblue" points="201.1,-310.28 202.29,-299.75 194.79,-307.24 201.1,-310.28"/>
</g>
<!-- Node5 -->
<g id="node5" class="node">
<title>Node5</title>
<g id="a_node5"><a xlink:href="LedTypes_8h.html" target="_top" target="_top" xlink:title=" ">
<polygon fill="none" stroke="black" points="25,-112.5 25,-131.5 130,-131.5 130,-112.5 25,-112.5"/>
<text text-anchor="middle" x="77.5" y="-119.5" font-family="Helvetica,sans-Serif" font-size="10.00">../Leds/LedTypes.h</text>
</a>
</g>
</g>
<!-- Node2&#45;&gt;Node5 -->
<g id="edge22" class="edge">
<title>Node2&#45;&gt;Node5</title>
<path fill="none" stroke="midnightblue" d="M172.43,-336.34C164.79,-327.72 153.47,-313.81 146.5,-300 118.95,-245.38 133.43,-223.41 107.5,-168 102.93,-158.24 96.43,-148.18 90.64,-140.06"/>
<polygon fill="midnightblue" stroke="midnightblue" points="93.32,-137.79 84.56,-131.83 87.69,-141.95 93.32,-137.79"/>
</g>
<!-- Node14 -->
<g id="node14" class="node">
<title>Node14</title>
<g id="a_node14"><a xlink:href="Timer_8h.html" target="_top" target="_top" xlink:title=" ">
<polygon fill="none" stroke="black" points="0,-168.5 0,-187.5 99,-187.5 99,-168.5 0,-168.5"/>
<text text-anchor="middle" x="49.5" y="-175.5" font-family="Helvetica,sans-Serif" font-size="10.00">../../Time/Timer.h</text>
</a>
</g>
</g>
<!-- Node2&#45;&gt;Node14 -->
<g id="edge19" class="edge">
<title>Node2&#45;&gt;Node14</title>
<path fill="none" stroke="midnightblue" d="M163.08,-336.44C148.42,-328.56 127.66,-315.73 113.5,-300 85.26,-268.63 65.4,-222.54 55.88,-197.26"/>
<polygon fill="midnightblue" stroke="midnightblue" points="59.15,-196 52.44,-187.8 52.57,-198.4 59.15,-196"/>
</g>
<!-- Node4 -->
<g id="node4" class="node">
<title>Node4</title>
<g id="a_node4"><a xlink:href="Pattern_8h.html" target="_top" target="_top" xlink:title=" ">
<polygon fill="none" stroke="black" points="172,-224.5 172,-243.5 241,-243.5 241,-224.5 172,-224.5"/>
<text text-anchor="middle" x="206.5" y="-231.5" font-family="Helvetica,sans-Serif" font-size="10.00">../Pattern.h</text>
</a>
</g>
</g>
<!-- Node3&#45;&gt;Node4 -->
<g id="edge3" class="edge">
<title>Node3&#45;&gt;Node4</title>
<path fill="none" stroke="midnightblue" d="M206.5,-280.08C206.5,-273.01 206.5,-262.86 206.5,-253.99"/>
<polygon fill="midnightblue" stroke="midnightblue" points="210,-253.75 206.5,-243.75 203,-253.75 210,-253.75"/>
</g>
<!-- Node4&#45;&gt;Node5 -->
<g id="edge4" class="edge">
<title>Node4&#45;&gt;Node5</title>
<path fill="none" stroke="midnightblue" d="M198.53,-224.1C186.69,-211.11 163.49,-186.49 141.5,-168 128.28,-156.89 112.41,-145.71 99.78,-137.28"/>
<polygon fill="midnightblue" stroke="midnightblue" points="101.51,-134.23 91.23,-131.66 97.67,-140.08 101.51,-134.23"/>
</g>
<!-- Node10 -->
<g id="node10" class="node">
<title>Node10</title>
<g id="a_node10"><a xlink:href="Colorset_8h.html" target="_top" target="_top" xlink:title=" ">
<polygon fill="none" stroke="black" points="379,-168.5 379,-187.5 488,-187.5 488,-168.5 379,-168.5"/>
<text text-anchor="middle" x="433.5" y="-175.5" font-family="Helvetica,sans-Serif" font-size="10.00">../Colors/Colorset.h</text>
</a>
</g>
</g>
<!-- Node4&#45;&gt;Node10 -->
<g id="edge9" class="edge">
<title>Node4&#45;&gt;Node10</title>
<path fill="none" stroke="midnightblue" d="M241.47,-224.68C280.73,-215.34 344.58,-200.15 387.77,-189.88"/>
<polygon fill="midnightblue" stroke="midnightblue" points="388.82,-193.23 397.74,-187.51 387.2,-186.42 388.82,-193.23"/>
</g>
<!-- Node12 -->
<g id="node12" class="node">
<title>Node12</title>
<g id="a_node12"><a xlink:href="Patterns_8h.html" target="_top" target="_top" xlink:title=" ">
<polygon fill="none" stroke="black" points="148,-112.5 148,-131.5 213,-131.5 213,-112.5 148,-112.5"/>
<text text-anchor="middle" x="180.5" y="-119.5" font-family="Helvetica,sans-Serif" font-size="10.00">Patterns.h</text>
</a>
</g>
</g>
<!-- Node4&#45;&gt;Node12 -->
<g id="edge15" class="edge">
<title>Node4&#45;&gt;Node12</title>
<path fill="none" stroke="midnightblue" d="M204.46,-224.37C200.26,-206.62 190.58,-165.67 184.9,-141.6"/>
<polygon fill="midnightblue" stroke="midnightblue" points="188.24,-140.52 182.53,-131.59 181.42,-142.13 188.24,-140.52"/>
</g>
<!-- Node13 -->
<g id="node13" class="node">
<title>Node13</title>
<g id="a_node13"><a xlink:href="PatternArgs_8h.html" target="_top" target="_top" xlink:title=" ">
<polygon fill="none" stroke="black" points="231.5,-112.5 231.5,-131.5 313.5,-131.5 313.5,-112.5 231.5,-112.5"/>
<text text-anchor="middle" x="272.5" y="-119.5" font-family="Helvetica,sans-Serif" font-size="10.00">PatternArgs.h</text>
</a>
</g>
</g>
<!-- Node4&#45;&gt;Node13 -->
<g id="edge17" class="edge">
<title>Node4&#45;&gt;Node13</title>
<path fill="none" stroke="midnightblue" d="M211.68,-224.37C222.52,-206.3 247.79,-164.18 262.12,-140.31"/>
<polygon fill="midnightblue" stroke="midnightblue" points="265.2,-141.97 267.35,-131.59 259.2,-138.37 265.2,-141.97"/>
</g>
<!-- Node6 -->
<g id="node6" class="node">
<title>Node6</title>
<g id="a_node6"><a xlink:title=" ">
<polygon fill="none" stroke="#bfbfbf" points="194,-56.5 194,-75.5 259,-75.5 259,-56.5 194,-56.5"/>
<text text-anchor="middle" x="226.5" y="-63.5" font-family="Helvetica,sans-Serif" font-size="10.00">inttypes.h</text>
</a>
</g>
</g>
<!-- Node5&#45;&gt;Node6 -->
<g id="edge5" class="edge">
<title>Node5&#45;&gt;Node6</title>
<path fill="none" stroke="midnightblue" d="M101.11,-112.44C125.96,-103.44 165.27,-89.19 193.25,-79.05"/>
<polygon fill="midnightblue" stroke="midnightblue" points="194.79,-82.21 203,-75.52 192.41,-75.63 194.79,-82.21"/>
</g>
<!-- Node7 -->
<g id="node7" class="node">
<title>Node7</title>
<g id="a_node7"><a xlink:title=" ">
<polygon fill="none" stroke="#bfbfbf" points="49.5,-56.5 49.5,-75.5 105.5,-75.5 105.5,-56.5 49.5,-56.5"/>
<text text-anchor="middle" x="77.5" y="-63.5" font-family="Helvetica,sans-Serif" font-size="10.00">stdarg.h</text>
</a>
</g>
</g>
<!-- Node5&#45;&gt;Node7 -->
<g id="edge6" class="edge">
<title>Node5&#45;&gt;Node7</title>
<path fill="none" stroke="midnightblue" d="M77.5,-112.08C77.5,-105.01 77.5,-94.86 77.5,-85.99"/>
<polygon fill="midnightblue" stroke="midnightblue" points="81,-85.75 77.5,-75.75 74,-85.75 81,-85.75"/>
</g>
<!-- Node8 -->
<g id="node8" class="node">
<title>Node8</title>
<g id="a_node8"><a xlink:href="VortexConfig_8h.html" target="_top" target="_top" xlink:title=" ">
<polygon fill="none" stroke="black" points="433,-56.5 433,-75.5 530,-75.5 530,-56.5 433,-56.5"/>
<text text-anchor="middle" x="481.5" y="-63.5" font-family="Helvetica,sans-Serif" font-size="10.00">../VortexConfig.h</text>
</a>
</g>
</g>
<!-- Node5&#45;&gt;Node8 -->
<g id="edge7" class="edge">
<title>Node5&#45;&gt;Node8</title>
<path fill="none" stroke="midnightblue" d="M130.26,-113.29C133.38,-112.85 136.48,-112.42 139.5,-112 238.81,-98.26 354.48,-83.25 422.65,-74.5"/>
<polygon fill="midnightblue" stroke="midnightblue" points="423.29,-77.95 432.77,-73.2 422.4,-71 423.29,-77.95"/>
</g>
<!-- Node9 -->
<g id="node9" class="node">
<title>Node9</title>
<g id="a_node9"><a xlink:href="ColorConstants_8h.html" target="_top" target="_top" xlink:title=" ">
<polygon fill="none" stroke="black" points="375.5,-0.5 375.5,-19.5 509.5,-19.5 509.5,-0.5 375.5,-0.5"/>
<text text-anchor="middle" x="442.5" y="-7.5" font-family="Helvetica,sans-Serif" font-size="10.00">Colors/ColorConstants.h</text>
</a>
</g>
</g>
<!-- Node8&#45;&gt;Node9 -->
<g id="edge8" class="edge">
<title>Node8&#45;&gt;Node9</title>
<path fill="none" stroke="midnightblue" d="M475.06,-56.08C469.55,-48.46 461.47,-37.26 454.74,-27.94"/>
<polygon fill="midnightblue" stroke="midnightblue" points="457.51,-25.81 448.82,-19.75 451.84,-29.91 457.51,-25.81"/>
</g>
<!-- Node10&#45;&gt;Node8 -->
<g id="edge14" class="edge">
<title>Node10&#45;&gt;Node8</title>
<path fill="none" stroke="midnightblue" d="M451.89,-168.47C465.6,-161 483.31,-148.71 491.5,-132 498.63,-117.44 494.77,-99.03 489.92,-85.52"/>
<polygon fill="midnightblue" stroke="midnightblue" points="493.02,-83.85 486.01,-75.9 486.54,-86.49 493.02,-83.85"/>
</g>
<!-- Node11 -->
<g id="node11" class="node">
<title>Node11</title>
<g id="a_node11"><a xlink:href="ColorTypes_8h.html" target="_top" target="_top" xlink:title=" ">
<polygon fill="none" stroke="black" points="370,-112.5 370,-131.5 449,-131.5 449,-112.5 370,-112.5"/>
<text text-anchor="middle" x="409.5" y="-119.5" font-family="Helvetica,sans-Serif" font-size="10.00">ColorTypes.h</text>
</a>
</g>
</g>
<!-- Node10&#45;&gt;Node11 -->
<g id="edge10" class="edge">
<title>Node10&#45;&gt;Node11</title>
<path fill="none" stroke="midnightblue" d="M429.54,-168.08C426.29,-160.77 421.58,-150.18 417.55,-141.1"/>
<polygon fill="midnightblue" stroke="midnightblue" points="420.65,-139.47 413.39,-131.75 414.25,-142.31 420.65,-139.47"/>
</g>
<!-- Node11&#45;&gt;Node6 -->
<g id="edge11" class="edge">
<title>Node11&#45;&gt;Node6</title>
<path fill="none" stroke="midnightblue" d="M380.5,-112.44C349.32,-103.24 299.57,-88.56 265.09,-78.39"/>
<polygon fill="midnightblue" stroke="midnightblue" points="265.94,-74.99 255.36,-75.52 263.96,-81.7 265.94,-74.99"/>
</g>
<!-- Node11&#45;&gt;Node8 -->
<g id="edge12" class="edge">
<title>Node11&#45;&gt;Node8</title>
<path fill="none" stroke="midnightblue" d="M421.07,-112.32C431.92,-104.18 448.38,-91.84 461.38,-82.09"/>
<polygon fill="midnightblue" stroke="midnightblue" points="463.82,-84.63 469.72,-75.83 459.62,-79.03 463.82,-84.63"/>
</g>
<!-- Node11&#45;&gt;Node9 -->
<g id="edge13" class="edge">
<title>Node11&#45;&gt;Node9</title>
<path fill="none" stroke="midnightblue" d="M411.03,-112.47C413.38,-99.95 418.27,-75.89 424.5,-56 427.33,-46.97 431.15,-37.18 434.54,-29.05"/>
<polygon fill="midnightblue" stroke="midnightblue" points="437.78,-30.39 438.5,-19.82 431.34,-27.63 437.78,-30.39"/>
</g>
<!-- Node12&#45;&gt;Node6 -->
<g id="edge16" class="edge">
<title>Node12&#45;&gt;Node6</title>
<path fill="none" stroke="midnightblue" d="M188.1,-112.08C194.73,-104.3 204.52,-92.8 212.56,-83.37"/>
<polygon fill="midnightblue" stroke="midnightblue" points="215.23,-85.63 219.05,-75.75 209.9,-81.09 215.23,-85.63"/>
</g>
<!-- Node13&#45;&gt;Node6 -->
<g id="edge18" class="edge">
<title>Node13&#45;&gt;Node6</title>
<path fill="none" stroke="midnightblue" d="M264.9,-112.08C258.27,-104.3 248.48,-92.8 240.44,-83.37"/>
<polygon fill="midnightblue" stroke="midnightblue" points="243.1,-81.09 233.95,-75.75 237.77,-85.63 243.1,-81.09"/>
</g>
<!-- Node14&#45;&gt;Node5 -->
<g id="edge21" class="edge">
<title>Node14&#45;&gt;Node5</title>
<path fill="none" stroke="midnightblue" d="M54.12,-168.08C57.96,-160.69 63.52,-149.95 68.26,-140.81"/>
<polygon fill="midnightblue" stroke="midnightblue" points="71.47,-142.24 72.96,-131.75 65.25,-139.02 71.47,-142.24"/>
</g>
<!-- Node14&#45;&gt;Node6 -->
<g id="edge20" class="edge">
<title>Node14&#45;&gt;Node6</title>
<path fill="none" stroke="midnightblue" d="M38.96,-168.36C24.26,-155.27 0.92,-130.02 15.5,-112 36.2,-86.42 127.85,-74.76 183.33,-69.96"/>
<polygon fill="midnightblue" stroke="midnightblue" points="183.9,-73.42 193.58,-69.11 183.32,-66.45 183.9,-73.42"/>
</g>
<!-- Node15&#45;&gt;Node8 -->
<g id="edge28" class="edge">
<title>Node15&#45;&gt;Node8</title>
<path fill="none" stroke="midnightblue" d="M372.92,-225.89C419.4,-218.76 480.78,-206.21 497.5,-188 520.5,-162.94 515.03,-144.93 506.5,-112 503.95,-102.18 498.75,-92.21 493.74,-84.17"/>
<polygon fill="midnightblue" stroke="midnightblue" points="496.58,-82.11 488.13,-75.73 490.75,-85.99 496.58,-82.11"/>
</g>
<!-- Node16 -->
<g id="node16" class="node">
<title>Node16</title>
<g id="a_node16"><a xlink:href="TimeControl_8h.html" target="_top" target="_top" xlink:title=" ">
<polygon fill="none" stroke="black" points="274.5,-168.5 274.5,-187.5 360.5,-187.5 360.5,-168.5 274.5,-168.5"/>
<text text-anchor="middle" x="317.5" y="-175.5" font-family="Helvetica,sans-Serif" font-size="10.00">TimeControl.h</text>
</a>
</g>
</g>
<!-- Node15&#45;&gt;Node16 -->
<g id="edge24" class="edge">
<title>Node15&#45;&gt;Node16</title>
<path fill="none" stroke="midnightblue" d="M317.5,-224.08C317.5,-217.01 317.5,-206.86 317.5,-197.99"/>
<polygon fill="midnightblue" stroke="midnightblue" points="321,-197.75 317.5,-187.75 314,-197.75 321,-197.75"/>
</g>
<!-- Node16&#45;&gt;Node5 -->
<g id="edge27" class="edge">
<title>Node16&#45;&gt;Node5</title>
<path fill="none" stroke="midnightblue" d="M279.47,-168.44C237.69,-159.04 170.52,-143.93 125.23,-133.74"/>
<polygon fill="midnightblue" stroke="midnightblue" points="125.88,-130.3 115.35,-131.52 124.34,-137.13 125.88,-130.3"/>
</g>
<!-- Node16&#45;&gt;Node6 -->
<g id="edge25" class="edge">
<title>Node16&#45;&gt;Node6</title>
<path fill="none" stroke="midnightblue" d="M321.28,-168.2C326.36,-154.9 333.55,-129.38 322.5,-112 310.67,-93.4 288.9,-82.35 269.08,-75.86"/>
<polygon fill="midnightblue" stroke="midnightblue" points="269.84,-72.44 259.25,-72.95 267.85,-79.15 269.84,-72.44"/>
</g>
<!-- Node16&#45;&gt;Node8 -->
<g id="edge26" class="edge">
<title>Node16&#45;&gt;Node8</title>
<path fill="none" stroke="midnightblue" d="M357.26,-168.48C393.63,-159.96 443.92,-146.13 458.5,-132 470.98,-119.9 476.7,-100.62 479.32,-86.19"/>
<polygon fill="midnightblue" stroke="midnightblue" points="482.84,-86.3 480.82,-75.89 475.91,-85.29 482.84,-86.3"/>
</g>
</g>
</svg>
        <g id="navigator" transform="translate(0 0)" fill="#404254">
                <rect fill="#f2f5e9" fill-opacity="0.5" stroke="#606060" stroke-width=".5" x="0" y="0" width="60" height="60"/>
                <use id="zoomplus" xlink:href="#zoomPlus" target="_top" x="17" y="9" onmousedown="handleZoom(evt,'in')"/>
                <use id="zoomminus" xlink:href="#zoomMin" target="_top" x="42" y="9" onmousedown="handleZoom(evt,'out')"/>
                <use id="reset" xlink:href="#resetDef" target="_top" x="30" y="36" onmousedown="handleReset()"/>
                <g id="arrowUp" xlink:href="#dirArrow" target="_top" transform="translate(30 24)" onmousedown="handlePan(0,-1)">
                  <use xlink:href="#rim" target="_top" fill="#404040">
                        <set attributeName="fill" to="#808080" begin="arrowUp.mouseover" end="arrowUp.mouseout"/>
                  </use>
                  <path fill="none" stroke="white" stroke-width="1.5" d="M0,-3.0v7 M-2.5,-0.5L0,-3.0L2.5,-0.5"/>
                </g>
                <g id="arrowRight" xlink:href="#dirArrow" target="_top" transform="rotate(90) translate(36 -43)" onmousedown="handlePan(1,0)">
                  <use xlink:href="#rim" target="_top" fill="#404040">
                        <set attributeName="fill" to="#808080" begin="arrowRight.mouseover" end="arrowRight.mouseout"/>
                  </use>
                  <path fill="none" stroke="white" stroke-width="1.5" d="M0,-3.0v7 M-2.5,-0.5L0,-3.0L2.5,-0.5"/>
                </g>
                <g id="arrowDown" xlink:href="#dirArrow" target="_top" transform="rotate(180) translate(-30 -48)" onmousedown="handlePan(0,1)">
                  <use xlink:href="#rim" target="_top" fill="#404040">
                        <set attributeName="fill" to="#808080" begin="arrowDown.mouseover" end="arrowDown.mouseout"/>
                  </use>
                  <path fill="none" stroke="white" stroke-width="1.5" d="M0,-3.0v7 M-2.5,-0.5L0,-3.0L2.5,-0.5"/>
                </g>
                <g id="arrowLeft" xlink:href="#dirArrow" target="_top" transform="rotate(270) translate(-36 17)" onmousedown="handlePan(-1,0)">
                  <use xlink:href="#rim" target="_top" fill="#404040">
                        <set attributeName="fill" to="#808080" begin="arrowLeft.mouseover" end="arrowLeft.mouseout"/>
                  </use>
                  <path fill="none" stroke="white" stroke-width="1.5" d="M0,-3.0v7 M-2.5,-0.5L0,-3.0L2.5,-0.5"/>
                </g>
        </g>
        <svg viewBox="0 0 15 15" width="100%" height="30px" preserveAspectRatio="xMaxYMin meet">
         <g id="arrow_out" transform="scale(0.3 0.3)">
          <a xlink:href="DoubleStrobePattern_8h__incl_org.svg" target="_top" target="_base">
           <rect id="button" ry="5" rx="5" y="6" x="6" height="38" width="38"
                fill="#f2f5e9" fill-opacity="0.5" stroke="#606060" stroke-width="1.0"/>
           <path id="arrow"
             d="M 11.500037,31.436501 C 11.940474,20.09759 22.043105,11.32322 32.158766,21.979434 L 37.068811,17.246167 C 37.068811,17.246167 37.088388,32 37.088388,32 L 22.160133,31.978069 C 22.160133,31.978069 26.997745,27.140456 26.997745,27.140456 C 18.528582,18.264221 13.291696,25.230495 11.500037,31.436501 z"
             style="fill:#404040;"/>
          </a>
         </g>
        </svg>
</svg>
