<?xml version="1.0" encoding="UTF-8" standalone="no"?>
<!DOCTYPE svg PUBLIC "-//W3C//DTD SVG 1.1//EN"
 "http://www.w3.org/Graphics/SVG/1.1/DTD/svg11.dtd">
<!-- Generated by graphviz version 2.43.0 (0)
 -->
<!-- Title: VortexEngine/src/Patterns/Multi/DripMorphPattern.cpp Pages: 1 -->
<!--zoomable 431 -->
<svg id="main" version="1.1" xmlns="http://www.w3.org/2000/svg" xmlns:xlink="http://www.w3.org/1999/xlink" xml:space="preserve" onload="init(evt)">
<style type="text/css"><![CDATA[
.edge:hover path { stroke: red; }
.edge:hover polygon { stroke: red; fill: red; }
]]></style>
<script type="text/javascript"><![CDATA[
var edges = document.getElementsByTagName('g');
if (edges && edges.length) {
  for (var i=0;i<edges.length;i++) {
    if (edges[i].id.substr(0,4)=='edge') {
      edges[i].setAttribute('class','edge');
    }
  }
}
]]></script>
        <defs>
                <circle id="rim" cx="0" cy="0" r="7"/>
                <circle id="rim2" cx="0" cy="0" r="3.5"/>
                <g id="zoomPlus">
                        <use xlink:href="#rim" fill="#404040">
                                <set attributeName="fill" to="#808080" begin="zoomplus.mouseover" end="zoomplus.mouseout"/>
                        </use>
                        <path d="M-4,0h8M0,-4v8" fill="none" stroke="white" stroke-width="1.5" pointer-events="none"/>
                </g>
                <g id="zoomMin">
                        <use xlink:href="#rim" fill="#404040">
                                <set attributeName="fill" to="#808080" begin="zoomminus.mouseover" end="zoomminus.mouseout"/>
                        </use>
                        <path d="M-4,0h8" fill="none" stroke="white" stroke-width="1.5" pointer-events="none"/>
                </g>
                <g id="dirArrow">
                        <path fill="none" stroke="white" stroke-width="1.5" d="M0,-3.0v7 M-2.5,-0.5L0,-3.0L2.5,-0.5"/>
                </g>
               <g id="resetDef">
                       <use xlink:href="#rim2" fill="#404040">
                               <set attributeName="fill" to="#808080" begin="reset.mouseover" end="reset.mouseout"/>
                       </use>
               </g>
        </defs>

<script type="text/javascript">
var viewWidth = 802;
var viewHeight = 431;
var sectionId = 'dynsection-0';
</script>
<script xlink:href="svgpan.js"/>
<svg id="graph" class="graph">
<g id="viewport">
<title>VortexEngine/src/Patterns/Multi/DripMorphPattern.cpp</title>
<!-- Node1 -->
<g id="node1" class="node">
<title>Node1</title>
<g id="a_node1"><a xlink:title=" ">
<polygon fill="#bfbfbf" stroke="black" points="495,-392.5 495,-422.5 648,-422.5 648,-392.5 495,-392.5"/>
<text text-anchor="start" x="503" y="-410.5" font-family="Helvetica,sans-Serif" font-size="10.00">VortexEngine/src/Patterns</text>
<text text-anchor="middle" x="571.5" y="-399.5" font-family="Helvetica,sans-Serif" font-size="10.00">/Multi/DripMorphPattern.cpp</text>
</a>
</g>
</g>
<!-- Node2 -->
<g id="node2" class="node">
<title>Node2</title>
<g id="a_node2"><a xlink:href="DripMorphPattern_8h.html" target="_top" xlink:title=" ">
<polygon fill="none" stroke="black" points="400,-336.5 400,-355.5 511,-355.5 511,-336.5 400,-336.5"/>
<text text-anchor="middle" x="455.5" y="-343.5" font-family="Helvetica,sans-Serif" font-size="10.00">DripMorphPattern.h</text>
</a>
</g>
</g>
<!-- Node1&#45;&gt;Node2 -->
<g id="edge1" class="edge">
<title>Node1&#45;&gt;Node2</title>
<path fill="none" stroke="midnightblue" d="M544.01,-392.4C525.07,-382.68 500.06,-369.86 481.46,-360.31"/>
<polygon fill="midnightblue" stroke="midnightblue" points="482.87,-357.11 472.38,-355.66 479.68,-363.34 482.87,-357.11"/>
</g>
<!-- Node17 -->
<g id="node17" class="node">
<title>Node17</title>
<g id="a_node17"><a xlink:href="ByteStream_8h.html" target="_top" xlink:title=" ">
<polygon fill="none" stroke="black" points="633.5,-168.5 633.5,-187.5 765.5,-187.5 765.5,-168.5 633.5,-168.5"/>
<text text-anchor="middle" x="699.5" y="-175.5" font-family="Helvetica,sans-Serif" font-size="10.00">../../Serial/ByteStream.h</text>
</a>
</g>
</g>
<!-- Node1&#45;&gt;Node17 -->
<g id="edge28" class="edge">
<title>Node1&#45;&gt;Node17</title>
<path fill="none" stroke="midnightblue" d="M579.51,-392.27C601.85,-352.56 664.84,-240.61 689.46,-196.85"/>
<polygon fill="midnightblue" stroke="midnightblue" points="692.62,-198.36 694.48,-187.93 686.52,-194.93 692.62,-198.36"/>
</g>
<!-- Node18 -->
<g id="node18" class="node">
<title>Node18</title>
<g id="a_node18"><a xlink:href="Log_8h.html" target="_top" xlink:title=" ">
<polygon fill="none" stroke="black" points="671.5,-112.5 671.5,-131.5 743.5,-131.5 743.5,-112.5 671.5,-112.5"/>
<text text-anchor="middle" x="707.5" y="-119.5" font-family="Helvetica,sans-Serif" font-size="10.00">../Log/Log.h</text>
</a>
</g>
</g>
<!-- Node1&#45;&gt;Node18 -->
<g id="edge37" class="edge">
<title>Node1&#45;&gt;Node18</title>
<path fill="none" stroke="midnightblue" d="M648.21,-398.14C712.38,-386.39 793.5,-358.23 793.5,-291 793.5,-291 793.5,-291 793.5,-233 793.5,-202.9 792.28,-192.29 774.5,-168 764.68,-154.59 749.58,-143.94 736.19,-136.38"/>
<polygon fill="midnightblue" stroke="midnightblue" points="737.76,-133.25 727.29,-131.64 734.47,-139.43 737.76,-133.25"/>
</g>
<!-- Node19 -->
<g id="node19" class="node">
<title>Node19</title>
<g id="a_node19"><a xlink:href="Leds_8h.html" target="_top" xlink:title=" ">
<polygon fill="none" stroke="black" points="98.5,-168.5 98.5,-187.5 190.5,-187.5 190.5,-168.5 98.5,-168.5"/>
<text text-anchor="middle" x="144.5" y="-175.5" font-family="Helvetica,sans-Serif" font-size="10.00">../../Leds/Leds.h</text>
</a>
</g>
</g>
<!-- Node1&#45;&gt;Node19 -->
<g id="edge33" class="edge">
<title>Node1&#45;&gt;Node19</title>
<path fill="none" stroke="midnightblue" d="M494.86,-394.51C425.48,-380.74 323.02,-352.87 248.5,-300 207.43,-270.87 172.25,-222.1 155.3,-196.27"/>
<polygon fill="midnightblue" stroke="midnightblue" points="158.07,-194.11 149.72,-187.58 152.18,-197.89 158.07,-194.11"/>
</g>
<!-- Node3 -->
<g id="node3" class="node">
<title>Node3</title>
<g id="a_node3"><a xlink:href="MultiLedPattern_8h.html" target="_top" xlink:title=" ">
<polygon fill="none" stroke="black" points="257.5,-280.5 257.5,-299.5 359.5,-299.5 359.5,-280.5 257.5,-280.5"/>
<text text-anchor="middle" x="308.5" y="-287.5" font-family="Helvetica,sans-Serif" font-size="10.00">MultiLedPattern.h</text>
</a>
</g>
</g>
<!-- Node2&#45;&gt;Node3 -->
<g id="edge2" class="edge">
<title>Node2&#45;&gt;Node3</title>
<path fill="none" stroke="midnightblue" d="M432.21,-336.44C407.69,-327.44 368.9,-313.19 341.3,-303.05"/>
<polygon fill="midnightblue" stroke="midnightblue" points="342.28,-299.68 331.68,-299.52 339.86,-306.25 342.28,-299.68"/>
</g>
<!-- Node14 -->
<g id="node14" class="node">
<title>Node14</title>
<g id="a_node14"><a xlink:href="Timer_8h.html" target="_top" xlink:title=" ">
<polygon fill="none" stroke="black" points="336,-168.5 336,-187.5 435,-187.5 435,-168.5 336,-168.5"/>
<text text-anchor="middle" x="385.5" y="-175.5" font-family="Helvetica,sans-Serif" font-size="10.00">../../Time/Timer.h</text>
</a>
</g>
</g>
<!-- Node2&#45;&gt;Node14 -->
<g id="edge19" class="edge">
<title>Node2&#45;&gt;Node14</title>
<path fill="none" stroke="midnightblue" d="M451.74,-336.08C440.67,-309.83 408.08,-232.55 393.14,-197.12"/>
<polygon fill="midnightblue" stroke="midnightblue" points="396.22,-195.42 389.11,-187.57 389.77,-198.14 396.22,-195.42"/>
</g>
<!-- Node15 -->
<g id="node15" class="node">
<title>Node15</title>
<g id="a_node15"><a xlink:href="Timings_8h.html" target="_top" xlink:title=" ">
<polygon fill="none" stroke="black" points="479.5,-224.5 479.5,-243.5 589.5,-243.5 589.5,-224.5 479.5,-224.5"/>
<text text-anchor="middle" x="534.5" y="-231.5" font-family="Helvetica,sans-Serif" font-size="10.00">../../Time/Timings.h</text>
</a>
</g>
</g>
<!-- Node2&#45;&gt;Node15 -->
<g id="edge22" class="edge">
<title>Node2&#45;&gt;Node15</title>
<path fill="none" stroke="midnightblue" d="M461.7,-336.37C474.74,-318.22 505.2,-275.8 522.3,-251.99"/>
<polygon fill="midnightblue" stroke="midnightblue" points="525.34,-253.76 528.33,-243.59 519.65,-249.67 525.34,-253.76"/>
</g>
<!-- Node4 -->
<g id="node4" class="node">
<title>Node4</title>
<g id="a_node4"><a xlink:href="Pattern_8h.html" target="_top" xlink:title=" ">
<polygon fill="none" stroke="black" points="229,-224.5 229,-243.5 298,-243.5 298,-224.5 229,-224.5"/>
<text text-anchor="middle" x="263.5" y="-231.5" font-family="Helvetica,sans-Serif" font-size="10.00">../Pattern.h</text>
</a>
</g>
</g>
<!-- Node3&#45;&gt;Node4 -->
<g id="edge3" class="edge">
<title>Node3&#45;&gt;Node4</title>
<path fill="none" stroke="midnightblue" d="M301.07,-280.08C294.65,-272.38 285.19,-261.03 277.38,-251.65"/>
<polygon fill="midnightblue" stroke="midnightblue" points="279.88,-249.19 270.79,-243.75 274.51,-253.67 279.88,-249.19"/>
</g>
<!-- Node5 -->
<g id="node5" class="node">
<title>Node5</title>
<g id="a_node5"><a xlink:href="LedTypes_8h.html" target="_top" xlink:title=" ">
<polygon fill="none" stroke="black" points="396,-112.5 396,-131.5 501,-131.5 501,-112.5 396,-112.5"/>
<text text-anchor="middle" x="448.5" y="-119.5" font-family="Helvetica,sans-Serif" font-size="10.00">../Leds/LedTypes.h</text>
</a>
</g>
</g>
<!-- Node4&#45;&gt;Node5 -->
<g id="edge4" class="edge">
<title>Node4&#45;&gt;Node5</title>
<path fill="none" stroke="midnightblue" d="M298.14,-229.23C345.31,-223.33 426.01,-210.21 444.5,-188 455,-175.38 454.88,-156.17 452.8,-141.9"/>
<polygon fill="midnightblue" stroke="midnightblue" points="456.18,-140.92 450.89,-131.74 449.3,-142.21 456.18,-140.92"/>
</g>
<!-- Node10 -->
<g id="node10" class="node">
<title>Node10</title>
<g id="a_node10"><a xlink:href="Colorset_8h.html" target="_top" xlink:title=" ">
<polygon fill="none" stroke="black" points="209,-168.5 209,-187.5 318,-187.5 318,-168.5 209,-168.5"/>
<text text-anchor="middle" x="263.5" y="-175.5" font-family="Helvetica,sans-Serif" font-size="10.00">../Colors/Colorset.h</text>
</a>
</g>
</g>
<!-- Node4&#45;&gt;Node10 -->
<g id="edge9" class="edge">
<title>Node4&#45;&gt;Node10</title>
<path fill="none" stroke="midnightblue" d="M263.5,-224.08C263.5,-217.01 263.5,-206.86 263.5,-197.99"/>
<polygon fill="midnightblue" stroke="midnightblue" points="267,-197.75 263.5,-187.75 260,-197.75 267,-197.75"/>
</g>
<!-- Node12 -->
<g id="node12" class="node">
<title>Node12</title>
<g id="a_node12"><a xlink:href="Patterns_8h.html" target="_top" xlink:title=" ">
<polygon fill="none" stroke="black" points="0,-112.5 0,-131.5 65,-131.5 65,-112.5 0,-112.5"/>
<text text-anchor="middle" x="32.5" y="-119.5" font-family="Helvetica,sans-Serif" font-size="10.00">Patterns.h</text>
</a>
</g>
</g>
<!-- Node4&#45;&gt;Node12 -->
<g id="edge15" class="edge">
<title>Node4&#45;&gt;Node12</title>
<path fill="none" stroke="midnightblue" d="M228.9,-231.3C190.11,-227.92 126.72,-217.86 81.5,-188 63.68,-176.23 49.82,-155.71 41.46,-140.86"/>
<polygon fill="midnightblue" stroke="midnightblue" points="44.36,-138.86 36.57,-131.67 38.18,-142.14 44.36,-138.86"/>
</g>
<!-- Node13 -->
<g id="node13" class="node">
<title>Node13</title>
<g id="a_node13"><a xlink:href="PatternArgs_8h.html" target="_top" xlink:title=" ">
<polygon fill="none" stroke="black" points="83.5,-112.5 83.5,-131.5 165.5,-131.5 165.5,-112.5 83.5,-112.5"/>
<text text-anchor="middle" x="124.5" y="-119.5" font-family="Helvetica,sans-Serif" font-size="10.00">PatternArgs.h</text>
</a>
</g>
</g>
<!-- Node4&#45;&gt;Node13 -->
<g id="edge17" class="edge">
<title>Node4&#45;&gt;Node13</title>
<path fill="none" stroke="midnightblue" d="M228.85,-229.03C183.11,-222.99 106.41,-209.83 89.5,-188 77.45,-172.44 92.45,-152.16 106.38,-138.42"/>
<polygon fill="midnightblue" stroke="midnightblue" points="108.87,-140.89 113.84,-131.53 104.12,-135.75 108.87,-140.89"/>
</g>
<!-- Node6 -->
<g id="node6" class="node">
<title>Node6</title>
<g id="a_node6"><a xlink:title=" ">
<polygon fill="none" stroke="#bfbfbf" points="294,-56.5 294,-75.5 359,-75.5 359,-56.5 294,-56.5"/>
<text text-anchor="middle" x="326.5" y="-63.5" font-family="Helvetica,sans-Serif" font-size="10.00">inttypes.h</text>
</a>
</g>
</g>
<!-- Node5&#45;&gt;Node6 -->
<g id="edge5" class="edge">
<title>Node5&#45;&gt;Node6</title>
<path fill="none" stroke="midnightblue" d="M429.17,-112.44C409.18,-103.6 377.76,-89.69 354.94,-79.59"/>
<polygon fill="midnightblue" stroke="midnightblue" points="356.3,-76.36 345.74,-75.52 353.47,-82.76 356.3,-76.36"/>
</g>
<!-- Node7 -->
<g id="node7" class="node">
<title>Node7</title>
<g id="a_node7"><a xlink:title=" ">
<polygon fill="none" stroke="#bfbfbf" points="597.5,-56.5 597.5,-75.5 653.5,-75.5 653.5,-56.5 597.5,-56.5"/>
<text text-anchor="middle" x="625.5" y="-63.5" font-family="Helvetica,sans-Serif" font-size="10.00">stdarg.h</text>
</a>
</g>
</g>
<!-- Node5&#45;&gt;Node7 -->
<g id="edge6" class="edge">
<title>Node5&#45;&gt;Node7</title>
<path fill="none" stroke="midnightblue" d="M476.55,-112.44C506.58,-103.28 554.41,-88.69 587.74,-78.52"/>
<polygon fill="midnightblue" stroke="midnightblue" points="589.04,-81.78 597.59,-75.52 587,-75.09 589.04,-81.78"/>
</g>
<!-- Node8 -->
<g id="node8" class="node">
<title>Node8</title>
<g id="a_node8"><a xlink:href="VortexConfig_8h.html" target="_top" xlink:title=" ">
<polygon fill="none" stroke="black" points="400,-56.5 400,-75.5 497,-75.5 497,-56.5 400,-56.5"/>
<text text-anchor="middle" x="448.5" y="-63.5" font-family="Helvetica,sans-Serif" font-size="10.00">../VortexConfig.h</text>
</a>
</g>
</g>
<!-- Node5&#45;&gt;Node8 -->
<g id="edge7" class="edge">
<title>Node5&#45;&gt;Node8</title>
<path fill="none" stroke="midnightblue" d="M448.5,-112.08C448.5,-105.01 448.5,-94.86 448.5,-85.99"/>
<polygon fill="midnightblue" stroke="midnightblue" points="452,-85.75 448.5,-75.75 445,-85.75 452,-85.75"/>
</g>
<!-- Node9 -->
<g id="node9" class="node">
<title>Node9</title>
<g id="a_node9"><a xlink:href="ColorConstants_8h.html" target="_top" xlink:title=" ">
<polygon fill="none" stroke="black" points="288.5,-0.5 288.5,-19.5 422.5,-19.5 422.5,-0.5 288.5,-0.5"/>
<text text-anchor="middle" x="355.5" y="-7.5" font-family="Helvetica,sans-Serif" font-size="10.00">Colors/ColorConstants.h</text>
</a>
</g>
</g>
<!-- Node8&#45;&gt;Node9 -->
<g id="edge8" class="edge">
<title>Node8&#45;&gt;Node9</title>
<path fill="none" stroke="midnightblue" d="M433.56,-56.32C418.91,-47.82 396.37,-34.73 379.26,-24.8"/>
<polygon fill="midnightblue" stroke="midnightblue" points="380.81,-21.65 370.4,-19.65 377.3,-27.7 380.81,-21.65"/>
</g>
<!-- Node10&#45;&gt;Node8 -->
<g id="edge14" class="edge">
<title>Node10&#45;&gt;Node8</title>
<path fill="none" stroke="midnightblue" d="M278.02,-168.37C309.9,-149.41 386.27,-104 425.05,-80.94"/>
<polygon fill="midnightblue" stroke="midnightblue" points="427.24,-83.71 434.05,-75.59 423.67,-77.69 427.24,-83.71"/>
</g>
<!-- Node11 -->
<g id="node11" class="node">
<title>Node11</title>
<g id="a_node11"><a xlink:href="ColorTypes_8h.html" target="_top" xlink:title=" ">
<polygon fill="none" stroke="black" points="222,-112.5 222,-131.5 301,-131.5 301,-112.5 222,-112.5"/>
<text text-anchor="middle" x="261.5" y="-119.5" font-family="Helvetica,sans-Serif" font-size="10.00">ColorTypes.h</text>
</a>
</g>
</g>
<!-- Node10&#45;&gt;Node11 -->
<g id="edge10" class="edge">
<title>Node10&#45;&gt;Node11</title>
<path fill="none" stroke="midnightblue" d="M263.17,-168.08C262.91,-161.01 262.53,-150.86 262.2,-141.99"/>
<polygon fill="midnightblue" stroke="midnightblue" points="265.69,-141.61 261.82,-131.75 258.7,-141.87 265.69,-141.61"/>
</g>
<!-- Node11&#45;&gt;Node6 -->
<g id="edge11" class="edge">
<title>Node11&#45;&gt;Node6</title>
<path fill="none" stroke="midnightblue" d="M271.94,-112.32C281.65,-104.26 296.32,-92.08 308,-82.37"/>
<polygon fill="midnightblue" stroke="midnightblue" points="310.41,-84.92 315.87,-75.83 305.94,-79.53 310.41,-84.92"/>
</g>
<!-- Node11&#45;&gt;Node8 -->
<g id="edge12" class="edge">
<title>Node11&#45;&gt;Node8</title>
<path fill="none" stroke="midnightblue" d="M291.13,-112.44C323,-103.24 373.83,-88.56 409.06,-78.39"/>
<polygon fill="midnightblue" stroke="midnightblue" points="410.37,-81.65 419.01,-75.52 408.43,-74.93 410.37,-81.65"/>
</g>
<!-- Node11&#45;&gt;Node9 -->
<g id="edge13" class="edge">
<title>Node11&#45;&gt;Node9</title>
<path fill="none" stroke="midnightblue" d="M262.75,-112.12C265.02,-98.7 270.92,-73.04 284.5,-56 295.39,-42.33 311.64,-31.6 325.84,-24.06"/>
<polygon fill="midnightblue" stroke="midnightblue" points="327.43,-27.17 334.8,-19.56 324.29,-20.92 327.43,-27.17"/>
</g>
<!-- Node12&#45;&gt;Node6 -->
<g id="edge16" class="edge">
<title>Node12&#45;&gt;Node6</title>
<path fill="none" stroke="midnightblue" d="M65.04,-113.91C68.23,-113.25 71.43,-112.6 74.5,-112 147.78,-97.61 233.44,-82.72 283.65,-74.19"/>
<polygon fill="midnightblue" stroke="midnightblue" points="284.54,-77.59 293.81,-72.47 283.37,-70.69 284.54,-77.59"/>
</g>
<!-- Node13&#45;&gt;Node6 -->
<g id="edge18" class="edge">
<title>Node13&#45;&gt;Node6</title>
<path fill="none" stroke="midnightblue" d="M156.51,-112.44C191.23,-103.16 246.79,-88.31 284.88,-78.13"/>
<polygon fill="midnightblue" stroke="midnightblue" points="285.89,-81.48 294.64,-75.52 284.08,-74.72 285.89,-81.48"/>
</g>
<!-- Node14&#45;&gt;Node5 -->
<g id="edge21" class="edge">
<title>Node14&#45;&gt;Node5</title>
<path fill="none" stroke="midnightblue" d="M395.62,-168.32C405.03,-160.26 419.24,-148.08 430.57,-138.37"/>
<polygon fill="midnightblue" stroke="midnightblue" points="432.88,-141 438.19,-131.83 428.32,-135.68 432.88,-141"/>
</g>
<!-- Node14&#45;&gt;Node6 -->
<g id="edge20" class="edge">
<title>Node14&#45;&gt;Node6</title>
<path fill="none" stroke="midnightblue" d="M380.87,-168.37C371.22,-150.38 348.79,-108.55 335.95,-84.63"/>
<polygon fill="midnightblue" stroke="midnightblue" points="338.92,-82.75 331.11,-75.59 332.75,-86.06 338.92,-82.75"/>
</g>
<!-- Node15&#45;&gt;Node8 -->
<g id="edge27" class="edge">
<title>Node15&#45;&gt;Node8</title>
<path fill="none" stroke="midnightblue" d="M550.28,-224.47C562.7,-216.77 579.11,-204.18 586.5,-188 601.4,-155.4 585.65,-136.52 559.5,-112 542.48,-96.04 519.05,-85.42 498.1,-78.53"/>
<polygon fill="midnightblue" stroke="midnightblue" points="498.96,-75.13 488.37,-75.53 496.9,-81.82 498.96,-75.13"/>
</g>
<!-- Node16 -->
<g id="node16" class="node">
<title>Node16</title>
<g id="a_node16"><a xlink:href="TimeControl_8h.html" target="_top" xlink:title=" ">
<polygon fill="none" stroke="black" points="491.5,-168.5 491.5,-187.5 577.5,-187.5 577.5,-168.5 491.5,-168.5"/>
<text text-anchor="middle" x="534.5" y="-175.5" font-family="Helvetica,sans-Serif" font-size="10.00">TimeControl.h</text>
</a>
</g>
</g>
<!-- Node15&#45;&gt;Node16 -->
<g id="edge23" class="edge">
<title>Node15&#45;&gt;Node16</title>
<path fill="none" stroke="midnightblue" d="M534.5,-224.08C534.5,-217.01 534.5,-206.86 534.5,-197.99"/>
<polygon fill="midnightblue" stroke="midnightblue" points="538,-197.75 534.5,-187.75 531,-197.75 538,-197.75"/>
</g>
<!-- Node16&#45;&gt;Node5 -->
<g id="edge26" class="edge">
<title>Node16&#45;&gt;Node5</title>
<path fill="none" stroke="midnightblue" d="M520.68,-168.32C507.27,-159.9 486.68,-146.97 470.91,-137.07"/>
<polygon fill="midnightblue" stroke="midnightblue" points="472.61,-134.01 462.28,-131.65 468.89,-139.94 472.61,-134.01"/>
</g>
<!-- Node16&#45;&gt;Node6 -->
<g id="edge24" class="edge">
<title>Node16&#45;&gt;Node6</title>
<path fill="none" stroke="midnightblue" d="M533.84,-168.42C532.3,-154.46 527.2,-126.9 510.5,-112 489.87,-93.59 416.95,-79.95 369.33,-72.76"/>
<polygon fill="midnightblue" stroke="midnightblue" points="369.7,-69.27 359.29,-71.28 368.68,-76.2 369.7,-69.27"/>
</g>
<!-- Node16&#45;&gt;Node8 -->
<g id="edge25" class="edge">
<title>Node16&#45;&gt;Node8</title>
<path fill="none" stroke="midnightblue" d="M539.1,-168.24C545.36,-154.98 554.59,-129.52 543.5,-112 533.45,-96.13 516.13,-85.74 499,-79"/>
<polygon fill="midnightblue" stroke="midnightblue" points="500.15,-75.69 489.55,-75.62 497.79,-82.28 500.15,-75.69"/>
</g>
<!-- Node17&#45;&gt;Node6 -->
<g id="edge29" class="edge">
<title>Node17&#45;&gt;Node6</title>
<path fill="none" stroke="midnightblue" d="M680.06,-168.42C648.96,-154.95 585.89,-128.66 530.5,-112 475.59,-95.49 410.69,-82.21 369.09,-74.46"/>
<polygon fill="midnightblue" stroke="midnightblue" points="369.5,-70.98 359.04,-72.62 368.24,-77.87 369.5,-70.98"/>
</g>
<!-- Node17&#45;&gt;Node18 -->
<g id="edge30" class="edge">
<title>Node17&#45;&gt;Node18</title>
<path fill="none" stroke="midnightblue" d="M700.82,-168.08C701.88,-160.93 703.41,-150.64 704.73,-141.69"/>
<polygon fill="midnightblue" stroke="midnightblue" points="708.2,-142.16 706.2,-131.75 701.28,-141.13 708.2,-142.16"/>
</g>
<!-- Node18&#45;&gt;Node7 -->
<g id="edge31" class="edge">
<title>Node18&#45;&gt;Node7</title>
<path fill="none" stroke="midnightblue" d="M694.33,-112.32C681.65,-103.98 662.27,-91.21 647.29,-81.35"/>
<polygon fill="midnightblue" stroke="midnightblue" points="648.92,-78.23 638.64,-75.65 645.07,-84.08 648.92,-78.23"/>
</g>
<!-- Node18&#45;&gt;Node8 -->
<g id="edge32" class="edge">
<title>Node18&#45;&gt;Node8</title>
<path fill="none" stroke="midnightblue" d="M671.49,-113.49C626.75,-104.16 550.15,-88.19 499.42,-77.62"/>
<polygon fill="midnightblue" stroke="midnightblue" points="499.83,-74.13 489.33,-75.51 498.4,-80.98 499.83,-74.13"/>
</g>
<!-- Node19&#45;&gt;Node5 -->
<g id="edge36" class="edge">
<title>Node19&#45;&gt;Node5</title>
<path fill="none" stroke="midnightblue" d="M190.67,-168.8C244.18,-159.29 332.43,-143.62 390.52,-133.3"/>
<polygon fill="midnightblue" stroke="midnightblue" points="391.4,-136.7 400.64,-131.5 390.18,-129.8 391.4,-136.7"/>
</g>
<!-- Node19&#45;&gt;Node6 -->
<g id="edge34" class="edge">
<title>Node19&#45;&gt;Node6</title>
<path fill="none" stroke="midnightblue" d="M151.61,-168.31C163.13,-154.69 187.19,-128.2 212.5,-112 235.29,-97.41 263.57,-86.21 286.27,-78.63"/>
<polygon fill="midnightblue" stroke="midnightblue" points="287.5,-81.91 295.94,-75.51 285.34,-75.25 287.5,-81.91"/>
</g>
<!-- Node19&#45;&gt;Node11 -->
<g id="edge35" class="edge">
<title>Node19&#45;&gt;Node11</title>
<path fill="none" stroke="midnightblue" d="M163.04,-168.44C182.12,-159.64 212.07,-145.81 233.94,-135.72"/>
<polygon fill="midnightblue" stroke="midnightblue" points="235.43,-138.88 243.05,-131.52 232.5,-132.53 235.43,-138.88"/>
</g>
</g>
</svg>
        <g id="navigator" transform="translate(0 0)" fill="#404254">
                <rect fill="#f2f5e9" fill-opacity="0.5" stroke="#606060" stroke-width=".5" x="0" y="0" width="60" height="60"/>
                <use id="zoomplus" xlink:href="#zoomPlus" x="17" y="9" onmousedown="handleZoom(evt,'in')"/>
                <use id="zoomminus" xlink:href="#zoomMin" x="42" y="9" onmousedown="handleZoom(evt,'out')"/>
                <use id="reset" xlink:href="#resetDef" x="30" y="36" onmousedown="handleReset()"/>
                <g id="arrowUp" xlink:href="#dirArrow" transform="translate(30 24)" onmousedown="handlePan(0,-1)">
                  <use xlink:href="#rim" fill="#404040">
                        <set attributeName="fill" to="#808080" begin="arrowUp.mouseover" end="arrowUp.mouseout"/>
                  </use>
                  <path fill="none" stroke="white" stroke-width="1.5" d="M0,-3.0v7 M-2.5,-0.5L0,-3.0L2.5,-0.5"/>
                </g>
                <g id="arrowRight" xlink:href="#dirArrow" transform="rotate(90) translate(36 -43)" onmousedown="handlePan(1,0)">
                  <use xlink:href="#rim" fill="#404040">
                        <set attributeName="fill" to="#808080" begin="arrowRight.mouseover" end="arrowRight.mouseout"/>
                  </use>
                  <path fill="none" stroke="white" stroke-width="1.5" d="M0,-3.0v7 M-2.5,-0.5L0,-3.0L2.5,-0.5"/>
                </g>
                <g id="arrowDown" xlink:href="#dirArrow" transform="rotate(180) translate(-30 -48)" onmousedown="handlePan(0,1)">
                  <use xlink:href="#rim" fill="#404040">
                        <set attributeName="fill" to="#808080" begin="arrowDown.mouseover" end="arrowDown.mouseout"/>
                  </use>
                  <path fill="none" stroke="white" stroke-width="1.5" d="M0,-3.0v7 M-2.5,-0.5L0,-3.0L2.5,-0.5"/>
                </g>
                <g id="arrowLeft" xlink:href="#dirArrow" transform="rotate(270) translate(-36 17)" onmousedown="handlePan(-1,0)">
                  <use xlink:href="#rim" fill="#404040">
                        <set attributeName="fill" to="#808080" begin="arrowLeft.mouseover" end="arrowLeft.mouseout"/>
                  </use>
                  <path fill="none" stroke="white" stroke-width="1.5" d="M0,-3.0v7 M-2.5,-0.5L0,-3.0L2.5,-0.5"/>
                </g>
        </g>
        <svg viewBox="0 0 15 15" width="100%" height="30px" preserveAspectRatio="xMaxYMin meet">
         <g id="arrow_out" transform="scale(0.3 0.3)">
          <a xlink:href="DripMorphPattern_8cpp__incl_org.svg" target="_base">
           <rect id="button" ry="5" rx="5" y="6" x="6" height="38" width="38"
                fill="#f2f5e9" fill-opacity="0.5" stroke="#606060" stroke-width="1.0"/>
           <path id="arrow"
             d="M 11.500037,31.436501 C 11.940474,20.09759 22.043105,11.32322 32.158766,21.979434 L 37.068811,17.246167 C 37.068811,17.246167 37.088388,32 37.088388,32 L 22.160133,31.978069 C 22.160133,31.978069 26.997745,27.140456 26.997745,27.140456 C 18.528582,18.264221 13.291696,25.230495 11.500037,31.436501 z"
             style="fill:#404040;"/>
          </a>
         </g>
        </svg>
</svg>
