<?xml version="1.0" encoding="UTF-8" standalone="no"?>
<!DOCTYPE svg PUBLIC "-//W3C//DTD SVG 1.1//EN"
 "http://www.w3.org/Graphics/SVG/1.1/DTD/svg11.dtd">
<!-- Generated by graphviz version 2.43.0 (0)
 -->
<!-- Title: VortexEngine/src/Menus/MenuList/FactoryReset.cpp Pages: 1 -->
<!--zoomable 375 -->
<svg id="main" version="1.1" xmlns="http://www.w3.org/2000/svg" xmlns:xlink="http://www.w3.org/1999/xlink" xml:space="preserve" onload="init(evt)">
<style type="text/css"><![CDATA[
.edge:hover path { stroke: red; }
.edge:hover polygon { stroke: red; fill: red; }
]]></style>
<script type="text/javascript"><![CDATA[
var edges = document.getElementsByTagName('g');
if (edges && edges.length) {
  for (var i=0;i<edges.length;i++) {
    if (edges[i].id.substr(0,4)=='edge') {
      edges[i].setAttribute('class','edge');
    }
  }
}
]]></script>
        <defs>
                <circle id="rim" cx="0" cy="0" r="7"/>
                <circle id="rim2" cx="0" cy="0" r="3.5"/>
                <g id="zoomPlus">
                        <use xlink:href="#rim" target="_top" fill="#404040">
                                <set attributeName="fill" to="#808080" begin="zoomplus.mouseover" end="zoomplus.mouseout"/>
                        </use>
                        <path d="M-4,0h8M0,-4v8" fill="none" stroke="white" stroke-width="1.5" pointer-events="none"/>
                </g>
                <g id="zoomMin">
                        <use xlink:href="#rim" target="_top" fill="#404040">
                                <set attributeName="fill" to="#808080" begin="zoomminus.mouseover" end="zoomminus.mouseout"/>
                        </use>
                        <path d="M-4,0h8" fill="none" stroke="white" stroke-width="1.5" pointer-events="none"/>
                </g>
                <g id="dirArrow">
                        <path fill="none" stroke="white" stroke-width="1.5" d="M0,-3.0v7 M-2.5,-0.5L0,-3.0L2.5,-0.5"/>
                </g>
               <g id="resetDef">
                       <use xlink:href="#rim2" target="_top" fill="#404040">
                               <set attributeName="fill" to="#808080" begin="reset.mouseover" end="reset.mouseout"/>
                       </use>
               </g>
        </defs>

<script type="text/javascript">
var viewWidth = 1374;
var viewHeight = 375;
var sectionId = 'dynsection-0';
</script>
<script xlink:href="svgpan.js" target="_top"/>
<svg id="graph" class="graph">
<g id="viewport">
<title>VortexEngine/src/Menus/MenuList/FactoryReset.cpp</title>
<!-- Node1 -->
<g id="node1" class="node">
<title>Node1</title>
<g id="a_node1"><a xlink:title=" ">
<polygon fill="#bfbfbf" stroke="black" points="471,-336.5 471,-366.5 621,-366.5 621,-336.5 471,-336.5"/>
<text text-anchor="start" x="479" y="-354.5" font-family="Helvetica,sans-Serif" font-size="10.00">VortexEngine/src/Menus</text>
<text text-anchor="middle" x="546" y="-343.5" font-family="Helvetica,sans-Serif" font-size="10.00">/MenuList/FactoryReset.cpp</text>
</a>
</g>
</g>
<!-- Node2 -->
<g id="node2" class="node">
<title>Node2</title>
<g id="a_node2"><a xlink:href="FactoryReset_8h.html" target="_top" target="_top" xlink:title=" ">
<polygon fill="none" stroke="black" points="594.5,-280.5 594.5,-299.5 683.5,-299.5 683.5,-280.5 594.5,-280.5"/>
<text text-anchor="middle" x="639" y="-287.5" font-family="Helvetica,sans-Serif" font-size="10.00">FactoryReset.h</text>
</a>
</g>
</g>
<!-- Node1&#45;&gt;Node2 -->
<g id="edge1" class="edge">
<title>Node1&#45;&gt;Node2</title>
<path fill="none" stroke="midnightblue" d="M568.04,-336.4C582.81,-326.95 602.18,-314.56 616.95,-305.11"/>
<polygon fill="midnightblue" stroke="midnightblue" points="618.93,-308 625.47,-299.66 615.16,-302.1 618.93,-308"/>
</g>
<!-- Node6 -->
<g id="node6" class="node">
<title>Node6</title>
<g id="a_node6"><a xlink:href="VortexConfig_8h.html" target="_top" target="_top" xlink:title=" ">
<polygon fill="none" stroke="black" points="389.5,-56.5 389.5,-75.5 486.5,-75.5 486.5,-56.5 389.5,-56.5"/>
<text text-anchor="middle" x="438" y="-63.5" font-family="Helvetica,sans-Serif" font-size="10.00">../VortexConfig.h</text>
</a>
</g>
</g>
<!-- Node1&#45;&gt;Node6 -->
<g id="edge58" class="edge">
<title>Node1&#45;&gt;Node6</title>
<path fill="none" stroke="midnightblue" d="M470.94,-350.1C321.28,-347.28 0,-330.13 0,-235 0,-235 0,-235 0,-177 0,-99.67 260.04,-76.2 379.39,-69.5"/>
<polygon fill="midnightblue" stroke="midnightblue" points="379.66,-72.99 389.45,-68.96 379.28,-66 379.66,-72.99"/>
</g>
<!-- Node10 -->
<g id="node10" class="node">
<title>Node10</title>
<g id="a_node10"><a xlink:href="Mode_8h.html" target="_top" target="_top" xlink:title=" ">
<polygon fill="none" stroke="black" points="440.5,-168.5 440.5,-187.5 537.5,-187.5 537.5,-168.5 440.5,-168.5"/>
<text text-anchor="middle" x="489" y="-175.5" font-family="Helvetica,sans-Serif" font-size="10.00">../Modes/Mode.h</text>
</a>
</g>
</g>
<!-- Node1&#45;&gt;Node10 -->
<g id="edge55" class="edge">
<title>Node1&#45;&gt;Node10</title>
<path fill="none" stroke="midnightblue" d="M541.34,-336.47C531.07,-305.57 506.51,-231.69 495.07,-197.25"/>
<polygon fill="midnightblue" stroke="midnightblue" points="498.32,-195.95 491.84,-187.56 491.68,-198.15 498.32,-195.95"/>
</g>
<!-- Node12 -->
<g id="node12" class="node">
<title>Node12</title>
<g id="a_node12"><a xlink:href="VortexEngine_8h.html" target="_top" target="_top" xlink:title=" ">
<polygon fill="none" stroke="black" points="147,-112.5 147,-131.5 255,-131.5 255,-112.5 147,-112.5"/>
<text text-anchor="middle" x="201" y="-119.5" font-family="Helvetica,sans-Serif" font-size="10.00">../../VortexEngine.h</text>
</a>
</g>
</g>
<!-- Node1&#45;&gt;Node12 -->
<g id="edge18" class="edge">
<title>Node1&#45;&gt;Node12</title>
<path fill="none" stroke="midnightblue" d="M470.93,-346.85C370.63,-337.46 196.34,-304.28 117,-188 101.27,-164.94 133.52,-146.42 162.5,-135.14"/>
<polygon fill="midnightblue" stroke="midnightblue" points="163.96,-138.33 172.13,-131.59 161.54,-131.77 163.96,-138.33"/>
</g>
<!-- Node13 -->
<g id="node13" class="node">
<title>Node13</title>
<g id="a_node13"><a xlink:href="DefaultModes_8h.html" target="_top" target="_top" xlink:title=" ">
<polygon fill="none" stroke="black" points="275.5,-168.5 275.5,-187.5 422.5,-187.5 422.5,-168.5 275.5,-168.5"/>
<text text-anchor="middle" x="349" y="-175.5" font-family="Helvetica,sans-Serif" font-size="10.00">../../Modes/DefaultModes.h</text>
</a>
</g>
</g>
<!-- Node1&#45;&gt;Node13 -->
<g id="edge21" class="edge">
<title>Node1&#45;&gt;Node13</title>
<path fill="none" stroke="midnightblue" d="M529.88,-336.47C493.31,-304.63 404.34,-227.17 366.5,-194.23"/>
<polygon fill="midnightblue" stroke="midnightblue" points="368.67,-191.49 358.83,-187.56 364.08,-196.77 368.67,-191.49"/>
</g>
<!-- Node14 -->
<g id="node14" class="node">
<title>Node14</title>
<g id="a_node14"><a xlink:href="TimeControl_8h.html" target="_top" target="_top" xlink:title=" ">
<polygon fill="none" stroke="black" points="126.5,-168.5 126.5,-187.5 257.5,-187.5 257.5,-168.5 126.5,-168.5"/>
<text text-anchor="middle" x="192" y="-175.5" font-family="Helvetica,sans-Serif" font-size="10.00">../../Time/TimeControl.h</text>
</a>
</g>
</g>
<!-- Node1&#45;&gt;Node14 -->
<g id="edge24" class="edge">
<title>Node1&#45;&gt;Node14</title>
<path fill="none" stroke="midnightblue" d="M517.03,-336.47C449.81,-303.9 284,-223.57 218.87,-192.02"/>
<polygon fill="midnightblue" stroke="midnightblue" points="220.19,-188.77 209.67,-187.56 217.14,-195.07 220.19,-188.77"/>
</g>
<!-- Node15 -->
<g id="node15" class="node">
<title>Node15</title>
<g id="a_node15"><a xlink:href="Pattern_8h.html" target="_top" target="_top" xlink:title=" ">
<polygon fill="none" stroke="black" points="681.5,-224.5 681.5,-243.5 802.5,-243.5 802.5,-224.5 681.5,-224.5"/>
<text text-anchor="middle" x="742" y="-231.5" font-family="Helvetica,sans-Serif" font-size="10.00">../../Patterns/Pattern.h</text>
</a>
</g>
</g>
<!-- Node1&#45;&gt;Node15 -->
<g id="edge28" class="edge">
<title>Node1&#45;&gt;Node15</title>
<path fill="none" stroke="midnightblue" d="M612.03,-336.46C638.56,-328.67 668.38,-317 692,-300 709.27,-287.56 723.42,-267.48 732.21,-252.93"/>
<polygon fill="midnightblue" stroke="midnightblue" points="735.45,-254.31 737.4,-243.9 729.38,-250.82 735.45,-254.31"/>
</g>
<!-- Node18 -->
<g id="node18" class="node">
<title>Node18</title>
<g id="a_node18"><a xlink:href="Button_8h.html" target="_top" target="_top" xlink:title=" ">
<polygon fill="none" stroke="black" points="1250,-280.5 1250,-299.5 1366,-299.5 1366,-280.5 1250,-280.5"/>
<text text-anchor="middle" x="1308" y="-287.5" font-family="Helvetica,sans-Serif" font-size="10.00">../../Buttons/Button.h</text>
</a>
</g>
</g>
<!-- Node1&#45;&gt;Node18 -->
<g id="edge36" class="edge">
<title>Node1&#45;&gt;Node18</title>
<path fill="none" stroke="midnightblue" d="M621.15,-344.63C769.32,-333.06 1097.11,-307.47 1239.62,-296.34"/>
<polygon fill="midnightblue" stroke="midnightblue" points="1240.27,-299.8 1249.96,-295.53 1239.72,-292.82 1240.27,-299.8"/>
</g>
<!-- Node19 -->
<g id="node19" class="node">
<title>Node19</title>
<g id="a_node19"><a xlink:href="Timings_8h.html" target="_top" target="_top" xlink:title=" ">
<polygon fill="none" stroke="black" points="28,-224.5 28,-243.5 138,-243.5 138,-224.5 28,-224.5"/>
<text text-anchor="middle" x="83" y="-231.5" font-family="Helvetica,sans-Serif" font-size="10.00">../../Time/Timings.h</text>
</a>
</g>
</g>
<!-- Node1&#45;&gt;Node19 -->
<g id="edge38" class="edge">
<title>Node1&#45;&gt;Node19</title>
<path fill="none" stroke="midnightblue" d="M470.69,-346.38C372.52,-340.08 206.87,-325.93 152,-300 128.62,-288.95 107.94,-266.97 95.46,-251.64"/>
<polygon fill="midnightblue" stroke="midnightblue" points="98.02,-249.24 89.1,-243.52 92.51,-253.55 98.02,-249.24"/>
</g>
<!-- Node20 -->
<g id="node20" class="node">
<title>Node20</title>
<g id="a_node20"><a xlink:href="Modes_8h.html" target="_top" target="_top" xlink:title=" ">
<polygon fill="none" stroke="black" points="942.5,-224.5 942.5,-243.5 1053.5,-243.5 1053.5,-224.5 942.5,-224.5"/>
<text text-anchor="middle" x="998" y="-231.5" font-family="Helvetica,sans-Serif" font-size="10.00">../../Modes/Modes.h</text>
</a>
</g>
</g>
<!-- Node1&#45;&gt;Node20 -->
<g id="edge41" class="edge">
<title>Node1&#45;&gt;Node20</title>
<path fill="none" stroke="midnightblue" d="M600.97,-336.45C691.99,-313.19 872.13,-267.16 954.75,-246.05"/>
<polygon fill="midnightblue" stroke="midnightblue" points="955.75,-249.41 964.57,-243.54 954.02,-242.63 955.75,-249.41"/>
</g>
<!-- Node22 -->
<g id="node22" class="node">
<title>Node22</title>
<g id="a_node22"><a xlink:href="Log_8h.html" target="_top" target="_top" xlink:title=" ">
<polygon fill="none" stroke="black" points="760,-112.5 760,-131.5 832,-131.5 832,-112.5 760,-112.5"/>
<text text-anchor="middle" x="796" y="-119.5" font-family="Helvetica,sans-Serif" font-size="10.00">../Log/Log.h</text>
</a>
</g>
</g>
<!-- Node1&#45;&gt;Node22 -->
<g id="edge57" class="edge">
<title>Node1&#45;&gt;Node22</title>
<path fill="none" stroke="midnightblue" d="M547.69,-336.21C551.4,-310.74 562.39,-257.09 592,-224 634.84,-176.12 705.54,-148.32 751.44,-134.41"/>
<polygon fill="midnightblue" stroke="midnightblue" points="752.51,-137.74 761.12,-131.57 750.54,-131.02 752.51,-137.74"/>
</g>
<!-- Node23 -->
<g id="node23" class="node">
<title>Node23</title>
<g id="a_node23"><a xlink:href="Leds_8h.html" target="_top" target="_top" xlink:title=" ">
<polygon fill="none" stroke="black" points="1205.5,-168.5 1205.5,-187.5 1288.5,-187.5 1288.5,-168.5 1205.5,-168.5"/>
<text text-anchor="middle" x="1247" y="-175.5" font-family="Helvetica,sans-Serif" font-size="10.00">../Leds/Leds.h</text>
</a>
</g>
</g>
<!-- Node1&#45;&gt;Node23 -->
<g id="edge56" class="edge">
<title>Node1&#45;&gt;Node23</title>
<path fill="none" stroke="midnightblue" d="M621.1,-338.3C722.23,-321.13 907.35,-287.06 1062,-244 1117.16,-228.64 1179.69,-205.41 1216.1,-191.28"/>
<polygon fill="midnightblue" stroke="midnightblue" points="1217.61,-194.44 1225.65,-187.55 1215.06,-187.92 1217.61,-194.44"/>
</g>
<!-- Node3 -->
<g id="node3" class="node">
<title>Node3</title>
<g id="a_node3"><a xlink:href="Menu_8h.html" target="_top" target="_top" xlink:title=" ">
<polygon fill="none" stroke="black" points="601,-224.5 601,-243.5 663,-243.5 663,-224.5 601,-224.5"/>
<text text-anchor="middle" x="632" y="-231.5" font-family="Helvetica,sans-Serif" font-size="10.00">../Menu.h</text>
</a>
</g>
</g>
<!-- Node2&#45;&gt;Node3 -->
<g id="edge2" class="edge">
<title>Node2&#45;&gt;Node3</title>
<path fill="none" stroke="midnightblue" d="M637.84,-280.08C636.92,-272.93 635.58,-262.64 634.42,-253.69"/>
<polygon fill="midnightblue" stroke="midnightblue" points="637.89,-253.22 633.13,-243.75 630.95,-254.12 637.89,-253.22"/>
</g>
<!-- Node4 -->
<g id="node4" class="node">
<title>Node4</title>
<g id="a_node4"><a xlink:title=" ">
<polygon fill="none" stroke="#bfbfbf" points="855.5,-56.5 855.5,-75.5 920.5,-75.5 920.5,-56.5 855.5,-56.5"/>
<text text-anchor="middle" x="888" y="-63.5" font-family="Helvetica,sans-Serif" font-size="10.00">inttypes.h</text>
</a>
</g>
</g>
<!-- Node3&#45;&gt;Node4 -->
<g id="edge3" class="edge">
<title>Node3&#45;&gt;Node4</title>
<path fill="none" stroke="midnightblue" d="M650.98,-224.47C699.45,-202.61 825.09,-145.33 841,-132 856.96,-118.63 870.31,-98.71 878.65,-84.45"/>
<polygon fill="midnightblue" stroke="midnightblue" points="881.76,-86.06 883.6,-75.63 875.65,-82.64 881.76,-86.06"/>
</g>
<!-- Node5 -->
<g id="node5" class="node">
<title>Node5</title>
<g id="a_node5"><a xlink:href="ColorTypes_8h.html" target="_top" target="_top" xlink:title=" ">
<polygon fill="none" stroke="black" points="888,-112.5 888,-131.5 1010,-131.5 1010,-112.5 888,-112.5"/>
<text text-anchor="middle" x="949" y="-119.5" font-family="Helvetica,sans-Serif" font-size="10.00">../Colors/ColorTypes.h</text>
</a>
</g>
</g>
<!-- Node3&#45;&gt;Node5 -->
<g id="edge4" class="edge">
<title>Node3&#45;&gt;Node5</title>
<path fill="none" stroke="midnightblue" d="M663.4,-225.73C666.3,-225.12 669.2,-224.53 672,-224 773.64,-204.63 813.79,-242.08 902,-188 919.94,-177 933.08,-156.34 940.83,-141.25"/>
<polygon fill="midnightblue" stroke="midnightblue" points="944.16,-142.41 945.33,-131.89 937.85,-139.38 944.16,-142.41"/>
</g>
<!-- Node8 -->
<g id="node8" class="node">
<title>Node8</title>
<g id="a_node8"><a xlink:href="LedTypes_8h.html" target="_top" target="_top" xlink:title=" ">
<polygon fill="none" stroke="black" points="425.5,-112.5 425.5,-131.5 530.5,-131.5 530.5,-112.5 425.5,-112.5"/>
<text text-anchor="middle" x="478" y="-119.5" font-family="Helvetica,sans-Serif" font-size="10.00">../Leds/LedTypes.h</text>
</a>
</g>
</g>
<!-- Node3&#45;&gt;Node8 -->
<g id="edge9" class="edge">
<title>Node3&#45;&gt;Node8</title>
<path fill="none" stroke="midnightblue" d="M621.03,-224.36C604.84,-211.69 573.5,-187.46 546,-168 530.88,-157.3 513.46,-145.79 500.04,-137.08"/>
<polygon fill="midnightblue" stroke="midnightblue" points="501.76,-134.03 491.46,-131.55 497.96,-139.91 501.76,-134.03"/>
</g>
<!-- Node3&#45;&gt;Node10 -->
<g id="edge13" class="edge">
<title>Node3&#45;&gt;Node10</title>
<path fill="none" stroke="midnightblue" d="M609.34,-224.44C585.6,-215.48 548.09,-201.31 521.26,-191.18"/>
<polygon fill="midnightblue" stroke="midnightblue" points="522.14,-187.77 511.55,-187.52 519.67,-194.32 522.14,-187.77"/>
</g>
<!-- Node5&#45;&gt;Node4 -->
<g id="edge5" class="edge">
<title>Node5&#45;&gt;Node4</title>
<path fill="none" stroke="midnightblue" d="M939.2,-112.32C930.18,-104.34 916.59,-92.31 905.68,-82.65"/>
<polygon fill="midnightblue" stroke="midnightblue" points="907.79,-79.84 897.98,-75.83 903.15,-85.08 907.79,-79.84"/>
</g>
<!-- Node5&#45;&gt;Node6 -->
<g id="edge6" class="edge">
<title>Node5&#45;&gt;Node6</title>
<path fill="none" stroke="midnightblue" d="M887.87,-114.54C788.72,-104.06 594.15,-83.5 496.63,-73.2"/>
<polygon fill="midnightblue" stroke="midnightblue" points="496.97,-69.71 486.65,-72.14 496.23,-76.67 496.97,-69.71"/>
</g>
<!-- Node7 -->
<g id="node7" class="node">
<title>Node7</title>
<g id="a_node7"><a xlink:href="ColorConstants_8h.html" target="_top" target="_top" xlink:title=" ">
<polygon fill="none" stroke="black" points="606,-0.5 606,-19.5 740,-19.5 740,-0.5 606,-0.5"/>
<text text-anchor="middle" x="673" y="-7.5" font-family="Helvetica,sans-Serif" font-size="10.00">Colors/ColorConstants.h</text>
</a>
</g>
</g>
<!-- Node5&#45;&gt;Node7 -->
<g id="edge8" class="edge">
<title>Node5&#45;&gt;Node7</title>
<path fill="none" stroke="midnightblue" d="M949.02,-112.34C948.56,-98.26 945.46,-70.53 929,-56 902.99,-33.04 815.86,-21.43 750.42,-15.81"/>
<polygon fill="midnightblue" stroke="midnightblue" points="750.37,-12.3 740.12,-14.96 749.79,-19.27 750.37,-12.3"/>
</g>
<!-- Node6&#45;&gt;Node7 -->
<g id="edge7" class="edge">
<title>Node6&#45;&gt;Node7</title>
<path fill="none" stroke="midnightblue" d="M475.24,-56.44C516.06,-47.06 581.64,-31.99 625.98,-21.8"/>
<polygon fill="midnightblue" stroke="midnightblue" points="626.98,-25.17 635.94,-19.52 625.41,-18.34 626.98,-25.17"/>
</g>
<!-- Node8&#45;&gt;Node4 -->
<g id="edge10" class="edge">
<title>Node8&#45;&gt;Node4</title>
<path fill="none" stroke="midnightblue" d="M530.56,-113.18C533.42,-112.78 536.24,-112.38 539,-112 649.29,-96.75 779.43,-80.41 845.25,-72.26"/>
<polygon fill="midnightblue" stroke="midnightblue" points="845.76,-75.72 855.25,-71.02 844.9,-68.77 845.76,-75.72"/>
</g>
<!-- Node8&#45;&gt;Node6 -->
<g id="edge12" class="edge">
<title>Node8&#45;&gt;Node6</title>
<path fill="none" stroke="midnightblue" d="M471.39,-112.08C465.74,-104.46 457.46,-93.26 450.55,-83.94"/>
<polygon fill="midnightblue" stroke="midnightblue" points="453.25,-81.7 444.48,-75.75 447.62,-85.87 453.25,-81.7"/>
</g>
<!-- Node9 -->
<g id="node9" class="node">
<title>Node9</title>
<g id="a_node9"><a xlink:title=" ">
<polygon fill="none" stroke="#bfbfbf" points="657,-56.5 657,-75.5 713,-75.5 713,-56.5 657,-56.5"/>
<text text-anchor="middle" x="685" y="-63.5" font-family="Helvetica,sans-Serif" font-size="10.00">stdarg.h</text>
</a>
</g>
</g>
<!-- Node8&#45;&gt;Node9 -->
<g id="edge11" class="edge">
<title>Node8&#45;&gt;Node9</title>
<path fill="none" stroke="midnightblue" d="M510.8,-112.44C547.74,-102.81 607.7,-87.17 646.74,-76.98"/>
<polygon fill="midnightblue" stroke="midnightblue" points="647.89,-80.3 656.68,-74.39 646.12,-73.53 647.89,-80.3"/>
</g>
<!-- Node10&#45;&gt;Node6 -->
<g id="edge17" class="edge">
<title>Node10&#45;&gt;Node6</title>
<path fill="none" stroke="midnightblue" d="M462.79,-168.41C446.15,-161.44 425.94,-149.81 416,-132 407.51,-116.79 415.9,-97.74 424.65,-84.21"/>
<polygon fill="midnightblue" stroke="midnightblue" points="427.66,-86.02 430.57,-75.83 421.94,-81.98 427.66,-86.02"/>
</g>
<!-- Node10&#45;&gt;Node8 -->
<g id="edge14" class="edge">
<title>Node10&#45;&gt;Node8</title>
<path fill="none" stroke="midnightblue" d="M487.18,-168.08C485.73,-160.93 483.63,-150.64 481.81,-141.69"/>
<polygon fill="midnightblue" stroke="midnightblue" points="485.21,-140.85 479.78,-131.75 478.35,-142.25 485.21,-140.85"/>
</g>
<!-- Node11 -->
<g id="node11" class="node">
<title>Node11</title>
<g id="a_node11"><a xlink:href="Patterns_8h.html" target="_top" target="_top" xlink:title=" ">
<polygon fill="none" stroke="black" points="548.5,-112.5 548.5,-131.5 665.5,-131.5 665.5,-112.5 548.5,-112.5"/>
<text text-anchor="middle" x="607" y="-119.5" font-family="Helvetica,sans-Serif" font-size="10.00">../Patterns/Patterns.h</text>
</a>
</g>
</g>
<!-- Node10&#45;&gt;Node11 -->
<g id="edge15" class="edge">
<title>Node10&#45;&gt;Node11</title>
<path fill="none" stroke="midnightblue" d="M507.7,-168.44C526.94,-159.64 557.15,-145.81 579.2,-135.72"/>
<polygon fill="midnightblue" stroke="midnightblue" points="580.75,-138.86 588.39,-131.52 577.84,-132.5 580.75,-138.86"/>
</g>
<!-- Node11&#45;&gt;Node4 -->
<g id="edge16" class="edge">
<title>Node11&#45;&gt;Node4</title>
<path fill="none" stroke="midnightblue" d="M651.53,-112.44C704.63,-102.24 792.76,-85.3 845.12,-75.24"/>
<polygon fill="midnightblue" stroke="midnightblue" points="845.94,-78.65 855.1,-73.32 844.62,-71.77 845.94,-78.65"/>
</g>
<!-- Node12&#45;&gt;Node4 -->
<g id="edge19" class="edge">
<title>Node12&#45;&gt;Node4</title>
<path fill="none" stroke="midnightblue" d="M255.19,-116.32C271.81,-114.91 290.16,-113.37 307,-112 508.19,-95.67 748.69,-77.46 845.02,-70.22"/>
<polygon fill="midnightblue" stroke="midnightblue" points="845.52,-73.69 855.23,-69.45 845,-66.71 845.52,-73.69"/>
</g>
<!-- Node12&#45;&gt;Node6 -->
<g id="edge20" class="edge">
<title>Node12&#45;&gt;Node6</title>
<path fill="none" stroke="midnightblue" d="M238.55,-112.44C279.81,-103.04 346.14,-87.93 390.87,-77.74"/>
<polygon fill="midnightblue" stroke="midnightblue" points="391.65,-81.15 400.62,-75.52 390.09,-74.33 391.65,-81.15"/>
</g>
<!-- Node13&#45;&gt;Node6 -->
<g id="edge23" class="edge">
<title>Node13&#45;&gt;Node6</title>
<path fill="none" stroke="midnightblue" d="M355.98,-168.37C370.74,-150.14 405.29,-107.43 424.51,-83.68"/>
<polygon fill="midnightblue" stroke="midnightblue" points="427.48,-85.57 431.05,-75.59 422.04,-81.16 427.48,-85.57"/>
</g>
<!-- Node13&#45;&gt;Node11 -->
<g id="edge22" class="edge">
<title>Node13&#45;&gt;Node11</title>
<path fill="none" stroke="midnightblue" d="M389.88,-168.44C434.98,-159 507.61,-143.8 556.3,-133.61"/>
<polygon fill="midnightblue" stroke="midnightblue" points="557.24,-136.99 566.31,-131.52 555.81,-130.14 557.24,-136.99"/>
</g>
<!-- Node14&#45;&gt;Node4 -->
<g id="edge25" class="edge">
<title>Node14&#45;&gt;Node4</title>
<path fill="none" stroke="midnightblue" d="M215.84,-168.48C256.38,-154.34 341.62,-126.21 416,-112 497.8,-96.38 745.16,-77.34 845.26,-70.04"/>
<polygon fill="midnightblue" stroke="midnightblue" points="845.6,-73.53 855.32,-69.31 845.09,-66.55 845.6,-73.53"/>
</g>
<!-- Node14&#45;&gt;Node6 -->
<g id="edge26" class="edge">
<title>Node14&#45;&gt;Node6</title>
<path fill="none" stroke="midnightblue" d="M205.38,-168.36C226.41,-155.03 268.72,-129.22 307,-112 336.95,-98.53 372.22,-86.63 398.62,-78.45"/>
<polygon fill="midnightblue" stroke="midnightblue" points="399.73,-81.77 408.27,-75.5 397.68,-75.08 399.73,-81.77"/>
</g>
<!-- Node14&#45;&gt;Node8 -->
<g id="edge27" class="edge">
<title>Node14&#45;&gt;Node8</title>
<path fill="none" stroke="midnightblue" d="M237.32,-168.44C287.63,-158.94 368.84,-143.61 422.81,-133.42"/>
<polygon fill="midnightblue" stroke="midnightblue" points="423.72,-136.81 432.89,-131.52 422.42,-129.93 423.72,-136.81"/>
</g>
<!-- Node15&#45;&gt;Node8 -->
<g id="edge29" class="edge">
<title>Node15&#45;&gt;Node8</title>
<path fill="none" stroke="midnightblue" d="M721.28,-224.37C674.83,-205.01 562.15,-158.06 508.02,-135.51"/>
<polygon fill="midnightblue" stroke="midnightblue" points="509.2,-132.21 498.62,-131.59 506.5,-138.67 509.2,-132.21"/>
</g>
<!-- Node15&#45;&gt;Node11 -->
<g id="edge33" class="edge">
<title>Node15&#45;&gt;Node11</title>
<path fill="none" stroke="midnightblue" d="M731.41,-224.37C708.54,-205.73 654.29,-161.53 625.57,-138.13"/>
<polygon fill="midnightblue" stroke="midnightblue" points="627.51,-135.19 617.54,-131.59 623.09,-140.62 627.51,-135.19"/>
</g>
<!-- Node16 -->
<g id="node16" class="node">
<title>Node16</title>
<g id="a_node16"><a xlink:href="Colorset_8h.html" target="_top" target="_top" xlink:title=" ">
<polygon fill="none" stroke="black" points="784.5,-168.5 784.5,-187.5 893.5,-187.5 893.5,-168.5 784.5,-168.5"/>
<text text-anchor="middle" x="839" y="-175.5" font-family="Helvetica,sans-Serif" font-size="10.00">../Colors/Colorset.h</text>
</a>
</g>
</g>
<!-- Node15&#45;&gt;Node16 -->
<g id="edge30" class="edge">
<title>Node15&#45;&gt;Node16</title>
<path fill="none" stroke="midnightblue" d="M757.58,-224.32C773,-215.74 796.81,-202.49 814.71,-192.52"/>
<polygon fill="midnightblue" stroke="midnightblue" points="816.42,-195.58 823.45,-187.65 813.01,-189.46 816.42,-195.58"/>
</g>
<!-- Node17 -->
<g id="node17" class="node">
<title>Node17</title>
<g id="a_node17"><a xlink:href="PatternArgs_8h.html" target="_top" target="_top" xlink:title=" ">
<polygon fill="none" stroke="black" points="1028,-112.5 1028,-131.5 1110,-131.5 1110,-112.5 1028,-112.5"/>
<text text-anchor="middle" x="1069" y="-119.5" font-family="Helvetica,sans-Serif" font-size="10.00">PatternArgs.h</text>
</a>
</g>
</g>
<!-- Node15&#45;&gt;Node17 -->
<g id="edge34" class="edge">
<title>Node15&#45;&gt;Node17</title>
<path fill="none" stroke="midnightblue" d="M787.55,-224.45C825.43,-216.74 880.47,-204.14 927,-188 969.16,-173.37 1015.81,-150.69 1043.74,-136.35"/>
<polygon fill="midnightblue" stroke="midnightblue" points="1045.54,-139.36 1052.81,-131.65 1042.32,-133.15 1045.54,-139.36"/>
</g>
<!-- Node16&#45;&gt;Node5 -->
<g id="edge31" class="edge">
<title>Node16&#45;&gt;Node5</title>
<path fill="none" stroke="midnightblue" d="M856.67,-168.32C874.39,-159.62 901.9,-146.12 922.29,-136.11"/>
<polygon fill="midnightblue" stroke="midnightblue" points="923.94,-139.2 931.37,-131.65 920.85,-132.92 923.94,-139.2"/>
</g>
<!-- Node16&#45;&gt;Node6 -->
<g id="edge32" class="edge">
<title>Node16&#45;&gt;Node6</title>
<path fill="none" stroke="midnightblue" d="M814.24,-168.37C789.64,-159.66 750.94,-145.59 718,-132 698.14,-123.81 694.47,-118.5 674,-112 614.99,-93.26 545.06,-81.12 496.72,-74.23"/>
<polygon fill="midnightblue" stroke="midnightblue" points="497.13,-70.75 486.75,-72.84 496.17,-77.69 497.13,-70.75"/>
</g>
<!-- Node17&#45;&gt;Node4 -->
<g id="edge35" class="edge">
<title>Node17&#45;&gt;Node4</title>
<path fill="none" stroke="midnightblue" d="M1040.32,-112.44C1009.47,-103.24 960.27,-88.56 926.17,-78.39"/>
<polygon fill="midnightblue" stroke="midnightblue" points="927.13,-75.02 916.55,-75.52 925.13,-81.73 927.13,-75.02"/>
</g>
<!-- Node18&#45;&gt;Node4 -->
<g id="edge37" class="edge">
<title>Node18&#45;&gt;Node4</title>
<path fill="none" stroke="midnightblue" d="M1311.1,-280.45C1318.06,-259.74 1332.82,-205.8 1313,-168 1292.68,-129.24 1272.84,-127.72 1232,-112 1129.02,-72.36 997.26,-66.41 930.65,-66.23"/>
<polygon fill="midnightblue" stroke="midnightblue" points="930.53,-62.73 920.54,-66.25 930.54,-69.73 930.53,-62.73"/>
</g>
<!-- Node19&#45;&gt;Node6 -->
<g id="edge40" class="edge">
<title>Node19&#45;&gt;Node6</title>
<path fill="none" stroke="midnightblue" d="M81.16,-224.18C78.91,-211.29 76.25,-186.78 84,-168 97.19,-136.04 107.27,-127.85 138,-112 178.96,-90.87 304.13,-77.6 379.23,-71.32"/>
<polygon fill="midnightblue" stroke="midnightblue" points="379.8,-74.78 389.48,-70.48 379.23,-67.81 379.8,-74.78"/>
</g>
<!-- Node19&#45;&gt;Node14 -->
<g id="edge39" class="edge">
<title>Node19&#45;&gt;Node14</title>
<path fill="none" stroke="midnightblue" d="M100.51,-224.32C118.07,-215.62 145.33,-202.12 165.53,-192.11"/>
<polygon fill="midnightblue" stroke="midnightblue" points="167.12,-195.23 174.53,-187.65 164.02,-188.96 167.12,-195.23"/>
</g>
<!-- Node20&#45;&gt;Node4 -->
<g id="edge54" class="edge">
<title>Node20&#45;&gt;Node4</title>
<path fill="none" stroke="midnightblue" d="M1053.58,-232.92C1131.25,-231.49 1266.22,-223.76 1297,-188 1302.8,-181.26 1301.82,-175.47 1297,-168 1257.1,-106.19 1027.34,-79.16 930.76,-70.41"/>
<polygon fill="midnightblue" stroke="midnightblue" points="931.01,-66.92 920.75,-69.53 930.4,-73.89 931.01,-66.92"/>
</g>
<!-- Node20&#45;&gt;Node5 -->
<g id="edge47" class="edge">
<title>Node20&#45;&gt;Node5</title>
<path fill="none" stroke="midnightblue" d="M995.3,-224.42C991.23,-211.82 983.03,-187.68 974,-168 969.71,-158.66 964.23,-148.63 959.5,-140.42"/>
<polygon fill="midnightblue" stroke="midnightblue" points="962.48,-138.6 954.39,-131.76 956.45,-142.15 962.48,-138.6"/>
</g>
<!-- Node20&#45;&gt;Node6 -->
<g id="edge53" class="edge">
<title>Node20&#45;&gt;Node6</title>
<path fill="none" stroke="midnightblue" d="M988.08,-224.46C971.42,-210.56 936.27,-183.08 902,-168 838.85,-140.21 815.95,-155.26 751,-132 731.91,-125.16 729.32,-118.16 710,-112 638.53,-89.19 552.61,-77.44 496.73,-71.76"/>
<polygon fill="midnightblue" stroke="midnightblue" points="496.95,-68.27 486.65,-70.77 496.26,-75.23 496.95,-68.27"/>
</g>
<!-- Node20&#45;&gt;Node11 -->
<g id="edge48" class="edge">
<title>Node20&#45;&gt;Node11</title>
<path fill="none" stroke="midnightblue" d="M942.38,-224.48C896.88,-216.87 831.11,-204.39 775,-188 724.94,-173.38 668.82,-150.23 635.77,-135.86"/>
<polygon fill="midnightblue" stroke="midnightblue" points="636.85,-132.51 626.28,-131.7 634.04,-138.93 636.85,-132.51"/>
</g>
<!-- Node21 -->
<g id="node21" class="node">
<title>Node21</title>
<g id="a_node21"><a xlink:href="ByteStream_8h.html" target="_top" target="_top" xlink:title=" ">
<polygon fill="none" stroke="black" points="1064.5,-168.5 1064.5,-187.5 1187.5,-187.5 1187.5,-168.5 1064.5,-168.5"/>
<text text-anchor="middle" x="1126" y="-175.5" font-family="Helvetica,sans-Serif" font-size="10.00">../Serial/ByteStream.h</text>
</a>
</g>
</g>
<!-- Node20&#45;&gt;Node21 -->
<g id="edge42" class="edge">
<title>Node20&#45;&gt;Node21</title>
<path fill="none" stroke="midnightblue" d="M1018.28,-224.44C1039.35,-215.56 1072.52,-201.56 1096.49,-191.45"/>
<polygon fill="midnightblue" stroke="midnightblue" points="1097.96,-194.63 1105.81,-187.52 1095.24,-188.18 1097.96,-194.63"/>
</g>
<!-- Node20&#45;&gt;Node23 -->
<g id="edge49" class="edge">
<title>Node20&#45;&gt;Node23</title>
<path fill="none" stroke="midnightblue" d="M1037.45,-224.44C1080.89,-215.02 1150.79,-199.87 1197.78,-189.68"/>
<polygon fill="midnightblue" stroke="midnightblue" points="1198.7,-193.06 1207.73,-187.52 1197.22,-186.22 1198.7,-193.06"/>
</g>
<!-- Node21&#45;&gt;Node4 -->
<g id="edge43" class="edge">
<title>Node21&#45;&gt;Node4</title>
<path fill="none" stroke="midnightblue" d="M1128,-168.12C1130.56,-154.23 1133.13,-127.38 1119,-112 1094.23,-85.03 990.91,-73.77 931.17,-69.44"/>
<polygon fill="midnightblue" stroke="midnightblue" points="931.13,-65.93 920.91,-68.73 930.65,-72.91 931.13,-65.93"/>
</g>
<!-- Node21&#45;&gt;Node22 -->
<g id="edge44" class="edge">
<title>Node21&#45;&gt;Node22</title>
<path fill="none" stroke="midnightblue" d="M1073.71,-168.44C1009.97,-158.01 903.25,-140.55 842.34,-130.58"/>
<polygon fill="midnightblue" stroke="midnightblue" points="842.68,-127.09 832.24,-128.93 841.55,-134 842.68,-127.09"/>
</g>
<!-- Node22&#45;&gt;Node6 -->
<g id="edge46" class="edge">
<title>Node22&#45;&gt;Node6</title>
<path fill="none" stroke="midnightblue" d="M759.97,-114.37C755.28,-113.55 750.53,-112.74 746,-112 659.35,-97.88 558.64,-83.56 496.61,-74.98"/>
<polygon fill="midnightblue" stroke="midnightblue" points="497.01,-71.5 486.62,-73.6 496.05,-78.43 497.01,-71.5"/>
</g>
<!-- Node22&#45;&gt;Node9 -->
<g id="edge45" class="edge">
<title>Node22&#45;&gt;Node9</title>
<path fill="none" stroke="midnightblue" d="M778.17,-112.32C760.28,-103.62 732.52,-90.12 711.95,-80.11"/>
<polygon fill="midnightblue" stroke="midnightblue" points="713.31,-76.88 702.79,-75.65 710.25,-83.18 713.31,-76.88"/>
</g>
<!-- Node23&#45;&gt;Node4 -->
<g id="edge50" class="edge">
<title>Node23&#45;&gt;Node4</title>
<path fill="none" stroke="midnightblue" d="M1235.62,-168.3C1216.53,-154.16 1176.38,-126.36 1138,-112 1068.2,-85.89 981.62,-74.65 930.83,-70.01"/>
<polygon fill="midnightblue" stroke="midnightblue" points="930.81,-66.5 920.55,-69.12 930.21,-73.47 930.81,-66.5"/>
</g>
<!-- Node23&#45;&gt;Node5 -->
<g id="edge51" class="edge">
<title>Node23&#45;&gt;Node5</title>
<path fill="none" stroke="midnightblue" d="M1205.25,-169.43C1153.34,-160.03 1064.5,-143.93 1006.26,-133.38"/>
<polygon fill="midnightblue" stroke="midnightblue" points="1006.58,-129.88 996.12,-131.54 1005.33,-136.76 1006.58,-129.88"/>
</g>
<!-- Node23&#45;&gt;Node8 -->
<g id="edge52" class="edge">
<title>Node23&#45;&gt;Node8</title>
<path fill="none" stroke="midnightblue" d="M1205.31,-169.22C1202.17,-168.77 1199.04,-168.35 1196,-168 908.75,-134.91 831.68,-160.78 540.54,-132.06"/>
<polygon fill="midnightblue" stroke="midnightblue" points="540.83,-128.58 530.53,-131.06 540.14,-135.54 540.83,-128.58"/>
</g>
</g>
</svg>
        <g id="navigator" transform="translate(0 0)" fill="#404254">
                <rect fill="#f2f5e9" fill-opacity="0.5" stroke="#606060" stroke-width=".5" x="0" y="0" width="60" height="60"/>
                <use id="zoomplus" xlink:href="#zoomPlus" target="_top" x="17" y="9" onmousedown="handleZoom(evt,'in')"/>
                <use id="zoomminus" xlink:href="#zoomMin" target="_top" x="42" y="9" onmousedown="handleZoom(evt,'out')"/>
                <use id="reset" xlink:href="#resetDef" target="_top" x="30" y="36" onmousedown="handleReset()"/>
                <g id="arrowUp" xlink:href="#dirArrow" target="_top" transform="translate(30 24)" onmousedown="handlePan(0,-1)">
                  <use xlink:href="#rim" target="_top" fill="#404040">
                        <set attributeName="fill" to="#808080" begin="arrowUp.mouseover" end="arrowUp.mouseout"/>
                  </use>
                  <path fill="none" stroke="white" stroke-width="1.5" d="M0,-3.0v7 M-2.5,-0.5L0,-3.0L2.5,-0.5"/>
                </g>
                <g id="arrowRight" xlink:href="#dirArrow" target="_top" transform="rotate(90) translate(36 -43)" onmousedown="handlePan(1,0)">
                  <use xlink:href="#rim" target="_top" fill="#404040">
                        <set attributeName="fill" to="#808080" begin="arrowRight.mouseover" end="arrowRight.mouseout"/>
                  </use>
                  <path fill="none" stroke="white" stroke-width="1.5" d="M0,-3.0v7 M-2.5,-0.5L0,-3.0L2.5,-0.5"/>
                </g>
                <g id="arrowDown" xlink:href="#dirArrow" target="_top" transform="rotate(180) translate(-30 -48)" onmousedown="handlePan(0,1)">
                  <use xlink:href="#rim" target="_top" fill="#404040">
                        <set attributeName="fill" to="#808080" begin="arrowDown.mouseover" end="arrowDown.mouseout"/>
                  </use>
                  <path fill="none" stroke="white" stroke-width="1.5" d="M0,-3.0v7 M-2.5,-0.5L0,-3.0L2.5,-0.5"/>
                </g>
                <g id="arrowLeft" xlink:href="#dirArrow" target="_top" transform="rotate(270) translate(-36 17)" onmousedown="handlePan(-1,0)">
                  <use xlink:href="#rim" target="_top" fill="#404040">
                        <set attributeName="fill" to="#808080" begin="arrowLeft.mouseover" end="arrowLeft.mouseout"/>
                  </use>
                  <path fill="none" stroke="white" stroke-width="1.5" d="M0,-3.0v7 M-2.5,-0.5L0,-3.0L2.5,-0.5"/>
                </g>
        </g>
        <svg viewBox="0 0 15 15" width="100%" height="30px" preserveAspectRatio="xMaxYMin meet">
         <g id="arrow_out" transform="scale(0.3 0.3)">
          <a xlink:href="FactoryReset_8cpp__incl_org.svg" target="_top" target="_base">
           <rect id="button" ry="5" rx="5" y="6" x="6" height="38" width="38"
                fill="#f2f5e9" fill-opacity="0.5" stroke="#606060" stroke-width="1.0"/>
           <path id="arrow"
             d="M 11.500037,31.436501 C 11.940474,20.09759 22.043105,11.32322 32.158766,21.979434 L 37.068811,17.246167 C 37.068811,17.246167 37.088388,32 37.088388,32 L 22.160133,31.978069 C 22.160133,31.978069 26.997745,27.140456 26.997745,27.140456 C 18.528582,18.264221 13.291696,25.230495 11.500037,31.436501 z"
             style="fill:#404040;"/>
          </a>
         </g>
        </svg>
</svg>
