<?xml version="1.0" encoding="UTF-8" standalone="no"?>
<!DOCTYPE svg PUBLIC "-//W3C//DTD SVG 1.1//EN"
 "http://www.w3.org/Graphics/SVG/1.1/DTD/svg11.dtd">
<!-- Generated by graphviz version 2.43.0 (0)
 -->
<!-- Title: VortexEngine/src/Wireless/IRSender.cpp Pages: 1 -->
<!--zoomable 319 -->
<svg id="main" version="1.1" xmlns="http://www.w3.org/2000/svg" xmlns:xlink="http://www.w3.org/1999/xlink" xml:space="preserve" onload="init(evt)">
<style type="text/css"><![CDATA[
.edge:hover path { stroke: red; }
.edge:hover polygon { stroke: red; fill: red; }
]]></style>
<script type="text/javascript"><![CDATA[
var edges = document.getElementsByTagName('g');
if (edges && edges.length) {
  for (var i=0;i<edges.length;i++) {
    if (edges[i].id.substr(0,4)=='edge') {
      edges[i].setAttribute('class','edge');
    }
  }
}
]]></script>
        <defs>
                <circle id="rim" cx="0" cy="0" r="7"/>
                <circle id="rim2" cx="0" cy="0" r="3.5"/>
                <g id="zoomPlus">
                        <use xlink:href="#rim" target="_top" fill="#404040">
                                <set attributeName="fill" to="#808080" begin="zoomplus.mouseover" end="zoomplus.mouseout"/>
                        </use>
                        <path d="M-4,0h8M0,-4v8" fill="none" stroke="white" stroke-width="1.5" pointer-events="none"/>
                </g>
                <g id="zoomMin">
                        <use xlink:href="#rim" target="_top" fill="#404040">
                                <set attributeName="fill" to="#808080" begin="zoomminus.mouseover" end="zoomminus.mouseout"/>
                        </use>
                        <path d="M-4,0h8" fill="none" stroke="white" stroke-width="1.5" pointer-events="none"/>
                </g>
                <g id="dirArrow">
                        <path fill="none" stroke="white" stroke-width="1.5" d="M0,-3.0v7 M-2.5,-0.5L0,-3.0L2.5,-0.5"/>
                </g>
               <g id="resetDef">
                       <use xlink:href="#rim2" target="_top" fill="#404040">
                               <set attributeName="fill" to="#808080" begin="reset.mouseover" end="reset.mouseout"/>
                       </use>
               </g>
        </defs>

<script type="text/javascript">
var viewWidth = 729;
var viewHeight = 319;
var sectionId = 'dynsection-0';
</script>
<script xlink:href="svgpan.js" target="_top"/>
<svg id="graph" class="graph">
<g id="viewport">
<title>VortexEngine/src/Wireless/IRSender.cpp</title>
<!-- Node1 -->
<g id="node1" class="node">
<title>Node1</title>
<g id="a_node1"><a xlink:title=" ">
<polygon fill="#bfbfbf" stroke="black" points="93.61,-280.5 93.61,-310.5 236.61,-310.5 236.61,-280.5 93.61,-280.5"/>
<text text-anchor="start" x="101.61" y="-298.5" font-family="Helvetica,sans-Serif" font-size="10.00">VortexEngine/src/Wireless</text>
<text text-anchor="middle" x="165.11" y="-287.5" font-family="Helvetica,sans-Serif" font-size="10.00">/IRSender.cpp</text>
</a>
</g>
</g>
<!-- Node2 -->
<g id="node2" class="node">
<title>Node2</title>
<g id="a_node2"><a xlink:href="IRSender_8h.html" target="_top" target="_top" xlink:title=" ">
<polygon fill="none" stroke="black" points="131.11,-224.5 131.11,-243.5 199.11,-243.5 199.11,-224.5 131.11,-224.5"/>
<text text-anchor="middle" x="165.11" y="-231.5" font-family="Helvetica,sans-Serif" font-size="10.00">IRSender.h</text>
</a>
</g>
</g>
<!-- Node1&#45;&gt;Node2 -->
<g id="edge1" class="edge">
<title>Node1&#45;&gt;Node2</title>
<path fill="none" stroke="midnightblue" d="M165.11,-280.4C165.11,-272.47 165.11,-262.46 165.11,-253.86"/>
<polygon fill="midnightblue" stroke="midnightblue" points="168.61,-253.66 165.11,-243.66 161.61,-253.66 168.61,-253.66"/>
</g>
<!-- Node5 -->
<g id="node5" class="node">
<title>Node5</title>
<g id="a_node5"><a xlink:href="Log_8h.html" target="_top" target="_top" xlink:title=" ">
<polygon fill="none" stroke="black" points="197.11,-112.5 197.11,-131.5 269.11,-131.5 269.11,-112.5 197.11,-112.5"/>
<text text-anchor="middle" x="233.11" y="-119.5" font-family="Helvetica,sans-Serif" font-size="10.00">../Log/Log.h</text>
</a>
</g>
</g>
<!-- Node1&#45;&gt;Node5 -->
<g id="edge24" class="edge">
<title>Node1&#45;&gt;Node5</title>
<path fill="none" stroke="midnightblue" d="M121.77,-280.47C63.23,-259.27 -29.48,-216.38 10.11,-168 32,-141.26 128.16,-130.05 186.83,-125.63"/>
<polygon fill="midnightblue" stroke="midnightblue" points="187.24,-129.11 196.97,-124.91 186.74,-122.13 187.24,-129.11"/>
</g>
<!-- Node10 -->
<g id="node10" class="node">
<title>Node10</title>
<g id="a_node10"><a xlink:href="IRConfig_8h.html" target="_top" target="_top" xlink:title=" ">
<polygon fill="none" stroke="black" points="19.11,-168.5 19.11,-187.5 85.11,-187.5 85.11,-168.5 19.11,-168.5"/>
<text text-anchor="middle" x="52.11" y="-175.5" font-family="Helvetica,sans-Serif" font-size="10.00">IRConfig.h</text>
</a>
</g>
</g>
<!-- Node1&#45;&gt;Node10 -->
<g id="edge11" class="edge">
<title>Node1&#45;&gt;Node10</title>
<path fill="none" stroke="midnightblue" d="M151.26,-280.34C130.06,-258.68 89.73,-217.45 67.6,-194.83"/>
<polygon fill="midnightblue" stroke="midnightblue" points="70.09,-192.37 60.59,-187.67 65.08,-197.27 70.09,-192.37"/>
</g>
<!-- Node11 -->
<g id="node11" class="node">
<title>Node11</title>
<g id="a_node11"><a xlink:href="TimeControl_8h.html" target="_top" target="_top" xlink:title=" ">
<polygon fill="none" stroke="black" points="348.11,-224.5 348.11,-243.5 470.11,-243.5 470.11,-224.5 348.11,-224.5"/>
<text text-anchor="middle" x="409.11" y="-231.5" font-family="Helvetica,sans-Serif" font-size="10.00">../Time/TimeControl.h</text>
</a>
</g>
</g>
<!-- Node1&#45;&gt;Node11 -->
<g id="edge12" class="edge">
<title>Node1&#45;&gt;Node11</title>
<path fill="none" stroke="midnightblue" d="M222.63,-280.47C265.92,-269.92 324.41,-255.66 364.27,-245.94"/>
<polygon fill="midnightblue" stroke="midnightblue" points="365.34,-249.28 374.23,-243.51 363.68,-242.48 365.34,-249.28"/>
</g>
<!-- Node13 -->
<g id="node13" class="node">
<title>Node13</title>
<g id="a_node13"><a xlink:href="Mode_8h.html" target="_top" target="_top" xlink:title=" ">
<polygon fill="none" stroke="black" points="532.61,-224.5 532.61,-243.5 629.61,-243.5 629.61,-224.5 532.61,-224.5"/>
<text text-anchor="middle" x="581.11" y="-231.5" font-family="Helvetica,sans-Serif" font-size="10.00">../Modes/Mode.h</text>
</a>
</g>
</g>
<!-- Node1&#45;&gt;Node13 -->
<g id="edge19" class="edge">
<title>Node1&#45;&gt;Node13</title>
<path fill="none" stroke="midnightblue" d="M236.62,-284.27C317.39,-272.72 447.3,-254.14 522.38,-243.4"/>
<polygon fill="midnightblue" stroke="midnightblue" points="523.19,-246.82 532.6,-241.94 522.2,-239.89 523.19,-246.82"/>
</g>
<!-- Node3 -->
<g id="node3" class="node">
<title>Node3</title>
<g id="a_node3"><a xlink:href="ByteStream_8h.html" target="_top" target="_top" xlink:title=" ">
<polygon fill="none" stroke="black" points="103.61,-168.5 103.61,-187.5 226.61,-187.5 226.61,-168.5 103.61,-168.5"/>
<text text-anchor="middle" x="165.11" y="-175.5" font-family="Helvetica,sans-Serif" font-size="10.00">../Serial/ByteStream.h</text>
</a>
</g>
</g>
<!-- Node2&#45;&gt;Node3 -->
<g id="edge2" class="edge">
<title>Node2&#45;&gt;Node3</title>
<path fill="none" stroke="midnightblue" d="M165.11,-224.08C165.11,-217.01 165.11,-206.86 165.11,-197.99"/>
<polygon fill="midnightblue" stroke="midnightblue" points="168.61,-197.75 165.11,-187.75 161.61,-197.75 168.61,-197.75"/>
</g>
<!-- Node9 -->
<g id="node9" class="node">
<title>Node9</title>
<g id="a_node9"><a xlink:href="BitStream_8h.html" target="_top" target="_top" xlink:title=" ">
<polygon fill="none" stroke="black" points="245.11,-168.5 245.11,-187.5 359.11,-187.5 359.11,-168.5 245.11,-168.5"/>
<text text-anchor="middle" x="302.11" y="-175.5" font-family="Helvetica,sans-Serif" font-size="10.00">../Serial/BitStream.h</text>
</a>
</g>
</g>
<!-- Node2&#45;&gt;Node9 -->
<g id="edge8" class="edge">
<title>Node2&#45;&gt;Node9</title>
<path fill="none" stroke="midnightblue" d="M186.82,-224.44C209.47,-215.52 245.18,-201.44 270.86,-191.32"/>
<polygon fill="midnightblue" stroke="midnightblue" points="272.49,-194.44 280.51,-187.52 269.92,-187.93 272.49,-194.44"/>
</g>
<!-- Node2&#45;&gt;Node10 -->
<g id="edge10" class="edge">
<title>Node2&#45;&gt;Node10</title>
<path fill="none" stroke="midnightblue" d="M147.21,-224.44C128.86,-215.68 100.11,-201.94 79.02,-191.86"/>
<polygon fill="midnightblue" stroke="midnightblue" points="80.46,-188.67 69.93,-187.52 77.45,-194.99 80.46,-188.67"/>
</g>
<!-- Node4 -->
<g id="node4" class="node">
<title>Node4</title>
<g id="a_node4"><a xlink:title=" ">
<polygon fill="none" stroke="#bfbfbf" points="354.61,-112.5 354.61,-131.5 419.61,-131.5 419.61,-112.5 354.61,-112.5"/>
<text text-anchor="middle" x="387.11" y="-119.5" font-family="Helvetica,sans-Serif" font-size="10.00">inttypes.h</text>
</a>
</g>
</g>
<!-- Node3&#45;&gt;Node4 -->
<g id="edge3" class="edge">
<title>Node3&#45;&gt;Node4</title>
<path fill="none" stroke="midnightblue" d="M200.29,-168.44C239.37,-158.94 302.47,-143.59 344.37,-133.4"/>
<polygon fill="midnightblue" stroke="midnightblue" points="345.38,-136.75 354.27,-130.99 343.73,-129.95 345.38,-136.75"/>
</g>
<!-- Node3&#45;&gt;Node5 -->
<g id="edge4" class="edge">
<title>Node3&#45;&gt;Node5</title>
<path fill="none" stroke="midnightblue" d="M176.04,-168.32C186.29,-160.18 201.83,-147.84 214.11,-138.09"/>
<polygon fill="midnightblue" stroke="midnightblue" points="216.33,-140.79 221.99,-131.83 211.98,-135.31 216.33,-140.79"/>
</g>
<!-- Node6 -->
<g id="node6" class="node">
<title>Node6</title>
<g id="a_node6"><a xlink:title=" ">
<polygon fill="none" stroke="#bfbfbf" points="427.11,-56.5 427.11,-75.5 483.11,-75.5 483.11,-56.5 427.11,-56.5"/>
<text text-anchor="middle" x="455.11" y="-63.5" font-family="Helvetica,sans-Serif" font-size="10.00">stdarg.h</text>
</a>
</g>
</g>
<!-- Node5&#45;&gt;Node6 -->
<g id="edge5" class="edge">
<title>Node5&#45;&gt;Node6</title>
<path fill="none" stroke="midnightblue" d="M268.29,-112.44C308.84,-102.58 375.24,-86.43 417,-76.27"/>
<polygon fill="midnightblue" stroke="midnightblue" points="417.9,-79.65 426.79,-73.89 416.25,-72.85 417.9,-79.65"/>
</g>
<!-- Node7 -->
<g id="node7" class="node">
<title>Node7</title>
<g id="a_node7"><a xlink:href="VortexConfig_8h.html" target="_top" target="_top" xlink:title=" ">
<polygon fill="none" stroke="black" points="605.61,-56.5 605.61,-75.5 702.61,-75.5 702.61,-56.5 605.61,-56.5"/>
<text text-anchor="middle" x="654.11" y="-63.5" font-family="Helvetica,sans-Serif" font-size="10.00">../VortexConfig.h</text>
</a>
</g>
</g>
<!-- Node5&#45;&gt;Node7 -->
<g id="edge6" class="edge">
<title>Node5&#45;&gt;Node7</title>
<path fill="none" stroke="midnightblue" d="M269.37,-116.35C342.18,-107.01 506.75,-85.9 595.21,-74.55"/>
<polygon fill="midnightblue" stroke="midnightblue" points="595.88,-78 605.36,-73.25 594.99,-71.05 595.88,-78"/>
</g>
<!-- Node8 -->
<g id="node8" class="node">
<title>Node8</title>
<g id="a_node8"><a xlink:href="ColorConstants_8h.html" target="_top" target="_top" xlink:title=" ">
<polygon fill="none" stroke="black" points="587.11,-0.5 587.11,-19.5 721.11,-19.5 721.11,-0.5 587.11,-0.5"/>
<text text-anchor="middle" x="654.11" y="-7.5" font-family="Helvetica,sans-Serif" font-size="10.00">Colors/ColorConstants.h</text>
</a>
</g>
</g>
<!-- Node7&#45;&gt;Node8 -->
<g id="edge7" class="edge">
<title>Node7&#45;&gt;Node8</title>
<path fill="none" stroke="midnightblue" d="M654.11,-56.08C654.11,-49.01 654.11,-38.86 654.11,-29.99"/>
<polygon fill="midnightblue" stroke="midnightblue" points="657.61,-29.75 654.11,-19.75 650.61,-29.75 657.61,-29.75"/>
</g>
<!-- Node9&#45;&gt;Node4 -->
<g id="edge9" class="edge">
<title>Node9&#45;&gt;Node4</title>
<path fill="none" stroke="midnightblue" d="M315.77,-168.32C329.03,-159.9 349.38,-146.97 364.96,-137.07"/>
<polygon fill="midnightblue" stroke="midnightblue" points="366.92,-139.97 373.49,-131.65 363.17,-134.06 366.92,-139.97"/>
</g>
<!-- Node11&#45;&gt;Node4 -->
<g id="edge13" class="edge">
<title>Node11&#45;&gt;Node4</title>
<path fill="none" stroke="midnightblue" d="M407.39,-224.37C403.83,-206.62 395.64,-165.67 390.83,-141.6"/>
<polygon fill="midnightblue" stroke="midnightblue" points="394.22,-140.71 388.83,-131.59 387.36,-142.08 394.22,-140.71"/>
</g>
<!-- Node11&#45;&gt;Node7 -->
<g id="edge14" class="edge">
<title>Node11&#45;&gt;Node7</title>
<path fill="none" stroke="midnightblue" d="M470.31,-226.37C542.01,-217.98 652.67,-202.82 665.11,-188 689.55,-158.89 674.14,-110.82 662.87,-84.9"/>
<polygon fill="midnightblue" stroke="midnightblue" points="665.92,-83.17 658.56,-75.55 659.57,-86.1 665.92,-83.17"/>
</g>
<!-- Node12 -->
<g id="node12" class="node">
<title>Node12</title>
<g id="a_node12"><a xlink:href="LedTypes_8h.html" target="_top" target="_top" xlink:title=" ">
<polygon fill="none" stroke="black" points="550.61,-168.5 550.61,-187.5 655.61,-187.5 655.61,-168.5 550.61,-168.5"/>
<text text-anchor="middle" x="603.11" y="-175.5" font-family="Helvetica,sans-Serif" font-size="10.00">../Leds/LedTypes.h</text>
</a>
</g>
</g>
<!-- Node11&#45;&gt;Node12 -->
<g id="edge15" class="edge">
<title>Node11&#45;&gt;Node12</title>
<path fill="none" stroke="midnightblue" d="M439.85,-224.44C473.06,-215.2 526.1,-200.44 562.67,-190.26"/>
<polygon fill="midnightblue" stroke="midnightblue" points="563.82,-193.57 572.52,-187.52 561.94,-186.83 563.82,-193.57"/>
</g>
<!-- Node12&#45;&gt;Node4 -->
<g id="edge16" class="edge">
<title>Node12&#45;&gt;Node4</title>
<path fill="none" stroke="midnightblue" d="M568.89,-168.44C531.16,-159.01 470.43,-143.83 429.67,-133.64"/>
<polygon fill="midnightblue" stroke="midnightblue" points="430.31,-130.19 419.76,-131.16 428.62,-136.98 430.31,-130.19"/>
</g>
<!-- Node12&#45;&gt;Node6 -->
<g id="edge17" class="edge">
<title>Node12&#45;&gt;Node6</title>
<path fill="none" stroke="midnightblue" d="M591.5,-168.37C566.32,-149.65 506.44,-105.15 475.07,-81.83"/>
<polygon fill="midnightblue" stroke="midnightblue" points="476.78,-78.75 466.67,-75.59 472.61,-84.37 476.78,-78.75"/>
</g>
<!-- Node12&#45;&gt;Node7 -->
<g id="edge18" class="edge">
<title>Node12&#45;&gt;Node7</title>
<path fill="none" stroke="midnightblue" d="M607.11,-168.37C615.42,-150.46 634.67,-108.92 645.79,-84.95"/>
<polygon fill="midnightblue" stroke="midnightblue" points="649.1,-86.14 650.13,-75.59 642.75,-83.19 649.1,-86.14"/>
</g>
<!-- Node13&#45;&gt;Node7 -->
<g id="edge23" class="edge">
<title>Node13&#45;&gt;Node7</title>
<path fill="none" stroke="midnightblue" d="M629.87,-227.26C654.68,-221.59 682.77,-210.33 698.11,-188 717.23,-160.16 710.86,-143.28 698.11,-112 693.31,-100.23 683.78,-89.86 674.82,-82.05"/>
<polygon fill="midnightblue" stroke="midnightblue" points="676.87,-79.2 666.89,-75.63 672.46,-84.64 676.87,-79.2"/>
</g>
<!-- Node13&#45;&gt;Node12 -->
<g id="edge20" class="edge">
<title>Node13&#45;&gt;Node12</title>
<path fill="none" stroke="midnightblue" d="M584.74,-224.08C587.72,-216.77 592.04,-206.18 595.74,-197.1"/>
<polygon fill="midnightblue" stroke="midnightblue" points="599.01,-198.33 599.55,-187.75 592.53,-195.69 599.01,-198.33"/>
</g>
<!-- Node14 -->
<g id="node14" class="node">
<title>Node14</title>
<g id="a_node14"><a xlink:href="Patterns_8h.html" target="_top" target="_top" xlink:title=" ">
<polygon fill="none" stroke="black" points="415.61,-168.5 415.61,-187.5 532.61,-187.5 532.61,-168.5 415.61,-168.5"/>
<text text-anchor="middle" x="474.11" y="-175.5" font-family="Helvetica,sans-Serif" font-size="10.00">../Patterns/Patterns.h</text>
</a>
</g>
</g>
<!-- Node13&#45;&gt;Node14 -->
<g id="edge21" class="edge">
<title>Node13&#45;&gt;Node14</title>
<path fill="none" stroke="midnightblue" d="M563.92,-224.32C546.76,-215.66 520.17,-202.24 500.36,-192.25"/>
<polygon fill="midnightblue" stroke="midnightblue" points="501.76,-189.04 491.26,-187.65 498.61,-195.28 501.76,-189.04"/>
</g>
<!-- Node14&#45;&gt;Node4 -->
<g id="edge22" class="edge">
<title>Node14&#45;&gt;Node4</title>
<path fill="none" stroke="midnightblue" d="M460.13,-168.32C446.56,-159.9 425.73,-146.97 409.79,-137.07"/>
<polygon fill="midnightblue" stroke="midnightblue" points="411.4,-133.95 401.05,-131.65 407.71,-139.9 411.4,-133.95"/>
</g>
</g>
</svg>
        <g id="navigator" transform="translate(0 0)" fill="#404254">
                <rect fill="#f2f5e9" fill-opacity="0.5" stroke="#606060" stroke-width=".5" x="0" y="0" width="60" height="60"/>
                <use id="zoomplus" xlink:href="#zoomPlus" target="_top" x="17" y="9" onmousedown="handleZoom(evt,'in')"/>
                <use id="zoomminus" xlink:href="#zoomMin" target="_top" x="42" y="9" onmousedown="handleZoom(evt,'out')"/>
                <use id="reset" xlink:href="#resetDef" target="_top" x="30" y="36" onmousedown="handleReset()"/>
                <g id="arrowUp" xlink:href="#dirArrow" target="_top" transform="translate(30 24)" onmousedown="handlePan(0,-1)">
                  <use xlink:href="#rim" target="_top" fill="#404040">
                        <set attributeName="fill" to="#808080" begin="arrowUp.mouseover" end="arrowUp.mouseout"/>
                  </use>
                  <path fill="none" stroke="white" stroke-width="1.5" d="M0,-3.0v7 M-2.5,-0.5L0,-3.0L2.5,-0.5"/>
                </g>
                <g id="arrowRight" xlink:href="#dirArrow" target="_top" transform="rotate(90) translate(36 -43)" onmousedown="handlePan(1,0)">
                  <use xlink:href="#rim" target="_top" fill="#404040">
                        <set attributeName="fill" to="#808080" begin="arrowRight.mouseover" end="arrowRight.mouseout"/>
                  </use>
                  <path fill="none" stroke="white" stroke-width="1.5" d="M0,-3.0v7 M-2.5,-0.5L0,-3.0L2.5,-0.5"/>
                </g>
                <g id="arrowDown" xlink:href="#dirArrow" target="_top" transform="rotate(180) translate(-30 -48)" onmousedown="handlePan(0,1)">
                  <use xlink:href="#rim" target="_top" fill="#404040">
                        <set attributeName="fill" to="#808080" begin="arrowDown.mouseover" end="arrowDown.mouseout"/>
                  </use>
                  <path fill="none" stroke="white" stroke-width="1.5" d="M0,-3.0v7 M-2.5,-0.5L0,-3.0L2.5,-0.5"/>
                </g>
                <g id="arrowLeft" xlink:href="#dirArrow" target="_top" transform="rotate(270) translate(-36 17)" onmousedown="handlePan(-1,0)">
                  <use xlink:href="#rim" target="_top" fill="#404040">
                        <set attributeName="fill" to="#808080" begin="arrowLeft.mouseover" end="arrowLeft.mouseout"/>
                  </use>
                  <path fill="none" stroke="white" stroke-width="1.5" d="M0,-3.0v7 M-2.5,-0.5L0,-3.0L2.5,-0.5"/>
                </g>
        </g>
        <svg viewBox="0 0 15 15" width="100%" height="30px" preserveAspectRatio="xMaxYMin meet">
         <g id="arrow_out" transform="scale(0.3 0.3)">
          <a xlink:href="IRSender_8cpp__incl_org.svg" target="_top" target="_base">
           <rect id="button" ry="5" rx="5" y="6" x="6" height="38" width="38"
                fill="#f2f5e9" fill-opacity="0.5" stroke="#606060" stroke-width="1.0"/>
           <path id="arrow"
             d="M 11.500037,31.436501 C 11.940474,20.09759 22.043105,11.32322 32.158766,21.979434 L 37.068811,17.246167 C 37.068811,17.246167 37.088388,32 37.088388,32 L 22.160133,31.978069 C 22.160133,31.978069 26.997745,27.140456 26.997745,27.140456 C 18.528582,18.264221 13.291696,25.230495 11.500037,31.436501 z"
             style="fill:#404040;"/>
          </a>
         </g>
        </svg>
</svg>
