<?xml version="1.0" encoding="UTF-8" standalone="no"?>
<!DOCTYPE svg PUBLIC "-//W3C//DTD SVG 1.1//EN"
 "http://www.w3.org/Graphics/SVG/1.1/DTD/svg11.dtd">
<!-- Generated by graphviz version 2.43.0 (0)
 -->
<!-- Title: VortexEngine/src/Leds/Leds.h Pages: 1 -->
<svg width="320pt" height="207pt"
 viewBox="0.00 0.00 320.00 207.00" xmlns="http://www.w3.org/2000/svg" xmlns:xlink="http://www.w3.org/1999/xlink">
<g id="graph0" class="graph" transform="scale(1 1) rotate(0) translate(4 203)">
<title>VortexEngine/src/Leds/Leds.h</title>
<!-- Node1 -->
<g id="node1" class="node">
<title>Node1</title>
<g id="a_node1"><a xlink:title=" ">
<polygon fill="#bfbfbf" stroke="black" points="133,-168.5 133,-198.5 257,-198.5 257,-168.5 133,-168.5"/>
<text text-anchor="start" x="141" y="-186.5" font-family="Helvetica,sans-Serif" font-size="10.00">VortexEngine/src/Leds</text>
<text text-anchor="middle" x="195" y="-175.5" font-family="Helvetica,sans-Serif" font-size="10.00">/Leds.h</text>
</a>
</g>
</g>
<!-- Node2 -->
<g id="node2" class="node">
<title>Node2</title>
<g id="a_node2"><a xlink:title=" ">
<polygon fill="none" stroke="#bfbfbf" points="172.5,-56.5 172.5,-75.5 237.5,-75.5 237.5,-56.5 172.5,-56.5"/>
<text text-anchor="middle" x="205" y="-63.5" font-family="Helvetica,sans-Serif" font-size="10.00">inttypes.h</text>
</a>
</g>
</g>
<!-- Node1&#45;&gt;Node2 -->
<g id="edge1" class="edge">
<title>Node1&#45;&gt;Node2</title>
<path fill="none" stroke="midnightblue" d="M196.23,-168.34C198.02,-147.62 201.36,-109.02 203.36,-85.9"/>
<polygon fill="midnightblue" stroke="midnightblue" points="206.87,-85.93 204.25,-75.67 199.9,-85.33 206.87,-85.93"/>
</g>
<!-- Node3 -->
<g id="node3" class="node">
<title>Node3</title>
<g id="a_node3"><a xlink:href="ColorTypes_8h.html" target="_top" xlink:title=" ">
<polygon fill="none" stroke="black" points="45,-112.5 45,-131.5 167,-131.5 167,-112.5 45,-112.5"/>
<text text-anchor="middle" x="106" y="-119.5" font-family="Helvetica,sans-Serif" font-size="10.00">../Colors/ColorTypes.h</text>
</a>
</g>
</g>
<!-- Node1&#45;&gt;Node3 -->
<g id="edge2" class="edge">
<title>Node1&#45;&gt;Node3</title>
<path fill="none" stroke="midnightblue" d="M173.91,-168.4C159.91,-159.04 141.59,-146.79 127.51,-137.38"/>
<polygon fill="midnightblue" stroke="midnightblue" points="129.21,-134.31 118.95,-131.66 125.32,-140.13 129.21,-134.31"/>
</g>
<!-- Node6 -->
<g id="node6" class="node">
<title>Node6</title>
<g id="a_node6"><a xlink:href="LedTypes_8h.html" target="_top" xlink:title=" ">
<polygon fill="none" stroke="black" points="223.5,-112.5 223.5,-131.5 294.5,-131.5 294.5,-112.5 223.5,-112.5"/>
<text text-anchor="middle" x="259" y="-119.5" font-family="Helvetica,sans-Serif" font-size="10.00">LedTypes.h</text>
</a>
</g>
</g>
<!-- Node1&#45;&gt;Node6 -->
<g id="edge7" class="edge">
<title>Node1&#45;&gt;Node6</title>
<path fill="none" stroke="midnightblue" d="M210.17,-168.4C219.75,-159.49 232.16,-147.95 242.07,-138.74"/>
<polygon fill="midnightblue" stroke="midnightblue" points="244.75,-141.03 249.69,-131.66 239.98,-135.9 244.75,-141.03"/>
</g>
<!-- Node3&#45;&gt;Node2 -->
<g id="edge3" class="edge">
<title>Node3&#45;&gt;Node2</title>
<path fill="none" stroke="midnightblue" d="M121.91,-112.32C137.64,-103.74 161.94,-90.49 180.21,-80.52"/>
<polygon fill="midnightblue" stroke="midnightblue" points="182.03,-83.52 189.13,-75.65 178.68,-77.37 182.03,-83.52"/>
</g>
<!-- Node4 -->
<g id="node4" class="node">
<title>Node4</title>
<g id="a_node4"><a xlink:href="VortexConfig_8h.html" target="_top" xlink:title=" ">
<polygon fill="none" stroke="black" points="57.5,-56.5 57.5,-75.5 154.5,-75.5 154.5,-56.5 57.5,-56.5"/>
<text text-anchor="middle" x="106" y="-63.5" font-family="Helvetica,sans-Serif" font-size="10.00">../VortexConfig.h</text>
</a>
</g>
</g>
<!-- Node3&#45;&gt;Node4 -->
<g id="edge4" class="edge">
<title>Node3&#45;&gt;Node4</title>
<path fill="none" stroke="midnightblue" d="M106,-112.08C106,-105.01 106,-94.86 106,-85.99"/>
<polygon fill="midnightblue" stroke="midnightblue" points="109.5,-85.75 106,-75.75 102.5,-85.75 109.5,-85.75"/>
</g>
<!-- Node5 -->
<g id="node5" class="node">
<title>Node5</title>
<g id="a_node5"><a xlink:href="ColorConstants_8h.html" target="_top" xlink:title=" ">
<polygon fill="none" stroke="black" points="0,-0.5 0,-19.5 134,-19.5 134,-0.5 0,-0.5"/>
<text text-anchor="middle" x="67" y="-7.5" font-family="Helvetica,sans-Serif" font-size="10.00">Colors/ColorConstants.h</text>
</a>
</g>
</g>
<!-- Node3&#45;&gt;Node5 -->
<g id="edge6" class="edge">
<title>Node3&#45;&gt;Node5</title>
<path fill="none" stroke="midnightblue" d="M87.61,-112.47C73.9,-105 56.19,-92.71 48,-76 40.51,-60.71 47.58,-41.91 55.13,-28.47"/>
<polygon fill="midnightblue" stroke="midnightblue" points="58.23,-30.11 60.51,-19.76 52.28,-26.43 58.23,-30.11"/>
</g>
<!-- Node4&#45;&gt;Node5 -->
<g id="edge5" class="edge">
<title>Node4&#45;&gt;Node5</title>
<path fill="none" stroke="midnightblue" d="M99.56,-56.08C94.05,-48.46 85.97,-37.26 79.24,-27.94"/>
<polygon fill="midnightblue" stroke="midnightblue" points="82.01,-25.81 73.32,-19.75 76.34,-29.91 82.01,-25.81"/>
</g>
<!-- Node6&#45;&gt;Node2 -->
<g id="edge8" class="edge">
<title>Node6&#45;&gt;Node2</title>
<path fill="none" stroke="midnightblue" d="M250.08,-112.08C242.22,-104.22 230.57,-92.57 221.08,-83.08"/>
<polygon fill="midnightblue" stroke="midnightblue" points="223.3,-80.35 213.75,-75.75 218.35,-85.3 223.3,-80.35"/>
</g>
<!-- Node6&#45;&gt;Node4 -->
<g id="edge10" class="edge">
<title>Node6&#45;&gt;Node4</title>
<path fill="none" stroke="midnightblue" d="M234.76,-112.44C209.13,-103.4 168.51,-89.06 139.76,-78.92"/>
<polygon fill="midnightblue" stroke="midnightblue" points="140.72,-75.54 130.13,-75.52 138.39,-82.15 140.72,-75.54"/>
</g>
<!-- Node7 -->
<g id="node7" class="node">
<title>Node7</title>
<g id="a_node7"><a xlink:title=" ">
<polygon fill="none" stroke="#bfbfbf" points="256,-56.5 256,-75.5 312,-75.5 312,-56.5 256,-56.5"/>
<text text-anchor="middle" x="284" y="-63.5" font-family="Helvetica,sans-Serif" font-size="10.00">stdarg.h</text>
</a>
</g>
</g>
<!-- Node6&#45;&gt;Node7 -->
<g id="edge9" class="edge">
<title>Node6&#45;&gt;Node7</title>
<path fill="none" stroke="midnightblue" d="M263.13,-112.08C266.51,-104.77 271.42,-94.18 275.62,-85.1"/>
<polygon fill="midnightblue" stroke="midnightblue" points="278.92,-86.3 279.95,-75.75 272.57,-83.36 278.92,-86.3"/>
</g>
</g>
</svg>
