<?xml version="1.0" encoding="UTF-8" standalone="no"?>
<!DOCTYPE svg PUBLIC "-//W3C//DTD SVG 1.1//EN"
 "http://www.w3.org/Graphics/SVG/1.1/DTD/svg11.dtd">
<!-- Generated by graphviz version 2.43.0 (0)
 -->
<!-- Title: VortexEngine/src/Menus/Menus.h Pages: 1 -->
<svg width="446pt" height="263pt"
 viewBox="0.00 0.00 446.25 263.00" xmlns="http://www.w3.org/2000/svg" xmlns:xlink="http://www.w3.org/1999/xlink">
<g id="graph0" class="graph" transform="scale(1 1) rotate(0) translate(4 259)">
<title>VortexEngine/src/Menus/Menus.h</title>
<!-- Node1 -->
<g id="node1" class="node">
<title>Node1</title>
<g id="a_node1"><a xlink:title=" ">
<polygon fill="#bfbfbf" stroke="black" points="111.75,-224.5 111.75,-254.5 245.75,-254.5 245.75,-224.5 111.75,-224.5"/>
<text text-anchor="start" x="119.75" y="-242.5" font-family="Helvetica,sans-Serif" font-size="10.00">VortexEngine/src/Menus</text>
<text text-anchor="middle" x="178.75" y="-231.5" font-family="Helvetica,sans-Serif" font-size="10.00">/Menus.h</text>
</a>
</g>
</g>
<!-- Node2 -->
<g id="node2" class="node">
<title>Node2</title>
<g id="a_node2"><a xlink:title=" ">
<polygon fill="none" stroke="#bfbfbf" points="140.25,-56.5 140.25,-75.5 205.25,-75.5 205.25,-56.5 140.25,-56.5"/>
<text text-anchor="middle" x="172.75" y="-63.5" font-family="Helvetica,sans-Serif" font-size="10.00">inttypes.h</text>
</a>
</g>
</g>
<!-- Node1&#45;&gt;Node2 -->
<g id="edge1" class="edge">
<title>Node1&#45;&gt;Node2</title>
<path fill="none" stroke="midnightblue" d="M128.9,-224.45C66.01,-204.21 -29.49,-163.54 9.75,-112 24.28,-92.92 86.66,-79.86 129.9,-72.91"/>
<polygon fill="midnightblue" stroke="midnightblue" points="130.55,-76.35 139.89,-71.36 129.47,-69.44 130.55,-76.35"/>
</g>
<!-- Node3 -->
<g id="node3" class="node">
<title>Node3</title>
<g id="a_node3"><a xlink:href="ColorTypes_8h.html" target="_top" target="_top" xlink:title=" ">
<polygon fill="none" stroke="black" points="18.75,-112.5 18.75,-131.5 140.75,-131.5 140.75,-112.5 18.75,-112.5"/>
<text text-anchor="middle" x="79.75" y="-119.5" font-family="Helvetica,sans-Serif" font-size="10.00">../Colors/ColorTypes.h</text>
</a>
</g>
</g>
<!-- Node1&#45;&gt;Node3 -->
<g id="edge2" class="edge">
<title>Node1&#45;&gt;Node3</title>
<path fill="none" stroke="midnightblue" d="M166.61,-224.34C148.2,-202.86 113.32,-162.17 93.83,-139.43"/>
<polygon fill="midnightblue" stroke="midnightblue" points="96.34,-136.98 87.18,-131.67 91.03,-141.54 96.34,-136.98"/>
</g>
<!-- Node6 -->
<g id="node6" class="node">
<title>Node6</title>
<g id="a_node6"><a xlink:href="LedTypes_8h.html" target="_top" target="_top" xlink:title=" ">
<polygon fill="none" stroke="black" points="333.25,-112.5 333.25,-131.5 438.25,-131.5 438.25,-112.5 333.25,-112.5"/>
<text text-anchor="middle" x="385.75" y="-119.5" font-family="Helvetica,sans-Serif" font-size="10.00">../Leds/LedTypes.h</text>
</a>
</g>
</g>
<!-- Node1&#45;&gt;Node6 -->
<g id="edge7" class="edge">
<title>Node1&#45;&gt;Node6</title>
<path fill="none" stroke="midnightblue" d="M218.81,-224.45C242.7,-215.39 273.25,-202.6 298.75,-188 324.24,-173.4 350.94,-152.49 367.92,-138.36"/>
<polygon fill="midnightblue" stroke="midnightblue" points="370.48,-140.78 375.86,-131.66 365.96,-135.43 370.48,-140.78"/>
</g>
<!-- Node8 -->
<g id="node8" class="node">
<title>Node8</title>
<g id="a_node8"><a xlink:href="Mode_8h.html" target="_top" target="_top" xlink:title=" ">
<polygon fill="none" stroke="black" points="192.25,-168.5 192.25,-187.5 289.25,-187.5 289.25,-168.5 192.25,-168.5"/>
<text text-anchor="middle" x="240.75" y="-175.5" font-family="Helvetica,sans-Serif" font-size="10.00">../Modes/Mode.h</text>
</a>
</g>
</g>
<!-- Node1&#45;&gt;Node8 -->
<g id="edge11" class="edge">
<title>Node1&#45;&gt;Node8</title>
<path fill="none" stroke="midnightblue" d="M193.44,-224.4C202.73,-215.49 214.75,-203.95 224.34,-194.74"/>
<polygon fill="midnightblue" stroke="midnightblue" points="226.93,-197.11 231.72,-187.66 222.09,-192.06 226.93,-197.11"/>
</g>
<!-- Node3&#45;&gt;Node2 -->
<g id="edge3" class="edge">
<title>Node3&#45;&gt;Node2</title>
<path fill="none" stroke="midnightblue" d="M94.69,-112.32C109.33,-103.82 131.88,-90.73 148.98,-80.8"/>
<polygon fill="midnightblue" stroke="midnightblue" points="150.95,-83.7 157.84,-75.65 147.44,-77.65 150.95,-83.7"/>
</g>
<!-- Node4 -->
<g id="node4" class="node">
<title>Node4</title>
<g id="a_node4"><a xlink:href="VortexConfig_8h.html" target="_top" target="_top" xlink:title=" ">
<polygon fill="none" stroke="black" points="236.25,-56.5 236.25,-75.5 333.25,-75.5 333.25,-56.5 236.25,-56.5"/>
<text text-anchor="middle" x="284.75" y="-63.5" font-family="Helvetica,sans-Serif" font-size="10.00">../VortexConfig.h</text>
</a>
</g>
</g>
<!-- Node3&#45;&gt;Node4 -->
<g id="edge4" class="edge">
<title>Node3&#45;&gt;Node4</title>
<path fill="none" stroke="midnightblue" d="M112.23,-112.44C147.47,-103.16 203.85,-88.31 242.51,-78.13"/>
<polygon fill="midnightblue" stroke="midnightblue" points="243.64,-81.45 252.42,-75.52 241.85,-74.68 243.64,-81.45"/>
</g>
<!-- Node5 -->
<g id="node5" class="node">
<title>Node5</title>
<g id="a_node5"><a xlink:href="ColorConstants_8h.html" target="_top" target="_top" xlink:title=" ">
<polygon fill="none" stroke="black" points="118.75,-0.5 118.75,-19.5 252.75,-19.5 252.75,-0.5 118.75,-0.5"/>
<text text-anchor="middle" x="185.75" y="-7.5" font-family="Helvetica,sans-Serif" font-size="10.00">Colors/ColorConstants.h</text>
</a>
</g>
</g>
<!-- Node3&#45;&gt;Node5 -->
<g id="edge6" class="edge">
<title>Node3&#45;&gt;Node5</title>
<path fill="none" stroke="midnightblue" d="M85.96,-112.13C95.23,-99.16 113.54,-74.58 131.75,-56 142.29,-45.24 155.22,-34.4 165.79,-26.05"/>
<polygon fill="midnightblue" stroke="midnightblue" points="168.24,-28.57 174,-19.68 163.95,-23.04 168.24,-28.57"/>
</g>
<!-- Node4&#45;&gt;Node5 -->
<g id="edge5" class="edge">
<title>Node4&#45;&gt;Node5</title>
<path fill="none" stroke="midnightblue" d="M268.84,-56.32C253.11,-47.74 228.8,-34.49 210.54,-24.52"/>
<polygon fill="midnightblue" stroke="midnightblue" points="212.07,-21.37 201.61,-19.65 208.72,-27.52 212.07,-21.37"/>
</g>
<!-- Node6&#45;&gt;Node2 -->
<g id="edge8" class="edge">
<title>Node6&#45;&gt;Node2</title>
<path fill="none" stroke="midnightblue" d="M352,-112.44C314.9,-103.04 255.26,-87.92 215.07,-77.73"/>
<polygon fill="midnightblue" stroke="midnightblue" points="215.84,-74.32 205.29,-75.25 214.12,-81.1 215.84,-74.32"/>
</g>
<!-- Node6&#45;&gt;Node4 -->
<g id="edge10" class="edge">
<title>Node6&#45;&gt;Node4</title>
<path fill="none" stroke="midnightblue" d="M369.52,-112.32C353.4,-103.7 328.45,-90.36 309.78,-80.39"/>
<polygon fill="midnightblue" stroke="midnightblue" points="311.4,-77.28 300.93,-75.65 308.1,-83.46 311.4,-77.28"/>
</g>
<!-- Node7 -->
<g id="node7" class="node">
<title>Node7</title>
<g id="a_node7"><a xlink:title=" ">
<polygon fill="none" stroke="#bfbfbf" points="357.75,-56.5 357.75,-75.5 413.75,-75.5 413.75,-56.5 357.75,-56.5"/>
<text text-anchor="middle" x="385.75" y="-63.5" font-family="Helvetica,sans-Serif" font-size="10.00">stdarg.h</text>
</a>
</g>
</g>
<!-- Node6&#45;&gt;Node7 -->
<g id="edge9" class="edge">
<title>Node6&#45;&gt;Node7</title>
<path fill="none" stroke="midnightblue" d="M385.75,-112.08C385.75,-105.01 385.75,-94.86 385.75,-85.99"/>
<polygon fill="midnightblue" stroke="midnightblue" points="389.25,-85.75 385.75,-75.75 382.25,-85.75 389.25,-85.75"/>
</g>
<!-- Node8&#45;&gt;Node4 -->
<g id="edge15" class="edge">
<title>Node8&#45;&gt;Node4</title>
<path fill="none" stroke="midnightblue" d="M253.81,-168.44C264.66,-160.47 279.32,-147.52 285.75,-132 291.82,-117.34 290.92,-99.17 288.87,-85.77"/>
<polygon fill="midnightblue" stroke="midnightblue" points="292.29,-85.01 287.01,-75.82 285.41,-86.3 292.29,-85.01"/>
</g>
<!-- Node8&#45;&gt;Node6 -->
<g id="edge12" class="edge">
<title>Node8&#45;&gt;Node6</title>
<path fill="none" stroke="midnightblue" d="M263.72,-168.44C287.9,-159.44 326.16,-145.19 353.39,-135.05"/>
<polygon fill="midnightblue" stroke="midnightblue" points="354.73,-138.29 362.88,-131.52 352.29,-131.73 354.73,-138.29"/>
</g>
<!-- Node9 -->
<g id="node9" class="node">
<title>Node9</title>
<g id="a_node9"><a xlink:href="Patterns_8h.html" target="_top" target="_top" xlink:title=" ">
<polygon fill="none" stroke="black" points="159.25,-112.5 159.25,-131.5 276.25,-131.5 276.25,-112.5 159.25,-112.5"/>
<text text-anchor="middle" x="217.75" y="-119.5" font-family="Helvetica,sans-Serif" font-size="10.00">../Patterns/Patterns.h</text>
</a>
</g>
</g>
<!-- Node8&#45;&gt;Node9 -->
<g id="edge13" class="edge">
<title>Node8&#45;&gt;Node9</title>
<path fill="none" stroke="midnightblue" d="M236.95,-168.08C233.83,-160.77 229.32,-150.18 225.46,-141.1"/>
<polygon fill="midnightblue" stroke="midnightblue" points="228.61,-139.58 221.47,-131.75 222.17,-142.32 228.61,-139.58"/>
</g>
<!-- Node9&#45;&gt;Node2 -->
<g id="edge14" class="edge">
<title>Node9&#45;&gt;Node2</title>
<path fill="none" stroke="midnightblue" d="M210.32,-112.08C203.89,-104.38 194.44,-93.03 186.62,-83.65"/>
<polygon fill="midnightblue" stroke="midnightblue" points="189.13,-81.19 180.04,-75.75 183.75,-85.67 189.13,-81.19"/>
</g>
</g>
</svg>
