<?xml version="1.0" encoding="UTF-8" standalone="no"?>
<!DOCTYPE svg PUBLIC "-//W3C//DTD SVG 1.1//EN"
 "http://www.w3.org/Graphics/SVG/1.1/DTD/svg11.dtd">
<!-- Generated by graphviz version 2.43.0 (0)
 -->
<!-- Title: VortexEngine/src/Modes/Modes.h Pages: 1 -->
<!--zoomable 263 -->
<svg id="main" version="1.1" xmlns="http://www.w3.org/2000/svg" xmlns:xlink="http://www.w3.org/1999/xlink" xml:space="preserve" onload="init(evt)">
<style type="text/css"><![CDATA[
.edge:hover path { stroke: red; }
.edge:hover polygon { stroke: red; fill: red; }
]]></style>
<script type="text/javascript"><![CDATA[
var edges = document.getElementsByTagName('g');
if (edges && edges.length) {
  for (var i=0;i<edges.length;i++) {
    if (edges[i].id.substr(0,4)=='edge') {
      edges[i].setAttribute('class','edge');
    }
  }
}
]]></script>
        <defs>
                <circle id="rim" cx="0" cy="0" r="7"/>
                <circle id="rim2" cx="0" cy="0" r="3.5"/>
                <g id="zoomPlus">
                        <use xlink:href="#rim" target="_top" fill="#404040">
                                <set attributeName="fill" to="#808080" begin="zoomplus.mouseover" end="zoomplus.mouseout"/>
                        </use>
                        <path d="M-4,0h8M0,-4v8" fill="none" stroke="white" stroke-width="1.5" pointer-events="none"/>
                </g>
                <g id="zoomMin">
                        <use xlink:href="#rim" target="_top" fill="#404040">
                                <set attributeName="fill" to="#808080" begin="zoomminus.mouseover" end="zoomminus.mouseout"/>
                        </use>
                        <path d="M-4,0h8" fill="none" stroke="white" stroke-width="1.5" pointer-events="none"/>
                </g>
                <g id="dirArrow">
                        <path fill="none" stroke="white" stroke-width="1.5" d="M0,-3.0v7 M-2.5,-0.5L0,-3.0L2.5,-0.5"/>
                </g>
               <g id="resetDef">
                       <use xlink:href="#rim2" target="_top" fill="#404040">
                               <set attributeName="fill" to="#808080" begin="reset.mouseover" end="reset.mouseout"/>
                       </use>
               </g>
        </defs>

<script type="text/javascript">
var viewWidth = 574;
var viewHeight = 263;
var sectionId = 'dynsection-0';
</script>
<script xlink:href="svgpan.js" target="_top"/>
<svg id="graph" class="graph">
<g id="viewport">
<title>VortexEngine/src/Modes/Modes.h</title>
<!-- Node1 -->
<g id="node1" class="node">
<title>Node1</title>
<g id="a_node1"><a xlink:title=" ">
<polygon fill="#bfbfbf" stroke="black" points="228.5,-224.5 228.5,-254.5 362.5,-254.5 362.5,-224.5 228.5,-224.5"/>
<text text-anchor="start" x="236.5" y="-242.5" font-family="Helvetica,sans-Serif" font-size="10.00">VortexEngine/src/Modes</text>
<text text-anchor="middle" x="295.5" y="-231.5" font-family="Helvetica,sans-Serif" font-size="10.00">/Modes.h</text>
</a>
</g>
</g>
<!-- Node2 -->
<g id="node2" class="node">
<title>Node2</title>
<g id="a_node2"><a xlink:href="ByteStream_8h.html" target="_top" target="_top" xlink:title=" ">
<polygon fill="none" stroke="black" points="174,-168.5 174,-187.5 297,-187.5 297,-168.5 174,-168.5"/>
<text text-anchor="middle" x="235.5" y="-175.5" font-family="Helvetica,sans-Serif" font-size="10.00">../Serial/ByteStream.h</text>
</a>
</g>
</g>
<!-- Node1&#45;&gt;Node2 -->
<g id="edge1" class="edge">
<title>Node1&#45;&gt;Node2</title>
<path fill="none" stroke="midnightblue" d="M281.28,-224.4C272.29,-215.49 260.66,-203.95 251.37,-194.74"/>
<polygon fill="midnightblue" stroke="midnightblue" points="253.8,-192.21 244.23,-187.66 248.87,-197.18 253.8,-192.21"/>
</g>
<!-- Node3 -->
<g id="node3" class="node">
<title>Node3</title>
<g id="a_node3"><a xlink:title=" ">
<polygon fill="none" stroke="#bfbfbf" points="176,-56.5 176,-75.5 241,-75.5 241,-56.5 176,-56.5"/>
<text text-anchor="middle" x="208.5" y="-63.5" font-family="Helvetica,sans-Serif" font-size="10.00">inttypes.h</text>
</a>
</g>
</g>
<!-- Node1&#45;&gt;Node3 -->
<g id="edge21" class="edge">
<title>Node1&#45;&gt;Node3</title>
<path fill="none" stroke="midnightblue" d="M228.34,-228.75C204.09,-221.62 179.12,-209.3 164.5,-188 141.53,-154.53 173.29,-107.66 193.69,-83.24"/>
<polygon fill="midnightblue" stroke="midnightblue" points="196.41,-85.45 200.32,-75.6 191.12,-80.86 196.41,-85.45"/>
</g>
<!-- Node6 -->
<g id="node6" class="node">
<title>Node6</title>
<g id="a_node6"><a xlink:href="VortexConfig_8h.html" target="_top" target="_top" xlink:title=" ">
<polygon fill="none" stroke="black" points="365,-56.5 365,-75.5 462,-75.5 462,-56.5 365,-56.5"/>
<text text-anchor="middle" x="413.5" y="-63.5" font-family="Helvetica,sans-Serif" font-size="10.00">../VortexConfig.h</text>
</a>
</g>
</g>
<!-- Node1&#45;&gt;Node6 -->
<g id="edge20" class="edge">
<title>Node1&#45;&gt;Node6</title>
<path fill="none" stroke="midnightblue" d="M362.64,-232.67C426.08,-223.15 517.71,-198.06 560.5,-132 584.47,-95 522.88,-78.92 472.2,-72.02"/>
<polygon fill="midnightblue" stroke="midnightblue" points="472.6,-68.54 462.24,-70.76 471.72,-75.49 472.6,-68.54"/>
</g>
<!-- Node8 -->
<g id="node8" class="node">
<title>Node8</title>
<g id="a_node8"><a xlink:href="ColorTypes_8h.html" target="_top" target="_top" xlink:title=" ">
<polygon fill="none" stroke="black" points="429.5,-112.5 429.5,-131.5 551.5,-131.5 551.5,-112.5 429.5,-112.5"/>
<text text-anchor="middle" x="490.5" y="-119.5" font-family="Helvetica,sans-Serif" font-size="10.00">../Colors/ColorTypes.h</text>
</a>
</g>
</g>
<!-- Node1&#45;&gt;Node8 -->
<g id="edge7" class="edge">
<title>Node1&#45;&gt;Node8</title>
<path fill="none" stroke="midnightblue" d="M331.81,-224.49C354.02,-215.31 382.66,-202.38 406.5,-188 431.11,-173.16 456.88,-152.3 473.29,-138.25"/>
<polygon fill="midnightblue" stroke="midnightblue" points="475.7,-140.79 480.95,-131.59 471.11,-135.5 475.7,-140.79"/>
</g>
<!-- Node9 -->
<g id="node9" class="node">
<title>Node9</title>
<g id="a_node9"><a xlink:href="Patterns_8h.html" target="_top" target="_top" xlink:title=" ">
<polygon fill="none" stroke="black" points="0,-168.5 0,-187.5 117,-187.5 117,-168.5 0,-168.5"/>
<text text-anchor="middle" x="58.5" y="-175.5" font-family="Helvetica,sans-Serif" font-size="10.00">../Patterns/Patterns.h</text>
</a>
</g>
</g>
<!-- Node1&#45;&gt;Node9 -->
<g id="edge11" class="edge">
<title>Node1&#45;&gt;Node9</title>
<path fill="none" stroke="midnightblue" d="M239.63,-224.47C197.68,-213.94 141.01,-199.72 102.31,-190"/>
<polygon fill="midnightblue" stroke="midnightblue" points="102.93,-186.55 92.38,-187.51 101.23,-193.34 102.93,-186.55"/>
</g>
<!-- Node10 -->
<g id="node10" class="node">
<title>Node10</title>
<g id="a_node10"><a xlink:href="Leds_8h.html" target="_top" target="_top" xlink:title=" ">
<polygon fill="none" stroke="black" points="315,-168.5 315,-187.5 398,-187.5 398,-168.5 315,-168.5"/>
<text text-anchor="middle" x="356.5" y="-175.5" font-family="Helvetica,sans-Serif" font-size="10.00">../Leds/Leds.h</text>
</a>
</g>
</g>
<!-- Node1&#45;&gt;Node10 -->
<g id="edge13" class="edge">
<title>Node1&#45;&gt;Node10</title>
<path fill="none" stroke="midnightblue" d="M309.96,-224.4C319.09,-215.49 330.92,-203.95 340.36,-194.74"/>
<polygon fill="midnightblue" stroke="midnightblue" points="342.91,-197.15 347.62,-187.66 338.02,-192.13 342.91,-197.15"/>
</g>
<!-- Node2&#45;&gt;Node3 -->
<g id="edge2" class="edge">
<title>Node2&#45;&gt;Node3</title>
<path fill="none" stroke="midnightblue" d="M228.09,-168.41C221.22,-159.84 211.49,-145.98 207.5,-132 203.18,-116.89 203.86,-98.99 205.37,-85.81"/>
<polygon fill="midnightblue" stroke="midnightblue" points="208.88,-86.01 206.81,-75.62 201.95,-85.03 208.88,-86.01"/>
</g>
<!-- Node4 -->
<g id="node4" class="node">
<title>Node4</title>
<g id="a_node4"><a xlink:href="Log_8h.html" target="_top" target="_top" xlink:title=" ">
<polygon fill="none" stroke="black" points="339.5,-112.5 339.5,-131.5 411.5,-131.5 411.5,-112.5 339.5,-112.5"/>
<text text-anchor="middle" x="375.5" y="-119.5" font-family="Helvetica,sans-Serif" font-size="10.00">../Log/Log.h</text>
</a>
</g>
</g>
<!-- Node2&#45;&gt;Node4 -->
<g id="edge3" class="edge">
<title>Node2&#45;&gt;Node4</title>
<path fill="none" stroke="midnightblue" d="M257.68,-168.44C280.93,-159.48 317.65,-145.31 343.92,-135.18"/>
<polygon fill="midnightblue" stroke="midnightblue" points="345.35,-138.38 353.42,-131.52 342.83,-131.85 345.35,-138.38"/>
</g>
<!-- Node5 -->
<g id="node5" class="node">
<title>Node5</title>
<g id="a_node5"><a xlink:title=" ">
<polygon fill="none" stroke="#bfbfbf" points="270.5,-56.5 270.5,-75.5 326.5,-75.5 326.5,-56.5 270.5,-56.5"/>
<text text-anchor="middle" x="298.5" y="-63.5" font-family="Helvetica,sans-Serif" font-size="10.00">stdarg.h</text>
</a>
</g>
</g>
<!-- Node4&#45;&gt;Node5 -->
<g id="edge4" class="edge">
<title>Node4&#45;&gt;Node5</title>
<path fill="none" stroke="midnightblue" d="M363.13,-112.32C351.34,-104.06 333.37,-91.45 319.36,-81.63"/>
<polygon fill="midnightblue" stroke="midnightblue" points="321.04,-78.53 310.84,-75.65 317.02,-84.26 321.04,-78.53"/>
</g>
<!-- Node4&#45;&gt;Node6 -->
<g id="edge5" class="edge">
<title>Node4&#45;&gt;Node6</title>
<path fill="none" stroke="midnightblue" d="M381.77,-112.08C387.14,-104.46 395.02,-93.26 401.58,-83.94"/>
<polygon fill="midnightblue" stroke="midnightblue" points="404.45,-85.94 407.34,-75.75 398.72,-81.91 404.45,-85.94"/>
</g>
<!-- Node7 -->
<g id="node7" class="node">
<title>Node7</title>
<g id="a_node7"><a xlink:href="ColorConstants_8h.html" target="_top" target="_top" xlink:title=" ">
<polygon fill="none" stroke="black" points="384.5,-0.5 384.5,-19.5 518.5,-19.5 518.5,-0.5 384.5,-0.5"/>
<text text-anchor="middle" x="451.5" y="-7.5" font-family="Helvetica,sans-Serif" font-size="10.00">Colors/ColorConstants.h</text>
</a>
</g>
</g>
<!-- Node6&#45;&gt;Node7 -->
<g id="edge6" class="edge">
<title>Node6&#45;&gt;Node7</title>
<path fill="none" stroke="midnightblue" d="M419.77,-56.08C425.14,-48.46 433.02,-37.26 439.58,-27.94"/>
<polygon fill="midnightblue" stroke="midnightblue" points="442.45,-29.94 445.34,-19.75 436.72,-25.91 442.45,-29.94"/>
</g>
<!-- Node8&#45;&gt;Node3 -->
<g id="edge8" class="edge">
<title>Node8&#45;&gt;Node3</title>
<path fill="none" stroke="midnightblue" d="M445.82,-112.44C392.38,-102.21 303.6,-85.21 251.1,-75.16"/>
<polygon fill="midnightblue" stroke="midnightblue" points="251.59,-71.69 241.11,-73.24 250.27,-78.56 251.59,-71.69"/>
</g>
<!-- Node8&#45;&gt;Node6 -->
<g id="edge9" class="edge">
<title>Node8&#45;&gt;Node6</title>
<path fill="none" stroke="midnightblue" d="M478.13,-112.32C466.34,-104.06 448.37,-91.45 434.36,-81.63"/>
<polygon fill="midnightblue" stroke="midnightblue" points="436.04,-78.53 425.84,-75.65 432.02,-84.26 436.04,-78.53"/>
</g>
<!-- Node8&#45;&gt;Node7 -->
<g id="edge10" class="edge">
<title>Node8&#45;&gt;Node7</title>
<path fill="none" stroke="midnightblue" d="M488.18,-112.5C484.7,-99.99 477.77,-75.97 470.5,-56 467.2,-46.92 463.07,-37.01 459.51,-28.81"/>
<polygon fill="midnightblue" stroke="midnightblue" points="462.65,-27.25 455.4,-19.52 456.25,-30.09 462.65,-27.25"/>
</g>
<!-- Node9&#45;&gt;Node3 -->
<g id="edge12" class="edge">
<title>Node9&#45;&gt;Node3</title>
<path fill="none" stroke="midnightblue" d="M67.01,-168.4C80.16,-155.35 106.51,-130.15 131.5,-112 147.79,-100.17 167.39,-88.75 182.74,-80.37"/>
<polygon fill="midnightblue" stroke="midnightblue" points="184.53,-83.39 191.68,-75.57 181.22,-77.22 184.53,-83.39"/>
</g>
<!-- Node10&#45;&gt;Node3 -->
<g id="edge14" class="edge">
<title>Node10&#45;&gt;Node3</title>
<path fill="none" stroke="midnightblue" d="M314.91,-168.81C290.8,-162.28 261.21,-150.97 240.5,-132 226.9,-119.54 218.38,-100.03 213.59,-85.63"/>
<polygon fill="midnightblue" stroke="midnightblue" points="216.86,-84.38 210.62,-75.82 210.16,-86.41 216.86,-84.38"/>
</g>
<!-- Node10&#45;&gt;Node8 -->
<g id="edge15" class="edge">
<title>Node10&#45;&gt;Node8</title>
<path fill="none" stroke="midnightblue" d="M377.73,-168.44C399.88,-159.52 434.82,-145.44 459.94,-135.32"/>
<polygon fill="midnightblue" stroke="midnightblue" points="461.4,-138.5 469.37,-131.52 458.78,-132.01 461.4,-138.5"/>
</g>
<!-- Node11 -->
<g id="node11" class="node">
<title>Node11</title>
<g id="a_node11"><a xlink:href="LedTypes_8h.html" target="_top" target="_top" xlink:title=" ">
<polygon fill="none" stroke="black" points="250,-112.5 250,-131.5 321,-131.5 321,-112.5 250,-112.5"/>
<text text-anchor="middle" x="285.5" y="-119.5" font-family="Helvetica,sans-Serif" font-size="10.00">LedTypes.h</text>
</a>
</g>
</g>
<!-- Node10&#45;&gt;Node11 -->
<g id="edge16" class="edge">
<title>Node10&#45;&gt;Node11</title>
<path fill="none" stroke="midnightblue" d="M345.09,-168.32C334.39,-160.18 318.16,-147.84 305.34,-138.09"/>
<polygon fill="midnightblue" stroke="midnightblue" points="307.19,-135.1 297.11,-131.83 302.96,-140.67 307.19,-135.1"/>
</g>
<!-- Node11&#45;&gt;Node3 -->
<g id="edge17" class="edge">
<title>Node11&#45;&gt;Node3</title>
<path fill="none" stroke="midnightblue" d="M273.13,-112.32C261.34,-104.06 243.37,-91.45 229.36,-81.63"/>
<polygon fill="midnightblue" stroke="midnightblue" points="231.04,-78.53 220.84,-75.65 227.02,-84.26 231.04,-78.53"/>
</g>
<!-- Node11&#45;&gt;Node5 -->
<g id="edge18" class="edge">
<title>Node11&#45;&gt;Node5</title>
<path fill="none" stroke="midnightblue" d="M287.65,-112.08C289.37,-104.93 291.85,-94.64 294,-85.69"/>
<polygon fill="midnightblue" stroke="midnightblue" points="297.46,-86.29 296.39,-75.75 290.65,-84.65 297.46,-86.29"/>
</g>
<!-- Node11&#45;&gt;Node6 -->
<g id="edge19" class="edge">
<title>Node11&#45;&gt;Node6</title>
<path fill="none" stroke="midnightblue" d="M305.78,-112.44C326.85,-103.56 360.02,-89.56 383.99,-79.45"/>
<polygon fill="midnightblue" stroke="midnightblue" points="385.46,-82.63 393.31,-75.52 382.74,-76.18 385.46,-82.63"/>
</g>
</g>
</svg>
        <g id="navigator" transform="translate(0 0)" fill="#404254">
                <rect fill="#f2f5e9" fill-opacity="0.5" stroke="#606060" stroke-width=".5" x="0" y="0" width="60" height="60"/>
                <use id="zoomplus" xlink:href="#zoomPlus" target="_top" x="17" y="9" onmousedown="handleZoom(evt,'in')"/>
                <use id="zoomminus" xlink:href="#zoomMin" target="_top" x="42" y="9" onmousedown="handleZoom(evt,'out')"/>
                <use id="reset" xlink:href="#resetDef" target="_top" x="30" y="36" onmousedown="handleReset()"/>
                <g id="arrowUp" xlink:href="#dirArrow" target="_top" transform="translate(30 24)" onmousedown="handlePan(0,-1)">
                  <use xlink:href="#rim" target="_top" fill="#404040">
                        <set attributeName="fill" to="#808080" begin="arrowUp.mouseover" end="arrowUp.mouseout"/>
                  </use>
                  <path fill="none" stroke="white" stroke-width="1.5" d="M0,-3.0v7 M-2.5,-0.5L0,-3.0L2.5,-0.5"/>
                </g>
                <g id="arrowRight" xlink:href="#dirArrow" target="_top" transform="rotate(90) translate(36 -43)" onmousedown="handlePan(1,0)">
                  <use xlink:href="#rim" target="_top" fill="#404040">
                        <set attributeName="fill" to="#808080" begin="arrowRight.mouseover" end="arrowRight.mouseout"/>
                  </use>
                  <path fill="none" stroke="white" stroke-width="1.5" d="M0,-3.0v7 M-2.5,-0.5L0,-3.0L2.5,-0.5"/>
                </g>
                <g id="arrowDown" xlink:href="#dirArrow" target="_top" transform="rotate(180) translate(-30 -48)" onmousedown="handlePan(0,1)">
                  <use xlink:href="#rim" target="_top" fill="#404040">
                        <set attributeName="fill" to="#808080" begin="arrowDown.mouseover" end="arrowDown.mouseout"/>
                  </use>
                  <path fill="none" stroke="white" stroke-width="1.5" d="M0,-3.0v7 M-2.5,-0.5L0,-3.0L2.5,-0.5"/>
                </g>
                <g id="arrowLeft" xlink:href="#dirArrow" target="_top" transform="rotate(270) translate(-36 17)" onmousedown="handlePan(-1,0)">
                  <use xlink:href="#rim" target="_top" fill="#404040">
                        <set attributeName="fill" to="#808080" begin="arrowLeft.mouseover" end="arrowLeft.mouseout"/>
                  </use>
                  <path fill="none" stroke="white" stroke-width="1.5" d="M0,-3.0v7 M-2.5,-0.5L0,-3.0L2.5,-0.5"/>
                </g>
        </g>
        <svg viewBox="0 0 15 15" width="100%" height="30px" preserveAspectRatio="xMaxYMin meet">
         <g id="arrow_out" transform="scale(0.3 0.3)">
          <a xlink:href="Modes_8h__incl_org.svg" target="_top" target="_base">
           <rect id="button" ry="5" rx="5" y="6" x="6" height="38" width="38"
                fill="#f2f5e9" fill-opacity="0.5" stroke="#606060" stroke-width="1.0"/>
           <path id="arrow"
             d="M 11.500037,31.436501 C 11.940474,20.09759 22.043105,11.32322 32.158766,21.979434 L 37.068811,17.246167 C 37.068811,17.246167 37.088388,32 37.088388,32 L 22.160133,31.978069 C 22.160133,31.978069 26.997745,27.140456 26.997745,27.140456 C 18.528582,18.264221 13.291696,25.230495 11.500037,31.436501 z"
             style="fill:#404040;"/>
          </a>
         </g>
        </svg>
</svg>
