<?xml version="1.0" encoding="UTF-8" standalone="no"?>
<!DOCTYPE svg PUBLIC "-//W3C//DTD SVG 1.1//EN"
 "http://www.w3.org/Graphics/SVG/1.1/DTD/svg11.dtd">
<!-- Generated by graphviz version 2.43.0 (0)
 -->
<!-- Title: VortexEngine/src/Patterns/Multi/Sequencer/Sequence.cpp Pages: 1 -->
<!--zoomable 319 -->
<svg id="main" version="1.1" xmlns="http://www.w3.org/2000/svg" xmlns:xlink="http://www.w3.org/1999/xlink" xml:space="preserve" onload="init(evt)">
<style type="text/css"><![CDATA[
.edge:hover path { stroke: red; }
.edge:hover polygon { stroke: red; fill: red; }
]]></style>
<script type="text/javascript"><![CDATA[
var edges = document.getElementsByTagName('g');
if (edges && edges.length) {
  for (var i=0;i<edges.length;i++) {
    if (edges[i].id.substr(0,4)=='edge') {
      edges[i].setAttribute('class','edge');
    }
  }
}
]]></script>
        <defs>
                <circle id="rim" cx="0" cy="0" r="7"/>
                <circle id="rim2" cx="0" cy="0" r="3.5"/>
                <g id="zoomPlus">
                        <use xlink:href="#rim" target="_top" fill="#404040">
                                <set attributeName="fill" to="#808080" begin="zoomplus.mouseover" end="zoomplus.mouseout"/>
                        </use>
                        <path d="M-4,0h8M0,-4v8" fill="none" stroke="white" stroke-width="1.5" pointer-events="none"/>
                </g>
                <g id="zoomMin">
                        <use xlink:href="#rim" target="_top" fill="#404040">
                                <set attributeName="fill" to="#808080" begin="zoomminus.mouseover" end="zoomminus.mouseout"/>
                        </use>
                        <path d="M-4,0h8" fill="none" stroke="white" stroke-width="1.5" pointer-events="none"/>
                </g>
                <g id="dirArrow">
                        <path fill="none" stroke="white" stroke-width="1.5" d="M0,-3.0v7 M-2.5,-0.5L0,-3.0L2.5,-0.5"/>
                </g>
               <g id="resetDef">
                       <use xlink:href="#rim2" target="_top" fill="#404040">
                               <set attributeName="fill" to="#808080" begin="reset.mouseover" end="reset.mouseout"/>
                       </use>
               </g>
        </defs>

<script type="text/javascript">
var viewWidth = 785;
var viewHeight = 319;
var sectionId = 'dynsection-0';
</script>
<script xlink:href="svgpan.js" target="_top"/>
<svg id="graph" class="graph">
<g id="viewport">
<title>VortexEngine/src/Patterns/Multi/Sequencer/Sequence.cpp</title>
<!-- Node1 -->
<g id="node1" class="node">
<title>Node1</title>
<g id="a_node1"><a xlink:title=" ">
<polygon fill="#bfbfbf" stroke="black" points="512,-280.5 512,-310.5 681,-310.5 681,-280.5 512,-280.5"/>
<text text-anchor="start" x="520" y="-298.5" font-family="Helvetica,sans-Serif" font-size="10.00">VortexEngine/src/Patterns</text>
<text text-anchor="middle" x="596.5" y="-287.5" font-family="Helvetica,sans-Serif" font-size="10.00">/Multi/Sequencer/Sequence.cpp</text>
</a>
</g>
</g>
<!-- Node2 -->
<g id="node2" class="node">
<title>Node2</title>
<g id="a_node2"><a xlink:href="Sequence_8h.html" target="_top" target="_top" xlink:title=" ">
<polygon fill="none" stroke="black" points="159,-224.5 159,-243.5 232,-243.5 232,-224.5 159,-224.5"/>
<text text-anchor="middle" x="195.5" y="-231.5" font-family="Helvetica,sans-Serif" font-size="10.00">Sequence.h</text>
</a>
</g>
</g>
<!-- Node1&#45;&gt;Node2 -->
<g id="edge1" class="edge">
<title>Node1&#45;&gt;Node2</title>
<path fill="none" stroke="midnightblue" d="M511.95,-281.95C429.94,-269.79 308.49,-251.77 242.44,-241.97"/>
<polygon fill="midnightblue" stroke="midnightblue" points="242.74,-238.47 232.33,-240.47 241.71,-245.4 242.74,-238.47"/>
</g>
<!-- Node12 -->
<g id="node12" class="node">
<title>Node12</title>
<g id="a_node12"><a xlink:href="ByteStream_8h.html" target="_top" target="_top" xlink:title=" ">
<polygon fill="none" stroke="black" points="343,-168.5 343,-187.5 484,-187.5 484,-168.5 343,-168.5"/>
<text text-anchor="middle" x="413.5" y="-175.5" font-family="Helvetica,sans-Serif" font-size="10.00">../../../Serial/ByteStream.h</text>
</a>
</g>
</g>
<!-- Node1&#45;&gt;Node12 -->
<g id="edge18" class="edge">
<title>Node1&#45;&gt;Node12</title>
<path fill="none" stroke="midnightblue" d="M574.06,-280.34C538.84,-258.11 470.98,-215.28 435.83,-193.09"/>
<polygon fill="midnightblue" stroke="midnightblue" points="437.56,-190.05 427.24,-187.67 433.82,-195.97 437.56,-190.05"/>
</g>
<!-- Node13 -->
<g id="node13" class="node">
<title>Node13</title>
<g id="a_node13"><a xlink:href="Log_8h.html" target="_top" target="_top" xlink:title=" ">
<polygon fill="none" stroke="black" points="465.5,-112.5 465.5,-131.5 537.5,-131.5 537.5,-112.5 465.5,-112.5"/>
<text text-anchor="middle" x="501.5" y="-119.5" font-family="Helvetica,sans-Serif" font-size="10.00">../Log/Log.h</text>
</a>
</g>
</g>
<!-- Node1&#45;&gt;Node13 -->
<g id="edge31" class="edge">
<title>Node1&#45;&gt;Node13</title>
<path fill="none" stroke="midnightblue" d="M608.9,-280.32C629.03,-255.49 664.15,-203.42 638.5,-168 617.99,-139.67 579.06,-128.86 547.93,-124.88"/>
<polygon fill="midnightblue" stroke="midnightblue" points="548.03,-121.37 537.71,-123.78 547.28,-128.33 548.03,-121.37"/>
</g>
<!-- Node14 -->
<g id="node14" class="node">
<title>Node14</title>
<g id="a_node14"><a xlink:href="Memory_8h.html" target="_top" target="_top" xlink:title=" ">
<polygon fill="none" stroke="black" points="594,-112.5 594,-131.5 729,-131.5 729,-112.5 594,-112.5"/>
<text text-anchor="middle" x="661.5" y="-119.5" font-family="Helvetica,sans-Serif" font-size="10.00">../../../Memory/Memory.h</text>
</a>
</g>
</g>
<!-- Node1&#45;&gt;Node14 -->
<g id="edge23" class="edge">
<title>Node1&#45;&gt;Node14</title>
<path fill="none" stroke="midnightblue" d="M631.19,-280.34C646.46,-272.15 662.87,-260.21 671.5,-244 689.01,-211.1 677.56,-165.92 668.8,-141.12"/>
<polygon fill="midnightblue" stroke="midnightblue" points="672,-139.68 665.19,-131.55 665.45,-142.15 672,-139.68"/>
</g>
<!-- Node16 -->
<g id="node16" class="node">
<title>Node16</title>
<g id="a_node16"><a xlink:href="Leds_8h.html" target="_top" target="_top" xlink:title=" ">
<polygon fill="none" stroke="black" points="224,-168.5 224,-187.5 325,-187.5 325,-168.5 224,-168.5"/>
<text text-anchor="middle" x="274.5" y="-175.5" font-family="Helvetica,sans-Serif" font-size="10.00">../../../Leds/Leds.h</text>
</a>
</g>
</g>
<!-- Node1&#45;&gt;Node16 -->
<g id="edge27" class="edge">
<title>Node1&#45;&gt;Node16</title>
<path fill="none" stroke="midnightblue" d="M557.34,-280.45C493.49,-257.55 368.07,-212.56 308.05,-191.03"/>
<polygon fill="midnightblue" stroke="midnightblue" points="308.91,-187.62 298.31,-187.54 306.55,-194.21 308.91,-187.62"/>
</g>
<!-- Node17 -->
<g id="node17" class="node">
<title>Node17</title>
<g id="a_node17"><a xlink:title=" ">
<polygon fill="none" stroke="#bfbfbf" points="724,-224.5 724,-243.5 777,-243.5 777,-224.5 724,-224.5"/>
<text text-anchor="middle" x="750.5" y="-231.5" font-family="Helvetica,sans-Serif" font-size="10.00">string.h</text>
</a>
</g>
</g>
<!-- Node1&#45;&gt;Node17 -->
<g id="edge32" class="edge">
<title>Node1&#45;&gt;Node17</title>
<path fill="none" stroke="midnightblue" d="M633,-280.4C659.07,-270.33 693.79,-256.91 718.72,-247.28"/>
<polygon fill="midnightblue" stroke="midnightblue" points="720.03,-250.53 728.09,-243.66 717.5,-244 720.03,-250.53"/>
</g>
<!-- Node3 -->
<g id="node3" class="node">
<title>Node3</title>
<g id="a_node3"><a xlink:href="Patterns_8h.html" target="_top" target="_top" xlink:title=" ">
<polygon fill="none" stroke="black" points="0,-112.5 0,-131.5 83,-131.5 83,-112.5 0,-112.5"/>
<text text-anchor="middle" x="41.5" y="-119.5" font-family="Helvetica,sans-Serif" font-size="10.00">../../Patterns.h</text>
</a>
</g>
</g>
<!-- Node2&#45;&gt;Node3 -->
<g id="edge2" class="edge">
<title>Node2&#45;&gt;Node3</title>
<path fill="none" stroke="midnightblue" d="M158.91,-232.14C125.44,-229.27 77.19,-219.45 50.5,-188 39.8,-175.39 38.34,-156.18 39.08,-141.9"/>
<polygon fill="midnightblue" stroke="midnightblue" points="42.59,-142.02 40.02,-131.74 35.62,-141.38 42.59,-142.02"/>
</g>
<!-- Node5 -->
<g id="node5" class="node">
<title>Node5</title>
<g id="a_node5"><a xlink:href="LedTypes_8h.html" target="_top" target="_top" xlink:title=" ">
<polygon fill="none" stroke="black" points="188,-112.5 188,-131.5 311,-131.5 311,-112.5 188,-112.5"/>
<text text-anchor="middle" x="249.5" y="-119.5" font-family="Helvetica,sans-Serif" font-size="10.00">../../../Leds/LedTypes.h</text>
</a>
</g>
</g>
<!-- Node2&#45;&gt;Node5 -->
<g id="edge4" class="edge">
<title>Node2&#45;&gt;Node5</title>
<path fill="none" stroke="midnightblue" d="M197.18,-224.22C199.87,-211.37 205.82,-186.92 215.5,-168 220.73,-157.78 228.3,-147.48 234.97,-139.32"/>
<polygon fill="midnightblue" stroke="midnightblue" points="237.66,-141.57 241.46,-131.68 232.32,-137.03 237.66,-141.57"/>
</g>
<!-- Node9 -->
<g id="node9" class="node">
<title>Node9</title>
<g id="a_node9"><a xlink:href="Colorset_8h.html" target="_top" target="_top" xlink:title=" ">
<polygon fill="none" stroke="black" points="502,-168.5 502,-187.5 629,-187.5 629,-168.5 502,-168.5"/>
<text text-anchor="middle" x="565.5" y="-175.5" font-family="Helvetica,sans-Serif" font-size="10.00">../../../Colors/Colorset.h</text>
</a>
</g>
</g>
<!-- Node2&#45;&gt;Node9 -->
<g id="edge9" class="edge">
<title>Node2&#45;&gt;Node9</title>
<path fill="none" stroke="midnightblue" d="M232.33,-227.62C293.91,-218.64 418.69,-200.43 496.84,-189.02"/>
<polygon fill="midnightblue" stroke="midnightblue" points="497.69,-192.43 507.08,-187.53 496.68,-185.51 497.69,-192.43"/>
</g>
<!-- Node11 -->
<g id="node11" class="node">
<title>Node11</title>
<g id="a_node11"><a xlink:href="Timer_8h.html" target="_top" target="_top" xlink:title=" ">
<polygon fill="none" stroke="black" points="59.5,-168.5 59.5,-187.5 167.5,-187.5 167.5,-168.5 59.5,-168.5"/>
<text text-anchor="middle" x="113.5" y="-175.5" font-family="Helvetica,sans-Serif" font-size="10.00">../../../Time/Timer.h</text>
</a>
</g>
</g>
<!-- Node2&#45;&gt;Node11 -->
<g id="edge15" class="edge">
<title>Node2&#45;&gt;Node11</title>
<path fill="none" stroke="midnightblue" d="M182.33,-224.32C169.65,-215.98 150.27,-203.21 135.29,-193.35"/>
<polygon fill="midnightblue" stroke="midnightblue" points="136.92,-190.23 126.64,-187.65 133.07,-196.08 136.92,-190.23"/>
</g>
<!-- Node4 -->
<g id="node4" class="node">
<title>Node4</title>
<g id="a_node4"><a xlink:title=" ">
<polygon fill="none" stroke="#bfbfbf" points="217,-56.5 217,-75.5 282,-75.5 282,-56.5 217,-56.5"/>
<text text-anchor="middle" x="249.5" y="-63.5" font-family="Helvetica,sans-Serif" font-size="10.00">inttypes.h</text>
</a>
</g>
</g>
<!-- Node3&#45;&gt;Node4 -->
<g id="edge3" class="edge">
<title>Node3&#45;&gt;Node4</title>
<path fill="none" stroke="midnightblue" d="M74.46,-112.44C110.29,-103.14 167.66,-88.25 206.89,-78.06"/>
<polygon fill="midnightblue" stroke="midnightblue" points="207.9,-81.42 216.7,-75.52 206.14,-74.64 207.9,-81.42"/>
</g>
<!-- Node5&#45;&gt;Node4 -->
<g id="edge5" class="edge">
<title>Node5&#45;&gt;Node4</title>
<path fill="none" stroke="midnightblue" d="M249.5,-112.08C249.5,-105.01 249.5,-94.86 249.5,-85.99"/>
<polygon fill="midnightblue" stroke="midnightblue" points="253,-85.75 249.5,-75.75 246,-85.75 253,-85.75"/>
</g>
<!-- Node6 -->
<g id="node6" class="node">
<title>Node6</title>
<g id="a_node6"><a xlink:title=" ">
<polygon fill="none" stroke="#bfbfbf" points="406.5,-56.5 406.5,-75.5 462.5,-75.5 462.5,-56.5 406.5,-56.5"/>
<text text-anchor="middle" x="434.5" y="-63.5" font-family="Helvetica,sans-Serif" font-size="10.00">stdarg.h</text>
</a>
</g>
</g>
<!-- Node5&#45;&gt;Node6 -->
<g id="edge6" class="edge">
<title>Node5&#45;&gt;Node6</title>
<path fill="none" stroke="midnightblue" d="M278.81,-112.44C310.62,-103.16 361.52,-88.3 396.4,-78.12"/>
<polygon fill="midnightblue" stroke="midnightblue" points="397.61,-81.41 406.23,-75.25 395.65,-74.69 397.61,-81.41"/>
</g>
<!-- Node7 -->
<g id="node7" class="node">
<title>Node7</title>
<g id="a_node7"><a xlink:href="VortexConfig_8h.html" target="_top" target="_top" xlink:title=" ">
<polygon fill="none" stroke="black" points="481,-56.5 481,-75.5 578,-75.5 578,-56.5 481,-56.5"/>
<text text-anchor="middle" x="529.5" y="-63.5" font-family="Helvetica,sans-Serif" font-size="10.00">../VortexConfig.h</text>
</a>
</g>
</g>
<!-- Node5&#45;&gt;Node7 -->
<g id="edge7" class="edge">
<title>Node5&#45;&gt;Node7</title>
<path fill="none" stroke="midnightblue" d="M293.87,-112.44C343.12,-102.94 422.63,-87.61 475.47,-77.42"/>
<polygon fill="midnightblue" stroke="midnightblue" points="476.18,-80.85 485.34,-75.52 474.86,-73.97 476.18,-80.85"/>
</g>
<!-- Node8 -->
<g id="node8" class="node">
<title>Node8</title>
<g id="a_node8"><a xlink:href="ColorConstants_8h.html" target="_top" target="_top" xlink:title=" ">
<polygon fill="none" stroke="black" points="386.5,-0.5 386.5,-19.5 520.5,-19.5 520.5,-0.5 386.5,-0.5"/>
<text text-anchor="middle" x="453.5" y="-7.5" font-family="Helvetica,sans-Serif" font-size="10.00">Colors/ColorConstants.h</text>
</a>
</g>
</g>
<!-- Node7&#45;&gt;Node8 -->
<g id="edge8" class="edge">
<title>Node7&#45;&gt;Node8</title>
<path fill="none" stroke="midnightblue" d="M517.29,-56.32C505.72,-48.11 488.12,-35.6 474.34,-25.81"/>
<polygon fill="midnightblue" stroke="midnightblue" points="476.11,-22.77 465.93,-19.83 472.06,-28.48 476.11,-22.77"/>
</g>
<!-- Node9&#45;&gt;Node7 -->
<g id="edge14" class="edge">
<title>Node9&#45;&gt;Node7</title>
<path fill="none" stroke="midnightblue" d="M563.13,-168.1C559.73,-155.52 553.14,-131.85 546.5,-112 543.52,-103.08 539.87,-93.3 536.72,-85.14"/>
<polygon fill="midnightblue" stroke="midnightblue" points="539.87,-83.59 532.96,-75.56 533.35,-86.14 539.87,-83.59"/>
</g>
<!-- Node10 -->
<g id="node10" class="node">
<title>Node10</title>
<g id="a_node10"><a xlink:href="ColorTypes_8h.html" target="_top" target="_top" xlink:title=" ">
<polygon fill="none" stroke="black" points="368,-112.5 368,-131.5 447,-131.5 447,-112.5 368,-112.5"/>
<text text-anchor="middle" x="407.5" y="-119.5" font-family="Helvetica,sans-Serif" font-size="10.00">ColorTypes.h</text>
</a>
</g>
</g>
<!-- Node9&#45;&gt;Node10 -->
<g id="edge10" class="edge">
<title>Node9&#45;&gt;Node10</title>
<path fill="none" stroke="midnightblue" d="M540.46,-168.44C513.88,-159.36 471.69,-144.94 441.98,-134.78"/>
<polygon fill="midnightblue" stroke="midnightblue" points="443.01,-131.44 432.42,-131.52 440.75,-138.06 443.01,-131.44"/>
</g>
<!-- Node10&#45;&gt;Node4 -->
<g id="edge11" class="edge">
<title>Node10&#45;&gt;Node4</title>
<path fill="none" stroke="midnightblue" d="M382.46,-112.44C355.88,-103.36 313.69,-88.94 283.98,-78.78"/>
<polygon fill="midnightblue" stroke="midnightblue" points="285.01,-75.44 274.42,-75.52 282.75,-82.06 285.01,-75.44"/>
</g>
<!-- Node10&#45;&gt;Node7 -->
<g id="edge12" class="edge">
<title>Node10&#45;&gt;Node7</title>
<path fill="none" stroke="midnightblue" d="M426.83,-112.44C446.82,-103.6 478.24,-89.69 501.06,-79.59"/>
<polygon fill="midnightblue" stroke="midnightblue" points="502.53,-82.76 510.26,-75.52 499.7,-76.36 502.53,-82.76"/>
</g>
<!-- Node10&#45;&gt;Node8 -->
<g id="edge13" class="edge">
<title>Node10&#45;&gt;Node8</title>
<path fill="none" stroke="midnightblue" d="M403.03,-112.12C397.17,-99.14 388.62,-74.53 397.5,-56 403.75,-42.95 415.84,-32.49 427.18,-24.95"/>
<polygon fill="midnightblue" stroke="midnightblue" points="429.31,-27.75 436,-19.54 425.65,-21.79 429.31,-27.75"/>
</g>
<!-- Node11&#45;&gt;Node4 -->
<g id="edge16" class="edge">
<title>Node11&#45;&gt;Node4</title>
<path fill="none" stroke="midnightblue" d="M119.88,-168.2C129.84,-154.89 150.14,-129.37 171.5,-112 186.97,-99.42 206.38,-88.21 221.97,-80.12"/>
<polygon fill="midnightblue" stroke="midnightblue" points="223.77,-83.14 231.12,-75.5 220.61,-76.89 223.77,-83.14"/>
</g>
<!-- Node11&#45;&gt;Node5 -->
<g id="edge17" class="edge">
<title>Node11&#45;&gt;Node5</title>
<path fill="none" stroke="midnightblue" d="M135.05,-168.44C157.53,-159.52 192.99,-145.44 218.48,-135.32"/>
<polygon fill="midnightblue" stroke="midnightblue" points="220.05,-138.46 228.05,-131.52 217.47,-131.95 220.05,-138.46"/>
</g>
<!-- Node12&#45;&gt;Node4 -->
<g id="edge19" class="edge">
<title>Node12&#45;&gt;Node4</title>
<path fill="none" stroke="midnightblue" d="M401.58,-168.41C384,-155.8 350.01,-131.65 320.5,-112 304.46,-101.32 286.07,-89.68 272.03,-80.92"/>
<polygon fill="midnightblue" stroke="midnightblue" points="273.84,-77.92 263.5,-75.61 270.14,-83.86 273.84,-77.92"/>
</g>
<!-- Node12&#45;&gt;Node13 -->
<g id="edge20" class="edge">
<title>Node12&#45;&gt;Node13</title>
<path fill="none" stroke="midnightblue" d="M427.64,-168.32C441.37,-159.9 462.44,-146.97 478.56,-137.07"/>
<polygon fill="midnightblue" stroke="midnightblue" points="480.7,-139.87 487.4,-131.65 477.04,-133.9 480.7,-139.87"/>
</g>
<!-- Node13&#45;&gt;Node6 -->
<g id="edge21" class="edge">
<title>Node13&#45;&gt;Node6</title>
<path fill="none" stroke="midnightblue" d="M490.74,-112.32C480.73,-104.26 465.61,-92.08 453.57,-82.37"/>
<polygon fill="midnightblue" stroke="midnightblue" points="455.44,-79.38 445.46,-75.83 451.05,-84.83 455.44,-79.38"/>
</g>
<!-- Node13&#45;&gt;Node7 -->
<g id="edge22" class="edge">
<title>Node13&#45;&gt;Node7</title>
<path fill="none" stroke="midnightblue" d="M506.12,-112.08C509.96,-104.69 515.52,-93.95 520.26,-84.81"/>
<polygon fill="midnightblue" stroke="midnightblue" points="523.47,-86.24 524.96,-75.75 517.25,-83.02 523.47,-86.24"/>
</g>
<!-- Node14&#45;&gt;Node4 -->
<g id="edge24" class="edge">
<title>Node14&#45;&gt;Node4</title>
<path fill="none" stroke="midnightblue" d="M596.22,-112.44C511.01,-101.28 364.27,-82.04 292.1,-72.58"/>
<polygon fill="midnightblue" stroke="midnightblue" points="292.38,-69.09 282.01,-71.26 291.47,-76.03 292.38,-69.09"/>
</g>
<!-- Node14&#45;&gt;Node7 -->
<g id="edge26" class="edge">
<title>Node14&#45;&gt;Node7</title>
<path fill="none" stroke="midnightblue" d="M640.58,-112.44C618.76,-103.52 584.35,-89.44 559.61,-79.32"/>
<polygon fill="midnightblue" stroke="midnightblue" points="560.9,-76.06 550.32,-75.52 558.25,-82.54 560.9,-76.06"/>
</g>
<!-- Node15 -->
<g id="node15" class="node">
<title>Node15</title>
<g id="a_node15"><a xlink:title=" ">
<polygon fill="none" stroke="#bfbfbf" points="635,-56.5 635,-75.5 688,-75.5 688,-56.5 635,-56.5"/>
<text text-anchor="middle" x="661.5" y="-63.5" font-family="Helvetica,sans-Serif" font-size="10.00">stdlib.h</text>
</a>
</g>
</g>
<!-- Node14&#45;&gt;Node15 -->
<g id="edge25" class="edge">
<title>Node14&#45;&gt;Node15</title>
<path fill="none" stroke="midnightblue" d="M661.5,-112.08C661.5,-105.01 661.5,-94.86 661.5,-85.99"/>
<polygon fill="midnightblue" stroke="midnightblue" points="665,-85.75 661.5,-75.75 658,-85.75 665,-85.75"/>
</g>
<!-- Node16&#45;&gt;Node4 -->
<g id="edge28" class="edge">
<title>Node16&#45;&gt;Node4</title>
<path fill="none" stroke="midnightblue" d="M233.03,-168.5C212.91,-162.06 190.55,-150.95 178.5,-132 164.83,-110.49 192.65,-91.54 217.37,-79.73"/>
<polygon fill="midnightblue" stroke="midnightblue" points="218.93,-82.87 226.6,-75.57 216.05,-76.49 218.93,-82.87"/>
</g>
<!-- Node16&#45;&gt;Node5 -->
<g id="edge30" class="edge">
<title>Node16&#45;&gt;Node5</title>
<path fill="none" stroke="midnightblue" d="M270.37,-168.08C266.99,-160.77 262.08,-150.18 257.88,-141.1"/>
<polygon fill="midnightblue" stroke="midnightblue" points="260.93,-139.36 253.55,-131.75 254.58,-142.3 260.93,-139.36"/>
</g>
<!-- Node16&#45;&gt;Node10 -->
<g id="edge29" class="edge">
<title>Node16&#45;&gt;Node10</title>
<path fill="none" stroke="midnightblue" d="M295.57,-168.44C317.56,-159.52 352.23,-145.44 377.16,-135.32"/>
<polygon fill="midnightblue" stroke="midnightblue" points="378.58,-138.52 386.52,-131.52 375.94,-132.04 378.58,-138.52"/>
</g>
</g>
</svg>
        <g id="navigator" transform="translate(0 0)" fill="#404254">
                <rect fill="#f2f5e9" fill-opacity="0.5" stroke="#606060" stroke-width=".5" x="0" y="0" width="60" height="60"/>
                <use id="zoomplus" xlink:href="#zoomPlus" target="_top" x="17" y="9" onmousedown="handleZoom(evt,'in')"/>
                <use id="zoomminus" xlink:href="#zoomMin" target="_top" x="42" y="9" onmousedown="handleZoom(evt,'out')"/>
                <use id="reset" xlink:href="#resetDef" target="_top" x="30" y="36" onmousedown="handleReset()"/>
                <g id="arrowUp" xlink:href="#dirArrow" target="_top" transform="translate(30 24)" onmousedown="handlePan(0,-1)">
                  <use xlink:href="#rim" target="_top" fill="#404040">
                        <set attributeName="fill" to="#808080" begin="arrowUp.mouseover" end="arrowUp.mouseout"/>
                  </use>
                  <path fill="none" stroke="white" stroke-width="1.5" d="M0,-3.0v7 M-2.5,-0.5L0,-3.0L2.5,-0.5"/>
                </g>
                <g id="arrowRight" xlink:href="#dirArrow" target="_top" transform="rotate(90) translate(36 -43)" onmousedown="handlePan(1,0)">
                  <use xlink:href="#rim" target="_top" fill="#404040">
                        <set attributeName="fill" to="#808080" begin="arrowRight.mouseover" end="arrowRight.mouseout"/>
                  </use>
                  <path fill="none" stroke="white" stroke-width="1.5" d="M0,-3.0v7 M-2.5,-0.5L0,-3.0L2.5,-0.5"/>
                </g>
                <g id="arrowDown" xlink:href="#dirArrow" target="_top" transform="rotate(180) translate(-30 -48)" onmousedown="handlePan(0,1)">
                  <use xlink:href="#rim" target="_top" fill="#404040">
                        <set attributeName="fill" to="#808080" begin="arrowDown.mouseover" end="arrowDown.mouseout"/>
                  </use>
                  <path fill="none" stroke="white" stroke-width="1.5" d="M0,-3.0v7 M-2.5,-0.5L0,-3.0L2.5,-0.5"/>
                </g>
                <g id="arrowLeft" xlink:href="#dirArrow" target="_top" transform="rotate(270) translate(-36 17)" onmousedown="handlePan(-1,0)">
                  <use xlink:href="#rim" target="_top" fill="#404040">
                        <set attributeName="fill" to="#808080" begin="arrowLeft.mouseover" end="arrowLeft.mouseout"/>
                  </use>
                  <path fill="none" stroke="white" stroke-width="1.5" d="M0,-3.0v7 M-2.5,-0.5L0,-3.0L2.5,-0.5"/>
                </g>
        </g>
        <svg viewBox="0 0 15 15" width="100%" height="30px" preserveAspectRatio="xMaxYMin meet">
         <g id="arrow_out" transform="scale(0.3 0.3)">
          <a xlink:href="Sequence_8cpp__incl_org.svg" target="_top" target="_base">
           <rect id="button" ry="5" rx="5" y="6" x="6" height="38" width="38"
                fill="#f2f5e9" fill-opacity="0.5" stroke="#606060" stroke-width="1.0"/>
           <path id="arrow"
             d="M 11.500037,31.436501 C 11.940474,20.09759 22.043105,11.32322 32.158766,21.979434 L 37.068811,17.246167 C 37.068811,17.246167 37.088388,32 37.088388,32 L 22.160133,31.978069 C 22.160133,31.978069 26.997745,27.140456 26.997745,27.140456 C 18.528582,18.264221 13.291696,25.230495 11.500037,31.436501 z"
             style="fill:#404040;"/>
          </a>
         </g>
        </svg>
</svg>
