<?xml version="1.0" encoding="UTF-8" standalone="no"?>
<!DOCTYPE svg PUBLIC "-//W3C//DTD SVG 1.1//EN"
 "http://www.w3.org/Graphics/SVG/1.1/DTD/svg11.dtd">
<!-- Generated by graphviz version 2.43.0 (0)
 -->
<!-- Title: VortexEngine/src/Storage/Storage.cpp Pages: 1 -->
<svg width="491pt" height="263pt"
 viewBox="0.00 0.00 490.69 263.00" xmlns="http://www.w3.org/2000/svg" xmlns:xlink="http://www.w3.org/1999/xlink">
<g id="graph0" class="graph" transform="scale(1 1) rotate(0) translate(4 259)">
<title>VortexEngine/src/Storage/Storage.cpp</title>
<!-- Node1 -->
<g id="node1" class="node">
<title>Node1</title>
<g id="a_node1"><a xlink:title=" ">
<polygon fill="#bfbfbf" stroke="black" points="118.16,-224.5 118.16,-254.5 257.16,-254.5 257.16,-224.5 118.16,-224.5"/>
<text text-anchor="start" x="126.16" y="-242.5" font-family="Helvetica,sans-Serif" font-size="10.00">VortexEngine/src/Storage</text>
<text text-anchor="middle" x="187.66" y="-231.5" font-family="Helvetica,sans-Serif" font-size="10.00">/Storage.cpp</text>
</a>
</g>
</g>
<!-- Node2 -->
<g id="node2" class="node">
<title>Node2</title>
<g id="a_node2"><a xlink:href="Storage_8h.html" target="_top" target="_top" xlink:title=" ">
<polygon fill="none" stroke="black" points="264.16,-168.5 264.16,-187.5 327.16,-187.5 327.16,-168.5 264.16,-168.5"/>
<text text-anchor="middle" x="295.66" y="-175.5" font-family="Helvetica,sans-Serif" font-size="10.00">Storage.h</text>
</a>
</g>
</g>
<!-- Node1&#45;&gt;Node2 -->
<g id="edge1" class="edge">
<title>Node1&#45;&gt;Node2</title>
<path fill="none" stroke="midnightblue" d="M213.26,-224.4C230.73,-214.77 253.75,-202.09 271.02,-192.58"/>
<polygon fill="midnightblue" stroke="midnightblue" points="272.88,-195.55 279.95,-187.66 269.5,-189.42 272.88,-195.55"/>
</g>
<!-- Node4 -->
<g id="node4" class="node">
<title>Node4</title>
<g id="a_node4"><a xlink:title=" ">
<polygon fill="none" stroke="#bfbfbf" points="19.16,-168.5 19.16,-187.5 72.16,-187.5 72.16,-168.5 19.16,-168.5"/>
<text text-anchor="middle" x="45.66" y="-175.5" font-family="Helvetica,sans-Serif" font-size="10.00">string.h</text>
</a>
</g>
</g>
<!-- Node1&#45;&gt;Node4 -->
<g id="edge3" class="edge">
<title>Node1&#45;&gt;Node4</title>
<path fill="none" stroke="midnightblue" d="M154.01,-224.4C130.19,-214.42 98.52,-201.15 75.57,-191.53"/>
<polygon fill="midnightblue" stroke="midnightblue" points="76.9,-188.29 66.33,-187.66 74.2,-194.75 76.9,-188.29"/>
</g>
<!-- Node5 -->
<g id="node5" class="node">
<title>Node5</title>
<g id="a_node5"><a xlink:title=" ">
<polygon fill="none" stroke="#bfbfbf" points="90.16,-112.5 90.16,-131.5 143.16,-131.5 143.16,-112.5 90.16,-112.5"/>
<text text-anchor="middle" x="116.66" y="-119.5" font-family="Helvetica,sans-Serif" font-size="10.00">stdlib.h</text>
</a>
</g>
</g>
<!-- Node1&#45;&gt;Node5 -->
<g id="edge4" class="edge">
<title>Node1&#45;&gt;Node5</title>
<path fill="none" stroke="midnightblue" d="M158.2,-224.49C143.93,-216.05 128.09,-203.84 119.66,-188 112.12,-173.82 112.03,-155.34 113.44,-141.71"/>
<polygon fill="midnightblue" stroke="midnightblue" points="116.93,-141.99 114.85,-131.6 110,-141.03 116.93,-141.99"/>
</g>
<!-- Node6 -->
<g id="node6" class="node">
<title>Node6</title>
<g id="a_node6"><a xlink:href="VortexConfig_8h.html" target="_top" target="_top" xlink:title=" ">
<polygon fill="none" stroke="black" points="139.16,-56.5 139.16,-75.5 236.16,-75.5 236.16,-56.5 139.16,-56.5"/>
<text text-anchor="middle" x="187.66" y="-63.5" font-family="Helvetica,sans-Serif" font-size="10.00">../VortexConfig.h</text>
</a>
</g>
</g>
<!-- Node1&#45;&gt;Node6 -->
<g id="edge5" class="edge">
<title>Node1&#45;&gt;Node6</title>
<path fill="none" stroke="midnightblue" d="M118.07,-227.57C74.07,-219.07 23.07,-205.75 9.66,-188 -31.16,-133.98 74.98,-95.81 140.5,-78.12"/>
<polygon fill="midnightblue" stroke="midnightblue" points="141.46,-81.49 150.24,-75.56 139.68,-74.72 141.46,-81.49"/>
</g>
<!-- Node8 -->
<g id="node8" class="node">
<title>Node8</title>
<g id="a_node8"><a xlink:href="Memory_8h.html" target="_top" target="_top" xlink:title=" ">
<polygon fill="none" stroke="black" points="129.16,-168.5 129.16,-187.5 246.16,-187.5 246.16,-168.5 129.16,-168.5"/>
<text text-anchor="middle" x="187.66" y="-175.5" font-family="Helvetica,sans-Serif" font-size="10.00">../Memory/Memory.h</text>
</a>
</g>
</g>
<!-- Node1&#45;&gt;Node8 -->
<g id="edge7" class="edge">
<title>Node1&#45;&gt;Node8</title>
<path fill="none" stroke="midnightblue" d="M187.66,-224.4C187.66,-216.47 187.66,-206.46 187.66,-197.86"/>
<polygon fill="midnightblue" stroke="midnightblue" points="191.16,-197.66 187.66,-187.66 184.16,-197.66 191.16,-197.66"/>
</g>
<!-- Node9 -->
<g id="node9" class="node">
<title>Node9</title>
<g id="a_node9"><a xlink:href="ByteStream_8h.html" target="_top" target="_top" xlink:title=" ">
<polygon fill="none" stroke="black" points="345.16,-168.5 345.16,-187.5 468.16,-187.5 468.16,-168.5 345.16,-168.5"/>
<text text-anchor="middle" x="406.66" y="-175.5" font-family="Helvetica,sans-Serif" font-size="10.00">../Serial/ByteStream.h</text>
</a>
</g>
</g>
<!-- Node1&#45;&gt;Node9 -->
<g id="edge11" class="edge">
<title>Node1&#45;&gt;Node9</title>
<path fill="none" stroke="midnightblue" d="M239.29,-224.47C277.73,-214.03 329.52,-199.96 365.27,-190.25"/>
<polygon fill="midnightblue" stroke="midnightblue" points="366.62,-193.51 375.35,-187.51 364.79,-186.75 366.62,-193.51"/>
</g>
<!-- Node10 -->
<g id="node10" class="node">
<title>Node10</title>
<g id="a_node10"><a xlink:href="Log_8h.html" target="_top" target="_top" xlink:title=" ">
<polygon fill="none" stroke="black" points="370.66,-112.5 370.66,-131.5 442.66,-131.5 442.66,-112.5 370.66,-112.5"/>
<text text-anchor="middle" x="406.66" y="-119.5" font-family="Helvetica,sans-Serif" font-size="10.00">../Log/Log.h</text>
</a>
</g>
</g>
<!-- Node1&#45;&gt;Node10 -->
<g id="edge16" class="edge">
<title>Node1&#45;&gt;Node10</title>
<path fill="none" stroke="midnightblue" d="M257.45,-236.33C334.12,-232.3 450.08,-220.81 477.66,-188 494.43,-168.06 464.46,-148.31 438.45,-135.91"/>
<polygon fill="midnightblue" stroke="midnightblue" points="439.69,-132.63 429.14,-131.68 436.8,-139 439.69,-132.63"/>
</g>
<!-- Node3 -->
<g id="node3" class="node">
<title>Node3</title>
<g id="a_node3"><a xlink:title=" ">
<polygon fill="none" stroke="#bfbfbf" points="263.16,-112.5 263.16,-131.5 328.16,-131.5 328.16,-112.5 263.16,-112.5"/>
<text text-anchor="middle" x="295.66" y="-119.5" font-family="Helvetica,sans-Serif" font-size="10.00">inttypes.h</text>
</a>
</g>
</g>
<!-- Node2&#45;&gt;Node3 -->
<g id="edge2" class="edge">
<title>Node2&#45;&gt;Node3</title>
<path fill="none" stroke="midnightblue" d="M295.66,-168.08C295.66,-161.01 295.66,-150.86 295.66,-141.99"/>
<polygon fill="midnightblue" stroke="midnightblue" points="299.16,-141.75 295.66,-131.75 292.16,-141.75 299.16,-141.75"/>
</g>
<!-- Node7 -->
<g id="node7" class="node">
<title>Node7</title>
<g id="a_node7"><a xlink:href="ColorConstants_8h.html" target="_top" target="_top" xlink:title=" ">
<polygon fill="none" stroke="black" points="120.66,-0.5 120.66,-19.5 254.66,-19.5 254.66,-0.5 120.66,-0.5"/>
<text text-anchor="middle" x="187.66" y="-7.5" font-family="Helvetica,sans-Serif" font-size="10.00">Colors/ColorConstants.h</text>
</a>
</g>
</g>
<!-- Node6&#45;&gt;Node7 -->
<g id="edge6" class="edge">
<title>Node6&#45;&gt;Node7</title>
<path fill="none" stroke="midnightblue" d="M187.66,-56.08C187.66,-49.01 187.66,-38.86 187.66,-29.99"/>
<polygon fill="midnightblue" stroke="midnightblue" points="191.16,-29.75 187.66,-19.75 184.16,-29.75 191.16,-29.75"/>
</g>
<!-- Node8&#45;&gt;Node3 -->
<g id="edge8" class="edge">
<title>Node8&#45;&gt;Node3</title>
<path fill="none" stroke="midnightblue" d="M205.01,-168.32C222.33,-159.66 249.18,-146.24 269.16,-136.25"/>
<polygon fill="midnightblue" stroke="midnightblue" points="270.97,-139.26 278.35,-131.65 267.84,-133 270.97,-139.26"/>
</g>
<!-- Node8&#45;&gt;Node5 -->
<g id="edge9" class="edge">
<title>Node8&#45;&gt;Node5</title>
<path fill="none" stroke="midnightblue" d="M176.26,-168.32C165.55,-160.18 149.32,-147.84 136.5,-138.09"/>
<polygon fill="midnightblue" stroke="midnightblue" points="138.36,-135.1 128.28,-131.83 134.12,-140.67 138.36,-135.1"/>
</g>
<!-- Node8&#45;&gt;Node6 -->
<g id="edge10" class="edge">
<title>Node8&#45;&gt;Node6</title>
<path fill="none" stroke="midnightblue" d="M187.66,-168.37C187.66,-150.62 187.66,-109.67 187.66,-85.6"/>
<polygon fill="midnightblue" stroke="midnightblue" points="191.16,-85.59 187.66,-75.59 184.16,-85.59 191.16,-85.59"/>
</g>
<!-- Node9&#45;&gt;Node3 -->
<g id="edge12" class="edge">
<title>Node9&#45;&gt;Node3</title>
<path fill="none" stroke="midnightblue" d="M388.83,-168.32C370.95,-159.62 343.19,-146.12 322.62,-136.11"/>
<polygon fill="midnightblue" stroke="midnightblue" points="323.98,-132.88 313.45,-131.65 320.91,-139.18 323.98,-132.88"/>
</g>
<!-- Node9&#45;&gt;Node10 -->
<g id="edge13" class="edge">
<title>Node9&#45;&gt;Node10</title>
<path fill="none" stroke="midnightblue" d="M406.66,-168.08C406.66,-161.01 406.66,-150.86 406.66,-141.99"/>
<polygon fill="midnightblue" stroke="midnightblue" points="410.16,-141.75 406.66,-131.75 403.16,-141.75 410.16,-141.75"/>
</g>
<!-- Node10&#45;&gt;Node6 -->
<g id="edge15" class="edge">
<title>Node10&#45;&gt;Node6</title>
<path fill="none" stroke="midnightblue" d="M371.96,-112.44C334.08,-103.1 273.31,-88.12 232,-77.93"/>
<polygon fill="midnightblue" stroke="midnightblue" points="232.75,-74.51 222.2,-75.52 231.07,-81.31 232.75,-74.51"/>
</g>
<!-- Node11 -->
<g id="node11" class="node">
<title>Node11</title>
<g id="a_node11"><a xlink:title=" ">
<polygon fill="none" stroke="#bfbfbf" points="378.66,-56.5 378.66,-75.5 434.66,-75.5 434.66,-56.5 378.66,-56.5"/>
<text text-anchor="middle" x="406.66" y="-63.5" font-family="Helvetica,sans-Serif" font-size="10.00">stdarg.h</text>
</a>
</g>
</g>
<!-- Node10&#45;&gt;Node11 -->
<g id="edge14" class="edge">
<title>Node10&#45;&gt;Node11</title>
<path fill="none" stroke="midnightblue" d="M406.66,-112.08C406.66,-105.01 406.66,-94.86 406.66,-85.99"/>
<polygon fill="midnightblue" stroke="midnightblue" points="410.16,-85.75 406.66,-75.75 403.16,-85.75 410.16,-85.75"/>
</g>
</g>
</svg>
