<?xml version="1.0" encoding="UTF-8" standalone="no"?>
<!DOCTYPE svg PUBLIC "-//W3C//DTD SVG 1.1//EN"
 "http://www.w3.org/Graphics/SVG/1.1/DTD/svg11.dtd">
<!-- Generated by graphviz version 2.43.0 (0)
 -->
<!-- Title: VortexEngine/src/Wireless/VLReceiver.cpp Pages: 1 -->
<svg width="1017pt" height="263pt"
 viewBox="0.00 0.00 1017.00 263.00" xmlns="http://www.w3.org/2000/svg" xmlns:xlink="http://www.w3.org/1999/xlink">
<g id="graph0" class="graph" transform="scale(1 1) rotate(0) translate(4 259)">
<title>VortexEngine/src/Wireless/VLReceiver.cpp</title>
<!-- Node1 -->
<g id="node1" class="node">
<title>Node1</title>
<g id="a_node1"><a xlink:title=" ">
<polygon fill="#bfbfbf" stroke="black" points="548.5,-224.5 548.5,-254.5 691.5,-254.5 691.5,-224.5 548.5,-224.5"/>
<text text-anchor="start" x="556.5" y="-242.5" font-family="Helvetica,sans-Serif" font-size="10.00">VortexEngine/src/Wireless</text>
<text text-anchor="middle" x="620" y="-231.5" font-family="Helvetica,sans-Serif" font-size="10.00">/VLReceiver.cpp</text>
</a>
</g>
</g>
<!-- Node2 -->
<g id="node2" class="node">
<title>Node2</title>
<g id="a_node2"><a xlink:href="VLReceiver_8h.html" target="_top" xlink:title=" ">
<polygon fill="none" stroke="black" points="205,-168.5 205,-187.5 285,-187.5 285,-168.5 205,-168.5"/>
<text text-anchor="middle" x="245" y="-175.5" font-family="Helvetica,sans-Serif" font-size="10.00">VLReceiver.h</text>
</a>
</g>
</g>
<!-- Node1&#45;&gt;Node2 -->
<g id="edge1" class="edge">
<title>Node1&#45;&gt;Node2</title>
<path fill="none" stroke="midnightblue" d="M548.14,-227.1C473.95,-215.33 360.14,-197.27 295.13,-186.95"/>
<polygon fill="midnightblue" stroke="midnightblue" points="295.56,-183.48 285.13,-185.37 294.46,-190.39 295.56,-183.48"/>
</g>
<!-- Node4 -->
<g id="node4" class="node">
<title>Node4</title>
<g id="a_node4"><a xlink:href="BitStream_8h.html" target="_top" xlink:title=" ">
<polygon fill="none" stroke="black" points="0,-112.5 0,-131.5 114,-131.5 114,-112.5 0,-112.5"/>
<text text-anchor="middle" x="57" y="-119.5" font-family="Helvetica,sans-Serif" font-size="10.00">../Serial/BitStream.h</text>
</a>
</g>
</g>
<!-- Node1&#45;&gt;Node4 -->
<g id="edge14" class="edge">
<title>Node1&#45;&gt;Node4</title>
<path fill="none" stroke="midnightblue" d="M548.5,-236.89C463.1,-233.41 316.65,-222.43 196,-188 153.33,-175.82 107.35,-151.98 80.43,-136.8"/>
<polygon fill="midnightblue" stroke="midnightblue" points="81.83,-133.57 71.41,-131.64 78.35,-139.65 81.83,-133.57"/>
</g>
<!-- Node8 -->
<g id="node8" class="node">
<title>Node8</title>
<g id="a_node8"><a xlink:href="IRConfig_8h.html" target="_top" xlink:title=" ">
<polygon fill="none" stroke="black" points="943,-168.5 943,-187.5 1009,-187.5 1009,-168.5 943,-168.5"/>
<text text-anchor="middle" x="976" y="-175.5" font-family="Helvetica,sans-Serif" font-size="10.00">IRConfig.h</text>
</a>
</g>
</g>
<!-- Node1&#45;&gt;Node8 -->
<g id="edge8" class="edge">
<title>Node1&#45;&gt;Node8</title>
<path fill="none" stroke="midnightblue" d="M691.59,-227.37C754.27,-217.48 847.78,-202.41 929,-188 930.27,-187.78 931.55,-187.55 932.85,-187.31"/>
<polygon fill="midnightblue" stroke="midnightblue" points="933.7,-190.71 942.9,-185.46 932.43,-183.83 933.7,-190.71"/>
</g>
<!-- Node9 -->
<g id="node9" class="node">
<title>Node9</title>
<g id="a_node9"><a xlink:href="ByteStream_8h.html" target="_top" xlink:title=" ">
<polygon fill="none" stroke="black" points="763.5,-168.5 763.5,-187.5 886.5,-187.5 886.5,-168.5 763.5,-168.5"/>
<text text-anchor="middle" x="825" y="-175.5" font-family="Helvetica,sans-Serif" font-size="10.00">../Serial/ByteStream.h</text>
</a>
</g>
</g>
<!-- Node1&#45;&gt;Node9 -->
<g id="edge9" class="edge">
<title>Node1&#45;&gt;Node9</title>
<path fill="none" stroke="midnightblue" d="M668.32,-224.47C704.15,-214.08 752.38,-200.08 785.82,-190.37"/>
<polygon fill="midnightblue" stroke="midnightblue" points="787.06,-193.66 795.69,-187.51 785.11,-186.93 787.06,-193.66"/>
</g>
<!-- Node10 -->
<g id="node10" class="node">
<title>Node10</title>
<g id="a_node10"><a xlink:href="Log_8h.html" target="_top" xlink:title=" ">
<polygon fill="none" stroke="black" points="846,-112.5 846,-131.5 918,-131.5 918,-112.5 846,-112.5"/>
<text text-anchor="middle" x="882" y="-119.5" font-family="Helvetica,sans-Serif" font-size="10.00">../Log/Log.h</text>
</a>
</g>
</g>
<!-- Node1&#45;&gt;Node10 -->
<g id="edge34" class="edge">
<title>Node1&#45;&gt;Node10</title>
<path fill="none" stroke="midnightblue" d="M691.74,-235.49C764.67,-230.74 870.46,-218.63 896,-188 907.05,-174.74 900.42,-154.8 892.99,-140.51"/>
<polygon fill="midnightblue" stroke="midnightblue" points="895.93,-138.6 887.93,-131.66 889.86,-142.08 895.93,-138.6"/>
</g>
<!-- Node12 -->
<g id="node12" class="node">
<title>Node12</title>
<g id="a_node12"><a xlink:href="TimeControl_8h.html" target="_top" xlink:title=" ">
<polygon fill="none" stroke="black" points="623,-168.5 623,-187.5 745,-187.5 745,-168.5 623,-168.5"/>
<text text-anchor="middle" x="684" y="-175.5" font-family="Helvetica,sans-Serif" font-size="10.00">../Time/TimeControl.h</text>
</a>
</g>
</g>
<!-- Node1&#45;&gt;Node12 -->
<g id="edge15" class="edge">
<title>Node1&#45;&gt;Node12</title>
<path fill="none" stroke="midnightblue" d="M635.17,-224.4C644.75,-215.49 657.16,-203.95 667.07,-194.74"/>
<polygon fill="midnightblue" stroke="midnightblue" points="669.75,-197.03 674.69,-187.66 664.98,-191.9 669.75,-197.03"/>
</g>
<!-- Node14 -->
<g id="node14" class="node">
<title>Node14</title>
<g id="a_node14"><a xlink:href="Mode_8h.html" target="_top" xlink:title=" ">
<polygon fill="none" stroke="black" points="507.5,-168.5 507.5,-187.5 604.5,-187.5 604.5,-168.5 507.5,-168.5"/>
<text text-anchor="middle" x="556" y="-175.5" font-family="Helvetica,sans-Serif" font-size="10.00">../Modes/Mode.h</text>
</a>
</g>
</g>
<!-- Node1&#45;&gt;Node14 -->
<g id="edge22" class="edge">
<title>Node1&#45;&gt;Node14</title>
<path fill="none" stroke="midnightblue" d="M604.83,-224.4C595.25,-215.49 582.84,-203.95 572.93,-194.74"/>
<polygon fill="midnightblue" stroke="midnightblue" points="575.02,-191.9 565.31,-187.66 570.25,-197.03 575.02,-191.9"/>
</g>
<!-- Node16 -->
<g id="node16" class="node">
<title>Node16</title>
<g id="a_node16"><a xlink:href="Leds_8h.html" target="_top" xlink:title=" ">
<polygon fill="none" stroke="black" points="406.5,-168.5 406.5,-187.5 489.5,-187.5 489.5,-168.5 406.5,-168.5"/>
<text text-anchor="middle" x="448" y="-175.5" font-family="Helvetica,sans-Serif" font-size="10.00">../Leds/Leds.h</text>
</a>
</g>
</g>
<!-- Node1&#45;&gt;Node16 -->
<g id="edge27" class="edge">
<title>Node1&#45;&gt;Node16</title>
<path fill="none" stroke="midnightblue" d="M579.24,-224.4C549.78,-214.21 510.41,-200.59 482.5,-190.93"/>
<polygon fill="midnightblue" stroke="midnightblue" points="483.37,-187.53 472.78,-187.57 481.08,-194.15 483.37,-187.53"/>
</g>
<!-- Node3 -->
<g id="node3" class="node">
<title>Node3</title>
<g id="a_node3"><a xlink:title=" ">
<polygon fill="none" stroke="#bfbfbf" points="278.5,-56.5 278.5,-75.5 343.5,-75.5 343.5,-56.5 278.5,-56.5"/>
<text text-anchor="middle" x="311" y="-63.5" font-family="Helvetica,sans-Serif" font-size="10.00">inttypes.h</text>
</a>
</g>
</g>
<!-- Node2&#45;&gt;Node3 -->
<g id="edge2" class="edge">
<title>Node2&#45;&gt;Node3</title>
<path fill="none" stroke="midnightblue" d="M218.96,-168.45C189.53,-157.36 147.93,-136.52 166,-112 189.24,-80.46 234.36,-70.37 268.13,-67.46"/>
<polygon fill="midnightblue" stroke="midnightblue" points="268.48,-70.95 278.21,-66.77 268,-63.96 268.48,-70.95"/>
</g>
<!-- Node2&#45;&gt;Node4 -->
<g id="edge3" class="edge">
<title>Node2&#45;&gt;Node4</title>
<path fill="none" stroke="midnightblue" d="M215.21,-168.44C183.17,-159.24 132.07,-144.56 96.65,-134.39"/>
<polygon fill="midnightblue" stroke="midnightblue" points="97.23,-130.91 86.65,-131.52 95.29,-137.64 97.23,-130.91"/>
</g>
<!-- Node5 -->
<g id="node5" class="node">
<title>Node5</title>
<g id="a_node5"><a xlink:href="VLConfig_8h.html" target="_top" xlink:title=" ">
<polygon fill="none" stroke="black" points="560,-112.5 560,-131.5 628,-131.5 628,-112.5 560,-112.5"/>
<text text-anchor="middle" x="594" y="-119.5" font-family="Helvetica,sans-Serif" font-size="10.00">VLConfig.h</text>
</a>
</g>
</g>
<!-- Node2&#45;&gt;Node5 -->
<g id="edge5" class="edge">
<title>Node2&#45;&gt;Node5</title>
<path fill="none" stroke="midnightblue" d="M285.22,-171.87C341.95,-164.47 448.93,-149.87 549.72,-132.14"/>
<polygon fill="midnightblue" stroke="midnightblue" points="550.53,-135.55 559.77,-130.36 549.31,-128.66 550.53,-135.55"/>
</g>
<!-- Node4&#45;&gt;Node3 -->
<g id="edge4" class="edge">
<title>Node4&#45;&gt;Node3</title>
<path fill="none" stroke="midnightblue" d="M97.25,-112.44C143.9,-102.52 220.48,-86.24 268.2,-76.1"/>
<polygon fill="midnightblue" stroke="midnightblue" points="269.16,-79.47 278.21,-73.97 267.7,-72.63 269.16,-79.47"/>
</g>
<!-- Node6 -->
<g id="node6" class="node">
<title>Node6</title>
<g id="a_node6"><a xlink:href="VortexConfig_8h.html" target="_top" xlink:title=" ">
<polygon fill="none" stroke="black" points="607.5,-56.5 607.5,-75.5 704.5,-75.5 704.5,-56.5 607.5,-56.5"/>
<text text-anchor="middle" x="656" y="-63.5" font-family="Helvetica,sans-Serif" font-size="10.00">../VortexConfig.h</text>
</a>
</g>
</g>
<!-- Node5&#45;&gt;Node6 -->
<g id="edge6" class="edge">
<title>Node5&#45;&gt;Node6</title>
<path fill="none" stroke="midnightblue" d="M603.96,-112.32C613.13,-104.34 626.94,-92.31 638.03,-82.65"/>
<polygon fill="midnightblue" stroke="midnightblue" points="640.62,-85.04 645.86,-75.83 636.02,-79.76 640.62,-85.04"/>
</g>
<!-- Node7 -->
<g id="node7" class="node">
<title>Node7</title>
<g id="a_node7"><a xlink:href="ColorConstants_8h.html" target="_top" xlink:title=" ">
<polygon fill="none" stroke="black" points="545,-0.5 545,-19.5 679,-19.5 679,-0.5 545,-0.5"/>
<text text-anchor="middle" x="612" y="-7.5" font-family="Helvetica,sans-Serif" font-size="10.00">Colors/ColorConstants.h</text>
</a>
</g>
</g>
<!-- Node6&#45;&gt;Node7 -->
<g id="edge7" class="edge">
<title>Node6&#45;&gt;Node7</title>
<path fill="none" stroke="midnightblue" d="M648.73,-56.08C642.46,-48.38 633.21,-37.03 625.57,-27.65"/>
<polygon fill="midnightblue" stroke="midnightblue" points="628.16,-25.29 619.13,-19.75 622.73,-29.71 628.16,-25.29"/>
</g>
<!-- Node9&#45;&gt;Node3 -->
<g id="edge10" class="edge">
<title>Node9&#45;&gt;Node3</title>
<path fill="none" stroke="midnightblue" d="M763.44,-169.11C760.25,-168.73 757.09,-168.36 754,-168 601.74,-150.36 555.48,-183.19 411,-132 406.69,-130.47 360.6,-100.03 332.52,-81.36"/>
<polygon fill="midnightblue" stroke="midnightblue" points="334.38,-78.39 324.12,-75.76 330.5,-84.21 334.38,-78.39"/>
</g>
<!-- Node9&#45;&gt;Node10 -->
<g id="edge11" class="edge">
<title>Node9&#45;&gt;Node10</title>
<path fill="none" stroke="midnightblue" d="M834.16,-168.32C842.5,-160.42 855.03,-148.55 865.18,-138.94"/>
<polygon fill="midnightblue" stroke="midnightblue" points="867.82,-141.25 872.68,-131.83 863.01,-136.17 867.82,-141.25"/>
</g>
<!-- Node10&#45;&gt;Node6 -->
<g id="edge13" class="edge">
<title>Node10&#45;&gt;Node6</title>
<path fill="none" stroke="midnightblue" d="M846.19,-112.44C807.01,-103.08 744.12,-88.06 701.48,-77.87"/>
<polygon fill="midnightblue" stroke="midnightblue" points="702.18,-74.44 691.64,-75.52 700.56,-81.24 702.18,-74.44"/>
</g>
<!-- Node11 -->
<g id="node11" class="node">
<title>Node11</title>
<g id="a_node11"><a xlink:title=" ">
<polygon fill="none" stroke="#bfbfbf" points="788,-56.5 788,-75.5 844,-75.5 844,-56.5 788,-56.5"/>
<text text-anchor="middle" x="816" y="-63.5" font-family="Helvetica,sans-Serif" font-size="10.00">stdarg.h</text>
</a>
</g>
</g>
<!-- Node10&#45;&gt;Node11 -->
<g id="edge12" class="edge">
<title>Node10&#45;&gt;Node11</title>
<path fill="none" stroke="midnightblue" d="M871.4,-112.32C861.54,-104.26 846.65,-92.08 834.78,-82.37"/>
<polygon fill="midnightblue" stroke="midnightblue" points="836.75,-79.46 826.8,-75.83 832.32,-84.88 836.75,-79.46"/>
</g>
<!-- Node12&#45;&gt;Node3 -->
<g id="edge16" class="edge">
<title>Node12&#45;&gt;Node3</title>
<path fill="none" stroke="midnightblue" d="M622.69,-168.96C536.53,-157.53 388.87,-137.36 378,-132 355.4,-120.86 335.54,-99.27 323.42,-84.04"/>
<polygon fill="midnightblue" stroke="midnightblue" points="326.08,-81.75 317.22,-75.93 320.52,-86 326.08,-81.75"/>
</g>
<!-- Node12&#45;&gt;Node6 -->
<g id="edge17" class="edge">
<title>Node12&#45;&gt;Node6</title>
<path fill="none" stroke="midnightblue" d="M731.46,-168.47C771.91,-159.01 820.37,-141.12 799,-112 779.7,-85.7 745.03,-74.37 714.65,-69.65"/>
<polygon fill="midnightblue" stroke="midnightblue" points="714.92,-66.15 704.55,-68.29 713.99,-73.09 714.92,-66.15"/>
</g>
<!-- Node13 -->
<g id="node13" class="node">
<title>Node13</title>
<g id="a_node13"><a xlink:href="LedTypes_8h.html" target="_top" xlink:title=" ">
<polygon fill="none" stroke="black" points="684.5,-112.5 684.5,-131.5 789.5,-131.5 789.5,-112.5 684.5,-112.5"/>
<text text-anchor="middle" x="737" y="-119.5" font-family="Helvetica,sans-Serif" font-size="10.00">../Leds/LedTypes.h</text>
</a>
</g>
</g>
<!-- Node12&#45;&gt;Node13 -->
<g id="edge18" class="edge">
<title>Node12&#45;&gt;Node13</title>
<path fill="none" stroke="midnightblue" d="M692.75,-168.08C700.47,-160.22 711.9,-148.57 721.22,-139.08"/>
<polygon fill="midnightblue" stroke="midnightblue" points="723.9,-141.34 728.41,-131.75 718.91,-136.44 723.9,-141.34"/>
</g>
<!-- Node13&#45;&gt;Node3 -->
<g id="edge19" class="edge">
<title>Node13&#45;&gt;Node3</title>
<path fill="none" stroke="midnightblue" d="M684.34,-114.32C599.01,-103.51 432.21,-82.36 353.74,-72.42"/>
<polygon fill="midnightblue" stroke="midnightblue" points="354.08,-68.93 343.72,-71.15 353.2,-75.88 354.08,-68.93"/>
</g>
<!-- Node13&#45;&gt;Node6 -->
<g id="edge21" class="edge">
<title>Node13&#45;&gt;Node6</title>
<path fill="none" stroke="midnightblue" d="M723.99,-112.32C711.47,-103.98 692.32,-91.21 677.53,-81.35"/>
<polygon fill="midnightblue" stroke="midnightblue" points="679.24,-78.29 668.98,-75.65 675.36,-84.11 679.24,-78.29"/>
</g>
<!-- Node13&#45;&gt;Node11 -->
<g id="edge20" class="edge">
<title>Node13&#45;&gt;Node11</title>
<path fill="none" stroke="midnightblue" d="M749.69,-112.32C761.9,-103.98 780.58,-91.21 795,-81.35"/>
<polygon fill="midnightblue" stroke="midnightblue" points="797.06,-84.19 803.34,-75.65 793.11,-78.41 797.06,-84.19"/>
</g>
<!-- Node14&#45;&gt;Node6 -->
<g id="edge26" class="edge">
<title>Node14&#45;&gt;Node6</title>
<path fill="none" stroke="midnightblue" d="M582.16,-168.49C600.04,-161.4 622.94,-149.6 637,-132 647.65,-118.66 652.33,-99.55 654.39,-85.5"/>
<polygon fill="midnightblue" stroke="midnightblue" points="657.87,-85.86 655.54,-75.52 650.92,-85.06 657.87,-85.86"/>
</g>
<!-- Node14&#45;&gt;Node13 -->
<g id="edge23" class="edge">
<title>Node14&#45;&gt;Node13</title>
<path fill="none" stroke="midnightblue" d="M584.68,-168.44C615.53,-159.24 664.73,-144.56 698.83,-134.39"/>
<polygon fill="midnightblue" stroke="midnightblue" points="699.87,-137.73 708.45,-131.52 697.87,-131.02 699.87,-137.73"/>
</g>
<!-- Node15 -->
<g id="node15" class="node">
<title>Node15</title>
<g id="a_node15"><a xlink:href="Patterns_8h.html" target="_top" xlink:title=" ">
<polygon fill="none" stroke="black" points="208.5,-112.5 208.5,-131.5 325.5,-131.5 325.5,-112.5 208.5,-112.5"/>
<text text-anchor="middle" x="267" y="-119.5" font-family="Helvetica,sans-Serif" font-size="10.00">../Patterns/Patterns.h</text>
</a>
</g>
</g>
<!-- Node14&#45;&gt;Node15 -->
<g id="edge24" class="edge">
<title>Node14&#45;&gt;Node15</title>
<path fill="none" stroke="midnightblue" d="M510.21,-168.44C459.26,-158.92 376.97,-143.55 322.43,-133.36"/>
<polygon fill="midnightblue" stroke="midnightblue" points="323.05,-129.91 312.58,-131.52 321.77,-136.79 323.05,-129.91"/>
</g>
<!-- Node15&#45;&gt;Node3 -->
<g id="edge25" class="edge">
<title>Node15&#45;&gt;Node3</title>
<path fill="none" stroke="midnightblue" d="M274.27,-112.08C280.54,-104.38 289.79,-93.03 297.43,-83.65"/>
<polygon fill="midnightblue" stroke="midnightblue" points="300.27,-85.71 303.87,-75.75 294.84,-81.29 300.27,-85.71"/>
</g>
<!-- Node16&#45;&gt;Node3 -->
<g id="edge28" class="edge">
<title>Node16&#45;&gt;Node3</title>
<path fill="none" stroke="midnightblue" d="M406.4,-175.7C342.53,-172.72 224.95,-163.06 199,-132 175.43,-103.79 227.67,-85.1 268.48,-75.27"/>
<polygon fill="midnightblue" stroke="midnightblue" points="269.33,-78.67 278.3,-73.03 267.77,-71.85 269.33,-78.67"/>
</g>
<!-- Node16&#45;&gt;Node13 -->
<g id="edge33" class="edge">
<title>Node16&#45;&gt;Node13</title>
<path fill="none" stroke="midnightblue" d="M489.71,-169.21C540.19,-159.77 625.35,-143.86 681.38,-133.39"/>
<polygon fill="midnightblue" stroke="midnightblue" points="682.3,-136.78 691.48,-131.5 681.01,-129.9 682.3,-136.78"/>
</g>
<!-- Node17 -->
<g id="node17" class="node">
<title>Node17</title>
<g id="a_node17"><a xlink:href="ColorTypes_8h.html" target="_top" xlink:title=" ">
<polygon fill="none" stroke="black" points="420,-112.5 420,-131.5 542,-131.5 542,-112.5 420,-112.5"/>
<text text-anchor="middle" x="481" y="-119.5" font-family="Helvetica,sans-Serif" font-size="10.00">../Colors/ColorTypes.h</text>
</a>
</g>
</g>
<!-- Node16&#45;&gt;Node17 -->
<g id="edge29" class="edge">
<title>Node16&#45;&gt;Node17</title>
<path fill="none" stroke="midnightblue" d="M453.45,-168.08C458.01,-160.61 464.67,-149.72 470.29,-140.52"/>
<polygon fill="midnightblue" stroke="midnightblue" points="473.42,-142.11 475.65,-131.75 467.45,-138.46 473.42,-142.11"/>
</g>
<!-- Node17&#45;&gt;Node3 -->
<g id="edge30" class="edge">
<title>Node17&#45;&gt;Node3</title>
<path fill="none" stroke="midnightblue" d="M454.06,-112.44C425.34,-103.32 379.67,-88.81 347.68,-78.65"/>
<polygon fill="midnightblue" stroke="midnightblue" points="348.4,-75.21 337.81,-75.52 346.28,-81.88 348.4,-75.21"/>
</g>
<!-- Node17&#45;&gt;Node6 -->
<g id="edge31" class="edge">
<title>Node17&#45;&gt;Node6</title>
<path fill="none" stroke="midnightblue" d="M508.73,-112.44C538.43,-103.28 585.72,-88.69 618.67,-78.52"/>
<polygon fill="midnightblue" stroke="midnightblue" points="619.88,-81.81 628.4,-75.52 617.81,-75.12 619.88,-81.81"/>
</g>
<!-- Node17&#45;&gt;Node7 -->
<g id="edge32" class="edge">
<title>Node17&#45;&gt;Node7</title>
<path fill="none" stroke="midnightblue" d="M491.28,-112.37C513.47,-93.73 566.11,-49.53 593.98,-26.13"/>
<polygon fill="midnightblue" stroke="midnightblue" points="596.36,-28.7 601.77,-19.59 591.86,-23.34 596.36,-28.7"/>
</g>
</g>
</svg>
