<?xml version="1.0" encoding="UTF-8" standalone="no"?>
<!DOCTYPE svg PUBLIC "-//W3C//DTD SVG 1.1//EN"
 "http://www.w3.org/Graphics/SVG/1.1/DTD/svg11.dtd">
<!-- Generated by graphviz version 2.43.0 (0)
 -->
<!-- Title: VortexEngine/src/Patterns/Multi/ZigzagPattern.cpp Pages: 1 -->
<!--zoomable 431 -->
<svg id="main" version="1.1" xmlns="http://www.w3.org/2000/svg" xmlns:xlink="http://www.w3.org/1999/xlink" xml:space="preserve" onload="init(evt)">
<style type="text/css"><![CDATA[
.edge:hover path { stroke: red; }
.edge:hover polygon { stroke: red; fill: red; }
]]></style>
<script type="text/javascript"><![CDATA[
var edges = document.getElementsByTagName('g');
if (edges && edges.length) {
  for (var i=0;i<edges.length;i++) {
    if (edges[i].id.substr(0,4)=='edge') {
      edges[i].setAttribute('class','edge');
    }
  }
}
]]></script>
        <defs>
                <circle id="rim" cx="0" cy="0" r="7"/>
                <circle id="rim2" cx="0" cy="0" r="3.5"/>
                <g id="zoomPlus">
                        <use xlink:href="#rim" target="_top" fill="#404040">
                                <set attributeName="fill" to="#808080" begin="zoomplus.mouseover" end="zoomplus.mouseout"/>
                        </use>
                        <path d="M-4,0h8M0,-4v8" fill="none" stroke="white" stroke-width="1.5" pointer-events="none"/>
                </g>
                <g id="zoomMin">
                        <use xlink:href="#rim" target="_top" fill="#404040">
                                <set attributeName="fill" to="#808080" begin="zoomminus.mouseover" end="zoomminus.mouseout"/>
                        </use>
                        <path d="M-4,0h8" fill="none" stroke="white" stroke-width="1.5" pointer-events="none"/>
                </g>
                <g id="dirArrow">
                        <path fill="none" stroke="white" stroke-width="1.5" d="M0,-3.0v7 M-2.5,-0.5L0,-3.0L2.5,-0.5"/>
                </g>
               <g id="resetDef">
                       <use xlink:href="#rim2" target="_top" fill="#404040">
                               <set attributeName="fill" to="#808080" begin="reset.mouseover" end="reset.mouseout"/>
                       </use>
               </g>
        </defs>

<script type="text/javascript">
var viewWidth = 726;
var viewHeight = 431;
var sectionId = 'dynsection-0';
</script>
<script xlink:href="svgpan.js" target="_top"/>
<svg id="graph" class="graph">
<g id="viewport">
<title>VortexEngine/src/Patterns/Multi/ZigzagPattern.cpp</title>
<!-- Node1 -->
<g id="node1" class="node">
<title>Node1</title>
<g id="a_node1"><a xlink:title=" ">
<polygon fill="#bfbfbf" stroke="black" points="397,-392.5 397,-422.5 538,-422.5 538,-392.5 397,-392.5"/>
<text text-anchor="start" x="405" y="-410.5" font-family="Helvetica,sans-Serif" font-size="10.00">VortexEngine/src/Patterns</text>
<text text-anchor="middle" x="467.5" y="-399.5" font-family="Helvetica,sans-Serif" font-size="10.00">/Multi/ZigzagPattern.cpp</text>
</a>
</g>
</g>
<!-- Node2 -->
<g id="node2" class="node">
<title>Node2</title>
<g id="a_node2"><a xlink:href="ZigzagPattern_8h.html" target="_top" target="_top" xlink:title=" ">
<polygon fill="none" stroke="black" points="384,-336.5 384,-355.5 477,-355.5 477,-336.5 384,-336.5"/>
<text text-anchor="middle" x="430.5" y="-343.5" font-family="Helvetica,sans-Serif" font-size="10.00">ZigzagPattern.h</text>
</a>
</g>
</g>
<!-- Node1&#45;&gt;Node2 -->
<g id="edge1" class="edge">
<title>Node1&#45;&gt;Node2</title>
<path fill="none" stroke="midnightblue" d="M458.73,-392.4C453.52,-384.02 446.87,-373.33 441.33,-364.42"/>
<polygon fill="midnightblue" stroke="midnightblue" points="444.14,-362.3 435.88,-355.66 438.19,-366 444.14,-362.3"/>
</g>
<!-- Node15 -->
<g id="node15" class="node">
<title>Node15</title>
<g id="a_node15"><a xlink:href="TimeControl_8h.html" target="_top" target="_top" xlink:title=" ">
<polygon fill="none" stroke="black" points="498.5,-168.5 498.5,-187.5 584.5,-187.5 584.5,-168.5 498.5,-168.5"/>
<text text-anchor="middle" x="541.5" y="-175.5" font-family="Helvetica,sans-Serif" font-size="10.00">TimeControl.h</text>
</a>
</g>
</g>
<!-- Node1&#45;&gt;Node15 -->
<g id="edge28" class="edge">
<title>Node1&#45;&gt;Node15</title>
<path fill="none" stroke="midnightblue" d="M472.75,-392.42C476.46,-382.33 481.46,-368.39 485.5,-356 504.44,-297.83 505.01,-281.99 524.5,-224 527.5,-215.08 531.15,-205.3 534.3,-197.14"/>
<polygon fill="midnightblue" stroke="midnightblue" points="537.66,-198.15 538.05,-187.56 531.14,-195.59 537.66,-198.15"/>
</g>
<!-- Node17 -->
<g id="node17" class="node">
<title>Node17</title>
<g id="a_node17"><a xlink:href="Leds_8h.html" target="_top" target="_top" xlink:title=" ">
<polygon fill="none" stroke="black" points="104.5,-168.5 104.5,-187.5 196.5,-187.5 196.5,-168.5 104.5,-168.5"/>
<text text-anchor="middle" x="150.5" y="-175.5" font-family="Helvetica,sans-Serif" font-size="10.00">../../Leds/Leds.h</text>
</a>
</g>
</g>
<!-- Node1&#45;&gt;Node17 -->
<g id="edge29" class="edge">
<title>Node1&#45;&gt;Node17</title>
<path fill="none" stroke="midnightblue" d="M426.59,-392.42C380.64,-375.32 305.35,-343.29 250.5,-300 211.8,-269.46 177.86,-221.66 161.28,-196.25"/>
<polygon fill="midnightblue" stroke="midnightblue" points="164.14,-194.22 155.8,-187.69 158.24,-197.99 164.14,-194.22"/>
</g>
<!-- Node18 -->
<g id="node18" class="node">
<title>Node18</title>
<g id="a_node18"><a xlink:href="Log_8h.html" target="_top" target="_top" xlink:title=" ">
<polygon fill="none" stroke="black" points="637,-112.5 637,-131.5 718,-131.5 718,-112.5 637,-112.5"/>
<text text-anchor="middle" x="677.5" y="-119.5" font-family="Helvetica,sans-Serif" font-size="10.00">../../Log/Log.h</text>
</a>
</g>
</g>
<!-- Node1&#45;&gt;Node18 -->
<g id="edge33" class="edge">
<title>Node1&#45;&gt;Node18</title>
<path fill="none" stroke="midnightblue" d="M538.16,-396.66C598.13,-383.86 674.5,-354.99 674.5,-291 674.5,-291 674.5,-291 674.5,-233 674.5,-200.94 675.79,-163.63 676.68,-141.74"/>
<polygon fill="midnightblue" stroke="midnightblue" points="680.18,-141.69 677.11,-131.56 673.19,-141.4 680.18,-141.69"/>
</g>
<!-- Node3 -->
<g id="node3" class="node">
<title>Node3</title>
<g id="a_node3"><a xlink:href="MultiLedPattern_8h.html" target="_top" target="_top" xlink:title=" ">
<polygon fill="none" stroke="black" points="259.5,-280.5 259.5,-299.5 361.5,-299.5 361.5,-280.5 259.5,-280.5"/>
<text text-anchor="middle" x="310.5" y="-287.5" font-family="Helvetica,sans-Serif" font-size="10.00">MultiLedPattern.h</text>
</a>
</g>
</g>
<!-- Node2&#45;&gt;Node3 -->
<g id="edge2" class="edge">
<title>Node2&#45;&gt;Node3</title>
<path fill="none" stroke="midnightblue" d="M411.49,-336.44C391.91,-327.64 361.19,-313.81 338.77,-303.72"/>
<polygon fill="midnightblue" stroke="midnightblue" points="339.98,-300.43 329.43,-299.52 337.11,-306.81 339.98,-300.43"/>
</g>
<!-- Node14 -->
<g id="node14" class="node">
<title>Node14</title>
<g id="a_node14"><a xlink:href="Timings_8h.html" target="_top" target="_top" xlink:title=" ">
<polygon fill="none" stroke="black" points="533.5,-224.5 533.5,-243.5 643.5,-243.5 643.5,-224.5 533.5,-224.5"/>
<text text-anchor="middle" x="588.5" y="-231.5" font-family="Helvetica,sans-Serif" font-size="10.00">../../Time/Timings.h</text>
</a>
</g>
</g>
<!-- Node2&#45;&gt;Node14 -->
<g id="edge19" class="edge">
<title>Node2&#45;&gt;Node14</title>
<path fill="none" stroke="midnightblue" d="M442.9,-336.37C469.9,-317.57 534.25,-272.77 567.62,-249.53"/>
<polygon fill="midnightblue" stroke="midnightblue" points="569.95,-252.18 576.16,-243.59 565.95,-246.43 569.95,-252.18"/>
</g>
<!-- Node16 -->
<g id="node16" class="node">
<title>Node16</title>
<g id="a_node16"><a xlink:href="Timer_8h.html" target="_top" target="_top" xlink:title=" ">
<polygon fill="none" stroke="black" points="381,-168.5 381,-187.5 480,-187.5 480,-168.5 381,-168.5"/>
<text text-anchor="middle" x="430.5" y="-175.5" font-family="Helvetica,sans-Serif" font-size="10.00">../../Time/Timer.h</text>
</a>
</g>
</g>
<!-- Node2&#45;&gt;Node16 -->
<g id="edge25" class="edge">
<title>Node2&#45;&gt;Node16</title>
<path fill="none" stroke="midnightblue" d="M430.5,-336.08C430.5,-309.95 430.5,-233.21 430.5,-197.58"/>
<polygon fill="midnightblue" stroke="midnightblue" points="434,-197.57 430.5,-187.57 427,-197.57 434,-197.57"/>
</g>
<!-- Node4 -->
<g id="node4" class="node">
<title>Node4</title>
<g id="a_node4"><a xlink:href="Pattern_8h.html" target="_top" target="_top" xlink:title=" ">
<polygon fill="none" stroke="black" points="235,-224.5 235,-243.5 304,-243.5 304,-224.5 235,-224.5"/>
<text text-anchor="middle" x="269.5" y="-231.5" font-family="Helvetica,sans-Serif" font-size="10.00">../Pattern.h</text>
</a>
</g>
</g>
<!-- Node3&#45;&gt;Node4 -->
<g id="edge3" class="edge">
<title>Node3&#45;&gt;Node4</title>
<path fill="none" stroke="midnightblue" d="M303.73,-280.08C297.94,-272.46 289.44,-261.26 282.36,-251.94"/>
<polygon fill="midnightblue" stroke="midnightblue" points="284.98,-249.6 276.14,-243.75 279.4,-253.83 284.98,-249.6"/>
</g>
<!-- Node5 -->
<g id="node5" class="node">
<title>Node5</title>
<g id="a_node5"><a xlink:href="LedTypes_8h.html" target="_top" target="_top" xlink:title=" ">
<polygon fill="none" stroke="black" points="396,-112.5 396,-131.5 501,-131.5 501,-112.5 396,-112.5"/>
<text text-anchor="middle" x="448.5" y="-119.5" font-family="Helvetica,sans-Serif" font-size="10.00">../Leds/LedTypes.h</text>
</a>
</g>
</g>
<!-- Node4&#45;&gt;Node5 -->
<g id="edge4" class="edge">
<title>Node4&#45;&gt;Node5</title>
<path fill="none" stroke="midnightblue" d="M282.6,-224.42C301.92,-211.83 339.24,-187.7 371.5,-168 389.12,-157.24 409.27,-145.48 424.54,-136.69"/>
<polygon fill="midnightblue" stroke="midnightblue" points="426.42,-139.64 433.35,-131.63 422.93,-133.57 426.42,-139.64"/>
</g>
<!-- Node10 -->
<g id="node10" class="node">
<title>Node10</title>
<g id="a_node10"><a xlink:href="Colorset_8h.html" target="_top" target="_top" xlink:title=" ">
<polygon fill="none" stroke="black" points="215,-168.5 215,-187.5 324,-187.5 324,-168.5 215,-168.5"/>
<text text-anchor="middle" x="269.5" y="-175.5" font-family="Helvetica,sans-Serif" font-size="10.00">../Colors/Colorset.h</text>
</a>
</g>
</g>
<!-- Node4&#45;&gt;Node10 -->
<g id="edge9" class="edge">
<title>Node4&#45;&gt;Node10</title>
<path fill="none" stroke="midnightblue" d="M269.5,-224.08C269.5,-217.01 269.5,-206.86 269.5,-197.99"/>
<polygon fill="midnightblue" stroke="midnightblue" points="273,-197.75 269.5,-187.75 266,-197.75 273,-197.75"/>
</g>
<!-- Node12 -->
<g id="node12" class="node">
<title>Node12</title>
<g id="a_node12"><a xlink:href="Patterns_8h.html" target="_top" target="_top" xlink:title=" ">
<polygon fill="none" stroke="black" points="0,-112.5 0,-131.5 65,-131.5 65,-112.5 0,-112.5"/>
<text text-anchor="middle" x="32.5" y="-119.5" font-family="Helvetica,sans-Serif" font-size="10.00">Patterns.h</text>
</a>
</g>
</g>
<!-- Node4&#45;&gt;Node12 -->
<g id="edge15" class="edge">
<title>Node4&#45;&gt;Node12</title>
<path fill="none" stroke="midnightblue" d="M234.85,-230.79C196.3,-226.96 133.41,-216.49 87.5,-188 68.34,-176.11 52.48,-155.3 42.79,-140.43"/>
<polygon fill="midnightblue" stroke="midnightblue" points="45.6,-138.31 37.35,-131.67 39.65,-142.01 45.6,-138.31"/>
</g>
<!-- Node13 -->
<g id="node13" class="node">
<title>Node13</title>
<g id="a_node13"><a xlink:href="PatternArgs_8h.html" target="_top" target="_top" xlink:title=" ">
<polygon fill="none" stroke="black" points="83.5,-112.5 83.5,-131.5 165.5,-131.5 165.5,-112.5 83.5,-112.5"/>
<text text-anchor="middle" x="124.5" y="-119.5" font-family="Helvetica,sans-Serif" font-size="10.00">PatternArgs.h</text>
</a>
</g>
</g>
<!-- Node4&#45;&gt;Node13 -->
<g id="edge17" class="edge">
<title>Node4&#45;&gt;Node13</title>
<path fill="none" stroke="midnightblue" d="M234.85,-229.03C189.11,-222.99 112.41,-209.83 95.5,-188 83.99,-173.14 96.4,-152.98 108.37,-139.07"/>
<polygon fill="midnightblue" stroke="midnightblue" points="110.97,-141.42 115.18,-131.7 105.83,-136.67 110.97,-141.42"/>
</g>
<!-- Node6 -->
<g id="node6" class="node">
<title>Node6</title>
<g id="a_node6"><a xlink:title=" ">
<polygon fill="none" stroke="#bfbfbf" points="229,-56.5 229,-75.5 294,-75.5 294,-56.5 229,-56.5"/>
<text text-anchor="middle" x="261.5" y="-63.5" font-family="Helvetica,sans-Serif" font-size="10.00">inttypes.h</text>
</a>
</g>
</g>
<!-- Node5&#45;&gt;Node6 -->
<g id="edge5" class="edge">
<title>Node5&#45;&gt;Node6</title>
<path fill="none" stroke="midnightblue" d="M418.87,-112.44C387,-103.24 336.17,-88.56 300.94,-78.39"/>
<polygon fill="midnightblue" stroke="midnightblue" points="301.57,-74.93 290.99,-75.52 299.63,-81.65 301.57,-74.93"/>
</g>
<!-- Node7 -->
<g id="node7" class="node">
<title>Node7</title>
<g id="a_node7"><a xlink:title=" ">
<polygon fill="none" stroke="#bfbfbf" points="582.5,-56.5 582.5,-75.5 638.5,-75.5 638.5,-56.5 582.5,-56.5"/>
<text text-anchor="middle" x="610.5" y="-63.5" font-family="Helvetica,sans-Serif" font-size="10.00">stdarg.h</text>
</a>
</g>
</g>
<!-- Node5&#45;&gt;Node7 -->
<g id="edge6" class="edge">
<title>Node5&#45;&gt;Node7</title>
<path fill="none" stroke="midnightblue" d="M474.17,-112.44C501.42,-103.36 544.68,-88.94 575.15,-78.78"/>
<polygon fill="midnightblue" stroke="midnightblue" points="576.57,-82 584.95,-75.52 574.36,-75.36 576.57,-82"/>
</g>
<!-- Node8 -->
<g id="node8" class="node">
<title>Node8</title>
<g id="a_node8"><a xlink:href="VortexConfig_8h.html" target="_top" target="_top" xlink:title=" ">
<polygon fill="none" stroke="black" points="400,-56.5 400,-75.5 497,-75.5 497,-56.5 400,-56.5"/>
<text text-anchor="middle" x="448.5" y="-63.5" font-family="Helvetica,sans-Serif" font-size="10.00">../VortexConfig.h</text>
</a>
</g>
</g>
<!-- Node5&#45;&gt;Node8 -->
<g id="edge7" class="edge">
<title>Node5&#45;&gt;Node8</title>
<path fill="none" stroke="midnightblue" d="M448.5,-112.08C448.5,-105.01 448.5,-94.86 448.5,-85.99"/>
<polygon fill="midnightblue" stroke="midnightblue" points="452,-85.75 448.5,-75.75 445,-85.75 452,-85.75"/>
</g>
<!-- Node9 -->
<g id="node9" class="node">
<title>Node9</title>
<g id="a_node9"><a xlink:href="ColorConstants_8h.html" target="_top" target="_top" xlink:title=" ">
<polygon fill="none" stroke="black" points="330.5,-0.5 330.5,-19.5 464.5,-19.5 464.5,-0.5 330.5,-0.5"/>
<text text-anchor="middle" x="397.5" y="-7.5" font-family="Helvetica,sans-Serif" font-size="10.00">Colors/ColorConstants.h</text>
</a>
</g>
</g>
<!-- Node8&#45;&gt;Node9 -->
<g id="edge8" class="edge">
<title>Node8&#45;&gt;Node9</title>
<path fill="none" stroke="midnightblue" d="M440.08,-56.08C432.65,-48.22 421.65,-36.57 412.69,-27.08"/>
<polygon fill="midnightblue" stroke="midnightblue" points="415.18,-24.62 405.76,-19.75 410.09,-29.42 415.18,-24.62"/>
</g>
<!-- Node10&#45;&gt;Node8 -->
<g id="edge14" class="edge">
<title>Node10&#45;&gt;Node8</title>
<path fill="none" stroke="midnightblue" d="M283.55,-168.37C314.39,-149.41 388.29,-104 425.81,-80.94"/>
<polygon fill="midnightblue" stroke="midnightblue" points="427.83,-83.81 434.52,-75.59 424.17,-77.85 427.83,-83.81"/>
</g>
<!-- Node11 -->
<g id="node11" class="node">
<title>Node11</title>
<g id="a_node11"><a xlink:href="ColorTypes_8h.html" target="_top" target="_top" xlink:title=" ">
<polygon fill="none" stroke="black" points="222,-112.5 222,-131.5 301,-131.5 301,-112.5 222,-112.5"/>
<text text-anchor="middle" x="261.5" y="-119.5" font-family="Helvetica,sans-Serif" font-size="10.00">ColorTypes.h</text>
</a>
</g>
</g>
<!-- Node10&#45;&gt;Node11 -->
<g id="edge10" class="edge">
<title>Node10&#45;&gt;Node11</title>
<path fill="none" stroke="midnightblue" d="M268.18,-168.08C267.12,-160.93 265.59,-150.64 264.27,-141.69"/>
<polygon fill="midnightblue" stroke="midnightblue" points="267.72,-141.13 262.8,-131.75 260.8,-142.16 267.72,-141.13"/>
</g>
<!-- Node11&#45;&gt;Node6 -->
<g id="edge11" class="edge">
<title>Node11&#45;&gt;Node6</title>
<path fill="none" stroke="midnightblue" d="M261.5,-112.08C261.5,-105.01 261.5,-94.86 261.5,-85.99"/>
<polygon fill="midnightblue" stroke="midnightblue" points="265,-85.75 261.5,-75.75 258,-85.75 265,-85.75"/>
</g>
<!-- Node11&#45;&gt;Node8 -->
<g id="edge12" class="edge">
<title>Node11&#45;&gt;Node8</title>
<path fill="none" stroke="midnightblue" d="M291.13,-112.44C323,-103.24 373.83,-88.56 409.06,-78.39"/>
<polygon fill="midnightblue" stroke="midnightblue" points="410.37,-81.65 419.01,-75.52 408.43,-74.93 410.37,-81.65"/>
</g>
<!-- Node11&#45;&gt;Node9 -->
<g id="edge13" class="edge">
<title>Node11&#45;&gt;Node9</title>
<path fill="none" stroke="midnightblue" d="M272.17,-112.37C295.21,-93.73 349.86,-49.53 378.79,-26.13"/>
<polygon fill="midnightblue" stroke="midnightblue" points="381.3,-28.6 386.88,-19.59 376.9,-23.16 381.3,-28.6"/>
</g>
<!-- Node12&#45;&gt;Node6 -->
<g id="edge16" class="edge">
<title>Node12&#45;&gt;Node6</title>
<path fill="none" stroke="midnightblue" d="M65.31,-113.26C105.7,-103.74 174.38,-87.54 218.83,-77.06"/>
<polygon fill="midnightblue" stroke="midnightblue" points="219.82,-80.42 228.75,-74.72 218.21,-73.61 219.82,-80.42"/>
</g>
<!-- Node13&#45;&gt;Node6 -->
<g id="edge18" class="edge">
<title>Node13&#45;&gt;Node6</title>
<path fill="none" stroke="midnightblue" d="M146.21,-112.44C168.85,-103.52 204.57,-89.44 230.25,-79.32"/>
<polygon fill="midnightblue" stroke="midnightblue" points="231.87,-82.44 239.89,-75.52 229.31,-75.93 231.87,-82.44"/>
</g>
<!-- Node14&#45;&gt;Node8 -->
<g id="edge24" class="edge">
<title>Node14&#45;&gt;Node8</title>
<path fill="none" stroke="midnightblue" d="M590.98,-224.41C594.21,-211.8 598.86,-187.65 593.5,-168 585.9,-140.13 582.41,-130.83 560.5,-112 542.1,-96.18 517.44,-85.47 495.94,-78.48"/>
<polygon fill="midnightblue" stroke="midnightblue" points="496.91,-75.11 486.32,-75.52 494.85,-81.8 496.91,-75.11"/>
</g>
<!-- Node14&#45;&gt;Node15 -->
<g id="edge20" class="edge">
<title>Node14&#45;&gt;Node15</title>
<path fill="none" stroke="midnightblue" d="M580.74,-224.08C573.96,-216.3 563.96,-204.8 555.74,-195.37"/>
<polygon fill="midnightblue" stroke="midnightblue" points="558.32,-193 549.12,-187.75 553.04,-197.59 558.32,-193"/>
</g>
<!-- Node15&#45;&gt;Node5 -->
<g id="edge23" class="edge">
<title>Node15&#45;&gt;Node5</title>
<path fill="none" stroke="midnightblue" d="M526.56,-168.32C511.91,-159.82 489.37,-146.73 472.26,-136.8"/>
<polygon fill="midnightblue" stroke="midnightblue" points="473.81,-133.65 463.4,-131.65 470.3,-139.7 473.81,-133.65"/>
</g>
<!-- Node15&#45;&gt;Node6 -->
<g id="edge21" class="edge">
<title>Node15&#45;&gt;Node6</title>
<path fill="none" stroke="midnightblue" d="M539.96,-168.24C536.97,-154.03 528.98,-126.12 510.5,-112 478.82,-87.8 366.9,-75.3 304.44,-70.07"/>
<polygon fill="midnightblue" stroke="midnightblue" points="304.37,-66.55 294.12,-69.23 303.81,-73.53 304.37,-66.55"/>
</g>
<!-- Node15&#45;&gt;Node8 -->
<g id="edge22" class="edge">
<title>Node15&#45;&gt;Node8</title>
<path fill="none" stroke="midnightblue" d="M544.66,-168.2C548.84,-154.89 554.49,-129.36 543.5,-112 533.45,-96.13 516.13,-85.74 499,-79"/>
<polygon fill="midnightblue" stroke="midnightblue" points="500.15,-75.69 489.55,-75.62 497.79,-82.28 500.15,-75.69"/>
</g>
<!-- Node16&#45;&gt;Node5 -->
<g id="edge27" class="edge">
<title>Node16&#45;&gt;Node5</title>
<path fill="none" stroke="midnightblue" d="M433.47,-168.08C435.88,-160.85 439.36,-150.41 442.37,-141.4"/>
<polygon fill="midnightblue" stroke="midnightblue" points="445.74,-142.34 445.58,-131.75 439.1,-140.13 445.74,-142.34"/>
</g>
<!-- Node16&#45;&gt;Node6 -->
<g id="edge26" class="edge">
<title>Node16&#45;&gt;Node6</title>
<path fill="none" stroke="midnightblue" d="M417.24,-168.37C388.24,-149.49 318.94,-104.38 283.37,-81.24"/>
<polygon fill="midnightblue" stroke="midnightblue" points="284.99,-78.11 274.7,-75.59 281.17,-83.98 284.99,-78.11"/>
</g>
<!-- Node17&#45;&gt;Node5 -->
<g id="edge32" class="edge">
<title>Node17&#45;&gt;Node5</title>
<path fill="none" stroke="midnightblue" d="M196.74,-168.62C249.17,-159.12 334.71,-143.62 391.3,-133.36"/>
<polygon fill="midnightblue" stroke="midnightblue" points="391.95,-136.8 401.17,-131.58 390.71,-129.92 391.95,-136.8"/>
</g>
<!-- Node17&#45;&gt;Node6 -->
<g id="edge30" class="edge">
<title>Node17&#45;&gt;Node6</title>
<path fill="none" stroke="midnightblue" d="M158.35,-168.41C169.95,-155.81 192.46,-131.66 212.5,-112 222.7,-101.99 234.49,-91.14 243.95,-82.61"/>
<polygon fill="midnightblue" stroke="midnightblue" points="246.45,-85.06 251.56,-75.78 241.78,-79.85 246.45,-85.06"/>
</g>
<!-- Node17&#45;&gt;Node11 -->
<g id="edge31" class="edge">
<title>Node17&#45;&gt;Node11</title>
<path fill="none" stroke="midnightblue" d="M168.33,-168.32C186.22,-159.62 213.98,-146.12 234.55,-136.11"/>
<polygon fill="midnightblue" stroke="midnightblue" points="236.25,-139.18 243.71,-131.65 233.19,-132.88 236.25,-139.18"/>
</g>
<!-- Node18&#45;&gt;Node7 -->
<g id="edge34" class="edge">
<title>Node18&#45;&gt;Node7</title>
<path fill="none" stroke="midnightblue" d="M666.74,-112.32C656.73,-104.26 641.61,-92.08 629.57,-82.37"/>
<polygon fill="midnightblue" stroke="midnightblue" points="631.44,-79.38 621.46,-75.83 627.05,-84.83 631.44,-79.38"/>
</g>
<!-- Node18&#45;&gt;Node8 -->
<g id="edge35" class="edge">
<title>Node18&#45;&gt;Node8</title>
<path fill="none" stroke="midnightblue" d="M641.21,-112.44C601.52,-103.08 537.79,-88.06 494.59,-77.87"/>
<polygon fill="midnightblue" stroke="midnightblue" points="495.15,-74.41 484.62,-75.52 493.55,-81.22 495.15,-74.41"/>
</g>
</g>
</svg>
        <g id="navigator" transform="translate(0 0)" fill="#404254">
                <rect fill="#f2f5e9" fill-opacity="0.5" stroke="#606060" stroke-width=".5" x="0" y="0" width="60" height="60"/>
                <use id="zoomplus" xlink:href="#zoomPlus" target="_top" x="17" y="9" onmousedown="handleZoom(evt,'in')"/>
                <use id="zoomminus" xlink:href="#zoomMin" target="_top" x="42" y="9" onmousedown="handleZoom(evt,'out')"/>
                <use id="reset" xlink:href="#resetDef" target="_top" x="30" y="36" onmousedown="handleReset()"/>
                <g id="arrowUp" xlink:href="#dirArrow" target="_top" transform="translate(30 24)" onmousedown="handlePan(0,-1)">
                  <use xlink:href="#rim" target="_top" fill="#404040">
                        <set attributeName="fill" to="#808080" begin="arrowUp.mouseover" end="arrowUp.mouseout"/>
                  </use>
                  <path fill="none" stroke="white" stroke-width="1.5" d="M0,-3.0v7 M-2.5,-0.5L0,-3.0L2.5,-0.5"/>
                </g>
                <g id="arrowRight" xlink:href="#dirArrow" target="_top" transform="rotate(90) translate(36 -43)" onmousedown="handlePan(1,0)">
                  <use xlink:href="#rim" target="_top" fill="#404040">
                        <set attributeName="fill" to="#808080" begin="arrowRight.mouseover" end="arrowRight.mouseout"/>
                  </use>
                  <path fill="none" stroke="white" stroke-width="1.5" d="M0,-3.0v7 M-2.5,-0.5L0,-3.0L2.5,-0.5"/>
                </g>
                <g id="arrowDown" xlink:href="#dirArrow" target="_top" transform="rotate(180) translate(-30 -48)" onmousedown="handlePan(0,1)">
                  <use xlink:href="#rim" target="_top" fill="#404040">
                        <set attributeName="fill" to="#808080" begin="arrowDown.mouseover" end="arrowDown.mouseout"/>
                  </use>
                  <path fill="none" stroke="white" stroke-width="1.5" d="M0,-3.0v7 M-2.5,-0.5L0,-3.0L2.5,-0.5"/>
                </g>
                <g id="arrowLeft" xlink:href="#dirArrow" target="_top" transform="rotate(270) translate(-36 17)" onmousedown="handlePan(-1,0)">
                  <use xlink:href="#rim" target="_top" fill="#404040">
                        <set attributeName="fill" to="#808080" begin="arrowLeft.mouseover" end="arrowLeft.mouseout"/>
                  </use>
                  <path fill="none" stroke="white" stroke-width="1.5" d="M0,-3.0v7 M-2.5,-0.5L0,-3.0L2.5,-0.5"/>
                </g>
        </g>
        <svg viewBox="0 0 15 15" width="100%" height="30px" preserveAspectRatio="xMaxYMin meet">
         <g id="arrow_out" transform="scale(0.3 0.3)">
          <a xlink:href="ZigzagPattern_8cpp__incl_org.svg" target="_top" target="_base">
           <rect id="button" ry="5" rx="5" y="6" x="6" height="38" width="38"
                fill="#f2f5e9" fill-opacity="0.5" stroke="#606060" stroke-width="1.0"/>
           <path id="arrow"
             d="M 11.500037,31.436501 C 11.940474,20.09759 22.043105,11.32322 32.158766,21.979434 L 37.068811,17.246167 C 37.068811,17.246167 37.088388,32 37.088388,32 L 22.160133,31.978069 C 22.160133,31.978069 26.997745,27.140456 26.997745,27.140456 C 18.528582,18.264221 13.291696,25.230495 11.500037,31.436501 z"
             style="fill:#404040;"/>
          </a>
         </g>
        </svg>
</svg>
