<?xml version="1.0" encoding="UTF-8" standalone="no"?>
<!DOCTYPE svg PUBLIC "-//W3C//DTD SVG 1.1//EN"
 "http://www.w3.org/Graphics/SVG/1.1/DTD/svg11.dtd">
<!-- Generated by graphviz version 2.43.0 (0)
 -->
<!-- Title: VortexEngine/src/Wireless/IRReceiver.cpp Pages: 1 -->
<!--zoomable 319 -->
<svg id="main" version="1.1" xmlns="http://www.w3.org/2000/svg" xmlns:xlink="http://www.w3.org/1999/xlink" xml:space="preserve" onload="init(evt)">
<style type="text/css"><![CDATA[
.edge:hover path { stroke: red; }
.edge:hover polygon { stroke: red; fill: red; }
]]></style>
<script type="text/javascript"><![CDATA[
var edges = document.getElementsByTagName('g');
if (edges && edges.length) {
  for (var i=0;i<edges.length;i++) {
    if (edges[i].id.substr(0,4)=='edge') {
      edges[i].setAttribute('class','edge');
    }
  }
}
]]></script>
        <defs>
                <circle id="rim" cx="0" cy="0" r="7"/>
                <circle id="rim2" cx="0" cy="0" r="3.5"/>
                <g id="zoomPlus">
                        <use xlink:href="#rim" fill="#404040">
                                <set attributeName="fill" to="#808080" begin="zoomplus.mouseover" end="zoomplus.mouseout"/>
                        </use>
                        <path d="M-4,0h8M0,-4v8" fill="none" stroke="white" stroke-width="1.5" pointer-events="none"/>
                </g>
                <g id="zoomMin">
                        <use xlink:href="#rim" fill="#404040">
                                <set attributeName="fill" to="#808080" begin="zoomminus.mouseover" end="zoomminus.mouseout"/>
                        </use>
                        <path d="M-4,0h8" fill="none" stroke="white" stroke-width="1.5" pointer-events="none"/>
                </g>
                <g id="dirArrow">
                        <path fill="none" stroke="white" stroke-width="1.5" d="M0,-3.0v7 M-2.5,-0.5L0,-3.0L2.5,-0.5"/>
                </g>
               <g id="resetDef">
                       <use xlink:href="#rim2" fill="#404040">
                               <set attributeName="fill" to="#808080" begin="reset.mouseover" end="reset.mouseout"/>
                       </use>
               </g>
        </defs>

<script type="text/javascript">
var viewWidth = 847;
var viewHeight = 319;
var sectionId = 'dynsection-0';
</script>
<script xlink:href="svgpan.js"/>
<svg id="graph" class="graph">
<g id="viewport">
<title>VortexEngine/src/Wireless/IRReceiver.cpp</title>
<!-- Node1 -->
<g id="node1" class="node">
<title>Node1</title>
<g id="a_node1"><a xlink:title=" ">
<polygon fill="#bfbfbf" stroke="black" points="264.5,-280.5 264.5,-310.5 407.5,-310.5 407.5,-280.5 264.5,-280.5"/>
<text text-anchor="start" x="272.5" y="-298.5" font-family="Helvetica,sans-Serif" font-size="10.00">VortexEngine/src/Wireless</text>
<text text-anchor="middle" x="336" y="-287.5" font-family="Helvetica,sans-Serif" font-size="10.00">/IRReceiver.cpp</text>
</a>
</g>
</g>
<!-- Node2 -->
<g id="node2" class="node">
<title>Node2</title>
<g id="a_node2"><a xlink:href="IRReceiver_8h.html" target="_top" xlink:title=" ">
<polygon fill="none" stroke="black" points="113.5,-224.5 113.5,-243.5 190.5,-243.5 190.5,-224.5 113.5,-224.5"/>
<text text-anchor="middle" x="152" y="-231.5" font-family="Helvetica,sans-Serif" font-size="10.00">IRReceiver.h</text>
</a>
</g>
</g>
<!-- Node1&#45;&gt;Node2 -->
<g id="edge1" class="edge">
<title>Node1&#45;&gt;Node2</title>
<path fill="none" stroke="midnightblue" d="M292.39,-280.4C260.6,-270.12 218.03,-256.35 188.13,-246.68"/>
<polygon fill="midnightblue" stroke="midnightblue" points="189.1,-243.32 178.51,-243.57 186.94,-249.98 189.1,-243.32"/>
</g>
<!-- Node4 -->
<g id="node4" class="node">
<title>Node4</title>
<g id="a_node4"><a xlink:href="BitStream_8h.html" target="_top" xlink:title=" ">
<polygon fill="none" stroke="black" points="0,-168.5 0,-187.5 114,-187.5 114,-168.5 0,-168.5"/>
<text text-anchor="middle" x="57" y="-175.5" font-family="Helvetica,sans-Serif" font-size="10.00">../Serial/BitStream.h</text>
</a>
</g>
</g>
<!-- Node1&#45;&gt;Node4 -->
<g id="edge15" class="edge">
<title>Node1&#45;&gt;Node4</title>
<path fill="none" stroke="midnightblue" d="M264.43,-292.11C215.76,-287.48 151.77,-275.27 104,-244 86.39,-232.47 73.19,-211.91 65.34,-196.99"/>
<polygon fill="midnightblue" stroke="midnightblue" points="68.33,-195.15 60.76,-187.74 62.06,-198.26 68.33,-195.15"/>
</g>
<!-- Node5 -->
<g id="node5" class="node">
<title>Node5</title>
<g id="a_node5"><a xlink:href="IRConfig_8h.html" target="_top" xlink:title=" ">
<polygon fill="none" stroke="black" points="170,-168.5 170,-187.5 236,-187.5 236,-168.5 170,-168.5"/>
<text text-anchor="middle" x="203" y="-175.5" font-family="Helvetica,sans-Serif" font-size="10.00">IRConfig.h</text>
</a>
</g>
</g>
<!-- Node1&#45;&gt;Node5 -->
<g id="edge29" class="edge">
<title>Node1&#45;&gt;Node5</title>
<path fill="none" stroke="midnightblue" d="M319.69,-280.34C294.53,-258.49 246.45,-216.73 220.55,-194.24"/>
<polygon fill="midnightblue" stroke="midnightblue" points="222.83,-191.58 212.98,-187.67 218.24,-196.87 222.83,-191.58"/>
</g>
<!-- Node6 -->
<g id="node6" class="node">
<title>Node6</title>
<g id="a_node6"><a xlink:href="ByteStream_8h.html" target="_top" xlink:title=" ">
<polygon fill="none" stroke="black" points="402.5,-224.5 402.5,-243.5 525.5,-243.5 525.5,-224.5 402.5,-224.5"/>
<text text-anchor="middle" x="464" y="-231.5" font-family="Helvetica,sans-Serif" font-size="10.00">../Serial/ByteStream.h</text>
</a>
</g>
</g>
<!-- Node1&#45;&gt;Node6 -->
<g id="edge6" class="edge">
<title>Node1&#45;&gt;Node6</title>
<path fill="none" stroke="midnightblue" d="M366.33,-280.4C387.52,-270.55 415.59,-257.5 436.2,-247.92"/>
<polygon fill="midnightblue" stroke="midnightblue" points="437.78,-251.05 445.37,-243.66 434.83,-244.7 437.78,-251.05"/>
</g>
<!-- Node7 -->
<g id="node7" class="node">
<title>Node7</title>
<g id="a_node7"><a xlink:href="Log_8h.html" target="_top" xlink:title=" ">
<polygon fill="none" stroke="black" points="548,-168.5 548,-187.5 620,-187.5 620,-168.5 548,-168.5"/>
<text text-anchor="middle" x="584" y="-175.5" font-family="Helvetica,sans-Serif" font-size="10.00">../Log/Log.h</text>
</a>
</g>
</g>
<!-- Node1&#45;&gt;Node7 -->
<g id="edge28" class="edge">
<title>Node1&#45;&gt;Node7</title>
<path fill="none" stroke="midnightblue" d="M407.95,-288.04C448.03,-281.68 497.3,-269.06 535,-244 552.79,-232.18 566.65,-211.66 575.02,-196.84"/>
<polygon fill="midnightblue" stroke="midnightblue" points="578.3,-198.13 579.92,-187.66 572.12,-194.83 578.3,-198.13"/>
</g>
<!-- Node12 -->
<g id="node12" class="node">
<title>Node12</title>
<g id="a_node12"><a xlink:href="TimeControl_8h.html" target="_top" xlink:title=" ">
<polygon fill="none" stroke="black" points="292,-168.5 292,-187.5 414,-187.5 414,-168.5 292,-168.5"/>
<text text-anchor="middle" x="353" y="-175.5" font-family="Helvetica,sans-Serif" font-size="10.00">../Time/TimeControl.h</text>
</a>
</g>
</g>
<!-- Node1&#45;&gt;Node12 -->
<g id="edge16" class="edge">
<title>Node1&#45;&gt;Node12</title>
<path fill="none" stroke="midnightblue" d="M338.08,-280.34C341.15,-259.53 346.87,-220.66 350.26,-197.58"/>
<polygon fill="midnightblue" stroke="midnightblue" points="353.73,-198.07 351.72,-187.67 346.81,-197.05 353.73,-198.07"/>
</g>
<!-- Node14 -->
<g id="node14" class="node">
<title>Node14</title>
<g id="a_node14"><a xlink:href="Mode_8h.html" target="_top" xlink:title=" ">
<polygon fill="none" stroke="black" points="432.5,-168.5 432.5,-187.5 529.5,-187.5 529.5,-168.5 432.5,-168.5"/>
<text text-anchor="middle" x="481" y="-175.5" font-family="Helvetica,sans-Serif" font-size="10.00">../Modes/Mode.h</text>
</a>
</g>
</g>
<!-- Node1&#45;&gt;Node14 -->
<g id="edge23" class="edge">
<title>Node1&#45;&gt;Node14</title>
<path fill="none" stroke="midnightblue" d="M344.84,-280.31C354.99,-264.92 372.84,-240.37 393,-224 409.75,-210.41 431.27,-199.31 448.84,-191.54"/>
<polygon fill="midnightblue" stroke="midnightblue" points="450.31,-194.71 458.14,-187.57 447.56,-188.28 450.31,-194.71"/>
</g>
<!-- Node3 -->
<g id="node3" class="node">
<title>Node3</title>
<g id="a_node3"><a xlink:title=" ">
<polygon fill="none" stroke="#bfbfbf" points="269.5,-56.5 269.5,-75.5 334.5,-75.5 334.5,-56.5 269.5,-56.5"/>
<text text-anchor="middle" x="302" y="-63.5" font-family="Helvetica,sans-Serif" font-size="10.00">inttypes.h</text>
</a>
</g>
</g>
<!-- Node2&#45;&gt;Node3 -->
<g id="edge2" class="edge">
<title>Node2&#45;&gt;Node3</title>
<path fill="none" stroke="midnightblue" d="M151.13,-224.3C150.25,-211.11 150.28,-185.75 161,-168 186.86,-125.19 238.52,-95.41 271.62,-79.78"/>
<polygon fill="midnightblue" stroke="midnightblue" points="273.19,-82.91 280.83,-75.56 270.28,-76.54 273.19,-82.91"/>
</g>
<!-- Node2&#45;&gt;Node4 -->
<g id="edge3" class="edge">
<title>Node2&#45;&gt;Node4</title>
<path fill="none" stroke="midnightblue" d="M136.74,-224.32C121.78,-215.82 98.75,-202.73 81.27,-192.8"/>
<polygon fill="midnightblue" stroke="midnightblue" points="82.65,-189.55 72.23,-187.65 79.19,-195.64 82.65,-189.55"/>
</g>
<!-- Node2&#45;&gt;Node5 -->
<g id="edge5" class="edge">
<title>Node2&#45;&gt;Node5</title>
<path fill="none" stroke="midnightblue" d="M160.42,-224.08C167.85,-216.22 178.85,-204.57 187.81,-195.08"/>
<polygon fill="midnightblue" stroke="midnightblue" points="190.41,-197.42 194.74,-187.75 185.32,-192.62 190.41,-197.42"/>
</g>
<!-- Node4&#45;&gt;Node3 -->
<g id="edge4" class="edge">
<title>Node4&#45;&gt;Node3</title>
<path fill="none" stroke="midnightblue" d="M63.89,-168.4C75.58,-154.42 100.68,-126.83 128,-112 169.43,-89.52 222.57,-77.9 259.16,-72.15"/>
<polygon fill="midnightblue" stroke="midnightblue" points="260.11,-75.55 269.48,-70.61 259.08,-68.62 260.11,-75.55"/>
</g>
<!-- Node6&#45;&gt;Node3 -->
<g id="edge7" class="edge">
<title>Node6&#45;&gt;Node3</title>
<path fill="none" stroke="midnightblue" d="M402.42,-225.81C355.95,-218.97 297.76,-206.88 283,-188 259.41,-157.83 278.42,-110.23 291.76,-84.65"/>
<polygon fill="midnightblue" stroke="midnightblue" points="294.92,-86.17 296.66,-75.72 288.78,-82.8 294.92,-86.17"/>
</g>
<!-- Node6&#45;&gt;Node7 -->
<g id="edge8" class="edge">
<title>Node6&#45;&gt;Node7</title>
<path fill="none" stroke="midnightblue" d="M483.01,-224.44C502.59,-215.64 533.31,-201.81 555.73,-191.72"/>
<polygon fill="midnightblue" stroke="midnightblue" points="557.39,-194.81 565.07,-187.52 554.52,-188.43 557.39,-194.81"/>
</g>
<!-- Node8 -->
<g id="node8" class="node">
<title>Node8</title>
<g id="a_node8"><a xlink:title=" ">
<polygon fill="none" stroke="#bfbfbf" points="783,-56.5 783,-75.5 839,-75.5 839,-56.5 783,-56.5"/>
<text text-anchor="middle" x="811" y="-63.5" font-family="Helvetica,sans-Serif" font-size="10.00">stdarg.h</text>
</a>
</g>
</g>
<!-- Node7&#45;&gt;Node8 -->
<g id="edge9" class="edge">
<title>Node7&#45;&gt;Node8</title>
<path fill="none" stroke="midnightblue" d="M620.34,-173.95C674.2,-168.69 771.51,-156.06 796,-132 808.12,-120.09 811.28,-100.47 811.76,-85.9"/>
<polygon fill="midnightblue" stroke="midnightblue" points="815.26,-85.51 811.7,-75.54 808.26,-85.56 815.26,-85.51"/>
</g>
<!-- Node9 -->
<g id="node9" class="node">
<title>Node9</title>
<g id="a_node9"><a xlink:href="VortexConfig_8h.html" target="_top" xlink:title=" ">
<polygon fill="none" stroke="black" points="636.5,-56.5 636.5,-75.5 733.5,-75.5 733.5,-56.5 636.5,-56.5"/>
<text text-anchor="middle" x="685" y="-63.5" font-family="Helvetica,sans-Serif" font-size="10.00">../VortexConfig.h</text>
</a>
</g>
</g>
<!-- Node7&#45;&gt;Node9 -->
<g id="edge10" class="edge">
<title>Node7&#45;&gt;Node9</title>
<path fill="none" stroke="midnightblue" d="M620.39,-173.96C671.48,-168.84 760.42,-156.58 780,-132 798.98,-108.17 761.66,-89.67 728.37,-78.6"/>
<polygon fill="midnightblue" stroke="midnightblue" points="729.28,-75.22 718.69,-75.55 727.17,-81.89 729.28,-75.22"/>
</g>
<!-- Node11 -->
<g id="node11" class="node">
<title>Node11</title>
<g id="a_node11"><a xlink:href="ErrorBlinker_8h.html" target="_top" xlink:title=" ">
<polygon fill="none" stroke="black" points="503.5,-112.5 503.5,-131.5 614.5,-131.5 614.5,-112.5 503.5,-112.5"/>
<text text-anchor="middle" x="559" y="-119.5" font-family="Helvetica,sans-Serif" font-size="10.00">../Log/ErrorBlinker.h</text>
</a>
</g>
</g>
<!-- Node7&#45;&gt;Node11 -->
<g id="edge12" class="edge">
<title>Node7&#45;&gt;Node11</title>
<path fill="none" stroke="midnightblue" d="M579.87,-168.08C576.49,-160.77 571.58,-150.18 567.38,-141.1"/>
<polygon fill="midnightblue" stroke="midnightblue" points="570.43,-139.36 563.05,-131.75 564.08,-142.3 570.43,-139.36"/>
</g>
<!-- Node10 -->
<g id="node10" class="node">
<title>Node10</title>
<g id="a_node10"><a xlink:href="ColorConstants_8h.html" target="_top" xlink:title=" ">
<polygon fill="none" stroke="black" points="618,-0.5 618,-19.5 752,-19.5 752,-0.5 618,-0.5"/>
<text text-anchor="middle" x="685" y="-7.5" font-family="Helvetica,sans-Serif" font-size="10.00">Colors/ColorConstants.h</text>
</a>
</g>
</g>
<!-- Node9&#45;&gt;Node10 -->
<g id="edge11" class="edge">
<title>Node9&#45;&gt;Node10</title>
<path fill="none" stroke="midnightblue" d="M685,-56.08C685,-49.01 685,-38.86 685,-29.99"/>
<polygon fill="midnightblue" stroke="midnightblue" points="688.5,-29.75 685,-19.75 681.5,-29.75 688.5,-29.75"/>
</g>
<!-- Node11&#45;&gt;Node3 -->
<g id="edge13" class="edge">
<title>Node11&#45;&gt;Node3</title>
<path fill="none" stroke="midnightblue" d="M518.28,-112.44C470.84,-102.48 392.83,-86.09 344.6,-75.95"/>
<polygon fill="midnightblue" stroke="midnightblue" points="345.29,-72.52 334.78,-73.89 343.85,-79.37 345.29,-72.52"/>
</g>
<!-- Node11&#45;&gt;Node9 -->
<g id="edge14" class="edge">
<title>Node11&#45;&gt;Node9</title>
<path fill="none" stroke="midnightblue" d="M578.97,-112.44C599.61,-103.6 632.06,-89.69 655.63,-79.59"/>
<polygon fill="midnightblue" stroke="midnightblue" points="657.32,-82.67 665.13,-75.52 654.56,-76.24 657.32,-82.67"/>
</g>
<!-- Node12&#45;&gt;Node3 -->
<g id="edge17" class="edge">
<title>Node12&#45;&gt;Node3</title>
<path fill="none" stroke="midnightblue" d="M347.12,-168.31C341.27,-159.44 332.3,-145.14 326,-132 318.69,-116.75 312.17,-98.64 307.77,-85.41"/>
<polygon fill="midnightblue" stroke="midnightblue" points="311.02,-84.06 304.61,-75.62 304.36,-86.21 311.02,-84.06"/>
</g>
<!-- Node12&#45;&gt;Node9 -->
<g id="edge18" class="edge">
<title>Node12&#45;&gt;Node9</title>
<path fill="none" stroke="midnightblue" d="M350.83,-168.5C347.87,-154.65 344.44,-127.24 359,-112 394.67,-74.68 542.43,-67.63 626.25,-66.7"/>
<polygon fill="midnightblue" stroke="midnightblue" points="626.42,-70.2 636.39,-66.62 626.37,-63.2 626.42,-70.2"/>
</g>
<!-- Node13 -->
<g id="node13" class="node">
<title>Node13</title>
<g id="a_node13"><a xlink:href="LedTypes_8h.html" target="_top" xlink:title=" ">
<polygon fill="none" stroke="black" points="632.5,-112.5 632.5,-131.5 737.5,-131.5 737.5,-112.5 632.5,-112.5"/>
<text text-anchor="middle" x="685" y="-119.5" font-family="Helvetica,sans-Serif" font-size="10.00">../Leds/LedTypes.h</text>
</a>
</g>
</g>
<!-- Node12&#45;&gt;Node13 -->
<g id="edge19" class="edge">
<title>Node12&#45;&gt;Node13</title>
<path fill="none" stroke="midnightblue" d="M405.61,-168.44C464.49,-158.87 559.85,-143.36 622.49,-133.17"/>
<polygon fill="midnightblue" stroke="midnightblue" points="623.33,-136.58 632.64,-131.52 622.21,-129.67 623.33,-136.58"/>
</g>
<!-- Node13&#45;&gt;Node3 -->
<g id="edge20" class="edge">
<title>Node13&#45;&gt;Node3</title>
<path fill="none" stroke="midnightblue" d="M632.43,-113.22C629.58,-112.8 626.76,-112.4 624,-112 524.18,-97.66 406.85,-81.42 345.07,-72.91"/>
<polygon fill="midnightblue" stroke="midnightblue" points="345.31,-69.41 334.92,-71.52 344.35,-76.35 345.31,-69.41"/>
</g>
<!-- Node13&#45;&gt;Node8 -->
<g id="edge21" class="edge">
<title>Node13&#45;&gt;Node8</title>
<path fill="none" stroke="midnightblue" d="M704.97,-112.44C725.61,-103.6 758.06,-89.69 781.63,-79.59"/>
<polygon fill="midnightblue" stroke="midnightblue" points="783.32,-82.67 791.13,-75.52 780.56,-76.24 783.32,-82.67"/>
</g>
<!-- Node13&#45;&gt;Node9 -->
<g id="edge22" class="edge">
<title>Node13&#45;&gt;Node9</title>
<path fill="none" stroke="midnightblue" d="M685,-112.08C685,-105.01 685,-94.86 685,-85.99"/>
<polygon fill="midnightblue" stroke="midnightblue" points="688.5,-85.75 685,-75.75 681.5,-85.75 688.5,-85.75"/>
</g>
<!-- Node14&#45;&gt;Node9 -->
<g id="edge27" class="edge">
<title>Node14&#45;&gt;Node9</title>
<path fill="none" stroke="midnightblue" d="M529.7,-169.16C605.99,-156.83 745.25,-134.08 747,-132 762.82,-113.28 735.86,-93.05 712.67,-80.22"/>
<polygon fill="midnightblue" stroke="midnightblue" points="714.23,-77.08 703.75,-75.52 710.97,-83.28 714.23,-77.08"/>
</g>
<!-- Node14&#45;&gt;Node13 -->
<g id="edge24" class="edge">
<title>Node14&#45;&gt;Node13</title>
<path fill="none" stroke="midnightblue" d="M513.32,-168.44C548.39,-159.16 604.5,-144.31 642.96,-134.13"/>
<polygon fill="midnightblue" stroke="midnightblue" points="644.06,-137.46 652.83,-131.52 642.26,-130.69 644.06,-137.46"/>
</g>
<!-- Node15 -->
<g id="node15" class="node">
<title>Node15</title>
<g id="a_node15"><a xlink:href="Patterns_8h.html" target="_top" xlink:title=" ">
<polygon fill="none" stroke="black" points="368.5,-112.5 368.5,-131.5 485.5,-131.5 485.5,-112.5 368.5,-112.5"/>
<text text-anchor="middle" x="427" y="-119.5" font-family="Helvetica,sans-Serif" font-size="10.00">../Patterns/Patterns.h</text>
</a>
</g>
</g>
<!-- Node14&#45;&gt;Node15 -->
<g id="edge25" class="edge">
<title>Node14&#45;&gt;Node15</title>
<path fill="none" stroke="midnightblue" d="M472.08,-168.08C464.22,-160.22 452.57,-148.57 443.08,-139.08"/>
<polygon fill="midnightblue" stroke="midnightblue" points="445.3,-136.35 435.75,-131.75 440.35,-141.3 445.3,-136.35"/>
</g>
<!-- Node15&#45;&gt;Node3 -->
<g id="edge26" class="edge">
<title>Node15&#45;&gt;Node3</title>
<path fill="none" stroke="midnightblue" d="M407.19,-112.44C386.71,-103.6 354.52,-89.69 331.14,-79.59"/>
<polygon fill="midnightblue" stroke="midnightblue" points="332.28,-76.27 321.71,-75.52 329.51,-82.7 332.28,-76.27"/>
</g>
</g>
</svg>
        <g id="navigator" transform="translate(0 0)" fill="#404254">
                <rect fill="#f2f5e9" fill-opacity="0.5" stroke="#606060" stroke-width=".5" x="0" y="0" width="60" height="60"/>
                <use id="zoomplus" xlink:href="#zoomPlus" x="17" y="9" onmousedown="handleZoom(evt,'in')"/>
                <use id="zoomminus" xlink:href="#zoomMin" x="42" y="9" onmousedown="handleZoom(evt,'out')"/>
                <use id="reset" xlink:href="#resetDef" x="30" y="36" onmousedown="handleReset()"/>
                <g id="arrowUp" xlink:href="#dirArrow" transform="translate(30 24)" onmousedown="handlePan(0,-1)">
                  <use xlink:href="#rim" fill="#404040">
                        <set attributeName="fill" to="#808080" begin="arrowUp.mouseover" end="arrowUp.mouseout"/>
                  </use>
                  <path fill="none" stroke="white" stroke-width="1.5" d="M0,-3.0v7 M-2.5,-0.5L0,-3.0L2.5,-0.5"/>
                </g>
                <g id="arrowRight" xlink:href="#dirArrow" transform="rotate(90) translate(36 -43)" onmousedown="handlePan(1,0)">
                  <use xlink:href="#rim" fill="#404040">
                        <set attributeName="fill" to="#808080" begin="arrowRight.mouseover" end="arrowRight.mouseout"/>
                  </use>
                  <path fill="none" stroke="white" stroke-width="1.5" d="M0,-3.0v7 M-2.5,-0.5L0,-3.0L2.5,-0.5"/>
                </g>
                <g id="arrowDown" xlink:href="#dirArrow" transform="rotate(180) translate(-30 -48)" onmousedown="handlePan(0,1)">
                  <use xlink:href="#rim" fill="#404040">
                        <set attributeName="fill" to="#808080" begin="arrowDown.mouseover" end="arrowDown.mouseout"/>
                  </use>
                  <path fill="none" stroke="white" stroke-width="1.5" d="M0,-3.0v7 M-2.5,-0.5L0,-3.0L2.5,-0.5"/>
                </g>
                <g id="arrowLeft" xlink:href="#dirArrow" transform="rotate(270) translate(-36 17)" onmousedown="handlePan(-1,0)">
                  <use xlink:href="#rim" fill="#404040">
                        <set attributeName="fill" to="#808080" begin="arrowLeft.mouseover" end="arrowLeft.mouseout"/>
                  </use>
                  <path fill="none" stroke="white" stroke-width="1.5" d="M0,-3.0v7 M-2.5,-0.5L0,-3.0L2.5,-0.5"/>
                </g>
        </g>
        <svg viewBox="0 0 15 15" width="100%" height="30px" preserveAspectRatio="xMaxYMin meet">
         <g id="arrow_out" transform="scale(0.3 0.3)">
          <a xlink:href="IRReceiver_8cpp__incl_org.svg" target="_base">
           <rect id="button" ry="5" rx="5" y="6" x="6" height="38" width="38"
                fill="#f2f5e9" fill-opacity="0.5" stroke="#606060" stroke-width="1.0"/>
           <path id="arrow"
             d="M 11.500037,31.436501 C 11.940474,20.09759 22.043105,11.32322 32.158766,21.979434 L 37.068811,17.246167 C 37.068811,17.246167 37.088388,32 37.088388,32 L 22.160133,31.978069 C 22.160133,31.978069 26.997745,27.140456 26.997745,27.140456 C 18.528582,18.264221 13.291696,25.230495 11.500037,31.436501 z"
             style="fill:#404040;"/>
          </a>
         </g>
        </svg>
</svg>
