<?xml version="1.0" encoding="UTF-8" standalone="no"?>
<!DOCTYPE svg PUBLIC "-//W3C//DTD SVG 1.1//EN"
 "http://www.w3.org/Graphics/SVG/1.1/DTD/svg11.dtd">
<!-- Generated by graphviz version 2.43.0 (0)
 -->
<!-- Title: VortexEngine/src/Wireless/VLSender.cpp Pages: 1 -->
<svg width="837pt" height="375pt"
 viewBox="0.00 0.00 837.19 375.00" xmlns="http://www.w3.org/2000/svg" xmlns:xlink="http://www.w3.org/1999/xlink">
<g id="graph0" class="graph" transform="scale(1 1) rotate(0) translate(4 371)">
<title>VortexEngine/src/Wireless/VLSender.cpp</title>
<!-- Node1 -->
<g id="node1" class="node">
<title>Node1</title>
<g id="a_node1"><a xlink:title=" ">
<polygon fill="#bfbfbf" stroke="black" points="413.5,-336.5 413.5,-366.5 556.5,-366.5 556.5,-336.5 413.5,-336.5"/>
<text text-anchor="start" x="421.5" y="-354.5" font-family="Helvetica,sans-Serif" font-size="10.00">VortexEngine/src/Wireless</text>
<text text-anchor="middle" x="485" y="-343.5" font-family="Helvetica,sans-Serif" font-size="10.00">/VLSender.cpp</text>
</a>
</g>
</g>
<!-- Node2 -->
<g id="node2" class="node">
<title>Node2</title>
<g id="a_node2"><a xlink:href="VLSender_8h.html" target="_top" xlink:title=" ">
<polygon fill="none" stroke="black" points="404.5,-280.5 404.5,-299.5 475.5,-299.5 475.5,-280.5 404.5,-280.5"/>
<text text-anchor="middle" x="440" y="-287.5" font-family="Helvetica,sans-Serif" font-size="10.00">VLSender.h</text>
</a>
</g>
</g>
<!-- Node1&#45;&gt;Node2 -->
<g id="edge1" class="edge">
<title>Node1&#45;&gt;Node2</title>
<path fill="none" stroke="midnightblue" d="M474.34,-336.4C467.86,-327.84 459.57,-316.87 452.75,-307.86"/>
<polygon fill="midnightblue" stroke="midnightblue" points="455.37,-305.52 446.55,-299.66 449.79,-309.74 455.37,-305.52"/>
</g>
<!-- Node5 -->
<g id="node5" class="node">
<title>Node5</title>
<g id="a_node5"><a xlink:href="Log_8h.html" target="_top" xlink:title=" ">
<polygon fill="none" stroke="black" points="0,-168.5 0,-187.5 72,-187.5 72,-168.5 0,-168.5"/>
<text text-anchor="middle" x="36" y="-175.5" font-family="Helvetica,sans-Serif" font-size="10.00">../Log/Log.h</text>
</a>
</g>
</g>
<!-- Node1&#45;&gt;Node5 -->
<g id="edge35" class="edge">
<title>Node1&#45;&gt;Node5</title>
<path fill="none" stroke="midnightblue" d="M423.81,-336.47C387.39,-327.46 340.53,-314.71 300,-300 209.74,-267.24 107.66,-216.26 61.31,-192.29"/>
<polygon fill="midnightblue" stroke="midnightblue" points="62.77,-189.11 52.29,-187.61 59.55,-195.32 62.77,-189.11"/>
</g>
<!-- Node12 -->
<g id="node12" class="node">
<title>Node12</title>
<g id="a_node12"><a xlink:href="IRConfig_8h.html" target="_top" xlink:title=" ">
<polygon fill="none" stroke="black" points="715,-280.5 715,-299.5 781,-299.5 781,-280.5 715,-280.5"/>
<text text-anchor="middle" x="748" y="-287.5" font-family="Helvetica,sans-Serif" font-size="10.00">IRConfig.h</text>
</a>
</g>
</g>
<!-- Node1&#45;&gt;Node12 -->
<g id="edge15" class="edge">
<title>Node1&#45;&gt;Node12</title>
<path fill="none" stroke="midnightblue" d="M546.99,-336.47C595.64,-325.47 662.09,-310.44 705.03,-300.72"/>
<polygon fill="midnightblue" stroke="midnightblue" points="705.9,-304.11 714.88,-298.49 704.36,-297.29 705.9,-304.11"/>
</g>
<!-- Node13 -->
<g id="node13" class="node">
<title>Node13</title>
<g id="a_node13"><a xlink:href="TimeControl_8h.html" target="_top" xlink:title=" ">
<polygon fill="none" stroke="black" points="401,-168.5 401,-187.5 523,-187.5 523,-168.5 401,-168.5"/>
<text text-anchor="middle" x="462" y="-175.5" font-family="Helvetica,sans-Serif" font-size="10.00">../Time/TimeControl.h</text>
</a>
</g>
</g>
<!-- Node1&#45;&gt;Node13 -->
<g id="edge16" class="edge">
<title>Node1&#45;&gt;Node13</title>
<path fill="none" stroke="midnightblue" d="M490.06,-336.39C497.81,-312.53 510.39,-263.02 497,-224 493.28,-213.16 485.77,-202.92 478.65,-194.96"/>
<polygon fill="midnightblue" stroke="midnightblue" points="481,-192.35 471.56,-187.55 475.95,-197.19 481,-192.35"/>
</g>
<!-- Node15 -->
<g id="node15" class="node">
<title>Node15</title>
<g id="a_node15"><a xlink:href="Mode_8h.html" target="_top" xlink:title=" ">
<polygon fill="none" stroke="black" points="230.5,-168.5 230.5,-187.5 327.5,-187.5 327.5,-168.5 230.5,-168.5"/>
<text text-anchor="middle" x="279" y="-175.5" font-family="Helvetica,sans-Serif" font-size="10.00">../Modes/Mode.h</text>
</a>
</g>
</g>
<!-- Node1&#45;&gt;Node15 -->
<g id="edge23" class="edge">
<title>Node1&#45;&gt;Node15</title>
<path fill="none" stroke="midnightblue" d="M415.71,-336.45C365.7,-322.29 301.63,-294.97 270,-244 261.29,-229.96 265.34,-210.97 270.48,-197.14"/>
<polygon fill="midnightblue" stroke="midnightblue" points="273.78,-198.31 274.44,-187.74 267.33,-195.6 273.78,-198.31"/>
</g>
<!-- Node17 -->
<g id="node17" class="node">
<title>Node17</title>
<g id="a_node17"><a xlink:href="Leds_8h.html" target="_top" xlink:title=" ">
<polygon fill="none" stroke="black" points="700.5,-168.5 700.5,-187.5 783.5,-187.5 783.5,-168.5 700.5,-168.5"/>
<text text-anchor="middle" x="742" y="-175.5" font-family="Helvetica,sans-Serif" font-size="10.00">../Leds/Leds.h</text>
</a>
</g>
</g>
<!-- Node1&#45;&gt;Node17 -->
<g id="edge28" class="edge">
<title>Node1&#45;&gt;Node17</title>
<path fill="none" stroke="midnightblue" d="M513,-336.38C549.82,-317.34 615.94,-281.47 668,-244 689.11,-228.8 711.27,-208.71 725.77,-194.91"/>
<polygon fill="midnightblue" stroke="midnightblue" points="728.59,-197.06 733.36,-187.6 723.73,-192.02 728.59,-197.06"/>
</g>
<!-- Node3 -->
<g id="node3" class="node">
<title>Node3</title>
<g id="a_node3"><a xlink:href="ByteStream_8h.html" target="_top" xlink:title=" ">
<polygon fill="none" stroke="black" points="365.5,-224.5 365.5,-243.5 488.5,-243.5 488.5,-224.5 365.5,-224.5"/>
<text text-anchor="middle" x="427" y="-231.5" font-family="Helvetica,sans-Serif" font-size="10.00">../Serial/ByteStream.h</text>
</a>
</g>
</g>
<!-- Node2&#45;&gt;Node3 -->
<g id="edge2" class="edge">
<title>Node2&#45;&gt;Node3</title>
<path fill="none" stroke="midnightblue" d="M437.85,-280.08C436.13,-272.93 433.65,-262.64 431.5,-253.69"/>
<polygon fill="midnightblue" stroke="midnightblue" points="434.85,-252.65 429.11,-243.75 428.04,-254.29 434.85,-252.65"/>
</g>
<!-- Node10 -->
<g id="node10" class="node">
<title>Node10</title>
<g id="a_node10"><a xlink:href="BitStream_8h.html" target="_top" xlink:title=" ">
<polygon fill="none" stroke="black" points="545,-224.5 545,-243.5 659,-243.5 659,-224.5 545,-224.5"/>
<text text-anchor="middle" x="602" y="-231.5" font-family="Helvetica,sans-Serif" font-size="10.00">../Serial/BitStream.h</text>
</a>
</g>
</g>
<!-- Node2&#45;&gt;Node10 -->
<g id="edge11" class="edge">
<title>Node2&#45;&gt;Node10</title>
<path fill="none" stroke="midnightblue" d="M465.67,-280.44C492.92,-271.36 536.18,-256.94 566.65,-246.78"/>
<polygon fill="midnightblue" stroke="midnightblue" points="568.07,-250 576.45,-243.52 565.86,-243.36 568.07,-250"/>
</g>
<!-- Node11 -->
<g id="node11" class="node">
<title>Node11</title>
<g id="a_node11"><a xlink:href="VLConfig_8h.html" target="_top" xlink:title=" ">
<polygon fill="none" stroke="black" points="279,-224.5 279,-243.5 347,-243.5 347,-224.5 279,-224.5"/>
<text text-anchor="middle" x="313" y="-231.5" font-family="Helvetica,sans-Serif" font-size="10.00">VLConfig.h</text>
</a>
</g>
</g>
<!-- Node2&#45;&gt;Node11 -->
<g id="edge13" class="edge">
<title>Node2&#45;&gt;Node11</title>
<path fill="none" stroke="midnightblue" d="M419.88,-280.44C398.98,-271.56 366.07,-257.56 342.28,-247.45"/>
<polygon fill="midnightblue" stroke="midnightblue" points="343.6,-244.21 333.03,-243.52 340.86,-250.65 343.6,-244.21"/>
</g>
<!-- Node4 -->
<g id="node4" class="node">
<title>Node4</title>
<g id="a_node4"><a xlink:title=" ">
<polygon fill="none" stroke="#bfbfbf" points="575.5,-56.5 575.5,-75.5 640.5,-75.5 640.5,-56.5 575.5,-56.5"/>
<text text-anchor="middle" x="608" y="-63.5" font-family="Helvetica,sans-Serif" font-size="10.00">inttypes.h</text>
</a>
</g>
</g>
<!-- Node3&#45;&gt;Node4 -->
<g id="edge3" class="edge">
<title>Node3&#45;&gt;Node4</title>
<path fill="none" stroke="midnightblue" d="M456.84,-224.4C495.69,-211.44 562.17,-182.84 592,-132 600.36,-117.75 604.37,-99.28 606.28,-85.67"/>
<polygon fill="midnightblue" stroke="midnightblue" points="609.78,-85.92 607.45,-75.58 602.82,-85.11 609.78,-85.92"/>
</g>
<!-- Node3&#45;&gt;Node5 -->
<g id="edge4" class="edge">
<title>Node3&#45;&gt;Node5</title>
<path fill="none" stroke="midnightblue" d="M365.48,-224.5C286.87,-213.65 152.57,-195.1 82.17,-185.38"/>
<polygon fill="midnightblue" stroke="midnightblue" points="82.64,-181.91 72.26,-184.01 81.68,-188.84 82.64,-181.91"/>
</g>
<!-- Node6 -->
<g id="node6" class="node">
<title>Node6</title>
<g id="a_node6"><a xlink:title=" ">
<polygon fill="none" stroke="#bfbfbf" points="54,-56.5 54,-75.5 110,-75.5 110,-56.5 54,-56.5"/>
<text text-anchor="middle" x="82" y="-63.5" font-family="Helvetica,sans-Serif" font-size="10.00">stdarg.h</text>
</a>
</g>
</g>
<!-- Node5&#45;&gt;Node6 -->
<g id="edge5" class="edge">
<title>Node5&#45;&gt;Node6</title>
<path fill="none" stroke="midnightblue" d="M33.68,-168.16C30.76,-155.23 27.02,-130.68 35,-112 40.15,-99.95 50.28,-89.58 59.83,-81.84"/>
<polygon fill="midnightblue" stroke="midnightblue" points="62.04,-84.55 67.92,-75.74 57.83,-78.96 62.04,-84.55"/>
</g>
<!-- Node7 -->
<g id="node7" class="node">
<title>Node7</title>
<g id="a_node7"><a xlink:href="VortexConfig_8h.html" target="_top" xlink:title=" ">
<polygon fill="none" stroke="black" points="156.5,-56.5 156.5,-75.5 253.5,-75.5 253.5,-56.5 156.5,-56.5"/>
<text text-anchor="middle" x="205" y="-63.5" font-family="Helvetica,sans-Serif" font-size="10.00">../VortexConfig.h</text>
</a>
</g>
</g>
<!-- Node5&#45;&gt;Node7 -->
<g id="edge6" class="edge">
<title>Node5&#45;&gt;Node7</title>
<path fill="none" stroke="midnightblue" d="M38.76,-168.08C43.53,-154.14 54.59,-127.23 73,-112 93.83,-94.78 121.59,-84.02 146.27,-77.36"/>
<polygon fill="midnightblue" stroke="midnightblue" points="147.44,-80.68 156.28,-74.84 145.73,-73.89 147.44,-80.68"/>
</g>
<!-- Node9 -->
<g id="node9" class="node">
<title>Node9</title>
<g id="a_node9"><a xlink:href="ErrorBlinker_8h.html" target="_top" xlink:title=" ">
<polygon fill="none" stroke="black" points="191.5,-112.5 191.5,-131.5 302.5,-131.5 302.5,-112.5 191.5,-112.5"/>
<text text-anchor="middle" x="247" y="-119.5" font-family="Helvetica,sans-Serif" font-size="10.00">../Log/ErrorBlinker.h</text>
</a>
</g>
</g>
<!-- Node5&#45;&gt;Node9 -->
<g id="edge8" class="edge">
<title>Node5&#45;&gt;Node9</title>
<path fill="none" stroke="midnightblue" d="M69.43,-168.44C105.86,-159.12 164.23,-144.18 204.03,-134"/>
<polygon fill="midnightblue" stroke="midnightblue" points="204.9,-137.39 213.72,-131.52 203.17,-130.61 204.9,-137.39"/>
</g>
<!-- Node8 -->
<g id="node8" class="node">
<title>Node8</title>
<g id="a_node8"><a xlink:href="ColorConstants_8h.html" target="_top" xlink:title=" ">
<polygon fill="none" stroke="black" points="407,-0.5 407,-19.5 541,-19.5 541,-0.5 407,-0.5"/>
<text text-anchor="middle" x="474" y="-7.5" font-family="Helvetica,sans-Serif" font-size="10.00">Colors/ColorConstants.h</text>
</a>
</g>
</g>
<!-- Node7&#45;&gt;Node8 -->
<g id="edge7" class="edge">
<title>Node7&#45;&gt;Node8</title>
<path fill="none" stroke="midnightblue" d="M247.62,-56.44C294.75,-46.98 370.69,-31.74 421.46,-21.55"/>
<polygon fill="midnightblue" stroke="midnightblue" points="422.46,-24.92 431.58,-19.52 421.08,-18.05 422.46,-24.92"/>
</g>
<!-- Node9&#45;&gt;Node4 -->
<g id="edge9" class="edge">
<title>Node9&#45;&gt;Node4</title>
<path fill="none" stroke="midnightblue" d="M302.62,-112.68C375.08,-101.84 500.22,-83.12 565.54,-73.35"/>
<polygon fill="midnightblue" stroke="midnightblue" points="566.12,-76.8 575.49,-71.86 565.08,-69.88 566.12,-76.8"/>
</g>
<!-- Node9&#45;&gt;Node7 -->
<g id="edge10" class="edge">
<title>Node9&#45;&gt;Node7</title>
<path fill="none" stroke="midnightblue" d="M240.06,-112.08C234.07,-104.38 225.25,-93.03 217.95,-83.65"/>
<polygon fill="midnightblue" stroke="midnightblue" points="220.71,-81.5 211.81,-75.75 215.18,-85.79 220.71,-81.5"/>
</g>
<!-- Node10&#45;&gt;Node4 -->
<g id="edge12" class="edge">
<title>Node10&#45;&gt;Node4</title>
<path fill="none" stroke="midnightblue" d="M612.99,-224.37C622.45,-216.17 635.44,-202.92 641,-188 652.81,-156.35 651.51,-144.1 641,-112 637.51,-101.34 630.43,-91.12 623.71,-83.12"/>
<polygon fill="midnightblue" stroke="midnightblue" points="626.3,-80.76 617.02,-75.66 621.1,-85.44 626.3,-80.76"/>
</g>
<!-- Node11&#45;&gt;Node7 -->
<g id="edge14" class="edge">
<title>Node11&#45;&gt;Node7</title>
<path fill="none" stroke="midnightblue" d="M278.65,-224.53C237.06,-212.17 169.23,-184.68 142,-132 131.14,-110.99 154.82,-92.22 176.19,-80.31"/>
<polygon fill="midnightblue" stroke="midnightblue" points="177.86,-83.39 185.09,-75.65 174.61,-77.19 177.86,-83.39"/>
</g>
<!-- Node13&#45;&gt;Node4 -->
<g id="edge17" class="edge">
<title>Node13&#45;&gt;Node4</title>
<path fill="none" stroke="midnightblue" d="M496.84,-168.44C519.39,-161.53 548.29,-149.95 569,-132 583.72,-119.24 594.46,-99.49 600.9,-85.11"/>
<polygon fill="midnightblue" stroke="midnightblue" points="604.18,-86.34 604.82,-75.77 597.72,-83.63 604.18,-86.34"/>
</g>
<!-- Node13&#45;&gt;Node7 -->
<g id="edge18" class="edge">
<title>Node13&#45;&gt;Node7</title>
<path fill="none" stroke="midnightblue" d="M400.84,-171.36C322.76,-163.53 196.03,-148.47 182,-132 170.17,-118.12 180.57,-97.73 190.93,-83.5"/>
<polygon fill="midnightblue" stroke="midnightblue" points="193.75,-85.58 197.18,-75.55 188.25,-81.26 193.75,-85.58"/>
</g>
<!-- Node14 -->
<g id="node14" class="node">
<title>Node14</title>
<g id="a_node14"><a xlink:href="LedTypes_8h.html" target="_top" xlink:title=" ">
<polygon fill="none" stroke="black" points="320.5,-112.5 320.5,-131.5 425.5,-131.5 425.5,-112.5 320.5,-112.5"/>
<text text-anchor="middle" x="373" y="-119.5" font-family="Helvetica,sans-Serif" font-size="10.00">../Leds/LedTypes.h</text>
</a>
</g>
</g>
<!-- Node13&#45;&gt;Node14 -->
<g id="edge19" class="edge">
<title>Node13&#45;&gt;Node14</title>
<path fill="none" stroke="midnightblue" d="M447.7,-168.32C433.82,-159.9 412.51,-146.97 396.2,-137.07"/>
<polygon fill="midnightblue" stroke="midnightblue" points="397.63,-133.85 387.26,-131.65 394,-139.83 397.63,-133.85"/>
</g>
<!-- Node14&#45;&gt;Node4 -->
<g id="edge20" class="edge">
<title>Node14&#45;&gt;Node4</title>
<path fill="none" stroke="midnightblue" d="M410.24,-112.44C452.5,-102.73 521.3,-86.92 565.6,-76.74"/>
<polygon fill="midnightblue" stroke="midnightblue" points="566.52,-80.12 575.48,-74.47 564.95,-73.3 566.52,-80.12"/>
</g>
<!-- Node14&#45;&gt;Node6 -->
<g id="edge21" class="edge">
<title>Node14&#45;&gt;Node6</title>
<path fill="none" stroke="midnightblue" d="M326.89,-112.44C269.8,-101.85 173.59,-84 120.35,-74.12"/>
<polygon fill="midnightblue" stroke="midnightblue" points="120.77,-70.63 110.3,-72.25 119.49,-77.52 120.77,-70.63"/>
</g>
<!-- Node14&#45;&gt;Node7 -->
<g id="edge22" class="edge">
<title>Node14&#45;&gt;Node7</title>
<path fill="none" stroke="midnightblue" d="M346.38,-112.44C317.99,-103.32 272.86,-88.81 241.25,-78.65"/>
<polygon fill="midnightblue" stroke="midnightblue" points="242.09,-75.24 231.5,-75.52 239.94,-81.91 242.09,-75.24"/>
</g>
<!-- Node15&#45;&gt;Node7 -->
<g id="edge27" class="edge">
<title>Node15&#45;&gt;Node7</title>
<path fill="none" stroke="midnightblue" d="M230.24,-173.68C201.54,-168.93 167.36,-157.78 149,-132 135.68,-113.29 158.72,-93.54 179.15,-80.79"/>
<polygon fill="midnightblue" stroke="midnightblue" points="181.09,-83.71 187.92,-75.61 177.53,-77.68 181.09,-83.71"/>
</g>
<!-- Node15&#45;&gt;Node14 -->
<g id="edge24" class="edge">
<title>Node15&#45;&gt;Node14</title>
<path fill="none" stroke="midnightblue" d="M294.1,-168.32C308.9,-159.82 331.69,-146.73 348.98,-136.8"/>
<polygon fill="midnightblue" stroke="midnightblue" points="351.01,-139.67 357.93,-131.65 347.52,-133.6 351.01,-139.67"/>
</g>
<!-- Node16 -->
<g id="node16" class="node">
<title>Node16</title>
<g id="a_node16"><a xlink:href="Patterns_8h.html" target="_top" xlink:title=" ">
<polygon fill="none" stroke="black" points="443.5,-112.5 443.5,-131.5 560.5,-131.5 560.5,-112.5 443.5,-112.5"/>
<text text-anchor="middle" x="502" y="-119.5" font-family="Helvetica,sans-Serif" font-size="10.00">../Patterns/Patterns.h</text>
</a>
</g>
</g>
<!-- Node15&#45;&gt;Node16 -->
<g id="edge25" class="edge">
<title>Node15&#45;&gt;Node16</title>
<path fill="none" stroke="midnightblue" d="M314.34,-168.44C352.91,-159.1 414.78,-144.12 456.85,-133.93"/>
<polygon fill="midnightblue" stroke="midnightblue" points="457.93,-137.27 466.83,-131.52 456.29,-130.47 457.93,-137.27"/>
</g>
<!-- Node16&#45;&gt;Node4 -->
<g id="edge26" class="edge">
<title>Node16&#45;&gt;Node4</title>
<path fill="none" stroke="midnightblue" d="M519.03,-112.32C536.03,-103.66 562.38,-90.24 581.99,-80.25"/>
<polygon fill="midnightblue" stroke="midnightblue" points="583.69,-83.31 591.01,-75.65 580.51,-77.08 583.69,-83.31"/>
</g>
<!-- Node17&#45;&gt;Node4 -->
<g id="edge29" class="edge">
<title>Node17&#45;&gt;Node4</title>
<path fill="none" stroke="midnightblue" d="M769.06,-168.43C799.92,-157.25 843.71,-136.24 824,-112 802.61,-85.7 707.56,-74.26 650.92,-69.7"/>
<polygon fill="midnightblue" stroke="midnightblue" points="651.05,-66.2 640.82,-68.93 650.52,-73.18 651.05,-66.2"/>
</g>
<!-- Node17&#45;&gt;Node14 -->
<g id="edge34" class="edge">
<title>Node17&#45;&gt;Node14</title>
<path fill="none" stroke="midnightblue" d="M700.15,-170.9C642.81,-162.55 536.32,-147.02 435.61,-132.24"/>
<polygon fill="midnightblue" stroke="midnightblue" points="435.97,-128.75 425.57,-130.76 434.96,-135.68 435.97,-128.75"/>
</g>
<!-- Node18 -->
<g id="node18" class="node">
<title>Node18</title>
<g id="a_node18"><a xlink:href="ColorTypes_8h.html" target="_top" xlink:title=" ">
<polygon fill="none" stroke="black" points="693,-112.5 693,-131.5 815,-131.5 815,-112.5 693,-112.5"/>
<text text-anchor="middle" x="754" y="-119.5" font-family="Helvetica,sans-Serif" font-size="10.00">../Colors/ColorTypes.h</text>
</a>
</g>
</g>
<!-- Node17&#45;&gt;Node18 -->
<g id="edge30" class="edge">
<title>Node17&#45;&gt;Node18</title>
<path fill="none" stroke="midnightblue" d="M743.98,-168.08C745.57,-160.93 747.86,-150.64 749.85,-141.69"/>
<polygon fill="midnightblue" stroke="midnightblue" points="753.3,-142.27 752.06,-131.75 746.47,-140.75 753.3,-142.27"/>
</g>
<!-- Node18&#45;&gt;Node4 -->
<g id="edge31" class="edge">
<title>Node18&#45;&gt;Node4</title>
<path fill="none" stroke="midnightblue" d="M730.87,-112.44C706.52,-103.44 667.99,-89.19 640.58,-79.05"/>
<polygon fill="midnightblue" stroke="midnightblue" points="641.62,-75.7 631.03,-75.52 639.19,-82.27 641.62,-75.7"/>
</g>
<!-- Node18&#45;&gt;Node7 -->
<g id="edge32" class="edge">
<title>Node18&#45;&gt;Node7</title>
<path fill="none" stroke="midnightblue" d="M692.89,-114.99C586.45,-104.52 368.44,-83.08 263.71,-72.77"/>
<polygon fill="midnightblue" stroke="midnightblue" points="263.93,-69.28 253.63,-71.78 263.24,-76.25 263.93,-69.28"/>
</g>
<!-- Node18&#45;&gt;Node8 -->
<g id="edge33" class="edge">
<title>Node18&#45;&gt;Node8</title>
<path fill="none" stroke="midnightblue" d="M742.79,-112.35C724.4,-98.54 686.21,-71.5 650,-56 612.92,-40.13 568.97,-28.89 534.27,-21.61"/>
<polygon fill="midnightblue" stroke="midnightblue" points="534.77,-18.14 524.27,-19.57 533.37,-25 534.77,-18.14"/>
</g>
</g>
</svg>
