<?xml version="1.0" encoding="UTF-8" standalone="no"?>
<!DOCTYPE svg PUBLIC "-//W3C//DTD SVG 1.1//EN"
 "http://www.w3.org/Graphics/SVG/1.1/DTD/svg11.dtd">
<!-- Generated by graphviz version 2.43.0 (0)
 -->
<!-- Title: VortexEngine/src/VortexEngine.cpp Pages: 1 -->
<!--zoomable 364 -->
<svg id="main" version="1.1" xmlns="http://www.w3.org/2000/svg" xmlns:xlink="http://www.w3.org/1999/xlink" xml:space="preserve" onload="init(evt)">
<style type="text/css"><![CDATA[
.edge:hover path { stroke: red; }
.edge:hover polygon { stroke: red; fill: red; }
]]></style>
<script type="text/javascript"><![CDATA[
var edges = document.getElementsByTagName('g');
if (edges && edges.length) {
  for (var i=0;i<edges.length;i++) {
    if (edges[i].id.substr(0,4)=='edge') {
      edges[i].setAttribute('class','edge');
    }
  }
}
]]></script>
        <defs>
                <circle id="rim" cx="0" cy="0" r="7"/>
                <circle id="rim2" cx="0" cy="0" r="3.5"/>
                <g id="zoomPlus">
                        <use xlink:href="#rim" fill="#404040">
                                <set attributeName="fill" to="#808080" begin="zoomplus.mouseover" end="zoomplus.mouseout"/>
                        </use>
                        <path d="M-4,0h8M0,-4v8" fill="none" stroke="white" stroke-width="1.5" pointer-events="none"/>
                </g>
                <g id="zoomMin">
                        <use xlink:href="#rim" fill="#404040">
                                <set attributeName="fill" to="#808080" begin="zoomminus.mouseover" end="zoomminus.mouseout"/>
                        </use>
                        <path d="M-4,0h8" fill="none" stroke="white" stroke-width="1.5" pointer-events="none"/>
                </g>
                <g id="dirArrow">
                        <path fill="none" stroke="white" stroke-width="1.5" d="M0,-3.0v7 M-2.5,-0.5L0,-3.0L2.5,-0.5"/>
                </g>
               <g id="resetDef">
                       <use xlink:href="#rim2" fill="#404040">
                               <set attributeName="fill" to="#808080" begin="reset.mouseover" end="reset.mouseout"/>
                       </use>
               </g>
        </defs>

<script type="text/javascript">
var viewWidth = 1575;
var viewHeight = 364;
var sectionId = 'dynsection-0';
</script>
<script xlink:href="svgpan.js"/>
<svg id="graph" class="graph">
<g id="viewport">
<title>VortexEngine/src/VortexEngine.cpp</title>
<!-- Node1 -->
<g id="node1" class="node">
<title>Node1</title>
<g id="a_node1"><a xlink:title=" ">
<polygon fill="#bfbfbf" stroke="black" points="722,-336.5 722,-355.5 908,-355.5 908,-336.5 722,-336.5"/>
<text text-anchor="middle" x="815" y="-343.5" font-family="Helvetica,sans-Serif" font-size="10.00">VortexEngine/src/VortexEngine.cpp</text>
</a>
</g>
</g>
<!-- Node2 -->
<g id="node2" class="node">
<title>Node2</title>
<g id="a_node2"><a xlink:href="VortexEngine_8h.html" target="_top" xlink:title=" ">
<polygon fill="none" stroke="black" points="1243,-112.5 1243,-131.5 1333,-131.5 1333,-112.5 1243,-112.5"/>
<text text-anchor="middle" x="1288" y="-119.5" font-family="Helvetica,sans-Serif" font-size="10.00">VortexEngine.h</text>
</a>
</g>
</g>
<!-- Node1&#45;&gt;Node2 -->
<g id="edge1" class="edge">
<title>Node1&#45;&gt;Node2</title>
<path fill="none" stroke="midnightblue" d="M887.9,-336.5C929.54,-329.93 982.05,-318.69 1026,-300 1127.18,-256.97 1230.42,-172.92 1270.56,-138.38"/>
<polygon fill="midnightblue" stroke="midnightblue" points="1273.09,-140.81 1278.35,-131.61 1268.5,-135.53 1273.09,-140.81"/>
</g>
<!-- Node6 -->
<g id="node6" class="node">
<title>Node6</title>
<g id="a_node6"><a xlink:href="IRReceiver_8h.html" target="_top" xlink:title=" ">
<polygon fill="none" stroke="black" points="236,-280.5 236,-299.5 358,-299.5 358,-280.5 236,-280.5"/>
<text text-anchor="middle" x="297" y="-287.5" font-family="Helvetica,sans-Serif" font-size="10.00">Wireless/IRReceiver.h</text>
</a>
</g>
</g>
<!-- Node1&#45;&gt;Node6 -->
<g id="edge5" class="edge">
<title>Node1&#45;&gt;Node6</title>
<path fill="none" stroke="midnightblue" d="M723.32,-336.47C635.21,-328.11 498.01,-314.67 368.3,-300.01"/>
<polygon fill="midnightblue" stroke="midnightblue" points="368.51,-296.51 358.18,-298.86 367.72,-303.46 368.51,-296.51"/>
</g>
<!-- Node8 -->
<g id="node8" class="node">
<title>Node8</title>
<g id="a_node8"><a xlink:href="IRConfig_8h.html" target="_top" xlink:title=" ">
<polygon fill="none" stroke="black" points="250,-224.5 250,-243.5 316,-243.5 316,-224.5 250,-224.5"/>
<text text-anchor="middle" x="283" y="-231.5" font-family="Helvetica,sans-Serif" font-size="10.00">IRConfig.h</text>
</a>
</g>
</g>
<!-- Node1&#45;&gt;Node8 -->
<g id="edge30" class="edge">
<title>Node1&#45;&gt;Node8</title>
<path fill="none" stroke="midnightblue" d="M721.7,-344.66C564.3,-343.09 259.85,-335.46 227,-300 211.06,-282.79 235.93,-262.15 257.43,-248.82"/>
<polygon fill="midnightblue" stroke="midnightblue" points="259.47,-251.68 266.31,-243.58 255.91,-245.65 259.47,-251.68"/>
</g>
<!-- Node9 -->
<g id="node9" class="node">
<title>Node9</title>
<g id="a_node9"><a xlink:href="IRSender_8h.html" target="_top" xlink:title=" ">
<polygon fill="none" stroke="black" points="376.5,-280.5 376.5,-299.5 489.5,-299.5 489.5,-280.5 376.5,-280.5"/>
<text text-anchor="middle" x="433" y="-287.5" font-family="Helvetica,sans-Serif" font-size="10.00">Wireless/IRSender.h</text>
</a>
</g>
</g>
<!-- Node1&#45;&gt;Node9 -->
<g id="edge10" class="edge">
<title>Node1&#45;&gt;Node9</title>
<path fill="none" stroke="midnightblue" d="M754.47,-336.44C685.09,-326.64 571.72,-310.61 499.81,-300.44"/>
<polygon fill="midnightblue" stroke="midnightblue" points="499.9,-296.92 489.51,-298.99 498.92,-303.85 499.9,-296.92"/>
</g>
<!-- Node11 -->
<g id="node11" class="node">
<title>Node11</title>
<g id="a_node11"><a xlink:href="Log_8h.html" target="_top" xlink:title=" ">
<polygon fill="none" stroke="black" points="663,-168.5 663,-187.5 735,-187.5 735,-168.5 663,-168.5"/>
<text text-anchor="middle" x="699" y="-175.5" font-family="Helvetica,sans-Serif" font-size="10.00">../Log/Log.h</text>
</a>
</g>
</g>
<!-- Node1&#45;&gt;Node11 -->
<g id="edge75" class="edge">
<title>Node1&#45;&gt;Node11</title>
<path fill="none" stroke="midnightblue" d="M814.42,-336.31C812.55,-314.82 805.02,-258.43 776,-224 764.1,-209.88 746.58,-199.15 731.25,-191.72"/>
<polygon fill="midnightblue" stroke="midnightblue" points="732.62,-188.49 722.07,-187.51 729.7,-194.86 732.62,-188.49"/>
</g>
<!-- Node14 -->
<g id="node14" class="node">
<title>Node14</title>
<g id="a_node14"><a xlink:href="VLReceiver_8h.html" target="_top" xlink:title=" ">
<polygon fill="none" stroke="black" points="642.5,-280.5 642.5,-299.5 767.5,-299.5 767.5,-280.5 642.5,-280.5"/>
<text text-anchor="middle" x="705" y="-287.5" font-family="Helvetica,sans-Serif" font-size="10.00">Wireless/VLReceiver.h</text>
</a>
</g>
</g>
<!-- Node1&#45;&gt;Node14 -->
<g id="edge21" class="edge">
<title>Node1&#45;&gt;Node14</title>
<path fill="none" stroke="midnightblue" d="M797.33,-336.32C779.61,-327.62 752.1,-314.12 731.71,-304.11"/>
<polygon fill="midnightblue" stroke="midnightblue" points="733.15,-300.92 722.63,-299.65 730.06,-307.2 733.15,-300.92"/>
</g>
<!-- Node15 -->
<g id="node15" class="node">
<title>Node15</title>
<g id="a_node15"><a xlink:href="VLConfig_8h.html" target="_top" xlink:title=" ">
<polygon fill="none" stroke="black" points="699,-224.5 699,-243.5 767,-243.5 767,-224.5 699,-224.5"/>
<text text-anchor="middle" x="733" y="-231.5" font-family="Helvetica,sans-Serif" font-size="10.00">VLConfig.h</text>
</a>
</g>
</g>
<!-- Node1&#45;&gt;Node15 -->
<g id="edge31" class="edge">
<title>Node1&#45;&gt;Node15</title>
<path fill="none" stroke="midnightblue" d="M810.71,-336.16C804.26,-323.24 791.27,-298.71 777,-280 768.98,-269.49 758.72,-258.87 750.12,-250.58"/>
<polygon fill="midnightblue" stroke="midnightblue" points="752.49,-248 742.8,-243.7 747.69,-253.1 752.49,-248"/>
</g>
<!-- Node16 -->
<g id="node16" class="node">
<title>Node16</title>
<g id="a_node16"><a xlink:href="VLSender_8h.html" target="_top" xlink:title=" ">
<polygon fill="none" stroke="black" points="508,-280.5 508,-299.5 624,-299.5 624,-280.5 508,-280.5"/>
<text text-anchor="middle" x="566" y="-287.5" font-family="Helvetica,sans-Serif" font-size="10.00">Wireless/VLSender.h</text>
</a>
</g>
</g>
<!-- Node1&#45;&gt;Node16 -->
<g id="edge26" class="edge">
<title>Node1&#45;&gt;Node16</title>
<path fill="none" stroke="midnightblue" d="M775.55,-336.44C732.11,-327.02 662.21,-311.87 615.22,-301.68"/>
<polygon fill="midnightblue" stroke="midnightblue" points="615.78,-298.22 605.27,-299.52 614.3,-305.06 615.78,-298.22"/>
</g>
<!-- Node17 -->
<g id="node17" class="node">
<title>Node17</title>
<g id="a_node17"><a xlink:href="Storage_8h.html" target="_top" xlink:title=" ">
<polygon fill="none" stroke="black" points="791,-168.5 791,-187.5 895,-187.5 895,-168.5 791,-168.5"/>
<text text-anchor="middle" x="843" y="-175.5" font-family="Helvetica,sans-Serif" font-size="10.00">Storage/Storage.h</text>
</a>
</g>
</g>
<!-- Node1&#45;&gt;Node17 -->
<g id="edge32" class="edge">
<title>Node1&#45;&gt;Node17</title>
<path fill="none" stroke="midnightblue" d="M824.02,-336.34C832.07,-327.93 843.3,-314.36 848,-300 859.35,-265.33 853.02,-222.07 847.76,-197.79"/>
<polygon fill="midnightblue" stroke="midnightblue" points="851.1,-196.73 845.41,-187.79 844.29,-198.33 851.1,-196.73"/>
</g>
<!-- Node18 -->
<g id="node18" class="node">
<title>Node18</title>
<g id="a_node18"><a xlink:href="Buttons_8h.html" target="_top" xlink:title=" ">
<polygon fill="none" stroke="black" points="0,-280.5 0,-299.5 104,-299.5 104,-280.5 0,-280.5"/>
<text text-anchor="middle" x="52" y="-287.5" font-family="Helvetica,sans-Serif" font-size="10.00">Buttons/Buttons.h</text>
</a>
</g>
</g>
<!-- Node1&#45;&gt;Node18 -->
<g id="edge34" class="edge">
<title>Node1&#45;&gt;Node18</title>
<path fill="none" stroke="midnightblue" d="M721.82,-341.09C587.98,-335 333.67,-321.64 118,-300 116.74,-299.87 115.46,-299.74 114.18,-299.6"/>
<polygon fill="midnightblue" stroke="midnightblue" points="114.53,-296.12 104.2,-298.47 113.74,-303.08 114.53,-296.12"/>
</g>
<!-- Node20 -->
<g id="node20" class="node">
<title>Node20</title>
<g id="a_node20"><a xlink:href="TimeControl_8h.html" target="_top" xlink:title=" ">
<polygon fill="none" stroke="black" points="1439.5,-168.5 1439.5,-187.5 1552.5,-187.5 1552.5,-168.5 1439.5,-168.5"/>
<text text-anchor="middle" x="1496" y="-175.5" font-family="Helvetica,sans-Serif" font-size="10.00">Time/TimeControl.h</text>
</a>
</g>
</g>
<!-- Node1&#45;&gt;Node20 -->
<g id="edge37" class="edge">
<title>Node1&#45;&gt;Node20</title>
<path fill="none" stroke="midnightblue" d="M908.09,-345.26C998.65,-343.26 1139.29,-334.11 1256,-300 1342.01,-274.86 1434.04,-219.35 1474.65,-193.18"/>
<polygon fill="midnightblue" stroke="midnightblue" points="1476.71,-196.01 1483.18,-187.62 1472.89,-190.15 1476.71,-196.01"/>
</g>
<!-- Node22 -->
<g id="node22" class="node">
<title>Node22</title>
<g id="a_node22"><a xlink:href="Timings_8h.html" target="_top" xlink:title=" ">
<polygon fill="none" stroke="black" points="1450,-224.5 1450,-243.5 1542,-243.5 1542,-224.5 1450,-224.5"/>
<text text-anchor="middle" x="1496" y="-231.5" font-family="Helvetica,sans-Serif" font-size="10.00">Time/Timings.h</text>
</a>
</g>
</g>
<!-- Node1&#45;&gt;Node22 -->
<g id="edge44" class="edge">
<title>Node1&#45;&gt;Node22</title>
<path fill="none" stroke="midnightblue" d="M908.06,-344.86C1053.45,-343.5 1327.15,-336.05 1417,-300 1443.15,-289.51 1467.22,-267.06 1481.75,-251.51"/>
<polygon fill="midnightblue" stroke="midnightblue" points="1484.7,-253.46 1488.8,-243.69 1479.5,-248.78 1484.7,-253.46"/>
</g>
<!-- Node23 -->
<g id="node23" class="node">
<title>Node23</title>
<g id="a_node23"><a xlink:href="Serial_8h.html" target="_top" xlink:title=" ">
<polygon fill="none" stroke="black" points="196,-168.5 196,-187.5 280,-187.5 280,-168.5 196,-168.5"/>
<text text-anchor="middle" x="238" y="-175.5" font-family="Helvetica,sans-Serif" font-size="10.00">Serial/Serial.h</text>
</a>
</g>
</g>
<!-- Node1&#45;&gt;Node23 -->
<g id="edge47" class="edge">
<title>Node1&#45;&gt;Node23</title>
<path fill="none" stroke="midnightblue" d="M721.7,-344.79C562.1,-343.44 250.54,-336.16 217,-300 190.64,-271.59 212.3,-222.52 227.08,-196.45"/>
<polygon fill="midnightblue" stroke="midnightblue" points="230.19,-198.06 232.29,-187.68 224.18,-194.49 230.19,-198.06"/>
</g>
<!-- Node24 -->
<g id="node24" class="node">
<title>Node24</title>
<g id="a_node24"><a xlink:href="Modes_8h.html" target="_top" xlink:title=" ">
<polygon fill="none" stroke="black" points="900.5,-280.5 900.5,-299.5 993.5,-299.5 993.5,-280.5 900.5,-280.5"/>
<text text-anchor="middle" x="947" y="-287.5" font-family="Helvetica,sans-Serif" font-size="10.00">Modes/Modes.h</text>
</a>
</g>
</g>
<!-- Node1&#45;&gt;Node24 -->
<g id="edge49" class="edge">
<title>Node1&#45;&gt;Node24</title>
<path fill="none" stroke="midnightblue" d="M835.92,-336.44C857.74,-327.52 892.15,-313.44 916.89,-303.32"/>
<polygon fill="midnightblue" stroke="midnightblue" points="918.25,-306.54 926.18,-299.52 915.6,-300.06 918.25,-306.54"/>
</g>
<!-- Node27 -->
<g id="node27" class="node">
<title>Node27</title>
<g id="a_node27"><a xlink:href="Leds_8h.html" target="_top" xlink:title=" ">
<polygon fill="none" stroke="black" points="1027.5,-168.5 1027.5,-187.5 1110.5,-187.5 1110.5,-168.5 1027.5,-168.5"/>
<text text-anchor="middle" x="1069" y="-175.5" font-family="Helvetica,sans-Serif" font-size="10.00">../Leds/Leds.h</text>
</a>
</g>
</g>
<!-- Node1&#45;&gt;Node27 -->
<g id="edge74" class="edge">
<title>Node1&#45;&gt;Node27</title>
<path fill="none" stroke="midnightblue" d="M908.32,-337.65C940.73,-331.41 975.74,-320.15 1003,-300 1037.84,-274.24 1056.41,-224.4 1064.3,-197.42"/>
<polygon fill="midnightblue" stroke="midnightblue" points="1067.7,-198.26 1066.97,-187.69 1060.95,-196.41 1067.7,-198.26"/>
</g>
<!-- Node28 -->
<g id="node28" class="node">
<title>Node28</title>
<g id="a_node28"><a xlink:href="MainMenu_8h.html" target="_top" xlink:title=" ">
<polygon fill="none" stroke="black" points="140,-112.5 140,-131.5 252,-131.5 252,-112.5 140,-112.5"/>
<text text-anchor="middle" x="196" y="-119.5" font-family="Helvetica,sans-Serif" font-size="10.00">Menus/MainMenu.h</text>
</a>
</g>
</g>
<!-- Node1&#45;&gt;Node28 -->
<g id="edge63" class="edge">
<title>Node1&#45;&gt;Node28</title>
<path fill="none" stroke="midnightblue" d="M721.77,-344.51C559.53,-342.73 238.95,-334.8 202,-300 158.39,-258.93 177.69,-177.84 189.4,-141.45"/>
<polygon fill="midnightblue" stroke="midnightblue" points="192.81,-142.27 192.71,-131.68 186.18,-140.02 192.81,-142.27"/>
</g>
<!-- Node29 -->
<g id="node29" class="node">
<title>Node29</title>
<g id="a_node29"><a xlink:href="Menus_8h.html" target="_top" xlink:title=" ">
<polygon fill="none" stroke="black" points="1205.5,-224.5 1205.5,-243.5 1298.5,-243.5 1298.5,-224.5 1205.5,-224.5"/>
<text text-anchor="middle" x="1252" y="-231.5" font-family="Helvetica,sans-Serif" font-size="10.00">Menus/Menus.h</text>
</a>
</g>
</g>
<!-- Node1&#45;&gt;Node29 -->
<g id="edge65" class="edge">
<title>Node1&#45;&gt;Node29</title>
<path fill="none" stroke="midnightblue" d="M908.01,-341.12C1002.97,-335.88 1143.04,-324.25 1191,-300 1212.5,-289.13 1230.41,-267.44 1241.15,-252.11"/>
<polygon fill="midnightblue" stroke="midnightblue" points="1244.23,-253.8 1246.87,-243.54 1238.4,-249.91 1244.23,-253.8"/>
</g>
<!-- Node30 -->
<g id="node30" class="node">
<title>Node30</title>
<g id="a_node30"><a xlink:href="Mode_8h.html" target="_top" xlink:title=" ">
<polygon fill="none" stroke="black" points="1281.5,-168.5 1281.5,-187.5 1378.5,-187.5 1378.5,-168.5 1281.5,-168.5"/>
<text text-anchor="middle" x="1330" y="-175.5" font-family="Helvetica,sans-Serif" font-size="10.00">../Modes/Mode.h</text>
</a>
</g>
</g>
<!-- Node1&#45;&gt;Node30 -->
<g id="edge73" class="edge">
<title>Node1&#45;&gt;Node30</title>
<path fill="none" stroke="midnightblue" d="M908.23,-339.29C1008.76,-332.3 1161.8,-319 1217,-300 1261.9,-284.54 1278.41,-281.14 1308,-244 1318.66,-230.62 1324.28,-211.8 1327.17,-197.85"/>
<polygon fill="midnightblue" stroke="midnightblue" points="1330.63,-198.36 1328.93,-187.9 1323.74,-197.14 1330.63,-198.36"/>
</g>
<!-- Node3 -->
<g id="node3" class="node">
<title>Node3</title>
<g id="a_node3"><a xlink:title=" ">
<polygon fill="none" stroke="#bfbfbf" points="548.5,-56.5 548.5,-75.5 613.5,-75.5 613.5,-56.5 548.5,-56.5"/>
<text text-anchor="middle" x="581" y="-63.5" font-family="Helvetica,sans-Serif" font-size="10.00">inttypes.h</text>
</a>
</g>
</g>
<!-- Node2&#45;&gt;Node3 -->
<g id="edge2" class="edge">
<title>Node2&#45;&gt;Node3</title>
<path fill="none" stroke="midnightblue" d="M1242.95,-113.74C1238.25,-113.1 1233.53,-112.5 1229,-112 1001.71,-86.82 727.9,-73.29 623.9,-68.76"/>
<polygon fill="midnightblue" stroke="midnightblue" points="623.93,-65.26 613.79,-68.32 623.63,-72.25 623.93,-65.26"/>
</g>
<!-- Node4 -->
<g id="node4" class="node">
<title>Node4</title>
<g id="a_node4"><a xlink:href="VortexConfig_8h.html" target="_top" xlink:title=" ">
<polygon fill="none" stroke="black" points="1154,-56.5 1154,-75.5 1242,-75.5 1242,-56.5 1154,-56.5"/>
<text text-anchor="middle" x="1198" y="-63.5" font-family="Helvetica,sans-Serif" font-size="10.00">VortexConfig.h</text>
</a>
</g>
</g>
<!-- Node2&#45;&gt;Node4 -->
<g id="edge3" class="edge">
<title>Node2&#45;&gt;Node4</title>
<path fill="none" stroke="midnightblue" d="M1273.54,-112.32C1259.5,-103.9 1237.95,-90.97 1221.46,-81.07"/>
<polygon fill="midnightblue" stroke="midnightblue" points="1222.8,-77.8 1212.42,-75.65 1219.2,-83.8 1222.8,-77.8"/>
</g>
<!-- Node5 -->
<g id="node5" class="node">
<title>Node5</title>
<g id="a_node5"><a xlink:href="ColorConstants_8h.html" target="_top" xlink:title=" ">
<polygon fill="none" stroke="black" points="1095,-0.5 1095,-19.5 1229,-19.5 1229,-0.5 1095,-0.5"/>
<text text-anchor="middle" x="1162" y="-7.5" font-family="Helvetica,sans-Serif" font-size="10.00">Colors/ColorConstants.h</text>
</a>
</g>
</g>
<!-- Node4&#45;&gt;Node5 -->
<g id="edge4" class="edge">
<title>Node4&#45;&gt;Node5</title>
<path fill="none" stroke="midnightblue" d="M1192.06,-56.08C1187.02,-48.53 1179.66,-37.49 1173.49,-28.23"/>
<polygon fill="midnightblue" stroke="midnightblue" points="1176.29,-26.13 1167.83,-19.75 1170.47,-30.01 1176.29,-26.13"/>
</g>
<!-- Node6&#45;&gt;Node3 -->
<g id="edge6" class="edge">
<title>Node6&#45;&gt;Node3</title>
<path fill="none" stroke="midnightblue" d="M302.73,-280.29C321.74,-252.04 385.78,-161.83 460,-112 483.96,-95.91 514.43,-84.62 538.8,-77.38"/>
<polygon fill="midnightblue" stroke="midnightblue" points="539.83,-80.72 548.49,-74.61 537.91,-73.99 539.83,-80.72"/>
</g>
<!-- Node7 -->
<g id="node7" class="node">
<title>Node7</title>
<g id="a_node7"><a xlink:href="BitStream_8h.html" target="_top" xlink:title=" ">
<polygon fill="none" stroke="black" points="372,-224.5 372,-243.5 486,-243.5 486,-224.5 372,-224.5"/>
<text text-anchor="middle" x="429" y="-231.5" font-family="Helvetica,sans-Serif" font-size="10.00">../Serial/BitStream.h</text>
</a>
</g>
</g>
<!-- Node6&#45;&gt;Node7 -->
<g id="edge7" class="edge">
<title>Node6&#45;&gt;Node7</title>
<path fill="none" stroke="midnightblue" d="M317.92,-280.44C339.74,-271.52 374.15,-257.44 398.89,-247.32"/>
<polygon fill="midnightblue" stroke="midnightblue" points="400.25,-250.54 408.18,-243.52 397.6,-244.06 400.25,-250.54"/>
</g>
<!-- Node6&#45;&gt;Node8 -->
<g id="edge9" class="edge">
<title>Node6&#45;&gt;Node8</title>
<path fill="none" stroke="midnightblue" d="M294.69,-280.08C292.83,-272.93 290.16,-262.64 287.85,-253.69"/>
<polygon fill="midnightblue" stroke="midnightblue" points="291.17,-252.55 285.27,-243.75 284.39,-254.31 291.17,-252.55"/>
</g>
<!-- Node7&#45;&gt;Node3 -->
<g id="edge8" class="edge">
<title>Node7&#45;&gt;Node3</title>
<path fill="none" stroke="midnightblue" d="M430.37,-224.48C434.26,-202.89 447.29,-145.38 480,-112 495.93,-95.74 518.78,-84.89 538.71,-77.92"/>
<polygon fill="midnightblue" stroke="midnightblue" points="539.81,-81.25 548.22,-74.81 537.63,-74.59 539.81,-81.25"/>
</g>
<!-- Node9&#45;&gt;Node7 -->
<g id="edge19" class="edge">
<title>Node9&#45;&gt;Node7</title>
<path fill="none" stroke="midnightblue" d="M432.34,-280.08C431.82,-273.01 431.06,-262.86 430.41,-253.99"/>
<polygon fill="midnightblue" stroke="midnightblue" points="433.88,-253.47 429.65,-243.75 426.9,-253.98 433.88,-253.47"/>
</g>
<!-- Node9&#45;&gt;Node8 -->
<g id="edge20" class="edge">
<title>Node9&#45;&gt;Node8</title>
<path fill="none" stroke="midnightblue" d="M409.23,-280.44C384.11,-271.4 344.29,-257.06 316.1,-246.92"/>
<polygon fill="midnightblue" stroke="midnightblue" points="317.25,-243.61 306.66,-243.52 314.88,-250.2 317.25,-243.61"/>
</g>
<!-- Node10 -->
<g id="node10" class="node">
<title>Node10</title>
<g id="a_node10"><a xlink:href="ByteStream_8h.html" target="_top" xlink:title=" ">
<polygon fill="none" stroke="black" points="504.5,-224.5 504.5,-243.5 627.5,-243.5 627.5,-224.5 504.5,-224.5"/>
<text text-anchor="middle" x="566" y="-231.5" font-family="Helvetica,sans-Serif" font-size="10.00">../Serial/ByteStream.h</text>
</a>
</g>
</g>
<!-- Node9&#45;&gt;Node10 -->
<g id="edge11" class="edge">
<title>Node9&#45;&gt;Node10</title>
<path fill="none" stroke="midnightblue" d="M454.07,-280.44C476.06,-271.52 510.73,-257.44 535.66,-247.32"/>
<polygon fill="midnightblue" stroke="midnightblue" points="537.08,-250.52 545.02,-243.52 534.44,-244.04 537.08,-250.52"/>
</g>
<!-- Node10&#45;&gt;Node3 -->
<g id="edge12" class="edge">
<title>Node10&#45;&gt;Node3</title>
<path fill="none" stroke="midnightblue" d="M553.49,-224.5C526.01,-204.75 464.88,-154.26 491,-112 501.54,-94.95 520.71,-84.14 538.66,-77.41"/>
<polygon fill="midnightblue" stroke="midnightblue" points="540.11,-80.61 548.45,-74.07 537.85,-73.99 540.11,-80.61"/>
</g>
<!-- Node10&#45;&gt;Node11 -->
<g id="edge13" class="edge">
<title>Node10&#45;&gt;Node11</title>
<path fill="none" stroke="midnightblue" d="M587.07,-224.44C609.06,-215.52 643.73,-201.44 668.66,-191.32"/>
<polygon fill="midnightblue" stroke="midnightblue" points="670.08,-194.52 678.02,-187.52 667.44,-188.04 670.08,-194.52"/>
</g>
<!-- Node11&#45;&gt;Node4 -->
<g id="edge15" class="edge">
<title>Node11&#45;&gt;Node4</title>
<path fill="none" stroke="midnightblue" d="M720.01,-168.43C741.66,-159.55 776.33,-145.13 806,-132 825.27,-123.47 828.75,-117.86 849,-112 950.45,-82.63 1074.03,-72.41 1143.59,-68.86"/>
<polygon fill="midnightblue" stroke="midnightblue" points="1144.05,-72.35 1153.87,-68.37 1143.71,-65.35 1144.05,-72.35"/>
</g>
<!-- Node12 -->
<g id="node12" class="node">
<title>Node12</title>
<g id="a_node12"><a xlink:title=" ">
<polygon fill="none" stroke="#bfbfbf" points="901,-56.5 901,-75.5 957,-75.5 957,-56.5 901,-56.5"/>
<text text-anchor="middle" x="929" y="-63.5" font-family="Helvetica,sans-Serif" font-size="10.00">stdarg.h</text>
</a>
</g>
</g>
<!-- Node11&#45;&gt;Node12 -->
<g id="edge14" class="edge">
<title>Node11&#45;&gt;Node12</title>
<path fill="none" stroke="midnightblue" d="M712.07,-168.48C732.59,-155.32 773.87,-129.71 811,-112 837.84,-99.2 869.36,-87.33 893.07,-79"/>
<polygon fill="midnightblue" stroke="midnightblue" points="894.41,-82.24 902.71,-75.65 892.12,-75.62 894.41,-82.24"/>
</g>
<!-- Node13 -->
<g id="node13" class="node">
<title>Node13</title>
<g id="a_node13"><a xlink:href="ErrorBlinker_8h.html" target="_top" xlink:title=" ">
<polygon fill="none" stroke="black" points="609.5,-112.5 609.5,-131.5 720.5,-131.5 720.5,-112.5 609.5,-112.5"/>
<text text-anchor="middle" x="665" y="-119.5" font-family="Helvetica,sans-Serif" font-size="10.00">../Log/ErrorBlinker.h</text>
</a>
</g>
</g>
<!-- Node11&#45;&gt;Node13 -->
<g id="edge16" class="edge">
<title>Node11&#45;&gt;Node13</title>
<path fill="none" stroke="midnightblue" d="M693.39,-168.08C688.63,-160.53 681.68,-149.49 675.85,-140.23"/>
<polygon fill="midnightblue" stroke="midnightblue" points="678.8,-138.35 670.51,-131.75 672.88,-142.08 678.8,-138.35"/>
</g>
<!-- Node13&#45;&gt;Node3 -->
<g id="edge17" class="edge">
<title>Node13&#45;&gt;Node3</title>
<path fill="none" stroke="midnightblue" d="M651.5,-112.32C638.4,-103.9 618.29,-90.97 602.89,-81.07"/>
<polygon fill="midnightblue" stroke="midnightblue" points="604.77,-78.12 594.46,-75.65 600.98,-84.01 604.77,-78.12"/>
</g>
<!-- Node13&#45;&gt;Node4 -->
<g id="edge18" class="edge">
<title>Node13&#45;&gt;Node4</title>
<path fill="none" stroke="midnightblue" d="M720.53,-115.37C823.26,-104.97 1041.74,-82.83 1143.6,-72.51"/>
<polygon fill="midnightblue" stroke="midnightblue" points="1144.08,-75.98 1153.68,-71.49 1143.37,-69.02 1144.08,-75.98"/>
</g>
<!-- Node14&#45;&gt;Node3 -->
<g id="edge22" class="edge">
<title>Node14&#45;&gt;Node3</title>
<path fill="none" stroke="midnightblue" d="M696.35,-280.42C683.58,-267.83 658.82,-243.7 637,-224 590.19,-181.75 555.44,-189.25 529,-132 519.89,-112.27 539.43,-93.29 557.1,-80.99"/>
<polygon fill="midnightblue" stroke="midnightblue" points="559.03,-83.9 565.49,-75.51 555.21,-78.04 559.03,-83.9"/>
</g>
<!-- Node14&#45;&gt;Node7 -->
<g id="edge23" class="edge">
<title>Node14&#45;&gt;Node7</title>
<path fill="none" stroke="midnightblue" d="M661.27,-280.44C612.82,-270.96 534.67,-255.67 482.58,-245.48"/>
<polygon fill="midnightblue" stroke="midnightblue" points="483.01,-242 472.53,-243.52 481.67,-248.87 483.01,-242"/>
</g>
<!-- Node14&#45;&gt;Node15 -->
<g id="edge24" class="edge">
<title>Node14&#45;&gt;Node15</title>
<path fill="none" stroke="midnightblue" d="M709.62,-280.08C713.46,-272.69 719.02,-261.95 723.76,-252.81"/>
<polygon fill="midnightblue" stroke="midnightblue" points="726.97,-254.24 728.46,-243.75 720.75,-251.02 726.97,-254.24"/>
</g>
<!-- Node15&#45;&gt;Node4 -->
<g id="edge25" class="edge">
<title>Node15&#45;&gt;Node4</title>
<path fill="none" stroke="midnightblue" d="M737.76,-224.48C745.57,-211.08 762.24,-184.9 782,-168 802.1,-150.81 861.87,-120.24 887,-112 974.04,-83.46 1080.69,-73 1143.78,-69.18"/>
<polygon fill="midnightblue" stroke="midnightblue" points="1144.12,-72.67 1153.9,-68.6 1143.72,-65.68 1144.12,-72.67"/>
</g>
<!-- Node16&#45;&gt;Node7 -->
<g id="edge28" class="edge">
<title>Node16&#45;&gt;Node7</title>
<path fill="none" stroke="midnightblue" d="M544.29,-280.44C521.65,-271.52 485.93,-257.44 460.25,-247.32"/>
<polygon fill="midnightblue" stroke="midnightblue" points="461.19,-243.93 450.61,-243.52 458.63,-250.44 461.19,-243.93"/>
</g>
<!-- Node16&#45;&gt;Node10 -->
<g id="edge27" class="edge">
<title>Node16&#45;&gt;Node10</title>
<path fill="none" stroke="midnightblue" d="M566,-280.08C566,-273.01 566,-262.86 566,-253.99"/>
<polygon fill="midnightblue" stroke="midnightblue" points="569.5,-253.75 566,-243.75 562.5,-253.75 569.5,-253.75"/>
</g>
<!-- Node16&#45;&gt;Node15 -->
<g id="edge29" class="edge">
<title>Node16&#45;&gt;Node15</title>
<path fill="none" stroke="midnightblue" d="M592.46,-280.44C620.68,-271.32 665.54,-256.81 696.97,-246.65"/>
<polygon fill="midnightblue" stroke="midnightblue" points="698.22,-249.92 706.66,-243.52 696.07,-243.26 698.22,-249.92"/>
</g>
<!-- Node17&#45;&gt;Node3 -->
<g id="edge33" class="edge">
<title>Node17&#45;&gt;Node3</title>
<path fill="none" stroke="midnightblue" d="M790.98,-170.23C724.16,-161.09 615.04,-144.51 601,-132 587.94,-120.35 583.3,-100.41 581.7,-85.67"/>
<polygon fill="midnightblue" stroke="midnightblue" points="585.19,-85.37 580.99,-75.64 578.21,-85.87 585.19,-85.37"/>
</g>
<!-- Node19 -->
<g id="node19" class="node">
<title>Node19</title>
<g id="a_node19"><a xlink:href="Button_8h.html" target="_top" xlink:title=" ">
<polygon fill="none" stroke="black" points="40,-168.5 40,-187.5 98,-187.5 98,-168.5 40,-168.5"/>
<text text-anchor="middle" x="69" y="-175.5" font-family="Helvetica,sans-Serif" font-size="10.00">Button.h</text>
</a>
</g>
</g>
<!-- Node18&#45;&gt;Node19 -->
<g id="edge35" class="edge">
<title>Node18&#45;&gt;Node19</title>
<path fill="none" stroke="midnightblue" d="M53.33,-280.37C56.08,-262.62 62.41,-221.67 66.13,-197.6"/>
<polygon fill="midnightblue" stroke="midnightblue" points="69.6,-198.01 67.67,-187.59 62.69,-196.94 69.6,-198.01"/>
</g>
<!-- Node19&#45;&gt;Node3 -->
<g id="edge36" class="edge">
<title>Node19&#45;&gt;Node3</title>
<path fill="none" stroke="midnightblue" d="M74.22,-168.4C83.57,-153.89 104.66,-124.87 131,-112 202.05,-77.3 439.85,-69.35 538.03,-67.53"/>
<polygon fill="midnightblue" stroke="midnightblue" points="538.26,-71.03 548.19,-67.36 538.14,-64.03 538.26,-71.03"/>
</g>
<!-- Node20&#45;&gt;Node3 -->
<g id="edge38" class="edge">
<title>Node20&#45;&gt;Node3</title>
<path fill="none" stroke="midnightblue" d="M1494.87,-168.45C1492.46,-154.01 1485.36,-125.09 1466,-112 1448.35,-100.06 798.13,-75.07 623.69,-68.57"/>
<polygon fill="midnightblue" stroke="midnightblue" points="623.73,-65.07 613.61,-68.2 623.47,-72.07 623.73,-65.07"/>
</g>
<!-- Node20&#45;&gt;Node4 -->
<g id="edge39" class="edge">
<title>Node20&#45;&gt;Node4</title>
<path fill="none" stroke="midnightblue" d="M1508.31,-168.42C1525.53,-155.41 1553,-130.27 1537,-112 1518.57,-90.96 1343.51,-76.51 1252.45,-70.35"/>
<polygon fill="midnightblue" stroke="midnightblue" points="1252.52,-66.84 1242.31,-69.67 1252.06,-73.83 1252.52,-66.84"/>
</g>
<!-- Node21 -->
<g id="node21" class="node">
<title>Node21</title>
<g id="a_node21"><a xlink:href="LedTypes_8h.html" target="_top" xlink:title=" ">
<polygon fill="none" stroke="black" points="1351.5,-112.5 1351.5,-131.5 1456.5,-131.5 1456.5,-112.5 1351.5,-112.5"/>
<text text-anchor="middle" x="1404" y="-119.5" font-family="Helvetica,sans-Serif" font-size="10.00">../Leds/LedTypes.h</text>
</a>
</g>
</g>
<!-- Node20&#45;&gt;Node21 -->
<g id="edge40" class="edge">
<title>Node20&#45;&gt;Node21</title>
<path fill="none" stroke="midnightblue" d="M1481.22,-168.32C1466.73,-159.82 1444.43,-146.73 1427.51,-136.8"/>
<polygon fill="midnightblue" stroke="midnightblue" points="1429.14,-133.7 1418.74,-131.65 1425.6,-139.74 1429.14,-133.7"/>
</g>
<!-- Node21&#45;&gt;Node3 -->
<g id="edge41" class="edge">
<title>Node21&#45;&gt;Node3</title>
<path fill="none" stroke="midnightblue" d="M1351.27,-113.03C1348.14,-112.66 1345.03,-112.31 1342,-112 1069.4,-84.21 739.99,-71.94 623.95,-68.26"/>
<polygon fill="midnightblue" stroke="midnightblue" points="623.82,-64.75 613.72,-67.94 623.6,-71.75 623.82,-64.75"/>
</g>
<!-- Node21&#45;&gt;Node4 -->
<g id="edge43" class="edge">
<title>Node21&#45;&gt;Node4</title>
<path fill="none" stroke="midnightblue" d="M1371.36,-112.44C1335.95,-103.16 1279.29,-88.31 1240.45,-78.13"/>
<polygon fill="midnightblue" stroke="midnightblue" points="1241.05,-74.67 1230.49,-75.52 1239.27,-81.44 1241.05,-74.67"/>
</g>
<!-- Node21&#45;&gt;Node12 -->
<g id="edge42" class="edge">
<title>Node21&#45;&gt;Node12</title>
<path fill="none" stroke="midnightblue" d="M1351.25,-113.21C1348.12,-112.79 1345.02,-112.38 1342,-112 1204.24,-94.5 1040.09,-77.87 967.17,-70.7"/>
<polygon fill="midnightblue" stroke="midnightblue" points="967.38,-67.2 957.08,-69.71 966.69,-74.17 967.38,-67.2"/>
</g>
<!-- Node22&#45;&gt;Node4 -->
<g id="edge46" class="edge">
<title>Node22&#45;&gt;Node4</title>
<path fill="none" stroke="midnightblue" d="M1518.46,-224.38C1533.77,-217.18 1552.86,-205.29 1562,-188 1571.45,-170.12 1566.39,-124.95 1553,-112 1511.23,-71.6 1340.9,-66.21 1252.24,-66.24"/>
<polygon fill="midnightblue" stroke="midnightblue" points="1252.09,-62.74 1242.1,-66.27 1252.11,-69.74 1252.09,-62.74"/>
</g>
<!-- Node22&#45;&gt;Node20 -->
<g id="edge45" class="edge">
<title>Node22&#45;&gt;Node20</title>
<path fill="none" stroke="midnightblue" d="M1496,-224.08C1496,-217.01 1496,-206.86 1496,-197.99"/>
<polygon fill="midnightblue" stroke="midnightblue" points="1499.5,-197.75 1496,-187.75 1492.5,-197.75 1499.5,-197.75"/>
</g>
<!-- Node23&#45;&gt;Node3 -->
<g id="edge48" class="edge">
<title>Node23&#45;&gt;Node3</title>
<path fill="none" stroke="midnightblue" d="M247.1,-168.46C262.72,-154.29 296.26,-126.11 330,-112 399.35,-82.99 487.13,-72.66 538.38,-69"/>
<polygon fill="midnightblue" stroke="midnightblue" points="538.69,-72.49 548.43,-68.34 538.22,-65.5 538.69,-72.49"/>
</g>
<!-- Node24&#45;&gt;Node3 -->
<g id="edge62" class="edge">
<title>Node24&#45;&gt;Node3</title>
<path fill="none" stroke="midnightblue" d="M926.13,-280.47C894.1,-267.53 830.78,-242.46 776,-224 722.43,-205.94 704.12,-214.15 654,-188 618.68,-169.57 602.08,-167.5 584,-132 576.71,-117.69 576.59,-99.22 577.93,-85.63"/>
<polygon fill="midnightblue" stroke="midnightblue" points="581.42,-85.94 579.27,-75.56 574.48,-85.01 581.42,-85.94"/>
</g>
<!-- Node24&#45;&gt;Node4 -->
<g id="edge61" class="edge">
<title>Node24&#45;&gt;Node4</title>
<path fill="none" stroke="midnightblue" d="M944,-280.16C933.34,-248.01 899.06,-137.79 921,-112 948.98,-79.11 1071.05,-70.19 1143.47,-67.82"/>
<polygon fill="midnightblue" stroke="midnightblue" points="1143.89,-71.31 1153.78,-67.51 1143.68,-64.31 1143.89,-71.31"/>
</g>
<!-- Node24&#45;&gt;Node10 -->
<g id="edge50" class="edge">
<title>Node24&#45;&gt;Node10</title>
<path fill="none" stroke="midnightblue" d="M900.28,-282.38C834.29,-273.03 713.27,-255.87 636.37,-244.97"/>
<polygon fill="midnightblue" stroke="midnightblue" points="636.68,-241.48 626.29,-243.55 635.7,-248.41 636.68,-241.48"/>
</g>
<!-- Node25 -->
<g id="node25" class="node">
<title>Node25</title>
<g id="a_node25"><a xlink:href="ColorTypes_8h.html" target="_top" xlink:title=" ">
<polygon fill="none" stroke="black" points="1065,-112.5 1065,-131.5 1187,-131.5 1187,-112.5 1065,-112.5"/>
<text text-anchor="middle" x="1126" y="-119.5" font-family="Helvetica,sans-Serif" font-size="10.00">../Colors/ColorTypes.h</text>
</a>
</g>
</g>
<!-- Node24&#45;&gt;Node25 -->
<g id="edge51" class="edge">
<title>Node24&#45;&gt;Node25</title>
<path fill="none" stroke="midnightblue" d="M952.19,-280.38C957.64,-271.33 966.44,-256.68 974,-244 994.1,-210.28 989.41,-193.8 1019,-168 1036.83,-152.45 1060.81,-141.7 1081.55,-134.61"/>
<polygon fill="midnightblue" stroke="midnightblue" points="1082.69,-137.93 1091.13,-131.52 1080.53,-131.26 1082.69,-137.93"/>
</g>
<!-- Node26 -->
<g id="node26" class="node">
<title>Node26</title>
<g id="a_node26"><a xlink:href="Patterns_8h.html" target="_top" xlink:title=" ">
<polygon fill="none" stroke="black" points="929.5,-112.5 929.5,-131.5 1046.5,-131.5 1046.5,-112.5 929.5,-112.5"/>
<text text-anchor="middle" x="988" y="-119.5" font-family="Helvetica,sans-Serif" font-size="10.00">../Patterns/Patterns.h</text>
</a>
</g>
</g>
<!-- Node24&#45;&gt;Node26 -->
<g id="edge55" class="edge">
<title>Node24&#45;&gt;Node26</title>
<path fill="none" stroke="midnightblue" d="M949.2,-280.08C955.66,-253.95 974.61,-177.21 983.41,-141.58"/>
<polygon fill="midnightblue" stroke="midnightblue" points="986.88,-142.12 985.88,-131.57 980.09,-140.44 986.88,-142.12"/>
</g>
<!-- Node24&#45;&gt;Node27 -->
<g id="edge57" class="edge">
<title>Node24&#45;&gt;Node27</title>
<path fill="none" stroke="midnightblue" d="M961.96,-280.36C975.89,-271.97 996.86,-258.41 1013,-244 1029.59,-229.19 1045.87,-209.54 1056.57,-195.74"/>
<polygon fill="midnightblue" stroke="midnightblue" points="1059.47,-197.71 1062.74,-187.63 1053.9,-193.47 1059.47,-197.71"/>
</g>
<!-- Node25&#45;&gt;Node3 -->
<g id="edge52" class="edge">
<title>Node25&#45;&gt;Node3</title>
<path fill="none" stroke="midnightblue" d="M1064.93,-113.03C1061.91,-112.67 1058.92,-112.33 1056,-112 896.73,-94.22 706.89,-77.61 623.66,-70.56"/>
<polygon fill="midnightblue" stroke="midnightblue" points="623.84,-67.06 613.58,-69.71 623.25,-74.04 623.84,-67.06"/>
</g>
<!-- Node25&#45;&gt;Node4 -->
<g id="edge53" class="edge">
<title>Node25&#45;&gt;Node4</title>
<path fill="none" stroke="midnightblue" d="M1137.57,-112.32C1148.42,-104.18 1164.88,-91.84 1177.88,-82.09"/>
<polygon fill="midnightblue" stroke="midnightblue" points="1180.32,-84.63 1186.22,-75.83 1176.12,-79.03 1180.32,-84.63"/>
</g>
<!-- Node25&#45;&gt;Node5 -->
<g id="edge54" class="edge">
<title>Node25&#45;&gt;Node5</title>
<path fill="none" stroke="midnightblue" d="M1128.37,-112.1C1131.77,-99.52 1138.36,-75.85 1145,-56 1147.98,-47.08 1151.63,-37.3 1154.78,-29.14"/>
<polygon fill="midnightblue" stroke="midnightblue" points="1158.15,-30.14 1158.54,-19.56 1151.63,-27.59 1158.15,-30.14"/>
</g>
<!-- Node26&#45;&gt;Node3 -->
<g id="edge56" class="edge">
<title>Node26&#45;&gt;Node3</title>
<path fill="none" stroke="midnightblue" d="M929.25,-113.21C846.37,-102.21 697.08,-82.4 623.86,-72.69"/>
<polygon fill="midnightblue" stroke="midnightblue" points="624,-69.17 613.62,-71.33 623.08,-76.11 624,-69.17"/>
</g>
<!-- Node27&#45;&gt;Node3 -->
<g id="edge58" class="edge">
<title>Node27&#45;&gt;Node3</title>
<path fill="none" stroke="midnightblue" d="M1031.11,-168.46C941.64,-148.29 717.73,-97.82 623.67,-76.62"/>
<polygon fill="midnightblue" stroke="midnightblue" points="624.18,-73.14 613.65,-74.36 622.64,-79.97 624.18,-73.14"/>
</g>
<!-- Node27&#45;&gt;Node21 -->
<g id="edge60" class="edge">
<title>Node27&#45;&gt;Node21</title>
<path fill="none" stroke="midnightblue" d="M1110.75,-170.27C1168.64,-160.94 1273.76,-143.99 1341.16,-133.13"/>
<polygon fill="midnightblue" stroke="midnightblue" points="1341.91,-136.55 1351.23,-131.51 1340.8,-129.64 1341.91,-136.55"/>
</g>
<!-- Node27&#45;&gt;Node25 -->
<g id="edge59" class="edge">
<title>Node27&#45;&gt;Node25</title>
<path fill="none" stroke="midnightblue" d="M1078.16,-168.32C1086.5,-160.42 1099.03,-148.55 1109.18,-138.94"/>
<polygon fill="midnightblue" stroke="midnightblue" points="1111.82,-141.25 1116.68,-131.83 1107.01,-136.17 1111.82,-141.25"/>
</g>
<!-- Node28&#45;&gt;Node3 -->
<g id="edge64" class="edge">
<title>Node28&#45;&gt;Node3</title>
<path fill="none" stroke="midnightblue" d="M252.39,-113.09C330.07,-102.2 468.29,-82.81 538.1,-73.02"/>
<polygon fill="midnightblue" stroke="midnightblue" points="538.88,-76.44 548.3,-71.59 537.91,-69.51 538.88,-76.44"/>
</g>
<!-- Node29&#45;&gt;Node3 -->
<g id="edge66" class="edge">
<title>Node29&#45;&gt;Node3</title>
<path fill="none" stroke="midnightblue" d="M1250.96,-224.39C1247.7,-201.55 1235.41,-139.26 1196,-112 1172.48,-95.73 759.74,-75.27 623.93,-68.95"/>
<polygon fill="midnightblue" stroke="midnightblue" points="624.04,-65.45 613.89,-68.48 623.72,-72.44 624.04,-65.45"/>
</g>
<!-- Node29&#45;&gt;Node21 -->
<g id="edge68" class="edge">
<title>Node29&#45;&gt;Node21</title>
<path fill="none" stroke="midnightblue" d="M1252.42,-224.16C1253.55,-210.34 1257.71,-183.57 1273,-168 1291.21,-149.45 1317.4,-138.54 1341.59,-132.13"/>
<polygon fill="midnightblue" stroke="midnightblue" points="1342.56,-135.5 1351.44,-129.73 1340.9,-128.69 1342.56,-135.5"/>
</g>
<!-- Node29&#45;&gt;Node25 -->
<g id="edge67" class="edge">
<title>Node29&#45;&gt;Node25</title>
<path fill="none" stroke="midnightblue" d="M1242.11,-224.37C1220.86,-205.81 1170.57,-161.91 1143.68,-138.44"/>
<polygon fill="midnightblue" stroke="midnightblue" points="1145.68,-135.53 1135.84,-131.59 1141.07,-140.8 1145.68,-135.53"/>
</g>
<!-- Node29&#45;&gt;Node30 -->
<g id="edge69" class="edge">
<title>Node29&#45;&gt;Node30</title>
<path fill="none" stroke="midnightblue" d="M1264.53,-224.32C1276.59,-215.98 1295.03,-203.21 1309.27,-193.35"/>
<polygon fill="midnightblue" stroke="midnightblue" points="1311.27,-196.22 1317.5,-187.65 1307.28,-190.47 1311.27,-196.22"/>
</g>
<!-- Node30&#45;&gt;Node4 -->
<g id="edge72" class="edge">
<title>Node30&#45;&gt;Node4</title>
<path fill="none" stroke="midnightblue" d="M1378.57,-170.92C1428.15,-162.75 1494.14,-145.26 1466,-112 1439.17,-80.29 1322.45,-70.91 1252.19,-68.15"/>
<polygon fill="midnightblue" stroke="midnightblue" points="1252.3,-64.65 1242.18,-67.79 1252.05,-71.64 1252.3,-64.65"/>
</g>
<!-- Node30&#45;&gt;Node21 -->
<g id="edge70" class="edge">
<title>Node30&#45;&gt;Node21</title>
<path fill="none" stroke="midnightblue" d="M1341.89,-168.32C1353.15,-160.11 1370.29,-147.6 1383.71,-137.81"/>
<polygon fill="midnightblue" stroke="midnightblue" points="1385.88,-140.56 1391.89,-131.83 1381.75,-134.9 1385.88,-140.56"/>
</g>
<!-- Node30&#45;&gt;Node26 -->
<g id="edge71" class="edge">
<title>Node30&#45;&gt;Node26</title>
<path fill="none" stroke="midnightblue" d="M1281.36,-169.32C1221.2,-159.82 1118.59,-143.62 1052.06,-133.12"/>
<polygon fill="midnightblue" stroke="midnightblue" points="1052.54,-129.65 1042.11,-131.54 1051.44,-136.56 1052.54,-129.65"/>
</g>
</g>
</svg>
        <g id="navigator" transform="translate(0 0)" fill="#404254">
                <rect fill="#f2f5e9" fill-opacity="0.5" stroke="#606060" stroke-width=".5" x="0" y="0" width="60" height="60"/>
                <use id="zoomplus" xlink:href="#zoomPlus" x="17" y="9" onmousedown="handleZoom(evt,'in')"/>
                <use id="zoomminus" xlink:href="#zoomMin" x="42" y="9" onmousedown="handleZoom(evt,'out')"/>
                <use id="reset" xlink:href="#resetDef" x="30" y="36" onmousedown="handleReset()"/>
                <g id="arrowUp" xlink:href="#dirArrow" transform="translate(30 24)" onmousedown="handlePan(0,-1)">
                  <use xlink:href="#rim" fill="#404040">
                        <set attributeName="fill" to="#808080" begin="arrowUp.mouseover" end="arrowUp.mouseout"/>
                  </use>
                  <path fill="none" stroke="white" stroke-width="1.5" d="M0,-3.0v7 M-2.5,-0.5L0,-3.0L2.5,-0.5"/>
                </g>
                <g id="arrowRight" xlink:href="#dirArrow" transform="rotate(90) translate(36 -43)" onmousedown="handlePan(1,0)">
                  <use xlink:href="#rim" fill="#404040">
                        <set attributeName="fill" to="#808080" begin="arrowRight.mouseover" end="arrowRight.mouseout"/>
                  </use>
                  <path fill="none" stroke="white" stroke-width="1.5" d="M0,-3.0v7 M-2.5,-0.5L0,-3.0L2.5,-0.5"/>
                </g>
                <g id="arrowDown" xlink:href="#dirArrow" transform="rotate(180) translate(-30 -48)" onmousedown="handlePan(0,1)">
                  <use xlink:href="#rim" fill="#404040">
                        <set attributeName="fill" to="#808080" begin="arrowDown.mouseover" end="arrowDown.mouseout"/>
                  </use>
                  <path fill="none" stroke="white" stroke-width="1.5" d="M0,-3.0v7 M-2.5,-0.5L0,-3.0L2.5,-0.5"/>
                </g>
                <g id="arrowLeft" xlink:href="#dirArrow" transform="rotate(270) translate(-36 17)" onmousedown="handlePan(-1,0)">
                  <use xlink:href="#rim" fill="#404040">
                        <set attributeName="fill" to="#808080" begin="arrowLeft.mouseover" end="arrowLeft.mouseout"/>
                  </use>
                  <path fill="none" stroke="white" stroke-width="1.5" d="M0,-3.0v7 M-2.5,-0.5L0,-3.0L2.5,-0.5"/>
                </g>
        </g>
        <svg viewBox="0 0 15 15" width="100%" height="30px" preserveAspectRatio="xMaxYMin meet">
         <g id="arrow_out" transform="scale(0.3 0.3)">
          <a xlink:href="VortexEngine_8cpp__incl_org.svg" target="_base">
           <rect id="button" ry="5" rx="5" y="6" x="6" height="38" width="38"
                fill="#f2f5e9" fill-opacity="0.5" stroke="#606060" stroke-width="1.0"/>
           <path id="arrow"
             d="M 11.500037,31.436501 C 11.940474,20.09759 22.043105,11.32322 32.158766,21.979434 L 37.068811,17.246167 C 37.068811,17.246167 37.088388,32 37.088388,32 L 22.160133,31.978069 C 22.160133,31.978069 26.997745,27.140456 26.997745,27.140456 C 18.528582,18.264221 13.291696,25.230495 11.500037,31.436501 z"
             style="fill:#404040;"/>
          </a>
         </g>
        </svg>
</svg>
