<?xml version="1.0" encoding="UTF-8" standalone="no"?>
<!DOCTYPE svg PUBLIC "-//W3C//DTD SVG 1.1//EN"
 "http://www.w3.org/Graphics/SVG/1.1/DTD/svg11.dtd">
<!-- Generated by graphviz version 2.43.0 (0)
 -->
<!-- Title: VortexEngine/src/Modes/DefaultModes.cpp Pages: 1 -->
<svg width="402pt" height="263pt"
 viewBox="0.00 0.00 401.84 263.00" xmlns="http://www.w3.org/2000/svg" xmlns:xlink="http://www.w3.org/1999/xlink">
<g id="graph0" class="graph" transform="scale(1 1) rotate(0) translate(4 259)">
<title>VortexEngine/src/Modes/DefaultModes.cpp</title>
<!-- Node1 -->
<g id="node1" class="node">
<title>Node1</title>
<g id="a_node1"><a xlink:title=" ">
<polygon fill="#bfbfbf" stroke="black" points="99.84,-224.5 99.84,-254.5 233.84,-254.5 233.84,-224.5 99.84,-224.5"/>
<text text-anchor="start" x="107.84" y="-242.5" font-family="Helvetica,sans-Serif" font-size="10.00">VortexEngine/src/Modes</text>
<text text-anchor="middle" x="166.84" y="-231.5" font-family="Helvetica,sans-Serif" font-size="10.00">/DefaultModes.cpp</text>
</a>
</g>
</g>
<!-- Node2 -->
<g id="node2" class="node">
<title>Node2</title>
<g id="a_node2"><a xlink:href="DefaultModes_8h.html" target="_top" xlink:title=" ">
<polygon fill="none" stroke="black" points="82.84,-168.5 82.84,-187.5 176.84,-187.5 176.84,-168.5 82.84,-168.5"/>
<text text-anchor="middle" x="129.84" y="-175.5" font-family="Helvetica,sans-Serif" font-size="10.00">DefaultModes.h</text>
</a>
</g>
</g>
<!-- Node1&#45;&gt;Node2 -->
<g id="edge1" class="edge">
<title>Node1&#45;&gt;Node2</title>
<path fill="none" stroke="midnightblue" d="M158.07,-224.4C152.86,-216.02 146.21,-205.33 140.67,-196.42"/>
<polygon fill="midnightblue" stroke="midnightblue" points="143.47,-194.3 135.22,-187.66 137.53,-198 143.47,-194.3"/>
</g>
<!-- Node9 -->
<g id="node9" class="node">
<title>Node9</title>
<g id="a_node9"><a xlink:href="ColorTypes_8h.html" target="_top" xlink:title=" ">
<polygon fill="none" stroke="black" points="271.84,-112.5 271.84,-131.5 393.84,-131.5 393.84,-112.5 271.84,-112.5"/>
<text text-anchor="middle" x="332.84" y="-119.5" font-family="Helvetica,sans-Serif" font-size="10.00">../Colors/ColorTypes.h</text>
</a>
</g>
</g>
<!-- Node1&#45;&gt;Node9 -->
<g id="edge10" class="edge">
<title>Node1&#45;&gt;Node9</title>
<path fill="none" stroke="midnightblue" d="M187.19,-224.34C218.87,-202.3 279.65,-160.01 311.76,-137.66"/>
<polygon fill="midnightblue" stroke="midnightblue" points="314.17,-140.25 320.38,-131.67 310.17,-134.51 314.17,-140.25"/>
</g>
<!-- Node3 -->
<g id="node3" class="node">
<title>Node3</title>
<g id="a_node3"><a xlink:href="Patterns_8h.html" target="_top" xlink:title=" ">
<polygon fill="none" stroke="black" points="136.34,-112.5 136.34,-131.5 253.34,-131.5 253.34,-112.5 136.34,-112.5"/>
<text text-anchor="middle" x="194.84" y="-119.5" font-family="Helvetica,sans-Serif" font-size="10.00">../Patterns/Patterns.h</text>
</a>
</g>
</g>
<!-- Node2&#45;&gt;Node3 -->
<g id="edge2" class="edge">
<title>Node2&#45;&gt;Node3</title>
<path fill="none" stroke="midnightblue" d="M140.28,-168.32C149.98,-160.26 164.65,-148.08 176.34,-138.37"/>
<polygon fill="midnightblue" stroke="midnightblue" points="178.75,-140.92 184.2,-131.83 174.28,-135.53 178.75,-140.92"/>
</g>
<!-- Node5 -->
<g id="node5" class="node">
<title>Node5</title>
<g id="a_node5"><a xlink:href="VortexConfig_8h.html" target="_top" xlink:title=" ">
<polygon fill="none" stroke="black" points="80.34,-56.5 80.34,-75.5 177.34,-75.5 177.34,-56.5 80.34,-56.5"/>
<text text-anchor="middle" x="128.84" y="-63.5" font-family="Helvetica,sans-Serif" font-size="10.00">../VortexConfig.h</text>
</a>
</g>
</g>
<!-- Node2&#45;&gt;Node5 -->
<g id="edge4" class="edge">
<title>Node2&#45;&gt;Node5</title>
<path fill="none" stroke="midnightblue" d="M82.54,-173.25C54.7,-168.33 21.57,-157.16 3.84,-132 -1.28,-124.73 -1.27,-119.27 3.84,-112 13.14,-98.76 49.8,-86.52 81.03,-78.15"/>
<polygon fill="midnightblue" stroke="midnightblue" points="82.14,-81.48 90.94,-75.58 80.38,-74.71 82.14,-81.48"/>
</g>
<!-- Node7 -->
<g id="node7" class="node">
<title>Node7</title>
<g id="a_node7"><a xlink:href="LedTypes_8h.html" target="_top" xlink:title=" ">
<polygon fill="none" stroke="black" points="13.34,-112.5 13.34,-131.5 118.34,-131.5 118.34,-112.5 13.34,-112.5"/>
<text text-anchor="middle" x="65.84" y="-119.5" font-family="Helvetica,sans-Serif" font-size="10.00">../Leds/LedTypes.h</text>
</a>
</g>
</g>
<!-- Node2&#45;&gt;Node7 -->
<g id="edge6" class="edge">
<title>Node2&#45;&gt;Node7</title>
<path fill="none" stroke="midnightblue" d="M119.56,-168.32C110,-160.26 95.56,-148.08 84.05,-138.37"/>
<polygon fill="midnightblue" stroke="midnightblue" points="86.21,-135.61 76.31,-131.83 81.69,-140.96 86.21,-135.61"/>
</g>
<!-- Node4 -->
<g id="node4" class="node">
<title>Node4</title>
<g id="a_node4"><a xlink:title=" ">
<polygon fill="none" stroke="#bfbfbf" points="195.34,-56.5 195.34,-75.5 260.34,-75.5 260.34,-56.5 195.34,-56.5"/>
<text text-anchor="middle" x="227.84" y="-63.5" font-family="Helvetica,sans-Serif" font-size="10.00">inttypes.h</text>
</a>
</g>
</g>
<!-- Node3&#45;&gt;Node4 -->
<g id="edge3" class="edge">
<title>Node3&#45;&gt;Node4</title>
<path fill="none" stroke="midnightblue" d="M200.29,-112.08C204.85,-104.61 211.51,-93.72 217.13,-84.52"/>
<polygon fill="midnightblue" stroke="midnightblue" points="220.26,-86.11 222.49,-75.75 214.29,-82.46 220.26,-86.11"/>
</g>
<!-- Node6 -->
<g id="node6" class="node">
<title>Node6</title>
<g id="a_node6"><a xlink:href="ColorConstants_8h.html" target="_top" xlink:title=" ">
<polygon fill="none" stroke="black" points="141.84,-0.5 141.84,-19.5 275.84,-19.5 275.84,-0.5 141.84,-0.5"/>
<text text-anchor="middle" x="208.84" y="-7.5" font-family="Helvetica,sans-Serif" font-size="10.00">Colors/ColorConstants.h</text>
</a>
</g>
</g>
<!-- Node5&#45;&gt;Node6 -->
<g id="edge5" class="edge">
<title>Node5&#45;&gt;Node6</title>
<path fill="none" stroke="midnightblue" d="M141.69,-56.32C154.05,-47.98 172.97,-35.21 187.58,-25.35"/>
<polygon fill="midnightblue" stroke="midnightblue" points="189.69,-28.15 196.02,-19.65 185.77,-22.35 189.69,-28.15"/>
</g>
<!-- Node7&#45;&gt;Node4 -->
<g id="edge7" class="edge">
<title>Node7&#45;&gt;Node4</title>
<path fill="none" stroke="midnightblue" d="M91.51,-112.44C118.76,-103.36 162.02,-88.94 192.49,-78.78"/>
<polygon fill="midnightblue" stroke="midnightblue" points="193.91,-82 202.29,-75.52 191.7,-75.36 193.91,-82"/>
</g>
<!-- Node7&#45;&gt;Node5 -->
<g id="edge9" class="edge">
<title>Node7&#45;&gt;Node5</title>
<path fill="none" stroke="midnightblue" d="M75.96,-112.32C85.36,-104.26 99.58,-92.08 110.91,-82.37"/>
<polygon fill="midnightblue" stroke="midnightblue" points="113.22,-85 118.53,-75.83 108.66,-79.68 113.22,-85"/>
</g>
<!-- Node8 -->
<g id="node8" class="node">
<title>Node8</title>
<g id="a_node8"><a xlink:title=" ">
<polygon fill="none" stroke="#bfbfbf" points="5.84,-56.5 5.84,-75.5 61.84,-75.5 61.84,-56.5 5.84,-56.5"/>
<text text-anchor="middle" x="33.84" y="-63.5" font-family="Helvetica,sans-Serif" font-size="10.00">stdarg.h</text>
</a>
</g>
</g>
<!-- Node7&#45;&gt;Node8 -->
<g id="edge8" class="edge">
<title>Node7&#45;&gt;Node8</title>
<path fill="none" stroke="midnightblue" d="M60.55,-112.08C56.13,-104.61 49.67,-93.72 44.22,-84.52"/>
<polygon fill="midnightblue" stroke="midnightblue" points="47.13,-82.57 39.02,-75.75 41.11,-86.14 47.13,-82.57"/>
</g>
<!-- Node9&#45;&gt;Node4 -->
<g id="edge11" class="edge">
<title>Node9&#45;&gt;Node4</title>
<path fill="none" stroke="midnightblue" d="M315.97,-112.32C299.13,-103.66 273.03,-90.24 253.6,-80.25"/>
<polygon fill="midnightblue" stroke="midnightblue" points="255.16,-77.12 244.67,-75.65 251.96,-83.34 255.16,-77.12"/>
</g>
<!-- Node9&#45;&gt;Node5 -->
<g id="edge12" class="edge">
<title>Node9&#45;&gt;Node5</title>
<path fill="none" stroke="midnightblue" d="M300.51,-112.44C265.45,-103.16 209.34,-88.31 170.87,-78.13"/>
<polygon fill="midnightblue" stroke="midnightblue" points="171.57,-74.69 161.01,-75.52 169.78,-81.46 171.57,-74.69"/>
</g>
<!-- Node9&#45;&gt;Node6 -->
<g id="edge13" class="edge">
<title>Node9&#45;&gt;Node6</title>
<path fill="none" stroke="midnightblue" d="M325.11,-112.14C313.63,-99.19 291.14,-74.62 269.84,-56 257.36,-45.1 242.4,-34.03 230.42,-25.6"/>
<polygon fill="midnightblue" stroke="midnightblue" points="232.14,-22.54 221.93,-19.72 228.15,-28.29 232.14,-22.54"/>
</g>
</g>
</svg>
