<?xml version="1.0" encoding="UTF-8" standalone="no"?>
<!DOCTYPE svg PUBLIC "-//W3C//DTD SVG 1.1//EN"
 "http://www.w3.org/Graphics/SVG/1.1/DTD/svg11.dtd">
<!-- Generated by graphviz version 2.43.0 (0)
 -->
<!-- Title: VortexEngine/src/Patterns/Multi Pages: 1 -->
<svg width="516pt" height="447pt"
 viewBox="0.00 0.00 515.50 447.00" xmlns="http://www.w3.org/2000/svg" xmlns:xlink="http://www.w3.org/1999/xlink">
<g id="graph0" class="graph" transform="scale(1 1) rotate(0) translate(4 443)">
<title>VortexEngine/src/Patterns/Multi</title>
<g id="clust1" class="cluster">
<title>clusterdir_d3731d706719beb3d6001df5dcff2644</title>
<g id="a_clust1"><a xlink:href="dir_d3731d706719beb3d6001df5dcff2644.html" target="_top" xlink:title="Patterns">
<polygon fill="#ddddee" stroke="black" points="242,-280 242,-431 414,-431 414,-280 242,-280"/>
<text text-anchor="middle" x="328" y="-419" font-family="Helvetica,sans-Serif" font-size="10.00">Patterns</text>
</a>
</g>
</g>
<g id="clust2" class="cluster">
<title>clusterdir_47fec278782816999705227d1066c7a6</title>
<g id="a_clust2"><a xlink:href="dir_47fec278782816999705227d1066c7a6.html" target="_top">
<polygon fill="#eeeeff" stroke="black" points="250,-352 250,-404 406,-404 406,-352 250,-352"/>
</a>
</g>
</g>
<!-- dir_938e62fdb5540a46e6e0c12f6b77804d -->
<g id="node1" class="node">
<title>dir_938e62fdb5540a46e6e0c12f6b77804d</title>
<g id="a_node1"><a xlink:href="dir_938e62fdb5540a46e6e0c12f6b77804d.html" target="_top" xlink:title="Single">
<polygon fill="none" stroke="black" points="344,-324 290,-324 290,-288 344,-288 344,-324"/>
<text text-anchor="middle" x="317" y="-303.5" font-family="Helvetica,sans-Serif" font-size="10.00">Single</text>
</a>
</g>
</g>
<!-- dir_60d51ee7315d72413f26211ac43a217e -->
<g id="node4" class="node">
<title>dir_60d51ee7315d72413f26211ac43a217e</title>
<g id="a_node4"><a xlink:href="dir_60d51ee7315d72413f26211ac43a217e.html" target="_top" xlink:title="Leds">
<polygon fill="none" stroke="black" points="234,-324 180,-324 180,-288 234,-288 234,-324"/>
<text text-anchor="middle" x="207" y="-303.5" font-family="Helvetica,sans-Serif" font-size="10.00">Leds</text>
</a>
</g>
</g>
<!-- dir_938e62fdb5540a46e6e0c12f6b77804d&#45;&gt;dir_60d51ee7315d72413f26211ac43a217e -->
<g id="edge23" class="edge">
<title>dir_938e62fdb5540a46e6e0c12f6b77804d&#45;&gt;dir_60d51ee7315d72413f26211ac43a217e</title>
<path fill="none" stroke="black" d="M289.79,-306C274.55,-306 259.32,-306 244.08,-306"/>
<polygon fill="black" stroke="black" points="244.07,-302.5 234.07,-306 244.07,-309.5 244.07,-302.5"/>
<g id="a_edge23&#45;headlabel"><a xlink:href="dir_000013_000004.html" target="_top" xlink:title="2">
<text text-anchor="middle" x="247.66" y="-297.16" font-family="Helvetica,sans-Serif" font-size="10.00">2</text>
</a>
</g>
</g>
<!-- dir_63ce3ba067bdf35a8f7c780ac03d51a3 -->
<g id="node5" class="node">
<title>dir_63ce3ba067bdf35a8f7c780ac03d51a3</title>
<g id="a_node5"><a xlink:href="dir_63ce3ba067bdf35a8f7c780ac03d51a3.html" target="_top" xlink:title="Time">
<polygon fill="none" stroke="black" points="234,-252 180,-252 180,-216 234,-216 234,-252"/>
<text text-anchor="middle" x="207" y="-231.5" font-family="Helvetica,sans-Serif" font-size="10.00">Time</text>
</a>
</g>
</g>
<!-- dir_938e62fdb5540a46e6e0c12f6b77804d&#45;&gt;dir_63ce3ba067bdf35a8f7c780ac03d51a3 -->
<g id="edge24" class="edge">
<title>dir_938e62fdb5540a46e6e0c12f6b77804d&#45;&gt;dir_63ce3ba067bdf35a8f7c780ac03d51a3</title>
<path fill="none" stroke="black" d="M290.09,-287.88C275.84,-278.81 258.15,-267.55 242.76,-257.76"/>
<polygon fill="black" stroke="black" points="244.33,-254.61 234.01,-252.19 240.57,-260.51 244.33,-254.61"/>
<g id="a_edge24&#45;headlabel"><a xlink:href="dir_000013_000017.html" target="_top" xlink:title="6">
<text text-anchor="middle" x="248.89" y="-251.64" font-family="Helvetica,sans-Serif" font-size="10.00">6</text>
</a>
</g>
</g>
<!-- dir_ce91f970b513fb5ff406625265505b14 -->
<g id="node9" class="node">
<title>dir_ce91f970b513fb5ff406625265505b14</title>
<g id="a_node9"><a xlink:href="dir_ce91f970b513fb5ff406625265505b14.html" target="_top" xlink:title="Colors">
<polygon fill="none" stroke="black" points="441,-252 387,-252 387,-216 441,-216 441,-252"/>
<text text-anchor="middle" x="414" y="-231.5" font-family="Helvetica,sans-Serif" font-size="10.00">Colors</text>
</a>
</g>
</g>
<!-- dir_938e62fdb5540a46e6e0c12f6b77804d&#45;&gt;dir_ce91f970b513fb5ff406625265505b14 -->
<g id="edge25" class="edge">
<title>dir_938e62fdb5540a46e6e0c12f6b77804d&#45;&gt;dir_ce91f970b513fb5ff406625265505b14</title>
<path fill="none" stroke="black" d="M340.98,-287.7C353.31,-278.8 368.52,-267.82 381.85,-258.2"/>
<polygon fill="black" stroke="black" points="384.24,-260.79 390.3,-252.1 380.14,-255.12 384.24,-260.79"/>
<g id="a_edge25&#45;headlabel"><a xlink:href="dir_000013_000003.html" target="_top" xlink:title="2">
<text text-anchor="middle" x="382.98" y="-262.7" font-family="Helvetica,sans-Serif" font-size="10.00">2</text>
</a>
</g>
</g>
<!-- dir_47fec278782816999705227d1066c7a6 -->
<g id="node2" class="node">
<title>dir_47fec278782816999705227d1066c7a6</title>
<text text-anchor="middle" x="371" y="-375.5" font-family="Helvetica,sans-Serif" font-size="10.00">Multi</text>
</g>
<!-- dir_47fec278782816999705227d1066c7a6&#45;&gt;dir_938e62fdb5540a46e6e0c12f6b77804d -->
<g id="edge19" class="edge">
<title>dir_47fec278782816999705227d1066c7a6&#45;&gt;dir_938e62fdb5540a46e6e0c12f6b77804d</title>
<path fill="none" stroke="black" d="M357.65,-359.7C351.24,-351.39 343.44,-341.28 336.39,-332.14"/>
<polygon fill="black" stroke="black" points="339.07,-329.88 330.19,-324.1 333.53,-334.16 339.07,-329.88"/>
<g id="a_edge19&#45;headlabel"><a xlink:href="dir_000011_000013.html" target="_top" xlink:title="2">
<text text-anchor="middle" x="343.52" y="-328.5" font-family="Helvetica,sans-Serif" font-size="10.00">2</text>
</a>
</g>
</g>
<!-- dir_47fec278782816999705227d1066c7a6&#45;&gt;dir_60d51ee7315d72413f26211ac43a217e -->
<g id="edge16" class="edge">
<title>dir_47fec278782816999705227d1066c7a6&#45;&gt;dir_60d51ee7315d72413f26211ac43a217e</title>
<path fill="none" stroke="black" d="M348.38,-359.81C344.08,-356.97 339.5,-354.23 335,-352 298.59,-334 286.13,-338.01 248,-324 246.6,-323.48 245.17,-322.95 243.74,-322.4"/>
<polygon fill="black" stroke="black" points="244.81,-319.06 234.22,-318.65 242.24,-325.58 244.81,-319.06"/>
<g id="a_edge16&#45;headlabel"><a xlink:href="dir_000011_000004.html" target="_top" xlink:title="27">
<text text-anchor="middle" x="249.2" y="-315.24" font-family="Helvetica,sans-Serif" font-size="10.00">27</text>
</a>
</g>
</g>
<!-- dir_47fec278782816999705227d1066c7a6&#45;&gt;dir_63ce3ba067bdf35a8f7c780ac03d51a3 -->
<g id="edge17" class="edge">
<title>dir_47fec278782816999705227d1066c7a6&#45;&gt;dir_63ce3ba067bdf35a8f7c780ac03d51a3</title>
<path fill="none" stroke="black" d="M349.41,-359.78C344.86,-356.8 339.93,-354.02 335,-352 266.55,-324.02 218.68,-380.51 171,-324 158.39,-309.05 164.53,-298.45 171,-280 173.5,-272.86 177.67,-266.01 182.3,-259.91"/>
<polygon fill="black" stroke="black" points="185.1,-262.01 188.78,-252.08 179.71,-257.55 185.1,-262.01"/>
<g id="a_edge17&#45;headlabel"><a xlink:href="dir_000011_000017.html" target="_top" xlink:title="41">
<text text-anchor="middle" x="184.99" y="-264.09" font-family="Helvetica,sans-Serif" font-size="10.00">41</text>
</a>
</g>
</g>
<!-- dir_77968f70279e8f688919023f4af8a16f -->
<g id="node6" class="node">
<title>dir_77968f70279e8f688919023f4af8a16f</title>
<g id="a_node6"><a xlink:href="dir_77968f70279e8f688919023f4af8a16f.html" target="_top" xlink:title="Random">
<polygon fill="none" stroke="black" points="507.5,-180 450.5,-180 450.5,-144 507.5,-144 507.5,-180"/>
<text text-anchor="middle" x="479" y="-159.5" font-family="Helvetica,sans-Serif" font-size="10.00">Random</text>
</a>
</g>
</g>
<!-- dir_47fec278782816999705227d1066c7a6&#45;&gt;dir_77968f70279e8f688919023f4af8a16f -->
<g id="edge18" class="edge">
<title>dir_47fec278782816999705227d1066c7a6&#45;&gt;dir_77968f70279e8f688919023f4af8a16f</title>
<path fill="none" stroke="black" d="M398.28,-362.22C412.74,-353.04 429.62,-339.95 440,-324 466.89,-282.67 475.25,-224.49 477.85,-190.56"/>
<polygon fill="black" stroke="black" points="481.35,-190.66 478.5,-180.45 474.36,-190.2 481.35,-190.66"/>
<g id="a_edge18&#45;headlabel"><a xlink:href="dir_000011_000014.html" target="_top" xlink:title="2">
<text text-anchor="middle" x="483.95" y="-191.93" font-family="Helvetica,sans-Serif" font-size="10.00">2</text>
</a>
</g>
</g>
<!-- dir_9a5c88f87170865d940dc95c76676edb -->
<g id="node7" class="node">
<title>dir_9a5c88f87170865d940dc95c76676edb</title>
<g id="a_node7"><a xlink:href="dir_9a5c88f87170865d940dc95c76676edb.html" target="_top" xlink:title="Log">
<polygon fill="none" stroke="black" points="250,-108 196,-108 196,-72 250,-72 250,-108"/>
<text text-anchor="middle" x="223" y="-87.5" font-family="Helvetica,sans-Serif" font-size="10.00">Log</text>
</a>
</g>
</g>
<!-- dir_47fec278782816999705227d1066c7a6&#45;&gt;dir_9a5c88f87170865d940dc95c76676edb -->
<g id="edge20" class="edge">
<title>dir_47fec278782816999705227d1066c7a6&#45;&gt;dir_9a5c88f87170865d940dc95c76676edb</title>
<path fill="none" stroke="black" d="M347.34,-359.76C343.3,-357.05 339.08,-354.36 335,-352 309.88,-337.45 293.98,-346.79 276,-324 225.36,-259.8 257.59,-223.38 238,-144 235.88,-135.42 233.34,-126.13 230.95,-117.75"/>
<polygon fill="black" stroke="black" points="234.3,-116.74 228.16,-108.11 227.58,-118.69 234.3,-116.74"/>
<g id="a_edge20&#45;headlabel"><a xlink:href="dir_000011_000005.html" target="_top" xlink:title="15">
<text text-anchor="middle" x="238.03" y="-116.9" font-family="Helvetica,sans-Serif" font-size="10.00">15</text>
</a>
</g>
</g>
<!-- dir_cabf3d63e98569a74ecb960b83c4a15b -->
<g id="node8" class="node">
<title>dir_cabf3d63e98569a74ecb960b83c4a15b</title>
<g id="a_node8"><a xlink:href="dir_cabf3d63e98569a74ecb960b83c4a15b.html" target="_top" xlink:title="Serial">
<polygon fill="none" stroke="black" points="250,-36 196,-36 196,0 250,0 250,-36"/>
<text text-anchor="middle" x="223" y="-15.5" font-family="Helvetica,sans-Serif" font-size="10.00">Serial</text>
</a>
</g>
</g>
<!-- dir_47fec278782816999705227d1066c7a6&#45;&gt;dir_cabf3d63e98569a74ecb960b83c4a15b -->
<g id="edge21" class="edge">
<title>dir_47fec278782816999705227d1066c7a6&#45;&gt;dir_cabf3d63e98569a74ecb960b83c4a15b</title>
<path fill="none" stroke="black" d="M349.82,-359.99C345.15,-356.92 340.08,-354.05 335,-352 261.93,-322.58 229.63,-360.82 160,-324 111.92,-298.57 76,-289.39 76,-235 76,-235 76,-235 76,-161 76,-99.68 142.99,-56.44 186.53,-34.81"/>
<polygon fill="black" stroke="black" points="188.2,-37.89 195.69,-30.4 185.17,-31.58 188.2,-37.89"/>
<g id="a_edge21&#45;headlabel"><a xlink:href="dir_000011_000015.html" target="_top" xlink:title="13">
<text text-anchor="middle" x="186.19" y="-39.51" font-family="Helvetica,sans-Serif" font-size="10.00">13</text>
</a>
</g>
</g>
<!-- dir_47fec278782816999705227d1066c7a6&#45;&gt;dir_ce91f970b513fb5ff406625265505b14 -->
<g id="edge22" class="edge">
<title>dir_47fec278782816999705227d1066c7a6&#45;&gt;dir_ce91f970b513fb5ff406625265505b14</title>
<path fill="none" stroke="black" d="M395.48,-359.77C406.4,-350.56 418.12,-338.19 424,-324 432.2,-304.21 428.68,-279.96 423.68,-261.77"/>
<polygon fill="black" stroke="black" points="426.99,-260.64 420.73,-252.09 420.3,-262.68 426.99,-260.64"/>
<g id="a_edge22&#45;headlabel"><a xlink:href="dir_000011_000003.html" target="_top" xlink:title="2">
<text text-anchor="middle" x="430.76" y="-260.75" font-family="Helvetica,sans-Serif" font-size="10.00">2</text>
</a>
</g>
</g>
<!-- dir_fa5f32c9390e3ea098144f298be2a395 -->
<g id="node3" class="node">
<title>dir_fa5f32c9390e3ea098144f298be2a395</title>
<g id="a_node3"><a xlink:href="dir_fa5f32c9390e3ea098144f298be2a395.html" target="_top" xlink:title="Sequencer">
<polygon fill="white" stroke="black" points="326,-396 258,-396 258,-360 326,-360 326,-396"/>
<text text-anchor="middle" x="292" y="-375.5" font-family="Helvetica,sans-Serif" font-size="10.00">Sequencer</text>
</a>
</g>
</g>
<!-- dir_fa5f32c9390e3ea098144f298be2a395&#45;&gt;dir_938e62fdb5540a46e6e0c12f6b77804d -->
<g id="edge29" class="edge">
<title>dir_fa5f32c9390e3ea098144f298be2a395&#45;&gt;dir_938e62fdb5540a46e6e0c12f6b77804d</title>
<path fill="none" stroke="black" d="M298.18,-359.7C301,-351.81 304.39,-342.3 307.52,-333.55"/>
<polygon fill="black" stroke="black" points="310.82,-334.7 310.89,-324.1 304.23,-332.34 310.82,-334.7"/>
<g id="a_edge29&#45;headlabel"><a xlink:href="dir_000012_000013.html" target="_top" xlink:title="1">
<text text-anchor="middle" x="312.29" y="-336.54" font-family="Helvetica,sans-Serif" font-size="10.00">1</text>
</a>
</g>
</g>
<!-- dir_fa5f32c9390e3ea098144f298be2a395&#45;&gt;dir_60d51ee7315d72413f26211ac43a217e -->
<g id="edge26" class="edge">
<title>dir_fa5f32c9390e3ea098144f298be2a395&#45;&gt;dir_60d51ee7315d72413f26211ac43a217e</title>
<path fill="none" stroke="black" d="M270.99,-359.7C260.28,-350.88 247.11,-340.03 235.5,-330.47"/>
<polygon fill="black" stroke="black" points="237.71,-327.76 227.77,-324.1 233.26,-333.16 237.71,-327.76"/>
<g id="a_edge26&#45;headlabel"><a xlink:href="dir_000012_000004.html" target="_top" xlink:title="4">
<text text-anchor="middle" x="242.29" y="-325.35" font-family="Helvetica,sans-Serif" font-size="10.00">4</text>
</a>
</g>
</g>
<!-- dir_fa5f32c9390e3ea098144f298be2a395&#45;&gt;dir_63ce3ba067bdf35a8f7c780ac03d51a3 -->
<g id="edge27" class="edge">
<title>dir_fa5f32c9390e3ea098144f298be2a395&#45;&gt;dir_63ce3ba067bdf35a8f7c780ac03d51a3</title>
<path fill="none" stroke="black" d="M257.73,-376.07C221.24,-373.02 165.1,-361.98 138,-324 126.64,-308.08 128.69,-297.19 138,-280 145.13,-266.85 157.95,-256.93 170.62,-249.8"/>
<polygon fill="black" stroke="black" points="172.46,-252.79 179.74,-245.09 169.25,-246.57 172.46,-252.79"/>
<g id="a_edge27&#45;headlabel"><a xlink:href="dir_000012_000017.html" target="_top" xlink:title="2">
<text text-anchor="middle" x="170.57" y="-254.46" font-family="Helvetica,sans-Serif" font-size="10.00">2</text>
</a>
</g>
</g>
<!-- dir_fa5f32c9390e3ea098144f298be2a395&#45;&gt;dir_9a5c88f87170865d940dc95c76676edb -->
<g id="edge30" class="edge">
<title>dir_fa5f32c9390e3ea098144f298be2a395&#45;&gt;dir_9a5c88f87170865d940dc95c76676edb</title>
<path fill="none" stroke="black" d="M257.82,-377.01C218.9,-374.96 156.87,-364.96 127,-324 77.78,-256.5 155.4,-160.06 198.02,-115.41"/>
<polygon fill="black" stroke="black" points="200.58,-117.81 205.04,-108.2 195.56,-112.93 200.58,-117.81"/>
<g id="a_edge30&#45;headlabel"><a xlink:href="dir_000012_000005.html" target="_top" xlink:title="2">
<text text-anchor="middle" x="200.1" y="-119.86" font-family="Helvetica,sans-Serif" font-size="10.00">2</text>
</a>
</g>
</g>
<!-- dir_fa5f32c9390e3ea098144f298be2a395&#45;&gt;dir_cabf3d63e98569a74ecb960b83c4a15b -->
<g id="edge31" class="edge">
<title>dir_fa5f32c9390e3ea098144f298be2a395&#45;&gt;dir_cabf3d63e98569a74ecb960b83c4a15b</title>
<path fill="none" stroke="black" d="M257.93,-375.88C180.91,-371.34 0,-348.59 0,-235 0,-235 0,-235 0,-161 0,-74.04 122.13,-38.02 185.63,-25.17"/>
<polygon fill="black" stroke="black" points="186.5,-28.57 195.66,-23.23 185.17,-21.69 186.5,-28.57"/>
<g id="a_edge31&#45;headlabel"><a xlink:href="dir_000012_000015.html" target="_top" xlink:title="2">
<text text-anchor="middle" x="183.51" y="-29.54" font-family="Helvetica,sans-Serif" font-size="10.00">2</text>
</a>
</g>
</g>
<!-- dir_fa5f32c9390e3ea098144f298be2a395&#45;&gt;dir_ce91f970b513fb5ff406625265505b14 -->
<g id="edge32" class="edge">
<title>dir_fa5f32c9390e3ea098144f298be2a395&#45;&gt;dir_ce91f970b513fb5ff406625265505b14</title>
<path fill="none" stroke="black" d="M321.09,-359.96C325.73,-357.28 330.49,-354.55 335,-352 357.51,-339.28 369.61,-344 386,-324 400.47,-306.35 407.49,-281.17 410.89,-262.09"/>
<polygon fill="black" stroke="black" points="414.34,-262.63 412.42,-252.21 407.43,-261.55 414.34,-262.63"/>
<g id="a_edge32&#45;headlabel"><a xlink:href="dir_000012_000003.html" target="_top" xlink:title="1">
<text text-anchor="middle" x="416.6" y="-264.11" font-family="Helvetica,sans-Serif" font-size="10.00">1</text>
</a>
</g>
</g>
<!-- dir_7e29431de6169dbb5f5ee7a990ed2b16 -->
<g id="node10" class="node">
<title>dir_7e29431de6169dbb5f5ee7a990ed2b16</title>
<g id="a_node10"><a xlink:href="dir_7e29431de6169dbb5f5ee7a990ed2b16.html" target="_top" xlink:title="Memory">
<polygon fill="none" stroke="black" points="347.5,-180 290.5,-180 290.5,-144 347.5,-144 347.5,-180"/>
<text text-anchor="middle" x="319" y="-159.5" font-family="Helvetica,sans-Serif" font-size="10.00">Memory</text>
</a>
</g>
</g>
<!-- dir_fa5f32c9390e3ea098144f298be2a395&#45;&gt;dir_7e29431de6169dbb5f5ee7a990ed2b16 -->
<g id="edge28" class="edge">
<title>dir_fa5f32c9390e3ea098144f298be2a395&#45;&gt;dir_7e29431de6169dbb5f5ee7a990ed2b16</title>
<path fill="none" stroke="black" d="M324.05,-359.88C337.12,-351.05 350.82,-338.97 358,-324 379.39,-279.39 354.42,-222.04 335.74,-189.21"/>
<polygon fill="black" stroke="black" points="338.54,-187.07 330.45,-180.24 332.52,-190.63 338.54,-187.07"/>
<g id="a_edge28&#45;headlabel"><a xlink:href="dir_000012_000006.html" target="_top" xlink:title="1">
<text text-anchor="middle" x="342.82" y="-186.22" font-family="Helvetica,sans-Serif" font-size="10.00">1</text>
</a>
</g>
</g>
<!-- dir_60d51ee7315d72413f26211ac43a217e&#45;&gt;dir_63ce3ba067bdf35a8f7c780ac03d51a3 -->
<g id="edge10" class="edge">
<title>dir_60d51ee7315d72413f26211ac43a217e&#45;&gt;dir_63ce3ba067bdf35a8f7c780ac03d51a3</title>
<path fill="none" stroke="black" d="M201.08,-287.7C200.29,-279.98 200.06,-270.71 200.4,-262.11"/>
<polygon fill="black" stroke="black" points="203.9,-262.32 201.1,-252.1 196.92,-261.84 203.9,-262.32"/>
<g id="a_edge10&#45;headlabel"><a xlink:href="dir_000004_000017.html" target="_top" xlink:title="1">
<text text-anchor="middle" x="206.48" y="-263.61" font-family="Helvetica,sans-Serif" font-size="10.00">1</text>
</a>
</g>
</g>
<!-- dir_60d51ee7315d72413f26211ac43a217e&#45;&gt;dir_ce91f970b513fb5ff406625265505b14 -->
<g id="edge11" class="edge">
<title>dir_60d51ee7315d72413f26211ac43a217e&#45;&gt;dir_ce91f970b513fb5ff406625265505b14</title>
<path fill="none" stroke="black" d="M225.8,-287.76C229.64,-284.86 233.8,-282.11 238,-280 282.78,-257.56 339.74,-245.64 376.53,-239.83"/>
<polygon fill="black" stroke="black" points="377.44,-243.23 386.8,-238.28 376.39,-236.31 377.44,-243.23"/>
<g id="a_edge11&#45;headlabel"><a xlink:href="dir_000004_000003.html" target="_top" xlink:title="2">
<text text-anchor="middle" x="374.31" y="-244.08" font-family="Helvetica,sans-Serif" font-size="10.00">2</text>
</a>
</g>
</g>
<!-- dir_63ce3ba067bdf35a8f7c780ac03d51a3&#45;&gt;dir_60d51ee7315d72413f26211ac43a217e -->
<g id="edge4" class="edge">
<title>dir_63ce3ba067bdf35a8f7c780ac03d51a3&#45;&gt;dir_60d51ee7315d72413f26211ac43a217e</title>
<path fill="none" stroke="black" d="M212.9,-252.1C213.7,-259.79 213.94,-269.05 213.6,-277.67"/>
<polygon fill="black" stroke="black" points="210.11,-277.48 212.92,-287.7 217.09,-277.96 210.11,-277.48"/>
<g id="a_edge4&#45;headlabel"><a xlink:href="dir_000017_000004.html" target="_top" xlink:title="3">
<text text-anchor="middle" x="207.52" y="-271.2" font-family="Helvetica,sans-Serif" font-size="10.00">3</text>
</a>
</g>
</g>
<!-- dir_63ce3ba067bdf35a8f7c780ac03d51a3&#45;&gt;dir_9a5c88f87170865d940dc95c76676edb -->
<g id="edge6" class="edge">
<title>dir_63ce3ba067bdf35a8f7c780ac03d51a3&#45;&gt;dir_9a5c88f87170865d940dc95c76676edb</title>
<path fill="none" stroke="black" d="M204.35,-215.87C204.51,-191.56 209.27,-146.82 214.52,-118.01"/>
<polygon fill="black" stroke="black" points="217.96,-118.68 216.47,-108.19 211.09,-117.32 217.96,-118.68"/>
<g id="a_edge6&#45;headlabel"><a xlink:href="dir_000017_000005.html" target="_top" xlink:title="2">
<text text-anchor="middle" x="220.05" y="-120.26" font-family="Helvetica,sans-Serif" font-size="10.00">2</text>
</a>
</g>
</g>
<!-- dir_63ce3ba067bdf35a8f7c780ac03d51a3&#45;&gt;dir_7e29431de6169dbb5f5ee7a990ed2b16 -->
<g id="edge5" class="edge">
<title>dir_63ce3ba067bdf35a8f7c780ac03d51a3&#45;&gt;dir_7e29431de6169dbb5f5ee7a990ed2b16</title>
<path fill="none" stroke="black" d="M234.11,-216.05C248.86,-206.84 267.29,-195.32 283.21,-185.37"/>
<polygon fill="black" stroke="black" points="285.12,-188.3 291.75,-180.03 281.41,-182.36 285.12,-188.3"/>
<g id="a_edge5&#45;headlabel"><a xlink:href="dir_000017_000006.html" target="_top" xlink:title="2">
<text text-anchor="middle" x="283.58" y="-190.11" font-family="Helvetica,sans-Serif" font-size="10.00">2</text>
</a>
</g>
</g>
<!-- dir_9a5c88f87170865d940dc95c76676edb&#45;&gt;dir_63ce3ba067bdf35a8f7c780ac03d51a3 -->
<g id="edge7" class="edge">
<title>dir_9a5c88f87170865d940dc95c76676edb&#45;&gt;dir_63ce3ba067bdf35a8f7c780ac03d51a3</title>
<path fill="none" stroke="black" d="M225.65,-108.19C225.48,-132.53 220.71,-177.28 215.46,-206.06"/>
<polygon fill="black" stroke="black" points="212.03,-205.38 213.51,-215.87 218.9,-206.74 212.03,-205.38"/>
<g id="a_edge7&#45;headlabel"><a xlink:href="dir_000005_000017.html" target="_top" xlink:title="1">
<text text-anchor="middle" x="209.94" y="-198.8" font-family="Helvetica,sans-Serif" font-size="10.00">1</text>
</a>
</g>
</g>
<!-- dir_9a5c88f87170865d940dc95c76676edb&#45;&gt;dir_cabf3d63e98569a74ecb960b83c4a15b -->
<g id="edge8" class="edge">
<title>dir_9a5c88f87170865d940dc95c76676edb&#45;&gt;dir_cabf3d63e98569a74ecb960b83c4a15b</title>
<path fill="none" stroke="black" d="M217.08,-71.7C216.29,-63.98 216.06,-54.71 216.4,-46.11"/>
<polygon fill="black" stroke="black" points="219.9,-46.32 217.1,-36.1 212.92,-45.84 219.9,-46.32"/>
<g id="a_edge8&#45;headlabel"><a xlink:href="dir_000005_000015.html" target="_top" xlink:title="1">
<text text-anchor="middle" x="222.48" y="-47.61" font-family="Helvetica,sans-Serif" font-size="10.00">1</text>
</a>
</g>
</g>
<!-- dir_cabf3d63e98569a74ecb960b83c4a15b&#45;&gt;dir_63ce3ba067bdf35a8f7c780ac03d51a3 -->
<g id="edge1" class="edge">
<title>dir_cabf3d63e98569a74ecb960b83c4a15b&#45;&gt;dir_63ce3ba067bdf35a8f7c780ac03d51a3</title>
<path fill="none" stroke="black" d="M207.39,-36.23C199.63,-45.97 191.05,-58.82 187,-72 172.96,-117.67 186.31,-173.51 196.91,-205.99"/>
<polygon fill="black" stroke="black" points="193.68,-207.34 200.22,-215.67 200.3,-205.07 193.68,-207.34"/>
<g id="a_edge1&#45;headlabel"><a xlink:href="dir_000015_000017.html" target="_top" xlink:title="2">
<text text-anchor="middle" x="189.83" y="-202.36" font-family="Helvetica,sans-Serif" font-size="10.00">2</text>
</a>
</g>
</g>
<!-- dir_cabf3d63e98569a74ecb960b83c4a15b&#45;&gt;dir_9a5c88f87170865d940dc95c76676edb -->
<g id="edge3" class="edge">
<title>dir_cabf3d63e98569a74ecb960b83c4a15b&#45;&gt;dir_9a5c88f87170865d940dc95c76676edb</title>
<path fill="none" stroke="black" d="M228.9,-36.1C229.7,-43.79 229.94,-53.05 229.6,-61.67"/>
<polygon fill="black" stroke="black" points="226.11,-61.48 228.92,-71.7 233.09,-61.96 226.11,-61.48"/>
<g id="a_edge3&#45;headlabel"><a xlink:href="dir_000015_000005.html" target="_top" xlink:title="4">
<text text-anchor="middle" x="223.52" y="-55.2" font-family="Helvetica,sans-Serif" font-size="10.00">4</text>
</a>
</g>
</g>
<!-- dir_cabf3d63e98569a74ecb960b83c4a15b&#45;&gt;dir_7e29431de6169dbb5f5ee7a990ed2b16 -->
<g id="edge2" class="edge">
<title>dir_cabf3d63e98569a74ecb960b83c4a15b&#45;&gt;dir_7e29431de6169dbb5f5ee7a990ed2b16</title>
<path fill="none" stroke="black" d="M234.69,-36.18C241.74,-46.54 250.9,-60.02 259,-72 273.41,-93.29 289.71,-117.48 301.68,-135.26"/>
<polygon fill="black" stroke="black" points="299.03,-137.58 307.52,-143.93 304.83,-133.68 299.03,-137.58"/>
<g id="a_edge2&#45;headlabel"><a xlink:href="dir_000015_000006.html" target="_top" xlink:title="3">
<text text-anchor="middle" x="294.67" y="-133.69" font-family="Helvetica,sans-Serif" font-size="10.00">3</text>
</a>
</g>
</g>
<!-- dir_ce91f970b513fb5ff406625265505b14&#45;&gt;dir_77968f70279e8f688919023f4af8a16f -->
<g id="edge12" class="edge">
<title>dir_ce91f970b513fb5ff406625265505b14&#45;&gt;dir_77968f70279e8f688919023f4af8a16f</title>
<path fill="none" stroke="black" d="M430.07,-215.7C437.94,-207.22 447.56,-196.86 456.17,-187.58"/>
<polygon fill="black" stroke="black" points="458.88,-189.81 463.12,-180.1 453.75,-185.05 458.88,-189.81"/>
<g id="a_edge12&#45;headlabel"><a xlink:href="dir_000003_000014.html" target="_top" xlink:title="1">
<text text-anchor="middle" x="458.51" y="-191.88" font-family="Helvetica,sans-Serif" font-size="10.00">1</text>
</a>
</g>
</g>
<!-- dir_ce91f970b513fb5ff406625265505b14&#45;&gt;dir_9a5c88f87170865d940dc95c76676edb -->
<g id="edge14" class="edge">
<title>dir_ce91f970b513fb5ff406625265505b14&#45;&gt;dir_9a5c88f87170865d940dc95c76676edb</title>
<path fill="none" stroke="black" d="M407.02,-215.98C398.11,-196.18 380.94,-163.71 357,-144 328.67,-120.67 288.8,-106.67 259.93,-98.98"/>
<polygon fill="black" stroke="black" points="260.76,-95.58 250.21,-96.51 259.04,-102.36 260.76,-95.58"/>
<g id="a_edge14&#45;headlabel"><a xlink:href="dir_000003_000005.html" target="_top" xlink:title="1">
<text text-anchor="middle" x="264.94" y="-91.21" font-family="Helvetica,sans-Serif" font-size="10.00">1</text>
</a>
</g>
</g>
<!-- dir_ce91f970b513fb5ff406625265505b14&#45;&gt;dir_cabf3d63e98569a74ecb960b83c4a15b -->
<g id="edge15" class="edge">
<title>dir_ce91f970b513fb5ff406625265505b14&#45;&gt;dir_cabf3d63e98569a74ecb960b83c4a15b</title>
<path fill="none" stroke="black" d="M411.53,-215.91C408.13,-196.92 400.55,-166.04 385,-144 351.78,-96.9 295.59,-59.29 258.9,-38.06"/>
<polygon fill="black" stroke="black" points="260.44,-34.91 250.02,-33.02 256.99,-41 260.44,-34.91"/>
<g id="a_edge15&#45;headlabel"><a xlink:href="dir_000003_000015.html" target="_top" xlink:title="2">
<text text-anchor="middle" x="264.97" y="-31.72" font-family="Helvetica,sans-Serif" font-size="10.00">2</text>
</a>
</g>
</g>
<!-- dir_ce91f970b513fb5ff406625265505b14&#45;&gt;dir_7e29431de6169dbb5f5ee7a990ed2b16 -->
<g id="edge13" class="edge">
<title>dir_ce91f970b513fb5ff406625265505b14&#45;&gt;dir_7e29431de6169dbb5f5ee7a990ed2b16</title>
<path fill="none" stroke="black" d="M390.52,-215.7C378.44,-206.8 363.55,-195.82 350.48,-186.2"/>
<polygon fill="black" stroke="black" points="352.34,-183.22 342.21,-180.1 348.19,-188.85 352.34,-183.22"/>
<g id="a_edge13&#45;headlabel"><a xlink:href="dir_000003_000006.html" target="_top" xlink:title="1">
<text text-anchor="middle" x="356.92" y="-180.57" font-family="Helvetica,sans-Serif" font-size="10.00">1</text>
</a>
</g>
</g>
<!-- dir_7e29431de6169dbb5f5ee7a990ed2b16&#45;&gt;dir_9a5c88f87170865d940dc95c76676edb -->
<g id="edge9" class="edge">
<title>dir_7e29431de6169dbb5f5ee7a990ed2b16&#45;&gt;dir_9a5c88f87170865d940dc95c76676edb</title>
<path fill="none" stroke="black" d="M295.27,-143.7C283.06,-134.8 268.01,-123.82 254.82,-114.2"/>
<polygon fill="black" stroke="black" points="256.6,-111.17 246.46,-108.1 252.48,-116.82 256.6,-111.17"/>
<g id="a_edge9&#45;headlabel"><a xlink:href="dir_000006_000005.html" target="_top" xlink:title="1">
<text text-anchor="middle" x="261.18" y="-108.49" font-family="Helvetica,sans-Serif" font-size="10.00">1</text>
</a>
</g>
</g>
</g>
</svg>
