<?xml version="1.0" encoding="UTF-8" standalone="no"?>
<!DOCTYPE svg PUBLIC "-//W3C//DTD SVG 1.1//EN"
 "http://www.w3.org/Graphics/SVG/1.1/DTD/svg11.dtd">
<!-- Generated by graphviz version 2.43.0 (0)
 -->
<!-- Title: VortexEngine/src/Menus/MenuList/EditorConnection.cpp Pages: 1 -->
<!--zoomable 375 -->
<svg id="main" version="1.1" xmlns="http://www.w3.org/2000/svg" xmlns:xlink="http://www.w3.org/1999/xlink" xml:space="preserve" onload="init(evt)">
<style type="text/css"><![CDATA[
.edge:hover path { stroke: red; }
.edge:hover polygon { stroke: red; fill: red; }
]]></style>
<script type="text/javascript"><![CDATA[
var edges = document.getElementsByTagName('g');
if (edges && edges.length) {
  for (var i=0;i<edges.length;i++) {
    if (edges[i].id.substr(0,4)=='edge') {
      edges[i].setAttribute('class','edge');
    }
  }
}
]]></script>
        <defs>
                <circle id="rim" cx="0" cy="0" r="7"/>
                <circle id="rim2" cx="0" cy="0" r="3.5"/>
                <g id="zoomPlus">
                        <use xlink:href="#rim" fill="#404040">
                                <set attributeName="fill" to="#808080" begin="zoomplus.mouseover" end="zoomplus.mouseout"/>
                        </use>
                        <path d="M-4,0h8M0,-4v8" fill="none" stroke="white" stroke-width="1.5" pointer-events="none"/>
                </g>
                <g id="zoomMin">
                        <use xlink:href="#rim" fill="#404040">
                                <set attributeName="fill" to="#808080" begin="zoomminus.mouseover" end="zoomminus.mouseout"/>
                        </use>
                        <path d="M-4,0h8" fill="none" stroke="white" stroke-width="1.5" pointer-events="none"/>
                </g>
                <g id="dirArrow">
                        <path fill="none" stroke="white" stroke-width="1.5" d="M0,-3.0v7 M-2.5,-0.5L0,-3.0L2.5,-0.5"/>
                </g>
               <g id="resetDef">
                       <use xlink:href="#rim2" fill="#404040">
                               <set attributeName="fill" to="#808080" begin="reset.mouseover" end="reset.mouseout"/>
                       </use>
               </g>
        </defs>

<script type="text/javascript">
var viewWidth = 1540;
var viewHeight = 375;
var sectionId = 'dynsection-0';
</script>
<script xlink:href="svgpan.js"/>
<svg id="graph" class="graph">
<g id="viewport">
<title>VortexEngine/src/Menus/MenuList/EditorConnection.cpp</title>
<!-- Node1 -->
<g id="node1" class="node">
<title>Node1</title>
<g id="a_node1"><a xlink:title=" ">
<polygon fill="#bfbfbf" stroke="black" points="718,-336.5 718,-366.5 888,-366.5 888,-336.5 718,-336.5"/>
<text text-anchor="start" x="726" y="-354.5" font-family="Helvetica,sans-Serif" font-size="10.00">VortexEngine/src/Menus</text>
<text text-anchor="middle" x="803" y="-343.5" font-family="Helvetica,sans-Serif" font-size="10.00">/MenuList/EditorConnection.cpp</text>
</a>
</g>
</g>
<!-- Node2 -->
<g id="node2" class="node">
<title>Node2</title>
<g id="a_node2"><a xlink:href="EditorConnection_8h.html" target="_top" xlink:title=" ">
<polygon fill="none" stroke="black" points="665.5,-280.5 665.5,-299.5 774.5,-299.5 774.5,-280.5 665.5,-280.5"/>
<text text-anchor="middle" x="720" y="-287.5" font-family="Helvetica,sans-Serif" font-size="10.00">EditorConnection.h</text>
</a>
</g>
</g>
<!-- Node1&#45;&gt;Node2 -->
<g id="edge1" class="edge">
<title>Node1&#45;&gt;Node2</title>
<path fill="none" stroke="midnightblue" d="M783.33,-336.4C770.4,-327.13 753.51,-315.03 740.43,-305.65"/>
<polygon fill="midnightblue" stroke="midnightblue" points="742.24,-302.64 732.08,-299.66 738.17,-308.33 742.24,-302.64"/>
</g>
<!-- Node10 -->
<g id="node10" class="node">
<title>Node10</title>
<g id="a_node10"><a xlink:href="Mode_8h.html" target="_top" xlink:title=" ">
<polygon fill="none" stroke="black" points="584.5,-168.5 584.5,-187.5 681.5,-187.5 681.5,-168.5 584.5,-168.5"/>
<text text-anchor="middle" x="633" y="-175.5" font-family="Helvetica,sans-Serif" font-size="10.00">../Modes/Mode.h</text>
</a>
</g>
</g>
<!-- Node1&#45;&gt;Node10 -->
<g id="edge57" class="edge">
<title>Node1&#45;&gt;Node10</title>
<path fill="none" stroke="midnightblue" d="M717.94,-343.84C647.97,-336.79 555.81,-323.35 527,-300 499.58,-277.78 483.56,-252.77 504,-224 513.62,-210.46 551.3,-198.27 583.48,-190"/>
<polygon fill="midnightblue" stroke="midnightblue" points="584.39,-193.38 593.25,-187.57 582.7,-186.59 584.39,-193.38"/>
</g>
<!-- Node12 -->
<g id="node12" class="node">
<title>Node12</title>
<g id="a_node12"><a xlink:href="ByteStream_8h.html" target="_top" xlink:title=" ">
<polygon fill="none" stroke="black" points="869,-224.5 869,-243.5 1001,-243.5 1001,-224.5 869,-224.5"/>
<text text-anchor="middle" x="935" y="-231.5" font-family="Helvetica,sans-Serif" font-size="10.00">../../Serial/ByteStream.h</text>
</a>
</g>
</g>
<!-- Node1&#45;&gt;Node12 -->
<g id="edge29" class="edge">
<title>Node1&#45;&gt;Node12</title>
<path fill="none" stroke="midnightblue" d="M882.87,-336.43C921.7,-327.8 962.46,-315.44 974,-300 986.03,-283.9 969.83,-263.88 954.8,-250.34"/>
<polygon fill="midnightblue" stroke="midnightblue" points="956.65,-247.33 946.75,-243.56 952.14,-252.68 956.65,-247.33"/>
</g>
<!-- Node13 -->
<g id="node13" class="node">
<title>Node13</title>
<g id="a_node13"><a xlink:href="Log_8h.html" target="_top" xlink:title=" ">
<polygon fill="none" stroke="black" points="755,-168.5 755,-187.5 827,-187.5 827,-168.5 755,-168.5"/>
<text text-anchor="middle" x="791" y="-175.5" font-family="Helvetica,sans-Serif" font-size="10.00">../Log/Log.h</text>
</a>
</g>
</g>
<!-- Node1&#45;&gt;Node13 -->
<g id="edge59" class="edge">
<title>Node1&#45;&gt;Node13</title>
<path fill="none" stroke="midnightblue" d="M802.02,-336.47C799.87,-305.7 794.73,-232.33 792.31,-197.7"/>
<polygon fill="midnightblue" stroke="midnightblue" points="795.79,-197.29 791.6,-187.56 788.81,-197.78 795.79,-197.29"/>
</g>
<!-- Node15 -->
<g id="node15" class="node">
<title>Node15</title>
<g id="a_node15"><a xlink:href="PatternArgs_8h.html" target="_top" xlink:title=" ">
<polygon fill="none" stroke="black" points="1151.5,-224.5 1151.5,-243.5 1294.5,-243.5 1294.5,-224.5 1151.5,-224.5"/>
<text text-anchor="middle" x="1223" y="-231.5" font-family="Helvetica,sans-Serif" font-size="10.00">../../Patterns/PatternArgs.h</text>
</a>
</g>
</g>
<!-- Node1&#45;&gt;Node15 -->
<g id="edge27" class="edge">
<title>Node1&#45;&gt;Node15</title>
<path fill="none" stroke="midnightblue" d="M856.12,-336.39C893.8,-326.35 945.54,-312.47 991,-300 1058.5,-281.48 1136.89,-259.4 1183.09,-246.32"/>
<polygon fill="midnightblue" stroke="midnightblue" points="1184.33,-249.61 1193,-243.52 1182.42,-242.87 1184.33,-249.61"/>
</g>
<!-- Node16 -->
<g id="node16" class="node">
<title>Node16</title>
<g id="a_node16"><a xlink:href="Serial_8h.html" target="_top" xlink:title=" ">
<polygon fill="none" stroke="black" points="1241,-112.5 1241,-131.5 1343,-131.5 1343,-112.5 1241,-112.5"/>
<text text-anchor="middle" x="1292" y="-119.5" font-family="Helvetica,sans-Serif" font-size="10.00">../../Serial/Serial.h</text>
</a>
</g>
</g>
<!-- Node1&#45;&gt;Node16 -->
<g id="edge30" class="edge">
<title>Node1&#45;&gt;Node16</title>
<path fill="none" stroke="midnightblue" d="M888.01,-344.97C1016.78,-334.62 1251.75,-307.36 1303,-244 1326.78,-214.59 1311.86,-167.03 1300.78,-141.16"/>
<polygon fill="midnightblue" stroke="midnightblue" points="1303.85,-139.46 1296.53,-131.81 1297.48,-142.36 1303.85,-139.46"/>
</g>
<!-- Node17 -->
<g id="node17" class="node">
<title>Node17</title>
<g id="a_node17"><a xlink:href="Storage_8h.html" target="_top" xlink:title=" ">
<polygon fill="none" stroke="black" points="1338,-280.5 1338,-299.5 1460,-299.5 1460,-280.5 1338,-280.5"/>
<text text-anchor="middle" x="1399" y="-287.5" font-family="Helvetica,sans-Serif" font-size="10.00">../../Storage/Storage.h</text>
</a>
</g>
</g>
<!-- Node1&#45;&gt;Node17 -->
<g id="edge32" class="edge">
<title>Node1&#45;&gt;Node17</title>
<path fill="none" stroke="midnightblue" d="M888.34,-342.83C991.59,-333.41 1170.64,-316.63 1324,-300 1325.11,-299.88 1326.23,-299.76 1327.35,-299.63"/>
<polygon fill="midnightblue" stroke="midnightblue" points="1328.07,-303.08 1337.62,-298.48 1327.29,-296.12 1328.07,-303.08"/>
</g>
<!-- Node18 -->
<g id="node18" class="node">
<title>Node18</title>
<g id="a_node18"><a xlink:href="VLSender_8h.html" target="_top" xlink:title=" ">
<polygon fill="none" stroke="black" points="831,-280.5 831,-299.5 965,-299.5 965,-280.5 831,-280.5"/>
<text text-anchor="middle" x="898" y="-287.5" font-family="Helvetica,sans-Serif" font-size="10.00">../../Wireless/VLSender.h</text>
</a>
</g>
</g>
<!-- Node1&#45;&gt;Node18 -->
<g id="edge34" class="edge">
<title>Node1&#45;&gt;Node18</title>
<path fill="none" stroke="midnightblue" d="M825.51,-336.4C840.6,-326.95 860.39,-314.56 875.47,-305.11"/>
<polygon fill="midnightblue" stroke="midnightblue" points="877.56,-307.93 884.18,-299.66 873.84,-302 877.56,-307.93"/>
</g>
<!-- Node21 -->
<g id="node21" class="node">
<title>Node21</title>
<g id="a_node21"><a xlink:href="TimeControl_8h.html" target="_top" xlink:title=" ">
<polygon fill="none" stroke="black" points="334.5,-168.5 334.5,-187.5 465.5,-187.5 465.5,-168.5 334.5,-168.5"/>
<text text-anchor="middle" x="400" y="-175.5" font-family="Helvetica,sans-Serif" font-size="10.00">../../Time/TimeControl.h</text>
</a>
</g>
</g>
<!-- Node1&#45;&gt;Node21 -->
<g id="edge40" class="edge">
<title>Node1&#45;&gt;Node21</title>
<path fill="none" stroke="midnightblue" d="M717.63,-344.44C636.96,-337.4 522.82,-323.6 485,-300 445.2,-275.16 418.91,-224.13 407.12,-196.95"/>
<polygon fill="midnightblue" stroke="midnightblue" points="410.27,-195.4 403.2,-187.51 403.8,-198.09 410.27,-195.4"/>
</g>
<!-- Node22 -->
<g id="node22" class="node">
<title>Node22</title>
<g id="a_node22"><a xlink:href="Colorset_8h.html" target="_top" xlink:title=" ">
<polygon fill="none" stroke="black" points="0,-168.5 0,-187.5 118,-187.5 118,-168.5 0,-168.5"/>
<text text-anchor="middle" x="59" y="-175.5" font-family="Helvetica,sans-Serif" font-size="10.00">../../Colors/Colorset.h</text>
</a>
</g>
</g>
<!-- Node1&#45;&gt;Node22 -->
<g id="edge44" class="edge">
<title>Node1&#45;&gt;Node22</title>
<path fill="none" stroke="midnightblue" d="M717.89,-343.13C561.29,-328.58 234.14,-293.22 132,-244 108.01,-232.44 86,-210.62 72.56,-195.47"/>
<polygon fill="midnightblue" stroke="midnightblue" points="75.18,-193.16 66.01,-187.85 69.87,-197.72 75.18,-193.16"/>
</g>
<!-- Node23 -->
<g id="node23" class="node">
<title>Node23</title>
<g id="a_node23"><a xlink:href="Modes_8h.html" target="_top" xlink:title=" ">
<polygon fill="none" stroke="black" points="536.5,-280.5 536.5,-299.5 647.5,-299.5 647.5,-280.5 536.5,-280.5"/>
<text text-anchor="middle" x="592" y="-287.5" font-family="Helvetica,sans-Serif" font-size="10.00">../../Modes/Modes.h</text>
</a>
</g>
</g>
<!-- Node1&#45;&gt;Node23 -->
<g id="edge47" class="edge">
<title>Node1&#45;&gt;Node23</title>
<path fill="none" stroke="midnightblue" d="M753.26,-336.47C716.23,-326.03 666.32,-311.96 631.88,-302.25"/>
<polygon fill="midnightblue" stroke="midnightblue" points="632.74,-298.85 622.17,-299.51 630.84,-305.59 632.74,-298.85"/>
</g>
<!-- Node24 -->
<g id="node24" class="node">
<title>Node24</title>
<g id="a_node24"><a xlink:href="Leds_8h.html" target="_top" xlink:title=" ">
<polygon fill="none" stroke="black" points="483.5,-168.5 483.5,-187.5 566.5,-187.5 566.5,-168.5 483.5,-168.5"/>
<text text-anchor="middle" x="525" y="-175.5" font-family="Helvetica,sans-Serif" font-size="10.00">../Leds/Leds.h</text>
</a>
</g>
</g>
<!-- Node1&#45;&gt;Node24 -->
<g id="edge58" class="edge">
<title>Node1&#45;&gt;Node24</title>
<path fill="none" stroke="midnightblue" d="M717.91,-346.76C640.17,-341.52 532.9,-329.1 503,-300 478.54,-276.2 481.38,-256.44 492,-224 495.49,-213.34 502.57,-203.12 509.29,-195.12"/>
<polygon fill="midnightblue" stroke="midnightblue" points="511.9,-197.44 515.98,-187.66 506.7,-192.76 511.9,-197.44"/>
</g>
<!-- Node25 -->
<g id="node25" class="node">
<title>Node25</title>
<g id="a_node25"><a xlink:title=" ">
<polygon fill="none" stroke="#bfbfbf" points="1478.5,-280.5 1478.5,-299.5 1531.5,-299.5 1531.5,-280.5 1478.5,-280.5"/>
<text text-anchor="middle" x="1505" y="-287.5" font-family="Helvetica,sans-Serif" font-size="10.00">string.h</text>
</a>
</g>
</g>
<!-- Node1&#45;&gt;Node25 -->
<g id="edge60" class="edge">
<title>Node1&#45;&gt;Node25</title>
<path fill="none" stroke="midnightblue" d="M888.17,-348.65C1013.37,-344.91 1254.41,-333.81 1468.21,-299.83"/>
<polygon fill="midnightblue" stroke="midnightblue" points="1469.05,-303.24 1478.37,-298.19 1467.94,-296.33 1469.05,-303.24"/>
</g>
<!-- Node3 -->
<g id="node3" class="node">
<title>Node3</title>
<g id="a_node3"><a xlink:href="Menu_8h.html" target="_top" xlink:title=" ">
<polygon fill="none" stroke="black" points="675,-224.5 675,-243.5 737,-243.5 737,-224.5 675,-224.5"/>
<text text-anchor="middle" x="706" y="-231.5" font-family="Helvetica,sans-Serif" font-size="10.00">../Menu.h</text>
</a>
</g>
</g>
<!-- Node2&#45;&gt;Node3 -->
<g id="edge2" class="edge">
<title>Node2&#45;&gt;Node3</title>
<path fill="none" stroke="midnightblue" d="M717.69,-280.08C715.83,-272.93 713.16,-262.64 710.85,-253.69"/>
<polygon fill="midnightblue" stroke="midnightblue" points="714.17,-252.55 708.27,-243.75 707.39,-254.31 714.17,-252.55"/>
</g>
<!-- Node2&#45;&gt;Node10 -->
<g id="edge26" class="edge">
<title>Node2&#45;&gt;Node10</title>
<path fill="none" stroke="midnightblue" d="M706.69,-280.26C694.88,-272 677.71,-258.7 666,-244 654.56,-229.65 645.49,-210.69 639.78,-196.96"/>
<polygon fill="midnightblue" stroke="midnightblue" points="643.02,-195.64 636.08,-187.64 636.51,-198.22 643.02,-195.64"/>
</g>
<!-- Node2&#45;&gt;Node12 -->
<g id="edge18" class="edge">
<title>Node2&#45;&gt;Node12</title>
<path fill="none" stroke="midnightblue" d="M754.07,-280.44C791.18,-271.12 850.66,-256.18 891.21,-246"/>
<polygon fill="midnightblue" stroke="midnightblue" points="892.25,-249.35 901.09,-243.52 890.54,-242.56 892.25,-249.35"/>
</g>
<!-- Node4 -->
<g id="node4" class="node">
<title>Node4</title>
<g id="a_node4"><a xlink:title=" ">
<polygon fill="none" stroke="#bfbfbf" points="947.5,-56.5 947.5,-75.5 1012.5,-75.5 1012.5,-56.5 947.5,-56.5"/>
<text text-anchor="middle" x="980" y="-63.5" font-family="Helvetica,sans-Serif" font-size="10.00">inttypes.h</text>
</a>
</g>
</g>
<!-- Node3&#45;&gt;Node4 -->
<g id="edge3" class="edge">
<title>Node3&#45;&gt;Node4</title>
<path fill="none" stroke="midnightblue" d="M737.33,-229.63C791.09,-222.15 900.84,-199.1 960,-132 971.34,-119.14 976.25,-99.96 978.37,-85.77"/>
<polygon fill="midnightblue" stroke="midnightblue" points="981.87,-86 979.55,-75.67 974.92,-85.19 981.87,-86"/>
</g>
<!-- Node5 -->
<g id="node5" class="node">
<title>Node5</title>
<g id="a_node5"><a xlink:href="ColorTypes_8h.html" target="_top" xlink:title=" ">
<polygon fill="none" stroke="black" points="212,-112.5 212,-131.5 334,-131.5 334,-112.5 212,-112.5"/>
<text text-anchor="middle" x="273" y="-119.5" font-family="Helvetica,sans-Serif" font-size="10.00">../Colors/ColorTypes.h</text>
</a>
</g>
</g>
<!-- Node3&#45;&gt;Node5 -->
<g id="edge4" class="edge">
<title>Node3&#45;&gt;Node5</title>
<path fill="none" stroke="midnightblue" d="M674.96,-230.69C589.55,-224.15 355.39,-204.87 325,-188 305.51,-177.18 290.63,-155.81 281.88,-140.52"/>
<polygon fill="midnightblue" stroke="midnightblue" points="284.86,-138.67 277.03,-131.53 278.7,-141.99 284.86,-138.67"/>
</g>
<!-- Node8 -->
<g id="node8" class="node">
<title>Node8</title>
<g id="a_node8"><a xlink:href="LedTypes_8h.html" target="_top" xlink:title=" ">
<polygon fill="none" stroke="black" points="466.5,-112.5 466.5,-131.5 571.5,-131.5 571.5,-112.5 466.5,-112.5"/>
<text text-anchor="middle" x="519" y="-119.5" font-family="Helvetica,sans-Serif" font-size="10.00">../Leds/LedTypes.h</text>
</a>
</g>
</g>
<!-- Node3&#45;&gt;Node8 -->
<g id="edge9" class="edge">
<title>Node3&#45;&gt;Node8</title>
<path fill="none" stroke="midnightblue" d="M706.47,-224.08C706.7,-210.15 705,-183.24 690,-168 674.75,-152.5 624.03,-140.38 581.75,-132.64"/>
<polygon fill="midnightblue" stroke="midnightblue" points="582.23,-129.17 571.77,-130.86 581,-136.06 582.23,-129.17"/>
</g>
<!-- Node3&#45;&gt;Node10 -->
<g id="edge13" class="edge">
<title>Node3&#45;&gt;Node10</title>
<path fill="none" stroke="midnightblue" d="M694.27,-224.32C683.16,-216.11 666.26,-203.6 653.02,-193.81"/>
<polygon fill="midnightblue" stroke="midnightblue" points="655.06,-190.97 644.94,-187.83 650.9,-196.59 655.06,-190.97"/>
</g>
<!-- Node5&#45;&gt;Node4 -->
<g id="edge5" class="edge">
<title>Node5&#45;&gt;Node4</title>
<path fill="none" stroke="midnightblue" d="M334.28,-116.08C351.05,-114.74 369.22,-113.3 386,-112 592.68,-95.94 839.87,-77.44 937.42,-70.17"/>
<polygon fill="midnightblue" stroke="midnightblue" points="937.77,-73.65 947.48,-69.42 937.25,-66.67 937.77,-73.65"/>
</g>
<!-- Node6 -->
<g id="node6" class="node">
<title>Node6</title>
<g id="a_node6"><a xlink:href="VortexConfig_8h.html" target="_top" xlink:title=" ">
<polygon fill="none" stroke="black" points="307.5,-56.5 307.5,-75.5 404.5,-75.5 404.5,-56.5 307.5,-56.5"/>
<text text-anchor="middle" x="356" y="-63.5" font-family="Helvetica,sans-Serif" font-size="10.00">../VortexConfig.h</text>
</a>
</g>
</g>
<!-- Node5&#45;&gt;Node6 -->
<g id="edge6" class="edge">
<title>Node5&#45;&gt;Node6</title>
<path fill="none" stroke="midnightblue" d="M286.34,-112.32C299.16,-103.98 318.78,-91.21 333.94,-81.35"/>
<polygon fill="midnightblue" stroke="midnightblue" points="336.22,-84.04 342.7,-75.65 332.41,-78.17 336.22,-84.04"/>
</g>
<!-- Node7 -->
<g id="node7" class="node">
<title>Node7</title>
<g id="a_node7"><a xlink:href="ColorConstants_8h.html" target="_top" xlink:title=" ">
<polygon fill="none" stroke="black" points="249,-0.5 249,-19.5 383,-19.5 383,-0.5 249,-0.5"/>
<text text-anchor="middle" x="316" y="-7.5" font-family="Helvetica,sans-Serif" font-size="10.00">Colors/ColorConstants.h</text>
</a>
</g>
</g>
<!-- Node5&#45;&gt;Node7 -->
<g id="edge8" class="edge">
<title>Node5&#45;&gt;Node7</title>
<path fill="none" stroke="midnightblue" d="M276.36,-112.15C281.12,-99.63 290.14,-76.03 298,-56 301.5,-47.08 305.45,-37.19 308.75,-28.95"/>
<polygon fill="midnightblue" stroke="midnightblue" points="312.03,-30.2 312.52,-19.61 305.53,-27.58 312.03,-30.2"/>
</g>
<!-- Node6&#45;&gt;Node7 -->
<g id="edge7" class="edge">
<title>Node6&#45;&gt;Node7</title>
<path fill="none" stroke="midnightblue" d="M349.39,-56.08C343.74,-48.46 335.46,-37.26 328.55,-27.94"/>
<polygon fill="midnightblue" stroke="midnightblue" points="331.25,-25.7 322.48,-19.75 325.62,-29.87 331.25,-25.7"/>
</g>
<!-- Node8&#45;&gt;Node4 -->
<g id="edge10" class="edge">
<title>Node8&#45;&gt;Node4</title>
<path fill="none" stroke="midnightblue" d="M571.88,-114.81C664.17,-104 852.85,-81.89 937.38,-71.99"/>
<polygon fill="midnightblue" stroke="midnightblue" points="937.88,-75.46 947.4,-70.82 937.06,-68.51 937.88,-75.46"/>
</g>
<!-- Node8&#45;&gt;Node6 -->
<g id="edge12" class="edge">
<title>Node8&#45;&gt;Node6</title>
<path fill="none" stroke="midnightblue" d="M493.17,-112.44C465.75,-103.36 422.22,-88.94 391.57,-78.78"/>
<polygon fill="midnightblue" stroke="midnightblue" points="392.3,-75.34 381.71,-75.52 390.1,-81.98 392.3,-75.34"/>
</g>
<!-- Node9 -->
<g id="node9" class="node">
<title>Node9</title>
<g id="a_node9"><a xlink:title=" ">
<polygon fill="none" stroke="#bfbfbf" points="634,-56.5 634,-75.5 690,-75.5 690,-56.5 634,-56.5"/>
<text text-anchor="middle" x="662" y="-63.5" font-family="Helvetica,sans-Serif" font-size="10.00">stdarg.h</text>
</a>
</g>
</g>
<!-- Node8&#45;&gt;Node9 -->
<g id="edge11" class="edge">
<title>Node8&#45;&gt;Node9</title>
<path fill="none" stroke="midnightblue" d="M541.66,-112.44C565.4,-103.48 602.91,-89.31 629.74,-79.18"/>
<polygon fill="midnightblue" stroke="midnightblue" points="631.33,-82.32 639.45,-75.52 628.86,-75.77 631.33,-82.32"/>
</g>
<!-- Node10&#45;&gt;Node6 -->
<g id="edge17" class="edge">
<title>Node10&#45;&gt;Node6</title>
<path fill="none" stroke="midnightblue" d="M584.18,-168.9C548.06,-161.87 498.2,-149.96 457,-132 426.33,-118.63 394.44,-96.49 374.9,-81.82"/>
<polygon fill="midnightblue" stroke="midnightblue" points="376.91,-78.96 366.84,-75.67 372.66,-84.52 376.91,-78.96"/>
</g>
<!-- Node10&#45;&gt;Node8 -->
<g id="edge14" class="edge">
<title>Node10&#45;&gt;Node8</title>
<path fill="none" stroke="midnightblue" d="M614.94,-168.44C596.43,-159.68 567.42,-145.94 546.14,-135.86"/>
<polygon fill="midnightblue" stroke="midnightblue" points="547.51,-132.63 536.98,-131.52 544.52,-138.96 547.51,-132.63"/>
</g>
<!-- Node11 -->
<g id="node11" class="node">
<title>Node11</title>
<g id="a_node11"><a xlink:href="Patterns_8h.html" target="_top" xlink:title=" ">
<polygon fill="none" stroke="black" points="834.5,-112.5 834.5,-131.5 951.5,-131.5 951.5,-112.5 834.5,-112.5"/>
<text text-anchor="middle" x="893" y="-119.5" font-family="Helvetica,sans-Serif" font-size="10.00">../Patterns/Patterns.h</text>
</a>
</g>
</g>
<!-- Node10&#45;&gt;Node11 -->
<g id="edge15" class="edge">
<title>Node10&#45;&gt;Node11</title>
<path fill="none" stroke="midnightblue" d="M674.2,-168.44C719.65,-159 792.84,-143.8 841.91,-133.61"/>
<polygon fill="midnightblue" stroke="midnightblue" points="842.92,-136.98 851.99,-131.52 841.49,-130.12 842.92,-136.98"/>
</g>
<!-- Node11&#45;&gt;Node4 -->
<g id="edge16" class="edge">
<title>Node11&#45;&gt;Node4</title>
<path fill="none" stroke="midnightblue" d="M906.98,-112.32C920.55,-103.9 941.38,-90.97 957.32,-81.07"/>
<polygon fill="midnightblue" stroke="midnightblue" points="959.41,-83.9 966.06,-75.65 955.71,-77.95 959.41,-83.9"/>
</g>
<!-- Node12&#45;&gt;Node4 -->
<g id="edge19" class="edge">
<title>Node12&#45;&gt;Node4</title>
<path fill="none" stroke="midnightblue" d="M949.16,-224.33C972.36,-209.1 1017.38,-175.05 1032,-132 1034.86,-123.58 1035.7,-120.08 1032,-112 1026.22,-99.36 1014.95,-88.91 1004.37,-81.27"/>
<polygon fill="midnightblue" stroke="midnightblue" points="1006.04,-78.18 995.78,-75.53 1002.15,-84 1006.04,-78.18"/>
</g>
<!-- Node12&#45;&gt;Node13 -->
<g id="edge20" class="edge">
<title>Node12&#45;&gt;Node13</title>
<path fill="none" stroke="midnightblue" d="M912.18,-224.44C888.17,-215.44 850.17,-201.19 823.13,-191.05"/>
<polygon fill="midnightblue" stroke="midnightblue" points="824.3,-187.75 813.71,-187.52 821.84,-194.3 824.3,-187.75"/>
</g>
<!-- Node13&#45;&gt;Node6 -->
<g id="edge22" class="edge">
<title>Node13&#45;&gt;Node6</title>
<path fill="none" stroke="midnightblue" d="M754.71,-169.92C719.4,-162.46 664.56,-149.4 619,-132 600.8,-125.05 598.39,-118.42 580,-112 525.52,-92.97 460.61,-81.03 414.72,-74.28"/>
<polygon fill="midnightblue" stroke="midnightblue" points="415.05,-70.79 404.65,-72.83 414.05,-77.72 415.05,-70.79"/>
</g>
<!-- Node13&#45;&gt;Node9 -->
<g id="edge21" class="edge">
<title>Node13&#45;&gt;Node9</title>
<path fill="none" stroke="midnightblue" d="M787.09,-168.43C780.61,-154.96 766.48,-128.68 748,-112 732.63,-98.13 712.2,-87.2 695.11,-79.59"/>
<polygon fill="midnightblue" stroke="midnightblue" points="696.07,-76.2 685.49,-75.5 693.32,-82.64 696.07,-76.2"/>
</g>
<!-- Node14 -->
<g id="node14" class="node">
<title>Node14</title>
<g id="a_node14"><a xlink:href="ErrorBlinker_8h.html" target="_top" xlink:title=" ">
<polygon fill="none" stroke="black" points="628.5,-112.5 628.5,-131.5 739.5,-131.5 739.5,-112.5 628.5,-112.5"/>
<text text-anchor="middle" x="684" y="-119.5" font-family="Helvetica,sans-Serif" font-size="10.00">../Log/ErrorBlinker.h</text>
</a>
</g>
</g>
<!-- Node13&#45;&gt;Node14 -->
<g id="edge23" class="edge">
<title>Node13&#45;&gt;Node14</title>
<path fill="none" stroke="midnightblue" d="M773.81,-168.32C756.65,-159.66 730.05,-146.24 710.25,-136.25"/>
<polygon fill="midnightblue" stroke="midnightblue" points="711.65,-133.04 701.15,-131.65 708.5,-139.28 711.65,-133.04"/>
</g>
<!-- Node14&#45;&gt;Node4 -->
<g id="edge24" class="edge">
<title>Node14&#45;&gt;Node4</title>
<path fill="none" stroke="midnightblue" d="M730.9,-112.44C787.72,-102.08 882.61,-84.77 937.42,-74.77"/>
<polygon fill="midnightblue" stroke="midnightblue" points="938.28,-78.17 947.49,-72.93 937.02,-71.28 938.28,-78.17"/>
</g>
<!-- Node14&#45;&gt;Node6 -->
<g id="edge25" class="edge">
<title>Node14&#45;&gt;Node6</title>
<path fill="none" stroke="midnightblue" d="M632.03,-112.44C572.82,-102.7 476.31,-86.81 414.51,-76.63"/>
<polygon fill="midnightblue" stroke="midnightblue" points="414.96,-73.16 404.52,-74.99 413.82,-80.07 414.96,-73.16"/>
</g>
<!-- Node15&#45;&gt;Node4 -->
<g id="edge28" class="edge">
<title>Node15&#45;&gt;Node4</title>
<path fill="none" stroke="midnightblue" d="M1213.33,-224.38C1189.66,-203.52 1126.43,-149.27 1068,-112 1048.96,-99.85 1026.23,-88.3 1008.65,-79.94"/>
<polygon fill="midnightblue" stroke="midnightblue" points="1010,-76.71 999.46,-75.65 1007.04,-83.05 1010,-76.71"/>
</g>
<!-- Node16&#45;&gt;Node4 -->
<g id="edge31" class="edge">
<title>Node16&#45;&gt;Node4</title>
<path fill="none" stroke="midnightblue" d="M1242.56,-112.44C1182.06,-101.97 1080.61,-84.41 1023.14,-74.47"/>
<polygon fill="midnightblue" stroke="midnightblue" points="1023.39,-70.96 1012.94,-72.7 1022.19,-77.85 1023.39,-70.96"/>
</g>
<!-- Node17&#45;&gt;Node4 -->
<g id="edge33" class="edge">
<title>Node17&#45;&gt;Node4</title>
<path fill="none" stroke="midnightblue" d="M1399.74,-280.29C1401.67,-251.21 1403.58,-156.86 1352,-112 1303.71,-70 1109.91,-65.98 1022.79,-66.37"/>
<polygon fill="midnightblue" stroke="midnightblue" points="1022.69,-62.87 1012.72,-66.43 1022.74,-69.87 1022.69,-62.87"/>
</g>
<!-- Node18&#45;&gt;Node12 -->
<g id="edge35" class="edge">
<title>Node18&#45;&gt;Node12</title>
<path fill="none" stroke="midnightblue" d="M904.11,-280.08C909.28,-272.53 916.85,-261.49 923.19,-252.23"/>
<polygon fill="midnightblue" stroke="midnightblue" points="926.24,-253.98 929,-243.75 920.46,-250.02 926.24,-253.98"/>
</g>
<!-- Node19 -->
<g id="node19" class="node">
<title>Node19</title>
<g id="a_node19"><a xlink:href="BitStream_8h.html" target="_top" xlink:title=" ">
<polygon fill="none" stroke="black" points="1019,-224.5 1019,-243.5 1133,-243.5 1133,-224.5 1019,-224.5"/>
<text text-anchor="middle" x="1076" y="-231.5" font-family="Helvetica,sans-Serif" font-size="10.00">../Serial/BitStream.h</text>
</a>
</g>
</g>
<!-- Node18&#45;&gt;Node19 -->
<g id="edge36" class="edge">
<title>Node18&#45;&gt;Node19</title>
<path fill="none" stroke="midnightblue" d="M926.2,-280.44C956.41,-271.28 1004.51,-256.69 1038.03,-246.52"/>
<polygon fill="midnightblue" stroke="midnightblue" points="1039.37,-249.77 1047.93,-243.52 1037.34,-243.07 1039.37,-249.77"/>
</g>
<!-- Node20 -->
<g id="node20" class="node">
<title>Node20</title>
<g id="a_node20"><a xlink:href="VLConfig_8h.html" target="_top" xlink:title=" ">
<polygon fill="none" stroke="black" points="513,-224.5 513,-243.5 581,-243.5 581,-224.5 513,-224.5"/>
<text text-anchor="middle" x="547" y="-231.5" font-family="Helvetica,sans-Serif" font-size="10.00">VLConfig.h</text>
</a>
</g>
</g>
<!-- Node18&#45;&gt;Node20 -->
<g id="edge38" class="edge">
<title>Node18&#45;&gt;Node20</title>
<path fill="none" stroke="midnightblue" d="M842.38,-280.44C772.8,-269.74 655.06,-251.62 591.26,-241.81"/>
<polygon fill="midnightblue" stroke="midnightblue" points="591.55,-238.31 581.13,-240.25 590.48,-245.23 591.55,-238.31"/>
</g>
<!-- Node19&#45;&gt;Node4 -->
<g id="edge37" class="edge">
<title>Node19&#45;&gt;Node4</title>
<path fill="none" stroke="midnightblue" d="M1076.11,-224.21C1075.94,-202.97 1072.96,-147.96 1048,-112 1038.49,-98.3 1023.33,-87.68 1009.74,-80.2"/>
<polygon fill="midnightblue" stroke="midnightblue" points="1011.16,-77 1000.66,-75.53 1007.95,-83.22 1011.16,-77"/>
</g>
<!-- Node20&#45;&gt;Node6 -->
<g id="edge39" class="edge">
<title>Node20&#45;&gt;Node6</title>
<path fill="none" stroke="midnightblue" d="M512.72,-230.56C463.94,-226.26 372.27,-215.06 299,-188 252.66,-170.89 227.6,-174.83 203,-132 180.16,-92.23 244.63,-76.79 296.81,-70.8"/>
<polygon fill="midnightblue" stroke="midnightblue" points="297.48,-74.25 307.06,-69.72 296.74,-67.28 297.48,-74.25"/>
</g>
<!-- Node21&#45;&gt;Node4 -->
<g id="edge41" class="edge">
<title>Node21&#45;&gt;Node4</title>
<path fill="none" stroke="midnightblue" d="M404.6,-168.37C412.88,-153.82 431.82,-124.74 457,-112 499.43,-90.54 820.27,-74.16 937.38,-68.84"/>
<polygon fill="midnightblue" stroke="midnightblue" points="937.58,-72.34 947.42,-68.39 937.27,-65.34 937.58,-72.34"/>
</g>
<!-- Node21&#45;&gt;Node6 -->
<g id="edge42" class="edge">
<title>Node21&#45;&gt;Node6</title>
<path fill="none" stroke="midnightblue" d="M396.55,-168.37C389.38,-150.46 372.77,-108.92 363.18,-84.95"/>
<polygon fill="midnightblue" stroke="midnightblue" points="366.4,-83.58 359.44,-75.59 359.9,-86.18 366.4,-83.58"/>
</g>
<!-- Node21&#45;&gt;Node8 -->
<g id="edge43" class="edge">
<title>Node21&#45;&gt;Node8</title>
<path fill="none" stroke="midnightblue" d="M418.86,-168.44C438.27,-159.64 468.73,-145.81 490.96,-135.72"/>
<polygon fill="midnightblue" stroke="midnightblue" points="492.57,-138.84 500.23,-131.52 489.68,-132.46 492.57,-138.84"/>
</g>
<!-- Node22&#45;&gt;Node5 -->
<g id="edge45" class="edge">
<title>Node22&#45;&gt;Node5</title>
<path fill="none" stroke="midnightblue" d="M92.91,-168.44C129.85,-159.12 189.05,-144.18 229.42,-134"/>
<polygon fill="midnightblue" stroke="midnightblue" points="230.41,-137.36 239.25,-131.52 228.7,-130.57 230.41,-137.36"/>
</g>
<!-- Node22&#45;&gt;Node6 -->
<g id="edge46" class="edge">
<title>Node22&#45;&gt;Node6</title>
<path fill="none" stroke="midnightblue" d="M66.05,-168.24C78.02,-154.02 103.76,-126.09 132,-112 184.24,-85.93 250.47,-74.96 297.32,-70.35"/>
<polygon fill="midnightblue" stroke="midnightblue" points="297.67,-73.83 307.31,-69.43 297.03,-66.86 297.67,-73.83"/>
</g>
<!-- Node23&#45;&gt;Node4 -->
<g id="edge56" class="edge">
<title>Node23&#45;&gt;Node4</title>
<path fill="none" stroke="midnightblue" d="M644.93,-280.49C683.5,-273.31 736.56,-261.4 781,-244 875.5,-207 928.77,-219.61 980,-132 988.18,-118.01 987.18,-99.26 984.73,-85.49"/>
<polygon fill="midnightblue" stroke="midnightblue" points="988.15,-84.74 982.6,-75.71 981.31,-86.23 988.15,-84.74"/>
</g>
<!-- Node23&#45;&gt;Node5 -->
<g id="edge49" class="edge">
<title>Node23&#45;&gt;Node5</title>
<path fill="none" stroke="midnightblue" d="M536.29,-283.66C471.44,-274.65 364.84,-250.72 299,-188 286.1,-175.71 279.44,-156.17 276.12,-141.73"/>
<polygon fill="midnightblue" stroke="midnightblue" points="279.54,-141 274.17,-131.87 272.67,-142.36 279.54,-141"/>
</g>
<!-- Node23&#45;&gt;Node6 -->
<g id="edge55" class="edge">
<title>Node23&#45;&gt;Node6</title>
<path fill="none" stroke="midnightblue" d="M536.49,-289.74C438.2,-287.54 239.71,-266.12 195,-132 179.9,-86.69 245.16,-72.57 297.09,-68.38"/>
<polygon fill="midnightblue" stroke="midnightblue" points="297.54,-71.86 307.27,-67.67 297.05,-64.88 297.54,-71.86"/>
</g>
<!-- Node23&#45;&gt;Node11 -->
<g id="edge50" class="edge">
<title>Node23&#45;&gt;Node11</title>
<path fill="none" stroke="midnightblue" d="M631.98,-280.49C663.7,-272.99 708.75,-260.66 746,-244 789.01,-224.77 800.08,-218.48 836,-188 853.08,-173.5 869.63,-153.81 880.45,-139.91"/>
<polygon fill="midnightblue" stroke="midnightblue" points="883.41,-141.8 886.69,-131.72 877.84,-137.56 883.41,-141.8"/>
</g>
<!-- Node23&#45;&gt;Node12 -->
<g id="edge48" class="edge">
<title>Node23&#45;&gt;Node12</title>
<path fill="none" stroke="midnightblue" d="M646.35,-280.44C707.31,-270.85 806.11,-255.29 870.82,-245.1"/>
<polygon fill="midnightblue" stroke="midnightblue" points="871.57,-248.53 880.9,-243.52 870.48,-241.61 871.57,-248.53"/>
</g>
<!-- Node23&#45;&gt;Node24 -->
<g id="edge51" class="edge">
<title>Node23&#45;&gt;Node24</title>
<path fill="none" stroke="midnightblue" d="M594.06,-280.37C596.69,-267.29 599.82,-242.05 590,-224 582.51,-210.22 568.75,-199.78 555.82,-192.44"/>
<polygon fill="midnightblue" stroke="midnightblue" points="557.13,-189.17 546.65,-187.64 553.89,-195.38 557.13,-189.17"/>
</g>
<!-- Node24&#45;&gt;Node4 -->
<g id="edge52" class="edge">
<title>Node24&#45;&gt;Node4</title>
<path fill="none" stroke="midnightblue" d="M566.82,-168.95C621.48,-158.35 714.21,-140.13 748,-132 784.66,-123.18 884.74,-94.55 940.74,-78.38"/>
<polygon fill="midnightblue" stroke="midnightblue" points="942.02,-81.65 950.65,-75.51 940.08,-74.93 942.02,-81.65"/>
</g>
<!-- Node24&#45;&gt;Node5 -->
<g id="edge53" class="edge">
<title>Node24&#45;&gt;Node5</title>
<path fill="none" stroke="midnightblue" d="M485.07,-168.44C441.11,-159.02 370.37,-143.87 322.82,-133.68"/>
<polygon fill="midnightblue" stroke="midnightblue" points="323.25,-130.19 312.74,-131.52 321.79,-137.03 323.25,-130.19"/>
</g>
<!-- Node24&#45;&gt;Node8 -->
<g id="edge54" class="edge">
<title>Node24&#45;&gt;Node8</title>
<path fill="none" stroke="midnightblue" d="M524.01,-168.08C523.21,-160.93 522.07,-150.64 521.08,-141.69"/>
<polygon fill="midnightblue" stroke="midnightblue" points="524.56,-141.3 519.97,-131.75 517.6,-142.08 524.56,-141.3"/>
</g>
</g>
</svg>
        <g id="navigator" transform="translate(0 0)" fill="#404254">
                <rect fill="#f2f5e9" fill-opacity="0.5" stroke="#606060" stroke-width=".5" x="0" y="0" width="60" height="60"/>
                <use id="zoomplus" xlink:href="#zoomPlus" x="17" y="9" onmousedown="handleZoom(evt,'in')"/>
                <use id="zoomminus" xlink:href="#zoomMin" x="42" y="9" onmousedown="handleZoom(evt,'out')"/>
                <use id="reset" xlink:href="#resetDef" x="30" y="36" onmousedown="handleReset()"/>
                <g id="arrowUp" xlink:href="#dirArrow" transform="translate(30 24)" onmousedown="handlePan(0,-1)">
                  <use xlink:href="#rim" fill="#404040">
                        <set attributeName="fill" to="#808080" begin="arrowUp.mouseover" end="arrowUp.mouseout"/>
                  </use>
                  <path fill="none" stroke="white" stroke-width="1.5" d="M0,-3.0v7 M-2.5,-0.5L0,-3.0L2.5,-0.5"/>
                </g>
                <g id="arrowRight" xlink:href="#dirArrow" transform="rotate(90) translate(36 -43)" onmousedown="handlePan(1,0)">
                  <use xlink:href="#rim" fill="#404040">
                        <set attributeName="fill" to="#808080" begin="arrowRight.mouseover" end="arrowRight.mouseout"/>
                  </use>
                  <path fill="none" stroke="white" stroke-width="1.5" d="M0,-3.0v7 M-2.5,-0.5L0,-3.0L2.5,-0.5"/>
                </g>
                <g id="arrowDown" xlink:href="#dirArrow" transform="rotate(180) translate(-30 -48)" onmousedown="handlePan(0,1)">
                  <use xlink:href="#rim" fill="#404040">
                        <set attributeName="fill" to="#808080" begin="arrowDown.mouseover" end="arrowDown.mouseout"/>
                  </use>
                  <path fill="none" stroke="white" stroke-width="1.5" d="M0,-3.0v7 M-2.5,-0.5L0,-3.0L2.5,-0.5"/>
                </g>
                <g id="arrowLeft" xlink:href="#dirArrow" transform="rotate(270) translate(-36 17)" onmousedown="handlePan(-1,0)">
                  <use xlink:href="#rim" fill="#404040">
                        <set attributeName="fill" to="#808080" begin="arrowLeft.mouseover" end="arrowLeft.mouseout"/>
                  </use>
                  <path fill="none" stroke="white" stroke-width="1.5" d="M0,-3.0v7 M-2.5,-0.5L0,-3.0L2.5,-0.5"/>
                </g>
        </g>
        <svg viewBox="0 0 15 15" width="100%" height="30px" preserveAspectRatio="xMaxYMin meet">
         <g id="arrow_out" transform="scale(0.3 0.3)">
          <a xlink:href="EditorConnection_8cpp__incl_org.svg" target="_base">
           <rect id="button" ry="5" rx="5" y="6" x="6" height="38" width="38"
                fill="#f2f5e9" fill-opacity="0.5" stroke="#606060" stroke-width="1.0"/>
           <path id="arrow"
             d="M 11.500037,31.436501 C 11.940474,20.09759 22.043105,11.32322 32.158766,21.979434 L 37.068811,17.246167 C 37.068811,17.246167 37.088388,32 37.088388,32 L 22.160133,31.978069 C 22.160133,31.978069 26.997745,27.140456 26.997745,27.140456 C 18.528582,18.264221 13.291696,25.230495 11.500037,31.436501 z"
             style="fill:#404040;"/>
          </a>
         </g>
        </svg>
</svg>
