<?xml version="1.0" encoding="UTF-8" standalone="no"?>
<!DOCTYPE svg PUBLIC "-//W3C//DTD SVG 1.1//EN"
 "http://www.w3.org/Graphics/SVG/1.1/DTD/svg11.dtd">
<!-- Generated by graphviz version 2.43.0 (0)
 -->
<!-- Title: VortexEngine/src/Menus/MenuList/PatternSelect.cpp Pages: 1 -->
<!--zoomable 375 -->
<svg id="main" version="1.1" xmlns="http://www.w3.org/2000/svg" xmlns:xlink="http://www.w3.org/1999/xlink" xml:space="preserve" onload="init(evt)">
<style type="text/css"><![CDATA[
.edge:hover path { stroke: red; }
.edge:hover polygon { stroke: red; fill: red; }
]]></style>
<script type="text/javascript"><![CDATA[
var edges = document.getElementsByTagName('g');
if (edges && edges.length) {
  for (var i=0;i<edges.length;i++) {
    if (edges[i].id.substr(0,4)=='edge') {
      edges[i].setAttribute('class','edge');
    }
  }
}
]]></script>
        <defs>
                <circle id="rim" cx="0" cy="0" r="7"/>
                <circle id="rim2" cx="0" cy="0" r="3.5"/>
                <g id="zoomPlus">
                        <use xlink:href="#rim" fill="#404040">
                                <set attributeName="fill" to="#808080" begin="zoomplus.mouseover" end="zoomplus.mouseout"/>
                        </use>
                        <path d="M-4,0h8M0,-4v8" fill="none" stroke="white" stroke-width="1.5" pointer-events="none"/>
                </g>
                <g id="zoomMin">
                        <use xlink:href="#rim" fill="#404040">
                                <set attributeName="fill" to="#808080" begin="zoomminus.mouseover" end="zoomminus.mouseout"/>
                        </use>
                        <path d="M-4,0h8" fill="none" stroke="white" stroke-width="1.5" pointer-events="none"/>
                </g>
                <g id="dirArrow">
                        <path fill="none" stroke="white" stroke-width="1.5" d="M0,-3.0v7 M-2.5,-0.5L0,-3.0L2.5,-0.5"/>
                </g>
               <g id="resetDef">
                       <use xlink:href="#rim2" fill="#404040">
                               <set attributeName="fill" to="#808080" begin="reset.mouseover" end="reset.mouseout"/>
                       </use>
               </g>
        </defs>

<script type="text/javascript">
var viewWidth = 1335;
var viewHeight = 375;
var sectionId = 'dynsection-0';
</script>
<script xlink:href="svgpan.js"/>
<svg id="graph" class="graph">
<g id="viewport">
<title>VortexEngine/src/Menus/MenuList/PatternSelect.cpp</title>
<!-- Node1 -->
<g id="node1" class="node">
<title>Node1</title>
<g id="a_node1"><a xlink:title=" ">
<polygon fill="#bfbfbf" stroke="black" points="546.23,-336.5 546.23,-366.5 698.23,-366.5 698.23,-336.5 546.23,-336.5"/>
<text text-anchor="start" x="554.23" y="-354.5" font-family="Helvetica,sans-Serif" font-size="10.00">VortexEngine/src/Menus</text>
<text text-anchor="middle" x="622.23" y="-343.5" font-family="Helvetica,sans-Serif" font-size="10.00">/MenuList/PatternSelect.cpp</text>
</a>
</g>
</g>
<!-- Node2 -->
<g id="node2" class="node">
<title>Node2</title>
<g id="a_node2"><a xlink:href="PatternSelect_8h.html" target="_top" xlink:title=" ">
<polygon fill="none" stroke="black" points="504.23,-280.5 504.23,-299.5 594.23,-299.5 594.23,-280.5 504.23,-280.5"/>
<text text-anchor="middle" x="549.23" y="-287.5" font-family="Helvetica,sans-Serif" font-size="10.00">PatternSelect.h</text>
</a>
</g>
</g>
<!-- Node1&#45;&gt;Node2 -->
<g id="edge1" class="edge">
<title>Node1&#45;&gt;Node2</title>
<path fill="none" stroke="midnightblue" d="M604.93,-336.4C593.78,-327.31 579.28,-315.49 567.87,-306.19"/>
<polygon fill="midnightblue" stroke="midnightblue" points="569.82,-303.26 559.85,-299.66 565.39,-308.69 569.82,-303.26"/>
</g>
<!-- Node10 -->
<g id="node10" class="node">
<title>Node10</title>
<g id="a_node10"><a xlink:href="Mode_8h.html" target="_top" xlink:title=" ">
<polygon fill="none" stroke="black" points="253.73,-168.5 253.73,-187.5 350.73,-187.5 350.73,-168.5 253.73,-168.5"/>
<text text-anchor="middle" x="302.23" y="-175.5" font-family="Helvetica,sans-Serif" font-size="10.00">../Modes/Mode.h</text>
</a>
</g>
</g>
<!-- Node1&#45;&gt;Node10 -->
<g id="edge62" class="edge">
<title>Node1&#45;&gt;Node10</title>
<path fill="none" stroke="midnightblue" d="M576.82,-336.48C525.16,-319.32 439.52,-287.14 374.23,-244 352.86,-229.88 331.46,-209.58 317.61,-195.44"/>
<polygon fill="midnightblue" stroke="midnightblue" points="319.84,-192.71 310.39,-187.92 314.79,-197.56 319.84,-192.71"/>
</g>
<!-- Node13 -->
<g id="node13" class="node">
<title>Node13</title>
<g id="a_node13"><a xlink:href="PatternBuilder_8h.html" target="_top" xlink:title=" ">
<polygon fill="none" stroke="black" points="1037.73,-280.5 1037.73,-299.5 1192.73,-299.5 1192.73,-280.5 1037.73,-280.5"/>
<text text-anchor="middle" x="1115.23" y="-287.5" font-family="Helvetica,sans-Serif" font-size="10.00">../../Patterns/PatternBuilder.h</text>
</a>
</g>
</g>
<!-- Node1&#45;&gt;Node13 -->
<g id="edge23" class="edge">
<title>Node1&#45;&gt;Node13</title>
<path fill="none" stroke="midnightblue" d="M698.45,-341.3C789.59,-330.3 941.47,-311.97 1034.54,-300.74"/>
<polygon fill="midnightblue" stroke="midnightblue" points="1034.97,-304.21 1044.48,-299.54 1034.13,-297.26 1034.97,-304.21"/>
</g>
<!-- Node14 -->
<g id="node14" class="node">
<title>Node14</title>
<g id="a_node14"><a xlink:href="Pattern_8h.html" target="_top" xlink:title=" ">
<polygon fill="none" stroke="black" points="749.73,-224.5 749.73,-243.5 870.73,-243.5 870.73,-224.5 749.73,-224.5"/>
<text text-anchor="middle" x="810.23" y="-231.5" font-family="Helvetica,sans-Serif" font-size="10.00">../../Patterns/Pattern.h</text>
</a>
</g>
</g>
<!-- Node1&#45;&gt;Node14 -->
<g id="edge25" class="edge">
<title>Node1&#45;&gt;Node14</title>
<path fill="none" stroke="midnightblue" d="M661.07,-336.44C683.56,-327.5 711.94,-314.83 735.23,-300 757.55,-285.78 780.08,-265.23 794.54,-251.07"/>
<polygon fill="midnightblue" stroke="midnightblue" points="797.08,-253.47 801.68,-243.93 792.13,-248.52 797.08,-253.47"/>
</g>
<!-- Node16 -->
<g id="node16" class="node">
<title>Node16</title>
<g id="a_node16"><a xlink:href="TimeControl_8h.html" target="_top" xlink:title=" ">
<polygon fill="none" stroke="black" points="104.73,-168.5 104.73,-187.5 235.73,-187.5 235.73,-168.5 104.73,-168.5"/>
<text text-anchor="middle" x="170.23" y="-175.5" font-family="Helvetica,sans-Serif" font-size="10.00">../../Time/TimeControl.h</text>
</a>
</g>
</g>
<!-- Node1&#45;&gt;Node16 -->
<g id="edge31" class="edge">
<title>Node1&#45;&gt;Node16</title>
<path fill="none" stroke="midnightblue" d="M559.95,-336.42C523.2,-327.44 476.03,-314.73 435.23,-300 358.91,-272.44 343.06,-257.68 269.23,-224 245.43,-213.14 218.38,-200.85 198.58,-191.86"/>
<polygon fill="midnightblue" stroke="midnightblue" points="199.77,-188.56 189.22,-187.61 196.88,-194.93 199.77,-188.56"/>
</g>
<!-- Node17 -->
<g id="node17" class="node">
<title>Node17</title>
<g id="a_node17"><a xlink:href="Timings_8h.html" target="_top" xlink:title=" ">
<polygon fill="none" stroke="black" points="115.23,-224.5 115.23,-243.5 225.23,-243.5 225.23,-224.5 115.23,-224.5"/>
<text text-anchor="middle" x="170.23" y="-231.5" font-family="Helvetica,sans-Serif" font-size="10.00">../../Time/Timings.h</text>
</a>
</g>
</g>
<!-- Node1&#45;&gt;Node17 -->
<g id="edge35" class="edge">
<title>Node1&#45;&gt;Node17</title>
<path fill="none" stroke="midnightblue" d="M546.19,-345.83C450.94,-339.05 293.84,-324.54 241.23,-300 217.43,-288.9 196.1,-266.93 183.17,-251.62"/>
<polygon fill="midnightblue" stroke="midnightblue" points="185.6,-249.06 176.57,-243.51 180.17,-253.48 185.6,-249.06"/>
</g>
<!-- Node18 -->
<g id="node18" class="node">
<title>Node18</title>
<g id="a_node18"><a xlink:href="Button_8h.html" target="_top" xlink:title=" ">
<polygon fill="none" stroke="black" points="1211.23,-280.5 1211.23,-299.5 1327.23,-299.5 1327.23,-280.5 1211.23,-280.5"/>
<text text-anchor="middle" x="1269.23" y="-287.5" font-family="Helvetica,sans-Serif" font-size="10.00">../../Buttons/Button.h</text>
</a>
</g>
</g>
<!-- Node1&#45;&gt;Node18 -->
<g id="edge38" class="edge">
<title>Node1&#45;&gt;Node18</title>
<path fill="none" stroke="midnightblue" d="M698.67,-344.92C807.61,-336.73 1014.03,-320.32 1201,-299.97"/>
<polygon fill="midnightblue" stroke="midnightblue" points="1201.45,-303.45 1211.01,-298.88 1200.69,-296.49 1201.45,-303.45"/>
</g>
<!-- Node19 -->
<g id="node19" class="node">
<title>Node19</title>
<g id="a_node19"><a xlink:href="Modes_8h.html" target="_top" xlink:title=" ">
<polygon fill="none" stroke="black" points="908.73,-280.5 908.73,-299.5 1019.73,-299.5 1019.73,-280.5 908.73,-280.5"/>
<text text-anchor="middle" x="964.23" y="-287.5" font-family="Helvetica,sans-Serif" font-size="10.00">../../Modes/Modes.h</text>
</a>
</g>
</g>
<!-- Node1&#45;&gt;Node19 -->
<g id="edge40" class="edge">
<title>Node1&#45;&gt;Node19</title>
<path fill="none" stroke="midnightblue" d="M698.56,-337.22C761.05,-326.35 848.18,-311.19 905.37,-301.24"/>
<polygon fill="midnightblue" stroke="midnightblue" points="906.08,-304.67 915.34,-299.51 904.88,-297.77 906.08,-304.67"/>
</g>
<!-- Node21 -->
<g id="node21" class="node">
<title>Node21</title>
<g id="a_node21"><a xlink:href="Log_8h.html" target="_top" xlink:title=" ">
<polygon fill="none" stroke="black" points="14.23,-168.5 14.23,-187.5 86.23,-187.5 86.23,-168.5 14.23,-168.5"/>
<text text-anchor="middle" x="50.23" y="-175.5" font-family="Helvetica,sans-Serif" font-size="10.00">../Log/Log.h</text>
</a>
</g>
</g>
<!-- Node1&#45;&gt;Node21 -->
<g id="edge64" class="edge">
<title>Node1&#45;&gt;Node21</title>
<path fill="none" stroke="midnightblue" d="M546.12,-339.38C498.51,-331.22 436.35,-318.34 383.23,-300 329.87,-281.58 319.1,-270.46 269.23,-244 253.41,-235.6 250.87,-230.64 234.23,-224 209.53,-214.15 142.57,-198.78 96.63,-188.8"/>
<polygon fill="midnightblue" stroke="midnightblue" points="97.11,-185.32 86.59,-186.63 95.63,-192.16 97.11,-185.32"/>
</g>
<!-- Node23 -->
<g id="node23" class="node">
<title>Node23</title>
<g id="a_node23"><a xlink:href="Leds_8h.html" target="_top" xlink:title=" ">
<polygon fill="none" stroke="black" points="809.73,-168.5 809.73,-187.5 892.73,-187.5 892.73,-168.5 809.73,-168.5"/>
<text text-anchor="middle" x="851.23" y="-175.5" font-family="Helvetica,sans-Serif" font-size="10.00">../Leds/Leds.h</text>
</a>
</g>
</g>
<!-- Node1&#45;&gt;Node23 -->
<g id="edge63" class="edge">
<title>Node1&#45;&gt;Node23</title>
<path fill="none" stroke="midnightblue" d="M632.05,-336.46C650.55,-310.93 692.97,-256.52 740.23,-224 761.62,-209.28 788.56,-198.21 810.54,-190.74"/>
<polygon fill="midnightblue" stroke="midnightblue" points="811.84,-194 820.25,-187.56 809.66,-187.34 811.84,-194"/>
</g>
<!-- Node24 -->
<g id="node24" class="node">
<title>Node24</title>
<g id="a_node24"><a xlink:href="Menus_8h.html" target="_top" xlink:title=" ">
<polygon fill="none" stroke="black" points="505.73,-224.5 505.73,-243.5 616.73,-243.5 616.73,-224.5 505.73,-224.5"/>
<text text-anchor="middle" x="561.23" y="-231.5" font-family="Helvetica,sans-Serif" font-size="10.00">../../Menus/Menus.h</text>
</a>
</g>
</g>
<!-- Node1&#45;&gt;Node24 -->
<g id="edge57" class="edge">
<title>Node1&#45;&gt;Node24</title>
<path fill="none" stroke="midnightblue" d="M620.5,-336.5C618.22,-321.7 613.27,-298.06 603.23,-280 597.1,-268.96 587.67,-258.52 579.3,-250.48"/>
<polygon fill="midnightblue" stroke="midnightblue" points="581.49,-247.73 571.74,-243.56 576.76,-252.9 581.49,-247.73"/>
</g>
<!-- Node3 -->
<g id="node3" class="node">
<title>Node3</title>
<g id="a_node3"><a xlink:href="Menu_8h.html" target="_top" xlink:title=" ">
<polygon fill="none" stroke="black" points="425.23,-224.5 425.23,-243.5 487.23,-243.5 487.23,-224.5 425.23,-224.5"/>
<text text-anchor="middle" x="456.23" y="-231.5" font-family="Helvetica,sans-Serif" font-size="10.00">../Menu.h</text>
</a>
</g>
</g>
<!-- Node2&#45;&gt;Node3 -->
<g id="edge2" class="edge">
<title>Node2&#45;&gt;Node3</title>
<path fill="none" stroke="midnightblue" d="M534.29,-280.32C519.65,-271.82 497.1,-258.73 479.99,-248.8"/>
<polygon fill="midnightblue" stroke="midnightblue" points="481.54,-245.65 471.14,-243.65 478.03,-251.7 481.54,-245.65"/>
</g>
<!-- Node2&#45;&gt;Node10 -->
<g id="edge22" class="edge">
<title>Node2&#45;&gt;Node10</title>
<path fill="none" stroke="midnightblue" d="M518.49,-280.43C491.11,-272.37 450.25,-259.28 416.23,-244 382.81,-228.98 346.38,-207.18 323.92,-193.04"/>
<polygon fill="midnightblue" stroke="midnightblue" points="325.79,-190.09 315.48,-187.67 322.04,-195.99 325.79,-190.09"/>
</g>
<!-- Node11 -->
<g id="node11" class="node">
<title>Node11</title>
<g id="a_node11"><a xlink:href="Patterns_8h.html" target="_top" xlink:title=" ">
<polygon fill="none" stroke="black" points="926.73,-112.5 926.73,-131.5 1043.73,-131.5 1043.73,-112.5 926.73,-112.5"/>
<text text-anchor="middle" x="985.23" y="-119.5" font-family="Helvetica,sans-Serif" font-size="10.00">../Patterns/Patterns.h</text>
</a>
</g>
</g>
<!-- Node2&#45;&gt;Node11 -->
<g id="edge21" class="edge">
<title>Node2&#45;&gt;Node11</title>
<path fill="none" stroke="midnightblue" d="M594.35,-286.02C672.46,-280.35 829.28,-266.51 879.23,-244 926.4,-222.75 960.81,-168.89 976.23,-140.75"/>
<polygon fill="midnightblue" stroke="midnightblue" points="979.46,-142.13 981.04,-131.65 973.27,-138.85 979.46,-142.13"/>
</g>
<!-- Node12 -->
<g id="node12" class="node">
<title>Node12</title>
<g id="a_node12"><a xlink:href="Colorset_8h.html" target="_top" xlink:title=" ">
<polygon fill="none" stroke="black" points="673.23,-168.5 673.23,-187.5 791.23,-187.5 791.23,-168.5 673.23,-168.5"/>
<text text-anchor="middle" x="732.23" y="-175.5" font-family="Helvetica,sans-Serif" font-size="10.00">../../Colors/Colorset.h</text>
</a>
</g>
</g>
<!-- Node2&#45;&gt;Node12 -->
<g id="edge18" class="edge">
<title>Node2&#45;&gt;Node12</title>
<path fill="none" stroke="midnightblue" d="M563.83,-280.42C579.15,-271.4 603.93,-256.78 625.23,-244 654.3,-226.57 687.65,-206.26 709.29,-193.04"/>
<polygon fill="midnightblue" stroke="midnightblue" points="711.36,-195.87 718.07,-187.67 707.71,-189.9 711.36,-195.87"/>
</g>
<!-- Node4 -->
<g id="node4" class="node">
<title>Node4</title>
<g id="a_node4"><a xlink:title=" ">
<polygon fill="none" stroke="#bfbfbf" points="742.73,-56.5 742.73,-75.5 807.73,-75.5 807.73,-56.5 742.73,-56.5"/>
<text text-anchor="middle" x="775.23" y="-63.5" font-family="Helvetica,sans-Serif" font-size="10.00">inttypes.h</text>
</a>
</g>
</g>
<!-- Node3&#45;&gt;Node4 -->
<g id="edge3" class="edge">
<title>Node3&#45;&gt;Node4</title>
<path fill="none" stroke="midnightblue" d="M463.52,-224.46C482.89,-202.3 538.24,-142.59 597.23,-112 640.3,-89.67 695.07,-77.98 732.41,-72.18"/>
<polygon fill="midnightblue" stroke="midnightblue" points="733.07,-75.62 742.45,-70.7 732.05,-68.7 733.07,-75.62"/>
</g>
<!-- Node5 -->
<g id="node5" class="node">
<title>Node5</title>
<g id="a_node5"><a xlink:href="ColorTypes_8h.html" target="_top" xlink:title=" ">
<polygon fill="none" stroke="black" points="606.23,-112.5 606.23,-131.5 728.23,-131.5 728.23,-112.5 606.23,-112.5"/>
<text text-anchor="middle" x="667.23" y="-119.5" font-family="Helvetica,sans-Serif" font-size="10.00">../Colors/ColorTypes.h</text>
</a>
</g>
</g>
<!-- Node3&#45;&gt;Node5 -->
<g id="edge4" class="edge">
<title>Node3&#45;&gt;Node5</title>
<path fill="none" stroke="midnightblue" d="M471.67,-224.4C494.42,-211.78 538.36,-187.61 576.23,-168 597.49,-156.99 621.81,-144.99 639.96,-136.16"/>
<polygon fill="midnightblue" stroke="midnightblue" points="641.88,-139.12 649.35,-131.6 638.82,-132.82 641.88,-139.12"/>
</g>
<!-- Node8 -->
<g id="node8" class="node">
<title>Node8</title>
<g id="a_node8"><a xlink:href="LedTypes_8h.html" target="_top" xlink:title=" ">
<polygon fill="none" stroke="black" points="364.73,-112.5 364.73,-131.5 469.73,-131.5 469.73,-112.5 364.73,-112.5"/>
<text text-anchor="middle" x="417.23" y="-119.5" font-family="Helvetica,sans-Serif" font-size="10.00">../Leds/LedTypes.h</text>
</a>
</g>
</g>
<!-- Node3&#45;&gt;Node8 -->
<g id="edge9" class="edge">
<title>Node3&#45;&gt;Node8</title>
<path fill="none" stroke="midnightblue" d="M439.9,-224.39C427.28,-216.72 410.73,-204.21 403.23,-188 396.28,-172.97 401.51,-154.38 407.46,-140.93"/>
<polygon fill="midnightblue" stroke="midnightblue" points="410.68,-142.32 411.96,-131.8 404.4,-139.22 410.68,-142.32"/>
</g>
<!-- Node3&#45;&gt;Node10 -->
<g id="edge13" class="edge">
<title>Node3&#45;&gt;Node10</title>
<path fill="none" stroke="midnightblue" d="M431.83,-224.44C406.03,-215.4 365.15,-201.06 336.21,-190.92"/>
<polygon fill="midnightblue" stroke="midnightblue" points="337.11,-187.52 326.52,-187.52 334.8,-194.13 337.11,-187.52"/>
</g>
<!-- Node5&#45;&gt;Node4 -->
<g id="edge5" class="edge">
<title>Node5&#45;&gt;Node4</title>
<path fill="none" stroke="midnightblue" d="M684.58,-112.32C701.9,-103.66 728.75,-90.24 748.73,-80.25"/>
<polygon fill="midnightblue" stroke="midnightblue" points="750.54,-83.26 757.92,-75.65 747.41,-77 750.54,-83.26"/>
</g>
<!-- Node6 -->
<g id="node6" class="node">
<title>Node6</title>
<g id="a_node6"><a xlink:href="VortexConfig_8h.html" target="_top" xlink:title=" ">
<polygon fill="none" stroke="black" points="309.73,-56.5 309.73,-75.5 406.73,-75.5 406.73,-56.5 309.73,-56.5"/>
<text text-anchor="middle" x="358.23" y="-63.5" font-family="Helvetica,sans-Serif" font-size="10.00">../VortexConfig.h</text>
</a>
</g>
</g>
<!-- Node5&#45;&gt;Node6 -->
<g id="edge6" class="edge">
<title>Node5&#45;&gt;Node6</title>
<path fill="none" stroke="midnightblue" d="M618.27,-112.44C563.69,-102.9 475.44,-87.48 417.13,-77.29"/>
<polygon fill="midnightblue" stroke="midnightblue" points="417.42,-73.79 406.96,-75.52 416.21,-80.69 417.42,-73.79"/>
</g>
<!-- Node7 -->
<g id="node7" class="node">
<title>Node7</title>
<g id="a_node7"><a xlink:href="ColorConstants_8h.html" target="_top" xlink:title=" ">
<polygon fill="none" stroke="black" points="416.23,-0.5 416.23,-19.5 550.23,-19.5 550.23,-0.5 416.23,-0.5"/>
<text text-anchor="middle" x="483.23" y="-7.5" font-family="Helvetica,sans-Serif" font-size="10.00">Colors/ColorConstants.h</text>
</a>
</g>
</g>
<!-- Node5&#45;&gt;Node7 -->
<g id="edge8" class="edge">
<title>Node5&#45;&gt;Node7</title>
<path fill="none" stroke="midnightblue" d="M652.79,-112.37C621.08,-93.41 545.12,-48 506.55,-24.94"/>
<polygon fill="midnightblue" stroke="midnightblue" points="507.98,-21.72 497.6,-19.59 504.39,-27.73 507.98,-21.72"/>
</g>
<!-- Node6&#45;&gt;Node7 -->
<g id="edge7" class="edge">
<title>Node6&#45;&gt;Node7</title>
<path fill="none" stroke="midnightblue" d="M378.04,-56.44C398.52,-47.6 430.71,-33.69 454.1,-23.59"/>
<polygon fill="midnightblue" stroke="midnightblue" points="455.73,-26.7 463.52,-19.52 452.95,-20.27 455.73,-26.7"/>
</g>
<!-- Node8&#45;&gt;Node4 -->
<g id="edge10" class="edge">
<title>Node8&#45;&gt;Node4</title>
<path fill="none" stroke="midnightblue" d="M470.06,-113.03C541.32,-102.28 666.87,-83.34 732.52,-73.44"/>
<polygon fill="midnightblue" stroke="midnightblue" points="733.16,-76.89 742.52,-71.93 732.11,-69.96 733.16,-76.89"/>
</g>
<!-- Node8&#45;&gt;Node6 -->
<g id="edge12" class="edge">
<title>Node8&#45;&gt;Node6</title>
<path fill="none" stroke="midnightblue" d="M407.75,-112.32C399.03,-104.34 385.89,-92.31 375.33,-82.65"/>
<polygon fill="midnightblue" stroke="midnightblue" points="377.62,-80 367.88,-75.83 372.9,-85.17 377.62,-80"/>
</g>
<!-- Node9 -->
<g id="node9" class="node">
<title>Node9</title>
<g id="a_node9"><a xlink:title=" ">
<polygon fill="none" stroke="#bfbfbf" points="48.23,-56.5 48.23,-75.5 104.23,-75.5 104.23,-56.5 48.23,-56.5"/>
<text text-anchor="middle" x="76.23" y="-63.5" font-family="Helvetica,sans-Serif" font-size="10.00">stdarg.h</text>
</a>
</g>
</g>
<!-- Node8&#45;&gt;Node9 -->
<g id="edge11" class="edge">
<title>Node8&#45;&gt;Node9</title>
<path fill="none" stroke="midnightblue" d="M364.7,-112.68C295.47,-101.72 175.34,-82.7 114.26,-73.02"/>
<polygon fill="midnightblue" stroke="midnightblue" points="114.7,-69.55 104.27,-71.44 113.6,-76.46 114.7,-69.55"/>
</g>
<!-- Node10&#45;&gt;Node6 -->
<g id="edge17" class="edge">
<title>Node10&#45;&gt;Node6</title>
<path fill="none" stroke="midnightblue" d="M306.63,-168.37C315.79,-150.38 337.08,-108.55 349.26,-84.63"/>
<polygon fill="midnightblue" stroke="midnightblue" points="352.44,-86.09 353.86,-75.59 346.2,-82.92 352.44,-86.09"/>
</g>
<!-- Node10&#45;&gt;Node8 -->
<g id="edge14" class="edge">
<title>Node10&#45;&gt;Node8</title>
<path fill="none" stroke="midnightblue" d="M320.45,-168.44C339.13,-159.68 368.39,-145.94 389.85,-135.86"/>
<polygon fill="midnightblue" stroke="midnightblue" points="391.53,-138.93 399.09,-131.52 388.56,-132.6 391.53,-138.93"/>
</g>
<!-- Node10&#45;&gt;Node11 -->
<g id="edge15" class="edge">
<title>Node10&#45;&gt;Node11</title>
<path fill="none" stroke="midnightblue" d="M350.87,-174.37C454.81,-168.55 706.22,-153.37 916.23,-132 916.34,-131.99 916.44,-131.98 916.55,-131.97"/>
<polygon fill="midnightblue" stroke="midnightblue" points="916.97,-135.44 926.54,-130.89 916.22,-128.48 916.97,-135.44"/>
</g>
<!-- Node11&#45;&gt;Node4 -->
<g id="edge16" class="edge">
<title>Node11&#45;&gt;Node4</title>
<path fill="none" stroke="midnightblue" d="M951.96,-112.44C915.68,-103.11 857.51,-88.16 817.9,-77.97"/>
<polygon fill="midnightblue" stroke="midnightblue" points="818.56,-74.53 808.01,-75.43 816.82,-81.31 818.56,-74.53"/>
</g>
<!-- Node12&#45;&gt;Node5 -->
<g id="edge19" class="edge">
<title>Node12&#45;&gt;Node5</title>
<path fill="none" stroke="midnightblue" d="M721.79,-168.32C712.09,-160.26 697.42,-148.08 685.73,-138.37"/>
<polygon fill="midnightblue" stroke="midnightblue" points="687.79,-135.53 677.86,-131.83 683.32,-140.92 687.79,-135.53"/>
</g>
<!-- Node12&#45;&gt;Node6 -->
<g id="edge20" class="edge">
<title>Node12&#45;&gt;Node6</title>
<path fill="none" stroke="midnightblue" d="M703.45,-168.45C675.88,-160.01 633.27,-146.33 597.23,-132 577.65,-124.21 574.17,-118.84 554.23,-112 509.12,-96.52 456.34,-84.75 416.92,-77.13"/>
<polygon fill="midnightblue" stroke="midnightblue" points="417.42,-73.67 406.95,-75.24 416.12,-80.54 417.42,-73.67"/>
</g>
<!-- Node13&#45;&gt;Node11 -->
<g id="edge24" class="edge">
<title>Node13&#45;&gt;Node11</title>
<path fill="none" stroke="midnightblue" d="M1126.22,-280.37C1135.68,-272.17 1148.67,-258.92 1154.23,-244 1166.71,-210.55 1155.06,-191.55 1128.23,-168 1107.51,-149.8 1079.44,-138.96 1053.66,-132.5"/>
<polygon fill="midnightblue" stroke="midnightblue" points="1054.44,-129.09 1043.91,-130.24 1052.86,-135.91 1054.44,-129.09"/>
</g>
<!-- Node14&#45;&gt;Node8 -->
<g id="edge26" class="edge">
<title>Node14&#45;&gt;Node8</title>
<path fill="none" stroke="midnightblue" d="M779.72,-224.46C709.56,-204.82 536.74,-156.45 457.77,-134.35"/>
<polygon fill="midnightblue" stroke="midnightblue" points="458.3,-130.86 447.72,-131.53 456.41,-137.6 458.3,-130.86"/>
</g>
<!-- Node14&#45;&gt;Node11 -->
<g id="edge28" class="edge">
<title>Node14&#45;&gt;Node11</title>
<path fill="none" stroke="midnightblue" d="M837.98,-224.46C860.43,-216.84 892.29,-204.36 917.23,-188 938.24,-174.22 958.55,-153.54 971.42,-139.22"/>
<polygon fill="midnightblue" stroke="midnightblue" points="974.12,-141.45 978.08,-131.62 968.86,-136.83 974.12,-141.45"/>
</g>
<!-- Node14&#45;&gt;Node12 -->
<g id="edge27" class="edge">
<title>Node14&#45;&gt;Node12</title>
<path fill="none" stroke="midnightblue" d="M797.7,-224.32C785.65,-215.98 767.2,-203.21 752.96,-193.35"/>
<polygon fill="midnightblue" stroke="midnightblue" points="754.95,-190.47 744.73,-187.65 750.96,-196.22 754.95,-190.47"/>
</g>
<!-- Node15 -->
<g id="node15" class="node">
<title>Node15</title>
<g id="a_node15"><a xlink:href="PatternArgs_8h.html" target="_top" xlink:title=" ">
<polygon fill="none" stroke="black" points="825.23,-112.5 825.23,-131.5 907.23,-131.5 907.23,-112.5 825.23,-112.5"/>
<text text-anchor="middle" x="866.23" y="-119.5" font-family="Helvetica,sans-Serif" font-size="10.00">PatternArgs.h</text>
</a>
</g>
</g>
<!-- Node14&#45;&gt;Node15 -->
<g id="edge29" class="edge">
<title>Node14&#45;&gt;Node15</title>
<path fill="none" stroke="midnightblue" d="M848.2,-224.41C867.64,-217.88 889.61,-206.72 901.23,-188 911.41,-171.62 897.53,-152.04 884.36,-138.68"/>
<polygon fill="midnightblue" stroke="midnightblue" points="886.54,-135.93 876.87,-131.6 881.74,-141.02 886.54,-135.93"/>
</g>
<!-- Node15&#45;&gt;Node4 -->
<g id="edge30" class="edge">
<title>Node15&#45;&gt;Node4</title>
<path fill="none" stroke="midnightblue" d="M851.61,-112.32C837.28,-103.82 815.22,-90.73 798.48,-80.8"/>
<polygon fill="midnightblue" stroke="midnightblue" points="800.2,-77.75 789.82,-75.65 796.63,-83.77 800.2,-77.75"/>
</g>
<!-- Node16&#45;&gt;Node4 -->
<g id="edge32" class="edge">
<title>Node16&#45;&gt;Node4</title>
<path fill="none" stroke="midnightblue" d="M189.77,-168.44C223.05,-154.25 293.14,-126.04 355.23,-112 490.84,-81.35 655.94,-71.42 732.47,-68.33"/>
<polygon fill="midnightblue" stroke="midnightblue" points="732.81,-71.81 742.67,-67.93 732.55,-64.82 732.81,-71.81"/>
</g>
<!-- Node16&#45;&gt;Node6 -->
<g id="edge33" class="edge">
<title>Node16&#45;&gt;Node6</title>
<path fill="none" stroke="midnightblue" d="M162.93,-168.5C152.37,-155.13 135.52,-128.98 149.23,-112 167.84,-88.96 244.45,-77.16 299.53,-71.54"/>
<polygon fill="midnightblue" stroke="midnightblue" points="299.93,-75.02 309.54,-70.56 299.25,-68.05 299.93,-75.02"/>
</g>
<!-- Node16&#45;&gt;Node8 -->
<g id="edge34" class="edge">
<title>Node16&#45;&gt;Node8</title>
<path fill="none" stroke="midnightblue" d="M209.37,-168.44C252.46,-159.02 321.79,-143.87 368.4,-133.68"/>
<polygon fill="midnightblue" stroke="midnightblue" points="369.26,-137.07 378.28,-131.52 367.76,-130.23 369.26,-137.07"/>
</g>
<!-- Node17&#45;&gt;Node6 -->
<g id="edge37" class="edge">
<title>Node17&#45;&gt;Node6</title>
<path fill="none" stroke="midnightblue" d="M115.21,-231.06C57.81,-226.66 -20.52,-212.59 5.23,-168 30.12,-124.89 55.45,-129.01 102.23,-112 167.24,-88.36 246.17,-76.9 299.06,-71.5"/>
<polygon fill="midnightblue" stroke="midnightblue" points="299.66,-74.96 309.27,-70.5 298.98,-67.99 299.66,-74.96"/>
</g>
<!-- Node17&#45;&gt;Node16 -->
<g id="edge36" class="edge">
<title>Node17&#45;&gt;Node16</title>
<path fill="none" stroke="midnightblue" d="M170.23,-224.08C170.23,-217.01 170.23,-206.86 170.23,-197.99"/>
<polygon fill="midnightblue" stroke="midnightblue" points="173.73,-197.75 170.23,-187.75 166.73,-197.75 173.73,-197.75"/>
</g>
<!-- Node18&#45;&gt;Node4 -->
<g id="edge39" class="edge">
<title>Node18&#45;&gt;Node4</title>
<path fill="none" stroke="midnightblue" d="M1264.22,-280.45C1246.47,-251.07 1183.36,-153.78 1102.23,-112 1053.51,-86.91 895.08,-74.19 818.05,-69.36"/>
<polygon fill="midnightblue" stroke="midnightblue" points="817.94,-65.85 807.74,-68.74 817.51,-72.84 817.94,-65.85"/>
</g>
<!-- Node19&#45;&gt;Node4 -->
<g id="edge56" class="edge">
<title>Node19&#45;&gt;Node4</title>
<path fill="none" stroke="midnightblue" d="M1013.97,-280.49C1067.27,-270.87 1145.45,-255.1 1154.23,-244 1170.95,-222.86 1141.42,-187.05 1128.23,-168 1108.37,-139.32 1104.3,-127.87 1073.23,-112 1029.43,-89.63 889.24,-75.85 817.86,-70.1"/>
<polygon fill="midnightblue" stroke="midnightblue" points="818.09,-66.61 807.85,-69.31 817.54,-73.59 818.09,-66.61"/>
</g>
<!-- Node19&#45;&gt;Node5 -->
<g id="edge49" class="edge">
<title>Node19&#45;&gt;Node5</title>
<path fill="none" stroke="midnightblue" d="M962.44,-280.29C957.31,-257.74 940.35,-197.15 901.23,-168 875.91,-149.13 797.57,-136.76 738.45,-129.85"/>
<polygon fill="midnightblue" stroke="midnightblue" points="738.73,-126.36 728.4,-128.71 737.94,-133.32 738.73,-126.36"/>
</g>
<!-- Node19&#45;&gt;Node6 -->
<g id="edge55" class="edge">
<title>Node19&#45;&gt;Node6</title>
<path fill="none" stroke="midnightblue" d="M908.36,-282.03C862.37,-275.29 795.91,-263.23 740.23,-244 616.98,-201.44 597.67,-164.3 478.23,-112 449.93,-99.61 417.02,-87.42 392.83,-78.86"/>
<polygon fill="midnightblue" stroke="midnightblue" points="393.96,-75.54 383.37,-75.54 391.64,-82.15 393.96,-75.54"/>
</g>
<!-- Node19&#45;&gt;Node11 -->
<g id="edge50" class="edge">
<title>Node19&#45;&gt;Node11</title>
<path fill="none" stroke="midnightblue" d="M1007.31,-280.5C1055.33,-270.59 1127.31,-254.27 1135.23,-244 1172.81,-195.25 1078.93,-154.09 1023.11,-134.77"/>
<polygon fill="midnightblue" stroke="midnightblue" points="1024.1,-131.41 1013.51,-131.53 1021.87,-138.05 1024.1,-131.41"/>
</g>
<!-- Node20 -->
<g id="node20" class="node">
<title>Node20</title>
<g id="a_node20"><a xlink:href="ByteStream_8h.html" target="_top" xlink:title=" ">
<polygon fill="none" stroke="black" points="1003.73,-224.5 1003.73,-243.5 1126.73,-243.5 1126.73,-224.5 1003.73,-224.5"/>
<text text-anchor="middle" x="1065.23" y="-231.5" font-family="Helvetica,sans-Serif" font-size="10.00">../Serial/ByteStream.h</text>
</a>
</g>
</g>
<!-- Node19&#45;&gt;Node20 -->
<g id="edge41" class="edge">
<title>Node19&#45;&gt;Node20</title>
<path fill="none" stroke="midnightblue" d="M980.46,-280.32C996.58,-271.7 1021.53,-258.36 1040.2,-248.39"/>
<polygon fill="midnightblue" stroke="midnightblue" points="1041.88,-251.46 1049.04,-243.65 1038.58,-245.28 1041.88,-251.46"/>
</g>
<!-- Node19&#45;&gt;Node23 -->
<g id="edge51" class="edge">
<title>Node19&#45;&gt;Node23</title>
<path fill="none" stroke="midnightblue" d="M955.36,-280.37C936.39,-261.89 891.6,-218.29 867.4,-194.74"/>
<polygon fill="midnightblue" stroke="midnightblue" points="869.66,-192.06 860.06,-187.59 864.78,-197.07 869.66,-192.06"/>
</g>
<!-- Node20&#45;&gt;Node4 -->
<g id="edge42" class="edge">
<title>Node20&#45;&gt;Node4</title>
<path fill="none" stroke="midnightblue" d="M1067.44,-224.25C1072.44,-202.12 1082.02,-143.44 1052.23,-112 1020.92,-78.95 887.67,-70.17 818.03,-67.84"/>
<polygon fill="midnightblue" stroke="midnightblue" points="817.93,-64.34 807.83,-67.53 817.72,-71.33 817.93,-64.34"/>
</g>
<!-- Node20&#45;&gt;Node21 -->
<g id="edge43" class="edge">
<title>Node20&#45;&gt;Node21</title>
<path fill="none" stroke="midnightblue" d="M1003.66,-229.98C967.43,-228.22 920.73,-225.96 879.23,-224 534.12,-207.73 443.19,-229.9 96.57,-187.97"/>
<polygon fill="midnightblue" stroke="midnightblue" points="96.85,-184.48 86.5,-186.75 96.01,-191.43 96.85,-184.48"/>
</g>
<!-- Node21&#45;&gt;Node6 -->
<g id="edge45" class="edge">
<title>Node21&#45;&gt;Node6</title>
<path fill="none" stroke="midnightblue" d="M59.38,-168.32C74.78,-154.21 107.42,-126.44 140.23,-112 191.42,-89.47 254.41,-78.04 299.49,-72.35"/>
<polygon fill="midnightblue" stroke="midnightblue" points="300.18,-75.79 309.69,-71.12 299.34,-68.84 300.18,-75.79"/>
</g>
<!-- Node21&#45;&gt;Node9 -->
<g id="edge44" class="edge">
<title>Node21&#45;&gt;Node9</title>
<path fill="none" stroke="midnightblue" d="M50.36,-168.44C50.73,-155.88 52.11,-131.78 57.23,-112 59.62,-102.76 63.58,-92.96 67.27,-84.86"/>
<polygon fill="midnightblue" stroke="midnightblue" points="70.49,-86.23 71.65,-75.7 64.18,-83.21 70.49,-86.23"/>
</g>
<!-- Node22 -->
<g id="node22" class="node">
<title>Node22</title>
<g id="a_node22"><a xlink:href="ErrorBlinker_8h.html" target="_top" xlink:title=" ">
<polygon fill="none" stroke="black" points="158.73,-112.5 158.73,-131.5 269.73,-131.5 269.73,-112.5 158.73,-112.5"/>
<text text-anchor="middle" x="214.23" y="-119.5" font-family="Helvetica,sans-Serif" font-size="10.00">../Log/ErrorBlinker.h</text>
</a>
</g>
</g>
<!-- Node21&#45;&gt;Node22 -->
<g id="edge46" class="edge">
<title>Node21&#45;&gt;Node22</title>
<path fill="none" stroke="midnightblue" d="M76.22,-168.44C103.93,-159.32 147.98,-144.81 178.85,-134.65"/>
<polygon fill="midnightblue" stroke="midnightblue" points="179.96,-137.97 188.37,-131.52 177.77,-131.32 179.96,-137.97"/>
</g>
<!-- Node22&#45;&gt;Node4 -->
<g id="edge47" class="edge">
<title>Node22&#45;&gt;Node4</title>
<path fill="none" stroke="midnightblue" d="M269.82,-115.65C381.69,-104.88 631.91,-80.8 732.33,-71.13"/>
<polygon fill="midnightblue" stroke="midnightblue" points="732.79,-74.6 742.41,-70.16 732.12,-67.63 732.79,-74.6"/>
</g>
<!-- Node22&#45;&gt;Node6 -->
<g id="edge48" class="edge">
<title>Node22&#45;&gt;Node6</title>
<path fill="none" stroke="midnightblue" d="M237.05,-112.44C261.06,-103.44 299.06,-89.19 326.1,-79.05"/>
<polygon fill="midnightblue" stroke="midnightblue" points="327.39,-82.3 335.52,-75.52 324.93,-75.75 327.39,-82.3"/>
</g>
<!-- Node23&#45;&gt;Node4 -->
<g id="edge52" class="edge">
<title>Node23&#45;&gt;Node4</title>
<path fill="none" stroke="midnightblue" d="M843.99,-168.23C836.73,-159.3 825.33,-144.96 816.23,-132 805.13,-116.18 793.47,-97.45 785.43,-84.17"/>
<polygon fill="midnightblue" stroke="midnightblue" points="788.42,-82.36 780.28,-75.59 782.42,-85.96 788.42,-82.36"/>
</g>
<!-- Node23&#45;&gt;Node5 -->
<g id="edge53" class="edge">
<title>Node23&#45;&gt;Node5</title>
<path fill="none" stroke="midnightblue" d="M822.08,-168.44C790.72,-159.24 740.7,-144.56 706.03,-134.39"/>
<polygon fill="midnightblue" stroke="midnightblue" points="706.83,-130.97 696.25,-131.52 704.86,-137.69 706.83,-130.97"/>
</g>
<!-- Node23&#45;&gt;Node8 -->
<g id="edge54" class="edge">
<title>Node23&#45;&gt;Node8</title>
<path fill="none" stroke="midnightblue" d="M809.51,-169.44C806.38,-168.93 803.26,-168.44 800.23,-168 687.94,-151.51 556.41,-137.13 480.37,-129.29"/>
<polygon fill="midnightblue" stroke="midnightblue" points="480.32,-125.77 470.02,-128.23 479.61,-132.73 480.32,-125.77"/>
</g>
<!-- Node24&#45;&gt;Node4 -->
<g id="edge58" class="edge">
<title>Node24&#45;&gt;Node4</title>
<path fill="none" stroke="midnightblue" d="M573.98,-224.35C593.18,-211.45 630.84,-186.7 664.23,-168 695.79,-150.32 710.76,-156.66 737.23,-132 751.39,-118.81 761.89,-99.13 768.21,-84.89"/>
<polygon fill="midnightblue" stroke="midnightblue" points="771.45,-86.22 772.08,-75.64 764.99,-83.52 771.45,-86.22"/>
</g>
<!-- Node24&#45;&gt;Node5 -->
<g id="edge59" class="edge">
<title>Node24&#45;&gt;Node5</title>
<path fill="none" stroke="midnightblue" d="M563.83,-224.08C568.12,-210.62 577.78,-184.89 593.23,-168 605.55,-154.53 622.83,-143.72 637.59,-136.07"/>
<polygon fill="midnightblue" stroke="midnightblue" points="639.43,-139.06 646.85,-131.5 636.34,-132.79 639.43,-139.06"/>
</g>
<!-- Node24&#45;&gt;Node8 -->
<g id="edge60" class="edge">
<title>Node24&#45;&gt;Node8</title>
<path fill="none" stroke="midnightblue" d="M511.86,-224.5C487.84,-218.09 460.14,-207.01 441.23,-188 428.91,-175.62 422.85,-156.37 419.9,-142.03"/>
<polygon fill="midnightblue" stroke="midnightblue" points="423.29,-141.08 418.15,-131.81 416.39,-142.26 423.29,-141.08"/>
</g>
<!-- Node24&#45;&gt;Node10 -->
<g id="edge61" class="edge">
<title>Node24&#45;&gt;Node10</title>
<path fill="none" stroke="midnightblue" d="M520.19,-224.44C474.92,-215 402,-199.8 353.13,-189.61"/>
<polygon fill="midnightblue" stroke="midnightblue" points="353.58,-186.13 343.08,-187.52 352.15,-192.98 353.58,-186.13"/>
</g>
</g>
</svg>
        <g id="navigator" transform="translate(0 0)" fill="#404254">
                <rect fill="#f2f5e9" fill-opacity="0.5" stroke="#606060" stroke-width=".5" x="0" y="0" width="60" height="60"/>
                <use id="zoomplus" xlink:href="#zoomPlus" x="17" y="9" onmousedown="handleZoom(evt,'in')"/>
                <use id="zoomminus" xlink:href="#zoomMin" x="42" y="9" onmousedown="handleZoom(evt,'out')"/>
                <use id="reset" xlink:href="#resetDef" x="30" y="36" onmousedown="handleReset()"/>
                <g id="arrowUp" xlink:href="#dirArrow" transform="translate(30 24)" onmousedown="handlePan(0,-1)">
                  <use xlink:href="#rim" fill="#404040">
                        <set attributeName="fill" to="#808080" begin="arrowUp.mouseover" end="arrowUp.mouseout"/>
                  </use>
                  <path fill="none" stroke="white" stroke-width="1.5" d="M0,-3.0v7 M-2.5,-0.5L0,-3.0L2.5,-0.5"/>
                </g>
                <g id="arrowRight" xlink:href="#dirArrow" transform="rotate(90) translate(36 -43)" onmousedown="handlePan(1,0)">
                  <use xlink:href="#rim" fill="#404040">
                        <set attributeName="fill" to="#808080" begin="arrowRight.mouseover" end="arrowRight.mouseout"/>
                  </use>
                  <path fill="none" stroke="white" stroke-width="1.5" d="M0,-3.0v7 M-2.5,-0.5L0,-3.0L2.5,-0.5"/>
                </g>
                <g id="arrowDown" xlink:href="#dirArrow" transform="rotate(180) translate(-30 -48)" onmousedown="handlePan(0,1)">
                  <use xlink:href="#rim" fill="#404040">
                        <set attributeName="fill" to="#808080" begin="arrowDown.mouseover" end="arrowDown.mouseout"/>
                  </use>
                  <path fill="none" stroke="white" stroke-width="1.5" d="M0,-3.0v7 M-2.5,-0.5L0,-3.0L2.5,-0.5"/>
                </g>
                <g id="arrowLeft" xlink:href="#dirArrow" transform="rotate(270) translate(-36 17)" onmousedown="handlePan(-1,0)">
                  <use xlink:href="#rim" fill="#404040">
                        <set attributeName="fill" to="#808080" begin="arrowLeft.mouseover" end="arrowLeft.mouseout"/>
                  </use>
                  <path fill="none" stroke="white" stroke-width="1.5" d="M0,-3.0v7 M-2.5,-0.5L0,-3.0L2.5,-0.5"/>
                </g>
        </g>
        <svg viewBox="0 0 15 15" width="100%" height="30px" preserveAspectRatio="xMaxYMin meet">
         <g id="arrow_out" transform="scale(0.3 0.3)">
          <a xlink:href="PatternSelect_8cpp__incl_org.svg" target="_base">
           <rect id="button" ry="5" rx="5" y="6" x="6" height="38" width="38"
                fill="#f2f5e9" fill-opacity="0.5" stroke="#606060" stroke-width="1.0"/>
           <path id="arrow"
             d="M 11.500037,31.436501 C 11.940474,20.09759 22.043105,11.32322 32.158766,21.979434 L 37.068811,17.246167 C 37.068811,17.246167 37.088388,32 37.088388,32 L 22.160133,31.978069 C 22.160133,31.978069 26.997745,27.140456 26.997745,27.140456 C 18.528582,18.264221 13.291696,25.230495 11.500037,31.436501 z"
             style="fill:#404040;"/>
          </a>
         </g>
        </svg>
</svg>
