<?xml version="1.0" encoding="UTF-8" standalone="no"?>
<!DOCTYPE svg PUBLIC "-//W3C//DTD SVG 1.1//EN"
 "http://www.w3.org/Graphics/SVG/1.1/DTD/svg11.dtd">
<!-- Generated by graphviz version 2.43.0 (0)
 -->
<!-- Title: VortexEngine/src/Wireless/VLConfig.h Pages: 1 -->
<svg width="875pt" height="173pt"
 viewBox="0.00 0.00 875.00 173.00" xmlns="http://www.w3.org/2000/svg" xmlns:xlink="http://www.w3.org/1999/xlink">
<g id="graph0" class="graph" transform="scale(1 1) rotate(0) translate(4 169)">
<title>VortexEngine/src/Wireless/VLConfig.h</title>
<!-- Node1 -->
<g id="node1" class="node">
<title>Node1</title>
<g id="a_node1"><a xlink:title=" ">
<polygon fill="#bfbfbf" stroke="black" points="224,-134.5 224,-164.5 367,-164.5 367,-134.5 224,-134.5"/>
<text text-anchor="start" x="232" y="-152.5" font-family="Helvetica,sans-Serif" font-size="10.00">VortexEngine/src/Wireless</text>
<text text-anchor="middle" x="295.5" y="-141.5" font-family="Helvetica,sans-Serif" font-size="10.00">/VLConfig.h</text>
</a>
</g>
</g>
<!-- Node2 -->
<g id="node2" class="node">
<title>Node2</title>
<g id="a_node2"><a xlink:href="VortexEngine_8cpp.html" target="_top" xlink:title=" ">
<polygon fill="none" stroke="black" points="161.5,-6 161.5,-25 347.5,-25 347.5,-6 161.5,-6"/>
<text text-anchor="middle" x="254.5" y="-13" font-family="Helvetica,sans-Serif" font-size="10.00">VortexEngine/src/VortexEngine.cpp</text>
</a>
</g>
</g>
<!-- Node1&#45;&gt;Node2 -->
<g id="edge1" class="edge">
<title>Node1&#45;&gt;Node2</title>
<path fill="none" stroke="midnightblue" d="M290.65,-124.62C287.08,-108.23 281.77,-86.08 275.5,-67 270.58,-52.03 263.21,-35.24 258.64,-25.28"/>
<polygon fill="midnightblue" stroke="midnightblue" points="287.24,-125.42 292.74,-134.47 294.09,-123.96 287.24,-125.42"/>
</g>
<!-- Node3 -->
<g id="node3" class="node">
<title>Node3</title>
<g id="a_node3"><a xlink:href="VLReceiver_8h.html" target="_top" xlink:title=" ">
<polygon fill="none" stroke="black" points="124,-67.5 124,-97.5 267,-97.5 267,-67.5 124,-67.5"/>
<text text-anchor="start" x="132" y="-85.5" font-family="Helvetica,sans-Serif" font-size="10.00">VortexEngine/src/Wireless</text>
<text text-anchor="middle" x="195.5" y="-74.5" font-family="Helvetica,sans-Serif" font-size="10.00">/VLReceiver.h</text>
</a>
</g>
</g>
<!-- Node1&#45;&gt;Node3 -->
<g id="edge2" class="edge">
<title>Node1&#45;&gt;Node3</title>
<path fill="none" stroke="midnightblue" d="M265.09,-128.73C249.62,-118.68 231.17,-106.68 217.16,-97.58"/>
<polygon fill="midnightblue" stroke="midnightblue" points="263.51,-131.88 273.8,-134.4 267.32,-126.01 263.51,-131.88"/>
</g>
<!-- Node5 -->
<g id="node5" class="node">
<title>Node5</title>
<g id="a_node5"><a xlink:href="VLSender_8h.html" target="_top" xlink:title=" ">
<polygon fill="none" stroke="black" points="366,-67.5 366,-97.5 509,-97.5 509,-67.5 366,-67.5"/>
<text text-anchor="start" x="374" y="-85.5" font-family="Helvetica,sans-Serif" font-size="10.00">VortexEngine/src/Wireless</text>
<text text-anchor="middle" x="437.5" y="-74.5" font-family="Helvetica,sans-Serif" font-size="10.00">/VLSender.h</text>
</a>
</g>
</g>
<!-- Node1&#45;&gt;Node5 -->
<g id="edge5" class="edge">
<title>Node1&#45;&gt;Node5</title>
<path fill="none" stroke="midnightblue" d="M335.63,-130.13C358.19,-119.8 385.92,-107.11 406.75,-97.58"/>
<polygon fill="midnightblue" stroke="midnightblue" points="333.95,-127.05 326.31,-134.4 336.86,-133.42 333.95,-127.05"/>
</g>
<!-- Node3&#45;&gt;Node2 -->
<g id="edge3" class="edge">
<title>Node3&#45;&gt;Node2</title>
<path fill="none" stroke="midnightblue" d="M215.33,-59.66C226.03,-47.86 238.65,-33.97 246.61,-25.19"/>
<polygon fill="midnightblue" stroke="midnightblue" points="212.43,-57.64 208.3,-67.4 217.61,-62.34 212.43,-57.64"/>
</g>
<!-- Node4 -->
<g id="node4" class="node">
<title>Node4</title>
<g id="a_node4"><a xlink:href="VLReceiver_8cpp.html" target="_top" xlink:title=" ">
<polygon fill="none" stroke="black" points="0,-0.5 0,-30.5 143,-30.5 143,-0.5 0,-0.5"/>
<text text-anchor="start" x="8" y="-18.5" font-family="Helvetica,sans-Serif" font-size="10.00">VortexEngine/src/Wireless</text>
<text text-anchor="middle" x="71.5" y="-7.5" font-family="Helvetica,sans-Serif" font-size="10.00">/VLReceiver.cpp</text>
</a>
</g>
</g>
<!-- Node3&#45;&gt;Node4 -->
<g id="edge4" class="edge">
<title>Node3&#45;&gt;Node4</title>
<path fill="none" stroke="midnightblue" d="M159.66,-62.71C140.11,-52.46 116.3,-39.98 98.35,-30.58"/>
<polygon fill="midnightblue" stroke="midnightblue" points="158.11,-65.85 168.59,-67.4 161.36,-59.65 158.11,-65.85"/>
</g>
<!-- Node5&#45;&gt;Node2 -->
<g id="edge8" class="edge">
<title>Node5&#45;&gt;Node2</title>
<path fill="none" stroke="midnightblue" d="M388.08,-63.95C352.54,-51.32 306.16,-34.85 278.45,-25.01"/>
<polygon fill="midnightblue" stroke="midnightblue" points="387.2,-67.35 397.79,-67.4 389.54,-60.75 387.2,-67.35"/>
</g>
<!-- Node6 -->
<g id="node6" class="node">
<title>Node6</title>
<g id="a_node6"><a xlink:href="EditorConnection_8cpp.html" target="_top" xlink:title=" ">
<polygon fill="none" stroke="black" points="527.5,-0.5 527.5,-30.5 697.5,-30.5 697.5,-0.5 527.5,-0.5"/>
<text text-anchor="start" x="535.5" y="-18.5" font-family="Helvetica,sans-Serif" font-size="10.00">VortexEngine/src/Menus</text>
<text text-anchor="middle" x="612.5" y="-7.5" font-family="Helvetica,sans-Serif" font-size="10.00">/MenuList/EditorConnection.cpp</text>
</a>
</g>
</g>
<!-- Node5&#45;&gt;Node6 -->
<g id="edge6" class="edge">
<title>Node5&#45;&gt;Node6</title>
<path fill="none" stroke="midnightblue" d="M485.1,-63.82C513.23,-53.37 548.36,-40.32 574.6,-30.58"/>
<polygon fill="midnightblue" stroke="midnightblue" points="483.63,-60.63 475.47,-67.4 486.07,-67.2 483.63,-60.63"/>
</g>
<!-- Node7 -->
<g id="node7" class="node">
<title>Node7</title>
<g id="a_node7"><a xlink:href="ModeSharing_8cpp.html" target="_top" xlink:title=" ">
<polygon fill="none" stroke="black" points="716,-0.5 716,-30.5 867,-30.5 867,-0.5 716,-0.5"/>
<text text-anchor="start" x="724" y="-18.5" font-family="Helvetica,sans-Serif" font-size="10.00">VortexEngine/src/Menus</text>
<text text-anchor="middle" x="791.5" y="-7.5" font-family="Helvetica,sans-Serif" font-size="10.00">/MenuList/ModeSharing.cpp</text>
</a>
</g>
</g>
<!-- Node5&#45;&gt;Node7 -->
<g id="edge7" class="edge">
<title>Node5&#45;&gt;Node7</title>
<path fill="none" stroke="midnightblue" d="M519.22,-66.5C578.53,-55.6 658.18,-40.98 716,-30.36"/>
<polygon fill="midnightblue" stroke="midnightblue" points="518.34,-63.1 509.14,-68.35 519.6,-69.98 518.34,-63.1"/>
</g>
<!-- Node8 -->
<g id="node8" class="node">
<title>Node8</title>
<g id="a_node8"><a xlink:href="VLSender_8cpp.html" target="_top" xlink:title=" ">
<polygon fill="none" stroke="black" points="366,-0.5 366,-30.5 509,-30.5 509,-0.5 366,-0.5"/>
<text text-anchor="start" x="374" y="-18.5" font-family="Helvetica,sans-Serif" font-size="10.00">VortexEngine/src/Wireless</text>
<text text-anchor="middle" x="437.5" y="-7.5" font-family="Helvetica,sans-Serif" font-size="10.00">/VLSender.cpp</text>
</a>
</g>
</g>
<!-- Node5&#45;&gt;Node8 -->
<g id="edge9" class="edge">
<title>Node5&#45;&gt;Node8</title>
<path fill="none" stroke="midnightblue" d="M437.5,-57.11C437.5,-48.15 437.5,-38.32 437.5,-30.58"/>
<polygon fill="midnightblue" stroke="midnightblue" points="434,-57.4 437.5,-67.4 441,-57.4 434,-57.4"/>
</g>
</g>
</svg>
