<?xml version="1.0" encoding="UTF-8" standalone="no"?>
<!DOCTYPE svg PUBLIC "-//W3C//DTD SVG 1.1//EN"
 "http://www.w3.org/Graphics/SVG/1.1/DTD/svg11.dtd">
<!-- Generated by graphviz version 2.43.0 (0)
 -->
<!-- Title: VortexEngine/src/Serial/ByteStream.h Pages: 1 -->
<svg width="4716pt" height="173pt"
 viewBox="0.00 0.00 4715.50 173.00" xmlns="http://www.w3.org/2000/svg" xmlns:xlink="http://www.w3.org/1999/xlink">
<g id="graph0" class="graph" transform="scale(1 1) rotate(0) translate(4 169)">
<title>VortexEngine/src/Serial/ByteStream.h</title>
<!-- Node1 -->
<g id="node1" class="node">
<title>Node1</title>
<g id="a_node1"><a xlink:title=" ">
<polygon fill="#bfbfbf" stroke="black" points="2077.5,-134.5 2077.5,-164.5 2206.5,-164.5 2206.5,-134.5 2077.5,-134.5"/>
<text text-anchor="start" x="2085.5" y="-152.5" font-family="Helvetica,sans-Serif" font-size="10.00">VortexEngine/src/Serial</text>
<text text-anchor="middle" x="2142" y="-141.5" font-family="Helvetica,sans-Serif" font-size="10.00">/ByteStream.h</text>
</a>
</g>
</g>
<!-- Node2 -->
<g id="node2" class="node">
<title>Node2</title>
<g id="a_node2"><a xlink:href="Colorset_8cpp.html" target="_top" xlink:title=" ">
<polygon fill="none" stroke="black" points="0,-67.5 0,-97.5 132,-97.5 132,-67.5 0,-67.5"/>
<text text-anchor="start" x="8" y="-85.5" font-family="Helvetica,sans-Serif" font-size="10.00">VortexEngine/src/Colors</text>
<text text-anchor="middle" x="66" y="-74.5" font-family="Helvetica,sans-Serif" font-size="10.00">/Colorset.cpp</text>
</a>
</g>
</g>
<!-- Node1&#45;&gt;Node2 -->
<g id="edge1" class="edge">
<title>Node1&#45;&gt;Node2</title>
<path fill="none" stroke="midnightblue" d="M2066.75,-148.27C1750.13,-147.05 524.87,-139.66 141,-98 138.1,-97.69 135.14,-97.32 132.16,-96.91"/>
<polygon fill="midnightblue" stroke="midnightblue" points="2067.17,-151.77 2077.18,-148.31 2067.2,-144.77 2067.17,-151.77"/>
</g>
<!-- Node3 -->
<g id="node3" class="node">
<title>Node3</title>
<g id="a_node3"><a xlink:href="ColorTypes_8cpp.html" target="_top" xlink:title=" ">
<polygon fill="none" stroke="black" points="150,-67.5 150,-97.5 282,-97.5 282,-67.5 150,-67.5"/>
<text text-anchor="start" x="158" y="-85.5" font-family="Helvetica,sans-Serif" font-size="10.00">VortexEngine/src/Colors</text>
<text text-anchor="middle" x="216" y="-74.5" font-family="Helvetica,sans-Serif" font-size="10.00">/ColorTypes.cpp</text>
</a>
</g>
</g>
<!-- Node1&#45;&gt;Node3 -->
<g id="edge2" class="edge">
<title>Node1&#45;&gt;Node3</title>
<path fill="none" stroke="midnightblue" d="M2066.69,-147.97C1765.64,-145.6 647.99,-134.5 296,-98 291.51,-97.53 286.89,-96.96 282.24,-96.31"/>
<polygon fill="midnightblue" stroke="midnightblue" points="2067.02,-151.47 2077.05,-148.05 2067.08,-144.47 2067.02,-151.47"/>
</g>
<!-- Node4 -->
<g id="node4" class="node">
<title>Node4</title>
<g id="a_node4"><a xlink:href="EditorConnection_8cpp.html" target="_top" xlink:title=" ">
<polygon fill="none" stroke="black" points="146,-0.5 146,-30.5 316,-30.5 316,-0.5 146,-0.5"/>
<text text-anchor="start" x="154" y="-18.5" font-family="Helvetica,sans-Serif" font-size="10.00">VortexEngine/src/Menus</text>
<text text-anchor="middle" x="231" y="-7.5" font-family="Helvetica,sans-Serif" font-size="10.00">/MenuList/EditorConnection.cpp</text>
</a>
</g>
</g>
<!-- Node1&#45;&gt;Node4 -->
<g id="edge3" class="edge">
<title>Node1&#45;&gt;Node4</title>
<path fill="none" stroke="midnightblue" d="M2066.84,-147.79C1734.59,-144.47 410.37,-129.31 328,-98 327.7,-97.89 275.53,-53.99 247.83,-30.67"/>
<polygon fill="midnightblue" stroke="midnightblue" points="2067.28,-151.29 2077.31,-147.89 2067.35,-144.29 2067.28,-151.29"/>
</g>
<!-- Node5 -->
<g id="node5" class="node">
<title>Node5</title>
<g id="a_node5"><a xlink:href="EditorConnection_8h.html" target="_top" xlink:title=" ">
<polygon fill="none" stroke="black" points="337.5,-67.5 337.5,-97.5 496.5,-97.5 496.5,-67.5 337.5,-67.5"/>
<text text-anchor="start" x="345.5" y="-85.5" font-family="Helvetica,sans-Serif" font-size="10.00">VortexEngine/src/Menus</text>
<text text-anchor="middle" x="417" y="-74.5" font-family="Helvetica,sans-Serif" font-size="10.00">/MenuList/EditorConnection.h</text>
</a>
</g>
</g>
<!-- Node1&#45;&gt;Node5 -->
<g id="edge4" class="edge">
<title>Node1&#45;&gt;Node5</title>
<path fill="none" stroke="midnightblue" d="M2066.83,-147.41C1788.71,-143.19 818.27,-126.69 510,-98 505.61,-97.59 501.11,-97.11 496.57,-96.57"/>
<polygon fill="midnightblue" stroke="midnightblue" points="2067.16,-150.92 2077.21,-147.57 2067.26,-143.92 2067.16,-150.92"/>
</g>
<!-- Node7 -->
<g id="node7" class="node">
<title>Node7</title>
<g id="a_node7"><a xlink:href="ModeSharing_8cpp.html" target="_top" xlink:title=" ">
<polygon fill="none" stroke="black" points="638.5,-0.5 638.5,-30.5 789.5,-30.5 789.5,-0.5 638.5,-0.5"/>
<text text-anchor="start" x="646.5" y="-18.5" font-family="Helvetica,sans-Serif" font-size="10.00">VortexEngine/src/Menus</text>
<text text-anchor="middle" x="714" y="-7.5" font-family="Helvetica,sans-Serif" font-size="10.00">/MenuList/ModeSharing.cpp</text>
</a>
</g>
</g>
<!-- Node1&#45;&gt;Node7 -->
<g id="edge7" class="edge">
<title>Node1&#45;&gt;Node7</title>
<path fill="none" stroke="midnightblue" d="M2067.07,-148.32C1782.86,-147.29 784.83,-140.67 733,-98 713.26,-81.75 711.68,-49.32 712.62,-30.64"/>
<polygon fill="midnightblue" stroke="midnightblue" points="2067.26,-151.82 2077.27,-148.35 2067.28,-144.82 2067.26,-151.82"/>
</g>
<!-- Node8 -->
<g id="node8" class="node">
<title>Node8</title>
<g id="a_node8"><a xlink:href="Mode_8cpp.html" target="_top" xlink:title=" ">
<polygon fill="none" stroke="black" points="552,-67.5 552,-97.5 686,-97.5 686,-67.5 552,-67.5"/>
<text text-anchor="start" x="560" y="-85.5" font-family="Helvetica,sans-Serif" font-size="10.00">VortexEngine/src/Modes</text>
<text text-anchor="middle" x="619" y="-74.5" font-family="Helvetica,sans-Serif" font-size="10.00">/Mode.cpp</text>
</a>
</g>
</g>
<!-- Node1&#45;&gt;Node8 -->
<g id="edge8" class="edge">
<title>Node1&#45;&gt;Node8</title>
<path fill="none" stroke="midnightblue" d="M2067.11,-147.28C1810.69,-142.9 969.03,-126.64 700,-98 695.45,-97.52 690.78,-96.93 686.08,-96.27"/>
<polygon fill="midnightblue" stroke="midnightblue" points="2067.38,-150.79 2077.43,-147.46 2067.49,-143.79 2067.38,-150.79"/>
</g>
<!-- Node9 -->
<g id="node9" class="node">
<title>Node9</title>
<g id="a_node9"><a xlink:href="Modes_8cpp.html" target="_top" xlink:title=" ">
<polygon fill="none" stroke="black" points="486,-0.5 486,-30.5 620,-30.5 620,-0.5 486,-0.5"/>
<text text-anchor="start" x="494" y="-18.5" font-family="Helvetica,sans-Serif" font-size="10.00">VortexEngine/src/Modes</text>
<text text-anchor="middle" x="553" y="-7.5" font-family="Helvetica,sans-Serif" font-size="10.00">/Modes.cpp</text>
</a>
</g>
</g>
<!-- Node1&#45;&gt;Node9 -->
<g id="edge9" class="edge">
<title>Node1&#45;&gt;Node9</title>
<path fill="none" stroke="midnightblue" d="M2066.73,-147.53C1753.68,-143.34 569.83,-125.69 543,-98 525.74,-80.19 536.56,-48.94 545.27,-30.75"/>
<polygon fill="midnightblue" stroke="midnightblue" points="2067.01,-151.04 2077.06,-147.67 2067.1,-144.04 2067.01,-151.04"/>
</g>
<!-- Node10 -->
<g id="node10" class="node">
<title>Node10</title>
<g id="a_node10"><a xlink:href="Modes_8h.html" target="_top" xlink:title=" ">
<polygon fill="none" stroke="black" points="742,-67.5 742,-97.5 876,-97.5 876,-67.5 742,-67.5"/>
<text text-anchor="start" x="750" y="-85.5" font-family="Helvetica,sans-Serif" font-size="10.00">VortexEngine/src/Modes</text>
<text text-anchor="middle" x="809" y="-74.5" font-family="Helvetica,sans-Serif" font-size="10.00">/Modes.h</text>
</a>
</g>
</g>
<!-- Node1&#45;&gt;Node10 -->
<g id="edge10" class="edge">
<title>Node1&#45;&gt;Node10</title>
<path fill="none" stroke="midnightblue" d="M2067.35,-146.96C1833.37,-141.89 1116.17,-124.55 885,-98 882.06,-97.66 879.07,-97.28 876.05,-96.85"/>
<polygon fill="midnightblue" stroke="midnightblue" points="2067.39,-150.46 2077.46,-147.17 2067.54,-143.46 2067.39,-150.46"/>
</g>
<!-- Node19 -->
<g id="node19" class="node">
<title>Node19</title>
<g id="a_node19"><a xlink:href="BlinkStepPattern_8cpp.html" target="_top" xlink:title=" ">
<polygon fill="none" stroke="black" points="894.5,-67.5 894.5,-97.5 1043.5,-97.5 1043.5,-67.5 894.5,-67.5"/>
<text text-anchor="start" x="902.5" y="-85.5" font-family="Helvetica,sans-Serif" font-size="10.00">VortexEngine/src/Patterns</text>
<text text-anchor="middle" x="969" y="-74.5" font-family="Helvetica,sans-Serif" font-size="10.00">/Multi/BlinkStepPattern.cpp</text>
</a>
</g>
</g>
<!-- Node1&#45;&gt;Node19 -->
<g id="edge23" class="edge">
<title>Node1&#45;&gt;Node19</title>
<path fill="none" stroke="midnightblue" d="M2067.03,-148.29C1889.9,-147.09 1431.86,-139.81 1052,-98 1049.24,-97.7 1046.43,-97.36 1043.59,-96.99"/>
<polygon fill="midnightblue" stroke="midnightblue" points="2067.26,-151.79 2077.28,-148.36 2067.3,-144.79 2067.26,-151.79"/>
</g>
<!-- Node20 -->
<g id="node20" class="node">
<title>Node20</title>
<g id="a_node20"><a xlink:href="BouncePattern_8cpp.html" target="_top" xlink:title=" ">
<polygon fill="none" stroke="black" points="1061.5,-67.5 1061.5,-97.5 1202.5,-97.5 1202.5,-67.5 1061.5,-67.5"/>
<text text-anchor="start" x="1069.5" y="-85.5" font-family="Helvetica,sans-Serif" font-size="10.00">VortexEngine/src/Patterns</text>
<text text-anchor="middle" x="1132" y="-74.5" font-family="Helvetica,sans-Serif" font-size="10.00">/Multi/BouncePattern.cpp</text>
</a>
</g>
</g>
<!-- Node1&#45;&gt;Node20 -->
<g id="edge24" class="edge">
<title>Node1&#45;&gt;Node20</title>
<path fill="none" stroke="midnightblue" d="M2067.4,-147.61C1909.21,-145.03 1528.65,-135.15 1212,-98 1208.92,-97.64 1205.77,-97.23 1202.6,-96.79"/>
<polygon fill="midnightblue" stroke="midnightblue" points="2067.44,-151.11 2077.5,-147.77 2067.55,-144.11 2067.44,-151.11"/>
</g>
<!-- Node21 -->
<g id="node21" class="node">
<title>Node21</title>
<g id="a_node21"><a xlink:href="DoubleStrobePattern_8cpp.html" target="_top" xlink:title=" ">
<polygon fill="none" stroke="black" points="1221,-67.5 1221,-97.5 1389,-97.5 1389,-67.5 1221,-67.5"/>
<text text-anchor="start" x="1229" y="-85.5" font-family="Helvetica,sans-Serif" font-size="10.00">VortexEngine/src/Patterns</text>
<text text-anchor="middle" x="1305" y="-74.5" font-family="Helvetica,sans-Serif" font-size="10.00">/Multi/DoubleStrobePattern.cpp</text>
</a>
</g>
</g>
<!-- Node1&#45;&gt;Node21 -->
<g id="edge25" class="edge">
<title>Node1&#45;&gt;Node21</title>
<path fill="none" stroke="midnightblue" d="M2066.96,-145.57C1932.53,-139.83 1641.9,-125.24 1398,-98 1395.08,-97.67 1392.1,-97.32 1389.11,-96.95"/>
<polygon fill="midnightblue" stroke="midnightblue" points="2067.01,-149.07 2077.14,-146 2067.3,-142.08 2067.01,-149.07"/>
</g>
<!-- Node22 -->
<g id="node22" class="node">
<title>Node22</title>
<g id="a_node22"><a xlink:href="DripMorphPattern_8cpp.html" target="_top" xlink:title=" ">
<polygon fill="none" stroke="black" points="1407.5,-67.5 1407.5,-97.5 1560.5,-97.5 1560.5,-67.5 1407.5,-67.5"/>
<text text-anchor="start" x="1415.5" y="-85.5" font-family="Helvetica,sans-Serif" font-size="10.00">VortexEngine/src/Patterns</text>
<text text-anchor="middle" x="1484" y="-74.5" font-family="Helvetica,sans-Serif" font-size="10.00">/Multi/DripMorphPattern.cpp</text>
</a>
</g>
</g>
<!-- Node1&#45;&gt;Node22 -->
<g id="edge26" class="edge">
<title>Node1&#45;&gt;Node22</title>
<path fill="none" stroke="midnightblue" d="M2067.08,-143.84C1957.44,-136.59 1746.98,-120.99 1569,-98 1566.33,-97.65 1563.61,-97.29 1560.87,-96.9"/>
<polygon fill="midnightblue" stroke="midnightblue" points="2067.16,-147.35 2077.37,-144.52 2067.62,-140.37 2067.16,-147.35"/>
</g>
<!-- Node23 -->
<g id="node23" class="node">
<title>Node23</title>
<g id="a_node23"><a xlink:href="FillPattern_8cpp.html" target="_top" xlink:title=" ">
<polygon fill="none" stroke="black" points="1578.5,-67.5 1578.5,-97.5 1719.5,-97.5 1719.5,-67.5 1578.5,-67.5"/>
<text text-anchor="start" x="1586.5" y="-85.5" font-family="Helvetica,sans-Serif" font-size="10.00">VortexEngine/src/Patterns</text>
<text text-anchor="middle" x="1649" y="-74.5" font-family="Helvetica,sans-Serif" font-size="10.00">/Multi/FillPattern.cpp</text>
</a>
</g>
</g>
<!-- Node1&#45;&gt;Node23 -->
<g id="edge27" class="edge">
<title>Node1&#45;&gt;Node23</title>
<path fill="none" stroke="midnightblue" d="M2067.2,-140.74C1984.14,-131.82 1846.19,-116.04 1728,-98 1725.24,-97.58 1722.43,-97.14 1719.6,-96.68"/>
<polygon fill="midnightblue" stroke="midnightblue" points="2066.98,-144.24 2077.3,-141.83 2067.73,-137.28 2066.98,-144.24"/>
</g>
<!-- Node24 -->
<g id="node24" class="node">
<title>Node24</title>
<g id="a_node24"><a xlink:href="HueShiftPattern_8cpp.html" target="_top" xlink:title=" ">
<polygon fill="none" stroke="black" points="1737.5,-67.5 1737.5,-97.5 1880.5,-97.5 1880.5,-67.5 1737.5,-67.5"/>
<text text-anchor="start" x="1745.5" y="-85.5" font-family="Helvetica,sans-Serif" font-size="10.00">VortexEngine/src/Patterns</text>
<text text-anchor="middle" x="1809" y="-74.5" font-family="Helvetica,sans-Serif" font-size="10.00">/Multi/HueShiftPattern.cpp</text>
</a>
</g>
</g>
<!-- Node1&#45;&gt;Node24 -->
<g id="edge28" class="edge">
<title>Node1&#45;&gt;Node24</title>
<path fill="none" stroke="midnightblue" d="M2067.57,-133.97C2011.74,-123.07 1935.78,-108.25 1880.64,-97.48"/>
<polygon fill="midnightblue" stroke="midnightblue" points="2066.91,-137.41 2077.4,-135.89 2068.26,-130.54 2066.91,-137.41"/>
</g>
<!-- Node25 -->
<g id="node25" class="node">
<title>Node25</title>
<g id="a_node25"><a xlink:href="LighthousePattern_8cpp.html" target="_top" xlink:title=" ">
<polygon fill="none" stroke="black" points="1898.5,-67.5 1898.5,-97.5 2053.5,-97.5 2053.5,-67.5 1898.5,-67.5"/>
<text text-anchor="start" x="1906.5" y="-85.5" font-family="Helvetica,sans-Serif" font-size="10.00">VortexEngine/src/Patterns</text>
<text text-anchor="middle" x="1976" y="-74.5" font-family="Helvetica,sans-Serif" font-size="10.00">/Multi/LighthousePattern.cpp</text>
</a>
</g>
</g>
<!-- Node1&#45;&gt;Node25 -->
<g id="edge29" class="edge">
<title>Node1&#45;&gt;Node25</title>
<path fill="none" stroke="midnightblue" d="M2096.49,-130.68C2069.87,-120.26 2036.73,-107.28 2011.95,-97.58"/>
<polygon fill="midnightblue" stroke="midnightblue" points="2095.39,-134.01 2105.98,-134.4 2097.95,-127.49 2095.39,-134.01"/>
</g>
<!-- Node26 -->
<g id="node26" class="node">
<title>Node26</title>
<g id="a_node26"><a xlink:href="MateriaPattern_8cpp.html" target="_top" xlink:title=" ">
<polygon fill="none" stroke="black" points="2071.5,-67.5 2071.5,-97.5 2212.5,-97.5 2212.5,-67.5 2071.5,-67.5"/>
<text text-anchor="start" x="2079.5" y="-85.5" font-family="Helvetica,sans-Serif" font-size="10.00">VortexEngine/src/Patterns</text>
<text text-anchor="middle" x="2142" y="-74.5" font-family="Helvetica,sans-Serif" font-size="10.00">/Multi/MateriaPattern.cpp</text>
</a>
</g>
</g>
<!-- Node1&#45;&gt;Node26 -->
<g id="edge30" class="edge">
<title>Node1&#45;&gt;Node26</title>
<path fill="none" stroke="midnightblue" d="M2142,-124.11C2142,-115.15 2142,-105.32 2142,-97.58"/>
<polygon fill="midnightblue" stroke="midnightblue" points="2138.5,-124.4 2142,-134.4 2145.5,-124.4 2138.5,-124.4"/>
</g>
<!-- Node27 -->
<g id="node27" class="node">
<title>Node27</title>
<g id="a_node27"><a xlink:href="Sequence_8cpp.html" target="_top" xlink:title=" ">
<polygon fill="none" stroke="black" points="2230.5,-67.5 2230.5,-97.5 2399.5,-97.5 2399.5,-67.5 2230.5,-67.5"/>
<text text-anchor="start" x="2238.5" y="-85.5" font-family="Helvetica,sans-Serif" font-size="10.00">VortexEngine/src/Patterns</text>
<text text-anchor="middle" x="2315" y="-74.5" font-family="Helvetica,sans-Serif" font-size="10.00">/Multi/Sequencer/Sequence.cpp</text>
</a>
</g>
</g>
<!-- Node1&#45;&gt;Node27 -->
<g id="edge31" class="edge">
<title>Node1&#45;&gt;Node27</title>
<path fill="none" stroke="midnightblue" d="M2189.06,-130.82C2216.87,-120.37 2251.59,-107.32 2277.53,-97.58"/>
<polygon fill="midnightblue" stroke="midnightblue" points="2187.67,-127.6 2179.54,-134.4 2190.13,-134.16 2187.67,-127.6"/>
</g>
<!-- Node28 -->
<g id="node28" class="node">
<title>Node28</title>
<g id="a_node28"><a xlink:href="SequencedPattern_8cpp.html" target="_top" xlink:title=" ">
<polygon fill="none" stroke="black" points="2417.5,-67.5 2417.5,-97.5 2626.5,-97.5 2626.5,-67.5 2417.5,-67.5"/>
<text text-anchor="start" x="2425.5" y="-85.5" font-family="Helvetica,sans-Serif" font-size="10.00">VortexEngine/src/Patterns</text>
<text text-anchor="middle" x="2522" y="-74.5" font-family="Helvetica,sans-Serif" font-size="10.00">/Multi/Sequencer/SequencedPattern.cpp</text>
</a>
</g>
</g>
<!-- Node1&#45;&gt;Node28 -->
<g id="edge32" class="edge">
<title>Node1&#45;&gt;Node28</title>
<path fill="none" stroke="midnightblue" d="M2216.97,-135.68C2281.31,-124.67 2373.88,-108.84 2440.14,-97.5"/>
<polygon fill="midnightblue" stroke="midnightblue" points="2216.16,-132.26 2206.89,-137.4 2217.34,-139.16 2216.16,-132.26"/>
</g>
<!-- Node29 -->
<g id="node29" class="node">
<title>Node29</title>
<g id="a_node29"><a xlink:href="VortexWipePattern_8cpp.html" target="_top" xlink:title=" ">
<polygon fill="none" stroke="black" points="2645,-67.5 2645,-97.5 2803,-97.5 2803,-67.5 2645,-67.5"/>
<text text-anchor="start" x="2653" y="-85.5" font-family="Helvetica,sans-Serif" font-size="10.00">VortexEngine/src/Patterns</text>
<text text-anchor="middle" x="2724" y="-74.5" font-family="Helvetica,sans-Serif" font-size="10.00">/Multi/VortexWipePattern.cpp</text>
</a>
</g>
</g>
<!-- Node1&#45;&gt;Node29 -->
<g id="edge33" class="edge">
<title>Node1&#45;&gt;Node29</title>
<path fill="none" stroke="midnightblue" d="M2216.88,-142.29C2313.81,-133.92 2487.85,-117.76 2636,-98 2638.92,-97.61 2641.88,-97.2 2644.88,-96.77"/>
<polygon fill="midnightblue" stroke="midnightblue" points="2216.55,-138.8 2206.88,-143.15 2217.15,-145.78 2216.55,-138.8"/>
</g>
<!-- Node30 -->
<g id="node30" class="node">
<title>Node30</title>
<g id="a_node30"><a xlink:href="WarpPattern_8cpp.html" target="_top" xlink:title=" ">
<polygon fill="none" stroke="black" points="2821.5,-67.5 2821.5,-97.5 2962.5,-97.5 2962.5,-67.5 2821.5,-67.5"/>
<text text-anchor="start" x="2829.5" y="-85.5" font-family="Helvetica,sans-Serif" font-size="10.00">VortexEngine/src/Patterns</text>
<text text-anchor="middle" x="2892" y="-74.5" font-family="Helvetica,sans-Serif" font-size="10.00">/Multi/WarpPattern.cpp</text>
</a>
</g>
</g>
<!-- Node1&#45;&gt;Node30 -->
<g id="edge34" class="edge">
<title>Node1&#45;&gt;Node30</title>
<path fill="none" stroke="midnightblue" d="M2217.06,-145.39C2341.23,-139.68 2597.04,-125.51 2812,-98 2815.08,-97.61 2818.22,-97.17 2821.39,-96.71"/>
<polygon fill="midnightblue" stroke="midnightblue" points="2216.74,-141.91 2206.9,-145.86 2217.05,-148.9 2216.74,-141.91"/>
</g>
<!-- Node31 -->
<g id="node31" class="node">
<title>Node31</title>
<g id="a_node31"><a xlink:href="WarpWormPattern_8cpp.html" target="_top" xlink:title=" ">
<polygon fill="none" stroke="black" points="2980.5,-67.5 2980.5,-97.5 3135.5,-97.5 3135.5,-67.5 2980.5,-67.5"/>
<text text-anchor="start" x="2988.5" y="-85.5" font-family="Helvetica,sans-Serif" font-size="10.00">VortexEngine/src/Patterns</text>
<text text-anchor="middle" x="3058" y="-74.5" font-family="Helvetica,sans-Serif" font-size="10.00">/Multi/WarpWormPattern.cpp</text>
</a>
</g>
</g>
<!-- Node1&#45;&gt;Node31 -->
<g id="edge35" class="edge">
<title>Node1&#45;&gt;Node31</title>
<path fill="none" stroke="midnightblue" d="M2216.67,-146.62C2362.35,-142.35 2694.49,-129.75 2972,-98 2974.71,-97.69 2977.46,-97.35 2980.24,-96.99"/>
<polygon fill="midnightblue" stroke="midnightblue" points="2216.41,-143.12 2206.51,-146.91 2216.61,-150.12 2216.41,-143.12"/>
</g>
<!-- Node32 -->
<g id="node32" class="node">
<title>Node32</title>
<g id="a_node32"><a xlink:href="Pattern_8cpp.html" target="_top" xlink:title=" ">
<polygon fill="none" stroke="black" points="3153.5,-67.5 3153.5,-97.5 3294.5,-97.5 3294.5,-67.5 3153.5,-67.5"/>
<text text-anchor="start" x="3161.5" y="-85.5" font-family="Helvetica,sans-Serif" font-size="10.00">VortexEngine/src/Patterns</text>
<text text-anchor="middle" x="3224" y="-74.5" font-family="Helvetica,sans-Serif" font-size="10.00">/Pattern.cpp</text>
</a>
</g>
</g>
<!-- Node1&#45;&gt;Node32 -->
<g id="edge36" class="edge">
<title>Node1&#45;&gt;Node32</title>
<path fill="none" stroke="midnightblue" d="M2216.95,-148.08C2384.09,-146.41 2799.8,-138.19 3145,-98 3147.77,-97.68 3150.59,-97.32 3153.43,-96.93"/>
<polygon fill="midnightblue" stroke="midnightblue" points="2216.75,-144.58 2206.78,-148.18 2216.81,-151.58 2216.75,-144.58"/>
</g>
<!-- Node33 -->
<g id="node33" class="node">
<title>Node33</title>
<g id="a_node33"><a xlink:href="PatternArgs_8cpp.html" target="_top" xlink:title=" ">
<polygon fill="none" stroke="black" points="3312.5,-67.5 3312.5,-97.5 3453.5,-97.5 3453.5,-67.5 3312.5,-67.5"/>
<text text-anchor="start" x="3320.5" y="-85.5" font-family="Helvetica,sans-Serif" font-size="10.00">VortexEngine/src/Patterns</text>
<text text-anchor="middle" x="3383" y="-74.5" font-family="Helvetica,sans-Serif" font-size="10.00">/PatternArgs.cpp</text>
</a>
</g>
</g>
<!-- Node1&#45;&gt;Node33 -->
<g id="edge37" class="edge">
<title>Node1&#45;&gt;Node33</title>
<path fill="none" stroke="midnightblue" d="M2216.97,-148.82C2402.12,-148.83 2895.62,-144.13 3304,-98 3306.77,-97.69 3309.59,-97.33 3312.44,-96.95"/>
<polygon fill="midnightblue" stroke="midnightblue" points="2216.81,-145.32 2206.81,-148.81 2216.8,-152.32 2216.81,-145.32"/>
</g>
<!-- Node34 -->
<g id="node34" class="node">
<title>Node34</title>
<g id="a_node34"><a xlink:href="PatternBuilder_8cpp.html" target="_top" xlink:title=" ">
<polygon fill="none" stroke="black" points="3471.5,-67.5 3471.5,-97.5 3612.5,-97.5 3612.5,-67.5 3471.5,-67.5"/>
<text text-anchor="start" x="3479.5" y="-85.5" font-family="Helvetica,sans-Serif" font-size="10.00">VortexEngine/src/Patterns</text>
<text text-anchor="middle" x="3542" y="-74.5" font-family="Helvetica,sans-Serif" font-size="10.00">/PatternBuilder.cpp</text>
</a>
</g>
</g>
<!-- Node1&#45;&gt;Node34 -->
<g id="edge38" class="edge">
<title>Node1&#45;&gt;Node34</title>
<path fill="none" stroke="midnightblue" d="M2216.7,-147.05C2458.57,-142.15 3218.71,-124.95 3463,-98 3465.77,-97.69 3468.59,-97.35 3471.44,-96.97"/>
<polygon fill="midnightblue" stroke="midnightblue" points="2216.53,-143.56 2206.6,-147.26 2216.67,-150.56 2216.53,-143.56"/>
</g>
<!-- Node35 -->
<g id="node35" class="node">
<title>Node35</title>
<g id="a_node35"><a xlink:href="ByteStream_8cpp.html" target="_top" xlink:title=" ">
<polygon fill="none" stroke="black" points="3630.5,-67.5 3630.5,-97.5 3759.5,-97.5 3759.5,-67.5 3630.5,-67.5"/>
<text text-anchor="start" x="3638.5" y="-85.5" font-family="Helvetica,sans-Serif" font-size="10.00">VortexEngine/src/Serial</text>
<text text-anchor="middle" x="3695" y="-74.5" font-family="Helvetica,sans-Serif" font-size="10.00">/ByteStream.cpp</text>
</a>
</g>
</g>
<!-- Node1&#45;&gt;Node35 -->
<g id="edge39" class="edge">
<title>Node1&#45;&gt;Node35</title>
<path fill="none" stroke="midnightblue" d="M2216.7,-147.55C2477.32,-143.99 3345.4,-129.98 3622,-98 3624.7,-97.69 3627.44,-97.33 3630.21,-96.94"/>
<polygon fill="midnightblue" stroke="midnightblue" points="2216.54,-144.05 2206.59,-147.69 2216.63,-151.05 2216.54,-144.05"/>
</g>
<!-- Node36 -->
<g id="node36" class="node">
<title>Node36</title>
<g id="a_node36"><a xlink:href="Serial_8cpp.html" target="_top" xlink:title=" ">
<polygon fill="none" stroke="black" points="3777.5,-67.5 3777.5,-97.5 3906.5,-97.5 3906.5,-67.5 3777.5,-67.5"/>
<text text-anchor="start" x="3785.5" y="-85.5" font-family="Helvetica,sans-Serif" font-size="10.00">VortexEngine/src/Serial</text>
<text text-anchor="middle" x="3842" y="-74.5" font-family="Helvetica,sans-Serif" font-size="10.00">/Serial.cpp</text>
</a>
</g>
</g>
<!-- Node1&#45;&gt;Node36 -->
<g id="edge40" class="edge">
<title>Node1&#45;&gt;Node36</title>
<path fill="none" stroke="midnightblue" d="M2216.98,-147.82C2494.4,-145.03 3462.33,-132.97 3769,-98 3771.7,-97.69 3774.44,-97.34 3777.21,-96.95"/>
<polygon fill="midnightblue" stroke="midnightblue" points="2216.59,-144.32 2206.63,-147.92 2216.66,-151.32 2216.59,-144.32"/>
</g>
<!-- Node37 -->
<g id="node37" class="node">
<title>Node37</title>
<g id="a_node37"><a xlink:href="Storage_8cpp.html" target="_top" xlink:title=" ">
<polygon fill="none" stroke="black" points="3924.5,-67.5 3924.5,-97.5 4063.5,-97.5 4063.5,-67.5 3924.5,-67.5"/>
<text text-anchor="start" x="3932.5" y="-85.5" font-family="Helvetica,sans-Serif" font-size="10.00">VortexEngine/src/Storage</text>
<text text-anchor="middle" x="3994" y="-74.5" font-family="Helvetica,sans-Serif" font-size="10.00">/Storage.cpp</text>
</a>
</g>
</g>
<!-- Node1&#45;&gt;Node37 -->
<g id="edge41" class="edge">
<title>Node1&#45;&gt;Node37</title>
<path fill="none" stroke="midnightblue" d="M2216.83,-147.92C2509.71,-145.41 3578.77,-133.92 3916,-98 3918.74,-97.71 3921.53,-97.37 3924.34,-97"/>
<polygon fill="midnightblue" stroke="midnightblue" points="2216.71,-144.42 2206.74,-148.01 2216.77,-151.42 2216.71,-144.42"/>
</g>
<!-- Node38 -->
<g id="node38" class="node">
<title>Node38</title>
<g id="a_node38"><a xlink:href="IRReceiver_8cpp.html" target="_top" xlink:title=" ">
<polygon fill="none" stroke="black" points="4081.5,-67.5 4081.5,-97.5 4224.5,-97.5 4224.5,-67.5 4081.5,-67.5"/>
<text text-anchor="start" x="4089.5" y="-85.5" font-family="Helvetica,sans-Serif" font-size="10.00">VortexEngine/src/Wireless</text>
<text text-anchor="middle" x="4153" y="-74.5" font-family="Helvetica,sans-Serif" font-size="10.00">/IRReceiver.cpp</text>
</a>
</g>
</g>
<!-- Node1&#45;&gt;Node38 -->
<g id="edge42" class="edge">
<title>Node1&#45;&gt;Node38</title>
<path fill="none" stroke="midnightblue" d="M2217.18,-148.07C2526.67,-146.08 3703.37,-136.1 4073,-98 4075.67,-97.72 4078.38,-97.41 4081.12,-97.07"/>
<polygon fill="midnightblue" stroke="midnightblue" points="2216.95,-144.58 2206.97,-148.14 2216.99,-151.57 2216.95,-144.58"/>
</g>
<!-- Node39 -->
<g id="node39" class="node">
<title>Node39</title>
<g id="a_node39"><a xlink:href="IRSender_8h.html" target="_top" xlink:title=" ">
<polygon fill="none" stroke="black" points="4242.5,-67.5 4242.5,-97.5 4385.5,-97.5 4385.5,-67.5 4242.5,-67.5"/>
<text text-anchor="start" x="4250.5" y="-85.5" font-family="Helvetica,sans-Serif" font-size="10.00">VortexEngine/src/Wireless</text>
<text text-anchor="middle" x="4314" y="-74.5" font-family="Helvetica,sans-Serif" font-size="10.00">/IRSender.h</text>
</a>
</g>
</g>
<!-- Node1&#45;&gt;Node39 -->
<g id="edge43" class="edge">
<title>Node1&#45;&gt;Node39</title>
<path fill="none" stroke="midnightblue" d="M2216.9,-148.25C2541.79,-146.93 3830.87,-139.15 4234,-98 4236.67,-97.73 4239.38,-97.42 4242.12,-97.07"/>
<polygon fill="midnightblue" stroke="midnightblue" points="2216.64,-144.75 2206.66,-148.29 2216.67,-151.75 2216.64,-144.75"/>
</g>
<!-- Node41 -->
<g id="node41" class="node">
<title>Node41</title>
<g id="a_node41"><a xlink:href="VLReceiver_8cpp.html" target="_top" xlink:title=" ">
<polygon fill="none" stroke="black" points="4403.5,-67.5 4403.5,-97.5 4546.5,-97.5 4546.5,-67.5 4403.5,-67.5"/>
<text text-anchor="start" x="4411.5" y="-85.5" font-family="Helvetica,sans-Serif" font-size="10.00">VortexEngine/src/Wireless</text>
<text text-anchor="middle" x="4475" y="-74.5" font-family="Helvetica,sans-Serif" font-size="10.00">/VLReceiver.cpp</text>
</a>
</g>
</g>
<!-- Node1&#45;&gt;Node41 -->
<g id="edge47" class="edge">
<title>Node1&#45;&gt;Node41</title>
<path fill="none" stroke="midnightblue" d="M2217,-148.4C2557.29,-147.71 3958.45,-142.18 4395,-98 4397.67,-97.73 4400.38,-97.42 4403.12,-97.08"/>
<polygon fill="midnightblue" stroke="midnightblue" points="2216.76,-144.9 2206.76,-148.42 2216.77,-151.9 2216.76,-144.9"/>
</g>
<!-- Node42 -->
<g id="node42" class="node">
<title>Node42</title>
<g id="a_node42"><a xlink:href="VLSender_8h.html" target="_top" xlink:title=" ">
<polygon fill="none" stroke="black" points="4564.5,-67.5 4564.5,-97.5 4707.5,-97.5 4707.5,-67.5 4564.5,-67.5"/>
<text text-anchor="start" x="4572.5" y="-85.5" font-family="Helvetica,sans-Serif" font-size="10.00">VortexEngine/src/Wireless</text>
<text text-anchor="middle" x="4636" y="-74.5" font-family="Helvetica,sans-Serif" font-size="10.00">/VLSender.h</text>
</a>
</g>
</g>
<!-- Node1&#45;&gt;Node42 -->
<g id="edge48" class="edge">
<title>Node1&#45;&gt;Node42</title>
<path fill="none" stroke="midnightblue" d="M2216.78,-148.53C2571.37,-148.44 4085.81,-145.23 4556,-98 4558.67,-97.73 4561.38,-97.42 4564.12,-97.08"/>
<polygon fill="midnightblue" stroke="midnightblue" points="2216.62,-145.03 2206.63,-148.53 2216.63,-152.03 2216.62,-145.03"/>
</g>
<!-- Node5&#45;&gt;Node4 -->
<g id="edge5" class="edge">
<title>Node5&#45;&gt;Node4</title>
<path fill="none" stroke="midnightblue" d="M367.19,-64.09C337.16,-53.6 299.41,-40.41 271.28,-30.58"/>
<polygon fill="midnightblue" stroke="midnightblue" points="366.05,-67.4 376.64,-67.4 368.36,-60.79 366.05,-67.4"/>
</g>
<!-- Node6 -->
<g id="node6" class="node">
<title>Node6</title>
<g id="a_node6"><a xlink:href="Menus_8cpp.html" target="_top" xlink:title=" ">
<polygon fill="none" stroke="black" points="334,-0.5 334,-30.5 468,-30.5 468,-0.5 334,-0.5"/>
<text text-anchor="start" x="342" y="-18.5" font-family="Helvetica,sans-Serif" font-size="10.00">VortexEngine/src/Menus</text>
<text text-anchor="middle" x="401" y="-7.5" font-family="Helvetica,sans-Serif" font-size="10.00">/Menus.cpp</text>
</a>
</g>
</g>
<!-- Node5&#45;&gt;Node6 -->
<g id="edge6" class="edge">
<title>Node5&#45;&gt;Node6</title>
<path fill="none" stroke="midnightblue" d="M411.07,-57.4C408.84,-48.37 406.39,-38.41 404.46,-30.58"/>
<polygon fill="midnightblue" stroke="midnightblue" points="407.74,-58.52 413.53,-67.4 414.54,-56.85 407.74,-58.52"/>
</g>
<!-- Node10&#45;&gt;Node4 -->
<g id="edge14" class="edge">
<title>Node10&#45;&gt;Node4</title>
<path fill="none" stroke="midnightblue" d="M731.63,-71.35C719.38,-69.83 706.85,-68.33 695,-67 530.81,-48.57 488.93,-51.6 325,-31 322.05,-30.63 319.05,-30.24 316.02,-29.83"/>
<polygon fill="midnightblue" stroke="midnightblue" points="731.47,-74.85 741.83,-72.62 732.34,-67.91 731.47,-74.85"/>
</g>
<!-- Node10&#45;&gt;Node6 -->
<g id="edge20" class="edge">
<title>Node10&#45;&gt;Node6</title>
<path fill="none" stroke="midnightblue" d="M731.69,-70.58C664.31,-60.86 564.04,-45.92 477,-31 474.09,-30.5 471.11,-29.98 468.11,-29.45"/>
<polygon fill="midnightblue" stroke="midnightblue" points="731.4,-74.07 741.8,-72.03 732.4,-67.15 731.4,-74.07"/>
</g>
<!-- Node10&#45;&gt;Node7 -->
<g id="edge17" class="edge">
<title>Node10&#45;&gt;Node7</title>
<path fill="none" stroke="midnightblue" d="M780.11,-61.73C765.41,-51.68 747.89,-39.68 734.57,-30.58"/>
<polygon fill="midnightblue" stroke="midnightblue" points="778.16,-64.64 788.39,-67.4 782.11,-58.86 778.16,-64.64"/>
</g>
<!-- Node10&#45;&gt;Node9 -->
<g id="edge21" class="edge">
<title>Node10&#45;&gt;Node9</title>
<path fill="none" stroke="midnightblue" d="M743.95,-64.98C702.14,-54.37 648.39,-40.72 608.58,-30.61"/>
<polygon fill="midnightblue" stroke="midnightblue" points="743.21,-68.41 753.77,-67.48 744.94,-61.62 743.21,-68.41"/>
</g>
<!-- Node11 -->
<g id="node11" class="node">
<title>Node11</title>
<g id="a_node11"><a xlink:href="Leds_8cpp.html" target="_top" xlink:title=" ">
<polygon fill="none" stroke="black" points="1812,-0.5 1812,-30.5 1936,-30.5 1936,-0.5 1812,-0.5"/>
<text text-anchor="start" x="1820" y="-18.5" font-family="Helvetica,sans-Serif" font-size="10.00">VortexEngine/src/Leds</text>
<text text-anchor="middle" x="1874" y="-7.5" font-family="Helvetica,sans-Serif" font-size="10.00">/Leds.cpp</text>
</a>
</g>
</g>
<!-- Node10&#45;&gt;Node11 -->
<g id="edge11" class="edge">
<title>Node10&#45;&gt;Node11</title>
<path fill="none" stroke="midnightblue" d="M886,-67.02C1291.97,-21.59 1400.28,-79.03 1802,-31 1805.17,-30.62 1808.4,-30.18 1811.66,-29.69"/>
<polygon fill="midnightblue" stroke="midnightblue" points="885.6,-63.54 876.05,-68.14 886.38,-70.5 885.6,-63.54"/>
</g>
<!-- Node12 -->
<g id="node12" class="node">
<title>Node12</title>
<g id="a_node12"><a xlink:href="Menu_8cpp.html" target="_top" xlink:title=" ">
<polygon fill="none" stroke="black" points="808,-0.5 808,-30.5 942,-30.5 942,-0.5 808,-0.5"/>
<text text-anchor="start" x="816" y="-18.5" font-family="Helvetica,sans-Serif" font-size="10.00">VortexEngine/src/Menus</text>
<text text-anchor="middle" x="875" y="-7.5" font-family="Helvetica,sans-Serif" font-size="10.00">/Menu.cpp</text>
</a>
</g>
</g>
<!-- Node10&#45;&gt;Node12 -->
<g id="edge12" class="edge">
<title>Node10&#45;&gt;Node12</title>
<path fill="none" stroke="midnightblue" d="M830.51,-60.31C840.41,-50.56 851.89,-39.26 860.71,-30.58"/>
<polygon fill="midnightblue" stroke="midnightblue" points="827.99,-57.89 823.32,-67.4 832.9,-62.87 827.99,-57.89"/>
</g>
<!-- Node13 -->
<g id="node13" class="node">
<title>Node13</title>
<g id="a_node13"><a xlink:href="ColorSelect_8cpp.html" target="_top" xlink:title=" ">
<polygon fill="none" stroke="black" points="960.5,-0.5 960.5,-30.5 1103.5,-30.5 1103.5,-0.5 960.5,-0.5"/>
<text text-anchor="start" x="968.5" y="-18.5" font-family="Helvetica,sans-Serif" font-size="10.00">VortexEngine/src/Menus</text>
<text text-anchor="middle" x="1032" y="-7.5" font-family="Helvetica,sans-Serif" font-size="10.00">/MenuList/ColorSelect.cpp</text>
</a>
</g>
</g>
<!-- Node10&#45;&gt;Node13 -->
<g id="edge13" class="edge">
<title>Node10&#45;&gt;Node13</title>
<path fill="none" stroke="midnightblue" d="M867.05,-64.58C903.27,-54.02 949.35,-40.59 983.59,-30.61"/>
<polygon fill="midnightblue" stroke="midnightblue" points="865.73,-61.32 857.11,-67.48 867.69,-68.04 865.73,-61.32"/>
</g>
<!-- Node14 -->
<g id="node14" class="node">
<title>Node14</title>
<g id="a_node14"><a xlink:href="FactoryReset_8cpp.html" target="_top" xlink:title=" ">
<polygon fill="none" stroke="black" points="1122,-0.5 1122,-30.5 1272,-30.5 1272,-0.5 1122,-0.5"/>
<text text-anchor="start" x="1130" y="-18.5" font-family="Helvetica,sans-Serif" font-size="10.00">VortexEngine/src/Menus</text>
<text text-anchor="middle" x="1197" y="-7.5" font-family="Helvetica,sans-Serif" font-size="10.00">/MenuList/FactoryReset.cpp</text>
</a>
</g>
</g>
<!-- Node10&#45;&gt;Node14 -->
<g id="edge15" class="edge">
<title>Node10&#45;&gt;Node14</title>
<path fill="none" stroke="midnightblue" d="M886.14,-66.83C987.3,-49.3 1014.36,-47.07 1112,-31 1115.25,-30.47 1118.57,-29.92 1121.92,-29.36"/>
<polygon fill="midnightblue" stroke="midnightblue" points="885.37,-63.41 876.12,-68.58 886.57,-70.31 885.37,-63.41"/>
</g>
<!-- Node15 -->
<g id="node15" class="node">
<title>Node15</title>
<g id="a_node15"><a xlink:href="GlobalBrightness_8cpp.html" target="_top" xlink:title=" ">
<polygon fill="none" stroke="black" points="1290,-0.5 1290,-30.5 1460,-30.5 1460,-0.5 1290,-0.5"/>
<text text-anchor="start" x="1298" y="-18.5" font-family="Helvetica,sans-Serif" font-size="10.00">VortexEngine/src/Menus</text>
<text text-anchor="middle" x="1375" y="-7.5" font-family="Helvetica,sans-Serif" font-size="10.00">/MenuList/GlobalBrightness.cpp</text>
</a>
</g>
</g>
<!-- Node10&#45;&gt;Node15 -->
<g id="edge16" class="edge">
<title>Node10&#45;&gt;Node15</title>
<path fill="none" stroke="midnightblue" d="M886.17,-66.93C1061.74,-42.77 1108.84,-52.08 1281,-31 1283.95,-30.64 1286.95,-30.26 1289.98,-29.86"/>
<polygon fill="midnightblue" stroke="midnightblue" points="885.5,-63.49 876.08,-68.33 886.46,-70.42 885.5,-63.49"/>
</g>
<!-- Node16 -->
<g id="node16" class="node">
<title>Node16</title>
<g id="a_node16"><a xlink:href="PatternSelect_8cpp.html" target="_top" xlink:title=" ">
<polygon fill="none" stroke="black" points="1478,-0.5 1478,-30.5 1630,-30.5 1630,-0.5 1478,-0.5"/>
<text text-anchor="start" x="1486" y="-18.5" font-family="Helvetica,sans-Serif" font-size="10.00">VortexEngine/src/Menus</text>
<text text-anchor="middle" x="1554" y="-7.5" font-family="Helvetica,sans-Serif" font-size="10.00">/MenuList/PatternSelect.cpp</text>
</a>
</g>
</g>
<!-- Node10&#45;&gt;Node16 -->
<g id="edge18" class="edge">
<title>Node10&#45;&gt;Node16</title>
<path fill="none" stroke="midnightblue" d="M886.13,-66.97C1144.77,-35.23 1213.96,-60.53 1469,-31 1471.83,-30.67 1474.7,-30.31 1477.6,-29.93"/>
<polygon fill="midnightblue" stroke="midnightblue" points="885.55,-63.52 876.06,-68.23 886.42,-70.47 885.55,-63.52"/>
</g>
<!-- Node17 -->
<g id="node17" class="node">
<title>Node17</title>
<g id="a_node17"><a xlink:href="Randomizer_8cpp.html" target="_top" xlink:title=" ">
<polygon fill="none" stroke="black" points="1648.5,-0.5 1648.5,-30.5 1793.5,-30.5 1793.5,-0.5 1648.5,-0.5"/>
<text text-anchor="start" x="1656.5" y="-18.5" font-family="Helvetica,sans-Serif" font-size="10.00">VortexEngine/src/Menus</text>
<text text-anchor="middle" x="1721" y="-7.5" font-family="Helvetica,sans-Serif" font-size="10.00">/MenuList/Randomizer.cpp</text>
</a>
</g>
</g>
<!-- Node10&#45;&gt;Node17 -->
<g id="edge19" class="edge">
<title>Node10&#45;&gt;Node17</title>
<path fill="none" stroke="midnightblue" d="M886.01,-67.01C1219.89,-28.25 1308.84,-67.92 1639,-31 1642.02,-30.66 1645.09,-30.28 1648.19,-29.87"/>
<polygon fill="midnightblue" stroke="midnightblue" points="885.58,-63.53 876.06,-68.18 886.4,-70.48 885.58,-63.53"/>
</g>
<!-- Node18 -->
<g id="node18" class="node">
<title>Node18</title>
<g id="a_node18"><a xlink:href="VortexEngine_8cpp.html" target="_top" xlink:title=" ">
<polygon fill="none" stroke="black" points="4118,-6 4118,-25 4304,-25 4304,-6 4118,-6"/>
<text text-anchor="middle" x="4211" y="-13" font-family="Helvetica,sans-Serif" font-size="10.00">VortexEngine/src/VortexEngine.cpp</text>
</a>
</g>
</g>
<!-- Node10&#45;&gt;Node18 -->
<g id="edge22" class="edge">
<title>Node10&#45;&gt;Node18</title>
<path fill="none" stroke="midnightblue" d="M886.25,-67.07C1259.25,-33.14 3617.98,-19.49 4117.96,-16.95"/>
<polygon fill="midnightblue" stroke="midnightblue" points="885.66,-63.61 876.04,-68.06 886.33,-70.58 885.66,-63.61"/>
</g>
<!-- Node39&#45;&gt;Node7 -->
<g id="edge44" class="edge">
<title>Node39&#45;&gt;Node7</title>
<path fill="none" stroke="midnightblue" d="M4231.93,-66.93C3457.25,4.41 1555.96,-99.1 799,-31 796.02,-30.73 792.98,-30.42 789.92,-30.06"/>
<polygon fill="midnightblue" stroke="midnightblue" points="4231.84,-70.43 4242.12,-67.88 4232.49,-63.46 4231.84,-70.43"/>
</g>
<!-- Node39&#45;&gt;Node18 -->
<g id="edge45" class="edge">
<title>Node39&#45;&gt;Node18</title>
<path fill="none" stroke="midnightblue" d="M4283.06,-61.97C4263.53,-49.65 4239.28,-34.35 4224.48,-25.01"/>
<polygon fill="midnightblue" stroke="midnightblue" points="4281.33,-65.02 4291.65,-67.4 4285.06,-59.1 4281.33,-65.02"/>
</g>
<!-- Node40 -->
<g id="node40" class="node">
<title>Node40</title>
<g id="a_node40"><a xlink:href="IRSender_8cpp.html" target="_top" xlink:title=" ">
<polygon fill="none" stroke="black" points="4322.5,-0.5 4322.5,-30.5 4465.5,-30.5 4465.5,-0.5 4322.5,-0.5"/>
<text text-anchor="start" x="4330.5" y="-18.5" font-family="Helvetica,sans-Serif" font-size="10.00">VortexEngine/src/Wireless</text>
<text text-anchor="middle" x="4394" y="-7.5" font-family="Helvetica,sans-Serif" font-size="10.00">/IRSender.cpp</text>
</a>
</g>
</g>
<!-- Node39&#45;&gt;Node40 -->
<g id="edge46" class="edge">
<title>Node39&#45;&gt;Node40</title>
<path fill="none" stroke="midnightblue" d="M4339.37,-60.88C4351.53,-51.01 4365.78,-39.43 4376.68,-30.58"/>
<polygon fill="midnightblue" stroke="midnightblue" points="4336.91,-58.37 4331.36,-67.4 4341.33,-63.81 4336.91,-58.37"/>
</g>
<!-- Node42&#45;&gt;Node18 -->
<g id="edge49" class="edge">
<title>Node42&#45;&gt;Node18</title>
<path fill="none" stroke="midnightblue" d="M4554.4,-66.78C4487.62,-56.1 4350.5,-36.38 4271,-25.03"/>
<polygon fill="midnightblue" stroke="midnightblue" points="4554.06,-70.27 4564.49,-68.41 4555.18,-63.36 4554.06,-70.27"/>
</g>
<!-- Node43 -->
<g id="node43" class="node">
<title>Node43</title>
<g id="a_node43"><a xlink:href="VLSender_8cpp.html" target="_top" xlink:title=" ">
<polygon fill="none" stroke="black" points="4564.5,-0.5 4564.5,-30.5 4707.5,-30.5 4707.5,-0.5 4564.5,-0.5"/>
<text text-anchor="start" x="4572.5" y="-18.5" font-family="Helvetica,sans-Serif" font-size="10.00">VortexEngine/src/Wireless</text>
<text text-anchor="middle" x="4636" y="-7.5" font-family="Helvetica,sans-Serif" font-size="10.00">/VLSender.cpp</text>
</a>
</g>
</g>
<!-- Node42&#45;&gt;Node43 -->
<g id="edge50" class="edge">
<title>Node42&#45;&gt;Node43</title>
<path fill="none" stroke="midnightblue" d="M4636,-57.11C4636,-48.15 4636,-38.32 4636,-30.58"/>
<polygon fill="midnightblue" stroke="midnightblue" points="4632.5,-57.4 4636,-67.4 4639.5,-57.4 4632.5,-57.4"/>
</g>
</g>
</svg>
