<?xml version="1.0" encoding="UTF-8" standalone="no"?>
<!DOCTYPE svg PUBLIC "-//W3C//DTD SVG 1.1//EN"
 "http://www.w3.org/Graphics/SVG/1.1/DTD/svg11.dtd">
<!-- Generated by graphviz version 2.43.0 (0)
 -->
<!-- Title: Sequence Pages: 1 -->
<svg width="209pt" height="296pt"
 viewBox="0.00 0.00 209.00 296.00" xmlns="http://www.w3.org/2000/svg" xmlns:xlink="http://www.w3.org/1999/xlink">
<g id="graph0" class="graph" transform="scale(1 1) rotate(0) translate(4 292)">
<title>Sequence</title>
<!-- Node1 -->
<g id="node1" class="node">
<title>Node1</title>
<g id="a_node1"><a xlink:title=" ">
<polygon fill="#bfbfbf" stroke="black" points="58,-0.5 58,-19.5 122,-19.5 122,-0.5 58,-0.5"/>
<text text-anchor="middle" x="90" y="-7.5" font-family="Helvetica,sans-Serif" font-size="10.00">Sequence</text>
</a>
</g>
</g>
<!-- Node2 -->
<g id="node2" class="node">
<title>Node2</title>
<g id="a_node2"><a xlink:href="classSequenceStep.html" target="_top" xlink:title=" ">
<polygon fill="none" stroke="black" points="47,-67.5 47,-86.5 133,-86.5 133,-67.5 47,-67.5"/>
<text text-anchor="middle" x="90" y="-74.5" font-family="Helvetica,sans-Serif" font-size="10.00">SequenceStep</text>
</a>
</g>
</g>
<!-- Node2&#45;&gt;Node1 -->
<g id="edge1" class="edge">
<title>Node2&#45;&gt;Node1</title>
<path fill="none" stroke="#9a32cd" stroke-dasharray="5,2" d="M90,-57.04C90,-44.67 90,-29.12 90,-19.63"/>
<polygon fill="#9a32cd" stroke="#9a32cd" points="86.5,-57.23 90,-67.23 93.5,-57.23 86.5,-57.23"/>
<text text-anchor="middle" x="136" y="-41" font-family="Helvetica,sans-Serif" font-size="10.00"> m_sequenceSteps</text>
</g>
<!-- Node3 -->
<g id="node3" class="node">
<title>Node3</title>
<g id="a_node3"><a xlink:href="classColorsetMap.html" target="_top" xlink:title=" ">
<polygon fill="none" stroke="black" points="0,-134.5 0,-153.5 78,-153.5 78,-134.5 0,-134.5"/>
<text text-anchor="middle" x="39" y="-141.5" font-family="Helvetica,sans-Serif" font-size="10.00">ColorsetMap</text>
</a>
</g>
</g>
<!-- Node3&#45;&gt;Node2 -->
<g id="edge2" class="edge">
<title>Node3&#45;&gt;Node2</title>
<path fill="none" stroke="#9a32cd" stroke-dasharray="5,2" d="M35.82,-124.37C35.61,-117.82 36.5,-110.69 40,-105 45.11,-96.68 53.75,-90.76 62.42,-86.62"/>
<polygon fill="#9a32cd" stroke="#9a32cd" points="32.36,-124.9 36.93,-134.46 39.32,-124.14 32.36,-124.9"/>
<text text-anchor="middle" x="79.5" y="-108" font-family="Helvetica,sans-Serif" font-size="10.00"> m_colorsetMap</text>
</g>
<!-- Node4 -->
<g id="node4" class="node">
<title>Node4</title>
<g id="a_node4"><a xlink:href="classColorset.html" target="_top" xlink:title=" ">
<polygon fill="none" stroke="black" points="10.5,-201.5 10.5,-220.5 67.5,-220.5 67.5,-201.5 10.5,-201.5"/>
<text text-anchor="middle" x="39" y="-208.5" font-family="Helvetica,sans-Serif" font-size="10.00">Colorset</text>
</a>
</g>
</g>
<!-- Node4&#45;&gt;Node3 -->
<g id="edge3" class="edge">
<title>Node4&#45;&gt;Node3</title>
<path fill="none" stroke="#9a32cd" stroke-dasharray="5,2" d="M39,-191.04C39,-178.67 39,-163.12 39,-153.63"/>
<polygon fill="#9a32cd" stroke="#9a32cd" points="35.5,-191.23 39,-201.23 42.5,-191.23 35.5,-191.23"/>
<text text-anchor="middle" x="78.5" y="-175" font-family="Helvetica,sans-Serif" font-size="10.00"> m_colorsetMap</text>
</g>
<!-- Node5 -->
<g id="node5" class="node">
<title>Node5</title>
<g id="a_node5"><a xlink:href="classRGBColor.html" target="_top" xlink:title=" ">
<polygon fill="none" stroke="black" points="7.5,-268.5 7.5,-287.5 70.5,-287.5 70.5,-268.5 7.5,-268.5"/>
<text text-anchor="middle" x="39" y="-275.5" font-family="Helvetica,sans-Serif" font-size="10.00">RGBColor</text>
</a>
</g>
</g>
<!-- Node5&#45;&gt;Node4 -->
<g id="edge4" class="edge">
<title>Node5&#45;&gt;Node4</title>
<path fill="none" stroke="#9a32cd" stroke-dasharray="5,2" d="M39,-258.04C39,-245.67 39,-230.12 39,-220.63"/>
<polygon fill="#9a32cd" stroke="#9a32cd" points="35.5,-258.23 39,-268.23 42.5,-258.23 35.5,-258.23"/>
<text text-anchor="middle" x="65.5" y="-242" font-family="Helvetica,sans-Serif" font-size="10.00"> m_palette</text>
</g>
<!-- Node6 -->
<g id="node6" class="node">
<title>Node6</title>
<g id="a_node6"><a xlink:href="classPatternMap.html" target="_top" xlink:title=" ">
<polygon fill="none" stroke="black" points="105,-134.5 105,-153.5 177,-153.5 177,-134.5 105,-134.5"/>
<text text-anchor="middle" x="141" y="-141.5" font-family="Helvetica,sans-Serif" font-size="10.00">PatternMap</text>
</a>
</g>
</g>
<!-- Node6&#45;&gt;Node2 -->
<g id="edge5" class="edge">
<title>Node6&#45;&gt;Node2</title>
<path fill="none" stroke="#9a32cd" stroke-dasharray="5,2" d="M132.25,-125.43C128.57,-118.75 123.98,-111.25 119,-105 113.6,-98.22 106.49,-91.58 100.66,-86.57"/>
<polygon fill="#9a32cd" stroke="#9a32cd" points="129.21,-127.16 136.94,-134.39 135.41,-123.91 129.21,-127.16"/>
<text text-anchor="middle" x="163.5" y="-108" font-family="Helvetica,sans-Serif" font-size="10.00"> m_patternMap</text>
</g>
</g>
</svg>
