<?xml version="1.0" encoding="UTF-8" standalone="no"?>
<!DOCTYPE svg PUBLIC "-//W3C//DTD SVG 1.1//EN"
 "http://www.w3.org/Graphics/SVG/1.1/DTD/svg11.dtd">
<!-- Generated by graphviz version 2.43.0 (0)
 -->
<!-- Title: VortexEngine/src/Colors/ColorTypes.cpp Pages: 1 -->
<svg width="259pt" height="263pt"
 viewBox="0.00 0.00 259.00 263.00" xmlns="http://www.w3.org/2000/svg" xmlns:xlink="http://www.w3.org/1999/xlink">
<g id="graph0" class="graph" transform="scale(1 1) rotate(0) translate(4 259)">
<title>VortexEngine/src/Colors/ColorTypes.cpp</title>
<!-- Node1 -->
<g id="node1" class="node">
<title>Node1</title>
<g id="a_node1"><a xlink:title=" ">
<polygon fill="#bfbfbf" stroke="black" points="60,-224.5 60,-254.5 192,-254.5 192,-224.5 60,-224.5"/>
<text text-anchor="start" x="68" y="-242.5" font-family="Helvetica,sans-Serif" font-size="10.00">VortexEngine/src/Colors</text>
<text text-anchor="middle" x="126" y="-231.5" font-family="Helvetica,sans-Serif" font-size="10.00">/ColorTypes.cpp</text>
</a>
</g>
</g>
<!-- Node2 -->
<g id="node2" class="node">
<title>Node2</title>
<g id="a_node2"><a xlink:href="ColorTypes_8h.html" target="_top" xlink:title=" ">
<polygon fill="none" stroke="black" points="27.5,-168.5 27.5,-187.5 106.5,-187.5 106.5,-168.5 27.5,-168.5"/>
<text text-anchor="middle" x="67" y="-175.5" font-family="Helvetica,sans-Serif" font-size="10.00">ColorTypes.h</text>
</a>
</g>
</g>
<!-- Node1&#45;&gt;Node2 -->
<g id="edge1" class="edge">
<title>Node1&#45;&gt;Node2</title>
<path fill="none" stroke="midnightblue" d="M112.02,-224.4C103.27,-215.58 91.97,-204.18 82.88,-195.02"/>
<polygon fill="midnightblue" stroke="midnightblue" points="85.11,-192.29 75.59,-187.66 80.14,-197.22 85.11,-192.29"/>
</g>
<!-- Node6 -->
<g id="node6" class="node">
<title>Node6</title>
<g id="a_node6"><a xlink:href="ByteStream_8h.html" target="_top" xlink:title=" ">
<polygon fill="none" stroke="black" points="124.5,-168.5 124.5,-187.5 247.5,-187.5 247.5,-168.5 124.5,-168.5"/>
<text text-anchor="middle" x="186" y="-175.5" font-family="Helvetica,sans-Serif" font-size="10.00">../Serial/ByteStream.h</text>
</a>
</g>
</g>
<!-- Node1&#45;&gt;Node6 -->
<g id="edge6" class="edge">
<title>Node1&#45;&gt;Node6</title>
<path fill="none" stroke="midnightblue" d="M140.22,-224.4C149.21,-215.49 160.84,-203.95 170.13,-194.74"/>
<polygon fill="midnightblue" stroke="midnightblue" points="172.63,-197.18 177.27,-187.66 167.7,-192.21 172.63,-197.18"/>
</g>
<!-- Node3 -->
<g id="node3" class="node">
<title>Node3</title>
<g id="a_node3"><a xlink:title=" ">
<polygon fill="none" stroke="#bfbfbf" points="95.5,-112.5 95.5,-131.5 160.5,-131.5 160.5,-112.5 95.5,-112.5"/>
<text text-anchor="middle" x="128" y="-119.5" font-family="Helvetica,sans-Serif" font-size="10.00">inttypes.h</text>
</a>
</g>
</g>
<!-- Node2&#45;&gt;Node3 -->
<g id="edge2" class="edge">
<title>Node2&#45;&gt;Node3</title>
<path fill="none" stroke="midnightblue" d="M76.8,-168.32C85.82,-160.34 99.41,-148.31 110.32,-138.65"/>
<polygon fill="midnightblue" stroke="midnightblue" points="112.85,-141.08 118.02,-131.83 108.21,-135.84 112.85,-141.08"/>
</g>
<!-- Node4 -->
<g id="node4" class="node">
<title>Node4</title>
<g id="a_node4"><a xlink:href="VortexConfig_8h.html" target="_top" xlink:title=" ">
<polygon fill="none" stroke="black" points="57.5,-56.5 57.5,-75.5 154.5,-75.5 154.5,-56.5 57.5,-56.5"/>
<text text-anchor="middle" x="106" y="-63.5" font-family="Helvetica,sans-Serif" font-size="10.00">../VortexConfig.h</text>
</a>
</g>
</g>
<!-- Node2&#45;&gt;Node4 -->
<g id="edge3" class="edge">
<title>Node2&#45;&gt;Node4</title>
<path fill="none" stroke="midnightblue" d="M69.32,-168.5C72.8,-155.99 79.73,-131.97 87,-112 90.3,-102.92 94.43,-93.01 97.99,-84.81"/>
<polygon fill="midnightblue" stroke="midnightblue" points="101.25,-86.09 102.1,-75.52 94.85,-83.25 101.25,-86.09"/>
</g>
<!-- Node5 -->
<g id="node5" class="node">
<title>Node5</title>
<g id="a_node5"><a xlink:href="ColorConstants_8h.html" target="_top" xlink:title=" ">
<polygon fill="none" stroke="black" points="0,-0.5 0,-19.5 134,-19.5 134,-0.5 0,-0.5"/>
<text text-anchor="middle" x="67" y="-7.5" font-family="Helvetica,sans-Serif" font-size="10.00">Colors/ColorConstants.h</text>
</a>
</g>
</g>
<!-- Node2&#45;&gt;Node5 -->
<g id="edge5" class="edge">
<title>Node2&#45;&gt;Node5</title>
<path fill="none" stroke="midnightblue" d="M63.75,-168.45C56.63,-148.6 40.93,-97.92 49,-56 50.79,-46.7 54.48,-36.89 58.06,-28.8"/>
<polygon fill="midnightblue" stroke="midnightblue" points="61.27,-30.2 62.38,-19.66 54.94,-27.21 61.27,-30.2"/>
</g>
<!-- Node4&#45;&gt;Node5 -->
<g id="edge4" class="edge">
<title>Node4&#45;&gt;Node5</title>
<path fill="none" stroke="midnightblue" d="M99.56,-56.08C94.05,-48.46 85.97,-37.26 79.24,-27.94"/>
<polygon fill="midnightblue" stroke="midnightblue" points="82.01,-25.81 73.32,-19.75 76.34,-29.91 82.01,-25.81"/>
</g>
<!-- Node6&#45;&gt;Node3 -->
<g id="edge7" class="edge">
<title>Node6&#45;&gt;Node3</title>
<path fill="none" stroke="midnightblue" d="M176.68,-168.32C168.11,-160.34 155.19,-148.31 144.81,-138.65"/>
<polygon fill="midnightblue" stroke="midnightblue" points="147.19,-136.09 137.49,-131.83 142.42,-141.21 147.19,-136.09"/>
</g>
<!-- Node7 -->
<g id="node7" class="node">
<title>Node7</title>
<g id="a_node7"><a xlink:href="Log_8h.html" target="_top" xlink:title=" ">
<polygon fill="none" stroke="black" points="179,-112.5 179,-131.5 251,-131.5 251,-112.5 179,-112.5"/>
<text text-anchor="middle" x="215" y="-119.5" font-family="Helvetica,sans-Serif" font-size="10.00">../Log/Log.h</text>
</a>
</g>
</g>
<!-- Node6&#45;&gt;Node7 -->
<g id="edge8" class="edge">
<title>Node6&#45;&gt;Node7</title>
<path fill="none" stroke="midnightblue" d="M190.79,-168.08C194.76,-160.69 200.53,-149.95 205.43,-140.81"/>
<polygon fill="midnightblue" stroke="midnightblue" points="208.65,-142.22 210.3,-131.75 202.49,-138.91 208.65,-142.22"/>
</g>
<!-- Node7&#45;&gt;Node4 -->
<g id="edge10" class="edge">
<title>Node7&#45;&gt;Node4</title>
<path fill="none" stroke="midnightblue" d="M197.49,-112.32C179.93,-103.62 152.67,-90.12 132.47,-80.11"/>
<polygon fill="midnightblue" stroke="midnightblue" points="133.98,-76.96 123.47,-75.65 130.88,-83.23 133.98,-76.96"/>
</g>
<!-- Node8 -->
<g id="node8" class="node">
<title>Node8</title>
<g id="a_node8"><a xlink:title=" ">
<polygon fill="none" stroke="#bfbfbf" points="187,-56.5 187,-75.5 243,-75.5 243,-56.5 187,-56.5"/>
<text text-anchor="middle" x="215" y="-63.5" font-family="Helvetica,sans-Serif" font-size="10.00">stdarg.h</text>
</a>
</g>
</g>
<!-- Node7&#45;&gt;Node8 -->
<g id="edge9" class="edge">
<title>Node7&#45;&gt;Node8</title>
<path fill="none" stroke="midnightblue" d="M215,-112.08C215,-105.01 215,-94.86 215,-85.99"/>
<polygon fill="midnightblue" stroke="midnightblue" points="218.5,-85.75 215,-75.75 211.5,-85.75 218.5,-85.75"/>
</g>
</g>
</svg>
