<?xml version="1.0" encoding="UTF-8" standalone="no"?>
<!DOCTYPE svg PUBLIC "-//W3C//DTD SVG 1.1//EN"
 "http://www.w3.org/Graphics/SVG/1.1/DTD/svg11.dtd">
<!-- Generated by graphviz version 2.43.0 (0)
 -->
<!-- Title: VortexEngine/src/Menus/MenuList/FactoryReset.cpp Pages: 1 -->
<!--zoomable 375 -->
<svg id="main" version="1.1" xmlns="http://www.w3.org/2000/svg" xmlns:xlink="http://www.w3.org/1999/xlink" xml:space="preserve" onload="init(evt)">
<style type="text/css"><![CDATA[
.edge:hover path { stroke: red; }
.edge:hover polygon { stroke: red; fill: red; }
]]></style>
<script type="text/javascript"><![CDATA[
var edges = document.getElementsByTagName('g');
if (edges && edges.length) {
  for (var i=0;i<edges.length;i++) {
    if (edges[i].id.substr(0,4)=='edge') {
      edges[i].setAttribute('class','edge');
    }
  }
}
]]></script>
        <defs>
                <circle id="rim" cx="0" cy="0" r="7"/>
                <circle id="rim2" cx="0" cy="0" r="3.5"/>
                <g id="zoomPlus">
                        <use xlink:href="#rim" fill="#404040">
                                <set attributeName="fill" to="#808080" begin="zoomplus.mouseover" end="zoomplus.mouseout"/>
                        </use>
                        <path d="M-4,0h8M0,-4v8" fill="none" stroke="white" stroke-width="1.5" pointer-events="none"/>
                </g>
                <g id="zoomMin">
                        <use xlink:href="#rim" fill="#404040">
                                <set attributeName="fill" to="#808080" begin="zoomminus.mouseover" end="zoomminus.mouseout"/>
                        </use>
                        <path d="M-4,0h8" fill="none" stroke="white" stroke-width="1.5" pointer-events="none"/>
                </g>
                <g id="dirArrow">
                        <path fill="none" stroke="white" stroke-width="1.5" d="M0,-3.0v7 M-2.5,-0.5L0,-3.0L2.5,-0.5"/>
                </g>
               <g id="resetDef">
                       <use xlink:href="#rim2" fill="#404040">
                               <set attributeName="fill" to="#808080" begin="reset.mouseover" end="reset.mouseout"/>
                       </use>
               </g>
        </defs>

<script type="text/javascript">
var viewWidth = 1227;
var viewHeight = 375;
var sectionId = 'dynsection-0';
</script>
<script xlink:href="svgpan.js"/>
<svg id="graph" class="graph">
<g id="viewport">
<title>VortexEngine/src/Menus/MenuList/FactoryReset.cpp</title>
<!-- Node1 -->
<g id="node1" class="node">
<title>Node1</title>
<g id="a_node1"><a xlink:title=" ">
<polygon fill="#bfbfbf" stroke="black" points="473,-336.5 473,-366.5 623,-366.5 623,-336.5 473,-336.5"/>
<text text-anchor="start" x="481" y="-354.5" font-family="Helvetica,sans-Serif" font-size="10.00">VortexEngine/src/Menus</text>
<text text-anchor="middle" x="548" y="-343.5" font-family="Helvetica,sans-Serif" font-size="10.00">/MenuList/FactoryReset.cpp</text>
</a>
</g>
</g>
<!-- Node2 -->
<g id="node2" class="node">
<title>Node2</title>
<g id="a_node2"><a xlink:href="FactoryReset_8h.html" target="_top" xlink:title=" ">
<polygon fill="none" stroke="black" points="503.5,-280.5 503.5,-299.5 592.5,-299.5 592.5,-280.5 503.5,-280.5"/>
<text text-anchor="middle" x="548" y="-287.5" font-family="Helvetica,sans-Serif" font-size="10.00">FactoryReset.h</text>
</a>
</g>
</g>
<!-- Node1&#45;&gt;Node2 -->
<g id="edge1" class="edge">
<title>Node1&#45;&gt;Node2</title>
<path fill="none" stroke="midnightblue" d="M548,-336.4C548,-328.47 548,-318.46 548,-309.86"/>
<polygon fill="midnightblue" stroke="midnightblue" points="551.5,-309.66 548,-299.66 544.5,-309.66 551.5,-309.66"/>
</g>
<!-- Node6 -->
<g id="node6" class="node">
<title>Node6</title>
<g id="a_node6"><a xlink:href="VortexConfig_8h.html" target="_top" xlink:title=" ">
<polygon fill="none" stroke="black" points="256.5,-56.5 256.5,-75.5 353.5,-75.5 353.5,-56.5 256.5,-56.5"/>
<text text-anchor="middle" x="305" y="-63.5" font-family="Helvetica,sans-Serif" font-size="10.00">../VortexConfig.h</text>
</a>
</g>
</g>
<!-- Node1&#45;&gt;Node6 -->
<g id="edge53" class="edge">
<title>Node1&#45;&gt;Node6</title>
<path fill="none" stroke="midnightblue" d="M472.95,-350.16C322.87,-347.46 0,-330.53 0,-235 0,-235 0,-235 0,-177 0,-129.79 41.09,-131.67 84,-112 135.96,-88.19 200.51,-76.9 246.4,-71.6"/>
<polygon fill="midnightblue" stroke="midnightblue" points="246.92,-75.06 256.48,-70.49 246.16,-68.1 246.92,-75.06"/>
</g>
<!-- Node10 -->
<g id="node10" class="node">
<title>Node10</title>
<g id="a_node10"><a xlink:href="Mode_8h.html" target="_top" xlink:title=" ">
<polygon fill="none" stroke="black" points="254.5,-168.5 254.5,-187.5 351.5,-187.5 351.5,-168.5 254.5,-168.5"/>
<text text-anchor="middle" x="303" y="-175.5" font-family="Helvetica,sans-Serif" font-size="10.00">../Modes/Mode.h</text>
</a>
</g>
</g>
<!-- Node1&#45;&gt;Node10 -->
<g id="edge50" class="edge">
<title>Node1&#45;&gt;Node10</title>
<path fill="none" stroke="midnightblue" d="M527.95,-336.47C482.09,-304.37 369.95,-225.87 323.59,-193.41"/>
<polygon fill="midnightblue" stroke="midnightblue" points="325.43,-190.43 315.23,-187.56 321.41,-196.16 325.43,-190.43"/>
</g>
<!-- Node12 -->
<g id="node12" class="node">
<title>Node12</title>
<g id="a_node12"><a xlink:href="TimeControl_8h.html" target="_top" xlink:title=" ">
<polygon fill="none" stroke="black" points="66.5,-168.5 66.5,-187.5 197.5,-187.5 197.5,-168.5 66.5,-168.5"/>
<text text-anchor="middle" x="132" y="-175.5" font-family="Helvetica,sans-Serif" font-size="10.00">../../Time/TimeControl.h</text>
</a>
</g>
</g>
<!-- Node1&#45;&gt;Node12 -->
<g id="edge18" class="edge">
<title>Node1&#45;&gt;Node12</title>
<path fill="none" stroke="midnightblue" d="M513.96,-336.47C434.47,-303.7 237.7,-222.58 162.18,-191.44"/>
<polygon fill="midnightblue" stroke="midnightblue" points="163.34,-188.14 152.76,-187.56 160.67,-194.61 163.34,-188.14"/>
</g>
<!-- Node13 -->
<g id="node13" class="node">
<title>Node13</title>
<g id="a_node13"><a xlink:href="Timings_8h.html" target="_top" xlink:title=" ">
<polygon fill="none" stroke="black" points="52,-224.5 52,-243.5 162,-243.5 162,-224.5 52,-224.5"/>
<text text-anchor="middle" x="107" y="-231.5" font-family="Helvetica,sans-Serif" font-size="10.00">../../Time/Timings.h</text>
</a>
</g>
</g>
<!-- Node1&#45;&gt;Node13 -->
<g id="edge22" class="edge">
<title>Node1&#45;&gt;Node13</title>
<path fill="none" stroke="midnightblue" d="M472.9,-345.73C379.76,-338.89 227.03,-324.35 176,-300 152.66,-288.86 131.97,-266.9 119.48,-251.61"/>
<polygon fill="midnightblue" stroke="midnightblue" points="122.04,-249.2 113.11,-243.5 116.53,-253.53 122.04,-249.2"/>
</g>
<!-- Node14 -->
<g id="node14" class="node">
<title>Node14</title>
<g id="a_node14"><a xlink:href="Colorset_8h.html" target="_top" xlink:title=" ">
<polygon fill="none" stroke="black" points="573,-168.5 573,-187.5 691,-187.5 691,-168.5 573,-168.5"/>
<text text-anchor="middle" x="632" y="-175.5" font-family="Helvetica,sans-Serif" font-size="10.00">../../Colors/Colorset.h</text>
</a>
</g>
</g>
<!-- Node1&#45;&gt;Node14 -->
<g id="edge25" class="edge">
<title>Node1&#45;&gt;Node14</title>
<path fill="none" stroke="midnightblue" d="M567.55,-336.41C578.9,-327.25 592.58,-314.36 601,-300 620.22,-267.21 627.65,-222.61 630.43,-197.74"/>
<polygon fill="midnightblue" stroke="midnightblue" points="633.94,-197.82 631.43,-187.53 626.97,-197.14 633.94,-197.82"/>
</g>
<!-- Node15 -->
<g id="node15" class="node">
<title>Node15</title>
<g id="a_node15"><a xlink:href="Button_8h.html" target="_top" xlink:title=" ">
<polygon fill="none" stroke="black" points="1103,-280.5 1103,-299.5 1219,-299.5 1219,-280.5 1103,-280.5"/>
<text text-anchor="middle" x="1161" y="-287.5" font-family="Helvetica,sans-Serif" font-size="10.00">../../Buttons/Button.h</text>
</a>
</g>
</g>
<!-- Node1&#45;&gt;Node15 -->
<g id="edge28" class="edge">
<title>Node1&#45;&gt;Node15</title>
<path fill="none" stroke="midnightblue" d="M623.34,-344.22C727.94,-335.32 923.02,-318.12 1089,-300 1090.27,-299.86 1091.55,-299.72 1092.84,-299.58"/>
<polygon fill="midnightblue" stroke="midnightblue" points="1093.32,-303.04 1102.86,-298.43 1092.53,-296.09 1093.32,-303.04"/>
</g>
<!-- Node16 -->
<g id="node16" class="node">
<title>Node16</title>
<g id="a_node16"><a xlink:href="DefaultModes_8h.html" target="_top" xlink:title=" ">
<polygon fill="none" stroke="black" points="369.5,-168.5 369.5,-187.5 516.5,-187.5 516.5,-168.5 369.5,-168.5"/>
<text text-anchor="middle" x="443" y="-175.5" font-family="Helvetica,sans-Serif" font-size="10.00">../../Modes/DefaultModes.h</text>
</a>
</g>
</g>
<!-- Node1&#45;&gt;Node16 -->
<g id="edge30" class="edge">
<title>Node1&#45;&gt;Node16</title>
<path fill="none" stroke="midnightblue" d="M529.34,-336.43C517.96,-327.09 503.76,-314 494,-300 471.05,-267.08 455.55,-222.22 448.1,-197.41"/>
<polygon fill="midnightblue" stroke="midnightblue" points="451.39,-196.17 445.25,-187.53 444.66,-198.11 451.39,-196.17"/>
</g>
<!-- Node17 -->
<g id="node17" class="node">
<title>Node17</title>
<g id="a_node17"><a xlink:href="Modes_8h.html" target="_top" xlink:title=" ">
<polygon fill="none" stroke="black" points="815.5,-280.5 815.5,-299.5 926.5,-299.5 926.5,-280.5 815.5,-280.5"/>
<text text-anchor="middle" x="871" y="-287.5" font-family="Helvetica,sans-Serif" font-size="10.00">../../Modes/Modes.h</text>
</a>
</g>
</g>
<!-- Node1&#45;&gt;Node17 -->
<g id="edge33" class="edge">
<title>Node1&#45;&gt;Node17</title>
<path fill="none" stroke="midnightblue" d="M623.32,-336.62C681.81,-325.85 761.64,-311.15 814.68,-301.38"/>
<polygon fill="midnightblue" stroke="midnightblue" points="815.38,-304.8 824.58,-299.55 814.12,-297.92 815.38,-304.8"/>
</g>
<!-- Node19 -->
<g id="node19" class="node">
<title>Node19</title>
<g id="a_node19"><a xlink:href="Log_8h.html" target="_top" xlink:title=" ">
<polygon fill="none" stroke="black" points="709,-168.5 709,-187.5 781,-187.5 781,-168.5 709,-168.5"/>
<text text-anchor="middle" x="745" y="-175.5" font-family="Helvetica,sans-Serif" font-size="10.00">../Log/Log.h</text>
</a>
</g>
</g>
<!-- Node1&#45;&gt;Node19 -->
<g id="edge52" class="edge">
<title>Node1&#45;&gt;Node19</title>
<path fill="none" stroke="midnightblue" d="M570.08,-336.33C584.67,-326.65 603.99,-313.22 620,-300 662.08,-265.24 707.03,-219.27 729.84,-195.23"/>
<polygon fill="midnightblue" stroke="midnightblue" points="732.63,-197.37 736.94,-187.69 727.53,-192.57 732.63,-197.37"/>
</g>
<!-- Node21 -->
<g id="node21" class="node">
<title>Node21</title>
<g id="a_node21"><a xlink:href="Leds_8h.html" target="_top" xlink:title=" ">
<polygon fill="none" stroke="black" points="989.5,-168.5 989.5,-187.5 1072.5,-187.5 1072.5,-168.5 989.5,-168.5"/>
<text text-anchor="middle" x="1031" y="-175.5" font-family="Helvetica,sans-Serif" font-size="10.00">../Leds/Leds.h</text>
</a>
</g>
</g>
<!-- Node1&#45;&gt;Node21 -->
<g id="edge51" class="edge">
<title>Node1&#45;&gt;Node21</title>
<path fill="none" stroke="midnightblue" d="M623.05,-345.83C719.44,-338.95 880.8,-324.23 935,-300 969.81,-284.44 976.85,-274.3 1000,-244 1010.9,-229.73 1019.33,-211.02 1024.62,-197.33"/>
<polygon fill="midnightblue" stroke="midnightblue" points="1028.03,-198.21 1028.19,-187.62 1021.46,-195.8 1028.03,-198.21"/>
</g>
<!-- Node3 -->
<g id="node3" class="node">
<title>Node3</title>
<g id="a_node3"><a xlink:href="Menu_8h.html" target="_top" xlink:title=" ">
<polygon fill="none" stroke="black" points="517,-224.5 517,-243.5 579,-243.5 579,-224.5 517,-224.5"/>
<text text-anchor="middle" x="548" y="-231.5" font-family="Helvetica,sans-Serif" font-size="10.00">../Menu.h</text>
</a>
</g>
</g>
<!-- Node2&#45;&gt;Node3 -->
<g id="edge2" class="edge">
<title>Node2&#45;&gt;Node3</title>
<path fill="none" stroke="midnightblue" d="M548,-280.08C548,-273.01 548,-262.86 548,-253.99"/>
<polygon fill="midnightblue" stroke="midnightblue" points="551.5,-253.75 548,-243.75 544.5,-253.75 551.5,-253.75"/>
</g>
<!-- Node4 -->
<g id="node4" class="node">
<title>Node4</title>
<g id="a_node4"><a xlink:title=" ">
<polygon fill="none" stroke="#bfbfbf" points="794.5,-56.5 794.5,-75.5 859.5,-75.5 859.5,-56.5 794.5,-56.5"/>
<text text-anchor="middle" x="827" y="-63.5" font-family="Helvetica,sans-Serif" font-size="10.00">inttypes.h</text>
</a>
</g>
</g>
<!-- Node3&#45;&gt;Node4 -->
<g id="edge3" class="edge">
<title>Node3&#45;&gt;Node4</title>
<path fill="none" stroke="midnightblue" d="M579.17,-231.16C637.31,-227.1 759.24,-215.47 790,-188 819.4,-161.74 825.76,-112.84 826.94,-85.95"/>
<polygon fill="midnightblue" stroke="midnightblue" points="830.45,-85.67 827.18,-75.59 823.45,-85.51 830.45,-85.67"/>
</g>
<!-- Node5 -->
<g id="node5" class="node">
<title>Node5</title>
<g id="a_node5"><a xlink:href="ColorTypes_8h.html" target="_top" xlink:title=" ">
<polygon fill="none" stroke="black" points="848,-112.5 848,-131.5 970,-131.5 970,-112.5 848,-112.5"/>
<text text-anchor="middle" x="909" y="-119.5" font-family="Helvetica,sans-Serif" font-size="10.00">../Colors/ColorTypes.h</text>
</a>
</g>
</g>
<!-- Node3&#45;&gt;Node5 -->
<g id="edge4" class="edge">
<title>Node3&#45;&gt;Node5</title>
<path fill="none" stroke="midnightblue" d="M579.04,-232.72C631.44,-231.21 739.84,-223.62 823,-188 850.25,-176.33 876.7,-154.22 892.91,-139.05"/>
<polygon fill="midnightblue" stroke="midnightblue" points="895.62,-141.3 900.4,-131.85 890.77,-136.26 895.62,-141.3"/>
</g>
<!-- Node8 -->
<g id="node8" class="node">
<title>Node8</title>
<g id="a_node8"><a xlink:href="LedTypes_8h.html" target="_top" xlink:title=" ">
<polygon fill="none" stroke="black" points="306.5,-112.5 306.5,-131.5 411.5,-131.5 411.5,-112.5 306.5,-112.5"/>
<text text-anchor="middle" x="359" y="-119.5" font-family="Helvetica,sans-Serif" font-size="10.00">../Leds/LedTypes.h</text>
</a>
</g>
</g>
<!-- Node3&#45;&gt;Node8 -->
<g id="edge9" class="edge">
<title>Node3&#45;&gt;Node8</title>
<path fill="none" stroke="midnightblue" d="M547.44,-224.47C546.07,-210.59 541.33,-183.14 525,-168 509.58,-153.7 460.85,-141.51 420.16,-133.44"/>
<polygon fill="midnightblue" stroke="midnightblue" points="420.76,-129.99 410.27,-131.53 419.43,-136.86 420.76,-129.99"/>
</g>
<!-- Node3&#45;&gt;Node10 -->
<g id="edge13" class="edge">
<title>Node3&#45;&gt;Node10</title>
<path fill="none" stroke="midnightblue" d="M516.97,-226.16C475.29,-216.97 400.79,-200.55 351.62,-189.72"/>
<polygon fill="midnightblue" stroke="midnightblue" points="352.36,-186.3 341.84,-187.56 350.85,-193.13 352.36,-186.3"/>
</g>
<!-- Node5&#45;&gt;Node4 -->
<g id="edge5" class="edge">
<title>Node5&#45;&gt;Node4</title>
<path fill="none" stroke="midnightblue" d="M895.83,-112.32C883.15,-103.98 863.77,-91.21 848.79,-81.35"/>
<polygon fill="midnightblue" stroke="midnightblue" points="850.42,-78.23 840.14,-75.65 846.57,-84.08 850.42,-78.23"/>
</g>
<!-- Node5&#45;&gt;Node6 -->
<g id="edge6" class="edge">
<title>Node5&#45;&gt;Node6</title>
<path fill="none" stroke="midnightblue" d="M847.86,-115.92C712.61,-104.67 398.19,-78.47 375,-76 371.31,-75.61 367.51,-75.18 363.69,-74.74"/>
<polygon fill="midnightblue" stroke="midnightblue" points="363.89,-71.24 353.54,-73.52 363.06,-78.19 363.89,-71.24"/>
</g>
<!-- Node7 -->
<g id="node7" class="node">
<title>Node7</title>
<g id="a_node7"><a xlink:href="ColorConstants_8h.html" target="_top" xlink:title=" ">
<polygon fill="none" stroke="black" points="546,-0.5 546,-19.5 680,-19.5 680,-0.5 546,-0.5"/>
<text text-anchor="middle" x="613" y="-7.5" font-family="Helvetica,sans-Serif" font-size="10.00">Colors/ColorConstants.h</text>
</a>
</g>
</g>
<!-- Node5&#45;&gt;Node7 -->
<g id="edge8" class="edge">
<title>Node5&#45;&gt;Node7</title>
<path fill="none" stroke="midnightblue" d="M906.1,-112.18C900.91,-97.88 888.6,-69.83 868,-56 839.53,-36.88 754.4,-24.57 690.28,-17.74"/>
<polygon fill="midnightblue" stroke="midnightblue" points="690.48,-14.24 680.18,-16.69 689.76,-21.2 690.48,-14.24"/>
</g>
<!-- Node6&#45;&gt;Node7 -->
<g id="edge7" class="edge">
<title>Node6&#45;&gt;Node7</title>
<path fill="none" stroke="midnightblue" d="M353.8,-56.44C408.21,-46.9 496.17,-31.48 554.29,-21.29"/>
<polygon fill="midnightblue" stroke="midnightblue" points="555.18,-24.69 564.42,-19.52 553.97,-17.8 555.18,-24.69"/>
</g>
<!-- Node8&#45;&gt;Node4 -->
<g id="edge10" class="edge">
<title>Node8&#45;&gt;Node4</title>
<path fill="none" stroke="midnightblue" d="M411.78,-114.91C505.29,-104.12 698.29,-81.85 784.17,-71.94"/>
<polygon fill="midnightblue" stroke="midnightblue" points="784.81,-75.39 794.34,-70.77 784.01,-68.44 784.81,-75.39"/>
</g>
<!-- Node8&#45;&gt;Node6 -->
<g id="edge12" class="edge">
<title>Node8&#45;&gt;Node6</title>
<path fill="none" stroke="midnightblue" d="M350.08,-112.08C342.22,-104.22 330.57,-92.57 321.08,-83.08"/>
<polygon fill="midnightblue" stroke="midnightblue" points="323.3,-80.35 313.75,-75.75 318.35,-85.3 323.3,-80.35"/>
</g>
<!-- Node9 -->
<g id="node9" class="node">
<title>Node9</title>
<g id="a_node9"><a xlink:title=" ">
<polygon fill="none" stroke="#bfbfbf" points="384,-56.5 384,-75.5 440,-75.5 440,-56.5 384,-56.5"/>
<text text-anchor="middle" x="412" y="-63.5" font-family="Helvetica,sans-Serif" font-size="10.00">stdarg.h</text>
</a>
</g>
</g>
<!-- Node8&#45;&gt;Node9 -->
<g id="edge11" class="edge">
<title>Node8&#45;&gt;Node9</title>
<path fill="none" stroke="midnightblue" d="M367.75,-112.08C375.47,-104.22 386.9,-92.57 396.22,-83.08"/>
<polygon fill="midnightblue" stroke="midnightblue" points="398.9,-85.34 403.41,-75.75 393.91,-80.44 398.9,-85.34"/>
</g>
<!-- Node10&#45;&gt;Node6 -->
<g id="edge17" class="edge">
<title>Node10&#45;&gt;Node6</title>
<path fill="none" stroke="midnightblue" d="M277.22,-168.44C249.46,-157.7 211.14,-137.56 226,-112 234.74,-96.97 250.58,-86.54 265.79,-79.54"/>
<polygon fill="midnightblue" stroke="midnightblue" points="267.26,-82.72 275.12,-75.61 264.54,-76.27 267.26,-82.72"/>
</g>
<!-- Node10&#45;&gt;Node8 -->
<g id="edge14" class="edge">
<title>Node10&#45;&gt;Node8</title>
<path fill="none" stroke="midnightblue" d="M312,-168.32C320.19,-160.42 332.51,-148.55 342.47,-138.94"/>
<polygon fill="midnightblue" stroke="midnightblue" points="345.07,-141.29 349.84,-131.83 340.21,-136.26 345.07,-141.29"/>
</g>
<!-- Node11 -->
<g id="node11" class="node">
<title>Node11</title>
<g id="a_node11"><a xlink:href="Patterns_8h.html" target="_top" xlink:title=" ">
<polygon fill="none" stroke="black" points="506.5,-112.5 506.5,-131.5 623.5,-131.5 623.5,-112.5 506.5,-112.5"/>
<text text-anchor="middle" x="565" y="-119.5" font-family="Helvetica,sans-Serif" font-size="10.00">../Patterns/Patterns.h</text>
</a>
</g>
</g>
<!-- Node10&#45;&gt;Node11 -->
<g id="edge15" class="edge">
<title>Node10&#45;&gt;Node11</title>
<path fill="none" stroke="midnightblue" d="M344.51,-168.44C390.41,-158.98 464.38,-143.74 513.83,-133.55"/>
<polygon fill="midnightblue" stroke="midnightblue" points="514.59,-136.96 523.68,-131.52 513.18,-130.11 514.59,-136.96"/>
</g>
<!-- Node11&#45;&gt;Node4 -->
<g id="edge16" class="edge">
<title>Node11&#45;&gt;Node4</title>
<path fill="none" stroke="midnightblue" d="M606.51,-112.44C655.14,-102.42 735.29,-85.9 784.39,-75.78"/>
<polygon fill="midnightblue" stroke="midnightblue" points="785.28,-79.17 794.37,-73.73 783.87,-72.32 785.28,-79.17"/>
</g>
<!-- Node12&#45;&gt;Node4 -->
<g id="edge19" class="edge">
<title>Node12&#45;&gt;Node4</title>
<path fill="none" stroke="midnightblue" d="M148.81,-168.47C178.07,-154.06 240.64,-125.2 297,-112 474.3,-70.49 692.93,-66.23 784.01,-66.46"/>
<polygon fill="midnightblue" stroke="midnightblue" points="784.21,-69.96 794.22,-66.51 784.24,-62.96 784.21,-69.96"/>
</g>
<!-- Node12&#45;&gt;Node6 -->
<g id="edge20" class="edge">
<title>Node12&#45;&gt;Node6</title>
<path fill="none" stroke="midnightblue" d="M131.88,-168.1C132.18,-154.2 134.86,-127.33 150,-112 175.14,-86.55 213.76,-75.29 246.16,-70.4"/>
<polygon fill="midnightblue" stroke="midnightblue" points="246.99,-73.82 256.44,-69.02 246.06,-66.88 246.99,-73.82"/>
</g>
<!-- Node12&#45;&gt;Node8 -->
<g id="edge21" class="edge">
<title>Node12&#45;&gt;Node8</title>
<path fill="none" stroke="midnightblue" d="M167.97,-168.44C207.32,-159.08 270.49,-144.06 313.31,-133.87"/>
<polygon fill="midnightblue" stroke="midnightblue" points="314.28,-137.24 323.2,-131.52 312.66,-130.43 314.28,-137.24"/>
</g>
<!-- Node13&#45;&gt;Node6 -->
<g id="edge24" class="edge">
<title>Node13&#45;&gt;Node6</title>
<path fill="none" stroke="midnightblue" d="M92.05,-224.46C73.48,-212.66 45.56,-190.29 57,-168 91.98,-99.82 184.72,-77.57 246.35,-70.37"/>
<polygon fill="midnightblue" stroke="midnightblue" points="246.76,-73.84 256.33,-69.3 246.02,-66.88 246.76,-73.84"/>
</g>
<!-- Node13&#45;&gt;Node12 -->
<g id="edge23" class="edge">
<title>Node13&#45;&gt;Node12</title>
<path fill="none" stroke="midnightblue" d="M111.13,-224.08C114.51,-216.77 119.42,-206.18 123.62,-197.1"/>
<polygon fill="midnightblue" stroke="midnightblue" points="126.92,-198.3 127.95,-187.75 120.57,-195.36 126.92,-198.3"/>
</g>
<!-- Node14&#45;&gt;Node5 -->
<g id="edge26" class="edge">
<title>Node14&#45;&gt;Node5</title>
<path fill="none" stroke="midnightblue" d="M675.89,-168.44C724.52,-158.96 802.95,-143.67 855.22,-133.48"/>
<polygon fill="midnightblue" stroke="midnightblue" points="856.17,-136.87 865.31,-131.52 854.83,-129.99 856.17,-136.87"/>
</g>
<!-- Node14&#45;&gt;Node6 -->
<g id="edge27" class="edge">
<title>Node14&#45;&gt;Node6</title>
<path fill="none" stroke="midnightblue" d="M593.08,-168.5C558.67,-160.53 507.35,-147.54 464,-132 443.78,-124.75 439.79,-120.36 420,-112 392.48,-100.37 360.83,-88.06 337.72,-79.27"/>
<polygon fill="midnightblue" stroke="midnightblue" points="338.65,-75.88 328.06,-75.61 336.17,-82.42 338.65,-75.88"/>
</g>
<!-- Node15&#45;&gt;Node4 -->
<g id="edge29" class="edge">
<title>Node15&#45;&gt;Node4</title>
<path fill="none" stroke="midnightblue" d="M1159.04,-280.15C1151.99,-250.64 1125.04,-155.06 1063,-112 1032.37,-90.74 929.44,-77.23 870.12,-71.01"/>
<polygon fill="midnightblue" stroke="midnightblue" points="870.23,-67.5 859.93,-69.97 869.52,-74.47 870.23,-67.5"/>
</g>
<!-- Node16&#45;&gt;Node6 -->
<g id="edge32" class="edge">
<title>Node16&#45;&gt;Node6</title>
<path fill="none" stroke="midnightblue" d="M394.71,-168.48C356.91,-160.7 308.81,-148 297,-132 287.1,-118.59 291.16,-99.22 296.44,-85.11"/>
<polygon fill="midnightblue" stroke="midnightblue" points="299.82,-86.11 300.51,-75.54 293.38,-83.38 299.82,-86.11"/>
</g>
<!-- Node16&#45;&gt;Node11 -->
<g id="edge31" class="edge">
<title>Node16&#45;&gt;Node11</title>
<path fill="none" stroke="midnightblue" d="M462.33,-168.44C482.32,-159.6 513.74,-145.69 536.56,-135.59"/>
<polygon fill="midnightblue" stroke="midnightblue" points="538.03,-138.76 545.76,-131.52 535.2,-132.36 538.03,-138.76"/>
</g>
<!-- Node17&#45;&gt;Node4 -->
<g id="edge49" class="edge">
<title>Node17&#45;&gt;Node4</title>
<path fill="none" stroke="midnightblue" d="M926.63,-281.39C997.18,-268.78 1106.77,-237.65 1081,-168 1050.9,-86.63 934.25,-69.97 870.02,-67.09"/>
<polygon fill="midnightblue" stroke="midnightblue" points="869.92,-63.59 859.8,-66.73 869.67,-70.58 869.92,-63.59"/>
</g>
<!-- Node17&#45;&gt;Node5 -->
<g id="edge42" class="edge">
<title>Node17&#45;&gt;Node5</title>
<path fill="none" stroke="midnightblue" d="M895.47,-280.44C911.57,-273.38 931.38,-261.63 941,-244 959.57,-209.99 936.74,-164.65 921.18,-140.26"/>
<polygon fill="midnightblue" stroke="midnightblue" points="923.95,-138.11 915.48,-131.74 918.13,-142 923.95,-138.11"/>
</g>
<!-- Node17&#45;&gt;Node6 -->
<g id="edge48" class="edge">
<title>Node17&#45;&gt;Node6</title>
<path fill="none" stroke="midnightblue" d="M815.38,-286.88C679.03,-280.62 332.91,-258.08 245,-188 217.08,-165.75 200.51,-142.54 219,-112 228.41,-96.46 245.15,-86.02 261.38,-79.15"/>
<polygon fill="midnightblue" stroke="midnightblue" points="262.75,-82.37 270.82,-75.51 260.23,-75.85 262.75,-82.37"/>
</g>
<!-- Node17&#45;&gt;Node11 -->
<g id="edge43" class="edge">
<title>Node17&#45;&gt;Node11</title>
<path fill="none" stroke="midnightblue" d="M847.59,-280.41C831.49,-273.23 811.08,-261.34 800,-244 781.66,-215.29 813.28,-192.88 790,-168 769.08,-145.63 692.11,-133.9 633.98,-128.1"/>
<polygon fill="midnightblue" stroke="midnightblue" points="634.01,-124.58 623.73,-127.11 633.35,-131.55 634.01,-124.58"/>
</g>
<!-- Node18 -->
<g id="node18" class="node">
<title>Node18</title>
<g id="a_node18"><a xlink:href="ByteStream_8h.html" target="_top" xlink:title=" ">
<polygon fill="none" stroke="black" points="809.5,-224.5 809.5,-243.5 932.5,-243.5 932.5,-224.5 809.5,-224.5"/>
<text text-anchor="middle" x="871" y="-231.5" font-family="Helvetica,sans-Serif" font-size="10.00">../Serial/ByteStream.h</text>
</a>
</g>
</g>
<!-- Node17&#45;&gt;Node18 -->
<g id="edge34" class="edge">
<title>Node17&#45;&gt;Node18</title>
<path fill="none" stroke="midnightblue" d="M871,-280.08C871,-273.01 871,-262.86 871,-253.99"/>
<polygon fill="midnightblue" stroke="midnightblue" points="874.5,-253.75 871,-243.75 867.5,-253.75 874.5,-253.75"/>
</g>
<!-- Node17&#45;&gt;Node21 -->
<g id="edge44" class="edge">
<title>Node17&#45;&gt;Node21</title>
<path fill="none" stroke="midnightblue" d="M899.74,-280.49C921.7,-273.09 952.02,-260.9 975,-244 993.11,-230.68 1009.33,-210.47 1019.6,-196.13"/>
<polygon fill="midnightblue" stroke="midnightblue" points="1022.63,-197.9 1025.44,-187.68 1016.87,-193.91 1022.63,-197.9"/>
</g>
<!-- Node18&#45;&gt;Node4 -->
<g id="edge35" class="edge">
<title>Node18&#45;&gt;Node4</title>
<path fill="none" stroke="midnightblue" d="M889.37,-224.5C928.25,-205.35 1012.61,-157.01 979,-112 954.04,-78.59 905.37,-68.96 869.8,-66.67"/>
<polygon fill="midnightblue" stroke="midnightblue" points="869.85,-63.17 859.69,-66.19 869.51,-70.16 869.85,-63.17"/>
</g>
<!-- Node18&#45;&gt;Node19 -->
<g id="edge36" class="edge">
<title>Node18&#45;&gt;Node19</title>
<path fill="none" stroke="midnightblue" d="M851.03,-224.44C830.39,-215.6 797.94,-201.69 774.37,-191.59"/>
<polygon fill="midnightblue" stroke="midnightblue" points="775.44,-188.24 764.87,-187.52 772.68,-194.67 775.44,-188.24"/>
</g>
<!-- Node19&#45;&gt;Node6 -->
<g id="edge38" class="edge">
<title>Node19&#45;&gt;Node6</title>
<path fill="none" stroke="midnightblue" d="M708.66,-169.66C705.73,-169.09 702.82,-168.53 700,-168 609.96,-151.01 584.13,-160.36 497,-132 477.72,-125.72 474.89,-119.36 456,-112 420.85,-98.3 379.75,-86.3 349.31,-78.14"/>
<polygon fill="midnightblue" stroke="midnightblue" points="349.98,-74.7 339.42,-75.53 348.2,-81.47 349.98,-74.7"/>
</g>
<!-- Node19&#45;&gt;Node9 -->
<g id="edge37" class="edge">
<title>Node19&#45;&gt;Node9</title>
<path fill="none" stroke="midnightblue" d="M731.15,-168.29C705.72,-152.41 652.32,-119.69 632,-112 570.74,-88.81 495.12,-76.67 450.38,-71.07"/>
<polygon fill="midnightblue" stroke="midnightblue" points="450.59,-67.57 440.24,-69.85 449.75,-74.52 450.59,-67.57"/>
</g>
<!-- Node20 -->
<g id="node20" class="node">
<title>Node20</title>
<g id="a_node20"><a xlink:href="ErrorBlinker_8h.html" target="_top" xlink:title=" ">
<polygon fill="none" stroke="black" points="680.5,-112.5 680.5,-131.5 791.5,-131.5 791.5,-112.5 680.5,-112.5"/>
<text text-anchor="middle" x="736" y="-119.5" font-family="Helvetica,sans-Serif" font-size="10.00">../Log/ErrorBlinker.h</text>
</a>
</g>
</g>
<!-- Node19&#45;&gt;Node20 -->
<g id="edge39" class="edge">
<title>Node19&#45;&gt;Node20</title>
<path fill="none" stroke="midnightblue" d="M743.51,-168.08C742.32,-160.93 740.61,-150.64 739.12,-141.69"/>
<polygon fill="midnightblue" stroke="midnightblue" points="742.55,-141.04 737.46,-131.75 735.65,-142.19 742.55,-141.04"/>
</g>
<!-- Node20&#45;&gt;Node4 -->
<g id="edge40" class="edge">
<title>Node20&#45;&gt;Node4</title>
<path fill="none" stroke="midnightblue" d="M750.62,-112.32C764.95,-103.82 787.01,-90.73 803.75,-80.8"/>
<polygon fill="midnightblue" stroke="midnightblue" points="805.6,-83.77 812.42,-75.65 802.03,-77.75 805.6,-83.77"/>
</g>
<!-- Node20&#45;&gt;Node6 -->
<g id="edge41" class="edge">
<title>Node20&#45;&gt;Node6</title>
<path fill="none" stroke="midnightblue" d="M680.33,-114.13C609.42,-105.36 483.09,-89.68 375,-76 371.32,-75.53 367.53,-75.05 363.71,-74.57"/>
<polygon fill="midnightblue" stroke="midnightblue" points="363.94,-71.07 353.57,-73.27 363.05,-78.01 363.94,-71.07"/>
</g>
<!-- Node21&#45;&gt;Node4 -->
<g id="edge45" class="edge">
<title>Node21&#45;&gt;Node4</title>
<path fill="none" stroke="midnightblue" d="M1031.06,-168.47C1030.68,-154.57 1027.81,-127.11 1012,-112 991.85,-92.75 917.98,-79.33 869.9,-72.42"/>
<polygon fill="midnightblue" stroke="midnightblue" points="870.15,-68.92 859.76,-71 869.18,-75.85 870.15,-68.92"/>
</g>
<!-- Node21&#45;&gt;Node5 -->
<g id="edge46" class="edge">
<title>Node21&#45;&gt;Node5</title>
<path fill="none" stroke="midnightblue" d="M1011.67,-168.44C991.68,-159.6 960.26,-145.69 937.44,-135.59"/>
<polygon fill="midnightblue" stroke="midnightblue" points="938.8,-132.36 928.24,-131.52 935.97,-138.76 938.8,-132.36"/>
</g>
<!-- Node21&#45;&gt;Node8 -->
<g id="edge47" class="edge">
<title>Node21&#45;&gt;Node8</title>
<path fill="none" stroke="midnightblue" d="M989.47,-173.66C875.54,-164.51 557.58,-138.96 421.78,-128.04"/>
<polygon fill="midnightblue" stroke="midnightblue" points="421.79,-124.53 411.54,-127.22 421.23,-131.51 421.79,-124.53"/>
</g>
</g>
</svg>
        <g id="navigator" transform="translate(0 0)" fill="#404254">
                <rect fill="#f2f5e9" fill-opacity="0.5" stroke="#606060" stroke-width=".5" x="0" y="0" width="60" height="60"/>
                <use id="zoomplus" xlink:href="#zoomPlus" x="17" y="9" onmousedown="handleZoom(evt,'in')"/>
                <use id="zoomminus" xlink:href="#zoomMin" x="42" y="9" onmousedown="handleZoom(evt,'out')"/>
                <use id="reset" xlink:href="#resetDef" x="30" y="36" onmousedown="handleReset()"/>
                <g id="arrowUp" xlink:href="#dirArrow" transform="translate(30 24)" onmousedown="handlePan(0,-1)">
                  <use xlink:href="#rim" fill="#404040">
                        <set attributeName="fill" to="#808080" begin="arrowUp.mouseover" end="arrowUp.mouseout"/>
                  </use>
                  <path fill="none" stroke="white" stroke-width="1.5" d="M0,-3.0v7 M-2.5,-0.5L0,-3.0L2.5,-0.5"/>
                </g>
                <g id="arrowRight" xlink:href="#dirArrow" transform="rotate(90) translate(36 -43)" onmousedown="handlePan(1,0)">
                  <use xlink:href="#rim" fill="#404040">
                        <set attributeName="fill" to="#808080" begin="arrowRight.mouseover" end="arrowRight.mouseout"/>
                  </use>
                  <path fill="none" stroke="white" stroke-width="1.5" d="M0,-3.0v7 M-2.5,-0.5L0,-3.0L2.5,-0.5"/>
                </g>
                <g id="arrowDown" xlink:href="#dirArrow" transform="rotate(180) translate(-30 -48)" onmousedown="handlePan(0,1)">
                  <use xlink:href="#rim" fill="#404040">
                        <set attributeName="fill" to="#808080" begin="arrowDown.mouseover" end="arrowDown.mouseout"/>
                  </use>
                  <path fill="none" stroke="white" stroke-width="1.5" d="M0,-3.0v7 M-2.5,-0.5L0,-3.0L2.5,-0.5"/>
                </g>
                <g id="arrowLeft" xlink:href="#dirArrow" transform="rotate(270) translate(-36 17)" onmousedown="handlePan(-1,0)">
                  <use xlink:href="#rim" fill="#404040">
                        <set attributeName="fill" to="#808080" begin="arrowLeft.mouseover" end="arrowLeft.mouseout"/>
                  </use>
                  <path fill="none" stroke="white" stroke-width="1.5" d="M0,-3.0v7 M-2.5,-0.5L0,-3.0L2.5,-0.5"/>
                </g>
        </g>
        <svg viewBox="0 0 15 15" width="100%" height="30px" preserveAspectRatio="xMaxYMin meet">
         <g id="arrow_out" transform="scale(0.3 0.3)">
          <a xlink:href="FactoryReset_8cpp__incl_org.svg" target="_base">
           <rect id="button" ry="5" rx="5" y="6" x="6" height="38" width="38"
                fill="#f2f5e9" fill-opacity="0.5" stroke="#606060" stroke-width="1.0"/>
           <path id="arrow"
             d="M 11.500037,31.436501 C 11.940474,20.09759 22.043105,11.32322 32.158766,21.979434 L 37.068811,17.246167 C 37.068811,17.246167 37.088388,32 37.088388,32 L 22.160133,31.978069 C 22.160133,31.978069 26.997745,27.140456 26.997745,27.140456 C 18.528582,18.264221 13.291696,25.230495 11.500037,31.436501 z"
             style="fill:#404040;"/>
          </a>
         </g>
        </svg>
</svg>
