<?xml version="1.0" encoding="UTF-8" standalone="no"?>
<!DOCTYPE svg PUBLIC "-//W3C//DTD SVG 1.1//EN"
 "http://www.w3.org/Graphics/SVG/1.1/DTD/svg11.dtd">
<!-- Generated by graphviz version 2.43.0 (0)
 -->
<!-- Title: VortexEngine/src/Menus/MenuList/ModeSharing.cpp Pages: 1 -->
<svg width="1314pt" height="375pt"
 viewBox="0.00 0.00 1314.00 375.00" xmlns="http://www.w3.org/2000/svg" xmlns:xlink="http://www.w3.org/1999/xlink">
<g id="graph0" class="graph" transform="scale(1 1) rotate(0) translate(4 371)">
<title>VortexEngine/src/Menus/MenuList/ModeSharing.cpp</title>
<!-- Node1 -->
<g id="node1" class="node">
<title>Node1</title>
<g id="a_node1"><a xlink:title=" ">
<polygon fill="#bfbfbf" stroke="black" points="576.5,-336.5 576.5,-366.5 727.5,-366.5 727.5,-336.5 576.5,-336.5"/>
<text text-anchor="start" x="584.5" y="-354.5" font-family="Helvetica,sans-Serif" font-size="10.00">VortexEngine/src/Menus</text>
<text text-anchor="middle" x="652" y="-343.5" font-family="Helvetica,sans-Serif" font-size="10.00">/MenuList/ModeSharing.cpp</text>
</a>
</g>
</g>
<!-- Node2 -->
<g id="node2" class="node">
<title>Node2</title>
<g id="a_node2"><a xlink:href="ModeSharing_8h.html" target="_top" xlink:title=" ">
<polygon fill="none" stroke="black" points="454.5,-280.5 454.5,-299.5 543.5,-299.5 543.5,-280.5 454.5,-280.5"/>
<text text-anchor="middle" x="499" y="-287.5" font-family="Helvetica,sans-Serif" font-size="10.00">ModeSharing.h</text>
</a>
</g>
</g>
<!-- Node1&#45;&gt;Node2 -->
<g id="edge1" class="edge">
<title>Node1&#45;&gt;Node2</title>
<path fill="none" stroke="midnightblue" d="M615.74,-336.4C589.96,-326.37 555.64,-313.03 530.9,-303.4"/>
<polygon fill="midnightblue" stroke="midnightblue" points="531.85,-300.02 521.26,-299.66 529.31,-306.54 531.85,-300.02"/>
</g>
<!-- Node10 -->
<g id="node10" class="node">
<title>Node10</title>
<g id="a_node10"><a xlink:href="Mode_8h.html" target="_top" xlink:title=" ">
<polygon fill="none" stroke="black" points="254.5,-168.5 254.5,-187.5 351.5,-187.5 351.5,-168.5 254.5,-168.5"/>
<text text-anchor="middle" x="303" y="-175.5" font-family="Helvetica,sans-Serif" font-size="10.00">../Modes/Mode.h</text>
</a>
</g>
</g>
<!-- Node1&#45;&gt;Node10 -->
<g id="edge56" class="edge">
<title>Node1&#45;&gt;Node10</title>
<path fill="none" stroke="midnightblue" d="M576.23,-340.72C535.69,-333.38 485.84,-320.88 445,-300 391.39,-272.6 340.77,-221.2 317.06,-195.09"/>
<polygon fill="midnightblue" stroke="midnightblue" points="319.61,-192.69 310.34,-187.57 314.39,-197.36 319.61,-192.69"/>
</g>
<!-- Node12 -->
<g id="node12" class="node">
<title>Node12</title>
<g id="a_node12"><a xlink:href="ByteStream_8h.html" target="_top" xlink:title=" ">
<polygon fill="none" stroke="black" points="790,-224.5 790,-243.5 922,-243.5 922,-224.5 790,-224.5"/>
<text text-anchor="middle" x="856" y="-231.5" font-family="Helvetica,sans-Serif" font-size="10.00">../../Serial/ByteStream.h</text>
</a>
</g>
</g>
<!-- Node1&#45;&gt;Node12 -->
<g id="edge18" class="edge">
<title>Node1&#45;&gt;Node12</title>
<path fill="none" stroke="midnightblue" d="M684.61,-336.41C705.88,-326.86 734.05,-313.56 758,-300 785.91,-284.2 816.48,-263.31 835.93,-249.53"/>
<polygon fill="midnightblue" stroke="midnightblue" points="838.17,-252.23 844.27,-243.57 834.1,-246.53 838.17,-252.23"/>
</g>
<!-- Node13 -->
<g id="node13" class="node">
<title>Node13</title>
<g id="a_node13"><a xlink:href="Log_8h.html" target="_top" xlink:title=" ">
<polygon fill="none" stroke="black" points="408,-168.5 408,-187.5 480,-187.5 480,-168.5 408,-168.5"/>
<text text-anchor="middle" x="444" y="-175.5" font-family="Helvetica,sans-Serif" font-size="10.00">../Log/Log.h</text>
</a>
</g>
</g>
<!-- Node1&#45;&gt;Node13 -->
<g id="edge58" class="edge">
<title>Node1&#45;&gt;Node13</title>
<path fill="none" stroke="midnightblue" d="M642.28,-336.29C624.35,-310.96 583.81,-257.51 539,-224 520.58,-210.23 497.27,-199.11 478.35,-191.37"/>
<polygon fill="midnightblue" stroke="midnightblue" points="479.49,-188.06 468.91,-187.63 476.92,-194.57 479.49,-188.06"/>
</g>
<!-- Node15 -->
<g id="node15" class="node">
<title>Node15</title>
<g id="a_node15"><a xlink:href="Serial_8h.html" target="_top" xlink:title=" ">
<polygon fill="none" stroke="black" points="988,-168.5 988,-187.5 1090,-187.5 1090,-168.5 988,-168.5"/>
<text text-anchor="middle" x="1039" y="-175.5" font-family="Helvetica,sans-Serif" font-size="10.00">../../Serial/Serial.h</text>
</a>
</g>
</g>
<!-- Node1&#45;&gt;Node15 -->
<g id="edge26" class="edge">
<title>Node1&#45;&gt;Node15</title>
<path fill="none" stroke="midnightblue" d="M727.8,-345.73C807.62,-339.41 926.79,-325.91 964,-300 995.85,-277.82 986.17,-256.75 1007,-224 1013.05,-214.5 1020.28,-204.24 1026.34,-195.92"/>
<polygon fill="midnightblue" stroke="midnightblue" points="1029.23,-197.9 1032.35,-187.78 1023.59,-193.75 1029.23,-197.9"/>
</g>
<!-- Node16 -->
<g id="node16" class="node">
<title>Node16</title>
<g id="a_node16"><a xlink:href="TimeControl_8h.html" target="_top" xlink:title=" ">
<polygon fill="none" stroke="black" points="16.5,-168.5 16.5,-187.5 147.5,-187.5 147.5,-168.5 16.5,-168.5"/>
<text text-anchor="middle" x="82" y="-175.5" font-family="Helvetica,sans-Serif" font-size="10.00">../../Time/TimeControl.h</text>
</a>
</g>
</g>
<!-- Node1&#45;&gt;Node16 -->
<g id="edge28" class="edge">
<title>Node1&#45;&gt;Node16</title>
<path fill="none" stroke="midnightblue" d="M576.18,-345.17C476.67,-335.75 298.64,-310.38 162,-244 136.74,-231.73 112.38,-210.07 97.32,-195.15"/>
<polygon fill="midnightblue" stroke="midnightblue" points="99.46,-192.34 89.96,-187.66 94.47,-197.25 99.46,-192.34"/>
</g>
<!-- Node17 -->
<g id="node17" class="node">
<title>Node17</title>
<g id="a_node17"><a xlink:href="Timings_8h.html" target="_top" xlink:title=" ">
<polygon fill="none" stroke="black" points="0,-224.5 0,-243.5 110,-243.5 110,-224.5 0,-224.5"/>
<text text-anchor="middle" x="55" y="-231.5" font-family="Helvetica,sans-Serif" font-size="10.00">../../Time/Timings.h</text>
</a>
</g>
</g>
<!-- Node1&#45;&gt;Node17 -->
<g id="edge32" class="edge">
<title>Node1&#45;&gt;Node17</title>
<path fill="none" stroke="midnightblue" d="M576.47,-349.26C450.31,-346.2 202.79,-335.7 124,-300 100.44,-289.33 79.8,-267.26 67.38,-251.81"/>
<polygon fill="midnightblue" stroke="midnightblue" points="69.94,-249.4 61.05,-243.62 64.39,-253.67 69.94,-249.4"/>
</g>
<!-- Node18 -->
<g id="node18" class="node">
<title>Node18</title>
<g id="a_node18"><a xlink:href="IRReceiver_8h.html" target="_top" xlink:title=" ">
<polygon fill="none" stroke="black" points="1166,-280.5 1166,-299.5 1306,-299.5 1306,-280.5 1166,-280.5"/>
<text text-anchor="middle" x="1236" y="-287.5" font-family="Helvetica,sans-Serif" font-size="10.00">../../Wireless/IRReceiver.h</text>
</a>
</g>
</g>
<!-- Node1&#45;&gt;Node18 -->
<g id="edge35" class="edge">
<title>Node1&#45;&gt;Node18</title>
<path fill="none" stroke="midnightblue" d="M727.75,-343.25C824.43,-333.93 997.15,-317.03 1155.39,-300.16"/>
<polygon fill="midnightblue" stroke="midnightblue" points="1156.22,-303.59 1165.79,-299.05 1155.48,-296.63 1156.22,-303.59"/>
</g>
<!-- Node21 -->
<g id="node21" class="node">
<title>Node21</title>
<g id="a_node21"><a xlink:href="IRSender_8h.html" target="_top" xlink:title=" ">
<polygon fill="none" stroke="black" points="1016.5,-280.5 1016.5,-299.5 1147.5,-299.5 1147.5,-280.5 1016.5,-280.5"/>
<text text-anchor="middle" x="1082" y="-287.5" font-family="Helvetica,sans-Serif" font-size="10.00">../../Wireless/IRSender.h</text>
</a>
</g>
</g>
<!-- Node1&#45;&gt;Node21 -->
<g id="edge40" class="edge">
<title>Node1&#45;&gt;Node21</title>
<path fill="none" stroke="midnightblue" d="M727.89,-340C807.61,-328.97 932.05,-311.75 1010.2,-300.94"/>
<polygon fill="midnightblue" stroke="midnightblue" points="1011.01,-304.36 1020.44,-299.52 1010.05,-297.42 1011.01,-304.36"/>
</g>
<!-- Node22 -->
<g id="node22" class="node">
<title>Node22</title>
<g id="a_node22"><a xlink:href="Button_8h.html" target="_top" xlink:title=" ">
<polygon fill="none" stroke="black" points="926,-112.5 926,-131.5 1042,-131.5 1042,-112.5 926,-112.5"/>
<text text-anchor="middle" x="984" y="-119.5" font-family="Helvetica,sans-Serif" font-size="10.00">../../Buttons/Button.h</text>
</a>
</g>
</g>
<!-- Node1&#45;&gt;Node22 -->
<g id="edge44" class="edge">
<title>Node1&#45;&gt;Node22</title>
<path fill="none" stroke="midnightblue" d="M727.67,-338.43C789.35,-325.01 875.12,-297.71 931,-244 960.53,-215.62 974.65,-167.96 980.49,-141.72"/>
<polygon fill="midnightblue" stroke="midnightblue" points="983.98,-142.11 982.56,-131.61 977.13,-140.71 983.98,-142.11"/>
</g>
<!-- Node23 -->
<g id="node23" class="node">
<title>Node23</title>
<g id="a_node23"><a xlink:href="Modes_8h.html" target="_top" xlink:title=" ">
<polygon fill="none" stroke="black" points="638.5,-280.5 638.5,-299.5 749.5,-299.5 749.5,-280.5 638.5,-280.5"/>
<text text-anchor="middle" x="694" y="-287.5" font-family="Helvetica,sans-Serif" font-size="10.00">../../Modes/Modes.h</text>
</a>
</g>
</g>
<!-- Node1&#45;&gt;Node23 -->
<g id="edge46" class="edge">
<title>Node1&#45;&gt;Node23</title>
<path fill="none" stroke="midnightblue" d="M661.95,-336.4C667.99,-327.84 675.74,-316.87 682.1,-307.86"/>
<polygon fill="midnightblue" stroke="midnightblue" points="684.98,-309.85 687.89,-299.66 679.26,-305.81 684.98,-309.85"/>
</g>
<!-- Node24 -->
<g id="node24" class="node">
<title>Node24</title>
<g id="a_node24"><a xlink:href="Leds_8h.html" target="_top" xlink:title=" ">
<polygon fill="none" stroke="black" points="574.5,-168.5 574.5,-187.5 657.5,-187.5 657.5,-168.5 574.5,-168.5"/>
<text text-anchor="middle" x="616" y="-175.5" font-family="Helvetica,sans-Serif" font-size="10.00">../Leds/Leds.h</text>
</a>
</g>
</g>
<!-- Node1&#45;&gt;Node24 -->
<g id="edge57" class="edge">
<title>Node1&#45;&gt;Node24</title>
<path fill="none" stroke="midnightblue" d="M644.08,-336.38C638.92,-326.5 632.51,-312.82 629,-300 619.36,-264.8 616.81,-222.01 616.17,-197.9"/>
<polygon fill="midnightblue" stroke="midnightblue" points="619.67,-197.62 615.99,-187.68 612.67,-197.74 619.67,-197.62"/>
</g>
<!-- Node3 -->
<g id="node3" class="node">
<title>Node3</title>
<g id="a_node3"><a xlink:href="Menu_8h.html" target="_top" xlink:title=" ">
<polygon fill="none" stroke="black" points="468,-224.5 468,-243.5 530,-243.5 530,-224.5 468,-224.5"/>
<text text-anchor="middle" x="499" y="-231.5" font-family="Helvetica,sans-Serif" font-size="10.00">../Menu.h</text>
</a>
</g>
</g>
<!-- Node2&#45;&gt;Node3 -->
<g id="edge2" class="edge">
<title>Node2&#45;&gt;Node3</title>
<path fill="none" stroke="midnightblue" d="M499,-280.08C499,-273.01 499,-262.86 499,-253.99"/>
<polygon fill="midnightblue" stroke="midnightblue" points="502.5,-253.75 499,-243.75 495.5,-253.75 502.5,-253.75"/>
</g>
<!-- Node4 -->
<g id="node4" class="node">
<title>Node4</title>
<g id="a_node4"><a xlink:title=" ">
<polygon fill="none" stroke="#bfbfbf" points="789.5,-56.5 789.5,-75.5 854.5,-75.5 854.5,-56.5 789.5,-56.5"/>
<text text-anchor="middle" x="822" y="-63.5" font-family="Helvetica,sans-Serif" font-size="10.00">inttypes.h</text>
</a>
</g>
</g>
<!-- Node3&#45;&gt;Node4 -->
<g id="edge3" class="edge">
<title>Node3&#45;&gt;Node4</title>
<path fill="none" stroke="midnightblue" d="M498.06,-224.41C496.14,-202.14 494.42,-142.19 527,-112 562.9,-78.73 706.52,-70.06 779.29,-67.8"/>
<polygon fill="midnightblue" stroke="midnightblue" points="779.59,-71.29 789.49,-67.51 779.39,-64.29 779.59,-71.29"/>
</g>
<!-- Node5 -->
<g id="node5" class="node">
<title>Node5</title>
<g id="a_node5"><a xlink:href="ColorTypes_8h.html" target="_top" xlink:title=" ">
<polygon fill="none" stroke="black" points="536,-112.5 536,-131.5 658,-131.5 658,-112.5 536,-112.5"/>
<text text-anchor="middle" x="597" y="-119.5" font-family="Helvetica,sans-Serif" font-size="10.00">../Colors/ColorTypes.h</text>
</a>
</g>
</g>
<!-- Node3&#45;&gt;Node5 -->
<g id="edge4" class="edge">
<title>Node3&#45;&gt;Node5</title>
<path fill="none" stroke="midnightblue" d="M506.69,-224.37C523.01,-206.05 561.32,-163.05 582.42,-139.36"/>
<polygon fill="midnightblue" stroke="midnightblue" points="585.31,-141.39 589.35,-131.59 580.08,-136.73 585.31,-141.39"/>
</g>
<!-- Node8 -->
<g id="node8" class="node">
<title>Node8</title>
<g id="a_node8"><a xlink:href="LedTypes_8h.html" target="_top" xlink:title=" ">
<polygon fill="none" stroke="black" points="168.5,-112.5 168.5,-131.5 273.5,-131.5 273.5,-112.5 168.5,-112.5"/>
<text text-anchor="middle" x="221" y="-119.5" font-family="Helvetica,sans-Serif" font-size="10.00">../Leds/LedTypes.h</text>
</a>
</g>
</g>
<!-- Node3&#45;&gt;Node8 -->
<g id="edge9" class="edge">
<title>Node3&#45;&gt;Node8</title>
<path fill="none" stroke="midnightblue" d="M479.32,-224.5C459.05,-215.66 426.62,-201.29 399,-188 381.45,-179.56 377.99,-175.47 360,-168 327.76,-154.62 290.02,-142.62 262.01,-134.39"/>
<polygon fill="midnightblue" stroke="midnightblue" points="262.74,-130.95 252.16,-131.53 260.78,-137.68 262.74,-130.95"/>
</g>
<!-- Node3&#45;&gt;Node10 -->
<g id="edge13" class="edge">
<title>Node3&#45;&gt;Node10</title>
<path fill="none" stroke="midnightblue" d="M467.94,-224.44C434.4,-215.2 380.8,-200.44 343.86,-190.26"/>
<polygon fill="midnightblue" stroke="midnightblue" points="344.48,-186.8 333.91,-187.52 342.62,-193.55 344.48,-186.8"/>
</g>
<!-- Node5&#45;&gt;Node4 -->
<g id="edge5" class="edge">
<title>Node5&#45;&gt;Node4</title>
<path fill="none" stroke="midnightblue" d="M632.65,-112.44C672.57,-102.86 737.23,-87.35 779.68,-77.16"/>
<polygon fill="midnightblue" stroke="midnightblue" points="780.53,-80.55 789.44,-74.82 778.9,-73.75 780.53,-80.55"/>
</g>
<!-- Node6 -->
<g id="node6" class="node">
<title>Node6</title>
<g id="a_node6"><a xlink:href="VortexConfig_8h.html" target="_top" xlink:title=" ">
<polygon fill="none" stroke="black" points="172.5,-56.5 172.5,-75.5 269.5,-75.5 269.5,-56.5 172.5,-56.5"/>
<text text-anchor="middle" x="221" y="-63.5" font-family="Helvetica,sans-Serif" font-size="10.00">../VortexConfig.h</text>
</a>
</g>
</g>
<!-- Node5&#45;&gt;Node6 -->
<g id="edge6" class="edge">
<title>Node5&#45;&gt;Node6</title>
<path fill="none" stroke="midnightblue" d="M537.42,-112.44C466.76,-102.3 349.75,-85.49 279.55,-75.41"/>
<polygon fill="midnightblue" stroke="midnightblue" points="279.93,-71.93 269.54,-73.97 278.94,-78.86 279.93,-71.93"/>
</g>
<!-- Node7 -->
<g id="node7" class="node">
<title>Node7</title>
<g id="a_node7"><a xlink:href="ColorConstants_8h.html" target="_top" xlink:title=" ">
<polygon fill="none" stroke="black" points="342,-0.5 342,-19.5 476,-19.5 476,-0.5 342,-0.5"/>
<text text-anchor="middle" x="409" y="-7.5" font-family="Helvetica,sans-Serif" font-size="10.00">Colors/ColorConstants.h</text>
</a>
</g>
</g>
<!-- Node5&#45;&gt;Node7 -->
<g id="edge8" class="edge">
<title>Node5&#45;&gt;Node7</title>
<path fill="none" stroke="midnightblue" d="M582.25,-112.37C549.71,-93.33 471.58,-47.62 432.33,-24.65"/>
<polygon fill="midnightblue" stroke="midnightblue" points="434.08,-21.62 423.68,-19.59 430.55,-27.66 434.08,-21.62"/>
</g>
<!-- Node6&#45;&gt;Node7 -->
<g id="edge7" class="edge">
<title>Node6&#45;&gt;Node7</title>
<path fill="none" stroke="midnightblue" d="M250.79,-56.44C282.83,-47.24 333.93,-32.56 369.35,-22.39"/>
<polygon fill="midnightblue" stroke="midnightblue" points="370.71,-25.64 379.35,-19.52 368.77,-18.91 370.71,-25.64"/>
</g>
<!-- Node8&#45;&gt;Node4 -->
<g id="edge10" class="edge">
<title>Node8&#45;&gt;Node4</title>
<path fill="none" stroke="midnightblue" d="M273.68,-116.26C288.94,-114.88 305.64,-113.38 321,-112 490.71,-96.74 692.75,-78.6 779.26,-70.84"/>
<polygon fill="midnightblue" stroke="midnightblue" points="779.82,-74.3 789.47,-69.92 779.2,-67.33 779.82,-74.3"/>
</g>
<!-- Node8&#45;&gt;Node6 -->
<g id="edge12" class="edge">
<title>Node8&#45;&gt;Node6</title>
<path fill="none" stroke="midnightblue" d="M221,-112.08C221,-105.01 221,-94.86 221,-85.99"/>
<polygon fill="midnightblue" stroke="midnightblue" points="224.5,-85.75 221,-75.75 217.5,-85.75 224.5,-85.75"/>
</g>
<!-- Node9 -->
<g id="node9" class="node">
<title>Node9</title>
<g id="a_node9"><a xlink:title=" ">
<polygon fill="none" stroke="#bfbfbf" points="365,-56.5 365,-75.5 421,-75.5 421,-56.5 365,-56.5"/>
<text text-anchor="middle" x="393" y="-63.5" font-family="Helvetica,sans-Serif" font-size="10.00">stdarg.h</text>
</a>
</g>
</g>
<!-- Node8&#45;&gt;Node9 -->
<g id="edge11" class="edge">
<title>Node8&#45;&gt;Node9</title>
<path fill="none" stroke="midnightblue" d="M248.25,-112.44C277.44,-103.28 323.92,-88.69 356.31,-78.52"/>
<polygon fill="midnightblue" stroke="midnightblue" points="357.38,-81.85 365.87,-75.52 355.28,-75.17 357.38,-81.85"/>
</g>
<!-- Node10&#45;&gt;Node6 -->
<g id="edge17" class="edge">
<title>Node10&#45;&gt;Node6</title>
<path fill="none" stroke="midnightblue" d="M254.47,-175.85C221.75,-172.23 180.72,-161.54 159,-132 144.71,-112.56 170.33,-92.88 192.84,-80.35"/>
<polygon fill="midnightblue" stroke="midnightblue" points="194.64,-83.36 201.86,-75.6 191.38,-77.16 194.64,-83.36"/>
</g>
<!-- Node10&#45;&gt;Node8 -->
<g id="edge14" class="edge">
<title>Node10&#45;&gt;Node8</title>
<path fill="none" stroke="midnightblue" d="M289.83,-168.32C277.15,-159.98 257.77,-147.21 242.79,-137.35"/>
<polygon fill="midnightblue" stroke="midnightblue" points="244.42,-134.23 234.14,-131.65 240.57,-140.08 244.42,-134.23"/>
</g>
<!-- Node11 -->
<g id="node11" class="node">
<title>Node11</title>
<g id="a_node11"><a xlink:href="Patterns_8h.html" target="_top" xlink:title=" ">
<polygon fill="none" stroke="black" points="676.5,-112.5 676.5,-131.5 793.5,-131.5 793.5,-112.5 676.5,-112.5"/>
<text text-anchor="middle" x="735" y="-119.5" font-family="Helvetica,sans-Serif" font-size="10.00">../Patterns/Patterns.h</text>
</a>
</g>
</g>
<!-- Node10&#45;&gt;Node11 -->
<g id="edge15" class="edge">
<title>Node10&#45;&gt;Node11</title>
<path fill="none" stroke="midnightblue" d="M351.59,-171.13C419.49,-162.89 546.89,-147.33 666.34,-132.07"/>
<polygon fill="midnightblue" stroke="midnightblue" points="666.92,-135.53 676.4,-130.79 666.04,-128.59 666.92,-135.53"/>
</g>
<!-- Node11&#45;&gt;Node4 -->
<g id="edge16" class="edge">
<title>Node11&#45;&gt;Node4</title>
<path fill="none" stroke="midnightblue" d="M748.98,-112.32C762.55,-103.9 783.38,-90.97 799.32,-81.07"/>
<polygon fill="midnightblue" stroke="midnightblue" points="801.41,-83.9 808.06,-75.65 797.71,-77.95 801.41,-83.9"/>
</g>
<!-- Node12&#45;&gt;Node4 -->
<g id="edge19" class="edge">
<title>Node12&#45;&gt;Node4</title>
<path fill="none" stroke="midnightblue" d="M860.45,-224.33C870.32,-203.8 891.83,-151.02 874,-112 868.22,-99.36 856.95,-88.91 846.37,-81.27"/>
<polygon fill="midnightblue" stroke="midnightblue" points="848.04,-78.18 837.78,-75.53 844.15,-84 848.04,-78.18"/>
</g>
<!-- Node12&#45;&gt;Node13 -->
<g id="edge20" class="edge">
<title>Node12&#45;&gt;Node13</title>
<path fill="none" stroke="midnightblue" d="M790.72,-224.44C707.02,-213.47 563.97,-194.72 490.52,-185.1"/>
<polygon fill="midnightblue" stroke="midnightblue" points="490.58,-181.57 480.21,-183.75 489.67,-188.52 490.58,-181.57"/>
</g>
<!-- Node13&#45;&gt;Node6 -->
<g id="edge22" class="edge">
<title>Node13&#45;&gt;Node6</title>
<path fill="none" stroke="midnightblue" d="M414.9,-168.41C389.48,-160.42 351.92,-147.45 321,-132 291.61,-117.31 260.23,-95.85 240.62,-81.67"/>
<polygon fill="midnightblue" stroke="midnightblue" points="242.62,-78.79 232.49,-75.71 238.49,-84.44 242.62,-78.79"/>
</g>
<!-- Node13&#45;&gt;Node9 -->
<g id="edge21" class="edge">
<title>Node13&#45;&gt;Node9</title>
<path fill="none" stroke="midnightblue" d="M447.47,-168.5C452.17,-155.58 458.99,-130.56 450,-112 443.6,-98.8 431.25,-88.3 419.67,-80.78"/>
<polygon fill="midnightblue" stroke="midnightblue" points="421.45,-77.77 411.08,-75.61 417.84,-83.77 421.45,-77.77"/>
</g>
<!-- Node14 -->
<g id="node14" class="node">
<title>Node14</title>
<g id="a_node14"><a xlink:href="ErrorBlinker_8h.html" target="_top" xlink:title=" ">
<polygon fill="none" stroke="black" points="330.5,-112.5 330.5,-131.5 441.5,-131.5 441.5,-112.5 330.5,-112.5"/>
<text text-anchor="middle" x="386" y="-119.5" font-family="Helvetica,sans-Serif" font-size="10.00">../Log/ErrorBlinker.h</text>
</a>
</g>
</g>
<!-- Node13&#45;&gt;Node14 -->
<g id="edge23" class="edge">
<title>Node13&#45;&gt;Node14</title>
<path fill="none" stroke="midnightblue" d="M434.68,-168.32C426.11,-160.34 413.19,-148.31 402.81,-138.65"/>
<polygon fill="midnightblue" stroke="midnightblue" points="405.19,-136.09 395.49,-131.83 400.42,-141.21 405.19,-136.09"/>
</g>
<!-- Node14&#45;&gt;Node4 -->
<g id="edge24" class="edge">
<title>Node14&#45;&gt;Node4</title>
<path fill="none" stroke="midnightblue" d="M441.66,-114.11C529.87,-103.18 699.9,-82.12 779.26,-72.29"/>
<polygon fill="midnightblue" stroke="midnightblue" points="779.89,-75.74 789.38,-71.04 779.03,-68.8 779.89,-75.74"/>
</g>
<!-- Node14&#45;&gt;Node6 -->
<g id="edge25" class="edge">
<title>Node14&#45;&gt;Node6</title>
<path fill="none" stroke="midnightblue" d="M359.86,-112.44C331.98,-103.32 287.65,-88.81 256.6,-78.65"/>
<polygon fill="midnightblue" stroke="midnightblue" points="257.62,-75.3 247.02,-75.52 255.44,-81.95 257.62,-75.3"/>
</g>
<!-- Node15&#45;&gt;Node4 -->
<g id="edge27" class="edge">
<title>Node15&#45;&gt;Node4</title>
<path fill="none" stroke="midnightblue" d="M1044.5,-168.34C1052.35,-154.75 1064.41,-128.31 1051,-112 1027.93,-83.96 924.91,-73.12 865.2,-69.15"/>
<polygon fill="midnightblue" stroke="midnightblue" points="865.14,-65.64 854.94,-68.5 864.7,-72.62 865.14,-65.64"/>
</g>
<!-- Node16&#45;&gt;Node4 -->
<g id="edge29" class="edge">
<title>Node16&#45;&gt;Node4</title>
<path fill="none" stroke="midnightblue" d="M88.96,-168.29C101.28,-153.61 128.51,-124.33 159,-112 216.26,-88.83 641.75,-72.93 779.27,-68.36"/>
<polygon fill="midnightblue" stroke="midnightblue" points="779.54,-71.85 789.42,-68.02 779.31,-64.85 779.54,-71.85"/>
</g>
<!-- Node16&#45;&gt;Node6 -->
<g id="edge30" class="edge">
<title>Node16&#45;&gt;Node6</title>
<path fill="none" stroke="midnightblue" d="M72.02,-168.39C58.09,-155.33 36.02,-130.13 50,-112 63.82,-94.07 118.49,-81.86 162.34,-74.73"/>
<polygon fill="midnightblue" stroke="midnightblue" points="163.03,-78.17 172.37,-73.16 161.95,-71.25 163.03,-78.17"/>
</g>
<!-- Node16&#45;&gt;Node8 -->
<g id="edge31" class="edge">
<title>Node16&#45;&gt;Node8</title>
<path fill="none" stroke="midnightblue" d="M104.02,-168.44C127.1,-159.48 163.56,-145.31 189.64,-135.18"/>
<polygon fill="midnightblue" stroke="midnightblue" points="191.02,-138.4 199.08,-131.52 188.49,-131.88 191.02,-138.4"/>
</g>
<!-- Node17&#45;&gt;Node6 -->
<g id="edge34" class="edge">
<title>Node17&#45;&gt;Node6</title>
<path fill="none" stroke="midnightblue" d="M40.63,-224.33C29.12,-216.47 13.81,-203.72 7,-188 -7.78,-153.88 11.93,-133.89 42,-112 76.93,-86.57 124.71,-75.45 162.13,-70.61"/>
<polygon fill="midnightblue" stroke="midnightblue" points="162.86,-74.05 172.39,-69.41 162.05,-67.1 162.86,-74.05"/>
</g>
<!-- Node17&#45;&gt;Node16 -->
<g id="edge33" class="edge">
<title>Node17&#45;&gt;Node16</title>
<path fill="none" stroke="midnightblue" d="M59.46,-224.08C63.15,-216.69 68.52,-205.95 73.09,-196.81"/>
<polygon fill="midnightblue" stroke="midnightblue" points="76.28,-198.26 77.62,-187.75 70.02,-195.13 76.28,-198.26"/>
</g>
<!-- Node18&#45;&gt;Node4 -->
<g id="edge36" class="edge">
<title>Node18&#45;&gt;Node4</title>
<path fill="none" stroke="midnightblue" d="M1235.99,-280.4C1235.62,-267.34 1233.46,-242.15 1223,-224 1185.43,-158.79 1164,-144.24 1096,-112 1020.09,-76.01 920.56,-68.17 864.74,-66.83"/>
<polygon fill="midnightblue" stroke="midnightblue" points="864.57,-63.32 854.51,-66.64 864.45,-70.32 864.57,-63.32"/>
</g>
<!-- Node19 -->
<g id="node19" class="node">
<title>Node19</title>
<g id="a_node19"><a xlink:href="BitStream_8h.html" target="_top" xlink:title=" ">
<polygon fill="none" stroke="black" points="1100,-224.5 1100,-243.5 1214,-243.5 1214,-224.5 1100,-224.5"/>
<text text-anchor="middle" x="1157" y="-231.5" font-family="Helvetica,sans-Serif" font-size="10.00">../Serial/BitStream.h</text>
</a>
</g>
</g>
<!-- Node18&#45;&gt;Node19 -->
<g id="edge37" class="edge">
<title>Node18&#45;&gt;Node19</title>
<path fill="none" stroke="midnightblue" d="M1223.31,-280.32C1211.1,-271.98 1192.42,-259.21 1178,-249.35"/>
<polygon fill="midnightblue" stroke="midnightblue" points="1179.89,-246.41 1169.66,-243.65 1175.94,-252.19 1179.89,-246.41"/>
</g>
<!-- Node20 -->
<g id="node20" class="node">
<title>Node20</title>
<g id="a_node20"><a xlink:href="IRConfig_8h.html" target="_top" xlink:title=" ">
<polygon fill="none" stroke="black" points="1016,-224.5 1016,-243.5 1082,-243.5 1082,-224.5 1016,-224.5"/>
<text text-anchor="middle" x="1049" y="-231.5" font-family="Helvetica,sans-Serif" font-size="10.00">IRConfig.h</text>
</a>
</g>
</g>
<!-- Node18&#45;&gt;Node20 -->
<g id="edge39" class="edge">
<title>Node18&#45;&gt;Node20</title>
<path fill="none" stroke="midnightblue" d="M1206.37,-280.44C1174.5,-271.24 1123.67,-256.56 1088.44,-246.39"/>
<polygon fill="midnightblue" stroke="midnightblue" points="1089.07,-242.93 1078.49,-243.52 1087.13,-249.65 1089.07,-242.93"/>
</g>
<!-- Node19&#45;&gt;Node4 -->
<g id="edge38" class="edge">
<title>Node19&#45;&gt;Node4</title>
<path fill="none" stroke="midnightblue" d="M1153.43,-224.21C1143.68,-201.47 1114.3,-140.47 1069,-112 1035.68,-91.06 926.5,-77.27 865.03,-70.97"/>
<polygon fill="midnightblue" stroke="midnightblue" points="865.17,-67.46 854.87,-69.95 864.47,-74.43 865.17,-67.46"/>
</g>
<!-- Node21&#45;&gt;Node12 -->
<g id="edge41" class="edge">
<title>Node21&#45;&gt;Node12</title>
<path fill="none" stroke="midnightblue" d="M1046.19,-280.44C1007.01,-271.08 944.12,-256.06 901.48,-245.87"/>
<polygon fill="midnightblue" stroke="midnightblue" points="902.18,-242.44 891.64,-243.52 900.56,-249.24 902.18,-242.44"/>
</g>
<!-- Node21&#45;&gt;Node19 -->
<g id="edge42" class="edge">
<title>Node21&#45;&gt;Node19</title>
<path fill="none" stroke="midnightblue" d="M1094.05,-280.32C1105.46,-272.11 1122.83,-259.6 1136.43,-249.81"/>
<polygon fill="midnightblue" stroke="midnightblue" points="1138.66,-252.52 1144.73,-243.83 1134.57,-246.84 1138.66,-252.52"/>
</g>
<!-- Node21&#45;&gt;Node20 -->
<g id="edge43" class="edge">
<title>Node21&#45;&gt;Node20</title>
<path fill="none" stroke="midnightblue" d="M1076.55,-280.08C1071.99,-272.61 1065.33,-261.72 1059.71,-252.52"/>
<polygon fill="midnightblue" stroke="midnightblue" points="1062.55,-250.46 1054.35,-243.75 1056.58,-254.11 1062.55,-250.46"/>
</g>
<!-- Node22&#45;&gt;Node4 -->
<g id="edge45" class="edge">
<title>Node22&#45;&gt;Node4</title>
<path fill="none" stroke="midnightblue" d="M958.33,-112.44C931.08,-103.36 887.82,-88.94 857.35,-78.78"/>
<polygon fill="midnightblue" stroke="midnightblue" points="858.14,-75.36 847.55,-75.52 855.93,-82 858.14,-75.36"/>
</g>
<!-- Node23&#45;&gt;Node4 -->
<g id="edge55" class="edge">
<title>Node23&#45;&gt;Node4</title>
<path fill="none" stroke="midnightblue" d="M705.19,-280.27C731.89,-258.64 798.85,-199.42 823,-132 828.35,-117.06 827.52,-98.92 825.69,-85.6"/>
<polygon fill="midnightblue" stroke="midnightblue" points="829.14,-85.01 824.02,-75.73 822.23,-86.17 829.14,-85.01"/>
</g>
<!-- Node23&#45;&gt;Node5 -->
<g id="edge48" class="edge">
<title>Node23&#45;&gt;Node5</title>
<path fill="none" stroke="midnightblue" d="M694.12,-280.2C693.99,-258.94 691.08,-203.87 666,-168 656.41,-154.29 641.18,-143.71 627.46,-136.26"/>
<polygon fill="midnightblue" stroke="midnightblue" points="628.79,-133.02 618.29,-131.61 625.62,-139.26 628.79,-133.02"/>
</g>
<!-- Node23&#45;&gt;Node6 -->
<g id="edge54" class="edge">
<title>Node23&#45;&gt;Node6</title>
<path fill="none" stroke="midnightblue" d="M638.25,-282.49C509.74,-266.11 199.97,-218.17 151,-132 138.63,-110.23 165.19,-91.54 189.07,-79.86"/>
<polygon fill="midnightblue" stroke="midnightblue" points="190.72,-82.95 198.34,-75.58 187.79,-76.59 190.72,-82.95"/>
</g>
<!-- Node23&#45;&gt;Node11 -->
<g id="edge49" class="edge">
<title>Node23&#45;&gt;Node11</title>
<path fill="none" stroke="midnightblue" d="M696.2,-280.08C702.66,-253.95 721.61,-177.21 730.41,-141.58"/>
<polygon fill="midnightblue" stroke="midnightblue" points="733.88,-142.12 732.88,-131.57 727.09,-140.44 733.88,-142.12"/>
</g>
<!-- Node23&#45;&gt;Node12 -->
<g id="edge47" class="edge">
<title>Node23&#45;&gt;Node12</title>
<path fill="none" stroke="midnightblue" d="M719.67,-280.44C746.92,-271.36 790.18,-256.94 820.65,-246.78"/>
<polygon fill="midnightblue" stroke="midnightblue" points="822.07,-250 830.45,-243.52 819.86,-243.36 822.07,-250"/>
</g>
<!-- Node23&#45;&gt;Node24 -->
<g id="edge50" class="edge">
<title>Node23&#45;&gt;Node24</title>
<path fill="none" stroke="midnightblue" d="M687.88,-280.37C675.01,-262.22 644.93,-219.8 628.05,-195.99"/>
<polygon fill="midnightblue" stroke="midnightblue" points="630.73,-193.72 622.09,-187.59 625.02,-197.77 630.73,-193.72"/>
</g>
<!-- Node24&#45;&gt;Node4 -->
<g id="edge51" class="edge">
<title>Node24&#45;&gt;Node4</title>
<path fill="none" stroke="midnightblue" d="M657.91,-171.73C706.16,-164.84 781.43,-151.35 802,-132 814.62,-120.13 819.34,-100.5 821.08,-85.92"/>
<polygon fill="midnightblue" stroke="midnightblue" points="824.6,-85.8 821.92,-75.55 817.62,-85.23 824.6,-85.8"/>
</g>
<!-- Node24&#45;&gt;Node5 -->
<g id="edge52" class="edge">
<title>Node24&#45;&gt;Node5</title>
<path fill="none" stroke="midnightblue" d="M612.86,-168.08C610.32,-160.85 606.64,-150.41 603.47,-141.4"/>
<polygon fill="midnightblue" stroke="midnightblue" points="606.7,-140.02 600.08,-131.75 600.1,-142.35 606.7,-140.02"/>
</g>
<!-- Node24&#45;&gt;Node8 -->
<g id="edge53" class="edge">
<title>Node24&#45;&gt;Node8</title>
<path fill="none" stroke="midnightblue" d="M574.47,-171.32C505.14,-161.84 365.4,-142.74 283.93,-131.6"/>
<polygon fill="midnightblue" stroke="midnightblue" points="284.18,-128.11 273.8,-130.22 283.24,-135.04 284.18,-128.11"/>
</g>
</g>
</svg>
