<?xml version="1.0" encoding="UTF-8" standalone="no"?>
<!DOCTYPE svg PUBLIC "-//W3C//DTD SVG 1.1//EN"
 "http://www.w3.org/Graphics/SVG/1.1/DTD/svg11.dtd">
<!-- Generated by graphviz version 2.43.0 (0)
 -->
<!-- Title: VortexEngine/src/Menus/MenuList/ModeSharing.cpp Pages: 1 -->
<svg width="1299pt" height="375pt"
 viewBox="0.00 0.00 1299.00 375.00" xmlns="http://www.w3.org/2000/svg" xmlns:xlink="http://www.w3.org/1999/xlink">
<g id="graph0" class="graph" transform="scale(1 1) rotate(0) translate(4 371)">
<title>VortexEngine/src/Menus/MenuList/ModeSharing.cpp</title>
<!-- Node1 -->
<g id="node1" class="node">
<title>Node1</title>
<g id="a_node1"><a xlink:title=" ">
<polygon fill="#bfbfbf" stroke="black" points="550.5,-336.5 550.5,-366.5 701.5,-366.5 701.5,-336.5 550.5,-336.5"/>
<text text-anchor="start" x="558.5" y="-354.5" font-family="Helvetica,sans-Serif" font-size="10.00">VortexEngine/src/Menus</text>
<text text-anchor="middle" x="626" y="-343.5" font-family="Helvetica,sans-Serif" font-size="10.00">/MenuList/ModeSharing.cpp</text>
</a>
</g>
</g>
<!-- Node2 -->
<g id="node2" class="node">
<title>Node2</title>
<g id="a_node2"><a xlink:href="ModeSharing_8h.html" target="_top" xlink:title=" ">
<polygon fill="none" stroke="black" points="466.5,-280.5 466.5,-299.5 555.5,-299.5 555.5,-280.5 466.5,-280.5"/>
<text text-anchor="middle" x="511" y="-287.5" font-family="Helvetica,sans-Serif" font-size="10.00">ModeSharing.h</text>
</a>
</g>
</g>
<!-- Node1&#45;&gt;Node2 -->
<g id="edge1" class="edge">
<title>Node1&#45;&gt;Node2</title>
<path fill="none" stroke="midnightblue" d="M598.75,-336.4C579.97,-326.68 555.17,-313.86 536.73,-304.31"/>
<polygon fill="midnightblue" stroke="midnightblue" points="538.22,-301.14 527.73,-299.66 535.01,-307.36 538.22,-301.14"/>
</g>
<!-- Node10 -->
<g id="node10" class="node">
<title>Node10</title>
<g id="a_node10"><a xlink:href="Mode_8h.html" target="_top" xlink:title=" ">
<polygon fill="none" stroke="black" points="311.5,-168.5 311.5,-187.5 408.5,-187.5 408.5,-168.5 311.5,-168.5"/>
<text text-anchor="middle" x="360" y="-175.5" font-family="Helvetica,sans-Serif" font-size="10.00">../Modes/Mode.h</text>
</a>
</g>
</g>
<!-- Node1&#45;&gt;Node10 -->
<g id="edge53" class="edge">
<title>Node1&#45;&gt;Node10</title>
<path fill="none" stroke="midnightblue" d="M550.21,-338.11C519.43,-330.57 484.68,-318.65 457,-300 416.41,-272.66 384.55,-223.14 369.5,-196.72"/>
<polygon fill="midnightblue" stroke="midnightblue" points="372.47,-194.87 364.56,-187.82 366.35,-198.27 372.47,-194.87"/>
</g>
<!-- Node12 -->
<g id="node12" class="node">
<title>Node12</title>
<g id="a_node12"><a xlink:href="ByteStream_8h.html" target="_top" xlink:title=" ">
<polygon fill="none" stroke="black" points="795,-168.5 795,-187.5 927,-187.5 927,-168.5 795,-168.5"/>
<text text-anchor="middle" x="861" y="-175.5" font-family="Helvetica,sans-Serif" font-size="10.00">../../Serial/ByteStream.h</text>
</a>
</g>
</g>
<!-- Node1&#45;&gt;Node12 -->
<g id="edge18" class="edge">
<title>Node1&#45;&gt;Node12</title>
<path fill="none" stroke="midnightblue" d="M645.23,-336.47C689.12,-304.43 796.33,-226.19 840.98,-193.61"/>
<polygon fill="midnightblue" stroke="midnightblue" points="843.26,-196.28 849.27,-187.56 839.13,-190.63 843.26,-196.28"/>
</g>
<!-- Node13 -->
<g id="node13" class="node">
<title>Node13</title>
<g id="a_node13"><a xlink:href="Log_8h.html" target="_top" xlink:title=" ">
<polygon fill="none" stroke="black" points="209,-112.5 209,-131.5 281,-131.5 281,-112.5 209,-112.5"/>
<text text-anchor="middle" x="245" y="-119.5" font-family="Helvetica,sans-Serif" font-size="10.00">../Log/Log.h</text>
</a>
</g>
</g>
<!-- Node1&#45;&gt;Node13 -->
<g id="edge55" class="edge">
<title>Node1&#45;&gt;Node13</title>
<path fill="none" stroke="midnightblue" d="M550.37,-339.51C502.24,-331.34 439.02,-318.39 385,-300 276.61,-263.1 213.87,-284.98 153,-188 137.57,-163.41 170.96,-145.49 201.75,-134.76"/>
<polygon fill="midnightblue" stroke="midnightblue" points="203.18,-137.98 211.59,-131.53 201,-131.32 203.18,-137.98"/>
</g>
<!-- Node14 -->
<g id="node14" class="node">
<title>Node14</title>
<g id="a_node14"><a xlink:href="Serial_8h.html" target="_top" xlink:title=" ">
<polygon fill="none" stroke="black" points="1033,-280.5 1033,-299.5 1135,-299.5 1135,-280.5 1033,-280.5"/>
<text text-anchor="middle" x="1084" y="-287.5" font-family="Helvetica,sans-Serif" font-size="10.00">../../Serial/Serial.h</text>
</a>
</g>
</g>
<!-- Node1&#45;&gt;Node14 -->
<g id="edge23" class="edge">
<title>Node1&#45;&gt;Node14</title>
<path fill="none" stroke="midnightblue" d="M701.63,-340.67C791.51,-329 939.72,-309.74 1022.75,-298.96"/>
<polygon fill="midnightblue" stroke="midnightblue" points="1023.33,-302.41 1032.79,-297.65 1022.42,-295.47 1023.33,-302.41"/>
</g>
<!-- Node15 -->
<g id="node15" class="node">
<title>Node15</title>
<g id="a_node15"><a xlink:href="TimeControl_8h.html" target="_top" xlink:title=" ">
<polygon fill="none" stroke="black" points="162.5,-168.5 162.5,-187.5 293.5,-187.5 293.5,-168.5 162.5,-168.5"/>
<text text-anchor="middle" x="228" y="-175.5" font-family="Helvetica,sans-Serif" font-size="10.00">../../Time/TimeControl.h</text>
</a>
</g>
</g>
<!-- Node1&#45;&gt;Node15 -->
<g id="edge25" class="edge">
<title>Node1&#45;&gt;Node15</title>
<path fill="none" stroke="midnightblue" d="M550.83,-336.45C513.64,-328.17 468.58,-316.13 430,-300 359.02,-270.33 283.24,-218.9 248.07,-193.73"/>
<polygon fill="midnightblue" stroke="midnightblue" points="249.81,-190.66 239.65,-187.65 245.71,-196.34 249.81,-190.66"/>
</g>
<!-- Node16 -->
<g id="node16" class="node">
<title>Node16</title>
<g id="a_node16"><a xlink:href="Timings_8h.html" target="_top" xlink:title=" ">
<polygon fill="none" stroke="black" points="0,-224.5 0,-243.5 110,-243.5 110,-224.5 0,-224.5"/>
<text text-anchor="middle" x="55" y="-231.5" font-family="Helvetica,sans-Serif" font-size="10.00">../../Time/Timings.h</text>
</a>
</g>
</g>
<!-- Node1&#45;&gt;Node16 -->
<g id="edge29" class="edge">
<title>Node1&#45;&gt;Node16</title>
<path fill="none" stroke="midnightblue" d="M550.06,-348.81C428.91,-345.11 198.02,-333.76 124,-300 100.47,-289.27 79.82,-267.22 67.39,-251.79"/>
<polygon fill="midnightblue" stroke="midnightblue" points="69.95,-249.37 61.06,-243.6 64.41,-253.66 69.95,-249.37"/>
</g>
<!-- Node17 -->
<g id="node17" class="node">
<title>Node17</title>
<g id="a_node17"><a xlink:href="IRReceiver_8h.html" target="_top" xlink:title=" ">
<polygon fill="none" stroke="black" points="993,-224.5 993,-243.5 1133,-243.5 1133,-224.5 993,-224.5"/>
<text text-anchor="middle" x="1063" y="-231.5" font-family="Helvetica,sans-Serif" font-size="10.00">../../Wireless/IRReceiver.h</text>
</a>
</g>
</g>
<!-- Node1&#45;&gt;Node17 -->
<g id="edge32" class="edge">
<title>Node1&#45;&gt;Node17</title>
<path fill="none" stroke="midnightblue" d="M679.15,-336.45C767.06,-313.22 940.96,-267.26 1020.95,-246.11"/>
<polygon fill="midnightblue" stroke="midnightblue" points="1021.91,-249.48 1030.68,-243.54 1020.12,-242.71 1021.91,-249.48"/>
</g>
<!-- Node20 -->
<g id="node20" class="node">
<title>Node20</title>
<g id="a_node20"><a xlink:href="IRSender_8h.html" target="_top" xlink:title=" ">
<polygon fill="none" stroke="black" points="819.5,-224.5 819.5,-243.5 950.5,-243.5 950.5,-224.5 819.5,-224.5"/>
<text text-anchor="middle" x="885" y="-231.5" font-family="Helvetica,sans-Serif" font-size="10.00">../../Wireless/IRSender.h</text>
</a>
</g>
</g>
<!-- Node1&#45;&gt;Node20 -->
<g id="edge37" class="edge">
<title>Node1&#45;&gt;Node20</title>
<path fill="none" stroke="midnightblue" d="M675.28,-336.41C704.53,-327.38 742.03,-314.63 774,-300 806.51,-285.12 841.78,-263.42 863.64,-249.26"/>
<polygon fill="midnightblue" stroke="midnightblue" points="865.69,-252.1 872.13,-243.69 861.85,-246.24 865.69,-252.1"/>
</g>
<!-- Node21 -->
<g id="node21" class="node">
<title>Node21</title>
<g id="a_node21"><a xlink:href="Button_8h.html" target="_top" xlink:title=" ">
<polygon fill="none" stroke="black" points="1175,-280.5 1175,-299.5 1291,-299.5 1291,-280.5 1175,-280.5"/>
<text text-anchor="middle" x="1233" y="-287.5" font-family="Helvetica,sans-Serif" font-size="10.00">../../Buttons/Button.h</text>
</a>
</g>
</g>
<!-- Node1&#45;&gt;Node21 -->
<g id="edge41" class="edge">
<title>Node1&#45;&gt;Node21</title>
<path fill="none" stroke="midnightblue" d="M701.5,-343.23C802.36,-333.49 986.65,-315.63 1144,-300 1150.65,-299.34 1157.57,-298.65 1164.49,-297.95"/>
<polygon fill="midnightblue" stroke="midnightblue" points="1165,-301.42 1174.6,-296.94 1164.3,-294.45 1165,-301.42"/>
</g>
<!-- Node22 -->
<g id="node22" class="node">
<title>Node22</title>
<g id="a_node22"><a xlink:href="Modes_8h.html" target="_top" xlink:title=" ">
<polygon fill="none" stroke="black" points="612.5,-224.5 612.5,-243.5 723.5,-243.5 723.5,-224.5 612.5,-224.5"/>
<text text-anchor="middle" x="668" y="-231.5" font-family="Helvetica,sans-Serif" font-size="10.00">../../Modes/Modes.h</text>
</a>
</g>
</g>
<!-- Node1&#45;&gt;Node22 -->
<g id="edge43" class="edge">
<title>Node1&#45;&gt;Node22</title>
<path fill="none" stroke="midnightblue" d="M631.15,-336.34C638.75,-315.43 652.98,-276.31 661.36,-253.27"/>
<polygon fill="midnightblue" stroke="midnightblue" points="664.72,-254.26 664.85,-243.67 658.14,-251.87 664.72,-254.26"/>
</g>
<!-- Node23 -->
<g id="node23" class="node">
<title>Node23</title>
<g id="a_node23"><a xlink:href="Leds_8h.html" target="_top" xlink:title=" ">
<polygon fill="none" stroke="black" points="541.5,-168.5 541.5,-187.5 624.5,-187.5 624.5,-168.5 541.5,-168.5"/>
<text text-anchor="middle" x="583" y="-175.5" font-family="Helvetica,sans-Serif" font-size="10.00">../Leds/Leds.h</text>
</a>
</g>
</g>
<!-- Node1&#45;&gt;Node23 -->
<g id="edge54" class="edge">
<title>Node1&#45;&gt;Node23</title>
<path fill="none" stroke="midnightblue" d="M622.48,-336.47C614.77,-305.7 596.37,-232.33 587.69,-197.7"/>
<polygon fill="midnightblue" stroke="midnightblue" points="590.97,-196.41 585.15,-187.56 584.18,-198.11 590.97,-196.41"/>
</g>
<!-- Node3 -->
<g id="node3" class="node">
<title>Node3</title>
<g id="a_node3"><a xlink:href="Menu_8h.html" target="_top" xlink:title=" ">
<polygon fill="none" stroke="black" points="480,-224.5 480,-243.5 542,-243.5 542,-224.5 480,-224.5"/>
<text text-anchor="middle" x="511" y="-231.5" font-family="Helvetica,sans-Serif" font-size="10.00">../Menu.h</text>
</a>
</g>
</g>
<!-- Node2&#45;&gt;Node3 -->
<g id="edge2" class="edge">
<title>Node2&#45;&gt;Node3</title>
<path fill="none" stroke="midnightblue" d="M511,-280.08C511,-273.01 511,-262.86 511,-253.99"/>
<polygon fill="midnightblue" stroke="midnightblue" points="514.5,-253.75 511,-243.75 507.5,-253.75 514.5,-253.75"/>
</g>
<!-- Node4 -->
<g id="node4" class="node">
<title>Node4</title>
<g id="a_node4"><a xlink:title=" ">
<polygon fill="none" stroke="#bfbfbf" points="771.5,-56.5 771.5,-75.5 836.5,-75.5 836.5,-56.5 771.5,-56.5"/>
<text text-anchor="middle" x="804" y="-63.5" font-family="Helvetica,sans-Serif" font-size="10.00">inttypes.h</text>
</a>
</g>
</g>
<!-- Node3&#45;&gt;Node4 -->
<g id="edge3" class="edge">
<title>Node3&#45;&gt;Node4</title>
<path fill="none" stroke="midnightblue" d="M542.05,-226.17C591.45,-214.08 689.1,-185.03 755,-132 771.46,-118.76 785.41,-98.81 794.16,-84.51"/>
<polygon fill="midnightblue" stroke="midnightblue" points="797.31,-86.06 799.36,-75.66 791.28,-82.51 797.31,-86.06"/>
</g>
<!-- Node5 -->
<g id="node5" class="node">
<title>Node5</title>
<g id="a_node5"><a xlink:href="ColorTypes_8h.html" target="_top" xlink:title=" ">
<polygon fill="none" stroke="black" points="461,-112.5 461,-131.5 583,-131.5 583,-112.5 461,-112.5"/>
<text text-anchor="middle" x="522" y="-119.5" font-family="Helvetica,sans-Serif" font-size="10.00">../Colors/ColorTypes.h</text>
</a>
</g>
</g>
<!-- Node3&#45;&gt;Node5 -->
<g id="edge4" class="edge">
<title>Node3&#45;&gt;Node5</title>
<path fill="none" stroke="midnightblue" d="M511.86,-224.37C513.64,-206.62 517.73,-165.67 520.14,-141.6"/>
<polygon fill="midnightblue" stroke="midnightblue" points="523.63,-141.89 521.14,-131.59 516.66,-141.19 523.63,-141.89"/>
</g>
<!-- Node8 -->
<g id="node8" class="node">
<title>Node8</title>
<g id="a_node8"><a xlink:href="LedTypes_8h.html" target="_top" xlink:title=" ">
<polygon fill="none" stroke="black" points="337.5,-112.5 337.5,-131.5 442.5,-131.5 442.5,-112.5 337.5,-112.5"/>
<text text-anchor="middle" x="390" y="-119.5" font-family="Helvetica,sans-Serif" font-size="10.00">../Leds/LedTypes.h</text>
</a>
</g>
</g>
<!-- Node3&#45;&gt;Node8 -->
<g id="edge9" class="edge">
<title>Node3&#45;&gt;Node8</title>
<path fill="none" stroke="midnightblue" d="M501.51,-224.37C481.1,-205.81 432.8,-161.91 406.98,-138.44"/>
<polygon fill="midnightblue" stroke="midnightblue" points="409.2,-135.73 399.45,-131.59 404.5,-140.91 409.2,-135.73"/>
</g>
<!-- Node3&#45;&gt;Node10 -->
<g id="edge13" class="edge">
<title>Node3&#45;&gt;Node10</title>
<path fill="none" stroke="midnightblue" d="M487.07,-224.44C461.78,-215.4 421.7,-201.06 393.32,-190.92"/>
<polygon fill="midnightblue" stroke="midnightblue" points="394.41,-187.59 383.81,-187.52 392.05,-194.18 394.41,-187.59"/>
</g>
<!-- Node5&#45;&gt;Node4 -->
<g id="edge5" class="edge">
<title>Node5&#45;&gt;Node4</title>
<path fill="none" stroke="midnightblue" d="M566.68,-112.44C620.12,-102.21 708.9,-85.21 761.4,-75.16"/>
<polygon fill="midnightblue" stroke="midnightblue" points="762.23,-78.56 771.39,-73.24 760.91,-71.69 762.23,-78.56"/>
</g>
<!-- Node6 -->
<g id="node6" class="node">
<title>Node6</title>
<g id="a_node6"><a xlink:href="VortexConfig_8h.html" target="_top" xlink:title=" ">
<polygon fill="none" stroke="black" points="164.5,-56.5 164.5,-75.5 261.5,-75.5 261.5,-56.5 164.5,-56.5"/>
<text text-anchor="middle" x="213" y="-63.5" font-family="Helvetica,sans-Serif" font-size="10.00">../VortexConfig.h</text>
</a>
</g>
</g>
<!-- Node5&#45;&gt;Node6 -->
<g id="edge6" class="edge">
<title>Node5&#45;&gt;Node6</title>
<path fill="none" stroke="midnightblue" d="M473.04,-112.44C418.46,-102.9 330.21,-87.48 271.9,-77.29"/>
<polygon fill="midnightblue" stroke="midnightblue" points="272.19,-73.79 261.73,-75.52 270.98,-80.69 272.19,-73.79"/>
</g>
<!-- Node7 -->
<g id="node7" class="node">
<title>Node7</title>
<g id="a_node7"><a xlink:href="ColorConstants_8h.html" target="_top" xlink:title=" ">
<polygon fill="none" stroke="black" points="284,-0.5 284,-19.5 418,-19.5 418,-0.5 284,-0.5"/>
<text text-anchor="middle" x="351" y="-7.5" font-family="Helvetica,sans-Serif" font-size="10.00">Colors/ColorConstants.h</text>
</a>
</g>
</g>
<!-- Node5&#45;&gt;Node7 -->
<g id="edge8" class="edge">
<title>Node5&#45;&gt;Node7</title>
<path fill="none" stroke="midnightblue" d="M508.58,-112.37C479.24,-93.49 409.12,-48.38 373.13,-25.24"/>
<polygon fill="midnightblue" stroke="midnightblue" points="374.66,-22.06 364.36,-19.59 370.87,-27.95 374.66,-22.06"/>
</g>
<!-- Node6&#45;&gt;Node7 -->
<g id="edge7" class="edge">
<title>Node6&#45;&gt;Node7</title>
<path fill="none" stroke="midnightblue" d="M234.87,-56.44C257.78,-47.48 293.98,-33.31 319.87,-23.18"/>
<polygon fill="midnightblue" stroke="midnightblue" points="321.2,-26.42 329.24,-19.52 318.65,-19.9 321.2,-26.42"/>
</g>
<!-- Node8&#45;&gt;Node4 -->
<g id="edge10" class="edge">
<title>Node8&#45;&gt;Node4</title>
<path fill="none" stroke="midnightblue" d="M442.76,-113.28C445.88,-112.84 448.98,-112.41 452,-112 563.54,-96.78 695.18,-80.36 761.41,-72.21"/>
<polygon fill="midnightblue" stroke="midnightblue" points="761.96,-75.67 771.46,-70.97 761.11,-68.72 761.96,-75.67"/>
</g>
<!-- Node8&#45;&gt;Node6 -->
<g id="edge12" class="edge">
<title>Node8&#45;&gt;Node6</title>
<path fill="none" stroke="midnightblue" d="M361.95,-112.44C331.92,-103.28 284.09,-88.69 250.76,-78.52"/>
<polygon fill="midnightblue" stroke="midnightblue" points="251.5,-75.09 240.91,-75.52 249.46,-81.78 251.5,-75.09"/>
</g>
<!-- Node9 -->
<g id="node9" class="node">
<title>Node9</title>
<g id="a_node9"><a xlink:title=" ">
<polygon fill="none" stroke="#bfbfbf" points="321,-56.5 321,-75.5 377,-75.5 377,-56.5 321,-56.5"/>
<text text-anchor="middle" x="349" y="-63.5" font-family="Helvetica,sans-Serif" font-size="10.00">stdarg.h</text>
</a>
</g>
</g>
<!-- Node8&#45;&gt;Node9 -->
<g id="edge11" class="edge">
<title>Node8&#45;&gt;Node9</title>
<path fill="none" stroke="midnightblue" d="M383.23,-112.08C377.44,-104.46 368.94,-93.26 361.86,-83.94"/>
<polygon fill="midnightblue" stroke="midnightblue" points="364.48,-81.6 355.64,-75.75 358.9,-85.83 364.48,-81.6"/>
</g>
<!-- Node10&#45;&gt;Node6 -->
<g id="edge17" class="edge">
<title>Node10&#45;&gt;Node6</title>
<path fill="none" stroke="midnightblue" d="M311.41,-168.89C257.25,-159.35 176.04,-143.39 167,-132 153.71,-115.25 173.27,-95.01 190.84,-81.61"/>
<polygon fill="midnightblue" stroke="midnightblue" points="193.08,-84.31 199.15,-75.63 188.99,-78.63 193.08,-84.31"/>
</g>
<!-- Node10&#45;&gt;Node8 -->
<g id="edge14" class="edge">
<title>Node10&#45;&gt;Node8</title>
<path fill="none" stroke="midnightblue" d="M364.95,-168.08C369.1,-160.61 375.15,-149.72 380.27,-140.52"/>
<polygon fill="midnightblue" stroke="midnightblue" points="383.34,-142.19 385.14,-131.75 377.22,-138.79 383.34,-142.19"/>
</g>
<!-- Node11 -->
<g id="node11" class="node">
<title>Node11</title>
<g id="a_node11"><a xlink:href="Patterns_8h.html" target="_top" xlink:title=" ">
<polygon fill="none" stroke="black" points="601.5,-112.5 601.5,-131.5 718.5,-131.5 718.5,-112.5 601.5,-112.5"/>
<text text-anchor="middle" x="660" y="-119.5" font-family="Helvetica,sans-Serif" font-size="10.00">../Patterns/Patterns.h</text>
</a>
</g>
</g>
<!-- Node10&#45;&gt;Node11 -->
<g id="edge15" class="edge">
<title>Node10&#45;&gt;Node11</title>
<path fill="none" stroke="midnightblue" d="M407.54,-168.44C460.53,-158.9 546.2,-143.48 602.82,-133.29"/>
<polygon fill="midnightblue" stroke="midnightblue" points="603.46,-136.73 612.69,-131.52 602.22,-129.84 603.46,-136.73"/>
</g>
<!-- Node11&#45;&gt;Node4 -->
<g id="edge16" class="edge">
<title>Node11&#45;&gt;Node4</title>
<path fill="none" stroke="midnightblue" d="M682.82,-112.44C706.83,-103.44 744.83,-89.19 771.87,-79.05"/>
<polygon fill="midnightblue" stroke="midnightblue" points="773.16,-82.3 781.29,-75.52 770.7,-75.75 773.16,-82.3"/>
</g>
<!-- Node12&#45;&gt;Node4 -->
<g id="edge19" class="edge">
<title>Node12&#45;&gt;Node4</title>
<path fill="none" stroke="midnightblue" d="M858.62,-168.26C854.95,-155.46 847.25,-131.07 837,-112 831.68,-102.1 824.4,-91.93 818.03,-83.77"/>
<polygon fill="midnightblue" stroke="midnightblue" points="820.62,-81.4 811.62,-75.81 815.17,-85.79 820.62,-81.4"/>
</g>
<!-- Node12&#45;&gt;Node13 -->
<g id="edge20" class="edge">
<title>Node12&#45;&gt;Node13</title>
<path fill="none" stroke="midnightblue" d="M794.9,-171.93C694.11,-164.08 496,-148.2 328,-132 316.17,-130.86 303.41,-129.53 291.52,-128.24"/>
<polygon fill="midnightblue" stroke="midnightblue" points="291.66,-124.74 281.34,-127.13 290.9,-131.69 291.66,-124.74"/>
</g>
<!-- Node13&#45;&gt;Node6 -->
<g id="edge22" class="edge">
<title>Node13&#45;&gt;Node6</title>
<path fill="none" stroke="midnightblue" d="M239.72,-112.08C235.29,-104.61 228.84,-93.72 223.38,-84.52"/>
<polygon fill="midnightblue" stroke="midnightblue" points="226.29,-82.57 218.19,-75.75 220.27,-86.14 226.29,-82.57"/>
</g>
<!-- Node13&#45;&gt;Node9 -->
<g id="edge21" class="edge">
<title>Node13&#45;&gt;Node9</title>
<path fill="none" stroke="midnightblue" d="M261.71,-112.32C278.31,-103.7 304,-90.36 323.22,-80.39"/>
<polygon fill="midnightblue" stroke="midnightblue" points="325.07,-83.37 332.33,-75.65 321.84,-77.16 325.07,-83.37"/>
</g>
<!-- Node14&#45;&gt;Node4 -->
<g id="edge24" class="edge">
<title>Node14&#45;&gt;Node4</title>
<path fill="none" stroke="midnightblue" d="M1098.4,-280.35C1128.53,-261.09 1193.47,-212.85 1169,-168 1146.98,-127.63 1124.94,-128.47 1082,-112 1002.66,-81.57 902.92,-71.72 847.04,-68.53"/>
<polygon fill="midnightblue" stroke="midnightblue" points="846.97,-65.02 836.8,-67.99 846.6,-72.01 846.97,-65.02"/>
</g>
<!-- Node15&#45;&gt;Node4 -->
<g id="edge26" class="edge">
<title>Node15&#45;&gt;Node4</title>
<path fill="none" stroke="midnightblue" d="M239.76,-168.32C261.88,-152.18 309.13,-118.58 328,-112 407.49,-84.3 659.81,-72.25 761.21,-68.43"/>
<polygon fill="midnightblue" stroke="midnightblue" points="761.52,-71.92 771.39,-68.06 761.27,-64.93 761.52,-71.92"/>
</g>
<!-- Node15&#45;&gt;Node6 -->
<g id="edge27" class="edge">
<title>Node15&#45;&gt;Node6</title>
<path fill="none" stroke="midnightblue" d="M183.99,-168.44C163.6,-162.03 141.21,-150.97 129,-132 113.93,-108.6 145.83,-90.2 174.56,-79.03"/>
<polygon fill="midnightblue" stroke="midnightblue" points="175.92,-82.26 184.1,-75.53 173.51,-75.69 175.92,-82.26"/>
</g>
<!-- Node15&#45;&gt;Node8 -->
<g id="edge28" class="edge">
<title>Node15&#45;&gt;Node8</title>
<path fill="none" stroke="midnightblue" d="M253.67,-168.44C280.92,-159.36 324.18,-144.94 354.65,-134.78"/>
<polygon fill="midnightblue" stroke="midnightblue" points="356.07,-138 364.45,-131.52 353.86,-131.36 356.07,-138"/>
</g>
<!-- Node16&#45;&gt;Node6 -->
<g id="edge31" class="edge">
<title>Node16&#45;&gt;Node6</title>
<path fill="none" stroke="midnightblue" d="M57.78,-224.24C65.06,-202.58 86.57,-145.82 122,-112 137.27,-97.42 158.18,-86.63 176.11,-79.28"/>
<polygon fill="midnightblue" stroke="midnightblue" points="177.65,-82.43 185.7,-75.54 175.12,-75.91 177.65,-82.43"/>
</g>
<!-- Node16&#45;&gt;Node15 -->
<g id="edge30" class="edge">
<title>Node16&#45;&gt;Node15</title>
<path fill="none" stroke="midnightblue" d="M82.41,-224.44C111.77,-215.28 158.52,-200.69 191.1,-190.52"/>
<polygon fill="midnightblue" stroke="midnightblue" points="192.21,-193.84 200.72,-187.52 190.13,-187.16 192.21,-193.84"/>
</g>
<!-- Node17&#45;&gt;Node4 -->
<g id="edge33" class="edge">
<title>Node17&#45;&gt;Node4</title>
<path fill="none" stroke="midnightblue" d="M1093.87,-224.45C1126.68,-213.78 1171.36,-193.78 1152,-168 1115.05,-118.81 931.42,-85.83 846.81,-73"/>
<polygon fill="midnightblue" stroke="midnightblue" points="847.17,-69.51 836.76,-71.5 846.14,-76.44 847.17,-69.51"/>
</g>
<!-- Node18 -->
<g id="node18" class="node">
<title>Node18</title>
<g id="a_node18"><a xlink:href="BitStream_8h.html" target="_top" xlink:title=" ">
<polygon fill="none" stroke="black" points="945,-168.5 945,-187.5 1059,-187.5 1059,-168.5 945,-168.5"/>
<text text-anchor="middle" x="1002" y="-175.5" font-family="Helvetica,sans-Serif" font-size="10.00">../Serial/BitStream.h</text>
</a>
</g>
</g>
<!-- Node17&#45;&gt;Node18 -->
<g id="edge34" class="edge">
<title>Node17&#45;&gt;Node18</title>
<path fill="none" stroke="midnightblue" d="M1053.2,-224.32C1044.18,-216.34 1030.59,-204.31 1019.68,-194.65"/>
<polygon fill="midnightblue" stroke="midnightblue" points="1021.79,-191.84 1011.98,-187.83 1017.15,-197.08 1021.79,-191.84"/>
</g>
<!-- Node19 -->
<g id="node19" class="node">
<title>Node19</title>
<g id="a_node19"><a xlink:href="IRConfig_8h.html" target="_top" xlink:title=" ">
<polygon fill="none" stroke="black" points="1077,-168.5 1077,-187.5 1143,-187.5 1143,-168.5 1077,-168.5"/>
<text text-anchor="middle" x="1110" y="-175.5" font-family="Helvetica,sans-Serif" font-size="10.00">IRConfig.h</text>
</a>
</g>
</g>
<!-- Node17&#45;&gt;Node19 -->
<g id="edge36" class="edge">
<title>Node17&#45;&gt;Node19</title>
<path fill="none" stroke="midnightblue" d="M1070.76,-224.08C1077.54,-216.3 1087.54,-204.8 1095.76,-195.37"/>
<polygon fill="midnightblue" stroke="midnightblue" points="1098.46,-197.59 1102.38,-187.75 1093.18,-193 1098.46,-197.59"/>
</g>
<!-- Node18&#45;&gt;Node4 -->
<g id="edge35" class="edge">
<title>Node18&#45;&gt;Node4</title>
<path fill="none" stroke="midnightblue" d="M986.46,-168.37C952.12,-149.29 869.56,-103.42 828.31,-80.51"/>
<polygon fill="midnightblue" stroke="midnightblue" points="829.91,-77.39 819.46,-75.59 826.51,-83.51 829.91,-77.39"/>
</g>
<!-- Node20&#45;&gt;Node12 -->
<g id="edge38" class="edge">
<title>Node20&#45;&gt;Node12</title>
<path fill="none" stroke="midnightblue" d="M881.04,-224.08C877.79,-216.77 873.08,-206.18 869.05,-197.1"/>
<polygon fill="midnightblue" stroke="midnightblue" points="872.15,-195.47 864.89,-187.75 865.75,-198.31 872.15,-195.47"/>
</g>
<!-- Node20&#45;&gt;Node18 -->
<g id="edge39" class="edge">
<title>Node20&#45;&gt;Node18</title>
<path fill="none" stroke="midnightblue" d="M903.54,-224.44C922.62,-215.64 952.57,-201.81 974.44,-191.72"/>
<polygon fill="midnightblue" stroke="midnightblue" points="975.93,-194.88 983.55,-187.52 973,-188.53 975.93,-194.88"/>
</g>
<!-- Node20&#45;&gt;Node19 -->
<g id="edge40" class="edge">
<title>Node20&#45;&gt;Node19</title>
<path fill="none" stroke="midnightblue" d="M920.65,-224.44C960.34,-214.92 1024.48,-199.52 1066.94,-189.33"/>
<polygon fill="midnightblue" stroke="midnightblue" points="1067.81,-192.73 1076.72,-186.99 1066.17,-185.92 1067.81,-192.73"/>
</g>
<!-- Node21&#45;&gt;Node4 -->
<g id="edge42" class="edge">
<title>Node21&#45;&gt;Node4</title>
<path fill="none" stroke="midnightblue" d="M1231.15,-280.42C1226.36,-259.64 1212.11,-205.57 1186,-168 1164.62,-137.24 1157,-127.73 1123,-112 1074.7,-89.65 921.94,-75.66 846.71,-69.95"/>
<polygon fill="midnightblue" stroke="midnightblue" points="846.86,-66.46 836.62,-69.2 846.34,-73.44 846.86,-66.46"/>
</g>
<!-- Node22&#45;&gt;Node4 -->
<g id="edge52" class="edge">
<title>Node22&#45;&gt;Node4</title>
<path fill="none" stroke="midnightblue" d="M687.79,-224.32C717.81,-209.98 774.02,-178.24 799,-132 806.65,-117.84 807.34,-99.36 806.45,-85.72"/>
<polygon fill="midnightblue" stroke="midnightblue" points="809.92,-85.21 805.44,-75.61 802.95,-85.91 809.92,-85.21"/>
</g>
<!-- Node22&#45;&gt;Node5 -->
<g id="edge45" class="edge">
<title>Node22&#45;&gt;Node5</title>
<path fill="none" stroke="midnightblue" d="M665.42,-224.2C660.96,-210.44 650.56,-183.74 633,-168 615.36,-152.18 591.43,-141.53 570.3,-134.58"/>
<polygon fill="midnightblue" stroke="midnightblue" points="571.1,-131.16 560.52,-131.55 569.03,-137.85 571.1,-131.16"/>
</g>
<!-- Node22&#45;&gt;Node6 -->
<g id="edge51" class="edge">
<title>Node22&#45;&gt;Node6</title>
<path fill="none" stroke="midnightblue" d="M638.45,-224.43C591.73,-211.1 497.8,-185.13 417,-168 369.18,-157.86 231.61,-169.29 200,-132 188.87,-118.88 195.18,-98.91 202.35,-84.57"/>
<polygon fill="midnightblue" stroke="midnightblue" points="205.48,-86.15 207.24,-75.7 199.35,-82.76 205.48,-86.15"/>
</g>
<!-- Node22&#45;&gt;Node11 -->
<g id="edge46" class="edge">
<title>Node22&#45;&gt;Node11</title>
<path fill="none" stroke="midnightblue" d="M668.25,-224.15C668.52,-211.62 668.7,-188.02 667,-168 666.25,-159.23 664.83,-149.57 663.46,-141.46"/>
<polygon fill="midnightblue" stroke="midnightblue" points="666.9,-140.81 661.7,-131.58 660.01,-142.04 666.9,-140.81"/>
</g>
<!-- Node22&#45;&gt;Node12 -->
<g id="edge44" class="edge">
<title>Node22&#45;&gt;Node12</title>
<path fill="none" stroke="midnightblue" d="M698.58,-224.44C731.61,-215.2 784.39,-200.44 820.77,-190.26"/>
<polygon fill="midnightblue" stroke="midnightblue" points="821.87,-193.58 830.56,-187.52 819.99,-186.84 821.87,-193.58"/>
</g>
<!-- Node22&#45;&gt;Node23 -->
<g id="edge47" class="edge">
<title>Node22&#45;&gt;Node23</title>
<path fill="none" stroke="midnightblue" d="M654.34,-224.32C641.08,-215.9 620.73,-202.97 605.15,-193.07"/>
<polygon fill="midnightblue" stroke="midnightblue" points="606.94,-190.06 596.62,-187.65 603.19,-195.97 606.94,-190.06"/>
</g>
<!-- Node23&#45;&gt;Node4 -->
<g id="edge48" class="edge">
<title>Node23&#45;&gt;Node4</title>
<path fill="none" stroke="midnightblue" d="M624.79,-168.6C654.52,-161.53 694.74,-149.71 727,-132 750.81,-118.93 774.06,-97.81 788.67,-83.21"/>
<polygon fill="midnightblue" stroke="midnightblue" points="791.37,-85.46 795.85,-75.86 786.36,-80.57 791.37,-85.46"/>
</g>
<!-- Node23&#45;&gt;Node5 -->
<g id="edge49" class="edge">
<title>Node23&#45;&gt;Node5</title>
<path fill="none" stroke="midnightblue" d="M573.2,-168.32C564.18,-160.34 550.59,-148.31 539.68,-138.65"/>
<polygon fill="midnightblue" stroke="midnightblue" points="541.79,-135.84 531.98,-131.83 537.15,-141.08 541.79,-135.84"/>
</g>
<!-- Node23&#45;&gt;Node8 -->
<g id="edge50" class="edge">
<title>Node23&#45;&gt;Node8</title>
<path fill="none" stroke="midnightblue" d="M552.42,-168.44C519.39,-159.2 466.61,-144.44 430.23,-134.26"/>
<polygon fill="midnightblue" stroke="midnightblue" points="431.01,-130.84 420.44,-131.52 429.13,-137.58 431.01,-130.84"/>
</g>
</g>
</svg>
