<?xml version="1.0" encoding="UTF-8" standalone="no"?>
<!DOCTYPE svg PUBLIC "-//W3C//DTD SVG 1.1//EN"
 "http://www.w3.org/Graphics/SVG/1.1/DTD/svg11.dtd">
<!-- Generated by graphviz version 2.43.0 (0)
 -->
<!-- Title: VortexEngine/src/Wireless/VLReceiver.cpp Pages: 1 -->
<svg width="1044pt" height="319pt"
 viewBox="0.00 0.00 1043.77 319.00" xmlns="http://www.w3.org/2000/svg" xmlns:xlink="http://www.w3.org/1999/xlink">
<g id="graph0" class="graph" transform="scale(1 1) rotate(0) translate(4 315)">
<title>VortexEngine/src/Wireless/VLReceiver.cpp</title>
<!-- Node1 -->
<g id="node1" class="node">
<title>Node1</title>
<g id="a_node1"><a xlink:title=" ">
<polygon fill="#bfbfbf" stroke="black" points="644.77,-280.5 644.77,-310.5 787.77,-310.5 787.77,-280.5 644.77,-280.5"/>
<text text-anchor="start" x="652.77" y="-298.5" font-family="Helvetica,sans-Serif" font-size="10.00">VortexEngine/src/Wireless</text>
<text text-anchor="middle" x="716.27" y="-287.5" font-family="Helvetica,sans-Serif" font-size="10.00">/VLReceiver.cpp</text>
</a>
</g>
</g>
<!-- Node2 -->
<g id="node2" class="node">
<title>Node2</title>
<g id="a_node2"><a xlink:href="VLReceiver_8h.html" target="_top" xlink:title=" ">
<polygon fill="none" stroke="black" points="840.27,-168.5 840.27,-187.5 920.27,-187.5 920.27,-168.5 840.27,-168.5"/>
<text text-anchor="middle" x="880.27" y="-175.5" font-family="Helvetica,sans-Serif" font-size="10.00">VLReceiver.h</text>
</a>
</g>
</g>
<!-- Node1&#45;&gt;Node2 -->
<g id="edge1" class="edge">
<title>Node1&#45;&gt;Node2</title>
<path fill="none" stroke="midnightblue" d="M758.15,-280.4C779.78,-271.9 805.84,-259.66 826.27,-244 843.85,-230.53 859.47,-210.35 869.33,-196.05"/>
<polygon fill="midnightblue" stroke="midnightblue" points="872.31,-197.9 874.95,-187.64 866.49,-194.01 872.31,-197.9"/>
</g>
<!-- Node4 -->
<g id="node4" class="node">
<title>Node4</title>
<g id="a_node4"><a xlink:href="BitStream_8h.html" target="_top" xlink:title=" ">
<polygon fill="none" stroke="black" points="823.27,-112.5 823.27,-131.5 937.27,-131.5 937.27,-112.5 823.27,-112.5"/>
<text text-anchor="middle" x="880.27" y="-119.5" font-family="Helvetica,sans-Serif" font-size="10.00">../Serial/BitStream.h</text>
</a>
</g>
</g>
<!-- Node1&#45;&gt;Node4 -->
<g id="edge16" class="edge">
<title>Node1&#45;&gt;Node4</title>
<path fill="none" stroke="midnightblue" d="M728.3,-280.46C748.81,-256.71 792.13,-207.35 831.27,-168 841.35,-157.87 853.14,-147.02 862.62,-138.51"/>
<polygon fill="midnightblue" stroke="midnightblue" points="865.12,-140.97 870.27,-131.71 860.47,-135.74 865.12,-140.97"/>
</g>
<!-- Node8 -->
<g id="node8" class="node">
<title>Node8</title>
<g id="a_node8"><a xlink:href="ByteStream_8h.html" target="_top" xlink:title=" ">
<polygon fill="none" stroke="black" points="488.77,-224.5 488.77,-243.5 611.77,-243.5 611.77,-224.5 488.77,-224.5"/>
<text text-anchor="middle" x="550.27" y="-231.5" font-family="Helvetica,sans-Serif" font-size="10.00">../Serial/ByteStream.h</text>
</a>
</g>
</g>
<!-- Node1&#45;&gt;Node8 -->
<g id="edge8" class="edge">
<title>Node1&#45;&gt;Node8</title>
<path fill="none" stroke="midnightblue" d="M676.93,-280.4C648.71,-270.28 611.07,-256.79 584.17,-247.15"/>
<polygon fill="midnightblue" stroke="midnightblue" points="585.02,-243.74 574.43,-243.66 582.66,-250.33 585.02,-243.74"/>
</g>
<!-- Node9 -->
<g id="node9" class="node">
<title>Node9</title>
<g id="a_node9"><a xlink:href="Log_8h.html" target="_top" xlink:title=" ">
<polygon fill="none" stroke="black" points="114.27,-168.5 114.27,-187.5 186.27,-187.5 186.27,-168.5 114.27,-168.5"/>
<text text-anchor="middle" x="150.27" y="-175.5" font-family="Helvetica,sans-Serif" font-size="10.00">../Log/Log.h</text>
</a>
</g>
</g>
<!-- Node1&#45;&gt;Node9 -->
<g id="edge36" class="edge">
<title>Node1&#45;&gt;Node9</title>
<path fill="none" stroke="midnightblue" d="M647.44,-280.45C530.49,-256.59 296.04,-208.75 196.59,-188.45"/>
<polygon fill="midnightblue" stroke="midnightblue" points="197.04,-184.97 186.54,-186.4 195.64,-191.83 197.04,-184.97"/>
</g>
<!-- Node12 -->
<g id="node12" class="node">
<title>Node12</title>
<g id="a_node12"><a xlink:href="TimeControl_8h.html" target="_top" xlink:title=" ">
<polygon fill="none" stroke="black" points="388.27,-168.5 388.27,-187.5 510.27,-187.5 510.27,-168.5 388.27,-168.5"/>
<text text-anchor="middle" x="449.27" y="-175.5" font-family="Helvetica,sans-Serif" font-size="10.00">../Time/TimeControl.h</text>
</a>
</g>
</g>
<!-- Node1&#45;&gt;Node12 -->
<g id="edge17" class="edge">
<title>Node1&#45;&gt;Node12</title>
<path fill="none" stroke="midnightblue" d="M707.88,-280.45C697.42,-264.23 678,-237.99 654.27,-224 613.68,-200.06 561.78,-188.83 520.35,-183.57"/>
<polygon fill="midnightblue" stroke="midnightblue" points="520.68,-180.08 510.33,-182.39 519.86,-187.03 520.68,-180.08"/>
</g>
<!-- Node14 -->
<g id="node14" class="node">
<title>Node14</title>
<g id="a_node14"><a xlink:href="Mode_8h.html" target="_top" xlink:title=" ">
<polygon fill="none" stroke="black" points="249.77,-168.5 249.77,-187.5 346.77,-187.5 346.77,-168.5 249.77,-168.5"/>
<text text-anchor="middle" x="298.27" y="-175.5" font-family="Helvetica,sans-Serif" font-size="10.00">../Modes/Mode.h</text>
</a>
</g>
</g>
<!-- Node1&#45;&gt;Node14 -->
<g id="edge24" class="edge">
<title>Node1&#45;&gt;Node14</title>
<path fill="none" stroke="midnightblue" d="M699.52,-280.47C677.07,-261.95 638.1,-230.88 621.27,-224 597.36,-214.22 443.35,-195.51 356.92,-185.58"/>
<polygon fill="midnightblue" stroke="midnightblue" points="357.31,-182.1 346.98,-184.44 356.52,-189.05 357.31,-182.1"/>
</g>
<!-- Node16 -->
<g id="node16" class="node">
<title>Node16</title>
<g id="a_node16"><a xlink:href="Leds_8h.html" target="_top" xlink:title=" ">
<polygon fill="none" stroke="black" points="617.77,-168.5 617.77,-187.5 700.77,-187.5 700.77,-168.5 617.77,-168.5"/>
<text text-anchor="middle" x="659.27" y="-175.5" font-family="Helvetica,sans-Serif" font-size="10.00">../Leds/Leds.h</text>
</a>
</g>
</g>
<!-- Node1&#45;&gt;Node16 -->
<g id="edge29" class="edge">
<title>Node1&#45;&gt;Node16</title>
<path fill="none" stroke="midnightblue" d="M712.86,-280.48C708.99,-265.87 701.95,-242.57 692.27,-224 687.08,-214.03 679.81,-203.85 673.42,-195.71"/>
<polygon fill="midnightblue" stroke="midnightblue" points="675.99,-193.32 666.97,-187.77 670.56,-197.73 675.99,-193.32"/>
</g>
<!-- Node18 -->
<g id="node18" class="node">
<title>Node18</title>
<g id="a_node18"><a xlink:title=" ">
<polygon fill="none" stroke="#bfbfbf" points="878.27,-224.5 878.27,-243.5 964.27,-243.5 964.27,-224.5 878.27,-224.5"/>
<text text-anchor="middle" x="921.27" y="-231.5" font-family="Helvetica,sans-Serif" font-size="10.00">avr/interrupt.h</text>
</a>
</g>
</g>
<!-- Node1&#45;&gt;Node18 -->
<g id="edge37" class="edge">
<title>Node1&#45;&gt;Node18</title>
<path fill="none" stroke="midnightblue" d="M764.6,-280.47C800.43,-270.08 848.65,-256.08 882.09,-246.37"/>
<polygon fill="midnightblue" stroke="midnightblue" points="883.34,-249.66 891.97,-243.51 881.39,-242.93 883.34,-249.66"/>
</g>
<!-- Node19 -->
<g id="node19" class="node">
<title>Node19</title>
<g id="a_node19"><a xlink:title=" ">
<polygon fill="none" stroke="#bfbfbf" points="982.77,-224.5 982.77,-243.5 1035.77,-243.5 1035.77,-224.5 982.77,-224.5"/>
<text text-anchor="middle" x="1009.27" y="-231.5" font-family="Helvetica,sans-Serif" font-size="10.00">avr/io.h</text>
</a>
</g>
</g>
<!-- Node1&#45;&gt;Node19 -->
<g id="edge38" class="edge">
<title>Node1&#45;&gt;Node19</title>
<path fill="none" stroke="midnightblue" d="M787.93,-281.43C837.18,-272.22 904.28,-259.2 972.5,-244.08"/>
<polygon fill="midnightblue" stroke="midnightblue" points="973.57,-247.43 982.57,-241.84 972.05,-240.6 973.57,-247.43"/>
</g>
<!-- Node3 -->
<g id="node3" class="node">
<title>Node3</title>
<g id="a_node3"><a xlink:title=" ">
<polygon fill="none" stroke="#bfbfbf" points="686.77,-56.5 686.77,-75.5 751.77,-75.5 751.77,-56.5 686.77,-56.5"/>
<text text-anchor="middle" x="719.27" y="-63.5" font-family="Helvetica,sans-Serif" font-size="10.00">inttypes.h</text>
</a>
</g>
</g>
<!-- Node2&#45;&gt;Node3 -->
<g id="edge2" class="edge">
<title>Node2&#45;&gt;Node3</title>
<path fill="none" stroke="midnightblue" d="M900.84,-168.33C926.31,-156.39 964.24,-133.87 946.27,-112 923.42,-84.17 821.29,-73.25 762.1,-69.21"/>
<polygon fill="midnightblue" stroke="midnightblue" points="762.13,-65.7 751.93,-68.55 761.68,-72.69 762.13,-65.7"/>
</g>
<!-- Node2&#45;&gt;Node4 -->
<g id="edge3" class="edge">
<title>Node2&#45;&gt;Node4</title>
<path fill="none" stroke="midnightblue" d="M880.27,-168.08C880.27,-161.01 880.27,-150.86 880.27,-141.99"/>
<polygon fill="midnightblue" stroke="midnightblue" points="883.77,-141.75 880.27,-131.75 876.77,-141.75 883.77,-141.75"/>
</g>
<!-- Node5 -->
<g id="node5" class="node">
<title>Node5</title>
<g id="a_node5"><a xlink:href="VLConfig_8h.html" target="_top" xlink:title=" ">
<polygon fill="none" stroke="black" points="347.27,-112.5 347.27,-131.5 415.27,-131.5 415.27,-112.5 347.27,-112.5"/>
<text text-anchor="middle" x="381.27" y="-119.5" font-family="Helvetica,sans-Serif" font-size="10.00">VLConfig.h</text>
</a>
</g>
</g>
<!-- Node2&#45;&gt;Node5 -->
<g id="edge5" class="edge">
<title>Node2&#45;&gt;Node5</title>
<path fill="none" stroke="midnightblue" d="M840.14,-174.5C762.14,-169.33 584.49,-156.01 425.44,-132.03"/>
<polygon fill="midnightblue" stroke="midnightblue" points="425.89,-128.56 415.48,-130.51 424.84,-135.48 425.89,-128.56"/>
</g>
<!-- Node4&#45;&gt;Node3 -->
<g id="edge4" class="edge">
<title>Node4&#45;&gt;Node3</title>
<path fill="none" stroke="midnightblue" d="M854.76,-112.44C827.68,-103.36 784.68,-88.94 754.4,-78.78"/>
<polygon fill="midnightblue" stroke="midnightblue" points="755.26,-75.38 744.66,-75.52 753.03,-82.01 755.26,-75.38"/>
</g>
<!-- Node6 -->
<g id="node6" class="node">
<title>Node6</title>
<g id="a_node6"><a xlink:href="VortexConfig_8h.html" target="_top" xlink:title=" ">
<polygon fill="none" stroke="black" points="144.77,-56.5 144.77,-75.5 241.77,-75.5 241.77,-56.5 144.77,-56.5"/>
<text text-anchor="middle" x="193.27" y="-63.5" font-family="Helvetica,sans-Serif" font-size="10.00">../VortexConfig.h</text>
</a>
</g>
</g>
<!-- Node5&#45;&gt;Node6 -->
<g id="edge6" class="edge">
<title>Node5&#45;&gt;Node6</title>
<path fill="none" stroke="midnightblue" d="M351.48,-112.44C319.44,-103.24 268.34,-88.56 232.92,-78.39"/>
<polygon fill="midnightblue" stroke="midnightblue" points="233.5,-74.91 222.92,-75.52 231.57,-81.64 233.5,-74.91"/>
</g>
<!-- Node7 -->
<g id="node7" class="node">
<title>Node7</title>
<g id="a_node7"><a xlink:href="ColorConstants_8h.html" target="_top" xlink:title=" ">
<polygon fill="none" stroke="black" points="298.27,-0.5 298.27,-19.5 432.27,-19.5 432.27,-0.5 298.27,-0.5"/>
<text text-anchor="middle" x="365.27" y="-7.5" font-family="Helvetica,sans-Serif" font-size="10.00">Colors/ColorConstants.h</text>
</a>
</g>
</g>
<!-- Node6&#45;&gt;Node7 -->
<g id="edge7" class="edge">
<title>Node6&#45;&gt;Node7</title>
<path fill="none" stroke="midnightblue" d="M220.53,-56.44C249.71,-47.28 296.19,-32.69 328.58,-22.52"/>
<polygon fill="midnightblue" stroke="midnightblue" points="329.65,-25.85 338.15,-19.52 327.56,-19.17 329.65,-25.85"/>
</g>
<!-- Node8&#45;&gt;Node3 -->
<g id="edge9" class="edge">
<title>Node8&#45;&gt;Node3</title>
<path fill="none" stroke="midnightblue" d="M611.93,-225.77C643.6,-219.67 681.47,-208.49 710.27,-188 741.21,-165.99 760.28,-148.34 749.27,-112 746.16,-101.7 739.82,-91.61 733.77,-83.6"/>
<polygon fill="midnightblue" stroke="midnightblue" points="736.49,-81.4 727.49,-75.82 731.05,-85.8 736.49,-81.4"/>
</g>
<!-- Node8&#45;&gt;Node9 -->
<g id="edge10" class="edge">
<title>Node8&#45;&gt;Node9</title>
<path fill="none" stroke="midnightblue" d="M488.65,-224.68C408.02,-213.8 268.55,-194.97 196.43,-185.23"/>
<polygon fill="midnightblue" stroke="midnightblue" points="196.67,-181.73 186.3,-183.86 195.74,-188.67 196.67,-181.73"/>
</g>
<!-- Node9&#45;&gt;Node6 -->
<g id="edge12" class="edge">
<title>Node9&#45;&gt;Node6</title>
<path fill="none" stroke="midnightblue" d="M114.18,-173.09C64.75,-166.29 -14.77,-149.25 14.27,-112 29.1,-92.99 88.33,-80.78 134.65,-73.95"/>
<polygon fill="midnightblue" stroke="midnightblue" points="135.2,-77.4 144.61,-72.53 134.22,-70.47 135.2,-77.4"/>
</g>
<!-- Node10 -->
<g id="node10" class="node">
<title>Node10</title>
<g id="a_node10"><a xlink:title=" ">
<polygon fill="none" stroke="#bfbfbf" points="19.27,-56.5 19.27,-75.5 75.27,-75.5 75.27,-56.5 19.27,-56.5"/>
<text text-anchor="middle" x="47.27" y="-63.5" font-family="Helvetica,sans-Serif" font-size="10.00">stdarg.h</text>
</a>
</g>
</g>
<!-- Node9&#45;&gt;Node10 -->
<g id="edge11" class="edge">
<title>Node9&#45;&gt;Node10</title>
<path fill="none" stroke="midnightblue" d="M114.06,-177.13C79.57,-175.07 29.32,-165.93 4.27,-132 -8.04,-115.31 9.8,-95.31 26.11,-81.94"/>
<polygon fill="midnightblue" stroke="midnightblue" points="28.55,-84.48 34.33,-75.6 24.27,-78.94 28.55,-84.48"/>
</g>
<!-- Node11 -->
<g id="node11" class="node">
<title>Node11</title>
<g id="a_node11"><a xlink:href="ErrorBlinker_8h.html" target="_top" xlink:title=" ">
<polygon fill="none" stroke="black" points="94.77,-112.5 94.77,-131.5 205.77,-131.5 205.77,-112.5 94.77,-112.5"/>
<text text-anchor="middle" x="150.27" y="-119.5" font-family="Helvetica,sans-Serif" font-size="10.00">../Log/ErrorBlinker.h</text>
</a>
</g>
</g>
<!-- Node9&#45;&gt;Node11 -->
<g id="edge13" class="edge">
<title>Node9&#45;&gt;Node11</title>
<path fill="none" stroke="midnightblue" d="M150.27,-168.08C150.27,-161.01 150.27,-150.86 150.27,-141.99"/>
<polygon fill="midnightblue" stroke="midnightblue" points="153.77,-141.75 150.27,-131.75 146.77,-141.75 153.77,-141.75"/>
</g>
<!-- Node11&#45;&gt;Node3 -->
<g id="edge14" class="edge">
<title>Node11&#45;&gt;Node3</title>
<path fill="none" stroke="midnightblue" d="M206.1,-112.98C208.86,-112.64 211.6,-112.31 214.27,-112 385.28,-92.37 589.7,-76.47 676.7,-70.06"/>
<polygon fill="midnightblue" stroke="midnightblue" points="677,-73.55 686.72,-69.32 676.49,-66.56 677,-73.55"/>
</g>
<!-- Node11&#45;&gt;Node6 -->
<g id="edge15" class="edge">
<title>Node11&#45;&gt;Node6</title>
<path fill="none" stroke="midnightblue" d="M157.37,-112.08C163.51,-104.38 172.54,-93.03 180.01,-83.65"/>
<polygon fill="midnightblue" stroke="midnightblue" points="182.81,-85.75 186.3,-75.75 177.34,-81.39 182.81,-85.75"/>
</g>
<!-- Node12&#45;&gt;Node3 -->
<g id="edge18" class="edge">
<title>Node12&#45;&gt;Node3</title>
<path fill="none" stroke="midnightblue" d="M510.39,-173.33C575.52,-168.19 672.94,-156.56 700.27,-132 713.24,-120.35 717.56,-100.4 718.9,-85.67"/>
<polygon fill="midnightblue" stroke="midnightblue" points="722.4,-85.82 719.44,-75.64 715.41,-85.44 722.4,-85.82"/>
</g>
<!-- Node12&#45;&gt;Node6 -->
<g id="edge19" class="edge">
<title>Node12&#45;&gt;Node6</title>
<path fill="none" stroke="midnightblue" d="M388.14,-170.48C285.76,-159.42 90.25,-137.63 85.27,-132 63.32,-107.17 105.15,-88.96 142.97,-78.24"/>
<polygon fill="midnightblue" stroke="midnightblue" points="144.23,-81.53 152.97,-75.55 142.4,-74.77 144.23,-81.53"/>
</g>
<!-- Node13 -->
<g id="node13" class="node">
<title>Node13</title>
<g id="a_node13"><a xlink:href="LedTypes_8h.html" target="_top" xlink:title=" ">
<polygon fill="none" stroke="black" points="223.77,-112.5 223.77,-131.5 328.77,-131.5 328.77,-112.5 223.77,-112.5"/>
<text text-anchor="middle" x="276.27" y="-119.5" font-family="Helvetica,sans-Serif" font-size="10.00">../Leds/LedTypes.h</text>
</a>
</g>
</g>
<!-- Node12&#45;&gt;Node13 -->
<g id="edge20" class="edge">
<title>Node12&#45;&gt;Node13</title>
<path fill="none" stroke="midnightblue" d="M421.86,-168.44C392.5,-159.28 345.75,-144.69 313.18,-134.52"/>
<polygon fill="midnightblue" stroke="midnightblue" points="314.15,-131.16 303.56,-131.52 312.06,-137.84 314.15,-131.16"/>
</g>
<!-- Node13&#45;&gt;Node3 -->
<g id="edge21" class="edge">
<title>Node13&#45;&gt;Node3</title>
<path fill="none" stroke="midnightblue" d="M329.03,-113.25C332.15,-112.82 335.25,-112.4 338.27,-112 460.76,-95.88 605.76,-79.5 676.35,-71.69"/>
<polygon fill="midnightblue" stroke="midnightblue" points="677.06,-75.14 686.62,-70.56 676.3,-68.18 677.06,-75.14"/>
</g>
<!-- Node13&#45;&gt;Node6 -->
<g id="edge23" class="edge">
<title>Node13&#45;&gt;Node6</title>
<path fill="none" stroke="midnightblue" d="M262.94,-112.32C250.11,-103.98 230.49,-91.21 215.33,-81.35"/>
<polygon fill="midnightblue" stroke="midnightblue" points="216.87,-78.17 206.58,-75.65 213.05,-84.04 216.87,-78.17"/>
</g>
<!-- Node13&#45;&gt;Node10 -->
<g id="edge22" class="edge">
<title>Node13&#45;&gt;Node10</title>
<path fill="none" stroke="midnightblue" d="M239.99,-112.44C197.72,-102.48 128.22,-86.09 85.24,-75.95"/>
<polygon fill="midnightblue" stroke="midnightblue" points="85.98,-72.53 75.45,-73.64 84.38,-79.35 85.98,-72.53"/>
</g>
<!-- Node14&#45;&gt;Node6 -->
<g id="edge28" class="edge">
<title>Node14&#45;&gt;Node6</title>
<path fill="none" stroke="midnightblue" d="M249.69,-171.46C181.64,-163.2 64.8,-147.03 52.27,-132 25.15,-99.46 84.48,-82.37 134.33,-74.03"/>
<polygon fill="midnightblue" stroke="midnightblue" points="135.13,-77.45 144.47,-72.43 134.04,-70.53 135.13,-77.45"/>
</g>
<!-- Node14&#45;&gt;Node13 -->
<g id="edge25" class="edge">
<title>Node14&#45;&gt;Node13</title>
<path fill="none" stroke="midnightblue" d="M294.64,-168.08C291.66,-160.77 287.35,-150.18 283.65,-141.1"/>
<polygon fill="midnightblue" stroke="midnightblue" points="286.85,-139.69 279.84,-131.75 280.37,-142.33 286.85,-139.69"/>
</g>
<!-- Node15 -->
<g id="node15" class="node">
<title>Node15</title>
<g id="a_node15"><a xlink:href="Patterns_8h.html" target="_top" xlink:title=" ">
<polygon fill="none" stroke="black" points="573.77,-112.5 573.77,-131.5 690.77,-131.5 690.77,-112.5 573.77,-112.5"/>
<text text-anchor="middle" x="632.27" y="-119.5" font-family="Helvetica,sans-Serif" font-size="10.00">../Patterns/Patterns.h</text>
</a>
</g>
</g>
<!-- Node14&#45;&gt;Node15 -->
<g id="edge26" class="edge">
<title>Node14&#45;&gt;Node15</title>
<path fill="none" stroke="midnightblue" d="M346.84,-169.15C405.66,-159.64 504.87,-143.6 569.45,-133.16"/>
<polygon fill="midnightblue" stroke="midnightblue" points="570.2,-136.58 579.51,-131.53 569.08,-129.67 570.2,-136.58"/>
</g>
<!-- Node15&#45;&gt;Node3 -->
<g id="edge27" class="edge">
<title>Node15&#45;&gt;Node3</title>
<path fill="none" stroke="midnightblue" d="M646.25,-112.32C659.82,-103.9 680.65,-90.97 696.6,-81.07"/>
<polygon fill="midnightblue" stroke="midnightblue" points="698.68,-83.9 705.33,-75.65 694.99,-77.95 698.68,-83.9"/>
</g>
<!-- Node16&#45;&gt;Node3 -->
<g id="edge30" class="edge">
<title>Node16&#45;&gt;Node3</title>
<path fill="none" stroke="midnightblue" d="M686.2,-168.36C702.99,-161.41 723.25,-149.82 733.27,-132 741.56,-117.26 735.78,-98.12 729.32,-84.43"/>
<polygon fill="midnightblue" stroke="midnightblue" points="732.42,-82.8 724.69,-75.56 726.22,-86.05 732.42,-82.8"/>
</g>
<!-- Node16&#45;&gt;Node13 -->
<g id="edge35" class="edge">
<title>Node16&#45;&gt;Node13</title>
<path fill="none" stroke="midnightblue" d="M617.71,-171.24C558.36,-163 445.64,-147.29 339,-132.1"/>
<polygon fill="midnightblue" stroke="midnightblue" points="339.43,-128.62 329.04,-130.68 338.44,-135.55 339.43,-128.62"/>
</g>
<!-- Node17 -->
<g id="node17" class="node">
<title>Node17</title>
<g id="a_node17"><a xlink:href="ColorTypes_8h.html" target="_top" xlink:title=" ">
<polygon fill="none" stroke="black" points="433.27,-112.5 433.27,-131.5 555.27,-131.5 555.27,-112.5 433.27,-112.5"/>
<text text-anchor="middle" x="494.27" y="-119.5" font-family="Helvetica,sans-Serif" font-size="10.00">../Colors/ColorTypes.h</text>
</a>
</g>
</g>
<!-- Node16&#45;&gt;Node17 -->
<g id="edge31" class="edge">
<title>Node16&#45;&gt;Node17</title>
<path fill="none" stroke="midnightblue" d="M633.13,-168.44C605.25,-159.32 560.93,-144.81 529.87,-134.65"/>
<polygon fill="midnightblue" stroke="midnightblue" points="530.89,-131.3 520.3,-131.52 528.71,-137.95 530.89,-131.3"/>
</g>
<!-- Node17&#45;&gt;Node3 -->
<g id="edge32" class="edge">
<title>Node17&#45;&gt;Node3</title>
<path fill="none" stroke="midnightblue" d="M529.93,-112.44C569.85,-102.86 634.5,-87.35 676.95,-77.16"/>
<polygon fill="midnightblue" stroke="midnightblue" points="677.8,-80.55 686.71,-74.82 676.17,-73.75 677.8,-80.55"/>
</g>
<!-- Node17&#45;&gt;Node6 -->
<g id="edge33" class="edge">
<title>Node17&#45;&gt;Node6</title>
<path fill="none" stroke="midnightblue" d="M446.58,-112.44C393.41,-102.9 307.45,-87.48 250.65,-77.29"/>
<polygon fill="midnightblue" stroke="midnightblue" points="251.21,-73.84 240.74,-75.52 249.97,-80.73 251.21,-73.84"/>
</g>
<!-- Node17&#45;&gt;Node7 -->
<g id="edge34" class="edge">
<title>Node17&#45;&gt;Node7</title>
<path fill="none" stroke="midnightblue" d="M484.15,-112.37C462.3,-93.73 410.46,-49.53 383.02,-26.13"/>
<polygon fill="midnightblue" stroke="midnightblue" points="385.23,-23.42 375.35,-19.59 380.69,-28.74 385.23,-23.42"/>
</g>
</g>
</svg>
