<?xml version="1.0" encoding="UTF-8" standalone="no"?>
<!DOCTYPE svg PUBLIC "-//W3C//DTD SVG 1.1//EN"
 "http://www.w3.org/Graphics/SVG/1.1/DTD/svg11.dtd">
<!-- Generated by graphviz version 2.43.0 (0)
 -->
<!-- Title: VortexEngine/VortexCLI/VortexCLI.cpp Pages: 1 -->
<svg width="1953pt" height="386pt"
 viewBox="0.00 0.00 1952.66 386.00" xmlns="http://www.w3.org/2000/svg" xmlns:xlink="http://www.w3.org/1999/xlink">
<g id="graph0" class="graph" transform="scale(1 1) rotate(0) translate(4 382)">
<title>VortexEngine/VortexCLI/VortexCLI.cpp</title>
<!-- Node1 -->
<g id="node1" class="node">
<title>Node1</title>
<g id="a_node1"><a xlink:title=" ">
<polygon fill="#bfbfbf" stroke="black" points="946.5,-347.5 946.5,-377.5 1077.5,-377.5 1077.5,-347.5 946.5,-347.5"/>
<text text-anchor="start" x="954.5" y="-365.5" font-family="Helvetica,sans-Serif" font-size="10.00">VortexEngine/VortexCLI</text>
<text text-anchor="middle" x="1012" y="-354.5" font-family="Helvetica,sans-Serif" font-size="10.00">/VortexCLI.cpp</text>
</a>
</g>
</g>
<!-- Node2 -->
<g id="node2" class="node">
<title>Node2</title>
<g id="a_node2"><a xlink:title=" ">
<polygon fill="none" stroke="#bfbfbf" points="0,-286 0,-305 64,-305 64,-286 0,-286"/>
<text text-anchor="middle" x="32" y="-293" font-family="Helvetica,sans-Serif" font-size="10.00">algorithm</text>
</a>
</g>
</g>
<!-- Node1&#45;&gt;Node2 -->
<g id="edge1" class="edge">
<title>Node1&#45;&gt;Node2</title>
<path fill="none" stroke="midnightblue" d="M946.25,-360.4C761.54,-356.94 240.51,-344.4 73,-311 69.49,-310.3 65.87,-309.36 62.3,-308.3"/>
<polygon fill="midnightblue" stroke="midnightblue" points="63.13,-304.88 52.53,-305.06 60.92,-311.53 63.13,-304.88"/>
</g>
<!-- Node3 -->
<g id="node3" class="node">
<title>Node3</title>
<g id="a_node3"><a xlink:title=" ">
<polygon fill="none" stroke="#bfbfbf" points="82,-286 82,-305 142,-305 142,-286 82,-286"/>
<text text-anchor="middle" x="112" y="-293" font-family="Helvetica,sans-Serif" font-size="10.00">iostream</text>
</a>
</g>
</g>
<!-- Node1&#45;&gt;Node3 -->
<g id="edge2" class="edge">
<title>Node1&#45;&gt;Node3</title>
<path fill="none" stroke="midnightblue" d="M946.43,-360.17C772.57,-356.24 302.75,-342.91 151,-311 147.75,-310.32 144.41,-309.41 141.11,-308.38"/>
<polygon fill="midnightblue" stroke="midnightblue" points="142.1,-305.02 131.5,-305.04 139.8,-311.63 142.1,-305.02"/>
</g>
<!-- Node4 -->
<g id="node4" class="node">
<title>Node4</title>
<g id="a_node4"><a xlink:title=" ">
<polygon fill="none" stroke="#bfbfbf" points="160,-286 160,-305 216,-305 216,-286 160,-286"/>
<text text-anchor="middle" x="188" y="-293" font-family="Helvetica,sans-Serif" font-size="10.00">sstream</text>
</a>
</g>
</g>
<!-- Node1&#45;&gt;Node4 -->
<g id="edge3" class="edge">
<title>Node1&#45;&gt;Node4</title>
<path fill="none" stroke="midnightblue" d="M946.46,-359.9C783.22,-355.49 361.82,-341.42 225,-311 222,-310.33 218.92,-309.46 215.89,-308.47"/>
<polygon fill="midnightblue" stroke="midnightblue" points="217.06,-305.17 206.47,-305.03 214.66,-311.75 217.06,-305.17"/>
</g>
<!-- Node5 -->
<g id="node5" class="node">
<title>Node5</title>
<g id="a_node5"><a xlink:title=" ">
<polygon fill="none" stroke="#bfbfbf" points="234,-286 234,-305 290,-305 290,-286 234,-286"/>
<text text-anchor="middle" x="262" y="-293" font-family="Helvetica,sans-Serif" font-size="10.00">iomanip</text>
</a>
</g>
</g>
<!-- Node1&#45;&gt;Node5 -->
<g id="edge4" class="edge">
<title>Node1&#45;&gt;Node5</title>
<path fill="none" stroke="midnightblue" d="M946.5,-359.01C795.34,-352.93 425.78,-335.92 304,-311 300.49,-310.28 296.88,-309.35 293.31,-308.3"/>
<polygon fill="midnightblue" stroke="midnightblue" points="294.09,-304.87 283.5,-305.13 291.94,-311.54 294.09,-304.87"/>
</g>
<!-- Node6 -->
<g id="node6" class="node">
<title>Node6</title>
<g id="a_node6"><a xlink:title=" ">
<polygon fill="none" stroke="#bfbfbf" points="460,-168.5 460,-187.5 504,-187.5 504,-168.5 460,-168.5"/>
<text text-anchor="middle" x="482" y="-175.5" font-family="Helvetica,sans-Serif" font-size="10.00">string</text>
</a>
</g>
</g>
<!-- Node1&#45;&gt;Node6 -->
<g id="edge5" class="edge">
<title>Node1&#45;&gt;Node6</title>
<path fill="none" stroke="midnightblue" d="M1026.05,-347.47C1041.76,-330.06 1062.92,-300.22 1046,-280 1043.82,-277.39 633.02,-205.4 513.98,-184.59"/>
<polygon fill="midnightblue" stroke="midnightblue" points="514.47,-181.12 504.01,-182.84 513.26,-188.01 514.47,-181.12"/>
</g>
<!-- Node7 -->
<g id="node7" class="node">
<title>Node7</title>
<g id="a_node7"><a xlink:title=" ">
<polygon fill="none" stroke="#bfbfbf" points="346,-286 346,-305 390,-305 390,-286 346,-286"/>
<text text-anchor="middle" x="368" y="-293" font-family="Helvetica,sans-Serif" font-size="10.00">ctime</text>
</a>
</g>
</g>
<!-- Node1&#45;&gt;Node7 -->
<g id="edge6" class="edge">
<title>Node1&#45;&gt;Node7</title>
<path fill="none" stroke="midnightblue" d="M946.3,-359.03C810.03,-353.42 500.84,-338.08 399,-311 397.06,-310.48 395.1,-309.85 393.14,-309.15"/>
<polygon fill="midnightblue" stroke="midnightblue" points="394.25,-305.82 383.68,-305.15 391.53,-312.26 394.25,-305.82"/>
</g>
<!-- Node8 -->
<g id="node8" class="node">
<title>Node8</title>
<g id="a_node8"><a xlink:title=" ">
<polygon fill="none" stroke="#bfbfbf" points="408,-286 408,-305 446,-305 446,-286 408,-286"/>
<text text-anchor="middle" x="427" y="-293" font-family="Helvetica,sans-Serif" font-size="10.00">map</text>
</a>
</g>
</g>
<!-- Node1&#45;&gt;Node8 -->
<g id="edge7" class="edge">
<title>Node1&#45;&gt;Node8</title>
<path fill="none" stroke="midnightblue" d="M946.21,-358.72C819.37,-352.83 545.53,-337.44 455,-311 453.52,-310.57 452.03,-310.06 450.55,-309.49"/>
<polygon fill="midnightblue" stroke="midnightblue" points="451.63,-306.14 441.09,-305.14 448.71,-312.5 451.63,-306.14"/>
</g>
<!-- Node9 -->
<g id="node9" class="node">
<title>Node9</title>
<g id="a_node9"><a xlink:title=" ">
<polygon fill="none" stroke="#bfbfbf" points="464,-286 464,-305 530,-305 530,-286 464,-286"/>
<text text-anchor="middle" x="497" y="-293" font-family="Helvetica,sans-Serif" font-size="10.00">sys/ioctl.h</text>
</a>
</g>
</g>
<!-- Node1&#45;&gt;Node9 -->
<g id="edge8" class="edge">
<title>Node1&#45;&gt;Node9</title>
<path fill="none" stroke="midnightblue" d="M946.21,-359.17C854.14,-354.84 682.07,-342.9 539,-311 535.58,-310.24 532.06,-309.29 528.57,-308.25"/>
<polygon fill="midnightblue" stroke="midnightblue" points="529.56,-304.89 518.96,-305.13 527.39,-311.55 529.56,-304.89"/>
</g>
<!-- Node10 -->
<g id="node10" class="node">
<title>Node10</title>
<g id="a_node10"><a xlink:title=" ">
<polygon fill="none" stroke="#bfbfbf" points="548.5,-286 548.5,-305 611.5,-305 611.5,-286 548.5,-286"/>
<text text-anchor="middle" x="580" y="-293" font-family="Helvetica,sans-Serif" font-size="10.00">termios.h</text>
</a>
</g>
</g>
<!-- Node1&#45;&gt;Node10 -->
<g id="edge9" class="edge">
<title>Node1&#45;&gt;Node10</title>
<path fill="none" stroke="midnightblue" d="M946.2,-357.27C867.88,-351.25 733.52,-337.84 621,-311 617.77,-310.23 614.44,-309.29 611.13,-308.28"/>
<polygon fill="midnightblue" stroke="midnightblue" points="612.04,-304.89 601.45,-305.05 609.83,-311.53 612.04,-304.89"/>
</g>
<!-- Node11 -->
<g id="node11" class="node">
<title>Node11</title>
<g id="a_node11"><a xlink:title=" ">
<polygon fill="none" stroke="#bfbfbf" points="630,-286 630,-305 686,-305 686,-286 630,-286"/>
<text text-anchor="middle" x="658" y="-293" font-family="Helvetica,sans-Serif" font-size="10.00">unistd.h</text>
</a>
</g>
</g>
<!-- Node1&#45;&gt;Node11 -->
<g id="edge10" class="edge">
<title>Node1&#45;&gt;Node11</title>
<path fill="none" stroke="midnightblue" d="M946.47,-355.23C881.76,-348.07 780.36,-334.23 695,-311 692.41,-310.29 689.74,-309.47 687.1,-308.57"/>
<polygon fill="midnightblue" stroke="midnightblue" points="688.3,-305.29 677.7,-305.13 685.89,-311.86 688.3,-305.29"/>
</g>
<!-- Node12 -->
<g id="node12" class="node">
<title>Node12</title>
<g id="a_node12"><a xlink:title=" ">
<polygon fill="none" stroke="#bfbfbf" points="704.5,-286 704.5,-305 761.5,-305 761.5,-286 704.5,-286"/>
<text text-anchor="middle" x="733" y="-293" font-family="Helvetica,sans-Serif" font-size="10.00">getopt.h</text>
</a>
</g>
</g>
<!-- Node1&#45;&gt;Node12 -->
<g id="edge11" class="edge">
<title>Node1&#45;&gt;Node12</title>
<path fill="none" stroke="midnightblue" d="M946.29,-350.87C897.2,-342.18 828.72,-328.5 770,-311 767.57,-310.28 765.08,-309.46 762.58,-308.6"/>
<polygon fill="midnightblue" stroke="midnightblue" points="763.73,-305.29 753.14,-305.1 761.3,-311.85 763.73,-305.29"/>
</g>
<!-- Node13 -->
<g id="node13" class="node">
<title>Node13</title>
<g id="a_node13"><a xlink:title=" ">
<polygon fill="none" stroke="#bfbfbf" points="779.5,-286 779.5,-305 832.5,-305 832.5,-286 779.5,-286"/>
<text text-anchor="middle" x="806" y="-293" font-family="Helvetica,sans-Serif" font-size="10.00">stdlib.h</text>
</a>
</g>
</g>
<!-- Node1&#45;&gt;Node13 -->
<g id="edge12" class="edge">
<title>Node1&#45;&gt;Node13</title>
<path fill="none" stroke="midnightblue" d="M959.15,-347.45C925.12,-338.02 880.11,-324.83 841,-311 839.14,-310.34 837.23,-309.64 835.32,-308.91"/>
<polygon fill="midnightblue" stroke="midnightblue" points="836.43,-305.59 825.85,-305.15 833.85,-312.09 836.43,-305.59"/>
</g>
<!-- Node14 -->
<g id="node14" class="node">
<title>Node14</title>
<g id="a_node14"><a xlink:title=" ">
<polygon fill="none" stroke="#bfbfbf" points="850.5,-286 850.5,-305 903.5,-305 903.5,-286 850.5,-286"/>
<text text-anchor="middle" x="877" y="-293" font-family="Helvetica,sans-Serif" font-size="10.00">string.h</text>
</a>
</g>
</g>
<!-- Node1&#45;&gt;Node14 -->
<g id="edge13" class="edge">
<title>Node1&#45;&gt;Node14</title>
<path fill="none" stroke="midnightblue" d="M982.71,-347.4C959.23,-336.09 926.56,-320.36 903.77,-309.39"/>
<polygon fill="midnightblue" stroke="midnightblue" points="905.2,-306.19 894.67,-305.01 902.16,-312.5 905.2,-306.19"/>
</g>
<!-- Node15 -->
<g id="node15" class="node">
<title>Node15</title>
<g id="a_node15"><a xlink:title=" ">
<polygon fill="none" stroke="#bfbfbf" points="921.5,-286 921.5,-305 968.5,-305 968.5,-286 921.5,-286"/>
<text text-anchor="middle" x="945" y="-293" font-family="Helvetica,sans-Serif" font-size="10.00">fcntl.h</text>
</a>
</g>
</g>
<!-- Node1&#45;&gt;Node15 -->
<g id="edge14" class="edge">
<title>Node1&#45;&gt;Node15</title>
<path fill="none" stroke="midnightblue" d="M997.46,-347.4C986.81,-337.06 972.34,-323.02 961.3,-312.31"/>
<polygon fill="midnightblue" stroke="midnightblue" points="963.58,-309.65 953.96,-305.19 958.7,-314.67 963.58,-309.65"/>
</g>
<!-- Node16 -->
<g id="node16" class="node">
<title>Node16</title>
<g id="a_node16"><a xlink:title=" ">
<polygon fill="none" stroke="#bfbfbf" points="987,-286 987,-305 1037,-305 1037,-286 987,-286"/>
<text text-anchor="middle" x="1012" y="-293" font-family="Helvetica,sans-Serif" font-size="10.00">stdio.h</text>
</a>
</g>
</g>
<!-- Node1&#45;&gt;Node16 -->
<g id="edge15" class="edge">
<title>Node1&#45;&gt;Node16</title>
<path fill="none" stroke="midnightblue" d="M1012,-347.4C1012,-338.06 1012,-325.71 1012,-315.52"/>
<polygon fill="midnightblue" stroke="midnightblue" points="1015.5,-315.19 1012,-305.19 1008.5,-315.19 1015.5,-315.19"/>
</g>
<!-- Node17 -->
<g id="node17" class="node">
<title>Node17</title>
<g id="a_node17"><a xlink:href="VortexCLI_8h.html" target="_top" xlink:title=" ">
<polygon fill="none" stroke="black" points="1207,-286 1207,-305 1279,-305 1279,-286 1207,-286"/>
<text text-anchor="middle" x="1243" y="-293" font-family="Helvetica,sans-Serif" font-size="10.00">VortexCLI.h</text>
</a>
</g>
</g>
<!-- Node1&#45;&gt;Node17 -->
<g id="edge16" class="edge">
<title>Node1&#45;&gt;Node17</title>
<path fill="none" stroke="midnightblue" d="M1062.75,-347.49C1099.06,-337.43 1149.07,-323.5 1193,-311 1196.56,-309.99 1200.25,-308.93 1203.95,-307.87"/>
<polygon fill="midnightblue" stroke="midnightblue" points="1205.03,-311.2 1213.67,-305.06 1203.09,-304.47 1205.03,-311.2"/>
</g>
<!-- Node18 -->
<g id="node18" class="node">
<title>Node18</title>
<g id="a_node18"><a xlink:href="VortexLib_8h.html" target="_top" xlink:title=" ">
<polygon fill="none" stroke="black" points="863.5,-224.5 863.5,-243.5 934.5,-243.5 934.5,-224.5 863.5,-224.5"/>
<text text-anchor="middle" x="899" y="-231.5" font-family="Helvetica,sans-Serif" font-size="10.00">VortexLib.h</text>
</a>
</g>
</g>
<!-- Node1&#45;&gt;Node18 -->
<g id="edge48" class="edge">
<title>Node1&#45;&gt;Node18</title>
<path fill="none" stroke="midnightblue" d="M1037.96,-347.25C1063.99,-331.12 1097.71,-303.97 1079,-280 1074.78,-274.6 996.65,-256.5 944.72,-244.96"/>
<polygon fill="midnightblue" stroke="midnightblue" points="945.24,-241.49 934.72,-242.75 943.73,-248.33 945.24,-241.49"/>
</g>
<!-- Node28 -->
<g id="node28" class="node">
<title>Node28</title>
<g id="a_node28"><a xlink:href="Pattern_8h.html" target="_top" xlink:title=" ">
<polygon fill="none" stroke="black" points="1333.5,-224.5 1333.5,-243.5 1436.5,-243.5 1436.5,-224.5 1333.5,-224.5"/>
<text text-anchor="middle" x="1385" y="-231.5" font-family="Helvetica,sans-Serif" font-size="10.00">Patterns/Pattern.h</text>
</a>
</g>
</g>
<!-- Node1&#45;&gt;Node28 -->
<g id="edge83" class="edge">
<title>Node1&#45;&gt;Node28</title>
<path fill="none" stroke="midnightblue" d="M1077.51,-358.71C1135.25,-354.14 1220.45,-342.2 1288,-311 1307.79,-301.86 1308.89,-293.5 1326,-280 1339.06,-269.7 1353.95,-258.34 1365.5,-249.62"/>
<polygon fill="midnightblue" stroke="midnightblue" points="1367.72,-252.33 1373.6,-243.52 1363.51,-246.74 1367.72,-252.33"/>
</g>
<!-- Node29 -->
<g id="node29" class="node">
<title>Node29</title>
<g id="a_node29"><a xlink:href="Colorset_8h.html" target="_top" xlink:title=" ">
<polygon fill="none" stroke="black" points="1518.5,-168.5 1518.5,-187.5 1627.5,-187.5 1627.5,-168.5 1518.5,-168.5"/>
<text text-anchor="middle" x="1573" y="-175.5" font-family="Helvetica,sans-Serif" font-size="10.00">../Colors/Colorset.h</text>
</a>
</g>
</g>
<!-- Node1&#45;&gt;Node29 -->
<g id="edge56" class="edge">
<title>Node1&#45;&gt;Node29</title>
<path fill="none" stroke="midnightblue" d="M1077.64,-361.15C1221.27,-359.63 1559.05,-351.69 1665,-311 1710.56,-293.5 1730.45,-287.79 1752,-244 1775.56,-196.12 1698.25,-182.78 1637.9,-179.45"/>
<polygon fill="midnightblue" stroke="midnightblue" points="1637.77,-175.94 1627.62,-178.97 1637.45,-182.94 1637.77,-175.94"/>
</g>
<!-- Node30 -->
<g id="node30" class="node">
<title>Node30</title>
<g id="a_node30"><a xlink:href="ColorTypes_8h.html" target="_top" xlink:title=" ">
<polygon fill="none" stroke="black" points="1341.5,-112.5 1341.5,-131.5 1420.5,-131.5 1420.5,-112.5 1341.5,-112.5"/>
<text text-anchor="middle" x="1381" y="-119.5" font-family="Helvetica,sans-Serif" font-size="10.00">ColorTypes.h</text>
</a>
</g>
</g>
<!-- Node1&#45;&gt;Node30 -->
<g id="edge55" class="edge">
<title>Node1&#45;&gt;Node30</title>
<path fill="none" stroke="midnightblue" d="M1077.9,-359.24C1201.32,-354.33 1457.35,-340.65 1484,-311 1509.38,-282.76 1428.88,-180.12 1395.15,-139.61"/>
<polygon fill="midnightblue" stroke="midnightblue" points="1397.65,-137.15 1388.54,-131.75 1392.3,-141.65 1397.65,-137.15"/>
</g>
<!-- Node32 -->
<g id="node32" class="node">
<title>Node32</title>
<g id="a_node32"><a xlink:href="Log_8h.html" target="_top" xlink:title=" ">
<polygon fill="none" stroke="black" points="1654.5,-112.5 1654.5,-131.5 1717.5,-131.5 1717.5,-112.5 1654.5,-112.5"/>
<text text-anchor="middle" x="1686" y="-119.5" font-family="Helvetica,sans-Serif" font-size="10.00">Log/Log.h</text>
</a>
</g>
</g>
<!-- Node1&#45;&gt;Node32 -->
<g id="edge45" class="edge">
<title>Node1&#45;&gt;Node32</title>
<path fill="none" stroke="midnightblue" d="M1077.74,-359.81C1263.14,-354.74 1781.36,-338.27 1853,-311 1897.96,-293.89 1917.01,-287.28 1938,-244 1979.54,-158.37 1809.55,-132.92 1727.74,-125.71"/>
<polygon fill="midnightblue" stroke="midnightblue" points="1728.01,-122.22 1717.75,-124.88 1727.43,-129.19 1728.01,-122.22"/>
</g>
<!-- Node33 -->
<g id="node33" class="node">
<title>Node33</title>
<g id="a_node33"><a xlink:href="PatternBuilder_8h.html" target="_top" xlink:title=" ">
<polygon fill="none" stroke="black" points="1063.5,-224.5 1063.5,-243.5 1200.5,-243.5 1200.5,-224.5 1063.5,-224.5"/>
<text text-anchor="middle" x="1132" y="-231.5" font-family="Helvetica,sans-Serif" font-size="10.00">Patterns/PatternBuilder.h</text>
</a>
</g>
</g>
<!-- Node1&#45;&gt;Node33 -->
<g id="edge49" class="edge">
<title>Node1&#45;&gt;Node33</title>
<path fill="none" stroke="midnightblue" d="M1077.55,-349.66C1099.22,-342.29 1121.07,-330.34 1134,-311 1145.2,-294.24 1142.32,-270.42 1138.18,-253.94"/>
<polygon fill="midnightblue" stroke="midnightblue" points="1141.41,-252.5 1135.27,-243.87 1134.69,-254.45 1141.41,-252.5"/>
</g>
<!-- Node34 -->
<g id="node34" class="node">
<title>Node34</title>
<g id="a_node34"><a xlink:href="TimeControl_8h.html" target="_top" xlink:title=" ">
<polygon fill="none" stroke="black" points="1760.5,-168.5 1760.5,-187.5 1873.5,-187.5 1873.5,-168.5 1760.5,-168.5"/>
<text text-anchor="middle" x="1817" y="-175.5" font-family="Helvetica,sans-Serif" font-size="10.00">Time/TimeControl.h</text>
</a>
</g>
</g>
<!-- Node1&#45;&gt;Node34 -->
<g id="edge51" class="edge">
<title>Node1&#45;&gt;Node34</title>
<path fill="none" stroke="midnightblue" d="M1077.63,-359.57C1240.36,-354.37 1653.33,-338.62 1709,-311 1758.83,-286.28 1793.68,-226.76 1808.71,-196.83"/>
<polygon fill="midnightblue" stroke="midnightblue" points="1811.98,-198.1 1813.19,-187.58 1805.68,-195.05 1811.98,-198.1"/>
</g>
<!-- Node35 -->
<g id="node35" class="node">
<title>Node35</title>
<g id="a_node35"><a xlink:href="Button_8h.html" target="_top" xlink:title=" ">
<polygon fill="none" stroke="black" points="338,-112.5 338,-131.5 436,-131.5 436,-112.5 338,-112.5"/>
<text text-anchor="middle" x="387" y="-119.5" font-family="Helvetica,sans-Serif" font-size="10.00">Buttons/Button.h</text>
</a>
</g>
</g>
<!-- Node1&#45;&gt;Node35 -->
<g id="edge57" class="edge">
<title>Node1&#45;&gt;Node35</title>
<path fill="none" stroke="midnightblue" d="M946.3,-361.54C784.67,-360.95 377.89,-355.07 337,-311 291.47,-261.93 346.41,-176.15 373.54,-139.92"/>
<polygon fill="midnightblue" stroke="midnightblue" points="376.44,-141.89 379.76,-131.83 370.89,-137.62 376.44,-141.89"/>
</g>
<!-- Node36 -->
<g id="node36" class="node">
<title>Node36</title>
<g id="a_node36"><a xlink:href="Timings_8h.html" target="_top" xlink:title=" ">
<polygon fill="none" stroke="black" points="1837,-224.5 1837,-243.5 1929,-243.5 1929,-224.5 1837,-224.5"/>
<text text-anchor="middle" x="1883" y="-231.5" font-family="Helvetica,sans-Serif" font-size="10.00">Time/Timings.h</text>
</a>
</g>
</g>
<!-- Node1&#45;&gt;Node36 -->
<g id="edge59" class="edge">
<title>Node1&#45;&gt;Node36</title>
<path fill="none" stroke="midnightblue" d="M1077.69,-360.47C1259.07,-357.2 1757.74,-345.17 1823,-311 1847.38,-298.24 1865.11,-270.72 1874.73,-252.54"/>
<polygon fill="midnightblue" stroke="midnightblue" points="1877.88,-254.06 1879.23,-243.55 1871.62,-250.93 1877.88,-254.06"/>
</g>
<!-- Node37 -->
<g id="node37" class="node">
<title>Node37</title>
<g id="a_node37"><a xlink:href="Menus_8h.html" target="_top" xlink:title=" ">
<polygon fill="none" stroke="black" points="1532.5,-286 1532.5,-305 1625.5,-305 1625.5,-286 1532.5,-286"/>
<text text-anchor="middle" x="1579" y="-293" font-family="Helvetica,sans-Serif" font-size="10.00">Menus/Menus.h</text>
</a>
</g>
</g>
<!-- Node1&#45;&gt;Node37 -->
<g id="edge62" class="edge">
<title>Node1&#45;&gt;Node37</title>
<path fill="none" stroke="midnightblue" d="M1077.73,-357.67C1174.44,-351.41 1360.55,-337 1517,-311 1523.23,-309.97 1529.76,-308.67 1536.15,-307.28"/>
<polygon fill="midnightblue" stroke="midnightblue" points="1537.04,-310.67 1546.02,-305.05 1535.49,-303.84 1537.04,-310.67"/>
</g>
<!-- Node38 -->
<g id="node38" class="node">
<title>Node38</title>
<g id="a_node38"><a xlink:href="Mode_8h.html" target="_top" xlink:title=" ">
<polygon fill="none" stroke="black" points="1645.5,-224.5 1645.5,-243.5 1742.5,-243.5 1742.5,-224.5 1645.5,-224.5"/>
<text text-anchor="middle" x="1694" y="-231.5" font-family="Helvetica,sans-Serif" font-size="10.00">../Modes/Mode.h</text>
</a>
</g>
</g>
<!-- Node1&#45;&gt;Node38 -->
<g id="edge82" class="edge">
<title>Node1&#45;&gt;Node38</title>
<path fill="none" stroke="midnightblue" d="M1077.59,-359.17C1227.66,-353.4 1586.86,-337.04 1635,-311 1658.94,-298.05 1676.3,-270.8 1685.77,-252.7"/>
<polygon fill="midnightblue" stroke="midnightblue" points="1689.02,-254.02 1690.31,-243.5 1682.74,-250.92 1689.02,-254.02"/>
</g>
<!-- Node39 -->
<g id="node39" class="node">
<title>Node39</title>
<g id="a_node39"><a xlink:href="Modes_8h.html" target="_top" xlink:title=" ">
<polygon fill="none" stroke="black" points="952.5,-224.5 952.5,-243.5 1045.5,-243.5 1045.5,-224.5 952.5,-224.5"/>
<text text-anchor="middle" x="999" y="-231.5" font-family="Helvetica,sans-Serif" font-size="10.00">Modes/Modes.h</text>
</a>
</g>
</g>
<!-- Node1&#45;&gt;Node39 -->
<g id="edge70" class="edge">
<title>Node1&#45;&gt;Node39</title>
<path fill="none" stroke="midnightblue" d="M1068.91,-347.4C1087.49,-339.8 1106.13,-328.3 1117,-311 1124.33,-299.34 1124.82,-291.35 1117,-280 1108.2,-267.23 1073.08,-254.82 1043.42,-246.29"/>
<polygon fill="midnightblue" stroke="midnightblue" points="1044.19,-242.87 1033.61,-243.54 1042.3,-249.61 1044.19,-242.87"/>
</g>
<!-- Node42 -->
<g id="node42" class="node">
<title>Node42</title>
<g id="a_node42"><a xlink:href="SingleLedPattern_8h.html" target="_top" xlink:title=" ">
<polygon fill="none" stroke="black" points="1335,-280.5 1335,-310.5 1475,-310.5 1475,-280.5 1335,-280.5"/>
<text text-anchor="start" x="1343" y="-298.5" font-family="Helvetica,sans-Serif" font-size="10.00">Patterns/Single/SingleLed</text>
<text text-anchor="middle" x="1405" y="-287.5" font-family="Helvetica,sans-Serif" font-size="10.00">Pattern.h</text>
</a>
</g>
</g>
<!-- Node1&#45;&gt;Node42 -->
<g id="edge84" class="edge">
<title>Node1&#45;&gt;Node42</title>
<path fill="none" stroke="midnightblue" d="M1077.73,-350.93C1140.31,-340.83 1237.11,-325.1 1321,-311 1322.27,-310.79 1323.56,-310.57 1324.85,-310.35"/>
<polygon fill="midnightblue" stroke="midnightblue" points="1325.61,-313.77 1334.88,-308.65 1324.44,-306.87 1325.61,-313.77"/>
</g>
<!-- Node17&#45;&gt;Node18 -->
<g id="edge17" class="edge">
<title>Node17&#45;&gt;Node18</title>
<path fill="none" stroke="midnightblue" d="M1206.91,-288.84C1152.31,-280.19 1045.21,-262.87 944.55,-244.24"/>
<polygon fill="midnightblue" stroke="midnightblue" points="944.99,-240.76 934.52,-242.38 943.71,-247.65 944.99,-240.76"/>
</g>
<!-- Node19 -->
<g id="node19" class="node">
<title>Node19</title>
<g id="a_node19"><a xlink:href="Patterns_8h.html" target="_top" xlink:title=" ">
<polygon fill="none" stroke="black" points="1164,-168.5 1164,-187.5 1272,-187.5 1272,-168.5 1164,-168.5"/>
<text text-anchor="middle" x="1218" y="-175.5" font-family="Helvetica,sans-Serif" font-size="10.00">Patterns/Patterns.h</text>
</a>
</g>
</g>
<!-- Node17&#45;&gt;Node19 -->
<g id="edge30" class="edge">
<title>Node17&#45;&gt;Node19</title>
<path fill="none" stroke="midnightblue" d="M1241.12,-285.82C1237.09,-267.17 1227.51,-222.94 1222.03,-197.63"/>
<polygon fill="midnightblue" stroke="midnightblue" points="1225.44,-196.82 1219.9,-187.78 1218.6,-198.3 1225.44,-196.82"/>
</g>
<!-- Node21 -->
<g id="node21" class="node">
<title>Node21</title>
<g id="a_node21"><a xlink:href="LedTypes_8h.html" target="_top" xlink:title=" ">
<polygon fill="none" stroke="black" points="1451,-112.5 1451,-131.5 1547,-131.5 1547,-112.5 1451,-112.5"/>
<text text-anchor="middle" x="1499" y="-119.5" font-family="Helvetica,sans-Serif" font-size="10.00">Leds/LedTypes.h</text>
</a>
</g>
</g>
<!-- Node17&#45;&gt;Node21 -->
<g id="edge44" class="edge">
<title>Node17&#45;&gt;Node21</title>
<path fill="none" stroke="midnightblue" d="M1252.13,-285.66C1266.8,-271.68 1296.85,-244.02 1325,-224 1374.83,-188.57 1437.87,-154.37 1472.75,-136.28"/>
<polygon fill="midnightblue" stroke="midnightblue" points="1474.52,-139.31 1481.81,-131.62 1471.32,-133.09 1474.52,-139.31"/>
</g>
<!-- Node17&#45;&gt;Node28 -->
<g id="edge31" class="edge">
<title>Node17&#45;&gt;Node28</title>
<path fill="none" stroke="midnightblue" d="M1263.35,-285.98C1287.39,-275.9 1327.6,-259.05 1355.16,-247.5"/>
<polygon fill="midnightblue" stroke="midnightblue" points="1356.82,-250.6 1364.69,-243.51 1354.12,-244.15 1356.82,-250.6"/>
</g>
<!-- Node17&#45;&gt;Node29 -->
<g id="edge43" class="edge">
<title>Node17&#45;&gt;Node29</title>
<path fill="none" stroke="midnightblue" d="M1279.32,-288.08C1320.54,-280.19 1389.37,-265.21 1446,-244 1484.05,-229.75 1525.48,-207.07 1550.34,-192.62"/>
<polygon fill="midnightblue" stroke="midnightblue" points="1552.17,-195.6 1559.01,-187.52 1548.62,-189.57 1552.17,-195.6"/>
</g>
<!-- Node17&#45;&gt;Node30 -->
<g id="edge42" class="edge">
<title>Node17&#45;&gt;Node30</title>
<path fill="none" stroke="midnightblue" d="M1248.56,-285.56C1257.15,-271.91 1274.42,-245.24 1291,-224 1315.53,-192.57 1347.1,-158.42 1365.59,-138.97"/>
<polygon fill="midnightblue" stroke="midnightblue" points="1368.27,-141.23 1372.65,-131.58 1363.21,-136.39 1368.27,-141.23"/>
</g>
<!-- Node18&#45;&gt;Node6 -->
<g id="edge28" class="edge">
<title>Node18&#45;&gt;Node6</title>
<path fill="none" stroke="midnightblue" d="M863.27,-226.26C858.48,-225.44 853.63,-224.67 849,-224 702.54,-202.88 663.68,-214.01 518,-188 516.75,-187.78 515.48,-187.54 514.2,-187.28"/>
<polygon fill="midnightblue" stroke="midnightblue" points="514.89,-183.85 504.37,-185.09 513.37,-190.68 514.89,-183.85"/>
</g>
<!-- Node18&#45;&gt;Node19 -->
<g id="edge18" class="edge">
<title>Node18&#45;&gt;Node19</title>
<path fill="none" stroke="midnightblue" d="M934.52,-225.61C937.39,-225.05 940.24,-224.51 943,-224 1015,-210.75 1097.97,-197.44 1153.79,-188.77"/>
<polygon fill="midnightblue" stroke="midnightblue" points="1154.54,-192.2 1163.88,-187.21 1153.47,-185.28 1154.54,-192.2"/>
</g>
<!-- Node20 -->
<g id="node20" class="node">
<title>Node20</title>
<g id="a_node20"><a xlink:title=" ">
<polygon fill="none" stroke="#bfbfbf" points="1180.5,-56.5 1180.5,-75.5 1245.5,-75.5 1245.5,-56.5 1180.5,-56.5"/>
<text text-anchor="middle" x="1213" y="-63.5" font-family="Helvetica,sans-Serif" font-size="10.00">inttypes.h</text>
</a>
</g>
</g>
<!-- Node18&#45;&gt;Node20 -->
<g id="edge26" class="edge">
<title>Node18&#45;&gt;Node20</title>
<path fill="none" stroke="midnightblue" d="M863.26,-226.31C858.47,-225.49 853.62,-224.69 849,-224 783.04,-214.09 595.25,-237.91 551,-188 545.1,-181.35 545.31,-174.83 551,-168 630.27,-72.9 1035.85,-66.13 1169.92,-66.54"/>
<polygon fill="midnightblue" stroke="midnightblue" points="1170.19,-70.04 1180.2,-66.59 1170.22,-63.04 1170.19,-70.04"/>
</g>
<!-- Node18&#45;&gt;Node21 -->
<g id="edge20" class="edge">
<title>Node18&#45;&gt;Node21</title>
<path fill="none" stroke="midnightblue" d="M913.53,-224.25C941.8,-207.29 1002.4,-171.31 1013,-168 1190.6,-112.64 1245.06,-152.03 1430,-132 1433.47,-131.62 1437.03,-131.22 1440.62,-130.8"/>
<polygon fill="midnightblue" stroke="midnightblue" points="1441.27,-134.24 1450.78,-129.56 1440.43,-127.29 1441.27,-134.24"/>
</g>
<!-- Node25 -->
<g id="node25" class="node">
<title>Node25</title>
<g id="a_node25"><a xlink:title=" ">
<polygon fill="none" stroke="#bfbfbf" points="626,-168.5 626,-187.5 684,-187.5 684,-168.5 626,-168.5"/>
<text text-anchor="middle" x="655" y="-175.5" font-family="Helvetica,sans-Serif" font-size="10.00">json.hpp</text>
</a>
</g>
</g>
<!-- Node18&#45;&gt;Node25 -->
<g id="edge25" class="edge">
<title>Node18&#45;&gt;Node25</title>
<path fill="none" stroke="midnightblue" d="M863.23,-225.38C824.12,-217.01 759.33,-203.02 694.08,-188.22"/>
<polygon fill="midnightblue" stroke="midnightblue" points="694.56,-184.74 684.03,-185.93 693.01,-191.56 694.56,-184.74"/>
</g>
<!-- Node26 -->
<g id="node26" class="node">
<title>Node26</title>
<g id="a_node26"><a xlink:title=" ">
<polygon fill="none" stroke="#bfbfbf" points="702.5,-168.5 702.5,-187.5 749.5,-187.5 749.5,-168.5 702.5,-168.5"/>
<text text-anchor="middle" x="726" y="-175.5" font-family="Helvetica,sans-Serif" font-size="10.00">vector</text>
</a>
</g>
</g>
<!-- Node18&#45;&gt;Node26 -->
<g id="edge27" class="edge">
<title>Node18&#45;&gt;Node26</title>
<path fill="none" stroke="midnightblue" d="M871.59,-224.44C841.11,-214.93 791.88,-199.56 759.23,-189.37"/>
<polygon fill="midnightblue" stroke="midnightblue" points="760.26,-186.03 749.67,-186.39 758.17,-192.71 760.26,-186.03"/>
</g>
<!-- Node27 -->
<g id="node27" class="node">
<title>Node27</title>
<g id="a_node27"><a xlink:title=" ">
<polygon fill="none" stroke="#bfbfbf" points="560.5,-168.5 560.5,-187.5 607.5,-187.5 607.5,-168.5 560.5,-168.5"/>
<text text-anchor="middle" x="584" y="-175.5" font-family="Helvetica,sans-Serif" font-size="10.00">deque</text>
</a>
</g>
</g>
<!-- Node18&#45;&gt;Node27 -->
<g id="edge29" class="edge">
<title>Node18&#45;&gt;Node27</title>
<path fill="none" stroke="midnightblue" d="M863.24,-226.45C858.45,-225.61 853.61,-224.77 849,-224 749.21,-207.28 720.76,-209.6 617.6,-187.91"/>
<polygon fill="midnightblue" stroke="midnightblue" points="618.22,-184.47 607.72,-185.81 616.77,-191.31 618.22,-184.47"/>
</g>
<!-- Node19&#45;&gt;Node20 -->
<g id="edge19" class="edge">
<title>Node19&#45;&gt;Node20</title>
<path fill="none" stroke="midnightblue" d="M1217.61,-168.37C1216.8,-150.62 1214.94,-109.67 1213.85,-85.6"/>
<polygon fill="midnightblue" stroke="midnightblue" points="1217.34,-85.42 1213.39,-75.59 1210.35,-85.74 1217.34,-85.42"/>
</g>
<!-- Node21&#45;&gt;Node20 -->
<g id="edge21" class="edge">
<title>Node21&#45;&gt;Node20</title>
<path fill="none" stroke="midnightblue" d="M1453.68,-112.44C1399.34,-102.18 1308.95,-85.12 1255.77,-75.08"/>
<polygon fill="midnightblue" stroke="midnightblue" points="1256.13,-71.58 1245.65,-73.16 1254.83,-78.46 1256.13,-71.58"/>
</g>
<!-- Node22 -->
<g id="node22" class="node">
<title>Node22</title>
<g id="a_node22"><a xlink:title=" ">
<polygon fill="none" stroke="#bfbfbf" points="1517,-56.5 1517,-75.5 1573,-75.5 1573,-56.5 1517,-56.5"/>
<text text-anchor="middle" x="1545" y="-63.5" font-family="Helvetica,sans-Serif" font-size="10.00">stdarg.h</text>
</a>
</g>
</g>
<!-- Node21&#45;&gt;Node22 -->
<g id="edge22" class="edge">
<title>Node21&#45;&gt;Node22</title>
<path fill="none" stroke="midnightblue" d="M1506.6,-112.08C1513.23,-104.3 1523.02,-92.8 1531.06,-83.37"/>
<polygon fill="midnightblue" stroke="midnightblue" points="1533.73,-85.63 1537.55,-75.75 1528.4,-81.09 1533.73,-85.63"/>
</g>
<!-- Node23 -->
<g id="node23" class="node">
<title>Node23</title>
<g id="a_node23"><a xlink:href="VortexConfig_8h.html" target="_top" xlink:title=" ">
<polygon fill="none" stroke="black" points="1637.5,-56.5 1637.5,-75.5 1734.5,-75.5 1734.5,-56.5 1637.5,-56.5"/>
<text text-anchor="middle" x="1686" y="-63.5" font-family="Helvetica,sans-Serif" font-size="10.00">../VortexConfig.h</text>
</a>
</g>
</g>
<!-- Node21&#45;&gt;Node23 -->
<g id="edge23" class="edge">
<title>Node21&#45;&gt;Node23</title>
<path fill="none" stroke="midnightblue" d="M1528.63,-112.44C1560.5,-103.24 1611.33,-88.56 1646.56,-78.39"/>
<polygon fill="midnightblue" stroke="midnightblue" points="1647.87,-81.65 1656.51,-75.52 1645.93,-74.93 1647.87,-81.65"/>
</g>
<!-- Node24 -->
<g id="node24" class="node">
<title>Node24</title>
<g id="a_node24"><a xlink:href="ColorConstants_8h.html" target="_top" xlink:title=" ">
<polygon fill="none" stroke="black" points="1515,-0.5 1515,-19.5 1649,-19.5 1649,-0.5 1515,-0.5"/>
<text text-anchor="middle" x="1582" y="-7.5" font-family="Helvetica,sans-Serif" font-size="10.00">Colors/ColorConstants.h</text>
</a>
</g>
</g>
<!-- Node23&#45;&gt;Node24 -->
<g id="edge24" class="edge">
<title>Node23&#45;&gt;Node24</title>
<path fill="none" stroke="midnightblue" d="M1669.29,-56.32C1652.69,-47.7 1627,-34.36 1607.78,-24.39"/>
<polygon fill="midnightblue" stroke="midnightblue" points="1609.16,-21.16 1598.67,-19.65 1605.93,-27.37 1609.16,-21.16"/>
</g>
<!-- Node28&#45;&gt;Node19 -->
<g id="edge39" class="edge">
<title>Node28&#45;&gt;Node19</title>
<path fill="none" stroke="midnightblue" d="M1358.54,-224.44C1330.32,-215.32 1285.46,-200.81 1254.03,-190.65"/>
<polygon fill="midnightblue" stroke="midnightblue" points="1254.93,-187.26 1244.34,-187.52 1252.78,-193.92 1254.93,-187.26"/>
</g>
<!-- Node28&#45;&gt;Node21 -->
<g id="edge32" class="edge">
<title>Node28&#45;&gt;Node21</title>
<path fill="none" stroke="midnightblue" d="M1393.95,-224.37C1413.09,-205.89 1458.28,-162.29 1482.68,-138.74"/>
<polygon fill="midnightblue" stroke="midnightblue" points="1485.33,-141.05 1490.1,-131.59 1480.47,-136.02 1485.33,-141.05"/>
</g>
<!-- Node28&#45;&gt;Node29 -->
<g id="edge33" class="edge">
<title>Node28&#45;&gt;Node29</title>
<path fill="none" stroke="midnightblue" d="M1414.79,-224.44C1446.83,-215.24 1497.93,-200.56 1533.35,-190.39"/>
<polygon fill="midnightblue" stroke="midnightblue" points="1534.71,-193.64 1543.35,-187.52 1532.77,-186.91 1534.71,-193.64"/>
</g>
<!-- Node31 -->
<g id="node31" class="node">
<title>Node31</title>
<g id="a_node31"><a xlink:href="PatternArgs_8h.html" target="_top" xlink:title=" ">
<polygon fill="none" stroke="black" points="1241,-112.5 1241,-131.5 1323,-131.5 1323,-112.5 1241,-112.5"/>
<text text-anchor="middle" x="1282" y="-119.5" font-family="Helvetica,sans-Serif" font-size="10.00">PatternArgs.h</text>
</a>
</g>
</g>
<!-- Node28&#45;&gt;Node31 -->
<g id="edge40" class="edge">
<title>Node28&#45;&gt;Node31</title>
<path fill="none" stroke="midnightblue" d="M1376.92,-224.37C1359.69,-205.97 1319.15,-162.67 1297.03,-139.05"/>
<polygon fill="midnightblue" stroke="midnightblue" points="1299.43,-136.5 1290.04,-131.59 1294.32,-141.28 1299.43,-136.5"/>
</g>
<!-- Node29&#45;&gt;Node23 -->
<g id="edge38" class="edge">
<title>Node29&#45;&gt;Node23</title>
<path fill="none" stroke="midnightblue" d="M1625.9,-168.46C1665.43,-160.87 1714.68,-148.44 1727,-132 1739.27,-115.64 1722.14,-95.57 1706.43,-82.09"/>
<polygon fill="midnightblue" stroke="midnightblue" points="1708.49,-79.25 1698.5,-75.7 1704.09,-84.7 1708.49,-79.25"/>
</g>
<!-- Node29&#45;&gt;Node30 -->
<g id="edge34" class="edge">
<title>Node29&#45;&gt;Node30</title>
<path fill="none" stroke="midnightblue" d="M1542.58,-168.44C1509.72,-159.2 1457.22,-144.44 1421.03,-134.26"/>
<polygon fill="midnightblue" stroke="midnightblue" points="1421.85,-130.85 1411.28,-131.52 1419.96,-137.59 1421.85,-130.85"/>
</g>
<!-- Node30&#45;&gt;Node20 -->
<g id="edge35" class="edge">
<title>Node30&#45;&gt;Node20</title>
<path fill="none" stroke="midnightblue" d="M1354.38,-112.44C1325.99,-103.32 1280.86,-88.81 1249.25,-78.65"/>
<polygon fill="midnightblue" stroke="midnightblue" points="1250.09,-75.24 1239.5,-75.52 1247.94,-81.91 1250.09,-75.24"/>
</g>
<!-- Node30&#45;&gt;Node23 -->
<g id="edge36" class="edge">
<title>Node30&#45;&gt;Node23</title>
<path fill="none" stroke="midnightblue" d="M1420.56,-114C1473.28,-104.66 1566.97,-88.07 1627.77,-77.31"/>
<polygon fill="midnightblue" stroke="midnightblue" points="1628.74,-80.69 1637.97,-75.5 1627.52,-73.8 1628.74,-80.69"/>
</g>
<!-- Node30&#45;&gt;Node24 -->
<g id="edge37" class="edge">
<title>Node30&#45;&gt;Node24</title>
<path fill="none" stroke="midnightblue" d="M1396.77,-112.37C1431.63,-93.29 1515.45,-47.42 1557.32,-24.51"/>
<polygon fill="midnightblue" stroke="midnightblue" points="1559.21,-27.46 1566.3,-19.59 1555.85,-21.32 1559.21,-27.46"/>
</g>
<!-- Node31&#45;&gt;Node20 -->
<g id="edge41" class="edge">
<title>Node31&#45;&gt;Node20</title>
<path fill="none" stroke="midnightblue" d="M1270.91,-112.32C1260.51,-104.18 1244.74,-91.84 1232.28,-82.09"/>
<polygon fill="midnightblue" stroke="midnightblue" points="1234.32,-79.24 1224.29,-75.83 1230.01,-84.75 1234.32,-79.24"/>
</g>
<!-- Node32&#45;&gt;Node22 -->
<g id="edge46" class="edge">
<title>Node32&#45;&gt;Node22</title>
<path fill="none" stroke="midnightblue" d="M1663.66,-112.44C1640.25,-103.48 1603.26,-89.31 1576.81,-79.18"/>
<polygon fill="midnightblue" stroke="midnightblue" points="1577.83,-75.82 1567.24,-75.52 1575.32,-82.36 1577.83,-75.82"/>
</g>
<!-- Node32&#45;&gt;Node23 -->
<g id="edge47" class="edge">
<title>Node32&#45;&gt;Node23</title>
<path fill="none" stroke="midnightblue" d="M1686,-112.08C1686,-105.01 1686,-94.86 1686,-85.99"/>
<polygon fill="midnightblue" stroke="midnightblue" points="1689.5,-85.75 1686,-75.75 1682.5,-85.75 1689.5,-85.75"/>
</g>
<!-- Node33&#45;&gt;Node19 -->
<g id="edge50" class="edge">
<title>Node33&#45;&gt;Node19</title>
<path fill="none" stroke="midnightblue" d="M1145.82,-224.32C1159.23,-215.9 1179.82,-202.97 1195.59,-193.07"/>
<polygon fill="midnightblue" stroke="midnightblue" points="1197.61,-195.94 1204.22,-187.65 1193.89,-190.01 1197.61,-195.94"/>
</g>
<!-- Node34&#45;&gt;Node20 -->
<g id="edge52" class="edge">
<title>Node34&#45;&gt;Node20</title>
<path fill="none" stroke="midnightblue" d="M1776.68,-168.42C1741.66,-160.49 1689.81,-147.6 1646,-132 1625.76,-124.8 1622.7,-117.75 1602,-112 1479.47,-77.97 1328.32,-69.65 1255.79,-67.63"/>
<polygon fill="midnightblue" stroke="midnightblue" points="1255.76,-64.13 1245.67,-67.38 1255.58,-71.12 1255.76,-64.13"/>
</g>
<!-- Node34&#45;&gt;Node21 -->
<g id="edge54" class="edge">
<title>Node34&#45;&gt;Node21</title>
<path fill="none" stroke="midnightblue" d="M1766.61,-168.44C1709.66,-158.77 1617.1,-143.05 1557.14,-132.87"/>
<polygon fill="midnightblue" stroke="midnightblue" points="1557.52,-129.39 1547.07,-131.16 1556.34,-136.29 1557.52,-129.39"/>
</g>
<!-- Node34&#45;&gt;Node23 -->
<g id="edge53" class="edge">
<title>Node34&#45;&gt;Node23</title>
<path fill="none" stroke="midnightblue" d="M1807.56,-168.42C1793.63,-155.83 1766.65,-131.7 1743,-112 1730.77,-101.81 1716.74,-90.73 1705.66,-82.11"/>
<polygon fill="midnightblue" stroke="midnightblue" points="1707.55,-79.15 1697.5,-75.79 1703.26,-84.68 1707.55,-79.15"/>
</g>
<!-- Node35&#45;&gt;Node20 -->
<g id="edge58" class="edge">
<title>Node35&#45;&gt;Node20</title>
<path fill="none" stroke="midnightblue" d="M436.14,-117.58C460.72,-115.88 490.93,-113.81 518,-112 764.94,-95.52 1061.3,-76.63 1170.18,-69.71"/>
<polygon fill="midnightblue" stroke="midnightblue" points="1170.67,-73.19 1180.43,-69.06 1170.23,-66.2 1170.67,-73.19"/>
</g>
<!-- Node36&#45;&gt;Node23 -->
<g id="edge61" class="edge">
<title>Node36&#45;&gt;Node23</title>
<path fill="none" stroke="midnightblue" d="M1887.62,-224.34C1892.06,-215.49 1898.45,-201.22 1901,-188 1907.78,-152.8 1901.91,-134.49 1874,-112 1837.58,-82.65 1785.09,-71.92 1744.83,-68.24"/>
<polygon fill="midnightblue" stroke="midnightblue" points="1744.86,-64.73 1734.61,-67.43 1744.3,-71.71 1744.86,-64.73"/>
</g>
<!-- Node36&#45;&gt;Node34 -->
<g id="edge60" class="edge">
<title>Node36&#45;&gt;Node34</title>
<path fill="none" stroke="midnightblue" d="M1872.4,-224.32C1862.54,-216.26 1847.65,-204.08 1835.78,-194.37"/>
<polygon fill="midnightblue" stroke="midnightblue" points="1837.75,-191.46 1827.8,-187.83 1833.32,-196.88 1837.75,-191.46"/>
</g>
<!-- Node37&#45;&gt;Node20 -->
<g id="edge63" class="edge">
<title>Node37&#45;&gt;Node20</title>
<path fill="none" stroke="midnightblue" d="M1587.88,-285.86C1604.55,-268.94 1640.01,-229.47 1653,-188 1655.66,-179.52 1657.44,-175.7 1653,-168 1646.78,-157.22 1567.79,-116 1556,-112 1452.07,-76.75 1321.76,-68.89 1255.67,-67.29"/>
<polygon fill="midnightblue" stroke="midnightblue" points="1255.7,-63.79 1245.63,-67.08 1255.56,-70.78 1255.7,-63.79"/>
</g>
<!-- Node37&#45;&gt;Node21 -->
<g id="edge65" class="edge">
<title>Node37&#45;&gt;Node21</title>
<path fill="none" stroke="midnightblue" d="M1580.71,-285.74C1583.69,-271.88 1590.72,-244.37 1603,-224 1618.03,-199.06 1654.1,-191.57 1637,-168 1626.76,-153.89 1587.29,-141.89 1553.17,-133.84"/>
<polygon fill="midnightblue" stroke="midnightblue" points="1553.78,-130.39 1543.25,-131.57 1552.22,-137.21 1553.78,-130.39"/>
</g>
<!-- Node37&#45;&gt;Node30 -->
<g id="edge64" class="edge">
<title>Node37&#45;&gt;Node30</title>
<path fill="none" stroke="midnightblue" d="M1572.28,-285.73C1561.44,-271.85 1539.06,-244.31 1517,-224 1479.68,-189.64 1430.9,-155.73 1403.06,-137.26"/>
<polygon fill="midnightblue" stroke="midnightblue" points="1404.74,-134.18 1394.46,-131.61 1400.9,-140.03 1404.74,-134.18"/>
</g>
<!-- Node37&#45;&gt;Node38 -->
<g id="edge66" class="edge">
<title>Node37&#45;&gt;Node38</title>
<path fill="none" stroke="midnightblue" d="M1595.48,-285.98C1614.61,-276.08 1646.37,-259.64 1668.65,-248.12"/>
<polygon fill="midnightblue" stroke="midnightblue" points="1670.28,-251.21 1677.55,-243.51 1667.06,-245 1670.28,-251.21"/>
</g>
<!-- Node38&#45;&gt;Node19 -->
<g id="edge68" class="edge">
<title>Node38&#45;&gt;Node19</title>
<path fill="none" stroke="midnightblue" d="M1645.3,-227.47C1558.88,-217.67 1378.76,-197.24 1282.28,-186.29"/>
<polygon fill="midnightblue" stroke="midnightblue" points="1282.41,-182.78 1272.08,-185.14 1281.62,-189.74 1282.41,-182.78"/>
</g>
<!-- Node38&#45;&gt;Node21 -->
<g id="edge67" class="edge">
<title>Node38&#45;&gt;Node21</title>
<path fill="none" stroke="midnightblue" d="M1693.31,-224.45C1691.73,-210.54 1686.57,-183.04 1670,-168 1639.36,-140.18 1593.56,-129.18 1557.07,-125"/>
<polygon fill="midnightblue" stroke="midnightblue" points="1557.35,-121.51 1547.05,-124 1556.65,-128.48 1557.35,-121.51"/>
</g>
<!-- Node38&#45;&gt;Node23 -->
<g id="edge69" class="edge">
<title>Node38&#45;&gt;Node23</title>
<path fill="none" stroke="midnightblue" d="M1742.58,-228.21C1792.67,-222.14 1865.8,-209.77 1883,-188 1927.67,-131.44 1812.77,-94.7 1740.16,-77.8"/>
<polygon fill="midnightblue" stroke="midnightblue" points="1740.74,-74.34 1730.21,-75.54 1739.19,-81.17 1740.74,-74.34"/>
</g>
<!-- Node39&#45;&gt;Node19 -->
<g id="edge75" class="edge">
<title>Node39&#45;&gt;Node19</title>
<path fill="none" stroke="midnightblue" d="M1033.7,-224.44C1071.58,-215.1 1132.35,-200.12 1173.66,-189.93"/>
<polygon fill="midnightblue" stroke="midnightblue" points="1174.59,-193.31 1183.46,-187.52 1172.91,-186.51 1174.59,-193.31"/>
</g>
<!-- Node39&#45;&gt;Node20 -->
<g id="edge81" class="edge">
<title>Node39&#45;&gt;Node20</title>
<path fill="none" stroke="midnightblue" d="M952.33,-225.45C897.1,-216.05 811.4,-199.8 802,-188 796.46,-181.05 796.52,-175 802,-168 847.5,-109.97 1074.33,-80.85 1170.16,-70.98"/>
<polygon fill="midnightblue" stroke="midnightblue" points="1170.77,-74.43 1180.36,-69.95 1170.06,-67.47 1170.77,-74.43"/>
</g>
<!-- Node39&#45;&gt;Node23 -->
<g id="edge80" class="edge">
<title>Node39&#45;&gt;Node23</title>
<path fill="none" stroke="midnightblue" d="M956.08,-224.5C920.54,-216.48 874.14,-203.42 863,-188 857.79,-180.79 857.21,-174.74 863,-168 888.04,-138.87 1443.55,-88.1 1627.46,-72.03"/>
<polygon fill="midnightblue" stroke="midnightblue" points="1627.83,-75.51 1637.49,-71.15 1627.22,-68.53 1627.83,-75.51"/>
</g>
<!-- Node39&#45;&gt;Node30 -->
<g id="edge74" class="edge">
<title>Node39&#45;&gt;Node30</title>
<path fill="none" stroke="midnightblue" d="M952.1,-225.5C905.74,-216.2 845.43,-197.82 873,-168 906.14,-132.16 1247.7,-137.97 1331.27,-131.63"/>
<polygon fill="midnightblue" stroke="midnightblue" points="1331.87,-135.09 1341.47,-130.62 1331.18,-128.12 1331.87,-135.09"/>
</g>
<!-- Node40 -->
<g id="node40" class="node">
<title>Node40</title>
<g id="a_node40"><a xlink:href="ByteStream_8h.html" target="_top" xlink:title=" ">
<polygon fill="none" stroke="black" points="1022.5,-168.5 1022.5,-187.5 1145.5,-187.5 1145.5,-168.5 1022.5,-168.5"/>
<text text-anchor="middle" x="1084" y="-175.5" font-family="Helvetica,sans-Serif" font-size="10.00">../Serial/ByteStream.h</text>
</a>
</g>
</g>
<!-- Node39&#45;&gt;Node40 -->
<g id="edge71" class="edge">
<title>Node39&#45;&gt;Node40</title>
<path fill="none" stroke="midnightblue" d="M1012.66,-224.32C1025.92,-215.9 1046.27,-202.97 1061.85,-193.07"/>
<polygon fill="midnightblue" stroke="midnightblue" points="1063.81,-195.97 1070.38,-187.65 1060.06,-190.06 1063.81,-195.97"/>
</g>
<!-- Node41 -->
<g id="node41" class="node">
<title>Node41</title>
<g id="a_node41"><a xlink:href="Leds_8h.html" target="_top" xlink:title=" ">
<polygon fill="none" stroke="black" points="882.5,-168.5 882.5,-187.5 965.5,-187.5 965.5,-168.5 882.5,-168.5"/>
<text text-anchor="middle" x="924" y="-175.5" font-family="Helvetica,sans-Serif" font-size="10.00">../Leds/Leds.h</text>
</a>
</g>
</g>
<!-- Node39&#45;&gt;Node41 -->
<g id="edge76" class="edge">
<title>Node39&#45;&gt;Node41</title>
<path fill="none" stroke="midnightblue" d="M986.95,-224.32C975.54,-216.11 958.17,-203.6 944.57,-193.81"/>
<polygon fill="midnightblue" stroke="midnightblue" points="946.43,-190.84 936.27,-187.83 942.34,-196.52 946.43,-190.84"/>
</g>
<!-- Node40&#45;&gt;Node20 -->
<g id="edge72" class="edge">
<title>Node40&#45;&gt;Node20</title>
<path fill="none" stroke="midnightblue" d="M1094.12,-168.37C1115.98,-149.73 1167.81,-105.53 1195.25,-82.13"/>
<polygon fill="midnightblue" stroke="midnightblue" points="1197.59,-84.74 1202.92,-75.59 1193.04,-79.42 1197.59,-84.74"/>
</g>
<!-- Node40&#45;&gt;Node32 -->
<g id="edge73" class="edge">
<title>Node40&#45;&gt;Node32</title>
<path fill="none" stroke="midnightblue" d="M1145.56,-169.04C1148.75,-168.68 1151.91,-168.33 1155,-168 1336.87,-148.78 1554.47,-132.41 1644.19,-125.95"/>
<polygon fill="midnightblue" stroke="midnightblue" points="1644.51,-129.44 1654.24,-125.23 1644.01,-122.45 1644.51,-129.44"/>
</g>
<!-- Node41&#45;&gt;Node20 -->
<g id="edge77" class="edge">
<title>Node41&#45;&gt;Node20</title>
<path fill="none" stroke="midnightblue" d="M946.68,-168.37C997.75,-148.93 1121.9,-101.67 1180.87,-79.23"/>
<polygon fill="midnightblue" stroke="midnightblue" points="1182.33,-82.42 1190.43,-75.59 1179.84,-75.88 1182.33,-82.42"/>
</g>
<!-- Node41&#45;&gt;Node21 -->
<g id="edge79" class="edge">
<title>Node41&#45;&gt;Node21</title>
<path fill="none" stroke="midnightblue" d="M965.54,-169.95C970.41,-169.23 975.31,-168.56 980,-168 1179.21,-144.06 1230.46,-152.98 1430,-132 1433.47,-131.64 1437.03,-131.24 1440.63,-130.82"/>
<polygon fill="midnightblue" stroke="midnightblue" points="1441.27,-134.27 1450.78,-129.6 1440.43,-127.32 1441.27,-134.27"/>
</g>
<!-- Node41&#45;&gt;Node30 -->
<g id="edge78" class="edge">
<title>Node41&#45;&gt;Node30</title>
<path fill="none" stroke="midnightblue" d="M965.55,-170.05C970.42,-169.32 975.31,-168.62 980,-168 1132.72,-147.93 1174.61,-153.96 1331.46,-131.96"/>
<polygon fill="midnightblue" stroke="midnightblue" points="1332.05,-135.41 1341.46,-130.54 1331.07,-128.48 1332.05,-135.41"/>
</g>
<!-- Node42&#45;&gt;Node28 -->
<g id="edge85" class="edge">
<title>Node42&#45;&gt;Node28</title>
<path fill="none" stroke="midnightblue" d="M1400.26,-280.4C1397.53,-272.29 1394.08,-262.01 1391.14,-253.28"/>
<polygon fill="midnightblue" stroke="midnightblue" points="1394.41,-252.02 1387.91,-243.66 1387.78,-254.25 1394.41,-252.02"/>
</g>
</g>
</svg>
