<?xml version="1.0" encoding="UTF-8" standalone="no"?>
<!DOCTYPE svg PUBLIC "-//W3C//DTD SVG 1.1//EN"
 "http://www.w3.org/Graphics/SVG/1.1/DTD/svg11.dtd">
<!-- Generated by graphviz version 2.43.0 (0)
 -->
<!-- Title: VortexEngine/src/Patterns/Multi/ZigzagPattern.cpp Pages: 1 -->
<!--zoomable 431 -->
<svg id="main" version="1.1" xmlns="http://www.w3.org/2000/svg" xmlns:xlink="http://www.w3.org/1999/xlink" xml:space="preserve" onload="init(evt)">
<style type="text/css"><![CDATA[
.edge:hover path { stroke: red; }
.edge:hover polygon { stroke: red; fill: red; }
]]></style>
<script type="text/javascript"><![CDATA[
var edges = document.getElementsByTagName('g');
if (edges && edges.length) {
  for (var i=0;i<edges.length;i++) {
    if (edges[i].id.substr(0,4)=='edge') {
      edges[i].setAttribute('class','edge');
    }
  }
}
]]></script>
        <defs>
                <circle id="rim" cx="0" cy="0" r="7"/>
                <circle id="rim2" cx="0" cy="0" r="3.5"/>
                <g id="zoomPlus">
                        <use xlink:href="#rim" fill="#404040">
                                <set attributeName="fill" to="#808080" begin="zoomplus.mouseover" end="zoomplus.mouseout"/>
                        </use>
                        <path d="M-4,0h8M0,-4v8" fill="none" stroke="white" stroke-width="1.5" pointer-events="none"/>
                </g>
                <g id="zoomMin">
                        <use xlink:href="#rim" fill="#404040">
                                <set attributeName="fill" to="#808080" begin="zoomminus.mouseover" end="zoomminus.mouseout"/>
                        </use>
                        <path d="M-4,0h8" fill="none" stroke="white" stroke-width="1.5" pointer-events="none"/>
                </g>
                <g id="dirArrow">
                        <path fill="none" stroke="white" stroke-width="1.5" d="M0,-3.0v7 M-2.5,-0.5L0,-3.0L2.5,-0.5"/>
                </g>
               <g id="resetDef">
                       <use xlink:href="#rim2" fill="#404040">
                               <set attributeName="fill" to="#808080" begin="reset.mouseover" end="reset.mouseout"/>
                       </use>
               </g>
        </defs>

<script type="text/javascript">
var viewWidth = 802;
var viewHeight = 431;
var sectionId = 'dynsection-0';
</script>
<script xlink:href="svgpan.js"/>
<svg id="graph" class="graph">
<g id="viewport">
<title>VortexEngine/src/Patterns/Multi/ZigzagPattern.cpp</title>
<!-- Node1 -->
<g id="node1" class="node">
<title>Node1</title>
<g id="a_node1"><a xlink:title=" ">
<polygon fill="#bfbfbf" stroke="black" points="432.5,-392.5 432.5,-422.5 573.5,-422.5 573.5,-392.5 432.5,-392.5"/>
<text text-anchor="start" x="440.5" y="-410.5" font-family="Helvetica,sans-Serif" font-size="10.00">VortexEngine/src/Patterns</text>
<text text-anchor="middle" x="503" y="-399.5" font-family="Helvetica,sans-Serif" font-size="10.00">/Multi/ZigzagPattern.cpp</text>
</a>
</g>
</g>
<!-- Node2 -->
<g id="node2" class="node">
<title>Node2</title>
<g id="a_node2"><a xlink:href="ZigzagPattern_8h.html" target="_top" xlink:title=" ">
<polygon fill="none" stroke="black" points="373.5,-336.5 373.5,-355.5 466.5,-355.5 466.5,-336.5 373.5,-336.5"/>
<text text-anchor="middle" x="420" y="-343.5" font-family="Helvetica,sans-Serif" font-size="10.00">ZigzagPattern.h</text>
</a>
</g>
</g>
<!-- Node1&#45;&gt;Node2 -->
<g id="edge1" class="edge">
<title>Node1&#45;&gt;Node2</title>
<path fill="none" stroke="midnightblue" d="M483.33,-392.4C470.4,-383.13 453.51,-371.03 440.43,-361.65"/>
<polygon fill="midnightblue" stroke="midnightblue" points="442.24,-358.64 432.08,-355.66 438.17,-364.33 442.24,-358.64"/>
</g>
<!-- Node15 -->
<g id="node15" class="node">
<title>Node15</title>
<g id="a_node15"><a xlink:href="TimeControl_8h.html" target="_top" xlink:title=" ">
<polygon fill="none" stroke="black" points="496,-168.5 496,-187.5 582,-187.5 582,-168.5 496,-168.5"/>
<text text-anchor="middle" x="539" y="-175.5" font-family="Helvetica,sans-Serif" font-size="10.00">TimeControl.h</text>
</a>
</g>
</g>
<!-- Node1&#45;&gt;Node15 -->
<g id="edge28" class="edge">
<title>Node1&#45;&gt;Node15</title>
<path fill="none" stroke="midnightblue" d="M506.85,-392.29C514.27,-364.21 530.39,-299.52 537,-244 538.84,-228.57 539.28,-210.93 539.29,-197.93"/>
<polygon fill="midnightblue" stroke="midnightblue" points="542.79,-197.84 539.22,-187.87 535.79,-197.89 542.79,-197.84"/>
</g>
<!-- Node17 -->
<g id="node17" class="node">
<title>Node17</title>
<g id="a_node17"><a xlink:href="Leds_8h.html" target="_top" xlink:title=" ">
<polygon fill="none" stroke="black" points="103,-168.5 103,-187.5 195,-187.5 195,-168.5 103,-168.5"/>
<text text-anchor="middle" x="149" y="-175.5" font-family="Helvetica,sans-Serif" font-size="10.00">../../Leds/Leds.h</text>
</a>
</g>
</g>
<!-- Node1&#45;&gt;Node17 -->
<g id="edge29" class="edge">
<title>Node1&#45;&gt;Node17</title>
<path fill="none" stroke="midnightblue" d="M434.62,-392.48C375.38,-377.58 289.98,-349.21 230,-300 194.79,-271.11 169.02,-222.95 156.84,-196.95"/>
<polygon fill="midnightblue" stroke="midnightblue" points="159.91,-195.24 152.59,-187.58 153.53,-198.13 159.91,-195.24"/>
</g>
<!-- Node18 -->
<g id="node18" class="node">
<title>Node18</title>
<g id="a_node18"><a xlink:href="Log_8h.html" target="_top" xlink:title=" ">
<polygon fill="none" stroke="black" points="694.5,-168.5 694.5,-187.5 775.5,-187.5 775.5,-168.5 694.5,-168.5"/>
<text text-anchor="middle" x="735" y="-175.5" font-family="Helvetica,sans-Serif" font-size="10.00">../../Log/Log.h</text>
</a>
</g>
</g>
<!-- Node1&#45;&gt;Node18 -->
<g id="edge33" class="edge">
<title>Node1&#45;&gt;Node18</title>
<path fill="none" stroke="midnightblue" d="M517.51,-392.27C558.6,-351.98 675.56,-237.29 718.73,-194.96"/>
<polygon fill="midnightblue" stroke="midnightblue" points="721.21,-197.43 725.9,-187.93 716.31,-192.43 721.21,-197.43"/>
</g>
<!-- Node3 -->
<g id="node3" class="node">
<title>Node3</title>
<g id="a_node3"><a xlink:href="MultiLedPattern_8h.html" target="_top" xlink:title=" ">
<polygon fill="none" stroke="black" points="239,-280.5 239,-299.5 341,-299.5 341,-280.5 239,-280.5"/>
<text text-anchor="middle" x="290" y="-287.5" font-family="Helvetica,sans-Serif" font-size="10.00">MultiLedPattern.h</text>
</a>
</g>
</g>
<!-- Node2&#45;&gt;Node3 -->
<g id="edge2" class="edge">
<title>Node2&#45;&gt;Node3</title>
<path fill="none" stroke="midnightblue" d="M399.4,-336.44C378.01,-327.56 344.32,-313.56 319.98,-303.45"/>
<polygon fill="midnightblue" stroke="midnightblue" points="321.08,-300.12 310.5,-299.52 318.39,-306.58 321.08,-300.12"/>
</g>
<!-- Node14 -->
<g id="node14" class="node">
<title>Node14</title>
<g id="a_node14"><a xlink:href="Timings_8h.html" target="_top" xlink:title=" ">
<polygon fill="none" stroke="black" points="418,-224.5 418,-243.5 528,-243.5 528,-224.5 418,-224.5"/>
<text text-anchor="middle" x="473" y="-231.5" font-family="Helvetica,sans-Serif" font-size="10.00">../../Time/Timings.h</text>
</a>
</g>
</g>
<!-- Node2&#45;&gt;Node14 -->
<g id="edge19" class="edge">
<title>Node2&#45;&gt;Node14</title>
<path fill="none" stroke="midnightblue" d="M424.16,-336.37C432.83,-318.38 452.98,-276.55 464.51,-252.63"/>
<polygon fill="midnightblue" stroke="midnightblue" points="467.67,-254.12 468.86,-243.59 461.37,-251.08 467.67,-254.12"/>
</g>
<!-- Node16 -->
<g id="node16" class="node">
<title>Node16</title>
<g id="a_node16"><a xlink:href="Timer_8h.html" target="_top" xlink:title=" ">
<polygon fill="none" stroke="black" points="340.5,-168.5 340.5,-187.5 439.5,-187.5 439.5,-168.5 340.5,-168.5"/>
<text text-anchor="middle" x="390" y="-175.5" font-family="Helvetica,sans-Serif" font-size="10.00">../../Time/Timer.h</text>
</a>
</g>
</g>
<!-- Node2&#45;&gt;Node16 -->
<g id="edge25" class="edge">
<title>Node2&#45;&gt;Node16</title>
<path fill="none" stroke="midnightblue" d="M418.39,-336.08C413.66,-309.95 399.8,-233.21 393.36,-197.58"/>
<polygon fill="midnightblue" stroke="midnightblue" points="396.77,-196.79 391.55,-187.57 389.88,-198.03 396.77,-196.79"/>
</g>
<!-- Node4 -->
<g id="node4" class="node">
<title>Node4</title>
<g id="a_node4"><a xlink:href="Pattern_8h.html" target="_top" xlink:title=" ">
<polygon fill="none" stroke="black" points="233.5,-224.5 233.5,-243.5 302.5,-243.5 302.5,-224.5 233.5,-224.5"/>
<text text-anchor="middle" x="268" y="-231.5" font-family="Helvetica,sans-Serif" font-size="10.00">../Pattern.h</text>
</a>
</g>
</g>
<!-- Node3&#45;&gt;Node4 -->
<g id="edge3" class="edge">
<title>Node3&#45;&gt;Node4</title>
<path fill="none" stroke="midnightblue" d="M286.37,-280.08C283.39,-272.77 279.07,-262.18 275.38,-253.1"/>
<polygon fill="midnightblue" stroke="midnightblue" points="278.58,-251.69 271.57,-243.75 272.1,-254.33 278.58,-251.69"/>
</g>
<!-- Node5 -->
<g id="node5" class="node">
<title>Node5</title>
<g id="a_node5"><a xlink:href="LedTypes_8h.html" target="_top" xlink:title=" ">
<polygon fill="none" stroke="black" points="399.5,-112.5 399.5,-131.5 504.5,-131.5 504.5,-112.5 399.5,-112.5"/>
<text text-anchor="middle" x="452" y="-119.5" font-family="Helvetica,sans-Serif" font-size="10.00">../Leds/LedTypes.h</text>
</a>
</g>
</g>
<!-- Node4&#45;&gt;Node5 -->
<g id="edge4" class="edge">
<title>Node4&#45;&gt;Node5</title>
<path fill="none" stroke="midnightblue" d="M302.68,-229.27C349.91,-223.41 430.68,-210.35 449,-188 459.4,-175.32 458.97,-156.11 456.64,-141.86"/>
<polygon fill="midnightblue" stroke="midnightblue" points="460,-140.8 454.55,-131.72 453.14,-142.22 460,-140.8"/>
</g>
<!-- Node10 -->
<g id="node10" class="node">
<title>Node10</title>
<g id="a_node10"><a xlink:href="Colorset_8h.html" target="_top" xlink:title=" ">
<polygon fill="none" stroke="black" points="213.5,-168.5 213.5,-187.5 322.5,-187.5 322.5,-168.5 213.5,-168.5"/>
<text text-anchor="middle" x="268" y="-175.5" font-family="Helvetica,sans-Serif" font-size="10.00">../Colors/Colorset.h</text>
</a>
</g>
</g>
<!-- Node4&#45;&gt;Node10 -->
<g id="edge9" class="edge">
<title>Node4&#45;&gt;Node10</title>
<path fill="none" stroke="midnightblue" d="M268,-224.08C268,-217.01 268,-206.86 268,-197.99"/>
<polygon fill="midnightblue" stroke="midnightblue" points="271.5,-197.75 268,-187.75 264.5,-197.75 271.5,-197.75"/>
</g>
<!-- Node12 -->
<g id="node12" class="node">
<title>Node12</title>
<g id="a_node12"><a xlink:href="Patterns_8h.html" target="_top" xlink:title=" ">
<polygon fill="none" stroke="black" points="102.5,-112.5 102.5,-131.5 167.5,-131.5 167.5,-112.5 102.5,-112.5"/>
<text text-anchor="middle" x="135" y="-119.5" font-family="Helvetica,sans-Serif" font-size="10.00">Patterns.h</text>
</a>
</g>
</g>
<!-- Node4&#45;&gt;Node12 -->
<g id="edge15" class="edge">
<title>Node4&#45;&gt;Node12</title>
<path fill="none" stroke="midnightblue" d="M233.35,-229.03C187.61,-222.99 110.91,-209.83 94,-188 81.41,-171.74 98.84,-151.5 114.71,-137.96"/>
<polygon fill="midnightblue" stroke="midnightblue" points="117.09,-140.54 122.7,-131.55 112.71,-135.08 117.09,-140.54"/>
</g>
<!-- Node13 -->
<g id="node13" class="node">
<title>Node13</title>
<g id="a_node13"><a xlink:href="PatternArgs_8h.html" target="_top" xlink:title=" ">
<polygon fill="none" stroke="black" points="0,-112.5 0,-131.5 82,-131.5 82,-112.5 0,-112.5"/>
<text text-anchor="middle" x="41" y="-119.5" font-family="Helvetica,sans-Serif" font-size="10.00">PatternArgs.h</text>
</a>
</g>
</g>
<!-- Node4&#45;&gt;Node13 -->
<g id="edge17" class="edge">
<title>Node4&#45;&gt;Node13</title>
<path fill="none" stroke="midnightblue" d="M233.18,-231.63C194.18,-228.55 130.61,-218.77 86,-188 68.93,-176.22 56.33,-155.7 48.87,-140.86"/>
<polygon fill="midnightblue" stroke="midnightblue" points="51.97,-139.22 44.54,-131.67 45.64,-142.21 51.97,-139.22"/>
</g>
<!-- Node6 -->
<g id="node6" class="node">
<title>Node6</title>
<g id="a_node6"><a xlink:title=" ">
<polygon fill="none" stroke="#bfbfbf" points="297.5,-56.5 297.5,-75.5 362.5,-75.5 362.5,-56.5 297.5,-56.5"/>
<text text-anchor="middle" x="330" y="-63.5" font-family="Helvetica,sans-Serif" font-size="10.00">inttypes.h</text>
</a>
</g>
</g>
<!-- Node5&#45;&gt;Node6 -->
<g id="edge5" class="edge">
<title>Node5&#45;&gt;Node6</title>
<path fill="none" stroke="midnightblue" d="M432.67,-112.44C412.68,-103.6 381.26,-89.69 358.44,-79.59"/>
<polygon fill="midnightblue" stroke="midnightblue" points="359.8,-76.36 349.24,-75.52 356.97,-82.76 359.8,-76.36"/>
</g>
<!-- Node7 -->
<g id="node7" class="node">
<title>Node7</title>
<g id="a_node7"><a xlink:title=" ">
<polygon fill="none" stroke="#bfbfbf" points="712,-56.5 712,-75.5 768,-75.5 768,-56.5 712,-56.5"/>
<text text-anchor="middle" x="740" y="-63.5" font-family="Helvetica,sans-Serif" font-size="10.00">stdarg.h</text>
</a>
</g>
</g>
<!-- Node5&#45;&gt;Node7 -->
<g id="edge6" class="edge">
<title>Node5&#45;&gt;Node7</title>
<path fill="none" stroke="midnightblue" d="M497.63,-112.44C554.14,-101.85 649.35,-84 702.05,-74.12"/>
<polygon fill="midnightblue" stroke="midnightblue" points="702.81,-77.53 712,-72.25 701.52,-70.65 702.81,-77.53"/>
</g>
<!-- Node8 -->
<g id="node8" class="node">
<title>Node8</title>
<g id="a_node8"><a xlink:href="VortexConfig_8h.html" target="_top" xlink:title=" ">
<polygon fill="none" stroke="black" points="462.5,-56.5 462.5,-75.5 559.5,-75.5 559.5,-56.5 462.5,-56.5"/>
<text text-anchor="middle" x="511" y="-63.5" font-family="Helvetica,sans-Serif" font-size="10.00">../VortexConfig.h</text>
</a>
</g>
</g>
<!-- Node5&#45;&gt;Node8 -->
<g id="edge7" class="edge">
<title>Node5&#45;&gt;Node8</title>
<path fill="none" stroke="midnightblue" d="M461.48,-112.32C470.2,-104.34 483.34,-92.31 493.9,-82.65"/>
<polygon fill="midnightblue" stroke="midnightblue" points="496.33,-85.17 501.35,-75.83 491.61,-80 496.33,-85.17"/>
</g>
<!-- Node9 -->
<g id="node9" class="node">
<title>Node9</title>
<g id="a_node9"><a xlink:href="ColorConstants_8h.html" target="_top" xlink:title=" ">
<polygon fill="none" stroke="black" points="292,-0.5 292,-19.5 426,-19.5 426,-0.5 292,-0.5"/>
<text text-anchor="middle" x="359" y="-7.5" font-family="Helvetica,sans-Serif" font-size="10.00">Colors/ColorConstants.h</text>
</a>
</g>
</g>
<!-- Node8&#45;&gt;Node9 -->
<g id="edge8" class="edge">
<title>Node8&#45;&gt;Node9</title>
<path fill="none" stroke="midnightblue" d="M486.92,-56.44C461.46,-47.4 421.11,-33.06 392.54,-22.92"/>
<polygon fill="midnightblue" stroke="midnightblue" points="393.57,-19.57 382.97,-19.52 391.22,-26.16 393.57,-19.57"/>
</g>
<!-- Node10&#45;&gt;Node8 -->
<g id="edge14" class="edge">
<title>Node10&#45;&gt;Node8</title>
<path fill="none" stroke="midnightblue" d="M282.84,-168.36C305.65,-155.27 350.91,-130.02 391,-112 419,-99.41 451.68,-87.32 475.86,-78.85"/>
<polygon fill="midnightblue" stroke="midnightblue" points="477.04,-82.14 485.34,-75.56 474.74,-75.53 477.04,-82.14"/>
</g>
<!-- Node11 -->
<g id="node11" class="node">
<title>Node11</title>
<g id="a_node11"><a xlink:href="ColorTypes_8h.html" target="_top" xlink:title=" ">
<polygon fill="none" stroke="black" points="225.5,-112.5 225.5,-131.5 304.5,-131.5 304.5,-112.5 225.5,-112.5"/>
<text text-anchor="middle" x="265" y="-119.5" font-family="Helvetica,sans-Serif" font-size="10.00">ColorTypes.h</text>
</a>
</g>
</g>
<!-- Node10&#45;&gt;Node11 -->
<g id="edge10" class="edge">
<title>Node10&#45;&gt;Node11</title>
<path fill="none" stroke="midnightblue" d="M267.5,-168.08C267.11,-161.01 266.55,-150.86 266.05,-141.99"/>
<polygon fill="midnightblue" stroke="midnightblue" points="269.54,-141.54 265.49,-131.75 262.55,-141.93 269.54,-141.54"/>
</g>
<!-- Node11&#45;&gt;Node6 -->
<g id="edge11" class="edge">
<title>Node11&#45;&gt;Node6</title>
<path fill="none" stroke="midnightblue" d="M275.44,-112.32C285.15,-104.26 299.82,-92.08 311.5,-82.37"/>
<polygon fill="midnightblue" stroke="midnightblue" points="313.91,-84.92 319.37,-75.83 309.44,-79.53 313.91,-84.92"/>
</g>
<!-- Node11&#45;&gt;Node8 -->
<g id="edge12" class="edge">
<title>Node11&#45;&gt;Node8</title>
<path fill="none" stroke="midnightblue" d="M303.98,-112.44C346.89,-103.02 415.95,-87.87 462.37,-77.68"/>
<polygon fill="midnightblue" stroke="midnightblue" points="463.19,-81.08 472.2,-75.52 461.69,-74.24 463.19,-81.08"/>
</g>
<!-- Node11&#45;&gt;Node9 -->
<g id="edge13" class="edge">
<title>Node11&#45;&gt;Node9</title>
<path fill="none" stroke="midnightblue" d="M266.25,-112.12C268.52,-98.7 274.42,-73.04 288,-56 298.89,-42.33 315.14,-31.6 329.34,-24.06"/>
<polygon fill="midnightblue" stroke="midnightblue" points="330.93,-27.17 338.3,-19.56 327.79,-20.92 330.93,-27.17"/>
</g>
<!-- Node12&#45;&gt;Node6 -->
<g id="edge16" class="edge">
<title>Node12&#45;&gt;Node6</title>
<path fill="none" stroke="midnightblue" d="M165.9,-112.44C199.27,-103.2 252.59,-88.44 289.35,-78.26"/>
<polygon fill="midnightblue" stroke="midnightblue" points="290.54,-81.56 299.25,-75.52 288.67,-74.81 290.54,-81.56"/>
</g>
<!-- Node13&#45;&gt;Node6 -->
<g id="edge18" class="edge">
<title>Node13&#45;&gt;Node6</title>
<path fill="none" stroke="midnightblue" d="M82.1,-113.32C136.41,-103.17 231.66,-85.38 286.94,-75.05"/>
<polygon fill="midnightblue" stroke="midnightblue" points="287.92,-78.42 297.11,-73.15 286.63,-71.54 287.92,-78.42"/>
</g>
<!-- Node14&#45;&gt;Node8 -->
<g id="edge24" class="edge">
<title>Node14&#45;&gt;Node8</title>
<path fill="none" stroke="midnightblue" d="M528.25,-225.9C551.65,-219.86 576.76,-208.67 591,-188 617.25,-149.9 564.62,-104.16 532.8,-81.38"/>
<polygon fill="midnightblue" stroke="midnightblue" points="534.68,-78.42 524.47,-75.58 530.68,-84.16 534.68,-78.42"/>
</g>
<!-- Node14&#45;&gt;Node15 -->
<g id="edge20" class="edge">
<title>Node14&#45;&gt;Node15</title>
<path fill="none" stroke="midnightblue" d="M483.6,-224.32C493.46,-216.26 508.35,-204.08 520.22,-194.37"/>
<polygon fill="midnightblue" stroke="midnightblue" points="522.68,-196.88 528.2,-187.83 518.25,-191.46 522.68,-196.88"/>
</g>
<!-- Node15&#45;&gt;Node5 -->
<g id="edge23" class="edge">
<title>Node15&#45;&gt;Node5</title>
<path fill="none" stroke="midnightblue" d="M525.02,-168.32C511.45,-159.9 490.62,-146.97 474.68,-137.07"/>
<polygon fill="midnightblue" stroke="midnightblue" points="476.29,-133.95 465.94,-131.65 472.59,-139.9 476.29,-133.95"/>
</g>
<!-- Node15&#45;&gt;Node6 -->
<g id="edge21" class="edge">
<title>Node15&#45;&gt;Node6</title>
<path fill="none" stroke="midnightblue" d="M538.2,-168.41C536.43,-154.44 530.88,-126.86 514,-112 474.94,-77.62 413.87,-68.55 372.92,-66.63"/>
<polygon fill="midnightblue" stroke="midnightblue" points="372.83,-63.13 362.72,-66.28 372.59,-70.12 372.83,-63.13"/>
</g>
<!-- Node15&#45;&gt;Node8 -->
<g id="edge22" class="edge">
<title>Node15&#45;&gt;Node8</title>
<path fill="none" stroke="midnightblue" d="M542.49,-168.32C547.07,-155.6 553.77,-131.31 547,-112 543.21,-101.21 535.63,-91.08 528.4,-83.18"/>
<polygon fill="midnightblue" stroke="midnightblue" points="530.67,-80.49 521.16,-75.81 525.67,-85.4 530.67,-80.49"/>
</g>
<!-- Node16&#45;&gt;Node5 -->
<g id="edge27" class="edge">
<title>Node16&#45;&gt;Node5</title>
<path fill="none" stroke="midnightblue" d="M399.96,-168.32C409.13,-160.34 422.94,-148.31 434.03,-138.65"/>
<polygon fill="midnightblue" stroke="midnightblue" points="436.62,-141.04 441.86,-131.83 432.02,-135.76 436.62,-141.04"/>
</g>
<!-- Node16&#45;&gt;Node6 -->
<g id="edge26" class="edge">
<title>Node16&#45;&gt;Node6</title>
<path fill="none" stroke="midnightblue" d="M385.29,-168.37C375.48,-150.38 352.66,-108.55 339.61,-84.63"/>
<polygon fill="midnightblue" stroke="midnightblue" points="342.55,-82.69 334.69,-75.59 336.4,-86.05 342.55,-82.69"/>
</g>
<!-- Node17&#45;&gt;Node5 -->
<g id="edge32" class="edge">
<title>Node17&#45;&gt;Node5</title>
<path fill="none" stroke="midnightblue" d="M195.02,-168.8C248.35,-159.29 336.31,-143.62 394.21,-133.3"/>
<polygon fill="midnightblue" stroke="midnightblue" points="395.06,-136.7 404.3,-131.5 393.84,-129.81 395.06,-136.7"/>
</g>
<!-- Node17&#45;&gt;Node6 -->
<g id="edge30" class="edge">
<title>Node17&#45;&gt;Node6</title>
<path fill="none" stroke="midnightblue" d="M155.97,-168.3C167.29,-154.67 190.94,-128.17 216,-112 238.58,-97.43 266.63,-86.28 289.26,-78.73"/>
<polygon fill="midnightblue" stroke="midnightblue" points="290.47,-82.01 298.91,-75.61 288.32,-75.35 290.47,-82.01"/>
</g>
<!-- Node17&#45;&gt;Node11 -->
<g id="edge31" class="edge">
<title>Node17&#45;&gt;Node11</title>
<path fill="none" stroke="midnightblue" d="M167.38,-168.44C186.22,-159.68 215.73,-145.94 237.38,-135.86"/>
<polygon fill="midnightblue" stroke="midnightblue" points="239.12,-138.91 246.71,-131.52 236.16,-132.56 239.12,-138.91"/>
</g>
<!-- Node18&#45;&gt;Node7 -->
<g id="edge34" class="edge">
<title>Node18&#45;&gt;Node7</title>
<path fill="none" stroke="midnightblue" d="M752.5,-168.46C765.79,-160.92 783.08,-148.53 791,-132 800.24,-112.72 781.44,-93.86 764.11,-81.47"/>
<polygon fill="midnightblue" stroke="midnightblue" points="765.6,-78.25 755.34,-75.61 761.71,-84.07 765.6,-78.25"/>
</g>
<!-- Node18&#45;&gt;Node8 -->
<g id="edge35" class="edge">
<title>Node18&#45;&gt;Node8</title>
<path fill="none" stroke="midnightblue" d="M742.78,-168.48C754.05,-155.09 772.11,-128.91 758,-112 734.51,-83.84 635.21,-73.26 569.89,-69.31"/>
<polygon fill="midnightblue" stroke="midnightblue" points="569.9,-65.81 559.71,-68.73 569.5,-72.8 569.9,-65.81"/>
</g>
<!-- Node19 -->
<g id="node19" class="node">
<title>Node19</title>
<g id="a_node19"><a xlink:href="ErrorBlinker_8h.html" target="_top" xlink:title=" ">
<polygon fill="none" stroke="black" points="637.5,-112.5 637.5,-131.5 748.5,-131.5 748.5,-112.5 637.5,-112.5"/>
<text text-anchor="middle" x="693" y="-119.5" font-family="Helvetica,sans-Serif" font-size="10.00">../Log/ErrorBlinker.h</text>
</a>
</g>
</g>
<!-- Node18&#45;&gt;Node19 -->
<g id="edge36" class="edge">
<title>Node18&#45;&gt;Node19</title>
<path fill="none" stroke="midnightblue" d="M728.06,-168.08C722.07,-160.38 713.25,-149.03 705.95,-139.65"/>
<polygon fill="midnightblue" stroke="midnightblue" points="708.71,-137.5 699.81,-131.75 703.18,-141.79 708.71,-137.5"/>
</g>
<!-- Node19&#45;&gt;Node6 -->
<g id="edge37" class="edge">
<title>Node19&#45;&gt;Node6</title>
<path fill="none" stroke="midnightblue" d="M637.47,-112.74C564.7,-101.91 438.62,-83.16 372.8,-73.37"/>
<polygon fill="midnightblue" stroke="midnightblue" points="373.18,-69.88 362.77,-71.87 372.15,-76.81 373.18,-69.88"/>
</g>
<!-- Node19&#45;&gt;Node8 -->
<g id="edge38" class="edge">
<title>Node19&#45;&gt;Node8</title>
<path fill="none" stroke="midnightblue" d="M664.16,-112.44C633.14,-103.24 583.67,-88.56 549.38,-78.39"/>
<polygon fill="midnightblue" stroke="midnightblue" points="550.29,-75.01 539.7,-75.52 548.29,-81.72 550.29,-75.01"/>
</g>
</g>
</svg>
        <g id="navigator" transform="translate(0 0)" fill="#404254">
                <rect fill="#f2f5e9" fill-opacity="0.5" stroke="#606060" stroke-width=".5" x="0" y="0" width="60" height="60"/>
                <use id="zoomplus" xlink:href="#zoomPlus" x="17" y="9" onmousedown="handleZoom(evt,'in')"/>
                <use id="zoomminus" xlink:href="#zoomMin" x="42" y="9" onmousedown="handleZoom(evt,'out')"/>
                <use id="reset" xlink:href="#resetDef" x="30" y="36" onmousedown="handleReset()"/>
                <g id="arrowUp" xlink:href="#dirArrow" transform="translate(30 24)" onmousedown="handlePan(0,-1)">
                  <use xlink:href="#rim" fill="#404040">
                        <set attributeName="fill" to="#808080" begin="arrowUp.mouseover" end="arrowUp.mouseout"/>
                  </use>
                  <path fill="none" stroke="white" stroke-width="1.5" d="M0,-3.0v7 M-2.5,-0.5L0,-3.0L2.5,-0.5"/>
                </g>
                <g id="arrowRight" xlink:href="#dirArrow" transform="rotate(90) translate(36 -43)" onmousedown="handlePan(1,0)">
                  <use xlink:href="#rim" fill="#404040">
                        <set attributeName="fill" to="#808080" begin="arrowRight.mouseover" end="arrowRight.mouseout"/>
                  </use>
                  <path fill="none" stroke="white" stroke-width="1.5" d="M0,-3.0v7 M-2.5,-0.5L0,-3.0L2.5,-0.5"/>
                </g>
                <g id="arrowDown" xlink:href="#dirArrow" transform="rotate(180) translate(-30 -48)" onmousedown="handlePan(0,1)">
                  <use xlink:href="#rim" fill="#404040">
                        <set attributeName="fill" to="#808080" begin="arrowDown.mouseover" end="arrowDown.mouseout"/>
                  </use>
                  <path fill="none" stroke="white" stroke-width="1.5" d="M0,-3.0v7 M-2.5,-0.5L0,-3.0L2.5,-0.5"/>
                </g>
                <g id="arrowLeft" xlink:href="#dirArrow" transform="rotate(270) translate(-36 17)" onmousedown="handlePan(-1,0)">
                  <use xlink:href="#rim" fill="#404040">
                        <set attributeName="fill" to="#808080" begin="arrowLeft.mouseover" end="arrowLeft.mouseout"/>
                  </use>
                  <path fill="none" stroke="white" stroke-width="1.5" d="M0,-3.0v7 M-2.5,-0.5L0,-3.0L2.5,-0.5"/>
                </g>
        </g>
        <svg viewBox="0 0 15 15" width="100%" height="30px" preserveAspectRatio="xMaxYMin meet">
         <g id="arrow_out" transform="scale(0.3 0.3)">
          <a xlink:href="ZigzagPattern_8cpp__incl_org.svg" target="_base">
           <rect id="button" ry="5" rx="5" y="6" x="6" height="38" width="38"
                fill="#f2f5e9" fill-opacity="0.5" stroke="#606060" stroke-width="1.0"/>
           <path id="arrow"
             d="M 11.500037,31.436501 C 11.940474,20.09759 22.043105,11.32322 32.158766,21.979434 L 37.068811,17.246167 C 37.068811,17.246167 37.088388,32 37.088388,32 L 22.160133,31.978069 C 22.160133,31.978069 26.997745,27.140456 26.997745,27.140456 C 18.528582,18.264221 13.291696,25.230495 11.500037,31.436501 z"
             style="fill:#404040;"/>
          </a>
         </g>
        </svg>
</svg>
