<?xml version="1.0" encoding="UTF-8" standalone="no"?>
<!DOCTYPE svg PUBLIC "-//W3C//DTD SVG 1.1//EN"
 "http://www.w3.org/Graphics/SVG/1.1/DTD/svg11.dtd">
<!-- Generated by graphviz version 2.43.0 (0)
 -->
<!-- Title: BlendPattern Pages: 1 -->
<svg width="221pt" height="364pt"
 viewBox="0.00 0.00 221.00 364.00" xmlns="http://www.w3.org/2000/svg" xmlns:xlink="http://www.w3.org/1999/xlink">
<g id="graph0" class="graph" transform="scale(1 1) rotate(0) translate(4 360)">
<title>BlendPattern</title>
<!-- Node1 -->
<g id="node1" class="node">
<title>Node1</title>
<g id="a_node1"><a xlink:title=" ">
<polygon fill="#bfbfbf" stroke="black" points="98.5,-0.5 98.5,-19.5 177.5,-19.5 177.5,-0.5 98.5,-0.5"/>
<text text-anchor="middle" x="138" y="-7.5" font-family="Helvetica,sans-Serif" font-size="10.00">BlendPattern</text>
</a>
</g>
</g>
<!-- Node2 -->
<g id="node2" class="node">
<title>Node2</title>
<g id="a_node2"><a xlink:href="classBasicPattern.html" target="_top" xlink:title=" ">
<polygon fill="none" stroke="black" points="55.5,-78.5 55.5,-97.5 132.5,-97.5 132.5,-78.5 55.5,-78.5"/>
<text text-anchor="middle" x="94" y="-85.5" font-family="Helvetica,sans-Serif" font-size="10.00">BasicPattern</text>
</a>
</g>
</g>
<!-- Node2&#45;&gt;Node1 -->
<g id="edge1" class="edge">
<title>Node2&#45;&gt;Node1</title>
<path fill="none" stroke="midnightblue" d="M104.09,-69.57C113.14,-53.95 126.02,-31.7 133.01,-19.62"/>
<polygon fill="midnightblue" stroke="midnightblue" points="101.03,-67.87 99.05,-78.28 107.09,-71.38 101.03,-67.87"/>
</g>
<!-- Node3 -->
<g id="node3" class="node">
<title>Node3</title>
<g id="a_node3"><a xlink:href="classSingleLedPattern.html" target="_top" xlink:title=" ">
<polygon fill="none" stroke="black" points="0,-145.5 0,-164.5 98,-164.5 98,-145.5 0,-145.5"/>
<text text-anchor="middle" x="49" y="-152.5" font-family="Helvetica,sans-Serif" font-size="10.00">SingleLedPattern</text>
</a>
</g>
</g>
<!-- Node3&#45;&gt;Node2 -->
<g id="edge2" class="edge">
<title>Node3&#45;&gt;Node2</title>
<path fill="none" stroke="midnightblue" d="M60.84,-136.9C69.58,-124.27 81.12,-107.6 88.03,-97.63"/>
<polygon fill="midnightblue" stroke="midnightblue" points="57.88,-135.02 55.07,-145.23 63.64,-139 57.88,-135.02"/>
</g>
<!-- Node4 -->
<g id="node4" class="node">
<title>Node4</title>
<g id="a_node4"><a xlink:href="classPattern.html" target="_top" xlink:title=" ">
<polygon fill="none" stroke="black" points="23.5,-202.5 23.5,-221.5 74.5,-221.5 74.5,-202.5 23.5,-202.5"/>
<text text-anchor="middle" x="49" y="-209.5" font-family="Helvetica,sans-Serif" font-size="10.00">Pattern</text>
</a>
</g>
</g>
<!-- Node4&#45;&gt;Node3 -->
<g id="edge3" class="edge">
<title>Node4&#45;&gt;Node3</title>
<path fill="none" stroke="midnightblue" d="M49,-192.12C49,-182.82 49,-172.06 49,-164.71"/>
<polygon fill="midnightblue" stroke="midnightblue" points="45.5,-192.41 49,-202.41 52.5,-192.41 45.5,-192.41"/>
</g>
<!-- Node5 -->
<g id="node5" class="node">
<title>Node5</title>
<g id="a_node5"><a xlink:href="classColorset.html" target="_top" xlink:title=" ">
<polygon fill="none" stroke="black" points="20.5,-269.5 20.5,-288.5 77.5,-288.5 77.5,-269.5 20.5,-269.5"/>
<text text-anchor="middle" x="49" y="-276.5" font-family="Helvetica,sans-Serif" font-size="10.00">Colorset</text>
</a>
</g>
</g>
<!-- Node5&#45;&gt;Node4 -->
<g id="edge4" class="edge">
<title>Node5&#45;&gt;Node4</title>
<path fill="none" stroke="#9a32cd" stroke-dasharray="5,2" d="M49,-259.04C49,-246.67 49,-231.12 49,-221.63"/>
<polygon fill="#9a32cd" stroke="#9a32cd" points="45.5,-259.23 49,-269.23 52.5,-259.23 45.5,-259.23"/>
<text text-anchor="middle" x="78" y="-243" font-family="Helvetica,sans-Serif" font-size="10.00"> m_colorset</text>
</g>
<!-- Node6 -->
<g id="node6" class="node">
<title>Node6</title>
<g id="a_node6"><a xlink:href="classRGBColor.html" target="_top" xlink:title=" ">
<polygon fill="none" stroke="black" points="17.5,-336.5 17.5,-355.5 80.5,-355.5 80.5,-336.5 17.5,-336.5"/>
<text text-anchor="middle" x="49" y="-343.5" font-family="Helvetica,sans-Serif" font-size="10.00">RGBColor</text>
</a>
</g>
</g>
<!-- Node6&#45;&gt;Node5 -->
<g id="edge5" class="edge">
<title>Node6&#45;&gt;Node5</title>
<path fill="none" stroke="#9a32cd" stroke-dasharray="5,2" d="M49,-326.04C49,-313.67 49,-298.12 49,-288.63"/>
<polygon fill="#9a32cd" stroke="#9a32cd" points="45.5,-326.23 49,-336.23 52.5,-326.23 45.5,-326.23"/>
<text text-anchor="middle" x="75.5" y="-310" font-family="Helvetica,sans-Serif" font-size="10.00"> m_palette</text>
</g>
<!-- Node7 -->
<g id="node7" class="node">
<title>Node7</title>
<g id="a_node7"><a xlink:href="classTimer.html" target="_top" xlink:title=" ">
<polygon fill="none" stroke="black" points="116.5,-145.5 116.5,-164.5 161.5,-164.5 161.5,-145.5 116.5,-145.5"/>
<text text-anchor="middle" x="139" y="-152.5" font-family="Helvetica,sans-Serif" font-size="10.00">Timer</text>
</a>
</g>
</g>
<!-- Node7&#45;&gt;Node2 -->
<g id="edge6" class="edge">
<title>Node7&#45;&gt;Node2</title>
<path fill="none" stroke="#9a32cd" stroke-dasharray="5,2" d="M127.16,-136.9C118.42,-124.27 106.88,-107.6 99.97,-97.63"/>
<polygon fill="#9a32cd" stroke="#9a32cd" points="124.36,-139 132.93,-145.23 130.12,-135.02 124.36,-139"/>
<text text-anchor="middle" x="155.5" y="-119" font-family="Helvetica,sans-Serif" font-size="10.00"> m_blinkTimer</text>
</g>
<!-- Node8 -->
<g id="node8" class="node">
<title>Node8</title>
<g id="a_node8"><a xlink:href="classHSVColor.html" target="_top" xlink:title=" ">
<polygon fill="none" stroke="black" points="151,-78.5 151,-97.5 213,-97.5 213,-78.5 151,-78.5"/>
<text text-anchor="middle" x="182" y="-85.5" font-family="Helvetica,sans-Serif" font-size="10.00">HSVColor</text>
</a>
</g>
</g>
<!-- Node8&#45;&gt;Node1 -->
<g id="edge7" class="edge">
<title>Node8&#45;&gt;Node1</title>
<path fill="none" stroke="#9a32cd" stroke-dasharray="5,2" d="M171.91,-69.57C162.86,-53.95 149.98,-31.7 142.99,-19.62"/>
<polygon fill="#9a32cd" stroke="#9a32cd" points="168.91,-71.38 176.95,-78.28 174.97,-67.87 168.91,-71.38"/>
<text text-anchor="middle" x="183.5" y="-52" font-family="Helvetica,sans-Serif" font-size="10.00"> m_cur</text>
<text text-anchor="middle" x="183.5" y="-41" font-family="Helvetica,sans-Serif" font-size="10.00">m_next</text>
</g>
</g>
</svg>
