<?xml version="1.0" encoding="UTF-8" standalone="no"?>
<!DOCTYPE svg PUBLIC "-//W3C//DTD SVG 1.1//EN"
 "http://www.w3.org/Graphics/SVG/1.1/DTD/svg11.dtd">
<!-- Generated by graphviz version 2.43.0 (0)
 -->
<!-- Title: BlinkStepPattern Pages: 1 -->
<!--zoomable 484 -->
<svg id="main" version="1.1" xmlns="http://www.w3.org/2000/svg" xmlns:xlink="http://www.w3.org/1999/xlink" xml:space="preserve" onload="init(evt)">
<style type="text/css"><![CDATA[
.edge:hover path { stroke: red; }
.edge:hover polygon { stroke: red; fill: red; }
]]></style>
<script type="text/javascript"><![CDATA[
var edges = document.getElementsByTagName('g');
if (edges && edges.length) {
  for (var i=0;i<edges.length;i++) {
    if (edges[i].id.substr(0,4)=='edge') {
      edges[i].setAttribute('class','edge');
    }
  }
}
]]></script>
        <defs>
                <circle id="rim" cx="0" cy="0" r="7"/>
                <circle id="rim2" cx="0" cy="0" r="3.5"/>
                <g id="zoomPlus">
                        <use xlink:href="#rim" fill="#404040">
                                <set attributeName="fill" to="#808080" begin="zoomplus.mouseover" end="zoomplus.mouseout"/>
                        </use>
                        <path d="M-4,0h8M0,-4v8" fill="none" stroke="white" stroke-width="1.5" pointer-events="none"/>
                </g>
                <g id="zoomMin">
                        <use xlink:href="#rim" fill="#404040">
                                <set attributeName="fill" to="#808080" begin="zoomminus.mouseover" end="zoomminus.mouseout"/>
                        </use>
                        <path d="M-4,0h8" fill="none" stroke="white" stroke-width="1.5" pointer-events="none"/>
                </g>
                <g id="dirArrow">
                        <path fill="none" stroke="white" stroke-width="1.5" d="M0,-3.0v7 M-2.5,-0.5L0,-3.0L2.5,-0.5"/>
                </g>
               <g id="resetDef">
                       <use xlink:href="#rim2" fill="#404040">
                               <set attributeName="fill" to="#808080" begin="reset.mouseover" end="reset.mouseout"/>
                       </use>
               </g>
        </defs>

<script type="text/javascript">
var viewWidth = 477;
var viewHeight = 484;
var sectionId = 'dynsection-0';
</script>
<script xlink:href="svgpan.js"/>
<svg id="graph" class="graph">
<g id="viewport">
<title>BlinkStepPattern</title>
<!-- Node1 -->
<g id="node1" class="node">
<title>Node1</title>
<g id="a_node1"><a xlink:title=" ">
<polygon fill="#bfbfbf" stroke="black" points="216,-228.5 216,-247.5 314,-247.5 314,-228.5 216,-228.5"/>
<text text-anchor="middle" x="265" y="-235.5" font-family="Helvetica,sans-Serif" font-size="10.00">BlinkStepPattern</text>
</a>
</g>
</g>
<!-- Node4 -->
<g id="node4" class="node">
<title>Node4</title>
<g id="a_node4"><a xlink:href="classBouncePattern.html" target="_top" xlink:title=" ">
<polygon fill="none" stroke="black" points="366,-456.5 366,-475.5 453,-475.5 453,-456.5 366,-456.5"/>
<text text-anchor="middle" x="409.5" y="-463.5" font-family="Helvetica,sans-Serif" font-size="10.00">BouncePattern</text>
</a>
</g>
</g>
<!-- Node1&#45;&gt;Node4 -->
<g id="edge3" class="edge">
<title>Node1&#45;&gt;Node4</title>
<path fill="none" stroke="midnightblue" d="M268.4,-258.11C274.4,-299.46 293.84,-394.54 350,-447 354.53,-451.23 360,-454.52 365.77,-457.07"/>
<polygon fill="midnightblue" stroke="midnightblue" points="271.84,-257.4 267.05,-247.95 264.9,-258.32 271.84,-257.4"/>
</g>
<!-- Node5 -->
<g id="node5" class="node">
<title>Node5</title>
<g id="a_node5"><a xlink:href="classCrossDopsPattern.html" target="_top" xlink:title=" ">
<polygon fill="none" stroke="black" points="358,-418.5 358,-437.5 461,-437.5 461,-418.5 358,-418.5"/>
<text text-anchor="middle" x="409.5" y="-425.5" font-family="Helvetica,sans-Serif" font-size="10.00">CrossDopsPattern</text>
</a>
</g>
</g>
<!-- Node1&#45;&gt;Node5 -->
<g id="edge4" class="edge">
<title>Node1&#45;&gt;Node5</title>
<path fill="none" stroke="midnightblue" d="M270.35,-257.81C279.15,-293.27 302.41,-367.75 350,-409 354.44,-412.85 359.67,-415.92 365.15,-418.37"/>
<polygon fill="midnightblue" stroke="midnightblue" points="273.68,-256.69 267.99,-247.76 266.86,-258.29 273.68,-256.69"/>
</g>
<!-- Node6 -->
<g id="node6" class="node">
<title>Node6</title>
<g id="a_node6"><a xlink:href="classDoubleStrobePattern.html" target="_top" xlink:title=" ">
<polygon fill="none" stroke="black" points="351,-380.5 351,-399.5 468,-399.5 468,-380.5 351,-380.5"/>
<text text-anchor="middle" x="409.5" y="-387.5" font-family="Helvetica,sans-Serif" font-size="10.00">DoubleStrobePattern</text>
</a>
</g>
</g>
<!-- Node1&#45;&gt;Node6 -->
<g id="edge5" class="edge">
<title>Node1&#45;&gt;Node6</title>
<path fill="none" stroke="midnightblue" d="M273.05,-256.99C284.69,-285.8 310.63,-340.4 350,-371 354.97,-374.87 360.76,-377.96 366.73,-380.43"/>
<polygon fill="midnightblue" stroke="midnightblue" points="276.3,-255.69 269.41,-247.64 269.78,-258.23 276.3,-255.69"/>
</g>
<!-- Node7 -->
<g id="node7" class="node">
<title>Node7</title>
<g id="a_node7"><a xlink:href="classDripPattern.html" target="_top" xlink:title=" ">
<polygon fill="none" stroke="black" points="374,-342.5 374,-361.5 445,-361.5 445,-342.5 374,-342.5"/>
<text text-anchor="middle" x="409.5" y="-349.5" font-family="Helvetica,sans-Serif" font-size="10.00">DripPattern</text>
</a>
</g>
</g>
<!-- Node1&#45;&gt;Node7 -->
<g id="edge6" class="edge">
<title>Node1&#45;&gt;Node7</title>
<path fill="none" stroke="midnightblue" d="M277.51,-256.06C291.97,-277.37 318.73,-312.49 350,-333 357.14,-337.68 365.54,-341.3 373.7,-344.05"/>
<polygon fill="midnightblue" stroke="midnightblue" points="280.35,-254.02 271.92,-247.6 274.51,-257.87 280.35,-254.02"/>
</g>
<!-- Node8 -->
<g id="node8" class="node">
<title>Node8</title>
<g id="a_node8"><a xlink:href="classFillPattern.html" target="_top" xlink:title=" ">
<polygon fill="none" stroke="black" points="377,-304.5 377,-323.5 442,-323.5 442,-304.5 377,-304.5"/>
<text text-anchor="middle" x="409.5" y="-311.5" font-family="Helvetica,sans-Serif" font-size="10.00">FillPattern</text>
</a>
</g>
</g>
<!-- Node1&#45;&gt;Node8 -->
<g id="edge7" class="edge">
<title>Node1&#45;&gt;Node8</title>
<path fill="none" stroke="midnightblue" d="M286.12,-254.06C302.55,-266.55 326.76,-283.63 350,-295 358.44,-299.13 367.99,-302.67 376.89,-305.53"/>
<polygon fill="midnightblue" stroke="midnightblue" points="287.9,-251.01 277.86,-247.65 283.62,-256.54 287.9,-251.01"/>
</g>
<!-- Node9 -->
<g id="node9" class="node">
<title>Node9</title>
<g id="a_node9"><a xlink:href="classLighthousePattern.html" target="_top" xlink:title=" ">
<polygon fill="none" stroke="black" points="357.5,-266.5 357.5,-285.5 461.5,-285.5 461.5,-266.5 357.5,-266.5"/>
<text text-anchor="middle" x="409.5" y="-273.5" font-family="Helvetica,sans-Serif" font-size="10.00">LighthousePattern</text>
</a>
</g>
</g>
<!-- Node1&#45;&gt;Node9 -->
<g id="edge8" class="edge">
<title>Node1&#45;&gt;Node9</title>
<path fill="none" stroke="midnightblue" d="M311.65,-250.17C331.36,-255.43 354.07,-261.49 372.55,-266.41"/>
<polygon fill="midnightblue" stroke="midnightblue" points="312.52,-246.78 301.96,-247.59 310.72,-253.55 312.52,-246.78"/>
</g>
<!-- Node10 -->
<g id="node10" class="node">
<title>Node10</title>
<g id="a_node10"><a xlink:href="classMeteorPattern.html" target="_top" xlink:title=" ">
<polygon fill="none" stroke="black" points="366.5,-228.5 366.5,-247.5 452.5,-247.5 452.5,-228.5 366.5,-228.5"/>
<text text-anchor="middle" x="409.5" y="-235.5" font-family="Helvetica,sans-Serif" font-size="10.00">MeteorPattern</text>
</a>
</g>
</g>
<!-- Node1&#45;&gt;Node10 -->
<g id="edge9" class="edge">
<title>Node1&#45;&gt;Node10</title>
<path fill="none" stroke="midnightblue" d="M324.27,-238C338.25,-238 352.93,-238 366.03,-238"/>
<polygon fill="midnightblue" stroke="midnightblue" points="324.24,-234.5 314.24,-238 324.24,-241.5 324.24,-234.5"/>
</g>
<!-- Node11 -->
<g id="node11" class="node">
<title>Node11</title>
<g id="a_node11"><a xlink:href="classSnowballPattern.html" target="_top" xlink:title=" ">
<polygon fill="none" stroke="black" points="362,-190.5 362,-209.5 457,-209.5 457,-190.5 362,-190.5"/>
<text text-anchor="middle" x="409.5" y="-197.5" font-family="Helvetica,sans-Serif" font-size="10.00">SnowballPattern</text>
</a>
</g>
</g>
<!-- Node1&#45;&gt;Node11 -->
<g id="edge10" class="edge">
<title>Node1&#45;&gt;Node11</title>
<path fill="none" stroke="midnightblue" d="M311.65,-225.83C331.36,-220.57 354.07,-214.51 372.55,-209.59"/>
<polygon fill="midnightblue" stroke="midnightblue" points="310.72,-222.45 301.96,-228.41 312.52,-229.22 310.72,-222.45"/>
</g>
<!-- Node12 -->
<g id="node12" class="node">
<title>Node12</title>
<g id="a_node12"><a xlink:href="classSparkleTracePattern.html" target="_top" xlink:title=" ">
<polygon fill="none" stroke="black" points="353,-152.5 353,-171.5 466,-171.5 466,-152.5 353,-152.5"/>
<text text-anchor="middle" x="409.5" y="-159.5" font-family="Helvetica,sans-Serif" font-size="10.00">SparkleTracePattern</text>
</a>
</g>
</g>
<!-- Node1&#45;&gt;Node12 -->
<g id="edge11" class="edge">
<title>Node1&#45;&gt;Node12</title>
<path fill="none" stroke="midnightblue" d="M286.12,-221.94C302.55,-209.45 326.76,-192.37 350,-181 357.39,-177.39 365.62,-174.23 373.53,-171.58"/>
<polygon fill="midnightblue" stroke="midnightblue" points="283.62,-219.46 277.86,-228.35 287.9,-224.99 283.62,-219.46"/>
</g>
<!-- Node13 -->
<g id="node13" class="node">
<title>Node13</title>
<g id="a_node13"><a xlink:href="classTheaterChasePattern.html" target="_top" xlink:title=" ">
<polygon fill="none" stroke="black" points="350,-114.5 350,-133.5 469,-133.5 469,-114.5 350,-114.5"/>
<text text-anchor="middle" x="409.5" y="-121.5" font-family="Helvetica,sans-Serif" font-size="10.00">TheaterChasePattern</text>
</a>
</g>
</g>
<!-- Node1&#45;&gt;Node13 -->
<g id="edge12" class="edge">
<title>Node1&#45;&gt;Node13</title>
<path fill="none" stroke="midnightblue" d="M277.51,-219.94C291.97,-198.63 318.73,-163.51 350,-143 355.8,-139.19 362.43,-136.1 369.09,-133.59"/>
<polygon fill="midnightblue" stroke="midnightblue" points="274.51,-218.13 271.92,-228.4 280.35,-221.98 274.51,-218.13"/>
</g>
<!-- Node14 -->
<g id="node14" class="node">
<title>Node14</title>
<g id="a_node14"><a xlink:href="classVortexWipePattern.html" target="_top" xlink:title=" ">
<polygon fill="none" stroke="black" points="356,-76.5 356,-95.5 463,-95.5 463,-76.5 356,-76.5"/>
<text text-anchor="middle" x="409.5" y="-83.5" font-family="Helvetica,sans-Serif" font-size="10.00">VortexWipePattern</text>
</a>
</g>
</g>
<!-- Node1&#45;&gt;Node14 -->
<g id="edge13" class="edge">
<title>Node1&#45;&gt;Node14</title>
<path fill="none" stroke="midnightblue" d="M273.05,-219.01C284.69,-190.2 310.63,-135.6 350,-105 354.97,-101.13 360.76,-98.04 366.73,-95.57"/>
<polygon fill="midnightblue" stroke="midnightblue" points="269.78,-217.77 269.41,-228.36 276.3,-220.31 269.78,-217.77"/>
</g>
<!-- Node15 -->
<g id="node15" class="node">
<title>Node15</title>
<g id="a_node15"><a xlink:href="classWarpPattern.html" target="_top" xlink:title=" ">
<polygon fill="none" stroke="black" points="371.5,-38.5 371.5,-57.5 447.5,-57.5 447.5,-38.5 371.5,-38.5"/>
<text text-anchor="middle" x="409.5" y="-45.5" font-family="Helvetica,sans-Serif" font-size="10.00">WarpPattern</text>
</a>
</g>
</g>
<!-- Node1&#45;&gt;Node15 -->
<g id="edge14" class="edge">
<title>Node1&#45;&gt;Node15</title>
<path fill="none" stroke="midnightblue" d="M270.35,-218.19C279.15,-182.73 302.41,-108.25 350,-67 356.05,-61.75 363.58,-57.95 371.2,-55.2"/>
<polygon fill="midnightblue" stroke="midnightblue" points="266.86,-217.71 267.99,-228.24 273.68,-219.31 266.86,-217.71"/>
</g>
<!-- Node16 -->
<g id="node16" class="node">
<title>Node16</title>
<g id="a_node16"><a xlink:href="classWarpWormPattern.html" target="_top" xlink:title=" ">
<polygon fill="none" stroke="black" points="357.5,-0.5 357.5,-19.5 461.5,-19.5 461.5,-0.5 357.5,-0.5"/>
<text text-anchor="middle" x="409.5" y="-7.5" font-family="Helvetica,sans-Serif" font-size="10.00">WarpWormPattern</text>
</a>
</g>
</g>
<!-- Node1&#45;&gt;Node16 -->
<g id="edge15" class="edge">
<title>Node1&#45;&gt;Node16</title>
<path fill="none" stroke="midnightblue" d="M268.4,-217.89C274.4,-176.54 293.84,-81.46 350,-29 354.14,-25.14 359.07,-22.06 364.29,-19.61"/>
<polygon fill="midnightblue" stroke="midnightblue" points="264.9,-217.68 267.05,-228.05 271.84,-218.6 264.9,-217.68"/>
</g>
<!-- Node2 -->
<g id="node2" class="node">
<title>Node2</title>
<g id="a_node2"><a xlink:href="classMultiLedPattern.html" target="_top" xlink:title=" ">
<polygon fill="none" stroke="black" points="87,-228.5 87,-247.5 180,-247.5 180,-228.5 87,-228.5"/>
<text text-anchor="middle" x="133.5" y="-235.5" font-family="Helvetica,sans-Serif" font-size="10.00">MultiLedPattern</text>
</a>
</g>
</g>
<!-- Node2&#45;&gt;Node1 -->
<g id="edge1" class="edge">
<title>Node2&#45;&gt;Node1</title>
<path fill="none" stroke="midnightblue" d="M190.32,-238C198.76,-238 207.41,-238 215.68,-238"/>
<polygon fill="midnightblue" stroke="midnightblue" points="190.16,-234.5 180.16,-238 190.16,-241.5 190.16,-234.5"/>
</g>
<!-- Node3 -->
<g id="node3" class="node">
<title>Node3</title>
<g id="a_node3"><a xlink:href="classPattern.html" target="_top" xlink:title=" ">
<polygon fill="none" stroke="black" points="0,-228.5 0,-247.5 51,-247.5 51,-228.5 0,-228.5"/>
<text text-anchor="middle" x="25.5" y="-235.5" font-family="Helvetica,sans-Serif" font-size="10.00">Pattern</text>
</a>
</g>
</g>
<!-- Node3&#45;&gt;Node2 -->
<g id="edge2" class="edge">
<title>Node3&#45;&gt;Node2</title>
<path fill="none" stroke="midnightblue" d="M61.34,-238C69.48,-238 78.28,-238 86.82,-238"/>
<polygon fill="midnightblue" stroke="midnightblue" points="61.08,-234.5 51.08,-238 61.08,-241.5 61.08,-234.5"/>
</g>
</g>
</svg>
        <g id="navigator" transform="translate(0 0)" fill="#404254">
                <rect fill="#f2f5e9" fill-opacity="0.5" stroke="#606060" stroke-width=".5" x="0" y="0" width="60" height="60"/>
                <use id="zoomplus" xlink:href="#zoomPlus" x="17" y="9" onmousedown="handleZoom(evt,'in')"/>
                <use id="zoomminus" xlink:href="#zoomMin" x="42" y="9" onmousedown="handleZoom(evt,'out')"/>
                <use id="reset" xlink:href="#resetDef" x="30" y="36" onmousedown="handleReset()"/>
                <g id="arrowUp" xlink:href="#dirArrow" transform="translate(30 24)" onmousedown="handlePan(0,-1)">
                  <use xlink:href="#rim" fill="#404040">
                        <set attributeName="fill" to="#808080" begin="arrowUp.mouseover" end="arrowUp.mouseout"/>
                  </use>
                  <path fill="none" stroke="white" stroke-width="1.5" d="M0,-3.0v7 M-2.5,-0.5L0,-3.0L2.5,-0.5"/>
                </g>
                <g id="arrowRight" xlink:href="#dirArrow" transform="rotate(90) translate(36 -43)" onmousedown="handlePan(1,0)">
                  <use xlink:href="#rim" fill="#404040">
                        <set attributeName="fill" to="#808080" begin="arrowRight.mouseover" end="arrowRight.mouseout"/>
                  </use>
                  <path fill="none" stroke="white" stroke-width="1.5" d="M0,-3.0v7 M-2.5,-0.5L0,-3.0L2.5,-0.5"/>
                </g>
                <g id="arrowDown" xlink:href="#dirArrow" transform="rotate(180) translate(-30 -48)" onmousedown="handlePan(0,1)">
                  <use xlink:href="#rim" fill="#404040">
                        <set attributeName="fill" to="#808080" begin="arrowDown.mouseover" end="arrowDown.mouseout"/>
                  </use>
                  <path fill="none" stroke="white" stroke-width="1.5" d="M0,-3.0v7 M-2.5,-0.5L0,-3.0L2.5,-0.5"/>
                </g>
                <g id="arrowLeft" xlink:href="#dirArrow" transform="rotate(270) translate(-36 17)" onmousedown="handlePan(-1,0)">
                  <use xlink:href="#rim" fill="#404040">
                        <set attributeName="fill" to="#808080" begin="arrowLeft.mouseover" end="arrowLeft.mouseout"/>
                  </use>
                  <path fill="none" stroke="white" stroke-width="1.5" d="M0,-3.0v7 M-2.5,-0.5L0,-3.0L2.5,-0.5"/>
                </g>
        </g>
        <svg viewBox="0 0 15 15" width="100%" height="30px" preserveAspectRatio="xMaxYMin meet">
         <g id="arrow_out" transform="scale(0.3 0.3)">
          <a xlink:href="classBlinkStepPattern__inherit__graph_org.svg" target="_base">
           <rect id="button" ry="5" rx="5" y="6" x="6" height="38" width="38"
                fill="#f2f5e9" fill-opacity="0.5" stroke="#606060" stroke-width="1.0"/>
           <path id="arrow"
             d="M 11.500037,31.436501 C 11.940474,20.09759 22.043105,11.32322 32.158766,21.979434 L 37.068811,17.246167 C 37.068811,17.246167 37.088388,32 37.088388,32 L 22.160133,31.978069 C 22.160133,31.978069 26.997745,27.140456 26.997745,27.140456 C 18.528582,18.264221 13.291696,25.230495 11.500037,31.436501 z"
             style="fill:#404040;"/>
          </a>
         </g>
        </svg>
</svg>
