<?xml version="1.0" encoding="UTF-8" standalone="no"?>
<!DOCTYPE svg PUBLIC "-//W3C//DTD SVG 1.1//EN"
 "http://www.w3.org/Graphics/SVG/1.1/DTD/svg11.dtd">
<!-- Generated by graphviz version 2.43.0 (0)
 -->
<!-- Title: VortexEngine/src/Patterns/Multi/DripMorphPattern.cpp Pages: 1 -->
<svg width="814pt" height="431pt"
 viewBox="0.00 0.00 814.21 431.00" xmlns="http://www.w3.org/2000/svg" xmlns:xlink="http://www.w3.org/1999/xlink">
<g id="graph0" class="graph" transform="scale(1 1) rotate(0) translate(4 427)">
<title>VortexEngine/src/Patterns/Multi/DripMorphPattern.cpp</title>
<!-- Node1 -->
<g id="node1" class="node">
<title>Node1</title>
<g id="a_node1"><a xlink:title=" ">
<polygon fill="#bfbfbf" stroke="black" points="312,-392.5 312,-422.5 465,-422.5 465,-392.5 312,-392.5"/>
<text text-anchor="start" x="320" y="-410.5" font-family="Helvetica,sans-Serif" font-size="10.00">VortexEngine/src/Patterns</text>
<text text-anchor="middle" x="388.5" y="-399.5" font-family="Helvetica,sans-Serif" font-size="10.00">/Multi/DripMorphPattern.cpp</text>
</a>
</g>
</g>
<!-- Node2 -->
<g id="node2" class="node">
<title>Node2</title>
<g id="a_node2"><a xlink:href="DripMorphPattern_8h.html" target="_top" xlink:title=" ">
<polygon fill="none" stroke="black" points="211,-336.5 211,-355.5 322,-355.5 322,-336.5 211,-336.5"/>
<text text-anchor="middle" x="266.5" y="-343.5" font-family="Helvetica,sans-Serif" font-size="10.00">DripMorphPattern.h</text>
</a>
</g>
</g>
<!-- Node1&#45;&gt;Node2 -->
<g id="edge1" class="edge">
<title>Node1&#45;&gt;Node2</title>
<path fill="none" stroke="midnightblue" d="M359.59,-392.4C339.48,-382.59 312.88,-369.62 293.26,-360.05"/>
<polygon fill="midnightblue" stroke="midnightblue" points="294.77,-356.9 284.25,-355.66 291.71,-363.19 294.77,-356.9"/>
</g>
<!-- Node17 -->
<g id="node17" class="node">
<title>Node17</title>
<g id="a_node17"><a xlink:href="ByteStream_8h.html" target="_top" xlink:title=" ">
<polygon fill="none" stroke="black" points="378.5,-224.5 378.5,-243.5 510.5,-243.5 510.5,-224.5 378.5,-224.5"/>
<text text-anchor="middle" x="444.5" y="-231.5" font-family="Helvetica,sans-Serif" font-size="10.00">../../Serial/ByteStream.h</text>
</a>
</g>
</g>
<!-- Node1&#45;&gt;Node17 -->
<g id="edge28" class="edge">
<title>Node1&#45;&gt;Node17</title>
<path fill="none" stroke="midnightblue" d="M393.08,-392.47C403.17,-361.57 427.3,-287.69 438.54,-253.25"/>
<polygon fill="midnightblue" stroke="midnightblue" points="441.93,-254.15 441.7,-243.56 435.27,-251.98 441.93,-254.15"/>
</g>
<!-- Node18 -->
<g id="node18" class="node">
<title>Node18</title>
<g id="a_node18"><a xlink:href="Log_8h.html" target="_top" xlink:title=" ">
<polygon fill="none" stroke="black" points="646.5,-168.5 646.5,-187.5 718.5,-187.5 718.5,-168.5 646.5,-168.5"/>
<text text-anchor="middle" x="682.5" y="-175.5" font-family="Helvetica,sans-Serif" font-size="10.00">../Log/Log.h</text>
</a>
</g>
</g>
<!-- Node1&#45;&gt;Node18 -->
<g id="edge40" class="edge">
<title>Node1&#45;&gt;Node18</title>
<path fill="none" stroke="midnightblue" d="M421.73,-392.48C475.02,-368.64 580.4,-315.71 647.5,-244 660.2,-230.43 669.74,-211.37 675.63,-197.4"/>
<polygon fill="midnightblue" stroke="midnightblue" points="678.97,-198.47 679.41,-187.88 672.47,-195.89 678.97,-198.47"/>
</g>
<!-- Node20 -->
<g id="node20" class="node">
<title>Node20</title>
<g id="a_node20"><a xlink:href="Leds_8h.html" target="_top" xlink:title=" ">
<polygon fill="none" stroke="black" points="304.5,-168.5 304.5,-187.5 396.5,-187.5 396.5,-168.5 304.5,-168.5"/>
<text text-anchor="middle" x="350.5" y="-175.5" font-family="Helvetica,sans-Serif" font-size="10.00">../../Leds/Leds.h</text>
</a>
</g>
</g>
<!-- Node1&#45;&gt;Node20 -->
<g id="edge36" class="edge">
<title>Node1&#45;&gt;Node20</title>
<path fill="none" stroke="midnightblue" d="M386.12,-392.27C379.55,-352.89 361.1,-242.49 353.67,-197.97"/>
<polygon fill="midnightblue" stroke="midnightblue" points="357.09,-197.21 351.99,-187.93 350.19,-198.37 357.09,-197.21"/>
</g>
<!-- Node3 -->
<g id="node3" class="node">
<title>Node3</title>
<g id="a_node3"><a xlink:href="MultiLedPattern_8h.html" target="_top" xlink:title=" ">
<polygon fill="none" stroke="black" points="136.5,-280.5 136.5,-299.5 238.5,-299.5 238.5,-280.5 136.5,-280.5"/>
<text text-anchor="middle" x="187.5" y="-287.5" font-family="Helvetica,sans-Serif" font-size="10.00">MultiLedPattern.h</text>
</a>
</g>
</g>
<!-- Node2&#45;&gt;Node3 -->
<g id="edge2" class="edge">
<title>Node2&#45;&gt;Node3</title>
<path fill="none" stroke="midnightblue" d="M253.81,-336.32C241.6,-327.98 222.92,-315.21 208.5,-305.35"/>
<polygon fill="midnightblue" stroke="midnightblue" points="210.39,-302.41 200.16,-299.65 206.44,-308.19 210.39,-302.41"/>
</g>
<!-- Node14 -->
<g id="node14" class="node">
<title>Node14</title>
<g id="a_node14"><a xlink:href="Timer_8h.html" target="_top" xlink:title=" ">
<polygon fill="none" stroke="black" points="111,-168.5 111,-187.5 210,-187.5 210,-168.5 111,-168.5"/>
<text text-anchor="middle" x="160.5" y="-175.5" font-family="Helvetica,sans-Serif" font-size="10.00">../../Time/Timer.h</text>
</a>
</g>
</g>
<!-- Node2&#45;&gt;Node14 -->
<g id="edge19" class="edge">
<title>Node2&#45;&gt;Node14</title>
<path fill="none" stroke="midnightblue" d="M265.98,-336.47C264.31,-315.33 257.45,-259.67 230.5,-224 220.24,-210.42 204.6,-199.81 190.7,-192.31"/>
<polygon fill="midnightblue" stroke="midnightblue" points="191.95,-189.02 181.45,-187.62 188.78,-195.26 191.95,-189.02"/>
</g>
<!-- Node15 -->
<g id="node15" class="node">
<title>Node15</title>
<g id="a_node15"><a xlink:href="Timings_8h.html" target="_top" xlink:title=" ">
<polygon fill="none" stroke="black" points="528.5,-224.5 528.5,-243.5 638.5,-243.5 638.5,-224.5 528.5,-224.5"/>
<text text-anchor="middle" x="583.5" y="-231.5" font-family="Helvetica,sans-Serif" font-size="10.00">../../Time/Timings.h</text>
</a>
</g>
</g>
<!-- Node2&#45;&gt;Node15 -->
<g id="edge22" class="edge">
<title>Node2&#45;&gt;Node15</title>
<path fill="none" stroke="midnightblue" d="M291.11,-336.46C347.17,-317.01 484.49,-269.36 548.99,-246.98"/>
<polygon fill="midnightblue" stroke="midnightblue" points="550.39,-250.2 558.69,-243.61 548.09,-243.58 550.39,-250.2"/>
</g>
<!-- Node4 -->
<g id="node4" class="node">
<title>Node4</title>
<g id="a_node4"><a xlink:href="Pattern_8h.html" target="_top" xlink:title=" ">
<polygon fill="none" stroke="black" points="153,-224.5 153,-243.5 222,-243.5 222,-224.5 153,-224.5"/>
<text text-anchor="middle" x="187.5" y="-231.5" font-family="Helvetica,sans-Serif" font-size="10.00">../Pattern.h</text>
</a>
</g>
</g>
<!-- Node3&#45;&gt;Node4 -->
<g id="edge3" class="edge">
<title>Node3&#45;&gt;Node4</title>
<path fill="none" stroke="midnightblue" d="M187.5,-280.08C187.5,-273.01 187.5,-262.86 187.5,-253.99"/>
<polygon fill="midnightblue" stroke="midnightblue" points="191,-253.75 187.5,-243.75 184,-253.75 191,-253.75"/>
</g>
<!-- Node5 -->
<g id="node5" class="node">
<title>Node5</title>
<g id="a_node5"><a xlink:href="LedTypes_8h.html" target="_top" xlink:title=" ">
<polygon fill="none" stroke="black" points="298,-112.5 298,-131.5 403,-131.5 403,-112.5 298,-112.5"/>
<text text-anchor="middle" x="350.5" y="-119.5" font-family="Helvetica,sans-Serif" font-size="10.00">../Leds/LedTypes.h</text>
</a>
</g>
</g>
<!-- Node4&#45;&gt;Node5 -->
<g id="edge4" class="edge">
<title>Node4&#45;&gt;Node5</title>
<path fill="none" stroke="midnightblue" d="M200.29,-224.37C228.26,-205.49 295.1,-160.38 329.4,-137.24"/>
<polygon fill="midnightblue" stroke="midnightblue" points="331.44,-140.09 337.77,-131.59 327.52,-134.28 331.44,-140.09"/>
</g>
<!-- Node10 -->
<g id="node10" class="node">
<title>Node10</title>
<g id="a_node10"><a xlink:href="Colorset_8h.html" target="_top" xlink:title=" ">
<polygon fill="none" stroke="black" points="519,-168.5 519,-187.5 628,-187.5 628,-168.5 519,-168.5"/>
<text text-anchor="middle" x="573.5" y="-175.5" font-family="Helvetica,sans-Serif" font-size="10.00">../Colors/Colorset.h</text>
</a>
</g>
</g>
<!-- Node4&#45;&gt;Node10 -->
<g id="edge9" class="edge">
<title>Node4&#45;&gt;Node10</title>
<path fill="none" stroke="midnightblue" d="M222.29,-228.15C279.61,-220.15 397.78,-203.66 508.67,-188.12"/>
<polygon fill="midnightblue" stroke="midnightblue" points="509.27,-191.57 518.69,-186.71 508.3,-184.63 509.27,-191.57"/>
</g>
<!-- Node12 -->
<g id="node12" class="node">
<title>Node12</title>
<g id="a_node12"><a xlink:href="Patterns_8h.html" target="_top" xlink:title=" ">
<polygon fill="none" stroke="black" points="0,-112.5 0,-131.5 65,-131.5 65,-112.5 0,-112.5"/>
<text text-anchor="middle" x="32.5" y="-119.5" font-family="Helvetica,sans-Serif" font-size="10.00">Patterns.h</text>
</a>
</g>
</g>
<!-- Node4&#45;&gt;Node12 -->
<g id="edge15" class="edge">
<title>Node4&#45;&gt;Node12</title>
<path fill="none" stroke="midnightblue" d="M164.05,-224.39C144.43,-216.57 116.24,-203.85 94.5,-188 75.3,-174 56.99,-153.64 45.31,-139.45"/>
<polygon fill="midnightblue" stroke="midnightblue" points="47.94,-137.13 38.95,-131.52 42.48,-141.51 47.94,-137.13"/>
</g>
<!-- Node13 -->
<g id="node13" class="node">
<title>Node13</title>
<g id="a_node13"><a xlink:href="PatternArgs_8h.html" target="_top" xlink:title=" ">
<polygon fill="none" stroke="black" points="83.5,-112.5 83.5,-131.5 165.5,-131.5 165.5,-112.5 83.5,-112.5"/>
<text text-anchor="middle" x="124.5" y="-119.5" font-family="Helvetica,sans-Serif" font-size="10.00">PatternArgs.h</text>
</a>
</g>
</g>
<!-- Node4&#45;&gt;Node13 -->
<g id="edge17" class="edge">
<title>Node4&#45;&gt;Node13</title>
<path fill="none" stroke="midnightblue" d="M153.32,-224.49C134.51,-217.88 112.76,-206.6 101.5,-188 92.35,-172.88 101.4,-153.58 110.71,-139.95"/>
<polygon fill="midnightblue" stroke="midnightblue" points="113.52,-142.03 116.67,-131.91 107.9,-137.86 113.52,-142.03"/>
</g>
<!-- Node6 -->
<g id="node6" class="node">
<title>Node6</title>
<g id="a_node6"><a xlink:title=" ">
<polygon fill="none" stroke="#bfbfbf" points="237,-56.5 237,-75.5 302,-75.5 302,-56.5 237,-56.5"/>
<text text-anchor="middle" x="269.5" y="-63.5" font-family="Helvetica,sans-Serif" font-size="10.00">inttypes.h</text>
</a>
</g>
</g>
<!-- Node5&#45;&gt;Node6 -->
<g id="edge5" class="edge">
<title>Node5&#45;&gt;Node6</title>
<path fill="none" stroke="midnightblue" d="M337.49,-112.32C324.97,-103.98 305.82,-91.21 291.03,-81.35"/>
<polygon fill="midnightblue" stroke="midnightblue" points="292.74,-78.29 282.48,-75.65 288.86,-84.11 292.74,-78.29"/>
</g>
<!-- Node7 -->
<g id="node7" class="node">
<title>Node7</title>
<g id="a_node7"><a xlink:title=" ">
<polygon fill="none" stroke="#bfbfbf" points="368.5,-56.5 368.5,-75.5 424.5,-75.5 424.5,-56.5 368.5,-56.5"/>
<text text-anchor="middle" x="396.5" y="-63.5" font-family="Helvetica,sans-Serif" font-size="10.00">stdarg.h</text>
</a>
</g>
</g>
<!-- Node5&#45;&gt;Node7 -->
<g id="edge6" class="edge">
<title>Node5&#45;&gt;Node7</title>
<path fill="none" stroke="midnightblue" d="M358.1,-112.08C364.73,-104.3 374.52,-92.8 382.56,-83.37"/>
<polygon fill="midnightblue" stroke="midnightblue" points="385.23,-85.63 389.05,-75.75 379.9,-81.09 385.23,-85.63"/>
</g>
<!-- Node8 -->
<g id="node8" class="node">
<title>Node8</title>
<g id="a_node8"><a xlink:href="VortexConfig_8h.html" target="_top" xlink:title=" ">
<polygon fill="none" stroke="black" points="625,-56.5 625,-75.5 722,-75.5 722,-56.5 625,-56.5"/>
<text text-anchor="middle" x="673.5" y="-63.5" font-family="Helvetica,sans-Serif" font-size="10.00">../VortexConfig.h</text>
</a>
</g>
</g>
<!-- Node5&#45;&gt;Node8 -->
<g id="edge7" class="edge">
<title>Node5&#45;&gt;Node8</title>
<path fill="none" stroke="midnightblue" d="M401.68,-112.44C459.61,-102.76 553.82,-87.01 614.71,-76.83"/>
<polygon fill="midnightblue" stroke="midnightblue" points="615.65,-80.22 624.94,-75.12 614.5,-73.32 615.65,-80.22"/>
</g>
<!-- Node9 -->
<g id="node9" class="node">
<title>Node9</title>
<g id="a_node9"><a xlink:href="ColorConstants_8h.html" target="_top" xlink:title=" ">
<polygon fill="none" stroke="black" points="506.5,-0.5 506.5,-19.5 640.5,-19.5 640.5,-0.5 506.5,-0.5"/>
<text text-anchor="middle" x="573.5" y="-7.5" font-family="Helvetica,sans-Serif" font-size="10.00">Colors/ColorConstants.h</text>
</a>
</g>
</g>
<!-- Node8&#45;&gt;Node9 -->
<g id="edge8" class="edge">
<title>Node8&#45;&gt;Node9</title>
<path fill="none" stroke="midnightblue" d="M657.43,-56.32C641.54,-47.74 616.99,-34.49 598.54,-24.52"/>
<polygon fill="midnightblue" stroke="midnightblue" points="599.99,-21.33 589.53,-19.65 596.66,-27.49 599.99,-21.33"/>
</g>
<!-- Node10&#45;&gt;Node8 -->
<g id="edge14" class="edge">
<title>Node10&#45;&gt;Node8</title>
<path fill="none" stroke="midnightblue" d="M618.02,-168.48C667.15,-158.63 740.4,-142.44 748.5,-132 764.84,-110.93 734.02,-91.58 707.08,-79.57"/>
<polygon fill="midnightblue" stroke="midnightblue" points="708.37,-76.32 697.8,-75.64 705.64,-82.76 708.37,-76.32"/>
</g>
<!-- Node11 -->
<g id="node11" class="node">
<title>Node11</title>
<g id="a_node11"><a xlink:href="ColorTypes_8h.html" target="_top" xlink:title=" ">
<polygon fill="none" stroke="black" points="460,-112.5 460,-131.5 539,-131.5 539,-112.5 460,-112.5"/>
<text text-anchor="middle" x="499.5" y="-119.5" font-family="Helvetica,sans-Serif" font-size="10.00">ColorTypes.h</text>
</a>
</g>
</g>
<!-- Node10&#45;&gt;Node11 -->
<g id="edge10" class="edge">
<title>Node10&#45;&gt;Node11</title>
<path fill="none" stroke="midnightblue" d="M561.61,-168.32C550.35,-160.11 533.21,-147.6 519.79,-137.81"/>
<polygon fill="midnightblue" stroke="midnightblue" points="521.75,-134.9 511.61,-131.83 517.62,-140.56 521.75,-134.9"/>
</g>
<!-- Node11&#45;&gt;Node6 -->
<g id="edge11" class="edge">
<title>Node11&#45;&gt;Node6</title>
<path fill="none" stroke="midnightblue" d="M463.06,-112.44C422.01,-102.81 355.4,-87.17 312.02,-76.98"/>
<polygon fill="midnightblue" stroke="midnightblue" points="312.59,-73.52 302.05,-74.64 310.99,-80.34 312.59,-73.52"/>
</g>
<!-- Node11&#45;&gt;Node8 -->
<g id="edge12" class="edge">
<title>Node11&#45;&gt;Node8</title>
<path fill="none" stroke="midnightblue" d="M527.07,-112.44C556.6,-103.28 603.62,-88.69 636.38,-78.52"/>
<polygon fill="midnightblue" stroke="midnightblue" points="637.54,-81.82 646.06,-75.52 635.47,-75.14 637.54,-81.82"/>
</g>
<!-- Node11&#45;&gt;Node9 -->
<g id="edge13" class="edge">
<title>Node11&#45;&gt;Node9</title>
<path fill="none" stroke="midnightblue" d="M505.31,-112.37C517.52,-94.22 546.05,-51.8 562.07,-27.99"/>
<polygon fill="midnightblue" stroke="midnightblue" points="565.04,-29.84 567.72,-19.59 559.23,-25.94 565.04,-29.84"/>
</g>
<!-- Node12&#45;&gt;Node6 -->
<g id="edge16" class="edge">
<title>Node12&#45;&gt;Node6</title>
<path fill="none" stroke="midnightblue" d="M65.45,-113.49C107.55,-103.9 180.49,-87.28 226.8,-76.73"/>
<polygon fill="midnightblue" stroke="midnightblue" points="227.85,-80.08 236.83,-74.44 226.3,-73.25 227.85,-80.08"/>
</g>
<!-- Node13&#45;&gt;Node6 -->
<g id="edge18" class="edge">
<title>Node13&#45;&gt;Node6</title>
<path fill="none" stroke="midnightblue" d="M147.48,-112.44C171.66,-103.44 209.92,-89.19 237.15,-79.05"/>
<polygon fill="midnightblue" stroke="midnightblue" points="238.48,-82.29 246.63,-75.52 236.04,-75.73 238.48,-82.29"/>
</g>
<!-- Node14&#45;&gt;Node5 -->
<g id="edge21" class="edge">
<title>Node14&#45;&gt;Node5</title>
<path fill="none" stroke="midnightblue" d="M190.61,-168.44C223.13,-159.2 275.08,-144.44 310.89,-134.26"/>
<polygon fill="midnightblue" stroke="midnightblue" points="311.87,-137.62 320.53,-131.52 309.96,-130.88 311.87,-137.62"/>
</g>
<!-- Node14&#45;&gt;Node6 -->
<g id="edge20" class="edge">
<title>Node14&#45;&gt;Node6</title>
<path fill="none" stroke="midnightblue" d="M167.52,-168.25C177.94,-155.44 198.33,-131.04 217.5,-112 228.09,-101.48 240.73,-90.51 250.9,-82.03"/>
<polygon fill="midnightblue" stroke="midnightblue" points="253.27,-84.62 258.76,-75.56 248.82,-79.21 253.27,-84.62"/>
</g>
<!-- Node15&#45;&gt;Node8 -->
<g id="edge27" class="edge">
<title>Node15&#45;&gt;Node8</title>
<path fill="none" stroke="midnightblue" d="M638.61,-226.58C692.97,-216.82 772.2,-192.45 802.5,-132 819.1,-98.9 773.63,-82.36 732.17,-74.28"/>
<polygon fill="midnightblue" stroke="midnightblue" points="732.78,-70.84 722.31,-72.5 731.53,-77.73 732.78,-70.84"/>
</g>
<!-- Node16 -->
<g id="node16" class="node">
<title>Node16</title>
<g id="a_node16"><a xlink:href="TimeControl_8h.html" target="_top" xlink:title=" ">
<polygon fill="none" stroke="black" points="414.5,-168.5 414.5,-187.5 500.5,-187.5 500.5,-168.5 414.5,-168.5"/>
<text text-anchor="middle" x="457.5" y="-175.5" font-family="Helvetica,sans-Serif" font-size="10.00">TimeControl.h</text>
</a>
</g>
</g>
<!-- Node15&#45;&gt;Node16 -->
<g id="edge23" class="edge">
<title>Node15&#45;&gt;Node16</title>
<path fill="none" stroke="midnightblue" d="M563.53,-224.44C542.89,-215.6 510.44,-201.69 486.87,-191.59"/>
<polygon fill="midnightblue" stroke="midnightblue" points="487.94,-188.24 477.37,-187.52 485.18,-194.67 487.94,-188.24"/>
</g>
<!-- Node16&#45;&gt;Node5 -->
<g id="edge26" class="edge">
<title>Node16&#45;&gt;Node5</title>
<path fill="none" stroke="midnightblue" d="M440.31,-168.32C423.15,-159.66 396.55,-146.24 376.75,-136.25"/>
<polygon fill="midnightblue" stroke="midnightblue" points="378.15,-133.04 367.65,-131.65 375,-139.28 378.15,-133.04"/>
</g>
<!-- Node16&#45;&gt;Node6 -->
<g id="edge24" class="edge">
<title>Node16&#45;&gt;Node6</title>
<path fill="none" stroke="midnightblue" d="M453.86,-168.47C447.49,-154.6 433.05,-127.14 412.5,-112 382.85,-90.15 342.29,-78.71 311.94,-72.84"/>
<polygon fill="midnightblue" stroke="midnightblue" points="312.53,-69.39 302.06,-71.06 311.28,-76.28 312.53,-69.39"/>
</g>
<!-- Node16&#45;&gt;Node8 -->
<g id="edge25" class="edge">
<title>Node16&#45;&gt;Node8</title>
<path fill="none" stroke="midnightblue" d="M500.61,-169.62C563.06,-158.72 671.89,-138.87 677.5,-132 687.98,-119.16 685.14,-99.7 680.81,-85.42"/>
<polygon fill="midnightblue" stroke="midnightblue" points="684.01,-83.98 677.39,-75.71 677.41,-86.3 684.01,-83.98"/>
</g>
<!-- Node17&#45;&gt;Node6 -->
<g id="edge29" class="edge">
<title>Node17&#45;&gt;Node6</title>
<path fill="none" stroke="midnightblue" d="M378.2,-226.18C349.71,-220.19 317.89,-208.97 295.5,-188 267.23,-161.53 265.88,-112.35 267.56,-85.56"/>
<polygon fill="midnightblue" stroke="midnightblue" points="271.05,-85.84 268.39,-75.58 264.07,-85.26 271.05,-85.84"/>
</g>
<!-- Node17&#45;&gt;Node18 -->
<g id="edge30" class="edge">
<title>Node17&#45;&gt;Node18</title>
<path fill="none" stroke="midnightblue" d="M482.21,-224.44C524.01,-214.96 591.43,-199.66 636.35,-189.47"/>
<polygon fill="midnightblue" stroke="midnightblue" points="637.16,-192.88 646.14,-187.25 635.61,-186.05 637.16,-192.88"/>
</g>
<!-- Node18&#45;&gt;Node7 -->
<g id="edge31" class="edge">
<title>Node18&#45;&gt;Node7</title>
<path fill="none" stroke="midnightblue" d="M684.88,-168.1C688.02,-154.19 691.61,-127.32 677.5,-112 645.42,-77.18 503.87,-69.27 434.75,-67.5"/>
<polygon fill="midnightblue" stroke="midnightblue" points="434.78,-64 424.7,-67.27 434.62,-71 434.78,-64"/>
</g>
<!-- Node18&#45;&gt;Node8 -->
<g id="edge32" class="edge">
<title>Node18&#45;&gt;Node8</title>
<path fill="none" stroke="midnightblue" d="M718.71,-169.56C756.12,-160.12 806.46,-141.43 786.5,-112 774.02,-93.59 752.68,-82.72 731.89,-76.29"/>
<polygon fill="midnightblue" stroke="midnightblue" points="732.66,-72.87 722.08,-73.56 730.78,-79.61 732.66,-72.87"/>
</g>
<!-- Node19 -->
<g id="node19" class="node">
<title>Node19</title>
<g id="a_node19"><a xlink:href="ErrorBlinker_8h.html" target="_top" xlink:title=" ">
<polygon fill="none" stroke="black" points="557,-112.5 557,-131.5 668,-131.5 668,-112.5 557,-112.5"/>
<text text-anchor="middle" x="612.5" y="-119.5" font-family="Helvetica,sans-Serif" font-size="10.00">../Log/ErrorBlinker.h</text>
</a>
</g>
</g>
<!-- Node18&#45;&gt;Node19 -->
<g id="edge33" class="edge">
<title>Node18&#45;&gt;Node19</title>
<path fill="none" stroke="midnightblue" d="M671.25,-168.32C660.7,-160.18 644.7,-147.84 632.06,-138.09"/>
<polygon fill="midnightblue" stroke="midnightblue" points="634.01,-135.17 623.95,-131.83 629.73,-140.71 634.01,-135.17"/>
</g>
<!-- Node19&#45;&gt;Node6 -->
<g id="edge34" class="edge">
<title>Node19&#45;&gt;Node6</title>
<path fill="none" stroke="midnightblue" d="M558.15,-112.44C489.98,-101.71 374.49,-83.53 312.26,-73.73"/>
<polygon fill="midnightblue" stroke="midnightblue" points="312.81,-70.28 302.38,-72.18 311.72,-77.19 312.81,-70.28"/>
</g>
<!-- Node19&#45;&gt;Node8 -->
<g id="edge35" class="edge">
<title>Node19&#45;&gt;Node8</title>
<path fill="none" stroke="midnightblue" d="M622.3,-112.32C631.32,-104.34 644.91,-92.31 655.82,-82.65"/>
<polygon fill="midnightblue" stroke="midnightblue" points="658.35,-85.08 663.52,-75.83 653.71,-79.84 658.35,-85.08"/>
</g>
<!-- Node20&#45;&gt;Node5 -->
<g id="edge39" class="edge">
<title>Node20&#45;&gt;Node5</title>
<path fill="none" stroke="midnightblue" d="M350.5,-168.08C350.5,-161.01 350.5,-150.86 350.5,-141.99"/>
<polygon fill="midnightblue" stroke="midnightblue" points="354,-141.75 350.5,-131.75 347,-141.75 354,-141.75"/>
</g>
<!-- Node20&#45;&gt;Node6 -->
<g id="edge37" class="edge">
<title>Node20&#45;&gt;Node6</title>
<path fill="none" stroke="midnightblue" d="M333.38,-168.37C319.65,-160.61 300.84,-147.99 289.5,-132 279.79,-118.31 274.7,-99.77 272.09,-86"/>
<polygon fill="midnightblue" stroke="midnightblue" points="275.48,-85.07 270.43,-75.76 268.57,-86.19 275.48,-85.07"/>
</g>
<!-- Node20&#45;&gt;Node11 -->
<g id="edge38" class="edge">
<title>Node20&#45;&gt;Node11</title>
<path fill="none" stroke="midnightblue" d="M374.11,-168.44C398.96,-159.44 438.27,-145.19 466.25,-135.05"/>
<polygon fill="midnightblue" stroke="midnightblue" points="467.79,-138.21 476,-131.52 465.41,-131.63 467.79,-138.21"/>
</g>
</g>
</svg>
