<?xml version="1.0" encoding="UTF-8" standalone="no"?>
<!DOCTYPE svg PUBLIC "-//W3C//DTD SVG 1.1//EN"
 "http://www.w3.org/Graphics/SVG/1.1/DTD/svg11.dtd">
<!-- Generated by graphviz version 2.43.0 (0)
 -->
<!-- Title: VortexEngine/src/Modes/Modes.h Pages: 1 -->
<!--zoomable 319 -->
<svg id="main" version="1.1" xmlns="http://www.w3.org/2000/svg" xmlns:xlink="http://www.w3.org/1999/xlink" xml:space="preserve" onload="init(evt)">
<style type="text/css"><![CDATA[
.edge:hover path { stroke: red; }
.edge:hover polygon { stroke: red; fill: red; }
]]></style>
<script type="text/javascript"><![CDATA[
var edges = document.getElementsByTagName('g');
if (edges && edges.length) {
  for (var i=0;i<edges.length;i++) {
    if (edges[i].id.substr(0,4)=='edge') {
      edges[i].setAttribute('class','edge');
    }
  }
}
]]></script>
        <defs>
                <circle id="rim" cx="0" cy="0" r="7"/>
                <circle id="rim2" cx="0" cy="0" r="3.5"/>
                <g id="zoomPlus">
                        <use xlink:href="#rim" fill="#404040">
                                <set attributeName="fill" to="#808080" begin="zoomplus.mouseover" end="zoomplus.mouseout"/>
                        </use>
                        <path d="M-4,0h8M0,-4v8" fill="none" stroke="white" stroke-width="1.5" pointer-events="none"/>
                </g>
                <g id="zoomMin">
                        <use xlink:href="#rim" fill="#404040">
                                <set attributeName="fill" to="#808080" begin="zoomminus.mouseover" end="zoomminus.mouseout"/>
                        </use>
                        <path d="M-4,0h8" fill="none" stroke="white" stroke-width="1.5" pointer-events="none"/>
                </g>
                <g id="dirArrow">
                        <path fill="none" stroke="white" stroke-width="1.5" d="M0,-3.0v7 M-2.5,-0.5L0,-3.0L2.5,-0.5"/>
                </g>
               <g id="resetDef">
                       <use xlink:href="#rim2" fill="#404040">
                               <set attributeName="fill" to="#808080" begin="reset.mouseover" end="reset.mouseout"/>
                       </use>
               </g>
        </defs>

<script type="text/javascript">
var viewWidth = 595;
var viewHeight = 319;
var sectionId = 'dynsection-0';
</script>
<script xlink:href="svgpan.js"/>
<svg id="graph" class="graph">
<g id="viewport">
<title>VortexEngine/src/Modes/Modes.h</title>
<!-- Node1 -->
<g id="node1" class="node">
<title>Node1</title>
<g id="a_node1"><a xlink:title=" ">
<polygon fill="#bfbfbf" stroke="black" points="227.17,-280.5 227.17,-310.5 361.17,-310.5 361.17,-280.5 227.17,-280.5"/>
<text text-anchor="start" x="235.17" y="-298.5" font-family="Helvetica,sans-Serif" font-size="10.00">VortexEngine/src/Modes</text>
<text text-anchor="middle" x="294.17" y="-287.5" font-family="Helvetica,sans-Serif" font-size="10.00">/Modes.h</text>
</a>
</g>
</g>
<!-- Node2 -->
<g id="node2" class="node">
<title>Node2</title>
<g id="a_node2"><a xlink:href="ByteStream_8h.html" target="_top" xlink:title=" ">
<polygon fill="none" stroke="black" points="275.67,-224.5 275.67,-243.5 398.67,-243.5 398.67,-224.5 275.67,-224.5"/>
<text text-anchor="middle" x="337.17" y="-231.5" font-family="Helvetica,sans-Serif" font-size="10.00">../Serial/ByteStream.h</text>
</a>
</g>
</g>
<!-- Node1&#45;&gt;Node2 -->
<g id="edge1" class="edge">
<title>Node1&#45;&gt;Node2</title>
<path fill="none" stroke="midnightblue" d="M304.36,-280.4C310.55,-271.84 318.48,-260.87 324.99,-251.86"/>
<polygon fill="midnightblue" stroke="midnightblue" points="327.9,-253.81 330.92,-243.66 322.22,-249.71 327.9,-253.81"/>
</g>
<!-- Node3 -->
<g id="node3" class="node">
<title>Node3</title>
<g id="a_node3"><a xlink:title=" ">
<polygon fill="none" stroke="#bfbfbf" points="388.67,-56.5 388.67,-75.5 453.67,-75.5 453.67,-56.5 388.67,-56.5"/>
<text text-anchor="middle" x="421.17" y="-63.5" font-family="Helvetica,sans-Serif" font-size="10.00">inttypes.h</text>
</a>
</g>
</g>
<!-- Node1&#45;&gt;Node3 -->
<g id="edge24" class="edge">
<title>Node1&#45;&gt;Node3</title>
<path fill="none" stroke="midnightblue" d="M361.44,-290.6C428.83,-285.12 525.83,-272.42 549.17,-244 571.76,-216.51 629.4,-236.87 529.17,-112 513.06,-91.92 486.43,-80.7 463.64,-74.48"/>
<polygon fill="midnightblue" stroke="midnightblue" points="464.38,-71.05 453.83,-72.03 462.69,-77.84 464.38,-71.05"/>
</g>
<!-- Node6 -->
<g id="node6" class="node">
<title>Node6</title>
<g id="a_node6"><a xlink:href="VortexConfig_8h.html" target="_top" xlink:title=" ">
<polygon fill="none" stroke="black" points="112.67,-56.5 112.67,-75.5 209.67,-75.5 209.67,-56.5 112.67,-56.5"/>
<text text-anchor="middle" x="161.17" y="-63.5" font-family="Helvetica,sans-Serif" font-size="10.00">../VortexConfig.h</text>
</a>
</g>
</g>
<!-- Node1&#45;&gt;Node6 -->
<g id="edge23" class="edge">
<title>Node1&#45;&gt;Node6</title>
<path fill="none" stroke="midnightblue" d="M235.27,-280.49C166.13,-260.54 54.64,-216.6 5.17,-132 -18.62,-91.31 48.88,-76.09 102.47,-70.4"/>
<polygon fill="midnightblue" stroke="midnightblue" points="103.01,-73.86 112.62,-69.41 102.33,-66.9 103.01,-73.86"/>
</g>
<!-- Node9 -->
<g id="node9" class="node">
<title>Node9</title>
<g id="a_node9"><a xlink:href="ColorTypes_8h.html" target="_top" xlink:title=" ">
<polygon fill="none" stroke="black" points="14.17,-112.5 14.17,-131.5 136.17,-131.5 136.17,-112.5 14.17,-112.5"/>
<text text-anchor="middle" x="75.17" y="-119.5" font-family="Helvetica,sans-Serif" font-size="10.00">../Colors/ColorTypes.h</text>
</a>
</g>
</g>
<!-- Node1&#45;&gt;Node9 -->
<g id="edge10" class="edge">
<title>Node1&#45;&gt;Node9</title>
<path fill="none" stroke="midnightblue" d="M276.25,-280.47C235.43,-248.5 135.86,-170.52 94.1,-137.82"/>
<polygon fill="midnightblue" stroke="midnightblue" points="96.14,-134.97 86.1,-131.56 91.82,-140.48 96.14,-134.97"/>
</g>
<!-- Node10 -->
<g id="node10" class="node">
<title>Node10</title>
<g id="a_node10"><a xlink:href="Patterns_8h.html" target="_top" xlink:title=" ">
<polygon fill="none" stroke="black" points="422.67,-224.5 422.67,-243.5 539.67,-243.5 539.67,-224.5 422.67,-224.5"/>
<text text-anchor="middle" x="481.17" y="-231.5" font-family="Helvetica,sans-Serif" font-size="10.00">../Patterns/Patterns.h</text>
</a>
</g>
</g>
<!-- Node1&#45;&gt;Node10 -->
<g id="edge14" class="edge">
<title>Node1&#45;&gt;Node10</title>
<path fill="none" stroke="midnightblue" d="M338.49,-280.4C370.8,-270.12 414.07,-256.35 444.46,-246.68"/>
<polygon fill="midnightblue" stroke="midnightblue" points="445.77,-249.94 454.24,-243.57 443.65,-243.27 445.77,-249.94"/>
</g>
<!-- Node11 -->
<g id="node11" class="node">
<title>Node11</title>
<g id="a_node11"><a xlink:href="Leds_8h.html" target="_top" xlink:title=" ">
<polygon fill="none" stroke="black" points="192.67,-168.5 192.67,-187.5 275.67,-187.5 275.67,-168.5 192.67,-168.5"/>
<text text-anchor="middle" x="234.17" y="-175.5" font-family="Helvetica,sans-Serif" font-size="10.00">../Leds/Leds.h</text>
</a>
</g>
</g>
<!-- Node1&#45;&gt;Node11 -->
<g id="edge16" class="edge">
<title>Node1&#45;&gt;Node11</title>
<path fill="none" stroke="midnightblue" d="M286.14,-280.45C280.44,-270.37 272.68,-256.44 266.17,-244 257.99,-228.35 249.15,-210.3 242.84,-197.2"/>
<polygon fill="midnightblue" stroke="midnightblue" points="245.86,-195.41 238.39,-187.9 239.55,-198.43 245.86,-195.41"/>
</g>
<!-- Node2&#45;&gt;Node3 -->
<g id="edge2" class="edge">
<title>Node2&#45;&gt;Node3</title>
<path fill="none" stroke="midnightblue" d="M347.8,-224.39C366.42,-208.5 404.21,-172.47 417.17,-132 421.98,-117.01 422.74,-99.1 422.43,-85.88"/>
<polygon fill="midnightblue" stroke="midnightblue" points="425.92,-85.49 421.97,-75.66 418.93,-85.81 425.92,-85.49"/>
</g>
<!-- Node4 -->
<g id="node4" class="node">
<title>Node4</title>
<g id="a_node4"><a xlink:href="Log_8h.html" target="_top" xlink:title=" ">
<polygon fill="none" stroke="black" points="301.17,-168.5 301.17,-187.5 373.17,-187.5 373.17,-168.5 301.17,-168.5"/>
<text text-anchor="middle" x="337.17" y="-175.5" font-family="Helvetica,sans-Serif" font-size="10.00">../Log/Log.h</text>
</a>
</g>
</g>
<!-- Node2&#45;&gt;Node4 -->
<g id="edge3" class="edge">
<title>Node2&#45;&gt;Node4</title>
<path fill="none" stroke="midnightblue" d="M337.17,-224.08C337.17,-217.01 337.17,-206.86 337.17,-197.99"/>
<polygon fill="midnightblue" stroke="midnightblue" points="340.67,-197.75 337.17,-187.75 333.67,-197.75 340.67,-197.75"/>
</g>
<!-- Node5 -->
<g id="node5" class="node">
<title>Node5</title>
<g id="a_node5"><a xlink:title=" ">
<polygon fill="none" stroke="#bfbfbf" points="273.17,-56.5 273.17,-75.5 329.17,-75.5 329.17,-56.5 273.17,-56.5"/>
<text text-anchor="middle" x="301.17" y="-63.5" font-family="Helvetica,sans-Serif" font-size="10.00">stdarg.h</text>
</a>
</g>
</g>
<!-- Node4&#45;&gt;Node5 -->
<g id="edge4" class="edge">
<title>Node4&#45;&gt;Node5</title>
<path fill="none" stroke="midnightblue" d="M357.27,-168.39C381.19,-156.85 416.14,-135.14 401.17,-112 387.55,-90.93 361.44,-79.62 339.32,-73.62"/>
<polygon fill="midnightblue" stroke="midnightblue" points="340.04,-70.19 329.5,-71.21 338.38,-76.99 340.04,-70.19"/>
</g>
<!-- Node4&#45;&gt;Node6 -->
<g id="edge5" class="edge">
<title>Node4&#45;&gt;Node6</title>
<path fill="none" stroke="midnightblue" d="M301.08,-170.44C261.11,-162.51 200.06,-148.19 183.17,-132 170.69,-120.03 165.29,-100.73 162.95,-86.26"/>
<polygon fill="midnightblue" stroke="midnightblue" points="166.38,-85.42 161.66,-75.93 159.43,-86.29 166.38,-85.42"/>
</g>
<!-- Node8 -->
<g id="node8" class="node">
<title>Node8</title>
<g id="a_node8"><a xlink:href="ErrorBlinker_8h.html" target="_top" xlink:title=" ">
<polygon fill="none" stroke="black" points="281.67,-112.5 281.67,-131.5 392.67,-131.5 392.67,-112.5 281.67,-112.5"/>
<text text-anchor="middle" x="337.17" y="-119.5" font-family="Helvetica,sans-Serif" font-size="10.00">../Log/ErrorBlinker.h</text>
</a>
</g>
</g>
<!-- Node4&#45;&gt;Node8 -->
<g id="edge7" class="edge">
<title>Node4&#45;&gt;Node8</title>
<path fill="none" stroke="midnightblue" d="M337.17,-168.08C337.17,-161.01 337.17,-150.86 337.17,-141.99"/>
<polygon fill="midnightblue" stroke="midnightblue" points="340.67,-141.75 337.17,-131.75 333.67,-141.75 340.67,-141.75"/>
</g>
<!-- Node7 -->
<g id="node7" class="node">
<title>Node7</title>
<g id="a_node7"><a xlink:href="ColorConstants_8h.html" target="_top" xlink:title=" ">
<polygon fill="none" stroke="black" points="49.17,-0.5 49.17,-19.5 183.17,-19.5 183.17,-0.5 49.17,-0.5"/>
<text text-anchor="middle" x="116.17" y="-7.5" font-family="Helvetica,sans-Serif" font-size="10.00">Colors/ColorConstants.h</text>
</a>
</g>
</g>
<!-- Node6&#45;&gt;Node7 -->
<g id="edge6" class="edge">
<title>Node6&#45;&gt;Node7</title>
<path fill="none" stroke="midnightblue" d="M153.74,-56.08C147.32,-48.38 137.87,-37.03 130.05,-27.65"/>
<polygon fill="midnightblue" stroke="midnightblue" points="132.56,-25.19 123.47,-19.75 127.18,-29.67 132.56,-25.19"/>
</g>
<!-- Node8&#45;&gt;Node3 -->
<g id="edge8" class="edge">
<title>Node8&#45;&gt;Node3</title>
<path fill="none" stroke="midnightblue" d="M350.67,-112.32C363.77,-103.9 383.89,-90.97 399.28,-81.07"/>
<polygon fill="midnightblue" stroke="midnightblue" points="401.19,-84.01 407.71,-75.65 397.41,-78.12 401.19,-84.01"/>
</g>
<!-- Node8&#45;&gt;Node6 -->
<g id="edge9" class="edge">
<title>Node8&#45;&gt;Node6</title>
<path fill="none" stroke="midnightblue" d="M309.29,-112.44C279.42,-103.28 231.86,-88.69 198.72,-78.52"/>
<polygon fill="midnightblue" stroke="midnightblue" points="199.52,-75.1 188.93,-75.52 197.47,-81.8 199.52,-75.1"/>
</g>
<!-- Node9&#45;&gt;Node3 -->
<g id="edge11" class="edge">
<title>Node9&#45;&gt;Node3</title>
<path fill="none" stroke="midnightblue" d="M130,-112.44C198.95,-101.68 315.88,-83.43 378.53,-73.66"/>
<polygon fill="midnightblue" stroke="midnightblue" points="379.13,-77.1 388.47,-72.1 378.05,-70.19 379.13,-77.1"/>
</g>
<!-- Node9&#45;&gt;Node6 -->
<g id="edge12" class="edge">
<title>Node9&#45;&gt;Node6</title>
<path fill="none" stroke="midnightblue" d="M88.99,-112.32C102.41,-103.9 123,-90.97 138.76,-81.07"/>
<polygon fill="midnightblue" stroke="midnightblue" points="140.78,-83.94 147.39,-75.65 137.06,-78.01 140.78,-83.94"/>
</g>
<!-- Node9&#45;&gt;Node7 -->
<g id="edge13" class="edge">
<title>Node9&#45;&gt;Node7</title>
<path fill="none" stroke="midnightblue" d="M78.39,-112.37C85.04,-94.54 100.41,-53.3 109.36,-29.27"/>
<polygon fill="midnightblue" stroke="midnightblue" points="112.76,-30.18 112.97,-19.59 106.2,-27.74 112.76,-30.18"/>
</g>
<!-- Node10&#45;&gt;Node3 -->
<g id="edge15" class="edge">
<title>Node10&#45;&gt;Node3</title>
<path fill="none" stroke="midnightblue" d="M489.39,-224.18C496.72,-215.66 506.93,-202.02 511.17,-188 520.96,-155.67 528.93,-140.73 511.17,-112 500.64,-94.95 481.46,-84.14 463.51,-77.41"/>
<polygon fill="midnightblue" stroke="midnightblue" points="464.32,-73.99 453.73,-74.07 462.06,-80.61 464.32,-73.99"/>
</g>
<!-- Node11&#45;&gt;Node3 -->
<g id="edge17" class="edge">
<title>Node11&#45;&gt;Node3</title>
<path fill="none" stroke="midnightblue" d="M275.72,-170.51C319.13,-162.93 383.35,-149.2 401.17,-132 413.64,-119.97 418.39,-100.37 420.17,-85.83"/>
<polygon fill="midnightblue" stroke="midnightblue" points="423.69,-85.76 421.05,-75.5 416.71,-85.17 423.69,-85.76"/>
</g>
<!-- Node11&#45;&gt;Node9 -->
<g id="edge18" class="edge">
<title>Node11&#45;&gt;Node9</title>
<path fill="none" stroke="midnightblue" d="M208.98,-168.44C182.23,-159.36 139.77,-144.94 109.87,-134.78"/>
<polygon fill="midnightblue" stroke="midnightblue" points="110.84,-131.42 100.25,-131.52 108.59,-138.05 110.84,-131.42"/>
</g>
<!-- Node12 -->
<g id="node12" class="node">
<title>Node12</title>
<g id="a_node12"><a xlink:href="LedTypes_8h.html" target="_top" xlink:title=" ">
<polygon fill="none" stroke="black" points="192.67,-112.5 192.67,-131.5 263.67,-131.5 263.67,-112.5 192.67,-112.5"/>
<text text-anchor="middle" x="228.17" y="-119.5" font-family="Helvetica,sans-Serif" font-size="10.00">LedTypes.h</text>
</a>
</g>
</g>
<!-- Node11&#45;&gt;Node12 -->
<g id="edge19" class="edge">
<title>Node11&#45;&gt;Node12</title>
<path fill="none" stroke="midnightblue" d="M233.18,-168.08C232.39,-160.93 231.24,-150.64 230.25,-141.69"/>
<polygon fill="midnightblue" stroke="midnightblue" points="233.73,-141.3 229.15,-131.75 226.77,-142.08 233.73,-141.3"/>
</g>
<!-- Node12&#45;&gt;Node3 -->
<g id="edge20" class="edge">
<title>Node12&#45;&gt;Node3</title>
<path fill="none" stroke="midnightblue" d="M258.76,-112.44C291.79,-103.2 344.56,-88.44 380.94,-78.26"/>
<polygon fill="midnightblue" stroke="midnightblue" points="382.05,-81.58 390.74,-75.52 380.16,-74.84 382.05,-81.58"/>
</g>
<!-- Node12&#45;&gt;Node5 -->
<g id="edge21" class="edge">
<title>Node12&#45;&gt;Node5</title>
<path fill="none" stroke="midnightblue" d="M239.9,-112.32C251.01,-104.11 267.92,-91.6 281.16,-81.81"/>
<polygon fill="midnightblue" stroke="midnightblue" points="283.27,-84.59 289.23,-75.83 279.11,-78.97 283.27,-84.59"/>
</g>
<!-- Node12&#45;&gt;Node6 -->
<g id="edge22" class="edge">
<title>Node12&#45;&gt;Node6</title>
<path fill="none" stroke="midnightblue" d="M217.41,-112.32C207.41,-104.26 192.29,-92.08 180.24,-82.37"/>
<polygon fill="midnightblue" stroke="midnightblue" points="182.12,-79.38 172.13,-75.83 177.72,-84.83 182.12,-79.38"/>
</g>
</g>
</svg>
        <g id="navigator" transform="translate(0 0)" fill="#404254">
                <rect fill="#f2f5e9" fill-opacity="0.5" stroke="#606060" stroke-width=".5" x="0" y="0" width="60" height="60"/>
                <use id="zoomplus" xlink:href="#zoomPlus" x="17" y="9" onmousedown="handleZoom(evt,'in')"/>
                <use id="zoomminus" xlink:href="#zoomMin" x="42" y="9" onmousedown="handleZoom(evt,'out')"/>
                <use id="reset" xlink:href="#resetDef" x="30" y="36" onmousedown="handleReset()"/>
                <g id="arrowUp" xlink:href="#dirArrow" transform="translate(30 24)" onmousedown="handlePan(0,-1)">
                  <use xlink:href="#rim" fill="#404040">
                        <set attributeName="fill" to="#808080" begin="arrowUp.mouseover" end="arrowUp.mouseout"/>
                  </use>
                  <path fill="none" stroke="white" stroke-width="1.5" d="M0,-3.0v7 M-2.5,-0.5L0,-3.0L2.5,-0.5"/>
                </g>
                <g id="arrowRight" xlink:href="#dirArrow" transform="rotate(90) translate(36 -43)" onmousedown="handlePan(1,0)">
                  <use xlink:href="#rim" fill="#404040">
                        <set attributeName="fill" to="#808080" begin="arrowRight.mouseover" end="arrowRight.mouseout"/>
                  </use>
                  <path fill="none" stroke="white" stroke-width="1.5" d="M0,-3.0v7 M-2.5,-0.5L0,-3.0L2.5,-0.5"/>
                </g>
                <g id="arrowDown" xlink:href="#dirArrow" transform="rotate(180) translate(-30 -48)" onmousedown="handlePan(0,1)">
                  <use xlink:href="#rim" fill="#404040">
                        <set attributeName="fill" to="#808080" begin="arrowDown.mouseover" end="arrowDown.mouseout"/>
                  </use>
                  <path fill="none" stroke="white" stroke-width="1.5" d="M0,-3.0v7 M-2.5,-0.5L0,-3.0L2.5,-0.5"/>
                </g>
                <g id="arrowLeft" xlink:href="#dirArrow" transform="rotate(270) translate(-36 17)" onmousedown="handlePan(-1,0)">
                  <use xlink:href="#rim" fill="#404040">
                        <set attributeName="fill" to="#808080" begin="arrowLeft.mouseover" end="arrowLeft.mouseout"/>
                  </use>
                  <path fill="none" stroke="white" stroke-width="1.5" d="M0,-3.0v7 M-2.5,-0.5L0,-3.0L2.5,-0.5"/>
                </g>
        </g>
        <svg viewBox="0 0 15 15" width="100%" height="30px" preserveAspectRatio="xMaxYMin meet">
         <g id="arrow_out" transform="scale(0.3 0.3)">
          <a xlink:href="Modes_8h__incl_org.svg" target="_base">
           <rect id="button" ry="5" rx="5" y="6" x="6" height="38" width="38"
                fill="#f2f5e9" fill-opacity="0.5" stroke="#606060" stroke-width="1.0"/>
           <path id="arrow"
             d="M 11.500037,31.436501 C 11.940474,20.09759 22.043105,11.32322 32.158766,21.979434 L 37.068811,17.246167 C 37.068811,17.246167 37.088388,32 37.088388,32 L 22.160133,31.978069 C 22.160133,31.978069 26.997745,27.140456 26.997745,27.140456 C 18.528582,18.264221 13.291696,25.230495 11.500037,31.436501 z"
             style="fill:#404040;"/>
          </a>
         </g>
        </svg>
</svg>
