<?xml version="1.0" encoding="UTF-8" standalone="no"?>
<!DOCTYPE svg PUBLIC "-//W3C//DTD SVG 1.1//EN"
 "http://www.w3.org/Graphics/SVG/1.1/DTD/svg11.dtd">
<!-- Generated by graphviz version 2.43.0 (0)
 -->
<!-- Title: VortexEngine/src/Time/Timer.cpp Pages: 1 -->
<!--zoomable 263 -->
<svg id="main" version="1.1" xmlns="http://www.w3.org/2000/svg" xmlns:xlink="http://www.w3.org/1999/xlink" xml:space="preserve" onload="init(evt)">
<style type="text/css"><![CDATA[
.edge:hover path { stroke: red; }
.edge:hover polygon { stroke: red; fill: red; }
]]></style>
<script type="text/javascript"><![CDATA[
var edges = document.getElementsByTagName('g');
if (edges && edges.length) {
  for (var i=0;i<edges.length;i++) {
    if (edges[i].id.substr(0,4)=='edge') {
      edges[i].setAttribute('class','edge');
    }
  }
}
]]></script>
        <defs>
                <circle id="rim" cx="0" cy="0" r="7"/>
                <circle id="rim2" cx="0" cy="0" r="3.5"/>
                <g id="zoomPlus">
                        <use xlink:href="#rim" fill="#404040">
                                <set attributeName="fill" to="#808080" begin="zoomplus.mouseover" end="zoomplus.mouseout"/>
                        </use>
                        <path d="M-4,0h8M0,-4v8" fill="none" stroke="white" stroke-width="1.5" pointer-events="none"/>
                </g>
                <g id="zoomMin">
                        <use xlink:href="#rim" fill="#404040">
                                <set attributeName="fill" to="#808080" begin="zoomminus.mouseover" end="zoomminus.mouseout"/>
                        </use>
                        <path d="M-4,0h8" fill="none" stroke="white" stroke-width="1.5" pointer-events="none"/>
                </g>
                <g id="dirArrow">
                        <path fill="none" stroke="white" stroke-width="1.5" d="M0,-3.0v7 M-2.5,-0.5L0,-3.0L2.5,-0.5"/>
                </g>
               <g id="resetDef">
                       <use xlink:href="#rim2" fill="#404040">
                               <set attributeName="fill" to="#808080" begin="reset.mouseover" end="reset.mouseout"/>
                       </use>
               </g>
        </defs>

<script type="text/javascript">
var viewWidth = 540;
var viewHeight = 263;
var sectionId = 'dynsection-0';
</script>
<script xlink:href="svgpan.js"/>
<svg id="graph" class="graph">
<g id="viewport">
<title>VortexEngine/src/Time/Timer.cpp</title>
<!-- Node1 -->
<g id="node1" class="node">
<title>Node1</title>
<g id="a_node1"><a xlink:title=" ">
<polygon fill="#bfbfbf" stroke="black" points="181.22,-224.5 181.22,-254.5 307.22,-254.5 307.22,-224.5 181.22,-224.5"/>
<text text-anchor="start" x="189.22" y="-242.5" font-family="Helvetica,sans-Serif" font-size="10.00">VortexEngine/src/Time</text>
<text text-anchor="middle" x="244.22" y="-231.5" font-family="Helvetica,sans-Serif" font-size="10.00">/Timer.cpp</text>
</a>
</g>
</g>
<!-- Node2 -->
<g id="node2" class="node">
<title>Node2</title>
<g id="a_node2"><a xlink:href="Timer_8h.html" target="_top" xlink:title=" ">
<polygon fill="none" stroke="black" points="72.72,-168.5 72.72,-187.5 125.72,-187.5 125.72,-168.5 72.72,-168.5"/>
<text text-anchor="middle" x="99.22" y="-175.5" font-family="Helvetica,sans-Serif" font-size="10.00">Timer.h</text>
</a>
</g>
</g>
<!-- Node1&#45;&gt;Node2 -->
<g id="edge1" class="edge">
<title>Node1&#45;&gt;Node2</title>
<path fill="none" stroke="midnightblue" d="M209.86,-224.4C185.53,-214.42 153.19,-201.15 129.76,-191.53"/>
<polygon fill="midnightblue" stroke="midnightblue" points="130.9,-188.22 120.32,-187.66 128.24,-194.69 130.9,-188.22"/>
</g>
<!-- Node8 -->
<g id="node8" class="node">
<title>Node8</title>
<g id="a_node8"><a xlink:href="TimeControl_8h.html" target="_top" xlink:title=" ">
<polygon fill="none" stroke="black" points="153.22,-168.5 153.22,-187.5 239.22,-187.5 239.22,-168.5 153.22,-168.5"/>
<text text-anchor="middle" x="196.22" y="-175.5" font-family="Helvetica,sans-Serif" font-size="10.00">TimeControl.h</text>
</a>
</g>
</g>
<!-- Node1&#45;&gt;Node8 -->
<g id="edge8" class="edge">
<title>Node1&#45;&gt;Node8</title>
<path fill="none" stroke="midnightblue" d="M232.84,-224.4C225.87,-215.75 216.91,-204.64 209.59,-195.58"/>
<polygon fill="midnightblue" stroke="midnightblue" points="212.21,-193.24 203.2,-187.66 206.76,-197.64 212.21,-193.24"/>
</g>
<!-- Node9 -->
<g id="node9" class="node">
<title>Node9</title>
<g id="a_node9"><a xlink:href="Memory_8h.html" target="_top" xlink:title=" ">
<polygon fill="none" stroke="black" points="414.72,-112.5 414.72,-131.5 531.72,-131.5 531.72,-112.5 414.72,-112.5"/>
<text text-anchor="middle" x="473.22" y="-119.5" font-family="Helvetica,sans-Serif" font-size="10.00">../Memory/Memory.h</text>
</a>
</g>
</g>
<!-- Node1&#45;&gt;Node9 -->
<g id="edge12" class="edge">
<title>Node1&#45;&gt;Node9</title>
<path fill="none" stroke="midnightblue" d="M272.3,-224.34C317.05,-201.77 403.89,-157.97 447.27,-136.09"/>
<polygon fill="midnightblue" stroke="midnightblue" points="448.97,-139.15 456.32,-131.52 445.82,-132.9 448.97,-139.15"/>
</g>
<!-- Node11 -->
<g id="node11" class="node">
<title>Node11</title>
<g id="a_node11"><a xlink:href="Log_8h.html" target="_top" xlink:title=" ">
<polygon fill="none" stroke="black" points="261.22,-168.5 261.22,-187.5 333.22,-187.5 333.22,-168.5 261.22,-168.5"/>
<text text-anchor="middle" x="297.22" y="-175.5" font-family="Helvetica,sans-Serif" font-size="10.00">../Log/Log.h</text>
</a>
</g>
</g>
<!-- Node1&#45;&gt;Node11 -->
<g id="edge16" class="edge">
<title>Node1&#45;&gt;Node11</title>
<path fill="none" stroke="midnightblue" d="M256.78,-224.4C264.56,-215.66 274.58,-204.41 282.7,-195.3"/>
<polygon fill="midnightblue" stroke="midnightblue" points="285.47,-197.45 289.51,-187.66 280.24,-192.8 285.47,-197.45"/>
</g>
<!-- Node3 -->
<g id="node3" class="node">
<title>Node3</title>
<g id="a_node3"><a xlink:title=" ">
<polygon fill="none" stroke="#bfbfbf" points="66.72,-56.5 66.72,-75.5 131.72,-75.5 131.72,-56.5 66.72,-56.5"/>
<text text-anchor="middle" x="99.22" y="-63.5" font-family="Helvetica,sans-Serif" font-size="10.00">inttypes.h</text>
</a>
</g>
</g>
<!-- Node2&#45;&gt;Node3 -->
<g id="edge2" class="edge">
<title>Node2&#45;&gt;Node3</title>
<path fill="none" stroke="midnightblue" d="M72.71,-172.47C50.17,-167.06 19.15,-155.59 4.22,-132 -12,-106.37 24.42,-88.28 56.75,-77.8"/>
<polygon fill="midnightblue" stroke="midnightblue" points="58.05,-81.06 66.59,-74.79 56.01,-74.37 58.05,-81.06"/>
</g>
<!-- Node4 -->
<g id="node4" class="node">
<title>Node4</title>
<g id="a_node4"><a xlink:href="LedTypes_8h.html" target="_top" xlink:title=" ">
<polygon fill="none" stroke="black" points="46.72,-112.5 46.72,-131.5 151.72,-131.5 151.72,-112.5 46.72,-112.5"/>
<text text-anchor="middle" x="99.22" y="-119.5" font-family="Helvetica,sans-Serif" font-size="10.00">../Leds/LedTypes.h</text>
</a>
</g>
</g>
<!-- Node2&#45;&gt;Node4 -->
<g id="edge3" class="edge">
<title>Node2&#45;&gt;Node4</title>
<path fill="none" stroke="midnightblue" d="M99.22,-168.08C99.22,-161.01 99.22,-150.86 99.22,-141.99"/>
<polygon fill="midnightblue" stroke="midnightblue" points="102.72,-141.75 99.22,-131.75 95.72,-141.75 102.72,-141.75"/>
</g>
<!-- Node4&#45;&gt;Node3 -->
<g id="edge4" class="edge">
<title>Node4&#45;&gt;Node3</title>
<path fill="none" stroke="midnightblue" d="M99.22,-112.08C99.22,-105.01 99.22,-94.86 99.22,-85.99"/>
<polygon fill="midnightblue" stroke="midnightblue" points="102.72,-85.75 99.22,-75.75 95.72,-85.75 102.72,-85.75"/>
</g>
<!-- Node5 -->
<g id="node5" class="node">
<title>Node5</title>
<g id="a_node5"><a xlink:title=" ">
<polygon fill="none" stroke="#bfbfbf" points="151.22,-56.5 151.22,-75.5 207.22,-75.5 207.22,-56.5 151.22,-56.5"/>
<text text-anchor="middle" x="179.22" y="-63.5" font-family="Helvetica,sans-Serif" font-size="10.00">stdarg.h</text>
</a>
</g>
</g>
<!-- Node4&#45;&gt;Node5 -->
<g id="edge5" class="edge">
<title>Node4&#45;&gt;Node5</title>
<path fill="none" stroke="midnightblue" d="M112.07,-112.32C124.44,-103.98 143.35,-91.21 157.96,-81.35"/>
<polygon fill="midnightblue" stroke="midnightblue" points="160.07,-84.15 166.4,-75.65 156.15,-78.35 160.07,-84.15"/>
</g>
<!-- Node6 -->
<g id="node6" class="node">
<title>Node6</title>
<g id="a_node6"><a xlink:href="VortexConfig_8h.html" target="_top" xlink:title=" ">
<polygon fill="none" stroke="black" points="253.72,-56.5 253.72,-75.5 350.72,-75.5 350.72,-56.5 253.72,-56.5"/>
<text text-anchor="middle" x="302.22" y="-63.5" font-family="Helvetica,sans-Serif" font-size="10.00">../VortexConfig.h</text>
</a>
</g>
</g>
<!-- Node4&#45;&gt;Node6 -->
<g id="edge6" class="edge">
<title>Node4&#45;&gt;Node6</title>
<path fill="none" stroke="midnightblue" d="M131.39,-112.44C166.28,-103.16 222.11,-88.31 260.39,-78.13"/>
<polygon fill="midnightblue" stroke="midnightblue" points="261.44,-81.47 270.2,-75.52 259.64,-74.7 261.44,-81.47"/>
</g>
<!-- Node7 -->
<g id="node7" class="node">
<title>Node7</title>
<g id="a_node7"><a xlink:href="ColorConstants_8h.html" target="_top" xlink:title=" ">
<polygon fill="none" stroke="black" points="235.22,-0.5 235.22,-19.5 369.22,-19.5 369.22,-0.5 235.22,-0.5"/>
<text text-anchor="middle" x="302.22" y="-7.5" font-family="Helvetica,sans-Serif" font-size="10.00">Colors/ColorConstants.h</text>
</a>
</g>
</g>
<!-- Node6&#45;&gt;Node7 -->
<g id="edge7" class="edge">
<title>Node6&#45;&gt;Node7</title>
<path fill="none" stroke="midnightblue" d="M302.22,-56.08C302.22,-49.01 302.22,-38.86 302.22,-29.99"/>
<polygon fill="midnightblue" stroke="midnightblue" points="305.72,-29.75 302.22,-19.75 298.72,-29.75 305.72,-29.75"/>
</g>
<!-- Node8&#45;&gt;Node3 -->
<g id="edge9" class="edge">
<title>Node8&#45;&gt;Node3</title>
<path fill="none" stroke="midnightblue" d="M152.93,-170.68C110.82,-163.55 51.19,-150.48 37.22,-132 22.67,-112.76 48.34,-93.04 70.94,-80.44"/>
<polygon fill="midnightblue" stroke="midnightblue" points="72.78,-83.43 79.99,-75.66 69.51,-77.24 72.78,-83.43"/>
</g>
<!-- Node8&#45;&gt;Node4 -->
<g id="edge11" class="edge">
<title>Node8&#45;&gt;Node4</title>
<path fill="none" stroke="midnightblue" d="M180.64,-168.32C165.22,-159.74 141.41,-146.49 123.51,-136.52"/>
<polygon fill="midnightblue" stroke="midnightblue" points="125.21,-133.46 114.77,-131.65 121.8,-139.58 125.21,-133.46"/>
</g>
<!-- Node8&#45;&gt;Node6 -->
<g id="edge10" class="edge">
<title>Node8&#45;&gt;Node6</title>
<path fill="none" stroke="midnightblue" d="M200.47,-168.26C207.19,-155.04 221.27,-129.63 238.22,-112 249.89,-99.87 265.26,-88.94 278.01,-80.89"/>
<polygon fill="midnightblue" stroke="midnightblue" points="280.03,-83.75 286.74,-75.56 276.38,-77.78 280.03,-83.75"/>
</g>
<!-- Node9&#45;&gt;Node3 -->
<g id="edge13" class="edge">
<title>Node9&#45;&gt;Node3</title>
<path fill="none" stroke="midnightblue" d="M414.43,-114.29C348.1,-106.42 237.09,-92.36 142.22,-76 142.12,-75.98 142.01,-75.96 141.91,-75.95"/>
<polygon fill="midnightblue" stroke="midnightblue" points="142.51,-72.5 132.04,-74.12 141.24,-79.38 142.51,-72.5"/>
</g>
<!-- Node9&#45;&gt;Node6 -->
<g id="edge15" class="edge">
<title>Node9&#45;&gt;Node6</title>
<path fill="none" stroke="midnightblue" d="M446.12,-112.44C417.23,-103.32 371.3,-88.81 339.11,-78.65"/>
<polygon fill="midnightblue" stroke="midnightblue" points="339.78,-75.19 329.19,-75.52 337.67,-81.87 339.78,-75.19"/>
</g>
<!-- Node10 -->
<g id="node10" class="node">
<title>Node10</title>
<g id="a_node10"><a xlink:title=" ">
<polygon fill="none" stroke="#bfbfbf" points="446.72,-56.5 446.72,-75.5 499.72,-75.5 499.72,-56.5 446.72,-56.5"/>
<text text-anchor="middle" x="473.22" y="-63.5" font-family="Helvetica,sans-Serif" font-size="10.00">stdlib.h</text>
</a>
</g>
</g>
<!-- Node9&#45;&gt;Node10 -->
<g id="edge14" class="edge">
<title>Node9&#45;&gt;Node10</title>
<path fill="none" stroke="midnightblue" d="M473.22,-112.08C473.22,-105.01 473.22,-94.86 473.22,-85.99"/>
<polygon fill="midnightblue" stroke="midnightblue" points="476.72,-85.75 473.22,-75.75 469.72,-85.75 476.72,-85.75"/>
</g>
<!-- Node11&#45;&gt;Node5 -->
<g id="edge17" class="edge">
<title>Node11&#45;&gt;Node5</title>
<path fill="none" stroke="midnightblue" d="M284.49,-168.32C272.17,-159.68 253.21,-145.76 238.22,-132 221.64,-116.78 204.56,-97.49 193.07,-83.9"/>
<polygon fill="midnightblue" stroke="midnightblue" points="195.48,-81.32 186.39,-75.88 190.1,-85.8 195.48,-81.32"/>
</g>
<!-- Node11&#45;&gt;Node6 -->
<g id="edge18" class="edge">
<title>Node11&#45;&gt;Node6</title>
<path fill="none" stroke="midnightblue" d="M321.69,-168.44C337.79,-161.38 357.6,-149.63 367.22,-132 378.78,-110.82 354.02,-91.99 331.81,-80.12"/>
<polygon fill="midnightblue" stroke="midnightblue" points="333.38,-76.99 322.87,-75.62 330.23,-83.24 333.38,-76.99"/>
</g>
<!-- Node12 -->
<g id="node12" class="node">
<title>Node12</title>
<g id="a_node12"><a xlink:href="ErrorBlinker_8h.html" target="_top" xlink:title=" ">
<polygon fill="none" stroke="black" points="246.72,-112.5 246.72,-131.5 357.72,-131.5 357.72,-112.5 246.72,-112.5"/>
<text text-anchor="middle" x="302.22" y="-119.5" font-family="Helvetica,sans-Serif" font-size="10.00">../Log/ErrorBlinker.h</text>
</a>
</g>
</g>
<!-- Node11&#45;&gt;Node12 -->
<g id="edge19" class="edge">
<title>Node11&#45;&gt;Node12</title>
<path fill="none" stroke="midnightblue" d="M298.05,-168.08C298.7,-161.01 299.64,-150.86 300.46,-141.99"/>
<polygon fill="midnightblue" stroke="midnightblue" points="303.97,-142.03 301.41,-131.75 297,-141.39 303.97,-142.03"/>
</g>
<!-- Node12&#45;&gt;Node3 -->
<g id="edge20" class="edge">
<title>Node12&#45;&gt;Node3</title>
<path fill="none" stroke="midnightblue" d="M270.05,-112.44C235.16,-103.16 179.33,-88.31 141.05,-78.13"/>
<polygon fill="midnightblue" stroke="midnightblue" points="141.8,-74.7 131.24,-75.52 140,-81.47 141.8,-74.7"/>
</g>
<!-- Node12&#45;&gt;Node6 -->
<g id="edge21" class="edge">
<title>Node12&#45;&gt;Node6</title>
<path fill="none" stroke="midnightblue" d="M302.22,-112.08C302.22,-105.01 302.22,-94.86 302.22,-85.99"/>
<polygon fill="midnightblue" stroke="midnightblue" points="305.72,-85.75 302.22,-75.75 298.72,-85.75 305.72,-85.75"/>
</g>
</g>
</svg>
        <g id="navigator" transform="translate(0 0)" fill="#404254">
                <rect fill="#f2f5e9" fill-opacity="0.5" stroke="#606060" stroke-width=".5" x="0" y="0" width="60" height="60"/>
                <use id="zoomplus" xlink:href="#zoomPlus" x="17" y="9" onmousedown="handleZoom(evt,'in')"/>
                <use id="zoomminus" xlink:href="#zoomMin" x="42" y="9" onmousedown="handleZoom(evt,'out')"/>
                <use id="reset" xlink:href="#resetDef" x="30" y="36" onmousedown="handleReset()"/>
                <g id="arrowUp" xlink:href="#dirArrow" transform="translate(30 24)" onmousedown="handlePan(0,-1)">
                  <use xlink:href="#rim" fill="#404040">
                        <set attributeName="fill" to="#808080" begin="arrowUp.mouseover" end="arrowUp.mouseout"/>
                  </use>
                  <path fill="none" stroke="white" stroke-width="1.5" d="M0,-3.0v7 M-2.5,-0.5L0,-3.0L2.5,-0.5"/>
                </g>
                <g id="arrowRight" xlink:href="#dirArrow" transform="rotate(90) translate(36 -43)" onmousedown="handlePan(1,0)">
                  <use xlink:href="#rim" fill="#404040">
                        <set attributeName="fill" to="#808080" begin="arrowRight.mouseover" end="arrowRight.mouseout"/>
                  </use>
                  <path fill="none" stroke="white" stroke-width="1.5" d="M0,-3.0v7 M-2.5,-0.5L0,-3.0L2.5,-0.5"/>
                </g>
                <g id="arrowDown" xlink:href="#dirArrow" transform="rotate(180) translate(-30 -48)" onmousedown="handlePan(0,1)">
                  <use xlink:href="#rim" fill="#404040">
                        <set attributeName="fill" to="#808080" begin="arrowDown.mouseover" end="arrowDown.mouseout"/>
                  </use>
                  <path fill="none" stroke="white" stroke-width="1.5" d="M0,-3.0v7 M-2.5,-0.5L0,-3.0L2.5,-0.5"/>
                </g>
                <g id="arrowLeft" xlink:href="#dirArrow" transform="rotate(270) translate(-36 17)" onmousedown="handlePan(-1,0)">
                  <use xlink:href="#rim" fill="#404040">
                        <set attributeName="fill" to="#808080" begin="arrowLeft.mouseover" end="arrowLeft.mouseout"/>
                  </use>
                  <path fill="none" stroke="white" stroke-width="1.5" d="M0,-3.0v7 M-2.5,-0.5L0,-3.0L2.5,-0.5"/>
                </g>
        </g>
        <svg viewBox="0 0 15 15" width="100%" height="30px" preserveAspectRatio="xMaxYMin meet">
         <g id="arrow_out" transform="scale(0.3 0.3)">
          <a xlink:href="Timer_8cpp__incl_org.svg" target="_base">
           <rect id="button" ry="5" rx="5" y="6" x="6" height="38" width="38"
                fill="#f2f5e9" fill-opacity="0.5" stroke="#606060" stroke-width="1.0"/>
           <path id="arrow"
             d="M 11.500037,31.436501 C 11.940474,20.09759 22.043105,11.32322 32.158766,21.979434 L 37.068811,17.246167 C 37.068811,17.246167 37.088388,32 37.088388,32 L 22.160133,31.978069 C 22.160133,31.978069 26.997745,27.140456 26.997745,27.140456 C 18.528582,18.264221 13.291696,25.230495 11.500037,31.436501 z"
             style="fill:#404040;"/>
          </a>
         </g>
        </svg>
</svg>
