<?xml version="1.0" encoding="UTF-8" standalone="no"?>
<!DOCTYPE svg PUBLIC "-//W3C//DTD SVG 1.1//EN"
 "http://www.w3.org/Graphics/SVG/1.1/DTD/svg11.dtd">
<!-- Generated by graphviz version 2.43.0 (0)
 -->
<!-- Title: VortexEngine/src/Serial/BitStream.cpp Pages: 1 -->
<svg width="380pt" height="207pt"
 viewBox="0.00 0.00 379.50 207.00" xmlns="http://www.w3.org/2000/svg" xmlns:xlink="http://www.w3.org/1999/xlink">
<g id="graph0" class="graph" transform="scale(1 1) rotate(0) translate(4 203)">
<title>VortexEngine/src/Serial/BitStream.cpp</title>
<!-- Node1 -->
<g id="node1" class="node">
<title>Node1</title>
<g id="a_node1"><a xlink:title=" ">
<polygon fill="#bfbfbf" stroke="black" points="142.5,-168.5 142.5,-198.5 271.5,-198.5 271.5,-168.5 142.5,-168.5"/>
<text text-anchor="start" x="150.5" y="-186.5" font-family="Helvetica,sans-Serif" font-size="10.00">VortexEngine/src/Serial</text>
<text text-anchor="middle" x="207" y="-175.5" font-family="Helvetica,sans-Serif" font-size="10.00">/BitStream.cpp</text>
</a>
</g>
</g>
<!-- Node2 -->
<g id="node2" class="node">
<title>Node2</title>
<g id="a_node2"><a xlink:href="BitStream_8h.html" target="_top" xlink:title=" ">
<polygon fill="none" stroke="black" points="0,-112.5 0,-131.5 74,-131.5 74,-112.5 0,-112.5"/>
<text text-anchor="middle" x="37" y="-119.5" font-family="Helvetica,sans-Serif" font-size="10.00">BitStream.h</text>
</a>
</g>
</g>
<!-- Node1&#45;&gt;Node2 -->
<g id="edge1" class="edge">
<title>Node1&#45;&gt;Node2</title>
<path fill="none" stroke="midnightblue" d="M166.71,-168.4C137.68,-158.24 98.92,-144.67 71.35,-135.02"/>
<polygon fill="midnightblue" stroke="midnightblue" points="72.33,-131.66 61.74,-131.66 70.02,-138.26 72.33,-131.66"/>
</g>
<!-- Node4 -->
<g id="node4" class="node">
<title>Node4</title>
<g id="a_node4"><a xlink:href="Memory_8h.html" target="_top" xlink:title=" ">
<polygon fill="none" stroke="black" points="92.5,-112.5 92.5,-131.5 209.5,-131.5 209.5,-112.5 92.5,-112.5"/>
<text text-anchor="middle" x="151" y="-119.5" font-family="Helvetica,sans-Serif" font-size="10.00">../Memory/Memory.h</text>
</a>
</g>
</g>
<!-- Node1&#45;&gt;Node4 -->
<g id="edge3" class="edge">
<title>Node1&#45;&gt;Node4</title>
<path fill="none" stroke="midnightblue" d="M193.73,-168.4C185.42,-159.58 174.7,-148.18 166.08,-139.02"/>
<polygon fill="midnightblue" stroke="midnightblue" points="168.55,-136.54 159.15,-131.66 163.45,-141.34 168.55,-136.54"/>
</g>
<!-- Node8 -->
<g id="node8" class="node">
<title>Node8</title>
<g id="a_node8"><a xlink:href="Log_8h.html" target="_top" xlink:title=" ">
<polygon fill="none" stroke="black" points="228,-112.5 228,-131.5 300,-131.5 300,-112.5 228,-112.5"/>
<text text-anchor="middle" x="264" y="-119.5" font-family="Helvetica,sans-Serif" font-size="10.00">../Log/Log.h</text>
</a>
</g>
</g>
<!-- Node1&#45;&gt;Node8 -->
<g id="edge8" class="edge">
<title>Node1&#45;&gt;Node8</title>
<path fill="none" stroke="midnightblue" d="M220.51,-168.4C228.96,-159.58 239.88,-148.18 248.66,-139.02"/>
<polygon fill="midnightblue" stroke="midnightblue" points="251.32,-141.3 255.71,-131.66 246.26,-136.46 251.32,-141.3"/>
</g>
<!-- Node10 -->
<g id="node10" class="node">
<title>Node10</title>
<g id="a_node10"><a xlink:title=" ">
<polygon fill="none" stroke="#bfbfbf" points="318.5,-112.5 318.5,-131.5 371.5,-131.5 371.5,-112.5 318.5,-112.5"/>
<text text-anchor="middle" x="345" y="-119.5" font-family="Helvetica,sans-Serif" font-size="10.00">string.h</text>
</a>
</g>
</g>
<!-- Node1&#45;&gt;Node10 -->
<g id="edge11" class="edge">
<title>Node1&#45;&gt;Node10</title>
<path fill="none" stroke="midnightblue" d="M239.7,-168.4C262.75,-158.46 293.36,-145.26 315.63,-135.66"/>
<polygon fill="midnightblue" stroke="midnightblue" points="317.12,-138.83 324.92,-131.66 314.35,-132.4 317.12,-138.83"/>
</g>
<!-- Node3 -->
<g id="node3" class="node">
<title>Node3</title>
<g id="a_node3"><a xlink:title=" ">
<polygon fill="none" stroke="#bfbfbf" points="22.5,-56.5 22.5,-75.5 87.5,-75.5 87.5,-56.5 22.5,-56.5"/>
<text text-anchor="middle" x="55" y="-63.5" font-family="Helvetica,sans-Serif" font-size="10.00">inttypes.h</text>
</a>
</g>
</g>
<!-- Node2&#45;&gt;Node3 -->
<g id="edge2" class="edge">
<title>Node2&#45;&gt;Node3</title>
<path fill="none" stroke="midnightblue" d="M39.97,-112.08C42.38,-104.85 45.86,-94.41 48.87,-85.4"/>
<polygon fill="midnightblue" stroke="midnightblue" points="52.24,-86.34 52.08,-75.75 45.6,-84.13 52.24,-86.34"/>
</g>
<!-- Node4&#45;&gt;Node3 -->
<g id="edge4" class="edge">
<title>Node4&#45;&gt;Node3</title>
<path fill="none" stroke="midnightblue" d="M135.58,-112.32C120.46,-103.82 97.18,-90.73 79.53,-80.8"/>
<polygon fill="midnightblue" stroke="midnightblue" points="80.82,-77.51 70.39,-75.65 77.39,-83.61 80.82,-77.51"/>
</g>
<!-- Node5 -->
<g id="node5" class="node">
<title>Node5</title>
<g id="a_node5"><a xlink:title=" ">
<polygon fill="none" stroke="#bfbfbf" points="114.5,-56.5 114.5,-75.5 167.5,-75.5 167.5,-56.5 114.5,-56.5"/>
<text text-anchor="middle" x="141" y="-63.5" font-family="Helvetica,sans-Serif" font-size="10.00">stdlib.h</text>
</a>
</g>
</g>
<!-- Node4&#45;&gt;Node5 -->
<g id="edge5" class="edge">
<title>Node4&#45;&gt;Node5</title>
<path fill="none" stroke="midnightblue" d="M149.35,-112.08C148.02,-104.93 146.12,-94.64 144.46,-85.69"/>
<polygon fill="midnightblue" stroke="midnightblue" points="147.88,-84.95 142.62,-75.75 141,-86.22 147.88,-84.95"/>
</g>
<!-- Node6 -->
<g id="node6" class="node">
<title>Node6</title>
<g id="a_node6"><a xlink:href="VortexConfig_8h.html" target="_top" xlink:title=" ">
<polygon fill="none" stroke="black" points="185.5,-56.5 185.5,-75.5 282.5,-75.5 282.5,-56.5 185.5,-56.5"/>
<text text-anchor="middle" x="234" y="-63.5" font-family="Helvetica,sans-Serif" font-size="10.00">../VortexConfig.h</text>
</a>
</g>
</g>
<!-- Node4&#45;&gt;Node6 -->
<g id="edge6" class="edge">
<title>Node4&#45;&gt;Node6</title>
<path fill="none" stroke="midnightblue" d="M164.34,-112.32C177.16,-103.98 196.78,-91.21 211.94,-81.35"/>
<polygon fill="midnightblue" stroke="midnightblue" points="214.22,-84.04 220.7,-75.65 210.41,-78.17 214.22,-84.04"/>
</g>
<!-- Node7 -->
<g id="node7" class="node">
<title>Node7</title>
<g id="a_node7"><a xlink:href="ColorConstants_8h.html" target="_top" xlink:title=" ">
<polygon fill="none" stroke="black" points="167,-0.5 167,-19.5 301,-19.5 301,-0.5 167,-0.5"/>
<text text-anchor="middle" x="234" y="-7.5" font-family="Helvetica,sans-Serif" font-size="10.00">Colors/ColorConstants.h</text>
</a>
</g>
</g>
<!-- Node6&#45;&gt;Node7 -->
<g id="edge7" class="edge">
<title>Node6&#45;&gt;Node7</title>
<path fill="none" stroke="midnightblue" d="M234,-56.08C234,-49.01 234,-38.86 234,-29.99"/>
<polygon fill="midnightblue" stroke="midnightblue" points="237.5,-29.75 234,-19.75 230.5,-29.75 237.5,-29.75"/>
</g>
<!-- Node8&#45;&gt;Node6 -->
<g id="edge10" class="edge">
<title>Node8&#45;&gt;Node6</title>
<path fill="none" stroke="midnightblue" d="M259.05,-112.08C254.9,-104.61 248.85,-93.72 243.73,-84.52"/>
<polygon fill="midnightblue" stroke="midnightblue" points="246.78,-82.79 238.86,-75.75 240.66,-86.19 246.78,-82.79"/>
</g>
<!-- Node9 -->
<g id="node9" class="node">
<title>Node9</title>
<g id="a_node9"><a xlink:title=" ">
<polygon fill="none" stroke="#bfbfbf" points="301,-56.5 301,-75.5 357,-75.5 357,-56.5 301,-56.5"/>
<text text-anchor="middle" x="329" y="-63.5" font-family="Helvetica,sans-Serif" font-size="10.00">stdarg.h</text>
</a>
</g>
</g>
<!-- Node8&#45;&gt;Node9 -->
<g id="edge9" class="edge">
<title>Node8&#45;&gt;Node9</title>
<path fill="none" stroke="midnightblue" d="M274.44,-112.32C284.15,-104.26 298.82,-92.08 310.5,-82.37"/>
<polygon fill="midnightblue" stroke="midnightblue" points="312.91,-84.92 318.37,-75.83 308.44,-79.53 312.91,-84.92"/>
</g>
</g>
</svg>
