<?xml version="1.0" encoding="UTF-8" standalone="no"?>
<!DOCTYPE svg PUBLIC "-//W3C//DTD SVG 1.1//EN"
 "http://www.w3.org/Graphics/SVG/1.1/DTD/svg11.dtd">
<!-- Generated by graphviz version 2.43.0 (0)
 -->
<!-- Title: Menu Pages: 1 -->
<svg width="192pt" height="307pt"
 viewBox="0.00 0.00 191.50 307.00" xmlns="http://www.w3.org/2000/svg" xmlns:xlink="http://www.w3.org/1999/xlink">
<g id="graph0" class="graph" transform="scale(1 1) rotate(0) translate(4 303)">
<title>Menu</title>
<!-- Node1 -->
<g id="node1" class="node">
<title>Node1</title>
<g id="a_node1"><a xlink:title=" ">
<polygon fill="#bfbfbf" stroke="black" points="22.5,-0.5 22.5,-19.5 66.5,-19.5 66.5,-0.5 22.5,-0.5"/>
<text text-anchor="middle" x="44.5" y="-7.5" font-family="Helvetica,sans-Serif" font-size="10.00">Menu</text>
</a>
</g>
</g>
<!-- Node2 -->
<g id="node2" class="node">
<title>Node2</title>
<g id="a_node2"><a xlink:href="classMode.html" target="_top" xlink:title=" ">
<polygon fill="none" stroke="black" points="76.5,-67.5 76.5,-86.5 120.5,-86.5 120.5,-67.5 76.5,-67.5"/>
<text text-anchor="middle" x="98.5" y="-74.5" font-family="Helvetica,sans-Serif" font-size="10.00">Mode</text>
</a>
</g>
</g>
<!-- Node2&#45;&gt;Node1 -->
<g id="edge1" class="edge">
<title>Node2&#45;&gt;Node1</title>
<path fill="none" stroke="#9a32cd" stroke-dasharray="5,2" d="M84.6,-59.27C74.07,-46.6 60.04,-29.7 51.67,-19.63"/>
<polygon fill="#9a32cd" stroke="#9a32cd" points="82.13,-61.78 91.22,-67.23 87.52,-57.31 82.13,-61.78"/>
<text text-anchor="middle" x="117" y="-41" font-family="Helvetica,sans-Serif" font-size="10.00"> m_previewMode</text>
</g>
<!-- Node3 -->
<g id="node3" class="node">
<title>Node3</title>
<g id="a_node3"><a xlink:href="classPattern.html" target="_top" xlink:title=" ">
<polygon fill="none" stroke="black" points="106,-145.5 106,-164.5 157,-164.5 157,-145.5 106,-145.5"/>
<text text-anchor="middle" x="131.5" y="-152.5" font-family="Helvetica,sans-Serif" font-size="10.00">Pattern</text>
</a>
</g>
</g>
<!-- Node3&#45;&gt;Node2 -->
<g id="edge2" class="edge">
<title>Node3&#45;&gt;Node2</title>
<path fill="none" stroke="#9a32cd" stroke-dasharray="5,2" d="M123.54,-135.67C116.79,-120.11 107.39,-98.47 102.24,-86.62"/>
<polygon fill="#9a32cd" stroke="#9a32cd" points="120.52,-137.5 127.71,-145.28 126.94,-134.72 120.52,-137.5"/>
<text text-anchor="middle" x="151" y="-119" font-family="Helvetica,sans-Serif" font-size="10.00"> m_multiPat</text>
<text text-anchor="middle" x="151" y="-108" font-family="Helvetica,sans-Serif" font-size="10.00">m_singlePats</text>
</g>
<!-- Node4 -->
<g id="node4" class="node">
<title>Node4</title>
<g id="a_node4"><a xlink:href="classColorset.html" target="_top" xlink:title=" ">
<polygon fill="none" stroke="black" points="73,-212.5 73,-231.5 130,-231.5 130,-212.5 73,-212.5"/>
<text text-anchor="middle" x="101.5" y="-219.5" font-family="Helvetica,sans-Serif" font-size="10.00">Colorset</text>
</a>
</g>
</g>
<!-- Node4&#45;&gt;Node3 -->
<g id="edge3" class="edge">
<title>Node4&#45;&gt;Node3</title>
<path fill="none" stroke="#9a32cd" stroke-dasharray="5,2" d="M109.9,-202.79C115.67,-190.31 123.05,-174.31 127.52,-164.63"/>
<polygon fill="#9a32cd" stroke="#9a32cd" points="106.56,-201.69 105.55,-212.23 112.91,-204.62 106.56,-201.69"/>
<text text-anchor="middle" x="146.5" y="-186" font-family="Helvetica,sans-Serif" font-size="10.00"> m_colorset</text>
</g>
<!-- Node5 -->
<g id="node5" class="node">
<title>Node5</title>
<g id="a_node5"><a xlink:href="classRGBColor.html" target="_top" xlink:title=" ">
<polygon fill="none" stroke="black" points="0,-279.5 0,-298.5 63,-298.5 63,-279.5 0,-279.5"/>
<text text-anchor="middle" x="31.5" y="-286.5" font-family="Helvetica,sans-Serif" font-size="10.00">RGBColor</text>
</a>
</g>
</g>
<!-- Node5&#45;&gt;Node1 -->
<g id="edge5" class="edge">
<title>Node5&#45;&gt;Node1</title>
<path fill="none" stroke="#9a32cd" stroke-dasharray="5,2" d="M24.53,-269.82C20.22,-256.94 15.5,-239.16 15.5,-223 15.5,-223 15.5,-223 15.5,-76 15.5,-54.25 29.21,-31.68 37.77,-19.7"/>
<polygon fill="#9a32cd" stroke="#9a32cd" points="21.28,-271.11 27.95,-279.34 27.87,-268.74 21.28,-271.11"/>
<text text-anchor="middle" x="51.5" y="-152.5" font-family="Helvetica,sans-Serif" font-size="10.00"> m_menuColor</text>
</g>
<!-- Node5&#45;&gt;Node4 -->
<g id="edge4" class="edge">
<title>Node5&#45;&gt;Node4</title>
<path fill="none" stroke="#9a32cd" stroke-dasharray="5,2" d="M48.35,-272.36C62.11,-259.58 81.05,-241.99 92.21,-231.63"/>
<polygon fill="#9a32cd" stroke="#9a32cd" points="45.89,-269.86 40.94,-279.23 50.65,-274.99 45.89,-269.86"/>
<text text-anchor="middle" x="97" y="-253" font-family="Helvetica,sans-Serif" font-size="10.00"> m_palette</text>
</g>
</g>
</svg>
