<?xml version="1.0" encoding="UTF-8" standalone="no"?>
<!DOCTYPE svg PUBLIC "-//W3C//DTD SVG 1.1//EN"
 "http://www.w3.org/Graphics/SVG/1.1/DTD/svg11.dtd">
<!-- Generated by graphviz version 2.43.0 (0)
 -->
<!-- Title: VortexEngine/src/Patterns/Multi/BlinkStepPattern.cpp Pages: 1 -->
<svg width="1742pt" height="487pt"
 viewBox="0.00 0.00 1742.00 487.00" xmlns="http://www.w3.org/2000/svg" xmlns:xlink="http://www.w3.org/1999/xlink">
<g id="graph0" class="graph" transform="scale(1 1) rotate(0) translate(4 483)">
<title>VortexEngine/src/Patterns/Multi/BlinkStepPattern.cpp</title>
<!-- Node1 -->
<g id="node1" class="node">
<title>Node1</title>
<g id="a_node1"><a xlink:title=" ">
<polygon fill="#bfbfbf" stroke="black" points="933.5,-448.5 933.5,-478.5 1082.5,-478.5 1082.5,-448.5 933.5,-448.5"/>
<text text-anchor="start" x="941.5" y="-466.5" font-family="Helvetica,sans-Serif" font-size="10.00">VortexEngine/src/Patterns</text>
<text text-anchor="middle" x="1008" y="-455.5" font-family="Helvetica,sans-Serif" font-size="10.00">/Multi/BlinkStepPattern.cpp</text>
</a>
</g>
</g>
<!-- Node2 -->
<g id="node2" class="node">
<title>Node2</title>
<g id="a_node2"><a xlink:href="BlinkStepPattern_8h.html" target="_top" xlink:title=" ">
<polygon fill="none" stroke="black" points="1140.5,-392.5 1140.5,-411.5 1247.5,-411.5 1247.5,-392.5 1140.5,-392.5"/>
<text text-anchor="middle" x="1194" y="-399.5" font-family="Helvetica,sans-Serif" font-size="10.00">BlinkStepPattern.h</text>
</a>
</g>
</g>
<!-- Node1&#45;&gt;Node2 -->
<g id="edge1" class="edge">
<title>Node1&#45;&gt;Node2</title>
<path fill="none" stroke="midnightblue" d="M1052.08,-448.4C1084.22,-438.12 1127.26,-424.35 1157.48,-414.68"/>
<polygon fill="midnightblue" stroke="midnightblue" points="1158.75,-417.95 1167.21,-411.57 1156.62,-411.28 1158.75,-417.95"/>
</g>
<!-- Node8 -->
<g id="node8" class="node">
<title>Node8</title>
<g id="a_node8"><a xlink:href="Leds_8h.html" target="_top" xlink:title=" ">
<polygon fill="none" stroke="black" points="746.5,-168.5 746.5,-187.5 829.5,-187.5 829.5,-168.5 746.5,-168.5"/>
<text text-anchor="middle" x="788" y="-175.5" font-family="Helvetica,sans-Serif" font-size="10.00">../Leds/Leds.h</text>
</a>
</g>
</g>
<!-- Node1&#45;&gt;Node8 -->
<g id="edge92" class="edge">
<title>Node1&#45;&gt;Node8</title>
<path fill="none" stroke="midnightblue" d="M933.18,-458.4C739.13,-447.02 231.32,-412.09 182,-356 121.68,-287.41 308.97,-227.16 319,-224 395.64,-199.85 630.85,-186.27 736.13,-181.25"/>
<polygon fill="midnightblue" stroke="midnightblue" points="736.37,-184.74 746.2,-180.78 736.05,-177.75 736.37,-184.74"/>
</g>
<!-- Node17 -->
<g id="node17" class="node">
<title>Node17</title>
<g id="a_node17"><a xlink:href="VortexEngine_8h.html" target="_top" xlink:title=" ">
<polygon fill="none" stroke="black" points="657,-392.5 657,-411.5 765,-411.5 765,-392.5 657,-392.5"/>
<text text-anchor="middle" x="711" y="-399.5" font-family="Helvetica,sans-Serif" font-size="10.00">../../VortexEngine.h</text>
</a>
</g>
</g>
<!-- Node1&#45;&gt;Node17 -->
<g id="edge28" class="edge">
<title>Node1&#45;&gt;Node17</title>
<path fill="none" stroke="midnightblue" d="M937.99,-448.47C884.52,-437.76 811.98,-423.23 763.44,-413.51"/>
<polygon fill="midnightblue" stroke="midnightblue" points="763.95,-410.04 753.46,-411.51 762.58,-416.9 763.95,-410.04"/>
</g>
<!-- Node23 -->
<g id="node23" class="node">
<title>Node23</title>
<g id="a_node23"><a xlink:href="ByteStream_8h.html" target="_top" xlink:title=" ">
<polygon fill="none" stroke="black" points="706.5,-224.5 706.5,-243.5 829.5,-243.5 829.5,-224.5 706.5,-224.5"/>
<text text-anchor="middle" x="768" y="-231.5" font-family="Helvetica,sans-Serif" font-size="10.00">../Serial/ByteStream.h</text>
</a>
</g>
</g>
<!-- Node1&#45;&gt;Node23 -->
<g id="edge90" class="edge">
<title>Node1&#45;&gt;Node23</title>
<path fill="none" stroke="midnightblue" d="M998.55,-448.45C981.54,-423.82 943.85,-372.05 904,-336 882.61,-316.65 873.32,-316.97 850,-300 827.49,-283.61 802.54,-263.55 786.14,-250.08"/>
<polygon fill="midnightblue" stroke="midnightblue" points="788.34,-247.36 778.4,-243.7 783.88,-252.76 788.34,-247.36"/>
</g>
<!-- Node24 -->
<g id="node24" class="node">
<title>Node24</title>
<g id="a_node24"><a xlink:href="Log_8h.html" target="_top" xlink:title=" ">
<polygon fill="none" stroke="black" points="1458,-168.5 1458,-187.5 1530,-187.5 1530,-168.5 1458,-168.5"/>
<text text-anchor="middle" x="1494" y="-175.5" font-family="Helvetica,sans-Serif" font-size="10.00">../Log/Log.h</text>
</a>
</g>
</g>
<!-- Node1&#45;&gt;Node24 -->
<g id="edge93" class="edge">
<title>Node1&#45;&gt;Node24</title>
<path fill="none" stroke="midnightblue" d="M1082.73,-459.95C1210.39,-454.85 1464.87,-441.3 1549,-412 1592.07,-397 1611.85,-395.3 1635,-356 1652.17,-326.86 1654.66,-309.98 1639,-280 1615.7,-235.38 1562.71,-206.47 1527.65,-191.46"/>
<polygon fill="midnightblue" stroke="midnightblue" points="1528.86,-188.17 1518.28,-187.59 1526.19,-194.64 1528.86,-188.17"/>
</g>
<!-- Node32 -->
<g id="node32" class="node">
<title>Node32</title>
<g id="a_node32"><a xlink:href="TimeControl_8h.html" target="_top" xlink:title=" ">
<polygon fill="none" stroke="black" points="1516.5,-280.5 1516.5,-299.5 1629.5,-299.5 1629.5,-280.5 1516.5,-280.5"/>
<text text-anchor="middle" x="1573" y="-287.5" font-family="Helvetica,sans-Serif" font-size="10.00">Time/TimeControl.h</text>
</a>
</g>
</g>
<!-- Node1&#45;&gt;Node32 -->
<g id="edge91" class="edge">
<title>Node1&#45;&gt;Node32</title>
<path fill="none" stroke="midnightblue" d="M1082.61,-460.97C1230.24,-456.21 1551.22,-436.61 1619,-356 1632.84,-339.54 1612.88,-319.09 1595.08,-305.57"/>
<polygon fill="midnightblue" stroke="midnightblue" points="1596.84,-302.52 1586.68,-299.54 1592.76,-308.21 1596.84,-302.52"/>
</g>
<!-- Node3 -->
<g id="node3" class="node">
<title>Node3</title>
<g id="a_node3"><a xlink:href="MultiLedPattern_8h.html" target="_top" xlink:title=" ">
<polygon fill="none" stroke="black" points="1360,-336.5 1360,-355.5 1462,-355.5 1462,-336.5 1360,-336.5"/>
<text text-anchor="middle" x="1411" y="-343.5" font-family="Helvetica,sans-Serif" font-size="10.00">MultiLedPattern.h</text>
</a>
</g>
</g>
<!-- Node2&#45;&gt;Node3 -->
<g id="edge2" class="edge">
<title>Node2&#45;&gt;Node3</title>
<path fill="none" stroke="midnightblue" d="M1228.38,-392.44C1265.92,-383.1 1326.13,-368.12 1367.07,-357.93"/>
<polygon fill="midnightblue" stroke="midnightblue" points="1367.92,-361.33 1376.78,-355.52 1366.23,-354.53 1367.92,-361.33"/>
</g>
<!-- Node5 -->
<g id="node5" class="node">
<title>Node5</title>
<g id="a_node5"><a xlink:href="LedTypes_8h.html" target="_top" xlink:title=" ">
<polygon fill="none" stroke="black" points="1278.5,-224.5 1278.5,-243.5 1383.5,-243.5 1383.5,-224.5 1278.5,-224.5"/>
<text text-anchor="middle" x="1331" y="-231.5" font-family="Helvetica,sans-Serif" font-size="10.00">../Leds/LedTypes.h</text>
</a>
</g>
</g>
<!-- Node2&#45;&gt;Node5 -->
<g id="edge27" class="edge">
<title>Node2&#45;&gt;Node5</title>
<path fill="none" stroke="midnightblue" d="M1213.7,-392.28C1243.61,-377.87 1299.67,-346.04 1325,-300 1332.77,-285.88 1333.76,-267.4 1333.1,-253.75"/>
<polygon fill="midnightblue" stroke="midnightblue" points="1336.58,-253.31 1332.28,-243.62 1329.6,-253.88 1336.58,-253.31"/>
</g>
<!-- Node16 -->
<g id="node16" class="node">
<title>Node16</title>
<g id="a_node16"><a xlink:href="Timer_8h.html" target="_top" xlink:title=" ">
<polygon fill="none" stroke="black" points="1042.5,-280.5 1042.5,-299.5 1141.5,-299.5 1141.5,-280.5 1042.5,-280.5"/>
<text text-anchor="middle" x="1092" y="-287.5" font-family="Helvetica,sans-Serif" font-size="10.00">../../Time/Timer.h</text>
</a>
</g>
</g>
<!-- Node2&#45;&gt;Node16 -->
<g id="edge24" class="edge">
<title>Node2&#45;&gt;Node16</title>
<path fill="none" stroke="midnightblue" d="M1168.76,-392.39C1151.16,-385.19 1128.34,-373.29 1114,-356 1102.96,-342.69 1097.36,-323.57 1094.59,-309.51"/>
<polygon fill="midnightblue" stroke="midnightblue" points="1098.02,-308.81 1092.92,-299.53 1091.12,-309.97 1098.02,-308.81"/>
</g>
<!-- Node4 -->
<g id="node4" class="node">
<title>Node4</title>
<g id="a_node4"><a xlink:href="Pattern_8h.html" target="_top" xlink:title=" ">
<polygon fill="none" stroke="black" points="1390.5,-280.5 1390.5,-299.5 1459.5,-299.5 1459.5,-280.5 1390.5,-280.5"/>
<text text-anchor="middle" x="1425" y="-287.5" font-family="Helvetica,sans-Serif" font-size="10.00">../Pattern.h</text>
</a>
</g>
</g>
<!-- Node3&#45;&gt;Node4 -->
<g id="edge3" class="edge">
<title>Node3&#45;&gt;Node4</title>
<path fill="none" stroke="midnightblue" d="M1413.31,-336.08C1415.17,-328.93 1417.84,-318.64 1420.15,-309.69"/>
<polygon fill="midnightblue" stroke="midnightblue" points="1423.61,-310.31 1422.73,-299.75 1416.83,-308.55 1423.61,-310.31"/>
</g>
<!-- Node4&#45;&gt;Node5 -->
<g id="edge4" class="edge">
<title>Node4&#45;&gt;Node5</title>
<path fill="none" stroke="midnightblue" d="M1409.9,-280.32C1395.1,-271.82 1372.31,-258.73 1355.02,-248.8"/>
<polygon fill="midnightblue" stroke="midnightblue" points="1356.48,-245.6 1346.07,-243.65 1352.99,-251.67 1356.48,-245.6"/>
</g>
<!-- Node13 -->
<g id="node13" class="node">
<title>Node13</title>
<g id="a_node13"><a xlink:href="Colorset_8h.html" target="_top" xlink:title=" ">
<polygon fill="none" stroke="black" points="1292.5,-168.5 1292.5,-187.5 1401.5,-187.5 1401.5,-168.5 1292.5,-168.5"/>
<text text-anchor="middle" x="1347" y="-175.5" font-family="Helvetica,sans-Serif" font-size="10.00">../Colors/Colorset.h</text>
</a>
</g>
</g>
<!-- Node4&#45;&gt;Node13 -->
<g id="edge17" class="edge">
<title>Node4&#45;&gt;Node13</title>
<path fill="none" stroke="midnightblue" d="M1427.79,-280.3C1431.46,-267.12 1436.32,-241.76 1426,-224 1417.26,-208.97 1401.42,-198.54 1386.21,-191.54"/>
<polygon fill="midnightblue" stroke="midnightblue" points="1387.46,-188.27 1376.88,-187.61 1384.74,-194.72 1387.46,-188.27"/>
</g>
<!-- Node14 -->
<g id="node14" class="node">
<title>Node14</title>
<g id="a_node14"><a xlink:href="Patterns_8h.html" target="_top" xlink:title=" ">
<polygon fill="none" stroke="black" points="1038.5,-224.5 1038.5,-243.5 1103.5,-243.5 1103.5,-224.5 1038.5,-224.5"/>
<text text-anchor="middle" x="1071" y="-231.5" font-family="Helvetica,sans-Serif" font-size="10.00">Patterns.h</text>
</a>
</g>
</g>
<!-- Node4&#45;&gt;Node14 -->
<g id="edge20" class="edge">
<title>Node4&#45;&gt;Node14</title>
<path fill="none" stroke="midnightblue" d="M1390.41,-283.72C1325.24,-273.78 1184.47,-252.31 1113.6,-241.5"/>
<polygon fill="midnightblue" stroke="midnightblue" points="1114.08,-238.03 1103.66,-239.98 1113.02,-244.95 1114.08,-238.03"/>
</g>
<!-- Node15 -->
<g id="node15" class="node">
<title>Node15</title>
<g id="a_node15"><a xlink:href="PatternArgs_8h.html" target="_top" xlink:title=" ">
<polygon fill="none" stroke="black" points="1116,-168.5 1116,-187.5 1198,-187.5 1198,-168.5 1116,-168.5"/>
<text text-anchor="middle" x="1157" y="-175.5" font-family="Helvetica,sans-Serif" font-size="10.00">PatternArgs.h</text>
</a>
</g>
</g>
<!-- Node4&#45;&gt;Node15 -->
<g id="edge22" class="edge">
<title>Node4&#45;&gt;Node15</title>
<path fill="none" stroke="midnightblue" d="M1423.17,-280.25C1419.71,-266.05 1410.81,-238.15 1392,-224 1363.68,-202.69 1268.72,-189.8 1208.52,-183.57"/>
<polygon fill="midnightblue" stroke="midnightblue" points="1208.75,-180.07 1198.45,-182.55 1208.05,-187.04 1208.75,-180.07"/>
</g>
<!-- Node6 -->
<g id="node6" class="node">
<title>Node6</title>
<g id="a_node6"><a xlink:title=" ">
<polygon fill="none" stroke="#bfbfbf" points="664.5,-56.5 664.5,-75.5 729.5,-75.5 729.5,-56.5 664.5,-56.5"/>
<text text-anchor="middle" x="697" y="-63.5" font-family="Helvetica,sans-Serif" font-size="10.00">inttypes.h</text>
</a>
</g>
</g>
<!-- Node5&#45;&gt;Node6 -->
<g id="edge5" class="edge">
<title>Node5&#45;&gt;Node6</title>
<path fill="none" stroke="midnightblue" d="M1278.45,-226.2C1232.44,-219.37 1164.19,-207.08 1107,-188 1032.7,-163.21 1022.55,-136.02 948,-112 876.99,-89.13 790.71,-76.87 740.03,-71.16"/>
<polygon fill="midnightblue" stroke="midnightblue" points="740.09,-67.65 729.77,-70.04 739.33,-74.6 740.09,-67.65"/>
</g>
<!-- Node7 -->
<g id="node7" class="node">
<title>Node7</title>
<g id="a_node7"><a xlink:title=" ">
<polygon fill="none" stroke="#bfbfbf" points="1330,-112.5 1330,-131.5 1386,-131.5 1386,-112.5 1330,-112.5"/>
<text text-anchor="middle" x="1358" y="-119.5" font-family="Helvetica,sans-Serif" font-size="10.00">stdarg.h</text>
</a>
</g>
</g>
<!-- Node5&#45;&gt;Node7 -->
<g id="edge6" class="edge">
<title>Node5&#45;&gt;Node7</title>
<path fill="none" stroke="midnightblue" d="M1360.88,-224.39C1378.54,-217.59 1399.45,-206.15 1410,-188 1420.98,-169.1 1400.84,-149.85 1382.51,-137.25"/>
<polygon fill="midnightblue" stroke="midnightblue" points="1384.11,-134.11 1373.81,-131.63 1380.31,-140 1384.11,-134.11"/>
</g>
<!-- Node5&#45;&gt;Node8 -->
<g id="edge7" class="edge">
<title>Node5&#45;&gt;Node8</title>
<path fill="none" stroke="midnightblue" d="M1278.44,-227.77C1174.36,-217.42 943.15,-194.43 839.74,-184.15"/>
<polygon fill="midnightblue" stroke="midnightblue" points="839.84,-180.64 829.54,-183.13 839.15,-187.6 839.84,-180.64"/>
</g>
<!-- Node10 -->
<g id="node10" class="node">
<title>Node10</title>
<g id="a_node10"><a xlink:href="VortexConfig_8h.html" target="_top" xlink:title=" ">
<polygon fill="none" stroke="black" points="1253.5,-56.5 1253.5,-75.5 1350.5,-75.5 1350.5,-56.5 1253.5,-56.5"/>
<text text-anchor="middle" x="1302" y="-63.5" font-family="Helvetica,sans-Serif" font-size="10.00">../VortexConfig.h</text>
</a>
</g>
</g>
<!-- Node5&#45;&gt;Node10 -->
<g id="edge16" class="edge">
<title>Node5&#45;&gt;Node10</title>
<path fill="none" stroke="midnightblue" d="M1383.71,-226.84C1472.8,-214.4 1637.98,-181.33 1579,-112 1551.58,-79.77 1433.84,-70.56 1360.97,-67.97"/>
<polygon fill="midnightblue" stroke="midnightblue" points="1360.67,-64.46 1350.56,-67.63 1360.44,-71.45 1360.67,-64.46"/>
</g>
<!-- Node8&#45;&gt;Node6 -->
<g id="edge8" class="edge">
<title>Node8&#45;&gt;Node6</title>
<path fill="none" stroke="midnightblue" d="M780.86,-168.37C765.71,-150.05 730.13,-107.05 710.54,-83.36"/>
<polygon fill="midnightblue" stroke="midnightblue" points="713.18,-81.07 704.11,-75.59 707.78,-85.53 713.18,-81.07"/>
</g>
<!-- Node9 -->
<g id="node9" class="node">
<title>Node9</title>
<g id="a_node9"><a xlink:href="ColorTypes_8h.html" target="_top" xlink:title=" ">
<polygon fill="none" stroke="black" points="1038,-112.5 1038,-131.5 1160,-131.5 1160,-112.5 1038,-112.5"/>
<text text-anchor="middle" x="1099" y="-119.5" font-family="Helvetica,sans-Serif" font-size="10.00">../Colors/ColorTypes.h</text>
</a>
</g>
</g>
<!-- Node8&#45;&gt;Node9 -->
<g id="edge9" class="edge">
<title>Node8&#45;&gt;Node9</title>
<path fill="none" stroke="midnightblue" d="M829.62,-169.77C883.71,-160.38 978.5,-143.92 1040,-133.25"/>
<polygon fill="midnightblue" stroke="midnightblue" points="1040.69,-136.68 1049.94,-131.52 1039.49,-129.78 1040.69,-136.68"/>
</g>
<!-- Node8&#45;&gt;Node10 -->
<g id="edge14" class="edge">
<title>Node8&#45;&gt;Node10</title>
<path fill="none" stroke="midnightblue" d="M806.4,-168.31C837.1,-154.19 901.02,-126.41 958,-112 1056.31,-87.14 1174.09,-75.52 1243.22,-70.47"/>
<polygon fill="midnightblue" stroke="midnightblue" points="1243.74,-73.94 1253.47,-69.75 1243.25,-66.96 1243.74,-73.94"/>
</g>
<!-- Node12 -->
<g id="node12" class="node">
<title>Node12</title>
<g id="a_node12"><a xlink:title=" ">
<polygon fill="none" stroke="#bfbfbf" points="782.5,-112.5 782.5,-131.5 829.5,-131.5 829.5,-112.5 782.5,-112.5"/>
<text text-anchor="middle" x="806" y="-119.5" font-family="Helvetica,sans-Serif" font-size="10.00">vector</text>
</a>
</g>
</g>
<!-- Node8&#45;&gt;Node12 -->
<g id="edge15" class="edge">
<title>Node8&#45;&gt;Node12</title>
<path fill="none" stroke="midnightblue" d="M790.97,-168.08C793.38,-160.85 796.86,-150.41 799.87,-141.4"/>
<polygon fill="midnightblue" stroke="midnightblue" points="803.24,-142.34 803.08,-131.75 796.6,-140.13 803.24,-142.34"/>
</g>
<!-- Node9&#45;&gt;Node6 -->
<g id="edge10" class="edge">
<title>Node9&#45;&gt;Node6</title>
<path fill="none" stroke="midnightblue" d="M1037.94,-112.8C955.67,-101.75 811.29,-82.35 739.72,-72.74"/>
<polygon fill="midnightblue" stroke="midnightblue" points="740.08,-69.26 729.7,-71.39 739.15,-76.19 740.08,-69.26"/>
</g>
<!-- Node9&#45;&gt;Node10 -->
<g id="edge11" class="edge">
<title>Node9&#45;&gt;Node10</title>
<path fill="none" stroke="midnightblue" d="M1131.17,-112.44C1166.06,-103.16 1221.89,-88.31 1260.17,-78.13"/>
<polygon fill="midnightblue" stroke="midnightblue" points="1261.22,-81.47 1269.98,-75.52 1259.42,-74.7 1261.22,-81.47"/>
</g>
<!-- Node11 -->
<g id="node11" class="node">
<title>Node11</title>
<g id="a_node11"><a xlink:href="ColorConstants_8h.html" target="_top" xlink:title=" ">
<polygon fill="none" stroke="black" points="1184,-0.5 1184,-19.5 1318,-19.5 1318,-0.5 1184,-0.5"/>
<text text-anchor="middle" x="1251" y="-7.5" font-family="Helvetica,sans-Serif" font-size="10.00">Colors/ColorConstants.h</text>
</a>
</g>
</g>
<!-- Node9&#45;&gt;Node11 -->
<g id="edge13" class="edge">
<title>Node9&#45;&gt;Node11</title>
<path fill="none" stroke="midnightblue" d="M1110.93,-112.37C1136.9,-93.57 1198.81,-48.77 1230.92,-25.53"/>
<polygon fill="midnightblue" stroke="midnightblue" points="1233.08,-28.29 1239.13,-19.59 1228.98,-22.62 1233.08,-28.29"/>
</g>
<!-- Node10&#45;&gt;Node11 -->
<g id="edge12" class="edge">
<title>Node10&#45;&gt;Node11</title>
<path fill="none" stroke="midnightblue" d="M1293.58,-56.08C1286.15,-48.22 1275.15,-36.57 1266.19,-27.08"/>
<polygon fill="midnightblue" stroke="midnightblue" points="1268.68,-24.62 1259.26,-19.75 1263.59,-29.42 1268.68,-24.62"/>
</g>
<!-- Node13&#45;&gt;Node9 -->
<g id="edge18" class="edge">
<title>Node13&#45;&gt;Node9</title>
<path fill="none" stroke="midnightblue" d="M1307.7,-168.44C1264.44,-159.02 1194.83,-143.87 1148.03,-133.68"/>
<polygon fill="midnightblue" stroke="midnightblue" points="1148.63,-130.22 1138.11,-131.52 1147.14,-137.06 1148.63,-130.22"/>
</g>
<!-- Node13&#45;&gt;Node10 -->
<g id="edge19" class="edge">
<title>Node13&#45;&gt;Node10</title>
<path fill="none" stroke="midnightblue" d="M1341.17,-168.36C1335.41,-159.53 1326.68,-145.27 1321,-132 1314.5,-116.8 1309.41,-98.68 1306.14,-85.44"/>
<polygon fill="midnightblue" stroke="midnightblue" points="1309.53,-84.57 1303.83,-75.64 1302.71,-86.18 1309.53,-84.57"/>
</g>
<!-- Node14&#45;&gt;Node6 -->
<g id="edge21" class="edge">
<title>Node14&#45;&gt;Node6</title>
<path fill="none" stroke="midnightblue" d="M1038.36,-227.74C1006.57,-221.62 957.66,-209.49 920,-188 876.84,-163.37 880.92,-137.04 838,-112 807.33,-94.1 768.68,-82.41 739.6,-75.45"/>
<polygon fill="midnightblue" stroke="midnightblue" points="740.28,-72.01 729.75,-73.18 738.71,-78.83 740.28,-72.01"/>
</g>
<!-- Node15&#45;&gt;Node6 -->
<g id="edge23" class="edge">
<title>Node15&#45;&gt;Node6</title>
<path fill="none" stroke="midnightblue" d="M1162.68,-168.17C1170.79,-154.37 1183.2,-127.62 1169,-112 1140.4,-80.54 850.59,-70.55 739.77,-67.87"/>
<polygon fill="midnightblue" stroke="midnightblue" points="739.7,-64.36 729.62,-67.63 739.54,-71.36 739.7,-64.36"/>
</g>
<!-- Node16&#45;&gt;Node5 -->
<g id="edge26" class="edge">
<title>Node16&#45;&gt;Node5</title>
<path fill="none" stroke="midnightblue" d="M1129.87,-280.44C1171.48,-271.04 1238.37,-255.93 1283.47,-245.74"/>
<polygon fill="midnightblue" stroke="midnightblue" points="1284.32,-249.13 1293.31,-243.52 1282.78,-242.31 1284.32,-249.13"/>
</g>
<!-- Node16&#45;&gt;Node6 -->
<g id="edge25" class="edge">
<title>Node16&#45;&gt;Node6</title>
<path fill="none" stroke="midnightblue" d="M1098.97,-280.37C1108.62,-267.29 1123.64,-242.06 1112,-224 1095.67,-198.67 893.37,-122.15 865,-112 823.26,-97.06 774.14,-84.46 739.84,-76.42"/>
<polygon fill="midnightblue" stroke="midnightblue" points="740.22,-72.92 729.69,-74.08 738.65,-79.74 740.22,-72.92"/>
</g>
<!-- Node17&#45;&gt;Node6 -->
<g id="edge29" class="edge">
<title>Node17&#45;&gt;Node6</title>
<path fill="none" stroke="midnightblue" d="M656.78,-398.79C536.24,-393.53 249.21,-378.95 155,-356 82.42,-338.32 0,-365.7 0,-291 0,-291 0,-291 0,-177 0,-122.87 51.6,-128.99 103,-112 205.47,-78.13 535.64,-69.57 654.15,-67.57"/>
<polygon fill="midnightblue" stroke="midnightblue" points="654.35,-71.07 664.29,-67.41 654.24,-64.07 654.35,-71.07"/>
</g>
<!-- Node17&#45;&gt;Node8 -->
<g id="edge88" class="edge">
<title>Node17&#45;&gt;Node8</title>
<path fill="none" stroke="midnightblue" d="M705.59,-392.49C693.03,-372.73 660.91,-322.2 634,-280 619.53,-257.31 594.48,-245.24 611,-224 626.32,-204.3 689.75,-191.81 736.31,-185.11"/>
<polygon fill="midnightblue" stroke="midnightblue" points="736.84,-188.57 746.27,-183.73 735.88,-181.64 736.84,-188.57"/>
</g>
<!-- Node17&#45;&gt;Node10 -->
<g id="edge30" class="edge">
<title>Node17&#45;&gt;Node10</title>
<path fill="none" stroke="midnightblue" d="M765.22,-399.77C948.37,-395.41 1537.23,-379.69 1619,-356 1675.39,-339.66 1734,-349.71 1734,-291 1734,-291 1734,-291 1734,-177 1734,-131.87 1697.38,-130.01 1656,-112 1604.35,-89.51 1447.44,-76.27 1360.88,-70.48"/>
<polygon fill="midnightblue" stroke="midnightblue" points="1360.9,-66.97 1350.69,-69.81 1360.44,-73.96 1360.9,-66.97"/>
</g>
<!-- Node18 -->
<g id="node18" class="node">
<title>Node18</title>
<g id="a_node18"><a xlink:href="PatternBuilder_8h.html" target="_top" xlink:title=" ">
<polygon fill="none" stroke="black" points="758.5,-336.5 758.5,-355.5 895.5,-355.5 895.5,-336.5 758.5,-336.5"/>
<text text-anchor="middle" x="827" y="-343.5" font-family="Helvetica,sans-Serif" font-size="10.00">Patterns/PatternBuilder.h</text>
</a>
</g>
</g>
<!-- Node17&#45;&gt;Node18 -->
<g id="edge31" class="edge">
<title>Node17&#45;&gt;Node18</title>
<path fill="none" stroke="midnightblue" d="M729.38,-392.44C748.22,-383.68 777.73,-369.94 799.38,-359.86"/>
<polygon fill="midnightblue" stroke="midnightblue" points="801.12,-362.91 808.71,-355.52 798.16,-356.56 801.12,-362.91"/>
</g>
<!-- Node19 -->
<g id="node19" class="node">
<title>Node19</title>
<g id="a_node19"><a xlink:href="IRReceiver_8h.html" target="_top" xlink:title=" ">
<polygon fill="none" stroke="black" points="229,-280.5 229,-299.5 351,-299.5 351,-280.5 229,-280.5"/>
<text text-anchor="middle" x="290" y="-287.5" font-family="Helvetica,sans-Serif" font-size="10.00">Wireless/IRReceiver.h</text>
</a>
</g>
</g>
<!-- Node17&#45;&gt;Node19 -->
<g id="edge33" class="edge">
<title>Node17&#45;&gt;Node19</title>
<path fill="none" stroke="midnightblue" d="M678.32,-392.46C602.85,-372.74 416.51,-324.05 332.4,-302.08"/>
<polygon fill="midnightblue" stroke="midnightblue" points="333.22,-298.68 322.66,-299.53 331.45,-305.45 333.22,-298.68"/>
</g>
<!-- Node22 -->
<g id="node22" class="node">
<title>Node22</title>
<g id="a_node22"><a xlink:href="IRSender_8h.html" target="_top" xlink:title=" ">
<polygon fill="none" stroke="black" points="369.5,-280.5 369.5,-299.5 482.5,-299.5 482.5,-280.5 369.5,-280.5"/>
<text text-anchor="middle" x="426" y="-287.5" font-family="Helvetica,sans-Serif" font-size="10.00">Wireless/IRSender.h</text>
</a>
</g>
</g>
<!-- Node17&#45;&gt;Node22 -->
<g id="edge38" class="edge">
<title>Node17&#45;&gt;Node22</title>
<path fill="none" stroke="midnightblue" d="M688.64,-392.37C638.27,-372.93 515.84,-325.67 457.68,-303.23"/>
<polygon fill="midnightblue" stroke="midnightblue" points="458.85,-299.93 448.26,-299.59 456.33,-306.46 458.85,-299.93"/>
</g>
<!-- Node17&#45;&gt;Node24 -->
<g id="edge89" class="edge">
<title>Node17&#45;&gt;Node24</title>
<path fill="none" stroke="midnightblue" d="M765.28,-399.36C862.34,-395.78 1071.78,-385.1 1246,-356 1271.09,-351.81 1450.33,-318.3 1468,-300 1494.65,-272.39 1496.77,-224.42 1495.62,-197.93"/>
<polygon fill="midnightblue" stroke="midnightblue" points="1499.09,-197.47 1494.96,-187.72 1492.11,-197.92 1499.09,-197.47"/>
</g>
<!-- Node26 -->
<g id="node26" class="node">
<title>Node26</title>
<g id="a_node26"><a xlink:href="VLReceiver_8h.html" target="_top" xlink:title=" ">
<polygon fill="none" stroke="black" points="500.5,-280.5 500.5,-299.5 625.5,-299.5 625.5,-280.5 500.5,-280.5"/>
<text text-anchor="middle" x="563" y="-287.5" font-family="Helvetica,sans-Serif" font-size="10.00">Wireless/VLReceiver.h</text>
</a>
</g>
</g>
<!-- Node17&#45;&gt;Node26 -->
<g id="edge49" class="edge">
<title>Node17&#45;&gt;Node26</title>
<path fill="none" stroke="midnightblue" d="M696.2,-392.43C681.57,-383.76 658.71,-369.73 640,-356 618.58,-340.28 595.47,-320.34 580.22,-306.71"/>
<polygon fill="midnightblue" stroke="midnightblue" points="582.39,-303.95 572.62,-299.86 577.7,-309.15 582.39,-303.95"/>
</g>
<!-- Node28 -->
<g id="node28" class="node">
<title>Node28</title>
<g id="a_node28"><a xlink:href="VLSender_8h.html" target="_top" xlink:title=" ">
<polygon fill="none" stroke="black" points="682,-280.5 682,-299.5 798,-299.5 798,-280.5 682,-280.5"/>
<text text-anchor="middle" x="740" y="-287.5" font-family="Helvetica,sans-Serif" font-size="10.00">Wireless/VLSender.h</text>
</a>
</g>
</g>
<!-- Node17&#45;&gt;Node28 -->
<g id="edge54" class="edge">
<title>Node17&#45;&gt;Node28</title>
<path fill="none" stroke="midnightblue" d="M710.55,-392.39C710.15,-379.75 710.3,-355.56 716,-336 718.85,-326.22 723.98,-316.15 728.77,-308.02"/>
<polygon fill="midnightblue" stroke="midnightblue" points="731.76,-309.84 734.08,-299.5 725.82,-306.14 731.76,-309.84"/>
</g>
<!-- Node29 -->
<g id="node29" class="node">
<title>Node29</title>
<g id="a_node29"><a xlink:href="Storage_8h.html" target="_top" xlink:title=" ">
<polygon fill="none" stroke="black" points="28,-168.5 28,-187.5 132,-187.5 132,-168.5 28,-168.5"/>
<text text-anchor="middle" x="80" y="-175.5" font-family="Helvetica,sans-Serif" font-size="10.00">Storage/Storage.h</text>
</a>
</g>
</g>
<!-- Node17&#45;&gt;Node29 -->
<g id="edge58" class="edge">
<title>Node17&#45;&gt;Node29</title>
<path fill="none" stroke="midnightblue" d="M656.97,-399.22C530.22,-394.66 221.42,-381.07 182,-356 123.42,-318.74 94.79,-234.97 84.56,-197.61"/>
<polygon fill="midnightblue" stroke="midnightblue" points="87.86,-196.4 81.96,-187.6 81.08,-198.16 87.86,-196.4"/>
</g>
<!-- Node30 -->
<g id="node30" class="node">
<title>Node30</title>
<g id="a_node30"><a xlink:href="Buttons_8h.html" target="_top" xlink:title=" ">
<polygon fill="none" stroke="black" points="191,-336.5 191,-355.5 295,-355.5 295,-336.5 191,-336.5"/>
<text text-anchor="middle" x="243" y="-343.5" font-family="Helvetica,sans-Serif" font-size="10.00">Buttons/Buttons.h</text>
</a>
</g>
</g>
<!-- Node17&#45;&gt;Node30 -->
<g id="edge60" class="edge">
<title>Node17&#45;&gt;Node30</title>
<path fill="none" stroke="midnightblue" d="M656.98,-395.37C579.77,-387.23 433.4,-371.44 309,-356 307.74,-355.84 306.47,-355.68 305.19,-355.52"/>
<polygon fill="midnightblue" stroke="midnightblue" points="305.59,-352.05 295.22,-354.24 304.69,-358.99 305.59,-352.05"/>
</g>
<!-- Node17&#45;&gt;Node32 -->
<g id="edge63" class="edge">
<title>Node17&#45;&gt;Node32</title>
<path fill="none" stroke="midnightblue" d="M765.02,-399.37C927.45,-394.26 1404.4,-377.57 1471,-356 1488.17,-350.44 1528.27,-323.04 1552.76,-305.64"/>
<polygon fill="midnightblue" stroke="midnightblue" points="1554.91,-308.4 1561.01,-299.74 1550.84,-302.71 1554.91,-308.4"/>
</g>
<!-- Node33 -->
<g id="node33" class="node">
<title>Node33</title>
<g id="a_node33"><a xlink:href="Timings_8h.html" target="_top" xlink:title=" ">
<polygon fill="none" stroke="black" points="1518,-336.5 1518,-355.5 1610,-355.5 1610,-336.5 1518,-336.5"/>
<text text-anchor="middle" x="1564" y="-343.5" font-family="Helvetica,sans-Serif" font-size="10.00">Time/Timings.h</text>
</a>
</g>
</g>
<!-- Node17&#45;&gt;Node33 -->
<g id="edge67" class="edge">
<title>Node17&#45;&gt;Node33</title>
<path fill="none" stroke="midnightblue" d="M765.46,-399.64C894.2,-396.05 1227.27,-384.55 1504,-356 1505.27,-355.87 1506.55,-355.73 1507.84,-355.59"/>
<polygon fill="midnightblue" stroke="midnightblue" points="1508.37,-359.05 1517.87,-354.36 1507.52,-352.1 1508.37,-359.05"/>
</g>
<!-- Node34 -->
<g id="node34" class="node">
<title>Node34</title>
<g id="a_node34"><a xlink:href="Serial_8h.html" target="_top" xlink:title=" ">
<polygon fill="none" stroke="black" points="188,-168.5 188,-187.5 272,-187.5 272,-168.5 188,-168.5"/>
<text text-anchor="middle" x="230" y="-175.5" font-family="Helvetica,sans-Serif" font-size="10.00">Serial/Serial.h</text>
</a>
</g>
</g>
<!-- Node17&#45;&gt;Node34 -->
<g id="edge70" class="edge">
<title>Node17&#45;&gt;Node34</title>
<path fill="none" stroke="midnightblue" d="M656.96,-393.83C535.08,-377.09 247.2,-334.31 220,-300 196.52,-270.38 210.84,-222.9 221.52,-197.1"/>
<polygon fill="midnightblue" stroke="midnightblue" points="224.8,-198.34 225.62,-187.78 218.39,-195.52 224.8,-198.34"/>
</g>
<!-- Node35 -->
<g id="node35" class="node">
<title>Node35</title>
<g id="a_node35"><a xlink:href="Modes_8h.html" target="_top" xlink:title=" ">
<polygon fill="none" stroke="black" points="892.5,-280.5 892.5,-299.5 985.5,-299.5 985.5,-280.5 892.5,-280.5"/>
<text text-anchor="middle" x="939" y="-287.5" font-family="Helvetica,sans-Serif" font-size="10.00">Modes/Modes.h</text>
</a>
</g>
</g>
<!-- Node17&#45;&gt;Node35 -->
<g id="edge72" class="edge">
<title>Node17&#45;&gt;Node35</title>
<path fill="none" stroke="midnightblue" d="M713.59,-392.32C718.25,-378.22 729.46,-350.46 749,-336 787.56,-307.46 841.54,-296.72 882.12,-292.83"/>
<polygon fill="midnightblue" stroke="midnightblue" points="882.46,-296.31 892.13,-291.98 881.87,-289.34 882.46,-296.31"/>
</g>
<!-- Node36 -->
<g id="node36" class="node">
<title>Node36</title>
<g id="a_node36"><a xlink:href="Menus_8h.html" target="_top" xlink:title=" ">
<polygon fill="none" stroke="black" points="1123.5,-336.5 1123.5,-355.5 1216.5,-355.5 1216.5,-336.5 1123.5,-336.5"/>
<text text-anchor="middle" x="1170" y="-343.5" font-family="Helvetica,sans-Serif" font-size="10.00">Menus/Menus.h</text>
</a>
</g>
</g>
<!-- Node17&#45;&gt;Node36 -->
<g id="edge79" class="edge">
<title>Node17&#45;&gt;Node36</title>
<path fill="none" stroke="midnightblue" d="M765,-394.65C852.42,-384.36 1024.11,-364.16 1113.26,-353.68"/>
<polygon fill="midnightblue" stroke="midnightblue" points="1113.92,-357.12 1123.45,-352.48 1113.11,-350.17 1113.92,-357.12"/>
</g>
<!-- Node37 -->
<g id="node37" class="node">
<title>Node37</title>
<g id="a_node37"><a xlink:href="Mode_8h.html" target="_top" xlink:title=" ">
<polygon fill="none" stroke="black" points="1198.5,-280.5 1198.5,-299.5 1295.5,-299.5 1295.5,-280.5 1198.5,-280.5"/>
<text text-anchor="middle" x="1247" y="-287.5" font-family="Helvetica,sans-Serif" font-size="10.00">../Modes/Mode.h</text>
</a>
</g>
</g>
<!-- Node17&#45;&gt;Node37 -->
<g id="edge87" class="edge">
<title>Node17&#45;&gt;Node37</title>
<path fill="none" stroke="midnightblue" d="M765.21,-399.57C889.97,-395.81 1189.43,-383.95 1225,-356 1238.89,-345.09 1244.07,-325.03 1245.97,-310.06"/>
<polygon fill="midnightblue" stroke="midnightblue" points="1249.48,-310.12 1246.87,-299.85 1242.5,-309.5 1249.48,-310.12"/>
</g>
<!-- Node18&#45;&gt;Node14 -->
<g id="edge32" class="edge">
<title>Node18&#45;&gt;Node14</title>
<path fill="none" stroke="midnightblue" d="M881.87,-336.49C915.58,-329.77 958.88,-318.38 994,-300 1018.33,-287.27 1041.76,-265.72 1056.26,-250.95"/>
<polygon fill="midnightblue" stroke="midnightblue" points="1058.96,-253.18 1063.34,-243.54 1053.9,-248.35 1058.96,-253.18"/>
</g>
<!-- Node19&#45;&gt;Node6 -->
<g id="edge34" class="edge">
<title>Node19&#45;&gt;Node6</title>
<path fill="none" stroke="midnightblue" d="M291.96,-280.46C295.42,-267.04 303.71,-240.82 319,-224 387.01,-149.19 423.1,-149.49 517,-112 562.39,-93.88 617.21,-81.43 654.33,-74.29"/>
<polygon fill="midnightblue" stroke="midnightblue" points="655.13,-77.71 664.31,-72.42 653.84,-70.83 655.13,-77.71"/>
</g>
<!-- Node20 -->
<g id="node20" class="node">
<title>Node20</title>
<g id="a_node20"><a xlink:href="BitStream_8h.html" target="_top" xlink:title=" ">
<polygon fill="none" stroke="black" points="412,-224.5 412,-243.5 526,-243.5 526,-224.5 412,-224.5"/>
<text text-anchor="middle" x="469" y="-231.5" font-family="Helvetica,sans-Serif" font-size="10.00">../Serial/BitStream.h</text>
</a>
</g>
</g>
<!-- Node19&#45;&gt;Node20 -->
<g id="edge35" class="edge">
<title>Node19&#45;&gt;Node20</title>
<path fill="none" stroke="midnightblue" d="M318.36,-280.44C348.74,-271.28 397.11,-256.69 430.82,-246.52"/>
<polygon fill="midnightblue" stroke="midnightblue" points="432.21,-249.76 440.77,-243.52 430.18,-243.05 432.21,-249.76"/>
</g>
<!-- Node21 -->
<g id="node21" class="node">
<title>Node21</title>
<g id="a_node21"><a xlink:href="IRConfig_8h.html" target="_top" xlink:title=" ">
<polygon fill="none" stroke="black" points="328,-224.5 328,-243.5 394,-243.5 394,-224.5 328,-224.5"/>
<text text-anchor="middle" x="361" y="-231.5" font-family="Helvetica,sans-Serif" font-size="10.00">IRConfig.h</text>
</a>
</g>
</g>
<!-- Node19&#45;&gt;Node21 -->
<g id="edge37" class="edge">
<title>Node19&#45;&gt;Node21</title>
<path fill="none" stroke="midnightblue" d="M301.41,-280.32C312.11,-272.18 328.34,-259.84 341.16,-250.09"/>
<polygon fill="midnightblue" stroke="midnightblue" points="343.54,-252.67 349.39,-243.83 339.31,-247.1 343.54,-252.67"/>
</g>
<!-- Node20&#45;&gt;Node6 -->
<g id="edge36" class="edge">
<title>Node20&#45;&gt;Node6</title>
<path fill="none" stroke="midnightblue" d="M471.53,-224.47C478.54,-202.36 500.35,-142.75 540,-112 573.1,-86.33 620.27,-75.3 654.26,-70.56"/>
<polygon fill="midnightblue" stroke="midnightblue" points="654.87,-74.02 664.35,-69.29 653.99,-67.07 654.87,-74.02"/>
</g>
<!-- Node22&#45;&gt;Node20 -->
<g id="edge47" class="edge">
<title>Node22&#45;&gt;Node20</title>
<path fill="none" stroke="midnightblue" d="M433.1,-280.08C439.24,-272.38 448.27,-261.03 455.74,-251.65"/>
<polygon fill="midnightblue" stroke="midnightblue" points="458.54,-253.75 462.03,-243.75 453.06,-249.39 458.54,-253.75"/>
</g>
<!-- Node22&#45;&gt;Node21 -->
<g id="edge48" class="edge">
<title>Node22&#45;&gt;Node21</title>
<path fill="none" stroke="midnightblue" d="M415.56,-280.32C405.85,-272.26 391.18,-260.08 379.5,-250.37"/>
<polygon fill="midnightblue" stroke="midnightblue" points="381.56,-247.53 371.63,-243.83 377.09,-252.92 381.56,-247.53"/>
</g>
<!-- Node22&#45;&gt;Node23 -->
<g id="edge39" class="edge">
<title>Node22&#45;&gt;Node23</title>
<path fill="none" stroke="midnightblue" d="M480.19,-280.44C540.98,-270.85 639.49,-255.29 704.01,-245.1"/>
<polygon fill="midnightblue" stroke="midnightblue" points="704.73,-248.53 714.06,-243.52 703.64,-241.62 704.73,-248.53"/>
</g>
<!-- Node23&#45;&gt;Node6 -->
<g id="edge40" class="edge">
<title>Node23&#45;&gt;Node6</title>
<path fill="none" stroke="midnightblue" d="M721.35,-224.49C700.47,-218.12 677.73,-207.07 665,-188 646.25,-159.9 653.49,-144.1 664,-112 667.49,-101.34 674.57,-91.12 681.29,-83.12"/>
<polygon fill="midnightblue" stroke="midnightblue" points="683.9,-85.44 687.98,-75.66 678.7,-80.76 683.9,-85.44"/>
</g>
<!-- Node23&#45;&gt;Node24 -->
<g id="edge41" class="edge">
<title>Node23&#45;&gt;Node24</title>
<path fill="none" stroke="midnightblue" d="M829.59,-229.44C944.02,-222.65 1197.15,-206.86 1410,-188 1422.21,-186.92 1435.41,-185.58 1447.64,-184.28"/>
<polygon fill="midnightblue" stroke="midnightblue" points="1448.08,-187.75 1457.64,-183.19 1447.32,-180.79 1448.08,-187.75"/>
</g>
<!-- Node24&#45;&gt;Node7 -->
<g id="edge42" class="edge">
<title>Node24&#45;&gt;Node7</title>
<path fill="none" stroke="midnightblue" d="M1472.45,-168.44C1449.97,-159.52 1414.51,-145.44 1389.02,-135.32"/>
<polygon fill="midnightblue" stroke="midnightblue" points="1390.03,-131.95 1379.45,-131.52 1387.45,-138.46 1390.03,-131.95"/>
</g>
<!-- Node24&#45;&gt;Node10 -->
<g id="edge43" class="edge">
<title>Node24&#45;&gt;Node10</title>
<path fill="none" stroke="midnightblue" d="M1515.19,-168.37C1541.43,-156.47 1580.51,-133.99 1562,-112 1536.82,-82.08 1429.58,-72.05 1360.93,-68.69"/>
<polygon fill="midnightblue" stroke="midnightblue" points="1360.83,-65.19 1350.68,-68.23 1360.51,-72.18 1360.83,-65.19"/>
</g>
<!-- Node25 -->
<g id="node25" class="node">
<title>Node25</title>
<g id="a_node25"><a xlink:href="ErrorBlinker_8h.html" target="_top" xlink:title=" ">
<polygon fill="none" stroke="black" points="1442.5,-112.5 1442.5,-131.5 1553.5,-131.5 1553.5,-112.5 1442.5,-112.5"/>
<text text-anchor="middle" x="1498" y="-119.5" font-family="Helvetica,sans-Serif" font-size="10.00">../Log/ErrorBlinker.h</text>
</a>
</g>
</g>
<!-- Node24&#45;&gt;Node25 -->
<g id="edge44" class="edge">
<title>Node24&#45;&gt;Node25</title>
<path fill="none" stroke="midnightblue" d="M1494.66,-168.08C1495.18,-161.01 1495.94,-150.86 1496.59,-141.99"/>
<polygon fill="midnightblue" stroke="midnightblue" points="1500.1,-141.98 1497.35,-131.75 1493.12,-141.47 1500.1,-141.98"/>
</g>
<!-- Node25&#45;&gt;Node6 -->
<g id="edge45" class="edge">
<title>Node25&#45;&gt;Node6</title>
<path fill="none" stroke="midnightblue" d="M1442.25,-113.49C1437.44,-112.95 1432.64,-112.44 1428,-112 1167.42,-87.26 853.23,-73.21 740.15,-68.65"/>
<polygon fill="midnightblue" stroke="midnightblue" points="739.98,-65.15 729.85,-68.24 739.7,-72.14 739.98,-65.15"/>
</g>
<!-- Node25&#45;&gt;Node10 -->
<g id="edge46" class="edge">
<title>Node25&#45;&gt;Node10</title>
<path fill="none" stroke="midnightblue" d="M1466.94,-112.44C1433.4,-103.2 1379.8,-88.44 1342.86,-78.26"/>
<polygon fill="midnightblue" stroke="midnightblue" points="1343.48,-74.8 1332.91,-75.52 1341.62,-81.55 1343.48,-74.8"/>
</g>
<!-- Node26&#45;&gt;Node6 -->
<g id="edge50" class="edge">
<title>Node26&#45;&gt;Node6</title>
<path fill="none" stroke="midnightblue" d="M566.38,-280.4C576.99,-253.9 611.51,-171.67 654,-112 661.5,-101.46 671.4,-90.94 679.8,-82.72"/>
<polygon fill="midnightblue" stroke="midnightblue" points="682.43,-85.04 687.27,-75.62 677.61,-79.97 682.43,-85.04"/>
</g>
<!-- Node26&#45;&gt;Node20 -->
<g id="edge51" class="edge">
<title>Node26&#45;&gt;Node20</title>
<path fill="none" stroke="midnightblue" d="M547.9,-280.32C533.1,-271.82 510.31,-258.73 493.02,-248.8"/>
<polygon fill="midnightblue" stroke="midnightblue" points="494.48,-245.6 484.07,-243.65 490.99,-251.67 494.48,-245.6"/>
</g>
<!-- Node27 -->
<g id="node27" class="node">
<title>Node27</title>
<g id="a_node27"><a xlink:href="VLConfig_8h.html" target="_top" xlink:title=" ">
<polygon fill="none" stroke="black" points="620,-224.5 620,-243.5 688,-243.5 688,-224.5 620,-224.5"/>
<text text-anchor="middle" x="654" y="-231.5" font-family="Helvetica,sans-Serif" font-size="10.00">VLConfig.h</text>
</a>
</g>
</g>
<!-- Node26&#45;&gt;Node27 -->
<g id="edge52" class="edge">
<title>Node26&#45;&gt;Node27</title>
<path fill="none" stroke="midnightblue" d="M577.62,-280.32C591.95,-271.82 614.01,-258.73 630.75,-248.8"/>
<polygon fill="midnightblue" stroke="midnightblue" points="632.6,-251.77 639.42,-243.65 629.03,-245.75 632.6,-251.77"/>
</g>
<!-- Node27&#45;&gt;Node10 -->
<g id="edge53" class="edge">
<title>Node27&#45;&gt;Node10</title>
<path fill="none" stroke="midnightblue" d="M688.22,-225.23C733.37,-214.88 810.36,-196.83 838,-188 925.03,-160.19 940.97,-136.46 1029,-112 1101.54,-91.84 1187.6,-79.5 1243.42,-72.96"/>
<polygon fill="midnightblue" stroke="midnightblue" points="1243.95,-76.42 1253.48,-71.8 1243.15,-69.47 1243.95,-76.42"/>
</g>
<!-- Node28&#45;&gt;Node20 -->
<g id="edge56" class="edge">
<title>Node28&#45;&gt;Node20</title>
<path fill="none" stroke="midnightblue" d="M697.06,-280.44C649.49,-270.96 572.76,-255.67 521.61,-245.48"/>
<polygon fill="midnightblue" stroke="midnightblue" points="522.23,-242.04 511.74,-243.52 520.86,-248.9 522.23,-242.04"/>
</g>
<!-- Node28&#45;&gt;Node23 -->
<g id="edge55" class="edge">
<title>Node28&#45;&gt;Node23</title>
<path fill="none" stroke="midnightblue" d="M744.62,-280.08C748.46,-272.69 754.02,-261.95 758.76,-252.81"/>
<polygon fill="midnightblue" stroke="midnightblue" points="761.97,-254.24 763.46,-243.75 755.75,-251.02 761.97,-254.24"/>
</g>
<!-- Node28&#45;&gt;Node27 -->
<g id="edge57" class="edge">
<title>Node28&#45;&gt;Node27</title>
<path fill="none" stroke="midnightblue" d="M726.18,-280.32C712.77,-271.9 692.18,-258.97 676.41,-249.07"/>
<polygon fill="midnightblue" stroke="midnightblue" points="678.11,-246.01 667.78,-243.65 674.39,-251.94 678.11,-246.01"/>
</g>
<!-- Node29&#45;&gt;Node6 -->
<g id="edge59" class="edge">
<title>Node29&#45;&gt;Node6</title>
<path fill="none" stroke="midnightblue" d="M83.48,-168.39C89.86,-153.86 104.94,-124.8 128,-112 173.62,-86.67 529.3,-72.56 653.99,-68.35"/>
<polygon fill="midnightblue" stroke="midnightblue" points="654.41,-71.84 664.29,-68.01 654.17,-64.85 654.41,-71.84"/>
</g>
<!-- Node31 -->
<g id="node31" class="node">
<title>Node31</title>
<g id="a_node31"><a xlink:href="Button_8h.html" target="_top" xlink:title=" ">
<polygon fill="none" stroke="black" points="137,-112.5 137,-131.5 195,-131.5 195,-112.5 137,-112.5"/>
<text text-anchor="middle" x="166" y="-119.5" font-family="Helvetica,sans-Serif" font-size="10.00">Button.h</text>
</a>
</g>
</g>
<!-- Node30&#45;&gt;Node31 -->
<g id="edge61" class="edge">
<title>Node30&#45;&gt;Node31</title>
<path fill="none" stroke="midnightblue" d="M226.29,-336.35C213.27,-328.66 195.95,-316.15 187,-300 158.56,-248.67 160.73,-176.26 163.77,-142.17"/>
<polygon fill="midnightblue" stroke="midnightblue" points="167.29,-142.11 164.83,-131.8 160.33,-141.39 167.29,-142.11"/>
</g>
<!-- Node31&#45;&gt;Node6 -->
<g id="edge62" class="edge">
<title>Node31&#45;&gt;Node6</title>
<path fill="none" stroke="midnightblue" d="M195.21,-116.77C206.67,-115.17 219.94,-113.41 232,-112 387.13,-93.92 571.98,-77.58 654.06,-70.59"/>
<polygon fill="midnightblue" stroke="midnightblue" points="654.59,-74.06 664.26,-69.73 654,-67.08 654.59,-74.06"/>
</g>
<!-- Node32&#45;&gt;Node5 -->
<g id="edge66" class="edge">
<title>Node32&#45;&gt;Node5</title>
<path fill="none" stroke="midnightblue" d="M1534.65,-280.44C1492.53,-271.04 1424.79,-255.93 1379.13,-245.74"/>
<polygon fill="midnightblue" stroke="midnightblue" points="1379.69,-242.28 1369.17,-243.52 1378.16,-249.11 1379.69,-242.28"/>
</g>
<!-- Node32&#45;&gt;Node6 -->
<g id="edge64" class="edge">
<title>Node32&#45;&gt;Node6</title>
<path fill="none" stroke="midnightblue" d="M1573.15,-280.37C1573.06,-258.53 1569.77,-200.46 1539,-168 1504.77,-131.89 1478.71,-151.65 1433,-132 1415.47,-124.46 1413.37,-117.17 1395,-112 1270.81,-77.04 871.87,-69.11 739.86,-67.43"/>
<polygon fill="midnightblue" stroke="midnightblue" points="739.78,-63.93 729.74,-67.3 739.69,-70.93 739.78,-63.93"/>
</g>
<!-- Node32&#45;&gt;Node10 -->
<g id="edge65" class="edge">
<title>Node32&#45;&gt;Node10</title>
<path fill="none" stroke="midnightblue" d="M1578.37,-280.34C1595.05,-252.22 1642.34,-162.4 1599,-112 1568.9,-77 1438.37,-68.89 1360.73,-67.21"/>
<polygon fill="midnightblue" stroke="midnightblue" points="1360.67,-63.71 1350.61,-67.02 1360.54,-70.71 1360.67,-63.71"/>
</g>
<!-- Node33&#45;&gt;Node10 -->
<g id="edge69" class="edge">
<title>Node33&#45;&gt;Node10</title>
<path fill="none" stroke="midnightblue" d="M1590.39,-336.47C1628.92,-322.16 1696,-289.44 1696,-235 1696,-235 1696,-235 1696,-177 1696,-131.87 1659.24,-130.32 1618,-112 1573.17,-92.08 1439.2,-78.19 1360.83,-71.52"/>
<polygon fill="midnightblue" stroke="midnightblue" points="1360.89,-68.01 1350.63,-70.66 1360.3,-74.98 1360.89,-68.01"/>
</g>
<!-- Node33&#45;&gt;Node32 -->
<g id="edge68" class="edge">
<title>Node33&#45;&gt;Node32</title>
<path fill="none" stroke="midnightblue" d="M1565.49,-336.08C1566.68,-328.93 1568.39,-318.64 1569.88,-309.69"/>
<polygon fill="midnightblue" stroke="midnightblue" points="1573.35,-310.19 1571.54,-299.75 1566.45,-309.04 1573.35,-310.19"/>
</g>
<!-- Node34&#45;&gt;Node6 -->
<g id="edge71" class="edge">
<title>Node34&#45;&gt;Node6</title>
<path fill="none" stroke="midnightblue" d="M234.51,-168.44C242.63,-153.98 261.22,-125.04 286,-112 349.15,-78.77 562.15,-70.01 654.12,-67.76"/>
<polygon fill="midnightblue" stroke="midnightblue" points="654.28,-71.26 664.2,-67.53 654.12,-64.26 654.28,-71.26"/>
</g>
<!-- Node35&#45;&gt;Node6 -->
<g id="edge78" class="edge">
<title>Node35&#45;&gt;Node6</title>
<path fill="none" stroke="midnightblue" d="M932.59,-280.41C921.71,-266.44 898.23,-238.86 872,-224 817.97,-193.39 782.18,-230.6 737,-188 708.26,-160.89 700.15,-112.73 697.88,-86.07"/>
<polygon fill="midnightblue" stroke="midnightblue" points="701.35,-85.54 697.2,-75.79 694.36,-86 701.35,-85.54"/>
</g>
<!-- Node35&#45;&gt;Node8 -->
<g id="edge76" class="edge">
<title>Node35&#45;&gt;Node8</title>
<path fill="none" stroke="midnightblue" d="M937.35,-280.15C934.32,-266.32 926.6,-239.54 910,-224 890.67,-205.91 863.46,-194.95 839.63,-188.39"/>
<polygon fill="midnightblue" stroke="midnightblue" points="840.22,-184.93 829.66,-185.84 838.48,-191.71 840.22,-184.93"/>
</g>
<!-- Node35&#45;&gt;Node9 -->
<g id="edge74" class="edge">
<title>Node35&#45;&gt;Node9</title>
<path fill="none" stroke="midnightblue" d="M946.18,-280.4C956.8,-267.79 977.44,-243.63 996,-224 1025.47,-192.84 1061.61,-158.17 1082.3,-138.63"/>
<polygon fill="midnightblue" stroke="midnightblue" points="1084.79,-141.09 1089.68,-131.69 1080,-136 1084.79,-141.09"/>
</g>
<!-- Node35&#45;&gt;Node10 -->
<g id="edge77" class="edge">
<title>Node35&#45;&gt;Node10</title>
<path fill="none" stroke="midnightblue" d="M949.57,-280.48C969.46,-264.61 1011.96,-231.46 1029,-224 1102.94,-191.64 1138.29,-230.35 1207,-188 1248.53,-162.4 1279.16,-111.73 1293.3,-84.8"/>
<polygon fill="midnightblue" stroke="midnightblue" points="1296.5,-86.24 1297.9,-75.74 1290.25,-83.07 1296.5,-86.24"/>
</g>
<!-- Node35&#45;&gt;Node14 -->
<g id="edge75" class="edge">
<title>Node35&#45;&gt;Node14</title>
<path fill="none" stroke="midnightblue" d="M959.92,-280.44C981.74,-271.52 1016.15,-257.44 1040.89,-247.32"/>
<polygon fill="midnightblue" stroke="midnightblue" points="1042.25,-250.54 1050.18,-243.52 1039.6,-244.06 1042.25,-250.54"/>
</g>
<!-- Node35&#45;&gt;Node23 -->
<g id="edge73" class="edge">
<title>Node35&#45;&gt;Node23</title>
<path fill="none" stroke="midnightblue" d="M911.9,-280.44C883.01,-271.32 837.08,-256.81 804.89,-246.65"/>
<polygon fill="midnightblue" stroke="midnightblue" points="805.56,-243.19 794.97,-243.52 803.45,-249.87 805.56,-243.19"/>
</g>
<!-- Node36&#45;&gt;Node5 -->
<g id="edge82" class="edge">
<title>Node36&#45;&gt;Node5</title>
<path fill="none" stroke="midnightblue" d="M1216.55,-339.23C1244.89,-333.54 1280.13,-322.26 1304,-300 1317.1,-287.78 1324.05,-268.24 1327.6,-253.76"/>
<polygon fill="midnightblue" stroke="midnightblue" points="1331.04,-254.4 1329.7,-243.89 1324.2,-252.95 1331.04,-254.4"/>
</g>
<!-- Node36&#45;&gt;Node6 -->
<g id="edge80" class="edge">
<title>Node36&#45;&gt;Node6</title>
<path fill="none" stroke="midnightblue" d="M1123.49,-342.48C1052.51,-337.86 921.35,-326.01 883,-300 850.51,-277.97 868.92,-248.19 838,-224 794.14,-189.69 758.37,-226.34 718,-188 690.13,-161.53 691.1,-112.35 694.11,-85.56"/>
<polygon fill="midnightblue" stroke="midnightblue" points="697.59,-85.96 695.45,-75.58 690.65,-85.03 697.59,-85.96"/>
</g>
<!-- Node36&#45;&gt;Node9 -->
<g id="edge81" class="edge">
<title>Node36&#45;&gt;Node9</title>
<path fill="none" stroke="midnightblue" d="M1170.07,-336.47C1169.89,-315.79 1167.25,-261.93 1146,-224 1134.47,-203.42 1117.77,-208.99 1107,-188 1099.62,-173.62 1097.97,-155.16 1097.96,-141.59"/>
<polygon fill="midnightblue" stroke="midnightblue" points="1101.46,-141.63 1098.25,-131.54 1094.47,-141.43 1101.46,-141.63"/>
</g>
<!-- Node36&#45;&gt;Node37 -->
<g id="edge83" class="edge">
<title>Node36&#45;&gt;Node37</title>
<path fill="none" stroke="midnightblue" d="M1182.37,-336.32C1194.16,-328.06 1212.13,-315.45 1226.14,-305.63"/>
<polygon fill="midnightblue" stroke="midnightblue" points="1228.48,-308.26 1234.66,-299.65 1224.46,-302.53 1228.48,-308.26"/>
</g>
<!-- Node37&#45;&gt;Node5 -->
<g id="edge84" class="edge">
<title>Node37&#45;&gt;Node5</title>
<path fill="none" stroke="midnightblue" d="M1260.5,-280.32C1273.6,-271.9 1293.71,-258.97 1309.11,-249.07"/>
<polygon fill="midnightblue" stroke="midnightblue" points="1311.02,-252.01 1317.54,-243.65 1307.23,-246.12 1311.02,-252.01"/>
</g>
<!-- Node37&#45;&gt;Node10 -->
<g id="edge86" class="edge">
<title>Node37&#45;&gt;Node10</title>
<path fill="none" stroke="midnightblue" d="M1249.16,-280.3C1257.27,-247.56 1286.05,-131.38 1297.38,-85.67"/>
<polygon fill="midnightblue" stroke="midnightblue" points="1300.79,-86.43 1299.8,-75.88 1294,-84.75 1300.79,-86.43"/>
</g>
<!-- Node37&#45;&gt;Node14 -->
<g id="edge85" class="edge">
<title>Node37&#45;&gt;Node14</title>
<path fill="none" stroke="midnightblue" d="M1219.11,-280.44C1189.25,-271.28 1141.69,-256.69 1108.54,-246.52"/>
<polygon fill="midnightblue" stroke="midnightblue" points="1109.34,-243.1 1098.76,-243.52 1107.29,-249.8 1109.34,-243.1"/>
</g>
</g>
</svg>
