<?xml version="1.0" encoding="UTF-8" standalone="no"?>
<!DOCTYPE svg PUBLIC "-//W3C//DTD SVG 1.1//EN"
 "http://www.w3.org/Graphics/SVG/1.1/DTD/svg11.dtd">
<!-- Generated by graphviz version 2.43.0 (0)
 -->
<!-- Title: VortexEngine/src/Buttons/Buttons.cpp Pages: 1 -->
<!--zoomable 431 -->
<svg id="main" version="1.1" xmlns="http://www.w3.org/2000/svg" xmlns:xlink="http://www.w3.org/1999/xlink" xml:space="preserve" onload="init(evt)">
<style type="text/css"><![CDATA[
.edge:hover path { stroke: red; }
.edge:hover polygon { stroke: red; fill: red; }
]]></style>
<script type="text/javascript"><![CDATA[
var edges = document.getElementsByTagName('g');
if (edges && edges.length) {
  for (var i=0;i<edges.length;i++) {
    if (edges[i].id.substr(0,4)=='edge') {
      edges[i].setAttribute('class','edge');
    }
  }
}
]]></script>
        <defs>
                <circle id="rim" cx="0" cy="0" r="7"/>
                <circle id="rim2" cx="0" cy="0" r="3.5"/>
                <g id="zoomPlus">
                        <use xlink:href="#rim" target="_top" fill="#404040">
                                <set attributeName="fill" to="#808080" begin="zoomplus.mouseover" end="zoomplus.mouseout"/>
                        </use>
                        <path d="M-4,0h8M0,-4v8" fill="none" stroke="white" stroke-width="1.5" pointer-events="none"/>
                </g>
                <g id="zoomMin">
                        <use xlink:href="#rim" target="_top" fill="#404040">
                                <set attributeName="fill" to="#808080" begin="zoomminus.mouseover" end="zoomminus.mouseout"/>
                        </use>
                        <path d="M-4,0h8" fill="none" stroke="white" stroke-width="1.5" pointer-events="none"/>
                </g>
                <g id="dirArrow">
                        <path fill="none" stroke="white" stroke-width="1.5" d="M0,-3.0v7 M-2.5,-0.5L0,-3.0L2.5,-0.5"/>
                </g>
               <g id="resetDef">
                       <use xlink:href="#rim2" target="_top" fill="#404040">
                               <set attributeName="fill" to="#808080" begin="reset.mouseover" end="reset.mouseout"/>
                       </use>
               </g>
        </defs>

<script type="text/javascript">
var viewWidth = 528;
var viewHeight = 431;
var sectionId = 'dynsection-0';
</script>
<script xlink:href="svgpan.js" target="_top"/>
<svg id="graph" class="graph">
<g id="viewport">
<title>VortexEngine/src/Buttons/Buttons.cpp</title>
<!-- Node1 -->
<g id="node1" class="node">
<title>Node1</title>
<g id="a_node1"><a xlink:title=" ">
<polygon fill="#bfbfbf" stroke="black" points="154.5,-392.5 154.5,-422.5 293.5,-422.5 293.5,-392.5 154.5,-392.5"/>
<text text-anchor="start" x="162.5" y="-410.5" font-family="Helvetica,sans-Serif" font-size="10.00">VortexEngine/src/Buttons</text>
<text text-anchor="middle" x="224" y="-399.5" font-family="Helvetica,sans-Serif" font-size="10.00">/Buttons.cpp</text>
</a>
</g>
</g>
<!-- Node2 -->
<g id="node2" class="node">
<title>Node2</title>
<g id="a_node2"><a xlink:href="Buttons_8h.html" target="_top" target="_top" xlink:title=" ">
<polygon fill="none" stroke="black" points="266.5,-336.5 266.5,-355.5 329.5,-355.5 329.5,-336.5 266.5,-336.5"/>
<text text-anchor="middle" x="298" y="-343.5" font-family="Helvetica,sans-Serif" font-size="10.00">Buttons.h</text>
</a>
</g>
</g>
<!-- Node1&#45;&gt;Node2 -->
<g id="edge1" class="edge">
<title>Node1&#45;&gt;Node2</title>
<path fill="none" stroke="midnightblue" d="M241.54,-392.4C252.84,-383.31 267.54,-371.49 279.11,-362.19"/>
<polygon fill="midnightblue" stroke="midnightblue" points="281.63,-364.65 287.23,-355.66 277.25,-359.2 281.63,-364.65"/>
</g>
<!-- Node5 -->
<g id="node5" class="node">
<title>Node5</title>
<g id="a_node5"><a xlink:href="TimeControl_8h.html" target="_top" target="_top" xlink:title=" ">
<polygon fill="none" stroke="black" points="124,-280.5 124,-299.5 246,-299.5 246,-280.5 124,-280.5"/>
<text text-anchor="middle" x="185" y="-287.5" font-family="Helvetica,sans-Serif" font-size="10.00">../Time/TimeControl.h</text>
</a>
</g>
</g>
<!-- Node1&#45;&gt;Node5 -->
<g id="edge4" class="edge">
<title>Node1&#45;&gt;Node5</title>
<path fill="none" stroke="midnightblue" d="M220.85,-392.26C217.51,-377.88 211.78,-355.12 205,-336 201.79,-326.93 197.53,-317.15 193.78,-309.02"/>
<polygon fill="midnightblue" stroke="midnightblue" points="196.85,-307.33 189.4,-299.8 190.53,-310.33 196.85,-307.33"/>
</g>
<!-- Node13 -->
<g id="node13" class="node">
<title>Node13</title>
<g id="a_node13"><a xlink:href="Timings_8h.html" target="_top" target="_top" xlink:title=" ">
<polygon fill="none" stroke="black" points="94.5,-336.5 94.5,-355.5 195.5,-355.5 195.5,-336.5 94.5,-336.5"/>
<text text-anchor="middle" x="145" y="-343.5" font-family="Helvetica,sans-Serif" font-size="10.00">../Time/Timings.h</text>
</a>
</g>
</g>
<!-- Node1&#45;&gt;Node13 -->
<g id="edge20" class="edge">
<title>Node1&#45;&gt;Node13</title>
<path fill="none" stroke="midnightblue" d="M205.28,-392.4C193.09,-383.22 177.21,-371.26 164.81,-361.92"/>
<polygon fill="midnightblue" stroke="midnightblue" points="166.59,-358.88 156.5,-355.66 162.38,-364.47 166.59,-358.88"/>
</g>
<!-- Node3 -->
<g id="node3" class="node">
<title>Node3</title>
<g id="a_node3"><a xlink:href="Button_8h.html" target="_top" target="_top" xlink:title=" ">
<polygon fill="none" stroke="black" points="462,-224.5 462,-243.5 520,-243.5 520,-224.5 462,-224.5"/>
<text text-anchor="middle" x="491" y="-231.5" font-family="Helvetica,sans-Serif" font-size="10.00">Button.h</text>
</a>
</g>
</g>
<!-- Node2&#45;&gt;Node3 -->
<g id="edge2" class="edge">
<title>Node2&#45;&gt;Node3</title>
<path fill="none" stroke="midnightblue" d="M313.14,-336.37C346.55,-317.33 426.76,-271.62 467.05,-248.65"/>
<polygon fill="midnightblue" stroke="midnightblue" points="468.97,-251.58 475.93,-243.59 465.5,-245.5 468.97,-251.58"/>
</g>
<!-- Node4 -->
<g id="node4" class="node">
<title>Node4</title>
<g id="a_node4"><a xlink:title=" ">
<polygon fill="none" stroke="#bfbfbf" points="363.5,-56.5 363.5,-75.5 428.5,-75.5 428.5,-56.5 363.5,-56.5"/>
<text text-anchor="middle" x="396" y="-63.5" font-family="Helvetica,sans-Serif" font-size="10.00">inttypes.h</text>
</a>
</g>
</g>
<!-- Node3&#45;&gt;Node4 -->
<g id="edge3" class="edge">
<title>Node3&#45;&gt;Node4</title>
<path fill="none" stroke="midnightblue" d="M489.52,-224.39C485.61,-203.56 473.53,-149.37 448,-112 439.9,-100.14 427.92,-89.49 417.51,-81.53"/>
<polygon fill="midnightblue" stroke="midnightblue" points="419.39,-78.57 409.25,-75.51 415.27,-84.23 419.39,-78.57"/>
</g>
<!-- Node5&#45;&gt;Node4 -->
<g id="edge5" class="edge">
<title>Node5&#45;&gt;Node4</title>
<path fill="none" stroke="midnightblue" d="M203.72,-280.41C244.34,-260.69 340.4,-207.95 384,-132 392.12,-117.85 394.92,-99.37 395.81,-85.73"/>
<polygon fill="midnightblue" stroke="midnightblue" points="399.31,-85.73 396.18,-75.61 392.32,-85.48 399.31,-85.73"/>
</g>
<!-- Node6 -->
<g id="node6" class="node">
<title>Node6</title>
<g id="a_node6"><a xlink:href="VortexConfig_8h.html" target="_top" target="_top" xlink:title=" ">
<polygon fill="none" stroke="black" points="46.5,-56.5 46.5,-75.5 143.5,-75.5 143.5,-56.5 46.5,-56.5"/>
<text text-anchor="middle" x="95" y="-63.5" font-family="Helvetica,sans-Serif" font-size="10.00">../VortexConfig.h</text>
</a>
</g>
</g>
<!-- Node5&#45;&gt;Node6 -->
<g id="edge6" class="edge">
<title>Node5&#45;&gt;Node6</title>
<path fill="none" stroke="midnightblue" d="M165.06,-280.49C134.92,-266.37 78.94,-234.93 57,-188 40.37,-152.43 65.35,-107.7 82.04,-83.83"/>
<polygon fill="midnightblue" stroke="midnightblue" points="85.05,-85.64 88.13,-75.5 79.4,-81.51 85.05,-85.64"/>
</g>
<!-- Node8 -->
<g id="node8" class="node">
<title>Node8</title>
<g id="a_node8"><a xlink:href="LedTypes_8h.html" target="_top" target="_top" xlink:title=" ">
<polygon fill="none" stroke="black" points="132.5,-224.5 132.5,-243.5 237.5,-243.5 237.5,-224.5 132.5,-224.5"/>
<text text-anchor="middle" x="185" y="-231.5" font-family="Helvetica,sans-Serif" font-size="10.00">../Leds/LedTypes.h</text>
</a>
</g>
</g>
<!-- Node5&#45;&gt;Node8 -->
<g id="edge8" class="edge">
<title>Node5&#45;&gt;Node8</title>
<path fill="none" stroke="midnightblue" d="M185,-280.08C185,-273.01 185,-262.86 185,-253.99"/>
<polygon fill="midnightblue" stroke="midnightblue" points="188.5,-253.75 185,-243.75 181.5,-253.75 188.5,-253.75"/>
</g>
<!-- Node7 -->
<g id="node7" class="node">
<title>Node7</title>
<g id="a_node7"><a xlink:href="ColorConstants_8h.html" target="_top" target="_top" xlink:title=" ">
<polygon fill="none" stroke="black" points="105,-0.5 105,-19.5 239,-19.5 239,-0.5 105,-0.5"/>
<text text-anchor="middle" x="172" y="-7.5" font-family="Helvetica,sans-Serif" font-size="10.00">Colors/ColorConstants.h</text>
</a>
</g>
</g>
<!-- Node6&#45;&gt;Node7 -->
<g id="edge7" class="edge">
<title>Node6&#45;&gt;Node7</title>
<path fill="none" stroke="midnightblue" d="M107.37,-56.32C119.16,-48.06 137.13,-35.45 151.14,-25.63"/>
<polygon fill="midnightblue" stroke="midnightblue" points="153.48,-28.26 159.66,-19.65 149.46,-22.53 153.48,-28.26"/>
</g>
<!-- Node8&#45;&gt;Node4 -->
<g id="edge9" class="edge">
<title>Node8&#45;&gt;Node4</title>
<path fill="none" stroke="midnightblue" d="M210.01,-224.46C247.63,-210.48 319.07,-179.45 363,-132 375.47,-118.53 384.4,-99.46 389.8,-85.46"/>
<polygon fill="midnightblue" stroke="midnightblue" points="393.14,-86.51 393.24,-75.92 386.56,-84.14 393.14,-86.51"/>
</g>
<!-- Node8&#45;&gt;Node6 -->
<g id="edge19" class="edge">
<title>Node8&#45;&gt;Node6</title>
<path fill="none" stroke="midnightblue" d="M177.48,-224.43C163.18,-207.75 131.94,-169.27 114,-132 106.83,-117.1 101.8,-98.96 98.73,-85.63"/>
<polygon fill="midnightblue" stroke="midnightblue" points="102.13,-84.78 96.6,-75.74 95.28,-86.26 102.13,-84.78"/>
</g>
<!-- Node9 -->
<g id="node9" class="node">
<title>Node9</title>
<g id="a_node9"><a xlink:title=" ">
<polygon fill="none" stroke="#bfbfbf" points="66,-168.5 66,-187.5 122,-187.5 122,-168.5 66,-168.5"/>
<text text-anchor="middle" x="94" y="-175.5" font-family="Helvetica,sans-Serif" font-size="10.00">stdarg.h</text>
</a>
</g>
</g>
<!-- Node8&#45;&gt;Node9 -->
<g id="edge10" class="edge">
<title>Node8&#45;&gt;Node9</title>
<path fill="none" stroke="midnightblue" d="M170.38,-224.32C156.05,-215.82 133.99,-202.73 117.25,-192.8"/>
<polygon fill="midnightblue" stroke="midnightblue" points="118.97,-189.75 108.58,-187.65 115.4,-195.77 118.97,-189.75"/>
</g>
<!-- Node10 -->
<g id="node10" class="node">
<title>Node10</title>
<g id="a_node10"><a xlink:href="Leds_8h.html" target="_top" target="_top" xlink:title=" ">
<polygon fill="none" stroke="black" points="178.5,-168.5 178.5,-187.5 261.5,-187.5 261.5,-168.5 178.5,-168.5"/>
<text text-anchor="middle" x="220" y="-175.5" font-family="Helvetica,sans-Serif" font-size="10.00">../Leds/Leds.h</text>
</a>
</g>
</g>
<!-- Node8&#45;&gt;Node10 -->
<g id="edge11" class="edge">
<title>Node8&#45;&gt;Node10</title>
<path fill="none" stroke="midnightblue" d="M190.78,-224.08C195.67,-216.53 202.83,-205.49 208.83,-196.23"/>
<polygon fill="midnightblue" stroke="midnightblue" points="211.83,-198.05 214.33,-187.75 205.95,-194.24 211.83,-198.05"/>
</g>
<!-- Node10&#45;&gt;Node4 -->
<g id="edge12" class="edge">
<title>Node10&#45;&gt;Node4</title>
<path fill="none" stroke="midnightblue" d="M255.77,-168.43C280.62,-161.34 313.68,-149.56 339,-132 357.62,-119.09 374.1,-98.81 384.49,-84.34"/>
<polygon fill="midnightblue" stroke="midnightblue" points="387.58,-86.01 390.4,-75.8 381.83,-82.03 387.58,-86.01"/>
</g>
<!-- Node10&#45;&gt;Node6 -->
<g id="edge17" class="edge">
<title>Node10&#45;&gt;Node6</title>
<path fill="none" stroke="midnightblue" d="M195.54,-168.41C177,-160.98 151.77,-148.77 134,-132 119.83,-118.63 109,-98.98 102.39,-84.79"/>
<polygon fill="midnightblue" stroke="midnightblue" points="105.57,-83.33 98.34,-75.59 99.17,-86.15 105.57,-83.33"/>
</g>
<!-- Node11 -->
<g id="node11" class="node">
<title>Node11</title>
<g id="a_node11"><a xlink:href="ColorTypes_8h.html" target="_top" target="_top" xlink:title=" ">
<polygon fill="none" stroke="black" points="208,-112.5 208,-131.5 330,-131.5 330,-112.5 208,-112.5"/>
<text text-anchor="middle" x="269" y="-119.5" font-family="Helvetica,sans-Serif" font-size="10.00">../Colors/ColorTypes.h</text>
</a>
</g>
</g>
<!-- Node10&#45;&gt;Node11 -->
<g id="edge13" class="edge">
<title>Node10&#45;&gt;Node11</title>
<path fill="none" stroke="midnightblue" d="M228.09,-168.08C235.16,-160.3 245.59,-148.8 254.15,-139.37"/>
<polygon fill="midnightblue" stroke="midnightblue" points="256.93,-141.51 261.06,-131.75 251.75,-136.8 256.93,-141.51"/>
</g>
<!-- Node12 -->
<g id="node12" class="node">
<title>Node12</title>
<g id="a_node12"><a xlink:title=" ">
<polygon fill="none" stroke="#bfbfbf" points="142.5,-112.5 142.5,-131.5 189.5,-131.5 189.5,-112.5 142.5,-112.5"/>
<text text-anchor="middle" x="166" y="-119.5" font-family="Helvetica,sans-Serif" font-size="10.00">vector</text>
</a>
</g>
</g>
<!-- Node10&#45;&gt;Node12 -->
<g id="edge18" class="edge">
<title>Node10&#45;&gt;Node12</title>
<path fill="none" stroke="midnightblue" d="M211.08,-168.08C203.22,-160.22 191.57,-148.57 182.08,-139.08"/>
<polygon fill="midnightblue" stroke="midnightblue" points="184.3,-136.35 174.75,-131.75 179.35,-141.3 184.3,-136.35"/>
</g>
<!-- Node11&#45;&gt;Node4 -->
<g id="edge14" class="edge">
<title>Node11&#45;&gt;Node4</title>
<path fill="none" stroke="midnightblue" d="M289.12,-112.44C310.02,-103.56 342.93,-89.56 366.72,-79.45"/>
<polygon fill="midnightblue" stroke="midnightblue" points="368.14,-82.65 375.97,-75.52 365.4,-76.21 368.14,-82.65"/>
</g>
<!-- Node11&#45;&gt;Node6 -->
<g id="edge15" class="edge">
<title>Node11&#45;&gt;Node6</title>
<path fill="none" stroke="midnightblue" d="M241.43,-112.44C211.9,-103.28 164.88,-88.69 132.12,-78.52"/>
<polygon fill="midnightblue" stroke="midnightblue" points="133.03,-75.14 122.44,-75.52 130.96,-81.82 133.03,-75.14"/>
</g>
<!-- Node11&#45;&gt;Node7 -->
<g id="edge16" class="edge">
<title>Node11&#45;&gt;Node7</title>
<path fill="none" stroke="midnightblue" d="M261.39,-112.37C245.24,-94.05 207.32,-51.05 186.43,-27.36"/>
<polygon fill="midnightblue" stroke="midnightblue" points="188.82,-24.78 179.58,-19.59 183.56,-29.41 188.82,-24.78"/>
</g>
<!-- Node13&#45;&gt;Node5 -->
<g id="edge21" class="edge">
<title>Node13&#45;&gt;Node5</title>
<path fill="none" stroke="midnightblue" d="M151.61,-336.08C157.26,-328.46 165.54,-317.26 172.45,-307.94"/>
<polygon fill="midnightblue" stroke="midnightblue" points="175.38,-309.87 178.52,-299.75 169.75,-305.7 175.38,-309.87"/>
</g>
<!-- Node13&#45;&gt;Node6 -->
<g id="edge22" class="edge">
<title>Node13&#45;&gt;Node6</title>
<path fill="none" stroke="midnightblue" d="M113.54,-336.48C70.89,-322.8 0,-291.56 0,-235 0,-235 0,-235 0,-177 0,-133.74 42.61,-99.09 70.75,-80.91"/>
<polygon fill="midnightblue" stroke="midnightblue" points="72.66,-83.85 79.31,-75.6 68.97,-77.9 72.66,-83.85"/>
</g>
</g>
</svg>
        <g id="navigator" transform="translate(0 0)" fill="#404254">
                <rect fill="#f2f5e9" fill-opacity="0.5" stroke="#606060" stroke-width=".5" x="0" y="0" width="60" height="60"/>
                <use id="zoomplus" xlink:href="#zoomPlus" target="_top" x="17" y="9" onmousedown="handleZoom(evt,'in')"/>
                <use id="zoomminus" xlink:href="#zoomMin" target="_top" x="42" y="9" onmousedown="handleZoom(evt,'out')"/>
                <use id="reset" xlink:href="#resetDef" target="_top" x="30" y="36" onmousedown="handleReset()"/>
                <g id="arrowUp" xlink:href="#dirArrow" target="_top" transform="translate(30 24)" onmousedown="handlePan(0,-1)">
                  <use xlink:href="#rim" target="_top" fill="#404040">
                        <set attributeName="fill" to="#808080" begin="arrowUp.mouseover" end="arrowUp.mouseout"/>
                  </use>
                  <path fill="none" stroke="white" stroke-width="1.5" d="M0,-3.0v7 M-2.5,-0.5L0,-3.0L2.5,-0.5"/>
                </g>
                <g id="arrowRight" xlink:href="#dirArrow" target="_top" transform="rotate(90) translate(36 -43)" onmousedown="handlePan(1,0)">
                  <use xlink:href="#rim" target="_top" fill="#404040">
                        <set attributeName="fill" to="#808080" begin="arrowRight.mouseover" end="arrowRight.mouseout"/>
                  </use>
                  <path fill="none" stroke="white" stroke-width="1.5" d="M0,-3.0v7 M-2.5,-0.5L0,-3.0L2.5,-0.5"/>
                </g>
                <g id="arrowDown" xlink:href="#dirArrow" target="_top" transform="rotate(180) translate(-30 -48)" onmousedown="handlePan(0,1)">
                  <use xlink:href="#rim" target="_top" fill="#404040">
                        <set attributeName="fill" to="#808080" begin="arrowDown.mouseover" end="arrowDown.mouseout"/>
                  </use>
                  <path fill="none" stroke="white" stroke-width="1.5" d="M0,-3.0v7 M-2.5,-0.5L0,-3.0L2.5,-0.5"/>
                </g>
                <g id="arrowLeft" xlink:href="#dirArrow" target="_top" transform="rotate(270) translate(-36 17)" onmousedown="handlePan(-1,0)">
                  <use xlink:href="#rim" target="_top" fill="#404040">
                        <set attributeName="fill" to="#808080" begin="arrowLeft.mouseover" end="arrowLeft.mouseout"/>
                  </use>
                  <path fill="none" stroke="white" stroke-width="1.5" d="M0,-3.0v7 M-2.5,-0.5L0,-3.0L2.5,-0.5"/>
                </g>
        </g>
        <svg viewBox="0 0 15 15" width="100%" height="30px" preserveAspectRatio="xMaxYMin meet">
         <g id="arrow_out" transform="scale(0.3 0.3)">
          <a xlink:href="Buttons_8cpp__incl_org.svg" target="_top" target="_base">
           <rect id="button" ry="5" rx="5" y="6" x="6" height="38" width="38"
                fill="#f2f5e9" fill-opacity="0.5" stroke="#606060" stroke-width="1.0"/>
           <path id="arrow"
             d="M 11.500037,31.436501 C 11.940474,20.09759 22.043105,11.32322 32.158766,21.979434 L 37.068811,17.246167 C 37.068811,17.246167 37.088388,32 37.088388,32 L 22.160133,31.978069 C 22.160133,31.978069 26.997745,27.140456 26.997745,27.140456 C 18.528582,18.264221 13.291696,25.230495 11.500037,31.436501 z"
             style="fill:#404040;"/>
          </a>
         </g>
        </svg>
</svg>
