<?xml version="1.0" encoding="UTF-8" standalone="no"?>
<!DOCTYPE svg PUBLIC "-//W3C//DTD SVG 1.1//EN"
 "http://www.w3.org/Graphics/SVG/1.1/DTD/svg11.dtd">
<!-- Generated by graphviz version 2.43.0 (0)
 -->
<!-- Title: VortexEngine/src/Serial/ByteStream.h Pages: 1 -->
<svg width="243pt" height="207pt"
 viewBox="0.00 0.00 242.50 207.00" xmlns="http://www.w3.org/2000/svg" xmlns:xlink="http://www.w3.org/1999/xlink">
<g id="graph0" class="graph" transform="scale(1 1) rotate(0) translate(4 203)">
<title>VortexEngine/src/Serial/ByteStream.h</title>
<!-- Node1 -->
<g id="node1" class="node">
<title>Node1</title>
<g id="a_node1"><a xlink:title=" ">
<polygon fill="#bfbfbf" stroke="black" points="11,-168.5 11,-198.5 140,-198.5 140,-168.5 11,-168.5"/>
<text text-anchor="start" x="19" y="-186.5" font-family="Helvetica,sans-Serif" font-size="10.00">VortexEngine/src/Serial</text>
<text text-anchor="middle" x="75.5" y="-175.5" font-family="Helvetica,sans-Serif" font-size="10.00">/ByteStream.h</text>
</a>
</g>
</g>
<!-- Node2 -->
<g id="node2" class="node">
<title>Node2</title>
<g id="a_node2"><a xlink:title=" ">
<polygon fill="none" stroke="#bfbfbf" points="0,-112.5 0,-131.5 65,-131.5 65,-112.5 0,-112.5"/>
<text text-anchor="middle" x="32.5" y="-119.5" font-family="Helvetica,sans-Serif" font-size="10.00">inttypes.h</text>
</a>
</g>
</g>
<!-- Node1&#45;&gt;Node2 -->
<g id="edge1" class="edge">
<title>Node1&#45;&gt;Node2</title>
<path fill="none" stroke="midnightblue" d="M65.31,-168.4C59.13,-159.84 51.2,-148.87 44.68,-139.86"/>
<polygon fill="midnightblue" stroke="midnightblue" points="47.45,-137.71 38.76,-131.66 41.78,-141.81 47.45,-137.71"/>
</g>
<!-- Node3 -->
<g id="node3" class="node">
<title>Node3</title>
<g id="a_node3"><a xlink:href="Log_8h.html" target="_top" target="_top" xlink:title=" ">
<polygon fill="none" stroke="black" points="83.5,-112.5 83.5,-131.5 155.5,-131.5 155.5,-112.5 83.5,-112.5"/>
<text text-anchor="middle" x="119.5" y="-119.5" font-family="Helvetica,sans-Serif" font-size="10.00">../Log/Log.h</text>
</a>
</g>
</g>
<!-- Node1&#45;&gt;Node3 -->
<g id="edge2" class="edge">
<title>Node1&#45;&gt;Node3</title>
<path fill="none" stroke="midnightblue" d="M85.93,-168.4C92.26,-159.84 100.37,-148.87 107.03,-139.86"/>
<polygon fill="midnightblue" stroke="midnightblue" points="109.97,-141.78 113.1,-131.66 104.34,-137.62 109.97,-141.78"/>
</g>
<!-- Node4 -->
<g id="node4" class="node">
<title>Node4</title>
<g id="a_node4"><a xlink:title=" ">
<polygon fill="none" stroke="#bfbfbf" points="44.5,-56.5 44.5,-75.5 100.5,-75.5 100.5,-56.5 44.5,-56.5"/>
<text text-anchor="middle" x="72.5" y="-63.5" font-family="Helvetica,sans-Serif" font-size="10.00">stdarg.h</text>
</a>
</g>
</g>
<!-- Node3&#45;&gt;Node4 -->
<g id="edge3" class="edge">
<title>Node3&#45;&gt;Node4</title>
<path fill="none" stroke="midnightblue" d="M111.74,-112.08C104.96,-104.3 94.96,-92.8 86.74,-83.37"/>
<polygon fill="midnightblue" stroke="midnightblue" points="89.32,-81 80.12,-75.75 84.04,-85.59 89.32,-81"/>
</g>
<!-- Node5 -->
<g id="node5" class="node">
<title>Node5</title>
<g id="a_node5"><a xlink:href="VortexConfig_8h.html" target="_top" target="_top" xlink:title=" ">
<polygon fill="none" stroke="black" points="119,-56.5 119,-75.5 216,-75.5 216,-56.5 119,-56.5"/>
<text text-anchor="middle" x="167.5" y="-63.5" font-family="Helvetica,sans-Serif" font-size="10.00">../VortexConfig.h</text>
</a>
</g>
</g>
<!-- Node3&#45;&gt;Node5 -->
<g id="edge4" class="edge">
<title>Node3&#45;&gt;Node5</title>
<path fill="none" stroke="midnightblue" d="M127.43,-112.08C134.35,-104.3 144.57,-92.8 152.95,-83.37"/>
<polygon fill="midnightblue" stroke="midnightblue" points="155.69,-85.55 159.72,-75.75 150.46,-80.9 155.69,-85.55"/>
</g>
<!-- Node6 -->
<g id="node6" class="node">
<title>Node6</title>
<g id="a_node6"><a xlink:href="ColorConstants_8h.html" target="_top" target="_top" xlink:title=" ">
<polygon fill="none" stroke="black" points="100.5,-0.5 100.5,-19.5 234.5,-19.5 234.5,-0.5 100.5,-0.5"/>
<text text-anchor="middle" x="167.5" y="-7.5" font-family="Helvetica,sans-Serif" font-size="10.00">Colors/ColorConstants.h</text>
</a>
</g>
</g>
<!-- Node5&#45;&gt;Node6 -->
<g id="edge5" class="edge">
<title>Node5&#45;&gt;Node6</title>
<path fill="none" stroke="midnightblue" d="M167.5,-56.08C167.5,-49.01 167.5,-38.86 167.5,-29.99"/>
<polygon fill="midnightblue" stroke="midnightblue" points="171,-29.75 167.5,-19.75 164,-29.75 171,-29.75"/>
</g>
</g>
</svg>
