<?xml version="1.0" encoding="UTF-8" standalone="no"?>
<!DOCTYPE svg PUBLIC "-//W3C//DTD SVG 1.1//EN"
 "http://www.w3.org/Graphics/SVG/1.1/DTD/svg11.dtd">
<!-- Generated by graphviz version 2.43.0 (0)
 -->
<!-- Title: VortexEngine/src/Patterns/Multi/Sequencer/ChaserPattern.h Pages: 1 -->
<!--zoomable 543 -->
<svg id="main" version="1.1" xmlns="http://www.w3.org/2000/svg" xmlns:xlink="http://www.w3.org/1999/xlink" xml:space="preserve" onload="init(evt)">
<style type="text/css"><![CDATA[
.edge:hover path { stroke: red; }
.edge:hover polygon { stroke: red; fill: red; }
]]></style>
<script type="text/javascript"><![CDATA[
var edges = document.getElementsByTagName('g');
if (edges && edges.length) {
  for (var i=0;i<edges.length;i++) {
    if (edges[i].id.substr(0,4)=='edge') {
      edges[i].setAttribute('class','edge');
    }
  }
}
]]></script>
        <defs>
                <circle id="rim" cx="0" cy="0" r="7"/>
                <circle id="rim2" cx="0" cy="0" r="3.5"/>
                <g id="zoomPlus">
                        <use xlink:href="#rim" target="_top" fill="#404040">
                                <set attributeName="fill" to="#808080" begin="zoomplus.mouseover" end="zoomplus.mouseout"/>
                        </use>
                        <path d="M-4,0h8M0,-4v8" fill="none" stroke="white" stroke-width="1.5" pointer-events="none"/>
                </g>
                <g id="zoomMin">
                        <use xlink:href="#rim" target="_top" fill="#404040">
                                <set attributeName="fill" to="#808080" begin="zoomminus.mouseover" end="zoomminus.mouseout"/>
                        </use>
                        <path d="M-4,0h8" fill="none" stroke="white" stroke-width="1.5" pointer-events="none"/>
                </g>
                <g id="dirArrow">
                        <path fill="none" stroke="white" stroke-width="1.5" d="M0,-3.0v7 M-2.5,-0.5L0,-3.0L2.5,-0.5"/>
                </g>
               <g id="resetDef">
                       <use xlink:href="#rim2" target="_top" fill="#404040">
                               <set attributeName="fill" to="#808080" begin="reset.mouseover" end="reset.mouseout"/>
                       </use>
               </g>
        </defs>

<script type="text/javascript">
var viewWidth = 613;
var viewHeight = 543;
var sectionId = 'dynsection-0';
</script>
<script xlink:href="svgpan.js" target="_top"/>
<svg id="graph" class="graph">
<g id="viewport">
<title>VortexEngine/src/Patterns/Multi/Sequencer/ChaserPattern.h</title>
<!-- Node1 -->
<g id="node1" class="node">
<title>Node1</title>
<g id="a_node1"><a xlink:title=" ">
<polygon fill="#bfbfbf" stroke="black" points="85.8,-504.5 85.8,-534.5 264.8,-534.5 264.8,-504.5 85.8,-504.5"/>
<text text-anchor="start" x="93.8" y="-522.5" font-family="Helvetica,sans-Serif" font-size="10.00">VortexEngine/src/Patterns</text>
<text text-anchor="middle" x="175.3" y="-511.5" font-family="Helvetica,sans-Serif" font-size="10.00">/Multi/Sequencer/ChaserPattern.h</text>
</a>
</g>
</g>
<!-- Node2 -->
<g id="node2" class="node">
<title>Node2</title>
<g id="a_node2"><a xlink:href="SequencedPattern_8h.html" target="_top" target="_top" xlink:title=" ">
<polygon fill="none" stroke="black" points="118.8,-448.5 118.8,-467.5 231.8,-467.5 231.8,-448.5 118.8,-448.5"/>
<text text-anchor="middle" x="175.3" y="-455.5" font-family="Helvetica,sans-Serif" font-size="10.00">SequencedPattern.h</text>
</a>
</g>
</g>
<!-- Node1&#45;&gt;Node2 -->
<g id="edge1" class="edge">
<title>Node1&#45;&gt;Node2</title>
<path fill="none" stroke="midnightblue" d="M175.3,-504.4C175.3,-496.47 175.3,-486.46 175.3,-477.86"/>
<polygon fill="midnightblue" stroke="midnightblue" points="178.8,-477.66 175.3,-467.66 171.8,-477.66 178.8,-477.66"/>
</g>
<!-- Node3 -->
<g id="node3" class="node">
<title>Node3</title>
<g id="a_node3"><a xlink:href="CompoundPattern_8h.html" target="_top" target="_top" xlink:title=" ">
<polygon fill="none" stroke="black" points="253.3,-392.5 253.3,-411.5 375.3,-411.5 375.3,-392.5 253.3,-392.5"/>
<text text-anchor="middle" x="314.3" y="-399.5" font-family="Helvetica,sans-Serif" font-size="10.00">../CompoundPattern.h</text>
</a>
</g>
</g>
<!-- Node2&#45;&gt;Node3 -->
<g id="edge2" class="edge">
<title>Node2&#45;&gt;Node3</title>
<path fill="none" stroke="midnightblue" d="M197.32,-448.44C220.4,-439.48 256.86,-425.31 282.94,-415.18"/>
<polygon fill="midnightblue" stroke="midnightblue" points="284.32,-418.4 292.38,-411.52 281.79,-411.88 284.32,-418.4"/>
</g>
<!-- Node6 -->
<g id="node6" class="node">
<title>Node6</title>
<g id="a_node6"><a xlink:href="LedTypes_8h.html" target="_top" target="_top" xlink:title=" ">
<polygon fill="none" stroke="black" points="64.8,-224.5 64.8,-243.5 169.8,-243.5 169.8,-224.5 64.8,-224.5"/>
<text text-anchor="middle" x="117.3" y="-231.5" font-family="Helvetica,sans-Serif" font-size="10.00">../Leds/LedTypes.h</text>
</a>
</g>
</g>
<!-- Node2&#45;&gt;Node6 -->
<g id="edge26" class="edge">
<title>Node2&#45;&gt;Node6</title>
<path fill="none" stroke="midnightblue" d="M173.03,-448.3C164.47,-415.56 134.12,-299.38 122.18,-253.67"/>
<polygon fill="midnightblue" stroke="midnightblue" points="125.53,-252.67 119.62,-243.88 118.76,-254.44 125.53,-252.67"/>
</g>
<!-- Node17 -->
<g id="node17" class="node">
<title>Node17</title>
<g id="a_node17"><a xlink:href="Timer_8h.html" target="_top" target="_top" xlink:title=" ">
<polygon fill="none" stroke="black" points="7.3,-280.5 7.3,-299.5 115.3,-299.5 115.3,-280.5 7.3,-280.5"/>
<text text-anchor="middle" x="61.3" y="-287.5" font-family="Helvetica,sans-Serif" font-size="10.00">../../../Time/Timer.h</text>
</a>
</g>
</g>
<!-- Node2&#45;&gt;Node17 -->
<g id="edge27" class="edge">
<title>Node2&#45;&gt;Node17</title>
<path fill="none" stroke="midnightblue" d="M164.96,-448.42C155.04,-439.87 140.04,-426.01 129.3,-412 103.38,-378.2 80.84,-333.39 69.36,-308.89"/>
<polygon fill="midnightblue" stroke="midnightblue" points="72.5,-307.35 65.15,-299.72 66.15,-310.27 72.5,-307.35"/>
</g>
<!-- Node18 -->
<g id="node18" class="node">
<title>Node18</title>
<g id="a_node18"><a xlink:href="Sequence_8h.html" target="_top" target="_top" xlink:title=" ">
<polygon fill="none" stroke="black" points="171.8,-336.5 171.8,-355.5 244.8,-355.5 244.8,-336.5 171.8,-336.5"/>
<text text-anchor="middle" x="208.3" y="-343.5" font-family="Helvetica,sans-Serif" font-size="10.00">Sequence.h</text>
</a>
</g>
</g>
<!-- Node2&#45;&gt;Node18 -->
<g id="edge30" class="edge">
<title>Node2&#45;&gt;Node18</title>
<path fill="none" stroke="midnightblue" d="M177.89,-448.37C183.24,-430.54 195.61,-389.3 202.82,-365.27"/>
<polygon fill="midnightblue" stroke="midnightblue" points="206.2,-366.18 205.72,-355.59 199.5,-364.16 206.2,-366.18"/>
</g>
<!-- Node4 -->
<g id="node4" class="node">
<title>Node4</title>
<g id="a_node4"><a xlink:href="MultiLedPattern_8h.html" target="_top" target="_top" xlink:title=" ">
<polygon fill="none" stroke="black" points="263.3,-336.5 263.3,-355.5 365.3,-355.5 365.3,-336.5 263.3,-336.5"/>
<text text-anchor="middle" x="314.3" y="-343.5" font-family="Helvetica,sans-Serif" font-size="10.00">MultiLedPattern.h</text>
</a>
</g>
</g>
<!-- Node3&#45;&gt;Node4 -->
<g id="edge3" class="edge">
<title>Node3&#45;&gt;Node4</title>
<path fill="none" stroke="midnightblue" d="M314.3,-392.08C314.3,-385.01 314.3,-374.86 314.3,-365.99"/>
<polygon fill="midnightblue" stroke="midnightblue" points="317.8,-365.75 314.3,-355.75 310.8,-365.75 317.8,-365.75"/>
</g>
<!-- Node13 -->
<g id="node13" class="node">
<title>Node13</title>
<g id="a_node13"><a xlink:title=" ">
<polygon fill="none" stroke="#bfbfbf" points="557.8,-112.5 557.8,-131.5 604.8,-131.5 604.8,-112.5 557.8,-112.5"/>
<text text-anchor="middle" x="581.3" y="-119.5" font-family="Helvetica,sans-Serif" font-size="10.00">vector</text>
</a>
</g>
</g>
<!-- Node3&#45;&gt;Node13 -->
<g id="edge25" class="edge">
<title>Node3&#45;&gt;Node13</title>
<path fill="none" stroke="midnightblue" d="M359.21,-392.48C436.47,-376.54 586.3,-339.39 586.3,-291 586.3,-291 586.3,-291 586.3,-233 586.3,-200.91 584.15,-163.62 582.67,-141.74"/>
<polygon fill="midnightblue" stroke="midnightblue" points="586.15,-141.28 581.95,-131.55 579.16,-141.77 586.15,-141.28"/>
</g>
<!-- Node5 -->
<g id="node5" class="node">
<title>Node5</title>
<g id="a_node5"><a xlink:href="Pattern_8h.html" target="_top" target="_top" xlink:title=" ">
<polygon fill="none" stroke="black" points="247.8,-280.5 247.8,-299.5 316.8,-299.5 316.8,-280.5 247.8,-280.5"/>
<text text-anchor="middle" x="282.3" y="-287.5" font-family="Helvetica,sans-Serif" font-size="10.00">../Pattern.h</text>
</a>
</g>
</g>
<!-- Node4&#45;&gt;Node5 -->
<g id="edge4" class="edge">
<title>Node4&#45;&gt;Node5</title>
<path fill="none" stroke="midnightblue" d="M309.01,-336.08C304.59,-328.61 298.14,-317.72 292.68,-308.52"/>
<polygon fill="midnightblue" stroke="midnightblue" points="295.59,-306.57 287.48,-299.75 289.57,-310.14 295.59,-306.57"/>
</g>
<!-- Node5&#45;&gt;Node6 -->
<g id="edge5" class="edge">
<title>Node5&#45;&gt;Node6</title>
<path fill="none" stroke="midnightblue" d="M256.15,-280.44C228.28,-271.32 183.95,-256.81 152.9,-246.65"/>
<polygon fill="midnightblue" stroke="midnightblue" points="153.91,-243.3 143.32,-243.52 151.74,-249.95 153.91,-243.3"/>
</g>
<!-- Node14 -->
<g id="node14" class="node">
<title>Node14</title>
<g id="a_node14"><a xlink:href="Colorset_8h.html" target="_top" target="_top" xlink:title=" ">
<polygon fill="none" stroke="black" points="410.8,-168.5 410.8,-187.5 519.8,-187.5 519.8,-168.5 410.8,-168.5"/>
<text text-anchor="middle" x="465.3" y="-175.5" font-family="Helvetica,sans-Serif" font-size="10.00">../Colors/Colorset.h</text>
</a>
</g>
</g>
<!-- Node5&#45;&gt;Node14 -->
<g id="edge18" class="edge">
<title>Node5&#45;&gt;Node14</title>
<path fill="none" stroke="midnightblue" d="M296.66,-280.37C328.19,-261.41 403.74,-216 442.1,-192.94"/>
<polygon fill="midnightblue" stroke="midnightblue" points="444.24,-195.74 451.01,-187.59 440.63,-189.74 444.24,-195.74"/>
</g>
<!-- Node15 -->
<g id="node15" class="node">
<title>Node15</title>
<g id="a_node15"><a xlink:href="Patterns_8h.html" target="_top" target="_top" xlink:title=" ">
<polygon fill="none" stroke="black" points="187.8,-224.5 187.8,-243.5 252.8,-243.5 252.8,-224.5 187.8,-224.5"/>
<text text-anchor="middle" x="220.3" y="-231.5" font-family="Helvetica,sans-Serif" font-size="10.00">Patterns.h</text>
</a>
</g>
</g>
<!-- Node5&#45;&gt;Node15 -->
<g id="edge21" class="edge">
<title>Node5&#45;&gt;Node15</title>
<path fill="none" stroke="midnightblue" d="M272.34,-280.32C263.17,-272.34 249.36,-260.31 238.27,-250.65"/>
<polygon fill="midnightblue" stroke="midnightblue" points="240.28,-247.76 230.44,-243.83 235.68,-253.04 240.28,-247.76"/>
</g>
<!-- Node16 -->
<g id="node16" class="node">
<title>Node16</title>
<g id="a_node16"><a xlink:href="PatternArgs_8h.html" target="_top" target="_top" xlink:title=" ">
<polygon fill="none" stroke="black" points="165.3,-112.5 165.3,-131.5 247.3,-131.5 247.3,-112.5 165.3,-112.5"/>
<text text-anchor="middle" x="206.3" y="-119.5" font-family="Helvetica,sans-Serif" font-size="10.00">PatternArgs.h</text>
</a>
</g>
</g>
<!-- Node5&#45;&gt;Node16 -->
<g id="edge23" class="edge">
<title>Node5&#45;&gt;Node16</title>
<path fill="none" stroke="midnightblue" d="M280.26,-280.39C277.13,-267.75 270.62,-243.55 262.3,-224 249.27,-193.38 229.6,-160.02 217.37,-140.33"/>
<polygon fill="midnightblue" stroke="midnightblue" points="220.17,-138.2 211.88,-131.61 214.24,-141.93 220.17,-138.2"/>
</g>
<!-- Node7 -->
<g id="node7" class="node">
<title>Node7</title>
<g id="a_node7"><a xlink:title=" ">
<polygon fill="none" stroke="#bfbfbf" points="139.8,-56.5 139.8,-75.5 204.8,-75.5 204.8,-56.5 139.8,-56.5"/>
<text text-anchor="middle" x="172.3" y="-63.5" font-family="Helvetica,sans-Serif" font-size="10.00">inttypes.h</text>
</a>
</g>
</g>
<!-- Node6&#45;&gt;Node7 -->
<g id="edge6" class="edge">
<title>Node6&#45;&gt;Node7</title>
<path fill="none" stroke="midnightblue" d="M119.08,-224.32C123.32,-204.19 134.86,-152.95 150.3,-112 153.79,-102.74 158.52,-92.83 162.7,-84.67"/>
<polygon fill="midnightblue" stroke="midnightblue" points="165.84,-86.22 167.41,-75.75 159.65,-82.96 165.84,-86.22"/>
</g>
<!-- Node8 -->
<g id="node8" class="node">
<title>Node8</title>
<g id="a_node8"><a xlink:title=" ">
<polygon fill="none" stroke="#bfbfbf" points="15.3,-168.5 15.3,-187.5 71.3,-187.5 71.3,-168.5 15.3,-168.5"/>
<text text-anchor="middle" x="43.3" y="-175.5" font-family="Helvetica,sans-Serif" font-size="10.00">stdarg.h</text>
</a>
</g>
</g>
<!-- Node6&#45;&gt;Node8 -->
<g id="edge7" class="edge">
<title>Node6&#45;&gt;Node8</title>
<path fill="none" stroke="midnightblue" d="M105.41,-224.32C94.15,-216.11 77.01,-203.6 63.59,-193.81"/>
<polygon fill="midnightblue" stroke="midnightblue" points="65.55,-190.9 55.4,-187.83 61.42,-196.56 65.55,-190.9"/>
</g>
<!-- Node9 -->
<g id="node9" class="node">
<title>Node9</title>
<g id="a_node9"><a xlink:href="Leds_8h.html" target="_top" target="_top" xlink:title=" ">
<polygon fill="none" stroke="black" points="309.8,-168.5 309.8,-187.5 392.8,-187.5 392.8,-168.5 309.8,-168.5"/>
<text text-anchor="middle" x="351.3" y="-175.5" font-family="Helvetica,sans-Serif" font-size="10.00">../Leds/Leds.h</text>
</a>
</g>
</g>
<!-- Node6&#45;&gt;Node9 -->
<g id="edge8" class="edge">
<title>Node6&#45;&gt;Node9</title>
<path fill="none" stroke="midnightblue" d="M154.38,-224.44C195.03,-215.06 260.33,-199.99 304.48,-189.8"/>
<polygon fill="midnightblue" stroke="midnightblue" points="305.44,-193.18 314.39,-187.52 303.86,-186.35 305.44,-193.18"/>
</g>
<!-- Node11 -->
<g id="node11" class="node">
<title>Node11</title>
<g id="a_node11"><a xlink:href="VortexConfig_8h.html" target="_top" target="_top" xlink:title=" ">
<polygon fill="none" stroke="black" points="314.8,-56.5 314.8,-75.5 411.8,-75.5 411.8,-56.5 314.8,-56.5"/>
<text text-anchor="middle" x="363.3" y="-63.5" font-family="Helvetica,sans-Serif" font-size="10.00">../VortexConfig.h</text>
</a>
</g>
</g>
<!-- Node6&#45;&gt;Node11 -->
<g id="edge17" class="edge">
<title>Node6&#45;&gt;Node11</title>
<path fill="none" stroke="midnightblue" d="M130.18,-224.31C170.2,-197.3 292.66,-114.67 342.18,-81.25"/>
<polygon fill="midnightblue" stroke="midnightblue" points="344.21,-84.1 350.55,-75.61 340.3,-78.3 344.21,-84.1"/>
</g>
<!-- Node9&#45;&gt;Node7 -->
<g id="edge9" class="edge">
<title>Node9&#45;&gt;Node7</title>
<path fill="none" stroke="midnightblue" d="M339.57,-168.37C321.9,-155.5 287.21,-130.78 256.3,-112 237.51,-100.58 215.58,-88.89 198.85,-80.29"/>
<polygon fill="midnightblue" stroke="midnightblue" points="200.16,-77.02 189.66,-75.6 196.98,-83.26 200.16,-77.02"/>
</g>
<!-- Node10 -->
<g id="node10" class="node">
<title>Node10</title>
<g id="a_node10"><a xlink:href="ColorTypes_8h.html" target="_top" target="_top" xlink:title=" ">
<polygon fill="none" stroke="black" points="379.3,-112.5 379.3,-131.5 501.3,-131.5 501.3,-112.5 379.3,-112.5"/>
<text text-anchor="middle" x="440.3" y="-119.5" font-family="Helvetica,sans-Serif" font-size="10.00">../Colors/ColorTypes.h</text>
</a>
</g>
</g>
<!-- Node9&#45;&gt;Node10 -->
<g id="edge10" class="edge">
<title>Node9&#45;&gt;Node10</title>
<path fill="none" stroke="midnightblue" d="M365.6,-168.32C379.48,-159.9 400.79,-146.97 417.1,-137.07"/>
<polygon fill="midnightblue" stroke="midnightblue" points="419.3,-139.83 426.03,-131.65 415.67,-133.85 419.3,-139.83"/>
</g>
<!-- Node9&#45;&gt;Node11 -->
<g id="edge15" class="edge">
<title>Node9&#45;&gt;Node11</title>
<path fill="none" stroke="midnightblue" d="M352.24,-168.37C354.18,-150.62 358.64,-109.67 361.27,-85.6"/>
<polygon fill="midnightblue" stroke="midnightblue" points="364.76,-85.91 362.36,-75.59 357.8,-85.15 364.76,-85.91"/>
</g>
<!-- Node9&#45;&gt;Node13 -->
<g id="edge16" class="edge">
<title>Node9&#45;&gt;Node13</title>
<path fill="none" stroke="midnightblue" d="M387.74,-168.44C431.74,-158.11 505.13,-140.88 547.78,-130.87"/>
<polygon fill="midnightblue" stroke="midnightblue" points="548.73,-134.24 557.67,-128.55 547.13,-127.43 548.73,-134.24"/>
</g>
<!-- Node10&#45;&gt;Node7 -->
<g id="edge11" class="edge">
<title>Node10&#45;&gt;Node7</title>
<path fill="none" stroke="midnightblue" d="M397.83,-112.44C347.71,-102.34 264.85,-85.65 214.74,-75.55"/>
<polygon fill="midnightblue" stroke="midnightblue" points="215.37,-72.11 204.87,-73.56 213.98,-78.97 215.37,-72.11"/>
</g>
<!-- Node10&#45;&gt;Node11 -->
<g id="edge12" class="edge">
<title>Node10&#45;&gt;Node11</title>
<path fill="none" stroke="midnightblue" d="M427.93,-112.32C416.14,-104.06 398.17,-91.45 384.16,-81.63"/>
<polygon fill="midnightblue" stroke="midnightblue" points="385.84,-78.53 375.64,-75.65 381.82,-84.26 385.84,-78.53"/>
</g>
<!-- Node12 -->
<g id="node12" class="node">
<title>Node12</title>
<g id="a_node12"><a xlink:href="ColorConstants_8h.html" target="_top" target="_top" xlink:title=" ">
<polygon fill="none" stroke="black" points="334.3,-0.5 334.3,-19.5 468.3,-19.5 468.3,-0.5 334.3,-0.5"/>
<text text-anchor="middle" x="401.3" y="-7.5" font-family="Helvetica,sans-Serif" font-size="10.00">Colors/ColorConstants.h</text>
</a>
</g>
</g>
<!-- Node10&#45;&gt;Node12 -->
<g id="edge14" class="edge">
<title>Node10&#45;&gt;Node12</title>
<path fill="none" stroke="midnightblue" d="M438.19,-112.47C435.02,-99.93 428.58,-75.87 421.3,-56 417.99,-46.97 413.73,-37.19 409.99,-29.05"/>
<polygon fill="midnightblue" stroke="midnightblue" points="413.07,-27.38 405.64,-19.82 406.73,-30.36 413.07,-27.38"/>
</g>
<!-- Node11&#45;&gt;Node12 -->
<g id="edge13" class="edge">
<title>Node11&#45;&gt;Node12</title>
<path fill="none" stroke="midnightblue" d="M369.57,-56.08C374.94,-48.46 382.82,-37.26 389.38,-27.94"/>
<polygon fill="midnightblue" stroke="midnightblue" points="392.25,-29.94 395.14,-19.75 386.52,-25.91 392.25,-29.94"/>
</g>
<!-- Node14&#45;&gt;Node10 -->
<g id="edge19" class="edge">
<title>Node14&#45;&gt;Node10</title>
<path fill="none" stroke="midnightblue" d="M461.17,-168.08C457.78,-160.77 452.88,-150.18 448.68,-141.1"/>
<polygon fill="midnightblue" stroke="midnightblue" points="451.73,-139.36 444.35,-131.75 445.38,-142.3 451.73,-139.36"/>
</g>
<!-- Node14&#45;&gt;Node11 -->
<g id="edge20" class="edge">
<title>Node14&#45;&gt;Node11</title>
<path fill="none" stroke="midnightblue" d="M478.73,-168.47C496.77,-155.93 524.99,-131.86 510.3,-112 490.1,-84.7 453.67,-73.42 422.13,-68.98"/>
<polygon fill="midnightblue" stroke="midnightblue" points="422.44,-65.49 412.09,-67.77 421.6,-72.44 422.44,-65.49"/>
</g>
<!-- Node15&#45;&gt;Node7 -->
<g id="edge22" class="edge">
<title>Node15&#45;&gt;Node7</title>
<path fill="none" stroke="midnightblue" d="M212.38,-224.4C197.85,-207.95 167.41,-170.28 156.3,-132 151.75,-116.32 157.01,-98.28 162.68,-85.19"/>
<polygon fill="midnightblue" stroke="midnightblue" points="165.97,-86.42 167.14,-75.89 159.66,-83.4 165.97,-86.42"/>
</g>
<!-- Node16&#45;&gt;Node7 -->
<g id="edge24" class="edge">
<title>Node16&#45;&gt;Node7</title>
<path fill="none" stroke="midnightblue" d="M200.68,-112.08C195.93,-104.53 188.98,-93.49 183.15,-84.23"/>
<polygon fill="midnightblue" stroke="midnightblue" points="186.1,-82.35 177.81,-75.75 180.17,-86.08 186.1,-82.35"/>
</g>
<!-- Node17&#45;&gt;Node6 -->
<g id="edge29" class="edge">
<title>Node17&#45;&gt;Node6</title>
<path fill="none" stroke="midnightblue" d="M70.3,-280.32C78.49,-272.42 90.8,-260.55 100.77,-250.94"/>
<polygon fill="midnightblue" stroke="midnightblue" points="103.37,-253.29 108.14,-243.83 98.51,-248.26 103.37,-253.29"/>
</g>
<!-- Node17&#45;&gt;Node7 -->
<g id="edge28" class="edge">
<title>Node17&#45;&gt;Node7</title>
<path fill="none" stroke="midnightblue" d="M51.63,-280.24C30.44,-259.97 -16.43,-208.43 6.3,-168 32.89,-120.69 91.61,-92.96 131.58,-78.88"/>
<polygon fill="midnightblue" stroke="midnightblue" points="132.96,-82.11 141.31,-75.59 130.71,-75.48 132.96,-82.11"/>
</g>
<!-- Node18&#45;&gt;Node6 -->
<g id="edge32" class="edge">
<title>Node18&#45;&gt;Node6</title>
<path fill="none" stroke="midnightblue" d="M201.86,-336.45C192.34,-323.9 173.85,-299.81 157.3,-280 149.26,-270.37 139.97,-259.88 132.36,-251.46"/>
<polygon fill="midnightblue" stroke="midnightblue" points="134.75,-248.87 125.43,-243.82 129.56,-253.58 134.75,-248.87"/>
</g>
<!-- Node18&#45;&gt;Node13 -->
<g id="edge35" class="edge">
<title>Node18&#45;&gt;Node13</title>
<path fill="none" stroke="midnightblue" d="M245.01,-336.62C275.16,-329.06 318.56,-316.57 354.3,-300 438.07,-261.16 460.65,-249.77 529.3,-188 545.18,-173.71 560.07,-154.24 569.81,-140.34"/>
<polygon fill="midnightblue" stroke="midnightblue" points="572.93,-141.98 575.68,-131.74 567.15,-138.03 572.93,-141.98"/>
</g>
<!-- Node18&#45;&gt;Node14 -->
<g id="edge33" class="edge">
<title>Node18&#45;&gt;Node14</title>
<path fill="none" stroke="midnightblue" d="M239.23,-336.49C263.85,-328.96 298.66,-316.58 326.3,-300 376.8,-269.7 426.55,-220.42 450.51,-195.11"/>
<polygon fill="midnightblue" stroke="midnightblue" points="453.08,-197.49 457.35,-187.79 447.97,-192.71 453.08,-197.49"/>
</g>
<!-- Node18&#45;&gt;Node15 -->
<g id="edge31" class="edge">
<title>Node18&#45;&gt;Node15</title>
<path fill="none" stroke="midnightblue" d="M209.24,-336.37C211.18,-318.62 215.64,-277.67 218.27,-253.6"/>
<polygon fill="midnightblue" stroke="midnightblue" points="221.76,-253.91 219.36,-243.59 214.8,-253.15 221.76,-253.91"/>
</g>
<!-- Node18&#45;&gt;Node17 -->
<g id="edge34" class="edge">
<title>Node18&#45;&gt;Node17</title>
<path fill="none" stroke="midnightblue" d="M185.01,-336.44C160.49,-327.44 121.7,-313.19 94.1,-303.05"/>
<polygon fill="midnightblue" stroke="midnightblue" points="95.08,-299.68 84.48,-299.52 92.66,-306.25 95.08,-299.68"/>
</g>
</g>
</svg>
        <g id="navigator" transform="translate(0 0)" fill="#404254">
                <rect fill="#f2f5e9" fill-opacity="0.5" stroke="#606060" stroke-width=".5" x="0" y="0" width="60" height="60"/>
                <use id="zoomplus" xlink:href="#zoomPlus" target="_top" x="17" y="9" onmousedown="handleZoom(evt,'in')"/>
                <use id="zoomminus" xlink:href="#zoomMin" target="_top" x="42" y="9" onmousedown="handleZoom(evt,'out')"/>
                <use id="reset" xlink:href="#resetDef" target="_top" x="30" y="36" onmousedown="handleReset()"/>
                <g id="arrowUp" xlink:href="#dirArrow" target="_top" transform="translate(30 24)" onmousedown="handlePan(0,-1)">
                  <use xlink:href="#rim" target="_top" fill="#404040">
                        <set attributeName="fill" to="#808080" begin="arrowUp.mouseover" end="arrowUp.mouseout"/>
                  </use>
                  <path fill="none" stroke="white" stroke-width="1.5" d="M0,-3.0v7 M-2.5,-0.5L0,-3.0L2.5,-0.5"/>
                </g>
                <g id="arrowRight" xlink:href="#dirArrow" target="_top" transform="rotate(90) translate(36 -43)" onmousedown="handlePan(1,0)">
                  <use xlink:href="#rim" target="_top" fill="#404040">
                        <set attributeName="fill" to="#808080" begin="arrowRight.mouseover" end="arrowRight.mouseout"/>
                  </use>
                  <path fill="none" stroke="white" stroke-width="1.5" d="M0,-3.0v7 M-2.5,-0.5L0,-3.0L2.5,-0.5"/>
                </g>
                <g id="arrowDown" xlink:href="#dirArrow" target="_top" transform="rotate(180) translate(-30 -48)" onmousedown="handlePan(0,1)">
                  <use xlink:href="#rim" target="_top" fill="#404040">
                        <set attributeName="fill" to="#808080" begin="arrowDown.mouseover" end="arrowDown.mouseout"/>
                  </use>
                  <path fill="none" stroke="white" stroke-width="1.5" d="M0,-3.0v7 M-2.5,-0.5L0,-3.0L2.5,-0.5"/>
                </g>
                <g id="arrowLeft" xlink:href="#dirArrow" target="_top" transform="rotate(270) translate(-36 17)" onmousedown="handlePan(-1,0)">
                  <use xlink:href="#rim" target="_top" fill="#404040">
                        <set attributeName="fill" to="#808080" begin="arrowLeft.mouseover" end="arrowLeft.mouseout"/>
                  </use>
                  <path fill="none" stroke="white" stroke-width="1.5" d="M0,-3.0v7 M-2.5,-0.5L0,-3.0L2.5,-0.5"/>
                </g>
        </g>
        <svg viewBox="0 0 15 15" width="100%" height="30px" preserveAspectRatio="xMaxYMin meet">
         <g id="arrow_out" transform="scale(0.3 0.3)">
          <a xlink:href="ChaserPattern_8h__incl_org.svg" target="_top" target="_base">
           <rect id="button" ry="5" rx="5" y="6" x="6" height="38" width="38"
                fill="#f2f5e9" fill-opacity="0.5" stroke="#606060" stroke-width="1.0"/>
           <path id="arrow"
             d="M 11.500037,31.436501 C 11.940474,20.09759 22.043105,11.32322 32.158766,21.979434 L 37.068811,17.246167 C 37.068811,17.246167 37.088388,32 37.088388,32 L 22.160133,31.978069 C 22.160133,31.978069 26.997745,27.140456 26.997745,27.140456 C 18.528582,18.264221 13.291696,25.230495 11.500037,31.436501 z"
             style="fill:#404040;"/>
          </a>
         </g>
        </svg>
</svg>
