<?xml version="1.0" encoding="UTF-8" standalone="no"?>
<!DOCTYPE svg PUBLIC "-//W3C//DTD SVG 1.1//EN"
 "http://www.w3.org/Graphics/SVG/1.1/DTD/svg11.dtd">
<!-- Generated by graphviz version 2.43.0 (0)
 -->
<!-- Title: Storage Pages: 1 -->
<svg width="1108pt" height="1139pt"
 viewBox="0.00 0.00 1108.00 1138.60" xmlns="http://www.w3.org/2000/svg" xmlns:xlink="http://www.w3.org/1999/xlink">
<g id="graph0" class="graph" transform="scale(1 1) rotate(0) translate(4 1134.6)">
<title>Storage</title>
<!-- Node1 -->
<g id="node1" class="node">
<title>Node1</title>
<g id="a_node1"><a xlink:title=" ">
<polygon fill="#bfbfbf" stroke="black" points="38.5,-576.1 38.5,-595.1 92.5,-595.1 92.5,-576.1 38.5,-576.1"/>
<text text-anchor="middle" x="65.5" y="-583.1" font-family="Helvetica,sans-Serif" font-size="10.00">Storage</text>
</a>
</g>
</g>
<!-- Node2 -->
<g id="node2" class="node">
<title>Node2</title>
<g id="a_node2"><a xlink:href="classVortexEngine.html" target="_top" xlink:title=" ">
<polygon fill="none" stroke="black" points="222,-506.1 222,-525.1 303,-525.1 303,-506.1 222,-506.1"/>
<text text-anchor="middle" x="262.5" y="-513.1" font-family="Helvetica,sans-Serif" font-size="10.00">VortexEngine</text>
</a>
</g>
</g>
<!-- Node1&#45;&gt;Node2 -->
<g id="edge5" class="edge">
<title>Node1&#45;&gt;Node2</title>
<path fill="none" stroke="#9a32cd" stroke-dasharray="5,2" d="M102.79,-590.64C131.61,-593.01 172.22,-592.59 204,-577.6 228.17,-566.21 247.03,-539.68 255.92,-525.29"/>
<polygon fill="#9a32cd" stroke="#9a32cd" points="103.03,-587.15 92.74,-589.67 102.36,-594.12 103.03,-587.15"/>
<text text-anchor="middle" x="176.5" y="-593.6" font-family="Helvetica,sans-Serif" font-size="10.00"> m_storage</text>
</g>
<!-- Node2&#45;&gt;Node1 -->
<g id="edge1" class="edge">
<title>Node2&#45;&gt;Node1</title>
<path fill="none" stroke="#9a32cd" stroke-dasharray="5,2" d="M235.4,-530C225.71,-535.01 214.52,-540.42 204,-544.6 166.15,-559.65 120.56,-572.2 92.56,-579.31"/>
<polygon fill="#9a32cd" stroke="#9a32cd" points="237.31,-532.95 244.51,-525.18 234.03,-526.76 237.31,-532.95"/>
<text text-anchor="middle" x="176.5" y="-565.6" font-family="Helvetica,sans-Serif" font-size="10.00"> m_engine</text>
</g>
<!-- Node2&#45;&gt;Node2 -->
<g id="edge11" class="edge">
<title>Node2&#45;&gt;Node2</title>
<path fill="none" stroke="#9a32cd" stroke-dasharray="5,2" d="M246.57,-535C247.64,-539.92 252.95,-543.6 262.5,-543.6 277.79,-543.6 282.2,-534.17 275.76,-525.36"/>
<polygon fill="#9a32cd" stroke="#9a32cd" points="249.95,-535.93 249.24,-525.36 243.2,-534.06 249.95,-535.93"/>
<text text-anchor="middle" x="262.5" y="-546.6" font-family="Helvetica,sans-Serif" font-size="10.00"> m_engine</text>
</g>
<!-- Node3 -->
<g id="node3" class="node">
<title>Node3</title>
<g id="a_node3"><a xlink:href="classVLReceiver.html" target="_top" xlink:title=" ">
<polygon fill="none" stroke="black" points="434.5,-1084.1 434.5,-1103.1 505.5,-1103.1 505.5,-1084.1 434.5,-1084.1"/>
<text text-anchor="middle" x="470" y="-1091.1" font-family="Helvetica,sans-Serif" font-size="10.00">VLReceiver</text>
</a>
</g>
</g>
<!-- Node2&#45;&gt;Node3 -->
<g id="edge3" class="edge">
<title>Node2&#45;&gt;Node3</title>
<path fill="none" stroke="#9a32cd" stroke-dasharray="5,2" d="M278.42,-533.01C287.35,-544.55 297.92,-560.5 303,-576.6 319.55,-629.09 284.31,-1030.58 321,-1071.6 335.63,-1087.96 395.45,-1092.31 434.41,-1093.38"/>
<polygon fill="#9a32cd" stroke="#9a32cd" points="281.04,-530.68 272.03,-525.11 275.6,-535.08 281.04,-530.68"/>
<text text-anchor="middle" x="365" y="-1094.6" font-family="Helvetica,sans-Serif" font-size="10.00"> m_engine</text>
</g>
<!-- Node5 -->
<g id="node5" class="node">
<title>Node5</title>
<g id="a_node5"><a xlink:href="classIRSender.html" target="_top" xlink:title=" ">
<polygon fill="none" stroke="black" points="440,-965.1 440,-984.1 500,-984.1 500,-965.1 440,-965.1"/>
<text text-anchor="middle" x="470" y="-972.1" font-family="Helvetica,sans-Serif" font-size="10.00">IRSender</text>
</a>
</g>
</g>
<!-- Node2&#45;&gt;Node5 -->
<g id="edge7" class="edge">
<title>Node2&#45;&gt;Node5</title>
<path fill="none" stroke="#9a32cd" stroke-dasharray="5,2" d="M278.35,-533.03C287.25,-544.59 297.81,-560.53 303,-576.6 315.27,-614.61 295.48,-904.89 321,-935.6 346.7,-966.53 370.17,-946.16 409,-956.6 419.08,-959.32 430.04,-962.53 439.8,-965.48"/>
<polygon fill="#9a32cd" stroke="#9a32cd" points="280.98,-530.72 271.98,-525.12 275.53,-535.11 280.98,-530.72"/>
<text text-anchor="middle" x="365" y="-959.6" font-family="Helvetica,sans-Serif" font-size="10.00"> m_engine</text>
</g>
<!-- Node8 -->
<g id="node8" class="node">
<title>Node8</title>
<g id="a_node8"><a xlink:href="classButtons.html" target="_top" xlink:title=" ">
<polygon fill="none" stroke="black" points="625,-294.1 625,-313.1 679,-313.1 679,-294.1 625,-294.1"/>
<text text-anchor="middle" x="652" y="-301.1" font-family="Helvetica,sans-Serif" font-size="10.00">Buttons</text>
</a>
</g>
</g>
<!-- Node2&#45;&gt;Node8 -->
<g id="edge13" class="edge">
<title>Node2&#45;&gt;Node8</title>
<path fill="none" stroke="#9a32cd" stroke-dasharray="5,2" d="M264.45,-495.68C267.24,-461.43 278.16,-391.71 321,-356.6 370.71,-315.87 543.84,-325.51 607,-313.6 612.7,-312.53 618.78,-311.24 624.54,-309.95"/>
<polygon fill="#9a32cd" stroke="#9a32cd" points="260.95,-495.62 263.78,-505.83 267.93,-496.08 260.95,-495.62"/>
<text text-anchor="middle" x="470" y="-330.6" font-family="Helvetica,sans-Serif" font-size="10.00"> m_engine</text>
</g>
<!-- Node9 -->
<g id="node9" class="node">
<title>Node9</title>
<g id="a_node9"><a xlink:href="classButton.html" target="_top" xlink:title=" ">
<polygon fill="none" stroke="black" points="445.5,-248.1 445.5,-267.1 494.5,-267.1 494.5,-248.1 445.5,-248.1"/>
<text text-anchor="middle" x="470" y="-255.1" font-family="Helvetica,sans-Serif" font-size="10.00">Button</text>
</a>
</g>
</g>
<!-- Node2&#45;&gt;Node9 -->
<g id="edge15" class="edge">
<title>Node2&#45;&gt;Node9</title>
<path fill="none" stroke="#9a32cd" stroke-dasharray="5,2" d="M265.81,-495.96C272.06,-446.28 290.86,-317.52 321,-288.6 329.93,-280.04 405.95,-267.28 445.42,-261.15"/>
<polygon fill="#9a32cd" stroke="#9a32cd" points="262.32,-495.69 264.58,-506.05 269.27,-496.54 262.32,-495.69"/>
<text text-anchor="middle" x="365" y="-291.6" font-family="Helvetica,sans-Serif" font-size="10.00"> m_engine</text>
</g>
<!-- Node10 -->
<g id="node10" class="node">
<title>Node10</title>
<g id="a_node10"><a xlink:href="classLeds.html" target="_top" xlink:title=" ">
<polygon fill="none" stroke="black" points="450.5,-210.1 450.5,-229.1 489.5,-229.1 489.5,-210.1 450.5,-210.1"/>
<text text-anchor="middle" x="470" y="-217.1" font-family="Helvetica,sans-Serif" font-size="10.00">Leds</text>
</a>
</g>
</g>
<!-- Node2&#45;&gt;Node10 -->
<g id="edge17" class="edge">
<title>Node2&#45;&gt;Node10</title>
<path fill="none" stroke="#9a32cd" stroke-dasharray="5,2" d="M265.11,-495.86C270,-440.79 286.51,-287.23 321,-252.6 323.3,-250.29 411.02,-231.72 450.3,-223.5"/>
<polygon fill="#9a32cd" stroke="#9a32cd" points="261.6,-495.78 264.24,-506.04 268.58,-496.38 261.6,-495.78"/>
<text text-anchor="middle" x="365" y="-255.6" font-family="Helvetica,sans-Serif" font-size="10.00"> m_engine</text>
</g>
<!-- Node11 -->
<g id="node11" class="node">
<title>Node11</title>
<g id="a_node11"><a xlink:href="classPatternBuilder.html" target="_top" xlink:title=" ">
<polygon fill="none" stroke="black" points="427,-157.1 427,-176.1 513,-176.1 513,-157.1 427,-157.1"/>
<text text-anchor="middle" x="470" y="-164.1" font-family="Helvetica,sans-Serif" font-size="10.00">PatternBuilder</text>
</a>
</g>
</g>
<!-- Node2&#45;&gt;Node11 -->
<g id="edge19" class="edge">
<title>Node2&#45;&gt;Node11</title>
<path fill="none" stroke="#9a32cd" stroke-dasharray="5,2" d="M264.04,-495.64C266.22,-431.24 276.52,-230.66 321,-187.6 335.68,-173.39 388.32,-168.72 426.65,-167.23"/>
<polygon fill="#9a32cd" stroke="#9a32cd" points="260.53,-495.91 263.72,-506.01 267.53,-496.13 260.53,-495.91"/>
<text text-anchor="middle" x="365" y="-190.6" font-family="Helvetica,sans-Serif" font-size="10.00"> m_engine</text>
</g>
<!-- Node12 -->
<g id="node12" class="node">
<title>Node12</title>
<g id="a_node12"><a xlink:href="classVLSender.html" target="_top" xlink:title=" ">
<polygon fill="none" stroke="black" points="439,-839.1 439,-858.1 501,-858.1 501,-839.1 439,-839.1"/>
<text text-anchor="middle" x="470" y="-846.1" font-family="Helvetica,sans-Serif" font-size="10.00">VLSender</text>
</a>
</g>
</g>
<!-- Node2&#45;&gt;Node12 -->
<g id="edge21" class="edge">
<title>Node2&#45;&gt;Node12</title>
<path fill="none" stroke="#9a32cd" stroke-dasharray="5,2" d="M278.18,-533.09C287.01,-544.66 297.57,-560.61 303,-576.6 319,-623.68 288.65,-761.85 321,-799.6 347.17,-830.14 371.03,-807.37 409,-820.6 423.54,-825.67 439.3,-833.11 451.02,-839.04"/>
<polygon fill="#9a32cd" stroke="#9a32cd" points="280.84,-530.81 271.88,-525.16 275.36,-535.16 280.84,-530.81"/>
<text text-anchor="middle" x="365" y="-823.6" font-family="Helvetica,sans-Serif" font-size="10.00"> m_engine</text>
</g>
<!-- Node13 -->
<g id="node13" class="node">
<title>Node13</title>
<g id="a_node13"><a xlink:href="classModes.html" target="_top" xlink:title=" ">
<polygon fill="none" stroke="black" points="1051,-740.1 1051,-759.1 1100,-759.1 1100,-740.1 1051,-740.1"/>
<text text-anchor="middle" x="1075.5" y="-747.1" font-family="Helvetica,sans-Serif" font-size="10.00">Modes</text>
</a>
</g>
</g>
<!-- Node2&#45;&gt;Node13 -->
<g id="edge25" class="edge">
<title>Node2&#45;&gt;Node13</title>
<path fill="none" stroke="#9a32cd" stroke-dasharray="5,2" d="M277.95,-533.17C286.69,-544.78 297.23,-560.73 303,-576.6 325.34,-638.05 280.59,-671.21 321,-722.6 352.12,-762.19 377.51,-753.32 427,-762.6 691.71,-812.27 767.28,-807.6 1033,-763.6 1038.85,-762.64 1044.99,-760.96 1050.7,-759.09"/>
<polygon fill="#9a32cd" stroke="#9a32cd" points="280.64,-530.93 271.73,-525.21 275.13,-535.24 280.64,-530.93"/>
<text text-anchor="middle" x="652" y="-799.6" font-family="Helvetica,sans-Serif" font-size="10.00"> m_engine</text>
</g>
<!-- Node14 -->
<g id="node14" class="node">
<title>Node14</title>
<g id="a_node14"><a xlink:href="classModes_1_1ModeLink.html" target="_top" xlink:title=" ">
<polygon fill="none" stroke="black" points="825,-659.1 825,-678.1 927,-678.1 927,-659.1 825,-659.1"/>
<text text-anchor="middle" x="876" y="-666.1" font-family="Helvetica,sans-Serif" font-size="10.00">Modes::ModeLink</text>
</a>
</g>
</g>
<!-- Node2&#45;&gt;Node14 -->
<g id="edge33" class="edge">
<title>Node2&#45;&gt;Node14</title>
<path fill="none" stroke="#9a32cd" stroke-dasharray="5,2" d="M277.05,-533.54C285.44,-545.29 295.91,-561.27 303,-576.6 314.68,-601.87 300.8,-617.45 321,-636.6 469.91,-777.8 754.55,-706.19 845.96,-678.15"/>
<polygon fill="#9a32cd" stroke="#9a32cd" points="279.87,-531.46 271.14,-525.45 274.22,-535.59 279.87,-531.46"/>
<text text-anchor="middle" x="569" y="-723.6" font-family="Helvetica,sans-Serif" font-size="10.00"> m_engine</text>
</g>
<!-- Node15 -->
<g id="node15" class="node">
<title>Node15</title>
<g id="a_node15"><a xlink:href="classMode.html" target="_top" xlink:title=" ">
<polygon fill="none" stroke="black" points="630,-609.1 630,-628.1 674,-628.1 674,-609.1 630,-609.1"/>
<text text-anchor="middle" x="652" y="-616.1" font-family="Helvetica,sans-Serif" font-size="10.00">Mode</text>
</a>
</g>
</g>
<!-- Node2&#45;&gt;Node15 -->
<g id="edge28" class="edge">
<title>Node2&#45;&gt;Node15</title>
<path fill="none" stroke="#9a32cd" stroke-dasharray="5,2" d="M275.81,-534.11C283.73,-546.12 294.15,-562.18 303,-576.6 311.33,-590.18 307.44,-599.23 321,-607.6 421.47,-669.66 573.93,-638.97 629.65,-624.61"/>
<polygon fill="#9a32cd" stroke="#9a32cd" points="278.52,-531.85 270.08,-525.44 272.68,-535.71 278.52,-531.85"/>
<text text-anchor="middle" x="470" y="-647.6" font-family="Helvetica,sans-Serif" font-size="10.00"> m_engine</text>
</g>
<!-- Node16 -->
<g id="node16" class="node">
<title>Node16</title>
<g id="a_node16"><a xlink:href="classPattern.html" target="_top" xlink:title=" ">
<polygon fill="none" stroke="black" points="444.5,-579.1 444.5,-598.1 495.5,-598.1 495.5,-579.1 444.5,-579.1"/>
<text text-anchor="middle" x="470" y="-586.1" font-family="Helvetica,sans-Serif" font-size="10.00">Pattern</text>
</a>
</g>
</g>
<!-- Node2&#45;&gt;Node16 -->
<g id="edge30" class="edge">
<title>Node2&#45;&gt;Node16</title>
<path fill="none" stroke="#9a32cd" stroke-dasharray="5,2" d="M283.77,-531.02C294.39,-538.46 307.87,-546.97 321,-552.6 332.3,-557.45 405.31,-574.26 444.39,-583.09"/>
<polygon fill="#9a32cd" stroke="#9a32cd" points="285.76,-528.14 275.61,-525.11 281.66,-533.81 285.76,-528.14"/>
<text text-anchor="middle" x="365" y="-576.6" font-family="Helvetica,sans-Serif" font-size="10.00"> m_engine</text>
</g>
<!-- Node19 -->
<g id="node19" class="node">
<title>Node19</title>
<g id="a_node19"><a xlink:href="classSerialComs.html" target="_top" xlink:title=" ">
<polygon fill="none" stroke="black" points="434,-93.1 434,-112.1 506,-112.1 506,-93.1 434,-93.1"/>
<text text-anchor="middle" x="470" y="-100.1" font-family="Helvetica,sans-Serif" font-size="10.00">SerialComs</text>
</a>
</g>
</g>
<!-- Node2&#45;&gt;Node19 -->
<g id="edge37" class="edge">
<title>Node2&#45;&gt;Node19</title>
<path fill="none" stroke="#9a32cd" stroke-dasharray="5,2" d="M263.37,-495.95C263.34,-423.73 267.18,-174.5 321,-121.6 336.47,-106.4 395.06,-102.95 433.71,-102.39"/>
<polygon fill="#9a32cd" stroke="#9a32cd" points="259.87,-495.97 263.4,-505.96 266.87,-495.95 259.87,-495.97"/>
<text text-anchor="middle" x="365" y="-124.6" font-family="Helvetica,sans-Serif" font-size="10.00"> m_engine</text>
</g>
<!-- Node20 -->
<g id="node20" class="node">
<title>Node20</title>
<g id="a_node20"><a xlink:href="classIRReceiver.html" target="_top" xlink:title=" ">
<polygon fill="none" stroke="black" points="435.5,-380.1 435.5,-399.1 504.5,-399.1 504.5,-380.1 435.5,-380.1"/>
<text text-anchor="middle" x="470" y="-387.1" font-family="Helvetica,sans-Serif" font-size="10.00">IRReceiver</text>
</a>
</g>
</g>
<!-- Node2&#45;&gt;Node20 -->
<g id="edge39" class="edge">
<title>Node2&#45;&gt;Node20</title>
<path fill="none" stroke="#9a32cd" stroke-dasharray="5,2" d="M267.83,-496.16C274.56,-470.96 290.08,-427.75 321,-406.6 354.73,-383.53 403.2,-382.47 435.37,-385.03"/>
<polygon fill="#9a32cd" stroke="#9a32cd" points="264.4,-495.49 265.41,-506.03 271.19,-497.16 264.4,-495.49"/>
<text text-anchor="middle" x="365" y="-409.6" font-family="Helvetica,sans-Serif" font-size="10.00"> m_engine</text>
</g>
<!-- Node21 -->
<g id="node21" class="node">
<title>Node21</title>
<g id="a_node21"><a xlink:href="classTime.html" target="_top" xlink:title=" ">
<polygon fill="none" stroke="black" points="449.5,-23.1 449.5,-42.1 490.5,-42.1 490.5,-23.1 449.5,-23.1"/>
<text text-anchor="middle" x="470" y="-30.1" font-family="Helvetica,sans-Serif" font-size="10.00">Time</text>
</a>
</g>
</g>
<!-- Node2&#45;&gt;Node21 -->
<g id="edge42" class="edge">
<title>Node2&#45;&gt;Node21</title>
<path fill="none" stroke="#9a32cd" stroke-dasharray="5,2" d="M264.57,-495.93C269.31,-412.01 289.61,-86.74 321,-54.6 338.47,-36.72 413.35,-33.29 449.42,-32.69"/>
<polygon fill="#9a32cd" stroke="#9a32cd" points="261.07,-495.74 264.01,-505.92 268.06,-496.13 261.07,-495.74"/>
<text text-anchor="middle" x="365" y="-57.6" font-family="Helvetica,sans-Serif" font-size="10.00"> m_engine</text>
</g>
<!-- Node22 -->
<g id="node22" class="node">
<title>Node22</title>
<g id="a_node22"><a xlink:href="classMenus.html" target="_top" xlink:title=" ">
<polygon fill="none" stroke="black" points="1051,-519.1 1051,-538.1 1100,-538.1 1100,-519.1 1051,-519.1"/>
<text text-anchor="middle" x="1075.5" y="-526.1" font-family="Helvetica,sans-Serif" font-size="10.00">Menus</text>
</a>
</g>
</g>
<!-- Node2&#45;&gt;Node22 -->
<g id="edge44" class="edge">
<title>Node2&#45;&gt;Node22</title>
<path fill="none" stroke="#9a32cd" stroke-dasharray="5,2" d="M313.3,-526.5C315.9,-526.91 318.48,-527.28 321,-527.6 367.79,-533.55 379.86,-531.02 427,-532.6 657.12,-540.35 714.75,-539.16 945,-540.6 984.11,-540.85 994.28,-546.09 1033,-540.6 1038.79,-539.78 1044.91,-538.35 1050.61,-536.75"/>
<polygon fill="#9a32cd" stroke="#9a32cd" points="313.72,-523.02 303.26,-524.76 312.52,-529.92 313.72,-523.02"/>
<text text-anchor="middle" x="652" y="-541.6" font-family="Helvetica,sans-Serif" font-size="10.00"> m_engine</text>
</g>
<!-- Node23 -->
<g id="node23" class="node">
<title>Node23</title>
<g id="a_node23"><a xlink:href="classMenu.html" target="_top" xlink:title=" ">
<polygon fill="none" stroke="black" points="854,-471.1 854,-490.1 898,-490.1 898,-471.1 854,-471.1"/>
<text text-anchor="middle" x="876" y="-478.1" font-family="Helvetica,sans-Serif" font-size="10.00">Menu</text>
</a>
</g>
</g>
<!-- Node2&#45;&gt;Node23 -->
<g id="edge48" class="edge">
<title>Node2&#45;&gt;Node23</title>
<path fill="none" stroke="#9a32cd" stroke-dasharray="5,2" d="M313.33,-505.69C315.92,-505.29 318.49,-504.93 321,-504.6 527.25,-478.1 779.85,-479.24 853.76,-480.24"/>
<polygon fill="#9a32cd" stroke="#9a32cd" points="312.6,-502.26 303.3,-507.34 313.74,-509.17 312.6,-502.26"/>
<text text-anchor="middle" x="569" y="-488.6" font-family="Helvetica,sans-Serif" font-size="10.00"> m_engine</text>
</g>
<!-- Node3&#45;&gt;Node2 -->
<g id="edge2" class="edge">
<title>Node3&#45;&gt;Node2</title>
<path fill="none" stroke="#9a32cd" stroke-dasharray="5,2" d="M444.26,-1078.95C433.59,-1072.9 420.86,-1066.06 409,-1060.6 371.05,-1043.16 345.47,-1061.45 321,-1027.6 291.62,-986.96 318.17,-624.41 303,-576.6 296.59,-556.4 281.58,-536.44 272.02,-525.11"/>
<polygon fill="#9a32cd" stroke="#9a32cd" points="442.61,-1082.04 453.03,-1083.99 446.11,-1075.97 442.61,-1082.04"/>
<text text-anchor="middle" x="365" y="-1063.6" font-family="Helvetica,sans-Serif" font-size="10.00"> m_vlReceiver</text>
</g>
<!-- Node4 -->
<g id="node4" class="node">
<title>Node4</title>
<g id="a_node4"><a xlink:href="classBitStream.html" target="_top" xlink:title=" ">
<polygon fill="none" stroke="black" points="230,-925.1 230,-944.1 295,-944.1 295,-925.1 230,-925.1"/>
<text text-anchor="middle" x="262.5" y="-932.1" font-family="Helvetica,sans-Serif" font-size="10.00">BitStream</text>
</a>
</g>
</g>
<!-- Node4&#45;&gt;Node3 -->
<g id="edge4" class="edge">
<title>Node4&#45;&gt;Node3</title>
<path fill="none" stroke="#9a32cd" stroke-dasharray="5,2" d="M263.33,-954.63C264.22,-991.7 272.12,-1070.47 321,-1105.6 358.78,-1132.76 416.86,-1115.66 447.83,-1103.21"/>
<polygon fill="#9a32cd" stroke="#9a32cd" points="266.82,-954.13 263.24,-944.16 259.82,-954.19 266.82,-954.13"/>
<text text-anchor="middle" x="365" y="-1122.6" font-family="Helvetica,sans-Serif" font-size="10.00"> m_vlData</text>
</g>
<!-- Node4&#45;&gt;Node5 -->
<g id="edge8" class="edge">
<title>Node4&#45;&gt;Node5</title>
<path fill="none" stroke="#9a32cd" stroke-dasharray="5,2" d="M272.82,-953.14C282.37,-969.82 298.93,-993.26 321,-1003.6 356.42,-1020.19 370.88,-1012.33 409,-1003.6 425.24,-999.89 442.19,-991.17 453.92,-984.26"/>
<polygon fill="#9a32cd" stroke="#9a32cd" points="275.85,-951.38 268.02,-944.24 269.69,-954.71 275.85,-951.38"/>
<text text-anchor="middle" x="365" y="-1015.6" font-family="Helvetica,sans-Serif" font-size="10.00"> m_bitStream</text>
</g>
<!-- Node4&#45;&gt;Node12 -->
<g id="edge22" class="edge">
<title>Node4&#45;&gt;Node12</title>
<path fill="none" stroke="#9a32cd" stroke-dasharray="5,2" d="M281.51,-917.98C292.28,-908.79 306.64,-897.81 321,-890.6 341.65,-880.25 401.98,-864.71 438.93,-855.72"/>
<polygon fill="#9a32cd" stroke="#9a32cd" points="278.89,-915.62 273.7,-924.86 283.52,-920.87 278.89,-915.62"/>
<text text-anchor="middle" x="365" y="-893.6" font-family="Helvetica,sans-Serif" font-size="10.00"> m_bitStream</text>
</g>
<!-- Node4&#45;&gt;Node20 -->
<g id="edge40" class="edge">
<title>Node4&#45;&gt;Node20</title>
<path fill="none" stroke="#9a32cd" stroke-dasharray="5,2" d="M272.51,-915.86C281.94,-895.25 296.31,-860.89 303,-829.6 316.6,-766.03 296.62,-597.87 321,-537.6 348.19,-470.39 371.14,-459.83 427,-413.6 433.6,-408.14 441.61,-403.22 448.85,-399.28"/>
<polygon fill="#9a32cd" stroke="#9a32cd" points="269.27,-914.51 268.21,-925.05 275.61,-917.48 269.27,-914.51"/>
<text text-anchor="middle" x="365" y="-540.6" font-family="Helvetica,sans-Serif" font-size="10.00"> m_irData</text>
</g>
<!-- Node5&#45;&gt;Node2 -->
<g id="edge6" class="edge">
<title>Node5&#45;&gt;Node2</title>
<path fill="none" stroke="#9a32cd" stroke-dasharray="5,2" d="M452.82,-957.7C441.49,-946.78 425.49,-933.09 409,-924.6 373.05,-906.11 346.58,-932.9 321,-901.6 298.11,-873.6 314.2,-610.99 303,-576.6 296.43,-556.45 281.47,-536.48 271.97,-525.13"/>
<polygon fill="#9a32cd" stroke="#9a32cd" points="450.62,-960.45 460.18,-965.04 455.57,-955.5 450.62,-960.45"/>
<text text-anchor="middle" x="365" y="-927.6" font-family="Helvetica,sans-Serif" font-size="10.00"> m_irSender</text>
</g>
<!-- Node6 -->
<g id="node6" class="node">
<title>Node6</title>
<g id="a_node6"><a xlink:href="classByteStream.html" target="_top" xlink:title=" ">
<polygon fill="none" stroke="black" points="225.5,-801.1 225.5,-820.1 299.5,-820.1 299.5,-801.1 225.5,-801.1"/>
<text text-anchor="middle" x="262.5" y="-808.1" font-family="Helvetica,sans-Serif" font-size="10.00">ByteStream</text>
</a>
</g>
</g>
<!-- Node6&#45;&gt;Node5 -->
<g id="edge9" class="edge">
<title>Node6&#45;&gt;Node5</title>
<path fill="none" stroke="#9a32cd" stroke-dasharray="5,2" d="M270.84,-829.45C278.94,-850.41 292.25,-885.3 303,-915.6 311.46,-939.45 300.73,-954.47 321,-969.6 355.3,-995.22 407.59,-989.63 439.96,-982.59"/>
<polygon fill="#9a32cd" stroke="#9a32cd" points="274.1,-828.17 267.22,-820.11 267.57,-830.7 274.1,-828.17"/>
<text text-anchor="middle" x="365" y="-990.6" font-family="Helvetica,sans-Serif" font-size="10.00"> m_serialBuf</text>
</g>
<!-- Node6&#45;&gt;Node12 -->
<g id="edge23" class="edge">
<title>Node6&#45;&gt;Node12</title>
<path fill="none" stroke="#9a32cd" stroke-dasharray="5,2" d="M292.51,-824.04C301.47,-827.69 311.49,-831.27 321,-833.6 361,-843.43 408.61,-846.83 438.82,-848"/>
<polygon fill="#9a32cd" stroke="#9a32cd" points="293.84,-820.8 283.27,-820.11 291.1,-827.24 293.84,-820.8"/>
<text text-anchor="middle" x="365" y="-848.6" font-family="Helvetica,sans-Serif" font-size="10.00"> m_serialBuf</text>
</g>
<!-- Node6&#45;&gt;Node14 -->
<g id="edge34" class="edge">
<title>Node6&#45;&gt;Node14</title>
<path fill="none" stroke="#9a32cd" stroke-dasharray="5,2" d="M280.41,-793.64C291.31,-783.38 306.17,-770.6 321,-761.6 407.09,-709.39 432.4,-697 531,-676.6 633.67,-655.37 757.24,-659.49 824.8,-664.18"/>
<polygon fill="#9a32cd" stroke="#9a32cd" points="277.68,-791.41 272.92,-800.88 282.54,-796.45 277.68,-791.41"/>
<text text-anchor="middle" x="569" y="-679.6" font-family="Helvetica,sans-Serif" font-size="10.00"> m_storedMode</text>
</g>
<!-- Node7 -->
<g id="node7" class="node">
<title>Node7</title>
<g id="a_node7"><a xlink:href="structByteStream_1_1RawBuffer.html" target="_top" xlink:title=" ">
<polygon fill="none" stroke="black" points="0,-523.1 0,-542.1 131,-542.1 131,-523.1 0,-523.1"/>
<text text-anchor="middle" x="65.5" y="-530.1" font-family="Helvetica,sans-Serif" font-size="10.00">ByteStream::RawBuffer</text>
</a>
</g>
</g>
<!-- Node7&#45;&gt;Node6 -->
<g id="edge10" class="edge">
<title>Node7&#45;&gt;Node6</title>
<path fill="none" stroke="#9a32cd" stroke-dasharray="5,2" d="M103.95,-520.47C134.29,-513.17 176.4,-509.11 204,-531.6 205.36,-532.71 249.71,-752.19 259.57,-801.04"/>
<polygon fill="#9a32cd" stroke="#9a32cd" points="102.93,-517.12 94.14,-523.04 104.7,-523.89 102.93,-517.12"/>
<text text-anchor="middle" x="176.5" y="-534.6" font-family="Helvetica,sans-Serif" font-size="10.00"> m_pData</text>
</g>
<!-- Node8&#45;&gt;Node2 -->
<g id="edge12" class="edge">
<title>Node8&#45;&gt;Node2</title>
<path fill="none" stroke="#9a32cd" stroke-dasharray="5,2" d="M614.85,-301.22C538.69,-296.97 365.12,-291.64 321,-327.6 264.39,-373.76 262.24,-474.12 263.06,-505.81"/>
<polygon fill="#9a32cd" stroke="#9a32cd" points="614.74,-304.72 624.93,-301.81 615.15,-297.73 614.74,-304.72"/>
<text text-anchor="middle" x="470" y="-304.6" font-family="Helvetica,sans-Serif" font-size="10.00"> m_buttons</text>
</g>
<!-- Node9&#45;&gt;Node8 -->
<g id="edge14" class="edge">
<title>Node9&#45;&gt;Node8</title>
<path fill="none" stroke="#9a32cd" stroke-dasharray="5,2" d="M504.81,-259.41C532.84,-261.71 573.39,-266.9 607,-278.6 617.62,-282.3 628.62,-288.55 636.97,-293.88"/>
<polygon fill="#9a32cd" stroke="#9a32cd" points="504.96,-255.91 494.73,-258.67 504.44,-262.89 504.96,-255.91"/>
<text text-anchor="middle" x="569" y="-281.6" font-family="Helvetica,sans-Serif" font-size="10.00"> m_buttons</text>
</g>
<!-- Node10&#45;&gt;Node2 -->
<g id="edge16" class="edge">
<title>Node10&#45;&gt;Node2</title>
<path fill="none" stroke="#9a32cd" stroke-dasharray="5,2" d="M440.24,-210.08C407.48,-201.21 354.19,-193.07 321,-220.6 275.62,-258.25 265.55,-459.34 263.81,-505.95"/>
<polygon fill="#9a32cd" stroke="#9a32cd" points="439.53,-213.52 450.11,-212.94 441.48,-206.8 439.53,-213.52"/>
<text text-anchor="middle" x="365" y="-223.6" font-family="Helvetica,sans-Serif" font-size="10.00"> m_leds</text>
</g>
<!-- Node11&#45;&gt;Node2 -->
<g id="edge18" class="edge">
<title>Node11&#45;&gt;Node2</title>
<path fill="none" stroke="#9a32cd" stroke-dasharray="5,2" d="M440.58,-152.93C407.76,-139.37 354.08,-124.35 321,-152.6 265.45,-200.05 263.27,-453.08 263.43,-505.93"/>
<polygon fill="#9a32cd" stroke="#9a32cd" points="439.48,-156.27 450.04,-157.04 442.26,-149.85 439.48,-156.27"/>
<text text-anchor="middle" x="365" y="-155.6" font-family="Helvetica,sans-Serif" font-size="10.00"> m_patternBuilder</text>
</g>
<!-- Node12&#45;&gt;Node2 -->
<g id="edge20" class="edge">
<title>Node12&#45;&gt;Node2</title>
<path fill="none" stroke="#9a32cd" stroke-dasharray="5,2" d="M452.64,-831.34C436.71,-814.68 414.16,-791.56 409,-788.6 373.93,-768.5 347.2,-796.39 321,-765.6 293.66,-733.47 316.86,-616.45 303,-576.6 296.04,-556.58 281.2,-536.57 271.82,-525.18"/>
<polygon fill="#9a32cd" stroke="#9a32cd" points="450.39,-834.06 459.82,-838.88 455.46,-829.23 450.39,-834.06"/>
<text text-anchor="middle" x="365" y="-791.6" font-family="Helvetica,sans-Serif" font-size="10.00"> m_vlSender</text>
</g>
<!-- Node13&#45;&gt;Node2 -->
<g id="edge24" class="edge">
<title>Node13&#45;&gt;Node2</title>
<path fill="none" stroke="#9a32cd" stroke-dasharray="5,2" d="M1040.69,-749.6C1001.36,-749.6 934.48,-749.6 877,-749.6 568,-749.6 568,-749.6 568,-749.6 453.53,-749.6 392.06,-766.35 321,-676.6 292.97,-641.2 319.6,-618.6 303,-576.6 295.21,-556.89 280.63,-536.78 271.53,-525.28"/>
<polygon fill="#9a32cd" stroke="#9a32cd" points="1040.79,-753.1 1050.79,-749.6 1040.79,-746.1 1040.79,-753.1"/>
<text text-anchor="middle" x="652" y="-752.6" font-family="Helvetica,sans-Serif" font-size="10.00"> m_modes</text>
</g>
<!-- Node14&#45;&gt;Node13 -->
<g id="edge26" class="edge">
<title>Node14&#45;&gt;Node13</title>
<path fill="none" stroke="#9a32cd" stroke-dasharray="5,2" d="M937.18,-679.55C967.18,-686.57 1003.29,-697.46 1033,-713.6 1045.74,-720.53 1057.98,-731.92 1065.82,-740.03"/>
<polygon fill="#9a32cd" stroke="#9a32cd" points="937.79,-676.1 927.26,-677.31 936.25,-682.93 937.79,-676.1"/>
<text text-anchor="middle" x="989" y="-727.6" font-family="Helvetica,sans-Serif" font-size="10.00"> m_pCurModeLink</text>
<text text-anchor="middle" x="989" y="-716.6" font-family="Helvetica,sans-Serif" font-size="10.00">m_storedModes</text>
</g>
<!-- Node14&#45;&gt;Node14 -->
<g id="edge35" class="edge">
<title>Node14&#45;&gt;Node14</title>
<path fill="none" stroke="#9a32cd" stroke-dasharray="5,2" d="M855.26,-688C856.65,-692.92 863.56,-696.6 876,-696.6 895.91,-696.6 901.66,-687.17 893.26,-678.36"/>
<polygon fill="#9a32cd" stroke="#9a32cd" points="858.64,-688.96 858.74,-678.36 852.05,-686.58 858.64,-688.96"/>
<text text-anchor="middle" x="876" y="-710.6" font-family="Helvetica,sans-Serif" font-size="10.00"> m_next</text>
<text text-anchor="middle" x="876" y="-699.6" font-family="Helvetica,sans-Serif" font-size="10.00">m_prev</text>
</g>
<!-- Node15&#45;&gt;Node14 -->
<g id="edge27" class="edge">
<title>Node15&#45;&gt;Node14</title>
<path fill="none" stroke="#9a32cd" stroke-dasharray="5,2" d="M684.33,-620.78C715.78,-623.51 765.4,-629.26 807,-640.6 823.87,-645.21 842.16,-652.9 855.52,-659.06"/>
<polygon fill="#9a32cd" stroke="#9a32cd" points="684.26,-617.27 674.01,-619.94 683.69,-624.24 684.26,-617.27"/>
<text text-anchor="middle" x="752" y="-643.6" font-family="Helvetica,sans-Serif" font-size="10.00"> m_pInstantiatedMode</text>
</g>
<!-- Node15&#45;&gt;Node23 -->
<g id="edge46" class="edge">
<title>Node15&#45;&gt;Node23</title>
<path fill="none" stroke="#9a32cd" stroke-dasharray="5,2" d="M677.33,-603.48C723.33,-574.89 821.81,-513.67 859.7,-490.11"/>
<polygon fill="#9a32cd" stroke="#9a32cd" points="675.26,-600.65 668.61,-608.9 678.95,-606.59 675.26,-600.65"/>
<text text-anchor="middle" x="752" y="-591.6" font-family="Helvetica,sans-Serif" font-size="10.00"> m_previewMode</text>
</g>
<!-- Node16&#45;&gt;Node15 -->
<g id="edge29" class="edge">
<title>Node16&#45;&gt;Node15</title>
<path fill="none" stroke="#9a32cd" stroke-dasharray="5,2" d="M505.56,-593.47C533.09,-597.46 572.59,-603.43 607,-609.6 614.37,-610.93 622.4,-612.52 629.56,-614"/>
<polygon fill="#9a32cd" stroke="#9a32cd" points="506.02,-590 495.63,-592.04 505.03,-596.93 506.02,-590"/>
<text text-anchor="middle" x="569" y="-612.6" font-family="Helvetica,sans-Serif" font-size="10.00"> m_multiPat</text>
</g>
<!-- Node17 -->
<g id="node17" class="node">
<title>Node17</title>
<g id="a_node17"><a xlink:href="classColorset.html" target="_top" xlink:title=" ">
<polygon fill="none" stroke="black" points="234,-586.1 234,-605.1 291,-605.1 291,-586.1 234,-586.1"/>
<text text-anchor="middle" x="262.5" y="-593.1" font-family="Helvetica,sans-Serif" font-size="10.00">Colorset</text>
</a>
</g>
</g>
<!-- Node17&#45;&gt;Node16 -->
<g id="edge31" class="edge">
<title>Node17&#45;&gt;Node16</title>
<path fill="none" stroke="#9a32cd" stroke-dasharray="5,2" d="M301.25,-594.32C342.91,-592.9 408.75,-590.66 444.29,-589.45"/>
<polygon fill="#9a32cd" stroke="#9a32cd" points="301.09,-590.82 291.21,-594.66 301.33,-597.82 301.09,-590.82"/>
<text text-anchor="middle" x="365" y="-595.6" font-family="Helvetica,sans-Serif" font-size="10.00"> m_colorset</text>
</g>
<!-- Node18 -->
<g id="node18" class="node">
<title>Node18</title>
<g id="a_node18"><a xlink:href="classRGBColor.html" target="_top" xlink:title=" ">
<polygon fill="none" stroke="black" points="34,-471.1 34,-490.1 97,-490.1 97,-471.1 34,-471.1"/>
<text text-anchor="middle" x="65.5" y="-478.1" font-family="Helvetica,sans-Serif" font-size="10.00">RGBColor</text>
</a>
</g>
</g>
<!-- Node18&#45;&gt;Node17 -->
<g id="edge32" class="edge">
<title>Node18&#45;&gt;Node17</title>
<path fill="none" stroke="#9a32cd" stroke-dasharray="5,2" d="M107.39,-475.24C137.59,-473.64 177.84,-476.8 204,-499.6 226.27,-519.02 205.76,-538.92 222,-563.6 227.92,-572.6 237.17,-580.29 245.23,-585.87"/>
<polygon fill="#9a32cd" stroke="#9a32cd" points="106.89,-471.77 97.17,-475.98 107.4,-478.75 106.89,-471.77"/>
<text text-anchor="middle" x="176.5" y="-502.6" font-family="Helvetica,sans-Serif" font-size="10.00"> m_palette</text>
</g>
<!-- Node18&#45;&gt;Node23 -->
<g id="edge47" class="edge">
<title>Node18&#45;&gt;Node23</title>
<path fill="none" stroke="#9a32cd" stroke-dasharray="5,2" d="M107.48,-479.4C174.35,-477.5 311.13,-473.89 427,-472.6 595.89,-470.73 638.21,-470.49 807,-476.6 822.72,-477.17 840.46,-478.23 853.88,-479.12"/>
<polygon fill="#9a32cd" stroke="#9a32cd" points="107.25,-475.9 97.36,-479.69 107.45,-482.9 107.25,-475.9"/>
<text text-anchor="middle" x="470" y="-475.6" font-family="Helvetica,sans-Serif" font-size="10.00"> m_menuColor</text>
</g>
<!-- Node19&#45;&gt;Node2 -->
<g id="edge36" class="edge">
<title>Node19&#45;&gt;Node2</title>
<path fill="none" stroke="#9a32cd" stroke-dasharray="5,2" d="M442.06,-88.4C409.33,-73.33 354.36,-55.4 321,-84.6 288.06,-113.44 267.6,-443.99 264.05,-505.71"/>
<polygon fill="#9a32cd" stroke="#9a32cd" points="440.93,-91.74 451.46,-92.93 443.97,-85.43 440.93,-91.74"/>
<text text-anchor="middle" x="365" y="-87.6" font-family="Helvetica,sans-Serif" font-size="10.00"> m_serial</text>
</g>
<!-- Node20&#45;&gt;Node2 -->
<g id="edge38" class="edge">
<title>Node20&#45;&gt;Node2</title>
<path fill="none" stroke="#9a32cd" stroke-dasharray="5,2" d="M440.61,-376.04C408.71,-362.98 356.73,-348.46 321,-372.6 274.66,-403.92 265.66,-479.41 263.92,-506.08"/>
<polygon fill="#9a32cd" stroke="#9a32cd" points="439.25,-379.27 449.82,-380 442.02,-372.84 439.25,-379.27"/>
<text text-anchor="middle" x="365" y="-375.6" font-family="Helvetica,sans-Serif" font-size="10.00"> m_irReceiver</text>
</g>
<!-- Node21&#45;&gt;Node2 -->
<g id="edge41" class="edge">
<title>Node21&#45;&gt;Node2</title>
<path fill="none" stroke="#9a32cd" stroke-dasharray="5,2" d="M441.44,-18.6C408.54,-4.09 353.87,12.7 321,-16.6 282.92,-50.55 266.41,-439.36 263.86,-505.93"/>
<polygon fill="#9a32cd" stroke="#9a32cd" points="440.35,-21.95 450.9,-22.97 443.29,-15.6 440.35,-21.95"/>
<text text-anchor="middle" x="365" y="-19.6" font-family="Helvetica,sans-Serif" font-size="10.00"> m_time</text>
</g>
<!-- Node22&#45;&gt;Node2 -->
<g id="edge43" class="edge">
<title>Node22&#45;&gt;Node2</title>
<path fill="none" stroke="#9a32cd" stroke-dasharray="5,2" d="M1040.58,-528.06C910.37,-525.97 442.82,-518.48 303.17,-516.24"/>
<polygon fill="#9a32cd" stroke="#9a32cd" points="1040.7,-531.56 1050.75,-528.22 1040.81,-524.56 1040.7,-531.56"/>
<text text-anchor="middle" x="652" y="-524.6" font-family="Helvetica,sans-Serif" font-size="10.00"> m_menus</text>
</g>
<!-- Node23&#45;&gt;Node22 -->
<g id="edge45" class="edge">
<title>Node23&#45;&gt;Node22</title>
<path fill="none" stroke="#9a32cd" stroke-dasharray="5,2" d="M908.2,-481.6C940.33,-483.45 991.44,-488.7 1033,-503.6 1043.29,-507.29 1053.83,-513.68 1061.72,-519.08"/>
<polygon fill="#9a32cd" stroke="#9a32cd" points="908.24,-478.1 898.07,-481.09 907.89,-485.09 908.24,-478.1"/>
<text text-anchor="middle" x="989" y="-506.6" font-family="Helvetica,sans-Serif" font-size="10.00"> m_pCurMenu</text>
</g>
</g>
</svg>
