<?xml version="1.0" encoding="UTF-8" standalone="no"?>
<!DOCTYPE svg PUBLIC "-//W3C//DTD SVG 1.1//EN"
 "http://www.w3.org/Graphics/SVG/1.1/DTD/svg11.dtd">
<!-- Generated by graphviz version 2.43.0 (0)
 -->
<!-- Title: Buttons Pages: 1 -->
<!--zoomable 1175 -->
<svg id="main" version="1.1" xmlns="http://www.w3.org/2000/svg" xmlns:xlink="http://www.w3.org/1999/xlink" xml:space="preserve" onload="init(evt)">
<style type="text/css"><![CDATA[
.edge:hover path { stroke: red; }
.edge:hover polygon { stroke: red; fill: red; }
]]></style>
<script type="text/javascript"><![CDATA[
var edges = document.getElementsByTagName('g');
if (edges && edges.length) {
  for (var i=0;i<edges.length;i++) {
    if (edges[i].id.substr(0,4)=='edge') {
      edges[i].setAttribute('class','edge');
    }
  }
}
]]></script>
        <defs>
                <circle id="rim" cx="0" cy="0" r="7"/>
                <circle id="rim2" cx="0" cy="0" r="3.5"/>
                <g id="zoomPlus">
                        <use xlink:href="#rim" fill="#404040">
                                <set attributeName="fill" to="#808080" begin="zoomplus.mouseover" end="zoomplus.mouseout"/>
                        </use>
                        <path d="M-4,0h8M0,-4v8" fill="none" stroke="white" stroke-width="1.5" pointer-events="none"/>
                </g>
                <g id="zoomMin">
                        <use xlink:href="#rim" fill="#404040">
                                <set attributeName="fill" to="#808080" begin="zoomminus.mouseover" end="zoomminus.mouseout"/>
                        </use>
                        <path d="M-4,0h8" fill="none" stroke="white" stroke-width="1.5" pointer-events="none"/>
                </g>
                <g id="dirArrow">
                        <path fill="none" stroke="white" stroke-width="1.5" d="M0,-3.0v7 M-2.5,-0.5L0,-3.0L2.5,-0.5"/>
                </g>
               <g id="resetDef">
                       <use xlink:href="#rim2" fill="#404040">
                               <set attributeName="fill" to="#808080" begin="reset.mouseover" end="reset.mouseout"/>
                       </use>
               </g>
        </defs>

<script type="text/javascript">
var viewWidth = 1106;
var viewHeight = 1175;
var sectionId = 'dynsection-0';
</script>
<script xlink:href="svgpan.js"/>
<svg id="graph" class="graph">
<g id="viewport">
<title>Buttons</title>
<!-- Node1 -->
<g id="node1" class="node">
<title>Node1</title>
<g id="a_node1"><a xlink:title=" ">
<polygon fill="#bfbfbf" stroke="black" points="38.5,-598.77 38.5,-617.77 92.5,-617.77 92.5,-598.77 38.5,-598.77"/>
<text text-anchor="middle" x="65.5" y="-605.77" font-family="Helvetica,sans-Serif" font-size="10.00">Buttons</text>
</a>
</g>
</g>
<!-- Node2 -->
<g id="node2" class="node">
<title>Node2</title>
<g id="a_node2"><a xlink:href="classVortexEngine.html" target="_top" xlink:title=" ">
<polygon fill="none" stroke="black" points="222,-543.77 222,-562.77 303,-562.77 303,-543.77 222,-543.77"/>
<text text-anchor="middle" x="262.5" y="-550.77" font-family="Helvetica,sans-Serif" font-size="10.00">VortexEngine</text>
</a>
</g>
</g>
<!-- Node1&#45;&gt;Node2 -->
<g id="edge13" class="edge">
<title>Node1&#45;&gt;Node2</title>
<path fill="none" stroke="#9a32cd" stroke-dasharray="5,2" d="M102.69,-616.37C131.3,-621.01 171.66,-623.59 204,-610.27 227.4,-600.64 246.32,-576.38 255.49,-562.82"/>
<polygon fill="#9a32cd" stroke="#9a32cd" points="103.18,-612.9 92.72,-614.59 101.95,-619.79 103.18,-612.9"/>
<text text-anchor="middle" x="176.5" y="-622.27" font-family="Helvetica,sans-Serif" font-size="10.00"> m_buttons</text>
</g>
<!-- Node2&#45;&gt;Node1 -->
<g id="edge1" class="edge">
<title>Node2&#45;&gt;Node1</title>
<path fill="none" stroke="#9a32cd" stroke-dasharray="5,2" d="M236.57,-567.77C226.69,-572.99 215.07,-578.52 204,-582.27 166.38,-595.03 120.73,-602.1 92.65,-605.54"/>
<polygon fill="#9a32cd" stroke="#9a32cd" points="238.33,-570.79 245.43,-562.92 234.97,-564.65 238.33,-570.79"/>
<text text-anchor="middle" x="176.5" y="-598.27" font-family="Helvetica,sans-Serif" font-size="10.00"> m_engine</text>
</g>
<!-- Node2&#45;&gt;Node2 -->
<g id="edge12" class="edge">
<title>Node2&#45;&gt;Node2</title>
<path fill="none" stroke="#9a32cd" stroke-dasharray="5,2" d="M246.57,-572.67C247.64,-577.59 252.95,-581.27 262.5,-581.27 277.79,-581.27 282.2,-571.84 275.76,-563.03"/>
<polygon fill="#9a32cd" stroke="#9a32cd" points="249.95,-573.6 249.24,-563.03 243.2,-571.73 249.95,-573.6"/>
<text text-anchor="middle" x="262.5" y="-584.27" font-family="Helvetica,sans-Serif" font-size="10.00"> m_engine</text>
</g>
<!-- Node3 -->
<g id="node3" class="node">
<title>Node3</title>
<g id="a_node3"><a xlink:href="classVLReceiver.html" target="_top" xlink:title=" ">
<polygon fill="none" stroke="black" points="434.5,-1120.77 434.5,-1139.77 505.5,-1139.77 505.5,-1120.77 434.5,-1120.77"/>
<text text-anchor="middle" x="470" y="-1127.77" font-family="Helvetica,sans-Serif" font-size="10.00">VLReceiver</text>
</a>
</g>
</g>
<!-- Node2&#45;&gt;Node3 -->
<g id="edge3" class="edge">
<title>Node2&#45;&gt;Node3</title>
<path fill="none" stroke="#9a32cd" stroke-dasharray="5,2" d="M278.74,-570.76C287.6,-582.06 297.98,-597.56 303,-613.27 319.75,-665.7 284.31,-1067.25 321,-1108.27 335.63,-1124.63 395.45,-1128.98 434.41,-1130.05"/>
<polygon fill="#9a32cd" stroke="#9a32cd" points="281.42,-568.51 272.38,-562.99 276.01,-572.95 281.42,-568.51"/>
<text text-anchor="middle" x="365" y="-1131.27" font-family="Helvetica,sans-Serif" font-size="10.00"> m_engine</text>
</g>
<!-- Node5 -->
<g id="node5" class="node">
<title>Node5</title>
<g id="a_node5"><a xlink:href="classStorage.html" target="_top" xlink:title=" ">
<polygon fill="none" stroke="black" points="443,-348.77 443,-367.77 497,-367.77 497,-348.77 443,-348.77"/>
<text text-anchor="middle" x="470" y="-355.77" font-family="Helvetica,sans-Serif" font-size="10.00">Storage</text>
</a>
</g>
</g>
<!-- Node2&#45;&gt;Node5 -->
<g id="edge6" class="edge">
<title>Node2&#45;&gt;Node5</title>
<path fill="none" stroke="#9a32cd" stroke-dasharray="5,2" d="M263.91,-533.45C265.8,-497.35 275.31,-421.04 321,-382.27 355.24,-353.22 410.53,-352.43 442.96,-355"/>
<polygon fill="#9a32cd" stroke="#9a32cd" points="260.4,-533.54 263.52,-543.66 267.4,-533.8 260.4,-533.54"/>
<text text-anchor="middle" x="365" y="-385.27" font-family="Helvetica,sans-Serif" font-size="10.00"> m_engine</text>
</g>
<!-- Node6 -->
<g id="node6" class="node">
<title>Node6</title>
<g id="a_node6"><a xlink:href="classIRSender.html" target="_top" xlink:title=" ">
<polygon fill="none" stroke="black" points="440,-1001.77 440,-1020.77 500,-1020.77 500,-1001.77 440,-1001.77"/>
<text text-anchor="middle" x="470" y="-1008.77" font-family="Helvetica,sans-Serif" font-size="10.00">IRSender</text>
</a>
</g>
</g>
<!-- Node2&#45;&gt;Node6 -->
<g id="edge8" class="edge">
<title>Node2&#45;&gt;Node6</title>
<path fill="none" stroke="#9a32cd" stroke-dasharray="5,2" d="M278.67,-570.78C287.5,-582.1 297.87,-597.59 303,-613.27 315.42,-651.23 295.48,-941.56 321,-972.27 346.7,-1003.2 370.17,-982.83 409,-993.27 419.08,-995.99 430.04,-999.2 439.8,-1002.15"/>
<polygon fill="#9a32cd" stroke="#9a32cd" points="281.36,-568.55 272.33,-563.01 275.93,-572.97 281.36,-568.55"/>
<text text-anchor="middle" x="365" y="-996.27" font-family="Helvetica,sans-Serif" font-size="10.00"> m_engine</text>
</g>
<!-- Node9 -->
<g id="node9" class="node">
<title>Node9</title>
<g id="a_node9"><a xlink:href="classLeds.html" target="_top" xlink:title=" ">
<polygon fill="none" stroke="black" points="450.5,-280.77 450.5,-299.77 489.5,-299.77 489.5,-280.77 450.5,-280.77"/>
<text text-anchor="middle" x="470" y="-287.77" font-family="Helvetica,sans-Serif" font-size="10.00">Leds</text>
</a>
</g>
</g>
<!-- Node2&#45;&gt;Node9 -->
<g id="edge15" class="edge">
<title>Node2&#45;&gt;Node9</title>
<path fill="none" stroke="#9a32cd" stroke-dasharray="5,2" d="M265.44,-533.46C270.95,-481.51 288.42,-343.31 321,-313.27 339.54,-296.18 414.97,-291.78 450.42,-290.66"/>
<polygon fill="#9a32cd" stroke="#9a32cd" points="261.93,-533.38 264.4,-543.68 268.9,-534.09 261.93,-533.38"/>
<text text-anchor="middle" x="365" y="-316.27" font-family="Helvetica,sans-Serif" font-size="10.00"> m_engine</text>
</g>
<!-- Node10 -->
<g id="node10" class="node">
<title>Node10</title>
<g id="a_node10"><a xlink:href="classPatternBuilder.html" target="_top" xlink:title=" ">
<polygon fill="none" stroke="black" points="427,-212.77 427,-231.77 513,-231.77 513,-212.77 427,-212.77"/>
<text text-anchor="middle" x="470" y="-219.77" font-family="Helvetica,sans-Serif" font-size="10.00">PatternBuilder</text>
</a>
</g>
</g>
<!-- Node2&#45;&gt;Node10 -->
<g id="edge17" class="edge">
<title>Node2&#45;&gt;Node10</title>
<path fill="none" stroke="#9a32cd" stroke-dasharray="5,2" d="M264.29,-533.28C267.16,-471.36 279.21,-284.57 321,-244.27 335.73,-230.07 388.35,-225.02 426.67,-223.23"/>
<polygon fill="#9a32cd" stroke="#9a32cd" points="260.78,-533.48 263.84,-543.62 267.77,-533.78 260.78,-533.48"/>
<text text-anchor="middle" x="365" y="-247.27" font-family="Helvetica,sans-Serif" font-size="10.00"> m_engine</text>
</g>
<!-- Node11 -->
<g id="node11" class="node">
<title>Node11</title>
<g id="a_node11"><a xlink:href="classVLSender.html" target="_top" xlink:title=" ">
<polygon fill="none" stroke="black" points="439,-872.77 439,-891.77 501,-891.77 501,-872.77 439,-872.77"/>
<text text-anchor="middle" x="470" y="-879.77" font-family="Helvetica,sans-Serif" font-size="10.00">VLSender</text>
</a>
</g>
</g>
<!-- Node2&#45;&gt;Node11 -->
<g id="edge19" class="edge">
<title>Node2&#45;&gt;Node11</title>
<path fill="none" stroke="#9a32cd" stroke-dasharray="5,2" d="M278.5,-570.84C287.27,-582.18 297.63,-597.67 303,-613.27 319.18,-660.29 288.65,-798.52 321,-836.27 347.17,-866.81 370.76,-844.83 409,-857.27 422.41,-861.64 437.03,-867.7 448.48,-872.76"/>
<polygon fill="#9a32cd" stroke="#9a32cd" points="281.22,-568.64 272.22,-563.05 275.77,-573.03 281.22,-568.64"/>
<text text-anchor="middle" x="365" y="-860.27" font-family="Helvetica,sans-Serif" font-size="10.00"> m_engine</text>
</g>
<!-- Node12 -->
<g id="node12" class="node">
<title>Node12</title>
<g id="a_node12"><a xlink:href="classModes.html" target="_top" xlink:title=" ">
<polygon fill="none" stroke="black" points="1049,-776.77 1049,-795.77 1098,-795.77 1098,-776.77 1049,-776.77"/>
<text text-anchor="middle" x="1073.5" y="-783.77" font-family="Helvetica,sans-Serif" font-size="10.00">Modes</text>
</a>
</g>
</g>
<!-- Node2&#45;&gt;Node12 -->
<g id="edge23" class="edge">
<title>Node2&#45;&gt;Node12</title>
<path fill="none" stroke="#9a32cd" stroke-dasharray="5,2" d="M278.53,-571.26C287.15,-582.59 297.36,-597.94 303,-613.27 325.57,-674.64 280.59,-707.88 321,-759.27 352.12,-798.86 377.51,-789.99 427,-799.27 690.84,-848.78 766.16,-844.13 1031,-800.27 1036.85,-799.3 1042.99,-797.63 1048.7,-795.76"/>
<polygon fill="#9a32cd" stroke="#9a32cd" points="281.02,-568.77 272.06,-563.1 275.53,-573.11 281.02,-568.77"/>
<text text-anchor="middle" x="651" y="-836.27" font-family="Helvetica,sans-Serif" font-size="10.00"> m_engine</text>
</g>
<!-- Node13 -->
<g id="node13" class="node">
<title>Node13</title>
<g id="a_node13"><a xlink:href="classModes_1_1ModeLink.html" target="_top" xlink:title=" ">
<polygon fill="none" stroke="black" points="823,-695.77 823,-714.77 925,-714.77 925,-695.77 823,-695.77"/>
<text text-anchor="middle" x="874" y="-702.77" font-family="Helvetica,sans-Serif" font-size="10.00">Modes::ModeLink</text>
</a>
</g>
</g>
<!-- Node2&#45;&gt;Node13 -->
<g id="edge31" class="edge">
<title>Node2&#45;&gt;Node13</title>
<path fill="none" stroke="#9a32cd" stroke-dasharray="5,2" d="M277.32,-571.22C285.66,-582.74 296.01,-598.29 303,-613.27 314.78,-638.5 300.75,-654.16 321,-673.27 469.52,-813.46 752.42,-742.74 843.77,-714.85"/>
<polygon fill="#9a32cd" stroke="#9a32cd" points="279.93,-568.87 271.15,-562.94 274.31,-573.05 279.93,-568.87"/>
<text text-anchor="middle" x="569" y="-760.27" font-family="Helvetica,sans-Serif" font-size="10.00"> m_engine</text>
</g>
<!-- Node14 -->
<g id="node14" class="node">
<title>Node14</title>
<g id="a_node14"><a xlink:href="classMode.html" target="_top" xlink:title=" ">
<polygon fill="none" stroke="black" points="629,-642.77 629,-661.77 673,-661.77 673,-642.77 629,-642.77"/>
<text text-anchor="middle" x="651" y="-649.77" font-family="Helvetica,sans-Serif" font-size="10.00">Mode</text>
</a>
</g>
</g>
<!-- Node2&#45;&gt;Node14 -->
<g id="edge26" class="edge">
<title>Node2&#45;&gt;Node14</title>
<path fill="none" stroke="#9a32cd" stroke-dasharray="5,2" d="M275.85,-571.45C283.77,-583.26 294.2,-599.05 303,-613.27 311.38,-626.82 307.44,-635.9 321,-644.27 421.14,-706.12 573.15,-673.61 628.71,-658.56"/>
<polygon fill="#9a32cd" stroke="#9a32cd" points="278.6,-569.27 270.1,-562.93 272.79,-573.18 278.6,-569.27"/>
<text text-anchor="middle" x="470" y="-683.27" font-family="Helvetica,sans-Serif" font-size="10.00"> m_engine</text>
</g>
<!-- Node15 -->
<g id="node15" class="node">
<title>Node15</title>
<g id="a_node15"><a xlink:href="classPattern.html" target="_top" xlink:title=" ">
<polygon fill="none" stroke="black" points="444.5,-615.77 444.5,-634.77 495.5,-634.77 495.5,-615.77 444.5,-615.77"/>
<text text-anchor="middle" x="470" y="-622.77" font-family="Helvetica,sans-Serif" font-size="10.00">Pattern</text>
</a>
</g>
</g>
<!-- Node2&#45;&gt;Node15 -->
<g id="edge28" class="edge">
<title>Node2&#45;&gt;Node15</title>
<path fill="none" stroke="#9a32cd" stroke-dasharray="5,2" d="M284.57,-568.75C295.07,-575.86 308.24,-583.89 321,-589.27 332.33,-594.05 405.32,-610.89 444.4,-619.74"/>
<polygon fill="#9a32cd" stroke="#9a32cd" points="286.29,-565.69 276.09,-562.83 282.28,-571.43 286.29,-565.69"/>
<text text-anchor="middle" x="365" y="-613.27" font-family="Helvetica,sans-Serif" font-size="10.00"> m_engine</text>
</g>
<!-- Node18 -->
<g id="node18" class="node">
<title>Node18</title>
<g id="a_node18"><a xlink:href="classSerialComs.html" target="_top" xlink:title=" ">
<polygon fill="none" stroke="black" points="434,-144.77 434,-163.77 506,-163.77 506,-144.77 434,-144.77"/>
<text text-anchor="middle" x="470" y="-151.77" font-family="Helvetica,sans-Serif" font-size="10.00">SerialComs</text>
</a>
</g>
</g>
<!-- Node2&#45;&gt;Node18 -->
<g id="edge35" class="edge">
<title>Node2&#45;&gt;Node18</title>
<path fill="none" stroke="#9a32cd" stroke-dasharray="5,2" d="M263.55,-533.61C264.16,-463.47 270.02,-227.07 321,-176.27 336.41,-160.92 395.02,-156.24 433.69,-154.84"/>
<polygon fill="#9a32cd" stroke="#9a32cd" points="260.05,-533.69 263.49,-543.71 267.05,-533.74 260.05,-533.69"/>
<text text-anchor="middle" x="365" y="-179.27" font-family="Helvetica,sans-Serif" font-size="10.00"> m_engine</text>
</g>
<!-- Node19 -->
<g id="node19" class="node">
<title>Node19</title>
<g id="a_node19"><a xlink:href="classIRReceiver.html" target="_top" xlink:title=" ">
<polygon fill="none" stroke="black" points="435.5,-416.77 435.5,-435.77 504.5,-435.77 504.5,-416.77 435.5,-416.77"/>
<text text-anchor="middle" x="470" y="-423.77" font-family="Helvetica,sans-Serif" font-size="10.00">IRReceiver</text>
</a>
</g>
</g>
<!-- Node2&#45;&gt;Node19 -->
<g id="edge37" class="edge">
<title>Node2&#45;&gt;Node19</title>
<path fill="none" stroke="#9a32cd" stroke-dasharray="5,2" d="M267.86,-533.86C274.6,-508.69 290.15,-465.52 321,-444.27 338.96,-431.9 397.39,-428.02 435.24,-426.81"/>
<polygon fill="#9a32cd" stroke="#9a32cd" points="264.42,-533.17 265.42,-543.72 271.22,-534.85 264.42,-533.17"/>
<text text-anchor="middle" x="365" y="-447.27" font-family="Helvetica,sans-Serif" font-size="10.00"> m_engine</text>
</g>
<!-- Node20 -->
<g id="node20" class="node">
<title>Node20</title>
<g id="a_node20"><a xlink:href="classTime.html" target="_top" xlink:title=" ">
<polygon fill="none" stroke="black" points="449.5,-76.77 449.5,-95.77 490.5,-95.77 490.5,-76.77 449.5,-76.77"/>
<text text-anchor="middle" x="470" y="-83.77" font-family="Helvetica,sans-Serif" font-size="10.00">Time</text>
</a>
</g>
</g>
<!-- Node2&#45;&gt;Node20 -->
<g id="edge40" class="edge">
<title>Node2&#45;&gt;Node20</title>
<path fill="none" stroke="#9a32cd" stroke-dasharray="5,2" d="M263.03,-533.19C261.66,-454.63 260.94,-169.49 321,-108.27 338.51,-90.43 413.37,-86.98 449.43,-86.37"/>
<polygon fill="#9a32cd" stroke="#9a32cd" points="259.54,-533.67 263.24,-543.59 266.54,-533.53 259.54,-533.67"/>
<text text-anchor="middle" x="365" y="-111.27" font-family="Helvetica,sans-Serif" font-size="10.00"> m_engine</text>
</g>
<!-- Node21 -->
<g id="node21" class="node">
<title>Node21</title>
<g id="a_node21"><a xlink:href="classMenus.html" target="_top" xlink:title=" ">
<polygon fill="none" stroke="black" points="1049,-555.77 1049,-574.77 1098,-574.77 1098,-555.77 1049,-555.77"/>
<text text-anchor="middle" x="1073.5" y="-562.77" font-family="Helvetica,sans-Serif" font-size="10.00">Menus</text>
</a>
</g>
</g>
<!-- Node2&#45;&gt;Node21 -->
<g id="edge42" class="edge">
<title>Node2&#45;&gt;Node21</title>
<path fill="none" stroke="#9a32cd" stroke-dasharray="5,2" d="M313.32,-563.22C315.91,-563.61 318.48,-563.96 321,-564.27 367.83,-570.05 379.85,-568.46 427,-570.27 656.19,-579.07 713.65,-576.32 943,-577.27 982.11,-577.44 992.28,-582.76 1031,-577.27 1036.79,-576.45 1042.91,-575.02 1048.61,-573.42"/>
<polygon fill="#9a32cd" stroke="#9a32cd" points="313.73,-559.74 303.29,-561.59 312.6,-566.65 313.73,-559.74"/>
<text text-anchor="middle" x="651" y="-579.27" font-family="Helvetica,sans-Serif" font-size="10.00"> m_engine</text>
</g>
<!-- Node22 -->
<g id="node22" class="node">
<title>Node22</title>
<g id="a_node22"><a xlink:href="classMenu.html" target="_top" xlink:title=" ">
<polygon fill="none" stroke="black" points="852,-507.77 852,-526.77 896,-526.77 896,-507.77 852,-507.77"/>
<text text-anchor="middle" x="874" y="-514.77" font-family="Helvetica,sans-Serif" font-size="10.00">Menu</text>
</a>
</g>
</g>
<!-- Node2&#45;&gt;Node22 -->
<g id="edge46" class="edge">
<title>Node2&#45;&gt;Node22</title>
<path fill="none" stroke="#9a32cd" stroke-dasharray="5,2" d="M313.33,-543.36C315.92,-542.96 318.49,-542.6 321,-542.27 526.52,-515.87 778.2,-516.22 851.83,-516.98"/>
<polygon fill="#9a32cd" stroke="#9a32cd" points="312.6,-539.93 303.3,-545.01 313.74,-546.84 312.6,-539.93"/>
<text text-anchor="middle" x="569" y="-526.27" font-family="Helvetica,sans-Serif" font-size="10.00"> m_engine</text>
</g>
<!-- Node23 -->
<g id="node23" class="node">
<title>Node23</title>
<g id="a_node23"><a xlink:href="classButton.html" target="_top" xlink:title=" ">
<polygon fill="none" stroke="black" points="445.5,-9.77 445.5,-28.77 494.5,-28.77 494.5,-9.77 445.5,-9.77"/>
<text text-anchor="middle" x="470" y="-16.77" font-family="Helvetica,sans-Serif" font-size="10.00">Button</text>
</a>
</g>
</g>
<!-- Node2&#45;&gt;Node23 -->
<g id="edge48" class="edge">
<title>Node2&#45;&gt;Node23</title>
<path fill="none" stroke="#9a32cd" stroke-dasharray="5,2" d="M264.3,-533.36C268.13,-443.11 285.79,-75.3 321,-39.27 337.81,-22.08 407.97,-19.3 445.33,-19.08"/>
<polygon fill="#9a32cd" stroke="#9a32cd" points="260.8,-533.23 263.89,-543.37 267.8,-533.52 260.8,-533.23"/>
<text text-anchor="middle" x="365" y="-42.27" font-family="Helvetica,sans-Serif" font-size="10.00"> m_engine</text>
</g>
<!-- Node3&#45;&gt;Node2 -->
<g id="edge2" class="edge">
<title>Node3&#45;&gt;Node2</title>
<path fill="none" stroke="#9a32cd" stroke-dasharray="5,2" d="M444.26,-1115.62C433.59,-1109.57 420.86,-1102.73 409,-1097.27 371.05,-1079.83 345.47,-1098.12 321,-1064.27 291.62,-1023.63 318.35,-661.02 303,-613.27 296.66,-593.56 281.94,-574.19 272.36,-563"/>
<polygon fill="#9a32cd" stroke="#9a32cd" points="442.61,-1118.71 453.03,-1120.66 446.11,-1112.64 442.61,-1118.71"/>
<text text-anchor="middle" x="365" y="-1100.27" font-family="Helvetica,sans-Serif" font-size="10.00"> m_vlReceiver</text>
</g>
<!-- Node4 -->
<g id="node4" class="node">
<title>Node4</title>
<g id="a_node4"><a xlink:href="classBitStream.html" target="_top" xlink:title=" ">
<polygon fill="none" stroke="black" points="230,-962.77 230,-981.77 295,-981.77 295,-962.77 230,-962.77"/>
<text text-anchor="middle" x="262.5" y="-969.77" font-family="Helvetica,sans-Serif" font-size="10.00">BitStream</text>
</a>
</g>
</g>
<!-- Node4&#45;&gt;Node3 -->
<g id="edge4" class="edge">
<title>Node4&#45;&gt;Node3</title>
<path fill="none" stroke="#9a32cd" stroke-dasharray="5,2" d="M263.37,-992.18C264.34,-1029.05 272.34,-1107.37 321,-1142.27 358.81,-1169.4 416.88,-1152.31 447.84,-1139.87"/>
<polygon fill="#9a32cd" stroke="#9a32cd" points="266.86,-991.74 263.26,-981.78 259.86,-991.81 266.86,-991.74"/>
<text text-anchor="middle" x="365" y="-1159.27" font-family="Helvetica,sans-Serif" font-size="10.00"> m_vlData</text>
</g>
<!-- Node4&#45;&gt;Node6 -->
<g id="edge9" class="edge">
<title>Node4&#45;&gt;Node6</title>
<path fill="none" stroke="#9a32cd" stroke-dasharray="5,2" d="M272.89,-990.55C282.49,-1007 299.08,-1030.1 321,-1040.27 356.48,-1056.74 370.88,-1049 409,-1040.27 425.24,-1036.55 442.19,-1027.84 453.92,-1020.93"/>
<polygon fill="#9a32cd" stroke="#9a32cd" points="275.95,-988.85 268.06,-981.78 269.82,-992.23 275.95,-988.85"/>
<text text-anchor="middle" x="365" y="-1052.27" font-family="Helvetica,sans-Serif" font-size="10.00"> m_bitStream</text>
</g>
<!-- Node4&#45;&gt;Node11 -->
<g id="edge20" class="edge">
<title>Node4&#45;&gt;Node11</title>
<path fill="none" stroke="#9a32cd" stroke-dasharray="5,2" d="M280.78,-955.98C291.63,-946.48 306.3,-934.92 321,-927.27 341.61,-916.55 401.95,-899.77 438.91,-890.02"/>
<polygon fill="#9a32cd" stroke="#9a32cd" points="278.37,-953.43 273.29,-962.73 283.06,-958.63 278.37,-953.43"/>
<text text-anchor="middle" x="365" y="-930.27" font-family="Helvetica,sans-Serif" font-size="10.00"> m_bitStream</text>
</g>
<!-- Node4&#45;&gt;Node19 -->
<g id="edge38" class="edge">
<title>Node4&#45;&gt;Node19</title>
<path fill="none" stroke="#9a32cd" stroke-dasharray="5,2" d="M272.22,-953.59C281.64,-932.43 296.22,-896.68 303,-864.27 316.23,-801.07 296.77,-634.12 321,-574.27 348.21,-507.07 371.14,-496.5 427,-450.27 433.6,-444.81 441.61,-439.89 448.85,-435.95"/>
<polygon fill="#9a32cd" stroke="#9a32cd" points="269.02,-952.17 268.07,-962.72 275.39,-955.07 269.02,-952.17"/>
<text text-anchor="middle" x="365" y="-577.27" font-family="Helvetica,sans-Serif" font-size="10.00"> m_irData</text>
</g>
<!-- Node5&#45;&gt;Node2 -->
<g id="edge5" class="edge">
<title>Node5&#45;&gt;Node2</title>
<path fill="none" stroke="#9a32cd" stroke-dasharray="5,2" d="M440.59,-344.47C408.24,-330.98 355.43,-315.97 321,-342.27 287.74,-367.69 269.12,-505.86 264.59,-543.69"/>
<polygon fill="#9a32cd" stroke="#9a32cd" points="439.37,-347.76 449.93,-348.57 442.17,-341.35 439.37,-347.76"/>
<text text-anchor="middle" x="365" y="-345.27" font-family="Helvetica,sans-Serif" font-size="10.00"> m_storage</text>
</g>
<!-- Node6&#45;&gt;Node2 -->
<g id="edge7" class="edge">
<title>Node6&#45;&gt;Node2</title>
<path fill="none" stroke="#9a32cd" stroke-dasharray="5,2" d="M452.82,-994.37C441.49,-983.45 425.49,-969.76 409,-961.27 373.05,-942.78 346.58,-969.57 321,-938.27 298.11,-910.27 314.33,-647.62 303,-613.27 296.51,-593.61 281.83,-574.22 272.31,-563.02"/>
<polygon fill="#9a32cd" stroke="#9a32cd" points="450.62,-997.12 460.18,-1001.71 455.57,-992.17 450.62,-997.12"/>
<text text-anchor="middle" x="365" y="-964.27" font-family="Helvetica,sans-Serif" font-size="10.00"> m_irSender</text>
</g>
<!-- Node7 -->
<g id="node7" class="node">
<title>Node7</title>
<g id="a_node7"><a xlink:href="classByteStream.html" target="_top" xlink:title=" ">
<polygon fill="none" stroke="black" points="225.5,-835.77 225.5,-854.77 299.5,-854.77 299.5,-835.77 225.5,-835.77"/>
<text text-anchor="middle" x="262.5" y="-842.77" font-family="Helvetica,sans-Serif" font-size="10.00">ByteStream</text>
</a>
</g>
</g>
<!-- Node7&#45;&gt;Node6 -->
<g id="edge10" class="edge">
<title>Node7&#45;&gt;Node6</title>
<path fill="none" stroke="#9a32cd" stroke-dasharray="5,2" d="M270.63,-864.36C278.65,-885.9 291.98,-922.03 303,-953.27 311.27,-976.73 301.03,-991.45 321,-1006.27 355.37,-1031.79 407.64,-1026.23 439.98,-1019.22"/>
<polygon fill="#9a32cd" stroke="#9a32cd" points="273.83,-862.93 267.06,-854.78 267.28,-865.37 273.83,-862.93"/>
<text text-anchor="middle" x="365" y="-1027.27" font-family="Helvetica,sans-Serif" font-size="10.00"> m_serialBuf</text>
</g>
<!-- Node7&#45;&gt;Node11 -->
<g id="edge21" class="edge">
<title>Node7&#45;&gt;Node11</title>
<path fill="none" stroke="#9a32cd" stroke-dasharray="5,2" d="M290.57,-859.23C299.97,-863.48 310.73,-867.7 321,-870.27 360.88,-880.27 408.52,-882.47 438.77,-882.7"/>
<polygon fill="#9a32cd" stroke="#9a32cd" points="291.88,-855.97 281.35,-854.86 288.88,-862.3 291.88,-855.97"/>
<text text-anchor="middle" x="365" y="-884.27" font-family="Helvetica,sans-Serif" font-size="10.00"> m_serialBuf</text>
</g>
<!-- Node7&#45;&gt;Node13 -->
<g id="edge32" class="edge">
<title>Node7&#45;&gt;Node13</title>
<path fill="none" stroke="#9a32cd" stroke-dasharray="5,2" d="M280.94,-828.71C291.84,-818.96 306.52,-806.89 321,-798.27 407.66,-746.68 432.25,-732.76 531,-712.27 632.91,-691.13 755.56,-695.65 822.8,-700.61"/>
<polygon fill="#9a32cd" stroke="#9a32cd" points="278.41,-826.28 273.4,-835.62 283.14,-831.44 278.41,-826.28"/>
<text text-anchor="middle" x="569" y="-715.27" font-family="Helvetica,sans-Serif" font-size="10.00"> m_storedMode</text>
</g>
<!-- Node8 -->
<g id="node8" class="node">
<title>Node8</title>
<g id="a_node8"><a xlink:href="structByteStream_1_1RawBuffer.html" target="_top" xlink:title=" ">
<polygon fill="none" stroke="black" points="0,-560.77 0,-579.77 131,-579.77 131,-560.77 0,-560.77"/>
<text text-anchor="middle" x="65.5" y="-567.77" font-family="Helvetica,sans-Serif" font-size="10.00">ByteStream::RawBuffer</text>
</a>
</g>
</g>
<!-- Node8&#45;&gt;Node7 -->
<g id="edge11" class="edge">
<title>Node8&#45;&gt;Node7</title>
<path fill="none" stroke="#9a32cd" stroke-dasharray="5,2" d="M103.93,-558.16C134.27,-550.86 176.38,-546.81 204,-569.27 205.35,-570.37 249.52,-786.53 259.51,-835.49"/>
<polygon fill="#9a32cd" stroke="#9a32cd" points="102.92,-554.8 94.13,-560.72 104.69,-561.57 102.92,-554.8"/>
<text text-anchor="middle" x="176.5" y="-572.27" font-family="Helvetica,sans-Serif" font-size="10.00"> m_pData</text>
</g>
<!-- Node9&#45;&gt;Node2 -->
<g id="edge14" class="edge">
<title>Node9&#45;&gt;Node2</title>
<path fill="none" stroke="#9a32cd" stroke-dasharray="5,2" d="M441.34,-276.54C408.81,-262.58 354.95,-246.61 321,-274.27 277.87,-309.42 266.14,-498.31 263.93,-543.54"/>
<polygon fill="#9a32cd" stroke="#9a32cd" points="440.15,-279.84 450.71,-280.76 443.02,-273.46 440.15,-279.84"/>
<text text-anchor="middle" x="365" y="-277.27" font-family="Helvetica,sans-Serif" font-size="10.00"> m_leds</text>
</g>
<!-- Node10&#45;&gt;Node2 -->
<g id="edge16" class="edge">
<title>Node10&#45;&gt;Node2</title>
<path fill="none" stroke="#9a32cd" stroke-dasharray="5,2" d="M441.15,-208.32C408.44,-194.14 354.41,-177.95 321,-206.27 267.79,-251.39 263.76,-492.42 263.51,-543.68"/>
<polygon fill="#9a32cd" stroke="#9a32cd" points="440.02,-211.65 450.57,-212.6 442.92,-205.28 440.02,-211.65"/>
<text text-anchor="middle" x="365" y="-209.27" font-family="Helvetica,sans-Serif" font-size="10.00"> m_patternBuilder</text>
</g>
<!-- Node11&#45;&gt;Node2 -->
<g id="edge18" class="edge">
<title>Node11&#45;&gt;Node2</title>
<path fill="none" stroke="#9a32cd" stroke-dasharray="5,2" d="M451.41,-865.52C433.82,-848.77 409.32,-825.45 409,-825.27 373.67,-805.62 347.2,-833.06 321,-802.27 293.66,-770.14 317.01,-653.07 303,-613.27 296.12,-593.75 281.56,-574.32 272.16,-563.07"/>
<polygon fill="#9a32cd" stroke="#9a32cd" points="449.24,-868.28 458.9,-872.65 454.07,-863.22 449.24,-868.28"/>
<text text-anchor="middle" x="365" y="-828.27" font-family="Helvetica,sans-Serif" font-size="10.00"> m_vlSender</text>
</g>
<!-- Node12&#45;&gt;Node2 -->
<g id="edge22" class="edge">
<title>Node12&#45;&gt;Node2</title>
<path fill="none" stroke="#9a32cd" stroke-dasharray="5,2" d="M1038.69,-786.27C999.36,-786.27 932.48,-786.27 875,-786.27 568,-786.27 568,-786.27 568,-786.27 453.53,-786.27 392.42,-802.73 321,-713.27 292.83,-677.98 319.76,-655.21 303,-613.27 295.32,-594.05 280.99,-574.53 271.87,-563.18"/>
<polygon fill="#9a32cd" stroke="#9a32cd" points="1038.79,-789.77 1048.79,-786.27 1038.79,-782.77 1038.79,-789.77"/>
<text text-anchor="middle" x="651" y="-789.27" font-family="Helvetica,sans-Serif" font-size="10.00"> m_modes</text>
</g>
<!-- Node13&#45;&gt;Node12 -->
<g id="edge24" class="edge">
<title>Node13&#45;&gt;Node12</title>
<path fill="none" stroke="#9a32cd" stroke-dasharray="5,2" d="M935.18,-716.22C965.18,-723.24 1001.29,-734.13 1031,-750.27 1043.74,-757.19 1055.98,-768.59 1063.82,-776.7"/>
<polygon fill="#9a32cd" stroke="#9a32cd" points="935.79,-712.77 925.26,-713.98 934.25,-719.6 935.79,-712.77"/>
<text text-anchor="middle" x="987" y="-764.27" font-family="Helvetica,sans-Serif" font-size="10.00"> m_pCurModeLink</text>
<text text-anchor="middle" x="987" y="-753.27" font-family="Helvetica,sans-Serif" font-size="10.00">m_storedModes</text>
</g>
<!-- Node13&#45;&gt;Node13 -->
<g id="edge33" class="edge">
<title>Node13&#45;&gt;Node13</title>
<path fill="none" stroke="#9a32cd" stroke-dasharray="5,2" d="M853.26,-724.67C854.65,-729.59 861.56,-733.27 874,-733.27 893.91,-733.27 899.66,-723.84 891.26,-715.03"/>
<polygon fill="#9a32cd" stroke="#9a32cd" points="856.64,-725.63 856.74,-715.03 850.05,-723.25 856.64,-725.63"/>
<text text-anchor="middle" x="874" y="-747.27" font-family="Helvetica,sans-Serif" font-size="10.00"> m_next</text>
<text text-anchor="middle" x="874" y="-736.27" font-family="Helvetica,sans-Serif" font-size="10.00">m_prev</text>
</g>
<!-- Node14&#45;&gt;Node13 -->
<g id="edge25" class="edge">
<title>Node14&#45;&gt;Node13</title>
<path fill="none" stroke="#9a32cd" stroke-dasharray="5,2" d="M683.39,-655.28C714.64,-658.76 763.77,-665.58 805,-677.27 821.7,-682.01 839.85,-689.62 853.19,-695.71"/>
<polygon fill="#9a32cd" stroke="#9a32cd" points="683.43,-651.76 673.12,-654.18 682.69,-658.72 683.43,-651.76"/>
<text text-anchor="middle" x="750" y="-680.27" font-family="Helvetica,sans-Serif" font-size="10.00"> m_pInstantiatedMode</text>
</g>
<!-- Node14&#45;&gt;Node22 -->
<g id="edge44" class="edge">
<title>Node14&#45;&gt;Node22</title>
<path fill="none" stroke="#9a32cd" stroke-dasharray="5,2" d="M676.58,-637.26C722.31,-609.33 819.25,-550.11 857.25,-526.89"/>
<polygon fill="#9a32cd" stroke="#9a32cd" points="674.6,-634.37 667.89,-642.56 678.25,-640.34 674.6,-634.37"/>
<text text-anchor="middle" x="750" y="-625.27" font-family="Helvetica,sans-Serif" font-size="10.00"> m_previewMode</text>
</g>
<!-- Node15&#45;&gt;Node14 -->
<g id="edge27" class="edge">
<title>Node15&#45;&gt;Node14</title>
<path fill="none" stroke="#9a32cd" stroke-dasharray="5,2" d="M505.7,-630.51C542.21,-636.01 598.49,-644.5 628.85,-649.08"/>
<polygon fill="#9a32cd" stroke="#9a32cd" points="505.92,-627 495.51,-628.97 504.88,-633.92 505.92,-627"/>
<text text-anchor="middle" x="569" y="-648.27" font-family="Helvetica,sans-Serif" font-size="10.00"> m_multiPat</text>
</g>
<!-- Node16 -->
<g id="node16" class="node">
<title>Node16</title>
<g id="a_node16"><a xlink:href="classColorset.html" target="_top" xlink:title=" ">
<polygon fill="none" stroke="black" points="234,-622.77 234,-641.77 291,-641.77 291,-622.77 234,-622.77"/>
<text text-anchor="middle" x="262.5" y="-629.77" font-family="Helvetica,sans-Serif" font-size="10.00">Colorset</text>
</a>
</g>
</g>
<!-- Node16&#45;&gt;Node15 -->
<g id="edge29" class="edge">
<title>Node16&#45;&gt;Node15</title>
<path fill="none" stroke="#9a32cd" stroke-dasharray="5,2" d="M301.25,-630.99C342.91,-629.57 408.75,-627.33 444.29,-626.12"/>
<polygon fill="#9a32cd" stroke="#9a32cd" points="301.09,-627.49 291.21,-631.33 301.33,-634.49 301.09,-627.49"/>
<text text-anchor="middle" x="365" y="-632.27" font-family="Helvetica,sans-Serif" font-size="10.00"> m_colorset</text>
</g>
<!-- Node17 -->
<g id="node17" class="node">
<title>Node17</title>
<g id="a_node17"><a xlink:href="classRGBColor.html" target="_top" xlink:title=" ">
<polygon fill="none" stroke="black" points="34,-508.77 34,-527.77 97,-527.77 97,-508.77 34,-508.77"/>
<text text-anchor="middle" x="65.5" y="-515.77" font-family="Helvetica,sans-Serif" font-size="10.00">RGBColor</text>
</a>
</g>
</g>
<!-- Node17&#45;&gt;Node16 -->
<g id="edge30" class="edge">
<title>Node17&#45;&gt;Node16</title>
<path fill="none" stroke="#9a32cd" stroke-dasharray="5,2" d="M107.39,-512.91C137.59,-511.31 177.84,-514.47 204,-537.27 226.27,-556.69 205.57,-576.72 222,-601.27 227.82,-609.97 236.86,-617.32 244.83,-622.68"/>
<polygon fill="#9a32cd" stroke="#9a32cd" points="106.89,-509.44 97.17,-513.65 107.4,-516.42 106.89,-509.44"/>
<text text-anchor="middle" x="176.5" y="-540.27" font-family="Helvetica,sans-Serif" font-size="10.00"> m_palette</text>
</g>
<!-- Node17&#45;&gt;Node22 -->
<g id="edge45" class="edge">
<title>Node17&#45;&gt;Node22</title>
<path fill="none" stroke="#9a32cd" stroke-dasharray="5,2" d="M107.27,-516.51C218.93,-512.01 539.11,-501.14 805,-512.27 820.73,-512.93 838.47,-514.26 851.88,-515.38"/>
<polygon fill="#9a32cd" stroke="#9a32cd" points="106.97,-513.02 97.12,-516.93 107.25,-520.02 106.97,-513.02"/>
<text text-anchor="middle" x="470" y="-510.27" font-family="Helvetica,sans-Serif" font-size="10.00"> m_menuColor</text>
</g>
<!-- Node18&#45;&gt;Node2 -->
<g id="edge34" class="edge">
<title>Node18&#45;&gt;Node2</title>
<path fill="none" stroke="#9a32cd" stroke-dasharray="5,2" d="M441.55,-140.4C408.76,-126.01 354.2,-109.35 321,-138.27 257.65,-193.45 261.81,-486.95 263.23,-543.75"/>
<polygon fill="#9a32cd" stroke="#9a32cd" points="440.43,-143.73 450.98,-144.73 443.35,-137.37 440.43,-143.73"/>
<text text-anchor="middle" x="365" y="-141.27" font-family="Helvetica,sans-Serif" font-size="10.00"> m_serial</text>
</g>
<!-- Node19&#45;&gt;Node2 -->
<g id="edge36" class="edge">
<title>Node19&#45;&gt;Node2</title>
<path fill="none" stroke="#9a32cd" stroke-dasharray="5,2" d="M440.08,-412.79C408.13,-400.09 356.51,-386.28 321,-410.27 274.66,-441.58 265.66,-517.08 263.92,-543.75"/>
<polygon fill="#9a32cd" stroke="#9a32cd" points="438.74,-416.03 449.32,-416.65 441.44,-409.57 438.74,-416.03"/>
<text text-anchor="middle" x="365" y="-413.27" font-family="Helvetica,sans-Serif" font-size="10.00"> m_irReceiver</text>
</g>
<!-- Node20&#45;&gt;Node2 -->
<g id="edge39" class="edge">
<title>Node20&#45;&gt;Node2</title>
<path fill="none" stroke="#9a32cd" stroke-dasharray="5,2" d="M441.45,-72.29C408.58,-57.8 353.92,-41.04 321,-70.27 284.14,-103.01 266.68,-477.86 263.9,-543.49"/>
<polygon fill="#9a32cd" stroke="#9a32cd" points="440.36,-75.64 450.91,-76.66 443.3,-69.29 440.36,-75.64"/>
<text text-anchor="middle" x="365" y="-73.27" font-family="Helvetica,sans-Serif" font-size="10.00"> m_time</text>
</g>
<!-- Node21&#45;&gt;Node2 -->
<g id="edge41" class="edge">
<title>Node21&#45;&gt;Node2</title>
<path fill="none" stroke="#9a32cd" stroke-dasharray="5,2" d="M1038.67,-564.77C908.77,-562.85 442.38,-555.93 303.07,-553.86"/>
<polygon fill="#9a32cd" stroke="#9a32cd" points="1038.76,-568.27 1048.81,-564.92 1038.86,-561.27 1038.76,-568.27"/>
<text text-anchor="middle" x="651" y="-562.27" font-family="Helvetica,sans-Serif" font-size="10.00"> m_menus</text>
</g>
<!-- Node22&#45;&gt;Node21 -->
<g id="edge43" class="edge">
<title>Node22&#45;&gt;Node21</title>
<path fill="none" stroke="#9a32cd" stroke-dasharray="5,2" d="M906.2,-518.27C938.33,-520.12 989.44,-525.37 1031,-540.27 1041.29,-543.96 1051.83,-550.35 1059.72,-555.75"/>
<polygon fill="#9a32cd" stroke="#9a32cd" points="906.24,-514.77 896.07,-517.76 905.89,-521.76 906.24,-514.77"/>
<text text-anchor="middle" x="987" y="-543.27" font-family="Helvetica,sans-Serif" font-size="10.00"> m_pCurMenu</text>
</g>
<!-- Node23&#45;&gt;Node1 -->
<g id="edge47" class="edge">
<title>Node23&#45;&gt;Node1</title>
<path fill="none" stroke="#9a32cd" stroke-dasharray="5,2" d="M435.59,-8.08C403.22,0.52 354.27,7.37 321,-16.27 131.5,-150.95 213.14,-286.81 149,-510.27 139.06,-544.89 155.66,-563.03 131,-589.27 121.17,-599.74 105.89,-604.53 92.68,-606.69"/>
<polygon fill="#9a32cd" stroke="#9a32cd" points="434.9,-11.52 445.48,-10.9 436.82,-4.79 434.9,-11.52"/>
<text text-anchor="middle" x="262.5" y="-120.27" font-family="Helvetica,sans-Serif" font-size="10.00"> m_buttons</text>
</g>
</g>
</svg>
        <g id="navigator" transform="translate(0 0)" fill="#404254">
                <rect fill="#f2f5e9" fill-opacity="0.5" stroke="#606060" stroke-width=".5" x="0" y="0" width="60" height="60"/>
                <use id="zoomplus" xlink:href="#zoomPlus" x="17" y="9" onmousedown="handleZoom(evt,'in')"/>
                <use id="zoomminus" xlink:href="#zoomMin" x="42" y="9" onmousedown="handleZoom(evt,'out')"/>
                <use id="reset" xlink:href="#resetDef" x="30" y="36" onmousedown="handleReset()"/>
                <g id="arrowUp" xlink:href="#dirArrow" transform="translate(30 24)" onmousedown="handlePan(0,-1)">
                  <use xlink:href="#rim" fill="#404040">
                        <set attributeName="fill" to="#808080" begin="arrowUp.mouseover" end="arrowUp.mouseout"/>
                  </use>
                  <path fill="none" stroke="white" stroke-width="1.5" d="M0,-3.0v7 M-2.5,-0.5L0,-3.0L2.5,-0.5"/>
                </g>
                <g id="arrowRight" xlink:href="#dirArrow" transform="rotate(90) translate(36 -43)" onmousedown="handlePan(1,0)">
                  <use xlink:href="#rim" fill="#404040">
                        <set attributeName="fill" to="#808080" begin="arrowRight.mouseover" end="arrowRight.mouseout"/>
                  </use>
                  <path fill="none" stroke="white" stroke-width="1.5" d="M0,-3.0v7 M-2.5,-0.5L0,-3.0L2.5,-0.5"/>
                </g>
                <g id="arrowDown" xlink:href="#dirArrow" transform="rotate(180) translate(-30 -48)" onmousedown="handlePan(0,1)">
                  <use xlink:href="#rim" fill="#404040">
                        <set attributeName="fill" to="#808080" begin="arrowDown.mouseover" end="arrowDown.mouseout"/>
                  </use>
                  <path fill="none" stroke="white" stroke-width="1.5" d="M0,-3.0v7 M-2.5,-0.5L0,-3.0L2.5,-0.5"/>
                </g>
                <g id="arrowLeft" xlink:href="#dirArrow" transform="rotate(270) translate(-36 17)" onmousedown="handlePan(-1,0)">
                  <use xlink:href="#rim" fill="#404040">
                        <set attributeName="fill" to="#808080" begin="arrowLeft.mouseover" end="arrowLeft.mouseout"/>
                  </use>
                  <path fill="none" stroke="white" stroke-width="1.5" d="M0,-3.0v7 M-2.5,-0.5L0,-3.0L2.5,-0.5"/>
                </g>
        </g>
        <svg viewBox="0 0 15 15" width="100%" height="30px" preserveAspectRatio="xMaxYMin meet">
         <g id="arrow_out" transform="scale(0.3 0.3)">
          <a xlink:href="classButtons__coll__graph_org.svg" target="_base">
           <rect id="button" ry="5" rx="5" y="6" x="6" height="38" width="38"
                fill="#f2f5e9" fill-opacity="0.5" stroke="#606060" stroke-width="1.0"/>
           <path id="arrow"
             d="M 11.500037,31.436501 C 11.940474,20.09759 22.043105,11.32322 32.158766,21.979434 L 37.068811,17.246167 C 37.068811,17.246167 37.088388,32 37.088388,32 L 22.160133,31.978069 C 22.160133,31.978069 26.997745,27.140456 26.997745,27.140456 C 18.528582,18.264221 13.291696,25.230495 11.500037,31.436501 z"
             style="fill:#404040;"/>
          </a>
         </g>
        </svg>
</svg>
