<?xml version="1.0" encoding="UTF-8" standalone="no"?>
<!DOCTYPE svg PUBLIC "-//W3C//DTD SVG 1.1//EN"
 "http://www.w3.org/Graphics/SVG/1.1/DTD/svg11.dtd">
<!-- Generated by graphviz version 2.43.0 (0)
 -->
<!-- Title: Menu Pages: 1 -->
<svg width="1496pt" height="1225pt"
 viewBox="0.00 0.00 1496.00 1225.00" xmlns="http://www.w3.org/2000/svg" xmlns:xlink="http://www.w3.org/1999/xlink">
<g id="graph0" class="graph" transform="scale(1 1) rotate(0) translate(4 1221)">
<title>Menu</title>
<!-- Node1 -->
<g id="node1" class="node">
<title>Node1</title>
<g id="a_node1"><a xlink:title=" ">
<polygon fill="#bfbfbf" stroke="black" points="171,-486.5 171,-505.5 215,-505.5 215,-486.5 171,-486.5"/>
<text text-anchor="middle" x="193" y="-493.5" font-family="Helvetica,sans-Serif" font-size="10.00">Menu</text>
</a>
</g>
</g>
<!-- Node23 -->
<g id="node23" class="node">
<title>Node23</title>
<g id="a_node23"><a xlink:href="classMenus.html" target="_top" xlink:title=" ">
<polygon fill="none" stroke="black" points="360,-646.5 360,-665.5 409,-665.5 409,-646.5 360,-646.5"/>
<text text-anchor="middle" x="384.5" y="-653.5" font-family="Helvetica,sans-Serif" font-size="10.00">Menus</text>
</a>
</g>
</g>
<!-- Node1&#45;&gt;Node23 -->
<g id="edge47" class="edge">
<title>Node1&#45;&gt;Node23</title>
<path fill="none" stroke="#9a32cd" stroke-dasharray="5,2" d="M213.31,-512.3C252.55,-545.43 340.56,-619.74 372.03,-646.32"/>
<polygon fill="#9a32cd" stroke="#9a32cd" points="215.19,-509.31 205.29,-505.53 210.67,-514.66 215.19,-509.31"/>
<text text-anchor="middle" x="267" y="-588" font-family="Helvetica,sans-Serif" font-size="10.00"> m_pCurMenu</text>
</g>
<!-- Node2 -->
<g id="node2" class="node">
<title>Node2</title>
<g id="a_node2"><a xlink:href="classMode.html" target="_top" xlink:title=" ">
<polygon fill="none" stroke="black" points="997.5,-73.5 997.5,-92.5 1041.5,-92.5 1041.5,-73.5 997.5,-73.5"/>
<text text-anchor="middle" x="1019.5" y="-80.5" font-family="Helvetica,sans-Serif" font-size="10.00">Mode</text>
</a>
</g>
</g>
<!-- Node2&#45;&gt;Node1 -->
<g id="edge1" class="edge">
<title>Node2&#45;&gt;Node1</title>
<path fill="none" stroke="#9a32cd" stroke-dasharray="5,2" d="M987.57,-74.27C945.02,-63.05 865.85,-45 797,-45 383.5,-45 383.5,-45 383.5,-45 284.34,-45 208.42,-420.21 195.84,-486.16"/>
<polygon fill="#9a32cd" stroke="#9a32cd" points="986.76,-77.68 997.33,-76.89 988.58,-70.92 986.76,-77.68"/>
<text text-anchor="middle" x="586.5" y="-48" font-family="Helvetica,sans-Serif" font-size="10.00"> m_previewMode</text>
</g>
<!-- Node16 -->
<g id="node16" class="node">
<title>Node16</title>
<g id="a_node16"><a xlink:href="classModes_1_1ModeLink.html" target="_top" xlink:title=" ">
<polygon fill="none" stroke="black" points="1213,-439.5 1213,-458.5 1315,-458.5 1315,-439.5 1213,-439.5"/>
<text text-anchor="middle" x="1264" y="-446.5" font-family="Helvetica,sans-Serif" font-size="10.00">Modes::ModeLink</text>
</a>
</g>
</g>
<!-- Node2&#45;&gt;Node16 -->
<g id="edge29" class="edge">
<title>Node2&#45;&gt;Node16</title>
<path fill="none" stroke="#9a32cd" stroke-dasharray="5,2" d="M1051.73,-75.1C1090.39,-67.35 1155.91,-61.19 1195,-96 1248.26,-143.41 1260.62,-387.42 1262.66,-439.3"/>
<polygon fill="#9a32cd" stroke="#9a32cd" points="1050.61,-71.76 1041.58,-77.29 1052.09,-78.6 1050.61,-71.76"/>
<text text-anchor="middle" x="1140" y="-99" font-family="Helvetica,sans-Serif" font-size="10.00"> m_pInstantiatedMode</text>
</g>
<!-- Node3 -->
<g id="node3" class="node">
<title>Node3</title>
<g id="a_node3"><a xlink:href="classVortexEngine.html" target="_top" xlink:title=" ">
<polygon fill="none" stroke="black" points="546,-706.5 546,-725.5 627,-725.5 627,-706.5 546,-706.5"/>
<text text-anchor="middle" x="586.5" y="-713.5" font-family="Helvetica,sans-Serif" font-size="10.00">VortexEngine</text>
</a>
</g>
</g>
<!-- Node3&#45;&gt;Node1 -->
<g id="edge53" class="edge">
<title>Node3&#45;&gt;Node1</title>
<path fill="none" stroke="#9a32cd" stroke-dasharray="5,2" d="M535.62,-716.84C480.09,-715.9 388.95,-708.64 319,-675 273.29,-653.02 261.89,-641.68 233,-600 211.58,-569.1 200.16,-524.93 195.94,-505.64"/>
<polygon fill="#9a32cd" stroke="#9a32cd" points="535.87,-720.35 545.9,-716.95 535.94,-713.35 535.87,-720.35"/>
<text text-anchor="middle" x="384.5" y="-713" font-family="Helvetica,sans-Serif" font-size="10.00"> m_engine</text>
</g>
<!-- Node3&#45;&gt;Node2 -->
<g id="edge2" class="edge">
<title>Node3&#45;&gt;Node2</title>
<path fill="none" stroke="#9a32cd" stroke-dasharray="5,2" d="M590.62,-696.18C597.81,-650.18 615.95,-532.59 629,-434 633.49,-400.06 625.21,-307.4 647,-281 673.12,-249.34 696.5,-267.23 735,-253 838.5,-214.73 864.62,-200.72 954,-136 973.49,-121.89 994.82,-103.79 1007.41,-92.81"/>
<polygon fill="#9a32cd" stroke="#9a32cd" points="587.13,-695.85 589.04,-706.27 594.04,-696.94 587.13,-695.85"/>
<text text-anchor="middle" x="796" y="-249" font-family="Helvetica,sans-Serif" font-size="10.00"> m_engine</text>
</g>
<!-- Node3&#45;&gt;Node3 -->
<g id="edge13" class="edge">
<title>Node3&#45;&gt;Node3</title>
<path fill="none" stroke="#9a32cd" stroke-dasharray="5,2" d="M570.2,-735.4C571.29,-740.31 576.72,-744 586.5,-744 602.14,-744 606.66,-734.57 600.06,-725.76"/>
<polygon fill="#9a32cd" stroke="#9a32cd" points="573.58,-736.33 572.94,-725.76 566.84,-734.42 573.58,-736.33"/>
<text text-anchor="middle" x="586.5" y="-747" font-family="Helvetica,sans-Serif" font-size="10.00"> m_engine</text>
</g>
<!-- Node4 -->
<g id="node4" class="node">
<title>Node4</title>
<g id="a_node4"><a xlink:href="classVLReceiver.html" target="_top" xlink:title=" ">
<polygon fill="none" stroke="black" points="760.5,-652.5 760.5,-671.5 831.5,-671.5 831.5,-652.5 760.5,-652.5"/>
<text text-anchor="middle" x="796" y="-659.5" font-family="Helvetica,sans-Serif" font-size="10.00">VLReceiver</text>
</a>
</g>
</g>
<!-- Node3&#45;&gt;Node4 -->
<g id="edge4" class="edge">
<title>Node3&#45;&gt;Node4</title>
<path fill="none" stroke="#9a32cd" stroke-dasharray="5,2" d="M627.61,-703.51C634.08,-701.6 640.71,-699.7 647,-698 685.82,-687.51 695.94,-686.54 735,-677 743.24,-674.99 752.11,-672.79 760.43,-670.71"/>
<polygon fill="#9a32cd" stroke="#9a32cd" points="626.24,-700.27 617.67,-706.49 628.25,-706.97 626.24,-700.27"/>
<text text-anchor="middle" x="691" y="-701" font-family="Helvetica,sans-Serif" font-size="10.00"> m_engine</text>
</g>
<!-- Node6 -->
<g id="node6" class="node">
<title>Node6</title>
<g id="a_node6"><a xlink:href="classStorage.html" target="_top" xlink:title=" ">
<polygon fill="none" stroke="black" points="769,-486.5 769,-505.5 823,-505.5 823,-486.5 769,-486.5"/>
<text text-anchor="middle" x="796" y="-493.5" font-family="Helvetica,sans-Serif" font-size="10.00">Storage</text>
</a>
</g>
</g>
<!-- Node3&#45;&gt;Node6 -->
<g id="edge7" class="edge">
<title>Node3&#45;&gt;Node6</title>
<path fill="none" stroke="#9a32cd" stroke-dasharray="5,2" d="M587.97,-696.22C589.97,-658.69 599.85,-576.99 647,-533 655.93,-524.67 728.86,-509.13 768.9,-501.1"/>
<polygon fill="#9a32cd" stroke="#9a32cd" points="584.47,-696.22 587.57,-706.35 591.46,-696.5 584.47,-696.22"/>
<text text-anchor="middle" x="691" y="-536" font-family="Helvetica,sans-Serif" font-size="10.00"> m_engine</text>
</g>
<!-- Node7 -->
<g id="node7" class="node">
<title>Node7</title>
<g id="a_node7"><a xlink:href="classIRSender.html" target="_top" xlink:title=" ">
<polygon fill="none" stroke="black" points="766,-180.5 766,-199.5 826,-199.5 826,-180.5 766,-180.5"/>
<text text-anchor="middle" x="796" y="-187.5" font-family="Helvetica,sans-Serif" font-size="10.00">IRSender</text>
</a>
</g>
</g>
<!-- Node3&#45;&gt;Node7 -->
<g id="edge9" class="edge">
<title>Node3&#45;&gt;Node7</title>
<path fill="none" stroke="#9a32cd" stroke-dasharray="5,2" d="M590.78,-696.2C598.31,-650.24 617.11,-532.74 629,-434 634.12,-391.45 619.25,-274.66 647,-242 673.18,-211.19 697.07,-232.97 735,-219 749.76,-213.56 765.78,-205.72 777.54,-199.56"/>
<polygon fill="#9a32cd" stroke="#9a32cd" points="587.29,-695.85 589.12,-706.28 594.2,-696.99 587.29,-695.85"/>
<text text-anchor="middle" x="691" y="-245" font-family="Helvetica,sans-Serif" font-size="10.00"> m_engine</text>
</g>
<!-- Node10 -->
<g id="node10" class="node">
<title>Node10</title>
<g id="a_node10"><a xlink:href="classButtons.html" target="_top" xlink:title=" ">
<polygon fill="none" stroke="black" points="992.5,-690.5 992.5,-709.5 1046.5,-709.5 1046.5,-690.5 992.5,-690.5"/>
<text text-anchor="middle" x="1019.5" y="-697.5" font-family="Helvetica,sans-Serif" font-size="10.00">Buttons</text>
</a>
</g>
</g>
<!-- Node3&#45;&gt;Node10 -->
<g id="edge15" class="edge">
<title>Node3&#45;&gt;Node10</title>
<path fill="none" stroke="#9a32cd" stroke-dasharray="5,2" d="M588.74,-695.92C592.75,-638.52 607.46,-475.83 647,-444 713.91,-390.14 766.34,-420.2 839,-466 933.86,-525.79 997.78,-654.53 1014.28,-690.5"/>
<polygon fill="#9a32cd" stroke="#9a32cd" points="585.23,-695.99 588.06,-706.2 592.21,-696.46 585.23,-695.99"/>
<text text-anchor="middle" x="796" y="-469" font-family="Helvetica,sans-Serif" font-size="10.00"> m_engine</text>
</g>
<!-- Node11 -->
<g id="node11" class="node">
<title>Node11</title>
<g id="a_node11"><a xlink:href="classButton.html" target="_top" xlink:title=" ">
<polygon fill="none" stroke="black" points="771.5,-690.5 771.5,-709.5 820.5,-709.5 820.5,-690.5 771.5,-690.5"/>
<text text-anchor="middle" x="796" y="-697.5" font-family="Helvetica,sans-Serif" font-size="10.00">Button</text>
</a>
</g>
</g>
<!-- Node3&#45;&gt;Node11 -->
<g id="edge17" class="edge">
<title>Node3&#45;&gt;Node11</title>
<path fill="none" stroke="#9a32cd" stroke-dasharray="5,2" d="M637.23,-716.14C665.89,-715.76 702.56,-714.5 735,-711 747.11,-709.69 760.45,-707.34 771.46,-705.14"/>
<polygon fill="#9a32cd" stroke="#9a32cd" points="637.02,-712.64 627.05,-716.24 637.09,-719.64 637.02,-712.64"/>
<text text-anchor="middle" x="691" y="-718" font-family="Helvetica,sans-Serif" font-size="10.00"> m_engine</text>
</g>
<!-- Node12 -->
<g id="node12" class="node">
<title>Node12</title>
<g id="a_node12"><a xlink:href="classLeds.html" target="_top" xlink:title=" ">
<polygon fill="none" stroke="black" points="776.5,-1078.5 776.5,-1097.5 815.5,-1097.5 815.5,-1078.5 776.5,-1078.5"/>
<text text-anchor="middle" x="796" y="-1085.5" font-family="Helvetica,sans-Serif" font-size="10.00">Leds</text>
</a>
</g>
</g>
<!-- Node3&#45;&gt;Node12 -->
<g id="edge19" class="edge">
<title>Node3&#45;&gt;Node12</title>
<path fill="none" stroke="#9a32cd" stroke-dasharray="5,2" d="M588.27,-735.7C591.19,-800.15 603.74,-1003.18 647,-1049 674.6,-1078.24 696.17,-1059.55 735,-1070 748.97,-1073.76 764.62,-1078.47 776.43,-1082.13"/>
<polygon fill="#9a32cd" stroke="#9a32cd" points="591.76,-735.5 587.84,-725.66 584.77,-735.8 591.76,-735.5"/>
<text text-anchor="middle" x="691" y="-1073" font-family="Helvetica,sans-Serif" font-size="10.00"> m_engine</text>
</g>
<!-- Node13 -->
<g id="node13" class="node">
<title>Node13</title>
<g id="a_node13"><a xlink:href="classPatternBuilder.html" target="_top" xlink:title=" ">
<polygon fill="none" stroke="black" points="753,-1010.5 753,-1029.5 839,-1029.5 839,-1010.5 753,-1010.5"/>
<text text-anchor="middle" x="796" y="-1017.5" font-family="Helvetica,sans-Serif" font-size="10.00">PatternBuilder</text>
</a>
</g>
</g>
<!-- Node3&#45;&gt;Node13 -->
<g id="edge21" class="edge">
<title>Node3&#45;&gt;Node13</title>
<path fill="none" stroke="#9a32cd" stroke-dasharray="5,2" d="M589.27,-735.87C594.61,-791.31 612.37,-945.9 647,-981 675.24,-1009.62 696.17,-991.55 735,-1002 744.56,-1004.57 754.9,-1007.59 764.26,-1010.41"/>
<polygon fill="#9a32cd" stroke="#9a32cd" points="592.73,-735.26 588.32,-725.62 585.76,-735.91 592.73,-735.26"/>
<text text-anchor="middle" x="691" y="-1005" font-family="Helvetica,sans-Serif" font-size="10.00"> m_engine</text>
</g>
<!-- Node14 -->
<g id="node14" class="node">
<title>Node14</title>
<g id="a_node14"><a xlink:href="classVLSender.html" target="_top" xlink:title=" ">
<polygon fill="none" stroke="black" points="765,-341.5 765,-360.5 827,-360.5 827,-341.5 765,-341.5"/>
<text text-anchor="middle" x="796" y="-348.5" font-family="Helvetica,sans-Serif" font-size="10.00">VLSender</text>
</a>
</g>
</g>
<!-- Node3&#45;&gt;Node14 -->
<g id="edge23" class="edge">
<title>Node3&#45;&gt;Node14</title>
<path fill="none" stroke="#9a32cd" stroke-dasharray="5,2" d="M588.56,-696.32C592.27,-634.55 606.74,-446.09 647,-403 674.6,-373.46 697.07,-393.97 735,-380 749.76,-374.56 765.78,-366.72 777.54,-360.56"/>
<polygon fill="#9a32cd" stroke="#9a32cd" points="585.06,-696.13 587.98,-706.31 592.05,-696.53 585.06,-696.13"/>
<text text-anchor="middle" x="691" y="-406" font-family="Helvetica,sans-Serif" font-size="10.00"> m_engine</text>
</g>
<!-- Node15 -->
<g id="node15" class="node">
<title>Node15</title>
<g id="a_node15"><a xlink:href="classModes.html" target="_top" xlink:title=" ">
<polygon fill="none" stroke="black" points="1439,-845.5 1439,-864.5 1488,-864.5 1488,-845.5 1439,-845.5"/>
<text text-anchor="middle" x="1463.5" y="-852.5" font-family="Helvetica,sans-Serif" font-size="10.00">Modes</text>
</a>
</g>
</g>
<!-- Node3&#45;&gt;Node15 -->
<g id="edge27" class="edge">
<title>Node3&#45;&gt;Node15</title>
<path fill="none" stroke="#9a32cd" stroke-dasharray="5,2" d="M588.77,-735.96C592.08,-770.27 604.03,-840.22 647,-876 698.32,-918.73 728.21,-902 795,-902 795,-902 795,-902 1265,-902 1335.69,-902 1353.1,-890.68 1421,-871 1427.23,-869.19 1433.84,-866.85 1439.91,-864.52"/>
<polygon fill="#9a32cd" stroke="#9a32cd" points="592.24,-735.47 587.94,-725.78 585.26,-736.03 592.24,-735.47"/>
<text text-anchor="middle" x="1019.5" y="-905" font-family="Helvetica,sans-Serif" font-size="10.00"> m_engine</text>
</g>
<!-- Node3&#45;&gt;Node16 -->
<g id="edge30" class="edge">
<title>Node3&#45;&gt;Node16</title>
<path fill="none" stroke="#9a32cd" stroke-dasharray="5,2" d="M611.39,-730.73C621.91,-736.38 634.65,-742.15 647,-745 829.24,-787.05 905.93,-814.04 1067,-719 1177.75,-653.65 1243.81,-498.6 1259.41,-458.56"/>
<polygon fill="#9a32cd" stroke="#9a32cd" points="612.87,-727.54 602.44,-725.66 609.42,-733.63 612.87,-727.54"/>
<text text-anchor="middle" x="905.5" y="-786" font-family="Helvetica,sans-Serif" font-size="10.00"> m_engine</text>
</g>
<!-- Node17 -->
<g id="node17" class="node">
<title>Node17</title>
<g id="a_node17"><a xlink:href="classSerialComs.html" target="_top" xlink:title=" ">
<polygon fill="none" stroke="black" points="760,-945.5 760,-964.5 832,-964.5 832,-945.5 760,-945.5"/>
<text text-anchor="middle" x="796" y="-952.5" font-family="Helvetica,sans-Serif" font-size="10.00">SerialComs</text>
</a>
</g>
</g>
<!-- Node3&#45;&gt;Node17 -->
<g id="edge34" class="edge">
<title>Node3&#45;&gt;Node17</title>
<path fill="none" stroke="#9a32cd" stroke-dasharray="5,2" d="M587.39,-735.97C588.3,-775.75 596.25,-865.17 647,-913 676.26,-940.58 696.42,-922.68 735,-934 746.44,-937.36 758.9,-941.62 769.49,-945.42"/>
<polygon fill="#9a32cd" stroke="#9a32cd" points="590.89,-735.9 587.29,-725.93 583.89,-735.97 590.89,-735.9"/>
<text text-anchor="middle" x="691" y="-937" font-family="Helvetica,sans-Serif" font-size="10.00"> m_engine</text>
</g>
<!-- Node18 -->
<g id="node18" class="node">
<title>Node18</title>
<g id="a_node18"><a xlink:href="classVortex.html" target="_top" xlink:title=" ">
<polygon fill="none" stroke="black" points="772,-1163.5 772,-1182.5 820,-1182.5 820,-1163.5 772,-1163.5"/>
<text text-anchor="middle" x="796" y="-1170.5" font-family="Helvetica,sans-Serif" font-size="10.00">Vortex</text>
</a>
</g>
</g>
<!-- Node3&#45;&gt;Node18 -->
<g id="edge37" class="edge">
<title>Node3&#45;&gt;Node18</title>
<path fill="none" stroke="#9a32cd" stroke-dasharray="5,2" d="M587.61,-735.82C588.44,-808.68 595.09,-1060.37 647,-1117 674.17,-1146.64 697.68,-1123.04 735,-1138 751.79,-1144.73 769.5,-1155.59 781.29,-1163.43"/>
<polygon fill="#9a32cd" stroke="#9a32cd" points="591.11,-735.69 587.52,-725.72 584.11,-735.75 591.11,-735.69"/>
<text text-anchor="middle" x="691" y="-1141" font-family="Helvetica,sans-Serif" font-size="10.00"> m_engine</text>
</g>
<!-- Node21 -->
<g id="node21" class="node">
<title>Node21</title>
<g id="a_node21"><a xlink:href="classIRReceiver.html" target="_top" xlink:title=" ">
<polygon fill="none" stroke="black" points="761.5,-553.5 761.5,-572.5 830.5,-572.5 830.5,-553.5 761.5,-553.5"/>
<text text-anchor="middle" x="796" y="-560.5" font-family="Helvetica,sans-Serif" font-size="10.00">IRReceiver</text>
</a>
</g>
</g>
<!-- Node3&#45;&gt;Node21 -->
<g id="edge41" class="edge">
<title>Node3&#45;&gt;Node21</title>
<path fill="none" stroke="#9a32cd" stroke-dasharray="5,2" d="M597.6,-697.33C607.9,-679.94 625.4,-654.44 647,-639 680.61,-614.97 698.57,-628.49 735,-609 753.98,-598.84 773.27,-582.82 784.68,-572.62"/>
<polygon fill="#9a32cd" stroke="#9a32cd" points="594.29,-696.07 592.4,-706.5 600.38,-699.53 594.29,-696.07"/>
<text text-anchor="middle" x="691" y="-642" font-family="Helvetica,sans-Serif" font-size="10.00"> m_engine</text>
</g>
<!-- Node22 -->
<g id="node22" class="node">
<title>Node22</title>
<g id="a_node22"><a xlink:href="classTime.html" target="_top" xlink:title=" ">
<polygon fill="none" stroke="black" points="775.5,-815.5 775.5,-834.5 816.5,-834.5 816.5,-815.5 775.5,-815.5"/>
<text text-anchor="middle" x="796" y="-822.5" font-family="Helvetica,sans-Serif" font-size="10.00">Time</text>
</a>
</g>
</g>
<!-- Node3&#45;&gt;Node22 -->
<g id="edge44" class="edge">
<title>Node3&#45;&gt;Node22</title>
<path fill="none" stroke="#9a32cd" stroke-dasharray="5,2" d="M591.34,-735.57C597.71,-762.14 613.28,-808.65 647,-829 687.05,-853.17 744.96,-840.95 775.09,-831.87"/>
<polygon fill="#9a32cd" stroke="#9a32cd" points="594.7,-734.55 589.14,-725.53 587.86,-736.05 594.7,-734.55"/>
<text text-anchor="middle" x="691" y="-846" font-family="Helvetica,sans-Serif" font-size="10.00"> m_engine</text>
</g>
<!-- Node3&#45;&gt;Node23 -->
<g id="edge46" class="edge">
<title>Node3&#45;&gt;Node23</title>
<path fill="none" stroke="#9a32cd" stroke-dasharray="5,2" d="M555.58,-702.37C546.22,-698.4 535.79,-694.25 526,-691 485.69,-677.6 437.37,-666.64 409.18,-660.74"/>
<polygon fill="#9a32cd" stroke="#9a32cd" points="554.31,-705.63 564.87,-706.41 557.1,-699.21 554.31,-705.63"/>
<text text-anchor="middle" x="497" y="-694" font-family="Helvetica,sans-Serif" font-size="10.00"> m_engine</text>
</g>
<!-- Node24 -->
<g id="node24" class="node">
<title>Node24</title>
<g id="a_node24"><a xlink:href="classPattern.html" target="_top" xlink:title=" ">
<polygon fill="none" stroke="black" points="770.5,-73.5 770.5,-92.5 821.5,-92.5 821.5,-73.5 770.5,-73.5"/>
<text text-anchor="middle" x="796" y="-80.5" font-family="Helvetica,sans-Serif" font-size="10.00">Pattern</text>
</a>
</g>
</g>
<!-- Node3&#45;&gt;Node24 -->
<g id="edge49" class="edge">
<title>Node3&#45;&gt;Node24</title>
<path fill="none" stroke="#9a32cd" stroke-dasharray="5,2" d="M591.04,-696.22C599.1,-650.33 618.95,-532.94 629,-434 632.59,-398.68 623.94,-141.99 647,-115 677.31,-79.53 736.74,-77.86 770.34,-80.17"/>
<polygon fill="#9a32cd" stroke="#9a32cd" points="587.55,-695.84 589.25,-706.3 594.44,-697.06 587.55,-695.84"/>
<text text-anchor="middle" x="691" y="-118" font-family="Helvetica,sans-Serif" font-size="10.00"> m_engine</text>
</g>
<!-- Node4&#45;&gt;Node3 -->
<g id="edge3" class="edge">
<title>Node4&#45;&gt;Node3</title>
<path fill="none" stroke="#9a32cd" stroke-dasharray="5,2" d="M750.04,-655.68C719.91,-653.23 679.89,-653.51 647,-666 625.05,-674.34 605.45,-694.44 595.15,-706.46"/>
<polygon fill="#9a32cd" stroke="#9a32cd" points="749.97,-659.19 760.26,-656.64 750.63,-652.22 749.97,-659.19"/>
<text text-anchor="middle" x="691" y="-669" font-family="Helvetica,sans-Serif" font-size="10.00"> m_vlReceiver</text>
</g>
<!-- Node5 -->
<g id="node5" class="node">
<title>Node5</title>
<g id="a_node5"><a xlink:href="classBitStream.html" target="_top" xlink:title=" ">
<polygon fill="none" stroke="black" points="554,-405.5 554,-424.5 619,-424.5 619,-405.5 554,-405.5"/>
<text text-anchor="middle" x="586.5" y="-412.5" font-family="Helvetica,sans-Serif" font-size="10.00">BitStream</text>
</a>
</g>
</g>
<!-- Node5&#45;&gt;Node4 -->
<g id="edge5" class="edge">
<title>Node5&#45;&gt;Node4</title>
<path fill="none" stroke="#9a32cd" stroke-dasharray="5,2" d="M588.99,-434.69C592.66,-468.6 605.13,-537.94 647,-575 677.11,-601.65 700.38,-575.55 735,-596 759.27,-610.34 779.35,-637.65 788.94,-652.24"/>
<polygon fill="#9a32cd" stroke="#9a32cd" points="592.47,-434.28 588.06,-424.65 585.5,-434.93 592.47,-434.28"/>
<text text-anchor="middle" x="691" y="-599" font-family="Helvetica,sans-Serif" font-size="10.00"> m_vlData</text>
</g>
<!-- Node5&#45;&gt;Node7 -->
<g id="edge10" class="edge">
<title>Node5&#45;&gt;Node7</title>
<path fill="none" stroke="#9a32cd" stroke-dasharray="5,2" d="M589.29,-395.49C594.53,-343.13 611.75,-201.6 647,-174 684.85,-144.36 745.83,-166.24 776.34,-180.42"/>
<polygon fill="#9a32cd" stroke="#9a32cd" points="585.8,-395.21 588.33,-405.5 592.77,-395.88 585.8,-395.21"/>
<text text-anchor="middle" x="691" y="-177" font-family="Helvetica,sans-Serif" font-size="10.00"> m_bitStream</text>
</g>
<!-- Node5&#45;&gt;Node14 -->
<g id="edge24" class="edge">
<title>Node5&#45;&gt;Node14</title>
<path fill="none" stroke="#9a32cd" stroke-dasharray="5,2" d="M595.41,-395.92C604.61,-376.55 621.83,-347.65 647,-335 687.76,-314.52 742.67,-329.88 772.84,-341.4"/>
<polygon fill="#9a32cd" stroke="#9a32cd" points="592.11,-394.74 591.23,-405.3 598.5,-397.59 592.11,-394.74"/>
<text text-anchor="middle" x="691" y="-338" font-family="Helvetica,sans-Serif" font-size="10.00"> m_bitStream</text>
</g>
<!-- Node5&#45;&gt;Node21 -->
<g id="edge42" class="edge">
<title>Node5&#45;&gt;Node21</title>
<path fill="none" stroke="#9a32cd" stroke-dasharray="5,2" d="M601.23,-432.62C612.26,-445.62 628.87,-462.76 647,-473 682.2,-492.88 700.5,-474.94 735,-496 738.23,-497.97 771.02,-535.43 786.72,-553.46"/>
<polygon fill="#9a32cd" stroke="#9a32cd" points="603.86,-430.32 594.82,-424.79 598.45,-434.75 603.86,-430.32"/>
<text text-anchor="middle" x="691" y="-499" font-family="Helvetica,sans-Serif" font-size="10.00"> m_irData</text>
</g>
<!-- Node6&#45;&gt;Node3 -->
<g id="edge6" class="edge">
<title>Node6&#45;&gt;Node3</title>
<path fill="none" stroke="#9a32cd" stroke-dasharray="5,2" d="M773.58,-480.61C742.44,-460.29 684.32,-430.36 647,-460 606.98,-491.78 591.44,-663.95 588.18,-706.49"/>
<polygon fill="#9a32cd" stroke="#9a32cd" points="771.72,-483.58 781.97,-486.28 775.64,-477.78 771.72,-483.58"/>
<text text-anchor="middle" x="691" y="-463" font-family="Helvetica,sans-Serif" font-size="10.00"> m_storage</text>
</g>
<!-- Node7&#45;&gt;Node3 -->
<g id="edge8" class="edge">
<title>Node7&#45;&gt;Node3</title>
<path fill="none" stroke="#9a32cd" stroke-dasharray="5,2" d="M755.51,-189.38C716.78,-189.69 661.5,-192.89 647,-208 629.56,-226.18 631.84,-408.97 629,-434 616.86,-541.19 595.3,-670.32 589.17,-706.29"/>
<polygon fill="#9a32cd" stroke="#9a32cd" points="755.95,-192.88 765.95,-189.36 755.94,-185.88 755.95,-192.88"/>
<text text-anchor="middle" x="691" y="-211" font-family="Helvetica,sans-Serif" font-size="10.00"> m_irSender</text>
</g>
<!-- Node8 -->
<g id="node8" class="node">
<title>Node8</title>
<g id="a_node8"><a xlink:href="classByteStream.html" target="_top" xlink:title=" ">
<polygon fill="none" stroke="black" points="549.5,-129.5 549.5,-148.5 623.5,-148.5 623.5,-129.5 549.5,-129.5"/>
<text text-anchor="middle" x="586.5" y="-136.5" font-family="Helvetica,sans-Serif" font-size="10.00">ByteStream</text>
</a>
</g>
</g>
<!-- Node8&#45;&gt;Node7 -->
<g id="edge11" class="edge">
<title>Node8&#45;&gt;Node7</title>
<path fill="none" stroke="#9a32cd" stroke-dasharray="5,2" d="M633.69,-131.47C663.51,-128.49 702.62,-128.15 735,-140 757.16,-148.11 776.91,-168.29 787.3,-180.39"/>
<polygon fill="#9a32cd" stroke="#9a32cd" points="633.11,-128.02 623.56,-132.62 633.89,-134.97 633.11,-128.02"/>
<text text-anchor="middle" x="691" y="-143" font-family="Helvetica,sans-Serif" font-size="10.00"> m_serialBuf</text>
</g>
<!-- Node8&#45;&gt;Node14 -->
<g id="edge25" class="edge">
<title>Node8&#45;&gt;Node14</title>
<path fill="none" stroke="#9a32cd" stroke-dasharray="5,2" d="M593.59,-158.26C602.24,-183.17 620.07,-226.83 647,-256 678.13,-289.72 696.49,-285.05 735,-310 751.09,-320.43 769.23,-332.93 781.31,-341.36"/>
<polygon fill="#9a32cd" stroke="#9a32cd" points="596.84,-156.92 590.36,-148.54 590.19,-159.13 596.84,-156.92"/>
<text text-anchor="middle" x="691" y="-313" font-family="Helvetica,sans-Serif" font-size="10.00"> m_serialBuf</text>
</g>
<!-- Node8&#45;&gt;Node16 -->
<g id="edge31" class="edge">
<title>Node8&#45;&gt;Node16</title>
<path fill="none" stroke="#9a32cd" stroke-dasharray="5,2" d="M633.56,-128.11C662.85,-122.86 701.45,-119.05 735,-126 973.86,-175.46 1204.27,-391.17 1253.4,-439.41"/>
<polygon fill="#9a32cd" stroke="#9a32cd" points="632.77,-124.7 623.61,-130.01 634.09,-131.58 632.77,-124.7"/>
<text text-anchor="middle" x="905.5" y="-214" font-family="Helvetica,sans-Serif" font-size="10.00"> m_storedMode</text>
</g>
<!-- Node9 -->
<g id="node9" class="node">
<title>Node9</title>
<g id="a_node9"><a xlink:href="structByteStream_1_1RawBuffer.html" target="_top" xlink:title=" ">
<polygon fill="none" stroke="black" points="319,-129.5 319,-148.5 450,-148.5 450,-129.5 319,-129.5"/>
<text text-anchor="middle" x="384.5" y="-136.5" font-family="Helvetica,sans-Serif" font-size="10.00">ByteStream::RawBuffer</text>
</a>
</g>
</g>
<!-- Node9&#45;&gt;Node8 -->
<g id="edge12" class="edge">
<title>Node9&#45;&gt;Node8</title>
<path fill="none" stroke="#9a32cd" stroke-dasharray="5,2" d="M460.34,-139C490.78,-139 524.54,-139 549.32,-139"/>
<polygon fill="#9a32cd" stroke="#9a32cd" points="460.16,-135.5 450.16,-139 460.16,-142.5 460.16,-135.5"/>
<text text-anchor="middle" x="497" y="-142" font-family="Helvetica,sans-Serif" font-size="10.00"> m_pData</text>
</g>
<!-- Node10&#45;&gt;Node3 -->
<g id="edge14" class="edge">
<title>Node10&#45;&gt;Node3</title>
<path fill="none" stroke="#9a32cd" stroke-dasharray="5,2" d="M982.32,-709.49C973.14,-711.6 963.25,-713.62 954,-715 949.77,-715.63 727.5,-739.34 647,-730 638.78,-729.05 630.04,-727.37 621.87,-725.51"/>
<polygon fill="#9a32cd" stroke="#9a32cd" points="983.41,-712.82 992.32,-707.09 981.78,-706.02 983.41,-712.82"/>
<text text-anchor="middle" x="796" y="-733" font-family="Helvetica,sans-Serif" font-size="10.00"> m_buttons</text>
</g>
<!-- Node11&#45;&gt;Node10 -->
<g id="edge16" class="edge">
<title>Node11&#45;&gt;Node10</title>
<path fill="none" stroke="#9a32cd" stroke-dasharray="5,2" d="M830.98,-700C875.34,-700 952.06,-700 992.23,-700"/>
<polygon fill="#9a32cd" stroke="#9a32cd" points="830.7,-696.5 820.7,-700 830.7,-703.5 830.7,-696.5"/>
<text text-anchor="middle" x="905.5" y="-703" font-family="Helvetica,sans-Serif" font-size="10.00"> m_buttons</text>
</g>
<!-- Node12&#45;&gt;Node3 -->
<g id="edge18" class="edge">
<title>Node12&#45;&gt;Node3</title>
<path fill="none" stroke="#9a32cd" stroke-dasharray="5,2" d="M766.48,-1096.65C733.5,-1104.72 679.56,-1111.67 647,-1083 591.53,-1034.16 587.69,-779.03 587.49,-725.76"/>
<polygon fill="#9a32cd" stroke="#9a32cd" points="767.63,-1099.96 776.4,-1094.03 765.84,-1093.2 767.63,-1099.96"/>
<text text-anchor="middle" x="691" y="-1106" font-family="Helvetica,sans-Serif" font-size="10.00"> m_leds</text>
</g>
<!-- Node13&#45;&gt;Node3 -->
<g id="edge20" class="edge">
<title>Node13&#45;&gt;Node3</title>
<path fill="none" stroke="#9a32cd" stroke-dasharray="5,2" d="M751.87,-1031.57C719.29,-1037.52 675.47,-1039.18 647,-1015 601.41,-976.28 589.94,-772.9 587.88,-725.76"/>
<polygon fill="#9a32cd" stroke="#9a32cd" points="752.91,-1034.93 762.02,-1029.51 751.52,-1028.07 752.91,-1034.93"/>
<text text-anchor="middle" x="691" y="-1038" font-family="Helvetica,sans-Serif" font-size="10.00"> m_patternBuilder</text>
</g>
<!-- Node14&#45;&gt;Node3 -->
<g id="edge22" class="edge">
<title>Node14&#45;&gt;Node3</title>
<path fill="none" stroke="#9a32cd" stroke-dasharray="5,2" d="M754.47,-350.67C716.03,-351.26 661.99,-354.72 647,-369 634.27,-381.12 596.39,-651.56 588.82,-706.36"/>
<polygon fill="#9a32cd" stroke="#9a32cd" points="754.88,-354.17 764.85,-350.57 754.82,-347.17 754.88,-354.17"/>
<text text-anchor="middle" x="691" y="-372" font-family="Helvetica,sans-Serif" font-size="10.00"> m_vlSender</text>
</g>
<!-- Node15&#45;&gt;Node3 -->
<g id="edge26" class="edge">
<title>Node15&#45;&gt;Node3</title>
<path fill="none" stroke="#9a32cd" stroke-dasharray="5,2" d="M1428.76,-856.17C1278.96,-861.21 679.99,-879.94 647,-858 600.71,-827.21 590.36,-752.71 588.11,-725.86"/>
<polygon fill="#9a32cd" stroke="#9a32cd" points="1428.88,-859.66 1438.75,-855.83 1428.64,-852.67 1428.88,-859.66"/>
<text text-anchor="middle" x="1019.5" y="-870" font-family="Helvetica,sans-Serif" font-size="10.00"> m_modes</text>
</g>
<!-- Node16&#45;&gt;Node15 -->
<g id="edge28" class="edge">
<title>Node16&#45;&gt;Node15</title>
<path fill="none" stroke="#9a32cd" stroke-dasharray="5,2" d="M1274.15,-467.81C1308.91,-539.26 1432.05,-792.4 1457.77,-845.27"/>
<polygon fill="#9a32cd" stroke="#9a32cd" points="1277.21,-466.1 1269.69,-458.64 1270.91,-469.16 1277.21,-466.1"/>
<text text-anchor="middle" x="1377" y="-781" font-family="Helvetica,sans-Serif" font-size="10.00"> m_pCurModeLink</text>
<text text-anchor="middle" x="1377" y="-770" font-family="Helvetica,sans-Serif" font-size="10.00">m_storedModes</text>
</g>
<!-- Node16&#45;&gt;Node16 -->
<g id="edge32" class="edge">
<title>Node16&#45;&gt;Node16</title>
<path fill="none" stroke="#9a32cd" stroke-dasharray="5,2" d="M1243.26,-468.4C1244.65,-473.31 1251.56,-477 1264,-477 1283.91,-477 1289.66,-467.57 1281.26,-458.76"/>
<polygon fill="#9a32cd" stroke="#9a32cd" points="1246.64,-469.35 1246.74,-458.76 1240.05,-466.98 1246.64,-469.35"/>
<text text-anchor="middle" x="1264" y="-491" font-family="Helvetica,sans-Serif" font-size="10.00"> m_next</text>
<text text-anchor="middle" x="1264" y="-480" font-family="Helvetica,sans-Serif" font-size="10.00">m_prev</text>
</g>
<!-- Node17&#45;&gt;Node3 -->
<g id="edge33" class="edge">
<title>Node17&#45;&gt;Node3</title>
<path fill="none" stroke="#9a32cd" stroke-dasharray="5,2" d="M749.68,-965.46C717.51,-970.08 675.2,-970.1 647,-947 611.44,-917.87 592.81,-765.55 588.49,-725.6"/>
<polygon fill="#9a32cd" stroke="#9a32cd" points="750.43,-968.89 759.74,-963.82 749.31,-961.98 750.43,-968.89"/>
<text text-anchor="middle" x="691" y="-970" font-family="Helvetica,sans-Serif" font-size="10.00"> m_serial</text>
</g>
<!-- Node18&#45;&gt;Node3 -->
<g id="edge35" class="edge">
<title>Node18&#45;&gt;Node3</title>
<path fill="none" stroke="#9a32cd" stroke-dasharray="5,2" d="M761.69,-1172.55C723.03,-1171.28 662.57,-1166.75 647,-1151 585.11,-1088.39 586.47,-784.58 587.32,-725.84"/>
<polygon fill="#9a32cd" stroke="#9a32cd" points="761.87,-1176.05 771.96,-1172.83 762.06,-1169.06 761.87,-1176.05"/>
<text text-anchor="middle" x="691" y="-1174" font-family="Helvetica,sans-Serif" font-size="10.00"> m_vortexLib</text>
</g>
<!-- Node20 -->
<g id="node20" class="node">
<title>Node20</title>
<g id="a_node20"><a xlink:href="classVortexCallbacks.html" target="_top" xlink:title=" ">
<polygon fill="none" stroke="black" points="972,-1163.5 972,-1182.5 1067,-1182.5 1067,-1163.5 972,-1163.5"/>
<text text-anchor="middle" x="1019.5" y="-1170.5" font-family="Helvetica,sans-Serif" font-size="10.00">VortexCallbacks</text>
</a>
</g>
</g>
<!-- Node18&#45;&gt;Node20 -->
<g id="edge39" class="edge">
<title>Node18&#45;&gt;Node20</title>
<path fill="none" stroke="#9a32cd" stroke-dasharray="5,2" d="M830.69,-1173C868.3,-1173 929.4,-1173 971.65,-1173"/>
<polygon fill="#9a32cd" stroke="#9a32cd" points="830.29,-1169.5 820.29,-1173 830.29,-1176.5 830.29,-1169.5"/>
<text text-anchor="middle" x="905.5" y="-1176" font-family="Helvetica,sans-Serif" font-size="10.00"> m_vortex</text>
</g>
<!-- Node19 -->
<g id="node19" class="node">
<title>Node19</title>
<g id="a_node19"><a xlink:href="classRandom.html" target="_top" xlink:title=" ">
<polygon fill="none" stroke="black" points="558,-1197.5 558,-1216.5 615,-1216.5 615,-1197.5 558,-1197.5"/>
<text text-anchor="middle" x="586.5" y="-1204.5" font-family="Helvetica,sans-Serif" font-size="10.00">Random</text>
</a>
</g>
</g>
<!-- Node19&#45;&gt;Node18 -->
<g id="edge36" class="edge">
<title>Node19&#45;&gt;Node18</title>
<path fill="none" stroke="#9a32cd" stroke-dasharray="5,2" d="M625.01,-1201.93C654.87,-1197.76 697.7,-1191.51 735,-1185 747.24,-1182.86 760.83,-1180.17 771.97,-1177.88"/>
<polygon fill="#9a32cd" stroke="#9a32cd" points="624.45,-1198.47 615.02,-1203.31 625.41,-1205.4 624.45,-1198.47"/>
<text text-anchor="middle" x="691" y="-1201" font-family="Helvetica,sans-Serif" font-size="10.00"> m_randCtx</text>
</g>
<!-- Node20&#45;&gt;Node18 -->
<g id="edge38" class="edge">
<title>Node20&#45;&gt;Node18</title>
<path fill="none" stroke="#9a32cd" stroke-dasharray="5,2" d="M976.66,-1161.06C969.18,-1159.37 961.4,-1157.9 954,-1157 911.21,-1151.77 899.75,-1151.4 857,-1157 844.6,-1158.62 831.12,-1162.06 820.08,-1165.34"/>
<polygon fill="#9a32cd" stroke="#9a32cd" points="976.09,-1164.52 986.64,-1163.47 977.74,-1157.72 976.09,-1164.52"/>
<text text-anchor="middle" x="905.5" y="-1160" font-family="Helvetica,sans-Serif" font-size="10.00"> m_storedCallbacks</text>
</g>
<!-- Node21&#45;&gt;Node3 -->
<g id="edge40" class="edge">
<title>Node21&#45;&gt;Node3</title>
<path fill="none" stroke="#9a32cd" stroke-dasharray="5,2" d="M752.56,-551.42C720.73,-545.36 677.57,-542.99 647,-564 597.96,-597.71 589.34,-678.4 587.82,-706.31"/>
<polygon fill="#9a32cd" stroke="#9a32cd" points="751.96,-554.87 762.46,-553.49 753.39,-548.02 751.96,-554.87"/>
<text text-anchor="middle" x="691" y="-567" font-family="Helvetica,sans-Serif" font-size="10.00"> m_irReceiver</text>
</g>
<!-- Node22&#45;&gt;Node3 -->
<g id="edge43" class="edge">
<title>Node22&#45;&gt;Node3</title>
<path fill="none" stroke="#9a32cd" stroke-dasharray="5,2" d="M765.01,-821.47C727.62,-816.64 666.28,-807.16 647,-795 619.41,-777.6 600,-742.51 591.82,-725.58"/>
<polygon fill="#9a32cd" stroke="#9a32cd" points="764.96,-824.99 775.32,-822.76 765.83,-818.05 764.96,-824.99"/>
<text text-anchor="middle" x="691" y="-819" font-family="Helvetica,sans-Serif" font-size="10.00"> m_time</text>
</g>
<!-- Node23&#45;&gt;Node3 -->
<g id="edge45" class="edge">
<title>Node23&#45;&gt;Node3</title>
<path fill="none" stroke="#9a32cd" stroke-dasharray="5,2" d="M419.36,-649.3C448.74,-645.07 491.8,-642.78 526,-657 550.18,-667.06 569.77,-692.14 579.27,-706.15"/>
<polygon fill="#9a32cd" stroke="#9a32cd" points="418.52,-645.89 409.2,-650.92 419.62,-652.8 418.52,-645.89"/>
<text text-anchor="middle" x="497" y="-660" font-family="Helvetica,sans-Serif" font-size="10.00"> m_menus</text>
</g>
<!-- Node24&#45;&gt;Node2 -->
<g id="edge48" class="edge">
<title>Node24&#45;&gt;Node2</title>
<path fill="none" stroke="#9a32cd" stroke-dasharray="5,2" d="M831.75,-83C878.25,-83 959.26,-83 997.45,-83"/>
<polygon fill="#9a32cd" stroke="#9a32cd" points="831.55,-79.5 821.55,-83 831.55,-86.5 831.55,-79.5"/>
<text text-anchor="middle" x="905.5" y="-86" font-family="Helvetica,sans-Serif" font-size="10.00"> m_multiPat</text>
</g>
<!-- Node25 -->
<g id="node25" class="node">
<title>Node25</title>
<g id="a_node25"><a xlink:href="classColorset.html" target="_top" xlink:title=" ">
<polygon fill="none" stroke="black" points="238.5,-0.5 238.5,-19.5 295.5,-19.5 295.5,-0.5 238.5,-0.5"/>
<text text-anchor="middle" x="267" y="-7.5" font-family="Helvetica,sans-Serif" font-size="10.00">Colorset</text>
</a>
</g>
</g>
<!-- Node25&#45;&gt;Node24 -->
<g id="edge50" class="edge">
<title>Node25&#45;&gt;Node24</title>
<path fill="none" stroke="#9a32cd" stroke-dasharray="5,2" d="M306.35,-7.52C372.77,-4.07 513.23,-0.57 629,-23 683.6,-33.58 744.22,-59.32 774.88,-73.4"/>
<polygon fill="#9a32cd" stroke="#9a32cd" points="305.75,-4.05 295.96,-8.09 306.14,-11.04 305.75,-4.05"/>
<text text-anchor="middle" x="497" y="-13" font-family="Helvetica,sans-Serif" font-size="10.00"> m_colorset</text>
</g>
<!-- Node26 -->
<g id="node26" class="node">
<title>Node26</title>
<g id="a_node26"><a xlink:href="classRGBColor.html" target="_top" xlink:title=" ">
<polygon fill="none" stroke="black" points="0,-316.5 0,-335.5 63,-335.5 63,-316.5 0,-316.5"/>
<text text-anchor="middle" x="31.5" y="-323.5" font-family="Helvetica,sans-Serif" font-size="10.00">RGBColor</text>
</a>
</g>
</g>
<!-- Node26&#45;&gt;Node1 -->
<g id="edge52" class="edge">
<title>Node26&#45;&gt;Node1</title>
<path fill="none" stroke="#9a32cd" stroke-dasharray="5,2" d="M48.69,-343.25C81.98,-378.74 157.2,-458.91 183.07,-486.48"/>
<polygon fill="#9a32cd" stroke="#9a32cd" points="50.93,-340.52 41.53,-335.63 45.82,-345.31 50.93,-340.52"/>
<text text-anchor="middle" x="117" y="-454" font-family="Helvetica,sans-Serif" font-size="10.00"> m_menuColor</text>
</g>
<!-- Node26&#45;&gt;Node25 -->
<g id="edge51" class="edge">
<title>Node26&#45;&gt;Node25</title>
<path fill="none" stroke="#9a32cd" stroke-dasharray="5,2" d="M41.7,-307.35C66.87,-257.72 141.11,-120.15 233,-31 237.39,-26.74 242.77,-22.89 247.9,-19.67"/>
<polygon fill="#9a32cd" stroke="#9a32cd" points="38.56,-305.8 37.21,-316.31 44.82,-308.94 38.56,-305.8"/>
<text text-anchor="middle" x="117" y="-238" font-family="Helvetica,sans-Serif" font-size="10.00"> m_palette</text>
</g>
</g>
</svg>
