<?xml version="1.0" encoding="UTF-8" standalone="no"?>
<!DOCTYPE svg PUBLIC "-//W3C//DTD SVG 1.1//EN"
 "http://www.w3.org/Graphics/SVG/1.1/DTD/svg11.dtd">
<!-- Generated by graphviz version 2.43.0 (0)
 -->
<!-- Title: Pattern Pages: 1 -->
<svg width="1605pt" height="1064pt"
 viewBox="0.00 0.00 1605.00 1064.00" xmlns="http://www.w3.org/2000/svg" xmlns:xlink="http://www.w3.org/1999/xlink">
<g id="graph0" class="graph" transform="scale(1 1) rotate(0) translate(4 1060)">
<title>Pattern</title>
<!-- Node1 -->
<g id="node1" class="node">
<title>Node1</title>
<g id="a_node1"><a xlink:title=" ">
<polygon fill="#bfbfbf" stroke="black" points="343,-61.5 343,-80.5 394,-80.5 394,-61.5 343,-61.5"/>
<text text-anchor="middle" x="368.5" y="-68.5" font-family="Helvetica,sans-Serif" font-size="10.00">Pattern</text>
</a>
</g>
</g>
<!-- Node16 -->
<g id="node16" class="node">
<title>Node16</title>
<g id="a_node16"><a xlink:href="classMode.html" target="_top" xlink:title=" ">
<polygon fill="none" stroke="black" points="544,-61.5 544,-80.5 588,-80.5 588,-61.5 544,-61.5"/>
<text text-anchor="middle" x="566" y="-68.5" font-family="Helvetica,sans-Serif" font-size="10.00">Mode</text>
</a>
</g>
</g>
<!-- Node1&#45;&gt;Node16 -->
<g id="edge30" class="edge">
<title>Node1&#45;&gt;Node16</title>
<path fill="none" stroke="#9a32cd" stroke-dasharray="5,2" d="M404.47,-71C444.93,-71 510.25,-71 543.73,-71"/>
<polygon fill="#9a32cd" stroke="#9a32cd" points="404.26,-67.5 394.26,-71 404.26,-74.5 404.26,-67.5"/>
<text text-anchor="middle" x="481.5" y="-74" font-family="Helvetica,sans-Serif" font-size="10.00"> m_multiPat</text>
</g>
<!-- Node2 -->
<g id="node2" class="node">
<title>Node2</title>
<g id="a_node2"><a xlink:href="classVortexEngine.html" target="_top" xlink:title=" ">
<polygon fill="none" stroke="black" points="1148,-444.5 1148,-463.5 1229,-463.5 1229,-444.5 1148,-444.5"/>
<text text-anchor="middle" x="1188.5" y="-451.5" font-family="Helvetica,sans-Serif" font-size="10.00">VortexEngine</text>
</a>
</g>
</g>
<!-- Node2&#45;&gt;Node1 -->
<g id="edge1" class="edge">
<title>Node2&#45;&gt;Node1</title>
<path fill="none" stroke="#9a32cd" stroke-dasharray="5,2" d="M1184.6,-434.14C1171.28,-346.65 1112.57,0 1018.5,0 565,0 565,0 565,0 493.86,0 416.44,-42.04 384.53,-61.42"/>
<polygon fill="#9a32cd" stroke="#9a32cd" points="1181.15,-434.72 1186.09,-444.1 1188.07,-433.69 1181.15,-434.72"/>
<text text-anchor="middle" x="800" y="-3" font-family="Helvetica,sans-Serif" font-size="10.00"> m_engine</text>
</g>
<!-- Node2&#45;&gt;Node2 -->
<g id="edge12" class="edge">
<title>Node2&#45;&gt;Node2</title>
<path fill="none" stroke="#9a32cd" stroke-dasharray="5,2" d="M1173.03,-473.77C1174.25,-478.5 1179.4,-482 1188.5,-482 1203.43,-482 1207.75,-472.57 1201.45,-463.76"/>
<polygon fill="#9a32cd" stroke="#9a32cd" points="1176.5,-474.31 1175.55,-463.76 1169.72,-472.6 1176.5,-474.31"/>
<text text-anchor="middle" x="1188.5" y="-485" font-family="Helvetica,sans-Serif" font-size="10.00"> m_engine</text>
</g>
<!-- Node3 -->
<g id="node3" class="node">
<title>Node3</title>
<g id="a_node3"><a xlink:href="classVLReceiver.html" target="_top" xlink:title=" ">
<polygon fill="none" stroke="black" points="1360.5,-860.5 1360.5,-879.5 1431.5,-879.5 1431.5,-860.5 1360.5,-860.5"/>
<text text-anchor="middle" x="1396" y="-867.5" font-family="Helvetica,sans-Serif" font-size="10.00">VLReceiver</text>
</a>
</g>
</g>
<!-- Node2&#45;&gt;Node3 -->
<g id="edge3" class="edge">
<title>Node2&#45;&gt;Node3</title>
<path fill="none" stroke="#9a32cd" stroke-dasharray="5,2" d="M1189.41,-474.07C1189.51,-546.74 1193.82,-794.68 1247,-848 1262.45,-863.5 1321.68,-868.12 1360.37,-869.48"/>
<polygon fill="#9a32cd" stroke="#9a32cd" points="1192.91,-473.63 1189.42,-463.62 1185.91,-473.62 1192.91,-473.63"/>
<text text-anchor="middle" x="1291" y="-871" font-family="Helvetica,sans-Serif" font-size="10.00"> m_engine</text>
</g>
<!-- Node5 -->
<g id="node5" class="node">
<title>Node5</title>
<g id="a_node5"><a xlink:href="classStorage.html" target="_top" xlink:title=" ">
<polygon fill="none" stroke="black" points="1369,-574.5 1369,-593.5 1423,-593.5 1423,-574.5 1369,-574.5"/>
<text text-anchor="middle" x="1396" y="-581.5" font-family="Helvetica,sans-Serif" font-size="10.00">Storage</text>
</a>
</g>
</g>
<!-- Node2&#45;&gt;Node5 -->
<g id="edge6" class="edge">
<title>Node2&#45;&gt;Node5</title>
<path fill="none" stroke="#9a32cd" stroke-dasharray="5,2" d="M1192.51,-473.98C1197.92,-502.11 1212.17,-552.57 1247,-576 1283.51,-600.56 1337.28,-595.88 1368.96,-590.06"/>
<polygon fill="#9a32cd" stroke="#9a32cd" points="1195.9,-473.02 1190.75,-463.76 1189,-474.21 1195.9,-473.02"/>
<text text-anchor="middle" x="1291" y="-597" font-family="Helvetica,sans-Serif" font-size="10.00"> m_engine</text>
</g>
<!-- Node6 -->
<g id="node6" class="node">
<title>Node6</title>
<g id="a_node6"><a xlink:href="classIRSender.html" target="_top" xlink:title=" ">
<polygon fill="none" stroke="black" points="1366,-807.5 1366,-826.5 1426,-826.5 1426,-807.5 1366,-807.5"/>
<text text-anchor="middle" x="1396" y="-814.5" font-family="Helvetica,sans-Serif" font-size="10.00">IRSender</text>
</a>
</g>
</g>
<!-- Node2&#45;&gt;Node6 -->
<g id="edge8" class="edge">
<title>Node2&#45;&gt;Node6</title>
<path fill="none" stroke="#9a32cd" stroke-dasharray="5,2" d="M1190.26,-474.08C1193.1,-537.99 1205.13,-735.08 1247,-780 1249.06,-782.21 1323.4,-800.07 1365.92,-810.15"/>
<polygon fill="#9a32cd" stroke="#9a32cd" points="1193.75,-473.61 1189.83,-463.77 1186.75,-473.9 1193.75,-473.61"/>
<text text-anchor="middle" x="1291" y="-804" font-family="Helvetica,sans-Serif" font-size="10.00"> m_engine</text>
</g>
<!-- Node9 -->
<g id="node9" class="node">
<title>Node9</title>
<g id="a_node9"><a xlink:href="classButtons.html" target="_top" xlink:title=" ">
<polygon fill="none" stroke="black" points="1543,-475.5 1543,-494.5 1597,-494.5 1597,-475.5 1543,-475.5"/>
<text text-anchor="middle" x="1570" y="-482.5" font-family="Helvetica,sans-Serif" font-size="10.00">Buttons</text>
</a>
</g>
</g>
<!-- Node2&#45;&gt;Node9 -->
<g id="edge14" class="edge">
<title>Node2&#45;&gt;Node9</title>
<path fill="none" stroke="#9a32cd" stroke-dasharray="5,2" d="M1207.73,-470.34C1218.4,-478.92 1232.58,-488.72 1247,-494 1363.05,-536.48 1403.58,-523.04 1525,-500 1531.66,-498.74 1538.69,-496.69 1545.12,-494.5"/>
<polygon fill="#9a32cd" stroke="#9a32cd" points="1209.89,-467.59 1199.99,-463.83 1205.39,-472.95 1209.89,-467.59"/>
<text text-anchor="middle" x="1396" y="-524" font-family="Helvetica,sans-Serif" font-size="10.00"> m_engine</text>
</g>
<!-- Node10 -->
<g id="node10" class="node">
<title>Node10</title>
<g id="a_node10"><a xlink:href="classButton.html" target="_top" xlink:title=" ">
<polygon fill="none" stroke="black" points="1371.5,-475.5 1371.5,-494.5 1420.5,-494.5 1420.5,-475.5 1371.5,-475.5"/>
<text text-anchor="middle" x="1396" y="-482.5" font-family="Helvetica,sans-Serif" font-size="10.00">Button</text>
</a>
</g>
</g>
<!-- Node2&#45;&gt;Node10 -->
<g id="edge16" class="edge">
<title>Node2&#45;&gt;Node10</title>
<path fill="none" stroke="#9a32cd" stroke-dasharray="5,2" d="M1239.32,-465.59C1241.91,-466.09 1244.49,-466.56 1247,-467 1290.61,-474.56 1342,-480.05 1371.31,-482.87"/>
<polygon fill="#9a32cd" stroke="#9a32cd" points="1239.8,-462.11 1229.3,-463.55 1238.4,-468.97 1239.8,-462.11"/>
<text text-anchor="middle" x="1291" y="-482" font-family="Helvetica,sans-Serif" font-size="10.00"> m_engine</text>
</g>
<!-- Node11 -->
<g id="node11" class="node">
<title>Node11</title>
<g id="a_node11"><a xlink:href="classLeds.html" target="_top" xlink:title=" ">
<polygon fill="none" stroke="black" points="1376.5,-434.5 1376.5,-453.5 1415.5,-453.5 1415.5,-434.5 1376.5,-434.5"/>
<text text-anchor="middle" x="1396" y="-441.5" font-family="Helvetica,sans-Serif" font-size="10.00">Leds</text>
</a>
</g>
</g>
<!-- Node2&#45;&gt;Node11 -->
<g id="edge18" class="edge">
<title>Node2&#45;&gt;Node11</title>
<path fill="none" stroke="#9a32cd" stroke-dasharray="5,2" d="M1239.05,-452.9C1267.2,-452.12 1303.09,-450.88 1335,-449 1348.88,-448.18 1364.53,-446.87 1376.37,-445.79"/>
<polygon fill="#9a32cd" stroke="#9a32cd" points="1238.95,-449.4 1229.05,-453.16 1239.14,-456.4 1238.95,-449.4"/>
<text text-anchor="middle" x="1291" y="-455" font-family="Helvetica,sans-Serif" font-size="10.00"> m_engine</text>
</g>
<!-- Node12 -->
<g id="node12" class="node">
<title>Node12</title>
<g id="a_node12"><a xlink:href="classPatternBuilder.html" target="_top" xlink:title=" ">
<polygon fill="none" stroke="black" points="1353,-376.5 1353,-395.5 1439,-395.5 1439,-376.5 1353,-376.5"/>
<text text-anchor="middle" x="1396" y="-383.5" font-family="Helvetica,sans-Serif" font-size="10.00">PatternBuilder</text>
</a>
</g>
</g>
<!-- Node2&#45;&gt;Node12 -->
<g id="edge20" class="edge">
<title>Node2&#45;&gt;Node12</title>
<path fill="none" stroke="#9a32cd" stroke-dasharray="5,2" d="M1211.49,-438.83C1221.87,-432.24 1234.67,-424.92 1247,-420 1281.4,-406.26 1322.62,-397.36 1352.81,-392.13"/>
<polygon fill="#9a32cd" stroke="#9a32cd" points="1209.5,-435.94 1203.06,-444.35 1213.34,-441.8 1209.5,-435.94"/>
<text text-anchor="middle" x="1291" y="-423" font-family="Helvetica,sans-Serif" font-size="10.00"> m_engine</text>
</g>
<!-- Node13 -->
<g id="node13" class="node">
<title>Node13</title>
<g id="a_node13"><a xlink:href="classVLSender.html" target="_top" xlink:title=" ">
<polygon fill="none" stroke="black" points="1365,-739.5 1365,-758.5 1427,-758.5 1427,-739.5 1365,-739.5"/>
<text text-anchor="middle" x="1396" y="-746.5" font-family="Helvetica,sans-Serif" font-size="10.00">VLSender</text>
</a>
</g>
</g>
<!-- Node2&#45;&gt;Node13 -->
<g id="edge22" class="edge">
<title>Node2&#45;&gt;Node13</title>
<path fill="none" stroke="#9a32cd" stroke-dasharray="5,2" d="M1191.24,-473.69C1196.44,-527.92 1213.58,-677.71 1247,-712 1249.09,-714.15 1322.21,-731.75 1364.87,-741.89"/>
<polygon fill="#9a32cd" stroke="#9a32cd" points="1194.72,-473.28 1190.31,-463.64 1187.75,-473.92 1194.72,-473.28"/>
<text text-anchor="middle" x="1291" y="-736" font-family="Helvetica,sans-Serif" font-size="10.00"> m_engine</text>
</g>
<!-- Node14 -->
<g id="node14" class="node">
<title>Node14</title>
<g id="a_node14"><a xlink:href="classModes.html" target="_top" xlink:title=" ">
<polygon fill="none" stroke="black" points="993,-424.5 993,-443.5 1042,-443.5 1042,-424.5 993,-424.5"/>
<text text-anchor="middle" x="1017.5" y="-431.5" font-family="Helvetica,sans-Serif" font-size="10.00">Modes</text>
</a>
</g>
</g>
<!-- Node2&#45;&gt;Node14 -->
<g id="edge26" class="edge">
<title>Node2&#45;&gt;Node14</title>
<path fill="none" stroke="#9a32cd" stroke-dasharray="5,2" d="M1163.67,-439.39C1153.66,-434.06 1141.64,-428.68 1130,-426 1100.31,-419.16 1065.1,-423.71 1042.31,-428.27"/>
<polygon fill="#9a32cd" stroke="#9a32cd" points="1162.16,-442.55 1172.59,-444.39 1165.58,-436.45 1162.16,-442.55"/>
<text text-anchor="middle" x="1104" y="-429" font-family="Helvetica,sans-Serif" font-size="10.00"> m_engine</text>
</g>
<!-- Node15 -->
<g id="node15" class="node">
<title>Node15</title>
<g id="a_node15"><a xlink:href="classModes_1_1ModeLink.html" target="_top" xlink:title=" ">
<polygon fill="none" stroke="black" points="749,-450.5 749,-469.5 851,-469.5 851,-450.5 749,-450.5"/>
<text text-anchor="middle" x="800" y="-457.5" font-family="Helvetica,sans-Serif" font-size="10.00">Modes::ModeLink</text>
</a>
</g>
</g>
<!-- Node2&#45;&gt;Node15 -->
<g id="edge31" class="edge">
<title>Node2&#45;&gt;Node15</title>
<path fill="none" stroke="#9a32cd" stroke-dasharray="5,2" d="M1137.78,-460.34C1135.15,-460.59 1132.54,-460.81 1130,-461 1014.31,-469.7 984.91,-471.1 869,-466 863.2,-465.74 857.13,-465.37 851.1,-464.92"/>
<polygon fill="#9a32cd" stroke="#9a32cd" points="1138.36,-463.8 1147.96,-459.3 1137.65,-456.84 1138.36,-463.8"/>
<text text-anchor="middle" x="1017.5" y="-471" font-family="Helvetica,sans-Serif" font-size="10.00"> m_engine</text>
</g>
<!-- Node2&#45;&gt;Node16 -->
<g id="edge29" class="edge">
<title>Node2&#45;&gt;Node16</title>
<path fill="none" stroke="#9a32cd" stroke-dasharray="5,2" d="M1181.25,-434.5C1160.64,-373.76 1088.53,-187.25 957,-108 894.16,-70.14 660.23,-69.81 588.23,-70.65"/>
<polygon fill="#9a32cd" stroke="#9a32cd" points="1178.04,-435.93 1184.5,-444.33 1184.68,-433.73 1178.04,-435.93"/>
<text text-anchor="middle" x="913" y="-111" font-family="Helvetica,sans-Serif" font-size="10.00"> m_engine</text>
</g>
<!-- Node17 -->
<g id="node17" class="node">
<title>Node17</title>
<g id="a_node17"><a xlink:href="classSerialComs.html" target="_top" xlink:title=" ">
<polygon fill="none" stroke="black" points="1360,-310.5 1360,-329.5 1432,-329.5 1432,-310.5 1360,-310.5"/>
<text text-anchor="middle" x="1396" y="-317.5" font-family="Helvetica,sans-Serif" font-size="10.00">SerialComs</text>
</a>
</g>
</g>
<!-- Node2&#45;&gt;Node17 -->
<g id="edge35" class="edge">
<title>Node2&#45;&gt;Node17</title>
<path fill="none" stroke="#9a32cd" stroke-dasharray="5,2" d="M1193.93,-434.6C1200.76,-409.41 1216.4,-366.07 1247,-344 1279.93,-320.24 1327.69,-316.53 1359.97,-317.25"/>
<polygon fill="#9a32cd" stroke="#9a32cd" points="1190.5,-433.91 1191.46,-444.46 1197.29,-435.61 1190.5,-433.91"/>
<text text-anchor="middle" x="1291" y="-347" font-family="Helvetica,sans-Serif" font-size="10.00"> m_engine</text>
</g>
<!-- Node18 -->
<g id="node18" class="node">
<title>Node18</title>
<g id="a_node18"><a xlink:href="classIRReceiver.html" target="_top" xlink:title=" ">
<polygon fill="none" stroke="black" points="1361.5,-656.5 1361.5,-675.5 1430.5,-675.5 1430.5,-656.5 1361.5,-656.5"/>
<text text-anchor="middle" x="1396" y="-663.5" font-family="Helvetica,sans-Serif" font-size="10.00">IRReceiver</text>
</a>
</g>
</g>
<!-- Node2&#45;&gt;Node18 -->
<g id="edge37" class="edge">
<title>Node2&#45;&gt;Node18</title>
<path fill="none" stroke="#9a32cd" stroke-dasharray="5,2" d="M1189.08,-473.88C1189.41,-513.03 1196.19,-600.13 1247,-644 1263.66,-658.39 1323.14,-663.37 1361.43,-665.09"/>
<polygon fill="#9a32cd" stroke="#9a32cd" points="1192.58,-473.79 1189.13,-463.77 1185.58,-473.75 1192.58,-473.79"/>
<text text-anchor="middle" x="1291" y="-666" font-family="Helvetica,sans-Serif" font-size="10.00"> m_engine</text>
</g>
<!-- Node19 -->
<g id="node19" class="node">
<title>Node19</title>
<g id="a_node19"><a xlink:href="classTime.html" target="_top" xlink:title=" ">
<polygon fill="none" stroke="black" points="1375.5,-256.5 1375.5,-275.5 1416.5,-275.5 1416.5,-256.5 1375.5,-256.5"/>
<text text-anchor="middle" x="1396" y="-263.5" font-family="Helvetica,sans-Serif" font-size="10.00">Time</text>
</a>
</g>
</g>
<!-- Node2&#45;&gt;Node19 -->
<g id="edge40" class="edge">
<title>Node2&#45;&gt;Node19</title>
<path fill="none" stroke="#9a32cd" stroke-dasharray="5,2" d="M1189.06,-434.11C1189.42,-395.77 1196.3,-311.96 1247,-273 1284.53,-244.16 1344.57,-253.16 1375.37,-260.51"/>
<polygon fill="#9a32cd" stroke="#9a32cd" points="1185.56,-434.47 1189.12,-444.45 1192.56,-434.44 1185.56,-434.47"/>
<text text-anchor="middle" x="1291" y="-276" font-family="Helvetica,sans-Serif" font-size="10.00"> m_engine</text>
</g>
<!-- Node20 -->
<g id="node20" class="node">
<title>Node20</title>
<g id="a_node20"><a xlink:href="classMenus.html" target="_top" xlink:title=" ">
<polygon fill="none" stroke="black" points="1545.5,-170.5 1545.5,-189.5 1594.5,-189.5 1594.5,-170.5 1545.5,-170.5"/>
<text text-anchor="middle" x="1570" y="-177.5" font-family="Helvetica,sans-Serif" font-size="10.00">Menus</text>
</a>
</g>
</g>
<!-- Node2&#45;&gt;Node20 -->
<g id="edge42" class="edge">
<title>Node2&#45;&gt;Node20</title>
<path fill="none" stroke="#9a32cd" stroke-dasharray="5,2" d="M1191.34,-434.2C1196.6,-382.33 1213.5,-244.48 1247,-216 1258.8,-205.97 1509.83,-198.11 1525,-195 1531.64,-193.64 1538.66,-191.56 1545.1,-189.37"/>
<polygon fill="#9a32cd" stroke="#9a32cd" points="1187.83,-434.12 1190.35,-444.41 1194.8,-434.8 1187.83,-434.12"/>
<text text-anchor="middle" x="1396" y="-207" font-family="Helvetica,sans-Serif" font-size="10.00"> m_engine</text>
</g>
<!-- Node21 -->
<g id="node21" class="node">
<title>Node21</title>
<g id="a_node21"><a xlink:href="classMenu.html" target="_top" xlink:title=" ">
<polygon fill="none" stroke="black" points="1374,-170.5 1374,-189.5 1418,-189.5 1418,-170.5 1374,-170.5"/>
<text text-anchor="middle" x="1396" y="-177.5" font-family="Helvetica,sans-Serif" font-size="10.00">Menu</text>
</a>
</g>
</g>
<!-- Node2&#45;&gt;Node21 -->
<g id="edge46" class="edge">
<title>Node2&#45;&gt;Node21</title>
<path fill="none" stroke="#9a32cd" stroke-dasharray="5,2" d="M1190.46,-434.17C1193.73,-376.02 1206.57,-207.95 1247,-175 1283.17,-145.52 1342.45,-160.36 1373.88,-171.49"/>
<polygon fill="#9a32cd" stroke="#9a32cd" points="1186.96,-434.09 1189.93,-444.26 1193.95,-434.46 1186.96,-434.09"/>
<text text-anchor="middle" x="1291" y="-178" font-family="Helvetica,sans-Serif" font-size="10.00"> m_engine</text>
</g>
<!-- Node3&#45;&gt;Node2 -->
<g id="edge2" class="edge">
<title>Node3&#45;&gt;Node2</title>
<path fill="none" stroke="#9a32cd" stroke-dasharray="5,2" d="M1370.96,-855C1360.25,-848.78 1347.3,-841.9 1335,-837 1297.45,-822.03 1274.16,-843.94 1247,-814 1198.41,-760.44 1190.75,-515.68 1189.67,-463.72"/>
<polygon fill="#9a32cd" stroke="#9a32cd" points="1369.34,-858.11 1379.73,-860.22 1372.93,-852.09 1369.34,-858.11"/>
<text text-anchor="middle" x="1291" y="-840" font-family="Helvetica,sans-Serif" font-size="10.00"> m_vlReceiver</text>
</g>
<!-- Node4 -->
<g id="node4" class="node">
<title>Node4</title>
<g id="a_node4"><a xlink:href="classBitStream.html" target="_top" xlink:title=" ">
<polygon fill="none" stroke="black" points="1156,-995.5 1156,-1014.5 1221,-1014.5 1221,-995.5 1156,-995.5"/>
<text text-anchor="middle" x="1188.5" y="-1002.5" font-family="Helvetica,sans-Serif" font-size="10.00">BitStream</text>
</a>
</g>
</g>
<!-- Node4&#45;&gt;Node3 -->
<g id="edge4" class="edge">
<title>Node4&#45;&gt;Node3</title>
<path fill="none" stroke="#9a32cd" stroke-dasharray="5,2" d="M1212.93,-1019.66C1243.69,-1036.81 1298.07,-1059.81 1335,-1034 1387.68,-997.18 1394.26,-908.87 1394.96,-879.61"/>
<polygon fill="#9a32cd" stroke="#9a32cd" points="1214.6,-1016.58 1204.2,-1014.58 1211.08,-1022.63 1214.6,-1016.58"/>
<text text-anchor="middle" x="1291" y="-1048" font-family="Helvetica,sans-Serif" font-size="10.00"> m_vlData</text>
</g>
<!-- Node4&#45;&gt;Node6 -->
<g id="edge9" class="edge">
<title>Node4&#45;&gt;Node6</title>
<path fill="none" stroke="#9a32cd" stroke-dasharray="5,2" d="M1231.23,-1016.7C1263.66,-1023.04 1307.61,-1025.13 1335,-1000 1359.57,-977.45 1336.86,-880.18 1353,-851 1358.63,-840.82 1368.66,-832.53 1377.51,-826.68"/>
<polygon fill="#9a32cd" stroke="#9a32cd" points="1231.65,-1013.21 1221.14,-1014.53 1230.17,-1020.06 1231.65,-1013.21"/>
<text text-anchor="middle" x="1291" y="-1023" font-family="Helvetica,sans-Serif" font-size="10.00"> m_bitStream</text>
</g>
<!-- Node4&#45;&gt;Node13 -->
<g id="edge23" class="edge">
<title>Node4&#45;&gt;Node13</title>
<path fill="none" stroke="#9a32cd" stroke-dasharray="5,2" d="M1228.25,-992.47C1234.5,-990.56 1240.91,-988.68 1247,-987 1285.77,-976.32 1308.44,-996.19 1335,-966 1359.8,-937.81 1338.11,-832.47 1353,-798 1359.84,-782.16 1373.65,-767.65 1383.57,-758.59"/>
<polygon fill="#9a32cd" stroke="#9a32cd" points="1227.15,-989.15 1218.64,-995.45 1229.22,-995.83 1227.15,-989.15"/>
<text text-anchor="middle" x="1291" y="-990" font-family="Helvetica,sans-Serif" font-size="10.00"> m_bitStream</text>
</g>
<!-- Node4&#45;&gt;Node18 -->
<g id="edge38" class="edge">
<title>Node4&#45;&gt;Node18</title>
<path fill="none" stroke="#9a32cd" stroke-dasharray="5,2" d="M1207.32,-988.23C1218.52,-977.86 1233.38,-964.4 1247,-953 1284.91,-921.29 1310.69,-928.03 1335,-885 1369.11,-824.62 1329.34,-795.19 1353,-730 1360.71,-708.76 1376.7,-687.51 1386.57,-675.63"/>
<polygon fill="#9a32cd" stroke="#9a32cd" points="1204.81,-985.79 1199.88,-995.17 1209.58,-990.91 1204.81,-985.79"/>
<text text-anchor="middle" x="1291" y="-956" font-family="Helvetica,sans-Serif" font-size="10.00"> m_irData</text>
</g>
<!-- Node5&#45;&gt;Node2 -->
<g id="edge5" class="edge">
<title>Node5&#45;&gt;Node2</title>
<path fill="none" stroke="#9a32cd" stroke-dasharray="5,2" d="M1359.09,-572.3C1351.18,-569.81 1342.82,-567.26 1335,-565 1296.16,-553.78 1279.81,-565.61 1247,-542 1218.41,-521.42 1200.25,-481.86 1193.04,-463.63"/>
<polygon fill="#9a32cd" stroke="#9a32cd" points="1358.21,-575.69 1368.8,-575.38 1360.33,-569.02 1358.21,-575.69"/>
<text text-anchor="middle" x="1291" y="-568" font-family="Helvetica,sans-Serif" font-size="10.00"> m_storage</text>
</g>
<!-- Node6&#45;&gt;Node2 -->
<g id="edge7" class="edge">
<title>Node6&#45;&gt;Node2</title>
<path fill="none" stroke="#9a32cd" stroke-dasharray="5,2" d="M1378.29,-800.42C1366.94,-790.02 1351.12,-777.09 1335,-769 1298.87,-750.87 1274.7,-775.45 1247,-746 1207.09,-703.57 1192.87,-509.32 1190.05,-463.64"/>
<polygon fill="#9a32cd" stroke="#9a32cd" points="1376.04,-803.11 1385.71,-807.45 1380.85,-798.03 1376.04,-803.11"/>
<text text-anchor="middle" x="1291" y="-772" font-family="Helvetica,sans-Serif" font-size="10.00"> m_irSender</text>
</g>
<!-- Node7 -->
<g id="node7" class="node">
<title>Node7</title>
<g id="a_node7"><a xlink:href="classByteStream.html" target="_top" xlink:title=" ">
<polygon fill="none" stroke="black" points="529,-864.5 529,-883.5 603,-883.5 603,-864.5 529,-864.5"/>
<text text-anchor="middle" x="566" y="-871.5" font-family="Helvetica,sans-Serif" font-size="10.00">ByteStream</text>
</a>
</g>
</g>
<!-- Node7&#45;&gt;Node6 -->
<g id="edge10" class="edge">
<title>Node7&#45;&gt;Node6</title>
<path fill="none" stroke="#9a32cd" stroke-dasharray="5,2" d="M604.94,-886.54C650.5,-900.47 729.46,-921 799,-921 799,-921 799,-921 1189.5,-921 1254.47,-921 1284.4,-947.74 1335,-907 1355.36,-890.6 1338.22,-872.57 1353,-851 1359.79,-841.09 1370.29,-832.59 1379.09,-826.57"/>
<polygon fill="#9a32cd" stroke="#9a32cd" points="605.79,-883.14 595.2,-883.51 603.71,-889.83 605.79,-883.14"/>
<text text-anchor="middle" x="1017.5" y="-924" font-family="Helvetica,sans-Serif" font-size="10.00"> m_serialBuf</text>
</g>
<!-- Node7&#45;&gt;Node13 -->
<g id="edge24" class="edge">
<title>Node7&#45;&gt;Node13</title>
<path fill="none" stroke="#9a32cd" stroke-dasharray="5,2" d="M613.26,-875.27C777.13,-879.67 1320.91,-893.39 1335,-882 1364.69,-858 1336.05,-832.21 1353,-798 1360.66,-782.54 1374.3,-767.95 1383.96,-758.77"/>
<polygon fill="#9a32cd" stroke="#9a32cd" points="613.12,-871.77 603.03,-874.99 612.93,-878.76 613.12,-871.77"/>
<text text-anchor="middle" x="1017.5" y="-887" font-family="Helvetica,sans-Serif" font-size="10.00"> m_serialBuf</text>
</g>
<!-- Node7&#45;&gt;Node15 -->
<g id="edge32" class="edge">
<title>Node7&#45;&gt;Node15</title>
<path fill="none" stroke="#9a32cd" stroke-dasharray="5,2" d="M577.51,-855.24C618.1,-782.81 763.83,-522.76 793.65,-469.55"/>
<polygon fill="#9a32cd" stroke="#9a32cd" points="574.34,-853.74 572.51,-864.17 580.45,-857.16 574.34,-853.74"/>
<text text-anchor="middle" x="676" y="-776" font-family="Helvetica,sans-Serif" font-size="10.00"> m_storedMode</text>
</g>
<!-- Node8 -->
<g id="node8" class="node">
<title>Node8</title>
<g id="a_node8"><a xlink:href="structByteStream_1_1RawBuffer.html" target="_top" xlink:title=" ">
<polygon fill="none" stroke="black" points="303,-864.5 303,-883.5 434,-883.5 434,-864.5 303,-864.5"/>
<text text-anchor="middle" x="368.5" y="-871.5" font-family="Helvetica,sans-Serif" font-size="10.00">ByteStream::RawBuffer</text>
</a>
</g>
</g>
<!-- Node8&#45;&gt;Node7 -->
<g id="edge11" class="edge">
<title>Node8&#45;&gt;Node7</title>
<path fill="none" stroke="#9a32cd" stroke-dasharray="5,2" d="M444.17,-874C473.16,-874 505.01,-874 528.74,-874"/>
<polygon fill="#9a32cd" stroke="#9a32cd" points="444.06,-870.5 434.06,-874 444.06,-877.5 444.06,-870.5"/>
<text text-anchor="middle" x="481.5" y="-877" font-family="Helvetica,sans-Serif" font-size="10.00"> m_pData</text>
</g>
<!-- Node9&#45;&gt;Node2 -->
<g id="edge13" class="edge">
<title>Node9&#45;&gt;Node2</title>
<path fill="none" stroke="#9a32cd" stroke-dasharray="5,2" d="M1568.87,-465.3C1568.08,-404.25 1562.55,-219.75 1525,-176 1498.99,-145.7 1478.5,-155.84 1439,-150 1396.78,-143.76 1279.26,-127.05 1247,-155 1201.86,-194.12 1191.61,-397.2 1189.82,-444.26"/>
<polygon fill="#9a32cd" stroke="#9a32cd" points="1565.37,-465.53 1568.97,-475.49 1572.37,-465.46 1565.37,-465.53"/>
<text text-anchor="middle" x="1396" y="-153" font-family="Helvetica,sans-Serif" font-size="10.00"> m_buttons</text>
</g>
<!-- Node10&#45;&gt;Node9 -->
<g id="edge15" class="edge">
<title>Node10&#45;&gt;Node9</title>
<path fill="none" stroke="#9a32cd" stroke-dasharray="5,2" d="M1430.61,-485C1463.49,-485 1512.89,-485 1542.92,-485"/>
<polygon fill="#9a32cd" stroke="#9a32cd" points="1430.56,-481.5 1420.56,-485 1430.56,-488.5 1430.56,-481.5"/>
<text text-anchor="middle" x="1491" y="-488" font-family="Helvetica,sans-Serif" font-size="10.00"> m_buttons</text>
</g>
<!-- Node11&#45;&gt;Node2 -->
<g id="edge17" class="edge">
<title>Node11&#45;&gt;Node2</title>
<path fill="none" stroke="#9a32cd" stroke-dasharray="5,2" d="M1366.04,-439.83C1336.1,-436.23 1288.07,-432.39 1247,-438 1237.35,-439.32 1227.03,-441.82 1217.84,-444.47"/>
<polygon fill="#9a32cd" stroke="#9a32cd" points="1365.85,-443.34 1376.21,-441.14 1366.73,-436.39 1365.85,-443.34"/>
<text text-anchor="middle" x="1291" y="-441" font-family="Helvetica,sans-Serif" font-size="10.00"> m_leds</text>
</g>
<!-- Node12&#45;&gt;Node2 -->
<g id="edge19" class="edge">
<title>Node12&#45;&gt;Node2</title>
<path fill="none" stroke="#9a32cd" stroke-dasharray="5,2" d="M1363.96,-372.93C1332.62,-361.87 1283.72,-350.64 1247,-370 1216.67,-385.99 1199.29,-425.99 1192.65,-444.42"/>
<polygon fill="#9a32cd" stroke="#9a32cd" points="1362.89,-376.26 1373.49,-376.47 1365.34,-369.7 1362.89,-376.26"/>
<text text-anchor="middle" x="1291" y="-373" font-family="Helvetica,sans-Serif" font-size="10.00"> m_patternBuilder</text>
</g>
<!-- Node13&#45;&gt;Node2 -->
<g id="edge21" class="edge">
<title>Node13&#45;&gt;Node2</title>
<path fill="none" stroke="#9a32cd" stroke-dasharray="5,2" d="M1378.29,-732.42C1366.94,-722.02 1351.12,-709.09 1335,-701 1298.87,-682.87 1275.52,-706.65 1247,-678 1215.7,-646.56 1195.59,-502.47 1190.68,-463.65"/>
<polygon fill="#9a32cd" stroke="#9a32cd" points="1376.04,-735.11 1385.71,-739.45 1380.85,-730.03 1376.04,-735.11"/>
<text text-anchor="middle" x="1291" y="-704" font-family="Helvetica,sans-Serif" font-size="10.00"> m_vlSender</text>
</g>
<!-- Node14&#45;&gt;Node2 -->
<g id="edge25" class="edge">
<title>Node14&#45;&gt;Node2</title>
<path fill="none" stroke="#9a32cd" stroke-dasharray="5,2" d="M1052.31,-438C1079.85,-441.26 1118.8,-445.87 1147.82,-449.3"/>
<polygon fill="#9a32cd" stroke="#9a32cd" points="1052.7,-434.52 1042.36,-436.82 1051.87,-441.47 1052.7,-434.52"/>
<text text-anchor="middle" x="1104" y="-449" font-family="Helvetica,sans-Serif" font-size="10.00"> m_modes</text>
</g>
<!-- Node15&#45;&gt;Node14 -->
<g id="edge27" class="edge">
<title>Node15&#45;&gt;Node14</title>
<path fill="none" stroke="#9a32cd" stroke-dasharray="5,2" d="M846.71,-448.17C854.12,-446.56 861.74,-445.09 869,-444 912.4,-437.47 963.63,-435.2 992.87,-434.41"/>
<polygon fill="#9a32cd" stroke="#9a32cd" points="845.76,-444.8 836.78,-450.42 847.31,-451.62 845.76,-444.8"/>
<text text-anchor="middle" x="913" y="-458" font-family="Helvetica,sans-Serif" font-size="10.00"> m_pCurModeLink</text>
<text text-anchor="middle" x="913" y="-447" font-family="Helvetica,sans-Serif" font-size="10.00">m_storedModes</text>
</g>
<!-- Node15&#45;&gt;Node15 -->
<g id="edge33" class="edge">
<title>Node15&#45;&gt;Node15</title>
<path fill="none" stroke="#9a32cd" stroke-dasharray="5,2" d="M779.26,-479.4C780.65,-484.31 787.56,-488 800,-488 819.91,-488 825.66,-478.57 817.26,-469.76"/>
<polygon fill="#9a32cd" stroke="#9a32cd" points="782.64,-480.35 782.74,-469.76 776.05,-477.98 782.64,-480.35"/>
<text text-anchor="middle" x="800" y="-502" font-family="Helvetica,sans-Serif" font-size="10.00"> m_next</text>
<text text-anchor="middle" x="800" y="-491" font-family="Helvetica,sans-Serif" font-size="10.00">m_prev</text>
</g>
<!-- Node16&#45;&gt;Node15 -->
<g id="edge28" class="edge">
<title>Node16&#45;&gt;Node15</title>
<path fill="none" stroke="#9a32cd" stroke-dasharray="5,2" d="M598.06,-77.33C645.45,-87 730.41,-104.4 731,-105 781.31,-156.08 795.98,-398.8 798.56,-450.36"/>
<polygon fill="#9a32cd" stroke="#9a32cd" points="598.51,-73.85 588.01,-75.28 597.11,-80.71 598.51,-73.85"/>
<text text-anchor="middle" x="676" y="-108" font-family="Helvetica,sans-Serif" font-size="10.00"> m_pInstantiatedMode</text>
</g>
<!-- Node16&#45;&gt;Node21 -->
<g id="edge44" class="edge">
<title>Node16&#45;&gt;Node21</title>
<path fill="none" stroke="#9a32cd" stroke-dasharray="5,2" d="M597.9,-65.54C642.26,-58.18 726.62,-46 799,-46 799,-46 799,-46 1189.5,-46 1255.62,-46 1288.44,-30.06 1335,-77 1363.11,-105.34 1326.83,-134.85 1353,-165 1358.28,-171.08 1366.2,-174.7 1373.74,-176.85"/>
<polygon fill="#9a32cd" stroke="#9a32cd" points="597.31,-62.09 588.03,-67.2 598.47,-68.99 597.31,-62.09"/>
<text text-anchor="middle" x="1017.5" y="-49" font-family="Helvetica,sans-Serif" font-size="10.00"> m_previewMode</text>
</g>
<!-- Node17&#45;&gt;Node2 -->
<g id="edge34" class="edge">
<title>Node17&#45;&gt;Node2</title>
<path fill="none" stroke="#9a32cd" stroke-dasharray="5,2" d="M1367.04,-306.24C1335.12,-292.7 1282.7,-277.33 1247,-302 1198.25,-335.68 1190.79,-416.39 1189.68,-444.3"/>
<polygon fill="#9a32cd" stroke="#9a32cd" points="1365.69,-309.47 1376.25,-310.33 1368.54,-303.07 1365.69,-309.47"/>
<text text-anchor="middle" x="1291" y="-305" font-family="Helvetica,sans-Serif" font-size="10.00"> m_serial</text>
</g>
<!-- Node18&#45;&gt;Node2 -->
<g id="edge36" class="edge">
<title>Node18&#45;&gt;Node2</title>
<path fill="none" stroke="#9a32cd" stroke-dasharray="5,2" d="M1370.94,-651.06C1360.22,-644.86 1347.27,-637.97 1335,-633 1297.42,-617.79 1276.91,-636.36 1247,-609 1202.74,-568.51 1192.42,-490.82 1190.13,-463.66"/>
<polygon fill="#9a32cd" stroke="#9a32cd" points="1369.32,-654.17 1379.71,-656.27 1372.9,-648.15 1369.32,-654.17"/>
<text text-anchor="middle" x="1291" y="-636" font-family="Helvetica,sans-Serif" font-size="10.00"> m_irReceiver</text>
</g>
<!-- Node19&#45;&gt;Node2 -->
<g id="edge39" class="edge">
<title>Node19&#45;&gt;Node2</title>
<path fill="none" stroke="#9a32cd" stroke-dasharray="5,2" d="M1370.36,-251.3C1357.23,-243.78 1342.3,-235.83 1335,-234 1297.06,-224.51 1277.96,-210.1 1247,-234 1212.47,-260.66 1194.71,-405.25 1190.49,-444.28"/>
<polygon fill="#9a32cd" stroke="#9a32cd" points="1368.65,-254.35 1379.05,-256.35 1372.17,-248.3 1368.65,-254.35"/>
<text text-anchor="middle" x="1291" y="-237" font-family="Helvetica,sans-Serif" font-size="10.00"> m_time</text>
</g>
<!-- Node20&#45;&gt;Node2 -->
<g id="edge41" class="edge">
<title>Node20&#45;&gt;Node2</title>
<path fill="none" stroke="#9a32cd" stroke-dasharray="5,2" d="M1550.56,-163.61C1543.06,-157.66 1534.04,-151.33 1525,-147 1413.48,-93.54 1338.05,-51.31 1247,-135 1199.97,-178.22 1191.14,-395.61 1189.74,-444.31"/>
<polygon fill="#9a32cd" stroke="#9a32cd" points="1548.65,-166.58 1558.57,-170.3 1553.13,-161.2 1548.65,-166.58"/>
<text text-anchor="middle" x="1396" y="-109" font-family="Helvetica,sans-Serif" font-size="10.00"> m_menus</text>
</g>
<!-- Node21&#45;&gt;Node20 -->
<g id="edge43" class="edge">
<title>Node21&#45;&gt;Node20</title>
<path fill="none" stroke="#9a32cd" stroke-dasharray="5,2" d="M1428.3,-180C1461.99,-180 1514.82,-180 1545.25,-180"/>
<polygon fill="#9a32cd" stroke="#9a32cd" points="1428.09,-176.5 1418.09,-180 1428.09,-183.5 1428.09,-176.5"/>
<text text-anchor="middle" x="1491" y="-183" font-family="Helvetica,sans-Serif" font-size="10.00"> m_pCurMenu</text>
</g>
<!-- Node22 -->
<g id="node22" class="node">
<title>Node22</title>
<g id="a_node22"><a xlink:href="classRGBColor.html" target="_top" xlink:title=" ">
<polygon fill="none" stroke="black" points="0,-109.5 0,-128.5 63,-128.5 63,-109.5 0,-109.5"/>
<text text-anchor="middle" x="31.5" y="-116.5" font-family="Helvetica,sans-Serif" font-size="10.00">RGBColor</text>
</a>
</g>
</g>
<!-- Node22&#45;&gt;Node21 -->
<g id="edge45" class="edge">
<title>Node22&#45;&gt;Node21</title>
<path fill="none" stroke="#9a32cd" stroke-dasharray="5,2" d="M72.95,-127.07C102.37,-132.25 143.24,-138 179.5,-138 179.5,-138 179.5,-138 567,-138 737.7,-138 1172.12,-101.94 1335,-153 1344.17,-155.88 1344.41,-160.68 1353,-165 1359.5,-168.27 1366.89,-171.16 1373.64,-173.51"/>
<polygon fill="#9a32cd" stroke="#9a32cd" points="73.5,-123.61 63.04,-125.27 72.26,-130.5 73.5,-123.61"/>
<text text-anchor="middle" x="676" y="-140" font-family="Helvetica,sans-Serif" font-size="10.00"> m_menuColor</text>
</g>
<!-- Node23 -->
<g id="node23" class="node">
<title>Node23</title>
<g id="a_node23"><a xlink:href="classColorset.html" target="_top" xlink:title=" ">
<polygon fill="none" stroke="black" points="152,-83.5 152,-102.5 209,-102.5 209,-83.5 152,-83.5"/>
<text text-anchor="middle" x="180.5" y="-90.5" font-family="Helvetica,sans-Serif" font-size="10.00">Colorset</text>
</a>
</g>
</g>
<!-- Node22&#45;&gt;Node23 -->
<g id="edge48" class="edge">
<title>Node22&#45;&gt;Node23</title>
<path fill="none" stroke="#9a32cd" stroke-dasharray="5,2" d="M73.24,-111.79C98.22,-107.38 129.55,-101.83 151.7,-97.92"/>
<polygon fill="#9a32cd" stroke="#9a32cd" points="72.55,-108.36 63.32,-113.55 73.77,-115.25 72.55,-108.36"/>
<text text-anchor="middle" x="107.5" y="-112" font-family="Helvetica,sans-Serif" font-size="10.00"> m_palette</text>
</g>
<!-- Node23&#45;&gt;Node1 -->
<g id="edge47" class="edge">
<title>Node23&#45;&gt;Node1</title>
<path fill="none" stroke="#9a32cd" stroke-dasharray="5,2" d="M219.7,-88.48C256.55,-84.12 311.25,-77.65 342.74,-73.93"/>
<polygon fill="#9a32cd" stroke="#9a32cd" points="218.87,-85.06 209.35,-89.71 219.69,-92.01 218.87,-85.06"/>
<text text-anchor="middle" x="256" y="-90" font-family="Helvetica,sans-Serif" font-size="10.00"> m_colorset</text>
</g>
</g>
</svg>
