<?xml version="1.0" encoding="UTF-8" standalone="no"?>
<!DOCTYPE svg PUBLIC "-//W3C//DTD SVG 1.1//EN"
 "http://www.w3.org/Graphics/SVG/1.1/DTD/svg11.dtd">
<!-- Generated by graphviz version 2.43.0 (0)
 -->
<!-- Title: Button Pages: 1 -->
<!--zoomable 1084 -->
<svg id="main" version="1.1" xmlns="http://www.w3.org/2000/svg" xmlns:xlink="http://www.w3.org/1999/xlink" xml:space="preserve" onload="init(evt)">
<style type="text/css"><![CDATA[
.edge:hover path { stroke: red; }
.edge:hover polygon { stroke: red; fill: red; }
]]></style>
<script type="text/javascript"><![CDATA[
var edges = document.getElementsByTagName('g');
if (edges && edges.length) {
  for (var i=0;i<edges.length;i++) {
    if (edges[i].id.substr(0,4)=='edge') {
      edges[i].setAttribute('class','edge');
    }
  }
}
]]></script>
        <defs>
                <circle id="rim" cx="0" cy="0" r="7"/>
                <circle id="rim2" cx="0" cy="0" r="3.5"/>
                <g id="zoomPlus">
                        <use xlink:href="#rim" fill="#404040">
                                <set attributeName="fill" to="#808080" begin="zoomplus.mouseover" end="zoomplus.mouseout"/>
                        </use>
                        <path d="M-4,0h8M0,-4v8" fill="none" stroke="white" stroke-width="1.5" pointer-events="none"/>
                </g>
                <g id="zoomMin">
                        <use xlink:href="#rim" fill="#404040">
                                <set attributeName="fill" to="#808080" begin="zoomminus.mouseover" end="zoomminus.mouseout"/>
                        </use>
                        <path d="M-4,0h8" fill="none" stroke="white" stroke-width="1.5" pointer-events="none"/>
                </g>
                <g id="dirArrow">
                        <path fill="none" stroke="white" stroke-width="1.5" d="M0,-3.0v7 M-2.5,-0.5L0,-3.0L2.5,-0.5"/>
                </g>
               <g id="resetDef">
                       <use xlink:href="#rim2" fill="#404040">
                               <set attributeName="fill" to="#808080" begin="reset.mouseover" end="reset.mouseout"/>
                       </use>
               </g>
        </defs>

<script type="text/javascript">
var viewWidth = 1246;
var viewHeight = 1084;
var sectionId = 'dynsection-0';
</script>
<script xlink:href="svgpan.js"/>
<svg id="graph" class="graph">
<g id="viewport">
<title>Button</title>
<!-- Node1 -->
<g id="node1" class="node">
<title>Node1</title>
<g id="a_node1"><a xlink:title=" ">
<polygon fill="#bfbfbf" stroke="black" points="0,-464.86 0,-483.86 49,-483.86 49,-464.86 0,-464.86"/>
<text text-anchor="middle" x="24.5" y="-471.86" font-family="Helvetica,sans-Serif" font-size="10.00">Button</text>
</a>
</g>
</g>
<!-- Node9 -->
<g id="node9" class="node">
<title>Node9</title>
<g id="a_node9"><a xlink:href="classButtons.html" target="_top" xlink:title=" ">
<polygon fill="none" stroke="black" points="178.5,-431.86 178.5,-450.86 232.5,-450.86 232.5,-431.86 178.5,-431.86"/>
<text text-anchor="middle" x="205.5" y="-438.86" font-family="Helvetica,sans-Serif" font-size="10.00">Buttons</text>
</a>
</g>
</g>
<!-- Node1&#45;&gt;Node9 -->
<g id="edge15" class="edge">
<title>Node1&#45;&gt;Node9</title>
<path fill="none" stroke="#9a32cd" stroke-dasharray="5,2" d="M58.87,-464.31C61.61,-463.61 64.34,-462.95 67,-462.36 105.44,-453.91 150.68,-447.71 178.47,-444.32"/>
<polygon fill="#9a32cd" stroke="#9a32cd" points="57.8,-460.97 49.07,-466.97 59.63,-467.73 57.8,-460.97"/>
<text text-anchor="middle" x="94.5" y="-465.36" font-family="Helvetica,sans-Serif" font-size="10.00"> m_buttons</text>
</g>
<!-- Node2 -->
<g id="node2" class="node">
<title>Node2</title>
<g id="a_node2"><a xlink:href="classVortexEngine.html" target="_top" xlink:title=" ">
<polygon fill="none" stroke="black" points="362,-451.86 362,-470.86 443,-470.86 443,-451.86 362,-451.86"/>
<text text-anchor="middle" x="402.5" y="-458.86" font-family="Helvetica,sans-Serif" font-size="10.00">VortexEngine</text>
</a>
</g>
</g>
<!-- Node2&#45;&gt;Node1 -->
<g id="edge1" class="edge">
<title>Node2&#45;&gt;Node1</title>
<path fill="none" stroke="#9a32cd" stroke-dasharray="5,2" d="M351.8,-469.59C349.17,-469.89 346.55,-470.15 344,-470.36 245.68,-478.68 220.67,-472.19 122,-473.36 97.21,-473.66 68.83,-473.95 49.29,-474.14"/>
<polygon fill="#9a32cd" stroke="#9a32cd" points="352.52,-473.03 362,-468.3 351.64,-466.08 352.52,-473.03"/>
<text text-anchor="middle" x="205.5" y="-477.36" font-family="Helvetica,sans-Serif" font-size="10.00"> m_engine</text>
</g>
<!-- Node2&#45;&gt;Node2 -->
<g id="edge12" class="edge">
<title>Node2&#45;&gt;Node2</title>
<path fill="none" stroke="#9a32cd" stroke-dasharray="5,2" d="M386.57,-480.76C387.64,-485.68 392.95,-489.36 402.5,-489.36 417.79,-489.36 422.2,-479.93 415.76,-471.12"/>
<polygon fill="#9a32cd" stroke="#9a32cd" points="389.95,-481.69 389.24,-471.12 383.2,-479.82 389.95,-481.69"/>
<text text-anchor="middle" x="402.5" y="-492.36" font-family="Helvetica,sans-Serif" font-size="10.00"> m_engine</text>
</g>
<!-- Node3 -->
<g id="node3" class="node">
<title>Node3</title>
<g id="a_node3"><a xlink:href="classVLReceiver.html" target="_top" xlink:title=" ">
<polygon fill="none" stroke="black" points="574.5,-325.86 574.5,-344.86 645.5,-344.86 645.5,-325.86 574.5,-325.86"/>
<text text-anchor="middle" x="610" y="-332.86" font-family="Helvetica,sans-Serif" font-size="10.00">VLReceiver</text>
</a>
</g>
</g>
<!-- Node2&#45;&gt;Node3 -->
<g id="edge3" class="edge">
<title>Node2&#45;&gt;Node3</title>
<path fill="none" stroke="#9a32cd" stroke-dasharray="5,2" d="M410.26,-442.28C418.75,-421.13 435.41,-387.59 461,-369.36 470.21,-362.8 533.5,-349.77 574.28,-341.89"/>
<polygon fill="#9a32cd" stroke="#9a32cd" points="406.92,-441.22 406.64,-451.81 413.46,-443.7 406.92,-441.22"/>
<text text-anchor="middle" x="505" y="-372.36" font-family="Helvetica,sans-Serif" font-size="10.00"> m_engine</text>
</g>
<!-- Node5 -->
<g id="node5" class="node">
<title>Node5</title>
<g id="a_node5"><a xlink:href="classStorage.html" target="_top" xlink:title=" ">
<polygon fill="none" stroke="black" points="583,-272.86 583,-291.86 637,-291.86 637,-272.86 583,-272.86"/>
<text text-anchor="middle" x="610" y="-279.86" font-family="Helvetica,sans-Serif" font-size="10.00">Storage</text>
</a>
</g>
</g>
<!-- Node2&#45;&gt;Node5 -->
<g id="edge6" class="edge">
<title>Node2&#45;&gt;Node5</title>
<path fill="none" stroke="#9a32cd" stroke-dasharray="5,2" d="M402.56,-441.64C401.86,-401.7 406.73,-311.64 461,-271.36 498.35,-243.65 556.6,-260.48 587.72,-272.83"/>
<polygon fill="#9a32cd" stroke="#9a32cd" points="399.06,-441.82 402.87,-451.7 406.06,-441.6 399.06,-441.82"/>
<text text-anchor="middle" x="505" y="-274.36" font-family="Helvetica,sans-Serif" font-size="10.00"> m_engine</text>
</g>
<!-- Node6 -->
<g id="node6" class="node">
<title>Node6</title>
<g id="a_node6"><a xlink:href="classIRSender.html" target="_top" xlink:title=" ">
<polygon fill="none" stroke="black" points="580,-1001.86 580,-1020.86 640,-1020.86 640,-1001.86 580,-1001.86"/>
<text text-anchor="middle" x="610" y="-1008.86" font-family="Helvetica,sans-Serif" font-size="10.00">IRSender</text>
</a>
</g>
</g>
<!-- Node2&#45;&gt;Node6 -->
<g id="edge8" class="edge">
<title>Node2&#45;&gt;Node6</title>
<path fill="none" stroke="#9a32cd" stroke-dasharray="5,2" d="M406.28,-481.22C413.11,-530.46 431.05,-662.16 443,-772.36 445.41,-794.55 446.4,-955.49 461,-972.36 487.31,-1002.77 510.17,-982.92 549,-993.36 559.08,-996.08 570.04,-999.29 579.8,-1002.24"/>
<polygon fill="#9a32cd" stroke="#9a32cd" points="409.7,-480.44 404.86,-471.02 402.77,-481.41 409.7,-480.44"/>
<text text-anchor="middle" x="505" y="-996.36" font-family="Helvetica,sans-Serif" font-size="10.00"> m_engine</text>
</g>
<!-- Node2&#45;&gt;Node9 -->
<g id="edge14" class="edge">
<title>Node2&#45;&gt;Node9</title>
<path fill="none" stroke="#9a32cd" stroke-dasharray="5,2" d="M377.19,-447.05C367.25,-441.98 355.42,-436.91 344,-434.36 305.97,-425.88 260.63,-431.04 232.7,-435.9"/>
<polygon fill="#9a32cd" stroke="#9a32cd" points="375.6,-450.17 386.06,-451.83 378.92,-444.01 375.6,-450.17"/>
<text text-anchor="middle" x="316.5" y="-437.36" font-family="Helvetica,sans-Serif" font-size="10.00"> m_engine</text>
</g>
<!-- Node10 -->
<g id="node10" class="node">
<title>Node10</title>
<g id="a_node10"><a xlink:href="classLeds.html" target="_top" xlink:title=" ">
<polygon fill="none" stroke="black" points="590.5,-87.86 590.5,-106.86 629.5,-106.86 629.5,-87.86 590.5,-87.86"/>
<text text-anchor="middle" x="610" y="-94.86" font-family="Helvetica,sans-Serif" font-size="10.00">Leds</text>
</a>
</g>
</g>
<!-- Node2&#45;&gt;Node10 -->
<g id="edge17" class="edge">
<title>Node2&#45;&gt;Node10</title>
<path fill="none" stroke="#9a32cd" stroke-dasharray="5,2" d="M403.12,-441.66C402.14,-368.16 403,-111.63 461,-61.36 500.77,-26.9 568.14,-67.77 596.17,-87.68"/>
<polygon fill="#9a32cd" stroke="#9a32cd" points="399.62,-441.88 403.28,-451.82 406.62,-441.77 399.62,-441.88"/>
<text text-anchor="middle" x="505" y="-64.36" font-family="Helvetica,sans-Serif" font-size="10.00"> m_engine</text>
</g>
<!-- Node11 -->
<g id="node11" class="node">
<title>Node11</title>
<g id="a_node11"><a xlink:href="classPatternBuilder.html" target="_top" xlink:title=" ">
<polygon fill="none" stroke="black" points="567,-494.86 567,-513.86 653,-513.86 653,-494.86 567,-494.86"/>
<text text-anchor="middle" x="610" y="-501.86" font-family="Helvetica,sans-Serif" font-size="10.00">PatternBuilder</text>
</a>
</g>
</g>
<!-- Node2&#45;&gt;Node11 -->
<g id="edge19" class="edge">
<title>Node2&#45;&gt;Node11</title>
<path fill="none" stroke="#9a32cd" stroke-dasharray="5,2" d="M453.18,-462.39C481.66,-463.99 517.83,-467.75 549,-476.36 564.4,-480.62 580.77,-488.51 592.51,-494.83"/>
<polygon fill="#9a32cd" stroke="#9a32cd" points="453.22,-458.89 443.06,-461.9 452.88,-465.88 453.22,-458.89"/>
<text text-anchor="middle" x="505" y="-479.36" font-family="Helvetica,sans-Serif" font-size="10.00"> m_engine</text>
</g>
<!-- Node12 -->
<g id="node12" class="node">
<title>Node12</title>
<g id="a_node12"><a xlink:href="classVLSender.html" target="_top" xlink:title=" ">
<polygon fill="none" stroke="black" points="579,-840.86 579,-859.86 641,-859.86 641,-840.86 579,-840.86"/>
<text text-anchor="middle" x="610" y="-847.86" font-family="Helvetica,sans-Serif" font-size="10.00">VLSender</text>
</a>
</g>
</g>
<!-- Node2&#45;&gt;Node12 -->
<g id="edge21" class="edge">
<title>Node2&#45;&gt;Node12</title>
<path fill="none" stroke="#9a32cd" stroke-dasharray="5,2" d="M405.47,-481.17C412.66,-551.57 438.19,-786.87 461,-811.36 488.4,-840.79 510.17,-821.92 549,-832.36 558.77,-834.99 569.36,-838.09 578.88,-840.96"/>
<polygon fill="#9a32cd" stroke="#9a32cd" points="408.93,-480.6 404.45,-471.01 401.97,-481.31 408.93,-480.6"/>
<text text-anchor="middle" x="505" y="-835.36" font-family="Helvetica,sans-Serif" font-size="10.00"> m_engine</text>
</g>
<!-- Node13 -->
<g id="node13" class="node">
<title>Node13</title>
<g id="a_node13"><a xlink:href="classModes.html" target="_top" xlink:title=" ">
<polygon fill="none" stroke="black" points="1189,-770.86 1189,-789.86 1238,-789.86 1238,-770.86 1189,-770.86"/>
<text text-anchor="middle" x="1213.5" y="-777.86" font-family="Helvetica,sans-Serif" font-size="10.00">Modes</text>
</a>
</g>
</g>
<!-- Node2&#45;&gt;Node13 -->
<g id="edge25" class="edge">
<title>Node2&#45;&gt;Node13</title>
<path fill="none" stroke="#9a32cd" stroke-dasharray="5,2" d="M404.84,-481.2C409.04,-537.19 423.98,-694.49 461,-727.36 510.41,-771.23 542.93,-741.36 609,-741.36 609,-741.36 609,-741.36 1015,-741.36 1078.78,-741.36 1152,-761.18 1188.78,-772.56"/>
<polygon fill="#9a32cd" stroke="#9a32cd" points="408.32,-480.87 404.12,-471.15 401.34,-481.37 408.32,-480.87"/>
<text text-anchor="middle" x="791" y="-744.36" font-family="Helvetica,sans-Serif" font-size="10.00"> m_engine</text>
</g>
<!-- Node14 -->
<g id="node14" class="node">
<title>Node14</title>
<g id="a_node14"><a xlink:href="classModes_1_1ModeLink.html" target="_top" xlink:title=" ">
<polygon fill="none" stroke="black" points="963,-770.86 963,-789.86 1065,-789.86 1065,-770.86 963,-770.86"/>
<text text-anchor="middle" x="1014" y="-777.86" font-family="Helvetica,sans-Serif" font-size="10.00">Modes::ModeLink</text>
</a>
</g>
</g>
<!-- Node2&#45;&gt;Node14 -->
<g id="edge33" class="edge">
<title>Node2&#45;&gt;Node14</title>
<path fill="none" stroke="#9a32cd" stroke-dasharray="5,2" d="M404.36,-481.16C407.39,-540.78 419.75,-716.67 461,-752.36 498.42,-784.73 833.84,-783.12 962.8,-781.27"/>
<polygon fill="#9a32cd" stroke="#9a32cd" points="407.86,-480.98 403.88,-471.15 400.86,-481.31 407.86,-480.98"/>
<text text-anchor="middle" x="709" y="-783.36" font-family="Helvetica,sans-Serif" font-size="10.00"> m_engine</text>
</g>
<!-- Node15 -->
<g id="node15" class="node">
<title>Node15</title>
<g id="a_node15"><a xlink:href="classMode.html" target="_top" xlink:title=" ">
<polygon fill="none" stroke="black" points="769,-402.86 769,-421.86 813,-421.86 813,-402.86 769,-402.86"/>
<text text-anchor="middle" x="791" y="-409.86" font-family="Helvetica,sans-Serif" font-size="10.00">Mode</text>
</a>
</g>
</g>
<!-- Node2&#45;&gt;Node15 -->
<g id="edge28" class="edge">
<title>Node2&#45;&gt;Node15</title>
<path fill="none" stroke="#9a32cd" stroke-dasharray="5,2" d="M427.84,-446.9C437.79,-441.7 449.61,-436.37 461,-433.36 573.88,-403.52 715.78,-407.9 768.76,-410.92"/>
<polygon fill="#9a32cd" stroke="#9a32cd" points="426.05,-443.9 418.96,-451.77 429.41,-450.03 426.05,-443.9"/>
<text text-anchor="middle" x="610" y="-417.36" font-family="Helvetica,sans-Serif" font-size="10.00"> m_engine</text>
</g>
<!-- Node16 -->
<g id="node16" class="node">
<title>Node16</title>
<g id="a_node16"><a xlink:href="classPattern.html" target="_top" xlink:title=" ">
<polygon fill="none" stroke="black" points="584.5,-154.86 584.5,-173.86 635.5,-173.86 635.5,-154.86 584.5,-154.86"/>
<text text-anchor="middle" x="610" y="-161.86" font-family="Helvetica,sans-Serif" font-size="10.00">Pattern</text>
</a>
</g>
</g>
<!-- Node2&#45;&gt;Node16 -->
<g id="edge30" class="edge">
<title>Node2&#45;&gt;Node16</title>
<path fill="none" stroke="#9a32cd" stroke-dasharray="5,2" d="M404.34,-441.55C407.33,-381.88 419.57,-205.84 461,-170.36 495.28,-141.01 552.12,-149.08 584.47,-157.06"/>
<polygon fill="#9a32cd" stroke="#9a32cd" points="400.85,-441.41 403.88,-451.56 407.84,-441.74 400.85,-441.41"/>
<text text-anchor="middle" x="505" y="-173.36" font-family="Helvetica,sans-Serif" font-size="10.00"> m_engine</text>
</g>
<!-- Node19 -->
<g id="node19" class="node">
<title>Node19</title>
<g id="a_node19"><a xlink:href="classSerialComs.html" target="_top" xlink:title=" ">
<polygon fill="none" stroke="black" points="574,-207.86 574,-226.86 646,-226.86 646,-207.86 574,-207.86"/>
<text text-anchor="middle" x="610" y="-214.86" font-family="Helvetica,sans-Serif" font-size="10.00">SerialComs</text>
</a>
</g>
</g>
<!-- Node2&#45;&gt;Node19 -->
<g id="edge37" class="edge">
<title>Node2&#45;&gt;Node19</title>
<path fill="none" stroke="#9a32cd" stroke-dasharray="5,2" d="M405.91,-441.6C412.27,-392.8 431.12,-268.53 461,-241.36 491.43,-213.69 540.67,-211.04 573.92,-213.06"/>
<polygon fill="#9a32cd" stroke="#9a32cd" points="402.4,-441.44 404.62,-451.8 409.35,-442.31 402.4,-441.44"/>
<text text-anchor="middle" x="505" y="-244.36" font-family="Helvetica,sans-Serif" font-size="10.00"> m_engine</text>
</g>
<!-- Node20 -->
<g id="node20" class="node">
<title>Node20</title>
<g id="a_node20"><a xlink:href="classIRReceiver.html" target="_top" xlink:title=" ">
<polygon fill="none" stroke="black" points="575.5,-671.86 575.5,-690.86 644.5,-690.86 644.5,-671.86 575.5,-671.86"/>
<text text-anchor="middle" x="610" y="-678.86" font-family="Helvetica,sans-Serif" font-size="10.00">IRReceiver</text>
</a>
</g>
</g>
<!-- Node2&#45;&gt;Node20 -->
<g id="edge39" class="edge">
<title>Node2&#45;&gt;Node20</title>
<path fill="none" stroke="#9a32cd" stroke-dasharray="5,2" d="M407.08,-481.06C413.18,-508.99 428.27,-559.86 461,-588.36 491.76,-615.15 514.53,-592.57 549,-614.36 573.02,-629.55 593.21,-657.01 602.88,-671.61"/>
<polygon fill="#9a32cd" stroke="#9a32cd" points="410.45,-480.05 405.04,-470.94 403.58,-481.43 410.45,-480.05"/>
<text text-anchor="middle" x="505" y="-617.36" font-family="Helvetica,sans-Serif" font-size="10.00"> m_engine</text>
</g>
<!-- Node21 -->
<g id="node21" class="node">
<title>Node21</title>
<g id="a_node21"><a xlink:href="classTime.html" target="_top" xlink:title=" ">
<polygon fill="none" stroke="black" points="589.5,-552.86 589.5,-571.86 630.5,-571.86 630.5,-552.86 589.5,-552.86"/>
<text text-anchor="middle" x="610" y="-559.86" font-family="Helvetica,sans-Serif" font-size="10.00">Time</text>
</a>
</g>
</g>
<!-- Node2&#45;&gt;Node21 -->
<g id="edge42" class="edge">
<title>Node2&#45;&gt;Node21</title>
<path fill="none" stroke="#9a32cd" stroke-dasharray="5,2" d="M408.85,-480.54C416.35,-503.36 432.39,-540.51 461,-557.36 501.31,-581.12 559.11,-573.62 589.16,-567.31"/>
<polygon fill="#9a32cd" stroke="#9a32cd" points="412.18,-479.45 405.91,-470.91 405.48,-481.49 412.18,-479.45"/>
<text text-anchor="middle" x="505" y="-576.36" font-family="Helvetica,sans-Serif" font-size="10.00"> m_engine</text>
</g>
<!-- Node22 -->
<g id="node22" class="node">
<title>Node22</title>
<g id="a_node22"><a xlink:href="classMenus.html" target="_top" xlink:title=" ">
<polygon fill="none" stroke="black" points="1189,-363.86 1189,-382.86 1238,-382.86 1238,-363.86 1189,-363.86"/>
<text text-anchor="middle" x="1213.5" y="-370.86" font-family="Helvetica,sans-Serif" font-size="10.00">Menus</text>
</a>
</g>
</g>
<!-- Node2&#45;&gt;Node22 -->
<g id="edge44" class="edge">
<title>Node2&#45;&gt;Node22</title>
<path fill="none" stroke="#9a32cd" stroke-dasharray="5,2" d="M404.79,-441.82C410.18,-363.13 431.92,-72.41 461,-44.36 508.58,1.54 542.89,-29.36 609,-29.36 609,-29.36 609,-29.36 1015,-29.36 1173.73,-29.36 1206.74,-308.25 1211.74,-363.8"/>
<polygon fill="#9a32cd" stroke="#9a32cd" points="401.3,-441.62 404.12,-451.83 408.28,-442.09 401.3,-441.62"/>
<text text-anchor="middle" x="791" y="-32.36" font-family="Helvetica,sans-Serif" font-size="10.00"> m_engine</text>
</g>
<!-- Node23 -->
<g id="node23" class="node">
<title>Node23</title>
<g id="a_node23"><a xlink:href="classMenu.html" target="_top" xlink:title=" ">
<polygon fill="none" stroke="black" points="992,-363.86 992,-382.86 1036,-382.86 1036,-363.86 992,-363.86"/>
<text text-anchor="middle" x="1014" y="-370.86" font-family="Helvetica,sans-Serif" font-size="10.00">Menu</text>
</a>
</g>
</g>
<!-- Node2&#45;&gt;Node23 -->
<g id="edge48" class="edge">
<title>Node2&#45;&gt;Node23</title>
<path fill="none" stroke="#9a32cd" stroke-dasharray="5,2" d="M418.61,-444.29C429.29,-433.45 444.58,-420.21 461,-413.36 653.43,-333.08 916.25,-360.16 991.87,-370.28"/>
<polygon fill="#9a32cd" stroke="#9a32cd" points="416,-441.95 411.7,-451.63 421.1,-446.75 416,-441.95"/>
<text text-anchor="middle" x="709" y="-367.36" font-family="Helvetica,sans-Serif" font-size="10.00"> m_engine</text>
</g>
<!-- Node3&#45;&gt;Node2 -->
<g id="edge2" class="edge">
<title>Node3&#45;&gt;Node2</title>
<path fill="none" stroke="#9a32cd" stroke-dasharray="5,2" d="M566.33,-323.81C534.75,-317.84 492.01,-315.43 461,-335.36 419.54,-362.02 407.61,-426.78 404.5,-451.53"/>
<polygon fill="#9a32cd" stroke="#9a32cd" points="565.66,-327.24 576.16,-325.85 567.08,-320.39 565.66,-327.24"/>
<text text-anchor="middle" x="505" y="-338.36" font-family="Helvetica,sans-Serif" font-size="10.00"> m_vlReceiver</text>
</g>
<!-- Node4 -->
<g id="node4" class="node">
<title>Node4</title>
<g id="a_node4"><a xlink:href="classBitStream.html" target="_top" xlink:title=" ">
<polygon fill="none" stroke="black" points="370,-781.86 370,-800.86 435,-800.86 435,-781.86 370,-781.86"/>
<text text-anchor="middle" x="402.5" y="-788.86" font-family="Helvetica,sans-Serif" font-size="10.00">BitStream</text>
</a>
</g>
</g>
<!-- Node4&#45;&gt;Node3 -->
<g id="edge4" class="edge">
<title>Node4&#45;&gt;Node3</title>
<path fill="none" stroke="#9a32cd" stroke-dasharray="5,2" d="M405.62,-771.33C410.06,-739.86 423.26,-679.05 461,-646.36 491.39,-620.04 522.86,-655.92 549,-625.36 582.04,-586.74 550.19,-445.33 567,-397.36 574.22,-376.75 590.05,-356.49 600.08,-345"/>
<polygon fill="#9a32cd" stroke="#9a32cd" points="402.12,-771.14 404.36,-781.49 409.07,-772 402.12,-771.14"/>
<text text-anchor="middle" x="505" y="-649.36" font-family="Helvetica,sans-Serif" font-size="10.00"> m_vlData</text>
</g>
<!-- Node4&#45;&gt;Node6 -->
<g id="edge9" class="edge">
<title>Node4&#45;&gt;Node6</title>
<path fill="none" stroke="#9a32cd" stroke-dasharray="5,2" d="M405.82,-811.24C411.93,-859.71 430.13,-981.82 461,-1006.36 494.61,-1033.08 547.35,-1027.07 579.96,-1019.66"/>
<polygon fill="#9a32cd" stroke="#9a32cd" points="409.27,-810.59 404.59,-801.09 402.32,-811.44 409.27,-810.59"/>
<text text-anchor="middle" x="505" y="-1028.36" font-family="Helvetica,sans-Serif" font-size="10.00"> m_bitStream</text>
</g>
<!-- Node4&#45;&gt;Node12 -->
<g id="edge22" class="edge">
<title>Node4&#45;&gt;Node12</title>
<path fill="none" stroke="#9a32cd" stroke-dasharray="5,2" d="M416.65,-809.25C427.09,-821.88 442.92,-837.85 461,-845.36 499.22,-861.25 547.91,-859.13 578.77,-855.37"/>
<polygon fill="#9a32cd" stroke="#9a32cd" points="419.24,-806.88 410.32,-801.18 413.74,-811.2 419.24,-806.88"/>
<text text-anchor="middle" x="505" y="-860.36" font-family="Helvetica,sans-Serif" font-size="10.00"> m_bitStream</text>
</g>
<!-- Node4&#45;&gt;Node20 -->
<g id="edge40" class="edge">
<title>Node4&#45;&gt;Node20</title>
<path fill="none" stroke="#9a32cd" stroke-dasharray="5,2" d="M430.32,-777C472.89,-754.22 554.8,-710.38 591.02,-690.99"/>
<polygon fill="#9a32cd" stroke="#9a32cd" points="428.54,-773.99 421.38,-781.79 431.85,-780.16 428.54,-773.99"/>
<text text-anchor="middle" x="505" y="-761.36" font-family="Helvetica,sans-Serif" font-size="10.00"> m_irData</text>
</g>
<!-- Node5&#45;&gt;Node2 -->
<g id="edge5" class="edge">
<title>Node5&#45;&gt;Node2</title>
<path fill="none" stroke="#9a32cd" stroke-dasharray="5,2" d="M572.48,-283.87C534.28,-286.15 477.6,-291.78 461,-305.36 414.09,-343.76 405.45,-424.13 403.86,-451.78"/>
<polygon fill="#9a32cd" stroke="#9a32cd" points="572.92,-287.35 582.71,-283.31 572.54,-280.36 572.92,-287.35"/>
<text text-anchor="middle" x="505" y="-308.36" font-family="Helvetica,sans-Serif" font-size="10.00"> m_storage</text>
</g>
<!-- Node6&#45;&gt;Node2 -->
<g id="edge7" class="edge">
<title>Node6&#45;&gt;Node2</title>
<path fill="none" stroke="#9a32cd" stroke-dasharray="5,2" d="M592.82,-994.46C581.49,-983.54 565.49,-969.85 549,-961.36 513.05,-942.87 487.4,-968.98 461,-938.36 436.77,-910.26 447.34,-809.21 443,-772.36 429,-653.45 409.89,-509.24 404.79,-471.03"/>
<polygon fill="#9a32cd" stroke="#9a32cd" points="590.62,-997.21 600.18,-1001.8 595.57,-992.26 590.62,-997.21"/>
<text text-anchor="middle" x="505" y="-964.36" font-family="Helvetica,sans-Serif" font-size="10.00"> m_irSender</text>
</g>
<!-- Node7 -->
<g id="node7" class="node">
<title>Node7</title>
<g id="a_node7"><a xlink:href="classByteStream.html" target="_top" xlink:title=" ">
<polygon fill="none" stroke="black" points="365.5,-1052.86 365.5,-1071.86 439.5,-1071.86 439.5,-1052.86 365.5,-1052.86"/>
<text text-anchor="middle" x="402.5" y="-1059.86" font-family="Helvetica,sans-Serif" font-size="10.00">ByteStream</text>
</a>
</g>
</g>
<!-- Node7&#45;&gt;Node6 -->
<g id="edge10" class="edge">
<title>Node7&#45;&gt;Node6</title>
<path fill="none" stroke="#9a32cd" stroke-dasharray="5,2" d="M450,-1058.91C478.96,-1055.89 516.72,-1050.35 549,-1040.36 564.47,-1035.57 580.97,-1027.35 592.74,-1020.88"/>
<polygon fill="#9a32cd" stroke="#9a32cd" points="449.36,-1055.46 439.75,-1059.92 450.04,-1062.43 449.36,-1055.46"/>
<text text-anchor="middle" x="505" y="-1060.36" font-family="Helvetica,sans-Serif" font-size="10.00"> m_serialBuf</text>
</g>
<!-- Node7&#45;&gt;Node12 -->
<g id="edge23" class="edge">
<title>Node7&#45;&gt;Node12</title>
<path fill="none" stroke="#9a32cd" stroke-dasharray="5,2" d="M407.45,-1042.67C414.06,-1014.14 429.83,-961.03 461,-927.36 479.35,-907.54 549.51,-875.74 586.26,-859.92"/>
<polygon fill="#9a32cd" stroke="#9a32cd" points="403.99,-1042.12 405.28,-1052.64 410.83,-1043.61 403.99,-1042.12"/>
<text text-anchor="middle" x="505" y="-930.36" font-family="Helvetica,sans-Serif" font-size="10.00"> m_serialBuf</text>
</g>
<!-- Node7&#45;&gt;Node14 -->
<g id="edge34" class="edge">
<title>Node7&#45;&gt;Node14</title>
<path fill="none" stroke="#9a32cd" stroke-dasharray="5,2" d="M449.87,-1071.63C478.64,-1075.89 516.24,-1078.73 549,-1072.36 597.93,-1062.86 612.2,-1059 653,-1030.36 714.05,-987.51 705.78,-950.72 765,-905.36 837.73,-849.67 939.11,-807.79 986.55,-789.9"/>
<polygon fill="#9a32cd" stroke="#9a32cd" points="450.12,-1068.13 439.7,-1070.02 449.02,-1075.04 450.12,-1068.13"/>
<text text-anchor="middle" x="709" y="-1018.36" font-family="Helvetica,sans-Serif" font-size="10.00"> m_storedMode</text>
</g>
<!-- Node8 -->
<g id="node8" class="node">
<title>Node8</title>
<g id="a_node8"><a xlink:href="structByteStream_1_1RawBuffer.html" target="_top" xlink:title=" ">
<polygon fill="none" stroke="black" points="140,-1052.86 140,-1071.86 271,-1071.86 271,-1052.86 140,-1052.86"/>
<text text-anchor="middle" x="205.5" y="-1059.86" font-family="Helvetica,sans-Serif" font-size="10.00">ByteStream::RawBuffer</text>
</a>
</g>
</g>
<!-- Node8&#45;&gt;Node7 -->
<g id="edge11" class="edge">
<title>Node8&#45;&gt;Node7</title>
<path fill="none" stroke="#9a32cd" stroke-dasharray="5,2" d="M281.24,-1062.36C310.12,-1062.36 341.83,-1062.36 365.43,-1062.36"/>
<polygon fill="#9a32cd" stroke="#9a32cd" points="281.16,-1058.86 271.16,-1062.36 281.16,-1065.86 281.16,-1058.86"/>
<text text-anchor="middle" x="316.5" y="-1065.36" font-family="Helvetica,sans-Serif" font-size="10.00"> m_pData</text>
</g>
<!-- Node9&#45;&gt;Node2 -->
<g id="edge13" class="edge">
<title>Node9&#45;&gt;Node2</title>
<path fill="none" stroke="#9a32cd" stroke-dasharray="5,2" d="M243.17,-445.12C276.98,-448.59 327.05,-453.73 361.79,-457.29"/>
<polygon fill="#9a32cd" stroke="#9a32cd" points="243.1,-441.6 232.8,-444.06 242.39,-448.56 243.1,-441.6"/>
<text text-anchor="middle" x="316.5" y="-458.36" font-family="Helvetica,sans-Serif" font-size="10.00"> m_buttons</text>
</g>
<!-- Node10&#45;&gt;Node2 -->
<g id="edge16" class="edge">
<title>Node10&#45;&gt;Node2</title>
<path fill="none" stroke="#9a32cd" stroke-dasharray="5,2" d="M580.59,-102.94C539.94,-111.17 469.17,-126.54 461,-135.36 416.68,-183.22 405.75,-402.53 403.84,-451.6"/>
<polygon fill="#9a32cd" stroke="#9a32cd" points="581.34,-106.36 590.45,-100.96 579.96,-99.49 581.34,-106.36"/>
<text text-anchor="middle" x="505" y="-138.36" font-family="Helvetica,sans-Serif" font-size="10.00"> m_leds</text>
</g>
<!-- Node11&#45;&gt;Node2 -->
<g id="edge18" class="edge">
<title>Node11&#45;&gt;Node2</title>
<path fill="none" stroke="#9a32cd" stroke-dasharray="5,2" d="M556.58,-503.53C527.88,-501.96 491.97,-498.17 461,-489.36 446.26,-485.17 430.7,-477.36 419.49,-471.05"/>
<polygon fill="#9a32cd" stroke="#9a32cd" points="556.64,-507.03 566.8,-504.01 556.97,-500.04 556.64,-507.03"/>
<text text-anchor="middle" x="505" y="-505.36" font-family="Helvetica,sans-Serif" font-size="10.00"> m_patternBuilder</text>
</g>
<!-- Node12&#45;&gt;Node2 -->
<g id="edge20" class="edge">
<title>Node12&#45;&gt;Node2</title>
<path fill="none" stroke="#9a32cd" stroke-dasharray="5,2" d="M592.82,-833.46C581.49,-822.54 565.49,-808.85 549,-800.36 513.05,-781.87 488.48,-807.01 461,-777.36 418.07,-731.05 406.09,-519.32 403.9,-471.14"/>
<polygon fill="#9a32cd" stroke="#9a32cd" points="590.62,-836.21 600.18,-840.8 595.57,-831.26 590.62,-836.21"/>
<text text-anchor="middle" x="505" y="-803.36" font-family="Helvetica,sans-Serif" font-size="10.00"> m_vlSender</text>
</g>
<!-- Node13&#45;&gt;Node2 -->
<g id="edge24" class="edge">
<title>Node13&#45;&gt;Node2</title>
<path fill="none" stroke="#9a32cd" stroke-dasharray="5,2" d="M1200.54,-798.41C1172.92,-837.67 1100.47,-927.36 1015,-927.36 609,-927.36 609,-927.36 609,-927.36 542.93,-927.36 508.47,-959.32 461,-913.36 461,-913.36 413.16,-537.32 404.75,-471.22"/>
<polygon fill="#9a32cd" stroke="#9a32cd" points="1203.53,-800.23 1206.3,-790.01 1197.76,-796.27 1203.53,-800.23"/>
<text text-anchor="middle" x="791" y="-930.36" font-family="Helvetica,sans-Serif" font-size="10.00"> m_modes</text>
</g>
<!-- Node14&#45;&gt;Node13 -->
<g id="edge26" class="edge">
<title>Node14&#45;&gt;Node13</title>
<path fill="none" stroke="#9a32cd" stroke-dasharray="5,2" d="M1075.11,-780.36C1113.39,-780.36 1160.86,-780.36 1188.8,-780.36"/>
<polygon fill="#9a32cd" stroke="#9a32cd" points="1075.09,-776.86 1065.09,-780.36 1075.09,-783.86 1075.09,-776.86"/>
<text text-anchor="middle" x="1127" y="-794.36" font-family="Helvetica,sans-Serif" font-size="10.00"> m_pCurModeLink</text>
<text text-anchor="middle" x="1127" y="-783.36" font-family="Helvetica,sans-Serif" font-size="10.00">m_storedModes</text>
</g>
<!-- Node14&#45;&gt;Node14 -->
<g id="edge35" class="edge">
<title>Node14&#45;&gt;Node14</title>
<path fill="none" stroke="#9a32cd" stroke-dasharray="5,2" d="M993.26,-799.76C994.65,-804.68 1001.56,-808.36 1014,-808.36 1033.91,-808.36 1039.66,-798.93 1031.26,-790.12"/>
<polygon fill="#9a32cd" stroke="#9a32cd" points="996.64,-800.71 996.74,-790.12 990.05,-798.34 996.64,-800.71"/>
<text text-anchor="middle" x="1014" y="-822.36" font-family="Helvetica,sans-Serif" font-size="10.00"> m_next</text>
<text text-anchor="middle" x="1014" y="-811.36" font-family="Helvetica,sans-Serif" font-size="10.00">m_prev</text>
</g>
<!-- Node15&#45;&gt;Node14 -->
<g id="edge27" class="edge">
<title>Node15&#45;&gt;Node14</title>
<path fill="none" stroke="#9a32cd" stroke-dasharray="5,2" d="M810.84,-429.28C813.02,-431.57 815.13,-433.96 817,-436.36 911.2,-557.28 990.01,-728.57 1008.77,-770.72"/>
<polygon fill="#9a32cd" stroke="#9a32cd" points="813,-426.5 803.4,-422.01 808.11,-431.5 813,-426.5"/>
<text text-anchor="middle" x="890" y="-637.36" font-family="Helvetica,sans-Serif" font-size="10.00"> m_pInstantiatedMode</text>
</g>
<!-- Node15&#45;&gt;Node23 -->
<g id="edge46" class="edge">
<title>Node15&#45;&gt;Node23</title>
<path fill="none" stroke="#9a32cd" stroke-dasharray="5,2" d="M823.52,-407.6C854.5,-402.83 903.09,-395.1 945,-387.36 960.76,-384.45 978.5,-380.79 991.91,-377.94"/>
<polygon fill="#9a32cd" stroke="#9a32cd" points="822.69,-404.19 813.33,-409.16 823.75,-411.11 822.69,-404.19"/>
<text text-anchor="middle" x="890" y="-408.36" font-family="Helvetica,sans-Serif" font-size="10.00"> m_previewMode</text>
</g>
<!-- Node16&#45;&gt;Node15 -->
<g id="edge29" class="edge">
<title>Node16&#45;&gt;Node15</title>
<path fill="none" stroke="#9a32cd" stroke-dasharray="5,2" d="M633.3,-180.34C640.01,-185.68 647.14,-191.92 653,-198.36 716.48,-268.24 769.56,-370.83 785.27,-402.61"/>
<polygon fill="#9a32cd" stroke="#9a32cd" points="635.23,-177.4 625.15,-174.12 630.98,-182.97 635.23,-177.4"/>
<text text-anchor="middle" x="709" y="-335.36" font-family="Helvetica,sans-Serif" font-size="10.00"> m_multiPat</text>
</g>
<!-- Node17 -->
<g id="node17" class="node">
<title>Node17</title>
<g id="a_node17"><a xlink:href="classColorset.html" target="_top" xlink:title=" ">
<polygon fill="none" stroke="black" points="374,-52.86 374,-71.86 431,-71.86 431,-52.86 374,-52.86"/>
<text text-anchor="middle" x="402.5" y="-59.86" font-family="Helvetica,sans-Serif" font-size="10.00">Colorset</text>
</a>
</g>
</g>
<!-- Node17&#45;&gt;Node16 -->
<g id="edge31" class="edge">
<title>Node17&#45;&gt;Node16</title>
<path fill="none" stroke="#9a32cd" stroke-dasharray="5,2" d="M441.01,-70.17C480.96,-78.68 539.71,-91.82 549,-97.36 552.25,-99.3 585.03,-136.78 600.72,-154.82"/>
<polygon fill="#9a32cd" stroke="#9a32cd" points="441.56,-66.71 431.05,-68.06 440.11,-73.56 441.56,-66.71"/>
<text text-anchor="middle" x="505" y="-100.36" font-family="Helvetica,sans-Serif" font-size="10.00"> m_colorset</text>
</g>
<!-- Node18 -->
<g id="node18" class="node">
<title>Node18</title>
<g id="a_node18"><a xlink:href="classRGBColor.html" target="_top" xlink:title=" ">
<polygon fill="none" stroke="black" points="174,-7.86 174,-26.86 237,-26.86 237,-7.86 174,-7.86"/>
<text text-anchor="middle" x="205.5" y="-14.86" font-family="Helvetica,sans-Serif" font-size="10.00">RGBColor</text>
</a>
</g>
</g>
<!-- Node18&#45;&gt;Node17 -->
<g id="edge32" class="edge">
<title>Node18&#45;&gt;Node17</title>
<path fill="none" stroke="#9a32cd" stroke-dasharray="5,2" d="M247.62,-26.85C285.6,-35.62 340.97,-48.39 373.9,-55.99"/>
<polygon fill="#9a32cd" stroke="#9a32cd" points="247.93,-23.33 237.4,-24.49 246.36,-30.15 247.93,-23.33"/>
<text text-anchor="middle" x="316.5" y="-52.36" font-family="Helvetica,sans-Serif" font-size="10.00"> m_palette</text>
</g>
<!-- Node18&#45;&gt;Node23 -->
<g id="edge47" class="edge">
<title>Node18&#45;&gt;Node23</title>
<path fill="none" stroke="#9a32cd" stroke-dasharray="5,2" d="M247.51,-10.98C312.49,-2.23 442.65,9.74 549,-15.36 775.27,-68.78 967.28,-312.06 1005.92,-363.71"/>
<polygon fill="#9a32cd" stroke="#9a32cd" points="246.7,-7.56 237.28,-12.4 247.67,-14.49 246.7,-7.56"/>
<text text-anchor="middle" x="610" y="-55.36" font-family="Helvetica,sans-Serif" font-size="10.00"> m_menuColor</text>
</g>
<!-- Node19&#45;&gt;Node2 -->
<g id="edge36" class="edge">
<title>Node19&#45;&gt;Node2</title>
<path fill="none" stroke="#9a32cd" stroke-dasharray="5,2" d="M581.94,-203.39C549.54,-188.85 495.36,-171.72 461,-199.36 420.36,-232.05 406.82,-408.13 404.07,-451.64"/>
<polygon fill="#9a32cd" stroke="#9a32cd" points="580.71,-206.68 591.25,-207.77 583.69,-200.35 580.71,-206.68"/>
<text text-anchor="middle" x="505" y="-202.36" font-family="Helvetica,sans-Serif" font-size="10.00"> m_serial</text>
</g>
<!-- Node20&#45;&gt;Node2 -->
<g id="edge38" class="edge">
<title>Node20&#45;&gt;Node2</title>
<path fill="none" stroke="#9a32cd" stroke-dasharray="5,2" d="M565.24,-686.53C532.71,-687.87 489.25,-684.03 461,-659.36 403.03,-608.74 401.88,-503.49 402.99,-471.08"/>
<polygon fill="#9a32cd" stroke="#9a32cd" points="565.6,-690.02 575.38,-685.94 565.19,-683.03 565.6,-690.02"/>
<text text-anchor="middle" x="505" y="-689.36" font-family="Helvetica,sans-Serif" font-size="10.00"> m_irReceiver</text>
</g>
<!-- Node21&#45;&gt;Node2 -->
<g id="edge41" class="edge">
<title>Node21&#45;&gt;Node2</title>
<path fill="none" stroke="#9a32cd" stroke-dasharray="5,2" d="M579.64,-554.24C539.53,-543.03 471.34,-523.47 461,-517.36 440.13,-505.03 421.06,-483.59 410.99,-471.12"/>
<polygon fill="#9a32cd" stroke="#9a32cd" points="578.85,-557.66 589.43,-556.97 580.73,-550.91 578.85,-557.66"/>
<text text-anchor="middle" x="505" y="-548.36" font-family="Helvetica,sans-Serif" font-size="10.00"> m_time</text>
</g>
<!-- Node22&#45;&gt;Node2 -->
<g id="edge43" class="edge">
<title>Node22&#45;&gt;Node2</title>
<path fill="none" stroke="#9a32cd" stroke-dasharray="5,2" d="M1191.53,-389.18C1156.78,-413.77 1084.22,-458.36 1015,-458.36 708,-458.36 708,-458.36 708,-458.36 598.22,-458.36 570.74,-455.5 461,-458.36 455.2,-458.51 449.08,-458.75 443.08,-459.03"/>
<polygon fill="#9a32cd" stroke="#9a32cd" points="1193.86,-391.81 1199.91,-383.11 1189.76,-386.14 1193.86,-391.81"/>
<text text-anchor="middle" x="791" y="-461.36" font-family="Helvetica,sans-Serif" font-size="10.00"> m_menus</text>
</g>
<!-- Node23&#45;&gt;Node22 -->
<g id="edge45" class="edge">
<title>Node23&#45;&gt;Node22</title>
<path fill="none" stroke="#9a32cd" stroke-dasharray="5,2" d="M1046.28,-373.36C1085.86,-373.36 1153.16,-373.36 1188.77,-373.36"/>
<polygon fill="#9a32cd" stroke="#9a32cd" points="1046.14,-369.86 1036.14,-373.36 1046.14,-376.86 1046.14,-369.86"/>
<text text-anchor="middle" x="1127" y="-376.36" font-family="Helvetica,sans-Serif" font-size="10.00"> m_pCurMenu</text>
</g>
</g>
</svg>
        <g id="navigator" transform="translate(0 0)" fill="#404254">
                <rect fill="#f2f5e9" fill-opacity="0.5" stroke="#606060" stroke-width=".5" x="0" y="0" width="60" height="60"/>
                <use id="zoomplus" xlink:href="#zoomPlus" x="17" y="9" onmousedown="handleZoom(evt,'in')"/>
                <use id="zoomminus" xlink:href="#zoomMin" x="42" y="9" onmousedown="handleZoom(evt,'out')"/>
                <use id="reset" xlink:href="#resetDef" x="30" y="36" onmousedown="handleReset()"/>
                <g id="arrowUp" xlink:href="#dirArrow" transform="translate(30 24)" onmousedown="handlePan(0,-1)">
                  <use xlink:href="#rim" fill="#404040">
                        <set attributeName="fill" to="#808080" begin="arrowUp.mouseover" end="arrowUp.mouseout"/>
                  </use>
                  <path fill="none" stroke="white" stroke-width="1.5" d="M0,-3.0v7 M-2.5,-0.5L0,-3.0L2.5,-0.5"/>
                </g>
                <g id="arrowRight" xlink:href="#dirArrow" transform="rotate(90) translate(36 -43)" onmousedown="handlePan(1,0)">
                  <use xlink:href="#rim" fill="#404040">
                        <set attributeName="fill" to="#808080" begin="arrowRight.mouseover" end="arrowRight.mouseout"/>
                  </use>
                  <path fill="none" stroke="white" stroke-width="1.5" d="M0,-3.0v7 M-2.5,-0.5L0,-3.0L2.5,-0.5"/>
                </g>
                <g id="arrowDown" xlink:href="#dirArrow" transform="rotate(180) translate(-30 -48)" onmousedown="handlePan(0,1)">
                  <use xlink:href="#rim" fill="#404040">
                        <set attributeName="fill" to="#808080" begin="arrowDown.mouseover" end="arrowDown.mouseout"/>
                  </use>
                  <path fill="none" stroke="white" stroke-width="1.5" d="M0,-3.0v7 M-2.5,-0.5L0,-3.0L2.5,-0.5"/>
                </g>
                <g id="arrowLeft" xlink:href="#dirArrow" transform="rotate(270) translate(-36 17)" onmousedown="handlePan(-1,0)">
                  <use xlink:href="#rim" fill="#404040">
                        <set attributeName="fill" to="#808080" begin="arrowLeft.mouseover" end="arrowLeft.mouseout"/>
                  </use>
                  <path fill="none" stroke="white" stroke-width="1.5" d="M0,-3.0v7 M-2.5,-0.5L0,-3.0L2.5,-0.5"/>
                </g>
        </g>
        <svg viewBox="0 0 15 15" width="100%" height="30px" preserveAspectRatio="xMaxYMin meet">
         <g id="arrow_out" transform="scale(0.3 0.3)">
          <a xlink:href="classButton__coll__graph_org.svg" target="_base">
           <rect id="button" ry="5" rx="5" y="6" x="6" height="38" width="38"
                fill="#f2f5e9" fill-opacity="0.5" stroke="#606060" stroke-width="1.0"/>
           <path id="arrow"
             d="M 11.500037,31.436501 C 11.940474,20.09759 22.043105,11.32322 32.158766,21.979434 L 37.068811,17.246167 C 37.068811,17.246167 37.088388,32 37.088388,32 L 22.160133,31.978069 C 22.160133,31.978069 26.997745,27.140456 26.997745,27.140456 C 18.528582,18.264221 13.291696,25.230495 11.500037,31.436501 z"
             style="fill:#404040;"/>
          </a>
         </g>
        </svg>
</svg>
