<?xml version="1.0" encoding="UTF-8" standalone="no"?>
<!DOCTYPE svg PUBLIC "-//W3C//DTD SVG 1.1//EN"
 "http://www.w3.org/Graphics/SVG/1.1/DTD/svg11.dtd">
<!-- Generated by graphviz version 2.43.0 (0)
 -->
<!-- Title: ChaserPattern Pages: 1 -->
<!--zoomable 1213 -->
<svg id="main" version="1.1" xmlns="http://www.w3.org/2000/svg" xmlns:xlink="http://www.w3.org/1999/xlink" xml:space="preserve" onload="init(evt)">
<style type="text/css"><![CDATA[
.edge:hover path { stroke: red; }
.edge:hover polygon { stroke: red; fill: red; }
]]></style>
<script type="text/javascript"><![CDATA[
var edges = document.getElementsByTagName('g');
if (edges && edges.length) {
  for (var i=0;i<edges.length;i++) {
    if (edges[i].id.substr(0,4)=='edge') {
      edges[i].setAttribute('class','edge');
    }
  }
}
]]></script>
        <defs>
                <circle id="rim" cx="0" cy="0" r="7"/>
                <circle id="rim2" cx="0" cy="0" r="3.5"/>
                <g id="zoomPlus">
                        <use xlink:href="#rim" fill="#404040">
                                <set attributeName="fill" to="#808080" begin="zoomplus.mouseover" end="zoomplus.mouseout"/>
                        </use>
                        <path d="M-4,0h8M0,-4v8" fill="none" stroke="white" stroke-width="1.5" pointer-events="none"/>
                </g>
                <g id="zoomMin">
                        <use xlink:href="#rim" fill="#404040">
                                <set attributeName="fill" to="#808080" begin="zoomminus.mouseover" end="zoomminus.mouseout"/>
                        </use>
                        <path d="M-4,0h8" fill="none" stroke="white" stroke-width="1.5" pointer-events="none"/>
                </g>
                <g id="dirArrow">
                        <path fill="none" stroke="white" stroke-width="1.5" d="M0,-3.0v7 M-2.5,-0.5L0,-3.0L2.5,-0.5"/>
                </g>
               <g id="resetDef">
                       <use xlink:href="#rim2" fill="#404040">
                               <set attributeName="fill" to="#808080" begin="reset.mouseover" end="reset.mouseout"/>
                       </use>
               </g>
        </defs>

<script type="text/javascript">
var viewWidth = 1812;
var viewHeight = 1213;
var sectionId = 'dynsection-1';
</script>
<script xlink:href="svgpan.js"/>
<svg id="graph" class="graph">
<g id="viewport">
<title>ChaserPattern</title>
<!-- Node1 -->
<g id="node1" class="node">
<title>Node1</title>
<g id="a_node1"><a xlink:title=" ">
<polygon fill="#bfbfbf" stroke="black" points="1719,-245.5 1719,-264.5 1804,-264.5 1804,-245.5 1719,-245.5"/>
<text text-anchor="middle" x="1761.5" y="-252.5" font-family="Helvetica,sans-Serif" font-size="10.00">ChaserPattern</text>
</a>
</g>
</g>
<!-- Node2 -->
<g id="node2" class="node">
<title>Node2</title>
<g id="a_node2"><a xlink:href="classSequencedPattern.html" target="_top" xlink:title=" ">
<polygon fill="none" stroke="black" points="1578,-245.5 1578,-264.5 1682,-264.5 1682,-245.5 1578,-245.5"/>
<text text-anchor="middle" x="1630" y="-252.5" font-family="Helvetica,sans-Serif" font-size="10.00">SequencedPattern</text>
</a>
</g>
</g>
<!-- Node2&#45;&gt;Node1 -->
<g id="edge1" class="edge">
<title>Node2&#45;&gt;Node1</title>
<path fill="none" stroke="midnightblue" d="M1692.27,-255C1701.27,-255 1710.36,-255 1718.85,-255"/>
<polygon fill="midnightblue" stroke="midnightblue" points="1692.18,-251.5 1682.18,-255 1692.18,-258.5 1692.18,-251.5"/>
</g>
<!-- Node3 -->
<g id="node3" class="node">
<title>Node3</title>
<g id="a_node3"><a xlink:href="classCompoundPattern.html" target="_top" xlink:title=" ">
<polygon fill="none" stroke="black" points="888,-114.5 888,-133.5 992,-133.5 992,-114.5 888,-114.5"/>
<text text-anchor="middle" x="940" y="-121.5" font-family="Helvetica,sans-Serif" font-size="10.00">CompoundPattern</text>
</a>
</g>
</g>
<!-- Node3&#45;&gt;Node2 -->
<g id="edge2" class="edge">
<title>Node3&#45;&gt;Node2</title>
<path fill="none" stroke="midnightblue" d="M1002.14,-123.53C1041.03,-123.27 1092.48,-123 1138,-123 1138,-123 1138,-123 1432,-123 1492.01,-123 1511.08,-131.24 1560,-166 1590.76,-187.85 1614.36,-227.34 1624.11,-245.45"/>
<polygon fill="midnightblue" stroke="midnightblue" points="1002,-120.03 992.02,-123.6 1002.05,-127.03 1002,-120.03"/>
</g>
<!-- Node4 -->
<g id="node4" class="node">
<title>Node4</title>
<g id="a_node4"><a xlink:href="classMultiLedPattern.html" target="_top" xlink:title=" ">
<polygon fill="none" stroke="black" points="529,-113.5 529,-132.5 622,-132.5 622,-113.5 529,-113.5"/>
<text text-anchor="middle" x="575.5" y="-120.5" font-family="Helvetica,sans-Serif" font-size="10.00">MultiLedPattern</text>
</a>
</g>
</g>
<!-- Node4&#45;&gt;Node3 -->
<g id="edge3" class="edge">
<title>Node4&#45;&gt;Node3</title>
<path fill="none" stroke="midnightblue" d="M632.38,-123.15C702.11,-123.35 820.35,-123.67 887.81,-123.86"/>
<polygon fill="midnightblue" stroke="midnightblue" points="632.05,-119.65 622.04,-123.13 632.03,-126.65 632.05,-119.65"/>
</g>
<!-- Node5 -->
<g id="node5" class="node">
<title>Node5</title>
<g id="a_node5"><a xlink:href="classPattern.html" target="_top" xlink:title=" ">
<polygon fill="none" stroke="black" points="343,-93.5 343,-112.5 394,-112.5 394,-93.5 343,-93.5"/>
<text text-anchor="middle" x="368.5" y="-100.5" font-family="Helvetica,sans-Serif" font-size="10.00">Pattern</text>
</a>
</g>
</g>
<!-- Node5&#45;&gt;Node4 -->
<g id="edge4" class="edge">
<title>Node5&#45;&gt;Node4</title>
<path fill="none" stroke="midnightblue" d="M404.23,-106.39C438.48,-109.73 491.02,-114.86 528.68,-118.53"/>
<polygon fill="midnightblue" stroke="midnightblue" points="404.52,-102.9 394.23,-105.41 403.84,-109.87 404.52,-102.9"/>
</g>
<!-- Node20 -->
<g id="node20" class="node">
<title>Node20</title>
<g id="a_node20"><a xlink:href="classMode.html" target="_top" xlink:title=" ">
<polygon fill="none" stroke="black" points="553.5,-67.5 553.5,-86.5 597.5,-86.5 597.5,-67.5 553.5,-67.5"/>
<text text-anchor="middle" x="575.5" y="-74.5" font-family="Helvetica,sans-Serif" font-size="10.00">Mode</text>
</a>
</g>
</g>
<!-- Node5&#45;&gt;Node20 -->
<g id="edge34" class="edge">
<title>Node5&#45;&gt;Node20</title>
<path fill="none" stroke="#9a32cd" stroke-dasharray="5,2" d="M404.18,-98.6C446.9,-93.18 518.14,-84.15 553.4,-79.68"/>
<polygon fill="#9a32cd" stroke="#9a32cd" points="403.71,-95.13 394.23,-99.86 404.59,-102.08 403.71,-95.13"/>
<text text-anchor="middle" x="481.5" y="-95" font-family="Helvetica,sans-Serif" font-size="10.00"> m_multiPat</text>
</g>
<!-- Node6 -->
<g id="node6" class="node">
<title>Node6</title>
<g id="a_node6"><a xlink:href="classVortexEngine.html" target="_top" xlink:title=" ">
<polygon fill="none" stroke="black" points="1183,-559.5 1183,-578.5 1264,-578.5 1264,-559.5 1183,-559.5"/>
<text text-anchor="middle" x="1223.5" y="-566.5" font-family="Helvetica,sans-Serif" font-size="10.00">VortexEngine</text>
</a>
</g>
</g>
<!-- Node6&#45;&gt;Node5 -->
<g id="edge5" class="edge">
<title>Node6&#45;&gt;Node5</title>
<path fill="none" stroke="#9a32cd" stroke-dasharray="5,2" d="M1221.01,-549.07C1212.97,-448.34 1170.59,0 1053.5,0 574.5,0 574.5,0 574.5,0 491.65,0 408.1,-68 379.68,-93.49"/>
<polygon fill="#9a32cd" stroke="#9a32cd" points="1217.53,-549.42 1221.79,-559.12 1224.51,-548.88 1217.53,-549.42"/>
<text text-anchor="middle" x="819" y="-3" font-family="Helvetica,sans-Serif" font-size="10.00"> m_engine</text>
</g>
<!-- Node6&#45;&gt;Node6 -->
<g id="edge16" class="edge">
<title>Node6&#45;&gt;Node6</title>
<path fill="none" stroke="#9a32cd" stroke-dasharray="5,2" d="M1208.03,-588.77C1209.25,-593.5 1214.4,-597 1223.5,-597 1238.43,-597 1242.75,-587.57 1236.45,-578.76"/>
<polygon fill="#9a32cd" stroke="#9a32cd" points="1211.5,-589.31 1210.55,-578.76 1204.72,-587.6 1211.5,-589.31"/>
<text text-anchor="middle" x="1223.5" y="-600" font-family="Helvetica,sans-Serif" font-size="10.00"> m_engine</text>
</g>
<!-- Node7 -->
<g id="node7" class="node">
<title>Node7</title>
<g id="a_node7"><a xlink:href="classVLReceiver.html" target="_top" xlink:title=" ">
<polygon fill="none" stroke="black" points="1395.5,-1009.5 1395.5,-1028.5 1466.5,-1028.5 1466.5,-1009.5 1395.5,-1009.5"/>
<text text-anchor="middle" x="1431" y="-1016.5" font-family="Helvetica,sans-Serif" font-size="10.00">VLReceiver</text>
</a>
</g>
</g>
<!-- Node6&#45;&gt;Node7 -->
<g id="edge7" class="edge">
<title>Node6&#45;&gt;Node7</title>
<path fill="none" stroke="#9a32cd" stroke-dasharray="5,2" d="M1224.15,-588.82C1223.25,-665.09 1224.17,-938.35 1282,-997 1297.37,-1012.58 1356.62,-1017.18 1395.33,-1018.51"/>
<polygon fill="#9a32cd" stroke="#9a32cd" points="1227.65,-588.73 1224.3,-578.68 1220.65,-588.63 1227.65,-588.73"/>
<text text-anchor="middle" x="1326" y="-1020" font-family="Helvetica,sans-Serif" font-size="10.00"> m_engine</text>
</g>
<!-- Node9 -->
<g id="node9" class="node">
<title>Node9</title>
<g id="a_node9"><a xlink:href="classStorage.html" target="_top" xlink:title=" ">
<polygon fill="none" stroke="black" points="1404,-723.5 1404,-742.5 1458,-742.5 1458,-723.5 1404,-723.5"/>
<text text-anchor="middle" x="1431" y="-730.5" font-family="Helvetica,sans-Serif" font-size="10.00">Storage</text>
</a>
</g>
</g>
<!-- Node6&#45;&gt;Node9 -->
<g id="edge10" class="edge">
<title>Node6&#45;&gt;Node9</title>
<path fill="none" stroke="#9a32cd" stroke-dasharray="5,2" d="M1225.25,-588.98C1227.72,-623.25 1238.18,-692.66 1282,-725 1317.51,-751.21 1371.86,-745.89 1403.88,-739.53"/>
<polygon fill="#9a32cd" stroke="#9a32cd" points="1228.73,-588.6 1224.68,-578.81 1221.74,-588.99 1228.73,-588.6"/>
<text text-anchor="middle" x="1326" y="-747" font-family="Helvetica,sans-Serif" font-size="10.00"> m_engine</text>
</g>
<!-- Node10 -->
<g id="node10" class="node">
<title>Node10</title>
<g id="a_node10"><a xlink:href="classIRSender.html" target="_top" xlink:title=" ">
<polygon fill="none" stroke="black" points="1401,-956.5 1401,-975.5 1461,-975.5 1461,-956.5 1401,-956.5"/>
<text text-anchor="middle" x="1431" y="-963.5" font-family="Helvetica,sans-Serif" font-size="10.00">IRSender</text>
</a>
</g>
</g>
<!-- Node6&#45;&gt;Node10 -->
<g id="edge12" class="edge">
<title>Node6&#45;&gt;Node10</title>
<path fill="none" stroke="#9a32cd" stroke-dasharray="5,2" d="M1224.89,-588.93C1226.63,-656.96 1235.8,-878.62 1282,-929 1284.04,-931.23 1358.39,-949.08 1400.91,-959.15"/>
<polygon fill="#9a32cd" stroke="#9a32cd" points="1228.38,-588.64 1224.66,-578.73 1221.39,-588.8 1228.38,-588.64"/>
<text text-anchor="middle" x="1326" y="-953" font-family="Helvetica,sans-Serif" font-size="10.00"> m_engine</text>
</g>
<!-- Node13 -->
<g id="node13" class="node">
<title>Node13</title>
<g id="a_node13"><a xlink:href="classButtons.html" target="_top" xlink:title=" ">
<polygon fill="none" stroke="black" points="1603,-624.5 1603,-643.5 1657,-643.5 1657,-624.5 1603,-624.5"/>
<text text-anchor="middle" x="1630" y="-631.5" font-family="Helvetica,sans-Serif" font-size="10.00">Buttons</text>
</a>
</g>
</g>
<!-- Node6&#45;&gt;Node13 -->
<g id="edge18" class="edge">
<title>Node6&#45;&gt;Node13</title>
<path fill="none" stroke="#9a32cd" stroke-dasharray="5,2" d="M1231.98,-588.15C1240.73,-607.62 1257.25,-636.77 1282,-650 1389.44,-707.43 1543.37,-664.26 1603.54,-643.5"/>
<polygon fill="#9a32cd" stroke="#9a32cd" points="1235.12,-586.59 1228.01,-578.73 1228.67,-589.3 1235.12,-586.59"/>
<text text-anchor="middle" x="1431" y="-681" font-family="Helvetica,sans-Serif" font-size="10.00"> m_engine</text>
</g>
<!-- Node14 -->
<g id="node14" class="node">
<title>Node14</title>
<g id="a_node14"><a xlink:href="classButton.html" target="_top" xlink:title=" ">
<polygon fill="none" stroke="black" points="1406.5,-624.5 1406.5,-643.5 1455.5,-643.5 1455.5,-624.5 1406.5,-624.5"/>
<text text-anchor="middle" x="1431" y="-631.5" font-family="Helvetica,sans-Serif" font-size="10.00">Button</text>
</a>
</g>
</g>
<!-- Node6&#45;&gt;Node14 -->
<g id="edge20" class="edge">
<title>Node6&#45;&gt;Node14</title>
<path fill="none" stroke="#9a32cd" stroke-dasharray="5,2" d="M1239.57,-586.36C1250.24,-597.4 1265.52,-610.9 1282,-618 1323.06,-635.69 1376.22,-636.78 1406.37,-635.62"/>
<polygon fill="#9a32cd" stroke="#9a32cd" points="1242.03,-583.86 1232.67,-578.89 1236.89,-588.61 1242.03,-583.86"/>
<text text-anchor="middle" x="1326" y="-638" font-family="Helvetica,sans-Serif" font-size="10.00"> m_engine</text>
</g>
<!-- Node15 -->
<g id="node15" class="node">
<title>Node15</title>
<g id="a_node15"><a xlink:href="classLeds.html" target="_top" xlink:title=" ">
<polygon fill="none" stroke="black" points="1411.5,-581.5 1411.5,-600.5 1450.5,-600.5 1450.5,-581.5 1411.5,-581.5"/>
<text text-anchor="middle" x="1431" y="-588.5" font-family="Helvetica,sans-Serif" font-size="10.00">Leds</text>
</a>
</g>
</g>
<!-- Node6&#45;&gt;Node15 -->
<g id="edge22" class="edge">
<title>Node6&#45;&gt;Node15</title>
<path fill="none" stroke="#9a32cd" stroke-dasharray="5,2" d="M1247.53,-583.72C1257.68,-589.37 1270.01,-595.15 1282,-598 1327.55,-608.84 1383.13,-600.73 1411.47,-595.13"/>
<polygon fill="#9a32cd" stroke="#9a32cd" points="1249.29,-580.7 1238.89,-578.66 1245.75,-586.73 1249.29,-580.7"/>
<text text-anchor="middle" x="1326" y="-606" font-family="Helvetica,sans-Serif" font-size="10.00"> m_engine</text>
</g>
<!-- Node16 -->
<g id="node16" class="node">
<title>Node16</title>
<g id="a_node16"><a xlink:href="classPatternBuilder.html" target="_top" xlink:title=" ">
<polygon fill="none" stroke="black" points="1388,-525.5 1388,-544.5 1474,-544.5 1474,-525.5 1388,-525.5"/>
<text text-anchor="middle" x="1431" y="-532.5" font-family="Helvetica,sans-Serif" font-size="10.00">PatternBuilder</text>
</a>
</g>
</g>
<!-- Node6&#45;&gt;Node16 -->
<g id="edge24" class="edge">
<title>Node6&#45;&gt;Node16</title>
<path fill="none" stroke="#9a32cd" stroke-dasharray="5,2" d="M1274.05,-560.8C1308.77,-555.06 1354.67,-547.46 1387.67,-542"/>
<polygon fill="#9a32cd" stroke="#9a32cd" points="1273.42,-557.36 1264.12,-562.44 1274.56,-564.27 1273.42,-557.36"/>
<text text-anchor="middle" x="1326" y="-561" font-family="Helvetica,sans-Serif" font-size="10.00"> m_engine</text>
</g>
<!-- Node17 -->
<g id="node17" class="node">
<title>Node17</title>
<g id="a_node17"><a xlink:href="classVLSender.html" target="_top" xlink:title=" ">
<polygon fill="none" stroke="black" points="1400,-888.5 1400,-907.5 1462,-907.5 1462,-888.5 1400,-888.5"/>
<text text-anchor="middle" x="1431" y="-895.5" font-family="Helvetica,sans-Serif" font-size="10.00">VLSender</text>
</a>
</g>
</g>
<!-- Node6&#45;&gt;Node17 -->
<g id="edge26" class="edge">
<title>Node6&#45;&gt;Node17</title>
<path fill="none" stroke="#9a32cd" stroke-dasharray="5,2" d="M1225.7,-588.89C1229.68,-648.08 1244.37,-821.42 1282,-861 1284.06,-863.17 1357.19,-880.77 1399.87,-890.89"/>
<polygon fill="#9a32cd" stroke="#9a32cd" points="1229.18,-588.4 1225.04,-578.65 1222.19,-588.85 1229.18,-588.4"/>
<text text-anchor="middle" x="1326" y="-885" font-family="Helvetica,sans-Serif" font-size="10.00"> m_engine</text>
</g>
<!-- Node18 -->
<g id="node18" class="node">
<title>Node18</title>
<g id="a_node18"><a xlink:href="classModes.html" target="_top" xlink:title=" ">
<polygon fill="none" stroke="black" points="1028,-539.5 1028,-558.5 1077,-558.5 1077,-539.5 1028,-539.5"/>
<text text-anchor="middle" x="1052.5" y="-546.5" font-family="Helvetica,sans-Serif" font-size="10.00">Modes</text>
</a>
</g>
</g>
<!-- Node6&#45;&gt;Node18 -->
<g id="edge30" class="edge">
<title>Node6&#45;&gt;Node18</title>
<path fill="none" stroke="#9a32cd" stroke-dasharray="5,2" d="M1198.67,-554.39C1188.66,-549.06 1176.64,-543.68 1165,-541 1135.31,-534.16 1100.1,-538.71 1077.31,-543.27"/>
<polygon fill="#9a32cd" stroke="#9a32cd" points="1197.16,-557.55 1207.59,-559.39 1200.58,-551.45 1197.16,-557.55"/>
<text text-anchor="middle" x="1139" y="-544" font-family="Helvetica,sans-Serif" font-size="10.00"> m_engine</text>
</g>
<!-- Node19 -->
<g id="node19" class="node">
<title>Node19</title>
<g id="a_node19"><a xlink:href="classModes_1_1ModeLink.html" target="_top" xlink:title=" ">
<polygon fill="none" stroke="black" points="768,-562.5 768,-581.5 870,-581.5 870,-562.5 768,-562.5"/>
<text text-anchor="middle" x="819" y="-569.5" font-family="Helvetica,sans-Serif" font-size="10.00">Modes::ModeLink</text>
</a>
</g>
</g>
<!-- Node6&#45;&gt;Node19 -->
<g id="edge35" class="edge">
<title>Node6&#45;&gt;Node19</title>
<path fill="none" stroke="#9a32cd" stroke-dasharray="5,2" d="M1172.78,-575.34C1170.15,-575.59 1167.54,-575.81 1165,-576 1042.22,-585.23 1010.86,-589.1 888,-581 882.18,-580.62 876.09,-580.05 870.06,-579.38"/>
<polygon fill="#9a32cd" stroke="#9a32cd" points="1173.36,-578.8 1182.96,-574.3 1172.65,-571.84 1173.36,-578.8"/>
<text text-anchor="middle" x="1052.5" y="-588" font-family="Helvetica,sans-Serif" font-size="10.00"> m_engine</text>
</g>
<!-- Node6&#45;&gt;Node20 -->
<g id="edge33" class="edge">
<title>Node6&#45;&gt;Node20</title>
<path fill="none" stroke="#9a32cd" stroke-dasharray="5,2" d="M1220.01,-549.25C1209.33,-474.02 1160.1,-204.12 992,-94 926.4,-51.03 672.91,-68.75 597.67,-75.1"/>
<polygon fill="#9a32cd" stroke="#9a32cd" points="1216.55,-549.8 1221.36,-559.25 1223.49,-548.87 1216.55,-549.8"/>
<text text-anchor="middle" x="940" y="-97" font-family="Helvetica,sans-Serif" font-size="10.00"> m_engine</text>
</g>
<!-- Node21 -->
<g id="node21" class="node">
<title>Node21</title>
<g id="a_node21"><a xlink:href="classSerialComs.html" target="_top" xlink:title=" ">
<polygon fill="none" stroke="black" points="1395,-459.5 1395,-478.5 1467,-478.5 1467,-459.5 1395,-459.5"/>
<text text-anchor="middle" x="1431" y="-466.5" font-family="Helvetica,sans-Serif" font-size="10.00">SerialComs</text>
</a>
</g>
</g>
<!-- Node6&#45;&gt;Node21 -->
<g id="edge39" class="edge">
<title>Node6&#45;&gt;Node21</title>
<path fill="none" stroke="#9a32cd" stroke-dasharray="5,2" d="M1234.04,-550.33C1243.74,-533.35 1260.4,-509.01 1282,-496 1316.57,-475.18 1363.32,-469.66 1394.95,-468.55"/>
<polygon fill="#9a32cd" stroke="#9a32cd" points="1230.84,-548.88 1229.15,-559.34 1236.99,-552.22 1230.84,-548.88"/>
<text text-anchor="middle" x="1326" y="-499" font-family="Helvetica,sans-Serif" font-size="10.00"> m_engine</text>
</g>
<!-- Node22 -->
<g id="node22" class="node">
<title>Node22</title>
<g id="a_node22"><a xlink:href="classIRReceiver.html" target="_top" xlink:title=" ">
<polygon fill="none" stroke="black" points="1396.5,-805.5 1396.5,-824.5 1465.5,-824.5 1465.5,-805.5 1396.5,-805.5"/>
<text text-anchor="middle" x="1431" y="-812.5" font-family="Helvetica,sans-Serif" font-size="10.00">IRReceiver</text>
</a>
</g>
</g>
<!-- Node6&#45;&gt;Node22 -->
<g id="edge41" class="edge">
<title>Node6&#45;&gt;Node22</title>
<path fill="none" stroke="#9a32cd" stroke-dasharray="5,2" d="M1226.79,-588.83C1232.94,-638.35 1251.43,-765.44 1282,-793 1298.35,-807.74 1357.93,-812.61 1396.33,-814.21"/>
<polygon fill="#9a32cd" stroke="#9a32cd" points="1230.25,-588.26 1225.58,-578.75 1223.3,-589.1 1230.25,-588.26"/>
<text text-anchor="middle" x="1326" y="-815" font-family="Helvetica,sans-Serif" font-size="10.00"> m_engine</text>
</g>
<!-- Node23 -->
<g id="node23" class="node">
<title>Node23</title>
<g id="a_node23"><a xlink:href="classTime.html" target="_top" xlink:title=" ">
<polygon fill="none" stroke="black" points="1410.5,-406.5 1410.5,-425.5 1451.5,-425.5 1451.5,-406.5 1410.5,-406.5"/>
<text text-anchor="middle" x="1431" y="-413.5" font-family="Helvetica,sans-Serif" font-size="10.00">Time</text>
</a>
</g>
</g>
<!-- Node6&#45;&gt;Node23 -->
<g id="edge44" class="edge">
<title>Node6&#45;&gt;Node23</title>
<path fill="none" stroke="#9a32cd" stroke-dasharray="5,2" d="M1225.82,-549.5C1229.16,-517.28 1240.9,-453.57 1282,-424 1320.33,-396.43 1379.75,-404.27 1410.34,-410.93"/>
<polygon fill="#9a32cd" stroke="#9a32cd" points="1222.34,-549.21 1224.96,-559.47 1229.31,-549.81 1222.34,-549.21"/>
<text text-anchor="middle" x="1326" y="-427" font-family="Helvetica,sans-Serif" font-size="10.00"> m_engine</text>
</g>
<!-- Node24 -->
<g id="node24" class="node">
<title>Node24</title>
<g id="a_node24"><a xlink:href="classMenus.html" target="_top" xlink:title=" ">
<polygon fill="none" stroke="black" points="1605.5,-321.5 1605.5,-340.5 1654.5,-340.5 1654.5,-321.5 1605.5,-321.5"/>
<text text-anchor="middle" x="1630" y="-328.5" font-family="Helvetica,sans-Serif" font-size="10.00">Menus</text>
</a>
</g>
</g>
<!-- Node6&#45;&gt;Node24 -->
<g id="edge46" class="edge">
<title>Node6&#45;&gt;Node24</title>
<path fill="none" stroke="#9a32cd" stroke-dasharray="5,2" d="M1227.19,-549.37C1233.95,-503.12 1253.2,-389.45 1282,-366 1294.01,-356.22 1544.67,-348.21 1560,-346 1575.17,-343.82 1591.97,-340.19 1605.2,-337.05"/>
<polygon fill="#9a32cd" stroke="#9a32cd" points="1223.71,-548.95 1225.77,-559.34 1230.64,-549.94 1223.71,-548.95"/>
<text text-anchor="middle" x="1431" y="-357" font-family="Helvetica,sans-Serif" font-size="10.00"> m_engine</text>
</g>
<!-- Node25 -->
<g id="node25" class="node">
<title>Node25</title>
<g id="a_node25"><a xlink:href="classMenu.html" target="_top" xlink:title=" ">
<polygon fill="none" stroke="black" points="1409,-321.5 1409,-340.5 1453,-340.5 1453,-321.5 1409,-321.5"/>
<text text-anchor="middle" x="1431" y="-328.5" font-family="Helvetica,sans-Serif" font-size="10.00">Menu</text>
</a>
</g>
</g>
<!-- Node6&#45;&gt;Node25 -->
<g id="edge50" class="edge">
<title>Node6&#45;&gt;Node25</title>
<path fill="none" stroke="#9a32cd" stroke-dasharray="5,2" d="M1226.07,-549.18C1230.72,-495.98 1246.43,-352.19 1282,-324 1318.59,-295 1377.69,-310.64 1408.99,-322.2"/>
<polygon fill="#9a32cd" stroke="#9a32cd" points="1222.56,-549.09 1225.22,-559.34 1229.54,-549.67 1222.56,-549.09"/>
<text text-anchor="middle" x="1326" y="-327" font-family="Helvetica,sans-Serif" font-size="10.00"> m_engine</text>
</g>
<!-- Node28 -->
<g id="node28" class="node">
<title>Node28</title>
<g id="a_node28"><a xlink:href="classSequence.html" target="_top" xlink:title=" ">
<polygon fill="none" stroke="black" points="1399,-283.5 1399,-302.5 1463,-302.5 1463,-283.5 1399,-283.5"/>
<text text-anchor="middle" x="1431" y="-290.5" font-family="Helvetica,sans-Serif" font-size="10.00">Sequence</text>
</a>
</g>
</g>
<!-- Node6&#45;&gt;Node28 -->
<g id="edge54" class="edge">
<title>Node6&#45;&gt;Node28</title>
<path fill="none" stroke="#9a32cd" stroke-dasharray="5,2" d="M1225.48,-549.31C1228.82,-491.58 1241.82,-324.7 1282,-292 1315.98,-264.35 1370.35,-273.97 1402.87,-283.49"/>
<polygon fill="#9a32cd" stroke="#9a32cd" points="1221.99,-549.16 1224.94,-559.33 1228.98,-549.54 1221.99,-549.16"/>
<text text-anchor="middle" x="1326" y="-295" font-family="Helvetica,sans-Serif" font-size="10.00"> m_engine</text>
</g>
<!-- Node29 -->
<g id="node29" class="node">
<title>Node29</title>
<g id="a_node29"><a xlink:href="classTimer.html" target="_top" xlink:title=" ">
<polygon fill="none" stroke="black" points="1408.5,-245.5 1408.5,-264.5 1453.5,-264.5 1453.5,-245.5 1408.5,-245.5"/>
<text text-anchor="middle" x="1431" y="-252.5" font-family="Helvetica,sans-Serif" font-size="10.00">Timer</text>
</a>
</g>
</g>
<!-- Node6&#45;&gt;Node29 -->
<g id="edge56" class="edge">
<title>Node6&#45;&gt;Node29</title>
<path fill="none" stroke="#9a32cd" stroke-dasharray="5,2" d="M1225.03,-549.44C1227.15,-487.27 1237.28,-295.98 1282,-258 1317.45,-227.89 1376.76,-238.86 1408.46,-247.87"/>
<polygon fill="#9a32cd" stroke="#9a32cd" points="1221.53,-549.38 1224.72,-559.48 1228.53,-549.6 1221.53,-549.38"/>
<text text-anchor="middle" x="1326" y="-261" font-family="Helvetica,sans-Serif" font-size="10.00"> m_engine</text>
</g>
<!-- Node7&#45;&gt;Node6 -->
<g id="edge6" class="edge">
<title>Node7&#45;&gt;Node6</title>
<path fill="none" stroke="#9a32cd" stroke-dasharray="5,2" d="M1405.96,-1004C1395.25,-997.78 1382.3,-990.9 1370,-986 1332.45,-971.03 1308.96,-993.12 1282,-963 1228.98,-903.76 1224.82,-632.93 1224.52,-578.53"/>
<polygon fill="#9a32cd" stroke="#9a32cd" points="1404.34,-1007.11 1414.73,-1009.22 1407.93,-1001.09 1404.34,-1007.11"/>
<text text-anchor="middle" x="1326" y="-989" font-family="Helvetica,sans-Serif" font-size="10.00"> m_vlReceiver</text>
</g>
<!-- Node8 -->
<g id="node8" class="node">
<title>Node8</title>
<g id="a_node8"><a xlink:href="classBitStream.html" target="_top" xlink:title=" ">
<polygon fill="none" stroke="black" points="1191,-1144.5 1191,-1163.5 1256,-1163.5 1256,-1144.5 1191,-1144.5"/>
<text text-anchor="middle" x="1223.5" y="-1151.5" font-family="Helvetica,sans-Serif" font-size="10.00">BitStream</text>
</a>
</g>
</g>
<!-- Node8&#45;&gt;Node7 -->
<g id="edge8" class="edge">
<title>Node8&#45;&gt;Node7</title>
<path fill="none" stroke="#9a32cd" stroke-dasharray="5,2" d="M1247.93,-1168.66C1278.69,-1185.81 1333.07,-1208.81 1370,-1183 1422.68,-1146.18 1429.26,-1057.87 1429.96,-1028.61"/>
<polygon fill="#9a32cd" stroke="#9a32cd" points="1249.6,-1165.58 1239.2,-1163.58 1246.08,-1171.63 1249.6,-1165.58"/>
<text text-anchor="middle" x="1326" y="-1197" font-family="Helvetica,sans-Serif" font-size="10.00"> m_vlData</text>
</g>
<!-- Node8&#45;&gt;Node10 -->
<g id="edge13" class="edge">
<title>Node8&#45;&gt;Node10</title>
<path fill="none" stroke="#9a32cd" stroke-dasharray="5,2" d="M1266.23,-1165.7C1298.66,-1172.04 1342.61,-1174.13 1370,-1149 1394.57,-1126.45 1371.86,-1029.18 1388,-1000 1393.63,-989.82 1403.66,-981.53 1412.51,-975.68"/>
<polygon fill="#9a32cd" stroke="#9a32cd" points="1266.65,-1162.21 1256.14,-1163.53 1265.17,-1169.06 1266.65,-1162.21"/>
<text text-anchor="middle" x="1326" y="-1172" font-family="Helvetica,sans-Serif" font-size="10.00"> m_bitStream</text>
</g>
<!-- Node8&#45;&gt;Node17 -->
<g id="edge27" class="edge">
<title>Node8&#45;&gt;Node17</title>
<path fill="none" stroke="#9a32cd" stroke-dasharray="5,2" d="M1263.25,-1141.47C1269.5,-1139.56 1275.91,-1137.68 1282,-1136 1320.77,-1125.32 1343.44,-1145.19 1370,-1115 1394.8,-1086.81 1373.11,-981.47 1388,-947 1394.84,-931.16 1408.65,-916.65 1418.57,-907.59"/>
<polygon fill="#9a32cd" stroke="#9a32cd" points="1262.15,-1138.15 1253.64,-1144.45 1264.22,-1144.83 1262.15,-1138.15"/>
<text text-anchor="middle" x="1326" y="-1139" font-family="Helvetica,sans-Serif" font-size="10.00"> m_bitStream</text>
</g>
<!-- Node8&#45;&gt;Node22 -->
<g id="edge42" class="edge">
<title>Node8&#45;&gt;Node22</title>
<path fill="none" stroke="#9a32cd" stroke-dasharray="5,2" d="M1242.32,-1137.23C1253.52,-1126.86 1268.38,-1113.4 1282,-1102 1319.91,-1070.29 1345.69,-1077.03 1370,-1034 1404.11,-973.62 1364.34,-944.19 1388,-879 1395.71,-857.76 1411.7,-836.51 1421.57,-824.63"/>
<polygon fill="#9a32cd" stroke="#9a32cd" points="1239.81,-1134.79 1234.88,-1144.17 1244.58,-1139.91 1239.81,-1134.79"/>
<text text-anchor="middle" x="1326" y="-1105" font-family="Helvetica,sans-Serif" font-size="10.00"> m_irData</text>
</g>
<!-- Node9&#45;&gt;Node6 -->
<g id="edge9" class="edge">
<title>Node9&#45;&gt;Node6</title>
<path fill="none" stroke="#9a32cd" stroke-dasharray="5,2" d="M1394.09,-721.3C1386.18,-718.81 1377.82,-716.26 1370,-714 1331.16,-702.78 1313.1,-716.83 1282,-691 1245.43,-660.63 1230.7,-601.71 1226.17,-578.62"/>
<polygon fill="#9a32cd" stroke="#9a32cd" points="1393.21,-724.69 1403.8,-724.38 1395.33,-718.02 1393.21,-724.69"/>
<text text-anchor="middle" x="1326" y="-717" font-family="Helvetica,sans-Serif" font-size="10.00"> m_storage</text>
</g>
<!-- Node10&#45;&gt;Node6 -->
<g id="edge11" class="edge">
<title>Node10&#45;&gt;Node6</title>
<path fill="none" stroke="#9a32cd" stroke-dasharray="5,2" d="M1413.29,-949.42C1401.94,-939.02 1386.12,-926.09 1370,-918 1333.87,-899.87 1309.4,-924.72 1282,-895 1237.78,-847.04 1226.77,-627.81 1224.84,-578.76"/>
<polygon fill="#9a32cd" stroke="#9a32cd" points="1411.04,-952.11 1420.71,-956.45 1415.85,-947.03 1411.04,-952.11"/>
<text text-anchor="middle" x="1326" y="-921" font-family="Helvetica,sans-Serif" font-size="10.00"> m_irSender</text>
</g>
<!-- Node11 -->
<g id="node11" class="node">
<title>Node11</title>
<g id="a_node11"><a xlink:href="classByteStream.html" target="_top" xlink:title=" ">
<polygon fill="none" stroke="black" points="538.5,-1013.5 538.5,-1032.5 612.5,-1032.5 612.5,-1013.5 538.5,-1013.5"/>
<text text-anchor="middle" x="575.5" y="-1020.5" font-family="Helvetica,sans-Serif" font-size="10.00">ByteStream</text>
</a>
</g>
</g>
<!-- Node11&#45;&gt;Node10 -->
<g id="edge14" class="edge">
<title>Node11&#45;&gt;Node10</title>
<path fill="none" stroke="#9a32cd" stroke-dasharray="5,2" d="M615.74,-1035.46C663.15,-1049.38 745.58,-1070 818,-1070 818,-1070 818,-1070 1224.5,-1070 1289.47,-1070 1319.4,-1096.74 1370,-1056 1390.36,-1039.6 1373.22,-1021.57 1388,-1000 1394.79,-990.09 1405.29,-981.59 1414.09,-975.57"/>
<polygon fill="#9a32cd" stroke="#9a32cd" points="616.47,-1032.02 605.88,-1032.51 614.46,-1038.73 616.47,-1032.02"/>
<text text-anchor="middle" x="1052.5" y="-1073" font-family="Helvetica,sans-Serif" font-size="10.00"> m_serialBuf</text>
</g>
<!-- Node11&#45;&gt;Node17 -->
<g id="edge28" class="edge">
<title>Node11&#45;&gt;Node17</title>
<path fill="none" stroke="#9a32cd" stroke-dasharray="5,2" d="M622.91,-1024.26C790.51,-1028.71 1355.41,-1042.8 1370,-1031 1399.69,-1007 1371.05,-981.21 1388,-947 1395.66,-931.54 1409.3,-916.95 1418.96,-907.77"/>
<polygon fill="#9a32cd" stroke="#9a32cd" points="622.77,-1020.75 612.68,-1023.99 622.59,-1027.75 622.77,-1020.75"/>
<text text-anchor="middle" x="1052.5" y="-1037" font-family="Helvetica,sans-Serif" font-size="10.00"> m_serialBuf</text>
</g>
<!-- Node11&#45;&gt;Node19 -->
<g id="edge36" class="edge">
<title>Node11&#45;&gt;Node19</title>
<path fill="none" stroke="#9a32cd" stroke-dasharray="5,2" d="M586.61,-1004.11C627.84,-927.13 782.42,-638.44 812.8,-581.71"/>
<polygon fill="#9a32cd" stroke="#9a32cd" points="583.4,-1002.69 581.77,-1013.16 589.57,-1006 583.4,-1002.69"/>
<text text-anchor="middle" x="695" y="-905" font-family="Helvetica,sans-Serif" font-size="10.00"> m_storedMode</text>
</g>
<!-- Node12 -->
<g id="node12" class="node">
<title>Node12</title>
<g id="a_node12"><a xlink:href="structByteStream_1_1RawBuffer.html" target="_top" xlink:title=" ">
<polygon fill="none" stroke="black" points="303,-1013.5 303,-1032.5 434,-1032.5 434,-1013.5 303,-1013.5"/>
<text text-anchor="middle" x="368.5" y="-1020.5" font-family="Helvetica,sans-Serif" font-size="10.00">ByteStream::RawBuffer</text>
</a>
</g>
</g>
<!-- Node12&#45;&gt;Node11 -->
<g id="edge15" class="edge">
<title>Node12&#45;&gt;Node11</title>
<path fill="none" stroke="#9a32cd" stroke-dasharray="5,2" d="M444.33,-1023C476.36,-1023 512.3,-1023 538.28,-1023"/>
<polygon fill="#9a32cd" stroke="#9a32cd" points="444.08,-1019.5 434.08,-1023 444.08,-1026.5 444.08,-1019.5"/>
<text text-anchor="middle" x="481.5" y="-1026" font-family="Helvetica,sans-Serif" font-size="10.00"> m_pData</text>
</g>
<!-- Node13&#45;&gt;Node6 -->
<g id="edge17" class="edge">
<title>Node13&#45;&gt;Node6</title>
<path fill="none" stroke="#9a32cd" stroke-dasharray="5,2" d="M1625.44,-614.13C1611.37,-535.65 1560.39,-251.43 1560,-251 1533.44,-221.18 1513.5,-230.84 1474,-225 1389.49,-212.5 1344.93,-176.22 1282,-234 1232.45,-279.5 1225.55,-509.68 1224.63,-559.49"/>
<polygon fill="#9a32cd" stroke="#9a32cd" points="1622.03,-614.93 1627.24,-624.16 1628.92,-613.7 1622.03,-614.93"/>
<text text-anchor="middle" x="1431" y="-228" font-family="Helvetica,sans-Serif" font-size="10.00"> m_buttons</text>
</g>
<!-- Node14&#45;&gt;Node13 -->
<g id="edge19" class="edge">
<title>Node14&#45;&gt;Node13</title>
<path fill="none" stroke="#9a32cd" stroke-dasharray="5,2" d="M1466.06,-634C1504.96,-634 1567.77,-634 1602.96,-634"/>
<polygon fill="#9a32cd" stroke="#9a32cd" points="1465.76,-630.5 1455.76,-634 1465.76,-637.5 1465.76,-630.5"/>
<text text-anchor="middle" x="1526" y="-637" font-family="Helvetica,sans-Serif" font-size="10.00"> m_buttons</text>
</g>
<!-- Node15&#45;&gt;Node6 -->
<g id="edge21" class="edge">
<title>Node15&#45;&gt;Node6</title>
<path fill="none" stroke="#9a32cd" stroke-dasharray="5,2" d="M1401.22,-587.92C1365.47,-584.09 1304.29,-577.54 1264.12,-573.24"/>
<polygon fill="#9a32cd" stroke="#9a32cd" points="1401.13,-591.43 1411.45,-589.01 1401.88,-584.47 1401.13,-591.43"/>
<text text-anchor="middle" x="1326" y="-587" font-family="Helvetica,sans-Serif" font-size="10.00"> m_leds</text>
</g>
<!-- Node16&#45;&gt;Node6 -->
<g id="edge23" class="edge">
<title>Node16&#45;&gt;Node6</title>
<path fill="none" stroke="#9a32cd" stroke-dasharray="5,2" d="M1394.96,-522.46C1364.24,-513.49 1318.86,-505.21 1282,-519 1260.44,-527.06 1241.62,-547.26 1231.78,-559.38"/>
<polygon fill="#9a32cd" stroke="#9a32cd" points="1394.19,-525.89 1404.78,-525.5 1396.26,-519.2 1394.19,-525.89"/>
<text text-anchor="middle" x="1326" y="-522" font-family="Helvetica,sans-Serif" font-size="10.00"> m_patternBuilder</text>
</g>
<!-- Node17&#45;&gt;Node6 -->
<g id="edge25" class="edge">
<title>Node17&#45;&gt;Node6</title>
<path fill="none" stroke="#9a32cd" stroke-dasharray="5,2" d="M1413.29,-881.42C1401.94,-871.02 1386.12,-858.09 1370,-850 1333.87,-831.87 1310.06,-856.1 1282,-827 1246.4,-790.08 1229.13,-620.98 1225.32,-578.63"/>
<polygon fill="#9a32cd" stroke="#9a32cd" points="1411.04,-884.11 1420.71,-888.45 1415.85,-879.03 1411.04,-884.11"/>
<text text-anchor="middle" x="1326" y="-853" font-family="Helvetica,sans-Serif" font-size="10.00"> m_vlSender</text>
</g>
<!-- Node18&#45;&gt;Node6 -->
<g id="edge29" class="edge">
<title>Node18&#45;&gt;Node6</title>
<path fill="none" stroke="#9a32cd" stroke-dasharray="5,2" d="M1087.31,-553C1114.85,-556.26 1153.8,-560.87 1182.82,-564.3"/>
<polygon fill="#9a32cd" stroke="#9a32cd" points="1087.7,-549.52 1077.36,-551.82 1086.87,-556.47 1087.7,-549.52"/>
<text text-anchor="middle" x="1139" y="-564" font-family="Helvetica,sans-Serif" font-size="10.00"> m_modes</text>
</g>
<!-- Node19&#45;&gt;Node18 -->
<g id="edge31" class="edge">
<title>Node19&#45;&gt;Node18</title>
<path fill="none" stroke="#9a32cd" stroke-dasharray="5,2" d="M875.46,-560.79C879.69,-560.12 883.91,-559.51 888,-559 937.52,-552.78 995.98,-550.39 1027.86,-549.5"/>
<polygon fill="#9a32cd" stroke="#9a32cd" points="874.88,-557.34 865.59,-562.45 876.04,-564.25 874.88,-557.34"/>
<text text-anchor="middle" x="940" y="-573" font-family="Helvetica,sans-Serif" font-size="10.00"> m_pCurModeLink</text>
<text text-anchor="middle" x="940" y="-562" font-family="Helvetica,sans-Serif" font-size="10.00">m_storedModes</text>
</g>
<!-- Node19&#45;&gt;Node19 -->
<g id="edge37" class="edge">
<title>Node19&#45;&gt;Node19</title>
<path fill="none" stroke="#9a32cd" stroke-dasharray="5,2" d="M796.68,-591.03C797.9,-596.13 805.34,-600 819,-600 840.33,-600 846.49,-590.57 837.5,-581.76"/>
<polygon fill="#9a32cd" stroke="#9a32cd" points="799.93,-592.34 800.5,-581.76 793.45,-589.67 799.93,-592.34"/>
<text text-anchor="middle" x="819" y="-614" font-family="Helvetica,sans-Serif" font-size="10.00"> m_next</text>
<text text-anchor="middle" x="819" y="-603" font-family="Helvetica,sans-Serif" font-size="10.00">m_prev</text>
</g>
<!-- Node20&#45;&gt;Node19 -->
<g id="edge32" class="edge">
<title>Node20&#45;&gt;Node19</title>
<path fill="none" stroke="#9a32cd" stroke-dasharray="5,2" d="M607.66,-82.81C652.37,-91.79 731.39,-110.29 750,-132 808.1,-199.79 816.71,-503.5 817.84,-562.17"/>
<polygon fill="#9a32cd" stroke="#9a32cd" points="608.11,-79.33 597.62,-80.83 606.76,-86.2 608.11,-79.33"/>
<text text-anchor="middle" x="695" y="-135" font-family="Helvetica,sans-Serif" font-size="10.00"> m_pInstantiatedMode</text>
</g>
<!-- Node20&#45;&gt;Node25 -->
<g id="edge48" class="edge">
<title>Node20&#45;&gt;Node25</title>
<path fill="none" stroke="#9a32cd" stroke-dasharray="5,2" d="M607.33,-68.79C617.65,-66.29 629.27,-63.74 640,-62 718.41,-49.28 738.57,-46 818,-46 818,-46 818,-46 1224.5,-46 1304.25,-46 1329.79,-82.13 1370,-151 1406.31,-213.18 1345.66,-253.76 1388,-312 1392.99,-318.86 1401.05,-323.3 1408.78,-326.14"/>
<polygon fill="#9a32cd" stroke="#9a32cd" points="606.37,-65.42 597.52,-71.24 608.07,-72.21 606.37,-65.42"/>
<text text-anchor="middle" x="1052.5" y="-49" font-family="Helvetica,sans-Serif" font-size="10.00"> m_previewMode</text>
</g>
<!-- Node21&#45;&gt;Node6 -->
<g id="edge38" class="edge">
<title>Node21&#45;&gt;Node6</title>
<path fill="none" stroke="#9a32cd" stroke-dasharray="5,2" d="M1400.99,-455.24C1369.31,-442.4 1318.24,-428.34 1282,-451 1242.58,-475.64 1229.47,-535.94 1225.77,-559.42"/>
<polygon fill="#9a32cd" stroke="#9a32cd" points="1399.99,-458.62 1410.56,-459.32 1402.73,-452.18 1399.99,-458.62"/>
<text text-anchor="middle" x="1326" y="-454" font-family="Helvetica,sans-Serif" font-size="10.00"> m_serial</text>
</g>
<!-- Node22&#45;&gt;Node6 -->
<g id="edge40" class="edge">
<title>Node22&#45;&gt;Node6</title>
<path fill="none" stroke="#9a32cd" stroke-dasharray="5,2" d="M1405.96,-800C1395.25,-793.78 1382.3,-786.9 1370,-782 1332.45,-767.03 1311.13,-787.03 1282,-759 1228.86,-707.86 1224.38,-609.45 1224.34,-578.53"/>
<polygon fill="#9a32cd" stroke="#9a32cd" points="1404.34,-803.11 1414.73,-805.22 1407.93,-797.09 1404.34,-803.11"/>
<text text-anchor="middle" x="1326" y="-785" font-family="Helvetica,sans-Serif" font-size="10.00"> m_irReceiver</text>
</g>
<!-- Node23&#45;&gt;Node6 -->
<g id="edge43" class="edge">
<title>Node23&#45;&gt;Node6</title>
<path fill="none" stroke="#9a32cd" stroke-dasharray="5,2" d="M1404.19,-401.43C1388.83,-392.82 1371.96,-383.5 1370,-383 1332.12,-373.27 1313.48,-359.78 1282,-383 1223.79,-425.93 1222.72,-527.06 1223.93,-559.09"/>
<polygon fill="#9a32cd" stroke="#9a32cd" points="1402.49,-404.49 1412.93,-406.34 1405.92,-398.39 1402.49,-404.49"/>
<text text-anchor="middle" x="1326" y="-386" font-family="Helvetica,sans-Serif" font-size="10.00"> m_time</text>
</g>
<!-- Node24&#45;&gt;Node6 -->
<g id="edge45" class="edge">
<title>Node24&#45;&gt;Node6</title>
<path fill="none" stroke="#9a32cd" stroke-dasharray="5,2" d="M1610.94,-314.46C1600.16,-303.78 1586.88,-289.11 1578,-274 1565.6,-252.92 1577.18,-239.4 1560,-222 1473.01,-133.89 1371.03,-117.96 1282,-204 1229.18,-255.04 1224.85,-506.83 1224.52,-559.38"/>
<polygon fill="#9a32cd" stroke="#9a32cd" points="1608.61,-317.08 1618.25,-321.48 1613.46,-312.03 1608.61,-317.08"/>
<text text-anchor="middle" x="1431" y="-163" font-family="Helvetica,sans-Serif" font-size="10.00"> m_menus</text>
</g>
<!-- Node25&#45;&gt;Node24 -->
<g id="edge47" class="edge">
<title>Node25&#45;&gt;Node24</title>
<path fill="none" stroke="#9a32cd" stroke-dasharray="5,2" d="M1463.2,-331C1502.68,-331 1569.81,-331 1605.33,-331"/>
<polygon fill="#9a32cd" stroke="#9a32cd" points="1463.08,-327.5 1453.08,-331 1463.08,-334.5 1463.08,-327.5"/>
<text text-anchor="middle" x="1526" y="-334" font-family="Helvetica,sans-Serif" font-size="10.00"> m_pCurMenu</text>
</g>
<!-- Node26 -->
<g id="node26" class="node">
<title>Node26</title>
<g id="a_node26"><a xlink:href="classRGBColor.html" target="_top" xlink:title=" ">
<polygon fill="none" stroke="black" points="0,-136.5 0,-155.5 63,-155.5 63,-136.5 0,-136.5"/>
<text text-anchor="middle" x="31.5" y="-143.5" font-family="Helvetica,sans-Serif" font-size="10.00">RGBColor</text>
</a>
</g>
</g>
<!-- Node26&#45;&gt;Node25 -->
<g id="edge49" class="edge">
<title>Node26&#45;&gt;Node25</title>
<path fill="none" stroke="#9a32cd" stroke-dasharray="5,2" d="M72.95,-154.07C102.37,-159.25 143.24,-165 179.5,-165 179.5,-165 179.5,-165 1224.5,-165 1296.07,-165 1325.14,-178.23 1370,-234 1392.3,-261.72 1365.45,-284.48 1388,-312 1393.27,-318.44 1401.2,-322.78 1408.74,-325.67"/>
<polygon fill="#9a32cd" stroke="#9a32cd" points="73.5,-150.61 63.04,-152.27 72.26,-157.5 73.5,-150.61"/>
<text text-anchor="middle" x="695" y="-168" font-family="Helvetica,sans-Serif" font-size="10.00"> m_menuColor</text>
</g>
<!-- Node27 -->
<g id="node27" class="node">
<title>Node27</title>
<g id="a_node27"><a xlink:href="classColorset.html" target="_top" xlink:title=" ">
<polygon fill="none" stroke="black" points="152,-117.5 152,-136.5 209,-136.5 209,-117.5 152,-117.5"/>
<text text-anchor="middle" x="180.5" y="-124.5" font-family="Helvetica,sans-Serif" font-size="10.00">Colorset</text>
</a>
</g>
</g>
<!-- Node26&#45;&gt;Node27 -->
<g id="edge52" class="edge">
<title>Node26&#45;&gt;Node27</title>
<path fill="none" stroke="#9a32cd" stroke-dasharray="5,2" d="M73.24,-140.73C98.22,-137.51 129.55,-133.46 151.7,-130.59"/>
<polygon fill="#9a32cd" stroke="#9a32cd" points="72.78,-137.26 63.32,-142.02 73.68,-144.21 72.78,-137.26"/>
<text text-anchor="middle" x="107.5" y="-142" font-family="Helvetica,sans-Serif" font-size="10.00"> m_palette</text>
</g>
<!-- Node27&#45;&gt;Node5 -->
<g id="edge51" class="edge">
<title>Node27&#45;&gt;Node5</title>
<path fill="none" stroke="#9a32cd" stroke-dasharray="5,2" d="M219.7,-122.07C256.55,-117.32 311.25,-110.26 342.74,-106.19"/>
<polygon fill="#9a32cd" stroke="#9a32cd" points="218.82,-118.66 209.35,-123.41 219.71,-125.6 218.82,-118.66"/>
<text text-anchor="middle" x="256" y="-123" font-family="Helvetica,sans-Serif" font-size="10.00"> m_colorset</text>
</g>
<!-- Node28&#45;&gt;Node2 -->
<g id="edge53" class="edge">
<title>Node28&#45;&gt;Node2</title>
<path fill="none" stroke="#9a32cd" stroke-dasharray="5,2" d="M1472.98,-285.48C1498.12,-280.82 1530.94,-274.67 1560,-269 1567.32,-267.57 1575.07,-266.03 1582.62,-264.51"/>
<polygon fill="#9a32cd" stroke="#9a32cd" points="1472.26,-282.05 1463.06,-287.31 1473.53,-288.93 1472.26,-282.05"/>
<text text-anchor="middle" x="1526" y="-284" font-family="Helvetica,sans-Serif" font-size="10.00"> m_sequence</text>
</g>
<!-- Node29&#45;&gt;Node2 -->
<g id="edge55" class="edge">
<title>Node29&#45;&gt;Node2</title>
<path fill="none" stroke="#9a32cd" stroke-dasharray="5,2" d="M1463.98,-255C1494.71,-255 1541.64,-255 1577.61,-255"/>
<polygon fill="#9a32cd" stroke="#9a32cd" points="1463.84,-251.5 1453.84,-255 1463.84,-258.5 1463.84,-251.5"/>
<text text-anchor="middle" x="1526" y="-258" font-family="Helvetica,sans-Serif" font-size="10.00"> m_timer</text>
</g>
</g>
</svg>
        <g id="navigator" transform="translate(0 0)" fill="#404254">
                <rect fill="#f2f5e9" fill-opacity="0.5" stroke="#606060" stroke-width=".5" x="0" y="0" width="60" height="60"/>
                <use id="zoomplus" xlink:href="#zoomPlus" x="17" y="9" onmousedown="handleZoom(evt,'in')"/>
                <use id="zoomminus" xlink:href="#zoomMin" x="42" y="9" onmousedown="handleZoom(evt,'out')"/>
                <use id="reset" xlink:href="#resetDef" x="30" y="36" onmousedown="handleReset()"/>
                <g id="arrowUp" xlink:href="#dirArrow" transform="translate(30 24)" onmousedown="handlePan(0,-1)">
                  <use xlink:href="#rim" fill="#404040">
                        <set attributeName="fill" to="#808080" begin="arrowUp.mouseover" end="arrowUp.mouseout"/>
                  </use>
                  <path fill="none" stroke="white" stroke-width="1.5" d="M0,-3.0v7 M-2.5,-0.5L0,-3.0L2.5,-0.5"/>
                </g>
                <g id="arrowRight" xlink:href="#dirArrow" transform="rotate(90) translate(36 -43)" onmousedown="handlePan(1,0)">
                  <use xlink:href="#rim" fill="#404040">
                        <set attributeName="fill" to="#808080" begin="arrowRight.mouseover" end="arrowRight.mouseout"/>
                  </use>
                  <path fill="none" stroke="white" stroke-width="1.5" d="M0,-3.0v7 M-2.5,-0.5L0,-3.0L2.5,-0.5"/>
                </g>
                <g id="arrowDown" xlink:href="#dirArrow" transform="rotate(180) translate(-30 -48)" onmousedown="handlePan(0,1)">
                  <use xlink:href="#rim" fill="#404040">
                        <set attributeName="fill" to="#808080" begin="arrowDown.mouseover" end="arrowDown.mouseout"/>
                  </use>
                  <path fill="none" stroke="white" stroke-width="1.5" d="M0,-3.0v7 M-2.5,-0.5L0,-3.0L2.5,-0.5"/>
                </g>
                <g id="arrowLeft" xlink:href="#dirArrow" transform="rotate(270) translate(-36 17)" onmousedown="handlePan(-1,0)">
                  <use xlink:href="#rim" fill="#404040">
                        <set attributeName="fill" to="#808080" begin="arrowLeft.mouseover" end="arrowLeft.mouseout"/>
                  </use>
                  <path fill="none" stroke="white" stroke-width="1.5" d="M0,-3.0v7 M-2.5,-0.5L0,-3.0L2.5,-0.5"/>
                </g>
        </g>
        <svg viewBox="0 0 15 15" width="100%" height="30px" preserveAspectRatio="xMaxYMin meet">
         <g id="arrow_out" transform="scale(0.3 0.3)">
          <a xlink:href="classChaserPattern__coll__graph_org.svg" target="_base">
           <rect id="button" ry="5" rx="5" y="6" x="6" height="38" width="38"
                fill="#f2f5e9" fill-opacity="0.5" stroke="#606060" stroke-width="1.0"/>
           <path id="arrow"
             d="M 11.500037,31.436501 C 11.940474,20.09759 22.043105,11.32322 32.158766,21.979434 L 37.068811,17.246167 C 37.068811,17.246167 37.088388,32 37.088388,32 L 22.160133,31.978069 C 22.160133,31.978069 26.997745,27.140456 26.997745,27.140456 C 18.528582,18.264221 13.291696,25.230495 11.500037,31.436501 z"
             style="fill:#404040;"/>
          </a>
         </g>
        </svg>
</svg>
