<?xml version="1.0" encoding="UTF-8" standalone="no"?>
<!DOCTYPE svg PUBLIC "-//W3C//DTD SVG 1.1//EN"
 "http://www.w3.org/Graphics/SVG/1.1/DTD/svg11.dtd">
<!-- Generated by graphviz version 2.43.0 (0)
 -->
<!-- Title: DripMorphPattern Pages: 1 -->
<!--zoomable 1216 -->
<svg id="main" version="1.1" xmlns="http://www.w3.org/2000/svg" xmlns:xlink="http://www.w3.org/1999/xlink" xml:space="preserve" onload="init(evt)">
<style type="text/css"><![CDATA[
.edge:hover path { stroke: red; }
.edge:hover polygon { stroke: red; fill: red; }
]]></style>
<script type="text/javascript"><![CDATA[
var edges = document.getElementsByTagName('g');
if (edges && edges.length) {
  for (var i=0;i<edges.length;i++) {
    if (edges[i].id.substr(0,4)=='edge') {
      edges[i].setAttribute('class','edge');
    }
  }
}
]]></script>
        <defs>
                <circle id="rim" cx="0" cy="0" r="7"/>
                <circle id="rim2" cx="0" cy="0" r="3.5"/>
                <g id="zoomPlus">
                        <use xlink:href="#rim" fill="#404040">
                                <set attributeName="fill" to="#808080" begin="zoomplus.mouseover" end="zoomplus.mouseout"/>
                        </use>
                        <path d="M-4,0h8M0,-4v8" fill="none" stroke="white" stroke-width="1.5" pointer-events="none"/>
                </g>
                <g id="zoomMin">
                        <use xlink:href="#rim" fill="#404040">
                                <set attributeName="fill" to="#808080" begin="zoomminus.mouseover" end="zoomminus.mouseout"/>
                        </use>
                        <path d="M-4,0h8" fill="none" stroke="white" stroke-width="1.5" pointer-events="none"/>
                </g>
                <g id="dirArrow">
                        <path fill="none" stroke="white" stroke-width="1.5" d="M0,-3.0v7 M-2.5,-0.5L0,-3.0L2.5,-0.5"/>
                </g>
               <g id="resetDef">
                       <use xlink:href="#rim2" fill="#404040">
                               <set attributeName="fill" to="#808080" begin="reset.mouseover" end="reset.mouseout"/>
                       </use>
               </g>
        </defs>

<script type="text/javascript">
var viewWidth = 1682;
var viewHeight = 1216;
var sectionId = 'dynsection-1';
</script>
<script xlink:href="svgpan.js"/>
<svg id="graph" class="graph">
<g id="viewport">
<title>DripMorphPattern</title>
<!-- Node1 -->
<g id="node1" class="node">
<title>Node1</title>
<g id="a_node1"><a xlink:title=" ">
<polygon fill="#bfbfbf" stroke="black" points="1572,-1111.71 1572,-1130.71 1674,-1130.71 1674,-1111.71 1572,-1111.71"/>
<text text-anchor="middle" x="1623" y="-1118.71" font-family="Helvetica,sans-Serif" font-size="10.00">DripMorphPattern</text>
</a>
</g>
</g>
<!-- Node2 -->
<g id="node2" class="node">
<title>Node2</title>
<g id="a_node2"><a xlink:href="classMultiLedPattern.html" target="_top" xlink:title=" ">
<polygon fill="none" stroke="black" points="629.5,-1149.71 629.5,-1168.71 722.5,-1168.71 722.5,-1149.71 629.5,-1149.71"/>
<text text-anchor="middle" x="676" y="-1156.71" font-family="Helvetica,sans-Serif" font-size="10.00">MultiLedPattern</text>
</a>
</g>
</g>
<!-- Node2&#45;&gt;Node1 -->
<g id="edge1" class="edge">
<title>Node2&#45;&gt;Node1</title>
<path fill="none" stroke="midnightblue" d="M733.03,-1159.21C780.65,-1159.21 850.8,-1159.21 912,-1159.21 912,-1159.21 912,-1159.21 1397,-1159.21 1467.05,-1159.21 1485.55,-1160.1 1554,-1145.21 1569.54,-1141.83 1586.39,-1135.9 1599.44,-1130.78"/>
<polygon fill="midnightblue" stroke="midnightblue" points="732.93,-1155.71 722.93,-1159.21 732.93,-1162.71 732.93,-1155.71"/>
</g>
<!-- Node3 -->
<g id="node3" class="node">
<title>Node3</title>
<g id="a_node3"><a xlink:href="classPattern.html" target="_top" xlink:title=" ">
<polygon fill="none" stroke="black" points="343,-1037.71 343,-1056.71 394,-1056.71 394,-1037.71 343,-1037.71"/>
<text text-anchor="middle" x="368.5" y="-1044.71" font-family="Helvetica,sans-Serif" font-size="10.00">Pattern</text>
</a>
</g>
</g>
<!-- Node3&#45;&gt;Node2 -->
<g id="edge2" class="edge">
<title>Node3&#45;&gt;Node2</title>
<path fill="none" stroke="midnightblue" d="M403.9,-1059.82C465.54,-1082.42 593.53,-1129.35 648.73,-1149.58"/>
<polygon fill="midnightblue" stroke="midnightblue" points="404.84,-1056.44 394.24,-1056.28 402.43,-1063.01 404.84,-1056.44"/>
</g>
<!-- Node18 -->
<g id="node18" class="node">
<title>Node18</title>
<g id="a_node18"><a xlink:href="classMode.html" target="_top" xlink:title=" ">
<polygon fill="none" stroke="black" points="544,-986.71 544,-1005.71 588,-1005.71 588,-986.71 544,-986.71"/>
<text text-anchor="middle" x="566" y="-993.71" font-family="Helvetica,sans-Serif" font-size="10.00">Mode</text>
</a>
</g>
</g>
<!-- Node3&#45;&gt;Node18 -->
<g id="edge32" class="edge">
<title>Node3&#45;&gt;Node18</title>
<path fill="none" stroke="#9a32cd" stroke-dasharray="5,2" d="M403.95,-1038.22C444.37,-1027.68 510.11,-1010.53 543.73,-1001.76"/>
<polygon fill="#9a32cd" stroke="#9a32cd" points="403.05,-1034.84 394.26,-1040.75 404.82,-1041.61 403.05,-1034.84"/>
<text text-anchor="middle" x="481.5" y="-1027.21" font-family="Helvetica,sans-Serif" font-size="10.00"> m_multiPat</text>
</g>
<!-- Node4 -->
<g id="node4" class="node">
<title>Node4</title>
<g id="a_node4"><a xlink:href="classVortexEngine.html" target="_top" xlink:title=" ">
<polygon fill="none" stroke="black" points="1148,-689.71 1148,-708.71 1229,-708.71 1229,-689.71 1148,-689.71"/>
<text text-anchor="middle" x="1188.5" y="-696.71" font-family="Helvetica,sans-Serif" font-size="10.00">VortexEngine</text>
</a>
</g>
</g>
<!-- Node4&#45;&gt;Node3 -->
<g id="edge3" class="edge">
<title>Node4&#45;&gt;Node3</title>
<path fill="none" stroke="#9a32cd" stroke-dasharray="5,2" d="M1147.32,-686.84C1113.34,-677.47 1063.2,-666.21 1018.5,-666.21 565,-666.21 565,-666.21 565,-666.21 392.89,-666.21 372.19,-977.78 369.8,-1037.41"/>
<polygon fill="#9a32cd" stroke="#9a32cd" points="1146.74,-690.31 1157.32,-689.67 1148.65,-683.58 1146.74,-690.31"/>
<text text-anchor="middle" x="800" y="-669.21" font-family="Helvetica,sans-Serif" font-size="10.00"> m_engine</text>
</g>
<!-- Node4&#45;&gt;Node4 -->
<g id="edge14" class="edge">
<title>Node4&#45;&gt;Node4</title>
<path fill="none" stroke="#9a32cd" stroke-dasharray="5,2" d="M1173.03,-718.98C1174.25,-723.71 1179.4,-727.21 1188.5,-727.21 1203.43,-727.21 1207.75,-717.78 1201.45,-708.97"/>
<polygon fill="#9a32cd" stroke="#9a32cd" points="1176.5,-719.52 1175.55,-708.97 1169.72,-717.81 1176.5,-719.52"/>
<text text-anchor="middle" x="1188.5" y="-730.21" font-family="Helvetica,sans-Serif" font-size="10.00"> m_engine</text>
</g>
<!-- Node5 -->
<g id="node5" class="node">
<title>Node5</title>
<g id="a_node5"><a xlink:href="classVLReceiver.html" target="_top" xlink:title=" ">
<polygon fill="none" stroke="black" points="1360.5,-587.71 1360.5,-606.71 1431.5,-606.71 1431.5,-587.71 1360.5,-587.71"/>
<text text-anchor="middle" x="1396" y="-594.71" font-family="Helvetica,sans-Serif" font-size="10.00">VLReceiver</text>
</a>
</g>
</g>
<!-- Node4&#45;&gt;Node5 -->
<g id="edge5" class="edge">
<title>Node4&#45;&gt;Node5</title>
<path fill="none" stroke="#9a32cd" stroke-dasharray="5,2" d="M1194.52,-679.75C1201.75,-656.2 1217.58,-617.55 1247,-600.21 1281.43,-579.92 1328.64,-583.18 1360.4,-588.86"/>
<polygon fill="#9a32cd" stroke="#9a32cd" points="1191.07,-679.08 1191.71,-689.66 1197.81,-680.99 1191.07,-679.08"/>
<text text-anchor="middle" x="1291" y="-603.21" font-family="Helvetica,sans-Serif" font-size="10.00"> m_engine</text>
</g>
<!-- Node7 -->
<g id="node7" class="node">
<title>Node7</title>
<g id="a_node7"><a xlink:href="classStorage.html" target="_top" xlink:title=" ">
<polygon fill="none" stroke="black" points="1369,-996.71 1369,-1015.71 1423,-1015.71 1423,-996.71 1369,-996.71"/>
<text text-anchor="middle" x="1396" y="-1003.71" font-family="Helvetica,sans-Serif" font-size="10.00">Storage</text>
</a>
</g>
</g>
<!-- Node4&#45;&gt;Node7 -->
<g id="edge8" class="edge">
<title>Node4&#45;&gt;Node7</title>
<path fill="none" stroke="#9a32cd" stroke-dasharray="5,2" d="M1190.47,-719.28C1193.8,-778.95 1206.86,-953.44 1247,-990.21 1264.25,-1006.01 1331.09,-1007.47 1368.77,-1006.96"/>
<polygon fill="#9a32cd" stroke="#9a32cd" points="1193.95,-718.75 1189.93,-708.95 1186.96,-719.12 1193.95,-718.75"/>
<text text-anchor="middle" x="1291" y="-1009.21" font-family="Helvetica,sans-Serif" font-size="10.00"> m_engine</text>
</g>
<!-- Node8 -->
<g id="node8" class="node">
<title>Node8</title>
<g id="a_node8"><a xlink:href="classIRSender.html" target="_top" xlink:title=" ">
<polygon fill="none" stroke="black" points="1366,-359.71 1366,-378.71 1426,-378.71 1426,-359.71 1366,-359.71"/>
<text text-anchor="middle" x="1396" y="-366.71" font-family="Helvetica,sans-Serif" font-size="10.00">IRSender</text>
</a>
</g>
</g>
<!-- Node4&#45;&gt;Node8 -->
<g id="edge10" class="edge">
<title>Node4&#45;&gt;Node8</title>
<path fill="none" stroke="#9a32cd" stroke-dasharray="5,2" d="M1190.54,-679.64C1194.1,-619.84 1207.89,-441.2 1247,-401.21 1251.17,-396.95 1323.82,-382.64 1365.75,-374.68"/>
<polygon fill="#9a32cd" stroke="#9a32cd" points="1187.04,-679.47 1189.97,-689.65 1194.03,-679.86 1187.04,-679.47"/>
<text text-anchor="middle" x="1291" y="-404.21" font-family="Helvetica,sans-Serif" font-size="10.00"> m_engine</text>
</g>
<!-- Node11 -->
<g id="node11" class="node">
<title>Node11</title>
<g id="a_node11"><a xlink:href="classButtons.html" target="_top" xlink:title=" ">
<polygon fill="none" stroke="black" points="1596,-783.71 1596,-802.71 1650,-802.71 1650,-783.71 1596,-783.71"/>
<text text-anchor="middle" x="1623" y="-790.71" font-family="Helvetica,sans-Serif" font-size="10.00">Buttons</text>
</a>
</g>
</g>
<!-- Node4&#45;&gt;Node11 -->
<g id="edge16" class="edge">
<title>Node4&#45;&gt;Node11</title>
<path fill="none" stroke="#9a32cd" stroke-dasharray="5,2" d="M1191.64,-679.55C1197.41,-630.49 1215.09,-504.82 1247,-480.21 1277.97,-456.32 1296.07,-476.5 1335,-480.21 1381.86,-484.68 1400.19,-473.59 1439,-500.21 1549.29,-575.87 1606.3,-742.05 1619.16,-783.63"/>
<polygon fill="#9a32cd" stroke="#9a32cd" points="1188.15,-679.21 1190.5,-689.54 1195.11,-680 1188.15,-679.21"/>
<text text-anchor="middle" x="1396" y="-503.21" font-family="Helvetica,sans-Serif" font-size="10.00"> m_engine</text>
</g>
<!-- Node12 -->
<g id="node12" class="node">
<title>Node12</title>
<g id="a_node12"><a xlink:href="classButton.html" target="_top" xlink:title=" ">
<polygon fill="none" stroke="black" points="1371.5,-822.71 1371.5,-841.71 1420.5,-841.71 1420.5,-822.71 1371.5,-822.71"/>
<text text-anchor="middle" x="1396" y="-829.71" font-family="Helvetica,sans-Serif" font-size="10.00">Button</text>
</a>
</g>
</g>
<!-- Node4&#45;&gt;Node12 -->
<g id="edge18" class="edge">
<title>Node4&#45;&gt;Node12</title>
<path fill="none" stroke="#9a32cd" stroke-dasharray="5,2" d="M1194.6,-718.68C1201.96,-742.76 1217.98,-783.13 1247,-804.21 1266.52,-818.39 1334.77,-826.68 1371.38,-830.2"/>
<polygon fill="#9a32cd" stroke="#9a32cd" points="1197.91,-717.55 1191.81,-708.89 1191.18,-719.47 1197.91,-717.55"/>
<text text-anchor="middle" x="1291" y="-829.21" font-family="Helvetica,sans-Serif" font-size="10.00"> m_engine</text>
</g>
<!-- Node13 -->
<g id="node13" class="node">
<title>Node13</title>
<g id="a_node13"><a xlink:href="classLeds.html" target="_top" xlink:title=" ">
<polygon fill="none" stroke="black" points="1376.5,-670.71 1376.5,-689.71 1415.5,-689.71 1415.5,-670.71 1376.5,-670.71"/>
<text text-anchor="middle" x="1396" y="-677.71" font-family="Helvetica,sans-Serif" font-size="10.00">Leds</text>
</a>
</g>
</g>
<!-- Node4&#45;&gt;Node13 -->
<g id="edge20" class="edge">
<title>Node4&#45;&gt;Node13</title>
<path fill="none" stroke="#9a32cd" stroke-dasharray="5,2" d="M1213.33,-684.6C1223.34,-679.27 1235.36,-673.9 1247,-671.21 1292.65,-660.69 1348.2,-669.68 1376.49,-675.75"/>
<polygon fill="#9a32cd" stroke="#9a32cd" points="1211.42,-681.66 1204.41,-689.61 1214.84,-687.76 1211.42,-681.66"/>
<text text-anchor="middle" x="1291" y="-674.21" font-family="Helvetica,sans-Serif" font-size="10.00"> m_engine</text>
</g>
<!-- Node14 -->
<g id="node14" class="node">
<title>Node14</title>
<g id="a_node14"><a xlink:href="classPatternBuilder.html" target="_top" xlink:title=" ">
<polygon fill="none" stroke="black" points="1353,-520.71 1353,-539.71 1439,-539.71 1439,-520.71 1353,-520.71"/>
<text text-anchor="middle" x="1396" y="-527.71" font-family="Helvetica,sans-Serif" font-size="10.00">PatternBuilder</text>
</a>
</g>
</g>
<!-- Node4&#45;&gt;Node14 -->
<g id="edge22" class="edge">
<title>Node4&#45;&gt;Node14</title>
<path fill="none" stroke="#9a32cd" stroke-dasharray="5,2" d="M1192.08,-679.44C1198.61,-632.89 1217.38,-518.61 1247,-496.21 1288.43,-464.89 1353.74,-501.91 1381.64,-520.63"/>
<polygon fill="#9a32cd" stroke="#9a32cd" points="1188.59,-679.11 1190.72,-689.49 1195.53,-680.05 1188.59,-679.11"/>
<text text-anchor="middle" x="1291" y="-499.21" font-family="Helvetica,sans-Serif" font-size="10.00"> m_engine</text>
</g>
<!-- Node15 -->
<g id="node15" class="node">
<title>Node15</title>
<g id="a_node15"><a xlink:href="classVLSender.html" target="_top" xlink:title=" ">
<polygon fill="none" stroke="black" points="1365,-231.71 1365,-250.71 1427,-250.71 1427,-231.71 1365,-231.71"/>
<text text-anchor="middle" x="1396" y="-238.71" font-family="Helvetica,sans-Serif" font-size="10.00">VLSender</text>
</a>
</g>
</g>
<!-- Node4&#45;&gt;Node15 -->
<g id="edge24" class="edge">
<title>Node4&#45;&gt;Node15</title>
<path fill="none" stroke="#9a32cd" stroke-dasharray="5,2" d="M1189.3,-679.65C1188.96,-604.36 1191.67,-334.45 1247,-274.21 1249.01,-272.02 1322.16,-256.43 1364.85,-247.48"/>
<polygon fill="#9a32cd" stroke="#9a32cd" points="1185.8,-679.68 1189.37,-689.66 1192.8,-679.63 1185.8,-679.68"/>
<text text-anchor="middle" x="1291" y="-277.21" font-family="Helvetica,sans-Serif" font-size="10.00"> m_engine</text>
</g>
<!-- Node16 -->
<g id="node16" class="node">
<title>Node16</title>
<g id="a_node16"><a xlink:href="classModes.html" target="_top" xlink:title=" ">
<polygon fill="none" stroke="black" points="993,-703.71 993,-722.71 1042,-722.71 1042,-703.71 993,-703.71"/>
<text text-anchor="middle" x="1017.5" y="-710.71" font-family="Helvetica,sans-Serif" font-size="10.00">Modes</text>
</a>
</g>
</g>
<!-- Node4&#45;&gt;Node16 -->
<g id="edge28" class="edge">
<title>Node4&#45;&gt;Node16</title>
<path fill="none" stroke="#9a32cd" stroke-dasharray="5,2" d="M1137.71,-710.2C1135.11,-710.59 1132.53,-710.93 1130,-711.21 1099.79,-714.6 1064.7,-714.59 1042.08,-714.07"/>
<polygon fill="#9a32cd" stroke="#9a32cd" points="1138.47,-713.62 1147.75,-708.52 1137.31,-706.72 1138.47,-713.62"/>
<text text-anchor="middle" x="1104" y="-717.21" font-family="Helvetica,sans-Serif" font-size="10.00"> m_engine</text>
</g>
<!-- Node17 -->
<g id="node17" class="node">
<title>Node17</title>
<g id="a_node17"><a xlink:href="classModes_1_1ModeLink.html" target="_top" xlink:title=" ">
<polygon fill="none" stroke="black" points="749,-726.71 749,-745.71 851,-745.71 851,-726.71 749,-726.71"/>
<text text-anchor="middle" x="800" y="-733.71" font-family="Helvetica,sans-Serif" font-size="10.00">Modes::ModeLink</text>
</a>
</g>
</g>
<!-- Node4&#45;&gt;Node17 -->
<g id="edge33" class="edge">
<title>Node4&#45;&gt;Node17</title>
<path fill="none" stroke="#9a32cd" stroke-dasharray="5,2" d="M1164.39,-713.9C1154.22,-719.65 1141.91,-725.7 1130,-729.21 1018.52,-762.06 984.97,-752.85 869,-745.21 863.18,-744.83 857.09,-744.26 851.06,-743.6"/>
<polygon fill="#9a32cd" stroke="#9a32cd" points="1166.22,-716.88 1173.04,-708.78 1162.65,-710.86 1166.22,-716.88"/>
<text text-anchor="middle" x="1017.5" y="-756.21" font-family="Helvetica,sans-Serif" font-size="10.00"> m_engine</text>
</g>
<!-- Node4&#45;&gt;Node18 -->
<g id="edge31" class="edge">
<title>Node4&#45;&gt;Node18</title>
<path fill="none" stroke="#9a32cd" stroke-dasharray="5,2" d="M1171.32,-716.07C1160.38,-726.82 1145.2,-740.5 1130,-750.21 934.52,-875.16 664.81,-965.37 588.11,-989.67"/>
<polygon fill="#9a32cd" stroke="#9a32cd" points="1173.92,-718.43 1178.48,-708.87 1168.95,-713.5 1173.92,-718.43"/>
<text text-anchor="middle" x="913" y="-886.21" font-family="Helvetica,sans-Serif" font-size="10.00"> m_engine</text>
</g>
<!-- Node19 -->
<g id="node19" class="node">
<title>Node19</title>
<g id="a_node19"><a xlink:href="classSerialComs.html" target="_top" xlink:title=" ">
<polygon fill="none" stroke="black" points="1360,-862.71 1360,-881.71 1432,-881.71 1432,-862.71 1360,-862.71"/>
<text text-anchor="middle" x="1396" y="-869.71" font-family="Helvetica,sans-Serif" font-size="10.00">SerialComs</text>
</a>
</g>
</g>
<!-- Node4&#45;&gt;Node19 -->
<g id="edge37" class="edge">
<title>Node4&#45;&gt;Node19</title>
<path fill="none" stroke="#9a32cd" stroke-dasharray="5,2" d="M1191.99,-719.31C1196.86,-749.79 1210.58,-807.4 1247,-838.21 1249.19,-840.06 1316.77,-855.11 1359.85,-864.55"/>
<polygon fill="#9a32cd" stroke="#9a32cd" points="1195.4,-718.48 1190.52,-709.07 1188.47,-719.47 1195.4,-718.48"/>
<text text-anchor="middle" x="1291" y="-860.21" font-family="Helvetica,sans-Serif" font-size="10.00"> m_engine</text>
</g>
<!-- Node20 -->
<g id="node20" class="node">
<title>Node20</title>
<g id="a_node20"><a xlink:href="classVortex.html" target="_top" xlink:title=" ">
<polygon fill="none" stroke="black" points="1372,-138.71 1372,-157.71 1420,-157.71 1420,-138.71 1372,-138.71"/>
<text text-anchor="middle" x="1396" y="-145.71" font-family="Helvetica,sans-Serif" font-size="10.00">Vortex</text>
</a>
</g>
</g>
<!-- Node4&#45;&gt;Node20 -->
<g id="edge40" class="edge">
<title>Node4&#45;&gt;Node20</title>
<path fill="none" stroke="#9a32cd" stroke-dasharray="5,2" d="M1191.11,-679.12C1198.59,-586.47 1230.38,-204.21 1247,-185.21 1278.39,-149.33 1338.8,-145.61 1371.91,-146.57"/>
<polygon fill="#9a32cd" stroke="#9a32cd" points="1187.59,-679.12 1190.28,-689.36 1194.57,-679.68 1187.59,-679.12"/>
<text text-anchor="middle" x="1291" y="-188.21" font-family="Helvetica,sans-Serif" font-size="10.00"> m_engine</text>
</g>
<!-- Node23 -->
<g id="node23" class="node">
<title>Node23</title>
<g id="a_node23"><a xlink:href="classIRReceiver.html" target="_top" xlink:title=" ">
<polygon fill="none" stroke="black" points="1361.5,-36.71 1361.5,-55.71 1430.5,-55.71 1430.5,-36.71 1361.5,-36.71"/>
<text text-anchor="middle" x="1396" y="-43.71" font-family="Helvetica,sans-Serif" font-size="10.00">IRReceiver</text>
</a>
</g>
</g>
<!-- Node4&#45;&gt;Node23 -->
<g id="edge44" class="edge">
<title>Node4&#45;&gt;Node23</title>
<path fill="none" stroke="#9a32cd" stroke-dasharray="5,2" d="M1191.4,-679.6C1197.24,-619.2 1215.34,-430.6 1229,-274.21 1231.13,-249.78 1229.42,-71.31 1247,-54.21 1276.7,-25.32 1327.58,-29.61 1361.25,-36.76"/>
<polygon fill="#9a32cd" stroke="#9a32cd" points="1187.91,-679.35 1190.43,-689.64 1194.88,-680.02 1187.91,-679.35"/>
<text text-anchor="middle" x="1291" y="-57.21" font-family="Helvetica,sans-Serif" font-size="10.00"> m_engine</text>
</g>
<!-- Node24 -->
<g id="node24" class="node">
<title>Node24</title>
<g id="a_node24"><a xlink:href="classTime.html" target="_top" xlink:title=" ">
<polygon fill="none" stroke="black" points="1375.5,-730.71 1375.5,-749.71 1416.5,-749.71 1416.5,-730.71 1375.5,-730.71"/>
<text text-anchor="middle" x="1396" y="-737.71" font-family="Helvetica,sans-Serif" font-size="10.00">Time</text>
</a>
</g>
</g>
<!-- Node4&#45;&gt;Node24 -->
<g id="edge47" class="edge">
<title>Node4&#45;&gt;Node24</title>
<path fill="none" stroke="#9a32cd" stroke-dasharray="5,2" d="M1239,-709.09C1282.75,-717.82 1344.3,-730.1 1375.39,-736.3"/>
<polygon fill="#9a32cd" stroke="#9a32cd" points="1239.61,-705.64 1229.12,-707.12 1238.24,-712.51 1239.61,-705.64"/>
<text text-anchor="middle" x="1291" y="-731.21" font-family="Helvetica,sans-Serif" font-size="10.00"> m_engine</text>
</g>
<!-- Node25 -->
<g id="node25" class="node">
<title>Node25</title>
<g id="a_node25"><a xlink:href="classMenus.html" target="_top" xlink:title=" ">
<polygon fill="none" stroke="black" points="1598.5,-957.71 1598.5,-976.71 1647.5,-976.71 1647.5,-957.71 1598.5,-957.71"/>
<text text-anchor="middle" x="1623" y="-964.71" font-family="Helvetica,sans-Serif" font-size="10.00">Menus</text>
</a>
</g>
</g>
<!-- Node4&#45;&gt;Node25 -->
<g id="edge49" class="edge">
<title>Node4&#45;&gt;Node25</title>
<path fill="none" stroke="#9a32cd" stroke-dasharray="5,2" d="M1188.62,-718.84C1187.94,-759.98 1192.66,-855.49 1247,-904.21 1250.22,-907.1 1549.74,-954.48 1554,-955.21 1568.77,-957.74 1585.33,-960.66 1598.41,-962.99"/>
<polygon fill="#9a32cd" stroke="#9a32cd" points="1192.12,-718.86 1188.92,-708.76 1185.12,-718.65 1192.12,-718.86"/>
<text text-anchor="middle" x="1396" y="-938.21" font-family="Helvetica,sans-Serif" font-size="10.00"> m_engine</text>
</g>
<!-- Node26 -->
<g id="node26" class="node">
<title>Node26</title>
<g id="a_node26"><a xlink:href="classMenu.html" target="_top" xlink:title=" ">
<polygon fill="none" stroke="black" points="1374,-1035.71 1374,-1054.71 1418,-1054.71 1418,-1035.71 1374,-1035.71"/>
<text text-anchor="middle" x="1396" y="-1042.71" font-family="Helvetica,sans-Serif" font-size="10.00">Menu</text>
</a>
</g>
</g>
<!-- Node4&#45;&gt;Node26 -->
<g id="edge53" class="edge">
<title>Node4&#45;&gt;Node26</title>
<path fill="none" stroke="#9a32cd" stroke-dasharray="5,2" d="M1190.15,-719.2C1192.64,-782.77 1203.75,-978.65 1247,-1021.21 1264.58,-1038.51 1337.23,-1043.35 1373.79,-1044.7"/>
<polygon fill="#9a32cd" stroke="#9a32cd" points="1193.64,-718.8 1189.78,-708.93 1186.64,-719.05 1193.64,-718.8"/>
<text text-anchor="middle" x="1291" y="-1045.21" font-family="Helvetica,sans-Serif" font-size="10.00"> m_engine</text>
</g>
<!-- Node30 -->
<g id="node30" class="node">
<title>Node30</title>
<g id="a_node30"><a xlink:href="classTimer.html" target="_top" xlink:title=" ">
<polygon fill="none" stroke="black" points="1373.5,-1073.71 1373.5,-1092.71 1418.5,-1092.71 1418.5,-1073.71 1373.5,-1073.71"/>
<text text-anchor="middle" x="1396" y="-1080.71" font-family="Helvetica,sans-Serif" font-size="10.00">Timer</text>
</a>
</g>
</g>
<!-- Node4&#45;&gt;Node30 -->
<g id="edge58" class="edge">
<title>Node4&#45;&gt;Node30</title>
<path fill="none" stroke="#9a32cd" stroke-dasharray="5,2" d="M1189.78,-719.15C1191.15,-787.21 1199.28,-1008.79 1247,-1057.21 1280.33,-1091.03 1341.07,-1089.9 1373.4,-1086.43"/>
<polygon fill="#9a32cd" stroke="#9a32cd" points="1193.27,-718.88 1189.6,-708.94 1186.27,-719 1193.27,-718.88"/>
<text text-anchor="middle" x="1291" y="-1090.21" font-family="Helvetica,sans-Serif" font-size="10.00"> m_engine</text>
</g>
<!-- Node5&#45;&gt;Node4 -->
<g id="edge4" class="edge">
<title>Node5&#45;&gt;Node4</title>
<path fill="none" stroke="#9a32cd" stroke-dasharray="5,2" d="M1350.51,-609.52C1320.21,-618.9 1279.8,-633.41 1247,-652.21 1228.66,-662.73 1210.22,-679.06 1199.33,-689.44"/>
<polygon fill="#9a32cd" stroke="#9a32cd" points="1351.82,-612.78 1360.38,-606.54 1349.79,-606.08 1351.82,-612.78"/>
<text text-anchor="middle" x="1291" y="-655.21" font-family="Helvetica,sans-Serif" font-size="10.00"> m_vlReceiver</text>
</g>
<!-- Node6 -->
<g id="node6" class="node">
<title>Node6</title>
<g id="a_node6"><a xlink:href="classBitStream.html" target="_top" xlink:title=" ">
<polygon fill="none" stroke="black" points="1156,-245.71 1156,-264.71 1221,-264.71 1221,-245.71 1156,-245.71"/>
<text text-anchor="middle" x="1188.5" y="-252.71" font-family="Helvetica,sans-Serif" font-size="10.00">BitStream</text>
</a>
</g>
</g>
<!-- Node6&#45;&gt;Node5 -->
<g id="edge6" class="edge">
<title>Node6&#45;&gt;Node5</title>
<path fill="none" stroke="#9a32cd" stroke-dasharray="5,2" d="M1191.38,-275.14C1196.84,-328.69 1214.38,-473.91 1247,-507.21 1275.21,-536.01 1300.55,-508.26 1335,-529.21 1335.82,-529.71 1370.2,-568.9 1386.54,-587.55"/>
<polygon fill="#9a32cd" stroke="#9a32cd" points="1194.84,-274.52 1190.37,-264.91 1187.87,-275.21 1194.84,-274.52"/>
<text text-anchor="middle" x="1291" y="-532.21" font-family="Helvetica,sans-Serif" font-size="10.00"> m_vlData</text>
</g>
<!-- Node6&#45;&gt;Node8 -->
<g id="edge11" class="edge">
<title>Node6&#45;&gt;Node8</title>
<path fill="none" stroke="#9a32cd" stroke-dasharray="5,2" d="M1213.25,-270.2C1223.37,-276.12 1235.47,-282.58 1247,-287.21 1284.52,-302.27 1299.84,-290.25 1335,-310.21 1357.61,-323.05 1377.79,-346.56 1387.98,-359.69"/>
<polygon fill="#9a32cd" stroke="#9a32cd" points="1214.97,-267.15 1204.6,-265 1211.36,-273.15 1214.97,-267.15"/>
<text text-anchor="middle" x="1291" y="-313.21" font-family="Helvetica,sans-Serif" font-size="10.00"> m_bitStream</text>
</g>
<!-- Node6&#45;&gt;Node15 -->
<g id="edge25" class="edge">
<title>Node6&#45;&gt;Node15</title>
<path fill="none" stroke="#9a32cd" stroke-dasharray="5,2" d="M1204.49,-237.98C1215.11,-227.15 1230.39,-214.14 1247,-208.21 1283.84,-195.07 1297.12,-198.48 1335,-208.21 1352.5,-212.71 1370.37,-223.5 1382,-231.52"/>
<polygon fill="#9a32cd" stroke="#9a32cd" points="1201.87,-235.65 1197.62,-245.36 1207,-240.43 1201.87,-235.65"/>
<text text-anchor="middle" x="1291" y="-211.21" font-family="Helvetica,sans-Serif" font-size="10.00"> m_bitStream</text>
</g>
<!-- Node6&#45;&gt;Node23 -->
<g id="edge45" class="edge">
<title>Node6&#45;&gt;Node23</title>
<path fill="none" stroke="#9a32cd" stroke-dasharray="5,2" d="M1194.77,-235.52C1202.6,-205.99 1217.62,-148.45 1229,-99.21 1237.79,-61.16 1216.69,-37.83 1247,-13.21 1287.25,19.49 1353.2,-17.68 1381.45,-36.55"/>
<polygon fill="#9a32cd" stroke="#9a32cd" points="1191.33,-234.83 1192.14,-245.39 1198.09,-236.63 1191.33,-234.83"/>
<text text-anchor="middle" x="1291" y="-16.21" font-family="Helvetica,sans-Serif" font-size="10.00"> m_irData</text>
</g>
<!-- Node7&#45;&gt;Node4 -->
<g id="edge7" class="edge">
<title>Node7&#45;&gt;Node4</title>
<path fill="none" stroke="#9a32cd" stroke-dasharray="5,2" d="M1366.56,-992.24C1356.71,-987.72 1345.5,-982.92 1335,-979.21 1296.88,-965.76 1275.07,-985.3 1247,-956.21 1211.52,-919.45 1194.16,-750.99 1190.33,-708.81"/>
<polygon fill="#9a32cd" stroke="#9a32cd" points="1365.34,-995.53 1375.88,-996.62 1368.32,-989.2 1365.34,-995.53"/>
<text text-anchor="middle" x="1291" y="-982.21" font-family="Helvetica,sans-Serif" font-size="10.00"> m_storage</text>
</g>
<!-- Node8&#45;&gt;Node4 -->
<g id="edge9" class="edge">
<title>Node8&#45;&gt;Node4</title>
<path fill="none" stroke="#9a32cd" stroke-dasharray="5,2" d="M1376.96,-385.69C1365.64,-395.24 1350.33,-406.82 1335,-414.21 1298.59,-431.78 1275.01,-408.07 1247,-437.21 1210.94,-474.73 1194.02,-646.44 1190.3,-689.43"/>
<polygon fill="#9a32cd" stroke="#9a32cd" points="1379.54,-388.08 1384.77,-378.87 1374.94,-382.81 1379.54,-388.08"/>
<text text-anchor="middle" x="1291" y="-440.21" font-family="Helvetica,sans-Serif" font-size="10.00"> m_irSender</text>
</g>
<!-- Node9 -->
<g id="node9" class="node">
<title>Node9</title>
<g id="a_node9"><a xlink:href="classByteStream.html" target="_top" xlink:title=" ">
<polygon fill="none" stroke="black" points="529,-325.71 529,-344.71 603,-344.71 603,-325.71 529,-325.71"/>
<text text-anchor="middle" x="566" y="-332.71" font-family="Helvetica,sans-Serif" font-size="10.00">ByteStream</text>
</a>
</g>
</g>
<!-- Node9&#45;&gt;Node8 -->
<g id="edge12" class="edge">
<title>Node9&#45;&gt;Node8</title>
<path fill="none" stroke="#9a32cd" stroke-dasharray="5,2" d="M613.3,-335.21C660.13,-335.21 734.59,-335.21 799,-335.21 799,-335.21 799,-335.21 1189.5,-335.21 1254.47,-335.21 1271.45,-335.74 1335,-349.21 1346.92,-351.74 1359.79,-355.83 1370.53,-359.66"/>
<polygon fill="#9a32cd" stroke="#9a32cd" points="613.17,-331.71 603.17,-335.21 613.17,-338.71 613.17,-331.71"/>
<text text-anchor="middle" x="1017.5" y="-338.21" font-family="Helvetica,sans-Serif" font-size="10.00"> m_serialBuf</text>
</g>
<!-- Node9&#45;&gt;Node15 -->
<g id="edge26" class="edge">
<title>Node9&#45;&gt;Node15</title>
<path fill="none" stroke="#9a32cd" stroke-dasharray="5,2" d="M579.87,-317.43C611.83,-275.55 699.43,-174.21 799,-174.21 799,-174.21 799,-174.21 1189.5,-174.21 1254.9,-174.21 1274.68,-170.94 1335,-196.21 1354.94,-204.56 1374.25,-221.01 1385.36,-231.53"/>
<polygon fill="#9a32cd" stroke="#9a32cd" points="576.93,-315.52 573.75,-325.62 582.54,-319.7 576.93,-315.52"/>
<text text-anchor="middle" x="1017.5" y="-177.21" font-family="Helvetica,sans-Serif" font-size="10.00"> m_serialBuf</text>
</g>
<!-- Node9&#45;&gt;Node17 -->
<g id="edge34" class="edge">
<title>Node9&#45;&gt;Node17</title>
<path fill="none" stroke="#9a32cd" stroke-dasharray="5,2" d="M574.9,-354.12C597.77,-407.84 667.59,-564.99 749,-681.21 760.99,-698.33 777.83,-715.81 788.58,-726.34"/>
<polygon fill="#9a32cd" stroke="#9a32cd" points="578.08,-352.65 570.96,-344.8 571.63,-355.37 578.08,-352.65"/>
<text text-anchor="middle" x="676" y="-649.21" font-family="Helvetica,sans-Serif" font-size="10.00"> m_storedMode</text>
</g>
<!-- Node10 -->
<g id="node10" class="node">
<title>Node10</title>
<g id="a_node10"><a xlink:href="structByteStream_1_1RawBuffer.html" target="_top" xlink:title=" ">
<polygon fill="none" stroke="black" points="303,-325.71 303,-344.71 434,-344.71 434,-325.71 303,-325.71"/>
<text text-anchor="middle" x="368.5" y="-332.71" font-family="Helvetica,sans-Serif" font-size="10.00">ByteStream::RawBuffer</text>
</a>
</g>
</g>
<!-- Node10&#45;&gt;Node9 -->
<g id="edge13" class="edge">
<title>Node10&#45;&gt;Node9</title>
<path fill="none" stroke="#9a32cd" stroke-dasharray="5,2" d="M444.17,-335.21C473.16,-335.21 505.01,-335.21 528.74,-335.21"/>
<polygon fill="#9a32cd" stroke="#9a32cd" points="444.06,-331.71 434.06,-335.21 444.06,-338.71 444.06,-331.71"/>
<text text-anchor="middle" x="481.5" y="-338.21" font-family="Helvetica,sans-Serif" font-size="10.00"> m_pData</text>
</g>
<!-- Node11&#45;&gt;Node4 -->
<g id="edge15" class="edge">
<title>Node11&#45;&gt;Node4</title>
<path fill="none" stroke="#9a32cd" stroke-dasharray="5,2" d="M1585.81,-794.5C1503.61,-796.85 1305.4,-799.14 1247,-769.21 1220.83,-755.8 1202.21,-724.63 1194.08,-708.8"/>
<polygon fill="#9a32cd" stroke="#9a32cd" points="1586.04,-797.99 1595.93,-794.19 1585.83,-791 1586.04,-797.99"/>
<text text-anchor="middle" x="1396" y="-798.21" font-family="Helvetica,sans-Serif" font-size="10.00"> m_buttons</text>
</g>
<!-- Node12&#45;&gt;Node11 -->
<g id="edge17" class="edge">
<title>Node12&#45;&gt;Node11</title>
<path fill="none" stroke="#9a32cd" stroke-dasharray="5,2" d="M1430.84,-827.27C1462.68,-822.52 1511.68,-814.93 1554,-807.21 1567.87,-804.68 1583.27,-801.54 1595.9,-798.87"/>
<polygon fill="#9a32cd" stroke="#9a32cd" points="1430.11,-823.84 1420.73,-828.77 1431.13,-830.77 1430.11,-823.84"/>
<text text-anchor="middle" x="1505.5" y="-826.21" font-family="Helvetica,sans-Serif" font-size="10.00"> m_buttons</text>
</g>
<!-- Node13&#45;&gt;Node4 -->
<g id="edge19" class="edge">
<title>Node13&#45;&gt;Node4</title>
<path fill="none" stroke="#9a32cd" stroke-dasharray="5,2" d="M1366.22,-682.87C1330.47,-686.18 1269.29,-691.83 1229.12,-695.55"/>
<polygon fill="#9a32cd" stroke="#9a32cd" points="1366.81,-686.33 1376.45,-681.93 1366.17,-679.36 1366.81,-686.33"/>
<text text-anchor="middle" x="1291" y="-697.21" font-family="Helvetica,sans-Serif" font-size="10.00"> m_leds</text>
</g>
<!-- Node14&#45;&gt;Node4 -->
<g id="edge21" class="edge">
<title>Node14&#45;&gt;Node4</title>
<path fill="none" stroke="#9a32cd" stroke-dasharray="5,2" d="M1342.9,-541.98C1303.36,-551.29 1254.53,-563.77 1247,-570.21 1208.99,-602.73 1195.05,-665.34 1190.95,-689.43"/>
<polygon fill="#9a32cd" stroke="#9a32cd" points="1343.78,-545.37 1352.73,-539.68 1342.19,-538.55 1343.78,-545.37"/>
<text text-anchor="middle" x="1291" y="-573.21" font-family="Helvetica,sans-Serif" font-size="10.00"> m_patternBuilder</text>
</g>
<!-- Node15&#45;&gt;Node4 -->
<g id="edge23" class="edge">
<title>Node15&#45;&gt;Node4</title>
<path fill="none" stroke="#9a32cd" stroke-dasharray="5,2" d="M1385.49,-259.65C1375.15,-278.21 1357.11,-306.66 1335,-325.21 1301.8,-353.06 1273.18,-332.67 1247,-367.21 1206.9,-420.13 1192.7,-640.24 1190,-689.43"/>
<polygon fill="#9a32cd" stroke="#9a32cd" points="1388.64,-261.18 1390.29,-250.72 1382.47,-257.87 1388.64,-261.18"/>
<text text-anchor="middle" x="1291" y="-370.21" font-family="Helvetica,sans-Serif" font-size="10.00"> m_vlSender</text>
</g>
<!-- Node16&#45;&gt;Node4 -->
<g id="edge27" class="edge">
<title>Node16&#45;&gt;Node4</title>
<path fill="none" stroke="#9a32cd" stroke-dasharray="5,2" d="M1051.95,-704.64C1060.4,-702.83 1069.48,-701.17 1078,-700.21 1101.05,-697.62 1127,-697.27 1147.85,-697.61"/>
<polygon fill="#9a32cd" stroke="#9a32cd" points="1051.03,-701.26 1042.06,-706.89 1052.58,-708.09 1051.03,-701.26"/>
<text text-anchor="middle" x="1104" y="-703.21" font-family="Helvetica,sans-Serif" font-size="10.00"> m_modes</text>
</g>
<!-- Node17&#45;&gt;Node16 -->
<g id="edge29" class="edge">
<title>Node17&#45;&gt;Node16</title>
<path fill="none" stroke="#9a32cd" stroke-dasharray="5,2" d="M856.46,-725.04C860.69,-724.36 864.91,-723.74 869,-723.21 912.53,-717.6 963.72,-715.02 992.91,-713.93"/>
<polygon fill="#9a32cd" stroke="#9a32cd" points="855.88,-721.59 846.6,-726.71 857.04,-728.49 855.88,-721.59"/>
<text text-anchor="middle" x="913" y="-737.21" font-family="Helvetica,sans-Serif" font-size="10.00"> m_pCurModeLink</text>
<text text-anchor="middle" x="913" y="-726.21" font-family="Helvetica,sans-Serif" font-size="10.00">m_storedModes</text>
</g>
<!-- Node17&#45;&gt;Node17 -->
<g id="edge35" class="edge">
<title>Node17&#45;&gt;Node17</title>
<path fill="none" stroke="#9a32cd" stroke-dasharray="5,2" d="M779.26,-755.61C780.65,-760.53 787.56,-764.21 800,-764.21 819.91,-764.21 825.66,-754.78 817.26,-745.97"/>
<polygon fill="#9a32cd" stroke="#9a32cd" points="782.64,-756.56 782.74,-745.97 776.05,-754.19 782.64,-756.56"/>
<text text-anchor="middle" x="800" y="-778.21" font-family="Helvetica,sans-Serif" font-size="10.00"> m_next</text>
<text text-anchor="middle" x="800" y="-767.21" font-family="Helvetica,sans-Serif" font-size="10.00">m_prev</text>
</g>
<!-- Node18&#45;&gt;Node17 -->
<g id="edge30" class="edge">
<title>Node18&#45;&gt;Node17</title>
<path fill="none" stroke="#9a32cd" stroke-dasharray="5,2" d="M574.77,-977.14C583.96,-955.91 600.6,-921.15 621,-895.21 672.48,-829.74 752.85,-769.06 785.01,-746.01"/>
<polygon fill="#9a32cd" stroke="#9a32cd" points="571.43,-976.07 570.77,-986.64 577.88,-978.79 571.43,-976.07"/>
<text text-anchor="middle" x="676" y="-898.21" font-family="Helvetica,sans-Serif" font-size="10.00"> m_pInstantiatedMode</text>
</g>
<!-- Node18&#45;&gt;Node26 -->
<g id="edge51" class="edge">
<title>Node18&#45;&gt;Node26</title>
<path fill="none" stroke="#9a32cd" stroke-dasharray="5,2" d="M592.8,-1010.64C634.7,-1032.69 720.75,-1072.21 799,-1072.21 799,-1072.21 799,-1072.21 1189.5,-1072.21 1257.33,-1072.21 1336.69,-1057.57 1373.82,-1049.85"/>
<polygon fill="#9a32cd" stroke="#9a32cd" points="594.31,-1007.48 583.84,-1005.84 591,-1013.65 594.31,-1007.48"/>
<text text-anchor="middle" x="1017.5" y="-1075.21" font-family="Helvetica,sans-Serif" font-size="10.00"> m_previewMode</text>
</g>
<!-- Node19&#45;&gt;Node4 -->
<g id="edge36" class="edge">
<title>Node19&#45;&gt;Node4</title>
<path fill="none" stroke="#9a32cd" stroke-dasharray="5,2" d="M1354.66,-884.09C1322.48,-890.98 1277.84,-894.46 1247,-872.21 1192.33,-832.77 1188.83,-739.2 1189.19,-708.88"/>
<polygon fill="#9a32cd" stroke="#9a32cd" points="1355.69,-887.45 1364.64,-881.76 1354.1,-880.63 1355.69,-887.45"/>
<text text-anchor="middle" x="1291" y="-892.21" font-family="Helvetica,sans-Serif" font-size="10.00"> m_serial</text>
</g>
<!-- Node20&#45;&gt;Node4 -->
<g id="edge38" class="edge">
<title>Node20&#45;&gt;Node4</title>
<path fill="none" stroke="#9a32cd" stroke-dasharray="5,2" d="M1384.06,-166.9C1373.54,-183.19 1356.14,-206.2 1335,-219.21 1300.76,-240.29 1273.83,-210.26 1247,-240.21 1215.78,-275.05 1193.76,-626.7 1190.05,-689.61"/>
<polygon fill="#9a32cd" stroke="#9a32cd" points="1387.15,-168.55 1389.43,-158.21 1381.2,-164.87 1387.15,-168.55"/>
<text text-anchor="middle" x="1291" y="-243.21" font-family="Helvetica,sans-Serif" font-size="10.00"> m_vortexLib</text>
</g>
<!-- Node22 -->
<g id="node22" class="node">
<title>Node22</title>
<g id="a_node22"><a xlink:href="classVortexCallbacks.html" target="_top" xlink:title=" ">
<polygon fill="none" stroke="black" points="1575.5,-138.71 1575.5,-157.71 1670.5,-157.71 1670.5,-138.71 1575.5,-138.71"/>
<text text-anchor="middle" x="1623" y="-145.71" font-family="Helvetica,sans-Serif" font-size="10.00">VortexCallbacks</text>
</a>
</g>
</g>
<!-- Node20&#45;&gt;Node22 -->
<g id="edge42" class="edge">
<title>Node20&#45;&gt;Node22</title>
<path fill="none" stroke="#9a32cd" stroke-dasharray="5,2" d="M1430.34,-148.21C1468.66,-148.21 1531.81,-148.21 1575.08,-148.21"/>
<polygon fill="#9a32cd" stroke="#9a32cd" points="1430.23,-144.71 1420.23,-148.21 1430.23,-151.71 1430.23,-144.71"/>
<text text-anchor="middle" x="1505.5" y="-151.21" font-family="Helvetica,sans-Serif" font-size="10.00"> m_vortex</text>
</g>
<!-- Node21 -->
<g id="node21" class="node">
<title>Node21</title>
<g id="a_node21"><a xlink:href="classRandom.html" target="_top" xlink:title=" ">
<polygon fill="none" stroke="black" points="1160,-70.71 1160,-89.71 1217,-89.71 1217,-70.71 1160,-70.71"/>
<text text-anchor="middle" x="1188.5" y="-77.71" font-family="Helvetica,sans-Serif" font-size="10.00">Random</text>
</a>
</g>
</g>
<!-- Node21&#45;&gt;Node20 -->
<g id="edge39" class="edge">
<title>Node21&#45;&gt;Node20</title>
<path fill="none" stroke="#9a32cd" stroke-dasharray="5,2" d="M1227.39,-72.35C1257.85,-67.9 1301.01,-65.88 1335,-81.21 1361.48,-93.15 1381.15,-123.11 1389.93,-138.6"/>
<polygon fill="#9a32cd" stroke="#9a32cd" points="1226.49,-68.95 1217.18,-74.01 1227.61,-75.86 1226.49,-68.95"/>
<text text-anchor="middle" x="1291" y="-84.21" font-family="Helvetica,sans-Serif" font-size="10.00"> m_randCtx</text>
</g>
<!-- Node22&#45;&gt;Node20 -->
<g id="edge41" class="edge">
<title>Node22&#45;&gt;Node20</title>
<path fill="none" stroke="#9a32cd" stroke-dasharray="5,2" d="M1578.4,-136.39C1570.35,-134.65 1561.96,-133.14 1554,-132.21 1511.18,-127.24 1499.75,-126.61 1457,-132.21 1444.6,-133.84 1431.12,-137.27 1420.08,-140.55"/>
<polygon fill="#9a32cd" stroke="#9a32cd" points="1577.85,-139.85 1588.38,-138.68 1579.41,-133.03 1577.85,-139.85"/>
<text text-anchor="middle" x="1505.5" y="-135.21" font-family="Helvetica,sans-Serif" font-size="10.00"> m_storedCallbacks</text>
</g>
<!-- Node23&#45;&gt;Node4 -->
<g id="edge43" class="edge">
<title>Node23&#45;&gt;Node4</title>
<path fill="none" stroke="#9a32cd" stroke-dasharray="5,2" d="M1376.07,-62.44C1364.62,-71.8 1349.49,-83.43 1335,-92.21 1298.1,-114.58 1272,-98.04 1247,-133.21 1238.56,-145.09 1196.81,-616.08 1190.34,-689.61"/>
<polygon fill="#9a32cd" stroke="#9a32cd" points="1378.59,-64.9 1384.03,-55.8 1374.1,-59.52 1378.59,-64.9"/>
<text text-anchor="middle" x="1291" y="-136.21" font-family="Helvetica,sans-Serif" font-size="10.00"> m_irReceiver</text>
</g>
<!-- Node24&#45;&gt;Node4 -->
<g id="edge46" class="edge">
<title>Node24&#45;&gt;Node4</title>
<path fill="none" stroke="#9a32cd" stroke-dasharray="5,2" d="M1365.13,-747.42C1334.54,-753.4 1286.06,-758.91 1247,-745.21 1226.49,-738.02 1207.87,-720.09 1197.66,-708.86"/>
<polygon fill="#9a32cd" stroke="#9a32cd" points="1366.09,-750.8 1375.16,-745.32 1364.65,-743.95 1366.09,-750.8"/>
<text text-anchor="middle" x="1291" y="-757.21" font-family="Helvetica,sans-Serif" font-size="10.00"> m_time</text>
</g>
<!-- Node25&#45;&gt;Node4 -->
<g id="edge48" class="edge">
<title>Node25&#45;&gt;Node4</title>
<path fill="none" stroke="#9a32cd" stroke-dasharray="5,2" d="M1588.09,-966.16C1500.65,-963.15 1272.55,-953.25 1247,-931.21 1212.12,-901.13 1194.49,-748.75 1190.43,-708.81"/>
<polygon fill="#9a32cd" stroke="#9a32cd" points="1588.16,-969.67 1598.27,-966.5 1588.4,-962.67 1588.16,-969.67"/>
<text text-anchor="middle" x="1396" y="-961.21" font-family="Helvetica,sans-Serif" font-size="10.00"> m_menus</text>
</g>
<!-- Node26&#45;&gt;Node25 -->
<g id="edge50" class="edge">
<title>Node26&#45;&gt;Node25</title>
<path fill="none" stroke="#9a32cd" stroke-dasharray="5,2" d="M1427.79,-1034.54C1473.26,-1018.77 1557.41,-989.6 1598.37,-975.4"/>
<polygon fill="#9a32cd" stroke="#9a32cd" points="1426.47,-1031.29 1418.17,-1037.87 1428.76,-1037.91 1426.47,-1031.29"/>
<text text-anchor="middle" x="1505.5" y="-1027.21" font-family="Helvetica,sans-Serif" font-size="10.00"> m_pCurMenu</text>
</g>
<!-- Node27 -->
<g id="node27" class="node">
<title>Node27</title>
<g id="a_node27"><a xlink:href="classRGBColor.html" target="_top" xlink:title=" ">
<polygon fill="none" stroke="black" points="0,-1168.71 0,-1187.71 63,-1187.71 63,-1168.71 0,-1168.71"/>
<text text-anchor="middle" x="31.5" y="-1175.71" font-family="Helvetica,sans-Serif" font-size="10.00">RGBColor</text>
</a>
</g>
</g>
<!-- Node27&#45;&gt;Node26 -->
<g id="edge52" class="edge">
<title>Node27&#45;&gt;Node26</title>
<path fill="none" stroke="#9a32cd" stroke-dasharray="5,2" d="M72.95,-1186.28C102.37,-1191.46 143.24,-1197.21 179.5,-1197.21 179.5,-1197.21 179.5,-1197.21 1189.5,-1197.21 1266.73,-1197.21 1284.23,-1160.41 1335,-1102.21 1347.29,-1088.13 1339.67,-1077.31 1353,-1064.21 1358.71,-1058.6 1366.37,-1054.48 1373.58,-1051.53"/>
<polygon fill="#9a32cd" stroke="#9a32cd" points="73.5,-1182.83 63.04,-1184.49 72.26,-1189.71 73.5,-1182.83"/>
<text text-anchor="middle" x="676" y="-1200.21" font-family="Helvetica,sans-Serif" font-size="10.00"> m_menuColor</text>
</g>
<!-- Node28 -->
<g id="node28" class="node">
<title>Node28</title>
<g id="a_node28"><a xlink:href="classColorset.html" target="_top" xlink:title=" ">
<polygon fill="none" stroke="black" points="152,-1121.71 152,-1140.71 209,-1140.71 209,-1121.71 152,-1121.71"/>
<text text-anchor="middle" x="180.5" y="-1128.71" font-family="Helvetica,sans-Serif" font-size="10.00">Colorset</text>
</a>
</g>
</g>
<!-- Node27&#45;&gt;Node28 -->
<g id="edge55" class="edge">
<title>Node27&#45;&gt;Node28</title>
<path fill="none" stroke="#9a32cd" stroke-dasharray="5,2" d="M71.89,-1165.62C97.12,-1157.55 129.23,-1147.28 151.79,-1140.07"/>
<polygon fill="#9a32cd" stroke="#9a32cd" points="70.71,-1162.32 62.25,-1168.7 72.84,-1168.99 70.71,-1162.32"/>
<text text-anchor="middle" x="107.5" y="-1164.21" font-family="Helvetica,sans-Serif" font-size="10.00"> m_palette</text>
</g>
<!-- Node28&#45;&gt;Node3 -->
<g id="edge54" class="edge">
<title>Node28&#45;&gt;Node3</title>
<path fill="none" stroke="#9a32cd" stroke-dasharray="5,2" d="M212.36,-1117.28C250.28,-1100.15 313.63,-1071.54 346.41,-1056.74"/>
<polygon fill="#9a32cd" stroke="#9a32cd" points="210.51,-1114.27 202.84,-1121.58 213.39,-1120.65 210.51,-1114.27"/>
<text text-anchor="middle" x="256" y="-1111.21" font-family="Helvetica,sans-Serif" font-size="10.00"> m_colorset</text>
</g>
<!-- Node29 -->
<g id="node29" class="node">
<title>Node29</title>
<g id="a_node29"><a xlink:href="classHSVColor.html" target="_top" xlink:title=" ">
<polygon fill="none" stroke="black" points="1365,-1111.71 1365,-1130.71 1427,-1130.71 1427,-1111.71 1365,-1111.71"/>
<text text-anchor="middle" x="1396" y="-1118.71" font-family="Helvetica,sans-Serif" font-size="10.00">HSVColor</text>
</a>
</g>
</g>
<!-- Node29&#45;&gt;Node1 -->
<g id="edge56" class="edge">
<title>Node29&#45;&gt;Node1</title>
<path fill="none" stroke="#9a32cd" stroke-dasharray="5,2" d="M1437.45,-1121.21C1475.14,-1121.21 1531.44,-1121.21 1571.95,-1121.21"/>
<polygon fill="#9a32cd" stroke="#9a32cd" points="1437.34,-1117.71 1427.34,-1121.21 1437.34,-1124.71 1437.34,-1117.71"/>
<text text-anchor="middle" x="1505.5" y="-1135.21" font-family="Helvetica,sans-Serif" font-size="10.00"> m_cur</text>
<text text-anchor="middle" x="1505.5" y="-1124.21" font-family="Helvetica,sans-Serif" font-size="10.00">m_next</text>
</g>
<!-- Node30&#45;&gt;Node1 -->
<g id="edge57" class="edge">
<title>Node30&#45;&gt;Node1</title>
<path fill="none" stroke="#9a32cd" stroke-dasharray="5,2" d="M1428.7,-1087.18C1460.49,-1091.31 1510.79,-1098.29 1554,-1106.21 1562.8,-1107.82 1572.19,-1109.76 1581.1,-1111.69"/>
<polygon fill="#9a32cd" stroke="#9a32cd" points="1429.03,-1083.69 1418.67,-1085.89 1428.14,-1090.63 1429.03,-1083.69"/>
<text text-anchor="middle" x="1505.5" y="-1109.21" font-family="Helvetica,sans-Serif" font-size="10.00"> m_blinkTimer</text>
</g>
</g>
</svg>
        <g id="navigator" transform="translate(0 0)" fill="#404254">
                <rect fill="#f2f5e9" fill-opacity="0.5" stroke="#606060" stroke-width=".5" x="0" y="0" width="60" height="60"/>
                <use id="zoomplus" xlink:href="#zoomPlus" x="17" y="9" onmousedown="handleZoom(evt,'in')"/>
                <use id="zoomminus" xlink:href="#zoomMin" x="42" y="9" onmousedown="handleZoom(evt,'out')"/>
                <use id="reset" xlink:href="#resetDef" x="30" y="36" onmousedown="handleReset()"/>
                <g id="arrowUp" xlink:href="#dirArrow" transform="translate(30 24)" onmousedown="handlePan(0,-1)">
                  <use xlink:href="#rim" fill="#404040">
                        <set attributeName="fill" to="#808080" begin="arrowUp.mouseover" end="arrowUp.mouseout"/>
                  </use>
                  <path fill="none" stroke="white" stroke-width="1.5" d="M0,-3.0v7 M-2.5,-0.5L0,-3.0L2.5,-0.5"/>
                </g>
                <g id="arrowRight" xlink:href="#dirArrow" transform="rotate(90) translate(36 -43)" onmousedown="handlePan(1,0)">
                  <use xlink:href="#rim" fill="#404040">
                        <set attributeName="fill" to="#808080" begin="arrowRight.mouseover" end="arrowRight.mouseout"/>
                  </use>
                  <path fill="none" stroke="white" stroke-width="1.5" d="M0,-3.0v7 M-2.5,-0.5L0,-3.0L2.5,-0.5"/>
                </g>
                <g id="arrowDown" xlink:href="#dirArrow" transform="rotate(180) translate(-30 -48)" onmousedown="handlePan(0,1)">
                  <use xlink:href="#rim" fill="#404040">
                        <set attributeName="fill" to="#808080" begin="arrowDown.mouseover" end="arrowDown.mouseout"/>
                  </use>
                  <path fill="none" stroke="white" stroke-width="1.5" d="M0,-3.0v7 M-2.5,-0.5L0,-3.0L2.5,-0.5"/>
                </g>
                <g id="arrowLeft" xlink:href="#dirArrow" transform="rotate(270) translate(-36 17)" onmousedown="handlePan(-1,0)">
                  <use xlink:href="#rim" fill="#404040">
                        <set attributeName="fill" to="#808080" begin="arrowLeft.mouseover" end="arrowLeft.mouseout"/>
                  </use>
                  <path fill="none" stroke="white" stroke-width="1.5" d="M0,-3.0v7 M-2.5,-0.5L0,-3.0L2.5,-0.5"/>
                </g>
        </g>
        <svg viewBox="0 0 15 15" width="100%" height="30px" preserveAspectRatio="xMaxYMin meet">
         <g id="arrow_out" transform="scale(0.3 0.3)">
          <a xlink:href="classDripMorphPattern__coll__graph_org.svg" target="_base">
           <rect id="button" ry="5" rx="5" y="6" x="6" height="38" width="38"
                fill="#f2f5e9" fill-opacity="0.5" stroke="#606060" stroke-width="1.0"/>
           <path id="arrow"
             d="M 11.500037,31.436501 C 11.940474,20.09759 22.043105,11.32322 32.158766,21.979434 L 37.068811,17.246167 C 37.068811,17.246167 37.088388,32 37.088388,32 L 22.160133,31.978069 C 22.160133,31.978069 26.997745,27.140456 26.997745,27.140456 C 18.528582,18.264221 13.291696,25.230495 11.500037,31.436501 z"
             style="fill:#404040;"/>
          </a>
         </g>
        </svg>
</svg>
