<?xml version="1.0" encoding="UTF-8" standalone="no"?>
<!DOCTYPE svg PUBLIC "-//W3C//DTD SVG 1.1//EN"
 "http://www.w3.org/Graphics/SVG/1.1/DTD/svg11.dtd">
<!-- Generated by graphviz version 2.43.0 (0)
 -->
<!-- Title: VortexEngine/src/Colors/Colorset.cpp Pages: 1 -->
<svg width="676pt" height="319pt"
 viewBox="0.00 0.00 676.00 319.00" xmlns="http://www.w3.org/2000/svg" xmlns:xlink="http://www.w3.org/1999/xlink">
<g id="graph0" class="graph" transform="scale(1 1) rotate(0) translate(4 315)">
<title>VortexEngine/src/Colors/Colorset.cpp</title>
<!-- Node1 -->
<g id="node1" class="node">
<title>Node1</title>
<g id="a_node1"><a xlink:title=" ">
<polygon fill="#bfbfbf" stroke="black" points="338.5,-280.5 338.5,-310.5 470.5,-310.5 470.5,-280.5 338.5,-280.5"/>
<text text-anchor="start" x="346.5" y="-298.5" font-family="Helvetica,sans-Serif" font-size="10.00">VortexEngine/src/Colors</text>
<text text-anchor="middle" x="404.5" y="-287.5" font-family="Helvetica,sans-Serif" font-size="10.00">/Colorset.cpp</text>
</a>
</g>
</g>
<!-- Node2 -->
<g id="node2" class="node">
<title>Node2</title>
<g id="a_node2"><a xlink:href="Colorset_8h.html" target="_top" xlink:title=" ">
<polygon fill="none" stroke="black" points="74.5,-168.5 74.5,-187.5 140.5,-187.5 140.5,-168.5 74.5,-168.5"/>
<text text-anchor="middle" x="107.5" y="-175.5" font-family="Helvetica,sans-Serif" font-size="10.00">Colorset.h</text>
</a>
</g>
</g>
<!-- Node1&#45;&gt;Node2 -->
<g id="edge1" class="edge">
<title>Node1&#45;&gt;Node2</title>
<path fill="none" stroke="midnightblue" d="M367.78,-280.4C341.5,-270.3 305.31,-256.36 273.5,-244 226.57,-225.77 172.26,-204.46 138.89,-191.35"/>
<polygon fill="midnightblue" stroke="midnightblue" points="139.83,-187.96 129.24,-187.55 137.26,-194.47 139.83,-187.96"/>
</g>
<!-- Node7 -->
<g id="node7" class="node">
<title>Node7</title>
<g id="a_node7"><a xlink:href="ByteStream_8h.html" target="_top" xlink:title=" ">
<polygon fill="none" stroke="black" points="298,-224.5 298,-243.5 421,-243.5 421,-224.5 298,-224.5"/>
<text text-anchor="middle" x="359.5" y="-231.5" font-family="Helvetica,sans-Serif" font-size="10.00">../Serial/ByteStream.h</text>
</a>
</g>
</g>
<!-- Node1&#45;&gt;Node7 -->
<g id="edge8" class="edge">
<title>Node1&#45;&gt;Node7</title>
<path fill="none" stroke="midnightblue" d="M393.84,-280.4C387.36,-271.84 379.07,-260.87 372.25,-251.86"/>
<polygon fill="midnightblue" stroke="midnightblue" points="374.87,-249.52 366.05,-243.66 369.29,-253.74 374.87,-249.52"/>
</g>
<!-- Node8 -->
<g id="node8" class="node">
<title>Node8</title>
<g id="a_node8"><a xlink:href="Log_8h.html" target="_top" xlink:title=" ">
<polygon fill="none" stroke="black" points="233.5,-168.5 233.5,-187.5 305.5,-187.5 305.5,-168.5 233.5,-168.5"/>
<text text-anchor="middle" x="269.5" y="-175.5" font-family="Helvetica,sans-Serif" font-size="10.00">../Log/Log.h</text>
</a>
</g>
</g>
<!-- Node1&#45;&gt;Node8 -->
<g id="edge22" class="edge">
<title>Node1&#45;&gt;Node8</title>
<path fill="none" stroke="midnightblue" d="M346.65,-280.47C325.79,-272.8 303.67,-261.22 288.5,-244 277.22,-231.19 272.62,-212.01 270.75,-197.79"/>
<polygon fill="midnightblue" stroke="midnightblue" points="274.22,-197.29 269.77,-187.68 267.26,-197.97 274.22,-197.29"/>
</g>
<!-- Node11 -->
<g id="node11" class="node">
<title>Node11</title>
<g id="a_node11"><a xlink:href="Random_8h.html" target="_top" xlink:title=" ">
<polygon fill="none" stroke="black" points="478,-224.5 478,-243.5 597,-243.5 597,-224.5 478,-224.5"/>
<text text-anchor="middle" x="537.5" y="-231.5" font-family="Helvetica,sans-Serif" font-size="10.00">../Random/Random.h</text>
</a>
</g>
</g>
<!-- Node1&#45;&gt;Node11 -->
<g id="edge16" class="edge">
<title>Node1&#45;&gt;Node11</title>
<path fill="none" stroke="midnightblue" d="M436.02,-280.4C458.14,-270.51 487.47,-257.38 508.91,-247.79"/>
<polygon fill="midnightblue" stroke="midnightblue" points="510.45,-250.94 518.15,-243.66 507.59,-244.55 510.45,-250.94"/>
</g>
<!-- Node13 -->
<g id="node13" class="node">
<title>Node13</title>
<g id="a_node13"><a xlink:href="Memory_8h.html" target="_top" xlink:title=" ">
<polygon fill="none" stroke="black" points="416,-112.5 416,-131.5 533,-131.5 533,-112.5 416,-112.5"/>
<text text-anchor="middle" x="474.5" y="-119.5" font-family="Helvetica,sans-Serif" font-size="10.00">../Memory/Memory.h</text>
</a>
</g>
</g>
<!-- Node1&#45;&gt;Node13 -->
<g id="edge18" class="edge">
<title>Node1&#45;&gt;Node13</title>
<path fill="none" stroke="midnightblue" d="M412.51,-280.15C417.92,-270.17 425.05,-256.47 430.5,-244 446.11,-208.3 460.86,-165.12 468.69,-141.2"/>
<polygon fill="midnightblue" stroke="midnightblue" points="472.02,-142.25 471.77,-131.65 465.36,-140.09 472.02,-142.25"/>
</g>
<!-- Node15 -->
<g id="node15" class="node">
<title>Node15</title>
<g id="a_node15"><a xlink:title=" ">
<polygon fill="none" stroke="#bfbfbf" points="615,-224.5 615,-243.5 668,-243.5 668,-224.5 615,-224.5"/>
<text text-anchor="middle" x="641.5" y="-231.5" font-family="Helvetica,sans-Serif" font-size="10.00">string.h</text>
</a>
</g>
</g>
<!-- Node1&#45;&gt;Node15 -->
<g id="edge23" class="edge">
<title>Node1&#45;&gt;Node15</title>
<path fill="none" stroke="midnightblue" d="M461.12,-280.45C499.34,-270.95 551.17,-258.01 605.03,-244.36"/>
<polygon fill="midnightblue" stroke="midnightblue" points="605.92,-247.75 614.75,-241.9 604.2,-240.96 605.92,-247.75"/>
</g>
<!-- Node3 -->
<g id="node3" class="node">
<title>Node3</title>
<g id="a_node3"><a xlink:href="ColorTypes_8h.html" target="_top" xlink:title=" ">
<polygon fill="none" stroke="black" points="0,-112.5 0,-131.5 79,-131.5 79,-112.5 0,-112.5"/>
<text text-anchor="middle" x="39.5" y="-119.5" font-family="Helvetica,sans-Serif" font-size="10.00">ColorTypes.h</text>
</a>
</g>
</g>
<!-- Node2&#45;&gt;Node3 -->
<g id="edge2" class="edge">
<title>Node2&#45;&gt;Node3</title>
<path fill="none" stroke="midnightblue" d="M96.57,-168.32C86.33,-160.18 70.78,-147.84 58.5,-138.09"/>
<polygon fill="midnightblue" stroke="midnightblue" points="60.63,-135.31 50.62,-131.83 56.28,-140.79 60.63,-135.31"/>
</g>
<!-- Node5 -->
<g id="node5" class="node">
<title>Node5</title>
<g id="a_node5"><a xlink:href="VortexConfig_8h.html" target="_top" xlink:title=" ">
<polygon fill="none" stroke="black" points="83,-56.5 83,-75.5 180,-75.5 180,-56.5 83,-56.5"/>
<text text-anchor="middle" x="131.5" y="-63.5" font-family="Helvetica,sans-Serif" font-size="10.00">../VortexConfig.h</text>
</a>
</g>
</g>
<!-- Node2&#45;&gt;Node5 -->
<g id="edge7" class="edge">
<title>Node2&#45;&gt;Node5</title>
<path fill="none" stroke="midnightblue" d="M109.38,-168.37C113.26,-150.62 122.19,-109.67 127.44,-85.6"/>
<polygon fill="midnightblue" stroke="midnightblue" points="130.91,-86.11 129.63,-75.59 124.07,-84.62 130.91,-86.11"/>
</g>
<!-- Node4 -->
<g id="node4" class="node">
<title>Node4</title>
<g id="a_node4"><a xlink:title=" ">
<polygon fill="none" stroke="#bfbfbf" points="313,-56.5 313,-75.5 378,-75.5 378,-56.5 313,-56.5"/>
<text text-anchor="middle" x="345.5" y="-63.5" font-family="Helvetica,sans-Serif" font-size="10.00">inttypes.h</text>
</a>
</g>
</g>
<!-- Node3&#45;&gt;Node4 -->
<g id="edge3" class="edge">
<title>Node3&#45;&gt;Node4</title>
<path fill="none" stroke="midnightblue" d="M79.19,-114C136.86,-103.82 243.37,-85.02 302.73,-74.55"/>
<polygon fill="midnightblue" stroke="midnightblue" points="303.65,-77.94 312.89,-72.76 302.43,-71.05 303.65,-77.94"/>
</g>
<!-- Node3&#45;&gt;Node5 -->
<g id="edge4" class="edge">
<title>Node3&#45;&gt;Node5</title>
<path fill="none" stroke="midnightblue" d="M54.28,-112.32C68.77,-103.82 91.07,-90.73 107.99,-80.8"/>
<polygon fill="midnightblue" stroke="midnightblue" points="109.9,-83.74 116.76,-75.65 106.36,-77.7 109.9,-83.74"/>
</g>
<!-- Node6 -->
<g id="node6" class="node">
<title>Node6</title>
<g id="a_node6"><a xlink:href="ColorConstants_8h.html" target="_top" xlink:title=" ">
<polygon fill="none" stroke="black" points="22.5,-0.5 22.5,-19.5 156.5,-19.5 156.5,-0.5 22.5,-0.5"/>
<text text-anchor="middle" x="89.5" y="-7.5" font-family="Helvetica,sans-Serif" font-size="10.00">Colors/ColorConstants.h</text>
</a>
</g>
</g>
<!-- Node3&#45;&gt;Node6 -->
<g id="edge6" class="edge">
<title>Node3&#45;&gt;Node6</title>
<path fill="none" stroke="midnightblue" d="M43.42,-112.37C51.57,-94.46 70.44,-52.92 81.34,-28.95"/>
<polygon fill="midnightblue" stroke="midnightblue" points="84.64,-30.14 85.59,-19.59 78.27,-27.25 84.64,-30.14"/>
</g>
<!-- Node5&#45;&gt;Node6 -->
<g id="edge5" class="edge">
<title>Node5&#45;&gt;Node6</title>
<path fill="none" stroke="midnightblue" d="M124.56,-56.08C118.57,-48.38 109.75,-37.03 102.45,-27.65"/>
<polygon fill="midnightblue" stroke="midnightblue" points="105.21,-25.5 96.31,-19.75 99.68,-29.79 105.21,-25.5"/>
</g>
<!-- Node7&#45;&gt;Node4 -->
<g id="edge9" class="edge">
<title>Node7&#45;&gt;Node4</title>
<path fill="none" stroke="midnightblue" d="M361.77,-224.35C366.67,-204.31 377.04,-153.23 367.5,-112 365.27,-102.36 360.68,-92.41 356.26,-84.31"/>
<polygon fill="midnightblue" stroke="midnightblue" points="359.2,-82.4 351.14,-75.52 353.15,-85.92 359.2,-82.4"/>
</g>
<!-- Node7&#45;&gt;Node8 -->
<g id="edge10" class="edge">
<title>Node7&#45;&gt;Node8</title>
<path fill="none" stroke="midnightblue" d="M345.04,-224.32C331,-215.9 309.45,-202.97 292.96,-193.07"/>
<polygon fill="midnightblue" stroke="midnightblue" points="294.3,-189.8 283.92,-187.65 290.7,-195.8 294.3,-189.8"/>
</g>
<!-- Node8&#45;&gt;Node5 -->
<g id="edge12" class="edge">
<title>Node8&#45;&gt;Node5</title>
<path fill="none" stroke="midnightblue" d="M233.9,-168.46C211.75,-161.65 183.89,-150.17 164.5,-132 150.96,-119.31 142.1,-99.83 137.01,-85.51"/>
<polygon fill="midnightblue" stroke="midnightblue" points="140.26,-84.18 133.83,-75.75 133.6,-86.35 140.26,-84.18"/>
</g>
<!-- Node9 -->
<g id="node9" class="node">
<title>Node9</title>
<g id="a_node9"><a xlink:title=" ">
<polygon fill="none" stroke="#bfbfbf" points="173.5,-112.5 173.5,-131.5 229.5,-131.5 229.5,-112.5 173.5,-112.5"/>
<text text-anchor="middle" x="201.5" y="-119.5" font-family="Helvetica,sans-Serif" font-size="10.00">stdarg.h</text>
</a>
</g>
</g>
<!-- Node8&#45;&gt;Node9 -->
<g id="edge11" class="edge">
<title>Node8&#45;&gt;Node9</title>
<path fill="none" stroke="midnightblue" d="M258.57,-168.32C248.33,-160.18 232.78,-147.84 220.5,-138.09"/>
<polygon fill="midnightblue" stroke="midnightblue" points="222.63,-135.31 212.62,-131.83 218.28,-140.79 222.63,-135.31"/>
</g>
<!-- Node10 -->
<g id="node10" class="node">
<title>Node10</title>
<g id="a_node10"><a xlink:href="ErrorBlinker_8h.html" target="_top" xlink:title=" ">
<polygon fill="none" stroke="black" points="248,-112.5 248,-131.5 359,-131.5 359,-112.5 248,-112.5"/>
<text text-anchor="middle" x="303.5" y="-119.5" font-family="Helvetica,sans-Serif" font-size="10.00">../Log/ErrorBlinker.h</text>
</a>
</g>
</g>
<!-- Node8&#45;&gt;Node10 -->
<g id="edge13" class="edge">
<title>Node8&#45;&gt;Node10</title>
<path fill="none" stroke="midnightblue" d="M275.11,-168.08C279.87,-160.53 286.82,-149.49 292.65,-140.23"/>
<polygon fill="midnightblue" stroke="midnightblue" points="295.62,-142.08 297.99,-131.75 289.7,-138.35 295.62,-142.08"/>
</g>
<!-- Node10&#45;&gt;Node4 -->
<g id="edge14" class="edge">
<title>Node10&#45;&gt;Node4</title>
<path fill="none" stroke="midnightblue" d="M310.44,-112.08C316.43,-104.38 325.25,-93.03 332.55,-83.65"/>
<polygon fill="midnightblue" stroke="midnightblue" points="335.32,-85.79 338.69,-75.75 329.79,-81.5 335.32,-85.79"/>
</g>
<!-- Node10&#45;&gt;Node5 -->
<g id="edge15" class="edge">
<title>Node10&#45;&gt;Node5</title>
<path fill="none" stroke="midnightblue" d="M276.25,-112.44C247.06,-103.28 200.58,-88.69 168.19,-78.52"/>
<polygon fill="midnightblue" stroke="midnightblue" points="169.22,-75.17 158.63,-75.52 167.12,-81.85 169.22,-75.17"/>
</g>
<!-- Node12 -->
<g id="node12" class="node">
<title>Node12</title>
<g id="a_node12"><a xlink:title=" ">
<polygon fill="none" stroke="#bfbfbf" points="511,-168.5 511,-187.5 564,-187.5 564,-168.5 511,-168.5"/>
<text text-anchor="middle" x="537.5" y="-175.5" font-family="Helvetica,sans-Serif" font-size="10.00">stdint.h</text>
</a>
</g>
</g>
<!-- Node11&#45;&gt;Node12 -->
<g id="edge17" class="edge">
<title>Node11&#45;&gt;Node12</title>
<path fill="none" stroke="midnightblue" d="M537.5,-224.08C537.5,-217.01 537.5,-206.86 537.5,-197.99"/>
<polygon fill="midnightblue" stroke="midnightblue" points="541,-197.75 537.5,-187.75 534,-197.75 541,-197.75"/>
</g>
<!-- Node13&#45;&gt;Node4 -->
<g id="edge19" class="edge">
<title>Node13&#45;&gt;Node4</title>
<path fill="none" stroke="midnightblue" d="M454.06,-112.44C432.83,-103.56 399.4,-89.56 375.25,-79.45"/>
<polygon fill="midnightblue" stroke="midnightblue" points="376.42,-76.15 365.84,-75.52 373.72,-82.61 376.42,-76.15"/>
</g>
<!-- Node13&#45;&gt;Node5 -->
<g id="edge21" class="edge">
<title>Node13&#45;&gt;Node5</title>
<path fill="none" stroke="midnightblue" d="M420.15,-112.44C357.39,-102.56 254.54,-86.37 190.06,-76.22"/>
<polygon fill="midnightblue" stroke="midnightblue" points="190.47,-72.74 180.05,-74.64 189.38,-79.66 190.47,-72.74"/>
</g>
<!-- Node14 -->
<g id="node14" class="node">
<title>Node14</title>
<g id="a_node14"><a xlink:title=" ">
<polygon fill="none" stroke="#bfbfbf" points="448,-56.5 448,-75.5 501,-75.5 501,-56.5 448,-56.5"/>
<text text-anchor="middle" x="474.5" y="-63.5" font-family="Helvetica,sans-Serif" font-size="10.00">stdlib.h</text>
</a>
</g>
</g>
<!-- Node13&#45;&gt;Node14 -->
<g id="edge20" class="edge">
<title>Node13&#45;&gt;Node14</title>
<path fill="none" stroke="midnightblue" d="M474.5,-112.08C474.5,-105.01 474.5,-94.86 474.5,-85.99"/>
<polygon fill="midnightblue" stroke="midnightblue" points="478,-85.75 474.5,-75.75 471,-85.75 478,-85.75"/>
</g>
</g>
</svg>
