<?xml version="1.0" encoding="UTF-8" standalone="no"?>
<!DOCTYPE svg PUBLIC "-//W3C//DTD SVG 1.1//EN"
 "http://www.w3.org/Graphics/SVG/1.1/DTD/svg11.dtd">
<!-- Generated by graphviz version 2.43.0 (0)
 -->
<!-- Title: VortexEngine/src Pages: 1 -->
<!--zoomable 759 -->
<svg id="main" version="1.1" xmlns="http://www.w3.org/2000/svg" xmlns:xlink="http://www.w3.org/1999/xlink" xml:space="preserve" onload="init(evt)">
<style type="text/css"><![CDATA[
.edge:hover path { stroke: red; }
.edge:hover polygon { stroke: red; fill: red; }
]]></style>
<script type="text/javascript"><![CDATA[
var edges = document.getElementsByTagName('g');
if (edges && edges.length) {
  for (var i=0;i<edges.length;i++) {
    if (edges[i].id.substr(0,4)=='edge') {
      edges[i].setAttribute('class','edge');
    }
  }
}
]]></script>
        <defs>
                <circle id="rim" cx="0" cy="0" r="7"/>
                <circle id="rim2" cx="0" cy="0" r="3.5"/>
                <g id="zoomPlus">
                        <use xlink:href="#rim" fill="#404040">
                                <set attributeName="fill" to="#808080" begin="zoomplus.mouseover" end="zoomplus.mouseout"/>
                        </use>
                        <path d="M-4,0h8M0,-4v8" fill="none" stroke="white" stroke-width="1.5" pointer-events="none"/>
                </g>
                <g id="zoomMin">
                        <use xlink:href="#rim" fill="#404040">
                                <set attributeName="fill" to="#808080" begin="zoomminus.mouseover" end="zoomminus.mouseout"/>
                        </use>
                        <path d="M-4,0h8" fill="none" stroke="white" stroke-width="1.5" pointer-events="none"/>
                </g>
                <g id="dirArrow">
                        <path fill="none" stroke="white" stroke-width="1.5" d="M0,-3.0v7 M-2.5,-0.5L0,-3.0L2.5,-0.5"/>
                </g>
               <g id="resetDef">
                       <use xlink:href="#rim2" fill="#404040">
                               <set attributeName="fill" to="#808080" begin="reset.mouseover" end="reset.mouseout"/>
                       </use>
               </g>
        </defs>

<script type="text/javascript">
var viewWidth = 510;
var viewHeight = 759;
var sectionId = 'dynsection-0';
</script>
<script xlink:href="svgpan.js"/>
<svg id="graph" class="graph">
<g id="viewport">
<title>VortexEngine/src</title>
<g id="clust1" class="cluster">
<title>clusterdir_cfa97f0e2c08f470d5e70542e8b74b9a</title>
<g id="a_clust1"><a xlink:href="dir_cfa97f0e2c08f470d5e70542e8b74b9a.html" target="_top" xlink:title="VortexEngine">
<polygon fill="#ddddee" stroke="black" points="8,-8 8,-743 494,-743 494,-8 8,-8"/>
<text text-anchor="middle" x="251" y="-731" font-family="Helvetica,sans-Serif" font-size="10.00">VortexEngine</text>
</a>
</g>
</g>
<g id="clust2" class="cluster">
<title>clusterdir_df02266255841645c523fab960c9ed1d</title>
<g id="a_clust2"><a xlink:href="dir_df02266255841645c523fab960c9ed1d.html" target="_top">
<polygon fill="#eeeeff" stroke="black" points="16,-16 16,-716 486,-716 486,-16 16,-16"/>
</a>
</g>
</g>
<!-- dir_df02266255841645c523fab960c9ed1d -->
<g id="node1" class="node">
<title>dir_df02266255841645c523fab960c9ed1d</title>
<text text-anchor="middle" x="357" y="-687.5" font-family="Helvetica,sans-Serif" font-size="10.00">src</text>
</g>
<!-- dir_ff5a4dc0324506fcdfb8f8f681f9dae7 -->
<g id="node2" class="node">
<title>dir_ff5a4dc0324506fcdfb8f8f681f9dae7</title>
<g id="a_node2"><a xlink:href="dir_ff5a4dc0324506fcdfb8f8f681f9dae7.html" target="_top" xlink:title="Buttons">
<polygon fill="white" stroke="black" points="218,-636 164,-636 164,-600 218,-600 218,-636"/>
<text text-anchor="middle" x="191" y="-615.5" font-family="Helvetica,sans-Serif" font-size="10.00">Buttons</text>
</a>
</g>
</g>
<!-- dir_9a5c88f87170865d940dc95c76676edb -->
<g id="node5" class="node">
<title>dir_9a5c88f87170865d940dc95c76676edb</title>
<g id="a_node5"><a xlink:href="dir_9a5c88f87170865d940dc95c76676edb.html" target="_top" xlink:title="Log">
<polygon fill="white" stroke="black" points="353,-564 299,-564 299,-528 353,-528 353,-564"/>
<text text-anchor="middle" x="326" y="-543.5" font-family="Helvetica,sans-Serif" font-size="10.00">Log</text>
</a>
</g>
</g>
<!-- dir_ff5a4dc0324506fcdfb8f8f681f9dae7&#45;&gt;dir_9a5c88f87170865d940dc95c76676edb -->
<g id="edge53" class="edge">
<title>dir_ff5a4dc0324506fcdfb8f8f681f9dae7&#45;&gt;dir_9a5c88f87170865d940dc95c76676edb</title>
<path fill="none" stroke="black" d="M218.32,-602.83C238.9,-592.16 267.33,-577.42 289.81,-565.77"/>
<polygon fill="black" stroke="black" points="291.45,-568.85 298.72,-561.14 288.23,-562.64 291.45,-568.85"/>
<g id="a_edge53&#45;headlabel"><a xlink:href="dir_000002_000005.html" target="_top" xlink:title="1">
<text text-anchor="middle" x="289.57" y="-570.53" font-family="Helvetica,sans-Serif" font-size="10.00">1</text>
</a>
</g>
</g>
<!-- dir_63ce3ba067bdf35a8f7c780ac03d51a3 -->
<g id="node13" class="node">
<title>dir_63ce3ba067bdf35a8f7c780ac03d51a3</title>
<g id="a_node13"><a xlink:href="dir_63ce3ba067bdf35a8f7c780ac03d51a3.html" target="_top" xlink:title="Time">
<polygon fill="white" stroke="black" points="218,-420 164,-420 164,-384 218,-384 218,-420"/>
<text text-anchor="middle" x="191" y="-399.5" font-family="Helvetica,sans-Serif" font-size="10.00">Time</text>
</a>
</g>
</g>
<!-- dir_ff5a4dc0324506fcdfb8f8f681f9dae7&#45;&gt;dir_63ce3ba067bdf35a8f7c780ac03d51a3 -->
<g id="edge52" class="edge">
<title>dir_ff5a4dc0324506fcdfb8f8f681f9dae7&#45;&gt;dir_63ce3ba067bdf35a8f7c780ac03d51a3</title>
<path fill="none" stroke="black" d="M191,-599.85C191,-562.83 191,-475.18 191,-430.39"/>
<polygon fill="black" stroke="black" points="194.5,-430.23 191,-420.23 187.5,-430.23 194.5,-430.23"/>
<g id="a_edge52&#45;headlabel"><a xlink:href="dir_000002_000017.html" target="_top" xlink:title="4">
<text text-anchor="middle" x="197.34" y="-431.33" font-family="Helvetica,sans-Serif" font-size="10.00">4</text>
</a>
</g>
</g>
<!-- dir_ce91f970b513fb5ff406625265505b14 -->
<g id="node3" class="node">
<title>dir_ce91f970b513fb5ff406625265505b14</title>
<g id="a_node3"><a xlink:href="dir_ce91f970b513fb5ff406625265505b14.html" target="_top" xlink:title="Colors">
<polygon fill="white" stroke="black" points="250,-132 196,-132 196,-96 250,-96 250,-132"/>
<text text-anchor="middle" x="223" y="-111.5" font-family="Helvetica,sans-Serif" font-size="10.00">Colors</text>
</a>
</g>
</g>
<!-- dir_ce91f970b513fb5ff406625265505b14&#45;&gt;dir_9a5c88f87170865d940dc95c76676edb -->
<g id="edge39" class="edge">
<title>dir_ce91f970b513fb5ff406625265505b14&#45;&gt;dir_9a5c88f87170865d940dc95c76676edb</title>
<path fill="none" stroke="black" d="M250.02,-132.04C283.73,-155.63 337,-201.67 337,-257 337,-403 337,-403 337,-403 337,-443.12 332.58,-489.43 329.34,-517.97"/>
<polygon fill="black" stroke="black" points="325.86,-517.64 328.17,-527.98 332.81,-518.46 325.86,-517.64"/>
<g id="a_edge39&#45;headlabel"><a xlink:href="dir_000003_000005.html" target="_top" xlink:title="1">
<text text-anchor="middle" x="323.46" y="-511.24" font-family="Helvetica,sans-Serif" font-size="10.00">1</text>
</a>
</g>
</g>
<!-- dir_7e29431de6169dbb5f5ee7a990ed2b16 -->
<g id="node6" class="node">
<title>dir_7e29431de6169dbb5f5ee7a990ed2b16</title>
<g id="a_node6"><a xlink:href="dir_7e29431de6169dbb5f5ee7a990ed2b16.html" target="_top" xlink:title="Memory">
<polygon fill="white" stroke="black" points="317.5,-60 260.5,-60 260.5,-24 317.5,-24 317.5,-60"/>
<text text-anchor="middle" x="289" y="-39.5" font-family="Helvetica,sans-Serif" font-size="10.00">Memory</text>
</a>
</g>
</g>
<!-- dir_ce91f970b513fb5ff406625265505b14&#45;&gt;dir_7e29431de6169dbb5f5ee7a990ed2b16 -->
<g id="edge38" class="edge">
<title>dir_ce91f970b513fb5ff406625265505b14&#45;&gt;dir_7e29431de6169dbb5f5ee7a990ed2b16</title>
<path fill="none" stroke="black" d="M239.31,-95.7C247.31,-87.22 257.07,-76.86 265.82,-67.58"/>
<polygon fill="black" stroke="black" points="268.56,-69.78 272.87,-60.1 263.47,-64.98 268.56,-69.78"/>
<g id="a_edge38&#45;headlabel"><a xlink:href="dir_000003_000006.html" target="_top" xlink:title="1">
<text text-anchor="middle" x="268.16" y="-71.84" font-family="Helvetica,sans-Serif" font-size="10.00">1</text>
</a>
</g>
</g>
<!-- dir_77968f70279e8f688919023f4af8a16f -->
<g id="node10" class="node">
<title>dir_77968f70279e8f688919023f4af8a16f</title>
<g id="a_node10"><a xlink:href="dir_77968f70279e8f688919023f4af8a16f.html" target="_top" xlink:title="Random">
<polygon fill="white" stroke="black" points="185.5,-60 128.5,-60 128.5,-24 185.5,-24 185.5,-60"/>
<text text-anchor="middle" x="157" y="-39.5" font-family="Helvetica,sans-Serif" font-size="10.00">Random</text>
</a>
</g>
</g>
<!-- dir_ce91f970b513fb5ff406625265505b14&#45;&gt;dir_77968f70279e8f688919023f4af8a16f -->
<g id="edge37" class="edge">
<title>dir_ce91f970b513fb5ff406625265505b14&#45;&gt;dir_77968f70279e8f688919023f4af8a16f</title>
<path fill="none" stroke="black" d="M206.69,-95.7C198.69,-87.22 188.93,-76.86 180.18,-67.58"/>
<polygon fill="black" stroke="black" points="182.53,-64.98 173.13,-60.1 177.44,-69.78 182.53,-64.98"/>
<g id="a_edge37&#45;headlabel"><a xlink:href="dir_000003_000014.html" target="_top" xlink:title="1">
<text text-anchor="middle" x="187.07" y="-63.15" font-family="Helvetica,sans-Serif" font-size="10.00">1</text>
</a>
</g>
</g>
<!-- dir_cabf3d63e98569a74ecb960b83c4a15b -->
<g id="node11" class="node">
<title>dir_cabf3d63e98569a74ecb960b83c4a15b</title>
<g id="a_node11"><a xlink:href="dir_cabf3d63e98569a74ecb960b83c4a15b.html" target="_top" xlink:title="Serial">
<polygon fill="white" stroke="black" points="430,-492 376,-492 376,-456 430,-456 430,-492"/>
<text text-anchor="middle" x="403" y="-471.5" font-family="Helvetica,sans-Serif" font-size="10.00">Serial</text>
</a>
</g>
</g>
<!-- dir_ce91f970b513fb5ff406625265505b14&#45;&gt;dir_cabf3d63e98569a74ecb960b83c4a15b -->
<g id="edge40" class="edge">
<title>dir_ce91f970b513fb5ff406625265505b14&#45;&gt;dir_cabf3d63e98569a74ecb960b83c4a15b</title>
<path fill="none" stroke="black" d="M250.09,-119.62C277.54,-125.76 319.12,-139.39 342,-168 376.42,-211.04 394.74,-379.38 400.74,-445.82"/>
<polygon fill="black" stroke="black" points="397.27,-446.27 401.63,-455.93 404.24,-445.66 397.27,-446.27"/>
<g id="a_edge40&#45;headlabel"><a xlink:href="dir_000003_000015.html" target="_top" xlink:title="2">
<text text-anchor="middle" x="394.13" y="-440.44" font-family="Helvetica,sans-Serif" font-size="10.00">2</text>
</a>
</g>
</g>
<!-- dir_60d51ee7315d72413f26211ac43a217e -->
<g id="node4" class="node">
<title>dir_60d51ee7315d72413f26211ac43a217e</title>
<g id="a_node4"><a xlink:href="dir_60d51ee7315d72413f26211ac43a217e.html" target="_top" xlink:title="Leds">
<polygon fill="white" stroke="black" points="138,-348 84,-348 84,-312 138,-312 138,-348"/>
<text text-anchor="middle" x="111" y="-327.5" font-family="Helvetica,sans-Serif" font-size="10.00">Leds</text>
</a>
</g>
</g>
<!-- dir_60d51ee7315d72413f26211ac43a217e&#45;&gt;dir_ce91f970b513fb5ff406625265505b14 -->
<g id="edge36" class="edge">
<title>dir_60d51ee7315d72413f26211ac43a217e&#45;&gt;dir_ce91f970b513fb5ff406625265505b14</title>
<path fill="none" stroke="black" d="M109.82,-311.85C108.52,-280.51 109.8,-213.06 140,-168 151.32,-151.1 170.05,-138.46 186.85,-129.78"/>
<polygon fill="black" stroke="black" points="188.47,-132.88 195.92,-125.35 185.4,-126.59 188.47,-132.88"/>
<g id="a_edge36&#45;headlabel"><a xlink:href="dir_000004_000003.html" target="_top" xlink:title="2">
<text text-anchor="middle" x="186.48" y="-134.51" font-family="Helvetica,sans-Serif" font-size="10.00">2</text>
</a>
</g>
</g>
<!-- dir_4d7f8bf987ecca6ad9438e8e8937cf95 -->
<g id="node8" class="node">
<title>dir_4d7f8bf987ecca6ad9438e8e8937cf95</title>
<g id="a_node8"><a xlink:href="dir_4d7f8bf987ecca6ad9438e8e8937cf95.html" target="_top" xlink:title="Modes">
<polygon fill="white" stroke="black" points="250,-276 196,-276 196,-240 250,-240 250,-276"/>
<text text-anchor="middle" x="223" y="-255.5" font-family="Helvetica,sans-Serif" font-size="10.00">Modes</text>
</a>
</g>
</g>
<!-- dir_60d51ee7315d72413f26211ac43a217e&#45;&gt;dir_4d7f8bf987ecca6ad9438e8e8937cf95 -->
<g id="edge34" class="edge">
<title>dir_60d51ee7315d72413f26211ac43a217e&#45;&gt;dir_4d7f8bf987ecca6ad9438e8e8937cf95</title>
<path fill="none" stroke="black" d="M132.5,-311.88C147.86,-301.6 168.73,-288.53 186.61,-277.95"/>
<polygon fill="black" stroke="black" points="188.78,-280.73 195.65,-272.67 185.25,-274.69 188.78,-280.73"/>
<g id="a_edge34&#45;headlabel"><a xlink:href="dir_000004_000009.html" target="_top" xlink:title="1">
<text text-anchor="middle" x="187.11" y="-282.5" font-family="Helvetica,sans-Serif" font-size="10.00">1</text>
</a>
</g>
</g>
<!-- dir_60d51ee7315d72413f26211ac43a217e&#45;&gt;dir_63ce3ba067bdf35a8f7c780ac03d51a3 -->
<g id="edge35" class="edge">
<title>dir_60d51ee7315d72413f26211ac43a217e&#45;&gt;dir_63ce3ba067bdf35a8f7c780ac03d51a3</title>
<path fill="none" stroke="black" d="M136.44,-348.1C147.19,-356.72 159.49,-367.32 169.75,-376.76"/>
<polygon fill="black" stroke="black" points="167.46,-379.4 177.14,-383.7 172.25,-374.3 167.46,-379.4"/>
<g id="a_edge35&#45;headlabel"><a xlink:href="dir_000004_000017.html" target="_top" xlink:title="1">
<text text-anchor="middle" x="162.89" y="-376.51" font-family="Helvetica,sans-Serif" font-size="10.00">1</text>
</a>
</g>
</g>
<!-- dir_9a5c88f87170865d940dc95c76676edb&#45;&gt;dir_cabf3d63e98569a74ecb960b83c4a15b -->
<g id="edge32" class="edge">
<title>dir_9a5c88f87170865d940dc95c76676edb&#45;&gt;dir_cabf3d63e98569a74ecb960b83c4a15b</title>
<path fill="none" stroke="black" d="M339.12,-527.7C347.82,-518.97 359.45,-508.24 370.44,-498.75"/>
<polygon fill="black" stroke="black" points="372.92,-501.24 378.29,-492.1 368.4,-495.9 372.92,-501.24"/>
<g id="a_edge32&#45;headlabel"><a xlink:href="dir_000005_000015.html" target="_top" xlink:title="1">
<text text-anchor="middle" x="372.01" y="-503.23" font-family="Helvetica,sans-Serif" font-size="10.00">1</text>
</a>
</g>
</g>
<!-- dir_9a5c88f87170865d940dc95c76676edb&#45;&gt;dir_63ce3ba067bdf35a8f7c780ac03d51a3 -->
<g id="edge31" class="edge">
<title>dir_9a5c88f87170865d940dc95c76676edb&#45;&gt;dir_63ce3ba067bdf35a8f7c780ac03d51a3</title>
<path fill="none" stroke="black" d="M305.13,-527.87C278.78,-502.92 234.36,-456.45 209.28,-427.77"/>
<polygon fill="black" stroke="black" points="211.93,-425.48 202.75,-420.19 206.62,-430.05 211.93,-425.48"/>
<g id="a_edge31&#45;headlabel"><a xlink:href="dir_000005_000017.html" target="_top" xlink:title="1">
<text text-anchor="middle" x="216.43" y="-423.85" font-family="Helvetica,sans-Serif" font-size="10.00">1</text>
</a>
</g>
</g>
<!-- dir_7e29431de6169dbb5f5ee7a990ed2b16&#45;&gt;dir_9a5c88f87170865d940dc95c76676edb -->
<g id="edge33" class="edge">
<title>dir_7e29431de6169dbb5f5ee7a990ed2b16&#45;&gt;dir_9a5c88f87170865d940dc95c76676edb</title>
<path fill="none" stroke="black" d="M303.42,-60.11C323.38,-85.58 357,-135.8 357,-185 357,-403 357,-403 357,-403 357,-443.9 344.57,-489.94 335.45,-518.21"/>
<polygon fill="black" stroke="black" points="332.11,-517.18 332.27,-527.78 338.75,-519.39 332.11,-517.18"/>
<g id="a_edge33&#45;headlabel"><a xlink:href="dir_000006_000005.html" target="_top" xlink:title="1">
<text text-anchor="middle" x="330.55" y="-510.38" font-family="Helvetica,sans-Serif" font-size="10.00">1</text>
</a>
</g>
</g>
<!-- dir_7e4d93e079ad601e0006c23ac3d37255 -->
<g id="node7" class="node">
<title>dir_7e4d93e079ad601e0006c23ac3d37255</title>
<g id="a_node7"><a xlink:href="dir_7e4d93e079ad601e0006c23ac3d37255.html" target="_top" xlink:title="Menus">
<polygon fill="white" stroke="red" points="218,-708 164,-708 164,-672 218,-672 218,-708"/>
<text text-anchor="middle" x="191" y="-687.5" font-family="Helvetica,sans-Serif" font-size="10.00">Menus</text>
</a>
</g>
</g>
<!-- dir_7e4d93e079ad601e0006c23ac3d37255&#45;&gt;dir_ff5a4dc0324506fcdfb8f8f681f9dae7 -->
<g id="edge51" class="edge">
<title>dir_7e4d93e079ad601e0006c23ac3d37255&#45;&gt;dir_ff5a4dc0324506fcdfb8f8f681f9dae7</title>
<path fill="none" stroke="black" d="M191,-671.7C191,-663.98 191,-654.71 191,-646.11"/>
<polygon fill="black" stroke="black" points="194.5,-646.1 191,-636.1 187.5,-646.1 194.5,-646.1"/>
<g id="a_edge51&#45;headlabel"><a xlink:href="dir_000007_000002.html" target="_top" xlink:title="7">
<text text-anchor="middle" x="197.34" y="-647.2" font-family="Helvetica,sans-Serif" font-size="10.00">7</text>
</a>
</g>
</g>
<!-- dir_7e4d93e079ad601e0006c23ac3d37255&#45;&gt;dir_ce91f970b513fb5ff406625265505b14 -->
<g id="edge49" class="edge">
<title>dir_7e4d93e079ad601e0006c23ac3d37255&#45;&gt;dir_ce91f970b513fb5ff406625265505b14</title>
<path fill="none" stroke="black" d="M164,-682.47C138.87,-675.1 101.94,-660.78 79,-636 50.23,-604.93 45,-589.34 45,-547 45,-547 45,-547 45,-257 45,-185.32 134.29,-143.95 186.39,-125.9"/>
<polygon fill="black" stroke="black" points="187.59,-129.19 195.97,-122.7 185.37,-122.55 187.59,-129.19"/>
<g id="a_edge49&#45;headlabel"><a xlink:href="dir_000007_000003.html" target="_top" xlink:title="7">
<text text-anchor="middle" x="185.08" y="-130.53" font-family="Helvetica,sans-Serif" font-size="10.00">7</text>
</a>
</g>
</g>
<!-- dir_7e4d93e079ad601e0006c23ac3d37255&#45;&gt;dir_60d51ee7315d72413f26211ac43a217e -->
<g id="edge43" class="edge">
<title>dir_7e4d93e079ad601e0006c23ac3d37255&#45;&gt;dir_60d51ee7315d72413f26211ac43a217e</title>
<path fill="none" stroke="black" d="M171.91,-671.77C146.58,-646.91 105,-598.3 105,-547 105,-547 105,-547 105,-473 105,-432.96 107.41,-386.63 109.18,-358.07"/>
<polygon fill="black" stroke="black" points="112.67,-358.24 109.81,-348.04 105.69,-357.8 112.67,-358.24"/>
<g id="a_edge43&#45;headlabel"><a xlink:href="dir_000007_000004.html" target="_top" xlink:title="11">
<text text-anchor="middle" x="115.28" y="-359.51" font-family="Helvetica,sans-Serif" font-size="10.00">11</text>
</a>
</g>
</g>
<!-- dir_7e4d93e079ad601e0006c23ac3d37255&#45;&gt;dir_9a5c88f87170865d940dc95c76676edb -->
<g id="edge47" class="edge">
<title>dir_7e4d93e079ad601e0006c23ac3d37255&#45;&gt;dir_9a5c88f87170865d940dc95c76676edb</title>
<path fill="none" stroke="black" d="M218.04,-686.94C249.71,-682.91 300.89,-671.04 325,-636 337.34,-618.06 336.4,-592.91 333.06,-573.92"/>
<polygon fill="black" stroke="black" points="336.48,-573.17 331.03,-564.08 329.62,-574.58 336.48,-573.17"/>
<g id="a_edge47&#45;headlabel"><a xlink:href="dir_000007_000005.html" target="_top" xlink:title="9">
<text text-anchor="middle" x="339.99" y="-573.61" font-family="Helvetica,sans-Serif" font-size="10.00">9</text>
</a>
</g>
</g>
<!-- dir_7e4d93e079ad601e0006c23ac3d37255&#45;&gt;dir_4d7f8bf987ecca6ad9438e8e8937cf95 -->
<g id="edge42" class="edge">
<title>dir_7e4d93e079ad601e0006c23ac3d37255&#45;&gt;dir_4d7f8bf987ecca6ad9438e8e8937cf95</title>
<path fill="none" stroke="black" d="M206.03,-671.58C213.62,-661.78 222.22,-648.94 227,-636 240.81,-598.67 237,-586.8 237,-547 237,-547 237,-547 237,-473 237,-405.81 230.04,-327.01 225.94,-286.36"/>
<polygon fill="black" stroke="black" points="229.4,-285.76 224.89,-276.17 222.43,-286.48 229.4,-285.76"/>
<g id="a_edge42&#45;headlabel"><a xlink:href="dir_000007_000009.html" target="_top" xlink:title="21">
<text text-anchor="middle" x="232.59" y="-286.55" font-family="Helvetica,sans-Serif" font-size="10.00">21</text>
</a>
</g>
</g>
<!-- dir_d3731d706719beb3d6001df5dcff2644 -->
<g id="node9" class="node">
<title>dir_d3731d706719beb3d6001df5dcff2644</title>
<g id="a_node9"><a xlink:href="dir_d3731d706719beb3d6001df5dcff2644.html" target="_top" xlink:title="Patterns">
<polygon fill="white" stroke="red" points="205,-204 149,-204 149,-168 205,-168 205,-204"/>
<text text-anchor="middle" x="177" y="-183.5" font-family="Helvetica,sans-Serif" font-size="10.00">Patterns</text>
</a>
</g>
</g>
<!-- dir_7e4d93e079ad601e0006c23ac3d37255&#45;&gt;dir_d3731d706719beb3d6001df5dcff2644 -->
<g id="edge50" class="edge">
<title>dir_7e4d93e079ad601e0006c23ac3d37255&#45;&gt;dir_d3731d706719beb3d6001df5dcff2644</title>
<path fill="none" stroke="black" d="M163.97,-674.39C126.95,-652.17 65,-606.16 65,-547 65,-547 65,-547 65,-329 65,-278.35 109.48,-235.14 142.38,-210.11"/>
<polygon fill="black" stroke="black" points="144.49,-212.9 150.46,-204.15 140.33,-207.27 144.49,-212.9"/>
<g id="a_edge50&#45;headlabel"><a xlink:href="dir_000007_000010.html" target="_top" xlink:title="8">
<text text-anchor="middle" x="143.29" y="-214.82" font-family="Helvetica,sans-Serif" font-size="10.00">8</text>
</a>
</g>
</g>
<!-- dir_7e4d93e079ad601e0006c23ac3d37255&#45;&gt;dir_77968f70279e8f688919023f4af8a16f -->
<g id="edge46" class="edge">
<title>dir_7e4d93e079ad601e0006c23ac3d37255&#45;&gt;dir_77968f70279e8f688919023f4af8a16f</title>
<path fill="none" stroke="black" d="M163.89,-686.27C131.85,-681.6 79.11,-669.08 49,-636 21.42,-605.7 25,-587.97 25,-547 25,-547 25,-547 25,-185 25,-129.22 80.31,-86.15 119.33,-62.72"/>
<polygon fill="black" stroke="black" points="121.47,-65.51 128.36,-57.46 117.95,-59.46 121.47,-65.51"/>
<g id="a_edge46&#45;headlabel"><a xlink:href="dir_000007_000014.html" target="_top" xlink:title="3">
<text text-anchor="middle" x="119.8" y="-67.28" font-family="Helvetica,sans-Serif" font-size="10.00">3</text>
</a>
</g>
</g>
<!-- dir_7e4d93e079ad601e0006c23ac3d37255&#45;&gt;dir_cabf3d63e98569a74ecb960b83c4a15b -->
<g id="edge48" class="edge">
<title>dir_7e4d93e079ad601e0006c23ac3d37255&#45;&gt;dir_cabf3d63e98569a74ecb960b83c4a15b</title>
<path fill="none" stroke="black" d="M218.19,-684.71C249.41,-678.59 300.7,-664.75 335,-636 375.88,-601.73 392.68,-538.59 399.2,-502.41"/>
<polygon fill="black" stroke="black" points="402.72,-502.54 400.9,-492.1 395.82,-501.4 402.72,-502.54"/>
<g id="a_edge48&#45;headlabel"><a xlink:href="dir_000007_000015.html" target="_top" xlink:title="7">
<text text-anchor="middle" x="404.94" y="-504.05" font-family="Helvetica,sans-Serif" font-size="10.00">7</text>
</a>
</g>
</g>
<!-- dir_61b212e579fd471c490a116dc3a4c8cf -->
<g id="node12" class="node">
<title>dir_61b212e579fd471c490a116dc3a4c8cf</title>
<g id="a_node12"><a xlink:href="dir_61b212e579fd471c490a116dc3a4c8cf.html" target="_top" xlink:title="Storage">
<polygon fill="white" stroke="black" points="450,-204 396,-204 396,-168 450,-168 450,-204"/>
<text text-anchor="middle" x="423" y="-183.5" font-family="Helvetica,sans-Serif" font-size="10.00">Storage</text>
</a>
</g>
</g>
<!-- dir_7e4d93e079ad601e0006c23ac3d37255&#45;&gt;dir_61b212e579fd471c490a116dc3a4c8cf -->
<g id="edge44" class="edge">
<title>dir_7e4d93e079ad601e0006c23ac3d37255&#45;&gt;dir_61b212e579fd471c490a116dc3a4c8cf</title>
<path fill="none" stroke="black" d="M218.16,-681.76C289.55,-661.95 477,-604.45 477,-547 477,-547 477,-547 477,-329 477,-286.11 455.21,-240.41 439.31,-212.78"/>
<polygon fill="black" stroke="black" points="442.3,-210.95 434.19,-204.13 436.28,-214.52 442.3,-210.95"/>
<g id="a_edge44&#45;headlabel"><a xlink:href="dir_000007_000016.html" target="_top" xlink:title="1">
<text text-anchor="middle" x="446.57" y="-210.09" font-family="Helvetica,sans-Serif" font-size="10.00">1</text>
</a>
</g>
</g>
<!-- dir_7e4d93e079ad601e0006c23ac3d37255&#45;&gt;dir_63ce3ba067bdf35a8f7c780ac03d51a3 -->
<g id="edge45" class="edge">
<title>dir_7e4d93e079ad601e0006c23ac3d37255&#45;&gt;dir_63ce3ba067bdf35a8f7c780ac03d51a3</title>
<path fill="none" stroke="black" d="M175.39,-671.77C167.63,-662.03 159.05,-649.18 155,-636 132.62,-563.23 161.77,-473.19 179.38,-429.41"/>
<polygon fill="black" stroke="black" points="182.66,-430.62 183.26,-420.04 176.2,-427.95 182.66,-430.62"/>
<g id="a_edge45&#45;headlabel"><a xlink:href="dir_000007_000017.html" target="_top" xlink:title="14">
<text text-anchor="middle" x="183.91" y="-432.53" font-family="Helvetica,sans-Serif" font-size="10.00">14</text>
</a>
</g>
</g>
<!-- dir_1d79b4615f725ce6e1b38311d89b4d4f -->
<g id="node14" class="node">
<title>dir_1d79b4615f725ce6e1b38311d89b4d4f</title>
<g id="a_node14"><a xlink:href="dir_1d79b4615f725ce6e1b38311d89b4d4f.html" target="_top" xlink:title="Wireless">
<polygon fill="white" stroke="black" points="315.5,-636 256.5,-636 256.5,-600 315.5,-600 315.5,-636"/>
<text text-anchor="middle" x="286" y="-615.5" font-family="Helvetica,sans-Serif" font-size="10.00">Wireless</text>
</a>
</g>
</g>
<!-- dir_7e4d93e079ad601e0006c23ac3d37255&#45;&gt;dir_1d79b4615f725ce6e1b38311d89b4d4f -->
<g id="edge41" class="edge">
<title>dir_7e4d93e079ad601e0006c23ac3d37255&#45;&gt;dir_1d79b4615f725ce6e1b38311d89b4d4f</title>
<path fill="none" stroke="black" d="M214.48,-671.7C226.56,-662.8 241.45,-651.82 254.52,-642.2"/>
<polygon fill="black" stroke="black" points="256.81,-644.85 262.79,-636.1 252.66,-639.22 256.81,-644.85"/>
<g id="a_edge41&#45;headlabel"><a xlink:href="dir_000007_000018.html" target="_top" xlink:title="4">
<text text-anchor="middle" x="255.6" y="-646.77" font-family="Helvetica,sans-Serif" font-size="10.00">4</text>
</a>
</g>
</g>
<!-- dir_4d7f8bf987ecca6ad9438e8e8937cf95&#45;&gt;dir_ff5a4dc0324506fcdfb8f8f681f9dae7 -->
<g id="edge30" class="edge">
<title>dir_4d7f8bf987ecca6ad9438e8e8937cf95&#45;&gt;dir_ff5a4dc0324506fcdfb8f8f681f9dae7</title>
<path fill="none" stroke="black" d="M210.09,-276.04C193.52,-299.07 165.66,-342.1 155,-384 136.28,-457.6 163.61,-546.91 180.07,-590.5"/>
<polygon fill="black" stroke="black" points="176.8,-591.76 183.69,-599.82 183.33,-589.23 176.8,-591.76"/>
<g id="a_edge30&#45;headlabel"><a xlink:href="dir_000009_000002.html" target="_top" xlink:title="1">
<text text-anchor="middle" x="172.86" y="-586.94" font-family="Helvetica,sans-Serif" font-size="10.00">1</text>
</a>
</g>
</g>
<!-- dir_4d7f8bf987ecca6ad9438e8e8937cf95&#45;&gt;dir_ce91f970b513fb5ff406625265505b14 -->
<g id="edge28" class="edge">
<title>dir_4d7f8bf987ecca6ad9438e8e8937cf95&#45;&gt;dir_ce91f970b513fb5ff406625265505b14</title>
<path fill="none" stroke="black" d="M223,-239.87C223,-215.67 223,-171.21 223,-142.39"/>
<polygon fill="black" stroke="black" points="226.5,-142.19 223,-132.19 219.5,-142.19 226.5,-142.19"/>
<g id="a_edge28&#45;headlabel"><a xlink:href="dir_000009_000003.html" target="_top" xlink:title="4">
<text text-anchor="middle" x="229.34" y="-143.28" font-family="Helvetica,sans-Serif" font-size="10.00">4</text>
</a>
</g>
</g>
<!-- dir_4d7f8bf987ecca6ad9438e8e8937cf95&#45;&gt;dir_60d51ee7315d72413f26211ac43a217e -->
<g id="edge22" class="edge">
<title>dir_4d7f8bf987ecca6ad9438e8e8937cf95&#45;&gt;dir_60d51ee7315d72413f26211ac43a217e</title>
<path fill="none" stroke="black" d="M201.42,-276.18C185.98,-286.5 165.01,-299.63 147.1,-310.23"/>
<polygon fill="black" stroke="black" points="144.93,-307.44 138.05,-315.5 148.45,-313.49 144.93,-307.44"/>
<g id="a_edge22&#45;headlabel"><a xlink:href="dir_000009_000004.html" target="_top" xlink:title="4">
<text text-anchor="middle" x="146.6" y="-300.68" font-family="Helvetica,sans-Serif" font-size="10.00">4</text>
</a>
</g>
</g>
<!-- dir_4d7f8bf987ecca6ad9438e8e8937cf95&#45;&gt;dir_9a5c88f87170865d940dc95c76676edb -->
<g id="edge26" class="edge">
<title>dir_4d7f8bf987ecca6ad9438e8e8937cf95&#45;&gt;dir_9a5c88f87170865d940dc95c76676edb</title>
<path fill="none" stroke="black" d="M238.1,-276.1C246.18,-286 255.72,-299.05 262,-312 263.15,-314.38 302.08,-457.15 318.65,-518"/>
<polygon fill="black" stroke="black" points="315.29,-518.97 321.29,-527.7 322.04,-517.13 315.29,-518.97"/>
<g id="a_edge26&#45;headlabel"><a xlink:href="dir_000009_000005.html" target="_top" xlink:title="2">
<text text-anchor="middle" x="311.6" y="-513.75" font-family="Helvetica,sans-Serif" font-size="10.00">2</text>
</a>
</g>
</g>
<!-- dir_4d7f8bf987ecca6ad9438e8e8937cf95&#45;&gt;dir_7e29431de6169dbb5f5ee7a990ed2b16 -->
<g id="edge25" class="edge">
<title>dir_4d7f8bf987ecca6ad9438e8e8937cf95&#45;&gt;dir_7e29431de6169dbb5f5ee7a990ed2b16</title>
<path fill="none" stroke="black" d="M228.29,-239.85C239.75,-202.68 266.97,-114.44 280.73,-69.82"/>
<polygon fill="black" stroke="black" points="284.08,-70.82 283.69,-60.23 277.39,-68.76 284.08,-70.82"/>
<g id="a_edge25&#45;headlabel"><a xlink:href="dir_000009_000006.html" target="_top" xlink:title="1">
<text text-anchor="middle" x="285.74" y="-72.59" font-family="Helvetica,sans-Serif" font-size="10.00">1</text>
</a>
</g>
</g>
<!-- dir_4d7f8bf987ecca6ad9438e8e8937cf95&#45;&gt;dir_d3731d706719beb3d6001df5dcff2644 -->
<g id="edge29" class="edge">
<title>dir_4d7f8bf987ecca6ad9438e8e8937cf95&#45;&gt;dir_d3731d706719beb3d6001df5dcff2644</title>
<path fill="none" stroke="black" d="M211.63,-239.7C206.28,-231.56 199.8,-221.69 193.89,-212.7"/>
<polygon fill="black" stroke="black" points="196.66,-210.54 188.24,-204.1 190.81,-214.38 196.66,-210.54"/>
<g id="a_edge29&#45;headlabel"><a xlink:href="dir_000009_000010.html" target="_top" xlink:title="8">
<text text-anchor="middle" x="201" y="-209.48" font-family="Helvetica,sans-Serif" font-size="10.00">8</text>
</a>
</g>
</g>
<!-- dir_4d7f8bf987ecca6ad9438e8e8937cf95&#45;&gt;dir_cabf3d63e98569a74ecb960b83c4a15b -->
<g id="edge27" class="edge">
<title>dir_4d7f8bf987ecca6ad9438e8e8937cf95&#45;&gt;dir_cabf3d63e98569a74ecb960b83c4a15b</title>
<path fill="none" stroke="black" d="M244.12,-276.23C255.8,-286.17 270.28,-299.21 282,-312 322.81,-356.54 363.64,-414.28 385.88,-447.13"/>
<polygon fill="black" stroke="black" points="383.16,-449.36 391.65,-455.7 388.97,-445.45 383.16,-449.36"/>
<g id="a_edge27&#45;headlabel"><a xlink:href="dir_000009_000015.html" target="_top" xlink:title="3">
<text text-anchor="middle" x="378.8" y="-445.46" font-family="Helvetica,sans-Serif" font-size="10.00">3</text>
</a>
</g>
</g>
<!-- dir_4d7f8bf987ecca6ad9438e8e8937cf95&#45;&gt;dir_61b212e579fd471c490a116dc3a4c8cf -->
<g id="edge23" class="edge">
<title>dir_4d7f8bf987ecca6ad9438e8e8937cf95&#45;&gt;dir_61b212e579fd471c490a116dc3a4c8cf</title>
<path fill="none" stroke="black" d="M250.39,-247.41C285.7,-235.06 347.21,-213.53 386.47,-199.79"/>
<polygon fill="black" stroke="black" points="387.66,-203.08 395.94,-196.47 385.35,-196.47 387.66,-203.08"/>
<g id="a_edge23&#45;headlabel"><a xlink:href="dir_000009_000016.html" target="_top" xlink:title="1">
<text text-anchor="middle" x="385.2" y="-204.45" font-family="Helvetica,sans-Serif" font-size="10.00">1</text>
</a>
</g>
</g>
<!-- dir_4d7f8bf987ecca6ad9438e8e8937cf95&#45;&gt;dir_63ce3ba067bdf35a8f7c780ac03d51a3 -->
<g id="edge24" class="edge">
<title>dir_4d7f8bf987ecca6ad9438e8e8937cf95&#45;&gt;dir_63ce3ba067bdf35a8f7c780ac03d51a3</title>
<path fill="none" stroke="black" d="M219.13,-276.19C213.64,-300.53 203.56,-345.28 197.07,-374.06"/>
<polygon fill="black" stroke="black" points="193.64,-373.35 194.86,-383.87 200.47,-374.89 193.64,-373.35"/>
<g id="a_edge24&#45;headlabel"><a xlink:href="dir_000009_000017.html" target="_top" xlink:title="3">
<text text-anchor="middle" x="191.66" y="-366.72" font-family="Helvetica,sans-Serif" font-size="10.00">3</text>
</a>
</g>
</g>
<!-- dir_d3731d706719beb3d6001df5dcff2644&#45;&gt;dir_ce91f970b513fb5ff406625265505b14 -->
<g id="edge7" class="edge">
<title>dir_d3731d706719beb3d6001df5dcff2644&#45;&gt;dir_ce91f970b513fb5ff406625265505b14</title>
<path fill="none" stroke="black" d="M188.37,-167.7C193.72,-159.56 200.2,-149.69 206.11,-140.7"/>
<polygon fill="black" stroke="black" points="209.19,-142.38 211.76,-132.1 203.34,-138.54 209.19,-142.38"/>
<g id="a_edge7&#45;headlabel"><a xlink:href="dir_000010_000003.html" target="_top" xlink:title="6">
<text text-anchor="middle" x="209.59" y="-144.45" font-family="Helvetica,sans-Serif" font-size="10.00">6</text>
</a>
</g>
</g>
<!-- dir_d3731d706719beb3d6001df5dcff2644&#45;&gt;dir_60d51ee7315d72413f26211ac43a217e -->
<g id="edge1" class="edge">
<title>dir_d3731d706719beb3d6001df5dcff2644&#45;&gt;dir_60d51ee7315d72413f26211ac43a217e</title>
<path fill="none" stroke="black" d="M169.01,-204.19C157.65,-228.64 136.72,-273.67 123.35,-302.44"/>
<polygon fill="black" stroke="black" points="120,-301.33 118.96,-311.87 126.35,-304.28 120,-301.33"/>
<g id="a_edge1&#45;headlabel"><a xlink:href="dir_000010_000004.html" target="_top" xlink:title="29">
<text text-anchor="middle" x="118.94" y="-294.37" font-family="Helvetica,sans-Serif" font-size="10.00">29</text>
</a>
</g>
</g>
<!-- dir_d3731d706719beb3d6001df5dcff2644&#45;&gt;dir_9a5c88f87170865d940dc95c76676edb -->
<g id="edge5" class="edge">
<title>dir_d3731d706719beb3d6001df5dcff2644&#45;&gt;dir_9a5c88f87170865d940dc95c76676edb</title>
<path fill="none" stroke="black" d="M205.37,-198.62C223.36,-207.41 245.67,-221.19 259,-240 273.28,-260.14 306.06,-431.81 311,-456 315.21,-476.6 319.13,-500.05 321.9,-517.7"/>
<polygon fill="black" stroke="black" points="318.49,-518.53 323.47,-527.87 325.4,-517.46 318.49,-518.53"/>
<g id="a_edge5&#45;headlabel"><a xlink:href="dir_000010_000005.html" target="_top" xlink:title="17">
<text text-anchor="middle" x="315.13" y="-512.91" font-family="Helvetica,sans-Serif" font-size="10.00">17</text>
</a>
</g>
</g>
<!-- dir_d3731d706719beb3d6001df5dcff2644&#45;&gt;dir_7e29431de6169dbb5f5ee7a990ed2b16 -->
<g id="edge4" class="edge">
<title>dir_d3731d706719beb3d6001df5dcff2644&#45;&gt;dir_7e29431de6169dbb5f5ee7a990ed2b16</title>
<path fill="none" stroke="black" d="M174.46,-167.97C172.52,-148.76 172.3,-117.41 187,-96 201.86,-74.36 228.38,-60.97 250.65,-53.06"/>
<polygon fill="black" stroke="black" points="251.81,-56.36 260.21,-49.9 249.61,-49.71 251.81,-56.36"/>
<g id="a_edge4&#45;headlabel"><a xlink:href="dir_000010_000006.html" target="_top" xlink:title="2">
<text text-anchor="middle" x="249.29" y="-57.68" font-family="Helvetica,sans-Serif" font-size="10.00">2</text>
</a>
</g>
</g>
<!-- dir_d3731d706719beb3d6001df5dcff2644&#45;&gt;dir_77968f70279e8f688919023f4af8a16f -->
<g id="edge3" class="edge">
<title>dir_d3731d706719beb3d6001df5dcff2644&#45;&gt;dir_77968f70279e8f688919023f4af8a16f</title>
<path fill="none" stroke="black" d="M174.59,-167.87C171.18,-143.67 164.92,-99.21 160.86,-70.39"/>
<polygon fill="black" stroke="black" points="164.28,-69.6 159.42,-60.19 157.35,-70.58 164.28,-69.6"/>
<g id="a_edge3&#45;headlabel"><a xlink:href="dir_000010_000014.html" target="_top" xlink:title="2">
<text text-anchor="middle" x="167.59" y="-70.27" font-family="Helvetica,sans-Serif" font-size="10.00">2</text>
</a>
</g>
</g>
<!-- dir_d3731d706719beb3d6001df5dcff2644&#45;&gt;dir_cabf3d63e98569a74ecb960b83c4a15b -->
<g id="edge6" class="edge">
<title>dir_d3731d706719beb3d6001df5dcff2644&#45;&gt;dir_cabf3d63e98569a74ecb960b83c4a15b</title>
<path fill="none" stroke="black" d="M205.05,-197.52C225.93,-206.42 254.14,-220.79 274,-240 337.01,-300.95 377.44,-399.41 394.18,-446.4"/>
<polygon fill="black" stroke="black" points="390.89,-447.58 397.48,-455.88 397.5,-445.28 390.89,-447.58"/>
<g id="a_edge6&#45;headlabel"><a xlink:href="dir_000010_000015.html" target="_top" xlink:title="16">
<text text-anchor="middle" x="387.02" y="-442.62" font-family="Helvetica,sans-Serif" font-size="10.00">16</text>
</a>
</g>
</g>
<!-- dir_d3731d706719beb3d6001df5dcff2644&#45;&gt;dir_63ce3ba067bdf35a8f7c780ac03d51a3 -->
<g id="edge2" class="edge">
<title>dir_d3731d706719beb3d6001df5dcff2644&#45;&gt;dir_63ce3ba067bdf35a8f7c780ac03d51a3</title>
<path fill="none" stroke="black" d="M178.13,-204.23C180.55,-241.32 186.29,-328.98 189.21,-373.71"/>
<polygon fill="black" stroke="black" points="185.73,-374.1 189.88,-383.85 192.72,-373.64 185.73,-374.1"/>
<g id="a_edge2&#45;headlabel"><a xlink:href="dir_000010_000017.html" target="_top" xlink:title="49">
<text text-anchor="middle" x="182.66" y="-368.2" font-family="Helvetica,sans-Serif" font-size="10.00">49</text>
</a>
</g>
</g>
<!-- dir_cabf3d63e98569a74ecb960b83c4a15b&#45;&gt;dir_9a5c88f87170865d940dc95c76676edb -->
<g id="edge15" class="edge">
<title>dir_cabf3d63e98569a74ecb960b83c4a15b&#45;&gt;dir_9a5c88f87170865d940dc95c76676edb</title>
<path fill="none" stroke="black" d="M390.08,-492.1C381.42,-500.8 369.81,-511.52 358.81,-521.03"/>
<polygon fill="black" stroke="black" points="356.31,-518.56 350.95,-527.7 360.84,-523.9 356.31,-518.56"/>
<g id="a_edge15&#45;headlabel"><a xlink:href="dir_000015_000005.html" target="_top" xlink:title="4">
<text text-anchor="middle" x="357.22" y="-511.57" font-family="Helvetica,sans-Serif" font-size="10.00">4</text>
</a>
</g>
</g>
<!-- dir_cabf3d63e98569a74ecb960b83c4a15b&#45;&gt;dir_7e29431de6169dbb5f5ee7a990ed2b16 -->
<g id="edge14" class="edge">
<title>dir_cabf3d63e98569a74ecb960b83c4a15b&#45;&gt;dir_7e29431de6169dbb5f5ee7a990ed2b16</title>
<path fill="none" stroke="black" d="M412.94,-455.66C439,-407.76 504.24,-270.44 459,-168 434.22,-111.88 369.12,-75.7 327.05,-57.38"/>
<polygon fill="black" stroke="black" points="328.24,-54.08 317.67,-53.42 325.52,-60.53 328.24,-54.08"/>
<g id="a_edge14&#45;headlabel"><a xlink:href="dir_000015_000006.html" target="_top" xlink:title="3">
<text text-anchor="middle" x="332.66" y="-50.36" font-family="Helvetica,sans-Serif" font-size="10.00">3</text>
</a>
</g>
</g>
<!-- dir_cabf3d63e98569a74ecb960b83c4a15b&#45;&gt;dir_63ce3ba067bdf35a8f7c780ac03d51a3 -->
<g id="edge13" class="edge">
<title>dir_cabf3d63e98569a74ecb960b83c4a15b&#45;&gt;dir_63ce3ba067bdf35a8f7c780ac03d51a3</title>
<path fill="none" stroke="black" d="M375.72,-463.99C338.03,-451.55 269.94,-429.06 227.78,-415.15"/>
<polygon fill="black" stroke="black" points="228.77,-411.79 218.18,-411.97 226.57,-418.43 228.77,-411.79"/>
<g id="a_edge13&#45;headlabel"><a xlink:href="dir_000015_000017.html" target="_top" xlink:title="2">
<text text-anchor="middle" x="233.07" y="-407.72" font-family="Helvetica,sans-Serif" font-size="10.00">2</text>
</a>
</g>
</g>
<!-- dir_61b212e579fd471c490a116dc3a4c8cf&#45;&gt;dir_9a5c88f87170865d940dc95c76676edb -->
<g id="edge17" class="edge">
<title>dir_61b212e579fd471c490a116dc3a4c8cf&#45;&gt;dir_9a5c88f87170865d940dc95c76676edb</title>
<path fill="none" stroke="black" d="M429.88,-204.17C439.82,-230.56 457,-282.86 457,-329 457,-403 457,-403 457,-403 457,-443.36 463.93,-460.27 439,-492 420.29,-515.81 388.34,-529.42 363.17,-536.87"/>
<polygon fill="black" stroke="black" points="361.92,-533.58 353.21,-539.61 363.78,-540.33 361.92,-533.58"/>
<g id="a_edge17&#45;headlabel"><a xlink:href="dir_000016_000005.html" target="_top" xlink:title="1">
<text text-anchor="middle" x="364.64" y="-527.39" font-family="Helvetica,sans-Serif" font-size="10.00">1</text>
</a>
</g>
</g>
<!-- dir_61b212e579fd471c490a116dc3a4c8cf&#45;&gt;dir_7e29431de6169dbb5f5ee7a990ed2b16 -->
<g id="edge16" class="edge">
<title>dir_61b212e579fd471c490a116dc3a4c8cf&#45;&gt;dir_7e29431de6169dbb5f5ee7a990ed2b16</title>
<path fill="none" stroke="black" d="M413.72,-168C402.9,-149.09 383.69,-118.28 362,-96 351.17,-84.87 337.78,-74.42 325.44,-65.78"/>
<polygon fill="black" stroke="black" points="327.35,-62.84 317.11,-60.11 323.41,-68.63 327.35,-62.84"/>
<g id="a_edge16&#45;headlabel"><a xlink:href="dir_000016_000006.html" target="_top" xlink:title="1">
<text text-anchor="middle" x="331.92" y="-60.02" font-family="Helvetica,sans-Serif" font-size="10.00">1</text>
</a>
</g>
</g>
<!-- dir_61b212e579fd471c490a116dc3a4c8cf&#45;&gt;dir_cabf3d63e98569a74ecb960b83c4a15b -->
<g id="edge18" class="edge">
<title>dir_61b212e579fd471c490a116dc3a4c8cf&#45;&gt;dir_cabf3d63e98569a74ecb960b83c4a15b</title>
<path fill="none" stroke="black" d="M421.79,-204.31C418.43,-252.31 408.98,-387.44 404.91,-445.7"/>
<polygon fill="black" stroke="black" points="401.4,-445.75 404.19,-455.97 408.38,-446.23 401.4,-445.75"/>
<g id="a_edge18&#45;headlabel"><a xlink:href="dir_000016_000015.html" target="_top" xlink:title="1">
<text text-anchor="middle" x="398.82" y="-439.46" font-family="Helvetica,sans-Serif" font-size="10.00">1</text>
</a>
</g>
</g>
<!-- dir_63ce3ba067bdf35a8f7c780ac03d51a3&#45;&gt;dir_60d51ee7315d72413f26211ac43a217e -->
<g id="edge19" class="edge">
<title>dir_63ce3ba067bdf35a8f7c780ac03d51a3&#45;&gt;dir_60d51ee7315d72413f26211ac43a217e</title>
<path fill="none" stroke="black" d="M165.31,-383.7C154.54,-375.05 142.24,-364.45 132.01,-355.03"/>
<polygon fill="black" stroke="black" points="134.34,-352.41 124.65,-348.1 129.54,-357.5 134.34,-352.41"/>
<g id="a_edge19&#45;headlabel"><a xlink:href="dir_000017_000004.html" target="_top" xlink:title="3">
<text text-anchor="middle" x="138.9" y="-350.3" font-family="Helvetica,sans-Serif" font-size="10.00">3</text>
</a>
</g>
</g>
<!-- dir_63ce3ba067bdf35a8f7c780ac03d51a3&#45;&gt;dir_9a5c88f87170865d940dc95c76676edb -->
<g id="edge21" class="edge">
<title>dir_63ce3ba067bdf35a8f7c780ac03d51a3&#45;&gt;dir_9a5c88f87170865d940dc95c76676edb</title>
<path fill="none" stroke="black" d="M211.93,-420.19C238.2,-445.06 282.35,-491.25 307.46,-519.93"/>
<polygon fill="black" stroke="black" points="305.12,-522.58 314.3,-527.87 310.42,-518.01 305.12,-522.58"/>
<g id="a_edge21&#45;headlabel"><a xlink:href="dir_000017_000005.html" target="_top" xlink:title="2">
<text text-anchor="middle" x="300.62" y="-519.21" font-family="Helvetica,sans-Serif" font-size="10.00">2</text>
</a>
</g>
</g>
<!-- dir_63ce3ba067bdf35a8f7c780ac03d51a3&#45;&gt;dir_7e29431de6169dbb5f5ee7a990ed2b16 -->
<g id="edge20" class="edge">
<title>dir_63ce3ba067bdf35a8f7c780ac03d51a3&#45;&gt;dir_7e29431de6169dbb5f5ee7a990ed2b16</title>
<path fill="none" stroke="black" d="M203.12,-383.73C218.8,-360.44 245.68,-317.13 259,-276 282.22,-204.28 287.55,-114.66 288.72,-70.38"/>
<polygon fill="black" stroke="black" points="292.22,-70.21 288.93,-60.14 285.22,-70.06 292.22,-70.21"/>
<g id="a_edge20&#45;headlabel"><a xlink:href="dir_000017_000006.html" target="_top" xlink:title="2">
<text text-anchor="middle" x="294.99" y="-71.36" font-family="Helvetica,sans-Serif" font-size="10.00">2</text>
</a>
</g>
</g>
<!-- dir_1d79b4615f725ce6e1b38311d89b4d4f&#45;&gt;dir_60d51ee7315d72413f26211ac43a217e -->
<g id="edge9" class="edge">
<title>dir_1d79b4615f725ce6e1b38311d89b4d4f&#45;&gt;dir_60d51ee7315d72413f26211ac43a217e</title>
<path fill="none" stroke="black" d="M265.78,-599.89C254.95,-590.09 241.84,-577.14 232,-564 180.81,-495.66 139.74,-402.57 121.4,-357.55"/>
<polygon fill="black" stroke="black" points="124.61,-356.16 117.63,-348.19 118.12,-358.77 124.61,-356.16"/>
<g id="a_edge9&#45;headlabel"><a xlink:href="dir_000018_000004.html" target="_top" xlink:title="2">
<text text-anchor="middle" x="128.59" y="-355.93" font-family="Helvetica,sans-Serif" font-size="10.00">2</text>
</a>
</g>
</g>
<!-- dir_1d79b4615f725ce6e1b38311d89b4d4f&#45;&gt;dir_9a5c88f87170865d940dc95c76676edb -->
<g id="edge11" class="edge">
<title>dir_1d79b4615f725ce6e1b38311d89b4d4f&#45;&gt;dir_9a5c88f87170865d940dc95c76676edb</title>
<path fill="none" stroke="black" d="M295.89,-599.7C300.49,-591.64 306.06,-581.89 311.15,-572.98"/>
<polygon fill="black" stroke="black" points="314.3,-574.52 316.23,-564.1 308.23,-571.05 314.3,-574.52"/>
<g id="a_edge11&#45;headlabel"><a xlink:href="dir_000018_000005.html" target="_top" xlink:title="4">
<text text-anchor="middle" x="314.99" y="-576.55" font-family="Helvetica,sans-Serif" font-size="10.00">4</text>
</a>
</g>
</g>
<!-- dir_1d79b4615f725ce6e1b38311d89b4d4f&#45;&gt;dir_4d7f8bf987ecca6ad9438e8e8937cf95 -->
<g id="edge8" class="edge">
<title>dir_1d79b4615f725ce6e1b38311d89b4d4f&#45;&gt;dir_4d7f8bf987ecca6ad9438e8e8937cf95</title>
<path fill="none" stroke="black" d="M280.13,-599.74C271.66,-573.25 257,-520.79 257,-475 257,-475 257,-475 257,-401 257,-359.91 243.37,-313.92 233.37,-285.72"/>
<polygon fill="black" stroke="black" points="236.6,-284.36 229.88,-276.17 230.03,-286.76 236.6,-284.36"/>
<g id="a_edge8&#45;headlabel"><a xlink:href="dir_000018_000009.html" target="_top" xlink:title="4">
<text text-anchor="middle" x="240.5" y="-284.26" font-family="Helvetica,sans-Serif" font-size="10.00">4</text>
</a>
</g>
</g>
<!-- dir_1d79b4615f725ce6e1b38311d89b4d4f&#45;&gt;dir_cabf3d63e98569a74ecb960b83c4a15b -->
<g id="edge12" class="edge">
<title>dir_1d79b4615f725ce6e1b38311d89b4d4f&#45;&gt;dir_cabf3d63e98569a74ecb960b83c4a15b</title>
<path fill="none" stroke="black" d="M315.57,-601.46C330.97,-592.21 349.2,-579.3 362,-564 377.36,-545.64 388.22,-520.58 394.89,-501.72"/>
<polygon fill="black" stroke="black" points="398.21,-502.83 398.08,-492.24 391.58,-500.6 398.21,-502.83"/>
<g id="a_edge12&#45;headlabel"><a xlink:href="dir_000018_000015.html" target="_top" xlink:title="10">
<text text-anchor="middle" x="399.76" y="-504.64" font-family="Helvetica,sans-Serif" font-size="10.00">10</text>
</a>
</g>
</g>
<!-- dir_1d79b4615f725ce6e1b38311d89b4d4f&#45;&gt;dir_63ce3ba067bdf35a8f7c780ac03d51a3 -->
<g id="edge10" class="edge">
<title>dir_1d79b4615f725ce6e1b38311d89b4d4f&#45;&gt;dir_63ce3ba067bdf35a8f7c780ac03d51a3</title>
<path fill="none" stroke="black" d="M273.72,-599.87C266.79,-589.75 258.29,-576.5 252,-564 229.2,-518.71 209.83,-462.74 199.36,-430.14"/>
<polygon fill="black" stroke="black" points="202.64,-428.89 196.28,-420.42 195.96,-431.01 202.64,-428.89"/>
<g id="a_edge10&#45;headlabel"><a xlink:href="dir_000018_000017.html" target="_top" xlink:title="4">
<text text-anchor="middle" x="206.43" y="-428.96" font-family="Helvetica,sans-Serif" font-size="10.00">4</text>
</a>
</g>
</g>
</g>
</svg>
        <g id="navigator" transform="translate(0 0)" fill="#404254">
                <rect fill="#f2f5e9" fill-opacity="0.5" stroke="#606060" stroke-width=".5" x="0" y="0" width="60" height="60"/>
                <use id="zoomplus" xlink:href="#zoomPlus" x="17" y="9" onmousedown="handleZoom(evt,'in')"/>
                <use id="zoomminus" xlink:href="#zoomMin" x="42" y="9" onmousedown="handleZoom(evt,'out')"/>
                <use id="reset" xlink:href="#resetDef" x="30" y="36" onmousedown="handleReset()"/>
                <g id="arrowUp" xlink:href="#dirArrow" transform="translate(30 24)" onmousedown="handlePan(0,-1)">
                  <use xlink:href="#rim" fill="#404040">
                        <set attributeName="fill" to="#808080" begin="arrowUp.mouseover" end="arrowUp.mouseout"/>
                  </use>
                  <path fill="none" stroke="white" stroke-width="1.5" d="M0,-3.0v7 M-2.5,-0.5L0,-3.0L2.5,-0.5"/>
                </g>
                <g id="arrowRight" xlink:href="#dirArrow" transform="rotate(90) translate(36 -43)" onmousedown="handlePan(1,0)">
                  <use xlink:href="#rim" fill="#404040">
                        <set attributeName="fill" to="#808080" begin="arrowRight.mouseover" end="arrowRight.mouseout"/>
                  </use>
                  <path fill="none" stroke="white" stroke-width="1.5" d="M0,-3.0v7 M-2.5,-0.5L0,-3.0L2.5,-0.5"/>
                </g>
                <g id="arrowDown" xlink:href="#dirArrow" transform="rotate(180) translate(-30 -48)" onmousedown="handlePan(0,1)">
                  <use xlink:href="#rim" fill="#404040">
                        <set attributeName="fill" to="#808080" begin="arrowDown.mouseover" end="arrowDown.mouseout"/>
                  </use>
                  <path fill="none" stroke="white" stroke-width="1.5" d="M0,-3.0v7 M-2.5,-0.5L0,-3.0L2.5,-0.5"/>
                </g>
                <g id="arrowLeft" xlink:href="#dirArrow" transform="rotate(270) translate(-36 17)" onmousedown="handlePan(-1,0)">
                  <use xlink:href="#rim" fill="#404040">
                        <set attributeName="fill" to="#808080" begin="arrowLeft.mouseover" end="arrowLeft.mouseout"/>
                  </use>
                  <path fill="none" stroke="white" stroke-width="1.5" d="M0,-3.0v7 M-2.5,-0.5L0,-3.0L2.5,-0.5"/>
                </g>
        </g>
        <svg viewBox="0 0 15 15" width="100%" height="30px" preserveAspectRatio="xMaxYMin meet">
         <g id="arrow_out" transform="scale(0.3 0.3)">
          <a xlink:href="dir_df02266255841645c523fab960c9ed1d_dep_org.svg" target="_base">
           <rect id="button" ry="5" rx="5" y="6" x="6" height="38" width="38"
                fill="#f2f5e9" fill-opacity="0.5" stroke="#606060" stroke-width="1.0"/>
           <path id="arrow"
             d="M 11.500037,31.436501 C 11.940474,20.09759 22.043105,11.32322 32.158766,21.979434 L 37.068811,17.246167 C 37.068811,17.246167 37.088388,32 37.088388,32 L 22.160133,31.978069 C 22.160133,31.978069 26.997745,27.140456 26.997745,27.140456 C 18.528582,18.264221 13.291696,25.230495 11.500037,31.436501 z"
             style="fill:#404040;"/>
          </a>
         </g>
        </svg>
</svg>
