<?xml version="1.0" encoding="UTF-8" standalone="no"?>
<!DOCTYPE svg PUBLIC "-//W3C//DTD SVG 1.1//EN"
 "http://www.w3.org/Graphics/SVG/1.1/DTD/svg11.dtd">
<!-- Generated by graphviz version 2.43.0 (0)
 -->
<!-- Title: VortexEngine/src/Menus/MenuList Pages: 1 -->
<!--zoomable 655 -->
<svg id="main" version="1.1" xmlns="http://www.w3.org/2000/svg" xmlns:xlink="http://www.w3.org/1999/xlink" xml:space="preserve" onload="init(evt)">
<style type="text/css"><![CDATA[
.edge:hover path { stroke: red; }
.edge:hover polygon { stroke: red; fill: red; }
]]></style>
<script type="text/javascript"><![CDATA[
var edges = document.getElementsByTagName('g');
if (edges && edges.length) {
  for (var i=0;i<edges.length;i++) {
    if (edges[i].id.substr(0,4)=='edge') {
      edges[i].setAttribute('class','edge');
    }
  }
}
]]></script>
        <defs>
                <circle id="rim" cx="0" cy="0" r="7"/>
                <circle id="rim2" cx="0" cy="0" r="3.5"/>
                <g id="zoomPlus">
                        <use xlink:href="#rim" fill="#404040">
                                <set attributeName="fill" to="#808080" begin="zoomplus.mouseover" end="zoomplus.mouseout"/>
                        </use>
                        <path d="M-4,0h8M0,-4v8" fill="none" stroke="white" stroke-width="1.5" pointer-events="none"/>
                </g>
                <g id="zoomMin">
                        <use xlink:href="#rim" fill="#404040">
                                <set attributeName="fill" to="#808080" begin="zoomminus.mouseover" end="zoomminus.mouseout"/>
                        </use>
                        <path d="M-4,0h8" fill="none" stroke="white" stroke-width="1.5" pointer-events="none"/>
                </g>
                <g id="dirArrow">
                        <path fill="none" stroke="white" stroke-width="1.5" d="M0,-3.0v7 M-2.5,-0.5L0,-3.0L2.5,-0.5"/>
                </g>
               <g id="resetDef">
                       <use xlink:href="#rim2" fill="#404040">
                               <set attributeName="fill" to="#808080" begin="reset.mouseover" end="reset.mouseout"/>
                       </use>
               </g>
        </defs>

<script type="text/javascript">
var viewWidth = 897;
var viewHeight = 655;
var sectionId = 'dynsection-0';
</script>
<script xlink:href="svgpan.js"/>
<svg id="graph" class="graph">
<g id="viewport">
<title>VortexEngine/src/Menus/MenuList</title>
<g id="clust1" class="cluster">
<title>clusterdir_7e4d93e079ad601e0006c23ac3d37255</title>
<g id="a_clust1"><a xlink:href="dir_7e4d93e079ad601e0006c23ac3d37255.html" target="_top" xlink:title="Menus">
<polygon fill="#ddddee" stroke="black" points="414,-568 414,-639 492,-639 492,-568 414,-568"/>
<text text-anchor="middle" x="453" y="-627" font-family="Helvetica,sans-Serif" font-size="10.00">Menus</text>
</a>
</g>
</g>
<!-- dir_64b4510cba155c652ac883383ddf0b92 -->
<g id="node1" class="node">
<title>dir_64b4510cba155c652ac883383ddf0b92</title>
<g id="a_node1"><a xlink:href="dir_64b4510cba155c652ac883383ddf0b92.html" target="_top" xlink:title="MenuList">
<polygon fill="#eeeeff" stroke="black" points="483.5,-612 422.5,-612 422.5,-576 483.5,-576 483.5,-612"/>
<text text-anchor="middle" x="453" y="-591.5" font-family="Helvetica,sans-Serif" font-size="10.00">MenuList</text>
</a>
</g>
</g>
<!-- dir_1d79b4615f725ce6e1b38311d89b4d4f -->
<g id="node2" class="node">
<title>dir_1d79b4615f725ce6e1b38311d89b4d4f</title>
<g id="a_node2"><a xlink:href="dir_1d79b4615f725ce6e1b38311d89b4d4f.html" target="_top" xlink:title="Wireless">
<polygon fill="none" stroke="black" points="276.5,-540 217.5,-540 217.5,-504 276.5,-504 276.5,-540"/>
<text text-anchor="middle" x="247" y="-519.5" font-family="Helvetica,sans-Serif" font-size="10.00">Wireless</text>
</a>
</g>
</g>
<!-- dir_64b4510cba155c652ac883383ddf0b92&#45;&gt;dir_1d79b4615f725ce6e1b38311d89b4d4f -->
<g id="edge31" class="edge">
<title>dir_64b4510cba155c652ac883383ddf0b92&#45;&gt;dir_1d79b4615f725ce6e1b38311d89b4d4f</title>
<path fill="none" stroke="black" d="M422.16,-582.52C385.94,-570.21 325.81,-549.78 286.29,-536.35"/>
<polygon fill="black" stroke="black" points="287.31,-533 276.71,-533.1 285.05,-539.63 287.31,-533"/>
<g id="a_edge31&#45;headlabel"><a xlink:href="dir_000008_000018.html" target="_top" xlink:title="3">
<text text-anchor="middle" x="291.62" y="-528.97" font-family="Helvetica,sans-Serif" font-size="10.00">3</text>
</a>
</g>
</g>
<!-- dir_4d7f8bf987ecca6ad9438e8e8937cf95 -->
<g id="node3" class="node">
<title>dir_4d7f8bf987ecca6ad9438e8e8937cf95</title>
<g id="a_node3"><a xlink:href="dir_4d7f8bf987ecca6ad9438e8e8937cf95.html" target="_top" xlink:title="Modes">
<polygon fill="none" stroke="black" points="425,-468 371,-468 371,-432 425,-432 425,-468"/>
<text text-anchor="middle" x="398" y="-447.5" font-family="Helvetica,sans-Serif" font-size="10.00">Modes</text>
</a>
</g>
</g>
<!-- dir_64b4510cba155c652ac883383ddf0b92&#45;&gt;dir_4d7f8bf987ecca6ad9438e8e8937cf95 -->
<g id="edge32" class="edge">
<title>dir_64b4510cba155c652ac883383ddf0b92&#45;&gt;dir_4d7f8bf987ecca6ad9438e8e8937cf95</title>
<path fill="none" stroke="black" d="M446.37,-575.87C436.91,-551.46 419.47,-506.43 408.32,-477.64"/>
<polygon fill="black" stroke="black" points="411.53,-476.25 404.66,-468.19 405.01,-478.78 411.53,-476.25"/>
<g id="a_edge32&#45;headlabel"><a xlink:href="dir_000008_000009.html" target="_top" xlink:title="16">
<text text-anchor="middle" x="415.48" y="-476.08" font-family="Helvetica,sans-Serif" font-size="10.00">16</text>
</a>
</g>
</g>
<!-- dir_60d51ee7315d72413f26211ac43a217e -->
<g id="node4" class="node">
<title>dir_60d51ee7315d72413f26211ac43a217e</title>
<g id="a_node4"><a xlink:href="dir_60d51ee7315d72413f26211ac43a217e.html" target="_top" xlink:title="Leds">
<polygon fill="none" stroke="black" points="323,-324 269,-324 269,-288 323,-288 323,-324"/>
<text text-anchor="middle" x="296" y="-303.5" font-family="Helvetica,sans-Serif" font-size="10.00">Leds</text>
</a>
</g>
</g>
<!-- dir_64b4510cba155c652ac883383ddf0b92&#45;&gt;dir_60d51ee7315d72413f26211ac43a217e -->
<g id="edge33" class="edge">
<title>dir_64b4510cba155c652ac883383ddf0b92&#45;&gt;dir_60d51ee7315d72413f26211ac43a217e</title>
<path fill="none" stroke="black" d="M422.44,-591.03C362.85,-586.49 234.64,-573.02 208,-540 156,-475.55 231.04,-377.14 272.16,-331.65"/>
<polygon fill="black" stroke="black" points="274.96,-333.77 279.16,-324.04 269.81,-329.03 274.96,-333.77"/>
<g id="a_edge33&#45;headlabel"><a xlink:href="dir_000008_000004.html" target="_top" xlink:title="7">
<text text-anchor="middle" x="274.61" y="-335.84" font-family="Helvetica,sans-Serif" font-size="10.00">7</text>
</a>
</g>
</g>
<!-- dir_61b212e579fd471c490a116dc3a4c8cf -->
<g id="node5" class="node">
<title>dir_61b212e579fd471c490a116dc3a4c8cf</title>
<g id="a_node5"><a xlink:href="dir_61b212e579fd471c490a116dc3a4c8cf.html" target="_top" xlink:title="Storage">
<polygon fill="none" stroke="black" points="480,-396 426,-396 426,-360 480,-360 480,-396"/>
<text text-anchor="middle" x="453" y="-375.5" font-family="Helvetica,sans-Serif" font-size="10.00">Storage</text>
</a>
</g>
</g>
<!-- dir_64b4510cba155c652ac883383ddf0b92&#45;&gt;dir_61b212e579fd471c490a116dc3a4c8cf -->
<g id="edge34" class="edge">
<title>dir_64b4510cba155c652ac883383ddf0b92&#45;&gt;dir_61b212e579fd471c490a116dc3a4c8cf</title>
<path fill="none" stroke="black" d="M453,-575.85C453,-538.83 453,-451.18 453,-406.39"/>
<polygon fill="black" stroke="black" points="456.5,-406.23 453,-396.23 449.5,-406.23 456.5,-406.23"/>
<g id="a_edge34&#45;headlabel"><a xlink:href="dir_000008_000016.html" target="_top" xlink:title="1">
<text text-anchor="middle" x="459.34" y="-407.33" font-family="Helvetica,sans-Serif" font-size="10.00">1</text>
</a>
</g>
</g>
<!-- dir_63ce3ba067bdf35a8f7c780ac03d51a3 -->
<g id="node6" class="node">
<title>dir_63ce3ba067bdf35a8f7c780ac03d51a3</title>
<g id="a_node6"><a xlink:href="dir_63ce3ba067bdf35a8f7c780ac03d51a3.html" target="_top" xlink:title="Time">
<polygon fill="none" stroke="black" points="338,-36 284,-36 284,0 338,0 338,-36"/>
<text text-anchor="middle" x="311" y="-15.5" font-family="Helvetica,sans-Serif" font-size="10.00">Time</text>
</a>
</g>
</g>
<!-- dir_64b4510cba155c652ac883383ddf0b92&#45;&gt;dir_63ce3ba067bdf35a8f7c780ac03d51a3 -->
<g id="edge35" class="edge">
<title>dir_64b4510cba155c652ac883383ddf0b92&#45;&gt;dir_63ce3ba067bdf35a8f7c780ac03d51a3</title>
<path fill="none" stroke="black" d="M422.22,-590.09C320.26,-579.63 0,-539.7 0,-451 0,-451 0,-451 0,-161 0,-41.87 191.16,-22.26 273.74,-19.34"/>
<polygon fill="black" stroke="black" points="274.05,-22.83 283.94,-19.05 273.85,-15.83 274.05,-22.83"/>
<g id="a_edge35&#45;headlabel"><a xlink:href="dir_000008_000017.html" target="_top" xlink:title="10">
<text text-anchor="middle" x="270.54" y="-23.27" font-family="Helvetica,sans-Serif" font-size="10.00">10</text>
</a>
</g>
</g>
<!-- dir_77968f70279e8f688919023f4af8a16f -->
<g id="node7" class="node">
<title>dir_77968f70279e8f688919023f4af8a16f</title>
<g id="a_node7"><a xlink:href="dir_77968f70279e8f688919023f4af8a16f.html" target="_top" xlink:title="Random">
<polygon fill="none" stroke="black" points="859.5,-180 802.5,-180 802.5,-144 859.5,-144 859.5,-180"/>
<text text-anchor="middle" x="831" y="-159.5" font-family="Helvetica,sans-Serif" font-size="10.00">Random</text>
</a>
</g>
</g>
<!-- dir_64b4510cba155c652ac883383ddf0b92&#45;&gt;dir_77968f70279e8f688919023f4af8a16f -->
<g id="edge36" class="edge">
<title>dir_64b4510cba155c652ac883383ddf0b92&#45;&gt;dir_77968f70279e8f688919023f4af8a16f</title>
<path fill="none" stroke="black" d="M483.59,-589.73C582.6,-578.32 888,-536.2 888,-451 888,-451 888,-451 888,-377 888,-307.35 859.46,-229.12 842.77,-189.32"/>
<polygon fill="black" stroke="black" points="845.96,-187.88 838.81,-180.06 839.52,-190.63 845.96,-187.88"/>
<g id="a_edge36&#45;headlabel"><a xlink:href="dir_000008_000014.html" target="_top" xlink:title="3">
<text text-anchor="middle" x="849.98" y="-187.57" font-family="Helvetica,sans-Serif" font-size="10.00">3</text>
</a>
</g>
</g>
<!-- dir_9a5c88f87170865d940dc95c76676edb -->
<g id="node8" class="node">
<title>dir_9a5c88f87170865d940dc95c76676edb</title>
<g id="a_node8"><a xlink:href="dir_9a5c88f87170865d940dc95c76676edb.html" target="_top" xlink:title="Log">
<polygon fill="none" stroke="black" points="514,-180 460,-180 460,-144 514,-144 514,-180"/>
<text text-anchor="middle" x="487" y="-159.5" font-family="Helvetica,sans-Serif" font-size="10.00">Log</text>
</a>
</g>
</g>
<!-- dir_64b4510cba155c652ac883383ddf0b92&#45;&gt;dir_9a5c88f87170865d940dc95c76676edb -->
<g id="edge37" class="edge">
<title>dir_64b4510cba155c652ac883383ddf0b92&#45;&gt;dir_9a5c88f87170865d940dc95c76676edb</title>
<path fill="none" stroke="black" d="M483.55,-591.67C556.73,-586.67 736,-563 736,-451 736,-451 736,-451 736,-377 736,-287.22 684.99,-270.96 614,-216 587.11,-195.18 550.87,-181.13 523.98,-172.76"/>
<polygon fill="black" stroke="black" points="524.76,-169.34 514.18,-169.82 522.75,-176.04 524.76,-169.34"/>
<g id="a_edge37&#45;headlabel"><a xlink:href="dir_000008_000005.html" target="_top" xlink:title="7">
<text text-anchor="middle" x="529.02" y="-165.15" font-family="Helvetica,sans-Serif" font-size="10.00">7</text>
</a>
</g>
</g>
<!-- dir_cabf3d63e98569a74ecb960b83c4a15b -->
<g id="node9" class="node">
<title>dir_cabf3d63e98569a74ecb960b83c4a15b</title>
<g id="a_node9"><a xlink:href="dir_cabf3d63e98569a74ecb960b83c4a15b.html" target="_top" xlink:title="Serial">
<polygon fill="none" stroke="black" points="421,-108 367,-108 367,-72 421,-72 421,-108"/>
<text text-anchor="middle" x="394" y="-87.5" font-family="Helvetica,sans-Serif" font-size="10.00">Serial</text>
</a>
</g>
</g>
<!-- dir_64b4510cba155c652ac883383ddf0b92&#45;&gt;dir_cabf3d63e98569a74ecb960b83c4a15b -->
<g id="edge38" class="edge">
<title>dir_64b4510cba155c652ac883383ddf0b92&#45;&gt;dir_cabf3d63e98569a74ecb960b83c4a15b</title>
<path fill="none" stroke="black" d="M422.41,-591.58C359.15,-587.92 217.37,-575.83 188,-540 94.83,-426.35 184.04,-345.24 254,-216 272.43,-181.96 274.69,-170.39 303,-144 319.06,-129.03 340.07,-116.44 357.86,-107.3"/>
<polygon fill="black" stroke="black" points="359.43,-110.43 366.82,-102.84 356.31,-104.16 359.43,-110.43"/>
<g id="a_edge38&#45;headlabel"><a xlink:href="dir_000008_000015.html" target="_top" xlink:title="6">
<text text-anchor="middle" x="357.48" y="-112.07" font-family="Helvetica,sans-Serif" font-size="10.00">6</text>
</a>
</g>
</g>
<!-- dir_ce91f970b513fb5ff406625265505b14 -->
<g id="node10" class="node">
<title>dir_ce91f970b513fb5ff406625265505b14</title>
<g id="a_node10"><a xlink:href="dir_ce91f970b513fb5ff406625265505b14.html" target="_top" xlink:title="Colors">
<polygon fill="none" stroke="black" points="552,-252 498,-252 498,-216 552,-216 552,-252"/>
<text text-anchor="middle" x="525" y="-231.5" font-family="Helvetica,sans-Serif" font-size="10.00">Colors</text>
</a>
</g>
</g>
<!-- dir_64b4510cba155c652ac883383ddf0b92&#45;&gt;dir_ce91f970b513fb5ff406625265505b14 -->
<g id="edge39" class="edge">
<title>dir_64b4510cba155c652ac883383ddf0b92&#45;&gt;dir_ce91f970b513fb5ff406625265505b14</title>
<path fill="none" stroke="black" d="M474.1,-575.68C501.54,-551.08 546,-503.16 546,-451 546,-451 546,-451 546,-377 546,-336.78 537.65,-290.84 531.49,-262.37"/>
<polygon fill="black" stroke="black" points="534.85,-261.36 529.25,-252.37 528.01,-262.89 534.85,-261.36"/>
<g id="a_edge39&#45;headlabel"><a xlink:href="dir_000008_000003.html" target="_top" xlink:title="5">
<text text-anchor="middle" x="538.4" y="-261.75" font-family="Helvetica,sans-Serif" font-size="10.00">5</text>
</a>
</g>
</g>
<!-- dir_d3731d706719beb3d6001df5dcff2644 -->
<g id="node11" class="node">
<title>dir_d3731d706719beb3d6001df5dcff2644</title>
<g id="a_node11"><a xlink:href="dir_d3731d706719beb3d6001df5dcff2644.html" target="_top" xlink:title="Patterns">
<polygon fill="none" stroke="red" points="630,-396 574,-396 574,-360 630,-360 630,-396"/>
<text text-anchor="middle" x="602" y="-375.5" font-family="Helvetica,sans-Serif" font-size="10.00">Patterns</text>
</a>
</g>
</g>
<!-- dir_64b4510cba155c652ac883383ddf0b92&#45;&gt;dir_d3731d706719beb3d6001df5dcff2644 -->
<g id="edge40" class="edge">
<title>dir_64b4510cba155c652ac883383ddf0b92&#45;&gt;dir_d3731d706719beb3d6001df5dcff2644</title>
<path fill="none" stroke="black" d="M483.72,-585.37C507.9,-577.79 540.64,-563.8 560,-540 591.59,-501.18 599.66,-441.17 601.57,-406.42"/>
<polygon fill="black" stroke="black" points="605.08,-406.23 602,-396.09 598.09,-405.94 605.08,-406.23"/>
<g id="a_edge40&#45;headlabel"><a xlink:href="dir_000008_000010.html" target="_top" xlink:title="8">
<text text-anchor="middle" x="607.77" y="-407.44" font-family="Helvetica,sans-Serif" font-size="10.00">8</text>
</a>
</g>
</g>
<!-- dir_ff5a4dc0324506fcdfb8f8f681f9dae7 -->
<g id="node12" class="node">
<title>dir_ff5a4dc0324506fcdfb8f8f681f9dae7</title>
<g id="a_node12"><a xlink:href="dir_ff5a4dc0324506fcdfb8f8f681f9dae7.html" target="_top" xlink:title="Buttons">
<polygon fill="none" stroke="black" points="702,-396 648,-396 648,-360 702,-360 702,-396"/>
<text text-anchor="middle" x="675" y="-375.5" font-family="Helvetica,sans-Serif" font-size="10.00">Buttons</text>
</a>
</g>
</g>
<!-- dir_64b4510cba155c652ac883383ddf0b92&#45;&gt;dir_ff5a4dc0324506fcdfb8f8f681f9dae7 -->
<g id="edge41" class="edge">
<title>dir_64b4510cba155c652ac883383ddf0b92&#45;&gt;dir_ff5a4dc0324506fcdfb8f8f681f9dae7</title>
<path fill="none" stroke="black" d="M483.62,-586.91C512.56,-579.83 555.8,-565.69 585,-540 627.24,-502.85 653.88,-440.88 666.45,-405.64"/>
<polygon fill="black" stroke="black" points="669.81,-406.63 669.76,-396.04 663.19,-404.35 669.81,-406.63"/>
<g id="a_edge41&#45;headlabel"><a xlink:href="dir_000008_000002.html" target="_top" xlink:title="5">
<text text-anchor="middle" x="671.32" y="-408.45" font-family="Helvetica,sans-Serif" font-size="10.00">5</text>
</a>
</g>
</g>
<!-- dir_1d79b4615f725ce6e1b38311d89b4d4f&#45;&gt;dir_4d7f8bf987ecca6ad9438e8e8937cf95 -->
<g id="edge7" class="edge">
<title>dir_1d79b4615f725ce6e1b38311d89b4d4f&#45;&gt;dir_4d7f8bf987ecca6ad9438e8e8937cf95</title>
<path fill="none" stroke="black" d="M276.83,-507.17C301.18,-495.89 335.66,-479.9 361.62,-467.86"/>
<polygon fill="black" stroke="black" points="363.17,-471.01 370.77,-463.62 360.22,-464.66 363.17,-471.01"/>
<g id="a_edge7&#45;headlabel"><a xlink:href="dir_000018_000009.html" target="_top" xlink:title="4">
<text text-anchor="middle" x="361.1" y="-472.59" font-family="Helvetica,sans-Serif" font-size="10.00">4</text>
</a>
</g>
</g>
<!-- dir_1d79b4615f725ce6e1b38311d89b4d4f&#45;&gt;dir_60d51ee7315d72413f26211ac43a217e -->
<g id="edge8" class="edge">
<title>dir_1d79b4615f725ce6e1b38311d89b4d4f&#45;&gt;dir_60d51ee7315d72413f26211ac43a217e</title>
<path fill="none" stroke="black" d="M250.93,-503.85C259.42,-466.75 279.56,-378.81 289.79,-334.1"/>
<polygon fill="black" stroke="black" points="293.23,-334.76 292.05,-324.23 286.41,-333.2 293.23,-334.76"/>
<g id="a_edge8&#45;headlabel"><a xlink:href="dir_000018_000004.html" target="_top" xlink:title="2">
<text text-anchor="middle" x="295.2" y="-336.4" font-family="Helvetica,sans-Serif" font-size="10.00">2</text>
</a>
</g>
</g>
<!-- dir_1d79b4615f725ce6e1b38311d89b4d4f&#45;&gt;dir_63ce3ba067bdf35a8f7c780ac03d51a3 -->
<g id="edge9" class="edge">
<title>dir_1d79b4615f725ce6e1b38311d89b4d4f&#45;&gt;dir_63ce3ba067bdf35a8f7c780ac03d51a3</title>
<path fill="none" stroke="black" d="M217.5,-507.8C159.89,-479.79 38,-408.53 38,-307 38,-307 38,-307 38,-161 38,-56.11 198.59,-28.58 273.43,-21.45"/>
<polygon fill="black" stroke="black" points="274.17,-24.9 283.83,-20.54 273.56,-17.93 274.17,-24.9"/>
<g id="a_edge9&#45;headlabel"><a xlink:href="dir_000018_000017.html" target="_top" xlink:title="4">
<text text-anchor="middle" x="270.84" y="-25.54" font-family="Helvetica,sans-Serif" font-size="10.00">4</text>
</a>
</g>
</g>
<!-- dir_1d79b4615f725ce6e1b38311d89b4d4f&#45;&gt;dir_9a5c88f87170865d940dc95c76676edb -->
<g id="edge10" class="edge">
<title>dir_1d79b4615f725ce6e1b38311d89b4d4f&#45;&gt;dir_9a5c88f87170865d940dc95c76676edb</title>
<path fill="none" stroke="black" d="M242.74,-503.82C233.6,-462.81 216.31,-357.44 260,-288 303.01,-219.64 397.34,-185.68 449.85,-171.5"/>
<polygon fill="black" stroke="black" points="450.97,-174.82 459.77,-168.92 449.21,-168.05 450.97,-174.82"/>
<g id="a_edge10&#45;headlabel"><a xlink:href="dir_000018_000005.html" target="_top" xlink:title="4">
<text text-anchor="middle" x="448.21" y="-175.97" font-family="Helvetica,sans-Serif" font-size="10.00">4</text>
</a>
</g>
</g>
<!-- dir_1d79b4615f725ce6e1b38311d89b4d4f&#45;&gt;dir_cabf3d63e98569a74ecb960b83c4a15b -->
<g id="edge11" class="edge">
<title>dir_1d79b4615f725ce6e1b38311d89b4d4f&#45;&gt;dir_cabf3d63e98569a74ecb960b83c4a15b</title>
<path fill="none" stroke="black" d="M239.58,-503.69C235.61,-493.51 231.11,-480.26 229,-468 215.39,-389.01 210.89,-362.67 240,-288 267.85,-216.56 330.59,-149.91 366.81,-115.46"/>
<polygon fill="black" stroke="black" points="369.64,-117.6 374.54,-108.21 364.85,-112.49 369.64,-117.6"/>
<g id="a_edge11&#45;headlabel"><a xlink:href="dir_000018_000015.html" target="_top" xlink:title="10">
<text text-anchor="middle" x="368.96" y="-119.63" font-family="Helvetica,sans-Serif" font-size="10.00">10</text>
</a>
</g>
</g>
<!-- dir_4d7f8bf987ecca6ad9438e8e8937cf95&#45;&gt;dir_60d51ee7315d72413f26211ac43a217e -->
<g id="edge18" class="edge">
<title>dir_4d7f8bf987ecca6ad9438e8e8937cf95&#45;&gt;dir_60d51ee7315d72413f26211ac43a217e</title>
<path fill="none" stroke="black" d="M371.01,-431.93C359.5,-422.03 346.75,-408.99 337,-396 322.28,-376.39 308.86,-351.97 301.06,-333.68"/>
<polygon fill="black" stroke="black" points="304.26,-332.24 297.34,-324.21 297.75,-334.8 304.26,-332.24"/>
<g id="a_edge18&#45;headlabel"><a xlink:href="dir_000009_000004.html" target="_top" xlink:title="4">
<text text-anchor="middle" x="308.22" y="-332.04" font-family="Helvetica,sans-Serif" font-size="10.00">4</text>
</a>
</g>
</g>
<!-- dir_4d7f8bf987ecca6ad9438e8e8937cf95&#45;&gt;dir_61b212e579fd471c490a116dc3a4c8cf -->
<g id="edge19" class="edge">
<title>dir_4d7f8bf987ecca6ad9438e8e8937cf95&#45;&gt;dir_61b212e579fd471c490a116dc3a4c8cf</title>
<path fill="none" stroke="black" d="M411.6,-431.7C418.12,-423.39 426.07,-413.28 433.25,-404.14"/>
<polygon fill="black" stroke="black" points="436.13,-406.13 439.56,-396.1 430.63,-401.81 436.13,-406.13"/>
<g id="a_edge19&#45;headlabel"><a xlink:href="dir_000009_000016.html" target="_top" xlink:title="1">
<text text-anchor="middle" x="436.15" y="-408.21" font-family="Helvetica,sans-Serif" font-size="10.00">1</text>
</a>
</g>
</g>
<!-- dir_4d7f8bf987ecca6ad9438e8e8937cf95&#45;&gt;dir_63ce3ba067bdf35a8f7c780ac03d51a3 -->
<g id="edge20" class="edge">
<title>dir_4d7f8bf987ecca6ad9438e8e8937cf95&#45;&gt;dir_63ce3ba067bdf35a8f7c780ac03d51a3</title>
<path fill="none" stroke="black" d="M370.78,-435.19C336.35,-415.85 279.2,-377.04 260,-324 224.21,-225.15 273.01,-99.08 297.93,-45.26"/>
<polygon fill="black" stroke="black" points="301.17,-46.61 302.28,-36.07 294.84,-43.61 301.17,-46.61"/>
<g id="a_edge20&#45;headlabel"><a xlink:href="dir_000009_000017.html" target="_top" xlink:title="3">
<text text-anchor="middle" x="302.19" y="-48.57" font-family="Helvetica,sans-Serif" font-size="10.00">3</text>
</a>
</g>
</g>
<!-- dir_4d7f8bf987ecca6ad9438e8e8937cf95&#45;&gt;dir_9a5c88f87170865d940dc95c76676edb -->
<g id="edge21" class="edge">
<title>dir_4d7f8bf987ecca6ad9438e8e8937cf95&#45;&gt;dir_9a5c88f87170865d940dc95c76676edb</title>
<path fill="none" stroke="black" d="M400.98,-431.77C404.27,-413.73 410.03,-384.63 417,-360 434.53,-298.07 461.36,-227.41 476.2,-189.83"/>
<polygon fill="black" stroke="black" points="479.61,-190.73 480.05,-180.15 473.1,-188.15 479.61,-190.73"/>
<g id="a_edge21&#45;headlabel"><a xlink:href="dir_000009_000005.html" target="_top" xlink:title="2">
<text text-anchor="middle" x="480.92" y="-192.62" font-family="Helvetica,sans-Serif" font-size="10.00">2</text>
</a>
</g>
</g>
<!-- dir_4d7f8bf987ecca6ad9438e8e8937cf95&#45;&gt;dir_cabf3d63e98569a74ecb960b83c4a15b -->
<g id="edge22" class="edge">
<title>dir_4d7f8bf987ecca6ad9438e8e8937cf95&#45;&gt;dir_cabf3d63e98569a74ecb960b83c4a15b</title>
<path fill="none" stroke="black" d="M397.81,-431.73C397.16,-374.19 395.09,-188.66 394.31,-118.35"/>
<polygon fill="black" stroke="black" points="397.8,-118.05 394.19,-108.09 390.8,-118.13 397.8,-118.05"/>
<g id="a_edge22&#45;headlabel"><a xlink:href="dir_000009_000015.html" target="_top" xlink:title="3">
<text text-anchor="middle" x="400.68" y="-119.12" font-family="Helvetica,sans-Serif" font-size="10.00">3</text>
</a>
</g>
</g>
<!-- dir_4d7f8bf987ecca6ad9438e8e8937cf95&#45;&gt;dir_ce91f970b513fb5ff406625265505b14 -->
<g id="edge23" class="edge">
<title>dir_4d7f8bf987ecca6ad9438e8e8937cf95&#45;&gt;dir_ce91f970b513fb5ff406625265505b14</title>
<path fill="none" stroke="black" d="M425.23,-439.98C445.86,-431.75 473.24,-417.54 489,-396 518.15,-356.16 524.37,-296.99 525.32,-262.58"/>
<polygon fill="black" stroke="black" points="528.82,-262.38 525.46,-252.33 521.82,-262.28 528.82,-262.38"/>
<g id="a_edge23&#45;headlabel"><a xlink:href="dir_000009_000003.html" target="_top" xlink:title="4">
<text text-anchor="middle" x="531.61" y="-263.51" font-family="Helvetica,sans-Serif" font-size="10.00">4</text>
</a>
</g>
</g>
<!-- dir_4d7f8bf987ecca6ad9438e8e8937cf95&#45;&gt;dir_d3731d706719beb3d6001df5dcff2644 -->
<g id="edge24" class="edge">
<title>dir_4d7f8bf987ecca6ad9438e8e8937cf95&#45;&gt;dir_d3731d706719beb3d6001df5dcff2644</title>
<path fill="none" stroke="black" d="M425.09,-439.7C460.83,-427.44 523.94,-405.79 564.32,-391.93"/>
<polygon fill="black" stroke="black" points="565.49,-395.23 573.81,-388.67 563.22,-388.61 565.49,-395.23"/>
<g id="a_edge24&#45;headlabel"><a xlink:href="dir_000009_000010.html" target="_top" xlink:title="8">
<text text-anchor="middle" x="563.01" y="-396.58" font-family="Helvetica,sans-Serif" font-size="10.00">8</text>
</a>
</g>
</g>
<!-- dir_4d7f8bf987ecca6ad9438e8e8937cf95&#45;&gt;dir_ff5a4dc0324506fcdfb8f8f681f9dae7 -->
<g id="edge25" class="edge">
<title>dir_4d7f8bf987ecca6ad9438e8e8937cf95&#45;&gt;dir_ff5a4dc0324506fcdfb8f8f681f9dae7</title>
<path fill="none" stroke="black" d="M425.29,-445.05C468.77,-438.32 556.39,-422.99 637.85,-396"/>
<polygon fill="black" stroke="black" points="639.4,-399.17 647.75,-392.65 637.15,-392.54 639.4,-399.17"/>
<g id="a_edge25&#45;headlabel"><a xlink:href="dir_000009_000002.html" target="_top" xlink:title="1">
<text text-anchor="middle" x="636.9" y="-400.51" font-family="Helvetica,sans-Serif" font-size="10.00">1</text>
</a>
</g>
</g>
<!-- dir_60d51ee7315d72413f26211ac43a217e&#45;&gt;dir_4d7f8bf987ecca6ad9438e8e8937cf95 -->
<g id="edge28" class="edge">
<title>dir_60d51ee7315d72413f26211ac43a217e&#45;&gt;dir_4d7f8bf987ecca6ad9438e8e8937cf95</title>
<path fill="none" stroke="black" d="M310.6,-324.21C321.94,-342.77 337.55,-372.75 355,-396 362.46,-405.95 371.69,-415.92 379.8,-424.49"/>
<polygon fill="black" stroke="black" points="377.44,-427.09 386.86,-431.93 382.51,-422.27 377.44,-427.09"/>
<g id="a_edge28&#45;headlabel"><a xlink:href="dir_000004_000009.html" target="_top" xlink:title="1">
<text text-anchor="middle" x="372.9" y="-423.93" font-family="Helvetica,sans-Serif" font-size="10.00">1</text>
</a>
</g>
</g>
<!-- dir_60d51ee7315d72413f26211ac43a217e&#45;&gt;dir_63ce3ba067bdf35a8f7c780ac03d51a3 -->
<g id="edge29" class="edge">
<title>dir_60d51ee7315d72413f26211ac43a217e&#45;&gt;dir_63ce3ba067bdf35a8f7c780ac03d51a3</title>
<path fill="none" stroke="black" d="M293.48,-287.97C291.8,-240.19 298.66,-104.62 305.4,-46.27"/>
<polygon fill="black" stroke="black" points="308.88,-46.67 306.66,-36.31 301.93,-45.79 308.88,-46.67"/>
<g id="a_edge29&#45;headlabel"><a xlink:href="dir_000004_000017.html" target="_top" xlink:title="1">
<text text-anchor="middle" x="311.25" y="-48.09" font-family="Helvetica,sans-Serif" font-size="10.00">1</text>
</a>
</g>
</g>
<!-- dir_60d51ee7315d72413f26211ac43a217e&#45;&gt;dir_ce91f970b513fb5ff406625265505b14 -->
<g id="edge30" class="edge">
<title>dir_60d51ee7315d72413f26211ac43a217e&#45;&gt;dir_ce91f970b513fb5ff406625265505b14</title>
<path fill="none" stroke="black" d="M323.17,-296.7C364.23,-284.14 442.18,-260.32 488.26,-246.23"/>
<polygon fill="black" stroke="black" points="489.33,-249.56 497.87,-243.29 487.28,-242.87 489.33,-249.56"/>
<g id="a_edge30&#45;headlabel"><a xlink:href="dir_000004_000003.html" target="_top" xlink:title="2">
<text text-anchor="middle" x="486.72" y="-250.83" font-family="Helvetica,sans-Serif" font-size="10.00">2</text>
</a>
</g>
</g>
<!-- dir_61b212e579fd471c490a116dc3a4c8cf&#45;&gt;dir_9a5c88f87170865d940dc95c76676edb -->
<g id="edge14" class="edge">
<title>dir_61b212e579fd471c490a116dc3a4c8cf&#45;&gt;dir_9a5c88f87170865d940dc95c76676edb</title>
<path fill="none" stroke="black" d="M455.72,-359.85C461.61,-322.83 475.53,-235.18 482.65,-190.39"/>
<polygon fill="black" stroke="black" points="486.15,-190.66 484.26,-180.23 479.24,-189.56 486.15,-190.66"/>
<g id="a_edge14&#45;headlabel"><a xlink:href="dir_000016_000005.html" target="_top" xlink:title="1">
<text text-anchor="middle" x="488.39" y="-192.15" font-family="Helvetica,sans-Serif" font-size="10.00">1</text>
</a>
</g>
</g>
<!-- dir_61b212e579fd471c490a116dc3a4c8cf&#45;&gt;dir_cabf3d63e98569a74ecb960b83c4a15b -->
<g id="edge15" class="edge">
<title>dir_61b212e579fd471c490a116dc3a4c8cf&#45;&gt;dir_cabf3d63e98569a74ecb960b83c4a15b</title>
<path fill="none" stroke="black" d="M449.49,-359.97C439.63,-312.19 411.66,-176.62 399.62,-118.27"/>
<polygon fill="black" stroke="black" points="403.02,-117.39 397.57,-108.31 396.16,-118.81 403.02,-117.39"/>
<g id="a_edge15&#45;headlabel"><a xlink:href="dir_000016_000015.html" target="_top" xlink:title="1">
<text text-anchor="middle" x="406.53" y="-117.84" font-family="Helvetica,sans-Serif" font-size="10.00">1</text>
</a>
</g>
</g>
<!-- dir_63ce3ba067bdf35a8f7c780ac03d51a3&#45;&gt;dir_60d51ee7315d72413f26211ac43a217e -->
<g id="edge16" class="edge">
<title>dir_63ce3ba067bdf35a8f7c780ac03d51a3&#45;&gt;dir_60d51ee7315d72413f26211ac43a217e</title>
<path fill="none" stroke="black" d="M313.53,-36.31C315.17,-84.31 308.33,-219.44 301.6,-277.7"/>
<polygon fill="black" stroke="black" points="298.09,-277.61 300.31,-287.97 305.03,-278.48 298.09,-277.61"/>
<g id="a_edge16&#45;headlabel"><a xlink:href="dir_000017_000004.html" target="_top" xlink:title="3">
<text text-anchor="middle" x="295.72" y="-271.18" font-family="Helvetica,sans-Serif" font-size="10.00">3</text>
</a>
</g>
</g>
<!-- dir_63ce3ba067bdf35a8f7c780ac03d51a3&#45;&gt;dir_9a5c88f87170865d940dc95c76676edb -->
<g id="edge17" class="edge">
<title>dir_63ce3ba067bdf35a8f7c780ac03d51a3&#45;&gt;dir_9a5c88f87170865d940dc95c76676edb</title>
<path fill="none" stroke="black" d="M338.26,-24.31C366.43,-31.61 409.67,-46.79 439,-72 458.91,-89.11 474.36,-114.89 482.56,-134.31"/>
<polygon fill="black" stroke="black" points="479.34,-135.7 486.17,-143.8 485.89,-133.21 479.34,-135.7"/>
<g id="a_edge17&#45;headlabel"><a xlink:href="dir_000017_000005.html" target="_top" xlink:title="2">
<text text-anchor="middle" x="475.41" y="-130.85" font-family="Helvetica,sans-Serif" font-size="10.00">2</text>
</a>
</g>
</g>
<!-- dir_9a5c88f87170865d940dc95c76676edb&#45;&gt;dir_63ce3ba067bdf35a8f7c780ac03d51a3 -->
<g id="edge26" class="edge">
<title>dir_9a5c88f87170865d940dc95c76676edb&#45;&gt;dir_63ce3ba067bdf35a8f7c780ac03d51a3</title>
<path fill="none" stroke="black" d="M473.25,-143.8C461.62,-124.14 444.38,-92.1 421,-72 399.47,-53.49 370.43,-40.39 347.49,-31.84"/>
<polygon fill="black" stroke="black" points="348.67,-28.54 338.07,-28.45 346.3,-35.13 348.67,-28.54"/>
<g id="a_edge26&#45;headlabel"><a xlink:href="dir_000005_000017.html" target="_top" xlink:title="1">
<text text-anchor="middle" x="353.01" y="-24.59" font-family="Helvetica,sans-Serif" font-size="10.00">1</text>
</a>
</g>
</g>
<!-- dir_9a5c88f87170865d940dc95c76676edb&#45;&gt;dir_cabf3d63e98569a74ecb960b83c4a15b -->
<g id="edge27" class="edge">
<title>dir_9a5c88f87170865d940dc95c76676edb&#45;&gt;dir_cabf3d63e98569a74ecb960b83c4a15b</title>
<path fill="none" stroke="black" d="M459.88,-144.94C446.89,-135.93 431.53,-124.53 418.85,-114.54"/>
<polygon fill="black" stroke="black" points="420.95,-111.73 410.96,-108.21 416.57,-117.19 420.95,-111.73"/>
<g id="a_edge27&#45;headlabel"><a xlink:href="dir_000005_000015.html" target="_top" xlink:title="1">
<text text-anchor="middle" x="425.53" y="-109.26" font-family="Helvetica,sans-Serif" font-size="10.00">1</text>
</a>
</g>
</g>
<!-- dir_cabf3d63e98569a74ecb960b83c4a15b&#45;&gt;dir_63ce3ba067bdf35a8f7c780ac03d51a3 -->
<g id="edge12" class="edge">
<title>dir_cabf3d63e98569a74ecb960b83c4a15b&#45;&gt;dir_63ce3ba067bdf35a8f7c780ac03d51a3</title>
<path fill="none" stroke="black" d="M373.48,-71.7C363.13,-62.97 350.41,-52.24 339.16,-42.75"/>
<polygon fill="black" stroke="black" points="341.18,-39.88 331.28,-36.1 336.67,-45.23 341.18,-39.88"/>
<g id="a_edge12&#45;headlabel"><a xlink:href="dir_000015_000017.html" target="_top" xlink:title="2">
<text text-anchor="middle" x="345.76" y="-37.52" font-family="Helvetica,sans-Serif" font-size="10.00">2</text>
</a>
</g>
</g>
<!-- dir_cabf3d63e98569a74ecb960b83c4a15b&#45;&gt;dir_9a5c88f87170865d940dc95c76676edb -->
<g id="edge13" class="edge">
<title>dir_cabf3d63e98569a74ecb960b83c4a15b&#45;&gt;dir_9a5c88f87170865d940dc95c76676edb</title>
<path fill="none" stroke="black" d="M421.24,-107.14C434.17,-116.12 449.44,-127.45 462.06,-137.4"/>
<polygon fill="black" stroke="black" points="459.93,-140.18 469.93,-143.7 464.31,-134.71 459.93,-140.18"/>
<g id="a_edge13&#45;headlabel"><a xlink:href="dir_000015_000005.html" target="_top" xlink:title="4">
<text text-anchor="middle" x="455.35" y="-137.64" font-family="Helvetica,sans-Serif" font-size="10.00">4</text>
</a>
</g>
</g>
<!-- dir_ce91f970b513fb5ff406625265505b14&#45;&gt;dir_77968f70279e8f688919023f4af8a16f -->
<g id="edge42" class="edge">
<title>dir_ce91f970b513fb5ff406625265505b14&#45;&gt;dir_77968f70279e8f688919023f4af8a16f</title>
<path fill="none" stroke="black" d="M552.16,-226.79C606.61,-214.33 729.29,-186.27 792.2,-171.88"/>
<polygon fill="black" stroke="black" points="793.16,-175.25 802.13,-169.6 791.6,-168.42 793.16,-175.25"/>
<g id="a_edge42&#45;headlabel"><a xlink:href="dir_000003_000014.html" target="_top" xlink:title="1">
<text text-anchor="middle" x="790.29" y="-176.32" font-family="Helvetica,sans-Serif" font-size="10.00">1</text>
</a>
</g>
</g>
<!-- dir_ce91f970b513fb5ff406625265505b14&#45;&gt;dir_9a5c88f87170865d940dc95c76676edb -->
<g id="edge43" class="edge">
<title>dir_ce91f970b513fb5ff406625265505b14&#45;&gt;dir_9a5c88f87170865d940dc95c76676edb</title>
<path fill="none" stroke="black" d="M515.61,-215.7C511.24,-207.64 505.94,-197.89 501.1,-188.98"/>
<polygon fill="black" stroke="black" points="504.13,-187.22 496.29,-180.1 497.98,-190.56 504.13,-187.22"/>
<g id="a_edge43&#45;headlabel"><a xlink:href="dir_000003_000005.html" target="_top" xlink:title="1">
<text text-anchor="middle" x="508.34" y="-186.53" font-family="Helvetica,sans-Serif" font-size="10.00">1</text>
</a>
</g>
</g>
<!-- dir_ce91f970b513fb5ff406625265505b14&#45;&gt;dir_cabf3d63e98569a74ecb960b83c4a15b -->
<g id="edge44" class="edge">
<title>dir_ce91f970b513fb5ff406625265505b14&#45;&gt;dir_cabf3d63e98569a74ecb960b83c4a15b</title>
<path fill="none" stroke="black" d="M497.74,-217.05C482.85,-207.5 464.71,-194.44 451,-180 433.06,-161.1 417.48,-135.79 407.17,-116.98"/>
<polygon fill="black" stroke="black" points="410.21,-115.24 402.41,-108.08 404.03,-118.54 410.21,-115.24"/>
<g id="a_edge44&#45;headlabel"><a xlink:href="dir_000003_000015.html" target="_top" xlink:title="2">
<text text-anchor="middle" x="414.41" y="-114.57" font-family="Helvetica,sans-Serif" font-size="10.00">2</text>
</a>
</g>
</g>
<!-- dir_d3731d706719beb3d6001df5dcff2644&#45;&gt;dir_60d51ee7315d72413f26211ac43a217e -->
<g id="edge1" class="edge">
<title>dir_d3731d706719beb3d6001df5dcff2644&#45;&gt;dir_60d51ee7315d72413f26211ac43a217e</title>
<path fill="none" stroke="black" d="M573.76,-370.54C518.26,-357.84 394.99,-329.64 333.04,-315.47"/>
<polygon fill="black" stroke="black" points="333.82,-312.06 323.29,-313.24 332.26,-318.88 333.82,-312.06"/>
<g id="a_edge1&#45;headlabel"><a xlink:href="dir_000010_000004.html" target="_top" xlink:title="29">
<text text-anchor="middle" x="337.96" y="-307.59" font-family="Helvetica,sans-Serif" font-size="10.00">29</text>
</a>
</g>
</g>
<!-- dir_d3731d706719beb3d6001df5dcff2644&#45;&gt;dir_63ce3ba067bdf35a8f7c780ac03d51a3 -->
<g id="edge2" class="edge">
<title>dir_d3731d706719beb3d6001df5dcff2644&#45;&gt;dir_63ce3ba067bdf35a8f7c780ac03d51a3</title>
<path fill="none" stroke="black" d="M630.02,-361.11C678.76,-332.51 774,-271.88 774,-235 774,-235 774,-235 774,-161 774,-72.12 458.18,-33.19 348.22,-22.33"/>
<polygon fill="black" stroke="black" points="348.52,-18.85 338.23,-21.37 347.85,-25.81 348.52,-18.85"/>
<g id="a_edge2&#45;headlabel"><a xlink:href="dir_000010_000017.html" target="_top" xlink:title="49">
<text text-anchor="middle" x="352.38" y="-13.86" font-family="Helvetica,sans-Serif" font-size="10.00">49</text>
</a>
</g>
</g>
<!-- dir_d3731d706719beb3d6001df5dcff2644&#45;&gt;dir_77968f70279e8f688919023f4af8a16f -->
<g id="edge3" class="edge">
<title>dir_d3731d706719beb3d6001df5dcff2644&#45;&gt;dir_77968f70279e8f688919023f4af8a16f</title>
<path fill="none" stroke="black" d="M630.05,-363.43C633.04,-362.19 636.06,-361.02 639,-360 703.37,-337.67 739.25,-371.59 788,-324 824.3,-288.56 831.05,-226.13 831.69,-190.31"/>
<polygon fill="black" stroke="black" points="835.19,-190.12 831.72,-180.11 828.19,-190.1 835.19,-190.12"/>
<g id="a_edge3&#45;headlabel"><a xlink:href="dir_000010_000014.html" target="_top" xlink:title="2">
<text text-anchor="middle" x="838.02" y="-191.22" font-family="Helvetica,sans-Serif" font-size="10.00">2</text>
</a>
</g>
</g>
<!-- dir_d3731d706719beb3d6001df5dcff2644&#45;&gt;dir_9a5c88f87170865d940dc95c76676edb -->
<g id="edge4" class="edge">
<title>dir_d3731d706719beb3d6001df5dcff2644&#45;&gt;dir_9a5c88f87170865d940dc95c76676edb</title>
<path fill="none" stroke="black" d="M601.63,-359.79C600.14,-328.34 593.14,-260.74 561,-216 551.09,-202.21 536.46,-190.66 522.82,-181.89"/>
<polygon fill="black" stroke="black" points="524.42,-178.77 514.06,-176.54 520.77,-184.74 524.42,-178.77"/>
<g id="a_edge4&#45;headlabel"><a xlink:href="dir_000010_000005.html" target="_top" xlink:title="17">
<text text-anchor="middle" x="528.97" y="-175.72" font-family="Helvetica,sans-Serif" font-size="10.00">17</text>
</a>
</g>
</g>
<!-- dir_d3731d706719beb3d6001df5dcff2644&#45;&gt;dir_cabf3d63e98569a74ecb960b83c4a15b -->
<g id="edge5" class="edge">
<title>dir_d3731d706719beb3d6001df5dcff2644&#45;&gt;dir_cabf3d63e98569a74ecb960b83c4a15b</title>
<path fill="none" stroke="black" d="M605.25,-359.89C607.05,-349.54 609.09,-336.06 610,-324 613.69,-274.87 609.59,-258.69 585,-216 563.92,-179.41 557.25,-168.7 523,-144 494.97,-123.78 458.08,-109.63 430.94,-101.07"/>
<polygon fill="black" stroke="black" points="431.63,-97.62 421.05,-98.06 429.6,-104.32 431.63,-97.62"/>
<g id="a_edge5&#45;headlabel"><a xlink:href="dir_000010_000015.html" target="_top" xlink:title="16">
<text text-anchor="middle" x="435.9" y="-93.45" font-family="Helvetica,sans-Serif" font-size="10.00">16</text>
</a>
</g>
</g>
<!-- dir_d3731d706719beb3d6001df5dcff2644&#45;&gt;dir_ce91f970b513fb5ff406625265505b14 -->
<g id="edge6" class="edge">
<title>dir_d3731d706719beb3d6001df5dcff2644&#45;&gt;dir_ce91f970b513fb5ff406625265505b14</title>
<path fill="none" stroke="black" d="M594.8,-359.91C586.95,-341.72 573.65,-312.27 560,-288 554.87,-278.87 548.72,-269.22 543.03,-260.69"/>
<polygon fill="black" stroke="black" points="545.82,-258.58 537.31,-252.27 540.03,-262.51 545.82,-258.58"/>
<g id="a_edge6&#45;headlabel"><a xlink:href="dir_000010_000003.html" target="_top" xlink:title="6">
<text text-anchor="middle" x="550.19" y="-257.46" font-family="Helvetica,sans-Serif" font-size="10.00">6</text>
</a>
</g>
</g>
<!-- dir_ff5a4dc0324506fcdfb8f8f681f9dae7&#45;&gt;dir_63ce3ba067bdf35a8f7c780ac03d51a3 -->
<g id="edge45" class="edge">
<title>dir_ff5a4dc0324506fcdfb8f8f681f9dae7&#45;&gt;dir_63ce3ba067bdf35a8f7c780ac03d51a3</title>
<path fill="none" stroke="black" d="M702.15,-373.25C732.86,-367.66 782.54,-354.33 813,-324 872.37,-264.88 915.12,-213.94 869,-144 810.84,-55.79 463.63,-27.85 348.25,-20.94"/>
<polygon fill="black" stroke="black" points="348.32,-17.44 338.14,-20.35 347.92,-24.43 348.32,-17.44"/>
<g id="a_edge45&#45;headlabel"><a xlink:href="dir_000002_000017.html" target="_top" xlink:title="4">
<text text-anchor="middle" x="352.08" y="-12.31" font-family="Helvetica,sans-Serif" font-size="10.00">4</text>
</a>
</g>
</g>
<!-- dir_ff5a4dc0324506fcdfb8f8f681f9dae7&#45;&gt;dir_9a5c88f87170865d940dc95c76676edb -->
<g id="edge46" class="edge">
<title>dir_ff5a4dc0324506fcdfb8f8f681f9dae7&#45;&gt;dir_9a5c88f87170865d940dc95c76676edb</title>
<path fill="none" stroke="black" d="M669.15,-359.94C657.51,-328.15 628.78,-259.17 585,-216 567.6,-198.84 543.51,-185.71 523.57,-176.81"/>
<polygon fill="black" stroke="black" points="524.73,-173.5 514.16,-172.78 521.97,-179.94 524.73,-173.5"/>
<g id="a_edge46&#45;headlabel"><a xlink:href="dir_000002_000005.html" target="_top" xlink:title="1">
<text text-anchor="middle" x="529.15" y="-169.81" font-family="Helvetica,sans-Serif" font-size="10.00">1</text>
</a>
</g>
</g>
</g>
</svg>
        <g id="navigator" transform="translate(0 0)" fill="#404254">
                <rect fill="#f2f5e9" fill-opacity="0.5" stroke="#606060" stroke-width=".5" x="0" y="0" width="60" height="60"/>
                <use id="zoomplus" xlink:href="#zoomPlus" x="17" y="9" onmousedown="handleZoom(evt,'in')"/>
                <use id="zoomminus" xlink:href="#zoomMin" x="42" y="9" onmousedown="handleZoom(evt,'out')"/>
                <use id="reset" xlink:href="#resetDef" x="30" y="36" onmousedown="handleReset()"/>
                <g id="arrowUp" xlink:href="#dirArrow" transform="translate(30 24)" onmousedown="handlePan(0,-1)">
                  <use xlink:href="#rim" fill="#404040">
                        <set attributeName="fill" to="#808080" begin="arrowUp.mouseover" end="arrowUp.mouseout"/>
                  </use>
                  <path fill="none" stroke="white" stroke-width="1.5" d="M0,-3.0v7 M-2.5,-0.5L0,-3.0L2.5,-0.5"/>
                </g>
                <g id="arrowRight" xlink:href="#dirArrow" transform="rotate(90) translate(36 -43)" onmousedown="handlePan(1,0)">
                  <use xlink:href="#rim" fill="#404040">
                        <set attributeName="fill" to="#808080" begin="arrowRight.mouseover" end="arrowRight.mouseout"/>
                  </use>
                  <path fill="none" stroke="white" stroke-width="1.5" d="M0,-3.0v7 M-2.5,-0.5L0,-3.0L2.5,-0.5"/>
                </g>
                <g id="arrowDown" xlink:href="#dirArrow" transform="rotate(180) translate(-30 -48)" onmousedown="handlePan(0,1)">
                  <use xlink:href="#rim" fill="#404040">
                        <set attributeName="fill" to="#808080" begin="arrowDown.mouseover" end="arrowDown.mouseout"/>
                  </use>
                  <path fill="none" stroke="white" stroke-width="1.5" d="M0,-3.0v7 M-2.5,-0.5L0,-3.0L2.5,-0.5"/>
                </g>
                <g id="arrowLeft" xlink:href="#dirArrow" transform="rotate(270) translate(-36 17)" onmousedown="handlePan(-1,0)">
                  <use xlink:href="#rim" fill="#404040">
                        <set attributeName="fill" to="#808080" begin="arrowLeft.mouseover" end="arrowLeft.mouseout"/>
                  </use>
                  <path fill="none" stroke="white" stroke-width="1.5" d="M0,-3.0v7 M-2.5,-0.5L0,-3.0L2.5,-0.5"/>
                </g>
        </g>
        <svg viewBox="0 0 15 15" width="100%" height="30px" preserveAspectRatio="xMaxYMin meet">
         <g id="arrow_out" transform="scale(0.3 0.3)">
          <a xlink:href="dir_64b4510cba155c652ac883383ddf0b92_dep_org.svg" target="_base">
           <rect id="button" ry="5" rx="5" y="6" x="6" height="38" width="38"
                fill="#f2f5e9" fill-opacity="0.5" stroke="#606060" stroke-width="1.0"/>
           <path id="arrow"
             d="M 11.500037,31.436501 C 11.940474,20.09759 22.043105,11.32322 32.158766,21.979434 L 37.068811,17.246167 C 37.068811,17.246167 37.088388,32 37.088388,32 L 22.160133,31.978069 C 22.160133,31.978069 26.997745,27.140456 26.997745,27.140456 C 18.528582,18.264221 13.291696,25.230495 11.500037,31.436501 z"
             style="fill:#404040;"/>
          </a>
         </g>
        </svg>
</svg>
