<?xml version="1.0" encoding="UTF-8" standalone="no"?>
<!DOCTYPE svg PUBLIC "-//W3C//DTD SVG 1.1//EN"
 "http://www.w3.org/Graphics/SVG/1.1/DTD/svg11.dtd">
<!-- Generated by graphviz version 2.43.0 (0)
 -->
<!-- Title: VortexEngine/src/Menus/MenuList/GlobalBrightness.cpp Pages: 1 -->
<!--zoomable 487 -->
<svg id="main" version="1.1" xmlns="http://www.w3.org/2000/svg" xmlns:xlink="http://www.w3.org/1999/xlink" xml:space="preserve" onload="init(evt)">
<style type="text/css"><![CDATA[
.edge:hover path { stroke: red; }
.edge:hover polygon { stroke: red; fill: red; }
]]></style>
<script type="text/javascript"><![CDATA[
var edges = document.getElementsByTagName('g');
if (edges && edges.length) {
  for (var i=0;i<edges.length;i++) {
    if (edges[i].id.substr(0,4)=='edge') {
      edges[i].setAttribute('class','edge');
    }
  }
}
]]></script>
        <defs>
                <circle id="rim" cx="0" cy="0" r="7"/>
                <circle id="rim2" cx="0" cy="0" r="3.5"/>
                <g id="zoomPlus">
                        <use xlink:href="#rim" target="_top" fill="#404040">
                                <set attributeName="fill" to="#808080" begin="zoomplus.mouseover" end="zoomplus.mouseout"/>
                        </use>
                        <path d="M-4,0h8M0,-4v8" fill="none" stroke="white" stroke-width="1.5" pointer-events="none"/>
                </g>
                <g id="zoomMin">
                        <use xlink:href="#rim" target="_top" fill="#404040">
                                <set attributeName="fill" to="#808080" begin="zoomminus.mouseover" end="zoomminus.mouseout"/>
                        </use>
                        <path d="M-4,0h8" fill="none" stroke="white" stroke-width="1.5" pointer-events="none"/>
                </g>
                <g id="dirArrow">
                        <path fill="none" stroke="white" stroke-width="1.5" d="M0,-3.0v7 M-2.5,-0.5L0,-3.0L2.5,-0.5"/>
                </g>
               <g id="resetDef">
                       <use xlink:href="#rim2" target="_top" fill="#404040">
                               <set attributeName="fill" to="#808080" begin="reset.mouseover" end="reset.mouseout"/>
                       </use>
               </g>
        </defs>

<script type="text/javascript">
var viewWidth = 1734;
var viewHeight = 487;
var sectionId = 'dynsection-0';
</script>
<script xlink:href="svgpan.js" target="_top"/>
<svg id="graph" class="graph">
<g id="viewport">
<title>VortexEngine/src/Menus/MenuList/GlobalBrightness.cpp</title>
<!-- Node1 -->
<g id="node1" class="node">
<title>Node1</title>
<g id="a_node1"><a xlink:title=" ">
<polygon fill="#bfbfbf" stroke="black" points="1129,-448.5 1129,-478.5 1299,-478.5 1299,-448.5 1129,-448.5"/>
<text text-anchor="start" x="1137" y="-466.5" font-family="Helvetica,sans-Serif" font-size="10.00">VortexEngine/src/Menus</text>
<text text-anchor="middle" x="1214" y="-455.5" font-family="Helvetica,sans-Serif" font-size="10.00">/MenuList/GlobalBrightness.cpp</text>
</a>
</g>
</g>
<!-- Node2 -->
<g id="node2" class="node">
<title>Node2</title>
<g id="a_node2"><a xlink:href="GlobalBrightness_8h.html" target="_top" target="_top" xlink:title=" ">
<polygon fill="none" stroke="black" points="1375.5,-392.5 1375.5,-411.5 1484.5,-411.5 1484.5,-392.5 1375.5,-392.5"/>
<text text-anchor="middle" x="1430" y="-399.5" font-family="Helvetica,sans-Serif" font-size="10.00">GlobalBrightness.h</text>
</a>
</g>
</g>
<!-- Node1&#45;&gt;Node2 -->
<g id="edge1" class="edge">
<title>Node1&#45;&gt;Node2</title>
<path fill="none" stroke="midnightblue" d="M1264.92,-448.47C1302.83,-438.03 1353.92,-423.96 1389.17,-414.25"/>
<polygon fill="midnightblue" stroke="midnightblue" points="1390.41,-417.54 1399.12,-411.51 1388.55,-410.79 1390.41,-417.54"/>
</g>
<!-- Node10 -->
<g id="node10" class="node">
<title>Node10</title>
<g id="a_node10"><a xlink:href="Leds_8h.html" target="_top" target="_top" xlink:title=" ">
<polygon fill="none" stroke="black" points="1396.5,-168.5 1396.5,-187.5 1479.5,-187.5 1479.5,-168.5 1396.5,-168.5"/>
<text text-anchor="middle" x="1438" y="-175.5" font-family="Helvetica,sans-Serif" font-size="10.00">../Leds/Leds.h</text>
</a>
</g>
</g>
<!-- Node1&#45;&gt;Node10 -->
<g id="edge81" class="edge">
<title>Node1&#45;&gt;Node10</title>
<path fill="none" stroke="midnightblue" d="M1299.18,-456.98C1356.15,-450.95 1431.8,-438.34 1494,-412 1533.3,-395.36 1550.2,-392.69 1572,-356 1602.84,-304.11 1586.6,-262.38 1540,-224 1521.9,-209.09 1498.08,-198.21 1478.01,-190.89"/>
<polygon fill="midnightblue" stroke="midnightblue" points="1479.1,-187.56 1468.5,-187.58 1476.8,-194.17 1479.1,-187.56"/>
</g>
<!-- Node14 -->
<g id="node14" class="node">
<title>Node14</title>
<g id="a_node14"><a xlink:href="VortexEngine_8h.html" target="_top" target="_top" xlink:title=" ">
<polygon fill="none" stroke="black" points="797,-392.5 797,-411.5 905,-411.5 905,-392.5 797,-392.5"/>
<text text-anchor="middle" x="851" y="-399.5" font-family="Helvetica,sans-Serif" font-size="10.00">../../VortexEngine.h</text>
</a>
</g>
</g>
<!-- Node1&#45;&gt;Node14 -->
<g id="edge23" class="edge">
<title>Node1&#45;&gt;Node14</title>
<path fill="none" stroke="midnightblue" d="M1128.89,-448.55C1062.73,-437.7 972.49,-422.91 913.03,-413.17"/>
<polygon fill="midnightblue" stroke="midnightblue" points="913.46,-409.69 903.03,-411.53 912.33,-416.6 913.46,-409.69"/>
</g>
<!-- Node21 -->
<g id="node21" class="node">
<title>Node21</title>
<g id="a_node21"><a xlink:href="Log_8h.html" target="_top" target="_top" xlink:title=" ">
<polygon fill="none" stroke="black" points="1002,-168.5 1002,-187.5 1074,-187.5 1074,-168.5 1002,-168.5"/>
<text text-anchor="middle" x="1038" y="-175.5" font-family="Helvetica,sans-Serif" font-size="10.00">../Log/Log.h</text>
</a>
</g>
</g>
<!-- Node1&#45;&gt;Node21 -->
<g id="edge82" class="edge">
<title>Node1&#45;&gt;Node21</title>
<path fill="none" stroke="midnightblue" d="M1203.55,-448.29C1188.85,-428.11 1161.46,-389.85 1140,-356 1103.84,-298.97 1065.05,-228.86 1047.54,-196.68"/>
<polygon fill="midnightblue" stroke="midnightblue" points="1050.48,-194.75 1042.63,-187.63 1044.32,-198.09 1050.48,-194.75"/>
</g>
<!-- Node31 -->
<g id="node31" class="node">
<title>Node31</title>
<g id="a_node31"><a xlink:href="Modes_8h.html" target="_top" target="_top" xlink:title=" ">
<polygon fill="none" stroke="black" points="927.5,-280.5 927.5,-299.5 1020.5,-299.5 1020.5,-280.5 927.5,-280.5"/>
<text text-anchor="middle" x="974" y="-287.5" font-family="Helvetica,sans-Serif" font-size="10.00">Modes/Modes.h</text>
</a>
</g>
</g>
<!-- Node1&#45;&gt;Node31 -->
<g id="edge79" class="edge">
<title>Node1&#45;&gt;Node31</title>
<path fill="none" stroke="midnightblue" d="M1170.79,-448.48C1147.55,-439.87 1119.01,-427.5 1096,-412 1050.85,-381.59 1008.08,-333.05 987.23,-307.68"/>
<polygon fill="midnightblue" stroke="midnightblue" points="989.82,-305.31 980.81,-299.74 984.38,-309.72 989.82,-305.31"/>
</g>
<!-- Node32 -->
<g id="node32" class="node">
<title>Node32</title>
<g id="a_node32"><a xlink:href="Menus_8h.html" target="_top" target="_top" xlink:title=" ">
<polygon fill="none" stroke="black" points="1265.5,-336.5 1265.5,-355.5 1358.5,-355.5 1358.5,-336.5 1265.5,-336.5"/>
<text text-anchor="middle" x="1312" y="-343.5" font-family="Helvetica,sans-Serif" font-size="10.00">Menus/Menus.h</text>
</a>
</g>
</g>
<!-- Node1&#45;&gt;Node32 -->
<g id="edge80" class="edge">
<title>Node1&#45;&gt;Node32</title>
<path fill="none" stroke="midnightblue" d="M1226.02,-448.34C1244.24,-426.86 1278.76,-386.17 1298.06,-363.43"/>
<polygon fill="midnightblue" stroke="midnightblue" points="1300.84,-365.56 1304.64,-355.67 1295.51,-361.03 1300.84,-365.56"/>
</g>
<!-- Node3 -->
<g id="node3" class="node">
<title>Node3</title>
<g id="a_node3"><a xlink:href="Menu_8h.html" target="_top" target="_top" xlink:title=" ">
<polygon fill="none" stroke="black" points="1479,-336.5 1479,-355.5 1541,-355.5 1541,-336.5 1479,-336.5"/>
<text text-anchor="middle" x="1510" y="-343.5" font-family="Helvetica,sans-Serif" font-size="10.00">../Menu.h</text>
</a>
</g>
</g>
<!-- Node2&#45;&gt;Node3 -->
<g id="edge2" class="edge">
<title>Node2&#45;&gt;Node3</title>
<path fill="none" stroke="midnightblue" d="M1442.85,-392.32C1455.22,-383.98 1474.13,-371.21 1488.74,-361.35"/>
<polygon fill="midnightblue" stroke="midnightblue" points="1490.85,-364.15 1497.18,-355.65 1486.93,-358.35 1490.85,-364.15"/>
</g>
<!-- Node4 -->
<g id="node4" class="node">
<title>Node4</title>
<g id="a_node4"><a xlink:title=" ">
<polygon fill="none" stroke="#bfbfbf" points="776.5,-56.5 776.5,-75.5 841.5,-75.5 841.5,-56.5 776.5,-56.5"/>
<text text-anchor="middle" x="809" y="-63.5" font-family="Helvetica,sans-Serif" font-size="10.00">inttypes.h</text>
</a>
</g>
</g>
<!-- Node3&#45;&gt;Node4 -->
<g id="edge3" class="edge">
<title>Node3&#45;&gt;Node4</title>
<path fill="none" stroke="midnightblue" d="M1512.31,-336.45C1515.32,-323.47 1519.2,-298.36 1510,-280 1494.71,-249.5 1264.36,-123.31 1228,-112 1095.39,-70.76 929.07,-65.94 851.94,-66.2"/>
<polygon fill="midnightblue" stroke="midnightblue" points="851.64,-62.7 841.66,-66.27 851.68,-69.7 851.64,-62.7"/>
</g>
<!-- Node5 -->
<g id="node5" class="node">
<title>Node5</title>
<g id="a_node5"><a xlink:href="ColorTypes_8h.html" target="_top" target="_top" xlink:title=" ">
<polygon fill="none" stroke="black" points="1538,-112.5 1538,-131.5 1660,-131.5 1660,-112.5 1538,-112.5"/>
<text text-anchor="middle" x="1599" y="-119.5" font-family="Helvetica,sans-Serif" font-size="10.00">../Colors/ColorTypes.h</text>
</a>
</g>
</g>
<!-- Node3&#45;&gt;Node5 -->
<g id="edge4" class="edge">
<title>Node3&#45;&gt;Node5</title>
<path fill="none" stroke="midnightblue" d="M1524.22,-336.5C1536.19,-328.57 1552.8,-315.64 1562,-300 1592.19,-248.69 1597.95,-176.27 1598.92,-142.17"/>
<polygon fill="midnightblue" stroke="midnightblue" points="1602.42,-141.86 1599.09,-131.81 1595.42,-141.75 1602.42,-141.86"/>
</g>
<!-- Node8 -->
<g id="node8" class="node">
<title>Node8</title>
<g id="a_node8"><a xlink:href="LedTypes_8h.html" target="_top" target="_top" xlink:title=" ">
<polygon fill="none" stroke="black" points="1320.5,-224.5 1320.5,-243.5 1425.5,-243.5 1425.5,-224.5 1320.5,-224.5"/>
<text text-anchor="middle" x="1373" y="-231.5" font-family="Helvetica,sans-Serif" font-size="10.00">../Leds/LedTypes.h</text>
</a>
</g>
</g>
<!-- Node3&#45;&gt;Node8 -->
<g id="edge9" class="edge">
<title>Node3&#45;&gt;Node8</title>
<path fill="none" stroke="midnightblue" d="M1509.82,-336.24C1509.07,-322.52 1505.67,-295.9 1491,-280 1475.85,-263.59 1454.07,-253.11 1433.34,-246.45"/>
<polygon fill="midnightblue" stroke="midnightblue" points="1434.18,-243.05 1423.6,-243.56 1432.19,-249.76 1434.18,-243.05"/>
</g>
<!-- Node12 -->
<g id="node12" class="node">
<title>Node12</title>
<g id="a_node12"><a xlink:href="Mode_8h.html" target="_top" target="_top" xlink:title=" ">
<polygon fill="none" stroke="black" points="1384.5,-280.5 1384.5,-299.5 1481.5,-299.5 1481.5,-280.5 1384.5,-280.5"/>
<text text-anchor="middle" x="1433" y="-287.5" font-family="Helvetica,sans-Serif" font-size="10.00">../Modes/Mode.h</text>
</a>
</g>
</g>
<!-- Node3&#45;&gt;Node12 -->
<g id="edge18" class="edge">
<title>Node3&#45;&gt;Node12</title>
<path fill="none" stroke="midnightblue" d="M1497.63,-336.32C1485.84,-328.06 1467.87,-315.45 1453.86,-305.63"/>
<polygon fill="midnightblue" stroke="midnightblue" points="1455.54,-302.53 1445.34,-299.65 1451.52,-308.26 1455.54,-302.53"/>
</g>
<!-- Node5&#45;&gt;Node4 -->
<g id="edge5" class="edge">
<title>Node5&#45;&gt;Node4</title>
<path fill="none" stroke="midnightblue" d="M1537.9,-115.72C1522.59,-114.45 1506.2,-113.13 1491,-112 1249.37,-93.96 959.29,-76.07 851.79,-69.57"/>
<polygon fill="midnightblue" stroke="midnightblue" points="851.86,-66.06 841.67,-68.95 851.44,-73.05 851.86,-66.06"/>
</g>
<!-- Node6 -->
<g id="node6" class="node">
<title>Node6</title>
<g id="a_node6"><a xlink:href="VortexConfig_8h.html" target="_top" target="_top" xlink:title=" ">
<polygon fill="none" stroke="black" points="1319.5,-56.5 1319.5,-75.5 1416.5,-75.5 1416.5,-56.5 1319.5,-56.5"/>
<text text-anchor="middle" x="1368" y="-63.5" font-family="Helvetica,sans-Serif" font-size="10.00">../VortexConfig.h</text>
</a>
</g>
</g>
<!-- Node5&#45;&gt;Node6 -->
<g id="edge6" class="edge">
<title>Node5&#45;&gt;Node6</title>
<path fill="none" stroke="midnightblue" d="M1562.4,-112.44C1522.27,-103.06 1457.8,-87.99 1414.22,-77.8"/>
<polygon fill="midnightblue" stroke="midnightblue" points="1414.97,-74.38 1404.43,-75.52 1413.37,-81.2 1414.97,-74.38"/>
</g>
<!-- Node7 -->
<g id="node7" class="node">
<title>Node7</title>
<g id="a_node7"><a xlink:href="ColorConstants_8h.html" target="_top" target="_top" xlink:title=" ">
<polygon fill="none" stroke="black" points="1378,-0.5 1378,-19.5 1512,-19.5 1512,-0.5 1378,-0.5"/>
<text text-anchor="middle" x="1445" y="-7.5" font-family="Helvetica,sans-Serif" font-size="10.00">Colors/ColorConstants.h</text>
</a>
</g>
</g>
<!-- Node5&#45;&gt;Node7 -->
<g id="edge8" class="edge">
<title>Node5&#45;&gt;Node7</title>
<path fill="none" stroke="midnightblue" d="M1586.92,-112.37C1560.6,-93.57 1497.88,-48.77 1465.35,-25.53"/>
<polygon fill="midnightblue" stroke="midnightblue" points="1467.2,-22.56 1457.03,-19.59 1463.13,-28.25 1467.2,-22.56"/>
</g>
<!-- Node6&#45;&gt;Node7 -->
<g id="edge7" class="edge">
<title>Node6&#45;&gt;Node7</title>
<path fill="none" stroke="midnightblue" d="M1380.37,-56.32C1392.16,-48.06 1410.13,-35.45 1424.14,-25.63"/>
<polygon fill="midnightblue" stroke="midnightblue" points="1426.48,-28.26 1432.66,-19.65 1422.46,-22.53 1426.48,-28.26"/>
</g>
<!-- Node8&#45;&gt;Node4 -->
<g id="edge10" class="edge">
<title>Node8&#45;&gt;Node4</title>
<path fill="none" stroke="midnightblue" d="M1361.93,-224.37C1329.17,-199.03 1232.78,-125.75 1196,-112 1133.67,-88.7 938.55,-74.64 851.58,-69.37"/>
<polygon fill="midnightblue" stroke="midnightblue" points="851.71,-65.87 841.52,-68.77 851.3,-72.86 851.71,-65.87"/>
</g>
<!-- Node8&#45;&gt;Node6 -->
<g id="edge17" class="edge">
<title>Node8&#45;&gt;Node6</title>
<path fill="none" stroke="midnightblue" d="M1372.73,-224.08C1371.94,-197.95 1369.63,-121.21 1368.56,-85.58"/>
<polygon fill="midnightblue" stroke="midnightblue" points="1372.06,-85.46 1368.26,-75.57 1365.06,-85.67 1372.06,-85.46"/>
</g>
<!-- Node9 -->
<g id="node9" class="node">
<title>Node9</title>
<g id="a_node9"><a xlink:title=" ">
<polygon fill="none" stroke="#bfbfbf" points="1131,-112.5 1131,-131.5 1187,-131.5 1187,-112.5 1131,-112.5"/>
<text text-anchor="middle" x="1159" y="-119.5" font-family="Helvetica,sans-Serif" font-size="10.00">stdarg.h</text>
</a>
</g>
</g>
<!-- Node8&#45;&gt;Node9 -->
<g id="edge11" class="edge">
<title>Node8&#45;&gt;Node9</title>
<path fill="none" stroke="midnightblue" d="M1320.23,-228.97C1284.12,-223.99 1236.68,-212.86 1202,-188 1185.38,-176.09 1173.4,-155.59 1166.37,-140.79"/>
<polygon fill="midnightblue" stroke="midnightblue" points="1169.56,-139.35 1162.3,-131.63 1163.16,-142.19 1169.56,-139.35"/>
</g>
<!-- Node8&#45;&gt;Node10 -->
<g id="edge12" class="edge">
<title>Node8&#45;&gt;Node10</title>
<path fill="none" stroke="midnightblue" d="M1383.44,-224.32C1393.15,-216.26 1407.82,-204.08 1419.5,-194.37"/>
<polygon fill="midnightblue" stroke="midnightblue" points="1421.91,-196.92 1427.37,-187.83 1417.44,-191.53 1421.91,-196.92"/>
</g>
<!-- Node10&#45;&gt;Node4 -->
<g id="edge13" class="edge">
<title>Node10&#45;&gt;Node4</title>
<path fill="none" stroke="midnightblue" d="M1429.06,-168.34C1413.35,-153.75 1379.11,-124.6 1344,-112 1253.59,-79.56 961.99,-70.19 851.75,-67.77"/>
<polygon fill="midnightblue" stroke="midnightblue" points="851.73,-64.26 841.66,-67.55 851.58,-71.26 851.73,-64.26"/>
</g>
<!-- Node10&#45;&gt;Node5 -->
<g id="edge14" class="edge">
<title>Node10&#45;&gt;Node5</title>
<path fill="none" stroke="midnightblue" d="M1463.51,-168.44C1490.6,-159.36 1533.59,-144.94 1563.87,-134.78"/>
<polygon fill="midnightblue" stroke="midnightblue" points="1565.24,-138.01 1573.61,-131.52 1563.01,-131.38 1565.24,-138.01"/>
</g>
<!-- Node10&#45;&gt;Node6 -->
<g id="edge15" class="edge">
<title>Node10&#45;&gt;Node6</title>
<path fill="none" stroke="midnightblue" d="M1453.9,-168.49C1474.42,-156.37 1505.85,-133.24 1491,-112 1476.29,-90.95 1450.62,-79.72 1426.52,-73.73"/>
<polygon fill="midnightblue" stroke="midnightblue" points="1427.2,-70.3 1416.68,-71.55 1425.69,-77.13 1427.2,-70.3"/>
</g>
<!-- Node11 -->
<g id="node11" class="node">
<title>Node11</title>
<g id="a_node11"><a xlink:title=" ">
<polygon fill="none" stroke="#bfbfbf" points="1434.5,-112.5 1434.5,-131.5 1481.5,-131.5 1481.5,-112.5 1434.5,-112.5"/>
<text text-anchor="middle" x="1458" y="-119.5" font-family="Helvetica,sans-Serif" font-size="10.00">vector</text>
</a>
</g>
</g>
<!-- Node10&#45;&gt;Node11 -->
<g id="edge16" class="edge">
<title>Node10&#45;&gt;Node11</title>
<path fill="none" stroke="midnightblue" d="M1441.3,-168.08C1443.98,-160.85 1447.85,-150.41 1451.19,-141.4"/>
<polygon fill="midnightblue" stroke="midnightblue" points="1454.57,-142.34 1454.76,-131.75 1448,-139.91 1454.57,-142.34"/>
</g>
<!-- Node12&#45;&gt;Node6 -->
<g id="edge22" class="edge">
<title>Node12&#45;&gt;Node6</title>
<path fill="none" stroke="midnightblue" d="M1464.66,-280.45C1543.56,-257.67 1737.78,-191.83 1669,-112 1638.39,-76.47 1505.48,-68.58 1426.88,-67.08"/>
<polygon fill="midnightblue" stroke="midnightblue" points="1426.69,-63.57 1416.63,-66.91 1426.57,-70.57 1426.69,-63.57"/>
</g>
<!-- Node12&#45;&gt;Node8 -->
<g id="edge19" class="edge">
<title>Node12&#45;&gt;Node8</title>
<path fill="none" stroke="midnightblue" d="M1423.36,-280.32C1414.49,-272.34 1401.13,-260.31 1390.39,-250.65"/>
<polygon fill="midnightblue" stroke="midnightblue" points="1392.59,-247.92 1382.82,-243.83 1387.91,-253.13 1392.59,-247.92"/>
</g>
<!-- Node13 -->
<g id="node13" class="node">
<title>Node13</title>
<g id="a_node13"><a xlink:href="Patterns_8h.html" target="_top" target="_top" xlink:title=" ">
<polygon fill="none" stroke="black" points="880.5,-224.5 880.5,-243.5 997.5,-243.5 997.5,-224.5 880.5,-224.5"/>
<text text-anchor="middle" x="939" y="-231.5" font-family="Helvetica,sans-Serif" font-size="10.00">../Patterns/Patterns.h</text>
</a>
</g>
</g>
<!-- Node12&#45;&gt;Node13 -->
<g id="edge20" class="edge">
<title>Node12&#45;&gt;Node13</title>
<path fill="none" stroke="midnightblue" d="M1384.28,-283.67C1295.91,-274.01 1109,-253.58 1007.71,-242.51"/>
<polygon fill="midnightblue" stroke="midnightblue" points="1007.9,-239.01 997.58,-241.4 1007.14,-245.97 1007.9,-239.01"/>
</g>
<!-- Node13&#45;&gt;Node4 -->
<g id="edge21" class="edge">
<title>Node13&#45;&gt;Node4</title>
<path fill="none" stroke="midnightblue" d="M932.43,-224.46C917.17,-204.63 878.1,-153.99 845,-112 837.55,-102.55 829.16,-92.05 822.35,-83.57"/>
<polygon fill="midnightblue" stroke="midnightblue" points="824.93,-81.2 815.94,-75.6 819.48,-85.58 824.93,-81.2"/>
</g>
<!-- Node14&#45;&gt;Node4 -->
<g id="edge24" class="edge">
<title>Node14&#45;&gt;Node4</title>
<path fill="none" stroke="midnightblue" d="M796.9,-400.13C657.75,-396.75 292.4,-380.25 208,-300 186.19,-279.26 189,-265.1 189,-235 189,-235 189,-235 189,-177 189,-118.33 624.92,-80.71 765.71,-70.09"/>
<polygon fill="midnightblue" stroke="midnightblue" points="766.39,-73.55 776.1,-69.31 765.87,-66.57 766.39,-73.55"/>
</g>
<!-- Node14&#45;&gt;Node6 -->
<g id="edge25" class="edge">
<title>Node14&#45;&gt;Node6</title>
<path fill="none" stroke="midnightblue" d="M905.11,-399.48C1062.06,-394.8 1510.29,-379.52 1572,-356 1653.34,-325 1726,-322.04 1726,-235 1726,-235 1726,-235 1726,-177 1726,-143.54 1715.79,-130.64 1688,-112 1646.47,-84.15 1507.64,-73.27 1427.13,-69.22"/>
<polygon fill="midnightblue" stroke="midnightblue" points="1426.81,-65.71 1416.66,-68.72 1426.48,-72.7 1426.81,-65.71"/>
</g>
<!-- Node14&#45;&gt;Node10 -->
<g id="edge77" class="edge">
<title>Node14&#45;&gt;Node10</title>
<path fill="none" stroke="midnightblue" d="M905.08,-401.2C1060.69,-401.28 1501.58,-397.79 1550,-356 1575.89,-333.66 1576.68,-310.89 1562,-280 1542.21,-238.36 1495.93,-208.25 1465.85,-192.23"/>
<polygon fill="midnightblue" stroke="midnightblue" points="1467.2,-188.99 1456.7,-187.52 1464,-195.21 1467.2,-188.99"/>
</g>
<!-- Node14&#45;&gt;Node12 -->
<g id="edge76" class="edge">
<title>Node14&#45;&gt;Node12</title>
<path fill="none" stroke="midnightblue" d="M905.14,-400.87C1020.36,-399.86 1285.96,-393.4 1367,-356 1389.95,-345.41 1409.59,-323.33 1421.34,-307.85"/>
<polygon fill="midnightblue" stroke="midnightblue" points="1424.26,-309.79 1427.31,-299.64 1418.6,-305.67 1424.26,-309.79"/>
</g>
<!-- Node15 -->
<g id="node15" class="node">
<title>Node15</title>
<g id="a_node15"><a xlink:href="PatternBuilder_8h.html" target="_top" target="_top" xlink:title=" ">
<polygon fill="none" stroke="black" points="830.5,-336.5 830.5,-355.5 967.5,-355.5 967.5,-336.5 830.5,-336.5"/>
<text text-anchor="middle" x="899" y="-343.5" font-family="Helvetica,sans-Serif" font-size="10.00">Patterns/PatternBuilder.h</text>
</a>
</g>
</g>
<!-- Node14&#45;&gt;Node15 -->
<g id="edge26" class="edge">
<title>Node14&#45;&gt;Node15</title>
<path fill="none" stroke="midnightblue" d="M858.93,-392.08C865.85,-384.3 876.07,-372.8 884.45,-363.37"/>
<polygon fill="midnightblue" stroke="midnightblue" points="887.19,-365.55 891.22,-355.75 881.96,-360.9 887.19,-365.55"/>
</g>
<!-- Node16 -->
<g id="node16" class="node">
<title>Node16</title>
<g id="a_node16"><a xlink:href="IRReceiver_8h.html" target="_top" target="_top" xlink:title=" ">
<polygon fill="none" stroke="black" points="217,-280.5 217,-299.5 339,-299.5 339,-280.5 217,-280.5"/>
<text text-anchor="middle" x="278" y="-287.5" font-family="Helvetica,sans-Serif" font-size="10.00">Wireless/IRReceiver.h</text>
</a>
</g>
</g>
<!-- Node14&#45;&gt;Node16 -->
<g id="edge28" class="edge">
<title>Node14&#45;&gt;Node16</title>
<path fill="none" stroke="midnightblue" d="M796.73,-395.29C732.65,-388.11 623.01,-374.45 530,-356 453.66,-340.85 365.97,-316.66 316.76,-302.46"/>
<polygon fill="midnightblue" stroke="midnightblue" points="317.44,-299.01 306.86,-299.58 315.49,-305.73 317.44,-299.01"/>
</g>
<!-- Node19 -->
<g id="node19" class="node">
<title>Node19</title>
<g id="a_node19"><a xlink:href="IRSender_8h.html" target="_top" target="_top" xlink:title=" ">
<polygon fill="none" stroke="black" points="357.5,-280.5 357.5,-299.5 470.5,-299.5 470.5,-280.5 357.5,-280.5"/>
<text text-anchor="middle" x="414" y="-287.5" font-family="Helvetica,sans-Serif" font-size="10.00">Wireless/IRSender.h</text>
</a>
</g>
</g>
<!-- Node14&#45;&gt;Node19 -->
<g id="edge33" class="edge">
<title>Node14&#45;&gt;Node19</title>
<path fill="none" stroke="midnightblue" d="M796.76,-394.28C744.33,-387.14 662.95,-374.34 594,-356 539.94,-341.62 479.12,-318.04 443.82,-303.58"/>
<polygon fill="midnightblue" stroke="midnightblue" points="444.73,-300.16 434.15,-299.58 442.05,-306.63 444.73,-300.16"/>
</g>
<!-- Node14&#45;&gt;Node21 -->
<g id="edge78" class="edge">
<title>Node14&#45;&gt;Node21</title>
<path fill="none" stroke="midnightblue" d="M842.79,-392.18C835.46,-383.66 825.24,-370.02 821,-356 818.42,-347.49 819.15,-344.69 821,-336 832.36,-282.68 829.56,-259.41 871,-224 904.66,-195.24 954.95,-184.68 991.54,-180.9"/>
<polygon fill="midnightblue" stroke="midnightblue" points="992.3,-184.34 1001.95,-179.96 991.67,-177.37 992.3,-184.34"/>
</g>
<!-- Node22 -->
<g id="node22" class="node">
<title>Node22</title>
<g id="a_node22"><a xlink:href="VLReceiver_8h.html" target="_top" target="_top" xlink:title=" ">
<polygon fill="none" stroke="black" points="488.5,-280.5 488.5,-299.5 613.5,-299.5 613.5,-280.5 488.5,-280.5"/>
<text text-anchor="middle" x="551" y="-287.5" font-family="Helvetica,sans-Serif" font-size="10.00">Wireless/VLReceiver.h</text>
</a>
</g>
</g>
<!-- Node14&#45;&gt;Node22 -->
<g id="edge41" class="edge">
<title>Node14&#45;&gt;Node22</title>
<path fill="none" stroke="midnightblue" d="M796.79,-397.64C750.08,-393.01 681.88,-382.03 628,-356 603.28,-344.06 579.93,-322.33 565.56,-307.3"/>
<polygon fill="midnightblue" stroke="midnightblue" points="567.92,-304.7 558.55,-299.75 562.79,-309.46 567.92,-304.7"/>
</g>
<!-- Node24 -->
<g id="node24" class="node">
<title>Node24</title>
<g id="a_node24"><a xlink:href="VLSender_8h.html" target="_top" target="_top" xlink:title=" ">
<polygon fill="none" stroke="black" points="670,-280.5 670,-299.5 786,-299.5 786,-280.5 670,-280.5"/>
<text text-anchor="middle" x="728" y="-287.5" font-family="Helvetica,sans-Serif" font-size="10.00">Wireless/VLSender.h</text>
</a>
</g>
</g>
<!-- Node14&#45;&gt;Node24 -->
<g id="edge46" class="edge">
<title>Node14&#45;&gt;Node24</title>
<path fill="none" stroke="midnightblue" d="M837.37,-392.44C824.19,-383.9 803.93,-370.05 788,-356 770.81,-340.83 753.26,-321.25 741.62,-307.56"/>
<polygon fill="midnightblue" stroke="midnightblue" points="743.99,-304.94 734.89,-299.52 738.62,-309.43 743.99,-304.94"/>
</g>
<!-- Node25 -->
<g id="node25" class="node">
<title>Node25</title>
<g id="a_node25"><a xlink:href="Storage_8h.html" target="_top" target="_top" xlink:title=" ">
<polygon fill="none" stroke="black" points="0,-168.5 0,-187.5 104,-187.5 104,-168.5 0,-168.5"/>
<text text-anchor="middle" x="52" y="-175.5" font-family="Helvetica,sans-Serif" font-size="10.00">Storage/Storage.h</text>
</a>
</g>
</g>
<!-- Node14&#45;&gt;Node25 -->
<g id="edge50" class="edge">
<title>Node14&#45;&gt;Node25</title>
<path fill="none" stroke="midnightblue" d="M796.72,-399.78C624.07,-395.64 97.27,-381 71,-356 27.38,-314.48 39.15,-233.63 47.27,-197.37"/>
<polygon fill="midnightblue" stroke="midnightblue" points="50.67,-198.18 49.6,-187.64 43.87,-196.55 50.67,-198.18"/>
</g>
<!-- Node26 -->
<g id="node26" class="node">
<title>Node26</title>
<g id="a_node26"><a xlink:href="Buttons_8h.html" target="_top" target="_top" xlink:title=" ">
<polygon fill="none" stroke="black" points="80,-336.5 80,-355.5 184,-355.5 184,-336.5 80,-336.5"/>
<text text-anchor="middle" x="132" y="-343.5" font-family="Helvetica,sans-Serif" font-size="10.00">Buttons/Buttons.h</text>
</a>
</g>
</g>
<!-- Node14&#45;&gt;Node26 -->
<g id="edge52" class="edge">
<title>Node14&#45;&gt;Node26</title>
<path fill="none" stroke="midnightblue" d="M796.72,-398.49C684.64,-393.03 419.57,-378.72 198,-356 196.74,-355.87 195.46,-355.74 194.18,-355.6"/>
<polygon fill="midnightblue" stroke="midnightblue" points="194.54,-352.11 184.2,-354.45 193.73,-359.07 194.54,-352.11"/>
</g>
<!-- Node28 -->
<g id="node28" class="node">
<title>Node28</title>
<g id="a_node28"><a xlink:href="TimeControl_8h.html" target="_top" target="_top" xlink:title=" ">
<polygon fill="none" stroke="black" points="1138.5,-280.5 1138.5,-299.5 1251.5,-299.5 1251.5,-280.5 1138.5,-280.5"/>
<text text-anchor="middle" x="1195" y="-287.5" font-family="Helvetica,sans-Serif" font-size="10.00">Time/TimeControl.h</text>
</a>
</g>
</g>
<!-- Node14&#45;&gt;Node28 -->
<g id="edge55" class="edge">
<title>Node14&#45;&gt;Node28</title>
<path fill="none" stroke="midnightblue" d="M878.43,-392.44C907.24,-383.43 953.83,-368.81 994,-356 1051.82,-337.55 1118.87,-315.8 1159.06,-302.72"/>
<polygon fill="midnightblue" stroke="midnightblue" points="1160.26,-306.01 1168.68,-299.58 1158.09,-299.35 1160.26,-306.01"/>
</g>
<!-- Node29 -->
<g id="node29" class="node">
<title>Node29</title>
<g id="a_node29"><a xlink:href="Timings_8h.html" target="_top" target="_top" xlink:title=" ">
<polygon fill="none" stroke="black" points="1149,-336.5 1149,-355.5 1241,-355.5 1241,-336.5 1149,-336.5"/>
<text text-anchor="middle" x="1195" y="-343.5" font-family="Helvetica,sans-Serif" font-size="10.00">Time/Timings.h</text>
</a>
</g>
</g>
<!-- Node14&#45;&gt;Node29 -->
<g id="edge59" class="edge">
<title>Node14&#45;&gt;Node29</title>
<path fill="none" stroke="midnightblue" d="M905.13,-392.5C968.89,-382.49 1074.28,-365.95 1138.89,-355.81"/>
<polygon fill="midnightblue" stroke="midnightblue" points="1139.56,-359.25 1148.89,-354.24 1138.47,-352.33 1139.56,-359.25"/>
</g>
<!-- Node30 -->
<g id="node30" class="node">
<title>Node30</title>
<g id="a_node30"><a xlink:href="Serial_8h.html" target="_top" target="_top" xlink:title=" ">
<polygon fill="none" stroke="black" points="575,-168.5 575,-187.5 659,-187.5 659,-168.5 575,-168.5"/>
<text text-anchor="middle" x="617" y="-175.5" font-family="Helvetica,sans-Serif" font-size="10.00">Serial/Serial.h</text>
</a>
</g>
</g>
<!-- Node14&#45;&gt;Node30 -->
<g id="edge62" class="edge">
<title>Node14&#45;&gt;Node30</title>
<path fill="none" stroke="midnightblue" d="M834.18,-392.32C774.28,-361.33 574.57,-257.32 567,-244 556.36,-225.28 575.75,-205.99 593.39,-193.34"/>
<polygon fill="midnightblue" stroke="midnightblue" points="595.44,-196.18 601.78,-187.69 591.53,-190.38 595.44,-196.18"/>
</g>
<!-- Node14&#45;&gt;Node31 -->
<g id="edge64" class="edge">
<title>Node14&#45;&gt;Node31</title>
<path fill="none" stroke="midnightblue" d="M905.23,-395.71C931.15,-390.13 959.95,-378.83 976,-356 985.32,-342.73 983.56,-323.9 980.21,-309.91"/>
<polygon fill="midnightblue" stroke="midnightblue" points="983.47,-308.6 977.37,-299.94 976.74,-310.52 983.47,-308.6"/>
</g>
<!-- Node14&#45;&gt;Node32 -->
<g id="edge71" class="edge">
<title>Node14&#45;&gt;Node32</title>
<path fill="none" stroke="midnightblue" d="M905.28,-395.43C982.11,-387.43 1126.93,-371.87 1250,-356 1251.71,-355.78 1253.44,-355.55 1255.19,-355.32"/>
<polygon fill="midnightblue" stroke="midnightblue" points="1255.87,-358.76 1265.3,-353.94 1254.92,-351.82 1255.87,-358.76"/>
</g>
<!-- Node15&#45;&gt;Node13 -->
<g id="edge27" class="edge">
<title>Node15&#45;&gt;Node13</title>
<path fill="none" stroke="midnightblue" d="M901.06,-336.45C904.17,-323.89 910.53,-299.8 918,-280 921.42,-270.92 925.89,-261.14 929.83,-253.01"/>
<polygon fill="midnightblue" stroke="midnightblue" points="933.09,-254.31 934.41,-243.79 926.82,-251.19 933.09,-254.31"/>
</g>
<!-- Node16&#45;&gt;Node4 -->
<g id="edge29" class="edge">
<title>Node16&#45;&gt;Node4</title>
<path fill="none" stroke="midnightblue" d="M274.81,-280.31C270.56,-267.14 264.7,-241.79 275,-224 325.07,-137.5 375.34,-144.07 470,-112 572.27,-77.35 700.33,-69.22 765.92,-67.42"/>
<polygon fill="midnightblue" stroke="midnightblue" points="766.36,-70.91 776.27,-67.17 766.19,-63.91 766.36,-70.91"/>
</g>
<!-- Node17 -->
<g id="node17" class="node">
<title>Node17</title>
<g id="a_node17"><a xlink:href="BitStream_8h.html" target="_top" target="_top" xlink:title=" ">
<polygon fill="none" stroke="black" points="368,-224.5 368,-243.5 482,-243.5 482,-224.5 368,-224.5"/>
<text text-anchor="middle" x="425" y="-231.5" font-family="Helvetica,sans-Serif" font-size="10.00">../Serial/BitStream.h</text>
</a>
</g>
</g>
<!-- Node16&#45;&gt;Node17 -->
<g id="edge30" class="edge">
<title>Node16&#45;&gt;Node17</title>
<path fill="none" stroke="midnightblue" d="M301.29,-280.44C325.81,-271.44 364.6,-257.19 392.2,-247.05"/>
<polygon fill="midnightblue" stroke="midnightblue" points="393.64,-250.25 401.82,-243.52 391.22,-243.68 393.64,-250.25"/>
</g>
<!-- Node18 -->
<g id="node18" class="node">
<title>Node18</title>
<g id="a_node18"><a xlink:href="IRConfig_8h.html" target="_top" target="_top" xlink:title=" ">
<polygon fill="none" stroke="black" points="284,-224.5 284,-243.5 350,-243.5 350,-224.5 284,-224.5"/>
<text text-anchor="middle" x="317" y="-231.5" font-family="Helvetica,sans-Serif" font-size="10.00">IRConfig.h</text>
</a>
</g>
</g>
<!-- Node16&#45;&gt;Node18 -->
<g id="edge32" class="edge">
<title>Node16&#45;&gt;Node18</title>
<path fill="none" stroke="midnightblue" d="M284.44,-280.08C289.95,-272.46 298.03,-261.26 304.76,-251.94"/>
<polygon fill="midnightblue" stroke="midnightblue" points="307.66,-253.91 310.68,-243.75 301.99,-249.81 307.66,-253.91"/>
</g>
<!-- Node17&#45;&gt;Node4 -->
<g id="edge31" class="edge">
<title>Node17&#45;&gt;Node4</title>
<path fill="none" stroke="midnightblue" d="M427.21,-224.49C433.56,-201.87 454.15,-140.11 496,-112 539.36,-82.87 691.21,-72.18 766.3,-68.62"/>
<polygon fill="midnightblue" stroke="midnightblue" points="766.54,-72.11 776.37,-68.16 766.22,-65.12 766.54,-72.11"/>
</g>
<!-- Node19&#45;&gt;Node17 -->
<g id="edge39" class="edge">
<title>Node19&#45;&gt;Node17</title>
<path fill="none" stroke="midnightblue" d="M415.82,-280.08C417.27,-272.93 419.37,-262.64 421.19,-253.69"/>
<polygon fill="midnightblue" stroke="midnightblue" points="424.65,-254.25 423.22,-243.75 417.79,-252.85 424.65,-254.25"/>
</g>
<!-- Node19&#45;&gt;Node18 -->
<g id="edge40" class="edge">
<title>Node19&#45;&gt;Node18</title>
<path fill="none" stroke="midnightblue" d="M398.42,-280.32C383,-271.74 359.19,-258.49 341.29,-248.52"/>
<polygon fill="midnightblue" stroke="midnightblue" points="342.99,-245.46 332.55,-243.65 339.58,-251.58 342.99,-245.46"/>
</g>
<!-- Node20 -->
<g id="node20" class="node">
<title>Node20</title>
<g id="a_node20"><a xlink:href="ByteStream_8h.html" target="_top" target="_top" xlink:title=" ">
<polygon fill="none" stroke="black" points="662.5,-224.5 662.5,-243.5 785.5,-243.5 785.5,-224.5 662.5,-224.5"/>
<text text-anchor="middle" x="724" y="-231.5" font-family="Helvetica,sans-Serif" font-size="10.00">../Serial/ByteStream.h</text>
</a>
</g>
</g>
<!-- Node19&#45;&gt;Node20 -->
<g id="edge34" class="edge">
<title>Node19&#45;&gt;Node20</title>
<path fill="none" stroke="midnightblue" d="M463.12,-280.44C517.88,-270.9 606.41,-255.48 664.91,-245.29"/>
<polygon fill="midnightblue" stroke="midnightblue" points="665.86,-248.68 675.11,-243.52 664.66,-241.78 665.86,-248.68"/>
</g>
<!-- Node20&#45;&gt;Node4 -->
<g id="edge35" class="edge">
<title>Node20&#45;&gt;Node4</title>
<path fill="none" stroke="midnightblue" d="M728.57,-224.08C742.07,-197.72 781.92,-119.88 799.96,-84.66"/>
<polygon fill="midnightblue" stroke="midnightblue" points="803.17,-86.06 804.61,-75.57 796.94,-82.87 803.17,-86.06"/>
</g>
<!-- Node20&#45;&gt;Node21 -->
<g id="edge36" class="edge">
<title>Node20&#45;&gt;Node21</title>
<path fill="none" stroke="midnightblue" d="M773.75,-224.44C833.62,-214.15 933.35,-197 991.66,-186.97"/>
<polygon fill="midnightblue" stroke="midnightblue" points="992.43,-190.39 1001.69,-185.24 991.25,-183.49 992.43,-190.39"/>
</g>
<!-- Node21&#45;&gt;Node6 -->
<g id="edge38" class="edge">
<title>Node21&#45;&gt;Node6</title>
<path fill="none" stroke="midnightblue" d="M1042.2,-168.12C1049.51,-153.72 1066.02,-125.55 1089,-112 1125.36,-90.57 1238.85,-77.62 1309.38,-71.43"/>
<polygon fill="midnightblue" stroke="midnightblue" points="1309.8,-74.91 1319.47,-70.57 1309.2,-67.93 1309.8,-74.91"/>
</g>
<!-- Node21&#45;&gt;Node9 -->
<g id="edge37" class="edge">
<title>Node21&#45;&gt;Node9</title>
<path fill="none" stroke="midnightblue" d="M1057.17,-168.44C1076.91,-159.64 1107.89,-145.81 1130.49,-135.72"/>
<polygon fill="midnightblue" stroke="midnightblue" points="1132.21,-138.79 1139.92,-131.52 1129.36,-132.4 1132.21,-138.79"/>
</g>
<!-- Node22&#45;&gt;Node4 -->
<g id="edge42" class="edge">
<title>Node22&#45;&gt;Node4</title>
<path fill="none" stroke="midnightblue" d="M549.42,-280.34C546.03,-258.93 540.28,-202.69 566,-168 613.77,-103.56 710.31,-80.01 766.26,-71.56"/>
<polygon fill="midnightblue" stroke="midnightblue" points="766.8,-75.02 776.21,-70.16 765.82,-68.09 766.8,-75.02"/>
</g>
<!-- Node22&#45;&gt;Node17 -->
<g id="edge43" class="edge">
<title>Node22&#45;&gt;Node17</title>
<path fill="none" stroke="midnightblue" d="M531.03,-280.44C510.39,-271.6 477.94,-257.69 454.37,-247.59"/>
<polygon fill="midnightblue" stroke="midnightblue" points="455.44,-244.24 444.87,-243.52 452.68,-250.67 455.44,-244.24"/>
</g>
<!-- Node23 -->
<g id="node23" class="node">
<title>Node23</title>
<g id="a_node23"><a xlink:href="VLConfig_8h.html" target="_top" target="_top" xlink:title=" ">
<polygon fill="none" stroke="black" points="576,-224.5 576,-243.5 644,-243.5 644,-224.5 576,-224.5"/>
<text text-anchor="middle" x="610" y="-231.5" font-family="Helvetica,sans-Serif" font-size="10.00">VLConfig.h</text>
</a>
</g>
</g>
<!-- Node22&#45;&gt;Node23 -->
<g id="edge44" class="edge">
<title>Node22&#45;&gt;Node23</title>
<path fill="none" stroke="midnightblue" d="M560.48,-280.32C569.2,-272.34 582.34,-260.31 592.9,-250.65"/>
<polygon fill="midnightblue" stroke="midnightblue" points="595.33,-253.17 600.35,-243.83 590.61,-248 595.33,-253.17"/>
</g>
<!-- Node23&#45;&gt;Node6 -->
<g id="edge45" class="edge">
<title>Node23&#45;&gt;Node6</title>
<path fill="none" stroke="midnightblue" d="M637.57,-224.45C707.87,-202.91 899.77,-145.72 1063,-112 1148.03,-94.43 1247.77,-81.06 1309.43,-73.62"/>
<polygon fill="midnightblue" stroke="midnightblue" points="1309.85,-77.09 1319.36,-72.43 1309.02,-70.14 1309.85,-77.09"/>
</g>
<!-- Node24&#45;&gt;Node17 -->
<g id="edge48" class="edge">
<title>Node24&#45;&gt;Node17</title>
<path fill="none" stroke="midnightblue" d="M679.99,-280.44C626.47,-270.9 539.93,-255.48 482.76,-245.29"/>
<polygon fill="midnightblue" stroke="midnightblue" points="483.25,-241.83 472.79,-243.52 482.02,-248.72 483.25,-241.83"/>
</g>
<!-- Node24&#45;&gt;Node20 -->
<g id="edge47" class="edge">
<title>Node24&#45;&gt;Node20</title>
<path fill="none" stroke="midnightblue" d="M727.34,-280.08C726.82,-273.01 726.06,-262.86 725.41,-253.99"/>
<polygon fill="midnightblue" stroke="midnightblue" points="728.88,-253.47 724.65,-243.75 721.9,-253.98 728.88,-253.47"/>
</g>
<!-- Node24&#45;&gt;Node23 -->
<g id="edge49" class="edge">
<title>Node24&#45;&gt;Node23</title>
<path fill="none" stroke="midnightblue" d="M709.3,-280.44C690.06,-271.64 659.85,-257.81 637.8,-247.72"/>
<polygon fill="midnightblue" stroke="midnightblue" points="639.16,-244.5 628.61,-243.52 636.25,-250.86 639.16,-244.5"/>
</g>
<!-- Node25&#45;&gt;Node4 -->
<g id="edge51" class="edge">
<title>Node25&#45;&gt;Node4</title>
<path fill="none" stroke="midnightblue" d="M54.7,-168.38C59.77,-153.84 72.21,-124.77 94,-112 151.91,-78.07 620.47,-69.37 766.02,-67.47"/>
<polygon fill="midnightblue" stroke="midnightblue" points="766.38,-70.97 776.33,-67.34 766.29,-63.97 766.38,-70.97"/>
</g>
<!-- Node27 -->
<g id="node27" class="node">
<title>Node27</title>
<g id="a_node27"><a xlink:href="Button_8h.html" target="_top" target="_top" xlink:title=" ">
<polygon fill="none" stroke="black" points="103,-112.5 103,-131.5 161,-131.5 161,-112.5 103,-112.5"/>
<text text-anchor="middle" x="132" y="-119.5" font-family="Helvetica,sans-Serif" font-size="10.00">Button.h</text>
</a>
</g>
</g>
<!-- Node26&#45;&gt;Node27 -->
<g id="edge53" class="edge">
<title>Node26&#45;&gt;Node27</title>
<path fill="none" stroke="midnightblue" d="M132,-336.3C132,-303.63 132,-187.87 132,-141.96"/>
<polygon fill="midnightblue" stroke="midnightblue" points="135.5,-141.88 132,-131.88 128.5,-141.88 135.5,-141.88"/>
</g>
<!-- Node27&#45;&gt;Node4 -->
<g id="edge54" class="edge">
<title>Node27&#45;&gt;Node4</title>
<path fill="none" stroke="midnightblue" d="M161.05,-114.36C165.7,-113.46 170.47,-112.63 175,-112 395.87,-81.19 663.13,-70.98 765.89,-68.05"/>
<polygon fill="midnightblue" stroke="midnightblue" points="766.27,-71.54 776.17,-67.76 766.08,-64.54 766.27,-71.54"/>
</g>
<!-- Node28&#45;&gt;Node4 -->
<g id="edge56" class="edge">
<title>Node28&#45;&gt;Node4</title>
<path fill="none" stroke="midnightblue" d="M1190.78,-280.37C1184.11,-267.29 1170.24,-242.05 1154,-224 1127.11,-194.13 1116.16,-190.7 1083,-168 1042.56,-140.32 1033.34,-130.61 988,-112 943.02,-93.54 888.48,-81.15 851.51,-74.13"/>
<polygon fill="midnightblue" stroke="midnightblue" points="852.04,-70.67 841.57,-72.29 850.76,-77.55 852.04,-70.67"/>
</g>
<!-- Node28&#45;&gt;Node6 -->
<g id="edge57" class="edge">
<title>Node28&#45;&gt;Node6</title>
<path fill="none" stroke="midnightblue" d="M1196.87,-280.47C1203.36,-252.75 1227.29,-164 1278,-112 1292.41,-97.23 1312.68,-86.51 1330.34,-79.24"/>
<polygon fill="midnightblue" stroke="midnightblue" points="1331.77,-82.44 1339.83,-75.56 1329.24,-75.92 1331.77,-82.44"/>
</g>
<!-- Node28&#45;&gt;Node8 -->
<g id="edge58" class="edge">
<title>Node28&#45;&gt;Node8</title>
<path fill="none" stroke="midnightblue" d="M1223.2,-280.44C1253.41,-271.28 1301.51,-256.69 1335.03,-246.52"/>
<polygon fill="midnightblue" stroke="midnightblue" points="1336.37,-249.77 1344.93,-243.52 1334.34,-243.07 1336.37,-249.77"/>
</g>
<!-- Node29&#45;&gt;Node6 -->
<g id="edge61" class="edge">
<title>Node29&#45;&gt;Node6</title>
<path fill="none" stroke="midnightblue" d="M1212.38,-336.35C1226.71,-328.49 1246.74,-315.75 1260,-300 1317.6,-231.57 1351.24,-127.31 1363.11,-85.39"/>
<polygon fill="midnightblue" stroke="midnightblue" points="1366.55,-86.08 1365.82,-75.51 1359.8,-84.23 1366.55,-86.08"/>
</g>
<!-- Node29&#45;&gt;Node28 -->
<g id="edge60" class="edge">
<title>Node29&#45;&gt;Node28</title>
<path fill="none" stroke="midnightblue" d="M1195,-336.08C1195,-329.01 1195,-318.86 1195,-309.99"/>
<polygon fill="midnightblue" stroke="midnightblue" points="1198.5,-309.75 1195,-299.75 1191.5,-309.75 1198.5,-309.75"/>
</g>
<!-- Node30&#45;&gt;Node4 -->
<g id="edge63" class="edge">
<title>Node30&#45;&gt;Node4</title>
<path fill="none" stroke="midnightblue" d="M632.07,-168.37C665.29,-149.33 745.09,-103.62 785.17,-80.65"/>
<polygon fill="midnightblue" stroke="midnightblue" points="787.07,-83.6 794,-75.59 783.59,-77.53 787.07,-83.6"/>
</g>
<!-- Node31&#45;&gt;Node4 -->
<g id="edge70" class="edge">
<title>Node31&#45;&gt;Node4</title>
<path fill="none" stroke="midnightblue" d="M936,-280.47C914.34,-273.82 888.19,-262.53 871,-244 828.42,-198.11 814.83,-121.31 810.7,-85.92"/>
<polygon fill="midnightblue" stroke="midnightblue" points="814.14,-85.19 809.63,-75.6 807.18,-85.91 814.14,-85.19"/>
</g>
<!-- Node31&#45;&gt;Node5 -->
<g id="edge66" class="edge">
<title>Node31&#45;&gt;Node5</title>
<path fill="none" stroke="midnightblue" d="M1018.58,-280.47C1141.66,-256.87 1477.88,-192.23 1489,-188 1522.74,-175.16 1558.04,-152.37 1579.28,-137.48"/>
<polygon fill="midnightblue" stroke="midnightblue" points="1581.37,-140.29 1587.47,-131.63 1577.3,-134.59 1581.37,-140.29"/>
</g>
<!-- Node31&#45;&gt;Node6 -->
<g id="edge69" class="edge">
<title>Node31&#45;&gt;Node6</title>
<path fill="none" stroke="midnightblue" d="M985.75,-280.37C1007.21,-264.16 1053.23,-227.26 1083,-188 1105.94,-157.75 1091.52,-134.64 1122,-112 1150.97,-90.48 1246.06,-77.93 1309.17,-71.78"/>
<polygon fill="midnightblue" stroke="midnightblue" points="1309.77,-75.24 1319.4,-70.81 1309.11,-68.27 1309.77,-75.24"/>
</g>
<!-- Node31&#45;&gt;Node10 -->
<g id="edge68" class="edge">
<title>Node31&#45;&gt;Node10</title>
<path fill="none" stroke="midnightblue" d="M1001.17,-280.4C1043.7,-267.14 1128.71,-241.4 1202,-224 1264.95,-209.06 1338.26,-195.7 1386.27,-187.49"/>
<polygon fill="midnightblue" stroke="midnightblue" points="1387.14,-190.9 1396.41,-185.77 1385.96,-184 1387.14,-190.9"/>
</g>
<!-- Node31&#45;&gt;Node13 -->
<g id="edge67" class="edge">
<title>Node31&#45;&gt;Node13</title>
<path fill="none" stroke="midnightblue" d="M968.22,-280.08C963.33,-272.53 956.17,-261.49 950.17,-252.23"/>
<polygon fill="midnightblue" stroke="midnightblue" points="953.05,-250.24 944.67,-243.75 947.17,-254.05 953.05,-250.24"/>
</g>
<!-- Node31&#45;&gt;Node20 -->
<g id="edge65" class="edge">
<title>Node31&#45;&gt;Node20</title>
<path fill="none" stroke="midnightblue" d="M934.39,-280.44C890.77,-271.02 820.6,-255.87 773.42,-245.68"/>
<polygon fill="midnightblue" stroke="midnightblue" points="773.94,-242.21 763.43,-243.52 772.46,-249.05 773.94,-242.21"/>
</g>
<!-- Node32&#45;&gt;Node4 -->
<g id="edge72" class="edge">
<title>Node32&#45;&gt;Node4</title>
<path fill="none" stroke="midnightblue" d="M1265.21,-338.63C1227.21,-332.27 1172.91,-320.42 1129,-300 1095.52,-284.43 892.77,-130.82 828.51,-81.89"/>
<polygon fill="midnightblue" stroke="midnightblue" points="830.47,-78.98 820.4,-75.71 826.23,-84.55 830.47,-78.98"/>
</g>
<!-- Node32&#45;&gt;Node5 -->
<g id="edge73" class="edge">
<title>Node32&#45;&gt;Node5</title>
<path fill="none" stroke="midnightblue" d="M1319.29,-336.34C1330.6,-323.21 1353.42,-297.91 1376,-280 1400.07,-260.91 1408.93,-260.25 1435,-244 1474.34,-219.48 1485.74,-215.58 1523,-188 1544.2,-172.31 1566.99,-152.36 1582.03,-138.73"/>
<polygon fill="midnightblue" stroke="midnightblue" points="1584.51,-141.2 1589.52,-131.87 1579.78,-136.04 1584.51,-141.2"/>
</g>
<!-- Node32&#45;&gt;Node8 -->
<g id="edge74" class="edge">
<title>Node32&#45;&gt;Node8</title>
<path fill="none" stroke="midnightblue" d="M1315.43,-336.35C1320.59,-323.68 1330.93,-299.44 1342,-280 1347.52,-270.31 1354.5,-260.04 1360.44,-251.76"/>
<polygon fill="midnightblue" stroke="midnightblue" points="1363.28,-253.81 1366.36,-243.67 1357.63,-249.67 1363.28,-253.81"/>
</g>
<!-- Node32&#45;&gt;Node12 -->
<g id="edge75" class="edge">
<title>Node32&#45;&gt;Node12</title>
<path fill="none" stroke="midnightblue" d="M1331.17,-336.44C1350.91,-327.64 1381.89,-313.81 1404.49,-303.72"/>
<polygon fill="midnightblue" stroke="midnightblue" points="1406.21,-306.79 1413.92,-299.52 1403.36,-300.4 1406.21,-306.79"/>
</g>
</g>
</svg>
        <g id="navigator" transform="translate(0 0)" fill="#404254">
                <rect fill="#f2f5e9" fill-opacity="0.5" stroke="#606060" stroke-width=".5" x="0" y="0" width="60" height="60"/>
                <use id="zoomplus" xlink:href="#zoomPlus" target="_top" x="17" y="9" onmousedown="handleZoom(evt,'in')"/>
                <use id="zoomminus" xlink:href="#zoomMin" target="_top" x="42" y="9" onmousedown="handleZoom(evt,'out')"/>
                <use id="reset" xlink:href="#resetDef" target="_top" x="30" y="36" onmousedown="handleReset()"/>
                <g id="arrowUp" xlink:href="#dirArrow" target="_top" transform="translate(30 24)" onmousedown="handlePan(0,-1)">
                  <use xlink:href="#rim" target="_top" fill="#404040">
                        <set attributeName="fill" to="#808080" begin="arrowUp.mouseover" end="arrowUp.mouseout"/>
                  </use>
                  <path fill="none" stroke="white" stroke-width="1.5" d="M0,-3.0v7 M-2.5,-0.5L0,-3.0L2.5,-0.5"/>
                </g>
                <g id="arrowRight" xlink:href="#dirArrow" target="_top" transform="rotate(90) translate(36 -43)" onmousedown="handlePan(1,0)">
                  <use xlink:href="#rim" target="_top" fill="#404040">
                        <set attributeName="fill" to="#808080" begin="arrowRight.mouseover" end="arrowRight.mouseout"/>
                  </use>
                  <path fill="none" stroke="white" stroke-width="1.5" d="M0,-3.0v7 M-2.5,-0.5L0,-3.0L2.5,-0.5"/>
                </g>
                <g id="arrowDown" xlink:href="#dirArrow" target="_top" transform="rotate(180) translate(-30 -48)" onmousedown="handlePan(0,1)">
                  <use xlink:href="#rim" target="_top" fill="#404040">
                        <set attributeName="fill" to="#808080" begin="arrowDown.mouseover" end="arrowDown.mouseout"/>
                  </use>
                  <path fill="none" stroke="white" stroke-width="1.5" d="M0,-3.0v7 M-2.5,-0.5L0,-3.0L2.5,-0.5"/>
                </g>
                <g id="arrowLeft" xlink:href="#dirArrow" target="_top" transform="rotate(270) translate(-36 17)" onmousedown="handlePan(-1,0)">
                  <use xlink:href="#rim" target="_top" fill="#404040">
                        <set attributeName="fill" to="#808080" begin="arrowLeft.mouseover" end="arrowLeft.mouseout"/>
                  </use>
                  <path fill="none" stroke="white" stroke-width="1.5" d="M0,-3.0v7 M-2.5,-0.5L0,-3.0L2.5,-0.5"/>
                </g>
        </g>
        <svg viewBox="0 0 15 15" width="100%" height="30px" preserveAspectRatio="xMaxYMin meet">
         <g id="arrow_out" transform="scale(0.3 0.3)">
          <a xlink:href="GlobalBrightness_8cpp__incl_org.svg" target="_top" target="_base">
           <rect id="button" ry="5" rx="5" y="6" x="6" height="38" width="38"
                fill="#f2f5e9" fill-opacity="0.5" stroke="#606060" stroke-width="1.0"/>
           <path id="arrow"
             d="M 11.500037,31.436501 C 11.940474,20.09759 22.043105,11.32322 32.158766,21.979434 L 37.068811,17.246167 C 37.068811,17.246167 37.088388,32 37.088388,32 L 22.160133,31.978069 C 22.160133,31.978069 26.997745,27.140456 26.997745,27.140456 C 18.528582,18.264221 13.291696,25.230495 11.500037,31.436501 z"
             style="fill:#404040;"/>
          </a>
         </g>
        </svg>
</svg>
