<?xml version="1.0" encoding="UTF-8" standalone="no"?>
<!DOCTYPE svg PUBLIC "-//W3C//DTD SVG 1.1//EN"
 "http://www.w3.org/Graphics/SVG/1.1/DTD/svg11.dtd">
<!-- Generated by graphviz version 2.43.0 (0)
 -->
<!-- Title: VortexEngine/src/Leds/Leds.h Pages: 1 -->
<svg width="280pt" height="207pt"
 viewBox="0.00 0.00 280.00 207.00" xmlns="http://www.w3.org/2000/svg" xmlns:xlink="http://www.w3.org/1999/xlink">
<g id="graph0" class="graph" transform="scale(1 1) rotate(0) translate(4 203)">
<title>VortexEngine/src/Leds/Leds.h</title>
<!-- Node1 -->
<g id="node1" class="node">
<title>Node1</title>
<g id="a_node1"><a xlink:title=" ">
<polygon fill="#bfbfbf" stroke="black" points="89.5,-168.5 89.5,-198.5 213.5,-198.5 213.5,-168.5 89.5,-168.5"/>
<text text-anchor="start" x="97.5" y="-186.5" font-family="Helvetica,sans-Serif" font-size="10.00">VortexEngine/src/Leds</text>
<text text-anchor="middle" x="151.5" y="-175.5" font-family="Helvetica,sans-Serif" font-size="10.00">/Leds.h</text>
</a>
</g>
</g>
<!-- Node2 -->
<g id="node2" class="node">
<title>Node2</title>
<g id="a_node2"><a xlink:title=" ">
<polygon fill="none" stroke="#bfbfbf" points="0,-56.5 0,-75.5 65,-75.5 65,-56.5 0,-56.5"/>
<text text-anchor="middle" x="32.5" y="-63.5" font-family="Helvetica,sans-Serif" font-size="10.00">inttypes.h</text>
</a>
</g>
</g>
<!-- Node1&#45;&gt;Node2 -->
<g id="edge1" class="edge">
<title>Node1&#45;&gt;Node2</title>
<path fill="none" stroke="midnightblue" d="M89.42,-168.56C69.72,-161.02 49.87,-149.5 37.5,-132 28.12,-118.73 27.69,-99.89 29.12,-85.91"/>
<polygon fill="midnightblue" stroke="midnightblue" points="32.6,-86.33 30.53,-75.94 25.66,-85.35 32.6,-86.33"/>
</g>
<!-- Node3 -->
<g id="node3" class="node">
<title>Node3</title>
<g id="a_node3"><a xlink:href="ColorTypes_8h.html" target="_top" target="_top" xlink:title=" ">
<polygon fill="none" stroke="black" points="46.5,-112.5 46.5,-131.5 168.5,-131.5 168.5,-112.5 46.5,-112.5"/>
<text text-anchor="middle" x="107.5" y="-119.5" font-family="Helvetica,sans-Serif" font-size="10.00">../Colors/ColorTypes.h</text>
</a>
</g>
</g>
<!-- Node1&#45;&gt;Node3 -->
<g id="edge2" class="edge">
<title>Node1&#45;&gt;Node3</title>
<path fill="none" stroke="midnightblue" d="M141.07,-168.4C134.74,-159.84 126.63,-148.87 119.97,-139.86"/>
<polygon fill="midnightblue" stroke="midnightblue" points="122.66,-137.62 113.9,-131.66 117.03,-141.78 122.66,-137.62"/>
</g>
<!-- Node4 -->
<g id="node4" class="node">
<title>Node4</title>
<g id="a_node4"><a xlink:href="VortexConfig_8h.html" target="_top" target="_top" xlink:title=" ">
<polygon fill="none" stroke="black" points="136,-56.5 136,-75.5 233,-75.5 233,-56.5 136,-56.5"/>
<text text-anchor="middle" x="184.5" y="-63.5" font-family="Helvetica,sans-Serif" font-size="10.00">../VortexConfig.h</text>
</a>
</g>
</g>
<!-- Node1&#45;&gt;Node4 -->
<g id="edge7" class="edge">
<title>Node1&#45;&gt;Node4</title>
<path fill="none" stroke="midnightblue" d="M160.74,-168.08C166.55,-158.3 173.65,-144.85 177.5,-132 182.04,-116.86 183.71,-98.97 184.29,-85.79"/>
<polygon fill="midnightblue" stroke="midnightblue" points="187.8,-85.7 184.57,-75.61 180.8,-85.51 187.8,-85.7"/>
</g>
<!-- Node6 -->
<g id="node6" class="node">
<title>Node6</title>
<g id="a_node6"><a xlink:title=" ">
<polygon fill="none" stroke="#bfbfbf" points="225,-112.5 225,-131.5 272,-131.5 272,-112.5 225,-112.5"/>
<text text-anchor="middle" x="248.5" y="-119.5" font-family="Helvetica,sans-Serif" font-size="10.00">vector</text>
</a>
</g>
</g>
<!-- Node1&#45;&gt;Node6 -->
<g id="edge8" class="edge">
<title>Node1&#45;&gt;Node6</title>
<path fill="none" stroke="midnightblue" d="M174.49,-168.4C189.89,-158.95 210.09,-146.56 225.5,-137.11"/>
<polygon fill="midnightblue" stroke="midnightblue" points="227.69,-139.87 234.39,-131.66 224.03,-133.9 227.69,-139.87"/>
</g>
<!-- Node3&#45;&gt;Node2 -->
<g id="edge3" class="edge">
<title>Node3&#45;&gt;Node2</title>
<path fill="none" stroke="midnightblue" d="M95.45,-112.32C84.04,-104.11 66.67,-91.6 53.07,-81.81"/>
<polygon fill="midnightblue" stroke="midnightblue" points="54.93,-78.84 44.77,-75.83 50.84,-84.52 54.93,-78.84"/>
</g>
<!-- Node3&#45;&gt;Node4 -->
<g id="edge4" class="edge">
<title>Node3&#45;&gt;Node4</title>
<path fill="none" stroke="midnightblue" d="M119.87,-112.32C131.66,-104.06 149.63,-91.45 163.64,-81.63"/>
<polygon fill="midnightblue" stroke="midnightblue" points="165.98,-84.26 172.16,-75.65 161.96,-78.53 165.98,-84.26"/>
</g>
<!-- Node5 -->
<g id="node5" class="node">
<title>Node5</title>
<g id="a_node5"><a xlink:href="ColorConstants_8h.html" target="_top" target="_top" xlink:title=" ">
<polygon fill="none" stroke="black" points="78.5,-0.5 78.5,-19.5 212.5,-19.5 212.5,-0.5 78.5,-0.5"/>
<text text-anchor="middle" x="145.5" y="-7.5" font-family="Helvetica,sans-Serif" font-size="10.00">Colors/ColorConstants.h</text>
</a>
</g>
</g>
<!-- Node3&#45;&gt;Node5 -->
<g id="edge6" class="edge">
<title>Node3&#45;&gt;Node5</title>
<path fill="none" stroke="midnightblue" d="M109.99,-112.09C113.57,-99.5 120.5,-75.82 127.5,-56 130.69,-46.96 134.61,-37.06 137.97,-28.85"/>
<polygon fill="midnightblue" stroke="midnightblue" points="141.23,-30.12 141.84,-19.55 134.77,-27.44 141.23,-30.12"/>
</g>
<!-- Node4&#45;&gt;Node5 -->
<g id="edge5" class="edge">
<title>Node4&#45;&gt;Node5</title>
<path fill="none" stroke="midnightblue" d="M178.06,-56.08C172.55,-48.46 164.47,-37.26 157.74,-27.94"/>
<polygon fill="midnightblue" stroke="midnightblue" points="160.51,-25.81 151.82,-19.75 154.84,-29.91 160.51,-25.81"/>
</g>
</g>
</svg>
