<?xml version="1.0" encoding="UTF-8" standalone="no"?>
<!DOCTYPE svg PUBLIC "-//W3C//DTD SVG 1.1//EN"
 "http://www.w3.org/Graphics/SVG/1.1/DTD/svg11.dtd">
<!-- Generated by graphviz version 2.43.0 (0)
 -->
<!-- Title: VortexEngine/src/Leds/Leds.cpp Pages: 1 -->
<!--zoomable 375 -->
<svg id="main" version="1.1" xmlns="http://www.w3.org/2000/svg" xmlns:xlink="http://www.w3.org/1999/xlink" xml:space="preserve" onload="init(evt)">
<style type="text/css"><![CDATA[
.edge:hover path { stroke: red; }
.edge:hover polygon { stroke: red; fill: red; }
]]></style>
<script type="text/javascript"><![CDATA[
var edges = document.getElementsByTagName('g');
if (edges && edges.length) {
  for (var i=0;i<edges.length;i++) {
    if (edges[i].id.substr(0,4)=='edge') {
      edges[i].setAttribute('class','edge');
    }
  }
}
]]></script>
        <defs>
                <circle id="rim" cx="0" cy="0" r="7"/>
                <circle id="rim2" cx="0" cy="0" r="3.5"/>
                <g id="zoomPlus">
                        <use xlink:href="#rim" fill="#404040">
                                <set attributeName="fill" to="#808080" begin="zoomplus.mouseover" end="zoomplus.mouseout"/>
                        </use>
                        <path d="M-4,0h8M0,-4v8" fill="none" stroke="white" stroke-width="1.5" pointer-events="none"/>
                </g>
                <g id="zoomMin">
                        <use xlink:href="#rim" fill="#404040">
                                <set attributeName="fill" to="#808080" begin="zoomminus.mouseover" end="zoomminus.mouseout"/>
                        </use>
                        <path d="M-4,0h8" fill="none" stroke="white" stroke-width="1.5" pointer-events="none"/>
                </g>
                <g id="dirArrow">
                        <path fill="none" stroke="white" stroke-width="1.5" d="M0,-3.0v7 M-2.5,-0.5L0,-3.0L2.5,-0.5"/>
                </g>
               <g id="resetDef">
                       <use xlink:href="#rim2" fill="#404040">
                               <set attributeName="fill" to="#808080" begin="reset.mouseover" end="reset.mouseout"/>
                       </use>
               </g>
        </defs>

<script type="text/javascript">
var viewWidth = 1001;
var viewHeight = 375;
var sectionId = 'dynsection-0';
</script>
<script xlink:href="svgpan.js"/>
<svg id="graph" class="graph">
<g id="viewport">
<title>VortexEngine/src/Leds/Leds.cpp</title>
<!-- Node1 -->
<g id="node1" class="node">
<title>Node1</title>
<g id="a_node1"><a xlink:title=" ">
<polygon fill="#bfbfbf" stroke="black" points="169.5,-336.5 169.5,-366.5 293.5,-366.5 293.5,-336.5 169.5,-336.5"/>
<text text-anchor="start" x="177.5" y="-354.5" font-family="Helvetica,sans-Serif" font-size="10.00">VortexEngine/src/Leds</text>
<text text-anchor="middle" x="231.5" y="-343.5" font-family="Helvetica,sans-Serif" font-size="10.00">/Leds.cpp</text>
</a>
</g>
</g>
<!-- Node2 -->
<g id="node2" class="node">
<title>Node2</title>
<g id="a_node2"><a xlink:title=" ">
<polygon fill="none" stroke="#bfbfbf" points="0,-280.5 0,-299.5 51,-299.5 51,-280.5 0,-280.5"/>
<text text-anchor="middle" x="25.5" y="-287.5" font-family="Helvetica,sans-Serif" font-size="10.00">math.h</text>
</a>
</g>
</g>
<!-- Node1&#45;&gt;Node2 -->
<g id="edge1" class="edge">
<title>Node1&#45;&gt;Node2</title>
<path fill="none" stroke="midnightblue" d="M182.94,-336.47C145.54,-325.67 94.69,-310.98 61.02,-301.26"/>
<polygon fill="midnightblue" stroke="midnightblue" points="61.73,-297.82 51.15,-298.41 59.79,-304.55 61.73,-297.82"/>
</g>
<!-- Node3 -->
<g id="node3" class="node">
<title>Node3</title>
<g id="a_node3"><a xlink:href="LedStash_8h.html" target="_top" xlink:title=" ">
<polygon fill="none" stroke="black" points="156.5,-280.5 156.5,-299.5 226.5,-299.5 226.5,-280.5 156.5,-280.5"/>
<text text-anchor="middle" x="191.5" y="-287.5" font-family="Helvetica,sans-Serif" font-size="10.00">LedStash.h</text>
</a>
</g>
</g>
<!-- Node1&#45;&gt;Node3 -->
<g id="edge2" class="edge">
<title>Node1&#45;&gt;Node3</title>
<path fill="none" stroke="midnightblue" d="M222.02,-336.4C216.33,-327.93 209.05,-317.1 203.02,-308.14"/>
<polygon fill="midnightblue" stroke="midnightblue" points="205.8,-306 197.32,-299.66 199.99,-309.91 205.8,-306"/>
</g>
<!-- Node6 -->
<g id="node6" class="node">
<title>Node6</title>
<g id="a_node6"><a xlink:href="VortexConfig_8h.html" target="_top" xlink:title=" ">
<polygon fill="none" stroke="black" points="313,-56.5 313,-75.5 410,-75.5 410,-56.5 313,-56.5"/>
<text text-anchor="middle" x="361.5" y="-63.5" font-family="Helvetica,sans-Serif" font-size="10.00">../VortexConfig.h</text>
</a>
</g>
</g>
<!-- Node1&#45;&gt;Node6 -->
<g id="edge38" class="edge">
<title>Node1&#45;&gt;Node6</title>
<path fill="none" stroke="midnightblue" d="M183.82,-336.48C139.25,-320.09 79.5,-288.19 79.5,-235 79.5,-235 79.5,-235 79.5,-177 79.5,-146.9 76.03,-132.02 98.5,-112 127.94,-85.76 234.55,-74.52 302.66,-69.93"/>
<polygon fill="midnightblue" stroke="midnightblue" points="303.08,-73.41 312.83,-69.28 302.63,-66.43 303.08,-73.41"/>
</g>
<!-- Node10 -->
<g id="node10" class="node">
<title>Node10</title>
<g id="a_node10"><a xlink:href="Leds_8h.html" target="_top" xlink:title=" ">
<polygon fill="none" stroke="black" points="250,-168.5 250,-187.5 333,-187.5 333,-168.5 250,-168.5"/>
<text text-anchor="middle" x="291.5" y="-175.5" font-family="Helvetica,sans-Serif" font-size="10.00">../Leds/Leds.h</text>
</a>
</g>
</g>
<!-- Node1&#45;&gt;Node10 -->
<g id="edge18" class="edge">
<title>Node1&#45;&gt;Node10</title>
<path fill="none" stroke="midnightblue" d="M236.41,-336.47C247.22,-305.57 273.07,-231.69 285.11,-197.25"/>
<polygon fill="midnightblue" stroke="midnightblue" points="288.51,-198.15 288.51,-187.56 281.9,-195.84 288.51,-198.15"/>
</g>
<!-- Node12 -->
<g id="node12" class="node">
<title>Node12</title>
<g id="a_node12"><a xlink:href="TimeControl_8h.html" target="_top" xlink:title=" ">
<polygon fill="none" stroke="black" points="414.5,-280.5 414.5,-299.5 536.5,-299.5 536.5,-280.5 414.5,-280.5"/>
<text text-anchor="middle" x="475.5" y="-287.5" font-family="Helvetica,sans-Serif" font-size="10.00">../Time/TimeControl.h</text>
</a>
</g>
</g>
<!-- Node1&#45;&gt;Node12 -->
<g id="edge19" class="edge">
<title>Node1&#45;&gt;Node12</title>
<path fill="none" stroke="midnightblue" d="M289.02,-336.47C332.31,-325.92 390.8,-311.66 430.65,-301.94"/>
<polygon fill="midnightblue" stroke="midnightblue" points="431.73,-305.28 440.62,-299.51 430.07,-298.48 431.73,-305.28"/>
</g>
<!-- Node13 -->
<g id="node13" class="node">
<title>Node13</title>
<g id="a_node13"><a xlink:href="Modes_8h.html" target="_top" xlink:title=" ">
<polygon fill="none" stroke="black" points="294.5,-280.5 294.5,-299.5 396.5,-299.5 396.5,-280.5 294.5,-280.5"/>
<text text-anchor="middle" x="345.5" y="-287.5" font-family="Helvetica,sans-Serif" font-size="10.00">../Modes/Modes.h</text>
</a>
</g>
</g>
<!-- Node1&#45;&gt;Node13 -->
<g id="edge23" class="edge">
<title>Node1&#45;&gt;Node13</title>
<path fill="none" stroke="midnightblue" d="M258.52,-336.4C277.13,-326.68 301.71,-313.86 319.99,-304.31"/>
<polygon fill="midnightblue" stroke="midnightblue" points="321.67,-307.39 328.91,-299.66 318.43,-301.18 321.67,-307.39"/>
</g>
<!-- Node4 -->
<g id="node4" class="node">
<title>Node4</title>
<g id="a_node4"><a xlink:href="ColorTypes_8h.html" target="_top" xlink:title=" ">
<polygon fill="none" stroke="black" points="173.5,-112.5 173.5,-131.5 295.5,-131.5 295.5,-112.5 173.5,-112.5"/>
<text text-anchor="middle" x="234.5" y="-119.5" font-family="Helvetica,sans-Serif" font-size="10.00">../Colors/ColorTypes.h</text>
</a>
</g>
</g>
<!-- Node3&#45;&gt;Node4 -->
<g id="edge3" class="edge">
<title>Node3&#45;&gt;Node4</title>
<path fill="none" stroke="midnightblue" d="M191.45,-280.21C191.6,-259.87 193.46,-208.21 207.5,-168 210.91,-158.23 216.61,-148.27 221.89,-140.22"/>
<polygon fill="midnightblue" stroke="midnightblue" points="224.93,-141.97 227.75,-131.76 219.18,-137.99 224.93,-141.97"/>
</g>
<!-- Node8 -->
<g id="node8" class="node">
<title>Node8</title>
<g id="a_node8"><a xlink:href="LedTypes_8h.html" target="_top" xlink:title=" ">
<polygon fill="none" stroke="black" points="376,-224.5 376,-243.5 447,-243.5 447,-224.5 376,-224.5"/>
<text text-anchor="middle" x="411.5" y="-231.5" font-family="Helvetica,sans-Serif" font-size="10.00">LedTypes.h</text>
</a>
</g>
</g>
<!-- Node3&#45;&gt;Node8 -->
<g id="edge8" class="edge">
<title>Node3&#45;&gt;Node8</title>
<path fill="none" stroke="midnightblue" d="M226.36,-280.44C264.42,-271.1 325.46,-256.12 366.96,-245.93"/>
<polygon fill="midnightblue" stroke="midnightblue" points="367.93,-249.3 376.8,-243.52 366.26,-242.5 367.93,-249.3"/>
</g>
<!-- Node11 -->
<g id="node11" class="node">
<title>Node11</title>
<g id="a_node11"><a xlink:title=" ">
<polygon fill="none" stroke="#bfbfbf" points="108,-112.5 108,-131.5 155,-131.5 155,-112.5 108,-112.5"/>
<text text-anchor="middle" x="131.5" y="-119.5" font-family="Helvetica,sans-Serif" font-size="10.00">vector</text>
</a>
</g>
</g>
<!-- Node3&#45;&gt;Node11 -->
<g id="edge17" class="edge">
<title>Node3&#45;&gt;Node11</title>
<path fill="none" stroke="midnightblue" d="M188.27,-280.08C178.79,-253.83 150.85,-176.55 138.05,-141.12"/>
<polygon fill="midnightblue" stroke="midnightblue" points="141.29,-139.78 134.6,-131.57 134.7,-142.16 141.29,-139.78"/>
</g>
<!-- Node5 -->
<g id="node5" class="node">
<title>Node5</title>
<g id="a_node5"><a xlink:title=" ">
<polygon fill="none" stroke="#bfbfbf" points="742,-56.5 742,-75.5 807,-75.5 807,-56.5 742,-56.5"/>
<text text-anchor="middle" x="774.5" y="-63.5" font-family="Helvetica,sans-Serif" font-size="10.00">inttypes.h</text>
</a>
</g>
</g>
<!-- Node4&#45;&gt;Node5 -->
<g id="edge4" class="edge">
<title>Node4&#45;&gt;Node5</title>
<path fill="none" stroke="midnightblue" d="M295.66,-114.88C406.11,-103.84 636.25,-80.83 731.64,-71.29"/>
<polygon fill="midnightblue" stroke="midnightblue" points="732.19,-74.75 741.79,-70.27 731.49,-67.78 732.19,-74.75"/>
</g>
<!-- Node4&#45;&gt;Node6 -->
<g id="edge5" class="edge">
<title>Node4&#45;&gt;Node6</title>
<path fill="none" stroke="midnightblue" d="M254.62,-112.44C275.52,-103.56 308.43,-89.56 332.22,-79.45"/>
<polygon fill="midnightblue" stroke="midnightblue" points="333.64,-82.65 341.47,-75.52 330.9,-76.21 333.64,-82.65"/>
</g>
<!-- Node7 -->
<g id="node7" class="node">
<title>Node7</title>
<g id="a_node7"><a xlink:href="ColorConstants_8h.html" target="_top" xlink:title=" ">
<polygon fill="none" stroke="black" points="243.5,-0.5 243.5,-19.5 377.5,-19.5 377.5,-0.5 243.5,-0.5"/>
<text text-anchor="middle" x="310.5" y="-7.5" font-family="Helvetica,sans-Serif" font-size="10.00">Colors/ColorConstants.h</text>
</a>
</g>
</g>
<!-- Node4&#45;&gt;Node7 -->
<g id="edge7" class="edge">
<title>Node4&#45;&gt;Node7</title>
<path fill="none" stroke="midnightblue" d="M240.46,-112.37C253.01,-94.22 282.31,-51.8 298.76,-27.99"/>
<polygon fill="midnightblue" stroke="midnightblue" points="301.76,-29.81 304.56,-19.59 296,-25.83 301.76,-29.81"/>
</g>
<!-- Node6&#45;&gt;Node7 -->
<g id="edge6" class="edge">
<title>Node6&#45;&gt;Node7</title>
<path fill="none" stroke="midnightblue" d="M353.08,-56.08C345.65,-48.22 334.65,-36.57 325.69,-27.08"/>
<polygon fill="midnightblue" stroke="midnightblue" points="328.18,-24.62 318.76,-19.75 323.09,-29.42 328.18,-24.62"/>
</g>
<!-- Node8&#45;&gt;Node5 -->
<g id="edge9" class="edge">
<title>Node8&#45;&gt;Node5</title>
<path fill="none" stroke="midnightblue" d="M447.11,-229.04C508.06,-221.89 629.61,-205.89 668.5,-188 704.07,-171.64 711.12,-161.81 736.5,-132 748.79,-117.57 759.35,-98.63 766.2,-84.92"/>
<polygon fill="midnightblue" stroke="midnightblue" points="769.49,-86.14 770.68,-75.61 763.19,-83.11 769.49,-86.14"/>
</g>
<!-- Node8&#45;&gt;Node6 -->
<g id="edge16" class="edge">
<title>Node8&#45;&gt;Node6</title>
<path fill="none" stroke="midnightblue" d="M409,-224.48C403.2,-204.7 388.32,-154.15 375.5,-112 372.82,-103.18 369.78,-93.41 367.23,-85.24"/>
<polygon fill="midnightblue" stroke="midnightblue" points="370.55,-84.11 364.22,-75.62 363.87,-86.21 370.55,-84.11"/>
</g>
<!-- Node9 -->
<g id="node9" class="node">
<title>Node9</title>
<g id="a_node9"><a xlink:title=" ">
<polygon fill="none" stroke="#bfbfbf" points="671.5,-112.5 671.5,-131.5 727.5,-131.5 727.5,-112.5 671.5,-112.5"/>
<text text-anchor="middle" x="699.5" y="-119.5" font-family="Helvetica,sans-Serif" font-size="10.00">stdarg.h</text>
</a>
</g>
</g>
<!-- Node8&#45;&gt;Node9 -->
<g id="edge10" class="edge">
<title>Node8&#45;&gt;Node9</title>
<path fill="none" stroke="midnightblue" d="M447.39,-228.88C503.69,-221.95 609.73,-206.83 642.5,-188 662.35,-176.59 678.79,-155.69 688.83,-140.67"/>
<polygon fill="midnightblue" stroke="midnightblue" points="692.06,-142.12 694.47,-131.8 686.15,-138.36 692.06,-142.12"/>
</g>
<!-- Node8&#45;&gt;Node10 -->
<g id="edge11" class="edge">
<title>Node8&#45;&gt;Node10</title>
<path fill="none" stroke="midnightblue" d="M392.49,-224.44C372.91,-215.64 342.19,-201.81 319.77,-191.72"/>
<polygon fill="midnightblue" stroke="midnightblue" points="320.98,-188.43 310.43,-187.52 318.11,-194.81 320.98,-188.43"/>
</g>
<!-- Node10&#45;&gt;Node4 -->
<g id="edge13" class="edge">
<title>Node10&#45;&gt;Node4</title>
<path fill="none" stroke="midnightblue" d="M282.34,-168.32C274,-160.42 261.47,-148.55 251.32,-138.94"/>
<polygon fill="midnightblue" stroke="midnightblue" points="253.49,-136.17 243.82,-131.83 248.68,-141.25 253.49,-136.17"/>
</g>
<!-- Node10&#45;&gt;Node5 -->
<g id="edge12" class="edge">
<title>Node10&#45;&gt;Node5</title>
<path fill="none" stroke="midnightblue" d="M320.25,-168.45C365.25,-155.25 455.17,-129.59 532.5,-112 601.8,-96.24 683.18,-81.97 731.71,-73.9"/>
<polygon fill="midnightblue" stroke="midnightblue" points="732.55,-77.31 741.84,-72.22 731.41,-70.4 732.55,-77.31"/>
</g>
<!-- Node10&#45;&gt;Node6 -->
<g id="edge14" class="edge">
<title>Node10&#45;&gt;Node6</title>
<path fill="none" stroke="midnightblue" d="M296.99,-168.37C308.49,-150.3 335.3,-108.18 350.49,-84.31"/>
<polygon fill="midnightblue" stroke="midnightblue" points="353.62,-85.91 356.03,-75.59 347.71,-82.15 353.62,-85.91"/>
</g>
<!-- Node10&#45;&gt;Node11 -->
<g id="edge15" class="edge">
<title>Node10&#45;&gt;Node11</title>
<path fill="none" stroke="midnightblue" d="M266.15,-168.44C238.76,-159.2 194.99,-144.43 164.83,-134.25"/>
<polygon fill="midnightblue" stroke="midnightblue" points="165.76,-130.87 155.17,-130.99 163.52,-137.5 165.76,-130.87"/>
</g>
<!-- Node12&#45;&gt;Node5 -->
<g id="edge20" class="edge">
<title>Node12&#45;&gt;Node5</title>
<path fill="none" stroke="midnightblue" d="M536.88,-287.46C662.07,-282.75 939.03,-263.8 985.5,-188 1027.47,-119.54 890.68,-86.03 817.53,-73.31"/>
<polygon fill="midnightblue" stroke="midnightblue" points="817.67,-69.79 807.23,-71.58 816.51,-76.69 817.67,-69.79"/>
</g>
<!-- Node12&#45;&gt;Node6 -->
<g id="edge21" class="edge">
<title>Node12&#45;&gt;Node6</title>
<path fill="none" stroke="midnightblue" d="M473.47,-280.38C470.36,-267.73 463.88,-243.53 455.5,-224 432.31,-169.97 393.52,-112 373.81,-84.03"/>
<polygon fill="midnightblue" stroke="midnightblue" points="376.56,-81.86 367.9,-75.75 370.85,-85.92 376.56,-81.86"/>
</g>
<!-- Node12&#45;&gt;Node8 -->
<g id="edge22" class="edge">
<title>Node12&#45;&gt;Node8</title>
<path fill="none" stroke="midnightblue" d="M465.22,-280.32C455.66,-272.26 441.22,-260.08 429.72,-250.37"/>
<polygon fill="midnightblue" stroke="midnightblue" points="431.87,-247.61 421.97,-243.83 427.36,-252.96 431.87,-247.61"/>
</g>
<!-- Node13&#45;&gt;Node4 -->
<g id="edge32" class="edge">
<title>Node13&#45;&gt;Node4</title>
<path fill="none" stroke="midnightblue" d="M331.57,-280.48C308.08,-265.23 261.12,-230.85 240.5,-188 233.59,-173.64 232.46,-155.44 232.85,-141.96"/>
<polygon fill="midnightblue" stroke="midnightblue" points="236.34,-142.11 233.43,-131.92 229.36,-141.7 236.34,-142.11"/>
</g>
<!-- Node13&#45;&gt;Node5 -->
<g id="edge37" class="edge">
<title>Node13&#45;&gt;Node5</title>
<path fill="none" stroke="midnightblue" d="M396.56,-281.3C399.58,-280.85 402.58,-280.42 405.5,-280 579.21,-255.04 682.1,-326.79 789.5,-188 810.35,-161.06 808.05,-144.98 799.5,-112 796.95,-102.18 791.75,-92.21 786.74,-84.17"/>
<polygon fill="midnightblue" stroke="midnightblue" points="789.58,-82.11 781.13,-75.73 783.75,-85.99 789.58,-82.11"/>
</g>
<!-- Node13&#45;&gt;Node6 -->
<g id="edge36" class="edge">
<title>Node13&#45;&gt;Node6</title>
<path fill="none" stroke="midnightblue" d="M346.13,-280.3C348.48,-247.63 356.82,-131.87 360.13,-85.96"/>
<polygon fill="midnightblue" stroke="midnightblue" points="363.63,-86.11 360.86,-75.88 356.65,-85.61 363.63,-86.11"/>
</g>
<!-- Node13&#45;&gt;Node10 -->
<g id="edge35" class="edge">
<title>Node13&#45;&gt;Node10</title>
<path fill="none" stroke="midnightblue" d="M341.26,-280.37C332.43,-262.38 311.9,-220.55 300.15,-196.63"/>
<polygon fill="midnightblue" stroke="midnightblue" points="303.27,-195.03 295.72,-187.59 296.98,-198.11 303.27,-195.03"/>
</g>
<!-- Node14 -->
<g id="node14" class="node">
<title>Node14</title>
<g id="a_node14"><a xlink:href="ByteStream_8h.html" target="_top" xlink:title=" ">
<polygon fill="none" stroke="black" points="536,-224.5 536,-243.5 659,-243.5 659,-224.5 536,-224.5"/>
<text text-anchor="middle" x="597.5" y="-231.5" font-family="Helvetica,sans-Serif" font-size="10.00">../Serial/ByteStream.h</text>
</a>
</g>
</g>
<!-- Node13&#45;&gt;Node14 -->
<g id="edge24" class="edge">
<title>Node13&#45;&gt;Node14</title>
<path fill="none" stroke="midnightblue" d="M385.43,-280.44C429.39,-271.02 500.13,-255.87 547.68,-245.68"/>
<polygon fill="midnightblue" stroke="midnightblue" points="548.71,-249.03 557.76,-243.52 547.25,-242.19 548.71,-249.03"/>
</g>
<!-- Node17 -->
<g id="node17" class="node">
<title>Node17</title>
<g id="a_node17"><a xlink:href="Patterns_8h.html" target="_top" xlink:title=" ">
<polygon fill="none" stroke="black" points="860,-168.5 860,-187.5 977,-187.5 977,-168.5 860,-168.5"/>
<text text-anchor="middle" x="918.5" y="-175.5" font-family="Helvetica,sans-Serif" font-size="10.00">../Patterns/Patterns.h</text>
</a>
</g>
</g>
<!-- Node13&#45;&gt;Node17 -->
<g id="edge33" class="edge">
<title>Node13&#45;&gt;Node17</title>
<path fill="none" stroke="midnightblue" d="M396.53,-281.11C399.56,-280.71 402.57,-280.34 405.5,-280 502.95,-268.72 755.32,-282.62 845.5,-244 870.24,-233.4 892.35,-210.98 905.59,-195.46"/>
<polygon fill="midnightblue" stroke="midnightblue" points="908.35,-197.61 911.99,-187.66 902.94,-193.17 908.35,-197.61"/>
</g>
<!-- Node14&#45;&gt;Node5 -->
<g id="edge25" class="edge">
<title>Node14&#45;&gt;Node5</title>
<path fill="none" stroke="midnightblue" d="M659,-224.71C702.51,-217.47 755.51,-205.37 769.5,-188 793.04,-158.77 786.19,-111.48 779.88,-85.52"/>
<polygon fill="midnightblue" stroke="midnightblue" points="783.25,-84.58 777.3,-75.81 776.48,-86.38 783.25,-84.58"/>
</g>
<!-- Node15 -->
<g id="node15" class="node">
<title>Node15</title>
<g id="a_node15"><a xlink:href="Log_8h.html" target="_top" xlink:title=" ">
<polygon fill="none" stroke="black" points="561.5,-168.5 561.5,-187.5 633.5,-187.5 633.5,-168.5 561.5,-168.5"/>
<text text-anchor="middle" x="597.5" y="-175.5" font-family="Helvetica,sans-Serif" font-size="10.00">../Log/Log.h</text>
</a>
</g>
</g>
<!-- Node14&#45;&gt;Node15 -->
<g id="edge26" class="edge">
<title>Node14&#45;&gt;Node15</title>
<path fill="none" stroke="midnightblue" d="M597.5,-224.08C597.5,-217.01 597.5,-206.86 597.5,-197.99"/>
<polygon fill="midnightblue" stroke="midnightblue" points="601,-197.75 597.5,-187.75 594,-197.75 601,-197.75"/>
</g>
<!-- Node15&#45;&gt;Node6 -->
<g id="edge28" class="edge">
<title>Node15&#45;&gt;Node6</title>
<path fill="none" stroke="midnightblue" d="M585,-168.32C565.35,-154.94 525.73,-129.06 489.5,-112 460.71,-98.45 426.67,-86.67 400.93,-78.57"/>
<polygon fill="midnightblue" stroke="midnightblue" points="401.74,-75.15 391.15,-75.54 399.67,-81.84 401.74,-75.15"/>
</g>
<!-- Node15&#45;&gt;Node9 -->
<g id="edge27" class="edge">
<title>Node15&#45;&gt;Node9</title>
<path fill="none" stroke="midnightblue" d="M613.89,-168.32C630.17,-159.7 655.37,-146.36 674.22,-136.39"/>
<polygon fill="midnightblue" stroke="midnightblue" points="675.95,-139.43 683.15,-131.65 672.68,-133.24 675.95,-139.43"/>
</g>
<!-- Node16 -->
<g id="node16" class="node">
<title>Node16</title>
<g id="a_node16"><a xlink:href="ErrorBlinker_8h.html" target="_top" xlink:title=" ">
<polygon fill="none" stroke="black" points="542,-112.5 542,-131.5 653,-131.5 653,-112.5 542,-112.5"/>
<text text-anchor="middle" x="597.5" y="-119.5" font-family="Helvetica,sans-Serif" font-size="10.00">../Log/ErrorBlinker.h</text>
</a>
</g>
</g>
<!-- Node15&#45;&gt;Node16 -->
<g id="edge29" class="edge">
<title>Node15&#45;&gt;Node16</title>
<path fill="none" stroke="midnightblue" d="M597.5,-168.08C597.5,-161.01 597.5,-150.86 597.5,-141.99"/>
<polygon fill="midnightblue" stroke="midnightblue" points="601,-141.75 597.5,-131.75 594,-141.75 601,-141.75"/>
</g>
<!-- Node16&#45;&gt;Node5 -->
<g id="edge30" class="edge">
<title>Node16&#45;&gt;Node5</title>
<path fill="none" stroke="midnightblue" d="M625.55,-112.44C655.58,-103.28 703.41,-88.69 736.74,-78.52"/>
<polygon fill="midnightblue" stroke="midnightblue" points="738.04,-81.78 746.59,-75.52 736,-75.09 738.04,-81.78"/>
</g>
<!-- Node16&#45;&gt;Node6 -->
<g id="edge31" class="edge">
<title>Node16&#45;&gt;Node6</title>
<path fill="none" stroke="midnightblue" d="M560.11,-112.44C519.11,-103.06 453.25,-87.99 408.72,-77.8"/>
<polygon fill="midnightblue" stroke="midnightblue" points="409.25,-74.34 398.72,-75.52 407.69,-81.16 409.25,-74.34"/>
</g>
<!-- Node17&#45;&gt;Node5 -->
<g id="edge34" class="edge">
<title>Node17&#45;&gt;Node5</title>
<path fill="none" stroke="midnightblue" d="M909.47,-168.08C896.07,-155.06 869.89,-130.39 845.5,-112 830.4,-100.61 812.39,-89.22 798.29,-80.75"/>
<polygon fill="midnightblue" stroke="midnightblue" points="800.04,-77.72 789.65,-75.63 796.47,-83.74 800.04,-77.72"/>
</g>
</g>
</svg>
        <g id="navigator" transform="translate(0 0)" fill="#404254">
                <rect fill="#f2f5e9" fill-opacity="0.5" stroke="#606060" stroke-width=".5" x="0" y="0" width="60" height="60"/>
                <use id="zoomplus" xlink:href="#zoomPlus" x="17" y="9" onmousedown="handleZoom(evt,'in')"/>
                <use id="zoomminus" xlink:href="#zoomMin" x="42" y="9" onmousedown="handleZoom(evt,'out')"/>
                <use id="reset" xlink:href="#resetDef" x="30" y="36" onmousedown="handleReset()"/>
                <g id="arrowUp" xlink:href="#dirArrow" transform="translate(30 24)" onmousedown="handlePan(0,-1)">
                  <use xlink:href="#rim" fill="#404040">
                        <set attributeName="fill" to="#808080" begin="arrowUp.mouseover" end="arrowUp.mouseout"/>
                  </use>
                  <path fill="none" stroke="white" stroke-width="1.5" d="M0,-3.0v7 M-2.5,-0.5L0,-3.0L2.5,-0.5"/>
                </g>
                <g id="arrowRight" xlink:href="#dirArrow" transform="rotate(90) translate(36 -43)" onmousedown="handlePan(1,0)">
                  <use xlink:href="#rim" fill="#404040">
                        <set attributeName="fill" to="#808080" begin="arrowRight.mouseover" end="arrowRight.mouseout"/>
                  </use>
                  <path fill="none" stroke="white" stroke-width="1.5" d="M0,-3.0v7 M-2.5,-0.5L0,-3.0L2.5,-0.5"/>
                </g>
                <g id="arrowDown" xlink:href="#dirArrow" transform="rotate(180) translate(-30 -48)" onmousedown="handlePan(0,1)">
                  <use xlink:href="#rim" fill="#404040">
                        <set attributeName="fill" to="#808080" begin="arrowDown.mouseover" end="arrowDown.mouseout"/>
                  </use>
                  <path fill="none" stroke="white" stroke-width="1.5" d="M0,-3.0v7 M-2.5,-0.5L0,-3.0L2.5,-0.5"/>
                </g>
                <g id="arrowLeft" xlink:href="#dirArrow" transform="rotate(270) translate(-36 17)" onmousedown="handlePan(-1,0)">
                  <use xlink:href="#rim" fill="#404040">
                        <set attributeName="fill" to="#808080" begin="arrowLeft.mouseover" end="arrowLeft.mouseout"/>
                  </use>
                  <path fill="none" stroke="white" stroke-width="1.5" d="M0,-3.0v7 M-2.5,-0.5L0,-3.0L2.5,-0.5"/>
                </g>
        </g>
        <svg viewBox="0 0 15 15" width="100%" height="30px" preserveAspectRatio="xMaxYMin meet">
         <g id="arrow_out" transform="scale(0.3 0.3)">
          <a xlink:href="Leds_8cpp__incl_org.svg" target="_base">
           <rect id="button" ry="5" rx="5" y="6" x="6" height="38" width="38"
                fill="#f2f5e9" fill-opacity="0.5" stroke="#606060" stroke-width="1.0"/>
           <path id="arrow"
             d="M 11.500037,31.436501 C 11.940474,20.09759 22.043105,11.32322 32.158766,21.979434 L 37.068811,17.246167 C 37.068811,17.246167 37.088388,32 37.088388,32 L 22.160133,31.978069 C 22.160133,31.978069 26.997745,27.140456 26.997745,27.140456 C 18.528582,18.264221 13.291696,25.230495 11.500037,31.436501 z"
             style="fill:#404040;"/>
          </a>
         </g>
        </svg>
</svg>
