<?xml version="1.0" encoding="UTF-8" standalone="no"?>
<!DOCTYPE svg PUBLIC "-//W3C//DTD SVG 1.1//EN"
 "http://www.w3.org/Graphics/SVG/1.1/DTD/svg11.dtd">
<!-- Generated by graphviz version 2.43.0 (0)
 -->
<!-- Title: VortexEngine/src/Menus/Menus.h Pages: 1 -->
<svg width="7393pt" height="162pt"
 viewBox="0.00 0.00 7393.00 162.00" xmlns="http://www.w3.org/2000/svg" xmlns:xlink="http://www.w3.org/1999/xlink">
<g id="graph0" class="graph" transform="scale(1 1) rotate(0) translate(4 158)">
<title>VortexEngine/src/Menus/Menus.h</title>
<!-- Node1 -->
<g id="node1" class="node">
<title>Node1</title>
<g id="a_node1"><a xlink:title=" ">
<polygon fill="#bfbfbf" stroke="black" points="511,-123.5 511,-153.5 645,-153.5 645,-123.5 511,-123.5"/>
<text text-anchor="start" x="519" y="-141.5" font-family="Helvetica,sans-Serif" font-size="10.00">VortexEngine/src/Menus</text>
<text text-anchor="middle" x="578" y="-130.5" font-family="Helvetica,sans-Serif" font-size="10.00">/Menus.h</text>
</a>
</g>
</g>
<!-- Node2 -->
<g id="node2" class="node">
<title>Node2</title>
<g id="a_node2"><a xlink:href="Menu_8cpp.html" target="_top" xlink:title=" ">
<polygon fill="none" stroke="black" points="0,-0.5 0,-30.5 134,-30.5 134,-0.5 0,-0.5"/>
<text text-anchor="start" x="8" y="-18.5" font-family="Helvetica,sans-Serif" font-size="10.00">VortexEngine/src/Menus</text>
<text text-anchor="middle" x="67" y="-7.5" font-family="Helvetica,sans-Serif" font-size="10.00">/Menu.cpp</text>
</a>
</g>
</g>
<!-- Node1&#45;&gt;Node2 -->
<g id="edge1" class="edge">
<title>Node1&#45;&gt;Node2</title>
<path fill="none" stroke="midnightblue" d="M508.83,-121.12C407.76,-97.19 221.46,-53.07 126.31,-30.54"/>
<polygon fill="midnightblue" stroke="midnightblue" points="508.09,-124.54 518.63,-123.44 509.71,-117.73 508.09,-124.54"/>
</g>
<!-- Node3 -->
<g id="node3" class="node">
<title>Node3</title>
<g id="a_node3"><a xlink:href="ColorSelect_8cpp.html" target="_top" xlink:title=" ">
<polygon fill="none" stroke="black" points="152.5,-0.5 152.5,-30.5 295.5,-30.5 295.5,-0.5 152.5,-0.5"/>
<text text-anchor="start" x="160.5" y="-18.5" font-family="Helvetica,sans-Serif" font-size="10.00">VortexEngine/src/Menus</text>
<text text-anchor="middle" x="224" y="-7.5" font-family="Helvetica,sans-Serif" font-size="10.00">/MenuList/ColorSelect.cpp</text>
</a>
</g>
</g>
<!-- Node1&#45;&gt;Node3 -->
<g id="edge2" class="edge">
<title>Node1&#45;&gt;Node3</title>
<path fill="none" stroke="midnightblue" d="M527.11,-120.11C456.46,-95.96 330.02,-52.74 265.04,-30.53"/>
<polygon fill="midnightblue" stroke="midnightblue" points="526.1,-123.46 536.7,-123.38 528.37,-116.84 526.1,-123.46"/>
</g>
<!-- Node4 -->
<g id="node4" class="node">
<title>Node4</title>
<g id="a_node4"><a xlink:href="GlobalBrightness_8cpp.html" target="_top" xlink:title=" ">
<polygon fill="none" stroke="black" points="314,-0.5 314,-30.5 484,-30.5 484,-0.5 314,-0.5"/>
<text text-anchor="start" x="322" y="-18.5" font-family="Helvetica,sans-Serif" font-size="10.00">VortexEngine/src/Menus</text>
<text text-anchor="middle" x="399" y="-7.5" font-family="Helvetica,sans-Serif" font-size="10.00">/MenuList/GlobalBrightness.cpp</text>
</a>
</g>
</g>
<!-- Node1&#45;&gt;Node4 -->
<g id="edge3" class="edge">
<title>Node1&#45;&gt;Node4</title>
<path fill="none" stroke="midnightblue" d="M548.44,-117.52C512.13,-92.98 451.47,-51.97 419.75,-30.53"/>
<polygon fill="midnightblue" stroke="midnightblue" points="546.87,-120.68 557.12,-123.38 550.79,-114.88 546.87,-120.68"/>
</g>
<!-- Node5 -->
<g id="node5" class="node">
<title>Node5</title>
<g id="a_node5"><a xlink:href="PatternSelect_8cpp.html" target="_top" xlink:title=" ">
<polygon fill="none" stroke="black" points="502,-0.5 502,-30.5 654,-30.5 654,-0.5 502,-0.5"/>
<text text-anchor="start" x="510" y="-18.5" font-family="Helvetica,sans-Serif" font-size="10.00">VortexEngine/src/Menus</text>
<text text-anchor="middle" x="578" y="-7.5" font-family="Helvetica,sans-Serif" font-size="10.00">/MenuList/PatternSelect.cpp</text>
</a>
</g>
</g>
<!-- Node1&#45;&gt;Node5 -->
<g id="edge4" class="edge">
<title>Node1&#45;&gt;Node5</title>
<path fill="none" stroke="midnightblue" d="M578,-113.12C578,-88.44 578,-51.11 578,-30.84"/>
<polygon fill="midnightblue" stroke="midnightblue" points="574.5,-113.14 578,-123.14 581.5,-113.14 574.5,-113.14"/>
</g>
<!-- Node6 -->
<g id="node6" class="node">
<title>Node6</title>
<g id="a_node6"><a xlink:href="Randomizer_8cpp.html" target="_top" xlink:title=" ">
<polygon fill="none" stroke="black" points="672.5,-0.5 672.5,-30.5 817.5,-30.5 817.5,-0.5 672.5,-0.5"/>
<text text-anchor="start" x="680.5" y="-18.5" font-family="Helvetica,sans-Serif" font-size="10.00">VortexEngine/src/Menus</text>
<text text-anchor="middle" x="745" y="-7.5" font-family="Helvetica,sans-Serif" font-size="10.00">/MenuList/Randomizer.cpp</text>
</a>
</g>
</g>
<!-- Node1&#45;&gt;Node6 -->
<g id="edge5" class="edge">
<title>Node1&#45;&gt;Node6</title>
<path fill="none" stroke="midnightblue" d="M606.01,-117.21C639.93,-92.63 696.18,-51.88 725.64,-30.53"/>
<polygon fill="midnightblue" stroke="midnightblue" points="603.53,-114.68 597.48,-123.38 607.64,-120.35 603.53,-114.68"/>
</g>
<!-- Node7 -->
<g id="node7" class="node">
<title>Node7</title>
<g id="a_node7"><a xlink:href="Menus_8cpp.html" target="_top" xlink:title=" ">
<polygon fill="none" stroke="black" points="836,-0.5 836,-30.5 970,-30.5 970,-0.5 836,-0.5"/>
<text text-anchor="start" x="844" y="-18.5" font-family="Helvetica,sans-Serif" font-size="10.00">VortexEngine/src/Menus</text>
<text text-anchor="middle" x="903" y="-7.5" font-family="Helvetica,sans-Serif" font-size="10.00">/Menus.cpp</text>
</a>
</g>
</g>
<!-- Node1&#45;&gt;Node7 -->
<g id="edge6" class="edge">
<title>Node1&#45;&gt;Node7</title>
<path fill="none" stroke="midnightblue" d="M625.52,-119.81C690.53,-95.6 805.91,-52.65 865.32,-30.53"/>
<polygon fill="midnightblue" stroke="midnightblue" points="624.07,-116.61 615.92,-123.38 626.51,-123.17 624.07,-116.61"/>
</g>
<!-- Node8 -->
<g id="node8" class="node">
<title>Node8</title>
<g id="a_node8"><a xlink:href="VortexEngine_8h.html" target="_top" xlink:title=" ">
<polygon fill="none" stroke="black" points="3586.5,-67.5 3586.5,-86.5 3761.5,-86.5 3761.5,-67.5 3586.5,-67.5"/>
<text text-anchor="middle" x="3674" y="-74.5" font-family="Helvetica,sans-Serif" font-size="10.00">VortexEngine/src/VortexEngine.h</text>
</a>
</g>
</g>
<!-- Node1&#45;&gt;Node8 -->
<g id="edge7" class="edge">
<title>Node1&#45;&gt;Node8</title>
<path fill="none" stroke="midnightblue" d="M655.22,-136.02C1080.55,-127.84 3134.78,-88.36 3586.17,-79.69"/>
<polygon fill="midnightblue" stroke="midnightblue" points="655.11,-132.52 645.18,-136.21 655.25,-139.52 655.11,-132.52"/>
</g>
<!-- Node8&#45;&gt;Node2 -->
<g id="edge9" class="edge">
<title>Node8&#45;&gt;Node2</title>
<path fill="none" stroke="midnightblue" d="M3575.97,-75.78C3041.69,-74.44 492.18,-66.26 143,-31 140.06,-30.7 137.06,-30.35 134.04,-29.95"/>
<polygon fill="midnightblue" stroke="midnightblue" points="3576.33,-79.28 3586.34,-75.81 3576.35,-72.28 3576.33,-79.28"/>
</g>
<!-- Node8&#45;&gt;Node3 -->
<g id="edge10" class="edge">
<title>Node8&#45;&gt;Node3</title>
<path fill="none" stroke="midnightblue" d="M3576.28,-75.65C3057.56,-73.67 637.43,-62.76 305,-31 302.01,-30.71 298.97,-30.38 295.9,-30"/>
<polygon fill="midnightblue" stroke="midnightblue" points="3576.35,-79.15 3586.36,-75.69 3576.37,-72.15 3576.35,-79.15"/>
</g>
<!-- Node8&#45;&gt;Node4 -->
<g id="edge13" class="edge">
<title>Node8&#45;&gt;Node4</title>
<path fill="none" stroke="midnightblue" d="M3576.12,-75.43C3074.79,-72.38 806.03,-57.23 493,-31 490.12,-30.76 487.2,-30.48 484.24,-30.18"/>
<polygon fill="midnightblue" stroke="midnightblue" points="3576.2,-78.93 3586.22,-75.49 3576.24,-71.93 3576.2,-78.93"/>
</g>
<!-- Node8&#45;&gt;Node5 -->
<g id="edge15" class="edge">
<title>Node8&#45;&gt;Node5</title>
<path fill="none" stroke="midnightblue" d="M3576.27,-75.44C3091.67,-72.52 958.04,-58.21 663,-31 660.17,-30.74 657.29,-30.44 654.38,-30.1"/>
<polygon fill="midnightblue" stroke="midnightblue" points="3576.36,-78.94 3586.38,-75.5 3576.41,-71.94 3576.36,-78.94"/>
</g>
<!-- Node8&#45;&gt;Node6 -->
<g id="edge16" class="edge">
<title>Node8&#45;&gt;Node6</title>
<path fill="none" stroke="midnightblue" d="M3576.29,-75.38C3108.04,-72.29 1104.82,-57.59 827,-31 823.98,-30.71 820.9,-30.37 817.8,-29.99"/>
<polygon fill="midnightblue" stroke="midnightblue" points="3576.38,-78.88 3586.41,-75.45 3576.43,-71.88 3576.38,-78.88"/>
</g>
<!-- Node8&#45;&gt;Node7 -->
<g id="edge17" class="edge">
<title>Node8&#45;&gt;Node7</title>
<path fill="none" stroke="midnightblue" d="M3576.03,-75.35C3122.94,-72.2 1241.67,-57.63 980,-31 976.75,-30.67 973.44,-30.27 970.09,-29.83"/>
<polygon fill="midnightblue" stroke="midnightblue" points="3576.12,-78.85 3586.14,-75.42 3576.17,-71.85 3576.12,-78.85"/>
</g>
<!-- Node9 -->
<g id="node9" class="node">
<title>Node9</title>
<g id="a_node9"><a xlink:href="LedStash_8cpp.html" target="_top" xlink:title=" ">
<polygon fill="none" stroke="black" points="4428,-0.5 4428,-30.5 4552,-30.5 4552,-0.5 4428,-0.5"/>
<text text-anchor="start" x="4436" y="-18.5" font-family="Helvetica,sans-Serif" font-size="10.00">VortexEngine/src/Leds</text>
<text text-anchor="middle" x="4490" y="-7.5" font-family="Helvetica,sans-Serif" font-size="10.00">/LedStash.cpp</text>
</a>
</g>
</g>
<!-- Node8&#45;&gt;Node9 -->
<g id="edge8" class="edge">
<title>Node8&#45;&gt;Node9</title>
<path fill="none" stroke="midnightblue" d="M3771.6,-74.49C3914.34,-71.29 4188.16,-61.39 4419,-31 4421.87,-30.62 4424.8,-30.2 4427.75,-29.73"/>
<polygon fill="midnightblue" stroke="midnightblue" points="3771.47,-70.99 3761.55,-74.71 3771.62,-77.99 3771.47,-70.99"/>
</g>
<!-- Node10 -->
<g id="node10" class="node">
<title>Node10</title>
<g id="a_node10"><a xlink:href="EditorConnection_8cpp.html" target="_top" xlink:title=" ">
<polygon fill="none" stroke="black" points="4570,-0.5 4570,-30.5 4740,-30.5 4740,-0.5 4570,-0.5"/>
<text text-anchor="start" x="4578" y="-18.5" font-family="Helvetica,sans-Serif" font-size="10.00">VortexEngine/src/Menus</text>
<text text-anchor="middle" x="4655" y="-7.5" font-family="Helvetica,sans-Serif" font-size="10.00">/MenuList/EditorConnection.cpp</text>
</a>
</g>
</g>
<!-- Node8&#45;&gt;Node10 -->
<g id="edge11" class="edge">
<title>Node8&#45;&gt;Node10</title>
<path fill="none" stroke="midnightblue" d="M3771.77,-74.31C3935.46,-70.74 4275.16,-60.22 4561,-31 4563.96,-30.7 4566.96,-30.37 4570,-30.01"/>
<polygon fill="midnightblue" stroke="midnightblue" points="3771.65,-70.81 3761.73,-74.52 3771.8,-77.81 3771.65,-70.81"/>
</g>
<!-- Node11 -->
<g id="node11" class="node">
<title>Node11</title>
<g id="a_node11"><a xlink:href="FactoryReset_8cpp.html" target="_top" xlink:title=" ">
<polygon fill="none" stroke="black" points="4758,-0.5 4758,-30.5 4908,-30.5 4908,-0.5 4758,-0.5"/>
<text text-anchor="start" x="4766" y="-18.5" font-family="Helvetica,sans-Serif" font-size="10.00">VortexEngine/src/Menus</text>
<text text-anchor="middle" x="4833" y="-7.5" font-family="Helvetica,sans-Serif" font-size="10.00">/MenuList/FactoryReset.cpp</text>
</a>
</g>
</g>
<!-- Node8&#45;&gt;Node11 -->
<g id="edge12" class="edge">
<title>Node8&#45;&gt;Node11</title>
<path fill="none" stroke="midnightblue" d="M3771.93,-76.12C3961.24,-75.42 4390.39,-69.3 4749,-31 4751.94,-30.69 4754.94,-30.33 4757.96,-29.95"/>
<polygon fill="midnightblue" stroke="midnightblue" points="3771.71,-72.62 3761.72,-76.15 3771.73,-79.62 3771.71,-72.62"/>
</g>
<!-- Node12 -->
<g id="node12" class="node">
<title>Node12</title>
<g id="a_node12"><a xlink:href="ModeSharing_8cpp.html" target="_top" xlink:title=" ">
<polygon fill="none" stroke="black" points="4926.5,-0.5 4926.5,-30.5 5077.5,-30.5 5077.5,-0.5 4926.5,-0.5"/>
<text text-anchor="start" x="4934.5" y="-18.5" font-family="Helvetica,sans-Serif" font-size="10.00">VortexEngine/src/Menus</text>
<text text-anchor="middle" x="5002" y="-7.5" font-family="Helvetica,sans-Serif" font-size="10.00">/MenuList/ModeSharing.cpp</text>
</a>
</g>
</g>
<!-- Node8&#45;&gt;Node12 -->
<g id="edge14" class="edge">
<title>Node8&#45;&gt;Node12</title>
<path fill="none" stroke="midnightblue" d="M3771.77,-76.86C3981.94,-77.75 4492.2,-74.73 4917,-31 4919.98,-30.69 4923.01,-30.35 4926.07,-29.97"/>
<polygon fill="midnightblue" stroke="midnightblue" points="3771.7,-73.36 3761.68,-76.82 3771.67,-80.36 3771.7,-73.36"/>
</g>
<!-- Node13 -->
<g id="node13" class="node">
<title>Node13</title>
<g id="a_node13"><a xlink:href="Mode_8cpp.html" target="_top" xlink:title=" ">
<polygon fill="none" stroke="black" points="5096,-0.5 5096,-30.5 5230,-30.5 5230,-0.5 5096,-0.5"/>
<text text-anchor="start" x="5104" y="-18.5" font-family="Helvetica,sans-Serif" font-size="10.00">VortexEngine/src/Modes</text>
<text text-anchor="middle" x="5163" y="-7.5" font-family="Helvetica,sans-Serif" font-size="10.00">/Mode.cpp</text>
</a>
</g>
</g>
<!-- Node8&#45;&gt;Node13 -->
<g id="edge18" class="edge">
<title>Node8&#45;&gt;Node13</title>
<path fill="none" stroke="midnightblue" d="M3771.98,-74.88C4048.52,-71.4 4831.57,-59.26 5087,-31 5089.94,-30.68 5092.93,-30.3 5095.95,-29.88"/>
<polygon fill="midnightblue" stroke="midnightblue" points="3771.91,-71.38 3761.96,-75 3772,-78.38 3771.91,-71.38"/>
</g>
<!-- Node14 -->
<g id="node14" class="node">
<title>Node14</title>
<g id="a_node14"><a xlink:href="Modes_8cpp.html" target="_top" xlink:title=" ">
<polygon fill="none" stroke="black" points="5248,-0.5 5248,-30.5 5382,-30.5 5382,-0.5 5248,-0.5"/>
<text text-anchor="start" x="5256" y="-18.5" font-family="Helvetica,sans-Serif" font-size="10.00">VortexEngine/src/Modes</text>
<text text-anchor="middle" x="5315" y="-7.5" font-family="Helvetica,sans-Serif" font-size="10.00">/Modes.cpp</text>
</a>
</g>
</g>
<!-- Node8&#45;&gt;Node14 -->
<g id="edge19" class="edge">
<title>Node8&#45;&gt;Node14</title>
<path fill="none" stroke="midnightblue" d="M3771.99,-75.23C4068.42,-72.59 4952.76,-62.22 5239,-31 5241.94,-30.68 5244.93,-30.31 5247.95,-29.89"/>
<polygon fill="midnightblue" stroke="midnightblue" points="3771.67,-71.73 3761.7,-75.32 3771.73,-78.73 3771.67,-71.73"/>
</g>
<!-- Node15 -->
<g id="node15" class="node">
<title>Node15</title>
<g id="a_node15"><a xlink:href="BlinkStepPattern_8cpp.html" target="_top" xlink:title=" ">
<polygon fill="none" stroke="black" points="5400.5,-0.5 5400.5,-30.5 5549.5,-30.5 5549.5,-0.5 5400.5,-0.5"/>
<text text-anchor="start" x="5408.5" y="-18.5" font-family="Helvetica,sans-Serif" font-size="10.00">VortexEngine/src/Patterns</text>
<text text-anchor="middle" x="5475" y="-7.5" font-family="Helvetica,sans-Serif" font-size="10.00">/Multi/BlinkStepPattern.cpp</text>
</a>
</g>
</g>
<!-- Node8&#45;&gt;Node15 -->
<g id="edge20" class="edge">
<title>Node8&#45;&gt;Node15</title>
<path fill="none" stroke="midnightblue" d="M3771.62,-75.3C4086.52,-72.75 5073.41,-62.41 5391,-31 5394.09,-30.69 5397.24,-30.34 5400.42,-29.95"/>
<polygon fill="midnightblue" stroke="midnightblue" points="3771.57,-71.8 3761.6,-75.38 3771.63,-78.8 3771.57,-71.8"/>
</g>
<!-- Node16 -->
<g id="node16" class="node">
<title>Node16</title>
<g id="a_node16"><a xlink:href="BouncePattern_8cpp.html" target="_top" xlink:title=" ">
<polygon fill="none" stroke="black" points="5567.5,-0.5 5567.5,-30.5 5708.5,-30.5 5708.5,-0.5 5567.5,-0.5"/>
<text text-anchor="start" x="5575.5" y="-18.5" font-family="Helvetica,sans-Serif" font-size="10.00">VortexEngine/src/Patterns</text>
<text text-anchor="middle" x="5638" y="-7.5" font-family="Helvetica,sans-Serif" font-size="10.00">/Multi/BouncePattern.cpp</text>
</a>
</g>
</g>
<!-- Node8&#45;&gt;Node16 -->
<g id="edge21" class="edge">
<title>Node8&#45;&gt;Node16</title>
<path fill="none" stroke="midnightblue" d="M3771.87,-75.7C4107.02,-74.36 5207.3,-67.25 5559,-31 5561.77,-30.71 5564.6,-30.38 5567.44,-30.02"/>
<polygon fill="midnightblue" stroke="midnightblue" points="3771.68,-72.2 3761.7,-75.74 3771.71,-79.2 3771.68,-72.2"/>
</g>
<!-- Node17 -->
<g id="node17" class="node">
<title>Node17</title>
<g id="a_node17"><a xlink:href="CompoundPattern_8cpp.html" target="_top" xlink:title=" ">
<polygon fill="none" stroke="black" points="5726.5,-0.5 5726.5,-30.5 5881.5,-30.5 5881.5,-0.5 5726.5,-0.5"/>
<text text-anchor="start" x="5734.5" y="-18.5" font-family="Helvetica,sans-Serif" font-size="10.00">VortexEngine/src/Patterns</text>
<text text-anchor="middle" x="5804" y="-7.5" font-family="Helvetica,sans-Serif" font-size="10.00">/Multi/CompoundPattern.cpp</text>
</a>
</g>
</g>
<!-- Node8&#45;&gt;Node17 -->
<g id="edge22" class="edge">
<title>Node8&#45;&gt;Node17</title>
<path fill="none" stroke="midnightblue" d="M3771.9,-75.73C4125.14,-74.45 5333.43,-67.46 5718,-31 5720.71,-30.74 5723.47,-30.45 5726.25,-30.13"/>
<polygon fill="midnightblue" stroke="midnightblue" points="3771.69,-72.23 3761.7,-75.76 3771.71,-79.23 3771.69,-72.23"/>
</g>
<!-- Node18 -->
<g id="node18" class="node">
<title>Node18</title>
<g id="a_node18"><a xlink:href="CrossDopsPattern_8cpp.html" target="_top" xlink:title=" ">
<polygon fill="none" stroke="black" points="5900,-0.5 5900,-30.5 6054,-30.5 6054,-0.5 5900,-0.5"/>
<text text-anchor="start" x="5908" y="-18.5" font-family="Helvetica,sans-Serif" font-size="10.00">VortexEngine/src/Patterns</text>
<text text-anchor="middle" x="5977" y="-7.5" font-family="Helvetica,sans-Serif" font-size="10.00">/Multi/CrossDopsPattern.cpp</text>
</a>
</g>
</g>
<!-- Node8&#45;&gt;Node18 -->
<g id="edge23" class="edge">
<title>Node8&#45;&gt;Node18</title>
<path fill="none" stroke="midnightblue" d="M3771.92,-75.92C4144.08,-75.34 5470.8,-70.47 5891,-31 5893.86,-30.73 5896.78,-30.42 5899.72,-30.08"/>
<polygon fill="midnightblue" stroke="midnightblue" points="3771.71,-72.42 3761.72,-75.94 3771.72,-79.42 3771.71,-72.42"/>
</g>
<!-- Node19 -->
<g id="node19" class="node">
<title>Node19</title>
<g id="a_node19"><a xlink:href="DoubleStrobePattern_8cpp.html" target="_top" xlink:title=" ">
<polygon fill="none" stroke="black" points="6072,-0.5 6072,-30.5 6240,-30.5 6240,-0.5 6072,-0.5"/>
<text text-anchor="start" x="6080" y="-18.5" font-family="Helvetica,sans-Serif" font-size="10.00">VortexEngine/src/Patterns</text>
<text text-anchor="middle" x="6156" y="-7.5" font-family="Helvetica,sans-Serif" font-size="10.00">/Multi/DoubleStrobePattern.cpp</text>
</a>
</g>
</g>
<!-- Node8&#45;&gt;Node19 -->
<g id="edge24" class="edge">
<title>Node8&#45;&gt;Node19</title>
<path fill="none" stroke="midnightblue" d="M3771.9,-75.93C4162.06,-75.38 5607.02,-70.66 6063,-31 6065.93,-30.75 6068.91,-30.45 6071.91,-30.13"/>
<polygon fill="midnightblue" stroke="midnightblue" points="3771.77,-72.43 3761.77,-75.94 3771.78,-79.43 3771.77,-72.43"/>
</g>
<!-- Node20 -->
<g id="node20" class="node">
<title>Node20</title>
<g id="a_node20"><a xlink:href="DripMorphPattern_8cpp.html" target="_top" xlink:title=" ">
<polygon fill="none" stroke="black" points="6258.5,-0.5 6258.5,-30.5 6411.5,-30.5 6411.5,-0.5 6258.5,-0.5"/>
<text text-anchor="start" x="6266.5" y="-18.5" font-family="Helvetica,sans-Serif" font-size="10.00">VortexEngine/src/Patterns</text>
<text text-anchor="middle" x="6335" y="-7.5" font-family="Helvetica,sans-Serif" font-size="10.00">/Multi/DripMorphPattern.cpp</text>
</a>
</g>
</g>
<!-- Node8&#45;&gt;Node20 -->
<g id="edge25" class="edge">
<title>Node8&#45;&gt;Node20</title>
<path fill="none" stroke="midnightblue" d="M3771.61,-76.25C4180.18,-76.99 5754.64,-76.74 6249,-31 6252.02,-30.72 6255.08,-30.4 6258.18,-30.04"/>
<polygon fill="midnightblue" stroke="midnightblue" points="3771.61,-72.75 3761.6,-76.23 3771.59,-79.75 3771.61,-72.75"/>
</g>
<!-- Node21 -->
<g id="node21" class="node">
<title>Node21</title>
<g id="a_node21"><a xlink:href="DripPattern_8cpp.html" target="_top" xlink:title=" ">
<polygon fill="none" stroke="black" points="6429.5,-0.5 6429.5,-30.5 6570.5,-30.5 6570.5,-0.5 6429.5,-0.5"/>
<text text-anchor="start" x="6437.5" y="-18.5" font-family="Helvetica,sans-Serif" font-size="10.00">VortexEngine/src/Patterns</text>
<text text-anchor="middle" x="6500" y="-7.5" font-family="Helvetica,sans-Serif" font-size="10.00">/Multi/DripPattern.cpp</text>
</a>
</g>
</g>
<!-- Node8&#45;&gt;Node21 -->
<g id="edge26" class="edge">
<title>Node8&#45;&gt;Node21</title>
<path fill="none" stroke="midnightblue" d="M3772,-75.36C4230.59,-72.21 6153.75,-57.53 6421,-31 6423.78,-30.72 6426.6,-30.4 6429.45,-30.05"/>
<polygon fill="midnightblue" stroke="midnightblue" points="3771.74,-71.86 3761.76,-75.43 3771.78,-78.86 3771.74,-71.86"/>
</g>
<!-- Node22 -->
<g id="node22" class="node">
<title>Node22</title>
<g id="a_node22"><a xlink:href="FillPattern_8cpp.html" target="_top" xlink:title=" ">
<polygon fill="none" stroke="black" points="6588.5,-0.5 6588.5,-30.5 6729.5,-30.5 6729.5,-0.5 6588.5,-0.5"/>
<text text-anchor="start" x="6596.5" y="-18.5" font-family="Helvetica,sans-Serif" font-size="10.00">VortexEngine/src/Patterns</text>
<text text-anchor="middle" x="6659" y="-7.5" font-family="Helvetica,sans-Serif" font-size="10.00">/Multi/FillPattern.cpp</text>
</a>
</g>
</g>
<!-- Node8&#45;&gt;Node22 -->
<g id="edge27" class="edge">
<title>Node8&#45;&gt;Node22</title>
<path fill="none" stroke="midnightblue" d="M3771.77,-75.45C4246.08,-72.66 6296.12,-59.05 6580,-31 6582.78,-30.73 6585.6,-30.41 6588.45,-30.05"/>
<polygon fill="midnightblue" stroke="midnightblue" points="3771.51,-71.95 3761.53,-75.51 3771.55,-78.95 3771.51,-71.95"/>
</g>
<!-- Node23 -->
<g id="node23" class="node">
<title>Node23</title>
<g id="a_node23"><a xlink:href="HueShiftPattern_8cpp.html" target="_top" xlink:title=" ">
<polygon fill="none" stroke="black" points="6747.5,-0.5 6747.5,-30.5 6890.5,-30.5 6890.5,-0.5 6747.5,-0.5"/>
<text text-anchor="start" x="6755.5" y="-18.5" font-family="Helvetica,sans-Serif" font-size="10.00">VortexEngine/src/Patterns</text>
<text text-anchor="middle" x="6819" y="-7.5" font-family="Helvetica,sans-Serif" font-size="10.00">/Multi/HueShiftPattern.cpp</text>
</a>
</g>
</g>
<!-- Node8&#45;&gt;Node23 -->
<g id="edge28" class="edge">
<title>Node8&#45;&gt;Node23</title>
<path fill="none" stroke="midnightblue" d="M3771.87,-75.52C4262.05,-73 6438.48,-60.24 6739,-31 6741.67,-30.74 6744.38,-30.44 6747.12,-30.1"/>
<polygon fill="midnightblue" stroke="midnightblue" points="3771.63,-72.02 3761.65,-75.57 3771.66,-79.02 3771.63,-72.02"/>
</g>
<!-- Node24 -->
<g id="node24" class="node">
<title>Node24</title>
<g id="a_node24"><a xlink:href="LighthousePattern_8cpp.html" target="_top" xlink:title=" ">
<polygon fill="none" stroke="black" points="6908.5,-0.5 6908.5,-30.5 7063.5,-30.5 7063.5,-0.5 6908.5,-0.5"/>
<text text-anchor="start" x="6916.5" y="-18.5" font-family="Helvetica,sans-Serif" font-size="10.00">VortexEngine/src/Patterns</text>
<text text-anchor="middle" x="6986" y="-7.5" font-family="Helvetica,sans-Serif" font-size="10.00">/Multi/LighthousePattern.cpp</text>
</a>
</g>
</g>
<!-- Node8&#45;&gt;Node24 -->
<g id="edge29" class="edge">
<title>Node8&#45;&gt;Node24</title>
<path fill="none" stroke="midnightblue" d="M3772.03,-75.53C4277.96,-72.97 6582.48,-59.81 6900,-31 6902.71,-30.75 6905.47,-30.47 6908.25,-30.16"/>
<polygon fill="midnightblue" stroke="midnightblue" points="3771.82,-72.03 3761.84,-75.58 3771.85,-79.03 3771.82,-72.03"/>
</g>
<!-- Node25 -->
<g id="node25" class="node">
<title>Node25</title>
<g id="a_node25"><a xlink:href="MeteorPattern_8cpp.html" target="_top" xlink:title=" ">
<polygon fill="none" stroke="black" points="7081.5,-0.5 7081.5,-30.5 7222.5,-30.5 7222.5,-0.5 7081.5,-0.5"/>
<text text-anchor="start" x="7089.5" y="-18.5" font-family="Helvetica,sans-Serif" font-size="10.00">VortexEngine/src/Patterns</text>
<text text-anchor="middle" x="7152" y="-7.5" font-family="Helvetica,sans-Serif" font-size="10.00">/Multi/MeteorPattern.cpp</text>
</a>
</g>
</g>
<!-- Node8&#45;&gt;Node25 -->
<g id="edge30" class="edge">
<title>Node8&#45;&gt;Node25</title>
<path fill="none" stroke="midnightblue" d="M3771.74,-75.69C4293.29,-73.89 6737.49,-63.78 7073,-31 7075.78,-30.73 7078.6,-30.41 7081.45,-30.06"/>
<polygon fill="midnightblue" stroke="midnightblue" points="3771.6,-72.19 3761.61,-75.72 3771.62,-79.19 3771.6,-72.19"/>
</g>
<!-- Node26 -->
<g id="node26" class="node">
<title>Node26</title>
<g id="a_node26"><a xlink:href="MultiLedPattern_8cpp.html" target="_top" xlink:title=" ">
<polygon fill="none" stroke="black" points="7241,-0.5 7241,-30.5 7385,-30.5 7385,-0.5 7241,-0.5"/>
<text text-anchor="start" x="7249" y="-18.5" font-family="Helvetica,sans-Serif" font-size="10.00">VortexEngine/src/Patterns</text>
<text text-anchor="middle" x="7313" y="-7.5" font-family="Helvetica,sans-Serif" font-size="10.00">/Multi/MultiLedPattern.cpp</text>
</a>
</g>
</g>
<!-- Node8&#45;&gt;Node26 -->
<g id="edge31" class="edge">
<title>Node8&#45;&gt;Node26</title>
<path fill="none" stroke="midnightblue" d="M3771.94,-75.72C4308.45,-74.09 6879.77,-64.52 7232,-31 7234.84,-30.73 7237.74,-30.41 7240.66,-30.06"/>
<polygon fill="midnightblue" stroke="midnightblue" points="3771.9,-72.22 3761.91,-75.75 3771.92,-79.22 3771.9,-72.22"/>
</g>
<!-- Node27 -->
<g id="node27" class="node">
<title>Node27</title>
<g id="a_node27"><a xlink:href="PulsishPattern_8cpp.html" target="_top" xlink:title=" ">
<polygon fill="none" stroke="black" points="988.5,-0.5 988.5,-30.5 1129.5,-30.5 1129.5,-0.5 988.5,-0.5"/>
<text text-anchor="start" x="996.5" y="-18.5" font-family="Helvetica,sans-Serif" font-size="10.00">VortexEngine/src/Patterns</text>
<text text-anchor="middle" x="1059" y="-7.5" font-family="Helvetica,sans-Serif" font-size="10.00">/Multi/PulsishPattern.cpp</text>
</a>
</g>
</g>
<!-- Node8&#45;&gt;Node27 -->
<g id="edge32" class="edge">
<title>Node8&#45;&gt;Node27</title>
<path fill="none" stroke="midnightblue" d="M3576.24,-76.38C3171.38,-77.61 1624.73,-79.01 1139,-31 1135.91,-30.69 1132.76,-30.33 1129.58,-29.93"/>
<polygon fill="midnightblue" stroke="midnightblue" points="3576.46,-79.88 3586.45,-76.34 3576.44,-72.88 3576.46,-79.88"/>
</g>
<!-- Node28 -->
<g id="node28" class="node">
<title>Node28</title>
<g id="a_node28"><a xlink:href="ChaserPattern_8cpp.html" target="_top" xlink:title=" ">
<polygon fill="none" stroke="black" points="1148,-0.5 1148,-30.5 1338,-30.5 1338,-0.5 1148,-0.5"/>
<text text-anchor="start" x="1156" y="-18.5" font-family="Helvetica,sans-Serif" font-size="10.00">VortexEngine/src/Patterns</text>
<text text-anchor="middle" x="1243" y="-7.5" font-family="Helvetica,sans-Serif" font-size="10.00">/Multi/Sequencer/ChaserPattern.cpp</text>
</a>
</g>
</g>
<!-- Node8&#45;&gt;Node28 -->
<g id="edge33" class="edge">
<title>Node8&#45;&gt;Node28</title>
<path fill="none" stroke="midnightblue" d="M3576.17,-75.65C3192.68,-74.02 1791.29,-65.77 1348,-31 1344.79,-30.75 1341.53,-30.46 1338.24,-30.15"/>
<polygon fill="midnightblue" stroke="midnightblue" points="3576.38,-79.15 3586.4,-75.69 3576.41,-72.15 3576.38,-79.15"/>
</g>
<!-- Node29 -->
<g id="node29" class="node">
<title>Node29</title>
<g id="a_node29"><a xlink:href="Sequence_8cpp.html" target="_top" xlink:title=" ">
<polygon fill="none" stroke="black" points="1356.5,-0.5 1356.5,-30.5 1525.5,-30.5 1525.5,-0.5 1356.5,-0.5"/>
<text text-anchor="start" x="1364.5" y="-18.5" font-family="Helvetica,sans-Serif" font-size="10.00">VortexEngine/src/Patterns</text>
<text text-anchor="middle" x="1441" y="-7.5" font-family="Helvetica,sans-Serif" font-size="10.00">/Multi/Sequencer/Sequence.cpp</text>
</a>
</g>
</g>
<!-- Node8&#45;&gt;Node29 -->
<g id="edge34" class="edge">
<title>Node8&#45;&gt;Node29</title>
<path fill="none" stroke="midnightblue" d="M3576.21,-75.66C3212.68,-74.12 1939.42,-66.29 1535,-31 1531.96,-30.73 1528.86,-30.43 1525.74,-30.1"/>
<polygon fill="midnightblue" stroke="midnightblue" points="3576.42,-79.16 3586.44,-75.7 3576.45,-72.16 3576.42,-79.16"/>
</g>
<!-- Node30 -->
<g id="node30" class="node">
<title>Node30</title>
<g id="a_node30"><a xlink:href="SequencedPattern_8cpp.html" target="_top" xlink:title=" ">
<polygon fill="none" stroke="black" points="1543.5,-0.5 1543.5,-30.5 1752.5,-30.5 1752.5,-0.5 1543.5,-0.5"/>
<text text-anchor="start" x="1551.5" y="-18.5" font-family="Helvetica,sans-Serif" font-size="10.00">VortexEngine/src/Patterns</text>
<text text-anchor="middle" x="1648" y="-7.5" font-family="Helvetica,sans-Serif" font-size="10.00">/Multi/Sequencer/SequencedPattern.cpp</text>
</a>
</g>
</g>
<!-- Node8&#45;&gt;Node30 -->
<g id="edge35" class="edge">
<title>Node8&#45;&gt;Node30</title>
<path fill="none" stroke="midnightblue" d="M3576.21,-75.03C3238.16,-71.47 2120.11,-57.92 1762,-31 1758.92,-30.77 1755.79,-30.51 1752.63,-30.23"/>
<polygon fill="midnightblue" stroke="midnightblue" points="3576.19,-78.53 3586.22,-75.14 3576.26,-71.53 3576.19,-78.53"/>
</g>
<!-- Node31 -->
<g id="node31" class="node">
<title>Node31</title>
<g id="a_node31"><a xlink:href="SnowballPattern_8cpp.html" target="_top" xlink:title=" ">
<polygon fill="none" stroke="black" points="1771,-0.5 1771,-30.5 1917,-30.5 1917,-0.5 1771,-0.5"/>
<text text-anchor="start" x="1779" y="-18.5" font-family="Helvetica,sans-Serif" font-size="10.00">VortexEngine/src/Patterns</text>
<text text-anchor="middle" x="1844" y="-7.5" font-family="Helvetica,sans-Serif" font-size="10.00">/Multi/SnowballPattern.cpp</text>
</a>
</g>
</g>
<!-- Node8&#45;&gt;Node31 -->
<g id="edge36" class="edge">
<title>Node8&#45;&gt;Node31</title>
<path fill="none" stroke="midnightblue" d="M3576.27,-75.41C3257.49,-73.16 2249.82,-63.61 1926,-31 1923.12,-30.71 1920.2,-30.38 1917.24,-30.01"/>
<polygon fill="midnightblue" stroke="midnightblue" points="3576.39,-78.91 3586.41,-75.48 3576.44,-71.91 3576.39,-78.91"/>
</g>
<!-- Node32 -->
<g id="node32" class="node">
<title>Node32</title>
<g id="a_node32"><a xlink:href="SparkleTracePattern_8cpp.html" target="_top" xlink:title=" ">
<polygon fill="none" stroke="black" points="1935,-0.5 1935,-30.5 2099,-30.5 2099,-0.5 1935,-0.5"/>
<text text-anchor="start" x="1943" y="-18.5" font-family="Helvetica,sans-Serif" font-size="10.00">VortexEngine/src/Patterns</text>
<text text-anchor="middle" x="2017" y="-7.5" font-family="Helvetica,sans-Serif" font-size="10.00">/Multi/SparkleTracePattern.cpp</text>
</a>
</g>
</g>
<!-- Node8&#45;&gt;Node32 -->
<g id="edge37" class="edge">
<title>Node8&#45;&gt;Node32</title>
<path fill="none" stroke="midnightblue" d="M3575.98,-74.84C3279.48,-71.08 2394.86,-57.86 2108,-31 2105.13,-30.73 2102.22,-30.43 2099.28,-30.1"/>
<polygon fill="midnightblue" stroke="midnightblue" points="3576.24,-78.35 3586.28,-74.97 3576.33,-71.35 3576.24,-78.35"/>
</g>
<!-- Node33 -->
<g id="node33" class="node">
<title>Node33</title>
<g id="a_node33"><a xlink:href="TheaterChasePattern_8cpp.html" target="_top" xlink:title=" ">
<polygon fill="none" stroke="black" points="2117,-0.5 2117,-30.5 2287,-30.5 2287,-0.5 2117,-0.5"/>
<text text-anchor="start" x="2125" y="-18.5" font-family="Helvetica,sans-Serif" font-size="10.00">VortexEngine/src/Patterns</text>
<text text-anchor="middle" x="2202" y="-7.5" font-family="Helvetica,sans-Serif" font-size="10.00">/Multi/TheaterChasePattern.cpp</text>
</a>
</g>
</g>
<!-- Node8&#45;&gt;Node33 -->
<g id="edge38" class="edge">
<title>Node8&#45;&gt;Node33</title>
<path fill="none" stroke="midnightblue" d="M3576.21,-76.78C3350.38,-77.73 2775.23,-75.15 2297,-31 2293.76,-30.7 2290.46,-30.36 2287.14,-29.99"/>
<polygon fill="midnightblue" stroke="midnightblue" points="3576.39,-80.28 3586.38,-76.74 3576.36,-73.28 3576.39,-80.28"/>
</g>
<!-- Node34 -->
<g id="node34" class="node">
<title>Node34</title>
<g id="a_node34"><a xlink:href="VortexPattern_8cpp.html" target="_top" xlink:title=" ">
<polygon fill="none" stroke="black" points="2305.5,-0.5 2305.5,-30.5 2446.5,-30.5 2446.5,-0.5 2305.5,-0.5"/>
<text text-anchor="start" x="2313.5" y="-18.5" font-family="Helvetica,sans-Serif" font-size="10.00">VortexEngine/src/Patterns</text>
<text text-anchor="middle" x="2376" y="-7.5" font-family="Helvetica,sans-Serif" font-size="10.00">/Multi/VortexPattern.cpp</text>
</a>
</g>
</g>
<!-- Node8&#45;&gt;Node34 -->
<g id="edge39" class="edge">
<title>Node8&#45;&gt;Node34</title>
<path fill="none" stroke="midnightblue" d="M3576.29,-74.19C3327.09,-69.27 2672.31,-54.48 2456,-31 2452.91,-30.66 2449.77,-30.28 2446.59,-29.86"/>
<polygon fill="midnightblue" stroke="midnightblue" points="3576.35,-77.69 3586.41,-74.39 3576.48,-70.69 3576.35,-77.69"/>
</g>
<!-- Node35 -->
<g id="node35" class="node">
<title>Node35</title>
<g id="a_node35"><a xlink:href="VortexWipePattern_8cpp.html" target="_top" xlink:title=" ">
<polygon fill="none" stroke="black" points="2465,-0.5 2465,-30.5 2623,-30.5 2623,-0.5 2465,-0.5"/>
<text text-anchor="start" x="2473" y="-18.5" font-family="Helvetica,sans-Serif" font-size="10.00">VortexEngine/src/Patterns</text>
<text text-anchor="middle" x="2544" y="-7.5" font-family="Helvetica,sans-Serif" font-size="10.00">/Multi/VortexWipePattern.cpp</text>
</a>
</g>
</g>
<!-- Node8&#45;&gt;Node35 -->
<g id="edge40" class="edge">
<title>Node8&#45;&gt;Node35</title>
<path fill="none" stroke="midnightblue" d="M3576.11,-75.62C3391.3,-74.06 2978.5,-66.49 2633,-31 2629.73,-30.66 2626.4,-30.29 2623.03,-29.87"/>
<polygon fill="midnightblue" stroke="midnightblue" points="3576.32,-79.12 3586.35,-75.71 3576.38,-72.12 3576.32,-79.12"/>
</g>
<!-- Node36 -->
<g id="node36" class="node">
<title>Node36</title>
<g id="a_node36"><a xlink:href="WarpPattern_8cpp.html" target="_top" xlink:title=" ">
<polygon fill="none" stroke="black" points="2641.5,-0.5 2641.5,-30.5 2782.5,-30.5 2782.5,-0.5 2641.5,-0.5"/>
<text text-anchor="start" x="2649.5" y="-18.5" font-family="Helvetica,sans-Serif" font-size="10.00">VortexEngine/src/Patterns</text>
<text text-anchor="middle" x="2712" y="-7.5" font-family="Helvetica,sans-Serif" font-size="10.00">/Multi/WarpPattern.cpp</text>
</a>
</g>
</g>
<!-- Node8&#45;&gt;Node36 -->
<g id="edge41" class="edge">
<title>Node8&#45;&gt;Node36</title>
<path fill="none" stroke="midnightblue" d="M3576.37,-75.1C3413.35,-72.69 3075.64,-63.8 2792,-31 2788.92,-30.64 2785.77,-30.24 2782.6,-29.8"/>
<polygon fill="midnightblue" stroke="midnightblue" points="3576.32,-78.6 3586.37,-75.25 3576.42,-71.6 3576.32,-78.6"/>
</g>
<!-- Node37 -->
<g id="node37" class="node">
<title>Node37</title>
<g id="a_node37"><a xlink:href="WarpWormPattern_8cpp.html" target="_top" xlink:title=" ">
<polygon fill="none" stroke="black" points="2800.5,-0.5 2800.5,-30.5 2955.5,-30.5 2955.5,-0.5 2800.5,-0.5"/>
<text text-anchor="start" x="2808.5" y="-18.5" font-family="Helvetica,sans-Serif" font-size="10.00">VortexEngine/src/Patterns</text>
<text text-anchor="middle" x="2878" y="-7.5" font-family="Helvetica,sans-Serif" font-size="10.00">/Multi/WarpWormPattern.cpp</text>
</a>
</g>
</g>
<!-- Node8&#45;&gt;Node37 -->
<g id="edge42" class="edge">
<title>Node8&#45;&gt;Node37</title>
<path fill="none" stroke="midnightblue" d="M3576.37,-72.95C3439.4,-67.95 3182.57,-55.97 2965,-31 2961.96,-30.65 2958.86,-30.27 2955.73,-29.86"/>
<polygon fill="midnightblue" stroke="midnightblue" points="3576.31,-76.45 3586.43,-73.31 3576.56,-69.45 3576.31,-76.45"/>
</g>
<!-- Node38 -->
<g id="node38" class="node">
<title>Node38</title>
<g id="a_node38"><a xlink:href="ZigzagPattern_8cpp.html" target="_top" xlink:title=" ">
<polygon fill="none" stroke="black" points="2973.5,-0.5 2973.5,-30.5 3114.5,-30.5 3114.5,-0.5 2973.5,-0.5"/>
<text text-anchor="start" x="2981.5" y="-18.5" font-family="Helvetica,sans-Serif" font-size="10.00">VortexEngine/src/Patterns</text>
<text text-anchor="middle" x="3044" y="-7.5" font-family="Helvetica,sans-Serif" font-size="10.00">/Multi/ZigzagPattern.cpp</text>
</a>
</g>
</g>
<!-- Node8&#45;&gt;Node38 -->
<g id="edge43" class="edge">
<title>Node8&#45;&gt;Node38</title>
<path fill="none" stroke="midnightblue" d="M3575.98,-70.88C3465.74,-64.44 3281.52,-51.67 3124,-31 3120.92,-30.6 3117.78,-30.15 3114.61,-29.68"/>
<polygon fill="midnightblue" stroke="midnightblue" points="3575.9,-74.38 3586.08,-71.46 3576.3,-67.39 3575.9,-74.38"/>
</g>
<!-- Node39 -->
<g id="node39" class="node">
<title>Node39</title>
<g id="a_node39"><a xlink:href="Pattern_8cpp.html" target="_top" xlink:title=" ">
<polygon fill="none" stroke="black" points="3132.5,-0.5 3132.5,-30.5 3273.5,-30.5 3273.5,-0.5 3132.5,-0.5"/>
<text text-anchor="start" x="3140.5" y="-18.5" font-family="Helvetica,sans-Serif" font-size="10.00">VortexEngine/src/Patterns</text>
<text text-anchor="middle" x="3203" y="-7.5" font-family="Helvetica,sans-Serif" font-size="10.00">/Pattern.cpp</text>
</a>
</g>
</g>
<!-- Node8&#45;&gt;Node39 -->
<g id="edge44" class="edge">
<title>Node8&#45;&gt;Node39</title>
<path fill="none" stroke="midnightblue" d="M3576.47,-66.54C3497.23,-58.44 3382.66,-45.75 3283,-31 3279.93,-30.55 3276.79,-30.06 3273.63,-29.56"/>
<polygon fill="midnightblue" stroke="midnightblue" points="3576.13,-70.03 3586.44,-67.56 3576.84,-63.06 3576.13,-70.03"/>
</g>
<!-- Node40 -->
<g id="node40" class="node">
<title>Node40</title>
<g id="a_node40"><a xlink:href="BasicPattern_8cpp.html" target="_top" xlink:title=" ">
<polygon fill="none" stroke="black" points="3291.5,-0.5 3291.5,-30.5 3432.5,-30.5 3432.5,-0.5 3291.5,-0.5"/>
<text text-anchor="start" x="3299.5" y="-18.5" font-family="Helvetica,sans-Serif" font-size="10.00">VortexEngine/src/Patterns</text>
<text text-anchor="middle" x="3362" y="-7.5" font-family="Helvetica,sans-Serif" font-size="10.00">/Single/BasicPattern.cpp</text>
</a>
</g>
</g>
<!-- Node8&#45;&gt;Node40 -->
<g id="edge45" class="edge">
<title>Node8&#45;&gt;Node40</title>
<path fill="none" stroke="midnightblue" d="M3619.28,-65.57C3567.38,-55.67 3489.12,-40.74 3432.54,-29.95"/>
<polygon fill="midnightblue" stroke="midnightblue" points="3618.82,-69.04 3629.3,-67.48 3620.13,-62.16 3618.82,-69.04"/>
</g>
<!-- Node41 -->
<g id="node41" class="node">
<title>Node41</title>
<g id="a_node41"><a xlink:href="BlendPattern_8cpp.html" target="_top" xlink:title=" ">
<polygon fill="none" stroke="black" points="3450.5,-0.5 3450.5,-30.5 3591.5,-30.5 3591.5,-0.5 3450.5,-0.5"/>
<text text-anchor="start" x="3458.5" y="-18.5" font-family="Helvetica,sans-Serif" font-size="10.00">VortexEngine/src/Patterns</text>
<text text-anchor="middle" x="3521" y="-7.5" font-family="Helvetica,sans-Serif" font-size="10.00">/Single/BlendPattern.cpp</text>
</a>
</g>
</g>
<!-- Node8&#45;&gt;Node41 -->
<g id="edge46" class="edge">
<title>Node8&#45;&gt;Node41</title>
<path fill="none" stroke="midnightblue" d="M3642.75,-63.85C3617.9,-54.18 3583.09,-40.65 3557.06,-30.52"/>
<polygon fill="midnightblue" stroke="midnightblue" points="3641.49,-67.11 3652.08,-67.48 3644.03,-60.59 3641.49,-67.11"/>
</g>
<!-- Node42 -->
<g id="node42" class="node">
<title>Node42</title>
<g id="a_node42"><a xlink:href="Serial_8cpp.html" target="_top" xlink:title=" ">
<polygon fill="none" stroke="black" points="3609.5,-0.5 3609.5,-30.5 3738.5,-30.5 3738.5,-0.5 3609.5,-0.5"/>
<text text-anchor="start" x="3617.5" y="-18.5" font-family="Helvetica,sans-Serif" font-size="10.00">VortexEngine/src/Serial</text>
<text text-anchor="middle" x="3674" y="-7.5" font-family="Helvetica,sans-Serif" font-size="10.00">/Serial.cpp</text>
</a>
</g>
</g>
<!-- Node8&#45;&gt;Node42 -->
<g id="edge47" class="edge">
<title>Node8&#45;&gt;Node42</title>
<path fill="none" stroke="midnightblue" d="M3674,-57.23C3674,-48.59 3674,-38.5 3674,-30.52"/>
<polygon fill="midnightblue" stroke="midnightblue" points="3670.5,-57.48 3674,-67.48 3677.5,-57.48 3670.5,-57.48"/>
</g>
<!-- Node43 -->
<g id="node43" class="node">
<title>Node43</title>
<g id="a_node43"><a xlink:href="Timer_8cpp.html" target="_top" xlink:title=" ">
<polygon fill="none" stroke="black" points="3757,-0.5 3757,-30.5 3883,-30.5 3883,-0.5 3757,-0.5"/>
<text text-anchor="start" x="3765" y="-18.5" font-family="Helvetica,sans-Serif" font-size="10.00">VortexEngine/src/Time</text>
<text text-anchor="middle" x="3820" y="-7.5" font-family="Helvetica,sans-Serif" font-size="10.00">/Timer.cpp</text>
</a>
</g>
</g>
<!-- Node8&#45;&gt;Node43 -->
<g id="edge48" class="edge">
<title>Node8&#45;&gt;Node43</title>
<path fill="none" stroke="midnightblue" d="M3704.45,-63.59C3728.12,-53.94 3760.97,-40.56 3785.59,-30.52"/>
<polygon fill="midnightblue" stroke="midnightblue" points="3702.86,-60.46 3694.92,-67.48 3705.5,-66.94 3702.86,-60.46"/>
</g>
<!-- Node44 -->
<g id="node44" class="node">
<title>Node44</title>
<g id="a_node44"><a xlink:href="VortexEngine_8cpp.html" target="_top" xlink:title=" ">
<polygon fill="none" stroke="black" points="3901,-6 3901,-25 4087,-25 4087,-6 3901,-6"/>
<text text-anchor="middle" x="3994" y="-13" font-family="Helvetica,sans-Serif" font-size="10.00">VortexEngine/src/VortexEngine.cpp</text>
</a>
</g>
</g>
<!-- Node8&#45;&gt;Node44 -->
<g id="edge49" class="edge">
<title>Node8&#45;&gt;Node44</title>
<path fill="none" stroke="midnightblue" d="M3729.84,-65.62C3791.81,-54.09 3890.65,-35.72 3948.24,-25.01"/>
<polygon fill="midnightblue" stroke="midnightblue" points="3729.04,-62.21 3719.85,-67.48 3730.32,-69.09 3729.04,-62.21"/>
</g>
<!-- Node45 -->
<g id="node45" class="node">
<title>Node45</title>
<g id="a_node45"><a xlink:href="IRReceiver_8cpp.html" target="_top" xlink:title=" ">
<polygon fill="none" stroke="black" points="4105.5,-0.5 4105.5,-30.5 4248.5,-30.5 4248.5,-0.5 4105.5,-0.5"/>
<text text-anchor="start" x="4113.5" y="-18.5" font-family="Helvetica,sans-Serif" font-size="10.00">VortexEngine/src/Wireless</text>
<text text-anchor="middle" x="4177" y="-7.5" font-family="Helvetica,sans-Serif" font-size="10.00">/IRReceiver.cpp</text>
</a>
</g>
</g>
<!-- Node8&#45;&gt;Node45 -->
<g id="edge50" class="edge">
<title>Node8&#45;&gt;Node45</title>
<path fill="none" stroke="midnightblue" d="M3771.49,-67.58C3857.18,-59.71 3985.14,-46.81 4096,-31 4099.11,-30.56 4102.29,-30.08 4105.49,-29.58"/>
<polygon fill="midnightblue" stroke="midnightblue" points="3771.15,-64.1 3761.51,-68.49 3771.79,-71.07 3771.15,-64.1"/>
</g>
<!-- Node46 -->
<g id="node46" class="node">
<title>Node46</title>
<g id="a_node46"><a xlink:href="VLReceiver_8cpp.html" target="_top" xlink:title=" ">
<polygon fill="none" stroke="black" points="4266.5,-0.5 4266.5,-30.5 4409.5,-30.5 4409.5,-0.5 4266.5,-0.5"/>
<text text-anchor="start" x="4274.5" y="-18.5" font-family="Helvetica,sans-Serif" font-size="10.00">VortexEngine/src/Wireless</text>
<text text-anchor="middle" x="4338" y="-7.5" font-family="Helvetica,sans-Serif" font-size="10.00">/VLReceiver.cpp</text>
</a>
</g>
</g>
<!-- Node8&#45;&gt;Node46 -->
<g id="edge51" class="edge">
<title>Node8&#45;&gt;Node46</title>
<path fill="none" stroke="midnightblue" d="M3772.15,-71.51C3888.44,-65.48 4087.9,-52.91 4258,-31 4260.66,-30.66 4263.37,-30.29 4266.1,-29.89"/>
<polygon fill="midnightblue" stroke="midnightblue" points="3771.66,-68.03 3761.85,-72.04 3772.01,-75.02 3771.66,-68.03"/>
</g>
</g>
</svg>
