<?xml version="1.0" encoding="UTF-8" standalone="no"?>
<!DOCTYPE svg PUBLIC "-//W3C//DTD SVG 1.1//EN"
 "http://www.w3.org/Graphics/SVG/1.1/DTD/svg11.dtd">
<!-- Generated by graphviz version 2.43.0 (0)
 -->
<!-- Title: VortexEngine/src/Serial/Serial.cpp Pages: 1 -->
<!--zoomable 487 -->
<svg id="main" version="1.1" xmlns="http://www.w3.org/2000/svg" xmlns:xlink="http://www.w3.org/1999/xlink" xml:space="preserve" onload="init(evt)">
<style type="text/css"><![CDATA[
.edge:hover path { stroke: red; }
.edge:hover polygon { stroke: red; fill: red; }
]]></style>
<script type="text/javascript"><![CDATA[
var edges = document.getElementsByTagName('g');
if (edges && edges.length) {
  for (var i=0;i<edges.length;i++) {
    if (edges[i].id.substr(0,4)=='edge') {
      edges[i].setAttribute('class','edge');
    }
  }
}
]]></script>
        <defs>
                <circle id="rim" cx="0" cy="0" r="7"/>
                <circle id="rim2" cx="0" cy="0" r="3.5"/>
                <g id="zoomPlus">
                        <use xlink:href="#rim" fill="#404040">
                                <set attributeName="fill" to="#808080" begin="zoomplus.mouseover" end="zoomplus.mouseout"/>
                        </use>
                        <path d="M-4,0h8M0,-4v8" fill="none" stroke="white" stroke-width="1.5" pointer-events="none"/>
                </g>
                <g id="zoomMin">
                        <use xlink:href="#rim" fill="#404040">
                                <set attributeName="fill" to="#808080" begin="zoomminus.mouseover" end="zoomminus.mouseout"/>
                        </use>
                        <path d="M-4,0h8" fill="none" stroke="white" stroke-width="1.5" pointer-events="none"/>
                </g>
                <g id="dirArrow">
                        <path fill="none" stroke="white" stroke-width="1.5" d="M0,-3.0v7 M-2.5,-0.5L0,-3.0L2.5,-0.5"/>
                </g>
               <g id="resetDef">
                       <use xlink:href="#rim2" fill="#404040">
                               <set attributeName="fill" to="#808080" begin="reset.mouseover" end="reset.mouseout"/>
                       </use>
               </g>
        </defs>

<script type="text/javascript">
var viewWidth = 1558;
var viewHeight = 487;
var sectionId = 'dynsection-0';
</script>
<script xlink:href="svgpan.js"/>
<svg id="graph" class="graph">
<g id="viewport">
<title>VortexEngine/src/Serial/Serial.cpp</title>
<!-- Node1 -->
<g id="node1" class="node">
<title>Node1</title>
<g id="a_node1"><a xlink:title=" ">
<polygon fill="#bfbfbf" stroke="black" points="1111.59,-448.5 1111.59,-478.5 1240.59,-478.5 1240.59,-448.5 1111.59,-448.5"/>
<text text-anchor="start" x="1119.59" y="-466.5" font-family="Helvetica,sans-Serif" font-size="10.00">VortexEngine/src/Serial</text>
<text text-anchor="middle" x="1176.09" y="-455.5" font-family="Helvetica,sans-Serif" font-size="10.00">/Serial.cpp</text>
</a>
</g>
</g>
<!-- Node2 -->
<g id="node2" class="node">
<title>Node2</title>
<g id="a_node2"><a xlink:href="Serial_8h.html" target="_top" xlink:title=" ">
<polygon fill="none" stroke="black" points="67.59,-336.5 67.59,-355.5 120.59,-355.5 120.59,-336.5 67.59,-336.5"/>
<text text-anchor="middle" x="94.09" y="-343.5" font-family="Helvetica,sans-Serif" font-size="10.00">Serial.h</text>
</a>
</g>
</g>
<!-- Node1&#45;&gt;Node2 -->
<g id="edge1" class="edge">
<title>Node1&#45;&gt;Node2</title>
<path fill="none" stroke="midnightblue" d="M1111.49,-458.47C947.52,-447.67 502.15,-414.87 135.09,-356 133.8,-355.79 132.48,-355.57 131.15,-355.33"/>
<polygon fill="midnightblue" stroke="midnightblue" points="131.4,-351.82 120.91,-353.35 130.06,-358.69 131.4,-351.82"/>
</g>
<!-- Node4 -->
<g id="node4" class="node">
<title>Node4</title>
<g id="a_node4"><a xlink:href="ByteStream_8h.html" target="_top" xlink:title=" ">
<polygon fill="none" stroke="black" points="673.59,-224.5 673.59,-243.5 796.59,-243.5 796.59,-224.5 673.59,-224.5"/>
<text text-anchor="middle" x="735.09" y="-231.5" font-family="Helvetica,sans-Serif" font-size="10.00">../Serial/ByteStream.h</text>
</a>
</g>
</g>
<!-- Node1&#45;&gt;Node4 -->
<g id="edge3" class="edge">
<title>Node1&#45;&gt;Node4</title>
<path fill="none" stroke="midnightblue" d="M1111.39,-460.03C1053.37,-455.69 967.15,-443.89 899.09,-412 863.95,-395.53 856.32,-386.31 832.09,-356 808.39,-326.34 817.33,-309.22 793.09,-280 783.1,-267.96 769.36,-257.13 757.76,-249.1"/>
<polygon fill="midnightblue" stroke="midnightblue" points="759.67,-246.17 749.41,-243.54 755.8,-252 759.67,-246.17"/>
</g>
<!-- Node5 -->
<g id="node5" class="node">
<title>Node5</title>
<g id="a_node5"><a xlink:href="Log_8h.html" target="_top" xlink:title=" ">
<polygon fill="none" stroke="black" points="1305.09,-168.5 1305.09,-187.5 1377.09,-187.5 1377.09,-168.5 1305.09,-168.5"/>
<text text-anchor="middle" x="1341.09" y="-175.5" font-family="Helvetica,sans-Serif" font-size="10.00">../Log/Log.h</text>
</a>
</g>
</g>
<!-- Node1&#45;&gt;Node5 -->
<g id="edge27" class="edge">
<title>Node1&#45;&gt;Node5</title>
<path fill="none" stroke="midnightblue" d="M1240.6,-450.47C1323.8,-433.37 1460.86,-399.26 1486.09,-356 1525.37,-288.65 1419.18,-220.52 1367.49,-192.41"/>
<polygon fill="midnightblue" stroke="midnightblue" points="1369,-189.24 1358.52,-187.63 1365.71,-195.42 1369,-189.24"/>
</g>
<!-- Node9 -->
<g id="node9" class="node">
<title>Node9</title>
<g id="a_node9"><a xlink:href="TimeControl_8h.html" target="_top" xlink:title=" ">
<polygon fill="none" stroke="black" points="1324.09,-280.5 1324.09,-299.5 1446.09,-299.5 1446.09,-280.5 1324.09,-280.5"/>
<text text-anchor="middle" x="1385.09" y="-287.5" font-family="Helvetica,sans-Serif" font-size="10.00">../Time/TimeControl.h</text>
</a>
</g>
</g>
<!-- Node1&#45;&gt;Node9 -->
<g id="edge9" class="edge">
<title>Node1&#45;&gt;Node9</title>
<path fill="none" stroke="midnightblue" d="M1193.19,-448.47C1232.07,-416.57 1326.78,-338.85 1366.78,-306.02"/>
<polygon fill="midnightblue" stroke="midnightblue" points="1369.15,-308.61 1374.66,-299.56 1364.71,-303.2 1369.15,-308.61"/>
</g>
<!-- Node14 -->
<g id="node14" class="node">
<title>Node14</title>
<g id="a_node14"><a xlink:href="Timings_8h.html" target="_top" xlink:title=" ">
<polygon fill="none" stroke="black" points="1375.59,-336.5 1375.59,-355.5 1476.59,-355.5 1476.59,-336.5 1375.59,-336.5"/>
<text text-anchor="middle" x="1426.09" y="-343.5" font-family="Helvetica,sans-Serif" font-size="10.00">../Time/Timings.h</text>
</a>
</g>
</g>
<!-- Node1&#45;&gt;Node14 -->
<g id="edge24" class="edge">
<title>Node1&#45;&gt;Node14</title>
<path fill="none" stroke="midnightblue" d="M1240.95,-453.3C1277.98,-446.02 1324.23,-433.39 1361.09,-412 1382.35,-399.66 1401.56,-378.64 1413.49,-363.85"/>
<polygon fill="midnightblue" stroke="midnightblue" points="1416.54,-365.62 1419.93,-355.58 1411.02,-361.32 1416.54,-365.62"/>
</g>
<!-- Node15 -->
<g id="node15" class="node">
<title>Node15</title>
<g id="a_node15"><a xlink:href="VortexEngine_8h.html" target="_top" xlink:title=" ">
<polygon fill="none" stroke="black" points="908.59,-392.5 908.59,-411.5 1007.59,-411.5 1007.59,-392.5 908.59,-392.5"/>
<text text-anchor="middle" x="958.09" y="-399.5" font-family="Helvetica,sans-Serif" font-size="10.00">../VortexEngine.h</text>
</a>
</g>
</g>
<!-- Node1&#45;&gt;Node15 -->
<g id="edge28" class="edge">
<title>Node1&#45;&gt;Node15</title>
<path fill="none" stroke="midnightblue" d="M1124.7,-448.47C1086.44,-438.03 1034.88,-423.96 999.3,-414.25"/>
<polygon fill="midnightblue" stroke="midnightblue" points="999.83,-410.76 989.26,-411.51 997.98,-417.52 999.83,-410.76"/>
</g>
<!-- Node3 -->
<g id="node3" class="node">
<title>Node3</title>
<g id="a_node3"><a xlink:title=" ">
<polygon fill="none" stroke="#bfbfbf" points="620.59,-56.5 620.59,-75.5 685.59,-75.5 685.59,-56.5 620.59,-56.5"/>
<text text-anchor="middle" x="653.09" y="-63.5" font-family="Helvetica,sans-Serif" font-size="10.00">inttypes.h</text>
</a>
</g>
</g>
<!-- Node2&#45;&gt;Node3 -->
<g id="edge2" class="edge">
<title>Node2&#45;&gt;Node3</title>
<path fill="none" stroke="midnightblue" d="M90.72,-336.31C83.9,-317.92 69.09,-273.58 69.09,-235 69.09,-235 69.09,-235 69.09,-177 69.09,-163.61 -160.89,-210.25 220.09,-112 359.53,-76.04 531.27,-68.68 609.99,-67.27"/>
<polygon fill="midnightblue" stroke="midnightblue" points="610.52,-70.76 620.46,-67.11 610.41,-63.76 610.52,-70.76"/>
</g>
<!-- Node4&#45;&gt;Node3 -->
<g id="edge4" class="edge">
<title>Node4&#45;&gt;Node3</title>
<path fill="none" stroke="midnightblue" d="M718.39,-224.45C705.08,-216.75 687.07,-204.16 677.09,-188 657.37,-156.07 653.4,-111.15 652.86,-85.99"/>
<polygon fill="midnightblue" stroke="midnightblue" points="656.36,-85.64 652.81,-75.66 649.36,-85.67 656.36,-85.64"/>
</g>
<!-- Node4&#45;&gt;Node5 -->
<g id="edge5" class="edge">
<title>Node4&#45;&gt;Node5</title>
<path fill="none" stroke="midnightblue" d="M796.81,-227.5C918.4,-216.67 1186.46,-192.78 1294.55,-183.15"/>
<polygon fill="midnightblue" stroke="midnightblue" points="1295.16,-186.61 1304.81,-182.23 1294.53,-179.63 1295.16,-186.61"/>
</g>
<!-- Node6 -->
<g id="node6" class="node">
<title>Node6</title>
<g id="a_node6"><a xlink:title=" ">
<polygon fill="none" stroke="#bfbfbf" points="1267.09,-112.5 1267.09,-131.5 1323.09,-131.5 1323.09,-112.5 1267.09,-112.5"/>
<text text-anchor="middle" x="1295.09" y="-119.5" font-family="Helvetica,sans-Serif" font-size="10.00">stdarg.h</text>
</a>
</g>
</g>
<!-- Node5&#45;&gt;Node6 -->
<g id="edge6" class="edge">
<title>Node5&#45;&gt;Node6</title>
<path fill="none" stroke="midnightblue" d="M1333.49,-168.08C1326.86,-160.3 1317.07,-148.8 1309.03,-139.37"/>
<polygon fill="midnightblue" stroke="midnightblue" points="1311.69,-137.09 1302.55,-131.75 1306.37,-141.63 1311.69,-137.09"/>
</g>
<!-- Node7 -->
<g id="node7" class="node">
<title>Node7</title>
<g id="a_node7"><a xlink:href="VortexConfig_8h.html" target="_top" xlink:title=" ">
<polygon fill="none" stroke="black" points="1152.59,-56.5 1152.59,-75.5 1249.59,-75.5 1249.59,-56.5 1152.59,-56.5"/>
<text text-anchor="middle" x="1201.09" y="-63.5" font-family="Helvetica,sans-Serif" font-size="10.00">../VortexConfig.h</text>
</a>
</g>
</g>
<!-- Node5&#45;&gt;Node7 -->
<g id="edge7" class="edge">
<title>Node5&#45;&gt;Node7</title>
<path fill="none" stroke="midnightblue" d="M1342.52,-168.31C1344.23,-154.68 1345.41,-128.18 1332.09,-112 1314.27,-90.35 1285.5,-79.09 1259.46,-73.24"/>
<polygon fill="midnightblue" stroke="midnightblue" points="1260.14,-69.81 1249.64,-71.25 1258.75,-76.67 1260.14,-69.81"/>
</g>
<!-- Node8 -->
<g id="node8" class="node">
<title>Node8</title>
<g id="a_node8"><a xlink:href="ColorConstants_8h.html" target="_top" xlink:title=" ">
<polygon fill="none" stroke="black" points="1092.09,-0.5 1092.09,-19.5 1226.09,-19.5 1226.09,-0.5 1092.09,-0.5"/>
<text text-anchor="middle" x="1159.09" y="-7.5" font-family="Helvetica,sans-Serif" font-size="10.00">Colors/ColorConstants.h</text>
</a>
</g>
</g>
<!-- Node7&#45;&gt;Node8 -->
<g id="edge8" class="edge">
<title>Node7&#45;&gt;Node8</title>
<path fill="none" stroke="midnightblue" d="M1194.16,-56.08C1188.16,-48.38 1179.34,-37.03 1172.04,-27.65"/>
<polygon fill="midnightblue" stroke="midnightblue" points="1174.8,-25.5 1165.9,-19.75 1169.27,-29.79 1174.8,-25.5"/>
</g>
<!-- Node9&#45;&gt;Node3 -->
<g id="edge10" class="edge">
<title>Node9&#45;&gt;Node3</title>
<path fill="none" stroke="midnightblue" d="M1387.33,-280.37C1392.17,-259.94 1401.97,-207.35 1386.09,-168 1373.15,-135.94 1363.45,-126.57 1332.09,-112 1274.59,-85.29 836.12,-71.73 696,-68.05"/>
<polygon fill="midnightblue" stroke="midnightblue" points="695.75,-64.54 685.67,-67.78 695.57,-71.54 695.75,-64.54"/>
</g>
<!-- Node9&#45;&gt;Node7 -->
<g id="edge11" class="edge">
<title>Node9&#45;&gt;Node7</title>
<path fill="none" stroke="midnightblue" d="M1391.87,-280.25C1398.21,-271.56 1407.39,-257.61 1412.09,-244 1431.26,-188.47 1456.2,-157.55 1419.09,-112 1399.35,-87.76 1317.49,-76.19 1259.91,-70.95"/>
<polygon fill="midnightblue" stroke="midnightblue" points="1260.09,-67.45 1249.82,-70.07 1259.48,-74.43 1260.09,-67.45"/>
</g>
<!-- Node10 -->
<g id="node10" class="node">
<title>Node10</title>
<g id="a_node10"><a xlink:href="LedTypes_8h.html" target="_top" xlink:title=" ">
<polygon fill="none" stroke="black" points="1205.59,-224.5 1205.59,-243.5 1310.59,-243.5 1310.59,-224.5 1205.59,-224.5"/>
<text text-anchor="middle" x="1258.09" y="-231.5" font-family="Helvetica,sans-Serif" font-size="10.00">../Leds/LedTypes.h</text>
</a>
</g>
</g>
<!-- Node9&#45;&gt;Node10 -->
<g id="edge12" class="edge">
<title>Node9&#45;&gt;Node10</title>
<path fill="none" stroke="midnightblue" d="M1364.97,-280.44C1344.07,-271.56 1311.16,-257.56 1287.37,-247.45"/>
<polygon fill="midnightblue" stroke="midnightblue" points="1288.69,-244.21 1278.12,-243.52 1285.95,-250.65 1288.69,-244.21"/>
</g>
<!-- Node10&#45;&gt;Node3 -->
<g id="edge13" class="edge">
<title>Node10&#45;&gt;Node3</title>
<path fill="none" stroke="midnightblue" d="M1205.25,-226.04C1153.71,-218.68 1073.33,-205.68 1005.09,-188 942.23,-171.71 761.12,-106.42 686.17,-79.11"/>
<polygon fill="midnightblue" stroke="midnightblue" points="687.33,-75.81 676.74,-75.67 684.93,-82.38 687.33,-75.81"/>
</g>
<!-- Node10&#45;&gt;Node6 -->
<g id="edge14" class="edge">
<title>Node10&#45;&gt;Node6</title>
<path fill="none" stroke="midnightblue" d="M1260.99,-224.37C1266.99,-206.54 1280.86,-165.3 1288.94,-141.27"/>
<polygon fill="midnightblue" stroke="midnightblue" points="1292.33,-142.19 1292.2,-131.59 1285.7,-139.95 1292.33,-142.19"/>
</g>
<!-- Node10&#45;&gt;Node7 -->
<g id="edge23" class="edge">
<title>Node10&#45;&gt;Node7</title>
<path fill="none" stroke="midnightblue" d="M1255.03,-224.08C1246.02,-197.83 1219.48,-120.55 1207.31,-85.12"/>
<polygon fill="midnightblue" stroke="midnightblue" points="1210.59,-83.89 1204.03,-75.57 1203.97,-86.16 1210.59,-83.89"/>
</g>
<!-- Node11 -->
<g id="node11" class="node">
<title>Node11</title>
<g id="a_node11"><a xlink:href="Leds_8h.html" target="_top" xlink:title=" ">
<polygon fill="none" stroke="black" points="1013.59,-168.5 1013.59,-187.5 1096.59,-187.5 1096.59,-168.5 1013.59,-168.5"/>
<text text-anchor="middle" x="1055.09" y="-175.5" font-family="Helvetica,sans-Serif" font-size="10.00">../Leds/Leds.h</text>
</a>
</g>
</g>
<!-- Node10&#45;&gt;Node11 -->
<g id="edge15" class="edge">
<title>Node10&#45;&gt;Node11</title>
<path fill="none" stroke="midnightblue" d="M1225.92,-224.44C1191.03,-215.16 1135.2,-200.31 1096.92,-190.13"/>
<polygon fill="midnightblue" stroke="midnightblue" points="1097.67,-186.7 1087.11,-187.52 1095.87,-193.47 1097.67,-186.7"/>
</g>
<!-- Node11&#45;&gt;Node3 -->
<g id="edge16" class="edge">
<title>Node11&#45;&gt;Node3</title>
<path fill="none" stroke="midnightblue" d="M1020.12,-168.48C988.38,-160.36 940.49,-147.16 900.09,-132 880.36,-124.6 877.06,-118.75 857.09,-112 802.77,-93.62 737.74,-80.78 695.94,-73.65"/>
<polygon fill="midnightblue" stroke="midnightblue" points="696.28,-70.15 685.84,-71.96 695.12,-77.06 696.28,-70.15"/>
</g>
<!-- Node11&#45;&gt;Node7 -->
<g id="edge21" class="edge">
<title>Node11&#45;&gt;Node7</title>
<path fill="none" stroke="midnightblue" d="M1066.55,-168.37C1091.39,-149.65 1150.45,-105.15 1181.4,-81.83"/>
<polygon fill="midnightblue" stroke="midnightblue" points="1183.81,-84.4 1189.69,-75.59 1179.59,-78.81 1183.81,-84.4"/>
</g>
<!-- Node12 -->
<g id="node12" class="node">
<title>Node12</title>
<g id="a_node12"><a xlink:href="ColorTypes_8h.html" target="_top" xlink:title=" ">
<polygon fill="none" stroke="black" points="975.09,-112.5 975.09,-131.5 1097.09,-131.5 1097.09,-112.5 975.09,-112.5"/>
<text text-anchor="middle" x="1036.09" y="-119.5" font-family="Helvetica,sans-Serif" font-size="10.00">../Colors/ColorTypes.h</text>
</a>
</g>
</g>
<!-- Node11&#45;&gt;Node12 -->
<g id="edge17" class="edge">
<title>Node11&#45;&gt;Node12</title>
<path fill="none" stroke="midnightblue" d="M1051.95,-168.08C1049.41,-160.85 1045.73,-150.41 1042.56,-141.4"/>
<polygon fill="midnightblue" stroke="midnightblue" points="1045.79,-140.02 1039.17,-131.75 1039.19,-142.35 1045.79,-140.02"/>
</g>
<!-- Node13 -->
<g id="node13" class="node">
<title>Node13</title>
<g id="a_node13"><a xlink:title=" ">
<polygon fill="none" stroke="#bfbfbf" points="909.59,-112.5 909.59,-131.5 956.59,-131.5 956.59,-112.5 909.59,-112.5"/>
<text text-anchor="middle" x="933.09" y="-119.5" font-family="Helvetica,sans-Serif" font-size="10.00">vector</text>
</a>
</g>
</g>
<!-- Node11&#45;&gt;Node13 -->
<g id="edge22" class="edge">
<title>Node11&#45;&gt;Node13</title>
<path fill="none" stroke="midnightblue" d="M1035.76,-168.44C1015.77,-159.6 984.35,-145.69 961.53,-135.59"/>
<polygon fill="midnightblue" stroke="midnightblue" points="962.89,-132.36 952.33,-131.52 960.06,-138.76 962.89,-132.36"/>
</g>
<!-- Node12&#45;&gt;Node3 -->
<g id="edge18" class="edge">
<title>Node12&#45;&gt;Node3</title>
<path fill="none" stroke="midnightblue" d="M975.4,-112.44C897.36,-101.44 763.79,-82.61 695.7,-73.01"/>
<polygon fill="midnightblue" stroke="midnightblue" points="696.14,-69.54 685.75,-71.6 695.17,-76.47 696.14,-69.54"/>
</g>
<!-- Node12&#45;&gt;Node7 -->
<g id="edge19" class="edge">
<title>Node12&#45;&gt;Node7</title>
<path fill="none" stroke="midnightblue" d="M1062.24,-112.44C1090.11,-103.32 1134.44,-88.81 1165.49,-78.65"/>
<polygon fill="midnightblue" stroke="midnightblue" points="1166.65,-81.95 1175.07,-75.52 1164.48,-75.3 1166.65,-81.95"/>
</g>
<!-- Node12&#45;&gt;Node8 -->
<g id="edge20" class="edge">
<title>Node12&#45;&gt;Node8</title>
<path fill="none" stroke="midnightblue" d="M1045.74,-112.37C1066.49,-93.81 1115.58,-49.91 1141.83,-26.44"/>
<polygon fill="midnightblue" stroke="midnightblue" points="1144.36,-28.87 1149.48,-19.59 1139.7,-23.65 1144.36,-28.87"/>
</g>
<!-- Node14&#45;&gt;Node7 -->
<g id="edge26" class="edge">
<title>Node14&#45;&gt;Node7</title>
<path fill="none" stroke="midnightblue" d="M1461.68,-336.49C1482.89,-329.76 1508.95,-318.37 1526.09,-300 1547.1,-277.48 1550.09,-265.8 1550.09,-235 1550.09,-235 1550.09,-235 1550.09,-177 1550.09,-146.2 1550.09,-131.3 1526.09,-112 1486.24,-79.95 1342.39,-70.72 1260.04,-68.07"/>
<polygon fill="midnightblue" stroke="midnightblue" points="1259.93,-64.56 1249.83,-67.76 1259.72,-71.56 1259.93,-64.56"/>
</g>
<!-- Node14&#45;&gt;Node9 -->
<g id="edge25" class="edge">
<title>Node14&#45;&gt;Node9</title>
<path fill="none" stroke="midnightblue" d="M1419.32,-336.08C1413.53,-328.46 1405.03,-317.26 1397.95,-307.94"/>
<polygon fill="midnightblue" stroke="midnightblue" points="1400.57,-305.6 1391.74,-299.75 1394.99,-309.83 1400.57,-305.6"/>
</g>
<!-- Node15&#45;&gt;Node2 -->
<g id="edge59" class="edge">
<title>Node15&#45;&gt;Node2</title>
<path fill="none" stroke="midnightblue" d="M908.19,-401.07C779.51,-400.64 426.11,-395.63 135.09,-356 133.79,-355.82 132.47,-355.63 131.14,-355.41"/>
<polygon fill="midnightblue" stroke="midnightblue" points="131.35,-351.89 120.89,-353.53 130.09,-358.78 131.35,-351.89"/>
</g>
<!-- Node15&#45;&gt;Node3 -->
<g id="edge29" class="edge">
<title>Node15&#45;&gt;Node3</title>
<path fill="none" stroke="midnightblue" d="M921.07,-392.47C887.14,-384.3 835.71,-371.02 792.09,-356 784.51,-353.39 666.12,-303.86 659.09,-300 639.9,-289.48 588.25,-263.38 578.09,-244 548.07,-186.75 606.41,-114.81 636.59,-83.18"/>
<polygon fill="midnightblue" stroke="midnightblue" points="639.42,-85.29 643.92,-75.7 634.42,-80.39 639.42,-85.29"/>
</g>
<!-- Node15&#45;&gt;Node5 -->
<g id="edge77" class="edge">
<title>Node15&#45;&gt;Node5</title>
<path fill="none" stroke="midnightblue" d="M1007.92,-399.07C1057.4,-395.45 1134.29,-385.15 1194.09,-356 1261.44,-323.17 1279.38,-306.9 1320.09,-244 1329.25,-229.84 1334.71,-211.36 1337.76,-197.72"/>
<polygon fill="midnightblue" stroke="midnightblue" points="1341.25,-198.1 1339.78,-187.61 1334.39,-196.73 1341.25,-198.1"/>
</g>
<!-- Node15&#45;&gt;Node7 -->
<g id="edge30" class="edge">
<title>Node15&#45;&gt;Node7</title>
<path fill="none" stroke="midnightblue" d="M1007.74,-396.83C1143.72,-384.06 1512.09,-339.8 1512.09,-235 1512.09,-235 1512.09,-235 1512.09,-177 1512.09,-133.56 1478.07,-131.18 1439.09,-112 1382.26,-84.04 1309.91,-73.4 1259.98,-69.38"/>
<polygon fill="midnightblue" stroke="midnightblue" points="1260.22,-65.89 1249.99,-68.64 1259.71,-72.87 1260.22,-65.89"/>
</g>
<!-- Node15&#45;&gt;Node9 -->
<g id="edge57" class="edge">
<title>Node15&#45;&gt;Node9</title>
<path fill="none" stroke="midnightblue" d="M1007.63,-397.61C1065.96,-392.63 1165.28,-381.07 1247.09,-356 1269.33,-349.19 1326.02,-321.12 1359.42,-304.17"/>
<polygon fill="midnightblue" stroke="midnightblue" points="1361.25,-307.17 1368.57,-299.51 1358.07,-300.93 1361.25,-307.17"/>
</g>
<!-- Node15&#45;&gt;Node11 -->
<g id="edge76" class="edge">
<title>Node15&#45;&gt;Node11</title>
<path fill="none" stroke="midnightblue" d="M968.8,-392.38C987.63,-376.48 1026.07,-340.42 1041.09,-300 1053.87,-265.59 1055.76,-222.21 1055.65,-197.84"/>
<polygon fill="midnightblue" stroke="midnightblue" points="1059.14,-197.47 1055.47,-187.54 1052.14,-197.59 1059.14,-197.47"/>
</g>
<!-- Node15&#45;&gt;Node14 -->
<g id="edge58" class="edge">
<title>Node15&#45;&gt;Node14</title>
<path fill="none" stroke="midnightblue" d="M1007.73,-395.27C1094.12,-385.3 1271.81,-364.8 1365.39,-354"/>
<polygon fill="midnightblue" stroke="midnightblue" points="1366.01,-357.46 1375.55,-352.83 1365.21,-350.5 1366.01,-357.46"/>
</g>
<!-- Node16 -->
<g id="node16" class="node">
<title>Node16</title>
<g id="a_node16"><a xlink:href="PatternBuilder_8h.html" target="_top" xlink:title=" ">
<polygon fill="none" stroke="black" points="841.59,-336.5 841.59,-355.5 978.59,-355.5 978.59,-336.5 841.59,-336.5"/>
<text text-anchor="middle" x="910.09" y="-343.5" font-family="Helvetica,sans-Serif" font-size="10.00">Patterns/PatternBuilder.h</text>
</a>
</g>
</g>
<!-- Node15&#45;&gt;Node16 -->
<g id="edge31" class="edge">
<title>Node15&#45;&gt;Node16</title>
<path fill="none" stroke="midnightblue" d="M950.16,-392.08C943.24,-384.3 933.03,-372.8 924.64,-363.37"/>
<polygon fill="midnightblue" stroke="midnightblue" points="927.13,-360.9 917.87,-355.75 921.9,-365.55 927.13,-360.9"/>
</g>
<!-- Node18 -->
<g id="node18" class="node">
<title>Node18</title>
<g id="a_node18"><a xlink:href="IRReceiver_8h.html" target="_top" xlink:title=" ">
<polygon fill="none" stroke="black" points="215.09,-280.5 215.09,-299.5 337.09,-299.5 337.09,-280.5 215.09,-280.5"/>
<text text-anchor="middle" x="276.09" y="-287.5" font-family="Helvetica,sans-Serif" font-size="10.00">Wireless/IRReceiver.h</text>
</a>
</g>
</g>
<!-- Node15&#45;&gt;Node18 -->
<g id="edge34" class="edge">
<title>Node15&#45;&gt;Node18</title>
<path fill="none" stroke="midnightblue" d="M908.44,-396.05C838.53,-388.8 707.19,-374.16 596.09,-356 498.58,-340.06 385.51,-315.69 323.27,-301.77"/>
<polygon fill="midnightblue" stroke="midnightblue" points="323.89,-298.32 313.36,-299.54 322.35,-305.15 323.89,-298.32"/>
</g>
<!-- Node21 -->
<g id="node21" class="node">
<title>Node21</title>
<g id="a_node21"><a xlink:href="IRSender_8h.html" target="_top" xlink:title=" ">
<polygon fill="none" stroke="black" points="355.59,-280.5 355.59,-299.5 468.59,-299.5 468.59,-280.5 355.59,-280.5"/>
<text text-anchor="middle" x="412.09" y="-287.5" font-family="Helvetica,sans-Serif" font-size="10.00">Wireless/IRSender.h</text>
</a>
</g>
</g>
<!-- Node15&#45;&gt;Node21 -->
<g id="edge39" class="edge">
<title>Node15&#45;&gt;Node21</title>
<path fill="none" stroke="midnightblue" d="M908.11,-393.42C854.71,-385.1 767.67,-370.94 693.09,-356 608.74,-339.1 511.04,-315.61 455.91,-301.98"/>
<polygon fill="midnightblue" stroke="midnightblue" points="456.67,-298.57 446.12,-299.56 454.99,-305.36 456.67,-298.57"/>
</g>
<!-- Node22 -->
<g id="node22" class="node">
<title>Node22</title>
<g id="a_node22"><a xlink:href="VLReceiver_8h.html" target="_top" xlink:title=" ">
<polygon fill="none" stroke="black" points="486.59,-280.5 486.59,-299.5 611.59,-299.5 611.59,-280.5 486.59,-280.5"/>
<text text-anchor="middle" x="549.09" y="-287.5" font-family="Helvetica,sans-Serif" font-size="10.00">Wireless/VLReceiver.h</text>
</a>
</g>
</g>
<!-- Node15&#45;&gt;Node22 -->
<g id="edge43" class="edge">
<title>Node15&#45;&gt;Node22</title>
<path fill="none" stroke="midnightblue" d="M916.75,-392.47C876.74,-384.01 814.47,-370.26 761.09,-356 698.38,-339.25 626.32,-316.37 584.42,-302.7"/>
<polygon fill="midnightblue" stroke="midnightblue" points="585.29,-299.3 574.7,-299.51 583.11,-305.95 585.29,-299.3"/>
</g>
<!-- Node24 -->
<g id="node24" class="node">
<title>Node24</title>
<g id="a_node24"><a xlink:href="VLSender_8h.html" target="_top" xlink:title=" ">
<polygon fill="none" stroke="black" points="668.09,-280.5 668.09,-299.5 784.09,-299.5 784.09,-280.5 668.09,-280.5"/>
<text text-anchor="middle" x="726.09" y="-287.5" font-family="Helvetica,sans-Serif" font-size="10.00">Wireless/VLSender.h</text>
</a>
</g>
</g>
<!-- Node15&#45;&gt;Node24 -->
<g id="edge48" class="edge">
<title>Node15&#45;&gt;Node24</title>
<path fill="none" stroke="midnightblue" d="M928.88,-392.46C902.89,-384.42 864.15,-371.35 832.09,-356 801.05,-341.14 767.57,-319.58 746.72,-305.43"/>
<polygon fill="midnightblue" stroke="midnightblue" points="748.57,-302.45 738.34,-299.68 744.6,-308.23 748.57,-302.45"/>
</g>
<!-- Node25 -->
<g id="node25" class="node">
<title>Node25</title>
<g id="a_node25"><a xlink:href="Storage_8h.html" target="_top" xlink:title=" ">
<polygon fill="none" stroke="black" points="97.09,-168.5 97.09,-187.5 201.09,-187.5 201.09,-168.5 97.09,-168.5"/>
<text text-anchor="middle" x="149.09" y="-175.5" font-family="Helvetica,sans-Serif" font-size="10.00">Storage/Storage.h</text>
</a>
</g>
</g>
<!-- Node15&#45;&gt;Node25 -->
<g id="edge52" class="edge">
<title>Node15&#45;&gt;Node25</title>
<path fill="none" stroke="midnightblue" d="M908.39,-399.46C746.64,-394.27 243.97,-376.53 216.09,-356 164.52,-318.03 152.64,-235.28 149.91,-197.94"/>
<polygon fill="midnightblue" stroke="midnightblue" points="153.38,-197.31 149.3,-187.53 146.39,-197.72 153.38,-197.31"/>
</g>
<!-- Node26 -->
<g id="node26" class="node">
<title>Node26</title>
<g id="a_node26"><a xlink:href="Buttons_8h.html" target="_top" xlink:title=" ">
<polygon fill="none" stroke="black" points="225.09,-336.5 225.09,-355.5 329.09,-355.5 329.09,-336.5 225.09,-336.5"/>
<text text-anchor="middle" x="277.09" y="-343.5" font-family="Helvetica,sans-Serif" font-size="10.00">Buttons/Buttons.h</text>
</a>
</g>
</g>
<!-- Node15&#45;&gt;Node26 -->
<g id="edge54" class="edge">
<title>Node15&#45;&gt;Node26</title>
<path fill="none" stroke="midnightblue" d="M908.57,-397.07C786.86,-387.42 473.31,-362.56 339.31,-351.93"/>
<polygon fill="midnightblue" stroke="midnightblue" points="339.46,-348.43 329.21,-351.13 338.9,-355.41 339.46,-348.43"/>
</g>
<!-- Node28 -->
<g id="node28" class="node">
<title>Node28</title>
<g id="a_node28"><a xlink:href="Modes_8h.html" target="_top" xlink:title=" ">
<polygon fill="none" stroke="black" points="938.59,-280.5 938.59,-299.5 1031.59,-299.5 1031.59,-280.5 938.59,-280.5"/>
<text text-anchor="middle" x="985.09" y="-287.5" font-family="Helvetica,sans-Serif" font-size="10.00">Modes/Modes.h</text>
</a>
</g>
</g>
<!-- Node15&#45;&gt;Node28 -->
<g id="edge60" class="edge">
<title>Node15&#45;&gt;Node28</title>
<path fill="none" stroke="midnightblue" d="M966.3,-392.18C973.63,-383.66 983.85,-370.02 988.09,-356 992.65,-340.95 991.36,-323.04 989.24,-309.84"/>
<polygon fill="midnightblue" stroke="midnightblue" points="992.6,-308.8 987.29,-299.64 985.73,-310.12 992.6,-308.8"/>
</g>
<!-- Node29 -->
<g id="node29" class="node">
<title>Node29</title>
<g id="a_node29"><a xlink:href="Menus_8h.html" target="_top" xlink:title=" ">
<polygon fill="none" stroke="black" points="1073.59,-336.5 1073.59,-355.5 1166.59,-355.5 1166.59,-336.5 1073.59,-336.5"/>
<text text-anchor="middle" x="1120.09" y="-343.5" font-family="Helvetica,sans-Serif" font-size="10.00">Menus/Menus.h</text>
</a>
</g>
</g>
<!-- Node15&#45;&gt;Node29 -->
<g id="edge67" class="edge">
<title>Node15&#45;&gt;Node29</title>
<path fill="none" stroke="midnightblue" d="M983.76,-392.44C1011.01,-383.36 1054.27,-368.94 1084.74,-358.78"/>
<polygon fill="midnightblue" stroke="midnightblue" points="1086.16,-362 1094.54,-355.52 1083.95,-355.36 1086.16,-362"/>
</g>
<!-- Node30 -->
<g id="node30" class="node">
<title>Node30</title>
<g id="a_node30"><a xlink:href="Mode_8h.html" target="_top" xlink:title=" ">
<polygon fill="none" stroke="black" points="1132.59,-280.5 1132.59,-299.5 1229.59,-299.5 1229.59,-280.5 1132.59,-280.5"/>
<text text-anchor="middle" x="1181.09" y="-287.5" font-family="Helvetica,sans-Serif" font-size="10.00">../Modes/Mode.h</text>
</a>
</g>
</g>
<!-- Node15&#45;&gt;Node30 -->
<g id="edge75" class="edge">
<title>Node15&#45;&gt;Node30</title>
<path fill="none" stroke="midnightblue" d="M1007.77,-397.55C1065.11,-392.44 1154.35,-380.69 1176.09,-356 1186.95,-343.67 1187.1,-324.42 1185.2,-310.06"/>
<polygon fill="midnightblue" stroke="midnightblue" points="1188.57,-309.07 1183.39,-299.82 1181.68,-310.28 1188.57,-309.07"/>
</g>
<!-- Node17 -->
<g id="node17" class="node">
<title>Node17</title>
<g id="a_node17"><a xlink:href="Patterns_8h.html" target="_top" xlink:title=" ">
<polygon fill="none" stroke="black" points="891.59,-224.5 891.59,-243.5 956.59,-243.5 956.59,-224.5 891.59,-224.5"/>
<text text-anchor="middle" x="924.09" y="-231.5" font-family="Helvetica,sans-Serif" font-size="10.00">Patterns.h</text>
</a>
</g>
</g>
<!-- Node16&#45;&gt;Node17 -->
<g id="edge32" class="edge">
<title>Node16&#45;&gt;Node17</title>
<path fill="none" stroke="midnightblue" d="M911.19,-336.37C913.45,-318.62 918.66,-277.67 921.72,-253.6"/>
<polygon fill="midnightblue" stroke="midnightblue" points="925.21,-253.95 923,-243.59 918.26,-253.07 925.21,-253.95"/>
</g>
<!-- Node17&#45;&gt;Node3 -->
<g id="edge33" class="edge">
<title>Node17&#45;&gt;Node3</title>
<path fill="none" stroke="midnightblue" d="M901.65,-224.47C881.78,-216.44 852.4,-203.37 829.09,-188 786.51,-159.92 785.37,-140.54 743.09,-112 724.28,-99.3 701.37,-87.9 683.38,-79.75"/>
<polygon fill="midnightblue" stroke="midnightblue" points="684.51,-76.42 673.95,-75.57 681.67,-82.82 684.51,-76.42"/>
</g>
<!-- Node18&#45;&gt;Node3 -->
<g id="edge35" class="edge">
<title>Node18&#45;&gt;Node3</title>
<path fill="none" stroke="midnightblue" d="M275.15,-280.13C274.21,-266.74 274.28,-241.1 286.09,-224 343.54,-140.8 390.48,-150.21 484.09,-112 525.8,-94.98 575.92,-82.57 610.7,-75.15"/>
<polygon fill="midnightblue" stroke="midnightblue" points="611.45,-78.57 620.53,-73.1 610.02,-71.72 611.45,-78.57"/>
</g>
<!-- Node19 -->
<g id="node19" class="node">
<title>Node19</title>
<g id="a_node19"><a xlink:href="BitStream_8h.html" target="_top" xlink:title=" ">
<polygon fill="none" stroke="black" points="379.09,-224.5 379.09,-243.5 493.09,-243.5 493.09,-224.5 379.09,-224.5"/>
<text text-anchor="middle" x="436.09" y="-231.5" font-family="Helvetica,sans-Serif" font-size="10.00">../Serial/BitStream.h</text>
</a>
</g>
</g>
<!-- Node18&#45;&gt;Node19 -->
<g id="edge36" class="edge">
<title>Node18&#45;&gt;Node19</title>
<path fill="none" stroke="midnightblue" d="M301.44,-280.44C328.36,-271.36 371.09,-256.94 401.18,-246.78"/>
<polygon fill="midnightblue" stroke="midnightblue" points="402.5,-250.03 410.86,-243.52 400.26,-243.4 402.5,-250.03"/>
</g>
<!-- Node20 -->
<g id="node20" class="node">
<title>Node20</title>
<g id="a_node20"><a xlink:href="IRConfig_8h.html" target="_top" xlink:title=" ">
<polygon fill="none" stroke="black" points="295.09,-224.5 295.09,-243.5 361.09,-243.5 361.09,-224.5 295.09,-224.5"/>
<text text-anchor="middle" x="328.09" y="-231.5" font-family="Helvetica,sans-Serif" font-size="10.00">IRConfig.h</text>
</a>
</g>
</g>
<!-- Node18&#45;&gt;Node20 -->
<g id="edge38" class="edge">
<title>Node18&#45;&gt;Node20</title>
<path fill="none" stroke="midnightblue" d="M284.68,-280.08C292.25,-272.22 303.47,-260.57 312.61,-251.08"/>
<polygon fill="midnightblue" stroke="midnightblue" points="315.25,-253.38 319.66,-243.75 310.21,-248.53 315.25,-253.38"/>
</g>
<!-- Node19&#45;&gt;Node3 -->
<g id="edge37" class="edge">
<title>Node19&#45;&gt;Node3</title>
<path fill="none" stroke="midnightblue" d="M438.76,-224.2C445.96,-201.94 467.94,-142.99 507.09,-112 536.8,-88.48 578.81,-77.2 610.15,-71.82"/>
<polygon fill="midnightblue" stroke="midnightblue" points="611,-75.23 620.33,-70.21 609.91,-68.31 611,-75.23"/>
</g>
<!-- Node21&#45;&gt;Node4 -->
<g id="edge40" class="edge">
<title>Node21&#45;&gt;Node4</title>
<path fill="none" stroke="midnightblue" d="M463.27,-280.44C520.56,-270.87 613.33,-255.36 674.28,-245.17"/>
<polygon fill="midnightblue" stroke="midnightblue" points="674.86,-248.62 684.15,-243.52 673.71,-241.71 674.86,-248.62"/>
</g>
<!-- Node21&#45;&gt;Node19 -->
<g id="edge41" class="edge">
<title>Node21&#45;&gt;Node19</title>
<path fill="none" stroke="midnightblue" d="M416.05,-280.08C419.3,-272.77 424.01,-262.18 428.04,-253.1"/>
<polygon fill="midnightblue" stroke="midnightblue" points="431.34,-254.31 432.2,-243.75 424.94,-251.47 431.34,-254.31"/>
</g>
<!-- Node21&#45;&gt;Node20 -->
<g id="edge42" class="edge">
<title>Node21&#45;&gt;Node20</title>
<path fill="none" stroke="midnightblue" d="M398.59,-280.32C385.49,-271.9 365.38,-258.97 349.98,-249.07"/>
<polygon fill="midnightblue" stroke="midnightblue" points="351.86,-246.12 341.55,-243.65 348.07,-252.01 351.86,-246.12"/>
</g>
<!-- Node22&#45;&gt;Node3 -->
<g id="edge44" class="edge">
<title>Node22&#45;&gt;Node3</title>
<path fill="none" stroke="midnightblue" d="M545.72,-280.31C535.66,-252.83 508.77,-166.47 545.09,-112 559.68,-90.11 587.15,-78.85 610.73,-73.07"/>
<polygon fill="midnightblue" stroke="midnightblue" points="611.53,-76.48 620.55,-70.91 610.03,-69.64 611.53,-76.48"/>
</g>
<!-- Node22&#45;&gt;Node19 -->
<g id="edge45" class="edge">
<title>Node22&#45;&gt;Node19</title>
<path fill="none" stroke="midnightblue" d="M531.19,-280.44C512.84,-271.68 484.09,-257.94 463,-247.86"/>
<polygon fill="midnightblue" stroke="midnightblue" points="464.44,-244.67 453.91,-243.52 461.43,-250.99 464.44,-244.67"/>
</g>
<!-- Node23 -->
<g id="node23" class="node">
<title>Node23</title>
<g id="a_node23"><a xlink:href="VLConfig_8h.html" target="_top" xlink:title=" ">
<polygon fill="none" stroke="black" points="587.09,-224.5 587.09,-243.5 655.09,-243.5 655.09,-224.5 587.09,-224.5"/>
<text text-anchor="middle" x="621.09" y="-231.5" font-family="Helvetica,sans-Serif" font-size="10.00">VLConfig.h</text>
</a>
</g>
</g>
<!-- Node22&#45;&gt;Node23 -->
<g id="edge46" class="edge">
<title>Node22&#45;&gt;Node23</title>
<path fill="none" stroke="midnightblue" d="M560.66,-280.32C571.51,-272.18 587.97,-259.84 600.97,-250.09"/>
<polygon fill="midnightblue" stroke="midnightblue" points="603.41,-252.63 609.31,-243.83 599.21,-247.03 603.41,-252.63"/>
</g>
<!-- Node23&#45;&gt;Node7 -->
<g id="edge47" class="edge">
<title>Node23&#45;&gt;Node7</title>
<path fill="none" stroke="midnightblue" d="M636.9,-224.38C678.59,-202.04 795.53,-141.93 900.09,-112 982.32,-88.46 1080.92,-76.7 1142.3,-71.23"/>
<polygon fill="midnightblue" stroke="midnightblue" points="1142.91,-74.69 1152.57,-70.34 1142.3,-67.72 1142.91,-74.69"/>
</g>
<!-- Node24&#45;&gt;Node4 -->
<g id="edge49" class="edge">
<title>Node24&#45;&gt;Node4</title>
<path fill="none" stroke="midnightblue" d="M727.58,-280.08C728.77,-272.93 730.48,-262.64 731.98,-253.69"/>
<polygon fill="midnightblue" stroke="midnightblue" points="735.44,-254.19 733.63,-243.75 728.54,-253.04 735.44,-254.19"/>
</g>
<!-- Node24&#45;&gt;Node19 -->
<g id="edge50" class="edge">
<title>Node24&#45;&gt;Node19</title>
<path fill="none" stroke="midnightblue" d="M680.14,-280.44C629.02,-270.92 546.44,-255.55 491.71,-245.36"/>
<polygon fill="midnightblue" stroke="midnightblue" points="492.3,-241.91 481.83,-243.52 491.02,-248.79 492.3,-241.91"/>
</g>
<!-- Node24&#45;&gt;Node23 -->
<g id="edge51" class="edge">
<title>Node24&#45;&gt;Node23</title>
<path fill="none" stroke="midnightblue" d="M709.22,-280.32C692.38,-271.66 666.28,-258.24 646.85,-248.25"/>
<polygon fill="midnightblue" stroke="midnightblue" points="648.41,-245.12 637.92,-243.65 645.21,-251.34 648.41,-245.12"/>
</g>
<!-- Node25&#45;&gt;Node3 -->
<g id="edge53" class="edge">
<title>Node25&#45;&gt;Node3</title>
<path fill="none" stroke="midnightblue" d="M161.22,-168.29C181.98,-153.88 226.14,-125.35 268.09,-112 388.04,-73.82 538.24,-67.41 610.45,-66.73"/>
<polygon fill="midnightblue" stroke="midnightblue" points="610.55,-70.23 620.53,-66.66 610.51,-63.23 610.55,-70.23"/>
</g>
<!-- Node27 -->
<g id="node27" class="node">
<title>Node27</title>
<g id="a_node27"><a xlink:href="Button_8h.html" target="_top" xlink:title=" ">
<polygon fill="none" stroke="black" points="219.09,-168.5 219.09,-187.5 277.09,-187.5 277.09,-168.5 219.09,-168.5"/>
<text text-anchor="middle" x="248.09" y="-175.5" font-family="Helvetica,sans-Serif" font-size="10.00">Button.h</text>
</a>
</g>
</g>
<!-- Node26&#45;&gt;Node27 -->
<g id="edge55" class="edge">
<title>Node26&#45;&gt;Node27</title>
<path fill="none" stroke="midnightblue" d="M251.93,-336.38C235.67,-329.34 215.8,-317.65 206.09,-300 186.81,-264.95 215.37,-219.4 234.05,-195.43"/>
<polygon fill="midnightblue" stroke="midnightblue" points="236.8,-197.6 240.38,-187.63 231.36,-193.19 236.8,-197.6"/>
</g>
<!-- Node27&#45;&gt;Node3 -->
<g id="edge56" class="edge">
<title>Node27&#45;&gt;Node3</title>
<path fill="none" stroke="midnightblue" d="M251.18,-168.05C256.69,-153.57 269.7,-125.26 291.09,-112 343.61,-79.44 526.43,-70.37 610.36,-67.9"/>
<polygon fill="midnightblue" stroke="midnightblue" points="610.67,-71.39 620.57,-67.62 610.48,-64.39 610.67,-71.39"/>
</g>
<!-- Node28&#45;&gt;Node3 -->
<g id="edge66" class="edge">
<title>Node28&#45;&gt;Node3</title>
<path fill="none" stroke="midnightblue" d="M961.98,-280.39C940.7,-272.11 908.51,-258.72 882.09,-244 843.86,-222.7 836.06,-214.32 801.09,-188 752.79,-151.65 698.29,-105.77 670.87,-82.32"/>
<polygon fill="midnightblue" stroke="midnightblue" points="673.14,-79.65 663.27,-75.8 668.58,-84.97 673.14,-79.65"/>
</g>
<!-- Node28&#45;&gt;Node4 -->
<g id="edge61" class="edge">
<title>Node28&#45;&gt;Node4</title>
<path fill="none" stroke="midnightblue" d="M945.48,-280.44C901.87,-271.02 831.69,-255.87 784.51,-245.68"/>
<polygon fill="midnightblue" stroke="midnightblue" points="785.03,-242.21 774.52,-243.52 783.55,-249.05 785.03,-242.21"/>
</g>
<!-- Node28&#45;&gt;Node7 -->
<g id="edge65" class="edge">
<title>Node28&#45;&gt;Node7</title>
<path fill="none" stroke="midnightblue" d="M997.14,-280.29C1019.73,-263.66 1069.5,-225.7 1106.09,-188 1139.26,-153.82 1172.32,-108.55 1189.32,-84.22"/>
<polygon fill="midnightblue" stroke="midnightblue" points="1192.4,-85.93 1195.21,-75.71 1186.64,-81.94 1192.4,-85.93"/>
</g>
<!-- Node28&#45;&gt;Node11 -->
<g id="edge64" class="edge">
<title>Node28&#45;&gt;Node11</title>
<path fill="none" stroke="midnightblue" d="M990.58,-280.37C1002.08,-262.3 1028.89,-220.18 1044.08,-196.31"/>
<polygon fill="midnightblue" stroke="midnightblue" points="1047.21,-197.91 1049.62,-187.59 1041.3,-194.15 1047.21,-197.91"/>
</g>
<!-- Node28&#45;&gt;Node12 -->
<g id="edge62" class="edge">
<title>Node28&#45;&gt;Node12</title>
<path fill="none" stroke="midnightblue" d="M985.24,-280.44C985.85,-260.16 989,-207.89 1005.09,-168 1009.21,-157.79 1015.96,-147.59 1022.12,-139.49"/>
<polygon fill="midnightblue" stroke="midnightblue" points="1024.9,-141.62 1028.41,-131.62 1019.43,-137.25 1024.9,-141.62"/>
</g>
<!-- Node28&#45;&gt;Node17 -->
<g id="edge63" class="edge">
<title>Node28&#45;&gt;Node17</title>
<path fill="none" stroke="midnightblue" d="M975.29,-280.32C966.27,-272.34 952.68,-260.31 941.77,-250.65"/>
<polygon fill="midnightblue" stroke="midnightblue" points="943.88,-247.84 934.07,-243.83 939.24,-253.08 943.88,-247.84"/>
</g>
<!-- Node29&#45;&gt;Node3 -->
<g id="edge68" class="edge">
<title>Node29&#45;&gt;Node3</title>
<path fill="none" stroke="midnightblue" d="M1073.32,-338.68C1033.94,-332.25 976.72,-320.28 930.09,-300 872.87,-275.11 748.74,-176.59 705.09,-132 690.31,-116.9 675.44,-97.83 665.42,-84.27"/>
<polygon fill="midnightblue" stroke="midnightblue" points="668.02,-81.9 659.31,-75.87 662.36,-86.02 668.02,-81.9"/>
</g>
<!-- Node29&#45;&gt;Node10 -->
<g id="edge70" class="edge">
<title>Node29&#45;&gt;Node10</title>
<path fill="none" stroke="midnightblue" d="M1166.65,-337.7C1191.29,-331.55 1220.26,-320.34 1239.09,-300 1250.69,-287.47 1255.24,-268.25 1257.01,-253.95"/>
<polygon fill="midnightblue" stroke="midnightblue" points="1260.52,-254.04 1257.91,-243.77 1253.54,-253.42 1260.52,-254.04"/>
</g>
<!-- Node29&#45;&gt;Node12 -->
<g id="edge69" class="edge">
<title>Node29&#45;&gt;Node12</title>
<path fill="none" stroke="midnightblue" d="M1120.4,-336.36C1121.36,-304.91 1123.34,-196.83 1106.09,-168 1097.59,-153.8 1082.68,-143.29 1068.8,-136.02"/>
<polygon fill="midnightblue" stroke="midnightblue" points="1069.97,-132.7 1059.45,-131.5 1066.92,-139.01 1069.97,-132.7"/>
</g>
<!-- Node29&#45;&gt;Node30 -->
<g id="edge71" class="edge">
<title>Node29&#45;&gt;Node30</title>
<path fill="none" stroke="midnightblue" d="M1129.89,-336.32C1138.91,-328.34 1152.5,-316.31 1163.41,-306.65"/>
<polygon fill="midnightblue" stroke="midnightblue" points="1165.94,-309.08 1171.11,-299.83 1161.3,-303.84 1165.94,-309.08"/>
</g>
<!-- Node30&#45;&gt;Node7 -->
<g id="edge74" class="edge">
<title>Node30&#45;&gt;Node7</title>
<path fill="none" stroke="midnightblue" d="M1181.87,-280.3C1184.82,-247.63 1195.25,-131.87 1199.38,-85.96"/>
<polygon fill="midnightblue" stroke="midnightblue" points="1202.88,-86.16 1200.29,-75.88 1195.91,-85.53 1202.88,-86.16"/>
</g>
<!-- Node30&#45;&gt;Node10 -->
<g id="edge72" class="edge">
<title>Node30&#45;&gt;Node10</title>
<path fill="none" stroke="midnightblue" d="M1193.46,-280.32C1205.25,-272.06 1223.22,-259.45 1237.23,-249.63"/>
<polygon fill="midnightblue" stroke="midnightblue" points="1239.57,-252.26 1245.75,-243.65 1235.55,-246.53 1239.57,-252.26"/>
</g>
<!-- Node30&#45;&gt;Node17 -->
<g id="edge73" class="edge">
<title>Node30&#45;&gt;Node17</title>
<path fill="none" stroke="midnightblue" d="M1140.37,-280.44C1092.93,-270.48 1014.92,-254.09 966.69,-243.95"/>
<polygon fill="midnightblue" stroke="midnightblue" points="967.38,-240.52 956.88,-241.89 965.94,-247.37 967.38,-240.52"/>
</g>
</g>
</svg>
        <g id="navigator" transform="translate(0 0)" fill="#404254">
                <rect fill="#f2f5e9" fill-opacity="0.5" stroke="#606060" stroke-width=".5" x="0" y="0" width="60" height="60"/>
                <use id="zoomplus" xlink:href="#zoomPlus" x="17" y="9" onmousedown="handleZoom(evt,'in')"/>
                <use id="zoomminus" xlink:href="#zoomMin" x="42" y="9" onmousedown="handleZoom(evt,'out')"/>
                <use id="reset" xlink:href="#resetDef" x="30" y="36" onmousedown="handleReset()"/>
                <g id="arrowUp" xlink:href="#dirArrow" transform="translate(30 24)" onmousedown="handlePan(0,-1)">
                  <use xlink:href="#rim" fill="#404040">
                        <set attributeName="fill" to="#808080" begin="arrowUp.mouseover" end="arrowUp.mouseout"/>
                  </use>
                  <path fill="none" stroke="white" stroke-width="1.5" d="M0,-3.0v7 M-2.5,-0.5L0,-3.0L2.5,-0.5"/>
                </g>
                <g id="arrowRight" xlink:href="#dirArrow" transform="rotate(90) translate(36 -43)" onmousedown="handlePan(1,0)">
                  <use xlink:href="#rim" fill="#404040">
                        <set attributeName="fill" to="#808080" begin="arrowRight.mouseover" end="arrowRight.mouseout"/>
                  </use>
                  <path fill="none" stroke="white" stroke-width="1.5" d="M0,-3.0v7 M-2.5,-0.5L0,-3.0L2.5,-0.5"/>
                </g>
                <g id="arrowDown" xlink:href="#dirArrow" transform="rotate(180) translate(-30 -48)" onmousedown="handlePan(0,1)">
                  <use xlink:href="#rim" fill="#404040">
                        <set attributeName="fill" to="#808080" begin="arrowDown.mouseover" end="arrowDown.mouseout"/>
                  </use>
                  <path fill="none" stroke="white" stroke-width="1.5" d="M0,-3.0v7 M-2.5,-0.5L0,-3.0L2.5,-0.5"/>
                </g>
                <g id="arrowLeft" xlink:href="#dirArrow" transform="rotate(270) translate(-36 17)" onmousedown="handlePan(-1,0)">
                  <use xlink:href="#rim" fill="#404040">
                        <set attributeName="fill" to="#808080" begin="arrowLeft.mouseover" end="arrowLeft.mouseout"/>
                  </use>
                  <path fill="none" stroke="white" stroke-width="1.5" d="M0,-3.0v7 M-2.5,-0.5L0,-3.0L2.5,-0.5"/>
                </g>
        </g>
        <svg viewBox="0 0 15 15" width="100%" height="30px" preserveAspectRatio="xMaxYMin meet">
         <g id="arrow_out" transform="scale(0.3 0.3)">
          <a xlink:href="Serial_8cpp__incl_org.svg" target="_base">
           <rect id="button" ry="5" rx="5" y="6" x="6" height="38" width="38"
                fill="#f2f5e9" fill-opacity="0.5" stroke="#606060" stroke-width="1.0"/>
           <path id="arrow"
             d="M 11.500037,31.436501 C 11.940474,20.09759 22.043105,11.32322 32.158766,21.979434 L 37.068811,17.246167 C 37.068811,17.246167 37.088388,32 37.088388,32 L 22.160133,31.978069 C 22.160133,31.978069 26.997745,27.140456 26.997745,27.140456 C 18.528582,18.264221 13.291696,25.230495 11.500037,31.436501 z"
             style="fill:#404040;"/>
          </a>
         </g>
        </svg>
</svg>
