<?xml version="1.0" encoding="UTF-8" standalone="no"?>
<!DOCTYPE svg PUBLIC "-//W3C//DTD SVG 1.1//EN"
 "http://www.w3.org/Graphics/SVG/1.1/DTD/svg11.dtd">
<!-- Generated by graphviz version 2.43.0 (0)
 -->
<!-- Title: VortexEngine/src/Serial/Serial.cpp Pages: 1 -->
<svg width="1677pt" height="487pt"
 viewBox="0.00 0.00 1676.50 487.00" xmlns="http://www.w3.org/2000/svg" xmlns:xlink="http://www.w3.org/1999/xlink">
<g id="graph0" class="graph" transform="scale(1 1) rotate(0) translate(4 483)">
<title>VortexEngine/src/Serial/Serial.cpp</title>
<!-- Node1 -->
<g id="node1" class="node">
<title>Node1</title>
<g id="a_node1"><a xlink:title=" ">
<polygon fill="#bfbfbf" stroke="black" points="465.5,-448.5 465.5,-478.5 594.5,-478.5 594.5,-448.5 465.5,-448.5"/>
<text text-anchor="start" x="473.5" y="-466.5" font-family="Helvetica,sans-Serif" font-size="10.00">VortexEngine/src/Serial</text>
<text text-anchor="middle" x="530" y="-455.5" font-family="Helvetica,sans-Serif" font-size="10.00">/Serial.cpp</text>
</a>
</g>
</g>
<!-- Node2 -->
<g id="node2" class="node">
<title>Node2</title>
<g id="a_node2"><a xlink:href="Serial_8h.html" target="_top" xlink:title=" ">
<polygon fill="none" stroke="black" points="1615.5,-336.5 1615.5,-355.5 1668.5,-355.5 1668.5,-336.5 1615.5,-336.5"/>
<text text-anchor="middle" x="1642" y="-343.5" font-family="Helvetica,sans-Serif" font-size="10.00">Serial.h</text>
</a>
</g>
</g>
<!-- Node1&#45;&gt;Node2 -->
<g id="edge1" class="edge">
<title>Node1&#45;&gt;Node2</title>
<path fill="none" stroke="midnightblue" d="M594.73,-459.42C761.27,-450.8 1218.06,-422.63 1605.36,-355.85"/>
<polygon fill="midnightblue" stroke="midnightblue" points="1606.1,-359.28 1615.36,-354.12 1604.9,-352.38 1606.1,-359.28"/>
</g>
<!-- Node4 -->
<g id="node4" class="node">
<title>Node4</title>
<g id="a_node4"><a xlink:href="ByteStream_8h.html" target="_top" xlink:title=" ">
<polygon fill="none" stroke="black" points="872.5,-224.5 872.5,-243.5 995.5,-243.5 995.5,-224.5 872.5,-224.5"/>
<text text-anchor="middle" x="934" y="-231.5" font-family="Helvetica,sans-Serif" font-size="10.00">../Serial/ByteStream.h</text>
</a>
</g>
</g>
<!-- Node1&#45;&gt;Node4 -->
<g id="edge3" class="edge">
<title>Node1&#45;&gt;Node4</title>
<path fill="none" stroke="midnightblue" d="M594.7,-459.14C649.73,-454.21 729.67,-442.04 793,-412 828.06,-395.37 843.33,-391.05 860,-356 874.51,-325.49 844.34,-309.39 861,-280 869.25,-265.44 884.33,-255 898.64,-247.85"/>
<polygon fill="midnightblue" stroke="midnightblue" points="900.23,-250.98 907.86,-243.63 897.32,-244.61 900.23,-250.98"/>
</g>
<!-- Node5 -->
<g id="node5" class="node">
<title>Node5</title>
<g id="a_node5"><a xlink:href="Log_8h.html" target="_top" xlink:title=" ">
<polygon fill="none" stroke="black" points="287,-168.5 287,-187.5 359,-187.5 359,-168.5 287,-168.5"/>
<text text-anchor="middle" x="323" y="-175.5" font-family="Helvetica,sans-Serif" font-size="10.00">../Log/Log.h</text>
</a>
</g>
</g>
<!-- Node1&#45;&gt;Node5 -->
<g id="edge30" class="edge">
<title>Node1&#45;&gt;Node5</title>
<path fill="none" stroke="midnightblue" d="M465.28,-461.86C323.89,-458.72 0,-441.23 0,-347 0,-347 0,-347 0,-289 0,-231.23 187.46,-197.64 276.76,-184.92"/>
<polygon fill="midnightblue" stroke="midnightblue" points="277.47,-188.35 286.89,-183.5 276.5,-181.42 277.47,-188.35"/>
</g>
<!-- Node10 -->
<g id="node10" class="node">
<title>Node10</title>
<g id="a_node10"><a xlink:href="TimeControl_8h.html" target="_top" xlink:title=" ">
<polygon fill="none" stroke="black" points="183,-280.5 183,-299.5 305,-299.5 305,-280.5 183,-280.5"/>
<text text-anchor="middle" x="244" y="-287.5" font-family="Helvetica,sans-Serif" font-size="10.00">../Time/TimeControl.h</text>
</a>
</g>
</g>
<!-- Node1&#45;&gt;Node10 -->
<g id="edge12" class="edge">
<title>Node1&#45;&gt;Node10</title>
<path fill="none" stroke="midnightblue" d="M474.82,-448.49C421.8,-432.87 341.74,-403.36 286,-356 270.84,-343.12 259.17,-323.39 252.02,-309.05"/>
<polygon fill="midnightblue" stroke="midnightblue" points="255.06,-307.29 247.63,-299.73 248.72,-310.27 255.06,-307.29"/>
</g>
<!-- Node15 -->
<g id="node15" class="node">
<title>Node15</title>
<g id="a_node15"><a xlink:href="Timings_8h.html" target="_top" xlink:title=" ">
<polygon fill="none" stroke="black" points="28.5,-336.5 28.5,-355.5 129.5,-355.5 129.5,-336.5 28.5,-336.5"/>
<text text-anchor="middle" x="79" y="-343.5" font-family="Helvetica,sans-Serif" font-size="10.00">../Time/Timings.h</text>
</a>
</g>
</g>
<!-- Node1&#45;&gt;Node15 -->
<g id="edge27" class="edge">
<title>Node1&#45;&gt;Node15</title>
<path fill="none" stroke="midnightblue" d="M465.3,-455.87C404.48,-448.61 311.33,-434.85 233,-412 186.45,-398.42 135.05,-374.87 104.97,-360.15"/>
<polygon fill="midnightblue" stroke="midnightblue" points="106.14,-356.83 95.62,-355.53 103.03,-363.1 106.14,-356.83"/>
</g>
<!-- Node16 -->
<g id="node16" class="node">
<title>Node16</title>
<g id="a_node16"><a xlink:href="VortexEngine_8h.html" target="_top" xlink:title=" ">
<polygon fill="none" stroke="black" points="685.5,-392.5 685.5,-411.5 784.5,-411.5 784.5,-392.5 685.5,-392.5"/>
<text text-anchor="middle" x="735" y="-399.5" font-family="Helvetica,sans-Serif" font-size="10.00">../VortexEngine.h</text>
</a>
</g>
</g>
<!-- Node1&#45;&gt;Node16 -->
<g id="edge31" class="edge">
<title>Node1&#45;&gt;Node16</title>
<path fill="none" stroke="midnightblue" d="M578.32,-448.47C614.15,-438.08 662.38,-424.08 695.82,-414.37"/>
<polygon fill="midnightblue" stroke="midnightblue" points="697.06,-417.66 705.69,-411.51 695.11,-410.93 697.06,-417.66"/>
</g>
<!-- Node3 -->
<g id="node3" class="node">
<title>Node3</title>
<g id="a_node3"><a xlink:title=" ">
<polygon fill="none" stroke="#bfbfbf" points="966.5,-56.5 966.5,-75.5 1031.5,-75.5 1031.5,-56.5 966.5,-56.5"/>
<text text-anchor="middle" x="999" y="-63.5" font-family="Helvetica,sans-Serif" font-size="10.00">inttypes.h</text>
</a>
</g>
</g>
<!-- Node2&#45;&gt;Node3 -->
<g id="edge2" class="edge">
<title>Node2&#45;&gt;Node3</title>
<path fill="none" stroke="midnightblue" d="M1641.87,-336.44C1641.6,-317.94 1641,-272.81 1641,-235 1641,-235 1641,-235 1641,-177 1641,-101.48 1557.31,-130.14 1484,-112 1324.23,-72.47 1127.06,-67.04 1041.71,-66.7"/>
<polygon fill="midnightblue" stroke="midnightblue" points="1041.63,-63.2 1031.62,-66.69 1041.61,-70.2 1041.63,-63.2"/>
</g>
<!-- Node4&#45;&gt;Node3 -->
<g id="edge4" class="edge">
<title>Node4&#45;&gt;Node3</title>
<path fill="none" stroke="midnightblue" d="M940.96,-224.48C954.05,-207.88 982.13,-169.53 994,-132 998.75,-116.98 999.81,-99.07 999.79,-85.86"/>
<polygon fill="midnightblue" stroke="midnightblue" points="1003.29,-85.57 999.56,-75.65 996.29,-85.73 1003.29,-85.57"/>
</g>
<!-- Node4&#45;&gt;Node5 -->
<g id="edge5" class="edge">
<title>Node4&#45;&gt;Node5</title>
<path fill="none" stroke="midnightblue" d="M872.45,-225.03C869.25,-224.67 866.09,-224.32 863,-224 680.57,-204.85 462.77,-188.76 369.31,-182.19"/>
<polygon fill="midnightblue" stroke="midnightblue" points="369.29,-178.68 359.07,-181.47 368.8,-185.66 369.29,-178.68"/>
</g>
<!-- Node6 -->
<g id="node6" class="node">
<title>Node6</title>
<g id="a_node6"><a xlink:title=" ">
<polygon fill="none" stroke="#bfbfbf" points="386,-112.5 386,-131.5 442,-131.5 442,-112.5 386,-112.5"/>
<text text-anchor="middle" x="414" y="-119.5" font-family="Helvetica,sans-Serif" font-size="10.00">stdarg.h</text>
</a>
</g>
</g>
<!-- Node5&#45;&gt;Node6 -->
<g id="edge6" class="edge">
<title>Node5&#45;&gt;Node6</title>
<path fill="none" stroke="midnightblue" d="M337.62,-168.32C351.95,-159.82 374.01,-146.73 390.75,-136.8"/>
<polygon fill="midnightblue" stroke="midnightblue" points="392.6,-139.77 399.42,-131.65 389.03,-133.75 392.6,-139.77"/>
</g>
<!-- Node7 -->
<g id="node7" class="node">
<title>Node7</title>
<g id="a_node7"><a xlink:href="VortexConfig_8h.html" target="_top" xlink:title=" ">
<polygon fill="none" stroke="black" points="221.5,-56.5 221.5,-75.5 318.5,-75.5 318.5,-56.5 221.5,-56.5"/>
<text text-anchor="middle" x="270" y="-63.5" font-family="Helvetica,sans-Serif" font-size="10.00">../VortexConfig.h</text>
</a>
</g>
</g>
<!-- Node5&#45;&gt;Node7 -->
<g id="edge7" class="edge">
<title>Node5&#45;&gt;Node7</title>
<path fill="none" stroke="midnightblue" d="M294.98,-168.4C277.83,-161.51 257.25,-149.98 247,-132 238.33,-116.79 247.07,-97.75 256.16,-84.21"/>
<polygon fill="midnightblue" stroke="midnightblue" points="259.21,-85.97 262.3,-75.84 253.57,-81.83 259.21,-85.97"/>
</g>
<!-- Node9 -->
<g id="node9" class="node">
<title>Node9</title>
<g id="a_node9"><a xlink:href="ErrorBlinker_8h.html" target="_top" xlink:title=" ">
<polygon fill="none" stroke="black" points="256.5,-112.5 256.5,-131.5 367.5,-131.5 367.5,-112.5 256.5,-112.5"/>
<text text-anchor="middle" x="312" y="-119.5" font-family="Helvetica,sans-Serif" font-size="10.00">../Log/ErrorBlinker.h</text>
</a>
</g>
</g>
<!-- Node5&#45;&gt;Node9 -->
<g id="edge9" class="edge">
<title>Node5&#45;&gt;Node9</title>
<path fill="none" stroke="midnightblue" d="M321.18,-168.08C319.73,-160.93 317.63,-150.64 315.81,-141.69"/>
<polygon fill="midnightblue" stroke="midnightblue" points="319.21,-140.85 313.78,-131.75 312.35,-142.25 319.21,-140.85"/>
</g>
<!-- Node8 -->
<g id="node8" class="node">
<title>Node8</title>
<g id="a_node8"><a xlink:href="ColorConstants_8h.html" target="_top" xlink:title=" ">
<polygon fill="none" stroke="black" points="397,-0.5 397,-19.5 531,-19.5 531,-0.5 397,-0.5"/>
<text text-anchor="middle" x="464" y="-7.5" font-family="Helvetica,sans-Serif" font-size="10.00">Colors/ColorConstants.h</text>
</a>
</g>
</g>
<!-- Node7&#45;&gt;Node8 -->
<g id="edge8" class="edge">
<title>Node7&#45;&gt;Node8</title>
<path fill="none" stroke="midnightblue" d="M300.74,-56.44C333.94,-47.2 386.99,-32.44 423.56,-22.26"/>
<polygon fill="midnightblue" stroke="midnightblue" points="424.71,-25.57 433.4,-19.52 422.83,-18.83 424.71,-25.57"/>
</g>
<!-- Node9&#45;&gt;Node3 -->
<g id="edge10" class="edge">
<title>Node9&#45;&gt;Node3</title>
<path fill="none" stroke="midnightblue" d="M367.64,-113.05C370.8,-112.68 373.94,-112.32 377,-112 594.09,-89.14 855.03,-74.38 956.1,-69.14"/>
<polygon fill="midnightblue" stroke="midnightblue" points="956.42,-72.62 966.23,-68.61 956.06,-65.63 956.42,-72.62"/>
</g>
<!-- Node9&#45;&gt;Node7 -->
<g id="edge11" class="edge">
<title>Node9&#45;&gt;Node7</title>
<path fill="none" stroke="midnightblue" d="M305.06,-112.08C299.07,-104.38 290.25,-93.03 282.95,-83.65"/>
<polygon fill="midnightblue" stroke="midnightblue" points="285.71,-81.5 276.81,-75.75 280.18,-85.79 285.71,-81.5"/>
</g>
<!-- Node10&#45;&gt;Node3 -->
<g id="edge13" class="edge">
<title>Node10&#45;&gt;Node3</title>
<path fill="none" stroke="midnightblue" d="M298.6,-280.47C345.71,-272.61 415.36,-259.79 475,-244 625.54,-204.13 661.91,-188.57 807,-132 827.39,-124.05 831.5,-119.66 852,-112 886.89,-98.96 927.42,-86.77 957.08,-78.37"/>
<polygon fill="midnightblue" stroke="midnightblue" points="958.4,-81.63 967.09,-75.56 956.51,-74.89 958.4,-81.63"/>
</g>
<!-- Node10&#45;&gt;Node7 -->
<g id="edge14" class="edge">
<title>Node10&#45;&gt;Node7</title>
<path fill="none" stroke="midnightblue" d="M194.23,-280.45C173.17,-274.1 150.63,-263.09 138,-244 105.62,-195.08 103.86,-159.71 138,-112 154.68,-88.69 184.16,-77.32 211.03,-71.82"/>
<polygon fill="midnightblue" stroke="midnightblue" points="211.95,-75.21 221.17,-69.99 210.71,-68.33 211.95,-75.21"/>
</g>
<!-- Node11 -->
<g id="node11" class="node">
<title>Node11</title>
<g id="a_node11"><a xlink:href="LedTypes_8h.html" target="_top" xlink:title=" ">
<polygon fill="none" stroke="black" points="361.5,-224.5 361.5,-243.5 466.5,-243.5 466.5,-224.5 361.5,-224.5"/>
<text text-anchor="middle" x="414" y="-231.5" font-family="Helvetica,sans-Serif" font-size="10.00">../Leds/LedTypes.h</text>
</a>
</g>
</g>
<!-- Node10&#45;&gt;Node11 -->
<g id="edge15" class="edge">
<title>Node10&#45;&gt;Node11</title>
<path fill="none" stroke="midnightblue" d="M270.94,-280.44C299.66,-271.32 345.33,-256.81 377.32,-246.65"/>
<polygon fill="midnightblue" stroke="midnightblue" points="378.72,-249.88 387.19,-243.52 376.6,-243.21 378.72,-249.88"/>
</g>
<!-- Node11&#45;&gt;Node3 -->
<g id="edge16" class="edge">
<title>Node11&#45;&gt;Node3</title>
<path fill="none" stroke="midnightblue" d="M449.53,-224.46C485.18,-215.77 541.59,-201.67 590,-188 671.04,-165.12 692.42,-162.27 771,-132 790.67,-124.42 794.11,-118.97 814,-112 861.62,-95.32 918.23,-82.53 956.17,-74.92"/>
<polygon fill="midnightblue" stroke="midnightblue" points="957.22,-78.28 966.36,-72.92 955.87,-71.42 957.22,-78.28"/>
</g>
<!-- Node11&#45;&gt;Node6 -->
<g id="edge17" class="edge">
<title>Node11&#45;&gt;Node6</title>
<path fill="none" stroke="midnightblue" d="M414,-224.37C414,-206.62 414,-165.67 414,-141.6"/>
<polygon fill="midnightblue" stroke="midnightblue" points="417.5,-141.59 414,-131.59 410.5,-141.59 417.5,-141.59"/>
</g>
<!-- Node11&#45;&gt;Node7 -->
<g id="edge26" class="edge">
<title>Node11&#45;&gt;Node7</title>
<path fill="none" stroke="midnightblue" d="M363.09,-224.43C335.81,-217.91 302.8,-206.74 278,-188 247.87,-165.23 229.06,-148.14 240,-112 243.12,-101.7 249.45,-91.61 255.5,-83.6"/>
<polygon fill="midnightblue" stroke="midnightblue" points="258.23,-85.8 261.79,-75.82 252.78,-81.4 258.23,-85.8"/>
</g>
<!-- Node12 -->
<g id="node12" class="node">
<title>Node12</title>
<g id="a_node12"><a xlink:href="Leds_8h.html" target="_top" xlink:title=" ">
<polygon fill="none" stroke="black" points="498.5,-168.5 498.5,-187.5 581.5,-187.5 581.5,-168.5 498.5,-168.5"/>
<text text-anchor="middle" x="540" y="-175.5" font-family="Helvetica,sans-Serif" font-size="10.00">../Leds/Leds.h</text>
</a>
</g>
</g>
<!-- Node11&#45;&gt;Node12 -->
<g id="edge18" class="edge">
<title>Node11&#45;&gt;Node12</title>
<path fill="none" stroke="midnightblue" d="M433.97,-224.44C454.61,-215.6 487.06,-201.69 510.63,-191.59"/>
<polygon fill="midnightblue" stroke="midnightblue" points="512.32,-194.67 520.13,-187.52 509.56,-188.24 512.32,-194.67"/>
</g>
<!-- Node12&#45;&gt;Node3 -->
<g id="edge19" class="edge">
<title>Node12&#45;&gt;Node3</title>
<path fill="none" stroke="midnightblue" d="M548.65,-168.48C563.85,-154.08 596.98,-125.23 631,-112 689.46,-89.26 872.23,-75.06 956.13,-69.58"/>
<polygon fill="midnightblue" stroke="midnightblue" points="956.57,-73.06 966.33,-68.92 956.13,-66.07 956.57,-73.06"/>
</g>
<!-- Node12&#45;&gt;Node7 -->
<g id="edge24" class="edge">
<title>Node12&#45;&gt;Node7</title>
<path fill="none" stroke="midnightblue" d="M535.08,-168.24C526.61,-154.02 507.86,-126.09 484,-112 436.54,-83.97 374.08,-73.26 328.9,-69.24"/>
<polygon fill="midnightblue" stroke="midnightblue" points="328.92,-65.73 318.67,-68.42 328.36,-72.71 328.92,-65.73"/>
</g>
<!-- Node13 -->
<g id="node13" class="node">
<title>Node13</title>
<g id="a_node13"><a xlink:href="ColorTypes_8h.html" target="_top" xlink:title=" ">
<polygon fill="none" stroke="black" points="640,-112.5 640,-131.5 762,-131.5 762,-112.5 640,-112.5"/>
<text text-anchor="middle" x="701" y="-119.5" font-family="Helvetica,sans-Serif" font-size="10.00">../Colors/ColorTypes.h</text>
</a>
</g>
</g>
<!-- Node12&#45;&gt;Node13 -->
<g id="edge20" class="edge">
<title>Node12&#45;&gt;Node13</title>
<path fill="none" stroke="midnightblue" d="M565.51,-168.44C592.6,-159.36 635.59,-144.94 665.87,-134.78"/>
<polygon fill="midnightblue" stroke="midnightblue" points="667.24,-138.01 675.61,-131.52 665.01,-131.38 667.24,-138.01"/>
</g>
<!-- Node14 -->
<g id="node14" class="node">
<title>Node14</title>
<g id="a_node14"><a xlink:title=" ">
<polygon fill="none" stroke="#bfbfbf" points="536.5,-112.5 536.5,-131.5 583.5,-131.5 583.5,-112.5 536.5,-112.5"/>
<text text-anchor="middle" x="560" y="-119.5" font-family="Helvetica,sans-Serif" font-size="10.00">vector</text>
</a>
</g>
</g>
<!-- Node12&#45;&gt;Node14 -->
<g id="edge25" class="edge">
<title>Node12&#45;&gt;Node14</title>
<path fill="none" stroke="midnightblue" d="M543.3,-168.08C545.98,-160.85 549.85,-150.41 553.19,-141.4"/>
<polygon fill="midnightblue" stroke="midnightblue" points="556.57,-142.34 556.76,-131.75 550,-139.91 556.57,-142.34"/>
</g>
<!-- Node13&#45;&gt;Node3 -->
<g id="edge21" class="edge">
<title>Node13&#45;&gt;Node3</title>
<path fill="none" stroke="midnightblue" d="M748.22,-112.44C805.42,-102.08 900.96,-84.77 956.13,-74.77"/>
<polygon fill="midnightblue" stroke="midnightblue" points="957.06,-78.16 966.27,-72.93 955.81,-71.27 957.06,-78.16"/>
</g>
<!-- Node13&#45;&gt;Node7 -->
<g id="edge22" class="edge">
<title>Node13&#45;&gt;Node7</title>
<path fill="none" stroke="midnightblue" d="M639.71,-113.32C556.91,-102.95 410.33,-84.58 328.83,-74.37"/>
<polygon fill="midnightblue" stroke="midnightblue" points="329.09,-70.88 318.74,-73.11 328.22,-77.82 329.09,-70.88"/>
</g>
<!-- Node13&#45;&gt;Node8 -->
<g id="edge23" class="edge">
<title>Node13&#45;&gt;Node8</title>
<path fill="none" stroke="midnightblue" d="M682.4,-112.37C640.95,-93.13 540.8,-46.65 491.86,-23.93"/>
<polygon fill="midnightblue" stroke="midnightblue" points="493.05,-20.63 482.51,-19.59 490.11,-26.98 493.05,-20.63"/>
</g>
<!-- Node15&#45;&gt;Node7 -->
<g id="edge29" class="edge">
<title>Node15&#45;&gt;Node7</title>
<path fill="none" stroke="midnightblue" d="M73.3,-336.29C62.03,-318.2 38,-274.95 38,-235 38,-235 38,-235 38,-177 38,-146.2 38.75,-132.19 62,-112 84.01,-92.88 157.94,-80.23 211.41,-73.34"/>
<polygon fill="midnightblue" stroke="midnightblue" points="211.98,-76.8 221.47,-72.08 211.11,-69.85 211.98,-76.8"/>
</g>
<!-- Node15&#45;&gt;Node10 -->
<g id="edge28" class="edge">
<title>Node15&#45;&gt;Node10</title>
<path fill="none" stroke="midnightblue" d="M105.14,-336.44C133.02,-327.32 177.35,-312.81 208.4,-302.65"/>
<polygon fill="midnightblue" stroke="midnightblue" points="209.56,-305.95 217.98,-299.52 207.38,-299.3 209.56,-305.95"/>
</g>
<!-- Node16&#45;&gt;Node2 -->
<g id="edge62" class="edge">
<title>Node16&#45;&gt;Node2</title>
<path fill="none" stroke="midnightblue" d="M784.7,-399.7C941.73,-395.38 1426.81,-380.52 1605.33,-355.72"/>
<polygon fill="midnightblue" stroke="midnightblue" points="1605.98,-359.16 1615.38,-354.26 1604.98,-352.23 1605.98,-359.16"/>
</g>
<!-- Node16&#45;&gt;Node3 -->
<g id="edge32" class="edge">
<title>Node16&#45;&gt;Node3</title>
<path fill="none" stroke="midnightblue" d="M770.67,-392.5C801.89,-384.57 848.2,-371.64 887,-356 898.99,-351.17 1084.56,-255.21 1091,-244 1124.69,-185.34 1053.4,-113.14 1017.72,-82.22"/>
<polygon fill="midnightblue" stroke="midnightblue" points="1019.8,-79.39 1009.9,-75.61 1015.28,-84.74 1019.8,-79.39"/>
</g>
<!-- Node16&#45;&gt;Node5 -->
<g id="edge80" class="edge">
<title>Node16&#45;&gt;Node5</title>
<path fill="none" stroke="midnightblue" d="M685.34,-399.54C625.61,-396.41 523.13,-386.61 441,-356 397.21,-339.68 379.24,-337.98 352,-300 329.73,-268.95 324.39,-223.03 323.22,-197.62"/>
<polygon fill="midnightblue" stroke="midnightblue" points="326.71,-197.41 322.92,-187.52 319.71,-197.61 326.71,-197.41"/>
</g>
<!-- Node16&#45;&gt;Node7 -->
<g id="edge33" class="edge">
<title>Node16&#45;&gt;Node7</title>
<path fill="none" stroke="midnightblue" d="M685.4,-401.83C601.44,-401.97 426.72,-396.73 286,-356 232.54,-340.53 218.38,-333.59 174,-300 104.87,-247.68 63.33,-175.82 122,-112 144.7,-87.31 180.47,-76 211.16,-70.89"/>
<polygon fill="midnightblue" stroke="midnightblue" points="211.97,-74.31 221.35,-69.39 210.94,-67.38 211.97,-74.31"/>
</g>
<!-- Node16&#45;&gt;Node10 -->
<g id="edge60" class="edge">
<title>Node16&#45;&gt;Node10</title>
<path fill="none" stroke="midnightblue" d="M685.35,-399.33C589.72,-395.51 383.68,-384.18 319,-356 293.94,-345.08 271.14,-322.74 257.42,-307.32"/>
<polygon fill="midnightblue" stroke="midnightblue" points="259.95,-304.89 250.78,-299.58 254.64,-309.45 259.95,-304.89"/>
</g>
<!-- Node16&#45;&gt;Node12 -->
<g id="edge79" class="edge">
<title>Node16&#45;&gt;Node12</title>
<path fill="none" stroke="midnightblue" d="M727.36,-392.3C698.12,-359.01 593.07,-239.42 554.41,-195.41"/>
<polygon fill="midnightblue" stroke="midnightblue" points="557.03,-193.09 547.8,-187.88 551.77,-197.71 557.03,-193.09"/>
</g>
<!-- Node16&#45;&gt;Node15 -->
<g id="edge61" class="edge">
<title>Node16&#45;&gt;Node15</title>
<path fill="none" stroke="midnightblue" d="M685.48,-398.26C583.82,-392.42 344.28,-377.47 144,-356 142.69,-355.86 141.37,-355.71 140.04,-355.56"/>
<polygon fill="midnightblue" stroke="midnightblue" points="140.05,-352.04 129.7,-354.33 139.22,-358.99 140.05,-352.04"/>
</g>
<!-- Node17 -->
<g id="node17" class="node">
<title>Node17</title>
<g id="a_node17"><a xlink:href="PatternBuilder_8h.html" target="_top" xlink:title=" ">
<polygon fill="none" stroke="black" points="714.5,-336.5 714.5,-355.5 851.5,-355.5 851.5,-336.5 714.5,-336.5"/>
<text text-anchor="middle" x="783" y="-343.5" font-family="Helvetica,sans-Serif" font-size="10.00">Patterns/PatternBuilder.h</text>
</a>
</g>
</g>
<!-- Node16&#45;&gt;Node17 -->
<g id="edge34" class="edge">
<title>Node16&#45;&gt;Node17</title>
<path fill="none" stroke="midnightblue" d="M742.93,-392.08C749.85,-384.3 760.07,-372.8 768.45,-363.37"/>
<polygon fill="midnightblue" stroke="midnightblue" points="771.19,-365.55 775.22,-355.75 765.96,-360.9 771.19,-365.55"/>
</g>
<!-- Node19 -->
<g id="node19" class="node">
<title>Node19</title>
<g id="a_node19"><a xlink:href="IRReceiver_8h.html" target="_top" xlink:title=" ">
<polygon fill="none" stroke="black" points="1317,-280.5 1317,-299.5 1439,-299.5 1439,-280.5 1317,-280.5"/>
<text text-anchor="middle" x="1378" y="-287.5" font-family="Helvetica,sans-Serif" font-size="10.00">Wireless/IRReceiver.h</text>
</a>
</g>
</g>
<!-- Node16&#45;&gt;Node19 -->
<g id="edge37" class="edge">
<title>Node16&#45;&gt;Node19</title>
<path fill="none" stroke="midnightblue" d="M784.59,-393.74C842.38,-385.18 940.74,-370.29 1025,-356 1131.06,-338.01 1254.61,-314.72 1323.82,-301.47"/>
<polygon fill="midnightblue" stroke="midnightblue" points="1324.88,-304.83 1334.04,-299.51 1323.56,-297.95 1324.88,-304.83"/>
</g>
<!-- Node22 -->
<g id="node22" class="node">
<title>Node22</title>
<g id="a_node22"><a xlink:href="IRSender_8h.html" target="_top" xlink:title=" ">
<polygon fill="none" stroke="black" points="1042.5,-280.5 1042.5,-299.5 1155.5,-299.5 1155.5,-280.5 1042.5,-280.5"/>
<text text-anchor="middle" x="1099" y="-287.5" font-family="Helvetica,sans-Serif" font-size="10.00">Wireless/IRSender.h</text>
</a>
</g>
</g>
<!-- Node16&#45;&gt;Node22 -->
<g id="edge42" class="edge">
<title>Node16&#45;&gt;Node22</title>
<path fill="none" stroke="midnightblue" d="M782.58,-392.49C822.86,-384.73 881.88,-372.04 932,-356 954.01,-348.96 958.52,-344.53 980,-336 1008.92,-324.51 1042.04,-312.04 1065.99,-303.15"/>
<polygon fill="midnightblue" stroke="midnightblue" points="1067.49,-306.32 1075.65,-299.57 1065.06,-299.76 1067.49,-306.32"/>
</g>
<!-- Node23 -->
<g id="node23" class="node">
<title>Node23</title>
<g id="a_node23"><a xlink:href="VLReceiver_8h.html" target="_top" xlink:title=" ">
<polygon fill="none" stroke="black" points="1173.5,-280.5 1173.5,-299.5 1298.5,-299.5 1298.5,-280.5 1173.5,-280.5"/>
<text text-anchor="middle" x="1236" y="-287.5" font-family="Helvetica,sans-Serif" font-size="10.00">Wireless/VLReceiver.h</text>
</a>
</g>
</g>
<!-- Node16&#45;&gt;Node23 -->
<g id="edge46" class="edge">
<title>Node16&#45;&gt;Node23</title>
<path fill="none" stroke="midnightblue" d="M783.3,-392.49C830.91,-383.92 905.67,-370.01 970,-356 1049.26,-338.74 1141.03,-315.61 1193.42,-302.11"/>
<polygon fill="midnightblue" stroke="midnightblue" points="1194.56,-305.43 1203.36,-299.54 1192.81,-298.65 1194.56,-305.43"/>
</g>
<!-- Node25 -->
<g id="node25" class="node">
<title>Node25</title>
<g id="a_node25"><a xlink:href="VLSender_8h.html" target="_top" xlink:title=" ">
<polygon fill="none" stroke="black" points="870,-280.5 870,-299.5 986,-299.5 986,-280.5 870,-280.5"/>
<text text-anchor="middle" x="928" y="-287.5" font-family="Helvetica,sans-Serif" font-size="10.00">Wireless/VLSender.h</text>
</a>
</g>
</g>
<!-- Node16&#45;&gt;Node25 -->
<g id="edge51" class="edge">
<title>Node16&#45;&gt;Node25</title>
<path fill="none" stroke="midnightblue" d="M770.72,-392.43C796.74,-385.2 832.15,-373.24 860,-356 881.36,-342.78 901.6,-321.98 914.36,-307.48"/>
<polygon fill="midnightblue" stroke="midnightblue" points="917.11,-309.65 920.95,-299.78 911.79,-305.1 917.11,-309.65"/>
</g>
<!-- Node26 -->
<g id="node26" class="node">
<title>Node26</title>
<g id="a_node26"><a xlink:href="Storage_8h.html" target="_top" xlink:title=" ">
<polygon fill="none" stroke="black" points="1430,-168.5 1430,-187.5 1534,-187.5 1534,-168.5 1430,-168.5"/>
<text text-anchor="middle" x="1482" y="-175.5" font-family="Helvetica,sans-Serif" font-size="10.00">Storage/Storage.h</text>
</a>
</g>
</g>
<!-- Node16&#45;&gt;Node26 -->
<g id="edge55" class="edge">
<title>Node16&#45;&gt;Node26</title>
<path fill="none" stroke="midnightblue" d="M784.73,-400.85C929.97,-399.39 1349.54,-387.53 1448,-300 1477.4,-273.87 1482.25,-224.55 1482.55,-197.65"/>
<polygon fill="midnightblue" stroke="midnightblue" points="1486.05,-197.59 1482.46,-187.63 1479.05,-197.66 1486.05,-197.59"/>
</g>
<!-- Node27 -->
<g id="node27" class="node">
<title>Node27</title>
<g id="a_node27"><a xlink:href="Buttons_8h.html" target="_top" xlink:title=" ">
<polygon fill="none" stroke="black" points="1493,-336.5 1493,-355.5 1597,-355.5 1597,-336.5 1493,-336.5"/>
<text text-anchor="middle" x="1545" y="-343.5" font-family="Helvetica,sans-Serif" font-size="10.00">Buttons/Buttons.h</text>
</a>
</g>
</g>
<!-- Node16&#45;&gt;Node27 -->
<g id="edge57" class="edge">
<title>Node16&#45;&gt;Node27</title>
<path fill="none" stroke="midnightblue" d="M784.73,-399.28C904.48,-394.87 1218.22,-381.63 1479,-356 1480.26,-355.88 1481.54,-355.75 1482.82,-355.61"/>
<polygon fill="midnightblue" stroke="midnightblue" points="1483.26,-359.08 1492.8,-354.49 1482.47,-352.13 1483.26,-359.08"/>
</g>
<!-- Node29 -->
<g id="node29" class="node">
<title>Node29</title>
<g id="a_node29"><a xlink:href="Modes_8h.html" target="_top" xlink:title=" ">
<polygon fill="none" stroke="black" points="676.5,-280.5 676.5,-299.5 769.5,-299.5 769.5,-280.5 676.5,-280.5"/>
<text text-anchor="middle" x="723" y="-287.5" font-family="Helvetica,sans-Serif" font-size="10.00">Modes/Modes.h</text>
</a>
</g>
</g>
<!-- Node16&#45;&gt;Node29 -->
<g id="edge63" class="edge">
<title>Node16&#45;&gt;Node29</title>
<path fill="none" stroke="midnightblue" d="M726.79,-392.18C719.46,-383.66 709.24,-370.02 705,-356 700.19,-340.1 706.23,-321.87 712.58,-308.77"/>
<polygon fill="midnightblue" stroke="midnightblue" points="715.71,-310.34 717.32,-299.87 709.53,-307.05 715.71,-310.34"/>
</g>
<!-- Node30 -->
<g id="node30" class="node">
<title>Node30</title>
<g id="a_node30"><a xlink:href="Menus_8h.html" target="_top" xlink:title=" ">
<polygon fill="none" stroke="black" points="478.5,-336.5 478.5,-355.5 571.5,-355.5 571.5,-336.5 478.5,-336.5"/>
<text text-anchor="middle" x="525" y="-343.5" font-family="Helvetica,sans-Serif" font-size="10.00">Menus/Menus.h</text>
</a>
</g>
</g>
<!-- Node16&#45;&gt;Node30 -->
<g id="edge70" class="edge">
<title>Node16&#45;&gt;Node30</title>
<path fill="none" stroke="midnightblue" d="M701.72,-392.44C665.55,-383.14 607.62,-368.25 568.02,-358.06"/>
<polygon fill="midnightblue" stroke="midnightblue" points="568.68,-354.62 558.12,-355.52 566.93,-361.4 568.68,-354.62"/>
</g>
<!-- Node31 -->
<g id="node31" class="node">
<title>Node31</title>
<g id="a_node31"><a xlink:href="Mode_8h.html" target="_top" xlink:title=" ">
<polygon fill="none" stroke="black" points="361.5,-280.5 361.5,-299.5 458.5,-299.5 458.5,-280.5 361.5,-280.5"/>
<text text-anchor="middle" x="410" y="-287.5" font-family="Helvetica,sans-Serif" font-size="10.00">../Modes/Mode.h</text>
</a>
</g>
</g>
<!-- Node16&#45;&gt;Node31 -->
<g id="edge78" class="edge">
<title>Node16&#45;&gt;Node31</title>
<path fill="none" stroke="midnightblue" d="M685.31,-396.5C618.92,-389.83 505.41,-375.92 469,-356 448.41,-344.73 431.24,-323.49 420.82,-308.36"/>
<polygon fill="midnightblue" stroke="midnightblue" points="423.66,-306.3 415.24,-299.87 417.81,-310.15 423.66,-306.3"/>
</g>
<!-- Node18 -->
<g id="node18" class="node">
<title>Node18</title>
<g id="a_node18"><a xlink:href="Patterns_8h.html" target="_top" xlink:title=" ">
<polygon fill="none" stroke="black" points="789.5,-224.5 789.5,-243.5 854.5,-243.5 854.5,-224.5 789.5,-224.5"/>
<text text-anchor="middle" x="822" y="-231.5" font-family="Helvetica,sans-Serif" font-size="10.00">Patterns.h</text>
</a>
</g>
</g>
<!-- Node17&#45;&gt;Node18 -->
<g id="edge35" class="edge">
<title>Node17&#45;&gt;Node18</title>
<path fill="none" stroke="midnightblue" d="M786.06,-336.37C792.38,-318.54 807,-277.3 815.52,-253.27"/>
<polygon fill="midnightblue" stroke="midnightblue" points="818.91,-254.19 818.95,-243.59 812.31,-251.85 818.91,-254.19"/>
</g>
<!-- Node18&#45;&gt;Node3 -->
<g id="edge36" class="edge">
<title>Node18&#45;&gt;Node3</title>
<path fill="none" stroke="midnightblue" d="M836.57,-224.36C862.64,-208.43 918.08,-172.32 956,-132 969.57,-117.56 981.69,-98.37 989.57,-84.59"/>
<polygon fill="midnightblue" stroke="midnightblue" points="992.74,-86.1 994.53,-75.66 986.62,-82.71 992.74,-86.1"/>
</g>
<!-- Node19&#45;&gt;Node3 -->
<g id="edge38" class="edge">
<title>Node19&#45;&gt;Node3</title>
<path fill="none" stroke="midnightblue" d="M1376.75,-280.24C1374.69,-267.42 1369.91,-243.01 1361,-224 1329.92,-157.64 1307.64,-140.18 1240,-112 1174.16,-84.57 1091.25,-73.77 1041.83,-69.58"/>
<polygon fill="midnightblue" stroke="midnightblue" points="1042.05,-66.09 1031.81,-68.78 1041.5,-73.06 1042.05,-66.09"/>
</g>
<!-- Node20 -->
<g id="node20" class="node">
<title>Node20</title>
<g id="a_node20"><a xlink:href="BitStream_8h.html" target="_top" xlink:title=" ">
<polygon fill="none" stroke="black" points="1138,-224.5 1138,-243.5 1252,-243.5 1252,-224.5 1138,-224.5"/>
<text text-anchor="middle" x="1195" y="-231.5" font-family="Helvetica,sans-Serif" font-size="10.00">../Serial/BitStream.h</text>
</a>
</g>
</g>
<!-- Node19&#45;&gt;Node20 -->
<g id="edge39" class="edge">
<title>Node19&#45;&gt;Node20</title>
<path fill="none" stroke="midnightblue" d="M1349,-280.44C1317.82,-271.24 1268.07,-256.56 1233.59,-246.39"/>
<polygon fill="midnightblue" stroke="midnightblue" points="1234.44,-242.99 1223.86,-243.52 1232.46,-249.7 1234.44,-242.99"/>
</g>
<!-- Node21 -->
<g id="node21" class="node">
<title>Node21</title>
<g id="a_node21"><a xlink:href="IRConfig_8h.html" target="_top" xlink:title=" ">
<polygon fill="none" stroke="black" points="1270,-224.5 1270,-243.5 1336,-243.5 1336,-224.5 1270,-224.5"/>
<text text-anchor="middle" x="1303" y="-231.5" font-family="Helvetica,sans-Serif" font-size="10.00">IRConfig.h</text>
</a>
</g>
</g>
<!-- Node19&#45;&gt;Node21 -->
<g id="edge41" class="edge">
<title>Node19&#45;&gt;Node21</title>
<path fill="none" stroke="midnightblue" d="M1365.95,-280.32C1354.54,-272.11 1337.17,-259.6 1323.57,-249.81"/>
<polygon fill="midnightblue" stroke="midnightblue" points="1325.43,-246.84 1315.27,-243.83 1321.34,-252.52 1325.43,-246.84"/>
</g>
<!-- Node20&#45;&gt;Node3 -->
<g id="edge40" class="edge">
<title>Node20&#45;&gt;Node3</title>
<path fill="none" stroke="midnightblue" d="M1192.24,-224.3C1184.84,-202.3 1162.42,-143.89 1124,-112 1100.42,-92.43 1067.65,-81.05 1041.57,-74.63"/>
<polygon fill="midnightblue" stroke="midnightblue" points="1042.11,-71.16 1031.58,-72.33 1040.54,-77.99 1042.11,-71.16"/>
</g>
<!-- Node22&#45;&gt;Node4 -->
<g id="edge43" class="edge">
<title>Node22&#45;&gt;Node4</title>
<path fill="none" stroke="midnightblue" d="M1072.86,-280.44C1044.98,-271.32 1000.65,-256.81 969.6,-246.65"/>
<polygon fill="midnightblue" stroke="midnightblue" points="970.62,-243.3 960.02,-243.52 968.44,-249.95 970.62,-243.3"/>
</g>
<!-- Node22&#45;&gt;Node20 -->
<g id="edge44" class="edge">
<title>Node22&#45;&gt;Node20</title>
<path fill="none" stroke="midnightblue" d="M1114.42,-280.32C1129.54,-271.82 1152.82,-258.73 1170.47,-248.8"/>
<polygon fill="midnightblue" stroke="midnightblue" points="1172.61,-251.61 1179.61,-243.65 1169.18,-245.51 1172.61,-251.61"/>
</g>
<!-- Node22&#45;&gt;Node21 -->
<g id="edge45" class="edge">
<title>Node22&#45;&gt;Node21</title>
<path fill="none" stroke="midnightblue" d="M1131.32,-280.44C1166.39,-271.16 1222.5,-256.31 1260.96,-246.13"/>
<polygon fill="midnightblue" stroke="midnightblue" points="1262.06,-249.46 1270.83,-243.52 1260.26,-242.69 1262.06,-249.46"/>
</g>
<!-- Node23&#45;&gt;Node3 -->
<g id="edge47" class="edge">
<title>Node23&#45;&gt;Node3</title>
<path fill="none" stroke="midnightblue" d="M1281.53,-280.41C1318.59,-271.12 1362.17,-253.52 1345,-224 1281.56,-114.95 1119.79,-81.21 1042.03,-71.12"/>
<polygon fill="midnightblue" stroke="midnightblue" points="1041.98,-67.59 1031.63,-69.85 1041.13,-74.54 1041.98,-67.59"/>
</g>
<!-- Node23&#45;&gt;Node20 -->
<g id="edge48" class="edge">
<title>Node23&#45;&gt;Node20</title>
<path fill="none" stroke="midnightblue" d="M1229.23,-280.08C1223.44,-272.46 1214.94,-261.26 1207.86,-251.94"/>
<polygon fill="midnightblue" stroke="midnightblue" points="1210.48,-249.6 1201.64,-243.75 1204.9,-253.83 1210.48,-249.6"/>
</g>
<!-- Node24 -->
<g id="node24" class="node">
<title>Node24</title>
<g id="a_node24"><a xlink:href="VLConfig_8h.html" target="_top" xlink:title=" ">
<polygon fill="none" stroke="black" points="1014,-224.5 1014,-243.5 1082,-243.5 1082,-224.5 1014,-224.5"/>
<text text-anchor="middle" x="1048" y="-231.5" font-family="Helvetica,sans-Serif" font-size="10.00">VLConfig.h</text>
</a>
</g>
</g>
<!-- Node23&#45;&gt;Node24 -->
<g id="edge49" class="edge">
<title>Node23&#45;&gt;Node24</title>
<path fill="none" stroke="midnightblue" d="M1206.21,-280.44C1174.17,-271.24 1123.07,-256.56 1087.65,-246.39"/>
<polygon fill="midnightblue" stroke="midnightblue" points="1088.23,-242.91 1077.65,-243.52 1086.29,-249.64 1088.23,-242.91"/>
</g>
<!-- Node24&#45;&gt;Node7 -->
<g id="edge50" class="edge">
<title>Node24&#45;&gt;Node7</title>
<path fill="none" stroke="midnightblue" d="M1033.01,-224.36C992.39,-201.43 876.23,-138.95 771,-112 614.85,-72.01 423.42,-66.29 328.76,-66.22"/>
<polygon fill="midnightblue" stroke="midnightblue" points="328.53,-62.72 318.53,-66.23 328.54,-69.72 328.53,-62.72"/>
</g>
<!-- Node25&#45;&gt;Node4 -->
<g id="edge52" class="edge">
<title>Node25&#45;&gt;Node4</title>
<path fill="none" stroke="midnightblue" d="M928.99,-280.08C929.79,-272.93 930.93,-262.64 931.92,-253.69"/>
<polygon fill="midnightblue" stroke="midnightblue" points="935.4,-254.08 933.03,-243.75 928.44,-253.3 935.4,-254.08"/>
</g>
<!-- Node25&#45;&gt;Node20 -->
<g id="edge53" class="edge">
<title>Node25&#45;&gt;Node20</title>
<path fill="none" stroke="midnightblue" d="M970.31,-280.44C1017.08,-270.98 1092.46,-255.74 1142.85,-245.55"/>
<polygon fill="midnightblue" stroke="midnightblue" points="1143.78,-248.93 1152.89,-243.52 1142.4,-242.07 1143.78,-248.93"/>
</g>
<!-- Node25&#45;&gt;Node24 -->
<g id="edge54" class="edge">
<title>Node25&#45;&gt;Node24</title>
<path fill="none" stroke="midnightblue" d="M947.01,-280.44C966.59,-271.64 997.31,-257.81 1019.73,-247.72"/>
<polygon fill="midnightblue" stroke="midnightblue" points="1021.39,-250.81 1029.07,-243.52 1018.52,-244.43 1021.39,-250.81"/>
</g>
<!-- Node26&#45;&gt;Node3 -->
<g id="edge56" class="edge">
<title>Node26&#45;&gt;Node3</title>
<path fill="none" stroke="midnightblue" d="M1476.29,-168.42C1466.11,-153.93 1443.32,-124.95 1416,-112 1350.5,-80.96 1134.7,-70.98 1041.97,-68.08"/>
<polygon fill="midnightblue" stroke="midnightblue" points="1041.91,-64.58 1031.81,-67.78 1041.7,-71.57 1041.91,-64.58"/>
</g>
<!-- Node28 -->
<g id="node28" class="node">
<title>Node28</title>
<g id="a_node28"><a xlink:href="Button_8h.html" target="_top" xlink:title=" ">
<polygon fill="none" stroke="black" points="1552,-168.5 1552,-187.5 1610,-187.5 1610,-168.5 1552,-168.5"/>
<text text-anchor="middle" x="1581" y="-175.5" font-family="Helvetica,sans-Serif" font-size="10.00">Button.h</text>
</a>
</g>
</g>
<!-- Node27&#45;&gt;Node28 -->
<g id="edge58" class="edge">
<title>Node27&#45;&gt;Node28</title>
<path fill="none" stroke="midnightblue" d="M1546.94,-336.08C1552.6,-309.95 1569.24,-233.21 1576.97,-197.58"/>
<polygon fill="midnightblue" stroke="midnightblue" points="1580.44,-198.08 1579.14,-187.57 1573.6,-196.6 1580.44,-198.08"/>
</g>
<!-- Node28&#45;&gt;Node3 -->
<g id="edge59" class="edge">
<title>Node28&#45;&gt;Node3</title>
<path fill="none" stroke="midnightblue" d="M1567.23,-168.49C1543.21,-154.12 1491.67,-125.29 1444,-112 1300.47,-71.99 1122.1,-66.67 1041.75,-66.52"/>
<polygon fill="midnightblue" stroke="midnightblue" points="1041.53,-63.02 1031.53,-66.53 1041.53,-70.02 1041.53,-63.02"/>
</g>
<!-- Node29&#45;&gt;Node3 -->
<g id="edge69" class="edge">
<title>Node29&#45;&gt;Node3</title>
<path fill="none" stroke="midnightblue" d="M729.46,-280.45C739.49,-267.46 759.76,-242.35 780,-224 845.92,-164.24 934.76,-106.62 976.09,-80.95"/>
<polygon fill="midnightblue" stroke="midnightblue" points="978.18,-83.77 984.85,-75.54 974.5,-77.81 978.18,-83.77"/>
</g>
<!-- Node29&#45;&gt;Node4 -->
<g id="edge64" class="edge">
<title>Node29&#45;&gt;Node4</title>
<path fill="none" stroke="midnightblue" d="M756.43,-280.44C792.86,-271.12 851.23,-256.18 891.03,-246"/>
<polygon fill="midnightblue" stroke="midnightblue" points="891.9,-249.39 900.72,-243.52 890.17,-242.61 891.9,-249.39"/>
</g>
<!-- Node29&#45;&gt;Node7 -->
<g id="edge68" class="edge">
<title>Node29&#45;&gt;Node7</title>
<path fill="none" stroke="midnightblue" d="M681.82,-280.4C630.93,-267.9 544.31,-240.28 489,-188 461.56,-162.06 480.47,-135.61 451,-112 416.43,-84.31 367.14,-73.36 328.72,-69.17"/>
<polygon fill="midnightblue" stroke="midnightblue" points="328.98,-65.68 318.69,-68.2 328.31,-72.65 328.98,-65.68"/>
</g>
<!-- Node29&#45;&gt;Node12 -->
<g id="edge67" class="edge">
<title>Node29&#45;&gt;Node12</title>
<path fill="none" stroke="midnightblue" d="M710.57,-280.47C691.86,-267.72 655.21,-243.16 623,-224 604.16,-212.79 582.35,-201.01 565.81,-192.32"/>
<polygon fill="midnightblue" stroke="midnightblue" points="567.24,-189.11 556.75,-187.58 563.99,-195.32 567.24,-189.11"/>
</g>
<!-- Node29&#45;&gt;Node13 -->
<g id="edge65" class="edge">
<title>Node29&#45;&gt;Node13</title>
<path fill="none" stroke="midnightblue" d="M721.82,-280.08C718.35,-253.95 708.18,-177.21 703.46,-141.58"/>
<polygon fill="midnightblue" stroke="midnightblue" points="706.92,-141.02 702.14,-131.57 699.98,-141.94 706.92,-141.02"/>
</g>
<!-- Node29&#45;&gt;Node18 -->
<g id="edge66" class="edge">
<title>Node29&#45;&gt;Node18</title>
<path fill="none" stroke="midnightblue" d="M738.91,-280.32C754.64,-271.74 778.94,-258.49 797.21,-248.52"/>
<polygon fill="midnightblue" stroke="midnightblue" points="799.03,-251.52 806.13,-243.65 795.68,-245.37 799.03,-251.52"/>
</g>
<!-- Node30&#45;&gt;Node3 -->
<g id="edge71" class="edge">
<title>Node30&#45;&gt;Node3</title>
<path fill="none" stroke="midnightblue" d="M537.05,-336.45C582.47,-304.4 748.28,-189.36 895,-112 918.59,-99.56 946.35,-87.68 967.26,-79.25"/>
<polygon fill="midnightblue" stroke="midnightblue" points="968.63,-82.47 976.63,-75.52 966.04,-75.97 968.63,-82.47"/>
</g>
<!-- Node30&#45;&gt;Node11 -->
<g id="edge73" class="edge">
<title>Node30&#45;&gt;Node11</title>
<path fill="none" stroke="midnightblue" d="M517.85,-336.24C507.24,-323.42 486.49,-299.01 467,-280 456.2,-269.46 443.31,-258.49 432.95,-250.01"/>
<polygon fill="midnightblue" stroke="midnightblue" points="434.92,-247.11 424.94,-243.55 430.52,-252.55 434.92,-247.11"/>
</g>
<!-- Node30&#45;&gt;Node13 -->
<g id="edge72" class="edge">
<title>Node30&#45;&gt;Node13</title>
<path fill="none" stroke="midnightblue" d="M531.9,-336.3C558.18,-303.15 652.31,-184.41 687.55,-139.96"/>
<polygon fill="midnightblue" stroke="midnightblue" points="690.49,-141.89 693.96,-131.88 685,-137.55 690.49,-141.89"/>
</g>
<!-- Node30&#45;&gt;Node31 -->
<g id="edge74" class="edge">
<title>Node30&#45;&gt;Node31</title>
<path fill="none" stroke="midnightblue" d="M506.78,-336.44C488.1,-327.68 458.84,-313.94 437.38,-303.86"/>
<polygon fill="midnightblue" stroke="midnightblue" points="438.68,-300.6 428.14,-299.52 435.7,-306.93 438.68,-300.6"/>
</g>
<!-- Node31&#45;&gt;Node7 -->
<g id="edge77" class="edge">
<title>Node31&#45;&gt;Node7</title>
<path fill="none" stroke="midnightblue" d="M387.23,-280.48C352.76,-266.45 287.49,-235.22 251,-188 229.77,-160.53 221.29,-144.68 233,-112 236.94,-101 244.86,-90.77 252.36,-82.85"/>
<polygon fill="midnightblue" stroke="midnightblue" points="254.89,-85.27 259.56,-75.76 249.98,-80.28 254.89,-85.27"/>
</g>
<!-- Node31&#45;&gt;Node11 -->
<g id="edge75" class="edge">
<title>Node31&#45;&gt;Node11</title>
<path fill="none" stroke="midnightblue" d="M410.66,-280.08C411.18,-273.01 411.94,-262.86 412.59,-253.99"/>
<polygon fill="midnightblue" stroke="midnightblue" points="416.1,-253.98 413.35,-243.75 409.12,-253.47 416.1,-253.98"/>
</g>
<!-- Node31&#45;&gt;Node18 -->
<g id="edge76" class="edge">
<title>Node31&#45;&gt;Node18</title>
<path fill="none" stroke="midnightblue" d="M458.88,-282.59C540.21,-271.93 701.98,-250.73 779.14,-240.62"/>
<polygon fill="midnightblue" stroke="midnightblue" points="779.98,-244.04 789.44,-239.27 779.07,-237.1 779.98,-244.04"/>
</g>
</g>
</svg>
