<?xml version="1.0" encoding="UTF-8" standalone="no"?>
<!DOCTYPE svg PUBLIC "-//W3C//DTD SVG 1.1//EN"
 "http://www.w3.org/Graphics/SVG/1.1/DTD/svg11.dtd">
<!-- Generated by graphviz version 2.43.0 (0)
 -->
<!-- Title: VortexEngine/src/Serial/Serial.h Pages: 1 -->
<!--zoomable 173 -->
<svg id="main" version="1.1" xmlns="http://www.w3.org/2000/svg" xmlns:xlink="http://www.w3.org/1999/xlink" xml:space="preserve" onload="init(evt)">
<style type="text/css"><![CDATA[
.edge:hover path { stroke: red; }
.edge:hover polygon { stroke: red; fill: red; }
]]></style>
<script type="text/javascript"><![CDATA[
var edges = document.getElementsByTagName('g');
if (edges && edges.length) {
  for (var i=0;i<edges.length;i++) {
    if (edges[i].id.substr(0,4)=='edge') {
      edges[i].setAttribute('class','edge');
    }
  }
}
]]></script>
        <defs>
                <circle id="rim" cx="0" cy="0" r="7"/>
                <circle id="rim2" cx="0" cy="0" r="3.5"/>
                <g id="zoomPlus">
                        <use xlink:href="#rim" target="_top" fill="#404040">
                                <set attributeName="fill" to="#808080" begin="zoomplus.mouseover" end="zoomplus.mouseout"/>
                        </use>
                        <path d="M-4,0h8M0,-4v8" fill="none" stroke="white" stroke-width="1.5" pointer-events="none"/>
                </g>
                <g id="zoomMin">
                        <use xlink:href="#rim" target="_top" fill="#404040">
                                <set attributeName="fill" to="#808080" begin="zoomminus.mouseover" end="zoomminus.mouseout"/>
                        </use>
                        <path d="M-4,0h8" fill="none" stroke="white" stroke-width="1.5" pointer-events="none"/>
                </g>
                <g id="dirArrow">
                        <path fill="none" stroke="white" stroke-width="1.5" d="M0,-3.0v7 M-2.5,-0.5L0,-3.0L2.5,-0.5"/>
                </g>
               <g id="resetDef">
                       <use xlink:href="#rim2" target="_top" fill="#404040">
                               <set attributeName="fill" to="#808080" begin="reset.mouseover" end="reset.mouseout"/>
                       </use>
               </g>
        </defs>

<script type="text/javascript">
var viewWidth = 7394;
var viewHeight = 173;
var sectionId = 'dynsection-1';
</script>
<script xlink:href="svgpan.js" target="_top"/>
<svg id="graph" class="graph">
<g id="viewport">
<title>VortexEngine/src/Serial/Serial.h</title>
<!-- Node1 -->
<g id="node1" class="node">
<title>Node1</title>
<g id="a_node1"><a xlink:title=" ">
<polygon fill="#bfbfbf" stroke="black" points="341.5,-134.5 341.5,-164.5 470.5,-164.5 470.5,-134.5 341.5,-134.5"/>
<text text-anchor="start" x="349.5" y="-152.5" font-family="Helvetica,sans-Serif" font-size="10.00">VortexEngine/src/Serial</text>
<text text-anchor="middle" x="406" y="-141.5" font-family="Helvetica,sans-Serif" font-size="10.00">/Serial.h</text>
</a>
</g>
</g>
<!-- Node2 -->
<g id="node2" class="node">
<title>Node2</title>
<g id="a_node2"><a xlink:href="Log_8cpp.html" target="_top" target="_top" xlink:title=" ">
<polygon fill="none" stroke="black" points="201.5,-67.5 201.5,-97.5 320.5,-97.5 320.5,-67.5 201.5,-67.5"/>
<text text-anchor="start" x="209.5" y="-85.5" font-family="Helvetica,sans-Serif" font-size="10.00">VortexEngine/src/Log</text>
<text text-anchor="middle" x="261" y="-74.5" font-family="Helvetica,sans-Serif" font-size="10.00">/Log.cpp</text>
</a>
</g>
</g>
<!-- Node1&#45;&gt;Node2 -->
<g id="edge1" class="edge">
<title>Node1&#45;&gt;Node2</title>
<path fill="none" stroke="midnightblue" d="M365.33,-130.27C342.24,-119.92 313.76,-107.15 292.4,-97.58"/>
<polygon fill="midnightblue" stroke="midnightblue" points="363.98,-133.5 374.54,-134.4 366.84,-127.11 363.98,-133.5"/>
</g>
<!-- Node3 -->
<g id="node3" class="node">
<title>Node3</title>
<g id="a_node3"><a xlink:href="EditorConnection_8cpp.html" target="_top" target="_top" xlink:title=" ">
<polygon fill="none" stroke="black" points="0,-0.5 0,-30.5 170,-30.5 170,-0.5 0,-0.5"/>
<text text-anchor="start" x="8" y="-18.5" font-family="Helvetica,sans-Serif" font-size="10.00">VortexEngine/src/Menus</text>
<text text-anchor="middle" x="85" y="-7.5" font-family="Helvetica,sans-Serif" font-size="10.00">/MenuList/EditorConnection.cpp</text>
</a>
</g>
</g>
<!-- Node1&#45;&gt;Node3 -->
<g id="edge2" class="edge">
<title>Node1&#45;&gt;Node3</title>
<path fill="none" stroke="midnightblue" d="M387.84,-126.47C369.74,-105.05 342.72,-74.65 329,-67 314.55,-58.94 230.22,-42.47 164.7,-30.53"/>
<polygon fill="midnightblue" stroke="midnightblue" points="385.19,-128.75 394.3,-134.17 390.56,-124.26 385.19,-128.75"/>
</g>
<!-- Node4 -->
<g id="node4" class="node">
<title>Node4</title>
<g id="a_node4"><a xlink:href="ModeSharing_8cpp.html" target="_top" target="_top" xlink:title=" ">
<polygon fill="none" stroke="black" points="188.5,-0.5 188.5,-30.5 339.5,-30.5 339.5,-0.5 188.5,-0.5"/>
<text text-anchor="start" x="196.5" y="-18.5" font-family="Helvetica,sans-Serif" font-size="10.00">VortexEngine/src/Menus</text>
<text text-anchor="middle" x="264" y="-7.5" font-family="Helvetica,sans-Serif" font-size="10.00">/MenuList/ModeSharing.cpp</text>
</a>
</g>
</g>
<!-- Node1&#45;&gt;Node4 -->
<g id="edge3" class="edge">
<title>Node1&#45;&gt;Node4</title>
<path fill="none" stroke="midnightblue" d="M398.02,-124.87C391.06,-107.15 379.47,-83.25 363,-67 346.65,-50.88 324.11,-38.83 304.67,-30.56"/>
<polygon fill="midnightblue" stroke="midnightblue" points="394.83,-126.32 401.58,-134.48 401.39,-123.89 394.83,-126.32"/>
</g>
<!-- Node5 -->
<g id="node5" class="node">
<title>Node5</title>
<g id="a_node5"><a xlink:href="Menus_8cpp.html" target="_top" target="_top" xlink:title=" ">
<polygon fill="none" stroke="black" points="358,-0.5 358,-30.5 492,-30.5 492,-0.5 358,-0.5"/>
<text text-anchor="start" x="366" y="-18.5" font-family="Helvetica,sans-Serif" font-size="10.00">VortexEngine/src/Menus</text>
<text text-anchor="middle" x="425" y="-7.5" font-family="Helvetica,sans-Serif" font-size="10.00">/Menus.cpp</text>
</a>
</g>
</g>
<!-- Node1&#45;&gt;Node5 -->
<g id="edge4" class="edge">
<title>Node1&#45;&gt;Node5</title>
<path fill="none" stroke="midnightblue" d="M409.47,-124.39C413.43,-96.9 419.76,-52.89 422.98,-30.52"/>
<polygon fill="midnightblue" stroke="midnightblue" points="405.99,-123.98 408.03,-134.37 412.92,-124.97 405.99,-123.98"/>
</g>
<!-- Node6 -->
<g id="node6" class="node">
<title>Node6</title>
<g id="a_node6"><a xlink:href="Serial_8cpp.html" target="_top" target="_top" xlink:title=" ">
<polygon fill="none" stroke="black" points="510.5,-0.5 510.5,-30.5 639.5,-30.5 639.5,-0.5 510.5,-0.5"/>
<text text-anchor="start" x="518.5" y="-18.5" font-family="Helvetica,sans-Serif" font-size="10.00">VortexEngine/src/Serial</text>
<text text-anchor="middle" x="575" y="-7.5" font-family="Helvetica,sans-Serif" font-size="10.00">/Serial.cpp</text>
</a>
</g>
</g>
<!-- Node1&#45;&gt;Node6 -->
<g id="edge5" class="edge">
<title>Node1&#45;&gt;Node6</title>
<path fill="none" stroke="midnightblue" d="M432.33,-127.94C467.02,-100.84 527.14,-53.88 557.04,-30.52"/>
<polygon fill="midnightblue" stroke="midnightblue" points="429.81,-125.46 424.09,-134.37 434.12,-130.98 429.81,-125.46"/>
</g>
<!-- Node7 -->
<g id="node7" class="node">
<title>Node7</title>
<g id="a_node7"><a xlink:href="VortexEngine_8h.html" target="_top" target="_top" xlink:title=" ">
<polygon fill="none" stroke="black" points="3629.5,-73 3629.5,-92 3804.5,-92 3804.5,-73 3629.5,-73"/>
<text text-anchor="middle" x="3717" y="-80" font-family="Helvetica,sans-Serif" font-size="10.00">VortexEngine/src/VortexEngine.h</text>
</a>
</g>
</g>
<!-- Node1&#45;&gt;Node7 -->
<g id="edge6" class="edge">
<title>Node1&#45;&gt;Node7</title>
<path fill="none" stroke="midnightblue" d="M480.68,-147.03C919.24,-138.42 3156.79,-94.5 3629.3,-85.22"/>
<polygon fill="midnightblue" stroke="midnightblue" points="480.58,-143.54 470.65,-147.23 480.72,-150.53 480.58,-143.54"/>
</g>
<!-- Node7&#45;&gt;Node3 -->
<g id="edge10" class="edge">
<title>Node7&#45;&gt;Node3</title>
<path fill="none" stroke="midnightblue" d="M3618.79,-80.91C3083.55,-77.61 529.43,-60.39 179,-31 176.12,-30.76 173.2,-30.48 170.24,-30.18"/>
<polygon fill="midnightblue" stroke="midnightblue" points="3619.16,-84.42 3629.18,-80.98 3619.2,-77.42 3619.16,-84.42"/>
</g>
<!-- Node7&#45;&gt;Node4 -->
<g id="edge13" class="edge">
<title>Node7&#45;&gt;Node4</title>
<path fill="none" stroke="midnightblue" d="M3619.32,-80.93C3100.77,-77.81 681.44,-61.66 349,-31 346.02,-30.73 342.98,-30.4 339.92,-30.05"/>
<polygon fill="midnightblue" stroke="midnightblue" points="3619.37,-84.43 3629.39,-80.99 3619.41,-77.43 3619.37,-84.43"/>
</g>
<!-- Node7&#45;&gt;Node5 -->
<g id="edge16" class="edge">
<title>Node7&#45;&gt;Node5</title>
<path fill="none" stroke="midnightblue" d="M3619.3,-80.96C3115.03,-78.03 818.13,-63.01 502,-31 498.75,-30.67 495.44,-30.28 492.09,-29.83"/>
<polygon fill="midnightblue" stroke="midnightblue" points="3619.43,-84.46 3629.45,-81.02 3619.47,-77.46 3619.43,-84.46"/>
</g>
<!-- Node7&#45;&gt;Node6 -->
<g id="edge46" class="edge">
<title>Node7&#45;&gt;Node6</title>
<path fill="none" stroke="midnightblue" d="M3619.02,-80.92C3128.32,-77.88 949.58,-62.67 649,-31 646.01,-30.68 642.95,-30.31 639.87,-29.89"/>
<polygon fill="midnightblue" stroke="midnightblue" points="3619.24,-84.42 3629.26,-80.98 3619.28,-77.42 3619.24,-84.42"/>
</g>
<!-- Node8 -->
<g id="node8" class="node">
<title>Node8</title>
<g id="a_node8"><a xlink:href="LedStash_8cpp.html" target="_top" target="_top" xlink:title=" ">
<polygon fill="none" stroke="black" points="5454,-0.5 5454,-30.5 5578,-30.5 5578,-0.5 5454,-0.5"/>
<text text-anchor="start" x="5462" y="-18.5" font-family="Helvetica,sans-Serif" font-size="10.00">VortexEngine/src/Leds</text>
<text text-anchor="middle" x="5516" y="-7.5" font-family="Helvetica,sans-Serif" font-size="10.00">/LedStash.cpp</text>
</a>
</g>
</g>
<!-- Node7&#45;&gt;Node8 -->
<g id="edge7" class="edge">
<title>Node7&#45;&gt;Node8</title>
<path fill="none" stroke="midnightblue" d="M3814.74,-80.86C4131.2,-78.43 5125.74,-67.99 5445,-31 5447.87,-30.67 5450.81,-30.28 5453.76,-29.84"/>
<polygon fill="midnightblue" stroke="midnightblue" points="3814.65,-77.36 3804.67,-80.93 3814.7,-84.36 3814.65,-77.36"/>
</g>
<!-- Node9 -->
<g id="node9" class="node">
<title>Node9</title>
<g id="a_node9"><a xlink:href="Menu_8cpp.html" target="_top" target="_top" xlink:title=" ">
<polygon fill="none" stroke="black" points="5596,-0.5 5596,-30.5 5730,-30.5 5730,-0.5 5596,-0.5"/>
<text text-anchor="start" x="5604" y="-18.5" font-family="Helvetica,sans-Serif" font-size="10.00">VortexEngine/src/Menus</text>
<text text-anchor="middle" x="5663" y="-7.5" font-family="Helvetica,sans-Serif" font-size="10.00">/Menu.cpp</text>
</a>
</g>
</g>
<!-- Node7&#45;&gt;Node9 -->
<g id="edge8" class="edge">
<title>Node7&#45;&gt;Node9</title>
<path fill="none" stroke="midnightblue" d="M3814.67,-80.95C4147.87,-78.73 5238.46,-68.7 5587,-31 5589.94,-30.68 5592.93,-30.31 5595.95,-29.9"/>
<polygon fill="midnightblue" stroke="midnightblue" points="3814.54,-77.45 3804.56,-81.01 3814.58,-84.45 3814.54,-77.45"/>
</g>
<!-- Node10 -->
<g id="node10" class="node">
<title>Node10</title>
<g id="a_node10"><a xlink:href="ColorSelect_8cpp.html" target="_top" target="_top" xlink:title=" ">
<polygon fill="none" stroke="black" points="5748.5,-0.5 5748.5,-30.5 5891.5,-30.5 5891.5,-0.5 5748.5,-0.5"/>
<text text-anchor="start" x="5756.5" y="-18.5" font-family="Helvetica,sans-Serif" font-size="10.00">VortexEngine/src/Menus</text>
<text text-anchor="middle" x="5820" y="-7.5" font-family="Helvetica,sans-Serif" font-size="10.00">/MenuList/ColorSelect.cpp</text>
</a>
</g>
</g>
<!-- Node7&#45;&gt;Node10 -->
<g id="edge9" class="edge">
<title>Node7&#45;&gt;Node10</title>
<path fill="none" stroke="midnightblue" d="M3814.76,-81.03C4165.39,-79.04 5359.11,-69.52 5739,-31 5741.98,-30.7 5745.02,-30.35 5748.09,-29.96"/>
<polygon fill="midnightblue" stroke="midnightblue" points="3814.61,-77.53 3804.63,-81.09 3814.65,-84.53 3814.61,-77.53"/>
</g>
<!-- Node11 -->
<g id="node11" class="node">
<title>Node11</title>
<g id="a_node11"><a xlink:href="FactoryReset_8cpp.html" target="_top" target="_top" xlink:title=" ">
<polygon fill="none" stroke="black" points="5910,-0.5 5910,-30.5 6060,-30.5 6060,-0.5 5910,-0.5"/>
<text text-anchor="start" x="5918" y="-18.5" font-family="Helvetica,sans-Serif" font-size="10.00">VortexEngine/src/Menus</text>
<text text-anchor="middle" x="5985" y="-7.5" font-family="Helvetica,sans-Serif" font-size="10.00">/MenuList/FactoryReset.cpp</text>
</a>
</g>
</g>
<!-- Node7&#45;&gt;Node11 -->
<g id="edge11" class="edge">
<title>Node7&#45;&gt;Node11</title>
<path fill="none" stroke="midnightblue" d="M3814.72,-81.16C4183.07,-79.59 5487.63,-71.23 5901,-31 5903.95,-30.71 5906.94,-30.38 5909.97,-30.02"/>
<polygon fill="midnightblue" stroke="midnightblue" points="3814.6,-77.66 3804.62,-81.2 3814.63,-84.66 3814.6,-77.66"/>
</g>
<!-- Node12 -->
<g id="node12" class="node">
<title>Node12</title>
<g id="a_node12"><a xlink:href="GlobalBrightness_8cpp.html" target="_top" target="_top" xlink:title=" ">
<polygon fill="none" stroke="black" points="6078,-0.5 6078,-30.5 6248,-30.5 6248,-0.5 6078,-0.5"/>
<text text-anchor="start" x="6086" y="-18.5" font-family="Helvetica,sans-Serif" font-size="10.00">VortexEngine/src/Menus</text>
<text text-anchor="middle" x="6163" y="-7.5" font-family="Helvetica,sans-Serif" font-size="10.00">/MenuList/GlobalBrightness.cpp</text>
</a>
</g>
</g>
<!-- Node7&#45;&gt;Node12 -->
<g id="edge12" class="edge">
<title>Node7&#45;&gt;Node12</title>
<path fill="none" stroke="midnightblue" d="M3814.68,-81.12C4200.7,-79.34 5620.58,-70.23 6069,-31 6071.88,-30.75 6074.8,-30.46 6077.75,-30.15"/>
<polygon fill="midnightblue" stroke="midnightblue" points="3814.64,-77.62 3804.66,-81.16 3814.67,-84.62 3814.64,-77.62"/>
</g>
<!-- Node13 -->
<g id="node13" class="node">
<title>Node13</title>
<g id="a_node13"><a xlink:href="PatternSelect_8cpp.html" target="_top" target="_top" xlink:title=" ">
<polygon fill="none" stroke="black" points="6266,-0.5 6266,-30.5 6418,-30.5 6418,-0.5 6266,-0.5"/>
<text text-anchor="start" x="6274" y="-18.5" font-family="Helvetica,sans-Serif" font-size="10.00">VortexEngine/src/Menus</text>
<text text-anchor="middle" x="6342" y="-7.5" font-family="Helvetica,sans-Serif" font-size="10.00">/MenuList/PatternSelect.cpp</text>
</a>
</g>
</g>
<!-- Node7&#45;&gt;Node13 -->
<g id="edge14" class="edge">
<title>Node7&#45;&gt;Node13</title>
<path fill="none" stroke="midnightblue" d="M3814.94,-81.51C4220.55,-81.23 5770.1,-77.11 6257,-31 6259.83,-30.73 6262.71,-30.42 6265.62,-30.08"/>
<polygon fill="midnightblue" stroke="midnightblue" points="3814.71,-78.01 3804.71,-81.51 3814.71,-85.01 3814.71,-78.01"/>
</g>
<!-- Node14 -->
<g id="node14" class="node">
<title>Node14</title>
<g id="a_node14"><a xlink:href="Randomizer_8cpp.html" target="_top" target="_top" xlink:title=" ">
<polygon fill="none" stroke="black" points="6436.5,-0.5 6436.5,-30.5 6581.5,-30.5 6581.5,-0.5 6436.5,-0.5"/>
<text text-anchor="start" x="6444.5" y="-18.5" font-family="Helvetica,sans-Serif" font-size="10.00">VortexEngine/src/Menus</text>
<text text-anchor="middle" x="6509" y="-7.5" font-family="Helvetica,sans-Serif" font-size="10.00">/MenuList/Randomizer.cpp</text>
</a>
</g>
</g>
<!-- Node7&#45;&gt;Node14 -->
<g id="edge15" class="edge">
<title>Node7&#45;&gt;Node14</title>
<path fill="none" stroke="midnightblue" d="M3814.8,-81.73C4236.91,-82.4 5904.92,-81.71 6427,-31 6430.02,-30.71 6433.1,-30.36 6436.2,-29.98"/>
<polygon fill="midnightblue" stroke="midnightblue" points="3814.76,-78.23 3804.76,-81.71 3814.75,-85.23 3814.76,-78.23"/>
</g>
<!-- Node15 -->
<g id="node15" class="node">
<title>Node15</title>
<g id="a_node15"><a xlink:href="Mode_8cpp.html" target="_top" target="_top" xlink:title=" ">
<polygon fill="none" stroke="black" points="6600,-0.5 6600,-30.5 6734,-30.5 6734,-0.5 6600,-0.5"/>
<text text-anchor="start" x="6608" y="-18.5" font-family="Helvetica,sans-Serif" font-size="10.00">VortexEngine/src/Modes</text>
<text text-anchor="middle" x="6667" y="-7.5" font-family="Helvetica,sans-Serif" font-size="10.00">/Mode.cpp</text>
</a>
</g>
</g>
<!-- Node7&#45;&gt;Node15 -->
<g id="edge17" class="edge">
<title>Node7&#45;&gt;Node15</title>
<path fill="none" stroke="midnightblue" d="M3814.86,-80.77C4286.15,-77.15 6310.59,-60 6591,-31 6593.94,-30.7 6596.93,-30.34 6599.96,-29.94"/>
<polygon fill="midnightblue" stroke="midnightblue" points="3814.66,-77.28 3804.69,-80.85 3814.71,-84.28 3814.66,-77.28"/>
</g>
<!-- Node16 -->
<g id="node16" class="node">
<title>Node16</title>
<g id="a_node16"><a xlink:href="Modes_8cpp.html" target="_top" target="_top" xlink:title=" ">
<polygon fill="none" stroke="black" points="6752,-0.5 6752,-30.5 6886,-30.5 6886,-0.5 6752,-0.5"/>
<text text-anchor="start" x="6760" y="-18.5" font-family="Helvetica,sans-Serif" font-size="10.00">VortexEngine/src/Modes</text>
<text text-anchor="middle" x="6819" y="-7.5" font-family="Helvetica,sans-Serif" font-size="10.00">/Modes.cpp</text>
</a>
</g>
</g>
<!-- Node7&#45;&gt;Node16 -->
<g id="edge18" class="edge">
<title>Node7&#45;&gt;Node16</title>
<path fill="none" stroke="midnightblue" d="M3814.83,-80.87C4301.13,-77.59 6446.71,-61.51 6743,-31 6745.94,-30.7 6748.94,-30.34 6751.96,-29.94"/>
<polygon fill="midnightblue" stroke="midnightblue" points="3814.66,-77.37 3804.68,-80.94 3814.7,-84.37 3814.66,-77.37"/>
</g>
<!-- Node17 -->
<g id="node17" class="node">
<title>Node17</title>
<g id="a_node17"><a xlink:href="BlinkStepPattern_8cpp.html" target="_top" target="_top" xlink:title=" ">
<polygon fill="none" stroke="black" points="6904.5,-0.5 6904.5,-30.5 7053.5,-30.5 7053.5,-0.5 6904.5,-0.5"/>
<text text-anchor="start" x="6912.5" y="-18.5" font-family="Helvetica,sans-Serif" font-size="10.00">VortexEngine/src/Patterns</text>
<text text-anchor="middle" x="6979" y="-7.5" font-family="Helvetica,sans-Serif" font-size="10.00">/Multi/BlinkStepPattern.cpp</text>
</a>
</g>
</g>
<!-- Node7&#45;&gt;Node17 -->
<g id="edge19" class="edge">
<title>Node7&#45;&gt;Node17</title>
<path fill="none" stroke="midnightblue" d="M3814.8,-80.85C4315.71,-77.4 6582.53,-60.27 6895,-31 6898.09,-30.71 6901.25,-30.37 6904.43,-29.99"/>
<polygon fill="midnightblue" stroke="midnightblue" points="3814.68,-77.35 3804.71,-80.92 3814.73,-84.35 3814.68,-77.35"/>
</g>
<!-- Node18 -->
<g id="node18" class="node">
<title>Node18</title>
<g id="a_node18"><a xlink:href="BouncePattern_8cpp.html" target="_top" target="_top" xlink:title=" ">
<polygon fill="none" stroke="black" points="7071.5,-0.5 7071.5,-30.5 7212.5,-30.5 7212.5,-0.5 7071.5,-0.5"/>
<text text-anchor="start" x="7079.5" y="-18.5" font-family="Helvetica,sans-Serif" font-size="10.00">VortexEngine/src/Patterns</text>
<text text-anchor="middle" x="7142" y="-7.5" font-family="Helvetica,sans-Serif" font-size="10.00">/Multi/BouncePattern.cpp</text>
</a>
</g>
</g>
<!-- Node7&#45;&gt;Node18 -->
<g id="edge20" class="edge">
<title>Node7&#45;&gt;Node18</title>
<path fill="none" stroke="midnightblue" d="M3814.89,-80.99C4331.87,-78.2 6733.11,-63.54 7063,-31 7065.78,-30.73 7068.6,-30.41 7071.45,-30.05"/>
<polygon fill="midnightblue" stroke="midnightblue" points="3814.83,-77.5 3804.85,-81.05 3814.87,-84.5 3814.83,-77.5"/>
</g>
<!-- Node19 -->
<g id="node19" class="node">
<title>Node19</title>
<g id="a_node19"><a xlink:href="CompoundPattern_8cpp.html" target="_top" target="_top" xlink:title=" ">
<polygon fill="none" stroke="black" points="7230.5,-0.5 7230.5,-30.5 7385.5,-30.5 7385.5,-0.5 7230.5,-0.5"/>
<text text-anchor="start" x="7238.5" y="-18.5" font-family="Helvetica,sans-Serif" font-size="10.00">VortexEngine/src/Patterns</text>
<text text-anchor="middle" x="7308" y="-7.5" font-family="Helvetica,sans-Serif" font-size="10.00">/Multi/CompoundPattern.cpp</text>
</a>
</g>
</g>
<!-- Node7&#45;&gt;Node19 -->
<g id="edge21" class="edge">
<title>Node7&#45;&gt;Node19</title>
<path fill="none" stroke="midnightblue" d="M3815.16,-80.98C4347.33,-78.05 6875.24,-62.54 7222,-31 7224.71,-30.75 7227.47,-30.47 7230.25,-30.15"/>
<polygon fill="midnightblue" stroke="midnightblue" points="3814.81,-77.48 3804.83,-81.04 3814.85,-84.48 3814.81,-77.48"/>
</g>
<!-- Node20 -->
<g id="node20" class="node">
<title>Node20</title>
<g id="a_node20"><a xlink:href="CrossDopsPattern_8cpp.html" target="_top" target="_top" xlink:title=" ">
<polygon fill="none" stroke="black" points="658,-0.5 658,-30.5 812,-30.5 812,-0.5 658,-0.5"/>
<text text-anchor="start" x="666" y="-18.5" font-family="Helvetica,sans-Serif" font-size="10.00">VortexEngine/src/Patterns</text>
<text text-anchor="middle" x="735" y="-7.5" font-family="Helvetica,sans-Serif" font-size="10.00">/Multi/CrossDopsPattern.cpp</text>
</a>
</g>
</g>
<!-- Node7&#45;&gt;Node20 -->
<g id="edge22" class="edge">
<title>Node7&#45;&gt;Node20</title>
<path fill="none" stroke="midnightblue" d="M3619.14,-81.76C3179.23,-82.63 1381.92,-82.88 821,-31 818.14,-30.74 815.22,-30.43 812.28,-30.09"/>
<polygon fill="midnightblue" stroke="midnightblue" points="3619.28,-85.26 3629.27,-81.74 3619.27,-78.26 3619.28,-85.26"/>
</g>
<!-- Node21 -->
<g id="node21" class="node">
<title>Node21</title>
<g id="a_node21"><a xlink:href="DoubleStrobePattern_8cpp.html" target="_top" target="_top" xlink:title=" ">
<polygon fill="none" stroke="black" points="830,-0.5 830,-30.5 998,-30.5 998,-0.5 830,-0.5"/>
<text text-anchor="start" x="838" y="-18.5" font-family="Helvetica,sans-Serif" font-size="10.00">VortexEngine/src/Patterns</text>
<text text-anchor="middle" x="914" y="-7.5" font-family="Helvetica,sans-Serif" font-size="10.00">/Multi/DoubleStrobePattern.cpp</text>
</a>
</g>
</g>
<!-- Node7&#45;&gt;Node21 -->
<g id="edge23" class="edge">
<title>Node7&#45;&gt;Node21</title>
<path fill="none" stroke="midnightblue" d="M3619.27,-81.44C3197.41,-80.91 1530.42,-75.96 1008,-31 1004.79,-30.72 1001.53,-30.41 998.23,-30.05"/>
<polygon fill="midnightblue" stroke="midnightblue" points="3619.29,-84.94 3629.3,-81.45 3619.3,-77.94 3619.29,-84.94"/>
</g>
<!-- Node22 -->
<g id="node22" class="node">
<title>Node22</title>
<g id="a_node22"><a xlink:href="DripMorphPattern_8cpp.html" target="_top" target="_top" xlink:title=" ">
<polygon fill="none" stroke="black" points="1016.5,-0.5 1016.5,-30.5 1169.5,-30.5 1169.5,-0.5 1016.5,-0.5"/>
<text text-anchor="start" x="1024.5" y="-18.5" font-family="Helvetica,sans-Serif" font-size="10.00">VortexEngine/src/Patterns</text>
<text text-anchor="middle" x="1093" y="-7.5" font-family="Helvetica,sans-Serif" font-size="10.00">/Multi/DripMorphPattern.cpp</text>
</a>
</g>
</g>
<!-- Node7&#45;&gt;Node22 -->
<g id="edge24" class="edge">
<title>Node7&#45;&gt;Node22</title>
<path fill="none" stroke="midnightblue" d="M3619.14,-81.48C3213.86,-81.09 1665.56,-76.61 1179,-31 1175.98,-30.72 1172.92,-30.39 1169.82,-30.03"/>
<polygon fill="midnightblue" stroke="midnightblue" points="3619.36,-84.98 3629.36,-81.49 3619.36,-77.98 3619.36,-84.98"/>
</g>
<!-- Node23 -->
<g id="node23" class="node">
<title>Node23</title>
<g id="a_node23"><a xlink:href="DripPattern_8cpp.html" target="_top" target="_top" xlink:title=" ">
<polygon fill="none" stroke="black" points="1187.5,-0.5 1187.5,-30.5 1328.5,-30.5 1328.5,-0.5 1187.5,-0.5"/>
<text text-anchor="start" x="1195.5" y="-18.5" font-family="Helvetica,sans-Serif" font-size="10.00">VortexEngine/src/Patterns</text>
<text text-anchor="middle" x="1258" y="-7.5" font-family="Helvetica,sans-Serif" font-size="10.00">/Multi/DripPattern.cpp</text>
</a>
</g>
</g>
<!-- Node7&#45;&gt;Node23 -->
<g id="edge25" class="edge">
<title>Node7&#45;&gt;Node23</title>
<path fill="none" stroke="midnightblue" d="M3619.15,-81.49C3230.02,-81.11 1791.39,-76.61 1338,-31 1334.91,-30.69 1331.76,-30.32 1328.58,-29.92"/>
<polygon fill="midnightblue" stroke="midnightblue" points="3619.25,-84.99 3629.25,-81.5 3619.26,-77.99 3619.25,-84.99"/>
</g>
<!-- Node24 -->
<g id="node24" class="node">
<title>Node24</title>
<g id="a_node24"><a xlink:href="FillPattern_8cpp.html" target="_top" target="_top" xlink:title=" ">
<polygon fill="none" stroke="black" points="1346.5,-0.5 1346.5,-30.5 1487.5,-30.5 1487.5,-0.5 1346.5,-0.5"/>
<text text-anchor="start" x="1354.5" y="-18.5" font-family="Helvetica,sans-Serif" font-size="10.00">VortexEngine/src/Patterns</text>
<text text-anchor="middle" x="1417" y="-7.5" font-family="Helvetica,sans-Serif" font-size="10.00">/Multi/FillPattern.cpp</text>
</a>
</g>
</g>
<!-- Node7&#45;&gt;Node24 -->
<g id="edge26" class="edge">
<title>Node7&#45;&gt;Node24</title>
<path fill="none" stroke="midnightblue" d="M3619.24,-81.31C3246.95,-80.28 1917.6,-73.64 1497,-31 1493.91,-30.69 1490.76,-30.32 1487.59,-29.91"/>
<polygon fill="midnightblue" stroke="midnightblue" points="3619.44,-84.81 3629.45,-81.34 3619.46,-77.81 3619.44,-84.81"/>
</g>
<!-- Node25 -->
<g id="node25" class="node">
<title>Node25</title>
<g id="a_node25"><a xlink:href="HueShiftPattern_8cpp.html" target="_top" target="_top" xlink:title=" ">
<polygon fill="none" stroke="black" points="1505.5,-0.5 1505.5,-30.5 1648.5,-30.5 1648.5,-0.5 1505.5,-0.5"/>
<text text-anchor="start" x="1513.5" y="-18.5" font-family="Helvetica,sans-Serif" font-size="10.00">VortexEngine/src/Patterns</text>
<text text-anchor="middle" x="1577" y="-7.5" font-family="Helvetica,sans-Serif" font-size="10.00">/Multi/HueShiftPattern.cpp</text>
</a>
</g>
</g>
<!-- Node7&#45;&gt;Node25 -->
<g id="edge27" class="edge">
<title>Node7&#45;&gt;Node25</title>
<path fill="none" stroke="midnightblue" d="M3618.97,-81.08C3263.87,-79.25 2045.4,-70.19 1658,-31 1655.02,-30.7 1651.97,-30.35 1648.91,-29.96"/>
<polygon fill="midnightblue" stroke="midnightblue" points="3619.21,-84.58 3629.22,-81.13 3619.24,-77.58 3619.21,-84.58"/>
</g>
<!-- Node26 -->
<g id="node26" class="node">
<title>Node26</title>
<g id="a_node26"><a xlink:href="LighthousePattern_8cpp.html" target="_top" target="_top" xlink:title=" ">
<polygon fill="none" stroke="black" points="1666.5,-0.5 1666.5,-30.5 1821.5,-30.5 1821.5,-0.5 1666.5,-0.5"/>
<text text-anchor="start" x="1674.5" y="-18.5" font-family="Helvetica,sans-Serif" font-size="10.00">VortexEngine/src/Patterns</text>
<text text-anchor="middle" x="1744" y="-7.5" font-family="Helvetica,sans-Serif" font-size="10.00">/Multi/LighthousePattern.cpp</text>
</a>
</g>
</g>
<!-- Node7&#45;&gt;Node26 -->
<g id="edge28" class="edge">
<title>Node7&#45;&gt;Node26</title>
<path fill="none" stroke="midnightblue" d="M3619.1,-80.67C3283.83,-77.54 2183.14,-64.9 1831,-31 1827.95,-30.71 1824.85,-30.37 1821.72,-30"/>
<polygon fill="midnightblue" stroke="midnightblue" points="3619.24,-84.17 3629.27,-80.76 3619.31,-77.17 3619.24,-84.17"/>
</g>
<!-- Node27 -->
<g id="node27" class="node">
<title>Node27</title>
<g id="a_node27"><a xlink:href="MeteorPattern_8cpp.html" target="_top" target="_top" xlink:title=" ">
<polygon fill="none" stroke="black" points="1839.5,-0.5 1839.5,-30.5 1980.5,-30.5 1980.5,-0.5 1839.5,-0.5"/>
<text text-anchor="start" x="1847.5" y="-18.5" font-family="Helvetica,sans-Serif" font-size="10.00">VortexEngine/src/Patterns</text>
<text text-anchor="middle" x="1910" y="-7.5" font-family="Helvetica,sans-Serif" font-size="10.00">/Multi/MeteorPattern.cpp</text>
</a>
</g>
</g>
<!-- Node7&#45;&gt;Node27 -->
<g id="edge29" class="edge">
<title>Node7&#45;&gt;Node27</title>
<path fill="none" stroke="midnightblue" d="M3619.35,-80.57C3303.17,-77.27 2309.47,-64.43 1990,-31 1986.91,-30.68 1983.76,-30.3 1980.59,-29.89"/>
<polygon fill="midnightblue" stroke="midnightblue" points="3619.37,-84.07 3629.41,-80.68 3619.44,-77.07 3619.37,-84.07"/>
</g>
<!-- Node28 -->
<g id="node28" class="node">
<title>Node28</title>
<g id="a_node28"><a xlink:href="MultiLedPattern_8cpp.html" target="_top" target="_top" xlink:title=" ">
<polygon fill="none" stroke="black" points="1999,-0.5 1999,-30.5 2143,-30.5 2143,-0.5 1999,-0.5"/>
<text text-anchor="start" x="2007" y="-18.5" font-family="Helvetica,sans-Serif" font-size="10.00">VortexEngine/src/Patterns</text>
<text text-anchor="middle" x="2071" y="-7.5" font-family="Helvetica,sans-Serif" font-size="10.00">/Multi/MultiLedPattern.cpp</text>
</a>
</g>
</g>
<!-- Node7&#45;&gt;Node28 -->
<g id="edge30" class="edge">
<title>Node7&#45;&gt;Node28</title>
<path fill="none" stroke="midnightblue" d="M3619.08,-80.17C3322.89,-75.85 2439.24,-60.78 2153,-31 2149.84,-30.67 2146.61,-30.29 2143.36,-29.87"/>
<polygon fill="midnightblue" stroke="midnightblue" points="3619.32,-83.67 3629.37,-80.32 3619.42,-76.67 3619.32,-83.67"/>
</g>
<!-- Node29 -->
<g id="node29" class="node">
<title>Node29</title>
<g id="a_node29"><a xlink:href="PulsishPattern_8cpp.html" target="_top" target="_top" xlink:title=" ">
<polygon fill="none" stroke="black" points="2161.5,-0.5 2161.5,-30.5 2302.5,-30.5 2302.5,-0.5 2161.5,-0.5"/>
<text text-anchor="start" x="2169.5" y="-18.5" font-family="Helvetica,sans-Serif" font-size="10.00">VortexEngine/src/Patterns</text>
<text text-anchor="middle" x="2232" y="-7.5" font-family="Helvetica,sans-Serif" font-size="10.00">/Multi/PulsishPattern.cpp</text>
</a>
</g>
</g>
<!-- Node7&#45;&gt;Node29 -->
<g id="edge31" class="edge">
<title>Node7&#45;&gt;Node29</title>
<path fill="none" stroke="midnightblue" d="M3618.69,-79.8C3342.95,-74.75 2565.81,-58.42 2312,-31 2308.91,-30.67 2305.77,-30.28 2302.59,-29.86"/>
<polygon fill="midnightblue" stroke="midnightblue" points="3619.02,-83.31 3629.08,-79.99 3619.14,-76.31 3619.02,-83.31"/>
</g>
<!-- Node30 -->
<g id="node30" class="node">
<title>Node30</title>
<g id="a_node30"><a xlink:href="ChaserPattern_8cpp.html" target="_top" target="_top" xlink:title=" ">
<polygon fill="none" stroke="black" points="2321,-0.5 2321,-30.5 2511,-30.5 2511,-0.5 2321,-0.5"/>
<text text-anchor="start" x="2329" y="-18.5" font-family="Helvetica,sans-Serif" font-size="10.00">VortexEngine/src/Patterns</text>
<text text-anchor="middle" x="2416" y="-7.5" font-family="Helvetica,sans-Serif" font-size="10.00">/Multi/Sequencer/ChaserPattern.cpp</text>
</a>
</g>
</g>
<!-- Node7&#45;&gt;Node30 -->
<g id="edge32" class="edge">
<title>Node7&#45;&gt;Node30</title>
<path fill="none" stroke="midnightblue" d="M3619.3,-80.52C3415,-77.77 2927.85,-67.6 2521,-31 2517.79,-30.71 2514.53,-30.39 2511.24,-30.05"/>
<polygon fill="midnightblue" stroke="midnightblue" points="3619.36,-84.02 3629.4,-80.65 3619.45,-77.02 3619.36,-84.02"/>
</g>
<!-- Node31 -->
<g id="node31" class="node">
<title>Node31</title>
<g id="a_node31"><a xlink:href="Sequence_8cpp.html" target="_top" target="_top" xlink:title=" ">
<polygon fill="none" stroke="black" points="2529.5,-0.5 2529.5,-30.5 2698.5,-30.5 2698.5,-0.5 2529.5,-0.5"/>
<text text-anchor="start" x="2537.5" y="-18.5" font-family="Helvetica,sans-Serif" font-size="10.00">VortexEngine/src/Patterns</text>
<text text-anchor="middle" x="2614" y="-7.5" font-family="Helvetica,sans-Serif" font-size="10.00">/Multi/Sequencer/Sequence.cpp</text>
</a>
</g>
</g>
<!-- Node7&#45;&gt;Node31 -->
<g id="edge33" class="edge">
<title>Node7&#45;&gt;Node31</title>
<path fill="none" stroke="midnightblue" d="M3619.11,-79.95C3438.57,-76.34 3041.13,-64.94 2708,-31 2704.96,-30.69 2701.87,-30.35 2698.75,-29.98"/>
<polygon fill="midnightblue" stroke="midnightblue" points="3619.31,-83.45 3629.38,-80.15 3619.45,-76.45 3619.31,-83.45"/>
</g>
<!-- Node32 -->
<g id="node32" class="node">
<title>Node32</title>
<g id="a_node32"><a xlink:href="SequencedPattern_8cpp.html" target="_top" target="_top" xlink:title=" ">
<polygon fill="none" stroke="black" points="2716.5,-0.5 2716.5,-30.5 2925.5,-30.5 2925.5,-0.5 2716.5,-0.5"/>
<text text-anchor="start" x="2724.5" y="-18.5" font-family="Helvetica,sans-Serif" font-size="10.00">VortexEngine/src/Patterns</text>
<text text-anchor="middle" x="2821" y="-7.5" font-family="Helvetica,sans-Serif" font-size="10.00">/Multi/Sequencer/SequencedPattern.cpp</text>
</a>
</g>
</g>
<!-- Node7&#45;&gt;Node32 -->
<g id="edge34" class="edge">
<title>Node7&#45;&gt;Node32</title>
<path fill="none" stroke="midnightblue" d="M3619.06,-77.13C3470.81,-70.07 3180.66,-54.53 2935,-31 2931.92,-30.71 2928.8,-30.39 2925.65,-30.07"/>
<polygon fill="midnightblue" stroke="midnightblue" points="3619.33,-80.65 3629.49,-77.62 3619.66,-73.65 3619.33,-80.65"/>
</g>
<!-- Node33 -->
<g id="node33" class="node">
<title>Node33</title>
<g id="a_node33"><a xlink:href="SnowballPattern_8cpp.html" target="_top" target="_top" xlink:title=" ">
<polygon fill="none" stroke="black" points="2944,-0.5 2944,-30.5 3090,-30.5 3090,-0.5 2944,-0.5"/>
<text text-anchor="start" x="2952" y="-18.5" font-family="Helvetica,sans-Serif" font-size="10.00">VortexEngine/src/Patterns</text>
<text text-anchor="middle" x="3017" y="-7.5" font-family="Helvetica,sans-Serif" font-size="10.00">/Multi/SnowballPattern.cpp</text>
</a>
</g>
</g>
<!-- Node7&#45;&gt;Node33 -->
<g id="edge35" class="edge">
<title>Node7&#45;&gt;Node33</title>
<path fill="none" stroke="midnightblue" d="M3619.41,-76.35C3497.36,-69.26 3282.16,-54.62 3099,-31 3096.13,-30.63 3093.21,-30.23 3090.27,-29.81"/>
<polygon fill="midnightblue" stroke="midnightblue" points="3619.3,-79.85 3629.48,-76.93 3619.7,-72.86 3619.3,-79.85"/>
</g>
<!-- Node34 -->
<g id="node34" class="node">
<title>Node34</title>
<g id="a_node34"><a xlink:href="SparkleTracePattern_8cpp.html" target="_top" target="_top" xlink:title=" ">
<polygon fill="none" stroke="black" points="3108,-0.5 3108,-30.5 3272,-30.5 3272,-0.5 3108,-0.5"/>
<text text-anchor="start" x="3116" y="-18.5" font-family="Helvetica,sans-Serif" font-size="10.00">VortexEngine/src/Patterns</text>
<text text-anchor="middle" x="3190" y="-7.5" font-family="Helvetica,sans-Serif" font-size="10.00">/Multi/SparkleTracePattern.cpp</text>
</a>
</g>
</g>
<!-- Node7&#45;&gt;Node34 -->
<g id="edge36" class="edge">
<title>Node7&#45;&gt;Node34</title>
<path fill="none" stroke="midnightblue" d="M3624.1,-71.9C3535.73,-62.5 3399.12,-47.24 3281,-31 3278.15,-30.61 3275.25,-30.2 3272.32,-29.78"/>
<polygon fill="midnightblue" stroke="midnightblue" points="3623.78,-75.39 3634.09,-72.96 3624.52,-68.43 3623.78,-75.39"/>
</g>
<!-- Node35 -->
<g id="node35" class="node">
<title>Node35</title>
<g id="a_node35"><a xlink:href="TheaterChasePattern_8cpp.html" target="_top" target="_top" xlink:title=" ">
<polygon fill="none" stroke="black" points="3290,-0.5 3290,-30.5 3460,-30.5 3460,-0.5 3290,-0.5"/>
<text text-anchor="start" x="3298" y="-18.5" font-family="Helvetica,sans-Serif" font-size="10.00">VortexEngine/src/Patterns</text>
<text text-anchor="middle" x="3375" y="-7.5" font-family="Helvetica,sans-Serif" font-size="10.00">/Multi/TheaterChasePattern.cpp</text>
</a>
</g>
</g>
<!-- Node7&#45;&gt;Node35 -->
<g id="edge37" class="edge">
<title>Node7&#45;&gt;Node35</title>
<path fill="none" stroke="midnightblue" d="M3661.9,-71.03C3604.12,-60.05 3512.99,-42.73 3448.97,-30.56"/>
<polygon fill="midnightblue" stroke="midnightblue" points="3661.46,-74.51 3671.94,-72.94 3662.77,-67.63 3661.46,-74.51"/>
</g>
<!-- Node36 -->
<g id="node36" class="node">
<title>Node36</title>
<g id="a_node36"><a xlink:href="VortexPattern_8cpp.html" target="_top" target="_top" xlink:title=" ">
<polygon fill="none" stroke="black" points="3478.5,-0.5 3478.5,-30.5 3619.5,-30.5 3619.5,-0.5 3478.5,-0.5"/>
<text text-anchor="start" x="3486.5" y="-18.5" font-family="Helvetica,sans-Serif" font-size="10.00">VortexEngine/src/Patterns</text>
<text text-anchor="middle" x="3549" y="-7.5" font-family="Helvetica,sans-Serif" font-size="10.00">/Multi/VortexPattern.cpp</text>
</a>
</g>
</g>
<!-- Node7&#45;&gt;Node36 -->
<g id="edge38" class="edge">
<title>Node7&#45;&gt;Node36</title>
<path fill="none" stroke="midnightblue" d="M3685.22,-69.2C3656.75,-58.19 3615.02,-42.04 3585.26,-30.53"/>
<polygon fill="midnightblue" stroke="midnightblue" points="3684.1,-72.52 3694.69,-72.87 3686.63,-66 3684.1,-72.52"/>
</g>
<!-- Node37 -->
<g id="node37" class="node">
<title>Node37</title>
<g id="a_node37"><a xlink:href="VortexWipePattern_8cpp.html" target="_top" target="_top" xlink:title=" ">
<polygon fill="none" stroke="black" points="3638,-0.5 3638,-30.5 3796,-30.5 3796,-0.5 3638,-0.5"/>
<text text-anchor="start" x="3646" y="-18.5" font-family="Helvetica,sans-Serif" font-size="10.00">VortexEngine/src/Patterns</text>
<text text-anchor="middle" x="3717" y="-7.5" font-family="Helvetica,sans-Serif" font-size="10.00">/Multi/VortexWipePattern.cpp</text>
</a>
</g>
</g>
<!-- Node7&#45;&gt;Node37 -->
<g id="edge39" class="edge">
<title>Node7&#45;&gt;Node37</title>
<path fill="none" stroke="midnightblue" d="M3717,-62.41C3717,-52.22 3717,-39.9 3717,-30.59"/>
<polygon fill="midnightblue" stroke="midnightblue" points="3713.5,-62.73 3717,-72.73 3720.5,-62.73 3713.5,-62.73"/>
</g>
<!-- Node38 -->
<g id="node38" class="node">
<title>Node38</title>
<g id="a_node38"><a xlink:href="WarpPattern_8cpp.html" target="_top" target="_top" xlink:title=" ">
<polygon fill="none" stroke="black" points="3814.5,-0.5 3814.5,-30.5 3955.5,-30.5 3955.5,-0.5 3814.5,-0.5"/>
<text text-anchor="start" x="3822.5" y="-18.5" font-family="Helvetica,sans-Serif" font-size="10.00">VortexEngine/src/Patterns</text>
<text text-anchor="middle" x="3885" y="-7.5" font-family="Helvetica,sans-Serif" font-size="10.00">/Multi/WarpPattern.cpp</text>
</a>
</g>
</g>
<!-- Node7&#45;&gt;Node38 -->
<g id="edge40" class="edge">
<title>Node7&#45;&gt;Node38</title>
<path fill="none" stroke="midnightblue" d="M3748.78,-69.2C3777.25,-58.19 3818.98,-42.04 3848.74,-30.53"/>
<polygon fill="midnightblue" stroke="midnightblue" points="3747.37,-66 3739.31,-72.87 3749.9,-72.52 3747.37,-66"/>
</g>
<!-- Node39 -->
<g id="node39" class="node">
<title>Node39</title>
<g id="a_node39"><a xlink:href="WarpWormPattern_8cpp.html" target="_top" target="_top" xlink:title=" ">
<polygon fill="none" stroke="black" points="3973.5,-0.5 3973.5,-30.5 4128.5,-30.5 4128.5,-0.5 3973.5,-0.5"/>
<text text-anchor="start" x="3981.5" y="-18.5" font-family="Helvetica,sans-Serif" font-size="10.00">VortexEngine/src/Patterns</text>
<text text-anchor="middle" x="4051" y="-7.5" font-family="Helvetica,sans-Serif" font-size="10.00">/Multi/WarpWormPattern.cpp</text>
</a>
</g>
</g>
<!-- Node7&#45;&gt;Node39 -->
<g id="edge41" class="edge">
<title>Node7&#45;&gt;Node39</title>
<path fill="none" stroke="midnightblue" d="M3771.16,-70.96C3827.6,-59.98 3916.37,-42.7 3978.76,-30.56"/>
<polygon fill="midnightblue" stroke="midnightblue" points="3770.16,-67.59 3761.01,-72.94 3771.49,-74.46 3770.16,-67.59"/>
</g>
<!-- Node40 -->
<g id="node40" class="node">
<title>Node40</title>
<g id="a_node40"><a xlink:href="ZigzagPattern_8cpp.html" target="_top" target="_top" xlink:title=" ">
<polygon fill="none" stroke="black" points="4146.5,-0.5 4146.5,-30.5 4287.5,-30.5 4287.5,-0.5 4146.5,-0.5"/>
<text text-anchor="start" x="4154.5" y="-18.5" font-family="Helvetica,sans-Serif" font-size="10.00">VortexEngine/src/Patterns</text>
<text text-anchor="middle" x="4217" y="-7.5" font-family="Helvetica,sans-Serif" font-size="10.00">/Multi/ZigzagPattern.cpp</text>
</a>
</g>
</g>
<!-- Node7&#45;&gt;Node40 -->
<g id="edge42" class="edge">
<title>Node7&#45;&gt;Node40</title>
<path fill="none" stroke="midnightblue" d="M3811.28,-71.89C3896.75,-62.77 4026.1,-47.96 4138,-31 4140.76,-30.58 4143.57,-30.14 4146.4,-29.68"/>
<polygon fill="midnightblue" stroke="midnightblue" points="3810.65,-68.43 3801.08,-72.97 3811.39,-75.39 3810.65,-68.43"/>
</g>
<!-- Node41 -->
<g id="node41" class="node">
<title>Node41</title>
<g id="a_node41"><a xlink:href="Pattern_8cpp.html" target="_top" target="_top" xlink:title=" ">
<polygon fill="none" stroke="black" points="4305.5,-0.5 4305.5,-30.5 4446.5,-30.5 4446.5,-0.5 4305.5,-0.5"/>
<text text-anchor="start" x="4313.5" y="-18.5" font-family="Helvetica,sans-Serif" font-size="10.00">VortexEngine/src/Patterns</text>
<text text-anchor="middle" x="4376" y="-7.5" font-family="Helvetica,sans-Serif" font-size="10.00">/Pattern.cpp</text>
</a>
</g>
</g>
<!-- Node7&#45;&gt;Node41 -->
<g id="edge43" class="edge">
<title>Node7&#45;&gt;Node41</title>
<path fill="none" stroke="midnightblue" d="M3814.97,-75.81C3930.54,-68.44 4128.3,-53.77 4297,-31 4299.76,-30.63 4302.58,-30.22 4305.42,-29.8"/>
<polygon fill="midnightblue" stroke="midnightblue" points="3814.5,-72.33 3804.74,-76.46 3814.94,-79.32 3814.5,-72.33"/>
</g>
<!-- Node42 -->
<g id="node42" class="node">
<title>Node42</title>
<g id="a_node42"><a xlink:href="BasicPattern_8cpp.html" target="_top" target="_top" xlink:title=" ">
<polygon fill="none" stroke="black" points="4464.5,-0.5 4464.5,-30.5 4605.5,-30.5 4605.5,-0.5 4464.5,-0.5"/>
<text text-anchor="start" x="4472.5" y="-18.5" font-family="Helvetica,sans-Serif" font-size="10.00">VortexEngine/src/Patterns</text>
<text text-anchor="middle" x="4535" y="-7.5" font-family="Helvetica,sans-Serif" font-size="10.00">/Single/BasicPattern.cpp</text>
</a>
</g>
</g>
<!-- Node7&#45;&gt;Node42 -->
<g id="edge44" class="edge">
<title>Node7&#45;&gt;Node42</title>
<path fill="none" stroke="midnightblue" d="M3815.03,-78.34C3956.87,-72.96 4227.42,-59.69 4456,-31 4458.77,-30.65 4461.58,-30.27 4464.43,-29.86"/>
<polygon fill="midnightblue" stroke="midnightblue" points="3814.48,-74.85 3804.62,-78.73 3814.74,-81.85 3814.48,-74.85"/>
</g>
<!-- Node43 -->
<g id="node43" class="node">
<title>Node43</title>
<g id="a_node43"><a xlink:href="BlendPattern_8cpp.html" target="_top" target="_top" xlink:title=" ">
<polygon fill="none" stroke="black" points="4623.5,-0.5 4623.5,-30.5 4764.5,-30.5 4764.5,-0.5 4623.5,-0.5"/>
<text text-anchor="start" x="4631.5" y="-18.5" font-family="Helvetica,sans-Serif" font-size="10.00">VortexEngine/src/Patterns</text>
<text text-anchor="middle" x="4694" y="-7.5" font-family="Helvetica,sans-Serif" font-size="10.00">/Single/BlendPattern.cpp</text>
</a>
</g>
</g>
<!-- Node7&#45;&gt;Node43 -->
<g id="edge45" class="edge">
<title>Node7&#45;&gt;Node43</title>
<path fill="none" stroke="midnightblue" d="M3814.78,-80.01C3980.14,-76.59 4325.31,-65.59 4615,-31 4617.77,-30.67 4620.59,-30.3 4623.43,-29.91"/>
<polygon fill="midnightblue" stroke="midnightblue" points="3814.56,-76.51 3804.64,-80.21 3814.7,-83.51 3814.56,-76.51"/>
</g>
<!-- Node44 -->
<g id="node44" class="node">
<title>Node44</title>
<g id="a_node44"><a xlink:href="Timer_8cpp.html" target="_top" target="_top" xlink:title=" ">
<polygon fill="none" stroke="black" points="4783,-0.5 4783,-30.5 4909,-30.5 4909,-0.5 4783,-0.5"/>
<text text-anchor="start" x="4791" y="-18.5" font-family="Helvetica,sans-Serif" font-size="10.00">VortexEngine/src/Time</text>
<text text-anchor="middle" x="4846" y="-7.5" font-family="Helvetica,sans-Serif" font-size="10.00">/Timer.cpp</text>
</a>
</g>
</g>
<!-- Node7&#45;&gt;Node44 -->
<g id="edge47" class="edge">
<title>Node7&#45;&gt;Node44</title>
<path fill="none" stroke="midnightblue" d="M3814.82,-81.75C4001.86,-81.13 4422.88,-74.49 4774,-31 4776.91,-30.64 4779.88,-30.23 4782.87,-29.77"/>
<polygon fill="midnightblue" stroke="midnightblue" points="3814.72,-78.25 3804.73,-81.77 3814.74,-85.25 3814.72,-78.25"/>
</g>
<!-- Node45 -->
<g id="node45" class="node">
<title>Node45</title>
<g id="a_node45"><a xlink:href="VortexEngine_8cpp.html" target="_top" target="_top" xlink:title=" ">
<polygon fill="none" stroke="black" points="4927,-6 4927,-25 5113,-25 5113,-6 4927,-6"/>
<text text-anchor="middle" x="5020" y="-13" font-family="Helvetica,sans-Serif" font-size="10.00">VortexEngine/src/VortexEngine.cpp</text>
</a>
</g>
</g>
<!-- Node7&#45;&gt;Node45 -->
<g id="edge48" class="edge">
<title>Node7&#45;&gt;Node45</title>
<path fill="none" stroke="midnightblue" d="M3814.73,-80.67C4019.68,-78.21 4509.27,-68.55 4918,-31 4934.03,-29.53 4951.4,-27.3 4967.18,-25.03"/>
<polygon fill="midnightblue" stroke="midnightblue" points="3814.56,-77.17 3804.6,-80.79 3814.64,-84.17 3814.56,-77.17"/>
</g>
<!-- Node46 -->
<g id="node46" class="node">
<title>Node46</title>
<g id="a_node46"><a xlink:href="IRReceiver_8cpp.html" target="_top" target="_top" xlink:title=" ">
<polygon fill="none" stroke="black" points="5131.5,-0.5 5131.5,-30.5 5274.5,-30.5 5274.5,-0.5 5131.5,-0.5"/>
<text text-anchor="start" x="5139.5" y="-18.5" font-family="Helvetica,sans-Serif" font-size="10.00">VortexEngine/src/Wireless</text>
<text text-anchor="middle" x="5203" y="-7.5" font-family="Helvetica,sans-Serif" font-size="10.00">/IRReceiver.cpp</text>
</a>
</g>
</g>
<!-- Node7&#45;&gt;Node46 -->
<g id="edge49" class="edge">
<title>Node7&#45;&gt;Node46</title>
<path fill="none" stroke="midnightblue" d="M3815.3,-79.77C4091.04,-74.65 4868.16,-58.15 5122,-31 5124.98,-30.68 5128.02,-30.32 5131.09,-29.92"/>
<polygon fill="midnightblue" stroke="midnightblue" points="3814.85,-76.28 3804.92,-79.97 3814.98,-83.28 3814.85,-76.28"/>
</g>
<!-- Node47 -->
<g id="node47" class="node">
<title>Node47</title>
<g id="a_node47"><a xlink:href="VLReceiver_8cpp.html" target="_top" target="_top" xlink:title=" ">
<polygon fill="none" stroke="black" points="5292.5,-0.5 5292.5,-30.5 5435.5,-30.5 5435.5,-0.5 5292.5,-0.5"/>
<text text-anchor="start" x="5300.5" y="-18.5" font-family="Helvetica,sans-Serif" font-size="10.00">VortexEngine/src/Wireless</text>
<text text-anchor="middle" x="5364" y="-7.5" font-family="Helvetica,sans-Serif" font-size="10.00">/VLReceiver.cpp</text>
</a>
</g>
</g>
<!-- Node7&#45;&gt;Node47 -->
<g id="edge50" class="edge">
<title>Node7&#45;&gt;Node47</title>
<path fill="none" stroke="midnightblue" d="M3814.85,-80.23C4111.37,-76.09 4997.19,-61.45 5284,-31 5286.67,-30.72 5289.38,-30.4 5292.11,-30.04"/>
<polygon fill="midnightblue" stroke="midnightblue" points="3814.5,-76.74 3804.55,-80.37 3814.6,-83.74 3814.5,-76.74"/>
</g>
</g>
</svg>
        <g id="navigator" transform="translate(0 0)" fill="#404254">
                <rect fill="#f2f5e9" fill-opacity="0.5" stroke="#606060" stroke-width=".5" x="0" y="0" width="60" height="60"/>
                <use id="zoomplus" xlink:href="#zoomPlus" target="_top" x="17" y="9" onmousedown="handleZoom(evt,'in')"/>
                <use id="zoomminus" xlink:href="#zoomMin" target="_top" x="42" y="9" onmousedown="handleZoom(evt,'out')"/>
                <use id="reset" xlink:href="#resetDef" target="_top" x="30" y="36" onmousedown="handleReset()"/>
                <g id="arrowUp" xlink:href="#dirArrow" target="_top" transform="translate(30 24)" onmousedown="handlePan(0,-1)">
                  <use xlink:href="#rim" target="_top" fill="#404040">
                        <set attributeName="fill" to="#808080" begin="arrowUp.mouseover" end="arrowUp.mouseout"/>
                  </use>
                  <path fill="none" stroke="white" stroke-width="1.5" d="M0,-3.0v7 M-2.5,-0.5L0,-3.0L2.5,-0.5"/>
                </g>
                <g id="arrowRight" xlink:href="#dirArrow" target="_top" transform="rotate(90) translate(36 -43)" onmousedown="handlePan(1,0)">
                  <use xlink:href="#rim" target="_top" fill="#404040">
                        <set attributeName="fill" to="#808080" begin="arrowRight.mouseover" end="arrowRight.mouseout"/>
                  </use>
                  <path fill="none" stroke="white" stroke-width="1.5" d="M0,-3.0v7 M-2.5,-0.5L0,-3.0L2.5,-0.5"/>
                </g>
                <g id="arrowDown" xlink:href="#dirArrow" target="_top" transform="rotate(180) translate(-30 -48)" onmousedown="handlePan(0,1)">
                  <use xlink:href="#rim" target="_top" fill="#404040">
                        <set attributeName="fill" to="#808080" begin="arrowDown.mouseover" end="arrowDown.mouseout"/>
                  </use>
                  <path fill="none" stroke="white" stroke-width="1.5" d="M0,-3.0v7 M-2.5,-0.5L0,-3.0L2.5,-0.5"/>
                </g>
                <g id="arrowLeft" xlink:href="#dirArrow" target="_top" transform="rotate(270) translate(-36 17)" onmousedown="handlePan(-1,0)">
                  <use xlink:href="#rim" target="_top" fill="#404040">
                        <set attributeName="fill" to="#808080" begin="arrowLeft.mouseover" end="arrowLeft.mouseout"/>
                  </use>
                  <path fill="none" stroke="white" stroke-width="1.5" d="M0,-3.0v7 M-2.5,-0.5L0,-3.0L2.5,-0.5"/>
                </g>
        </g>
        <svg viewBox="0 0 15 15" width="100%" height="30px" preserveAspectRatio="xMaxYMin meet">
         <g id="arrow_out" transform="scale(0.3 0.3)">
          <a xlink:href="Serial_8h__dep__incl_org.svg" target="_top" target="_base">
           <rect id="button" ry="5" rx="5" y="6" x="6" height="38" width="38"
                fill="#f2f5e9" fill-opacity="0.5" stroke="#606060" stroke-width="1.0"/>
           <path id="arrow"
             d="M 11.500037,31.436501 C 11.940474,20.09759 22.043105,11.32322 32.158766,21.979434 L 37.068811,17.246167 C 37.068811,17.246167 37.088388,32 37.088388,32 L 22.160133,31.978069 C 22.160133,31.978069 26.997745,27.140456 26.997745,27.140456 C 18.528582,18.264221 13.291696,25.230495 11.500037,31.436501 z"
             style="fill:#404040;"/>
          </a>
         </g>
        </svg>
</svg>
