<?xml version="1.0" encoding="UTF-8" standalone="no"?>
<!DOCTYPE svg PUBLIC "-//W3C//DTD SVG 1.1//EN"
 "http://www.w3.org/Graphics/SVG/1.1/DTD/svg11.dtd">
<!-- Generated by graphviz version 2.43.0 (0)
 -->
<!-- Title: VortexEngine/src/Patterns/Multi/SparkleTracePattern.h Pages: 1 -->
<!--zoomable 487 -->
<svg id="main" version="1.1" xmlns="http://www.w3.org/2000/svg" xmlns:xlink="http://www.w3.org/1999/xlink" xml:space="preserve" onload="init(evt)">
<style type="text/css"><![CDATA[
.edge:hover path { stroke: red; }
.edge:hover polygon { stroke: red; fill: red; }
]]></style>
<script type="text/javascript"><![CDATA[
var edges = document.getElementsByTagName('g');
if (edges && edges.length) {
  for (var i=0;i<edges.length;i++) {
    if (edges[i].id.substr(0,4)=='edge') {
      edges[i].setAttribute('class','edge');
    }
  }
}
]]></script>
        <defs>
                <circle id="rim" cx="0" cy="0" r="7"/>
                <circle id="rim2" cx="0" cy="0" r="3.5"/>
                <g id="zoomPlus">
                        <use xlink:href="#rim" fill="#404040">
                                <set attributeName="fill" to="#808080" begin="zoomplus.mouseover" end="zoomplus.mouseout"/>
                        </use>
                        <path d="M-4,0h8M0,-4v8" fill="none" stroke="white" stroke-width="1.5" pointer-events="none"/>
                </g>
                <g id="zoomMin">
                        <use xlink:href="#rim" fill="#404040">
                                <set attributeName="fill" to="#808080" begin="zoomminus.mouseover" end="zoomminus.mouseout"/>
                        </use>
                        <path d="M-4,0h8" fill="none" stroke="white" stroke-width="1.5" pointer-events="none"/>
                </g>
                <g id="dirArrow">
                        <path fill="none" stroke="white" stroke-width="1.5" d="M0,-3.0v7 M-2.5,-0.5L0,-3.0L2.5,-0.5"/>
                </g>
               <g id="resetDef">
                       <use xlink:href="#rim2" fill="#404040">
                               <set attributeName="fill" to="#808080" begin="reset.mouseover" end="reset.mouseout"/>
                       </use>
               </g>
        </defs>

<script type="text/javascript">
var viewWidth = 659;
var viewHeight = 487;
var sectionId = 'dynsection-0';
</script>
<script xlink:href="svgpan.js"/>
<svg id="graph" class="graph">
<g id="viewport">
<title>VortexEngine/src/Patterns/Multi/SparkleTracePattern.h</title>
<!-- Node1 -->
<g id="node1" class="node">
<title>Node1</title>
<g id="a_node1"><a xlink:title=" ">
<polygon fill="#bfbfbf" stroke="black" points="222.5,-448.5 222.5,-478.5 375.5,-478.5 375.5,-448.5 222.5,-448.5"/>
<text text-anchor="start" x="230.5" y="-466.5" font-family="Helvetica,sans-Serif" font-size="10.00">VortexEngine/src/Patterns</text>
<text text-anchor="middle" x="299" y="-455.5" font-family="Helvetica,sans-Serif" font-size="10.00">/Multi/SparkleTracePattern.h</text>
</a>
</g>
</g>
<!-- Node2 -->
<g id="node2" class="node">
<title>Node2</title>
<g id="a_node2"><a xlink:href="BlinkStepPattern_8h.html" target="_top" xlink:title=" ">
<polygon fill="none" stroke="black" points="177.5,-392.5 177.5,-411.5 284.5,-411.5 284.5,-392.5 177.5,-392.5"/>
<text text-anchor="middle" x="231" y="-399.5" font-family="Helvetica,sans-Serif" font-size="10.00">BlinkStepPattern.h</text>
</a>
</g>
</g>
<!-- Node1&#45;&gt;Node2 -->
<g id="edge1" class="edge">
<title>Node1&#45;&gt;Node2</title>
<path fill="none" stroke="midnightblue" d="M282.88,-448.4C272.6,-439.4 259.25,-427.72 248.67,-418.47"/>
<polygon fill="midnightblue" stroke="midnightblue" points="250.73,-415.61 240.89,-411.66 246.12,-420.88 250.73,-415.61"/>
</g>
<!-- Node17 -->
<g id="node17" class="node">
<title>Node17</title>
<g id="a_node17"><a xlink:href="Random_8h.html" target="_top" xlink:title=" ">
<polygon fill="none" stroke="black" points="303,-392.5 303,-411.5 431,-411.5 431,-392.5 303,-392.5"/>
<text text-anchor="middle" x="367" y="-399.5" font-family="Helvetica,sans-Serif" font-size="10.00">../../Random/Random.h</text>
</a>
</g>
</g>
<!-- Node1&#45;&gt;Node17 -->
<g id="edge28" class="edge">
<title>Node1&#45;&gt;Node17</title>
<path fill="none" stroke="midnightblue" d="M315.12,-448.4C325.4,-439.4 338.75,-427.72 349.33,-418.47"/>
<polygon fill="midnightblue" stroke="midnightblue" points="351.88,-420.88 357.11,-411.66 347.27,-415.61 351.88,-420.88"/>
</g>
<!-- Node3 -->
<g id="node3" class="node">
<title>Node3</title>
<g id="a_node3"><a xlink:href="MultiLedPattern_8h.html" target="_top" xlink:title=" ">
<polygon fill="none" stroke="black" points="90,-336.5 90,-355.5 192,-355.5 192,-336.5 90,-336.5"/>
<text text-anchor="middle" x="141" y="-343.5" font-family="Helvetica,sans-Serif" font-size="10.00">MultiLedPattern.h</text>
</a>
</g>
</g>
<!-- Node2&#45;&gt;Node3 -->
<g id="edge2" class="edge">
<title>Node2&#45;&gt;Node3</title>
<path fill="none" stroke="midnightblue" d="M216.54,-392.32C202.5,-383.9 180.95,-370.97 164.46,-361.07"/>
<polygon fill="midnightblue" stroke="midnightblue" points="165.8,-357.8 155.42,-355.65 162.2,-363.8 165.8,-357.8"/>
</g>
<!-- Node5 -->
<g id="node5" class="node">
<title>Node5</title>
<g id="a_node5"><a xlink:href="LedTypes_8h.html" target="_top" xlink:title=" ">
<polygon fill="none" stroke="black" points="256.5,-224.5 256.5,-243.5 361.5,-243.5 361.5,-224.5 256.5,-224.5"/>
<text text-anchor="middle" x="309" y="-231.5" font-family="Helvetica,sans-Serif" font-size="10.00">../Leds/LedTypes.h</text>
</a>
</g>
</g>
<!-- Node2&#45;&gt;Node5 -->
<g id="edge27" class="edge">
<title>Node2&#45;&gt;Node5</title>
<path fill="none" stroke="midnightblue" d="M236.81,-392.43C248.12,-375.43 273.37,-335.98 289,-300 295.62,-284.77 301,-266.66 304.51,-253.43"/>
<polygon fill="midnightblue" stroke="midnightblue" points="307.93,-254.19 307,-243.63 301.14,-252.46 307.93,-254.19"/>
</g>
<!-- Node16 -->
<g id="node16" class="node">
<title>Node16</title>
<g id="a_node16"><a xlink:href="Timer_8h.html" target="_top" xlink:title=" ">
<polygon fill="none" stroke="black" points="181.5,-280.5 181.5,-299.5 280.5,-299.5 280.5,-280.5 181.5,-280.5"/>
<text text-anchor="middle" x="231" y="-287.5" font-family="Helvetica,sans-Serif" font-size="10.00">../../Time/Timer.h</text>
</a>
</g>
</g>
<!-- Node2&#45;&gt;Node16 -->
<g id="edge24" class="edge">
<title>Node2&#45;&gt;Node16</title>
<path fill="none" stroke="midnightblue" d="M231,-392.37C231,-374.62 231,-333.67 231,-309.6"/>
<polygon fill="midnightblue" stroke="midnightblue" points="234.5,-309.59 231,-299.59 227.5,-309.59 234.5,-309.59"/>
</g>
<!-- Node4 -->
<g id="node4" class="node">
<title>Node4</title>
<g id="a_node4"><a xlink:href="Pattern_8h.html" target="_top" xlink:title=" ">
<polygon fill="none" stroke="black" points="94.5,-280.5 94.5,-299.5 163.5,-299.5 163.5,-280.5 94.5,-280.5"/>
<text text-anchor="middle" x="129" y="-287.5" font-family="Helvetica,sans-Serif" font-size="10.00">../Pattern.h</text>
</a>
</g>
</g>
<!-- Node3&#45;&gt;Node4 -->
<g id="edge3" class="edge">
<title>Node3&#45;&gt;Node4</title>
<path fill="none" stroke="midnightblue" d="M139.02,-336.08C137.43,-328.93 135.14,-318.64 133.15,-309.69"/>
<polygon fill="midnightblue" stroke="midnightblue" points="136.53,-308.75 130.94,-299.75 129.7,-310.27 136.53,-308.75"/>
</g>
<!-- Node4&#45;&gt;Node5 -->
<g id="edge4" class="edge">
<title>Node4&#45;&gt;Node5</title>
<path fill="none" stroke="midnightblue" d="M157.52,-280.44C188.07,-271.28 236.71,-256.69 270.6,-246.52"/>
<polygon fill="midnightblue" stroke="midnightblue" points="272.04,-249.74 280.61,-243.52 270.03,-243.04 272.04,-249.74"/>
</g>
<!-- Node13 -->
<g id="node13" class="node">
<title>Node13</title>
<g id="a_node13"><a xlink:href="Colorset_8h.html" target="_top" xlink:title=" ">
<polygon fill="none" stroke="black" points="259.5,-168.5 259.5,-187.5 368.5,-187.5 368.5,-168.5 259.5,-168.5"/>
<text text-anchor="middle" x="314" y="-175.5" font-family="Helvetica,sans-Serif" font-size="10.00">../Colors/Colorset.h</text>
</a>
</g>
</g>
<!-- Node4&#45;&gt;Node13 -->
<g id="edge17" class="edge">
<title>Node4&#45;&gt;Node13</title>
<path fill="none" stroke="midnightblue" d="M143.52,-280.37C175.4,-261.41 251.77,-216 290.55,-192.94"/>
<polygon fill="midnightblue" stroke="midnightblue" points="292.74,-195.71 299.55,-187.59 289.17,-189.69 292.74,-195.71"/>
</g>
<!-- Node14 -->
<g id="node14" class="node">
<title>Node14</title>
<g id="a_node14"><a xlink:href="Patterns_8h.html" target="_top" xlink:title=" ">
<polygon fill="none" stroke="black" points="77.5,-112.5 77.5,-131.5 142.5,-131.5 142.5,-112.5 77.5,-112.5"/>
<text text-anchor="middle" x="110" y="-119.5" font-family="Helvetica,sans-Serif" font-size="10.00">Patterns.h</text>
</a>
</g>
</g>
<!-- Node4&#45;&gt;Node14 -->
<g id="edge20" class="edge">
<title>Node4&#45;&gt;Node14</title>
<path fill="none" stroke="midnightblue" d="M127.98,-280.08C124.99,-253.95 116.2,-177.21 112.13,-141.58"/>
<polygon fill="midnightblue" stroke="midnightblue" points="115.6,-141.11 110.98,-131.57 108.64,-141.9 115.6,-141.11"/>
</g>
<!-- Node15 -->
<g id="node15" class="node">
<title>Node15</title>
<g id="a_node15"><a xlink:href="PatternArgs_8h.html" target="_top" xlink:title=" ">
<polygon fill="none" stroke="black" points="0,-224.5 0,-243.5 82,-243.5 82,-224.5 0,-224.5"/>
<text text-anchor="middle" x="41" y="-231.5" font-family="Helvetica,sans-Serif" font-size="10.00">PatternArgs.h</text>
</a>
</g>
</g>
<!-- Node4&#45;&gt;Node15 -->
<g id="edge22" class="edge">
<title>Node4&#45;&gt;Node15</title>
<path fill="none" stroke="midnightblue" d="M114.86,-280.32C101.13,-271.9 80.06,-258.97 63.94,-249.07"/>
<polygon fill="midnightblue" stroke="midnightblue" points="65.46,-245.9 55.1,-243.65 61.8,-251.87 65.46,-245.9"/>
</g>
<!-- Node6 -->
<g id="node6" class="node">
<title>Node6</title>
<g id="a_node6"><a xlink:title=" ">
<polygon fill="none" stroke="#bfbfbf" points="157.5,-56.5 157.5,-75.5 222.5,-75.5 222.5,-56.5 157.5,-56.5"/>
<text text-anchor="middle" x="190" y="-63.5" font-family="Helvetica,sans-Serif" font-size="10.00">inttypes.h</text>
</a>
</g>
</g>
<!-- Node5&#45;&gt;Node6 -->
<g id="edge5" class="edge">
<title>Node5&#45;&gt;Node6</title>
<path fill="none" stroke="midnightblue" d="M294.12,-224.39C281.17,-216.31 262.54,-203.2 250,-188 223.61,-156.02 205.05,-110.48 196.1,-85.38"/>
<polygon fill="midnightblue" stroke="midnightblue" points="199.32,-84 192.76,-75.69 192.7,-86.28 199.32,-84"/>
</g>
<!-- Node7 -->
<g id="node7" class="node">
<title>Node7</title>
<g id="a_node7"><a xlink:title=" ">
<polygon fill="none" stroke="#bfbfbf" points="595,-168.5 595,-187.5 651,-187.5 651,-168.5 595,-168.5"/>
<text text-anchor="middle" x="623" y="-175.5" font-family="Helvetica,sans-Serif" font-size="10.00">stdarg.h</text>
</a>
</g>
</g>
<!-- Node5&#45;&gt;Node7 -->
<g id="edge6" class="edge">
<title>Node5&#45;&gt;Node7</title>
<path fill="none" stroke="midnightblue" d="M361.53,-225.06C416.41,-216.59 504.94,-202.43 581,-188 582.24,-187.77 583.49,-187.52 584.76,-187.27"/>
<polygon fill="midnightblue" stroke="midnightblue" points="585.47,-190.7 594.57,-185.28 584.07,-183.84 585.47,-190.7"/>
</g>
<!-- Node8 -->
<g id="node8" class="node">
<title>Node8</title>
<g id="a_node8"><a xlink:href="Leds_8h.html" target="_top" xlink:title=" ">
<polygon fill="none" stroke="black" points="386.5,-168.5 386.5,-187.5 469.5,-187.5 469.5,-168.5 386.5,-168.5"/>
<text text-anchor="middle" x="428" y="-175.5" font-family="Helvetica,sans-Serif" font-size="10.00">../Leds/Leds.h</text>
</a>
</g>
</g>
<!-- Node5&#45;&gt;Node8 -->
<g id="edge7" class="edge">
<title>Node5&#45;&gt;Node8</title>
<path fill="none" stroke="midnightblue" d="M327.86,-224.44C347.27,-215.64 377.73,-201.81 399.96,-191.72"/>
<polygon fill="midnightblue" stroke="midnightblue" points="401.57,-194.84 409.23,-187.52 398.68,-188.46 401.57,-194.84"/>
</g>
<!-- Node10 -->
<g id="node10" class="node">
<title>Node10</title>
<g id="a_node10"><a xlink:href="VortexConfig_8h.html" target="_top" xlink:title=" ">
<polygon fill="none" stroke="black" points="376.5,-56.5 376.5,-75.5 473.5,-75.5 473.5,-56.5 376.5,-56.5"/>
<text text-anchor="middle" x="425" y="-63.5" font-family="Helvetica,sans-Serif" font-size="10.00">../VortexConfig.h</text>
</a>
</g>
</g>
<!-- Node5&#45;&gt;Node10 -->
<g id="edge16" class="edge">
<title>Node5&#45;&gt;Node10</title>
<path fill="none" stroke="midnightblue" d="M361.71,-229.75C421.59,-222.73 515.26,-200.73 548,-132 562.92,-100.67 522.36,-84.04 483.89,-75.47"/>
<polygon fill="midnightblue" stroke="midnightblue" points="484.17,-71.95 473.67,-73.36 482.75,-78.81 484.17,-71.95"/>
</g>
<!-- Node8&#45;&gt;Node6 -->
<g id="edge8" class="edge">
<title>Node8&#45;&gt;Node6</title>
<path fill="none" stroke="midnightblue" d="M389.94,-168.45C349.15,-158.93 287.39,-143.39 266,-132 241.95,-119.19 218.82,-97.66 204.53,-82.91"/>
<polygon fill="midnightblue" stroke="midnightblue" points="206.96,-80.39 197.55,-75.52 201.87,-85.19 206.96,-80.39"/>
</g>
<!-- Node9 -->
<g id="node9" class="node">
<title>Node9</title>
<g id="a_node9"><a xlink:href="ColorTypes_8h.html" target="_top" xlink:title=" ">
<polygon fill="none" stroke="black" points="275,-112.5 275,-131.5 397,-131.5 397,-112.5 275,-112.5"/>
<text text-anchor="middle" x="336" y="-119.5" font-family="Helvetica,sans-Serif" font-size="10.00">../Colors/ColorTypes.h</text>
</a>
</g>
</g>
<!-- Node8&#45;&gt;Node9 -->
<g id="edge9" class="edge">
<title>Node8&#45;&gt;Node9</title>
<path fill="none" stroke="midnightblue" d="M413.22,-168.32C398.73,-159.82 376.43,-146.73 359.51,-136.8"/>
<polygon fill="midnightblue" stroke="midnightblue" points="361.14,-133.7 350.74,-131.65 357.6,-139.74 361.14,-133.7"/>
</g>
<!-- Node8&#45;&gt;Node10 -->
<g id="edge14" class="edge">
<title>Node8&#45;&gt;Node10</title>
<path fill="none" stroke="midnightblue" d="M431.29,-168.18C435.55,-155.7 442.06,-132.14 439,-112 437.63,-103 434.81,-93.33 432.05,-85.26"/>
<polygon fill="midnightblue" stroke="midnightblue" points="435.31,-83.98 428.6,-75.78 428.73,-86.37 435.31,-83.98"/>
</g>
<!-- Node12 -->
<g id="node12" class="node">
<title>Node12</title>
<g id="a_node12"><a xlink:title=" ">
<polygon fill="none" stroke="#bfbfbf" points="491.5,-112.5 491.5,-131.5 538.5,-131.5 538.5,-112.5 491.5,-112.5"/>
<text text-anchor="middle" x="515" y="-119.5" font-family="Helvetica,sans-Serif" font-size="10.00">vector</text>
</a>
</g>
</g>
<!-- Node8&#45;&gt;Node12 -->
<g id="edge15" class="edge">
<title>Node8&#45;&gt;Node12</title>
<path fill="none" stroke="midnightblue" d="M441.98,-168.32C455.55,-159.9 476.38,-146.97 492.32,-137.07"/>
<polygon fill="midnightblue" stroke="midnightblue" points="494.41,-139.9 501.06,-131.65 490.71,-133.95 494.41,-139.9"/>
</g>
<!-- Node9&#45;&gt;Node6 -->
<g id="edge10" class="edge">
<title>Node9&#45;&gt;Node6</title>
<path fill="none" stroke="midnightblue" d="M312.87,-112.44C288.52,-103.44 249.99,-89.19 222.58,-79.05"/>
<polygon fill="midnightblue" stroke="midnightblue" points="223.62,-75.7 213.03,-75.52 221.19,-82.27 223.62,-75.7"/>
</g>
<!-- Node9&#45;&gt;Node10 -->
<g id="edge11" class="edge">
<title>Node9&#45;&gt;Node10</title>
<path fill="none" stroke="midnightblue" d="M350.3,-112.32C364.18,-103.9 385.49,-90.97 401.8,-81.07"/>
<polygon fill="midnightblue" stroke="midnightblue" points="404,-83.83 410.74,-75.65 400.37,-77.85 404,-83.83"/>
</g>
<!-- Node11 -->
<g id="node11" class="node">
<title>Node11</title>
<g id="a_node11"><a xlink:href="ColorConstants_8h.html" target="_top" xlink:title=" ">
<polygon fill="none" stroke="black" points="319,-0.5 319,-19.5 453,-19.5 453,-0.5 319,-0.5"/>
<text text-anchor="middle" x="386" y="-7.5" font-family="Helvetica,sans-Serif" font-size="10.00">Colors/ColorConstants.h</text>
</a>
</g>
</g>
<!-- Node9&#45;&gt;Node11 -->
<g id="edge13" class="edge">
<title>Node9&#45;&gt;Node11</title>
<path fill="none" stroke="midnightblue" d="M339.92,-112.37C348.07,-94.46 366.94,-52.92 377.84,-28.95"/>
<polygon fill="midnightblue" stroke="midnightblue" points="381.14,-30.14 382.09,-19.59 374.77,-27.25 381.14,-30.14"/>
</g>
<!-- Node10&#45;&gt;Node11 -->
<g id="edge12" class="edge">
<title>Node10&#45;&gt;Node11</title>
<path fill="none" stroke="midnightblue" d="M418.56,-56.08C413.05,-48.46 404.97,-37.26 398.24,-27.94"/>
<polygon fill="midnightblue" stroke="midnightblue" points="401.01,-25.81 392.32,-19.75 395.34,-29.91 401.01,-25.81"/>
</g>
<!-- Node13&#45;&gt;Node9 -->
<g id="edge18" class="edge">
<title>Node13&#45;&gt;Node9</title>
<path fill="none" stroke="midnightblue" d="M317.63,-168.08C320.61,-160.77 324.93,-150.18 328.62,-141.1"/>
<polygon fill="midnightblue" stroke="midnightblue" points="331.9,-142.33 332.43,-131.75 325.42,-139.69 331.9,-142.33"/>
</g>
<!-- Node13&#45;&gt;Node10 -->
<g id="edge19" class="edge">
<title>Node13&#45;&gt;Node10</title>
<path fill="none" stroke="midnightblue" d="M346.31,-168.5C366.16,-161.7 390.65,-150.22 406,-132 417,-118.95 421.63,-99.79 423.58,-85.66"/>
<polygon fill="midnightblue" stroke="midnightblue" points="427.08,-85.92 424.64,-75.61 420.11,-85.18 427.08,-85.92"/>
</g>
<!-- Node14&#45;&gt;Node6 -->
<g id="edge21" class="edge">
<title>Node14&#45;&gt;Node6</title>
<path fill="none" stroke="midnightblue" d="M122.85,-112.32C135.22,-103.98 154.13,-91.21 168.74,-81.35"/>
<polygon fill="midnightblue" stroke="midnightblue" points="170.85,-84.15 177.18,-75.65 166.93,-78.35 170.85,-84.15"/>
</g>
<!-- Node15&#45;&gt;Node6 -->
<g id="edge23" class="edge">
<title>Node15&#45;&gt;Node6</title>
<path fill="none" stroke="midnightblue" d="M40.33,-224.46C39.11,-202.83 38.96,-145.22 68,-112 88.09,-89.02 121,-77.76 147.58,-72.25"/>
<polygon fill="midnightblue" stroke="midnightblue" points="148.23,-75.69 157.41,-70.41 146.94,-68.81 148.23,-75.69"/>
</g>
<!-- Node16&#45;&gt;Node5 -->
<g id="edge26" class="edge">
<title>Node16&#45;&gt;Node5</title>
<path fill="none" stroke="midnightblue" d="M243.53,-280.32C255.59,-271.98 274.03,-259.21 288.27,-249.35"/>
<polygon fill="midnightblue" stroke="midnightblue" points="290.27,-252.22 296.5,-243.65 286.28,-246.47 290.27,-252.22"/>
</g>
<!-- Node16&#45;&gt;Node6 -->
<g id="edge25" class="edge">
<title>Node16&#45;&gt;Node6</title>
<path fill="none" stroke="midnightblue" d="M229.39,-280.3C223.36,-247.63 201.98,-131.87 193.5,-85.96"/>
<polygon fill="midnightblue" stroke="midnightblue" points="196.9,-85.08 191.64,-75.88 190.02,-86.35 196.9,-85.08"/>
</g>
<!-- Node18 -->
<g id="node18" class="node">
<title>Node18</title>
<g id="a_node18"><a xlink:title=" ">
<polygon fill="none" stroke="#bfbfbf" points="340.5,-336.5 340.5,-355.5 393.5,-355.5 393.5,-336.5 340.5,-336.5"/>
<text text-anchor="middle" x="367" y="-343.5" font-family="Helvetica,sans-Serif" font-size="10.00">stdint.h</text>
</a>
</g>
</g>
<!-- Node17&#45;&gt;Node18 -->
<g id="edge29" class="edge">
<title>Node17&#45;&gt;Node18</title>
<path fill="none" stroke="midnightblue" d="M367,-392.08C367,-385.01 367,-374.86 367,-365.99"/>
<polygon fill="midnightblue" stroke="midnightblue" points="370.5,-365.75 367,-355.75 363.5,-365.75 370.5,-365.75"/>
</g>
</g>
</svg>
        <g id="navigator" transform="translate(0 0)" fill="#404254">
                <rect fill="#f2f5e9" fill-opacity="0.5" stroke="#606060" stroke-width=".5" x="0" y="0" width="60" height="60"/>
                <use id="zoomplus" xlink:href="#zoomPlus" x="17" y="9" onmousedown="handleZoom(evt,'in')"/>
                <use id="zoomminus" xlink:href="#zoomMin" x="42" y="9" onmousedown="handleZoom(evt,'out')"/>
                <use id="reset" xlink:href="#resetDef" x="30" y="36" onmousedown="handleReset()"/>
                <g id="arrowUp" xlink:href="#dirArrow" transform="translate(30 24)" onmousedown="handlePan(0,-1)">
                  <use xlink:href="#rim" fill="#404040">
                        <set attributeName="fill" to="#808080" begin="arrowUp.mouseover" end="arrowUp.mouseout"/>
                  </use>
                  <path fill="none" stroke="white" stroke-width="1.5" d="M0,-3.0v7 M-2.5,-0.5L0,-3.0L2.5,-0.5"/>
                </g>
                <g id="arrowRight" xlink:href="#dirArrow" transform="rotate(90) translate(36 -43)" onmousedown="handlePan(1,0)">
                  <use xlink:href="#rim" fill="#404040">
                        <set attributeName="fill" to="#808080" begin="arrowRight.mouseover" end="arrowRight.mouseout"/>
                  </use>
                  <path fill="none" stroke="white" stroke-width="1.5" d="M0,-3.0v7 M-2.5,-0.5L0,-3.0L2.5,-0.5"/>
                </g>
                <g id="arrowDown" xlink:href="#dirArrow" transform="rotate(180) translate(-30 -48)" onmousedown="handlePan(0,1)">
                  <use xlink:href="#rim" fill="#404040">
                        <set attributeName="fill" to="#808080" begin="arrowDown.mouseover" end="arrowDown.mouseout"/>
                  </use>
                  <path fill="none" stroke="white" stroke-width="1.5" d="M0,-3.0v7 M-2.5,-0.5L0,-3.0L2.5,-0.5"/>
                </g>
                <g id="arrowLeft" xlink:href="#dirArrow" transform="rotate(270) translate(-36 17)" onmousedown="handlePan(-1,0)">
                  <use xlink:href="#rim" fill="#404040">
                        <set attributeName="fill" to="#808080" begin="arrowLeft.mouseover" end="arrowLeft.mouseout"/>
                  </use>
                  <path fill="none" stroke="white" stroke-width="1.5" d="M0,-3.0v7 M-2.5,-0.5L0,-3.0L2.5,-0.5"/>
                </g>
        </g>
        <svg viewBox="0 0 15 15" width="100%" height="30px" preserveAspectRatio="xMaxYMin meet">
         <g id="arrow_out" transform="scale(0.3 0.3)">
          <a xlink:href="SparkleTracePattern_8h__incl_org.svg" target="_base">
           <rect id="button" ry="5" rx="5" y="6" x="6" height="38" width="38"
                fill="#f2f5e9" fill-opacity="0.5" stroke="#606060" stroke-width="1.0"/>
           <path id="arrow"
             d="M 11.500037,31.436501 C 11.940474,20.09759 22.043105,11.32322 32.158766,21.979434 L 37.068811,17.246167 C 37.068811,17.246167 37.088388,32 37.088388,32 L 22.160133,31.978069 C 22.160133,31.978069 26.997745,27.140456 26.997745,27.140456 C 18.528582,18.264221 13.291696,25.230495 11.500037,31.436501 z"
             style="fill:#404040;"/>
          </a>
         </g>
        </svg>
</svg>
