<?xml version="1.0" encoding="UTF-8" standalone="no"?>
<!DOCTYPE svg PUBLIC "-//W3C//DTD SVG 1.1//EN"
 "http://www.w3.org/Graphics/SVG/1.1/DTD/svg11.dtd">
<!-- Generated by graphviz version 2.43.0 (0)
 -->
<!-- Title: VortexEngine/src/Time/TimeControl.h Pages: 1 -->
<svg width="352pt" height="319pt"
 viewBox="0.00 0.00 352.00 319.00" xmlns="http://www.w3.org/2000/svg" xmlns:xlink="http://www.w3.org/1999/xlink">
<g id="graph0" class="graph" transform="scale(1 1) rotate(0) translate(4 315)">
<title>VortexEngine/src/Time/TimeControl.h</title>
<!-- Node1 -->
<g id="node1" class="node">
<title>Node1</title>
<g id="a_node1"><a xlink:title=" ">
<polygon fill="#bfbfbf" stroke="black" points="72.5,-280.5 72.5,-310.5 198.5,-310.5 198.5,-280.5 72.5,-280.5"/>
<text text-anchor="start" x="80.5" y="-298.5" font-family="Helvetica,sans-Serif" font-size="10.00">VortexEngine/src/Time</text>
<text text-anchor="middle" x="135.5" y="-287.5" font-family="Helvetica,sans-Serif" font-size="10.00">/TimeControl.h</text>
</a>
</g>
</g>
<!-- Node2 -->
<g id="node2" class="node">
<title>Node2</title>
<g id="a_node2"><a xlink:title=" ">
<polygon fill="none" stroke="#bfbfbf" points="279,-56.5 279,-75.5 344,-75.5 344,-56.5 279,-56.5"/>
<text text-anchor="middle" x="311.5" y="-63.5" font-family="Helvetica,sans-Serif" font-size="10.00">inttypes.h</text>
</a>
</g>
</g>
<!-- Node1&#45;&gt;Node2 -->
<g id="edge1" class="edge">
<title>Node1&#45;&gt;Node2</title>
<path fill="none" stroke="midnightblue" d="M162.79,-280.38C205.24,-256.57 285.07,-203.91 312.5,-132 318.16,-117.17 317.3,-99.02 315.37,-85.67"/>
<polygon fill="midnightblue" stroke="midnightblue" points="318.81,-85.01 313.63,-75.77 311.92,-86.22 318.81,-85.01"/>
</g>
<!-- Node3 -->
<g id="node3" class="node">
<title>Node3</title>
<g id="a_node3"><a xlink:href="VortexConfig_8h.html" target="_top" target="_top" xlink:title=" ">
<polygon fill="none" stroke="black" points="0,-56.5 0,-75.5 97,-75.5 97,-56.5 0,-56.5"/>
<text text-anchor="middle" x="48.5" y="-63.5" font-family="Helvetica,sans-Serif" font-size="10.00">../VortexConfig.h</text>
</a>
</g>
</g>
<!-- Node1&#45;&gt;Node3 -->
<g id="edge2" class="edge">
<title>Node1&#45;&gt;Node3</title>
<path fill="none" stroke="midnightblue" d="M114.23,-280.33C101.37,-271.05 85.26,-258.06 73.5,-244 55.25,-222.18 51.07,-215.13 42.5,-188 32.29,-155.69 32.1,-145.6 36.5,-112 37.66,-103.18 40.03,-93.63 42.37,-85.61"/>
<polygon fill="midnightblue" stroke="midnightblue" points="45.79,-86.42 45.41,-75.83 39.1,-84.34 45.79,-86.42"/>
</g>
<!-- Node5 -->
<g id="node5" class="node">
<title>Node5</title>
<g id="a_node5"><a xlink:href="LedTypes_8h.html" target="_top" target="_top" xlink:title=" ">
<polygon fill="none" stroke="black" points="83,-224.5 83,-243.5 188,-243.5 188,-224.5 83,-224.5"/>
<text text-anchor="middle" x="135.5" y="-231.5" font-family="Helvetica,sans-Serif" font-size="10.00">../Leds/LedTypes.h</text>
</a>
</g>
</g>
<!-- Node1&#45;&gt;Node5 -->
<g id="edge4" class="edge">
<title>Node1&#45;&gt;Node5</title>
<path fill="none" stroke="midnightblue" d="M135.5,-280.4C135.5,-272.47 135.5,-262.46 135.5,-253.86"/>
<polygon fill="midnightblue" stroke="midnightblue" points="139,-253.66 135.5,-243.66 132,-253.66 139,-253.66"/>
</g>
<!-- Node4 -->
<g id="node4" class="node">
<title>Node4</title>
<g id="a_node4"><a xlink:href="ColorConstants_8h.html" target="_top" target="_top" xlink:title=" ">
<polygon fill="none" stroke="black" points="58.5,-0.5 58.5,-19.5 192.5,-19.5 192.5,-0.5 58.5,-0.5"/>
<text text-anchor="middle" x="125.5" y="-7.5" font-family="Helvetica,sans-Serif" font-size="10.00">Colors/ColorConstants.h</text>
</a>
</g>
</g>
<!-- Node3&#45;&gt;Node4 -->
<g id="edge3" class="edge">
<title>Node3&#45;&gt;Node4</title>
<path fill="none" stroke="midnightblue" d="M60.87,-56.32C72.66,-48.06 90.63,-35.45 104.64,-25.63"/>
<polygon fill="midnightblue" stroke="midnightblue" points="106.98,-28.26 113.16,-19.65 102.96,-22.53 106.98,-28.26"/>
</g>
<!-- Node5&#45;&gt;Node2 -->
<g id="edge5" class="edge">
<title>Node5&#45;&gt;Node2</title>
<path fill="none" stroke="midnightblue" d="M161.95,-224.49C198.61,-211.16 263.8,-181.65 294.5,-132 303.22,-117.89 307.5,-99.41 309.58,-85.75"/>
<polygon fill="midnightblue" stroke="midnightblue" points="313.08,-85.99 310.86,-75.63 306.13,-85.11 313.08,-85.99"/>
</g>
<!-- Node5&#45;&gt;Node3 -->
<g id="edge15" class="edge">
<title>Node5&#45;&gt;Node3</title>
<path fill="none" stroke="midnightblue" d="M105.2,-224.4C87.23,-217.6 65.8,-206.17 54.5,-188 34.94,-156.56 39.44,-111.14 44.17,-85.84"/>
<polygon fill="midnightblue" stroke="midnightblue" points="47.65,-86.25 46.26,-75.75 40.8,-84.83 47.65,-86.25"/>
</g>
<!-- Node6 -->
<g id="node6" class="node">
<title>Node6</title>
<g id="a_node6"><a xlink:title=" ">
<polygon fill="none" stroke="#bfbfbf" points="63.5,-168.5 63.5,-187.5 119.5,-187.5 119.5,-168.5 63.5,-168.5"/>
<text text-anchor="middle" x="91.5" y="-175.5" font-family="Helvetica,sans-Serif" font-size="10.00">stdarg.h</text>
</a>
</g>
</g>
<!-- Node5&#45;&gt;Node6 -->
<g id="edge6" class="edge">
<title>Node5&#45;&gt;Node6</title>
<path fill="none" stroke="midnightblue" d="M128.23,-224.08C121.96,-216.38 112.71,-205.03 105.07,-195.65"/>
<polygon fill="midnightblue" stroke="midnightblue" points="107.66,-193.29 98.63,-187.75 102.23,-197.71 107.66,-193.29"/>
</g>
<!-- Node7 -->
<g id="node7" class="node">
<title>Node7</title>
<g id="a_node7"><a xlink:href="Leds_8h.html" target="_top" target="_top" xlink:title=" ">
<polygon fill="none" stroke="black" points="138,-168.5 138,-187.5 221,-187.5 221,-168.5 138,-168.5"/>
<text text-anchor="middle" x="179.5" y="-175.5" font-family="Helvetica,sans-Serif" font-size="10.00">../Leds/Leds.h</text>
</a>
</g>
</g>
<!-- Node5&#45;&gt;Node7 -->
<g id="edge7" class="edge">
<title>Node5&#45;&gt;Node7</title>
<path fill="none" stroke="midnightblue" d="M142.77,-224.08C149.04,-216.38 158.29,-205.03 165.93,-195.65"/>
<polygon fill="midnightblue" stroke="midnightblue" points="168.77,-197.71 172.37,-187.75 163.34,-193.29 168.77,-197.71"/>
</g>
<!-- Node7&#45;&gt;Node2 -->
<g id="edge8" class="edge">
<title>Node7&#45;&gt;Node2</title>
<path fill="none" stroke="midnightblue" d="M208,-168.38C228.12,-161.18 254.73,-149.28 273.5,-132 287.74,-118.89 298.22,-99.2 304.52,-84.93"/>
<polygon fill="midnightblue" stroke="midnightblue" points="307.77,-86.24 308.37,-75.67 301.3,-83.56 307.77,-86.24"/>
</g>
<!-- Node7&#45;&gt;Node3 -->
<g id="edge13" class="edge">
<title>Node7&#45;&gt;Node3</title>
<path fill="none" stroke="midnightblue" d="M137.84,-169.62C114.18,-163.38 85.73,-152.1 67.5,-132 56.03,-119.36 51.46,-100.15 49.65,-85.89"/>
<polygon fill="midnightblue" stroke="midnightblue" points="53.12,-85.37 48.71,-75.73 46.15,-86.01 53.12,-85.37"/>
</g>
<!-- Node8 -->
<g id="node8" class="node">
<title>Node8</title>
<g id="a_node8"><a xlink:href="ColorTypes_8h.html" target="_top" target="_top" xlink:title=" ">
<polygon fill="none" stroke="black" points="142.5,-112.5 142.5,-131.5 264.5,-131.5 264.5,-112.5 142.5,-112.5"/>
<text text-anchor="middle" x="203.5" y="-119.5" font-family="Helvetica,sans-Serif" font-size="10.00">../Colors/ColorTypes.h</text>
</a>
</g>
</g>
<!-- Node7&#45;&gt;Node8 -->
<g id="edge9" class="edge">
<title>Node7&#45;&gt;Node8</title>
<path fill="none" stroke="midnightblue" d="M183.46,-168.08C186.71,-160.77 191.42,-150.18 195.45,-141.1"/>
<polygon fill="midnightblue" stroke="midnightblue" points="198.75,-142.31 199.61,-131.75 192.35,-139.47 198.75,-142.31"/>
</g>
<!-- Node9 -->
<g id="node9" class="node">
<title>Node9</title>
<g id="a_node9"><a xlink:title=" ">
<polygon fill="none" stroke="#bfbfbf" points="77,-112.5 77,-131.5 124,-131.5 124,-112.5 77,-112.5"/>
<text text-anchor="middle" x="100.5" y="-119.5" font-family="Helvetica,sans-Serif" font-size="10.00">vector</text>
</a>
</g>
</g>
<!-- Node7&#45;&gt;Node9 -->
<g id="edge14" class="edge">
<title>Node7&#45;&gt;Node9</title>
<path fill="none" stroke="midnightblue" d="M166.81,-168.32C154.6,-159.98 135.92,-147.21 121.5,-137.35"/>
<polygon fill="midnightblue" stroke="midnightblue" points="123.39,-134.41 113.16,-131.65 119.44,-140.19 123.39,-134.41"/>
</g>
<!-- Node8&#45;&gt;Node2 -->
<g id="edge10" class="edge">
<title>Node8&#45;&gt;Node2</title>
<path fill="none" stroke="midnightblue" d="M220.85,-112.32C238.17,-103.66 265.02,-90.24 285,-80.25"/>
<polygon fill="midnightblue" stroke="midnightblue" points="286.81,-83.26 294.19,-75.65 283.68,-77 286.81,-83.26"/>
</g>
<!-- Node8&#45;&gt;Node3 -->
<g id="edge11" class="edge">
<title>Node8&#45;&gt;Node3</title>
<path fill="none" stroke="midnightblue" d="M178.94,-112.44C152.98,-103.4 111.83,-89.06 82.7,-78.92"/>
<polygon fill="midnightblue" stroke="midnightblue" points="83.54,-75.5 72.95,-75.52 81.24,-82.11 83.54,-75.5"/>
</g>
<!-- Node8&#45;&gt;Node4 -->
<g id="edge12" class="edge">
<title>Node8&#45;&gt;Node4</title>
<path fill="none" stroke="midnightblue" d="M197.38,-112.37C184.51,-94.22 154.43,-51.8 137.55,-27.99"/>
<polygon fill="midnightblue" stroke="midnightblue" points="140.23,-25.72 131.59,-19.59 134.52,-29.77 140.23,-25.72"/>
</g>
</g>
</svg>
