<?xml version="1.0" encoding="UTF-8" standalone="no"?>
<!DOCTYPE svg PUBLIC "-//W3C//DTD SVG 1.1//EN"
 "http://www.w3.org/Graphics/SVG/1.1/DTD/svg11.dtd">
<!-- Generated by graphviz version 2.43.0 (0)
 -->
<!-- Title: VortexEngine/src/Time/Timer.cpp Pages: 1 -->
<svg width="1832pt" height="487pt"
 viewBox="0.00 0.00 1831.68 487.00" xmlns="http://www.w3.org/2000/svg" xmlns:xlink="http://www.w3.org/1999/xlink">
<g id="graph0" class="graph" transform="scale(1 1) rotate(0) translate(4 483)">
<title>VortexEngine/src/Time/Timer.cpp</title>
<!-- Node1 -->
<g id="node1" class="node">
<title>Node1</title>
<g id="a_node1"><a xlink:title=" ">
<polygon fill="#bfbfbf" stroke="black" points="1566.18,-448.5 1566.18,-478.5 1692.18,-478.5 1692.18,-448.5 1566.18,-448.5"/>
<text text-anchor="start" x="1574.18" y="-466.5" font-family="Helvetica,sans-Serif" font-size="10.00">VortexEngine/src/Time</text>
<text text-anchor="middle" x="1629.18" y="-455.5" font-family="Helvetica,sans-Serif" font-size="10.00">/Timer.cpp</text>
</a>
</g>
</g>
<!-- Node2 -->
<g id="node2" class="node">
<title>Node2</title>
<g id="a_node2"><a xlink:href="Timer_8h.html" target="_top" xlink:title=" ">
<polygon fill="none" stroke="black" points="632.68,-280.5 632.68,-299.5 685.68,-299.5 685.68,-280.5 632.68,-280.5"/>
<text text-anchor="middle" x="659.18" y="-287.5" font-family="Helvetica,sans-Serif" font-size="10.00">Timer.h</text>
</a>
</g>
</g>
<!-- Node1&#45;&gt;Node2 -->
<g id="edge1" class="edge">
<title>Node1&#45;&gt;Node2</title>
<path fill="none" stroke="midnightblue" d="M1565.95,-461.68C1440.52,-459.26 1151.63,-449.68 912.18,-412 809.53,-395.85 763.57,-424.21 685.18,-356 671.59,-344.17 665.02,-324.25 661.9,-309.58"/>
<polygon fill="midnightblue" stroke="midnightblue" points="665.32,-308.83 660.12,-299.59 658.43,-310.05 665.32,-308.83"/>
</g>
<!-- Node11 -->
<g id="node11" class="node">
<title>Node11</title>
<g id="a_node11"><a xlink:href="VortexEngine_8h.html" target="_top" xlink:title=" ">
<polygon fill="none" stroke="black" points="921.68,-392.5 921.68,-411.5 1020.68,-411.5 1020.68,-392.5 921.68,-392.5"/>
<text text-anchor="middle" x="971.18" y="-399.5" font-family="Helvetica,sans-Serif" font-size="10.00">../VortexEngine.h</text>
</a>
</g>
</g>
<!-- Node1&#45;&gt;Node11 -->
<g id="edge16" class="edge">
<title>Node1&#45;&gt;Node11</title>
<path fill="none" stroke="midnightblue" d="M1566.09,-456.79C1439.22,-445.32 1154.78,-419.6 1030.83,-408.39"/>
<polygon fill="midnightblue" stroke="midnightblue" points="1031.03,-404.9 1020.76,-407.48 1030.4,-411.87 1031.03,-404.9"/>
</g>
<!-- Node19 -->
<g id="node19" class="node">
<title>Node19</title>
<g id="a_node19"><a xlink:href="Log_8h.html" target="_top" xlink:title=" ">
<polygon fill="none" stroke="black" points="1359.18,-168.5 1359.18,-187.5 1431.18,-187.5 1431.18,-168.5 1359.18,-168.5"/>
<text text-anchor="middle" x="1395.18" y="-175.5" font-family="Helvetica,sans-Serif" font-size="10.00">../Log/Log.h</text>
</a>
</g>
</g>
<!-- Node1&#45;&gt;Node19 -->
<g id="edge84" class="edge">
<title>Node1&#45;&gt;Node19</title>
<path fill="none" stroke="midnightblue" d="M1649.8,-448.32C1675.52,-428.77 1716.18,-390.93 1716.18,-347 1716.18,-347 1716.18,-347 1716.18,-289 1716.18,-231.62 1530.33,-197.88 1441.46,-185.02"/>
<polygon fill="midnightblue" stroke="midnightblue" points="1441.77,-181.53 1431.38,-183.59 1440.79,-188.46 1441.77,-181.53"/>
</g>
<!-- Node27 -->
<g id="node27" class="node">
<title>Node27</title>
<g id="a_node27"><a xlink:href="TimeControl_8h.html" target="_top" xlink:title=" ">
<polygon fill="none" stroke="black" points="1498.68,-280.5 1498.68,-299.5 1611.68,-299.5 1611.68,-280.5 1498.68,-280.5"/>
<text text-anchor="middle" x="1555.18" y="-287.5" font-family="Helvetica,sans-Serif" font-size="10.00">Time/TimeControl.h</text>
</a>
</g>
</g>
<!-- Node1&#45;&gt;Node27 -->
<g id="edge79" class="edge">
<title>Node1&#45;&gt;Node27</title>
<path fill="none" stroke="midnightblue" d="M1630.24,-448.15C1631.39,-423.5 1630.82,-372.29 1610.18,-336 1603.01,-323.39 1590.82,-312.87 1579.74,-305.18"/>
<polygon fill="midnightblue" stroke="midnightblue" points="1581.5,-302.15 1571.21,-299.64 1577.69,-308.02 1581.5,-302.15"/>
</g>
<!-- Node33 -->
<g id="node33" class="node">
<title>Node33</title>
<g id="a_node33"><a xlink:href="Memory_8h.html" target="_top" xlink:title=" ">
<polygon fill="none" stroke="black" points="1706.68,-112.5 1706.68,-131.5 1823.68,-131.5 1823.68,-112.5 1706.68,-112.5"/>
<text text-anchor="middle" x="1765.18" y="-119.5" font-family="Helvetica,sans-Serif" font-size="10.00">../Memory/Memory.h</text>
</a>
</g>
</g>
<!-- Node1&#45;&gt;Node33 -->
<g id="edge80" class="edge">
<title>Node1&#45;&gt;Node33</title>
<path fill="none" stroke="midnightblue" d="M1665.74,-448.45C1704.19,-431.01 1759.18,-397.27 1759.18,-347 1759.18,-347 1759.18,-347 1759.18,-233 1759.18,-200.9 1761.76,-163.61 1763.53,-141.73"/>
<polygon fill="midnightblue" stroke="midnightblue" points="1767.04,-141.81 1764.39,-131.55 1760.06,-141.22 1767.04,-141.81"/>
</g>
<!-- Node3 -->
<g id="node3" class="node">
<title>Node3</title>
<g id="a_node3"><a xlink:title=" ">
<polygon fill="none" stroke="#bfbfbf" points="684.68,-56.5 684.68,-75.5 749.68,-75.5 749.68,-56.5 684.68,-56.5"/>
<text text-anchor="middle" x="717.18" y="-63.5" font-family="Helvetica,sans-Serif" font-size="10.00">inttypes.h</text>
</a>
</g>
</g>
<!-- Node2&#45;&gt;Node3 -->
<g id="edge2" class="edge">
<title>Node2&#45;&gt;Node3</title>
<path fill="none" stroke="midnightblue" d="M649.58,-280.22C629.05,-260.32 584.18,-210.22 603.18,-168 621.21,-127.92 663.89,-97.31 691.6,-80.77"/>
<polygon fill="midnightblue" stroke="midnightblue" points="693.46,-83.74 700.37,-75.7 689.96,-77.67 693.46,-83.74"/>
</g>
<!-- Node4 -->
<g id="node4" class="node">
<title>Node4</title>
<g id="a_node4"><a xlink:href="LedTypes_8h.html" target="_top" xlink:title=" ">
<polygon fill="none" stroke="black" points="1236.68,-224.5 1236.68,-243.5 1341.68,-243.5 1341.68,-224.5 1236.68,-224.5"/>
<text text-anchor="middle" x="1289.18" y="-231.5" font-family="Helvetica,sans-Serif" font-size="10.00">../Leds/LedTypes.h</text>
</a>
</g>
</g>
<!-- Node2&#45;&gt;Node4 -->
<g id="edge3" class="edge">
<title>Node2&#45;&gt;Node4</title>
<path fill="none" stroke="midnightblue" d="M685.85,-286.71C778.97,-278.73 1091.36,-251.96 1226.26,-240.39"/>
<polygon fill="midnightblue" stroke="midnightblue" points="1226.77,-243.86 1236.44,-239.52 1226.18,-236.89 1226.77,-243.86"/>
</g>
<!-- Node4&#45;&gt;Node3 -->
<g id="edge4" class="edge">
<title>Node4&#45;&gt;Node3</title>
<path fill="none" stroke="midnightblue" d="M1245.98,-224.45C1204.91,-216.07 1141.51,-202.48 1087.18,-188 1006.22,-166.43 986.82,-158.01 907.18,-132 852.27,-114.07 788.84,-92.12 750.93,-78.87"/>
<polygon fill="midnightblue" stroke="midnightblue" points="751.99,-75.53 741.4,-75.53 749.68,-82.14 751.99,-75.53"/>
</g>
<!-- Node5 -->
<g id="node5" class="node">
<title>Node5</title>
<g id="a_node5"><a xlink:title=" ">
<polygon fill="none" stroke="#bfbfbf" points="1236.18,-112.5 1236.18,-131.5 1292.18,-131.5 1292.18,-112.5 1236.18,-112.5"/>
<text text-anchor="middle" x="1264.18" y="-119.5" font-family="Helvetica,sans-Serif" font-size="10.00">stdarg.h</text>
</a>
</g>
</g>
<!-- Node4&#45;&gt;Node5 -->
<g id="edge5" class="edge">
<title>Node4&#45;&gt;Node5</title>
<path fill="none" stroke="midnightblue" d="M1287.22,-224.37C1283.18,-206.62 1273.87,-165.67 1268.4,-141.6"/>
<polygon fill="midnightblue" stroke="midnightblue" points="1271.76,-140.57 1266.13,-131.59 1264.93,-142.12 1271.76,-140.57"/>
</g>
<!-- Node6 -->
<g id="node6" class="node">
<title>Node6</title>
<g id="a_node6"><a xlink:href="Leds_8h.html" target="_top" xlink:title=" ">
<polygon fill="none" stroke="black" points="1096.68,-168.5 1096.68,-187.5 1179.68,-187.5 1179.68,-168.5 1096.68,-168.5"/>
<text text-anchor="middle" x="1138.18" y="-175.5" font-family="Helvetica,sans-Serif" font-size="10.00">../Leds/Leds.h</text>
</a>
</g>
</g>
<!-- Node4&#45;&gt;Node6 -->
<g id="edge6" class="edge">
<title>Node4&#45;&gt;Node6</title>
<path fill="none" stroke="midnightblue" d="M1265.25,-224.44C1239.96,-215.4 1199.88,-201.06 1171.5,-190.92"/>
<polygon fill="midnightblue" stroke="midnightblue" points="1172.59,-187.59 1161.99,-187.52 1170.23,-194.18 1172.59,-187.59"/>
</g>
<!-- Node8 -->
<g id="node8" class="node">
<title>Node8</title>
<g id="a_node8"><a xlink:href="VortexConfig_8h.html" target="_top" xlink:title=" ">
<polygon fill="none" stroke="black" points="1401.68,-56.5 1401.68,-75.5 1498.68,-75.5 1498.68,-56.5 1401.68,-56.5"/>
<text text-anchor="middle" x="1450.18" y="-63.5" font-family="Helvetica,sans-Serif" font-size="10.00">../VortexConfig.h</text>
</a>
</g>
</g>
<!-- Node4&#45;&gt;Node8 -->
<g id="edge15" class="edge">
<title>Node4&#45;&gt;Node8</title>
<path fill="none" stroke="midnightblue" d="M1341.8,-230.99C1374.86,-226.83 1415.73,-215.86 1440.18,-188 1465.12,-159.58 1460.02,-111.58 1454.73,-85.39"/>
<polygon fill="midnightblue" stroke="midnightblue" points="1458.14,-84.62 1452.54,-75.63 1451.31,-86.15 1458.14,-84.62"/>
</g>
<!-- Node6&#45;&gt;Node3 -->
<g id="edge7" class="edge">
<title>Node6&#45;&gt;Node3</title>
<path fill="none" stroke="midnightblue" d="M1129.02,-168.07C1113.57,-153.6 1080.74,-125.32 1047.18,-112 949.69,-73.3 824.66,-66.85 760.08,-66.38"/>
<polygon fill="midnightblue" stroke="midnightblue" points="759.88,-62.88 749.87,-66.35 759.86,-69.88 759.88,-62.88"/>
</g>
<!-- Node7 -->
<g id="node7" class="node">
<title>Node7</title>
<g id="a_node7"><a xlink:href="ColorTypes_8h.html" target="_top" xlink:title=" ">
<polygon fill="none" stroke="black" points="916.18,-112.5 916.18,-131.5 1038.18,-131.5 1038.18,-112.5 916.18,-112.5"/>
<text text-anchor="middle" x="977.18" y="-119.5" font-family="Helvetica,sans-Serif" font-size="10.00">../Colors/ColorTypes.h</text>
</a>
</g>
</g>
<!-- Node6&#45;&gt;Node7 -->
<g id="edge8" class="edge">
<title>Node6&#45;&gt;Node7</title>
<path fill="none" stroke="midnightblue" d="M1112.67,-168.44C1085.58,-159.36 1042.59,-144.94 1012.31,-134.78"/>
<polygon fill="midnightblue" stroke="midnightblue" points="1013.16,-131.38 1002.57,-131.52 1010.94,-138.01 1013.16,-131.38"/>
</g>
<!-- Node6&#45;&gt;Node8 -->
<g id="edge13" class="edge">
<title>Node6&#45;&gt;Node8</title>
<path fill="none" stroke="midnightblue" d="M1143.05,-168.15C1151.44,-153.8 1170.09,-125.69 1194.18,-112 1227.04,-93.32 1326.53,-79.82 1391.37,-72.72"/>
<polygon fill="midnightblue" stroke="midnightblue" points="1391.89,-76.18 1401.46,-71.63 1391.15,-69.22 1391.89,-76.18"/>
</g>
<!-- Node10 -->
<g id="node10" class="node">
<title>Node10</title>
<g id="a_node10"><a xlink:title=" ">
<polygon fill="none" stroke="#bfbfbf" points="1094.68,-112.5 1094.68,-131.5 1141.68,-131.5 1141.68,-112.5 1094.68,-112.5"/>
<text text-anchor="middle" x="1118.18" y="-119.5" font-family="Helvetica,sans-Serif" font-size="10.00">vector</text>
</a>
</g>
</g>
<!-- Node6&#45;&gt;Node10 -->
<g id="edge14" class="edge">
<title>Node6&#45;&gt;Node10</title>
<path fill="none" stroke="midnightblue" d="M1134.88,-168.08C1132.2,-160.85 1128.33,-150.41 1124.99,-141.4"/>
<polygon fill="midnightblue" stroke="midnightblue" points="1128.17,-139.91 1121.42,-131.75 1121.61,-142.34 1128.17,-139.91"/>
</g>
<!-- Node7&#45;&gt;Node3 -->
<g id="edge9" class="edge">
<title>Node7&#45;&gt;Node3</title>
<path fill="none" stroke="midnightblue" d="M935.98,-112.44C887.86,-102.45 808.63,-85.99 759.87,-75.87"/>
<polygon fill="midnightblue" stroke="midnightblue" points="760.45,-72.41 749.95,-73.81 759.03,-79.27 760.45,-72.41"/>
</g>
<!-- Node7&#45;&gt;Node8 -->
<g id="edge10" class="edge">
<title>Node7&#45;&gt;Node8</title>
<path fill="none" stroke="midnightblue" d="M1038.53,-114C1130.11,-103.54 1301.41,-83.98 1391.45,-73.7"/>
<polygon fill="midnightblue" stroke="midnightblue" points="1391.95,-77.17 1401.49,-72.56 1391.15,-70.22 1391.95,-77.17"/>
</g>
<!-- Node9 -->
<g id="node9" class="node">
<title>Node9</title>
<g id="a_node9"><a xlink:href="ColorConstants_8h.html" target="_top" xlink:title=" ">
<polygon fill="none" stroke="black" points="1264.18,-0.5 1264.18,-19.5 1398.18,-19.5 1398.18,-0.5 1264.18,-0.5"/>
<text text-anchor="middle" x="1331.18" y="-7.5" font-family="Helvetica,sans-Serif" font-size="10.00">Colors/ColorConstants.h</text>
</a>
</g>
</g>
<!-- Node7&#45;&gt;Node9 -->
<g id="edge12" class="edge">
<title>Node7&#45;&gt;Node9</title>
<path fill="none" stroke="midnightblue" d="M1004.66,-112.46C1067.52,-92.93 1221.88,-44.96 1293.52,-22.7"/>
<polygon fill="midnightblue" stroke="midnightblue" points="1294.96,-25.92 1303.47,-19.61 1292.88,-19.24 1294.96,-25.92"/>
</g>
<!-- Node8&#45;&gt;Node9 -->
<g id="edge11" class="edge">
<title>Node8&#45;&gt;Node9</title>
<path fill="none" stroke="midnightblue" d="M1431.32,-56.44C1411.91,-47.64 1381.45,-33.81 1359.21,-23.72"/>
<polygon fill="midnightblue" stroke="midnightblue" points="1360.5,-20.46 1349.95,-19.52 1357.61,-26.84 1360.5,-20.46"/>
</g>
<!-- Node11&#45;&gt;Node3 -->
<g id="edge17" class="edge">
<title>Node11&#45;&gt;Node3</title>
<path fill="none" stroke="midnightblue" d="M921.57,-400.1C778.78,-397.17 368.66,-386.28 238.18,-356 165.01,-339.02 82.18,-366.11 82.18,-291 82.18,-291 82.18,-291 82.18,-177 82.18,-161.17 -183.69,-214.53 242.18,-112 398.18,-74.44 590.07,-67.96 674.21,-67.03"/>
<polygon fill="midnightblue" stroke="midnightblue" points="674.44,-70.52 684.4,-66.93 674.37,-63.52 674.44,-70.52"/>
</g>
<!-- Node11&#45;&gt;Node6 -->
<g id="edge77" class="edge">
<title>Node11&#45;&gt;Node6</title>
<path fill="none" stroke="midnightblue" d="M1020.72,-395.35C1068.02,-388.82 1134.37,-376.28 1150.18,-356 1186.91,-308.89 1161.1,-231.58 1146.43,-196.86"/>
<polygon fill="midnightblue" stroke="midnightblue" points="1149.55,-195.27 1142.31,-187.53 1143.15,-198.09 1149.55,-195.27"/>
</g>
<!-- Node11&#45;&gt;Node8 -->
<g id="edge18" class="edge">
<title>Node11&#45;&gt;Node8</title>
<path fill="none" stroke="midnightblue" d="M1020.74,-399.44C1161.47,-394.75 1556.82,-379.61 1610.18,-356 1648.41,-339.08 1678.18,-332.81 1678.18,-291 1678.18,-291 1678.18,-291 1678.18,-177 1678.18,-101.86 1576.48,-78.02 1508.93,-70.48"/>
<polygon fill="midnightblue" stroke="midnightblue" points="1509.11,-66.98 1498.81,-69.44 1508.4,-73.94 1509.11,-66.98"/>
</g>
<!-- Node12 -->
<g id="node12" class="node">
<title>Node12</title>
<g id="a_node12"><a xlink:href="PatternBuilder_8h.html" target="_top" xlink:title=" ">
<polygon fill="none" stroke="black" points="854.68,-336.5 854.68,-355.5 991.68,-355.5 991.68,-336.5 854.68,-336.5"/>
<text text-anchor="middle" x="923.18" y="-343.5" font-family="Helvetica,sans-Serif" font-size="10.00">Patterns/PatternBuilder.h</text>
</a>
</g>
</g>
<!-- Node11&#45;&gt;Node12 -->
<g id="edge19" class="edge">
<title>Node11&#45;&gt;Node12</title>
<path fill="none" stroke="midnightblue" d="M963.25,-392.08C956.33,-384.3 946.11,-372.8 937.73,-363.37"/>
<polygon fill="midnightblue" stroke="midnightblue" points="940.22,-360.9 930.96,-355.75 934.98,-365.55 940.22,-360.9"/>
</g>
<!-- Node14 -->
<g id="node14" class="node">
<title>Node14</title>
<g id="a_node14"><a xlink:href="IRReceiver_8h.html" target="_top" xlink:title=" ">
<polygon fill="none" stroke="black" points="218.18,-280.5 218.18,-299.5 340.18,-299.5 340.18,-280.5 218.18,-280.5"/>
<text text-anchor="middle" x="279.18" y="-287.5" font-family="Helvetica,sans-Serif" font-size="10.00">Wireless/IRReceiver.h</text>
</a>
</g>
</g>
<!-- Node11&#45;&gt;Node14 -->
<g id="edge22" class="edge">
<title>Node11&#45;&gt;Node14</title>
<path fill="none" stroke="midnightblue" d="M921.63,-397.78C842.64,-392.19 683.46,-379.01 550.18,-356 467.26,-341.69 371.94,-316.82 319.33,-302.35"/>
<polygon fill="midnightblue" stroke="midnightblue" points="319.96,-298.89 309.39,-299.6 318.1,-305.64 319.96,-298.89"/>
</g>
<!-- Node17 -->
<g id="node17" class="node">
<title>Node17</title>
<g id="a_node17"><a xlink:href="IRSender_8h.html" target="_top" xlink:title=" ">
<polygon fill="none" stroke="black" points="358.68,-280.5 358.68,-299.5 471.68,-299.5 471.68,-280.5 358.68,-280.5"/>
<text text-anchor="middle" x="415.18" y="-287.5" font-family="Helvetica,sans-Serif" font-size="10.00">Wireless/IRSender.h</text>
</a>
</g>
</g>
<!-- Node11&#45;&gt;Node17 -->
<g id="edge27" class="edge">
<title>Node11&#45;&gt;Node17</title>
<path fill="none" stroke="midnightblue" d="M921.63,-396.91C855.22,-390.87 733.91,-377.84 632.18,-356 566.14,-341.82 491.05,-317.42 448.77,-302.88"/>
<polygon fill="midnightblue" stroke="midnightblue" points="449.85,-299.55 439.26,-299.59 447.56,-306.17 449.85,-299.55"/>
</g>
<!-- Node11&#45;&gt;Node19 -->
<g id="edge78" class="edge">
<title>Node11&#45;&gt;Node19</title>
<path fill="none" stroke="midnightblue" d="M1020.84,-396.89C1070.37,-391.6 1147.98,-380.05 1211.18,-356 1256.27,-338.84 1267.67,-331.54 1304.18,-300 1340,-269.05 1370.46,-221.76 1385.37,-196.44"/>
<polygon fill="midnightblue" stroke="midnightblue" points="1388.5,-198.02 1390.46,-187.61 1382.43,-194.52 1388.5,-198.02"/>
</g>
<!-- Node21 -->
<g id="node21" class="node">
<title>Node21</title>
<g id="a_node21"><a xlink:href="VLReceiver_8h.html" target="_top" xlink:title=" ">
<polygon fill="none" stroke="black" points="489.68,-280.5 489.68,-299.5 614.68,-299.5 614.68,-280.5 489.68,-280.5"/>
<text text-anchor="middle" x="552.18" y="-287.5" font-family="Helvetica,sans-Serif" font-size="10.00">Wireless/VLReceiver.h</text>
</a>
</g>
</g>
<!-- Node11&#45;&gt;Node21 -->
<g id="edge38" class="edge">
<title>Node11&#45;&gt;Node21</title>
<path fill="none" stroke="midnightblue" d="M921.58,-397.7C863.72,-392.83 765.72,-381.38 685.18,-356 644.57,-343.2 600.83,-319.75 575.01,-304.79"/>
<polygon fill="midnightblue" stroke="midnightblue" points="576.74,-301.75 566.35,-299.7 573.19,-307.78 576.74,-301.75"/>
</g>
<!-- Node23 -->
<g id="node23" class="node">
<title>Node23</title>
<g id="a_node23"><a xlink:href="VLSender_8h.html" target="_top" xlink:title=" ">
<polygon fill="none" stroke="black" points="780.18,-280.5 780.18,-299.5 896.18,-299.5 896.18,-280.5 780.18,-280.5"/>
<text text-anchor="middle" x="838.18" y="-287.5" font-family="Helvetica,sans-Serif" font-size="10.00">Wireless/VLSender.h</text>
</a>
</g>
</g>
<!-- Node11&#45;&gt;Node23 -->
<g id="edge43" class="edge">
<title>Node11&#45;&gt;Node23</title>
<path fill="none" stroke="midnightblue" d="M921.67,-395.95C894.84,-390.51 863.51,-379.26 845.18,-356 834.98,-343.06 834.1,-323.89 835.24,-309.72"/>
<polygon fill="midnightblue" stroke="midnightblue" points="838.74,-309.99 836.46,-299.64 831.79,-309.15 838.74,-309.99"/>
</g>
<!-- Node24 -->
<g id="node24" class="node">
<title>Node24</title>
<g id="a_node24"><a xlink:href="Storage_8h.html" target="_top" xlink:title=" ">
<polygon fill="none" stroke="black" points="212.18,-168.5 212.18,-187.5 316.18,-187.5 316.18,-168.5 212.18,-168.5"/>
<text text-anchor="middle" x="264.18" y="-175.5" font-family="Helvetica,sans-Serif" font-size="10.00">Storage/Storage.h</text>
</a>
</g>
</g>
<!-- Node11&#45;&gt;Node24 -->
<g id="edge47" class="edge">
<title>Node11&#45;&gt;Node24</title>
<path fill="none" stroke="midnightblue" d="M921.67,-398.35C759.75,-389.16 253.71,-356.12 209.18,-300 182.9,-266.89 222.39,-219.21 246.98,-194.77"/>
<polygon fill="midnightblue" stroke="midnightblue" points="249.55,-197.15 254.34,-187.69 244.7,-192.1 249.55,-197.15"/>
</g>
<!-- Node25 -->
<g id="node25" class="node">
<title>Node25</title>
<g id="a_node25"><a xlink:href="Buttons_8h.html" target="_top" xlink:title=" ">
<polygon fill="none" stroke="black" points="694.18,-336.5 694.18,-355.5 798.18,-355.5 798.18,-336.5 694.18,-336.5"/>
<text text-anchor="middle" x="746.18" y="-343.5" font-family="Helvetica,sans-Serif" font-size="10.00">Buttons/Buttons.h</text>
</a>
</g>
</g>
<!-- Node11&#45;&gt;Node25 -->
<g id="edge49" class="edge">
<title>Node11&#45;&gt;Node25</title>
<path fill="none" stroke="midnightblue" d="M935.53,-392.44C896.52,-383.08 833.91,-368.06 791.46,-357.87"/>
<polygon fill="midnightblue" stroke="midnightblue" points="792.2,-354.45 781.66,-355.52 790.57,-361.25 792.2,-354.45"/>
</g>
<!-- Node11&#45;&gt;Node27 -->
<g id="edge52" class="edge">
<title>Node11&#45;&gt;Node27</title>
<path fill="none" stroke="midnightblue" d="M1020.9,-399.47C1128.1,-395.68 1377.66,-384.04 1457.18,-356 1488.43,-344.98 1519.44,-321.81 1537.96,-306.32"/>
<polygon fill="midnightblue" stroke="midnightblue" points="1540.46,-308.79 1545.77,-299.62 1535.9,-303.48 1540.46,-308.79"/>
</g>
<!-- Node28 -->
<g id="node28" class="node">
<title>Node28</title>
<g id="a_node28"><a xlink:href="Timings_8h.html" target="_top" xlink:title=" ">
<polygon fill="none" stroke="black" points="1509.18,-336.5 1509.18,-355.5 1601.18,-355.5 1601.18,-336.5 1509.18,-336.5"/>
<text text-anchor="middle" x="1555.18" y="-343.5" font-family="Helvetica,sans-Serif" font-size="10.00">Time/Timings.h</text>
</a>
</g>
</g>
<!-- Node11&#45;&gt;Node28 -->
<g id="edge56" class="edge">
<title>Node11&#45;&gt;Node28</title>
<path fill="none" stroke="midnightblue" d="M1020.77,-397.79C1113.92,-391.53 1321.3,-376.49 1495.18,-356 1496.44,-355.85 1497.72,-355.7 1499.01,-355.54"/>
<polygon fill="midnightblue" stroke="midnightblue" points="1499.57,-358.99 1509.03,-354.22 1498.66,-352.05 1499.57,-358.99"/>
</g>
<!-- Node29 -->
<g id="node29" class="node">
<title>Node29</title>
<g id="a_node29"><a xlink:href="Serial_8h.html" target="_top" xlink:title=" ">
<polygon fill="none" stroke="black" points="110.18,-168.5 110.18,-187.5 194.18,-187.5 194.18,-168.5 110.18,-168.5"/>
<text text-anchor="middle" x="152.18" y="-175.5" font-family="Helvetica,sans-Serif" font-size="10.00">Serial/Serial.h</text>
</a>
</g>
</g>
<!-- Node11&#45;&gt;Node29 -->
<g id="edge59" class="edge">
<title>Node11&#45;&gt;Node29</title>
<path fill="none" stroke="midnightblue" d="M921.47,-400.26C787.48,-397.87 421.1,-388.45 305.18,-356 253.11,-341.43 233,-340.5 197.18,-300 170.79,-270.17 159.35,-223.45 154.83,-197.66"/>
<polygon fill="midnightblue" stroke="midnightblue" points="158.27,-197.04 153.24,-187.71 151.36,-198.14 158.27,-197.04"/>
</g>
<!-- Node30 -->
<g id="node30" class="node">
<title>Node30</title>
<g id="a_node30"><a xlink:href="Modes_8h.html" target="_top" xlink:title=" ">
<polygon fill="none" stroke="black" points="972.68,-280.5 972.68,-299.5 1065.68,-299.5 1065.68,-280.5 972.68,-280.5"/>
<text text-anchor="middle" x="1019.18" y="-287.5" font-family="Helvetica,sans-Serif" font-size="10.00">Modes/Modes.h</text>
</a>
</g>
</g>
<!-- Node11&#45;&gt;Node30 -->
<g id="edge61" class="edge">
<title>Node11&#45;&gt;Node30</title>
<path fill="none" stroke="midnightblue" d="M977.75,-392.47C984.22,-383.72 994,-369.53 1000.18,-356 1007.05,-340.96 1012.1,-322.83 1015.26,-309.54"/>
<polygon fill="midnightblue" stroke="midnightblue" points="1018.7,-310.22 1017.47,-299.7 1011.87,-308.69 1018.7,-310.22"/>
</g>
<!-- Node31 -->
<g id="node31" class="node">
<title>Node31</title>
<g id="a_node31"><a xlink:href="Menus_8h.html" target="_top" xlink:title=" ">
<polygon fill="none" stroke="black" points="1048.68,-336.5 1048.68,-355.5 1141.68,-355.5 1141.68,-336.5 1048.68,-336.5"/>
<text text-anchor="middle" x="1095.18" y="-343.5" font-family="Helvetica,sans-Serif" font-size="10.00">Menus/Menus.h</text>
</a>
</g>
</g>
<!-- Node11&#45;&gt;Node31 -->
<g id="edge68" class="edge">
<title>Node11&#45;&gt;Node31</title>
<path fill="none" stroke="midnightblue" d="M990.83,-392.44C1011.14,-383.6 1043.08,-369.69 1066.28,-359.59"/>
<polygon fill="midnightblue" stroke="midnightblue" points="1067.85,-362.72 1075.62,-355.52 1065.06,-356.3 1067.85,-362.72"/>
</g>
<!-- Node32 -->
<g id="node32" class="node">
<title>Node32</title>
<g id="a_node32"><a xlink:href="Mode_8h.html" target="_top" xlink:title=" ">
<polygon fill="none" stroke="black" points="1198.68,-280.5 1198.68,-299.5 1295.68,-299.5 1295.68,-280.5 1198.68,-280.5"/>
<text text-anchor="middle" x="1247.18" y="-287.5" font-family="Helvetica,sans-Serif" font-size="10.00">../Modes/Mode.h</text>
</a>
</g>
</g>
<!-- Node11&#45;&gt;Node32 -->
<g id="edge76" class="edge">
<title>Node11&#45;&gt;Node32</title>
<path fill="none" stroke="midnightblue" d="M1020.97,-398.7C1066.06,-394.78 1133.06,-384.23 1184.18,-356 1205.37,-344.3 1223.87,-323.15 1235.24,-308.15"/>
<polygon fill="midnightblue" stroke="midnightblue" points="1238.3,-309.9 1241.36,-299.75 1232.64,-305.77 1238.3,-309.9"/>
</g>
<!-- Node13 -->
<g id="node13" class="node">
<title>Node13</title>
<g id="a_node13"><a xlink:href="Patterns_8h.html" target="_top" xlink:title=" ">
<polygon fill="none" stroke="black" points="962.68,-224.5 962.68,-243.5 1027.68,-243.5 1027.68,-224.5 962.68,-224.5"/>
<text text-anchor="middle" x="995.18" y="-231.5" font-family="Helvetica,sans-Serif" font-size="10.00">Patterns.h</text>
</a>
</g>
</g>
<!-- Node12&#45;&gt;Node13 -->
<g id="edge20" class="edge">
<title>Node12&#45;&gt;Node13</title>
<path fill="none" stroke="midnightblue" d="M928.18,-336.47C935.58,-323.94 950.01,-299.89 963.18,-280 969.47,-270.49 976.83,-260.1 982.9,-251.7"/>
<polygon fill="midnightblue" stroke="midnightblue" points="985.81,-253.65 988.87,-243.51 980.15,-249.53 985.81,-253.65"/>
</g>
<!-- Node13&#45;&gt;Node3 -->
<g id="edge21" class="edge">
<title>Node13&#45;&gt;Node3</title>
<path fill="none" stroke="midnightblue" d="M980.62,-224.31C935.21,-197.19 795.86,-113.98 740.35,-80.83"/>
<polygon fill="midnightblue" stroke="midnightblue" points="741.97,-77.73 731.59,-75.61 738.38,-83.74 741.97,-77.73"/>
</g>
<!-- Node14&#45;&gt;Node3 -->
<g id="edge23" class="edge">
<title>Node14&#45;&gt;Node3</title>
<path fill="none" stroke="midnightblue" d="M281.58,-280.46C285.71,-267.04 295.29,-240.83 311.18,-224 380.59,-150.49 414.7,-147.99 509.18,-112 564.36,-90.98 631.71,-78.67 674.53,-72.38"/>
<polygon fill="midnightblue" stroke="midnightblue" points="675.19,-75.82 684.6,-70.95 674.21,-68.89 675.19,-75.82"/>
</g>
<!-- Node15 -->
<g id="node15" class="node">
<title>Node15</title>
<g id="a_node15"><a xlink:href="BitStream_8h.html" target="_top" xlink:title=" ">
<polygon fill="none" stroke="black" points="404.18,-224.5 404.18,-243.5 518.18,-243.5 518.18,-224.5 404.18,-224.5"/>
<text text-anchor="middle" x="461.18" y="-231.5" font-family="Helvetica,sans-Serif" font-size="10.00">../Serial/BitStream.h</text>
</a>
</g>
</g>
<!-- Node14&#45;&gt;Node15 -->
<g id="edge24" class="edge">
<title>Node14&#45;&gt;Node15</title>
<path fill="none" stroke="midnightblue" d="M308.02,-280.44C339.03,-271.24 388.51,-256.56 422.8,-246.39"/>
<polygon fill="midnightblue" stroke="midnightblue" points="423.88,-249.72 432.47,-243.52 421.89,-243.01 423.88,-249.72"/>
</g>
<!-- Node16 -->
<g id="node16" class="node">
<title>Node16</title>
<g id="a_node16"><a xlink:href="IRConfig_8h.html" target="_top" xlink:title=" ">
<polygon fill="none" stroke="black" points="320.18,-224.5 320.18,-243.5 386.18,-243.5 386.18,-224.5 320.18,-224.5"/>
<text text-anchor="middle" x="353.18" y="-231.5" font-family="Helvetica,sans-Serif" font-size="10.00">IRConfig.h</text>
</a>
</g>
</g>
<!-- Node14&#45;&gt;Node16 -->
<g id="edge26" class="edge">
<title>Node14&#45;&gt;Node16</title>
<path fill="none" stroke="midnightblue" d="M291.07,-280.32C302.33,-272.11 319.46,-259.6 332.89,-249.81"/>
<polygon fill="midnightblue" stroke="midnightblue" points="335.06,-252.56 341.07,-243.83 330.93,-246.9 335.06,-252.56"/>
</g>
<!-- Node15&#45;&gt;Node3 -->
<g id="edge25" class="edge">
<title>Node15&#45;&gt;Node3</title>
<path fill="none" stroke="midnightblue" d="M463.64,-224.38C470.48,-202.05 491.91,-141.94 532.18,-112 573.9,-80.97 634.2,-71.09 674.5,-68.07"/>
<polygon fill="midnightblue" stroke="midnightblue" points="674.78,-71.56 684.54,-67.43 674.33,-64.58 674.78,-71.56"/>
</g>
<!-- Node17&#45;&gt;Node15 -->
<g id="edge36" class="edge">
<title>Node17&#45;&gt;Node15</title>
<path fill="none" stroke="midnightblue" d="M422.77,-280.08C429.41,-272.3 439.2,-260.8 447.24,-251.37"/>
<polygon fill="midnightblue" stroke="midnightblue" points="449.9,-253.63 453.72,-243.75 444.57,-249.09 449.9,-253.63"/>
</g>
<!-- Node17&#45;&gt;Node16 -->
<g id="edge37" class="edge">
<title>Node17&#45;&gt;Node16</title>
<path fill="none" stroke="midnightblue" d="M405.22,-280.32C396.05,-272.34 382.24,-260.31 371.15,-250.65"/>
<polygon fill="midnightblue" stroke="midnightblue" points="373.16,-247.76 363.32,-243.83 368.56,-253.04 373.16,-247.76"/>
</g>
<!-- Node18 -->
<g id="node18" class="node">
<title>Node18</title>
<g id="a_node18"><a xlink:href="ByteStream_8h.html" target="_top" xlink:title=" ">
<polygon fill="none" stroke="black" points="782.68,-224.5 782.68,-243.5 905.68,-243.5 905.68,-224.5 782.68,-224.5"/>
<text text-anchor="middle" x="844.18" y="-231.5" font-family="Helvetica,sans-Serif" font-size="10.00">../Serial/ByteStream.h</text>
</a>
</g>
</g>
<!-- Node17&#45;&gt;Node18 -->
<g id="edge28" class="edge">
<title>Node17&#45;&gt;Node18</title>
<path fill="none" stroke="midnightblue" d="M471.89,-281.1C474.69,-280.72 477.47,-280.35 480.18,-280 607.1,-263.42 641.33,-260.39 772.57,-244.07"/>
<polygon fill="midnightblue" stroke="midnightblue" points="773.12,-247.53 782.61,-242.82 772.25,-240.58 773.12,-247.53"/>
</g>
<!-- Node18&#45;&gt;Node3 -->
<g id="edge29" class="edge">
<title>Node18&#45;&gt;Node3</title>
<path fill="none" stroke="midnightblue" d="M834.09,-224.22C824.37,-215.51 809.5,-201.54 798.18,-188 769.39,-153.57 741.58,-108.7 727.23,-84.43"/>
<polygon fill="midnightblue" stroke="midnightblue" points="730.17,-82.52 722.1,-75.65 724.12,-86.05 730.17,-82.52"/>
</g>
<!-- Node18&#45;&gt;Node19 -->
<g id="edge30" class="edge">
<title>Node18&#45;&gt;Node19</title>
<path fill="none" stroke="midnightblue" d="M905.78,-226.96C1017.25,-216.04 1250.05,-193.22 1349.04,-183.52"/>
<polygon fill="midnightblue" stroke="midnightblue" points="1349.42,-187 1359.03,-182.54 1348.74,-180.03 1349.42,-187"/>
</g>
<!-- Node19&#45;&gt;Node5 -->
<g id="edge31" class="edge">
<title>Node19&#45;&gt;Node5</title>
<path fill="none" stroke="midnightblue" d="M1374.42,-168.44C1352.86,-159.56 1318.91,-145.56 1294.38,-135.45"/>
<polygon fill="midnightblue" stroke="midnightblue" points="1295.42,-132.09 1284.84,-131.52 1292.75,-138.56 1295.42,-132.09"/>
</g>
<!-- Node19&#45;&gt;Node8 -->
<g id="edge32" class="edge">
<title>Node19&#45;&gt;Node8</title>
<path fill="none" stroke="midnightblue" d="M1403.46,-168.36C1411.32,-159.76 1422.96,-145.87 1430.18,-132 1437.84,-117.27 1443.12,-99.11 1446.32,-85.73"/>
<polygon fill="midnightblue" stroke="midnightblue" points="1449.78,-86.32 1448.53,-75.8 1442.94,-84.8 1449.78,-86.32"/>
</g>
<!-- Node20 -->
<g id="node20" class="node">
<title>Node20</title>
<g id="a_node20"><a xlink:href="ErrorBlinker_8h.html" target="_top" xlink:title=" ">
<polygon fill="none" stroke="black" points="1310.68,-112.5 1310.68,-131.5 1421.68,-131.5 1421.68,-112.5 1310.68,-112.5"/>
<text text-anchor="middle" x="1366.18" y="-119.5" font-family="Helvetica,sans-Serif" font-size="10.00">../Log/ErrorBlinker.h</text>
</a>
</g>
</g>
<!-- Node19&#45;&gt;Node20 -->
<g id="edge33" class="edge">
<title>Node19&#45;&gt;Node20</title>
<path fill="none" stroke="midnightblue" d="M1390.39,-168.08C1386.42,-160.69 1380.65,-149.95 1375.74,-140.81"/>
<polygon fill="midnightblue" stroke="midnightblue" points="1378.69,-138.91 1370.88,-131.75 1372.53,-142.22 1378.69,-138.91"/>
</g>
<!-- Node20&#45;&gt;Node3 -->
<g id="edge34" class="edge">
<title>Node20&#45;&gt;Node3</title>
<path fill="none" stroke="midnightblue" d="M1310.54,-113.07C1307.37,-112.69 1304.24,-112.33 1301.18,-112 1099.21,-90.26 856.84,-75.05 760.11,-69.41"/>
<polygon fill="midnightblue" stroke="midnightblue" points="760.04,-65.9 749.85,-68.82 759.63,-72.89 760.04,-65.9"/>
</g>
<!-- Node20&#45;&gt;Node8 -->
<g id="edge35" class="edge">
<title>Node20&#45;&gt;Node8</title>
<path fill="none" stroke="midnightblue" d="M1379.67,-112.32C1392.78,-103.9 1412.89,-90.97 1428.28,-81.07"/>
<polygon fill="midnightblue" stroke="midnightblue" points="1430.2,-84.01 1436.72,-75.65 1426.41,-78.12 1430.2,-84.01"/>
</g>
<!-- Node21&#45;&gt;Node3 -->
<g id="edge39" class="edge">
<title>Node21&#45;&gt;Node3</title>
<path fill="none" stroke="midnightblue" d="M553.29,-280.26C557.36,-251.88 573.96,-161.36 625.18,-112 640.41,-97.32 661.35,-86.57 679.41,-79.26"/>
<polygon fill="midnightblue" stroke="midnightblue" points="681,-82.4 689.09,-75.55 678.5,-75.86 681,-82.4"/>
</g>
<!-- Node21&#45;&gt;Node15 -->
<g id="edge40" class="edge">
<title>Node21&#45;&gt;Node15</title>
<path fill="none" stroke="midnightblue" d="M537.56,-280.32C523.23,-271.82 501.17,-258.73 484.43,-248.8"/>
<polygon fill="midnightblue" stroke="midnightblue" points="486.15,-245.75 475.76,-243.65 482.58,-251.77 486.15,-245.75"/>
</g>
<!-- Node22 -->
<g id="node22" class="node">
<title>Node22</title>
<g id="a_node22"><a xlink:href="VLConfig_8h.html" target="_top" xlink:title=" ">
<polygon fill="none" stroke="black" points="696.18,-224.5 696.18,-243.5 764.18,-243.5 764.18,-224.5 696.18,-224.5"/>
<text text-anchor="middle" x="730.18" y="-231.5" font-family="Helvetica,sans-Serif" font-size="10.00">VLConfig.h</text>
</a>
</g>
</g>
<!-- Node21&#45;&gt;Node22 -->
<g id="edge41" class="edge">
<title>Node21&#45;&gt;Node22</title>
<path fill="none" stroke="midnightblue" d="M580.38,-280.44C610.59,-271.28 658.69,-256.69 692.21,-246.52"/>
<polygon fill="midnightblue" stroke="midnightblue" points="693.55,-249.77 702.11,-243.52 691.52,-243.07 693.55,-249.77"/>
</g>
<!-- Node22&#45;&gt;Node8 -->
<g id="edge42" class="edge">
<title>Node22&#45;&gt;Node8</title>
<path fill="none" stroke="midnightblue" d="M739.17,-224.23C763.65,-200.98 834.57,-137.78 907.18,-112 995.09,-80.79 1269.9,-70.96 1391.4,-68.09"/>
<polygon fill="midnightblue" stroke="midnightblue" points="1391.71,-71.58 1401.63,-67.86 1391.55,-64.59 1391.71,-71.58"/>
</g>
<!-- Node23&#45;&gt;Node15 -->
<g id="edge45" class="edge">
<title>Node23&#45;&gt;Node15</title>
<path fill="none" stroke="midnightblue" d="M780.1,-280.68C712.28,-270.97 600.28,-254.92 528.66,-244.67"/>
<polygon fill="midnightblue" stroke="midnightblue" points="528.79,-241.15 518.4,-243.2 527.8,-248.08 528.79,-241.15"/>
</g>
<!-- Node23&#45;&gt;Node18 -->
<g id="edge44" class="edge">
<title>Node23&#45;&gt;Node18</title>
<path fill="none" stroke="midnightblue" d="M839.17,-280.08C839.96,-272.93 841.11,-262.64 842.1,-253.69"/>
<polygon fill="midnightblue" stroke="midnightblue" points="845.58,-254.08 843.21,-243.75 838.62,-253.3 845.58,-254.08"/>
</g>
<!-- Node23&#45;&gt;Node22 -->
<g id="edge46" class="edge">
<title>Node23&#45;&gt;Node22</title>
<path fill="none" stroke="midnightblue" d="M820.83,-280.32C803.51,-271.66 776.66,-258.24 756.68,-248.25"/>
<polygon fill="midnightblue" stroke="midnightblue" points="758,-245 747.49,-243.65 754.87,-251.26 758,-245"/>
</g>
<!-- Node24&#45;&gt;Node3 -->
<g id="edge48" class="edge">
<title>Node24&#45;&gt;Node3</title>
<path fill="none" stroke="midnightblue" d="M269.9,-168.44C280.1,-153.99 302.91,-125.06 330.18,-112 390.26,-83.22 587.03,-72.08 674.55,-68.48"/>
<polygon fill="midnightblue" stroke="midnightblue" points="674.81,-71.97 684.66,-68.08 674.53,-64.98 674.81,-71.97"/>
</g>
<!-- Node26 -->
<g id="node26" class="node">
<title>Node26</title>
<g id="a_node26"><a xlink:href="Button_8h.html" target="_top" xlink:title=" ">
<polygon fill="none" stroke="black" points="612.18,-168.5 612.18,-187.5 670.18,-187.5 670.18,-168.5 612.18,-168.5"/>
<text text-anchor="middle" x="641.18" y="-175.5" font-family="Helvetica,sans-Serif" font-size="10.00">Button.h</text>
</a>
</g>
</g>
<!-- Node25&#45;&gt;Node26 -->
<g id="edge50" class="edge">
<title>Node25&#45;&gt;Node26</title>
<path fill="none" stroke="midnightblue" d="M739.87,-336.22C730.49,-323.37 712.03,-298.92 694.18,-280 677.76,-262.6 666.01,-264.78 654.18,-244 646.08,-229.78 642.97,-211.31 641.8,-197.69"/>
<polygon fill="midnightblue" stroke="midnightblue" points="645.29,-197.37 641.21,-187.59 638.3,-197.78 645.29,-197.37"/>
</g>
<!-- Node26&#45;&gt;Node3 -->
<g id="edge51" class="edge">
<title>Node26&#45;&gt;Node3</title>
<path fill="none" stroke="midnightblue" d="M646.62,-168.5C654.65,-156 670.25,-131.98 684.18,-112 690.77,-102.54 698.36,-92.16 704.6,-83.75"/>
<polygon fill="midnightblue" stroke="midnightblue" points="707.55,-85.65 710.73,-75.54 701.94,-81.46 707.55,-85.65"/>
</g>
<!-- Node27&#45;&gt;Node3 -->
<g id="edge53" class="edge">
<title>Node27&#45;&gt;Node3</title>
<path fill="none" stroke="midnightblue" d="M1552.17,-280.29C1541.34,-250.39 1501.12,-151.63 1430.18,-112 1371.75,-79.36 904.97,-69.77 759.98,-67.56"/>
<polygon fill="midnightblue" stroke="midnightblue" points="759.76,-64.06 749.71,-67.41 759.66,-71.06 759.76,-64.06"/>
</g>
<!-- Node27&#45;&gt;Node4 -->
<g id="edge55" class="edge">
<title>Node27&#45;&gt;Node4</title>
<path fill="none" stroke="midnightblue" d="M1513.03,-280.44C1466.43,-270.98 1391.33,-255.74 1341.13,-245.55"/>
<polygon fill="midnightblue" stroke="midnightblue" points="1341.63,-242.08 1331.13,-243.52 1340.23,-248.94 1341.63,-242.08"/>
</g>
<!-- Node27&#45;&gt;Node8 -->
<g id="edge54" class="edge">
<title>Node27&#45;&gt;Node8</title>
<path fill="none" stroke="midnightblue" d="M1561.28,-280.19C1566.93,-271.46 1574.93,-257.48 1578.18,-244 1591.91,-186.96 1612.09,-159.87 1578.18,-112 1562.37,-89.69 1534.58,-78.36 1508.92,-72.64"/>
<polygon fill="midnightblue" stroke="midnightblue" points="1509.34,-69.15 1498.85,-70.64 1507.98,-76.02 1509.34,-69.15"/>
</g>
<!-- Node28&#45;&gt;Node8 -->
<g id="edge58" class="edge">
<title>Node28&#45;&gt;Node8</title>
<path fill="none" stroke="midnightblue" d="M1573.72,-336.48C1588.33,-328.87 1608.18,-316.39 1620.18,-300 1638.03,-275.61 1640.18,-265.23 1640.18,-235 1640.18,-235 1640.18,-235 1640.18,-177 1640.18,-115.51 1564.73,-87.84 1508.93,-75.78"/>
<polygon fill="midnightblue" stroke="midnightblue" points="1509.61,-72.35 1499.11,-73.77 1508.2,-79.2 1509.61,-72.35"/>
</g>
<!-- Node28&#45;&gt;Node27 -->
<g id="edge57" class="edge">
<title>Node28&#45;&gt;Node27</title>
<path fill="none" stroke="midnightblue" d="M1555.18,-336.08C1555.18,-329.01 1555.18,-318.86 1555.18,-309.99"/>
<polygon fill="midnightblue" stroke="midnightblue" points="1558.68,-309.75 1555.18,-299.75 1551.68,-309.75 1558.68,-309.75"/>
</g>
<!-- Node29&#45;&gt;Node3 -->
<g id="edge60" class="edge">
<title>Node29&#45;&gt;Node3</title>
<path fill="none" stroke="midnightblue" d="M167.59,-168.33C193.87,-153.97 249.47,-125.52 300.18,-112 433.56,-76.42 598.08,-68.86 674.47,-67.33"/>
<polygon fill="midnightblue" stroke="midnightblue" points="674.72,-70.83 684.65,-67.15 674.59,-63.83 674.72,-70.83"/>
</g>
<!-- Node30&#45;&gt;Node3 -->
<g id="edge67" class="edge">
<title>Node30&#45;&gt;Node3</title>
<path fill="none" stroke="midnightblue" d="M1006.52,-280.38C993.24,-271.32 971.74,-256.66 953.18,-244 880.27,-194.25 858.54,-186.59 789.18,-132 769.27,-116.33 747.89,-96.62 733.64,-83.04"/>
<polygon fill="midnightblue" stroke="midnightblue" points="735.78,-80.24 726.15,-75.83 730.93,-85.28 735.78,-80.24"/>
</g>
<!-- Node30&#45;&gt;Node6 -->
<g id="edge65" class="edge">
<title>Node30&#45;&gt;Node6</title>
<path fill="none" stroke="midnightblue" d="M1029.06,-280.49C1039.41,-271.52 1056.09,-256.94 1070.18,-244 1088.28,-227.38 1108.59,-207.84 1122.27,-194.56"/>
<polygon fill="midnightblue" stroke="midnightblue" points="1124.76,-197.01 1129.48,-187.53 1119.88,-192 1124.76,-197.01"/>
</g>
<!-- Node30&#45;&gt;Node7 -->
<g id="edge63" class="edge">
<title>Node30&#45;&gt;Node7</title>
<path fill="none" stroke="midnightblue" d="M1024.46,-280.16C1031.26,-267.64 1041.6,-244.04 1036.18,-224 1027.38,-191.51 1005.24,-158.75 990.73,-139.69"/>
<polygon fill="midnightblue" stroke="midnightblue" points="993.41,-137.44 984.49,-131.72 987.9,-141.76 993.41,-137.44"/>
</g>
<!-- Node30&#45;&gt;Node8 -->
<g id="edge66" class="edge">
<title>Node30&#45;&gt;Node8</title>
<path fill="none" stroke="midnightblue" d="M1041.57,-280.43C1076.72,-266.03 1145.24,-233.96 1188.18,-188 1214.1,-160.26 1196.91,-134.91 1227.18,-112 1252.58,-92.77 1334.51,-79.91 1391.65,-73.02"/>
<polygon fill="midnightblue" stroke="midnightblue" points="1392.13,-76.49 1401.66,-71.85 1391.31,-69.54 1392.13,-76.49"/>
</g>
<!-- Node30&#45;&gt;Node13 -->
<g id="edge64" class="edge">
<title>Node30&#45;&gt;Node13</title>
<path fill="none" stroke="midnightblue" d="M1015.21,-280.08C1011.96,-272.77 1007.26,-262.18 1003.22,-253.1"/>
<polygon fill="midnightblue" stroke="midnightblue" points="1006.33,-251.47 999.07,-243.75 999.93,-254.31 1006.33,-251.47"/>
</g>
<!-- Node30&#45;&gt;Node18 -->
<g id="edge62" class="edge">
<title>Node30&#45;&gt;Node18</title>
<path fill="none" stroke="midnightblue" d="M991.45,-280.44C961.75,-271.28 914.46,-256.69 881.51,-246.52"/>
<polygon fill="midnightblue" stroke="midnightblue" points="882.36,-243.12 871.78,-243.52 880.3,-249.81 882.36,-243.12"/>
</g>
<!-- Node31&#45;&gt;Node3 -->
<g id="edge69" class="edge">
<title>Node31&#45;&gt;Node3</title>
<path fill="none" stroke="midnightblue" d="M1048.35,-339.67C964.85,-329.99 796.56,-309.64 771.18,-300 729.23,-284.07 708.35,-283.56 687.18,-244 672.53,-216.62 698.86,-124.62 711.25,-85.19"/>
<polygon fill="midnightblue" stroke="midnightblue" points="714.62,-86.15 714.33,-75.56 707.95,-84.02 714.62,-86.15"/>
</g>
<!-- Node31&#45;&gt;Node4 -->
<g id="edge71" class="edge">
<title>Node31&#45;&gt;Node4</title>
<path fill="none" stroke="midnightblue" d="M1106.32,-336.3C1123.49,-323.12 1157.73,-297.75 1189.18,-280 1211.4,-267.45 1237.78,-255.71 1257.86,-247.36"/>
<polygon fill="midnightblue" stroke="midnightblue" points="1259.23,-250.58 1267.16,-243.55 1256.58,-244.1 1259.23,-250.58"/>
</g>
<!-- Node31&#45;&gt;Node7 -->
<g id="edge70" class="edge">
<title>Node31&#45;&gt;Node7</title>
<path fill="none" stroke="midnightblue" d="M1093.72,-336.5C1088.8,-309.59 1070.73,-224.73 1030.18,-168 1021.73,-156.19 1009.52,-145.54 998.94,-137.57"/>
<polygon fill="midnightblue" stroke="midnightblue" points="1000.73,-134.54 990.57,-131.54 996.64,-140.22 1000.73,-134.54"/>
</g>
<!-- Node31&#45;&gt;Node32 -->
<g id="edge72" class="edge">
<title>Node31&#45;&gt;Node32</title>
<path fill="none" stroke="midnightblue" d="M1119.26,-336.44C1144.72,-327.4 1185.07,-313.06 1213.64,-302.92"/>
<polygon fill="midnightblue" stroke="midnightblue" points="1214.95,-306.16 1223.21,-299.52 1212.61,-299.57 1214.95,-306.16"/>
</g>
<!-- Node32&#45;&gt;Node4 -->
<g id="edge73" class="edge">
<title>Node32&#45;&gt;Node4</title>
<path fill="none" stroke="midnightblue" d="M1254.11,-280.08C1260.11,-272.38 1268.93,-261.03 1276.23,-251.65"/>
<polygon fill="midnightblue" stroke="midnightblue" points="1278.99,-253.79 1282.37,-243.75 1273.47,-249.5 1278.99,-253.79"/>
</g>
<!-- Node32&#45;&gt;Node8 -->
<g id="edge75" class="edge">
<title>Node32&#45;&gt;Node8</title>
<path fill="none" stroke="midnightblue" d="M1290.8,-280.49C1339.78,-268.56 1417.93,-241.99 1460.18,-188 1481.3,-161.01 1481.2,-145.32 1473.18,-112 1470.87,-102.42 1466.16,-92.58 1461.6,-84.56"/>
<polygon fill="midnightblue" stroke="midnightblue" points="1464.47,-82.54 1456.28,-75.81 1458.49,-86.17 1464.47,-82.54"/>
</g>
<!-- Node32&#45;&gt;Node13 -->
<g id="edge74" class="edge">
<title>Node32&#45;&gt;Node13</title>
<path fill="none" stroke="midnightblue" d="M1207.25,-280.44C1160.96,-270.52 1084.99,-254.24 1037.64,-244.1"/>
<polygon fill="midnightblue" stroke="midnightblue" points="1038.22,-240.64 1027.71,-241.97 1036.75,-247.49 1038.22,-240.64"/>
</g>
<!-- Node33&#45;&gt;Node3 -->
<g id="edge81" class="edge">
<title>Node33&#45;&gt;Node3</title>
<path fill="none" stroke="midnightblue" d="M1706.59,-117.98C1517.41,-108.23 925.61,-77.74 760.39,-69.23"/>
<polygon fill="midnightblue" stroke="midnightblue" points="760.31,-65.72 750.14,-68.7 759.94,-72.71 760.31,-65.72"/>
</g>
<!-- Node33&#45;&gt;Node8 -->
<g id="edge83" class="edge">
<title>Node33&#45;&gt;Node8</title>
<path fill="none" stroke="midnightblue" d="M1715.27,-112.44C1659.18,-102.83 1568.23,-87.24 1508.81,-77.05"/>
<polygon fill="midnightblue" stroke="midnightblue" points="1509.27,-73.58 1498.82,-75.34 1508.09,-80.48 1509.27,-73.58"/>
</g>
<!-- Node34 -->
<g id="node34" class="node">
<title>Node34</title>
<g id="a_node34"><a xlink:title=" ">
<polygon fill="none" stroke="#bfbfbf" points="1738.68,-56.5 1738.68,-75.5 1791.68,-75.5 1791.68,-56.5 1738.68,-56.5"/>
<text text-anchor="middle" x="1765.18" y="-63.5" font-family="Helvetica,sans-Serif" font-size="10.00">stdlib.h</text>
</a>
</g>
</g>
<!-- Node33&#45;&gt;Node34 -->
<g id="edge82" class="edge">
<title>Node33&#45;&gt;Node34</title>
<path fill="none" stroke="midnightblue" d="M1765.18,-112.08C1765.18,-105.01 1765.18,-94.86 1765.18,-85.99"/>
<polygon fill="midnightblue" stroke="midnightblue" points="1768.68,-85.75 1765.18,-75.75 1761.68,-85.75 1768.68,-85.75"/>
</g>
</g>
</svg>
