<?xml version="1.0" encoding="UTF-8" standalone="no"?>
<!DOCTYPE svg PUBLIC "-//W3C//DTD SVG 1.1//EN"
 "http://www.w3.org/Graphics/SVG/1.1/DTD/svg11.dtd">
<!-- Generated by graphviz version 2.43.0 (0)
 -->
<!-- Title: VortexEngine/src/Time/Timer.cpp Pages: 1 -->
<!--zoomable 487 -->
<svg id="main" version="1.1" xmlns="http://www.w3.org/2000/svg" xmlns:xlink="http://www.w3.org/1999/xlink" xml:space="preserve" onload="init(evt)">
<style type="text/css"><![CDATA[
.edge:hover path { stroke: red; }
.edge:hover polygon { stroke: red; fill: red; }
]]></style>
<script type="text/javascript"><![CDATA[
var edges = document.getElementsByTagName('g');
if (edges && edges.length) {
  for (var i=0;i<edges.length;i++) {
    if (edges[i].id.substr(0,4)=='edge') {
      edges[i].setAttribute('class','edge');
    }
  }
}
]]></script>
        <defs>
                <circle id="rim" cx="0" cy="0" r="7"/>
                <circle id="rim2" cx="0" cy="0" r="3.5"/>
                <g id="zoomPlus">
                        <use xlink:href="#rim" target="_top" fill="#404040">
                                <set attributeName="fill" to="#808080" begin="zoomplus.mouseover" end="zoomplus.mouseout"/>
                        </use>
                        <path d="M-4,0h8M0,-4v8" fill="none" stroke="white" stroke-width="1.5" pointer-events="none"/>
                </g>
                <g id="zoomMin">
                        <use xlink:href="#rim" target="_top" fill="#404040">
                                <set attributeName="fill" to="#808080" begin="zoomminus.mouseover" end="zoomminus.mouseout"/>
                        </use>
                        <path d="M-4,0h8" fill="none" stroke="white" stroke-width="1.5" pointer-events="none"/>
                </g>
                <g id="dirArrow">
                        <path fill="none" stroke="white" stroke-width="1.5" d="M0,-3.0v7 M-2.5,-0.5L0,-3.0L2.5,-0.5"/>
                </g>
               <g id="resetDef">
                       <use xlink:href="#rim2" target="_top" fill="#404040">
                               <set attributeName="fill" to="#808080" begin="reset.mouseover" end="reset.mouseout"/>
                       </use>
               </g>
        </defs>

<script type="text/javascript">
var viewWidth = 1734;
var viewHeight = 487;
var sectionId = 'dynsection-0';
</script>
<script xlink:href="svgpan.js" target="_top"/>
<svg id="graph" class="graph">
<g id="viewport">
<title>VortexEngine/src/Time/Timer.cpp</title>
<!-- Node1 -->
<g id="node1" class="node">
<title>Node1</title>
<g id="a_node1"><a xlink:title=" ">
<polygon fill="#bfbfbf" stroke="black" points="1272,-448.5 1272,-478.5 1398,-478.5 1398,-448.5 1272,-448.5"/>
<text text-anchor="start" x="1280" y="-466.5" font-family="Helvetica,sans-Serif" font-size="10.00">VortexEngine/src/Time</text>
<text text-anchor="middle" x="1335" y="-455.5" font-family="Helvetica,sans-Serif" font-size="10.00">/Timer.cpp</text>
</a>
</g>
</g>
<!-- Node2 -->
<g id="node2" class="node">
<title>Node2</title>
<g id="a_node2"><a xlink:href="Timer_8h.html" target="_top" target="_top" xlink:title=" ">
<polygon fill="none" stroke="black" points="80.5,-280.5 80.5,-299.5 133.5,-299.5 133.5,-280.5 80.5,-280.5"/>
<text text-anchor="middle" x="107" y="-287.5" font-family="Helvetica,sans-Serif" font-size="10.00">Timer.h</text>
</a>
</g>
</g>
<!-- Node1&#45;&gt;Node2 -->
<g id="edge1" class="edge">
<title>Node1&#45;&gt;Node2</title>
<path fill="none" stroke="midnightblue" d="M1271.97,-461.95C1030.94,-459.19 177.08,-443.27 97,-356 85.46,-343.42 90.81,-323.37 97.26,-308.86"/>
<polygon fill="midnightblue" stroke="midnightblue" points="100.41,-310.38 101.7,-299.86 94.13,-307.28 100.41,-310.38"/>
</g>
<!-- Node11 -->
<g id="node11" class="node">
<title>Node11</title>
<g id="a_node11"><a xlink:href="VortexEngine_8h.html" target="_top" target="_top" xlink:title=" ">
<polygon fill="none" stroke="black" points="916.5,-392.5 916.5,-411.5 1015.5,-411.5 1015.5,-392.5 916.5,-392.5"/>
<text text-anchor="middle" x="966" y="-399.5" font-family="Helvetica,sans-Serif" font-size="10.00">../VortexEngine.h</text>
</a>
</g>
</g>
<!-- Node1&#45;&gt;Node11 -->
<g id="edge16" class="edge">
<title>Node1&#45;&gt;Node11</title>
<path fill="none" stroke="midnightblue" d="M1271.99,-452.34C1203.07,-441.23 1093.44,-423.55 1025.81,-412.64"/>
<polygon fill="midnightblue" stroke="midnightblue" points="1026.17,-409.16 1015.74,-411.02 1025.06,-416.07 1026.17,-409.16"/>
</g>
<!-- Node19 -->
<g id="node19" class="node">
<title>Node19</title>
<g id="a_node19"><a xlink:href="Log_8h.html" target="_top" target="_top" xlink:title=" ">
<polygon fill="none" stroke="black" points="1290,-112.5 1290,-131.5 1362,-131.5 1362,-112.5 1290,-112.5"/>
<text text-anchor="middle" x="1326" y="-119.5" font-family="Helvetica,sans-Serif" font-size="10.00">../Log/Log.h</text>
</a>
</g>
</g>
<!-- Node1&#45;&gt;Node19 -->
<g id="edge81" class="edge">
<title>Node1&#45;&gt;Node19</title>
<path fill="none" stroke="midnightblue" d="M1370.25,-448.33C1413.57,-428.42 1479.56,-388.64 1464,-336 1439.59,-253.42 1372.02,-172.79 1341.42,-139.26"/>
<polygon fill="midnightblue" stroke="midnightblue" points="1343.85,-136.73 1334.48,-131.77 1338.71,-141.49 1343.85,-136.73"/>
</g>
<!-- Node26 -->
<g id="node26" class="node">
<title>Node26</title>
<g id="a_node26"><a xlink:href="TimeControl_8h.html" target="_top" target="_top" xlink:title=" ">
<polygon fill="none" stroke="black" points="1287.5,-280.5 1287.5,-299.5 1400.5,-299.5 1400.5,-280.5 1287.5,-280.5"/>
<text text-anchor="middle" x="1344" y="-287.5" font-family="Helvetica,sans-Serif" font-size="10.00">Time/TimeControl.h</text>
</a>
</g>
</g>
<!-- Node1&#45;&gt;Node26 -->
<g id="edge76" class="edge">
<title>Node1&#45;&gt;Node26</title>
<path fill="none" stroke="midnightblue" d="M1335.74,-448.47C1337.35,-417.7 1341.2,-344.33 1343.02,-309.7"/>
<polygon fill="midnightblue" stroke="midnightblue" points="1346.52,-309.73 1343.55,-299.56 1339.53,-309.36 1346.52,-309.73"/>
</g>
<!-- Node32 -->
<g id="node32" class="node">
<title>Node32</title>
<g id="a_node32"><a xlink:href="Memory_8h.html" target="_top" target="_top" xlink:title=" ">
<polygon fill="none" stroke="black" points="1608.5,-112.5 1608.5,-131.5 1725.5,-131.5 1725.5,-112.5 1608.5,-112.5"/>
<text text-anchor="middle" x="1667" y="-119.5" font-family="Helvetica,sans-Serif" font-size="10.00">../Memory/Memory.h</text>
</a>
</g>
</g>
<!-- Node1&#45;&gt;Node32 -->
<g id="edge77" class="edge">
<title>Node1&#45;&gt;Node32</title>
<path fill="none" stroke="midnightblue" d="M1398.24,-451.91C1488.11,-435.04 1642,-398.61 1642,-347 1642,-347 1642,-347 1642,-233 1642,-200 1652.83,-162.77 1660.24,-141.19"/>
<polygon fill="midnightblue" stroke="midnightblue" points="1663.57,-142.28 1663.63,-131.69 1656.97,-139.93 1663.57,-142.28"/>
</g>
<!-- Node3 -->
<g id="node3" class="node">
<title>Node3</title>
<g id="a_node3"><a xlink:title=" ">
<polygon fill="none" stroke="#bfbfbf" points="681.5,-56.5 681.5,-75.5 746.5,-75.5 746.5,-56.5 681.5,-56.5"/>
<text text-anchor="middle" x="714" y="-63.5" font-family="Helvetica,sans-Serif" font-size="10.00">inttypes.h</text>
</a>
</g>
</g>
<!-- Node2&#45;&gt;Node3 -->
<g id="edge2" class="edge">
<title>Node2&#45;&gt;Node3</title>
<path fill="none" stroke="midnightblue" d="M107.42,-280.09C109.36,-250.42 119.97,-154.37 177,-112 216.32,-82.79 550.7,-71.26 671.06,-68.03"/>
<polygon fill="midnightblue" stroke="midnightblue" points="671.45,-71.52 681.35,-67.76 671.27,-64.52 671.45,-71.52"/>
</g>
<!-- Node4 -->
<g id="node4" class="node">
<title>Node4</title>
<g id="a_node4"><a xlink:href="LedTypes_8h.html" target="_top" target="_top" xlink:title=" ">
<polygon fill="none" stroke="black" points="1087.5,-224.5 1087.5,-243.5 1192.5,-243.5 1192.5,-224.5 1087.5,-224.5"/>
<text text-anchor="middle" x="1140" y="-231.5" font-family="Helvetica,sans-Serif" font-size="10.00">../Leds/LedTypes.h</text>
</a>
</g>
</g>
<!-- Node2&#45;&gt;Node4 -->
<g id="edge3" class="edge">
<title>Node2&#45;&gt;Node4</title>
<path fill="none" stroke="midnightblue" d="M133.62,-281.7C136.76,-281.03 139.94,-280.44 143,-280 537.5,-223.37 641.29,-269.69 1039,-244 1051.41,-243.2 1064.65,-242.15 1077.33,-241.06"/>
<polygon fill="midnightblue" stroke="midnightblue" points="1077.7,-244.54 1087.36,-240.18 1077.09,-237.57 1077.7,-244.54"/>
</g>
<!-- Node4&#45;&gt;Node3 -->
<g id="edge4" class="edge">
<title>Node4&#45;&gt;Node3</title>
<path fill="none" stroke="midnightblue" d="M1121.77,-224.48C1064.4,-197.68 890.56,-116.59 878,-112 837.54,-97.22 789.92,-84.67 756.45,-76.61"/>
<polygon fill="midnightblue" stroke="midnightblue" points="757.08,-73.16 746.55,-74.25 755.47,-79.97 757.08,-73.16"/>
</g>
<!-- Node5 -->
<g id="node5" class="node">
<title>Node5</title>
<g id="a_node5"><a xlink:title=" ">
<polygon fill="none" stroke="#bfbfbf" points="1250,-56.5 1250,-75.5 1306,-75.5 1306,-56.5 1250,-56.5"/>
<text text-anchor="middle" x="1278" y="-63.5" font-family="Helvetica,sans-Serif" font-size="10.00">stdarg.h</text>
</a>
</g>
</g>
<!-- Node4&#45;&gt;Node5 -->
<g id="edge5" class="edge">
<title>Node4&#45;&gt;Node5</title>
<path fill="none" stroke="midnightblue" d="M1150.69,-224.24C1161.01,-215.54 1176.82,-201.59 1189,-188 1220.05,-153.38 1251.03,-108.28 1266.97,-84.1"/>
<polygon fill="midnightblue" stroke="midnightblue" points="1269.95,-85.93 1272.49,-75.65 1264.09,-82.1 1269.95,-85.93"/>
</g>
<!-- Node6 -->
<g id="node6" class="node">
<title>Node6</title>
<g id="a_node6"><a xlink:href="Leds_8h.html" target="_top" target="_top" xlink:title=" ">
<polygon fill="none" stroke="black" points="1097.5,-168.5 1097.5,-187.5 1180.5,-187.5 1180.5,-168.5 1097.5,-168.5"/>
<text text-anchor="middle" x="1139" y="-175.5" font-family="Helvetica,sans-Serif" font-size="10.00">../Leds/Leds.h</text>
</a>
</g>
</g>
<!-- Node4&#45;&gt;Node6 -->
<g id="edge6" class="edge">
<title>Node4&#45;&gt;Node6</title>
<path fill="none" stroke="midnightblue" d="M1139.83,-224.08C1139.7,-217.01 1139.52,-206.86 1139.35,-197.99"/>
<polygon fill="midnightblue" stroke="midnightblue" points="1142.85,-197.68 1139.16,-187.75 1135.85,-197.81 1142.85,-197.68"/>
</g>
<!-- Node8 -->
<g id="node8" class="node">
<title>Node8</title>
<g id="a_node8"><a xlink:href="VortexConfig_8h.html" target="_top" target="_top" xlink:title=" ">
<polygon fill="none" stroke="black" points="1360.5,-56.5 1360.5,-75.5 1457.5,-75.5 1457.5,-56.5 1360.5,-56.5"/>
<text text-anchor="middle" x="1409" y="-63.5" font-family="Helvetica,sans-Serif" font-size="10.00">../VortexConfig.h</text>
</a>
</g>
</g>
<!-- Node4&#45;&gt;Node8 -->
<g id="edge15" class="edge">
<title>Node4&#45;&gt;Node8</title>
<path fill="none" stroke="midnightblue" d="M1175.2,-224.49C1240.36,-207.99 1375.71,-169.9 1404,-132 1413.83,-118.83 1414.12,-99.69 1412.52,-85.59"/>
<polygon fill="midnightblue" stroke="midnightblue" points="1415.96,-84.93 1410.99,-75.57 1409.04,-85.99 1415.96,-84.93"/>
</g>
<!-- Node6&#45;&gt;Node3 -->
<g id="edge7" class="edge">
<title>Node6&#45;&gt;Node3</title>
<path fill="none" stroke="midnightblue" d="M1132.08,-168.48C1119.84,-154.09 1092.83,-125.25 1063,-112 1009.03,-88.04 837.55,-74.6 756.81,-69.46"/>
<polygon fill="midnightblue" stroke="midnightblue" points="756.71,-65.95 746.51,-68.82 756.27,-72.93 756.71,-65.95"/>
</g>
<!-- Node7 -->
<g id="node7" class="node">
<title>Node7</title>
<g id="a_node7"><a xlink:href="ColorTypes_8h.html" target="_top" target="_top" xlink:title=" ">
<polygon fill="none" stroke="black" points="932,-112.5 932,-131.5 1054,-131.5 1054,-112.5 932,-112.5"/>
<text text-anchor="middle" x="993" y="-119.5" font-family="Helvetica,sans-Serif" font-size="10.00">../Colors/ColorTypes.h</text>
</a>
</g>
</g>
<!-- Node6&#45;&gt;Node7 -->
<g id="edge8" class="edge">
<title>Node6&#45;&gt;Node7</title>
<path fill="none" stroke="midnightblue" d="M1115.87,-168.44C1091.52,-159.44 1052.99,-145.19 1025.58,-135.05"/>
<polygon fill="midnightblue" stroke="midnightblue" points="1026.62,-131.7 1016.03,-131.52 1024.19,-138.27 1026.62,-131.7"/>
</g>
<!-- Node6&#45;&gt;Node8 -->
<g id="edge13" class="edge">
<title>Node6&#45;&gt;Node8</title>
<path fill="none" stroke="midnightblue" d="M1156.27,-168.48C1182.77,-155.53 1235.24,-130.47 1281,-112 1311.47,-99.7 1346.73,-87.45 1372.52,-78.84"/>
<polygon fill="midnightblue" stroke="midnightblue" points="1373.87,-82.08 1382.26,-75.61 1371.67,-75.43 1373.87,-82.08"/>
</g>
<!-- Node10 -->
<g id="node10" class="node">
<title>Node10</title>
<g id="a_node10"><a xlink:title=" ">
<polygon fill="none" stroke="#bfbfbf" points="1110.5,-112.5 1110.5,-131.5 1157.5,-131.5 1157.5,-112.5 1110.5,-112.5"/>
<text text-anchor="middle" x="1134" y="-119.5" font-family="Helvetica,sans-Serif" font-size="10.00">vector</text>
</a>
</g>
</g>
<!-- Node6&#45;&gt;Node10 -->
<g id="edge14" class="edge">
<title>Node6&#45;&gt;Node10</title>
<path fill="none" stroke="midnightblue" d="M1138.17,-168.08C1137.52,-161.01 1136.58,-150.86 1135.76,-141.99"/>
<polygon fill="midnightblue" stroke="midnightblue" points="1139.22,-141.39 1134.81,-131.75 1132.25,-142.03 1139.22,-141.39"/>
</g>
<!-- Node7&#45;&gt;Node3 -->
<g id="edge9" class="edge">
<title>Node7&#45;&gt;Node3</title>
<path fill="none" stroke="midnightblue" d="M948.79,-112.44C896.07,-102.24 808.56,-85.3 756.57,-75.24"/>
<polygon fill="midnightblue" stroke="midnightblue" points="757.15,-71.79 746.67,-73.32 755.82,-78.66 757.15,-71.79"/>
</g>
<!-- Node7&#45;&gt;Node8 -->
<g id="edge10" class="edge">
<title>Node7&#45;&gt;Node8</title>
<path fill="none" stroke="midnightblue" d="M1054.38,-113.03C1133.98,-102.7 1271.86,-84.8 1350.18,-74.63"/>
<polygon fill="midnightblue" stroke="midnightblue" points="1350.9,-78.07 1360.36,-73.31 1350,-71.13 1350.9,-78.07"/>
</g>
<!-- Node9 -->
<g id="node9" class="node">
<title>Node9</title>
<g id="a_node9"><a xlink:href="ColorConstants_8h.html" target="_top" target="_top" xlink:title=" ">
<polygon fill="none" stroke="black" points="1223,-0.5 1223,-19.5 1357,-19.5 1357,-0.5 1223,-0.5"/>
<text text-anchor="middle" x="1290" y="-7.5" font-family="Helvetica,sans-Serif" font-size="10.00">Colors/ColorConstants.h</text>
</a>
</g>
</g>
<!-- Node7&#45;&gt;Node9 -->
<g id="edge12" class="edge">
<title>Node7&#45;&gt;Node9</title>
<path fill="none" stroke="midnightblue" d="M1016.31,-112.37C1068.9,-92.89 1196.91,-45.48 1257.36,-23.09"/>
<polygon fill="midnightblue" stroke="midnightblue" points="1258.64,-26.35 1266.8,-19.59 1256.21,-19.78 1258.64,-26.35"/>
</g>
<!-- Node8&#45;&gt;Node9 -->
<g id="edge11" class="edge">
<title>Node8&#45;&gt;Node9</title>
<path fill="none" stroke="midnightblue" d="M1390.14,-56.44C1370.73,-47.64 1340.27,-33.81 1318.04,-23.72"/>
<polygon fill="midnightblue" stroke="midnightblue" points="1319.32,-20.46 1308.77,-19.52 1316.43,-26.84 1319.32,-20.46"/>
</g>
<!-- Node11&#45;&gt;Node3 -->
<g id="edge17" class="edge">
<title>Node11&#45;&gt;Node3</title>
<path fill="none" stroke="midnightblue" d="M916.45,-397.73C768.73,-386.86 336.26,-346.69 249,-244 207.62,-195.3 247.41,-137.5 306,-112 370.82,-83.79 580.21,-72.28 671.17,-68.52"/>
<polygon fill="midnightblue" stroke="midnightblue" points="671.55,-72.01 681.4,-68.12 671.27,-65.02 671.55,-72.01"/>
</g>
<!-- Node11&#45;&gt;Node6 -->
<g id="edge74" class="edge">
<title>Node11&#45;&gt;Node6</title>
<path fill="none" stroke="midnightblue" d="M1015.56,-398.18C1075.13,-391.65 1170.85,-370.18 1201,-300 1214.33,-268.96 1216.34,-254.09 1201,-224 1194,-210.27 1180.63,-199.75 1168.1,-192.35"/>
<polygon fill="midnightblue" stroke="midnightblue" points="1169.68,-189.22 1159.22,-187.51 1166.33,-195.37 1169.68,-189.22"/>
</g>
<!-- Node11&#45;&gt;Node8 -->
<g id="edge18" class="edge">
<title>Node11&#45;&gt;Node8</title>
<path fill="none" stroke="midnightblue" d="M1015.57,-399.15C1124.41,-394.67 1381.18,-381.66 1464,-356 1520.45,-338.51 1580,-350.1 1580,-291 1580,-291 1580,-291 1580,-177 1580,-120.74 1513.72,-91.9 1463.69,-78.14"/>
<polygon fill="midnightblue" stroke="midnightblue" points="1464.49,-74.73 1453.93,-75.58 1462.72,-81.5 1464.49,-74.73"/>
</g>
<!-- Node12 -->
<g id="node12" class="node">
<title>Node12</title>
<g id="a_node12"><a xlink:href="PatternBuilder_8h.html" target="_top" target="_top" xlink:title=" ">
<polygon fill="none" stroke="black" points="825.5,-280.5 825.5,-299.5 962.5,-299.5 962.5,-280.5 825.5,-280.5"/>
<text text-anchor="middle" x="894" y="-287.5" font-family="Helvetica,sans-Serif" font-size="10.00">Patterns/PatternBuilder.h</text>
</a>
</g>
</g>
<!-- Node11&#45;&gt;Node12 -->
<g id="edge19" class="edge">
<title>Node11&#45;&gt;Node12</title>
<path fill="none" stroke="midnightblue" d="M960.35,-392.37C948.47,-374.22 920.71,-331.8 905.12,-307.99"/>
<polygon fill="midnightblue" stroke="midnightblue" points="908.03,-306.04 899.62,-299.59 902.17,-309.88 908.03,-306.04"/>
</g>
<!-- Node14 -->
<g id="node14" class="node">
<title>Node14</title>
<g id="a_node14"><a xlink:href="IRReceiver_8h.html" target="_top" target="_top" xlink:title=" ">
<polygon fill="none" stroke="black" points="274,-224.5 274,-243.5 396,-243.5 396,-224.5 274,-224.5"/>
<text text-anchor="middle" x="335" y="-231.5" font-family="Helvetica,sans-Serif" font-size="10.00">Wireless/IRReceiver.h</text>
</a>
</g>
</g>
<!-- Node11&#45;&gt;Node14 -->
<g id="edge22" class="edge">
<title>Node11&#45;&gt;Node14</title>
<path fill="none" stroke="midnightblue" d="M916.27,-396.05C858.41,-389.64 760.31,-376.76 678,-356 559.06,-326 423.12,-271.85 364.47,-247.48"/>
<polygon fill="midnightblue" stroke="midnightblue" points="365.66,-244.19 355.09,-243.56 362.97,-250.65 365.66,-244.19"/>
</g>
<!-- Node17 -->
<g id="node17" class="node">
<title>Node17</title>
<g id="a_node17"><a xlink:href="IRSender_8h.html" target="_top" target="_top" xlink:title=" ">
<polygon fill="none" stroke="black" points="414.5,-224.5 414.5,-243.5 527.5,-243.5 527.5,-224.5 414.5,-224.5"/>
<text text-anchor="middle" x="471" y="-231.5" font-family="Helvetica,sans-Serif" font-size="10.00">Wireless/IRSender.h</text>
</a>
</g>
</g>
<!-- Node11&#45;&gt;Node17 -->
<g id="edge27" class="edge">
<title>Node11&#45;&gt;Node17</title>
<path fill="none" stroke="midnightblue" d="M916.48,-394.82C869.11,-388.11 796.07,-375.63 735,-356 642.91,-326.39 540.58,-273.2 495.07,-248.41"/>
<polygon fill="midnightblue" stroke="midnightblue" points="496.7,-245.31 486.25,-243.57 493.33,-251.44 496.7,-245.31"/>
</g>
<!-- Node11&#45;&gt;Node19 -->
<g id="edge75" class="edge">
<title>Node11&#45;&gt;Node19</title>
<path fill="none" stroke="midnightblue" d="M1015.53,-400.54C1061.36,-397.93 1129.66,-388.28 1179,-356 1260.71,-302.54 1305.59,-186.15 1320.41,-141.21"/>
<polygon fill="midnightblue" stroke="midnightblue" points="1323.76,-142.22 1323.47,-131.63 1317.09,-140.09 1323.76,-142.22"/>
</g>
<!-- Node20 -->
<g id="node20" class="node">
<title>Node20</title>
<g id="a_node20"><a xlink:href="VLReceiver_8h.html" target="_top" target="_top" xlink:title=" ">
<polygon fill="none" stroke="black" points="545.5,-224.5 545.5,-243.5 670.5,-243.5 670.5,-224.5 545.5,-224.5"/>
<text text-anchor="middle" x="608" y="-231.5" font-family="Helvetica,sans-Serif" font-size="10.00">Wireless/VLReceiver.h</text>
</a>
</g>
</g>
<!-- Node11&#45;&gt;Node20 -->
<g id="edge35" class="edge">
<title>Node11&#45;&gt;Node20</title>
<path fill="none" stroke="midnightblue" d="M916.1,-394.88C876.26,-388.71 819.75,-376.98 774,-356 713.22,-328.12 652.43,-276.18 624.24,-250.37"/>
<polygon fill="midnightblue" stroke="midnightblue" points="626.59,-247.77 616.88,-243.54 621.83,-252.91 626.59,-247.77"/>
</g>
<!-- Node22 -->
<g id="node22" class="node">
<title>Node22</title>
<g id="a_node22"><a xlink:href="VLSender_8h.html" target="_top" target="_top" xlink:title=" ">
<polygon fill="none" stroke="black" points="689,-224.5 689,-243.5 805,-243.5 805,-224.5 689,-224.5"/>
<text text-anchor="middle" x="747" y="-231.5" font-family="Helvetica,sans-Serif" font-size="10.00">Wireless/VLSender.h</text>
</a>
</g>
</g>
<!-- Node11&#45;&gt;Node22 -->
<g id="edge40" class="edge">
<title>Node11&#45;&gt;Node22</title>
<path fill="none" stroke="midnightblue" d="M916.26,-399.79C878.5,-396.34 827.52,-385.89 794,-356 763.81,-329.09 752.85,-280.45 749,-253.77"/>
<polygon fill="midnightblue" stroke="midnightblue" points="752.43,-253 747.71,-243.51 745.48,-253.87 752.43,-253"/>
</g>
<!-- Node23 -->
<g id="node23" class="node">
<title>Node23</title>
<g id="a_node23"><a xlink:href="Storage_8h.html" target="_top" target="_top" xlink:title=" ">
<polygon fill="none" stroke="black" points="0,-112.5 0,-131.5 104,-131.5 104,-112.5 0,-112.5"/>
<text text-anchor="middle" x="52" y="-119.5" font-family="Helvetica,sans-Serif" font-size="10.00">Storage/Storage.h</text>
</a>
</g>
</g>
<!-- Node11&#45;&gt;Node23 -->
<g id="edge44" class="edge">
<title>Node11&#45;&gt;Node23</title>
<path fill="none" stroke="midnightblue" d="M916.32,-400.96C742.54,-400.49 168.55,-395.88 97,-356 66.31,-338.89 52,-326.14 52,-291 52,-291 52,-291 52,-233 52,-200.95 52,-163.64 52,-141.75"/>
<polygon fill="midnightblue" stroke="midnightblue" points="55.5,-141.56 52,-131.56 48.5,-141.56 55.5,-141.56"/>
</g>
<!-- Node24 -->
<g id="node24" class="node">
<title>Node24</title>
<g id="a_node24"><a xlink:href="Buttons_8h.html" target="_top" target="_top" xlink:title=" ">
<polygon fill="none" stroke="black" points="106,-336.5 106,-355.5 210,-355.5 210,-336.5 106,-336.5"/>
<text text-anchor="middle" x="158" y="-343.5" font-family="Helvetica,sans-Serif" font-size="10.00">Buttons/Buttons.h</text>
</a>
</g>
</g>
<!-- Node11&#45;&gt;Node24 -->
<g id="edge46" class="edge">
<title>Node11&#45;&gt;Node24</title>
<path fill="none" stroke="midnightblue" d="M916.4,-399.28C796.98,-394.85 484.08,-381.58 224,-356 222.74,-355.88 221.46,-355.75 220.18,-355.61"/>
<polygon fill="midnightblue" stroke="midnightblue" points="220.53,-352.13 210.2,-354.49 219.74,-359.08 220.53,-352.13"/>
</g>
<!-- Node11&#45;&gt;Node26 -->
<g id="edge49" class="edge">
<title>Node11&#45;&gt;Node26</title>
<path fill="none" stroke="midnightblue" d="M1015.79,-397.27C1090.73,-391.06 1228.48,-377.15 1273,-356 1296.47,-344.85 1317.62,-323.27 1330.61,-308.04"/>
<polygon fill="midnightblue" stroke="midnightblue" points="1333.63,-309.88 1337.28,-299.93 1328.22,-305.43 1333.63,-309.88"/>
</g>
<!-- Node27 -->
<g id="node27" class="node">
<title>Node27</title>
<g id="a_node27"><a xlink:href="Timings_8h.html" target="_top" target="_top" xlink:title=" ">
<polygon fill="none" stroke="black" points="1363,-336.5 1363,-355.5 1455,-355.5 1455,-336.5 1363,-336.5"/>
<text text-anchor="middle" x="1409" y="-343.5" font-family="Helvetica,sans-Serif" font-size="10.00">Time/Timings.h</text>
</a>
</g>
</g>
<!-- Node11&#45;&gt;Node27 -->
<g id="edge53" class="edge">
<title>Node11&#45;&gt;Node27</title>
<path fill="none" stroke="midnightblue" d="M1015.53,-394.96C1098.6,-384.84 1265.47,-364.5 1352.8,-353.85"/>
<polygon fill="midnightblue" stroke="midnightblue" points="1353.29,-357.32 1362.79,-352.63 1352.44,-350.37 1353.29,-357.32"/>
</g>
<!-- Node28 -->
<g id="node28" class="node">
<title>Node28</title>
<g id="a_node28"><a xlink:href="Serial_8h.html" target="_top" target="_top" xlink:title=" ">
<polygon fill="none" stroke="black" points="803,-336.5 803,-355.5 887,-355.5 887,-336.5 803,-336.5"/>
<text text-anchor="middle" x="845" y="-343.5" font-family="Helvetica,sans-Serif" font-size="10.00">Serial/Serial.h</text>
</a>
</g>
</g>
<!-- Node11&#45;&gt;Node28 -->
<g id="edge56" class="edge">
<title>Node11&#45;&gt;Node28</title>
<path fill="none" stroke="midnightblue" d="M946.83,-392.44C927.09,-383.64 896.11,-369.81 873.51,-359.72"/>
<polygon fill="midnightblue" stroke="midnightblue" points="874.64,-356.4 864.08,-355.52 871.79,-362.79 874.64,-356.4"/>
</g>
<!-- Node29 -->
<g id="node29" class="node">
<title>Node29</title>
<g id="a_node29"><a xlink:href="Modes_8h.html" target="_top" target="_top" xlink:title=" ">
<polygon fill="none" stroke="black" points="937.5,-224.5 937.5,-243.5 1030.5,-243.5 1030.5,-224.5 937.5,-224.5"/>
<text text-anchor="middle" x="984" y="-231.5" font-family="Helvetica,sans-Serif" font-size="10.00">Modes/Modes.h</text>
</a>
</g>
</g>
<!-- Node11&#45;&gt;Node29 -->
<g id="edge58" class="edge">
<title>Node11&#45;&gt;Node29</title>
<path fill="none" stroke="midnightblue" d="M966.97,-392.08C969.8,-365.95 978.12,-289.21 981.99,-253.58"/>
<polygon fill="midnightblue" stroke="midnightblue" points="985.47,-253.89 983.07,-243.57 978.51,-253.13 985.47,-253.89"/>
</g>
<!-- Node30 -->
<g id="node30" class="node">
<title>Node30</title>
<g id="a_node30"><a xlink:href="Menus_8h.html" target="_top" target="_top" xlink:title=" ">
<polygon fill="none" stroke="black" points="1019.5,-336.5 1019.5,-355.5 1112.5,-355.5 1112.5,-336.5 1019.5,-336.5"/>
<text text-anchor="middle" x="1066" y="-343.5" font-family="Helvetica,sans-Serif" font-size="10.00">Menus/Menus.h</text>
</a>
</g>
</g>
<!-- Node11&#45;&gt;Node30 -->
<g id="edge65" class="edge">
<title>Node11&#45;&gt;Node30</title>
<path fill="none" stroke="midnightblue" d="M982.07,-392.32C997.96,-383.74 1022.51,-370.49 1040.96,-360.52"/>
<polygon fill="midnightblue" stroke="midnightblue" points="1042.84,-363.49 1049.97,-355.65 1039.51,-357.33 1042.84,-363.49"/>
</g>
<!-- Node31 -->
<g id="node31" class="node">
<title>Node31</title>
<g id="a_node31"><a xlink:href="Mode_8h.html" target="_top" target="_top" xlink:title=" ">
<polygon fill="none" stroke="black" points="1095.5,-280.5 1095.5,-299.5 1192.5,-299.5 1192.5,-280.5 1095.5,-280.5"/>
<text text-anchor="middle" x="1144" y="-287.5" font-family="Helvetica,sans-Serif" font-size="10.00">../Modes/Mode.h</text>
</a>
</g>
</g>
<!-- Node11&#45;&gt;Node31 -->
<g id="edge73" class="edge">
<title>Node11&#45;&gt;Node31</title>
<path fill="none" stroke="midnightblue" d="M1015.79,-398.15C1049.42,-393.71 1092.68,-382.74 1121,-356 1133.76,-343.95 1139.45,-324.38 1141.98,-309.86"/>
<polygon fill="midnightblue" stroke="midnightblue" points="1145.45,-310.33 1143.37,-299.94 1138.52,-309.36 1145.45,-310.33"/>
</g>
<!-- Node13 -->
<g id="node13" class="node">
<title>Node13</title>
<g id="a_node13"><a xlink:href="Patterns_8h.html" target="_top" target="_top" xlink:title=" ">
<polygon fill="none" stroke="black" points="861.5,-168.5 861.5,-187.5 926.5,-187.5 926.5,-168.5 861.5,-168.5"/>
<text text-anchor="middle" x="894" y="-175.5" font-family="Helvetica,sans-Serif" font-size="10.00">Patterns.h</text>
</a>
</g>
</g>
<!-- Node12&#45;&gt;Node13 -->
<g id="edge20" class="edge">
<title>Node12&#45;&gt;Node13</title>
<path fill="none" stroke="midnightblue" d="M894,-280.37C894,-262.62 894,-221.67 894,-197.6"/>
<polygon fill="midnightblue" stroke="midnightblue" points="897.5,-197.59 894,-187.59 890.5,-197.59 897.5,-197.59"/>
</g>
<!-- Node13&#45;&gt;Node3 -->
<g id="edge21" class="edge">
<title>Node13&#45;&gt;Node3</title>
<path fill="none" stroke="midnightblue" d="M883.31,-168.4C866.84,-155.36 834,-130.17 804,-112 784.21,-100.01 760.8,-88.38 742.82,-79.95"/>
<polygon fill="midnightblue" stroke="midnightblue" points="743.99,-76.63 733.44,-75.61 741.05,-82.99 743.99,-76.63"/>
</g>
<!-- Node14&#45;&gt;Node3 -->
<g id="edge23" class="edge">
<title>Node14&#45;&gt;Node3</title>
<path fill="none" stroke="midnightblue" d="M331.47,-224.42C326.55,-210.94 319.55,-184.65 332,-168 372.84,-113.38 580.69,-82.68 671.48,-71.69"/>
<polygon fill="midnightblue" stroke="midnightblue" points="671.92,-75.16 681.43,-70.51 671.09,-68.21 671.92,-75.16"/>
</g>
<!-- Node15 -->
<g id="node15" class="node">
<title>Node15</title>
<g id="a_node15"><a xlink:href="BitStream_8h.html" target="_top" target="_top" xlink:title=" ">
<polygon fill="none" stroke="black" points="425,-168.5 425,-187.5 539,-187.5 539,-168.5 425,-168.5"/>
<text text-anchor="middle" x="482" y="-175.5" font-family="Helvetica,sans-Serif" font-size="10.00">../Serial/BitStream.h</text>
</a>
</g>
</g>
<!-- Node14&#45;&gt;Node15 -->
<g id="edge24" class="edge">
<title>Node14&#45;&gt;Node15</title>
<path fill="none" stroke="midnightblue" d="M358.29,-224.44C382.81,-215.44 421.6,-201.19 449.2,-191.05"/>
<polygon fill="midnightblue" stroke="midnightblue" points="450.64,-194.25 458.82,-187.52 448.22,-187.68 450.64,-194.25"/>
</g>
<!-- Node16 -->
<g id="node16" class="node">
<title>Node16</title>
<g id="a_node16"><a xlink:href="IRConfig_8h.html" target="_top" target="_top" xlink:title=" ">
<polygon fill="none" stroke="black" points="341,-168.5 341,-187.5 407,-187.5 407,-168.5 341,-168.5"/>
<text text-anchor="middle" x="374" y="-175.5" font-family="Helvetica,sans-Serif" font-size="10.00">IRConfig.h</text>
</a>
</g>
</g>
<!-- Node14&#45;&gt;Node16 -->
<g id="edge26" class="edge">
<title>Node14&#45;&gt;Node16</title>
<path fill="none" stroke="midnightblue" d="M341.44,-224.08C346.95,-216.46 355.03,-205.26 361.76,-195.94"/>
<polygon fill="midnightblue" stroke="midnightblue" points="364.66,-197.91 367.68,-187.75 358.99,-193.81 364.66,-197.91"/>
</g>
<!-- Node15&#45;&gt;Node3 -->
<g id="edge25" class="edge">
<title>Node15&#45;&gt;Node3</title>
<path fill="none" stroke="midnightblue" d="M488.93,-168.46C500.66,-154.57 525.83,-127.09 553,-112 590.25,-91.31 637.73,-79.55 671.45,-73.29"/>
<polygon fill="midnightblue" stroke="midnightblue" points="672.21,-76.71 681.45,-71.51 670.99,-69.81 672.21,-76.71"/>
</g>
<!-- Node17&#45;&gt;Node15 -->
<g id="edge33" class="edge">
<title>Node17&#45;&gt;Node15</title>
<path fill="none" stroke="midnightblue" d="M472.82,-224.08C474.27,-216.93 476.37,-206.64 478.19,-197.69"/>
<polygon fill="midnightblue" stroke="midnightblue" points="481.65,-198.25 480.22,-187.75 474.79,-196.85 481.65,-198.25"/>
</g>
<!-- Node17&#45;&gt;Node16 -->
<g id="edge34" class="edge">
<title>Node17&#45;&gt;Node16</title>
<path fill="none" stroke="midnightblue" d="M455.42,-224.32C440,-215.74 416.19,-202.49 398.29,-192.52"/>
<polygon fill="midnightblue" stroke="midnightblue" points="399.99,-189.46 389.55,-187.65 396.58,-195.58 399.99,-189.46"/>
</g>
<!-- Node18 -->
<g id="node18" class="node">
<title>Node18</title>
<g id="a_node18"><a xlink:href="ByteStream_8h.html" target="_top" target="_top" xlink:title=" ">
<polygon fill="none" stroke="black" points="681.5,-168.5 681.5,-187.5 804.5,-187.5 804.5,-168.5 681.5,-168.5"/>
<text text-anchor="middle" x="743" y="-175.5" font-family="Helvetica,sans-Serif" font-size="10.00">../Serial/ByteStream.h</text>
</a>
</g>
</g>
<!-- Node17&#45;&gt;Node18 -->
<g id="edge28" class="edge">
<title>Node17&#45;&gt;Node18</title>
<path fill="none" stroke="midnightblue" d="M514.1,-224.44C561.85,-214.96 638.86,-199.67 690.19,-189.48"/>
<polygon fill="midnightblue" stroke="midnightblue" points="690.98,-192.9 700.1,-187.52 689.61,-186.03 690.98,-192.9"/>
</g>
<!-- Node18&#45;&gt;Node3 -->
<g id="edge29" class="edge">
<title>Node18&#45;&gt;Node3</title>
<path fill="none" stroke="midnightblue" d="M740.72,-168.37C736.02,-150.54 725.15,-109.3 718.82,-85.27"/>
<polygon fill="midnightblue" stroke="midnightblue" points="722.2,-84.37 716.27,-75.59 715.43,-86.15 722.2,-84.37"/>
</g>
<!-- Node18&#45;&gt;Node19 -->
<g id="edge30" class="edge">
<title>Node18&#45;&gt;Node19</title>
<path fill="none" stroke="midnightblue" d="M804.56,-171.3C921.86,-160.43 1174.98,-136.99 1279.45,-127.31"/>
<polygon fill="midnightblue" stroke="midnightblue" points="1280.04,-130.77 1289.67,-126.36 1279.39,-123.8 1280.04,-130.77"/>
</g>
<!-- Node19&#45;&gt;Node5 -->
<g id="edge31" class="edge">
<title>Node19&#45;&gt;Node5</title>
<path fill="none" stroke="midnightblue" d="M1318.07,-112.08C1311.15,-104.3 1300.93,-92.8 1292.55,-83.37"/>
<polygon fill="midnightblue" stroke="midnightblue" points="1295.04,-80.9 1285.78,-75.75 1289.81,-85.55 1295.04,-80.9"/>
</g>
<!-- Node19&#45;&gt;Node8 -->
<g id="edge32" class="edge">
<title>Node19&#45;&gt;Node8</title>
<path fill="none" stroke="midnightblue" d="M1339.34,-112.32C1352.16,-103.98 1371.78,-91.21 1386.94,-81.35"/>
<polygon fill="midnightblue" stroke="midnightblue" points="1389.22,-84.04 1395.7,-75.65 1385.41,-78.17 1389.22,-84.04"/>
</g>
<!-- Node20&#45;&gt;Node3 -->
<g id="edge36" class="edge">
<title>Node20&#45;&gt;Node3</title>
<path fill="none" stroke="midnightblue" d="M600.86,-224.32C591.32,-211.59 576.65,-187.3 586,-168 606.48,-125.76 654.14,-95.86 685.18,-80.04"/>
<polygon fill="midnightblue" stroke="midnightblue" points="686.8,-83.14 694.22,-75.58 683.71,-76.86 686.8,-83.14"/>
</g>
<!-- Node20&#45;&gt;Node15 -->
<g id="edge37" class="edge">
<title>Node20&#45;&gt;Node15</title>
<path fill="none" stroke="midnightblue" d="M588.03,-224.44C567.39,-215.6 534.94,-201.69 511.37,-191.59"/>
<polygon fill="midnightblue" stroke="midnightblue" points="512.44,-188.24 501.87,-187.52 509.68,-194.67 512.44,-188.24"/>
</g>
<!-- Node21 -->
<g id="node21" class="node">
<title>Node21</title>
<g id="a_node21"><a xlink:href="VLConfig_8h.html" target="_top" target="_top" xlink:title=" ">
<polygon fill="none" stroke="black" points="595,-168.5 595,-187.5 663,-187.5 663,-168.5 595,-168.5"/>
<text text-anchor="middle" x="629" y="-175.5" font-family="Helvetica,sans-Serif" font-size="10.00">VLConfig.h</text>
</a>
</g>
</g>
<!-- Node20&#45;&gt;Node21 -->
<g id="edge38" class="edge">
<title>Node20&#45;&gt;Node21</title>
<path fill="none" stroke="midnightblue" d="M611.47,-224.08C614.31,-216.77 618.43,-206.18 621.96,-197.1"/>
<polygon fill="midnightblue" stroke="midnightblue" points="625.23,-198.34 625.6,-187.75 618.71,-195.8 625.23,-198.34"/>
</g>
<!-- Node21&#45;&gt;Node8 -->
<g id="edge39" class="edge">
<title>Node21&#45;&gt;Node8</title>
<path fill="none" stroke="midnightblue" d="M661.38,-168.44C715.26,-154.5 826.93,-126.97 923,-112 1095.87,-85.06 1140.81,-92.34 1315,-76 1326.36,-74.93 1338.49,-73.78 1350.14,-72.67"/>
<polygon fill="midnightblue" stroke="midnightblue" points="1350.59,-76.14 1360.22,-71.71 1349.93,-69.18 1350.59,-76.14"/>
</g>
<!-- Node22&#45;&gt;Node15 -->
<g id="edge42" class="edge">
<title>Node22&#45;&gt;Node15</title>
<path fill="none" stroke="midnightblue" d="M705.01,-224.44C658.59,-214.98 583.77,-199.74 533.76,-189.55"/>
<polygon fill="midnightblue" stroke="midnightblue" points="534.29,-186.08 523.79,-187.52 532.89,-192.94 534.29,-186.08"/>
</g>
<!-- Node22&#45;&gt;Node18 -->
<g id="edge41" class="edge">
<title>Node22&#45;&gt;Node18</title>
<path fill="none" stroke="midnightblue" d="M746.34,-224.08C745.82,-217.01 745.06,-206.86 744.41,-197.99"/>
<polygon fill="midnightblue" stroke="midnightblue" points="747.88,-197.47 743.65,-187.75 740.9,-197.98 747.88,-197.47"/>
</g>
<!-- Node22&#45;&gt;Node21 -->
<g id="edge43" class="edge">
<title>Node22&#45;&gt;Node21</title>
<path fill="none" stroke="midnightblue" d="M728.3,-224.44C709.06,-215.64 678.85,-201.81 656.8,-191.72"/>
<polygon fill="midnightblue" stroke="midnightblue" points="658.16,-188.5 647.61,-187.52 655.25,-194.86 658.16,-188.5"/>
</g>
<!-- Node23&#45;&gt;Node3 -->
<g id="edge45" class="edge">
<title>Node23&#45;&gt;Node3</title>
<path fill="none" stroke="midnightblue" d="M104.2,-113.59C108.86,-113.01 113.51,-112.47 118,-112 324.84,-90.11 573.17,-74.91 671.2,-69.34"/>
<polygon fill="midnightblue" stroke="midnightblue" points="671.52,-72.83 681.31,-68.78 671.13,-65.84 671.52,-72.83"/>
</g>
<!-- Node25 -->
<g id="node25" class="node">
<title>Node25</title>
<g id="a_node25"><a xlink:href="Button_8h.html" target="_top" target="_top" xlink:title=" ">
<polygon fill="none" stroke="black" points="152,-280.5 152,-299.5 210,-299.5 210,-280.5 152,-280.5"/>
<text text-anchor="middle" x="181" y="-287.5" font-family="Helvetica,sans-Serif" font-size="10.00">Button.h</text>
</a>
</g>
</g>
<!-- Node24&#45;&gt;Node25 -->
<g id="edge47" class="edge">
<title>Node24&#45;&gt;Node25</title>
<path fill="none" stroke="midnightblue" d="M161.8,-336.08C164.91,-328.77 169.42,-318.18 173.29,-309.1"/>
<polygon fill="midnightblue" stroke="midnightblue" points="176.57,-310.32 177.27,-299.75 170.13,-307.58 176.57,-310.32"/>
</g>
<!-- Node25&#45;&gt;Node3 -->
<g id="edge48" class="edge">
<title>Node25&#45;&gt;Node3</title>
<path fill="none" stroke="midnightblue" d="M178.31,-280.46C169.92,-251.95 147.46,-159.15 194,-112 227.25,-78.31 552.63,-69.64 671.12,-67.59"/>
<polygon fill="midnightblue" stroke="midnightblue" points="671.33,-71.08 681.27,-67.42 671.21,-64.09 671.33,-71.08"/>
</g>
<!-- Node26&#45;&gt;Node3 -->
<g id="edge50" class="edge">
<title>Node26&#45;&gt;Node3</title>
<path fill="none" stroke="midnightblue" d="M1338.56,-280.33C1319.32,-250.56 1251.13,-152.17 1166,-112 1094.09,-78.07 855.01,-69.67 756.74,-67.64"/>
<polygon fill="midnightblue" stroke="midnightblue" points="756.64,-64.13 746.58,-67.44 756.51,-71.13 756.64,-64.13"/>
</g>
<!-- Node26&#45;&gt;Node4 -->
<g id="edge52" class="edge">
<title>Node26&#45;&gt;Node4</title>
<path fill="none" stroke="midnightblue" d="M1311.68,-280.44C1276.61,-271.16 1220.5,-256.31 1182.04,-246.13"/>
<polygon fill="midnightblue" stroke="midnightblue" points="1182.74,-242.69 1172.17,-243.52 1180.94,-249.46 1182.74,-242.69"/>
</g>
<!-- Node26&#45;&gt;Node8 -->
<g id="edge51" class="edge">
<title>Node26&#45;&gt;Node8</title>
<path fill="none" stroke="midnightblue" d="M1361.16,-280.43C1375.91,-272.47 1397.08,-259.51 1412,-244 1452.37,-202.03 1464.31,-188.08 1480,-132 1482.4,-123.44 1484.28,-119.79 1480,-112 1472.11,-97.66 1457.51,-87.25 1443.6,-80.08"/>
<polygon fill="midnightblue" stroke="midnightblue" points="1444.7,-76.73 1434.16,-75.62 1441.71,-83.06 1444.7,-76.73"/>
</g>
<!-- Node27&#45;&gt;Node8 -->
<g id="edge55" class="edge">
<title>Node27&#45;&gt;Node8</title>
<path fill="none" stroke="midnightblue" d="M1435.91,-336.41C1474.78,-322.13 1542,-289.54 1542,-235 1542,-235 1542,-235 1542,-177 1542,-126.73 1484.87,-95.1 1445.5,-79.27"/>
<polygon fill="midnightblue" stroke="midnightblue" points="1446.5,-75.91 1435.91,-75.59 1443.99,-82.45 1446.5,-75.91"/>
</g>
<!-- Node27&#45;&gt;Node26 -->
<g id="edge54" class="edge">
<title>Node27&#45;&gt;Node26</title>
<path fill="none" stroke="midnightblue" d="M1398.56,-336.32C1388.85,-328.26 1374.18,-316.08 1362.5,-306.37"/>
<polygon fill="midnightblue" stroke="midnightblue" points="1364.56,-303.53 1354.63,-299.83 1360.09,-308.92 1364.56,-303.53"/>
</g>
<!-- Node28&#45;&gt;Node3 -->
<g id="edge57" class="edge">
<title>Node28&#45;&gt;Node3</title>
<path fill="none" stroke="midnightblue" d="M837.4,-336.44C830.34,-327.89 820.31,-314.04 816,-300 798.79,-243.9 835.8,-222.07 813,-168 797.1,-130.28 759.92,-98.86 735.93,-81.53"/>
<polygon fill="midnightblue" stroke="midnightblue" points="737.65,-78.46 727.45,-75.59 733.63,-84.19 737.65,-78.46"/>
</g>
<!-- Node29&#45;&gt;Node3 -->
<g id="edge64" class="edge">
<title>Node29&#45;&gt;Node3</title>
<path fill="none" stroke="midnightblue" d="M978.96,-224.07C971.01,-210.58 954.45,-184.83 935,-168 881.7,-121.86 803.81,-92.92 756.15,-78.39"/>
<polygon fill="midnightblue" stroke="midnightblue" points="757.04,-75 746.46,-75.5 755.04,-81.71 757.04,-75"/>
</g>
<!-- Node29&#45;&gt;Node6 -->
<g id="edge62" class="edge">
<title>Node29&#45;&gt;Node6</title>
<path fill="none" stroke="midnightblue" d="M1008.56,-224.44C1034.52,-215.4 1075.67,-201.06 1104.8,-190.92"/>
<polygon fill="midnightblue" stroke="midnightblue" points="1106.26,-194.11 1114.55,-187.52 1103.96,-187.5 1106.26,-194.11"/>
</g>
<!-- Node29&#45;&gt;Node7 -->
<g id="edge60" class="edge">
<title>Node29&#45;&gt;Node7</title>
<path fill="none" stroke="midnightblue" d="M984.71,-224.37C986.16,-206.62 989.51,-165.67 991.48,-141.6"/>
<polygon fill="midnightblue" stroke="midnightblue" points="994.97,-141.84 992.3,-131.59 987.99,-141.27 994.97,-141.84"/>
</g>
<!-- Node29&#45;&gt;Node8 -->
<g id="edge63" class="edge">
<title>Node29&#45;&gt;Node8</title>
<path fill="none" stroke="midnightblue" d="M1030.76,-225.63C1121.67,-210.55 1318.01,-174 1371,-132 1386.33,-119.85 1396.73,-99.69 1402.71,-85.04"/>
<polygon fill="midnightblue" stroke="midnightblue" points="1406.04,-86.13 1406.3,-75.53 1399.5,-83.65 1406.04,-86.13"/>
</g>
<!-- Node29&#45;&gt;Node13 -->
<g id="edge61" class="edge">
<title>Node29&#45;&gt;Node13</title>
<path fill="none" stroke="midnightblue" d="M969.54,-224.32C955.5,-215.9 933.95,-202.97 917.46,-193.07"/>
<polygon fill="midnightblue" stroke="midnightblue" points="918.8,-189.8 908.42,-187.65 915.2,-195.8 918.8,-189.8"/>
</g>
<!-- Node29&#45;&gt;Node18 -->
<g id="edge59" class="edge">
<title>Node29&#45;&gt;Node18</title>
<path fill="none" stroke="midnightblue" d="M945.81,-224.44C903.86,-215.04 836.41,-199.93 790.93,-189.74"/>
<polygon fill="midnightblue" stroke="midnightblue" points="791.53,-186.29 781.01,-187.52 790,-193.12 791.53,-186.29"/>
</g>
<!-- Node30&#45;&gt;Node3 -->
<g id="edge66" class="edge">
<title>Node30&#45;&gt;Node3</title>
<path fill="none" stroke="midnightblue" d="M1019.4,-342.65C855.86,-333.95 315.29,-301.03 265,-244 146.7,-109.85 537.89,-76.35 671.14,-68.92"/>
<polygon fill="midnightblue" stroke="midnightblue" points="671.59,-72.41 681.39,-68.38 671.21,-65.42 671.59,-72.41"/>
</g>
<!-- Node30&#45;&gt;Node4 -->
<g id="edge68" class="edge">
<title>Node30&#45;&gt;Node4</title>
<path fill="none" stroke="midnightblue" d="M1067.06,-336.33C1069.01,-323.19 1074.09,-297.89 1086,-280 1094.11,-267.82 1106.47,-257.17 1117.33,-249.3"/>
<polygon fill="midnightblue" stroke="midnightblue" points="1119.34,-252.16 1125.59,-243.6 1115.37,-246.39 1119.34,-252.16"/>
</g>
<!-- Node30&#45;&gt;Node7 -->
<g id="edge67" class="edge">
<title>Node30&#45;&gt;Node7</title>
<path fill="none" stroke="midnightblue" d="M1064.7,-336.32C1061.55,-316.22 1052.75,-265.02 1039,-224 1028.88,-193.82 1012.67,-160.53 1002.44,-140.71"/>
<polygon fill="midnightblue" stroke="midnightblue" points="1005.44,-138.9 997.7,-131.67 999.24,-142.15 1005.44,-138.9"/>
</g>
<!-- Node30&#45;&gt;Node31 -->
<g id="edge69" class="edge">
<title>Node30&#45;&gt;Node31</title>
<path fill="none" stroke="midnightblue" d="M1078.53,-336.32C1090.59,-327.98 1109.03,-315.21 1123.27,-305.35"/>
<polygon fill="midnightblue" stroke="midnightblue" points="1125.27,-308.22 1131.5,-299.65 1121.28,-302.47 1125.27,-308.22"/>
</g>
<!-- Node31&#45;&gt;Node4 -->
<g id="edge70" class="edge">
<title>Node31&#45;&gt;Node4</title>
<path fill="none" stroke="midnightblue" d="M1143.34,-280.08C1142.82,-273.01 1142.06,-262.86 1141.41,-253.99"/>
<polygon fill="midnightblue" stroke="midnightblue" points="1144.88,-253.47 1140.65,-243.75 1137.9,-253.98 1144.88,-253.47"/>
</g>
<!-- Node31&#45;&gt;Node8 -->
<g id="edge72" class="edge">
<title>Node31&#45;&gt;Node8</title>
<path fill="none" stroke="midnightblue" d="M1184.66,-280.49C1249.45,-264.44 1373.73,-222.79 1422,-132 1429.83,-117.26 1424.62,-98.36 1418.63,-84.74"/>
<polygon fill="midnightblue" stroke="midnightblue" points="1421.65,-82.95 1414.1,-75.52 1415.36,-86.04 1421.65,-82.95"/>
</g>
<!-- Node31&#45;&gt;Node13 -->
<g id="edge71" class="edge">
<title>Node31&#45;&gt;Node13</title>
<path fill="none" stroke="midnightblue" d="M1095.06,-283.7C1039.69,-276.88 953.82,-263.51 928,-244 912.79,-232.51 903.75,-212.24 898.85,-197.38"/>
<polygon fill="midnightblue" stroke="midnightblue" points="902.19,-196.32 896,-187.72 895.48,-198.3 902.19,-196.32"/>
</g>
<!-- Node32&#45;&gt;Node3 -->
<g id="edge78" class="edge">
<title>Node32&#45;&gt;Node3</title>
<path fill="none" stroke="midnightblue" d="M1608.46,-117.68C1432.48,-107.71 910.85,-78.15 757.11,-69.44"/>
<polygon fill="midnightblue" stroke="midnightblue" points="756.87,-65.92 746.68,-68.85 756.47,-72.91 756.87,-65.92"/>
</g>
<!-- Node32&#45;&gt;Node8 -->
<g id="edge80" class="edge">
<title>Node32&#45;&gt;Node8</title>
<path fill="none" stroke="midnightblue" d="M1626.12,-112.44C1581.02,-103 1508.39,-87.8 1459.7,-77.61"/>
<polygon fill="midnightblue" stroke="midnightblue" points="1460.19,-74.14 1449.69,-75.52 1458.76,-80.99 1460.19,-74.14"/>
</g>
<!-- Node33 -->
<g id="node33" class="node">
<title>Node33</title>
<g id="a_node33"><a xlink:title=" ">
<polygon fill="none" stroke="#bfbfbf" points="1640.5,-56.5 1640.5,-75.5 1693.5,-75.5 1693.5,-56.5 1640.5,-56.5"/>
<text text-anchor="middle" x="1667" y="-63.5" font-family="Helvetica,sans-Serif" font-size="10.00">stdlib.h</text>
</a>
</g>
</g>
<!-- Node32&#45;&gt;Node33 -->
<g id="edge79" class="edge">
<title>Node32&#45;&gt;Node33</title>
<path fill="none" stroke="midnightblue" d="M1667,-112.08C1667,-105.01 1667,-94.86 1667,-85.99"/>
<polygon fill="midnightblue" stroke="midnightblue" points="1670.5,-85.75 1667,-75.75 1663.5,-85.75 1670.5,-85.75"/>
</g>
</g>
</svg>
        <g id="navigator" transform="translate(0 0)" fill="#404254">
                <rect fill="#f2f5e9" fill-opacity="0.5" stroke="#606060" stroke-width=".5" x="0" y="0" width="60" height="60"/>
                <use id="zoomplus" xlink:href="#zoomPlus" target="_top" x="17" y="9" onmousedown="handleZoom(evt,'in')"/>
                <use id="zoomminus" xlink:href="#zoomMin" target="_top" x="42" y="9" onmousedown="handleZoom(evt,'out')"/>
                <use id="reset" xlink:href="#resetDef" target="_top" x="30" y="36" onmousedown="handleReset()"/>
                <g id="arrowUp" xlink:href="#dirArrow" target="_top" transform="translate(30 24)" onmousedown="handlePan(0,-1)">
                  <use xlink:href="#rim" target="_top" fill="#404040">
                        <set attributeName="fill" to="#808080" begin="arrowUp.mouseover" end="arrowUp.mouseout"/>
                  </use>
                  <path fill="none" stroke="white" stroke-width="1.5" d="M0,-3.0v7 M-2.5,-0.5L0,-3.0L2.5,-0.5"/>
                </g>
                <g id="arrowRight" xlink:href="#dirArrow" target="_top" transform="rotate(90) translate(36 -43)" onmousedown="handlePan(1,0)">
                  <use xlink:href="#rim" target="_top" fill="#404040">
                        <set attributeName="fill" to="#808080" begin="arrowRight.mouseover" end="arrowRight.mouseout"/>
                  </use>
                  <path fill="none" stroke="white" stroke-width="1.5" d="M0,-3.0v7 M-2.5,-0.5L0,-3.0L2.5,-0.5"/>
                </g>
                <g id="arrowDown" xlink:href="#dirArrow" target="_top" transform="rotate(180) translate(-30 -48)" onmousedown="handlePan(0,1)">
                  <use xlink:href="#rim" target="_top" fill="#404040">
                        <set attributeName="fill" to="#808080" begin="arrowDown.mouseover" end="arrowDown.mouseout"/>
                  </use>
                  <path fill="none" stroke="white" stroke-width="1.5" d="M0,-3.0v7 M-2.5,-0.5L0,-3.0L2.5,-0.5"/>
                </g>
                <g id="arrowLeft" xlink:href="#dirArrow" target="_top" transform="rotate(270) translate(-36 17)" onmousedown="handlePan(-1,0)">
                  <use xlink:href="#rim" target="_top" fill="#404040">
                        <set attributeName="fill" to="#808080" begin="arrowLeft.mouseover" end="arrowLeft.mouseout"/>
                  </use>
                  <path fill="none" stroke="white" stroke-width="1.5" d="M0,-3.0v7 M-2.5,-0.5L0,-3.0L2.5,-0.5"/>
                </g>
        </g>
        <svg viewBox="0 0 15 15" width="100%" height="30px" preserveAspectRatio="xMaxYMin meet">
         <g id="arrow_out" transform="scale(0.3 0.3)">
          <a xlink:href="Timer_8cpp__incl_org.svg" target="_top" target="_base">
           <rect id="button" ry="5" rx="5" y="6" x="6" height="38" width="38"
                fill="#f2f5e9" fill-opacity="0.5" stroke="#606060" stroke-width="1.0"/>
           <path id="arrow"
             d="M 11.500037,31.436501 C 11.940474,20.09759 22.043105,11.32322 32.158766,21.979434 L 37.068811,17.246167 C 37.068811,17.246167 37.088388,32 37.088388,32 L 22.160133,31.978069 C 22.160133,31.978069 26.997745,27.140456 26.997745,27.140456 C 18.528582,18.264221 13.291696,25.230495 11.500037,31.436501 z"
             style="fill:#404040;"/>
          </a>
         </g>
        </svg>
</svg>
