<?xml version="1.0" encoding="UTF-8" standalone="no"?>
<!DOCTYPE svg PUBLIC "-//W3C//DTD SVG 1.1//EN"
 "http://www.w3.org/Graphics/SVG/1.1/DTD/svg11.dtd">
<!-- Generated by graphviz version 2.43.0 (0)
 -->
<!-- Title: VortexEngine/src/Wireless/VLReceiver.cpp Pages: 1 -->
<svg width="1642pt" height="487pt"
 viewBox="0.00 0.00 1642.00 487.00" xmlns="http://www.w3.org/2000/svg" xmlns:xlink="http://www.w3.org/1999/xlink">
<g id="graph0" class="graph" transform="scale(1 1) rotate(0) translate(4 483)">
<title>VortexEngine/src/Wireless/VLReceiver.cpp</title>
<!-- Node1 -->
<g id="node1" class="node">
<title>Node1</title>
<g id="a_node1"><a xlink:title=" ">
<polygon fill="#bfbfbf" stroke="black" points="738.5,-448.5 738.5,-478.5 881.5,-478.5 881.5,-448.5 738.5,-448.5"/>
<text text-anchor="start" x="746.5" y="-466.5" font-family="Helvetica,sans-Serif" font-size="10.00">VortexEngine/src/Wireless</text>
<text text-anchor="middle" x="810" y="-455.5" font-family="Helvetica,sans-Serif" font-size="10.00">/VLReceiver.cpp</text>
</a>
</g>
</g>
<!-- Node2 -->
<g id="node2" class="node">
<title>Node2</title>
<g id="a_node2"><a xlink:href="VLReceiver_8h.html" target="_top" xlink:title=" ">
<polygon fill="none" stroke="black" points="1008,-280.5 1008,-299.5 1088,-299.5 1088,-280.5 1008,-280.5"/>
<text text-anchor="middle" x="1048" y="-287.5" font-family="Helvetica,sans-Serif" font-size="10.00">VLReceiver.h</text>
</a>
</g>
</g>
<!-- Node1&#45;&gt;Node2 -->
<g id="edge1" class="edge">
<title>Node1&#45;&gt;Node2</title>
<path fill="none" stroke="midnightblue" d="M881.79,-449.7C970.03,-432.33 1111.95,-398.53 1143,-356 1160.73,-331.72 1124.81,-313.53 1092.18,-302.66"/>
<polygon fill="midnightblue" stroke="midnightblue" points="1092.81,-299.19 1082.22,-299.52 1090.71,-305.86 1092.81,-299.19"/>
</g>
<!-- Node4 -->
<g id="node4" class="node">
<title>Node4</title>
<g id="a_node4"><a xlink:href="BitStream_8h.html" target="_top" xlink:title=" ">
<polygon fill="none" stroke="black" points="1149,-224.5 1149,-243.5 1263,-243.5 1263,-224.5 1149,-224.5"/>
<text text-anchor="middle" x="1206" y="-231.5" font-family="Helvetica,sans-Serif" font-size="10.00">../Serial/BitStream.h</text>
</a>
</g>
</g>
<!-- Node1&#45;&gt;Node4 -->
<g id="edge78" class="edge">
<title>Node1&#45;&gt;Node4</title>
<path fill="none" stroke="midnightblue" d="M881.64,-456.72C936.48,-450.46 1013.12,-437.69 1076,-412 1153.68,-380.27 1192.19,-375.89 1228,-300 1235.44,-284.24 1227.2,-265.28 1218.76,-251.91"/>
<polygon fill="midnightblue" stroke="midnightblue" points="1221.64,-249.91 1213.09,-243.66 1215.87,-253.88 1221.64,-249.91"/>
</g>
<!-- Node8 -->
<g id="node8" class="node">
<title>Node8</title>
<g id="a_node8"><a xlink:href="VortexEngine_8h.html" target="_top" xlink:title=" ">
<polygon fill="none" stroke="black" points="712.5,-392.5 712.5,-411.5 811.5,-411.5 811.5,-392.5 712.5,-392.5"/>
<text text-anchor="middle" x="762" y="-399.5" font-family="Helvetica,sans-Serif" font-size="10.00">../VortexEngine.h</text>
</a>
</g>
</g>
<!-- Node1&#45;&gt;Node8 -->
<g id="edge8" class="edge">
<title>Node1&#45;&gt;Node8</title>
<path fill="none" stroke="midnightblue" d="M798.62,-448.4C791.65,-439.75 782.69,-428.64 775.37,-419.58"/>
<polygon fill="midnightblue" stroke="midnightblue" points="777.99,-417.24 768.98,-411.66 772.54,-421.64 777.99,-417.24"/>
</g>
<!-- Node14 -->
<g id="node14" class="node">
<title>Node14</title>
<g id="a_node14"><a xlink:href="ByteStream_8h.html" target="_top" xlink:title=" ">
<polygon fill="none" stroke="black" points="883.5,-224.5 883.5,-243.5 1006.5,-243.5 1006.5,-224.5 883.5,-224.5"/>
<text text-anchor="middle" x="945" y="-231.5" font-family="Helvetica,sans-Serif" font-size="10.00">../Serial/ByteStream.h</text>
</a>
</g>
</g>
<!-- Node1&#45;&gt;Node14 -->
<g id="edge77" class="edge">
<title>Node1&#45;&gt;Node14</title>
<path fill="none" stroke="midnightblue" d="M812.81,-448.49C820.62,-410.55 843.48,-306.86 865,-280 876.55,-265.58 894.05,-254.99 909.74,-247.72"/>
<polygon fill="midnightblue" stroke="midnightblue" points="911.42,-250.81 919.2,-243.62 908.63,-244.39 911.42,-250.81"/>
</g>
<!-- Node15 -->
<g id="node15" class="node">
<title>Node15</title>
<g id="a_node15"><a xlink:href="Log_8h.html" target="_top" xlink:title=" ">
<polygon fill="none" stroke="black" points="186,-168.5 186,-187.5 258,-187.5 258,-168.5 186,-168.5"/>
<text text-anchor="middle" x="222" y="-175.5" font-family="Helvetica,sans-Serif" font-size="10.00">../Log/Log.h</text>
</a>
</g>
</g>
<!-- Node1&#45;&gt;Node15 -->
<g id="edge82" class="edge">
<title>Node1&#45;&gt;Node15</title>
<path fill="none" stroke="midnightblue" d="M738.48,-462.74C635.51,-461.5 440.23,-453.25 280,-412 209.64,-393.89 130,-419.66 130,-347 130,-347 130,-347 130,-289 130,-246.5 170.91,-211.77 198.17,-193.34"/>
<polygon fill="midnightblue" stroke="midnightblue" points="200.33,-196.11 206.81,-187.73 196.51,-190.24 200.33,-196.11"/>
</g>
<!-- Node22 -->
<g id="node22" class="node">
<title>Node22</title>
<g id="a_node22"><a xlink:href="TimeControl_8h.html" target="_top" xlink:title=" ">
<polygon fill="none" stroke="black" points="210.5,-280.5 210.5,-299.5 323.5,-299.5 323.5,-280.5 210.5,-280.5"/>
<text text-anchor="middle" x="267" y="-287.5" font-family="Helvetica,sans-Serif" font-size="10.00">Time/TimeControl.h</text>
</a>
</g>
</g>
<!-- Node1&#45;&gt;Node22 -->
<g id="edge79" class="edge">
<title>Node1&#45;&gt;Node22</title>
<path fill="none" stroke="midnightblue" d="M738.47,-460.51C596.96,-454.89 289.35,-433.81 225,-356 211.8,-340.04 229.72,-319.74 246.07,-306.1"/>
<polygon fill="midnightblue" stroke="midnightblue" points="248.6,-308.57 254.31,-299.64 244.28,-303.06 248.6,-308.57"/>
</g>
<!-- Node24 -->
<g id="node24" class="node">
<title>Node24</title>
<g id="a_node24"><a xlink:href="Leds_8h.html" target="_top" xlink:title=" ">
<polygon fill="none" stroke="black" points="432.5,-168.5 432.5,-187.5 515.5,-187.5 515.5,-168.5 432.5,-168.5"/>
<text text-anchor="middle" x="474" y="-175.5" font-family="Helvetica,sans-Serif" font-size="10.00">../Leds/Leds.h</text>
</a>
</g>
</g>
<!-- Node1&#45;&gt;Node24 -->
<g id="edge81" class="edge">
<title>Node1&#45;&gt;Node24</title>
<path fill="none" stroke="midnightblue" d="M738.19,-460.33C635.85,-452.85 451.53,-422.12 371,-300 352.3,-271.65 344.02,-252.17 363,-224 376.46,-204.02 400.47,-192.91 422.73,-186.73"/>
<polygon fill="midnightblue" stroke="midnightblue" points="423.6,-190.12 432.45,-184.3 421.9,-183.33 423.6,-190.12"/>
</g>
<!-- Node31 -->
<g id="node31" class="node">
<title>Node31</title>
<g id="a_node31"><a xlink:href="Mode_8h.html" target="_top" xlink:title=" ">
<polygon fill="none" stroke="black" points="380.5,-280.5 380.5,-299.5 477.5,-299.5 477.5,-280.5 380.5,-280.5"/>
<text text-anchor="middle" x="429" y="-287.5" font-family="Helvetica,sans-Serif" font-size="10.00">../Modes/Mode.h</text>
</a>
</g>
</g>
<!-- Node1&#45;&gt;Node31 -->
<g id="edge80" class="edge">
<title>Node1&#45;&gt;Node31</title>
<path fill="none" stroke="midnightblue" d="M738.21,-456.67C662.17,-447.1 542.37,-421.95 463,-356 448.48,-343.94 439.38,-324.05 434.29,-309.45"/>
<polygon fill="midnightblue" stroke="midnightblue" points="437.5,-308.01 431.15,-299.53 430.83,-310.12 437.5,-308.01"/>
</g>
<!-- Node32 -->
<g id="node32" class="node">
<title>Node32</title>
<g id="a_node32"><a xlink:title=" ">
<polygon fill="none" stroke="#bfbfbf" points="1276,-392.5 1276,-411.5 1362,-411.5 1362,-392.5 1276,-392.5"/>
<text text-anchor="middle" x="1319" y="-399.5" font-family="Helvetica,sans-Serif" font-size="10.00">avr/interrupt.h</text>
</a>
</g>
</g>
<!-- Node1&#45;&gt;Node32 -->
<g id="edge83" class="edge">
<title>Node1&#45;&gt;Node32</title>
<path fill="none" stroke="midnightblue" d="M881.75,-455.5C971.01,-446.55 1127.99,-430.06 1262,-412 1263.26,-411.83 1264.53,-411.66 1265.81,-411.48"/>
<polygon fill="midnightblue" stroke="midnightblue" points="1266.37,-414.93 1275.77,-410.04 1265.37,-408 1266.37,-414.93"/>
</g>
<!-- Node33 -->
<g id="node33" class="node">
<title>Node33</title>
<g id="a_node33"><a xlink:title=" ">
<polygon fill="none" stroke="#bfbfbf" points="1380.5,-392.5 1380.5,-411.5 1433.5,-411.5 1433.5,-392.5 1380.5,-392.5"/>
<text text-anchor="middle" x="1407" y="-399.5" font-family="Helvetica,sans-Serif" font-size="10.00">avr/io.h</text>
</a>
</g>
</g>
<!-- Node1&#45;&gt;Node33 -->
<g id="edge84" class="edge">
<title>Node1&#45;&gt;Node33</title>
<path fill="none" stroke="midnightblue" d="M881.74,-459.61C986.94,-454.58 1189.24,-441.92 1370.38,-411.83"/>
<polygon fill="midnightblue" stroke="midnightblue" points="1371.08,-415.26 1380.36,-410.15 1369.92,-408.36 1371.08,-415.26"/>
</g>
<!-- Node3 -->
<g id="node3" class="node">
<title>Node3</title>
<g id="a_node3"><a xlink:title=" ">
<polygon fill="none" stroke="#bfbfbf" points="928.5,-56.5 928.5,-75.5 993.5,-75.5 993.5,-56.5 928.5,-56.5"/>
<text text-anchor="middle" x="961" y="-63.5" font-family="Helvetica,sans-Serif" font-size="10.00">inttypes.h</text>
</a>
</g>
</g>
<!-- Node2&#45;&gt;Node3 -->
<g id="edge2" class="edge">
<title>Node2&#45;&gt;Node3</title>
<path fill="none" stroke="midnightblue" d="M1064.63,-280.46C1077.49,-272.84 1094.34,-260.36 1102,-244 1105.77,-235.95 1105.18,-232.3 1102,-224 1077.7,-160.56 1014.62,-106.65 981.7,-81.75"/>
<polygon fill="midnightblue" stroke="midnightblue" points="983.76,-78.92 973.64,-75.79 979.59,-84.55 983.76,-78.92"/>
</g>
<!-- Node2&#45;&gt;Node4 -->
<g id="edge3" class="edge">
<title>Node2&#45;&gt;Node4</title>
<path fill="none" stroke="midnightblue" d="M1073.04,-280.44C1099.62,-271.36 1141.81,-256.94 1171.52,-246.78"/>
<polygon fill="midnightblue" stroke="midnightblue" points="1172.75,-250.06 1181.08,-243.52 1170.49,-243.44 1172.75,-250.06"/>
</g>
<!-- Node5 -->
<g id="node5" class="node">
<title>Node5</title>
<g id="a_node5"><a xlink:href="VLConfig_8h.html" target="_top" xlink:title=" ">
<polygon fill="none" stroke="black" points="1025,-224.5 1025,-243.5 1093,-243.5 1093,-224.5 1025,-224.5"/>
<text text-anchor="middle" x="1059" y="-231.5" font-family="Helvetica,sans-Serif" font-size="10.00">VLConfig.h</text>
</a>
</g>
</g>
<!-- Node2&#45;&gt;Node5 -->
<g id="edge5" class="edge">
<title>Node2&#45;&gt;Node5</title>
<path fill="none" stroke="midnightblue" d="M1049.82,-280.08C1051.27,-272.93 1053.37,-262.64 1055.19,-253.69"/>
<polygon fill="midnightblue" stroke="midnightblue" points="1058.65,-254.25 1057.22,-243.75 1051.79,-252.85 1058.65,-254.25"/>
</g>
<!-- Node4&#45;&gt;Node3 -->
<g id="edge4" class="edge">
<title>Node4&#45;&gt;Node3</title>
<path fill="none" stroke="midnightblue" d="M1203.52,-224.42C1196.62,-202.16 1175.05,-142.23 1135,-112 1096.76,-83.13 1041.79,-72.7 1003.92,-68.98"/>
<polygon fill="midnightblue" stroke="midnightblue" points="1003.98,-65.48 993.72,-68.1 1003.38,-72.45 1003.98,-65.48"/>
</g>
<!-- Node6 -->
<g id="node6" class="node">
<title>Node6</title>
<g id="a_node6"><a xlink:href="VortexConfig_8h.html" target="_top" xlink:title=" ">
<polygon fill="none" stroke="black" points="266.5,-56.5 266.5,-75.5 363.5,-75.5 363.5,-56.5 266.5,-56.5"/>
<text text-anchor="middle" x="315" y="-63.5" font-family="Helvetica,sans-Serif" font-size="10.00">../VortexConfig.h</text>
</a>
</g>
</g>
<!-- Node5&#45;&gt;Node6 -->
<g id="edge6" class="edge">
<title>Node5&#45;&gt;Node6</title>
<path fill="none" stroke="midnightblue" d="M1038.09,-224.37C983,-202.01 828.9,-141.86 695,-112 582.91,-87.01 448.93,-75.25 373.73,-70.25"/>
<polygon fill="midnightblue" stroke="midnightblue" points="373.72,-66.74 363.52,-69.59 373.27,-73.72 373.72,-66.74"/>
</g>
<!-- Node7 -->
<g id="node7" class="node">
<title>Node7</title>
<g id="a_node7"><a xlink:href="ColorConstants_8h.html" target="_top" xlink:title=" ">
<polygon fill="none" stroke="black" points="286,-0.5 286,-19.5 420,-19.5 420,-0.5 286,-0.5"/>
<text text-anchor="middle" x="353" y="-7.5" font-family="Helvetica,sans-Serif" font-size="10.00">Colors/ColorConstants.h</text>
</a>
</g>
</g>
<!-- Node6&#45;&gt;Node7 -->
<g id="edge7" class="edge">
<title>Node6&#45;&gt;Node7</title>
<path fill="none" stroke="midnightblue" d="M321.27,-56.08C326.64,-48.46 334.52,-37.26 341.08,-27.94"/>
<polygon fill="midnightblue" stroke="midnightblue" points="343.95,-29.94 346.84,-19.75 338.22,-25.91 343.95,-29.94"/>
</g>
<!-- Node8&#45;&gt;Node2 -->
<g id="edge29" class="edge">
<title>Node8&#45;&gt;Node2</title>
<path fill="none" stroke="midnightblue" d="M784.44,-392.37C834.98,-372.93 957.85,-325.67 1016.21,-303.23"/>
<polygon fill="midnightblue" stroke="midnightblue" points="1017.59,-306.45 1025.66,-299.59 1015.07,-299.91 1017.59,-306.45"/>
</g>
<!-- Node8&#45;&gt;Node3 -->
<g id="edge9" class="edge">
<title>Node8&#45;&gt;Node3</title>
<path fill="none" stroke="midnightblue" d="M811.92,-399.28C934.64,-394.7 1248.45,-380.88 1350,-356 1421.36,-338.52 1502,-364.47 1502,-291 1502,-291 1502,-291 1502,-177 1502,-75.5 1131.7,-66.66 1003.82,-66.63"/>
<polygon fill="midnightblue" stroke="midnightblue" points="1003.62,-63.13 993.62,-66.64 1003.63,-70.13 1003.62,-63.13"/>
</g>
<!-- Node8&#45;&gt;Node6 -->
<g id="edge10" class="edge">
<title>Node8&#45;&gt;Node6</title>
<path fill="none" stroke="midnightblue" d="M712.3,-399.08C543.11,-391.9 0,-363.22 0,-291 0,-291 0,-291 0,-177 0,-139.44 21.48,-130.8 54,-112 87.54,-92.61 189.98,-79.25 256.11,-72.38"/>
<polygon fill="midnightblue" stroke="midnightblue" points="256.8,-75.83 266.39,-71.34 256.09,-68.87 256.8,-75.83"/>
</g>
<!-- Node9 -->
<g id="node9" class="node">
<title>Node9</title>
<g id="a_node9"><a xlink:href="PatternBuilder_8h.html" target="_top" xlink:title=" ">
<polygon fill="none" stroke="black" points="684.5,-336.5 684.5,-355.5 821.5,-355.5 821.5,-336.5 684.5,-336.5"/>
<text text-anchor="middle" x="753" y="-343.5" font-family="Helvetica,sans-Serif" font-size="10.00">Patterns/PatternBuilder.h</text>
</a>
</g>
</g>
<!-- Node8&#45;&gt;Node9 -->
<g id="edge11" class="edge">
<title>Node8&#45;&gt;Node9</title>
<path fill="none" stroke="midnightblue" d="M760.51,-392.08C759.32,-384.93 757.61,-374.64 756.12,-365.69"/>
<polygon fill="midnightblue" stroke="midnightblue" points="759.55,-365.04 754.46,-355.75 752.65,-366.19 759.55,-365.04"/>
</g>
<!-- Node11 -->
<g id="node11" class="node">
<title>Node11</title>
<g id="a_node11"><a xlink:href="IRReceiver_8h.html" target="_top" xlink:title=" ">
<polygon fill="none" stroke="black" points="1276,-280.5 1276,-299.5 1398,-299.5 1398,-280.5 1276,-280.5"/>
<text text-anchor="middle" x="1337" y="-287.5" font-family="Helvetica,sans-Serif" font-size="10.00">Wireless/IRReceiver.h</text>
</a>
</g>
</g>
<!-- Node8&#45;&gt;Node11 -->
<g id="edge14" class="edge">
<title>Node8&#45;&gt;Node11</title>
<path fill="none" stroke="midnightblue" d="M810.37,-392.5C852.44,-384.62 914.82,-371.75 968,-356 992.14,-348.85 996.61,-342.26 1021,-336 1103.67,-314.79 1201.24,-302.81 1265.86,-296.64"/>
<polygon fill="midnightblue" stroke="midnightblue" points="1266.31,-300.11 1275.94,-295.7 1265.66,-293.14 1266.31,-300.11"/>
</g>
<!-- Node13 -->
<g id="node13" class="node">
<title>Node13</title>
<g id="a_node13"><a xlink:href="IRSender_8h.html" target="_top" xlink:title=" ">
<polygon fill="none" stroke="black" points="1106.5,-280.5 1106.5,-299.5 1219.5,-299.5 1219.5,-280.5 1106.5,-280.5"/>
<text text-anchor="middle" x="1163" y="-287.5" font-family="Helvetica,sans-Serif" font-size="10.00">Wireless/IRSender.h</text>
</a>
</g>
</g>
<!-- Node8&#45;&gt;Node13 -->
<g id="edge18" class="edge">
<title>Node8&#45;&gt;Node13</title>
<path fill="none" stroke="midnightblue" d="M791.81,-392.48C823.4,-383.45 874.73,-368.76 919,-356 949.68,-347.16 957.2,-344.42 988,-336 1032.2,-323.91 1082.94,-310.97 1118.36,-302.08"/>
<polygon fill="midnightblue" stroke="midnightblue" points="1119.53,-305.39 1128.39,-299.57 1117.83,-298.6 1119.53,-305.39"/>
</g>
<!-- Node8&#45;&gt;Node15 -->
<g id="edge76" class="edge">
<title>Node8&#45;&gt;Node15</title>
<path fill="none" stroke="midnightblue" d="M712.11,-399.72C586.41,-396.09 263.99,-384.11 225,-356 175.99,-320.66 200.49,-235.21 214.49,-197.46"/>
<polygon fill="midnightblue" stroke="midnightblue" points="217.9,-198.36 218.25,-187.77 211.37,-195.83 217.9,-198.36"/>
</g>
<!-- Node18 -->
<g id="node18" class="node">
<title>Node18</title>
<g id="a_node18"><a xlink:href="VLSender_8h.html" target="_top" xlink:title=" ">
<polygon fill="none" stroke="black" points="874,-280.5 874,-299.5 990,-299.5 990,-280.5 874,-280.5"/>
<text text-anchor="middle" x="932" y="-287.5" font-family="Helvetica,sans-Serif" font-size="10.00">Wireless/VLSender.h</text>
</a>
</g>
</g>
<!-- Node8&#45;&gt;Node18 -->
<g id="edge30" class="edge">
<title>Node8&#45;&gt;Node18</title>
<path fill="none" stroke="midnightblue" d="M775.34,-392.37C804.51,-373.49 874.22,-328.38 910,-305.24"/>
<polygon fill="midnightblue" stroke="midnightblue" points="912.23,-307.96 918.72,-299.59 908.43,-302.09 912.23,-307.96"/>
</g>
<!-- Node19 -->
<g id="node19" class="node">
<title>Node19</title>
<g id="a_node19"><a xlink:href="Storage_8h.html" target="_top" xlink:title=" ">
<polygon fill="none" stroke="black" points="1530,-168.5 1530,-187.5 1634,-187.5 1634,-168.5 1530,-168.5"/>
<text text-anchor="middle" x="1582" y="-175.5" font-family="Helvetica,sans-Serif" font-size="10.00">Storage/Storage.h</text>
</a>
</g>
</g>
<!-- Node8&#45;&gt;Node19 -->
<g id="edge34" class="edge">
<title>Node8&#45;&gt;Node19</title>
<path fill="none" stroke="midnightblue" d="M811.67,-401.13C970.6,-401.13 1459.59,-397.71 1516,-356 1567.39,-317.99 1578.79,-235.26 1581.3,-197.94"/>
<polygon fill="midnightblue" stroke="midnightblue" points="1584.82,-197.7 1581.84,-187.53 1577.83,-197.33 1584.82,-197.7"/>
</g>
<!-- Node20 -->
<g id="node20" class="node">
<title>Node20</title>
<g id="a_node20"><a xlink:href="Buttons_8h.html" target="_top" xlink:title=" ">
<polygon fill="none" stroke="black" points="1030,-336.5 1030,-355.5 1134,-355.5 1134,-336.5 1030,-336.5"/>
<text text-anchor="middle" x="1082" y="-343.5" font-family="Helvetica,sans-Serif" font-size="10.00">Buttons/Buttons.h</text>
</a>
</g>
</g>
<!-- Node8&#45;&gt;Node20 -->
<g id="edge36" class="edge">
<title>Node8&#45;&gt;Node20</title>
<path fill="none" stroke="midnightblue" d="M811.65,-392.62C868.16,-383.09 960.46,-367.51 1021.23,-357.26"/>
<polygon fill="midnightblue" stroke="midnightblue" points="1022.16,-360.65 1031.44,-355.53 1021,-353.74 1022.16,-360.65"/>
</g>
<!-- Node8&#45;&gt;Node22 -->
<g id="edge39" class="edge">
<title>Node8&#45;&gt;Node22</title>
<path fill="none" stroke="midnightblue" d="M712.3,-396.15C652.56,-389.72 549.54,-376.7 463,-356 403.63,-341.8 336.52,-317.73 298.24,-303.21"/>
<polygon fill="midnightblue" stroke="midnightblue" points="299.28,-299.86 288.69,-299.55 296.78,-306.4 299.28,-299.86"/>
</g>
<!-- Node8&#45;&gt;Node24 -->
<g id="edge75" class="edge">
<title>Node8&#45;&gt;Node24</title>
<path fill="none" stroke="midnightblue" d="M712.39,-397.62C651.17,-392.44 551.86,-380.47 525,-356 521.99,-353.26 491.47,-242.78 479.13,-197.78"/>
<polygon fill="midnightblue" stroke="midnightblue" points="482.43,-196.57 476.42,-187.85 475.68,-198.42 482.43,-196.57"/>
</g>
<!-- Node27 -->
<g id="node27" class="node">
<title>Node27</title>
<g id="a_node27"><a xlink:href="Timings_8h.html" target="_top" xlink:title=" ">
<polygon fill="none" stroke="black" points="234,-336.5 234,-355.5 326,-355.5 326,-336.5 234,-336.5"/>
<text text-anchor="middle" x="280" y="-343.5" font-family="Helvetica,sans-Serif" font-size="10.00">Time/Timings.h</text>
</a>
</g>
</g>
<!-- Node8&#45;&gt;Node27 -->
<g id="edge54" class="edge">
<title>Node8&#45;&gt;Node27</title>
<path fill="none" stroke="midnightblue" d="M712.22,-396.39C633.21,-388.91 474.29,-373.22 340,-356 338.74,-355.84 337.46,-355.67 336.17,-355.5"/>
<polygon fill="midnightblue" stroke="midnightblue" points="336.54,-352.02 326.16,-354.13 335.59,-358.95 336.54,-352.02"/>
</g>
<!-- Node28 -->
<g id="node28" class="node">
<title>Node28</title>
<g id="a_node28"><a xlink:href="Serial_8h.html" target="_top" xlink:title=" ">
<polygon fill="none" stroke="black" points="1390,-168.5 1390,-187.5 1474,-187.5 1474,-168.5 1390,-168.5"/>
<text text-anchor="middle" x="1432" y="-175.5" font-family="Helvetica,sans-Serif" font-size="10.00">Serial/Serial.h</text>
</a>
</g>
</g>
<!-- Node8&#45;&gt;Node28 -->
<g id="edge57" class="edge">
<title>Node8&#45;&gt;Node28</title>
<path fill="none" stroke="midnightblue" d="M811.5,-401.32C951.42,-401.07 1344.87,-392.05 1425,-300 1449.78,-271.53 1443.27,-223.55 1437.15,-197.38"/>
<polygon fill="midnightblue" stroke="midnightblue" points="1440.53,-196.44 1434.65,-187.62 1433.75,-198.18 1440.53,-196.44"/>
</g>
<!-- Node29 -->
<g id="node29" class="node">
<title>Node29</title>
<g id="a_node29"><a xlink:href="Modes_8h.html" target="_top" xlink:title=" ">
<polygon fill="none" stroke="black" points="686.5,-280.5 686.5,-299.5 779.5,-299.5 779.5,-280.5 686.5,-280.5"/>
<text text-anchor="middle" x="733" y="-287.5" font-family="Helvetica,sans-Serif" font-size="10.00">Modes/Modes.h</text>
</a>
</g>
</g>
<!-- Node8&#45;&gt;Node29 -->
<g id="edge59" class="edge">
<title>Node8&#45;&gt;Node29</title>
<path fill="none" stroke="midnightblue" d="M726.99,-392.45C708.07,-385.84 686.32,-374.59 675,-356 663.01,-336.31 685.87,-317.02 706.32,-304.64"/>
<polygon fill="midnightblue" stroke="midnightblue" points="708.17,-307.61 715.12,-299.61 704.7,-301.53 708.17,-307.61"/>
</g>
<!-- Node30 -->
<g id="node30" class="node">
<title>Node30</title>
<g id="a_node30"><a xlink:href="Menus_8h.html" target="_top" xlink:title=" ">
<polygon fill="none" stroke="black" points="534.5,-336.5 534.5,-355.5 627.5,-355.5 627.5,-336.5 534.5,-336.5"/>
<text text-anchor="middle" x="581" y="-343.5" font-family="Helvetica,sans-Serif" font-size="10.00">Menus/Menus.h</text>
</a>
</g>
</g>
<!-- Node8&#45;&gt;Node30 -->
<g id="edge66" class="edge">
<title>Node8&#45;&gt;Node30</title>
<path fill="none" stroke="midnightblue" d="M733.32,-392.44C702.47,-383.24 653.27,-368.56 619.17,-358.39"/>
<polygon fill="midnightblue" stroke="midnightblue" points="620.13,-355.02 609.55,-355.52 618.13,-361.73 620.13,-355.02"/>
</g>
<!-- Node8&#45;&gt;Node31 -->
<g id="edge74" class="edge">
<title>Node8&#45;&gt;Node31</title>
<path fill="none" stroke="midnightblue" d="M712.27,-401.83C655.77,-400.78 562.28,-392.86 492,-356 470.56,-344.76 452.12,-323.51 440.82,-308.37"/>
<polygon fill="midnightblue" stroke="midnightblue" points="443.41,-305.98 434.75,-299.88 437.72,-310.05 443.41,-305.98"/>
</g>
<!-- Node10 -->
<g id="node10" class="node">
<title>Node10</title>
<g id="a_node10"><a xlink:href="Patterns_8h.html" target="_top" xlink:title=" ">
<polygon fill="none" stroke="black" points="800.5,-224.5 800.5,-243.5 865.5,-243.5 865.5,-224.5 800.5,-224.5"/>
<text text-anchor="middle" x="833" y="-231.5" font-family="Helvetica,sans-Serif" font-size="10.00">Patterns.h</text>
</a>
</g>
</g>
<!-- Node9&#45;&gt;Node10 -->
<g id="edge12" class="edge">
<title>Node9&#45;&gt;Node10</title>
<path fill="none" stroke="midnightblue" d="M759.85,-336.48C767.02,-327.51 778.51,-312.92 788,-300 799.77,-283.98 812.62,-265.28 821.57,-252.06"/>
<polygon fill="midnightblue" stroke="midnightblue" points="824.64,-253.77 827.32,-243.52 818.83,-249.86 824.64,-253.77"/>
</g>
<!-- Node10&#45;&gt;Node3 -->
<g id="edge13" class="edge">
<title>Node10&#45;&gt;Node3</title>
<path fill="none" stroke="midnightblue" d="M860.53,-224.4C879.07,-217.32 902.82,-205.56 918,-188 943.9,-158.03 954.56,-111.36 958.66,-85.62"/>
<polygon fill="midnightblue" stroke="midnightblue" points="962.13,-86.08 960.08,-75.69 955.2,-85.1 962.13,-86.08"/>
</g>
<!-- Node11&#45;&gt;Node3 -->
<g id="edge15" class="edge">
<title>Node11&#45;&gt;Node3</title>
<path fill="none" stroke="midnightblue" d="M1343.54,-280.48C1352.62,-267.55 1366.76,-242.5 1356,-224 1349.67,-213.12 1170.74,-116.56 1159,-112 1107.35,-91.95 1044.48,-79.56 1003.64,-72.98"/>
<polygon fill="midnightblue" stroke="midnightblue" points="1004.18,-69.52 993.75,-71.43 1003.09,-76.43 1004.18,-69.52"/>
</g>
<!-- Node11&#45;&gt;Node4 -->
<g id="edge16" class="edge">
<title>Node11&#45;&gt;Node4</title>
<path fill="none" stroke="midnightblue" d="M1316.24,-280.44C1294.68,-271.56 1260.74,-257.56 1236.21,-247.45"/>
<polygon fill="midnightblue" stroke="midnightblue" points="1237.24,-244.09 1226.66,-243.52 1234.57,-250.56 1237.24,-244.09"/>
</g>
<!-- Node12 -->
<g id="node12" class="node">
<title>Node12</title>
<g id="a_node12"><a xlink:href="IRConfig_8h.html" target="_top" xlink:title=" ">
<polygon fill="none" stroke="black" points="1281,-224.5 1281,-243.5 1347,-243.5 1347,-224.5 1281,-224.5"/>
<text text-anchor="middle" x="1314" y="-231.5" font-family="Helvetica,sans-Serif" font-size="10.00">IRConfig.h</text>
</a>
</g>
</g>
<!-- Node11&#45;&gt;Node12 -->
<g id="edge17" class="edge">
<title>Node11&#45;&gt;Node12</title>
<path fill="none" stroke="midnightblue" d="M1333.2,-280.08C1330.09,-272.77 1325.58,-262.18 1321.71,-253.1"/>
<polygon fill="midnightblue" stroke="midnightblue" points="1324.87,-251.58 1317.73,-243.75 1318.43,-254.32 1324.87,-251.58"/>
</g>
<!-- Node13&#45;&gt;Node4 -->
<g id="edge27" class="edge">
<title>Node13&#45;&gt;Node4</title>
<path fill="none" stroke="midnightblue" d="M1170.1,-280.08C1176.24,-272.38 1185.27,-261.03 1192.74,-251.65"/>
<polygon fill="midnightblue" stroke="midnightblue" points="1195.54,-253.75 1199.03,-243.75 1190.06,-249.39 1195.54,-253.75"/>
</g>
<!-- Node13&#45;&gt;Node12 -->
<g id="edge28" class="edge">
<title>Node13&#45;&gt;Node12</title>
<path fill="none" stroke="midnightblue" d="M1186.93,-280.44C1212.22,-271.4 1252.3,-257.06 1280.68,-246.92"/>
<polygon fill="midnightblue" stroke="midnightblue" points="1281.95,-250.18 1290.19,-243.52 1279.59,-243.59 1281.95,-250.18"/>
</g>
<!-- Node13&#45;&gt;Node14 -->
<g id="edge19" class="edge">
<title>Node13&#45;&gt;Node14</title>
<path fill="none" stroke="midnightblue" d="M1128.46,-280.44C1090.75,-271.1 1030.26,-256.12 989.14,-245.93"/>
<polygon fill="midnightblue" stroke="midnightblue" points="989.93,-242.52 979.38,-243.52 988.25,-249.32 989.93,-242.52"/>
</g>
<!-- Node14&#45;&gt;Node3 -->
<g id="edge20" class="edge">
<title>Node14&#45;&gt;Node3</title>
<path fill="none" stroke="midnightblue" d="M947.62,-224.47C950.25,-215.49 954.18,-200.9 956,-188 961.09,-152.04 961.59,-109.52 961.37,-85.66"/>
<polygon fill="midnightblue" stroke="midnightblue" points="964.87,-85.51 961.23,-75.56 957.87,-85.61 964.87,-85.51"/>
</g>
<!-- Node14&#45;&gt;Node15 -->
<g id="edge21" class="edge">
<title>Node14&#45;&gt;Node15</title>
<path fill="none" stroke="midnightblue" d="M883.45,-224.98C880.26,-224.63 877.09,-224.3 874,-224 647.23,-201.82 375.04,-186.75 268.22,-181.28"/>
<polygon fill="midnightblue" stroke="midnightblue" points="268.27,-177.78 258.11,-180.77 267.92,-184.77 268.27,-177.78"/>
</g>
<!-- Node15&#45;&gt;Node6 -->
<g id="edge23" class="edge">
<title>Node15&#45;&gt;Node6</title>
<path fill="none" stroke="midnightblue" d="M206.47,-168.3C186.44,-155.96 155.88,-132.57 171,-112 190.51,-85.46 225.62,-74.13 256.28,-69.48"/>
<polygon fill="midnightblue" stroke="midnightblue" points="257.01,-72.91 266.47,-68.15 256.1,-65.97 257.01,-72.91"/>
</g>
<!-- Node16 -->
<g id="node16" class="node">
<title>Node16</title>
<g id="a_node16"><a xlink:title=" ">
<polygon fill="none" stroke="#bfbfbf" points="310,-112.5 310,-131.5 366,-131.5 366,-112.5 310,-112.5"/>
<text text-anchor="middle" x="338" y="-119.5" font-family="Helvetica,sans-Serif" font-size="10.00">stdarg.h</text>
</a>
</g>
</g>
<!-- Node15&#45;&gt;Node16 -->
<g id="edge22" class="edge">
<title>Node15&#45;&gt;Node16</title>
<path fill="none" stroke="midnightblue" d="M240.38,-168.44C259.22,-159.68 288.73,-145.94 310.38,-135.86"/>
<polygon fill="midnightblue" stroke="midnightblue" points="312.12,-138.91 319.71,-131.52 309.16,-132.56 312.12,-138.91"/>
</g>
<!-- Node17 -->
<g id="node17" class="node">
<title>Node17</title>
<g id="a_node17"><a xlink:href="ErrorBlinker_8h.html" target="_top" xlink:title=" ">
<polygon fill="none" stroke="black" points="180.5,-112.5 180.5,-131.5 291.5,-131.5 291.5,-112.5 180.5,-112.5"/>
<text text-anchor="middle" x="236" y="-119.5" font-family="Helvetica,sans-Serif" font-size="10.00">../Log/ErrorBlinker.h</text>
</a>
</g>
</g>
<!-- Node15&#45;&gt;Node17 -->
<g id="edge24" class="edge">
<title>Node15&#45;&gt;Node17</title>
<path fill="none" stroke="midnightblue" d="M224.31,-168.08C226.17,-160.93 228.84,-150.64 231.15,-141.69"/>
<polygon fill="midnightblue" stroke="midnightblue" points="234.61,-142.31 233.73,-131.75 227.83,-140.55 234.61,-142.31"/>
</g>
<!-- Node17&#45;&gt;Node3 -->
<g id="edge25" class="edge">
<title>Node17&#45;&gt;Node3</title>
<path fill="none" stroke="midnightblue" d="M291.64,-113.04C294.8,-112.67 297.94,-112.32 301,-112 533.22,-88.04 812.77,-73.76 918.09,-68.89"/>
<polygon fill="midnightblue" stroke="midnightblue" points="918.48,-72.38 928.31,-68.42 918.16,-65.38 918.48,-72.38"/>
</g>
<!-- Node17&#45;&gt;Node6 -->
<g id="edge26" class="edge">
<title>Node17&#45;&gt;Node6</title>
<path fill="none" stroke="midnightblue" d="M248.69,-112.32C260.9,-103.98 279.58,-91.21 294,-81.35"/>
<polygon fill="midnightblue" stroke="midnightblue" points="296.06,-84.19 302.34,-75.65 292.11,-78.41 296.06,-84.19"/>
</g>
<!-- Node18&#45;&gt;Node4 -->
<g id="edge32" class="edge">
<title>Node18&#45;&gt;Node4</title>
<path fill="none" stroke="midnightblue" d="M975.42,-280.44C1023.52,-270.96 1101.09,-255.67 1152.81,-245.48"/>
<polygon fill="midnightblue" stroke="midnightblue" points="1153.65,-248.88 1162.79,-243.52 1152.3,-242.02 1153.65,-248.88"/>
</g>
<!-- Node18&#45;&gt;Node5 -->
<g id="edge33" class="edge">
<title>Node18&#45;&gt;Node5</title>
<path fill="none" stroke="midnightblue" d="M952.12,-280.44C973.02,-271.56 1005.93,-257.56 1029.72,-247.45"/>
<polygon fill="midnightblue" stroke="midnightblue" points="1031.14,-250.65 1038.97,-243.52 1028.4,-244.21 1031.14,-250.65"/>
</g>
<!-- Node18&#45;&gt;Node14 -->
<g id="edge31" class="edge">
<title>Node18&#45;&gt;Node14</title>
<path fill="none" stroke="midnightblue" d="M934.15,-280.08C935.87,-272.93 938.35,-262.64 940.5,-253.69"/>
<polygon fill="midnightblue" stroke="midnightblue" points="943.96,-254.29 942.89,-243.75 937.15,-252.65 943.96,-254.29"/>
</g>
<!-- Node19&#45;&gt;Node3 -->
<g id="edge35" class="edge">
<title>Node19&#45;&gt;Node3</title>
<path fill="none" stroke="midnightblue" d="M1576.32,-168.34C1566.2,-153.74 1543.49,-124.59 1516,-112 1424.9,-70.29 1117.47,-66.62 1003.76,-66.74"/>
<polygon fill="midnightblue" stroke="midnightblue" points="1003.68,-63.24 993.69,-66.76 1003.69,-70.24 1003.68,-63.24"/>
</g>
<!-- Node21 -->
<g id="node21" class="node">
<title>Node21</title>
<g id="a_node21"><a xlink:href="Button_8h.html" target="_top" xlink:title=" ">
<polygon fill="none" stroke="black" points="1314,-168.5 1314,-187.5 1372,-187.5 1372,-168.5 1314,-168.5"/>
<text text-anchor="middle" x="1343" y="-175.5" font-family="Helvetica,sans-Serif" font-size="10.00">Button.h</text>
</a>
</g>
</g>
<!-- Node20&#45;&gt;Node21 -->
<g id="edge37" class="edge">
<title>Node20&#45;&gt;Node21</title>
<path fill="none" stroke="midnightblue" d="M1134.14,-345.71C1216.82,-345.58 1372.25,-339.89 1407,-300 1435.84,-266.89 1389.71,-218.55 1361.81,-194.2"/>
<polygon fill="midnightblue" stroke="midnightblue" points="1364.06,-191.52 1354.17,-187.73 1359.54,-196.87 1364.06,-191.52"/>
</g>
<!-- Node21&#45;&gt;Node3 -->
<g id="edge38" class="edge">
<title>Node21&#45;&gt;Node3</title>
<path fill="none" stroke="midnightblue" d="M1339.9,-168.07C1334.37,-153.61 1321.33,-125.35 1300,-112 1251.47,-81.63 1083.69,-71.48 1003.86,-68.32"/>
<polygon fill="midnightblue" stroke="midnightblue" points="1003.78,-64.82 993.66,-67.94 1003.52,-71.81 1003.78,-64.82"/>
</g>
<!-- Node22&#45;&gt;Node3 -->
<g id="edge40" class="edge">
<title>Node22&#45;&gt;Node3</title>
<path fill="none" stroke="midnightblue" d="M322.11,-280.43C366.8,-272.83 431.14,-260.39 486,-244 518.3,-234.35 736.87,-144.95 768,-132 788.58,-123.44 793.09,-119.72 814,-112 849.05,-99.06 889.73,-86.82 919.39,-78.38"/>
<polygon fill="midnightblue" stroke="midnightblue" points="920.73,-81.64 929.4,-75.55 918.83,-74.9 920.73,-81.64"/>
</g>
<!-- Node22&#45;&gt;Node6 -->
<g id="edge41" class="edge">
<title>Node22&#45;&gt;Node6</title>
<path fill="none" stroke="midnightblue" d="M246.95,-280.4C191.57,-255.5 44.19,-180.7 100,-112 119.35,-88.18 199.38,-76.52 256.13,-71.15"/>
<polygon fill="midnightblue" stroke="midnightblue" points="256.79,-74.6 266.43,-70.22 256.16,-67.63 256.79,-74.6"/>
</g>
<!-- Node23 -->
<g id="node23" class="node">
<title>Node23</title>
<g id="a_node23"><a xlink:href="LedTypes_8h.html" target="_top" xlink:title=" ">
<polygon fill="none" stroke="black" points="372.5,-224.5 372.5,-243.5 477.5,-243.5 477.5,-224.5 372.5,-224.5"/>
<text text-anchor="middle" x="425" y="-231.5" font-family="Helvetica,sans-Serif" font-size="10.00">../Leds/LedTypes.h</text>
</a>
</g>
</g>
<!-- Node22&#45;&gt;Node23 -->
<g id="edge42" class="edge">
<title>Node22&#45;&gt;Node23</title>
<path fill="none" stroke="midnightblue" d="M292.04,-280.44C318.62,-271.36 360.81,-256.94 390.52,-246.78"/>
<polygon fill="midnightblue" stroke="midnightblue" points="391.75,-250.06 400.08,-243.52 389.49,-243.44 391.75,-250.06"/>
</g>
<!-- Node23&#45;&gt;Node3 -->
<g id="edge43" class="edge">
<title>Node23&#45;&gt;Node3</title>
<path fill="none" stroke="midnightblue" d="M454.02,-224.47C508.77,-208.16 630.8,-170.69 731,-132 751.42,-124.12 755.28,-119.06 776,-112 823.76,-95.73 880.34,-82.86 918.24,-75.12"/>
<polygon fill="midnightblue" stroke="midnightblue" points="919.3,-78.48 928.41,-73.08 917.92,-71.62 919.3,-78.48"/>
</g>
<!-- Node23&#45;&gt;Node6 -->
<g id="edge53" class="edge">
<title>Node23&#45;&gt;Node6</title>
<path fill="none" stroke="midnightblue" d="M423.09,-224.28C418.15,-203.18 403.27,-148.46 375,-112 365.34,-99.54 351.38,-88.79 339.37,-80.93"/>
<polygon fill="midnightblue" stroke="midnightblue" points="340.99,-77.82 330.66,-75.5 337.29,-83.76 340.99,-77.82"/>
</g>
<!-- Node23&#45;&gt;Node16 -->
<g id="edge44" class="edge">
<title>Node23&#45;&gt;Node16</title>
<path fill="none" stroke="midnightblue" d="M415.09,-224.24C405.54,-215.54 390.97,-201.58 380,-188 367.77,-172.86 355.93,-154.05 347.96,-140.56"/>
<polygon fill="midnightblue" stroke="midnightblue" points="350.93,-138.71 342.89,-131.81 344.88,-142.22 350.93,-138.71"/>
</g>
<!-- Node23&#45;&gt;Node24 -->
<g id="edge45" class="edge">
<title>Node23&#45;&gt;Node24</title>
<path fill="none" stroke="midnightblue" d="M433.09,-224.08C440.16,-216.3 450.59,-204.8 459.15,-195.37"/>
<polygon fill="midnightblue" stroke="midnightblue" points="461.93,-197.51 466.06,-187.75 456.75,-192.8 461.93,-197.51"/>
</g>
<!-- Node24&#45;&gt;Node3 -->
<g id="edge46" class="edge">
<title>Node24&#45;&gt;Node3</title>
<path fill="none" stroke="midnightblue" d="M515.67,-169.72C570.09,-160.01 662.27,-142.78 695,-132 715.02,-125.41 717.97,-118.57 738,-112 799.1,-91.94 872.68,-79.19 918.16,-72.57"/>
<polygon fill="midnightblue" stroke="midnightblue" points="918.84,-76.01 928.25,-71.14 917.86,-69.08 918.84,-76.01"/>
</g>
<!-- Node24&#45;&gt;Node6 -->
<g id="edge51" class="edge">
<title>Node24&#45;&gt;Node6</title>
<path fill="none" stroke="midnightblue" d="M466.64,-168.07C455.19,-154.61 431.92,-128.87 408,-112 389.15,-98.71 365.77,-87.42 347.17,-79.47"/>
<polygon fill="midnightblue" stroke="midnightblue" points="348.51,-76.23 337.93,-75.62 345.82,-82.7 348.51,-76.23"/>
</g>
<!-- Node25 -->
<g id="node25" class="node">
<title>Node25</title>
<g id="a_node25"><a xlink:href="ColorTypes_8h.html" target="_top" xlink:title=" ">
<polygon fill="none" stroke="black" points="564,-112.5 564,-131.5 686,-131.5 686,-112.5 564,-112.5"/>
<text text-anchor="middle" x="625" y="-119.5" font-family="Helvetica,sans-Serif" font-size="10.00">../Colors/ColorTypes.h</text>
</a>
</g>
</g>
<!-- Node24&#45;&gt;Node25 -->
<g id="edge47" class="edge">
<title>Node24&#45;&gt;Node25</title>
<path fill="none" stroke="midnightblue" d="M497.93,-168.44C523.22,-159.4 563.3,-145.06 591.68,-134.92"/>
<polygon fill="midnightblue" stroke="midnightblue" points="592.95,-138.18 601.19,-131.52 590.59,-131.59 592.95,-138.18"/>
</g>
<!-- Node26 -->
<g id="node26" class="node">
<title>Node26</title>
<g id="a_node26"><a xlink:title=" ">
<polygon fill="none" stroke="#bfbfbf" points="460.5,-112.5 460.5,-131.5 507.5,-131.5 507.5,-112.5 460.5,-112.5"/>
<text text-anchor="middle" x="484" y="-119.5" font-family="Helvetica,sans-Serif" font-size="10.00">vector</text>
</a>
</g>
</g>
<!-- Node24&#45;&gt;Node26 -->
<g id="edge52" class="edge">
<title>Node24&#45;&gt;Node26</title>
<path fill="none" stroke="midnightblue" d="M475.65,-168.08C476.98,-160.93 478.88,-150.64 480.54,-141.69"/>
<polygon fill="midnightblue" stroke="midnightblue" points="484,-142.22 482.38,-131.75 477.12,-140.95 484,-142.22"/>
</g>
<!-- Node25&#45;&gt;Node3 -->
<g id="edge48" class="edge">
<title>Node25&#45;&gt;Node3</title>
<path fill="none" stroke="midnightblue" d="M678.24,-112.44C744.71,-101.76 857.1,-83.7 918.25,-73.87"/>
<polygon fill="midnightblue" stroke="midnightblue" points="919.01,-77.29 928.33,-72.25 917.9,-70.38 919.01,-77.29"/>
</g>
<!-- Node25&#45;&gt;Node6 -->
<g id="edge49" class="edge">
<title>Node25&#45;&gt;Node6</title>
<path fill="none" stroke="midnightblue" d="M575.88,-112.44C521.04,-102.89 432.33,-87.44 373.83,-77.25"/>
<polygon fill="midnightblue" stroke="midnightblue" points="374.09,-73.74 363.64,-75.47 372.89,-80.64 374.09,-73.74"/>
</g>
<!-- Node25&#45;&gt;Node7 -->
<g id="edge50" class="edge">
<title>Node25&#45;&gt;Node7</title>
<path fill="none" stroke="midnightblue" d="M603.66,-112.37C555.69,-92.97 439.22,-45.87 383.58,-23.37"/>
<polygon fill="midnightblue" stroke="midnightblue" points="384.83,-20.1 374.24,-19.59 382.2,-26.59 384.83,-20.1"/>
</g>
<!-- Node27&#45;&gt;Node6 -->
<g id="edge56" class="edge">
<title>Node27&#45;&gt;Node6</title>
<path fill="none" stroke="midnightblue" d="M233.91,-343.98C163.7,-339.7 38,-320.15 38,-235 38,-235 38,-235 38,-177 38,-141.09 55.66,-131.21 86,-112 137.3,-79.53 207,-69.65 255.99,-67.04"/>
<polygon fill="midnightblue" stroke="midnightblue" points="256.28,-70.53 266.11,-66.59 255.96,-63.54 256.28,-70.53"/>
</g>
<!-- Node27&#45;&gt;Node22 -->
<g id="edge55" class="edge">
<title>Node27&#45;&gt;Node22</title>
<path fill="none" stroke="midnightblue" d="M277.85,-336.08C276.13,-328.93 273.65,-318.64 271.5,-309.69"/>
<polygon fill="midnightblue" stroke="midnightblue" points="274.85,-308.65 269.11,-299.75 268.04,-310.29 274.85,-308.65"/>
</g>
<!-- Node28&#45;&gt;Node3 -->
<g id="edge58" class="edge">
<title>Node28&#45;&gt;Node3</title>
<path fill="none" stroke="midnightblue" d="M1421.12,-168.29C1402.48,-153.88 1362.68,-125.36 1324,-112 1212.95,-73.65 1072.83,-67.23 1003.65,-66.61"/>
<polygon fill="midnightblue" stroke="midnightblue" points="1003.59,-63.11 993.57,-66.56 1003.55,-70.11 1003.59,-63.11"/>
</g>
<!-- Node29&#45;&gt;Node3 -->
<g id="edge65" class="edge">
<title>Node29&#45;&gt;Node3</title>
<path fill="none" stroke="midnightblue" d="M740.25,-280.35C750.99,-267.66 771.92,-243.41 791,-224 844.29,-169.79 911.67,-109.95 943.21,-82.41"/>
<polygon fill="midnightblue" stroke="midnightblue" points="945.86,-84.74 951.11,-75.54 941.27,-79.46 945.86,-84.74"/>
</g>
<!-- Node29&#45;&gt;Node6 -->
<g id="edge64" class="edge">
<title>Node29&#45;&gt;Node6</title>
<path fill="none" stroke="midnightblue" d="M725.32,-280.35C699.17,-251.48 610.02,-157.68 516,-112 470.98,-90.13 415.11,-78.72 373.71,-72.87"/>
<polygon fill="midnightblue" stroke="midnightblue" points="374.15,-69.4 363.77,-71.54 373.22,-76.34 374.15,-69.4"/>
</g>
<!-- Node29&#45;&gt;Node10 -->
<g id="edge62" class="edge">
<title>Node29&#45;&gt;Node10</title>
<path fill="none" stroke="midnightblue" d="M749.07,-280.32C764.96,-271.74 789.51,-258.49 807.96,-248.52"/>
<polygon fill="midnightblue" stroke="midnightblue" points="809.84,-251.49 816.97,-243.65 806.51,-245.33 809.84,-251.49"/>
</g>
<!-- Node29&#45;&gt;Node14 -->
<g id="edge60" class="edge">
<title>Node29&#45;&gt;Node14</title>
<path fill="none" stroke="midnightblue" d="M766.59,-280.44C803.19,-271.12 861.84,-256.18 901.83,-246"/>
<polygon fill="midnightblue" stroke="midnightblue" points="902.74,-249.38 911.57,-243.52 901.01,-242.59 902.74,-249.38"/>
</g>
<!-- Node29&#45;&gt;Node24 -->
<g id="edge63" class="edge">
<title>Node29&#45;&gt;Node24</title>
<path fill="none" stroke="midnightblue" d="M712.68,-280.37C667.1,-261.01 556.56,-214.06 503.45,-191.51"/>
<polygon fill="midnightblue" stroke="midnightblue" points="504.8,-188.28 494.23,-187.59 502.06,-194.72 504.8,-188.28"/>
</g>
<!-- Node29&#45;&gt;Node25 -->
<g id="edge61" class="edge">
<title>Node29&#45;&gt;Node25</title>
<path fill="none" stroke="midnightblue" d="M730.95,-280.16C727.73,-267.24 720.7,-242.7 710,-224 690.87,-190.58 660.24,-157.53 641.45,-138.75"/>
<polygon fill="midnightblue" stroke="midnightblue" points="643.77,-136.13 634.18,-131.62 638.87,-141.12 643.77,-136.13"/>
</g>
<!-- Node30&#45;&gt;Node3 -->
<g id="edge67" class="edge">
<title>Node30&#45;&gt;Node3</title>
<path fill="none" stroke="midnightblue" d="M591.48,-336.3C629.77,-304.67 766.09,-193.4 886,-112 902.39,-100.88 921.54,-89.41 936.4,-80.83"/>
<polygon fill="midnightblue" stroke="midnightblue" points="938.52,-83.65 945.46,-75.65 935.04,-77.57 938.52,-83.65"/>
</g>
<!-- Node30&#45;&gt;Node23 -->
<g id="edge69" class="edge">
<title>Node30&#45;&gt;Node23</title>
<path fill="none" stroke="midnightblue" d="M568.76,-336.37C542.1,-317.57 478.56,-272.77 445.61,-249.53"/>
<polygon fill="midnightblue" stroke="midnightblue" points="447.37,-246.49 437.18,-243.59 443.34,-252.21 447.37,-246.49"/>
</g>
<!-- Node30&#45;&gt;Node25 -->
<g id="edge68" class="edge">
<title>Node30&#45;&gt;Node25</title>
<path fill="none" stroke="midnightblue" d="M582.72,-336.3C589.2,-303.63 612.14,-187.87 621.24,-141.96"/>
<polygon fill="midnightblue" stroke="midnightblue" points="624.73,-142.37 623.24,-131.88 617.86,-141.01 624.73,-142.37"/>
</g>
<!-- Node30&#45;&gt;Node31 -->
<g id="edge70" class="edge">
<title>Node30&#45;&gt;Node31</title>
<path fill="none" stroke="midnightblue" d="M556.92,-336.44C531.46,-327.4 491.11,-313.06 462.54,-302.92"/>
<polygon fill="midnightblue" stroke="midnightblue" points="463.57,-299.57 452.97,-299.52 461.22,-306.16 463.57,-299.57"/>
</g>
<!-- Node31&#45;&gt;Node6 -->
<g id="edge73" class="edge">
<title>Node31&#45;&gt;Node6</title>
<path fill="none" stroke="midnightblue" d="M380.37,-282.86C323.24,-273.04 229.59,-248.29 177,-188 154.42,-162.12 142.45,-139.52 163,-112 184.42,-83.32 223.3,-72.17 256.38,-68.14"/>
<polygon fill="midnightblue" stroke="midnightblue" points="256.84,-71.61 266.43,-67.1 256.12,-64.64 256.84,-71.61"/>
</g>
<!-- Node31&#45;&gt;Node10 -->
<g id="edge72" class="edge">
<title>Node31&#45;&gt;Node10</title>
<path fill="none" stroke="midnightblue" d="M477.73,-282.49C557.51,-271.82 714.65,-250.82 790.31,-240.71"/>
<polygon fill="midnightblue" stroke="midnightblue" points="790.98,-244.15 800.43,-239.35 790.05,-237.21 790.98,-244.15"/>
</g>
<!-- Node31&#45;&gt;Node23 -->
<g id="edge71" class="edge">
<title>Node31&#45;&gt;Node23</title>
<path fill="none" stroke="midnightblue" d="M428.34,-280.08C427.82,-273.01 427.06,-262.86 426.41,-253.99"/>
<polygon fill="midnightblue" stroke="midnightblue" points="429.88,-253.47 425.65,-243.75 422.9,-253.98 429.88,-253.47"/>
</g>
</g>
</svg>
