<?xml version="1.0" encoding="UTF-8" standalone="no"?>
<!DOCTYPE svg PUBLIC "-//W3C//DTD SVG 1.1//EN"
 "http://www.w3.org/Graphics/SVG/1.1/DTD/svg11.dtd">
<!-- Generated by graphviz version 2.43.0 (0)
 -->
<!-- Title: VortexEngine/VortexLib/VortexLib.h Pages: 1 -->
<!--zoomable 487 -->
<svg id="main" version="1.1" xmlns="http://www.w3.org/2000/svg" xmlns:xlink="http://www.w3.org/1999/xlink" xml:space="preserve" onload="init(evt)">
<style type="text/css"><![CDATA[
.edge:hover path { stroke: red; }
.edge:hover polygon { stroke: red; fill: red; }
]]></style>
<script type="text/javascript"><![CDATA[
var edges = document.getElementsByTagName('g');
if (edges && edges.length) {
  for (var i=0;i<edges.length;i++) {
    if (edges[i].id.substr(0,4)=='edge') {
      edges[i].setAttribute('class','edge');
    }
  }
}
]]></script>
        <defs>
                <circle id="rim" cx="0" cy="0" r="7"/>
                <circle id="rim2" cx="0" cy="0" r="3.5"/>
                <g id="zoomPlus">
                        <use xlink:href="#rim" fill="#404040">
                                <set attributeName="fill" to="#808080" begin="zoomplus.mouseover" end="zoomplus.mouseout"/>
                        </use>
                        <path d="M-4,0h8M0,-4v8" fill="none" stroke="white" stroke-width="1.5" pointer-events="none"/>
                </g>
                <g id="zoomMin">
                        <use xlink:href="#rim" fill="#404040">
                                <set attributeName="fill" to="#808080" begin="zoomminus.mouseover" end="zoomminus.mouseout"/>
                        </use>
                        <path d="M-4,0h8" fill="none" stroke="white" stroke-width="1.5" pointer-events="none"/>
                </g>
                <g id="dirArrow">
                        <path fill="none" stroke="white" stroke-width="1.5" d="M0,-3.0v7 M-2.5,-0.5L0,-3.0L2.5,-0.5"/>
                </g>
               <g id="resetDef">
                       <use xlink:href="#rim2" fill="#404040">
                               <set attributeName="fill" to="#808080" begin="reset.mouseover" end="reset.mouseout"/>
                       </use>
               </g>
        </defs>

<script type="text/javascript">
var viewWidth = 1879;
var viewHeight = 487;
var sectionId = 'dynsection-0';
</script>
<script xlink:href="svgpan.js"/>
<svg id="graph" class="graph">
<g id="viewport">
<title>VortexEngine/VortexLib/VortexLib.h</title>
<!-- Node1 -->
<g id="node1" class="node">
<title>Node1</title>
<g id="a_node1"><a xlink:title=" ">
<polygon fill="#bfbfbf" stroke="black" points="1464,-448.5 1464,-478.5 1594,-478.5 1594,-448.5 1464,-448.5"/>
<text text-anchor="start" x="1472" y="-466.5" font-family="Helvetica,sans-Serif" font-size="10.00">VortexEngine/VortexLib</text>
<text text-anchor="middle" x="1529" y="-455.5" font-family="Helvetica,sans-Serif" font-size="10.00">/VortexLib.h</text>
</a>
</g>
</g>
<!-- Node2 -->
<g id="node2" class="node">
<title>Node2</title>
<g id="a_node2"><a xlink:href="VortexEngine_8h.html" target="_top" xlink:title=" ">
<polygon fill="none" stroke="black" points="773,-392.5 773,-411.5 863,-411.5 863,-392.5 773,-392.5"/>
<text text-anchor="middle" x="818" y="-399.5" font-family="Helvetica,sans-Serif" font-size="10.00">VortexEngine.h</text>
</a>
</g>
</g>
<!-- Node1&#45;&gt;Node2 -->
<g id="edge1" class="edge">
<title>Node1&#45;&gt;Node2</title>
<path fill="none" stroke="midnightblue" d="M1463.7,-457.04C1324.99,-445.43 1003.07,-418.49 873.5,-407.64"/>
<polygon fill="midnightblue" stroke="midnightblue" points="873.66,-404.15 863.41,-406.8 873.08,-411.12 873.66,-404.15"/>
</g>
<!-- Node3 -->
<g id="node3" class="node">
<title>Node3</title>
<g id="a_node3"><a xlink:title=" ">
<polygon fill="none" stroke="#bfbfbf" points="598.5,-56.5 598.5,-75.5 663.5,-75.5 663.5,-56.5 598.5,-56.5"/>
<text text-anchor="middle" x="631" y="-63.5" font-family="Helvetica,sans-Serif" font-size="10.00">inttypes.h</text>
</a>
</g>
</g>
<!-- Node1&#45;&gt;Node3 -->
<g id="edge78" class="edge">
<title>Node1&#45;&gt;Node3</title>
<path fill="none" stroke="midnightblue" d="M1463.79,-461.04C1171.95,-454.1 0,-421.58 0,-347 0,-347 0,-347 0,-177 0,-136.77 26.6,-129.14 63,-112 155.97,-68.23 472.15,-65.86 588,-66.53"/>
<polygon fill="midnightblue" stroke="midnightblue" points="588.23,-70.03 598.26,-66.6 588.28,-63.03 588.23,-70.03"/>
</g>
<!-- Node7 -->
<g id="node7" class="node">
<title>Node7</title>
<g id="a_node7"><a xlink:href="Patterns_8h.html" target="_top" xlink:title=" ">
<polygon fill="none" stroke="black" points="160.5,-168.5 160.5,-187.5 225.5,-187.5 225.5,-168.5 160.5,-168.5"/>
<text text-anchor="middle" x="193" y="-175.5" font-family="Helvetica,sans-Serif" font-size="10.00">Patterns.h</text>
</a>
</g>
</g>
<!-- Node1&#45;&gt;Node7 -->
<g id="edge73" class="edge">
<title>Node1&#45;&gt;Node7</title>
<path fill="none" stroke="midnightblue" d="M1463.84,-460.39C1193.97,-451.21 178,-412.32 178,-347 178,-347 178,-347 178,-289 178,-256.5 184.51,-219.1 188.95,-197.34"/>
<polygon fill="midnightblue" stroke="midnightblue" points="192.39,-198.01 191.04,-187.5 185.54,-196.56 192.39,-198.01"/>
</g>
<!-- Node22 -->
<g id="node22" class="node">
<title>Node22</title>
<g id="a_node22"><a xlink:href="LedTypes_8h.html" target="_top" xlink:title=" ">
<polygon fill="none" stroke="black" points="1249.5,-224.5 1249.5,-243.5 1354.5,-243.5 1354.5,-224.5 1249.5,-224.5"/>
<text text-anchor="middle" x="1302" y="-231.5" font-family="Helvetica,sans-Serif" font-size="10.00">../Leds/LedTypes.h</text>
</a>
</g>
</g>
<!-- Node1&#45;&gt;Node22 -->
<g id="edge76" class="edge">
<title>Node1&#45;&gt;Node22</title>
<path fill="none" stroke="midnightblue" d="M1521.87,-448.32C1504.5,-414.99 1456.89,-330.64 1396,-280 1378.82,-265.71 1356.35,-254.74 1337.68,-247.21"/>
<polygon fill="midnightblue" stroke="midnightblue" points="1338.9,-243.93 1328.32,-243.58 1336.38,-250.46 1338.9,-243.93"/>
</g>
<!-- Node25 -->
<g id="node25" class="node">
<title>Node25</title>
<g id="a_node25"><a xlink:title=" ">
<polygon fill="none" stroke="#bfbfbf" points="1345.5,-112.5 1345.5,-131.5 1392.5,-131.5 1392.5,-112.5 1345.5,-112.5"/>
<text text-anchor="middle" x="1369" y="-119.5" font-family="Helvetica,sans-Serif" font-size="10.00">vector</text>
</a>
</g>
</g>
<!-- Node1&#45;&gt;Node25 -->
<g id="edge79" class="edge">
<title>Node1&#45;&gt;Node25</title>
<path fill="none" stroke="midnightblue" d="M1525.91,-448.44C1522.52,-434.01 1516.56,-411.04 1509,-392 1469.59,-292.8 1404.79,-182 1379.54,-140.2"/>
<polygon fill="midnightblue" stroke="midnightblue" points="1382.45,-138.25 1374.26,-131.52 1376.46,-141.88 1382.45,-138.25"/>
</g>
<!-- Node31 -->
<g id="node31" class="node">
<title>Node31</title>
<g id="a_node31"><a xlink:href="Random_8h.html" target="_top" xlink:title=" ">
<polygon fill="none" stroke="black" points="1557,-392.5 1557,-411.5 1667,-411.5 1667,-392.5 1557,-392.5"/>
<text text-anchor="middle" x="1612" y="-399.5" font-family="Helvetica,sans-Serif" font-size="10.00">Random/Random.h</text>
</a>
</g>
</g>
<!-- Node1&#45;&gt;Node31 -->
<g id="edge74" class="edge">
<title>Node1&#45;&gt;Node31</title>
<path fill="none" stroke="midnightblue" d="M1548.67,-448.4C1561.6,-439.13 1578.49,-427.03 1591.57,-417.65"/>
<polygon fill="midnightblue" stroke="midnightblue" points="1593.83,-420.33 1599.92,-411.66 1589.76,-414.64 1593.83,-420.33"/>
</g>
<!-- Node33 -->
<g id="node33" class="node">
<title>Node33</title>
<g id="a_node33"><a xlink:title=" ">
<polygon fill="none" stroke="#bfbfbf" points="1685,-392.5 1685,-411.5 1743,-411.5 1743,-392.5 1685,-392.5"/>
<text text-anchor="middle" x="1714" y="-399.5" font-family="Helvetica,sans-Serif" font-size="10.00">json.hpp</text>
</a>
</g>
</g>
<!-- Node1&#45;&gt;Node33 -->
<g id="edge77" class="edge">
<title>Node1&#45;&gt;Node33</title>
<path fill="none" stroke="midnightblue" d="M1572.84,-448.4C1604.81,-438.12 1647.62,-424.35 1677.68,-414.68"/>
<polygon fill="midnightblue" stroke="midnightblue" points="1678.9,-417.96 1687.35,-411.57 1676.76,-411.3 1678.9,-417.96"/>
</g>
<!-- Node34 -->
<g id="node34" class="node">
<title>Node34</title>
<g id="a_node34"><a xlink:title=" ">
<polygon fill="none" stroke="#bfbfbf" points="1761,-392.5 1761,-411.5 1805,-411.5 1805,-392.5 1761,-392.5"/>
<text text-anchor="middle" x="1783" y="-399.5" font-family="Helvetica,sans-Serif" font-size="10.00">string</text>
</a>
</g>
</g>
<!-- Node1&#45;&gt;Node34 -->
<g id="edge80" class="edge">
<title>Node1&#45;&gt;Node34</title>
<path fill="none" stroke="midnightblue" d="M1594.14,-448.83C1636.39,-439.71 1692.82,-427.06 1750.97,-412.16"/>
<polygon fill="midnightblue" stroke="midnightblue" points="1751.88,-415.54 1760.69,-409.65 1750.14,-408.76 1751.88,-415.54"/>
</g>
<!-- Node35 -->
<g id="node35" class="node">
<title>Node35</title>
<g id="a_node35"><a xlink:title=" ">
<polygon fill="none" stroke="#bfbfbf" points="1823.5,-392.5 1823.5,-411.5 1870.5,-411.5 1870.5,-392.5 1823.5,-392.5"/>
<text text-anchor="middle" x="1847" y="-399.5" font-family="Helvetica,sans-Serif" font-size="10.00">deque</text>
</a>
</g>
</g>
<!-- Node1&#45;&gt;Node35 -->
<g id="edge81" class="edge">
<title>Node1&#45;&gt;Node35</title>
<path fill="none" stroke="midnightblue" d="M1594.14,-452.69C1649.86,-443.9 1732.36,-429.95 1813.4,-411.96"/>
<polygon fill="midnightblue" stroke="midnightblue" points="1814.28,-415.35 1823.27,-409.75 1812.75,-408.52 1814.28,-415.35"/>
</g>
<!-- Node2&#45;&gt;Node3 -->
<g id="edge2" class="edge">
<title>Node2&#45;&gt;Node3</title>
<path fill="none" stroke="midnightblue" d="M772.98,-399.43C606.87,-393.05 38,-365.75 38,-291 38,-291 38,-291 38,-177 38,-115.56 101.17,-129.71 160,-112 239.58,-88.05 487.6,-73.85 588.08,-68.95"/>
<polygon fill="midnightblue" stroke="midnightblue" points="588.36,-72.44 598.18,-68.46 588.02,-65.44 588.36,-72.44"/>
</g>
<!-- Node4 -->
<g id="node4" class="node">
<title>Node4</title>
<g id="a_node4"><a xlink:href="VortexConfig_8h.html" target="_top" xlink:title=" ">
<polygon fill="none" stroke="black" points="1235,-56.5 1235,-75.5 1323,-75.5 1323,-56.5 1235,-56.5"/>
<text text-anchor="middle" x="1279" y="-63.5" font-family="Helvetica,sans-Serif" font-size="10.00">VortexConfig.h</text>
</a>
</g>
</g>
<!-- Node2&#45;&gt;Node4 -->
<g id="edge3" class="edge">
<title>Node2&#45;&gt;Node4</title>
<path fill="none" stroke="midnightblue" d="M863.01,-399.84C989.44,-396.26 1341.42,-383.86 1385,-356 1478.66,-296.12 1521.33,-187.79 1440,-112 1411.21,-85.17 1367.74,-74.13 1333.22,-69.69"/>
<polygon fill="midnightblue" stroke="midnightblue" points="1333.62,-66.22 1323.29,-68.56 1332.83,-73.17 1333.62,-66.22"/>
</g>
<!-- Node6 -->
<g id="node6" class="node">
<title>Node6</title>
<g id="a_node6"><a xlink:href="PatternBuilder_8h.html" target="_top" xlink:title=" ">
<polygon fill="none" stroke="black" points="206.5,-280.5 206.5,-299.5 343.5,-299.5 343.5,-280.5 206.5,-280.5"/>
<text text-anchor="middle" x="275" y="-287.5" font-family="Helvetica,sans-Serif" font-size="10.00">Patterns/PatternBuilder.h</text>
</a>
</g>
</g>
<!-- Node2&#45;&gt;Node6 -->
<g id="edge5" class="edge">
<title>Node2&#45;&gt;Node6</title>
<path fill="none" stroke="midnightblue" d="M772.67,-399.78C671.95,-396.54 432.58,-385.87 358,-356 330.8,-345.11 305.16,-322.42 289.77,-306.95"/>
<polygon fill="midnightblue" stroke="midnightblue" points="292.16,-304.38 282.7,-299.61 287.12,-309.24 292.16,-304.38"/>
</g>
<!-- Node8 -->
<g id="node8" class="node">
<title>Node8</title>
<g id="a_node8"><a xlink:href="IRReceiver_8h.html" target="_top" xlink:title=" ">
<polygon fill="none" stroke="black" points="358,-224.5 358,-243.5 480,-243.5 480,-224.5 358,-224.5"/>
<text text-anchor="middle" x="419" y="-231.5" font-family="Helvetica,sans-Serif" font-size="10.00">Wireless/IRReceiver.h</text>
</a>
</g>
</g>
<!-- Node2&#45;&gt;Node8 -->
<g id="edge8" class="edge">
<title>Node2&#45;&gt;Node8</title>
<path fill="none" stroke="midnightblue" d="M797.39,-392.42C731.72,-365.1 527.17,-280 449.41,-247.65"/>
<polygon fill="midnightblue" stroke="midnightblue" points="450.31,-244.23 439.73,-243.62 447.62,-250.7 450.31,-244.23"/>
</g>
<!-- Node11 -->
<g id="node11" class="node">
<title>Node11</title>
<g id="a_node11"><a xlink:href="IRSender_8h.html" target="_top" xlink:title=" ">
<polygon fill="none" stroke="black" points="498.5,-224.5 498.5,-243.5 611.5,-243.5 611.5,-224.5 498.5,-224.5"/>
<text text-anchor="middle" x="555" y="-231.5" font-family="Helvetica,sans-Serif" font-size="10.00">Wireless/IRSender.h</text>
</a>
</g>
</g>
<!-- Node2&#45;&gt;Node11 -->
<g id="edge13" class="edge">
<title>Node2&#45;&gt;Node11</title>
<path fill="none" stroke="midnightblue" d="M804.23,-392.31C761.36,-365.25 629.98,-282.32 577.24,-249.04"/>
<polygon fill="midnightblue" stroke="midnightblue" points="578.96,-245.98 568.63,-243.61 575.22,-251.9 578.96,-245.98"/>
</g>
<!-- Node13 -->
<g id="node13" class="node">
<title>Node13</title>
<g id="a_node13"><a xlink:href="Log_8h.html" target="_top" xlink:title=" ">
<polygon fill="none" stroke="black" points="1525,-112.5 1525,-131.5 1597,-131.5 1597,-112.5 1525,-112.5"/>
<text text-anchor="middle" x="1561" y="-119.5" font-family="Helvetica,sans-Serif" font-size="10.00">../Log/Log.h</text>
</a>
</g>
</g>
<!-- Node2&#45;&gt;Node13 -->
<g id="edge72" class="edge">
<title>Node2&#45;&gt;Node13</title>
<path fill="none" stroke="midnightblue" d="M863.24,-400.26C988.56,-397.83 1338.19,-388.25 1448,-356 1505.82,-339.02 1567,-351.26 1567,-291 1567,-291 1567,-291 1567,-233 1567,-200.9 1564.42,-163.61 1562.64,-141.73"/>
<polygon fill="midnightblue" stroke="midnightblue" points="1566.11,-141.22 1561.78,-131.55 1559.14,-141.81 1566.11,-141.22"/>
</g>
<!-- Node15 -->
<g id="node15" class="node">
<title>Node15</title>
<g id="a_node15"><a xlink:href="VLReceiver_8h.html" target="_top" xlink:title=" ">
<polygon fill="none" stroke="black" points="629.5,-224.5 629.5,-243.5 754.5,-243.5 754.5,-224.5 629.5,-224.5"/>
<text text-anchor="middle" x="692" y="-231.5" font-family="Helvetica,sans-Serif" font-size="10.00">Wireless/VLReceiver.h</text>
</a>
</g>
</g>
<!-- Node2&#45;&gt;Node15 -->
<g id="edge21" class="edge">
<title>Node2&#45;&gt;Node15</title>
<path fill="none" stroke="midnightblue" d="M811.23,-392.08C791.05,-365.49 731.12,-286.54 704.72,-251.76"/>
<polygon fill="midnightblue" stroke="midnightblue" points="707.34,-249.42 698.5,-243.57 701.76,-253.65 707.34,-249.42"/>
</g>
<!-- Node17 -->
<g id="node17" class="node">
<title>Node17</title>
<g id="a_node17"><a xlink:href="VLSender_8h.html" target="_top" xlink:title=" ">
<polygon fill="none" stroke="black" points="811,-224.5 811,-243.5 927,-243.5 927,-224.5 811,-224.5"/>
<text text-anchor="middle" x="869" y="-231.5" font-family="Helvetica,sans-Serif" font-size="10.00">Wireless/VLSender.h</text>
</a>
</g>
</g>
<!-- Node2&#45;&gt;Node17 -->
<g id="edge26" class="edge">
<title>Node2&#45;&gt;Node17</title>
<path fill="none" stroke="midnightblue" d="M820.74,-392.08C828.77,-365.95 852.34,-289.21 863.29,-253.58"/>
<polygon fill="midnightblue" stroke="midnightblue" points="866.78,-254.16 866.37,-243.57 860.09,-252.1 866.78,-254.16"/>
</g>
<!-- Node18 -->
<g id="node18" class="node">
<title>Node18</title>
<g id="a_node18"><a xlink:href="Storage_8h.html" target="_top" xlink:title=" ">
<polygon fill="none" stroke="black" points="211,-112.5 211,-131.5 315,-131.5 315,-112.5 211,-112.5"/>
<text text-anchor="middle" x="263" y="-119.5" font-family="Helvetica,sans-Serif" font-size="10.00">Storage/Storage.h</text>
</a>
</g>
</g>
<!-- Node2&#45;&gt;Node18 -->
<g id="edge30" class="edge">
<title>Node2&#45;&gt;Node18</title>
<path fill="none" stroke="midnightblue" d="M772.7,-401.15C677.56,-400.68 460.71,-395.19 400,-356 394.76,-352.62 303.6,-193.92 272.96,-140.41"/>
<polygon fill="midnightblue" stroke="midnightblue" points="275.98,-138.64 267.97,-131.7 269.9,-142.12 275.98,-138.64"/>
</g>
<!-- Node19 -->
<g id="node19" class="node">
<title>Node19</title>
<g id="a_node19"><a xlink:href="Buttons_8h.html" target="_top" xlink:title=" ">
<polygon fill="none" stroke="black" points="409,-336.5 409,-355.5 513,-355.5 513,-336.5 409,-336.5"/>
<text text-anchor="middle" x="461" y="-343.5" font-family="Helvetica,sans-Serif" font-size="10.00">Buttons/Buttons.h</text>
</a>
</g>
</g>
<!-- Node2&#45;&gt;Node19 -->
<g id="edge32" class="edge">
<title>Node2&#45;&gt;Node19</title>
<path fill="none" stroke="midnightblue" d="M772.79,-394.16C709.57,-384.6 594.54,-367.2 523.26,-356.42"/>
<polygon fill="midnightblue" stroke="midnightblue" points="523.48,-352.91 513.07,-354.88 522.43,-359.83 523.48,-352.91"/>
</g>
<!-- Node21 -->
<g id="node21" class="node">
<title>Node21</title>
<g id="a_node21"><a xlink:href="TimeControl_8h.html" target="_top" xlink:title=" ">
<polygon fill="none" stroke="black" points="1273.5,-280.5 1273.5,-299.5 1386.5,-299.5 1386.5,-280.5 1273.5,-280.5"/>
<text text-anchor="middle" x="1330" y="-287.5" font-family="Helvetica,sans-Serif" font-size="10.00">Time/TimeControl.h</text>
</a>
</g>
</g>
<!-- Node2&#45;&gt;Node21 -->
<g id="edge35" class="edge">
<title>Node2&#45;&gt;Node21</title>
<path fill="none" stroke="midnightblue" d="M863.18,-397.03C924.6,-391.07 1037.62,-378.08 1132,-356 1191.99,-341.97 1259.78,-317.84 1298.45,-303.26"/>
<polygon fill="midnightblue" stroke="midnightblue" points="1299.99,-306.42 1308.09,-299.6 1297.5,-299.88 1299.99,-306.42"/>
</g>
<!-- Node23 -->
<g id="node23" class="node">
<title>Node23</title>
<g id="a_node23"><a xlink:href="Leds_8h.html" target="_top" xlink:title=" ">
<polygon fill="none" stroke="black" points="1157.5,-168.5 1157.5,-187.5 1240.5,-187.5 1240.5,-168.5 1157.5,-168.5"/>
<text text-anchor="middle" x="1199" y="-175.5" font-family="Helvetica,sans-Serif" font-size="10.00">../Leds/Leds.h</text>
</a>
</g>
</g>
<!-- Node2&#45;&gt;Node23 -->
<g id="edge71" class="edge">
<title>Node2&#45;&gt;Node23</title>
<path fill="none" stroke="midnightblue" d="M863.12,-397.77C926.75,-392.41 1038.71,-379.86 1071,-356 1101.53,-333.44 1088.62,-311.37 1110,-280 1132.23,-247.39 1163.86,-213.85 1182.81,-194.8"/>
<polygon fill="midnightblue" stroke="midnightblue" points="1185.47,-197.1 1190.1,-187.57 1180.54,-192.13 1185.47,-197.1"/>
</g>
<!-- Node26 -->
<g id="node26" class="node">
<title>Node26</title>
<g id="a_node26"><a xlink:href="Timings_8h.html" target="_top" xlink:title=" ">
<polygon fill="none" stroke="black" points="1284,-336.5 1284,-355.5 1376,-355.5 1376,-336.5 1284,-336.5"/>
<text text-anchor="middle" x="1330" y="-343.5" font-family="Helvetica,sans-Serif" font-size="10.00">Time/Timings.h</text>
</a>
</g>
</g>
<!-- Node2&#45;&gt;Node26 -->
<g id="edge50" class="edge">
<title>Node2&#45;&gt;Node26</title>
<path fill="none" stroke="midnightblue" d="M863.44,-396.21C957.13,-386.33 1171.58,-363.71 1273.8,-352.93"/>
<polygon fill="midnightblue" stroke="midnightblue" points="1274.35,-356.39 1283.93,-351.86 1273.62,-349.43 1274.35,-356.39"/>
</g>
<!-- Node27 -->
<g id="node27" class="node">
<title>Node27</title>
<g id="a_node27"><a xlink:href="Serial_8h.html" target="_top" xlink:title=" ">
<polygon fill="none" stroke="black" points="66,-280.5 66,-299.5 150,-299.5 150,-280.5 66,-280.5"/>
<text text-anchor="middle" x="108" y="-287.5" font-family="Helvetica,sans-Serif" font-size="10.00">Serial/Serial.h</text>
</a>
</g>
</g>
<!-- Node2&#45;&gt;Node27 -->
<g id="edge53" class="edge">
<title>Node2&#45;&gt;Node27</title>
<path fill="none" stroke="midnightblue" d="M772.77,-399.98C685.04,-397.33 486,-388 322,-356 256.16,-343.16 181.73,-318.05 140.28,-303.07"/>
<polygon fill="midnightblue" stroke="midnightblue" points="141.32,-299.73 130.73,-299.59 138.92,-306.3 141.32,-299.73"/>
</g>
<!-- Node28 -->
<g id="node28" class="node">
<title>Node28</title>
<g id="a_node28"><a xlink:href="Modes_8h.html" target="_top" xlink:title=" ">
<polygon fill="none" stroke="black" points="983.5,-224.5 983.5,-243.5 1076.5,-243.5 1076.5,-224.5 983.5,-224.5"/>
<text text-anchor="middle" x="1030" y="-231.5" font-family="Helvetica,sans-Serif" font-size="10.00">Modes/Modes.h</text>
</a>
</g>
</g>
<!-- Node2&#45;&gt;Node28 -->
<g id="edge55" class="edge">
<title>Node2&#45;&gt;Node28</title>
<path fill="none" stroke="midnightblue" d="M829.1,-392.31C863.37,-365.47 967.81,-283.69 1011,-249.88"/>
<polygon fill="midnightblue" stroke="midnightblue" points="1013.29,-252.53 1019.01,-243.61 1008.98,-247.01 1013.29,-252.53"/>
</g>
<!-- Node29 -->
<g id="node29" class="node">
<title>Node29</title>
<g id="a_node29"><a xlink:href="Menus_8h.html" target="_top" xlink:title=" ">
<polygon fill="none" stroke="black" points="969.5,-336.5 969.5,-355.5 1062.5,-355.5 1062.5,-336.5 969.5,-336.5"/>
<text text-anchor="middle" x="1016" y="-343.5" font-family="Helvetica,sans-Serif" font-size="10.00">Menus/Menus.h</text>
</a>
</g>
</g>
<!-- Node2&#45;&gt;Node29 -->
<g id="edge62" class="edge">
<title>Node2&#45;&gt;Node29</title>
<path fill="none" stroke="midnightblue" d="M849.37,-392.44C883.26,-383.2 937.4,-368.44 974.72,-358.26"/>
<polygon fill="midnightblue" stroke="midnightblue" points="976.05,-361.52 984.77,-355.52 974.2,-354.77 976.05,-361.52"/>
</g>
<!-- Node30 -->
<g id="node30" class="node">
<title>Node30</title>
<g id="a_node30"><a xlink:href="Mode_8h.html" target="_top" xlink:title=" ">
<polygon fill="none" stroke="black" points="1119.5,-280.5 1119.5,-299.5 1216.5,-299.5 1216.5,-280.5 1119.5,-280.5"/>
<text text-anchor="middle" x="1168" y="-287.5" font-family="Helvetica,sans-Serif" font-size="10.00">../Modes/Mode.h</text>
</a>
</g>
</g>
<!-- Node2&#45;&gt;Node30 -->
<g id="edge70" class="edge">
<title>Node2&#45;&gt;Node30</title>
<path fill="none" stroke="midnightblue" d="M863.28,-397.42C933.21,-391.3 1063.75,-377.38 1105,-356 1126.49,-344.86 1144.93,-323.59 1156.21,-308.42"/>
<polygon fill="midnightblue" stroke="midnightblue" points="1159.32,-310.08 1162.27,-299.9 1153.62,-306.02 1159.32,-310.08"/>
</g>
<!-- Node5 -->
<g id="node5" class="node">
<title>Node5</title>
<g id="a_node5"><a xlink:href="ColorConstants_8h.html" target="_top" xlink:title=" ">
<polygon fill="none" stroke="black" points="1143,-0.5 1143,-19.5 1277,-19.5 1277,-0.5 1143,-0.5"/>
<text text-anchor="middle" x="1210" y="-7.5" font-family="Helvetica,sans-Serif" font-size="10.00">Colors/ColorConstants.h</text>
</a>
</g>
</g>
<!-- Node4&#45;&gt;Node5 -->
<g id="edge4" class="edge">
<title>Node4&#45;&gt;Node5</title>
<path fill="none" stroke="midnightblue" d="M1267.91,-56.32C1257.51,-48.18 1241.74,-35.84 1229.28,-26.09"/>
<polygon fill="midnightblue" stroke="midnightblue" points="1231.32,-23.24 1221.29,-19.83 1227.01,-28.75 1231.32,-23.24"/>
</g>
<!-- Node6&#45;&gt;Node7 -->
<g id="edge6" class="edge">
<title>Node6&#45;&gt;Node7</title>
<path fill="none" stroke="midnightblue" d="M268.2,-280.44C261.08,-271.44 249.62,-256.83 240,-244 227.92,-227.89 214.48,-209.24 205.09,-196.06"/>
<polygon fill="midnightblue" stroke="midnightblue" points="207.94,-194.02 199.29,-187.9 202.23,-198.08 207.94,-194.02"/>
</g>
<!-- Node7&#45;&gt;Node3 -->
<g id="edge7" class="edge">
<title>Node7&#45;&gt;Node3</title>
<path fill="none" stroke="midnightblue" d="M191.23,-168.38C188.92,-154.37 186.77,-126.73 202,-112 229.42,-85.48 484.95,-72.67 588.11,-68.54"/>
<polygon fill="midnightblue" stroke="midnightblue" points="588.33,-72.04 598.19,-68.15 588.06,-65.04 588.33,-72.04"/>
</g>
<!-- Node8&#45;&gt;Node3 -->
<g id="edge9" class="edge">
<title>Node8&#45;&gt;Node3</title>
<path fill="none" stroke="midnightblue" d="M419.41,-224.44C420.47,-210.99 424.29,-184.73 438,-168 477.03,-120.38 544.48,-92.48 588.42,-78.47"/>
<polygon fill="midnightblue" stroke="midnightblue" points="589.7,-81.74 598.23,-75.45 587.64,-75.05 589.7,-81.74"/>
</g>
<!-- Node9 -->
<g id="node9" class="node">
<title>Node9</title>
<g id="a_node9"><a xlink:href="BitStream_8h.html" target="_top" xlink:title=" ">
<polygon fill="none" stroke="black" points="531,-168.5 531,-187.5 645,-187.5 645,-168.5 531,-168.5"/>
<text text-anchor="middle" x="588" y="-175.5" font-family="Helvetica,sans-Serif" font-size="10.00">../Serial/BitStream.h</text>
</a>
</g>
</g>
<!-- Node8&#45;&gt;Node9 -->
<g id="edge10" class="edge">
<title>Node8&#45;&gt;Node9</title>
<path fill="none" stroke="midnightblue" d="M445.78,-224.44C474.33,-215.32 519.73,-200.81 551.54,-190.65"/>
<polygon fill="midnightblue" stroke="midnightblue" points="552.89,-193.89 561.35,-187.52 550.76,-187.23 552.89,-193.89"/>
</g>
<!-- Node10 -->
<g id="node10" class="node">
<title>Node10</title>
<g id="a_node10"><a xlink:href="IRConfig_8h.html" target="_top" xlink:title=" ">
<polygon fill="none" stroke="black" points="447,-168.5 447,-187.5 513,-187.5 513,-168.5 447,-168.5"/>
<text text-anchor="middle" x="480" y="-175.5" font-family="Helvetica,sans-Serif" font-size="10.00">IRConfig.h</text>
</a>
</g>
</g>
<!-- Node8&#45;&gt;Node10 -->
<g id="edge12" class="edge">
<title>Node8&#45;&gt;Node10</title>
<path fill="none" stroke="midnightblue" d="M428.8,-224.32C437.82,-216.34 451.41,-204.31 462.32,-194.65"/>
<polygon fill="midnightblue" stroke="midnightblue" points="464.85,-197.08 470.02,-187.83 460.21,-191.84 464.85,-197.08"/>
</g>
<!-- Node9&#45;&gt;Node3 -->
<g id="edge11" class="edge">
<title>Node9&#45;&gt;Node3</title>
<path fill="none" stroke="midnightblue" d="M591.37,-168.37C598.38,-150.46 614.61,-108.92 623.98,-84.95"/>
<polygon fill="midnightblue" stroke="midnightblue" points="627.26,-86.18 627.64,-75.59 620.74,-83.63 627.26,-86.18"/>
</g>
<!-- Node11&#45;&gt;Node9 -->
<g id="edge19" class="edge">
<title>Node11&#45;&gt;Node9</title>
<path fill="none" stroke="midnightblue" d="M560.45,-224.08C565.01,-216.61 571.67,-205.72 577.29,-196.52"/>
<polygon fill="midnightblue" stroke="midnightblue" points="580.42,-198.11 582.65,-187.75 574.45,-194.46 580.42,-198.11"/>
</g>
<!-- Node11&#45;&gt;Node10 -->
<g id="edge20" class="edge">
<title>Node11&#45;&gt;Node10</title>
<path fill="none" stroke="midnightblue" d="M542.95,-224.32C531.54,-216.11 514.17,-203.6 500.57,-193.81"/>
<polygon fill="midnightblue" stroke="midnightblue" points="502.43,-190.84 492.27,-187.83 498.34,-196.52 502.43,-190.84"/>
</g>
<!-- Node12 -->
<g id="node12" class="node">
<title>Node12</title>
<g id="a_node12"><a xlink:href="ByteStream_8h.html" target="_top" xlink:title=" ">
<polygon fill="none" stroke="black" points="863.5,-168.5 863.5,-187.5 986.5,-187.5 986.5,-168.5 863.5,-168.5"/>
<text text-anchor="middle" x="925" y="-175.5" font-family="Helvetica,sans-Serif" font-size="10.00">../Serial/ByteStream.h</text>
</a>
</g>
</g>
<!-- Node11&#45;&gt;Node12 -->
<g id="edge14" class="edge">
<title>Node11&#45;&gt;Node12</title>
<path fill="none" stroke="midnightblue" d="M611.6,-224.74C677.39,-215.14 785.95,-199.29 856.46,-189"/>
<polygon fill="midnightblue" stroke="midnightblue" points="857.19,-192.43 866.58,-187.53 856.18,-185.51 857.19,-192.43"/>
</g>
<!-- Node12&#45;&gt;Node3 -->
<g id="edge15" class="edge">
<title>Node12&#45;&gt;Node3</title>
<path fill="none" stroke="midnightblue" d="M917.57,-168.26C904.98,-154.08 878,-126.21 849,-112 792.33,-84.24 719.27,-73.58 673.78,-69.51"/>
<polygon fill="midnightblue" stroke="midnightblue" points="673.92,-66.01 663.67,-68.67 673.34,-72.98 673.92,-66.01"/>
</g>
<!-- Node12&#45;&gt;Node13 -->
<g id="edge16" class="edge">
<title>Node12&#45;&gt;Node13</title>
<path fill="none" stroke="midnightblue" d="M986.56,-171.77C1113.53,-160.99 1401.99,-136.5 1514.68,-126.93"/>
<polygon fill="midnightblue" stroke="midnightblue" points="1515.04,-130.42 1524.71,-126.08 1514.45,-123.44 1515.04,-130.42"/>
</g>
<!-- Node13&#45;&gt;Node4 -->
<g id="edge18" class="edge">
<title>Node13&#45;&gt;Node4</title>
<path fill="none" stroke="midnightblue" d="M1525,-114.11C1476.49,-104.82 1389.74,-88.21 1333.3,-77.4"/>
<polygon fill="midnightblue" stroke="midnightblue" points="1333.6,-73.89 1323.12,-75.45 1332.29,-80.77 1333.6,-73.89"/>
</g>
<!-- Node14 -->
<g id="node14" class="node">
<title>Node14</title>
<g id="a_node14"><a xlink:title=" ">
<polygon fill="none" stroke="#bfbfbf" points="1565,-56.5 1565,-75.5 1621,-75.5 1621,-56.5 1565,-56.5"/>
<text text-anchor="middle" x="1593" y="-63.5" font-family="Helvetica,sans-Serif" font-size="10.00">stdarg.h</text>
</a>
</g>
</g>
<!-- Node13&#45;&gt;Node14 -->
<g id="edge17" class="edge">
<title>Node13&#45;&gt;Node14</title>
<path fill="none" stroke="midnightblue" d="M1566.28,-112.08C1570.71,-104.61 1577.16,-93.72 1582.62,-84.52"/>
<polygon fill="midnightblue" stroke="midnightblue" points="1585.73,-86.14 1587.81,-75.75 1579.71,-82.57 1585.73,-86.14"/>
</g>
<!-- Node15&#45;&gt;Node3 -->
<g id="edge22" class="edge">
<title>Node15&#45;&gt;Node3</title>
<path fill="none" stroke="midnightblue" d="M688.72,-224.08C679.08,-197.83 650.68,-120.55 637.66,-85.12"/>
<polygon fill="midnightblue" stroke="midnightblue" points="640.88,-83.75 634.15,-75.57 634.31,-86.16 640.88,-83.75"/>
</g>
<!-- Node15&#45;&gt;Node9 -->
<g id="edge23" class="edge">
<title>Node15&#45;&gt;Node9</title>
<path fill="none" stroke="midnightblue" d="M675.29,-224.32C658.69,-215.7 633,-202.36 613.78,-192.39"/>
<polygon fill="midnightblue" stroke="midnightblue" points="615.16,-189.16 604.67,-187.65 611.93,-195.37 615.16,-189.16"/>
</g>
<!-- Node16 -->
<g id="node16" class="node">
<title>Node16</title>
<g id="a_node16"><a xlink:href="VLConfig_8h.html" target="_top" xlink:title=" ">
<polygon fill="none" stroke="black" points="739,-168.5 739,-187.5 807,-187.5 807,-168.5 739,-168.5"/>
<text text-anchor="middle" x="773" y="-175.5" font-family="Helvetica,sans-Serif" font-size="10.00">VLConfig.h</text>
</a>
</g>
</g>
<!-- Node15&#45;&gt;Node16 -->
<g id="edge24" class="edge">
<title>Node15&#45;&gt;Node16</title>
<path fill="none" stroke="midnightblue" d="M705.01,-224.32C717.53,-215.98 736.68,-203.21 751.47,-193.35"/>
<polygon fill="midnightblue" stroke="midnightblue" points="753.64,-196.11 760.02,-187.65 749.76,-190.29 753.64,-196.11"/>
</g>
<!-- Node16&#45;&gt;Node4 -->
<g id="edge25" class="edge">
<title>Node16&#45;&gt;Node4</title>
<path fill="none" stroke="midnightblue" d="M800.02,-168.43C843.19,-154.97 930.55,-128.69 1006,-112 1081.28,-95.35 1169.48,-81.89 1224.81,-74.16"/>
<polygon fill="midnightblue" stroke="midnightblue" points="1225.32,-77.62 1234.75,-72.79 1224.36,-70.69 1225.32,-77.62"/>
</g>
<!-- Node17&#45;&gt;Node9 -->
<g id="edge28" class="edge">
<title>Node17&#45;&gt;Node9</title>
<path fill="none" stroke="midnightblue" d="M824.47,-224.44C775.04,-214.94 695.25,-199.61 642.22,-189.42"/>
<polygon fill="midnightblue" stroke="midnightblue" points="642.8,-185.97 632.32,-187.52 641.48,-192.84 642.8,-185.97"/>
</g>
<!-- Node17&#45;&gt;Node12 -->
<g id="edge27" class="edge">
<title>Node17&#45;&gt;Node12</title>
<path fill="none" stroke="midnightblue" d="M878,-224.32C886.19,-216.42 898.51,-204.55 908.47,-194.94"/>
<polygon fill="midnightblue" stroke="midnightblue" points="911.07,-197.29 915.84,-187.83 906.21,-192.26 911.07,-197.29"/>
</g>
<!-- Node17&#45;&gt;Node16 -->
<g id="edge29" class="edge">
<title>Node17&#45;&gt;Node16</title>
<path fill="none" stroke="midnightblue" d="M853.58,-224.32C838.46,-215.82 815.18,-202.73 797.53,-192.8"/>
<polygon fill="midnightblue" stroke="midnightblue" points="798.82,-189.51 788.39,-187.65 795.39,-195.61 798.82,-189.51"/>
</g>
<!-- Node18&#45;&gt;Node3 -->
<g id="edge31" class="edge">
<title>Node18&#45;&gt;Node3</title>
<path fill="none" stroke="midnightblue" d="M315.24,-113.29C318.21,-112.85 321.14,-112.42 324,-112 418.27,-98.14 528.83,-81.95 588.17,-73.27"/>
<polygon fill="midnightblue" stroke="midnightblue" points="588.9,-76.7 598.29,-71.79 587.88,-69.77 588.9,-76.7"/>
</g>
<!-- Node20 -->
<g id="node20" class="node">
<title>Node20</title>
<g id="a_node20"><a xlink:href="Button_8h.html" target="_top" xlink:title=" ">
<polygon fill="none" stroke="black" points="333,-112.5 333,-131.5 391,-131.5 391,-112.5 333,-112.5"/>
<text text-anchor="middle" x="362" y="-119.5" font-family="Helvetica,sans-Serif" font-size="10.00">Button.h</text>
</a>
</g>
</g>
<!-- Node19&#45;&gt;Node20 -->
<g id="edge33" class="edge">
<title>Node19&#45;&gt;Node20</title>
<path fill="none" stroke="midnightblue" d="M450.96,-336.34C423.97,-313.01 351.77,-250.22 349,-244 333.89,-210.03 345.69,-165.59 354.55,-141.13"/>
<polygon fill="midnightblue" stroke="midnightblue" points="357.86,-142.26 358.19,-131.68 351.33,-139.75 357.86,-142.26"/>
</g>
<!-- Node20&#45;&gt;Node3 -->
<g id="edge34" class="edge">
<title>Node20&#45;&gt;Node3</title>
<path fill="none" stroke="midnightblue" d="M391.14,-114.86C395.77,-113.9 400.52,-112.92 405,-112 468.82,-98.97 542.88,-84.31 588.34,-75.37"/>
<polygon fill="midnightblue" stroke="midnightblue" points="589.28,-78.75 598.42,-73.38 587.93,-71.88 589.28,-78.75"/>
</g>
<!-- Node21&#45;&gt;Node3 -->
<g id="edge36" class="edge">
<title>Node21&#45;&gt;Node3</title>
<path fill="none" stroke="midnightblue" d="M1273.28,-284.32C1187.36,-276.8 1028.44,-261.15 974,-244 955.8,-238.27 953.19,-232.29 936,-224 900.14,-206.72 889.43,-206.13 854,-188 794.76,-157.68 783.73,-143.28 725,-112 703.38,-100.48 678.33,-88.56 659.53,-79.88"/>
<polygon fill="midnightblue" stroke="midnightblue" points="660.87,-76.65 650.32,-75.66 657.96,-83.01 660.87,-76.65"/>
</g>
<!-- Node21&#45;&gt;Node4 -->
<g id="edge37" class="edge">
<title>Node21&#45;&gt;Node4</title>
<path fill="none" stroke="midnightblue" d="M1339.22,-280.22C1366.47,-253.2 1442.29,-169.64 1402,-112 1386.36,-89.62 1358.34,-78.34 1332.98,-72.66"/>
<polygon fill="midnightblue" stroke="midnightblue" points="1333.55,-69.21 1323.06,-70.69 1332.19,-76.07 1333.55,-69.21"/>
</g>
<!-- Node21&#45;&gt;Node22 -->
<g id="edge38" class="edge">
<title>Node21&#45;&gt;Node22</title>
<path fill="none" stroke="midnightblue" d="M1325.38,-280.08C1321.54,-272.69 1315.98,-261.95 1311.24,-252.81"/>
<polygon fill="midnightblue" stroke="midnightblue" points="1314.25,-251.02 1306.54,-243.75 1308.03,-254.24 1314.25,-251.02"/>
</g>
<!-- Node22&#45;&gt;Node3 -->
<g id="edge39" class="edge">
<title>Node22&#45;&gt;Node3</title>
<path fill="none" stroke="midnightblue" d="M1296.39,-224.09C1287.58,-210.63 1269.4,-184.92 1249,-168 1208.89,-134.74 1195.89,-127.03 1146,-112 1057.95,-85.48 780.86,-72.58 673.8,-68.49"/>
<polygon fill="midnightblue" stroke="midnightblue" points="673.81,-64.99 663.69,-68.11 673.55,-71.98 673.81,-64.99"/>
</g>
<!-- Node22&#45;&gt;Node4 -->
<g id="edge49" class="edge">
<title>Node22&#45;&gt;Node4</title>
<path fill="none" stroke="midnightblue" d="M1307.36,-224.29C1314.31,-211.93 1325.1,-188.52 1321,-168 1314.86,-137.23 1299.15,-104.12 1288.78,-84.49"/>
<polygon fill="midnightblue" stroke="midnightblue" points="1291.77,-82.66 1283.93,-75.55 1285.62,-86 1291.77,-82.66"/>
</g>
<!-- Node22&#45;&gt;Node14 -->
<g id="edge40" class="edge">
<title>Node22&#45;&gt;Node14</title>
<path fill="none" stroke="midnightblue" d="M1354.53,-232.89C1425.13,-229.55 1548.4,-211.83 1606,-132 1615.86,-118.33 1610.19,-99.03 1603.52,-85.01"/>
<polygon fill="midnightblue" stroke="midnightblue" points="1606.47,-83.1 1598.7,-75.9 1600.28,-86.37 1606.47,-83.1"/>
</g>
<!-- Node22&#45;&gt;Node23 -->
<g id="edge41" class="edge">
<title>Node22&#45;&gt;Node23</title>
<path fill="none" stroke="midnightblue" d="M1285.45,-224.32C1269.01,-215.7 1243.57,-202.36 1224.53,-192.39"/>
<polygon fill="midnightblue" stroke="midnightblue" points="1225.99,-189.2 1215.51,-187.65 1222.74,-195.4 1225.99,-189.2"/>
</g>
<!-- Node23&#45;&gt;Node3 -->
<g id="edge42" class="edge">
<title>Node23&#45;&gt;Node3</title>
<path fill="none" stroke="midnightblue" d="M1157.27,-169.85C1117.7,-162.47 1056.9,-149.56 1006,-132 986.08,-125.13 983.23,-117.93 963,-112 862.01,-82.41 737.94,-72.17 673.85,-68.71"/>
<polygon fill="midnightblue" stroke="midnightblue" points="673.89,-65.2 663.72,-68.19 673.53,-72.19 673.89,-65.2"/>
</g>
<!-- Node23&#45;&gt;Node4 -->
<g id="edge47" class="edge">
<title>Node23&#45;&gt;Node4</title>
<path fill="none" stroke="midnightblue" d="M1205.28,-168.37C1218.48,-150.22 1249.33,-107.8 1266.64,-83.99"/>
<polygon fill="midnightblue" stroke="midnightblue" points="1269.7,-85.74 1272.75,-75.59 1264.04,-81.62 1269.7,-85.74"/>
</g>
<!-- Node24 -->
<g id="node24" class="node">
<title>Node24</title>
<g id="a_node24"><a xlink:href="ColorTypes_8h.html" target="_top" xlink:title=" ">
<polygon fill="none" stroke="black" points="1015,-112.5 1015,-131.5 1137,-131.5 1137,-112.5 1015,-112.5"/>
<text text-anchor="middle" x="1076" y="-119.5" font-family="Helvetica,sans-Serif" font-size="10.00">../Colors/ColorTypes.h</text>
</a>
</g>
</g>
<!-- Node23&#45;&gt;Node24 -->
<g id="edge43" class="edge">
<title>Node23&#45;&gt;Node24</title>
<path fill="none" stroke="midnightblue" d="M1179.51,-168.44C1159.36,-159.6 1127.68,-145.69 1104.67,-135.59"/>
<polygon fill="midnightblue" stroke="midnightblue" points="1105.96,-132.33 1095.4,-131.52 1103.15,-138.74 1105.96,-132.33"/>
</g>
<!-- Node23&#45;&gt;Node25 -->
<g id="edge48" class="edge">
<title>Node23&#45;&gt;Node25</title>
<path fill="none" stroke="midnightblue" d="M1225.94,-168.44C1255.67,-159 1303.57,-143.78 1335.66,-133.59"/>
<polygon fill="midnightblue" stroke="midnightblue" points="1337,-136.84 1345.47,-130.47 1334.88,-130.16 1337,-136.84"/>
</g>
<!-- Node24&#45;&gt;Node3 -->
<g id="edge44" class="edge">
<title>Node24&#45;&gt;Node3</title>
<path fill="none" stroke="midnightblue" d="M1014.59,-113.55C922.98,-102.43 752.82,-81.78 673.62,-72.17"/>
<polygon fill="midnightblue" stroke="midnightblue" points="673.86,-68.68 663.51,-70.95 673.02,-75.62 673.86,-68.68"/>
</g>
<!-- Node24&#45;&gt;Node4 -->
<g id="edge45" class="edge">
<title>Node24&#45;&gt;Node4</title>
<path fill="none" stroke="midnightblue" d="M1108.17,-112.44C1143.06,-103.16 1198.89,-88.31 1237.17,-78.13"/>
<polygon fill="midnightblue" stroke="midnightblue" points="1238.22,-81.47 1246.98,-75.52 1236.42,-74.7 1238.22,-81.47"/>
</g>
<!-- Node24&#45;&gt;Node5 -->
<g id="edge46" class="edge">
<title>Node24&#45;&gt;Node5</title>
<path fill="none" stroke="midnightblue" d="M1086.51,-112.37C1109.22,-93.73 1163.06,-49.53 1191.56,-26.13"/>
<polygon fill="midnightblue" stroke="midnightblue" points="1194.03,-28.64 1199.53,-19.59 1189.58,-23.23 1194.03,-28.64"/>
</g>
<!-- Node26&#45;&gt;Node4 -->
<g id="edge52" class="edge">
<title>Node26&#45;&gt;Node4</title>
<path fill="none" stroke="midnightblue" d="M1349.75,-336.47C1364.7,-329 1384.56,-316.71 1396,-300 1443.58,-230.49 1470.9,-179.12 1420,-112 1399.84,-85.42 1363.87,-74.22 1333.3,-69.65"/>
<polygon fill="midnightblue" stroke="midnightblue" points="1333.54,-66.15 1323.18,-68.34 1332.64,-73.09 1333.54,-66.15"/>
</g>
<!-- Node26&#45;&gt;Node21 -->
<g id="edge51" class="edge">
<title>Node26&#45;&gt;Node21</title>
<path fill="none" stroke="midnightblue" d="M1330,-336.08C1330,-329.01 1330,-318.86 1330,-309.99"/>
<polygon fill="midnightblue" stroke="midnightblue" points="1333.5,-309.75 1330,-299.75 1326.5,-309.75 1333.5,-309.75"/>
</g>
<!-- Node27&#45;&gt;Node3 -->
<g id="edge54" class="edge">
<title>Node27&#45;&gt;Node3</title>
<path fill="none" stroke="midnightblue" d="M108.68,-280.15C111.57,-249.79 125.68,-149.7 188,-112 254.61,-71.7 490.62,-66.96 588.25,-66.77"/>
<polygon fill="midnightblue" stroke="midnightblue" points="588.35,-70.27 598.35,-66.76 588.35,-63.27 588.35,-70.27"/>
</g>
<!-- Node28&#45;&gt;Node3 -->
<g id="edge61" class="edge">
<title>Node28&#45;&gt;Node3</title>
<path fill="none" stroke="midnightblue" d="M1027.3,-224.33C1022.68,-210.73 1012.07,-184.27 995,-168 905.02,-82.2 748.68,-68.09 673.62,-66.54"/>
<polygon fill="midnightblue" stroke="midnightblue" points="673.63,-63.04 663.58,-66.4 673.53,-70.04 673.63,-63.04"/>
</g>
<!-- Node28&#45;&gt;Node4 -->
<g id="edge60" class="edge">
<title>Node28&#45;&gt;Node4</title>
<path fill="none" stroke="midnightblue" d="M1043.04,-224.31C1083.54,-197.3 1207.5,-114.67 1257.63,-81.25"/>
<polygon fill="midnightblue" stroke="midnightblue" points="1259.71,-84.06 1266.09,-75.61 1255.83,-78.24 1259.71,-84.06"/>
</g>
<!-- Node28&#45;&gt;Node7 -->
<g id="edge58" class="edge">
<title>Node28&#45;&gt;Node7</title>
<path fill="none" stroke="midnightblue" d="M983.17,-228.19C968.12,-226.73 951.36,-225.2 936,-224 669.89,-203.21 349.51,-186.67 235.67,-181.06"/>
<polygon fill="midnightblue" stroke="midnightblue" points="235.78,-177.56 225.62,-180.57 235.43,-184.55 235.78,-177.56"/>
</g>
<!-- Node28&#45;&gt;Node12 -->
<g id="edge56" class="edge">
<title>Node28&#45;&gt;Node12</title>
<path fill="none" stroke="midnightblue" d="M1013.13,-224.32C996.29,-215.66 970.19,-202.24 950.76,-192.25"/>
<polygon fill="midnightblue" stroke="midnightblue" points="952.32,-189.12 941.83,-187.65 949.12,-195.34 952.32,-189.12"/>
</g>
<!-- Node28&#45;&gt;Node23 -->
<g id="edge59" class="edge">
<title>Node28&#45;&gt;Node23</title>
<path fill="none" stroke="midnightblue" d="M1056.78,-224.44C1085.33,-215.32 1130.73,-200.81 1162.54,-190.65"/>
<polygon fill="midnightblue" stroke="midnightblue" points="1163.89,-193.89 1172.35,-187.52 1161.76,-187.23 1163.89,-193.89"/>
</g>
<!-- Node28&#45;&gt;Node24 -->
<g id="edge57" class="edge">
<title>Node28&#45;&gt;Node24</title>
<path fill="none" stroke="midnightblue" d="M1033.61,-224.37C1041.1,-206.46 1058.47,-164.92 1068.49,-140.95"/>
<polygon fill="midnightblue" stroke="midnightblue" points="1071.78,-142.17 1072.41,-131.59 1065.32,-139.47 1071.78,-142.17"/>
</g>
<!-- Node29&#45;&gt;Node3 -->
<g id="edge63" class="edge">
<title>Node29&#45;&gt;Node3</title>
<path fill="none" stroke="midnightblue" d="M990.57,-336.39C936.82,-317.15 810.07,-266.12 730,-188 711.6,-170.05 666.23,-112.43 643.88,-83.66"/>
<polygon fill="midnightblue" stroke="midnightblue" points="646.63,-81.49 637.73,-75.74 641.09,-85.78 646.63,-81.49"/>
</g>
<!-- Node29&#45;&gt;Node22 -->
<g id="edge65" class="edge">
<title>Node29&#45;&gt;Node22</title>
<path fill="none" stroke="midnightblue" d="M1062.55,-341.5C1106.36,-336.72 1172.86,-325.61 1225,-300 1249.64,-287.9 1273.01,-266.2 1287.4,-251.23"/>
<polygon fill="midnightblue" stroke="midnightblue" points="1290.16,-253.4 1294.43,-243.7 1285.05,-248.63 1290.16,-253.4"/>
</g>
<!-- Node29&#45;&gt;Node24 -->
<g id="edge64" class="edge">
<title>Node29&#45;&gt;Node24</title>
<path fill="none" stroke="midnightblue" d="M1024.77,-336.27C1040.51,-319.9 1073.03,-282.75 1085,-244 1095.79,-209.08 1087.82,-165.91 1081.56,-141.71"/>
<polygon fill="midnightblue" stroke="midnightblue" points="1084.84,-140.45 1078.8,-131.75 1078.1,-142.33 1084.84,-140.45"/>
</g>
<!-- Node29&#45;&gt;Node30 -->
<g id="edge66" class="edge">
<title>Node29&#45;&gt;Node30</title>
<path fill="none" stroke="midnightblue" d="M1040.08,-336.44C1065.54,-327.4 1105.89,-313.06 1134.46,-302.92"/>
<polygon fill="midnightblue" stroke="midnightblue" points="1135.78,-306.16 1144.03,-299.52 1133.43,-299.57 1135.78,-306.16"/>
</g>
<!-- Node30&#45;&gt;Node4 -->
<g id="edge69" class="edge">
<title>Node30&#45;&gt;Node4</title>
<path fill="none" stroke="midnightblue" d="M1177.07,-280.47C1193.87,-264.15 1229.86,-226.68 1249,-188 1265.74,-154.17 1273.59,-110.29 1276.9,-85.74"/>
<polygon fill="midnightblue" stroke="midnightblue" points="1280.39,-86 1278.15,-75.65 1273.45,-85.15 1280.39,-86"/>
</g>
<!-- Node30&#45;&gt;Node7 -->
<g id="edge68" class="edge">
<title>Node30&#45;&gt;Node7</title>
<path fill="none" stroke="midnightblue" d="M1119.49,-288.49C966.74,-286.53 497.01,-277.85 349,-244 300.48,-232.9 247.76,-207.97 217.72,-192.41"/>
<polygon fill="midnightblue" stroke="midnightblue" points="219.27,-189.28 208.79,-187.72 216.01,-195.47 219.27,-189.28"/>
</g>
<!-- Node30&#45;&gt;Node22 -->
<g id="edge67" class="edge">
<title>Node30&#45;&gt;Node22</title>
<path fill="none" stroke="midnightblue" d="M1189.23,-280.44C1211.38,-271.52 1246.32,-257.44 1271.44,-247.32"/>
<polygon fill="midnightblue" stroke="midnightblue" points="1272.9,-250.5 1280.87,-243.52 1270.28,-244.01 1272.9,-250.5"/>
</g>
<!-- Node32 -->
<g id="node32" class="node">
<title>Node32</title>
<g id="a_node32"><a xlink:title=" ">
<polygon fill="none" stroke="#bfbfbf" points="1595.5,-336.5 1595.5,-355.5 1648.5,-355.5 1648.5,-336.5 1595.5,-336.5"/>
<text text-anchor="middle" x="1622" y="-343.5" font-family="Helvetica,sans-Serif" font-size="10.00">stdint.h</text>
</a>
</g>
</g>
<!-- Node31&#45;&gt;Node32 -->
<g id="edge75" class="edge">
<title>Node31&#45;&gt;Node32</title>
<path fill="none" stroke="midnightblue" d="M1613.65,-392.08C1614.98,-384.93 1616.88,-374.64 1618.54,-365.69"/>
<polygon fill="midnightblue" stroke="midnightblue" points="1622,-366.22 1620.38,-355.75 1615.12,-364.95 1622,-366.22"/>
</g>
</g>
</svg>
        <g id="navigator" transform="translate(0 0)" fill="#404254">
                <rect fill="#f2f5e9" fill-opacity="0.5" stroke="#606060" stroke-width=".5" x="0" y="0" width="60" height="60"/>
                <use id="zoomplus" xlink:href="#zoomPlus" x="17" y="9" onmousedown="handleZoom(evt,'in')"/>
                <use id="zoomminus" xlink:href="#zoomMin" x="42" y="9" onmousedown="handleZoom(evt,'out')"/>
                <use id="reset" xlink:href="#resetDef" x="30" y="36" onmousedown="handleReset()"/>
                <g id="arrowUp" xlink:href="#dirArrow" transform="translate(30 24)" onmousedown="handlePan(0,-1)">
                  <use xlink:href="#rim" fill="#404040">
                        <set attributeName="fill" to="#808080" begin="arrowUp.mouseover" end="arrowUp.mouseout"/>
                  </use>
                  <path fill="none" stroke="white" stroke-width="1.5" d="M0,-3.0v7 M-2.5,-0.5L0,-3.0L2.5,-0.5"/>
                </g>
                <g id="arrowRight" xlink:href="#dirArrow" transform="rotate(90) translate(36 -43)" onmousedown="handlePan(1,0)">
                  <use xlink:href="#rim" fill="#404040">
                        <set attributeName="fill" to="#808080" begin="arrowRight.mouseover" end="arrowRight.mouseout"/>
                  </use>
                  <path fill="none" stroke="white" stroke-width="1.5" d="M0,-3.0v7 M-2.5,-0.5L0,-3.0L2.5,-0.5"/>
                </g>
                <g id="arrowDown" xlink:href="#dirArrow" transform="rotate(180) translate(-30 -48)" onmousedown="handlePan(0,1)">
                  <use xlink:href="#rim" fill="#404040">
                        <set attributeName="fill" to="#808080" begin="arrowDown.mouseover" end="arrowDown.mouseout"/>
                  </use>
                  <path fill="none" stroke="white" stroke-width="1.5" d="M0,-3.0v7 M-2.5,-0.5L0,-3.0L2.5,-0.5"/>
                </g>
                <g id="arrowLeft" xlink:href="#dirArrow" transform="rotate(270) translate(-36 17)" onmousedown="handlePan(-1,0)">
                  <use xlink:href="#rim" fill="#404040">
                        <set attributeName="fill" to="#808080" begin="arrowLeft.mouseover" end="arrowLeft.mouseout"/>
                  </use>
                  <path fill="none" stroke="white" stroke-width="1.5" d="M0,-3.0v7 M-2.5,-0.5L0,-3.0L2.5,-0.5"/>
                </g>
        </g>
        <svg viewBox="0 0 15 15" width="100%" height="30px" preserveAspectRatio="xMaxYMin meet">
         <g id="arrow_out" transform="scale(0.3 0.3)">
          <a xlink:href="VortexLib_8h__incl_org.svg" target="_base">
           <rect id="button" ry="5" rx="5" y="6" x="6" height="38" width="38"
                fill="#f2f5e9" fill-opacity="0.5" stroke="#606060" stroke-width="1.0"/>
           <path id="arrow"
             d="M 11.500037,31.436501 C 11.940474,20.09759 22.043105,11.32322 32.158766,21.979434 L 37.068811,17.246167 C 37.068811,17.246167 37.088388,32 37.088388,32 L 22.160133,31.978069 C 22.160133,31.978069 26.997745,27.140456 26.997745,27.140456 C 18.528582,18.264221 13.291696,25.230495 11.500037,31.436501 z"
             style="fill:#404040;"/>
          </a>
         </g>
        </svg>
</svg>
