<?xml version="1.0" encoding="UTF-8" standalone="no"?>
<!DOCTYPE svg PUBLIC "-//W3C//DTD SVG 1.1//EN"
 "http://www.w3.org/Graphics/SVG/1.1/DTD/svg11.dtd">
<!-- Generated by graphviz version 2.43.0 (0)
 -->
<!-- Title: VortexEngine/src/VortexEngine.h Pages: 1 -->
<!--zoomable 95 -->
<svg id="main" version="1.1" xmlns="http://www.w3.org/2000/svg" xmlns:xlink="http://www.w3.org/1999/xlink" xml:space="preserve" onload="init(evt)">
<style type="text/css"><![CDATA[
.edge:hover path { stroke: red; }
.edge:hover polygon { stroke: red; fill: red; }
]]></style>
<script type="text/javascript"><![CDATA[
var edges = document.getElementsByTagName('g');
if (edges && edges.length) {
  for (var i=0;i<edges.length;i++) {
    if (edges[i].id.substr(0,4)=='edge') {
      edges[i].setAttribute('class','edge');
    }
  }
}
]]></script>
        <defs>
                <circle id="rim" cx="0" cy="0" r="7"/>
                <circle id="rim2" cx="0" cy="0" r="3.5"/>
                <g id="zoomPlus">
                        <use xlink:href="#rim" target="_top" fill="#404040">
                                <set attributeName="fill" to="#808080" begin="zoomplus.mouseover" end="zoomplus.mouseout"/>
                        </use>
                        <path d="M-4,0h8M0,-4v8" fill="none" stroke="white" stroke-width="1.5" pointer-events="none"/>
                </g>
                <g id="zoomMin">
                        <use xlink:href="#rim" target="_top" fill="#404040">
                                <set attributeName="fill" to="#808080" begin="zoomminus.mouseover" end="zoomminus.mouseout"/>
                        </use>
                        <path d="M-4,0h8" fill="none" stroke="white" stroke-width="1.5" pointer-events="none"/>
                </g>
                <g id="dirArrow">
                        <path fill="none" stroke="white" stroke-width="1.5" d="M0,-3.0v7 M-2.5,-0.5L0,-3.0L2.5,-0.5"/>
                </g>
               <g id="resetDef">
                       <use xlink:href="#rim2" target="_top" fill="#404040">
                               <set attributeName="fill" to="#808080" begin="reset.mouseover" end="reset.mouseout"/>
                       </use>
               </g>
        </defs>

<script type="text/javascript">
var viewWidth = 7393;
var viewHeight = 95;
var sectionId = 'dynsection-1';
</script>
<script xlink:href="svgpan.js" target="_top"/>
<svg id="graph" class="graph">
<g id="viewport">
<title>VortexEngine/src/VortexEngine.h</title>
<!-- Node1 -->
<g id="node1" class="node">
<title>Node1</title>
<g id="a_node1"><a xlink:title=" ">
<polygon fill="#bfbfbf" stroke="black" points="3541.5,-67.5 3541.5,-86.5 3716.5,-86.5 3716.5,-67.5 3541.5,-67.5"/>
<text text-anchor="middle" x="3629" y="-74.5" font-family="Helvetica,sans-Serif" font-size="10.00">VortexEngine/src/VortexEngine.h</text>
</a>
</g>
</g>
<!-- Node2 -->
<g id="node2" class="node">
<title>Node2</title>
<g id="a_node2"><a xlink:href="LedStash_8cpp.html" target="_top" target="_top" xlink:title=" ">
<polygon fill="none" stroke="black" points="0,-0.5 0,-30.5 124,-30.5 124,-0.5 0,-0.5"/>
<text text-anchor="start" x="8" y="-18.5" font-family="Helvetica,sans-Serif" font-size="10.00">VortexEngine/src/Leds</text>
<text text-anchor="middle" x="62" y="-7.5" font-family="Helvetica,sans-Serif" font-size="10.00">/LedStash.cpp</text>
</a>
</g>
</g>
<!-- Node1&#45;&gt;Node2 -->
<g id="edge1" class="edge">
<title>Node1&#45;&gt;Node2</title>
<path fill="none" stroke="midnightblue" d="M3531.07,-75.84C3000.17,-74.84 478.29,-68.15 133,-31 130.12,-30.69 127.19,-30.32 124.23,-29.9"/>
<polygon fill="midnightblue" stroke="midnightblue" points="3531.37,-79.34 3541.38,-75.86 3531.38,-72.34 3531.37,-79.34"/>
</g>
<!-- Node3 -->
<g id="node3" class="node">
<title>Node3</title>
<g id="a_node3"><a xlink:href="Menu_8cpp.html" target="_top" target="_top" xlink:title=" ">
<polygon fill="none" stroke="black" points="142,-0.5 142,-30.5 276,-30.5 276,-0.5 142,-0.5"/>
<text text-anchor="start" x="150" y="-18.5" font-family="Helvetica,sans-Serif" font-size="10.00">VortexEngine/src/Menus</text>
<text text-anchor="middle" x="209" y="-7.5" font-family="Helvetica,sans-Serif" font-size="10.00">/Menu.cpp</text>
</a>
</g>
</g>
<!-- Node1&#45;&gt;Node3 -->
<g id="edge2" class="edge">
<title>Node1&#45;&gt;Node3</title>
<path fill="none" stroke="midnightblue" d="M3531.16,-75.71C3014.48,-74.01 614.6,-64.4 285,-31 282.06,-30.7 279.06,-30.35 276.04,-29.95"/>
<polygon fill="midnightblue" stroke="midnightblue" points="3531.19,-79.21 3541.2,-75.74 3531.21,-72.21 3531.19,-79.21"/>
</g>
<!-- Node4 -->
<g id="node4" class="node">
<title>Node4</title>
<g id="a_node4"><a xlink:href="ColorSelect_8cpp.html" target="_top" target="_top" xlink:title=" ">
<polygon fill="none" stroke="black" points="294.5,-0.5 294.5,-30.5 437.5,-30.5 437.5,-0.5 294.5,-0.5"/>
<text text-anchor="start" x="302.5" y="-18.5" font-family="Helvetica,sans-Serif" font-size="10.00">VortexEngine/src/Menus</text>
<text text-anchor="middle" x="366" y="-7.5" font-family="Helvetica,sans-Serif" font-size="10.00">/MenuList/ColorSelect.cpp</text>
</a>
</g>
</g>
<!-- Node1&#45;&gt;Node4 -->
<g id="edge3" class="edge">
<title>Node1&#45;&gt;Node4</title>
<path fill="none" stroke="midnightblue" d="M3531.08,-75.57C3029.52,-73.22 759.79,-61.01 447,-31 444.01,-30.71 440.97,-30.38 437.9,-30"/>
<polygon fill="midnightblue" stroke="midnightblue" points="3531.16,-79.07 3541.18,-75.61 3531.2,-72.07 3531.16,-79.07"/>
</g>
<!-- Node5 -->
<g id="node5" class="node">
<title>Node5</title>
<g id="a_node5"><a xlink:href="EditorConnection_8cpp.html" target="_top" target="_top" xlink:title=" ">
<polygon fill="none" stroke="black" points="456,-0.5 456,-30.5 626,-30.5 626,-0.5 456,-0.5"/>
<text text-anchor="start" x="464" y="-18.5" font-family="Helvetica,sans-Serif" font-size="10.00">VortexEngine/src/Menus</text>
<text text-anchor="middle" x="541" y="-7.5" font-family="Helvetica,sans-Serif" font-size="10.00">/MenuList/EditorConnection.cpp</text>
</a>
</g>
</g>
<!-- Node1&#45;&gt;Node5 -->
<g id="edge4" class="edge">
<title>Node1&#45;&gt;Node5</title>
<path fill="none" stroke="midnightblue" d="M3531.17,-76.35C3082.28,-77.66 1216.73,-80 635,-31 632.12,-30.76 629.2,-30.48 626.24,-30.17"/>
<polygon fill="midnightblue" stroke="midnightblue" points="3531.21,-79.85 3541.19,-76.32 3531.18,-72.85 3531.21,-79.85"/>
</g>
<!-- Node6 -->
<g id="node6" class="node">
<title>Node6</title>
<g id="a_node6"><a xlink:href="FactoryReset_8cpp.html" target="_top" target="_top" xlink:title=" ">
<polygon fill="none" stroke="black" points="644,-0.5 644,-30.5 794,-30.5 794,-0.5 644,-0.5"/>
<text text-anchor="start" x="652" y="-18.5" font-family="Helvetica,sans-Serif" font-size="10.00">VortexEngine/src/Menus</text>
<text text-anchor="middle" x="719" y="-7.5" font-family="Helvetica,sans-Serif" font-size="10.00">/MenuList/FactoryReset.cpp</text>
</a>
</g>
</g>
<!-- Node1&#45;&gt;Node6 -->
<g id="edge5" class="edge">
<title>Node1&#45;&gt;Node6</title>
<path fill="none" stroke="midnightblue" d="M3531.25,-75.34C3065.05,-72.09 1078.67,-56.83 803,-31 800.05,-30.72 797.05,-30.4 794.03,-30.04"/>
<polygon fill="midnightblue" stroke="midnightblue" points="3531.29,-78.84 3541.32,-75.41 3531.34,-71.84 3531.29,-78.84"/>
</g>
<!-- Node7 -->
<g id="node7" class="node">
<title>Node7</title>
<g id="a_node7"><a xlink:href="GlobalBrightness_8cpp.html" target="_top" target="_top" xlink:title=" ">
<polygon fill="none" stroke="black" points="812,-0.5 812,-30.5 982,-30.5 982,-0.5 812,-0.5"/>
<text text-anchor="start" x="820" y="-18.5" font-family="Helvetica,sans-Serif" font-size="10.00">VortexEngine/src/Menus</text>
<text text-anchor="middle" x="897" y="-7.5" font-family="Helvetica,sans-Serif" font-size="10.00">/MenuList/GlobalBrightness.cpp</text>
</a>
</g>
</g>
<!-- Node1&#45;&gt;Node7 -->
<g id="edge6" class="edge">
<title>Node1&#45;&gt;Node7</title>
<path fill="none" stroke="midnightblue" d="M3531.11,-76.11C3115.93,-76.32 1498.63,-74.28 991,-31 988.12,-30.75 985.2,-30.47 982.25,-30.17"/>
<polygon fill="midnightblue" stroke="midnightblue" points="3531.28,-79.61 3541.28,-76.11 3531.28,-72.61 3531.28,-79.61"/>
</g>
<!-- Node8 -->
<g id="node8" class="node">
<title>Node8</title>
<g id="a_node8"><a xlink:href="ModeSharing_8cpp.html" target="_top" target="_top" xlink:title=" ">
<polygon fill="none" stroke="black" points="1000.5,-0.5 1000.5,-30.5 1151.5,-30.5 1151.5,-0.5 1000.5,-0.5"/>
<text text-anchor="start" x="1008.5" y="-18.5" font-family="Helvetica,sans-Serif" font-size="10.00">VortexEngine/src/Menus</text>
<text text-anchor="middle" x="1076" y="-7.5" font-family="Helvetica,sans-Serif" font-size="10.00">/MenuList/ModeSharing.cpp</text>
</a>
</g>
</g>
<!-- Node1&#45;&gt;Node8 -->
<g id="edge7" class="edge">
<title>Node1&#45;&gt;Node8</title>
<path fill="none" stroke="midnightblue" d="M3531.18,-76.19C3133,-76.64 1633.07,-75.31 1161,-31 1158.02,-30.72 1154.99,-30.4 1151.92,-30.03"/>
<polygon fill="midnightblue" stroke="midnightblue" points="3531.23,-79.69 3541.22,-76.17 3531.22,-72.69 3531.23,-79.69"/>
</g>
<!-- Node9 -->
<g id="node9" class="node">
<title>Node9</title>
<g id="a_node9"><a xlink:href="PatternSelect_8cpp.html" target="_top" target="_top" xlink:title=" ">
<polygon fill="none" stroke="black" points="1170,-0.5 1170,-30.5 1322,-30.5 1322,-0.5 1170,-0.5"/>
<text text-anchor="start" x="1178" y="-18.5" font-family="Helvetica,sans-Serif" font-size="10.00">VortexEngine/src/Menus</text>
<text text-anchor="middle" x="1246" y="-7.5" font-family="Helvetica,sans-Serif" font-size="10.00">/MenuList/PatternSelect.cpp</text>
</a>
</g>
</g>
<!-- Node1&#45;&gt;Node9 -->
<g id="edge8" class="edge">
<title>Node1&#45;&gt;Node9</title>
<path fill="none" stroke="midnightblue" d="M3531.35,-76.03C3150.97,-75.85 1767.98,-72.32 1331,-31 1328.17,-30.73 1325.29,-30.42 1322.38,-30.08"/>
<polygon fill="midnightblue" stroke="midnightblue" points="3531.5,-79.53 3541.5,-76.04 3531.5,-72.53 3531.5,-79.53"/>
</g>
<!-- Node10 -->
<g id="node10" class="node">
<title>Node10</title>
<g id="a_node10"><a xlink:href="Randomizer_8cpp.html" target="_top" target="_top" xlink:title=" ">
<polygon fill="none" stroke="black" points="1340.5,-0.5 1340.5,-30.5 1485.5,-30.5 1485.5,-0.5 1340.5,-0.5"/>
<text text-anchor="start" x="1348.5" y="-18.5" font-family="Helvetica,sans-Serif" font-size="10.00">VortexEngine/src/Menus</text>
<text text-anchor="middle" x="1413" y="-7.5" font-family="Helvetica,sans-Serif" font-size="10.00">/MenuList/Randomizer.cpp</text>
</a>
</g>
</g>
<!-- Node1&#45;&gt;Node10 -->
<g id="edge9" class="edge">
<title>Node1&#45;&gt;Node10</title>
<path fill="none" stroke="midnightblue" d="M3531.1,-75.94C3167.92,-75.39 1897.95,-70.64 1495,-31 1491.98,-30.7 1488.9,-30.36 1485.8,-29.97"/>
<polygon fill="midnightblue" stroke="midnightblue" points="3531.32,-79.44 3541.32,-75.95 3531.33,-72.44 3531.32,-79.44"/>
</g>
<!-- Node11 -->
<g id="node11" class="node">
<title>Node11</title>
<g id="a_node11"><a xlink:href="Menus_8cpp.html" target="_top" target="_top" xlink:title=" ">
<polygon fill="none" stroke="black" points="1504,-0.5 1504,-30.5 1638,-30.5 1638,-0.5 1504,-0.5"/>
<text text-anchor="start" x="1512" y="-18.5" font-family="Helvetica,sans-Serif" font-size="10.00">VortexEngine/src/Menus</text>
<text text-anchor="middle" x="1571" y="-7.5" font-family="Helvetica,sans-Serif" font-size="10.00">/Menus.cpp</text>
</a>
</g>
</g>
<!-- Node1&#45;&gt;Node11 -->
<g id="edge10" class="edge">
<title>Node1&#45;&gt;Node11</title>
<path fill="none" stroke="midnightblue" d="M3531.14,-75.93C3184.85,-75.33 2018.46,-70.38 1647,-31 1644.06,-30.69 1641.07,-30.32 1638.05,-29.92"/>
<polygon fill="midnightblue" stroke="midnightblue" points="3531.38,-79.43 3541.39,-75.94 3531.39,-72.43 3531.38,-79.43"/>
</g>
<!-- Node12 -->
<g id="node12" class="node">
<title>Node12</title>
<g id="a_node12"><a xlink:href="Mode_8cpp.html" target="_top" target="_top" xlink:title=" ">
<polygon fill="none" stroke="black" points="1656,-0.5 1656,-30.5 1790,-30.5 1790,-0.5 1656,-0.5"/>
<text text-anchor="start" x="1664" y="-18.5" font-family="Helvetica,sans-Serif" font-size="10.00">VortexEngine/src/Modes</text>
<text text-anchor="middle" x="1723" y="-7.5" font-family="Helvetica,sans-Serif" font-size="10.00">/Mode.cpp</text>
</a>
</g>
</g>
<!-- Node1&#45;&gt;Node12 -->
<g id="edge11" class="edge">
<title>Node1&#45;&gt;Node12</title>
<path fill="none" stroke="midnightblue" d="M3530.96,-75.71C3202.02,-74.4 2139.25,-67.39 1799,-31 1796.06,-30.69 1793.07,-30.32 1790.05,-29.91"/>
<polygon fill="midnightblue" stroke="midnightblue" points="3531.4,-79.21 3541.42,-75.75 3531.43,-72.21 3531.4,-79.21"/>
</g>
<!-- Node13 -->
<g id="node13" class="node">
<title>Node13</title>
<g id="a_node13"><a xlink:href="Modes_8cpp.html" target="_top" target="_top" xlink:title=" ">
<polygon fill="none" stroke="black" points="1808,-0.5 1808,-30.5 1942,-30.5 1942,-0.5 1808,-0.5"/>
<text text-anchor="start" x="1816" y="-18.5" font-family="Helvetica,sans-Serif" font-size="10.00">VortexEngine/src/Modes</text>
<text text-anchor="middle" x="1875" y="-7.5" font-family="Helvetica,sans-Serif" font-size="10.00">/Modes.cpp</text>
</a>
</g>
</g>
<!-- Node1&#45;&gt;Node13 -->
<g id="edge12" class="edge">
<title>Node1&#45;&gt;Node13</title>
<path fill="none" stroke="midnightblue" d="M3530.97,-75.45C3220.35,-73.39 2260.22,-64.42 1951,-31 1948.06,-30.68 1945.07,-30.31 1942.05,-29.9"/>
<polygon fill="midnightblue" stroke="midnightblue" points="3531.28,-78.96 3541.3,-75.52 3531.32,-71.96 3531.28,-78.96"/>
</g>
<!-- Node14 -->
<g id="node14" class="node">
<title>Node14</title>
<g id="a_node14"><a xlink:href="BlinkStepPattern_8cpp.html" target="_top" target="_top" xlink:title=" ">
<polygon fill="none" stroke="black" points="1960.5,-0.5 1960.5,-30.5 2109.5,-30.5 2109.5,-0.5 1960.5,-0.5"/>
<text text-anchor="start" x="1968.5" y="-18.5" font-family="Helvetica,sans-Serif" font-size="10.00">VortexEngine/src/Patterns</text>
<text text-anchor="middle" x="2035" y="-7.5" font-family="Helvetica,sans-Serif" font-size="10.00">/Multi/BlinkStepPattern.cpp</text>
</a>
</g>
</g>
<!-- Node1&#45;&gt;Node14 -->
<g id="edge13" class="edge">
<title>Node1&#45;&gt;Node14</title>
<path fill="none" stroke="midnightblue" d="M3531.38,-74.92C3242.29,-71.43 2393.61,-59.03 2118,-31 2115.23,-30.72 2112.42,-30.4 2109.59,-30.05"/>
<polygon fill="midnightblue" stroke="midnightblue" points="3531.39,-78.42 3541.43,-75.04 3531.47,-71.42 3531.39,-78.42"/>
</g>
<!-- Node15 -->
<g id="node15" class="node">
<title>Node15</title>
<g id="a_node15"><a xlink:href="BouncePattern_8cpp.html" target="_top" target="_top" xlink:title=" ">
<polygon fill="none" stroke="black" points="2127.5,-0.5 2127.5,-30.5 2268.5,-30.5 2268.5,-0.5 2127.5,-0.5"/>
<text text-anchor="start" x="2135.5" y="-18.5" font-family="Helvetica,sans-Serif" font-size="10.00">VortexEngine/src/Patterns</text>
<text text-anchor="middle" x="2198" y="-7.5" font-family="Helvetica,sans-Serif" font-size="10.00">/Multi/BouncePattern.cpp</text>
</a>
</g>
</g>
<!-- Node1&#45;&gt;Node15 -->
<g id="edge14" class="edge">
<title>Node1&#45;&gt;Node15</title>
<path fill="none" stroke="midnightblue" d="M3531.09,-74.63C3262.89,-70.57 2520.21,-57.22 2277,-31 2274.23,-30.7 2271.41,-30.36 2268.56,-29.99"/>
<polygon fill="midnightblue" stroke="midnightblue" points="3531.14,-78.13 3541.2,-74.78 3531.25,-71.13 3531.14,-78.13"/>
</g>
<!-- Node16 -->
<g id="node16" class="node">
<title>Node16</title>
<g id="a_node16"><a xlink:href="CompoundPattern_8cpp.html" target="_top" target="_top" xlink:title=" ">
<polygon fill="none" stroke="black" points="2286.5,-0.5 2286.5,-30.5 2441.5,-30.5 2441.5,-0.5 2286.5,-0.5"/>
<text text-anchor="start" x="2294.5" y="-18.5" font-family="Helvetica,sans-Serif" font-size="10.00">VortexEngine/src/Patterns</text>
<text text-anchor="middle" x="2364" y="-7.5" font-family="Helvetica,sans-Serif" font-size="10.00">/Multi/CompoundPattern.cpp</text>
</a>
</g>
</g>
<!-- Node1&#45;&gt;Node16 -->
<g id="edge15" class="edge">
<title>Node1&#45;&gt;Node16</title>
<path fill="none" stroke="midnightblue" d="M3531.17,-76.45C3328.9,-76.46 2850.2,-71.73 2451,-31 2447.95,-30.69 2444.85,-30.34 2441.72,-29.96"/>
<polygon fill="midnightblue" stroke="midnightblue" points="3531.18,-79.95 3541.18,-76.45 3531.17,-72.95 3531.18,-79.95"/>
</g>
<!-- Node17 -->
<g id="node17" class="node">
<title>Node17</title>
<g id="a_node17"><a xlink:href="CrossDopsPattern_8cpp.html" target="_top" target="_top" xlink:title=" ">
<polygon fill="none" stroke="black" points="2460,-0.5 2460,-30.5 2614,-30.5 2614,-0.5 2460,-0.5"/>
<text text-anchor="start" x="2468" y="-18.5" font-family="Helvetica,sans-Serif" font-size="10.00">VortexEngine/src/Patterns</text>
<text text-anchor="middle" x="2537" y="-7.5" font-family="Helvetica,sans-Serif" font-size="10.00">/Multi/CrossDopsPattern.cpp</text>
</a>
</g>
</g>
<!-- Node1&#45;&gt;Node17 -->
<g id="edge16" class="edge">
<title>Node1&#45;&gt;Node17</title>
<path fill="none" stroke="midnightblue" d="M3531.01,-75.59C3350.77,-73.95 2954.7,-66.25 2623,-31 2620.14,-30.7 2617.23,-30.36 2614.29,-29.99"/>
<polygon fill="midnightblue" stroke="midnightblue" points="3531.23,-79.09 3541.26,-75.68 3531.29,-72.09 3531.23,-79.09"/>
</g>
<!-- Node18 -->
<g id="node18" class="node">
<title>Node18</title>
<g id="a_node18"><a xlink:href="DoubleStrobePattern_8cpp.html" target="_top" target="_top" xlink:title=" ">
<polygon fill="none" stroke="black" points="2632,-0.5 2632,-30.5 2800,-30.5 2800,-0.5 2632,-0.5"/>
<text text-anchor="start" x="2640" y="-18.5" font-family="Helvetica,sans-Serif" font-size="10.00">VortexEngine/src/Patterns</text>
<text text-anchor="middle" x="2716" y="-7.5" font-family="Helvetica,sans-Serif" font-size="10.00">/Multi/DoubleStrobePattern.cpp</text>
</a>
</g>
</g>
<!-- Node1&#45;&gt;Node18 -->
<g id="edge17" class="edge">
<title>Node1&#45;&gt;Node18</title>
<path fill="none" stroke="midnightblue" d="M3531.02,-73.78C3376.98,-69.59 3068.89,-58.32 2809,-31 2806.07,-30.69 2803.1,-30.36 2800.1,-30"/>
<polygon fill="midnightblue" stroke="midnightblue" points="3531.3,-77.29 3541.39,-74.06 3531.49,-70.3 3531.3,-77.29"/>
</g>
<!-- Node19 -->
<g id="node19" class="node">
<title>Node19</title>
<g id="a_node19"><a xlink:href="DripMorphPattern_8cpp.html" target="_top" target="_top" xlink:title=" ">
<polygon fill="none" stroke="black" points="2818.5,-0.5 2818.5,-30.5 2971.5,-30.5 2971.5,-0.5 2818.5,-0.5"/>
<text text-anchor="start" x="2826.5" y="-18.5" font-family="Helvetica,sans-Serif" font-size="10.00">VortexEngine/src/Patterns</text>
<text text-anchor="middle" x="2895" y="-7.5" font-family="Helvetica,sans-Serif" font-size="10.00">/Multi/DripMorphPattern.cpp</text>
</a>
</g>
</g>
<!-- Node1&#45;&gt;Node19 -->
<g id="edge18" class="edge">
<title>Node1&#45;&gt;Node19</title>
<path fill="none" stroke="midnightblue" d="M3531.24,-72.26C3403.96,-66.7 3174.76,-54.31 2980,-31 2977.32,-30.68 2974.6,-30.33 2971.86,-29.96"/>
<polygon fill="midnightblue" stroke="midnightblue" points="3531.21,-75.76 3541.35,-72.7 3531.51,-68.77 3531.21,-75.76"/>
</g>
<!-- Node20 -->
<g id="node20" class="node">
<title>Node20</title>
<g id="a_node20"><a xlink:href="DripPattern_8cpp.html" target="_top" target="_top" xlink:title=" ">
<polygon fill="none" stroke="black" points="2989.5,-0.5 2989.5,-30.5 3130.5,-30.5 3130.5,-0.5 2989.5,-0.5"/>
<text text-anchor="start" x="2997.5" y="-18.5" font-family="Helvetica,sans-Serif" font-size="10.00">VortexEngine/src/Patterns</text>
<text text-anchor="middle" x="3060" y="-7.5" font-family="Helvetica,sans-Serif" font-size="10.00">/Multi/DripPattern.cpp</text>
</a>
</g>
</g>
<!-- Node1&#45;&gt;Node20 -->
<g id="edge19" class="edge">
<title>Node1&#45;&gt;Node20</title>
<path fill="none" stroke="midnightblue" d="M3531.1,-69.61C3431.97,-62.53 3274.42,-49.61 3139,-31 3136.24,-30.62 3133.42,-30.21 3130.58,-29.78"/>
<polygon fill="midnightblue" stroke="midnightblue" points="3530.88,-73.11 3541.1,-70.32 3531.37,-66.12 3530.88,-73.11"/>
</g>
<!-- Node21 -->
<g id="node21" class="node">
<title>Node21</title>
<g id="a_node21"><a xlink:href="FillPattern_8cpp.html" target="_top" target="_top" xlink:title=" ">
<polygon fill="none" stroke="black" points="3148.5,-0.5 3148.5,-30.5 3289.5,-30.5 3289.5,-0.5 3148.5,-0.5"/>
<text text-anchor="start" x="3156.5" y="-18.5" font-family="Helvetica,sans-Serif" font-size="10.00">VortexEngine/src/Patterns</text>
<text text-anchor="middle" x="3219" y="-7.5" font-family="Helvetica,sans-Serif" font-size="10.00">/Multi/FillPattern.cpp</text>
</a>
</g>
</g>
<!-- Node1&#45;&gt;Node21 -->
<g id="edge20" class="edge">
<title>Node1&#45;&gt;Node21</title>
<path fill="none" stroke="midnightblue" d="M3549.36,-66.23C3482.21,-57.73 3383.66,-44.68 3298,-31 3295.25,-30.56 3292.44,-30.1 3289.61,-29.63"/>
<polygon fill="midnightblue" stroke="midnightblue" points="3549.08,-69.72 3559.44,-67.5 3549.96,-62.77 3549.08,-69.72"/>
</g>
<!-- Node22 -->
<g id="node22" class="node">
<title>Node22</title>
<g id="a_node22"><a xlink:href="HueShiftPattern_8cpp.html" target="_top" target="_top" xlink:title=" ">
<polygon fill="none" stroke="black" points="3307.5,-0.5 3307.5,-30.5 3450.5,-30.5 3450.5,-0.5 3307.5,-0.5"/>
<text text-anchor="start" x="3315.5" y="-18.5" font-family="Helvetica,sans-Serif" font-size="10.00">VortexEngine/src/Patterns</text>
<text text-anchor="middle" x="3379" y="-7.5" font-family="Helvetica,sans-Serif" font-size="10.00">/Multi/HueShiftPattern.cpp</text>
</a>
</g>
</g>
<!-- Node1&#45;&gt;Node22 -->
<g id="edge21" class="edge">
<title>Node1&#45;&gt;Node22</title>
<path fill="none" stroke="midnightblue" d="M3583.23,-65.11C3542.39,-55.39 3482.34,-41.1 3437.92,-30.52"/>
<polygon fill="midnightblue" stroke="midnightblue" points="3582.64,-68.56 3593.18,-67.48 3584.26,-61.75 3582.64,-68.56"/>
</g>
<!-- Node23 -->
<g id="node23" class="node">
<title>Node23</title>
<g id="a_node23"><a xlink:href="LighthousePattern_8cpp.html" target="_top" target="_top" xlink:title=" ">
<polygon fill="none" stroke="black" points="3468.5,-0.5 3468.5,-30.5 3623.5,-30.5 3623.5,-0.5 3468.5,-0.5"/>
<text text-anchor="start" x="3476.5" y="-18.5" font-family="Helvetica,sans-Serif" font-size="10.00">VortexEngine/src/Patterns</text>
<text text-anchor="middle" x="3546" y="-7.5" font-family="Helvetica,sans-Serif" font-size="10.00">/Multi/LighthousePattern.cpp</text>
</a>
</g>
</g>
<!-- Node1&#45;&gt;Node23 -->
<g id="edge22" class="edge">
<title>Node1&#45;&gt;Node23</title>
<path fill="none" stroke="midnightblue" d="M3608.73,-61.47C3595.59,-52.05 3578.56,-39.84 3565.56,-30.52"/>
<polygon fill="midnightblue" stroke="midnightblue" points="3606.94,-64.49 3617.11,-67.48 3611.02,-58.8 3606.94,-64.49"/>
</g>
<!-- Node24 -->
<g id="node24" class="node">
<title>Node24</title>
<g id="a_node24"><a xlink:href="MeteorPattern_8cpp.html" target="_top" target="_top" xlink:title=" ">
<polygon fill="none" stroke="black" points="3641.5,-0.5 3641.5,-30.5 3782.5,-30.5 3782.5,-0.5 3641.5,-0.5"/>
<text text-anchor="start" x="3649.5" y="-18.5" font-family="Helvetica,sans-Serif" font-size="10.00">VortexEngine/src/Patterns</text>
<text text-anchor="middle" x="3712" y="-7.5" font-family="Helvetica,sans-Serif" font-size="10.00">/Multi/MeteorPattern.cpp</text>
</a>
</g>
</g>
<!-- Node1&#45;&gt;Node24 -->
<g id="edge23" class="edge">
<title>Node1&#45;&gt;Node24</title>
<path fill="none" stroke="midnightblue" d="M3649.27,-61.47C3662.41,-52.05 3679.44,-39.84 3692.44,-30.52"/>
<polygon fill="midnightblue" stroke="midnightblue" points="3646.98,-58.8 3640.89,-67.48 3651.06,-64.49 3646.98,-58.8"/>
</g>
<!-- Node25 -->
<g id="node25" class="node">
<title>Node25</title>
<g id="a_node25"><a xlink:href="MultiLedPattern_8cpp.html" target="_top" target="_top" xlink:title=" ">
<polygon fill="none" stroke="black" points="3801,-0.5 3801,-30.5 3945,-30.5 3945,-0.5 3801,-0.5"/>
<text text-anchor="start" x="3809" y="-18.5" font-family="Helvetica,sans-Serif" font-size="10.00">VortexEngine/src/Patterns</text>
<text text-anchor="middle" x="3873" y="-7.5" font-family="Helvetica,sans-Serif" font-size="10.00">/Multi/MultiLedPattern.cpp</text>
</a>
</g>
</g>
<!-- Node1&#45;&gt;Node25 -->
<g id="edge24" class="edge">
<title>Node1&#45;&gt;Node25</title>
<path fill="none" stroke="midnightblue" d="M3673.92,-65.05C3713.78,-55.33 3772.23,-41.07 3815.49,-30.52"/>
<polygon fill="midnightblue" stroke="midnightblue" points="3672.85,-61.71 3663.96,-67.48 3674.5,-68.51 3672.85,-61.71"/>
</g>
<!-- Node26 -->
<g id="node26" class="node">
<title>Node26</title>
<g id="a_node26"><a xlink:href="PulsishPattern_8cpp.html" target="_top" target="_top" xlink:title=" ">
<polygon fill="none" stroke="black" points="3963.5,-0.5 3963.5,-30.5 4104.5,-30.5 4104.5,-0.5 3963.5,-0.5"/>
<text text-anchor="start" x="3971.5" y="-18.5" font-family="Helvetica,sans-Serif" font-size="10.00">VortexEngine/src/Patterns</text>
<text text-anchor="middle" x="4034" y="-7.5" font-family="Helvetica,sans-Serif" font-size="10.00">/Multi/PulsishPattern.cpp</text>
</a>
</g>
</g>
<!-- Node1&#45;&gt;Node26 -->
<g id="edge25" class="edge">
<title>Node1&#45;&gt;Node26</title>
<path fill="none" stroke="midnightblue" d="M3706.97,-66.13C3772.89,-57.57 3869.77,-44.46 3954,-31 3957.07,-30.51 3960.2,-30 3963.36,-29.47"/>
<polygon fill="midnightblue" stroke="midnightblue" points="3706.13,-62.71 3696.66,-67.47 3707.03,-69.65 3706.13,-62.71"/>
</g>
<!-- Node27 -->
<g id="node27" class="node">
<title>Node27</title>
<g id="a_node27"><a xlink:href="ChaserPattern_8cpp.html" target="_top" target="_top" xlink:title=" ">
<polygon fill="none" stroke="black" points="4123,-0.5 4123,-30.5 4313,-30.5 4313,-0.5 4123,-0.5"/>
<text text-anchor="start" x="4131" y="-18.5" font-family="Helvetica,sans-Serif" font-size="10.00">VortexEngine/src/Patterns</text>
<text text-anchor="middle" x="4218" y="-7.5" font-family="Helvetica,sans-Serif" font-size="10.00">/Multi/Sequencer/ChaserPattern.cpp</text>
</a>
</g>
</g>
<!-- Node1&#45;&gt;Node27 -->
<g id="edge26" class="edge">
<title>Node1&#45;&gt;Node27</title>
<path fill="none" stroke="midnightblue" d="M3726.94,-68.24C3824.99,-60.17 3980.14,-46.53 4114,-31 4116.9,-30.66 4119.84,-30.31 4122.81,-29.95"/>
<polygon fill="midnightblue" stroke="midnightblue" points="3726.42,-64.77 3716.74,-69.08 3727,-71.75 3726.42,-64.77"/>
</g>
<!-- Node28 -->
<g id="node28" class="node">
<title>Node28</title>
<g id="a_node28"><a xlink:href="Sequence_8cpp.html" target="_top" target="_top" xlink:title=" ">
<polygon fill="none" stroke="black" points="4331.5,-0.5 4331.5,-30.5 4500.5,-30.5 4500.5,-0.5 4331.5,-0.5"/>
<text text-anchor="start" x="4339.5" y="-18.5" font-family="Helvetica,sans-Serif" font-size="10.00">VortexEngine/src/Patterns</text>
<text text-anchor="middle" x="4416" y="-7.5" font-family="Helvetica,sans-Serif" font-size="10.00">/Multi/Sequencer/Sequence.cpp</text>
</a>
</g>
</g>
<!-- Node1&#45;&gt;Node28 -->
<g id="edge27" class="edge">
<title>Node1&#45;&gt;Node28</title>
<path fill="none" stroke="midnightblue" d="M3727.01,-72.36C3861.47,-66.75 4110.58,-54.13 4322,-31 4325.12,-30.66 4328.29,-30.29 4331.5,-29.9"/>
<polygon fill="midnightblue" stroke="midnightblue" points="3726.58,-68.88 3716.73,-72.79 3726.87,-75.87 3726.58,-68.88"/>
</g>
<!-- Node29 -->
<g id="node29" class="node">
<title>Node29</title>
<g id="a_node29"><a xlink:href="SequencedPattern_8cpp.html" target="_top" target="_top" xlink:title=" ">
<polygon fill="none" stroke="black" points="4518.5,-0.5 4518.5,-30.5 4727.5,-30.5 4727.5,-0.5 4518.5,-0.5"/>
<text text-anchor="start" x="4526.5" y="-18.5" font-family="Helvetica,sans-Serif" font-size="10.00">VortexEngine/src/Patterns</text>
<text text-anchor="middle" x="4623" y="-7.5" font-family="Helvetica,sans-Serif" font-size="10.00">/Multi/Sequencer/SequencedPattern.cpp</text>
</a>
</g>
</g>
<!-- Node1&#45;&gt;Node29 -->
<g id="edge28" class="edge">
<title>Node1&#45;&gt;Node29</title>
<path fill="none" stroke="midnightblue" d="M3727.16,-73.44C3890.06,-68.64 4226.4,-56.4 4510,-31 4512.76,-30.75 4515.55,-30.49 4518.37,-30.21"/>
<polygon fill="midnightblue" stroke="midnightblue" points="3726.58,-69.96 3716.69,-73.75 3726.79,-76.95 3726.58,-69.96"/>
</g>
<!-- Node30 -->
<g id="node30" class="node">
<title>Node30</title>
<g id="a_node30"><a xlink:href="SnowballPattern_8cpp.html" target="_top" target="_top" xlink:title=" ">
<polygon fill="none" stroke="black" points="4746,-0.5 4746,-30.5 4892,-30.5 4892,-0.5 4746,-0.5"/>
<text text-anchor="start" x="4754" y="-18.5" font-family="Helvetica,sans-Serif" font-size="10.00">VortexEngine/src/Patterns</text>
<text text-anchor="middle" x="4819" y="-7.5" font-family="Helvetica,sans-Serif" font-size="10.00">/Multi/SnowballPattern.cpp</text>
</a>
</g>
</g>
<!-- Node1&#45;&gt;Node30 -->
<g id="edge29" class="edge">
<title>Node1&#45;&gt;Node30</title>
<path fill="none" stroke="midnightblue" d="M3726.7,-76.43C3920.15,-76.32 4365.39,-71.22 4737,-31 4739.87,-30.69 4742.8,-30.34 4745.75,-29.96"/>
<polygon fill="midnightblue" stroke="midnightblue" points="3726.56,-72.93 3716.56,-76.43 3726.56,-79.93 3726.56,-72.93"/>
</g>
<!-- Node31 -->
<g id="node31" class="node">
<title>Node31</title>
<g id="a_node31"><a xlink:href="SparkleTracePattern_8cpp.html" target="_top" target="_top" xlink:title=" ">
<polygon fill="none" stroke="black" points="4910,-0.5 4910,-30.5 5074,-30.5 5074,-0.5 4910,-0.5"/>
<text text-anchor="start" x="4918" y="-18.5" font-family="Helvetica,sans-Serif" font-size="10.00">VortexEngine/src/Patterns</text>
<text text-anchor="middle" x="4992" y="-7.5" font-family="Helvetica,sans-Serif" font-size="10.00">/Multi/SparkleTracePattern.cpp</text>
</a>
</g>
</g>
<!-- Node1&#45;&gt;Node31 -->
<g id="edge30" class="edge">
<title>Node1&#45;&gt;Node31</title>
<path fill="none" stroke="midnightblue" d="M3727.01,-76.62C3940.77,-77.07 4464.69,-73.32 4901,-31 4903.87,-30.72 4906.78,-30.41 4909.72,-30.07"/>
<polygon fill="midnightblue" stroke="midnightblue" points="3726.77,-73.12 3716.76,-76.59 3726.75,-80.12 3726.77,-73.12"/>
</g>
<!-- Node32 -->
<g id="node32" class="node">
<title>Node32</title>
<g id="a_node32"><a xlink:href="TheaterChasePattern_8cpp.html" target="_top" target="_top" xlink:title=" ">
<polygon fill="none" stroke="black" points="5092,-0.5 5092,-30.5 5262,-30.5 5262,-0.5 5092,-0.5"/>
<text text-anchor="start" x="5100" y="-18.5" font-family="Helvetica,sans-Serif" font-size="10.00">VortexEngine/src/Patterns</text>
<text text-anchor="middle" x="5177" y="-7.5" font-family="Helvetica,sans-Serif" font-size="10.00">/Multi/TheaterChasePattern.cpp</text>
</a>
</g>
</g>
<!-- Node1&#45;&gt;Node32 -->
<g id="edge31" class="edge">
<title>Node1&#45;&gt;Node32</title>
<path fill="none" stroke="midnightblue" d="M3726.77,-74.53C4008.51,-70.06 4818.75,-55.38 5083,-31 5085.88,-30.73 5088.8,-30.44 5091.75,-30.11"/>
<polygon fill="midnightblue" stroke="midnightblue" points="3726.52,-71.04 3716.57,-74.69 3726.63,-78.04 3726.52,-71.04"/>
</g>
<!-- Node33 -->
<g id="node33" class="node">
<title>Node33</title>
<g id="a_node33"><a xlink:href="VortexPattern_8cpp.html" target="_top" target="_top" xlink:title=" ">
<polygon fill="none" stroke="black" points="5280.5,-0.5 5280.5,-30.5 5421.5,-30.5 5421.5,-0.5 5280.5,-0.5"/>
<text text-anchor="start" x="5288.5" y="-18.5" font-family="Helvetica,sans-Serif" font-size="10.00">VortexEngine/src/Patterns</text>
<text text-anchor="middle" x="5351" y="-7.5" font-family="Helvetica,sans-Serif" font-size="10.00">/Multi/VortexPattern.cpp</text>
</a>
</g>
</g>
<!-- Node1&#45;&gt;Node33 -->
<g id="edge32" class="edge">
<title>Node1&#45;&gt;Node33</title>
<path fill="none" stroke="midnightblue" d="M3726.77,-75.27C4032.64,-72.68 4968.88,-62.34 5271,-31 5274.09,-30.68 5277.24,-30.31 5280.41,-29.89"/>
<polygon fill="midnightblue" stroke="midnightblue" points="3726.56,-71.77 3716.59,-75.36 3726.62,-78.77 3726.56,-71.77"/>
</g>
<!-- Node34 -->
<g id="node34" class="node">
<title>Node34</title>
<g id="a_node34"><a xlink:href="VortexWipePattern_8cpp.html" target="_top" target="_top" xlink:title=" ">
<polygon fill="none" stroke="black" points="5440,-0.5 5440,-30.5 5598,-30.5 5598,-0.5 5440,-0.5"/>
<text text-anchor="start" x="5448" y="-18.5" font-family="Helvetica,sans-Serif" font-size="10.00">VortexEngine/src/Patterns</text>
<text text-anchor="middle" x="5519" y="-7.5" font-family="Helvetica,sans-Serif" font-size="10.00">/Multi/VortexWipePattern.cpp</text>
</a>
</g>
</g>
<!-- Node1&#45;&gt;Node34 -->
<g id="edge33" class="edge">
<title>Node1&#45;&gt;Node34</title>
<path fill="none" stroke="midnightblue" d="M3726.9,-75.34C4052.31,-72.87 5096.01,-62.63 5431,-31 5433.93,-30.72 5436.91,-30.41 5439.91,-30.06"/>
<polygon fill="midnightblue" stroke="midnightblue" points="3726.53,-71.84 3716.56,-75.42 3726.59,-78.84 3726.53,-71.84"/>
</g>
<!-- Node35 -->
<g id="node35" class="node">
<title>Node35</title>
<g id="a_node35"><a xlink:href="WarpPattern_8cpp.html" target="_top" target="_top" xlink:title=" ">
<polygon fill="none" stroke="black" points="5616.5,-0.5 5616.5,-30.5 5757.5,-30.5 5757.5,-0.5 5616.5,-0.5"/>
<text text-anchor="start" x="5624.5" y="-18.5" font-family="Helvetica,sans-Serif" font-size="10.00">VortexEngine/src/Patterns</text>
<text text-anchor="middle" x="5687" y="-7.5" font-family="Helvetica,sans-Serif" font-size="10.00">/Multi/WarpPattern.cpp</text>
</a>
</g>
</g>
<!-- Node1&#45;&gt;Node35 -->
<g id="edge34" class="edge">
<title>Node1&#45;&gt;Node35</title>
<path fill="none" stroke="midnightblue" d="M3726.95,-75.8C4072.86,-74.79 5236.22,-68.59 5607,-31 5610.09,-30.69 5613.24,-30.32 5616.41,-29.91"/>
<polygon fill="midnightblue" stroke="midnightblue" points="3726.7,-72.3 3716.71,-75.83 3726.72,-79.3 3726.7,-72.3"/>
</g>
<!-- Node36 -->
<g id="node36" class="node">
<title>Node36</title>
<g id="a_node36"><a xlink:href="WarpWormPattern_8cpp.html" target="_top" target="_top" xlink:title=" ">
<polygon fill="none" stroke="black" points="5775.5,-0.5 5775.5,-30.5 5930.5,-30.5 5930.5,-0.5 5775.5,-0.5"/>
<text text-anchor="start" x="5783.5" y="-18.5" font-family="Helvetica,sans-Serif" font-size="10.00">VortexEngine/src/Patterns</text>
<text text-anchor="middle" x="5853" y="-7.5" font-family="Helvetica,sans-Serif" font-size="10.00">/Multi/WarpWormPattern.cpp</text>
</a>
</g>
</g>
<!-- Node1&#45;&gt;Node36 -->
<g id="edge35" class="edge">
<title>Node1&#45;&gt;Node36</title>
<path fill="none" stroke="midnightblue" d="M3726.76,-75.84C4090.18,-74.94 5363.03,-69.1 5767,-31 5769.71,-30.74 5772.47,-30.45 5775.25,-30.13"/>
<polygon fill="midnightblue" stroke="midnightblue" points="3726.53,-72.34 3716.54,-75.86 3726.55,-79.34 3726.53,-72.34"/>
</g>
<!-- Node37 -->
<g id="node37" class="node">
<title>Node37</title>
<g id="a_node37"><a xlink:href="ZigzagPattern_8cpp.html" target="_top" target="_top" xlink:title=" ">
<polygon fill="none" stroke="black" points="5948.5,-0.5 5948.5,-30.5 6089.5,-30.5 6089.5,-0.5 5948.5,-0.5"/>
<text text-anchor="start" x="5956.5" y="-18.5" font-family="Helvetica,sans-Serif" font-size="10.00">VortexEngine/src/Patterns</text>
<text text-anchor="middle" x="6019" y="-7.5" font-family="Helvetica,sans-Serif" font-size="10.00">/Multi/ZigzagPattern.cpp</text>
</a>
</g>
</g>
<!-- Node1&#45;&gt;Node37 -->
<g id="edge36" class="edge">
<title>Node1&#45;&gt;Node37</title>
<path fill="none" stroke="midnightblue" d="M3726.9,-76.21C4109.03,-76.69 5500.69,-75.3 5940,-31 5942.77,-30.72 5945.6,-30.4 5948.45,-30.03"/>
<polygon fill="midnightblue" stroke="midnightblue" points="3726.71,-72.71 3716.7,-76.19 3726.7,-79.71 3726.71,-72.71"/>
</g>
<!-- Node38 -->
<g id="node38" class="node">
<title>Node38</title>
<g id="a_node38"><a xlink:href="Pattern_8cpp.html" target="_top" target="_top" xlink:title=" ">
<polygon fill="none" stroke="black" points="6107.5,-0.5 6107.5,-30.5 6248.5,-30.5 6248.5,-0.5 6107.5,-0.5"/>
<text text-anchor="start" x="6115.5" y="-18.5" font-family="Helvetica,sans-Serif" font-size="10.00">VortexEngine/src/Patterns</text>
<text text-anchor="middle" x="6178" y="-7.5" font-family="Helvetica,sans-Serif" font-size="10.00">/Pattern.cpp</text>
</a>
</g>
</g>
<!-- Node1&#45;&gt;Node38 -->
<g id="edge37" class="edge">
<title>Node1&#45;&gt;Node38</title>
<path fill="none" stroke="midnightblue" d="M3726.59,-76.35C4124.63,-77.45 5626.71,-78.33 6099,-31 6101.77,-30.72 6104.6,-30.4 6107.45,-30.04"/>
<polygon fill="midnightblue" stroke="midnightblue" points="3726.55,-72.85 3716.54,-76.32 3726.53,-79.85 3726.55,-72.85"/>
</g>
<!-- Node39 -->
<g id="node39" class="node">
<title>Node39</title>
<g id="a_node39"><a xlink:href="BasicPattern_8cpp.html" target="_top" target="_top" xlink:title=" ">
<polygon fill="none" stroke="black" points="6266.5,-0.5 6266.5,-30.5 6407.5,-30.5 6407.5,-0.5 6266.5,-0.5"/>
<text text-anchor="start" x="6274.5" y="-18.5" font-family="Helvetica,sans-Serif" font-size="10.00">VortexEngine/src/Patterns</text>
<text text-anchor="middle" x="6337" y="-7.5" font-family="Helvetica,sans-Serif" font-size="10.00">/Single/BasicPattern.cpp</text>
</a>
</g>
</g>
<!-- Node1&#45;&gt;Node39 -->
<g id="edge38" class="edge">
<title>Node1&#45;&gt;Node39</title>
<path fill="none" stroke="midnightblue" d="M3727.14,-75.28C4173.72,-71.86 6003.08,-56.4 6258,-31 6260.78,-30.72 6263.6,-30.4 6266.45,-30.04"/>
<polygon fill="midnightblue" stroke="midnightblue" points="3726.83,-71.78 3716.85,-75.36 3726.88,-78.78 3726.83,-71.78"/>
</g>
<!-- Node40 -->
<g id="node40" class="node">
<title>Node40</title>
<g id="a_node40"><a xlink:href="BlendPattern_8cpp.html" target="_top" target="_top" xlink:title=" ">
<polygon fill="none" stroke="black" points="6425.5,-0.5 6425.5,-30.5 6566.5,-30.5 6566.5,-0.5 6425.5,-0.5"/>
<text text-anchor="start" x="6433.5" y="-18.5" font-family="Helvetica,sans-Serif" font-size="10.00">VortexEngine/src/Patterns</text>
<text text-anchor="middle" x="6496" y="-7.5" font-family="Helvetica,sans-Serif" font-size="10.00">/Single/BlendPattern.cpp</text>
</a>
</g>
</g>
<!-- Node1&#45;&gt;Node40 -->
<g id="edge39" class="edge">
<title>Node1&#45;&gt;Node40</title>
<path fill="none" stroke="midnightblue" d="M3726.92,-75.38C4189.6,-72.33 6145.46,-57.92 6417,-31 6419.78,-30.72 6422.6,-30.4 6425.45,-30.05"/>
<polygon fill="midnightblue" stroke="midnightblue" points="3726.58,-71.88 3716.6,-75.45 3726.62,-78.88 3726.58,-71.88"/>
</g>
<!-- Node41 -->
<g id="node41" class="node">
<title>Node41</title>
<g id="a_node41"><a xlink:href="Serial_8cpp.html" target="_top" target="_top" xlink:title=" ">
<polygon fill="none" stroke="black" points="6584.5,-0.5 6584.5,-30.5 6713.5,-30.5 6713.5,-0.5 6584.5,-0.5"/>
<text text-anchor="start" x="6592.5" y="-18.5" font-family="Helvetica,sans-Serif" font-size="10.00">VortexEngine/src/Serial</text>
<text text-anchor="middle" x="6649" y="-7.5" font-family="Helvetica,sans-Serif" font-size="10.00">/Serial.cpp</text>
</a>
</g>
</g>
<!-- Node1&#45;&gt;Node41 -->
<g id="edge40" class="edge">
<title>Node1&#45;&gt;Node41</title>
<path fill="none" stroke="midnightblue" d="M3726.98,-75.56C4205.78,-73.25 6288.09,-61.54 6576,-31 6578.7,-30.71 6581.45,-30.38 6584.21,-30"/>
<polygon fill="midnightblue" stroke="midnightblue" points="3726.63,-72.06 3716.64,-75.61 3726.66,-79.06 3726.63,-72.06"/>
</g>
<!-- Node42 -->
<g id="node42" class="node">
<title>Node42</title>
<g id="a_node42"><a xlink:href="Timer_8cpp.html" target="_top" target="_top" xlink:title=" ">
<polygon fill="none" stroke="black" points="6732,-0.5 6732,-30.5 6858,-30.5 6858,-0.5 6732,-0.5"/>
<text text-anchor="start" x="6740" y="-18.5" font-family="Helvetica,sans-Serif" font-size="10.00">VortexEngine/src/Time</text>
<text text-anchor="middle" x="6795" y="-7.5" font-family="Helvetica,sans-Serif" font-size="10.00">/Timer.cpp</text>
</a>
</g>
</g>
<!-- Node1&#45;&gt;Node42 -->
<g id="edge41" class="edge">
<title>Node1&#45;&gt;Node42</title>
<path fill="none" stroke="midnightblue" d="M3727,-75.65C4220.28,-73.74 6419.77,-63.46 6723,-31 6725.92,-30.69 6728.89,-30.31 6731.89,-29.89"/>
<polygon fill="midnightblue" stroke="midnightblue" points="3726.7,-72.15 3716.71,-75.69 3726.72,-79.15 3726.7,-72.15"/>
</g>
<!-- Node43 -->
<g id="node43" class="node">
<title>Node43</title>
<g id="a_node43"><a xlink:href="VortexEngine_8cpp.html" target="_top" target="_top" xlink:title=" ">
<polygon fill="none" stroke="black" points="6876,-6 6876,-25 7062,-25 7062,-6 6876,-6"/>
<text text-anchor="middle" x="6969" y="-13" font-family="Helvetica,sans-Serif" font-size="10.00">VortexEngine/src/VortexEngine.cpp</text>
</a>
</g>
</g>
<!-- Node1&#45;&gt;Node43 -->
<g id="edge42" class="edge">
<title>Node1&#45;&gt;Node43</title>
<path fill="none" stroke="midnightblue" d="M3726.92,-76.32C4197.99,-77.61 6234.08,-80.18 6867,-31 6883.76,-29.7 6901.97,-27.4 6918.3,-25.01"/>
<polygon fill="midnightblue" stroke="midnightblue" points="3726.76,-72.82 3716.75,-76.29 3726.74,-79.82 3726.76,-72.82"/>
</g>
<!-- Node44 -->
<g id="node44" class="node">
<title>Node44</title>
<g id="a_node44"><a xlink:href="IRReceiver_8cpp.html" target="_top" target="_top" xlink:title=" ">
<polygon fill="none" stroke="black" points="7080.5,-0.5 7080.5,-30.5 7223.5,-30.5 7223.5,-0.5 7080.5,-0.5"/>
<text text-anchor="start" x="7088.5" y="-18.5" font-family="Helvetica,sans-Serif" font-size="10.00">VortexEngine/src/Wireless</text>
<text text-anchor="middle" x="7152" y="-7.5" font-family="Helvetica,sans-Serif" font-size="10.00">/IRReceiver.cpp</text>
</a>
</g>
</g>
<!-- Node1&#45;&gt;Node44 -->
<g id="edge43" class="edge">
<title>Node1&#45;&gt;Node44</title>
<path fill="none" stroke="midnightblue" d="M3727.11,-75.68C4253.42,-73.83 6730.99,-63.43 7071,-31 7073.99,-30.72 7077.03,-30.38 7080.1,-30"/>
<polygon fill="midnightblue" stroke="midnightblue" points="3726.88,-72.18 3716.89,-75.71 3726.9,-79.18 3726.88,-72.18"/>
</g>
<!-- Node45 -->
<g id="node45" class="node">
<title>Node45</title>
<g id="a_node45"><a xlink:href="VLReceiver_8cpp.html" target="_top" target="_top" xlink:title=" ">
<polygon fill="none" stroke="black" points="7241.5,-0.5 7241.5,-30.5 7384.5,-30.5 7384.5,-0.5 7241.5,-0.5"/>
<text text-anchor="start" x="7249.5" y="-18.5" font-family="Helvetica,sans-Serif" font-size="10.00">VortexEngine/src/Wireless</text>
<text text-anchor="middle" x="7313" y="-7.5" font-family="Helvetica,sans-Serif" font-size="10.00">/VLReceiver.cpp</text>
</a>
</g>
</g>
<!-- Node1&#45;&gt;Node45 -->
<g id="edge44" class="edge">
<title>Node1&#45;&gt;Node45</title>
<path fill="none" stroke="midnightblue" d="M3726.89,-75.75C4267.42,-74.27 6875.96,-65.34 7233,-31 7235.67,-30.74 7238.38,-30.44 7241.12,-30.11"/>
<polygon fill="midnightblue" stroke="midnightblue" points="3726.77,-72.25 3716.78,-75.78 3726.79,-79.25 3726.77,-72.25"/>
</g>
</g>
</svg>
        <g id="navigator" transform="translate(0 0)" fill="#404254">
                <rect fill="#f2f5e9" fill-opacity="0.5" stroke="#606060" stroke-width=".5" x="0" y="0" width="60" height="60"/>
                <use id="zoomplus" xlink:href="#zoomPlus" target="_top" x="17" y="9" onmousedown="handleZoom(evt,'in')"/>
                <use id="zoomminus" xlink:href="#zoomMin" target="_top" x="42" y="9" onmousedown="handleZoom(evt,'out')"/>
                <use id="reset" xlink:href="#resetDef" target="_top" x="30" y="36" onmousedown="handleReset()"/>
                <g id="arrowUp" xlink:href="#dirArrow" target="_top" transform="translate(30 24)" onmousedown="handlePan(0,-1)">
                  <use xlink:href="#rim" target="_top" fill="#404040">
                        <set attributeName="fill" to="#808080" begin="arrowUp.mouseover" end="arrowUp.mouseout"/>
                  </use>
                  <path fill="none" stroke="white" stroke-width="1.5" d="M0,-3.0v7 M-2.5,-0.5L0,-3.0L2.5,-0.5"/>
                </g>
                <g id="arrowRight" xlink:href="#dirArrow" target="_top" transform="rotate(90) translate(36 -43)" onmousedown="handlePan(1,0)">
                  <use xlink:href="#rim" target="_top" fill="#404040">
                        <set attributeName="fill" to="#808080" begin="arrowRight.mouseover" end="arrowRight.mouseout"/>
                  </use>
                  <path fill="none" stroke="white" stroke-width="1.5" d="M0,-3.0v7 M-2.5,-0.5L0,-3.0L2.5,-0.5"/>
                </g>
                <g id="arrowDown" xlink:href="#dirArrow" target="_top" transform="rotate(180) translate(-30 -48)" onmousedown="handlePan(0,1)">
                  <use xlink:href="#rim" target="_top" fill="#404040">
                        <set attributeName="fill" to="#808080" begin="arrowDown.mouseover" end="arrowDown.mouseout"/>
                  </use>
                  <path fill="none" stroke="white" stroke-width="1.5" d="M0,-3.0v7 M-2.5,-0.5L0,-3.0L2.5,-0.5"/>
                </g>
                <g id="arrowLeft" xlink:href="#dirArrow" target="_top" transform="rotate(270) translate(-36 17)" onmousedown="handlePan(-1,0)">
                  <use xlink:href="#rim" target="_top" fill="#404040">
                        <set attributeName="fill" to="#808080" begin="arrowLeft.mouseover" end="arrowLeft.mouseout"/>
                  </use>
                  <path fill="none" stroke="white" stroke-width="1.5" d="M0,-3.0v7 M-2.5,-0.5L0,-3.0L2.5,-0.5"/>
                </g>
        </g>
        <svg viewBox="0 0 15 15" width="100%" height="30px" preserveAspectRatio="xMaxYMin meet">
         <g id="arrow_out" transform="scale(0.3 0.3)">
          <a xlink:href="VortexEngine_8h__dep__incl_org.svg" target="_top" target="_base">
           <rect id="button" ry="5" rx="5" y="6" x="6" height="38" width="38"
                fill="#f2f5e9" fill-opacity="0.5" stroke="#606060" stroke-width="1.0"/>
           <path id="arrow"
             d="M 11.500037,31.436501 C 11.940474,20.09759 22.043105,11.32322 32.158766,21.979434 L 37.068811,17.246167 C 37.068811,17.246167 37.088388,32 37.088388,32 L 22.160133,31.978069 C 22.160133,31.978069 26.997745,27.140456 26.997745,27.140456 C 18.528582,18.264221 13.291696,25.230495 11.500037,31.436501 z"
             style="fill:#404040;"/>
          </a>
         </g>
        </svg>
</svg>
