<?xml version="1.0" encoding="UTF-8" standalone="no"?>
<!DOCTYPE svg PUBLIC "-//W3C//DTD SVG 1.1//EN"
 "http://www.w3.org/Graphics/SVG/1.1/DTD/svg11.dtd">
<!-- Generated by graphviz version 2.43.0 (0)
 -->
<!-- Title: VortexEngine/src/VortexEngine.h Pages: 1 -->
<svg width="1598pt" height="420pt"
 viewBox="0.00 0.00 1598.00 420.00" xmlns="http://www.w3.org/2000/svg" xmlns:xlink="http://www.w3.org/1999/xlink">
<g id="graph0" class="graph" transform="scale(1 1) rotate(0) translate(4 416)">
<title>VortexEngine/src/VortexEngine.h</title>
<!-- Node1 -->
<g id="node1" class="node">
<title>Node1</title>
<g id="a_node1"><a xlink:title=" ">
<polygon fill="#bfbfbf" stroke="black" points="756.5,-392.5 756.5,-411.5 931.5,-411.5 931.5,-392.5 756.5,-392.5"/>
<text text-anchor="middle" x="844" y="-399.5" font-family="Helvetica,sans-Serif" font-size="10.00">VortexEngine/src/VortexEngine.h</text>
</a>
</g>
</g>
<!-- Node2 -->
<g id="node2" class="node">
<title>Node2</title>
<g id="a_node2"><a xlink:title=" ">
<polygon fill="none" stroke="#bfbfbf" points="524.5,-56.5 524.5,-75.5 589.5,-75.5 589.5,-56.5 524.5,-56.5"/>
<text text-anchor="middle" x="557" y="-63.5" font-family="Helvetica,sans-Serif" font-size="10.00">inttypes.h</text>
</a>
</g>
</g>
<!-- Node1&#45;&gt;Node2 -->
<g id="edge1" class="edge">
<title>Node1&#45;&gt;Node2</title>
<path fill="none" stroke="midnightblue" d="M756.39,-401.6C624.95,-401.18 384.01,-394.9 308,-356 249.64,-326.14 237.99,-304.19 212,-244 198.57,-212.89 190.62,-198.19 206,-168 225.2,-130.29 243.96,-128.31 283,-112 360.31,-79.7 458.93,-70.52 514.3,-67.95"/>
<polygon fill="midnightblue" stroke="midnightblue" points="514.6,-71.44 524.45,-67.53 514.32,-64.44 514.6,-71.44"/>
</g>
<!-- Node3 -->
<g id="node3" class="node">
<title>Node3</title>
<g id="a_node3"><a xlink:href="VortexConfig_8h.html" target="_top" xlink:title=" ">
<polygon fill="none" stroke="black" points="1356,-56.5 1356,-75.5 1444,-75.5 1444,-56.5 1356,-56.5"/>
<text text-anchor="middle" x="1400" y="-63.5" font-family="Helvetica,sans-Serif" font-size="10.00">VortexConfig.h</text>
</a>
</g>
</g>
<!-- Node1&#45;&gt;Node3 -->
<g id="edge2" class="edge">
<title>Node1&#45;&gt;Node3</title>
<path fill="none" stroke="midnightblue" d="M931.68,-401.57C1044.72,-400.6 1246.77,-393.12 1415,-356 1496.02,-338.13 1590,-373.97 1590,-291 1590,-291 1590,-291 1590,-177 1590,-113.72 1510.08,-86.25 1453.91,-74.76"/>
<polygon fill="midnightblue" stroke="midnightblue" points="1454.55,-71.32 1444.07,-72.86 1453.22,-78.19 1454.55,-71.32"/>
</g>
<!-- Node5 -->
<g id="node5" class="node">
<title>Node5</title>
<g id="a_node5"><a xlink:href="PatternBuilder_8h.html" target="_top" xlink:title=" ">
<polygon fill="none" stroke="black" points="775.5,-280.5 775.5,-299.5 912.5,-299.5 912.5,-280.5 775.5,-280.5"/>
<text text-anchor="middle" x="844" y="-287.5" font-family="Helvetica,sans-Serif" font-size="10.00">Patterns/PatternBuilder.h</text>
</a>
</g>
</g>
<!-- Node1&#45;&gt;Node5 -->
<g id="edge4" class="edge">
<title>Node1&#45;&gt;Node5</title>
<path fill="none" stroke="midnightblue" d="M844,-392.37C844,-374.62 844,-333.67 844,-309.6"/>
<polygon fill="midnightblue" stroke="midnightblue" points="847.5,-309.59 844,-299.59 840.5,-309.59 847.5,-309.59"/>
</g>
<!-- Node7 -->
<g id="node7" class="node">
<title>Node7</title>
<g id="a_node7"><a xlink:href="IRReceiver_8h.html" target="_top" xlink:title=" ">
<polygon fill="none" stroke="black" points="236,-224.5 236,-243.5 358,-243.5 358,-224.5 236,-224.5"/>
<text text-anchor="middle" x="297" y="-231.5" font-family="Helvetica,sans-Serif" font-size="10.00">Wireless/IRReceiver.h</text>
</a>
</g>
</g>
<!-- Node1&#45;&gt;Node7 -->
<g id="edge7" class="edge">
<title>Node1&#45;&gt;Node7</title>
<path fill="none" stroke="midnightblue" d="M802.72,-392.48C763.83,-384.16 704.08,-370.66 653,-356 532.05,-321.28 391.39,-270.24 329.29,-247.15"/>
<polygon fill="midnightblue" stroke="midnightblue" points="330.26,-243.77 319.67,-243.56 327.81,-250.33 330.26,-243.77"/>
</g>
<!-- Node10 -->
<g id="node10" class="node">
<title>Node10</title>
<g id="a_node10"><a xlink:href="IRSender_8h.html" target="_top" xlink:title=" ">
<polygon fill="none" stroke="black" points="376.5,-224.5 376.5,-243.5 489.5,-243.5 489.5,-224.5 376.5,-224.5"/>
<text text-anchor="middle" x="433" y="-231.5" font-family="Helvetica,sans-Serif" font-size="10.00">Wireless/IRSender.h</text>
</a>
</g>
</g>
<!-- Node1&#45;&gt;Node10 -->
<g id="edge12" class="edge">
<title>Node1&#45;&gt;Node10</title>
<path fill="none" stroke="midnightblue" d="M814.89,-392.45C786.75,-383.97 743.06,-370.21 706,-356 614.07,-320.74 508.29,-271.21 459.81,-247.98"/>
<polygon fill="midnightblue" stroke="midnightblue" points="461.15,-244.74 450.62,-243.57 458.12,-251.05 461.15,-244.74"/>
</g>
<!-- Node12 -->
<g id="node12" class="node">
<title>Node12</title>
<g id="a_node12"><a xlink:href="Log_8h.html" target="_top" xlink:title=" ">
<polygon fill="none" stroke="black" points="1158,-112.5 1158,-131.5 1230,-131.5 1230,-112.5 1158,-112.5"/>
<text text-anchor="middle" x="1194" y="-119.5" font-family="Helvetica,sans-Serif" font-size="10.00">../Log/Log.h</text>
</a>
</g>
</g>
<!-- Node1&#45;&gt;Node12 -->
<g id="edge71" class="edge">
<title>Node1&#45;&gt;Node12</title>
<path fill="none" stroke="midnightblue" d="M931.65,-397.65C1056.72,-392.13 1279.82,-379.34 1357,-356 1414.68,-338.55 1476,-351.26 1476,-291 1476,-291 1476,-291 1476,-233 1476,-183.02 1320.32,-146.59 1240.3,-131.16"/>
<polygon fill="midnightblue" stroke="midnightblue" points="1240.48,-127.63 1230,-129.21 1239.18,-134.51 1240.48,-127.63"/>
</g>
<!-- Node14 -->
<g id="node14" class="node">
<title>Node14</title>
<g id="a_node14"><a xlink:href="VLReceiver_8h.html" target="_top" xlink:title=" ">
<polygon fill="none" stroke="black" points="507.5,-224.5 507.5,-243.5 632.5,-243.5 632.5,-224.5 507.5,-224.5"/>
<text text-anchor="middle" x="570" y="-231.5" font-family="Helvetica,sans-Serif" font-size="10.00">Wireless/VLReceiver.h</text>
</a>
</g>
</g>
<!-- Node1&#45;&gt;Node14 -->
<g id="edge20" class="edge">
<title>Node1&#45;&gt;Node14</title>
<path fill="none" stroke="midnightblue" d="M823.59,-392.39C786.86,-376.5 707.78,-340.47 647,-300 624.64,-285.11 601.4,-264.7 586.38,-250.74"/>
<polygon fill="midnightblue" stroke="midnightblue" points="588.62,-248.04 578.94,-243.73 583.82,-253.14 588.62,-248.04"/>
</g>
<!-- Node16 -->
<g id="node16" class="node">
<title>Node16</title>
<g id="a_node16"><a xlink:href="VLSender_8h.html" target="_top" xlink:title=" ">
<polygon fill="none" stroke="black" points="689,-224.5 689,-243.5 805,-243.5 805,-224.5 689,-224.5"/>
<text text-anchor="middle" x="747" y="-231.5" font-family="Helvetica,sans-Serif" font-size="10.00">Wireless/VLSender.h</text>
</a>
</g>
</g>
<!-- Node1&#45;&gt;Node16 -->
<g id="edge25" class="edge">
<title>Node1&#45;&gt;Node16</title>
<path fill="none" stroke="midnightblue" d="M835.6,-392.28C819.99,-375.64 786.36,-337.65 767,-300 759.41,-285.23 754.12,-267.08 750.9,-253.71"/>
<polygon fill="midnightblue" stroke="midnightblue" points="754.28,-252.78 748.67,-243.79 747.45,-254.31 754.28,-252.78"/>
</g>
<!-- Node17 -->
<g id="node17" class="node">
<title>Node17</title>
<g id="a_node17"><a xlink:href="Storage_8h.html" target="_top" xlink:title=" ">
<polygon fill="none" stroke="black" points="0,-112.5 0,-131.5 104,-131.5 104,-112.5 0,-112.5"/>
<text text-anchor="middle" x="52" y="-119.5" font-family="Helvetica,sans-Serif" font-size="10.00">Storage/Storage.h</text>
</a>
</g>
</g>
<!-- Node1&#45;&gt;Node17 -->
<g id="edge29" class="edge">
<title>Node1&#45;&gt;Node17</title>
<path fill="none" stroke="midnightblue" d="M756.41,-401.49C565.26,-401.77 123.56,-397.83 71,-356 47.45,-337.26 52,-321.1 52,-291 52,-291 52,-291 52,-233 52,-200.95 52,-163.64 52,-141.75"/>
<polygon fill="midnightblue" stroke="midnightblue" points="55.5,-141.56 52,-131.56 48.5,-141.56 55.5,-141.56"/>
</g>
<!-- Node18 -->
<g id="node18" class="node">
<title>Node18</title>
<g id="a_node18"><a xlink:href="Buttons_8h.html" target="_top" xlink:title=" ">
<polygon fill="none" stroke="black" points="317,-336.5 317,-355.5 421,-355.5 421,-336.5 317,-336.5"/>
<text text-anchor="middle" x="369" y="-343.5" font-family="Helvetica,sans-Serif" font-size="10.00">Buttons/Buttons.h</text>
</a>
</g>
</g>
<!-- Node1&#45;&gt;Node18 -->
<g id="edge31" class="edge">
<title>Node1&#45;&gt;Node18</title>
<path fill="none" stroke="midnightblue" d="M769,-392.47C675.7,-381.87 518.13,-363.95 431.22,-354.07"/>
<polygon fill="midnightblue" stroke="midnightblue" points="431.56,-350.59 421.23,-352.94 430.77,-357.55 431.56,-350.59"/>
</g>
<!-- Node20 -->
<g id="node20" class="node">
<title>Node20</title>
<g id="a_node20"><a xlink:href="TimeControl_8h.html" target="_top" xlink:title=" ">
<polygon fill="none" stroke="black" points="1223.5,-280.5 1223.5,-299.5 1336.5,-299.5 1336.5,-280.5 1223.5,-280.5"/>
<text text-anchor="middle" x="1280" y="-287.5" font-family="Helvetica,sans-Serif" font-size="10.00">Time/TimeControl.h</text>
</a>
</g>
</g>
<!-- Node1&#45;&gt;Node20 -->
<g id="edge34" class="edge">
<title>Node1&#45;&gt;Node20</title>
<path fill="none" stroke="midnightblue" d="M929.99,-392.49C985.97,-385.66 1060.19,-374.15 1124,-356 1171.37,-342.53 1223.68,-318.78 1254.09,-304.03"/>
<polygon fill="midnightblue" stroke="midnightblue" points="1255.73,-307.12 1263.16,-299.57 1252.64,-300.84 1255.73,-307.12"/>
</g>
<!-- Node22 -->
<g id="node22" class="node">
<title>Node22</title>
<g id="a_node22"><a xlink:href="Leds_8h.html" target="_top" xlink:title=" ">
<polygon fill="none" stroke="black" points="1087.5,-168.5 1087.5,-187.5 1170.5,-187.5 1170.5,-168.5 1087.5,-168.5"/>
<text text-anchor="middle" x="1129" y="-175.5" font-family="Helvetica,sans-Serif" font-size="10.00">../Leds/Leds.h</text>
</a>
</g>
</g>
<!-- Node1&#45;&gt;Node22 -->
<g id="edge70" class="edge">
<title>Node1&#45;&gt;Node22</title>
<path fill="none" stroke="midnightblue" d="M931.73,-398.58C1064.9,-394.09 1305.77,-382.38 1335,-356 1360.34,-333.14 1364.35,-308.78 1346,-280 1309.87,-223.34 1232.79,-197.96 1180.92,-186.95"/>
<polygon fill="midnightblue" stroke="midnightblue" points="1181.39,-183.48 1170.9,-184.94 1180.01,-190.34 1181.39,-183.48"/>
</g>
<!-- Node25 -->
<g id="node25" class="node">
<title>Node25</title>
<g id="a_node25"><a xlink:href="Timings_8h.html" target="_top" xlink:title=" ">
<polygon fill="none" stroke="black" points="1234,-336.5 1234,-355.5 1326,-355.5 1326,-336.5 1234,-336.5"/>
<text text-anchor="middle" x="1280" y="-343.5" font-family="Helvetica,sans-Serif" font-size="10.00">Time/Timings.h</text>
</a>
</g>
</g>
<!-- Node1&#45;&gt;Node25 -->
<g id="edge49" class="edge">
<title>Node1&#45;&gt;Node25</title>
<path fill="none" stroke="midnightblue" d="M913.09,-392.44C999.03,-381.8 1144.13,-363.83 1223.67,-353.98"/>
<polygon fill="midnightblue" stroke="midnightblue" points="1224.48,-357.4 1233.98,-352.7 1223.62,-350.46 1224.48,-357.4"/>
</g>
<!-- Node26 -->
<g id="node26" class="node">
<title>Node26</title>
<g id="a_node26"><a xlink:href="Serial_8h.html" target="_top" xlink:title=" ">
<polygon fill="none" stroke="black" points="80,-336.5 80,-355.5 164,-355.5 164,-336.5 80,-336.5"/>
<text text-anchor="middle" x="122" y="-343.5" font-family="Helvetica,sans-Serif" font-size="10.00">Serial/Serial.h</text>
</a>
</g>
</g>
<!-- Node1&#45;&gt;Node26 -->
<g id="edge52" class="edge">
<title>Node1&#45;&gt;Node26</title>
<path fill="none" stroke="midnightblue" d="M756.5,-397.65C628.96,-392.19 384.68,-379.54 178,-356 176.73,-355.86 175.45,-355.7 174.16,-355.54"/>
<polygon fill="midnightblue" stroke="midnightblue" points="174.52,-352.06 164.14,-354.2 173.59,-359 174.52,-352.06"/>
</g>
<!-- Node27 -->
<g id="node27" class="node">
<title>Node27</title>
<g id="a_node27"><a xlink:href="Modes_8h.html" target="_top" xlink:title=" ">
<polygon fill="none" stroke="black" points="899.5,-224.5 899.5,-243.5 992.5,-243.5 992.5,-224.5 899.5,-224.5"/>
<text text-anchor="middle" x="946" y="-231.5" font-family="Helvetica,sans-Serif" font-size="10.00">Modes/Modes.h</text>
</a>
</g>
</g>
<!-- Node1&#45;&gt;Node27 -->
<g id="edge54" class="edge">
<title>Node1&#45;&gt;Node27</title>
<path fill="none" stroke="midnightblue" d="M852.08,-392.46C867.47,-375.82 901.29,-337.41 922,-300 930.19,-285.2 936.63,-267.05 940.76,-253.69"/>
<polygon fill="midnightblue" stroke="midnightblue" points="944.21,-254.36 943.68,-243.78 937.5,-252.38 944.21,-254.36"/>
</g>
<!-- Node28 -->
<g id="node28" class="node">
<title>Node28</title>
<g id="a_node28"><a xlink:href="Menus_8h.html" target="_top" xlink:title=" ">
<polygon fill="none" stroke="black" points="995.5,-336.5 995.5,-355.5 1088.5,-355.5 1088.5,-336.5 995.5,-336.5"/>
<text text-anchor="middle" x="1042" y="-343.5" font-family="Helvetica,sans-Serif" font-size="10.00">Menus/Menus.h</text>
</a>
</g>
</g>
<!-- Node1&#45;&gt;Node28 -->
<g id="edge61" class="edge">
<title>Node1&#45;&gt;Node28</title>
<path fill="none" stroke="midnightblue" d="M875.37,-392.44C909.26,-383.2 963.4,-368.44 1000.72,-358.26"/>
<polygon fill="midnightblue" stroke="midnightblue" points="1002.05,-361.52 1010.77,-355.52 1000.2,-354.77 1002.05,-361.52"/>
</g>
<!-- Node29 -->
<g id="node29" class="node">
<title>Node29</title>
<g id="a_node29"><a xlink:href="Mode_8h.html" target="_top" xlink:title=" ">
<polygon fill="none" stroke="black" points="1108.5,-280.5 1108.5,-299.5 1205.5,-299.5 1205.5,-280.5 1108.5,-280.5"/>
<text text-anchor="middle" x="1157" y="-287.5" font-family="Helvetica,sans-Serif" font-size="10.00">../Modes/Mode.h</text>
</a>
</g>
</g>
<!-- Node1&#45;&gt;Node29 -->
<g id="edge69" class="edge">
<title>Node1&#45;&gt;Node29</title>
<path fill="none" stroke="midnightblue" d="M931.58,-399.43C982.83,-395.22 1047.23,-384.04 1098,-356 1118.55,-344.65 1135.73,-323.43 1146.16,-308.32"/>
<polygon fill="midnightblue" stroke="midnightblue" points="1149.16,-310.12 1151.74,-299.85 1143.32,-306.27 1149.16,-310.12"/>
</g>
<!-- Node4 -->
<g id="node4" class="node">
<title>Node4</title>
<g id="a_node4"><a xlink:href="ColorConstants_8h.html" target="_top" xlink:title=" ">
<polygon fill="none" stroke="black" points="1169,-0.5 1169,-19.5 1303,-19.5 1303,-0.5 1169,-0.5"/>
<text text-anchor="middle" x="1236" y="-7.5" font-family="Helvetica,sans-Serif" font-size="10.00">Colors/ColorConstants.h</text>
</a>
</g>
</g>
<!-- Node3&#45;&gt;Node4 -->
<g id="edge3" class="edge">
<title>Node3&#45;&gt;Node4</title>
<path fill="none" stroke="midnightblue" d="M1374.01,-56.44C1346.3,-47.32 1302.25,-32.81 1271.38,-22.65"/>
<polygon fill="midnightblue" stroke="midnightblue" points="1272.46,-19.32 1261.86,-19.52 1270.27,-25.97 1272.46,-19.32"/>
</g>
<!-- Node6 -->
<g id="node6" class="node">
<title>Node6</title>
<g id="a_node6"><a xlink:href="Patterns_8h.html" target="_top" xlink:title=" ">
<polygon fill="none" stroke="black" points="813.5,-168.5 813.5,-187.5 878.5,-187.5 878.5,-168.5 813.5,-168.5"/>
<text text-anchor="middle" x="846" y="-175.5" font-family="Helvetica,sans-Serif" font-size="10.00">Patterns.h</text>
</a>
</g>
</g>
<!-- Node5&#45;&gt;Node6 -->
<g id="edge5" class="edge">
<title>Node5&#45;&gt;Node6</title>
<path fill="none" stroke="midnightblue" d="M844.16,-280.37C844.48,-262.62 845.22,-221.67 845.66,-197.6"/>
<polygon fill="midnightblue" stroke="midnightblue" points="849.16,-197.65 845.84,-187.59 842.16,-197.53 849.16,-197.65"/>
</g>
<!-- Node6&#45;&gt;Node2 -->
<g id="edge6" class="edge">
<title>Node6&#45;&gt;Node2</title>
<path fill="none" stroke="midnightblue" d="M823.32,-168.37C772.25,-148.93 648.1,-101.67 589.13,-79.23"/>
<polygon fill="midnightblue" stroke="midnightblue" points="590.16,-75.88 579.57,-75.59 587.67,-82.42 590.16,-75.88"/>
</g>
<!-- Node7&#45;&gt;Node2 -->
<g id="edge8" class="edge">
<title>Node7&#45;&gt;Node2</title>
<path fill="none" stroke="midnightblue" d="M291.37,-224.16C283.65,-210.79 272.03,-185.19 284,-168 336.27,-92.92 451.13,-73.52 513.92,-68.6"/>
<polygon fill="midnightblue" stroke="midnightblue" points="514.54,-72.06 524.27,-67.88 514.06,-65.08 514.54,-72.06"/>
</g>
<!-- Node8 -->
<g id="node8" class="node">
<title>Node8</title>
<g id="a_node8"><a xlink:href="BitStream_8h.html" target="_top" xlink:title=" ">
<polygon fill="none" stroke="black" points="377,-168.5 377,-187.5 491,-187.5 491,-168.5 377,-168.5"/>
<text text-anchor="middle" x="434" y="-175.5" font-family="Helvetica,sans-Serif" font-size="10.00">../Serial/BitStream.h</text>
</a>
</g>
</g>
<!-- Node7&#45;&gt;Node8 -->
<g id="edge9" class="edge">
<title>Node7&#45;&gt;Node8</title>
<path fill="none" stroke="midnightblue" d="M318.71,-224.44C341.35,-215.52 377.07,-201.44 402.75,-191.32"/>
<polygon fill="midnightblue" stroke="midnightblue" points="404.37,-194.44 412.39,-187.52 401.81,-187.93 404.37,-194.44"/>
</g>
<!-- Node9 -->
<g id="node9" class="node">
<title>Node9</title>
<g id="a_node9"><a xlink:href="IRConfig_8h.html" target="_top" xlink:title=" ">
<polygon fill="none" stroke="black" points="293,-168.5 293,-187.5 359,-187.5 359,-168.5 293,-168.5"/>
<text text-anchor="middle" x="326" y="-175.5" font-family="Helvetica,sans-Serif" font-size="10.00">IRConfig.h</text>
</a>
</g>
</g>
<!-- Node7&#45;&gt;Node9 -->
<g id="edge11" class="edge">
<title>Node7&#45;&gt;Node9</title>
<path fill="none" stroke="midnightblue" d="M301.79,-224.08C305.76,-216.69 311.53,-205.95 316.43,-196.81"/>
<polygon fill="midnightblue" stroke="midnightblue" points="319.65,-198.22 321.3,-187.75 313.49,-194.91 319.65,-198.22"/>
</g>
<!-- Node8&#45;&gt;Node2 -->
<g id="edge10" class="edge">
<title>Node8&#45;&gt;Node2</title>
<path fill="none" stroke="midnightblue" d="M443.57,-168.08C457.13,-155.48 482.78,-131.78 505,-112 516.29,-101.95 529.12,-90.84 539.22,-82.17"/>
<polygon fill="midnightblue" stroke="midnightblue" points="541.64,-84.71 546.96,-75.54 537.09,-79.39 541.64,-84.71"/>
</g>
<!-- Node10&#45;&gt;Node8 -->
<g id="edge18" class="edge">
<title>Node10&#45;&gt;Node8</title>
<path fill="none" stroke="midnightblue" d="M433.17,-224.08C433.3,-217.01 433.48,-206.86 433.65,-197.99"/>
<polygon fill="midnightblue" stroke="midnightblue" points="437.15,-197.81 433.84,-187.75 430.15,-197.68 437.15,-197.81"/>
</g>
<!-- Node10&#45;&gt;Node9 -->
<g id="edge19" class="edge">
<title>Node10&#45;&gt;Node9</title>
<path fill="none" stroke="midnightblue" d="M415.81,-224.32C398.65,-215.66 372.05,-202.24 352.25,-192.25"/>
<polygon fill="midnightblue" stroke="midnightblue" points="353.65,-189.04 343.15,-187.65 350.5,-195.28 353.65,-189.04"/>
</g>
<!-- Node11 -->
<g id="node11" class="node">
<title>Node11</title>
<g id="a_node11"><a xlink:href="ByteStream_8h.html" target="_top" xlink:title=" ">
<polygon fill="none" stroke="black" points="585.5,-168.5 585.5,-187.5 708.5,-187.5 708.5,-168.5 585.5,-168.5"/>
<text text-anchor="middle" x="647" y="-175.5" font-family="Helvetica,sans-Serif" font-size="10.00">../Serial/ByteStream.h</text>
</a>
</g>
</g>
<!-- Node10&#45;&gt;Node11 -->
<g id="edge13" class="edge">
<title>Node10&#45;&gt;Node11</title>
<path fill="none" stroke="midnightblue" d="M466.91,-224.44C503.85,-215.12 563.05,-200.18 603.42,-190"/>
<polygon fill="midnightblue" stroke="midnightblue" points="604.41,-193.36 613.25,-187.52 602.7,-186.57 604.41,-193.36"/>
</g>
<!-- Node11&#45;&gt;Node2 -->
<g id="edge14" class="edge">
<title>Node11&#45;&gt;Node2</title>
<path fill="none" stroke="midnightblue" d="M639.94,-168.37C624.95,-150.05 589.77,-107.05 570.39,-83.36"/>
<polygon fill="midnightblue" stroke="midnightblue" points="573.07,-81.11 564.03,-75.59 567.65,-85.55 573.07,-81.11"/>
</g>
<!-- Node11&#45;&gt;Node12 -->
<g id="edge15" class="edge">
<title>Node11&#45;&gt;Node12</title>
<path fill="none" stroke="midnightblue" d="M708.56,-169.06C711.75,-168.69 714.91,-168.34 718,-168 892.36,-148.97 936.47,-149.45 1111,-132 1122.82,-130.82 1135.59,-129.47 1147.48,-128.18"/>
<polygon fill="midnightblue" stroke="midnightblue" points="1148.09,-131.64 1157.65,-127.07 1147.33,-124.68 1148.09,-131.64"/>
</g>
<!-- Node12&#45;&gt;Node3 -->
<g id="edge17" class="edge">
<title>Node12&#45;&gt;Node3</title>
<path fill="none" stroke="midnightblue" d="M1226.64,-112.44C1262.05,-103.16 1318.71,-88.31 1357.55,-78.13"/>
<polygon fill="midnightblue" stroke="midnightblue" points="1358.73,-81.44 1367.51,-75.52 1356.95,-74.67 1358.73,-81.44"/>
</g>
<!-- Node13 -->
<g id="node13" class="node">
<title>Node13</title>
<g id="a_node13"><a xlink:title=" ">
<polygon fill="none" stroke="#bfbfbf" points="1134,-56.5 1134,-75.5 1190,-75.5 1190,-56.5 1134,-56.5"/>
<text text-anchor="middle" x="1162" y="-63.5" font-family="Helvetica,sans-Serif" font-size="10.00">stdarg.h</text>
</a>
</g>
</g>
<!-- Node12&#45;&gt;Node13 -->
<g id="edge16" class="edge">
<title>Node12&#45;&gt;Node13</title>
<path fill="none" stroke="midnightblue" d="M1188.72,-112.08C1184.29,-104.61 1177.84,-93.72 1172.38,-84.52"/>
<polygon fill="midnightblue" stroke="midnightblue" points="1175.29,-82.57 1167.19,-75.75 1169.27,-86.14 1175.29,-82.57"/>
</g>
<!-- Node14&#45;&gt;Node2 -->
<g id="edge21" class="edge">
<title>Node14&#45;&gt;Node2</title>
<path fill="none" stroke="midnightblue" d="M562.85,-224.36C556.23,-215.76 546.84,-201.87 543,-188 533.98,-155.45 537.93,-145.39 543,-112 544.37,-103 547.19,-93.33 549.95,-85.26"/>
<polygon fill="midnightblue" stroke="midnightblue" points="553.27,-86.37 553.4,-75.78 546.69,-83.98 553.27,-86.37"/>
</g>
<!-- Node14&#45;&gt;Node8 -->
<g id="edge22" class="edge">
<title>Node14&#45;&gt;Node8</title>
<path fill="none" stroke="midnightblue" d="M548.45,-224.44C525.97,-215.52 490.51,-201.44 465.02,-191.32"/>
<polygon fill="midnightblue" stroke="midnightblue" points="466.03,-187.95 455.45,-187.52 463.45,-194.46 466.03,-187.95"/>
</g>
<!-- Node15 -->
<g id="node15" class="node">
<title>Node15</title>
<g id="a_node15"><a xlink:href="VLConfig_8h.html" target="_top" xlink:title=" ">
<polygon fill="none" stroke="black" points="727,-168.5 727,-187.5 795,-187.5 795,-168.5 727,-168.5"/>
<text text-anchor="middle" x="761" y="-175.5" font-family="Helvetica,sans-Serif" font-size="10.00">VLConfig.h</text>
</a>
</g>
</g>
<!-- Node14&#45;&gt;Node15 -->
<g id="edge23" class="edge">
<title>Node14&#45;&gt;Node15</title>
<path fill="none" stroke="midnightblue" d="M600.26,-224.44C632.96,-215.2 685.18,-200.44 721.18,-190.26"/>
<polygon fill="midnightblue" stroke="midnightblue" points="722.21,-193.61 730.88,-187.52 720.3,-186.87 722.21,-193.61"/>
</g>
<!-- Node15&#45;&gt;Node3 -->
<g id="edge24" class="edge">
<title>Node15&#45;&gt;Node3</title>
<path fill="none" stroke="midnightblue" d="M795.04,-169.62C798.4,-169.02 801.76,-168.46 805,-168 996.6,-140.56 1052.9,-185.17 1239,-132 1257.73,-126.65 1260.16,-119.83 1278,-112 1306.52,-99.48 1339.74,-87.38 1364.31,-78.89"/>
<polygon fill="midnightblue" stroke="midnightblue" points="1365.61,-82.14 1373.94,-75.59 1363.34,-75.52 1365.61,-82.14"/>
</g>
<!-- Node16&#45;&gt;Node8 -->
<g id="edge27" class="edge">
<title>Node16&#45;&gt;Node8</title>
<path fill="none" stroke="midnightblue" d="M697.4,-224.44C642,-214.89 552.36,-199.42 493.29,-189.23"/>
<polygon fill="midnightblue" stroke="midnightblue" points="493.81,-185.77 483.36,-187.52 492.62,-192.67 493.81,-185.77"/>
</g>
<!-- Node16&#45;&gt;Node11 -->
<g id="edge26" class="edge">
<title>Node16&#45;&gt;Node11</title>
<path fill="none" stroke="midnightblue" d="M730.93,-224.32C715.04,-215.74 690.49,-202.49 672.04,-192.52"/>
<polygon fill="midnightblue" stroke="midnightblue" points="673.49,-189.33 663.03,-187.65 670.16,-195.49 673.49,-189.33"/>
</g>
<!-- Node16&#45;&gt;Node15 -->
<g id="edge28" class="edge">
<title>Node16&#45;&gt;Node15</title>
<path fill="none" stroke="midnightblue" d="M749.31,-224.08C751.17,-216.93 753.84,-206.64 756.15,-197.69"/>
<polygon fill="midnightblue" stroke="midnightblue" points="759.61,-198.31 758.73,-187.75 752.83,-196.55 759.61,-198.31"/>
</g>
<!-- Node17&#45;&gt;Node2 -->
<g id="edge30" class="edge">
<title>Node17&#45;&gt;Node2</title>
<path fill="none" stroke="midnightblue" d="M104.22,-113.72C108.88,-113.12 113.52,-112.53 118,-112 263.25,-94.66 436.03,-78.15 514.48,-70.88"/>
<polygon fill="midnightblue" stroke="midnightblue" points="514.83,-74.37 524.47,-69.96 514.19,-67.4 514.83,-74.37"/>
</g>
<!-- Node19 -->
<g id="node19" class="node">
<title>Node19</title>
<g id="a_node19"><a xlink:href="Button_8h.html" target="_top" xlink:title=" ">
<polygon fill="none" stroke="black" points="280,-280.5 280,-299.5 338,-299.5 338,-280.5 280,-280.5"/>
<text text-anchor="middle" x="309" y="-287.5" font-family="Helvetica,sans-Serif" font-size="10.00">Button.h</text>
</a>
</g>
</g>
<!-- Node18&#45;&gt;Node19 -->
<g id="edge32" class="edge">
<title>Node18&#45;&gt;Node19</title>
<path fill="none" stroke="midnightblue" d="M359.36,-336.32C350.49,-328.34 337.13,-316.31 326.39,-306.65"/>
<polygon fill="midnightblue" stroke="midnightblue" points="328.59,-303.92 318.82,-299.83 323.91,-309.13 328.59,-303.92"/>
</g>
<!-- Node19&#45;&gt;Node2 -->
<g id="edge33" class="edge">
<title>Node19&#45;&gt;Node2</title>
<path fill="none" stroke="midnightblue" d="M279.66,-281.28C261.02,-274.69 238.33,-263.14 227,-244 192.15,-185.13 193.5,-186.17 318,-112 379.29,-75.48 463.8,-67.57 514.17,-66.41"/>
<polygon fill="midnightblue" stroke="midnightblue" points="514.44,-69.9 524.38,-66.25 514.33,-62.9 514.44,-69.9"/>
</g>
<!-- Node20&#45;&gt;Node2 -->
<g id="edge35" class="edge">
<title>Node20&#45;&gt;Node2</title>
<path fill="none" stroke="midnightblue" d="M1234.69,-280.43C1197.02,-272.7 1142.28,-260.1 1096,-244 963.01,-197.73 942.37,-154.09 808,-112 736.81,-89.7 650.58,-77.26 599.96,-71.36"/>
<polygon fill="midnightblue" stroke="midnightblue" points="600.05,-67.85 589.72,-70.2 599.26,-74.8 600.05,-67.85"/>
</g>
<!-- Node20&#45;&gt;Node3 -->
<g id="edge36" class="edge">
<title>Node20&#45;&gt;Node3</title>
<path fill="none" stroke="midnightblue" d="M1307.21,-280.41C1357.94,-262.57 1464.2,-215.98 1490,-132 1492.61,-123.5 1494.67,-119.56 1490,-112 1480.33,-96.35 1463.38,-85.96 1446.78,-79.15"/>
<polygon fill="midnightblue" stroke="midnightblue" points="1447.69,-75.76 1437.1,-75.54 1445.25,-82.32 1447.69,-75.76"/>
</g>
<!-- Node21 -->
<g id="node21" class="node">
<title>Node21</title>
<g id="a_node21"><a xlink:href="LedTypes_8h.html" target="_top" xlink:title=" ">
<polygon fill="none" stroke="black" points="1104.5,-224.5 1104.5,-243.5 1209.5,-243.5 1209.5,-224.5 1104.5,-224.5"/>
<text text-anchor="middle" x="1157" y="-231.5" font-family="Helvetica,sans-Serif" font-size="10.00">../Leds/LedTypes.h</text>
</a>
</g>
</g>
<!-- Node20&#45;&gt;Node21 -->
<g id="edge37" class="edge">
<title>Node20&#45;&gt;Node21</title>
<path fill="none" stroke="midnightblue" d="M1260.51,-280.44C1240.36,-271.6 1208.68,-257.69 1185.67,-247.59"/>
<polygon fill="midnightblue" stroke="midnightblue" points="1186.96,-244.33 1176.4,-243.52 1184.15,-250.74 1186.96,-244.33"/>
</g>
<!-- Node21&#45;&gt;Node2 -->
<g id="edge38" class="edge">
<title>Node21&#45;&gt;Node2</title>
<path fill="none" stroke="midnightblue" d="M1136.25,-224.42C1095.8,-207.56 1003.71,-168.57 928,-132 910.81,-123.7 908.18,-117.81 890,-112 789.46,-79.86 664.7,-70.67 600.18,-68.05"/>
<polygon fill="midnightblue" stroke="midnightblue" points="600.1,-64.54 589.98,-67.67 599.84,-71.54 600.1,-64.54"/>
</g>
<!-- Node21&#45;&gt;Node3 -->
<g id="edge48" class="edge">
<title>Node21&#45;&gt;Node3</title>
<path fill="none" stroke="midnightblue" d="M1209.92,-233.07C1257.13,-230.73 1326.28,-221.19 1376,-188 1401.02,-171.3 1405.17,-160.75 1414,-132 1418.82,-116.33 1413.98,-98.04 1408.72,-84.86"/>
<polygon fill="midnightblue" stroke="midnightblue" points="1411.84,-83.26 1404.58,-75.53 1405.44,-86.09 1411.84,-83.26"/>
</g>
<!-- Node21&#45;&gt;Node13 -->
<g id="edge39" class="edge">
<title>Node21&#45;&gt;Node13</title>
<path fill="none" stroke="midnightblue" d="M1163.1,-224.19C1168.75,-215.46 1176.76,-201.48 1180,-188 1182.08,-179.36 1183.09,-176.33 1180,-168 1172.65,-148.21 1156.35,-151.79 1149,-132 1143.31,-116.68 1147.94,-98.35 1153.18,-85.07"/>
<polygon fill="midnightblue" stroke="midnightblue" points="1156.5,-86.21 1157.34,-75.65 1150.1,-83.39 1156.5,-86.21"/>
</g>
<!-- Node21&#45;&gt;Node22 -->
<g id="edge40" class="edge">
<title>Node21&#45;&gt;Node22</title>
<path fill="none" stroke="midnightblue" d="M1152.38,-224.08C1148.54,-216.69 1142.98,-205.95 1138.24,-196.81"/>
<polygon fill="midnightblue" stroke="midnightblue" points="1141.25,-195.02 1133.54,-187.75 1135.03,-198.24 1141.25,-195.02"/>
</g>
<!-- Node22&#45;&gt;Node2 -->
<g id="edge41" class="edge">
<title>Node22&#45;&gt;Node2</title>
<path fill="none" stroke="midnightblue" d="M1093.03,-168.48C1060.66,-160.41 1012.03,-147.28 971,-132 951.25,-124.65 948.27,-117.78 928,-112 812.43,-79.01 669.86,-70.2 599.87,-67.85"/>
<polygon fill="midnightblue" stroke="midnightblue" points="599.79,-64.35 589.68,-67.54 599.57,-71.35 599.79,-64.35"/>
</g>
<!-- Node22&#45;&gt;Node3 -->
<g id="edge46" class="edge">
<title>Node22&#45;&gt;Node3</title>
<path fill="none" stroke="midnightblue" d="M1170.81,-175.94C1216.1,-173.11 1289.09,-163.52 1343,-132 1362.77,-120.44 1379.22,-99.57 1389.29,-84.59"/>
<polygon fill="midnightblue" stroke="midnightblue" points="1392.5,-86.07 1394.95,-75.76 1386.61,-82.29 1392.5,-86.07"/>
</g>
<!-- Node23 -->
<g id="node23" class="node">
<title>Node23</title>
<g id="a_node23"><a xlink:href="ColorTypes_8h.html" target="_top" xlink:title=" ">
<polygon fill="none" stroke="black" points="980,-112.5 980,-131.5 1102,-131.5 1102,-112.5 980,-112.5"/>
<text text-anchor="middle" x="1041" y="-119.5" font-family="Helvetica,sans-Serif" font-size="10.00">../Colors/ColorTypes.h</text>
</a>
</g>
</g>
<!-- Node22&#45;&gt;Node23 -->
<g id="edge42" class="edge">
<title>Node22&#45;&gt;Node23</title>
<path fill="none" stroke="midnightblue" d="M1114.86,-168.32C1101.13,-159.9 1080.06,-146.97 1063.94,-137.07"/>
<polygon fill="midnightblue" stroke="midnightblue" points="1065.46,-133.9 1055.1,-131.65 1061.8,-139.87 1065.46,-133.9"/>
</g>
<!-- Node24 -->
<g id="node24" class="node">
<title>Node24</title>
<g id="a_node24"><a xlink:title=" ">
<polygon fill="none" stroke="#bfbfbf" points="1286.5,-112.5 1286.5,-131.5 1333.5,-131.5 1333.5,-112.5 1286.5,-112.5"/>
<text text-anchor="middle" x="1310" y="-119.5" font-family="Helvetica,sans-Serif" font-size="10.00">vector</text>
</a>
</g>
</g>
<!-- Node22&#45;&gt;Node24 -->
<g id="edge47" class="edge">
<title>Node22&#45;&gt;Node24</title>
<path fill="none" stroke="midnightblue" d="M1157.68,-168.44C1189.93,-158.82 1242.24,-143.21 1276.39,-133.03"/>
<polygon fill="midnightblue" stroke="midnightblue" points="1277.78,-136.27 1286.36,-130.05 1275.77,-129.56 1277.78,-136.27"/>
</g>
<!-- Node23&#45;&gt;Node2 -->
<g id="edge43" class="edge">
<title>Node23&#45;&gt;Node2</title>
<path fill="none" stroke="midnightblue" d="M979.61,-113.58C975.01,-113.04 970.43,-112.51 966,-112 832.58,-96.66 674.54,-79.58 600,-71.59"/>
<polygon fill="midnightblue" stroke="midnightblue" points="599.93,-68.06 589.62,-70.48 599.19,-75.02 599.93,-68.06"/>
</g>
<!-- Node23&#45;&gt;Node3 -->
<g id="edge44" class="edge">
<title>Node23&#45;&gt;Node3</title>
<path fill="none" stroke="midnightblue" d="M1097.88,-112.44C1165.96,-102.2 1279.11,-85.18 1345.92,-75.13"/>
<polygon fill="midnightblue" stroke="midnightblue" points="1346.46,-78.59 1355.83,-73.64 1345.42,-71.67 1346.46,-78.59"/>
</g>
<!-- Node23&#45;&gt;Node4 -->
<g id="edge45" class="edge">
<title>Node23&#45;&gt;Node4</title>
<path fill="none" stroke="midnightblue" d="M1050.22,-112.48C1065.06,-99.09 1095.59,-72.91 1125,-56 1148.6,-42.43 1177.1,-30.97 1199.31,-23.01"/>
<polygon fill="midnightblue" stroke="midnightblue" points="1200.75,-26.21 1209.04,-19.6 1198.44,-19.6 1200.75,-26.21"/>
</g>
<!-- Node25&#45;&gt;Node3 -->
<g id="edge51" class="edge">
<title>Node25&#45;&gt;Node3</title>
<path fill="none" stroke="midnightblue" d="M1299.3,-336.35C1349.34,-312.54 1481.05,-240.46 1505,-132 1506.92,-123.32 1509.89,-119.42 1505,-112 1493.42,-94.44 1473.41,-83.7 1453.94,-77.15"/>
<polygon fill="midnightblue" stroke="midnightblue" points="1454.75,-73.74 1444.16,-74.18 1452.71,-80.44 1454.75,-73.74"/>
</g>
<!-- Node25&#45;&gt;Node20 -->
<g id="edge50" class="edge">
<title>Node25&#45;&gt;Node20</title>
<path fill="none" stroke="midnightblue" d="M1280,-336.08C1280,-329.01 1280,-318.86 1280,-309.99"/>
<polygon fill="midnightblue" stroke="midnightblue" points="1283.5,-309.75 1280,-299.75 1276.5,-309.75 1283.5,-309.75"/>
</g>
<!-- Node26&#45;&gt;Node2 -->
<g id="edge53" class="edge">
<title>Node26&#45;&gt;Node2</title>
<path fill="none" stroke="midnightblue" d="M123.31,-336.47C126.02,-318.01 132,-272.97 132,-235 132,-235 132,-235 132,-177 132,-146.2 131.76,-130.99 156,-112 210.83,-69.05 422.4,-65.67 514.15,-66.31"/>
<polygon fill="midnightblue" stroke="midnightblue" points="514.18,-69.81 524.21,-66.39 514.24,-62.81 514.18,-69.81"/>
</g>
<!-- Node27&#45;&gt;Node2 -->
<g id="edge60" class="edge">
<title>Node27&#45;&gt;Node2</title>
<path fill="none" stroke="midnightblue" d="M940.35,-224.07C931.08,-210.13 911.31,-183.2 888,-168 795.79,-107.9 666.05,-82.09 599.71,-72.28"/>
<polygon fill="midnightblue" stroke="midnightblue" points="600.02,-68.78 589.62,-70.84 599.03,-75.71 600.02,-68.78"/>
</g>
<!-- Node27&#45;&gt;Node3 -->
<g id="edge59" class="edge">
<title>Node27&#45;&gt;Node3</title>
<path fill="none" stroke="midnightblue" d="M992.76,-227.16C1090.3,-214.14 1311.1,-180.07 1368,-132 1382.24,-119.97 1390.72,-100.08 1395.33,-85.47"/>
<polygon fill="midnightblue" stroke="midnightblue" points="1398.79,-86.11 1398.14,-75.54 1392.05,-84.21 1398.79,-86.11"/>
</g>
<!-- Node27&#45;&gt;Node6 -->
<g id="edge57" class="edge">
<title>Node27&#45;&gt;Node6</title>
<path fill="none" stroke="midnightblue" d="M929.93,-224.32C914.04,-215.74 889.49,-202.49 871.04,-192.52"/>
<polygon fill="midnightblue" stroke="midnightblue" points="872.49,-189.33 862.03,-187.65 869.16,-195.49 872.49,-189.33"/>
</g>
<!-- Node27&#45;&gt;Node11 -->
<g id="edge55" class="edge">
<title>Node27&#45;&gt;Node11</title>
<path fill="none" stroke="midnightblue" d="M899.28,-224.56C846.6,-215.05 760.92,-199.57 704.26,-189.34"/>
<polygon fill="midnightblue" stroke="midnightblue" points="704.84,-185.89 694.38,-187.56 703.6,-192.78 704.84,-185.89"/>
</g>
<!-- Node27&#45;&gt;Node22 -->
<g id="edge58" class="edge">
<title>Node27&#45;&gt;Node22</title>
<path fill="none" stroke="midnightblue" d="M975,-224.44C1006.18,-215.24 1055.93,-200.56 1090.41,-190.39"/>
<polygon fill="midnightblue" stroke="midnightblue" points="1091.54,-193.7 1100.14,-187.52 1089.56,-186.99 1091.54,-193.7"/>
</g>
<!-- Node27&#45;&gt;Node23 -->
<g id="edge56" class="edge">
<title>Node27&#45;&gt;Node23</title>
<path fill="none" stroke="midnightblue" d="M953.45,-224.37C969.27,-206.05 1006.41,-163.05 1026.87,-139.36"/>
<polygon fill="midnightblue" stroke="midnightblue" points="1029.69,-141.45 1033.58,-131.59 1024.4,-136.87 1029.69,-141.45"/>
</g>
<!-- Node28&#45;&gt;Node2 -->
<g id="edge62" class="edge">
<title>Node28&#45;&gt;Node2</title>
<path fill="none" stroke="midnightblue" d="M995.37,-342.8C939.53,-338.95 843.91,-328.44 767,-300 706.02,-277.45 698.23,-256.65 642,-224 613.44,-207.42 596.04,-214.98 577,-188 555.29,-157.22 554.03,-111.2 555.33,-85.7"/>
<polygon fill="midnightblue" stroke="midnightblue" points="558.83,-85.78 556.04,-75.56 551.85,-85.29 558.83,-85.78"/>
</g>
<!-- Node28&#45;&gt;Node21 -->
<g id="edge64" class="edge">
<title>Node28&#45;&gt;Node21</title>
<path fill="none" stroke="midnightblue" d="M1049.06,-336.15C1059.56,-323.22 1080.18,-298.66 1100,-280 1111.44,-269.23 1125.26,-258.27 1136.42,-249.87"/>
<polygon fill="midnightblue" stroke="midnightblue" points="1138.76,-252.5 1144.71,-243.73 1134.59,-246.87 1138.76,-252.5"/>
</g>
<!-- Node28&#45;&gt;Node23 -->
<g id="edge63" class="edge">
<title>Node28&#45;&gt;Node23</title>
<path fill="none" stroke="midnightblue" d="M1041.96,-336.3C1041.81,-303.63 1041.29,-187.87 1041.09,-141.96"/>
<polygon fill="midnightblue" stroke="midnightblue" points="1044.59,-141.87 1041.04,-131.88 1037.59,-141.9 1044.59,-141.87"/>
</g>
<!-- Node28&#45;&gt;Node29 -->
<g id="edge65" class="edge">
<title>Node28&#45;&gt;Node29</title>
<path fill="none" stroke="midnightblue" d="M1060.22,-336.44C1078.9,-327.68 1108.16,-313.94 1129.62,-303.86"/>
<polygon fill="midnightblue" stroke="midnightblue" points="1131.3,-306.93 1138.86,-299.52 1128.32,-300.6 1131.3,-306.93"/>
</g>
<!-- Node29&#45;&gt;Node3 -->
<g id="edge68" class="edge">
<title>Node29&#45;&gt;Node3</title>
<path fill="none" stroke="midnightblue" d="M1202.4,-280.48C1255.86,-268.34 1344.51,-241.37 1401,-188 1427.06,-163.38 1437.85,-146.47 1428,-112 1425.1,-101.84 1419.17,-91.75 1413.51,-83.7"/>
<polygon fill="midnightblue" stroke="midnightblue" points="1416.22,-81.48 1407.41,-75.59 1410.62,-85.69 1416.22,-81.48"/>
</g>
<!-- Node29&#45;&gt;Node6 -->
<g id="edge67" class="edge">
<title>Node29&#45;&gt;Node6</title>
<path fill="none" stroke="midnightblue" d="M1108.32,-285.29C1041.68,-279.46 926.27,-266.43 891,-244 873.5,-232.87 860.98,-212.23 853.66,-197.18"/>
<polygon fill="midnightblue" stroke="midnightblue" points="856.74,-195.51 849.42,-187.85 850.37,-198.4 856.74,-195.51"/>
</g>
<!-- Node29&#45;&gt;Node21 -->
<g id="edge66" class="edge">
<title>Node29&#45;&gt;Node21</title>
<path fill="none" stroke="midnightblue" d="M1157,-280.08C1157,-273.01 1157,-262.86 1157,-253.99"/>
<polygon fill="midnightblue" stroke="midnightblue" points="1160.5,-253.75 1157,-243.75 1153.5,-253.75 1160.5,-253.75"/>
</g>
</g>
</svg>
