<?xml version="1.0" encoding="UTF-8" standalone="no"?>
<!DOCTYPE svg PUBLIC "-//W3C//DTD SVG 1.1//EN"
 "http://www.w3.org/Graphics/SVG/1.1/DTD/svg11.dtd">
<!-- Generated by graphviz version 2.43.0 (0)
 -->
<!-- Title: VortexEngine/src/Modes/DefaultModes.h Pages: 1 -->
<svg width="2429pt" height="307pt"
 viewBox="0.00 0.00 2429.00 307.00" xmlns="http://www.w3.org/2000/svg" xmlns:xlink="http://www.w3.org/1999/xlink">
<g id="graph0" class="graph" transform="scale(1 1) rotate(0) translate(4 303)">
<title>VortexEngine/src/Modes/DefaultModes.h</title>
<!-- Node1 -->
<g id="node1" class="node">
<title>Node1</title>
<g id="a_node1"><a xlink:title=" ">
<polygon fill="#bfbfbf" stroke="black" points="1507,-268.5 1507,-298.5 1641,-298.5 1641,-268.5 1507,-268.5"/>
<text text-anchor="start" x="1515" y="-286.5" font-family="Helvetica,sans-Serif" font-size="10.00">VortexEngine/src/Modes</text>
<text text-anchor="middle" x="1574" y="-275.5" font-family="Helvetica,sans-Serif" font-size="10.00">/DefaultModes.h</text>
</a>
</g>
</g>
<!-- Node2 -->
<g id="node2" class="node">
<title>Node2</title>
<g id="a_node2"><a xlink:href="FactoryReset_8cpp.html" target="_top" xlink:title=" ">
<polygon fill="none" stroke="black" points="0,-0.5 0,-30.5 150,-30.5 150,-0.5 0,-0.5"/>
<text text-anchor="start" x="8" y="-18.5" font-family="Helvetica,sans-Serif" font-size="10.00">VortexEngine/src/Menus</text>
<text text-anchor="middle" x="75" y="-7.5" font-family="Helvetica,sans-Serif" font-size="10.00">/MenuList/FactoryReset.cpp</text>
</a>
</g>
</g>
<!-- Node1&#45;&gt;Node2 -->
<g id="edge1" class="edge">
<title>Node1&#45;&gt;Node2</title>
<path fill="none" stroke="midnightblue" d="M1496.59,-280.02C1215.33,-270.5 257.8,-233.3 140,-165 91.31,-136.77 79.02,-62.01 75.98,-30.66"/>
<polygon fill="midnightblue" stroke="midnightblue" points="1496.59,-283.52 1506.7,-280.36 1496.83,-276.53 1496.59,-283.52"/>
</g>
<!-- Node3 -->
<g id="node3" class="node">
<title>Node3</title>
<g id="a_node3"><a xlink:href="DefaultModes_8cpp.html" target="_top" xlink:title=" ">
<polygon fill="none" stroke="black" points="1650,-201.5 1650,-231.5 1784,-231.5 1784,-201.5 1650,-201.5"/>
<text text-anchor="start" x="1658" y="-219.5" font-family="Helvetica,sans-Serif" font-size="10.00">VortexEngine/src/Modes</text>
<text text-anchor="middle" x="1717" y="-208.5" font-family="Helvetica,sans-Serif" font-size="10.00">/DefaultModes.cpp</text>
</a>
</g>
</g>
<!-- Node1&#45;&gt;Node3 -->
<g id="edge2" class="edge">
<title>Node1&#45;&gt;Node3</title>
<path fill="none" stroke="midnightblue" d="M1614.41,-264.13C1637.13,-253.8 1665.06,-241.11 1686.03,-231.58"/>
<polygon fill="midnightblue" stroke="midnightblue" points="1612.68,-261.07 1605.03,-268.4 1615.58,-267.44 1612.68,-261.07"/>
</g>
<!-- Node4 -->
<g id="node4" class="node">
<title>Node4</title>
<g id="a_node4"><a xlink:href="Mode_8h.html" target="_top" xlink:title=" ">
<polygon fill="none" stroke="black" points="1460,-201.5 1460,-231.5 1594,-231.5 1594,-201.5 1460,-201.5"/>
<text text-anchor="start" x="1468" y="-219.5" font-family="Helvetica,sans-Serif" font-size="10.00">VortexEngine/src/Modes</text>
<text text-anchor="middle" x="1527" y="-208.5" font-family="Helvetica,sans-Serif" font-size="10.00">/Mode.h</text>
</a>
</g>
</g>
<!-- Node1&#45;&gt;Node4 -->
<g id="edge3" class="edge">
<title>Node1&#45;&gt;Node4</title>
<path fill="none" stroke="midnightblue" d="M1557.84,-260.16C1550.99,-250.68 1543.21,-239.92 1537.18,-231.58"/>
<polygon fill="midnightblue" stroke="midnightblue" points="1555.11,-262.34 1563.8,-268.4 1560.78,-258.24 1555.11,-262.34"/>
</g>
<!-- Node26 -->
<g id="node26" class="node">
<title>Node26</title>
<g id="a_node26"><a xlink:href="Modes_8cpp.html" target="_top" xlink:title=" ">
<polygon fill="none" stroke="black" points="2287,-134.5 2287,-164.5 2421,-164.5 2421,-134.5 2287,-134.5"/>
<text text-anchor="start" x="2295" y="-152.5" font-family="Helvetica,sans-Serif" font-size="10.00">VortexEngine/src/Modes</text>
<text text-anchor="middle" x="2354" y="-141.5" font-family="Helvetica,sans-Serif" font-size="10.00">/Modes.cpp</text>
</a>
</g>
</g>
<!-- Node1&#45;&gt;Node26 -->
<g id="edge54" class="edge">
<title>Node1&#45;&gt;Node26</title>
<path fill="none" stroke="midnightblue" d="M1585.87,-259.36C1597.18,-240.01 1616.16,-213.61 1641,-201 1766.43,-137.31 2133.29,-181.42 2273,-165 2277.54,-164.47 2282.21,-163.84 2286.91,-163.15"/>
<polygon fill="midnightblue" stroke="midnightblue" points="1582.76,-257.76 1580.94,-268.2 1588.87,-261.17 1582.76,-257.76"/>
</g>
<!-- Node4&#45;&gt;Node2 -->
<g id="edge32" class="edge">
<title>Node4&#45;&gt;Node2</title>
<path fill="none" stroke="midnightblue" d="M1449.46,-214.46C1171.43,-210.51 238.05,-195.04 182,-165 126.26,-135.13 92.52,-61.97 80.26,-30.87"/>
<polygon fill="midnightblue" stroke="midnightblue" points="1449.81,-217.97 1459.86,-214.61 1449.91,-210.97 1449.81,-217.97"/>
</g>
<!-- Node5 -->
<g id="node5" class="node">
<title>Node5</title>
<g id="a_node5"><a xlink:href="Menu_8cpp.html" target="_top" xlink:title=" ">
<polygon fill="none" stroke="black" points="1312,-67.5 1312,-97.5 1446,-97.5 1446,-67.5 1312,-67.5"/>
<text text-anchor="start" x="1320" y="-85.5" font-family="Helvetica,sans-Serif" font-size="10.00">VortexEngine/src/Menus</text>
<text text-anchor="middle" x="1379" y="-74.5" font-family="Helvetica,sans-Serif" font-size="10.00">/Menu.cpp</text>
</a>
</g>
</g>
<!-- Node4&#45;&gt;Node5 -->
<g id="edge4" class="edge">
<title>Node4&#45;&gt;Node5</title>
<path fill="none" stroke="midnightblue" d="M1503.56,-194.59C1473.12,-167.44 1420.8,-120.78 1394.72,-97.52"/>
<polygon fill="midnightblue" stroke="midnightblue" points="1501.37,-197.33 1511.16,-201.37 1506.03,-192.11 1501.37,-197.33"/>
</g>
<!-- Node6 -->
<g id="node6" class="node">
<title>Node6</title>
<g id="a_node6"><a xlink:href="Menu_8h.html" target="_top" xlink:title=" ">
<polygon fill="none" stroke="black" points="878,-134.5 878,-164.5 1012,-164.5 1012,-134.5 878,-134.5"/>
<text text-anchor="start" x="886" y="-152.5" font-family="Helvetica,sans-Serif" font-size="10.00">VortexEngine/src/Menus</text>
<text text-anchor="middle" x="945" y="-141.5" font-family="Helvetica,sans-Serif" font-size="10.00">/Menu.h</text>
</a>
</g>
</g>
<!-- Node4&#45;&gt;Node6 -->
<g id="edge5" class="edge">
<title>Node4&#45;&gt;Node6</title>
<path fill="none" stroke="midnightblue" d="M1449.83,-206.88C1335,-194.06 1121.04,-170.16 1012.25,-158.01"/>
<polygon fill="midnightblue" stroke="midnightblue" points="1449.63,-210.38 1459.95,-208.01 1450.4,-203.42 1449.63,-210.38"/>
</g>
<!-- Node8 -->
<g id="node8" class="node">
<title>Node8</title>
<g id="a_node8"><a xlink:href="ColorSelect_8cpp.html" target="_top" xlink:title=" ">
<polygon fill="none" stroke="black" points="1764.5,-0.5 1764.5,-30.5 1907.5,-30.5 1907.5,-0.5 1764.5,-0.5"/>
<text text-anchor="start" x="1772.5" y="-18.5" font-family="Helvetica,sans-Serif" font-size="10.00">VortexEngine/src/Menus</text>
<text text-anchor="middle" x="1836" y="-7.5" font-family="Helvetica,sans-Serif" font-size="10.00">/MenuList/ColorSelect.cpp</text>
</a>
</g>
</g>
<!-- Node4&#45;&gt;Node8 -->
<g id="edge29" class="edge">
<title>Node4&#45;&gt;Node8</title>
<path fill="none" stroke="midnightblue" d="M1604.32,-201.24C1707.2,-193.7 2168.4,-207.4 2219,-165 2252.83,-136.66 2264.18,-100.11 2235,-67 2213.76,-42.9 2016.93,-27.36 1907.89,-20.52"/>
<polygon fill="midnightblue" stroke="midnightblue" points="1603.69,-197.79 1594.06,-202.21 1604.35,-204.76 1603.69,-197.79"/>
</g>
<!-- Node10 -->
<g id="node10" class="node">
<title>Node10</title>
<g id="a_node10"><a xlink:href="EditorConnection_8h.html" target="_top" xlink:title=" ">
<polygon fill="none" stroke="black" points="336.5,-67.5 336.5,-97.5 495.5,-97.5 495.5,-67.5 336.5,-67.5"/>
<text text-anchor="start" x="344.5" y="-85.5" font-family="Helvetica,sans-Serif" font-size="10.00">VortexEngine/src/Menus</text>
<text text-anchor="middle" x="416" y="-74.5" font-family="Helvetica,sans-Serif" font-size="10.00">/MenuList/EditorConnection.h</text>
</a>
</g>
</g>
<!-- Node4&#45;&gt;Node10 -->
<g id="edge31" class="edge">
<title>Node4&#45;&gt;Node10</title>
<path fill="none" stroke="midnightblue" d="M1449.65,-213.51C1317.39,-209.34 1039.56,-197.24 807,-165 686.29,-148.26 547.04,-116.1 471.59,-97.57"/>
<polygon fill="midnightblue" stroke="midnightblue" points="1449.58,-217.01 1459.68,-213.82 1449.8,-210.01 1449.58,-217.01"/>
</g>
<!-- Node11 -->
<g id="node11" class="node">
<title>Node11</title>
<g id="a_node11"><a xlink:href="EditorConnection_8cpp.html" target="_top" xlink:title=" ">
<polygon fill="none" stroke="black" points="226,-0.5 226,-30.5 396,-30.5 396,-0.5 226,-0.5"/>
<text text-anchor="start" x="234" y="-18.5" font-family="Helvetica,sans-Serif" font-size="10.00">VortexEngine/src/Menus</text>
<text text-anchor="middle" x="311" y="-7.5" font-family="Helvetica,sans-Serif" font-size="10.00">/MenuList/EditorConnection.cpp</text>
</a>
</g>
</g>
<!-- Node4&#45;&gt;Node11 -->
<g id="edge30" class="edge">
<title>Node4&#45;&gt;Node11</title>
<path fill="none" stroke="midnightblue" d="M1449.71,-214.93C1191.66,-212.68 369.7,-202.61 257,-165 198.87,-145.6 124.19,-116.73 160,-67 175.51,-45.46 200.62,-32.98 225.95,-25.78"/>
<polygon fill="midnightblue" stroke="midnightblue" points="1449.72,-218.43 1459.75,-215.02 1449.78,-211.43 1449.72,-218.43"/>
</g>
<!-- Node16 -->
<g id="node16" class="node">
<title>Node16</title>
<g id="a_node16"><a xlink:href="ModeSharing_8cpp.html" target="_top" xlink:title=" ">
<polygon fill="none" stroke="black" points="488.5,-0.5 488.5,-30.5 639.5,-30.5 639.5,-0.5 488.5,-0.5"/>
<text text-anchor="start" x="496.5" y="-18.5" font-family="Helvetica,sans-Serif" font-size="10.00">VortexEngine/src/Menus</text>
<text text-anchor="middle" x="564" y="-7.5" font-family="Helvetica,sans-Serif" font-size="10.00">/MenuList/ModeSharing.cpp</text>
</a>
</g>
</g>
<!-- Node4&#45;&gt;Node16 -->
<g id="edge33" class="edge">
<title>Node4&#45;&gt;Node16</title>
<path fill="none" stroke="midnightblue" d="M1449.69,-214.92C1174.45,-212.06 254.11,-195.22 170,-98 160.99,-87.58 160.9,-77.34 170,-67 180.41,-55.17 376.74,-34.5 488.24,-23.63"/>
<polygon fill="midnightblue" stroke="midnightblue" points="1449.95,-218.43 1459.98,-215.03 1450.02,-211.43 1449.95,-218.43"/>
</g>
<!-- Node17 -->
<g id="node17" class="node">
<title>Node17</title>
<g id="a_node17"><a xlink:href="PatternSelect_8h.html" target="_top" xlink:title=" ">
<polygon fill="none" stroke="black" points="672,-67.5 672,-97.5 812,-97.5 812,-67.5 672,-67.5"/>
<text text-anchor="start" x="680" y="-85.5" font-family="Helvetica,sans-Serif" font-size="10.00">VortexEngine/src/Menus</text>
<text text-anchor="middle" x="742" y="-74.5" font-family="Helvetica,sans-Serif" font-size="10.00">/MenuList/PatternSelect.h</text>
</a>
</g>
</g>
<!-- Node4&#45;&gt;Node17 -->
<g id="edge34" class="edge">
<title>Node4&#45;&gt;Node17</title>
<path fill="none" stroke="midnightblue" d="M1449.68,-214.29C1299.68,-211.18 974.66,-200.43 869,-165 825.04,-150.26 781.15,-116.94 758.26,-97.78"/>
<polygon fill="midnightblue" stroke="midnightblue" points="1449.67,-217.79 1459.74,-214.49 1449.81,-210.79 1449.67,-217.79"/>
</g>
<!-- Node19 -->
<g id="node19" class="node">
<title>Node19</title>
<g id="a_node19"><a xlink:href="Randomizer_8h.html" target="_top" xlink:title=" ">
<polygon fill="none" stroke="black" points="1008,-67.5 1008,-97.5 1142,-97.5 1142,-67.5 1008,-67.5"/>
<text text-anchor="start" x="1016" y="-85.5" font-family="Helvetica,sans-Serif" font-size="10.00">VortexEngine/src/Menus</text>
<text text-anchor="middle" x="1075" y="-74.5" font-family="Helvetica,sans-Serif" font-size="10.00">/MenuList/Randomizer.h</text>
</a>
</g>
</g>
<!-- Node4&#45;&gt;Node19 -->
<g id="edge36" class="edge">
<title>Node4&#45;&gt;Node19</title>
<path fill="none" stroke="midnightblue" d="M1469.28,-198.64C1379.22,-172.34 1206.92,-122.03 1123.13,-97.56"/>
<polygon fill="midnightblue" stroke="midnightblue" points="1468.48,-202.05 1479.06,-201.5 1470.44,-195.34 1468.48,-202.05"/>
</g>
<!-- Node20 -->
<g id="node20" class="node">
<title>Node20</title>
<g id="a_node20"><a xlink:href="Randomizer_8cpp.html" target="_top" xlink:title=" ">
<polygon fill="none" stroke="black" points="1601.5,-0.5 1601.5,-30.5 1746.5,-30.5 1746.5,-0.5 1601.5,-0.5"/>
<text text-anchor="start" x="1609.5" y="-18.5" font-family="Helvetica,sans-Serif" font-size="10.00">VortexEngine/src/Menus</text>
<text text-anchor="middle" x="1674" y="-7.5" font-family="Helvetica,sans-Serif" font-size="10.00">/MenuList/Randomizer.cpp</text>
</a>
</g>
</g>
<!-- Node4&#45;&gt;Node20 -->
<g id="edge35" class="edge">
<title>Node4&#45;&gt;Node20</title>
<path fill="none" stroke="midnightblue" d="M1598.89,-198.66C1627.24,-190.54 1659.53,-179.39 1687,-165 1706.92,-154.56 1706.25,-142.67 1727,-134 1782.85,-110.66 1957.13,-143.54 1997,-98 2112.4,33.81 2329.48,-125.13 1755,-31 1752.32,-30.56 1749.59,-30.11 1746.84,-29.64"/>
<polygon fill="midnightblue" stroke="midnightblue" points="1597.73,-195.35 1589.04,-201.41 1599.61,-202.1 1597.73,-195.35"/>
</g>
<!-- Node21 -->
<g id="node21" class="node">
<title>Node21</title>
<g id="a_node21"><a xlink:href="VortexLib_8cpp.html" target="_top" xlink:title=" ">
<polygon fill="none" stroke="black" points="1464,-67.5 1464,-97.5 1594,-97.5 1594,-67.5 1464,-67.5"/>
<text text-anchor="start" x="1472" y="-85.5" font-family="Helvetica,sans-Serif" font-size="10.00">VortexEngine/VortexLib</text>
<text text-anchor="middle" x="1529" y="-74.5" font-family="Helvetica,sans-Serif" font-size="10.00">/VortexLib.cpp</text>
</a>
</g>
</g>
<!-- Node4&#45;&gt;Node21 -->
<g id="edge52" class="edge">
<title>Node4&#45;&gt;Node21</title>
<path fill="none" stroke="midnightblue" d="M1511.1,-192.61C1506.22,-184.3 1501.48,-174.59 1499,-165 1495.55,-151.66 1495.35,-147.29 1499,-134 1502.67,-120.63 1510.91,-107.21 1517.83,-97.57"/>
<polygon fill="midnightblue" stroke="midnightblue" points="1508.28,-194.7 1516.56,-201.31 1514.21,-190.98 1508.28,-194.7"/>
</g>
<!-- Node22 -->
<g id="node22" class="node">
<title>Node22</title>
<g id="a_node22"><a xlink:href="Menus_8h.html" target="_top" xlink:title=" ">
<polygon fill="none" stroke="black" points="1508,-134.5 1508,-164.5 1642,-164.5 1642,-134.5 1508,-134.5"/>
<text text-anchor="start" x="1516" y="-152.5" font-family="Helvetica,sans-Serif" font-size="10.00">VortexEngine/src/Menus</text>
<text text-anchor="middle" x="1575" y="-141.5" font-family="Helvetica,sans-Serif" font-size="10.00">/Menus.h</text>
</a>
</g>
</g>
<!-- Node4&#45;&gt;Node22 -->
<g id="edge37" class="edge">
<title>Node4&#45;&gt;Node22</title>
<path fill="none" stroke="midnightblue" d="M1543.5,-193.16C1550.5,-183.68 1558.44,-172.92 1564.61,-164.58"/>
<polygon fill="midnightblue" stroke="midnightblue" points="1540.54,-191.27 1537.42,-201.4 1546.17,-195.43 1540.54,-191.27"/>
</g>
<!-- Node23 -->
<g id="node23" class="node">
<title>Node23</title>
<g id="a_node23"><a xlink:href="VortexEngine_8cpp.html" target="_top" xlink:title=" ">
<polygon fill="none" stroke="black" points="1802,-73 1802,-92 1988,-92 1988,-73 1802,-73"/>
<text text-anchor="middle" x="1895" y="-80" font-family="Helvetica,sans-Serif" font-size="10.00">VortexEngine/src/VortexEngine.cpp</text>
</a>
</g>
</g>
<!-- Node4&#45;&gt;Node23 -->
<g id="edge49" class="edge">
<title>Node4&#45;&gt;Node23</title>
<path fill="none" stroke="midnightblue" d="M1577.88,-197.91C1600.81,-189.2 1627.87,-177.81 1651,-165 1671.61,-153.59 1672.64,-143.94 1694,-134 1739.84,-112.68 1795.9,-99.55 1837.17,-92.04"/>
<polygon fill="midnightblue" stroke="midnightblue" points="1576.48,-194.7 1568.33,-201.48 1578.93,-201.26 1576.48,-194.7"/>
</g>
<!-- Node24 -->
<g id="node24" class="node">
<title>Node24</title>
<g id="a_node24"><a xlink:href="VortexCLI_8cpp.html" target="_top" xlink:title=" ">
<polygon fill="none" stroke="black" points="2095.5,-67.5 2095.5,-97.5 2226.5,-97.5 2226.5,-67.5 2095.5,-67.5"/>
<text text-anchor="start" x="2103.5" y="-85.5" font-family="Helvetica,sans-Serif" font-size="10.00">VortexEngine/VortexCLI</text>
<text text-anchor="middle" x="2161" y="-74.5" font-family="Helvetica,sans-Serif" font-size="10.00">/VortexCLI.cpp</text>
</a>
</g>
</g>
<!-- Node4&#45;&gt;Node24 -->
<g id="edge53" class="edge">
<title>Node4&#45;&gt;Node24</title>
<path fill="none" stroke="midnightblue" d="M1604.14,-201.48C1605.44,-201.31 1606.72,-201.15 1608,-201 1673.54,-193.17 2155.76,-213.07 2201,-165 2219.58,-145.26 2195.14,-115.25 2177.09,-97.69"/>
<polygon fill="midnightblue" stroke="midnightblue" points="1603.52,-198.03 1594.09,-202.87 1604.48,-204.96 1603.52,-198.03"/>
</g>
<!-- Node25 -->
<g id="node25" class="node">
<title>Node25</title>
<g id="a_node25"><a xlink:href="Mode_8cpp.html" target="_top" xlink:title=" ">
<polygon fill="none" stroke="black" points="1736,-134.5 1736,-164.5 1870,-164.5 1870,-134.5 1736,-134.5"/>
<text text-anchor="start" x="1744" y="-152.5" font-family="Helvetica,sans-Serif" font-size="10.00">VortexEngine/src/Modes</text>
<text text-anchor="middle" x="1803" y="-141.5" font-family="Helvetica,sans-Serif" font-size="10.00">/Mode.cpp</text>
</a>
</g>
</g>
<!-- Node4&#45;&gt;Node25 -->
<g id="edge47" class="edge">
<title>Node4&#45;&gt;Node25</title>
<path fill="none" stroke="midnightblue" d="M1596.56,-199.12C1641.72,-188.48 1699.98,-174.76 1743.08,-164.61"/>
<polygon fill="midnightblue" stroke="midnightblue" points="1595.48,-195.78 1586.55,-201.48 1597.08,-202.59 1595.48,-195.78"/>
</g>
<!-- Node4&#45;&gt;Node26 -->
<g id="edge48" class="edge">
<title>Node4&#45;&gt;Node26</title>
<path fill="none" stroke="midnightblue" d="M1604.14,-201.47C1605.44,-201.3 1606.72,-201.15 1608,-201 1902.01,-166.86 1978.99,-199.14 2273,-165 2277.54,-164.47 2282.21,-163.85 2286.91,-163.17"/>
<polygon fill="midnightblue" stroke="midnightblue" points="1603.53,-198.02 1594.09,-202.83 1604.47,-204.95 1603.53,-198.02"/>
</g>
<!-- Node27 -->
<g id="node27" class="node">
<title>Node27</title>
<g id="a_node27"><a xlink:href="VLReceiver_8cpp.html" target="_top" xlink:title=" ">
<polygon fill="none" stroke="black" points="1888.5,-134.5 1888.5,-164.5 2031.5,-164.5 2031.5,-134.5 1888.5,-134.5"/>
<text text-anchor="start" x="1896.5" y="-152.5" font-family="Helvetica,sans-Serif" font-size="10.00">VortexEngine/src/Wireless</text>
<text text-anchor="middle" x="1960" y="-141.5" font-family="Helvetica,sans-Serif" font-size="10.00">/VLReceiver.cpp</text>
</a>
</g>
</g>
<!-- Node4&#45;&gt;Node27 -->
<g id="edge50" class="edge">
<title>Node4&#45;&gt;Node27</title>
<path fill="none" stroke="midnightblue" d="M1604.16,-201.61C1605.45,-201.4 1606.73,-201.2 1608,-201 1728.05,-182.29 1758.95,-183.71 1879,-165 1882.11,-164.52 1885.28,-164.01 1888.48,-163.48"/>
<polygon fill="midnightblue" stroke="midnightblue" points="1603.45,-198.17 1594.14,-203.24 1604.58,-205.08 1603.45,-198.17"/>
</g>
<!-- Node28 -->
<g id="node28" class="node">
<title>Node28</title>
<g id="a_node28"><a xlink:href="VLSender_8cpp.html" target="_top" xlink:title=" ">
<polygon fill="none" stroke="black" points="2049.5,-134.5 2049.5,-164.5 2192.5,-164.5 2192.5,-134.5 2049.5,-134.5"/>
<text text-anchor="start" x="2057.5" y="-152.5" font-family="Helvetica,sans-Serif" font-size="10.00">VortexEngine/src/Wireless</text>
<text text-anchor="middle" x="2121" y="-141.5" font-family="Helvetica,sans-Serif" font-size="10.00">/VLSender.cpp</text>
</a>
</g>
</g>
<!-- Node4&#45;&gt;Node28 -->
<g id="edge51" class="edge">
<title>Node4&#45;&gt;Node28</title>
<path fill="none" stroke="midnightblue" d="M1604.15,-201.52C1605.44,-201.34 1606.73,-201.17 1608,-201 1799.04,-176 1848.96,-190 2040,-165 2042.97,-164.61 2046.01,-164.19 2049.07,-163.74"/>
<polygon fill="midnightblue" stroke="midnightblue" points="1603.5,-198.08 1594.11,-202.99 1604.51,-205 1603.5,-198.08"/>
</g>
<!-- Node6&#45;&gt;Node5 -->
<g id="edge6" class="edge">
<title>Node6&#45;&gt;Node5</title>
<path fill="none" stroke="midnightblue" d="M1022.1,-138.72C1094.71,-129.25 1206.45,-114.01 1303,-98 1305.92,-97.52 1308.89,-97.01 1311.89,-96.49"/>
<polygon fill="midnightblue" stroke="midnightblue" points="1021.58,-135.26 1012.12,-140.02 1022.49,-142.2 1021.58,-135.26"/>
</g>
<!-- Node7 -->
<g id="node7" class="node">
<title>Node7</title>
<g id="a_node7"><a xlink:href="ColorSelect_8h.html" target="_top" xlink:title=" ">
<polygon fill="none" stroke="black" points="1160,-67.5 1160,-97.5 1294,-97.5 1294,-67.5 1160,-67.5"/>
<text text-anchor="start" x="1168" y="-85.5" font-family="Helvetica,sans-Serif" font-size="10.00">VortexEngine/src/Menus</text>
<text text-anchor="middle" x="1227" y="-74.5" font-family="Helvetica,sans-Serif" font-size="10.00">/MenuList/ColorSelect.h</text>
</a>
</g>
</g>
<!-- Node6&#45;&gt;Node7 -->
<g id="edge7" class="edge">
<title>Node6&#45;&gt;Node7</title>
<path fill="none" stroke="midnightblue" d="M1015.78,-132.19C1061.96,-121.54 1121.64,-107.78 1165.78,-97.61"/>
<polygon fill="midnightblue" stroke="midnightblue" points="1014.8,-128.82 1005.84,-134.48 1016.37,-135.64 1014.8,-128.82"/>
</g>
<!-- Node6&#45;&gt;Node10 -->
<g id="edge10" class="edge">
<title>Node6&#45;&gt;Node10</title>
<path fill="none" stroke="midnightblue" d="M867.62,-140.74C779.63,-131.65 631.74,-115.59 505,-98 501.9,-97.57 498.74,-97.12 495.55,-96.65"/>
<polygon fill="midnightblue" stroke="midnightblue" points="867.48,-144.24 877.79,-141.78 868.2,-137.28 867.48,-144.24"/>
</g>
<!-- Node12 -->
<g id="node12" class="node">
<title>Node12</title>
<g id="a_node12"><a xlink:href="FactoryReset_8h.html" target="_top" xlink:title=" ">
<polygon fill="none" stroke="black" points="179.5,-67.5 179.5,-97.5 318.5,-97.5 318.5,-67.5 179.5,-67.5"/>
<text text-anchor="start" x="187.5" y="-85.5" font-family="Helvetica,sans-Serif" font-size="10.00">VortexEngine/src/Menus</text>
<text text-anchor="middle" x="249" y="-74.5" font-family="Helvetica,sans-Serif" font-size="10.00">/MenuList/FactoryReset.h</text>
</a>
</g>
</g>
<!-- Node6&#45;&gt;Node12 -->
<g id="edge13" class="edge">
<title>Node6&#45;&gt;Node12</title>
<path fill="none" stroke="midnightblue" d="M867.22,-144.7C749.8,-138.39 520.43,-123.81 327,-98 324.27,-97.64 321.49,-97.24 318.68,-96.82"/>
<polygon fill="midnightblue" stroke="midnightblue" points="867.37,-148.21 877.54,-145.25 867.74,-141.22 867.37,-148.21"/>
</g>
<!-- Node13 -->
<g id="node13" class="node">
<title>Node13</title>
<g id="a_node13"><a xlink:href="GlobalBrightness_8h.html" target="_top" xlink:title=" ">
<polygon fill="none" stroke="black" points="830.5,-67.5 830.5,-97.5 989.5,-97.5 989.5,-67.5 830.5,-67.5"/>
<text text-anchor="start" x="838.5" y="-85.5" font-family="Helvetica,sans-Serif" font-size="10.00">VortexEngine/src/Menus</text>
<text text-anchor="middle" x="910" y="-74.5" font-family="Helvetica,sans-Serif" font-size="10.00">/MenuList/GlobalBrightness.h</text>
</a>
</g>
</g>
<!-- Node6&#45;&gt;Node13 -->
<g id="edge16" class="edge">
<title>Node6&#45;&gt;Node13</title>
<path fill="none" stroke="midnightblue" d="M932.66,-125.58C927.63,-116.24 921.98,-105.75 917.58,-97.58"/>
<polygon fill="midnightblue" stroke="midnightblue" points="929.58,-127.25 937.41,-134.4 935.75,-123.93 929.58,-127.25"/>
</g>
<!-- Node15 -->
<g id="node15" class="node">
<title>Node15</title>
<g id="a_node15"><a xlink:href="ModeSharing_8h.html" target="_top" xlink:title=" ">
<polygon fill="none" stroke="black" points="514,-67.5 514,-97.5 654,-97.5 654,-67.5 514,-67.5"/>
<text text-anchor="start" x="522" y="-85.5" font-family="Helvetica,sans-Serif" font-size="10.00">VortexEngine/src/Menus</text>
<text text-anchor="middle" x="584" y="-74.5" font-family="Helvetica,sans-Serif" font-size="10.00">/MenuList/ModeSharing.h</text>
</a>
</g>
</g>
<!-- Node6&#45;&gt;Node15 -->
<g id="edge19" class="edge">
<title>Node6&#45;&gt;Node15</title>
<path fill="none" stroke="midnightblue" d="M867.79,-134.77C811.11,-124.66 732.25,-110.56 663,-98 660.12,-97.48 657.18,-96.94 654.21,-96.4"/>
<polygon fill="midnightblue" stroke="midnightblue" points="867.29,-138.23 877.75,-136.54 868.52,-131.34 867.29,-138.23"/>
</g>
<!-- Node6&#45;&gt;Node17 -->
<g id="edge22" class="edge">
<title>Node6&#45;&gt;Node17</title>
<path fill="none" stroke="midnightblue" d="M891.06,-131.23C858.22,-120.71 816.8,-107.45 785.96,-97.58"/>
<polygon fill="midnightblue" stroke="midnightblue" points="890.36,-134.68 900.95,-134.4 892.5,-128.01 890.36,-134.68"/>
</g>
<!-- Node6&#45;&gt;Node19 -->
<g id="edge25" class="edge">
<title>Node6&#45;&gt;Node19</title>
<path fill="none" stroke="midnightblue" d="M982.29,-129.85C1002.85,-119.58 1027.95,-107.03 1046.85,-97.58"/>
<polygon fill="midnightblue" stroke="midnightblue" points="980.59,-126.79 973.21,-134.4 983.72,-133.05 980.59,-126.79"/>
</g>
<!-- Node6&#45;&gt;Node21 -->
<g id="edge28" class="edge">
<title>Node6&#45;&gt;Node21</title>
<path fill="none" stroke="midnightblue" d="M1022.11,-143.15C1122.22,-135.69 1302.24,-120.48 1455,-98 1457.85,-97.58 1460.76,-97.13 1463.69,-96.65"/>
<polygon fill="midnightblue" stroke="midnightblue" points="1021.79,-139.67 1012.08,-143.9 1022.31,-146.65 1021.79,-139.67"/>
</g>
<!-- Node7&#45;&gt;Node8 -->
<g id="edge8" class="edge">
<title>Node7&#45;&gt;Node8</title>
<path fill="none" stroke="midnightblue" d="M1304.04,-66.96C1504.45,-40.6 1558.35,-56.37 1755,-31 1757.98,-30.62 1761.01,-30.2 1764.07,-29.75"/>
<polygon fill="midnightblue" stroke="midnightblue" points="1303.52,-63.5 1294.07,-68.29 1304.45,-70.44 1303.52,-63.5"/>
</g>
<!-- Node9 -->
<g id="node9" class="node">
<title>Node9</title>
<g id="a_node9"><a xlink:href="Menus_8cpp.html" target="_top" xlink:title=" ">
<polygon fill="none" stroke="black" points="695,-0.5 695,-30.5 829,-30.5 829,-0.5 695,-0.5"/>
<text text-anchor="start" x="703" y="-18.5" font-family="Helvetica,sans-Serif" font-size="10.00">VortexEngine/src/Menus</text>
<text text-anchor="middle" x="762" y="-7.5" font-family="Helvetica,sans-Serif" font-size="10.00">/Menus.cpp</text>
</a>
</g>
</g>
<!-- Node7&#45;&gt;Node9 -->
<g id="edge9" class="edge">
<title>Node7&#45;&gt;Node9</title>
<path fill="none" stroke="midnightblue" d="M1149.92,-66.88C1031.38,-48.12 904.86,-32.71 829.29,-24.01"/>
<polygon fill="midnightblue" stroke="midnightblue" points="1149.47,-70.36 1159.9,-68.47 1150.58,-63.44 1149.47,-70.36"/>
</g>
<!-- Node10&#45;&gt;Node9 -->
<g id="edge12" class="edge">
<title>Node10&#45;&gt;Node9</title>
<path fill="none" stroke="midnightblue" d="M500.82,-65.57C560.55,-54.35 639.42,-39.53 694.8,-29.12"/>
<polygon fill="midnightblue" stroke="midnightblue" points="499.83,-62.19 490.65,-67.48 501.13,-69.07 499.83,-62.19"/>
</g>
<!-- Node10&#45;&gt;Node11 -->
<g id="edge11" class="edge">
<title>Node10&#45;&gt;Node11</title>
<path fill="none" stroke="midnightblue" d="M384.52,-62.02C368.18,-51.9 348.59,-39.77 333.74,-30.58"/>
<polygon fill="midnightblue" stroke="midnightblue" points="382.87,-65.11 393.22,-67.4 386.56,-59.16 382.87,-65.11"/>
</g>
<!-- Node12&#45;&gt;Node2 -->
<g id="edge14" class="edge">
<title>Node12&#45;&gt;Node2</title>
<path fill="none" stroke="midnightblue" d="M201.67,-63.82C173.7,-53.37 138.77,-40.32 112.68,-30.58"/>
<polygon fill="midnightblue" stroke="midnightblue" points="200.65,-67.18 211.24,-67.4 203.1,-60.62 200.65,-67.18"/>
</g>
<!-- Node12&#45;&gt;Node9 -->
<g id="edge15" class="edge">
<title>Node12&#45;&gt;Node9</title>
<path fill="none" stroke="midnightblue" d="M328.66,-66.81C470.69,-45.96 508.66,-47.67 648,-31 663.15,-29.19 679.43,-27.16 694.81,-25.21"/>
<polygon fill="midnightblue" stroke="midnightblue" points="328.08,-63.36 318.7,-68.29 329.1,-70.28 328.08,-63.36"/>
</g>
<!-- Node13&#45;&gt;Node9 -->
<g id="edge18" class="edge">
<title>Node13&#45;&gt;Node9</title>
<path fill="none" stroke="midnightblue" d="M868.49,-63.27C844.92,-52.92 815.86,-40.15 794.05,-30.58"/>
<polygon fill="midnightblue" stroke="midnightblue" points="867.32,-66.58 877.89,-67.4 870.14,-60.17 867.32,-66.58"/>
</g>
<!-- Node14 -->
<g id="node14" class="node">
<title>Node14</title>
<g id="a_node14"><a xlink:href="GlobalBrightness_8cpp.html" target="_top" xlink:title=" ">
<polygon fill="none" stroke="black" points="1325,-0.5 1325,-30.5 1495,-30.5 1495,-0.5 1325,-0.5"/>
<text text-anchor="start" x="1333" y="-18.5" font-family="Helvetica,sans-Serif" font-size="10.00">VortexEngine/src/Menus</text>
<text text-anchor="middle" x="1410" y="-7.5" font-family="Helvetica,sans-Serif" font-size="10.00">/MenuList/GlobalBrightness.cpp</text>
</a>
</g>
</g>
<!-- Node13&#45;&gt;Node14 -->
<g id="edge17" class="edge">
<title>Node13&#45;&gt;Node14</title>
<path fill="none" stroke="midnightblue" d="M999.57,-66.95C1118.53,-50.1 1243.93,-35.21 1324.86,-25.97"/>
<polygon fill="midnightblue" stroke="midnightblue" points="998.96,-63.51 989.55,-68.38 999.95,-70.44 998.96,-63.51"/>
</g>
<!-- Node15&#45;&gt;Node9 -->
<g id="edge21" class="edge">
<title>Node15&#45;&gt;Node9</title>
<path fill="none" stroke="midnightblue" d="M632.05,-63.96C660.72,-53.48 696.64,-40.37 723.45,-30.58"/>
<polygon fill="midnightblue" stroke="midnightblue" points="630.82,-60.68 622.62,-67.4 633.22,-67.25 630.82,-60.68"/>
</g>
<!-- Node15&#45;&gt;Node16 -->
<g id="edge20" class="edge">
<title>Node15&#45;&gt;Node16</title>
<path fill="none" stroke="midnightblue" d="M576.68,-57.7C573.87,-48.59 570.77,-38.49 568.33,-30.58"/>
<polygon fill="midnightblue" stroke="midnightblue" points="573.37,-58.87 579.66,-67.4 580.06,-56.81 573.37,-58.87"/>
</g>
<!-- Node17&#45;&gt;Node9 -->
<g id="edge24" class="edge">
<title>Node17&#45;&gt;Node9</title>
<path fill="none" stroke="midnightblue" d="M749.32,-57.7C752.13,-48.59 755.23,-38.49 757.67,-30.58"/>
<polygon fill="midnightblue" stroke="midnightblue" points="745.94,-56.81 746.34,-67.4 752.63,-58.87 745.94,-56.81"/>
</g>
<!-- Node18 -->
<g id="node18" class="node">
<title>Node18</title>
<g id="a_node18"><a xlink:href="PatternSelect_8cpp.html" target="_top" xlink:title=" ">
<polygon fill="none" stroke="black" points="978,-0.5 978,-30.5 1130,-30.5 1130,-0.5 978,-0.5"/>
<text text-anchor="start" x="986" y="-18.5" font-family="Helvetica,sans-Serif" font-size="10.00">VortexEngine/src/Menus</text>
<text text-anchor="middle" x="1054" y="-7.5" font-family="Helvetica,sans-Serif" font-size="10.00">/MenuList/PatternSelect.cpp</text>
</a>
</g>
</g>
<!-- Node17&#45;&gt;Node18 -->
<g id="edge23" class="edge">
<title>Node17&#45;&gt;Node18</title>
<path fill="none" stroke="midnightblue" d="M819.36,-65.38C870.68,-54.69 937.38,-40.8 986.54,-30.55"/>
<polygon fill="midnightblue" stroke="midnightblue" points="818.39,-62.01 809.32,-67.48 819.82,-68.86 818.39,-62.01"/>
</g>
<!-- Node19&#45;&gt;Node9 -->
<g id="edge27" class="edge">
<title>Node19&#45;&gt;Node9</title>
<path fill="none" stroke="midnightblue" d="M998.05,-65.52C946.25,-54.76 878.62,-40.72 829.04,-30.42"/>
<polygon fill="midnightblue" stroke="midnightblue" points="997.35,-68.95 1007.85,-67.56 998.77,-62.1 997.35,-68.95"/>
</g>
<!-- Node19&#45;&gt;Node20 -->
<g id="edge26" class="edge">
<title>Node19&#45;&gt;Node20</title>
<path fill="none" stroke="midnightblue" d="M1152.22,-66.94C1252.45,-53.35 1482.98,-32.88 1601.36,-22.68"/>
<polygon fill="midnightblue" stroke="midnightblue" points="1151.5,-63.5 1142.08,-68.35 1152.47,-70.44 1151.5,-63.5"/>
</g>
<!-- Node22&#45;&gt;Node5 -->
<g id="edge38" class="edge">
<title>Node22&#45;&gt;Node5</title>
<path fill="none" stroke="midnightblue" d="M1522.92,-131.23C1491.21,-120.71 1451.22,-107.45 1421.45,-97.58"/>
<polygon fill="midnightblue" stroke="midnightblue" points="1521.88,-134.57 1532.47,-134.4 1524.08,-127.93 1521.88,-134.57"/>
</g>
<!-- Node22&#45;&gt;Node8 -->
<g id="edge39" class="edge">
<title>Node22&#45;&gt;Node8</title>
<path fill="none" stroke="midnightblue" d="M1642.4,-131.71C1670.09,-123.48 1701.93,-112.23 1729,-98 1764.76,-79.21 1801.05,-48.59 1820.83,-30.72"/>
<polygon fill="midnightblue" stroke="midnightblue" points="1641.43,-128.35 1632.8,-134.5 1643.38,-135.07 1641.43,-128.35"/>
</g>
<!-- Node22&#45;&gt;Node9 -->
<g id="edge43" class="edge">
<title>Node22&#45;&gt;Node9</title>
<path fill="none" stroke="midnightblue" d="M1593.69,-126.06C1606.37,-108.04 1618.28,-83.17 1603,-67 1578.77,-41.36 1004.21,-33.23 969,-31 922.26,-28.04 869.61,-24.34 829.11,-21.43"/>
<polygon fill="midnightblue" stroke="midnightblue" points="1590.72,-124.19 1587.53,-134.29 1596.33,-128.38 1590.72,-124.19"/>
</g>
<!-- Node22&#45;&gt;Node14 -->
<g id="edge40" class="edge">
<title>Node22&#45;&gt;Node14</title>
<path fill="none" stroke="midnightblue" d="M1625.11,-130.38C1659.26,-115.26 1694.81,-92.17 1674,-67 1651.51,-39.8 1563.44,-27.12 1495.14,-21.29"/>
<polygon fill="midnightblue" stroke="midnightblue" points="1623.4,-127.31 1615.56,-134.43 1626.13,-133.75 1623.4,-127.31"/>
</g>
<!-- Node22&#45;&gt;Node18 -->
<g id="edge41" class="edge">
<title>Node22&#45;&gt;Node18</title>
<path fill="none" stroke="midnightblue" d="M1606.69,-128.38C1629.73,-111.33 1653.98,-86.61 1636,-67 1619.13,-48.6 1284,-28.64 1130.09,-20.39"/>
<polygon fill="midnightblue" stroke="midnightblue" points="1604.48,-125.65 1598.34,-134.29 1608.53,-131.37 1604.48,-125.65"/>
</g>
<!-- Node22&#45;&gt;Node20 -->
<g id="edge42" class="edge">
<title>Node22&#45;&gt;Node20</title>
<path fill="none" stroke="midnightblue" d="M1642.2,-131.55C1672.42,-122.44 1703.27,-110.52 1712,-98 1727.18,-76.23 1705.44,-47.43 1689.12,-30.54"/>
<polygon fill="midnightblue" stroke="midnightblue" points="1641.05,-128.24 1632.44,-134.41 1643.02,-134.96 1641.05,-128.24"/>
</g>
<!-- Node22&#45;&gt;Node21 -->
<g id="edge45" class="edge">
<title>Node22&#45;&gt;Node21</title>
<path fill="none" stroke="midnightblue" d="M1559.19,-126.16C1552.48,-116.68 1544.87,-105.92 1538.96,-97.58"/>
<polygon fill="midnightblue" stroke="midnightblue" points="1556.38,-128.26 1565.02,-134.4 1562.1,-124.21 1556.38,-128.26"/>
</g>
<!-- Node22&#45;&gt;Node23 -->
<g id="edge44" class="edge">
<title>Node22&#45;&gt;Node23</title>
<path fill="none" stroke="midnightblue" d="M1651.99,-132.86C1715.08,-120.05 1801.97,-102.4 1852.94,-92.04"/>
<polygon fill="midnightblue" stroke="midnightblue" points="1651.19,-129.45 1642.08,-134.87 1652.58,-136.31 1651.19,-129.45"/>
</g>
<!-- Node22&#45;&gt;Node24 -->
<g id="edge46" class="edge">
<title>Node22&#45;&gt;Node24</title>
<path fill="none" stroke="midnightblue" d="M1652.47,-139.91C1768.8,-127 1986.55,-102.85 2095.46,-90.77"/>
<polygon fill="midnightblue" stroke="midnightblue" points="1651.77,-136.46 1642.22,-141.04 1652.55,-143.42 1651.77,-136.46"/>
</g>
</g>
</svg>
