<?xml version="1.0" encoding="UTF-8" standalone="no"?>
<!DOCTYPE svg PUBLIC "-//W3C//DTD SVG 1.1//EN"
 "http://www.w3.org/Graphics/SVG/1.1/DTD/svg11.dtd">
<!-- Generated by graphviz version 2.43.0 (0)
 -->
<!-- Title: VortexEngine/src/Modes/DefaultModes.h Pages: 1 -->
<!--zoomable 307 -->
<svg id="main" version="1.1" xmlns="http://www.w3.org/2000/svg" xmlns:xlink="http://www.w3.org/1999/xlink" xml:space="preserve" onload="init(evt)">
<style type="text/css"><![CDATA[
.edge:hover path { stroke: red; }
.edge:hover polygon { stroke: red; fill: red; }
]]></style>
<script type="text/javascript"><![CDATA[
var edges = document.getElementsByTagName('g');
if (edges && edges.length) {
  for (var i=0;i<edges.length;i++) {
    if (edges[i].id.substr(0,4)=='edge') {
      edges[i].setAttribute('class','edge');
    }
  }
}
]]></script>
        <defs>
                <circle id="rim" cx="0" cy="0" r="7"/>
                <circle id="rim2" cx="0" cy="0" r="3.5"/>
                <g id="zoomPlus">
                        <use xlink:href="#rim" fill="#404040">
                                <set attributeName="fill" to="#808080" begin="zoomplus.mouseover" end="zoomplus.mouseout"/>
                        </use>
                        <path d="M-4,0h8M0,-4v8" fill="none" stroke="white" stroke-width="1.5" pointer-events="none"/>
                </g>
                <g id="zoomMin">
                        <use xlink:href="#rim" fill="#404040">
                                <set attributeName="fill" to="#808080" begin="zoomminus.mouseover" end="zoomminus.mouseout"/>
                        </use>
                        <path d="M-4,0h8" fill="none" stroke="white" stroke-width="1.5" pointer-events="none"/>
                </g>
                <g id="dirArrow">
                        <path fill="none" stroke="white" stroke-width="1.5" d="M0,-3.0v7 M-2.5,-0.5L0,-3.0L2.5,-0.5"/>
                </g>
               <g id="resetDef">
                       <use xlink:href="#rim2" fill="#404040">
                               <set attributeName="fill" to="#808080" begin="reset.mouseover" end="reset.mouseout"/>
                       </use>
               </g>
        </defs>

<script type="text/javascript">
var viewWidth = 1873;
var viewHeight = 307;
var sectionId = 'dynsection-1';
</script>
<script xlink:href="svgpan.js"/>
<svg id="graph" class="graph">
<g id="viewport">
<title>VortexEngine/src/Modes/DefaultModes.h</title>
<!-- Node1 -->
<g id="node1" class="node">
<title>Node1</title>
<g id="a_node1"><a xlink:title=" ">
<polygon fill="#bfbfbf" stroke="black" points="784,-268.5 784,-298.5 918,-298.5 918,-268.5 784,-268.5"/>
<text text-anchor="start" x="792" y="-286.5" font-family="Helvetica,sans-Serif" font-size="10.00">VortexEngine/src/Modes</text>
<text text-anchor="middle" x="851" y="-275.5" font-family="Helvetica,sans-Serif" font-size="10.00">/DefaultModes.h</text>
</a>
</g>
</g>
<!-- Node2 -->
<g id="node2" class="node">
<title>Node2</title>
<g id="a_node2"><a xlink:href="FactoryReset_8cpp.html" target="_top" xlink:title=" ">
<polygon fill="none" stroke="black" points="0,-0.5 0,-30.5 150,-30.5 150,-0.5 0,-0.5"/>
<text text-anchor="start" x="8" y="-18.5" font-family="Helvetica,sans-Serif" font-size="10.00">VortexEngine/src/Menus</text>
<text text-anchor="middle" x="75" y="-7.5" font-family="Helvetica,sans-Serif" font-size="10.00">/MenuList/FactoryReset.cpp</text>
</a>
</g>
</g>
<!-- Node1&#45;&gt;Node2 -->
<g id="edge1" class="edge">
<title>Node1&#45;&gt;Node2</title>
<path fill="none" stroke="midnightblue" d="M773.82,-278.23C609.43,-267.84 231.2,-236.63 127,-165 82.21,-134.2 75.63,-61.55 74.92,-30.73"/>
<polygon fill="midnightblue" stroke="midnightblue" points="773.66,-281.73 783.86,-278.86 774.1,-274.74 773.66,-281.73"/>
</g>
<!-- Node3 -->
<g id="node3" class="node">
<title>Node3</title>
<g id="a_node3"><a xlink:href="DefaultModes_8cpp.html" target="_top" xlink:title=" ">
<polygon fill="none" stroke="black" points="708,-201.5 708,-231.5 842,-231.5 842,-201.5 708,-201.5"/>
<text text-anchor="start" x="716" y="-219.5" font-family="Helvetica,sans-Serif" font-size="10.00">VortexEngine/src/Modes</text>
<text text-anchor="middle" x="775" y="-208.5" font-family="Helvetica,sans-Serif" font-size="10.00">/DefaultModes.cpp</text>
</a>
</g>
</g>
<!-- Node1&#45;&gt;Node3 -->
<g id="edge2" class="edge">
<title>Node1&#45;&gt;Node3</title>
<path fill="none" stroke="midnightblue" d="M826.89,-261.88C815.34,-252.01 801.81,-240.43 791.46,-231.58"/>
<polygon fill="midnightblue" stroke="midnightblue" points="824.63,-264.56 834.51,-268.4 829.18,-259.24 824.63,-264.56"/>
</g>
<!-- Node4 -->
<g id="node4" class="node">
<title>Node4</title>
<g id="a_node4"><a xlink:href="Mode_8h.html" target="_top" xlink:title=" ">
<polygon fill="none" stroke="black" points="860,-201.5 860,-231.5 994,-231.5 994,-201.5 860,-201.5"/>
<text text-anchor="start" x="868" y="-219.5" font-family="Helvetica,sans-Serif" font-size="10.00">VortexEngine/src/Modes</text>
<text text-anchor="middle" x="927" y="-208.5" font-family="Helvetica,sans-Serif" font-size="10.00">/Mode.h</text>
</a>
</g>
</g>
<!-- Node1&#45;&gt;Node4 -->
<g id="edge3" class="edge">
<title>Node1&#45;&gt;Node4</title>
<path fill="none" stroke="midnightblue" d="M875.11,-261.88C886.66,-252.01 900.19,-240.43 910.54,-231.58"/>
<polygon fill="midnightblue" stroke="midnightblue" points="872.82,-259.24 867.49,-268.4 877.37,-264.56 872.82,-259.24"/>
</g>
<!-- Node24 -->
<g id="node24" class="node">
<title>Node24</title>
<g id="a_node24"><a xlink:href="Modes_8cpp.html" target="_top" xlink:title=" ">
<polygon fill="none" stroke="black" points="1731,-134.5 1731,-164.5 1865,-164.5 1865,-134.5 1731,-134.5"/>
<text text-anchor="start" x="1739" y="-152.5" font-family="Helvetica,sans-Serif" font-size="10.00">VortexEngine/src/Modes</text>
<text text-anchor="middle" x="1798" y="-141.5" font-family="Helvetica,sans-Serif" font-size="10.00">/Modes.cpp</text>
</a>
</g>
</g>
<!-- Node1&#45;&gt;Node24 -->
<g id="edge51" class="edge">
<title>Node1&#45;&gt;Node24</title>
<path fill="none" stroke="midnightblue" d="M928.38,-273.12C1080,-254.48 1426.72,-210.65 1717,-165 1721.52,-164.29 1726.17,-163.53 1730.85,-162.75"/>
<polygon fill="midnightblue" stroke="midnightblue" points="927.74,-269.67 918.24,-274.36 928.59,-276.62 927.74,-269.67"/>
</g>
<!-- Node4&#45;&gt;Node2 -->
<g id="edge31" class="edge">
<title>Node4&#45;&gt;Node2</title>
<path fill="none" stroke="midnightblue" d="M849.68,-201.21C738.55,-192.61 228.26,-202.85 165,-165 113.52,-134.2 87.69,-61.55 78.74,-30.73"/>
<polygon fill="midnightblue" stroke="midnightblue" points="849.65,-204.72 859.94,-202.19 850.32,-197.75 849.65,-204.72"/>
</g>
<!-- Node5 -->
<g id="node5" class="node">
<title>Node5</title>
<g id="a_node5"><a xlink:href="Menu_8cpp.html" target="_top" xlink:title=" ">
<polygon fill="none" stroke="black" points="1520,-0.5 1520,-30.5 1654,-30.5 1654,-0.5 1520,-0.5"/>
<text text-anchor="start" x="1528" y="-18.5" font-family="Helvetica,sans-Serif" font-size="10.00">VortexEngine/src/Menus</text>
<text text-anchor="middle" x="1587" y="-7.5" font-family="Helvetica,sans-Serif" font-size="10.00">/Menu.cpp</text>
</a>
</g>
</g>
<!-- Node4&#45;&gt;Node5 -->
<g id="edge4" class="edge">
<title>Node4&#45;&gt;Node5</title>
<path fill="none" stroke="midnightblue" d="M1004.16,-212.57C1178.36,-205.59 1588.66,-186.9 1609,-165 1643.94,-127.38 1612.08,-59.72 1595.53,-30.53"/>
<polygon fill="midnightblue" stroke="midnightblue" points="1003.88,-209.08 994.03,-212.98 1004.16,-216.08 1003.88,-209.08"/>
</g>
<!-- Node6 -->
<g id="node6" class="node">
<title>Node6</title>
<g id="a_node6"><a xlink:href="Menu_8h.html" target="_top" xlink:title=" ">
<polygon fill="none" stroke="black" points="516,-134.5 516,-164.5 650,-164.5 650,-134.5 516,-134.5"/>
<text text-anchor="start" x="524" y="-152.5" font-family="Helvetica,sans-Serif" font-size="10.00">VortexEngine/src/Menus</text>
<text text-anchor="middle" x="583" y="-141.5" font-family="Helvetica,sans-Serif" font-size="10.00">/Menu.h</text>
</a>
</g>
</g>
<!-- Node4&#45;&gt;Node6 -->
<g id="edge5" class="edge">
<title>Node4&#45;&gt;Node6</title>
<path fill="none" stroke="midnightblue" d="M849.9,-200.79C775.94,-186.78 702.07,-172.87 650.19,-163.12"/>
<polygon fill="midnightblue" stroke="midnightblue" points="849.39,-204.26 859.86,-202.68 850.69,-197.38 849.39,-204.26"/>
</g>
<!-- Node8 -->
<g id="node8" class="node">
<title>Node8</title>
<g id="a_node8"><a xlink:href="ColorSelect_8cpp.html" target="_top" xlink:title=" ">
<polygon fill="none" stroke="black" points="1024.5,-0.5 1024.5,-30.5 1167.5,-30.5 1167.5,-0.5 1024.5,-0.5"/>
<text text-anchor="start" x="1032.5" y="-18.5" font-family="Helvetica,sans-Serif" font-size="10.00">VortexEngine/src/Menus</text>
<text text-anchor="middle" x="1096" y="-7.5" font-family="Helvetica,sans-Serif" font-size="10.00">/MenuList/ColorSelect.cpp</text>
</a>
</g>
</g>
<!-- Node4&#45;&gt;Node8 -->
<g id="edge28" class="edge">
<title>Node4&#45;&gt;Node8</title>
<path fill="none" stroke="midnightblue" d="M849.76,-199.09C816.4,-190.29 782.77,-178.48 773,-165 764.92,-153.84 763.59,-144.07 773,-134 853.44,-47.9 1221.56,-184.1 1302,-98 1311.41,-87.93 1310.5,-77.84 1302,-67 1293.45,-56.1 1223.76,-40.56 1167.76,-29.61"/>
<polygon fill="midnightblue" stroke="midnightblue" points="849.05,-202.52 859.6,-201.61 850.78,-195.74 849.05,-202.52"/>
</g>
<!-- Node10 -->
<g id="node10" class="node">
<title>Node10</title>
<g id="a_node10"><a xlink:href="EditorConnection_8h.html" target="_top" xlink:title=" ">
<polygon fill="none" stroke="black" points="178.5,-67.5 178.5,-97.5 337.5,-97.5 337.5,-67.5 178.5,-67.5"/>
<text text-anchor="start" x="186.5" y="-85.5" font-family="Helvetica,sans-Serif" font-size="10.00">VortexEngine/src/Menus</text>
<text text-anchor="middle" x="258" y="-74.5" font-family="Helvetica,sans-Serif" font-size="10.00">/MenuList/EditorConnection.h</text>
</a>
</g>
</g>
<!-- Node4&#45;&gt;Node10 -->
<g id="edge30" class="edge">
<title>Node4&#45;&gt;Node10</title>
<path fill="none" stroke="midnightblue" d="M849.7,-200.91C697.08,-179.35 654.11,-196.4 507,-165 428.71,-148.29 340.38,-116.03 292.81,-97.51"/>
<polygon fill="midnightblue" stroke="midnightblue" points="849.52,-204.42 859.92,-202.38 850.52,-197.49 849.52,-204.42"/>
</g>
<!-- Node11 -->
<g id="node11" class="node">
<title>Node11</title>
<g id="a_node11"><a xlink:href="EditorConnection_8cpp.html" target="_top" xlink:title=" ">
<polygon fill="none" stroke="black" points="171,-0.5 171,-30.5 341,-30.5 341,-0.5 171,-0.5"/>
<text text-anchor="start" x="179" y="-18.5" font-family="Helvetica,sans-Serif" font-size="10.00">VortexEngine/src/Menus</text>
<text text-anchor="middle" x="256" y="-7.5" font-family="Helvetica,sans-Serif" font-size="10.00">/MenuList/EditorConnection.cpp</text>
</a>
</g>
</g>
<!-- Node4&#45;&gt;Node11 -->
<g id="edge29" class="edge">
<title>Node4&#45;&gt;Node11</title>
<path fill="none" stroke="midnightblue" d="M849.98,-201.22C745.09,-192.68 270.79,-197.28 210,-165 166.63,-141.97 133.53,-108.98 159,-67 169.39,-49.88 187.69,-38.29 205.62,-30.58"/>
<polygon fill="midnightblue" stroke="midnightblue" points="849.64,-204.7 859.94,-202.21 850.33,-197.74 849.64,-204.7"/>
</g>
<!-- Node16 -->
<g id="node16" class="node">
<title>Node16</title>
<g id="a_node16"><a xlink:href="ModeSharing_8cpp.html" target="_top" xlink:title=" ">
<polygon fill="none" stroke="black" points="433.5,-0.5 433.5,-30.5 584.5,-30.5 584.5,-0.5 433.5,-0.5"/>
<text text-anchor="start" x="441.5" y="-18.5" font-family="Helvetica,sans-Serif" font-size="10.00">VortexEngine/src/Menus</text>
<text text-anchor="middle" x="509" y="-7.5" font-family="Helvetica,sans-Serif" font-size="10.00">/MenuList/ModeSharing.cpp</text>
</a>
</g>
</g>
<!-- Node4&#45;&gt;Node16 -->
<g id="edge32" class="edge">
<title>Node4&#45;&gt;Node16</title>
<path fill="none" stroke="midnightblue" d="M849.94,-201.06C681.67,-182.15 258.71,-218.47 169,-98 160.77,-86.95 160,-77.43 169,-67 177.6,-57.03 335.96,-36.8 433.48,-25.2"/>
<polygon fill="midnightblue" stroke="midnightblue" points="849.58,-204.54 859.93,-202.29 850.43,-197.59 849.58,-204.54"/>
</g>
<!-- Node17 -->
<g id="node17" class="node">
<title>Node17</title>
<g id="a_node17"><a xlink:href="PatternSelect_8h.html" target="_top" xlink:title=" ">
<polygon fill="none" stroke="black" points="1001,-67.5 1001,-97.5 1141,-97.5 1141,-67.5 1001,-67.5"/>
<text text-anchor="start" x="1009" y="-85.5" font-family="Helvetica,sans-Serif" font-size="10.00">VortexEngine/src/Menus</text>
<text text-anchor="middle" x="1071" y="-74.5" font-family="Helvetica,sans-Serif" font-size="10.00">/MenuList/PatternSelect.h</text>
</a>
</g>
</g>
<!-- Node4&#45;&gt;Node17 -->
<g id="edge33" class="edge">
<title>Node4&#45;&gt;Node17</title>
<path fill="none" stroke="midnightblue" d="M849.73,-200.53C786.53,-187.91 706.79,-170.99 702,-165 693.39,-154.24 692.88,-144.33 702,-134 745,-85.33 927.81,-107.87 992,-98 994.89,-97.56 997.85,-97.09 1000.82,-96.6"/>
<polygon fill="midnightblue" stroke="midnightblue" points="849.23,-204 859.72,-202.52 850.6,-197.13 849.23,-204"/>
</g>
<!-- Node19 -->
<g id="node19" class="node">
<title>Node19</title>
<g id="a_node19"><a xlink:href="Randomizer_8h.html" target="_top" xlink:title=" ">
<polygon fill="none" stroke="black" points="1159,-67.5 1159,-97.5 1293,-97.5 1293,-67.5 1159,-67.5"/>
<text text-anchor="start" x="1167" y="-85.5" font-family="Helvetica,sans-Serif" font-size="10.00">VortexEngine/src/Menus</text>
<text text-anchor="middle" x="1226" y="-74.5" font-family="Helvetica,sans-Serif" font-size="10.00">/MenuList/Randomizer.h</text>
</a>
</g>
</g>
<!-- Node4&#45;&gt;Node19 -->
<g id="edge35" class="edge">
<title>Node4&#45;&gt;Node19</title>
<path fill="none" stroke="midnightblue" d="M849.9,-199.29C801.57,-188.35 747.1,-174.27 740,-165 731.62,-154.06 730.69,-144.16 740,-134 770.89,-100.28 1104.7,-104.29 1150,-98 1152.93,-97.59 1155.91,-97.15 1158.92,-96.68"/>
<polygon fill="midnightblue" stroke="midnightblue" points="849.26,-202.74 859.79,-201.51 850.79,-195.91 849.26,-202.74"/>
</g>
<!-- Node20 -->
<g id="node20" class="node">
<title>Node20</title>
<g id="a_node20"><a xlink:href="Randomizer_8cpp.html" target="_top" xlink:title=" ">
<polygon fill="none" stroke="black" points="1356.5,-0.5 1356.5,-30.5 1501.5,-30.5 1501.5,-0.5 1356.5,-0.5"/>
<text text-anchor="start" x="1364.5" y="-18.5" font-family="Helvetica,sans-Serif" font-size="10.00">VortexEngine/src/Menus</text>
<text text-anchor="middle" x="1429" y="-7.5" font-family="Helvetica,sans-Serif" font-size="10.00">/MenuList/Randomizer.cpp</text>
</a>
</g>
</g>
<!-- Node4&#45;&gt;Node20 -->
<g id="edge34" class="edge">
<title>Node4&#45;&gt;Node20</title>
<path fill="none" stroke="midnightblue" d="M1004.21,-212.38C1174.41,-205.13 1568.41,-186.15 1588,-165 1636.77,-112.36 1525.57,-56.06 1464.98,-30.52"/>
<polygon fill="midnightblue" stroke="midnightblue" points="1003.9,-208.89 994.06,-212.81 1004.2,-215.89 1003.9,-208.89"/>
</g>
<!-- Node21 -->
<g id="node21" class="node">
<title>Node21</title>
<g id="a_node21"><a xlink:href="Menus_8h.html" target="_top" xlink:title=" ">
<polygon fill="none" stroke="black" points="1355,-67.5 1355,-97.5 1489,-97.5 1489,-67.5 1355,-67.5"/>
<text text-anchor="start" x="1363" y="-85.5" font-family="Helvetica,sans-Serif" font-size="10.00">VortexEngine/src/Menus</text>
<text text-anchor="middle" x="1422" y="-74.5" font-family="Helvetica,sans-Serif" font-size="10.00">/Menus.h</text>
</a>
</g>
</g>
<!-- Node4&#45;&gt;Node21 -->
<g id="edge36" class="edge">
<title>Node4&#45;&gt;Node21</title>
<path fill="none" stroke="midnightblue" d="M1004.48,-215.16C1166.93,-213.65 1531.38,-205.69 1569,-165 1599.26,-132.27 1541.07,-109.58 1489.21,-96.61"/>
<polygon fill="midnightblue" stroke="midnightblue" points="1004.04,-211.67 994.07,-215.25 1004.1,-218.67 1004.04,-211.67"/>
</g>
<!-- Node22 -->
<g id="node22" class="node">
<title>Node22</title>
<g id="a_node22"><a xlink:href="VortexEngine_8cpp.html" target="_top" xlink:title=" ">
<polygon fill="none" stroke="black" points="1672,-6 1672,-25 1858,-25 1858,-6 1672,-6"/>
<text text-anchor="middle" x="1765" y="-13" font-family="Helvetica,sans-Serif" font-size="10.00">VortexEngine/src/VortexEngine.cpp</text>
</a>
</g>
</g>
<!-- Node4&#45;&gt;Node22 -->
<g id="edge46" class="edge">
<title>Node4&#45;&gt;Node22</title>
<path fill="none" stroke="midnightblue" d="M1004.17,-211.51C1181.14,-202.16 1603.2,-178.57 1631,-165 1697.16,-132.7 1745.64,-52.06 1760.35,-25.29"/>
<polygon fill="midnightblue" stroke="midnightblue" points="1003.94,-208.02 994.14,-212.04 1004.31,-215.01 1003.94,-208.02"/>
</g>
<!-- Node23 -->
<g id="node23" class="node">
<title>Node23</title>
<g id="a_node23"><a xlink:href="Mode_8cpp.html" target="_top" xlink:title=" ">
<polygon fill="none" stroke="black" points="782,-134.5 782,-164.5 916,-164.5 916,-134.5 782,-134.5"/>
<text text-anchor="start" x="790" y="-152.5" font-family="Helvetica,sans-Serif" font-size="10.00">VortexEngine/src/Modes</text>
<text text-anchor="middle" x="849" y="-141.5" font-family="Helvetica,sans-Serif" font-size="10.00">/Mode.cpp</text>
</a>
</g>
</g>
<!-- Node4&#45;&gt;Node23 -->
<g id="edge44" class="edge">
<title>Node4&#45;&gt;Node23</title>
<path fill="none" stroke="midnightblue" d="M902.26,-194.88C890.41,-185.01 876.52,-173.43 865.89,-164.58"/>
<polygon fill="midnightblue" stroke="midnightblue" points="900.15,-197.68 910.08,-201.4 904.63,-192.31 900.15,-197.68"/>
</g>
<!-- Node4&#45;&gt;Node24 -->
<g id="edge45" class="edge">
<title>Node4&#45;&gt;Node24</title>
<path fill="none" stroke="midnightblue" d="M1004.41,-213.46C1146.2,-209.08 1456.95,-196.49 1717,-165 1721.54,-164.45 1726.21,-163.81 1730.9,-163.11"/>
<polygon fill="midnightblue" stroke="midnightblue" points="1003.97,-209.97 994.08,-213.77 1004.18,-216.97 1003.97,-209.97"/>
</g>
<!-- Node25 -->
<g id="node25" class="node">
<title>Node25</title>
<g id="a_node25"><a xlink:href="IRReceiver_8cpp.html" target="_top" xlink:title=" ">
<polygon fill="none" stroke="black" points="934.5,-134.5 934.5,-164.5 1077.5,-164.5 1077.5,-134.5 934.5,-134.5"/>
<text text-anchor="start" x="942.5" y="-152.5" font-family="Helvetica,sans-Serif" font-size="10.00">VortexEngine/src/Wireless</text>
<text text-anchor="middle" x="1006" y="-141.5" font-family="Helvetica,sans-Serif" font-size="10.00">/IRReceiver.cpp</text>
</a>
</g>
</g>
<!-- Node4&#45;&gt;Node25 -->
<g id="edge47" class="edge">
<title>Node4&#45;&gt;Node25</title>
<path fill="none" stroke="midnightblue" d="M952.06,-194.88C964.06,-185.01 978.13,-173.43 988.89,-164.58"/>
<polygon fill="midnightblue" stroke="midnightblue" points="949.64,-192.34 944.14,-201.4 954.09,-197.75 949.64,-192.34"/>
</g>
<!-- Node26 -->
<g id="node26" class="node">
<title>Node26</title>
<g id="a_node26"><a xlink:href="IRSender_8cpp.html" target="_top" xlink:title=" ">
<polygon fill="none" stroke="black" points="1095.5,-134.5 1095.5,-164.5 1238.5,-164.5 1238.5,-134.5 1095.5,-134.5"/>
<text text-anchor="start" x="1103.5" y="-152.5" font-family="Helvetica,sans-Serif" font-size="10.00">VortexEngine/src/Wireless</text>
<text text-anchor="middle" x="1167" y="-141.5" font-family="Helvetica,sans-Serif" font-size="10.00">/IRSender.cpp</text>
</a>
</g>
</g>
<!-- Node4&#45;&gt;Node26 -->
<g id="edge48" class="edge">
<title>Node4&#45;&gt;Node26</title>
<path fill="none" stroke="midnightblue" d="M988.48,-198.85C1027.61,-188.25 1077.73,-174.68 1114.9,-164.61"/>
<polygon fill="midnightblue" stroke="midnightblue" points="987.52,-195.48 978.78,-201.48 989.35,-202.24 987.52,-195.48"/>
</g>
<!-- Node27 -->
<g id="node27" class="node">
<title>Node27</title>
<g id="a_node27"><a xlink:href="VLReceiver_8cpp.html" target="_top" xlink:title=" ">
<polygon fill="none" stroke="black" points="1256.5,-134.5 1256.5,-164.5 1399.5,-164.5 1399.5,-134.5 1256.5,-134.5"/>
<text text-anchor="start" x="1264.5" y="-152.5" font-family="Helvetica,sans-Serif" font-size="10.00">VortexEngine/src/Wireless</text>
<text text-anchor="middle" x="1328" y="-141.5" font-family="Helvetica,sans-Serif" font-size="10.00">/VLReceiver.cpp</text>
</a>
</g>
</g>
<!-- Node4&#45;&gt;Node27 -->
<g id="edge49" class="edge">
<title>Node4&#45;&gt;Node27</title>
<path fill="none" stroke="midnightblue" d="M1004.32,-203.75C1069.18,-193.79 1164.21,-178.94 1247,-165 1250.1,-164.48 1253.26,-163.94 1256.46,-163.39"/>
<polygon fill="midnightblue" stroke="midnightblue" points="1003.53,-200.33 994.18,-205.31 1004.59,-207.25 1003.53,-200.33"/>
</g>
<!-- Node28 -->
<g id="node28" class="node">
<title>Node28</title>
<g id="a_node28"><a xlink:href="VLSender_8cpp.html" target="_top" xlink:title=" ">
<polygon fill="none" stroke="black" points="1417.5,-134.5 1417.5,-164.5 1560.5,-164.5 1560.5,-134.5 1417.5,-134.5"/>
<text text-anchor="start" x="1425.5" y="-152.5" font-family="Helvetica,sans-Serif" font-size="10.00">VortexEngine/src/Wireless</text>
<text text-anchor="middle" x="1489" y="-141.5" font-family="Helvetica,sans-Serif" font-size="10.00">/VLSender.cpp</text>
</a>
</g>
</g>
<!-- Node4&#45;&gt;Node28 -->
<g id="edge50" class="edge">
<title>Node4&#45;&gt;Node28</title>
<path fill="none" stroke="midnightblue" d="M1004.22,-209.13C1099.42,-200.88 1266.03,-185.13 1408,-165 1411.11,-164.56 1414.29,-164.09 1417.49,-163.59"/>
<polygon fill="midnightblue" stroke="midnightblue" points="1003.77,-205.66 994.11,-210 1004.37,-212.63 1003.77,-205.66"/>
</g>
<!-- Node6&#45;&gt;Node5 -->
<g id="edge6" class="edge">
<title>Node6&#45;&gt;Node5</title>
<path fill="none" stroke="midnightblue" d="M660.25,-142.14C694.74,-139.42 735.89,-136.34 773,-134 853.5,-128.93 1423.57,-129.08 1498,-98 1532.41,-83.63 1562,-49.84 1576.83,-30.59"/>
<polygon fill="midnightblue" stroke="midnightblue" points="659.93,-138.65 650.24,-142.93 660.48,-145.63 659.93,-138.65"/>
</g>
<!-- Node7 -->
<g id="node7" class="node">
<title>Node7</title>
<g id="a_node7"><a xlink:href="ColorSelect_8h.html" target="_top" xlink:title=" ">
<polygon fill="none" stroke="black" points="849,-67.5 849,-97.5 983,-97.5 983,-67.5 849,-67.5"/>
<text text-anchor="start" x="857" y="-85.5" font-family="Helvetica,sans-Serif" font-size="10.00">VortexEngine/src/Menus</text>
<text text-anchor="middle" x="916" y="-74.5" font-family="Helvetica,sans-Serif" font-size="10.00">/MenuList/ColorSelect.h</text>
</a>
</g>
</g>
<!-- Node6&#45;&gt;Node7 -->
<g id="edge7" class="edge">
<title>Node6&#45;&gt;Node7</title>
<path fill="none" stroke="midnightblue" d="M660.45,-133.38C717.58,-122.23 794.51,-107.21 849,-96.58"/>
<polygon fill="midnightblue" stroke="midnightblue" points="659.53,-130 650.39,-135.35 660.87,-136.87 659.53,-130"/>
</g>
<!-- Node6&#45;&gt;Node10 -->
<g id="edge10" class="edge">
<title>Node6&#45;&gt;Node10</title>
<path fill="none" stroke="midnightblue" d="M505.8,-133.06C451.84,-122.27 380.37,-107.97 328.06,-97.51"/>
<polygon fill="midnightblue" stroke="midnightblue" points="505.17,-136.5 515.66,-135.03 506.54,-129.64 505.17,-136.5"/>
</g>
<!-- Node12 -->
<g id="node12" class="node">
<title>Node12</title>
<g id="a_node12"><a xlink:href="FactoryReset_8h.html" target="_top" xlink:title=" ">
<polygon fill="none" stroke="black" points="355.5,-67.5 355.5,-97.5 494.5,-97.5 494.5,-67.5 355.5,-67.5"/>
<text text-anchor="start" x="363.5" y="-85.5" font-family="Helvetica,sans-Serif" font-size="10.00">VortexEngine/src/Menus</text>
<text text-anchor="middle" x="425" y="-74.5" font-family="Helvetica,sans-Serif" font-size="10.00">/MenuList/FactoryReset.h</text>
</a>
</g>
</g>
<!-- Node6&#45;&gt;Node12 -->
<g id="edge13" class="edge">
<title>Node6&#45;&gt;Node12</title>
<path fill="none" stroke="midnightblue" d="M539.35,-130.54C514.07,-120.14 482.7,-107.24 459.22,-97.58"/>
<polygon fill="midnightblue" stroke="midnightblue" points="538.14,-133.83 548.72,-134.4 540.8,-127.35 538.14,-133.83"/>
</g>
<!-- Node13 -->
<g id="node13" class="node">
<title>Node13</title>
<g id="a_node13"><a xlink:href="GlobalBrightness_8h.html" target="_top" xlink:title=" ">
<polygon fill="none" stroke="black" points="671.5,-67.5 671.5,-97.5 830.5,-97.5 830.5,-67.5 671.5,-67.5"/>
<text text-anchor="start" x="679.5" y="-85.5" font-family="Helvetica,sans-Serif" font-size="10.00">VortexEngine/src/Menus</text>
<text text-anchor="middle" x="751" y="-74.5" font-family="Helvetica,sans-Serif" font-size="10.00">/MenuList/GlobalBrightness.h</text>
</a>
</g>
</g>
<!-- Node6&#45;&gt;Node13 -->
<g id="edge16" class="edge">
<title>Node6&#45;&gt;Node13</title>
<path fill="none" stroke="midnightblue" d="M629.05,-130.68C656,-120.26 689.54,-107.28 714.62,-97.58"/>
<polygon fill="midnightblue" stroke="midnightblue" points="627.52,-127.52 619.45,-134.4 630.04,-134.05 627.52,-127.52"/>
</g>
<!-- Node15 -->
<g id="node15" class="node">
<title>Node15</title>
<g id="a_node15"><a xlink:href="ModeSharing_8h.html" target="_top" xlink:title=" ">
<polygon fill="none" stroke="black" points="513,-67.5 513,-97.5 653,-97.5 653,-67.5 513,-67.5"/>
<text text-anchor="start" x="521" y="-85.5" font-family="Helvetica,sans-Serif" font-size="10.00">VortexEngine/src/Menus</text>
<text text-anchor="middle" x="583" y="-74.5" font-family="Helvetica,sans-Serif" font-size="10.00">/MenuList/ModeSharing.h</text>
</a>
</g>
</g>
<!-- Node6&#45;&gt;Node15 -->
<g id="edge19" class="edge">
<title>Node6&#45;&gt;Node15</title>
<path fill="none" stroke="midnightblue" d="M583,-124.11C583,-115.15 583,-105.32 583,-97.58"/>
<polygon fill="midnightblue" stroke="midnightblue" points="579.5,-124.4 583,-134.4 586.5,-124.4 579.5,-124.4"/>
</g>
<!-- Node6&#45;&gt;Node17 -->
<g id="edge22" class="edge">
<title>Node6&#45;&gt;Node17</title>
<path fill="none" stroke="midnightblue" d="M660.15,-134.57C661.44,-134.37 662.73,-134.18 664,-134 809.15,-113.07 846.89,-119.25 992,-98 994.9,-97.58 997.85,-97.12 1000.83,-96.65"/>
<polygon fill="midnightblue" stroke="midnightblue" points="659.47,-131.13 650.13,-136.12 660.55,-138.05 659.47,-131.13"/>
</g>
<!-- Node6&#45;&gt;Node19 -->
<g id="edge25" class="edge">
<title>Node6&#45;&gt;Node19</title>
<path fill="none" stroke="midnightblue" d="M660.29,-138.61C674.16,-136.97 688.5,-135.36 702,-134 900.74,-113.92 952.05,-124.76 1150,-98 1152.93,-97.6 1155.91,-97.17 1158.93,-96.7"/>
<polygon fill="midnightblue" stroke="midnightblue" points="659.8,-135.15 650.28,-139.81 660.63,-142.1 659.8,-135.15"/>
</g>
<!-- Node7&#45;&gt;Node8 -->
<g id="edge8" class="edge">
<title>Node7&#45;&gt;Node8</title>
<path fill="none" stroke="midnightblue" d="M964.59,-63.96C993.58,-53.48 1029.91,-40.37 1057.02,-30.58"/>
<polygon fill="midnightblue" stroke="midnightblue" points="963.27,-60.71 955.06,-67.4 965.65,-67.29 963.27,-60.71"/>
</g>
<!-- Node9 -->
<g id="node9" class="node">
<title>Node9</title>
<g id="a_node9"><a xlink:href="Menus_8cpp.html" target="_top" xlink:title=" ">
<polygon fill="none" stroke="black" points="684,-0.5 684,-30.5 818,-30.5 818,-0.5 684,-0.5"/>
<text text-anchor="start" x="692" y="-18.5" font-family="Helvetica,sans-Serif" font-size="10.00">VortexEngine/src/Menus</text>
<text text-anchor="middle" x="751" y="-7.5" font-family="Helvetica,sans-Serif" font-size="10.00">/Menus.cpp</text>
</a>
</g>
</g>
<!-- Node7&#45;&gt;Node9 -->
<g id="edge9" class="edge">
<title>Node7&#45;&gt;Node9</title>
<path fill="none" stroke="midnightblue" d="M870.77,-63.68C844.31,-53.26 811.37,-40.28 786.73,-30.58"/>
<polygon fill="midnightblue" stroke="midnightblue" points="869.61,-66.99 880.2,-67.4 872.18,-60.47 869.61,-66.99"/>
</g>
<!-- Node10&#45;&gt;Node9 -->
<g id="edge12" class="edge">
<title>Node10&#45;&gt;Node9</title>
<path fill="none" stroke="midnightblue" d="M347.68,-66.79C471.97,-48.96 605.58,-33.05 683.89,-24.05"/>
<polygon fill="midnightblue" stroke="midnightblue" points="347,-63.35 337.6,-68.24 348,-70.28 347,-63.35"/>
</g>
<!-- Node10&#45;&gt;Node11 -->
<g id="edge11" class="edge">
<title>Node10&#45;&gt;Node11</title>
<path fill="none" stroke="midnightblue" d="M257.25,-57.11C256.97,-48.15 256.67,-38.32 256.43,-30.58"/>
<polygon fill="midnightblue" stroke="midnightblue" points="253.76,-57.51 257.57,-67.4 260.76,-57.29 253.76,-57.51"/>
</g>
<!-- Node12&#45;&gt;Node2 -->
<g id="edge14" class="edge">
<title>Node12&#45;&gt;Node2</title>
<path fill="none" stroke="midnightblue" d="M345.48,-66.73C286.89,-55.85 207.73,-41.15 150.19,-30.46"/>
<polygon fill="midnightblue" stroke="midnightblue" points="344.96,-70.2 355.43,-68.58 346.24,-63.31 344.96,-70.2"/>
</g>
<!-- Node12&#45;&gt;Node9 -->
<g id="edge15" class="edge">
<title>Node12&#45;&gt;Node9</title>
<path fill="none" stroke="midnightblue" d="M504.58,-65.63C559.52,-54.68 631.76,-40.27 683.8,-29.9"/>
<polygon fill="midnightblue" stroke="midnightblue" points="503.66,-62.25 494.54,-67.64 505.03,-69.11 503.66,-62.25"/>
</g>
<!-- Node13&#45;&gt;Node9 -->
<g id="edge18" class="edge">
<title>Node13&#45;&gt;Node9</title>
<path fill="none" stroke="midnightblue" d="M751,-57.11C751,-48.15 751,-38.32 751,-30.58"/>
<polygon fill="midnightblue" stroke="midnightblue" points="747.5,-57.4 751,-67.4 754.5,-57.4 747.5,-57.4"/>
</g>
<!-- Node14 -->
<g id="node14" class="node">
<title>Node14</title>
<g id="a_node14"><a xlink:href="GlobalBrightness_8cpp.html" target="_top" xlink:title=" ">
<polygon fill="none" stroke="black" points="836,-0.5 836,-30.5 1006,-30.5 1006,-0.5 836,-0.5"/>
<text text-anchor="start" x="844" y="-18.5" font-family="Helvetica,sans-Serif" font-size="10.00">VortexEngine/src/Menus</text>
<text text-anchor="middle" x="921" y="-7.5" font-family="Helvetica,sans-Serif" font-size="10.00">/MenuList/GlobalBrightness.cpp</text>
</a>
</g>
</g>
<!-- Node13&#45;&gt;Node14 -->
<g id="edge17" class="edge">
<title>Node13&#45;&gt;Node14</title>
<path fill="none" stroke="midnightblue" d="M797.24,-63.82C824.57,-53.37 858.69,-40.32 884.18,-30.58"/>
<polygon fill="midnightblue" stroke="midnightblue" points="795.98,-60.56 787.89,-67.4 798.48,-67.09 795.98,-60.56"/>
</g>
<!-- Node15&#45;&gt;Node9 -->
<g id="edge21" class="edge">
<title>Node15&#45;&gt;Node9</title>
<path fill="none" stroke="midnightblue" d="M629.05,-63.68C656,-53.26 689.54,-40.28 714.62,-30.58"/>
<polygon fill="midnightblue" stroke="midnightblue" points="627.52,-60.52 619.45,-67.4 630.04,-67.05 627.52,-60.52"/>
</g>
<!-- Node15&#45;&gt;Node16 -->
<g id="edge20" class="edge">
<title>Node15&#45;&gt;Node16</title>
<path fill="none" stroke="midnightblue" d="M559.2,-60.6C548.03,-50.78 535.01,-39.34 525.03,-30.58"/>
<polygon fill="midnightblue" stroke="midnightblue" points="557.12,-63.43 566.94,-67.4 561.74,-58.17 557.12,-63.43"/>
</g>
<!-- Node17&#45;&gt;Node9 -->
<g id="edge24" class="edge">
<title>Node17&#45;&gt;Node9</title>
<path fill="none" stroke="midnightblue" d="M991.86,-65.42C938.52,-54.59 868.93,-40.45 818.27,-30.16"/>
<polygon fill="midnightblue" stroke="midnightblue" points="991.46,-68.92 1001.96,-67.48 992.86,-62.06 991.46,-68.92"/>
</g>
<!-- Node18 -->
<g id="node18" class="node">
<title>Node18</title>
<g id="a_node18"><a xlink:href="PatternSelect_8cpp.html" target="_top" xlink:title=" ">
<polygon fill="none" stroke="black" points="1186,-0.5 1186,-30.5 1338,-30.5 1338,-0.5 1186,-0.5"/>
<text text-anchor="start" x="1194" y="-18.5" font-family="Helvetica,sans-Serif" font-size="10.00">VortexEngine/src/Menus</text>
<text text-anchor="middle" x="1262" y="-7.5" font-family="Helvetica,sans-Serif" font-size="10.00">/MenuList/PatternSelect.cpp</text>
</a>
</g>
</g>
<!-- Node17&#45;&gt;Node18 -->
<g id="edge23" class="edge">
<title>Node17&#45;&gt;Node18</title>
<path fill="none" stroke="midnightblue" d="M1122.15,-64.09C1152.99,-53.6 1191.75,-40.41 1220.64,-30.58"/>
<polygon fill="midnightblue" stroke="midnightblue" points="1120.78,-60.86 1112.44,-67.4 1123.04,-67.49 1120.78,-60.86"/>
</g>
<!-- Node19&#45;&gt;Node9 -->
<g id="edge27" class="edge">
<title>Node19&#45;&gt;Node9</title>
<path fill="none" stroke="midnightblue" d="M1148.86,-66.91C1005.44,-45.75 966.62,-52.07 827,-31 824.08,-30.56 821.1,-30.09 818.09,-29.59"/>
<polygon fill="midnightblue" stroke="midnightblue" points="1148.5,-70.39 1158.91,-68.41 1149.54,-63.47 1148.5,-70.39"/>
</g>
<!-- Node19&#45;&gt;Node20 -->
<g id="edge26" class="edge">
<title>Node19&#45;&gt;Node20</title>
<path fill="none" stroke="midnightblue" d="M1279.94,-64.23C1312.78,-53.71 1354.2,-40.45 1385.04,-30.58"/>
<polygon fill="midnightblue" stroke="midnightblue" points="1278.5,-61.01 1270.05,-67.4 1280.64,-67.68 1278.5,-61.01"/>
</g>
<!-- Node21&#45;&gt;Node5 -->
<g id="edge37" class="edge">
<title>Node21&#45;&gt;Node5</title>
<path fill="none" stroke="midnightblue" d="M1467.23,-63.68C1493.69,-53.26 1526.63,-40.28 1551.27,-30.58"/>
<polygon fill="midnightblue" stroke="midnightblue" points="1465.82,-60.47 1457.8,-67.4 1468.39,-66.99 1465.82,-60.47"/>
</g>
<!-- Node21&#45;&gt;Node8 -->
<g id="edge38" class="edge">
<title>Node21&#45;&gt;Node8</title>
<path fill="none" stroke="midnightblue" d="M1344.96,-66.14C1290.85,-55.35 1219.04,-41.03 1166.45,-30.55"/>
<polygon fill="midnightblue" stroke="midnightblue" points="1344.36,-69.59 1354.85,-68.11 1345.73,-62.72 1344.36,-69.59"/>
</g>
<!-- Node21&#45;&gt;Node9 -->
<g id="edge42" class="edge">
<title>Node21&#45;&gt;Node9</title>
<path fill="none" stroke="midnightblue" d="M1344.58,-71.63C1330.43,-69.97 1315.78,-68.35 1302,-67 1091.3,-46.3 1036.87,-58.88 827,-31 824.07,-30.61 821.08,-30.18 818.07,-29.72"/>
<polygon fill="midnightblue" stroke="midnightblue" points="1344.44,-75.14 1354.78,-72.84 1345.27,-68.19 1344.44,-75.14"/>
</g>
<!-- Node21&#45;&gt;Node14 -->
<g id="edge39" class="edge">
<title>Node21&#45;&gt;Node14</title>
<path fill="none" stroke="midnightblue" d="M1344.75,-72.04C1235.83,-58.68 1046.8,-35.42 1015,-31 1012.06,-30.59 1009.06,-30.17 1006.04,-29.73"/>
<polygon fill="midnightblue" stroke="midnightblue" points="1344.35,-75.52 1354.71,-73.26 1345.21,-68.57 1344.35,-75.52"/>
</g>
<!-- Node21&#45;&gt;Node18 -->
<g id="edge40" class="edge">
<title>Node21&#45;&gt;Node18</title>
<path fill="none" stroke="midnightblue" d="M1377.8,-63.54C1352.2,-53.14 1320.43,-40.24 1296.65,-30.58"/>
<polygon fill="midnightblue" stroke="midnightblue" points="1376.7,-66.87 1387.28,-67.4 1379.34,-60.39 1376.7,-66.87"/>
</g>
<!-- Node21&#45;&gt;Node20 -->
<g id="edge41" class="edge">
<title>Node21&#45;&gt;Node20</title>
<path fill="none" stroke="midnightblue" d="M1424.6,-57.4C1425.57,-48.37 1426.64,-38.41 1427.48,-30.58"/>
<polygon fill="midnightblue" stroke="midnightblue" points="1421.11,-57.08 1423.52,-67.4 1428.07,-57.83 1421.11,-57.08"/>
</g>
<!-- Node21&#45;&gt;Node22 -->
<g id="edge43" class="edge">
<title>Node21&#45;&gt;Node22</title>
<path fill="none" stroke="midnightblue" d="M1499.59,-66.8C1567.55,-53.92 1663.95,-35.65 1719.93,-25.04"/>
<polygon fill="midnightblue" stroke="midnightblue" points="1498.53,-63.43 1489.36,-68.74 1499.83,-70.31 1498.53,-63.43"/>
</g>
</g>
</svg>
        <g id="navigator" transform="translate(0 0)" fill="#404254">
                <rect fill="#f2f5e9" fill-opacity="0.5" stroke="#606060" stroke-width=".5" x="0" y="0" width="60" height="60"/>
                <use id="zoomplus" xlink:href="#zoomPlus" x="17" y="9" onmousedown="handleZoom(evt,'in')"/>
                <use id="zoomminus" xlink:href="#zoomMin" x="42" y="9" onmousedown="handleZoom(evt,'out')"/>
                <use id="reset" xlink:href="#resetDef" x="30" y="36" onmousedown="handleReset()"/>
                <g id="arrowUp" xlink:href="#dirArrow" transform="translate(30 24)" onmousedown="handlePan(0,-1)">
                  <use xlink:href="#rim" fill="#404040">
                        <set attributeName="fill" to="#808080" begin="arrowUp.mouseover" end="arrowUp.mouseout"/>
                  </use>
                  <path fill="none" stroke="white" stroke-width="1.5" d="M0,-3.0v7 M-2.5,-0.5L0,-3.0L2.5,-0.5"/>
                </g>
                <g id="arrowRight" xlink:href="#dirArrow" transform="rotate(90) translate(36 -43)" onmousedown="handlePan(1,0)">
                  <use xlink:href="#rim" fill="#404040">
                        <set attributeName="fill" to="#808080" begin="arrowRight.mouseover" end="arrowRight.mouseout"/>
                  </use>
                  <path fill="none" stroke="white" stroke-width="1.5" d="M0,-3.0v7 M-2.5,-0.5L0,-3.0L2.5,-0.5"/>
                </g>
                <g id="arrowDown" xlink:href="#dirArrow" transform="rotate(180) translate(-30 -48)" onmousedown="handlePan(0,1)">
                  <use xlink:href="#rim" fill="#404040">
                        <set attributeName="fill" to="#808080" begin="arrowDown.mouseover" end="arrowDown.mouseout"/>
                  </use>
                  <path fill="none" stroke="white" stroke-width="1.5" d="M0,-3.0v7 M-2.5,-0.5L0,-3.0L2.5,-0.5"/>
                </g>
                <g id="arrowLeft" xlink:href="#dirArrow" transform="rotate(270) translate(-36 17)" onmousedown="handlePan(-1,0)">
                  <use xlink:href="#rim" fill="#404040">
                        <set attributeName="fill" to="#808080" begin="arrowLeft.mouseover" end="arrowLeft.mouseout"/>
                  </use>
                  <path fill="none" stroke="white" stroke-width="1.5" d="M0,-3.0v7 M-2.5,-0.5L0,-3.0L2.5,-0.5"/>
                </g>
        </g>
        <svg viewBox="0 0 15 15" width="100%" height="30px" preserveAspectRatio="xMaxYMin meet">
         <g id="arrow_out" transform="scale(0.3 0.3)">
          <a xlink:href="DefaultModes_8h__dep__incl_org.svg" target="_base">
           <rect id="button" ry="5" rx="5" y="6" x="6" height="38" width="38"
                fill="#f2f5e9" fill-opacity="0.5" stroke="#606060" stroke-width="1.0"/>
           <path id="arrow"
             d="M 11.500037,31.436501 C 11.940474,20.09759 22.043105,11.32322 32.158766,21.979434 L 37.068811,17.246167 C 37.068811,17.246167 37.088388,32 37.088388,32 L 22.160133,31.978069 C 22.160133,31.978069 26.997745,27.140456 26.997745,27.140456 C 18.528582,18.264221 13.291696,25.230495 11.500037,31.436501 z"
             style="fill:#404040;"/>
          </a>
         </g>
        </svg>
</svg>
