<?xml version="1.0" encoding="UTF-8" standalone="no"?>
<!DOCTYPE svg PUBLIC "-//W3C//DTD SVG 1.1//EN"
 "http://www.w3.org/Graphics/SVG/1.1/DTD/svg11.dtd">
<!-- Generated by graphviz version 2.43.0 (0)
 -->
<!-- Title: VortexEngine/src Pages: 1 -->
<svg width="530pt" height="759pt"
 viewBox="0.00 0.00 530.00 759.00" xmlns="http://www.w3.org/2000/svg" xmlns:xlink="http://www.w3.org/1999/xlink">
<g id="graph0" class="graph" transform="scale(1 1) rotate(0) translate(4 755)">
<title>VortexEngine/src</title>
<g id="clust1" class="cluster">
<title>clusterdir_cfa97f0e2c08f470d5e70542e8b74b9a</title>
<g id="a_clust1"><a xlink:href="dir_cfa97f0e2c08f470d5e70542e8b74b9a.html" target="_top" xlink:title="VortexEngine">
<polygon fill="#ddddee" stroke="black" points="8,-8 8,-743 514,-743 514,-8 8,-8"/>
<text text-anchor="middle" x="261" y="-731" font-family="Helvetica,sans-Serif" font-size="10.00">VortexEngine</text>
</a>
</g>
</g>
<g id="clust2" class="cluster">
<title>clusterdir_df02266255841645c523fab960c9ed1d</title>
<g id="a_clust2"><a xlink:href="dir_df02266255841645c523fab960c9ed1d.html" target="_top">
<polygon fill="#eeeeff" stroke="black" points="16,-16 16,-716 506,-716 506,-16 16,-16"/>
</a>
</g>
</g>
<!-- dir_df02266255841645c523fab960c9ed1d -->
<g id="node1" class="node">
<title>dir_df02266255841645c523fab960c9ed1d</title>
<text text-anchor="middle" x="417" y="-687.5" font-family="Helvetica,sans-Serif" font-size="10.00">src</text>
</g>
<!-- dir_ff5a4dc0324506fcdfb8f8f681f9dae7 -->
<g id="node2" class="node">
<title>dir_ff5a4dc0324506fcdfb8f8f681f9dae7</title>
<g id="a_node2"><a xlink:href="dir_ff5a4dc0324506fcdfb8f8f681f9dae7.html" target="_top" xlink:title="Buttons">
<polygon fill="white" stroke="black" points="366,-636 312,-636 312,-600 366,-600 366,-636"/>
<text text-anchor="middle" x="339" y="-615.5" font-family="Helvetica,sans-Serif" font-size="10.00">Buttons</text>
</a>
</g>
</g>
<!-- dir_9a5c88f87170865d940dc95c76676edb -->
<g id="node5" class="node">
<title>dir_9a5c88f87170865d940dc95c76676edb</title>
<g id="a_node5"><a xlink:href="dir_9a5c88f87170865d940dc95c76676edb.html" target="_top" xlink:title="Log">
<polygon fill="white" stroke="black" points="304,-564 250,-564 250,-528 304,-528 304,-564"/>
<text text-anchor="middle" x="277" y="-543.5" font-family="Helvetica,sans-Serif" font-size="10.00">Log</text>
</a>
</g>
</g>
<!-- dir_ff5a4dc0324506fcdfb8f8f681f9dae7&#45;&gt;dir_9a5c88f87170865d940dc95c76676edb -->
<g id="edge55" class="edge">
<title>dir_ff5a4dc0324506fcdfb8f8f681f9dae7&#45;&gt;dir_9a5c88f87170865d940dc95c76676edb</title>
<path fill="none" stroke="black" d="M323.67,-599.7C316.24,-591.3 307.18,-581.07 299.02,-571.86"/>
<polygon fill="black" stroke="black" points="301.4,-569.27 292.15,-564.1 296.16,-573.91 301.4,-569.27"/>
<g id="a_edge55&#45;headlabel"><a xlink:href="dir_000002_000005.html" target="_top" xlink:title="1">
<text text-anchor="middle" x="305.91" y="-567.58" font-family="Helvetica,sans-Serif" font-size="10.00">1</text>
</a>
</g>
</g>
<!-- dir_63ce3ba067bdf35a8f7c780ac03d51a3 -->
<g id="node13" class="node">
<title>dir_63ce3ba067bdf35a8f7c780ac03d51a3</title>
<g id="a_node13"><a xlink:href="dir_63ce3ba067bdf35a8f7c780ac03d51a3.html" target="_top" xlink:title="Time">
<polygon fill="white" stroke="black" points="378,-420 324,-420 324,-384 378,-384 378,-420"/>
<text text-anchor="middle" x="351" y="-399.5" font-family="Helvetica,sans-Serif" font-size="10.00">Time</text>
</a>
</g>
</g>
<!-- dir_ff5a4dc0324506fcdfb8f8f681f9dae7&#45;&gt;dir_63ce3ba067bdf35a8f7c780ac03d51a3 -->
<g id="edge54" class="edge">
<title>dir_ff5a4dc0324506fcdfb8f8f681f9dae7&#45;&gt;dir_63ce3ba067bdf35a8f7c780ac03d51a3</title>
<path fill="none" stroke="black" d="M339.98,-599.81C340.56,-589.44 341.33,-575.96 342,-564 344.63,-517.24 347.67,-462.85 349.45,-430.76"/>
<polygon fill="black" stroke="black" points="352.97,-430.57 350.03,-420.39 345.98,-430.18 352.97,-430.57"/>
<g id="a_edge54&#45;headlabel"><a xlink:href="dir_000002_000017.html" target="_top" xlink:title="4">
<text text-anchor="middle" x="355.6" y="-431.82" font-family="Helvetica,sans-Serif" font-size="10.00">4</text>
</a>
</g>
</g>
<!-- dir_ce91f970b513fb5ff406625265505b14 -->
<g id="node3" class="node">
<title>dir_ce91f970b513fb5ff406625265505b14</title>
<g id="a_node3"><a xlink:href="dir_ce91f970b513fb5ff406625265505b14.html" target="_top" xlink:title="Colors">
<polygon fill="white" stroke="black" points="307,-132 253,-132 253,-96 307,-96 307,-132"/>
<text text-anchor="middle" x="280" y="-111.5" font-family="Helvetica,sans-Serif" font-size="10.00">Colors</text>
</a>
</g>
</g>
<!-- dir_ce91f970b513fb5ff406625265505b14&#45;&gt;dir_9a5c88f87170865d940dc95c76676edb -->
<g id="edge40" class="edge">
<title>dir_ce91f970b513fb5ff406625265505b14&#45;&gt;dir_9a5c88f87170865d940dc95c76676edb</title>
<path fill="none" stroke="black" d="M252.89,-121.22C199.31,-135.29 85,-174.92 85,-257 85,-331 85,-331 85,-331 85,-409.2 100.63,-436.77 156,-492 179.04,-514.98 213.7,-528.77 240.03,-536.49"/>
<polygon fill="black" stroke="black" points="239.1,-539.87 249.67,-539.16 240.97,-533.12 239.1,-539.87"/>
<g id="a_edge40&#45;headlabel"><a xlink:href="dir_000003_000005.html" target="_top" xlink:title="1">
<text text-anchor="middle" x="234.88" y="-539.14" font-family="Helvetica,sans-Serif" font-size="10.00">1</text>
</a>
</g>
</g>
<!-- dir_7e29431de6169dbb5f5ee7a990ed2b16 -->
<g id="node6" class="node">
<title>dir_7e29431de6169dbb5f5ee7a990ed2b16</title>
<g id="a_node6"><a xlink:href="dir_7e29431de6169dbb5f5ee7a990ed2b16.html" target="_top" xlink:title="Memory">
<polygon fill="white" stroke="black" points="250.5,-60 193.5,-60 193.5,-24 250.5,-24 250.5,-60"/>
<text text-anchor="middle" x="222" y="-39.5" font-family="Helvetica,sans-Serif" font-size="10.00">Memory</text>
</a>
</g>
</g>
<!-- dir_ce91f970b513fb5ff406625265505b14&#45;&gt;dir_7e29431de6169dbb5f5ee7a990ed2b16 -->
<g id="edge39" class="edge">
<title>dir_ce91f970b513fb5ff406625265505b14&#45;&gt;dir_7e29431de6169dbb5f5ee7a990ed2b16</title>
<path fill="none" stroke="black" d="M265.66,-95.7C258.71,-87.3 250.23,-77.07 242.6,-67.86"/>
<polygon fill="black" stroke="black" points="245.25,-65.57 236.17,-60.1 239.86,-70.04 245.25,-65.57"/>
<g id="a_edge39&#45;headlabel"><a xlink:href="dir_000003_000006.html" target="_top" xlink:title="1">
<text text-anchor="middle" x="249.73" y="-64.03" font-family="Helvetica,sans-Serif" font-size="10.00">1</text>
</a>
</g>
</g>
<!-- dir_77968f70279e8f688919023f4af8a16f -->
<g id="node10" class="node">
<title>dir_77968f70279e8f688919023f4af8a16f</title>
<g id="a_node10"><a xlink:href="dir_77968f70279e8f688919023f4af8a16f.html" target="_top" xlink:title="Random">
<polygon fill="white" stroke="black" points="497.5,-60 440.5,-60 440.5,-24 497.5,-24 497.5,-60"/>
<text text-anchor="middle" x="469" y="-39.5" font-family="Helvetica,sans-Serif" font-size="10.00">Random</text>
</a>
</g>
</g>
<!-- dir_ce91f970b513fb5ff406625265505b14&#45;&gt;dir_77968f70279e8f688919023f4af8a16f -->
<g id="edge38" class="edge">
<title>dir_ce91f970b513fb5ff406625265505b14&#45;&gt;dir_77968f70279e8f688919023f4af8a16f</title>
<path fill="none" stroke="black" d="M307.08,-102.97C339.59,-90.93 394.32,-70.66 431.04,-57.06"/>
<polygon fill="black" stroke="black" points="432.26,-60.34 440.42,-53.58 429.83,-53.77 432.26,-60.34"/>
<g id="a_edge38&#45;headlabel"><a xlink:href="dir_000003_000014.html" target="_top" xlink:title="1">
<text text-anchor="middle" x="429.88" y="-61.75" font-family="Helvetica,sans-Serif" font-size="10.00">1</text>
</a>
</g>
</g>
<!-- dir_cabf3d63e98569a74ecb960b83c4a15b -->
<g id="node11" class="node">
<title>dir_cabf3d63e98569a74ecb960b83c4a15b</title>
<g id="a_node11"><a xlink:href="dir_cabf3d63e98569a74ecb960b83c4a15b.html" target="_top" xlink:title="Serial">
<polygon fill="white" stroke="black" points="258,-492 204,-492 204,-456 258,-456 258,-492"/>
<text text-anchor="middle" x="231" y="-471.5" font-family="Helvetica,sans-Serif" font-size="10.00">Serial</text>
</a>
</g>
</g>
<!-- dir_ce91f970b513fb5ff406625265505b14&#45;&gt;dir_cabf3d63e98569a74ecb960b83c4a15b -->
<g id="edge41" class="edge">
<title>dir_ce91f970b513fb5ff406625265505b14&#45;&gt;dir_cabf3d63e98569a74ecb960b83c4a15b</title>
<path fill="none" stroke="black" d="M271.38,-132.27C260.04,-155.91 240.57,-199.99 232,-240 216.37,-312.93 222.74,-401.67 227.52,-445.61"/>
<polygon fill="black" stroke="black" points="224.07,-446.25 228.69,-455.79 231.03,-445.45 224.07,-446.25"/>
<g id="a_edge41&#45;headlabel"><a xlink:href="dir_000003_000015.html" target="_top" xlink:title="2">
<text text-anchor="middle" x="220.84" y="-440.5" font-family="Helvetica,sans-Serif" font-size="10.00">2</text>
</a>
</g>
</g>
<!-- dir_60d51ee7315d72413f26211ac43a217e -->
<g id="node4" class="node">
<title>dir_60d51ee7315d72413f26211ac43a217e</title>
<g id="a_node4"><a xlink:href="dir_60d51ee7315d72413f26211ac43a217e.html" target="_top" xlink:title="Leds">
<polygon fill="white" stroke="black" points="438,-348 384,-348 384,-312 438,-312 438,-348"/>
<text text-anchor="middle" x="411" y="-327.5" font-family="Helvetica,sans-Serif" font-size="10.00">Leds</text>
</a>
</g>
</g>
<!-- dir_60d51ee7315d72413f26211ac43a217e&#45;&gt;dir_ce91f970b513fb5ff406625265505b14 -->
<g id="edge37" class="edge">
<title>dir_60d51ee7315d72413f26211ac43a217e&#45;&gt;dir_ce91f970b513fb5ff406625265505b14</title>
<path fill="none" stroke="black" d="M409.8,-311.71C406.83,-280.15 396.69,-212.37 363,-168 350.98,-152.18 332.78,-139.8 316.47,-131"/>
<polygon fill="black" stroke="black" points="317.65,-127.67 307.16,-126.23 314.46,-133.9 317.65,-127.67"/>
<g id="a_edge37&#45;headlabel"><a xlink:href="dir_000004_000003.html" target="_top" xlink:title="2">
<text text-anchor="middle" x="322.15" y="-124.28" font-family="Helvetica,sans-Serif" font-size="10.00">2</text>
</a>
</g>
</g>
<!-- dir_4d7f8bf987ecca6ad9438e8e8937cf95 -->
<g id="node8" class="node">
<title>dir_4d7f8bf987ecca6ad9438e8e8937cf95</title>
<g id="a_node8"><a xlink:href="dir_4d7f8bf987ecca6ad9438e8e8937cf95.html" target="_top" xlink:title="Modes">
<polygon fill="white" stroke="black" points="306,-276 252,-276 252,-240 306,-240 306,-276"/>
<text text-anchor="middle" x="279" y="-255.5" font-family="Helvetica,sans-Serif" font-size="10.00">Modes</text>
</a>
</g>
</g>
<!-- dir_60d51ee7315d72413f26211ac43a217e&#45;&gt;dir_4d7f8bf987ecca6ad9438e8e8937cf95 -->
<g id="edge35" class="edge">
<title>dir_60d51ee7315d72413f26211ac43a217e&#45;&gt;dir_4d7f8bf987ecca6ad9438e8e8937cf95</title>
<path fill="none" stroke="black" d="M383.71,-317.28C363.5,-307.41 335.97,-293 314.15,-280.99"/>
<polygon fill="black" stroke="black" points="315.62,-277.8 305.18,-276 312.22,-283.92 315.62,-277.8"/>
<g id="a_edge35&#45;headlabel"><a xlink:href="dir_000004_000009.html" target="_top" xlink:title="1">
<text text-anchor="middle" x="320.14" y="-274.57" font-family="Helvetica,sans-Serif" font-size="10.00">1</text>
</a>
</g>
</g>
<!-- dir_60d51ee7315d72413f26211ac43a217e&#45;&gt;dir_63ce3ba067bdf35a8f7c780ac03d51a3 -->
<g id="edge36" class="edge">
<title>dir_60d51ee7315d72413f26211ac43a217e&#45;&gt;dir_63ce3ba067bdf35a8f7c780ac03d51a3</title>
<path fill="none" stroke="black" d="M402.23,-348.1C395.88,-356.55 387.21,-366.9 378.75,-376.2"/>
<polygon fill="black" stroke="black" points="376.01,-374 371.75,-383.7 381.13,-378.78 376.01,-374"/>
<g id="a_edge36&#45;headlabel"><a xlink:href="dir_000004_000017.html" target="_top" xlink:title="1">
<text text-anchor="middle" x="376.39" y="-366.93" font-family="Helvetica,sans-Serif" font-size="10.00">1</text>
</a>
</g>
</g>
<!-- dir_9a5c88f87170865d940dc95c76676edb&#45;&gt;dir_cabf3d63e98569a74ecb960b83c4a15b -->
<g id="edge33" class="edge">
<title>dir_9a5c88f87170865d940dc95c76676edb&#45;&gt;dir_cabf3d63e98569a74ecb960b83c4a15b</title>
<path fill="none" stroke="black" d="M259.71,-527.7C253.59,-519.64 246.97,-509.89 241.53,-500.98"/>
<polygon fill="black" stroke="black" points="244.41,-498.98 236.34,-492.1 238.36,-502.51 244.41,-498.98"/>
<g id="a_edge33&#45;headlabel"><a xlink:href="dir_000005_000015.html" target="_top" xlink:title="1">
<text text-anchor="middle" x="248.67" y="-498.15" font-family="Helvetica,sans-Serif" font-size="10.00">1</text>
</a>
</g>
</g>
<!-- dir_9a5c88f87170865d940dc95c76676edb&#45;&gt;dir_63ce3ba067bdf35a8f7c780ac03d51a3 -->
<g id="edge32" class="edge">
<title>dir_9a5c88f87170865d940dc95c76676edb&#45;&gt;dir_63ce3ba067bdf35a8f7c780ac03d51a3</title>
<path fill="none" stroke="black" d="M281.34,-527.87C291.57,-503.24 315.08,-457.64 332.16,-428.88"/>
<polygon fill="black" stroke="black" points="335.24,-430.55 337.45,-420.19 329.26,-426.91 335.24,-430.55"/>
<g id="a_edge32&#45;headlabel"><a xlink:href="dir_000005_000017.html" target="_top" xlink:title="1">
<text text-anchor="middle" x="335.8" y="-432.6" font-family="Helvetica,sans-Serif" font-size="10.00">1</text>
</a>
</g>
</g>
<!-- dir_7e29431de6169dbb5f5ee7a990ed2b16&#45;&gt;dir_9a5c88f87170865d940dc95c76676edb -->
<g id="edge34" class="edge">
<title>dir_7e29431de6169dbb5f5ee7a990ed2b16&#45;&gt;dir_9a5c88f87170865d940dc95c76676edb</title>
<path fill="none" stroke="black" d="M200.64,-60.12C188.58,-70.13 173.47,-83.27 161,-96 82.62,-176.01 65,-217 65,-329 65,-403 65,-403 65,-403 65,-449.27 82.87,-463.1 119,-492 154.32,-520.25 205.43,-533.76 239.86,-540"/>
<polygon fill="black" stroke="black" points="239.53,-543.49 249.98,-541.71 240.7,-536.59 239.53,-543.49"/>
<g id="a_edge34&#45;headlabel"><a xlink:href="dir_000006_000005.html" target="_top" xlink:title="1">
<text text-anchor="middle" x="235.52" y="-543.19" font-family="Helvetica,sans-Serif" font-size="10.00">1</text>
</a>
</g>
</g>
<!-- dir_7e4d93e079ad601e0006c23ac3d37255 -->
<g id="node7" class="node">
<title>dir_7e4d93e079ad601e0006c23ac3d37255</title>
<g id="a_node7"><a xlink:href="dir_7e4d93e079ad601e0006c23ac3d37255.html" target="_top" xlink:title="Menus">
<polygon fill="white" stroke="red" points="288,-708 234,-708 234,-672 288,-672 288,-708"/>
<text text-anchor="middle" x="261" y="-687.5" font-family="Helvetica,sans-Serif" font-size="10.00">Menus</text>
</a>
</g>
</g>
<!-- dir_7e4d93e079ad601e0006c23ac3d37255&#45;&gt;dir_ff5a4dc0324506fcdfb8f8f681f9dae7 -->
<g id="edge53" class="edge">
<title>dir_7e4d93e079ad601e0006c23ac3d37255&#45;&gt;dir_ff5a4dc0324506fcdfb8f8f681f9dae7</title>
<path fill="none" stroke="black" d="M280.28,-671.7C289.92,-663.05 301.73,-652.45 312.23,-643.03"/>
<polygon fill="black" stroke="black" points="314.84,-645.39 319.94,-636.1 310.16,-640.18 314.84,-645.39"/>
<g id="a_edge53&#45;headlabel"><a xlink:href="dir_000007_000002.html" target="_top" xlink:title="8">
<text text-anchor="middle" x="314.06" y="-647.4" font-family="Helvetica,sans-Serif" font-size="10.00">8</text>
</a>
</g>
</g>
<!-- dir_7e4d93e079ad601e0006c23ac3d37255&#45;&gt;dir_ce91f970b513fb5ff406625265505b14 -->
<g id="edge51" class="edge">
<title>dir_7e4d93e079ad601e0006c23ac3d37255&#45;&gt;dir_ce91f970b513fb5ff406625265505b14</title>
<path fill="none" stroke="black" d="M233.64,-684.3C175.52,-672.57 45,-636.31 45,-547 45,-547 45,-547 45,-329 45,-253.24 46.19,-220.3 101,-168 139.64,-131.13 202.69,-119.77 242.73,-116.35"/>
<polygon fill="black" stroke="black" points="243.16,-119.83 252.88,-115.61 242.65,-112.85 243.16,-119.83"/>
<g id="a_edge51&#45;headlabel"><a xlink:href="dir_000007_000003.html" target="_top" xlink:title="8">
<text text-anchor="middle" x="239.78" y="-120.42" font-family="Helvetica,sans-Serif" font-size="10.00">8</text>
</a>
</g>
</g>
<!-- dir_7e4d93e079ad601e0006c23ac3d37255&#45;&gt;dir_60d51ee7315d72413f26211ac43a217e -->
<g id="edge44" class="edge">
<title>dir_7e4d93e079ad601e0006c23ac3d37255&#45;&gt;dir_60d51ee7315d72413f26211ac43a217e</title>
<path fill="none" stroke="black" d="M288.14,-683.1C315.74,-675.93 358.4,-661.52 387,-636 420.85,-605.79 437,-592.37 437,-547 437,-547 437,-547 437,-473 437,-432.55 426.67,-386.67 419.03,-358.28"/>
<polygon fill="black" stroke="black" points="422.31,-357 416.26,-348.3 415.56,-358.87 422.31,-357"/>
<g id="a_edge44&#45;headlabel"><a xlink:href="dir_000007_000004.html" target="_top" xlink:title="11">
<text text-anchor="middle" x="426" y="-357.21" font-family="Helvetica,sans-Serif" font-size="10.00">11</text>
</a>
</g>
</g>
<!-- dir_7e4d93e079ad601e0006c23ac3d37255&#45;&gt;dir_9a5c88f87170865d940dc95c76676edb -->
<g id="edge49" class="edge">
<title>dir_7e4d93e079ad601e0006c23ac3d37255&#45;&gt;dir_9a5c88f87170865d940dc95c76676edb</title>
<path fill="none" stroke="black" d="M267.19,-671.59C270.5,-661.36 274.25,-648.11 276,-636 278.97,-615.48 279.1,-592.03 278.55,-574.35"/>
<polygon fill="black" stroke="black" points="282.04,-574.02 278.14,-564.17 275.05,-574.3 282.04,-574.02"/>
<g id="a_edge49&#45;headlabel"><a xlink:href="dir_000007_000005.html" target="_top" xlink:title="9">
<text text-anchor="middle" x="285.02" y="-575" font-family="Helvetica,sans-Serif" font-size="10.00">9</text>
</a>
</g>
</g>
<!-- dir_7e4d93e079ad601e0006c23ac3d37255&#45;&gt;dir_7e29431de6169dbb5f5ee7a990ed2b16 -->
<g id="edge48" class="edge">
<title>dir_7e4d93e079ad601e0006c23ac3d37255&#45;&gt;dir_7e29431de6169dbb5f5ee7a990ed2b16</title>
<path fill="none" stroke="black" d="M233.84,-689.35C191.29,-688.44 108.66,-680.55 59,-636 27.48,-607.72 25,-589.34 25,-547 25,-547 25,-547 25,-185 25,-107.64 126.2,-68.23 183.53,-52.11"/>
<polygon fill="black" stroke="black" points="184.61,-55.44 193.35,-49.45 182.79,-48.68 184.61,-55.44"/>
<g id="a_edge48&#45;headlabel"><a xlink:href="dir_000007_000006.html" target="_top" xlink:title="1">
<text text-anchor="middle" x="181.89" y="-56.62" font-family="Helvetica,sans-Serif" font-size="10.00">1</text>
</a>
</g>
</g>
<!-- dir_7e4d93e079ad601e0006c23ac3d37255&#45;&gt;dir_4d7f8bf987ecca6ad9438e8e8937cf95 -->
<g id="edge43" class="edge">
<title>dir_7e4d93e079ad601e0006c23ac3d37255&#45;&gt;dir_4d7f8bf987ecca6ad9438e8e8937cf95</title>
<path fill="none" stroke="black" d="M233.96,-677.86C216.82,-669.21 196.04,-655.4 186,-636 180.51,-625.39 168.92,-653.64 188,-456 194.38,-389.88 192.58,-368.19 228,-312 234.53,-301.64 243.33,-291.6 251.77,-283.1"/>
<polygon fill="black" stroke="black" points="254.3,-285.53 259.04,-276.06 249.42,-280.51 254.3,-285.53"/>
<g id="a_edge43&#45;headlabel"><a xlink:href="dir_000007_000009.html" target="_top" xlink:title="21">
<text text-anchor="middle" x="253.69" y="-287.57" font-family="Helvetica,sans-Serif" font-size="10.00">21</text>
</a>
</g>
</g>
<!-- dir_d3731d706719beb3d6001df5dcff2644 -->
<g id="node9" class="node">
<title>dir_d3731d706719beb3d6001df5dcff2644</title>
<g id="a_node9"><a xlink:href="dir_d3731d706719beb3d6001df5dcff2644.html" target="_top" xlink:title="Patterns">
<polygon fill="white" stroke="red" points="354,-204 298,-204 298,-168 354,-168 354,-204"/>
<text text-anchor="middle" x="326" y="-183.5" font-family="Helvetica,sans-Serif" font-size="10.00">Patterns</text>
</a>
</g>
</g>
<!-- dir_7e4d93e079ad601e0006c23ac3d37255&#45;&gt;dir_d3731d706719beb3d6001df5dcff2644 -->
<g id="edge52" class="edge">
<title>dir_7e4d93e079ad601e0006c23ac3d37255&#45;&gt;dir_d3731d706719beb3d6001df5dcff2644</title>
<path fill="none" stroke="black" d="M288.26,-685.26C320.41,-679.61 373.92,-666.16 409,-636 443.08,-606.7 457,-591.94 457,-547 457,-547 457,-547 457,-329 457,-273.26 401.8,-230.05 363.06,-206.59"/>
<polygon fill="black" stroke="black" points="364.5,-203.38 354.1,-201.33 360.96,-209.41 364.5,-203.38"/>
<g id="a_edge52&#45;headlabel"><a xlink:href="dir_000007_000010.html" target="_top" xlink:title="11">
<text text-anchor="middle" x="369.04" y="-200.25" font-family="Helvetica,sans-Serif" font-size="10.00">11</text>
</a>
</g>
</g>
<!-- dir_7e4d93e079ad601e0006c23ac3d37255&#45;&gt;dir_77968f70279e8f688919023f4af8a16f -->
<g id="edge47" class="edge">
<title>dir_7e4d93e079ad601e0006c23ac3d37255&#45;&gt;dir_77968f70279e8f688919023f4af8a16f</title>
<path fill="none" stroke="black" d="M288.07,-685.6C350.06,-676.16 497,-643.59 497,-547 497,-547 497,-547 497,-185 497,-144.27 485.77,-98.19 477.54,-69.86"/>
<polygon fill="black" stroke="black" points="480.89,-68.85 474.67,-60.27 474.18,-70.86 480.89,-68.85"/>
<g id="a_edge47&#45;headlabel"><a xlink:href="dir_000007_000014.html" target="_top" xlink:title="4">
<text text-anchor="middle" x="484.64" y="-68.98" font-family="Helvetica,sans-Serif" font-size="10.00">4</text>
</a>
</g>
</g>
<!-- dir_7e4d93e079ad601e0006c23ac3d37255&#45;&gt;dir_cabf3d63e98569a74ecb960b83c4a15b -->
<g id="edge50" class="edge">
<title>dir_7e4d93e079ad601e0006c23ac3d37255&#45;&gt;dir_cabf3d63e98569a74ecb960b83c4a15b</title>
<path fill="none" stroke="black" d="M233.76,-673.54C220.65,-664.46 206.23,-651.69 199,-636 178.49,-591.48 199.99,-534.09 216.31,-501.24"/>
<polygon fill="black" stroke="black" points="219.46,-502.75 220.94,-492.26 213.24,-499.54 219.46,-502.75"/>
<g id="a_edge50&#45;headlabel"><a xlink:href="dir_000007_000015.html" target="_top" xlink:title="7">
<text text-anchor="middle" x="220.34" y="-504.75" font-family="Helvetica,sans-Serif" font-size="10.00">7</text>
</a>
</g>
</g>
<!-- dir_61b212e579fd471c490a116dc3a4c8cf -->
<g id="node12" class="node">
<title>dir_61b212e579fd471c490a116dc3a4c8cf</title>
<g id="a_node12"><a xlink:href="dir_61b212e579fd471c490a116dc3a4c8cf.html" target="_top" xlink:title="Storage">
<polygon fill="white" stroke="black" points="215,-204 161,-204 161,-168 215,-168 215,-204"/>
<text text-anchor="middle" x="188" y="-183.5" font-family="Helvetica,sans-Serif" font-size="10.00">Storage</text>
</a>
</g>
</g>
<!-- dir_7e4d93e079ad601e0006c23ac3d37255&#45;&gt;dir_61b212e579fd471c490a116dc3a4c8cf -->
<g id="edge45" class="edge">
<title>dir_7e4d93e079ad601e0006c23ac3d37255&#45;&gt;dir_61b212e579fd471c490a116dc3a4c8cf</title>
<path fill="none" stroke="black" d="M233.83,-678.84C189.13,-660.16 105,-615.85 105,-547 105,-547 105,-547 105,-329 105,-282.74 138.24,-238.16 162.65,-211.66"/>
<polygon fill="black" stroke="black" points="165.24,-214.02 169.58,-204.36 160.16,-209.2 165.24,-214.02"/>
<g id="a_edge45&#45;headlabel"><a xlink:href="dir_000007_000016.html" target="_top" xlink:title="1">
<text text-anchor="middle" x="164.82" y="-216.08" font-family="Helvetica,sans-Serif" font-size="10.00">1</text>
</a>
</g>
</g>
<!-- dir_7e4d93e079ad601e0006c23ac3d37255&#45;&gt;dir_63ce3ba067bdf35a8f7c780ac03d51a3 -->
<g id="edge46" class="edge">
<title>dir_7e4d93e079ad601e0006c23ac3d37255&#45;&gt;dir_63ce3ba067bdf35a8f7c780ac03d51a3</title>
<path fill="none" stroke="black" d="M288.13,-684.87C315.38,-679.12 355.98,-665.81 375,-636 416.26,-571.32 383.67,-475.43 363.67,-429.46"/>
<polygon fill="black" stroke="black" points="366.8,-427.87 359.51,-420.18 360.41,-430.74 366.8,-427.87"/>
<g id="a_edge46&#45;headlabel"><a xlink:href="dir_000007_000017.html" target="_top" xlink:title="17">
<text text-anchor="middle" x="370.86" y="-427.49" font-family="Helvetica,sans-Serif" font-size="10.00">17</text>
</a>
</g>
</g>
<!-- dir_1d79b4615f725ce6e1b38311d89b4d4f -->
<g id="node14" class="node">
<title>dir_1d79b4615f725ce6e1b38311d89b4d4f</title>
<g id="a_node14"><a xlink:href="dir_1d79b4615f725ce6e1b38311d89b4d4f.html" target="_top" xlink:title="Wireless">
<polygon fill="white" stroke="black" points="266.5,-636 207.5,-636 207.5,-600 266.5,-600 266.5,-636"/>
<text text-anchor="middle" x="237" y="-615.5" font-family="Helvetica,sans-Serif" font-size="10.00">Wireless</text>
</a>
</g>
</g>
<!-- dir_7e4d93e079ad601e0006c23ac3d37255&#45;&gt;dir_1d79b4615f725ce6e1b38311d89b4d4f -->
<g id="edge42" class="edge">
<title>dir_7e4d93e079ad601e0006c23ac3d37255&#45;&gt;dir_1d79b4615f725ce6e1b38311d89b4d4f</title>
<path fill="none" stroke="black" d="M255.07,-671.7C252.39,-663.9 249.17,-654.51 246.2,-645.83"/>
<polygon fill="black" stroke="black" points="249.42,-644.43 242.86,-636.1 242.8,-646.7 249.42,-644.43"/>
<g id="a_edge42&#45;headlabel"><a xlink:href="dir_000007_000018.html" target="_top" xlink:title="2">
<text text-anchor="middle" x="253.27" y="-644.41" font-family="Helvetica,sans-Serif" font-size="10.00">2</text>
</a>
</g>
</g>
<!-- dir_4d7f8bf987ecca6ad9438e8e8937cf95&#45;&gt;dir_ff5a4dc0324506fcdfb8f8f681f9dae7 -->
<g id="edge31" class="edge">
<title>dir_4d7f8bf987ecca6ad9438e8e8937cf95&#45;&gt;dir_ff5a4dc0324506fcdfb8f8f681f9dae7</title>
<path fill="none" stroke="black" d="M301.62,-276.37C327.95,-298.18 369.99,-338.31 387,-384 413.91,-456.3 375.99,-547.14 353.53,-590.97"/>
<polygon fill="black" stroke="black" points="350.42,-589.36 348.86,-599.84 356.62,-592.62 350.42,-589.36"/>
<g id="a_edge31&#45;headlabel"><a xlink:href="dir_000009_000002.html" target="_top" xlink:title="1">
<text text-anchor="middle" x="349.58" y="-582.36" font-family="Helvetica,sans-Serif" font-size="10.00">1</text>
</a>
</g>
</g>
<!-- dir_4d7f8bf987ecca6ad9438e8e8937cf95&#45;&gt;dir_ce91f970b513fb5ff406625265505b14 -->
<g id="edge29" class="edge">
<title>dir_4d7f8bf987ecca6ad9438e8e8937cf95&#45;&gt;dir_ce91f970b513fb5ff406625265505b14</title>
<path fill="none" stroke="black" d="M279.12,-239.87C279.29,-215.67 279.6,-171.21 279.81,-142.39"/>
<polygon fill="black" stroke="black" points="283.31,-142.21 279.88,-132.19 276.31,-142.16 283.31,-142.21"/>
<g id="a_edge29&#45;headlabel"><a xlink:href="dir_000009_000003.html" target="_top" xlink:title="4">
<text text-anchor="middle" x="286.12" y="-143.33" font-family="Helvetica,sans-Serif" font-size="10.00">4</text>
</a>
</g>
</g>
<!-- dir_4d7f8bf987ecca6ad9438e8e8937cf95&#45;&gt;dir_60d51ee7315d72413f26211ac43a217e -->
<g id="edge23" class="edge">
<title>dir_4d7f8bf987ecca6ad9438e8e8937cf95&#45;&gt;dir_60d51ee7315d72413f26211ac43a217e</title>
<path fill="none" stroke="black" d="M306.23,-270.69C326.38,-280.54 353.83,-294.89 375.64,-306.9"/>
<polygon fill="black" stroke="black" points="374.16,-310.08 384.61,-311.88 377.56,-303.96 374.16,-310.08"/>
<g id="a_edge23&#45;headlabel"><a xlink:href="dir_000009_000004.html" target="_top" xlink:title="5">
<text text-anchor="middle" x="369.64" y="-308.31" font-family="Helvetica,sans-Serif" font-size="10.00">5</text>
</a>
</g>
</g>
<!-- dir_4d7f8bf987ecca6ad9438e8e8937cf95&#45;&gt;dir_9a5c88f87170865d940dc95c76676edb -->
<g id="edge27" class="edge">
<title>dir_4d7f8bf987ecca6ad9438e8e8937cf95&#45;&gt;dir_9a5c88f87170865d940dc95c76676edb</title>
<path fill="none" stroke="black" d="M278.88,-276.31C278.54,-324.31 277.6,-459.44 277.19,-517.7"/>
<polygon fill="black" stroke="black" points="273.69,-517.94 277.12,-527.97 280.69,-517.99 273.69,-517.94"/>
<g id="a_edge27&#45;headlabel"><a xlink:href="dir_000009_000005.html" target="_top" xlink:title="2">
<text text-anchor="middle" x="270.88" y="-511.83" font-family="Helvetica,sans-Serif" font-size="10.00">2</text>
</a>
</g>
</g>
<!-- dir_4d7f8bf987ecca6ad9438e8e8937cf95&#45;&gt;dir_7e29431de6169dbb5f5ee7a990ed2b16 -->
<g id="edge26" class="edge">
<title>dir_4d7f8bf987ecca6ad9438e8e8937cf95&#45;&gt;dir_7e29431de6169dbb5f5ee7a990ed2b16</title>
<path fill="none" stroke="black" d="M273.96,-239.66C267.01,-215.56 254.16,-170.57 244,-132 238.56,-111.35 232.78,-87.9 228.51,-70.26"/>
<polygon fill="black" stroke="black" points="231.81,-69 226.06,-60.1 225,-70.64 231.81,-69"/>
<g id="a_edge26&#45;headlabel"><a xlink:href="dir_000009_000006.html" target="_top" xlink:title="1">
<text text-anchor="middle" x="235.41" y="-69.33" font-family="Helvetica,sans-Serif" font-size="10.00">1</text>
</a>
</g>
</g>
<!-- dir_4d7f8bf987ecca6ad9438e8e8937cf95&#45;&gt;dir_d3731d706719beb3d6001df5dcff2644 -->
<g id="edge30" class="edge">
<title>dir_4d7f8bf987ecca6ad9438e8e8937cf95&#45;&gt;dir_d3731d706719beb3d6001df5dcff2644</title>
<path fill="none" stroke="black" d="M290.62,-239.7C296.14,-231.47 302.85,-221.48 308.93,-212.42"/>
<polygon fill="black" stroke="black" points="311.85,-214.36 314.52,-204.1 306.04,-210.46 311.85,-214.36"/>
<g id="a_edge30&#45;headlabel"><a xlink:href="dir_000009_000010.html" target="_top" xlink:title="8">
<text text-anchor="middle" x="312.2" y="-216.42" font-family="Helvetica,sans-Serif" font-size="10.00">8</text>
</a>
</g>
</g>
<!-- dir_4d7f8bf987ecca6ad9438e8e8937cf95&#45;&gt;dir_cabf3d63e98569a74ecb960b83c4a15b -->
<g id="edge28" class="edge">
<title>dir_4d7f8bf987ecca6ad9438e8e8937cf95&#45;&gt;dir_cabf3d63e98569a74ecb960b83c4a15b</title>
<path fill="none" stroke="black" d="M276.87,-276.13C272.97,-305.77 263.79,-368.42 250,-420 247.7,-428.59 244.64,-437.77 241.64,-446.04"/>
<polygon fill="black" stroke="black" points="238.3,-444.97 238.08,-455.57 244.86,-447.43 238.3,-444.97"/>
<g id="a_edge28&#45;headlabel"><a xlink:href="dir_000009_000015.html" target="_top" xlink:title="3">
<text text-anchor="middle" x="236.9" y="-438.11" font-family="Helvetica,sans-Serif" font-size="10.00">3</text>
</a>
</g>
</g>
<!-- dir_4d7f8bf987ecca6ad9438e8e8937cf95&#45;&gt;dir_61b212e579fd471c490a116dc3a4c8cf -->
<g id="edge24" class="edge">
<title>dir_4d7f8bf987ecca6ad9438e8e8937cf95&#45;&gt;dir_61b212e579fd471c490a116dc3a4c8cf</title>
<path fill="none" stroke="black" d="M256.51,-239.7C245.04,-230.88 230.94,-220.03 218.52,-210.47"/>
<polygon fill="black" stroke="black" points="220.3,-207.43 210.24,-204.1 216.03,-212.98 220.3,-207.43"/>
<g id="a_edge24&#45;headlabel"><a xlink:href="dir_000009_000016.html" target="_top" xlink:title="1">
<text text-anchor="middle" x="224.88" y="-204.87" font-family="Helvetica,sans-Serif" font-size="10.00">1</text>
</a>
</g>
</g>
<!-- dir_4d7f8bf987ecca6ad9438e8e8937cf95&#45;&gt;dir_63ce3ba067bdf35a8f7c780ac03d51a3 -->
<g id="edge25" class="edge">
<title>dir_4d7f8bf987ecca6ad9438e8e8937cf95&#45;&gt;dir_63ce3ba067bdf35a8f7c780ac03d51a3</title>
<path fill="none" stroke="black" d="M287.72,-276.19C300.17,-300.74 323.15,-346.07 337.72,-374.81"/>
<polygon fill="black" stroke="black" points="334.67,-376.54 342.32,-383.87 340.91,-373.37 334.67,-376.54"/>
<g id="a_edge25&#45;headlabel"><a xlink:href="dir_000009_000017.html" target="_top" xlink:title="3">
<text text-anchor="middle" x="330.51" y="-372.11" font-family="Helvetica,sans-Serif" font-size="10.00">3</text>
</a>
</g>
</g>
<!-- dir_d3731d706719beb3d6001df5dcff2644&#45;&gt;dir_ce91f970b513fb5ff406625265505b14 -->
<g id="edge7" class="edge">
<title>dir_d3731d706719beb3d6001df5dcff2644&#45;&gt;dir_ce91f970b513fb5ff406625265505b14</title>
<path fill="none" stroke="black" d="M314.63,-167.7C309.28,-159.56 302.8,-149.69 296.89,-140.7"/>
<polygon fill="black" stroke="black" points="299.66,-138.54 291.24,-132.1 293.81,-142.38 299.66,-138.54"/>
<g id="a_edge7&#45;headlabel"><a xlink:href="dir_000010_000003.html" target="_top" xlink:title="6">
<text text-anchor="middle" x="304" y="-137.48" font-family="Helvetica,sans-Serif" font-size="10.00">6</text>
</a>
</g>
</g>
<!-- dir_d3731d706719beb3d6001df5dcff2644&#45;&gt;dir_60d51ee7315d72413f26211ac43a217e -->
<g id="edge1" class="edge">
<title>dir_d3731d706719beb3d6001df5dcff2644&#45;&gt;dir_60d51ee7315d72413f26211ac43a217e</title>
<path fill="none" stroke="black" d="M342.75,-204.17C351.85,-214.1 362.88,-227.14 371,-240 383.51,-259.82 394.19,-284.22 401.35,-302.45"/>
<polygon fill="black" stroke="black" points="398.12,-303.79 404.96,-311.88 404.65,-301.29 398.12,-303.79"/>
<g id="a_edge1&#45;headlabel"><a xlink:href="dir_000010_000004.html" target="_top" xlink:title="30">
<text text-anchor="middle" x="394.18" y="-298.95" font-family="Helvetica,sans-Serif" font-size="10.00">30</text>
</a>
</g>
</g>
<!-- dir_d3731d706719beb3d6001df5dcff2644&#45;&gt;dir_9a5c88f87170865d940dc95c76676edb -->
<g id="edge5" class="edge">
<title>dir_d3731d706719beb3d6001df5dcff2644&#45;&gt;dir_9a5c88f87170865d940dc95c76676edb</title>
<path fill="none" stroke="black" d="M323.98,-204.07C321.84,-222 318.31,-251 315,-276 303.29,-364.46 288.13,-469.09 281.02,-517.67"/>
<polygon fill="black" stroke="black" points="277.54,-517.3 279.55,-527.71 284.46,-518.32 277.54,-517.3"/>
<g id="a_edge5&#45;headlabel"><a xlink:href="dir_000010_000005.html" target="_top" xlink:title="17">
<text text-anchor="middle" x="275.25" y="-510.84" font-family="Helvetica,sans-Serif" font-size="10.00">17</text>
</a>
</g>
</g>
<!-- dir_d3731d706719beb3d6001df5dcff2644&#45;&gt;dir_7e29431de6169dbb5f5ee7a990ed2b16 -->
<g id="edge4" class="edge">
<title>dir_d3731d706719beb3d6001df5dcff2644&#45;&gt;dir_7e29431de6169dbb5f5ee7a990ed2b16</title>
<path fill="none" stroke="black" d="M328.44,-167.72C330.22,-148.56 330.24,-117.52 316,-96 303.03,-76.4 280.19,-63.28 260.28,-55"/>
<polygon fill="black" stroke="black" points="261.38,-51.67 250.79,-51.31 258.84,-58.2 261.38,-51.67"/>
<g id="a_edge4&#45;headlabel"><a xlink:href="dir_000010_000006.html" target="_top" xlink:title="2">
<text text-anchor="middle" x="265.76" y="-47.83" font-family="Helvetica,sans-Serif" font-size="10.00">2</text>
</a>
</g>
</g>
<!-- dir_d3731d706719beb3d6001df5dcff2644&#45;&gt;dir_77968f70279e8f688919023f4af8a16f -->
<g id="edge3" class="edge">
<title>dir_d3731d706719beb3d6001df5dcff2644&#45;&gt;dir_77968f70279e8f688919023f4af8a16f</title>
<path fill="none" stroke="black" d="M343.25,-167.87C368.48,-142.82 415.57,-96.05 444.42,-67.41"/>
<polygon fill="black" stroke="black" points="447.06,-69.72 451.69,-60.19 442.13,-64.75 447.06,-69.72"/>
<g id="a_edge3&#45;headlabel"><a xlink:href="dir_000010_000014.html" target="_top" xlink:title="2">
<text text-anchor="middle" x="446.51" y="-71.77" font-family="Helvetica,sans-Serif" font-size="10.00">2</text>
</a>
</g>
</g>
<!-- dir_d3731d706719beb3d6001df5dcff2644&#45;&gt;dir_cabf3d63e98569a74ecb960b83c4a15b -->
<g id="edge6" class="edge">
<title>dir_d3731d706719beb3d6001df5dcff2644&#45;&gt;dir_cabf3d63e98569a74ecb960b83c4a15b</title>
<path fill="none" stroke="black" d="M297.73,-197.04C278.73,-205.4 255.04,-219.31 243,-240 232.9,-257.35 231.25,-387.53 231.02,-445.4"/>
<polygon fill="black" stroke="black" points="227.51,-445.63 230.99,-455.64 234.51,-445.65 227.51,-445.63"/>
<g id="a_edge6&#45;headlabel"><a xlink:href="dir_000010_000015.html" target="_top" xlink:title="16">
<text text-anchor="middle" x="224.69" y="-439.53" font-family="Helvetica,sans-Serif" font-size="10.00">16</text>
</a>
</g>
</g>
<!-- dir_d3731d706719beb3d6001df5dcff2644&#45;&gt;dir_63ce3ba067bdf35a8f7c780ac03d51a3 -->
<g id="edge2" class="edge">
<title>dir_d3731d706719beb3d6001df5dcff2644&#45;&gt;dir_63ce3ba067bdf35a8f7c780ac03d51a3</title>
<path fill="none" stroke="black" d="M328.01,-204.23C332.35,-241.32 342.59,-328.98 347.81,-373.71"/>
<polygon fill="black" stroke="black" points="344.36,-374.32 349,-383.85 351.31,-373.51 344.36,-374.32"/>
<g id="a_edge2&#45;headlabel"><a xlink:href="dir_000010_000017.html" target="_top" xlink:title="50">
<text text-anchor="middle" x="341.12" y="-368.58" font-family="Helvetica,sans-Serif" font-size="10.00">50</text>
</a>
</g>
</g>
<!-- dir_cabf3d63e98569a74ecb960b83c4a15b&#45;&gt;dir_9a5c88f87170865d940dc95c76676edb -->
<g id="edge15" class="edge">
<title>dir_cabf3d63e98569a74ecb960b83c4a15b&#45;&gt;dir_9a5c88f87170865d940dc95c76676edb</title>
<path fill="none" stroke="black" d="M248.14,-492.1C254.25,-500.13 260.87,-509.87 266.34,-518.8"/>
<polygon fill="black" stroke="black" points="263.47,-520.83 271.54,-527.7 269.52,-517.3 263.47,-520.83"/>
<g id="a_edge15&#45;headlabel"><a xlink:href="dir_000015_000005.html" target="_top" xlink:title="4">
<text text-anchor="middle" x="259.21" y="-516.66" font-family="Helvetica,sans-Serif" font-size="10.00">4</text>
</a>
</g>
</g>
<!-- dir_cabf3d63e98569a74ecb960b83c4a15b&#45;&gt;dir_7e29431de6169dbb5f5ee7a990ed2b16 -->
<g id="edge14" class="edge">
<title>dir_cabf3d63e98569a74ecb960b83c4a15b&#45;&gt;dir_7e29431de6169dbb5f5ee7a990ed2b16</title>
<path fill="none" stroke="black" d="M220.28,-455.8C192.71,-409.36 123.41,-277.56 152,-168 161.73,-130.7 185.33,-92.76 202.44,-68.61"/>
<polygon fill="black" stroke="black" points="205.38,-70.52 208.42,-60.37 199.72,-66.41 205.38,-70.52"/>
<g id="a_edge14&#45;headlabel"><a xlink:href="dir_000015_000006.html" target="_top" xlink:title="3">
<text text-anchor="middle" x="205.57" y="-72.6" font-family="Helvetica,sans-Serif" font-size="10.00">3</text>
</a>
</g>
</g>
<!-- dir_cabf3d63e98569a74ecb960b83c4a15b&#45;&gt;dir_63ce3ba067bdf35a8f7c780ac03d51a3 -->
<g id="edge13" class="edge">
<title>dir_cabf3d63e98569a74ecb960b83c4a15b&#45;&gt;dir_63ce3ba067bdf35a8f7c780ac03d51a3</title>
<path fill="none" stroke="black" d="M258.23,-457.12C275.11,-447.27 296.97,-434.52 315.24,-423.86"/>
<polygon fill="black" stroke="black" points="317,-426.88 323.88,-418.82 313.48,-420.84 317,-426.88"/>
<g id="a_edge13&#45;headlabel"><a xlink:href="dir_000015_000017.html" target="_top" xlink:title="2">
<text text-anchor="middle" x="315.33" y="-428.65" font-family="Helvetica,sans-Serif" font-size="10.00">2</text>
</a>
</g>
</g>
<!-- dir_61b212e579fd471c490a116dc3a4c8cf&#45;&gt;dir_60d51ee7315d72413f26211ac43a217e -->
<g id="edge16" class="edge">
<title>dir_61b212e579fd471c490a116dc3a4c8cf&#45;&gt;dir_60d51ee7315d72413f26211ac43a217e</title>
<path fill="none" stroke="black" d="M215.12,-195.21C241.8,-203.98 283.05,-219.45 315,-240 343.06,-258.04 370.5,-284.65 388.81,-304.07"/>
<polygon fill="black" stroke="black" points="386.47,-306.7 395.83,-311.65 391.6,-301.94 386.47,-306.7"/>
<g id="a_edge16&#45;headlabel"><a xlink:href="dir_000016_000004.html" target="_top" xlink:title="1">
<text text-anchor="middle" x="381.94" y="-303.49" font-family="Helvetica,sans-Serif" font-size="10.00">1</text>
</a>
</g>
</g>
<!-- dir_61b212e579fd471c490a116dc3a4c8cf&#45;&gt;dir_9a5c88f87170865d940dc95c76676edb -->
<g id="edge18" class="edge">
<title>dir_61b212e579fd471c490a116dc3a4c8cf&#45;&gt;dir_9a5c88f87170865d940dc95c76676edb</title>
<path fill="none" stroke="black" d="M178.47,-204.04C157.94,-243.06 113.47,-341.56 140,-420 156.57,-469 206.29,-505.72 241.03,-526.28"/>
<polygon fill="black" stroke="black" points="239.54,-529.46 249.96,-531.41 243.03,-523.39 239.54,-529.46"/>
<g id="a_edge18&#45;headlabel"><a xlink:href="dir_000016_000005.html" target="_top" xlink:title="1">
<text text-anchor="middle" x="235.01" y="-527.63" font-family="Helvetica,sans-Serif" font-size="10.00">1</text>
</a>
</g>
</g>
<!-- dir_61b212e579fd471c490a116dc3a4c8cf&#45;&gt;dir_7e29431de6169dbb5f5ee7a990ed2b16 -->
<g id="edge17" class="edge">
<title>dir_61b212e579fd471c490a116dc3a4c8cf&#45;&gt;dir_7e29431de6169dbb5f5ee7a990ed2b16</title>
<path fill="none" stroke="black" d="M192.1,-167.87C197.92,-143.56 208.63,-98.82 215.53,-70.01"/>
<polygon fill="black" stroke="black" points="218.96,-70.73 217.88,-60.19 212.15,-69.1 218.96,-70.73"/>
<g id="a_edge17&#45;headlabel"><a xlink:href="dir_000016_000006.html" target="_top" xlink:title="1">
<text text-anchor="middle" x="220.88" y="-72.39" font-family="Helvetica,sans-Serif" font-size="10.00">1</text>
</a>
</g>
</g>
<!-- dir_61b212e579fd471c490a116dc3a4c8cf&#45;&gt;dir_cabf3d63e98569a74ecb960b83c4a15b -->
<g id="edge19" class="edge">
<title>dir_61b212e579fd471c490a116dc3a4c8cf&#45;&gt;dir_cabf3d63e98569a74ecb960b83c4a15b</title>
<path fill="none" stroke="black" d="M188.33,-204.03C189.1,-233.53 191.67,-295.97 200,-348 205.47,-382.19 215.67,-420.76 222.87,-445.9"/>
<polygon fill="black" stroke="black" points="219.6,-447.18 225.75,-455.8 226.32,-445.22 219.6,-447.18"/>
<g id="a_edge19&#45;headlabel"><a xlink:href="dir_000016_000015.html" target="_top" xlink:title="1">
<text text-anchor="middle" x="215.87" y="-442.02" font-family="Helvetica,sans-Serif" font-size="10.00">1</text>
</a>
</g>
</g>
<!-- dir_63ce3ba067bdf35a8f7c780ac03d51a3&#45;&gt;dir_60d51ee7315d72413f26211ac43a217e -->
<g id="edge20" class="edge">
<title>dir_63ce3ba067bdf35a8f7c780ac03d51a3&#45;&gt;dir_60d51ee7315d72413f26211ac43a217e</title>
<path fill="none" stroke="black" d="M359.92,-383.7C366.31,-375.22 375,-364.86 383.45,-355.58"/>
<polygon fill="black" stroke="black" points="386.17,-357.8 390.44,-348.1 381.06,-353.02 386.17,-357.8"/>
<g id="a_edge20&#45;headlabel"><a xlink:href="dir_000017_000004.html" target="_top" xlink:title="3">
<text text-anchor="middle" x="385.79" y="-359.86" font-family="Helvetica,sans-Serif" font-size="10.00">3</text>
</a>
</g>
</g>
<!-- dir_63ce3ba067bdf35a8f7c780ac03d51a3&#45;&gt;dir_9a5c88f87170865d940dc95c76676edb -->
<g id="edge22" class="edge">
<title>dir_63ce3ba067bdf35a8f7c780ac03d51a3&#45;&gt;dir_9a5c88f87170865d940dc95c76676edb</title>
<path fill="none" stroke="black" d="M346.63,-420.19C336.38,-444.85 312.86,-490.46 295.8,-519.19"/>
<polygon fill="black" stroke="black" points="292.72,-517.51 290.51,-527.87 298.7,-521.15 292.72,-517.51"/>
<g id="a_edge22&#45;headlabel"><a xlink:href="dir_000017_000005.html" target="_top" xlink:title="2">
<text text-anchor="middle" x="292.17" y="-510.46" font-family="Helvetica,sans-Serif" font-size="10.00">2</text>
</a>
</g>
</g>
<!-- dir_63ce3ba067bdf35a8f7c780ac03d51a3&#45;&gt;dir_7e29431de6169dbb5f5ee7a990ed2b16 -->
<g id="edge21" class="edge">
<title>dir_63ce3ba067bdf35a8f7c780ac03d51a3&#45;&gt;dir_7e29431de6169dbb5f5ee7a990ed2b16</title>
<path fill="none" stroke="black" d="M378.38,-394.2C401.21,-386.93 432.29,-372.92 447,-348 455.13,-334.22 450.59,-327.59 447,-312 422.32,-204.77 409.24,-167.97 326,-96 306.59,-79.22 280.94,-66.07 259.97,-57.07"/>
<polygon fill="black" stroke="black" points="261.28,-53.83 250.71,-53.23 258.6,-60.29 261.28,-53.83"/>
<g id="a_edge21&#45;headlabel"><a xlink:href="dir_000017_000006.html" target="_top" xlink:title="2">
<text text-anchor="middle" x="265.69" y="-50.08" font-family="Helvetica,sans-Serif" font-size="10.00">2</text>
</a>
</g>
</g>
<!-- dir_1d79b4615f725ce6e1b38311d89b4d4f&#45;&gt;dir_60d51ee7315d72413f26211ac43a217e -->
<g id="edge9" class="edge">
<title>dir_1d79b4615f725ce6e1b38311d89b4d4f&#45;&gt;dir_60d51ee7315d72413f26211ac43a217e</title>
<path fill="none" stroke="black" d="M266.76,-603.55C284.68,-594.34 307.05,-580.78 323,-564 373.3,-511.09 380.34,-489.71 402,-420 408.25,-399.89 410.4,-376.11 411.05,-358.19"/>
<polygon fill="black" stroke="black" points="414.55,-358.21 411.27,-348.13 407.55,-358.05 414.55,-358.21"/>
<g id="a_edge9&#45;headlabel"><a xlink:href="dir_000018_000004.html" target="_top" xlink:title="2">
<text text-anchor="middle" x="417.31" y="-359.37" font-family="Helvetica,sans-Serif" font-size="10.00">2</text>
</a>
</g>
</g>
<!-- dir_1d79b4615f725ce6e1b38311d89b4d4f&#45;&gt;dir_9a5c88f87170865d940dc95c76676edb -->
<g id="edge11" class="edge">
<title>dir_1d79b4615f725ce6e1b38311d89b4d4f&#45;&gt;dir_9a5c88f87170865d940dc95c76676edb</title>
<path fill="none" stroke="black" d="M246.89,-599.7C251.49,-591.64 257.06,-581.89 262.15,-572.98"/>
<polygon fill="black" stroke="black" points="265.3,-574.52 267.23,-564.1 259.23,-571.05 265.3,-574.52"/>
<g id="a_edge11&#45;headlabel"><a xlink:href="dir_000018_000005.html" target="_top" xlink:title="4">
<text text-anchor="middle" x="265.99" y="-576.55" font-family="Helvetica,sans-Serif" font-size="10.00">4</text>
</a>
</g>
</g>
<!-- dir_1d79b4615f725ce6e1b38311d89b4d4f&#45;&gt;dir_4d7f8bf987ecca6ad9438e8e8937cf95 -->
<g id="edge8" class="edge">
<title>dir_1d79b4615f725ce6e1b38311d89b4d4f&#45;&gt;dir_4d7f8bf987ecca6ad9438e8e8937cf95</title>
<path fill="none" stroke="black" d="M227.13,-599.75C211.58,-570.44 184.19,-508.93 195,-456 208.19,-391.46 243.35,-321.9 263.76,-285.18"/>
<polygon fill="black" stroke="black" points="266.99,-286.58 268.85,-276.15 260.89,-283.14 266.99,-286.58"/>
<g id="a_edge8&#45;headlabel"><a xlink:href="dir_000018_000009.html" target="_top" xlink:title="4">
<text text-anchor="middle" x="267.7" y="-288.6" font-family="Helvetica,sans-Serif" font-size="10.00">4</text>
</a>
</g>
</g>
<!-- dir_1d79b4615f725ce6e1b38311d89b4d4f&#45;&gt;dir_cabf3d63e98569a74ecb960b83c4a15b -->
<g id="edge12" class="edge">
<title>dir_1d79b4615f725ce6e1b38311d89b4d4f&#45;&gt;dir_cabf3d63e98569a74ecb960b83c4a15b</title>
<path fill="none" stroke="black" d="M236.28,-599.87C235.25,-575.67 233.38,-531.21 232.16,-502.39"/>
<polygon fill="black" stroke="black" points="235.65,-502.03 231.73,-492.19 228.65,-502.33 235.65,-502.03"/>
<g id="a_edge12&#45;headlabel"><a xlink:href="dir_000018_000015.html" target="_top" xlink:title="10">
<text text-anchor="middle" x="238.63" y="-503" font-family="Helvetica,sans-Serif" font-size="10.00">10</text>
</a>
</g>
</g>
<!-- dir_1d79b4615f725ce6e1b38311d89b4d4f&#45;&gt;dir_63ce3ba067bdf35a8f7c780ac03d51a3 -->
<g id="edge10" class="edge">
<title>dir_1d79b4615f725ce6e1b38311d89b4d4f&#45;&gt;dir_63ce3ba067bdf35a8f7c780ac03d51a3</title>
<path fill="none" stroke="black" d="M266.7,-603.06C282.72,-594.07 301.52,-580.9 313,-564 320.5,-552.97 337.12,-473.18 345.68,-430.22"/>
<polygon fill="black" stroke="black" points="349.16,-430.65 347.67,-420.16 342.3,-429.29 349.16,-430.65"/>
<g id="a_edge10&#45;headlabel"><a xlink:href="dir_000018_000017.html" target="_top" xlink:title="4">
<text text-anchor="middle" x="351.25" y="-432.22" font-family="Helvetica,sans-Serif" font-size="10.00">4</text>
</a>
</g>
</g>
</g>
</svg>
