<?xml version="1.0" encoding="UTF-8" standalone="no"?>
<!DOCTYPE svg PUBLIC "-//W3C//DTD SVG 1.1//EN"
 "http://www.w3.org/Graphics/SVG/1.1/DTD/svg11.dtd">
<!-- Generated by graphviz version 2.43.0 (0)
 -->
<!-- Title: VortexEngine/src/Menus/MenuList/EditorConnection.cpp Pages: 1 -->
<!--zoomable 431 -->
<svg id="main" version="1.1" xmlns="http://www.w3.org/2000/svg" xmlns:xlink="http://www.w3.org/1999/xlink" xml:space="preserve" onload="init(evt)">
<style type="text/css"><![CDATA[
.edge:hover path { stroke: red; }
.edge:hover polygon { stroke: red; fill: red; }
]]></style>
<script type="text/javascript"><![CDATA[
var edges = document.getElementsByTagName('g');
if (edges && edges.length) {
  for (var i=0;i<edges.length;i++) {
    if (edges[i].id.substr(0,4)=='edge') {
      edges[i].setAttribute('class','edge');
    }
  }
}
]]></script>
        <defs>
                <circle id="rim" cx="0" cy="0" r="7"/>
                <circle id="rim2" cx="0" cy="0" r="3.5"/>
                <g id="zoomPlus">
                        <use xlink:href="#rim" fill="#404040">
                                <set attributeName="fill" to="#808080" begin="zoomplus.mouseover" end="zoomplus.mouseout"/>
                        </use>
                        <path d="M-4,0h8M0,-4v8" fill="none" stroke="white" stroke-width="1.5" pointer-events="none"/>
                </g>
                <g id="zoomMin">
                        <use xlink:href="#rim" fill="#404040">
                                <set attributeName="fill" to="#808080" begin="zoomminus.mouseover" end="zoomminus.mouseout"/>
                        </use>
                        <path d="M-4,0h8" fill="none" stroke="white" stroke-width="1.5" pointer-events="none"/>
                </g>
                <g id="dirArrow">
                        <path fill="none" stroke="white" stroke-width="1.5" d="M0,-3.0v7 M-2.5,-0.5L0,-3.0L2.5,-0.5"/>
                </g>
               <g id="resetDef">
                       <use xlink:href="#rim2" fill="#404040">
                               <set attributeName="fill" to="#808080" begin="reset.mouseover" end="reset.mouseout"/>
                       </use>
               </g>
        </defs>

<script type="text/javascript">
var viewWidth = 1282;
var viewHeight = 431;
var sectionId = 'dynsection-0';
</script>
<script xlink:href="svgpan.js"/>
<svg id="graph" class="graph">
<g id="viewport">
<title>VortexEngine/src/Menus/MenuList/EditorConnection.cpp</title>
<!-- Node1 -->
<g id="node1" class="node">
<title>Node1</title>
<g id="a_node1"><a xlink:title=" ">
<polygon fill="#bfbfbf" stroke="black" points="687.16,-392.5 687.16,-422.5 857.16,-422.5 857.16,-392.5 687.16,-392.5"/>
<text text-anchor="start" x="695.16" y="-410.5" font-family="Helvetica,sans-Serif" font-size="10.00">VortexEngine/src/Menus</text>
<text text-anchor="middle" x="772.16" y="-399.5" font-family="Helvetica,sans-Serif" font-size="10.00">/MenuList/EditorConnection.cpp</text>
</a>
</g>
</g>
<!-- Node2 -->
<g id="node2" class="node">
<title>Node2</title>
<g id="a_node2"><a xlink:href="EditorConnection_8h.html" target="_top" xlink:title=" ">
<polygon fill="none" stroke="black" points="403.66,-336.5 403.66,-355.5 512.66,-355.5 512.66,-336.5 403.66,-336.5"/>
<text text-anchor="middle" x="458.16" y="-343.5" font-family="Helvetica,sans-Serif" font-size="10.00">EditorConnection.h</text>
</a>
</g>
</g>
<!-- Node1&#45;&gt;Node2 -->
<g id="edge1" class="edge">
<title>Node1&#45;&gt;Node2</title>
<path fill="none" stroke="midnightblue" d="M698.14,-392.47C641.37,-381.72 564.28,-367.11 512.96,-357.38"/>
<polygon fill="midnightblue" stroke="midnightblue" points="513.53,-353.93 503.05,-355.51 512.22,-360.81 513.53,-353.93"/>
</g>
<!-- Node10 -->
<g id="node10" class="node">
<title>Node10</title>
<g id="a_node10"><a xlink:href="Mode_8h.html" target="_top" xlink:title=" ">
<polygon fill="none" stroke="black" points="98.66,-224.5 98.66,-243.5 195.66,-243.5 195.66,-224.5 98.66,-224.5"/>
<text text-anchor="middle" x="147.16" y="-231.5" font-family="Helvetica,sans-Serif" font-size="10.00">../Modes/Mode.h</text>
</a>
</g>
</g>
<!-- Node1&#45;&gt;Node10 -->
<g id="edge55" class="edge">
<title>Node1&#45;&gt;Node10</title>
<path fill="none" stroke="midnightblue" d="M687.06,-403.32C539.67,-397.17 248.82,-381.9 210.16,-356 174.36,-332.02 157.62,-281.01 150.94,-253.5"/>
<polygon fill="midnightblue" stroke="midnightblue" points="154.32,-252.6 148.72,-243.6 147.49,-254.13 154.32,-252.6"/>
</g>
<!-- Node13 -->
<g id="node13" class="node">
<title>Node13</title>
<g id="a_node13"><a xlink:href="ByteStream_8h.html" target="_top" xlink:title=" ">
<polygon fill="none" stroke="black" points="494.16,-224.5 494.16,-243.5 626.16,-243.5 626.16,-224.5 494.16,-224.5"/>
<text text-anchor="middle" x="560.16" y="-231.5" font-family="Helvetica,sans-Serif" font-size="10.00">../../Serial/ByteStream.h</text>
</a>
</g>
</g>
<!-- Node1&#45;&gt;Node13 -->
<g id="edge33" class="edge">
<title>Node1&#45;&gt;Node13</title>
<path fill="none" stroke="midnightblue" d="M754.81,-392.47C715.38,-360.57 619.3,-282.85 578.73,-250.02"/>
<polygon fill="midnightblue" stroke="midnightblue" points="580.72,-247.13 570.74,-243.56 576.31,-252.57 580.72,-247.13"/>
</g>
<!-- Node14 -->
<g id="node14" class="node">
<title>Node14</title>
<g id="a_node14"><a xlink:href="Log_8h.html" target="_top" xlink:title=" ">
<polygon fill="none" stroke="black" points="200.16,-168.5 200.16,-187.5 272.16,-187.5 272.16,-168.5 200.16,-168.5"/>
<text text-anchor="middle" x="236.16" y="-175.5" font-family="Helvetica,sans-Serif" font-size="10.00">../Log/Log.h</text>
</a>
</g>
</g>
<!-- Node1&#45;&gt;Node14 -->
<g id="edge57" class="edge">
<title>Node1&#45;&gt;Node14</title>
<path fill="none" stroke="midnightblue" d="M687.01,-403.19C586.61,-397.99 426.83,-385.3 375.16,-356 308.34,-318.11 262.17,-234.03 244.35,-197.05"/>
<polygon fill="midnightblue" stroke="midnightblue" points="247.31,-195.14 239.9,-187.56 240.97,-198.11 247.31,-195.14"/>
</g>
<!-- Node16 -->
<g id="node16" class="node">
<title>Node16</title>
<g id="a_node16"><a xlink:href="PatternArgs_8h.html" target="_top" xlink:title=" ">
<polygon fill="none" stroke="black" points="1020.66,-280.5 1020.66,-299.5 1163.66,-299.5 1163.66,-280.5 1020.66,-280.5"/>
<text text-anchor="middle" x="1092.16" y="-287.5" font-family="Helvetica,sans-Serif" font-size="10.00">../../Patterns/PatternArgs.h</text>
</a>
</g>
</g>
<!-- Node1&#45;&gt;Node16 -->
<g id="edge31" class="edge">
<title>Node1&#45;&gt;Node16</title>
<path fill="none" stroke="midnightblue" d="M857.33,-402.16C934.88,-396.48 1041.91,-383.76 1073.16,-356 1086.19,-344.43 1090.5,-324.47 1091.82,-309.71"/>
<polygon fill="midnightblue" stroke="midnightblue" points="1095.32,-309.83 1092.34,-299.66 1088.33,-309.47 1095.32,-309.83"/>
</g>
<!-- Node17 -->
<g id="node17" class="node">
<title>Node17</title>
<g id="a_node17"><a xlink:href="Serial_8h.html" target="_top" xlink:title=" ">
<polygon fill="none" stroke="black" points="1099.16,-224.5 1099.16,-243.5 1201.16,-243.5 1201.16,-224.5 1099.16,-224.5"/>
<text text-anchor="middle" x="1150.16" y="-231.5" font-family="Helvetica,sans-Serif" font-size="10.00">../../Serial/Serial.h</text>
</a>
</g>
</g>
<!-- Node1&#45;&gt;Node17 -->
<g id="edge34" class="edge">
<title>Node1&#45;&gt;Node17</title>
<path fill="none" stroke="midnightblue" d="M857.4,-403.56C923.75,-398.82 1017.03,-386.7 1093.16,-356 1133.41,-339.77 1153.12,-338.5 1173.16,-300 1181.24,-284.47 1172.58,-265.47 1163.67,-252.03"/>
<polygon fill="midnightblue" stroke="midnightblue" points="1166.36,-249.78 1157.67,-243.73 1160.69,-253.89 1166.36,-249.78"/>
</g>
<!-- Node18 -->
<g id="node18" class="node">
<title>Node18</title>
<g id="a_node18"><a xlink:href="Storage_8h.html" target="_top" xlink:title=" ">
<polygon fill="none" stroke="black" points="942.16,-336.5 942.16,-355.5 1064.16,-355.5 1064.16,-336.5 942.16,-336.5"/>
<text text-anchor="middle" x="1003.16" y="-343.5" font-family="Helvetica,sans-Serif" font-size="10.00">../../Storage/Storage.h</text>
</a>
</g>
</g>
<!-- Node1&#45;&gt;Node18 -->
<g id="edge36" class="edge">
<title>Node1&#45;&gt;Node18</title>
<path fill="none" stroke="midnightblue" d="M826.61,-392.47C867.33,-381.99 922.26,-367.84 959.98,-358.12"/>
<polygon fill="midnightblue" stroke="midnightblue" points="961.32,-361.39 970.13,-355.51 959.58,-354.61 961.32,-361.39"/>
</g>
<!-- Node19 -->
<g id="node19" class="node">
<title>Node19</title>
<g id="a_node19"><a xlink:href="TimeControl_8h.html" target="_top" xlink:title=" ">
<polygon fill="none" stroke="black" points="290.66,-168.5 290.66,-187.5 421.66,-187.5 421.66,-168.5 290.66,-168.5"/>
<text text-anchor="middle" x="356.16" y="-175.5" font-family="Helvetica,sans-Serif" font-size="10.00">../../Time/TimeControl.h</text>
</a>
</g>
</g>
<!-- Node1&#45;&gt;Node19 -->
<g id="edge38" class="edge">
<title>Node1&#45;&gt;Node19</title>
<path fill="none" stroke="midnightblue" d="M686.84,-406.16C588.62,-403.93 435.49,-394.2 394.16,-356 349.38,-314.61 350.65,-234.3 353.89,-197.83"/>
<polygon fill="midnightblue" stroke="midnightblue" points="357.39,-197.95 354.95,-187.64 350.43,-197.22 357.39,-197.95"/>
</g>
<!-- Node20 -->
<g id="node20" class="node">
<title>Node20</title>
<g id="a_node20"><a xlink:href="Colorset_8h.html" target="_top" xlink:title=" ">
<polygon fill="none" stroke="black" points="668.16,-168.5 668.16,-187.5 786.16,-187.5 786.16,-168.5 668.16,-168.5"/>
<text text-anchor="middle" x="727.16" y="-175.5" font-family="Helvetica,sans-Serif" font-size="10.00">../../Colors/Colorset.h</text>
</a>
</g>
</g>
<!-- Node1&#45;&gt;Node20 -->
<g id="edge42" class="edge">
<title>Node1&#45;&gt;Node20</title>
<path fill="none" stroke="midnightblue" d="M768.96,-392.4C764.38,-372.05 755.76,-333.21 749.16,-300 741.97,-263.83 734.46,-221.38 730.34,-197.59"/>
<polygon fill="midnightblue" stroke="midnightblue" points="733.76,-196.79 728.61,-187.53 726.86,-197.98 733.76,-196.79"/>
</g>
<!-- Node21 -->
<g id="node21" class="node">
<title>Node21</title>
<g id="a_node21"><a xlink:href="Modes_8h.html" target="_top" xlink:title=" ">
<polygon fill="none" stroke="black" points="758.66,-280.5 758.66,-299.5 869.66,-299.5 869.66,-280.5 758.66,-280.5"/>
<text text-anchor="middle" x="814.16" y="-287.5" font-family="Helvetica,sans-Serif" font-size="10.00">../../Modes/Modes.h</text>
</a>
</g>
</g>
<!-- Node1&#45;&gt;Node21 -->
<g id="edge45" class="edge">
<title>Node1&#45;&gt;Node21</title>
<path fill="none" stroke="midnightblue" d="M777.31,-392.34C784.91,-371.43 799.14,-332.31 807.51,-309.27"/>
<polygon fill="midnightblue" stroke="midnightblue" points="810.88,-310.26 811.01,-299.67 804.3,-307.87 810.88,-310.26"/>
</g>
<!-- Node22 -->
<g id="node22" class="node">
<title>Node22</title>
<g id="a_node22"><a xlink:href="Leds_8h.html" target="_top" xlink:title=" ">
<polygon fill="none" stroke="black" points="842.66,-168.5 842.66,-187.5 925.66,-187.5 925.66,-168.5 842.66,-168.5"/>
<text text-anchor="middle" x="884.16" y="-175.5" font-family="Helvetica,sans-Serif" font-size="10.00">../Leds/Leds.h</text>
</a>
</g>
</g>
<!-- Node1&#45;&gt;Node22 -->
<g id="edge56" class="edge">
<title>Node1&#45;&gt;Node22</title>
<path fill="none" stroke="midnightblue" d="M793.94,-392.25C819.37,-374.22 860.23,-340.56 878.16,-300 892.99,-266.46 890.4,-222.47 887.24,-197.83"/>
<polygon fill="midnightblue" stroke="midnightblue" points="890.67,-197.08 885.76,-187.69 883.74,-198.09 890.67,-197.08"/>
</g>
<!-- Node23 -->
<g id="node23" class="node">
<title>Node23</title>
<g id="a_node23"><a xlink:title=" ">
<polygon fill="none" stroke="#bfbfbf" points="1220.66,-336.5 1220.66,-355.5 1273.66,-355.5 1273.66,-336.5 1220.66,-336.5"/>
<text text-anchor="middle" x="1247.16" y="-343.5" font-family="Helvetica,sans-Serif" font-size="10.00">string.h</text>
</a>
</g>
</g>
<!-- Node1&#45;&gt;Node23 -->
<g id="edge58" class="edge">
<title>Node1&#45;&gt;Node23</title>
<path fill="none" stroke="midnightblue" d="M857.34,-399.13C945.11,-390.95 1085.71,-376.18 1206.16,-356 1207.45,-355.78 1208.77,-355.55 1210.09,-355.31"/>
<polygon fill="midnightblue" stroke="midnightblue" points="1211.19,-358.66 1220.33,-353.29 1209.84,-351.79 1211.19,-358.66"/>
</g>
<!-- Node3 -->
<g id="node3" class="node">
<title>Node3</title>
<g id="a_node3"><a xlink:href="Menu_8h.html" target="_top" xlink:title=" ">
<polygon fill="none" stroke="black" points="397.16,-280.5 397.16,-299.5 459.16,-299.5 459.16,-280.5 397.16,-280.5"/>
<text text-anchor="middle" x="428.16" y="-287.5" font-family="Helvetica,sans-Serif" font-size="10.00">../Menu.h</text>
</a>
</g>
</g>
<!-- Node2&#45;&gt;Node3 -->
<g id="edge2" class="edge">
<title>Node2&#45;&gt;Node3</title>
<path fill="none" stroke="midnightblue" d="M453.2,-336.08C449.05,-328.61 443.01,-317.72 437.89,-308.52"/>
<polygon fill="midnightblue" stroke="midnightblue" points="440.94,-306.79 433.02,-299.75 434.82,-310.19 440.94,-306.79"/>
</g>
<!-- Node2&#45;&gt;Node10 -->
<g id="edge30" class="edge">
<title>Node2&#45;&gt;Node10</title>
<path fill="none" stroke="midnightblue" d="M434.01,-336.46C379.01,-317.01 244.29,-269.36 181.02,-246.98"/>
<polygon fill="midnightblue" stroke="midnightblue" points="182.1,-243.65 171.5,-243.61 179.76,-250.24 182.1,-243.65"/>
</g>
<!-- Node2&#45;&gt;Node13 -->
<g id="edge22" class="edge">
<title>Node2&#45;&gt;Node13</title>
<path fill="none" stroke="midnightblue" d="M466.16,-336.37C483.22,-317.97 523.37,-274.67 545.27,-251.05"/>
<polygon fill="midnightblue" stroke="midnightblue" points="547.96,-253.3 552.19,-243.59 542.83,-248.54 547.96,-253.3"/>
</g>
<!-- Node4 -->
<g id="node4" class="node">
<title>Node4</title>
<g id="a_node4"><a xlink:title=" ">
<polygon fill="none" stroke="#bfbfbf" points="652.66,-56.5 652.66,-75.5 717.66,-75.5 717.66,-56.5 652.66,-56.5"/>
<text text-anchor="middle" x="685.16" y="-63.5" font-family="Helvetica,sans-Serif" font-size="10.00">inttypes.h</text>
</a>
</g>
</g>
<!-- Node3&#45;&gt;Node4 -->
<g id="edge3" class="edge">
<title>Node3&#45;&gt;Node4</title>
<path fill="none" stroke="midnightblue" d="M430.74,-280.19C434.97,-266.88 444.42,-241.34 459.16,-224 517.06,-155.85 611.12,-103.42 657.5,-80.16"/>
<polygon fill="midnightblue" stroke="midnightblue" points="659.23,-83.21 666.64,-75.65 656.13,-76.94 659.23,-83.21"/>
</g>
<!-- Node5 -->
<g id="node5" class="node">
<title>Node5</title>
<g id="a_node5"><a xlink:href="ColorTypes_8h.html" target="_top" xlink:title=" ">
<polygon fill="none" stroke="black" points="706.16,-112.5 706.16,-131.5 828.16,-131.5 828.16,-112.5 706.16,-112.5"/>
<text text-anchor="middle" x="767.16" y="-119.5" font-family="Helvetica,sans-Serif" font-size="10.00">../Colors/ColorTypes.h</text>
</a>
</g>
</g>
<!-- Node3&#45;&gt;Node5 -->
<g id="edge4" class="edge">
<title>Node3&#45;&gt;Node5</title>
<path fill="none" stroke="midnightblue" d="M433.73,-280.15C442.87,-266.32 462.32,-239.53 485.16,-224 556.29,-175.61 653.25,-147.58 712.95,-133.81"/>
<polygon fill="midnightblue" stroke="midnightblue" points="713.94,-137.17 722.93,-131.56 712.4,-130.35 713.94,-137.17"/>
</g>
<!-- Node8 -->
<g id="node8" class="node">
<title>Node8</title>
<g id="a_node8"><a xlink:href="LedTypes_8h.html" target="_top" xlink:title=" ">
<polygon fill="none" stroke="black" points="50.66,-112.5 50.66,-131.5 155.66,-131.5 155.66,-112.5 50.66,-112.5"/>
<text text-anchor="middle" x="103.16" y="-119.5" font-family="Helvetica,sans-Serif" font-size="10.00">../Leds/LedTypes.h</text>
</a>
</g>
</g>
<!-- Node3&#45;&gt;Node8 -->
<g id="edge9" class="edge">
<title>Node3&#45;&gt;Node8</title>
<path fill="none" stroke="midnightblue" d="M403.03,-280.49C358.75,-265.02 264.54,-229.97 191.16,-188 165.47,-173.31 138.44,-152.41 121.23,-138.32"/>
<polygon fill="midnightblue" stroke="midnightblue" points="123.11,-135.33 113.18,-131.63 118.64,-140.71 123.11,-135.33"/>
</g>
<!-- Node3&#45;&gt;Node10 -->
<g id="edge13" class="edge">
<title>Node3&#45;&gt;Node10</title>
<path fill="none" stroke="midnightblue" d="M397.01,-283.01C349.97,-273.97 260.11,-256.71 201.96,-245.53"/>
<polygon fill="midnightblue" stroke="midnightblue" points="202.32,-242.04 191.84,-243.59 201,-248.91 202.32,-242.04"/>
</g>
<!-- Node5&#45;&gt;Node4 -->
<g id="edge5" class="edge">
<title>Node5&#45;&gt;Node4</title>
<path fill="none" stroke="midnightblue" d="M753.98,-112.32C741.31,-103.98 721.93,-91.21 706.95,-81.35"/>
<polygon fill="midnightblue" stroke="midnightblue" points="708.58,-78.23 698.3,-75.65 704.73,-84.08 708.58,-78.23"/>
</g>
<!-- Node6 -->
<g id="node6" class="node">
<title>Node6</title>
<g id="a_node6"><a xlink:href="VortexConfig_8h.html" target="_top" xlink:title=" ">
<polygon fill="none" stroke="black" points="215.66,-56.5 215.66,-75.5 312.66,-75.5 312.66,-56.5 215.66,-56.5"/>
<text text-anchor="middle" x="264.16" y="-63.5" font-family="Helvetica,sans-Serif" font-size="10.00">../VortexConfig.h</text>
</a>
</g>
</g>
<!-- Node5&#45;&gt;Node6 -->
<g id="edge6" class="edge">
<title>Node5&#45;&gt;Node6</title>
<path fill="none" stroke="midnightblue" d="M705.98,-114.43C608.48,-103.96 419.05,-83.63 323.02,-73.32"/>
<polygon fill="midnightblue" stroke="midnightblue" points="323.22,-69.82 312.9,-72.23 322.47,-76.78 323.22,-69.82"/>
</g>
<!-- Node7 -->
<g id="node7" class="node">
<title>Node7</title>
<g id="a_node7"><a xlink:href="ColorConstants_8h.html" target="_top" xlink:title=" ">
<polygon fill="none" stroke="black" points="462.16,-0.5 462.16,-19.5 596.16,-19.5 596.16,-0.5 462.16,-0.5"/>
<text text-anchor="middle" x="529.16" y="-7.5" font-family="Helvetica,sans-Serif" font-size="10.00">Colors/ColorConstants.h</text>
</a>
</g>
</g>
<!-- Node5&#45;&gt;Node7 -->
<g id="edge8" class="edge">
<title>Node5&#45;&gt;Node7</title>
<path fill="none" stroke="midnightblue" d="M764.18,-112.3C758.88,-98.16 746.41,-70.34 726.16,-56 691.47,-31.43 645.48,-20.04 606.67,-14.85"/>
<polygon fill="midnightblue" stroke="midnightblue" points="606.8,-11.34 596.45,-13.6 605.95,-18.29 606.8,-11.34"/>
</g>
<!-- Node6&#45;&gt;Node7 -->
<g id="edge7" class="edge">
<title>Node6&#45;&gt;Node7</title>
<path fill="none" stroke="midnightblue" d="M306.15,-56.44C352.57,-46.98 427.39,-31.74 477.4,-21.55"/>
<polygon fill="midnightblue" stroke="midnightblue" points="478.27,-24.94 487.36,-19.52 476.87,-18.08 478.27,-24.94"/>
</g>
<!-- Node8&#45;&gt;Node4 -->
<g id="edge10" class="edge">
<title>Node8&#45;&gt;Node4</title>
<path fill="none" stroke="midnightblue" d="M155.83,-116.11C269.86,-105.53 537.69,-80.68 642.26,-70.98"/>
<polygon fill="midnightblue" stroke="midnightblue" points="642.81,-74.44 652.45,-70.04 642.17,-67.47 642.81,-74.44"/>
</g>
<!-- Node8&#45;&gt;Node6 -->
<g id="edge12" class="edge">
<title>Node8&#45;&gt;Node6</title>
<path fill="none" stroke="midnightblue" d="M128.67,-112.44C155.75,-103.36 198.75,-88.94 229.03,-78.78"/>
<polygon fill="midnightblue" stroke="midnightblue" points="230.4,-82.01 238.77,-75.52 228.17,-75.38 230.4,-82.01"/>
</g>
<!-- Node9 -->
<g id="node9" class="node">
<title>Node9</title>
<g id="a_node9"><a xlink:title=" ">
<polygon fill="none" stroke="#bfbfbf" points="16.16,-56.5 16.16,-75.5 72.16,-75.5 72.16,-56.5 16.16,-56.5"/>
<text text-anchor="middle" x="44.16" y="-63.5" font-family="Helvetica,sans-Serif" font-size="10.00">stdarg.h</text>
</a>
</g>
</g>
<!-- Node8&#45;&gt;Node9 -->
<g id="edge11" class="edge">
<title>Node8&#45;&gt;Node9</title>
<path fill="none" stroke="midnightblue" d="M93.68,-112.32C84.96,-104.34 71.82,-92.31 61.26,-82.65"/>
<polygon fill="midnightblue" stroke="midnightblue" points="63.55,-80 53.81,-75.83 58.82,-85.17 63.55,-80"/>
</g>
<!-- Node10&#45;&gt;Node6 -->
<g id="edge17" class="edge">
<title>Node10&#45;&gt;Node6</title>
<path fill="none" stroke="midnightblue" d="M98.63,-231.85C65.91,-228.23 24.88,-217.54 3.16,-188 -2.11,-180.84 1.05,-176.64 3.16,-168 9.79,-140.77 9.72,-128.79 32.16,-112 58.98,-91.93 145.99,-79.16 205.48,-72.53"/>
<polygon fill="midnightblue" stroke="midnightblue" points="205.95,-76 215.51,-71.45 205.2,-69.04 205.95,-76"/>
</g>
<!-- Node10&#45;&gt;Node8 -->
<g id="edge14" class="edge">
<title>Node10&#45;&gt;Node8</title>
<path fill="none" stroke="midnightblue" d="M143.71,-224.37C136.54,-206.46 119.93,-164.92 110.34,-140.95"/>
<polygon fill="midnightblue" stroke="midnightblue" points="113.56,-139.58 106.6,-131.59 107.06,-142.18 113.56,-139.58"/>
</g>
<!-- Node11 -->
<g id="node11" class="node">
<title>Node11</title>
<g id="a_node11"><a xlink:href="Patterns_8h.html" target="_top" xlink:title=" ">
<polygon fill="none" stroke="black" points="418.66,-112.5 418.66,-131.5 535.66,-131.5 535.66,-112.5 418.66,-112.5"/>
<text text-anchor="middle" x="477.16" y="-119.5" font-family="Helvetica,sans-Serif" font-size="10.00">../Patterns/Patterns.h</text>
</a>
</g>
</g>
<!-- Node10&#45;&gt;Node11 -->
<g id="edge15" class="edge">
<title>Node10&#45;&gt;Node11</title>
<path fill="none" stroke="midnightblue" d="M195.92,-229.75C266.22,-224.31 391.8,-211.58 430.16,-188 448.09,-176.98 461.23,-156.32 468.98,-141.24"/>
<polygon fill="midnightblue" stroke="midnightblue" points="472.31,-142.41 473.49,-131.88 466,-139.37 472.31,-142.41"/>
</g>
<!-- Node12 -->
<g id="node12" class="node">
<title>Node12</title>
<g id="a_node12"><a xlink:href="DefaultModes_8h.html" target="_top" xlink:title=" ">
<polygon fill="none" stroke="black" points="12.16,-168.5 12.16,-187.5 106.16,-187.5 106.16,-168.5 12.16,-168.5"/>
<text text-anchor="middle" x="59.16" y="-175.5" font-family="Helvetica,sans-Serif" font-size="10.00">DefaultModes.h</text>
</a>
</g>
</g>
<!-- Node10&#45;&gt;Node12 -->
<g id="edge18" class="edge">
<title>Node10&#45;&gt;Node12</title>
<path fill="none" stroke="midnightblue" d="M133.02,-224.32C119.29,-215.9 98.22,-202.97 82.09,-193.07"/>
<polygon fill="midnightblue" stroke="midnightblue" points="83.62,-189.9 73.26,-187.65 79.95,-195.87 83.62,-189.9"/>
</g>
<!-- Node11&#45;&gt;Node4 -->
<g id="edge16" class="edge">
<title>Node11&#45;&gt;Node4</title>
<path fill="none" stroke="midnightblue" d="M510.12,-112.44C545.95,-103.14 603.32,-88.25 642.55,-78.06"/>
<polygon fill="midnightblue" stroke="midnightblue" points="643.55,-81.42 652.35,-75.52 641.8,-74.64 643.55,-81.42"/>
</g>
<!-- Node12&#45;&gt;Node6 -->
<g id="edge21" class="edge">
<title>Node12&#45;&gt;Node6</title>
<path fill="none" stroke="midnightblue" d="M52.45,-168.42C42.78,-154.96 27.51,-128.67 41.16,-112 61.54,-87.09 146.34,-75.66 205.28,-70.64"/>
<polygon fill="midnightblue" stroke="midnightblue" points="205.92,-74.1 215.6,-69.81 205.35,-67.13 205.92,-74.1"/>
</g>
<!-- Node12&#45;&gt;Node8 -->
<g id="edge20" class="edge">
<title>Node12&#45;&gt;Node8</title>
<path fill="none" stroke="midnightblue" d="M66.42,-168.08C72.7,-160.38 81.95,-149.03 89.59,-139.65"/>
<polygon fill="midnightblue" stroke="midnightblue" points="92.42,-141.71 96.03,-131.75 87,-137.29 92.42,-141.71"/>
</g>
<!-- Node12&#45;&gt;Node11 -->
<g id="edge19" class="edge">
<title>Node12&#45;&gt;Node11</title>
<path fill="none" stroke="midnightblue" d="M106.3,-170.91C180.05,-161.38 323.11,-142.9 408.38,-131.89"/>
<polygon fill="midnightblue" stroke="midnightblue" points="409.01,-135.33 418.48,-130.58 408.12,-128.39 409.01,-135.33"/>
</g>
<!-- Node13&#45;&gt;Node4 -->
<g id="edge23" class="edge">
<title>Node13&#45;&gt;Node4</title>
<path fill="none" stroke="midnightblue" d="M566.88,-224.08C586.9,-197.49 646.35,-118.54 672.54,-83.76"/>
<polygon fill="midnightblue" stroke="midnightblue" points="675.49,-85.66 678.71,-75.57 669.9,-81.45 675.49,-85.66"/>
</g>
<!-- Node13&#45;&gt;Node14 -->
<g id="edge24" class="edge">
<title>Node13&#45;&gt;Node14</title>
<path fill="none" stroke="midnightblue" d="M503.41,-224.48C449.17,-216.2 364.83,-202.95 282.51,-188.19"/>
<polygon fill="midnightblue" stroke="midnightblue" points="282.95,-184.72 272.49,-186.39 281.71,-191.6 282.95,-184.72"/>
</g>
<!-- Node14&#45;&gt;Node6 -->
<g id="edge26" class="edge">
<title>Node14&#45;&gt;Node6</title>
<path fill="none" stroke="midnightblue" d="M227.69,-168.49C216.33,-155.98 198.6,-131.94 208.16,-112 214.41,-98.95 226.49,-88.49 237.84,-80.95"/>
<polygon fill="midnightblue" stroke="midnightblue" points="239.97,-83.75 246.66,-75.54 236.3,-77.79 239.97,-83.75"/>
</g>
<!-- Node14&#45;&gt;Node9 -->
<g id="edge25" class="edge">
<title>Node14&#45;&gt;Node9</title>
<path fill="none" stroke="midnightblue" d="M199.95,-173.93C149.12,-168.78 60.63,-156.47 41.16,-132 30.85,-119.04 33.33,-99.6 37.34,-85.36"/>
<polygon fill="midnightblue" stroke="midnightblue" points="40.72,-86.27 40.51,-75.67 34.07,-84.09 40.72,-86.27"/>
</g>
<!-- Node15 -->
<g id="node15" class="node">
<title>Node15</title>
<g id="a_node15"><a xlink:href="ErrorBlinker_8h.html" target="_top" xlink:title=" ">
<polygon fill="none" stroke="black" points="250.66,-112.5 250.66,-131.5 361.66,-131.5 361.66,-112.5 250.66,-112.5"/>
<text text-anchor="middle" x="306.16" y="-119.5" font-family="Helvetica,sans-Serif" font-size="10.00">../Log/ErrorBlinker.h</text>
</a>
</g>
</g>
<!-- Node14&#45;&gt;Node15 -->
<g id="edge27" class="edge">
<title>Node14&#45;&gt;Node15</title>
<path fill="none" stroke="midnightblue" d="M247.41,-168.32C257.96,-160.18 273.96,-147.84 286.6,-138.09"/>
<polygon fill="midnightblue" stroke="midnightblue" points="288.93,-140.71 294.71,-131.83 284.65,-135.17 288.93,-140.71"/>
</g>
<!-- Node15&#45;&gt;Node4 -->
<g id="edge28" class="edge">
<title>Node15&#45;&gt;Node4</title>
<path fill="none" stroke="midnightblue" d="M361.67,-113.09C437.95,-102.22 573.5,-82.91 642.4,-73.09"/>
<polygon fill="midnightblue" stroke="midnightblue" points="643.06,-76.53 652.47,-71.66 642.08,-69.6 643.06,-76.53"/>
</g>
<!-- Node15&#45;&gt;Node6 -->
<g id="edge29" class="edge">
<title>Node15&#45;&gt;Node6</title>
<path fill="none" stroke="midnightblue" d="M299.22,-112.08C293.23,-104.38 284.41,-93.03 277.11,-83.65"/>
<polygon fill="midnightblue" stroke="midnightblue" points="279.87,-81.5 270.96,-75.75 274.34,-85.79 279.87,-81.5"/>
</g>
<!-- Node16&#45;&gt;Node4 -->
<g id="edge32" class="edge">
<title>Node16&#45;&gt;Node4</title>
<path fill="none" stroke="midnightblue" d="M1090.82,-280.16C1085.84,-250.69 1065.56,-155.21 1006.16,-112 962.64,-80.34 804.98,-70.87 728.02,-68.1"/>
<polygon fill="midnightblue" stroke="midnightblue" points="727.83,-64.6 717.72,-67.76 727.59,-71.59 727.83,-64.6"/>
</g>
<!-- Node17&#45;&gt;Node4 -->
<g id="edge35" class="edge">
<title>Node17&#45;&gt;Node4</title>
<path fill="none" stroke="midnightblue" d="M1147.72,-224.41C1140.73,-201.61 1118.36,-139.41 1075.16,-112 1018.28,-75.91 816.71,-68.72 727.81,-67.32"/>
<polygon fill="midnightblue" stroke="midnightblue" points="727.84,-63.82 717.8,-67.18 727.75,-70.82 727.84,-63.82"/>
</g>
<!-- Node18&#45;&gt;Node4 -->
<g id="edge37" class="edge">
<title>Node18&#45;&gt;Node4</title>
<path fill="none" stroke="midnightblue" d="M1001.72,-336.47C998.74,-318.02 992.16,-273 992.16,-235 992.16,-235 992.16,-235 992.16,-177 992.16,-130.49 952.36,-131.55 910.16,-112 850.68,-84.45 774.7,-73.72 728.01,-69.58"/>
<polygon fill="midnightblue" stroke="midnightblue" points="728.19,-66.08 717.94,-68.74 727.61,-73.06 728.19,-66.08"/>
</g>
<!-- Node19&#45;&gt;Node4 -->
<g id="edge39" class="edge">
<title>Node19&#45;&gt;Node4</title>
<path fill="none" stroke="midnightblue" d="M360.62,-168.12C368.36,-153.73 385.71,-125.56 409.16,-112 448.06,-89.51 574.99,-76.02 642.32,-70.27"/>
<polygon fill="midnightblue" stroke="midnightblue" points="642.92,-73.73 652.59,-69.41 642.34,-66.75 642.92,-73.73"/>
</g>
<!-- Node19&#45;&gt;Node6 -->
<g id="edge40" class="edge">
<title>Node19&#45;&gt;Node6</title>
<path fill="none" stroke="midnightblue" d="M298.38,-168.45C276.72,-162.12 254.21,-151.12 241.16,-132 231.08,-117.24 240.58,-97.59 250.25,-83.77"/>
<polygon fill="midnightblue" stroke="midnightblue" points="253.16,-85.72 256.43,-75.64 247.59,-81.49 253.16,-85.72"/>
</g>
<!-- Node19&#45;&gt;Node8 -->
<g id="edge41" class="edge">
<title>Node19&#45;&gt;Node8</title>
<path fill="none" stroke="midnightblue" d="M316.07,-168.44C271.84,-159 200.62,-143.8 152.87,-133.61"/>
<polygon fill="midnightblue" stroke="midnightblue" points="153.57,-130.18 143.06,-131.52 152.11,-137.03 153.57,-130.18"/>
</g>
<!-- Node20&#45;&gt;Node5 -->
<g id="edge43" class="edge">
<title>Node20&#45;&gt;Node5</title>
<path fill="none" stroke="midnightblue" d="M733.76,-168.08C739.41,-160.46 747.7,-149.26 754.61,-139.94"/>
<polygon fill="midnightblue" stroke="midnightblue" points="757.54,-141.87 760.68,-131.75 751.91,-137.7 757.54,-141.87"/>
</g>
<!-- Node20&#45;&gt;Node6 -->
<g id="edge44" class="edge">
<title>Node20&#45;&gt;Node6</title>
<path fill="none" stroke="midnightblue" d="M711.16,-168.3C684.43,-154.16 628.65,-126.35 578.16,-112 491.35,-87.33 387.01,-75.81 323.15,-70.71"/>
<polygon fill="midnightblue" stroke="midnightblue" points="323.12,-67.19 312.88,-69.91 322.58,-74.17 323.12,-67.19"/>
</g>
<!-- Node21&#45;&gt;Node4 -->
<g id="edge54" class="edge">
<title>Node21&#45;&gt;Node4</title>
<path fill="none" stroke="midnightblue" d="M835.67,-280.49C876.61,-262.9 959.51,-219.83 934.16,-168 897.25,-92.53 789.05,-73.26 728.13,-68.47"/>
<polygon fill="midnightblue" stroke="midnightblue" points="728.27,-64.97 718.05,-67.77 727.79,-71.95 728.27,-64.97"/>
</g>
<!-- Node21&#45;&gt;Node5 -->
<g id="edge47" class="edge">
<title>Node21&#45;&gt;Node5</title>
<path fill="none" stroke="midnightblue" d="M813.98,-280.49C813.31,-260.32 810.14,-208.26 795.16,-168 791.48,-158.1 785.46,-148.03 779.96,-139.93"/>
<polygon fill="midnightblue" stroke="midnightblue" points="782.76,-137.84 774.1,-131.74 777.07,-141.91 782.76,-137.84"/>
</g>
<!-- Node21&#45;&gt;Node6 -->
<g id="edge53" class="edge">
<title>Node21&#45;&gt;Node6</title>
<path fill="none" stroke="midnightblue" d="M800.87,-280.38C774.05,-262.98 711.52,-222.36 659.16,-188 646.35,-179.6 558.43,-117.56 544.16,-112 471.24,-83.58 380.92,-73.1 322.93,-69.24"/>
<polygon fill="midnightblue" stroke="midnightblue" points="323.04,-65.74 312.84,-68.62 322.6,-72.73 323.04,-65.74"/>
</g>
<!-- Node21&#45;&gt;Node11 -->
<g id="edge48" class="edge">
<title>Node21&#45;&gt;Node11</title>
<path fill="none" stroke="midnightblue" d="M785.16,-280.47C757.38,-272.06 714.46,-258.39 678.16,-244 658.56,-236.23 654.42,-232.56 635.16,-224 597.66,-207.35 584.83,-209.93 550.16,-188 528.1,-174.05 506.2,-153.39 492.22,-139.13"/>
<polygon fill="midnightblue" stroke="midnightblue" points="494.42,-136.37 484.97,-131.57 489.37,-141.21 494.42,-136.37"/>
</g>
<!-- Node21&#45;&gt;Node13 -->
<g id="edge46" class="edge">
<title>Node21&#45;&gt;Node13</title>
<path fill="none" stroke="midnightblue" d="M773.91,-280.44C729.51,-271 658.01,-255.8 610.07,-245.61"/>
<polygon fill="midnightblue" stroke="midnightblue" points="610.73,-242.17 600.22,-243.52 609.27,-249.02 610.73,-242.17"/>
</g>
<!-- Node21&#45;&gt;Node22 -->
<g id="edge49" class="edge">
<title>Node21&#45;&gt;Node22</title>
<path fill="none" stroke="midnightblue" d="M819.65,-280.37C831.15,-262.3 857.96,-220.18 873.14,-196.31"/>
<polygon fill="midnightblue" stroke="midnightblue" points="876.28,-197.91 878.69,-187.59 870.37,-194.15 876.28,-197.91"/>
</g>
<!-- Node22&#45;&gt;Node4 -->
<g id="edge50" class="edge">
<title>Node22&#45;&gt;Node4</title>
<path fill="none" stroke="midnightblue" d="M880.28,-168.44C873.53,-154.5 858.3,-126.97 837.16,-112 804.63,-88.96 760.26,-77.59 727.86,-72.05"/>
<polygon fill="midnightblue" stroke="midnightblue" points="728.21,-68.57 717.79,-70.46 727.11,-75.48 728.21,-68.57"/>
</g>
<!-- Node22&#45;&gt;Node5 -->
<g id="edge51" class="edge">
<title>Node22&#45;&gt;Node5</title>
<path fill="none" stroke="midnightblue" d="M865.62,-168.44C846.54,-159.64 816.58,-145.81 794.72,-135.72"/>
<polygon fill="midnightblue" stroke="midnightblue" points="796.16,-132.53 785.61,-131.52 793.22,-138.88 796.16,-132.53"/>
</g>
<!-- Node22&#45;&gt;Node8 -->
<g id="edge52" class="edge">
<title>Node22&#45;&gt;Node8</title>
<path fill="none" stroke="midnightblue" d="M842.53,-172.48C827.6,-170.94 810.64,-169.28 795.16,-168 549.26,-147.58 487.38,-148.03 241.16,-132 216.64,-130.4 189.66,-128.65 166.12,-127.11"/>
<polygon fill="midnightblue" stroke="midnightblue" points="166.12,-123.6 155.91,-126.44 165.66,-130.59 166.12,-123.6"/>
</g>
</g>
</svg>
        <g id="navigator" transform="translate(0 0)" fill="#404254">
                <rect fill="#f2f5e9" fill-opacity="0.5" stroke="#606060" stroke-width=".5" x="0" y="0" width="60" height="60"/>
                <use id="zoomplus" xlink:href="#zoomPlus" x="17" y="9" onmousedown="handleZoom(evt,'in')"/>
                <use id="zoomminus" xlink:href="#zoomMin" x="42" y="9" onmousedown="handleZoom(evt,'out')"/>
                <use id="reset" xlink:href="#resetDef" x="30" y="36" onmousedown="handleReset()"/>
                <g id="arrowUp" xlink:href="#dirArrow" transform="translate(30 24)" onmousedown="handlePan(0,-1)">
                  <use xlink:href="#rim" fill="#404040">
                        <set attributeName="fill" to="#808080" begin="arrowUp.mouseover" end="arrowUp.mouseout"/>
                  </use>
                  <path fill="none" stroke="white" stroke-width="1.5" d="M0,-3.0v7 M-2.5,-0.5L0,-3.0L2.5,-0.5"/>
                </g>
                <g id="arrowRight" xlink:href="#dirArrow" transform="rotate(90) translate(36 -43)" onmousedown="handlePan(1,0)">
                  <use xlink:href="#rim" fill="#404040">
                        <set attributeName="fill" to="#808080" begin="arrowRight.mouseover" end="arrowRight.mouseout"/>
                  </use>
                  <path fill="none" stroke="white" stroke-width="1.5" d="M0,-3.0v7 M-2.5,-0.5L0,-3.0L2.5,-0.5"/>
                </g>
                <g id="arrowDown" xlink:href="#dirArrow" transform="rotate(180) translate(-30 -48)" onmousedown="handlePan(0,1)">
                  <use xlink:href="#rim" fill="#404040">
                        <set attributeName="fill" to="#808080" begin="arrowDown.mouseover" end="arrowDown.mouseout"/>
                  </use>
                  <path fill="none" stroke="white" stroke-width="1.5" d="M0,-3.0v7 M-2.5,-0.5L0,-3.0L2.5,-0.5"/>
                </g>
                <g id="arrowLeft" xlink:href="#dirArrow" transform="rotate(270) translate(-36 17)" onmousedown="handlePan(-1,0)">
                  <use xlink:href="#rim" fill="#404040">
                        <set attributeName="fill" to="#808080" begin="arrowLeft.mouseover" end="arrowLeft.mouseout"/>
                  </use>
                  <path fill="none" stroke="white" stroke-width="1.5" d="M0,-3.0v7 M-2.5,-0.5L0,-3.0L2.5,-0.5"/>
                </g>
        </g>
        <svg viewBox="0 0 15 15" width="100%" height="30px" preserveAspectRatio="xMaxYMin meet">
         <g id="arrow_out" transform="scale(0.3 0.3)">
          <a xlink:href="EditorConnection_8cpp__incl_org.svg" target="_base">
           <rect id="button" ry="5" rx="5" y="6" x="6" height="38" width="38"
                fill="#f2f5e9" fill-opacity="0.5" stroke="#606060" stroke-width="1.0"/>
           <path id="arrow"
             d="M 11.500037,31.436501 C 11.940474,20.09759 22.043105,11.32322 32.158766,21.979434 L 37.068811,17.246167 C 37.068811,17.246167 37.088388,32 37.088388,32 L 22.160133,31.978069 C 22.160133,31.978069 26.997745,27.140456 26.997745,27.140456 C 18.528582,18.264221 13.291696,25.230495 11.500037,31.436501 z"
             style="fill:#404040;"/>
          </a>
         </g>
        </svg>
</svg>
