<?xml version="1.0" encoding="UTF-8" standalone="no"?>
<!DOCTYPE svg PUBLIC "-//W3C//DTD SVG 1.1//EN"
 "http://www.w3.org/Graphics/SVG/1.1/DTD/svg11.dtd">
<!-- Generated by graphviz version 2.43.0 (0)
 -->
<!-- Title: VortexEngine/src/Menus/MenuList/FactoryReset.cpp Pages: 1 -->
<!--zoomable 431 -->
<svg id="main" version="1.1" xmlns="http://www.w3.org/2000/svg" xmlns:xlink="http://www.w3.org/1999/xlink" xml:space="preserve" onload="init(evt)">
<style type="text/css"><![CDATA[
.edge:hover path { stroke: red; }
.edge:hover polygon { stroke: red; fill: red; }
]]></style>
<script type="text/javascript"><![CDATA[
var edges = document.getElementsByTagName('g');
if (edges && edges.length) {
  for (var i=0;i<edges.length;i++) {
    if (edges[i].id.substr(0,4)=='edge') {
      edges[i].setAttribute('class','edge');
    }
  }
}
]]></script>
        <defs>
                <circle id="rim" cx="0" cy="0" r="7"/>
                <circle id="rim2" cx="0" cy="0" r="3.5"/>
                <g id="zoomPlus">
                        <use xlink:href="#rim" fill="#404040">
                                <set attributeName="fill" to="#808080" begin="zoomplus.mouseover" end="zoomplus.mouseout"/>
                        </use>
                        <path d="M-4,0h8M0,-4v8" fill="none" stroke="white" stroke-width="1.5" pointer-events="none"/>
                </g>
                <g id="zoomMin">
                        <use xlink:href="#rim" fill="#404040">
                                <set attributeName="fill" to="#808080" begin="zoomminus.mouseover" end="zoomminus.mouseout"/>
                        </use>
                        <path d="M-4,0h8" fill="none" stroke="white" stroke-width="1.5" pointer-events="none"/>
                </g>
                <g id="dirArrow">
                        <path fill="none" stroke="white" stroke-width="1.5" d="M0,-3.0v7 M-2.5,-0.5L0,-3.0L2.5,-0.5"/>
                </g>
               <g id="resetDef">
                       <use xlink:href="#rim2" fill="#404040">
                               <set attributeName="fill" to="#808080" begin="reset.mouseover" end="reset.mouseout"/>
                       </use>
               </g>
        </defs>

<script type="text/javascript">
var viewWidth = 1377;
var viewHeight = 431;
var sectionId = 'dynsection-0';
</script>
<script xlink:href="svgpan.js"/>
<svg id="graph" class="graph">
<g id="viewport">
<title>VortexEngine/src/Menus/MenuList/FactoryReset.cpp</title>
<!-- Node1 -->
<g id="node1" class="node">
<title>Node1</title>
<g id="a_node1"><a xlink:title=" ">
<polygon fill="#bfbfbf" stroke="black" points="273,-392.5 273,-422.5 423,-422.5 423,-392.5 273,-392.5"/>
<text text-anchor="start" x="281" y="-410.5" font-family="Helvetica,sans-Serif" font-size="10.00">VortexEngine/src/Menus</text>
<text text-anchor="middle" x="348" y="-399.5" font-family="Helvetica,sans-Serif" font-size="10.00">/MenuList/FactoryReset.cpp</text>
</a>
</g>
</g>
<!-- Node2 -->
<g id="node2" class="node">
<title>Node2</title>
<g id="a_node2"><a xlink:href="FactoryReset_8h.html" target="_top" xlink:title=" ">
<polygon fill="none" stroke="black" points="398.5,-336.5 398.5,-355.5 487.5,-355.5 487.5,-336.5 398.5,-336.5"/>
<text text-anchor="middle" x="443" y="-343.5" font-family="Helvetica,sans-Serif" font-size="10.00">FactoryReset.h</text>
</a>
</g>
</g>
<!-- Node1&#45;&gt;Node2 -->
<g id="edge1" class="edge">
<title>Node1&#45;&gt;Node2</title>
<path fill="none" stroke="midnightblue" d="M370.51,-392.4C385.6,-382.95 405.39,-370.56 420.47,-361.11"/>
<polygon fill="midnightblue" stroke="midnightblue" points="422.56,-363.93 429.18,-355.66 418.84,-358 422.56,-363.93"/>
</g>
<!-- Node6 -->
<g id="node6" class="node">
<title>Node6</title>
<g id="a_node6"><a xlink:href="VortexConfig_8h.html" target="_top" xlink:title=" ">
<polygon fill="none" stroke="black" points="315.5,-56.5 315.5,-75.5 412.5,-75.5 412.5,-56.5 315.5,-56.5"/>
<text text-anchor="middle" x="364" y="-63.5" font-family="Helvetica,sans-Serif" font-size="10.00">../VortexConfig.h</text>
</a>
</g>
</g>
<!-- Node1&#45;&gt;Node6 -->
<g id="edge61" class="edge">
<title>Node1&#45;&gt;Node6</title>
<path fill="none" stroke="midnightblue" d="M272.92,-396.96C170.62,-381.84 0,-348.05 0,-291 0,-291 0,-291 0,-177 0,-141.86 15.09,-130.45 45,-112 87.37,-85.87 225.05,-74.32 305.01,-69.71"/>
<polygon fill="midnightblue" stroke="midnightblue" points="305.63,-73.18 315.42,-69.13 305.24,-66.19 305.63,-73.18"/>
</g>
<!-- Node10 -->
<g id="node10" class="node">
<title>Node10</title>
<g id="a_node10"><a xlink:href="Mode_8h.html" target="_top" xlink:title=" ">
<polygon fill="none" stroke="black" points="395.5,-224.5 395.5,-243.5 492.5,-243.5 492.5,-224.5 395.5,-224.5"/>
<text text-anchor="middle" x="444" y="-231.5" font-family="Helvetica,sans-Serif" font-size="10.00">../Modes/Mode.h</text>
</a>
</g>
</g>
<!-- Node1&#45;&gt;Node10 -->
<g id="edge58" class="edge">
<title>Node1&#45;&gt;Node10</title>
<path fill="none" stroke="midnightblue" d="M352.72,-392.12C361.02,-367.86 379.7,-317.77 404,-280 410.7,-269.58 419.77,-259.17 427.58,-250.98"/>
<polygon fill="midnightblue" stroke="midnightblue" points="430.3,-253.21 434.83,-243.63 425.32,-248.29 430.3,-253.21"/>
</g>
<!-- Node12 -->
<g id="node12" class="node">
<title>Node12</title>
<g id="a_node12"><a xlink:href="DefaultModes_8h.html" target="_top" xlink:title=" ">
<polygon fill="none" stroke="black" points="395,-168.5 395,-187.5 489,-187.5 489,-168.5 395,-168.5"/>
<text text-anchor="middle" x="442" y="-175.5" font-family="Helvetica,sans-Serif" font-size="10.00">DefaultModes.h</text>
</a>
</g>
</g>
<!-- Node1&#45;&gt;Node12 -->
<g id="edge25" class="edge">
<title>Node1&#45;&gt;Node12</title>
<path fill="none" stroke="midnightblue" d="M347.81,-392.05C348.02,-359.54 352.19,-279.2 386,-224 393.71,-211.41 406.26,-200.84 417.53,-193.12"/>
<polygon fill="midnightblue" stroke="midnightblue" points="419.66,-195.91 426.17,-187.55 415.87,-190.02 419.66,-195.91"/>
</g>
<!-- Node13 -->
<g id="node13" class="node">
<title>Node13</title>
<g id="a_node13"><a xlink:href="VortexEngine_8h.html" target="_top" xlink:title=" ">
<polygon fill="none" stroke="black" points="66,-112.5 66,-131.5 174,-131.5 174,-112.5 66,-112.5"/>
<text text-anchor="middle" x="120" y="-119.5" font-family="Helvetica,sans-Serif" font-size="10.00">../../VortexEngine.h</text>
</a>
</g>
</g>
<!-- Node1&#45;&gt;Node13 -->
<g id="edge22" class="edge">
<title>Node1&#45;&gt;Node13</title>
<path fill="none" stroke="midnightblue" d="M272.95,-405.44C192.44,-399.86 76,-376.93 76,-291 76,-291 76,-291 76,-233 76,-198.04 95.4,-161.01 108.43,-140.07"/>
<polygon fill="midnightblue" stroke="midnightblue" points="111.39,-141.95 113.88,-131.65 105.51,-138.15 111.39,-141.95"/>
</g>
<!-- Node14 -->
<g id="node14" class="node">
<title>Node14</title>
<g id="a_node14"><a xlink:href="TimeControl_8h.html" target="_top" xlink:title=" ">
<polygon fill="none" stroke="black" points="207.5,-168.5 207.5,-187.5 338.5,-187.5 338.5,-168.5 207.5,-168.5"/>
<text text-anchor="middle" x="273" y="-175.5" font-family="Helvetica,sans-Serif" font-size="10.00">../../Time/TimeControl.h</text>
</a>
</g>
</g>
<!-- Node1&#45;&gt;Node14 -->
<g id="edge26" class="edge">
<title>Node1&#45;&gt;Node14</title>
<path fill="none" stroke="midnightblue" d="M336.75,-392.24C329.59,-382.52 320.62,-369.09 315,-356 291.46,-301.23 279.8,-231.01 275.3,-197.89"/>
<polygon fill="midnightblue" stroke="midnightblue" points="278.75,-197.28 274,-187.81 271.81,-198.18 278.75,-197.28"/>
</g>
<!-- Node15 -->
<g id="node15" class="node">
<title>Node15</title>
<g id="a_node15"><a xlink:href="Pattern_8h.html" target="_top" xlink:title=" ">
<polygon fill="none" stroke="black" points="621.5,-224.5 621.5,-243.5 742.5,-243.5 742.5,-224.5 621.5,-224.5"/>
<text text-anchor="middle" x="682" y="-231.5" font-family="Helvetica,sans-Serif" font-size="10.00">../../Patterns/Pattern.h</text>
</a>
</g>
</g>
<!-- Node1&#45;&gt;Node15 -->
<g id="edge30" class="edge">
<title>Node1&#45;&gt;Node15</title>
<path fill="none" stroke="midnightblue" d="M399.25,-392.44C428.33,-383.63 465,-371.08 496,-356 560.6,-324.57 629.77,-274.73 662.59,-249.97"/>
<polygon fill="midnightblue" stroke="midnightblue" points="665,-252.53 670.84,-243.69 660.76,-246.96 665,-252.53"/>
</g>
<!-- Node18 -->
<g id="node18" class="node">
<title>Node18</title>
<g id="a_node18"><a xlink:href="Button_8h.html" target="_top" xlink:title=" ">
<polygon fill="none" stroke="black" points="306,-112.5 306,-131.5 422,-131.5 422,-112.5 306,-112.5"/>
<text text-anchor="middle" x="364" y="-119.5" font-family="Helvetica,sans-Serif" font-size="10.00">../../Buttons/Button.h</text>
</a>
</g>
</g>
<!-- Node1&#45;&gt;Node18 -->
<g id="edge38" class="edge">
<title>Node1&#45;&gt;Node18</title>
<path fill="none" stroke="midnightblue" d="M334.63,-392.45C325.54,-382.6 313.5,-368.93 304,-356 263.25,-300.53 260.65,-281.62 223,-224 208.09,-201.18 181.44,-189.65 198,-168 210.21,-152.04 255.47,-140.42 295.65,-132.99"/>
<polygon fill="midnightblue" stroke="midnightblue" points="296.5,-136.4 305.73,-131.2 295.27,-129.51 296.5,-136.4"/>
</g>
<!-- Node19 -->
<g id="node19" class="node">
<title>Node19</title>
<g id="a_node19"><a xlink:href="Timings_8h.html" target="_top" xlink:title=" ">
<polygon fill="none" stroke="black" points="104,-224.5 104,-243.5 214,-243.5 214,-224.5 104,-224.5"/>
<text text-anchor="middle" x="159" y="-231.5" font-family="Helvetica,sans-Serif" font-size="10.00">../../Time/Timings.h</text>
</a>
</g>
</g>
<!-- Node1&#45;&gt;Node19 -->
<g id="edge41" class="edge">
<title>Node1&#45;&gt;Node19</title>
<path fill="none" stroke="midnightblue" d="M294.79,-392.48C272.28,-384.56 246.94,-372.8 228,-356 195.54,-327.22 174.7,-279.37 165.12,-253.3"/>
<polygon fill="midnightblue" stroke="midnightblue" points="168.32,-251.85 161.71,-243.58 161.72,-254.17 168.32,-251.85"/>
</g>
<!-- Node20 -->
<g id="node20" class="node">
<title>Node20</title>
<g id="a_node20"><a xlink:href="Modes_8h.html" target="_top" xlink:title=" ">
<polygon fill="none" stroke="black" points="1077.5,-224.5 1077.5,-243.5 1188.5,-243.5 1188.5,-224.5 1077.5,-224.5"/>
<text text-anchor="middle" x="1133" y="-231.5" font-family="Helvetica,sans-Serif" font-size="10.00">../../Modes/Modes.h</text>
</a>
</g>
</g>
<!-- Node1&#45;&gt;Node20 -->
<g id="edge44" class="edge">
<title>Node1&#45;&gt;Node20</title>
<path fill="none" stroke="midnightblue" d="M423.23,-405.14C595.86,-401.47 1009.74,-389.28 1063,-356 1100.45,-332.61 1120.02,-281.35 1128.22,-253.65"/>
<polygon fill="midnightblue" stroke="midnightblue" points="1131.68,-254.25 1130.97,-243.68 1124.93,-252.38 1131.68,-254.25"/>
</g>
<!-- Node22 -->
<g id="node22" class="node">
<title>Node22</title>
<g id="a_node22"><a xlink:href="Log_8h.html" target="_top" xlink:title=" ">
<polygon fill="none" stroke="black" points="1255,-112.5 1255,-131.5 1327,-131.5 1327,-112.5 1255,-112.5"/>
<text text-anchor="middle" x="1291" y="-119.5" font-family="Helvetica,sans-Serif" font-size="10.00">../Log/Log.h</text>
</a>
</g>
</g>
<!-- Node1&#45;&gt;Node22 -->
<g id="edge60" class="edge">
<title>Node1&#45;&gt;Node22</title>
<path fill="none" stroke="midnightblue" d="M423.08,-405.88C658.86,-402.95 1369,-386.21 1369,-291 1369,-291 1369,-291 1369,-233 1369,-202.9 1367.04,-192.81 1350,-168 1341.28,-155.31 1327.84,-144.66 1315.99,-136.91"/>
<polygon fill="midnightblue" stroke="midnightblue" points="1317.69,-133.84 1307.34,-131.56 1314.01,-139.8 1317.69,-133.84"/>
</g>
<!-- Node23 -->
<g id="node23" class="node">
<title>Node23</title>
<g id="a_node23"><a xlink:href="Leds_8h.html" target="_top" xlink:title=" ">
<polygon fill="none" stroke="black" points="1039.5,-168.5 1039.5,-187.5 1122.5,-187.5 1122.5,-168.5 1039.5,-168.5"/>
<text text-anchor="middle" x="1081" y="-175.5" font-family="Helvetica,sans-Serif" font-size="10.00">../Leds/Leds.h</text>
</a>
</g>
</g>
<!-- Node1&#45;&gt;Node23 -->
<g id="edge59" class="edge">
<title>Node1&#45;&gt;Node23</title>
<path fill="none" stroke="midnightblue" d="M400.13,-392.41C436.15,-382.55 485.1,-368.88 528,-356 724.65,-296.96 958.45,-219.82 1045.79,-190.76"/>
<polygon fill="midnightblue" stroke="midnightblue" points="1047.09,-194.02 1055.47,-187.54 1044.88,-187.37 1047.09,-194.02"/>
</g>
<!-- Node3 -->
<g id="node3" class="node">
<title>Node3</title>
<g id="a_node3"><a xlink:href="Menu_8h.html" target="_top" xlink:title=" ">
<polygon fill="none" stroke="black" points="413,-280.5 413,-299.5 475,-299.5 475,-280.5 413,-280.5"/>
<text text-anchor="middle" x="444" y="-287.5" font-family="Helvetica,sans-Serif" font-size="10.00">../Menu.h</text>
</a>
</g>
</g>
<!-- Node2&#45;&gt;Node3 -->
<g id="edge2" class="edge">
<title>Node2&#45;&gt;Node3</title>
<path fill="none" stroke="midnightblue" d="M443.17,-336.08C443.3,-329.01 443.48,-318.86 443.65,-309.99"/>
<polygon fill="midnightblue" stroke="midnightblue" points="447.15,-309.81 443.84,-299.75 440.15,-309.68 447.15,-309.81"/>
</g>
<!-- Node4 -->
<g id="node4" class="node">
<title>Node4</title>
<g id="a_node4"><a xlink:title=" ">
<polygon fill="none" stroke="#bfbfbf" points="665.5,-56.5 665.5,-75.5 730.5,-75.5 730.5,-56.5 665.5,-56.5"/>
<text text-anchor="middle" x="698" y="-63.5" font-family="Helvetica,sans-Serif" font-size="10.00">inttypes.h</text>
</a>
</g>
</g>
<!-- Node3&#45;&gt;Node4 -->
<g id="edge3" class="edge">
<title>Node3&#45;&gt;Node4</title>
<path fill="none" stroke="midnightblue" d="M425.61,-280.47C411.9,-273 394.19,-260.71 386,-244 371.14,-213.67 367.59,-196.32 386,-168 407.47,-134.97 431.37,-148.81 467,-132 484.98,-123.52 488.31,-118.77 507,-112 556.55,-94.05 615.95,-81.37 655.21,-74.13"/>
<polygon fill="midnightblue" stroke="midnightblue" points="656.01,-77.55 665.23,-72.33 654.77,-70.66 656.01,-77.55"/>
</g>
<!-- Node5 -->
<g id="node5" class="node">
<title>Node5</title>
<g id="a_node5"><a xlink:href="ColorTypes_8h.html" target="_top" xlink:title=" ">
<polygon fill="none" stroke="black" points="941,-112.5 941,-131.5 1063,-131.5 1063,-112.5 941,-112.5"/>
<text text-anchor="middle" x="1002" y="-119.5" font-family="Helvetica,sans-Serif" font-size="10.00">../Colors/ColorTypes.h</text>
</a>
</g>
</g>
<!-- Node3&#45;&gt;Node5 -->
<g id="edge4" class="edge">
<title>Node3&#45;&gt;Node5</title>
<path fill="none" stroke="midnightblue" d="M475.2,-286.01C573.28,-276.14 873.59,-242.05 953,-188 970.66,-175.98 984.54,-155.5 992.96,-140.74"/>
<polygon fill="midnightblue" stroke="midnightblue" points="996.22,-142.07 997.89,-131.6 990.06,-138.74 996.22,-142.07"/>
</g>
<!-- Node8 -->
<g id="node8" class="node">
<title>Node8</title>
<g id="a_node8"><a xlink:href="LedTypes_8h.html" target="_top" xlink:title=" ">
<polygon fill="none" stroke="black" points="516.5,-112.5 516.5,-131.5 621.5,-131.5 621.5,-112.5 516.5,-112.5"/>
<text text-anchor="middle" x="569" y="-119.5" font-family="Helvetica,sans-Serif" font-size="10.00">../Leds/LedTypes.h</text>
</a>
</g>
</g>
<!-- Node3&#45;&gt;Node8 -->
<g id="edge9" class="edge">
<title>Node3&#45;&gt;Node8</title>
<path fill="none" stroke="midnightblue" d="M457.93,-280.29C470.32,-272.05 488.38,-258.76 501,-244 528.81,-211.46 550.77,-165.83 561.6,-140.93"/>
<polygon fill="midnightblue" stroke="midnightblue" points="564.86,-142.2 565.55,-131.63 558.42,-139.47 564.86,-142.2"/>
</g>
<!-- Node3&#45;&gt;Node10 -->
<g id="edge13" class="edge">
<title>Node3&#45;&gt;Node10</title>
<path fill="none" stroke="midnightblue" d="M444,-280.08C444,-273.01 444,-262.86 444,-253.99"/>
<polygon fill="midnightblue" stroke="midnightblue" points="447.5,-253.75 444,-243.75 440.5,-253.75 447.5,-253.75"/>
</g>
<!-- Node5&#45;&gt;Node4 -->
<g id="edge5" class="edge">
<title>Node5&#45;&gt;Node4</title>
<path fill="none" stroke="midnightblue" d="M953.83,-112.44C895.04,-102 796.56,-84.51 740.48,-74.55"/>
<polygon fill="midnightblue" stroke="midnightblue" points="740.98,-71.08 730.52,-72.78 739.75,-77.97 740.98,-71.08"/>
</g>
<!-- Node5&#45;&gt;Node6 -->
<g id="edge6" class="edge">
<title>Node5&#45;&gt;Node6</title>
<path fill="none" stroke="midnightblue" d="M940.63,-113.43C936.02,-112.93 931.44,-112.44 927,-112 743.29,-93.64 525.27,-77.95 422.78,-70.93"/>
<polygon fill="midnightblue" stroke="midnightblue" points="422.85,-67.42 412.63,-70.23 422.37,-74.41 422.85,-67.42"/>
</g>
<!-- Node7 -->
<g id="node7" class="node">
<title>Node7</title>
<g id="a_node7"><a xlink:href="ColorConstants_8h.html" target="_top" xlink:title=" ">
<polygon fill="none" stroke="black" points="494,-0.5 494,-19.5 628,-19.5 628,-0.5 494,-0.5"/>
<text text-anchor="middle" x="561" y="-7.5" font-family="Helvetica,sans-Serif" font-size="10.00">Colors/ColorConstants.h</text>
</a>
</g>
</g>
<!-- Node5&#45;&gt;Node7 -->
<g id="edge8" class="edge">
<title>Node5&#45;&gt;Node7</title>
<path fill="none" stroke="midnightblue" d="M967.76,-112.46C888.63,-92.72 693.12,-43.96 605.15,-22.01"/>
<polygon fill="midnightblue" stroke="midnightblue" points="605.77,-18.56 595.22,-19.53 604.07,-25.35 605.77,-18.56"/>
</g>
<!-- Node6&#45;&gt;Node7 -->
<g id="edge7" class="edge">
<title>Node6&#45;&gt;Node7</title>
<path fill="none" stroke="midnightblue" d="M395.22,-56.44C428.93,-47.2 482.8,-32.44 519.93,-22.26"/>
<polygon fill="midnightblue" stroke="midnightblue" points="521.21,-25.54 529.93,-19.52 519.36,-18.78 521.21,-25.54"/>
</g>
<!-- Node8&#45;&gt;Node4 -->
<g id="edge10" class="edge">
<title>Node8&#45;&gt;Node4</title>
<path fill="none" stroke="midnightblue" d="M589.44,-112.44C610.67,-103.56 644.1,-89.56 668.25,-79.45"/>
<polygon fill="midnightblue" stroke="midnightblue" points="669.78,-82.61 677.66,-75.52 667.08,-76.15 669.78,-82.61"/>
</g>
<!-- Node8&#45;&gt;Node6 -->
<g id="edge12" class="edge">
<title>Node8&#45;&gt;Node6</title>
<path fill="none" stroke="midnightblue" d="M536.52,-112.44C501.28,-103.16 444.9,-88.31 406.24,-78.13"/>
<polygon fill="midnightblue" stroke="midnightblue" points="406.89,-74.68 396.33,-75.52 405.11,-81.45 406.89,-74.68"/>
</g>
<!-- Node9 -->
<g id="node9" class="node">
<title>Node9</title>
<g id="a_node9"><a xlink:title=" ">
<polygon fill="none" stroke="#bfbfbf" points="1081,-56.5 1081,-75.5 1137,-75.5 1137,-56.5 1081,-56.5"/>
<text text-anchor="middle" x="1109" y="-63.5" font-family="Helvetica,sans-Serif" font-size="10.00">stdarg.h</text>
</a>
</g>
</g>
<!-- Node8&#45;&gt;Node9 -->
<g id="edge11" class="edge">
<title>Node8&#45;&gt;Node9</title>
<path fill="none" stroke="midnightblue" d="M621.55,-113.07C624.41,-112.69 627.24,-112.33 630,-112 793.48,-92.27 989.25,-76.24 1070.62,-69.91"/>
<polygon fill="midnightblue" stroke="midnightblue" points="1071.17,-73.38 1080.87,-69.12 1070.63,-66.4 1071.17,-73.38"/>
</g>
<!-- Node10&#45;&gt;Node6 -->
<g id="edge17" class="edge">
<title>Node10&#45;&gt;Node6</title>
<path fill="none" stroke="midnightblue" d="M395.48,-231.24C331.09,-227.76 222.64,-217.56 198,-188 156.03,-137.66 259.86,-97.24 321.79,-78.44"/>
<polygon fill="midnightblue" stroke="midnightblue" points="323.12,-81.7 331.71,-75.5 321.13,-74.99 323.12,-81.7"/>
</g>
<!-- Node10&#45;&gt;Node8 -->
<g id="edge14" class="edge">
<title>Node10&#45;&gt;Node8</title>
<path fill="none" stroke="midnightblue" d="M454.88,-224.18C465.88,-215.21 483.3,-200.85 498,-188 516.94,-171.46 538.14,-151.9 552.41,-138.6"/>
<polygon fill="midnightblue" stroke="midnightblue" points="555.02,-140.94 559.93,-131.55 550.24,-135.83 555.02,-140.94"/>
</g>
<!-- Node11 -->
<g id="node11" class="node">
<title>Node11</title>
<g id="a_node11"><a xlink:href="Patterns_8h.html" target="_top" xlink:title=" ">
<polygon fill="none" stroke="black" points="639.5,-112.5 639.5,-131.5 756.5,-131.5 756.5,-112.5 639.5,-112.5"/>
<text text-anchor="middle" x="698" y="-119.5" font-family="Helvetica,sans-Serif" font-size="10.00">../Patterns/Patterns.h</text>
</a>
</g>
</g>
<!-- Node10&#45;&gt;Node11 -->
<g id="edge15" class="edge">
<title>Node10&#45;&gt;Node11</title>
<path fill="none" stroke="midnightblue" d="M463.93,-224.37C508.54,-205.05 616.58,-158.26 668.79,-135.65"/>
<polygon fill="midnightblue" stroke="midnightblue" points="670.38,-138.78 678.16,-131.59 667.59,-132.35 670.38,-138.78"/>
</g>
<!-- Node10&#45;&gt;Node12 -->
<g id="edge18" class="edge">
<title>Node10&#45;&gt;Node12</title>
<path fill="none" stroke="midnightblue" d="M443.67,-224.08C443.41,-217.01 443.03,-206.86 442.7,-197.99"/>
<polygon fill="midnightblue" stroke="midnightblue" points="446.19,-197.61 442.32,-187.75 439.2,-197.87 446.19,-197.61"/>
</g>
<!-- Node11&#45;&gt;Node4 -->
<g id="edge16" class="edge">
<title>Node11&#45;&gt;Node4</title>
<path fill="none" stroke="midnightblue" d="M698,-112.08C698,-105.01 698,-94.86 698,-85.99"/>
<polygon fill="midnightblue" stroke="midnightblue" points="701.5,-85.75 698,-75.75 694.5,-85.75 701.5,-85.75"/>
</g>
<!-- Node12&#45;&gt;Node6 -->
<g id="edge21" class="edge">
<title>Node12&#45;&gt;Node6</title>
<path fill="none" stroke="midnightblue" d="M394.9,-176.14C361.68,-172.76 319.28,-162.24 297,-132 282.15,-111.84 309.62,-92.34 333.75,-80.05"/>
<polygon fill="midnightblue" stroke="midnightblue" points="335.59,-83.05 343.07,-75.55 332.54,-76.74 335.59,-83.05"/>
</g>
<!-- Node12&#45;&gt;Node8 -->
<g id="edge20" class="edge">
<title>Node12&#45;&gt;Node8</title>
<path fill="none" stroke="midnightblue" d="M462.12,-168.44C483.02,-159.56 515.93,-145.56 539.72,-135.45"/>
<polygon fill="midnightblue" stroke="midnightblue" points="541.14,-138.65 548.97,-131.52 538.4,-132.21 541.14,-138.65"/>
</g>
<!-- Node12&#45;&gt;Node11 -->
<g id="edge19" class="edge">
<title>Node12&#45;&gt;Node11</title>
<path fill="none" stroke="midnightblue" d="M482.56,-168.44C527.32,-159 599.38,-143.8 647.7,-133.61"/>
<polygon fill="midnightblue" stroke="midnightblue" points="648.56,-137.01 657.63,-131.52 647.12,-130.16 648.56,-137.01"/>
</g>
<!-- Node13&#45;&gt;Node4 -->
<g id="edge23" class="edge">
<title>Node13&#45;&gt;Node4</title>
<path fill="none" stroke="midnightblue" d="M174.12,-115.94C288.34,-105.27 552.04,-80.64 655.37,-70.98"/>
<polygon fill="midnightblue" stroke="midnightblue" points="655.8,-74.46 665.43,-70.04 655.15,-67.49 655.8,-74.46"/>
</g>
<!-- Node13&#45;&gt;Node6 -->
<g id="edge24" class="edge">
<title>Node13&#45;&gt;Node6</title>
<path fill="none" stroke="midnightblue" d="M158.66,-112.44C201.14,-103.04 269.43,-87.93 315.47,-77.74"/>
<polygon fill="midnightblue" stroke="midnightblue" points="316.51,-81.09 325.52,-75.52 315,-74.26 316.51,-81.09"/>
</g>
<!-- Node14&#45;&gt;Node4 -->
<g id="edge27" class="edge">
<title>Node14&#45;&gt;Node4</title>
<path fill="none" stroke="midnightblue" d="M308.97,-168.48C341.34,-160.41 389.97,-147.28 431,-132 450.75,-124.65 453.97,-118.57 474,-112 535.54,-91.82 609.71,-79.08 655.35,-72.49"/>
<polygon fill="midnightblue" stroke="midnightblue" points="656.07,-75.93 665.48,-71.07 655.09,-69 656.07,-75.93"/>
</g>
<!-- Node14&#45;&gt;Node6 -->
<g id="edge28" class="edge">
<title>Node14&#45;&gt;Node6</title>
<path fill="none" stroke="midnightblue" d="M273.09,-168.11C273.65,-154.69 276.44,-129.02 289,-112 299.5,-97.77 315.98,-87.17 330.81,-79.85"/>
<polygon fill="midnightblue" stroke="midnightblue" points="332.63,-82.87 340.25,-75.5 329.7,-76.51 332.63,-82.87"/>
</g>
<!-- Node14&#45;&gt;Node8 -->
<g id="edge29" class="edge">
<title>Node14&#45;&gt;Node8</title>
<path fill="none" stroke="midnightblue" d="M319.9,-168.44C372.08,-158.92 456.37,-143.55 512.23,-133.36"/>
<polygon fill="midnightblue" stroke="midnightblue" points="513.11,-136.75 522.32,-131.52 511.85,-129.87 513.11,-136.75"/>
</g>
<!-- Node15&#45;&gt;Node8 -->
<g id="edge31" class="edge">
<title>Node15&#45;&gt;Node8</title>
<path fill="none" stroke="midnightblue" d="M673.13,-224.37C654.15,-205.89 609.36,-162.29 585.17,-138.74"/>
<polygon fill="midnightblue" stroke="midnightblue" points="587.43,-136.06 577.83,-131.59 582.55,-141.07 587.43,-136.06"/>
</g>
<!-- Node15&#45;&gt;Node11 -->
<g id="edge35" class="edge">
<title>Node15&#45;&gt;Node11</title>
<path fill="none" stroke="midnightblue" d="M683.26,-224.37C685.84,-206.62 691.79,-165.67 695.29,-141.6"/>
<polygon fill="midnightblue" stroke="midnightblue" points="698.77,-141.99 696.75,-131.59 691.85,-140.98 698.77,-141.99"/>
</g>
<!-- Node16 -->
<g id="node16" class="node">
<title>Node16</title>
<g id="a_node16"><a xlink:href="Colorset_8h.html" target="_top" xlink:title=" ">
<polygon fill="none" stroke="black" points="835.5,-168.5 835.5,-187.5 944.5,-187.5 944.5,-168.5 835.5,-168.5"/>
<text text-anchor="middle" x="890" y="-175.5" font-family="Helvetica,sans-Serif" font-size="10.00">../Colors/Colorset.h</text>
</a>
</g>
</g>
<!-- Node15&#45;&gt;Node16 -->
<g id="edge32" class="edge">
<title>Node15&#45;&gt;Node16</title>
<path fill="none" stroke="midnightblue" d="M714.96,-224.44C750.79,-215.14 808.16,-200.25 847.39,-190.06"/>
<polygon fill="midnightblue" stroke="midnightblue" points="848.4,-193.42 857.2,-187.52 846.64,-186.64 848.4,-193.42"/>
</g>
<!-- Node17 -->
<g id="node17" class="node">
<title>Node17</title>
<g id="a_node17"><a xlink:href="PatternArgs_8h.html" target="_top" xlink:title=" ">
<polygon fill="none" stroke="black" points="735,-168.5 735,-187.5 817,-187.5 817,-168.5 735,-168.5"/>
<text text-anchor="middle" x="776" y="-175.5" font-family="Helvetica,sans-Serif" font-size="10.00">PatternArgs.h</text>
</a>
</g>
</g>
<!-- Node15&#45;&gt;Node17 -->
<g id="edge36" class="edge">
<title>Node15&#45;&gt;Node17</title>
<path fill="none" stroke="midnightblue" d="M697.1,-224.32C711.9,-215.82 734.69,-202.73 751.98,-192.8"/>
<polygon fill="midnightblue" stroke="midnightblue" points="754.01,-195.67 760.93,-187.65 750.52,-189.6 754.01,-195.67"/>
</g>
<!-- Node16&#45;&gt;Node5 -->
<g id="edge33" class="edge">
<title>Node16&#45;&gt;Node5</title>
<path fill="none" stroke="midnightblue" d="M907.99,-168.32C926.04,-159.62 954.05,-146.12 974.8,-136.11"/>
<polygon fill="midnightblue" stroke="midnightblue" points="976.56,-139.15 984.05,-131.65 973.52,-132.84 976.56,-139.15"/>
</g>
<!-- Node16&#45;&gt;Node6 -->
<g id="edge34" class="edge">
<title>Node16&#45;&gt;Node6</title>
<path fill="none" stroke="midnightblue" d="M877.19,-168.28C855.29,-153.87 808.76,-125.33 765,-112 647.31,-76.16 502.38,-68.31 422.97,-66.92"/>
<polygon fill="midnightblue" stroke="midnightblue" points="422.73,-63.42 412.68,-66.77 422.63,-70.42 422.73,-63.42"/>
</g>
<!-- Node17&#45;&gt;Node4 -->
<g id="edge37" class="edge">
<title>Node17&#45;&gt;Node4</title>
<path fill="none" stroke="midnightblue" d="M776.61,-168.23C777.09,-154.97 776.3,-129.5 765,-112 756.1,-98.23 741.35,-87.65 727.94,-80.21"/>
<polygon fill="midnightblue" stroke="midnightblue" points="729.46,-77.06 718.97,-75.57 726.24,-83.27 729.46,-77.06"/>
</g>
<!-- Node18&#45;&gt;Node4 -->
<g id="edge39" class="edge">
<title>Node18&#45;&gt;Node4</title>
<path fill="none" stroke="midnightblue" d="M416.92,-112.44C482.83,-101.79 594.13,-83.79 655.02,-73.95"/>
<polygon fill="midnightblue" stroke="midnightblue" points="655.75,-77.38 665.07,-72.32 654.64,-70.47 655.75,-77.38"/>
</g>
<!-- Node18&#45;&gt;Node6 -->
<g id="edge40" class="edge">
<title>Node18&#45;&gt;Node6</title>
<path fill="none" stroke="midnightblue" d="M364,-112.08C364,-105.01 364,-94.86 364,-85.99"/>
<polygon fill="midnightblue" stroke="midnightblue" points="367.5,-85.75 364,-75.75 360.5,-85.75 367.5,-85.75"/>
</g>
<!-- Node19&#45;&gt;Node6 -->
<g id="edge43" class="edge">
<title>Node19&#45;&gt;Node6</title>
<path fill="none" stroke="midnightblue" d="M141.9,-224.43C104.37,-204.55 20.89,-153.79 57,-112 88.39,-75.67 224.9,-68.12 304.93,-66.88"/>
<polygon fill="midnightblue" stroke="midnightblue" points="305.4,-70.37 315.35,-66.75 305.31,-63.37 305.4,-70.37"/>
</g>
<!-- Node19&#45;&gt;Node14 -->
<g id="edge42" class="edge">
<title>Node19&#45;&gt;Node14</title>
<path fill="none" stroke="midnightblue" d="M177.06,-224.44C195.57,-215.68 224.58,-201.94 245.86,-191.86"/>
<polygon fill="midnightblue" stroke="midnightblue" points="247.48,-194.96 255.02,-187.52 244.49,-188.63 247.48,-194.96"/>
</g>
<!-- Node20&#45;&gt;Node4 -->
<g id="edge57" class="edge">
<title>Node20&#45;&gt;Node4</title>
<path fill="none" stroke="midnightblue" d="M1138.53,-224.32C1145.89,-211.59 1157.09,-187.29 1149,-168 1135.26,-135.25 1124.05,-127.29 1092,-112 1030.66,-82.74 829.59,-71.84 740.8,-68.39"/>
<polygon fill="midnightblue" stroke="midnightblue" points="740.92,-64.9 730.79,-68.02 740.66,-71.89 740.92,-64.9"/>
</g>
<!-- Node20&#45;&gt;Node5 -->
<g id="edge50" class="edge">
<title>Node20&#45;&gt;Node5</title>
<path fill="none" stroke="midnightblue" d="M1135.53,-224.44C1138.95,-211 1143.29,-184.75 1131,-168 1117.25,-149.26 1095.12,-138.27 1073.05,-131.85"/>
<polygon fill="midnightblue" stroke="midnightblue" points="1073.84,-128.44 1063.28,-129.29 1072.06,-135.21 1073.84,-128.44"/>
</g>
<!-- Node20&#45;&gt;Node6 -->
<g id="edge56" class="edge">
<title>Node20&#45;&gt;Node6</title>
<path fill="none" stroke="midnightblue" d="M1111.81,-224.44C1049.23,-199.29 865.73,-126.48 803,-112 669.35,-81.16 507.93,-71.45 422.94,-68.39"/>
<polygon fill="midnightblue" stroke="midnightblue" points="422.83,-64.89 412.71,-68.05 422.59,-71.88 422.83,-64.89"/>
</g>
<!-- Node20&#45;&gt;Node11 -->
<g id="edge51" class="edge">
<title>Node20&#45;&gt;Node11</title>
<path fill="none" stroke="midnightblue" d="M1077.39,-233.58C979.23,-233.53 780.43,-228.28 726,-188 711.36,-177.17 704.29,-157.09 700.93,-142.1"/>
<polygon fill="midnightblue" stroke="midnightblue" points="704.29,-141.06 699.01,-131.87 697.41,-142.35 704.29,-141.06"/>
</g>
<!-- Node21 -->
<g id="node21" class="node">
<title>Node21</title>
<g id="a_node21"><a xlink:href="ByteStream_8h.html" target="_top" xlink:title=" ">
<polygon fill="none" stroke="black" points="1217.5,-168.5 1217.5,-187.5 1340.5,-187.5 1340.5,-168.5 1217.5,-168.5"/>
<text text-anchor="middle" x="1279" y="-175.5" font-family="Helvetica,sans-Serif" font-size="10.00">../Serial/ByteStream.h</text>
</a>
</g>
</g>
<!-- Node20&#45;&gt;Node21 -->
<g id="edge45" class="edge">
<title>Node20&#45;&gt;Node21</title>
<path fill="none" stroke="midnightblue" d="M1156.13,-224.44C1180.48,-215.44 1219.01,-201.19 1246.42,-191.05"/>
<polygon fill="midnightblue" stroke="midnightblue" points="1247.81,-194.27 1255.97,-187.52 1245.38,-187.7 1247.81,-194.27"/>
</g>
<!-- Node20&#45;&gt;Node23 -->
<g id="edge52" class="edge">
<title>Node20&#45;&gt;Node23</title>
<path fill="none" stroke="midnightblue" d="M1124.41,-224.08C1116.84,-216.22 1105.62,-204.57 1096.49,-195.08"/>
<polygon fill="midnightblue" stroke="midnightblue" points="1098.88,-192.53 1089.43,-187.75 1093.84,-197.38 1098.88,-192.53"/>
</g>
<!-- Node21&#45;&gt;Node4 -->
<g id="edge46" class="edge">
<title>Node21&#45;&gt;Node4</title>
<path fill="none" stroke="midnightblue" d="M1272.13,-168.36C1259.97,-153.78 1233.09,-124.66 1203,-112 1119.97,-77.07 846.88,-69.23 740.73,-67.49"/>
<polygon fill="midnightblue" stroke="midnightblue" points="740.75,-63.99 730.7,-67.33 740.64,-70.99 740.75,-63.99"/>
</g>
<!-- Node21&#45;&gt;Node22 -->
<g id="edge47" class="edge">
<title>Node21&#45;&gt;Node22</title>
<path fill="none" stroke="midnightblue" d="M1280.98,-168.08C1282.57,-160.93 1284.86,-150.64 1286.85,-141.69"/>
<polygon fill="midnightblue" stroke="midnightblue" points="1290.3,-142.27 1289.06,-131.75 1283.47,-140.75 1290.3,-142.27"/>
</g>
<!-- Node22&#45;&gt;Node6 -->
<g id="edge49" class="edge">
<title>Node22&#45;&gt;Node6</title>
<path fill="none" stroke="midnightblue" d="M1254.95,-118.9C1113.83,-110.68 598.16,-80.64 422.82,-70.43"/>
<polygon fill="midnightblue" stroke="midnightblue" points="422.94,-66.93 412.75,-69.84 422.53,-73.92 422.94,-66.93"/>
</g>
<!-- Node22&#45;&gt;Node9 -->
<g id="edge48" class="edge">
<title>Node22&#45;&gt;Node9</title>
<path fill="none" stroke="midnightblue" d="M1262.16,-112.44C1230.96,-103.19 1181.09,-88.39 1146.78,-78.21"/>
<polygon fill="midnightblue" stroke="midnightblue" points="1147.69,-74.83 1137.11,-75.34 1145.7,-81.54 1147.69,-74.83"/>
</g>
<!-- Node23&#45;&gt;Node4 -->
<g id="edge53" class="edge">
<title>Node23&#45;&gt;Node4</title>
<path fill="none" stroke="midnightblue" d="M1082.74,-168.41C1085.02,-154.43 1087.12,-126.85 1072,-112 1048.7,-89.11 833.95,-74.54 740.79,-69.24"/>
<polygon fill="midnightblue" stroke="midnightblue" points="740.76,-65.74 730.58,-68.67 740.37,-72.73 740.76,-65.74"/>
</g>
<!-- Node23&#45;&gt;Node5 -->
<g id="edge54" class="edge">
<title>Node23&#45;&gt;Node5</title>
<path fill="none" stroke="midnightblue" d="M1068.31,-168.32C1056.1,-159.98 1037.42,-147.21 1023,-137.35"/>
<polygon fill="midnightblue" stroke="midnightblue" points="1024.89,-134.41 1014.66,-131.65 1020.94,-140.19 1024.89,-134.41"/>
</g>
<!-- Node23&#45;&gt;Node8 -->
<g id="edge55" class="edge">
<title>Node23&#45;&gt;Node8</title>
<path fill="none" stroke="midnightblue" d="M1039.27,-173.5C961.3,-166.81 787.99,-151.27 631.81,-132.18"/>
<polygon fill="midnightblue" stroke="midnightblue" points="631.9,-128.66 621.55,-130.91 631.05,-135.61 631.9,-128.66"/>
</g>
</g>
</svg>
        <g id="navigator" transform="translate(0 0)" fill="#404254">
                <rect fill="#f2f5e9" fill-opacity="0.5" stroke="#606060" stroke-width=".5" x="0" y="0" width="60" height="60"/>
                <use id="zoomplus" xlink:href="#zoomPlus" x="17" y="9" onmousedown="handleZoom(evt,'in')"/>
                <use id="zoomminus" xlink:href="#zoomMin" x="42" y="9" onmousedown="handleZoom(evt,'out')"/>
                <use id="reset" xlink:href="#resetDef" x="30" y="36" onmousedown="handleReset()"/>
                <g id="arrowUp" xlink:href="#dirArrow" transform="translate(30 24)" onmousedown="handlePan(0,-1)">
                  <use xlink:href="#rim" fill="#404040">
                        <set attributeName="fill" to="#808080" begin="arrowUp.mouseover" end="arrowUp.mouseout"/>
                  </use>
                  <path fill="none" stroke="white" stroke-width="1.5" d="M0,-3.0v7 M-2.5,-0.5L0,-3.0L2.5,-0.5"/>
                </g>
                <g id="arrowRight" xlink:href="#dirArrow" transform="rotate(90) translate(36 -43)" onmousedown="handlePan(1,0)">
                  <use xlink:href="#rim" fill="#404040">
                        <set attributeName="fill" to="#808080" begin="arrowRight.mouseover" end="arrowRight.mouseout"/>
                  </use>
                  <path fill="none" stroke="white" stroke-width="1.5" d="M0,-3.0v7 M-2.5,-0.5L0,-3.0L2.5,-0.5"/>
                </g>
                <g id="arrowDown" xlink:href="#dirArrow" transform="rotate(180) translate(-30 -48)" onmousedown="handlePan(0,1)">
                  <use xlink:href="#rim" fill="#404040">
                        <set attributeName="fill" to="#808080" begin="arrowDown.mouseover" end="arrowDown.mouseout"/>
                  </use>
                  <path fill="none" stroke="white" stroke-width="1.5" d="M0,-3.0v7 M-2.5,-0.5L0,-3.0L2.5,-0.5"/>
                </g>
                <g id="arrowLeft" xlink:href="#dirArrow" transform="rotate(270) translate(-36 17)" onmousedown="handlePan(-1,0)">
                  <use xlink:href="#rim" fill="#404040">
                        <set attributeName="fill" to="#808080" begin="arrowLeft.mouseover" end="arrowLeft.mouseout"/>
                  </use>
                  <path fill="none" stroke="white" stroke-width="1.5" d="M0,-3.0v7 M-2.5,-0.5L0,-3.0L2.5,-0.5"/>
                </g>
        </g>
        <svg viewBox="0 0 15 15" width="100%" height="30px" preserveAspectRatio="xMaxYMin meet">
         <g id="arrow_out" transform="scale(0.3 0.3)">
          <a xlink:href="FactoryReset_8cpp__incl_org.svg" target="_base">
           <rect id="button" ry="5" rx="5" y="6" x="6" height="38" width="38"
                fill="#f2f5e9" fill-opacity="0.5" stroke="#606060" stroke-width="1.0"/>
           <path id="arrow"
             d="M 11.500037,31.436501 C 11.940474,20.09759 22.043105,11.32322 32.158766,21.979434 L 37.068811,17.246167 C 37.068811,17.246167 37.088388,32 37.088388,32 L 22.160133,31.978069 C 22.160133,31.978069 26.997745,27.140456 26.997745,27.140456 C 18.528582,18.264221 13.291696,25.230495 11.500037,31.436501 z"
             style="fill:#404040;"/>
          </a>
         </g>
        </svg>
</svg>
