<?xml version="1.0" encoding="UTF-8" standalone="no"?>
<!DOCTYPE svg PUBLIC "-//W3C//DTD SVG 1.1//EN"
 "http://www.w3.org/Graphics/SVG/1.1/DTD/svg11.dtd">
<!-- Generated by graphviz version 2.43.0 (0)
 -->
<!-- Title: VortexEngine/src/Wireless/IRSender.cpp Pages: 1 -->
<!--zoomable 375 -->
<svg id="main" version="1.1" xmlns="http://www.w3.org/2000/svg" xmlns:xlink="http://www.w3.org/1999/xlink" xml:space="preserve" onload="init(evt)">
<style type="text/css"><![CDATA[
.edge:hover path { stroke: red; }
.edge:hover polygon { stroke: red; fill: red; }
]]></style>
<script type="text/javascript"><![CDATA[
var edges = document.getElementsByTagName('g');
if (edges && edges.length) {
  for (var i=0;i<edges.length;i++) {
    if (edges[i].id.substr(0,4)=='edge') {
      edges[i].setAttribute('class','edge');
    }
  }
}
]]></script>
        <defs>
                <circle id="rim" cx="0" cy="0" r="7"/>
                <circle id="rim2" cx="0" cy="0" r="3.5"/>
                <g id="zoomPlus">
                        <use xlink:href="#rim" fill="#404040">
                                <set attributeName="fill" to="#808080" begin="zoomplus.mouseover" end="zoomplus.mouseout"/>
                        </use>
                        <path d="M-4,0h8M0,-4v8" fill="none" stroke="white" stroke-width="1.5" pointer-events="none"/>
                </g>
                <g id="zoomMin">
                        <use xlink:href="#rim" fill="#404040">
                                <set attributeName="fill" to="#808080" begin="zoomminus.mouseover" end="zoomminus.mouseout"/>
                        </use>
                        <path d="M-4,0h8" fill="none" stroke="white" stroke-width="1.5" pointer-events="none"/>
                </g>
                <g id="dirArrow">
                        <path fill="none" stroke="white" stroke-width="1.5" d="M0,-3.0v7 M-2.5,-0.5L0,-3.0L2.5,-0.5"/>
                </g>
               <g id="resetDef">
                       <use xlink:href="#rim2" fill="#404040">
                               <set attributeName="fill" to="#808080" begin="reset.mouseover" end="reset.mouseout"/>
                       </use>
               </g>
        </defs>

<script type="text/javascript">
var viewWidth = 729;
var viewHeight = 375;
var sectionId = 'dynsection-0';
</script>
<script xlink:href="svgpan.js"/>
<svg id="graph" class="graph">
<g id="viewport">
<title>VortexEngine/src/Wireless/IRSender.cpp</title>
<!-- Node1 -->
<g id="node1" class="node">
<title>Node1</title>
<g id="a_node1"><a xlink:title=" ">
<polygon fill="#bfbfbf" stroke="black" points="269.5,-336.5 269.5,-366.5 412.5,-366.5 412.5,-336.5 269.5,-336.5"/>
<text text-anchor="start" x="277.5" y="-354.5" font-family="Helvetica,sans-Serif" font-size="10.00">VortexEngine/src/Wireless</text>
<text text-anchor="middle" x="341" y="-343.5" font-family="Helvetica,sans-Serif" font-size="10.00">/IRSender.cpp</text>
</a>
</g>
</g>
<!-- Node2 -->
<g id="node2" class="node">
<title>Node2</title>
<g id="a_node2"><a xlink:href="IRSender_8h.html" target="_top" xlink:title=" ">
<polygon fill="none" stroke="black" points="159,-280.5 159,-299.5 227,-299.5 227,-280.5 159,-280.5"/>
<text text-anchor="middle" x="193" y="-287.5" font-family="Helvetica,sans-Serif" font-size="10.00">IRSender.h</text>
</a>
</g>
</g>
<!-- Node1&#45;&gt;Node2 -->
<g id="edge1" class="edge">
<title>Node1&#45;&gt;Node2</title>
<path fill="none" stroke="midnightblue" d="M305.93,-336.4C280.98,-326.37 247.79,-313.03 223.86,-303.4"/>
<polygon fill="midnightblue" stroke="midnightblue" points="225.12,-300.14 214.54,-299.66 222.51,-306.64 225.12,-300.14"/>
</g>
<!-- Node5 -->
<g id="node5" class="node">
<title>Node5</title>
<g id="a_node5"><a xlink:href="Log_8h.html" target="_top" xlink:title=" ">
<polygon fill="none" stroke="black" points="228,-168.5 228,-187.5 300,-187.5 300,-168.5 228,-168.5"/>
<text text-anchor="middle" x="264" y="-175.5" font-family="Helvetica,sans-Serif" font-size="10.00">../Log/Log.h</text>
</a>
</g>
</g>
<!-- Node1&#45;&gt;Node5 -->
<g id="edge30" class="edge">
<title>Node1&#45;&gt;Node5</title>
<path fill="none" stroke="midnightblue" d="M342.14,-336.48C343.46,-311.91 343.22,-260.21 322,-224 314.4,-211.03 301.49,-200.46 289.78,-192.83"/>
<polygon fill="midnightblue" stroke="midnightblue" points="291.53,-189.8 281.17,-187.58 287.88,-195.77 291.53,-189.8"/>
</g>
<!-- Node11 -->
<g id="node11" class="node">
<title>Node11</title>
<g id="a_node11"><a xlink:href="IRConfig_8h.html" target="_top" xlink:title=" ">
<polygon fill="none" stroke="black" points="247,-224.5 247,-243.5 313,-243.5 313,-224.5 247,-224.5"/>
<text text-anchor="middle" x="280" y="-231.5" font-family="Helvetica,sans-Serif" font-size="10.00">IRConfig.h</text>
</a>
</g>
</g>
<!-- Node1&#45;&gt;Node11 -->
<g id="edge31" class="edge">
<title>Node1&#45;&gt;Node11</title>
<path fill="none" stroke="midnightblue" d="M333.52,-336.34C322.38,-315.24 301.44,-275.6 289.32,-252.65"/>
<polygon fill="midnightblue" stroke="midnightblue" points="292.34,-250.88 284.58,-243.67 286.15,-254.15 292.34,-250.88"/>
</g>
<!-- Node12 -->
<g id="node12" class="node">
<title>Node12</title>
<g id="a_node12"><a xlink:href="TimeControl_8h.html" target="_top" xlink:title=" ">
<polygon fill="none" stroke="black" points="353,-168.5 353,-187.5 475,-187.5 475,-168.5 353,-168.5"/>
<text text-anchor="middle" x="414" y="-175.5" font-family="Helvetica,sans-Serif" font-size="10.00">../Time/TimeControl.h</text>
</a>
</g>
</g>
<!-- Node1&#45;&gt;Node12 -->
<g id="edge14" class="edge">
<title>Node1&#45;&gt;Node12</title>
<path fill="none" stroke="midnightblue" d="M346.97,-336.47C360.18,-305.44 391.84,-231.05 406.42,-196.81"/>
<polygon fill="midnightblue" stroke="midnightblue" points="409.66,-198.13 410.36,-187.56 403.22,-195.39 409.66,-198.13"/>
</g>
<!-- Node14 -->
<g id="node14" class="node">
<title>Node14</title>
<g id="a_node14"><a xlink:href="Mode_8h.html" target="_top" xlink:title=" ">
<polygon fill="none" stroke="black" points="537.5,-224.5 537.5,-243.5 634.5,-243.5 634.5,-224.5 537.5,-224.5"/>
<text text-anchor="middle" x="586" y="-231.5" font-family="Helvetica,sans-Serif" font-size="10.00">../Modes/Mode.h</text>
</a>
</g>
</g>
<!-- Node1&#45;&gt;Node14 -->
<g id="edge21" class="edge">
<title>Node1&#45;&gt;Node14</title>
<path fill="none" stroke="midnightblue" d="M371.04,-336.34C419.12,-313.67 512.61,-269.6 558.81,-247.82"/>
<polygon fill="midnightblue" stroke="midnightblue" points="560.37,-250.95 567.92,-243.52 557.38,-244.62 560.37,-250.95"/>
</g>
<!-- Node3 -->
<g id="node3" class="node">
<title>Node3</title>
<g id="a_node3"><a xlink:href="ByteStream_8h.html" target="_top" xlink:title=" ">
<polygon fill="none" stroke="black" points="105.5,-224.5 105.5,-243.5 228.5,-243.5 228.5,-224.5 105.5,-224.5"/>
<text text-anchor="middle" x="167" y="-231.5" font-family="Helvetica,sans-Serif" font-size="10.00">../Serial/ByteStream.h</text>
</a>
</g>
</g>
<!-- Node2&#45;&gt;Node3 -->
<g id="edge2" class="edge">
<title>Node2&#45;&gt;Node3</title>
<path fill="none" stroke="midnightblue" d="M188.71,-280.08C185.15,-272.69 179.98,-261.95 175.58,-252.81"/>
<polygon fill="midnightblue" stroke="midnightblue" points="178.71,-251.24 171.21,-243.75 172.4,-254.28 178.71,-251.24"/>
</g>
<!-- Node10 -->
<g id="node10" class="node">
<title>Node10</title>
<g id="a_node10"><a xlink:href="BitStream_8h.html" target="_top" xlink:title=" ">
<polygon fill="none" stroke="black" points="0,-168.5 0,-187.5 114,-187.5 114,-168.5 0,-168.5"/>
<text text-anchor="middle" x="57" y="-175.5" font-family="Helvetica,sans-Serif" font-size="10.00">../Serial/BitStream.h</text>
</a>
</g>
</g>
<!-- Node2&#45;&gt;Node10 -->
<g id="edge11" class="edge">
<title>Node2&#45;&gt;Node10</title>
<path fill="none" stroke="midnightblue" d="M163.2,-280.36C142.52,-273.21 115.33,-261.38 96,-244 81.51,-230.97 70.74,-211.27 64.23,-196.97"/>
<polygon fill="midnightblue" stroke="midnightblue" points="67.4,-195.5 60.25,-187.69 60.97,-198.26 67.4,-195.5"/>
</g>
<!-- Node2&#45;&gt;Node11 -->
<g id="edge13" class="edge">
<title>Node2&#45;&gt;Node11</title>
<path fill="none" stroke="midnightblue" d="M206.98,-280.32C220.55,-271.9 241.38,-258.97 257.32,-249.07"/>
<polygon fill="midnightblue" stroke="midnightblue" points="259.41,-251.9 266.06,-243.65 255.71,-245.95 259.41,-251.9"/>
</g>
<!-- Node4 -->
<g id="node4" class="node">
<title>Node4</title>
<g id="a_node4"><a xlink:title=" ">
<polygon fill="none" stroke="#bfbfbf" points="273.5,-56.5 273.5,-75.5 338.5,-75.5 338.5,-56.5 273.5,-56.5"/>
<text text-anchor="middle" x="306" y="-63.5" font-family="Helvetica,sans-Serif" font-size="10.00">inttypes.h</text>
</a>
</g>
</g>
<!-- Node3&#45;&gt;Node4 -->
<g id="edge3" class="edge">
<title>Node3&#45;&gt;Node4</title>
<path fill="none" stroke="midnightblue" d="M166.19,-224.2C164.68,-202.44 163.83,-145.49 192,-112 209.88,-90.75 239.16,-79.47 263.57,-73.52"/>
<polygon fill="midnightblue" stroke="midnightblue" points="264.33,-76.93 273.34,-71.35 262.81,-70.1 264.33,-76.93"/>
</g>
<!-- Node3&#45;&gt;Node5 -->
<g id="edge4" class="edge">
<title>Node3&#45;&gt;Node5</title>
<path fill="none" stroke="midnightblue" d="M182.58,-224.32C198,-215.74 221.81,-202.49 239.71,-192.52"/>
<polygon fill="midnightblue" stroke="midnightblue" points="241.42,-195.58 248.45,-187.65 238.01,-189.46 241.42,-195.58"/>
</g>
<!-- Node6 -->
<g id="node6" class="node">
<title>Node6</title>
<g id="a_node6"><a xlink:title=" ">
<polygon fill="none" stroke="#bfbfbf" points="437,-56.5 437,-75.5 493,-75.5 493,-56.5 437,-56.5"/>
<text text-anchor="middle" x="465" y="-63.5" font-family="Helvetica,sans-Serif" font-size="10.00">stdarg.h</text>
</a>
</g>
</g>
<!-- Node5&#45;&gt;Node6 -->
<g id="edge5" class="edge">
<title>Node5&#45;&gt;Node6</title>
<path fill="none" stroke="midnightblue" d="M244.31,-168.37C219.43,-156.29 181.91,-133.42 200,-112 214.46,-94.87 356.49,-78.11 426.45,-70.81"/>
<polygon fill="midnightblue" stroke="midnightblue" points="427.04,-74.26 436.63,-69.76 426.32,-67.3 427.04,-74.26"/>
</g>
<!-- Node7 -->
<g id="node7" class="node">
<title>Node7</title>
<g id="a_node7"><a xlink:href="VortexConfig_8h.html" target="_top" xlink:title=" ">
<polygon fill="none" stroke="black" points="551.5,-56.5 551.5,-75.5 648.5,-75.5 648.5,-56.5 551.5,-56.5"/>
<text text-anchor="middle" x="600" y="-63.5" font-family="Helvetica,sans-Serif" font-size="10.00">../VortexConfig.h</text>
</a>
</g>
</g>
<!-- Node5&#45;&gt;Node7 -->
<g id="edge6" class="edge">
<title>Node5&#45;&gt;Node7</title>
<path fill="none" stroke="midnightblue" d="M282.9,-168.34C312.52,-155 371.88,-129.16 424,-112 465.99,-98.17 514.76,-86 550.3,-77.81"/>
<polygon fill="midnightblue" stroke="midnightblue" points="551.44,-81.14 560.41,-75.5 549.89,-74.31 551.44,-81.14"/>
</g>
<!-- Node9 -->
<g id="node9" class="node">
<title>Node9</title>
<g id="a_node9"><a xlink:href="ErrorBlinker_8h.html" target="_top" xlink:title=" ">
<polygon fill="none" stroke="black" points="208.5,-112.5 208.5,-131.5 319.5,-131.5 319.5,-112.5 208.5,-112.5"/>
<text text-anchor="middle" x="264" y="-119.5" font-family="Helvetica,sans-Serif" font-size="10.00">../Log/ErrorBlinker.h</text>
</a>
</g>
</g>
<!-- Node5&#45;&gt;Node9 -->
<g id="edge8" class="edge">
<title>Node5&#45;&gt;Node9</title>
<path fill="none" stroke="midnightblue" d="M264,-168.08C264,-161.01 264,-150.86 264,-141.99"/>
<polygon fill="midnightblue" stroke="midnightblue" points="267.5,-141.75 264,-131.75 260.5,-141.75 267.5,-141.75"/>
</g>
<!-- Node8 -->
<g id="node8" class="node">
<title>Node8</title>
<g id="a_node8"><a xlink:href="ColorConstants_8h.html" target="_top" xlink:title=" ">
<polygon fill="none" stroke="black" points="533,-0.5 533,-19.5 667,-19.5 667,-0.5 533,-0.5"/>
<text text-anchor="middle" x="600" y="-7.5" font-family="Helvetica,sans-Serif" font-size="10.00">Colors/ColorConstants.h</text>
</a>
</g>
</g>
<!-- Node7&#45;&gt;Node8 -->
<g id="edge7" class="edge">
<title>Node7&#45;&gt;Node8</title>
<path fill="none" stroke="midnightblue" d="M600,-56.08C600,-49.01 600,-38.86 600,-29.99"/>
<polygon fill="midnightblue" stroke="midnightblue" points="603.5,-29.75 600,-19.75 596.5,-29.75 603.5,-29.75"/>
</g>
<!-- Node9&#45;&gt;Node4 -->
<g id="edge9" class="edge">
<title>Node9&#45;&gt;Node4</title>
<path fill="none" stroke="midnightblue" d="M270.94,-112.08C276.93,-104.38 285.75,-93.03 293.05,-83.65"/>
<polygon fill="midnightblue" stroke="midnightblue" points="295.82,-85.79 299.19,-75.75 290.29,-81.5 295.82,-85.79"/>
</g>
<!-- Node9&#45;&gt;Node7 -->
<g id="edge10" class="edge">
<title>Node9&#45;&gt;Node7</title>
<path fill="none" stroke="midnightblue" d="M317.24,-112.44C378.24,-102.64 477.91,-86.62 541.16,-76.46"/>
<polygon fill="midnightblue" stroke="midnightblue" points="542.05,-79.86 551.37,-74.82 540.94,-72.95 542.05,-79.86"/>
</g>
<!-- Node10&#45;&gt;Node4 -->
<g id="edge12" class="edge">
<title>Node10&#45;&gt;Node4</title>
<path fill="none" stroke="midnightblue" d="M63.89,-168.39C75.56,-154.38 100.64,-126.75 128,-112 170.83,-88.91 225.87,-77.36 263.33,-71.79"/>
<polygon fill="midnightblue" stroke="midnightblue" points="263.99,-75.23 273.41,-70.38 263.02,-68.3 263.99,-75.23"/>
</g>
<!-- Node12&#45;&gt;Node4 -->
<g id="edge15" class="edge">
<title>Node12&#45;&gt;Node4</title>
<path fill="none" stroke="midnightblue" d="M405.53,-168.37C387.39,-149.89 344.58,-106.29 321.46,-82.74"/>
<polygon fill="midnightblue" stroke="midnightblue" points="323.94,-80.28 314.44,-75.59 318.94,-85.18 323.94,-80.28"/>
</g>
<!-- Node12&#45;&gt;Node7 -->
<g id="edge16" class="edge">
<title>Node12&#45;&gt;Node7</title>
<path fill="none" stroke="midnightblue" d="M415.57,-168.46C418.57,-154.55 426.46,-127.06 444,-112 471.01,-88.8 509.35,-77.54 541.26,-72.08"/>
<polygon fill="midnightblue" stroke="midnightblue" points="542.03,-75.51 551.38,-70.51 540.96,-68.59 542.03,-75.51"/>
</g>
<!-- Node13 -->
<g id="node13" class="node">
<title>Node13</title>
<g id="a_node13"><a xlink:href="LedTypes_8h.html" target="_top" xlink:title=" ">
<polygon fill="none" stroke="black" points="587.5,-112.5 587.5,-131.5 692.5,-131.5 692.5,-112.5 587.5,-112.5"/>
<text text-anchor="middle" x="640" y="-119.5" font-family="Helvetica,sans-Serif" font-size="10.00">../Leds/LedTypes.h</text>
</a>
</g>
</g>
<!-- Node12&#45;&gt;Node13 -->
<g id="edge17" class="edge">
<title>Node12&#45;&gt;Node13</title>
<path fill="none" stroke="midnightblue" d="M449.81,-168.44C488.99,-159.08 551.88,-144.06 594.52,-133.87"/>
<polygon fill="midnightblue" stroke="midnightblue" points="595.44,-137.24 604.36,-131.52 593.82,-130.44 595.44,-137.24"/>
</g>
<!-- Node13&#45;&gt;Node4 -->
<g id="edge18" class="edge">
<title>Node13&#45;&gt;Node4</title>
<path fill="none" stroke="midnightblue" d="M587.45,-112.5C521.45,-101.83 409.52,-83.74 348.6,-73.89"/>
<polygon fill="midnightblue" stroke="midnightblue" points="348.99,-70.4 338.55,-72.26 347.87,-77.31 348.99,-70.4"/>
</g>
<!-- Node13&#45;&gt;Node6 -->
<g id="edge19" class="edge">
<title>Node13&#45;&gt;Node6</title>
<path fill="none" stroke="midnightblue" d="M612.27,-112.44C582.57,-103.28 535.28,-88.69 502.33,-78.52"/>
<polygon fill="midnightblue" stroke="midnightblue" points="503.19,-75.12 492.6,-75.52 501.12,-81.81 503.19,-75.12"/>
</g>
<!-- Node13&#45;&gt;Node7 -->
<g id="edge20" class="edge">
<title>Node13&#45;&gt;Node7</title>
<path fill="none" stroke="midnightblue" d="M633.39,-112.08C627.74,-104.46 619.46,-93.26 612.55,-83.94"/>
<polygon fill="midnightblue" stroke="midnightblue" points="615.25,-81.7 606.48,-75.75 609.62,-85.87 615.25,-81.7"/>
</g>
<!-- Node14&#45;&gt;Node7 -->
<g id="edge25" class="edge">
<title>Node14&#45;&gt;Node7</title>
<path fill="none" stroke="midnightblue" d="M607.99,-224.41C639.82,-210.56 697.18,-179.9 718,-132 731.04,-102 694.61,-85.38 658.88,-76.47"/>
<polygon fill="midnightblue" stroke="midnightblue" points="659.39,-73 648.86,-74.16 657.82,-79.82 659.39,-73"/>
</g>
<!-- Node14&#45;&gt;Node13 -->
<g id="edge22" class="edge">
<title>Node14&#45;&gt;Node13</title>
<path fill="none" stroke="midnightblue" d="M603.5,-224.46C616.79,-216.92 634.08,-204.53 642,-188 648.94,-173.52 647.55,-155.08 644.95,-141.53"/>
<polygon fill="midnightblue" stroke="midnightblue" points="648.29,-140.46 642.63,-131.51 641.47,-142.04 648.29,-140.46"/>
</g>
<!-- Node15 -->
<g id="node15" class="node">
<title>Node15</title>
<g id="a_node15"><a xlink:href="Patterns_8h.html" target="_top" xlink:title=" ">
<polygon fill="none" stroke="black" points="452.5,-112.5 452.5,-131.5 569.5,-131.5 569.5,-112.5 452.5,-112.5"/>
<text text-anchor="middle" x="511" y="-119.5" font-family="Helvetica,sans-Serif" font-size="10.00">../Patterns/Patterns.h</text>
</a>
</g>
</g>
<!-- Node14&#45;&gt;Node15 -->
<g id="edge23" class="edge">
<title>Node14&#45;&gt;Node15</title>
<path fill="none" stroke="midnightblue" d="M570.75,-224.4C558.07,-216.5 540.46,-203.66 530,-188 520.71,-174.1 515.88,-155.59 513.42,-141.88"/>
<polygon fill="midnightblue" stroke="midnightblue" points="516.83,-141.05 511.86,-131.69 509.91,-142.11 516.83,-141.05"/>
</g>
<!-- Node16 -->
<g id="node16" class="node">
<title>Node16</title>
<g id="a_node16"><a xlink:href="DefaultModes_8h.html" target="_top" xlink:title=" ">
<polygon fill="none" stroke="black" points="539,-168.5 539,-187.5 633,-187.5 633,-168.5 539,-168.5"/>
<text text-anchor="middle" x="586" y="-175.5" font-family="Helvetica,sans-Serif" font-size="10.00">DefaultModes.h</text>
</a>
</g>
</g>
<!-- Node14&#45;&gt;Node16 -->
<g id="edge26" class="edge">
<title>Node14&#45;&gt;Node16</title>
<path fill="none" stroke="midnightblue" d="M586,-224.08C586,-217.01 586,-206.86 586,-197.99"/>
<polygon fill="midnightblue" stroke="midnightblue" points="589.5,-197.75 586,-187.75 582.5,-197.75 589.5,-197.75"/>
</g>
<!-- Node15&#45;&gt;Node4 -->
<g id="edge24" class="edge">
<title>Node15&#45;&gt;Node4</title>
<path fill="none" stroke="midnightblue" d="M478.52,-112.44C443.28,-103.16 386.9,-88.31 348.24,-78.13"/>
<polygon fill="midnightblue" stroke="midnightblue" points="348.89,-74.68 338.33,-75.52 347.11,-81.45 348.89,-74.68"/>
</g>
<!-- Node16&#45;&gt;Node7 -->
<g id="edge29" class="edge">
<title>Node16&#45;&gt;Node7</title>
<path fill="none" stroke="midnightblue" d="M633.17,-171.41C658.06,-165.8 686.56,-154.55 702,-132 719.49,-106.45 683,-88.77 648.9,-78.37"/>
<polygon fill="midnightblue" stroke="midnightblue" points="649.51,-74.9 638.93,-75.5 647.57,-81.63 649.51,-74.9"/>
</g>
<!-- Node16&#45;&gt;Node13 -->
<g id="edge28" class="edge">
<title>Node16&#45;&gt;Node13</title>
<path fill="none" stroke="midnightblue" d="M594.92,-168.08C602.78,-160.22 614.43,-148.57 623.92,-139.08"/>
<polygon fill="midnightblue" stroke="midnightblue" points="626.65,-141.3 631.25,-131.75 621.7,-136.35 626.65,-141.3"/>
</g>
<!-- Node16&#45;&gt;Node15 -->
<g id="edge27" class="edge">
<title>Node16&#45;&gt;Node15</title>
<path fill="none" stroke="midnightblue" d="M573.95,-168.32C562.54,-160.11 545.17,-147.6 531.57,-137.81"/>
<polygon fill="midnightblue" stroke="midnightblue" points="533.43,-134.84 523.27,-131.83 529.34,-140.52 533.43,-134.84"/>
</g>
</g>
</svg>
        <g id="navigator" transform="translate(0 0)" fill="#404254">
                <rect fill="#f2f5e9" fill-opacity="0.5" stroke="#606060" stroke-width=".5" x="0" y="0" width="60" height="60"/>
                <use id="zoomplus" xlink:href="#zoomPlus" x="17" y="9" onmousedown="handleZoom(evt,'in')"/>
                <use id="zoomminus" xlink:href="#zoomMin" x="42" y="9" onmousedown="handleZoom(evt,'out')"/>
                <use id="reset" xlink:href="#resetDef" x="30" y="36" onmousedown="handleReset()"/>
                <g id="arrowUp" xlink:href="#dirArrow" transform="translate(30 24)" onmousedown="handlePan(0,-1)">
                  <use xlink:href="#rim" fill="#404040">
                        <set attributeName="fill" to="#808080" begin="arrowUp.mouseover" end="arrowUp.mouseout"/>
                  </use>
                  <path fill="none" stroke="white" stroke-width="1.5" d="M0,-3.0v7 M-2.5,-0.5L0,-3.0L2.5,-0.5"/>
                </g>
                <g id="arrowRight" xlink:href="#dirArrow" transform="rotate(90) translate(36 -43)" onmousedown="handlePan(1,0)">
                  <use xlink:href="#rim" fill="#404040">
                        <set attributeName="fill" to="#808080" begin="arrowRight.mouseover" end="arrowRight.mouseout"/>
                  </use>
                  <path fill="none" stroke="white" stroke-width="1.5" d="M0,-3.0v7 M-2.5,-0.5L0,-3.0L2.5,-0.5"/>
                </g>
                <g id="arrowDown" xlink:href="#dirArrow" transform="rotate(180) translate(-30 -48)" onmousedown="handlePan(0,1)">
                  <use xlink:href="#rim" fill="#404040">
                        <set attributeName="fill" to="#808080" begin="arrowDown.mouseover" end="arrowDown.mouseout"/>
                  </use>
                  <path fill="none" stroke="white" stroke-width="1.5" d="M0,-3.0v7 M-2.5,-0.5L0,-3.0L2.5,-0.5"/>
                </g>
                <g id="arrowLeft" xlink:href="#dirArrow" transform="rotate(270) translate(-36 17)" onmousedown="handlePan(-1,0)">
                  <use xlink:href="#rim" fill="#404040">
                        <set attributeName="fill" to="#808080" begin="arrowLeft.mouseover" end="arrowLeft.mouseout"/>
                  </use>
                  <path fill="none" stroke="white" stroke-width="1.5" d="M0,-3.0v7 M-2.5,-0.5L0,-3.0L2.5,-0.5"/>
                </g>
        </g>
        <svg viewBox="0 0 15 15" width="100%" height="30px" preserveAspectRatio="xMaxYMin meet">
         <g id="arrow_out" transform="scale(0.3 0.3)">
          <a xlink:href="IRSender_8cpp__incl_org.svg" target="_base">
           <rect id="button" ry="5" rx="5" y="6" x="6" height="38" width="38"
                fill="#f2f5e9" fill-opacity="0.5" stroke="#606060" stroke-width="1.0"/>
           <path id="arrow"
             d="M 11.500037,31.436501 C 11.940474,20.09759 22.043105,11.32322 32.158766,21.979434 L 37.068811,17.246167 C 37.068811,17.246167 37.088388,32 37.088388,32 L 22.160133,31.978069 C 22.160133,31.978069 26.997745,27.140456 26.997745,27.140456 C 18.528582,18.264221 13.291696,25.230495 11.500037,31.436501 z"
             style="fill:#404040;"/>
          </a>
         </g>
        </svg>
</svg>
