<?xml version="1.0" encoding="UTF-8" standalone="no"?>
<!DOCTYPE svg PUBLIC "-//W3C//DTD SVG 1.1//EN"
 "http://www.w3.org/Graphics/SVG/1.1/DTD/svg11.dtd">
<!-- Generated by graphviz version 2.43.0 (0)
 -->
<!-- Title: VortexEngine/src/Leds/Leds.h Pages: 1 -->
<svg width="5828pt" height="173pt"
 viewBox="0.00 0.00 5827.50 173.00" xmlns="http://www.w3.org/2000/svg" xmlns:xlink="http://www.w3.org/1999/xlink">
<g id="graph0" class="graph" transform="scale(1 1) rotate(0) translate(4 169)">
<title>VortexEngine/src/Leds/Leds.h</title>
<!-- Node1 -->
<g id="node1" class="node">
<title>Node1</title>
<g id="a_node1"><a xlink:title=" ">
<polygon fill="#bfbfbf" stroke="black" points="2395,-134.5 2395,-164.5 2519,-164.5 2519,-134.5 2395,-134.5"/>
<text text-anchor="start" x="2403" y="-152.5" font-family="Helvetica,sans-Serif" font-size="10.00">VortexEngine/src/Leds</text>
<text text-anchor="middle" x="2457" y="-141.5" font-family="Helvetica,sans-Serif" font-size="10.00">/Leds.h</text>
</a>
</g>
</g>
<!-- Node2 -->
<g id="node2" class="node">
<title>Node2</title>
<g id="a_node2"><a xlink:href="Leds_8cpp.html" target="_top" xlink:title=" ">
<polygon fill="none" stroke="black" points="0,-0.5 0,-30.5 124,-30.5 124,-0.5 0,-0.5"/>
<text text-anchor="start" x="8" y="-18.5" font-family="Helvetica,sans-Serif" font-size="10.00">VortexEngine/src/Leds</text>
<text text-anchor="middle" x="62" y="-7.5" font-family="Helvetica,sans-Serif" font-size="10.00">/Leds.cpp</text>
</a>
</g>
</g>
<!-- Node1&#45;&gt;Node2 -->
<g id="edge1" class="edge">
<title>Node1&#45;&gt;Node2</title>
<path fill="none" stroke="midnightblue" d="M2384.66,-147.74C2040.37,-143.98 576.08,-126.45 374,-98 275.04,-84.07 162.4,-49.94 103.26,-30.55"/>
<polygon fill="midnightblue" stroke="midnightblue" points="2384.72,-151.24 2394.76,-147.85 2384.79,-144.24 2384.72,-151.24"/>
</g>
<!-- Node3 -->
<g id="node3" class="node">
<title>Node3</title>
<g id="a_node3"><a xlink:href="Menu_8cpp.html" target="_top" xlink:title=" ">
<polygon fill="none" stroke="black" points="142,-0.5 142,-30.5 276,-30.5 276,-0.5 142,-0.5"/>
<text text-anchor="start" x="150" y="-18.5" font-family="Helvetica,sans-Serif" font-size="10.00">VortexEngine/src/Menus</text>
<text text-anchor="middle" x="209" y="-7.5" font-family="Helvetica,sans-Serif" font-size="10.00">/Menu.cpp</text>
</a>
</g>
</g>
<!-- Node1&#45;&gt;Node3 -->
<g id="edge2" class="edge">
<title>Node1&#45;&gt;Node3</title>
<path fill="none" stroke="midnightblue" d="M2384.86,-148.78C2079.99,-149.62 896.07,-149.45 527,-98 426.24,-83.95 311.39,-49.87 251.08,-30.52"/>
<polygon fill="midnightblue" stroke="midnightblue" points="2384.91,-152.28 2394.9,-148.75 2384.89,-145.28 2384.91,-152.28"/>
</g>
<!-- Node4 -->
<g id="node4" class="node">
<title>Node4</title>
<g id="a_node4"><a xlink:href="ColorSelect_8cpp.html" target="_top" xlink:title=" ">
<polygon fill="none" stroke="black" points="294.5,-0.5 294.5,-30.5 437.5,-30.5 437.5,-0.5 294.5,-0.5"/>
<text text-anchor="start" x="302.5" y="-18.5" font-family="Helvetica,sans-Serif" font-size="10.00">VortexEngine/src/Menus</text>
<text text-anchor="middle" x="366" y="-7.5" font-family="Helvetica,sans-Serif" font-size="10.00">/MenuList/ColorSelect.cpp</text>
</a>
</g>
</g>
<!-- Node1&#45;&gt;Node4 -->
<g id="edge3" class="edge">
<title>Node1&#45;&gt;Node4</title>
<path fill="none" stroke="midnightblue" d="M2384.35,-148.64C2093.79,-148.88 1014.81,-146.41 677,-98 578.65,-83.91 466.71,-50.01 407.63,-30.66"/>
<polygon fill="midnightblue" stroke="midnightblue" points="2384.76,-152.14 2394.75,-148.63 2384.75,-145.14 2384.76,-152.14"/>
</g>
<!-- Node5 -->
<g id="node5" class="node">
<title>Node5</title>
<g id="a_node5"><a xlink:href="EditorConnection_8cpp.html" target="_top" xlink:title=" ">
<polygon fill="none" stroke="black" points="456,-0.5 456,-30.5 626,-30.5 626,-0.5 456,-0.5"/>
<text text-anchor="start" x="464" y="-18.5" font-family="Helvetica,sans-Serif" font-size="10.00">VortexEngine/src/Menus</text>
<text text-anchor="middle" x="541" y="-7.5" font-family="Helvetica,sans-Serif" font-size="10.00">/MenuList/EditorConnection.cpp</text>
</a>
</g>
</g>
<!-- Node1&#45;&gt;Node5 -->
<g id="edge4" class="edge">
<title>Node1&#45;&gt;Node5</title>
<path fill="none" stroke="midnightblue" d="M2384.5,-148.87C2107.44,-149.88 1115.54,-149.71 805,-98 720.54,-83.94 625.51,-49.86 575.71,-30.52"/>
<polygon fill="midnightblue" stroke="midnightblue" points="2384.85,-152.37 2394.83,-148.83 2384.82,-145.37 2384.85,-152.37"/>
</g>
<!-- Node6 -->
<g id="node6" class="node">
<title>Node6</title>
<g id="a_node6"><a xlink:href="FactoryReset_8cpp.html" target="_top" xlink:title=" ">
<polygon fill="none" stroke="black" points="644,-0.5 644,-30.5 794,-30.5 794,-0.5 644,-0.5"/>
<text text-anchor="start" x="652" y="-18.5" font-family="Helvetica,sans-Serif" font-size="10.00">VortexEngine/src/Menus</text>
<text text-anchor="middle" x="719" y="-7.5" font-family="Helvetica,sans-Serif" font-size="10.00">/MenuList/FactoryReset.cpp</text>
</a>
</g>
</g>
<!-- Node1&#45;&gt;Node6 -->
<g id="edge5" class="edge">
<title>Node1&#45;&gt;Node6</title>
<path fill="none" stroke="midnightblue" d="M2384.49,-147.9C2095.82,-145.27 1036.92,-133.3 891,-98 833.67,-84.13 772.67,-49.98 740.98,-30.57"/>
<polygon fill="midnightblue" stroke="midnightblue" points="2384.8,-151.4 2394.83,-147.99 2384.87,-144.4 2384.8,-151.4"/>
</g>
<!-- Node7 -->
<g id="node7" class="node">
<title>Node7</title>
<g id="a_node7"><a xlink:href="GlobalBrightness_8cpp.html" target="_top" xlink:title=" ">
<polygon fill="none" stroke="black" points="812,-0.5 812,-30.5 982,-30.5 982,-0.5 812,-0.5"/>
<text text-anchor="start" x="820" y="-18.5" font-family="Helvetica,sans-Serif" font-size="10.00">VortexEngine/src/Menus</text>
<text text-anchor="middle" x="897" y="-7.5" font-family="Helvetica,sans-Serif" font-size="10.00">/MenuList/GlobalBrightness.cpp</text>
</a>
</g>
</g>
<!-- Node1&#45;&gt;Node7 -->
<g id="edge6" class="edge">
<title>Node1&#45;&gt;Node7</title>
<path fill="none" stroke="midnightblue" d="M2384.32,-148.68C2085.65,-149.07 965.87,-147.26 910,-98 891.09,-81.32 892.03,-49.05 894.47,-30.52"/>
<polygon fill="midnightblue" stroke="midnightblue" points="2384.6,-152.18 2394.6,-148.66 2384.59,-145.18 2384.6,-152.18"/>
</g>
<!-- Node8 -->
<g id="node8" class="node">
<title>Node8</title>
<g id="a_node8"><a xlink:href="ModeSharing_8cpp.html" target="_top" xlink:title=" ">
<polygon fill="none" stroke="black" points="1000.5,-0.5 1000.5,-30.5 1151.5,-30.5 1151.5,-0.5 1000.5,-0.5"/>
<text text-anchor="start" x="1008.5" y="-18.5" font-family="Helvetica,sans-Serif" font-size="10.00">VortexEngine/src/Menus</text>
<text text-anchor="middle" x="1076" y="-7.5" font-family="Helvetica,sans-Serif" font-size="10.00">/MenuList/ModeSharing.cpp</text>
</a>
</g>
</g>
<!-- Node1&#45;&gt;Node8 -->
<g id="edge7" class="edge">
<title>Node1&#45;&gt;Node8</title>
<path fill="none" stroke="midnightblue" d="M2384.68,-147.8C2134.58,-145.06 1315.47,-133.46 1203,-98 1158.53,-83.98 1114.5,-50.05 1091.8,-30.68"/>
<polygon fill="midnightblue" stroke="midnightblue" points="2384.71,-151.3 2394.75,-147.91 2384.79,-144.3 2384.71,-151.3"/>
</g>
<!-- Node9 -->
<g id="node9" class="node">
<title>Node9</title>
<g id="a_node9"><a xlink:href="PatternSelect_8cpp.html" target="_top" xlink:title=" ">
<polygon fill="none" stroke="black" points="1170,-0.5 1170,-30.5 1322,-30.5 1322,-0.5 1170,-0.5"/>
<text text-anchor="start" x="1178" y="-18.5" font-family="Helvetica,sans-Serif" font-size="10.00">VortexEngine/src/Menus</text>
<text text-anchor="middle" x="1246" y="-7.5" font-family="Helvetica,sans-Serif" font-size="10.00">/MenuList/PatternSelect.cpp</text>
</a>
</g>
</g>
<!-- Node1&#45;&gt;Node9 -->
<g id="edge8" class="edge">
<title>Node1&#45;&gt;Node9</title>
<path fill="none" stroke="midnightblue" d="M2384.65,-148.29C2125.2,-147.21 1254.71,-140.4 1214,-98 1195.79,-79.03 1216.8,-48.48 1232.35,-30.66"/>
<polygon fill="midnightblue" stroke="midnightblue" points="2384.7,-151.79 2394.72,-148.33 2384.73,-144.79 2384.7,-151.79"/>
</g>
<!-- Node10 -->
<g id="node10" class="node">
<title>Node10</title>
<g id="a_node10"><a xlink:href="Randomizer_8cpp.html" target="_top" xlink:title=" ">
<polygon fill="none" stroke="black" points="1340.5,-0.5 1340.5,-30.5 1485.5,-30.5 1485.5,-0.5 1340.5,-0.5"/>
<text text-anchor="start" x="1348.5" y="-18.5" font-family="Helvetica,sans-Serif" font-size="10.00">VortexEngine/src/Menus</text>
<text text-anchor="middle" x="1413" y="-7.5" font-family="Helvetica,sans-Serif" font-size="10.00">/MenuList/Randomizer.cpp</text>
</a>
</g>
</g>
<!-- Node1&#45;&gt;Node10 -->
<g id="edge9" class="edge">
<title>Node1&#45;&gt;Node10</title>
<path fill="none" stroke="midnightblue" d="M2384.79,-148.27C2126.89,-147.1 1264.35,-140.04 1224,-98 1214.46,-88.06 1215.61,-77.93 1224,-67 1231.67,-57.02 1293.84,-41.66 1344.81,-30.5"/>
<polygon fill="midnightblue" stroke="midnightblue" points="2384.79,-151.77 2394.8,-148.31 2384.82,-144.77 2384.79,-151.77"/>
</g>
<!-- Node11 -->
<g id="node11" class="node">
<title>Node11</title>
<g id="a_node11"><a xlink:href="Menus_8cpp.html" target="_top" xlink:title=" ">
<polygon fill="none" stroke="black" points="1504,-0.5 1504,-30.5 1638,-30.5 1638,-0.5 1504,-0.5"/>
<text text-anchor="start" x="1512" y="-18.5" font-family="Helvetica,sans-Serif" font-size="10.00">VortexEngine/src/Menus</text>
<text text-anchor="middle" x="1571" y="-7.5" font-family="Helvetica,sans-Serif" font-size="10.00">/Menus.cpp</text>
</a>
</g>
</g>
<!-- Node1&#45;&gt;Node11 -->
<g id="edge10" class="edge">
<title>Node1&#45;&gt;Node11</title>
<path fill="none" stroke="midnightblue" d="M2384.75,-148.16C2132.59,-146.62 1304.82,-138.5 1266,-98 1146.82,26.34 922.72,-130.55 1495,-31 1497.91,-30.49 1500.88,-29.97 1503.88,-29.43"/>
<polygon fill="midnightblue" stroke="midnightblue" points="2384.88,-151.66 2394.9,-148.22 2384.92,-144.66 2384.88,-151.66"/>
</g>
<!-- Node12 -->
<g id="node12" class="node">
<title>Node12</title>
<g id="a_node12"><a xlink:href="Mode_8cpp.html" target="_top" xlink:title=" ">
<polygon fill="none" stroke="black" points="1299,-67.5 1299,-97.5 1433,-97.5 1433,-67.5 1299,-67.5"/>
<text text-anchor="start" x="1307" y="-85.5" font-family="Helvetica,sans-Serif" font-size="10.00">VortexEngine/src/Modes</text>
<text text-anchor="middle" x="1366" y="-74.5" font-family="Helvetica,sans-Serif" font-size="10.00">/Mode.cpp</text>
</a>
</g>
</g>
<!-- Node1&#45;&gt;Node12 -->
<g id="edge11" class="edge">
<title>Node1&#45;&gt;Node12</title>
<path fill="none" stroke="midnightblue" d="M2384.61,-148.28C2217.9,-147.02 1794.25,-139.62 1443,-98 1439.76,-97.62 1436.45,-97.18 1433.11,-96.7"/>
<polygon fill="midnightblue" stroke="midnightblue" points="2384.71,-151.78 2394.74,-148.35 2384.76,-144.78 2384.71,-151.78"/>
</g>
<!-- Node13 -->
<g id="node13" class="node">
<title>Node13</title>
<g id="a_node13"><a xlink:href="Modes_8cpp.html" target="_top" xlink:title=" ">
<polygon fill="none" stroke="black" points="1656,-0.5 1656,-30.5 1790,-30.5 1790,-0.5 1656,-0.5"/>
<text text-anchor="start" x="1664" y="-18.5" font-family="Helvetica,sans-Serif" font-size="10.00">VortexEngine/src/Modes</text>
<text text-anchor="middle" x="1723" y="-7.5" font-family="Helvetica,sans-Serif" font-size="10.00">/Modes.cpp</text>
</a>
</g>
</g>
<!-- Node1&#45;&gt;Node13 -->
<g id="edge12" class="edge">
<title>Node1&#45;&gt;Node13</title>
<path fill="none" stroke="midnightblue" d="M2384.62,-148.13C2134,-146.48 1316.38,-138.06 1278,-98 1268.47,-88.05 1268.74,-77.2 1278,-67 1305.68,-36.49 1606.23,-36.87 1647,-31 1649.93,-30.58 1652.91,-30.12 1655.92,-29.64"/>
<polygon fill="midnightblue" stroke="midnightblue" points="2384.69,-151.63 2394.71,-148.19 2384.73,-144.63 2384.69,-151.63"/>
</g>
<!-- Node14 -->
<g id="node14" class="node">
<title>Node14</title>
<g id="a_node14"><a xlink:href="Modes_8h.html" target="_top" xlink:title=" ">
<polygon fill="none" stroke="black" points="919,-67.5 919,-97.5 1053,-97.5 1053,-67.5 919,-67.5"/>
<text text-anchor="start" x="927" y="-85.5" font-family="Helvetica,sans-Serif" font-size="10.00">VortexEngine/src/Modes</text>
<text text-anchor="middle" x="986" y="-74.5" font-family="Helvetica,sans-Serif" font-size="10.00">/Modes.h</text>
</a>
</g>
</g>
<!-- Node1&#45;&gt;Node14 -->
<g id="edge13" class="edge">
<title>Node1&#45;&gt;Node14</title>
<path fill="none" stroke="midnightblue" d="M2384.44,-147.21C2136.84,-142.62 1326.19,-125.77 1067,-98 1062.45,-97.51 1057.78,-96.92 1053.08,-96.26"/>
<polygon fill="midnightblue" stroke="midnightblue" points="2384.7,-150.72 2394.76,-147.41 2384.83,-143.72 2384.7,-150.72"/>
</g>
<!-- Node15 -->
<g id="node15" class="node">
<title>Node15</title>
<g id="a_node15"><a xlink:href="VortexEngine_8cpp.html" target="_top" xlink:title=" ">
<polygon fill="none" stroke="black" points="1808,-6 1808,-25 1994,-25 1994,-6 1808,-6"/>
<text text-anchor="middle" x="1901" y="-13" font-family="Helvetica,sans-Serif" font-size="10.00">VortexEngine/src/VortexEngine.cpp</text>
</a>
</g>
</g>
<!-- Node1&#45;&gt;Node15 -->
<g id="edge50" class="edge">
<title>Node1&#45;&gt;Node15</title>
<path fill="none" stroke="midnightblue" d="M2384.93,-148.1C2136.36,-146.35 1327.96,-137.64 1290,-98 1280.47,-88.05 1280.61,-77.08 1290,-67 1328.65,-25.52 1742.62,-36.99 1799,-31 1814.39,-29.36 1831.02,-27.18 1846.3,-25"/>
<polygon fill="midnightblue" stroke="midnightblue" points="2384.92,-151.6 2394.94,-148.16 2384.97,-144.6 2384.92,-151.6"/>
</g>
<!-- Node16 -->
<g id="node16" class="node">
<title>Node16</title>
<g id="a_node16"><a xlink:href="BlinkStepPattern_8cpp.html" target="_top" xlink:title=" ">
<polygon fill="none" stroke="black" points="1451.5,-67.5 1451.5,-97.5 1600.5,-97.5 1600.5,-67.5 1451.5,-67.5"/>
<text text-anchor="start" x="1459.5" y="-85.5" font-family="Helvetica,sans-Serif" font-size="10.00">VortexEngine/src/Patterns</text>
<text text-anchor="middle" x="1526" y="-74.5" font-family="Helvetica,sans-Serif" font-size="10.00">/Multi/BlinkStepPattern.cpp</text>
</a>
</g>
</g>
<!-- Node1&#45;&gt;Node16 -->
<g id="edge26" class="edge">
<title>Node1&#45;&gt;Node16</title>
<path fill="none" stroke="midnightblue" d="M2384.68,-146.9C2238.1,-143.07 1895.63,-131.06 1610,-98 1606.91,-97.64 1603.77,-97.25 1600.59,-96.82"/>
<polygon fill="midnightblue" stroke="midnightblue" points="2384.81,-150.41 2394.89,-147.16 2384.98,-143.41 2384.81,-150.41"/>
</g>
<!-- Node17 -->
<g id="node17" class="node">
<title>Node17</title>
<g id="a_node17"><a xlink:href="BouncePattern_8cpp.html" target="_top" xlink:title=" ">
<polygon fill="none" stroke="black" points="1618.5,-67.5 1618.5,-97.5 1759.5,-97.5 1759.5,-67.5 1618.5,-67.5"/>
<text text-anchor="start" x="1626.5" y="-85.5" font-family="Helvetica,sans-Serif" font-size="10.00">VortexEngine/src/Patterns</text>
<text text-anchor="middle" x="1689" y="-74.5" font-family="Helvetica,sans-Serif" font-size="10.00">/Multi/BouncePattern.cpp</text>
</a>
</g>
</g>
<!-- Node1&#45;&gt;Node17 -->
<g id="edge27" class="edge">
<title>Node1&#45;&gt;Node17</title>
<path fill="none" stroke="midnightblue" d="M2384.37,-145.7C2258.61,-140.3 1992.33,-126.35 1769,-98 1765.92,-97.61 1762.78,-97.18 1759.61,-96.72"/>
<polygon fill="midnightblue" stroke="midnightblue" points="2384.5,-149.21 2394.64,-146.14 2384.8,-142.22 2384.5,-149.21"/>
</g>
<!-- Node18 -->
<g id="node18" class="node">
<title>Node18</title>
<g id="a_node18"><a xlink:href="CrossDopsPattern_8cpp.html" target="_top" xlink:title=" ">
<polygon fill="none" stroke="black" points="1778,-67.5 1778,-97.5 1932,-97.5 1932,-67.5 1778,-67.5"/>
<text text-anchor="start" x="1786" y="-85.5" font-family="Helvetica,sans-Serif" font-size="10.00">VortexEngine/src/Patterns</text>
<text text-anchor="middle" x="1855" y="-74.5" font-family="Helvetica,sans-Serif" font-size="10.00">/Multi/CrossDopsPattern.cpp</text>
</a>
</g>
</g>
<!-- Node1&#45;&gt;Node18 -->
<g id="edge28" class="edge">
<title>Node1&#45;&gt;Node18</title>
<path fill="none" stroke="midnightblue" d="M2384.9,-143.03C2284.98,-135.1 2098.86,-119.01 1941,-98 1938.15,-97.62 1935.25,-97.22 1932.32,-96.8"/>
<polygon fill="midnightblue" stroke="midnightblue" points="2384.64,-146.52 2394.89,-143.82 2385.19,-139.55 2384.64,-146.52"/>
</g>
<!-- Node19 -->
<g id="node19" class="node">
<title>Node19</title>
<g id="a_node19"><a xlink:href="DoubleStrobePattern_8cpp.html" target="_top" xlink:title=" ">
<polygon fill="none" stroke="black" points="1950,-67.5 1950,-97.5 2118,-97.5 2118,-67.5 1950,-67.5"/>
<text text-anchor="start" x="1958" y="-85.5" font-family="Helvetica,sans-Serif" font-size="10.00">VortexEngine/src/Patterns</text>
<text text-anchor="middle" x="2034" y="-74.5" font-family="Helvetica,sans-Serif" font-size="10.00">/Multi/DoubleStrobePattern.cpp</text>
</a>
</g>
</g>
<!-- Node1&#45;&gt;Node19 -->
<g id="edge29" class="edge">
<title>Node1&#45;&gt;Node19</title>
<path fill="none" stroke="midnightblue" d="M2384.86,-137.44C2318.2,-127.22 2216.42,-111.6 2128,-98 2124.74,-97.5 2121.41,-96.99 2118.05,-96.47"/>
<polygon fill="midnightblue" stroke="midnightblue" points="2384.43,-140.92 2394.84,-138.97 2385.49,-134 2384.43,-140.92"/>
</g>
<!-- Node20 -->
<g id="node20" class="node">
<title>Node20</title>
<g id="a_node20"><a xlink:href="DripMorphPattern_8cpp.html" target="_top" xlink:title=" ">
<polygon fill="none" stroke="black" points="2136.5,-67.5 2136.5,-97.5 2289.5,-97.5 2289.5,-67.5 2136.5,-67.5"/>
<text text-anchor="start" x="2144.5" y="-85.5" font-family="Helvetica,sans-Serif" font-size="10.00">VortexEngine/src/Patterns</text>
<text text-anchor="middle" x="2213" y="-74.5" font-family="Helvetica,sans-Serif" font-size="10.00">/Multi/DripMorphPattern.cpp</text>
</a>
</g>
</g>
<!-- Node1&#45;&gt;Node20 -->
<g id="edge30" class="edge">
<title>Node1&#45;&gt;Node20</title>
<path fill="none" stroke="midnightblue" d="M2394.5,-131.85C2354.72,-121.25 2303.76,-107.68 2265.97,-97.61"/>
<polygon fill="midnightblue" stroke="midnightblue" points="2393.79,-135.28 2404.36,-134.48 2395.59,-128.52 2393.79,-135.28"/>
</g>
<!-- Node21 -->
<g id="node21" class="node">
<title>Node21</title>
<g id="a_node21"><a xlink:href="DripPattern_8cpp.html" target="_top" xlink:title=" ">
<polygon fill="none" stroke="black" points="2307.5,-67.5 2307.5,-97.5 2448.5,-97.5 2448.5,-67.5 2307.5,-67.5"/>
<text text-anchor="start" x="2315.5" y="-85.5" font-family="Helvetica,sans-Serif" font-size="10.00">VortexEngine/src/Patterns</text>
<text text-anchor="middle" x="2378" y="-74.5" font-family="Helvetica,sans-Serif" font-size="10.00">/Multi/DripPattern.cpp</text>
</a>
</g>
</g>
<!-- Node1&#45;&gt;Node21 -->
<g id="edge31" class="edge">
<title>Node1&#45;&gt;Node21</title>
<path fill="none" stroke="midnightblue" d="M2431.94,-127.88C2419.94,-118.01 2405.87,-106.43 2395.11,-97.58"/>
<polygon fill="midnightblue" stroke="midnightblue" points="2429.91,-130.75 2439.86,-134.4 2434.36,-125.34 2429.91,-130.75"/>
</g>
<!-- Node22 -->
<g id="node22" class="node">
<title>Node22</title>
<g id="a_node22"><a xlink:href="FillPattern_8cpp.html" target="_top" xlink:title=" ">
<polygon fill="none" stroke="black" points="2466.5,-67.5 2466.5,-97.5 2607.5,-97.5 2607.5,-67.5 2466.5,-67.5"/>
<text text-anchor="start" x="2474.5" y="-85.5" font-family="Helvetica,sans-Serif" font-size="10.00">VortexEngine/src/Patterns</text>
<text text-anchor="middle" x="2537" y="-74.5" font-family="Helvetica,sans-Serif" font-size="10.00">/Multi/FillPattern.cpp</text>
</a>
</g>
</g>
<!-- Node1&#45;&gt;Node22 -->
<g id="edge32" class="edge">
<title>Node1&#45;&gt;Node22</title>
<path fill="none" stroke="midnightblue" d="M2482.37,-127.88C2494.53,-118.01 2508.78,-106.43 2519.68,-97.58"/>
<polygon fill="midnightblue" stroke="midnightblue" points="2479.91,-125.37 2474.36,-134.4 2484.33,-130.81 2479.91,-125.37"/>
</g>
<!-- Node23 -->
<g id="node23" class="node">
<title>Node23</title>
<g id="a_node23"><a xlink:href="HueShiftPattern_8cpp.html" target="_top" xlink:title=" ">
<polygon fill="none" stroke="black" points="2625.5,-67.5 2625.5,-97.5 2768.5,-97.5 2768.5,-67.5 2625.5,-67.5"/>
<text text-anchor="start" x="2633.5" y="-85.5" font-family="Helvetica,sans-Serif" font-size="10.00">VortexEngine/src/Patterns</text>
<text text-anchor="middle" x="2697" y="-74.5" font-family="Helvetica,sans-Serif" font-size="10.00">/Multi/HueShiftPattern.cpp</text>
</a>
</g>
</g>
<!-- Node1&#45;&gt;Node23 -->
<g id="edge33" class="edge">
<title>Node1&#45;&gt;Node23</title>
<path fill="none" stroke="midnightblue" d="M2518.48,-131.85C2557.61,-121.25 2607.73,-107.68 2644.9,-97.61"/>
<polygon fill="midnightblue" stroke="midnightblue" points="2517.52,-128.48 2508.78,-134.48 2519.35,-135.24 2517.52,-128.48"/>
</g>
<!-- Node24 -->
<g id="node24" class="node">
<title>Node24</title>
<g id="a_node24"><a xlink:href="LighthousePattern_8cpp.html" target="_top" xlink:title=" ">
<polygon fill="none" stroke="black" points="2786.5,-67.5 2786.5,-97.5 2941.5,-97.5 2941.5,-67.5 2786.5,-67.5"/>
<text text-anchor="start" x="2794.5" y="-85.5" font-family="Helvetica,sans-Serif" font-size="10.00">VortexEngine/src/Patterns</text>
<text text-anchor="middle" x="2864" y="-74.5" font-family="Helvetica,sans-Serif" font-size="10.00">/Multi/LighthousePattern.cpp</text>
</a>
</g>
</g>
<!-- Node1&#45;&gt;Node24 -->
<g id="edge34" class="edge">
<title>Node1&#45;&gt;Node24</title>
<path fill="none" stroke="midnightblue" d="M2529.32,-137.35C2594.41,-127.27 2692.64,-111.91 2778,-98 2780.69,-97.56 2783.43,-97.11 2786.19,-96.66"/>
<polygon fill="midnightblue" stroke="midnightblue" points="2528.52,-133.94 2519.17,-138.93 2529.59,-140.86 2528.52,-133.94"/>
</g>
<!-- Node25 -->
<g id="node25" class="node">
<title>Node25</title>
<g id="a_node25"><a xlink:href="MateriaPattern_8cpp.html" target="_top" xlink:title=" ">
<polygon fill="none" stroke="black" points="2959.5,-67.5 2959.5,-97.5 3100.5,-97.5 3100.5,-67.5 2959.5,-67.5"/>
<text text-anchor="start" x="2967.5" y="-85.5" font-family="Helvetica,sans-Serif" font-size="10.00">VortexEngine/src/Patterns</text>
<text text-anchor="middle" x="3030" y="-74.5" font-family="Helvetica,sans-Serif" font-size="10.00">/Multi/MateriaPattern.cpp</text>
</a>
</g>
</g>
<!-- Node1&#45;&gt;Node25 -->
<g id="edge35" class="edge">
<title>Node1&#45;&gt;Node25</title>
<path fill="none" stroke="midnightblue" d="M2529.42,-142.91C2625.88,-135.06 2801.75,-119.29 2951,-98 2953.76,-97.61 2956.57,-97.19 2959.41,-96.74"/>
<polygon fill="midnightblue" stroke="midnightblue" points="2528.88,-139.45 2519.19,-143.74 2529.44,-146.42 2528.88,-139.45"/>
</g>
<!-- Node26 -->
<g id="node26" class="node">
<title>Node26</title>
<g id="a_node26"><a xlink:href="MeteorPattern_8cpp.html" target="_top" xlink:title=" ">
<polygon fill="none" stroke="black" points="3118.5,-67.5 3118.5,-97.5 3259.5,-97.5 3259.5,-67.5 3118.5,-67.5"/>
<text text-anchor="start" x="3126.5" y="-85.5" font-family="Helvetica,sans-Serif" font-size="10.00">VortexEngine/src/Patterns</text>
<text text-anchor="middle" x="3189" y="-74.5" font-family="Helvetica,sans-Serif" font-size="10.00">/Multi/MeteorPattern.cpp</text>
</a>
</g>
</g>
<!-- Node1&#45;&gt;Node26 -->
<g id="edge36" class="edge">
<title>Node1&#45;&gt;Node26</title>
<path fill="none" stroke="midnightblue" d="M2529.58,-145.36C2650.39,-139.59 2900.19,-125.29 3110,-98 3112.77,-97.64 3115.58,-97.25 3118.42,-96.83"/>
<polygon fill="midnightblue" stroke="midnightblue" points="2529.17,-141.88 2519.35,-145.85 2529.5,-148.87 2529.17,-141.88"/>
</g>
<!-- Node27 -->
<g id="node27" class="node">
<title>Node27</title>
<g id="a_node27"><a xlink:href="PulsishPattern_8cpp.html" target="_top" xlink:title=" ">
<polygon fill="none" stroke="black" points="3277.5,-67.5 3277.5,-97.5 3418.5,-97.5 3418.5,-67.5 3277.5,-67.5"/>
<text text-anchor="start" x="3285.5" y="-85.5" font-family="Helvetica,sans-Serif" font-size="10.00">VortexEngine/src/Patterns</text>
<text text-anchor="middle" x="3348" y="-74.5" font-family="Helvetica,sans-Serif" font-size="10.00">/Multi/PulsishPattern.cpp</text>
</a>
</g>
</g>
<!-- Node1&#45;&gt;Node27 -->
<g id="edge37" class="edge">
<title>Node1&#45;&gt;Node27</title>
<path fill="none" stroke="midnightblue" d="M2529.45,-146.89C2671.7,-143.1 2997.33,-131.26 3269,-98 3271.77,-97.66 3274.59,-97.29 3277.43,-96.88"/>
<polygon fill="midnightblue" stroke="midnightblue" points="2529.02,-143.4 2519.12,-147.16 2529.2,-150.4 2529.02,-143.4"/>
</g>
<!-- Node28 -->
<g id="node28" class="node">
<title>Node28</title>
<g id="a_node28"><a xlink:href="Sequence_8cpp.html" target="_top" xlink:title=" ">
<polygon fill="none" stroke="black" points="3436.5,-67.5 3436.5,-97.5 3605.5,-97.5 3605.5,-67.5 3436.5,-67.5"/>
<text text-anchor="start" x="3444.5" y="-85.5" font-family="Helvetica,sans-Serif" font-size="10.00">VortexEngine/src/Patterns</text>
<text text-anchor="middle" x="3521" y="-74.5" font-family="Helvetica,sans-Serif" font-size="10.00">/Multi/Sequencer/Sequence.cpp</text>
</a>
</g>
</g>
<!-- Node1&#45;&gt;Node28 -->
<g id="edge38" class="edge">
<title>Node1&#45;&gt;Node28</title>
<path fill="none" stroke="midnightblue" d="M2529.38,-147.28C2690.97,-143.98 3093.25,-132.71 3428,-98 3430.76,-97.71 3433.57,-97.4 3436.4,-97.07"/>
<polygon fill="midnightblue" stroke="midnightblue" points="2529.01,-143.78 2519.08,-147.48 2529.15,-150.78 2529.01,-143.78"/>
</g>
<!-- Node29 -->
<g id="node29" class="node">
<title>Node29</title>
<g id="a_node29"><a xlink:href="SequencedPattern_8cpp.html" target="_top" xlink:title=" ">
<polygon fill="none" stroke="black" points="3623.5,-67.5 3623.5,-97.5 3832.5,-97.5 3832.5,-67.5 3623.5,-67.5"/>
<text text-anchor="start" x="3631.5" y="-85.5" font-family="Helvetica,sans-Serif" font-size="10.00">VortexEngine/src/Patterns</text>
<text text-anchor="middle" x="3728" y="-74.5" font-family="Helvetica,sans-Serif" font-size="10.00">/Multi/Sequencer/SequencedPattern.cpp</text>
</a>
</g>
</g>
<!-- Node1&#45;&gt;Node29 -->
<g id="edge39" class="edge">
<title>Node1&#45;&gt;Node29</title>
<path fill="none" stroke="midnightblue" d="M2529.26,-147.46C2711.63,-144.37 3205.21,-133.16 3615,-98 3617.76,-97.76 3620.55,-97.51 3623.37,-97.24"/>
<polygon fill="midnightblue" stroke="midnightblue" points="2529.2,-143.96 2519.26,-147.62 2529.31,-150.96 2529.2,-143.96"/>
</g>
<!-- Node30 -->
<g id="node30" class="node">
<title>Node30</title>
<g id="a_node30"><a xlink:href="SnowballPattern_8cpp.html" target="_top" xlink:title=" ">
<polygon fill="none" stroke="black" points="3851,-67.5 3851,-97.5 3997,-97.5 3997,-67.5 3851,-67.5"/>
<text text-anchor="start" x="3859" y="-85.5" font-family="Helvetica,sans-Serif" font-size="10.00">VortexEngine/src/Patterns</text>
<text text-anchor="middle" x="3924" y="-74.5" font-family="Helvetica,sans-Serif" font-size="10.00">/Multi/SnowballPattern.cpp</text>
</a>
</g>
</g>
<!-- Node1&#45;&gt;Node30 -->
<g id="edge40" class="edge">
<title>Node1&#45;&gt;Node30</title>
<path fill="none" stroke="midnightblue" d="M2529.29,-147.19C2776,-142.51 3583.71,-125.41 3842,-98 3844.88,-97.69 3847.8,-97.35 3850.75,-96.97"/>
<polygon fill="midnightblue" stroke="midnightblue" points="2528.95,-143.69 2519.01,-147.38 2529.08,-150.69 2528.95,-143.69"/>
</g>
<!-- Node31 -->
<g id="node31" class="node">
<title>Node31</title>
<g id="a_node31"><a xlink:href="SparkleTracePattern_8cpp.html" target="_top" xlink:title=" ">
<polygon fill="none" stroke="black" points="4015,-67.5 4015,-97.5 4179,-97.5 4179,-67.5 4015,-67.5"/>
<text text-anchor="start" x="4023" y="-85.5" font-family="Helvetica,sans-Serif" font-size="10.00">VortexEngine/src/Patterns</text>
<text text-anchor="middle" x="4097" y="-74.5" font-family="Helvetica,sans-Serif" font-size="10.00">/Multi/SparkleTracePattern.cpp</text>
</a>
</g>
</g>
<!-- Node1&#45;&gt;Node31 -->
<g id="edge41" class="edge">
<title>Node1&#45;&gt;Node31</title>
<path fill="none" stroke="midnightblue" d="M2529.64,-147.34C2795.33,-142.92 3713.93,-125.92 4006,-98 4008.87,-97.73 4011.78,-97.42 4014.72,-97.08"/>
<polygon fill="midnightblue" stroke="midnightblue" points="2529.29,-143.85 2519.35,-147.51 2529.4,-150.85 2529.29,-143.85"/>
</g>
<!-- Node32 -->
<g id="node32" class="node">
<title>Node32</title>
<g id="a_node32"><a xlink:href="TheaterChasePattern_8cpp.html" target="_top" xlink:title=" ">
<polygon fill="none" stroke="black" points="4197,-67.5 4197,-97.5 4367,-97.5 4367,-67.5 4197,-67.5"/>
<text text-anchor="start" x="4205" y="-85.5" font-family="Helvetica,sans-Serif" font-size="10.00">VortexEngine/src/Patterns</text>
<text text-anchor="middle" x="4282" y="-74.5" font-family="Helvetica,sans-Serif" font-size="10.00">/Multi/TheaterChasePattern.cpp</text>
</a>
</g>
</g>
<!-- Node1&#45;&gt;Node32 -->
<g id="edge42" class="edge">
<title>Node1&#45;&gt;Node32</title>
<path fill="none" stroke="midnightblue" d="M2529.45,-147.58C2814.35,-143.8 3858.24,-128.13 4188,-98 4190.88,-97.74 4193.8,-97.44 4196.75,-97.12"/>
<polygon fill="midnightblue" stroke="midnightblue" points="2529.19,-144.09 2519.23,-147.72 2529.28,-151.09 2529.19,-144.09"/>
</g>
<!-- Node33 -->
<g id="node33" class="node">
<title>Node33</title>
<g id="a_node33"><a xlink:href="VortexWipePattern_8cpp.html" target="_top" xlink:title=" ">
<polygon fill="none" stroke="black" points="4385,-67.5 4385,-97.5 4543,-97.5 4543,-67.5 4385,-67.5"/>
<text text-anchor="start" x="4393" y="-85.5" font-family="Helvetica,sans-Serif" font-size="10.00">VortexEngine/src/Patterns</text>
<text text-anchor="middle" x="4464" y="-74.5" font-family="Helvetica,sans-Serif" font-size="10.00">/Multi/VortexWipePattern.cpp</text>
</a>
</g>
</g>
<!-- Node1&#45;&gt;Node33 -->
<g id="edge43" class="edge">
<title>Node1&#45;&gt;Node33</title>
<path fill="none" stroke="midnightblue" d="M2529.14,-147.93C2832.67,-145.3 4007.35,-133.06 4376,-98 4378.93,-97.72 4381.91,-97.4 4384.91,-97.06"/>
<polygon fill="midnightblue" stroke="midnightblue" points="2529.11,-144.43 2519.14,-148.01 2529.17,-151.43 2529.11,-144.43"/>
</g>
<!-- Node34 -->
<g id="node34" class="node">
<title>Node34</title>
<g id="a_node34"><a xlink:href="WarpPattern_8cpp.html" target="_top" xlink:title=" ">
<polygon fill="none" stroke="black" points="4561.5,-67.5 4561.5,-97.5 4702.5,-97.5 4702.5,-67.5 4561.5,-67.5"/>
<text text-anchor="start" x="4569.5" y="-85.5" font-family="Helvetica,sans-Serif" font-size="10.00">VortexEngine/src/Patterns</text>
<text text-anchor="middle" x="4632" y="-74.5" font-family="Helvetica,sans-Serif" font-size="10.00">/Multi/WarpPattern.cpp</text>
</a>
</g>
</g>
<!-- Node1&#45;&gt;Node34 -->
<g id="edge44" class="edge">
<title>Node1&#45;&gt;Node34</title>
<path fill="none" stroke="midnightblue" d="M2529.32,-148.26C2850.2,-146.99 4147.18,-139.31 4552,-98 4555.09,-97.68 4558.24,-97.32 4561.41,-96.91"/>
<polygon fill="midnightblue" stroke="midnightblue" points="2529.2,-144.76 2519.22,-148.3 2529.23,-151.76 2529.2,-144.76"/>
</g>
<!-- Node35 -->
<g id="node35" class="node">
<title>Node35</title>
<g id="a_node35"><a xlink:href="WarpWormPattern_8cpp.html" target="_top" xlink:title=" ">
<polygon fill="none" stroke="black" points="4720.5,-67.5 4720.5,-97.5 4875.5,-97.5 4875.5,-67.5 4720.5,-67.5"/>
<text text-anchor="start" x="4728.5" y="-85.5" font-family="Helvetica,sans-Serif" font-size="10.00">VortexEngine/src/Patterns</text>
<text text-anchor="middle" x="4798" y="-74.5" font-family="Helvetica,sans-Serif" font-size="10.00">/Multi/WarpWormPattern.cpp</text>
</a>
</g>
</g>
<!-- Node1&#45;&gt;Node35 -->
<g id="edge45" class="edge">
<title>Node1&#45;&gt;Node35</title>
<path fill="none" stroke="midnightblue" d="M2529.26,-148.29C2864.86,-147.09 4273.59,-139.65 4712,-98 4714.71,-97.74 4717.47,-97.45 4720.25,-97.13"/>
<polygon fill="midnightblue" stroke="midnightblue" points="2529.16,-144.79 2519.17,-148.32 2529.19,-151.79 2529.16,-144.79"/>
</g>
<!-- Node36 -->
<g id="node36" class="node">
<title>Node36</title>
<g id="a_node36"><a xlink:href="ZigzagPattern_8cpp.html" target="_top" xlink:title=" ">
<polygon fill="none" stroke="black" points="4893.5,-67.5 4893.5,-97.5 5034.5,-97.5 5034.5,-67.5 4893.5,-67.5"/>
<text text-anchor="start" x="4901.5" y="-85.5" font-family="Helvetica,sans-Serif" font-size="10.00">VortexEngine/src/Patterns</text>
<text text-anchor="middle" x="4964" y="-74.5" font-family="Helvetica,sans-Serif" font-size="10.00">/Multi/ZigzagPattern.cpp</text>
</a>
</g>
</g>
<!-- Node1&#45;&gt;Node36 -->
<g id="edge46" class="edge">
<title>Node1&#45;&gt;Node36</title>
<path fill="none" stroke="midnightblue" d="M2529.3,-148.56C2880.5,-148.64 4410.83,-146.13 4885,-98 4887.77,-97.72 4890.6,-97.39 4893.45,-97.03"/>
<polygon fill="midnightblue" stroke="midnightblue" points="2529.26,-145.06 2519.26,-148.56 2529.26,-152.06 2529.26,-145.06"/>
</g>
<!-- Node37 -->
<g id="node37" class="node">
<title>Node37</title>
<g id="a_node37"><a xlink:href="BasicPattern_8cpp.html" target="_top" xlink:title=" ">
<polygon fill="none" stroke="black" points="5052.5,-67.5 5052.5,-97.5 5193.5,-97.5 5193.5,-67.5 5052.5,-67.5"/>
<text text-anchor="start" x="5060.5" y="-85.5" font-family="Helvetica,sans-Serif" font-size="10.00">VortexEngine/src/Patterns</text>
<text text-anchor="middle" x="5123" y="-74.5" font-family="Helvetica,sans-Serif" font-size="10.00">/Single/BasicPattern.cpp</text>
</a>
</g>
</g>
<!-- Node1&#45;&gt;Node37 -->
<g id="edge47" class="edge">
<title>Node1&#45;&gt;Node37</title>
<path fill="none" stroke="midnightblue" d="M2529.22,-148.67C2894.01,-149.3 4536.56,-149.18 5044,-98 5046.77,-97.72 5049.6,-97.4 5052.45,-97.03"/>
<polygon fill="midnightblue" stroke="midnightblue" points="2529.06,-145.17 2519.05,-148.65 2529.05,-152.17 2529.06,-145.17"/>
</g>
<!-- Node38 -->
<g id="node38" class="node">
<title>Node38</title>
<g id="a_node38"><a xlink:href="BlendPattern_8cpp.html" target="_top" xlink:title=" ">
<polygon fill="none" stroke="black" points="5211.5,-67.5 5211.5,-97.5 5352.5,-97.5 5352.5,-67.5 5211.5,-67.5"/>
<text text-anchor="start" x="5219.5" y="-85.5" font-family="Helvetica,sans-Serif" font-size="10.00">VortexEngine/src/Patterns</text>
<text text-anchor="middle" x="5282" y="-74.5" font-family="Helvetica,sans-Serif" font-size="10.00">/Single/BlendPattern.cpp</text>
</a>
</g>
</g>
<!-- Node1&#45;&gt;Node38 -->
<g id="edge48" class="edge">
<title>Node1&#45;&gt;Node38</title>
<path fill="none" stroke="midnightblue" d="M2529.31,-148.77C2907.63,-149.92 4662.31,-152.23 5203,-98 5205.77,-97.72 5208.6,-97.4 5211.45,-97.04"/>
<polygon fill="midnightblue" stroke="midnightblue" points="2529.06,-145.27 2519.05,-148.74 2529.04,-152.27 2529.06,-145.27"/>
</g>
<!-- Node39 -->
<g id="node39" class="node">
<title>Node39</title>
<g id="a_node39"><a xlink:href="TimeControl_8cpp.html" target="_top" xlink:title=" ">
<polygon fill="none" stroke="black" points="5371,-67.5 5371,-97.5 5497,-97.5 5497,-67.5 5371,-67.5"/>
<text text-anchor="start" x="5379" y="-85.5" font-family="Helvetica,sans-Serif" font-size="10.00">VortexEngine/src/Time</text>
<text text-anchor="middle" x="5434" y="-74.5" font-family="Helvetica,sans-Serif" font-size="10.00">/TimeControl.cpp</text>
</a>
</g>
</g>
<!-- Node1&#45;&gt;Node39 -->
<g id="edge49" class="edge">
<title>Node1&#45;&gt;Node39</title>
<path fill="none" stroke="midnightblue" d="M2529.42,-148.03C2950.33,-145.18 5073.09,-129.34 5362,-98 5364.92,-97.68 5367.89,-97.31 5370.88,-96.88"/>
<polygon fill="midnightblue" stroke="midnightblue" points="2529.19,-144.53 2519.21,-148.1 2529.24,-151.53 2529.19,-144.53"/>
</g>
<!-- Node40 -->
<g id="node40" class="node">
<title>Node40</title>
<g id="a_node40"><a xlink:href="VLReceiver_8cpp.html" target="_top" xlink:title=" ">
<polygon fill="none" stroke="black" points="5515.5,-67.5 5515.5,-97.5 5658.5,-97.5 5658.5,-67.5 5515.5,-67.5"/>
<text text-anchor="start" x="5523.5" y="-85.5" font-family="Helvetica,sans-Serif" font-size="10.00">VortexEngine/src/Wireless</text>
<text text-anchor="middle" x="5587" y="-74.5" font-family="Helvetica,sans-Serif" font-size="10.00">/VLReceiver.cpp</text>
</a>
</g>
</g>
<!-- Node1&#45;&gt;Node40 -->
<g id="edge51" class="edge">
<title>Node1&#45;&gt;Node40</title>
<path fill="none" stroke="midnightblue" d="M2529.5,-148C2962.82,-144.9 5201.62,-127.57 5506,-98 5508.99,-97.71 5512.03,-97.37 5515.09,-96.99"/>
<polygon fill="midnightblue" stroke="midnightblue" points="2529.28,-144.5 2519.31,-148.07 2529.33,-151.5 2529.28,-144.5"/>
</g>
<!-- Node41 -->
<g id="node41" class="node">
<title>Node41</title>
<g id="a_node41"><a xlink:href="VLSender_8cpp.html" target="_top" xlink:title=" ">
<polygon fill="none" stroke="black" points="5676.5,-67.5 5676.5,-97.5 5819.5,-97.5 5819.5,-67.5 5676.5,-67.5"/>
<text text-anchor="start" x="5684.5" y="-85.5" font-family="Helvetica,sans-Serif" font-size="10.00">VortexEngine/src/Wireless</text>
<text text-anchor="middle" x="5748" y="-74.5" font-family="Helvetica,sans-Serif" font-size="10.00">/VLSender.cpp</text>
</a>
</g>
</g>
<!-- Node1&#45;&gt;Node41 -->
<g id="edge52" class="edge">
<title>Node1&#45;&gt;Node41</title>
<path fill="none" stroke="midnightblue" d="M2529.4,-148.07C2975.86,-145.34 5346.53,-129.45 5668,-98 5670.67,-97.74 5673.38,-97.44 5676.12,-97.1"/>
<polygon fill="midnightblue" stroke="midnightblue" points="2529.19,-144.57 2519.21,-148.13 2529.23,-151.57 2529.19,-144.57"/>
</g>
<!-- Node14&#45;&gt;Node2 -->
<g id="edge14" class="edge">
<title>Node14&#45;&gt;Node2</title>
<path fill="none" stroke="midnightblue" d="M908.75,-80.6C758.64,-78.04 417.34,-68.26 133,-31 130.13,-30.62 127.2,-30.2 124.25,-29.74"/>
<polygon fill="midnightblue" stroke="midnightblue" points="908.73,-84.1 918.79,-80.77 908.85,-77.1 908.73,-84.1"/>
</g>
<!-- Node14&#45;&gt;Node3 -->
<g id="edge15" class="edge">
<title>Node14&#45;&gt;Node3</title>
<path fill="none" stroke="midnightblue" d="M908.33,-78.86C778.71,-73.8 510.28,-60.5 285,-31 282.07,-30.62 279.08,-30.19 276.07,-29.74"/>
<polygon fill="midnightblue" stroke="midnightblue" points="908.43,-82.37 918.56,-79.26 908.7,-75.38 908.43,-82.37"/>
</g>
<!-- Node14&#45;&gt;Node4 -->
<g id="edge16" class="edge">
<title>Node14&#45;&gt;Node4</title>
<path fill="none" stroke="midnightblue" d="M908.82,-76.31C803.97,-68.79 610.8,-53.3 447,-31 443.89,-30.58 440.71,-30.12 437.5,-29.63"/>
<polygon fill="midnightblue" stroke="midnightblue" points="908.77,-79.81 918.99,-77.03 909.26,-72.83 908.77,-79.81"/>
</g>
<!-- Node14&#45;&gt;Node5 -->
<g id="edge17" class="edge">
<title>Node14&#45;&gt;Node5</title>
<path fill="none" stroke="midnightblue" d="M908.46,-70.57C837.31,-60.5 729.02,-45.01 635,-31 632.06,-30.56 629.07,-30.11 626.05,-29.66"/>
<polygon fill="midnightblue" stroke="midnightblue" points="908.29,-74.09 918.68,-72.02 909.27,-67.15 908.29,-74.09"/>
</g>
<!-- Node14&#45;&gt;Node6 -->
<g id="edge18" class="edge">
<title>Node14&#45;&gt;Node6</title>
<path fill="none" stroke="midnightblue" d="M918.43,-65.05C874.78,-54.43 818.58,-40.74 776.96,-30.61"/>
<polygon fill="midnightblue" stroke="midnightblue" points="917.85,-68.51 928.39,-67.48 919.51,-61.71 917.85,-68.51"/>
</g>
<!-- Node14&#45;&gt;Node7 -->
<g id="edge19" class="edge">
<title>Node14&#45;&gt;Node7</title>
<path fill="none" stroke="midnightblue" d="M958.55,-61.45C944.86,-51.45 928.63,-39.6 916.27,-30.58"/>
<polygon fill="midnightblue" stroke="midnightblue" points="956.55,-64.32 966.69,-67.4 960.68,-58.67 956.55,-64.32"/>
</g>
<!-- Node14&#45;&gt;Node8 -->
<g id="edge20" class="edge">
<title>Node14&#45;&gt;Node8</title>
<path fill="none" stroke="midnightblue" d="M1013.76,-61.45C1027.61,-51.45 1044.02,-39.6 1056.51,-30.58"/>
<polygon fill="midnightblue" stroke="midnightblue" points="1011.59,-58.7 1005.53,-67.4 1015.68,-64.38 1011.59,-58.7"/>
</g>
<!-- Node14&#45;&gt;Node9 -->
<g id="edge21" class="edge">
<title>Node14&#45;&gt;Node9</title>
<path fill="none" stroke="midnightblue" d="M1052.06,-64.98C1094.53,-54.37 1149.12,-40.72 1189.56,-30.61"/>
<polygon fill="midnightblue" stroke="midnightblue" points="1050.95,-61.66 1042.1,-67.48 1052.65,-68.45 1050.95,-61.66"/>
</g>
<!-- Node14&#45;&gt;Node10 -->
<g id="edge22" class="edge">
<title>Node14&#45;&gt;Node10</title>
<path fill="none" stroke="midnightblue" d="M1063.26,-70.86C1133.24,-61.06 1239.16,-45.84 1331,-31 1334,-30.52 1337.05,-30.01 1340.14,-29.5"/>
<polygon fill="midnightblue" stroke="midnightblue" points="1062.62,-67.42 1053.2,-72.27 1063.58,-74.35 1062.62,-67.42"/>
</g>
<!-- Node14&#45;&gt;Node11 -->
<g id="edge23" class="edge">
<title>Node14&#45;&gt;Node11</title>
<path fill="none" stroke="midnightblue" d="M1063.36,-75.99C1163.34,-68.38 1342.69,-53.04 1495,-31 1497.92,-30.58 1500.91,-30.12 1503.92,-29.64"/>
<polygon fill="midnightblue" stroke="midnightblue" points="1063.05,-72.51 1053.34,-76.75 1063.57,-79.49 1063.05,-72.51"/>
</g>
<!-- Node14&#45;&gt;Node13 -->
<g id="edge24" class="edge">
<title>Node14&#45;&gt;Node13</title>
<path fill="none" stroke="midnightblue" d="M1063.12,-76.7C1212.44,-67.23 1536.11,-45.77 1647,-31 1649.93,-30.61 1652.92,-30.18 1655.93,-29.72"/>
<polygon fill="midnightblue" stroke="midnightblue" points="1062.86,-73.21 1053.11,-77.34 1063.31,-80.2 1062.86,-73.21"/>
</g>
<!-- Node14&#45;&gt;Node15 -->
<g id="edge25" class="edge">
<title>Node14&#45;&gt;Node15</title>
<path fill="none" stroke="midnightblue" d="M1063.2,-77.49C1237.58,-68.3 1657.7,-45.41 1799,-31 1814.57,-29.41 1831.41,-27.22 1846.84,-25.01"/>
<polygon fill="midnightblue" stroke="midnightblue" points="1062.88,-74 1053.08,-78.02 1063.25,-80.99 1062.88,-74"/>
</g>
</g>
</svg>
