<?xml version="1.0" encoding="UTF-8" standalone="no"?>
<!DOCTYPE svg PUBLIC "-//W3C//DTD SVG 1.1//EN"
 "http://www.w3.org/Graphics/SVG/1.1/DTD/svg11.dtd">
<!-- Generated by graphviz version 2.43.0 (0)
 -->
<!-- Title: VortexEngine/src/Modes/Mode.h Pages: 1 -->
<svg width="2828pt" height="240pt"
 viewBox="0.00 0.00 2827.50 240.00" xmlns="http://www.w3.org/2000/svg" xmlns:xlink="http://www.w3.org/1999/xlink">
<g id="graph0" class="graph" transform="scale(1 1) rotate(0) translate(4 236)">
<title>VortexEngine/src/Modes/Mode.h</title>
<!-- Node1 -->
<g id="node1" class="node">
<title>Node1</title>
<g id="a_node1"><a xlink:title=" ">
<polygon fill="#bfbfbf" stroke="black" points="1533,-201.5 1533,-231.5 1667,-231.5 1667,-201.5 1533,-201.5"/>
<text text-anchor="start" x="1541" y="-219.5" font-family="Helvetica,sans-Serif" font-size="10.00">VortexEngine/src/Modes</text>
<text text-anchor="middle" x="1600" y="-208.5" font-family="Helvetica,sans-Serif" font-size="10.00">/Mode.h</text>
</a>
</g>
</g>
<!-- Node2 -->
<g id="node2" class="node">
<title>Node2</title>
<g id="a_node2"><a xlink:href="Menu_8cpp.html" target="_top" xlink:title=" ">
<polygon fill="none" stroke="black" points="1291,-67.5 1291,-97.5 1425,-97.5 1425,-67.5 1291,-67.5"/>
<text text-anchor="start" x="1299" y="-85.5" font-family="Helvetica,sans-Serif" font-size="10.00">VortexEngine/src/Menus</text>
<text text-anchor="middle" x="1358" y="-74.5" font-family="Helvetica,sans-Serif" font-size="10.00">/Menu.cpp</text>
</a>
</g>
</g>
<!-- Node1&#45;&gt;Node2 -->
<g id="edge1" class="edge">
<title>Node1&#45;&gt;Node2</title>
<path fill="none" stroke="midnightblue" d="M1565.11,-196.47C1515.92,-169.64 1427.34,-121.32 1383.71,-97.52"/>
<polygon fill="midnightblue" stroke="midnightblue" points="1563.65,-199.66 1574.1,-201.37 1567,-193.51 1563.65,-199.66"/>
</g>
<!-- Node3 -->
<g id="node3" class="node">
<title>Node3</title>
<g id="a_node3"><a xlink:href="Menu_8h.html" target="_top" xlink:title=" ">
<polygon fill="none" stroke="black" points="904,-134.5 904,-164.5 1038,-164.5 1038,-134.5 904,-134.5"/>
<text text-anchor="start" x="912" y="-152.5" font-family="Helvetica,sans-Serif" font-size="10.00">VortexEngine/src/Menus</text>
<text text-anchor="middle" x="971" y="-141.5" font-family="Helvetica,sans-Serif" font-size="10.00">/Menu.h</text>
</a>
</g>
</g>
<!-- Node1&#45;&gt;Node3 -->
<g id="edge2" class="edge">
<title>Node1&#45;&gt;Node3</title>
<path fill="none" stroke="midnightblue" d="M1522.79,-207.52C1398.49,-194.68 1156.1,-169.63 1038.38,-157.46"/>
<polygon fill="midnightblue" stroke="midnightblue" points="1522.68,-211.03 1532.98,-208.57 1523.4,-204.07 1522.68,-211.03"/>
</g>
<!-- Node5 -->
<g id="node5" class="node">
<title>Node5</title>
<g id="a_node5"><a xlink:href="ColorSelect_8cpp.html" target="_top" xlink:title=" ">
<polygon fill="none" stroke="black" points="1581.5,-0.5 1581.5,-30.5 1724.5,-30.5 1724.5,-0.5 1581.5,-0.5"/>
<text text-anchor="start" x="1589.5" y="-18.5" font-family="Helvetica,sans-Serif" font-size="10.00">VortexEngine/src/Menus</text>
<text text-anchor="middle" x="1653" y="-7.5" font-family="Helvetica,sans-Serif" font-size="10.00">/MenuList/ColorSelect.cpp</text>
</a>
</g>
</g>
<!-- Node1&#45;&gt;Node5 -->
<g id="edge26" class="edge">
<title>Node1&#45;&gt;Node5</title>
<path fill="none" stroke="midnightblue" d="M1677.27,-209.86C1809.67,-198.42 2070.97,-167.41 2126,-98 2134.56,-87.2 2135.29,-77.18 2126,-67 2096.44,-34.61 1776.45,-36.92 1733,-31 1730.34,-30.64 1727.64,-30.25 1724.91,-29.84"/>
<polygon fill="midnightblue" stroke="midnightblue" points="1676.86,-206.39 1667.19,-210.72 1677.45,-213.36 1676.86,-206.39"/>
</g>
<!-- Node7 -->
<g id="node7" class="node">
<title>Node7</title>
<g id="a_node7"><a xlink:href="EditorConnection_8h.html" target="_top" xlink:title=" ">
<polygon fill="none" stroke="black" points="157.5,-67.5 157.5,-97.5 316.5,-97.5 316.5,-67.5 157.5,-67.5"/>
<text text-anchor="start" x="165.5" y="-85.5" font-family="Helvetica,sans-Serif" font-size="10.00">VortexEngine/src/Menus</text>
<text text-anchor="middle" x="237" y="-74.5" font-family="Helvetica,sans-Serif" font-size="10.00">/MenuList/EditorConnection.h</text>
</a>
</g>
</g>
<!-- Node1&#45;&gt;Node7 -->
<g id="edge28" class="edge">
<title>Node1&#45;&gt;Node7</title>
<path fill="none" stroke="midnightblue" d="M1522.46,-212.39C1381.14,-206.32 1072.32,-191.12 813,-165 595.62,-143.1 542.06,-130.46 326,-98 322.9,-97.53 319.75,-97.05 316.56,-96.56"/>
<polygon fill="midnightblue" stroke="midnightblue" points="1522.61,-215.9 1532.75,-212.83 1522.91,-208.91 1522.61,-215.9"/>
</g>
<!-- Node8 -->
<g id="node8" class="node">
<title>Node8</title>
<g id="a_node8"><a xlink:href="EditorConnection_8cpp.html" target="_top" xlink:title=" ">
<polygon fill="none" stroke="black" points="0,-0.5 0,-30.5 170,-30.5 170,-0.5 0,-0.5"/>
<text text-anchor="start" x="8" y="-18.5" font-family="Helvetica,sans-Serif" font-size="10.00">VortexEngine/src/Menus</text>
<text text-anchor="middle" x="85" y="-7.5" font-family="Helvetica,sans-Serif" font-size="10.00">/MenuList/EditorConnection.cpp</text>
</a>
</g>
</g>
<!-- Node1&#45;&gt;Node8 -->
<g id="edge27" class="edge">
<title>Node1&#45;&gt;Node8</title>
<path fill="none" stroke="midnightblue" d="M1522.5,-214.98C1231.09,-212.74 214.66,-202.29 157,-165 109.12,-134.04 92.17,-61.48 87,-30.7"/>
<polygon fill="midnightblue" stroke="midnightblue" points="1522.53,-218.48 1532.56,-215.06 1522.58,-211.48 1522.53,-218.48"/>
</g>
<!-- Node10 -->
<g id="node10" class="node">
<title>Node10</title>
<g id="a_node10"><a xlink:href="FactoryReset_8cpp.html" target="_top" xlink:title=" ">
<polygon fill="none" stroke="black" points="477,-0.5 477,-30.5 627,-30.5 627,-0.5 477,-0.5"/>
<text text-anchor="start" x="485" y="-18.5" font-family="Helvetica,sans-Serif" font-size="10.00">VortexEngine/src/Menus</text>
<text text-anchor="middle" x="552" y="-7.5" font-family="Helvetica,sans-Serif" font-size="10.00">/MenuList/FactoryReset.cpp</text>
</a>
</g>
</g>
<!-- Node1&#45;&gt;Node10 -->
<g id="edge29" class="edge">
<title>Node1&#45;&gt;Node10</title>
<path fill="none" stroke="midnightblue" d="M1522.59,-215.46C1234.67,-214.47 237.56,-203.43 148,-98 139.08,-87.5 138.88,-77.33 148,-67 150.7,-63.94 360.48,-38.93 476.63,-25.29"/>
<polygon fill="midnightblue" stroke="midnightblue" points="1522.92,-218.96 1532.94,-215.49 1522.95,-211.96 1522.92,-218.96"/>
</g>
<!-- Node14 -->
<g id="node14" class="node">
<title>Node14</title>
<g id="a_node14"><a xlink:href="ModeSharing_8cpp.html" target="_top" xlink:title=" ">
<polygon fill="none" stroke="black" points="267.5,-0.5 267.5,-30.5 418.5,-30.5 418.5,-0.5 267.5,-0.5"/>
<text text-anchor="start" x="275.5" y="-18.5" font-family="Helvetica,sans-Serif" font-size="10.00">VortexEngine/src/Menus</text>
<text text-anchor="middle" x="343" y="-7.5" font-family="Helvetica,sans-Serif" font-size="10.00">/MenuList/ModeSharing.cpp</text>
</a>
</g>
</g>
<!-- Node1&#45;&gt;Node14 -->
<g id="edge30" class="edge">
<title>Node1&#45;&gt;Node14</title>
<path fill="none" stroke="midnightblue" d="M1522.79,-215.41C1250.8,-214.7 346.94,-209.02 225,-165 170.22,-145.22 102.08,-112.85 138,-67 154.11,-46.44 215.8,-33.12 267.34,-25.36"/>
<polygon fill="midnightblue" stroke="midnightblue" points="1522.96,-218.91 1532.96,-215.43 1522.97,-211.91 1522.96,-218.91"/>
</g>
<!-- Node15 -->
<g id="node15" class="node">
<title>Node15</title>
<g id="a_node15"><a xlink:href="PatternSelect_8h.html" target="_top" xlink:title=" ">
<polygon fill="none" stroke="black" points="651,-67.5 651,-97.5 791,-97.5 791,-67.5 651,-67.5"/>
<text text-anchor="start" x="659" y="-85.5" font-family="Helvetica,sans-Serif" font-size="10.00">VortexEngine/src/Menus</text>
<text text-anchor="middle" x="721" y="-74.5" font-family="Helvetica,sans-Serif" font-size="10.00">/MenuList/PatternSelect.h</text>
</a>
</g>
</g>
<!-- Node1&#45;&gt;Node15 -->
<g id="edge31" class="edge">
<title>Node1&#45;&gt;Node15</title>
<path fill="none" stroke="midnightblue" d="M1522.8,-213.52C1365.26,-208.9 1011.78,-195.41 895,-165 837.7,-150.08 776.21,-116.67 743.89,-97.58"/>
<polygon fill="midnightblue" stroke="midnightblue" points="1522.79,-217.02 1532.88,-213.81 1522.99,-210.03 1522.79,-217.02"/>
</g>
<!-- Node17 -->
<g id="node17" class="node">
<title>Node17</title>
<g id="a_node17"><a xlink:href="Randomizer_8h.html" target="_top" xlink:title=" ">
<polygon fill="none" stroke="black" points="1139,-67.5 1139,-97.5 1273,-97.5 1273,-67.5 1139,-67.5"/>
<text text-anchor="start" x="1147" y="-85.5" font-family="Helvetica,sans-Serif" font-size="10.00">VortexEngine/src/Menus</text>
<text text-anchor="middle" x="1206" y="-74.5" font-family="Helvetica,sans-Serif" font-size="10.00">/MenuList/Randomizer.h</text>
</a>
</g>
</g>
<!-- Node1&#45;&gt;Node17 -->
<g id="edge33" class="edge">
<title>Node1&#45;&gt;Node17</title>
<path fill="none" stroke="midnightblue" d="M1548.49,-198.24C1469.67,-171.83 1320.62,-121.9 1247.96,-97.56"/>
<polygon fill="midnightblue" stroke="midnightblue" points="1547.61,-201.64 1558.21,-201.5 1549.84,-195 1547.61,-201.64"/>
</g>
<!-- Node18 -->
<g id="node18" class="node">
<title>Node18</title>
<g id="a_node18"><a xlink:href="Randomizer_8cpp.html" target="_top" xlink:title=" ">
<polygon fill="none" stroke="black" points="1742.5,-0.5 1742.5,-30.5 1887.5,-30.5 1887.5,-0.5 1742.5,-0.5"/>
<text text-anchor="start" x="1750.5" y="-18.5" font-family="Helvetica,sans-Serif" font-size="10.00">VortexEngine/src/Menus</text>
<text text-anchor="middle" x="1815" y="-7.5" font-family="Helvetica,sans-Serif" font-size="10.00">/MenuList/Randomizer.cpp</text>
</a>
</g>
</g>
<!-- Node1&#45;&gt;Node18 -->
<g id="edge32" class="edge">
<title>Node1&#45;&gt;Node18</title>
<path fill="none" stroke="midnightblue" d="M1677.5,-210.89C1785.47,-203.75 1975.17,-188.33 2040,-165 2091.38,-146.51 2116.96,-146 2143,-98 2149.57,-85.89 2151.97,-77.46 2143,-67 2110.79,-29.45 1974.16,-19.55 1887.73,-17.11"/>
<polygon fill="midnightblue" stroke="midnightblue" points="1677.07,-207.41 1667.32,-211.56 1677.53,-214.4 1677.07,-207.41"/>
</g>
<!-- Node19 -->
<g id="node19" class="node">
<title>Node19</title>
<g id="a_node19"><a xlink:href="VortexLib_8cpp.html" target="_top" xlink:title=" ">
<polygon fill="none" stroke="black" points="1443,-67.5 1443,-97.5 1573,-97.5 1573,-67.5 1443,-67.5"/>
<text text-anchor="start" x="1451" y="-85.5" font-family="Helvetica,sans-Serif" font-size="10.00">VortexEngine/VortexLib</text>
<text text-anchor="middle" x="1508" y="-74.5" font-family="Helvetica,sans-Serif" font-size="10.00">/VortexLib.cpp</text>
</a>
</g>
</g>
<!-- Node1&#45;&gt;Node19 -->
<g id="edge49" class="edge">
<title>Node1&#45;&gt;Node19</title>
<path fill="none" stroke="midnightblue" d="M1584.2,-192.83C1565.13,-165.47 1533.64,-120.28 1517.77,-97.52"/>
<polygon fill="midnightblue" stroke="midnightblue" points="1581.57,-195.17 1590.15,-201.37 1587.31,-191.17 1581.57,-195.17"/>
</g>
<!-- Node20 -->
<g id="node20" class="node">
<title>Node20</title>
<g id="a_node20"><a xlink:href="Menus_8h.html" target="_top" xlink:title=" ">
<polygon fill="none" stroke="black" points="1591,-134.5 1591,-164.5 1725,-164.5 1725,-134.5 1591,-134.5"/>
<text text-anchor="start" x="1599" y="-152.5" font-family="Helvetica,sans-Serif" font-size="10.00">VortexEngine/src/Menus</text>
<text text-anchor="middle" x="1658" y="-141.5" font-family="Helvetica,sans-Serif" font-size="10.00">/Menus.h</text>
</a>
</g>
</g>
<!-- Node1&#45;&gt;Node20 -->
<g id="edge34" class="edge">
<title>Node1&#45;&gt;Node20</title>
<path fill="none" stroke="midnightblue" d="M1619.42,-193.74C1628,-184.12 1637.84,-173.09 1645.44,-164.58"/>
<polygon fill="midnightblue" stroke="midnightblue" points="1616.63,-191.6 1612.59,-201.4 1621.85,-196.26 1616.63,-191.6"/>
</g>
<!-- Node21 -->
<g id="node21" class="node">
<title>Node21</title>
<g id="a_node21"><a xlink:href="VortexEngine_8cpp.html" target="_top" xlink:title=" ">
<polygon fill="none" stroke="black" points="1781,-73 1781,-92 1967,-92 1967,-73 1781,-73"/>
<text text-anchor="middle" x="1874" y="-80" font-family="Helvetica,sans-Serif" font-size="10.00">VortexEngine/src/VortexEngine.cpp</text>
</a>
</g>
</g>
<!-- Node1&#45;&gt;Node21 -->
<g id="edge46" class="edge">
<title>Node1&#45;&gt;Node21</title>
<path fill="none" stroke="midnightblue" d="M1652.4,-198.04C1677.5,-189.11 1707.74,-177.49 1734,-165 1782.51,-141.94 1836.57,-107.92 1860.89,-92.13"/>
<polygon fill="midnightblue" stroke="midnightblue" points="1650.97,-194.84 1642.7,-201.46 1653.29,-201.44 1650.97,-194.84"/>
</g>
<!-- Node22 -->
<g id="node22" class="node">
<title>Node22</title>
<g id="a_node22"><a xlink:href="VortexCLI_8cpp.html" target="_top" xlink:title=" ">
<polygon fill="none" stroke="black" points="1985.5,-67.5 1985.5,-97.5 2116.5,-97.5 2116.5,-67.5 1985.5,-67.5"/>
<text text-anchor="start" x="1993.5" y="-85.5" font-family="Helvetica,sans-Serif" font-size="10.00">VortexEngine/VortexCLI</text>
<text text-anchor="middle" x="2051" y="-74.5" font-family="Helvetica,sans-Serif" font-size="10.00">/VortexCLI.cpp</text>
</a>
</g>
</g>
<!-- Node1&#45;&gt;Node22 -->
<g id="edge50" class="edge">
<title>Node1&#45;&gt;Node22</title>
<path fill="none" stroke="midnightblue" d="M1659.17,-198.66C1693.34,-188.9 1737.11,-176.34 1776,-165 1856.07,-141.65 1949.09,-113.96 2003.84,-97.61"/>
<polygon fill="midnightblue" stroke="midnightblue" points="1658,-195.35 1649.34,-201.47 1659.92,-202.09 1658,-195.35"/>
</g>
<!-- Node23 -->
<g id="node23" class="node">
<title>Node23</title>
<g id="a_node23"><a xlink:href="Mode_8cpp.html" target="_top" xlink:title=" ">
<polygon fill="none" stroke="black" points="2211,-134.5 2211,-164.5 2345,-164.5 2345,-134.5 2211,-134.5"/>
<text text-anchor="start" x="2219" y="-152.5" font-family="Helvetica,sans-Serif" font-size="10.00">VortexEngine/src/Modes</text>
<text text-anchor="middle" x="2278" y="-141.5" font-family="Helvetica,sans-Serif" font-size="10.00">/Mode.cpp</text>
</a>
</g>
</g>
<!-- Node1&#45;&gt;Node23 -->
<g id="edge44" class="edge">
<title>Node1&#45;&gt;Node23</title>
<path fill="none" stroke="midnightblue" d="M1677.4,-211.25C1791.47,-204.47 2011.3,-189.42 2197,-165 2201.53,-164.4 2206.2,-163.73 2210.89,-163.01"/>
<polygon fill="midnightblue" stroke="midnightblue" points="1677.14,-207.76 1667.37,-211.84 1677.56,-214.75 1677.14,-207.76"/>
</g>
<!-- Node24 -->
<g id="node24" class="node">
<title>Node24</title>
<g id="a_node24"><a xlink:href="Modes_8cpp.html" target="_top" xlink:title=" ">
<polygon fill="none" stroke="black" points="2363,-134.5 2363,-164.5 2497,-164.5 2497,-134.5 2363,-134.5"/>
<text text-anchor="start" x="2371" y="-152.5" font-family="Helvetica,sans-Serif" font-size="10.00">VortexEngine/src/Modes</text>
<text text-anchor="middle" x="2430" y="-141.5" font-family="Helvetica,sans-Serif" font-size="10.00">/Modes.cpp</text>
</a>
</g>
</g>
<!-- Node1&#45;&gt;Node24 -->
<g id="edge45" class="edge">
<title>Node1&#45;&gt;Node24</title>
<path fill="none" stroke="midnightblue" d="M1677.47,-213.42C1814.44,-209.05 2108.12,-196.57 2354,-165 2356.93,-164.62 2359.92,-164.2 2362.93,-163.75"/>
<polygon fill="midnightblue" stroke="midnightblue" points="1676.97,-209.93 1667.09,-213.74 1677.19,-216.93 1676.97,-209.93"/>
</g>
<!-- Node25 -->
<g id="node25" class="node">
<title>Node25</title>
<g id="a_node25"><a xlink:href="VLReceiver_8cpp.html" target="_top" xlink:title=" ">
<polygon fill="none" stroke="black" points="2515.5,-134.5 2515.5,-164.5 2658.5,-164.5 2658.5,-134.5 2515.5,-134.5"/>
<text text-anchor="start" x="2523.5" y="-152.5" font-family="Helvetica,sans-Serif" font-size="10.00">VortexEngine/src/Wireless</text>
<text text-anchor="middle" x="2587" y="-141.5" font-family="Helvetica,sans-Serif" font-size="10.00">/VLReceiver.cpp</text>
</a>
</g>
</g>
<!-- Node1&#45;&gt;Node25 -->
<g id="edge47" class="edge">
<title>Node1&#45;&gt;Node25</title>
<path fill="none" stroke="midnightblue" d="M1677.03,-214.36C1833.66,-211.34 2200.36,-200.74 2506,-165 2508.98,-164.65 2512.02,-164.26 2515.08,-163.84"/>
<polygon fill="midnightblue" stroke="midnightblue" points="1676.95,-210.86 1667.02,-214.55 1677.08,-217.86 1676.95,-210.86"/>
</g>
<!-- Node26 -->
<g id="node26" class="node">
<title>Node26</title>
<g id="a_node26"><a xlink:href="VLSender_8cpp.html" target="_top" xlink:title=" ">
<polygon fill="none" stroke="black" points="2676.5,-134.5 2676.5,-164.5 2819.5,-164.5 2819.5,-134.5 2676.5,-134.5"/>
<text text-anchor="start" x="2684.5" y="-152.5" font-family="Helvetica,sans-Serif" font-size="10.00">VortexEngine/src/Wireless</text>
<text text-anchor="middle" x="2748" y="-141.5" font-family="Helvetica,sans-Serif" font-size="10.00">/VLSender.cpp</text>
</a>
</g>
</g>
<!-- Node1&#45;&gt;Node26 -->
<g id="edge48" class="edge">
<title>Node1&#45;&gt;Node26</title>
<path fill="none" stroke="midnightblue" d="M1677.32,-215.34C1853.61,-214.2 2298.65,-207.02 2668,-165 2670.66,-164.7 2673.37,-164.36 2676.11,-163.99"/>
<polygon fill="midnightblue" stroke="midnightblue" points="1677.08,-211.84 1667.1,-215.4 1677.12,-218.84 1677.08,-211.84"/>
</g>
<!-- Node3&#45;&gt;Node2 -->
<g id="edge3" class="edge">
<title>Node3&#45;&gt;Node2</title>
<path fill="none" stroke="midnightblue" d="M1048.38,-136.54C1111.36,-126.66 1202.53,-112.03 1282,-98 1284.91,-97.49 1287.88,-96.95 1290.88,-96.41"/>
<polygon fill="midnightblue" stroke="midnightblue" points="1047.46,-133.14 1038.13,-138.15 1048.55,-140.06 1047.46,-133.14"/>
</g>
<!-- Node4 -->
<g id="node4" class="node">
<title>Node4</title>
<g id="a_node4"><a xlink:href="ColorSelect_8h.html" target="_top" xlink:title=" ">
<polygon fill="none" stroke="black" points="987,-67.5 987,-97.5 1121,-97.5 1121,-67.5 987,-67.5"/>
<text text-anchor="start" x="995" y="-85.5" font-family="Helvetica,sans-Serif" font-size="10.00">VortexEngine/src/Menus</text>
<text text-anchor="middle" x="1054" y="-74.5" font-family="Helvetica,sans-Serif" font-size="10.00">/MenuList/ColorSelect.h</text>
</a>
</g>
</g>
<!-- Node3&#45;&gt;Node4 -->
<g id="edge4" class="edge">
<title>Node3&#45;&gt;Node4</title>
<path fill="none" stroke="midnightblue" d="M996.96,-128.17C1009.65,-118.23 1024.61,-106.51 1036.03,-97.58"/>
<polygon fill="midnightblue" stroke="midnightblue" points="994.72,-125.47 989.01,-134.4 999.04,-130.99 994.72,-125.47"/>
</g>
<!-- Node3&#45;&gt;Node7 -->
<g id="edge7" class="edge">
<title>Node3&#45;&gt;Node7</title>
<path fill="none" stroke="midnightblue" d="M893.67,-144.53C772.41,-137.84 530.26,-122.59 326,-98 322.89,-97.63 319.73,-97.22 316.53,-96.79"/>
<polygon fill="midnightblue" stroke="midnightblue" points="893.79,-148.05 903.96,-145.1 894.17,-141.06 893.79,-148.05"/>
</g>
<!-- Node9 -->
<g id="node9" class="node">
<title>Node9</title>
<g id="a_node9"><a xlink:href="FactoryReset_8h.html" target="_top" xlink:title=" ">
<polygon fill="none" stroke="black" points="493.5,-67.5 493.5,-97.5 632.5,-97.5 632.5,-67.5 493.5,-67.5"/>
<text text-anchor="start" x="501.5" y="-85.5" font-family="Helvetica,sans-Serif" font-size="10.00">VortexEngine/src/Menus</text>
<text text-anchor="middle" x="563" y="-74.5" font-family="Helvetica,sans-Serif" font-size="10.00">/MenuList/FactoryReset.h</text>
</a>
</g>
</g>
<!-- Node3&#45;&gt;Node9 -->
<g id="edge10" class="edge">
<title>Node3&#45;&gt;Node9</title>
<path fill="none" stroke="midnightblue" d="M893.78,-137.3C827.05,-127.46 728.04,-112.5 642,-98 638.97,-97.49 635.89,-96.96 632.77,-96.42"/>
<polygon fill="midnightblue" stroke="midnightblue" points="893.4,-140.78 903.8,-138.77 894.42,-133.85 893.4,-140.78"/>
</g>
<!-- Node11 -->
<g id="node11" class="node">
<title>Node11</title>
<g id="a_node11"><a xlink:href="GlobalBrightness_8h.html" target="_top" xlink:title=" ">
<polygon fill="none" stroke="black" points="809.5,-67.5 809.5,-97.5 968.5,-97.5 968.5,-67.5 809.5,-67.5"/>
<text text-anchor="start" x="817.5" y="-85.5" font-family="Helvetica,sans-Serif" font-size="10.00">VortexEngine/src/Menus</text>
<text text-anchor="middle" x="889" y="-74.5" font-family="Helvetica,sans-Serif" font-size="10.00">/MenuList/GlobalBrightness.h</text>
</a>
</g>
</g>
<!-- Node3&#45;&gt;Node11 -->
<g id="edge13" class="edge">
<title>Node3&#45;&gt;Node11</title>
<path fill="none" stroke="midnightblue" d="M945.35,-128.17C932.81,-118.23 918.03,-106.51 906.76,-97.58"/>
<polygon fill="midnightblue" stroke="midnightblue" points="943.2,-130.93 953.21,-134.4 947.54,-125.44 943.2,-130.93"/>
</g>
<!-- Node13 -->
<g id="node13" class="node">
<title>Node13</title>
<g id="a_node13"><a xlink:href="ModeSharing_8h.html" target="_top" xlink:title=" ">
<polygon fill="none" stroke="black" points="335,-67.5 335,-97.5 475,-97.5 475,-67.5 335,-67.5"/>
<text text-anchor="start" x="343" y="-85.5" font-family="Helvetica,sans-Serif" font-size="10.00">VortexEngine/src/Menus</text>
<text text-anchor="middle" x="405" y="-74.5" font-family="Helvetica,sans-Serif" font-size="10.00">/MenuList/ModeSharing.h</text>
</a>
</g>
</g>
<!-- Node3&#45;&gt;Node13 -->
<g id="edge16" class="edge">
<title>Node3&#45;&gt;Node13</title>
<path fill="none" stroke="midnightblue" d="M893.61,-142.36C797.35,-134.28 628.1,-118.66 484,-98 481.1,-97.58 478.15,-97.14 475.16,-96.67"/>
<polygon fill="midnightblue" stroke="midnightblue" points="893.58,-145.87 903.84,-143.21 894.16,-138.89 893.58,-145.87"/>
</g>
<!-- Node3&#45;&gt;Node15 -->
<g id="edge19" class="edge">
<title>Node3&#45;&gt;Node15</title>
<path fill="none" stroke="midnightblue" d="M907.22,-131.92C866.42,-121.31 814.07,-107.7 775.27,-97.61"/>
<polygon fill="midnightblue" stroke="midnightblue" points="906.5,-135.35 917.06,-134.48 908.26,-128.57 906.5,-135.35"/>
</g>
<!-- Node3&#45;&gt;Node17 -->
<g id="edge22" class="edge">
<title>Node3&#45;&gt;Node17</title>
<path fill="none" stroke="midnightblue" d="M1031.68,-131.71C1069.93,-121.14 1118.74,-107.63 1154.98,-97.61"/>
<polygon fill="midnightblue" stroke="midnightblue" points="1030.41,-128.44 1021.7,-134.48 1032.27,-135.18 1030.41,-128.44"/>
</g>
<!-- Node3&#45;&gt;Node19 -->
<g id="edge25" class="edge">
<title>Node3&#45;&gt;Node19</title>
<path fill="none" stroke="midnightblue" d="M1048.4,-142.08C1140.55,-133.97 1298.97,-118.56 1434,-98 1436.85,-97.57 1439.75,-97.1 1442.68,-96.61"/>
<polygon fill="midnightblue" stroke="midnightblue" points="1047.98,-138.6 1038.32,-142.96 1048.59,-145.58 1047.98,-138.6"/>
</g>
<!-- Node4&#45;&gt;Node5 -->
<g id="edge5" class="edge">
<title>Node4&#45;&gt;Node5</title>
<path fill="none" stroke="midnightblue" d="M1131.25,-66.93C1231.75,-53.32 1463.26,-32.77 1581.33,-22.59"/>
<polygon fill="midnightblue" stroke="midnightblue" points="1130.5,-63.51 1121.08,-68.35 1131.47,-70.44 1130.5,-63.51"/>
</g>
<!-- Node6 -->
<g id="node6" class="node">
<title>Node6</title>
<g id="a_node6"><a xlink:href="Menus_8cpp.html" target="_top" xlink:title=" ">
<polygon fill="none" stroke="black" points="665,-0.5 665,-30.5 799,-30.5 799,-0.5 665,-0.5"/>
<text text-anchor="start" x="673" y="-18.5" font-family="Helvetica,sans-Serif" font-size="10.00">VortexEngine/src/Menus</text>
<text text-anchor="middle" x="732" y="-7.5" font-family="Helvetica,sans-Serif" font-size="10.00">/Menus.cpp</text>
</a>
</g>
</g>
<!-- Node4&#45;&gt;Node6 -->
<g id="edge6" class="edge">
<title>Node4&#45;&gt;Node6</title>
<path fill="none" stroke="midnightblue" d="M976.98,-65.95C922.76,-55.01 850.88,-40.5 799.02,-30.03"/>
<polygon fill="midnightblue" stroke="midnightblue" points="976.4,-69.4 986.89,-67.95 977.78,-62.54 976.4,-69.4"/>
</g>
<!-- Node7&#45;&gt;Node6 -->
<g id="edge9" class="edge">
<title>Node7&#45;&gt;Node6</title>
<path fill="none" stroke="midnightblue" d="M326.69,-66.95C465.08,-47.9 501.74,-48.93 636,-31 645.36,-29.75 655.21,-28.35 664.9,-26.93"/>
<polygon fill="midnightblue" stroke="midnightblue" points="325.97,-63.51 316.55,-68.35 326.94,-70.45 325.97,-63.51"/>
</g>
<!-- Node7&#45;&gt;Node8 -->
<g id="edge8" class="edge">
<title>Node7&#45;&gt;Node8</title>
<path fill="none" stroke="midnightblue" d="M194.69,-63.41C170.42,-53.03 140.41,-40.2 117.92,-30.58"/>
<polygon fill="midnightblue" stroke="midnightblue" points="193.45,-66.68 204.02,-67.4 196.2,-60.25 193.45,-66.68"/>
</g>
<!-- Node9&#45;&gt;Node6 -->
<g id="edge12" class="edge">
<title>Node9&#45;&gt;Node6</title>
<path fill="none" stroke="midnightblue" d="M609.33,-63.68C636.43,-53.26 670.17,-40.28 695.4,-30.58"/>
<polygon fill="midnightblue" stroke="midnightblue" points="607.75,-60.54 599.67,-67.4 610.26,-67.07 607.75,-60.54"/>
</g>
<!-- Node9&#45;&gt;Node10 -->
<g id="edge11" class="edge">
<title>Node9&#45;&gt;Node10</title>
<path fill="none" stroke="midnightblue" d="M558.92,-57.4C557.39,-48.37 555.71,-38.41 554.38,-30.58"/>
<polygon fill="midnightblue" stroke="midnightblue" points="555.49,-58.12 560.61,-67.4 562.4,-56.95 555.49,-58.12"/>
</g>
<!-- Node11&#45;&gt;Node6 -->
<g id="edge15" class="edge">
<title>Node11&#45;&gt;Node6</title>
<path fill="none" stroke="midnightblue" d="M845.63,-63.54C820.51,-53.14 789.34,-40.24 766,-30.58"/>
<polygon fill="midnightblue" stroke="midnightblue" points="844.36,-66.8 854.93,-67.4 847.03,-60.34 844.36,-66.8"/>
</g>
<!-- Node12 -->
<g id="node12" class="node">
<title>Node12</title>
<g id="a_node12"><a xlink:href="GlobalBrightness_8cpp.html" target="_top" xlink:title=" ">
<polygon fill="none" stroke="black" points="1304,-0.5 1304,-30.5 1474,-30.5 1474,-0.5 1304,-0.5"/>
<text text-anchor="start" x="1312" y="-18.5" font-family="Helvetica,sans-Serif" font-size="10.00">VortexEngine/src/Menus</text>
<text text-anchor="middle" x="1389" y="-7.5" font-family="Helvetica,sans-Serif" font-size="10.00">/MenuList/GlobalBrightness.cpp</text>
</a>
</g>
</g>
<!-- Node11&#45;&gt;Node12 -->
<g id="edge14" class="edge">
<title>Node11&#45;&gt;Node12</title>
<path fill="none" stroke="midnightblue" d="M978.57,-66.95C1097.53,-50.1 1222.93,-35.21 1303.86,-25.97"/>
<polygon fill="midnightblue" stroke="midnightblue" points="977.96,-63.51 968.55,-68.38 978.95,-70.44 977.96,-63.51"/>
</g>
<!-- Node13&#45;&gt;Node6 -->
<g id="edge18" class="edge">
<title>Node13&#45;&gt;Node6</title>
<path fill="none" stroke="midnightblue" d="M485.23,-65.55C540.34,-54.6 612.67,-40.22 664.76,-29.87"/>
<polygon fill="midnightblue" stroke="midnightblue" points="484.28,-62.17 475.15,-67.56 485.64,-69.04 484.28,-62.17"/>
</g>
<!-- Node13&#45;&gt;Node14 -->
<g id="edge17" class="edge">
<title>Node13&#45;&gt;Node14</title>
<path fill="none" stroke="midnightblue" d="M384.52,-60.02C375.28,-50.34 364.63,-39.17 356.43,-30.58"/>
<polygon fill="midnightblue" stroke="midnightblue" points="382.11,-62.58 391.55,-67.4 387.18,-57.74 382.11,-62.58"/>
</g>
<!-- Node15&#45;&gt;Node6 -->
<g id="edge21" class="edge">
<title>Node15&#45;&gt;Node6</title>
<path fill="none" stroke="midnightblue" d="M725.08,-57.4C726.61,-48.37 728.29,-38.41 729.62,-30.58"/>
<polygon fill="midnightblue" stroke="midnightblue" points="721.6,-56.95 723.39,-67.4 728.51,-58.12 721.6,-56.95"/>
</g>
<!-- Node16 -->
<g id="node16" class="node">
<title>Node16</title>
<g id="a_node16"><a xlink:href="PatternSelect_8cpp.html" target="_top" xlink:title=" ">
<polygon fill="none" stroke="black" points="957,-0.5 957,-30.5 1109,-30.5 1109,-0.5 957,-0.5"/>
<text text-anchor="start" x="965" y="-18.5" font-family="Helvetica,sans-Serif" font-size="10.00">VortexEngine/src/Menus</text>
<text text-anchor="middle" x="1033" y="-7.5" font-family="Helvetica,sans-Serif" font-size="10.00">/MenuList/PatternSelect.cpp</text>
</a>
</g>
</g>
<!-- Node15&#45;&gt;Node16 -->
<g id="edge20" class="edge">
<title>Node15&#45;&gt;Node16</title>
<path fill="none" stroke="midnightblue" d="M798.36,-65.38C849.68,-54.69 916.38,-40.8 965.54,-30.55"/>
<polygon fill="midnightblue" stroke="midnightblue" points="797.39,-62.01 788.32,-67.48 798.82,-68.86 797.39,-62.01"/>
</g>
<!-- Node17&#45;&gt;Node6 -->
<g id="edge24" class="edge">
<title>Node17&#45;&gt;Node6</title>
<path fill="none" stroke="midnightblue" d="M1129.01,-66.9C1006.97,-47.77 876.25,-32.32 799.08,-23.72"/>
<polygon fill="midnightblue" stroke="midnightblue" points="1128.48,-70.36 1138.9,-68.46 1129.57,-63.45 1128.48,-70.36"/>
</g>
<!-- Node17&#45;&gt;Node18 -->
<g id="edge23" class="edge">
<title>Node17&#45;&gt;Node18</title>
<path fill="none" stroke="midnightblue" d="M1283.02,-66.97C1483,-40.64 1536.76,-56.12 1733,-31 1736.01,-30.61 1739.08,-30.19 1742.18,-29.75"/>
<polygon fill="midnightblue" stroke="midnightblue" points="1282.52,-63.5 1273.07,-68.29 1283.45,-70.44 1282.52,-63.5"/>
</g>
<!-- Node20&#45;&gt;Node2 -->
<g id="edge35" class="edge">
<title>Node20&#45;&gt;Node2</title>
<path fill="none" stroke="midnightblue" d="M1583.3,-132.32C1534,-121.63 1470.04,-107.77 1422.87,-97.55"/>
<polygon fill="midnightblue" stroke="midnightblue" points="1582.76,-135.78 1593.27,-134.48 1584.24,-128.94 1582.76,-135.78"/>
</g>
<!-- Node20&#45;&gt;Node5 -->
<g id="edge36" class="edge">
<title>Node20&#45;&gt;Node5</title>
<path fill="none" stroke="midnightblue" d="M1676.59,-126.14C1682.38,-117.83 1688.03,-107.98 1691,-98 1694.93,-84.8 1695.37,-80.07 1691,-67 1686.41,-53.26 1676.45,-40.27 1667.88,-30.9"/>
<polygon fill="midnightblue" stroke="midnightblue" points="1673.77,-124.07 1670.61,-134.19 1679.39,-128.25 1673.77,-124.07"/>
</g>
<!-- Node20&#45;&gt;Node6 -->
<g id="edge40" class="edge">
<title>Node20&#45;&gt;Node6</title>
<path fill="none" stroke="midnightblue" d="M1639.26,-126.79C1619.2,-103.82 1589.29,-70.42 1582,-67 1518.12,-37.04 1018.42,-35.36 948,-31 898.11,-27.91 841.76,-24.12 799.12,-21.18"/>
<polygon fill="midnightblue" stroke="midnightblue" points="1636.68,-129.16 1645.89,-134.41 1641.97,-124.57 1636.68,-129.16"/>
</g>
<!-- Node20&#45;&gt;Node12 -->
<g id="edge37" class="edge">
<title>Node20&#45;&gt;Node12</title>
<path fill="none" stroke="midnightblue" d="M1663.67,-124.44C1666.38,-106.45 1666.56,-82.41 1653,-67 1629.73,-40.55 1542.06,-27.73 1474.06,-21.67"/>
<polygon fill="midnightblue" stroke="midnightblue" points="1660.19,-124 1661.8,-134.47 1667.07,-125.28 1660.19,-124"/>
</g>
<!-- Node20&#45;&gt;Node16 -->
<g id="edge38" class="edge">
<title>Node20&#45;&gt;Node16</title>
<path fill="none" stroke="midnightblue" d="M1652.19,-124.73C1646.22,-105.75 1634.91,-80.21 1615,-67 1594.23,-53.22 1262.03,-30.81 1109.05,-21.17"/>
<polygon fill="midnightblue" stroke="midnightblue" points="1648.87,-125.83 1654.98,-134.48 1655.6,-123.9 1648.87,-125.83"/>
</g>
<!-- Node20&#45;&gt;Node18 -->
<g id="edge39" class="edge">
<title>Node20&#45;&gt;Node18</title>
<path fill="none" stroke="midnightblue" d="M1682.46,-127.94C1714.69,-100.84 1770.54,-53.88 1798.32,-30.52"/>
<polygon fill="midnightblue" stroke="midnightblue" points="1680.2,-125.26 1674.8,-134.37 1684.71,-130.62 1680.2,-125.26"/>
</g>
<!-- Node20&#45;&gt;Node19 -->
<g id="edge42" class="edge">
<title>Node20&#45;&gt;Node19</title>
<path fill="none" stroke="midnightblue" d="M1616.25,-130.41C1592.3,-120.03 1562.68,-107.2 1540.48,-97.58"/>
<polygon fill="midnightblue" stroke="midnightblue" points="1614.89,-133.63 1625.45,-134.4 1617.67,-127.21 1614.89,-133.63"/>
</g>
<!-- Node20&#45;&gt;Node21 -->
<g id="edge41" class="edge">
<title>Node20&#45;&gt;Node21</title>
<path fill="none" stroke="midnightblue" d="M1714.19,-131.59C1756.38,-118.9 1812.38,-102.04 1845.66,-92.03"/>
<polygon fill="midnightblue" stroke="midnightblue" points="1713.17,-128.24 1704.6,-134.48 1715.19,-134.95 1713.17,-128.24"/>
</g>
<!-- Node20&#45;&gt;Node22 -->
<g id="edge43" class="edge">
<title>Node20&#45;&gt;Node22</title>
<path fill="none" stroke="midnightblue" d="M1735.2,-136.98C1799.67,-127.18 1893.95,-112.44 1976,-98 1979,-97.47 1982.07,-96.92 1985.17,-96.36"/>
<polygon fill="midnightblue" stroke="midnightblue" points="1734.47,-133.55 1725.11,-138.51 1735.52,-140.47 1734.47,-133.55"/>
</g>
</g>
</svg>
