<?xml version="1.0" encoding="UTF-8" standalone="no"?>
<!DOCTYPE svg PUBLIC "-//W3C//DTD SVG 1.1//EN"
 "http://www.w3.org/Graphics/SVG/1.1/DTD/svg11.dtd">
<!-- Generated by graphviz version 2.43.0 (0)
 -->
<!-- Title: VortexEngine/src/Patterns/PatternBuilder.h Pages: 1 -->
<svg width="1654pt" height="106pt"
 viewBox="0.00 0.00 1654.00 106.00" xmlns="http://www.w3.org/2000/svg" xmlns:xlink="http://www.w3.org/1999/xlink">
<g id="graph0" class="graph" transform="scale(1 1) rotate(0) translate(4 102)">
<title>VortexEngine/src/Patterns/PatternBuilder.h</title>
<!-- Node1 -->
<g id="node1" class="node">
<title>Node1</title>
<g id="a_node1"><a xlink:title=" ">
<polygon fill="#bfbfbf" stroke="black" points="755,-67.5 755,-97.5 896,-97.5 896,-67.5 755,-67.5"/>
<text text-anchor="start" x="763" y="-85.5" font-family="Helvetica,sans-Serif" font-size="10.00">VortexEngine/src/Patterns</text>
<text text-anchor="middle" x="825.5" y="-74.5" font-family="Helvetica,sans-Serif" font-size="10.00">/PatternBuilder.h</text>
</a>
</g>
</g>
<!-- Node2 -->
<g id="node2" class="node">
<title>Node2</title>
<g id="a_node2"><a xlink:href="ColorSelect_8cpp.html" target="_top" xlink:title=" ">
<polygon fill="none" stroke="black" points="0,-0.5 0,-30.5 143,-30.5 143,-0.5 0,-0.5"/>
<text text-anchor="start" x="8" y="-18.5" font-family="Helvetica,sans-Serif" font-size="10.00">VortexEngine/src/Menus</text>
<text text-anchor="middle" x="71.5" y="-7.5" font-family="Helvetica,sans-Serif" font-size="10.00">/MenuList/ColorSelect.cpp</text>
</a>
</g>
</g>
<!-- Node1&#45;&gt;Node2 -->
<g id="edge1" class="edge">
<title>Node1&#45;&gt;Node2</title>
<path fill="none" stroke="midnightblue" d="M744.52,-78.1C617.84,-72.18 365.27,-57.96 152.5,-31 149.52,-30.62 146.49,-30.21 143.43,-29.77"/>
<polygon fill="midnightblue" stroke="midnightblue" points="744.38,-81.6 754.53,-78.56 744.7,-74.61 744.38,-81.6"/>
</g>
<!-- Node3 -->
<g id="node3" class="node">
<title>Node3</title>
<g id="a_node3"><a xlink:href="PatternSelect_8cpp.html" target="_top" xlink:title=" ">
<polygon fill="none" stroke="black" points="161.5,-0.5 161.5,-30.5 313.5,-30.5 313.5,-0.5 161.5,-0.5"/>
<text text-anchor="start" x="169.5" y="-18.5" font-family="Helvetica,sans-Serif" font-size="10.00">VortexEngine/src/Menus</text>
<text text-anchor="middle" x="237.5" y="-7.5" font-family="Helvetica,sans-Serif" font-size="10.00">/MenuList/PatternSelect.cpp</text>
</a>
</g>
</g>
<!-- Node1&#45;&gt;Node3 -->
<g id="edge2" class="edge">
<title>Node1&#45;&gt;Node3</title>
<path fill="none" stroke="midnightblue" d="M744.95,-75.13C645.45,-66.88 471.12,-51.11 322.5,-31 319.68,-30.62 316.81,-30.21 313.92,-29.79"/>
<polygon fill="midnightblue" stroke="midnightblue" points="744.67,-78.62 754.93,-75.96 745.25,-71.65 744.67,-78.62"/>
</g>
<!-- Node4 -->
<g id="node4" class="node">
<title>Node4</title>
<g id="a_node4"><a xlink:href="Randomizer_8cpp.html" target="_top" xlink:title=" ">
<polygon fill="none" stroke="black" points="332,-0.5 332,-30.5 477,-30.5 477,-0.5 332,-0.5"/>
<text text-anchor="start" x="340" y="-18.5" font-family="Helvetica,sans-Serif" font-size="10.00">VortexEngine/src/Menus</text>
<text text-anchor="middle" x="404.5" y="-7.5" font-family="Helvetica,sans-Serif" font-size="10.00">/MenuList/Randomizer.cpp</text>
</a>
</g>
</g>
<!-- Node1&#45;&gt;Node4 -->
<g id="edge3" class="edge">
<title>Node1&#45;&gt;Node4</title>
<path fill="none" stroke="midnightblue" d="M745.07,-70.15C676.32,-60.29 574.8,-45.38 486.5,-31 483.5,-30.51 480.45,-30.01 477.36,-29.49"/>
<polygon fill="midnightblue" stroke="midnightblue" points="744.57,-73.61 754.97,-71.56 745.56,-66.68 744.57,-73.61"/>
</g>
<!-- Node5 -->
<g id="node5" class="node">
<title>Node5</title>
<g id="a_node5"><a xlink:href="Mode_8cpp.html" target="_top" xlink:title=" ">
<polygon fill="none" stroke="black" points="495.5,-0.5 495.5,-30.5 629.5,-30.5 629.5,-0.5 495.5,-0.5"/>
<text text-anchor="start" x="503.5" y="-18.5" font-family="Helvetica,sans-Serif" font-size="10.00">VortexEngine/src/Modes</text>
<text text-anchor="middle" x="562.5" y="-7.5" font-family="Helvetica,sans-Serif" font-size="10.00">/Mode.cpp</text>
</a>
</g>
</g>
<!-- Node1&#45;&gt;Node5 -->
<g id="edge4" class="edge">
<title>Node1&#45;&gt;Node5</title>
<path fill="none" stroke="midnightblue" d="M758.95,-65.05C715.95,-54.43 660.58,-40.74 619.59,-30.61"/>
<polygon fill="midnightblue" stroke="midnightblue" points="758.21,-68.47 768.76,-67.48 759.89,-61.68 758.21,-68.47"/>
</g>
<!-- Node6 -->
<g id="node6" class="node">
<title>Node6</title>
<g id="a_node6"><a xlink:href="CompoundPattern_8cpp.html" target="_top" xlink:title=" ">
<polygon fill="none" stroke="black" points="648,-0.5 648,-30.5 803,-30.5 803,-0.5 648,-0.5"/>
<text text-anchor="start" x="656" y="-18.5" font-family="Helvetica,sans-Serif" font-size="10.00">VortexEngine/src/Patterns</text>
<text text-anchor="middle" x="725.5" y="-7.5" font-family="Helvetica,sans-Serif" font-size="10.00">/Multi/CompoundPattern.cpp</text>
</a>
</g>
</g>
<!-- Node1&#45;&gt;Node6 -->
<g id="edge5" class="edge">
<title>Node1&#45;&gt;Node6</title>
<path fill="none" stroke="midnightblue" d="M795.09,-61.73C779.62,-51.68 761.17,-39.68 747.16,-30.58"/>
<polygon fill="midnightblue" stroke="midnightblue" points="793.51,-64.88 803.8,-67.4 797.32,-59.01 793.51,-64.88"/>
</g>
<!-- Node7 -->
<g id="node7" class="node">
<title>Node7</title>
<g id="a_node7"><a xlink:href="SequencedPattern_8cpp.html" target="_top" xlink:title=" ">
<polygon fill="none" stroke="black" points="821,-0.5 821,-30.5 1030,-30.5 1030,-0.5 821,-0.5"/>
<text text-anchor="start" x="829" y="-18.5" font-family="Helvetica,sans-Serif" font-size="10.00">VortexEngine/src/Patterns</text>
<text text-anchor="middle" x="925.5" y="-7.5" font-family="Helvetica,sans-Serif" font-size="10.00">/Multi/Sequencer/SequencedPattern.cpp</text>
</a>
</g>
</g>
<!-- Node1&#45;&gt;Node7 -->
<g id="edge6" class="edge">
<title>Node1&#45;&gt;Node7</title>
<path fill="none" stroke="midnightblue" d="M855.91,-61.73C871.38,-51.68 889.83,-39.68 903.84,-30.58"/>
<polygon fill="midnightblue" stroke="midnightblue" points="853.68,-59.01 847.2,-67.4 857.49,-64.88 853.68,-59.01"/>
</g>
<!-- Node8 -->
<g id="node8" class="node">
<title>Node8</title>
<g id="a_node8"><a xlink:href="Pattern_8cpp.html" target="_top" xlink:title=" ">
<polygon fill="none" stroke="black" points="1048,-0.5 1048,-30.5 1189,-30.5 1189,-0.5 1048,-0.5"/>
<text text-anchor="start" x="1056" y="-18.5" font-family="Helvetica,sans-Serif" font-size="10.00">VortexEngine/src/Patterns</text>
<text text-anchor="middle" x="1118.5" y="-7.5" font-family="Helvetica,sans-Serif" font-size="10.00">/Pattern.cpp</text>
</a>
</g>
</g>
<!-- Node1&#45;&gt;Node8 -->
<g id="edge7" class="edge">
<title>Node1&#45;&gt;Node8</title>
<path fill="none" stroke="midnightblue" d="M898.76,-65.25C946.87,-54.58 1009.17,-40.75 1055.15,-30.55"/>
<polygon fill="midnightblue" stroke="midnightblue" points="897.72,-61.89 888.72,-67.48 899.24,-68.73 897.72,-61.89"/>
</g>
<!-- Node9 -->
<g id="node9" class="node">
<title>Node9</title>
<g id="a_node9"><a xlink:href="PatternBuilder_8cpp.html" target="_top" xlink:title=" ">
<polygon fill="none" stroke="black" points="1207,-0.5 1207,-30.5 1348,-30.5 1348,-0.5 1207,-0.5"/>
<text text-anchor="start" x="1215" y="-18.5" font-family="Helvetica,sans-Serif" font-size="10.00">VortexEngine/src/Patterns</text>
<text text-anchor="middle" x="1277.5" y="-7.5" font-family="Helvetica,sans-Serif" font-size="10.00">/PatternBuilder.cpp</text>
</a>
</g>
</g>
<!-- Node1&#45;&gt;Node9 -->
<g id="edge8" class="edge">
<title>Node1&#45;&gt;Node9</title>
<path fill="none" stroke="midnightblue" d="M906.05,-71.7C981.7,-62.24 1097.98,-47.02 1198.5,-31 1201.25,-30.56 1204.06,-30.1 1206.89,-29.63"/>
<polygon fill="midnightblue" stroke="midnightblue" points="905.6,-68.23 896.11,-72.94 906.47,-75.18 905.6,-68.23"/>
</g>
<!-- Node10 -->
<g id="node10" class="node">
<title>Node10</title>
<g id="a_node10"><a xlink:href="VortexLib_8cpp.html" target="_top" xlink:title=" ">
<polygon fill="none" stroke="black" points="1366.5,-0.5 1366.5,-30.5 1496.5,-30.5 1496.5,-0.5 1366.5,-0.5"/>
<text text-anchor="start" x="1374.5" y="-18.5" font-family="Helvetica,sans-Serif" font-size="10.00">VortexEngine/VortexLib</text>
<text text-anchor="middle" x="1431.5" y="-7.5" font-family="Helvetica,sans-Serif" font-size="10.00">/VortexLib.cpp</text>
</a>
</g>
</g>
<!-- Node1&#45;&gt;Node10 -->
<g id="edge9" class="edge">
<title>Node1&#45;&gt;Node10</title>
<path fill="none" stroke="midnightblue" d="M906.5,-76.31C1011.05,-69.04 1198.45,-54.07 1357.5,-31 1360.35,-30.59 1363.26,-30.14 1366.19,-29.66"/>
<polygon fill="midnightblue" stroke="midnightblue" points="906.07,-72.83 896.33,-77.01 906.55,-79.82 906.07,-72.83"/>
</g>
<!-- Node11 -->
<g id="node11" class="node">
<title>Node11</title>
<g id="a_node11"><a xlink:href="VortexCLI_8cpp.html" target="_top" xlink:title=" ">
<polygon fill="none" stroke="black" points="1515,-0.5 1515,-30.5 1646,-30.5 1646,-0.5 1515,-0.5"/>
<text text-anchor="start" x="1523" y="-18.5" font-family="Helvetica,sans-Serif" font-size="10.00">VortexEngine/VortexCLI</text>
<text text-anchor="middle" x="1580.5" y="-7.5" font-family="Helvetica,sans-Serif" font-size="10.00">/VortexCLI.cpp</text>
</a>
</g>
</g>
<!-- Node1&#45;&gt;Node11 -->
<g id="edge10" class="edge">
<title>Node1&#45;&gt;Node11</title>
<path fill="none" stroke="midnightblue" d="M906.35,-78.55C1034.07,-73.21 1290.14,-59.71 1505.5,-31 1508.52,-30.6 1511.61,-30.15 1514.72,-29.67"/>
<polygon fill="midnightblue" stroke="midnightblue" points="906.11,-75.06 896.26,-78.97 906.4,-82.05 906.11,-75.06"/>
</g>
</g>
</svg>
