<?xml version="1.0" encoding="UTF-8" standalone="no"?>
<!DOCTYPE svg PUBLIC "-//W3C//DTD SVG 1.1//EN"
 "http://www.w3.org/Graphics/SVG/1.1/DTD/svg11.dtd">
<!-- Generated by graphviz version 2.43.0 (0)
 -->
<!-- Title: VortexEngine/src/Patterns/Multi/PulsishPattern.h Pages: 1 -->
<svg width="527pt" height="375pt"
 viewBox="0.00 0.00 526.98 375.00" xmlns="http://www.w3.org/2000/svg" xmlns:xlink="http://www.w3.org/1999/xlink">
<g id="graph0" class="graph" transform="scale(1 1) rotate(0) translate(4 371)">
<title>VortexEngine/src/Patterns/Multi/PulsishPattern.h</title>
<!-- Node1 -->
<g id="node1" class="node">
<title>Node1</title>
<g id="a_node1"><a xlink:title=" ">
<polygon fill="#bfbfbf" stroke="black" points="108.98,-336.5 108.98,-366.5 249.98,-366.5 249.98,-336.5 108.98,-336.5"/>
<text text-anchor="start" x="116.98" y="-354.5" font-family="Helvetica,sans-Serif" font-size="10.00">VortexEngine/src/Patterns</text>
<text text-anchor="middle" x="179.48" y="-343.5" font-family="Helvetica,sans-Serif" font-size="10.00">/Multi/PulsishPattern.h</text>
</a>
</g>
</g>
<!-- Node2 -->
<g id="node2" class="node">
<title>Node2</title>
<g id="a_node2"><a xlink:href="MultiLedPattern_8h.html" target="_top" xlink:title=" ">
<polygon fill="none" stroke="black" points="128.48,-280.5 128.48,-299.5 230.48,-299.5 230.48,-280.5 128.48,-280.5"/>
<text text-anchor="middle" x="179.48" y="-287.5" font-family="Helvetica,sans-Serif" font-size="10.00">MultiLedPattern.h</text>
</a>
</g>
</g>
<!-- Node1&#45;&gt;Node2 -->
<g id="edge1" class="edge">
<title>Node1&#45;&gt;Node2</title>
<path fill="none" stroke="midnightblue" d="M179.48,-336.4C179.48,-328.47 179.48,-318.46 179.48,-309.86"/>
<polygon fill="midnightblue" stroke="midnightblue" points="182.98,-309.66 179.48,-299.66 175.98,-309.66 182.98,-309.66"/>
</g>
<!-- Node13 -->
<g id="node13" class="node">
<title>Node13</title>
<g id="a_node13"><a xlink:href="Timings_8h.html" target="_top" xlink:title=" ">
<polygon fill="none" stroke="black" points="233.48,-224.5 233.48,-243.5 343.48,-243.5 343.48,-224.5 233.48,-224.5"/>
<text text-anchor="middle" x="288.48" y="-231.5" font-family="Helvetica,sans-Serif" font-size="10.00">../../Time/Timings.h</text>
</a>
</g>
</g>
<!-- Node1&#45;&gt;Node13 -->
<g id="edge18" class="edge">
<title>Node1&#45;&gt;Node13</title>
<path fill="none" stroke="midnightblue" d="M198.28,-336.47C210.61,-326.85 226.75,-313.44 239.48,-300 253.7,-285 267.67,-265.92 277.03,-252.32"/>
<polygon fill="midnightblue" stroke="midnightblue" points="280.02,-254.15 282.72,-243.9 274.22,-250.23 280.02,-254.15"/>
</g>
<!-- Node15 -->
<g id="node15" class="node">
<title>Node15</title>
<g id="a_node15"><a xlink:href="Timer_8h.html" target="_top" xlink:title=" ">
<polygon fill="none" stroke="black" points="13.98,-168.5 13.98,-187.5 112.98,-187.5 112.98,-168.5 13.98,-168.5"/>
<text text-anchor="middle" x="63.48" y="-175.5" font-family="Helvetica,sans-Serif" font-size="10.00">../../Time/Timer.h</text>
</a>
</g>
</g>
<!-- Node1&#45;&gt;Node15 -->
<g id="edge24" class="edge">
<title>Node1&#45;&gt;Node15</title>
<path fill="none" stroke="midnightblue" d="M158.57,-336.49C146,-327.26 130.39,-314.28 119.48,-300 94.64,-267.47 77.4,-222.15 69.11,-197.23"/>
<polygon fill="midnightblue" stroke="midnightblue" points="72.41,-196.06 66.02,-187.61 65.75,-198.2 72.41,-196.06"/>
</g>
<!-- Node3 -->
<g id="node3" class="node">
<title>Node3</title>
<g id="a_node3"><a xlink:href="Pattern_8h.html" target="_top" xlink:title=" ">
<polygon fill="none" stroke="black" points="144.98,-224.5 144.98,-243.5 213.98,-243.5 213.98,-224.5 144.98,-224.5"/>
<text text-anchor="middle" x="179.48" y="-231.5" font-family="Helvetica,sans-Serif" font-size="10.00">../Pattern.h</text>
</a>
</g>
</g>
<!-- Node2&#45;&gt;Node3 -->
<g id="edge2" class="edge">
<title>Node2&#45;&gt;Node3</title>
<path fill="none" stroke="midnightblue" d="M179.48,-280.08C179.48,-273.01 179.48,-262.86 179.48,-253.99"/>
<polygon fill="midnightblue" stroke="midnightblue" points="182.98,-253.75 179.48,-243.75 175.98,-253.75 182.98,-253.75"/>
</g>
<!-- Node4 -->
<g id="node4" class="node">
<title>Node4</title>
<g id="a_node4"><a xlink:href="LedTypes_8h.html" target="_top" xlink:title=" ">
<polygon fill="none" stroke="black" points="235.98,-112.5 235.98,-131.5 340.98,-131.5 340.98,-112.5 235.98,-112.5"/>
<text text-anchor="middle" x="288.48" y="-119.5" font-family="Helvetica,sans-Serif" font-size="10.00">../Leds/LedTypes.h</text>
</a>
</g>
</g>
<!-- Node3&#45;&gt;Node4 -->
<g id="edge3" class="edge">
<title>Node3&#45;&gt;Node4</title>
<path fill="none" stroke="midnightblue" d="M186.5,-224.25C196.92,-211.44 217.32,-187.04 236.48,-168 247.07,-157.48 259.72,-146.51 269.89,-138.03"/>
<polygon fill="midnightblue" stroke="midnightblue" points="272.25,-140.62 277.75,-131.56 267.8,-135.21 272.25,-140.62"/>
</g>
<!-- Node9 -->
<g id="node9" class="node">
<title>Node9</title>
<g id="a_node9"><a xlink:href="Colorset_8h.html" target="_top" xlink:title=" ">
<polygon fill="none" stroke="black" points="349.98,-168.5 349.98,-187.5 458.98,-187.5 458.98,-168.5 349.98,-168.5"/>
<text text-anchor="middle" x="404.48" y="-175.5" font-family="Helvetica,sans-Serif" font-size="10.00">../Colors/Colorset.h</text>
</a>
</g>
</g>
<!-- Node3&#45;&gt;Node9 -->
<g id="edge8" class="edge">
<title>Node3&#45;&gt;Node9</title>
<path fill="none" stroke="midnightblue" d="M214.15,-224.68C253.06,-215.34 316.35,-200.15 359.16,-189.88"/>
<polygon fill="midnightblue" stroke="midnightblue" points="360.13,-193.24 369.04,-187.51 358.5,-186.44 360.13,-193.24"/>
</g>
<!-- Node11 -->
<g id="node11" class="node">
<title>Node11</title>
<g id="a_node11"><a xlink:href="Patterns_8h.html" target="_top" xlink:title=" ">
<polygon fill="none" stroke="black" points="13.98,-112.5 13.98,-131.5 78.98,-131.5 78.98,-112.5 13.98,-112.5"/>
<text text-anchor="middle" x="46.48" y="-119.5" font-family="Helvetica,sans-Serif" font-size="10.00">Patterns.h</text>
</a>
</g>
</g>
<!-- Node3&#45;&gt;Node11 -->
<g id="edge14" class="edge">
<title>Node3&#45;&gt;Node11</title>
<path fill="none" stroke="midnightblue" d="M173.06,-224.25C163.06,-211 142.69,-185.55 121.48,-168 106.71,-155.77 88.25,-144.65 73.34,-136.53"/>
<polygon fill="midnightblue" stroke="midnightblue" points="74.61,-133.24 64.14,-131.64 71.33,-139.42 74.61,-133.24"/>
</g>
<!-- Node12 -->
<g id="node12" class="node">
<title>Node12</title>
<g id="a_node12"><a xlink:href="PatternArgs_8h.html" target="_top" xlink:title=" ">
<polygon fill="none" stroke="black" points="97.48,-112.5 97.48,-131.5 179.48,-131.5 179.48,-112.5 97.48,-112.5"/>
<text text-anchor="middle" x="138.48" y="-119.5" font-family="Helvetica,sans-Serif" font-size="10.00">PatternArgs.h</text>
</a>
</g>
</g>
<!-- Node3&#45;&gt;Node12 -->
<g id="edge16" class="edge">
<title>Node3&#45;&gt;Node12</title>
<path fill="none" stroke="midnightblue" d="M176.24,-224.16C171.65,-211.65 162.98,-188.06 155.48,-168 152.19,-159.19 148.51,-149.42 145.41,-141.24"/>
<polygon fill="midnightblue" stroke="midnightblue" points="148.58,-139.73 141.76,-131.62 142.04,-142.21 148.58,-139.73"/>
</g>
<!-- Node5 -->
<g id="node5" class="node">
<title>Node5</title>
<g id="a_node5"><a xlink:title=" ">
<polygon fill="none" stroke="#bfbfbf" points="140.98,-56.5 140.98,-75.5 205.98,-75.5 205.98,-56.5 140.98,-56.5"/>
<text text-anchor="middle" x="173.48" y="-63.5" font-family="Helvetica,sans-Serif" font-size="10.00">inttypes.h</text>
</a>
</g>
</g>
<!-- Node4&#45;&gt;Node5 -->
<g id="edge4" class="edge">
<title>Node4&#45;&gt;Node5</title>
<path fill="none" stroke="midnightblue" d="M270.26,-112.44C251.59,-103.68 222.33,-89.94 200.87,-79.86"/>
<polygon fill="midnightblue" stroke="midnightblue" points="202.16,-76.6 191.62,-75.52 199.19,-82.93 202.16,-76.6"/>
</g>
<!-- Node6 -->
<g id="node6" class="node">
<title>Node6</title>
<g id="a_node6"><a xlink:title=" ">
<polygon fill="none" stroke="#bfbfbf" points="260.48,-56.5 260.48,-75.5 316.48,-75.5 316.48,-56.5 260.48,-56.5"/>
<text text-anchor="middle" x="288.48" y="-63.5" font-family="Helvetica,sans-Serif" font-size="10.00">stdarg.h</text>
</a>
</g>
</g>
<!-- Node4&#45;&gt;Node6 -->
<g id="edge5" class="edge">
<title>Node4&#45;&gt;Node6</title>
<path fill="none" stroke="midnightblue" d="M288.48,-112.08C288.48,-105.01 288.48,-94.86 288.48,-85.99"/>
<polygon fill="midnightblue" stroke="midnightblue" points="291.98,-85.75 288.48,-75.75 284.98,-85.75 291.98,-85.75"/>
</g>
<!-- Node7 -->
<g id="node7" class="node">
<title>Node7</title>
<g id="a_node7"><a xlink:href="VortexConfig_8h.html" target="_top" xlink:title=" ">
<polygon fill="none" stroke="black" points="421.98,-56.5 421.98,-75.5 518.98,-75.5 518.98,-56.5 421.98,-56.5"/>
<text text-anchor="middle" x="470.48" y="-63.5" font-family="Helvetica,sans-Serif" font-size="10.00">../VortexConfig.h</text>
</a>
</g>
</g>
<!-- Node4&#45;&gt;Node7 -->
<g id="edge6" class="edge">
<title>Node4&#45;&gt;Node7</title>
<path fill="none" stroke="midnightblue" d="M317.32,-112.44C348.34,-103.24 397.81,-88.56 432.1,-78.39"/>
<polygon fill="midnightblue" stroke="midnightblue" points="433.19,-81.72 441.78,-75.52 431.2,-75.01 433.19,-81.72"/>
</g>
<!-- Node8 -->
<g id="node8" class="node">
<title>Node8</title>
<g id="a_node8"><a xlink:href="ColorConstants_8h.html" target="_top" xlink:title=" ">
<polygon fill="none" stroke="black" points="364.48,-0.5 364.48,-19.5 498.48,-19.5 498.48,-0.5 364.48,-0.5"/>
<text text-anchor="middle" x="431.48" y="-7.5" font-family="Helvetica,sans-Serif" font-size="10.00">Colors/ColorConstants.h</text>
</a>
</g>
</g>
<!-- Node7&#45;&gt;Node8 -->
<g id="edge7" class="edge">
<title>Node7&#45;&gt;Node8</title>
<path fill="none" stroke="midnightblue" d="M464.04,-56.08C458.54,-48.46 450.45,-37.26 443.72,-27.94"/>
<polygon fill="midnightblue" stroke="midnightblue" points="446.5,-25.81 437.8,-19.75 440.82,-29.91 446.5,-25.81"/>
</g>
<!-- Node9&#45;&gt;Node7 -->
<g id="edge13" class="edge">
<title>Node9&#45;&gt;Node7</title>
<path fill="none" stroke="midnightblue" d="M432.5,-168.4C449.66,-161.51 470.23,-149.98 480.48,-132 488.68,-117.61 484.38,-98.67 479.11,-84.94"/>
<polygon fill="midnightblue" stroke="midnightblue" points="482.27,-83.42 475.09,-75.63 475.84,-86.2 482.27,-83.42"/>
</g>
<!-- Node10 -->
<g id="node10" class="node">
<title>Node10</title>
<g id="a_node10"><a xlink:href="ColorTypes_8h.html" target="_top" xlink:title=" ">
<polygon fill="none" stroke="black" points="358.98,-112.5 358.98,-131.5 437.98,-131.5 437.98,-112.5 358.98,-112.5"/>
<text text-anchor="middle" x="398.48" y="-119.5" font-family="Helvetica,sans-Serif" font-size="10.00">ColorTypes.h</text>
</a>
</g>
</g>
<!-- Node9&#45;&gt;Node10 -->
<g id="edge9" class="edge">
<title>Node9&#45;&gt;Node10</title>
<path fill="none" stroke="midnightblue" d="M403.49,-168.08C402.7,-160.93 401.55,-150.64 400.56,-141.69"/>
<polygon fill="midnightblue" stroke="midnightblue" points="404.04,-141.3 399.46,-131.75 397.08,-142.08 404.04,-141.3"/>
</g>
<!-- Node10&#45;&gt;Node5 -->
<g id="edge10" class="edge">
<title>Node10&#45;&gt;Node5</title>
<path fill="none" stroke="midnightblue" d="M362.83,-112.44C322.91,-102.86 258.26,-87.35 215.81,-77.16"/>
<polygon fill="midnightblue" stroke="midnightblue" points="216.59,-73.75 206.05,-74.82 214.95,-80.55 216.59,-73.75"/>
</g>
<!-- Node10&#45;&gt;Node7 -->
<g id="edge11" class="edge">
<title>Node10&#45;&gt;Node7</title>
<path fill="none" stroke="midnightblue" d="M410.05,-112.32C420.9,-104.18 437.36,-91.84 450.37,-82.09"/>
<polygon fill="midnightblue" stroke="midnightblue" points="452.81,-84.63 458.71,-75.83 448.61,-79.03 452.81,-84.63"/>
</g>
<!-- Node10&#45;&gt;Node8 -->
<g id="edge12" class="edge">
<title>Node10&#45;&gt;Node8</title>
<path fill="none" stroke="midnightblue" d="M400.02,-112.47C402.37,-99.95 407.25,-75.89 413.48,-56 416.31,-46.97 420.13,-37.18 423.53,-29.05"/>
<polygon fill="midnightblue" stroke="midnightblue" points="426.76,-30.39 427.49,-19.82 420.33,-27.63 426.76,-30.39"/>
</g>
<!-- Node11&#45;&gt;Node5 -->
<g id="edge15" class="edge">
<title>Node11&#45;&gt;Node5</title>
<path fill="none" stroke="midnightblue" d="M66.61,-112.44C87.51,-103.56 120.42,-89.56 144.2,-79.45"/>
<polygon fill="midnightblue" stroke="midnightblue" points="145.62,-82.65 153.45,-75.52 142.88,-76.21 145.62,-82.65"/>
</g>
<!-- Node12&#45;&gt;Node5 -->
<g id="edge17" class="edge">
<title>Node12&#45;&gt;Node5</title>
<path fill="none" stroke="midnightblue" d="M144.26,-112.08C149.16,-104.53 156.31,-93.49 162.32,-84.23"/>
<polygon fill="midnightblue" stroke="midnightblue" points="165.31,-86.05 167.81,-75.75 159.44,-82.24 165.31,-86.05"/>
</g>
<!-- Node13&#45;&gt;Node7 -->
<g id="edge23" class="edge">
<title>Node13&#45;&gt;Node7</title>
<path fill="none" stroke="midnightblue" d="M343.78,-231.08C382.41,-227.11 433.18,-216.32 468.48,-188 496.56,-165.48 505.81,-146.77 496.48,-112 493.83,-102.1 488.41,-92.13 483.21,-84.1"/>
<polygon fill="midnightblue" stroke="midnightblue" points="485.95,-81.91 477.37,-75.68 480.2,-85.89 485.95,-81.91"/>
</g>
<!-- Node14 -->
<g id="node14" class="node">
<title>Node14</title>
<g id="a_node14"><a xlink:href="TimeControl_8h.html" target="_top" xlink:title=" ">
<polygon fill="none" stroke="black" points="245.48,-168.5 245.48,-187.5 331.48,-187.5 331.48,-168.5 245.48,-168.5"/>
<text text-anchor="middle" x="288.48" y="-175.5" font-family="Helvetica,sans-Serif" font-size="10.00">TimeControl.h</text>
</a>
</g>
</g>
<!-- Node13&#45;&gt;Node14 -->
<g id="edge19" class="edge">
<title>Node13&#45;&gt;Node14</title>
<path fill="none" stroke="midnightblue" d="M288.48,-224.08C288.48,-217.01 288.48,-206.86 288.48,-197.99"/>
<polygon fill="midnightblue" stroke="midnightblue" points="291.98,-197.75 288.48,-187.75 284.98,-197.75 291.98,-197.75"/>
</g>
<!-- Node14&#45;&gt;Node4 -->
<g id="edge22" class="edge">
<title>Node14&#45;&gt;Node4</title>
<path fill="none" stroke="midnightblue" d="M288.48,-168.08C288.48,-161.01 288.48,-150.86 288.48,-141.99"/>
<polygon fill="midnightblue" stroke="midnightblue" points="291.98,-141.75 288.48,-131.75 284.98,-141.75 291.98,-141.75"/>
</g>
<!-- Node14&#45;&gt;Node5 -->
<g id="edge20" class="edge">
<title>Node14&#45;&gt;Node5</title>
<path fill="none" stroke="midnightblue" d="M274.67,-168.22C261.8,-159.72 242.41,-146.09 227.48,-132 211.56,-116.96 195.84,-97.36 185.51,-83.63"/>
<polygon fill="midnightblue" stroke="midnightblue" points="188.3,-81.52 179.54,-75.56 182.67,-85.68 188.3,-81.52"/>
</g>
<!-- Node14&#45;&gt;Node7 -->
<g id="edge21" class="edge">
<title>Node14&#45;&gt;Node7</title>
<path fill="none" stroke="midnightblue" d="M331.73,-169.38C372.82,-161.35 430.74,-147.7 447.48,-132 460.3,-119.98 465.98,-100.38 468.5,-85.84"/>
<polygon fill="midnightblue" stroke="midnightblue" points="472.02,-85.89 469.91,-75.51 465.09,-84.94 472.02,-85.89"/>
</g>
<!-- Node15&#45;&gt;Node4 -->
<g id="edge26" class="edge">
<title>Node15&#45;&gt;Node4</title>
<path fill="none" stroke="midnightblue" d="M99.14,-168.44C138.14,-159.08 200.75,-144.06 243.2,-133.87"/>
<polygon fill="midnightblue" stroke="midnightblue" points="244.09,-137.25 253,-131.52 242.46,-130.45 244.09,-137.25"/>
</g>
<!-- Node15&#45;&gt;Node5 -->
<g id="edge25" class="edge">
<title>Node15&#45;&gt;Node5</title>
<path fill="none" stroke="midnightblue" d="M45.4,-168.36C22.54,-156.27 -11.95,-133.39 4.48,-112 19.8,-92.07 86.02,-79.09 130.88,-72.41"/>
<polygon fill="midnightblue" stroke="midnightblue" points="131.54,-75.86 140.94,-70.97 130.54,-68.93 131.54,-75.86"/>
</g>
</g>
</svg>
