<?xml version="1.0" encoding="UTF-8" standalone="no"?>
<!DOCTYPE svg PUBLIC "-//W3C//DTD SVG 1.1//EN"
 "http://www.w3.org/Graphics/SVG/1.1/DTD/svg11.dtd">
<!-- Generated by graphviz version 2.43.0 (0)
 -->
<!-- Title: VortexEngine/src/Wireless/VLConfig.h Pages: 1 -->
<svg width="875pt" height="173pt"
 viewBox="0.00 0.00 874.50 173.00" xmlns="http://www.w3.org/2000/svg" xmlns:xlink="http://www.w3.org/1999/xlink">
<g id="graph0" class="graph" transform="scale(1 1) rotate(0) translate(4 169)">
<title>VortexEngine/src/Wireless/VLConfig.h</title>
<!-- Node1 -->
<g id="node1" class="node">
<title>Node1</title>
<g id="a_node1"><a xlink:title=" ">
<polygon fill="#bfbfbf" stroke="black" points="276,-134.5 276,-164.5 419,-164.5 419,-134.5 276,-134.5"/>
<text text-anchor="start" x="284" y="-152.5" font-family="Helvetica,sans-Serif" font-size="10.00">VortexEngine/src/Wireless</text>
<text text-anchor="middle" x="347.5" y="-141.5" font-family="Helvetica,sans-Serif" font-size="10.00">/VLConfig.h</text>
</a>
</g>
</g>
<!-- Node2 -->
<g id="node2" class="node">
<title>Node2</title>
<g id="a_node2"><a xlink:href="VortexEngine_8cpp.html" target="_top" xlink:title=" ">
<polygon fill="none" stroke="black" points="161.5,-6 161.5,-25 347.5,-25 347.5,-6 161.5,-6"/>
<text text-anchor="middle" x="254.5" y="-13" font-family="Helvetica,sans-Serif" font-size="10.00">VortexEngine/src/VortexEngine.cpp</text>
</a>
</g>
</g>
<!-- Node1&#45;&gt;Node2 -->
<g id="edge1" class="edge">
<title>Node1&#45;&gt;Node2</title>
<path fill="none" stroke="midnightblue" d="M346.04,-123.91C343.99,-106.69 339.09,-83.83 327.5,-67 314.13,-47.58 290.66,-33.34 273.95,-25.02"/>
<polygon fill="midnightblue" stroke="midnightblue" points="342.6,-124.67 347.02,-134.3 349.57,-124.01 342.6,-124.67"/>
</g>
<!-- Node3 -->
<g id="node3" class="node">
<title>Node3</title>
<g id="a_node3"><a xlink:href="VLReceiver_8h.html" target="_top" xlink:title=" ">
<polygon fill="none" stroke="black" points="176,-67.5 176,-97.5 319,-97.5 319,-67.5 176,-67.5"/>
<text text-anchor="start" x="184" y="-85.5" font-family="Helvetica,sans-Serif" font-size="10.00">VortexEngine/src/Wireless</text>
<text text-anchor="middle" x="247.5" y="-74.5" font-family="Helvetica,sans-Serif" font-size="10.00">/VLReceiver.h</text>
</a>
</g>
</g>
<!-- Node1&#45;&gt;Node3 -->
<g id="edge2" class="edge">
<title>Node1&#45;&gt;Node3</title>
<path fill="none" stroke="midnightblue" d="M317.09,-128.73C301.62,-118.68 283.17,-106.68 269.16,-97.58"/>
<polygon fill="midnightblue" stroke="midnightblue" points="315.51,-131.88 325.8,-134.4 319.32,-126.01 315.51,-131.88"/>
</g>
<!-- Node6 -->
<g id="node6" class="node">
<title>Node6</title>
<g id="a_node6"><a xlink:href="VLSender_8h.html" target="_top" xlink:title=" ">
<polygon fill="none" stroke="black" points="376,-67.5 376,-97.5 519,-97.5 519,-67.5 376,-67.5"/>
<text text-anchor="start" x="384" y="-85.5" font-family="Helvetica,sans-Serif" font-size="10.00">VortexEngine/src/Wireless</text>
<text text-anchor="middle" x="447.5" y="-74.5" font-family="Helvetica,sans-Serif" font-size="10.00">/VLSender.h</text>
</a>
</g>
</g>
<!-- Node1&#45;&gt;Node6 -->
<g id="edge6" class="edge">
<title>Node1&#45;&gt;Node6</title>
<path fill="none" stroke="midnightblue" d="M377.91,-128.73C393.38,-118.68 411.83,-106.68 425.84,-97.58"/>
<polygon fill="midnightblue" stroke="midnightblue" points="375.68,-126.01 369.2,-134.4 379.49,-131.88 375.68,-126.01"/>
</g>
<!-- Node3&#45;&gt;Node2 -->
<g id="edge4" class="edge">
<title>Node3&#45;&gt;Node2</title>
<path fill="none" stroke="midnightblue" d="M250.11,-57.25C251.32,-46.02 252.68,-33.38 253.56,-25.19"/>
<polygon fill="midnightblue" stroke="midnightblue" points="246.61,-57.08 249.02,-67.4 253.57,-57.83 246.61,-57.08"/>
</g>
<!-- Node4 -->
<g id="node4" class="node">
<title>Node4</title>
<g id="a_node4"><a xlink:href="ModeSharing_8cpp.html" target="_top" xlink:title=" ">
<polygon fill="none" stroke="black" points="366,-0.5 366,-30.5 517,-30.5 517,-0.5 366,-0.5"/>
<text text-anchor="start" x="374" y="-18.5" font-family="Helvetica,sans-Serif" font-size="10.00">VortexEngine/src/Menus</text>
<text text-anchor="middle" x="441.5" y="-7.5" font-family="Helvetica,sans-Serif" font-size="10.00">/MenuList/ModeSharing.cpp</text>
</a>
</g>
</g>
<!-- Node3&#45;&gt;Node4 -->
<g id="edge3" class="edge">
<title>Node3&#45;&gt;Node4</title>
<path fill="none" stroke="midnightblue" d="M299.46,-64.09C330.77,-53.6 370.14,-40.41 399.49,-30.58"/>
<polygon fill="midnightblue" stroke="midnightblue" points="297.97,-60.9 289.6,-67.4 300.19,-67.54 297.97,-60.9"/>
</g>
<!-- Node5 -->
<g id="node5" class="node">
<title>Node5</title>
<g id="a_node5"><a xlink:href="VLReceiver_8cpp.html" target="_top" xlink:title=" ">
<polygon fill="none" stroke="black" points="0,-0.5 0,-30.5 143,-30.5 143,-0.5 0,-0.5"/>
<text text-anchor="start" x="8" y="-18.5" font-family="Helvetica,sans-Serif" font-size="10.00">VortexEngine/src/Wireless</text>
<text text-anchor="middle" x="71.5" y="-7.5" font-family="Helvetica,sans-Serif" font-size="10.00">/VLReceiver.cpp</text>
</a>
</g>
</g>
<!-- Node3&#45;&gt;Node5 -->
<g id="edge5" class="edge">
<title>Node3&#45;&gt;Node5</title>
<path fill="none" stroke="midnightblue" d="M199.62,-63.82C171.33,-53.37 136.01,-40.32 109.61,-30.58"/>
<polygon fill="midnightblue" stroke="midnightblue" points="198.72,-67.21 209.31,-67.4 201.14,-60.65 198.72,-67.21"/>
</g>
<!-- Node6&#45;&gt;Node2 -->
<g id="edge9" class="edge">
<title>Node6&#45;&gt;Node2</title>
<path fill="none" stroke="midnightblue" d="M395.86,-64.11C358.31,-51.46 309.11,-34.89 279.76,-25.01"/>
<polygon fill="midnightblue" stroke="midnightblue" points="395.03,-67.52 405.62,-67.4 397.26,-60.89 395.03,-67.52"/>
</g>
<!-- Node6&#45;&gt;Node4 -->
<g id="edge8" class="edge">
<title>Node6&#45;&gt;Node4</title>
<path fill="none" stroke="midnightblue" d="M445.28,-57.4C444.44,-48.37 443.52,-38.41 442.8,-30.58"/>
<polygon fill="midnightblue" stroke="midnightblue" points="441.79,-57.76 446.2,-67.4 448.76,-57.12 441.79,-57.76"/>
</g>
<!-- Node7 -->
<g id="node7" class="node">
<title>Node7</title>
<g id="a_node7"><a xlink:href="EditorConnection_8cpp.html" target="_top" xlink:title=" ">
<polygon fill="none" stroke="black" points="696.5,-0.5 696.5,-30.5 866.5,-30.5 866.5,-0.5 696.5,-0.5"/>
<text text-anchor="start" x="704.5" y="-18.5" font-family="Helvetica,sans-Serif" font-size="10.00">VortexEngine/src/Menus</text>
<text text-anchor="middle" x="781.5" y="-7.5" font-family="Helvetica,sans-Serif" font-size="10.00">/MenuList/EditorConnection.cpp</text>
</a>
</g>
</g>
<!-- Node6&#45;&gt;Node7 -->
<g id="edge7" class="edge">
<title>Node6&#45;&gt;Node7</title>
<path fill="none" stroke="midnightblue" d="M529.24,-65.59C584.36,-54.87 656.41,-40.84 709.39,-30.53"/>
<polygon fill="midnightblue" stroke="midnightblue" points="528.3,-62.21 519.15,-67.56 529.64,-69.08 528.3,-62.21"/>
</g>
<!-- Node8 -->
<g id="node8" class="node">
<title>Node8</title>
<g id="a_node8"><a xlink:href="VLSender_8cpp.html" target="_top" xlink:title=" ">
<polygon fill="none" stroke="black" points="535,-0.5 535,-30.5 678,-30.5 678,-0.5 535,-0.5"/>
<text text-anchor="start" x="543" y="-18.5" font-family="Helvetica,sans-Serif" font-size="10.00">VortexEngine/src/Wireless</text>
<text text-anchor="middle" x="606.5" y="-7.5" font-family="Helvetica,sans-Serif" font-size="10.00">/VLSender.cpp</text>
</a>
</g>
</g>
<!-- Node6&#45;&gt;Node8 -->
<g id="edge10" class="edge">
<title>Node6&#45;&gt;Node8</title>
<path fill="none" stroke="midnightblue" d="M491.42,-63.54C516.87,-53.14 548.43,-40.24 572.07,-30.58"/>
<polygon fill="midnightblue" stroke="midnightblue" points="489.93,-60.37 482,-67.4 492.58,-66.85 489.93,-60.37"/>
</g>
</g>
</svg>
