<?xml version="1.0" encoding="UTF-8" standalone="no"?>
<!DOCTYPE svg PUBLIC "-//W3C//DTD SVG 1.1//EN"
 "http://www.w3.org/Graphics/SVG/1.1/DTD/svg11.dtd">
<!-- Generated by graphviz version 2.43.0 (0)
 -->
<!-- Title: VortexEngine/src/Wireless/VLSender.cpp Pages: 1 -->
<!--zoomable 375 -->
<svg id="main" version="1.1" xmlns="http://www.w3.org/2000/svg" xmlns:xlink="http://www.w3.org/1999/xlink" xml:space="preserve" onload="init(evt)">
<style type="text/css"><![CDATA[
.edge:hover path { stroke: red; }
.edge:hover polygon { stroke: red; fill: red; }
]]></style>
<script type="text/javascript"><![CDATA[
var edges = document.getElementsByTagName('g');
if (edges && edges.length) {
  for (var i=0;i<edges.length;i++) {
    if (edges[i].id.substr(0,4)=='edge') {
      edges[i].setAttribute('class','edge');
    }
  }
}
]]></script>
        <defs>
                <circle id="rim" cx="0" cy="0" r="7"/>
                <circle id="rim2" cx="0" cy="0" r="3.5"/>
                <g id="zoomPlus">
                        <use xlink:href="#rim" fill="#404040">
                                <set attributeName="fill" to="#808080" begin="zoomplus.mouseover" end="zoomplus.mouseout"/>
                        </use>
                        <path d="M-4,0h8M0,-4v8" fill="none" stroke="white" stroke-width="1.5" pointer-events="none"/>
                </g>
                <g id="zoomMin">
                        <use xlink:href="#rim" fill="#404040">
                                <set attributeName="fill" to="#808080" begin="zoomminus.mouseover" end="zoomminus.mouseout"/>
                        </use>
                        <path d="M-4,0h8" fill="none" stroke="white" stroke-width="1.5" pointer-events="none"/>
                </g>
                <g id="dirArrow">
                        <path fill="none" stroke="white" stroke-width="1.5" d="M0,-3.0v7 M-2.5,-0.5L0,-3.0L2.5,-0.5"/>
                </g>
               <g id="resetDef">
                       <use xlink:href="#rim2" fill="#404040">
                               <set attributeName="fill" to="#808080" begin="reset.mouseover" end="reset.mouseout"/>
                       </use>
               </g>
        </defs>

<script type="text/javascript">
var viewWidth = 857;
var viewHeight = 375;
var sectionId = 'dynsection-0';
</script>
<script xlink:href="svgpan.js"/>
<svg id="graph" class="graph">
<g id="viewport">
<title>VortexEngine/src/Wireless/VLSender.cpp</title>
<!-- Node1 -->
<g id="node1" class="node">
<title>Node1</title>
<g id="a_node1"><a xlink:title=" ">
<polygon fill="#bfbfbf" stroke="black" points="263.42,-336.5 263.42,-366.5 406.42,-366.5 406.42,-336.5 263.42,-336.5"/>
<text text-anchor="start" x="271.42" y="-354.5" font-family="Helvetica,sans-Serif" font-size="10.00">VortexEngine/src/Wireless</text>
<text text-anchor="middle" x="334.92" y="-343.5" font-family="Helvetica,sans-Serif" font-size="10.00">/VLSender.cpp</text>
</a>
</g>
</g>
<!-- Node2 -->
<g id="node2" class="node">
<title>Node2</title>
<g id="a_node2"><a xlink:href="VLSender_8h.html" target="_top" xlink:title=" ">
<polygon fill="none" stroke="black" points="299.42,-280.5 299.42,-299.5 370.42,-299.5 370.42,-280.5 299.42,-280.5"/>
<text text-anchor="middle" x="334.92" y="-287.5" font-family="Helvetica,sans-Serif" font-size="10.00">VLSender.h</text>
</a>
</g>
</g>
<!-- Node1&#45;&gt;Node2 -->
<g id="edge1" class="edge">
<title>Node1&#45;&gt;Node2</title>
<path fill="none" stroke="midnightblue" d="M334.92,-336.4C334.92,-328.47 334.92,-318.46 334.92,-309.86"/>
<polygon fill="midnightblue" stroke="midnightblue" points="338.42,-309.66 334.92,-299.66 331.42,-309.66 338.42,-309.66"/>
</g>
<!-- Node5 -->
<g id="node5" class="node">
<title>Node5</title>
<g id="a_node5"><a xlink:href="Log_8h.html" target="_top" xlink:title=" ">
<polygon fill="none" stroke="black" points="584.92,-168.5 584.92,-187.5 656.92,-187.5 656.92,-168.5 584.92,-168.5"/>
<text text-anchor="middle" x="620.92" y="-175.5" font-family="Helvetica,sans-Serif" font-size="10.00">../Log/Log.h</text>
</a>
</g>
</g>
<!-- Node1&#45;&gt;Node5 -->
<g id="edge38" class="edge">
<title>Node1&#45;&gt;Node5</title>
<path fill="none" stroke="midnightblue" d="M406.56,-341.47C468.74,-329.77 556.48,-303.29 606.92,-244 617.78,-231.23 620.82,-212.04 621.42,-197.82"/>
<polygon fill="midnightblue" stroke="midnightblue" points="624.92,-197.71 621.49,-187.69 617.92,-197.67 624.92,-197.71"/>
</g>
<!-- Node12 -->
<g id="node12" class="node">
<title>Node12</title>
<g id="a_node12"><a xlink:href="TimeControl_8h.html" target="_top" xlink:title=" ">
<polygon fill="none" stroke="black" points="271.92,-168.5 271.92,-187.5 393.92,-187.5 393.92,-168.5 271.92,-168.5"/>
<text text-anchor="middle" x="332.92" y="-175.5" font-family="Helvetica,sans-Serif" font-size="10.00">../Time/TimeControl.h</text>
</a>
</g>
</g>
<!-- Node1&#45;&gt;Node12 -->
<g id="edge15" class="edge">
<title>Node1&#45;&gt;Node12</title>
<path fill="none" stroke="midnightblue" d="M268.62,-336.42C193.64,-317.47 87.4,-279.59 131.92,-224 148.16,-203.72 210.73,-191.96 261.79,-185.59"/>
<polygon fill="midnightblue" stroke="midnightblue" points="262.32,-189.05 271.84,-184.39 261.49,-182.1 262.32,-189.05"/>
</g>
<!-- Node14 -->
<g id="node14" class="node">
<title>Node14</title>
<g id="a_node14"><a xlink:href="Mode_8h.html" target="_top" xlink:title=" ">
<polygon fill="none" stroke="black" points="414.42,-224.5 414.42,-243.5 511.42,-243.5 511.42,-224.5 414.42,-224.5"/>
<text text-anchor="middle" x="462.92" y="-231.5" font-family="Helvetica,sans-Serif" font-size="10.00">../Modes/Mode.h</text>
</a>
</g>
</g>
<!-- Node1&#45;&gt;Node14 -->
<g id="edge22" class="edge">
<title>Node1&#45;&gt;Node14</title>
<path fill="none" stroke="midnightblue" d="M350.61,-336.34C374.72,-314.58 420.7,-273.09 445.7,-250.54"/>
<polygon fill="midnightblue" stroke="midnightblue" points="448.23,-252.97 453.31,-243.67 443.54,-247.77 448.23,-252.97"/>
</g>
<!-- Node17 -->
<g id="node17" class="node">
<title>Node17</title>
<g id="a_node17"><a xlink:href="Leds_8h.html" target="_top" xlink:title=" ">
<polygon fill="none" stroke="black" points="33.42,-168.5 33.42,-187.5 116.42,-187.5 116.42,-168.5 33.42,-168.5"/>
<text text-anchor="middle" x="74.92" y="-175.5" font-family="Helvetica,sans-Serif" font-size="10.00">../Leds/Leds.h</text>
</a>
</g>
</g>
<!-- Node1&#45;&gt;Node17 -->
<g id="edge31" class="edge">
<title>Node1&#45;&gt;Node17</title>
<path fill="none" stroke="midnightblue" d="M263.17,-347.26C221.51,-342.03 170.24,-329.47 133.92,-300 101.21,-273.46 85.31,-224.31 78.77,-197.54"/>
<polygon fill="midnightblue" stroke="midnightblue" points="82.13,-196.56 76.51,-187.57 75.3,-198.1 82.13,-196.56"/>
</g>
<!-- Node3 -->
<g id="node3" class="node">
<title>Node3</title>
<g id="a_node3"><a xlink:href="ByteStream_8h.html" target="_top" xlink:title=" ">
<polygon fill="none" stroke="black" points="273.42,-224.5 273.42,-243.5 396.42,-243.5 396.42,-224.5 273.42,-224.5"/>
<text text-anchor="middle" x="334.92" y="-231.5" font-family="Helvetica,sans-Serif" font-size="10.00">../Serial/ByteStream.h</text>
</a>
</g>
</g>
<!-- Node2&#45;&gt;Node3 -->
<g id="edge2" class="edge">
<title>Node2&#45;&gt;Node3</title>
<path fill="none" stroke="midnightblue" d="M334.92,-280.08C334.92,-273.01 334.92,-262.86 334.92,-253.99"/>
<polygon fill="midnightblue" stroke="midnightblue" points="338.42,-253.75 334.92,-243.75 331.42,-253.75 338.42,-253.75"/>
</g>
<!-- Node10 -->
<g id="node10" class="node">
<title>Node10</title>
<g id="a_node10"><a xlink:href="BitStream_8h.html" target="_top" xlink:title=" ">
<polygon fill="none" stroke="black" points="140.92,-224.5 140.92,-243.5 254.92,-243.5 254.92,-224.5 140.92,-224.5"/>
<text text-anchor="middle" x="197.92" y="-231.5" font-family="Helvetica,sans-Serif" font-size="10.00">../Serial/BitStream.h</text>
</a>
</g>
</g>
<!-- Node2&#45;&gt;Node10 -->
<g id="edge11" class="edge">
<title>Node2&#45;&gt;Node10</title>
<path fill="none" stroke="midnightblue" d="M313.21,-280.44C290.56,-271.52 254.85,-257.44 229.17,-247.32"/>
<polygon fill="midnightblue" stroke="midnightblue" points="230.11,-243.93 219.53,-243.52 227.55,-250.44 230.11,-243.93"/>
</g>
<!-- Node11 -->
<g id="node11" class="node">
<title>Node11</title>
<g id="a_node11"><a xlink:href="VLConfig_8h.html" target="_top" xlink:title=" ">
<polygon fill="none" stroke="black" points="529.92,-224.5 529.92,-243.5 597.92,-243.5 597.92,-224.5 529.92,-224.5"/>
<text text-anchor="middle" x="563.92" y="-231.5" font-family="Helvetica,sans-Serif" font-size="10.00">VLConfig.h</text>
</a>
</g>
</g>
<!-- Node2&#45;&gt;Node11 -->
<g id="edge13" class="edge">
<title>Node2&#45;&gt;Node11</title>
<path fill="none" stroke="midnightblue" d="M370.7,-280.56C410.99,-271.06 476.5,-255.61 519.9,-245.38"/>
<polygon fill="midnightblue" stroke="midnightblue" points="520.95,-248.73 529.88,-243.03 519.35,-241.91 520.95,-248.73"/>
</g>
<!-- Node4 -->
<g id="node4" class="node">
<title>Node4</title>
<g id="a_node4"><a xlink:title=" ">
<polygon fill="none" stroke="#bfbfbf" points="188.42,-56.5 188.42,-75.5 253.42,-75.5 253.42,-56.5 188.42,-56.5"/>
<text text-anchor="middle" x="220.92" y="-63.5" font-family="Helvetica,sans-Serif" font-size="10.00">inttypes.h</text>
</a>
</g>
</g>
<!-- Node3&#45;&gt;Node4 -->
<g id="edge3" class="edge">
<title>Node3&#45;&gt;Node4</title>
<path fill="none" stroke="midnightblue" d="M308.27,-224.42C290.41,-217.35 267.72,-205.6 253.92,-188 230.15,-157.69 223.47,-111.49 221.62,-85.83"/>
<polygon fill="midnightblue" stroke="midnightblue" points="225.1,-85.42 221.06,-75.62 218.11,-85.8 225.1,-85.42"/>
</g>
<!-- Node3&#45;&gt;Node5 -->
<g id="edge4" class="edge">
<title>Node3&#45;&gt;Node5</title>
<path fill="none" stroke="midnightblue" d="M380.24,-224.44C433.51,-214.39 521.42,-197.79 574.96,-187.68"/>
<polygon fill="midnightblue" stroke="midnightblue" points="575.69,-191.1 584.87,-185.81 574.39,-184.22 575.69,-191.1"/>
</g>
<!-- Node6 -->
<g id="node6" class="node">
<title>Node6</title>
<g id="a_node6"><a xlink:title=" ">
<polygon fill="none" stroke="#bfbfbf" points="467.92,-56.5 467.92,-75.5 523.92,-75.5 523.92,-56.5 467.92,-56.5"/>
<text text-anchor="middle" x="495.92" y="-63.5" font-family="Helvetica,sans-Serif" font-size="10.00">stdarg.h</text>
</a>
</g>
</g>
<!-- Node5&#45;&gt;Node6 -->
<g id="edge5" class="edge">
<title>Node5&#45;&gt;Node6</title>
<path fill="none" stroke="midnightblue" d="M607.09,-168.45C593.7,-159.91 573.12,-146.07 556.92,-132 539.31,-116.71 521.29,-96.89 509.45,-83.18"/>
<polygon fill="midnightblue" stroke="midnightblue" points="512.08,-80.87 502.93,-75.52 506.75,-85.41 512.08,-80.87"/>
</g>
<!-- Node7 -->
<g id="node7" class="node">
<title>Node7</title>
<g id="a_node7"><a xlink:href="VortexConfig_8h.html" target="_top" xlink:title=" ">
<polygon fill="none" stroke="black" points="656.42,-56.5 656.42,-75.5 753.42,-75.5 753.42,-56.5 656.42,-56.5"/>
<text text-anchor="middle" x="704.92" y="-63.5" font-family="Helvetica,sans-Serif" font-size="10.00">../VortexConfig.h</text>
</a>
</g>
</g>
<!-- Node5&#45;&gt;Node7 -->
<g id="edge6" class="edge">
<title>Node5&#45;&gt;Node7</title>
<path fill="none" stroke="midnightblue" d="M657.18,-176.1C689.25,-173.15 734.34,-163.25 756.92,-132 769.98,-113.92 748.39,-94.01 729.18,-81.05"/>
<polygon fill="midnightblue" stroke="midnightblue" points="730.97,-78.04 720.65,-75.62 727.21,-83.94 730.97,-78.04"/>
</g>
<!-- Node9 -->
<g id="node9" class="node">
<title>Node9</title>
<g id="a_node9"><a xlink:href="ErrorBlinker_8h.html" target="_top" xlink:title=" ">
<polygon fill="none" stroke="black" points="565.42,-112.5 565.42,-131.5 676.42,-131.5 676.42,-112.5 565.42,-112.5"/>
<text text-anchor="middle" x="620.92" y="-119.5" font-family="Helvetica,sans-Serif" font-size="10.00">../Log/ErrorBlinker.h</text>
</a>
</g>
</g>
<!-- Node5&#45;&gt;Node9 -->
<g id="edge8" class="edge">
<title>Node5&#45;&gt;Node9</title>
<path fill="none" stroke="midnightblue" d="M620.92,-168.08C620.92,-161.01 620.92,-150.86 620.92,-141.99"/>
<polygon fill="midnightblue" stroke="midnightblue" points="624.42,-141.75 620.92,-131.75 617.42,-141.75 624.42,-141.75"/>
</g>
<!-- Node8 -->
<g id="node8" class="node">
<title>Node8</title>
<g id="a_node8"><a xlink:href="ColorConstants_8h.html" target="_top" xlink:title=" ">
<polygon fill="none" stroke="black" points="341.92,-0.5 341.92,-19.5 475.92,-19.5 475.92,-0.5 341.92,-0.5"/>
<text text-anchor="middle" x="408.92" y="-7.5" font-family="Helvetica,sans-Serif" font-size="10.00">Colors/ColorConstants.h</text>
</a>
</g>
</g>
<!-- Node7&#45;&gt;Node8 -->
<g id="edge7" class="edge">
<title>Node7&#45;&gt;Node8</title>
<path fill="none" stroke="midnightblue" d="M658.02,-56.44C605.84,-46.92 521.55,-31.55 465.69,-21.36"/>
<polygon fill="midnightblue" stroke="midnightblue" points="466.07,-17.87 455.6,-19.52 464.81,-24.75 466.07,-17.87"/>
</g>
<!-- Node9&#45;&gt;Node4 -->
<g id="edge9" class="edge">
<title>Node9&#45;&gt;Node4</title>
<path fill="none" stroke="midnightblue" d="M565.3,-113.49C484.58,-102.59 336.69,-82.63 263.82,-72.79"/>
<polygon fill="midnightblue" stroke="midnightblue" points="264,-69.28 253.63,-71.42 263.07,-76.22 264,-69.28"/>
</g>
<!-- Node9&#45;&gt;Node7 -->
<g id="edge10" class="edge">
<title>Node9&#45;&gt;Node7</title>
<path fill="none" stroke="midnightblue" d="M634.41,-112.32C647.52,-103.9 667.63,-90.97 683.03,-81.07"/>
<polygon fill="midnightblue" stroke="midnightblue" points="684.94,-84.01 691.46,-75.65 681.15,-78.12 684.94,-84.01"/>
</g>
<!-- Node10&#45;&gt;Node4 -->
<g id="edge12" class="edge">
<title>Node10&#45;&gt;Node4</title>
<path fill="none" stroke="midnightblue" d="M194.91,-224.22C188.42,-203.89 174.74,-152.27 187.92,-112 191.41,-101.34 198.49,-91.12 205.2,-83.12"/>
<polygon fill="midnightblue" stroke="midnightblue" points="207.82,-85.44 211.9,-75.66 202.61,-80.76 207.82,-85.44"/>
</g>
<!-- Node11&#45;&gt;Node7 -->
<g id="edge14" class="edge">
<title>Node11&#45;&gt;Node7</title>
<path fill="none" stroke="midnightblue" d="M598.13,-232.53C663.7,-230.84 803.2,-223.1 832.92,-188 854.74,-162.22 852.44,-139.56 832.92,-112 817.11,-89.69 789.32,-78.36 763.66,-72.64"/>
<polygon fill="midnightblue" stroke="midnightblue" points="764.08,-69.15 753.59,-70.64 762.72,-76.02 764.08,-69.15"/>
</g>
<!-- Node12&#45;&gt;Node4 -->
<g id="edge16" class="edge">
<title>Node12&#45;&gt;Node4</title>
<path fill="none" stroke="midnightblue" d="M313.81,-168.41C297.98,-160.6 275.61,-147.89 259.92,-132 246.37,-118.29 235.56,-98.99 228.79,-84.99"/>
<polygon fill="midnightblue" stroke="midnightblue" points="231.96,-83.5 224.59,-75.88 225.6,-86.43 231.96,-83.5"/>
</g>
<!-- Node12&#45;&gt;Node7 -->
<g id="edge17" class="edge">
<title>Node12&#45;&gt;Node7</title>
<path fill="none" stroke="midnightblue" d="M394,-169.14C397.02,-168.76 400,-168.37 402.92,-168 465.8,-159.96 637.7,-173.15 685.92,-132 699.17,-120.69 703.45,-100.69 704.7,-85.85"/>
<polygon fill="midnightblue" stroke="midnightblue" points="708.2,-85.89 705.16,-75.74 701.21,-85.57 708.2,-85.89"/>
</g>
<!-- Node13 -->
<g id="node13" class="node">
<title>Node13</title>
<g id="a_node13"><a xlink:href="LedTypes_8h.html" target="_top" xlink:title=" ">
<polygon fill="none" stroke="black" points="403.42,-112.5 403.42,-131.5 508.42,-131.5 508.42,-112.5 403.42,-112.5"/>
<text text-anchor="middle" x="455.92" y="-119.5" font-family="Helvetica,sans-Serif" font-size="10.00">../Leds/LedTypes.h</text>
</a>
</g>
</g>
<!-- Node12&#45;&gt;Node13 -->
<g id="edge18" class="edge">
<title>Node12&#45;&gt;Node13</title>
<path fill="none" stroke="midnightblue" d="M352.41,-168.44C372.56,-159.6 404.24,-145.69 427.25,-135.59"/>
<polygon fill="midnightblue" stroke="midnightblue" points="428.77,-138.74 436.52,-131.52 425.96,-132.33 428.77,-138.74"/>
</g>
<!-- Node13&#45;&gt;Node4 -->
<g id="edge19" class="edge">
<title>Node13&#45;&gt;Node4</title>
<path fill="none" stroke="midnightblue" d="M418.68,-112.44C376.42,-102.73 307.62,-86.92 263.32,-76.74"/>
<polygon fill="midnightblue" stroke="midnightblue" points="263.97,-73.3 253.44,-74.47 262.4,-80.12 263.97,-73.3"/>
</g>
<!-- Node13&#45;&gt;Node6 -->
<g id="edge20" class="edge">
<title>Node13&#45;&gt;Node6</title>
<path fill="none" stroke="midnightblue" d="M462.52,-112.08C468.17,-104.46 476.46,-93.26 483.37,-83.94"/>
<polygon fill="midnightblue" stroke="midnightblue" points="486.3,-85.87 489.44,-75.75 480.67,-81.7 486.3,-85.87"/>
</g>
<!-- Node13&#45;&gt;Node7 -->
<g id="edge21" class="edge">
<title>Node13&#45;&gt;Node7</title>
<path fill="none" stroke="midnightblue" d="M495.37,-112.44C538.81,-103.02 608.7,-87.87 655.69,-77.68"/>
<polygon fill="midnightblue" stroke="midnightblue" points="656.62,-81.06 665.65,-75.52 655.13,-74.22 656.62,-81.06"/>
</g>
<!-- Node14&#45;&gt;Node7 -->
<g id="edge26" class="edge">
<title>Node14&#45;&gt;Node7</title>
<path fill="none" stroke="midnightblue" d="M511.58,-224.91C591.54,-210.43 744.61,-177.32 771.92,-132 784.62,-110.92 758.68,-91.98 735.47,-80.06"/>
<polygon fill="midnightblue" stroke="midnightblue" points="737,-76.91 726.47,-75.69 733.94,-83.2 737,-76.91"/>
</g>
<!-- Node14&#45;&gt;Node13 -->
<g id="edge23" class="edge">
<title>Node14&#45;&gt;Node13</title>
<path fill="none" stroke="midnightblue" d="M478.61,-224.4C497.72,-212.72 526.14,-190.67 514.92,-168 508.32,-154.66 495.65,-144.19 483.75,-136.73"/>
<polygon fill="midnightblue" stroke="midnightblue" points="485.31,-133.59 474.9,-131.6 481.8,-139.64 485.31,-133.59"/>
</g>
<!-- Node15 -->
<g id="node15" class="node">
<title>Node15</title>
<g id="a_node15"><a xlink:href="Patterns_8h.html" target="_top" xlink:title=" ">
<polygon fill="none" stroke="black" points="268.42,-112.5 268.42,-131.5 385.42,-131.5 385.42,-112.5 268.42,-112.5"/>
<text text-anchor="middle" x="326.92" y="-119.5" font-family="Helvetica,sans-Serif" font-size="10.00">../Patterns/Patterns.h</text>
</a>
</g>
</g>
<!-- Node14&#45;&gt;Node15 -->
<g id="edge24" class="edge">
<title>Node14&#45;&gt;Node15</title>
<path fill="none" stroke="midnightblue" d="M414.06,-225.26C357.96,-215.87 272.4,-199.85 262.92,-188 247.55,-168.79 274.41,-148.95 297.9,-136.33"/>
<polygon fill="midnightblue" stroke="midnightblue" points="299.66,-139.36 306.97,-131.7 296.48,-133.13 299.66,-139.36"/>
</g>
<!-- Node16 -->
<g id="node16" class="node">
<title>Node16</title>
<g id="a_node16"><a xlink:href="DefaultModes_8h.html" target="_top" xlink:title=" ">
<polygon fill="none" stroke="black" points="411.92,-168.5 411.92,-187.5 505.92,-187.5 505.92,-168.5 411.92,-168.5"/>
<text text-anchor="middle" x="458.92" y="-175.5" font-family="Helvetica,sans-Serif" font-size="10.00">DefaultModes.h</text>
</a>
</g>
</g>
<!-- Node14&#45;&gt;Node16 -->
<g id="edge27" class="edge">
<title>Node14&#45;&gt;Node16</title>
<path fill="none" stroke="midnightblue" d="M462.26,-224.08C461.73,-217.01 460.98,-206.86 460.33,-197.99"/>
<polygon fill="midnightblue" stroke="midnightblue" points="463.8,-197.47 459.57,-187.75 456.82,-197.98 463.8,-197.47"/>
</g>
<!-- Node15&#45;&gt;Node4 -->
<g id="edge25" class="edge">
<title>Node15&#45;&gt;Node4</title>
<path fill="none" stroke="midnightblue" d="M309.89,-112.32C292.89,-103.66 266.54,-90.24 246.93,-80.25"/>
<polygon fill="midnightblue" stroke="midnightblue" points="248.41,-77.08 237.91,-75.65 245.23,-83.31 248.41,-77.08"/>
</g>
<!-- Node16&#45;&gt;Node7 -->
<g id="edge30" class="edge">
<title>Node16&#45;&gt;Node7</title>
<path fill="none" stroke="midnightblue" d="M506.12,-172.12C577.32,-164.27 705.37,-148.1 718.92,-132 730.03,-118.8 723.39,-98.85 715.94,-84.53"/>
<polygon fill="midnightblue" stroke="midnightblue" points="718.87,-82.61 710.86,-75.68 712.8,-86.09 718.87,-82.61"/>
</g>
<!-- Node16&#45;&gt;Node13 -->
<g id="edge29" class="edge">
<title>Node16&#45;&gt;Node13</title>
<path fill="none" stroke="midnightblue" d="M458.42,-168.08C458.03,-161.01 457.47,-150.86 456.97,-141.99"/>
<polygon fill="midnightblue" stroke="midnightblue" points="460.45,-141.54 456.4,-131.75 453.47,-141.93 460.45,-141.54"/>
</g>
<!-- Node16&#45;&gt;Node15 -->
<g id="edge28" class="edge">
<title>Node16&#45;&gt;Node15</title>
<path fill="none" stroke="midnightblue" d="M438,-168.44C416.18,-159.52 381.77,-145.44 357.03,-135.32"/>
<polygon fill="midnightblue" stroke="midnightblue" points="358.32,-132.06 347.74,-131.52 355.67,-138.54 358.32,-132.06"/>
</g>
<!-- Node17&#45;&gt;Node4 -->
<g id="edge32" class="edge">
<title>Node17&#45;&gt;Node4</title>
<path fill="none" stroke="midnightblue" d="M52.83,-168.36C26.04,-156.62 -13.39,-134.52 4.92,-112 26.3,-85.7 121.36,-74.26 178,-69.7"/>
<polygon fill="midnightblue" stroke="midnightblue" points="178.4,-73.18 188.1,-68.93 177.86,-66.2 178.4,-73.18"/>
</g>
<!-- Node17&#45;&gt;Node13 -->
<g id="edge37" class="edge">
<title>Node17&#45;&gt;Node13</title>
<path fill="none" stroke="midnightblue" d="M116.61,-171.23C175.79,-163.02 287.82,-147.4 393.18,-132.24"/>
<polygon fill="midnightblue" stroke="midnightblue" points="393.95,-135.67 403.35,-130.78 392.95,-128.74 393.95,-135.67"/>
</g>
<!-- Node18 -->
<g id="node18" class="node">
<title>Node18</title>
<g id="a_node18"><a xlink:href="ColorTypes_8h.html" target="_top" xlink:title=" ">
<polygon fill="none" stroke="black" points="13.92,-112.5 13.92,-131.5 135.92,-131.5 135.92,-112.5 13.92,-112.5"/>
<text text-anchor="middle" x="74.92" y="-119.5" font-family="Helvetica,sans-Serif" font-size="10.00">../Colors/ColorTypes.h</text>
</a>
</g>
</g>
<!-- Node17&#45;&gt;Node18 -->
<g id="edge33" class="edge">
<title>Node17&#45;&gt;Node18</title>
<path fill="none" stroke="midnightblue" d="M74.92,-168.08C74.92,-161.01 74.92,-150.86 74.92,-141.99"/>
<polygon fill="midnightblue" stroke="midnightblue" points="78.42,-141.75 74.92,-131.75 71.42,-141.75 78.42,-141.75"/>
</g>
<!-- Node18&#45;&gt;Node4 -->
<g id="edge34" class="edge">
<title>Node18&#45;&gt;Node4</title>
<path fill="none" stroke="midnightblue" d="M98.05,-112.44C122.4,-103.44 160.93,-89.19 188.34,-79.05"/>
<polygon fill="midnightblue" stroke="midnightblue" points="189.73,-82.27 197.89,-75.52 187.3,-75.7 189.73,-82.27"/>
</g>
<!-- Node18&#45;&gt;Node7 -->
<g id="edge35" class="edge">
<title>Node18&#45;&gt;Node7</title>
<path fill="none" stroke="midnightblue" d="M136.19,-115.75C257.57,-105.34 527.15,-82.24 646.32,-72.02"/>
<polygon fill="midnightblue" stroke="midnightblue" points="646.69,-75.5 656.35,-71.16 646.09,-68.53 646.69,-75.5"/>
</g>
<!-- Node18&#45;&gt;Node8 -->
<g id="edge36" class="edge">
<title>Node18&#45;&gt;Node8</title>
<path fill="none" stroke="midnightblue" d="M85.85,-112.35C104.19,-98.28 142.8,-70.58 179.92,-56 228.57,-36.9 286.33,-25.62 331.67,-19.13"/>
<polygon fill="midnightblue" stroke="midnightblue" points="332.31,-22.58 341.74,-17.74 331.35,-15.64 332.31,-22.58"/>
</g>
</g>
</svg>
        <g id="navigator" transform="translate(0 0)" fill="#404254">
                <rect fill="#f2f5e9" fill-opacity="0.5" stroke="#606060" stroke-width=".5" x="0" y="0" width="60" height="60"/>
                <use id="zoomplus" xlink:href="#zoomPlus" x="17" y="9" onmousedown="handleZoom(evt,'in')"/>
                <use id="zoomminus" xlink:href="#zoomMin" x="42" y="9" onmousedown="handleZoom(evt,'out')"/>
                <use id="reset" xlink:href="#resetDef" x="30" y="36" onmousedown="handleReset()"/>
                <g id="arrowUp" xlink:href="#dirArrow" transform="translate(30 24)" onmousedown="handlePan(0,-1)">
                  <use xlink:href="#rim" fill="#404040">
                        <set attributeName="fill" to="#808080" begin="arrowUp.mouseover" end="arrowUp.mouseout"/>
                  </use>
                  <path fill="none" stroke="white" stroke-width="1.5" d="M0,-3.0v7 M-2.5,-0.5L0,-3.0L2.5,-0.5"/>
                </g>
                <g id="arrowRight" xlink:href="#dirArrow" transform="rotate(90) translate(36 -43)" onmousedown="handlePan(1,0)">
                  <use xlink:href="#rim" fill="#404040">
                        <set attributeName="fill" to="#808080" begin="arrowRight.mouseover" end="arrowRight.mouseout"/>
                  </use>
                  <path fill="none" stroke="white" stroke-width="1.5" d="M0,-3.0v7 M-2.5,-0.5L0,-3.0L2.5,-0.5"/>
                </g>
                <g id="arrowDown" xlink:href="#dirArrow" transform="rotate(180) translate(-30 -48)" onmousedown="handlePan(0,1)">
                  <use xlink:href="#rim" fill="#404040">
                        <set attributeName="fill" to="#808080" begin="arrowDown.mouseover" end="arrowDown.mouseout"/>
                  </use>
                  <path fill="none" stroke="white" stroke-width="1.5" d="M0,-3.0v7 M-2.5,-0.5L0,-3.0L2.5,-0.5"/>
                </g>
                <g id="arrowLeft" xlink:href="#dirArrow" transform="rotate(270) translate(-36 17)" onmousedown="handlePan(-1,0)">
                  <use xlink:href="#rim" fill="#404040">
                        <set attributeName="fill" to="#808080" begin="arrowLeft.mouseover" end="arrowLeft.mouseout"/>
                  </use>
                  <path fill="none" stroke="white" stroke-width="1.5" d="M0,-3.0v7 M-2.5,-0.5L0,-3.0L2.5,-0.5"/>
                </g>
        </g>
        <svg viewBox="0 0 15 15" width="100%" height="30px" preserveAspectRatio="xMaxYMin meet">
         <g id="arrow_out" transform="scale(0.3 0.3)">
          <a xlink:href="VLSender_8cpp__incl_org.svg" target="_base">
           <rect id="button" ry="5" rx="5" y="6" x="6" height="38" width="38"
                fill="#f2f5e9" fill-opacity="0.5" stroke="#606060" stroke-width="1.0"/>
           <path id="arrow"
             d="M 11.500037,31.436501 C 11.940474,20.09759 22.043105,11.32322 32.158766,21.979434 L 37.068811,17.246167 C 37.068811,17.246167 37.088388,32 37.088388,32 L 22.160133,31.978069 C 22.160133,31.978069 26.997745,27.140456 26.997745,27.140456 C 18.528582,18.264221 13.291696,25.230495 11.500037,31.436501 z"
             style="fill:#404040;"/>
          </a>
         </g>
        </svg>
</svg>
