<?xml version="1.0" encoding="UTF-8" standalone="no"?>
<!DOCTYPE svg PUBLIC "-//W3C//DTD SVG 1.1//EN"
 "http://www.w3.org/Graphics/SVG/1.1/DTD/svg11.dtd">
<!-- Generated by graphviz version 2.43.0 (0)
 -->
<!-- Title: VortexEngine/src/Patterns/Single/BasicPattern.h Pages: 1 -->
<svg width="512pt" height="431pt"
 viewBox="0.00 0.00 511.92 431.00" xmlns="http://www.w3.org/2000/svg" xmlns:xlink="http://www.w3.org/1999/xlink">
<g id="graph0" class="graph" transform="scale(1 1) rotate(0) translate(4 427)">
<title>VortexEngine/src/Patterns/Single/BasicPattern.h</title>
<!-- Node1 -->
<g id="node1" class="node">
<title>Node1</title>
<g id="a_node1"><a xlink:title=" ">
<polygon fill="#bfbfbf" stroke="black" points="311,-392.5 311,-422.5 452,-422.5 452,-392.5 311,-392.5"/>
<text text-anchor="start" x="319" y="-410.5" font-family="Helvetica,sans-Serif" font-size="10.00">VortexEngine/src/Patterns</text>
<text text-anchor="middle" x="381.5" y="-399.5" font-family="Helvetica,sans-Serif" font-size="10.00">/Single/BasicPattern.h</text>
</a>
</g>
</g>
<!-- Node2 -->
<g id="node2" class="node">
<title>Node2</title>
<g id="a_node2"><a xlink:href="SingleLedPattern_8h.html" target="_top" xlink:title=" ">
<polygon fill="none" stroke="black" points="287,-336.5 287,-355.5 394,-355.5 394,-336.5 287,-336.5"/>
<text text-anchor="middle" x="340.5" y="-343.5" font-family="Helvetica,sans-Serif" font-size="10.00">SingleLedPattern.h</text>
</a>
</g>
</g>
<!-- Node1&#45;&gt;Node2 -->
<g id="edge1" class="edge">
<title>Node1&#45;&gt;Node2</title>
<path fill="none" stroke="midnightblue" d="M371.78,-392.4C365.95,-383.93 358.48,-373.1 352.31,-364.14"/>
<polygon fill="midnightblue" stroke="midnightblue" points="355.02,-361.91 346.47,-355.66 349.26,-365.88 355.02,-361.91"/>
</g>
<!-- Node15 -->
<g id="node15" class="node">
<title>Node15</title>
<g id="a_node15"><a xlink:href="Timer_8h.html" target="_top" xlink:title=" ">
<polygon fill="none" stroke="black" points="388,-280.5 388,-299.5 487,-299.5 487,-280.5 388,-280.5"/>
<text text-anchor="middle" x="437.5" y="-287.5" font-family="Helvetica,sans-Serif" font-size="10.00">../../Time/Timer.h</text>
</a>
</g>
</g>
<!-- Node1&#45;&gt;Node15 -->
<g id="edge23" class="edge">
<title>Node1&#45;&gt;Node15</title>
<path fill="none" stroke="midnightblue" d="M388.37,-392.34C398.55,-371.34 417.64,-331.96 428.79,-308.96"/>
<polygon fill="midnightblue" stroke="midnightblue" points="432.08,-310.19 433.3,-299.67 425.78,-307.14 432.08,-310.19"/>
</g>
<!-- Node3 -->
<g id="node3" class="node">
<title>Node3</title>
<g id="a_node3"><a xlink:href="Pattern_8h.html" target="_top" xlink:title=" ">
<polygon fill="none" stroke="black" points="291,-280.5 291,-299.5 360,-299.5 360,-280.5 291,-280.5"/>
<text text-anchor="middle" x="325.5" y="-287.5" font-family="Helvetica,sans-Serif" font-size="10.00">../Pattern.h</text>
</a>
</g>
</g>
<!-- Node2&#45;&gt;Node3 -->
<g id="edge2" class="edge">
<title>Node2&#45;&gt;Node3</title>
<path fill="none" stroke="midnightblue" d="M338.02,-336.08C336.01,-328.85 333.11,-318.41 330.61,-309.4"/>
<polygon fill="midnightblue" stroke="midnightblue" points="333.98,-308.45 327.93,-299.75 327.24,-310.32 333.98,-308.45"/>
</g>
<!-- Node4 -->
<g id="node4" class="node">
<title>Node4</title>
<g id="a_node4"><a xlink:href="LedTypes_8h.html" target="_top" xlink:title=" ">
<polygon fill="none" stroke="black" points="385,-224.5 385,-243.5 490,-243.5 490,-224.5 385,-224.5"/>
<text text-anchor="middle" x="437.5" y="-231.5" font-family="Helvetica,sans-Serif" font-size="10.00">../Leds/LedTypes.h</text>
</a>
</g>
</g>
<!-- Node3&#45;&gt;Node4 -->
<g id="edge3" class="edge">
<title>Node3&#45;&gt;Node4</title>
<path fill="none" stroke="midnightblue" d="M343.49,-280.32C361.54,-271.62 389.55,-258.12 410.3,-248.11"/>
<polygon fill="midnightblue" stroke="midnightblue" points="412.06,-251.15 419.55,-243.65 409.02,-244.84 412.06,-251.15"/>
</g>
<!-- Node12 -->
<g id="node12" class="node">
<title>Node12</title>
<g id="a_node12"><a xlink:href="Colorset_8h.html" target="_top" xlink:title=" ">
<polygon fill="none" stroke="black" points="83,-168.5 83,-187.5 192,-187.5 192,-168.5 83,-168.5"/>
<text text-anchor="middle" x="137.5" y="-175.5" font-family="Helvetica,sans-Serif" font-size="10.00">../Colors/Colorset.h</text>
</a>
</g>
</g>
<!-- Node3&#45;&gt;Node12 -->
<g id="edge16" class="edge">
<title>Node3&#45;&gt;Node12</title>
<path fill="none" stroke="midnightblue" d="M306.53,-280.34C288.07,-271.73 259.39,-257.83 235.5,-244 207.89,-228.02 177.47,-207.33 157.96,-193.64"/>
<polygon fill="midnightblue" stroke="midnightblue" points="159.76,-190.62 149.57,-187.7 155.72,-196.33 159.76,-190.62"/>
</g>
<!-- Node13 -->
<g id="node13" class="node">
<title>Node13</title>
<g id="a_node13"><a xlink:href="Patterns_8h.html" target="_top" xlink:title=" ">
<polygon fill="none" stroke="black" points="217,-112.5 217,-131.5 282,-131.5 282,-112.5 217,-112.5"/>
<text text-anchor="middle" x="249.5" y="-119.5" font-family="Helvetica,sans-Serif" font-size="10.00">Patterns.h</text>
</a>
</g>
</g>
<!-- Node3&#45;&gt;Node13 -->
<g id="edge19" class="edge">
<title>Node3&#45;&gt;Node13</title>
<path fill="none" stroke="midnightblue" d="M311.85,-280.36C300.35,-272.35 284.39,-259.36 275.5,-244 256.63,-211.41 251.41,-166.74 250,-141.8"/>
<polygon fill="midnightblue" stroke="midnightblue" points="253.48,-141.4 249.57,-131.56 246.49,-141.69 253.48,-141.4"/>
</g>
<!-- Node14 -->
<g id="node14" class="node">
<title>Node14</title>
<g id="a_node14"><a xlink:href="PatternArgs_8h.html" target="_top" xlink:title=" ">
<polygon fill="none" stroke="black" points="284.5,-224.5 284.5,-243.5 366.5,-243.5 366.5,-224.5 284.5,-224.5"/>
<text text-anchor="middle" x="325.5" y="-231.5" font-family="Helvetica,sans-Serif" font-size="10.00">PatternArgs.h</text>
</a>
</g>
</g>
<!-- Node3&#45;&gt;Node14 -->
<g id="edge21" class="edge">
<title>Node3&#45;&gt;Node14</title>
<path fill="none" stroke="midnightblue" d="M325.5,-280.08C325.5,-273.01 325.5,-262.86 325.5,-253.99"/>
<polygon fill="midnightblue" stroke="midnightblue" points="329,-253.75 325.5,-243.75 322,-253.75 329,-253.75"/>
</g>
<!-- Node5 -->
<g id="node5" class="node">
<title>Node5</title>
<g id="a_node5"><a xlink:title=" ">
<polygon fill="none" stroke="#bfbfbf" points="362,-56.5 362,-75.5 427,-75.5 427,-56.5 362,-56.5"/>
<text text-anchor="middle" x="394.5" y="-63.5" font-family="Helvetica,sans-Serif" font-size="10.00">inttypes.h</text>
</a>
</g>
</g>
<!-- Node4&#45;&gt;Node5 -->
<g id="edge4" class="edge">
<title>Node4&#45;&gt;Node5</title>
<path fill="none" stroke="midnightblue" d="M450.56,-224.44C461.41,-216.47 476.07,-203.52 482.5,-188 485.9,-179.79 485.62,-176.32 482.5,-168 468.89,-131.66 435.64,-99.79 414.13,-81.99"/>
<polygon fill="midnightblue" stroke="midnightblue" points="416.25,-79.21 406.26,-75.67 411.87,-84.66 416.25,-79.21"/>
</g>
<!-- Node6 -->
<g id="node6" class="node">
<title>Node6</title>
<g id="a_node6"><a xlink:title=" ">
<polygon fill="none" stroke="#bfbfbf" points="417.5,-168.5 417.5,-187.5 473.5,-187.5 473.5,-168.5 417.5,-168.5"/>
<text text-anchor="middle" x="445.5" y="-175.5" font-family="Helvetica,sans-Serif" font-size="10.00">stdarg.h</text>
</a>
</g>
</g>
<!-- Node4&#45;&gt;Node6 -->
<g id="edge5" class="edge">
<title>Node4&#45;&gt;Node6</title>
<path fill="none" stroke="midnightblue" d="M438.82,-224.08C439.88,-216.93 441.41,-206.64 442.73,-197.69"/>
<polygon fill="midnightblue" stroke="midnightblue" points="446.2,-198.16 444.2,-187.75 439.28,-197.13 446.2,-198.16"/>
</g>
<!-- Node7 -->
<g id="node7" class="node">
<title>Node7</title>
<g id="a_node7"><a xlink:href="Leds_8h.html" target="_top" xlink:title=" ">
<polygon fill="none" stroke="black" points="278,-168.5 278,-187.5 361,-187.5 361,-168.5 278,-168.5"/>
<text text-anchor="middle" x="319.5" y="-175.5" font-family="Helvetica,sans-Serif" font-size="10.00">../Leds/Leds.h</text>
</a>
</g>
</g>
<!-- Node4&#45;&gt;Node7 -->
<g id="edge6" class="edge">
<title>Node4&#45;&gt;Node7</title>
<path fill="none" stroke="midnightblue" d="M418.8,-224.44C399.56,-215.64 369.35,-201.81 347.3,-191.72"/>
<polygon fill="midnightblue" stroke="midnightblue" points="348.66,-188.5 338.11,-187.52 345.75,-194.86 348.66,-188.5"/>
</g>
<!-- Node9 -->
<g id="node9" class="node">
<title>Node9</title>
<g id="a_node9"><a xlink:href="VortexConfig_8h.html" target="_top" xlink:title=" ">
<polygon fill="none" stroke="black" points="0,-56.5 0,-75.5 97,-75.5 97,-56.5 0,-56.5"/>
<text text-anchor="middle" x="48.5" y="-63.5" font-family="Helvetica,sans-Serif" font-size="10.00">../VortexConfig.h</text>
</a>
</g>
</g>
<!-- Node4&#45;&gt;Node9 -->
<g id="edge15" class="edge">
<title>Node4&#45;&gt;Node9</title>
<path fill="none" stroke="midnightblue" d="M384.75,-225.25C381.62,-224.82 378.52,-224.4 375.5,-224 241.49,-206.29 192.41,-252.28 73.5,-188 44.92,-172.55 37.61,-162.53 26.5,-132 20.66,-115.97 28.24,-97.53 36.06,-84.39"/>
<polygon fill="midnightblue" stroke="midnightblue" points="39.08,-86.17 41.6,-75.88 33.21,-82.35 39.08,-86.17"/>
</g>
<!-- Node7&#45;&gt;Node5 -->
<g id="edge7" class="edge">
<title>Node7&#45;&gt;Node5</title>
<path fill="none" stroke="midnightblue" d="M327.04,-168.31C334.58,-159.44 346.36,-145.14 355.5,-132 366.28,-116.5 377.22,-97.96 384.76,-84.66"/>
<polygon fill="midnightblue" stroke="midnightblue" points="387.98,-86.08 389.8,-75.64 381.87,-82.66 387.98,-86.08"/>
</g>
<!-- Node8 -->
<g id="node8" class="node">
<title>Node8</title>
<g id="a_node8"><a xlink:href="ColorTypes_8h.html" target="_top" xlink:title=" ">
<polygon fill="none" stroke="black" points="76.5,-112.5 76.5,-131.5 198.5,-131.5 198.5,-112.5 76.5,-112.5"/>
<text text-anchor="middle" x="137.5" y="-119.5" font-family="Helvetica,sans-Serif" font-size="10.00">../Colors/ColorTypes.h</text>
</a>
</g>
</g>
<!-- Node7&#45;&gt;Node8 -->
<g id="edge8" class="edge">
<title>Node7&#45;&gt;Node8</title>
<path fill="none" stroke="midnightblue" d="M290.66,-168.44C259.64,-159.24 210.17,-144.56 175.88,-134.39"/>
<polygon fill="midnightblue" stroke="midnightblue" points="176.79,-131.01 166.2,-131.52 174.79,-137.72 176.79,-131.01"/>
</g>
<!-- Node7&#45;&gt;Node9 -->
<g id="edge13" class="edge">
<title>Node7&#45;&gt;Node9</title>
<path fill="none" stroke="midnightblue" d="M277.87,-174.79C214.48,-170.58 97.88,-159.28 67.5,-132 54.53,-120.36 50.21,-100.41 48.87,-85.67"/>
<polygon fill="midnightblue" stroke="midnightblue" points="52.36,-85.44 48.33,-75.65 45.37,-85.82 52.36,-85.44"/>
</g>
<!-- Node11 -->
<g id="node11" class="node">
<title>Node11</title>
<g id="a_node11"><a xlink:title=" ">
<polygon fill="none" stroke="#bfbfbf" points="300,-112.5 300,-131.5 347,-131.5 347,-112.5 300,-112.5"/>
<text text-anchor="middle" x="323.5" y="-119.5" font-family="Helvetica,sans-Serif" font-size="10.00">vector</text>
</a>
</g>
</g>
<!-- Node7&#45;&gt;Node11 -->
<g id="edge14" class="edge">
<title>Node7&#45;&gt;Node11</title>
<path fill="none" stroke="midnightblue" d="M320.16,-168.08C320.68,-161.01 321.44,-150.86 322.09,-141.99"/>
<polygon fill="midnightblue" stroke="midnightblue" points="325.6,-141.98 322.85,-131.75 318.62,-141.47 325.6,-141.98"/>
</g>
<!-- Node8&#45;&gt;Node5 -->
<g id="edge9" class="edge">
<title>Node8&#45;&gt;Node5</title>
<path fill="none" stroke="midnightblue" d="M178.22,-112.44C225.66,-102.48 303.67,-86.09 351.9,-75.95"/>
<polygon fill="midnightblue" stroke="midnightblue" points="352.65,-79.37 361.72,-73.89 351.21,-72.52 352.65,-79.37"/>
</g>
<!-- Node8&#45;&gt;Node9 -->
<g id="edge10" class="edge">
<title>Node8&#45;&gt;Node9</title>
<path fill="none" stroke="midnightblue" d="M123.2,-112.32C109.32,-103.9 88.01,-90.97 71.7,-81.07"/>
<polygon fill="midnightblue" stroke="midnightblue" points="73.13,-77.85 62.76,-75.65 69.5,-83.83 73.13,-77.85"/>
</g>
<!-- Node10 -->
<g id="node10" class="node">
<title>Node10</title>
<g id="a_node10"><a xlink:href="ColorConstants_8h.html" target="_top" xlink:title=" ">
<polygon fill="none" stroke="black" points="25.5,-0.5 25.5,-19.5 159.5,-19.5 159.5,-0.5 25.5,-0.5"/>
<text text-anchor="middle" x="92.5" y="-7.5" font-family="Helvetica,sans-Serif" font-size="10.00">Colors/ColorConstants.h</text>
</a>
</g>
</g>
<!-- Node8&#45;&gt;Node10 -->
<g id="edge12" class="edge">
<title>Node8&#45;&gt;Node10</title>
<path fill="none" stroke="midnightblue" d="M133.97,-112.37C126.64,-94.46 109.65,-52.92 99.84,-28.95"/>
<polygon fill="midnightblue" stroke="midnightblue" points="103.04,-27.52 96.01,-19.59 96.56,-30.17 103.04,-27.52"/>
</g>
<!-- Node9&#45;&gt;Node10 -->
<g id="edge11" class="edge">
<title>Node9&#45;&gt;Node10</title>
<path fill="none" stroke="midnightblue" d="M55.77,-56.08C62.04,-48.38 71.29,-37.03 78.93,-27.65"/>
<polygon fill="midnightblue" stroke="midnightblue" points="81.77,-29.71 85.37,-19.75 76.34,-25.29 81.77,-29.71"/>
</g>
<!-- Node12&#45;&gt;Node8 -->
<g id="edge17" class="edge">
<title>Node12&#45;&gt;Node8</title>
<path fill="none" stroke="midnightblue" d="M137.5,-168.08C137.5,-161.01 137.5,-150.86 137.5,-141.99"/>
<polygon fill="midnightblue" stroke="midnightblue" points="141,-141.75 137.5,-131.75 134,-141.75 141,-141.75"/>
</g>
<!-- Node12&#45;&gt;Node9 -->
<g id="edge18" class="edge">
<title>Node12&#45;&gt;Node9</title>
<path fill="none" stroke="midnightblue" d="M90.17,-168.42C69.4,-162.05 46.95,-151.02 34.5,-132 25.24,-117.85 31.16,-98.62 37.92,-84.75"/>
<polygon fill="midnightblue" stroke="midnightblue" points="41.11,-86.21 42.78,-75.75 34.95,-82.88 41.11,-86.21"/>
</g>
<!-- Node13&#45;&gt;Node5 -->
<g id="edge20" class="edge">
<title>Node13&#45;&gt;Node5</title>
<path fill="none" stroke="midnightblue" d="M272.48,-112.44C296.66,-103.44 334.92,-89.19 362.15,-79.05"/>
<polygon fill="midnightblue" stroke="midnightblue" points="363.48,-82.29 371.63,-75.52 361.04,-75.73 363.48,-82.29"/>
</g>
<!-- Node14&#45;&gt;Node5 -->
<g id="edge22" class="edge">
<title>Node14&#45;&gt;Node5</title>
<path fill="none" stroke="midnightblue" d="M337.12,-224.34C347.28,-216.12 361.6,-202.86 369.5,-188 387.07,-154.98 392.3,-110.8 393.85,-85.98"/>
<polygon fill="midnightblue" stroke="midnightblue" points="397.36,-85.93 394.35,-75.77 390.37,-85.59 397.36,-85.93"/>
</g>
<!-- Node15&#45;&gt;Node4 -->
<g id="edge25" class="edge">
<title>Node15&#45;&gt;Node4</title>
<path fill="none" stroke="midnightblue" d="M437.5,-280.08C437.5,-273.01 437.5,-262.86 437.5,-253.99"/>
<polygon fill="midnightblue" stroke="midnightblue" points="441,-253.75 437.5,-243.75 434,-253.75 441,-253.75"/>
</g>
<!-- Node15&#45;&gt;Node5 -->
<g id="edge24" class="edge">
<title>Node15&#45;&gt;Node5</title>
<path fill="none" stroke="midnightblue" d="M457.72,-280.49C472.27,-273.17 490.8,-261.06 499.5,-244 504.04,-235.1 507.23,-204.01 497.5,-168 490.14,-140.74 486.85,-132.56 467.5,-112 455.03,-98.75 437.83,-87.89 423.25,-80.17"/>
<polygon fill="midnightblue" stroke="midnightblue" points="424.63,-76.94 414.13,-75.55 421.47,-83.19 424.63,-76.94"/>
</g>
</g>
</svg>
