<?xml version="1.0" encoding="UTF-8" standalone="no"?>
<!DOCTYPE svg PUBLIC "-//W3C//DTD SVG 1.1//EN"
 "http://www.w3.org/Graphics/SVG/1.1/DTD/svg11.dtd">
<!-- Generated by graphviz version 2.43.0 (0)
 -->
<!-- Title: VortexEngine/src/Patterns/Single/BasicPattern.h Pages: 1 -->
<svg width="536pt" height="173pt"
 viewBox="0.00 0.00 536.00 173.00" xmlns="http://www.w3.org/2000/svg" xmlns:xlink="http://www.w3.org/1999/xlink">
<g id="graph0" class="graph" transform="scale(1 1) rotate(0) translate(4 169)">
<title>VortexEngine/src/Patterns/Single/BasicPattern.h</title>
<!-- Node1 -->
<g id="node1" class="node">
<title>Node1</title>
<g id="a_node1"><a xlink:title=" ">
<polygon fill="#bfbfbf" stroke="black" points="208,-134.5 208,-164.5 349,-164.5 349,-134.5 208,-134.5"/>
<text text-anchor="start" x="216" y="-152.5" font-family="Helvetica,sans-Serif" font-size="10.00">VortexEngine/src/Patterns</text>
<text text-anchor="middle" x="278.5" y="-141.5" font-family="Helvetica,sans-Serif" font-size="10.00">/Single/BasicPattern.h</text>
</a>
</g>
</g>
<!-- Node2 -->
<g id="node2" class="node">
<title>Node2</title>
<g id="a_node2"><a xlink:href="PatternBuilder_8cpp.html" target="_top" xlink:title=" ">
<polygon fill="none" stroke="black" points="228,-0.5 228,-30.5 369,-30.5 369,-0.5 228,-0.5"/>
<text text-anchor="start" x="236" y="-18.5" font-family="Helvetica,sans-Serif" font-size="10.00">VortexEngine/src/Patterns</text>
<text text-anchor="middle" x="298.5" y="-7.5" font-family="Helvetica,sans-Serif" font-size="10.00">/PatternBuilder.cpp</text>
</a>
</g>
</g>
<!-- Node1&#45;&gt;Node2 -->
<g id="edge1" class="edge">
<title>Node1&#45;&gt;Node2</title>
<path fill="none" stroke="midnightblue" d="M295.91,-126.09C301.38,-117.75 306.71,-107.89 309.5,-98 316.02,-74.92 309.25,-47.03 303.82,-30.59"/>
<polygon fill="midnightblue" stroke="midnightblue" points="292.9,-124.29 290.04,-134.49 298.64,-128.3 292.9,-124.29"/>
</g>
<!-- Node3 -->
<g id="node3" class="node">
<title>Node3</title>
<g id="a_node3"><a xlink:href="BasicPattern_8cpp.html" target="_top" xlink:title=" ">
<polygon fill="none" stroke="black" points="159,-67.5 159,-97.5 300,-97.5 300,-67.5 159,-67.5"/>
<text text-anchor="start" x="167" y="-85.5" font-family="Helvetica,sans-Serif" font-size="10.00">VortexEngine/src/Patterns</text>
<text text-anchor="middle" x="229.5" y="-74.5" font-family="Helvetica,sans-Serif" font-size="10.00">/Single/BasicPattern.cpp</text>
</a>
</g>
</g>
<!-- Node1&#45;&gt;Node3 -->
<g id="edge2" class="edge">
<title>Node1&#45;&gt;Node3</title>
<path fill="none" stroke="midnightblue" d="M261.66,-126.16C254.51,-116.68 246.4,-105.92 240.11,-97.58"/>
<polygon fill="midnightblue" stroke="midnightblue" points="259.05,-128.52 267.87,-134.4 264.64,-124.3 259.05,-128.52"/>
</g>
<!-- Node4 -->
<g id="node4" class="node">
<title>Node4</title>
<g id="a_node4"><a xlink:href="BlendPattern_8h.html" target="_top" xlink:title=" ">
<polygon fill="none" stroke="black" points="0,-67.5 0,-97.5 141,-97.5 141,-67.5 0,-67.5"/>
<text text-anchor="start" x="8" y="-85.5" font-family="Helvetica,sans-Serif" font-size="10.00">VortexEngine/src/Patterns</text>
<text text-anchor="middle" x="70.5" y="-74.5" font-family="Helvetica,sans-Serif" font-size="10.00">/Single/BlendPattern.h</text>
</a>
</g>
</g>
<!-- Node1&#45;&gt;Node4 -->
<g id="edge3" class="edge">
<title>Node1&#45;&gt;Node4</title>
<path fill="none" stroke="midnightblue" d="M223.92,-131.44C190.2,-120.91 147.46,-107.55 115.65,-97.61"/>
<polygon fill="midnightblue" stroke="midnightblue" points="223.03,-134.83 233.62,-134.48 225.12,-128.15 223.03,-134.83"/>
</g>
<!-- Node6 -->
<g id="node6" class="node">
<title>Node6</title>
<g id="a_node6"><a xlink:href="SolidPattern_8h.html" target="_top" xlink:title=" ">
<polygon fill="none" stroke="black" points="357,-67.5 357,-97.5 498,-97.5 498,-67.5 357,-67.5"/>
<text text-anchor="start" x="365" y="-85.5" font-family="Helvetica,sans-Serif" font-size="10.00">VortexEngine/src/Patterns</text>
<text text-anchor="middle" x="427.5" y="-74.5" font-family="Helvetica,sans-Serif" font-size="10.00">/Single/SolidPattern.h</text>
</a>
</g>
</g>
<!-- Node1&#45;&gt;Node6 -->
<g id="edge6" class="edge">
<title>Node1&#45;&gt;Node6</title>
<path fill="none" stroke="midnightblue" d="M320.29,-130.27C344.02,-119.92 373.28,-107.15 395.23,-97.58"/>
<polygon fill="midnightblue" stroke="midnightblue" points="318.6,-127.19 310.83,-134.4 321.4,-133.61 318.6,-127.19"/>
</g>
<!-- Node4&#45;&gt;Node2 -->
<g id="edge4" class="edge">
<title>Node4&#45;&gt;Node2</title>
<path fill="none" stroke="midnightblue" d="M129.38,-64.71C166.48,-54.14 213.84,-40.63 249,-30.61"/>
<polygon fill="midnightblue" stroke="midnightblue" points="128.35,-61.37 119.69,-67.48 130.27,-68.1 128.35,-61.37"/>
</g>
<!-- Node5 -->
<g id="node5" class="node">
<title>Node5</title>
<g id="a_node5"><a xlink:href="BlendPattern_8cpp.html" target="_top" xlink:title=" ">
<polygon fill="none" stroke="black" points="0,-0.5 0,-30.5 141,-30.5 141,-0.5 0,-0.5"/>
<text text-anchor="start" x="8" y="-18.5" font-family="Helvetica,sans-Serif" font-size="10.00">VortexEngine/src/Patterns</text>
<text text-anchor="middle" x="70.5" y="-7.5" font-family="Helvetica,sans-Serif" font-size="10.00">/Single/BlendPattern.cpp</text>
</a>
</g>
</g>
<!-- Node4&#45;&gt;Node5 -->
<g id="edge5" class="edge">
<title>Node4&#45;&gt;Node5</title>
<path fill="none" stroke="midnightblue" d="M70.5,-57.11C70.5,-48.15 70.5,-38.32 70.5,-30.58"/>
<polygon fill="midnightblue" stroke="midnightblue" points="67,-57.4 70.5,-67.4 74,-57.4 67,-57.4"/>
</g>
<!-- Node6&#45;&gt;Node2 -->
<g id="edge7" class="edge">
<title>Node6&#45;&gt;Node2</title>
<path fill="none" stroke="midnightblue" d="M390.49,-62.85C370.1,-52.58 345.19,-40.03 326.44,-30.58"/>
<polygon fill="midnightblue" stroke="midnightblue" points="389,-66.02 399.51,-67.4 392.15,-59.77 389,-66.02"/>
</g>
<!-- Node7 -->
<g id="node7" class="node">
<title>Node7</title>
<g id="a_node7"><a xlink:href="SolidPattern_8cpp.html" target="_top" xlink:title=" ">
<polygon fill="none" stroke="black" points="387,-0.5 387,-30.5 528,-30.5 528,-0.5 387,-0.5"/>
<text text-anchor="start" x="395" y="-18.5" font-family="Helvetica,sans-Serif" font-size="10.00">VortexEngine/src/Patterns</text>
<text text-anchor="middle" x="457.5" y="-7.5" font-family="Helvetica,sans-Serif" font-size="10.00">/Single/SolidPattern.cpp</text>
</a>
</g>
</g>
<!-- Node6&#45;&gt;Node7 -->
<g id="edge8" class="edge">
<title>Node6&#45;&gt;Node7</title>
<path fill="none" stroke="midnightblue" d="M438.22,-58.28C442.49,-49.02 447.27,-38.66 451,-30.58"/>
<polygon fill="midnightblue" stroke="midnightblue" points="435.02,-56.85 434.01,-67.4 441.38,-59.78 435.02,-56.85"/>
</g>
</g>
</svg>
