<?xml version="1.0" encoding="UTF-8" standalone="no"?>
<!DOCTYPE svg PUBLIC "-//W3C//DTD SVG 1.1//EN"
 "http://www.w3.org/Graphics/SVG/1.1/DTD/svg11.dtd">
<!-- Generated by graphviz version 2.43.0 (0)
 -->
<!-- Title: VortexEngine/src/Serial/BitStream.h Pages: 1 -->
<svg width="1361pt" height="173pt"
 viewBox="0.00 0.00 1360.50 173.00" xmlns="http://www.w3.org/2000/svg" xmlns:xlink="http://www.w3.org/1999/xlink">
<g id="graph0" class="graph" transform="scale(1 1) rotate(0) translate(4 169)">
<title>VortexEngine/src/Serial/BitStream.h</title>
<!-- Node1 -->
<g id="node1" class="node">
<title>Node1</title>
<g id="a_node1"><a xlink:title=" ">
<polygon fill="#bfbfbf" stroke="black" points="340,-134.5 340,-164.5 469,-164.5 469,-134.5 340,-134.5"/>
<text text-anchor="start" x="348" y="-152.5" font-family="Helvetica,sans-Serif" font-size="10.00">VortexEngine/src/Serial</text>
<text text-anchor="middle" x="404.5" y="-141.5" font-family="Helvetica,sans-Serif" font-size="10.00">/BitStream.h</text>
</a>
</g>
</g>
<!-- Node2 -->
<g id="node2" class="node">
<title>Node2</title>
<g id="a_node2"><a xlink:href="BitStream_8cpp.html" target="_top" xlink:title=" ">
<polygon fill="none" stroke="black" points="0,-67.5 0,-97.5 129,-97.5 129,-67.5 0,-67.5"/>
<text text-anchor="start" x="8" y="-85.5" font-family="Helvetica,sans-Serif" font-size="10.00">VortexEngine/src/Serial</text>
<text text-anchor="middle" x="64.5" y="-74.5" font-family="Helvetica,sans-Serif" font-size="10.00">/BitStream.cpp</text>
</a>
</g>
</g>
<!-- Node1&#45;&gt;Node2 -->
<g id="edge1" class="edge">
<title>Node1&#45;&gt;Node2</title>
<path fill="none" stroke="midnightblue" d="M329.9,-134.58C276.34,-124.54 202.44,-110.59 137.5,-98 134.84,-97.48 132.12,-96.95 129.37,-96.42"/>
<polygon fill="midnightblue" stroke="midnightblue" points="329.52,-138.07 340,-136.47 330.81,-131.19 329.52,-138.07"/>
</g>
<!-- Node3 -->
<g id="node3" class="node">
<title>Node3</title>
<g id="a_node3"><a xlink:href="ByteStream_8cpp.html" target="_top" xlink:title=" ">
<polygon fill="none" stroke="black" points="147,-67.5 147,-97.5 276,-97.5 276,-67.5 147,-67.5"/>
<text text-anchor="start" x="155" y="-85.5" font-family="Helvetica,sans-Serif" font-size="10.00">VortexEngine/src/Serial</text>
<text text-anchor="middle" x="211.5" y="-74.5" font-family="Helvetica,sans-Serif" font-size="10.00">/ByteStream.cpp</text>
</a>
</g>
</g>
<!-- Node1&#45;&gt;Node3 -->
<g id="edge2" class="edge">
<title>Node1&#45;&gt;Node3</title>
<path fill="none" stroke="midnightblue" d="M352.81,-131.09C321.66,-120.6 282.49,-107.41 253.3,-97.58"/>
<polygon fill="midnightblue" stroke="midnightblue" points="352.03,-134.52 362.62,-134.4 354.26,-127.89 352.03,-134.52"/>
</g>
<!-- Node4 -->
<g id="node4" class="node">
<title>Node4</title>
<g id="a_node4"><a xlink:href="IRReceiver_8cpp.html" target="_top" xlink:title=" ">
<polygon fill="none" stroke="black" points="164,-0.5 164,-30.5 307,-30.5 307,-0.5 164,-0.5"/>
<text text-anchor="start" x="172" y="-18.5" font-family="Helvetica,sans-Serif" font-size="10.00">VortexEngine/src/Wireless</text>
<text text-anchor="middle" x="235.5" y="-7.5" font-family="Helvetica,sans-Serif" font-size="10.00">/IRReceiver.cpp</text>
</a>
</g>
</g>
<!-- Node1&#45;&gt;Node4 -->
<g id="edge3" class="edge">
<title>Node1&#45;&gt;Node4</title>
<path fill="none" stroke="midnightblue" d="M370.37,-129.19C355.53,-120.3 338.22,-109.25 323.5,-98 295.37,-76.51 265.79,-47.62 249.1,-30.64"/>
<polygon fill="midnightblue" stroke="midnightblue" points="368.84,-132.35 379.23,-134.42 372.4,-126.32 368.84,-132.35"/>
</g>
<!-- Node5 -->
<g id="node5" class="node">
<title>Node5</title>
<g id="a_node5"><a xlink:href="IRReceiver_8h.html" target="_top" xlink:title=" ">
<polygon fill="none" stroke="black" points="333,-67.5 333,-97.5 476,-97.5 476,-67.5 333,-67.5"/>
<text text-anchor="start" x="341" y="-85.5" font-family="Helvetica,sans-Serif" font-size="10.00">VortexEngine/src/Wireless</text>
<text text-anchor="middle" x="404.5" y="-74.5" font-family="Helvetica,sans-Serif" font-size="10.00">/IRReceiver.h</text>
</a>
</g>
</g>
<!-- Node1&#45;&gt;Node5 -->
<g id="edge4" class="edge">
<title>Node1&#45;&gt;Node5</title>
<path fill="none" stroke="midnightblue" d="M404.5,-124.11C404.5,-115.15 404.5,-105.32 404.5,-97.58"/>
<polygon fill="midnightblue" stroke="midnightblue" points="401,-124.4 404.5,-134.4 408,-124.4 401,-124.4"/>
</g>
<!-- Node8 -->
<g id="node8" class="node">
<title>Node8</title>
<g id="a_node8"><a xlink:href="IRSender_8h.html" target="_top" xlink:title=" ">
<polygon fill="none" stroke="black" points="494,-67.5 494,-97.5 637,-97.5 637,-67.5 494,-67.5"/>
<text text-anchor="start" x="502" y="-85.5" font-family="Helvetica,sans-Serif" font-size="10.00">VortexEngine/src/Wireless</text>
<text text-anchor="middle" x="565.5" y="-74.5" font-family="Helvetica,sans-Serif" font-size="10.00">/IRSender.h</text>
</a>
</g>
</g>
<!-- Node1&#45;&gt;Node8 -->
<g id="edge8" class="edge">
<title>Node1&#45;&gt;Node8</title>
<path fill="none" stroke="midnightblue" d="M448.98,-130.54C474.74,-120.14 506.7,-107.24 530.63,-97.58"/>
<polygon fill="midnightblue" stroke="midnightblue" points="447.4,-127.41 439.43,-134.4 450.02,-133.9 447.4,-127.41"/>
</g>
<!-- Node10 -->
<g id="node10" class="node">
<title>Node10</title>
<g id="a_node10"><a xlink:href="VLReceiver_8h.html" target="_top" xlink:title=" ">
<polygon fill="none" stroke="black" points="677,-67.5 677,-97.5 820,-97.5 820,-67.5 677,-67.5"/>
<text text-anchor="start" x="685" y="-85.5" font-family="Helvetica,sans-Serif" font-size="10.00">VortexEngine/src/Wireless</text>
<text text-anchor="middle" x="748.5" y="-74.5" font-family="Helvetica,sans-Serif" font-size="10.00">/VLReceiver.h</text>
</a>
</g>
</g>
<!-- Node1&#45;&gt;Node10 -->
<g id="edge12" class="edge">
<title>Node1&#45;&gt;Node10</title>
<path fill="none" stroke="midnightblue" d="M479.15,-134.39C537.85,-123.3 619.09,-107.95 676.96,-97.02"/>
<polygon fill="midnightblue" stroke="midnightblue" points="478.38,-130.98 469.2,-136.27 479.68,-137.86 478.38,-130.98"/>
</g>
<!-- Node12 -->
<g id="node12" class="node">
<title>Node12</title>
<g id="a_node12"><a xlink:href="VLSender_8h.html" target="_top" xlink:title=" ">
<polygon fill="none" stroke="black" points="930,-67.5 930,-97.5 1073,-97.5 1073,-67.5 930,-67.5"/>
<text text-anchor="start" x="938" y="-85.5" font-family="Helvetica,sans-Serif" font-size="10.00">VortexEngine/src/Wireless</text>
<text text-anchor="middle" x="1001.5" y="-74.5" font-family="Helvetica,sans-Serif" font-size="10.00">/VLSender.h</text>
</a>
</g>
</g>
<!-- Node1&#45;&gt;Node12 -->
<g id="edge15" class="edge">
<title>Node1&#45;&gt;Node12</title>
<path fill="none" stroke="midnightblue" d="M479.42,-140.34C595.09,-127.75 815.68,-103.73 929.54,-91.34"/>
<polygon fill="midnightblue" stroke="midnightblue" points="478.8,-136.89 469.24,-141.45 479.56,-143.85 478.8,-136.89"/>
</g>
<!-- Node5&#45;&gt;Node4 -->
<g id="edge7" class="edge">
<title>Node5&#45;&gt;Node4</title>
<path fill="none" stroke="midnightblue" d="M358.17,-63.68C331.07,-53.26 297.33,-40.28 272.1,-30.58"/>
<polygon fill="midnightblue" stroke="midnightblue" points="357.24,-67.07 367.83,-67.4 359.75,-60.54 357.24,-67.07"/>
</g>
<!-- Node6 -->
<g id="node6" class="node">
<title>Node6</title>
<g id="a_node6"><a xlink:href="ModeSharing_8cpp.html" target="_top" xlink:title=" ">
<polygon fill="none" stroke="black" points="325,-0.5 325,-30.5 476,-30.5 476,-0.5 325,-0.5"/>
<text text-anchor="start" x="333" y="-18.5" font-family="Helvetica,sans-Serif" font-size="10.00">VortexEngine/src/Menus</text>
<text text-anchor="middle" x="400.5" y="-7.5" font-family="Helvetica,sans-Serif" font-size="10.00">/MenuList/ModeSharing.cpp</text>
</a>
</g>
</g>
<!-- Node5&#45;&gt;Node6 -->
<g id="edge5" class="edge">
<title>Node5&#45;&gt;Node6</title>
<path fill="none" stroke="midnightblue" d="M403.02,-57.4C402.46,-48.37 401.85,-38.41 401.37,-30.58"/>
<polygon fill="midnightblue" stroke="midnightblue" points="399.52,-57.63 403.63,-67.4 406.51,-57.2 399.52,-57.63"/>
</g>
<!-- Node7 -->
<g id="node7" class="node">
<title>Node7</title>
<g id="a_node7"><a xlink:href="VortexEngine_8cpp.html" target="_top" xlink:title=" ">
<polygon fill="none" stroke="black" points="655.5,-6 655.5,-25 841.5,-25 841.5,-6 655.5,-6"/>
<text text-anchor="middle" x="748.5" y="-13" font-family="Helvetica,sans-Serif" font-size="10.00">VortexEngine/src/VortexEngine.cpp</text>
</a>
</g>
</g>
<!-- Node5&#45;&gt;Node7 -->
<g id="edge6" class="edge">
<title>Node5&#45;&gt;Node7</title>
<path fill="none" stroke="midnightblue" d="M486.02,-66.1C553.99,-53.25 648.31,-35.43 703.42,-25.02"/>
<polygon fill="midnightblue" stroke="midnightblue" points="485.37,-62.66 476.19,-67.95 486.67,-69.54 485.37,-62.66"/>
</g>
<!-- Node8&#45;&gt;Node6 -->
<g id="edge9" class="edge">
<title>Node8&#45;&gt;Node6</title>
<path fill="none" stroke="midnightblue" d="M520.27,-63.68C493.81,-53.26 460.87,-40.28 436.23,-30.58"/>
<polygon fill="midnightblue" stroke="midnightblue" points="519.11,-66.99 529.7,-67.4 521.68,-60.47 519.11,-66.99"/>
</g>
<!-- Node8&#45;&gt;Node7 -->
<g id="edge10" class="edge">
<title>Node8&#45;&gt;Node7</title>
<path fill="none" stroke="midnightblue" d="M614.92,-63.95C650.46,-51.32 696.84,-34.85 724.55,-25.01"/>
<polygon fill="midnightblue" stroke="midnightblue" points="613.46,-60.75 605.21,-67.4 615.8,-67.35 613.46,-60.75"/>
</g>
<!-- Node9 -->
<g id="node9" class="node">
<title>Node9</title>
<g id="a_node9"><a xlink:href="IRSender_8cpp.html" target="_top" xlink:title=" ">
<polygon fill="none" stroke="black" points="494,-0.5 494,-30.5 637,-30.5 637,-0.5 494,-0.5"/>
<text text-anchor="start" x="502" y="-18.5" font-family="Helvetica,sans-Serif" font-size="10.00">VortexEngine/src/Wireless</text>
<text text-anchor="middle" x="565.5" y="-7.5" font-family="Helvetica,sans-Serif" font-size="10.00">/IRSender.cpp</text>
</a>
</g>
</g>
<!-- Node8&#45;&gt;Node9 -->
<g id="edge11" class="edge">
<title>Node8&#45;&gt;Node9</title>
<path fill="none" stroke="midnightblue" d="M565.5,-57.11C565.5,-48.15 565.5,-38.32 565.5,-30.58"/>
<polygon fill="midnightblue" stroke="midnightblue" points="562,-57.4 565.5,-67.4 569,-57.4 562,-57.4"/>
</g>
<!-- Node10&#45;&gt;Node7 -->
<g id="edge13" class="edge">
<title>Node10&#45;&gt;Node7</title>
<path fill="none" stroke="midnightblue" d="M748.5,-57.25C748.5,-46.02 748.5,-33.38 748.5,-25.19"/>
<polygon fill="midnightblue" stroke="midnightblue" points="745,-57.4 748.5,-67.4 752,-57.4 745,-57.4"/>
</g>
<!-- Node11 -->
<g id="node11" class="node">
<title>Node11</title>
<g id="a_node11"><a xlink:href="VLReceiver_8cpp.html" target="_top" xlink:title=" ">
<polygon fill="none" stroke="black" points="860,-0.5 860,-30.5 1003,-30.5 1003,-0.5 860,-0.5"/>
<text text-anchor="start" x="868" y="-18.5" font-family="Helvetica,sans-Serif" font-size="10.00">VortexEngine/src/Wireless</text>
<text text-anchor="middle" x="931.5" y="-7.5" font-family="Helvetica,sans-Serif" font-size="10.00">/VLReceiver.cpp</text>
</a>
</g>
</g>
<!-- Node10&#45;&gt;Node11 -->
<g id="edge14" class="edge">
<title>Node10&#45;&gt;Node11</title>
<path fill="none" stroke="midnightblue" d="M797.9,-63.96C827.37,-53.48 864.31,-40.37 891.87,-30.58"/>
<polygon fill="midnightblue" stroke="midnightblue" points="796.46,-60.75 788.21,-67.4 798.8,-67.35 796.46,-60.75"/>
</g>
<!-- Node12&#45;&gt;Node7 -->
<g id="edge17" class="edge">
<title>Node12&#45;&gt;Node7</title>
<path fill="none" stroke="midnightblue" d="M936.93,-64.91C887.38,-52.18 821,-35.13 781.7,-25.03"/>
<polygon fill="midnightblue" stroke="midnightblue" points="936.36,-68.38 946.91,-67.48 938.1,-61.6 936.36,-68.38"/>
</g>
<!-- Node13 -->
<g id="node13" class="node">
<title>Node13</title>
<g id="a_node13"><a xlink:href="EditorConnection_8cpp.html" target="_top" xlink:title=" ">
<polygon fill="none" stroke="black" points="1182.5,-0.5 1182.5,-30.5 1352.5,-30.5 1352.5,-0.5 1182.5,-0.5"/>
<text text-anchor="start" x="1190.5" y="-18.5" font-family="Helvetica,sans-Serif" font-size="10.00">VortexEngine/src/Menus</text>
<text text-anchor="middle" x="1267.5" y="-7.5" font-family="Helvetica,sans-Serif" font-size="10.00">/MenuList/EditorConnection.cpp</text>
</a>
</g>
</g>
<!-- Node12&#45;&gt;Node13 -->
<g id="edge16" class="edge">
<title>Node12&#45;&gt;Node13</title>
<path fill="none" stroke="midnightblue" d="M1068.81,-65.05C1112.3,-54.43 1168.3,-40.74 1209.75,-30.61"/>
<polygon fill="midnightblue" stroke="midnightblue" points="1067.77,-61.7 1058.89,-67.48 1069.44,-68.5 1067.77,-61.7"/>
</g>
<!-- Node14 -->
<g id="node14" class="node">
<title>Node14</title>
<g id="a_node14"><a xlink:href="VLSender_8cpp.html" target="_top" xlink:title=" ">
<polygon fill="none" stroke="black" points="1021,-0.5 1021,-30.5 1164,-30.5 1164,-0.5 1021,-0.5"/>
<text text-anchor="start" x="1029" y="-18.5" font-family="Helvetica,sans-Serif" font-size="10.00">VortexEngine/src/Wireless</text>
<text text-anchor="middle" x="1092.5" y="-7.5" font-family="Helvetica,sans-Serif" font-size="10.00">/VLSender.cpp</text>
</a>
</g>
</g>
<!-- Node12&#45;&gt;Node14 -->
<g id="edge18" class="edge">
<title>Node12&#45;&gt;Node14</title>
<path fill="none" stroke="midnightblue" d="M1029.57,-61.45C1043.57,-51.45 1060.16,-39.6 1072.79,-30.58"/>
<polygon fill="midnightblue" stroke="midnightblue" points="1027.35,-58.74 1021.25,-67.4 1031.42,-64.43 1027.35,-58.74"/>
</g>
</g>
</svg>
