<?xml version="1.0" encoding="UTF-8" standalone="no"?>
<!DOCTYPE svg PUBLIC "-//W3C//DTD SVG 1.1//EN"
 "http://www.w3.org/Graphics/SVG/1.1/DTD/svg11.dtd">
<!-- Generated by graphviz version 2.43.0 (0)
 -->
<!-- Title: VortexEngine/src/Patterns/Single/BlendPattern.cpp Pages: 1 -->
<svg width="1877pt" height="543pt"
 viewBox="0.00 0.00 1877.00 543.00" xmlns="http://www.w3.org/2000/svg" xmlns:xlink="http://www.w3.org/1999/xlink">
<g id="graph0" class="graph" transform="scale(1 1) rotate(0) translate(4 539)">
<title>VortexEngine/src/Patterns/Single/BlendPattern.cpp</title>
<!-- Node1 -->
<g id="node1" class="node">
<title>Node1</title>
<g id="a_node1"><a xlink:title=" ">
<polygon fill="#bfbfbf" stroke="black" points="1646.5,-504.5 1646.5,-534.5 1787.5,-534.5 1787.5,-504.5 1646.5,-504.5"/>
<text text-anchor="start" x="1654.5" y="-522.5" font-family="Helvetica,sans-Serif" font-size="10.00">VortexEngine/src/Patterns</text>
<text text-anchor="middle" x="1717" y="-511.5" font-family="Helvetica,sans-Serif" font-size="10.00">/Single/BlendPattern.cpp</text>
</a>
</g>
</g>
<!-- Node2 -->
<g id="node2" class="node">
<title>Node2</title>
<g id="a_node2"><a xlink:href="BlendPattern_8h.html" target="_top" xlink:title=" ">
<polygon fill="none" stroke="black" points="1552,-448.5 1552,-467.5 1640,-467.5 1640,-448.5 1552,-448.5"/>
<text text-anchor="middle" x="1596" y="-455.5" font-family="Helvetica,sans-Serif" font-size="10.00">BlendPattern.h</text>
</a>
</g>
</g>
<!-- Node1&#45;&gt;Node2 -->
<g id="edge1" class="edge">
<title>Node1&#45;&gt;Node2</title>
<path fill="none" stroke="midnightblue" d="M1688.32,-504.4C1668.48,-494.64 1642.24,-481.74 1622.81,-472.18"/>
<polygon fill="midnightblue" stroke="midnightblue" points="1624.12,-468.93 1613.61,-467.66 1621.04,-475.21 1624.12,-468.93"/>
</g>
<!-- Node9 -->
<g id="node9" class="node">
<title>Node9</title>
<g id="a_node9"><a xlink:href="Leds_8h.html" target="_top" xlink:title=" ">
<polygon fill="none" stroke="black" points="1401.5,-168.5 1401.5,-187.5 1484.5,-187.5 1484.5,-168.5 1401.5,-168.5"/>
<text text-anchor="middle" x="1443" y="-175.5" font-family="Helvetica,sans-Serif" font-size="10.00">../Leds/Leds.h</text>
</a>
</g>
</g>
<!-- Node1&#45;&gt;Node9 -->
<g id="edge93" class="edge">
<title>Node1&#45;&gt;Node9</title>
<path fill="none" stroke="midnightblue" d="M1724.87,-504.41C1736,-483.13 1755,-441.21 1755,-403 1755,-403 1755,-403 1755,-289 1755,-234.51 1583.61,-200.37 1494.89,-186.34"/>
<polygon fill="midnightblue" stroke="midnightblue" points="1495.17,-182.84 1484.75,-184.77 1494.1,-189.76 1495.17,-182.84"/>
</g>
<!-- Node14 -->
<g id="node14" class="node">
<title>Node14</title>
<g id="a_node14"><a xlink:href="Colorset_8h.html" target="_top" xlink:title=" ">
<polygon fill="none" stroke="black" points="1579.5,-168.5 1579.5,-187.5 1688.5,-187.5 1688.5,-168.5 1579.5,-168.5"/>
<text text-anchor="middle" x="1634" y="-175.5" font-family="Helvetica,sans-Serif" font-size="10.00">../Colors/Colorset.h</text>
</a>
</g>
</g>
<!-- Node1&#45;&gt;Node14 -->
<g id="edge92" class="edge">
<title>Node1&#45;&gt;Node14</title>
<path fill="none" stroke="midnightblue" d="M1764.68,-504.48C1809.25,-488.09 1869,-456.19 1869,-403 1869,-403 1869,-403 1869,-345 1869,-254.66 1751.71,-209.12 1682.86,-190.16"/>
<polygon fill="midnightblue" stroke="midnightblue" points="1683.63,-186.75 1673.07,-187.55 1681.83,-193.51 1683.63,-186.75"/>
</g>
<!-- Node19 -->
<g id="node19" class="node">
<title>Node19</title>
<g id="a_node19"><a xlink:href="TimeControl_8h.html" target="_top" xlink:title=" ">
<polygon fill="none" stroke="black" points="1534,-280.5 1534,-299.5 1620,-299.5 1620,-280.5 1534,-280.5"/>
<text text-anchor="middle" x="1577" y="-287.5" font-family="Helvetica,sans-Serif" font-size="10.00">TimeControl.h</text>
</a>
</g>
</g>
<!-- Node1&#45;&gt;Node19 -->
<g id="edge91" class="edge">
<title>Node1&#45;&gt;Node19</title>
<path fill="none" stroke="midnightblue" d="M1716.15,-504.48C1713.46,-471.47 1702.6,-387.78 1660,-336 1647.9,-321.29 1629.69,-310.66 1613.4,-303.44"/>
<polygon fill="midnightblue" stroke="midnightblue" points="1614.67,-300.18 1604.09,-299.58 1611.99,-306.65 1614.67,-300.18"/>
</g>
<!-- Node20 -->
<g id="node20" class="node">
<title>Node20</title>
<g id="a_node20"><a xlink:href="VortexEngine_8h.html" target="_top" xlink:title=" ">
<polygon fill="none" stroke="black" points="827,-392.5 827,-411.5 935,-411.5 935,-392.5 827,-392.5"/>
<text text-anchor="middle" x="881" y="-399.5" font-family="Helvetica,sans-Serif" font-size="10.00">../../VortexEngine.h</text>
</a>
</g>
</g>
<!-- Node1&#45;&gt;Node20 -->
<g id="edge34" class="edge">
<title>Node1&#45;&gt;Node20</title>
<path fill="none" stroke="midnightblue" d="M1646.44,-508.75C1486.65,-486.68 1099.1,-433.13 945.38,-411.89"/>
<polygon fill="midnightblue" stroke="midnightblue" points="945.54,-408.38 935.16,-410.48 944.58,-415.32 945.54,-408.38"/>
</g>
<!-- Node3 -->
<g id="node3" class="node">
<title>Node3</title>
<g id="a_node3"><a xlink:href="BasicPattern_8h.html" target="_top" xlink:title=" ">
<polygon fill="none" stroke="black" points="1158,-392.5 1158,-411.5 1244,-411.5 1244,-392.5 1158,-392.5"/>
<text text-anchor="middle" x="1201" y="-399.5" font-family="Helvetica,sans-Serif" font-size="10.00">BasicPattern.h</text>
</a>
</g>
</g>
<!-- Node2&#45;&gt;Node3 -->
<g id="edge2" class="edge">
<title>Node2&#45;&gt;Node3</title>
<path fill="none" stroke="midnightblue" d="M1551.84,-450.96C1478.82,-440.98 1333.18,-421.07 1254.46,-410.31"/>
<polygon fill="midnightblue" stroke="midnightblue" points="1254.66,-406.8 1244.28,-408.92 1253.71,-413.74 1254.66,-406.8"/>
</g>
<!-- Node18 -->
<g id="node18" class="node">
<title>Node18</title>
<g id="a_node18"><a xlink:href="Timings_8h.html" target="_top" xlink:title=" ">
<polygon fill="none" stroke="black" points="1541,-336.5 1541,-355.5 1651,-355.5 1651,-336.5 1541,-336.5"/>
<text text-anchor="middle" x="1596" y="-343.5" font-family="Helvetica,sans-Serif" font-size="10.00">../../Time/Timings.h</text>
</a>
</g>
</g>
<!-- Node2&#45;&gt;Node18 -->
<g id="edge28" class="edge">
<title>Node2&#45;&gt;Node18</title>
<path fill="none" stroke="midnightblue" d="M1596,-448.37C1596,-430.62 1596,-389.67 1596,-365.6"/>
<polygon fill="midnightblue" stroke="midnightblue" points="1599.5,-365.59 1596,-355.59 1592.5,-365.59 1599.5,-365.59"/>
</g>
<!-- Node4 -->
<g id="node4" class="node">
<title>Node4</title>
<g id="a_node4"><a xlink:href="SingleLedPattern_8h.html" target="_top" xlink:title=" ">
<polygon fill="none" stroke="black" points="1147.5,-336.5 1147.5,-355.5 1254.5,-355.5 1254.5,-336.5 1147.5,-336.5"/>
<text text-anchor="middle" x="1201" y="-343.5" font-family="Helvetica,sans-Serif" font-size="10.00">SingleLedPattern.h</text>
</a>
</g>
</g>
<!-- Node3&#45;&gt;Node4 -->
<g id="edge3" class="edge">
<title>Node3&#45;&gt;Node4</title>
<path fill="none" stroke="midnightblue" d="M1201,-392.08C1201,-385.01 1201,-374.86 1201,-365.99"/>
<polygon fill="midnightblue" stroke="midnightblue" points="1204.5,-365.75 1201,-355.75 1197.5,-365.75 1204.5,-365.75"/>
</g>
<!-- Node17 -->
<g id="node17" class="node">
<title>Node17</title>
<g id="a_node17"><a xlink:href="Timer_8h.html" target="_top" xlink:title=" ">
<polygon fill="none" stroke="black" points="1054.5,-280.5 1054.5,-299.5 1153.5,-299.5 1153.5,-280.5 1054.5,-280.5"/>
<text text-anchor="middle" x="1104" y="-287.5" font-family="Helvetica,sans-Serif" font-size="10.00">../../Time/Timer.h</text>
</a>
</g>
</g>
<!-- Node3&#45;&gt;Node17 -->
<g id="edge25" class="edge">
<title>Node3&#45;&gt;Node17</title>
<path fill="none" stroke="midnightblue" d="M1184.9,-392.38C1171.11,-384.39 1151.41,-371.41 1138,-356 1125.87,-342.07 1116.57,-323.06 1110.79,-309.2"/>
<polygon fill="midnightblue" stroke="midnightblue" points="1114,-307.78 1107.07,-299.77 1107.49,-310.36 1114,-307.78"/>
</g>
<!-- Node5 -->
<g id="node5" class="node">
<title>Node5</title>
<g id="a_node5"><a xlink:href="Pattern_8h.html" target="_top" xlink:title=" ">
<polygon fill="none" stroke="black" points="1171.5,-280.5 1171.5,-299.5 1240.5,-299.5 1240.5,-280.5 1171.5,-280.5"/>
<text text-anchor="middle" x="1206" y="-287.5" font-family="Helvetica,sans-Serif" font-size="10.00">../Pattern.h</text>
</a>
</g>
</g>
<!-- Node4&#45;&gt;Node5 -->
<g id="edge4" class="edge">
<title>Node4&#45;&gt;Node5</title>
<path fill="none" stroke="midnightblue" d="M1201.83,-336.08C1202.48,-329.01 1203.42,-318.86 1204.24,-309.99"/>
<polygon fill="midnightblue" stroke="midnightblue" points="1207.75,-310.03 1205.19,-299.75 1200.78,-309.39 1207.75,-310.03"/>
</g>
<!-- Node6 -->
<g id="node6" class="node">
<title>Node6</title>
<g id="a_node6"><a xlink:href="LedTypes_8h.html" target="_top" xlink:title=" ">
<polygon fill="none" stroke="black" points="1212.5,-224.5 1212.5,-243.5 1317.5,-243.5 1317.5,-224.5 1212.5,-224.5"/>
<text text-anchor="middle" x="1265" y="-231.5" font-family="Helvetica,sans-Serif" font-size="10.00">../Leds/LedTypes.h</text>
</a>
</g>
</g>
<!-- Node5&#45;&gt;Node6 -->
<g id="edge5" class="edge">
<title>Node5&#45;&gt;Node6</title>
<path fill="none" stroke="midnightblue" d="M1215.48,-280.32C1224.2,-272.34 1237.34,-260.31 1247.9,-250.65"/>
<polygon fill="midnightblue" stroke="midnightblue" points="1250.33,-253.17 1255.35,-243.83 1245.61,-248 1250.33,-253.17"/>
</g>
<!-- Node5&#45;&gt;Node14 -->
<g id="edge18" class="edge">
<title>Node5&#45;&gt;Node14</title>
<path fill="none" stroke="midnightblue" d="M1236.61,-280.4C1282.15,-267.67 1370.5,-243.26 1446,-224 1493.91,-211.78 1548.95,-198.72 1587.03,-189.84"/>
<polygon fill="midnightblue" stroke="midnightblue" points="1587.88,-193.23 1596.82,-187.56 1586.29,-186.42 1587.88,-193.23"/>
</g>
<!-- Node15 -->
<g id="node15" class="node">
<title>Node15</title>
<g id="a_node15"><a xlink:href="Patterns_8h.html" target="_top" xlink:title=" ">
<polygon fill="none" stroke="black" points="1014.5,-224.5 1014.5,-243.5 1079.5,-243.5 1079.5,-224.5 1014.5,-224.5"/>
<text text-anchor="middle" x="1047" y="-231.5" font-family="Helvetica,sans-Serif" font-size="10.00">Patterns.h</text>
</a>
</g>
</g>
<!-- Node5&#45;&gt;Node15 -->
<g id="edge21" class="edge">
<title>Node5&#45;&gt;Node15</title>
<path fill="none" stroke="midnightblue" d="M1180.81,-280.44C1154.06,-271.36 1111.6,-256.94 1081.69,-246.78"/>
<polygon fill="midnightblue" stroke="midnightblue" points="1082.67,-243.42 1072.08,-243.52 1080.42,-250.05 1082.67,-243.42"/>
</g>
<!-- Node16 -->
<g id="node16" class="node">
<title>Node16</title>
<g id="a_node16"><a xlink:href="PatternArgs_8h.html" target="_top" xlink:title=" ">
<polygon fill="none" stroke="black" points="893,-112.5 893,-131.5 975,-131.5 975,-112.5 893,-112.5"/>
<text text-anchor="middle" x="934" y="-119.5" font-family="Helvetica,sans-Serif" font-size="10.00">PatternArgs.h</text>
</a>
</g>
</g>
<!-- Node5&#45;&gt;Node16 -->
<g id="edge23" class="edge">
<title>Node5&#45;&gt;Node16</title>
<path fill="none" stroke="midnightblue" d="M1202.38,-280.25C1196.03,-266.04 1181.48,-238.13 1160,-224 1095.48,-181.56 1056.47,-227.32 990,-188 970.44,-176.43 954.3,-155.56 944.46,-140.59"/>
<polygon fill="midnightblue" stroke="midnightblue" points="947.2,-138.37 938.92,-131.76 941.27,-142.09 947.2,-138.37"/>
</g>
<!-- Node7 -->
<g id="node7" class="node">
<title>Node7</title>
<g id="a_node7"><a xlink:title=" ">
<polygon fill="none" stroke="#bfbfbf" points="737.5,-56.5 737.5,-75.5 802.5,-75.5 802.5,-56.5 737.5,-56.5"/>
<text text-anchor="middle" x="770" y="-63.5" font-family="Helvetica,sans-Serif" font-size="10.00">inttypes.h</text>
</a>
</g>
</g>
<!-- Node6&#45;&gt;Node7 -->
<g id="edge6" class="edge">
<title>Node6&#45;&gt;Node7</title>
<path fill="none" stroke="midnightblue" d="M1212.44,-225.32C1147.54,-215.47 1043.85,-198.43 1029,-188 996.88,-165.44 1015.91,-134.86 984,-112 933.07,-75.51 858.88,-67.36 812.58,-66.18"/>
<polygon fill="midnightblue" stroke="midnightblue" points="812.63,-62.69 802.57,-66.03 812.52,-69.68 812.63,-62.69"/>
</g>
<!-- Node8 -->
<g id="node8" class="node">
<title>Node8</title>
<g id="a_node8"><a xlink:title=" ">
<polygon fill="none" stroke="#bfbfbf" points="1237,-112.5 1237,-131.5 1293,-131.5 1293,-112.5 1237,-112.5"/>
<text text-anchor="middle" x="1265" y="-119.5" font-family="Helvetica,sans-Serif" font-size="10.00">stdarg.h</text>
</a>
</g>
</g>
<!-- Node6&#45;&gt;Node8 -->
<g id="edge7" class="edge">
<title>Node6&#45;&gt;Node8</title>
<path fill="none" stroke="midnightblue" d="M1265,-224.37C1265,-206.62 1265,-165.67 1265,-141.6"/>
<polygon fill="midnightblue" stroke="midnightblue" points="1268.5,-141.59 1265,-131.59 1261.5,-141.59 1268.5,-141.59"/>
</g>
<!-- Node6&#45;&gt;Node9 -->
<g id="edge8" class="edge">
<title>Node6&#45;&gt;Node9</title>
<path fill="none" stroke="midnightblue" d="M1293.2,-224.44C1323.41,-215.28 1371.51,-200.69 1405.03,-190.52"/>
<polygon fill="midnightblue" stroke="midnightblue" points="1406.37,-193.77 1414.93,-187.52 1404.34,-187.07 1406.37,-193.77"/>
</g>
<!-- Node11 -->
<g id="node11" class="node">
<title>Node11</title>
<g id="a_node11"><a xlink:href="VortexConfig_8h.html" target="_top" xlink:title=" ">
<polygon fill="none" stroke="black" points="1554.5,-56.5 1554.5,-75.5 1651.5,-75.5 1651.5,-56.5 1554.5,-56.5"/>
<text text-anchor="middle" x="1603" y="-63.5" font-family="Helvetica,sans-Serif" font-size="10.00">../VortexConfig.h</text>
</a>
</g>
</g>
<!-- Node6&#45;&gt;Node11 -->
<g id="edge17" class="edge">
<title>Node6&#45;&gt;Node11</title>
<path fill="none" stroke="midnightblue" d="M1317.71,-226.39C1382.85,-217.8 1489.63,-202.21 1527,-188 1549.02,-179.63 1605.56,-152.59 1617,-132 1625.13,-117.37 1619.56,-98.45 1613.19,-84.8"/>
<polygon fill="midnightblue" stroke="midnightblue" points="1616.1,-82.81 1608.39,-75.55 1609.89,-86.04 1616.1,-82.81"/>
</g>
<!-- Node9&#45;&gt;Node7 -->
<g id="edge9" class="edge">
<title>Node9&#45;&gt;Node7</title>
<path fill="none" stroke="midnightblue" d="M1422.28,-168.47C1401.34,-159.73 1368.14,-145.53 1340,-132 1322.8,-123.73 1320.32,-117.36 1302,-112 1210.43,-85.23 922.12,-72.41 812.69,-68.42"/>
<polygon fill="midnightblue" stroke="midnightblue" points="812.79,-64.92 802.67,-68.06 812.54,-71.92 812.79,-64.92"/>
</g>
<!-- Node10 -->
<g id="node10" class="node">
<title>Node10</title>
<g id="a_node10"><a xlink:href="ColorTypes_8h.html" target="_top" xlink:title=" ">
<polygon fill="none" stroke="black" points="1349,-112.5 1349,-131.5 1471,-131.5 1471,-112.5 1349,-112.5"/>
<text text-anchor="middle" x="1410" y="-119.5" font-family="Helvetica,sans-Serif" font-size="10.00">../Colors/ColorTypes.h</text>
</a>
</g>
</g>
<!-- Node9&#45;&gt;Node10 -->
<g id="edge10" class="edge">
<title>Node9&#45;&gt;Node10</title>
<path fill="none" stroke="midnightblue" d="M1437.55,-168.08C1432.99,-160.61 1426.33,-149.72 1420.71,-140.52"/>
<polygon fill="midnightblue" stroke="midnightblue" points="1423.55,-138.46 1415.35,-131.75 1417.58,-142.11 1423.55,-138.46"/>
</g>
<!-- Node9&#45;&gt;Node11 -->
<g id="edge15" class="edge">
<title>Node9&#45;&gt;Node11</title>
<path fill="none" stroke="midnightblue" d="M1471.42,-168.38C1493.15,-160.92 1523.16,-148.7 1546,-132 1564.29,-118.63 1580.82,-98.43 1591.32,-84.1"/>
<polygon fill="midnightblue" stroke="midnightblue" points="1594.37,-85.85 1597.3,-75.66 1588.66,-81.8 1594.37,-85.85"/>
</g>
<!-- Node13 -->
<g id="node13" class="node">
<title>Node13</title>
<g id="a_node13"><a xlink:title=" ">
<polygon fill="none" stroke="#bfbfbf" points="1489.5,-112.5 1489.5,-131.5 1536.5,-131.5 1536.5,-112.5 1489.5,-112.5"/>
<text text-anchor="middle" x="1513" y="-119.5" font-family="Helvetica,sans-Serif" font-size="10.00">vector</text>
</a>
</g>
</g>
<!-- Node9&#45;&gt;Node13 -->
<g id="edge16" class="edge">
<title>Node9&#45;&gt;Node13</title>
<path fill="none" stroke="midnightblue" d="M1454.25,-168.32C1464.8,-160.18 1480.8,-147.84 1493.44,-138.09"/>
<polygon fill="midnightblue" stroke="midnightblue" points="1495.77,-140.71 1501.55,-131.83 1491.49,-135.17 1495.77,-140.71"/>
</g>
<!-- Node10&#45;&gt;Node7 -->
<g id="edge11" class="edge">
<title>Node10&#45;&gt;Node7</title>
<path fill="none" stroke="midnightblue" d="M1348.63,-113.43C1344.02,-112.93 1339.44,-112.44 1335,-112 1140.11,-92.55 906.73,-76.14 812.52,-69.8"/>
<polygon fill="midnightblue" stroke="midnightblue" points="812.74,-66.31 802.52,-69.13 812.27,-73.29 812.74,-66.31"/>
</g>
<!-- Node10&#45;&gt;Node11 -->
<g id="edge12" class="edge">
<title>Node10&#45;&gt;Node11</title>
<path fill="none" stroke="midnightblue" d="M1440.58,-112.44C1473.61,-103.2 1526.39,-88.44 1562.77,-78.26"/>
<polygon fill="midnightblue" stroke="midnightblue" points="1563.87,-81.58 1572.56,-75.52 1561.99,-74.84 1563.87,-81.58"/>
</g>
<!-- Node12 -->
<g id="node12" class="node">
<title>Node12</title>
<g id="a_node12"><a xlink:href="ColorConstants_8h.html" target="_top" xlink:title=" ">
<polygon fill="none" stroke="black" points="1487,-0.5 1487,-19.5 1621,-19.5 1621,-0.5 1487,-0.5"/>
<text text-anchor="middle" x="1554" y="-7.5" font-family="Helvetica,sans-Serif" font-size="10.00">Colors/ColorConstants.h</text>
</a>
</g>
</g>
<!-- Node10&#45;&gt;Node12 -->
<g id="edge14" class="edge">
<title>Node10&#45;&gt;Node12</title>
<path fill="none" stroke="midnightblue" d="M1421.3,-112.37C1445.8,-93.65 1504.06,-49.15 1534.58,-25.83"/>
<polygon fill="midnightblue" stroke="midnightblue" points="1536.93,-28.44 1542.75,-19.59 1532.68,-22.88 1536.93,-28.44"/>
</g>
<!-- Node11&#45;&gt;Node12 -->
<g id="edge13" class="edge">
<title>Node11&#45;&gt;Node12</title>
<path fill="none" stroke="midnightblue" d="M1594.91,-56.08C1587.84,-48.3 1577.41,-36.8 1568.85,-27.37"/>
<polygon fill="midnightblue" stroke="midnightblue" points="1571.25,-24.8 1561.94,-19.75 1566.07,-29.51 1571.25,-24.8"/>
</g>
<!-- Node14&#45;&gt;Node10 -->
<g id="edge19" class="edge">
<title>Node14&#45;&gt;Node10</title>
<path fill="none" stroke="midnightblue" d="M1598.51,-168.44C1559.68,-159.08 1497.34,-144.06 1455.08,-133.87"/>
<polygon fill="midnightblue" stroke="midnightblue" points="1455.87,-130.46 1445.33,-131.52 1454.23,-137.26 1455.87,-130.46"/>
</g>
<!-- Node14&#45;&gt;Node11 -->
<g id="edge20" class="edge">
<title>Node14&#45;&gt;Node11</title>
<path fill="none" stroke="midnightblue" d="M1640.8,-168.35C1649.89,-155.66 1663.87,-131.41 1655,-112 1649.22,-99.36 1637.95,-88.91 1627.37,-81.27"/>
<polygon fill="midnightblue" stroke="midnightblue" points="1629.04,-78.18 1618.78,-75.53 1625.15,-84 1629.04,-78.18"/>
</g>
<!-- Node15&#45;&gt;Node7 -->
<g id="edge22" class="edge">
<title>Node15&#45;&gt;Node7</title>
<path fill="none" stroke="midnightblue" d="M1014.2,-229.48C979.3,-224.55 923.51,-213.17 882,-188 858.61,-173.82 807.71,-113.36 783.42,-83.64"/>
<polygon fill="midnightblue" stroke="midnightblue" points="786.08,-81.36 777.06,-75.81 780.65,-85.77 786.08,-81.36"/>
</g>
<!-- Node16&#45;&gt;Node7 -->
<g id="edge24" class="edge">
<title>Node16&#45;&gt;Node7</title>
<path fill="none" stroke="midnightblue" d="M908.01,-112.44C880.3,-103.32 836.25,-88.81 805.38,-78.65"/>
<polygon fill="midnightblue" stroke="midnightblue" points="806.46,-75.32 795.86,-75.52 804.27,-81.97 806.46,-75.32"/>
</g>
<!-- Node17&#45;&gt;Node6 -->
<g id="edge27" class="edge">
<title>Node17&#45;&gt;Node6</title>
<path fill="none" stroke="midnightblue" d="M1129.51,-280.44C1156.6,-271.36 1199.59,-256.94 1229.87,-246.78"/>
<polygon fill="midnightblue" stroke="midnightblue" points="1231.24,-250.01 1239.61,-243.52 1229.01,-243.38 1231.24,-250.01"/>
</g>
<!-- Node17&#45;&gt;Node7 -->
<g id="edge26" class="edge">
<title>Node17&#45;&gt;Node7</title>
<path fill="none" stroke="midnightblue" d="M1104.43,-280.12C1104.6,-266.25 1102.82,-239.41 1088,-224 1047.93,-182.33 1015.78,-211.58 963,-188 895.05,-157.64 822.71,-106.53 789.15,-81.58"/>
<polygon fill="midnightblue" stroke="midnightblue" points="791.21,-78.76 781.11,-75.56 787.01,-84.36 791.21,-78.76"/>
</g>
<!-- Node18&#45;&gt;Node11 -->
<g id="edge33" class="edge">
<title>Node18&#45;&gt;Node11</title>
<path fill="none" stroke="midnightblue" d="M1651.14,-338.03C1709.42,-327.22 1793,-300.32 1793,-235 1793,-235 1793,-235 1793,-177 1793,-115.51 1717.56,-87.84 1661.75,-75.78"/>
<polygon fill="midnightblue" stroke="midnightblue" points="1662.43,-72.35 1651.93,-73.77 1661.03,-79.2 1662.43,-72.35"/>
</g>
<!-- Node18&#45;&gt;Node19 -->
<g id="edge29" class="edge">
<title>Node18&#45;&gt;Node19</title>
<path fill="none" stroke="midnightblue" d="M1592.86,-336.08C1590.32,-328.85 1586.64,-318.41 1583.47,-309.4"/>
<polygon fill="midnightblue" stroke="midnightblue" points="1586.7,-308.02 1580.08,-299.75 1580.1,-310.35 1586.7,-308.02"/>
</g>
<!-- Node19&#45;&gt;Node6 -->
<g id="edge32" class="edge">
<title>Node19&#45;&gt;Node6</title>
<path fill="none" stroke="midnightblue" d="M1533.95,-281.55C1479.47,-272.12 1385.4,-255.84 1324.2,-245.25"/>
<polygon fill="midnightblue" stroke="midnightblue" points="1324.74,-241.79 1314.29,-243.53 1323.55,-248.69 1324.74,-241.79"/>
</g>
<!-- Node19&#45;&gt;Node7 -->
<g id="edge30" class="edge">
<title>Node19&#45;&gt;Node7</title>
<path fill="none" stroke="midnightblue" d="M1548.64,-280.49C1502.4,-266.87 1407.71,-240.09 1326,-224 1209.81,-201.12 1163.57,-248.88 1062,-188 1026.24,-166.57 1042.19,-134.36 1007,-112 975.4,-91.93 872.37,-77.94 813.07,-71.33"/>
<polygon fill="midnightblue" stroke="midnightblue" points="813.21,-67.83 802.89,-70.22 812.45,-74.79 813.21,-67.83"/>
</g>
<!-- Node19&#45;&gt;Node11 -->
<g id="edge31" class="edge">
<title>Node19&#45;&gt;Node11</title>
<path fill="none" stroke="midnightblue" d="M1603.95,-280.42C1640.43,-267.18 1704.03,-237.94 1731,-188 1747.05,-158.28 1750.53,-139.56 1731,-112 1715.19,-89.69 1687.4,-78.36 1661.74,-72.64"/>
<polygon fill="midnightblue" stroke="midnightblue" points="1662.16,-69.15 1651.67,-70.64 1660.8,-76.02 1662.16,-69.15"/>
</g>
<!-- Node20&#45;&gt;Node7 -->
<g id="edge35" class="edge">
<title>Node20&#45;&gt;Node7</title>
<path fill="none" stroke="midnightblue" d="M863.58,-392.34C801.58,-361.43 594.84,-257.64 587,-244 543.95,-169.05 673.43,-105.33 737,-79.41"/>
<polygon fill="midnightblue" stroke="midnightblue" points="738.6,-82.54 746.59,-75.58 736.01,-76.04 738.6,-82.54"/>
</g>
<!-- Node20&#45;&gt;Node9 -->
<g id="edge89" class="edge">
<title>Node20&#45;&gt;Node9</title>
<path fill="none" stroke="midnightblue" d="M935.29,-398.19C1067.3,-391.12 1395.58,-372.02 1413,-356 1457.5,-315.07 1451.78,-234.52 1446.4,-197.91"/>
<polygon fill="midnightblue" stroke="midnightblue" points="1449.8,-196.98 1444.73,-187.68 1442.89,-198.11 1449.8,-196.98"/>
</g>
<!-- Node20&#45;&gt;Node11 -->
<g id="edge36" class="edge">
<title>Node20&#45;&gt;Node11</title>
<path fill="none" stroke="midnightblue" d="M935.08,-399.07C1100.12,-393.01 1590.29,-373.71 1660,-356 1716.65,-341.61 1737.47,-341.14 1779,-300 1838.36,-241.2 1843.37,-164.04 1778,-112 1745.02,-85.75 1698.45,-74.66 1661.64,-70.04"/>
<polygon fill="midnightblue" stroke="midnightblue" points="1661.87,-66.55 1651.54,-68.91 1661.08,-73.5 1661.87,-66.55"/>
</g>
<!-- Node20&#45;&gt;Node18 -->
<g id="edge70" class="edge">
<title>Node20&#45;&gt;Node18</title>
<path fill="none" stroke="midnightblue" d="M935.12,-398.33C1046.22,-392.61 1308.02,-377.89 1527,-356 1528.11,-355.89 1529.23,-355.77 1530.36,-355.66"/>
<polygon fill="midnightblue" stroke="midnightblue" points="1531.12,-359.09 1540.67,-354.51 1530.35,-352.14 1531.12,-359.09"/>
</g>
<!-- Node20&#45;&gt;Node19 -->
<g id="edge69" class="edge">
<title>Node20&#45;&gt;Node19</title>
<path fill="none" stroke="midnightblue" d="M935.16,-398.71C1074.46,-392.58 1437.83,-374.97 1489,-356 1517.51,-345.43 1544.78,-322.66 1561.21,-307.08"/>
<polygon fill="midnightblue" stroke="midnightblue" points="1564.06,-309.19 1568.76,-299.69 1559.16,-304.19 1564.06,-309.19"/>
</g>
<!-- Node21 -->
<g id="node21" class="node">
<title>Node21</title>
<g id="a_node21"><a xlink:href="PatternBuilder_8h.html" target="_top" xlink:title=" ">
<polygon fill="none" stroke="black" points="860.5,-336.5 860.5,-355.5 997.5,-355.5 997.5,-336.5 860.5,-336.5"/>
<text text-anchor="middle" x="929" y="-343.5" font-family="Helvetica,sans-Serif" font-size="10.00">Patterns/PatternBuilder.h</text>
</a>
</g>
</g>
<!-- Node20&#45;&gt;Node21 -->
<g id="edge37" class="edge">
<title>Node20&#45;&gt;Node21</title>
<path fill="none" stroke="midnightblue" d="M888.93,-392.08C895.85,-384.3 906.07,-372.8 914.45,-363.37"/>
<polygon fill="midnightblue" stroke="midnightblue" points="917.19,-365.55 921.22,-355.75 911.96,-360.9 917.19,-365.55"/>
</g>
<!-- Node22 -->
<g id="node22" class="node">
<title>Node22</title>
<g id="a_node22"><a xlink:href="IRReceiver_8h.html" target="_top" xlink:title=" ">
<polygon fill="none" stroke="black" points="239,-280.5 239,-299.5 361,-299.5 361,-280.5 239,-280.5"/>
<text text-anchor="middle" x="300" y="-287.5" font-family="Helvetica,sans-Serif" font-size="10.00">Wireless/IRReceiver.h</text>
</a>
</g>
</g>
<!-- Node20&#45;&gt;Node22 -->
<g id="edge39" class="edge">
<title>Node20&#45;&gt;Node22</title>
<path fill="none" stroke="midnightblue" d="M826.83,-395.55C761.36,-388.51 648.02,-374.88 552,-356 475.43,-340.94 387.47,-316.62 338.35,-302.38"/>
<polygon fill="midnightblue" stroke="midnightblue" points="339.05,-298.94 328.47,-299.5 337.1,-305.66 339.05,-298.94"/>
</g>
<!-- Node25 -->
<g id="node25" class="node">
<title>Node25</title>
<g id="a_node25"><a xlink:href="IRSender_8h.html" target="_top" xlink:title=" ">
<polygon fill="none" stroke="black" points="379.5,-280.5 379.5,-299.5 492.5,-299.5 492.5,-280.5 379.5,-280.5"/>
<text text-anchor="middle" x="436" y="-287.5" font-family="Helvetica,sans-Serif" font-size="10.00">Wireless/IRSender.h</text>
</a>
</g>
</g>
<!-- Node20&#45;&gt;Node25 -->
<g id="edge44" class="edge">
<title>Node20&#45;&gt;Node25</title>
<path fill="none" stroke="midnightblue" d="M826.85,-394.68C772.87,-387.71 687.87,-374.92 616,-356 561.75,-341.72 500.77,-318 465.53,-303.51"/>
<polygon fill="midnightblue" stroke="midnightblue" points="466.45,-300.1 455.87,-299.5 463.77,-306.57 466.45,-300.1"/>
</g>
<!-- Node27 -->
<g id="node27" class="node">
<title>Node27</title>
<g id="a_node27"><a xlink:href="Log_8h.html" target="_top" xlink:title=" ">
<polygon fill="none" stroke="black" points="1071,-168.5 1071,-187.5 1143,-187.5 1143,-168.5 1071,-168.5"/>
<text text-anchor="middle" x="1107" y="-175.5" font-family="Helvetica,sans-Serif" font-size="10.00">../Log/Log.h</text>
</a>
</g>
</g>
<!-- Node20&#45;&gt;Node27 -->
<g id="edge90" class="edge">
<title>Node20&#45;&gt;Node27</title>
<path fill="none" stroke="midnightblue" d="M929.6,-392.43C954.76,-385.94 984.61,-374.81 1006,-356 1034.51,-330.93 1021.31,-309.66 1045,-280 1060.55,-260.52 1074.36,-264.86 1088,-244 1097.15,-230.01 1102,-211.51 1104.5,-197.82"/>
<polygon fill="midnightblue" stroke="midnightblue" points="1108,-198.09 1106.09,-187.66 1101.08,-197 1108,-198.09"/>
</g>
<!-- Node29 -->
<g id="node29" class="node">
<title>Node29</title>
<g id="a_node29"><a xlink:href="VLReceiver_8h.html" target="_top" xlink:title=" ">
<polygon fill="none" stroke="black" points="510.5,-280.5 510.5,-299.5 635.5,-299.5 635.5,-280.5 510.5,-280.5"/>
<text text-anchor="middle" x="573" y="-287.5" font-family="Helvetica,sans-Serif" font-size="10.00">Wireless/VLReceiver.h</text>
</a>
</g>
</g>
<!-- Node20&#45;&gt;Node29 -->
<g id="edge55" class="edge">
<title>Node20&#45;&gt;Node29</title>
<path fill="none" stroke="midnightblue" d="M826.76,-398.17C778.35,-393.88 706.56,-383.1 650,-356 625.24,-344.14 601.9,-322.39 587.54,-307.34"/>
<polygon fill="midnightblue" stroke="midnightblue" points="589.9,-304.73 580.54,-299.77 584.76,-309.49 589.9,-304.73"/>
</g>
<!-- Node31 -->
<g id="node31" class="node">
<title>Node31</title>
<g id="a_node31"><a xlink:href="VLSender_8h.html" target="_top" xlink:title=" ">
<polygon fill="none" stroke="black" points="692,-280.5 692,-299.5 808,-299.5 808,-280.5 692,-280.5"/>
<text text-anchor="middle" x="750" y="-287.5" font-family="Helvetica,sans-Serif" font-size="10.00">Wireless/VLSender.h</text>
</a>
</g>
</g>
<!-- Node20&#45;&gt;Node31 -->
<g id="edge60" class="edge">
<title>Node20&#45;&gt;Node31</title>
<path fill="none" stroke="midnightblue" d="M870.72,-392.37C848.53,-373.73 795.89,-329.53 768.02,-306.13"/>
<polygon fill="midnightblue" stroke="midnightblue" points="770.14,-303.34 760.23,-299.59 765.64,-308.7 770.14,-303.34"/>
</g>
<!-- Node32 -->
<g id="node32" class="node">
<title>Node32</title>
<g id="a_node32"><a xlink:href="Storage_8h.html" target="_top" xlink:title=" ">
<polygon fill="none" stroke="black" points="178,-168.5 178,-187.5 282,-187.5 282,-168.5 178,-168.5"/>
<text text-anchor="middle" x="230" y="-175.5" font-family="Helvetica,sans-Serif" font-size="10.00">Storage/Storage.h</text>
</a>
</g>
</g>
<!-- Node20&#45;&gt;Node32 -->
<g id="edge64" class="edge">
<title>Node20&#45;&gt;Node32</title>
<path fill="none" stroke="midnightblue" d="M826.9,-401.53C684.18,-401.61 303.41,-392.96 230,-300 206.76,-270.57 215.93,-223.35 223.61,-197.46"/>
<polygon fill="midnightblue" stroke="midnightblue" points="226.99,-198.38 226.71,-187.79 220.33,-196.24 226.99,-198.38"/>
</g>
<!-- Node33 -->
<g id="node33" class="node">
<title>Node33</title>
<g id="a_node33"><a xlink:href="Buttons_8h.html" target="_top" xlink:title=" ">
<polygon fill="none" stroke="black" points="79,-336.5 79,-355.5 183,-355.5 183,-336.5 79,-336.5"/>
<text text-anchor="middle" x="131" y="-343.5" font-family="Helvetica,sans-Serif" font-size="10.00">Buttons/Buttons.h</text>
</a>
</g>
</g>
<!-- Node20&#45;&gt;Node33 -->
<g id="edge66" class="edge">
<title>Node20&#45;&gt;Node33</title>
<path fill="none" stroke="midnightblue" d="M826.8,-398.72C710.99,-393.57 430.85,-379.61 197,-356 195.74,-355.87 194.46,-355.74 193.18,-355.6"/>
<polygon fill="midnightblue" stroke="midnightblue" points="193.53,-352.12 183.2,-354.46 192.74,-359.07 193.53,-352.12"/>
</g>
<!-- Node35 -->
<g id="node35" class="node">
<title>Node35</title>
<g id="a_node35"><a xlink:href="Serial_8h.html" target="_top" xlink:title=" ">
<polygon fill="none" stroke="black" points="0,-168.5 0,-187.5 84,-187.5 84,-168.5 0,-168.5"/>
<text text-anchor="middle" x="42" y="-175.5" font-family="Helvetica,sans-Serif" font-size="10.00">Serial/Serial.h</text>
</a>
</g>
</g>
<!-- Node20&#45;&gt;Node35 -->
<g id="edge71" class="edge">
<title>Node20&#45;&gt;Node35</title>
<path fill="none" stroke="midnightblue" d="M826.8,-399.85C649.75,-395.84 98.09,-381.37 70,-356 25.21,-315.54 32.23,-234.75 38.25,-198"/>
<polygon fill="midnightblue" stroke="midnightblue" points="41.77,-198.18 40.11,-187.72 34.89,-196.94 41.77,-198.18"/>
</g>
<!-- Node36 -->
<g id="node36" class="node">
<title>Node36</title>
<g id="a_node36"><a xlink:href="Modes_8h.html" target="_top" xlink:title=" ">
<polygon fill="none" stroke="black" points="864.5,-280.5 864.5,-299.5 957.5,-299.5 957.5,-280.5 864.5,-280.5"/>
<text text-anchor="middle" x="911" y="-287.5" font-family="Helvetica,sans-Serif" font-size="10.00">Modes/Modes.h</text>
</a>
</g>
</g>
<!-- Node20&#45;&gt;Node36 -->
<g id="edge73" class="edge">
<title>Node20&#45;&gt;Node36</title>
<path fill="none" stroke="midnightblue" d="M871.59,-392.09C859.47,-379.48 841.11,-355.79 851,-336 857.73,-322.54 870.61,-312.07 882.71,-304.62"/>
<polygon fill="midnightblue" stroke="midnightblue" points="884.73,-307.5 891.7,-299.52 881.28,-301.41 884.73,-307.5"/>
</g>
<!-- Node37 -->
<g id="node37" class="node">
<title>Node37</title>
<g id="a_node37"><a xlink:href="Menus_8h.html" target="_top" xlink:title=" ">
<polygon fill="none" stroke="black" points="1311.5,-336.5 1311.5,-355.5 1404.5,-355.5 1404.5,-336.5 1311.5,-336.5"/>
<text text-anchor="middle" x="1358" y="-343.5" font-family="Helvetica,sans-Serif" font-size="10.00">Menus/Menus.h</text>
</a>
</g>
</g>
<!-- Node20&#45;&gt;Node37 -->
<g id="edge80" class="edge">
<title>Node20&#45;&gt;Node37</title>
<path fill="none" stroke="midnightblue" d="M935.26,-395.81C1014.75,-388.05 1167.48,-372.55 1297,-356 1298.46,-355.81 1299.94,-355.62 1301.43,-355.42"/>
<polygon fill="midnightblue" stroke="midnightblue" points="1301.96,-358.88 1311.4,-354.07 1301.02,-351.95 1301.96,-358.88"/>
</g>
<!-- Node38 -->
<g id="node38" class="node">
<title>Node38</title>
<g id="a_node38"><a xlink:href="Mode_8h.html" target="_top" xlink:title=" ">
<polygon fill="none" stroke="black" points="1258.5,-280.5 1258.5,-299.5 1355.5,-299.5 1355.5,-280.5 1258.5,-280.5"/>
<text text-anchor="middle" x="1307" y="-287.5" font-family="Helvetica,sans-Serif" font-size="10.00">../Modes/Mode.h</text>
</a>
</g>
</g>
<!-- Node20&#45;&gt;Node38 -->
<g id="edge88" class="edge">
<title>Node20&#45;&gt;Node38</title>
<path fill="none" stroke="midnightblue" d="M935.09,-400.1C1027.05,-397.67 1209.16,-388.75 1263,-356 1280.78,-345.18 1293.01,-324.13 1299.98,-308.91"/>
<polygon fill="midnightblue" stroke="midnightblue" points="1303.29,-310.08 1303.97,-299.5 1296.84,-307.34 1303.29,-310.08"/>
</g>
<!-- Node21&#45;&gt;Node15 -->
<g id="edge38" class="edge">
<title>Node21&#45;&gt;Node15</title>
<path fill="none" stroke="midnightblue" d="M938.26,-336.37C958.16,-317.81 1005.26,-273.91 1030.44,-250.44"/>
<polygon fill="midnightblue" stroke="midnightblue" points="1032.86,-252.97 1037.78,-243.59 1028.08,-247.85 1032.86,-252.97"/>
</g>
<!-- Node22&#45;&gt;Node7 -->
<g id="edge40" class="edge">
<title>Node22&#45;&gt;Node7</title>
<path fill="none" stroke="midnightblue" d="M296.4,-280.31C291.55,-267.15 284.66,-241.82 295,-224 345.36,-137.22 396.4,-145.41 491,-112 571.4,-83.6 671.23,-73.02 727.05,-69.16"/>
<polygon fill="midnightblue" stroke="midnightblue" points="727.52,-72.63 737.27,-68.49 727.07,-65.65 727.52,-72.63"/>
</g>
<!-- Node23 -->
<g id="node23" class="node">
<title>Node23</title>
<g id="a_node23"><a xlink:href="BitStream_8h.html" target="_top" xlink:title=" ">
<polygon fill="none" stroke="black" points="388,-224.5 388,-243.5 502,-243.5 502,-224.5 388,-224.5"/>
<text text-anchor="middle" x="445" y="-231.5" font-family="Helvetica,sans-Serif" font-size="10.00">../Serial/BitStream.h</text>
</a>
</g>
</g>
<!-- Node22&#45;&gt;Node23 -->
<g id="edge41" class="edge">
<title>Node22&#45;&gt;Node23</title>
<path fill="none" stroke="midnightblue" d="M322.98,-280.44C347.16,-271.44 385.42,-257.19 412.65,-247.05"/>
<polygon fill="midnightblue" stroke="midnightblue" points="413.98,-250.29 422.13,-243.52 411.54,-243.73 413.98,-250.29"/>
</g>
<!-- Node24 -->
<g id="node24" class="node">
<title>Node24</title>
<g id="a_node24"><a xlink:href="IRConfig_8h.html" target="_top" xlink:title=" ">
<polygon fill="none" stroke="black" points="304,-224.5 304,-243.5 370,-243.5 370,-224.5 304,-224.5"/>
<text text-anchor="middle" x="337" y="-231.5" font-family="Helvetica,sans-Serif" font-size="10.00">IRConfig.h</text>
</a>
</g>
</g>
<!-- Node22&#45;&gt;Node24 -->
<g id="edge43" class="edge">
<title>Node22&#45;&gt;Node24</title>
<path fill="none" stroke="midnightblue" d="M306.11,-280.08C311.28,-272.53 318.85,-261.49 325.19,-252.23"/>
<polygon fill="midnightblue" stroke="midnightblue" points="328.24,-253.98 331,-243.75 322.46,-250.02 328.24,-253.98"/>
</g>
<!-- Node23&#45;&gt;Node7 -->
<g id="edge42" class="edge">
<title>Node23&#45;&gt;Node7</title>
<path fill="none" stroke="midnightblue" d="M447.35,-224.23C453.94,-201.54 474.81,-140.65 516,-112 549.52,-88.68 664.16,-75.75 727.35,-70.24"/>
<polygon fill="midnightblue" stroke="midnightblue" points="727.73,-73.72 737.4,-69.39 727.14,-66.75 727.73,-73.72"/>
</g>
<!-- Node25&#45;&gt;Node23 -->
<g id="edge53" class="edge">
<title>Node25&#45;&gt;Node23</title>
<path fill="none" stroke="midnightblue" d="M437.49,-280.08C438.68,-272.93 440.39,-262.64 441.88,-253.69"/>
<polygon fill="midnightblue" stroke="midnightblue" points="445.35,-254.19 443.54,-243.75 438.45,-253.04 445.35,-254.19"/>
</g>
<!-- Node25&#45;&gt;Node24 -->
<g id="edge54" class="edge">
<title>Node25&#45;&gt;Node24</title>
<path fill="none" stroke="midnightblue" d="M420.09,-280.32C404.36,-271.74 380.06,-258.49 361.79,-248.52"/>
<polygon fill="midnightblue" stroke="midnightblue" points="363.32,-245.37 352.87,-243.65 359.97,-251.52 363.32,-245.37"/>
</g>
<!-- Node26 -->
<g id="node26" class="node">
<title>Node26</title>
<g id="a_node26"><a xlink:href="ByteStream_8h.html" target="_top" xlink:title=" ">
<polygon fill="none" stroke="black" points="720.5,-224.5 720.5,-243.5 843.5,-243.5 843.5,-224.5 720.5,-224.5"/>
<text text-anchor="middle" x="782" y="-231.5" font-family="Helvetica,sans-Serif" font-size="10.00">../Serial/ByteStream.h</text>
</a>
</g>
</g>
<!-- Node25&#45;&gt;Node26 -->
<g id="edge45" class="edge">
<title>Node25&#45;&gt;Node26</title>
<path fill="none" stroke="midnightblue" d="M490.82,-280.44C552.32,-270.85 651.98,-255.29 717.26,-245.1"/>
<polygon fill="midnightblue" stroke="midnightblue" points="718.09,-248.52 727.43,-243.52 717.01,-241.6 718.09,-248.52"/>
</g>
<!-- Node26&#45;&gt;Node7 -->
<g id="edge46" class="edge">
<title>Node26&#45;&gt;Node7</title>
<path fill="none" stroke="midnightblue" d="M780.37,-224.41C778.72,-215.38 776.25,-200.75 775,-188 771.45,-151.86 770.42,-109.4 770.12,-85.6"/>
<polygon fill="midnightblue" stroke="midnightblue" points="773.62,-85.5 770.02,-75.53 766.62,-85.56 773.62,-85.5"/>
</g>
<!-- Node26&#45;&gt;Node27 -->
<g id="edge47" class="edge">
<title>Node26&#45;&gt;Node27</title>
<path fill="none" stroke="midnightblue" d="M833.5,-224.44C896.1,-214.04 1000.81,-196.64 1060.88,-186.66"/>
<polygon fill="midnightblue" stroke="midnightblue" points="1061.55,-190.1 1070.84,-185.01 1060.4,-183.19 1061.55,-190.1"/>
</g>
<!-- Node27&#45;&gt;Node8 -->
<g id="edge48" class="edge">
<title>Node27&#45;&gt;Node8</title>
<path fill="none" stroke="midnightblue" d="M1132.04,-168.44C1158.62,-159.36 1200.81,-144.94 1230.52,-134.78"/>
<polygon fill="midnightblue" stroke="midnightblue" points="1231.75,-138.06 1240.08,-131.52 1229.49,-131.44 1231.75,-138.06"/>
</g>
<!-- Node27&#45;&gt;Node11 -->
<g id="edge49" class="edge">
<title>Node27&#45;&gt;Node11</title>
<path fill="none" stroke="midnightblue" d="M1122.91,-168.25C1154.46,-150.93 1222.43,-113.76 1228,-112 1336.08,-77.83 1469.19,-69.29 1544.24,-67.34"/>
<polygon fill="midnightblue" stroke="midnightblue" points="1544.52,-70.84 1554.44,-67.11 1544.36,-63.84 1544.52,-70.84"/>
</g>
<!-- Node28 -->
<g id="node28" class="node">
<title>Node28</title>
<g id="a_node28"><a xlink:href="ErrorBlinker_8h.html" target="_top" xlink:title=" ">
<polygon fill="none" stroke="black" points="1069.5,-112.5 1069.5,-131.5 1180.5,-131.5 1180.5,-112.5 1069.5,-112.5"/>
<text text-anchor="middle" x="1125" y="-119.5" font-family="Helvetica,sans-Serif" font-size="10.00">../Log/ErrorBlinker.h</text>
</a>
</g>
</g>
<!-- Node27&#45;&gt;Node28 -->
<g id="edge50" class="edge">
<title>Node27&#45;&gt;Node28</title>
<path fill="none" stroke="midnightblue" d="M1109.97,-168.08C1112.38,-160.85 1115.86,-150.41 1118.87,-141.4"/>
<polygon fill="midnightblue" stroke="midnightblue" points="1122.24,-142.34 1122.08,-131.75 1115.6,-140.13 1122.24,-142.34"/>
</g>
<!-- Node28&#45;&gt;Node7 -->
<g id="edge51" class="edge">
<title>Node28&#45;&gt;Node7</title>
<path fill="none" stroke="midnightblue" d="M1069.14,-112.5C998.12,-101.7 877.02,-83.28 812.85,-73.52"/>
<polygon fill="midnightblue" stroke="midnightblue" points="813.09,-70.02 802.68,-71.97 812.04,-76.94 813.09,-70.02"/>
</g>
<!-- Node28&#45;&gt;Node11 -->
<g id="edge52" class="edge">
<title>Node28&#45;&gt;Node11</title>
<path fill="none" stroke="midnightblue" d="M1180.77,-113.74C1185.58,-113.14 1190.38,-112.55 1195,-112 1319.1,-97.18 1464.64,-81.55 1544.01,-73.17"/>
<polygon fill="midnightblue" stroke="midnightblue" points="1544.72,-76.61 1554.29,-72.09 1543.98,-69.65 1544.72,-76.61"/>
</g>
<!-- Node29&#45;&gt;Node7 -->
<g id="edge56" class="edge">
<title>Node29&#45;&gt;Node7</title>
<path fill="none" stroke="midnightblue" d="M568.26,-280.41C553.59,-252.52 512.27,-163.31 554,-112 575.39,-85.7 670.44,-74.26 727.08,-69.7"/>
<polygon fill="midnightblue" stroke="midnightblue" points="727.48,-73.18 737.18,-68.93 726.95,-66.2 727.48,-73.18"/>
</g>
<!-- Node29&#45;&gt;Node23 -->
<g id="edge57" class="edge">
<title>Node29&#45;&gt;Node23</title>
<path fill="none" stroke="midnightblue" d="M552.72,-280.44C531.65,-271.56 498.48,-257.56 474.51,-247.45"/>
<polygon fill="midnightblue" stroke="midnightblue" points="475.76,-244.18 465.19,-243.52 473.04,-250.63 475.76,-244.18"/>
</g>
<!-- Node30 -->
<g id="node30" class="node">
<title>Node30</title>
<g id="a_node30"><a xlink:href="VLConfig_8h.html" target="_top" xlink:title=" ">
<polygon fill="none" stroke="black" points="596,-224.5 596,-243.5 664,-243.5 664,-224.5 596,-224.5"/>
<text text-anchor="middle" x="630" y="-231.5" font-family="Helvetica,sans-Serif" font-size="10.00">VLConfig.h</text>
</a>
</g>
</g>
<!-- Node29&#45;&gt;Node30 -->
<g id="edge58" class="edge">
<title>Node29&#45;&gt;Node30</title>
<path fill="none" stroke="midnightblue" d="M582.16,-280.32C590.5,-272.42 603.03,-260.55 613.18,-250.94"/>
<polygon fill="midnightblue" stroke="midnightblue" points="615.82,-253.25 620.68,-243.83 611.01,-248.17 615.82,-253.25"/>
</g>
<!-- Node30&#45;&gt;Node11 -->
<g id="edge59" class="edge">
<title>Node30&#45;&gt;Node11</title>
<path fill="none" stroke="midnightblue" d="M643.33,-224.35C679.95,-201.13 785.89,-137.42 884,-112 1008.15,-79.83 1394.8,-70.32 1543.71,-67.81"/>
<polygon fill="midnightblue" stroke="midnightblue" points="1544.07,-71.31 1554.01,-67.65 1543.96,-64.31 1544.07,-71.31"/>
</g>
<!-- Node31&#45;&gt;Node23 -->
<g id="edge62" class="edge">
<title>Node31&#45;&gt;Node23</title>
<path fill="none" stroke="midnightblue" d="M701.67,-280.44C647.8,-270.9 560.69,-255.48 503.14,-245.29"/>
<polygon fill="midnightblue" stroke="midnightblue" points="503.56,-241.81 493.1,-243.52 502.34,-248.71 503.56,-241.81"/>
</g>
<!-- Node31&#45;&gt;Node26 -->
<g id="edge61" class="edge">
<title>Node31&#45;&gt;Node26</title>
<path fill="none" stroke="midnightblue" d="M755.28,-280.08C759.71,-272.61 766.16,-261.72 771.62,-252.52"/>
<polygon fill="midnightblue" stroke="midnightblue" points="774.73,-254.14 776.81,-243.75 768.71,-250.57 774.73,-254.14"/>
</g>
<!-- Node31&#45;&gt;Node30 -->
<g id="edge63" class="edge">
<title>Node31&#45;&gt;Node30</title>
<path fill="none" stroke="midnightblue" d="M730.99,-280.44C711.41,-271.64 680.69,-257.81 658.27,-247.72"/>
<polygon fill="midnightblue" stroke="midnightblue" points="659.48,-244.43 648.93,-243.52 656.61,-250.81 659.48,-244.43"/>
</g>
<!-- Node32&#45;&gt;Node7 -->
<g id="edge65" class="edge">
<title>Node32&#45;&gt;Node7</title>
<path fill="none" stroke="midnightblue" d="M235.7,-168.38C245.85,-153.84 268.6,-124.77 296,-112 371.98,-76.58 625.09,-69.04 726.97,-67.43"/>
<polygon fill="midnightblue" stroke="midnightblue" points="727.26,-70.93 737.21,-67.28 727.16,-63.93 727.26,-70.93"/>
</g>
<!-- Node34 -->
<g id="node34" class="node">
<title>Node34</title>
<g id="a_node34"><a xlink:href="Button_8h.html" target="_top" xlink:title=" ">
<polygon fill="none" stroke="black" points="102,-168.5 102,-187.5 160,-187.5 160,-168.5 102,-168.5"/>
<text text-anchor="middle" x="131" y="-175.5" font-family="Helvetica,sans-Serif" font-size="10.00">Button.h</text>
</a>
</g>
</g>
<!-- Node33&#45;&gt;Node34 -->
<g id="edge67" class="edge">
<title>Node33&#45;&gt;Node34</title>
<path fill="none" stroke="midnightblue" d="M131,-336.08C131,-309.95 131,-233.21 131,-197.58"/>
<polygon fill="midnightblue" stroke="midnightblue" points="134.5,-197.57 131,-187.57 127.5,-197.57 134.5,-197.57"/>
</g>
<!-- Node34&#45;&gt;Node7 -->
<g id="edge68" class="edge">
<title>Node34&#45;&gt;Node7</title>
<path fill="none" stroke="midnightblue" d="M144.43,-168.42C167.85,-153.95 218.15,-124.98 265,-112 351.62,-88 621.45,-73.65 727.03,-68.83"/>
<polygon fill="midnightblue" stroke="midnightblue" points="727.48,-72.32 737.31,-68.37 727.17,-65.32 727.48,-72.32"/>
</g>
<!-- Node35&#45;&gt;Node7 -->
<g id="edge72" class="edge">
<title>Node35&#45;&gt;Node7</title>
<path fill="none" stroke="midnightblue" d="M59.35,-168.46C89.54,-154.03 154.07,-125.13 212,-112 400.47,-69.29 632.79,-65.78 727.15,-66.34"/>
<polygon fill="midnightblue" stroke="midnightblue" points="727.41,-69.84 737.43,-66.42 727.46,-62.84 727.41,-69.84"/>
</g>
<!-- Node36&#45;&gt;Node7 -->
<g id="edge79" class="edge">
<title>Node36&#45;&gt;Node7</title>
<path fill="none" stroke="midnightblue" d="M904.71,-280.35C887.79,-256.95 840.23,-190.25 805,-132 795.49,-116.27 785.65,-97.76 778.83,-84.52"/>
<polygon fill="midnightblue" stroke="midnightblue" points="781.92,-82.89 774.27,-75.57 775.69,-86.06 781.92,-82.89"/>
</g>
<!-- Node36&#45;&gt;Node9 -->
<g id="edge77" class="edge">
<title>Node36&#45;&gt;Node9</title>
<path fill="none" stroke="midnightblue" d="M916.1,-280.39C925.23,-265.86 945.88,-236.82 972,-224 1008.92,-205.88 1276.27,-188.58 1390.97,-181.9"/>
<polygon fill="midnightblue" stroke="midnightblue" points="1391.47,-185.37 1401.25,-181.3 1391.07,-178.38 1391.47,-185.37"/>
</g>
<!-- Node36&#45;&gt;Node10 -->
<g id="edge75" class="edge">
<title>Node36&#45;&gt;Node10</title>
<path fill="none" stroke="midnightblue" d="M912.67,-280.22C915.86,-265.97 924.26,-238.01 943,-224 1018.49,-167.56 1059.79,-207.53 1152,-188 1229.37,-171.62 1318.64,-148.07 1369.3,-134.28"/>
<polygon fill="midnightblue" stroke="midnightblue" points="1370.48,-137.58 1379.2,-131.57 1368.63,-130.83 1370.48,-137.58"/>
</g>
<!-- Node36&#45;&gt;Node11 -->
<g id="edge78" class="edge">
<title>Node36&#45;&gt;Node11</title>
<path fill="none" stroke="midnightblue" d="M922.56,-280.5C945.6,-263.62 995.83,-227.24 1005,-224 1210.5,-151.48 1289.61,-263.6 1494,-188 1503.84,-184.36 1563.22,-140 1570,-132 1581.86,-117.99 1590.88,-99 1596.46,-85.16"/>
<polygon fill="midnightblue" stroke="midnightblue" points="1599.76,-86.34 1600.05,-75.75 1593.22,-83.84 1599.76,-86.34"/>
</g>
<!-- Node36&#45;&gt;Node15 -->
<g id="edge76" class="edge">
<title>Node36&#45;&gt;Node15</title>
<path fill="none" stroke="midnightblue" d="M932.55,-280.44C955.03,-271.52 990.49,-257.44 1015.98,-247.32"/>
<polygon fill="midnightblue" stroke="midnightblue" points="1017.55,-250.46 1025.55,-243.52 1014.97,-243.95 1017.55,-250.46"/>
</g>
<!-- Node36&#45;&gt;Node26 -->
<g id="edge74" class="edge">
<title>Node36&#45;&gt;Node26</title>
<path fill="none" stroke="midnightblue" d="M890.56,-280.44C869.33,-271.56 835.9,-257.56 811.75,-247.45"/>
<polygon fill="midnightblue" stroke="midnightblue" points="812.92,-244.15 802.34,-243.52 810.22,-250.61 812.92,-244.15"/>
</g>
<!-- Node37&#45;&gt;Node6 -->
<g id="edge83" class="edge">
<title>Node37&#45;&gt;Node6</title>
<path fill="none" stroke="midnightblue" d="M1362.01,-336.19C1367.42,-322.88 1375.17,-297.34 1364,-280 1353.69,-263.99 1336.15,-253.62 1318.67,-246.92"/>
<polygon fill="midnightblue" stroke="midnightblue" points="1319.6,-243.54 1309.01,-243.56 1317.3,-250.15 1319.6,-243.54"/>
</g>
<!-- Node37&#45;&gt;Node7 -->
<g id="edge81" class="edge">
<title>Node37&#45;&gt;Node7</title>
<path fill="none" stroke="midnightblue" d="M1311.14,-340.5C1295.8,-339.04 1278.67,-337.43 1263,-336 1081.72,-319.42 1029.63,-351.4 855,-300 836.69,-294.61 834.53,-287.54 817,-280 771.29,-260.35 739.98,-284.44 711,-244 674.11,-192.52 727.99,-116.42 755.5,-83.35"/>
<polygon fill="midnightblue" stroke="midnightblue" points="758.33,-85.43 762.16,-75.56 753.01,-80.88 758.33,-85.43"/>
</g>
<!-- Node37&#45;&gt;Node10 -->
<g id="edge82" class="edge">
<title>Node37&#45;&gt;Node10</title>
<path fill="none" stroke="midnightblue" d="M1363.65,-336.46C1369.13,-327.7 1377.15,-313.5 1381,-300 1397.15,-243.39 1378.47,-225.3 1392,-168 1394.17,-158.79 1397.91,-148.98 1401.42,-140.88"/>
<polygon fill="midnightblue" stroke="midnightblue" points="1404.64,-142.26 1405.61,-131.71 1398.27,-139.35 1404.64,-142.26"/>
</g>
<!-- Node37&#45;&gt;Node38 -->
<g id="edge84" class="edge">
<title>Node37&#45;&gt;Node38</title>
<path fill="none" stroke="midnightblue" d="M1349.58,-336.08C1342.15,-328.22 1331.15,-316.57 1322.19,-307.08"/>
<polygon fill="midnightblue" stroke="midnightblue" points="1324.68,-304.62 1315.26,-299.75 1319.59,-309.42 1324.68,-304.62"/>
</g>
<!-- Node38&#45;&gt;Node6 -->
<g id="edge85" class="edge">
<title>Node38&#45;&gt;Node6</title>
<path fill="none" stroke="midnightblue" d="M1300.06,-280.08C1294.07,-272.38 1285.25,-261.03 1277.95,-251.65"/>
<polygon fill="midnightblue" stroke="midnightblue" points="1280.71,-249.5 1271.81,-243.75 1275.18,-253.79 1280.71,-249.5"/>
</g>
<!-- Node38&#45;&gt;Node11 -->
<g id="edge87" class="edge">
<title>Node38&#45;&gt;Node11</title>
<path fill="none" stroke="midnightblue" d="M1355.53,-283.78C1450.66,-272.43 1656.09,-242.11 1698,-188 1728.23,-148.97 1665.28,-103.22 1627.95,-80.8"/>
<polygon fill="midnightblue" stroke="midnightblue" points="1629.48,-77.65 1619.08,-75.63 1625.95,-83.69 1629.48,-77.65"/>
</g>
<!-- Node38&#45;&gt;Node15 -->
<g id="edge86" class="edge">
<title>Node38&#45;&gt;Node15</title>
<path fill="none" stroke="midnightblue" d="M1265.8,-280.44C1217.68,-270.45 1138.45,-253.99 1089.69,-243.87"/>
<polygon fill="midnightblue" stroke="midnightblue" points="1090.28,-240.41 1079.77,-241.81 1088.85,-247.27 1090.28,-240.41"/>
</g>
</g>
</svg>
