<?xml version="1.0" encoding="UTF-8" standalone="no"?>
<!DOCTYPE svg PUBLIC "-//W3C//DTD SVG 1.1//EN"
 "http://www.w3.org/Graphics/SVG/1.1/DTD/svg11.dtd">
<!-- Generated by graphviz version 2.43.0 (0)
 -->
<!-- Title: VortexEngine/src/Buttons/Button.cpp Pages: 1 -->
<svg width="399pt" height="319pt"
 viewBox="0.00 0.00 399.28 319.00" xmlns="http://www.w3.org/2000/svg" xmlns:xlink="http://www.w3.org/1999/xlink">
<g id="graph0" class="graph" transform="scale(1 1) rotate(0) translate(4 315)">
<title>VortexEngine/src/Buttons/Button.cpp</title>
<!-- Node1 -->
<g id="node1" class="node">
<title>Node1</title>
<g id="a_node1"><a xlink:title=" ">
<polygon fill="#bfbfbf" stroke="black" points="86.5,-280.5 86.5,-310.5 225.5,-310.5 225.5,-280.5 86.5,-280.5"/>
<text text-anchor="start" x="94.5" y="-298.5" font-family="Helvetica,sans-Serif" font-size="10.00">VortexEngine/src/Buttons</text>
<text text-anchor="middle" x="156" y="-287.5" font-family="Helvetica,sans-Serif" font-size="10.00">/Button.cpp</text>
</a>
</g>
</g>
<!-- Node2 -->
<g id="node2" class="node">
<title>Node2</title>
<g id="a_node2"><a xlink:href="Button_8h.html" target="_top" xlink:title=" ">
<polygon fill="none" stroke="black" points="0,-224.5 0,-243.5 58,-243.5 58,-224.5 0,-224.5"/>
<text text-anchor="middle" x="29" y="-231.5" font-family="Helvetica,sans-Serif" font-size="10.00">Button.h</text>
</a>
</g>
</g>
<!-- Node1&#45;&gt;Node2 -->
<g id="edge1" class="edge">
<title>Node1&#45;&gt;Node2</title>
<path fill="none" stroke="midnightblue" d="M125.9,-280.4C104.88,-270.55 77.03,-257.5 56.58,-247.92"/>
<polygon fill="midnightblue" stroke="midnightblue" points="58.02,-244.73 47.48,-243.66 55.05,-251.07 58.02,-244.73"/>
</g>
<!-- Node4 -->
<g id="node4" class="node">
<title>Node4</title>
<g id="a_node4"><a xlink:href="TimeControl_8h.html" target="_top" xlink:title=" ">
<polygon fill="none" stroke="black" points="56,-168.5 56,-187.5 178,-187.5 178,-168.5 56,-168.5"/>
<text text-anchor="middle" x="117" y="-175.5" font-family="Helvetica,sans-Serif" font-size="10.00">../Time/TimeControl.h</text>
</a>
</g>
</g>
<!-- Node1&#45;&gt;Node4 -->
<g id="edge3" class="edge">
<title>Node1&#45;&gt;Node4</title>
<path fill="none" stroke="midnightblue" d="M150.04,-280.48C145.87,-270.42 140.29,-256.49 136,-244 130.69,-228.54 125.54,-210.69 121.95,-197.62"/>
<polygon fill="midnightblue" stroke="midnightblue" points="125.31,-196.65 119.32,-187.91 118.56,-198.48 125.31,-196.65"/>
</g>
<!-- Node9 -->
<g id="node9" class="node">
<title>Node9</title>
<g id="a_node9"><a xlink:href="Timings_8h.html" target="_top" xlink:title=" ">
<polygon fill="none" stroke="black" points="145.5,-224.5 145.5,-243.5 246.5,-243.5 246.5,-224.5 145.5,-224.5"/>
<text text-anchor="middle" x="196" y="-231.5" font-family="Helvetica,sans-Serif" font-size="10.00">../Time/Timings.h</text>
</a>
</g>
</g>
<!-- Node1&#45;&gt;Node9 -->
<g id="edge11" class="edge">
<title>Node1&#45;&gt;Node9</title>
<path fill="none" stroke="midnightblue" d="M165.48,-280.4C171.17,-271.93 178.45,-261.1 184.48,-252.14"/>
<polygon fill="midnightblue" stroke="midnightblue" points="187.51,-253.91 190.18,-243.66 181.7,-250 187.51,-253.91"/>
</g>
<!-- Node10 -->
<g id="node10" class="node">
<title>Node10</title>
<g id="a_node10"><a xlink:href="Log_8h.html" target="_top" xlink:title=" ">
<polygon fill="none" stroke="black" points="251,-168.5 251,-187.5 323,-187.5 323,-168.5 251,-168.5"/>
<text text-anchor="middle" x="287" y="-175.5" font-family="Helvetica,sans-Serif" font-size="10.00">../Log/Log.h</text>
</a>
</g>
</g>
<!-- Node1&#45;&gt;Node10 -->
<g id="edge14" class="edge">
<title>Node1&#45;&gt;Node10</title>
<path fill="none" stroke="midnightblue" d="M198.36,-280.39C217.84,-272.22 240.09,-260.27 256,-244 268.81,-230.89 277.12,-211.48 281.88,-197.28"/>
<polygon fill="midnightblue" stroke="midnightblue" points="285.25,-198.22 284.84,-187.63 278.56,-196.16 285.25,-198.22"/>
</g>
<!-- Node3 -->
<g id="node3" class="node">
<title>Node3</title>
<g id="a_node3"><a xlink:title=" ">
<polygon fill="none" stroke="#bfbfbf" points="33.5,-56.5 33.5,-75.5 98.5,-75.5 98.5,-56.5 33.5,-56.5"/>
<text text-anchor="middle" x="66" y="-63.5" font-family="Helvetica,sans-Serif" font-size="10.00">inttypes.h</text>
</a>
</g>
</g>
<!-- Node2&#45;&gt;Node3 -->
<g id="edge2" class="edge">
<title>Node2&#45;&gt;Node3</title>
<path fill="none" stroke="midnightblue" d="M28.11,-224.21C26.36,-203.86 23.72,-152.18 37,-112 40.35,-101.87 46.53,-91.78 52.32,-83.72"/>
<polygon fill="midnightblue" stroke="midnightblue" points="55.23,-85.67 58.53,-75.6 49.67,-81.42 55.23,-85.67"/>
</g>
<!-- Node4&#45;&gt;Node3 -->
<g id="edge4" class="edge">
<title>Node4&#45;&gt;Node3</title>
<path fill="none" stroke="midnightblue" d="M90.79,-168.41C74.15,-161.44 53.94,-149.81 44,-132 35.51,-116.79 43.9,-97.74 52.65,-84.21"/>
<polygon fill="midnightblue" stroke="midnightblue" points="55.66,-86.02 58.57,-75.83 49.94,-81.98 55.66,-86.02"/>
</g>
<!-- Node5 -->
<g id="node5" class="node">
<title>Node5</title>
<g id="a_node5"><a xlink:href="VortexConfig_8h.html" target="_top" xlink:title=" ">
<polygon fill="none" stroke="black" points="260.5,-56.5 260.5,-75.5 357.5,-75.5 357.5,-56.5 260.5,-56.5"/>
<text text-anchor="middle" x="309" y="-63.5" font-family="Helvetica,sans-Serif" font-size="10.00">../VortexConfig.h</text>
</a>
</g>
</g>
<!-- Node4&#45;&gt;Node5 -->
<g id="edge5" class="edge">
<title>Node4&#45;&gt;Node5</title>
<path fill="none" stroke="midnightblue" d="M132.07,-168.37C165.29,-149.33 245.09,-103.62 285.17,-80.65"/>
<polygon fill="midnightblue" stroke="midnightblue" points="287.07,-83.6 294,-75.59 283.59,-77.53 287.07,-83.6"/>
</g>
<!-- Node7 -->
<g id="node7" class="node">
<title>Node7</title>
<g id="a_node7"><a xlink:href="LedTypes_8h.html" target="_top" xlink:title=" ">
<polygon fill="none" stroke="black" points="53.5,-112.5 53.5,-131.5 158.5,-131.5 158.5,-112.5 53.5,-112.5"/>
<text text-anchor="middle" x="106" y="-119.5" font-family="Helvetica,sans-Serif" font-size="10.00">../Leds/LedTypes.h</text>
</a>
</g>
</g>
<!-- Node4&#45;&gt;Node7 -->
<g id="edge7" class="edge">
<title>Node4&#45;&gt;Node7</title>
<path fill="none" stroke="midnightblue" d="M115.18,-168.08C113.73,-160.93 111.63,-150.64 109.81,-141.69"/>
<polygon fill="midnightblue" stroke="midnightblue" points="113.21,-140.85 107.78,-131.75 106.35,-142.25 113.21,-140.85"/>
</g>
<!-- Node6 -->
<g id="node6" class="node">
<title>Node6</title>
<g id="a_node6"><a xlink:href="ColorConstants_8h.html" target="_top" xlink:title=" ">
<polygon fill="none" stroke="black" points="242,-0.5 242,-19.5 376,-19.5 376,-0.5 242,-0.5"/>
<text text-anchor="middle" x="309" y="-7.5" font-family="Helvetica,sans-Serif" font-size="10.00">Colors/ColorConstants.h</text>
</a>
</g>
</g>
<!-- Node5&#45;&gt;Node6 -->
<g id="edge6" class="edge">
<title>Node5&#45;&gt;Node6</title>
<path fill="none" stroke="midnightblue" d="M309,-56.08C309,-49.01 309,-38.86 309,-29.99"/>
<polygon fill="midnightblue" stroke="midnightblue" points="312.5,-29.75 309,-19.75 305.5,-29.75 312.5,-29.75"/>
</g>
<!-- Node7&#45;&gt;Node3 -->
<g id="edge8" class="edge">
<title>Node7&#45;&gt;Node3</title>
<path fill="none" stroke="midnightblue" d="M99.39,-112.08C93.74,-104.46 85.46,-93.26 78.55,-83.94"/>
<polygon fill="midnightblue" stroke="midnightblue" points="81.25,-81.7 72.48,-75.75 75.62,-85.87 81.25,-81.7"/>
</g>
<!-- Node7&#45;&gt;Node5 -->
<g id="edge10" class="edge">
<title>Node7&#45;&gt;Node5</title>
<path fill="none" stroke="midnightblue" d="M138.17,-112.44C173.06,-103.16 228.89,-88.31 267.17,-78.13"/>
<polygon fill="midnightblue" stroke="midnightblue" points="268.22,-81.47 276.98,-75.52 266.42,-74.7 268.22,-81.47"/>
</g>
<!-- Node8 -->
<g id="node8" class="node">
<title>Node8</title>
<g id="a_node8"><a xlink:title=" ">
<polygon fill="none" stroke="#bfbfbf" points="118,-56.5 118,-75.5 174,-75.5 174,-56.5 118,-56.5"/>
<text text-anchor="middle" x="146" y="-63.5" font-family="Helvetica,sans-Serif" font-size="10.00">stdarg.h</text>
</a>
</g>
</g>
<!-- Node7&#45;&gt;Node8 -->
<g id="edge9" class="edge">
<title>Node7&#45;&gt;Node8</title>
<path fill="none" stroke="midnightblue" d="M112.61,-112.08C118.26,-104.46 126.54,-93.26 133.45,-83.94"/>
<polygon fill="midnightblue" stroke="midnightblue" points="136.38,-85.87 139.52,-75.75 130.75,-81.7 136.38,-85.87"/>
</g>
<!-- Node9&#45;&gt;Node4 -->
<g id="edge12" class="edge">
<title>Node9&#45;&gt;Node4</title>
<path fill="none" stroke="midnightblue" d="M183.31,-224.32C171.1,-215.98 152.42,-203.21 138,-193.35"/>
<polygon fill="midnightblue" stroke="midnightblue" points="139.89,-190.41 129.66,-187.65 135.94,-196.19 139.89,-190.41"/>
</g>
<!-- Node9&#45;&gt;Node5 -->
<g id="edge13" class="edge">
<title>Node9&#45;&gt;Node5</title>
<path fill="none" stroke="midnightblue" d="M246.74,-224.69C295.62,-213.46 365.52,-187.97 389,-132 399.07,-108 371.88,-90.29 346.52,-79.47"/>
<polygon fill="midnightblue" stroke="midnightblue" points="347.55,-76.12 336.97,-75.66 344.96,-82.62 347.55,-76.12"/>
</g>
<!-- Node10&#45;&gt;Node5 -->
<g id="edge16" class="edge">
<title>Node10&#45;&gt;Node5</title>
<path fill="none" stroke="midnightblue" d="M322.01,-168.45C340.93,-161.84 362.68,-150.59 374,-132 386.62,-111.27 361.31,-92.24 338.69,-80.19"/>
<polygon fill="midnightblue" stroke="midnightblue" points="340.1,-76.99 329.59,-75.63 336.96,-83.24 340.1,-76.99"/>
</g>
<!-- Node10&#45;&gt;Node8 -->
<g id="edge15" class="edge">
<title>Node10&#45;&gt;Node8</title>
<path fill="none" stroke="midnightblue" d="M275.94,-168.37C251.95,-149.65 194.9,-105.15 165.01,-81.83"/>
<polygon fill="midnightblue" stroke="midnightblue" points="167.05,-78.98 157.01,-75.59 162.74,-84.5 167.05,-78.98"/>
</g>
<!-- Node11 -->
<g id="node11" class="node">
<title>Node11</title>
<g id="a_node11"><a xlink:href="ErrorBlinker_8h.html" target="_top" xlink:title=" ">
<polygon fill="none" stroke="black" points="253.5,-112.5 253.5,-131.5 364.5,-131.5 364.5,-112.5 253.5,-112.5"/>
<text text-anchor="middle" x="309" y="-119.5" font-family="Helvetica,sans-Serif" font-size="10.00">../Log/ErrorBlinker.h</text>
</a>
</g>
</g>
<!-- Node10&#45;&gt;Node11 -->
<g id="edge17" class="edge">
<title>Node10&#45;&gt;Node11</title>
<path fill="none" stroke="midnightblue" d="M290.63,-168.08C293.61,-160.77 297.93,-150.18 301.62,-141.1"/>
<polygon fill="midnightblue" stroke="midnightblue" points="304.9,-142.33 305.43,-131.75 298.42,-139.69 304.9,-142.33"/>
</g>
<!-- Node11&#45;&gt;Node3 -->
<g id="edge18" class="edge">
<title>Node11&#45;&gt;Node3</title>
<path fill="none" stroke="midnightblue" d="M270.5,-112.44C226.45,-102.66 154.54,-86.67 108.78,-76.51"/>
<polygon fill="midnightblue" stroke="midnightblue" points="109.39,-73.06 98.87,-74.3 107.87,-79.89 109.39,-73.06"/>
</g>
<!-- Node11&#45;&gt;Node5 -->
<g id="edge19" class="edge">
<title>Node11&#45;&gt;Node5</title>
<path fill="none" stroke="midnightblue" d="M309,-112.08C309,-105.01 309,-94.86 309,-85.99"/>
<polygon fill="midnightblue" stroke="midnightblue" points="312.5,-85.75 309,-75.75 305.5,-85.75 312.5,-85.75"/>
</g>
</g>
</svg>
