<?xml version="1.0" encoding="UTF-8" standalone="no"?>
<!DOCTYPE svg PUBLIC "-//W3C//DTD SVG 1.1//EN"
 "http://www.w3.org/Graphics/SVG/1.1/DTD/svg11.dtd">
<!-- Generated by graphviz version 2.43.0 (0)
 -->
<!-- Title: VortexEngine/src/Buttons/Button.cpp Pages: 1 -->
<!--zoomable 319 -->
<svg id="main" version="1.1" xmlns="http://www.w3.org/2000/svg" xmlns:xlink="http://www.w3.org/1999/xlink" xml:space="preserve" onload="init(evt)">
<style type="text/css"><![CDATA[
.edge:hover path { stroke: red; }
.edge:hover polygon { stroke: red; fill: red; }
]]></style>
<script type="text/javascript"><![CDATA[
var edges = document.getElementsByTagName('g');
if (edges && edges.length) {
  for (var i=0;i<edges.length;i++) {
    if (edges[i].id.substr(0,4)=='edge') {
      edges[i].setAttribute('class','edge');
    }
  }
}
]]></script>
        <defs>
                <circle id="rim" cx="0" cy="0" r="7"/>
                <circle id="rim2" cx="0" cy="0" r="3.5"/>
                <g id="zoomPlus">
                        <use xlink:href="#rim" fill="#404040">
                                <set attributeName="fill" to="#808080" begin="zoomplus.mouseover" end="zoomplus.mouseout"/>
                        </use>
                        <path d="M-4,0h8M0,-4v8" fill="none" stroke="white" stroke-width="1.5" pointer-events="none"/>
                </g>
                <g id="zoomMin">
                        <use xlink:href="#rim" fill="#404040">
                                <set attributeName="fill" to="#808080" begin="zoomminus.mouseover" end="zoomminus.mouseout"/>
                        </use>
                        <path d="M-4,0h8" fill="none" stroke="white" stroke-width="1.5" pointer-events="none"/>
                </g>
                <g id="dirArrow">
                        <path fill="none" stroke="white" stroke-width="1.5" d="M0,-3.0v7 M-2.5,-0.5L0,-3.0L2.5,-0.5"/>
                </g>
               <g id="resetDef">
                       <use xlink:href="#rim2" fill="#404040">
                               <set attributeName="fill" to="#808080" begin="reset.mouseover" end="reset.mouseout"/>
                       </use>
               </g>
        </defs>

<script type="text/javascript">
var viewWidth = 636;
var viewHeight = 319;
var sectionId = 'dynsection-0';
</script>
<script xlink:href="svgpan.js"/>
<svg id="graph" class="graph">
<g id="viewport">
<title>VortexEngine/src/Buttons/Button.cpp</title>
<!-- Node1 -->
<g id="node1" class="node">
<title>Node1</title>
<g id="a_node1"><a xlink:title=" ">
<polygon fill="#bfbfbf" stroke="black" points="293.5,-280.5 293.5,-310.5 432.5,-310.5 432.5,-280.5 293.5,-280.5"/>
<text text-anchor="start" x="301.5" y="-298.5" font-family="Helvetica,sans-Serif" font-size="10.00">VortexEngine/src/Buttons</text>
<text text-anchor="middle" x="363" y="-287.5" font-family="Helvetica,sans-Serif" font-size="10.00">/Button.cpp</text>
</a>
</g>
</g>
<!-- Node2 -->
<g id="node2" class="node">
<title>Node2</title>
<g id="a_node2"><a xlink:href="Button_8h.html" target="_top" xlink:title=" ">
<polygon fill="none" stroke="black" points="0,-112.5 0,-131.5 58,-131.5 58,-112.5 0,-112.5"/>
<text text-anchor="middle" x="29" y="-119.5" font-family="Helvetica,sans-Serif" font-size="10.00">Button.h</text>
</a>
</g>
</g>
<!-- Node1&#45;&gt;Node2 -->
<g id="edge1" class="edge">
<title>Node1&#45;&gt;Node2</title>
<path fill="none" stroke="midnightblue" d="M333.59,-280.34C312.94,-270.33 284.69,-256.52 260,-244 184.51,-205.73 96.09,-158.83 53.88,-136.31"/>
<polygon fill="midnightblue" stroke="midnightblue" points="55.36,-133.13 44.89,-131.51 52.06,-139.31 55.36,-133.13"/>
</g>
<!-- Node6 -->
<g id="node6" class="node">
<title>Node6</title>
<g id="a_node6"><a xlink:href="TimeControl_8h.html" target="_top" xlink:title=" ">
<polygon fill="none" stroke="black" points="223,-168.5 223,-187.5 345,-187.5 345,-168.5 223,-168.5"/>
<text text-anchor="middle" x="284" y="-175.5" font-family="Helvetica,sans-Serif" font-size="10.00">../Time/TimeControl.h</text>
</a>
</g>
</g>
<!-- Node1&#45;&gt;Node6 -->
<g id="edge5" class="edge">
<title>Node1&#45;&gt;Node6</title>
<path fill="none" stroke="midnightblue" d="M341.18,-280.49C328.68,-271.45 313.62,-258.65 304,-244 294.79,-229.96 289.64,-211.47 286.88,-197.8"/>
<polygon fill="midnightblue" stroke="midnightblue" points="290.28,-196.89 285.09,-187.65 283.38,-198.11 290.28,-196.89"/>
</g>
<!-- Node9 -->
<g id="node9" class="node">
<title>Node9</title>
<g id="a_node9"><a xlink:href="Timings_8h.html" target="_top" xlink:title=" ">
<polygon fill="none" stroke="black" points="312.5,-224.5 312.5,-243.5 413.5,-243.5 413.5,-224.5 312.5,-224.5"/>
<text text-anchor="middle" x="363" y="-231.5" font-family="Helvetica,sans-Serif" font-size="10.00">../Time/Timings.h</text>
</a>
</g>
</g>
<!-- Node1&#45;&gt;Node9 -->
<g id="edge12" class="edge">
<title>Node1&#45;&gt;Node9</title>
<path fill="none" stroke="midnightblue" d="M363,-280.4C363,-272.47 363,-262.46 363,-253.86"/>
<polygon fill="midnightblue" stroke="midnightblue" points="366.5,-253.66 363,-243.66 359.5,-253.66 366.5,-253.66"/>
</g>
<!-- Node10 -->
<g id="node10" class="node">
<title>Node10</title>
<g id="a_node10"><a xlink:href="Log_8h.html" target="_top" xlink:title=" ">
<polygon fill="none" stroke="black" points="432,-112.5 432,-131.5 504,-131.5 504,-112.5 432,-112.5"/>
<text text-anchor="middle" x="468" y="-119.5" font-family="Helvetica,sans-Serif" font-size="10.00">../Log/Log.h</text>
</a>
</g>
</g>
<!-- Node1&#45;&gt;Node10 -->
<g id="edge15" class="edge">
<title>Node1&#45;&gt;Node10</title>
<path fill="none" stroke="midnightblue" d="M384.89,-280.36C397.49,-271.27 412.81,-258.47 423,-244 445.72,-211.74 458.47,-166.63 464.22,-141.6"/>
<polygon fill="midnightblue" stroke="midnightblue" points="467.68,-142.14 466.38,-131.63 460.84,-140.66 467.68,-142.14"/>
</g>
<!-- Node11 -->
<g id="node11" class="node">
<title>Node11</title>
<g id="a_node11"><a xlink:href="VortexEngine_8h.html" target="_top" xlink:title=" ">
<polygon fill="none" stroke="black" points="76.5,-112.5 76.5,-131.5 175.5,-131.5 175.5,-112.5 76.5,-112.5"/>
<text text-anchor="middle" x="126" y="-119.5" font-family="Helvetica,sans-Serif" font-size="10.00">../VortexEngine.h</text>
</a>
</g>
</g>
<!-- Node1&#45;&gt;Node11 -->
<g id="edge18" class="edge">
<title>Node1&#45;&gt;Node11</title>
<path fill="none" stroke="midnightblue" d="M342.12,-280.3C327.46,-270.27 307.43,-256.45 290,-244 237.32,-206.38 176.18,-160.74 145.58,-137.75"/>
<polygon fill="midnightblue" stroke="midnightblue" points="147.54,-134.85 137.44,-131.63 143.33,-140.44 147.54,-134.85"/>
</g>
<!-- Node12 -->
<g id="node12" class="node">
<title>Node12</title>
<g id="a_node12"><a xlink:title=" ">
<polygon fill="none" stroke="#bfbfbf" points="470,-224.5 470,-243.5 556,-243.5 556,-224.5 470,-224.5"/>
<text text-anchor="middle" x="513" y="-231.5" font-family="Helvetica,sans-Serif" font-size="10.00">avr/interrupt.h</text>
</a>
</g>
</g>
<!-- Node1&#45;&gt;Node12 -->
<g id="edge21" class="edge">
<title>Node1&#45;&gt;Node12</title>
<path fill="none" stroke="midnightblue" d="M398.55,-280.4C423.83,-270.37 457.47,-257.03 481.73,-247.4"/>
<polygon fill="midnightblue" stroke="midnightblue" points="483.17,-250.6 491.17,-243.66 480.59,-244.09 483.17,-250.6"/>
</g>
<!-- Node13 -->
<g id="node13" class="node">
<title>Node13</title>
<g id="a_node13"><a xlink:title=" ">
<polygon fill="none" stroke="#bfbfbf" points="574.5,-224.5 574.5,-243.5 627.5,-243.5 627.5,-224.5 574.5,-224.5"/>
<text text-anchor="middle" x="601" y="-231.5" font-family="Helvetica,sans-Serif" font-size="10.00">avr/io.h</text>
</a>
</g>
</g>
<!-- Node1&#45;&gt;Node13 -->
<g id="edge22" class="edge">
<title>Node1&#45;&gt;Node13</title>
<path fill="none" stroke="midnightblue" d="M419.1,-280.47C464.01,-269.25 525.7,-253.83 564.45,-244.14"/>
<polygon fill="midnightblue" stroke="midnightblue" points="565.4,-247.51 574.26,-241.69 563.71,-240.72 565.4,-247.51"/>
</g>
<!-- Node3 -->
<g id="node3" class="node">
<title>Node3</title>
<g id="a_node3"><a xlink:title=" ">
<polygon fill="none" stroke="#bfbfbf" points="135.5,-56.5 135.5,-75.5 200.5,-75.5 200.5,-56.5 135.5,-56.5"/>
<text text-anchor="middle" x="168" y="-63.5" font-family="Helvetica,sans-Serif" font-size="10.00">inttypes.h</text>
</a>
</g>
</g>
<!-- Node2&#45;&gt;Node3 -->
<g id="edge2" class="edge">
<title>Node2&#45;&gt;Node3</title>
<path fill="none" stroke="midnightblue" d="M51.02,-112.44C74.1,-103.48 110.56,-89.31 136.64,-79.18"/>
<polygon fill="midnightblue" stroke="midnightblue" points="138.02,-82.4 146.08,-75.52 135.49,-75.88 138.02,-82.4"/>
</g>
<!-- Node4 -->
<g id="node4" class="node">
<title>Node4</title>
<g id="a_node4"><a xlink:href="VortexConfig_8h.html" target="_top" xlink:title=" ">
<polygon fill="none" stroke="black" points="226.5,-56.5 226.5,-75.5 323.5,-75.5 323.5,-56.5 226.5,-56.5"/>
<text text-anchor="middle" x="275" y="-63.5" font-family="Helvetica,sans-Serif" font-size="10.00">../VortexConfig.h</text>
</a>
</g>
</g>
<!-- Node2&#45;&gt;Node4 -->
<g id="edge3" class="edge">
<title>Node2&#45;&gt;Node4</title>
<path fill="none" stroke="midnightblue" d="M58.03,-114.06C61.06,-113.36 64.09,-112.66 67,-112 120.59,-99.86 182.13,-86.63 224.28,-77.68"/>
<polygon fill="midnightblue" stroke="midnightblue" points="225.24,-81.06 234.29,-75.56 223.79,-74.21 225.24,-81.06"/>
</g>
<!-- Node5 -->
<g id="node5" class="node">
<title>Node5</title>
<g id="a_node5"><a xlink:href="ColorConstants_8h.html" target="_top" xlink:title=" ">
<polygon fill="none" stroke="black" points="208,-0.5 208,-19.5 342,-19.5 342,-0.5 208,-0.5"/>
<text text-anchor="middle" x="275" y="-7.5" font-family="Helvetica,sans-Serif" font-size="10.00">Colors/ColorConstants.h</text>
</a>
</g>
</g>
<!-- Node4&#45;&gt;Node5 -->
<g id="edge4" class="edge">
<title>Node4&#45;&gt;Node5</title>
<path fill="none" stroke="midnightblue" d="M275,-56.08C275,-49.01 275,-38.86 275,-29.99"/>
<polygon fill="midnightblue" stroke="midnightblue" points="278.5,-29.75 275,-19.75 271.5,-29.75 278.5,-29.75"/>
</g>
<!-- Node6&#45;&gt;Node3 -->
<g id="edge6" class="edge">
<title>Node6&#45;&gt;Node3</title>
<path fill="none" stroke="midnightblue" d="M274.9,-168.37C255.42,-149.89 209.44,-106.29 184.6,-82.74"/>
<polygon fill="midnightblue" stroke="midnightblue" points="186.72,-79.93 177.06,-75.59 181.91,-85.01 186.72,-79.93"/>
</g>
<!-- Node6&#45;&gt;Node4 -->
<g id="edge7" class="edge">
<title>Node6&#45;&gt;Node4</title>
<path fill="none" stroke="midnightblue" d="M278.36,-168.48C272.95,-159.74 265.14,-145.56 262,-132 258.39,-116.41 262.54,-98.58 267.08,-85.54"/>
<polygon fill="midnightblue" stroke="midnightblue" points="270.48,-86.46 270.83,-75.87 263.95,-83.93 270.48,-86.46"/>
</g>
<!-- Node7 -->
<g id="node7" class="node">
<title>Node7</title>
<g id="a_node7"><a xlink:href="LedTypes_8h.html" target="_top" xlink:title=" ">
<polygon fill="none" stroke="black" points="270.5,-112.5 270.5,-131.5 375.5,-131.5 375.5,-112.5 270.5,-112.5"/>
<text text-anchor="middle" x="323" y="-119.5" font-family="Helvetica,sans-Serif" font-size="10.00">../Leds/LedTypes.h</text>
</a>
</g>
</g>
<!-- Node6&#45;&gt;Node7 -->
<g id="edge8" class="edge">
<title>Node6&#45;&gt;Node7</title>
<path fill="none" stroke="midnightblue" d="M290.44,-168.08C295.95,-160.46 304.03,-149.26 310.76,-139.94"/>
<polygon fill="midnightblue" stroke="midnightblue" points="313.66,-141.91 316.68,-131.75 307.99,-137.81 313.66,-141.91"/>
</g>
<!-- Node7&#45;&gt;Node3 -->
<g id="edge9" class="edge">
<title>Node7&#45;&gt;Node3</title>
<path fill="none" stroke="midnightblue" d="M298.44,-112.44C272.48,-103.4 231.33,-89.06 202.2,-78.92"/>
<polygon fill="midnightblue" stroke="midnightblue" points="203.04,-75.5 192.45,-75.52 200.74,-82.11 203.04,-75.5"/>
</g>
<!-- Node7&#45;&gt;Node4 -->
<g id="edge11" class="edge">
<title>Node7&#45;&gt;Node4</title>
<path fill="none" stroke="midnightblue" d="M315.07,-112.08C308.15,-104.3 297.93,-92.8 289.55,-83.37"/>
<polygon fill="midnightblue" stroke="midnightblue" points="292.04,-80.9 282.78,-75.75 286.81,-85.55 292.04,-80.9"/>
</g>
<!-- Node8 -->
<g id="node8" class="node">
<title>Node8</title>
<g id="a_node8"><a xlink:title=" ">
<polygon fill="none" stroke="#bfbfbf" points="407,-56.5 407,-75.5 463,-75.5 463,-56.5 407,-56.5"/>
<text text-anchor="middle" x="435" y="-63.5" font-family="Helvetica,sans-Serif" font-size="10.00">stdarg.h</text>
</a>
</g>
</g>
<!-- Node7&#45;&gt;Node8 -->
<g id="edge10" class="edge">
<title>Node7&#45;&gt;Node8</title>
<path fill="none" stroke="midnightblue" d="M340.99,-112.32C359.04,-103.62 387.05,-90.12 407.8,-80.11"/>
<polygon fill="midnightblue" stroke="midnightblue" points="409.56,-83.15 417.05,-75.65 406.52,-76.84 409.56,-83.15"/>
</g>
<!-- Node9&#45;&gt;Node4 -->
<g id="edge14" class="edge">
<title>Node9&#45;&gt;Node4</title>
<path fill="none" stroke="midnightblue" d="M368.54,-224.22C381.17,-202.99 409.16,-147.99 385,-112 373.19,-94.41 353.15,-83.69 333.39,-77.16"/>
<polygon fill="midnightblue" stroke="midnightblue" points="334.33,-73.79 323.75,-74.28 332.33,-80.49 334.33,-73.79"/>
</g>
<!-- Node9&#45;&gt;Node6 -->
<g id="edge13" class="edge">
<title>Node9&#45;&gt;Node6</title>
<path fill="none" stroke="midnightblue" d="M350.31,-224.32C338.1,-215.98 319.42,-203.21 305,-193.35"/>
<polygon fill="midnightblue" stroke="midnightblue" points="306.89,-190.41 296.66,-187.65 302.94,-196.19 306.89,-190.41"/>
</g>
<!-- Node10&#45;&gt;Node4 -->
<g id="edge17" class="edge">
<title>Node10&#45;&gt;Node4</title>
<path fill="none" stroke="midnightblue" d="M437.42,-112.44C404.39,-103.2 351.61,-88.44 315.23,-78.26"/>
<polygon fill="midnightblue" stroke="midnightblue" points="316.01,-74.84 305.44,-75.52 314.13,-81.58 316.01,-74.84"/>
</g>
<!-- Node10&#45;&gt;Node8 -->
<g id="edge16" class="edge">
<title>Node10&#45;&gt;Node8</title>
<path fill="none" stroke="midnightblue" d="M462.55,-112.08C457.99,-104.61 451.33,-93.72 445.71,-84.52"/>
<polygon fill="midnightblue" stroke="midnightblue" points="448.55,-82.46 440.35,-75.75 442.58,-86.11 448.55,-82.46"/>
</g>
<!-- Node11&#45;&gt;Node3 -->
<g id="edge19" class="edge">
<title>Node11&#45;&gt;Node3</title>
<path fill="none" stroke="midnightblue" d="M132.94,-112.08C138.93,-104.38 147.75,-93.03 155.05,-83.65"/>
<polygon fill="midnightblue" stroke="midnightblue" points="157.82,-85.79 161.19,-75.75 152.29,-81.5 157.82,-85.79"/>
</g>
<!-- Node11&#45;&gt;Node4 -->
<g id="edge20" class="edge">
<title>Node11&#45;&gt;Node4</title>
<path fill="none" stroke="midnightblue" d="M149.61,-112.44C174.46,-103.44 213.77,-89.19 241.75,-79.05"/>
<polygon fill="midnightblue" stroke="midnightblue" points="243.29,-82.21 251.5,-75.52 240.91,-75.63 243.29,-82.21"/>
</g>
</g>
</svg>
        <g id="navigator" transform="translate(0 0)" fill="#404254">
                <rect fill="#f2f5e9" fill-opacity="0.5" stroke="#606060" stroke-width=".5" x="0" y="0" width="60" height="60"/>
                <use id="zoomplus" xlink:href="#zoomPlus" x="17" y="9" onmousedown="handleZoom(evt,'in')"/>
                <use id="zoomminus" xlink:href="#zoomMin" x="42" y="9" onmousedown="handleZoom(evt,'out')"/>
                <use id="reset" xlink:href="#resetDef" x="30" y="36" onmousedown="handleReset()"/>
                <g id="arrowUp" xlink:href="#dirArrow" transform="translate(30 24)" onmousedown="handlePan(0,-1)">
                  <use xlink:href="#rim" fill="#404040">
                        <set attributeName="fill" to="#808080" begin="arrowUp.mouseover" end="arrowUp.mouseout"/>
                  </use>
                  <path fill="none" stroke="white" stroke-width="1.5" d="M0,-3.0v7 M-2.5,-0.5L0,-3.0L2.5,-0.5"/>
                </g>
                <g id="arrowRight" xlink:href="#dirArrow" transform="rotate(90) translate(36 -43)" onmousedown="handlePan(1,0)">
                  <use xlink:href="#rim" fill="#404040">
                        <set attributeName="fill" to="#808080" begin="arrowRight.mouseover" end="arrowRight.mouseout"/>
                  </use>
                  <path fill="none" stroke="white" stroke-width="1.5" d="M0,-3.0v7 M-2.5,-0.5L0,-3.0L2.5,-0.5"/>
                </g>
                <g id="arrowDown" xlink:href="#dirArrow" transform="rotate(180) translate(-30 -48)" onmousedown="handlePan(0,1)">
                  <use xlink:href="#rim" fill="#404040">
                        <set attributeName="fill" to="#808080" begin="arrowDown.mouseover" end="arrowDown.mouseout"/>
                  </use>
                  <path fill="none" stroke="white" stroke-width="1.5" d="M0,-3.0v7 M-2.5,-0.5L0,-3.0L2.5,-0.5"/>
                </g>
                <g id="arrowLeft" xlink:href="#dirArrow" transform="rotate(270) translate(-36 17)" onmousedown="handlePan(-1,0)">
                  <use xlink:href="#rim" fill="#404040">
                        <set attributeName="fill" to="#808080" begin="arrowLeft.mouseover" end="arrowLeft.mouseout"/>
                  </use>
                  <path fill="none" stroke="white" stroke-width="1.5" d="M0,-3.0v7 M-2.5,-0.5L0,-3.0L2.5,-0.5"/>
                </g>
        </g>
        <svg viewBox="0 0 15 15" width="100%" height="30px" preserveAspectRatio="xMaxYMin meet">
         <g id="arrow_out" transform="scale(0.3 0.3)">
          <a xlink:href="Button_8cpp__incl_org.svg" target="_base">
           <rect id="button" ry="5" rx="5" y="6" x="6" height="38" width="38"
                fill="#f2f5e9" fill-opacity="0.5" stroke="#606060" stroke-width="1.0"/>
           <path id="arrow"
             d="M 11.500037,31.436501 C 11.940474,20.09759 22.043105,11.32322 32.158766,21.979434 L 37.068811,17.246167 C 37.068811,17.246167 37.088388,32 37.088388,32 L 22.160133,31.978069 C 22.160133,31.978069 26.997745,27.140456 26.997745,27.140456 C 18.528582,18.264221 13.291696,25.230495 11.500037,31.436501 z"
             style="fill:#404040;"/>
          </a>
         </g>
        </svg>
</svg>
