<?xml version="1.0" encoding="UTF-8" standalone="no"?>
<!DOCTYPE svg PUBLIC "-//W3C//DTD SVG 1.1//EN"
 "http://www.w3.org/Graphics/SVG/1.1/DTD/svg11.dtd">
<!-- Generated by graphviz version 2.43.0 (0)
 -->
<!-- Title: VortexEngine/src/Serial/ByteStream.h Pages: 1 -->
<svg width="5004pt" height="173pt"
 viewBox="0.00 0.00 5004.00 173.00" xmlns="http://www.w3.org/2000/svg" xmlns:xlink="http://www.w3.org/1999/xlink">
<g id="graph0" class="graph" transform="scale(1 1) rotate(0) translate(4 169)">
<title>VortexEngine/src/Serial/ByteStream.h</title>
<!-- Node1 -->
<g id="node1" class="node">
<title>Node1</title>
<g id="a_node1"><a xlink:title=" ">
<polygon fill="#bfbfbf" stroke="black" points="2195,-134.5 2195,-164.5 2324,-164.5 2324,-134.5 2195,-134.5"/>
<text text-anchor="start" x="2203" y="-152.5" font-family="Helvetica,sans-Serif" font-size="10.00">VortexEngine/src/Serial</text>
<text text-anchor="middle" x="2259.5" y="-141.5" font-family="Helvetica,sans-Serif" font-size="10.00">/ByteStream.h</text>
</a>
</g>
</g>
<!-- Node2 -->
<g id="node2" class="node">
<title>Node2</title>
<g id="a_node2"><a xlink:href="Colorset_8cpp.html" target="_top" xlink:title=" ">
<polygon fill="none" stroke="black" points="177.5,-67.5 177.5,-97.5 309.5,-97.5 309.5,-67.5 177.5,-67.5"/>
<text text-anchor="start" x="185.5" y="-85.5" font-family="Helvetica,sans-Serif" font-size="10.00">VortexEngine/src/Colors</text>
<text text-anchor="middle" x="243.5" y="-74.5" font-family="Helvetica,sans-Serif" font-size="10.00">/Colorset.cpp</text>
</a>
</g>
</g>
<!-- Node1&#45;&gt;Node2 -->
<g id="edge1" class="edge">
<title>Node1&#45;&gt;Node2</title>
<path fill="none" stroke="midnightblue" d="M2184.44,-148.2C1874.1,-146.72 690.02,-138.47 318.5,-98 315.6,-97.68 312.64,-97.32 309.66,-96.91"/>
<polygon fill="midnightblue" stroke="midnightblue" points="2184.66,-151.7 2194.68,-148.25 2184.69,-144.7 2184.66,-151.7"/>
</g>
<!-- Node3 -->
<g id="node3" class="node">
<title>Node3</title>
<g id="a_node3"><a xlink:href="ColorTypes_8cpp.html" target="_top" xlink:title=" ">
<polygon fill="none" stroke="black" points="327.5,-67.5 327.5,-97.5 459.5,-97.5 459.5,-67.5 327.5,-67.5"/>
<text text-anchor="start" x="335.5" y="-85.5" font-family="Helvetica,sans-Serif" font-size="10.00">VortexEngine/src/Colors</text>
<text text-anchor="middle" x="393.5" y="-74.5" font-family="Helvetica,sans-Serif" font-size="10.00">/ColorTypes.cpp</text>
</a>
</g>
</g>
<!-- Node1&#45;&gt;Node3 -->
<g id="edge2" class="edge">
<title>Node1&#45;&gt;Node3</title>
<path fill="none" stroke="midnightblue" d="M2184.67,-147.89C1890.53,-145.27 813.28,-133.39 473.5,-98 469.01,-97.53 464.39,-96.95 459.74,-96.3"/>
<polygon fill="midnightblue" stroke="midnightblue" points="2184.77,-151.39 2194.8,-147.98 2184.83,-144.39 2184.77,-151.39"/>
</g>
<!-- Node4 -->
<g id="node4" class="node">
<title>Node4</title>
<g id="a_node4"><a xlink:href="EditorConnection_8cpp.html" target="_top" xlink:title=" ">
<polygon fill="none" stroke="black" points="161.5,-0.5 161.5,-30.5 331.5,-30.5 331.5,-0.5 161.5,-0.5"/>
<text text-anchor="start" x="169.5" y="-18.5" font-family="Helvetica,sans-Serif" font-size="10.00">VortexEngine/src/Menus</text>
<text text-anchor="middle" x="246.5" y="-7.5" font-family="Helvetica,sans-Serif" font-size="10.00">/MenuList/EditorConnection.cpp</text>
</a>
</g>
</g>
<!-- Node1&#45;&gt;Node4 -->
<g id="edge3" class="edge">
<title>Node1&#45;&gt;Node4</title>
<path fill="none" stroke="midnightblue" d="M2184.74,-147.69C1860.19,-144 586.13,-127.66 506.5,-98 486.07,-90.39 488.09,-76.56 468.5,-67 443.46,-54.78 378.65,-40.7 325.49,-30.52"/>
<polygon fill="midnightblue" stroke="midnightblue" points="2184.93,-151.19 2194.97,-147.8 2185.01,-144.19 2184.93,-151.19"/>
</g>
<!-- Node5 -->
<g id="node5" class="node">
<title>Node5</title>
<g id="a_node5"><a xlink:href="EditorConnection_8h.html" target="_top" xlink:title=" ">
<polygon fill="none" stroke="black" points="677,-67.5 677,-97.5 836,-97.5 836,-67.5 677,-67.5"/>
<text text-anchor="start" x="685" y="-85.5" font-family="Helvetica,sans-Serif" font-size="10.00">VortexEngine/src/Menus</text>
<text text-anchor="middle" x="756.5" y="-74.5" font-family="Helvetica,sans-Serif" font-size="10.00">/MenuList/EditorConnection.h</text>
</a>
</g>
</g>
<!-- Node1&#45;&gt;Node5 -->
<g id="edge4" class="edge">
<title>Node1&#45;&gt;Node5</title>
<path fill="none" stroke="midnightblue" d="M2184.65,-148.94C1973.96,-149.52 1358.11,-146.58 849.5,-98 845.11,-97.58 840.61,-97.09 836.07,-96.54"/>
<polygon fill="midnightblue" stroke="midnightblue" points="2184.68,-152.44 2194.67,-148.91 2184.66,-145.44 2184.68,-152.44"/>
</g>
<!-- Node7 -->
<g id="node7" class="node">
<title>Node7</title>
<g id="a_node7"><a xlink:href="ModeSharing_8cpp.html" target="_top" xlink:title=" ">
<polygon fill="none" stroke="black" points="350,-0.5 350,-30.5 501,-30.5 501,-0.5 350,-0.5"/>
<text text-anchor="start" x="358" y="-18.5" font-family="Helvetica,sans-Serif" font-size="10.00">VortexEngine/src/Menus</text>
<text text-anchor="middle" x="425.5" y="-7.5" font-family="Helvetica,sans-Serif" font-size="10.00">/MenuList/ModeSharing.cpp</text>
</a>
</g>
</g>
<!-- Node1&#45;&gt;Node7 -->
<g id="edge7" class="edge">
<title>Node1&#45;&gt;Node7</title>
<path fill="none" stroke="midnightblue" d="M2184.9,-148.53C1915.79,-148.27 1004.4,-143.95 882.5,-98 862.1,-90.31 864.61,-75.4 844.5,-67 706.74,-9.43 658.38,-51.56 510.5,-31 507.39,-30.57 504.21,-30.11 501.01,-29.63"/>
<polygon fill="midnightblue" stroke="midnightblue" points="2184.96,-152.03 2194.96,-148.54 2184.96,-145.03 2184.96,-152.03"/>
</g>
<!-- Node8 -->
<g id="node8" class="node">
<title>Node8</title>
<g id="a_node8"><a xlink:href="PatternSelect_8cpp.html" target="_top" xlink:title=" ">
<polygon fill="none" stroke="black" points="1037.5,-0.5 1037.5,-30.5 1189.5,-30.5 1189.5,-0.5 1037.5,-0.5"/>
<text text-anchor="start" x="1045.5" y="-18.5" font-family="Helvetica,sans-Serif" font-size="10.00">VortexEngine/src/Menus</text>
<text text-anchor="middle" x="1113.5" y="-7.5" font-family="Helvetica,sans-Serif" font-size="10.00">/MenuList/PatternSelect.cpp</text>
</a>
</g>
</g>
<!-- Node1&#45;&gt;Node8 -->
<g id="edge8" class="edge">
<title>Node1&#45;&gt;Node8</title>
<path fill="none" stroke="midnightblue" d="M2184.74,-147.42C1941.1,-143.6 1183.24,-129.24 1141.5,-98 1120.42,-82.22 1115.09,-49.62 1113.82,-30.78"/>
<polygon fill="midnightblue" stroke="midnightblue" points="2184.86,-150.92 2194.92,-147.58 2184.97,-143.92 2184.86,-150.92"/>
</g>
<!-- Node9 -->
<g id="node9" class="node">
<title>Node9</title>
<g id="a_node9"><a xlink:href="Mode_8cpp.html" target="_top" xlink:title=" ">
<polygon fill="none" stroke="black" points="1352.5,-67.5 1352.5,-97.5 1486.5,-97.5 1486.5,-67.5 1352.5,-67.5"/>
<text text-anchor="start" x="1360.5" y="-85.5" font-family="Helvetica,sans-Serif" font-size="10.00">VortexEngine/src/Modes</text>
<text text-anchor="middle" x="1419.5" y="-74.5" font-family="Helvetica,sans-Serif" font-size="10.00">/Mode.cpp</text>
</a>
</g>
</g>
<!-- Node1&#45;&gt;Node9 -->
<g id="edge9" class="edge">
<title>Node1&#45;&gt;Node9</title>
<path fill="none" stroke="midnightblue" d="M2184.56,-146.52C2047.51,-142.25 1747.44,-129.81 1496.5,-98 1493.26,-97.59 1489.95,-97.13 1486.62,-96.63"/>
<polygon fill="midnightblue" stroke="midnightblue" points="2184.84,-150.03 2194.94,-146.84 2185.05,-143.04 2184.84,-150.03"/>
</g>
<!-- Node10 -->
<g id="node10" class="node">
<title>Node10</title>
<g id="a_node10"><a xlink:href="Modes_8cpp.html" target="_top" xlink:title=" ">
<polygon fill="none" stroke="black" points="1207.5,-0.5 1207.5,-30.5 1341.5,-30.5 1341.5,-0.5 1207.5,-0.5"/>
<text text-anchor="start" x="1215.5" y="-18.5" font-family="Helvetica,sans-Serif" font-size="10.00">VortexEngine/src/Modes</text>
<text text-anchor="middle" x="1274.5" y="-7.5" font-family="Helvetica,sans-Serif" font-size="10.00">/Modes.cpp</text>
</a>
</g>
</g>
<!-- Node1&#45;&gt;Node10 -->
<g id="edge10" class="edge">
<title>Node1&#45;&gt;Node10</title>
<path fill="none" stroke="midnightblue" d="M2184.68,-147.89C1941.83,-145.54 1189.11,-135.27 1153.5,-98 1125.94,-69.16 1178.09,-44.96 1222.31,-30.6"/>
<polygon fill="midnightblue" stroke="midnightblue" points="2184.8,-151.39 2194.83,-147.98 2184.86,-144.39 2184.8,-151.39"/>
</g>
<!-- Node11 -->
<g id="node11" class="node">
<title>Node11</title>
<g id="a_node11"><a xlink:href="Modes_8h.html" target="_top" xlink:title=" ">
<polygon fill="none" stroke="black" points="1162.5,-67.5 1162.5,-97.5 1296.5,-97.5 1296.5,-67.5 1162.5,-67.5"/>
<text text-anchor="start" x="1170.5" y="-85.5" font-family="Helvetica,sans-Serif" font-size="10.00">VortexEngine/src/Modes</text>
<text text-anchor="middle" x="1229.5" y="-74.5" font-family="Helvetica,sans-Serif" font-size="10.00">/Modes.h</text>
</a>
</g>
</g>
<!-- Node1&#45;&gt;Node11 -->
<g id="edge11" class="edge">
<title>Node1&#45;&gt;Node11</title>
<path fill="none" stroke="midnightblue" d="M2184.58,-147.67C2023.9,-145.18 1634.46,-135.47 1310.5,-98 1305.96,-97.47 1301.29,-96.85 1296.59,-96.17"/>
<polygon fill="midnightblue" stroke="midnightblue" points="2184.78,-151.17 2194.83,-147.82 2184.88,-144.17 2184.78,-151.17"/>
</g>
<!-- Node19 -->
<g id="node19" class="node">
<title>Node19</title>
<g id="a_node19"><a xlink:href="VortexLib_8cpp.html" target="_top" xlink:title=" ">
<polygon fill="none" stroke="black" points="2485.5,-0.5 2485.5,-30.5 2615.5,-30.5 2615.5,-0.5 2485.5,-0.5"/>
<text text-anchor="start" x="2493.5" y="-18.5" font-family="Helvetica,sans-Serif" font-size="10.00">VortexEngine/VortexLib</text>
<text text-anchor="middle" x="2550.5" y="-7.5" font-family="Helvetica,sans-Serif" font-size="10.00">/VortexLib.cpp</text>
</a>
</g>
</g>
<!-- Node1&#45;&gt;Node19 -->
<g id="edge56" class="edge">
<title>Node1&#45;&gt;Node19</title>
<path fill="none" stroke="midnightblue" d="M2184.74,-147.15C1971.26,-142.92 1372.26,-128.39 1343.5,-98 1334.03,-87.99 1333.91,-76.9 1343.5,-67 1387.32,-21.77 2413.92,-38.08 2476.5,-31 2479.36,-30.68 2482.28,-30.3 2485.22,-29.89"/>
<polygon fill="midnightblue" stroke="midnightblue" points="2184.85,-150.65 2194.92,-147.35 2184.99,-143.65 2184.85,-150.65"/>
</g>
<!-- Node21 -->
<g id="node21" class="node">
<title>Node21</title>
<g id="a_node21"><a xlink:href="BlinkStepPattern_8cpp.html" target="_top" xlink:title=" ">
<polygon fill="none" stroke="black" points="1505,-67.5 1505,-97.5 1654,-97.5 1654,-67.5 1505,-67.5"/>
<text text-anchor="start" x="1513" y="-85.5" font-family="Helvetica,sans-Serif" font-size="10.00">VortexEngine/src/Patterns</text>
<text text-anchor="middle" x="1579.5" y="-74.5" font-family="Helvetica,sans-Serif" font-size="10.00">/Multi/BlinkStepPattern.cpp</text>
</a>
</g>
</g>
<!-- Node1&#45;&gt;Node21 -->
<g id="edge26" class="edge">
<title>Node1&#45;&gt;Node21</title>
<path fill="none" stroke="midnightblue" d="M2184.65,-144.24C2071.5,-137.33 1850.27,-121.99 1663.5,-98 1660.42,-97.6 1657.28,-97.18 1654.1,-96.72"/>
<polygon fill="midnightblue" stroke="midnightblue" points="2184.73,-147.75 2194.92,-144.86 2185.15,-140.76 2184.73,-147.75"/>
</g>
<!-- Node22 -->
<g id="node22" class="node">
<title>Node22</title>
<g id="a_node22"><a xlink:href="BouncePattern_8cpp.html" target="_top" xlink:title=" ">
<polygon fill="none" stroke="black" points="1672,-67.5 1672,-97.5 1813,-97.5 1813,-67.5 1672,-67.5"/>
<text text-anchor="start" x="1680" y="-85.5" font-family="Helvetica,sans-Serif" font-size="10.00">VortexEngine/src/Patterns</text>
<text text-anchor="middle" x="1742.5" y="-74.5" font-family="Helvetica,sans-Serif" font-size="10.00">/Multi/BouncePattern.cpp</text>
</a>
</g>
</g>
<!-- Node1&#45;&gt;Node22 -->
<g id="edge27" class="edge">
<title>Node1&#45;&gt;Node22</title>
<path fill="none" stroke="midnightblue" d="M2184.85,-141.35C2097.7,-132.66 1949.31,-116.8 1822.5,-98 1819.43,-97.54 1816.29,-97.06 1813.13,-96.56"/>
<polygon fill="midnightblue" stroke="midnightblue" points="2184.61,-144.84 2194.91,-142.35 2185.31,-137.88 2184.61,-144.84"/>
</g>
<!-- Node23 -->
<g id="node23" class="node">
<title>Node23</title>
<g id="a_node23"><a xlink:href="DoubleStrobePattern_8cpp.html" target="_top" xlink:title=" ">
<polygon fill="none" stroke="black" points="1831.5,-67.5 1831.5,-97.5 1999.5,-97.5 1999.5,-67.5 1831.5,-67.5"/>
<text text-anchor="start" x="1839.5" y="-85.5" font-family="Helvetica,sans-Serif" font-size="10.00">VortexEngine/src/Patterns</text>
<text text-anchor="middle" x="1915.5" y="-74.5" font-family="Helvetica,sans-Serif" font-size="10.00">/Multi/DoubleStrobePattern.cpp</text>
</a>
</g>
</g>
<!-- Node1&#45;&gt;Node23 -->
<g id="edge28" class="edge">
<title>Node1&#45;&gt;Node23</title>
<path fill="none" stroke="midnightblue" d="M2184.64,-134.35C2126.88,-123.44 2047.38,-108.42 1989.77,-97.53"/>
<polygon fill="midnightblue" stroke="midnightblue" points="2184.32,-137.86 2194.8,-136.27 2185.62,-130.98 2184.32,-137.86"/>
</g>
<!-- Node24 -->
<g id="node24" class="node">
<title>Node24</title>
<g id="a_node24"><a xlink:href="DripMorphPattern_8cpp.html" target="_top" xlink:title=" ">
<polygon fill="none" stroke="black" points="2018,-67.5 2018,-97.5 2171,-97.5 2171,-67.5 2018,-67.5"/>
<text text-anchor="start" x="2026" y="-85.5" font-family="Helvetica,sans-Serif" font-size="10.00">VortexEngine/src/Patterns</text>
<text text-anchor="middle" x="2094.5" y="-74.5" font-family="Helvetica,sans-Serif" font-size="10.00">/Multi/DripMorphPattern.cpp</text>
</a>
</g>
</g>
<!-- Node1&#45;&gt;Node24 -->
<g id="edge29" class="edge">
<title>Node1&#45;&gt;Node24</title>
<path fill="none" stroke="midnightblue" d="M2214.27,-130.68C2187.81,-120.26 2154.87,-107.28 2130.23,-97.58"/>
<polygon fill="midnightblue" stroke="midnightblue" points="2213.11,-133.99 2223.7,-134.4 2215.68,-127.47 2213.11,-133.99"/>
</g>
<!-- Node25 -->
<g id="node25" class="node">
<title>Node25</title>
<g id="a_node25"><a xlink:href="FillPattern_8cpp.html" target="_top" xlink:title=" ">
<polygon fill="none" stroke="black" points="2189,-67.5 2189,-97.5 2330,-97.5 2330,-67.5 2189,-67.5"/>
<text text-anchor="start" x="2197" y="-85.5" font-family="Helvetica,sans-Serif" font-size="10.00">VortexEngine/src/Patterns</text>
<text text-anchor="middle" x="2259.5" y="-74.5" font-family="Helvetica,sans-Serif" font-size="10.00">/Multi/FillPattern.cpp</text>
</a>
</g>
</g>
<!-- Node1&#45;&gt;Node25 -->
<g id="edge30" class="edge">
<title>Node1&#45;&gt;Node25</title>
<path fill="none" stroke="midnightblue" d="M2259.5,-124.11C2259.5,-115.15 2259.5,-105.32 2259.5,-97.58"/>
<polygon fill="midnightblue" stroke="midnightblue" points="2256,-124.4 2259.5,-134.4 2263,-124.4 2256,-124.4"/>
</g>
<!-- Node26 -->
<g id="node26" class="node">
<title>Node26</title>
<g id="a_node26"><a xlink:href="HueShiftPattern_8cpp.html" target="_top" xlink:title=" ">
<polygon fill="none" stroke="black" points="2348,-67.5 2348,-97.5 2491,-97.5 2491,-67.5 2348,-67.5"/>
<text text-anchor="start" x="2356" y="-85.5" font-family="Helvetica,sans-Serif" font-size="10.00">VortexEngine/src/Patterns</text>
<text text-anchor="middle" x="2419.5" y="-74.5" font-family="Helvetica,sans-Serif" font-size="10.00">/Multi/HueShiftPattern.cpp</text>
</a>
</g>
</g>
<!-- Node1&#45;&gt;Node26 -->
<g id="edge31" class="edge">
<title>Node1&#45;&gt;Node26</title>
<path fill="none" stroke="midnightblue" d="M2303.7,-130.54C2329.3,-120.14 2361.07,-107.24 2384.85,-97.58"/>
<polygon fill="midnightblue" stroke="midnightblue" points="2302.16,-127.39 2294.22,-134.4 2304.8,-133.87 2302.16,-127.39"/>
</g>
<!-- Node27 -->
<g id="node27" class="node">
<title>Node27</title>
<g id="a_node27"><a xlink:href="LighthousePattern_8cpp.html" target="_top" xlink:title=" ">
<polygon fill="none" stroke="black" points="2509,-67.5 2509,-97.5 2664,-97.5 2664,-67.5 2509,-67.5"/>
<text text-anchor="start" x="2517" y="-85.5" font-family="Helvetica,sans-Serif" font-size="10.00">VortexEngine/src/Patterns</text>
<text text-anchor="middle" x="2586.5" y="-74.5" font-family="Helvetica,sans-Serif" font-size="10.00">/Multi/LighthousePattern.cpp</text>
</a>
</g>
</g>
<!-- Node1&#45;&gt;Node27 -->
<g id="edge32" class="edge">
<title>Node1&#45;&gt;Node27</title>
<path fill="none" stroke="midnightblue" d="M2334.06,-133.68C2388.62,-122.83 2462.16,-108.22 2515.79,-97.55"/>
<polygon fill="midnightblue" stroke="midnightblue" points="2333.23,-130.28 2324.1,-135.66 2334.6,-137.14 2333.23,-130.28"/>
</g>
<!-- Node28 -->
<g id="node28" class="node">
<title>Node28</title>
<g id="a_node28"><a xlink:href="Sequence_8cpp.html" target="_top" xlink:title=" ">
<polygon fill="none" stroke="black" points="2682,-67.5 2682,-97.5 2851,-97.5 2851,-67.5 2682,-67.5"/>
<text text-anchor="start" x="2690" y="-85.5" font-family="Helvetica,sans-Serif" font-size="10.00">VortexEngine/src/Patterns</text>
<text text-anchor="middle" x="2766.5" y="-74.5" font-family="Helvetica,sans-Serif" font-size="10.00">/Multi/Sequencer/Sequence.cpp</text>
</a>
</g>
</g>
<!-- Node1&#45;&gt;Node28 -->
<g id="edge33" class="edge">
<title>Node1&#45;&gt;Node28</title>
<path fill="none" stroke="midnightblue" d="M2334.22,-140.14C2417.2,-130.69 2555.08,-114.45 2673.5,-98 2676.25,-97.62 2679.05,-97.22 2681.87,-96.82"/>
<polygon fill="midnightblue" stroke="midnightblue" points="2333.67,-136.68 2324.13,-141.29 2334.46,-143.64 2333.67,-136.68"/>
</g>
<!-- Node29 -->
<g id="node29" class="node">
<title>Node29</title>
<g id="a_node29"><a xlink:href="SequencedPattern_8cpp.html" target="_top" xlink:title=" ">
<polygon fill="none" stroke="black" points="2869,-67.5 2869,-97.5 3078,-97.5 3078,-67.5 2869,-67.5"/>
<text text-anchor="start" x="2877" y="-85.5" font-family="Helvetica,sans-Serif" font-size="10.00">VortexEngine/src/Patterns</text>
<text text-anchor="middle" x="2973.5" y="-74.5" font-family="Helvetica,sans-Serif" font-size="10.00">/Multi/Sequencer/SequencedPattern.cpp</text>
</a>
</g>
</g>
<!-- Node1&#45;&gt;Node29 -->
<g id="edge34" class="edge">
<title>Node1&#45;&gt;Node29</title>
<path fill="none" stroke="midnightblue" d="M2334.06,-143.29C2447.76,-135.11 2671.24,-118.08 2860.5,-98 2863.25,-97.71 2866.04,-97.4 2868.86,-97.09"/>
<polygon fill="midnightblue" stroke="midnightblue" points="2333.79,-139.8 2324.07,-144.01 2334.29,-146.78 2333.79,-139.8"/>
</g>
<!-- Node30 -->
<g id="node30" class="node">
<title>Node30</title>
<g id="a_node30"><a xlink:href="VortexPattern_8cpp.html" target="_top" xlink:title=" ">
<polygon fill="none" stroke="black" points="3096,-67.5 3096,-97.5 3237,-97.5 3237,-67.5 3096,-67.5"/>
<text text-anchor="start" x="3104" y="-85.5" font-family="Helvetica,sans-Serif" font-size="10.00">VortexEngine/src/Patterns</text>
<text text-anchor="middle" x="3166.5" y="-74.5" font-family="Helvetica,sans-Serif" font-size="10.00">/Multi/VortexPattern.cpp</text>
</a>
</g>
</g>
<!-- Node1&#45;&gt;Node30 -->
<g id="edge35" class="edge">
<title>Node1&#45;&gt;Node30</title>
<path fill="none" stroke="midnightblue" d="M2334.31,-146.96C2479.85,-143.29 2811.07,-131.67 3087.5,-98 3090.27,-97.66 3093.09,-97.29 3095.93,-96.89"/>
<polygon fill="midnightblue" stroke="midnightblue" points="2334.07,-143.46 2324.16,-147.21 2334.24,-150.46 2334.07,-143.46"/>
</g>
<!-- Node31 -->
<g id="node31" class="node">
<title>Node31</title>
<g id="a_node31"><a xlink:href="VortexWipePattern_8cpp.html" target="_top" xlink:title=" ">
<polygon fill="none" stroke="black" points="3255.5,-67.5 3255.5,-97.5 3413.5,-97.5 3413.5,-67.5 3255.5,-67.5"/>
<text text-anchor="start" x="3263.5" y="-85.5" font-family="Helvetica,sans-Serif" font-size="10.00">VortexEngine/src/Patterns</text>
<text text-anchor="middle" x="3334.5" y="-74.5" font-family="Helvetica,sans-Serif" font-size="10.00">/Multi/VortexWipePattern.cpp</text>
</a>
</g>
</g>
<!-- Node1&#45;&gt;Node31 -->
<g id="edge36" class="edge">
<title>Node1&#45;&gt;Node31</title>
<path fill="none" stroke="midnightblue" d="M2334.12,-147.54C2499.08,-144.78 2907.09,-134.53 3246.5,-98 3249.43,-97.69 3252.4,-97.34 3255.4,-96.96"/>
<polygon fill="midnightblue" stroke="midnightblue" points="2334.02,-144.04 2324.08,-147.7 2334.13,-151.04 2334.02,-144.04"/>
</g>
<!-- Node32 -->
<g id="node32" class="node">
<title>Node32</title>
<g id="a_node32"><a xlink:href="WarpPattern_8cpp.html" target="_top" xlink:title=" ">
<polygon fill="none" stroke="black" points="3432,-67.5 3432,-97.5 3573,-97.5 3573,-67.5 3432,-67.5"/>
<text text-anchor="start" x="3440" y="-85.5" font-family="Helvetica,sans-Serif" font-size="10.00">VortexEngine/src/Patterns</text>
<text text-anchor="middle" x="3502.5" y="-74.5" font-family="Helvetica,sans-Serif" font-size="10.00">/Multi/WarpPattern.cpp</text>
</a>
</g>
</g>
<!-- Node1&#45;&gt;Node32 -->
<g id="edge37" class="edge">
<title>Node1&#45;&gt;Node32</title>
<path fill="none" stroke="midnightblue" d="M2334.2,-148.77C2519.23,-148.66 3013.47,-143.73 3422.5,-98 3425.59,-97.65 3428.73,-97.26 3431.91,-96.83"/>
<polygon fill="midnightblue" stroke="midnightblue" points="2334.04,-145.27 2324.04,-148.77 2334.04,-152.27 2334.04,-145.27"/>
</g>
<!-- Node33 -->
<g id="node33" class="node">
<title>Node33</title>
<g id="a_node33"><a xlink:href="WarpWormPattern_8cpp.html" target="_top" xlink:title=" ">
<polygon fill="none" stroke="black" points="3591,-67.5 3591,-97.5 3746,-97.5 3746,-67.5 3591,-67.5"/>
<text text-anchor="start" x="3599" y="-85.5" font-family="Helvetica,sans-Serif" font-size="10.00">VortexEngine/src/Patterns</text>
<text text-anchor="middle" x="3668.5" y="-74.5" font-family="Helvetica,sans-Serif" font-size="10.00">/Multi/WarpWormPattern.cpp</text>
</a>
</g>
</g>
<!-- Node1&#45;&gt;Node33 -->
<g id="edge38" class="edge">
<title>Node1&#45;&gt;Node33</title>
<path fill="none" stroke="midnightblue" d="M2334.26,-149.01C2536.17,-149.67 3109.14,-146.73 3582.5,-98 3585.21,-97.72 3587.97,-97.41 3590.75,-97.07"/>
<polygon fill="midnightblue" stroke="midnightblue" points="2334.08,-145.51 2324.07,-148.98 2334.06,-152.51 2334.08,-145.51"/>
</g>
<!-- Node34 -->
<g id="node34" class="node">
<title>Node34</title>
<g id="a_node34"><a xlink:href="Pattern_8cpp.html" target="_top" xlink:title=" ">
<polygon fill="none" stroke="black" points="3764,-67.5 3764,-97.5 3905,-97.5 3905,-67.5 3764,-67.5"/>
<text text-anchor="start" x="3772" y="-85.5" font-family="Helvetica,sans-Serif" font-size="10.00">VortexEngine/src/Patterns</text>
<text text-anchor="middle" x="3834.5" y="-74.5" font-family="Helvetica,sans-Serif" font-size="10.00">/Pattern.cpp</text>
</a>
</g>
</g>
<!-- Node1&#45;&gt;Node34 -->
<g id="edge39" class="edge">
<title>Node1&#45;&gt;Node34</title>
<path fill="none" stroke="midnightblue" d="M2334.54,-147.44C2597.37,-143.48 3475.52,-128.25 3755.5,-98 3758.27,-97.7 3761.09,-97.36 3763.94,-96.98"/>
<polygon fill="midnightblue" stroke="midnightblue" points="2334.29,-143.94 2324.34,-147.59 2334.39,-150.94 2334.29,-143.94"/>
</g>
<!-- Node35 -->
<g id="node35" class="node">
<title>Node35</title>
<g id="a_node35"><a xlink:href="PatternArgs_8cpp.html" target="_top" xlink:title=" ">
<polygon fill="none" stroke="black" points="3923,-67.5 3923,-97.5 4064,-97.5 4064,-67.5 3923,-67.5"/>
<text text-anchor="start" x="3931" y="-85.5" font-family="Helvetica,sans-Serif" font-size="10.00">VortexEngine/src/Patterns</text>
<text text-anchor="middle" x="3993.5" y="-74.5" font-family="Helvetica,sans-Serif" font-size="10.00">/PatternArgs.cpp</text>
</a>
</g>
</g>
<!-- Node1&#45;&gt;Node35 -->
<g id="edge40" class="edge">
<title>Node1&#45;&gt;Node35</title>
<path fill="none" stroke="midnightblue" d="M2334.39,-147.72C2614.69,-144.56 3601.79,-131.28 3914.5,-98 3917.27,-97.7 3920.1,-97.37 3922.94,-97"/>
<polygon fill="midnightblue" stroke="midnightblue" points="2334.28,-144.22 2324.32,-147.83 2334.36,-151.22 2334.28,-144.22"/>
</g>
<!-- Node36 -->
<g id="node36" class="node">
<title>Node36</title>
<g id="a_node36"><a xlink:href="PatternBuilder_8cpp.html" target="_top" xlink:title=" ">
<polygon fill="none" stroke="black" points="4082,-67.5 4082,-97.5 4223,-97.5 4223,-67.5 4082,-67.5"/>
<text text-anchor="start" x="4090" y="-85.5" font-family="Helvetica,sans-Serif" font-size="10.00">VortexEngine/src/Patterns</text>
<text text-anchor="middle" x="4152.5" y="-74.5" font-family="Helvetica,sans-Serif" font-size="10.00">/PatternBuilder.cpp</text>
</a>
</g>
</g>
<!-- Node1&#45;&gt;Node36 -->
<g id="edge41" class="edge">
<title>Node1&#45;&gt;Node36</title>
<path fill="none" stroke="midnightblue" d="M2334.5,-147.95C2631.81,-145.53 3728.04,-134.29 4073.5,-98 4076.27,-97.71 4079.1,-97.37 4081.94,-97.01"/>
<polygon fill="midnightblue" stroke="midnightblue" points="2334.24,-144.45 2324.27,-148.03 2334.3,-151.45 2334.24,-144.45"/>
</g>
<!-- Node37 -->
<g id="node37" class="node">
<title>Node37</title>
<g id="a_node37"><a xlink:href="ByteStream_8cpp.html" target="_top" xlink:title=" ">
<polygon fill="none" stroke="black" points="4241,-67.5 4241,-97.5 4370,-97.5 4370,-67.5 4241,-67.5"/>
<text text-anchor="start" x="4249" y="-85.5" font-family="Helvetica,sans-Serif" font-size="10.00">VortexEngine/src/Serial</text>
<text text-anchor="middle" x="4305.5" y="-74.5" font-family="Helvetica,sans-Serif" font-size="10.00">/ByteStream.cpp</text>
</a>
</g>
</g>
<!-- Node1&#45;&gt;Node37 -->
<g id="edge42" class="edge">
<title>Node1&#45;&gt;Node37</title>
<path fill="none" stroke="midnightblue" d="M2334.75,-148.29C2648.6,-147.15 3854.53,-140.06 4232.5,-98 4235.2,-97.7 4237.94,-97.35 4240.71,-96.96"/>
<polygon fill="midnightblue" stroke="midnightblue" points="2334.39,-144.79 2324.4,-148.33 2334.41,-151.79 2334.39,-144.79"/>
</g>
<!-- Node38 -->
<g id="node38" class="node">
<title>Node38</title>
<g id="a_node38"><a xlink:href="Serial_8cpp.html" target="_top" xlink:title=" ">
<polygon fill="none" stroke="black" points="4388,-67.5 4388,-97.5 4517,-97.5 4517,-67.5 4388,-67.5"/>
<text text-anchor="start" x="4396" y="-85.5" font-family="Helvetica,sans-Serif" font-size="10.00">VortexEngine/src/Serial</text>
<text text-anchor="middle" x="4452.5" y="-74.5" font-family="Helvetica,sans-Serif" font-size="10.00">/Serial.cpp</text>
</a>
</g>
</g>
<!-- Node1&#45;&gt;Node38 -->
<g id="edge43" class="edge">
<title>Node1&#45;&gt;Node38</title>
<path fill="none" stroke="midnightblue" d="M2334.33,-148.45C2661.83,-147.95 3970.89,-143.11 4379.5,-98 4382.2,-97.7 4384.94,-97.36 4387.71,-96.97"/>
<polygon fill="midnightblue" stroke="midnightblue" points="2334,-144.95 2324.01,-148.46 2334.01,-151.95 2334,-144.95"/>
</g>
<!-- Node39 -->
<g id="node39" class="node">
<title>Node39</title>
<g id="a_node39"><a xlink:href="Storage_8cpp.html" target="_top" xlink:title=" ">
<polygon fill="none" stroke="black" points="4535,-67.5 4535,-97.5 4674,-97.5 4674,-67.5 4535,-67.5"/>
<text text-anchor="start" x="4543" y="-85.5" font-family="Helvetica,sans-Serif" font-size="10.00">VortexEngine/src/Storage</text>
<text text-anchor="middle" x="4604.5" y="-74.5" font-family="Helvetica,sans-Serif" font-size="10.00">/Storage.cpp</text>
</a>
</g>
</g>
<!-- Node1&#45;&gt;Node39 -->
<g id="edge44" class="edge">
<title>Node1&#45;&gt;Node39</title>
<path fill="none" stroke="midnightblue" d="M2334.15,-148.46C2675.15,-148.02 4086.98,-143.45 4526.5,-98 4529.24,-97.72 4532.03,-97.39 4534.84,-97.03"/>
<polygon fill="midnightblue" stroke="midnightblue" points="2334.13,-144.96 2324.14,-148.47 2334.14,-151.96 2334.13,-144.96"/>
</g>
<!-- Node40 -->
<g id="node40" class="node">
<title>Node40</title>
<g id="a_node40"><a xlink:href="IRReceiver_8cpp.html" target="_top" xlink:title=" ">
<polygon fill="none" stroke="black" points="4692,-67.5 4692,-97.5 4835,-97.5 4835,-67.5 4692,-67.5"/>
<text text-anchor="start" x="4700" y="-85.5" font-family="Helvetica,sans-Serif" font-size="10.00">VortexEngine/src/Wireless</text>
<text text-anchor="middle" x="4763.5" y="-74.5" font-family="Helvetica,sans-Serif" font-size="10.00">/IRReceiver.cpp</text>
</a>
</g>
</g>
<!-- Node1&#45;&gt;Node40 -->
<g id="edge45" class="edge">
<title>Node1&#45;&gt;Node40</title>
<path fill="none" stroke="midnightblue" d="M2334.29,-148.54C2689.82,-148.48 4211.23,-145.42 4683.5,-98 4686.17,-97.73 4688.88,-97.42 4691.62,-97.08"/>
<polygon fill="midnightblue" stroke="midnightblue" points="2334.12,-145.04 2324.12,-148.54 2334.12,-152.04 2334.12,-145.04"/>
</g>
<!-- Node41 -->
<g id="node41" class="node">
<title>Node41</title>
<g id="a_node41"><a xlink:href="IRSender_8h.html" target="_top" xlink:title=" ">
<polygon fill="none" stroke="black" points="892,-67.5 892,-97.5 1035,-97.5 1035,-67.5 892,-67.5"/>
<text text-anchor="start" x="900" y="-85.5" font-family="Helvetica,sans-Serif" font-size="10.00">VortexEngine/src/Wireless</text>
<text text-anchor="middle" x="963.5" y="-74.5" font-family="Helvetica,sans-Serif" font-size="10.00">/IRSender.h</text>
</a>
</g>
</g>
<!-- Node1&#45;&gt;Node41 -->
<g id="edge46" class="edge">
<title>Node1&#45;&gt;Node41</title>
<path fill="none" stroke="midnightblue" d="M2184.72,-147.32C1998.32,-143.95 1498.12,-132.18 1082.5,-98 1067.15,-96.74 1050.73,-94.99 1035.14,-93.15"/>
<polygon fill="midnightblue" stroke="midnightblue" points="2184.9,-150.83 2194.96,-147.51 2185.02,-143.83 2184.9,-150.83"/>
</g>
<!-- Node43 -->
<g id="node43" class="node">
<title>Node43</title>
<g id="a_node43"><a xlink:href="VLReceiver_8cpp.html" target="_top" xlink:title=" ">
<polygon fill="none" stroke="black" points="4853,-67.5 4853,-97.5 4996,-97.5 4996,-67.5 4853,-67.5"/>
<text text-anchor="start" x="4861" y="-85.5" font-family="Helvetica,sans-Serif" font-size="10.00">VortexEngine/src/Wireless</text>
<text text-anchor="middle" x="4924.5" y="-74.5" font-family="Helvetica,sans-Serif" font-size="10.00">/VLReceiver.cpp</text>
</a>
</g>
</g>
<!-- Node1&#45;&gt;Node43 -->
<g id="edge50" class="edge">
<title>Node1&#45;&gt;Node43</title>
<path fill="none" stroke="midnightblue" d="M2334.09,-148.65C2703.41,-149.16 4338.52,-148.47 4844.5,-98 4847.17,-97.73 4849.88,-97.43 4852.62,-97.09"/>
<polygon fill="midnightblue" stroke="midnightblue" points="2334.06,-145.15 2324.05,-148.64 2334.05,-152.15 2334.06,-145.15"/>
</g>
<!-- Node44 -->
<g id="node44" class="node">
<title>Node44</title>
<g id="a_node44"><a xlink:href="VLSender_8h.html" target="_top" xlink:title=" ">
<polygon fill="none" stroke="black" points="516,-67.5 516,-97.5 659,-97.5 659,-67.5 516,-67.5"/>
<text text-anchor="start" x="524" y="-85.5" font-family="Helvetica,sans-Serif" font-size="10.00">VortexEngine/src/Wireless</text>
<text text-anchor="middle" x="587.5" y="-74.5" font-family="Helvetica,sans-Serif" font-size="10.00">/VLSender.h</text>
</a>
</g>
</g>
<!-- Node1&#45;&gt;Node44 -->
<g id="edge51" class="edge">
<title>Node1&#45;&gt;Node44</title>
<path fill="none" stroke="midnightblue" d="M2184.76,-147.59C1911.55,-144.05 967.34,-129.75 667.5,-98 664.83,-97.72 662.12,-97.4 659.39,-97.05"/>
<polygon fill="midnightblue" stroke="midnightblue" points="2184.92,-151.1 2194.96,-147.73 2185.01,-144.1 2184.92,-151.1"/>
</g>
<!-- Node5&#45;&gt;Node4 -->
<g id="edge5" class="edge">
<title>Node5&#45;&gt;Node4</title>
<path fill="none" stroke="midnightblue" d="M666.73,-66.95C520.91,-47.36 482.2,-49.72 340.5,-31 337.55,-30.61 334.56,-30.2 331.53,-29.79"/>
<polygon fill="midnightblue" stroke="midnightblue" points="666.57,-70.46 676.95,-68.33 667.51,-63.52 666.57,-70.46"/>
</g>
<!-- Node6 -->
<g id="node6" class="node">
<title>Node6</title>
<g id="a_node6"><a xlink:href="Menus_8cpp.html" target="_top" xlink:title=" ">
<polygon fill="none" stroke="black" points="723.5,-0.5 723.5,-30.5 857.5,-30.5 857.5,-0.5 723.5,-0.5"/>
<text text-anchor="start" x="731.5" y="-18.5" font-family="Helvetica,sans-Serif" font-size="10.00">VortexEngine/src/Menus</text>
<text text-anchor="middle" x="790.5" y="-7.5" font-family="Helvetica,sans-Serif" font-size="10.00">/Menus.cpp</text>
</a>
</g>
</g>
<!-- Node5&#45;&gt;Node6 -->
<g id="edge6" class="edge">
<title>Node5&#45;&gt;Node6</title>
<path fill="none" stroke="midnightblue" d="M768.64,-58.28C773.49,-49.02 778.91,-38.66 783.14,-30.58"/>
<polygon fill="midnightblue" stroke="midnightblue" points="765.41,-56.91 763.88,-67.4 771.61,-60.16 765.41,-56.91"/>
</g>
<!-- Node11&#45;&gt;Node4 -->
<g id="edge15" class="edge">
<title>Node11&#45;&gt;Node4</title>
<path fill="none" stroke="midnightblue" d="M1152.22,-75.01C1118.8,-72.33 1079.24,-69.31 1043.5,-67 731.3,-46.84 651.72,-62.89 340.5,-31 337.54,-30.7 334.54,-30.37 331.5,-30.01"/>
<polygon fill="midnightblue" stroke="midnightblue" points="1152.13,-78.52 1162.38,-75.83 1152.69,-71.54 1152.13,-78.52"/>
</g>
<!-- Node11&#45;&gt;Node6 -->
<g id="edge21" class="edge">
<title>Node11&#45;&gt;Node6</title>
<path fill="none" stroke="midnightblue" d="M1152.33,-71.91C1078.73,-62.49 964.83,-47.21 866.5,-31 863.58,-30.52 860.61,-30.01 857.6,-29.49"/>
<polygon fill="midnightblue" stroke="midnightblue" points="1152.08,-75.4 1162.44,-73.2 1152.97,-68.46 1152.08,-75.4"/>
</g>
<!-- Node11&#45;&gt;Node7 -->
<g id="edge18" class="edge">
<title>Node11&#45;&gt;Node7</title>
<path fill="none" stroke="midnightblue" d="M1152.2,-75.29C1118.78,-72.66 1079.22,-69.6 1043.5,-67 806.7,-49.77 746.27,-59 510.5,-31 507.53,-30.65 504.5,-30.26 501.44,-29.85"/>
<polygon fill="midnightblue" stroke="midnightblue" points="1152.12,-78.8 1162.36,-76.1 1152.67,-71.82 1152.12,-78.8"/>
</g>
<!-- Node11&#45;&gt;Node8 -->
<g id="edge19" class="edge">
<title>Node11&#45;&gt;Node8</title>
<path fill="none" stroke="midnightblue" d="M1195.23,-62.3C1177.08,-52.12 1155.18,-39.85 1138.62,-30.58"/>
<polygon fill="midnightblue" stroke="midnightblue" points="1193.9,-65.56 1204.33,-67.4 1197.32,-59.45 1193.9,-65.56"/>
</g>
<!-- Node11&#45;&gt;Node10 -->
<g id="edge22" class="edge">
<title>Node11&#45;&gt;Node10</title>
<path fill="none" stroke="midnightblue" d="M1244.97,-59.16C1251.53,-49.68 1258.98,-38.92 1264.75,-30.58"/>
<polygon fill="midnightblue" stroke="midnightblue" points="1242.08,-57.18 1239.26,-67.4 1247.83,-61.17 1242.08,-57.18"/>
</g>
<!-- Node12 -->
<g id="node12" class="node">
<title>Node12</title>
<g id="a_node12"><a xlink:href="Leds_8cpp.html" target="_top" xlink:title=" ">
<polygon fill="none" stroke="black" points="1509.5,-0.5 1509.5,-30.5 1633.5,-30.5 1633.5,-0.5 1509.5,-0.5"/>
<text text-anchor="start" x="1517.5" y="-18.5" font-family="Helvetica,sans-Serif" font-size="10.00">VortexEngine/src/Leds</text>
<text text-anchor="middle" x="1571.5" y="-7.5" font-family="Helvetica,sans-Serif" font-size="10.00">/Leds.cpp</text>
</a>
</g>
</g>
<!-- Node11&#45;&gt;Node12 -->
<g id="edge12" class="edge">
<title>Node11&#45;&gt;Node12</title>
<path fill="none" stroke="midnightblue" d="M1306.55,-67.51C1360.83,-57.56 1435.17,-43.76 1500.5,-31 1503.34,-30.45 1506.24,-29.87 1509.17,-29.29"/>
<polygon fill="midnightblue" stroke="midnightblue" points="1305.87,-64.07 1296.66,-69.32 1307.13,-70.96 1305.87,-64.07"/>
</g>
<!-- Node13 -->
<g id="node13" class="node">
<title>Node13</title>
<g id="a_node13"><a xlink:href="Menu_8cpp.html" target="_top" xlink:title=" ">
<polygon fill="none" stroke="black" points="1651.5,-0.5 1651.5,-30.5 1785.5,-30.5 1785.5,-0.5 1651.5,-0.5"/>
<text text-anchor="start" x="1659.5" y="-18.5" font-family="Helvetica,sans-Serif" font-size="10.00">VortexEngine/src/Menus</text>
<text text-anchor="middle" x="1718.5" y="-7.5" font-family="Helvetica,sans-Serif" font-size="10.00">/Menu.cpp</text>
</a>
</g>
</g>
<!-- Node11&#45;&gt;Node13 -->
<g id="edge13" class="edge">
<title>Node11&#45;&gt;Node13</title>
<path fill="none" stroke="midnightblue" d="M1306.65,-67.56C1307.94,-67.37 1309.23,-67.18 1310.5,-67 1457.41,-45.91 1495.71,-52.93 1642.5,-31 1645.42,-30.56 1648.4,-30.09 1651.41,-29.6"/>
<polygon fill="midnightblue" stroke="midnightblue" points="1305.97,-64.13 1296.63,-69.12 1307.04,-71.04 1305.97,-64.13"/>
</g>
<!-- Node14 -->
<g id="node14" class="node">
<title>Node14</title>
<g id="a_node14"><a xlink:href="ColorSelect_8cpp.html" target="_top" xlink:title=" ">
<polygon fill="none" stroke="black" points="1804,-0.5 1804,-30.5 1947,-30.5 1947,-0.5 1804,-0.5"/>
<text text-anchor="start" x="1812" y="-18.5" font-family="Helvetica,sans-Serif" font-size="10.00">VortexEngine/src/Menus</text>
<text text-anchor="middle" x="1875.5" y="-7.5" font-family="Helvetica,sans-Serif" font-size="10.00">/MenuList/ColorSelect.cpp</text>
</a>
</g>
</g>
<!-- Node11&#45;&gt;Node14 -->
<g id="edge14" class="edge">
<title>Node11&#45;&gt;Node14</title>
<path fill="none" stroke="midnightblue" d="M1306.64,-67.5C1307.94,-67.33 1309.22,-67.16 1310.5,-67 1524.5,-39.96 1580.5,-58.04 1794.5,-31 1797.48,-30.62 1800.51,-30.21 1803.57,-29.77"/>
<polygon fill="midnightblue" stroke="midnightblue" points="1306.01,-64.06 1296.6,-68.94 1307,-70.99 1306.01,-64.06"/>
</g>
<!-- Node15 -->
<g id="node15" class="node">
<title>Node15</title>
<g id="a_node15"><a xlink:href="FactoryReset_8cpp.html" target="_top" xlink:title=" ">
<polygon fill="none" stroke="black" points="1965.5,-0.5 1965.5,-30.5 2115.5,-30.5 2115.5,-0.5 1965.5,-0.5"/>
<text text-anchor="start" x="1973.5" y="-18.5" font-family="Helvetica,sans-Serif" font-size="10.00">VortexEngine/src/Menus</text>
<text text-anchor="middle" x="2040.5" y="-7.5" font-family="Helvetica,sans-Serif" font-size="10.00">/MenuList/FactoryReset.cpp</text>
</a>
</g>
</g>
<!-- Node11&#45;&gt;Node15 -->
<g id="edge16" class="edge">
<title>Node11&#45;&gt;Node15</title>
<path fill="none" stroke="midnightblue" d="M1306.64,-67.47C1307.94,-67.31 1309.22,-67.15 1310.5,-67 1596.11,-33.6 1670.79,-63.51 1956.5,-31 1959.44,-30.67 1962.43,-30.29 1965.46,-29.9"/>
<polygon fill="midnightblue" stroke="midnightblue" points="1306.02,-64.02 1296.59,-68.84 1306.97,-70.96 1306.02,-64.02"/>
</g>
<!-- Node16 -->
<g id="node16" class="node">
<title>Node16</title>
<g id="a_node16"><a xlink:href="GlobalBrightness_8cpp.html" target="_top" xlink:title=" ">
<polygon fill="none" stroke="black" points="2133.5,-0.5 2133.5,-30.5 2303.5,-30.5 2303.5,-0.5 2133.5,-0.5"/>
<text text-anchor="start" x="2141.5" y="-18.5" font-family="Helvetica,sans-Serif" font-size="10.00">VortexEngine/src/Menus</text>
<text text-anchor="middle" x="2218.5" y="-7.5" font-family="Helvetica,sans-Serif" font-size="10.00">/MenuList/GlobalBrightness.cpp</text>
</a>
</g>
</g>
<!-- Node11&#45;&gt;Node16 -->
<g id="edge17" class="edge">
<title>Node11&#45;&gt;Node16</title>
<path fill="none" stroke="midnightblue" d="M1306.64,-67.45C1307.93,-67.29 1309.22,-67.14 1310.5,-67 1670.42,-27.01 1764.13,-66.66 2124.5,-31 2127.46,-30.71 2130.46,-30.38 2133.5,-30.04"/>
<polygon fill="midnightblue" stroke="midnightblue" points="1306.04,-64 1296.58,-68.78 1306.96,-70.94 1306.04,-64"/>
</g>
<!-- Node17 -->
<g id="node17" class="node">
<title>Node17</title>
<g id="a_node17"><a xlink:href="Randomizer_8cpp.html" target="_top" xlink:title=" ">
<polygon fill="none" stroke="black" points="2322,-0.5 2322,-30.5 2467,-30.5 2467,-0.5 2322,-0.5"/>
<text text-anchor="start" x="2330" y="-18.5" font-family="Helvetica,sans-Serif" font-size="10.00">VortexEngine/src/Menus</text>
<text text-anchor="middle" x="2394.5" y="-7.5" font-family="Helvetica,sans-Serif" font-size="10.00">/MenuList/Randomizer.cpp</text>
</a>
</g>
</g>
<!-- Node11&#45;&gt;Node17 -->
<g id="edge20" class="edge">
<title>Node11&#45;&gt;Node17</title>
<path fill="none" stroke="midnightblue" d="M1306.64,-67.43C1307.93,-67.28 1309.22,-67.14 1310.5,-67 1753.59,-19.62 1869.36,-77.91 2312.5,-31 2315.52,-30.68 2318.59,-30.32 2321.7,-29.92"/>
<polygon fill="midnightblue" stroke="midnightblue" points="1306.05,-63.98 1296.58,-68.74 1306.95,-70.92 1306.05,-63.98"/>
</g>
<!-- Node18 -->
<g id="node18" class="node">
<title>Node18</title>
<g id="a_node18"><a xlink:href="VortexEngine_8cpp.html" target="_top" xlink:title=" ">
<polygon fill="none" stroke="black" points="519.5,-6 519.5,-25 705.5,-25 705.5,-6 519.5,-6"/>
<text text-anchor="middle" x="612.5" y="-13" font-family="Helvetica,sans-Serif" font-size="10.00">VortexEngine/src/VortexEngine.cpp</text>
</a>
</g>
</g>
<!-- Node11&#45;&gt;Node18 -->
<g id="edge23" class="edge">
<title>Node11&#45;&gt;Node18</title>
<path fill="none" stroke="midnightblue" d="M1152.23,-74.98C1051.39,-66.22 869.51,-49.61 714.5,-31 699.85,-29.24 684.05,-27.11 669.36,-25.03"/>
<polygon fill="midnightblue" stroke="midnightblue" points="1152.06,-78.48 1162.32,-75.85 1152.66,-71.5 1152.06,-78.48"/>
</g>
<!-- Node11&#45;&gt;Node19 -->
<g id="edge24" class="edge">
<title>Node11&#45;&gt;Node19</title>
<path fill="none" stroke="midnightblue" d="M1306.64,-67.43C1307.93,-67.28 1309.22,-67.13 1310.5,-67 1826.17,-13.18 1961.29,-89.04 2476.5,-31 2479.36,-30.68 2482.28,-30.3 2485.22,-29.89"/>
<polygon fill="midnightblue" stroke="midnightblue" points="1306.05,-63.97 1296.58,-68.71 1306.94,-70.91 1306.05,-63.97"/>
</g>
<!-- Node20 -->
<g id="node20" class="node">
<title>Node20</title>
<g id="a_node20"><a xlink:href="VortexCLI_8cpp.html" target="_top" xlink:title=" ">
<polygon fill="none" stroke="black" points="1360,-0.5 1360,-30.5 1491,-30.5 1491,-0.5 1360,-0.5"/>
<text text-anchor="start" x="1368" y="-18.5" font-family="Helvetica,sans-Serif" font-size="10.00">VortexEngine/VortexCLI</text>
<text text-anchor="middle" x="1425.5" y="-7.5" font-family="Helvetica,sans-Serif" font-size="10.00">/VortexCLI.cpp</text>
</a>
</g>
</g>
<!-- Node11&#45;&gt;Node20 -->
<g id="edge25" class="edge">
<title>Node11&#45;&gt;Node20</title>
<path fill="none" stroke="midnightblue" d="M1281.58,-64.23C1313.29,-53.71 1353.28,-40.45 1383.05,-30.58"/>
<polygon fill="midnightblue" stroke="midnightblue" points="1280.42,-60.93 1272.03,-67.4 1282.62,-67.57 1280.42,-60.93"/>
</g>
<!-- Node41&#45;&gt;Node7 -->
<g id="edge47" class="edge">
<title>Node41&#45;&gt;Node7</title>
<path fill="none" stroke="midnightblue" d="M881.46,-67.54C880.13,-67.35 878.81,-67.17 877.5,-67 715.04,-45.36 672.94,-52.79 510.5,-31 507.38,-30.58 504.21,-30.13 501,-29.67"/>
<polygon fill="midnightblue" stroke="midnightblue" points="881.36,-71.06 891.76,-69.02 882.36,-64.13 881.36,-71.06"/>
</g>
<!-- Node41&#45;&gt;Node18 -->
<g id="edge48" class="edge">
<title>Node41&#45;&gt;Node18</title>
<path fill="none" stroke="midnightblue" d="M881.59,-66.33C812.19,-53.48 715.18,-35.51 658.58,-25.03"/>
<polygon fill="midnightblue" stroke="midnightblue" points="881.15,-69.81 891.62,-68.19 882.43,-62.93 881.15,-69.81"/>
</g>
<!-- Node42 -->
<g id="node42" class="node">
<title>Node42</title>
<g id="a_node42"><a xlink:href="IRSender_8cpp.html" target="_top" xlink:title=" ">
<polygon fill="none" stroke="black" points="876,-0.5 876,-30.5 1019,-30.5 1019,-0.5 876,-0.5"/>
<text text-anchor="start" x="884" y="-18.5" font-family="Helvetica,sans-Serif" font-size="10.00">VortexEngine/src/Wireless</text>
<text text-anchor="middle" x="947.5" y="-7.5" font-family="Helvetica,sans-Serif" font-size="10.00">/IRSender.cpp</text>
</a>
</g>
</g>
<!-- Node41&#45;&gt;Node42 -->
<g id="edge49" class="edge">
<title>Node41&#45;&gt;Node42</title>
<path fill="none" stroke="midnightblue" d="M957.57,-57.4C955.34,-48.37 952.89,-38.41 950.96,-30.58"/>
<polygon fill="midnightblue" stroke="midnightblue" points="954.24,-58.52 960.03,-67.4 961.04,-56.85 954.24,-58.52"/>
</g>
<!-- Node44&#45;&gt;Node4 -->
<g id="edge52" class="edge">
<title>Node44&#45;&gt;Node4</title>
<path fill="none" stroke="midnightblue" d="M505.63,-65.89C449.14,-55.13 374.67,-40.93 320.07,-30.52"/>
<polygon fill="midnightblue" stroke="midnightblue" points="505.12,-69.36 515.6,-67.79 506.43,-62.48 505.12,-69.36"/>
</g>
<!-- Node44&#45;&gt;Node7 -->
<g id="edge53" class="edge">
<title>Node44&#45;&gt;Node7</title>
<path fill="none" stroke="midnightblue" d="M542.75,-63.54C516.83,-53.14 484.66,-40.24 460.58,-30.58"/>
<polygon fill="midnightblue" stroke="midnightblue" points="541.76,-66.92 552.35,-67.4 544.37,-60.42 541.76,-66.92"/>
</g>
<!-- Node44&#45;&gt;Node18 -->
<g id="edge54" class="edge">
<title>Node44&#45;&gt;Node18</title>
<path fill="none" stroke="midnightblue" d="M596.56,-57.94C600.95,-46.54 605.94,-33.55 609.16,-25.19"/>
<polygon fill="midnightblue" stroke="midnightblue" points="593.25,-56.81 592.92,-67.4 599.78,-59.32 593.25,-56.81"/>
</g>
<!-- Node45 -->
<g id="node45" class="node">
<title>Node45</title>
<g id="a_node45"><a xlink:href="VLSender_8cpp.html" target="_top" xlink:title=" ">
<polygon fill="none" stroke="black" points="0,-0.5 0,-30.5 143,-30.5 143,-0.5 0,-0.5"/>
<text text-anchor="start" x="8" y="-18.5" font-family="Helvetica,sans-Serif" font-size="10.00">VortexEngine/src/Wireless</text>
<text text-anchor="middle" x="71.5" y="-7.5" font-family="Helvetica,sans-Serif" font-size="10.00">/VLSender.cpp</text>
</a>
</g>
</g>
<!-- Node44&#45;&gt;Node45 -->
<g id="edge55" class="edge">
<title>Node44&#45;&gt;Node45</title>
<path fill="none" stroke="midnightblue" d="M505.82,-71.46C493.32,-69.95 480.57,-68.42 468.5,-67 328.12,-50.45 292.36,-51.46 152.5,-31 149.39,-30.54 146.22,-30.06 143.01,-29.56"/>
<polygon fill="midnightblue" stroke="midnightblue" points="505.43,-74.94 515.77,-72.67 506.27,-67.99 505.43,-74.94"/>
</g>
</g>
</svg>
