<?xml version="1.0" encoding="UTF-8" standalone="no"?>
<!DOCTYPE svg PUBLIC "-//W3C//DTD SVG 1.1//EN"
 "http://www.w3.org/Graphics/SVG/1.1/DTD/svg11.dtd">
<!-- Generated by graphviz version 2.43.0 (0)
 -->
<!-- Title: VortexEngine/src/Serial/ByteStream.cpp Pages: 1 -->
<!--zoomable 319 -->
<svg id="main" version="1.1" xmlns="http://www.w3.org/2000/svg" xmlns:xlink="http://www.w3.org/1999/xlink" xml:space="preserve" onload="init(evt)">
<style type="text/css"><![CDATA[
.edge:hover path { stroke: red; }
.edge:hover polygon { stroke: red; fill: red; }
]]></style>
<script type="text/javascript"><![CDATA[
var edges = document.getElementsByTagName('g');
if (edges && edges.length) {
  for (var i=0;i<edges.length;i++) {
    if (edges[i].id.substr(0,4)=='edge') {
      edges[i].setAttribute('class','edge');
    }
  }
}
]]></script>
        <defs>
                <circle id="rim" cx="0" cy="0" r="7"/>
                <circle id="rim2" cx="0" cy="0" r="3.5"/>
                <g id="zoomPlus">
                        <use xlink:href="#rim" fill="#404040">
                                <set attributeName="fill" to="#808080" begin="zoomplus.mouseover" end="zoomplus.mouseout"/>
                        </use>
                        <path d="M-4,0h8M0,-4v8" fill="none" stroke="white" stroke-width="1.5" pointer-events="none"/>
                </g>
                <g id="zoomMin">
                        <use xlink:href="#rim" fill="#404040">
                                <set attributeName="fill" to="#808080" begin="zoomminus.mouseover" end="zoomminus.mouseout"/>
                        </use>
                        <path d="M-4,0h8" fill="none" stroke="white" stroke-width="1.5" pointer-events="none"/>
                </g>
                <g id="dirArrow">
                        <path fill="none" stroke="white" stroke-width="1.5" d="M0,-3.0v7 M-2.5,-0.5L0,-3.0L2.5,-0.5"/>
                </g>
               <g id="resetDef">
                       <use xlink:href="#rim2" fill="#404040">
                               <set attributeName="fill" to="#808080" begin="reset.mouseover" end="reset.mouseout"/>
                       </use>
               </g>
        </defs>

<script type="text/javascript">
var viewWidth = 679;
var viewHeight = 319;
var sectionId = 'dynsection-0';
</script>
<script xlink:href="svgpan.js"/>
<svg id="graph" class="graph">
<g id="viewport">
<title>VortexEngine/src/Serial/ByteStream.cpp</title>
<!-- Node1 -->
<g id="node1" class="node">
<title>Node1</title>
<g id="a_node1"><a xlink:title=" ">
<polygon fill="#bfbfbf" stroke="black" points="330.5,-280.5 330.5,-310.5 459.5,-310.5 459.5,-280.5 330.5,-280.5"/>
<text text-anchor="start" x="338.5" y="-298.5" font-family="Helvetica,sans-Serif" font-size="10.00">VortexEngine/src/Serial</text>
<text text-anchor="middle" x="395" y="-287.5" font-family="Helvetica,sans-Serif" font-size="10.00">/ByteStream.cpp</text>
</a>
</g>
</g>
<!-- Node2 -->
<g id="node2" class="node">
<title>Node2</title>
<g id="a_node2"><a xlink:href="ByteStream_8h.html" target="_top" xlink:title=" ">
<polygon fill="none" stroke="black" points="264.5,-224.5 264.5,-243.5 347.5,-243.5 347.5,-224.5 264.5,-224.5"/>
<text text-anchor="middle" x="306" y="-231.5" font-family="Helvetica,sans-Serif" font-size="10.00">ByteStream.h</text>
</a>
</g>
</g>
<!-- Node1&#45;&gt;Node2 -->
<g id="edge1" class="edge">
<title>Node1&#45;&gt;Node2</title>
<path fill="none" stroke="midnightblue" d="M373.91,-280.4C359.91,-271.04 341.59,-258.79 327.51,-249.38"/>
<polygon fill="midnightblue" stroke="midnightblue" points="329.21,-246.31 318.95,-243.66 325.32,-252.13 329.21,-246.31"/>
</g>
<!-- Node4 -->
<g id="node4" class="node">
<title>Node4</title>
<g id="a_node4"><a xlink:href="Log_8h.html" target="_top" xlink:title=" ">
<polygon fill="none" stroke="black" points="292,-168.5 292,-187.5 364,-187.5 364,-168.5 292,-168.5"/>
<text text-anchor="middle" x="328" y="-175.5" font-family="Helvetica,sans-Serif" font-size="10.00">../Log/Log.h</text>
</a>
</g>
</g>
<!-- Node1&#45;&gt;Node4 -->
<g id="edge16" class="edge">
<title>Node1&#45;&gt;Node4</title>
<path fill="none" stroke="midnightblue" d="M387.75,-280.27C380.33,-265.91 368.31,-243.16 357,-224 351.44,-214.58 344.86,-204.31 339.38,-195.96"/>
<polygon fill="midnightblue" stroke="midnightblue" points="342.21,-193.9 333.76,-187.5 336.37,-197.77 342.21,-193.9"/>
</g>
<!-- Node9 -->
<g id="node9" class="node">
<title>Node9</title>
<g id="a_node9"><a xlink:href="BitStream_8h.html" target="_top" xlink:title=" ">
<polygon fill="none" stroke="black" points="0,-168.5 0,-187.5 114,-187.5 114,-168.5 0,-168.5"/>
<text text-anchor="middle" x="57" y="-175.5" font-family="Helvetica,sans-Serif" font-size="10.00">../Serial/BitStream.h</text>
</a>
</g>
</g>
<!-- Node1&#45;&gt;Node9 -->
<g id="edge10" class="edge">
<title>Node1&#45;&gt;Node9</title>
<path fill="none" stroke="midnightblue" d="M353.89,-280.45C286.73,-257.5 154.67,-212.38 91.83,-190.9"/>
<polygon fill="midnightblue" stroke="midnightblue" points="92.59,-187.46 82,-187.54 90.33,-194.09 92.59,-187.46"/>
</g>
<!-- Node10 -->
<g id="node10" class="node">
<title>Node10</title>
<g id="a_node10"><a xlink:href="Memory_8h.html" target="_top" xlink:title=" ">
<polygon fill="none" stroke="black" points="412.5,-112.5 412.5,-131.5 529.5,-131.5 529.5,-112.5 412.5,-112.5"/>
<text text-anchor="middle" x="471" y="-119.5" font-family="Helvetica,sans-Serif" font-size="10.00">../Memory/Memory.h</text>
</a>
</g>
</g>
<!-- Node1&#45;&gt;Node10 -->
<g id="edge12" class="edge">
<title>Node1&#45;&gt;Node10</title>
<path fill="none" stroke="midnightblue" d="M398.32,-280.27C404.25,-256.24 417.96,-206.47 438,-168 443.19,-158.03 450.46,-147.85 456.85,-139.71"/>
<polygon fill="midnightblue" stroke="midnightblue" points="459.71,-141.73 463.3,-131.77 454.28,-137.32 459.71,-141.73"/>
</g>
<!-- Node12 -->
<g id="node12" class="node">
<title>Node12</title>
<g id="a_node12"><a xlink:title=" ">
<polygon fill="none" stroke="#bfbfbf" points="480.5,-224.5 480.5,-243.5 533.5,-243.5 533.5,-224.5 480.5,-224.5"/>
<text text-anchor="middle" x="507" y="-231.5" font-family="Helvetica,sans-Serif" font-size="10.00">string.h</text>
</a>
</g>
</g>
<!-- Node1&#45;&gt;Node12 -->
<g id="edge17" class="edge">
<title>Node1&#45;&gt;Node12</title>
<path fill="none" stroke="midnightblue" d="M421.54,-280.4C439.66,-270.77 463.54,-258.09 481.44,-248.58"/>
<polygon fill="midnightblue" stroke="midnightblue" points="483.51,-251.44 490.7,-243.66 480.23,-245.26 483.51,-251.44"/>
</g>
<!-- Node13 -->
<g id="node13" class="node">
<title>Node13</title>
<g id="a_node13"><a xlink:href="Compression_8h.html" target="_top" xlink:title=" ">
<polygon fill="none" stroke="black" points="547.5,-112.5 547.5,-131.5 636.5,-131.5 636.5,-112.5 547.5,-112.5"/>
<text text-anchor="middle" x="592" y="-119.5" font-family="Helvetica,sans-Serif" font-size="10.00">Compression.h</text>
</a>
</g>
</g>
<!-- Node1&#45;&gt;Node13 -->
<g id="edge18" class="edge">
<title>Node1&#45;&gt;Node13</title>
<path fill="none" stroke="midnightblue" d="M410.17,-280.27C425.58,-265.89 450.21,-243.13 472,-224 507.54,-192.8 550.09,-157.45 573.78,-137.94"/>
<polygon fill="midnightblue" stroke="midnightblue" points="576.1,-140.56 581.6,-131.5 571.66,-135.15 576.1,-140.56"/>
</g>
<!-- Node3 -->
<g id="node3" class="node">
<title>Node3</title>
<g id="a_node3"><a xlink:title=" ">
<polygon fill="none" stroke="#bfbfbf" points="193.5,-56.5 193.5,-75.5 258.5,-75.5 258.5,-56.5 193.5,-56.5"/>
<text text-anchor="middle" x="226" y="-63.5" font-family="Helvetica,sans-Serif" font-size="10.00">inttypes.h</text>
</a>
</g>
</g>
<!-- Node2&#45;&gt;Node3 -->
<g id="edge2" class="edge">
<title>Node2&#45;&gt;Node3</title>
<path fill="none" stroke="midnightblue" d="M281.72,-224.41C247.52,-210.83 186.49,-180.81 161,-132 149.88,-110.71 174.3,-91.99 196.32,-80.17"/>
<polygon fill="midnightblue" stroke="midnightblue" points="198.14,-83.17 205.49,-75.54 194.99,-76.92 198.14,-83.17"/>
</g>
<!-- Node2&#45;&gt;Node4 -->
<g id="edge3" class="edge">
<title>Node2&#45;&gt;Node4</title>
<path fill="none" stroke="midnightblue" d="M309.63,-224.08C312.61,-216.77 316.93,-206.18 320.62,-197.1"/>
<polygon fill="midnightblue" stroke="midnightblue" points="323.9,-198.33 324.43,-187.75 317.42,-195.69 323.9,-198.33"/>
</g>
<!-- Node5 -->
<g id="node5" class="node">
<title>Node5</title>
<g id="a_node5"><a xlink:title=" ">
<polygon fill="none" stroke="#bfbfbf" points="300,-112.5 300,-131.5 356,-131.5 356,-112.5 300,-112.5"/>
<text text-anchor="middle" x="328" y="-119.5" font-family="Helvetica,sans-Serif" font-size="10.00">stdarg.h</text>
</a>
</g>
</g>
<!-- Node4&#45;&gt;Node5 -->
<g id="edge4" class="edge">
<title>Node4&#45;&gt;Node5</title>
<path fill="none" stroke="midnightblue" d="M328,-168.08C328,-161.01 328,-150.86 328,-141.99"/>
<polygon fill="midnightblue" stroke="midnightblue" points="331.5,-141.75 328,-131.75 324.5,-141.75 331.5,-141.75"/>
</g>
<!-- Node6 -->
<g id="node6" class="node">
<title>Node6</title>
<g id="a_node6"><a xlink:href="VortexConfig_8h.html" target="_top" xlink:title=" ">
<polygon fill="none" stroke="black" points="335.5,-56.5 335.5,-75.5 432.5,-75.5 432.5,-56.5 335.5,-56.5"/>
<text text-anchor="middle" x="384" y="-63.5" font-family="Helvetica,sans-Serif" font-size="10.00">../VortexConfig.h</text>
</a>
</g>
</g>
<!-- Node4&#45;&gt;Node6 -->
<g id="edge5" class="edge">
<title>Node4&#45;&gt;Node6</title>
<path fill="none" stroke="midnightblue" d="M336.83,-168.48C345.19,-159.96 357.53,-146.13 365,-132 372.73,-117.38 377.7,-99.21 380.61,-85.8"/>
<polygon fill="midnightblue" stroke="midnightblue" points="384.07,-86.33 382.59,-75.84 377.21,-84.97 384.07,-86.33"/>
</g>
<!-- Node8 -->
<g id="node8" class="node">
<title>Node8</title>
<g id="a_node8"><a xlink:href="ErrorBlinker_8h.html" target="_top" xlink:title=" ">
<polygon fill="none" stroke="black" points="170.5,-112.5 170.5,-131.5 281.5,-131.5 281.5,-112.5 170.5,-112.5"/>
<text text-anchor="middle" x="226" y="-119.5" font-family="Helvetica,sans-Serif" font-size="10.00">../Log/ErrorBlinker.h</text>
</a>
</g>
</g>
<!-- Node4&#45;&gt;Node8 -->
<g id="edge7" class="edge">
<title>Node4&#45;&gt;Node8</title>
<path fill="none" stroke="midnightblue" d="M311.61,-168.32C295.33,-159.7 270.13,-146.36 251.28,-136.39"/>
<polygon fill="midnightblue" stroke="midnightblue" points="252.82,-133.24 242.35,-131.65 249.55,-139.43 252.82,-133.24"/>
</g>
<!-- Node7 -->
<g id="node7" class="node">
<title>Node7</title>
<g id="a_node7"><a xlink:href="ColorConstants_8h.html" target="_top" xlink:title=" ">
<polygon fill="none" stroke="black" points="317,-0.5 317,-19.5 451,-19.5 451,-0.5 317,-0.5"/>
<text text-anchor="middle" x="384" y="-7.5" font-family="Helvetica,sans-Serif" font-size="10.00">Colors/ColorConstants.h</text>
</a>
</g>
</g>
<!-- Node6&#45;&gt;Node7 -->
<g id="edge6" class="edge">
<title>Node6&#45;&gt;Node7</title>
<path fill="none" stroke="midnightblue" d="M384,-56.08C384,-49.01 384,-38.86 384,-29.99"/>
<polygon fill="midnightblue" stroke="midnightblue" points="387.5,-29.75 384,-19.75 380.5,-29.75 387.5,-29.75"/>
</g>
<!-- Node8&#45;&gt;Node3 -->
<g id="edge8" class="edge">
<title>Node8&#45;&gt;Node3</title>
<path fill="none" stroke="midnightblue" d="M226,-112.08C226,-105.01 226,-94.86 226,-85.99"/>
<polygon fill="midnightblue" stroke="midnightblue" points="229.5,-85.75 226,-75.75 222.5,-85.75 229.5,-85.75"/>
</g>
<!-- Node8&#45;&gt;Node6 -->
<g id="edge9" class="edge">
<title>Node8&#45;&gt;Node6</title>
<path fill="none" stroke="midnightblue" d="M251.04,-112.44C277.62,-103.36 319.81,-88.94 349.52,-78.78"/>
<polygon fill="midnightblue" stroke="midnightblue" points="350.75,-82.06 359.08,-75.52 348.49,-75.44 350.75,-82.06"/>
</g>
<!-- Node9&#45;&gt;Node3 -->
<g id="edge11" class="edge">
<title>Node9&#45;&gt;Node3</title>
<path fill="none" stroke="midnightblue" d="M65.02,-168.06C77.46,-154.58 102.66,-128.82 128,-112 148.15,-98.63 172.92,-87.29 192.51,-79.34"/>
<polygon fill="midnightblue" stroke="midnightblue" points="193.94,-82.54 201.95,-75.61 191.37,-76.03 193.94,-82.54"/>
</g>
<!-- Node10&#45;&gt;Node3 -->
<g id="edge13" class="edge">
<title>Node10&#45;&gt;Node3</title>
<path fill="none" stroke="midnightblue" d="M432.18,-112.44C387.65,-102.63 314.86,-86.58 268.74,-76.42"/>
<polygon fill="midnightblue" stroke="midnightblue" points="269.28,-72.95 258.76,-74.22 267.77,-79.79 269.28,-72.95"/>
</g>
<!-- Node10&#45;&gt;Node6 -->
<g id="edge15" class="edge">
<title>Node10&#45;&gt;Node6</title>
<path fill="none" stroke="midnightblue" d="M457.02,-112.32C443.45,-103.9 422.62,-90.97 406.68,-81.07"/>
<polygon fill="midnightblue" stroke="midnightblue" points="408.29,-77.95 397.94,-75.65 404.59,-83.9 408.29,-77.95"/>
</g>
<!-- Node11 -->
<g id="node11" class="node">
<title>Node11</title>
<g id="a_node11"><a xlink:title=" ">
<polygon fill="none" stroke="#bfbfbf" points="450.5,-56.5 450.5,-75.5 503.5,-75.5 503.5,-56.5 450.5,-56.5"/>
<text text-anchor="middle" x="477" y="-63.5" font-family="Helvetica,sans-Serif" font-size="10.00">stdlib.h</text>
</a>
</g>
</g>
<!-- Node10&#45;&gt;Node11 -->
<g id="edge14" class="edge">
<title>Node10&#45;&gt;Node11</title>
<path fill="none" stroke="midnightblue" d="M471.99,-112.08C472.79,-104.93 473.93,-94.64 474.92,-85.69"/>
<polygon fill="midnightblue" stroke="midnightblue" points="478.4,-86.08 476.03,-75.75 471.44,-85.3 478.4,-86.08"/>
</g>
<!-- Node13&#45;&gt;Node3 -->
<g id="edge20" class="edge">
<title>Node13&#45;&gt;Node3</title>
<path fill="none" stroke="midnightblue" d="M547.48,-113.36C544.61,-112.89 541.77,-112.43 539,-112 442.61,-96.89 329.21,-81.07 268.86,-72.81"/>
<polygon fill="midnightblue" stroke="midnightblue" points="269.32,-69.34 258.94,-71.45 268.37,-76.28 269.32,-69.34"/>
</g>
<!-- Node13&#45;&gt;Node6 -->
<g id="edge19" class="edge">
<title>Node13&#45;&gt;Node6</title>
<path fill="none" stroke="midnightblue" d="M559.04,-112.44C523.21,-103.14 465.84,-88.25 426.61,-78.06"/>
<polygon fill="midnightblue" stroke="midnightblue" points="427.36,-74.64 416.8,-75.52 425.6,-81.42 427.36,-74.64"/>
</g>
<!-- Node14 -->
<g id="node14" class="node">
<title>Node14</title>
<g id="a_node14"><a xlink:title=" ">
<polygon fill="none" stroke="#bfbfbf" points="615,-56.5 615,-75.5 671,-75.5 671,-56.5 615,-56.5"/>
<text text-anchor="middle" x="643" y="-63.5" font-family="Helvetica,sans-Serif" font-size="10.00">stddef.h</text>
</a>
</g>
</g>
<!-- Node13&#45;&gt;Node14 -->
<g id="edge21" class="edge">
<title>Node13&#45;&gt;Node14</title>
<path fill="none" stroke="midnightblue" d="M600.42,-112.08C607.85,-104.22 618.85,-92.57 627.81,-83.08"/>
<polygon fill="midnightblue" stroke="midnightblue" points="630.41,-85.42 634.74,-75.75 625.32,-80.62 630.41,-85.42"/>
</g>
<!-- Node15 -->
<g id="node15" class="node">
<title>Node15</title>
<g id="a_node15"><a xlink:title=" ">
<polygon fill="none" stroke="#bfbfbf" points="543.5,-56.5 543.5,-75.5 596.5,-75.5 596.5,-56.5 543.5,-56.5"/>
<text text-anchor="middle" x="570" y="-63.5" font-family="Helvetica,sans-Serif" font-size="10.00">stdint.h</text>
</a>
</g>
</g>
<!-- Node13&#45;&gt;Node15 -->
<g id="edge22" class="edge">
<title>Node13&#45;&gt;Node15</title>
<path fill="none" stroke="midnightblue" d="M588.37,-112.08C585.39,-104.77 581.07,-94.18 577.38,-85.1"/>
<polygon fill="midnightblue" stroke="midnightblue" points="580.58,-83.69 573.57,-75.75 574.1,-86.33 580.58,-83.69"/>
</g>
</g>
</svg>
        <g id="navigator" transform="translate(0 0)" fill="#404254">
                <rect fill="#f2f5e9" fill-opacity="0.5" stroke="#606060" stroke-width=".5" x="0" y="0" width="60" height="60"/>
                <use id="zoomplus" xlink:href="#zoomPlus" x="17" y="9" onmousedown="handleZoom(evt,'in')"/>
                <use id="zoomminus" xlink:href="#zoomMin" x="42" y="9" onmousedown="handleZoom(evt,'out')"/>
                <use id="reset" xlink:href="#resetDef" x="30" y="36" onmousedown="handleReset()"/>
                <g id="arrowUp" xlink:href="#dirArrow" transform="translate(30 24)" onmousedown="handlePan(0,-1)">
                  <use xlink:href="#rim" fill="#404040">
                        <set attributeName="fill" to="#808080" begin="arrowUp.mouseover" end="arrowUp.mouseout"/>
                  </use>
                  <path fill="none" stroke="white" stroke-width="1.5" d="M0,-3.0v7 M-2.5,-0.5L0,-3.0L2.5,-0.5"/>
                </g>
                <g id="arrowRight" xlink:href="#dirArrow" transform="rotate(90) translate(36 -43)" onmousedown="handlePan(1,0)">
                  <use xlink:href="#rim" fill="#404040">
                        <set attributeName="fill" to="#808080" begin="arrowRight.mouseover" end="arrowRight.mouseout"/>
                  </use>
                  <path fill="none" stroke="white" stroke-width="1.5" d="M0,-3.0v7 M-2.5,-0.5L0,-3.0L2.5,-0.5"/>
                </g>
                <g id="arrowDown" xlink:href="#dirArrow" transform="rotate(180) translate(-30 -48)" onmousedown="handlePan(0,1)">
                  <use xlink:href="#rim" fill="#404040">
                        <set attributeName="fill" to="#808080" begin="arrowDown.mouseover" end="arrowDown.mouseout"/>
                  </use>
                  <path fill="none" stroke="white" stroke-width="1.5" d="M0,-3.0v7 M-2.5,-0.5L0,-3.0L2.5,-0.5"/>
                </g>
                <g id="arrowLeft" xlink:href="#dirArrow" transform="rotate(270) translate(-36 17)" onmousedown="handlePan(-1,0)">
                  <use xlink:href="#rim" fill="#404040">
                        <set attributeName="fill" to="#808080" begin="arrowLeft.mouseover" end="arrowLeft.mouseout"/>
                  </use>
                  <path fill="none" stroke="white" stroke-width="1.5" d="M0,-3.0v7 M-2.5,-0.5L0,-3.0L2.5,-0.5"/>
                </g>
        </g>
        <svg viewBox="0 0 15 15" width="100%" height="30px" preserveAspectRatio="xMaxYMin meet">
         <g id="arrow_out" transform="scale(0.3 0.3)">
          <a xlink:href="ByteStream_8cpp__incl_org.svg" target="_base">
           <rect id="button" ry="5" rx="5" y="6" x="6" height="38" width="38"
                fill="#f2f5e9" fill-opacity="0.5" stroke="#606060" stroke-width="1.0"/>
           <path id="arrow"
             d="M 11.500037,31.436501 C 11.940474,20.09759 22.043105,11.32322 32.158766,21.979434 L 37.068811,17.246167 C 37.068811,17.246167 37.088388,32 37.088388,32 L 22.160133,31.978069 C 22.160133,31.978069 26.997745,27.140456 26.997745,27.140456 C 18.528582,18.264221 13.291696,25.230495 11.500037,31.436501 z"
             style="fill:#404040;"/>
          </a>
         </g>
        </svg>
</svg>
