<?xml version="1.0" encoding="UTF-8" standalone="no"?>
<!DOCTYPE svg PUBLIC "-//W3C//DTD SVG 1.1//EN"
 "http://www.w3.org/Graphics/SVG/1.1/DTD/svg11.dtd">
<!-- Generated by graphviz version 2.43.0 (0)
 -->
<!-- Title: ModeSharing Pages: 1 -->
<svg width="193pt" height="353pt"
 viewBox="0.00 0.00 192.50 353.00" xmlns="http://www.w3.org/2000/svg" xmlns:xlink="http://www.w3.org/1999/xlink">
<g id="graph0" class="graph" transform="scale(1 1) rotate(0) translate(4 349)">
<title>ModeSharing</title>
<!-- Node1 -->
<g id="node1" class="node">
<title>Node1</title>
<g id="a_node1"><a xlink:title=" ">
<polygon fill="#bfbfbf" stroke="black" points="4.5,-0.5 4.5,-19.5 84.5,-19.5 84.5,-0.5 4.5,-0.5"/>
<text text-anchor="middle" x="44.5" y="-7.5" font-family="Helvetica,sans-Serif" font-size="10.00">ModeSharing</text>
</a>
</g>
</g>
<!-- Node2 -->
<g id="node2" class="node">
<title>Node2</title>
<g id="a_node2"><a xlink:href="classMenu.html" target="_top" xlink:title=" ">
<polygon fill="none" stroke="black" points="22.5,-57.5 22.5,-76.5 66.5,-76.5 66.5,-57.5 22.5,-57.5"/>
<text text-anchor="middle" x="44.5" y="-64.5" font-family="Helvetica,sans-Serif" font-size="10.00">Menu</text>
</a>
</g>
</g>
<!-- Node2&#45;&gt;Node1 -->
<g id="edge1" class="edge">
<title>Node2&#45;&gt;Node1</title>
<path fill="none" stroke="midnightblue" d="M44.5,-47.12C44.5,-37.82 44.5,-27.06 44.5,-19.71"/>
<polygon fill="midnightblue" stroke="midnightblue" points="41,-47.41 44.5,-57.41 48,-47.41 41,-47.41"/>
</g>
<!-- Node3 -->
<g id="node3" class="node">
<title>Node3</title>
<g id="a_node3"><a xlink:href="classMode.html" target="_top" xlink:title=" ">
<polygon fill="none" stroke="black" points="76.5,-124.5 76.5,-143.5 120.5,-143.5 120.5,-124.5 76.5,-124.5"/>
<text text-anchor="middle" x="98.5" y="-131.5" font-family="Helvetica,sans-Serif" font-size="10.00">Mode</text>
</a>
</g>
</g>
<!-- Node3&#45;&gt;Node2 -->
<g id="edge2" class="edge">
<title>Node3&#45;&gt;Node2</title>
<path fill="none" stroke="#9a32cd" stroke-dasharray="5,2" d="M84.6,-116.27C74.07,-103.6 60.04,-86.7 51.67,-76.63"/>
<polygon fill="#9a32cd" stroke="#9a32cd" points="82.13,-118.78 91.22,-124.23 87.52,-114.31 82.13,-118.78"/>
<text text-anchor="middle" x="117" y="-98" font-family="Helvetica,sans-Serif" font-size="10.00"> m_previewMode</text>
</g>
<!-- Node4 -->
<g id="node4" class="node">
<title>Node4</title>
<g id="a_node4"><a xlink:href="classPattern.html" target="_top" xlink:title=" ">
<polygon fill="none" stroke="black" points="106,-191.5 106,-210.5 157,-210.5 157,-191.5 106,-191.5"/>
<text text-anchor="middle" x="131.5" y="-198.5" font-family="Helvetica,sans-Serif" font-size="10.00">Pattern</text>
</a>
</g>
</g>
<!-- Node4&#45;&gt;Node3 -->
<g id="edge3" class="edge">
<title>Node4&#45;&gt;Node3</title>
<path fill="none" stroke="#9a32cd" stroke-dasharray="5,2" d="M122.44,-182.16C116.08,-169.63 107.85,-153.41 102.88,-143.63"/>
<polygon fill="#9a32cd" stroke="#9a32cd" points="119.4,-183.9 127.05,-191.23 125.64,-180.73 119.4,-183.9"/>
<text text-anchor="middle" x="150.5" y="-165" font-family="Helvetica,sans-Serif" font-size="10.00"> m_singlePats</text>
</g>
<!-- Node5 -->
<g id="node5" class="node">
<title>Node5</title>
<g id="a_node5"><a xlink:href="classColorset.html" target="_top" xlink:title=" ">
<polygon fill="none" stroke="black" points="73,-258.5 73,-277.5 130,-277.5 130,-258.5 73,-258.5"/>
<text text-anchor="middle" x="101.5" y="-265.5" font-family="Helvetica,sans-Serif" font-size="10.00">Colorset</text>
</a>
</g>
</g>
<!-- Node5&#45;&gt;Node4 -->
<g id="edge4" class="edge">
<title>Node5&#45;&gt;Node4</title>
<path fill="none" stroke="#9a32cd" stroke-dasharray="5,2" d="M109.9,-248.79C115.67,-236.31 123.05,-220.31 127.52,-210.63"/>
<polygon fill="#9a32cd" stroke="#9a32cd" points="106.56,-247.69 105.55,-258.23 112.91,-250.62 106.56,-247.69"/>
<text text-anchor="middle" x="146.5" y="-232" font-family="Helvetica,sans-Serif" font-size="10.00"> m_colorset</text>
</g>
<!-- Node6 -->
<g id="node6" class="node">
<title>Node6</title>
<g id="a_node6"><a xlink:href="classRGBColor.html" target="_top" xlink:title=" ">
<polygon fill="none" stroke="black" points="0,-325.5 0,-344.5 63,-344.5 63,-325.5 0,-325.5"/>
<text text-anchor="middle" x="31.5" y="-332.5" font-family="Helvetica,sans-Serif" font-size="10.00">RGBColor</text>
</a>
</g>
</g>
<!-- Node6&#45;&gt;Node2 -->
<g id="edge6" class="edge">
<title>Node6&#45;&gt;Node2</title>
<path fill="none" stroke="#9a32cd" stroke-dasharray="5,2" d="M24.53,-315.82C20.22,-302.94 15.5,-285.16 15.5,-269 15.5,-269 15.5,-269 15.5,-133 15.5,-111.25 29.21,-88.68 37.77,-76.7"/>
<polygon fill="#9a32cd" stroke="#9a32cd" points="21.28,-317.11 27.95,-325.34 27.87,-314.74 21.28,-317.11"/>
<text text-anchor="middle" x="51.5" y="-198.5" font-family="Helvetica,sans-Serif" font-size="10.00"> m_menuColor</text>
</g>
<!-- Node6&#45;&gt;Node5 -->
<g id="edge5" class="edge">
<title>Node6&#45;&gt;Node5</title>
<path fill="none" stroke="#9a32cd" stroke-dasharray="5,2" d="M48.35,-318.36C62.11,-305.58 81.05,-287.99 92.21,-277.63"/>
<polygon fill="#9a32cd" stroke="#9a32cd" points="45.89,-315.86 40.94,-325.23 50.65,-320.99 45.89,-315.86"/>
<text text-anchor="middle" x="97" y="-299" font-family="Helvetica,sans-Serif" font-size="10.00"> m_palette</text>
</g>
</g>
</svg>
