<?xml version="1.0" encoding="UTF-8" standalone="no"?>
<!DOCTYPE svg PUBLIC "-//W3C//DTD SVG 1.1//EN"
 "http://www.w3.org/Graphics/SVG/1.1/DTD/svg11.dtd">
<!-- Generated by graphviz version 2.43.0 (0)
 -->
<!-- Title: VLReceiver Pages: 1 -->
<!--zoomable 1067 -->
<svg id="main" version="1.1" xmlns="http://www.w3.org/2000/svg" xmlns:xlink="http://www.w3.org/1999/xlink" xml:space="preserve" onload="init(evt)">
<style type="text/css"><![CDATA[
.edge:hover path { stroke: red; }
.edge:hover polygon { stroke: red; fill: red; }
]]></style>
<script type="text/javascript"><![CDATA[
var edges = document.getElementsByTagName('g');
if (edges && edges.length) {
  for (var i=0;i<edges.length;i++) {
    if (edges[i].id.substr(0,4)=='edge') {
      edges[i].setAttribute('class','edge');
    }
  }
}
]]></script>
        <defs>
                <circle id="rim" cx="0" cy="0" r="7"/>
                <circle id="rim2" cx="0" cy="0" r="3.5"/>
                <g id="zoomPlus">
                        <use xlink:href="#rim" fill="#404040">
                                <set attributeName="fill" to="#808080" begin="zoomplus.mouseover" end="zoomplus.mouseout"/>
                        </use>
                        <path d="M-4,0h8M0,-4v8" fill="none" stroke="white" stroke-width="1.5" pointer-events="none"/>
                </g>
                <g id="zoomMin">
                        <use xlink:href="#rim" fill="#404040">
                                <set attributeName="fill" to="#808080" begin="zoomminus.mouseover" end="zoomminus.mouseout"/>
                        </use>
                        <path d="M-4,0h8" fill="none" stroke="white" stroke-width="1.5" pointer-events="none"/>
                </g>
                <g id="dirArrow">
                        <path fill="none" stroke="white" stroke-width="1.5" d="M0,-3.0v7 M-2.5,-0.5L0,-3.0L2.5,-0.5"/>
                </g>
               <g id="resetDef">
                       <use xlink:href="#rim2" fill="#404040">
                               <set attributeName="fill" to="#808080" begin="reset.mouseover" end="reset.mouseout"/>
                       </use>
               </g>
        </defs>

<script type="text/javascript">
var viewWidth = 1275;
var viewHeight = 1067;
var sectionId = 'dynsection-0';
</script>
<script xlink:href="svgpan.js"/>
<svg id="graph" class="graph">
<g id="viewport">
<title>VLReceiver</title>
<!-- Node1 -->
<g id="node1" class="node">
<title>Node1</title>
<g id="a_node1"><a xlink:title=" ">
<polygon fill="#bfbfbf" stroke="black" points="182,-429.5 182,-448.5 253,-448.5 253,-429.5 182,-429.5"/>
<text text-anchor="middle" x="217.5" y="-436.5" font-family="Helvetica,sans-Serif" font-size="10.00">VLReceiver</text>
</a>
</g>
</g>
<!-- Node2 -->
<g id="node2" class="node">
<title>Node2</title>
<g id="a_node2"><a xlink:href="classVortexEngine.html" target="_top" xlink:title=" ">
<polygon fill="none" stroke="black" points="389,-463.5 389,-482.5 470,-482.5 470,-463.5 389,-463.5"/>
<text text-anchor="middle" x="429.5" y="-470.5" font-family="Helvetica,sans-Serif" font-size="10.00">VortexEngine</text>
</a>
</g>
</g>
<!-- Node1&#45;&gt;Node2 -->
<g id="edge2" class="edge">
<title>Node1&#45;&gt;Node2</title>
<path fill="none" stroke="#9a32cd" stroke-dasharray="5,2" d="M263.25,-446.24C300.48,-452.27 352.98,-460.77 388.75,-466.56"/>
<polygon fill="#9a32cd" stroke="#9a32cd" points="263.61,-442.76 253.18,-444.61 262.49,-449.67 263.61,-442.76"/>
<text text-anchor="middle" x="336" y="-465" font-family="Helvetica,sans-Serif" font-size="10.00"> m_vlReceiver</text>
</g>
<!-- Node2&#45;&gt;Node1 -->
<g id="edge1" class="edge">
<title>Node2&#45;&gt;Node1</title>
<path fill="none" stroke="#9a32cd" stroke-dasharray="5,2" d="M407.7,-457.58C397.25,-450.78 384.06,-443.53 371,-440 331.64,-429.37 284.45,-431.17 253.09,-434.29"/>
<polygon fill="#9a32cd" stroke="#9a32cd" points="405.88,-460.57 416.1,-463.34 409.84,-454.8 405.88,-460.57"/>
<text text-anchor="middle" x="336" y="-443" font-family="Helvetica,sans-Serif" font-size="10.00"> m_engine</text>
</g>
<!-- Node2&#45;&gt;Node2 -->
<g id="edge10" class="edge">
<title>Node2&#45;&gt;Node2</title>
<path fill="none" stroke="#9a32cd" stroke-dasharray="5,2" d="M412.46,-492.4C413.6,-497.31 419.28,-501 429.5,-501 445.85,-501 450.58,-491.57 443.68,-482.76"/>
<polygon fill="#9a32cd" stroke="#9a32cd" points="415.84,-493.34 415.32,-482.76 409.12,-491.35 415.84,-493.34"/>
<text text-anchor="middle" x="429.5" y="-504" font-family="Helvetica,sans-Serif" font-size="10.00"> m_engine</text>
</g>
<!-- Node3 -->
<g id="node3" class="node">
<title>Node3</title>
<g id="a_node3"><a xlink:href="classStorage.html" target="_top" xlink:title=" ">
<polygon fill="none" stroke="black" points="610,-571.5 610,-590.5 664,-590.5 664,-571.5 610,-571.5"/>
<text text-anchor="middle" x="637" y="-578.5" font-family="Helvetica,sans-Serif" font-size="10.00">Storage</text>
</a>
</g>
</g>
<!-- Node2&#45;&gt;Node3 -->
<g id="edge4" class="edge">
<title>Node2&#45;&gt;Node3</title>
<path fill="none" stroke="#9a32cd" stroke-dasharray="5,2" d="M446.65,-490.02C457.43,-500.43 472.44,-513.19 488,-521 523.94,-539.03 540.05,-523.99 576,-542 585.31,-546.67 585.45,-551.06 594,-557 601.45,-562.17 610.09,-567.25 617.59,-571.4"/>
<polygon fill="#9a32cd" stroke="#9a32cd" points="448.83,-487.25 439.29,-482.64 443.87,-492.2 448.83,-487.25"/>
<text text-anchor="middle" x="532" y="-545" font-family="Helvetica,sans-Serif" font-size="10.00"> m_engine</text>
</g>
<!-- Node4 -->
<g id="node4" class="node">
<title>Node4</title>
<g id="a_node4"><a xlink:href="classIRSender.html" target="_top" xlink:title=" ">
<polygon fill="none" stroke="black" points="607,-958.5 607,-977.5 667,-977.5 667,-958.5 607,-958.5"/>
<text text-anchor="middle" x="637" y="-965.5" font-family="Helvetica,sans-Serif" font-size="10.00">IRSender</text>
</a>
</g>
</g>
<!-- Node2&#45;&gt;Node4 -->
<g id="edge6" class="edge">
<title>Node2&#45;&gt;Node4</title>
<path fill="none" stroke="#9a32cd" stroke-dasharray="5,2" d="M430.17,-492.9C429.27,-571.95 430,-862.78 488,-929 491.97,-933.54 564.71,-951.24 606.7,-961.17"/>
<polygon fill="#9a32cd" stroke="#9a32cd" points="433.67,-492.87 430.31,-482.82 426.67,-492.77 433.67,-492.87"/>
<text text-anchor="middle" x="532" y="-956" font-family="Helvetica,sans-Serif" font-size="10.00"> m_engine</text>
</g>
<!-- Node8 -->
<g id="node8" class="node">
<title>Node8</title>
<g id="a_node8"><a xlink:href="classButtons.html" target="_top" xlink:title=" ">
<polygon fill="none" stroke="black" points="792,-143.5 792,-162.5 846,-162.5 846,-143.5 792,-143.5"/>
<text text-anchor="middle" x="819" y="-150.5" font-family="Helvetica,sans-Serif" font-size="10.00">Buttons</text>
</a>
</g>
</g>
<!-- Node2&#45;&gt;Node8 -->
<g id="edge12" class="edge">
<title>Node2&#45;&gt;Node8</title>
<path fill="none" stroke="#9a32cd" stroke-dasharray="5,2" d="M431.07,-453.07C433.35,-388.77 443.91,-188.46 488,-145 572.9,-61.33 737.69,-118.9 796.5,-143.44"/>
<polygon fill="#9a32cd" stroke="#9a32cd" points="427.56,-453.32 430.74,-463.43 434.56,-453.54 427.56,-453.32"/>
<text text-anchor="middle" x="637" y="-111" font-family="Helvetica,sans-Serif" font-size="10.00"> m_engine</text>
</g>
<!-- Node9 -->
<g id="node9" class="node">
<title>Node9</title>
<g id="a_node9"><a xlink:href="classButton.html" target="_top" xlink:title=" ">
<polygon fill="none" stroke="black" points="612.5,-182.5 612.5,-201.5 661.5,-201.5 661.5,-182.5 612.5,-182.5"/>
<text text-anchor="middle" x="637" y="-189.5" font-family="Helvetica,sans-Serif" font-size="10.00">Button</text>
</a>
</g>
</g>
<!-- Node2&#45;&gt;Node9 -->
<g id="edge14" class="edge">
<title>Node2&#45;&gt;Node9</title>
<path fill="none" stroke="#9a32cd" stroke-dasharray="5,2" d="M431.39,-453.28C434.49,-394.68 446.97,-223.54 488,-190 523.22,-161.22 580.49,-173.19 612.48,-183.32"/>
<polygon fill="#9a32cd" stroke="#9a32cd" points="427.89,-453.27 430.89,-463.43 434.88,-453.61 427.89,-453.27"/>
<text text-anchor="middle" x="532" y="-193" font-family="Helvetica,sans-Serif" font-size="10.00"> m_engine</text>
</g>
<!-- Node10 -->
<g id="node10" class="node">
<title>Node10</title>
<g id="a_node10"><a xlink:href="classLeds.html" target="_top" xlink:title=" ">
<polygon fill="none" stroke="black" points="617.5,-856.5 617.5,-875.5 656.5,-875.5 656.5,-856.5 617.5,-856.5"/>
<text text-anchor="middle" x="637" y="-863.5" font-family="Helvetica,sans-Serif" font-size="10.00">Leds</text>
</a>
</g>
</g>
<!-- Node2&#45;&gt;Node10 -->
<g id="edge16" class="edge">
<title>Node2&#45;&gt;Node10</title>
<path fill="none" stroke="#9a32cd" stroke-dasharray="5,2" d="M430.92,-492.62C432.76,-559.58 442.22,-777.74 488,-827 515.37,-856.45 537.17,-837.55 576,-848 589.97,-851.76 605.62,-856.47 617.43,-860.13"/>
<polygon fill="#9a32cd" stroke="#9a32cd" points="434.42,-492.48 430.67,-482.57 427.42,-492.66 434.42,-492.48"/>
<text text-anchor="middle" x="532" y="-851" font-family="Helvetica,sans-Serif" font-size="10.00"> m_engine</text>
</g>
<!-- Node11 -->
<g id="node11" class="node">
<title>Node11</title>
<g id="a_node11"><a xlink:href="classPatternBuilder.html" target="_top" xlink:title=" ">
<polygon fill="none" stroke="black" points="594,-788.5 594,-807.5 680,-807.5 680,-788.5 594,-788.5"/>
<text text-anchor="middle" x="637" y="-795.5" font-family="Helvetica,sans-Serif" font-size="10.00">PatternBuilder</text>
</a>
</g>
</g>
<!-- Node2&#45;&gt;Node11 -->
<g id="edge18" class="edge">
<title>Node2&#45;&gt;Node11</title>
<path fill="none" stroke="#9a32cd" stroke-dasharray="5,2" d="M431.77,-492.89C435.9,-551.29 450.91,-720.56 488,-759 515.92,-787.94 537.17,-769.55 576,-780 585.56,-782.57 595.9,-785.59 605.26,-788.41"/>
<polygon fill="#9a32cd" stroke="#9a32cd" points="435.25,-492.5 431.08,-482.76 428.27,-492.98 435.25,-492.5"/>
<text text-anchor="middle" x="532" y="-783" font-family="Helvetica,sans-Serif" font-size="10.00"> m_engine</text>
</g>
<!-- Node12 -->
<g id="node12" class="node">
<title>Node12</title>
<g id="a_node12"><a xlink:href="classVLSender.html" target="_top" xlink:title=" ">
<polygon fill="none" stroke="black" points="606,-334.5 606,-353.5 668,-353.5 668,-334.5 606,-334.5"/>
<text text-anchor="middle" x="637" y="-341.5" font-family="Helvetica,sans-Serif" font-size="10.00">VLSender</text>
</a>
</g>
</g>
<!-- Node2&#45;&gt;Node12 -->
<g id="edge20" class="edge">
<title>Node2&#45;&gt;Node12</title>
<path fill="none" stroke="#9a32cd" stroke-dasharray="5,2" d="M437.97,-453.98C446.87,-433.82 463.66,-402.52 488,-385 520.81,-361.39 537.08,-372.92 576,-362 585.74,-359.27 596.32,-356.15 605.85,-353.28"/>
<polygon fill="#9a32cd" stroke="#9a32cd" points="434.67,-452.8 434.04,-463.37 441.13,-455.5 434.67,-452.8"/>
<text text-anchor="middle" x="532" y="-388" font-family="Helvetica,sans-Serif" font-size="10.00"> m_engine</text>
</g>
<!-- Node13 -->
<g id="node13" class="node">
<title>Node13</title>
<g id="a_node13"><a xlink:href="classModes.html" target="_top" xlink:title=" ">
<polygon fill="none" stroke="black" points="1218,-541.5 1218,-560.5 1267,-560.5 1267,-541.5 1218,-541.5"/>
<text text-anchor="middle" x="1242.5" y="-548.5" font-family="Helvetica,sans-Serif" font-size="10.00">Modes</text>
</a>
</g>
</g>
<!-- Node2&#45;&gt;Node13 -->
<g id="edge24" class="edge">
<title>Node2&#45;&gt;Node13</title>
<path fill="none" stroke="#9a32cd" stroke-dasharray="5,2" d="M462.6,-486.32C470.83,-489.6 479.71,-493.03 488,-496 572.94,-526.46 603.24,-514.56 680,-562 689.36,-567.79 687.77,-574.93 698,-579 886.11,-653.79 1140.04,-583.78 1217.86,-558.96"/>
<polygon fill="#9a32cd" stroke="#9a32cd" points="463.88,-483.06 453.3,-482.56 461.26,-489.55 463.88,-483.06"/>
<text text-anchor="middle" x="819" y="-613" font-family="Helvetica,sans-Serif" font-size="10.00"> m_engine</text>
</g>
<!-- Node14 -->
<g id="node14" class="node">
<title>Node14</title>
<g id="a_node14"><a xlink:href="classModes_1_1ModeLink.html" target="_top" xlink:title=" ">
<polygon fill="none" stroke="black" points="992,-460.5 992,-479.5 1094,-479.5 1094,-460.5 992,-460.5"/>
<text text-anchor="middle" x="1043" y="-467.5" font-family="Helvetica,sans-Serif" font-size="10.00">Modes::ModeLink</text>
</a>
</g>
</g>
<!-- Node2&#45;&gt;Node14 -->
<g id="edge32" class="edge">
<title>Node2&#45;&gt;Node14</title>
<path fill="none" stroke="#9a32cd" stroke-dasharray="5,2" d="M480.41,-472.76C595.23,-472.19 877.08,-470.81 992,-470.25"/>
<polygon fill="#9a32cd" stroke="#9a32cd" points="480.13,-469.26 470.15,-472.81 480.17,-476.26 480.13,-469.26"/>
<text text-anchor="middle" x="736" y="-474" font-family="Helvetica,sans-Serif" font-size="10.00"> m_engine</text>
</g>
<!-- Node15 -->
<g id="node15" class="node">
<title>Node15</title>
<g id="a_node15"><a xlink:href="classMode.html" target="_top" xlink:title=" ">
<polygon fill="none" stroke="black" points="797,-349.5 797,-368.5 841,-368.5 841,-349.5 797,-349.5"/>
<text text-anchor="middle" x="819" y="-356.5" font-family="Helvetica,sans-Serif" font-size="10.00">Mode</text>
</a>
</g>
</g>
<!-- Node2&#45;&gt;Node15 -->
<g id="edge27" class="edge">
<title>Node2&#45;&gt;Node15</title>
<path fill="none" stroke="#9a32cd" stroke-dasharray="5,2" d="M445.78,-456.1C456.54,-445.26 471.85,-431.81 488,-424 543.6,-397.13 732.57,-370.29 796.59,-361.77"/>
<polygon fill="#9a32cd" stroke="#9a32cd" points="443.18,-453.76 438.81,-463.41 448.24,-458.59 443.18,-453.76"/>
<text text-anchor="middle" x="637" y="-396" font-family="Helvetica,sans-Serif" font-size="10.00"> m_engine</text>
</g>
<!-- Node16 -->
<g id="node16" class="node">
<title>Node16</title>
<g id="a_node16"><a xlink:href="classPattern.html" target="_top" xlink:title=" ">
<polygon fill="none" stroke="black" points="611.5,-296.5 611.5,-315.5 662.5,-315.5 662.5,-296.5 611.5,-296.5"/>
<text text-anchor="middle" x="637" y="-303.5" font-family="Helvetica,sans-Serif" font-size="10.00">Pattern</text>
</a>
</g>
</g>
<!-- Node2&#45;&gt;Node16 -->
<g id="edge29" class="edge">
<title>Node2&#45;&gt;Node16</title>
<path fill="none" stroke="#9a32cd" stroke-dasharray="5,2" d="M431.32,-453.11C433.89,-418.98 444.51,-349.78 488,-317 523.9,-289.94 579.63,-294.66 611.47,-300.41"/>
<polygon fill="#9a32cd" stroke="#9a32cd" points="427.81,-453.04 430.71,-463.23 434.8,-453.46 427.81,-453.04"/>
<text text-anchor="middle" x="532" y="-320" font-family="Helvetica,sans-Serif" font-size="10.00"> m_engine</text>
</g>
<!-- Node19 -->
<g id="node19" class="node">
<title>Node19</title>
<g id="a_node19"><a xlink:href="classSerialComs.html" target="_top" xlink:title=" ">
<polygon fill="none" stroke="black" points="601,-720.5 601,-739.5 673,-739.5 673,-720.5 601,-720.5"/>
<text text-anchor="middle" x="637" y="-727.5" font-family="Helvetica,sans-Serif" font-size="10.00">SerialComs</text>
</a>
</g>
</g>
<!-- Node2&#45;&gt;Node19 -->
<g id="edge36" class="edge">
<title>Node2&#45;&gt;Node19</title>
<path fill="none" stroke="#9a32cd" stroke-dasharray="5,2" d="M433.1,-492.78C439.86,-541.07 459.42,-663.09 488,-691 516.77,-719.09 537.17,-701.55 576,-712 585.56,-714.57 595.9,-717.59 605.26,-720.41"/>
<polygon fill="#9a32cd" stroke="#9a32cd" points="436.55,-492.11 431.73,-482.67 429.61,-493.05 436.55,-492.11"/>
<text text-anchor="middle" x="532" y="-715" font-family="Helvetica,sans-Serif" font-size="10.00"> m_engine</text>
</g>
<!-- Node20 -->
<g id="node20" class="node">
<title>Node20</title>
<g id="a_node20"><a xlink:href="classIRReceiver.html" target="_top" xlink:title=" ">
<polygon fill="none" stroke="black" points="602.5,-258.5 602.5,-277.5 671.5,-277.5 671.5,-258.5 602.5,-258.5"/>
<text text-anchor="middle" x="637" y="-265.5" font-family="Helvetica,sans-Serif" font-size="10.00">IRReceiver</text>
</a>
</g>
</g>
<!-- Node2&#45;&gt;Node20 -->
<g id="edge38" class="edge">
<title>Node2&#45;&gt;Node20</title>
<path fill="none" stroke="#9a32cd" stroke-dasharray="5,2" d="M429.78,-453.21C429.53,-413.45 435.21,-324.01 488,-281 504.9,-267.23 563.98,-265.98 602.19,-266.71"/>
<polygon fill="#9a32cd" stroke="#9a32cd" points="426.29,-453.51 429.99,-463.44 433.28,-453.37 426.29,-453.51"/>
<text text-anchor="middle" x="532" y="-284" font-family="Helvetica,sans-Serif" font-size="10.00"> m_engine</text>
</g>
<!-- Node21 -->
<g id="node21" class="node">
<title>Node21</title>
<g id="a_node21"><a xlink:href="classTime.html" target="_top" xlink:title=" ">
<polygon fill="none" stroke="black" points="616.5,-622.5 616.5,-641.5 657.5,-641.5 657.5,-622.5 616.5,-622.5"/>
<text text-anchor="middle" x="637" y="-629.5" font-family="Helvetica,sans-Serif" font-size="10.00">Time</text>
</a>
</g>
</g>
<!-- Node2&#45;&gt;Node21 -->
<g id="edge41" class="edge">
<title>Node2&#45;&gt;Node21</title>
<path fill="none" stroke="#9a32cd" stroke-dasharray="5,2" d="M434.68,-492.35C441.35,-518.38 456.92,-564.25 488,-589 519.46,-614.05 537.5,-598.39 576,-610 589.7,-614.13 604.83,-619.69 616.47,-624.18"/>
<polygon fill="#9a32cd" stroke="#9a32cd" points="438.07,-491.45 432.35,-482.53 431.26,-493.07 438.07,-491.45"/>
<text text-anchor="middle" x="532" y="-613" font-family="Helvetica,sans-Serif" font-size="10.00"> m_engine</text>
</g>
<!-- Node22 -->
<g id="node22" class="node">
<title>Node22</title>
<g id="a_node22"><a xlink:href="classMenus.html" target="_top" xlink:title=" ">
<polygon fill="none" stroke="black" points="1218,-220.5 1218,-239.5 1267,-239.5 1267,-220.5 1218,-220.5"/>
<text text-anchor="middle" x="1242.5" y="-227.5" font-family="Helvetica,sans-Serif" font-size="10.00">Menus</text>
</a>
</g>
</g>
<!-- Node2&#45;&gt;Node22 -->
<g id="edge43" class="edge">
<title>Node2&#45;&gt;Node22</title>
<path fill="none" stroke="#9a32cd" stroke-dasharray="5,2" d="M430.17,-452.88C429.4,-377.82 430.91,-115.61 488,-61 535.74,-15.33 569.93,-47 636,-47 636,-47 636,-47 1044,-47 1147.07,-47 1219.11,-182.77 1237.11,-220.42"/>
<polygon fill="#9a32cd" stroke="#9a32cd" points="426.68,-453.31 430.31,-463.26 433.68,-453.22 426.68,-453.31"/>
<text text-anchor="middle" x="819" y="-50" font-family="Helvetica,sans-Serif" font-size="10.00"> m_engine</text>
</g>
<!-- Node23 -->
<g id="node23" class="node">
<title>Node23</title>
<g id="a_node23"><a xlink:href="classMenu.html" target="_top" xlink:title=" ">
<polygon fill="none" stroke="black" points="1021,-220.5 1021,-239.5 1065,-239.5 1065,-220.5 1021,-220.5"/>
<text text-anchor="middle" x="1043" y="-227.5" font-family="Helvetica,sans-Serif" font-size="10.00">Menu</text>
</a>
</g>
</g>
<!-- Node2&#45;&gt;Node23 -->
<g id="edge47" class="edge">
<title>Node2&#45;&gt;Node23</title>
<path fill="none" stroke="#9a32cd" stroke-dasharray="5,2" d="M432.11,-453.42C436.87,-400.88 452.83,-258.84 488,-231 530.32,-197.49 924.47,-221.98 1020.82,-228.52"/>
<polygon fill="#9a32cd" stroke="#9a32cd" points="428.62,-453.2 431.24,-463.46 435.59,-453.8 428.62,-453.2"/>
<text text-anchor="middle" x="736" y="-219" font-family="Helvetica,sans-Serif" font-size="10.00"> m_engine</text>
</g>
<!-- Node3&#45;&gt;Node2 -->
<g id="edge3" class="edge">
<title>Node3&#45;&gt;Node2</title>
<path fill="none" stroke="#9a32cd" stroke-dasharray="5,2" d="M599.75,-577.83C562.07,-573.97 506.11,-566.52 488,-555 459.98,-537.17 441.76,-500.3 434.32,-482.73"/>
<polygon fill="#9a32cd" stroke="#9a32cd" points="599.56,-581.32 609.85,-578.82 600.24,-574.36 599.56,-581.32"/>
<text text-anchor="middle" x="532" y="-577" font-family="Helvetica,sans-Serif" font-size="10.00"> m_storage</text>
</g>
<!-- Node4&#45;&gt;Node2 -->
<g id="edge5" class="edge">
<title>Node4&#45;&gt;Node2</title>
<path fill="none" stroke="#9a32cd" stroke-dasharray="5,2" d="M619.82,-951.09C608.49,-940.18 592.49,-926.49 576,-918 540.05,-899.51 514.82,-925.25 488,-895 431.47,-831.23 430.12,-540.18 430.42,-482.83"/>
<polygon fill="#9a32cd" stroke="#9a32cd" points="617.62,-953.85 627.18,-958.43 622.57,-948.89 617.62,-953.85"/>
<text text-anchor="middle" x="532" y="-921" font-family="Helvetica,sans-Serif" font-size="10.00"> m_irSender</text>
</g>
<!-- Node5 -->
<g id="node5" class="node">
<title>Node5</title>
<g id="a_node5"><a xlink:href="classBitStream.html" target="_top" xlink:title=" ">
<polygon fill="none" stroke="black" points="0,-262.5 0,-281.5 65,-281.5 65,-262.5 0,-262.5"/>
<text text-anchor="middle" x="32.5" y="-269.5" font-family="Helvetica,sans-Serif" font-size="10.00">BitStream</text>
</a>
</g>
</g>
<!-- Node5&#45;&gt;Node1 -->
<g id="edge48" class="edge">
<title>Node5&#45;&gt;Node1</title>
<path fill="none" stroke="#9a32cd" stroke-dasharray="5,2" d="M51.87,-288.76C89.79,-323.37 175.73,-401.8 205.84,-429.27"/>
<polygon fill="#9a32cd" stroke="#9a32cd" points="53.88,-285.86 44.13,-281.7 49.16,-291.03 53.88,-285.86"/>
<text text-anchor="middle" x="108.5" y="-363" font-family="Helvetica,sans-Serif" font-size="10.00"> m_vlData</text>
</g>
<!-- Node5&#45;&gt;Node4 -->
<g id="edge7" class="edge">
<title>Node5&#45;&gt;Node4</title>
<path fill="none" stroke="#9a32cd" stroke-dasharray="5,2" d="M33.49,-291.99C33.89,-398.53 41.69,-898.36 152,-992 291.5,-1110.42 543.33,-1010.29 615.92,-977.5"/>
<polygon fill="#9a32cd" stroke="#9a32cd" points="36.99,-291.7 33.47,-281.7 29.99,-291.71 36.99,-291.7"/>
<text text-anchor="middle" x="336" y="-1051" font-family="Helvetica,sans-Serif" font-size="10.00"> m_bitStream</text>
</g>
<!-- Node5&#45;&gt;Node12 -->
<g id="edge21" class="edge">
<title>Node5&#45;&gt;Node12</title>
<path fill="none" stroke="#9a32cd" stroke-dasharray="5,2" d="M55.39,-256.74C136.04,-202.56 419.91,-29.89 576,-169 602.05,-192.22 573.43,-296.81 594,-325 597.02,-329.14 601.15,-332.39 605.66,-334.95"/>
<polygon fill="#9a32cd" stroke="#9a32cd" points="53.29,-253.94 46.99,-262.46 57.23,-259.73 53.29,-253.94"/>
<text text-anchor="middle" x="336" y="-138" font-family="Helvetica,sans-Serif" font-size="10.00"> m_bitStream</text>
</g>
<!-- Node5&#45;&gt;Node20 -->
<g id="edge39" class="edge">
<title>Node5&#45;&gt;Node20</title>
<path fill="none" stroke="#9a32cd" stroke-dasharray="5,2" d="M36.14,-252.17C42.2,-209.87 58.5,-112.91 83,-92 214.63,20.35 308.53,-111.27 470,-49 479.21,-45.45 478.61,-39.04 488,-36 525.21,-23.97 546.96,-9.8 576,-36 605.02,-62.19 579.91,-174.53 594,-211 601.27,-229.8 616.46,-247.91 626.44,-258.49"/>
<polygon fill="#9a32cd" stroke="#9a32cd" points="32.64,-251.94 34.73,-262.33 39.57,-252.9 32.64,-251.94"/>
<text text-anchor="middle" x="336" y="-70" font-family="Helvetica,sans-Serif" font-size="10.00"> m_irData</text>
</g>
<!-- Node6 -->
<g id="node6" class="node">
<title>Node6</title>
<g id="a_node6"><a xlink:href="classByteStream.html" target="_top" xlink:title=" ">
<polygon fill="none" stroke="black" points="392.5,-963.5 392.5,-982.5 466.5,-982.5 466.5,-963.5 392.5,-963.5"/>
<text text-anchor="middle" x="429.5" y="-970.5" font-family="Helvetica,sans-Serif" font-size="10.00">ByteStream</text>
</a>
</g>
</g>
<!-- Node6&#45;&gt;Node4 -->
<g id="edge8" class="edge">
<title>Node6&#45;&gt;Node4</title>
<path fill="none" stroke="#9a32cd" stroke-dasharray="5,2" d="M476.77,-971.87C516.6,-970.91 572.85,-969.54 606.74,-968.71"/>
<polygon fill="#9a32cd" stroke="#9a32cd" points="476.68,-968.38 466.77,-972.12 476.85,-975.37 476.68,-968.38"/>
<text text-anchor="middle" x="532" y="-974" font-family="Helvetica,sans-Serif" font-size="10.00"> m_serialBuf</text>
</g>
<!-- Node6&#45;&gt;Node12 -->
<g id="edge22" class="edge">
<title>Node6&#45;&gt;Node12</title>
<path fill="none" stroke="#9a32cd" stroke-dasharray="5,2" d="M431.63,-953.26C435.43,-893.78 449.74,-717.89 488,-678 515.83,-648.98 550.12,-687.77 576,-657 617.42,-607.76 559.99,-422.62 594,-368 597.82,-361.87 603.81,-357.15 610.09,-353.58"/>
<polygon fill="#9a32cd" stroke="#9a32cd" points="428.13,-953.05 431.02,-963.24 435.12,-953.47 428.13,-953.05"/>
<text text-anchor="middle" x="532" y="-681" font-family="Helvetica,sans-Serif" font-size="10.00"> m_serialBuf</text>
</g>
<!-- Node6&#45;&gt;Node14 -->
<g id="edge33" class="edge">
<title>Node6&#45;&gt;Node14</title>
<path fill="none" stroke="#9a32cd" stroke-dasharray="5,2" d="M461.17,-986.41C512.43,-1006.52 616.17,-1037.1 680,-987 844.84,-857.61 643.23,-676.58 792,-529 799.3,-521.76 925.93,-494.31 996.1,-479.54"/>
<polygon fill="#9a32cd" stroke="#9a32cd" points="462.23,-983.06 451.65,-982.55 459.6,-989.55 462.23,-983.06"/>
<text text-anchor="middle" x="736" y="-971" font-family="Helvetica,sans-Serif" font-size="10.00"> m_storedMode</text>
</g>
<!-- Node7 -->
<g id="node7" class="node">
<title>Node7</title>
<g id="a_node7"><a xlink:href="structByteStream_1_1RawBuffer.html" target="_top" xlink:title=" ">
<polygon fill="none" stroke="black" points="152,-963.5 152,-982.5 283,-982.5 283,-963.5 152,-963.5"/>
<text text-anchor="middle" x="217.5" y="-970.5" font-family="Helvetica,sans-Serif" font-size="10.00">ByteStream::RawBuffer</text>
</a>
</g>
</g>
<!-- Node7&#45;&gt;Node6 -->
<g id="edge9" class="edge">
<title>Node7&#45;&gt;Node6</title>
<path fill="none" stroke="#9a32cd" stroke-dasharray="5,2" d="M293.5,-973C327.14,-973 365.26,-973 392.4,-973"/>
<polygon fill="#9a32cd" stroke="#9a32cd" points="293.22,-969.5 283.22,-973 293.22,-976.5 293.22,-969.5"/>
<text text-anchor="middle" x="336" y="-976" font-family="Helvetica,sans-Serif" font-size="10.00"> m_pData</text>
</g>
<!-- Node8&#45;&gt;Node2 -->
<g id="edge11" class="edge">
<title>Node8&#45;&gt;Node2</title>
<path fill="none" stroke="#9a32cd" stroke-dasharray="5,2" d="M781.86,-149.44C705.33,-142.73 530.44,-132.08 488,-170 442.79,-210.41 432.57,-416.5 430.81,-463.47"/>
<polygon fill="#9a32cd" stroke="#9a32cd" points="781.71,-152.94 791.99,-150.35 782.34,-145.97 781.71,-152.94"/>
<text text-anchor="middle" x="637" y="-147" font-family="Helvetica,sans-Serif" font-size="10.00"> m_buttons</text>
</g>
<!-- Node9&#45;&gt;Node8 -->
<g id="edge13" class="edge">
<title>Node9&#45;&gt;Node8</title>
<path fill="none" stroke="#9a32cd" stroke-dasharray="5,2" d="M671.74,-187.01C699.42,-182.63 739.51,-175.62 774,-167 779.75,-165.56 785.86,-163.78 791.63,-161.99"/>
<polygon fill="#9a32cd" stroke="#9a32cd" points="671.12,-183.57 661.78,-188.56 672.2,-190.48 671.12,-183.57"/>
<text text-anchor="middle" x="736" y="-186" font-family="Helvetica,sans-Serif" font-size="10.00"> m_buttons</text>
</g>
<!-- Node10&#45;&gt;Node2 -->
<g id="edge15" class="edge">
<title>Node10&#45;&gt;Node2</title>
<path fill="none" stroke="#9a32cd" stroke-dasharray="5,2" d="M607.42,-874.72C574.36,-882.87 520.36,-889.89 488,-861 429.58,-808.85 429.72,-537.22 430.35,-482.58"/>
<polygon fill="#9a32cd" stroke="#9a32cd" points="608.59,-878.03 617.36,-872.08 606.79,-871.27 608.59,-878.03"/>
<text text-anchor="middle" x="532" y="-884" font-family="Helvetica,sans-Serif" font-size="10.00"> m_leds</text>
</g>
<!-- Node11&#45;&gt;Node2 -->
<g id="edge17" class="edge">
<title>Node11&#45;&gt;Node2</title>
<path fill="none" stroke="#9a32cd" stroke-dasharray="5,2" d="M593.04,-809.66C560.36,-815.74 516.33,-817.52 488,-793 439.56,-751.08 431.81,-531.9 430.68,-482.77"/>
<polygon fill="#9a32cd" stroke="#9a32cd" points="594.13,-813.01 603.22,-807.57 592.72,-806.16 594.13,-813.01"/>
<text text-anchor="middle" x="532" y="-816" font-family="Helvetica,sans-Serif" font-size="10.00"> m_patternBuilder</text>
</g>
<!-- Node12&#45;&gt;Node2 -->
<g id="edge19" class="edge">
<title>Node12&#45;&gt;Node2</title>
<path fill="none" stroke="#9a32cd" stroke-dasharray="5,2" d="M596.1,-335.4C564.17,-330.82 519.66,-329.86 488,-351 448.28,-377.53 435.35,-439.25 431.74,-463.23"/>
<polygon fill="#9a32cd" stroke="#9a32cd" points="595.56,-338.85 605.99,-336.98 596.67,-331.94 595.56,-338.85"/>
<text text-anchor="middle" x="532" y="-354" font-family="Helvetica,sans-Serif" font-size="10.00"> m_vlSender</text>
</g>
<!-- Node13&#45;&gt;Node2 -->
<g id="edge23" class="edge">
<title>Node13&#45;&gt;Node2</title>
<path fill="none" stroke="#9a32cd" stroke-dasharray="5,2" d="M1207.62,-548.14C1159.62,-544.05 1069.08,-536.24 992,-529 796.2,-510.6 562.2,-486.62 470.31,-477.13"/>
<polygon fill="#9a32cd" stroke="#9a32cd" points="1207.49,-551.64 1217.75,-549 1208.09,-544.66 1207.49,-551.64"/>
<text text-anchor="middle" x="819" y="-517" font-family="Helvetica,sans-Serif" font-size="10.00"> m_modes</text>
</g>
<!-- Node14&#45;&gt;Node13 -->
<g id="edge25" class="edge">
<title>Node14&#45;&gt;Node13</title>
<path fill="none" stroke="#9a32cd" stroke-dasharray="5,2" d="M1104.18,-480.94C1134.18,-487.97 1170.29,-498.86 1200,-515 1212.74,-521.92 1224.98,-533.31 1232.82,-541.43"/>
<polygon fill="#9a32cd" stroke="#9a32cd" points="1104.79,-477.49 1094.26,-478.71 1103.25,-484.32 1104.79,-477.49"/>
<text text-anchor="middle" x="1156" y="-529" font-family="Helvetica,sans-Serif" font-size="10.00"> m_pCurModeLink</text>
<text text-anchor="middle" x="1156" y="-518" font-family="Helvetica,sans-Serif" font-size="10.00">m_storedModes</text>
</g>
<!-- Node14&#45;&gt;Node14 -->
<g id="edge34" class="edge">
<title>Node14&#45;&gt;Node14</title>
<path fill="none" stroke="#9a32cd" stroke-dasharray="5,2" d="M1022.26,-489.4C1023.65,-494.31 1030.56,-498 1043,-498 1062.91,-498 1068.66,-488.57 1060.26,-479.76"/>
<polygon fill="#9a32cd" stroke="#9a32cd" points="1025.64,-490.35 1025.74,-479.76 1019.05,-487.98 1025.64,-490.35"/>
<text text-anchor="middle" x="1043" y="-512" font-family="Helvetica,sans-Serif" font-size="10.00"> m_next</text>
<text text-anchor="middle" x="1043" y="-501" font-family="Helvetica,sans-Serif" font-size="10.00">m_prev</text>
</g>
<!-- Node15&#45;&gt;Node14 -->
<g id="edge26" class="edge">
<title>Node15&#45;&gt;Node14</title>
<path fill="none" stroke="#9a32cd" stroke-dasharray="5,2" d="M848.42,-373.21C894.37,-396.19 983.77,-440.88 1022.89,-460.45"/>
<polygon fill="#9a32cd" stroke="#9a32cd" points="849.82,-370 839.31,-368.66 846.69,-376.26 849.82,-370"/>
<text text-anchor="middle" x="919" y="-437" font-family="Helvetica,sans-Serif" font-size="10.00"> m_pInstantiatedMode</text>
</g>
<!-- Node15&#45;&gt;Node23 -->
<g id="edge45" class="edge">
<title>Node15&#45;&gt;Node23</title>
<path fill="none" stroke="#9a32cd" stroke-dasharray="5,2" d="M845.44,-344.22C891.37,-317.53 986.95,-261.99 1025.42,-239.63"/>
<polygon fill="#9a32cd" stroke="#9a32cd" points="843.57,-341.25 836.69,-349.3 847.09,-347.31 843.57,-341.25"/>
<text text-anchor="middle" x="919" y="-334" font-family="Helvetica,sans-Serif" font-size="10.00"> m_previewMode</text>
</g>
<!-- Node16&#45;&gt;Node15 -->
<g id="edge28" class="edge">
<title>Node16&#45;&gt;Node15</title>
<path fill="none" stroke="#9a32cd" stroke-dasharray="5,2" d="M672.43,-316.14C709.12,-326.94 766.07,-343.71 796.73,-352.74"/>
<polygon fill="#9a32cd" stroke="#9a32cd" points="673.23,-312.73 662.65,-313.26 671.26,-319.44 673.23,-312.73"/>
<text text-anchor="middle" x="736" y="-347" font-family="Helvetica,sans-Serif" font-size="10.00"> m_multiPat</text>
</g>
<!-- Node17 -->
<g id="node17" class="node">
<title>Node17</title>
<g id="a_node17"><a xlink:href="classColorset.html" target="_top" xlink:title=" ">
<polygon fill="none" stroke="black" points="401,-20.5 401,-39.5 458,-39.5 458,-20.5 401,-20.5"/>
<text text-anchor="middle" x="429.5" y="-27.5" font-family="Helvetica,sans-Serif" font-size="10.00">Colorset</text>
</a>
</g>
</g>
<!-- Node17&#45;&gt;Node16 -->
<g id="edge30" class="edge">
<title>Node17&#45;&gt;Node16</title>
<path fill="none" stroke="#9a32cd" stroke-dasharray="5,2" d="M468.12,-32.18C502.04,-36.32 550.41,-48.05 576,-81 604.19,-117.29 567.43,-249.51 594,-287 598.16,-292.88 604.59,-296.97 611.18,-299.81"/>
<polygon fill="#9a32cd" stroke="#9a32cd" points="468.4,-28.69 458.09,-31.13 467.67,-35.65 468.4,-28.69"/>
<text text-anchor="middle" x="532" y="-84" font-family="Helvetica,sans-Serif" font-size="10.00"> m_colorset</text>
</g>
<!-- Node18 -->
<g id="node18" class="node">
<title>Node18</title>
<g id="a_node18"><a xlink:href="classRGBColor.html" target="_top" xlink:title=" ">
<polygon fill="none" stroke="black" points="186,-0.5 186,-19.5 249,-19.5 249,-0.5 186,-0.5"/>
<text text-anchor="middle" x="217.5" y="-7.5" font-family="Helvetica,sans-Serif" font-size="10.00">RGBColor</text>
</a>
</g>
</g>
<!-- Node18&#45;&gt;Node17 -->
<g id="edge31" class="edge">
<title>Node18&#45;&gt;Node17</title>
<path fill="none" stroke="#9a32cd" stroke-dasharray="5,2" d="M259.14,-13.87C300.89,-17.85 364.74,-23.93 400.94,-27.38"/>
<polygon fill="#9a32cd" stroke="#9a32cd" points="259.32,-10.37 249.04,-12.91 258.66,-17.34 259.32,-10.37"/>
<text text-anchor="middle" x="336" y="-28" font-family="Helvetica,sans-Serif" font-size="10.00"> m_palette</text>
</g>
<!-- Node18&#45;&gt;Node23 -->
<g id="edge46" class="edge">
<title>Node18&#45;&gt;Node23</title>
<path fill="none" stroke="#9a32cd" stroke-dasharray="5,2" d="M259.13,-9.39C308.86,-8.82 395.65,-8.4 470,-11 517.18,-12.65 530.09,-6.97 576,-18 702.99,-48.52 727.32,-79.48 846,-134 911.76,-164.21 988.5,-202.78 1023.23,-220.42"/>
<polygon fill="#9a32cd" stroke="#9a32cd" points="259.05,-5.89 249.1,-9.51 259.14,-12.89 259.05,-5.89"/>
<text text-anchor="middle" x="637" y="-54" font-family="Helvetica,sans-Serif" font-size="10.00"> m_menuColor</text>
</g>
<!-- Node19&#45;&gt;Node2 -->
<g id="edge35" class="edge">
<title>Node19&#45;&gt;Node2</title>
<path fill="none" stroke="#9a32cd" stroke-dasharray="5,2" d="M592.15,-741.51C559.76,-747.21 516.53,-748.56 488,-725 449.33,-693.07 434.35,-524.82 431.18,-482.61"/>
<polygon fill="#9a32cd" stroke="#9a32cd" points="593.1,-744.89 602.25,-739.53 591.76,-738.02 593.1,-744.89"/>
<text text-anchor="middle" x="532" y="-748" font-family="Helvetica,sans-Serif" font-size="10.00"> m_serial</text>
</g>
<!-- Node20&#45;&gt;Node2 -->
<g id="edge37" class="edge">
<title>Node20&#45;&gt;Node2</title>
<path fill="none" stroke="#9a32cd" stroke-dasharray="5,2" d="M609.11,-253.97C576.88,-239.32 522.87,-221.95 488,-249 452.87,-276.25 435.48,-424.04 431.44,-463.38"/>
<polygon fill="#9a32cd" stroke="#9a32cd" points="607.83,-257.23 618.37,-258.37 610.84,-250.91 607.83,-257.23"/>
<text text-anchor="middle" x="532" y="-252" font-family="Helvetica,sans-Serif" font-size="10.00"> m_irReceiver</text>
</g>
<!-- Node21&#45;&gt;Node2 -->
<g id="edge40" class="edge">
<title>Node21&#45;&gt;Node2</title>
<path fill="none" stroke="#9a32cd" stroke-dasharray="5,2" d="M606.1,-638.93C573.75,-644.6 522.22,-648.1 488,-623 441,-588.53 432.42,-510.37 430.85,-482.83"/>
<polygon fill="#9a32cd" stroke="#9a32cd" points="607.12,-642.3 616.28,-636.96 605.8,-635.43 607.12,-642.3"/>
<text text-anchor="middle" x="532" y="-646" font-family="Helvetica,sans-Serif" font-size="10.00"> m_time</text>
</g>
<!-- Node22&#45;&gt;Node2 -->
<g id="edge42" class="edge">
<title>Node22&#45;&gt;Node2</title>
<path fill="none" stroke="#9a32cd" stroke-dasharray="5,2" d="M1224,-246.82C1183.72,-284.35 1079.8,-374.74 974,-414 950.36,-422.77 591.48,-457.63 470.2,-469.23"/>
<polygon fill="#9a32cd" stroke="#9a32cd" points="1226.52,-249.25 1231.39,-239.84 1221.72,-244.16 1226.52,-249.25"/>
<text text-anchor="middle" x="819" y="-439" font-family="Helvetica,sans-Serif" font-size="10.00"> m_menus</text>
</g>
<!-- Node23&#45;&gt;Node22 -->
<g id="edge44" class="edge">
<title>Node23&#45;&gt;Node22</title>
<path fill="none" stroke="#9a32cd" stroke-dasharray="5,2" d="M1075.28,-230C1114.86,-230 1182.16,-230 1217.77,-230"/>
<polygon fill="#9a32cd" stroke="#9a32cd" points="1075.14,-226.5 1065.14,-230 1075.14,-233.5 1075.14,-226.5"/>
<text text-anchor="middle" x="1156" y="-233" font-family="Helvetica,sans-Serif" font-size="10.00"> m_pCurMenu</text>
</g>
</g>
</svg>
        <g id="navigator" transform="translate(0 0)" fill="#404254">
                <rect fill="#f2f5e9" fill-opacity="0.5" stroke="#606060" stroke-width=".5" x="0" y="0" width="60" height="60"/>
                <use id="zoomplus" xlink:href="#zoomPlus" x="17" y="9" onmousedown="handleZoom(evt,'in')"/>
                <use id="zoomminus" xlink:href="#zoomMin" x="42" y="9" onmousedown="handleZoom(evt,'out')"/>
                <use id="reset" xlink:href="#resetDef" x="30" y="36" onmousedown="handleReset()"/>
                <g id="arrowUp" xlink:href="#dirArrow" transform="translate(30 24)" onmousedown="handlePan(0,-1)">
                  <use xlink:href="#rim" fill="#404040">
                        <set attributeName="fill" to="#808080" begin="arrowUp.mouseover" end="arrowUp.mouseout"/>
                  </use>
                  <path fill="none" stroke="white" stroke-width="1.5" d="M0,-3.0v7 M-2.5,-0.5L0,-3.0L2.5,-0.5"/>
                </g>
                <g id="arrowRight" xlink:href="#dirArrow" transform="rotate(90) translate(36 -43)" onmousedown="handlePan(1,0)">
                  <use xlink:href="#rim" fill="#404040">
                        <set attributeName="fill" to="#808080" begin="arrowRight.mouseover" end="arrowRight.mouseout"/>
                  </use>
                  <path fill="none" stroke="white" stroke-width="1.5" d="M0,-3.0v7 M-2.5,-0.5L0,-3.0L2.5,-0.5"/>
                </g>
                <g id="arrowDown" xlink:href="#dirArrow" transform="rotate(180) translate(-30 -48)" onmousedown="handlePan(0,1)">
                  <use xlink:href="#rim" fill="#404040">
                        <set attributeName="fill" to="#808080" begin="arrowDown.mouseover" end="arrowDown.mouseout"/>
                  </use>
                  <path fill="none" stroke="white" stroke-width="1.5" d="M0,-3.0v7 M-2.5,-0.5L0,-3.0L2.5,-0.5"/>
                </g>
                <g id="arrowLeft" xlink:href="#dirArrow" transform="rotate(270) translate(-36 17)" onmousedown="handlePan(-1,0)">
                  <use xlink:href="#rim" fill="#404040">
                        <set attributeName="fill" to="#808080" begin="arrowLeft.mouseover" end="arrowLeft.mouseout"/>
                  </use>
                  <path fill="none" stroke="white" stroke-width="1.5" d="M0,-3.0v7 M-2.5,-0.5L0,-3.0L2.5,-0.5"/>
                </g>
        </g>
        <svg viewBox="0 0 15 15" width="100%" height="30px" preserveAspectRatio="xMaxYMin meet">
         <g id="arrow_out" transform="scale(0.3 0.3)">
          <a xlink:href="classVLReceiver__coll__graph_org.svg" target="_base">
           <rect id="button" ry="5" rx="5" y="6" x="6" height="38" width="38"
                fill="#f2f5e9" fill-opacity="0.5" stroke="#606060" stroke-width="1.0"/>
           <path id="arrow"
             d="M 11.500037,31.436501 C 11.940474,20.09759 22.043105,11.32322 32.158766,21.979434 L 37.068811,17.246167 C 37.068811,17.246167 37.088388,32 37.088388,32 L 22.160133,31.978069 C 22.160133,31.978069 26.997745,27.140456 26.997745,27.140456 C 18.528582,18.264221 13.291696,25.230495 11.500037,31.436501 z"
             style="fill:#404040;"/>
          </a>
         </g>
        </svg>
</svg>
