<?xml version="1.0" encoding="UTF-8" standalone="no"?>
<!DOCTYPE svg PUBLIC "-//W3C//DTD SVG 1.1//EN"
 "http://www.w3.org/Graphics/SVG/1.1/DTD/svg11.dtd">
<!-- Generated by graphviz version 2.43.0 (0)
 -->
<!-- Title: LighthousePattern Pages: 1 -->
<svg width="306pt" height="363pt"
 viewBox="0.00 0.00 305.50 363.00" xmlns="http://www.w3.org/2000/svg" xmlns:xlink="http://www.w3.org/1999/xlink">
<g id="graph0" class="graph" transform="scale(1 1) rotate(0) translate(4 359)">
<title>LighthousePattern</title>
<!-- Node1 -->
<g id="node1" class="node">
<title>Node1</title>
<g id="a_node1"><a xlink:title=" ">
<polygon fill="#bfbfbf" stroke="black" points="98.5,-0.5 98.5,-19.5 202.5,-19.5 202.5,-0.5 98.5,-0.5"/>
<text text-anchor="middle" x="150.5" y="-7.5" font-family="Helvetica,sans-Serif" font-size="10.00">LighthousePattern</text>
</a>
</g>
</g>
<!-- Node2 -->
<g id="node2" class="node">
<title>Node2</title>
<g id="a_node2"><a xlink:href="classBlinkStepPattern.html" target="_top" xlink:title=" ">
<polygon fill="none" stroke="black" points="101.5,-57.5 101.5,-76.5 199.5,-76.5 199.5,-57.5 101.5,-57.5"/>
<text text-anchor="middle" x="150.5" y="-64.5" font-family="Helvetica,sans-Serif" font-size="10.00">BlinkStepPattern</text>
</a>
</g>
</g>
<!-- Node2&#45;&gt;Node1 -->
<g id="edge1" class="edge">
<title>Node2&#45;&gt;Node1</title>
<path fill="none" stroke="midnightblue" d="M150.5,-47.12C150.5,-37.82 150.5,-27.06 150.5,-19.71"/>
<polygon fill="midnightblue" stroke="midnightblue" points="147,-47.41 150.5,-57.41 154,-47.41 147,-47.41"/>
</g>
<!-- Node3 -->
<g id="node3" class="node">
<title>Node3</title>
<g id="a_node3"><a xlink:href="classMultiLedPattern.html" target="_top" xlink:title=" ">
<polygon fill="none" stroke="black" points="96,-135.5 96,-154.5 189,-154.5 189,-135.5 96,-135.5"/>
<text text-anchor="middle" x="142.5" y="-142.5" font-family="Helvetica,sans-Serif" font-size="10.00">MultiLedPattern</text>
</a>
</g>
</g>
<!-- Node3&#45;&gt;Node2 -->
<g id="edge2" class="edge">
<title>Node3&#45;&gt;Node2</title>
<path fill="none" stroke="midnightblue" d="M144.48,-125.22C146.11,-109.7 148.36,-88.36 149.59,-76.62"/>
<polygon fill="midnightblue" stroke="midnightblue" points="140.98,-124.97 143.42,-135.28 147.95,-125.7 140.98,-124.97"/>
</g>
<!-- Node4 -->
<g id="node4" class="node">
<title>Node4</title>
<g id="a_node4"><a xlink:href="classPattern.html" target="_top" xlink:title=" ">
<polygon fill="none" stroke="black" points="117,-192.5 117,-211.5 168,-211.5 168,-192.5 117,-192.5"/>
<text text-anchor="middle" x="142.5" y="-199.5" font-family="Helvetica,sans-Serif" font-size="10.00">Pattern</text>
</a>
</g>
</g>
<!-- Node4&#45;&gt;Node3 -->
<g id="edge3" class="edge">
<title>Node4&#45;&gt;Node3</title>
<path fill="none" stroke="midnightblue" d="M142.5,-182.12C142.5,-172.82 142.5,-162.06 142.5,-154.71"/>
<polygon fill="midnightblue" stroke="midnightblue" points="139,-182.41 142.5,-192.41 146,-182.41 139,-182.41"/>
</g>
<!-- Node5 -->
<g id="node5" class="node">
<title>Node5</title>
<g id="a_node5"><a xlink:href="classColorset.html" target="_top" xlink:title=" ">
<polygon fill="none" stroke="black" points="114,-268.5 114,-287.5 171,-287.5 171,-268.5 114,-268.5"/>
<text text-anchor="middle" x="142.5" y="-275.5" font-family="Helvetica,sans-Serif" font-size="10.00">Colorset</text>
</a>
</g>
</g>
<!-- Node5&#45;&gt;Node4 -->
<g id="edge4" class="edge">
<title>Node5&#45;&gt;Node4</title>
<path fill="none" stroke="#9a32cd" stroke-dasharray="5,2" d="M142.5,-258.07C142.5,-243.18 142.5,-223.11 142.5,-211.77"/>
<polygon fill="#9a32cd" stroke="#9a32cd" points="139,-258.22 142.5,-268.22 146,-258.22 139,-258.22"/>
<text text-anchor="middle" x="171.5" y="-237.5" font-family="Helvetica,sans-Serif" font-size="10.00"> m_colorset</text>
</g>
<!-- Node6 -->
<g id="node6" class="node">
<title>Node6</title>
<g id="a_node6"><a xlink:href="classRGBColor.html" target="_top" xlink:title=" ">
<polygon fill="none" stroke="black" points="55,-335.5 55,-354.5 118,-354.5 118,-335.5 55,-335.5"/>
<text text-anchor="middle" x="86.5" y="-342.5" font-family="Helvetica,sans-Serif" font-size="10.00">RGBColor</text>
</a>
</g>
</g>
<!-- Node6&#45;&gt;Node5 -->
<g id="edge5" class="edge">
<title>Node6&#45;&gt;Node5</title>
<path fill="none" stroke="#9a32cd" stroke-dasharray="5,2" d="M108.4,-329.33C113.04,-325.63 117.69,-321.44 121.5,-317 129.16,-308.08 135.28,-295.92 138.9,-287.78"/>
<polygon fill="#9a32cd" stroke="#9a32cd" points="106.17,-326.62 100.22,-335.39 110.33,-332.25 106.17,-326.62"/>
<text text-anchor="middle" x="156" y="-309" font-family="Helvetica,sans-Serif" font-size="10.00"> m_palette</text>
</g>
<!-- Node8 -->
<g id="node8" class="node">
<title>Node8</title>
<g id="a_node8"><a xlink:href="classLedStash.html" target="_top" xlink:title=" ">
<polygon fill="none" stroke="black" points="0,-230.5 0,-249.5 61,-249.5 61,-230.5 0,-230.5"/>
<text text-anchor="middle" x="30.5" y="-237.5" font-family="Helvetica,sans-Serif" font-size="10.00">LedStash</text>
</a>
</g>
</g>
<!-- Node6&#45;&gt;Node8 -->
<g id="edge8" class="edge">
<title>Node6&#45;&gt;Node8</title>
<path fill="none" stroke="#9a32cd" stroke-dasharray="5,2" d="M45.33,-333.09C37.88,-329.22 31.04,-324.01 26.5,-317 13.01,-296.14 21.49,-264.93 26.95,-249.82"/>
<polygon fill="#9a32cd" stroke="#9a32cd" points="44.42,-336.51 54.98,-337.3 47.22,-330.09 44.42,-336.51"/>
<text text-anchor="middle" x="72" y="-309" font-family="Helvetica,sans-Serif" font-size="10.00"> m_ledColorsStash</text>
</g>
<!-- Node7 -->
<g id="node7" class="node">
<title>Node7</title>
<g id="a_node7"><a xlink:href="classTimer.html" target="_top" xlink:title=" ">
<polygon fill="none" stroke="black" points="223,-135.5 223,-154.5 268,-154.5 268,-135.5 223,-135.5"/>
<text text-anchor="middle" x="245.5" y="-142.5" font-family="Helvetica,sans-Serif" font-size="10.00">Timer</text>
</a>
</g>
</g>
<!-- Node7&#45;&gt;Node1 -->
<g id="edge9" class="edge">
<title>Node7&#45;&gt;Node1</title>
<path fill="none" stroke="#9a32cd" stroke-dasharray="5,2" d="M245.63,-125.08C245.09,-115.71 243.52,-104.42 239.5,-95 224.5,-59.82 186.59,-32.58 165.41,-19.51"/>
<polygon fill="#9a32cd" stroke="#9a32cd" points="242.13,-125.39 245.86,-135.31 249.13,-125.23 242.13,-125.39"/>
<text text-anchor="middle" x="263" y="-64.5" font-family="Helvetica,sans-Serif" font-size="10.00"> m_fadeTimer</text>
</g>
<!-- Node7&#45;&gt;Node2 -->
<g id="edge6" class="edge">
<title>Node7&#45;&gt;Node2</title>
<path fill="none" stroke="#9a32cd" stroke-dasharray="5,2" d="M212.81,-139.13C197.64,-135.36 180.39,-128.71 168.5,-117 157.4,-106.06 153.09,-87.7 151.46,-76.83"/>
<polygon fill="#9a32cd" stroke="#9a32cd" points="212.36,-142.62 222.88,-141.3 213.84,-135.77 212.36,-142.62"/>
<text text-anchor="middle" x="204" y="-109" font-family="Helvetica,sans-Serif" font-size="10.00"> m_blinkTimer</text>
<text text-anchor="middle" x="204" y="-98" font-family="Helvetica,sans-Serif" font-size="10.00">m_stepTimer</text>
</g>
<!-- Node8&#45;&gt;Node1 -->
<g id="edge7" class="edge">
<title>Node8&#45;&gt;Node1</title>
<path fill="none" stroke="#9a32cd" stroke-dasharray="5,2" d="M31.39,-220.14C31.92,-207.17 32.5,-189.54 32.5,-174 32.5,-174 32.5,-174 32.5,-66 32.5,-34.81 66.79,-21.26 98.4,-15.4"/>
<polygon fill="#9a32cd" stroke="#9a32cd" points="27.89,-220.03 30.94,-230.17 34.88,-220.34 27.89,-220.03"/>
<text text-anchor="middle" x="55" y="-142.5" font-family="Helvetica,sans-Serif" font-size="10.00"> m_stash</text>
</g>
</g>
</svg>
