<?xml version="1.0" encoding="UTF-8" standalone="no"?>
<!DOCTYPE svg PUBLIC "-//W3C//DTD SVG 1.1//EN"
 "http://www.w3.org/Graphics/SVG/1.1/DTD/svg11.dtd">
<!-- Generated by graphviz version 2.43.0 (0)
 -->
<!-- Title: Modes Pages: 1 -->
<svg width="238pt" height="376pt"
 viewBox="0.00 0.00 238.00 376.00" xmlns="http://www.w3.org/2000/svg" xmlns:xlink="http://www.w3.org/1999/xlink">
<g id="graph0" class="graph" transform="scale(1 1) rotate(0) translate(4 372)">
<title>Modes</title>
<!-- Node1 -->
<g id="node1" class="node">
<title>Node1</title>
<g id="a_node1"><a xlink:title=" ">
<polygon fill="#bfbfbf" stroke="black" points="73,-0.5 73,-19.5 122,-19.5 122,-0.5 73,-0.5"/>
<text text-anchor="middle" x="97.5" y="-7.5" font-family="Helvetica,sans-Serif" font-size="10.00">Modes</text>
</a>
</g>
</g>
<!-- Node2 -->
<g id="node2" class="node">
<title>Node2</title>
<g id="a_node2"><a xlink:href="classModes_1_1ModeLink.html" target="_top" xlink:title=" ">
<polygon fill="none" stroke="black" points="46.5,-79.5 46.5,-98.5 148.5,-98.5 148.5,-79.5 46.5,-79.5"/>
<text text-anchor="middle" x="97.5" y="-86.5" font-family="Helvetica,sans-Serif" font-size="10.00">Modes::ModeLink</text>
</a>
</g>
</g>
<!-- Node2&#45;&gt;Node1 -->
<g id="edge1" class="edge">
<title>Node2&#45;&gt;Node1</title>
<path fill="none" stroke="#9a32cd" stroke-dasharray="5,2" d="M97.5,-69.31C97.5,-53.59 97.5,-31.81 97.5,-19.81"/>
<polygon fill="#9a32cd" stroke="#9a32cd" points="94,-69.47 97.5,-79.47 101,-69.47 94,-69.47"/>
<text text-anchor="middle" x="141.5" y="-52" font-family="Helvetica,sans-Serif" font-size="10.00"> m_pCurModeLink</text>
<text text-anchor="middle" x="141.5" y="-41" font-family="Helvetica,sans-Serif" font-size="10.00">m_storedModes</text>
</g>
<!-- Node2&#45;&gt;Node2 -->
<g id="edge8" class="edge">
<title>Node2&#45;&gt;Node2</title>
<path fill="none" stroke="#9a32cd" stroke-dasharray="5,2" d="M158.87,-93.8C163.59,-92.74 166.5,-91.14 166.5,-89 166.5,-85.58 159.05,-83.54 148.65,-82.87"/>
<polygon fill="#9a32cd" stroke="#9a32cd" points="158.12,-90.37 148.65,-95.13 159.02,-97.31 158.12,-90.37"/>
<text text-anchor="middle" x="186.5" y="-92" font-family="Helvetica,sans-Serif" font-size="10.00"> m_next</text>
<text text-anchor="middle" x="186.5" y="-81" font-family="Helvetica,sans-Serif" font-size="10.00">m_prev</text>
</g>
<!-- Node3 -->
<g id="node3" class="node">
<title>Node3</title>
<g id="a_node3"><a xlink:href="classMode.html" target="_top" xlink:title=" ">
<polygon fill="none" stroke="black" points="9.5,-147.5 9.5,-166.5 53.5,-166.5 53.5,-147.5 9.5,-147.5"/>
<text text-anchor="middle" x="31.5" y="-154.5" font-family="Helvetica,sans-Serif" font-size="10.00">Mode</text>
</a>
</g>
</g>
<!-- Node3&#45;&gt;Node2 -->
<g id="edge2" class="edge">
<title>Node3&#45;&gt;Node2</title>
<path fill="none" stroke="#9a32cd" stroke-dasharray="5,2" d="M28.05,-137.19C27.81,-130.63 28.75,-123.53 32.5,-118 38.7,-108.84 48.57,-102.66 58.77,-98.5"/>
<polygon fill="#9a32cd" stroke="#9a32cd" points="24.6,-137.84 29.26,-147.35 31.55,-137.01 24.6,-137.84"/>
<text text-anchor="middle" x="87.5" y="-121" font-family="Helvetica,sans-Serif" font-size="10.00"> m_pInstantiatedMode</text>
</g>
<!-- Node4 -->
<g id="node4" class="node">
<title>Node4</title>
<g id="a_node4"><a xlink:href="classPattern.html" target="_top" xlink:title=" ">
<polygon fill="none" stroke="black" points="6,-214.5 6,-233.5 57,-233.5 57,-214.5 6,-214.5"/>
<text text-anchor="middle" x="31.5" y="-221.5" font-family="Helvetica,sans-Serif" font-size="10.00">Pattern</text>
</a>
</g>
</g>
<!-- Node4&#45;&gt;Node3 -->
<g id="edge3" class="edge">
<title>Node4&#45;&gt;Node3</title>
<path fill="none" stroke="#9a32cd" stroke-dasharray="5,2" d="M31.5,-204.04C31.5,-191.67 31.5,-176.12 31.5,-166.63"/>
<polygon fill="#9a32cd" stroke="#9a32cd" points="28,-204.23 31.5,-214.23 35,-204.23 28,-204.23"/>
<text text-anchor="middle" x="65.5" y="-188" font-family="Helvetica,sans-Serif" font-size="10.00"> m_singlePats</text>
</g>
<!-- Node5 -->
<g id="node5" class="node">
<title>Node5</title>
<g id="a_node5"><a xlink:href="classColorset.html" target="_top" xlink:title=" ">
<polygon fill="none" stroke="black" points="3,-281.5 3,-300.5 60,-300.5 60,-281.5 3,-281.5"/>
<text text-anchor="middle" x="31.5" y="-288.5" font-family="Helvetica,sans-Serif" font-size="10.00">Colorset</text>
</a>
</g>
</g>
<!-- Node5&#45;&gt;Node4 -->
<g id="edge4" class="edge">
<title>Node5&#45;&gt;Node4</title>
<path fill="none" stroke="#9a32cd" stroke-dasharray="5,2" d="M31.5,-271.04C31.5,-258.67 31.5,-243.12 31.5,-233.63"/>
<polygon fill="#9a32cd" stroke="#9a32cd" points="28,-271.23 31.5,-281.23 35,-271.23 28,-271.23"/>
<text text-anchor="middle" x="60.5" y="-255" font-family="Helvetica,sans-Serif" font-size="10.00"> m_colorset</text>
</g>
<!-- Node6 -->
<g id="node6" class="node">
<title>Node6</title>
<g id="a_node6"><a xlink:href="classRGBColor.html" target="_top" xlink:title=" ">
<polygon fill="none" stroke="black" points="0,-348.5 0,-367.5 63,-367.5 63,-348.5 0,-348.5"/>
<text text-anchor="middle" x="31.5" y="-355.5" font-family="Helvetica,sans-Serif" font-size="10.00">RGBColor</text>
</a>
</g>
</g>
<!-- Node6&#45;&gt;Node5 -->
<g id="edge5" class="edge">
<title>Node6&#45;&gt;Node5</title>
<path fill="none" stroke="#9a32cd" stroke-dasharray="5,2" d="M31.5,-338.04C31.5,-325.67 31.5,-310.12 31.5,-300.63"/>
<polygon fill="#9a32cd" stroke="#9a32cd" points="28,-338.23 31.5,-348.23 35,-338.23 28,-338.23"/>
<text text-anchor="middle" x="58" y="-322" font-family="Helvetica,sans-Serif" font-size="10.00"> m_palette</text>
</g>
<!-- Node7 -->
<g id="node7" class="node">
<title>Node7</title>
<g id="a_node7"><a xlink:href="classByteStream.html" target="_top" xlink:title=" ">
<polygon fill="none" stroke="black" points="127.5,-147.5 127.5,-166.5 201.5,-166.5 201.5,-147.5 127.5,-147.5"/>
<text text-anchor="middle" x="164.5" y="-154.5" font-family="Helvetica,sans-Serif" font-size="10.00">ByteStream</text>
</a>
</g>
</g>
<!-- Node7&#45;&gt;Node2 -->
<g id="edge6" class="edge">
<title>Node7&#45;&gt;Node2</title>
<path fill="none" stroke="#9a32cd" stroke-dasharray="5,2" d="M156.5,-138.16C152.87,-131.34 148.13,-123.81 142.5,-118 134.82,-110.07 124.45,-103.42 115.6,-98.6"/>
<polygon fill="#9a32cd" stroke="#9a32cd" points="153.46,-139.9 160.98,-147.36 159.75,-136.84 153.46,-139.9"/>
<text text-anchor="middle" x="188.5" y="-121" font-family="Helvetica,sans-Serif" font-size="10.00"> m_storedMode</text>
</g>
<!-- Node8 -->
<g id="node8" class="node">
<title>Node8</title>
<g id="a_node8"><a xlink:href="structByteStream_1_1RawBuffer.html" target="_top" xlink:title=" ">
<polygon fill="none" stroke="black" points="99,-214.5 99,-233.5 230,-233.5 230,-214.5 99,-214.5"/>
<text text-anchor="middle" x="164.5" y="-221.5" font-family="Helvetica,sans-Serif" font-size="10.00">ByteStream::RawBuffer</text>
</a>
</g>
</g>
<!-- Node8&#45;&gt;Node7 -->
<g id="edge7" class="edge">
<title>Node8&#45;&gt;Node7</title>
<path fill="none" stroke="#9a32cd" stroke-dasharray="5,2" d="M164.5,-204.04C164.5,-191.67 164.5,-176.12 164.5,-166.63"/>
<polygon fill="#9a32cd" stroke="#9a32cd" points="161,-204.23 164.5,-214.23 168,-204.23 161,-204.23"/>
<text text-anchor="middle" x="188.5" y="-188" font-family="Helvetica,sans-Serif" font-size="10.00"> m_pData</text>
</g>
</g>
</svg>
