<?xml version="1.0" encoding="UTF-8" standalone="no"?>
<!DOCTYPE svg PUBLIC "-//W3C//DTD SVG 1.1//EN"
 "http://www.w3.org/Graphics/SVG/1.1/DTD/svg11.dtd">
<!-- Generated by graphviz version 2.43.0 (0)
 -->
<!-- Title: BackStrobePattern Pages: 1 -->
<!--zoomable 1178 -->
<svg id="main" version="1.1" xmlns="http://www.w3.org/2000/svg" xmlns:xlink="http://www.w3.org/1999/xlink" xml:space="preserve" onload="init(evt)">
<style type="text/css"><![CDATA[
.edge:hover path { stroke: red; }
.edge:hover polygon { stroke: red; fill: red; }
]]></style>
<script type="text/javascript"><![CDATA[
var edges = document.getElementsByTagName('g');
if (edges && edges.length) {
  for (var i=0;i<edges.length;i++) {
    if (edges[i].id.substr(0,4)=='edge') {
      edges[i].setAttribute('class','edge');
    }
  }
}
]]></script>
        <defs>
                <circle id="rim" cx="0" cy="0" r="7"/>
                <circle id="rim2" cx="0" cy="0" r="3.5"/>
                <g id="zoomPlus">
                        <use xlink:href="#rim" fill="#404040">
                                <set attributeName="fill" to="#808080" begin="zoomplus.mouseover" end="zoomplus.mouseout"/>
                        </use>
                        <path d="M-4,0h8M0,-4v8" fill="none" stroke="white" stroke-width="1.5" pointer-events="none"/>
                </g>
                <g id="zoomMin">
                        <use xlink:href="#rim" fill="#404040">
                                <set attributeName="fill" to="#808080" begin="zoomminus.mouseover" end="zoomminus.mouseout"/>
                        </use>
                        <path d="M-4,0h8" fill="none" stroke="white" stroke-width="1.5" pointer-events="none"/>
                </g>
                <g id="dirArrow">
                        <path fill="none" stroke="white" stroke-width="1.5" d="M0,-3.0v7 M-2.5,-0.5L0,-3.0L2.5,-0.5"/>
                </g>
               <g id="resetDef">
                       <use xlink:href="#rim2" fill="#404040">
                               <set attributeName="fill" to="#808080" begin="reset.mouseover" end="reset.mouseout"/>
                       </use>
               </g>
        </defs>

<script type="text/javascript">
var viewWidth = 1731;
var viewHeight = 1178;
var sectionId = 'dynsection-1';
</script>
<script xlink:href="svgpan.js"/>
<svg id="graph" class="graph">
<g id="viewport">
<title>BackStrobePattern</title>
<!-- Node1 -->
<g id="node1" class="node">
<title>Node1</title>
<g id="a_node1"><a xlink:title=" ">
<polygon fill="#bfbfbf" stroke="black" points="1616,-113.5 1616,-132.5 1723,-132.5 1723,-113.5 1616,-113.5"/>
<text text-anchor="middle" x="1669.5" y="-120.5" font-family="Helvetica,sans-Serif" font-size="10.00">BackStrobePattern</text>
</a>
</g>
</g>
<!-- Node2 -->
<g id="node2" class="node">
<title>Node2</title>
<g id="a_node2"><a xlink:href="classCompoundPattern.html" target="_top" xlink:title=" ">
<polygon fill="none" stroke="black" points="888,-115.5 888,-134.5 992,-134.5 992,-115.5 888,-115.5"/>
<text text-anchor="middle" x="940" y="-122.5" font-family="Helvetica,sans-Serif" font-size="10.00">CompoundPattern</text>
</a>
</g>
</g>
<!-- Node2&#45;&gt;Node1 -->
<g id="edge1" class="edge">
<title>Node2&#45;&gt;Node1</title>
<path fill="none" stroke="midnightblue" d="M1002.13,-124.06C1041.03,-123.54 1092.47,-123 1138,-123 1138,-123 1138,-123 1432,-123 1495.23,-123 1567.97,-123 1615.9,-123"/>
<polygon fill="midnightblue" stroke="midnightblue" points="1001.97,-120.56 992.02,-124.2 1002.07,-127.56 1001.97,-120.56"/>
</g>
<!-- Node3 -->
<g id="node3" class="node">
<title>Node3</title>
<g id="a_node3"><a xlink:href="classMultiLedPattern.html" target="_top" xlink:title=" ">
<polygon fill="none" stroke="black" points="529,-113.5 529,-132.5 622,-132.5 622,-113.5 529,-113.5"/>
<text text-anchor="middle" x="575.5" y="-120.5" font-family="Helvetica,sans-Serif" font-size="10.00">MultiLedPattern</text>
</a>
</g>
</g>
<!-- Node3&#45;&gt;Node2 -->
<g id="edge2" class="edge">
<title>Node3&#45;&gt;Node2</title>
<path fill="none" stroke="midnightblue" d="M632.38,-123.31C702.11,-123.69 820.35,-124.35 887.81,-124.72"/>
<polygon fill="midnightblue" stroke="midnightblue" points="632.06,-119.81 622.04,-123.25 632.02,-126.81 632.06,-119.81"/>
</g>
<!-- Node4 -->
<g id="node4" class="node">
<title>Node4</title>
<g id="a_node4"><a xlink:href="classPattern.html" target="_top" xlink:title=" ">
<polygon fill="none" stroke="black" points="343,-93.5 343,-112.5 394,-112.5 394,-93.5 343,-93.5"/>
<text text-anchor="middle" x="368.5" y="-100.5" font-family="Helvetica,sans-Serif" font-size="10.00">Pattern</text>
</a>
</g>
</g>
<!-- Node4&#45;&gt;Node3 -->
<g id="edge3" class="edge">
<title>Node4&#45;&gt;Node3</title>
<path fill="none" stroke="midnightblue" d="M404.23,-106.39C438.48,-109.73 491.02,-114.86 528.68,-118.53"/>
<polygon fill="midnightblue" stroke="midnightblue" points="404.52,-102.9 394.23,-105.41 403.84,-109.87 404.52,-102.9"/>
</g>
<!-- Node19 -->
<g id="node19" class="node">
<title>Node19</title>
<g id="a_node19"><a xlink:href="classMode.html" target="_top" xlink:title=" ">
<polygon fill="none" stroke="black" points="553.5,-66.5 553.5,-85.5 597.5,-85.5 597.5,-66.5 553.5,-66.5"/>
<text text-anchor="middle" x="575.5" y="-73.5" font-family="Helvetica,sans-Serif" font-size="10.00">Mode</text>
</a>
</g>
</g>
<!-- Node4&#45;&gt;Node19 -->
<g id="edge33" class="edge">
<title>Node4&#45;&gt;Node19</title>
<path fill="none" stroke="#9a32cd" stroke-dasharray="5,2" d="M404.18,-98.43C446.9,-92.81 518.14,-83.42 553.4,-78.78"/>
<polygon fill="#9a32cd" stroke="#9a32cd" points="403.69,-94.97 394.23,-99.74 404.6,-101.91 403.69,-94.97"/>
<text text-anchor="middle" x="481.5" y="-94" font-family="Helvetica,sans-Serif" font-size="10.00"> m_multiPat</text>
</g>
<!-- Node5 -->
<g id="node5" class="node">
<title>Node5</title>
<g id="a_node5"><a xlink:href="classVortexEngine.html" target="_top" xlink:title=" ">
<polygon fill="none" stroke="black" points="1183,-541.5 1183,-560.5 1264,-560.5 1264,-541.5 1183,-541.5"/>
<text text-anchor="middle" x="1223.5" y="-548.5" font-family="Helvetica,sans-Serif" font-size="10.00">VortexEngine</text>
</a>
</g>
</g>
<!-- Node5&#45;&gt;Node4 -->
<g id="edge4" class="edge">
<title>Node5&#45;&gt;Node4</title>
<path fill="none" stroke="#9a32cd" stroke-dasharray="5,2" d="M1220.86,-531.4C1212.11,-433.28 1167.07,0 1053.5,0 574.5,0 574.5,0 574.5,0 491.65,0 408.1,-68 379.68,-93.49"/>
<polygon fill="#9a32cd" stroke="#9a32cd" points="1217.38,-531.78 1221.73,-541.44 1224.35,-531.17 1217.38,-531.78"/>
<text text-anchor="middle" x="819" y="-3" font-family="Helvetica,sans-Serif" font-size="10.00"> m_engine</text>
</g>
<!-- Node5&#45;&gt;Node5 -->
<g id="edge15" class="edge">
<title>Node5&#45;&gt;Node5</title>
<path fill="none" stroke="#9a32cd" stroke-dasharray="5,2" d="M1208.03,-570.77C1209.25,-575.5 1214.4,-579 1223.5,-579 1238.43,-579 1242.75,-569.57 1236.45,-560.76"/>
<polygon fill="#9a32cd" stroke="#9a32cd" points="1211.5,-571.31 1210.55,-560.76 1204.72,-569.6 1211.5,-571.31"/>
<text text-anchor="middle" x="1223.5" y="-582" font-family="Helvetica,sans-Serif" font-size="10.00"> m_engine</text>
</g>
<!-- Node6 -->
<g id="node6" class="node">
<title>Node6</title>
<g id="a_node6"><a xlink:href="classVLReceiver.html" target="_top" xlink:title=" ">
<polygon fill="none" stroke="black" points="1395.5,-974.5 1395.5,-993.5 1466.5,-993.5 1466.5,-974.5 1395.5,-974.5"/>
<text text-anchor="middle" x="1431" y="-981.5" font-family="Helvetica,sans-Serif" font-size="10.00">VLReceiver</text>
</a>
</g>
</g>
<!-- Node5&#45;&gt;Node6 -->
<g id="edge6" class="edge">
<title>Node5&#45;&gt;Node6</title>
<path fill="none" stroke="#9a32cd" stroke-dasharray="5,2" d="M1224.27,-570.97C1223.87,-645.51 1226.51,-906.03 1282,-962 1297.41,-977.54 1356.65,-982.16 1395.35,-983.49"/>
<polygon fill="#9a32cd" stroke="#9a32cd" points="1227.78,-570.69 1224.36,-560.67 1220.78,-570.64 1227.78,-570.69"/>
<text text-anchor="middle" x="1326" y="-985" font-family="Helvetica,sans-Serif" font-size="10.00"> m_engine</text>
</g>
<!-- Node8 -->
<g id="node8" class="node">
<title>Node8</title>
<g id="a_node8"><a xlink:href="classStorage.html" target="_top" xlink:title=" ">
<polygon fill="none" stroke="black" points="1404,-688.5 1404,-707.5 1458,-707.5 1458,-688.5 1404,-688.5"/>
<text text-anchor="middle" x="1431" y="-695.5" font-family="Helvetica,sans-Serif" font-size="10.00">Storage</text>
</a>
</g>
</g>
<!-- Node5&#45;&gt;Node8 -->
<g id="edge9" class="edge">
<title>Node5&#45;&gt;Node8</title>
<path fill="none" stroke="#9a32cd" stroke-dasharray="5,2" d="M1226.2,-570.57C1230.07,-601.76 1242.52,-662.04 1282,-690 1317.91,-715.43 1371.88,-710.46 1403.76,-704.35"/>
<polygon fill="#9a32cd" stroke="#9a32cd" points="1229.67,-570.09 1225.13,-560.52 1222.71,-570.83 1229.67,-570.09"/>
<text text-anchor="middle" x="1326" y="-712" font-family="Helvetica,sans-Serif" font-size="10.00"> m_engine</text>
</g>
<!-- Node9 -->
<g id="node9" class="node">
<title>Node9</title>
<g id="a_node9"><a xlink:href="classIRSender.html" target="_top" xlink:title=" ">
<polygon fill="none" stroke="black" points="1401,-921.5 1401,-940.5 1461,-940.5 1461,-921.5 1401,-921.5"/>
<text text-anchor="middle" x="1431" y="-928.5" font-family="Helvetica,sans-Serif" font-size="10.00">IRSender</text>
</a>
</g>
</g>
<!-- Node5&#45;&gt;Node9 -->
<g id="edge11" class="edge">
<title>Node5&#45;&gt;Node9</title>
<path fill="none" stroke="#9a32cd" stroke-dasharray="5,2" d="M1225.06,-570.83C1227.32,-636.63 1237.93,-846.31 1282,-894 1284.05,-896.22 1358.39,-914.08 1400.91,-924.15"/>
<polygon fill="#9a32cd" stroke="#9a32cd" points="1228.55,-570.48 1224.74,-560.6 1221.55,-570.7 1228.55,-570.48"/>
<text text-anchor="middle" x="1326" y="-918" font-family="Helvetica,sans-Serif" font-size="10.00"> m_engine</text>
</g>
<!-- Node12 -->
<g id="node12" class="node">
<title>Node12</title>
<g id="a_node12"><a xlink:href="classButtons.html" target="_top" xlink:title=" ">
<polygon fill="none" stroke="black" points="1642.5,-589.5 1642.5,-608.5 1696.5,-608.5 1696.5,-589.5 1642.5,-589.5"/>
<text text-anchor="middle" x="1669.5" y="-596.5" font-family="Helvetica,sans-Serif" font-size="10.00">Buttons</text>
</a>
</g>
</g>
<!-- Node5&#45;&gt;Node12 -->
<g id="edge17" class="edge">
<title>Node5&#45;&gt;Node12</title>
<path fill="none" stroke="#9a32cd" stroke-dasharray="5,2" d="M1236.4,-568.96C1246.67,-582.81 1262.86,-601.07 1282,-610 1406.08,-667.93 1577.84,-626.55 1642.5,-607.35"/>
<polygon fill="#9a32cd" stroke="#9a32cd" points="1239.15,-566.79 1230.53,-560.63 1233.43,-570.82 1239.15,-566.79"/>
<text text-anchor="middle" x="1431" y="-642" font-family="Helvetica,sans-Serif" font-size="10.00"> m_engine</text>
</g>
<!-- Node13 -->
<g id="node13" class="node">
<title>Node13</title>
<g id="a_node13"><a xlink:href="classButton.html" target="_top" xlink:title=" ">
<polygon fill="none" stroke="black" points="1406.5,-589.5 1406.5,-608.5 1455.5,-608.5 1455.5,-589.5 1406.5,-589.5"/>
<text text-anchor="middle" x="1431" y="-596.5" font-family="Helvetica,sans-Serif" font-size="10.00">Button</text>
</a>
</g>
</g>
<!-- Node5&#45;&gt;Node13 -->
<g id="edge19" class="edge">
<title>Node5&#45;&gt;Node13</title>
<path fill="none" stroke="#9a32cd" stroke-dasharray="5,2" d="M1248.89,-565.61C1258.84,-570.95 1270.66,-576.52 1282,-580 1324.6,-593.06 1376.77,-597.15 1406.41,-598.42"/>
<polygon fill="#9a32cd" stroke="#9a32cd" points="1250.44,-562.46 1240,-560.64 1247.02,-568.58 1250.44,-562.46"/>
<text text-anchor="middle" x="1326" y="-598" font-family="Helvetica,sans-Serif" font-size="10.00"> m_engine</text>
</g>
<!-- Node14 -->
<g id="node14" class="node">
<title>Node14</title>
<g id="a_node14"><a xlink:href="classLeds.html" target="_top" xlink:title=" ">
<polygon fill="none" stroke="black" points="1411.5,-546.5 1411.5,-565.5 1450.5,-565.5 1450.5,-546.5 1411.5,-546.5"/>
<text text-anchor="middle" x="1431" y="-553.5" font-family="Helvetica,sans-Serif" font-size="10.00">Leds</text>
</a>
</g>
</g>
<!-- Node5&#45;&gt;Node14 -->
<g id="edge21" class="edge">
<title>Node5&#45;&gt;Node14</title>
<path fill="none" stroke="#9a32cd" stroke-dasharray="5,2" d="M1274.29,-562.04C1276.89,-562.41 1279.47,-562.74 1282,-563 1320.9,-567.02 1330.95,-565.27 1370,-563 1383.92,-562.19 1399.58,-560.33 1411.4,-558.73"/>
<polygon fill="#9a32cd" stroke="#9a32cd" points="1274.67,-558.56 1264.24,-560.4 1273.54,-565.47 1274.67,-558.56"/>
<text text-anchor="middle" x="1326" y="-568" font-family="Helvetica,sans-Serif" font-size="10.00"> m_engine</text>
</g>
<!-- Node15 -->
<g id="node15" class="node">
<title>Node15</title>
<g id="a_node15"><a xlink:href="classPatternBuilder.html" target="_top" xlink:title=" ">
<polygon fill="none" stroke="black" points="1388,-492.5 1388,-511.5 1474,-511.5 1474,-492.5 1388,-492.5"/>
<text text-anchor="middle" x="1431" y="-499.5" font-family="Helvetica,sans-Serif" font-size="10.00">PatternBuilder</text>
</a>
</g>
</g>
<!-- Node5&#45;&gt;Node15 -->
<g id="edge23" class="edge">
<title>Node5&#45;&gt;Node15</title>
<path fill="none" stroke="#9a32cd" stroke-dasharray="5,2" d="M1267.48,-538.78C1272.37,-537.47 1277.29,-536.18 1282,-535 1317.5,-526.11 1358.08,-517.15 1387.76,-510.81"/>
<polygon fill="#9a32cd" stroke="#9a32cd" points="1266.29,-535.47 1257.56,-541.48 1268.13,-542.23 1266.29,-535.47"/>
<text text-anchor="middle" x="1326" y="-538" font-family="Helvetica,sans-Serif" font-size="10.00"> m_engine</text>
</g>
<!-- Node16 -->
<g id="node16" class="node">
<title>Node16</title>
<g id="a_node16"><a xlink:href="classVLSender.html" target="_top" xlink:title=" ">
<polygon fill="none" stroke="black" points="1400,-853.5 1400,-872.5 1462,-872.5 1462,-853.5 1400,-853.5"/>
<text text-anchor="middle" x="1431" y="-860.5" font-family="Helvetica,sans-Serif" font-size="10.00">VLSender</text>
</a>
</g>
</g>
<!-- Node5&#45;&gt;Node16 -->
<g id="edge25" class="edge">
<title>Node5&#45;&gt;Node16</title>
<path fill="none" stroke="#9a32cd" stroke-dasharray="5,2" d="M1225.96,-570.85C1230.54,-627.64 1246.49,-789.08 1282,-826 1284.08,-828.16 1357.2,-845.76 1399.87,-855.89"/>
<polygon fill="#9a32cd" stroke="#9a32cd" points="1229.44,-570.37 1225.17,-560.67 1222.46,-570.91 1229.44,-570.37"/>
<text text-anchor="middle" x="1326" y="-850" font-family="Helvetica,sans-Serif" font-size="10.00"> m_engine</text>
</g>
<!-- Node17 -->
<g id="node17" class="node">
<title>Node17</title>
<g id="a_node17"><a xlink:href="classModes.html" target="_top" xlink:title=" ">
<polygon fill="none" stroke="black" points="1028,-521.5 1028,-540.5 1077,-540.5 1077,-521.5 1028,-521.5"/>
<text text-anchor="middle" x="1052.5" y="-528.5" font-family="Helvetica,sans-Serif" font-size="10.00">Modes</text>
</a>
</g>
</g>
<!-- Node5&#45;&gt;Node17 -->
<g id="edge29" class="edge">
<title>Node5&#45;&gt;Node17</title>
<path fill="none" stroke="#9a32cd" stroke-dasharray="5,2" d="M1198.67,-536.39C1188.66,-531.06 1176.64,-525.68 1165,-523 1135.31,-516.16 1100.1,-520.71 1077.31,-525.27"/>
<polygon fill="#9a32cd" stroke="#9a32cd" points="1197.16,-539.55 1207.59,-541.39 1200.58,-533.45 1197.16,-539.55"/>
<text text-anchor="middle" x="1139" y="-526" font-family="Helvetica,sans-Serif" font-size="10.00"> m_engine</text>
</g>
<!-- Node18 -->
<g id="node18" class="node">
<title>Node18</title>
<g id="a_node18"><a xlink:href="classModes_1_1ModeLink.html" target="_top" xlink:title=" ">
<polygon fill="none" stroke="black" points="768,-544.5 768,-563.5 870,-563.5 870,-544.5 768,-544.5"/>
<text text-anchor="middle" x="819" y="-551.5" font-family="Helvetica,sans-Serif" font-size="10.00">Modes::ModeLink</text>
</a>
</g>
</g>
<!-- Node5&#45;&gt;Node18 -->
<g id="edge34" class="edge">
<title>Node5&#45;&gt;Node18</title>
<path fill="none" stroke="#9a32cd" stroke-dasharray="5,2" d="M1172.78,-557.34C1170.15,-557.59 1167.54,-557.81 1165,-558 1042.22,-567.23 1010.86,-571.1 888,-563 882.18,-562.62 876.09,-562.05 870.06,-561.38"/>
<polygon fill="#9a32cd" stroke="#9a32cd" points="1173.36,-560.8 1182.96,-556.3 1172.65,-553.84 1173.36,-560.8"/>
<text text-anchor="middle" x="1052.5" y="-570" font-family="Helvetica,sans-Serif" font-size="10.00"> m_engine</text>
</g>
<!-- Node5&#45;&gt;Node19 -->
<g id="edge32" class="edge">
<title>Node5&#45;&gt;Node19</title>
<path fill="none" stroke="#9a32cd" stroke-dasharray="5,2" d="M1219.56,-531.11C1207.51,-457.61 1154.6,-200.2 992,-95 926.14,-52.39 672.83,-68.42 597.65,-74.25"/>
<polygon fill="#9a32cd" stroke="#9a32cd" points="1216.14,-531.94 1221.15,-541.27 1223.06,-530.85 1216.14,-531.94"/>
<text text-anchor="middle" x="940" y="-98" font-family="Helvetica,sans-Serif" font-size="10.00"> m_engine</text>
</g>
<!-- Node20 -->
<g id="node20" class="node">
<title>Node20</title>
<g id="a_node20"><a xlink:href="classSerialComs.html" target="_top" xlink:title=" ">
<polygon fill="none" stroke="black" points="1395,-424.5 1395,-443.5 1467,-443.5 1467,-424.5 1395,-424.5"/>
<text text-anchor="middle" x="1431" y="-431.5" font-family="Helvetica,sans-Serif" font-size="10.00">SerialComs</text>
</a>
</g>
</g>
<!-- Node5&#45;&gt;Node20 -->
<g id="edge38" class="edge">
<title>Node5&#45;&gt;Node20</title>
<path fill="none" stroke="#9a32cd" stroke-dasharray="5,2" d="M1231.15,-531.88C1239.54,-510.74 1256.11,-477.36 1282,-460 1315.59,-437.48 1362.76,-432.7 1394.75,-432.43"/>
<polygon fill="#9a32cd" stroke="#9a32cd" points="1227.8,-530.83 1227.58,-541.42 1234.36,-533.28 1227.8,-530.83"/>
<text text-anchor="middle" x="1326" y="-463" font-family="Helvetica,sans-Serif" font-size="10.00"> m_engine</text>
</g>
<!-- Node21 -->
<g id="node21" class="node">
<title>Node21</title>
<g id="a_node21"><a xlink:href="classIRReceiver.html" target="_top" xlink:title=" ">
<polygon fill="none" stroke="black" points="1396.5,-770.5 1396.5,-789.5 1465.5,-789.5 1465.5,-770.5 1396.5,-770.5"/>
<text text-anchor="middle" x="1431" y="-777.5" font-family="Helvetica,sans-Serif" font-size="10.00">IRReceiver</text>
</a>
</g>
</g>
<!-- Node5&#45;&gt;Node21 -->
<g id="edge40" class="edge">
<title>Node5&#45;&gt;Node21</title>
<path fill="none" stroke="#9a32cd" stroke-dasharray="5,2" d="M1227.2,-570.55C1234.05,-617.18 1253.6,-732.9 1282,-758 1298.5,-772.58 1358.03,-777.5 1396.38,-779.16"/>
<polygon fill="#9a32cd" stroke="#9a32cd" points="1230.65,-569.92 1225.77,-560.52 1223.72,-570.91 1230.65,-569.92"/>
<text text-anchor="middle" x="1326" y="-780" font-family="Helvetica,sans-Serif" font-size="10.00"> m_engine</text>
</g>
<!-- Node22 -->
<g id="node22" class="node">
<title>Node22</title>
<g id="a_node22"><a xlink:href="classTime.html" target="_top" xlink:title=" ">
<polygon fill="none" stroke="black" points="1410.5,-370.5 1410.5,-389.5 1451.5,-389.5 1451.5,-370.5 1410.5,-370.5"/>
<text text-anchor="middle" x="1431" y="-377.5" font-family="Helvetica,sans-Serif" font-size="10.00">Time</text>
</a>
</g>
</g>
<!-- Node5&#45;&gt;Node22 -->
<g id="edge43" class="edge">
<title>Node5&#45;&gt;Node22</title>
<path fill="none" stroke="#9a32cd" stroke-dasharray="5,2" d="M1224.88,-531.12C1226.76,-495.71 1236.27,-422.25 1282,-388 1319.9,-359.62 1379.77,-367.9 1410.46,-374.81"/>
<polygon fill="#9a32cd" stroke="#9a32cd" points="1221.38,-531.06 1224.51,-541.18 1228.38,-531.32 1221.38,-531.06"/>
<text text-anchor="middle" x="1326" y="-391" font-family="Helvetica,sans-Serif" font-size="10.00"> m_engine</text>
</g>
<!-- Node23 -->
<g id="node23" class="node">
<title>Node23</title>
<g id="a_node23"><a xlink:href="classMenus.html" target="_top" xlink:title=" ">
<polygon fill="none" stroke="black" points="1645,-283.5 1645,-302.5 1694,-302.5 1694,-283.5 1645,-283.5"/>
<text text-anchor="middle" x="1669.5" y="-290.5" font-family="Helvetica,sans-Serif" font-size="10.00">Menus</text>
</a>
</g>
</g>
<!-- Node5&#45;&gt;Node23 -->
<g id="edge45" class="edge">
<title>Node5&#45;&gt;Node23</title>
<path fill="none" stroke="#9a32cd" stroke-dasharray="5,2" d="M1226.73,-531.39C1232.73,-482.42 1250.89,-356.88 1282,-331 1295.53,-319.74 1580.57,-310.48 1598,-308 1613.73,-305.76 1631.21,-302.06 1644.82,-298.88"/>
<polygon fill="#9a32cd" stroke="#9a32cd" points="1223.25,-531.01 1225.55,-541.35 1230.2,-531.83 1223.25,-531.01"/>
<text text-anchor="middle" x="1431" y="-322" font-family="Helvetica,sans-Serif" font-size="10.00"> m_engine</text>
</g>
<!-- Node24 -->
<g id="node24" class="node">
<title>Node24</title>
<g id="a_node24"><a xlink:href="classMenu.html" target="_top" xlink:title=" ">
<polygon fill="none" stroke="black" points="1409,-283.5 1409,-302.5 1453,-302.5 1453,-283.5 1409,-283.5"/>
<text text-anchor="middle" x="1431" y="-290.5" font-family="Helvetica,sans-Serif" font-size="10.00">Menu</text>
</a>
</g>
</g>
<!-- Node5&#45;&gt;Node24 -->
<g id="edge49" class="edge">
<title>Node5&#45;&gt;Node24</title>
<path fill="none" stroke="#9a32cd" stroke-dasharray="5,2" d="M1225.74,-531.28C1229.67,-475.66 1243.98,-319.58 1282,-289 1318.35,-259.76 1377.55,-273.99 1408.93,-284.75"/>
<polygon fill="#9a32cd" stroke="#9a32cd" points="1222.24,-531.06 1225.07,-541.27 1229.23,-531.53 1222.24,-531.06"/>
<text text-anchor="middle" x="1326" y="-292" font-family="Helvetica,sans-Serif" font-size="10.00"> m_engine</text>
</g>
<!-- Node28 -->
<g id="node28" class="node">
<title>Node28</title>
<g id="a_node28"><a xlink:href="classTimer.html" target="_top" xlink:title=" ">
<polygon fill="none" stroke="black" points="1408.5,-245.5 1408.5,-264.5 1453.5,-264.5 1453.5,-245.5 1408.5,-245.5"/>
<text text-anchor="middle" x="1431" y="-252.5" font-family="Helvetica,sans-Serif" font-size="10.00">Timer</text>
</a>
</g>
</g>
<!-- Node5&#45;&gt;Node28 -->
<g id="edge54" class="edge">
<title>Node5&#45;&gt;Node28</title>
<path fill="none" stroke="#9a32cd" stroke-dasharray="5,2" d="M1225.23,-531.25C1227.9,-470.98 1239.37,-291.37 1282,-256 1317.7,-226.39 1376.63,-238.04 1408.29,-247.48"/>
<polygon fill="#9a32cd" stroke="#9a32cd" points="1221.73,-531.21 1224.81,-541.35 1228.72,-531.5 1221.73,-531.21"/>
<text text-anchor="middle" x="1326" y="-259" font-family="Helvetica,sans-Serif" font-size="10.00"> m_engine</text>
</g>
<!-- Node6&#45;&gt;Node5 -->
<g id="edge5" class="edge">
<title>Node6&#45;&gt;Node5</title>
<path fill="none" stroke="#9a32cd" stroke-dasharray="5,2" d="M1405.96,-969C1395.25,-962.78 1382.3,-955.9 1370,-951 1332.45,-936.03 1309.06,-958.04 1282,-928 1231.26,-871.67 1225.29,-614.45 1224.59,-560.82"/>
<polygon fill="#9a32cd" stroke="#9a32cd" points="1404.34,-972.11 1414.73,-974.22 1407.93,-966.09 1404.34,-972.11"/>
<text text-anchor="middle" x="1326" y="-954" font-family="Helvetica,sans-Serif" font-size="10.00"> m_vlReceiver</text>
</g>
<!-- Node7 -->
<g id="node7" class="node">
<title>Node7</title>
<g id="a_node7"><a xlink:href="classBitStream.html" target="_top" xlink:title=" ">
<polygon fill="none" stroke="black" points="1191,-1109.5 1191,-1128.5 1256,-1128.5 1256,-1109.5 1191,-1109.5"/>
<text text-anchor="middle" x="1223.5" y="-1116.5" font-family="Helvetica,sans-Serif" font-size="10.00">BitStream</text>
</a>
</g>
</g>
<!-- Node7&#45;&gt;Node6 -->
<g id="edge7" class="edge">
<title>Node7&#45;&gt;Node6</title>
<path fill="none" stroke="#9a32cd" stroke-dasharray="5,2" d="M1247.93,-1133.66C1278.69,-1150.81 1333.07,-1173.81 1370,-1148 1422.68,-1111.18 1429.26,-1022.87 1429.96,-993.61"/>
<polygon fill="#9a32cd" stroke="#9a32cd" points="1249.6,-1130.58 1239.2,-1128.58 1246.08,-1136.63 1249.6,-1130.58"/>
<text text-anchor="middle" x="1326" y="-1162" font-family="Helvetica,sans-Serif" font-size="10.00"> m_vlData</text>
</g>
<!-- Node7&#45;&gt;Node9 -->
<g id="edge12" class="edge">
<title>Node7&#45;&gt;Node9</title>
<path fill="none" stroke="#9a32cd" stroke-dasharray="5,2" d="M1266.23,-1130.7C1298.66,-1137.04 1342.61,-1139.13 1370,-1114 1394.57,-1091.45 1371.86,-994.18 1388,-965 1393.63,-954.82 1403.66,-946.53 1412.51,-940.68"/>
<polygon fill="#9a32cd" stroke="#9a32cd" points="1266.65,-1127.21 1256.14,-1128.53 1265.17,-1134.06 1266.65,-1127.21"/>
<text text-anchor="middle" x="1326" y="-1137" font-family="Helvetica,sans-Serif" font-size="10.00"> m_bitStream</text>
</g>
<!-- Node7&#45;&gt;Node16 -->
<g id="edge26" class="edge">
<title>Node7&#45;&gt;Node16</title>
<path fill="none" stroke="#9a32cd" stroke-dasharray="5,2" d="M1263.25,-1106.47C1269.5,-1104.56 1275.91,-1102.68 1282,-1101 1320.77,-1090.32 1343.44,-1110.19 1370,-1080 1394.8,-1051.81 1373.11,-946.47 1388,-912 1394.84,-896.16 1408.65,-881.65 1418.57,-872.59"/>
<polygon fill="#9a32cd" stroke="#9a32cd" points="1262.15,-1103.15 1253.64,-1109.45 1264.22,-1109.83 1262.15,-1103.15"/>
<text text-anchor="middle" x="1326" y="-1104" font-family="Helvetica,sans-Serif" font-size="10.00"> m_bitStream</text>
</g>
<!-- Node7&#45;&gt;Node21 -->
<g id="edge41" class="edge">
<title>Node7&#45;&gt;Node21</title>
<path fill="none" stroke="#9a32cd" stroke-dasharray="5,2" d="M1242.32,-1102.23C1253.52,-1091.86 1268.38,-1078.4 1282,-1067 1319.91,-1035.29 1345.69,-1042.03 1370,-999 1404.11,-938.62 1364.34,-909.19 1388,-844 1395.71,-822.76 1411.7,-801.51 1421.57,-789.63"/>
<polygon fill="#9a32cd" stroke="#9a32cd" points="1239.81,-1099.79 1234.88,-1109.17 1244.58,-1104.91 1239.81,-1099.79"/>
<text text-anchor="middle" x="1326" y="-1070" font-family="Helvetica,sans-Serif" font-size="10.00"> m_irData</text>
</g>
<!-- Node8&#45;&gt;Node5 -->
<g id="edge8" class="edge">
<title>Node8&#45;&gt;Node5</title>
<path fill="none" stroke="#9a32cd" stroke-dasharray="5,2" d="M1394.09,-686.3C1386.18,-683.81 1377.82,-681.26 1370,-679 1331.16,-667.78 1313.87,-680.87 1282,-656 1249.4,-630.55 1232.74,-581.22 1226.93,-560.51"/>
<polygon fill="#9a32cd" stroke="#9a32cd" points="1393.21,-689.69 1403.8,-689.38 1395.33,-683.02 1393.21,-689.69"/>
<text text-anchor="middle" x="1326" y="-682" font-family="Helvetica,sans-Serif" font-size="10.00"> m_storage</text>
</g>
<!-- Node9&#45;&gt;Node5 -->
<g id="edge10" class="edge">
<title>Node9&#45;&gt;Node5</title>
<path fill="none" stroke="#9a32cd" stroke-dasharray="5,2" d="M1413.29,-914.42C1401.94,-904.02 1386.12,-891.09 1370,-883 1333.87,-864.87 1309.54,-889.59 1282,-860 1239.9,-814.77 1227.28,-607.69 1224.94,-560.56"/>
<polygon fill="#9a32cd" stroke="#9a32cd" points="1411.04,-917.11 1420.71,-921.45 1415.85,-912.03 1411.04,-917.11"/>
<text text-anchor="middle" x="1326" y="-886" font-family="Helvetica,sans-Serif" font-size="10.00"> m_irSender</text>
</g>
<!-- Node10 -->
<g id="node10" class="node">
<title>Node10</title>
<g id="a_node10"><a xlink:href="classByteStream.html" target="_top" xlink:title=" ">
<polygon fill="none" stroke="black" points="538.5,-978.5 538.5,-997.5 612.5,-997.5 612.5,-978.5 538.5,-978.5"/>
<text text-anchor="middle" x="575.5" y="-985.5" font-family="Helvetica,sans-Serif" font-size="10.00">ByteStream</text>
</a>
</g>
</g>
<!-- Node10&#45;&gt;Node9 -->
<g id="edge13" class="edge">
<title>Node10&#45;&gt;Node9</title>
<path fill="none" stroke="#9a32cd" stroke-dasharray="5,2" d="M615.74,-1000.46C663.15,-1014.38 745.58,-1035 818,-1035 818,-1035 818,-1035 1224.5,-1035 1289.47,-1035 1319.4,-1061.74 1370,-1021 1390.36,-1004.6 1373.22,-986.57 1388,-965 1394.79,-955.09 1405.29,-946.59 1414.09,-940.57"/>
<polygon fill="#9a32cd" stroke="#9a32cd" points="616.47,-997.02 605.88,-997.51 614.46,-1003.73 616.47,-997.02"/>
<text text-anchor="middle" x="1052.5" y="-1038" font-family="Helvetica,sans-Serif" font-size="10.00"> m_serialBuf</text>
</g>
<!-- Node10&#45;&gt;Node16 -->
<g id="edge27" class="edge">
<title>Node10&#45;&gt;Node16</title>
<path fill="none" stroke="#9a32cd" stroke-dasharray="5,2" d="M622.91,-989.26C790.51,-993.71 1355.41,-1007.8 1370,-996 1399.69,-972 1371.05,-946.21 1388,-912 1395.66,-896.54 1409.3,-881.95 1418.96,-872.77"/>
<polygon fill="#9a32cd" stroke="#9a32cd" points="622.77,-985.75 612.68,-988.99 622.59,-992.75 622.77,-985.75"/>
<text text-anchor="middle" x="1052.5" y="-1002" font-family="Helvetica,sans-Serif" font-size="10.00"> m_serialBuf</text>
</g>
<!-- Node10&#45;&gt;Node18 -->
<g id="edge35" class="edge">
<title>Node10&#45;&gt;Node18</title>
<path fill="none" stroke="#9a32cd" stroke-dasharray="5,2" d="M586.9,-969.31C628.46,-894.63 781.87,-618.93 812.62,-563.68"/>
<polygon fill="#9a32cd" stroke="#9a32cd" points="583.8,-967.68 582,-978.12 589.92,-971.08 583.8,-967.68"/>
<text text-anchor="middle" x="695" y="-874" font-family="Helvetica,sans-Serif" font-size="10.00"> m_storedMode</text>
</g>
<!-- Node11 -->
<g id="node11" class="node">
<title>Node11</title>
<g id="a_node11"><a xlink:href="structByteStream_1_1RawBuffer.html" target="_top" xlink:title=" ">
<polygon fill="none" stroke="black" points="303,-978.5 303,-997.5 434,-997.5 434,-978.5 303,-978.5"/>
<text text-anchor="middle" x="368.5" y="-985.5" font-family="Helvetica,sans-Serif" font-size="10.00">ByteStream::RawBuffer</text>
</a>
</g>
</g>
<!-- Node11&#45;&gt;Node10 -->
<g id="edge14" class="edge">
<title>Node11&#45;&gt;Node10</title>
<path fill="none" stroke="#9a32cd" stroke-dasharray="5,2" d="M444.33,-988C476.36,-988 512.3,-988 538.28,-988"/>
<polygon fill="#9a32cd" stroke="#9a32cd" points="444.08,-984.5 434.08,-988 444.08,-991.5 444.08,-984.5"/>
<text text-anchor="middle" x="481.5" y="-991" font-family="Helvetica,sans-Serif" font-size="10.00"> m_pData</text>
</g>
<!-- Node12&#45;&gt;Node5 -->
<g id="edge16" class="edge">
<title>Node12&#45;&gt;Node5</title>
<path fill="none" stroke="#9a32cd" stroke-dasharray="5,2" d="M1664.86,-579.04C1650.9,-502.65 1601.39,-232.92 1598,-230 1571.4,-207.08 1308.08,-209.49 1282,-233 1234.7,-275.64 1226.07,-492.69 1224.73,-541.32"/>
<polygon fill="#9a32cd" stroke="#9a32cd" points="1661.48,-580.01 1666.72,-589.22 1668.36,-578.75 1661.48,-580.01"/>
<text text-anchor="middle" x="1431" y="-218" font-family="Helvetica,sans-Serif" font-size="10.00"> m_buttons</text>
</g>
<!-- Node13&#45;&gt;Node12 -->
<g id="edge18" class="edge">
<title>Node13&#45;&gt;Node12</title>
<path fill="none" stroke="#9a32cd" stroke-dasharray="5,2" d="M1465.63,-599C1513.17,-599 1599.01,-599 1642.19,-599"/>
<polygon fill="#9a32cd" stroke="#9a32cd" points="1465.54,-595.5 1455.54,-599 1465.54,-602.5 1465.54,-595.5"/>
<text text-anchor="middle" x="1545" y="-602" font-family="Helvetica,sans-Serif" font-size="10.00"> m_buttons</text>
</g>
<!-- Node14&#45;&gt;Node5 -->
<g id="edge20" class="edge">
<title>Node14&#45;&gt;Node5</title>
<path fill="none" stroke="#9a32cd" stroke-dasharray="5,2" d="M1401.23,-553.73C1391.34,-553.05 1380.19,-552.37 1370,-552 1334.15,-550.68 1293.31,-550.52 1264.04,-550.63"/>
<polygon fill="#9a32cd" stroke="#9a32cd" points="1401.14,-557.23 1411.37,-554.47 1401.65,-550.25 1401.14,-557.23"/>
<text text-anchor="middle" x="1326" y="-555" font-family="Helvetica,sans-Serif" font-size="10.00"> m_leds</text>
</g>
<!-- Node15&#45;&gt;Node5 -->
<g id="edge22" class="edge">
<title>Node15&#45;&gt;Node5</title>
<path fill="none" stroke="#9a32cd" stroke-dasharray="5,2" d="M1398.88,-488.95C1367.86,-478.02 1319.56,-466.74 1282,-484 1256.09,-495.91 1237.48,-525.88 1229.24,-541.38"/>
<polygon fill="#9a32cd" stroke="#9a32cd" points="1397.72,-492.25 1408.31,-492.45 1400.15,-485.69 1397.72,-492.25"/>
<text text-anchor="middle" x="1326" y="-487" font-family="Helvetica,sans-Serif" font-size="10.00"> m_patternBuilder</text>
</g>
<!-- Node16&#45;&gt;Node5 -->
<g id="edge24" class="edge">
<title>Node16&#45;&gt;Node5</title>
<path fill="none" stroke="#9a32cd" stroke-dasharray="5,2" d="M1413.29,-846.42C1401.94,-836.02 1386.12,-823.09 1370,-815 1333.87,-796.87 1310.28,-820.89 1282,-792 1248.53,-757.8 1229.8,-601 1225.48,-560.54"/>
<polygon fill="#9a32cd" stroke="#9a32cd" points="1411.04,-849.11 1420.71,-853.45 1415.85,-844.03 1411.04,-849.11"/>
<text text-anchor="middle" x="1326" y="-818" font-family="Helvetica,sans-Serif" font-size="10.00"> m_vlSender</text>
</g>
<!-- Node17&#45;&gt;Node5 -->
<g id="edge28" class="edge">
<title>Node17&#45;&gt;Node5</title>
<path fill="none" stroke="#9a32cd" stroke-dasharray="5,2" d="M1087.31,-535C1114.85,-538.26 1153.8,-542.87 1182.82,-546.3"/>
<polygon fill="#9a32cd" stroke="#9a32cd" points="1087.7,-531.52 1077.36,-533.82 1086.87,-538.47 1087.7,-531.52"/>
<text text-anchor="middle" x="1139" y="-546" font-family="Helvetica,sans-Serif" font-size="10.00"> m_modes</text>
</g>
<!-- Node18&#45;&gt;Node17 -->
<g id="edge30" class="edge">
<title>Node18&#45;&gt;Node17</title>
<path fill="none" stroke="#9a32cd" stroke-dasharray="5,2" d="M875.46,-542.79C879.69,-542.12 883.91,-541.51 888,-541 937.52,-534.78 995.98,-532.39 1027.86,-531.5"/>
<polygon fill="#9a32cd" stroke="#9a32cd" points="874.88,-539.34 865.59,-544.45 876.04,-546.25 874.88,-539.34"/>
<text text-anchor="middle" x="940" y="-555" font-family="Helvetica,sans-Serif" font-size="10.00"> m_pCurModeLink</text>
<text text-anchor="middle" x="940" y="-544" font-family="Helvetica,sans-Serif" font-size="10.00">m_storedModes</text>
</g>
<!-- Node18&#45;&gt;Node18 -->
<g id="edge36" class="edge">
<title>Node18&#45;&gt;Node18</title>
<path fill="none" stroke="#9a32cd" stroke-dasharray="5,2" d="M796.68,-573.03C797.9,-578.13 805.34,-582 819,-582 840.33,-582 846.49,-572.57 837.5,-563.76"/>
<polygon fill="#9a32cd" stroke="#9a32cd" points="799.93,-574.34 800.5,-563.76 793.45,-571.67 799.93,-574.34"/>
<text text-anchor="middle" x="819" y="-596" font-family="Helvetica,sans-Serif" font-size="10.00"> m_next</text>
<text text-anchor="middle" x="819" y="-585" font-family="Helvetica,sans-Serif" font-size="10.00">m_prev</text>
</g>
<!-- Node19&#45;&gt;Node18 -->
<g id="edge31" class="edge">
<title>Node19&#45;&gt;Node18</title>
<path fill="none" stroke="#9a32cd" stroke-dasharray="5,2" d="M607.65,-82.01C652.35,-91.27 731.35,-110.26 750,-132 805.7,-196.91 816.22,-487.05 817.77,-544.2"/>
<polygon fill="#9a32cd" stroke="#9a32cd" points="608.11,-78.53 597.61,-79.97 606.72,-85.39 608.11,-78.53"/>
<text text-anchor="middle" x="695" y="-135" font-family="Helvetica,sans-Serif" font-size="10.00"> m_pInstantiatedMode</text>
</g>
<!-- Node19&#45;&gt;Node24 -->
<g id="edge47" class="edge">
<title>Node19&#45;&gt;Node24</title>
<path fill="none" stroke="#9a32cd" stroke-dasharray="5,2" d="M607.39,-68.99C617.72,-66.83 629.32,-64.6 640,-63 718.6,-51.24 738.53,-46 818,-46 818,-46 818,-46 1224.5,-46 1304.25,-46 1328.62,-82.83 1370,-151 1398.67,-198.23 1354.76,-229.87 1388,-274 1393.1,-280.78 1401.18,-285.2 1408.9,-288.05"/>
<polygon fill="#9a32cd" stroke="#9a32cd" points="606.61,-65.58 597.57,-71.1 608.08,-72.42 606.61,-65.58"/>
<text text-anchor="middle" x="1052.5" y="-49" font-family="Helvetica,sans-Serif" font-size="10.00"> m_previewMode</text>
</g>
<!-- Node20&#45;&gt;Node5 -->
<g id="edge37" class="edge">
<title>Node20&#45;&gt;Node5</title>
<path fill="none" stroke="#9a32cd" stroke-dasharray="5,2" d="M1401.71,-420.28C1369.9,-407.04 1318.01,-392.2 1282,-416 1238.01,-445.08 1227.56,-515.4 1225.18,-541.25"/>
<polygon fill="#9a32cd" stroke="#9a32cd" points="1400.33,-423.5 1410.89,-424.3 1403.13,-417.09 1400.33,-423.5"/>
<text text-anchor="middle" x="1326" y="-419" font-family="Helvetica,sans-Serif" font-size="10.00"> m_serial</text>
</g>
<!-- Node21&#45;&gt;Node5 -->
<g id="edge39" class="edge">
<title>Node21&#45;&gt;Node5</title>
<path fill="none" stroke="#9a32cd" stroke-dasharray="5,2" d="M1405.96,-765C1395.25,-758.78 1382.3,-751.9 1370,-747 1332.45,-732.03 1311.5,-751.64 1282,-724 1233.03,-678.13 1225.73,-589.59 1224.67,-560.51"/>
<polygon fill="#9a32cd" stroke="#9a32cd" points="1404.34,-768.11 1414.73,-770.22 1407.93,-762.09 1404.34,-768.11"/>
<text text-anchor="middle" x="1326" y="-750" font-family="Helvetica,sans-Serif" font-size="10.00"> m_irReceiver</text>
</g>
<!-- Node22&#45;&gt;Node5 -->
<g id="edge42" class="edge">
<title>Node22&#45;&gt;Node5</title>
<path fill="none" stroke="#9a32cd" stroke-dasharray="5,2" d="M1407.35,-364.92C1376.06,-346.16 1319.25,-319.84 1282,-348 1249.93,-372.25 1230.58,-504.15 1225.72,-541.28"/>
<polygon fill="#9a32cd" stroke="#9a32cd" points="1405.86,-368.11 1416.19,-370.43 1409.56,-362.17 1405.86,-368.11"/>
<text text-anchor="middle" x="1326" y="-351" font-family="Helvetica,sans-Serif" font-size="10.00"> m_time</text>
</g>
<!-- Node23&#45;&gt;Node5 -->
<g id="edge44" class="edge">
<title>Node23&#45;&gt;Node5</title>
<path fill="none" stroke="#9a32cd" stroke-dasharray="5,2" d="M1658.63,-274.47C1647.01,-254.71 1625.72,-224.35 1598,-210 1473.27,-145.45 1383.57,-115 1282,-212 1232.79,-259 1225.62,-491.18 1224.65,-541.41"/>
<polygon fill="#9a32cd" stroke="#9a32cd" points="1655.73,-276.44 1663.68,-283.44 1661.83,-273.01 1655.73,-276.44"/>
<text text-anchor="middle" x="1431" y="-160" font-family="Helvetica,sans-Serif" font-size="10.00"> m_menus</text>
</g>
<!-- Node24&#45;&gt;Node23 -->
<g id="edge46" class="edge">
<title>Node24&#45;&gt;Node23</title>
<path fill="none" stroke="#9a32cd" stroke-dasharray="5,2" d="M1463.54,-293C1511.59,-293 1602.06,-293 1644.88,-293"/>
<polygon fill="#9a32cd" stroke="#9a32cd" points="1463.4,-289.5 1453.4,-293 1463.4,-296.5 1463.4,-289.5"/>
<text text-anchor="middle" x="1545" y="-296" font-family="Helvetica,sans-Serif" font-size="10.00"> m_pCurMenu</text>
</g>
<!-- Node25 -->
<g id="node25" class="node">
<title>Node25</title>
<g id="a_node25"><a xlink:href="classRGBColor.html" target="_top" xlink:title=" ">
<polygon fill="none" stroke="black" points="0,-136.5 0,-155.5 63,-155.5 63,-136.5 0,-136.5"/>
<text text-anchor="middle" x="31.5" y="-143.5" font-family="Helvetica,sans-Serif" font-size="10.00">RGBColor</text>
</a>
</g>
</g>
<!-- Node25&#45;&gt;Node24 -->
<g id="edge48" class="edge">
<title>Node25&#45;&gt;Node24</title>
<path fill="none" stroke="#9a32cd" stroke-dasharray="5,2" d="M72.95,-154.07C102.37,-159.25 143.24,-165 179.5,-165 179.5,-165 179.5,-165 1224.5,-165 1295.88,-165 1320.12,-181.94 1370,-233 1383.91,-247.24 1374.01,-259.85 1388,-274 1393.74,-279.8 1401.57,-284 1408.92,-286.95"/>
<polygon fill="#9a32cd" stroke="#9a32cd" points="73.5,-150.61 63.04,-152.27 72.26,-157.5 73.5,-150.61"/>
<text text-anchor="middle" x="695" y="-168" font-family="Helvetica,sans-Serif" font-size="10.00"> m_menuColor</text>
</g>
<!-- Node26 -->
<g id="node26" class="node">
<title>Node26</title>
<g id="a_node26"><a xlink:href="classColorset.html" target="_top" xlink:title=" ">
<polygon fill="none" stroke="black" points="152,-117.5 152,-136.5 209,-136.5 209,-117.5 152,-117.5"/>
<text text-anchor="middle" x="180.5" y="-124.5" font-family="Helvetica,sans-Serif" font-size="10.00">Colorset</text>
</a>
</g>
</g>
<!-- Node25&#45;&gt;Node26 -->
<g id="edge51" class="edge">
<title>Node25&#45;&gt;Node26</title>
<path fill="none" stroke="#9a32cd" stroke-dasharray="5,2" d="M73.24,-140.73C98.22,-137.51 129.55,-133.46 151.7,-130.59"/>
<polygon fill="#9a32cd" stroke="#9a32cd" points="72.78,-137.26 63.32,-142.02 73.68,-144.21 72.78,-137.26"/>
<text text-anchor="middle" x="107.5" y="-142" font-family="Helvetica,sans-Serif" font-size="10.00"> m_palette</text>
</g>
<!-- Node26&#45;&gt;Node4 -->
<g id="edge50" class="edge">
<title>Node26&#45;&gt;Node4</title>
<path fill="none" stroke="#9a32cd" stroke-dasharray="5,2" d="M219.7,-122.07C256.55,-117.32 311.25,-110.26 342.74,-106.19"/>
<polygon fill="#9a32cd" stroke="#9a32cd" points="218.82,-118.66 209.35,-123.41 219.71,-125.6 218.82,-118.66"/>
<text text-anchor="middle" x="256" y="-123" font-family="Helvetica,sans-Serif" font-size="10.00"> m_colorset</text>
</g>
<!-- Node27 -->
<g id="node27" class="node">
<title>Node27</title>
<g id="a_node27"><a xlink:href="classPatternArgs.html" target="_top" xlink:title=" ">
<polygon fill="none" stroke="black" points="1394.5,-75.5 1394.5,-94.5 1467.5,-94.5 1467.5,-75.5 1394.5,-75.5"/>
<text text-anchor="middle" x="1431" y="-82.5" font-family="Helvetica,sans-Serif" font-size="10.00">PatternArgs</text>
</a>
</g>
</g>
<!-- Node27&#45;&gt;Node1 -->
<g id="edge52" class="edge">
<title>Node27&#45;&gt;Node1</title>
<path fill="none" stroke="#9a32cd" stroke-dasharray="5,2" d="M1477.6,-80.01C1511.35,-77.65 1558.19,-77.17 1598,-87 1618.95,-92.17 1640.72,-104.54 1654.42,-113.33"/>
<polygon fill="#9a32cd" stroke="#9a32cd" points="1477.26,-76.53 1467.57,-80.8 1477.81,-83.51 1477.26,-76.53"/>
<text text-anchor="middle" x="1545" y="-101" font-family="Helvetica,sans-Serif" font-size="10.00"> m_firstPatternArgs</text>
<text text-anchor="middle" x="1545" y="-90" font-family="Helvetica,sans-Serif" font-size="10.00">m_secondPatternArgs</text>
</g>
<!-- Node28&#45;&gt;Node1 -->
<g id="edge53" class="edge">
<title>Node28&#45;&gt;Node1</title>
<path fill="none" stroke="#9a32cd" stroke-dasharray="5,2" d="M1458.41,-240.26C1507.29,-212.98 1610.6,-155.32 1651.4,-132.54"/>
<polygon fill="#9a32cd" stroke="#9a32cd" points="1456.42,-237.36 1449.39,-245.29 1459.83,-243.48 1456.42,-237.36"/>
<text text-anchor="middle" x="1545" y="-222" font-family="Helvetica,sans-Serif" font-size="10.00"> m_stepTimer</text>
</g>
</g>
</svg>
        <g id="navigator" transform="translate(0 0)" fill="#404254">
                <rect fill="#f2f5e9" fill-opacity="0.5" stroke="#606060" stroke-width=".5" x="0" y="0" width="60" height="60"/>
                <use id="zoomplus" xlink:href="#zoomPlus" x="17" y="9" onmousedown="handleZoom(evt,'in')"/>
                <use id="zoomminus" xlink:href="#zoomMin" x="42" y="9" onmousedown="handleZoom(evt,'out')"/>
                <use id="reset" xlink:href="#resetDef" x="30" y="36" onmousedown="handleReset()"/>
                <g id="arrowUp" xlink:href="#dirArrow" transform="translate(30 24)" onmousedown="handlePan(0,-1)">
                  <use xlink:href="#rim" fill="#404040">
                        <set attributeName="fill" to="#808080" begin="arrowUp.mouseover" end="arrowUp.mouseout"/>
                  </use>
                  <path fill="none" stroke="white" stroke-width="1.5" d="M0,-3.0v7 M-2.5,-0.5L0,-3.0L2.5,-0.5"/>
                </g>
                <g id="arrowRight" xlink:href="#dirArrow" transform="rotate(90) translate(36 -43)" onmousedown="handlePan(1,0)">
                  <use xlink:href="#rim" fill="#404040">
                        <set attributeName="fill" to="#808080" begin="arrowRight.mouseover" end="arrowRight.mouseout"/>
                  </use>
                  <path fill="none" stroke="white" stroke-width="1.5" d="M0,-3.0v7 M-2.5,-0.5L0,-3.0L2.5,-0.5"/>
                </g>
                <g id="arrowDown" xlink:href="#dirArrow" transform="rotate(180) translate(-30 -48)" onmousedown="handlePan(0,1)">
                  <use xlink:href="#rim" fill="#404040">
                        <set attributeName="fill" to="#808080" begin="arrowDown.mouseover" end="arrowDown.mouseout"/>
                  </use>
                  <path fill="none" stroke="white" stroke-width="1.5" d="M0,-3.0v7 M-2.5,-0.5L0,-3.0L2.5,-0.5"/>
                </g>
                <g id="arrowLeft" xlink:href="#dirArrow" transform="rotate(270) translate(-36 17)" onmousedown="handlePan(-1,0)">
                  <use xlink:href="#rim" fill="#404040">
                        <set attributeName="fill" to="#808080" begin="arrowLeft.mouseover" end="arrowLeft.mouseout"/>
                  </use>
                  <path fill="none" stroke="white" stroke-width="1.5" d="M0,-3.0v7 M-2.5,-0.5L0,-3.0L2.5,-0.5"/>
                </g>
        </g>
        <svg viewBox="0 0 15 15" width="100%" height="30px" preserveAspectRatio="xMaxYMin meet">
         <g id="arrow_out" transform="scale(0.3 0.3)">
          <a xlink:href="classBackStrobePattern__coll__graph_org.svg" target="_base">
           <rect id="button" ry="5" rx="5" y="6" x="6" height="38" width="38"
                fill="#f2f5e9" fill-opacity="0.5" stroke="#606060" stroke-width="1.0"/>
           <path id="arrow"
             d="M 11.500037,31.436501 C 11.940474,20.09759 22.043105,11.32322 32.158766,21.979434 L 37.068811,17.246167 C 37.068811,17.246167 37.088388,32 37.088388,32 L 22.160133,31.978069 C 22.160133,31.978069 26.997745,27.140456 26.997745,27.140456 C 18.528582,18.264221 13.291696,25.230495 11.500037,31.436501 z"
             style="fill:#404040;"/>
          </a>
         </g>
        </svg>
</svg>
