<?xml version="1.0" encoding="UTF-8" standalone="no"?>
<!DOCTYPE svg PUBLIC "-//W3C//DTD SVG 1.1//EN"
 "http://www.w3.org/Graphics/SVG/1.1/DTD/svg11.dtd">
<!-- Generated by graphviz version 2.43.0 (0)
 -->
<!-- Title: MeteorPattern Pages: 1 -->
<svg width="236pt" height="373pt"
 viewBox="0.00 0.00 235.50 373.00" xmlns="http://www.w3.org/2000/svg" xmlns:xlink="http://www.w3.org/1999/xlink">
<g id="graph0" class="graph" transform="scale(1 1) rotate(0) translate(4 369)">
<title>MeteorPattern</title>
<!-- Node1 -->
<g id="node1" class="node">
<title>Node1</title>
<g id="a_node1"><a xlink:title=" ">
<polygon fill="#bfbfbf" stroke="black" points="44.5,-0.5 44.5,-19.5 130.5,-19.5 130.5,-0.5 44.5,-0.5"/>
<text text-anchor="middle" x="87.5" y="-7.5" font-family="Helvetica,sans-Serif" font-size="10.00">MeteorPattern</text>
</a>
</g>
</g>
<!-- Node2 -->
<g id="node2" class="node">
<title>Node2</title>
<g id="a_node2"><a xlink:href="classBlinkStepPattern.html" target="_top" xlink:title=" ">
<polygon fill="none" stroke="black" points="38.5,-67.5 38.5,-86.5 136.5,-86.5 136.5,-67.5 38.5,-67.5"/>
<text text-anchor="middle" x="87.5" y="-74.5" font-family="Helvetica,sans-Serif" font-size="10.00">BlinkStepPattern</text>
</a>
</g>
</g>
<!-- Node2&#45;&gt;Node1 -->
<g id="edge1" class="edge">
<title>Node2&#45;&gt;Node1</title>
<path fill="none" stroke="midnightblue" d="M87.5,-57.04C87.5,-44.67 87.5,-29.12 87.5,-19.63"/>
<polygon fill="midnightblue" stroke="midnightblue" points="84,-57.23 87.5,-67.23 91,-57.23 84,-57.23"/>
</g>
<!-- Node3 -->
<g id="node3" class="node">
<title>Node3</title>
<g id="a_node3"><a xlink:href="classMultiLedPattern.html" target="_top" xlink:title=" ">
<polygon fill="none" stroke="black" points="128,-145.5 128,-164.5 221,-164.5 221,-145.5 128,-145.5"/>
<text text-anchor="middle" x="174.5" y="-152.5" font-family="Helvetica,sans-Serif" font-size="10.00">MultiLedPattern</text>
</a>
</g>
</g>
<!-- Node3&#45;&gt;Node2 -->
<g id="edge2" class="edge">
<title>Node3&#45;&gt;Node2</title>
<path fill="none" stroke="midnightblue" d="M172.78,-135.32C170.95,-125.22 167.2,-113.19 159.5,-105 151.45,-96.44 140.43,-90.58 129.43,-86.56"/>
<polygon fill="midnightblue" stroke="midnightblue" points="169.31,-135.79 174.1,-145.24 176.25,-134.86 169.31,-135.79"/>
</g>
<!-- Node4 -->
<g id="node4" class="node">
<title>Node4</title>
<g id="a_node4"><a xlink:href="classPattern.html" target="_top" xlink:title=" ">
<polygon fill="none" stroke="black" points="146,-202.5 146,-221.5 197,-221.5 197,-202.5 146,-202.5"/>
<text text-anchor="middle" x="171.5" y="-209.5" font-family="Helvetica,sans-Serif" font-size="10.00">Pattern</text>
</a>
</g>
</g>
<!-- Node4&#45;&gt;Node3 -->
<g id="edge3" class="edge">
<title>Node4&#45;&gt;Node3</title>
<path fill="none" stroke="midnightblue" d="M172.53,-192.12C173.04,-182.82 173.62,-172.06 174.02,-164.71"/>
<polygon fill="midnightblue" stroke="midnightblue" points="169.02,-192.23 171.97,-202.41 176.01,-192.61 169.02,-192.23"/>
</g>
<!-- Node5 -->
<g id="node5" class="node">
<title>Node5</title>
<g id="a_node5"><a xlink:href="classColorset.html" target="_top" xlink:title=" ">
<polygon fill="none" stroke="black" points="138,-278.5 138,-297.5 195,-297.5 195,-278.5 138,-278.5"/>
<text text-anchor="middle" x="166.5" y="-285.5" font-family="Helvetica,sans-Serif" font-size="10.00">Colorset</text>
</a>
</g>
</g>
<!-- Node5&#45;&gt;Node4 -->
<g id="edge4" class="edge">
<title>Node5&#45;&gt;Node4</title>
<path fill="none" stroke="#9a32cd" stroke-dasharray="5,2" d="M167.78,-268.07C168.79,-253.18 170.14,-233.11 170.91,-221.77"/>
<polygon fill="#9a32cd" stroke="#9a32cd" points="164.28,-268.01 167.09,-278.22 171.26,-268.48 164.28,-268.01"/>
<text text-anchor="middle" x="198.5" y="-247.5" font-family="Helvetica,sans-Serif" font-size="10.00"> m_colorset</text>
</g>
<!-- Node6 -->
<g id="node6" class="node">
<title>Node6</title>
<g id="a_node6"><a xlink:href="classRGBColor.html" target="_top" xlink:title=" ">
<polygon fill="none" stroke="black" points="71,-345.5 71,-364.5 134,-364.5 134,-345.5 71,-345.5"/>
<text text-anchor="middle" x="102.5" y="-352.5" font-family="Helvetica,sans-Serif" font-size="10.00">RGBColor</text>
</a>
</g>
</g>
<!-- Node6&#45;&gt;Node5 -->
<g id="edge5" class="edge">
<title>Node6&#45;&gt;Node5</title>
<path fill="none" stroke="#9a32cd" stroke-dasharray="5,2" d="M125.62,-339.55C130.8,-335.79 136.07,-331.51 140.5,-327 149.24,-318.1 156.98,-305.94 161.7,-297.79"/>
<polygon fill="#9a32cd" stroke="#9a32cd" points="123.43,-336.81 117.15,-345.34 127.38,-342.58 123.43,-336.81"/>
<text text-anchor="middle" x="175" y="-319" font-family="Helvetica,sans-Serif" font-size="10.00"> m_palette</text>
</g>
<!-- Node9 -->
<g id="node9" class="node">
<title>Node9</title>
<g id="a_node9"><a xlink:href="classLedStash.html" target="_top" xlink:title=" ">
<polygon fill="none" stroke="black" points="0,-240.5 0,-259.5 61,-259.5 61,-240.5 0,-240.5"/>
<text text-anchor="middle" x="30.5" y="-247.5" font-family="Helvetica,sans-Serif" font-size="10.00">LedStash</text>
</a>
</g>
</g>
<!-- Node6&#45;&gt;Node9 -->
<g id="edge9" class="edge">
<title>Node6&#45;&gt;Node9</title>
<path fill="none" stroke="#9a32cd" stroke-dasharray="5,2" d="M62.01,-340.74C55.73,-337.14 49.88,-332.63 45.5,-327 29.8,-306.84 29.14,-274.74 29.85,-259.53"/>
<polygon fill="#9a32cd" stroke="#9a32cd" points="60.89,-344.09 71.4,-345.39 63.99,-337.82 60.89,-344.09"/>
<text text-anchor="middle" x="91" y="-319" font-family="Helvetica,sans-Serif" font-size="10.00"> m_ledColorsStash</text>
</g>
<!-- Node7 -->
<g id="node7" class="node">
<title>Node7</title>
<g id="a_node7"><a xlink:href="classTimer.html" target="_top" xlink:title=" ">
<polygon fill="none" stroke="black" points="65,-145.5 65,-164.5 110,-164.5 110,-145.5 65,-145.5"/>
<text text-anchor="middle" x="87.5" y="-152.5" font-family="Helvetica,sans-Serif" font-size="10.00">Timer</text>
</a>
</g>
</g>
<!-- Node7&#45;&gt;Node2 -->
<g id="edge6" class="edge">
<title>Node7&#45;&gt;Node2</title>
<path fill="none" stroke="#9a32cd" stroke-dasharray="5,2" d="M87.5,-135.22C87.5,-119.7 87.5,-98.36 87.5,-86.62"/>
<polygon fill="#9a32cd" stroke="#9a32cd" points="84,-135.28 87.5,-145.28 91,-135.28 84,-135.28"/>
<text text-anchor="middle" x="123" y="-119" font-family="Helvetica,sans-Serif" font-size="10.00"> m_blinkTimer</text>
<text text-anchor="middle" x="123" y="-108" font-family="Helvetica,sans-Serif" font-size="10.00">m_stepTimer</text>
</g>
<!-- Node8 -->
<g id="node8" class="node">
<title>Node8</title>
<g id="a_node8"><a xlink:href="classRandom.html" target="_top" xlink:title=" ">
<polygon fill="none" stroke="black" points="155,-67.5 155,-86.5 212,-86.5 212,-67.5 155,-67.5"/>
<text text-anchor="middle" x="183.5" y="-74.5" font-family="Helvetica,sans-Serif" font-size="10.00">Random</text>
</a>
</g>
</g>
<!-- Node8&#45;&gt;Node1 -->
<g id="edge7" class="edge">
<title>Node8&#45;&gt;Node1</title>
<path fill="none" stroke="#9a32cd" stroke-dasharray="5,2" d="M162.22,-61.59C143.23,-48.74 116.05,-30.33 100.24,-19.63"/>
<polygon fill="#9a32cd" stroke="#9a32cd" points="160.31,-64.53 170.55,-67.23 164.23,-58.73 160.31,-64.53"/>
<text text-anchor="middle" x="169" y="-41" font-family="Helvetica,sans-Serif" font-size="10.00"> m_randCtx</text>
</g>
<!-- Node9&#45;&gt;Node1 -->
<g id="edge8" class="edge">
<title>Node9&#45;&gt;Node1</title>
<path fill="none" stroke="#9a32cd" stroke-dasharray="5,2" d="M18.08,-231.78C10.2,-219.18 1.5,-201.33 1.5,-184 1.5,-184 1.5,-184 1.5,-76 1.5,-46.8 33.44,-29.05 58.38,-19.64"/>
<polygon fill="#9a32cd" stroke="#9a32cd" points="15.3,-233.93 23.77,-240.3 21.12,-230.04 15.3,-233.93"/>
<text text-anchor="middle" x="24" y="-152.5" font-family="Helvetica,sans-Serif" font-size="10.00"> m_stash</text>
</g>
</g>
</svg>
