<?xml version="1.0" encoding="UTF-8" standalone="no"?>
<!DOCTYPE svg PUBLIC "-//W3C//DTD SVG 1.1//EN"
 "http://www.w3.org/Graphics/SVG/1.1/DTD/svg11.dtd">
<!-- Generated by graphviz version 2.43.0 (0)
 -->
<!-- Title: Menus Pages: 1 -->
<svg width="1168pt" height="1257pt"
 viewBox="0.00 0.00 1168.00 1257.00" xmlns="http://www.w3.org/2000/svg" xmlns:xlink="http://www.w3.org/1999/xlink">
<g id="graph0" class="graph" transform="scale(1 1) rotate(0) translate(4 1253)">
<title>Menus</title>
<!-- Node1 -->
<g id="node1" class="node">
<title>Node1</title>
<g id="a_node1"><a xlink:title=" ">
<polygon fill="#bfbfbf" stroke="black" points="41,-656.5 41,-675.5 90,-675.5 90,-656.5 41,-656.5"/>
<text text-anchor="middle" x="65.5" y="-663.5" font-family="Helvetica,sans-Serif" font-size="10.00">Menus</text>
</a>
</g>
</g>
<!-- Node2 -->
<g id="node2" class="node">
<title>Node2</title>
<g id="a_node2"><a xlink:href="classVortexEngine.html" target="_top" xlink:title=" ">
<polygon fill="none" stroke="black" points="220,-690.5 220,-709.5 301,-709.5 301,-690.5 220,-690.5"/>
<text text-anchor="middle" x="260.5" y="-697.5" font-family="Helvetica,sans-Serif" font-size="10.00">VortexEngine</text>
</a>
</g>
</g>
<!-- Node1&#45;&gt;Node2 -->
<g id="edge49" class="edge">
<title>Node1&#45;&gt;Node2</title>
<path fill="none" stroke="#9a32cd" stroke-dasharray="5,2" d="M100.33,-671.96C133.69,-677.84 184.65,-686.81 219.88,-693.02"/>
<polygon fill="#9a32cd" stroke="#9a32cd" points="100.62,-668.46 90.17,-670.17 99.41,-675.35 100.62,-668.46"/>
<text text-anchor="middle" x="175.5" y="-692" font-family="Helvetica,sans-Serif" font-size="10.00"> m_menus</text>
</g>
<!-- Node2&#45;&gt;Node1 -->
<g id="edge1" class="edge">
<title>Node2&#45;&gt;Node1</title>
<path fill="none" stroke="#9a32cd" stroke-dasharray="5,2" d="M238.7,-684.59C228.25,-677.78 215.06,-670.53 202,-667 163.85,-656.68 117.42,-659.47 90,-662.61"/>
<polygon fill="#9a32cd" stroke="#9a32cd" points="236.88,-687.58 247.1,-690.35 240.84,-681.81 236.88,-687.58"/>
<text text-anchor="middle" x="175.5" y="-670" font-family="Helvetica,sans-Serif" font-size="10.00"> m_engine</text>
</g>
<!-- Node2&#45;&gt;Node2 -->
<g id="edge12" class="edge">
<title>Node2&#45;&gt;Node2</title>
<path fill="none" stroke="#9a32cd" stroke-dasharray="5,2" d="M245.03,-719.77C246.25,-724.5 251.4,-728 260.5,-728 275.43,-728 279.75,-718.57 273.45,-709.76"/>
<polygon fill="#9a32cd" stroke="#9a32cd" points="248.5,-720.31 247.55,-709.76 241.72,-718.6 248.5,-720.31"/>
<text text-anchor="middle" x="260.5" y="-731" font-family="Helvetica,sans-Serif" font-size="10.00"> m_engine</text>
</g>
<!-- Node3 -->
<g id="node3" class="node">
<title>Node3</title>
<g id="a_node3"><a xlink:href="classVLReceiver.html" target="_top" xlink:title=" ">
<polygon fill="none" stroke="black" points="432.5,-775.5 432.5,-794.5 503.5,-794.5 503.5,-775.5 432.5,-775.5"/>
<text text-anchor="middle" x="468" y="-782.5" font-family="Helvetica,sans-Serif" font-size="10.00">VLReceiver</text>
</a>
</g>
</g>
<!-- Node2&#45;&gt;Node3 -->
<g id="edge3" class="edge">
<title>Node2&#45;&gt;Node3</title>
<path fill="none" stroke="#9a32cd" stroke-dasharray="5,2" d="M267.1,-719.59C274.72,-742.16 290.75,-778.16 319,-794 357.29,-815.46 410.22,-804.34 441.31,-794.52"/>
<polygon fill="#9a32cd" stroke="#9a32cd" points="270.34,-718.24 264.02,-709.74 263.66,-720.33 270.34,-718.24"/>
<text text-anchor="middle" x="363" y="-809" font-family="Helvetica,sans-Serif" font-size="10.00"> m_engine</text>
</g>
<!-- Node5 -->
<g id="node5" class="node">
<title>Node5</title>
<g id="a_node5"><a xlink:href="classStorage.html" target="_top" xlink:title=" ">
<polygon fill="none" stroke="black" points="441,-727.5 441,-746.5 495,-746.5 495,-727.5 441,-727.5"/>
<text text-anchor="middle" x="468" y="-734.5" font-family="Helvetica,sans-Serif" font-size="10.00">Storage</text>
</a>
</g>
</g>
<!-- Node2&#45;&gt;Node5 -->
<g id="edge6" class="edge">
<title>Node2&#45;&gt;Node5</title>
<path fill="none" stroke="#9a32cd" stroke-dasharray="5,2" d="M285.34,-714.81C295.36,-720.28 307.37,-725.9 319,-729 360.52,-740.07 410.85,-740.1 440.83,-738.79"/>
<polygon fill="#9a32cd" stroke="#9a32cd" points="286.84,-711.64 276.43,-709.7 283.36,-717.71 286.84,-711.64"/>
<text text-anchor="middle" x="363" y="-742" font-family="Helvetica,sans-Serif" font-size="10.00"> m_engine</text>
</g>
<!-- Node6 -->
<g id="node6" class="node">
<title>Node6</title>
<g id="a_node6"><a xlink:href="classIRSender.html" target="_top" xlink:title=" ">
<polygon fill="none" stroke="black" points="438,-300.5 438,-319.5 498,-319.5 498,-300.5 438,-300.5"/>
<text text-anchor="middle" x="468" y="-307.5" font-family="Helvetica,sans-Serif" font-size="10.00">IRSender</text>
</a>
</g>
</g>
<!-- Node2&#45;&gt;Node6 -->
<g id="edge8" class="edge">
<title>Node2&#45;&gt;Node6</title>
<path fill="none" stroke="#9a32cd" stroke-dasharray="5,2" d="M264.13,-680.16C272.63,-617.28 299.92,-425.32 319,-405 346.67,-375.53 372.88,-403.67 407,-382 432.55,-365.77 452.64,-335.12 461.73,-319.57"/>
<polygon fill="#9a32cd" stroke="#9a32cd" points="260.62,-679.96 262.77,-690.33 267.56,-680.89 260.62,-679.96"/>
<text text-anchor="middle" x="363" y="-408" font-family="Helvetica,sans-Serif" font-size="10.00"> m_engine</text>
</g>
<!-- Node9 -->
<g id="node9" class="node">
<title>Node9</title>
<g id="a_node9"><a xlink:href="classButtons.html" target="_top" xlink:title=" ">
<polygon fill="none" stroke="black" points="664.5,-679.5 664.5,-698.5 718.5,-698.5 718.5,-679.5 664.5,-679.5"/>
<text text-anchor="middle" x="691.5" y="-686.5" font-family="Helvetica,sans-Serif" font-size="10.00">Buttons</text>
</a>
</g>
</g>
<!-- Node2&#45;&gt;Node9 -->
<g id="edge14" class="edge">
<title>Node2&#45;&gt;Node9</title>
<path fill="none" stroke="#9a32cd" stroke-dasharray="5,2" d="M291.55,-686.59C300.27,-683.08 309.9,-679.56 319,-677 365,-664.05 377.38,-663.01 425,-659 463.09,-655.79 472.91,-655.84 511,-659 565.95,-663.56 629.39,-675.84 664.21,-683.2"/>
<polygon fill="#9a32cd" stroke="#9a32cd" points="290.04,-683.42 282.16,-690.5 292.74,-689.88 290.04,-683.42"/>
<text text-anchor="middle" x="468" y="-662" font-family="Helvetica,sans-Serif" font-size="10.00"> m_engine</text>
</g>
<!-- Node10 -->
<g id="node10" class="node">
<title>Node10</title>
<g id="a_node10"><a xlink:href="classButton.html" target="_top" xlink:title=" ">
<polygon fill="none" stroke="black" points="443.5,-679.5 443.5,-698.5 492.5,-698.5 492.5,-679.5 443.5,-679.5"/>
<text text-anchor="middle" x="468" y="-686.5" font-family="Helvetica,sans-Serif" font-size="10.00">Button</text>
</a>
</g>
</g>
<!-- Node2&#45;&gt;Node10 -->
<g id="edge16" class="edge">
<title>Node2&#45;&gt;Node10</title>
<path fill="none" stroke="#9a32cd" stroke-dasharray="5,2" d="M299.65,-687.83C306.05,-686.24 312.67,-684.86 319,-684 362.56,-678.05 413.96,-682.28 443.29,-685.75"/>
<polygon fill="#9a32cd" stroke="#9a32cd" points="298.59,-684.49 289.84,-690.47 300.41,-691.25 298.59,-684.49"/>
<text text-anchor="middle" x="363" y="-687" font-family="Helvetica,sans-Serif" font-size="10.00"> m_engine</text>
</g>
<!-- Node11 -->
<g id="node11" class="node">
<title>Node11</title>
<g id="a_node11"><a xlink:href="classLeds.html" target="_top" xlink:title=" ">
<polygon fill="none" stroke="black" points="448.5,-565.5 448.5,-584.5 487.5,-584.5 487.5,-565.5 448.5,-565.5"/>
<text text-anchor="middle" x="468" y="-572.5" font-family="Helvetica,sans-Serif" font-size="10.00">Leds</text>
</a>
</g>
</g>
<!-- Node2&#45;&gt;Node11 -->
<g id="edge18" class="edge">
<title>Node2&#45;&gt;Node11</title>
<path fill="none" stroke="#9a32cd" stroke-dasharray="5,2" d="M265.81,-680.52C272.51,-655.29 288.01,-612.04 319,-591 358.55,-564.14 418.23,-567.75 448.29,-571.81"/>
<polygon fill="#9a32cd" stroke="#9a32cd" points="262.37,-679.87 263.4,-690.41 269.17,-681.53 262.37,-679.87"/>
<text text-anchor="middle" x="363" y="-594" font-family="Helvetica,sans-Serif" font-size="10.00"> m_engine</text>
</g>
<!-- Node12 -->
<g id="node12" class="node">
<title>Node12</title>
<g id="a_node12"><a xlink:href="classPatternBuilder.html" target="_top" xlink:title=" ">
<polygon fill="none" stroke="black" points="425,-498.5 425,-517.5 511,-517.5 511,-498.5 425,-498.5"/>
<text text-anchor="middle" x="468" y="-505.5" font-family="Helvetica,sans-Serif" font-size="10.00">PatternBuilder</text>
</a>
</g>
</g>
<!-- Node2&#45;&gt;Node12 -->
<g id="edge20" class="edge">
<title>Node2&#45;&gt;Node12</title>
<path fill="none" stroke="#9a32cd" stroke-dasharray="5,2" d="M261.9,-680.23C263.77,-644.24 273.27,-568.22 319,-530 348.2,-505.6 392.45,-501.92 424.96,-503.24"/>
<polygon fill="#9a32cd" stroke="#9a32cd" points="258.39,-680.29 261.52,-690.41 265.39,-680.55 258.39,-680.29"/>
<text text-anchor="middle" x="363" y="-533" font-family="Helvetica,sans-Serif" font-size="10.00"> m_engine</text>
</g>
<!-- Node13 -->
<g id="node13" class="node">
<title>Node13</title>
<g id="a_node13"><a xlink:href="classVLSender.html" target="_top" xlink:title=" ">
<polygon fill="none" stroke="black" points="437,-147.5 437,-166.5 499,-166.5 499,-147.5 437,-147.5"/>
<text text-anchor="middle" x="468" y="-154.5" font-family="Helvetica,sans-Serif" font-size="10.00">VLSender</text>
</a>
</g>
</g>
<!-- Node2&#45;&gt;Node13 -->
<g id="edge22" class="edge">
<title>Node2&#45;&gt;Node13</title>
<path fill="none" stroke="#9a32cd" stroke-dasharray="5,2" d="M264.61,-680.11C276.54,-603.99 318.63,-335.4 319,-335 346.3,-305.48 380.02,-343.81 407,-314 447.02,-269.77 391.66,-230.46 425,-181 429.13,-174.87 435.38,-170.12 441.81,-166.52"/>
<polygon fill="#9a32cd" stroke="#9a32cd" points="261.12,-679.83 263.03,-690.25 268.03,-680.91 261.12,-679.83"/>
<text text-anchor="middle" x="363" y="-338" font-family="Helvetica,sans-Serif" font-size="10.00"> m_engine</text>
</g>
<!-- Node14 -->
<g id="node14" class="node">
<title>Node14</title>
<g id="a_node14"><a xlink:href="classModes.html" target="_top" xlink:title=" ">
<polygon fill="none" stroke="black" points="1111,-872.5 1111,-891.5 1160,-891.5 1160,-872.5 1111,-872.5"/>
<text text-anchor="middle" x="1135.5" y="-879.5" font-family="Helvetica,sans-Serif" font-size="10.00">Modes</text>
</a>
</g>
</g>
<!-- Node2&#45;&gt;Node14 -->
<g id="edge26" class="edge">
<title>Node2&#45;&gt;Node14</title>
<path fill="none" stroke="#9a32cd" stroke-dasharray="5,2" d="M260.56,-719.72C259.86,-759.66 264.73,-849.72 319,-890 335.31,-902.1 977.78,-886.08 1110.62,-882.63"/>
<polygon fill="#9a32cd" stroke="#9a32cd" points="264.06,-719.77 260.87,-709.66 257.06,-719.55 264.06,-719.77"/>
<text text-anchor="middle" x="691.5" y="-895" font-family="Helvetica,sans-Serif" font-size="10.00"> m_engine</text>
</g>
<!-- Node15 -->
<g id="node15" class="node">
<title>Node15</title>
<g id="a_node15"><a xlink:href="classModes_1_1ModeLink.html" target="_top" xlink:title=" ">
<polygon fill="none" stroke="black" points="885,-76.5 885,-95.5 987,-95.5 987,-76.5 885,-76.5"/>
<text text-anchor="middle" x="936" y="-83.5" font-family="Helvetica,sans-Serif" font-size="10.00">Modes::ModeLink</text>
</a>
</g>
</g>
<!-- Node2&#45;&gt;Node15 -->
<g id="edge34" class="edge">
<title>Node2&#45;&gt;Node15</title>
<path fill="none" stroke="#9a32cd" stroke-dasharray="5,2" d="M265.26,-680.39C273.21,-638.11 291.77,-535.13 301,-448 304.79,-412.26 295.91,-152.55 319,-125 355.05,-81.98 744.64,-83.25 884.98,-85.13"/>
<polygon fill="#9a32cd" stroke="#9a32cd" points="261.78,-679.96 263.35,-690.43 268.66,-681.26 261.78,-679.96"/>
<text text-anchor="middle" x="577.5" y="-93" font-family="Helvetica,sans-Serif" font-size="10.00"> m_engine</text>
</g>
<!-- Node16 -->
<g id="node16" class="node">
<title>Node16</title>
<g id="a_node16"><a xlink:href="classMode.html" target="_top" xlink:title=" ">
<polygon fill="none" stroke="black" points="669.5,-146.5 669.5,-165.5 713.5,-165.5 713.5,-146.5 669.5,-146.5"/>
<text text-anchor="middle" x="691.5" y="-153.5" font-family="Helvetica,sans-Serif" font-size="10.00">Mode</text>
</a>
</g>
</g>
<!-- Node2&#45;&gt;Node16 -->
<g id="edge29" class="edge">
<title>Node2&#45;&gt;Node16</title>
<path fill="none" stroke="#9a32cd" stroke-dasharray="5,2" d="M263.41,-680.23C269,-626.41 286.96,-478.96 319,-444 346.73,-413.74 371.03,-435.76 407,-416 536.06,-345.1 653.12,-203.45 683.1,-165.52"/>
<polygon fill="#9a32cd" stroke="#9a32cd" points="259.9,-680.18 262.38,-690.48 266.86,-680.88 259.9,-680.18"/>
<text text-anchor="middle" x="468" y="-408" font-family="Helvetica,sans-Serif" font-size="10.00"> m_engine</text>
</g>
<!-- Node17 -->
<g id="node17" class="node">
<title>Node17</title>
<g id="a_node17"><a xlink:href="classPattern.html" target="_top" xlink:title=" ">
<polygon fill="none" stroke="black" points="442.5,-109.5 442.5,-128.5 493.5,-128.5 493.5,-109.5 442.5,-109.5"/>
<text text-anchor="middle" x="468" y="-116.5" font-family="Helvetica,sans-Serif" font-size="10.00">Pattern</text>
</a>
</g>
</g>
<!-- Node2&#45;&gt;Node17 -->
<g id="edge31" class="edge">
<title>Node2&#45;&gt;Node17</title>
<path fill="none" stroke="#9a32cd" stroke-dasharray="5,2" d="M264.97,-680.36C272.35,-638.01 289.88,-534.91 301,-448 306.13,-407.91 292.41,-297.45 319,-267 345.45,-236.71 379.57,-275.4 407,-246 440.2,-210.42 395.34,-176.57 425,-138 429.39,-132.29 435.89,-128.25 442.46,-125.4"/>
<polygon fill="#9a32cd" stroke="#9a32cd" points="261.48,-679.96 263.2,-690.41 268.38,-681.17 261.48,-679.96"/>
<text text-anchor="middle" x="363" y="-270" font-family="Helvetica,sans-Serif" font-size="10.00"> m_engine</text>
</g>
<!-- Node20 -->
<g id="node20" class="node">
<title>Node20</title>
<g id="a_node20"><a xlink:href="classSerialComs.html" target="_top" xlink:title=" ">
<polygon fill="none" stroke="black" points="432,-1175.5 432,-1194.5 504,-1194.5 504,-1175.5 432,-1175.5"/>
<text text-anchor="middle" x="468" y="-1182.5" font-family="Helvetica,sans-Serif" font-size="10.00">SerialComs</text>
</a>
</g>
</g>
<!-- Node2&#45;&gt;Node20 -->
<g id="edge38" class="edge">
<title>Node2&#45;&gt;Node20</title>
<path fill="none" stroke="#9a32cd" stroke-dasharray="5,2" d="M262.39,-719.66C266.5,-805.69 284.81,-1146.2 319,-1178 334.78,-1192.67 393.27,-1191.14 431.82,-1188.33"/>
<polygon fill="#9a32cd" stroke="#9a32cd" points="265.89,-719.48 261.93,-709.66 258.9,-719.81 265.89,-719.48"/>
<text text-anchor="middle" x="363" y="-1193" font-family="Helvetica,sans-Serif" font-size="10.00"> m_engine</text>
</g>
<!-- Node21 -->
<g id="node21" class="node">
<title>Node21</title>
<g id="a_node21"><a xlink:href="classVortex.html" target="_top" xlink:title=" ">
<polygon fill="none" stroke="black" points="444,-1122.5 444,-1141.5 492,-1141.5 492,-1122.5 444,-1122.5"/>
<text text-anchor="middle" x="468" y="-1129.5" font-family="Helvetica,sans-Serif" font-size="10.00">Vortex</text>
</a>
</g>
</g>
<!-- Node2&#45;&gt;Node21 -->
<g id="edge41" class="edge">
<title>Node2&#45;&gt;Node21</title>
<path fill="none" stroke="#9a32cd" stroke-dasharray="5,2" d="M261.28,-719.92C260.9,-794.29 263.63,-1054.17 319,-1110 336.06,-1127.2 406.81,-1131.01 443.97,-1131.82"/>
<polygon fill="#9a32cd" stroke="#9a32cd" points="264.78,-719.67 261.36,-709.64 257.78,-719.62 264.78,-719.67"/>
<text text-anchor="middle" x="363" y="-1133" font-family="Helvetica,sans-Serif" font-size="10.00"> m_engine</text>
</g>
<!-- Node24 -->
<g id="node24" class="node">
<title>Node24</title>
<g id="a_node24"><a xlink:href="classIRReceiver.html" target="_top" xlink:title=" ">
<polygon fill="none" stroke="black" points="433.5,-1020.5 433.5,-1039.5 502.5,-1039.5 502.5,-1020.5 433.5,-1020.5"/>
<text text-anchor="middle" x="468" y="-1027.5" font-family="Helvetica,sans-Serif" font-size="10.00">IRReceiver</text>
</a>
</g>
</g>
<!-- Node2&#45;&gt;Node24 -->
<g id="edge45" class="edge">
<title>Node2&#45;&gt;Node24</title>
<path fill="none" stroke="#9a32cd" stroke-dasharray="5,2" d="M261.64,-719.8C262.58,-786.33 269.46,-1000.1 319,-1042 355.21,-1072.63 415.83,-1053.03 447.06,-1039.58"/>
<polygon fill="#9a32cd" stroke="#9a32cd" points="265.14,-719.75 261.53,-709.79 258.14,-719.83 265.14,-719.75"/>
<text text-anchor="middle" x="363" y="-1061" font-family="Helvetica,sans-Serif" font-size="10.00"> m_engine</text>
</g>
<!-- Node25 -->
<g id="node25" class="node">
<title>Node25</title>
<g id="a_node25"><a xlink:href="classTime.html" target="_top" xlink:title=" ">
<polygon fill="none" stroke="black" points="447.5,-970.5 447.5,-989.5 488.5,-989.5 488.5,-970.5 447.5,-970.5"/>
<text text-anchor="middle" x="468" y="-977.5" font-family="Helvetica,sans-Serif" font-size="10.00">Time</text>
</a>
</g>
</g>
<!-- Node2&#45;&gt;Node25 -->
<g id="edge48" class="edge">
<title>Node2&#45;&gt;Node25</title>
<path fill="none" stroke="#9a32cd" stroke-dasharray="5,2" d="M262.6,-719.76C266.24,-777 279.95,-940.96 319,-974 355.22,-1004.65 416.11,-994.24 447.29,-986.03"/>
<polygon fill="#9a32cd" stroke="#9a32cd" points="266.08,-719.3 261.99,-709.53 259.09,-719.72 266.08,-719.3"/>
<text text-anchor="middle" x="363" y="-997" font-family="Helvetica,sans-Serif" font-size="10.00"> m_engine</text>
</g>
<!-- Node26 -->
<g id="node26" class="node">
<title>Node26</title>
<g id="a_node26"><a xlink:href="classMenu.html" target="_top" xlink:title=" ">
<polygon fill="none" stroke="black" points="914,-180.5 914,-199.5 958,-199.5 958,-180.5 914,-180.5"/>
<text text-anchor="middle" x="936" y="-187.5" font-family="Helvetica,sans-Serif" font-size="10.00">Menu</text>
</a>
</g>
</g>
<!-- Node2&#45;&gt;Node26 -->
<g id="edge53" class="edge">
<title>Node2&#45;&gt;Node26</title>
<path fill="none" stroke="#9a32cd" stroke-dasharray="5,2" d="M263.88,-680.28C270.28,-630.38 289.42,-500.98 319,-471 334.5,-455.29 490.49,-428.15 511,-420 679.87,-352.88 867.11,-234.29 920.23,-199.71"/>
<polygon fill="#9a32cd" stroke="#9a32cd" points="260.38,-680.05 262.61,-690.4 267.33,-680.91 260.38,-680.05"/>
<text text-anchor="middle" x="577.5" y="-416" font-family="Helvetica,sans-Serif" font-size="10.00"> m_engine</text>
</g>
<!-- Node3&#45;&gt;Node2 -->
<g id="edge2" class="edge">
<title>Node3&#45;&gt;Node2</title>
<path fill="none" stroke="#9a32cd" stroke-dasharray="5,2" d="M421.97,-781.96C391.48,-778.41 351.07,-770.71 319,-754 297.87,-742.99 278.9,-722 268.91,-709.68"/>
<polygon fill="#9a32cd" stroke="#9a32cd" points="422,-785.48 432.31,-783.05 422.74,-778.52 422,-785.48"/>
<text text-anchor="middle" x="363" y="-782" font-family="Helvetica,sans-Serif" font-size="10.00"> m_vlReceiver</text>
</g>
<!-- Node4 -->
<g id="node4" class="node">
<title>Node4</title>
<g id="a_node4"><a xlink:href="classBitStream.html" target="_top" xlink:title=" ">
<polygon fill="none" stroke="black" points="228,-419.5 228,-438.5 293,-438.5 293,-419.5 228,-419.5"/>
<text text-anchor="middle" x="260.5" y="-426.5" font-family="Helvetica,sans-Serif" font-size="10.00">BitStream</text>
</a>
</g>
</g>
<!-- Node4&#45;&gt;Node3 -->
<g id="edge4" class="edge">
<title>Node4&#45;&gt;Node3</title>
<path fill="none" stroke="#9a32cd" stroke-dasharray="5,2" d="M264.02,-448.6C269.23,-482.68 283.75,-553.8 319,-602 347.55,-641.04 380.92,-625.28 407,-666 429,-700.35 402.58,-721.92 425,-756 430.36,-764.14 438.87,-770.64 446.83,-775.41"/>
<polygon fill="#9a32cd" stroke="#9a32cd" points="267.47,-447.96 262.6,-438.55 260.54,-448.95 267.47,-447.96"/>
<text text-anchor="middle" x="363" y="-669" font-family="Helvetica,sans-Serif" font-size="10.00"> m_vlData</text>
</g>
<!-- Node4&#45;&gt;Node6 -->
<g id="edge9" class="edge">
<title>Node4&#45;&gt;Node6</title>
<path fill="none" stroke="#9a32cd" stroke-dasharray="5,2" d="M264.31,-409.51C271.23,-364.63 290.59,-256.21 319,-235 350.34,-211.6 371.75,-218.06 407,-235 435.56,-248.72 454.77,-283.39 462.79,-300.35"/>
<polygon fill="#9a32cd" stroke="#9a32cd" points="260.84,-409.05 262.82,-419.46 267.76,-410.08 260.84,-409.05"/>
<text text-anchor="middle" x="363" y="-238" font-family="Helvetica,sans-Serif" font-size="10.00"> m_bitStream</text>
</g>
<!-- Node4&#45;&gt;Node13 -->
<g id="edge23" class="edge">
<title>Node4&#45;&gt;Node13</title>
<path fill="none" stroke="#9a32cd" stroke-dasharray="5,2" d="M262.33,-408.94C265.27,-349.31 277.33,-175.18 319,-141 349.24,-116.2 368.22,-135.92 407,-141 417.05,-142.32 427.81,-144.82 437.4,-147.47"/>
<polygon fill="#9a32cd" stroke="#9a32cd" points="258.82,-409.11 261.86,-419.26 265.81,-409.43 258.82,-409.11"/>
<text text-anchor="middle" x="363" y="-144" font-family="Helvetica,sans-Serif" font-size="10.00"> m_bitStream</text>
</g>
<!-- Node4&#45;&gt;Node24 -->
<g id="edge46" class="edge">
<title>Node4&#45;&gt;Node24</title>
<path fill="none" stroke="#9a32cd" stroke-dasharray="5,2" d="M264.77,-448.67C271.78,-491.07 288.63,-594.26 301,-681 309.86,-743.11 293.7,-763.59 319,-821 343.42,-876.41 379.55,-871.03 407,-925 422.34,-955.17 406.26,-970.81 425,-999 430.92,-1007.91 440.31,-1015.19 448.71,-1020.45"/>
<polygon fill="#9a32cd" stroke="#9a32cd" points="268.19,-447.89 263.1,-438.6 261.29,-449.04 268.19,-447.89"/>
<text text-anchor="middle" x="363" y="-928" font-family="Helvetica,sans-Serif" font-size="10.00"> m_irData</text>
</g>
<!-- Node5&#45;&gt;Node2 -->
<g id="edge5" class="edge">
<title>Node5&#45;&gt;Node2</title>
<path fill="none" stroke="#9a32cd" stroke-dasharray="5,2" d="M431.29,-724.51C423.37,-722.07 414.96,-719.74 407,-718 371.56,-710.27 330.49,-705.56 301.04,-702.92"/>
<polygon fill="#9a32cd" stroke="#9a32cd" points="430.41,-727.9 441,-727.62 432.54,-721.24 430.41,-727.9"/>
<text text-anchor="middle" x="363" y="-721" font-family="Helvetica,sans-Serif" font-size="10.00"> m_storage</text>
</g>
<!-- Node6&#45;&gt;Node2 -->
<g id="edge7" class="edge">
<title>Node6&#45;&gt;Node2</title>
<path fill="none" stroke="#9a32cd" stroke-dasharray="5,2" d="M446.1,-325.5C434.96,-333.16 420.74,-342.03 407,-348 369.93,-364.12 346.38,-341.26 319,-371 307.76,-383.21 270.62,-636.84 262.91,-690.2"/>
<polygon fill="#9a32cd" stroke="#9a32cd" points="448.17,-328.32 454.31,-319.68 444.12,-322.61 448.17,-328.32"/>
<text text-anchor="middle" x="363" y="-374" font-family="Helvetica,sans-Serif" font-size="10.00"> m_irSender</text>
</g>
<!-- Node7 -->
<g id="node7" class="node">
<title>Node7</title>
<g id="a_node7"><a xlink:href="classByteStream.html" target="_top" xlink:title=" ">
<polygon fill="none" stroke="black" points="223.5,-72.5 223.5,-91.5 297.5,-91.5 297.5,-72.5 223.5,-72.5"/>
<text text-anchor="middle" x="260.5" y="-79.5" font-family="Helvetica,sans-Serif" font-size="10.00">ByteStream</text>
</a>
</g>
</g>
<!-- Node7&#45;&gt;Node6 -->
<g id="edge10" class="edge">
<title>Node7&#45;&gt;Node6</title>
<path fill="none" stroke="#9a32cd" stroke-dasharray="5,2" d="M272.59,-100.17C283.08,-116.28 300.01,-139.7 319,-156 352.97,-185.15 375.17,-173.52 407,-205 436.41,-234.08 456.09,-280.58 463.59,-300.47"/>
<polygon fill="#9a32cd" stroke="#9a32cd" points="275.5,-98.22 267.2,-91.64 269.59,-101.96 275.5,-98.22"/>
<text text-anchor="middle" x="363" y="-208" font-family="Helvetica,sans-Serif" font-size="10.00"> m_serialBuf</text>
</g>
<!-- Node7&#45;&gt;Node13 -->
<g id="edge24" class="edge">
<title>Node7&#45;&gt;Node13</title>
<path fill="none" stroke="#9a32cd" stroke-dasharray="5,2" d="M307.52,-80.68C338.16,-81.96 377.96,-87.98 407,-108 419.8,-116.83 413.39,-127.66 425,-138 429.18,-141.73 434.22,-144.83 439.33,-147.39"/>
<polygon fill="#9a32cd" stroke="#9a32cd" points="307.6,-77.18 297.51,-80.42 307.41,-84.18 307.6,-77.18"/>
<text text-anchor="middle" x="363" y="-111" font-family="Helvetica,sans-Serif" font-size="10.00"> m_serialBuf</text>
</g>
<!-- Node7&#45;&gt;Node15 -->
<g id="edge35" class="edge">
<title>Node7&#45;&gt;Node15</title>
<path fill="none" stroke="#9a32cd" stroke-dasharray="5,2" d="M284.45,-66.55C289.98,-62.6 295.8,-58.27 301,-54 309.51,-47.02 308.77,-41.07 319,-37 355.34,-22.55 367.9,-36.11 407,-37 611.6,-41.67 667.19,-13.71 867,-58 884.58,-61.9 903.42,-69.99 916.8,-76.48"/>
<polygon fill="#9a32cd" stroke="#9a32cd" points="282.32,-63.77 276.12,-72.36 286.32,-69.51 282.32,-63.77"/>
<text text-anchor="middle" x="577.5" y="-40" font-family="Helvetica,sans-Serif" font-size="10.00"> m_storedMode</text>
</g>
<!-- Node8 -->
<g id="node8" class="node">
<title>Node8</title>
<g id="a_node8"><a xlink:href="structByteStream_1_1RawBuffer.html" target="_top" xlink:title=" ">
<polygon fill="none" stroke="black" points="0,-72.5 0,-91.5 131,-91.5 131,-72.5 0,-72.5"/>
<text text-anchor="middle" x="65.5" y="-79.5" font-family="Helvetica,sans-Serif" font-size="10.00">ByteStream::RawBuffer</text>
</a>
</g>
</g>
<!-- Node8&#45;&gt;Node7 -->
<g id="edge11" class="edge">
<title>Node8&#45;&gt;Node7</title>
<path fill="none" stroke="#9a32cd" stroke-dasharray="5,2" d="M141.29,-82C169.52,-82 200.35,-82 223.45,-82"/>
<polygon fill="#9a32cd" stroke="#9a32cd" points="141.03,-78.5 131.03,-82 141.03,-85.5 141.03,-78.5"/>
<text text-anchor="middle" x="175.5" y="-85" font-family="Helvetica,sans-Serif" font-size="10.00"> m_pData</text>
</g>
<!-- Node9&#45;&gt;Node2 -->
<g id="edge13" class="edge">
<title>Node9&#45;&gt;Node2</title>
<path fill="none" stroke="#9a32cd" stroke-dasharray="5,2" d="M671.31,-705.13C639.95,-730.55 574.81,-779.55 511,-804 467.26,-820.76 453.68,-817.21 407,-821 368.02,-824.17 352.06,-841.89 319,-821 278.89,-795.65 266.19,-733.87 262.69,-709.81"/>
<polygon fill="#9a32cd" stroke="#9a32cd" points="673.72,-707.67 679.23,-698.62 669.28,-702.26 673.72,-707.67"/>
<text text-anchor="middle" x="468" y="-822" font-family="Helvetica,sans-Serif" font-size="10.00"> m_buttons</text>
</g>
<!-- Node10&#45;&gt;Node9 -->
<g id="edge15" class="edge">
<title>Node10&#45;&gt;Node9</title>
<path fill="none" stroke="#9a32cd" stroke-dasharray="5,2" d="M502.98,-689C547.34,-689 624.06,-689 664.23,-689"/>
<polygon fill="#9a32cd" stroke="#9a32cd" points="502.7,-685.5 492.7,-689 502.7,-692.5 502.7,-685.5"/>
<text text-anchor="middle" x="577.5" y="-692" font-family="Helvetica,sans-Serif" font-size="10.00"> m_buttons</text>
</g>
<!-- Node11&#45;&gt;Node2 -->
<g id="edge17" class="edge">
<title>Node11&#45;&gt;Node2</title>
<path fill="none" stroke="#9a32cd" stroke-dasharray="5,2" d="M439.14,-561.37C407.29,-547.95 354.96,-532.7 319,-557 272.66,-588.31 263.66,-663.81 261.92,-690.48"/>
<polygon fill="#9a32cd" stroke="#9a32cd" points="437.76,-564.59 448.32,-565.43 440.59,-558.18 437.76,-564.59"/>
<text text-anchor="middle" x="363" y="-560" font-family="Helvetica,sans-Serif" font-size="10.00"> m_leds</text>
</g>
<!-- Node12&#45;&gt;Node2 -->
<g id="edge19" class="edge">
<title>Node12&#45;&gt;Node2</title>
<path fill="none" stroke="#9a32cd" stroke-dasharray="5,2" d="M440.18,-494.05C408.01,-479.49 354.07,-462.21 319,-489 285.74,-514.41 267.12,-652.59 262.59,-690.42"/>
<polygon fill="#9a32cd" stroke="#9a32cd" points="438.88,-497.31 449.41,-498.43 441.88,-490.99 438.88,-497.31"/>
<text text-anchor="middle" x="363" y="-492" font-family="Helvetica,sans-Serif" font-size="10.00"> m_patternBuilder</text>
</g>
<!-- Node13&#45;&gt;Node2 -->
<g id="edge21" class="edge">
<title>Node13&#45;&gt;Node2</title>
<path fill="none" stroke="#9a32cd" stroke-dasharray="5,2" d="M433.51,-172.25C430.28,-174.79 427.33,-177.7 425,-181 399.17,-217.51 437.4,-247.2 407,-280 379.52,-309.65 345.64,-272.59 319,-303 297.61,-327.43 305.51,-415.85 301,-448 287.7,-542.72 268.72,-657 263.12,-690.4"/>
<polygon fill="#9a32cd" stroke="#9a32cd" points="435.58,-175.08 441.99,-166.65 431.72,-169.24 435.58,-175.08"/>
<text text-anchor="middle" x="363" y="-306" font-family="Helvetica,sans-Serif" font-size="10.00"> m_vlSender</text>
</g>
<!-- Node14&#45;&gt;Node2 -->
<g id="edge25" class="edge">
<title>Node14&#45;&gt;Node2</title>
<path fill="none" stroke="#9a32cd" stroke-dasharray="5,2" d="M1101.2,-894.96C1062.39,-908.87 996.05,-929 937,-929 467,-929 467,-929 467,-929 400.93,-929 369.45,-957.66 319,-915 286.47,-887.5 267.32,-747.87 262.63,-709.67"/>
<polygon fill="#9a32cd" stroke="#9a32cd" points="1102.73,-898.13 1110.91,-891.4 1100.32,-891.55 1102.73,-898.13"/>
<text text-anchor="middle" x="691.5" y="-932" font-family="Helvetica,sans-Serif" font-size="10.00"> m_modes</text>
</g>
<!-- Node15&#45;&gt;Node14 -->
<g id="edge27" class="edge">
<title>Node15&#45;&gt;Node14</title>
<path fill="none" stroke="#9a32cd" stroke-dasharray="5,2" d="M949.88,-103.88C961.26,-120.5 977.49,-146.34 987,-171 1092.71,-445.05 1128.18,-809.23 1133.7,-872.45"/>
<polygon fill="#9a32cd" stroke="#9a32cd" points="952.73,-101.85 944.13,-95.66 946.99,-105.86 952.73,-101.85"/>
<text text-anchor="middle" x="1049" y="-583" font-family="Helvetica,sans-Serif" font-size="10.00"> m_pCurModeLink</text>
<text text-anchor="middle" x="1049" y="-572" font-family="Helvetica,sans-Serif" font-size="10.00">m_storedModes</text>
</g>
<!-- Node15&#45;&gt;Node15 -->
<g id="edge36" class="edge">
<title>Node15&#45;&gt;Node15</title>
<path fill="none" stroke="#9a32cd" stroke-dasharray="5,2" d="M915.26,-105.4C916.65,-110.31 923.56,-114 936,-114 955.91,-114 961.66,-104.57 953.26,-95.76"/>
<polygon fill="#9a32cd" stroke="#9a32cd" points="918.64,-106.35 918.74,-95.76 912.05,-103.98 918.64,-106.35"/>
<text text-anchor="middle" x="936" y="-128" font-family="Helvetica,sans-Serif" font-size="10.00"> m_next</text>
<text text-anchor="middle" x="936" y="-117" font-family="Helvetica,sans-Serif" font-size="10.00">m_prev</text>
</g>
<!-- Node16&#45;&gt;Node15 -->
<g id="edge28" class="edge">
<title>Node16&#45;&gt;Node15</title>
<path fill="none" stroke="#9a32cd" stroke-dasharray="5,2" d="M723.27,-147.12C769.08,-133.89 854.87,-109.13 901.96,-95.54"/>
<polygon fill="#9a32cd" stroke="#9a32cd" points="722.23,-143.77 713.6,-149.91 724.17,-150.5 722.23,-143.77"/>
<text text-anchor="middle" x="812" y="-141" font-family="Helvetica,sans-Serif" font-size="10.00"> m_pInstantiatedMode</text>
</g>
<!-- Node16&#45;&gt;Node26 -->
<g id="edge51" class="edge">
<title>Node16&#45;&gt;Node26</title>
<path fill="none" stroke="#9a32cd" stroke-dasharray="5,2" d="M723.84,-159.48C758.82,-163.47 817.07,-170.45 867,-178 882.76,-180.38 900.5,-183.53 913.91,-186"/>
<polygon fill="#9a32cd" stroke="#9a32cd" points="724.1,-155.99 713.77,-158.34 723.31,-162.94 724.1,-155.99"/>
<text text-anchor="middle" x="812" y="-181" font-family="Helvetica,sans-Serif" font-size="10.00"> m_previewMode</text>
</g>
<!-- Node17&#45;&gt;Node16 -->
<g id="edge30" class="edge">
<title>Node17&#45;&gt;Node16</title>
<path fill="none" stroke="#9a32cd" stroke-dasharray="5,2" d="M503.46,-124.76C549.91,-132.51 631.18,-146.09 669.45,-152.48"/>
<polygon fill="#9a32cd" stroke="#9a32cd" points="503.99,-121.3 493.55,-123.1 502.84,-128.2 503.99,-121.3"/>
<text text-anchor="middle" x="577.5" y="-149" font-family="Helvetica,sans-Serif" font-size="10.00"> m_multiPat</text>
</g>
<!-- Node18 -->
<g id="node18" class="node">
<title>Node18</title>
<g id="a_node18"><a xlink:href="classColorset.html" target="_top" xlink:title=" ">
<polygon fill="none" stroke="black" points="232,-25.5 232,-44.5 289,-44.5 289,-25.5 232,-25.5"/>
<text text-anchor="middle" x="260.5" y="-32.5" font-family="Helvetica,sans-Serif" font-size="10.00">Colorset</text>
</a>
</g>
</g>
<!-- Node18&#45;&gt;Node17 -->
<g id="edge32" class="edge">
<title>Node18&#45;&gt;Node17</title>
<path fill="none" stroke="#9a32cd" stroke-dasharray="5,2" d="M299.32,-38.14C329.74,-41.86 372.88,-49.87 407,-67 428.19,-77.64 447.99,-97.45 458.7,-109.31"/>
<polygon fill="#9a32cd" stroke="#9a32cd" points="299.45,-34.63 289.13,-37 298.67,-41.59 299.45,-34.63"/>
<text text-anchor="middle" x="363" y="-70" font-family="Helvetica,sans-Serif" font-size="10.00"> m_colorset</text>
</g>
<!-- Node19 -->
<g id="node19" class="node">
<title>Node19</title>
<g id="a_node19"><a xlink:href="classRGBColor.html" target="_top" xlink:title=" ">
<polygon fill="none" stroke="black" points="34,-0.5 34,-19.5 97,-19.5 97,-0.5 34,-0.5"/>
<text text-anchor="middle" x="65.5" y="-7.5" font-family="Helvetica,sans-Serif" font-size="10.00">RGBColor</text>
</a>
</g>
</g>
<!-- Node19&#45;&gt;Node18 -->
<g id="edge33" class="edge">
<title>Node19&#45;&gt;Node18</title>
<path fill="none" stroke="#9a32cd" stroke-dasharray="5,2" d="M107.16,-15.27C144.64,-20.12 199.23,-27.19 231.88,-31.42"/>
<polygon fill="#9a32cd" stroke="#9a32cd" points="107.45,-11.78 97.08,-13.96 106.55,-18.72 107.45,-11.78"/>
<text text-anchor="middle" x="175.5" y="-30" font-family="Helvetica,sans-Serif" font-size="10.00"> m_palette</text>
</g>
<!-- Node19&#45;&gt;Node26 -->
<g id="edge52" class="edge">
<title>Node19&#45;&gt;Node26</title>
<path fill="none" stroke="#9a32cd" stroke-dasharray="5,2" d="M107.4,-9.03C154.3,-8.39 233.43,-8.74 301,-16 428.31,-29.68 756.22,-59.78 867,-124 877.63,-130.17 876.41,-136.2 885,-145 897.56,-157.87 913.1,-171.54 923.5,-180.39"/>
<polygon fill="#9a32cd" stroke="#9a32cd" points="107.28,-5.54 97.33,-9.19 107.39,-12.54 107.28,-5.54"/>
<text text-anchor="middle" x="468" y="-43" font-family="Helvetica,sans-Serif" font-size="10.00"> m_menuColor</text>
</g>
<!-- Node20&#45;&gt;Node2 -->
<g id="edge37" class="edge">
<title>Node20&#45;&gt;Node2</title>
<path fill="none" stroke="#9a32cd" stroke-dasharray="5,2" d="M426.09,-1172.51C419.71,-1170.63 413.18,-1168.74 407,-1167 368.08,-1156.08 345.72,-1174.34 319,-1144 259.54,-1076.48 260.6,-767.99 261.35,-709.57"/>
<polygon fill="#9a32cd" stroke="#9a32cd" points="425.34,-1175.94 435.92,-1175.45 427.34,-1169.23 425.34,-1175.94"/>
<text text-anchor="middle" x="363" y="-1170" font-family="Helvetica,sans-Serif" font-size="10.00"> m_serial</text>
</g>
<!-- Node21&#45;&gt;Node2 -->
<g id="edge39" class="edge">
<title>Node21&#45;&gt;Node2</title>
<path fill="none" stroke="#9a32cd" stroke-dasharray="5,2" d="M442.89,-1117.18C432.16,-1111 419.22,-1104.1 407,-1099 369.36,-1083.3 345.84,-1103.71 319,-1073 269.63,-1016.51 262.58,-762.61 261.64,-709.69"/>
<polygon fill="#9a32cd" stroke="#9a32cd" points="441.28,-1120.3 451.67,-1122.36 444.83,-1114.27 441.28,-1120.3"/>
<text text-anchor="middle" x="363" y="-1102" font-family="Helvetica,sans-Serif" font-size="10.00"> m_vortexLib</text>
</g>
<!-- Node23 -->
<g id="node23" class="node">
<title>Node23</title>
<g id="a_node23"><a xlink:href="classVortexCallbacks.html" target="_top" xlink:title=" ">
<polygon fill="none" stroke="black" points="644,-1122.5 644,-1141.5 739,-1141.5 739,-1122.5 644,-1122.5"/>
<text text-anchor="middle" x="691.5" y="-1129.5" font-family="Helvetica,sans-Serif" font-size="10.00">VortexCallbacks</text>
</a>
</g>
</g>
<!-- Node21&#45;&gt;Node23 -->
<g id="edge43" class="edge">
<title>Node21&#45;&gt;Node23</title>
<path fill="none" stroke="#9a32cd" stroke-dasharray="5,2" d="M502.69,-1132C540.3,-1132 601.4,-1132 643.65,-1132"/>
<polygon fill="#9a32cd" stroke="#9a32cd" points="502.29,-1128.5 492.29,-1132 502.29,-1135.5 502.29,-1128.5"/>
<text text-anchor="middle" x="577.5" y="-1135" font-family="Helvetica,sans-Serif" font-size="10.00"> m_vortex</text>
</g>
<!-- Node22 -->
<g id="node22" class="node">
<title>Node22</title>
<g id="a_node22"><a xlink:href="classRandom.html" target="_top" xlink:title=" ">
<polygon fill="none" stroke="black" points="232,-1224.5 232,-1243.5 289,-1243.5 289,-1224.5 232,-1224.5"/>
<text text-anchor="middle" x="260.5" y="-1231.5" font-family="Helvetica,sans-Serif" font-size="10.00">Random</text>
</a>
</g>
</g>
<!-- Node22&#45;&gt;Node21 -->
<g id="edge40" class="edge">
<title>Node22&#45;&gt;Node21</title>
<path fill="none" stroke="#9a32cd" stroke-dasharray="5,2" d="M299.39,-1238.07C331.42,-1239.42 376.78,-1236.14 407,-1212 424.15,-1198.3 412.04,-1183.72 425,-1166 432.09,-1156.31 442.59,-1147.81 451.32,-1141.73"/>
<polygon fill="#9a32cd" stroke="#9a32cd" points="299.28,-1234.56 289.09,-1237.46 298.86,-1241.55 299.28,-1234.56"/>
<text text-anchor="middle" x="363" y="-1241" font-family="Helvetica,sans-Serif" font-size="10.00"> m_randCtx</text>
</g>
<!-- Node23&#45;&gt;Node21 -->
<g id="edge42" class="edge">
<title>Node23&#45;&gt;Node21</title>
<path fill="none" stroke="#9a32cd" stroke-dasharray="5,2" d="M648.66,-1120.06C641.18,-1118.37 633.4,-1116.9 626,-1116 583.21,-1110.77 571.75,-1110.4 529,-1116 516.6,-1117.62 503.12,-1121.06 492.08,-1124.34"/>
<polygon fill="#9a32cd" stroke="#9a32cd" points="648.09,-1123.52 658.64,-1122.47 649.74,-1116.72 648.09,-1123.52"/>
<text text-anchor="middle" x="577.5" y="-1119" font-family="Helvetica,sans-Serif" font-size="10.00"> m_storedCallbacks</text>
</g>
<!-- Node24&#45;&gt;Node2 -->
<g id="edge44" class="edge">
<title>Node24&#45;&gt;Node2</title>
<path fill="none" stroke="#9a32cd" stroke-dasharray="5,2" d="M423.12,-1028.97C384.95,-1027.11 333.53,-1022 319,-1008 274.64,-965.25 263.77,-757.04 261.85,-709.62"/>
<polygon fill="#9a32cd" stroke="#9a32cd" points="423.36,-1032.48 433.5,-1029.41 423.66,-1025.49 423.36,-1032.48"/>
<text text-anchor="middle" x="363" y="-1030" font-family="Helvetica,sans-Serif" font-size="10.00"> m_irReceiver</text>
</g>
<!-- Node25&#45;&gt;Node2 -->
<g id="edge47" class="edge">
<title>Node25&#45;&gt;Node2</title>
<path fill="none" stroke="#9a32cd" stroke-dasharray="5,2" d="M437.66,-971.56C427.91,-968.79 417,-965.72 407,-963 368,-952.38 347.29,-968.88 319,-940 285.64,-905.95 266.83,-749.79 262.48,-709.5"/>
<polygon fill="#9a32cd" stroke="#9a32cd" points="436.72,-974.93 447.3,-974.31 438.65,-968.2 436.72,-974.93"/>
<text text-anchor="middle" x="363" y="-966" font-family="Helvetica,sans-Serif" font-size="10.00"> m_time</text>
</g>
<!-- Node26&#45;&gt;Node1 -->
<g id="edge50" class="edge">
<title>Node26&#45;&gt;Node1</title>
<path fill="none" stroke="#9a32cd" stroke-dasharray="5,2" d="M903.68,-189.99C868.12,-189.93 808.39,-189.73 757,-189 601.42,-186.79 562.59,-182.78 407,-181 367.89,-180.55 352.44,-160.71 319,-181 131.53,-294.76 76.79,-598.12 67.89,-656.28"/>
<polygon fill="#9a32cd" stroke="#9a32cd" points="903.9,-193.49 913.9,-190 903.9,-186.49 903.9,-193.49"/>
<text text-anchor="middle" x="468" y="-186" font-family="Helvetica,sans-Serif" font-size="10.00"> m_pCurMenu</text>
</g>
</g>
</svg>
