<?xml version="1.0" encoding="UTF-8" standalone="no"?>
<!DOCTYPE svg PUBLIC "-//W3C//DTD SVG 1.1//EN"
 "http://www.w3.org/Graphics/SVG/1.1/DTD/svg11.dtd">
<!-- Generated by graphviz version 2.43.0 (0)
 -->
<!-- Title: BlendPattern Pages: 1 -->
<svg width="1747pt" height="1126pt"
 viewBox="0.00 0.00 1747.00 1126.00" xmlns="http://www.w3.org/2000/svg" xmlns:xlink="http://www.w3.org/1999/xlink">
<g id="graph0" class="graph" transform="scale(1 1) rotate(0) translate(4 1122)">
<title>BlendPattern</title>
<!-- Node1 -->
<g id="node1" class="node">
<title>Node1</title>
<g id="a_node1"><a xlink:title=" ">
<polygon fill="#bfbfbf" stroke="black" points="1660,-662.5 1660,-681.5 1739,-681.5 1739,-662.5 1660,-662.5"/>
<text text-anchor="middle" x="1699.5" y="-669.5" font-family="Helvetica,sans-Serif" font-size="10.00">BlendPattern</text>
</a>
</g>
</g>
<!-- Node2 -->
<g id="node2" class="node">
<title>Node2</title>
<g id="a_node2"><a xlink:href="classBasicPattern.html" target="_top" xlink:title=" ">
<polygon fill="none" stroke="black" points="1546,-237.5 1546,-256.5 1623,-256.5 1623,-237.5 1546,-237.5"/>
<text text-anchor="middle" x="1584.5" y="-244.5" font-family="Helvetica,sans-Serif" font-size="10.00">BasicPattern</text>
</a>
</g>
</g>
<!-- Node2&#45;&gt;Node1 -->
<g id="edge1" class="edge">
<title>Node2&#45;&gt;Node1</title>
<path fill="none" stroke="midnightblue" d="M1590.72,-266.64C1610.63,-341.51 1681.36,-607.53 1695.88,-662.15"/>
<polygon fill="midnightblue" stroke="midnightblue" points="1594.02,-265.44 1588.07,-256.68 1587.26,-267.24 1594.02,-265.44"/>
</g>
<!-- Node3 -->
<g id="node3" class="node">
<title>Node3</title>
<g id="a_node3"><a xlink:href="classSingleLedPattern.html" target="_top" xlink:title=" ">
<polygon fill="none" stroke="black" points="627,-1.5 627,-20.5 725,-20.5 725,-1.5 627,-1.5"/>
<text text-anchor="middle" x="676" y="-8.5" font-family="Helvetica,sans-Serif" font-size="10.00">SingleLedPattern</text>
</a>
</g>
</g>
<!-- Node3&#45;&gt;Node2 -->
<g id="edge2" class="edge">
<title>Node3&#45;&gt;Node2</title>
<path fill="none" stroke="midnightblue" d="M735.23,-6.76C782.77,-3.66 851.69,0 912,0 912,0 912,0 1397,0 1518.17,0 1570.58,-191.65 1581.35,-237.32"/>
<polygon fill="midnightblue" stroke="midnightblue" points="734.87,-3.27 725.13,-7.43 735.34,-10.26 734.87,-3.27"/>
</g>
<!-- Node4 -->
<g id="node4" class="node">
<title>Node4</title>
<g id="a_node4"><a xlink:href="classPattern.html" target="_top" xlink:title=" ">
<polygon fill="none" stroke="black" points="343,-553.5 343,-572.5 394,-572.5 394,-553.5 343,-553.5"/>
<text text-anchor="middle" x="368.5" y="-560.5" font-family="Helvetica,sans-Serif" font-size="10.00">Pattern</text>
</a>
</g>
</g>
<!-- Node4&#45;&gt;Node3 -->
<g id="edge3" class="edge">
<title>Node4&#45;&gt;Node3</title>
<path fill="none" stroke="midnightblue" d="M375.49,-543.8C387.96,-504.58 418.35,-412.75 452,-339 516.65,-197.3 503.83,-134.61 621,-32 626.45,-27.23 633.1,-23.48 639.86,-20.56"/>
<polygon fill="midnightblue" stroke="midnightblue" points="372.13,-542.82 372.46,-553.41 378.81,-544.92 372.13,-542.82"/>
</g>
<!-- Node19 -->
<g id="node19" class="node">
<title>Node19</title>
<g id="a_node19"><a xlink:href="classMode.html" target="_top" xlink:title=" ">
<polygon fill="none" stroke="black" points="544,-553.5 544,-572.5 588,-572.5 588,-553.5 544,-553.5"/>
<text text-anchor="middle" x="566" y="-560.5" font-family="Helvetica,sans-Serif" font-size="10.00">Mode</text>
</a>
</g>
</g>
<!-- Node4&#45;&gt;Node19 -->
<g id="edge33" class="edge">
<title>Node4&#45;&gt;Node19</title>
<path fill="none" stroke="#9a32cd" stroke-dasharray="5,2" d="M404.47,-563C444.93,-563 510.25,-563 543.73,-563"/>
<polygon fill="#9a32cd" stroke="#9a32cd" points="404.26,-559.5 394.26,-563 404.26,-566.5 404.26,-559.5"/>
<text text-anchor="middle" x="481.5" y="-566" font-family="Helvetica,sans-Serif" font-size="10.00"> m_multiPat</text>
</g>
<!-- Node5 -->
<g id="node5" class="node">
<title>Node5</title>
<g id="a_node5"><a xlink:href="classVortexEngine.html" target="_top" xlink:title=" ">
<polygon fill="none" stroke="black" points="1148,-643.5 1148,-662.5 1229,-662.5 1229,-643.5 1148,-643.5"/>
<text text-anchor="middle" x="1188.5" y="-650.5" font-family="Helvetica,sans-Serif" font-size="10.00">VortexEngine</text>
</a>
</g>
</g>
<!-- Node5&#45;&gt;Node4 -->
<g id="edge4" class="edge">
<title>Node5&#45;&gt;Node4</title>
<path fill="none" stroke="#9a32cd" stroke-dasharray="5,2" d="M1156.47,-666.47C1123.06,-679.73 1068.03,-698 1018.5,-698 565,-698 565,-698 565,-698 476.73,-698 399.42,-603.66 376.43,-572.71"/>
<polygon fill="#9a32cd" stroke="#9a32cd" points="1158.17,-669.56 1166.11,-662.54 1155.53,-663.07 1158.17,-669.56"/>
<text text-anchor="middle" x="800" y="-701" font-family="Helvetica,sans-Serif" font-size="10.00"> m_engine</text>
</g>
<!-- Node5&#45;&gt;Node5 -->
<g id="edge15" class="edge">
<title>Node5&#45;&gt;Node5</title>
<path fill="none" stroke="#9a32cd" stroke-dasharray="5,2" d="M1173.03,-672.77C1174.25,-677.5 1179.4,-681 1188.5,-681 1203.43,-681 1207.75,-671.57 1201.45,-662.76"/>
<polygon fill="#9a32cd" stroke="#9a32cd" points="1176.5,-673.31 1175.55,-662.76 1169.72,-671.6 1176.5,-673.31"/>
<text text-anchor="middle" x="1188.5" y="-684" font-family="Helvetica,sans-Serif" font-size="10.00"> m_engine</text>
</g>
<!-- Node6 -->
<g id="node6" class="node">
<title>Node6</title>
<g id="a_node6"><a xlink:href="classVLReceiver.html" target="_top" xlink:title=" ">
<polygon fill="none" stroke="black" points="1360.5,-400.5 1360.5,-419.5 1431.5,-419.5 1431.5,-400.5 1360.5,-400.5"/>
<text text-anchor="middle" x="1396" y="-407.5" font-family="Helvetica,sans-Serif" font-size="10.00">VLReceiver</text>
</a>
</g>
</g>
<!-- Node5&#45;&gt;Node6 -->
<g id="edge6" class="edge">
<title>Node5&#45;&gt;Node6</title>
<path fill="none" stroke="#9a32cd" stroke-dasharray="5,2" d="M1191.17,-633.17C1196.05,-580.62 1212.2,-439.86 1247,-412 1280,-385.58 1331.7,-392.29 1364.44,-400.46"/>
<polygon fill="#9a32cd" stroke="#9a32cd" points="1187.68,-632.96 1190.28,-643.24 1194.65,-633.59 1187.68,-632.96"/>
<text text-anchor="middle" x="1291" y="-415" font-family="Helvetica,sans-Serif" font-size="10.00"> m_engine</text>
</g>
<!-- Node8 -->
<g id="node8" class="node">
<title>Node8</title>
<g id="a_node8"><a xlink:href="classStorage.html" target="_top" xlink:title=" ">
<polygon fill="none" stroke="black" points="1369,-1040.5 1369,-1059.5 1423,-1059.5 1423,-1040.5 1369,-1040.5"/>
<text text-anchor="middle" x="1396" y="-1047.5" font-family="Helvetica,sans-Serif" font-size="10.00">Storage</text>
</a>
</g>
</g>
<!-- Node5&#45;&gt;Node8 -->
<g id="edge9" class="edge">
<title>Node5&#45;&gt;Node8</title>
<path fill="none" stroke="#9a32cd" stroke-dasharray="5,2" d="M1189.17,-672.91C1188.44,-746.04 1190.12,-998.13 1247,-1048 1280.43,-1077.31 1336.26,-1067.92 1368.96,-1058.75"/>
<polygon fill="#9a32cd" stroke="#9a32cd" points="1192.68,-672.81 1189.3,-662.77 1185.68,-672.72 1192.68,-672.81"/>
<text text-anchor="middle" x="1291" y="-1070" font-family="Helvetica,sans-Serif" font-size="10.00"> m_engine</text>
</g>
<!-- Node9 -->
<g id="node9" class="node">
<title>Node9</title>
<g id="a_node9"><a xlink:href="classIRSender.html" target="_top" xlink:title=" ">
<polygon fill="none" stroke="black" points="1366,-478.5 1366,-497.5 1426,-497.5 1426,-478.5 1366,-478.5"/>
<text text-anchor="middle" x="1396" y="-485.5" font-family="Helvetica,sans-Serif" font-size="10.00">IRSender</text>
</a>
</g>
</g>
<!-- Node5&#45;&gt;Node9 -->
<g id="edge11" class="edge">
<title>Node5&#45;&gt;Node9</title>
<path fill="none" stroke="#9a32cd" stroke-dasharray="5,2" d="M1196.28,-633.96C1204.81,-612.84 1221.49,-579.34 1247,-561 1279.65,-537.53 1299.23,-558.36 1335,-540 1356.09,-529.17 1375.93,-509.42 1386.67,-497.63"/>
<polygon fill="#9a32cd" stroke="#9a32cd" points="1192.95,-632.88 1192.66,-643.47 1199.49,-635.37 1192.95,-632.88"/>
<text text-anchor="middle" x="1291" y="-564" font-family="Helvetica,sans-Serif" font-size="10.00"> m_engine</text>
</g>
<!-- Node12 -->
<g id="node12" class="node">
<title>Node12</title>
<g id="a_node12"><a xlink:href="classButtons.html" target="_top" xlink:title=" ">
<polygon fill="none" stroke="black" points="1557.5,-947.5 1557.5,-966.5 1611.5,-966.5 1611.5,-947.5 1557.5,-947.5"/>
<text text-anchor="middle" x="1584.5" y="-954.5" font-family="Helvetica,sans-Serif" font-size="10.00">Buttons</text>
</a>
</g>
</g>
<!-- Node5&#45;&gt;Node12 -->
<g id="edge17" class="edge">
<title>Node5&#45;&gt;Node12</title>
<path fill="none" stroke="#9a32cd" stroke-dasharray="5,2" d="M1193.36,-672.69C1199.75,-700.13 1215.13,-749.71 1247,-778 1314.06,-837.53 1360.15,-797.29 1439,-840 1496.05,-870.91 1552.59,-925.41 1574.26,-947.4"/>
<polygon fill="#9a32cd" stroke="#9a32cd" points="1196.74,-671.75 1191.21,-662.72 1189.9,-673.23 1196.74,-671.75"/>
<text text-anchor="middle" x="1396" y="-843" font-family="Helvetica,sans-Serif" font-size="10.00"> m_engine</text>
</g>
<!-- Node13 -->
<g id="node13" class="node">
<title>Node13</title>
<g id="a_node13"><a xlink:href="classButton.html" target="_top" xlink:title=" ">
<polygon fill="none" stroke="black" points="1371.5,-947.5 1371.5,-966.5 1420.5,-966.5 1420.5,-947.5 1371.5,-947.5"/>
<text text-anchor="middle" x="1396" y="-954.5" font-family="Helvetica,sans-Serif" font-size="10.00">Button</text>
</a>
</g>
</g>
<!-- Node5&#45;&gt;Node13 -->
<g id="edge19" class="edge">
<title>Node5&#45;&gt;Node13</title>
<path fill="none" stroke="#9a32cd" stroke-dasharray="5,2" d="M1190.2,-673.04C1192.81,-734.21 1204.1,-916.55 1247,-953 1281.67,-982.46 1339.15,-973.09 1371.32,-964.51"/>
<polygon fill="#9a32cd" stroke="#9a32cd" points="1193.69,-672.65 1189.8,-662.8 1186.7,-672.92 1193.69,-672.65"/>
<text text-anchor="middle" x="1291" y="-976" font-family="Helvetica,sans-Serif" font-size="10.00"> m_engine</text>
</g>
<!-- Node14 -->
<g id="node14" class="node">
<title>Node14</title>
<g id="a_node14"><a xlink:href="classLeds.html" target="_top" xlink:title=" ">
<polygon fill="none" stroke="black" points="1376.5,-906.5 1376.5,-925.5 1415.5,-925.5 1415.5,-906.5 1376.5,-906.5"/>
<text text-anchor="middle" x="1396" y="-913.5" font-family="Helvetica,sans-Serif" font-size="10.00">Leds</text>
</a>
</g>
</g>
<!-- Node5&#45;&gt;Node14 -->
<g id="edge21" class="edge">
<title>Node5&#45;&gt;Node14</title>
<path fill="none" stroke="#9a32cd" stroke-dasharray="5,2" d="M1191.73,-672.66C1197.84,-722.94 1216.45,-854.38 1247,-884 1256.27,-892.99 1338.51,-907.03 1376.23,-913.07"/>
<polygon fill="#9a32cd" stroke="#9a32cd" points="1195.21,-672.24 1190.56,-662.72 1188.26,-673.06 1195.21,-672.24"/>
<text text-anchor="middle" x="1291" y="-908" font-family="Helvetica,sans-Serif" font-size="10.00"> m_engine</text>
</g>
<!-- Node15 -->
<g id="node15" class="node">
<title>Node15</title>
<g id="a_node15"><a xlink:href="classPatternBuilder.html" target="_top" xlink:title=" ">
<polygon fill="none" stroke="black" points="1353,-860.5 1353,-879.5 1439,-879.5 1439,-860.5 1353,-860.5"/>
<text text-anchor="middle" x="1396" y="-867.5" font-family="Helvetica,sans-Serif" font-size="10.00">PatternBuilder</text>
</a>
</g>
</g>
<!-- Node5&#45;&gt;Node15 -->
<g id="edge23" class="edge">
<title>Node5&#45;&gt;Node15</title>
<path fill="none" stroke="#9a32cd" stroke-dasharray="5,2" d="M1190.45,-672.89C1193.23,-707.83 1204.14,-780.19 1247,-819 1276.81,-845.99 1297.21,-826.25 1335,-840 1350.21,-845.53 1366.59,-853.9 1378.39,-860.4"/>
<polygon fill="#9a32cd" stroke="#9a32cd" points="1193.92,-672.33 1189.78,-662.58 1186.93,-672.79 1193.92,-672.33"/>
<text text-anchor="middle" x="1291" y="-843" font-family="Helvetica,sans-Serif" font-size="10.00"> m_engine</text>
</g>
<!-- Node16 -->
<g id="node16" class="node">
<title>Node16</title>
<g id="a_node16"><a xlink:href="classVLSender.html" target="_top" xlink:title=" ">
<polygon fill="none" stroke="black" points="1365,-103.5 1365,-122.5 1427,-122.5 1427,-103.5 1365,-103.5"/>
<text text-anchor="middle" x="1396" y="-110.5" font-family="Helvetica,sans-Serif" font-size="10.00">VLSender</text>
</a>
</g>
</g>
<!-- Node5&#45;&gt;Node16 -->
<g id="edge25" class="edge">
<title>Node5&#45;&gt;Node16</title>
<path fill="none" stroke="#9a32cd" stroke-dasharray="5,2" d="M1189.02,-632.86C1187.5,-551.49 1186.09,-248.23 1247,-180 1273.78,-150 1298.69,-176.28 1335,-159 1354.67,-149.64 1374.06,-133.08 1385.26,-122.59"/>
<polygon fill="#9a32cd" stroke="#9a32cd" points="1185.53,-633.27 1189.24,-643.2 1192.53,-633.12 1185.53,-633.27"/>
<text text-anchor="middle" x="1291" y="-183" font-family="Helvetica,sans-Serif" font-size="10.00"> m_engine</text>
</g>
<!-- Node17 -->
<g id="node17" class="node">
<title>Node17</title>
<g id="a_node17"><a xlink:href="classModes.html" target="_top" xlink:title=" ">
<polygon fill="none" stroke="black" points="993,-553.5 993,-572.5 1042,-572.5 1042,-553.5 993,-553.5"/>
<text text-anchor="middle" x="1017.5" y="-560.5" font-family="Helvetica,sans-Serif" font-size="10.00">Modes</text>
</a>
</g>
</g>
<!-- Node5&#45;&gt;Node17 -->
<g id="edge29" class="edge">
<title>Node5&#45;&gt;Node17</title>
<path fill="none" stroke="#9a32cd" stroke-dasharray="5,2" d="M1182.47,-633.63C1175.24,-610.21 1159.41,-571.84 1130,-555 1103.05,-539.57 1066.24,-546.55 1042.41,-553.96"/>
<polygon fill="#9a32cd" stroke="#9a32cd" points="1179.18,-634.83 1185.28,-643.49 1185.91,-632.91 1179.18,-634.83"/>
<text text-anchor="middle" x="1104" y="-558" font-family="Helvetica,sans-Serif" font-size="10.00"> m_engine</text>
</g>
<!-- Node18 -->
<g id="node18" class="node">
<title>Node18</title>
<g id="a_node18"><a xlink:href="classModes_1_1ModeLink.html" target="_top" xlink:title=" ">
<polygon fill="none" stroke="black" points="749,-553.5 749,-572.5 851,-572.5 851,-553.5 749,-553.5"/>
<text text-anchor="middle" x="800" y="-560.5" font-family="Helvetica,sans-Serif" font-size="10.00">Modes::ModeLink</text>
</a>
</g>
</g>
<!-- Node5&#45;&gt;Node18 -->
<g id="edge34" class="edge">
<title>Node5&#45;&gt;Node18</title>
<path fill="none" stroke="#9a32cd" stroke-dasharray="5,2" d="M1142.71,-640.99C1138.42,-639.94 1134.13,-638.93 1130,-638 1014.83,-612.2 982.58,-621.09 869,-589 853.31,-584.57 836.17,-578 823.02,-572.57"/>
<polygon fill="#9a32cd" stroke="#9a32cd" points="1142.07,-644.44 1152.63,-643.49 1143.78,-637.65 1142.07,-644.44"/>
<text text-anchor="middle" x="1017.5" y="-628" font-family="Helvetica,sans-Serif" font-size="10.00"> m_engine</text>
</g>
<!-- Node5&#45;&gt;Node19 -->
<g id="edge32" class="edge">
<title>Node5&#45;&gt;Node19</title>
<path fill="none" stroke="#9a32cd" stroke-dasharray="5,2" d="M1137.75,-653.39C1055.89,-653.17 888.01,-649.04 749,-622 689.17,-610.36 621.6,-585.1 588.13,-571.72"/>
<polygon fill="#9a32cd" stroke="#9a32cd" points="1137.77,-656.89 1147.77,-653.4 1137.78,-649.89 1137.77,-656.89"/>
<text text-anchor="middle" x="913" y="-650" font-family="Helvetica,sans-Serif" font-size="10.00"> m_engine</text>
</g>
<!-- Node20 -->
<g id="node20" class="node">
<title>Node20</title>
<g id="a_node20"><a xlink:href="classSerialComs.html" target="_top" xlink:title=" ">
<polygon fill="none" stroke="black" points="1360,-720.5 1360,-739.5 1432,-739.5 1432,-720.5 1360,-720.5"/>
<text text-anchor="middle" x="1396" y="-727.5" font-family="Helvetica,sans-Serif" font-size="10.00">SerialComs</text>
</a>
</g>
</g>
<!-- Node5&#45;&gt;Node20 -->
<g id="edge38" class="edge">
<title>Node5&#45;&gt;Node20</title>
<path fill="none" stroke="#9a32cd" stroke-dasharray="5,2" d="M1196.97,-672.06C1205.71,-691.41 1222.23,-720.3 1247,-733 1282.45,-751.18 1329.23,-746.24 1360.62,-739.52"/>
<polygon fill="#9a32cd" stroke="#9a32cd" points="1200.13,-670.53 1193.01,-662.69 1193.68,-673.26 1200.13,-670.53"/>
<text text-anchor="middle" x="1291" y="-748" font-family="Helvetica,sans-Serif" font-size="10.00"> m_engine</text>
</g>
<!-- Node21 -->
<g id="node21" class="node">
<title>Node21</title>
<g id="a_node21"><a xlink:href="classIRReceiver.html" target="_top" xlink:title=" ">
<polygon fill="none" stroke="black" points="1361.5,-275.5 1361.5,-294.5 1430.5,-294.5 1430.5,-275.5 1361.5,-275.5"/>
<text text-anchor="middle" x="1396" y="-282.5" font-family="Helvetica,sans-Serif" font-size="10.00">IRReceiver</text>
</a>
</g>
</g>
<!-- Node5&#45;&gt;Node21 -->
<g id="edge40" class="edge">
<title>Node5&#45;&gt;Node21</title>
<path fill="none" stroke="#9a32cd" stroke-dasharray="5,2" d="M1189.36,-633.38C1189.31,-563.45 1193.2,-328.1 1247,-282 1281.15,-252.73 1337.77,-264.88 1370.18,-275.5"/>
<polygon fill="#9a32cd" stroke="#9a32cd" points="1185.86,-633.47 1189.4,-643.46 1192.86,-633.45 1185.86,-633.47"/>
<text text-anchor="middle" x="1291" y="-285" font-family="Helvetica,sans-Serif" font-size="10.00"> m_engine</text>
</g>
<!-- Node22 -->
<g id="node22" class="node">
<title>Node22</title>
<g id="a_node22"><a xlink:href="classTime.html" target="_top" xlink:title=" ">
<polygon fill="none" stroke="black" points="1375.5,-670.5 1375.5,-689.5 1416.5,-689.5 1416.5,-670.5 1375.5,-670.5"/>
<text text-anchor="middle" x="1396" y="-677.5" font-family="Helvetica,sans-Serif" font-size="10.00">Time</text>
</a>
</g>
</g>
<!-- Node5&#45;&gt;Node22 -->
<g id="edge43" class="edge">
<title>Node5&#45;&gt;Node22</title>
<path fill="none" stroke="#9a32cd" stroke-dasharray="5,2" d="M1234.93,-664.73C1239,-665.58 1243.06,-666.35 1247,-667 1292.56,-674.5 1346.76,-677.87 1375.25,-679.22"/>
<polygon fill="#9a32cd" stroke="#9a32cd" points="1235.43,-661.26 1224.91,-662.51 1233.91,-668.09 1235.43,-661.26"/>
<text text-anchor="middle" x="1291" y="-679" font-family="Helvetica,sans-Serif" font-size="10.00"> m_engine</text>
</g>
<!-- Node23 -->
<g id="node23" class="node">
<title>Node23</title>
<g id="a_node23"><a xlink:href="classMenus.html" target="_top" xlink:title=" ">
<polygon fill="none" stroke="black" points="1560,-612.5 1560,-631.5 1609,-631.5 1609,-612.5 1560,-612.5"/>
<text text-anchor="middle" x="1584.5" y="-619.5" font-family="Helvetica,sans-Serif" font-size="10.00">Menus</text>
</a>
</g>
</g>
<!-- Node5&#45;&gt;Node23 -->
<g id="edge45" class="edge">
<title>Node5&#45;&gt;Node23</title>
<path fill="none" stroke="#9a32cd" stroke-dasharray="5,2" d="M1193.6,-672.63C1200.07,-697.97 1215.31,-741.05 1247,-760 1280.57,-780.07 1295.94,-762.06 1335,-760 1381.42,-757.55 1396.43,-767.66 1439,-749 1501.71,-721.51 1556.64,-656.61 1576.05,-631.84"/>
<polygon fill="#9a32cd" stroke="#9a32cd" points="1196.96,-671.63 1191.28,-662.68 1190.15,-673.22 1196.96,-671.63"/>
<text text-anchor="middle" x="1396" y="-763" font-family="Helvetica,sans-Serif" font-size="10.00"> m_engine</text>
</g>
<!-- Node24 -->
<g id="node24" class="node">
<title>Node24</title>
<g id="a_node24"><a xlink:href="classMenu.html" target="_top" xlink:title=" ">
<polygon fill="none" stroke="black" points="1374,-541.5 1374,-560.5 1418,-560.5 1418,-541.5 1374,-541.5"/>
<text text-anchor="middle" x="1396" y="-548.5" font-family="Helvetica,sans-Serif" font-size="10.00">Menu</text>
</a>
</g>
</g>
<!-- Node5&#45;&gt;Node24 -->
<g id="edge49" class="edge">
<title>Node5&#45;&gt;Node24</title>
<path fill="none" stroke="#9a32cd" stroke-dasharray="5,2" d="M1203.44,-635.2C1214.1,-622.75 1229.84,-606.68 1247,-597 1282.2,-577.13 1296.51,-586.36 1335,-574 1348.06,-569.8 1362.43,-564.33 1373.82,-559.78"/>
<polygon fill="#9a32cd" stroke="#9a32cd" points="1200.58,-633.17 1196.92,-643.11 1205.98,-637.62 1200.58,-633.17"/>
<text text-anchor="middle" x="1291" y="-600" font-family="Helvetica,sans-Serif" font-size="10.00"> m_engine</text>
</g>
<!-- Node27 -->
<g id="node27" class="node">
<title>Node27</title>
<g id="a_node27"><a xlink:href="classTimer.html" target="_top" xlink:title=" ">
<polygon fill="none" stroke="black" points="1373.5,-237.5 1373.5,-256.5 1418.5,-256.5 1418.5,-237.5 1373.5,-237.5"/>
<text text-anchor="middle" x="1396" y="-244.5" font-family="Helvetica,sans-Serif" font-size="10.00">Timer</text>
</a>
</g>
</g>
<!-- Node5&#45;&gt;Node27 -->
<g id="edge53" class="edge">
<title>Node5&#45;&gt;Node27</title>
<path fill="none" stroke="#9a32cd" stroke-dasharray="5,2" d="M1189.1,-633.12C1188.08,-558.98 1188.81,-300.19 1247,-249 1281.92,-218.28 1341.45,-230 1373.33,-239.5"/>
<polygon fill="#9a32cd" stroke="#9a32cd" points="1185.61,-633.44 1189.27,-643.38 1192.61,-633.32 1185.61,-633.44"/>
<text text-anchor="middle" x="1291" y="-252" font-family="Helvetica,sans-Serif" font-size="10.00"> m_engine</text>
</g>
<!-- Node6&#45;&gt;Node5 -->
<g id="edge5" class="edge">
<title>Node6&#45;&gt;Node5</title>
<path fill="none" stroke="#9a32cd" stroke-dasharray="5,2" d="M1350.44,-420.53C1317.62,-430.45 1274.15,-448.47 1247,-479 1202.39,-529.16 1192.26,-614.84 1190.07,-643.41"/>
<polygon fill="#9a32cd" stroke="#9a32cd" points="1351.62,-423.83 1360.26,-417.7 1349.68,-417.11 1351.62,-423.83"/>
<text text-anchor="middle" x="1291" y="-482" font-family="Helvetica,sans-Serif" font-size="10.00"> m_vlReceiver</text>
</g>
<!-- Node7 -->
<g id="node7" class="node">
<title>Node7</title>
<g id="a_node7"><a xlink:href="classBitStream.html" target="_top" xlink:title=" ">
<polygon fill="none" stroke="black" points="1156,-154.5 1156,-173.5 1221,-173.5 1221,-154.5 1156,-154.5"/>
<text text-anchor="middle" x="1188.5" y="-161.5" font-family="Helvetica,sans-Serif" font-size="10.00">BitStream</text>
</a>
</g>
</g>
<!-- Node7&#45;&gt;Node6 -->
<g id="edge7" class="edge">
<title>Node7&#45;&gt;Node6</title>
<path fill="none" stroke="#9a32cd" stroke-dasharray="5,2" d="M1215,-178.32C1224.8,-183.43 1236.22,-188.93 1247,-193 1284.81,-207.29 1307.2,-186.66 1335,-216 1362.46,-244.98 1341.6,-265.74 1353,-304 1363.85,-340.42 1382.05,-381.84 1390.47,-400.27"/>
<polygon fill="#9a32cd" stroke="#9a32cd" points="1216.65,-175.23 1206.18,-173.6 1213.35,-181.4 1216.65,-175.23"/>
<text text-anchor="middle" x="1291" y="-219" font-family="Helvetica,sans-Serif" font-size="10.00"> m_vlData</text>
</g>
<!-- Node7&#45;&gt;Node9 -->
<g id="edge12" class="edge">
<title>Node7&#45;&gt;Node9</title>
<path fill="none" stroke="#9a32cd" stroke-dasharray="5,2" d="M1192.61,-183.64C1198.22,-212.43 1212.81,-265.82 1247,-295 1277.75,-321.24 1307.8,-288.09 1335,-318 1368.62,-354.98 1334.01,-382.77 1353,-429 1360.93,-448.31 1376.24,-467.38 1386.02,-478.41"/>
<polygon fill="#9a32cd" stroke="#9a32cd" points="1196.02,-182.82 1190.83,-173.59 1189.13,-184.05 1196.02,-182.82"/>
<text text-anchor="middle" x="1291" y="-321" font-family="Helvetica,sans-Serif" font-size="10.00"> m_bitStream</text>
</g>
<!-- Node7&#45;&gt;Node16 -->
<g id="edge26" class="edge">
<title>Node7&#45;&gt;Node16</title>
<path fill="none" stroke="#9a32cd" stroke-dasharray="5,2" d="M1196.32,-144.93C1204.74,-124.64 1221.17,-93.62 1247,-80 1281.6,-61.76 1297.12,-70.27 1335,-80 1352.5,-84.5 1370.37,-95.29 1382,-103.31"/>
<polygon fill="#9a32cd" stroke="#9a32cd" points="1193,-143.83 1192.65,-154.42 1199.52,-146.36 1193,-143.83"/>
<text text-anchor="middle" x="1291" y="-83" font-family="Helvetica,sans-Serif" font-size="10.00"> m_bitStream</text>
</g>
<!-- Node7&#45;&gt;Node21 -->
<g id="edge41" class="edge">
<title>Node7&#45;&gt;Node21</title>
<path fill="none" stroke="#9a32cd" stroke-dasharray="5,2" d="M1203.53,-146.51C1214.08,-134.84 1229.65,-120.49 1247,-114 1283.63,-100.3 1305.76,-88.02 1335,-114 1360.43,-136.59 1332.91,-238.55 1353,-266 1355.84,-269.87 1359.65,-272.98 1363.83,-275.46"/>
<polygon fill="#9a32cd" stroke="#9a32cd" points="1200.63,-144.51 1196.78,-154.38 1205.95,-149.06 1200.63,-144.51"/>
<text text-anchor="middle" x="1291" y="-117" font-family="Helvetica,sans-Serif" font-size="10.00"> m_irData</text>
</g>
<!-- Node8&#45;&gt;Node5 -->
<g id="edge8" class="edge">
<title>Node8&#45;&gt;Node5</title>
<path fill="none" stroke="#9a32cd" stroke-dasharray="5,2" d="M1358.77,-1042.24C1316.21,-1032.96 1250.85,-1018.17 1247,-1014 1197.84,-960.7 1190.63,-714.94 1189.65,-662.76"/>
<polygon fill="#9a32cd" stroke="#9a32cd" points="1358.27,-1045.71 1368.79,-1044.41 1359.76,-1038.87 1358.27,-1045.71"/>
<text text-anchor="middle" x="1291" y="-1039" font-family="Helvetica,sans-Serif" font-size="10.00"> m_storage</text>
</g>
<!-- Node9&#45;&gt;Node5 -->
<g id="edge10" class="edge">
<title>Node9&#45;&gt;Node5</title>
<path fill="none" stroke="#9a32cd" stroke-dasharray="5,2" d="M1355.73,-489.94C1323.22,-493.47 1277.55,-503.09 1247,-529 1210.26,-560.16 1195.63,-619.87 1191.15,-643.26"/>
<polygon fill="#9a32cd" stroke="#9a32cd" points="1356.16,-493.42 1365.79,-489 1355.51,-486.45 1356.16,-493.42"/>
<text text-anchor="middle" x="1291" y="-532" font-family="Helvetica,sans-Serif" font-size="10.00"> m_irSender</text>
</g>
<!-- Node10 -->
<g id="node10" class="node">
<title>Node10</title>
<g id="a_node10"><a xlink:href="classByteStream.html" target="_top" xlink:title=" ">
<polygon fill="none" stroke="black" points="529,-333.5 529,-352.5 603,-352.5 603,-333.5 529,-333.5"/>
<text text-anchor="middle" x="566" y="-340.5" font-family="Helvetica,sans-Serif" font-size="10.00">ByteStream</text>
</a>
</g>
</g>
<!-- Node10&#45;&gt;Node9 -->
<g id="edge13" class="edge">
<title>Node10&#45;&gt;Node9</title>
<path fill="none" stroke="#9a32cd" stroke-dasharray="5,2" d="M613.3,-343C660.13,-343 734.59,-343 799,-343 799,-343 799,-343 1189.5,-343 1254.47,-343 1285.77,-314.61 1335,-357 1360,-378.52 1339.2,-399.04 1353,-429 1361.74,-447.96 1376.8,-467.14 1386.32,-478.28"/>
<polygon fill="#9a32cd" stroke="#9a32cd" points="613.17,-339.5 603.17,-343 613.17,-346.5 613.17,-339.5"/>
<text text-anchor="middle" x="1017.5" y="-346" font-family="Helvetica,sans-Serif" font-size="10.00"> m_serialBuf</text>
</g>
<!-- Node10&#45;&gt;Node16 -->
<g id="edge27" class="edge">
<title>Node10&#45;&gt;Node16</title>
<path fill="none" stroke="#9a32cd" stroke-dasharray="5,2" d="M571.87,-323.52C589.67,-257.45 657.67,-46 799,-46 799,-46 799,-46 1189.5,-46 1254.77,-46 1274.89,-40.55 1335,-66 1355.47,-74.67 1374.91,-92.2 1385.86,-103.23"/>
<polygon fill="#9a32cd" stroke="#9a32cd" points="568.42,-322.9 569.28,-333.45 575.19,-324.66 568.42,-322.9"/>
<text text-anchor="middle" x="1017.5" y="-49" font-family="Helvetica,sans-Serif" font-size="10.00"> m_serialBuf</text>
</g>
<!-- Node10&#45;&gt;Node18 -->
<g id="edge35" class="edge">
<title>Node10&#45;&gt;Node18</title>
<path fill="none" stroke="#9a32cd" stroke-dasharray="5,2" d="M573.07,-362.41C581.09,-385.6 597.06,-424.59 621,-451 666.37,-501.04 739.12,-537.25 775.99,-553.48"/>
<polygon fill="#9a32cd" stroke="#9a32cd" points="576.32,-361.09 569.86,-352.69 569.68,-363.28 576.32,-361.09"/>
<text text-anchor="middle" x="676" y="-534" font-family="Helvetica,sans-Serif" font-size="10.00"> m_storedMode</text>
</g>
<!-- Node11 -->
<g id="node11" class="node">
<title>Node11</title>
<g id="a_node11"><a xlink:href="structByteStream_1_1RawBuffer.html" target="_top" xlink:title=" ">
<polygon fill="none" stroke="black" points="303,-333.5 303,-352.5 434,-352.5 434,-333.5 303,-333.5"/>
<text text-anchor="middle" x="368.5" y="-340.5" font-family="Helvetica,sans-Serif" font-size="10.00">ByteStream::RawBuffer</text>
</a>
</g>
</g>
<!-- Node11&#45;&gt;Node10 -->
<g id="edge14" class="edge">
<title>Node11&#45;&gt;Node10</title>
<path fill="none" stroke="#9a32cd" stroke-dasharray="5,2" d="M444.17,-343C473.16,-343 505.01,-343 528.74,-343"/>
<polygon fill="#9a32cd" stroke="#9a32cd" points="444.06,-339.5 434.06,-343 444.06,-346.5 444.06,-339.5"/>
<text text-anchor="middle" x="481.5" y="-346" font-family="Helvetica,sans-Serif" font-size="10.00"> m_pData</text>
</g>
<!-- Node12&#45;&gt;Node5 -->
<g id="edge16" class="edge">
<title>Node12&#45;&gt;Node5</title>
<path fill="none" stroke="#9a32cd" stroke-dasharray="5,2" d="M1547.58,-967.72C1541.11,-969.36 1534.39,-970.88 1528,-972 1426.83,-989.71 1269.79,-1007.21 1247,-988 1195.57,-944.64 1190.14,-712.79 1189.57,-662.59"/>
<polygon fill="#9a32cd" stroke="#9a32cd" points="1548.71,-971.05 1557.46,-965.08 1546.9,-964.28 1548.71,-971.05"/>
<text text-anchor="middle" x="1396" y="-997" font-family="Helvetica,sans-Serif" font-size="10.00"> m_buttons</text>
</g>
<!-- Node13&#45;&gt;Node12 -->
<g id="edge18" class="edge">
<title>Node13&#45;&gt;Node12</title>
<path fill="none" stroke="#9a32cd" stroke-dasharray="5,2" d="M1430.74,-957C1467.13,-957 1524.26,-957 1557.38,-957"/>
<polygon fill="#9a32cd" stroke="#9a32cd" points="1430.62,-953.5 1420.62,-957 1430.62,-960.5 1430.62,-953.5"/>
<text text-anchor="middle" x="1492.5" y="-960" font-family="Helvetica,sans-Serif" font-size="10.00"> m_buttons</text>
</g>
<!-- Node14&#45;&gt;Node5 -->
<g id="edge20" class="edge">
<title>Node14&#45;&gt;Node5</title>
<path fill="none" stroke="#9a32cd" stroke-dasharray="5,2" d="M1366.37,-927.02C1333.73,-937.53 1280.56,-948.12 1247,-921 1205.46,-887.42 1192.56,-706.63 1190.01,-662.65"/>
<polygon fill="#9a32cd" stroke="#9a32cd" points="1367.87,-930.21 1376.2,-923.66 1365.6,-923.59 1367.87,-930.21"/>
<text text-anchor="middle" x="1291" y="-941" font-family="Helvetica,sans-Serif" font-size="10.00"> m_leds</text>
</g>
<!-- Node15&#45;&gt;Node5 -->
<g id="edge22" class="edge">
<title>Node15&#45;&gt;Node5</title>
<path fill="none" stroke="#9a32cd" stroke-dasharray="5,2" d="M1342.59,-869.98C1305.96,-868.88 1261.16,-864.99 1247,-853 1187.72,-802.8 1187.45,-695.85 1188.89,-662.88"/>
<polygon fill="#9a32cd" stroke="#9a32cd" points="1342.59,-873.49 1352.67,-870.23 1342.76,-866.49 1342.59,-873.49"/>
<text text-anchor="middle" x="1291" y="-872" font-family="Helvetica,sans-Serif" font-size="10.00"> m_patternBuilder</text>
</g>
<!-- Node16&#45;&gt;Node5 -->
<g id="edge24" class="edge">
<title>Node16&#45;&gt;Node5</title>
<path fill="none" stroke="#9a32cd" stroke-dasharray="5,2" d="M1354.83,-121.31C1312.26,-130.3 1250.65,-143.89 1247,-148 1212.73,-186.6 1193.07,-576.57 1189.94,-643.31"/>
<polygon fill="#9a32cd" stroke="#9a32cd" points="1355.59,-124.73 1364.66,-119.25 1354.15,-117.88 1355.59,-124.73"/>
<text text-anchor="middle" x="1291" y="-151" font-family="Helvetica,sans-Serif" font-size="10.00"> m_vlSender</text>
</g>
<!-- Node17&#45;&gt;Node5 -->
<g id="edge28" class="edge">
<title>Node17&#45;&gt;Node5</title>
<path fill="none" stroke="#9a32cd" stroke-dasharray="5,2" d="M1052.33,-565.12C1075.54,-567.83 1106.3,-574 1130,-588 1153.61,-601.95 1172.71,-628.92 1181.78,-643.34"/>
<polygon fill="#9a32cd" stroke="#9a32cd" points="1052.55,-561.62 1042.25,-564.1 1051.85,-568.59 1052.55,-561.62"/>
<text text-anchor="middle" x="1104" y="-591" font-family="Helvetica,sans-Serif" font-size="10.00"> m_modes</text>
</g>
<!-- Node18&#45;&gt;Node17 -->
<g id="edge30" class="edge">
<title>Node18&#45;&gt;Node17</title>
<path fill="none" stroke="#9a32cd" stroke-dasharray="5,2" d="M861.45,-563C904.98,-563 961.34,-563 992.73,-563"/>
<polygon fill="#9a32cd" stroke="#9a32cd" points="861.25,-559.5 851.25,-563 861.25,-566.5 861.25,-559.5"/>
<text text-anchor="middle" x="913" y="-577" font-family="Helvetica,sans-Serif" font-size="10.00"> m_pCurModeLink</text>
<text text-anchor="middle" x="913" y="-566" font-family="Helvetica,sans-Serif" font-size="10.00">m_storedModes</text>
</g>
<!-- Node18&#45;&gt;Node18 -->
<g id="edge36" class="edge">
<title>Node18&#45;&gt;Node18</title>
<path fill="none" stroke="#9a32cd" stroke-dasharray="5,2" d="M779.26,-582.4C780.65,-587.31 787.56,-591 800,-591 819.91,-591 825.66,-581.57 817.26,-572.76"/>
<polygon fill="#9a32cd" stroke="#9a32cd" points="782.64,-583.35 782.74,-572.76 776.05,-580.98 782.64,-583.35"/>
<text text-anchor="middle" x="800" y="-605" font-family="Helvetica,sans-Serif" font-size="10.00"> m_next</text>
<text text-anchor="middle" x="800" y="-594" font-family="Helvetica,sans-Serif" font-size="10.00">m_prev</text>
</g>
<!-- Node19&#45;&gt;Node18 -->
<g id="edge31" class="edge">
<title>Node19&#45;&gt;Node18</title>
<path fill="none" stroke="#9a32cd" stroke-dasharray="5,2" d="M598.56,-563C637.24,-563 703.26,-563 748.91,-563"/>
<polygon fill="#9a32cd" stroke="#9a32cd" points="598.41,-559.5 588.41,-563 598.41,-566.5 598.41,-559.5"/>
<text text-anchor="middle" x="676" y="-566" font-family="Helvetica,sans-Serif" font-size="10.00"> m_pInstantiatedMode</text>
</g>
<!-- Node19&#45;&gt;Node24 -->
<g id="edge47" class="edge">
<title>Node19&#45;&gt;Node24</title>
<path fill="none" stroke="#9a32cd" stroke-dasharray="5,2" d="M579.49,-545C589.24,-532.55 603.95,-516.86 621,-509 693.07,-475.78 719.64,-495 799,-495 799,-495 799,-495 1189.5,-495 1254.47,-495 1274.05,-486.52 1335,-509 1354.56,-516.22 1373.69,-531.42 1384.9,-541.42"/>
<polygon fill="#9a32cd" stroke="#9a32cd" points="576.46,-543.22 573.32,-553.34 582.08,-547.39 576.46,-543.22"/>
<text text-anchor="middle" x="1017.5" y="-498" font-family="Helvetica,sans-Serif" font-size="10.00"> m_previewMode</text>
</g>
<!-- Node20&#45;&gt;Node5 -->
<g id="edge37" class="edge">
<title>Node20&#45;&gt;Node5</title>
<path fill="none" stroke="#9a32cd" stroke-dasharray="5,2" d="M1349.65,-722.05C1319.67,-715.84 1279.98,-705.76 1247,-691 1230.18,-683.47 1212.79,-671.25 1201.6,-662.71"/>
<polygon fill="#9a32cd" stroke="#9a32cd" points="1349.33,-725.56 1359.82,-724.09 1350.7,-718.69 1349.33,-725.56"/>
<text text-anchor="middle" x="1291" y="-721" font-family="Helvetica,sans-Serif" font-size="10.00"> m_serial</text>
</g>
<!-- Node21&#45;&gt;Node5 -->
<g id="edge39" class="edge">
<title>Node21&#45;&gt;Node5</title>
<path fill="none" stroke="#9a32cd" stroke-dasharray="5,2" d="M1376.78,-301.11C1365.23,-310.92 1349.74,-323.38 1335,-333 1298.04,-357.12 1273.64,-343.81 1247,-379 1214.14,-422.4 1194.76,-599.63 1190.43,-643.26"/>
<polygon fill="#9a32cd" stroke="#9a32cd" points="1379.14,-303.69 1384.42,-294.51 1374.56,-298.39 1379.14,-303.69"/>
<text text-anchor="middle" x="1291" y="-382" font-family="Helvetica,sans-Serif" font-size="10.00"> m_irReceiver</text>
</g>
<!-- Node22&#45;&gt;Node5 -->
<g id="edge42" class="edge">
<title>Node22&#45;&gt;Node5</title>
<path fill="none" stroke="#9a32cd" stroke-dasharray="5,2" d="M1366.81,-666.3C1356.98,-662.18 1345.72,-658.18 1335,-656 1299.72,-648.83 1258.63,-648.71 1229.14,-650.02"/>
<polygon fill="#9a32cd" stroke="#9a32cd" points="1365.53,-669.56 1376.09,-670.39 1368.35,-663.15 1365.53,-669.56"/>
<text text-anchor="middle" x="1291" y="-659" font-family="Helvetica,sans-Serif" font-size="10.00"> m_time</text>
</g>
<!-- Node23&#45;&gt;Node5 -->
<g id="edge44" class="edge">
<title>Node23&#45;&gt;Node5</title>
<path fill="none" stroke="#9a32cd" stroke-dasharray="5,2" d="M1549.63,-623.53C1488.89,-626.45 1357.44,-633.56 1247,-645 1241.19,-645.6 1235.05,-646.34 1229.05,-647.13"/>
<polygon fill="#9a32cd" stroke="#9a32cd" points="1549.97,-627.02 1559.79,-623.05 1549.63,-620.03 1549.97,-627.02"/>
<text text-anchor="middle" x="1396" y="-638" font-family="Helvetica,sans-Serif" font-size="10.00"> m_menus</text>
</g>
<!-- Node24&#45;&gt;Node23 -->
<g id="edge46" class="edge">
<title>Node24&#45;&gt;Node23</title>
<path fill="none" stroke="#9a32cd" stroke-dasharray="5,2" d="M1427.65,-560.94C1454.37,-569.8 1494.06,-583.43 1528,-597 1539.87,-601.75 1552.92,-607.59 1563.38,-612.44"/>
<polygon fill="#9a32cd" stroke="#9a32cd" points="1428.67,-557.59 1418.08,-557.78 1426.48,-564.24 1428.67,-557.59"/>
<text text-anchor="middle" x="1492.5" y="-600" font-family="Helvetica,sans-Serif" font-size="10.00"> m_pCurMenu</text>
</g>
<!-- Node25 -->
<g id="node25" class="node">
<title>Node25</title>
<g id="a_node25"><a xlink:href="classRGBColor.html" target="_top" xlink:title=" ">
<polygon fill="none" stroke="black" points="0,-553.5 0,-572.5 63,-572.5 63,-553.5 0,-553.5"/>
<text text-anchor="middle" x="31.5" y="-560.5" font-family="Helvetica,sans-Serif" font-size="10.00">RGBColor</text>
</a>
</g>
</g>
<!-- Node25&#45;&gt;Node1 -->
<g id="edge54" class="edge">
<title>Node25&#45;&gt;Node1</title>
<path fill="none" stroke="#9a32cd" stroke-dasharray="5,2" d="M33.59,-582.86C39.43,-679.5 70.89,-1096 179.5,-1096 179.5,-1096 179.5,-1096 1585.5,-1096 1674.25,-1096 1695.05,-744.77 1698.08,-681.65"/>
<polygon fill="#9a32cd" stroke="#9a32cd" points="37.08,-582.49 33,-572.71 30.09,-582.89 37.08,-582.49"/>
<text text-anchor="middle" x="913" y="-1110" font-family="Helvetica,sans-Serif" font-size="10.00"> m_cur</text>
<text text-anchor="middle" x="913" y="-1099" font-family="Helvetica,sans-Serif" font-size="10.00">m_next</text>
</g>
<!-- Node25&#45;&gt;Node24 -->
<g id="edge48" class="edge">
<title>Node25&#45;&gt;Node24</title>
<path fill="none" stroke="#9a32cd" stroke-dasharray="5,2" d="M42.46,-544.64C63.03,-509.46 113.84,-436 179.5,-436 179.5,-436 179.5,-436 1189.5,-436 1254.47,-436 1284.5,-409.13 1335,-450 1355.65,-466.71 1339.48,-484.13 1353,-507 1360.96,-520.45 1373.75,-533.06 1383.13,-541.3"/>
<polygon fill="#9a32cd" stroke="#9a32cd" points="39.35,-543.03 37.47,-553.45 45.44,-546.47 39.35,-543.03"/>
<text text-anchor="middle" x="676" y="-439" font-family="Helvetica,sans-Serif" font-size="10.00"> m_menuColor</text>
</g>
<!-- Node26 -->
<g id="node26" class="node">
<title>Node26</title>
<g id="a_node26"><a xlink:href="classColorset.html" target="_top" xlink:title=" ">
<polygon fill="none" stroke="black" points="152,-553.5 152,-572.5 209,-572.5 209,-553.5 152,-553.5"/>
<text text-anchor="middle" x="180.5" y="-560.5" font-family="Helvetica,sans-Serif" font-size="10.00">Colorset</text>
</a>
</g>
</g>
<!-- Node25&#45;&gt;Node26 -->
<g id="edge51" class="edge">
<title>Node25&#45;&gt;Node26</title>
<path fill="none" stroke="#9a32cd" stroke-dasharray="5,2" d="M73.57,-563C98.5,-563 129.65,-563 151.7,-563"/>
<polygon fill="#9a32cd" stroke="#9a32cd" points="73.32,-559.5 63.32,-563 73.32,-566.5 73.32,-559.5"/>
<text text-anchor="middle" x="107.5" y="-566" font-family="Helvetica,sans-Serif" font-size="10.00"> m_palette</text>
</g>
<!-- Node26&#45;&gt;Node4 -->
<g id="edge50" class="edge">
<title>Node26&#45;&gt;Node4</title>
<path fill="none" stroke="#9a32cd" stroke-dasharray="5,2" d="M219.7,-563C256.55,-563 311.25,-563 342.74,-563"/>
<polygon fill="#9a32cd" stroke="#9a32cd" points="219.35,-559.5 209.35,-563 219.35,-566.5 219.35,-559.5"/>
<text text-anchor="middle" x="256" y="-566" font-family="Helvetica,sans-Serif" font-size="10.00"> m_colorset</text>
</g>
<!-- Node27&#45;&gt;Node2 -->
<g id="edge52" class="edge">
<title>Node27&#45;&gt;Node2</title>
<path fill="none" stroke="#9a32cd" stroke-dasharray="5,2" d="M1429.02,-247C1461.41,-247 1511.47,-247 1545.77,-247"/>
<polygon fill="#9a32cd" stroke="#9a32cd" points="1428.76,-243.5 1418.76,-247 1428.76,-250.5 1428.76,-243.5"/>
<text text-anchor="middle" x="1492.5" y="-250" font-family="Helvetica,sans-Serif" font-size="10.00"> m_blinkTimer</text>
</g>
</g>
</svg>
