<?xml version="1.0" encoding="UTF-8" standalone="no"?>
<!DOCTYPE svg PUBLIC "-//W3C//DTD SVG 1.1//EN"
 "http://www.w3.org/Graphics/SVG/1.1/DTD/svg11.dtd">
<!-- Generated by graphviz version 2.43.0 (0)
 -->
<!-- Title: Mode Pages: 1 -->
<svg width="105pt" height="240pt"
 viewBox="0.00 0.00 104.50 240.00" xmlns="http://www.w3.org/2000/svg" xmlns:xlink="http://www.w3.org/1999/xlink">
<g id="graph0" class="graph" transform="scale(1 1) rotate(0) translate(4 236)">
<title>Mode</title>
<!-- Node1 -->
<g id="node1" class="node">
<title>Node1</title>
<g id="a_node1"><a xlink:title=" ">
<polygon fill="#bfbfbf" stroke="black" points="9.5,-0.5 9.5,-19.5 53.5,-19.5 53.5,-0.5 9.5,-0.5"/>
<text text-anchor="middle" x="31.5" y="-7.5" font-family="Helvetica,sans-Serif" font-size="10.00">Mode</text>
</a>
</g>
</g>
<!-- Node2 -->
<g id="node2" class="node">
<title>Node2</title>
<g id="a_node2"><a xlink:href="classPattern.html" target="_top" xlink:title=" ">
<polygon fill="none" stroke="black" points="6,-78.5 6,-97.5 57,-97.5 57,-78.5 6,-78.5"/>
<text text-anchor="middle" x="31.5" y="-85.5" font-family="Helvetica,sans-Serif" font-size="10.00">Pattern</text>
</a>
</g>
</g>
<!-- Node2&#45;&gt;Node1 -->
<g id="edge1" class="edge">
<title>Node2&#45;&gt;Node1</title>
<path fill="none" stroke="#9a32cd" stroke-dasharray="5,2" d="M31.5,-68.22C31.5,-52.7 31.5,-31.36 31.5,-19.62"/>
<polygon fill="#9a32cd" stroke="#9a32cd" points="28,-68.28 31.5,-78.28 35,-68.28 28,-68.28"/>
<text text-anchor="middle" x="64" y="-52" font-family="Helvetica,sans-Serif" font-size="10.00"> m_multiPat</text>
<text text-anchor="middle" x="64" y="-41" font-family="Helvetica,sans-Serif" font-size="10.00">m_singlePats</text>
</g>
<!-- Node3 -->
<g id="node3" class="node">
<title>Node3</title>
<g id="a_node3"><a xlink:href="classColorset.html" target="_top" xlink:title=" ">
<polygon fill="none" stroke="black" points="3,-145.5 3,-164.5 60,-164.5 60,-145.5 3,-145.5"/>
<text text-anchor="middle" x="31.5" y="-152.5" font-family="Helvetica,sans-Serif" font-size="10.00">Colorset</text>
</a>
</g>
</g>
<!-- Node3&#45;&gt;Node2 -->
<g id="edge2" class="edge">
<title>Node3&#45;&gt;Node2</title>
<path fill="none" stroke="#9a32cd" stroke-dasharray="5,2" d="M31.5,-135.04C31.5,-122.67 31.5,-107.12 31.5,-97.63"/>
<polygon fill="#9a32cd" stroke="#9a32cd" points="28,-135.23 31.5,-145.23 35,-135.23 28,-135.23"/>
<text text-anchor="middle" x="60.5" y="-119" font-family="Helvetica,sans-Serif" font-size="10.00"> m_colorset</text>
</g>
<!-- Node4 -->
<g id="node4" class="node">
<title>Node4</title>
<g id="a_node4"><a xlink:href="classRGBColor.html" target="_top" xlink:title=" ">
<polygon fill="none" stroke="black" points="0,-212.5 0,-231.5 63,-231.5 63,-212.5 0,-212.5"/>
<text text-anchor="middle" x="31.5" y="-219.5" font-family="Helvetica,sans-Serif" font-size="10.00">RGBColor</text>
</a>
</g>
</g>
<!-- Node4&#45;&gt;Node3 -->
<g id="edge3" class="edge">
<title>Node4&#45;&gt;Node3</title>
<path fill="none" stroke="#9a32cd" stroke-dasharray="5,2" d="M31.5,-202.04C31.5,-189.67 31.5,-174.12 31.5,-164.63"/>
<polygon fill="#9a32cd" stroke="#9a32cd" points="28,-202.23 31.5,-212.23 35,-202.23 28,-202.23"/>
<text text-anchor="middle" x="58" y="-186" font-family="Helvetica,sans-Serif" font-size="10.00"> m_palette</text>
</g>
</g>
</svg>
