<?xml version="1.0" encoding="UTF-8" standalone="no"?>
<!DOCTYPE svg PUBLIC "-//W3C//DTD SVG 1.1//EN"
 "http://www.w3.org/Graphics/SVG/1.1/DTD/svg11.dtd">
<!-- Generated by graphviz version 2.43.0 (0)
 -->
<!-- Title: Modes::ModeLink Pages: 1 -->
<!--zoomable 1217 -->
<svg id="main" version="1.1" xmlns="http://www.w3.org/2000/svg" xmlns:xlink="http://www.w3.org/1999/xlink" xml:space="preserve" onload="init(evt)">
<style type="text/css"><![CDATA[
.edge:hover path { stroke: red; }
.edge:hover polygon { stroke: red; fill: red; }
]]></style>
<script type="text/javascript"><![CDATA[
var edges = document.getElementsByTagName('g');
if (edges && edges.length) {
  for (var i=0;i<edges.length;i++) {
    if (edges[i].id.substr(0,4)=='edge') {
      edges[i].setAttribute('class','edge');
    }
  }
}
]]></script>
        <defs>
                <circle id="rim" cx="0" cy="0" r="7"/>
                <circle id="rim2" cx="0" cy="0" r="3.5"/>
                <g id="zoomPlus">
                        <use xlink:href="#rim" fill="#404040">
                                <set attributeName="fill" to="#808080" begin="zoomplus.mouseover" end="zoomplus.mouseout"/>
                        </use>
                        <path d="M-4,0h8M0,-4v8" fill="none" stroke="white" stroke-width="1.5" pointer-events="none"/>
                </g>
                <g id="zoomMin">
                        <use xlink:href="#rim" fill="#404040">
                                <set attributeName="fill" to="#808080" begin="zoomminus.mouseover" end="zoomminus.mouseout"/>
                        </use>
                        <path d="M-4,0h8" fill="none" stroke="white" stroke-width="1.5" pointer-events="none"/>
                </g>
                <g id="dirArrow">
                        <path fill="none" stroke="white" stroke-width="1.5" d="M0,-3.0v7 M-2.5,-0.5L0,-3.0L2.5,-0.5"/>
                </g>
               <g id="resetDef">
                       <use xlink:href="#rim2" fill="#404040">
                               <set attributeName="fill" to="#808080" begin="reset.mouseover" end="reset.mouseout"/>
                       </use>
               </g>
        </defs>

<script type="text/javascript">
var viewWidth = 1653;
var viewHeight = 1217;
var sectionId = 'dynsection-0';
</script>
<script xlink:href="svgpan.js"/>
<svg id="graph" class="graph">
<g id="viewport">
<title>Modes::ModeLink</title>
<!-- Node1 -->
<g id="node1" class="node">
<title>Node1</title>
<g id="a_node1"><a xlink:title=" ">
<polygon fill="#bfbfbf" stroke="black" points="401,-659.3 401,-678.3 503,-678.3 503,-659.3 401,-659.3"/>
<text text-anchor="middle" x="452" y="-666.3" font-family="Helvetica,sans-Serif" font-size="10.00">Modes::ModeLink</text>
</a>
</g>
</g>
<!-- Node1&#45;&gt;Node1 -->
<g id="edge53" class="edge">
<title>Node1&#45;&gt;Node1</title>
<path fill="none" stroke="#9a32cd" stroke-dasharray="5,2" d="M432.37,-688.2C433.68,-693.12 440.23,-696.8 452,-696.8 470.84,-696.8 476.29,-687.37 468.34,-678.56"/>
<polygon fill="#9a32cd" stroke="#9a32cd" points="435.74,-689.16 435.66,-678.56 429.12,-686.89 435.74,-689.16"/>
<text text-anchor="middle" x="452" y="-710.8" font-family="Helvetica,sans-Serif" font-size="10.00"> m_next</text>
<text text-anchor="middle" x="452" y="-699.8" font-family="Helvetica,sans-Serif" font-size="10.00">m_prev</text>
</g>
<!-- Node15 -->
<g id="node15" class="node">
<title>Node15</title>
<g id="a_node15"><a xlink:href="classModes.html" target="_top" xlink:title=" ">
<polygon fill="none" stroke="black" points="634,-636.3 634,-655.3 683,-655.3 683,-636.3 634,-636.3"/>
<text text-anchor="middle" x="658.5" y="-643.3" font-family="Helvetica,sans-Serif" font-size="10.00">Modes</text>
</a>
</g>
</g>
<!-- Node1&#45;&gt;Node15 -->
<g id="edge28" class="edge">
<title>Node1&#45;&gt;Node15</title>
<path fill="none" stroke="#9a32cd" stroke-dasharray="5,2" d="M509.02,-657.56C513.07,-656.92 517.09,-656.32 521,-655.8 560.34,-650.62 606.44,-647.94 633.74,-646.71"/>
<polygon fill="#9a32cd" stroke="#9a32cd" points="508.25,-654.15 498.97,-659.27 509.42,-661.05 508.25,-654.15"/>
<text text-anchor="middle" x="565" y="-669.8" font-family="Helvetica,sans-Serif" font-size="10.00"> m_pCurModeLink</text>
<text text-anchor="middle" x="565" y="-658.8" font-family="Helvetica,sans-Serif" font-size="10.00">m_storedModes</text>
</g>
<!-- Node2 -->
<g id="node2" class="node">
<title>Node2</title>
<g id="a_node2"><a xlink:href="classMode.html" target="_top" xlink:title=" ">
<polygon fill="none" stroke="black" points="1257.5,-1091.3 1257.5,-1110.3 1301.5,-1110.3 1301.5,-1091.3 1257.5,-1091.3"/>
<text text-anchor="middle" x="1279.5" y="-1098.3" font-family="Helvetica,sans-Serif" font-size="10.00">Mode</text>
</a>
</g>
</g>
<!-- Node2&#45;&gt;Node1 -->
<g id="edge1" class="edge">
<title>Node2&#45;&gt;Node1</title>
<path fill="none" stroke="#9a32cd" stroke-dasharray="5,2" d="M1258.25,-1116.51C1220.76,-1143.97 1137.06,-1197.8 1057,-1197.8 657.5,-1197.8 657.5,-1197.8 657.5,-1197.8 541.56,-1197.8 465.87,-750.13 454.49,-678.44"/>
<polygon fill="#9a32cd" stroke="#9a32cd" points="1260.43,-1119.25 1266.35,-1110.46 1256.24,-1113.64 1260.43,-1119.25"/>
<text text-anchor="middle" x="834" y="-1200.8" font-family="Helvetica,sans-Serif" font-size="10.00"> m_pInstantiatedMode</text>
</g>
<!-- Node23 -->
<g id="node23" class="node">
<title>Node23</title>
<g id="a_node23"><a xlink:href="classMenu.html" target="_top" xlink:title=" ">
<polygon fill="none" stroke="black" points="1448,-920.3 1448,-939.3 1492,-939.3 1492,-920.3 1448,-920.3"/>
<text text-anchor="middle" x="1470" y="-927.3" font-family="Helvetica,sans-Serif" font-size="10.00">Menu</text>
</a>
</g>
</g>
<!-- Node2&#45;&gt;Node23 -->
<g id="edge44" class="edge">
<title>Node2&#45;&gt;Node23</title>
<path fill="none" stroke="#9a32cd" stroke-dasharray="5,2" d="M1311.89,-1100.69C1345.51,-1098.86 1398.29,-1090.77 1430,-1059.8 1464.39,-1026.22 1468.74,-963.61 1469.08,-939.56"/>
<polygon fill="#9a32cd" stroke="#9a32cd" points="1311.56,-1097.21 1301.7,-1101.09 1311.83,-1104.2 1311.56,-1097.21"/>
<text text-anchor="middle" x="1387.5" y="-1098.8" font-family="Helvetica,sans-Serif" font-size="10.00"> m_previewMode</text>
</g>
<!-- Node3 -->
<g id="node3" class="node">
<title>Node3</title>
<g id="a_node3"><a xlink:href="classVortexEngine.html" target="_top" xlink:title=" ">
<polygon fill="none" stroke="black" points="793.5,-656.3 793.5,-675.3 874.5,-675.3 874.5,-656.3 793.5,-656.3"/>
<text text-anchor="middle" x="834" y="-663.3" font-family="Helvetica,sans-Serif" font-size="10.00">VortexEngine</text>
</a>
</g>
</g>
<!-- Node3&#45;&gt;Node1 -->
<g id="edge51" class="edge">
<title>Node3&#45;&gt;Node1</title>
<path fill="none" stroke="#9a32cd" stroke-dasharray="5,2" d="M782.84,-670.95C721.16,-676.53 613.29,-683.88 521,-677.8 515.18,-677.42 509.09,-676.85 503.06,-676.19"/>
<polygon fill="#9a32cd" stroke="#9a32cd" points="783.44,-674.41 793.07,-670 782.79,-667.44 783.44,-674.41"/>
<text text-anchor="middle" x="658.5" y="-681.8" font-family="Helvetica,sans-Serif" font-size="10.00"> m_engine</text>
</g>
<!-- Node3&#45;&gt;Node2 -->
<g id="edge2" class="edge">
<title>Node3&#45;&gt;Node2</title>
<path fill="none" stroke="#9a32cd" stroke-dasharray="5,2" d="M835.84,-685.57C839.26,-756.06 854.55,-993.58 907,-1043.8 938.14,-1073.62 1056.38,-1065.25 1099,-1071.8 1156.25,-1080.6 1223.66,-1091.69 1257.24,-1097.26"/>
<polygon fill="#9a32cd" stroke="#9a32cd" points="839.33,-685.24 835.37,-675.41 832.34,-685.56 839.33,-685.24"/>
<text text-anchor="middle" x="1056" y="-1074.8" font-family="Helvetica,sans-Serif" font-size="10.00"> m_engine</text>
</g>
<!-- Node3&#45;&gt;Node3 -->
<g id="edge13" class="edge">
<title>Node3&#45;&gt;Node3</title>
<path fill="none" stroke="#9a32cd" stroke-dasharray="5,2" d="M815.85,-685.2C817.06,-690.12 823.11,-693.8 834,-693.8 851.42,-693.8 856.45,-684.37 849.1,-675.56"/>
<polygon fill="#9a32cd" stroke="#9a32cd" points="819.22,-686.15 818.9,-675.56 812.55,-684.04 819.22,-686.15"/>
<text text-anchor="middle" x="834" y="-696.8" font-family="Helvetica,sans-Serif" font-size="10.00"> m_engine</text>
</g>
<!-- Node4 -->
<g id="node4" class="node">
<title>Node4</title>
<g id="a_node4"><a xlink:href="classVLReceiver.html" target="_top" xlink:title=" ">
<polygon fill="none" stroke="black" points="1020.5,-414.3 1020.5,-433.3 1091.5,-433.3 1091.5,-414.3 1020.5,-414.3"/>
<text text-anchor="middle" x="1056" y="-421.3" font-family="Helvetica,sans-Serif" font-size="10.00">VLReceiver</text>
</a>
</g>
</g>
<!-- Node3&#45;&gt;Node4 -->
<g id="edge4" class="edge">
<title>Node3&#45;&gt;Node4</title>
<path fill="none" stroke="#9a32cd" stroke-dasharray="5,2" d="M844.98,-646.92C856.98,-623.53 876.99,-582.2 889,-544.8 901.21,-506.8 879.02,-485.28 907,-456.8 909.01,-454.76 977.05,-440.17 1020.16,-431.09"/>
<polygon fill="#9a32cd" stroke="#9a32cd" points="841.74,-645.57 840.24,-656.05 847.95,-648.8 841.74,-645.57"/>
<text text-anchor="middle" x="951" y="-459.8" font-family="Helvetica,sans-Serif" font-size="10.00"> m_engine</text>
</g>
<!-- Node6 -->
<g id="node6" class="node">
<title>Node6</title>
<g id="a_node6"><a xlink:href="classStorage.html" target="_top" xlink:title=" ">
<polygon fill="none" stroke="black" points="1029,-1000.3 1029,-1019.3 1083,-1019.3 1083,-1000.3 1029,-1000.3"/>
<text text-anchor="middle" x="1056" y="-1007.3" font-family="Helvetica,sans-Serif" font-size="10.00">Storage</text>
</a>
</g>
</g>
<!-- Node3&#45;&gt;Node6 -->
<g id="edge7" class="edge">
<title>Node3&#45;&gt;Node6</title>
<path fill="none" stroke="#9a32cd" stroke-dasharray="5,2" d="M836.82,-685.54C842.95,-747.44 864.8,-936.19 907,-977.8 911.35,-982.1 987.51,-997.04 1028.83,-1004.9"/>
<polygon fill="#9a32cd" stroke="#9a32cd" points="840.3,-685.14 835.86,-675.52 833.33,-685.81 840.3,-685.14"/>
<text text-anchor="middle" x="951" y="-999.8" font-family="Helvetica,sans-Serif" font-size="10.00"> m_engine</text>
</g>
<!-- Node7 -->
<g id="node7" class="node">
<title>Node7</title>
<g id="a_node7"><a xlink:href="classIRSender.html" target="_top" xlink:title=" ">
<polygon fill="none" stroke="black" points="1026,-41.3 1026,-60.3 1086,-60.3 1086,-41.3 1026,-41.3"/>
<text text-anchor="middle" x="1056" y="-48.3" font-family="Helvetica,sans-Serif" font-size="10.00">IRSender</text>
</a>
</g>
</g>
<!-- Node3&#45;&gt;Node7 -->
<g id="edge9" class="edge">
<title>Node3&#45;&gt;Node7</title>
<path fill="none" stroke="#9a32cd" stroke-dasharray="5,2" d="M845.8,-647.51C858.78,-624.46 879.93,-583.2 889,-544.8 899.43,-500.64 878.48,-172.1 907,-136.8 932.41,-105.36 960.18,-134.33 995,-113.8 1018.42,-100 1038.57,-74.46 1048.47,-60.51"/>
<polygon fill="#9a32cd" stroke="#9a32cd" points="842.75,-645.8 840.8,-656.21 848.82,-649.28 842.75,-645.8"/>
<text text-anchor="middle" x="951" y="-139.8" font-family="Helvetica,sans-Serif" font-size="10.00"> m_engine</text>
</g>
<!-- Node10 -->
<g id="node10" class="node">
<title>Node10</title>
<g id="a_node10"><a xlink:href="classButtons.html" target="_top" xlink:title=" ">
<polygon fill="none" stroke="black" points="1252.5,-796.3 1252.5,-815.3 1306.5,-815.3 1306.5,-796.3 1252.5,-796.3"/>
<text text-anchor="middle" x="1279.5" y="-803.3" font-family="Helvetica,sans-Serif" font-size="10.00">Buttons</text>
</a>
</g>
</g>
<!-- Node3&#45;&gt;Node10 -->
<g id="edge15" class="edge">
<title>Node3&#45;&gt;Node10</title>
<path fill="none" stroke="#9a32cd" stroke-dasharray="5,2" d="M841.15,-685.18C850.63,-711.48 871.54,-757.64 907,-778.8 1020.01,-846.24 1188.1,-823.52 1252.29,-811.37"/>
<polygon fill="#9a32cd" stroke="#9a32cd" points="844.41,-683.89 837.87,-675.55 837.78,-686.15 844.41,-683.89"/>
<text text-anchor="middle" x="1056" y="-827.8" font-family="Helvetica,sans-Serif" font-size="10.00"> m_engine</text>
</g>
<!-- Node11 -->
<g id="node11" class="node">
<title>Node11</title>
<g id="a_node11"><a xlink:href="classButton.html" target="_top" xlink:title=" ">
<polygon fill="none" stroke="black" points="1031.5,-750.3 1031.5,-769.3 1080.5,-769.3 1080.5,-750.3 1031.5,-750.3"/>
<text text-anchor="middle" x="1056" y="-757.3" font-family="Helvetica,sans-Serif" font-size="10.00">Button</text>
</a>
</g>
</g>
<!-- Node3&#45;&gt;Node11 -->
<g id="edge17" class="edge">
<title>Node3&#45;&gt;Node11</title>
<path fill="none" stroke="#9a32cd" stroke-dasharray="5,2" d="M845.48,-684.21C857.57,-703.51 879.39,-732.92 907,-746.8 946.98,-766.91 1000.75,-765.73 1031.25,-762.89"/>
<polygon fill="#9a32cd" stroke="#9a32cd" points="848.35,-682.19 840.2,-675.42 842.34,-685.79 848.35,-682.19"/>
<text text-anchor="middle" x="951" y="-766.8" font-family="Helvetica,sans-Serif" font-size="10.00"> m_engine</text>
</g>
<!-- Node12 -->
<g id="node12" class="node">
<title>Node12</title>
<g id="a_node12"><a xlink:href="classLeds.html" target="_top" xlink:title=" ">
<polygon fill="none" stroke="black" points="1036.5,-906.3 1036.5,-925.3 1075.5,-925.3 1075.5,-906.3 1036.5,-906.3"/>
<text text-anchor="middle" x="1056" y="-913.3" font-family="Helvetica,sans-Serif" font-size="10.00">Leds</text>
</a>
</g>
</g>
<!-- Node3&#45;&gt;Node12 -->
<g id="edge19" class="edge">
<title>Node3&#45;&gt;Node12</title>
<path fill="none" stroke="#9a32cd" stroke-dasharray="5,2" d="M835.29,-685.51C837.04,-728.62 847.58,-831.65 907,-884.8 911.84,-889.14 997.73,-905.31 1036.4,-912.42"/>
<polygon fill="#9a32cd" stroke="#9a32cd" points="838.78,-685.37 835,-675.47 831.79,-685.57 838.78,-685.37"/>
<text text-anchor="middle" x="951" y="-906.8" font-family="Helvetica,sans-Serif" font-size="10.00"> m_engine</text>
</g>
<!-- Node13 -->
<g id="node13" class="node">
<title>Node13</title>
<g id="a_node13"><a xlink:href="classPatternBuilder.html" target="_top" xlink:title=" ">
<polygon fill="none" stroke="black" points="1013,-849.3 1013,-868.3 1099,-868.3 1099,-849.3 1013,-849.3"/>
<text text-anchor="middle" x="1056" y="-856.3" font-family="Helvetica,sans-Serif" font-size="10.00">PatternBuilder</text>
</a>
</g>
</g>
<!-- Node3&#45;&gt;Node13 -->
<g id="edge21" class="edge">
<title>Node3&#45;&gt;Node13</title>
<path fill="none" stroke="#9a32cd" stroke-dasharray="5,2" d="M838.67,-685.38C845.83,-717.85 864.78,-782.66 907,-816.8 938.26,-842.09 956.42,-826.48 995,-837.8 1006.44,-841.16 1018.9,-845.42 1029.49,-849.23"/>
<polygon fill="#9a32cd" stroke="#9a32cd" points="842.05,-684.44 836.62,-675.34 835.2,-685.84 842.05,-684.44"/>
<text text-anchor="middle" x="951" y="-840.8" font-family="Helvetica,sans-Serif" font-size="10.00"> m_engine</text>
</g>
<!-- Node14 -->
<g id="node14" class="node">
<title>Node14</title>
<g id="a_node14"><a xlink:href="classVLSender.html" target="_top" xlink:title=" ">
<polygon fill="none" stroke="black" points="1025,-467.3 1025,-486.3 1087,-486.3 1087,-467.3 1025,-467.3"/>
<text text-anchor="middle" x="1056" y="-474.3" font-family="Helvetica,sans-Serif" font-size="10.00">VLSender</text>
</a>
</g>
</g>
<!-- Node3&#45;&gt;Node14 -->
<g id="edge23" class="edge">
<title>Node3&#45;&gt;Node14</title>
<path fill="none" stroke="#9a32cd" stroke-dasharray="5,2" d="M842.87,-646.93C853.75,-623.18 875.65,-582.84 907,-560.8 940.07,-537.56 960.01,-558.05 995,-537.8 1017.88,-524.56 1037.95,-500.24 1048.06,-486.65"/>
<polygon fill="#9a32cd" stroke="#9a32cd" points="839.58,-645.7 838.77,-656.27 845.99,-648.52 839.58,-645.7"/>
<text text-anchor="middle" x="951" y="-563.8" font-family="Helvetica,sans-Serif" font-size="10.00"> m_engine</text>
</g>
<!-- Node3&#45;&gt;Node15 -->
<g id="edge27" class="edge">
<title>Node3&#45;&gt;Node15</title>
<path fill="none" stroke="#9a32cd" stroke-dasharray="5,2" d="M782.93,-660.03C750.15,-656.25 708.8,-651.49 683.26,-648.54"/>
<polygon fill="#9a32cd" stroke="#9a32cd" points="782.91,-663.55 793.24,-661.22 783.71,-656.6 782.91,-663.55"/>
<text text-anchor="middle" x="734.5" y="-659.8" font-family="Helvetica,sans-Serif" font-size="10.00"> m_engine</text>
</g>
<!-- Node16 -->
<g id="node16" class="node">
<title>Node16</title>
<g id="a_node16"><a xlink:href="classSerialComs.html" target="_top" xlink:title=" ">
<polygon fill="none" stroke="black" points="1020,-304.3 1020,-323.3 1092,-323.3 1092,-304.3 1020,-304.3"/>
<text text-anchor="middle" x="1056" y="-311.3" font-family="Helvetica,sans-Serif" font-size="10.00">SerialComs</text>
</a>
</g>
</g>
<!-- Node3&#45;&gt;Node16 -->
<g id="edge30" class="edge">
<title>Node3&#45;&gt;Node16</title>
<path fill="none" stroke="#9a32cd" stroke-dasharray="5,2" d="M845.56,-647.45C858.28,-624.33 879.18,-583.01 889,-544.8 900.94,-498.37 873.51,-364.11 907,-329.8 922.16,-314.27 981.16,-312.23 1019.93,-312.67"/>
<polygon fill="#9a32cd" stroke="#9a32cd" points="842.5,-645.74 840.66,-656.18 848.6,-649.17 842.5,-645.74"/>
<text text-anchor="middle" x="951" y="-332.8" font-family="Helvetica,sans-Serif" font-size="10.00"> m_engine</text>
</g>
<!-- Node17 -->
<g id="node17" class="node">
<title>Node17</title>
<g id="a_node17"><a xlink:href="classVortex.html" target="_top" xlink:title=" ">
<polygon fill="none" stroke="black" points="1032,-611.3 1032,-630.3 1080,-630.3 1080,-611.3 1032,-611.3"/>
<text text-anchor="middle" x="1056" y="-618.3" font-family="Helvetica,sans-Serif" font-size="10.00">Vortex</text>
</a>
</g>
</g>
<!-- Node3&#45;&gt;Node17 -->
<g id="edge33" class="edge">
<title>Node3&#45;&gt;Node17</title>
<path fill="none" stroke="#9a32cd" stroke-dasharray="5,2" d="M884.66,-655.65C930.72,-646.22 997.22,-632.62 1031.93,-625.52"/>
<polygon fill="#9a32cd" stroke="#9a32cd" points="883.68,-652.27 874.59,-657.71 885.08,-659.13 883.68,-652.27"/>
<text text-anchor="middle" x="951" y="-652.8" font-family="Helvetica,sans-Serif" font-size="10.00"> m_engine</text>
</g>
<!-- Node20 -->
<g id="node20" class="node">
<title>Node20</title>
<g id="a_node20"><a xlink:href="classIRReceiver.html" target="_top" xlink:title=" ">
<polygon fill="none" stroke="black" points="1021.5,-190.3 1021.5,-209.3 1090.5,-209.3 1090.5,-190.3 1021.5,-190.3"/>
<text text-anchor="middle" x="1056" y="-197.3" font-family="Helvetica,sans-Serif" font-size="10.00">IRReceiver</text>
</a>
</g>
</g>
<!-- Node3&#45;&gt;Node20 -->
<g id="edge37" class="edge">
<title>Node3&#45;&gt;Node20</title>
<path fill="none" stroke="#9a32cd" stroke-dasharray="5,2" d="M845.76,-647.5C858.69,-624.43 879.79,-583.17 889,-544.8 898.11,-506.83 878.69,-220.7 907,-193.8 940.65,-161.83 1000.43,-177.93 1032.76,-190.2"/>
<polygon fill="#9a32cd" stroke="#9a32cd" points="842.7,-645.79 840.77,-656.2 848.78,-649.26 842.7,-645.79"/>
<text text-anchor="middle" x="951" y="-196.8" font-family="Helvetica,sans-Serif" font-size="10.00"> m_engine</text>
</g>
<!-- Node21 -->
<g id="node21" class="node">
<title>Node21</title>
<g id="a_node21"><a xlink:href="classTime.html" target="_top" xlink:title=" ">
<polygon fill="none" stroke="black" points="1035.5,-710.3 1035.5,-729.3 1076.5,-729.3 1076.5,-710.3 1035.5,-710.3"/>
<text text-anchor="middle" x="1056" y="-717.3" font-family="Helvetica,sans-Serif" font-size="10.00">Time</text>
</a>
</g>
</g>
<!-- Node3&#45;&gt;Node21 -->
<g id="edge40" class="edge">
<title>Node3&#45;&gt;Node21</title>
<path fill="none" stroke="#9a32cd" stroke-dasharray="5,2" d="M850.01,-683.15C863.35,-697.14 884.22,-715.77 907,-723.8 950.63,-739.19 1006.08,-730.96 1035.15,-724.72"/>
<polygon fill="#9a32cd" stroke="#9a32cd" points="852.4,-680.58 843.07,-675.56 847.23,-685.3 852.4,-680.58"/>
<text text-anchor="middle" x="951" y="-734.8" font-family="Helvetica,sans-Serif" font-size="10.00"> m_engine</text>
</g>
<!-- Node22 -->
<g id="node22" class="node">
<title>Node22</title>
<g id="a_node22"><a xlink:href="classMenus.html" target="_top" xlink:title=" ">
<polygon fill="none" stroke="black" points="1596,-573.3 1596,-592.3 1645,-592.3 1645,-573.3 1596,-573.3"/>
<text text-anchor="middle" x="1620.5" y="-580.3" font-family="Helvetica,sans-Serif" font-size="10.00">Menus</text>
</a>
</g>
</g>
<!-- Node3&#45;&gt;Node22 -->
<g id="edge42" class="edge">
<title>Node3&#45;&gt;Node22</title>
<path fill="none" stroke="#9a32cd" stroke-dasharray="5,2" d="M850.67,-648.56C864.16,-634.96 884.89,-616.83 907,-607.8 1013.46,-564.36 1049.52,-582.8 1164.5,-582.8 1164.5,-582.8 1164.5,-582.8 1471,-582.8 1515.09,-582.8 1566.53,-582.8 1595.84,-582.8"/>
<polygon fill="#9a32cd" stroke="#9a32cd" points="847.99,-646.29 843.61,-655.94 853.05,-651.13 847.99,-646.29"/>
<text text-anchor="middle" x="1279.5" y="-585.8" font-family="Helvetica,sans-Serif" font-size="10.00"> m_engine</text>
</g>
<!-- Node3&#45;&gt;Node23 -->
<g id="edge46" class="edge">
<title>Node3&#45;&gt;Node23</title>
<path fill="none" stroke="#9a32cd" stroke-dasharray="5,2" d="M884.87,-667.47C978.75,-672.77 1185.04,-694.85 1327,-786.8 1387.49,-825.99 1442.58,-894.71 1461.79,-920.05"/>
<polygon fill="#9a32cd" stroke="#9a32cd" points="884.96,-663.97 874.79,-666.94 884.6,-670.96 884.96,-663.97"/>
<text text-anchor="middle" x="1165.5" y="-733.8" font-family="Helvetica,sans-Serif" font-size="10.00"> m_engine</text>
</g>
<!-- Node25 -->
<g id="node25" class="node">
<title>Node25</title>
<g id="a_node25"><a xlink:href="classPattern.html" target="_top" xlink:title=" ">
<polygon fill="none" stroke="black" points="1030.5,-1134.3 1030.5,-1153.3 1081.5,-1153.3 1081.5,-1134.3 1030.5,-1134.3"/>
<text text-anchor="middle" x="1056" y="-1141.3" font-family="Helvetica,sans-Serif" font-size="10.00">Pattern</text>
</a>
</g>
</g>
<!-- Node3&#45;&gt;Node25 -->
<g id="edge48" class="edge">
<title>Node3&#45;&gt;Node25</title>
<path fill="none" stroke="#9a32cd" stroke-dasharray="5,2" d="M836.12,-685.66C840.61,-758.69 859.37,-1011.39 907,-1073.8 937.61,-1113.91 996.92,-1132.05 1030.42,-1139.41"/>
<polygon fill="#9a32cd" stroke="#9a32cd" points="839.61,-685.31 835.52,-675.54 832.62,-685.73 839.61,-685.31"/>
<text text-anchor="middle" x="951" y="-1131.8" font-family="Helvetica,sans-Serif" font-size="10.00"> m_engine</text>
</g>
<!-- Node4&#45;&gt;Node3 -->
<g id="edge3" class="edge">
<title>Node4&#45;&gt;Node3</title>
<path fill="none" stroke="#9a32cd" stroke-dasharray="5,2" d="M1017.22,-411.75C984.14,-403.76 936.82,-398.95 907,-424.8 886.63,-442.47 896.56,-518.92 889,-544.8 876.35,-588.08 851.42,-636.02 840.42,-656.11"/>
<polygon fill="#9a32cd" stroke="#9a32cd" points="1016.44,-415.16 1027,-414.3 1018.21,-408.39 1016.44,-415.16"/>
<text text-anchor="middle" x="951" y="-427.8" font-family="Helvetica,sans-Serif" font-size="10.00"> m_vlReceiver</text>
</g>
<!-- Node5 -->
<g id="node5" class="node">
<title>Node5</title>
<g id="a_node5"><a xlink:href="classBitStream.html" target="_top" xlink:title=" ">
<polygon fill="none" stroke="black" points="801.5,-173.3 801.5,-192.3 866.5,-192.3 866.5,-173.3 801.5,-173.3"/>
<text text-anchor="middle" x="834" y="-180.3" font-family="Helvetica,sans-Serif" font-size="10.00">BitStream</text>
</a>
</g>
</g>
<!-- Node5&#45;&gt;Node4 -->
<g id="edge5" class="edge">
<title>Node5&#45;&gt;Node4</title>
<path fill="none" stroke="#9a32cd" stroke-dasharray="5,2" d="M851.55,-199.58C865.28,-212.61 885.91,-230.17 907,-240.8 943.1,-259 966.42,-235.21 995,-263.8 1017.41,-286.22 1002.32,-302.97 1013,-332.8 1023.97,-363.44 1041.32,-397.87 1049.88,-414.21"/>
<polygon fill="#9a32cd" stroke="#9a32cd" points="853.91,-197 844.31,-192.53 849.03,-202.02 853.91,-197"/>
<text text-anchor="middle" x="951" y="-266.8" font-family="Helvetica,sans-Serif" font-size="10.00"> m_vlData</text>
</g>
<!-- Node5&#45;&gt;Node7 -->
<g id="edge10" class="edge">
<title>Node5&#45;&gt;Node7</title>
<path fill="none" stroke="#9a32cd" stroke-dasharray="5,2" d="M837.92,-162.98C844,-129.65 861.49,-63.27 907,-34.8 946.77,-9.93 1004.54,-28.37 1034.8,-41.21"/>
<polygon fill="#9a32cd" stroke="#9a32cd" points="834.39,-162.83 836.21,-173.27 841.3,-163.97 834.39,-162.83"/>
<text text-anchor="middle" x="951" y="-37.8" font-family="Helvetica,sans-Serif" font-size="10.00"> m_bitStream</text>
</g>
<!-- Node5&#45;&gt;Node14 -->
<g id="edge24" class="edge">
<title>Node5&#45;&gt;Node14</title>
<path fill="none" stroke="#9a32cd" stroke-dasharray="5,2" d="M838.21,-202.48C844.81,-236.38 863.11,-305.7 907,-342.8 937.87,-368.9 966.79,-336.85 995,-365.8 1019.53,-390.98 994.33,-413.03 1013,-442.8 1019.28,-452.82 1029.55,-461.21 1038.37,-467.15"/>
<polygon fill="#9a32cd" stroke="#9a32cd" points="841.62,-201.67 836.41,-192.45 834.73,-202.91 841.62,-201.67"/>
<text text-anchor="middle" x="951" y="-368.8" font-family="Helvetica,sans-Serif" font-size="10.00"> m_bitStream</text>
</g>
<!-- Node5&#45;&gt;Node20 -->
<g id="edge38" class="edge">
<title>Node5&#45;&gt;Node20</title>
<path fill="none" stroke="#9a32cd" stroke-dasharray="5,2" d="M845.31,-164.15C857.26,-144.69 878.96,-115.29 907,-102.8 942.73,-86.89 960.84,-83.76 995,-102.8 1029.25,-121.89 1046.41,-169.48 1052.43,-190.06"/>
<polygon fill="#9a32cd" stroke="#9a32cd" points="842.14,-162.64 840.11,-173.04 848.18,-166.18 842.14,-162.64"/>
<text text-anchor="middle" x="951" y="-105.8" font-family="Helvetica,sans-Serif" font-size="10.00"> m_irData</text>
</g>
<!-- Node6&#45;&gt;Node3 -->
<g id="edge6" class="edge">
<title>Node6&#45;&gt;Node3</title>
<path fill="none" stroke="#9a32cd" stroke-dasharray="5,2" d="M1019.05,-1022.08C986.18,-1030.83 938.07,-1037.08 907,-1011.8 852.62,-967.57 837.95,-726.64 835.43,-675.39"/>
<polygon fill="#9a32cd" stroke="#9a32cd" points="1020.07,-1025.43 1028.73,-1019.32 1018.15,-1018.7 1020.07,-1025.43"/>
<text text-anchor="middle" x="951" y="-1031.8" font-family="Helvetica,sans-Serif" font-size="10.00"> m_storage</text>
</g>
<!-- Node7&#45;&gt;Node3 -->
<g id="edge8" class="edge">
<title>Node7&#45;&gt;Node3</title>
<path fill="none" stroke="#9a32cd" stroke-dasharray="5,2" d="M1015.29,-51.75C976.38,-53.61 920.95,-59.03 907,-74.8 872.38,-113.95 900.86,-493.91 889,-544.8 878.76,-588.71 852.55,-636.31 840.82,-656.22"/>
<polygon fill="#9a32cd" stroke="#9a32cd" points="1015.93,-55.23 1025.78,-51.32 1015.64,-48.24 1015.93,-55.23"/>
<text text-anchor="middle" x="951" y="-77.8" font-family="Helvetica,sans-Serif" font-size="10.00"> m_irSender</text>
</g>
<!-- Node8 -->
<g id="node8" class="node">
<title>Node8</title>
<g id="a_node8"><a xlink:href="classByteStream.html" target="_top" xlink:title=" ">
<polygon fill="none" stroke="black" points="215,-381.3 215,-400.3 289,-400.3 289,-381.3 215,-381.3"/>
<text text-anchor="middle" x="252" y="-388.3" font-family="Helvetica,sans-Serif" font-size="10.00">ByteStream</text>
</a>
</g>
</g>
<!-- Node8&#45;&gt;Node1 -->
<g id="edge52" class="edge">
<title>Node8&#45;&gt;Node1</title>
<path fill="none" stroke="#9a32cd" stroke-dasharray="5,2" d="M265.62,-408.52C303.51,-461.72 415.47,-618.92 444.21,-659.27"/>
<polygon fill="#9a32cd" stroke="#9a32cd" points="268.47,-406.49 259.82,-400.37 262.77,-410.55 268.47,-406.49"/>
<text text-anchor="middle" x="345" y="-574.8" font-family="Helvetica,sans-Serif" font-size="10.00"> m_storedMode</text>
</g>
<!-- Node8&#45;&gt;Node7 -->
<g id="edge11" class="edge">
<title>Node8&#45;&gt;Node7</title>
<path fill="none" stroke="#9a32cd" stroke-dasharray="5,2" d="M253.67,-371.06C257.52,-291.78 283.09,-0.8 451,-0.8 451,-0.8 451,-0.8 835,-0.8 906.56,-0.8 926.66,2.41 995,-18.8 1011.69,-23.98 1029.13,-33.87 1040.88,-41.29"/>
<polygon fill="#9a32cd" stroke="#9a32cd" points="250.17,-371.03 253.25,-381.16 257.17,-371.32 250.17,-371.03"/>
<text text-anchor="middle" x="658.5" y="-3.8" font-family="Helvetica,sans-Serif" font-size="10.00"> m_serialBuf</text>
</g>
<!-- Node8&#45;&gt;Node14 -->
<g id="edge25" class="edge">
<title>Node8&#45;&gt;Node14</title>
<path fill="none" stroke="#9a32cd" stroke-dasharray="5,2" d="M299.15,-390.8C339.28,-390.8 398.98,-390.8 451,-390.8 451,-390.8 451,-390.8 835,-390.8 906.38,-390.8 936.4,-364.04 995,-404.8 1010.34,-415.48 1001.45,-428.11 1013,-442.8 1020.54,-452.39 1031.25,-461.01 1039.97,-467.17"/>
<polygon fill="#9a32cd" stroke="#9a32cd" points="299.13,-387.3 289.13,-390.8 299.13,-394.3 299.13,-387.3"/>
<text text-anchor="middle" x="658.5" y="-393.8" font-family="Helvetica,sans-Serif" font-size="10.00"> m_serialBuf</text>
</g>
<!-- Node9 -->
<g id="node9" class="node">
<title>Node9</title>
<g id="a_node9"><a xlink:href="structByteStream_1_1RawBuffer.html" target="_top" xlink:title=" ">
<polygon fill="none" stroke="black" points="0,-381.3 0,-400.3 131,-400.3 131,-381.3 0,-381.3"/>
<text text-anchor="middle" x="65.5" y="-388.3" font-family="Helvetica,sans-Serif" font-size="10.00">ByteStream::RawBuffer</text>
</a>
</g>
</g>
<!-- Node9&#45;&gt;Node8 -->
<g id="edge12" class="edge">
<title>Node9&#45;&gt;Node8</title>
<path fill="none" stroke="#9a32cd" stroke-dasharray="5,2" d="M141.07,-390.8C166.57,-390.8 193.95,-390.8 215,-390.8"/>
<polygon fill="#9a32cd" stroke="#9a32cd" points="141.03,-387.3 131.03,-390.8 141.03,-394.3 141.03,-387.3"/>
<text text-anchor="middle" x="173" y="-393.8" font-family="Helvetica,sans-Serif" font-size="10.00"> m_pData</text>
</g>
<!-- Node10&#45;&gt;Node3 -->
<g id="edge14" class="edge">
<title>Node10&#45;&gt;Node3</title>
<path fill="none" stroke="#9a32cd" stroke-dasharray="5,2" d="M1261.94,-822.78C1206.51,-877.6 1024.34,-1041.1 907,-949.8 861.74,-914.58 840.35,-721.05 835.9,-675.44"/>
<polygon fill="#9a32cd" stroke="#9a32cd" points="1264.6,-825.08 1269.18,-815.53 1259.64,-820.14 1264.6,-825.08"/>
<text text-anchor="middle" x="1056" y="-976.8" font-family="Helvetica,sans-Serif" font-size="10.00"> m_buttons</text>
</g>
<!-- Node11&#45;&gt;Node10 -->
<g id="edge16" class="edge">
<title>Node11&#45;&gt;Node10</title>
<path fill="none" stroke="#9a32cd" stroke-dasharray="5,2" d="M1090.93,-762.01C1123.03,-764.65 1172.36,-770.11 1214,-780.8 1229.01,-784.66 1245.27,-790.98 1257.71,-796.3"/>
<polygon fill="#9a32cd" stroke="#9a32cd" points="1090.98,-758.51 1080.74,-761.22 1090.44,-765.48 1090.98,-758.51"/>
<text text-anchor="middle" x="1165.5" y="-783.8" font-family="Helvetica,sans-Serif" font-size="10.00"> m_buttons</text>
</g>
<!-- Node12&#45;&gt;Node3 -->
<g id="edge18" class="edge">
<title>Node12&#45;&gt;Node3</title>
<path fill="none" stroke="#9a32cd" stroke-dasharray="5,2" d="M1026.68,-925.87C994.32,-935.42 941.42,-944.8 907,-918.8 866.27,-888.05 841.78,-718.16 836.22,-675.51"/>
<polygon fill="#9a32cd" stroke="#9a32cd" points="1027.92,-929.15 1036.41,-922.82 1025.82,-922.48 1027.92,-929.15"/>
<text text-anchor="middle" x="951" y="-937.8" font-family="Helvetica,sans-Serif" font-size="10.00"> m_leds</text>
</g>
<!-- Node13&#45;&gt;Node3 -->
<g id="edge20" class="edge">
<title>Node13&#45;&gt;Node3</title>
<path fill="none" stroke="#9a32cd" stroke-dasharray="5,2" d="M1002.62,-869.14C971.99,-872.19 934.15,-870.47 907,-850.8 847.27,-807.54 837.09,-707.33 835.35,-675.62"/>
<polygon fill="#9a32cd" stroke="#9a32cd" points="1003.18,-872.6 1012.7,-867.94 1002.36,-865.64 1003.18,-872.6"/>
<text text-anchor="middle" x="951" y="-872.8" font-family="Helvetica,sans-Serif" font-size="10.00"> m_patternBuilder</text>
</g>
<!-- Node14&#45;&gt;Node3 -->
<g id="edge22" class="edge">
<title>Node14&#45;&gt;Node3</title>
<path fill="none" stroke="#9a32cd" stroke-dasharray="5,2" d="M1014.8,-471.74C982.32,-469.9 937.18,-472.74 907,-496.8 889.19,-511.01 897.65,-523.72 889,-544.8 871.8,-586.73 849.09,-635.78 839.54,-656.17"/>
<polygon fill="#9a32cd" stroke="#9a32cd" points="1014.64,-475.23 1024.87,-472.48 1015.16,-468.25 1014.64,-475.23"/>
<text text-anchor="middle" x="951" y="-499.8" font-family="Helvetica,sans-Serif" font-size="10.00"> m_vlSender</text>
</g>
<!-- Node15&#45;&gt;Node3 -->
<g id="edge26" class="edge">
<title>Node15&#45;&gt;Node3</title>
<path fill="none" stroke="#9a32cd" stroke-dasharray="5,2" d="M693.24,-635.55C698.15,-634.42 703.18,-633.44 708,-632.8 731.35,-629.73 737.99,-627.78 761,-632.8 781.55,-637.29 803.26,-648.2 817.39,-656.25"/>
<polygon fill="#9a32cd" stroke="#9a32cd" points="692.25,-632.19 683.42,-638.06 693.98,-638.98 692.25,-632.19"/>
<text text-anchor="middle" x="734.5" y="-635.8" font-family="Helvetica,sans-Serif" font-size="10.00"> m_modes</text>
</g>
<!-- Node16&#45;&gt;Node3 -->
<g id="edge29" class="edge">
<title>Node16&#45;&gt;Node3</title>
<path fill="none" stroke="#9a32cd" stroke-dasharray="5,2" d="M1028.18,-299.99C995.19,-285.17 939.56,-267.53 907,-297.8 886.85,-316.54 895.71,-518.12 889,-544.8 878.01,-588.53 852.19,-636.23 840.7,-656.19"/>
<polygon fill="#9a32cd" stroke="#9a32cd" points="1026.71,-303.17 1037.24,-304.26 1029.68,-296.83 1026.71,-303.17"/>
<text text-anchor="middle" x="951" y="-300.8" font-family="Helvetica,sans-Serif" font-size="10.00"> m_serial</text>
</g>
<!-- Node17&#45;&gt;Node3 -->
<g id="edge31" class="edge">
<title>Node17&#45;&gt;Node3</title>
<path fill="none" stroke="#9a32cd" stroke-dasharray="5,2" d="M1021.77,-615.23C991.27,-611.35 945.17,-608.65 907,-619.8 882.8,-626.88 858.99,-644.84 845.72,-656.11"/>
<polygon fill="#9a32cd" stroke="#9a32cd" points="1021.49,-618.72 1031.87,-616.63 1022.45,-611.79 1021.49,-618.72"/>
<text text-anchor="middle" x="951" y="-622.8" font-family="Helvetica,sans-Serif" font-size="10.00"> m_vortexLib</text>
</g>
<!-- Node19 -->
<g id="node19" class="node">
<title>Node19</title>
<g id="a_node19"><a xlink:href="classVortexCallbacks.html" target="_top" xlink:title=" ">
<polygon fill="none" stroke="black" points="1232,-624.3 1232,-643.3 1327,-643.3 1327,-624.3 1232,-624.3"/>
<text text-anchor="middle" x="1279.5" y="-631.3" font-family="Helvetica,sans-Serif" font-size="10.00">VortexCallbacks</text>
</a>
</g>
</g>
<!-- Node17&#45;&gt;Node19 -->
<g id="edge35" class="edge">
<title>Node17&#45;&gt;Node19</title>
<path fill="none" stroke="#9a32cd" stroke-dasharray="5,2" d="M1090.12,-616.08C1122.02,-612.34 1171.55,-608.68 1214,-614.8 1226.94,-616.67 1240.9,-620.54 1252.52,-624.3"/>
<polygon fill="#9a32cd" stroke="#9a32cd" points="1089.51,-612.63 1080.02,-617.34 1090.37,-619.58 1089.51,-612.63"/>
<text text-anchor="middle" x="1165.5" y="-617.8" font-family="Helvetica,sans-Serif" font-size="10.00"> m_vortex</text>
</g>
<!-- Node18 -->
<g id="node18" class="node">
<title>Node18</title>
<g id="a_node18"><a xlink:href="classRandom.html" target="_top" xlink:title=" ">
<polygon fill="none" stroke="black" points="805.5,-516.3 805.5,-535.3 862.5,-535.3 862.5,-516.3 805.5,-516.3"/>
<text text-anchor="middle" x="834" y="-523.3" font-family="Helvetica,sans-Serif" font-size="10.00">Random</text>
</a>
</g>
</g>
<!-- Node18&#45;&gt;Node17 -->
<g id="edge32" class="edge">
<title>Node18&#45;&gt;Node17</title>
<path fill="none" stroke="#9a32cd" stroke-dasharray="5,2" d="M872.78,-516.37C906.92,-509.99 957.42,-506.06 995,-526.8 1028.39,-545.24 1045.92,-590.97 1052.23,-611.06"/>
<polygon fill="#9a32cd" stroke="#9a32cd" points="871.85,-512.99 862.75,-518.4 873.24,-519.85 871.85,-512.99"/>
<text text-anchor="middle" x="951" y="-529.8" font-family="Helvetica,sans-Serif" font-size="10.00"> m_randCtx</text>
</g>
<!-- Node19&#45;&gt;Node17 -->
<g id="edge34" class="edge">
<title>Node19&#45;&gt;Node17</title>
<path fill="none" stroke="#9a32cd" stroke-dasharray="5,2" d="M1221.62,-632.79C1190.65,-631.96 1151.68,-630.47 1117,-627.8 1104.77,-626.86 1091.18,-625.32 1080.04,-623.92"/>
<polygon fill="#9a32cd" stroke="#9a32cd" points="1221.72,-636.29 1231.8,-633.04 1221.89,-629.29 1221.72,-636.29"/>
<text text-anchor="middle" x="1165.5" y="-634.8" font-family="Helvetica,sans-Serif" font-size="10.00"> m_storedCallbacks</text>
</g>
<!-- Node20&#45;&gt;Node3 -->
<g id="edge36" class="edge">
<title>Node20&#45;&gt;Node3</title>
<path fill="none" stroke="#9a32cd" stroke-dasharray="5,2" d="M1011.4,-205.3C970.27,-210.92 913.92,-219.92 907,-227.8 883.73,-254.32 897.33,-510.52 889,-544.8 878.36,-588.62 852.36,-636.27 840.75,-656.2"/>
<polygon fill="#9a32cd" stroke="#9a32cd" points="1012.04,-208.75 1021.48,-203.95 1011.11,-201.81 1012.04,-208.75"/>
<text text-anchor="middle" x="951" y="-230.8" font-family="Helvetica,sans-Serif" font-size="10.00"> m_irReceiver</text>
</g>
<!-- Node21&#45;&gt;Node3 -->
<g id="edge39" class="edge">
<title>Node21&#45;&gt;Node3</title>
<path fill="none" stroke="#9a32cd" stroke-dasharray="5,2" d="M1024.94,-714.82C994.86,-709.57 947.38,-700.58 907,-689.8 891.6,-685.69 874.67,-680.11 861.1,-675.36"/>
<polygon fill="#9a32cd" stroke="#9a32cd" points="1024.74,-718.34 1035.19,-716.58 1025.93,-711.44 1024.74,-718.34"/>
<text text-anchor="middle" x="951" y="-711.8" font-family="Helvetica,sans-Serif" font-size="10.00"> m_time</text>
</g>
<!-- Node22&#45;&gt;Node3 -->
<g id="edge41" class="edge">
<title>Node22&#45;&gt;Node3</title>
<path fill="none" stroke="#9a32cd" stroke-dasharray="5,2" d="M1616.97,-563.1C1605.76,-479.92 1557.24,-161.8 1471,-161.8 1055,-161.8 1055,-161.8 1055,-161.8 988.93,-161.8 952.64,-128.03 907,-175.8 878.64,-205.48 898.53,-504.88 889,-544.8 878.53,-588.66 852.44,-636.29 840.78,-656.21"/>
<polygon fill="#9a32cd" stroke="#9a32cd" points="1613.53,-563.76 1618.31,-573.22 1620.47,-562.85 1613.53,-563.76"/>
<text text-anchor="middle" x="1279.5" y="-164.8" font-family="Helvetica,sans-Serif" font-size="10.00"> m_menus</text>
</g>
<!-- Node23&#45;&gt;Node22 -->
<g id="edge43" class="edge">
<title>Node23&#45;&gt;Node22</title>
<path fill="none" stroke="#9a32cd" stroke-dasharray="5,2" d="M1479.11,-910.85C1506.51,-846.83 1595.02,-640.01 1615.32,-592.56"/>
<polygon fill="#9a32cd" stroke="#9a32cd" points="1475.84,-909.59 1475.13,-920.16 1482.28,-912.34 1475.84,-909.59"/>
<text text-anchor="middle" x="1544" y="-838.8" font-family="Helvetica,sans-Serif" font-size="10.00"> m_pCurMenu</text>
</g>
<!-- Node24 -->
<g id="node24" class="node">
<title>Node24</title>
<g id="a_node24"><a xlink:href="classRGBColor.html" target="_top" xlink:title=" ">
<polygon fill="none" stroke="black" points="627,-1114.3 627,-1133.3 690,-1133.3 690,-1114.3 627,-1114.3"/>
<text text-anchor="middle" x="658.5" y="-1121.3" font-family="Helvetica,sans-Serif" font-size="10.00">RGBColor</text>
</a>
</g>
</g>
<!-- Node24&#45;&gt;Node23 -->
<g id="edge45" class="edge">
<title>Node24&#45;&gt;Node23</title>
<path fill="none" stroke="#9a32cd" stroke-dasharray="5,2" d="M700.55,-1124.03C779.11,-1123.57 955.66,-1118.27 1099,-1082.8 1240.7,-1047.74 1398.9,-967.25 1451.18,-939.45"/>
<polygon fill="#9a32cd" stroke="#9a32cd" points="700.11,-1120.53 690.13,-1124.06 700.14,-1127.53 700.11,-1120.53"/>
<text text-anchor="middle" x="1056" y="-1101.8" font-family="Helvetica,sans-Serif" font-size="10.00"> m_menuColor</text>
</g>
<!-- Node26 -->
<g id="node26" class="node">
<title>Node26</title>
<g id="a_node26"><a xlink:href="classColorset.html" target="_top" xlink:title=" ">
<polygon fill="none" stroke="black" points="805.5,-1138.3 805.5,-1157.3 862.5,-1157.3 862.5,-1138.3 805.5,-1138.3"/>
<text text-anchor="middle" x="834" y="-1145.3" font-family="Helvetica,sans-Serif" font-size="10.00">Colorset</text>
</a>
</g>
</g>
<!-- Node24&#45;&gt;Node26 -->
<g id="edge50" class="edge">
<title>Node24&#45;&gt;Node26</title>
<path fill="none" stroke="#9a32cd" stroke-dasharray="5,2" d="M700.16,-1129.43C732.5,-1133.9 776.89,-1140.04 805.26,-1143.97"/>
<polygon fill="#9a32cd" stroke="#9a32cd" points="700.5,-1125.94 690.12,-1128.04 699.55,-1132.88 700.5,-1125.94"/>
<text text-anchor="middle" x="734.5" y="-1139.8" font-family="Helvetica,sans-Serif" font-size="10.00"> m_palette</text>
</g>
<!-- Node25&#45;&gt;Node2 -->
<g id="edge47" class="edge">
<title>Node25&#45;&gt;Node2</title>
<path fill="none" stroke="#9a32cd" stroke-dasharray="5,2" d="M1091.46,-1137.11C1137.91,-1128.1 1219.18,-1112.32 1257.45,-1104.89"/>
<polygon fill="#9a32cd" stroke="#9a32cd" points="1090.7,-1133.7 1081.55,-1139.04 1092.03,-1140.57 1090.7,-1133.7"/>
<text text-anchor="middle" x="1165.5" y="-1133.8" font-family="Helvetica,sans-Serif" font-size="10.00"> m_multiPat</text>
</g>
<!-- Node26&#45;&gt;Node25 -->
<g id="edge49" class="edge">
<title>Node26&#45;&gt;Node25</title>
<path fill="none" stroke="#9a32cd" stroke-dasharray="5,2" d="M873.15,-1149.62C905.58,-1150.84 953.37,-1151.88 995,-1149.8 1006.61,-1149.22 1019.43,-1148.02 1030.23,-1146.84"/>
<polygon fill="#9a32cd" stroke="#9a32cd" points="872.9,-1146.1 862.77,-1149.2 872.62,-1153.1 872.9,-1146.1"/>
<text text-anchor="middle" x="951" y="-1153.8" font-family="Helvetica,sans-Serif" font-size="10.00"> m_colorset</text>
</g>
</g>
</svg>
        <g id="navigator" transform="translate(0 0)" fill="#404254">
                <rect fill="#f2f5e9" fill-opacity="0.5" stroke="#606060" stroke-width=".5" x="0" y="0" width="60" height="60"/>
                <use id="zoomplus" xlink:href="#zoomPlus" x="17" y="9" onmousedown="handleZoom(evt,'in')"/>
                <use id="zoomminus" xlink:href="#zoomMin" x="42" y="9" onmousedown="handleZoom(evt,'out')"/>
                <use id="reset" xlink:href="#resetDef" x="30" y="36" onmousedown="handleReset()"/>
                <g id="arrowUp" xlink:href="#dirArrow" transform="translate(30 24)" onmousedown="handlePan(0,-1)">
                  <use xlink:href="#rim" fill="#404040">
                        <set attributeName="fill" to="#808080" begin="arrowUp.mouseover" end="arrowUp.mouseout"/>
                  </use>
                  <path fill="none" stroke="white" stroke-width="1.5" d="M0,-3.0v7 M-2.5,-0.5L0,-3.0L2.5,-0.5"/>
                </g>
                <g id="arrowRight" xlink:href="#dirArrow" transform="rotate(90) translate(36 -43)" onmousedown="handlePan(1,0)">
                  <use xlink:href="#rim" fill="#404040">
                        <set attributeName="fill" to="#808080" begin="arrowRight.mouseover" end="arrowRight.mouseout"/>
                  </use>
                  <path fill="none" stroke="white" stroke-width="1.5" d="M0,-3.0v7 M-2.5,-0.5L0,-3.0L2.5,-0.5"/>
                </g>
                <g id="arrowDown" xlink:href="#dirArrow" transform="rotate(180) translate(-30 -48)" onmousedown="handlePan(0,1)">
                  <use xlink:href="#rim" fill="#404040">
                        <set attributeName="fill" to="#808080" begin="arrowDown.mouseover" end="arrowDown.mouseout"/>
                  </use>
                  <path fill="none" stroke="white" stroke-width="1.5" d="M0,-3.0v7 M-2.5,-0.5L0,-3.0L2.5,-0.5"/>
                </g>
                <g id="arrowLeft" xlink:href="#dirArrow" transform="rotate(270) translate(-36 17)" onmousedown="handlePan(-1,0)">
                  <use xlink:href="#rim" fill="#404040">
                        <set attributeName="fill" to="#808080" begin="arrowLeft.mouseover" end="arrowLeft.mouseout"/>
                  </use>
                  <path fill="none" stroke="white" stroke-width="1.5" d="M0,-3.0v7 M-2.5,-0.5L0,-3.0L2.5,-0.5"/>
                </g>
        </g>
        <svg viewBox="0 0 15 15" width="100%" height="30px" preserveAspectRatio="xMaxYMin meet">
         <g id="arrow_out" transform="scale(0.3 0.3)">
          <a xlink:href="classModes_1_1ModeLink__coll__graph_org.svg" target="_base">
           <rect id="button" ry="5" rx="5" y="6" x="6" height="38" width="38"
                fill="#f2f5e9" fill-opacity="0.5" stroke="#606060" stroke-width="1.0"/>
           <path id="arrow"
             d="M 11.500037,31.436501 C 11.940474,20.09759 22.043105,11.32322 32.158766,21.979434 L 37.068811,17.246167 C 37.068811,17.246167 37.088388,32 37.088388,32 L 22.160133,31.978069 C 22.160133,31.978069 26.997745,27.140456 26.997745,27.140456 C 18.528582,18.264221 13.291696,25.230495 11.500037,31.436501 z"
             style="fill:#404040;"/>
          </a>
         </g>
        </svg>
</svg>
