<?xml version="1.0" encoding="UTF-8" standalone="no"?>
<!DOCTYPE svg PUBLIC "-//W3C//DTD SVG 1.1//EN"
 "http://www.w3.org/Graphics/SVG/1.1/DTD/svg11.dtd">
<!-- Generated by graphviz version 2.43.0 (0)
 -->
<!-- Title: PatternMap Pages: 1 -->
<svg width="1168pt" height="1345pt"
 viewBox="0.00 0.00 1168.00 1345.00" xmlns="http://www.w3.org/2000/svg" xmlns:xlink="http://www.w3.org/1999/xlink">
<g id="graph0" class="graph" transform="scale(1 1) rotate(0) translate(4 1341)">
<title>PatternMap</title>
<!-- Node1 -->
<g id="node1" class="node">
<title>Node1</title>
<g id="a_node1"><a xlink:title=" ">
<polygon fill="#bfbfbf" stroke="black" points="432,-699.5 432,-718.5 504,-718.5 504,-699.5 432,-699.5"/>
<text text-anchor="middle" x="468" y="-706.5" font-family="Helvetica,sans-Serif" font-size="10.00">PatternMap</text>
</a>
</g>
</g>
<!-- Node2 -->
<g id="node2" class="node">
<title>Node2</title>
<g id="a_node2"><a xlink:href="classVortexEngine.html" target="_top" xlink:title=" ">
<polygon fill="none" stroke="black" points="220,-555.5 220,-574.5 301,-574.5 301,-555.5 220,-555.5"/>
<text text-anchor="middle" x="260.5" y="-562.5" font-family="Helvetica,sans-Serif" font-size="10.00">VortexEngine</text>
</a>
</g>
</g>
<!-- Node2&#45;&gt;Node1 -->
<g id="edge1" class="edge">
<title>Node2&#45;&gt;Node1</title>
<path fill="none" stroke="#9a32cd" stroke-dasharray="5,2" d="M265.12,-584.39C271.23,-611.3 286.26,-659.42 319,-684 336.35,-697.03 393.74,-703.68 431.74,-706.75"/>
<polygon fill="#9a32cd" stroke="#9a32cd" points="268.55,-583.67 263.08,-574.59 261.69,-585.1 268.55,-583.67"/>
<text text-anchor="middle" x="363" y="-707" font-family="Helvetica,sans-Serif" font-size="10.00"> m_engine</text>
</g>
<!-- Node2&#45;&gt;Node2 -->
<g id="edge12" class="edge">
<title>Node2&#45;&gt;Node2</title>
<path fill="none" stroke="#9a32cd" stroke-dasharray="5,2" d="M245.03,-584.77C246.25,-589.5 251.4,-593 260.5,-593 275.43,-593 279.75,-583.57 273.45,-574.76"/>
<polygon fill="#9a32cd" stroke="#9a32cd" points="248.5,-585.31 247.55,-574.76 241.72,-583.6 248.5,-585.31"/>
<text text-anchor="middle" x="260.5" y="-596" font-family="Helvetica,sans-Serif" font-size="10.00"> m_engine</text>
</g>
<!-- Node3 -->
<g id="node3" class="node">
<title>Node3</title>
<g id="a_node3"><a xlink:href="classVLReceiver.html" target="_top" xlink:title=" ">
<polygon fill="none" stroke="black" points="432.5,-552.5 432.5,-571.5 503.5,-571.5 503.5,-552.5 432.5,-552.5"/>
<text text-anchor="middle" x="468" y="-559.5" font-family="Helvetica,sans-Serif" font-size="10.00">VLReceiver</text>
</a>
</g>
</g>
<!-- Node2&#45;&gt;Node3 -->
<g id="edge3" class="edge">
<title>Node2&#45;&gt;Node3</title>
<path fill="none" stroke="#9a32cd" stroke-dasharray="5,2" d="M311.32,-564.27C348.76,-563.73 399.12,-562.99 432.29,-562.51"/>
<polygon fill="#9a32cd" stroke="#9a32cd" points="311.07,-560.78 301.12,-564.42 311.17,-567.78 311.07,-560.78"/>
<text text-anchor="middle" x="363" y="-567" font-family="Helvetica,sans-Serif" font-size="10.00"> m_engine</text>
</g>
<!-- Node5 -->
<g id="node5" class="node">
<title>Node5</title>
<g id="a_node5"><a xlink:href="classStorage.html" target="_top" xlink:title=" ">
<polygon fill="none" stroke="black" points="441,-752.5 441,-771.5 495,-771.5 495,-752.5 441,-752.5"/>
<text text-anchor="middle" x="468" y="-759.5" font-family="Helvetica,sans-Serif" font-size="10.00">Storage</text>
</a>
</g>
</g>
<!-- Node2&#45;&gt;Node5 -->
<g id="edge6" class="edge">
<title>Node2&#45;&gt;Node5</title>
<path fill="none" stroke="#9a32cd" stroke-dasharray="5,2" d="M260.71,-584.77C260.34,-624.45 265.81,-713.54 319,-755 353.9,-782.2 408.71,-776.01 440.92,-769.02"/>
<polygon fill="#9a32cd" stroke="#9a32cd" points="264.22,-584.63 260.96,-574.55 257.22,-584.47 264.22,-584.63"/>
<text text-anchor="middle" x="363" y="-778" font-family="Helvetica,sans-Serif" font-size="10.00"> m_engine</text>
</g>
<!-- Node6 -->
<g id="node6" class="node">
<title>Node6</title>
<g id="a_node6"><a xlink:href="classIRSender.html" target="_top" xlink:title=" ">
<polygon fill="none" stroke="black" points="438,-981.5 438,-1000.5 498,-1000.5 498,-981.5 438,-981.5"/>
<text text-anchor="middle" x="468" y="-988.5" font-family="Helvetica,sans-Serif" font-size="10.00">IRSender</text>
</a>
</g>
</g>
<!-- Node2&#45;&gt;Node6 -->
<g id="edge8" class="edge">
<title>Node2&#45;&gt;Node6</title>
<path fill="none" stroke="#9a32cd" stroke-dasharray="5,2" d="M262.24,-585.1C265.02,-649.06 276.89,-846.3 319,-891 346.57,-920.27 375.36,-887.19 407,-912 420.76,-922.79 414.86,-932.75 425,-947 434.19,-959.91 447.03,-972.79 456.09,-981.25"/>
<polygon fill="#9a32cd" stroke="#9a32cd" points="265.73,-584.63 261.82,-574.77 258.73,-584.91 265.73,-584.63"/>
<text text-anchor="middle" x="363" y="-915" font-family="Helvetica,sans-Serif" font-size="10.00"> m_engine</text>
</g>
<!-- Node9 -->
<g id="node9" class="node">
<title>Node9</title>
<g id="a_node9"><a xlink:href="classButtons.html" target="_top" xlink:title=" ">
<polygon fill="none" stroke="black" points="664.5,-513.5 664.5,-532.5 718.5,-532.5 718.5,-513.5 664.5,-513.5"/>
<text text-anchor="middle" x="691.5" y="-520.5" font-family="Helvetica,sans-Serif" font-size="10.00">Buttons</text>
</a>
</g>
</g>
<!-- Node2&#45;&gt;Node9 -->
<g id="edge14" class="edge">
<title>Node2&#45;&gt;Node9</title>
<path fill="none" stroke="#9a32cd" stroke-dasharray="5,2" d="M305.28,-576.71C309.89,-577.63 314.52,-578.42 319,-579 403.63,-589.97 426.7,-594.28 511,-581 569.72,-571.75 635.4,-546.46 668.66,-532.53"/>
<polygon fill="#9a32cd" stroke="#9a32cd" points="305.84,-573.25 295.32,-574.54 304.35,-580.09 305.84,-573.25"/>
<text text-anchor="middle" x="468" y="-592" font-family="Helvetica,sans-Serif" font-size="10.00"> m_engine</text>
</g>
<!-- Node10 -->
<g id="node10" class="node">
<title>Node10</title>
<g id="a_node10"><a xlink:href="classButton.html" target="_top" xlink:title=" ">
<polygon fill="none" stroke="black" points="443.5,-467.5 443.5,-486.5 492.5,-486.5 492.5,-467.5 443.5,-467.5"/>
<text text-anchor="middle" x="468" y="-474.5" font-family="Helvetica,sans-Serif" font-size="10.00">Button</text>
</a>
</g>
</g>
<!-- Node2&#45;&gt;Node10 -->
<g id="edge16" class="edge">
<title>Node2&#45;&gt;Node10</title>
<path fill="none" stroke="#9a32cd" stroke-dasharray="5,2" d="M270.21,-546.17C279.55,-528.36 296.17,-502.54 319,-490 358.34,-468.4 412.57,-470.16 443.28,-473.5"/>
<polygon fill="#9a32cd" stroke="#9a32cd" points="266.97,-544.83 265.67,-555.34 273.24,-547.94 266.97,-544.83"/>
<text text-anchor="middle" x="363" y="-493" font-family="Helvetica,sans-Serif" font-size="10.00"> m_engine</text>
</g>
<!-- Node11 -->
<g id="node11" class="node">
<title>Node11</title>
<g id="a_node11"><a xlink:href="classLeds.html" target="_top" xlink:title=" ">
<polygon fill="none" stroke="black" points="448.5,-649.5 448.5,-668.5 487.5,-668.5 487.5,-649.5 448.5,-649.5"/>
<text text-anchor="middle" x="468" y="-656.5" font-family="Helvetica,sans-Serif" font-size="10.00">Leds</text>
</a>
</g>
</g>
<!-- Node2&#45;&gt;Node11 -->
<g id="edge18" class="edge">
<title>Node2&#45;&gt;Node11</title>
<path fill="none" stroke="#9a32cd" stroke-dasharray="5,2" d="M275.51,-582.26C286.2,-594.31 301.96,-609.82 319,-619 354.4,-638.07 368.25,-629.26 407,-640 421,-643.88 436.65,-648.86 448.46,-652.75"/>
<polygon fill="#9a32cd" stroke="#9a32cd" points="278.12,-579.93 268.96,-574.59 272.79,-584.47 278.12,-579.93"/>
<text text-anchor="middle" x="363" y="-643" font-family="Helvetica,sans-Serif" font-size="10.00"> m_engine</text>
</g>
<!-- Node12 -->
<g id="node12" class="node">
<title>Node12</title>
<g id="a_node12"><a xlink:href="classPatternBuilder.html" target="_top" xlink:title=" ">
<polygon fill="none" stroke="black" points="425,-389.5 425,-408.5 511,-408.5 511,-389.5 425,-389.5"/>
<text text-anchor="middle" x="468" y="-396.5" font-family="Helvetica,sans-Serif" font-size="10.00">PatternBuilder</text>
</a>
</g>
</g>
<!-- Node2&#45;&gt;Node12 -->
<g id="edge20" class="edge">
<title>Node2&#45;&gt;Node12</title>
<path fill="none" stroke="#9a32cd" stroke-dasharray="5,2" d="M264.17,-545.55C269.28,-516.07 283.31,-460.41 319,-431 327.19,-424.25 383.95,-413.28 424.74,-406.1"/>
<polygon fill="#9a32cd" stroke="#9a32cd" points="260.7,-545.04 262.62,-555.46 267.62,-546.12 260.7,-545.04"/>
<text text-anchor="middle" x="363" y="-434" font-family="Helvetica,sans-Serif" font-size="10.00"> m_engine</text>
</g>
<!-- Node13 -->
<g id="node13" class="node">
<title>Node13</title>
<g id="a_node13"><a xlink:href="classVLSender.html" target="_top" xlink:title=" ">
<polygon fill="none" stroke="black" points="437,-918.5 437,-937.5 499,-937.5 499,-918.5 437,-918.5"/>
<text text-anchor="middle" x="468" y="-925.5" font-family="Helvetica,sans-Serif" font-size="10.00">VLSender</text>
</a>
</g>
</g>
<!-- Node2&#45;&gt;Node13 -->
<g id="edge22" class="edge">
<title>Node2&#45;&gt;Node13</title>
<path fill="none" stroke="#9a32cd" stroke-dasharray="5,2" d="M262.72,-584.87C266.75,-644.01 281.58,-817.22 319,-857 346.7,-886.45 370.87,-861.87 407,-880 427.03,-890.05 446.61,-907.58 457.71,-918.45"/>
<polygon fill="#9a32cd" stroke="#9a32cd" points="266.2,-584.39 262.05,-574.64 259.21,-584.85 266.2,-584.39"/>
<text text-anchor="middle" x="363" y="-883" font-family="Helvetica,sans-Serif" font-size="10.00"> m_engine</text>
</g>
<!-- Node14 -->
<g id="node14" class="node">
<title>Node14</title>
<g id="a_node14"><a xlink:href="classModes.html" target="_top" xlink:title=" ">
<polygon fill="none" stroke="black" points="1111,-429.5 1111,-448.5 1160,-448.5 1160,-429.5 1111,-429.5"/>
<text text-anchor="middle" x="1135.5" y="-436.5" font-family="Helvetica,sans-Serif" font-size="10.00">Modes</text>
</a>
</g>
</g>
<!-- Node2&#45;&gt;Node14 -->
<g id="edge26" class="edge">
<title>Node2&#45;&gt;Node14</title>
<path fill="none" stroke="#9a32cd" stroke-dasharray="5,2" d="M263.56,-584.86C269.73,-644.49 288.34,-827.23 301,-979 303.33,-1006.97 299.38,-1210.92 319,-1231 365.18,-1278.25 400.93,-1245 467,-1245 467,-1245 467,-1245 937,-1245 1109.52,-1245 1132.1,-539.55 1134.29,-448.61"/>
<polygon fill="#9a32cd" stroke="#9a32cd" points="267.02,-584.21 262.5,-574.62 260.05,-584.93 267.02,-584.21"/>
<text text-anchor="middle" x="691.5" y="-1248" font-family="Helvetica,sans-Serif" font-size="10.00"> m_engine</text>
</g>
<!-- Node15 -->
<g id="node15" class="node">
<title>Node15</title>
<g id="a_node15"><a xlink:href="classModes_1_1ModeLink.html" target="_top" xlink:title=" ">
<polygon fill="none" stroke="black" points="885,-429.5 885,-448.5 987,-448.5 987,-429.5 885,-429.5"/>
<text text-anchor="middle" x="936" y="-436.5" font-family="Helvetica,sans-Serif" font-size="10.00">Modes::ModeLink</text>
</a>
</g>
</g>
<!-- Node2&#45;&gt;Node15 -->
<g id="edge34" class="edge">
<title>Node2&#45;&gt;Node15</title>
<path fill="none" stroke="#9a32cd" stroke-dasharray="5,2" d="M267.36,-545.75C275.24,-523.47 291.51,-487.6 319,-470 366.06,-439.86 745.97,-438.26 884.6,-438.7"/>
<polygon fill="#9a32cd" stroke="#9a32cd" points="263.97,-544.86 264.16,-555.45 270.62,-547.05 263.97,-544.86"/>
<text text-anchor="middle" x="577.5" y="-447" font-family="Helvetica,sans-Serif" font-size="10.00"> m_engine</text>
</g>
<!-- Node16 -->
<g id="node16" class="node">
<title>Node16</title>
<g id="a_node16"><a xlink:href="classMode.html" target="_top" xlink:title=" ">
<polygon fill="none" stroke="black" points="669.5,-244.5 669.5,-263.5 713.5,-263.5 713.5,-244.5 669.5,-244.5"/>
<text text-anchor="middle" x="691.5" y="-251.5" font-family="Helvetica,sans-Serif" font-size="10.00">Mode</text>
</a>
</g>
</g>
<!-- Node2&#45;&gt;Node16 -->
<g id="edge29" class="edge">
<title>Node2&#45;&gt;Node16</title>
<path fill="none" stroke="#9a32cd" stroke-dasharray="5,2" d="M262.56,-545.18C266.12,-487.04 279.68,-318.82 319,-284 332.2,-272.31 592.32,-258.77 669.25,-255.01"/>
<polygon fill="#9a32cd" stroke="#9a32cd" points="259.06,-545.09 261.98,-555.27 266.05,-545.49 259.06,-545.09"/>
<text text-anchor="middle" x="468" y="-273" font-family="Helvetica,sans-Serif" font-size="10.00"> m_engine</text>
</g>
<!-- Node17 -->
<g id="node17" class="node">
<title>Node17</title>
<g id="a_node17"><a xlink:href="classPattern.html" target="_top" xlink:title=" ">
<polygon fill="none" stroke="black" points="442.5,-214.5 442.5,-233.5 493.5,-233.5 493.5,-214.5 442.5,-214.5"/>
<text text-anchor="middle" x="468" y="-221.5" font-family="Helvetica,sans-Serif" font-size="10.00">Pattern</text>
</a>
</g>
</g>
<!-- Node2&#45;&gt;Node17 -->
<g id="edge31" class="edge">
<title>Node2&#45;&gt;Node17</title>
<path fill="none" stroke="#9a32cd" stroke-dasharray="5,2" d="M262.13,-545.1C264.58,-481.82 275.58,-286.85 319,-245 336.14,-228.48 404.75,-224.85 442.24,-224.12"/>
<polygon fill="#9a32cd" stroke="#9a32cd" points="258.63,-545.2 261.77,-555.32 265.62,-545.45 258.63,-545.2"/>
<text text-anchor="middle" x="363" y="-248" font-family="Helvetica,sans-Serif" font-size="10.00"> m_engine</text>
</g>
<!-- Node20 -->
<g id="node20" class="node">
<title>Node20</title>
<g id="a_node20"><a xlink:href="classSerialComs.html" target="_top" xlink:title=" ">
<polygon fill="none" stroke="black" points="432,-344.5 432,-363.5 504,-363.5 504,-344.5 432,-344.5"/>
<text text-anchor="middle" x="468" y="-351.5" font-family="Helvetica,sans-Serif" font-size="10.00">SerialComs</text>
</a>
</g>
</g>
<!-- Node2&#45;&gt;Node20 -->
<g id="edge38" class="edge">
<title>Node2&#45;&gt;Node20</title>
<path fill="none" stroke="#9a32cd" stroke-dasharray="5,2" d="M263.24,-545.14C268.24,-493.13 284.58,-355.07 319,-328 358.58,-296.88 422.6,-327.46 451.71,-344.4"/>
<polygon fill="#9a32cd" stroke="#9a32cd" points="259.73,-545.1 262.29,-555.38 266.7,-545.75 259.73,-545.1"/>
<text text-anchor="middle" x="363" y="-331" font-family="Helvetica,sans-Serif" font-size="10.00"> m_engine</text>
</g>
<!-- Node21 -->
<g id="node21" class="node">
<title>Node21</title>
<g id="a_node21"><a xlink:href="classVortex.html" target="_top" xlink:title=" ">
<polygon fill="none" stroke="black" points="444,-112.5 444,-131.5 492,-131.5 492,-112.5 444,-112.5"/>
<text text-anchor="middle" x="468" y="-119.5" font-family="Helvetica,sans-Serif" font-size="10.00">Vortex</text>
</a>
</g>
</g>
<!-- Node2&#45;&gt;Node21 -->
<g id="edge41" class="edge">
<title>Node2&#45;&gt;Node21</title>
<path fill="none" stroke="#9a32cd" stroke-dasharray="5,2" d="M261.73,-545.41C262.94,-475.53 270.6,-239.77 319,-186 346.04,-155.95 370.21,-179.76 407,-163 425.14,-154.73 443.74,-141.05 455.33,-131.79"/>
<polygon fill="#9a32cd" stroke="#9a32cd" points="258.23,-545.43 261.58,-555.48 265.23,-545.53 258.23,-545.43"/>
<text text-anchor="middle" x="363" y="-189" font-family="Helvetica,sans-Serif" font-size="10.00"> m_engine</text>
</g>
<!-- Node24 -->
<g id="node24" class="node">
<title>Node24</title>
<g id="a_node24"><a xlink:href="classIRReceiver.html" target="_top" xlink:title=" ">
<polygon fill="none" stroke="black" points="433.5,-1073.5 433.5,-1092.5 502.5,-1092.5 502.5,-1073.5 433.5,-1073.5"/>
<text text-anchor="middle" x="468" y="-1080.5" font-family="Helvetica,sans-Serif" font-size="10.00">IRReceiver</text>
</a>
</g>
</g>
<!-- Node2&#45;&gt;Node24 -->
<g id="edge45" class="edge">
<title>Node2&#45;&gt;Node24</title>
<path fill="none" stroke="#9a32cd" stroke-dasharray="5,2" d="M263.11,-584.7C270.57,-674.75 302.07,-1043.51 319,-1061 334.36,-1076.86 394.58,-1081.36 433.32,-1082.59"/>
<polygon fill="#9a32cd" stroke="#9a32cd" points="266.58,-584.2 262.27,-574.52 259.61,-584.78 266.58,-584.2"/>
<text text-anchor="middle" x="363" y="-1084" font-family="Helvetica,sans-Serif" font-size="10.00"> m_engine</text>
</g>
<!-- Node25 -->
<g id="node25" class="node">
<title>Node25</title>
<g id="a_node25"><a xlink:href="classTime.html" target="_top" xlink:title=" ">
<polygon fill="none" stroke="black" points="447.5,-1158.5 447.5,-1177.5 488.5,-1177.5 488.5,-1158.5 447.5,-1158.5"/>
<text text-anchor="middle" x="468" y="-1165.5" font-family="Helvetica,sans-Serif" font-size="10.00">Time</text>
</a>
</g>
</g>
<!-- Node2&#45;&gt;Node25 -->
<g id="edge48" class="edge">
<title>Node2&#45;&gt;Node25</title>
<path fill="none" stroke="#9a32cd" stroke-dasharray="5,2" d="M263.39,-584.94C273.26,-688.71 318.32,-1162.36 319,-1163 336.99,-1179.9 411.24,-1174.26 447.25,-1170.39"/>
<polygon fill="#9a32cd" stroke="#9a32cd" points="266.87,-584.49 262.44,-574.87 259.9,-585.16 266.87,-584.49"/>
<text text-anchor="middle" x="363" y="-1177" font-family="Helvetica,sans-Serif" font-size="10.00"> m_engine</text>
</g>
<!-- Node26 -->
<g id="node26" class="node">
<title>Node26</title>
<g id="a_node26"><a xlink:href="classMenus.html" target="_top" xlink:title=" ">
<polygon fill="none" stroke="black" points="1111,-75.5 1111,-94.5 1160,-94.5 1160,-75.5 1111,-75.5"/>
<text text-anchor="middle" x="1135.5" y="-82.5" font-family="Helvetica,sans-Serif" font-size="10.00">Menus</text>
</a>
</g>
</g>
<!-- Node2&#45;&gt;Node26 -->
<g id="edge50" class="edge">
<title>Node2&#45;&gt;Node26</title>
<path fill="none" stroke="#9a32cd" stroke-dasharray="5,2" d="M263.13,-544.96C270.56,-455.04 301.5,-92.35 319,-76 373.24,-25.32 912.98,-60.35 987,-66 1030.89,-69.35 1081.75,-76.66 1110.82,-81.18"/>
<polygon fill="#9a32cd" stroke="#9a32cd" points="259.63,-544.91 262.3,-555.16 266.6,-545.48 259.63,-544.91"/>
<text text-anchor="middle" x="691.5" y="-56" font-family="Helvetica,sans-Serif" font-size="10.00"> m_engine</text>
</g>
<!-- Node27 -->
<g id="node27" class="node">
<title>Node27</title>
<g id="a_node27"><a xlink:href="classMenu.html" target="_top" xlink:title=" ">
<polygon fill="none" stroke="black" points="914,-75.5 914,-94.5 958,-94.5 958,-75.5 914,-75.5"/>
<text text-anchor="middle" x="936" y="-82.5" font-family="Helvetica,sans-Serif" font-size="10.00">Menu</text>
</a>
</g>
</g>
<!-- Node2&#45;&gt;Node27 -->
<g id="edge54" class="edge">
<title>Node2&#45;&gt;Node27</title>
<path fill="none" stroke="#9a32cd" stroke-dasharray="5,2" d="M263.23,-545.03C270.88,-457.73 302.07,-113.3 319,-98 363.9,-57.44 810.58,-78.42 913.8,-83.84"/>
<polygon fill="#9a32cd" stroke="#9a32cd" points="259.73,-544.92 262.34,-555.18 266.7,-545.52 259.73,-544.92"/>
<text text-anchor="middle" x="577.5" y="-77" font-family="Helvetica,sans-Serif" font-size="10.00"> m_engine</text>
</g>
<!-- Node3&#45;&gt;Node2 -->
<g id="edge2" class="edge">
<title>Node3&#45;&gt;Node2</title>
<path fill="none" stroke="#9a32cd" stroke-dasharray="5,2" d="M422.46,-551.25C417.27,-550.33 412.04,-549.54 407,-549 368.11,-544.84 357.75,-543.71 319,-549 309.35,-550.32 299.03,-552.82 289.84,-555.47"/>
<polygon fill="#9a32cd" stroke="#9a32cd" points="421.82,-554.69 432.31,-553.17 423.16,-547.82 421.82,-554.69"/>
<text text-anchor="middle" x="363" y="-552" font-family="Helvetica,sans-Serif" font-size="10.00"> m_vlReceiver</text>
</g>
<!-- Node4 -->
<g id="node4" class="node">
<title>Node4</title>
<g id="a_node4"><a xlink:href="classBitStream.html" target="_top" xlink:title=" ">
<polygon fill="none" stroke="black" points="228,-988.5 228,-1007.5 293,-1007.5 293,-988.5 228,-988.5"/>
<text text-anchor="middle" x="260.5" y="-995.5" font-family="Helvetica,sans-Serif" font-size="10.00">BitStream</text>
</a>
</g>
</g>
<!-- Node4&#45;&gt;Node3 -->
<g id="edge4" class="edge">
<title>Node4&#45;&gt;Node3</title>
<path fill="none" stroke="#9a32cd" stroke-dasharray="5,2" d="M263.07,-978.15C266.77,-945.19 279.02,-879.34 319,-844 349.13,-817.37 380.91,-853.59 407,-823 441.28,-782.81 396.78,-630.65 425,-586 428.86,-579.9 434.87,-575.18 441.14,-571.62"/>
<polygon fill="#9a32cd" stroke="#9a32cd" points="259.56,-978.04 262.08,-988.33 266.53,-978.71 259.56,-978.04"/>
<text text-anchor="middle" x="363" y="-847" font-family="Helvetica,sans-Serif" font-size="10.00"> m_vlData</text>
</g>
<!-- Node4&#45;&gt;Node6 -->
<g id="edge9" class="edge">
<title>Node4&#45;&gt;Node6</title>
<path fill="none" stroke="#9a32cd" stroke-dasharray="5,2" d="M303.41,-996.57C343.48,-995.21 402.85,-993.19 437.96,-991.99"/>
<polygon fill="#9a32cd" stroke="#9a32cd" points="303.03,-993.08 293.16,-996.92 303.27,-1000.08 303.03,-993.08"/>
<text text-anchor="middle" x="363" y="-998" font-family="Helvetica,sans-Serif" font-size="10.00"> m_bitStream</text>
</g>
<!-- Node4&#45;&gt;Node13 -->
<g id="edge23" class="edge">
<title>Node4&#45;&gt;Node13</title>
<path fill="none" stroke="#9a32cd" stroke-dasharray="5,2" d="M300.25,-985.47C306.5,-983.56 312.91,-981.68 319,-980 357.77,-969.32 369.31,-973 407,-959 422.61,-953.2 439.36,-944.3 451.19,-937.52"/>
<polygon fill="#9a32cd" stroke="#9a32cd" points="299.15,-982.15 290.64,-988.45 301.22,-988.83 299.15,-982.15"/>
<text text-anchor="middle" x="363" y="-983" font-family="Helvetica,sans-Serif" font-size="10.00"> m_bitStream</text>
</g>
<!-- Node4&#45;&gt;Node24 -->
<g id="edge46" class="edge">
<title>Node4&#45;&gt;Node24</title>
<path fill="none" stroke="#9a32cd" stroke-dasharray="5,2" d="M266.7,-1017.53C274.04,-1040.75 289.92,-1078.44 319,-1095 358.2,-1117.33 412.97,-1103.52 443.7,-1092.55"/>
<polygon fill="#9a32cd" stroke="#9a32cd" points="270,-1016.34 263.83,-1007.73 263.28,-1018.31 270,-1016.34"/>
<text text-anchor="middle" x="363" y="-1109" font-family="Helvetica,sans-Serif" font-size="10.00"> m_irData</text>
</g>
<!-- Node5&#45;&gt;Node2 -->
<g id="edge5" class="edge">
<title>Node5&#45;&gt;Node2</title>
<path fill="none" stroke="#9a32cd" stroke-dasharray="5,2" d="M431.02,-751.11C423.12,-748.75 414.78,-746.27 407,-744 367.97,-732.6 348.88,-746.57 319,-719 275.16,-678.56 264.58,-601.51 262.17,-574.58"/>
<polygon fill="#9a32cd" stroke="#9a32cd" points="430.15,-754.51 440.74,-754.03 432.17,-747.8 430.15,-754.51"/>
<text text-anchor="middle" x="363" y="-747" font-family="Helvetica,sans-Serif" font-size="10.00"> m_storage</text>
</g>
<!-- Node6&#45;&gt;Node2 -->
<g id="edge7" class="edge">
<title>Node6&#45;&gt;Node2</title>
<path fill="none" stroke="#9a32cd" stroke-dasharray="5,2" d="M449.02,-974.41C437.72,-964.81 422.4,-953.23 407,-946 370.6,-928.91 346.33,-954.49 319,-925 269.84,-871.97 262.63,-626.8 261.65,-574.73"/>
<polygon fill="#9a32cd" stroke="#9a32cd" points="446.99,-977.28 456.81,-981.26 451.61,-972.03 446.99,-977.28"/>
<text text-anchor="middle" x="363" y="-949" font-family="Helvetica,sans-Serif" font-size="10.00"> m_irSender</text>
</g>
<!-- Node7 -->
<g id="node7" class="node">
<title>Node7</title>
<g id="a_node7"><a xlink:href="classByteStream.html" target="_top" xlink:title=" ">
<polygon fill="none" stroke="black" points="223.5,-1268.5 223.5,-1287.5 297.5,-1287.5 297.5,-1268.5 223.5,-1268.5"/>
<text text-anchor="middle" x="260.5" y="-1275.5" font-family="Helvetica,sans-Serif" font-size="10.00">ByteStream</text>
</a>
</g>
</g>
<!-- Node7&#45;&gt;Node6 -->
<g id="edge10" class="edge">
<title>Node7&#45;&gt;Node6</title>
<path fill="none" stroke="#9a32cd" stroke-dasharray="5,2" d="M308.07,-1276.78C340.88,-1273.27 383.09,-1262.89 407,-1234 431.22,-1204.73 413.27,-1100.13 425,-1064 432.94,-1039.52 449.82,-1014.2 459.59,-1000.76"/>
<polygon fill="#9a32cd" stroke="#9a32cd" points="307.43,-1273.32 297.78,-1277.69 308.05,-1280.29 307.43,-1273.32"/>
<text text-anchor="middle" x="363" y="-1277" font-family="Helvetica,sans-Serif" font-size="10.00"> m_serialBuf</text>
</g>
<!-- Node7&#45;&gt;Node13 -->
<g id="edge24" class="edge">
<title>Node7&#45;&gt;Node13</title>
<path fill="none" stroke="#9a32cd" stroke-dasharray="5,2" d="M274.19,-1260.45C284.74,-1247.14 300.89,-1229.41 319,-1219 353.95,-1198.91 380.94,-1227.76 407,-1197 439.42,-1158.73 404.5,-1017.78 425,-972 431.3,-957.93 444.08,-945.6 453.89,-937.6"/>
<polygon fill="#9a32cd" stroke="#9a32cd" points="271.38,-1258.36 268.11,-1268.44 276.95,-1262.6 271.38,-1258.36"/>
<text text-anchor="middle" x="363" y="-1222" font-family="Helvetica,sans-Serif" font-size="10.00"> m_serialBuf</text>
</g>
<!-- Node7&#45;&gt;Node15 -->
<g id="edge35" class="edge">
<title>Node7&#45;&gt;Node15</title>
<path fill="none" stroke="#9a32cd" stroke-dasharray="5,2" d="M299.38,-1290.56C388.24,-1317.4 612.13,-1369.44 739,-1260 871.18,-1145.98 927.09,-533.09 934.21,-448.65"/>
<polygon fill="#9a32cd" stroke="#9a32cd" points="300.31,-1287.18 289.72,-1287.58 298.25,-1293.87 300.31,-1287.18"/>
<text text-anchor="middle" x="577.5" y="-1329" font-family="Helvetica,sans-Serif" font-size="10.00"> m_storedMode</text>
</g>
<!-- Node8 -->
<g id="node8" class="node">
<title>Node8</title>
<g id="a_node8"><a xlink:href="structByteStream_1_1RawBuffer.html" target="_top" xlink:title=" ">
<polygon fill="none" stroke="black" points="0,-1268.5 0,-1287.5 131,-1287.5 131,-1268.5 0,-1268.5"/>
<text text-anchor="middle" x="65.5" y="-1275.5" font-family="Helvetica,sans-Serif" font-size="10.00">ByteStream::RawBuffer</text>
</a>
</g>
</g>
<!-- Node8&#45;&gt;Node7 -->
<g id="edge11" class="edge">
<title>Node8&#45;&gt;Node7</title>
<path fill="none" stroke="#9a32cd" stroke-dasharray="5,2" d="M141.29,-1278C169.52,-1278 200.35,-1278 223.45,-1278"/>
<polygon fill="#9a32cd" stroke="#9a32cd" points="141.03,-1274.5 131.03,-1278 141.03,-1281.5 141.03,-1274.5"/>
<text text-anchor="middle" x="175.5" y="-1281" font-family="Helvetica,sans-Serif" font-size="10.00"> m_pData</text>
</g>
<!-- Node9&#45;&gt;Node2 -->
<g id="edge13" class="edge">
<title>Node9&#45;&gt;Node2</title>
<path fill="none" stroke="#9a32cd" stroke-dasharray="5,2" d="M654.26,-520.24C587.05,-516.1 438.96,-511.64 319,-541 305.55,-544.29 291.18,-550.29 280.16,-555.47"/>
<polygon fill="#9a32cd" stroke="#9a32cd" points="654.13,-523.74 664.34,-520.89 654.59,-516.75 654.13,-523.74"/>
<text text-anchor="middle" x="468" y="-525" font-family="Helvetica,sans-Serif" font-size="10.00"> m_buttons</text>
</g>
<!-- Node10&#45;&gt;Node9 -->
<g id="edge15" class="edge">
<title>Node10&#45;&gt;Node9</title>
<path fill="none" stroke="#9a32cd" stroke-dasharray="5,2" d="M502.93,-479.21C535.03,-481.84 584.36,-487.31 626,-498 641.01,-501.85 657.27,-508.17 669.71,-513.49"/>
<polygon fill="#9a32cd" stroke="#9a32cd" points="502.98,-475.7 492.74,-478.42 502.44,-482.68 502.98,-475.7"/>
<text text-anchor="middle" x="577.5" y="-501" font-family="Helvetica,sans-Serif" font-size="10.00"> m_buttons</text>
</g>
<!-- Node11&#45;&gt;Node2 -->
<g id="edge17" class="edge">
<title>Node11&#45;&gt;Node2</title>
<path fill="none" stroke="#9a32cd" stroke-dasharray="5,2" d="M438.36,-665.18C406.91,-670.37 355.97,-673.99 319,-653 288.05,-635.43 270.89,-593.57 264.47,-574.62"/>
<polygon fill="#9a32cd" stroke="#9a32cd" points="439.01,-668.61 448.23,-663.39 437.77,-661.73 439.01,-668.61"/>
<text text-anchor="middle" x="363" y="-672" font-family="Helvetica,sans-Serif" font-size="10.00"> m_leds</text>
</g>
<!-- Node12&#45;&gt;Node2 -->
<g id="edge19" class="edge">
<title>Node12&#45;&gt;Node2</title>
<path fill="none" stroke="#9a32cd" stroke-dasharray="5,2" d="M428.75,-386.9C396.47,-379.2 350.6,-374.42 319,-397 265.83,-435 261.29,-525.28 261.3,-555.19"/>
<polygon fill="#9a32cd" stroke="#9a32cd" points="428.16,-390.36 438.72,-389.48 429.91,-383.59 428.16,-390.36"/>
<text text-anchor="middle" x="363" y="-400" font-family="Helvetica,sans-Serif" font-size="10.00"> m_patternBuilder</text>
</g>
<!-- Node13&#45;&gt;Node2 -->
<g id="edge21" class="edge">
<title>Node13&#45;&gt;Node2</title>
<path fill="none" stroke="#9a32cd" stroke-dasharray="5,2" d="M462.2,-908.34C454.81,-882.34 438.14,-836.9 407,-812 375.43,-786.75 347.52,-817.65 319,-789 287.7,-757.56 267.59,-613.47 262.68,-574.65"/>
<polygon fill="#9a32cd" stroke="#9a32cd" points="458.86,-909.41 464.81,-918.18 465.63,-907.62 458.86,-909.41"/>
<text text-anchor="middle" x="363" y="-815" font-family="Helvetica,sans-Serif" font-size="10.00"> m_vlSender</text>
</g>
<!-- Node14&#45;&gt;Node2 -->
<g id="edge25" class="edge">
<title>Node14&#45;&gt;Node2</title>
<path fill="none" stroke="#9a32cd" stroke-dasharray="5,2" d="M1120.46,-421.12C1090.75,-385.48 1017.6,-309 937,-309 576.5,-309 576.5,-309 576.5,-309 519.28,-309 363.62,-274.18 319,-310 279.45,-341.75 265.13,-512.43 262.13,-555.25"/>
<polygon fill="#9a32cd" stroke="#9a32cd" points="1118.03,-423.68 1127.06,-429.23 1123.46,-419.26 1118.03,-423.68"/>
<text text-anchor="middle" x="691.5" y="-312" font-family="Helvetica,sans-Serif" font-size="10.00"> m_modes</text>
</g>
<!-- Node15&#45;&gt;Node14 -->
<g id="edge27" class="edge">
<title>Node15&#45;&gt;Node14</title>
<path fill="none" stroke="#9a32cd" stroke-dasharray="5,2" d="M997.11,-439C1035.39,-439 1082.86,-439 1110.8,-439"/>
<polygon fill="#9a32cd" stroke="#9a32cd" points="997.09,-435.5 987.09,-439 997.09,-442.5 997.09,-435.5"/>
<text text-anchor="middle" x="1049" y="-453" font-family="Helvetica,sans-Serif" font-size="10.00"> m_pCurModeLink</text>
<text text-anchor="middle" x="1049" y="-442" font-family="Helvetica,sans-Serif" font-size="10.00">m_storedModes</text>
</g>
<!-- Node15&#45;&gt;Node15 -->
<g id="edge36" class="edge">
<title>Node15&#45;&gt;Node15</title>
<path fill="none" stroke="#9a32cd" stroke-dasharray="5,2" d="M915.26,-458.4C916.65,-463.31 923.56,-467 936,-467 955.91,-467 961.66,-457.57 953.26,-448.76"/>
<polygon fill="#9a32cd" stroke="#9a32cd" points="918.64,-459.35 918.74,-448.76 912.05,-456.98 918.64,-459.35"/>
<text text-anchor="middle" x="936" y="-481" font-family="Helvetica,sans-Serif" font-size="10.00"> m_next</text>
<text text-anchor="middle" x="936" y="-470" font-family="Helvetica,sans-Serif" font-size="10.00">m_prev</text>
</g>
<!-- Node16&#45;&gt;Node15 -->
<g id="edge28" class="edge">
<title>Node16&#45;&gt;Node15</title>
<path fill="none" stroke="#9a32cd" stroke-dasharray="5,2" d="M714.93,-269.63C722.61,-275.06 731.23,-281.23 739,-287 809.54,-339.35 892.12,-404.79 922.76,-429.21"/>
<polygon fill="#9a32cd" stroke="#9a32cd" points="716.64,-266.55 706.45,-263.67 712.62,-272.28 716.64,-266.55"/>
<text text-anchor="middle" x="812" y="-387" font-family="Helvetica,sans-Serif" font-size="10.00"> m_pInstantiatedMode</text>
</g>
<!-- Node16&#45;&gt;Node27 -->
<g id="edge52" class="edge">
<title>Node16&#45;&gt;Node27</title>
<path fill="none" stroke="#9a32cd" stroke-dasharray="5,2" d="M714.58,-238.61C763.7,-204.38 880.84,-122.75 921.12,-94.67"/>
<polygon fill="#9a32cd" stroke="#9a32cd" points="712.44,-235.84 706.23,-244.43 716.44,-241.58 712.44,-235.84"/>
<text text-anchor="middle" x="812" y="-212" font-family="Helvetica,sans-Serif" font-size="10.00"> m_previewMode</text>
</g>
<!-- Node17&#45;&gt;Node16 -->
<g id="edge30" class="edge">
<title>Node17&#45;&gt;Node16</title>
<path fill="none" stroke="#9a32cd" stroke-dasharray="5,2" d="M503.88,-228.61C535.7,-232.82 584.02,-239.26 626,-245 640.45,-246.97 656.72,-249.24 669.3,-251.01"/>
<polygon fill="#9a32cd" stroke="#9a32cd" points="504.12,-225.11 493.75,-227.27 503.2,-232.05 504.12,-225.11"/>
<text text-anchor="middle" x="577.5" y="-248" font-family="Helvetica,sans-Serif" font-size="10.00"> m_multiPat</text>
</g>
<!-- Node18 -->
<g id="node18" class="node">
<title>Node18</title>
<g id="a_node18"><a xlink:href="classColorset.html" target="_top" xlink:title=" ">
<polygon fill="none" stroke="black" points="232,-118.5 232,-137.5 289,-137.5 289,-118.5 232,-118.5"/>
<text text-anchor="middle" x="260.5" y="-125.5" font-family="Helvetica,sans-Serif" font-size="10.00">Colorset</text>
</a>
</g>
</g>
<!-- Node18&#45;&gt;Node17 -->
<g id="edge32" class="edge">
<title>Node18&#45;&gt;Node17</title>
<path fill="none" stroke="#9a32cd" stroke-dasharray="5,2" d="M299.6,-131.26C336.41,-134.94 389.15,-141.79 407,-152 433.41,-167.11 453.25,-198.56 462.03,-214.42"/>
<polygon fill="#9a32cd" stroke="#9a32cd" points="299.5,-127.73 289.21,-130.26 298.83,-134.7 299.5,-127.73"/>
<text text-anchor="middle" x="363" y="-155" font-family="Helvetica,sans-Serif" font-size="10.00"> m_colorset</text>
</g>
<!-- Node19 -->
<g id="node19" class="node">
<title>Node19</title>
<g id="a_node19"><a xlink:href="classRGBColor.html" target="_top" xlink:title=" ">
<polygon fill="none" stroke="black" points="34,-13.5 34,-32.5 97,-32.5 97,-13.5 34,-13.5"/>
<text text-anchor="middle" x="65.5" y="-20.5" font-family="Helvetica,sans-Serif" font-size="10.00">RGBColor</text>
</a>
</g>
</g>
<!-- Node19&#45;&gt;Node18 -->
<g id="edge33" class="edge">
<title>Node19&#45;&gt;Node18</title>
<path fill="none" stroke="#9a32cd" stroke-dasharray="5,2" d="M92.88,-37.35C132.91,-59.13 207.92,-99.94 241.93,-118.44"/>
<polygon fill="#9a32cd" stroke="#9a32cd" points="94.42,-34.21 83.97,-32.5 91.08,-40.36 94.42,-34.21"/>
<text text-anchor="middle" x="175.5" y="-98" font-family="Helvetica,sans-Serif" font-size="10.00"> m_palette</text>
</g>
<!-- Node19&#45;&gt;Node27 -->
<g id="edge53" class="edge">
<title>Node19&#45;&gt;Node27</title>
<path fill="none" stroke="#9a32cd" stroke-dasharray="5,2" d="M107.02,-15.34C145.96,-8.65 206.53,0 259.5,0 259.5,0 259.5,0 578.5,0 708.94,0 859.08,-54.51 913.72,-76.22"/>
<polygon fill="#9a32cd" stroke="#9a32cd" points="106.36,-11.9 97.12,-17.08 107.57,-18.79 106.36,-11.9"/>
<text text-anchor="middle" x="468" y="-3" font-family="Helvetica,sans-Serif" font-size="10.00"> m_menuColor</text>
</g>
<!-- Node20&#45;&gt;Node2 -->
<g id="edge37" class="edge">
<title>Node20&#45;&gt;Node2</title>
<path fill="none" stroke="#9a32cd" stroke-dasharray="5,2" d="M421.76,-344.85C389.62,-341.07 347.32,-341.98 319,-365 288.23,-390.01 267.95,-519.17 262.8,-555.49"/>
<polygon fill="#9a32cd" stroke="#9a32cd" points="421.42,-348.33 431.8,-346.22 422.37,-341.4 421.42,-348.33"/>
<text text-anchor="middle" x="363" y="-368" font-family="Helvetica,sans-Serif" font-size="10.00"> m_serial</text>
</g>
<!-- Node21&#45;&gt;Node2 -->
<g id="edge39" class="edge">
<title>Node21&#45;&gt;Node2</title>
<path fill="none" stroke="#9a32cd" stroke-dasharray="5,2" d="M434.29,-109.92C401.08,-99.99 350.22,-91.55 319,-119 284.92,-148.97 265.32,-492.38 262,-555.17"/>
<polygon fill="#9a32cd" stroke="#9a32cd" points="433.4,-113.31 443.99,-113.01 435.53,-106.64 433.4,-113.31"/>
<text text-anchor="middle" x="363" y="-122" font-family="Helvetica,sans-Serif" font-size="10.00"> m_vortexLib</text>
</g>
<!-- Node23 -->
<g id="node23" class="node">
<title>Node23</title>
<g id="a_node23"><a xlink:href="classVortexCallbacks.html" target="_top" xlink:title=" ">
<polygon fill="none" stroke="black" points="644,-122.5 644,-141.5 739,-141.5 739,-122.5 644,-122.5"/>
<text text-anchor="middle" x="691.5" y="-129.5" font-family="Helvetica,sans-Serif" font-size="10.00">VortexCallbacks</text>
</a>
</g>
</g>
<!-- Node21&#45;&gt;Node23 -->
<g id="edge43" class="edge">
<title>Node21&#45;&gt;Node23</title>
<path fill="none" stroke="#9a32cd" stroke-dasharray="5,2" d="M502.37,-128.57C511.01,-129.99 520.32,-131.28 529,-132 567.56,-135.19 611.48,-134.94 643.77,-134.03"/>
<polygon fill="#9a32cd" stroke="#9a32cd" points="502.71,-125.07 492.25,-126.79 501.5,-131.97 502.71,-125.07"/>
<text text-anchor="middle" x="577.5" y="-138" font-family="Helvetica,sans-Serif" font-size="10.00"> m_vortex</text>
</g>
<!-- Node22 -->
<g id="node22" class="node">
<title>Node22</title>
<g id="a_node22"><a xlink:href="classRandom.html" target="_top" xlink:title=" ">
<polygon fill="none" stroke="black" points="232,-28.5 232,-47.5 289,-47.5 289,-28.5 232,-28.5"/>
<text text-anchor="middle" x="260.5" y="-35.5" font-family="Helvetica,sans-Serif" font-size="10.00">Random</text>
</a>
</g>
</g>
<!-- Node22&#45;&gt;Node21 -->
<g id="edge40" class="edge">
<title>Node22&#45;&gt;Node21</title>
<path fill="none" stroke="#9a32cd" stroke-dasharray="5,2" d="M299.15,-47.03C329.13,-54.9 371.76,-67.61 407,-84 423.99,-91.9 441.96,-103.82 453.75,-112.19"/>
<polygon fill="#9a32cd" stroke="#9a32cd" points="299.66,-43.55 289.1,-44.45 297.92,-50.33 299.66,-43.55"/>
<text text-anchor="middle" x="363" y="-87" font-family="Helvetica,sans-Serif" font-size="10.00"> m_randCtx</text>
</g>
<!-- Node23&#45;&gt;Node21 -->
<g id="edge42" class="edge">
<title>Node23&#45;&gt;Node21</title>
<path fill="none" stroke="#9a32cd" stroke-dasharray="5,2" d="M633.7,-121.77C631.1,-121.47 628.53,-121.21 626,-121 583.04,-117.36 572.11,-120.64 529,-121 516.81,-121.1 503.23,-121.32 492.08,-121.53"/>
<polygon fill="#9a32cd" stroke="#9a32cd" points="633.4,-125.26 643.77,-123.08 634.3,-118.32 633.4,-125.26"/>
<text text-anchor="middle" x="577.5" y="-124" font-family="Helvetica,sans-Serif" font-size="10.00"> m_storedCallbacks</text>
</g>
<!-- Node24&#45;&gt;Node2 -->
<g id="edge44" class="edge">
<title>Node24&#45;&gt;Node2</title>
<path fill="none" stroke="#9a32cd" stroke-dasharray="5,2" d="M441.62,-1068.48C431.01,-1062.56 418.51,-1055.77 407,-1050 368.59,-1030.75 344.53,-1044.55 319,-1010 265.53,-937.64 261.74,-633.54 261.51,-574.83"/>
<polygon fill="#9a32cd" stroke="#9a32cd" points="439.94,-1071.55 450.37,-1073.41 443.37,-1065.45 439.94,-1071.55"/>
<text text-anchor="middle" x="363" y="-1053" font-family="Helvetica,sans-Serif" font-size="10.00"> m_irReceiver</text>
</g>
<!-- Node25&#45;&gt;Node2 -->
<g id="edge47" class="edge">
<title>Node25&#45;&gt;Node2</title>
<path fill="none" stroke="#9a32cd" stroke-dasharray="5,2" d="M437.7,-1159.59C395.67,-1147.39 322.86,-1125.74 319,-1121 314.48,-1115.45 269.43,-647.61 262.42,-574.55"/>
<polygon fill="#9a32cd" stroke="#9a32cd" points="436.83,-1162.98 447.41,-1162.4 438.77,-1156.26 436.83,-1162.98"/>
<text text-anchor="middle" x="363" y="-1152" font-family="Helvetica,sans-Serif" font-size="10.00"> m_time</text>
</g>
<!-- Node26&#45;&gt;Node2 -->
<g id="edge49" class="edge">
<title>Node26&#45;&gt;Node2</title>
<path fill="none" stroke="#9a32cd" stroke-dasharray="5,2" d="M1116.49,-101.67C1083.54,-130.35 1010.18,-186 937,-186 576.5,-186 576.5,-186 576.5,-186 555.43,-186 335.81,-207.86 319,-225 271.2,-273.71 262.93,-505.35 261.7,-555.44"/>
<polygon fill="#9a32cd" stroke="#9a32cd" points="1119.19,-103.95 1124.32,-94.68 1114.53,-98.73 1119.19,-103.95"/>
<text text-anchor="middle" x="691.5" y="-189" font-family="Helvetica,sans-Serif" font-size="10.00"> m_menus</text>
</g>
<!-- Node27&#45;&gt;Node26 -->
<g id="edge51" class="edge">
<title>Node27&#45;&gt;Node26</title>
<path fill="none" stroke="#9a32cd" stroke-dasharray="5,2" d="M968.28,-85C1007.86,-85 1075.16,-85 1110.77,-85"/>
<polygon fill="#9a32cd" stroke="#9a32cd" points="968.14,-81.5 958.14,-85 968.14,-88.5 968.14,-81.5"/>
<text text-anchor="middle" x="1049" y="-88" font-family="Helvetica,sans-Serif" font-size="10.00"> m_pCurMenu</text>
</g>
</g>
</svg>
