<?xml version="1.0" encoding="UTF-8" standalone="no"?>
<!DOCTYPE svg PUBLIC "-//W3C//DTD SVG 1.1//EN"
 "http://www.w3.org/Graphics/SVG/1.1/DTD/svg11.dtd">
<!-- Generated by graphviz version 2.43.0 (0)
 -->
<!-- Title: BlinkStepPattern Pages: 1 -->
<svg width="477pt" height="522pt"
 viewBox="0.00 0.00 477.00 522.00" xmlns="http://www.w3.org/2000/svg" xmlns:xlink="http://www.w3.org/1999/xlink">
<g id="graph0" class="graph" transform="scale(1 1) rotate(0) translate(4 518)">
<title>BlinkStepPattern</title>
<!-- Node1 -->
<g id="node1" class="node">
<title>Node1</title>
<g id="a_node1"><a xlink:title=" ">
<polygon fill="#bfbfbf" stroke="black" points="216,-247.5 216,-266.5 314,-266.5 314,-247.5 216,-247.5"/>
<text text-anchor="middle" x="265" y="-254.5" font-family="Helvetica,sans-Serif" font-size="10.00">BlinkStepPattern</text>
</a>
</g>
</g>
<!-- Node4 -->
<g id="node4" class="node">
<title>Node4</title>
<g id="a_node4"><a xlink:href="classBouncePattern.html" target="_top" xlink:title=" ">
<polygon fill="none" stroke="black" points="366,-494.5 366,-513.5 453,-513.5 453,-494.5 366,-494.5"/>
<text text-anchor="middle" x="409.5" y="-501.5" font-family="Helvetica,sans-Serif" font-size="10.00">BouncePattern</text>
</a>
</g>
</g>
<!-- Node1&#45;&gt;Node4 -->
<g id="edge3" class="edge">
<title>Node1&#45;&gt;Node4</title>
<path fill="none" stroke="midnightblue" d="M267.6,-276.81C272.19,-320.65 289.31,-426.63 350,-485 354.54,-489.37 360.1,-492.73 365.96,-495.32"/>
<polygon fill="midnightblue" stroke="midnightblue" points="271.08,-276.47 266.66,-266.84 264.11,-277.13 271.08,-276.47"/>
</g>
<!-- Node5 -->
<g id="node5" class="node">
<title>Node5</title>
<g id="a_node5"><a xlink:href="classCrossDopsPattern.html" target="_top" xlink:title=" ">
<polygon fill="none" stroke="black" points="358,-456.5 358,-475.5 461,-475.5 461,-456.5 358,-456.5"/>
<text text-anchor="middle" x="409.5" y="-463.5" font-family="Helvetica,sans-Serif" font-size="10.00">CrossDopsPattern</text>
</a>
</g>
</g>
<!-- Node1&#45;&gt;Node5 -->
<g id="edge4" class="edge">
<title>Node1&#45;&gt;Node5</title>
<path fill="none" stroke="midnightblue" d="M269.27,-276.87C276.63,-315.3 298.1,-400.15 350,-447 354.28,-450.86 359.36,-453.94 364.71,-456.4"/>
<polygon fill="midnightblue" stroke="midnightblue" points="272.7,-276.15 267.49,-266.92 265.81,-277.39 272.7,-276.15"/>
</g>
<!-- Node6 -->
<g id="node6" class="node">
<title>Node6</title>
<g id="a_node6"><a xlink:href="classDoubleStrobePattern.html" target="_top" xlink:title=" ">
<polygon fill="none" stroke="black" points="351,-418.5 351,-437.5 468,-437.5 468,-418.5 351,-418.5"/>
<text text-anchor="middle" x="409.5" y="-425.5" font-family="Helvetica,sans-Serif" font-size="10.00">DoubleStrobePattern</text>
</a>
</g>
</g>
<!-- Node1&#45;&gt;Node6 -->
<g id="edge5" class="edge">
<title>Node1&#45;&gt;Node6</title>
<path fill="none" stroke="midnightblue" d="M271.56,-276.42C281.77,-308.64 306.54,-373.14 350,-409 354.69,-412.87 360.2,-415.97 365.92,-418.43"/>
<polygon fill="midnightblue" stroke="midnightblue" points="274.9,-275.37 268.65,-266.82 268.2,-277.4 274.9,-275.37"/>
</g>
<!-- Node7 -->
<g id="node7" class="node">
<title>Node7</title>
<g id="a_node7"><a xlink:href="classDripPattern.html" target="_top" xlink:title=" ">
<polygon fill="none" stroke="black" points="374,-380.5 374,-399.5 445,-399.5 445,-380.5 374,-380.5"/>
<text text-anchor="middle" x="409.5" y="-387.5" font-family="Helvetica,sans-Serif" font-size="10.00">DripPattern</text>
</a>
</g>
</g>
<!-- Node1&#45;&gt;Node7 -->
<g id="edge6" class="edge">
<title>Node1&#45;&gt;Node7</title>
<path fill="none" stroke="midnightblue" d="M275.05,-275.74C288.17,-300.96 314.78,-345.59 350,-371 357.01,-376.06 365.45,-379.82 373.7,-382.6"/>
<polygon fill="midnightblue" stroke="midnightblue" points="278.04,-273.88 270.42,-266.52 271.78,-277.03 278.04,-273.88"/>
</g>
<!-- Node8 -->
<g id="node8" class="node">
<title>Node8</title>
<g id="a_node8"><a xlink:href="classFillPattern.html" target="_top" xlink:title=" ">
<polygon fill="none" stroke="black" points="377,-342.5 377,-361.5 442,-361.5 442,-342.5 377,-342.5"/>
<text text-anchor="middle" x="409.5" y="-349.5" font-family="Helvetica,sans-Serif" font-size="10.00">FillPattern</text>
</a>
</g>
</g>
<!-- Node1&#45;&gt;Node8 -->
<g id="edge7" class="edge">
<title>Node1&#45;&gt;Node8</title>
<path fill="none" stroke="midnightblue" d="M280.88,-274.17C296.53,-291.26 322.65,-317.17 350,-333 358.23,-337.76 367.8,-341.51 376.8,-344.37"/>
<polygon fill="midnightblue" stroke="midnightblue" points="283.36,-271.69 274.08,-266.57 278.14,-276.36 283.36,-271.69"/>
</g>
<!-- Node9 -->
<g id="node9" class="node">
<title>Node9</title>
<g id="a_node9"><a xlink:href="classLighthousePattern.html" target="_top" xlink:title=" ">
<polygon fill="none" stroke="black" points="357.5,-304.5 357.5,-323.5 461.5,-323.5 461.5,-304.5 357.5,-304.5"/>
<text text-anchor="middle" x="409.5" y="-311.5" font-family="Helvetica,sans-Serif" font-size="10.00">LighthousePattern</text>
</a>
</g>
</g>
<!-- Node1&#45;&gt;Node9 -->
<g id="edge8" class="edge">
<title>Node1&#45;&gt;Node9</title>
<path fill="none" stroke="midnightblue" d="M294.8,-270.98C310.86,-278.54 331.34,-287.77 350,-295 358.66,-298.35 368.19,-301.62 377,-304.48"/>
<polygon fill="midnightblue" stroke="midnightblue" points="295.96,-267.66 285.43,-266.53 292.96,-273.98 295.96,-267.66"/>
</g>
<!-- Node10 -->
<g id="node10" class="node">
<title>Node10</title>
<g id="a_node10"><a xlink:href="classMeteorPattern.html" target="_top" xlink:title=" ">
<polygon fill="none" stroke="black" points="366.5,-266.5 366.5,-285.5 452.5,-285.5 452.5,-266.5 366.5,-266.5"/>
<text text-anchor="middle" x="409.5" y="-273.5" font-family="Helvetica,sans-Serif" font-size="10.00">MeteorPattern</text>
</a>
</g>
</g>
<!-- Node1&#45;&gt;Node10 -->
<g id="edge9" class="edge">
<title>Node1&#45;&gt;Node10</title>
<path fill="none" stroke="midnightblue" d="M324.27,-264.77C338.25,-266.63 352.93,-268.59 366.03,-270.34"/>
<polygon fill="midnightblue" stroke="midnightblue" points="324.62,-261.28 314.24,-263.43 323.69,-268.22 324.62,-261.28"/>
</g>
<!-- Node11 -->
<g id="node11" class="node">
<title>Node11</title>
<g id="a_node11"><a xlink:href="classSnowballPattern.html" target="_top" xlink:title=" ">
<polygon fill="none" stroke="black" points="362,-228.5 362,-247.5 457,-247.5 457,-228.5 362,-228.5"/>
<text text-anchor="middle" x="409.5" y="-235.5" font-family="Helvetica,sans-Serif" font-size="10.00">SnowballPattern</text>
</a>
</g>
</g>
<!-- Node1&#45;&gt;Node11 -->
<g id="edge10" class="edge">
<title>Node1&#45;&gt;Node11</title>
<path fill="none" stroke="midnightblue" d="M324.51,-249.2C336.91,-247.54 349.85,-245.82 361.75,-244.23"/>
<polygon fill="midnightblue" stroke="midnightblue" points="323.69,-245.78 314.24,-250.57 324.62,-252.72 323.69,-245.78"/>
</g>
<!-- Node12 -->
<g id="node12" class="node">
<title>Node12</title>
<g id="a_node12"><a xlink:href="classSparkleTracePattern.html" target="_top" xlink:title=" ">
<polygon fill="none" stroke="black" points="353,-190.5 353,-209.5 466,-209.5 466,-190.5 353,-190.5"/>
<text text-anchor="middle" x="409.5" y="-197.5" font-family="Helvetica,sans-Serif" font-size="10.00">SparkleTracePattern</text>
</a>
</g>
</g>
<!-- Node1&#45;&gt;Node12 -->
<g id="edge11" class="edge">
<title>Node1&#45;&gt;Node12</title>
<path fill="none" stroke="midnightblue" d="M294.8,-243.02C310.86,-235.46 331.34,-226.23 350,-219 358.66,-215.65 368.19,-212.38 377,-209.52"/>
<polygon fill="midnightblue" stroke="midnightblue" points="292.96,-240.02 285.43,-247.47 295.96,-246.34 292.96,-240.02"/>
</g>
<!-- Node13 -->
<g id="node13" class="node">
<title>Node13</title>
<g id="a_node13"><a xlink:href="classTheaterChasePattern.html" target="_top" xlink:title=" ">
<polygon fill="none" stroke="black" points="350,-152.5 350,-171.5 469,-171.5 469,-152.5 350,-152.5"/>
<text text-anchor="middle" x="409.5" y="-159.5" font-family="Helvetica,sans-Serif" font-size="10.00">TheaterChasePattern</text>
</a>
</g>
</g>
<!-- Node1&#45;&gt;Node13 -->
<g id="edge12" class="edge">
<title>Node1&#45;&gt;Node13</title>
<path fill="none" stroke="midnightblue" d="M280.88,-239.83C296.53,-222.74 322.65,-196.83 350,-181 356.47,-177.26 363.77,-174.14 370.97,-171.58"/>
<polygon fill="midnightblue" stroke="midnightblue" points="278.14,-237.64 274.08,-247.43 283.36,-242.31 278.14,-237.64"/>
</g>
<!-- Node14 -->
<g id="node14" class="node">
<title>Node14</title>
<g id="a_node14"><a xlink:href="classVortexPattern.html" target="_top" xlink:title=" ">
<polygon fill="none" stroke="black" points="368,-114.5 368,-133.5 451,-133.5 451,-114.5 368,-114.5"/>
<text text-anchor="middle" x="409.5" y="-121.5" font-family="Helvetica,sans-Serif" font-size="10.00">VortexPattern</text>
</a>
</g>
</g>
<!-- Node1&#45;&gt;Node14 -->
<g id="edge13" class="edge">
<title>Node1&#45;&gt;Node14</title>
<path fill="none" stroke="midnightblue" d="M275.05,-238.26C288.17,-213.04 314.78,-168.41 350,-143 355.37,-139.13 361.57,-136.02 367.88,-133.52"/>
<polygon fill="midnightblue" stroke="midnightblue" points="271.78,-236.97 270.42,-247.48 278.04,-240.12 271.78,-236.97"/>
</g>
<!-- Node15 -->
<g id="node15" class="node">
<title>Node15</title>
<g id="a_node15"><a xlink:href="classVortexWipePattern.html" target="_top" xlink:title=" ">
<polygon fill="none" stroke="black" points="356,-76.5 356,-95.5 463,-95.5 463,-76.5 356,-76.5"/>
<text text-anchor="middle" x="409.5" y="-83.5" font-family="Helvetica,sans-Serif" font-size="10.00">VortexWipePattern</text>
</a>
</g>
</g>
<!-- Node1&#45;&gt;Node15 -->
<g id="edge14" class="edge">
<title>Node1&#45;&gt;Node15</title>
<path fill="none" stroke="midnightblue" d="M271.56,-237.58C281.77,-205.36 306.54,-140.86 350,-105 354.69,-101.13 360.2,-98.03 365.92,-95.57"/>
<polygon fill="midnightblue" stroke="midnightblue" points="268.2,-236.6 268.65,-247.18 274.9,-238.63 268.2,-236.6"/>
</g>
<!-- Node16 -->
<g id="node16" class="node">
<title>Node16</title>
<g id="a_node16"><a xlink:href="classWarpPattern.html" target="_top" xlink:title=" ">
<polygon fill="none" stroke="black" points="371.5,-38.5 371.5,-57.5 447.5,-57.5 447.5,-38.5 371.5,-38.5"/>
<text text-anchor="middle" x="409.5" y="-45.5" font-family="Helvetica,sans-Serif" font-size="10.00">WarpPattern</text>
</a>
</g>
</g>
<!-- Node1&#45;&gt;Node16 -->
<g id="edge15" class="edge">
<title>Node1&#45;&gt;Node16</title>
<path fill="none" stroke="midnightblue" d="M269.27,-237.13C276.63,-198.7 298.1,-113.85 350,-67 356.02,-61.56 363.63,-57.68 371.34,-54.91"/>
<polygon fill="midnightblue" stroke="midnightblue" points="265.81,-236.61 267.49,-247.08 272.7,-237.85 265.81,-236.61"/>
</g>
<!-- Node17 -->
<g id="node17" class="node">
<title>Node17</title>
<g id="a_node17"><a xlink:href="classWarpWormPattern.html" target="_top" xlink:title=" ">
<polygon fill="none" stroke="black" points="357.5,-0.5 357.5,-19.5 461.5,-19.5 461.5,-0.5 357.5,-0.5"/>
<text text-anchor="middle" x="409.5" y="-7.5" font-family="Helvetica,sans-Serif" font-size="10.00">WarpWormPattern</text>
</a>
</g>
</g>
<!-- Node1&#45;&gt;Node17 -->
<g id="edge16" class="edge">
<title>Node1&#45;&gt;Node17</title>
<path fill="none" stroke="midnightblue" d="M267.6,-237.19C272.19,-193.35 289.31,-87.37 350,-29 354,-25.15 358.79,-22.08 363.88,-19.63"/>
<polygon fill="midnightblue" stroke="midnightblue" points="264.11,-236.87 266.66,-247.16 271.08,-237.53 264.11,-236.87"/>
</g>
<!-- Node2 -->
<g id="node2" class="node">
<title>Node2</title>
<g id="a_node2"><a xlink:href="classMultiLedPattern.html" target="_top" xlink:title=" ">
<polygon fill="none" stroke="black" points="87,-247.5 87,-266.5 180,-266.5 180,-247.5 87,-247.5"/>
<text text-anchor="middle" x="133.5" y="-254.5" font-family="Helvetica,sans-Serif" font-size="10.00">MultiLedPattern</text>
</a>
</g>
</g>
<!-- Node2&#45;&gt;Node1 -->
<g id="edge1" class="edge">
<title>Node2&#45;&gt;Node1</title>
<path fill="none" stroke="midnightblue" d="M190.32,-257C198.76,-257 207.41,-257 215.68,-257"/>
<polygon fill="midnightblue" stroke="midnightblue" points="190.16,-253.5 180.16,-257 190.16,-260.5 190.16,-253.5"/>
</g>
<!-- Node3 -->
<g id="node3" class="node">
<title>Node3</title>
<g id="a_node3"><a xlink:href="classPattern.html" target="_top" xlink:title=" ">
<polygon fill="none" stroke="black" points="0,-247.5 0,-266.5 51,-266.5 51,-247.5 0,-247.5"/>
<text text-anchor="middle" x="25.5" y="-254.5" font-family="Helvetica,sans-Serif" font-size="10.00">Pattern</text>
</a>
</g>
</g>
<!-- Node3&#45;&gt;Node2 -->
<g id="edge2" class="edge">
<title>Node3&#45;&gt;Node2</title>
<path fill="none" stroke="midnightblue" d="M61.34,-257C69.48,-257 78.28,-257 86.82,-257"/>
<polygon fill="midnightblue" stroke="midnightblue" points="61.08,-253.5 51.08,-257 61.08,-260.5 61.08,-253.5"/>
</g>
</g>
</svg>
