<?xml version="1.0" encoding="UTF-8" standalone="no"?>
<!DOCTYPE svg PUBLIC "-//W3C//DTD SVG 1.1//EN"
 "http://www.w3.org/Graphics/SVG/1.1/DTD/svg11.dtd">
<!-- Generated by graphviz version 2.43.0 (0)
 -->
<!-- Title: ColorSelect Pages: 1 -->
<svg width="300pt" height="363pt"
 viewBox="0.00 0.00 299.50 363.00" xmlns="http://www.w3.org/2000/svg" xmlns:xlink="http://www.w3.org/1999/xlink">
<g id="graph0" class="graph" transform="scale(1 1) rotate(0) translate(4 359)">
<title>ColorSelect</title>
<!-- Node1 -->
<g id="node1" class="node">
<title>Node1</title>
<g id="a_node1"><a xlink:title=" ">
<polygon fill="#bfbfbf" stroke="black" points="158.5,-0.5 158.5,-19.5 230.5,-19.5 230.5,-0.5 158.5,-0.5"/>
<text text-anchor="middle" x="194.5" y="-7.5" font-family="Helvetica,sans-Serif" font-size="10.00">ColorSelect</text>
</a>
</g>
</g>
<!-- Node2 -->
<g id="node2" class="node">
<title>Node2</title>
<g id="a_node2"><a xlink:href="classMenu.html" target="_top" xlink:title=" ">
<polygon fill="none" stroke="black" points="72.5,-67.5 72.5,-86.5 116.5,-86.5 116.5,-67.5 72.5,-67.5"/>
<text text-anchor="middle" x="94.5" y="-74.5" font-family="Helvetica,sans-Serif" font-size="10.00">Menu</text>
</a>
</g>
</g>
<!-- Node2&#45;&gt;Node1 -->
<g id="edge1" class="edge">
<title>Node2&#45;&gt;Node1</title>
<path fill="none" stroke="midnightblue" d="M116.39,-61.77C136.19,-48.9 164.69,-30.38 181.23,-19.63"/>
<polygon fill="midnightblue" stroke="midnightblue" points="114.46,-58.85 107.99,-67.23 118.28,-64.72 114.46,-58.85"/>
</g>
<!-- Node3 -->
<g id="node3" class="node">
<title>Node3</title>
<g id="a_node3"><a xlink:href="classMode.html" target="_top" xlink:title=" ">
<polygon fill="none" stroke="black" points="80.5,-134.5 80.5,-153.5 124.5,-153.5 124.5,-134.5 80.5,-134.5"/>
<text text-anchor="middle" x="102.5" y="-141.5" font-family="Helvetica,sans-Serif" font-size="10.00">Mode</text>
</a>
</g>
</g>
<!-- Node3&#45;&gt;Node2 -->
<g id="edge2" class="edge">
<title>Node3&#45;&gt;Node2</title>
<path fill="none" stroke="#9a32cd" stroke-dasharray="5,2" d="M97.05,-124.23C96.43,-121.49 95.88,-118.69 95.5,-116 94.1,-106.07 94.01,-94.53 94.17,-86.8"/>
<polygon fill="#9a32cd" stroke="#9a32cd" points="93.72,-125.32 99.65,-134.1 100.49,-123.54 93.72,-125.32"/>
<text text-anchor="middle" x="138" y="-108" font-family="Helvetica,sans-Serif" font-size="10.00"> m_previewMode</text>
</g>
<!-- Node4 -->
<g id="node4" class="node">
<title>Node4</title>
<g id="a_node4"><a xlink:href="classPattern.html" target="_top" xlink:title=" ">
<polygon fill="none" stroke="black" points="106,-201.5 106,-220.5 157,-220.5 157,-201.5 106,-201.5"/>
<text text-anchor="middle" x="131.5" y="-208.5" font-family="Helvetica,sans-Serif" font-size="10.00">Pattern</text>
</a>
</g>
</g>
<!-- Node4&#45;&gt;Node3 -->
<g id="edge3" class="edge">
<title>Node4&#45;&gt;Node3</title>
<path fill="none" stroke="#9a32cd" stroke-dasharray="5,2" d="M118.27,-193.13C116.13,-189.89 114.1,-186.43 112.5,-183 108.07,-173.47 105.35,-161.66 103.89,-153.75"/>
<polygon fill="#9a32cd" stroke="#9a32cd" points="115.62,-195.44 124.32,-201.49 121.3,-191.34 115.62,-195.44"/>
<text text-anchor="middle" x="146.5" y="-175" font-family="Helvetica,sans-Serif" font-size="10.00"> m_singlePats</text>
</g>
<!-- Node5 -->
<g id="node5" class="node">
<title>Node5</title>
<g id="a_node5"><a xlink:href="classColorset.html" target="_top" xlink:title=" ">
<polygon fill="none" stroke="black" points="93,-268.5 93,-287.5 150,-287.5 150,-268.5 93,-268.5"/>
<text text-anchor="middle" x="121.5" y="-275.5" font-family="Helvetica,sans-Serif" font-size="10.00">Colorset</text>
</a>
</g>
</g>
<!-- Node5&#45;&gt;Node1 -->
<g id="edge8" class="edge">
<title>Node5&#45;&gt;Node1</title>
<path fill="none" stroke="#9a32cd" stroke-dasharray="5,2" d="M159.55,-264.94C167.24,-261.13 174.73,-256.23 180.5,-250 192.73,-236.8 194.5,-230 194.5,-212 194.5,-212 194.5,-212 194.5,-76 194.5,-55.91 194.5,-32.33 194.5,-19.83"/>
<polygon fill="#9a32cd" stroke="#9a32cd" points="157.91,-261.84 150.17,-269.07 160.73,-268.25 157.91,-261.84"/>
<text text-anchor="middle" x="223.5" y="-141.5" font-family="Helvetica,sans-Serif" font-size="10.00"> m_colorset</text>
</g>
<!-- Node5&#45;&gt;Node4 -->
<g id="edge4" class="edge">
<title>Node5&#45;&gt;Node4</title>
<path fill="none" stroke="#9a32cd" stroke-dasharray="5,2" d="M120.9,-258.38C120.99,-252.18 121.4,-245.26 122.5,-239 123.6,-232.77 125.85,-226.02 127.82,-220.83"/>
<polygon fill="#9a32cd" stroke="#9a32cd" points="117.4,-258.52 121.01,-268.48 124.4,-258.44 117.4,-258.52"/>
<text text-anchor="middle" x="151.5" y="-242" font-family="Helvetica,sans-Serif" font-size="10.00"> m_colorset</text>
</g>
<!-- Node6 -->
<g id="node6" class="node">
<title>Node6</title>
<g id="a_node6"><a xlink:href="classRGBColor.html" target="_top" xlink:title=" ">
<polygon fill="none" stroke="black" points="0,-335.5 0,-354.5 63,-354.5 63,-335.5 0,-335.5"/>
<text text-anchor="middle" x="31.5" y="-342.5" font-family="Helvetica,sans-Serif" font-size="10.00">RGBColor</text>
</a>
</g>
</g>
<!-- Node6&#45;&gt;Node2 -->
<g id="edge6" class="edge">
<title>Node6&#45;&gt;Node2</title>
<path fill="none" stroke="#9a32cd" stroke-dasharray="5,2" d="M24.53,-325.82C20.22,-312.94 15.5,-295.16 15.5,-279 15.5,-279 15.5,-279 15.5,-143 15.5,-113.34 49.12,-94.72 72.49,-85.35"/>
<polygon fill="#9a32cd" stroke="#9a32cd" points="21.28,-327.11 27.95,-335.34 27.87,-324.74 21.28,-327.11"/>
<text text-anchor="middle" x="51.5" y="-208.5" font-family="Helvetica,sans-Serif" font-size="10.00"> m_menuColor</text>
</g>
<!-- Node6&#45;&gt;Node5 -->
<g id="edge5" class="edge">
<title>Node6&#45;&gt;Node5</title>
<path fill="none" stroke="#9a32cd" stroke-dasharray="5,2" d="M52.18,-329.07C69.94,-316.24 94.94,-298.19 109.55,-287.63"/>
<polygon fill="#9a32cd" stroke="#9a32cd" points="49.7,-326.54 43.64,-335.23 53.79,-332.22 49.7,-326.54"/>
<text text-anchor="middle" x="109" y="-309" font-family="Helvetica,sans-Serif" font-size="10.00"> m_palette</text>
</g>
<!-- Node7 -->
<g id="node7" class="node">
<title>Node7</title>
<g id="a_node7"><a xlink:href="classHSVColor.html" target="_top" xlink:title=" ">
<polygon fill="none" stroke="black" points="222.5,-67.5 222.5,-86.5 284.5,-86.5 284.5,-67.5 222.5,-67.5"/>
<text text-anchor="middle" x="253.5" y="-74.5" font-family="Helvetica,sans-Serif" font-size="10.00">HSVColor</text>
</a>
</g>
</g>
<!-- Node7&#45;&gt;Node1 -->
<g id="edge7" class="edge">
<title>Node7&#45;&gt;Node1</title>
<path fill="none" stroke="#9a32cd" stroke-dasharray="5,2" d="M238.65,-59.63C227.11,-46.92 211.56,-29.8 202.33,-19.63"/>
<polygon fill="#9a32cd" stroke="#9a32cd" points="236.23,-62.18 245.54,-67.23 241.41,-57.48 236.23,-62.18"/>
<text text-anchor="middle" x="259.5" y="-41" font-family="Helvetica,sans-Serif" font-size="10.00"> m_newColor</text>
</g>
</g>
</svg>
