<?xml version="1.0" encoding="UTF-8" standalone="no"?>
<!DOCTYPE svg PUBLIC "-//W3C//DTD SVG 1.1//EN"
 "http://www.w3.org/Graphics/SVG/1.1/DTD/svg11.dtd">
<!-- Generated by graphviz version 2.43.0 (0)
 -->
<!-- Title: VortexEngine/src/Menus/MenuList/ColorSelect.cpp Pages: 1 -->
<svg width="1185pt" height="375pt"
 viewBox="0.00 0.00 1184.91 375.00" xmlns="http://www.w3.org/2000/svg" xmlns:xlink="http://www.w3.org/1999/xlink">
<g id="graph0" class="graph" transform="scale(1 1) rotate(0) translate(4 371)">
<title>VortexEngine/src/Menus/MenuList/ColorSelect.cpp</title>
<!-- Node1 -->
<g id="node1" class="node">
<title>Node1</title>
<g id="a_node1"><a xlink:title=" ">
<polygon fill="#bfbfbf" stroke="black" points="642.5,-336.5 642.5,-366.5 785.5,-366.5 785.5,-336.5 642.5,-336.5"/>
<text text-anchor="start" x="650.5" y="-354.5" font-family="Helvetica,sans-Serif" font-size="10.00">VortexEngine/src/Menus</text>
<text text-anchor="middle" x="714" y="-343.5" font-family="Helvetica,sans-Serif" font-size="10.00">/MenuList/ColorSelect.cpp</text>
</a>
</g>
</g>
<!-- Node2 -->
<g id="node2" class="node">
<title>Node2</title>
<g id="a_node2"><a xlink:href="ColorSelect_8h.html" target="_top" xlink:title=" ">
<polygon fill="none" stroke="black" points="751.5,-280.5 751.5,-299.5 832.5,-299.5 832.5,-280.5 751.5,-280.5"/>
<text text-anchor="middle" x="792" y="-287.5" font-family="Helvetica,sans-Serif" font-size="10.00">ColorSelect.h</text>
</a>
</g>
</g>
<!-- Node1&#45;&gt;Node2 -->
<g id="edge1" class="edge">
<title>Node1&#45;&gt;Node2</title>
<path fill="none" stroke="midnightblue" d="M732.48,-336.4C744.52,-327.22 760.2,-315.26 772.44,-305.92"/>
<polygon fill="midnightblue" stroke="midnightblue" points="774.82,-308.51 780.65,-299.66 770.58,-302.94 774.82,-308.51"/>
</g>
<!-- Node10 -->
<g id="node10" class="node">
<title>Node10</title>
<g id="a_node10"><a xlink:href="Mode_8h.html" target="_top" xlink:title=" ">
<polygon fill="none" stroke="black" points="658.5,-168.5 658.5,-187.5 755.5,-187.5 755.5,-168.5 658.5,-168.5"/>
<text text-anchor="middle" x="707" y="-175.5" font-family="Helvetica,sans-Serif" font-size="10.00">../Modes/Mode.h</text>
</a>
</g>
</g>
<!-- Node1&#45;&gt;Node10 -->
<g id="edge56" class="edge">
<title>Node1&#45;&gt;Node10</title>
<path fill="none" stroke="midnightblue" d="M713.43,-336.47C712.17,-305.7 709.18,-232.33 707.76,-197.7"/>
<polygon fill="midnightblue" stroke="midnightblue" points="711.25,-197.41 707.35,-187.56 704.26,-197.69 711.25,-197.41"/>
</g>
<!-- Node12 -->
<g id="node12" class="node">
<title>Node12</title>
<g id="a_node12"><a xlink:href="Colorset_8h.html" target="_top" xlink:title=" ">
<polygon fill="none" stroke="black" points="888,-168.5 888,-187.5 1006,-187.5 1006,-168.5 888,-168.5"/>
<text text-anchor="middle" x="947" y="-175.5" font-family="Helvetica,sans-Serif" font-size="10.00">../../Colors/Colorset.h</text>
</a>
</g>
</g>
<!-- Node1&#45;&gt;Node12 -->
<g id="edge31" class="edge">
<title>Node1&#45;&gt;Node12</title>
<path fill="none" stroke="midnightblue" d="M765.43,-336.49C790,-328.29 818.99,-316.29 842,-300 883.27,-270.79 918.87,-222.06 936.05,-196.25"/>
<polygon fill="midnightblue" stroke="midnightblue" points="939.17,-197.86 941.7,-187.57 933.31,-194.04 939.17,-197.86"/>
</g>
<!-- Node13 -->
<g id="node13" class="node">
<title>Node13</title>
<g id="a_node13"><a xlink:href="TimeControl_8h.html" target="_top" xlink:title=" ">
<polygon fill="none" stroke="black" points="1024.5,-168.5 1024.5,-187.5 1155.5,-187.5 1155.5,-168.5 1024.5,-168.5"/>
<text text-anchor="middle" x="1090" y="-175.5" font-family="Helvetica,sans-Serif" font-size="10.00">../../Time/TimeControl.h</text>
</a>
</g>
</g>
<!-- Node1&#45;&gt;Node13 -->
<g id="edge21" class="edge">
<title>Node1&#45;&gt;Node13</title>
<path fill="none" stroke="midnightblue" d="M764.44,-336.49C794.93,-327.41 834.29,-314.57 868,-300 944.1,-267.11 1028.74,-216.89 1067.9,-192.82"/>
<polygon fill="midnightblue" stroke="midnightblue" points="1069.75,-195.79 1076.42,-187.55 1066.07,-189.83 1069.75,-195.79"/>
</g>
<!-- Node14 -->
<g id="node14" class="node">
<title>Node14</title>
<g id="a_node14"><a xlink:href="Pattern_8h.html" target="_top" xlink:title=" ">
<polygon fill="none" stroke="black" points="435.5,-224.5 435.5,-243.5 556.5,-243.5 556.5,-224.5 435.5,-224.5"/>
<text text-anchor="middle" x="496" y="-231.5" font-family="Helvetica,sans-Serif" font-size="10.00">../../Patterns/Pattern.h</text>
</a>
</g>
</g>
<!-- Node1&#45;&gt;Node14 -->
<g id="edge25" class="edge">
<title>Node1&#45;&gt;Node14</title>
<path fill="none" stroke="midnightblue" d="M687.27,-336.34C644.76,-313.82 562.34,-270.15 520.97,-248.23"/>
<polygon fill="midnightblue" stroke="midnightblue" points="522.56,-245.11 512.09,-243.52 519.28,-251.3 522.56,-245.11"/>
</g>
<!-- Node16 -->
<g id="node16" class="node">
<title>Node16</title>
<g id="a_node16"><a xlink:href="Button_8h.html" target="_top" xlink:title=" ">
<polygon fill="none" stroke="black" points="0,-280.5 0,-299.5 116,-299.5 116,-280.5 0,-280.5"/>
<text text-anchor="middle" x="58" y="-287.5" font-family="Helvetica,sans-Serif" font-size="10.00">../../Buttons/Button.h</text>
</a>
</g>
</g>
<!-- Node1&#45;&gt;Node16 -->
<g id="edge32" class="edge">
<title>Node1&#45;&gt;Node16</title>
<path fill="none" stroke="midnightblue" d="M642.23,-343.99C514.99,-332.45 251.51,-308.55 126.58,-297.22"/>
<polygon fill="midnightblue" stroke="midnightblue" points="126.65,-293.71 116.38,-296.29 126.02,-300.68 126.65,-293.71"/>
</g>
<!-- Node17 -->
<g id="node17" class="node">
<title>Node17</title>
<g id="a_node17"><a xlink:href="Timings_8h.html" target="_top" xlink:title=" ">
<polygon fill="none" stroke="black" points="1035,-224.5 1035,-243.5 1145,-243.5 1145,-224.5 1035,-224.5"/>
<text text-anchor="middle" x="1090" y="-231.5" font-family="Helvetica,sans-Serif" font-size="10.00">../../Time/Timings.h</text>
</a>
</g>
</g>
<!-- Node1&#45;&gt;Node17 -->
<g id="edge34" class="edge">
<title>Node1&#45;&gt;Node17</title>
<path fill="none" stroke="midnightblue" d="M785.54,-347.1C845.45,-342.14 932.13,-329.94 1002,-300 1029.65,-288.15 1056.77,-266.08 1073.44,-250.97"/>
<polygon fill="midnightblue" stroke="midnightblue" points="1076.21,-253.18 1081.14,-243.8 1071.44,-248.05 1076.21,-253.18"/>
</g>
<!-- Node18 -->
<g id="node18" class="node">
<title>Node18</title>
<g id="a_node18"><a xlink:href="Menus_8h.html" target="_top" xlink:title=" ">
<polygon fill="none" stroke="black" points="574.5,-224.5 574.5,-243.5 685.5,-243.5 685.5,-224.5 574.5,-224.5"/>
<text text-anchor="middle" x="630" y="-231.5" font-family="Helvetica,sans-Serif" font-size="10.00">../../Menus/Menus.h</text>
</a>
</g>
</g>
<!-- Node1&#45;&gt;Node18 -->
<g id="edge37" class="edge">
<title>Node1&#45;&gt;Node18</title>
<path fill="none" stroke="midnightblue" d="M703.7,-336.34C688.22,-315.05 659.01,-274.89 642.39,-252.03"/>
<polygon fill="midnightblue" stroke="midnightblue" points="645.02,-249.7 636.31,-243.67 639.36,-253.82 645.02,-249.7"/>
</g>
<!-- Node19 -->
<g id="node19" class="node">
<title>Node19</title>
<g id="a_node19"><a xlink:href="Modes_8h.html" target="_top" xlink:title=" ">
<polygon fill="none" stroke="black" points="103.5,-224.5 103.5,-243.5 214.5,-243.5 214.5,-224.5 103.5,-224.5"/>
<text text-anchor="middle" x="159" y="-231.5" font-family="Helvetica,sans-Serif" font-size="10.00">../../Modes/Modes.h</text>
</a>
</g>
</g>
<!-- Node1&#45;&gt;Node19 -->
<g id="edge42" class="edge">
<title>Node1&#45;&gt;Node19</title>
<path fill="none" stroke="midnightblue" d="M642.35,-342.87C573.35,-334.81 466.31,-320.43 375,-300 309.55,-285.36 234.99,-261.21 192.81,-246.84"/>
<polygon fill="midnightblue" stroke="midnightblue" points="193.91,-243.51 183.31,-243.58 191.64,-250.13 193.91,-243.51"/>
</g>
<!-- Node21 -->
<g id="node21" class="node">
<title>Node21</title>
<g id="a_node21"><a xlink:href="Log_8h.html" target="_top" xlink:title=" ">
<polygon fill="none" stroke="black" points="922,-112.5 922,-131.5 994,-131.5 994,-112.5 922,-112.5"/>
<text text-anchor="middle" x="958" y="-119.5" font-family="Helvetica,sans-Serif" font-size="10.00">../Log/Log.h</text>
</a>
</g>
</g>
<!-- Node1&#45;&gt;Node21 -->
<g id="edge58" class="edge">
<title>Node1&#45;&gt;Node21</title>
<path fill="none" stroke="midnightblue" d="M785.92,-343.7C898.7,-331.38 1108.95,-301.19 1154,-244 1175.12,-217.19 1186.42,-194.57 1165,-168 1145.22,-143.45 1059.09,-131.6 1004.35,-126.45"/>
<polygon fill="midnightblue" stroke="midnightblue" points="1004.46,-122.95 994.18,-125.54 1003.83,-129.92 1004.46,-122.95"/>
</g>
<!-- Node22 -->
<g id="node22" class="node">
<title>Node22</title>
<g id="a_node22"><a xlink:href="Leds_8h.html" target="_top" xlink:title=" ">
<polygon fill="none" stroke="black" points="328.5,-168.5 328.5,-187.5 411.5,-187.5 411.5,-168.5 328.5,-168.5"/>
<text text-anchor="middle" x="370" y="-175.5" font-family="Helvetica,sans-Serif" font-size="10.00">../Leds/Leds.h</text>
</a>
</g>
</g>
<!-- Node1&#45;&gt;Node22 -->
<g id="edge57" class="edge">
<title>Node1&#45;&gt;Node22</title>
<path fill="none" stroke="midnightblue" d="M648.94,-336.45C587.49,-320.98 494.75,-291.73 426,-244 407.53,-231.18 391.37,-210.88 381.22,-196.38"/>
<polygon fill="midnightblue" stroke="midnightblue" points="383.95,-194.16 375.46,-187.82 378.14,-198.07 383.95,-194.16"/>
</g>
<!-- Node3 -->
<g id="node3" class="node">
<title>Node3</title>
<g id="a_node3"><a xlink:href="Menu_8h.html" target="_top" xlink:title=" ">
<polygon fill="none" stroke="black" points="761,-224.5 761,-243.5 823,-243.5 823,-224.5 761,-224.5"/>
<text text-anchor="middle" x="792" y="-231.5" font-family="Helvetica,sans-Serif" font-size="10.00">../Menu.h</text>
</a>
</g>
</g>
<!-- Node2&#45;&gt;Node3 -->
<g id="edge2" class="edge">
<title>Node2&#45;&gt;Node3</title>
<path fill="none" stroke="midnightblue" d="M792,-280.08C792,-273.01 792,-262.86 792,-253.99"/>
<polygon fill="midnightblue" stroke="midnightblue" points="795.5,-253.75 792,-243.75 788.5,-253.75 795.5,-253.75"/>
</g>
<!-- Node2&#45;&gt;Node12 -->
<g id="edge18" class="edge">
<title>Node2&#45;&gt;Node12</title>
<path fill="none" stroke="midnightblue" d="M804.16,-280.37C830.65,-261.57 893.78,-216.77 926.52,-193.53"/>
<polygon fill="midnightblue" stroke="midnightblue" points="928.76,-196.23 934.89,-187.59 924.71,-190.52 928.76,-196.23"/>
</g>
<!-- Node4 -->
<g id="node4" class="node">
<title>Node4</title>
<g id="a_node4"><a xlink:title=" ">
<polygon fill="none" stroke="#bfbfbf" points="452.5,-56.5 452.5,-75.5 517.5,-75.5 517.5,-56.5 452.5,-56.5"/>
<text text-anchor="middle" x="485" y="-63.5" font-family="Helvetica,sans-Serif" font-size="10.00">inttypes.h</text>
</a>
</g>
</g>
<!-- Node3&#45;&gt;Node4 -->
<g id="edge3" class="edge">
<title>Node3&#45;&gt;Node4</title>
<path fill="none" stroke="midnightblue" d="M800.56,-224.3C820.7,-202.78 867.21,-146.32 837,-112 816.83,-89.09 616.99,-74.69 527.71,-69.35"/>
<polygon fill="midnightblue" stroke="midnightblue" points="527.83,-65.85 517.64,-68.75 527.42,-72.83 527.83,-65.85"/>
</g>
<!-- Node5 -->
<g id="node5" class="node">
<title>Node5</title>
<g id="a_node5"><a xlink:href="ColorTypes_8h.html" target="_top" xlink:title=" ">
<polygon fill="none" stroke="black" points="582,-112.5 582,-131.5 704,-131.5 704,-112.5 582,-112.5"/>
<text text-anchor="middle" x="643" y="-119.5" font-family="Helvetica,sans-Serif" font-size="10.00">../Colors/ColorTypes.h</text>
</a>
</g>
</g>
<!-- Node3&#45;&gt;Node5 -->
<g id="edge4" class="edge">
<title>Node3&#45;&gt;Node5</title>
<path fill="none" stroke="midnightblue" d="M790.64,-224.16C788.07,-210.34 781.22,-183.57 765,-168 747.92,-151.59 724.34,-141.07 702.46,-134.37"/>
<polygon fill="midnightblue" stroke="midnightblue" points="703.14,-130.93 692.56,-131.56 701.22,-137.66 703.14,-130.93"/>
</g>
<!-- Node8 -->
<g id="node8" class="node">
<title>Node8</title>
<g id="a_node8"><a xlink:href="LedTypes_8h.html" target="_top" xlink:title=" ">
<polygon fill="none" stroke="black" points="722.5,-112.5 722.5,-131.5 827.5,-131.5 827.5,-112.5 722.5,-112.5"/>
<text text-anchor="middle" x="775" y="-119.5" font-family="Helvetica,sans-Serif" font-size="10.00">../Leds/LedTypes.h</text>
</a>
</g>
</g>
<!-- Node3&#45;&gt;Node8 -->
<g id="edge9" class="edge">
<title>Node3&#45;&gt;Node8</title>
<path fill="none" stroke="midnightblue" d="M794.53,-224.46C797.87,-211.91 802.77,-187.83 798,-168 795.69,-158.42 790.98,-148.58 786.42,-140.56"/>
<polygon fill="midnightblue" stroke="midnightblue" points="789.29,-138.54 781.1,-131.81 783.31,-142.17 789.29,-138.54"/>
</g>
<!-- Node3&#45;&gt;Node10 -->
<g id="edge13" class="edge">
<title>Node3&#45;&gt;Node10</title>
<path fill="none" stroke="midnightblue" d="M778.34,-224.32C765.08,-215.9 744.73,-202.97 729.15,-193.07"/>
<polygon fill="midnightblue" stroke="midnightblue" points="730.94,-190.06 720.62,-187.65 727.19,-195.97 730.94,-190.06"/>
</g>
<!-- Node5&#45;&gt;Node4 -->
<g id="edge5" class="edge">
<title>Node5&#45;&gt;Node4</title>
<path fill="none" stroke="midnightblue" d="M617.96,-112.44C591.38,-103.36 549.19,-88.94 519.48,-78.78"/>
<polygon fill="midnightblue" stroke="midnightblue" points="520.51,-75.44 509.92,-75.52 518.25,-82.06 520.51,-75.44"/>
</g>
<!-- Node6 -->
<g id="node6" class="node">
<title>Node6</title>
<g id="a_node6"><a xlink:href="VortexConfig_8h.html" target="_top" xlink:title=" ">
<polygon fill="none" stroke="black" points="909.5,-56.5 909.5,-75.5 1006.5,-75.5 1006.5,-56.5 909.5,-56.5"/>
<text text-anchor="middle" x="958" y="-63.5" font-family="Helvetica,sans-Serif" font-size="10.00">../VortexConfig.h</text>
</a>
</g>
</g>
<!-- Node5&#45;&gt;Node6 -->
<g id="edge6" class="edge">
<title>Node5&#45;&gt;Node6</title>
<path fill="none" stroke="midnightblue" d="M692.91,-112.44C749,-102.83 839.95,-87.24 899.37,-77.05"/>
<polygon fill="midnightblue" stroke="midnightblue" points="900.09,-80.48 909.36,-75.34 898.91,-73.58 900.09,-80.48"/>
</g>
<!-- Node7 -->
<g id="node7" class="node">
<title>Node7</title>
<g id="a_node7"><a xlink:href="ColorConstants_8h.html" target="_top" xlink:title=" ">
<polygon fill="none" stroke="black" points="771,-0.5 771,-19.5 905,-19.5 905,-0.5 771,-0.5"/>
<text text-anchor="middle" x="838" y="-7.5" font-family="Helvetica,sans-Serif" font-size="10.00">Colors/ColorConstants.h</text>
</a>
</g>
</g>
<!-- Node5&#45;&gt;Node7 -->
<g id="edge8" class="edge">
<title>Node5&#45;&gt;Node7</title>
<path fill="none" stroke="midnightblue" d="M658.3,-112.37C692.12,-93.29 773.43,-47.42 814.06,-24.51"/>
<polygon fill="midnightblue" stroke="midnightblue" points="815.78,-27.55 822.77,-19.59 812.34,-21.46 815.78,-27.55"/>
</g>
<!-- Node6&#45;&gt;Node7 -->
<g id="edge7" class="edge">
<title>Node6&#45;&gt;Node7</title>
<path fill="none" stroke="midnightblue" d="M938.99,-56.44C919.41,-47.64 888.69,-33.81 866.27,-23.72"/>
<polygon fill="midnightblue" stroke="midnightblue" points="867.48,-20.43 856.93,-19.52 864.61,-26.81 867.48,-20.43"/>
</g>
<!-- Node8&#45;&gt;Node4 -->
<g id="edge10" class="edge">
<title>Node8&#45;&gt;Node4</title>
<path fill="none" stroke="midnightblue" d="M729.05,-112.44C673.68,-102.13 581.41,-84.95 527.59,-74.93"/>
<polygon fill="midnightblue" stroke="midnightblue" points="528.16,-71.48 517.69,-73.09 526.88,-78.36 528.16,-71.48"/>
</g>
<!-- Node8&#45;&gt;Node6 -->
<g id="edge12" class="edge">
<title>Node8&#45;&gt;Node6</title>
<path fill="none" stroke="midnightblue" d="M804,-112.44C835.18,-103.24 884.93,-88.56 919.41,-78.39"/>
<polygon fill="midnightblue" stroke="midnightblue" points="920.54,-81.7 929.14,-75.52 918.56,-74.99 920.54,-81.7"/>
</g>
<!-- Node9 -->
<g id="node9" class="node">
<title>Node9</title>
<g id="a_node9"><a xlink:title=" ">
<polygon fill="none" stroke="#bfbfbf" points="791,-56.5 791,-75.5 847,-75.5 847,-56.5 791,-56.5"/>
<text text-anchor="middle" x="819" y="-63.5" font-family="Helvetica,sans-Serif" font-size="10.00">stdarg.h</text>
</a>
</g>
</g>
<!-- Node8&#45;&gt;Node9 -->
<g id="edge11" class="edge">
<title>Node8&#45;&gt;Node9</title>
<path fill="none" stroke="midnightblue" d="M782.27,-112.08C788.54,-104.38 797.79,-93.03 805.43,-83.65"/>
<polygon fill="midnightblue" stroke="midnightblue" points="808.27,-85.71 811.87,-75.75 802.84,-81.29 808.27,-85.71"/>
</g>
<!-- Node10&#45;&gt;Node6 -->
<g id="edge17" class="edge">
<title>Node10&#45;&gt;Node6</title>
<path fill="none" stroke="midnightblue" d="M755.51,-173.06C835.31,-166.07 987.1,-150.5 1003,-132 1016.92,-115.81 997.31,-95.3 979.78,-81.69"/>
<polygon fill="midnightblue" stroke="midnightblue" points="981.63,-78.71 971.49,-75.62 977.49,-84.35 981.63,-78.71"/>
</g>
<!-- Node10&#45;&gt;Node8 -->
<g id="edge14" class="edge">
<title>Node10&#45;&gt;Node8</title>
<path fill="none" stroke="midnightblue" d="M717.93,-168.32C728.17,-160.18 743.72,-147.84 756,-138.09"/>
<polygon fill="midnightblue" stroke="midnightblue" points="758.22,-140.79 763.88,-131.83 753.87,-135.31 758.22,-140.79"/>
</g>
<!-- Node11 -->
<g id="node11" class="node">
<title>Node11</title>
<g id="a_node11"><a xlink:href="Patterns_8h.html" target="_top" xlink:title=" ">
<polygon fill="none" stroke="black" points="308.5,-112.5 308.5,-131.5 425.5,-131.5 425.5,-112.5 308.5,-112.5"/>
<text text-anchor="middle" x="367" y="-119.5" font-family="Helvetica,sans-Serif" font-size="10.00">../Patterns/Patterns.h</text>
</a>
</g>
</g>
<!-- Node10&#45;&gt;Node11 -->
<g id="edge15" class="edge">
<title>Node10&#45;&gt;Node11</title>
<path fill="none" stroke="midnightblue" d="M658.29,-169.26C598.5,-159.77 496.96,-143.64 430.95,-133.16"/>
<polygon fill="midnightblue" stroke="midnightblue" points="431.1,-129.64 420.67,-131.52 430,-136.55 431.1,-129.64"/>
</g>
<!-- Node11&#45;&gt;Node4 -->
<g id="edge16" class="edge">
<title>Node11&#45;&gt;Node4</title>
<path fill="none" stroke="midnightblue" d="M385.7,-112.44C404.94,-103.64 435.15,-89.81 457.2,-79.72"/>
<polygon fill="midnightblue" stroke="midnightblue" points="458.75,-82.86 466.39,-75.52 455.84,-76.5 458.75,-82.86"/>
</g>
<!-- Node12&#45;&gt;Node5 -->
<g id="edge19" class="edge">
<title>Node12&#45;&gt;Node5</title>
<path fill="none" stroke="midnightblue" d="M898.83,-168.44C845.13,-158.9 758.31,-143.48 700.95,-133.29"/>
<polygon fill="midnightblue" stroke="midnightblue" points="701.4,-129.82 690.94,-131.52 700.18,-136.71 701.4,-129.82"/>
</g>
<!-- Node12&#45;&gt;Node6 -->
<g id="edge20" class="edge">
<title>Node12&#45;&gt;Node6</title>
<path fill="none" stroke="midnightblue" d="M983.7,-168.35C1002.83,-161.77 1024.57,-150.58 1036,-132 1049.94,-109.33 1020.32,-90.8 993.66,-79.4"/>
<polygon fill="midnightblue" stroke="midnightblue" points="994.64,-76.02 984.06,-75.53 992.02,-82.52 994.64,-76.02"/>
</g>
<!-- Node13&#45;&gt;Node4 -->
<g id="edge22" class="edge">
<title>Node13&#45;&gt;Node4</title>
<path fill="none" stroke="midnightblue" d="M1047.14,-168.45C1010.87,-160.66 957.8,-147.96 913,-132 893.14,-124.93 890.28,-117.74 870,-112 749.04,-77.76 599.6,-69.53 527.66,-67.58"/>
<polygon fill="midnightblue" stroke="midnightblue" points="527.7,-64.08 517.62,-67.34 527.53,-71.08 527.7,-64.08"/>
</g>
<!-- Node13&#45;&gt;Node6 -->
<g id="edge23" class="edge">
<title>Node13&#45;&gt;Node6</title>
<path fill="none" stroke="midnightblue" d="M1086.72,-168.34C1081.2,-154.77 1068.87,-128.34 1051,-112 1035.06,-97.43 1013.55,-86.62 995.23,-79.24"/>
<polygon fill="midnightblue" stroke="midnightblue" points="996.31,-75.91 985.72,-75.6 993.8,-82.44 996.31,-75.91"/>
</g>
<!-- Node13&#45;&gt;Node8 -->
<g id="edge24" class="edge">
<title>Node13&#45;&gt;Node8</title>
<path fill="none" stroke="midnightblue" d="M1040.09,-168.44C984.33,-158.89 894.11,-143.42 834.67,-133.23"/>
<polygon fill="midnightblue" stroke="midnightblue" points="835.13,-129.76 824.68,-131.52 833.94,-136.66 835.13,-129.76"/>
</g>
<!-- Node14&#45;&gt;Node8 -->
<g id="edge26" class="edge">
<title>Node14&#45;&gt;Node8</title>
<path fill="none" stroke="midnightblue" d="M512.26,-224.48C537.76,-211.33 588.9,-185.73 634,-168 667.37,-154.88 706.26,-142.69 734.73,-134.32"/>
<polygon fill="midnightblue" stroke="midnightblue" points="735.72,-137.68 744.34,-131.52 733.76,-130.96 735.72,-137.68"/>
</g>
<!-- Node14&#45;&gt;Node11 -->
<g id="edge28" class="edge">
<title>Node14&#45;&gt;Node11</title>
<path fill="none" stroke="midnightblue" d="M485.68,-224.16C471.08,-211.64 443.52,-188.04 420,-168 408.37,-158.09 395.29,-146.98 385.03,-138.28"/>
<polygon fill="midnightblue" stroke="midnightblue" points="387.06,-135.41 377.17,-131.62 382.53,-140.75 387.06,-135.41"/>
</g>
<!-- Node14&#45;&gt;Node12 -->
<g id="edge27" class="edge">
<title>Node14&#45;&gt;Node12</title>
<path fill="none" stroke="midnightblue" d="M556.7,-225.16C559.85,-224.76 562.96,-224.37 566,-224 674.97,-210.56 801.59,-195.77 877.94,-186.94"/>
<polygon fill="midnightblue" stroke="midnightblue" points="878.38,-190.41 887.91,-185.79 877.57,-183.46 878.38,-190.41"/>
</g>
<!-- Node15 -->
<g id="node15" class="node">
<title>Node15</title>
<g id="a_node15"><a xlink:href="PatternArgs_8h.html" target="_top" xlink:title=" ">
<polygon fill="none" stroke="black" points="444,-112.5 444,-131.5 526,-131.5 526,-112.5 444,-112.5"/>
<text text-anchor="middle" x="485" y="-119.5" font-family="Helvetica,sans-Serif" font-size="10.00">PatternArgs.h</text>
</a>
</g>
</g>
<!-- Node14&#45;&gt;Node15 -->
<g id="edge29" class="edge">
<title>Node14&#45;&gt;Node15</title>
<path fill="none" stroke="midnightblue" d="M495.14,-224.37C493.36,-206.62 489.27,-165.67 486.86,-141.6"/>
<polygon fill="midnightblue" stroke="midnightblue" points="490.34,-141.19 485.86,-131.59 483.37,-141.89 490.34,-141.19"/>
</g>
<!-- Node15&#45;&gt;Node4 -->
<g id="edge30" class="edge">
<title>Node15&#45;&gt;Node4</title>
<path fill="none" stroke="midnightblue" d="M485,-112.08C485,-105.01 485,-94.86 485,-85.99"/>
<polygon fill="midnightblue" stroke="midnightblue" points="488.5,-85.75 485,-75.75 481.5,-85.75 488.5,-85.75"/>
</g>
<!-- Node16&#45;&gt;Node4 -->
<g id="edge33" class="edge">
<title>Node16&#45;&gt;Node4</title>
<path fill="none" stroke="midnightblue" d="M54.08,-280.22C42.04,-251.72 8.96,-160.87 53,-112 78.78,-83.4 338.38,-71.79 442.32,-68.27"/>
<polygon fill="midnightblue" stroke="midnightblue" points="442.58,-71.76 452.46,-67.93 442.35,-64.76 442.58,-71.76"/>
</g>
<!-- Node17&#45;&gt;Node6 -->
<g id="edge36" class="edge">
<title>Node17&#45;&gt;Node6</title>
<path fill="none" stroke="midnightblue" d="M1115.04,-224.38C1142.01,-213.58 1179.27,-193.39 1165,-168 1134.94,-114.52 1066.56,-88.86 1016.59,-76.89"/>
<polygon fill="midnightblue" stroke="midnightblue" points="1017.07,-73.41 1006.54,-74.61 1015.51,-80.24 1017.07,-73.41"/>
</g>
<!-- Node17&#45;&gt;Node13 -->
<g id="edge35" class="edge">
<title>Node17&#45;&gt;Node13</title>
<path fill="none" stroke="midnightblue" d="M1090,-224.08C1090,-217.01 1090,-206.86 1090,-197.99"/>
<polygon fill="midnightblue" stroke="midnightblue" points="1093.5,-197.75 1090,-187.75 1086.5,-197.75 1093.5,-197.75"/>
</g>
<!-- Node18&#45;&gt;Node4 -->
<g id="edge38" class="edge">
<title>Node18&#45;&gt;Node4</title>
<path fill="none" stroke="midnightblue" d="M624.02,-224.38C609.69,-203.96 571.85,-151.41 535,-112 525.25,-101.58 513.42,-90.85 503.71,-82.48"/>
<polygon fill="midnightblue" stroke="midnightblue" points="505.72,-79.6 495.83,-75.81 501.2,-84.94 505.72,-79.6"/>
</g>
<!-- Node18&#45;&gt;Node5 -->
<g id="edge39" class="edge">
<title>Node18&#45;&gt;Node5</title>
<path fill="none" stroke="midnightblue" d="M625.37,-224.09C619.43,-211.49 610.52,-187.8 616,-168 618.79,-157.92 624.51,-147.83 629.97,-139.77"/>
<polygon fill="midnightblue" stroke="midnightblue" points="632.82,-141.79 635.85,-131.64 627.15,-137.69 632.82,-141.79"/>
</g>
<!-- Node18&#45;&gt;Node8 -->
<g id="edge40" class="edge">
<title>Node18&#45;&gt;Node8</title>
<path fill="none" stroke="midnightblue" d="M630.3,-224.2C631.23,-210.42 635,-183.72 650,-168 666.5,-150.7 690.14,-140.03 712.42,-133.46"/>
<polygon fill="midnightblue" stroke="midnightblue" points="713.46,-136.81 722.2,-130.81 711.63,-130.05 713.46,-136.81"/>
</g>
<!-- Node18&#45;&gt;Node10 -->
<g id="edge41" class="edge">
<title>Node18&#45;&gt;Node10</title>
<path fill="none" stroke="midnightblue" d="M642.37,-224.32C654.16,-216.06 672.13,-203.45 686.14,-193.63"/>
<polygon fill="midnightblue" stroke="midnightblue" points="688.48,-196.26 694.66,-187.65 684.46,-190.53 688.48,-196.26"/>
</g>
<!-- Node19&#45;&gt;Node4 -->
<g id="edge55" class="edge">
<title>Node19&#45;&gt;Node4</title>
<path fill="none" stroke="midnightblue" d="M121.9,-224.46C102.56,-217.92 80.57,-206.72 69,-188 51.24,-159.27 46.44,-137.14 69,-112 93.63,-84.56 340.93,-72.34 442.15,-68.46"/>
<polygon fill="midnightblue" stroke="midnightblue" points="442.47,-71.95 452.33,-68.08 442.21,-64.95 442.47,-71.95"/>
</g>
<!-- Node19&#45;&gt;Node5 -->
<g id="edge48" class="edge">
<title>Node19&#45;&gt;Node5</title>
<path fill="none" stroke="midnightblue" d="M158.71,-224.21C158.76,-209.94 161.15,-181.94 178,-168 181.75,-164.89 442.23,-141.06 571.64,-129.4"/>
<polygon fill="midnightblue" stroke="midnightblue" points="572.21,-132.86 581.86,-128.48 571.58,-125.89 572.21,-132.86"/>
</g>
<!-- Node19&#45;&gt;Node6 -->
<g id="edge54" class="edge">
<title>Node19&#45;&gt;Node6</title>
<path fill="none" stroke="midnightblue" d="M151.17,-224.29C140.31,-211.1 123.34,-185.73 136,-168 180.5,-105.65 223.89,-127.05 299,-112 542.24,-63.27 608.65,-94.9 856,-76 869.98,-74.93 885.02,-73.67 899.15,-72.43"/>
<polygon fill="midnightblue" stroke="midnightblue" points="899.6,-75.9 909.25,-71.54 898.98,-68.93 899.6,-75.9"/>
</g>
<!-- Node19&#45;&gt;Node11 -->
<g id="edge49" class="edge">
<title>Node19&#45;&gt;Node11</title>
<path fill="none" stroke="midnightblue" d="M153.11,-224.37C144.67,-210.83 131.56,-184.44 145,-168 164.14,-144.59 240.38,-133.07 298.22,-127.6"/>
<polygon fill="midnightblue" stroke="midnightblue" points="298.78,-131.06 308.42,-126.68 298.15,-124.09 298.78,-131.06"/>
</g>
<!-- Node20 -->
<g id="node20" class="node">
<title>Node20</title>
<g id="a_node20"><a xlink:href="ByteStream_8h.html" target="_top" xlink:title=" ">
<polygon fill="none" stroke="black" points="187.5,-168.5 187.5,-187.5 310.5,-187.5 310.5,-168.5 187.5,-168.5"/>
<text text-anchor="middle" x="249" y="-175.5" font-family="Helvetica,sans-Serif" font-size="10.00">../Serial/ByteStream.h</text>
</a>
</g>
</g>
<!-- Node19&#45;&gt;Node20 -->
<g id="edge43" class="edge">
<title>Node19&#45;&gt;Node20</title>
<path fill="none" stroke="midnightblue" d="M173.46,-224.32C187.5,-215.9 209.05,-202.97 225.54,-193.07"/>
<polygon fill="midnightblue" stroke="midnightblue" points="227.8,-195.8 234.58,-187.65 224.2,-189.8 227.8,-195.8"/>
</g>
<!-- Node19&#45;&gt;Node22 -->
<g id="edge50" class="edge">
<title>Node19&#45;&gt;Node22</title>
<path fill="none" stroke="midnightblue" d="M192.43,-224.44C228.86,-215.12 287.23,-200.18 327.03,-190"/>
<polygon fill="midnightblue" stroke="midnightblue" points="327.9,-193.39 336.72,-187.52 326.17,-186.61 327.9,-193.39"/>
</g>
<!-- Node20&#45;&gt;Node4 -->
<g id="edge44" class="edge">
<title>Node20&#45;&gt;Node4</title>
<path fill="none" stroke="midnightblue" d="M252.12,-168.3C257.65,-154.17 270.55,-126.37 291,-112 336.12,-80.3 400.31,-70.63 442.31,-67.85"/>
<polygon fill="midnightblue" stroke="midnightblue" points="442.69,-71.33 452.48,-67.28 442.3,-64.34 442.69,-71.33"/>
</g>
<!-- Node20&#45;&gt;Node21 -->
<g id="edge45" class="edge">
<title>Node20&#45;&gt;Node21</title>
<path fill="none" stroke="midnightblue" d="M310.81,-168.85C313.58,-168.55 316.32,-168.27 319,-168 548.66,-145.28 606.82,-148.56 837,-132 861.69,-130.22 889.21,-128.18 911.75,-126.49"/>
<polygon fill="midnightblue" stroke="midnightblue" points="912.02,-129.98 921.73,-125.74 911.5,-123 912.02,-129.98"/>
</g>
<!-- Node21&#45;&gt;Node6 -->
<g id="edge47" class="edge">
<title>Node21&#45;&gt;Node6</title>
<path fill="none" stroke="midnightblue" d="M958,-112.08C958,-105.01 958,-94.86 958,-85.99"/>
<polygon fill="midnightblue" stroke="midnightblue" points="961.5,-85.75 958,-75.75 954.5,-85.75 961.5,-85.75"/>
</g>
<!-- Node21&#45;&gt;Node9 -->
<g id="edge46" class="edge">
<title>Node21&#45;&gt;Node9</title>
<path fill="none" stroke="midnightblue" d="M935.98,-112.44C912.9,-103.48 876.44,-89.31 850.36,-79.18"/>
<polygon fill="midnightblue" stroke="midnightblue" points="851.51,-75.88 840.92,-75.52 848.98,-82.4 851.51,-75.88"/>
</g>
<!-- Node22&#45;&gt;Node4 -->
<g id="edge51" class="edge">
<title>Node22&#45;&gt;Node4</title>
<path fill="none" stroke="midnightblue" d="M347.74,-168.5C320.73,-156.92 280.91,-134.98 299,-112 316.5,-89.76 393.1,-77.19 442.37,-71.27"/>
<polygon fill="midnightblue" stroke="midnightblue" points="442.91,-74.73 452.44,-70.11 442.11,-67.78 442.91,-74.73"/>
</g>
<!-- Node22&#45;&gt;Node5 -->
<g id="edge52" class="edge">
<title>Node22&#45;&gt;Node5</title>
<path fill="none" stroke="midnightblue" d="M411.76,-168.74C459.51,-159.29 537.78,-143.81 589.85,-133.51"/>
<polygon fill="midnightblue" stroke="midnightblue" points="590.76,-136.9 599.89,-131.53 589.4,-130.03 590.76,-136.9"/>
</g>
<!-- Node22&#45;&gt;Node8 -->
<g id="edge53" class="edge">
<title>Node22&#45;&gt;Node8</title>
<path fill="none" stroke="midnightblue" d="M411.74,-171.71C474.51,-163.72 597.22,-147.93 712.21,-132.09"/>
<polygon fill="midnightblue" stroke="midnightblue" points="712.81,-135.54 722.24,-130.71 711.86,-128.61 712.81,-135.54"/>
</g>
</g>
</svg>
