<?xml version="1.0" encoding="UTF-8" standalone="no"?>
<!DOCTYPE svg PUBLIC "-//W3C//DTD SVG 1.1//EN"
 "http://www.w3.org/Graphics/SVG/1.1/DTD/svg11.dtd">
<!-- Generated by graphviz version 2.43.0 (0)
 -->
<!-- Title: VortexEngine/src/Menus/MenuList/ColorSelect.cpp Pages: 1 -->
<!--zoomable 375 -->
<svg id="main" version="1.1" xmlns="http://www.w3.org/2000/svg" xmlns:xlink="http://www.w3.org/1999/xlink" xml:space="preserve" onload="init(evt)">
<style type="text/css"><![CDATA[
.edge:hover path { stroke: red; }
.edge:hover polygon { stroke: red; fill: red; }
]]></style>
<script type="text/javascript"><![CDATA[
var edges = document.getElementsByTagName('g');
if (edges && edges.length) {
  for (var i=0;i<edges.length;i++) {
    if (edges[i].id.substr(0,4)=='edge') {
      edges[i].setAttribute('class','edge');
    }
  }
}
]]></script>
        <defs>
                <circle id="rim" cx="0" cy="0" r="7"/>
                <circle id="rim2" cx="0" cy="0" r="3.5"/>
                <g id="zoomPlus">
                        <use xlink:href="#rim" fill="#404040">
                                <set attributeName="fill" to="#808080" begin="zoomplus.mouseover" end="zoomplus.mouseout"/>
                        </use>
                        <path d="M-4,0h8M0,-4v8" fill="none" stroke="white" stroke-width="1.5" pointer-events="none"/>
                </g>
                <g id="zoomMin">
                        <use xlink:href="#rim" fill="#404040">
                                <set attributeName="fill" to="#808080" begin="zoomminus.mouseover" end="zoomminus.mouseout"/>
                        </use>
                        <path d="M-4,0h8" fill="none" stroke="white" stroke-width="1.5" pointer-events="none"/>
                </g>
                <g id="dirArrow">
                        <path fill="none" stroke="white" stroke-width="1.5" d="M0,-3.0v7 M-2.5,-0.5L0,-3.0L2.5,-0.5"/>
                </g>
               <g id="resetDef">
                       <use xlink:href="#rim2" fill="#404040">
                               <set attributeName="fill" to="#808080" begin="reset.mouseover" end="reset.mouseout"/>
                       </use>
               </g>
        </defs>

<script type="text/javascript">
var viewWidth = 1209;
var viewHeight = 375;
var sectionId = 'dynsection-0';
</script>
<script xlink:href="svgpan.js"/>
<svg id="graph" class="graph">
<g id="viewport">
<title>VortexEngine/src/Menus/MenuList/ColorSelect.cpp</title>
<!-- Node1 -->
<g id="node1" class="node">
<title>Node1</title>
<g id="a_node1"><a xlink:title=" ">
<polygon fill="#bfbfbf" stroke="black" points="579.5,-336.5 579.5,-366.5 722.5,-366.5 722.5,-336.5 579.5,-336.5"/>
<text text-anchor="start" x="587.5" y="-354.5" font-family="Helvetica,sans-Serif" font-size="10.00">VortexEngine/src/Menus</text>
<text text-anchor="middle" x="651" y="-343.5" font-family="Helvetica,sans-Serif" font-size="10.00">/MenuList/ColorSelect.cpp</text>
</a>
</g>
</g>
<!-- Node2 -->
<g id="node2" class="node">
<title>Node2</title>
<g id="a_node2"><a xlink:href="ColorSelect_8h.html" target="_top" xlink:title=" ">
<polygon fill="none" stroke="black" points="843.5,-280.5 843.5,-299.5 924.5,-299.5 924.5,-280.5 843.5,-280.5"/>
<text text-anchor="middle" x="884" y="-287.5" font-family="Helvetica,sans-Serif" font-size="10.00">ColorSelect.h</text>
</a>
</g>
</g>
<!-- Node1&#45;&gt;Node2 -->
<g id="edge1" class="edge">
<title>Node1&#45;&gt;Node2</title>
<path fill="none" stroke="midnightblue" d="M705.92,-336.47C747.17,-325.94 802.88,-311.72 840.93,-302"/>
<polygon fill="midnightblue" stroke="midnightblue" points="841.87,-305.37 850.69,-299.51 840.13,-298.59 841.87,-305.37"/>
</g>
<!-- Node10 -->
<g id="node10" class="node">
<title>Node10</title>
<g id="a_node10"><a xlink:href="Mode_8h.html" target="_top" xlink:title=" ">
<polygon fill="none" stroke="black" points="766.5,-168.5 766.5,-187.5 863.5,-187.5 863.5,-168.5 766.5,-168.5"/>
<text text-anchor="middle" x="815" y="-175.5" font-family="Helvetica,sans-Serif" font-size="10.00">../Modes/Mode.h</text>
</a>
</g>
</g>
<!-- Node1&#45;&gt;Node10 -->
<g id="edge59" class="edge">
<title>Node1&#45;&gt;Node10</title>
<path fill="none" stroke="midnightblue" d="M680.25,-336.48C713.18,-319.22 765.99,-286.86 796,-244 805.59,-230.31 810.39,-211.77 812.76,-198"/>
<polygon fill="midnightblue" stroke="midnightblue" points="816.27,-198.16 814.23,-187.76 809.34,-197.16 816.27,-198.16"/>
</g>
<!-- Node12 -->
<g id="node12" class="node">
<title>Node12</title>
<g id="a_node12"><a xlink:href="Colorset_8h.html" target="_top" xlink:title=" ">
<polygon fill="none" stroke="black" points="920,-168.5 920,-187.5 1038,-187.5 1038,-168.5 920,-168.5"/>
<text text-anchor="middle" x="979" y="-175.5" font-family="Helvetica,sans-Serif" font-size="10.00">../../Colors/Colorset.h</text>
</a>
</g>
</g>
<!-- Node1&#45;&gt;Node12 -->
<g id="edge31" class="edge">
<title>Node1&#45;&gt;Node12</title>
<path fill="none" stroke="midnightblue" d="M722.54,-345.76C795.6,-339.54 902.63,-326.19 934,-300 965.01,-274.11 974.66,-224.69 977.66,-197.71"/>
<polygon fill="midnightblue" stroke="midnightblue" points="981.15,-197.94 978.58,-187.66 974.18,-197.3 981.15,-197.94"/>
</g>
<!-- Node13 -->
<g id="node13" class="node">
<title>Node13</title>
<g id="a_node13"><a xlink:href="TimeControl_8h.html" target="_top" xlink:title=" ">
<polygon fill="none" stroke="black" points="1056.5,-168.5 1056.5,-187.5 1187.5,-187.5 1187.5,-168.5 1056.5,-168.5"/>
<text text-anchor="middle" x="1122" y="-175.5" font-family="Helvetica,sans-Serif" font-size="10.00">../../Time/TimeControl.h</text>
</a>
</g>
</g>
<!-- Node1&#45;&gt;Node13 -->
<g id="edge21" class="edge">
<title>Node1&#45;&gt;Node13</title>
<path fill="none" stroke="midnightblue" d="M722.69,-348.17C786.25,-343.91 880.43,-332.15 956,-300 1008.02,-277.87 1012.21,-257.15 1058,-224 1072.34,-213.62 1088.67,-202.14 1101.25,-193.38"/>
<polygon fill="midnightblue" stroke="midnightblue" points="1103.45,-196.11 1109.66,-187.53 1099.45,-190.36 1103.45,-196.11"/>
</g>
<!-- Node14 -->
<g id="node14" class="node">
<title>Node14</title>
<g id="a_node14"><a xlink:href="Pattern_8h.html" target="_top" xlink:title=" ">
<polygon fill="none" stroke="black" points="379.5,-224.5 379.5,-243.5 500.5,-243.5 500.5,-224.5 379.5,-224.5"/>
<text text-anchor="middle" x="440" y="-231.5" font-family="Helvetica,sans-Serif" font-size="10.00">../../Patterns/Pattern.h</text>
</a>
</g>
</g>
<!-- Node1&#45;&gt;Node14 -->
<g id="edge25" class="edge">
<title>Node1&#45;&gt;Node14</title>
<path fill="none" stroke="midnightblue" d="M600.28,-336.45C573.83,-327.96 541.54,-315.73 515,-300 491.99,-286.37 469.3,-265.36 455.01,-250.94"/>
<polygon fill="midnightblue" stroke="midnightblue" points="457.46,-248.44 447.99,-243.7 452.44,-253.31 457.46,-248.44"/>
</g>
<!-- Node16 -->
<g id="node16" class="node">
<title>Node16</title>
<g id="a_node16"><a xlink:href="Button_8h.html" target="_top" xlink:title=" ">
<polygon fill="none" stroke="black" points="0,-280.5 0,-299.5 116,-299.5 116,-280.5 0,-280.5"/>
<text text-anchor="middle" x="58" y="-287.5" font-family="Helvetica,sans-Serif" font-size="10.00">../../Buttons/Button.h</text>
</a>
</g>
</g>
<!-- Node1&#45;&gt;Node16 -->
<g id="edge32" class="edge">
<title>Node1&#45;&gt;Node16</title>
<path fill="none" stroke="midnightblue" d="M579.47,-343.32C464.31,-331.77 239.32,-309.19 126.27,-297.85"/>
<polygon fill="midnightblue" stroke="midnightblue" points="126.32,-294.34 116.02,-296.82 125.62,-301.3 126.32,-294.34"/>
</g>
<!-- Node17 -->
<g id="node17" class="node">
<title>Node17</title>
<g id="a_node17"><a xlink:href="Timings_8h.html" target="_top" xlink:title=" ">
<polygon fill="none" stroke="black" points="1067,-224.5 1067,-243.5 1177,-243.5 1177,-224.5 1067,-224.5"/>
<text text-anchor="middle" x="1122" y="-231.5" font-family="Helvetica,sans-Serif" font-size="10.00">../../Time/Timings.h</text>
</a>
</g>
</g>
<!-- Node1&#45;&gt;Node17 -->
<g id="edge34" class="edge">
<title>Node1&#45;&gt;Node17</title>
<path fill="none" stroke="midnightblue" d="M722.79,-345.56C818.35,-338.23 981.71,-322.82 1037,-300 1064.49,-288.65 1090.84,-266.08 1106.72,-250.76"/>
<polygon fill="midnightblue" stroke="midnightblue" points="1109.4,-253.03 1114.03,-243.5 1104.47,-248.07 1109.4,-253.03"/>
</g>
<!-- Node18 -->
<g id="node18" class="node">
<title>Node18</title>
<g id="a_node18"><a xlink:href="Menus_8h.html" target="_top" xlink:title=" ">
<polygon fill="none" stroke="black" points="595.5,-224.5 595.5,-243.5 706.5,-243.5 706.5,-224.5 595.5,-224.5"/>
<text text-anchor="middle" x="651" y="-231.5" font-family="Helvetica,sans-Serif" font-size="10.00">../../Menus/Menus.h</text>
</a>
</g>
</g>
<!-- Node1&#45;&gt;Node18 -->
<g id="edge37" class="edge">
<title>Node1&#45;&gt;Node18</title>
<path fill="none" stroke="midnightblue" d="M651,-336.34C651,-315.62 651,-277.02 651,-253.9"/>
<polygon fill="midnightblue" stroke="midnightblue" points="654.5,-253.67 651,-243.67 647.5,-253.67 654.5,-253.67"/>
</g>
<!-- Node19 -->
<g id="node19" class="node">
<title>Node19</title>
<g id="a_node19"><a xlink:href="Modes_8h.html" target="_top" xlink:title=" ">
<polygon fill="none" stroke="black" points="224.5,-280.5 224.5,-299.5 335.5,-299.5 335.5,-280.5 224.5,-280.5"/>
<text text-anchor="middle" x="280" y="-287.5" font-family="Helvetica,sans-Serif" font-size="10.00">../../Modes/Modes.h</text>
</a>
</g>
</g>
<!-- Node1&#45;&gt;Node19 -->
<g id="edge42" class="edge">
<title>Node1&#45;&gt;Node19</title>
<path fill="none" stroke="midnightblue" d="M579.47,-339.03C511.01,-328.05 408.75,-311.65 343.21,-301.14"/>
<polygon fill="midnightblue" stroke="midnightblue" points="343.45,-297.63 333.02,-299.5 342.34,-304.54 343.45,-297.63"/>
</g>
<!-- Node21 -->
<g id="node21" class="node">
<title>Node21</title>
<g id="a_node21"><a xlink:href="Log_8h.html" target="_top" xlink:title=" ">
<polygon fill="none" stroke="black" points="562,-168.5 562,-187.5 634,-187.5 634,-168.5 562,-168.5"/>
<text text-anchor="middle" x="598" y="-175.5" font-family="Helvetica,sans-Serif" font-size="10.00">../Log/Log.h</text>
</a>
</g>
</g>
<!-- Node1&#45;&gt;Node21 -->
<g id="edge61" class="edge">
<title>Node1&#45;&gt;Node21</title>
<path fill="none" stroke="midnightblue" d="M638.86,-336.19C623.29,-316.79 597.09,-280.38 587,-244 582.7,-228.49 586.44,-210.41 590.69,-197.26"/>
<polygon fill="midnightblue" stroke="midnightblue" points="594.1,-198.13 594.21,-187.54 587.51,-195.75 594.1,-198.13"/>
</g>
<!-- Node23 -->
<g id="node23" class="node">
<title>Node23</title>
<g id="a_node23"><a xlink:href="Leds_8h.html" target="_top" xlink:title=" ">
<polygon fill="none" stroke="black" points="346.5,-168.5 346.5,-187.5 429.5,-187.5 429.5,-168.5 346.5,-168.5"/>
<text text-anchor="middle" x="388" y="-175.5" font-family="Helvetica,sans-Serif" font-size="10.00">../Leds/Leds.h</text>
</a>
</g>
</g>
<!-- Node1&#45;&gt;Node23 -->
<g id="edge60" class="edge">
<title>Node1&#45;&gt;Node23</title>
<path fill="none" stroke="midnightblue" d="M635.62,-336.21C601.86,-304.93 523.14,-232.51 509,-224 484.44,-209.22 454.23,-197.97 430.13,-190.42"/>
<polygon fill="midnightblue" stroke="midnightblue" points="431.14,-187.07 420.55,-187.51 429.1,-193.77 431.14,-187.07"/>
</g>
<!-- Node3 -->
<g id="node3" class="node">
<title>Node3</title>
<g id="a_node3"><a xlink:href="Menu_8h.html" target="_top" xlink:title=" ">
<polygon fill="none" stroke="black" points="725,-224.5 725,-243.5 787,-243.5 787,-224.5 725,-224.5"/>
<text text-anchor="middle" x="756" y="-231.5" font-family="Helvetica,sans-Serif" font-size="10.00">../Menu.h</text>
</a>
</g>
</g>
<!-- Node2&#45;&gt;Node3 -->
<g id="edge2" class="edge">
<title>Node2&#45;&gt;Node3</title>
<path fill="none" stroke="midnightblue" d="M863.72,-280.44C842.65,-271.56 809.48,-257.56 785.51,-247.45"/>
<polygon fill="midnightblue" stroke="midnightblue" points="786.76,-244.18 776.19,-243.52 784.04,-250.63 786.76,-244.18"/>
</g>
<!-- Node2&#45;&gt;Node12 -->
<g id="edge18" class="edge">
<title>Node2&#45;&gt;Node12</title>
<path fill="none" stroke="midnightblue" d="M891.45,-280.37C907.27,-262.05 944.41,-219.05 964.87,-195.36"/>
<polygon fill="midnightblue" stroke="midnightblue" points="967.69,-197.45 971.58,-187.59 962.4,-192.87 967.69,-197.45"/>
</g>
<!-- Node4 -->
<g id="node4" class="node">
<title>Node4</title>
<g id="a_node4"><a xlink:title=" ">
<polygon fill="none" stroke="#bfbfbf" points="304.5,-56.5 304.5,-75.5 369.5,-75.5 369.5,-56.5 304.5,-56.5"/>
<text text-anchor="middle" x="337" y="-63.5" font-family="Helvetica,sans-Serif" font-size="10.00">inttypes.h</text>
</a>
</g>
</g>
<!-- Node3&#45;&gt;Node4 -->
<g id="edge3" class="edge">
<title>Node3&#45;&gt;Node4</title>
<path fill="none" stroke="midnightblue" d="M724.58,-225.81C721.68,-225.18 718.79,-224.57 716,-224 629.66,-206.32 604.36,-216.6 521,-188 469.86,-170.46 457.84,-162.21 413,-132 390.89,-117.1 367.96,-96.69 353.15,-82.74"/>
<polygon fill="midnightblue" stroke="midnightblue" points="355.46,-80.11 345.81,-75.73 350.62,-85.17 355.46,-80.11"/>
</g>
<!-- Node5 -->
<g id="node5" class="node">
<title>Node5</title>
<g id="a_node5"><a xlink:href="ColorTypes_8h.html" target="_top" xlink:title=" ">
<polygon fill="none" stroke="black" points="422,-112.5 422,-131.5 544,-131.5 544,-112.5 422,-112.5"/>
<text text-anchor="middle" x="483" y="-119.5" font-family="Helvetica,sans-Serif" font-size="10.00">../Colors/ColorTypes.h</text>
</a>
</g>
</g>
<!-- Node3&#45;&gt;Node5 -->
<g id="edge4" class="edge">
<title>Node3&#45;&gt;Node5</title>
<path fill="none" stroke="midnightblue" d="M724.99,-226.01C721.96,-225.33 718.92,-224.65 716,-224 643.59,-207.86 618.71,-222.45 553,-188 530.16,-176.03 509.24,-154.62 496.34,-139.66"/>
<polygon fill="midnightblue" stroke="midnightblue" points="498.8,-137.15 489.71,-131.71 493.43,-141.63 498.8,-137.15"/>
</g>
<!-- Node8 -->
<g id="node8" class="node">
<title>Node8</title>
<g id="a_node8"><a xlink:href="LedTypes_8h.html" target="_top" xlink:title=" ">
<polygon fill="none" stroke="black" points="768.5,-112.5 768.5,-131.5 873.5,-131.5 873.5,-112.5 768.5,-112.5"/>
<text text-anchor="middle" x="821" y="-119.5" font-family="Helvetica,sans-Serif" font-size="10.00">../Leds/LedTypes.h</text>
</a>
</g>
</g>
<!-- Node3&#45;&gt;Node8 -->
<g id="edge9" class="edge">
<title>Node3&#45;&gt;Node8</title>
<path fill="none" stroke="midnightblue" d="M753.98,-224.39C751.39,-211.33 748.32,-186.12 758,-168 765.34,-154.26 778.94,-143.74 791.63,-136.34"/>
<polygon fill="midnightblue" stroke="midnightblue" points="793.47,-139.33 800.61,-131.5 790.15,-133.16 793.47,-139.33"/>
</g>
<!-- Node3&#45;&gt;Node10 -->
<g id="edge13" class="edge">
<title>Node3&#45;&gt;Node10</title>
<path fill="none" stroke="midnightblue" d="M765.48,-224.32C774.2,-216.34 787.34,-204.31 797.9,-194.65"/>
<polygon fill="midnightblue" stroke="midnightblue" points="800.33,-197.17 805.35,-187.83 795.61,-192 800.33,-197.17"/>
</g>
<!-- Node5&#45;&gt;Node4 -->
<g id="edge5" class="edge">
<title>Node5&#45;&gt;Node4</title>
<path fill="none" stroke="midnightblue" d="M459.87,-112.44C435.52,-103.44 396.99,-89.19 369.58,-79.05"/>
<polygon fill="midnightblue" stroke="midnightblue" points="370.62,-75.7 360.03,-75.52 368.19,-82.27 370.62,-75.7"/>
</g>
<!-- Node6 -->
<g id="node6" class="node">
<title>Node6</title>
<g id="a_node6"><a xlink:href="VortexConfig_8h.html" target="_top" xlink:title=" ">
<polygon fill="none" stroke="black" points="812.5,-56.5 812.5,-75.5 909.5,-75.5 909.5,-56.5 812.5,-56.5"/>
<text text-anchor="middle" x="861" y="-63.5" font-family="Helvetica,sans-Serif" font-size="10.00">../VortexConfig.h</text>
</a>
</g>
</g>
<!-- Node5&#45;&gt;Node6 -->
<g id="edge6" class="edge">
<title>Node5&#45;&gt;Node6</title>
<path fill="none" stroke="midnightblue" d="M542.9,-112.44C614.03,-102.28 731.9,-85.44 802.44,-75.37"/>
<polygon fill="midnightblue" stroke="midnightblue" points="803.09,-78.81 812.49,-73.93 802.1,-71.88 803.09,-78.81"/>
</g>
<!-- Node7 -->
<g id="node7" class="node">
<title>Node7</title>
<g id="a_node7"><a xlink:href="ColorConstants_8h.html" target="_top" xlink:title=" ">
<polygon fill="none" stroke="black" points="648,-0.5 648,-19.5 782,-19.5 782,-0.5 648,-0.5"/>
<text text-anchor="middle" x="715" y="-7.5" font-family="Helvetica,sans-Serif" font-size="10.00">Colors/ColorConstants.h</text>
</a>
</g>
</g>
<!-- Node5&#45;&gt;Node7 -->
<g id="edge8" class="edge">
<title>Node5&#45;&gt;Node7</title>
<path fill="none" stroke="midnightblue" d="M501.2,-112.37C541.78,-93.13 639.82,-46.65 687.73,-23.93"/>
<polygon fill="midnightblue" stroke="midnightblue" points="689.34,-27.04 696.88,-19.59 686.34,-20.71 689.34,-27.04"/>
</g>
<!-- Node6&#45;&gt;Node7 -->
<g id="edge7" class="edge">
<title>Node6&#45;&gt;Node7</title>
<path fill="none" stroke="midnightblue" d="M837.87,-56.44C813.52,-47.44 774.99,-33.19 747.58,-23.05"/>
<polygon fill="midnightblue" stroke="midnightblue" points="748.62,-19.7 738.03,-19.52 746.19,-26.27 748.62,-19.7"/>
</g>
<!-- Node8&#45;&gt;Node4 -->
<g id="edge10" class="edge">
<title>Node8&#45;&gt;Node4</title>
<path fill="none" stroke="midnightblue" d="M768.28,-115.12C671.66,-104.34 467.99,-81.62 379.52,-71.74"/>
<polygon fill="midnightblue" stroke="midnightblue" points="379.9,-68.26 369.57,-70.63 379.12,-75.22 379.9,-68.26"/>
</g>
<!-- Node8&#45;&gt;Node6 -->
<g id="edge12" class="edge">
<title>Node8&#45;&gt;Node6</title>
<path fill="none" stroke="midnightblue" d="M827.61,-112.08C833.26,-104.46 841.54,-93.26 848.45,-83.94"/>
<polygon fill="midnightblue" stroke="midnightblue" points="851.38,-85.87 854.52,-75.75 845.75,-81.7 851.38,-85.87"/>
</g>
<!-- Node9 -->
<g id="node9" class="node">
<title>Node9</title>
<g id="a_node9"><a xlink:title=" ">
<polygon fill="none" stroke="#bfbfbf" points="691,-56.5 691,-75.5 747,-75.5 747,-56.5 691,-56.5"/>
<text text-anchor="middle" x="719" y="-63.5" font-family="Helvetica,sans-Serif" font-size="10.00">stdarg.h</text>
</a>
</g>
</g>
<!-- Node8&#45;&gt;Node9 -->
<g id="edge11" class="edge">
<title>Node8&#45;&gt;Node9</title>
<path fill="none" stroke="midnightblue" d="M804.61,-112.32C788.33,-103.7 763.13,-90.36 744.28,-80.39"/>
<polygon fill="midnightblue" stroke="midnightblue" points="745.82,-77.24 735.35,-75.65 742.55,-83.43 745.82,-77.24"/>
</g>
<!-- Node10&#45;&gt;Node6 -->
<g id="edge17" class="edge">
<title>Node10&#45;&gt;Node6</title>
<path fill="none" stroke="midnightblue" d="M838.45,-168.41C854.16,-161.28 873.62,-149.46 883,-132 891.25,-116.65 882.89,-97.63 874.21,-84.13"/>
<polygon fill="midnightblue" stroke="midnightblue" points="876.96,-81.96 868.35,-75.79 871.23,-85.98 876.96,-81.96"/>
</g>
<!-- Node10&#45;&gt;Node8 -->
<g id="edge14" class="edge">
<title>Node10&#45;&gt;Node8</title>
<path fill="none" stroke="midnightblue" d="M815.99,-168.08C816.79,-160.93 817.93,-150.64 818.92,-141.69"/>
<polygon fill="midnightblue" stroke="midnightblue" points="822.4,-142.08 820.03,-131.75 815.44,-141.3 822.4,-142.08"/>
</g>
<!-- Node11 -->
<g id="node11" class="node">
<title>Node11</title>
<g id="a_node11"><a xlink:href="Patterns_8h.html" target="_top" xlink:title=" ">
<polygon fill="none" stroke="black" points="72.5,-112.5 72.5,-131.5 189.5,-131.5 189.5,-112.5 72.5,-112.5"/>
<text text-anchor="middle" x="131" y="-119.5" font-family="Helvetica,sans-Serif" font-size="10.00">../Patterns/Patterns.h</text>
</a>
</g>
</g>
<!-- Node10&#45;&gt;Node11 -->
<g id="edge15" class="edge">
<title>Node10&#45;&gt;Node11</title>
<path fill="none" stroke="midnightblue" d="M766.2,-174.41C663.5,-168.75 417.27,-154.07 199.6,-132"/>
<polygon fill="midnightblue" stroke="midnightblue" points="199.88,-128.51 189.58,-130.98 199.17,-135.47 199.88,-128.51"/>
</g>
<!-- Node11&#45;&gt;Node4 -->
<g id="edge16" class="edge">
<title>Node11&#45;&gt;Node4</title>
<path fill="none" stroke="midnightblue" d="M163.64,-112.44C199.05,-103.16 255.71,-88.31 294.55,-78.13"/>
<polygon fill="midnightblue" stroke="midnightblue" points="295.73,-81.44 304.51,-75.52 293.95,-74.67 295.73,-81.44"/>
</g>
<!-- Node12&#45;&gt;Node5 -->
<g id="edge19" class="edge">
<title>Node12&#45;&gt;Node5</title>
<path fill="none" stroke="midnightblue" d="M919.66,-170.54C828.15,-160.58 652.87,-141.49 554.49,-130.78"/>
<polygon fill="midnightblue" stroke="midnightblue" points="554.67,-127.28 544.35,-129.68 553.91,-134.24 554.67,-127.28"/>
</g>
<!-- Node12&#45;&gt;Node6 -->
<g id="edge20" class="edge">
<title>Node12&#45;&gt;Node6</title>
<path fill="none" stroke="midnightblue" d="M984.68,-168.12C992.46,-154.71 1004.17,-129.05 992,-112 975.52,-88.92 946.43,-77.55 919.83,-72.01"/>
<polygon fill="midnightblue" stroke="midnightblue" points="920.26,-68.53 909.79,-70.15 918.99,-75.41 920.26,-68.53"/>
</g>
<!-- Node13&#45;&gt;Node4 -->
<g id="edge22" class="edge">
<title>Node13&#45;&gt;Node4</title>
<path fill="none" stroke="midnightblue" d="M1096.53,-168.41C1053.22,-154.18 962.2,-125.91 883,-112 697.41,-79.4 472.07,-70.31 379.66,-67.86"/>
<polygon fill="midnightblue" stroke="midnightblue" points="379.66,-64.36 369.57,-67.61 379.48,-71.36 379.66,-64.36"/>
</g>
<!-- Node13&#45;&gt;Node6 -->
<g id="edge23" class="edge">
<title>Node13&#45;&gt;Node6</title>
<path fill="none" stroke="midnightblue" d="M1109.15,-168.41C1088.54,-154.93 1046.49,-128.62 1008,-112 975.01,-97.76 936.07,-86.05 906.55,-78.15"/>
<polygon fill="midnightblue" stroke="midnightblue" points="907.09,-74.67 896.53,-75.52 905.31,-81.44 907.09,-74.67"/>
</g>
<!-- Node13&#45;&gt;Node8 -->
<g id="edge24" class="edge">
<title>Node13&#45;&gt;Node8</title>
<path fill="none" stroke="midnightblue" d="M1074.31,-168.44C1021.14,-158.9 935.18,-143.48 878.37,-133.29"/>
<polygon fill="midnightblue" stroke="midnightblue" points="878.93,-129.84 868.47,-131.52 877.7,-136.73 878.93,-129.84"/>
</g>
<!-- Node14&#45;&gt;Node8 -->
<g id="edge26" class="edge">
<title>Node14&#45;&gt;Node8</title>
<path fill="none" stroke="midnightblue" d="M486.8,-224.45C528.23,-216.45 590.16,-203.43 643,-188 695.89,-172.56 755.75,-149.5 790.83,-135.4"/>
<polygon fill="midnightblue" stroke="midnightblue" points="792.51,-138.5 800.47,-131.51 789.89,-132.01 792.51,-138.5"/>
</g>
<!-- Node14&#45;&gt;Node11 -->
<g id="edge28" class="edge">
<title>Node14&#45;&gt;Node11</title>
<path fill="none" stroke="midnightblue" d="M403.5,-224.47C370.35,-216.35 320.32,-203.15 278,-188 234.8,-172.54 186.46,-150.13 157.4,-136.07"/>
<polygon fill="midnightblue" stroke="midnightblue" points="158.84,-132.88 148.31,-131.64 155.77,-139.17 158.84,-132.88"/>
</g>
<!-- Node14&#45;&gt;Node12 -->
<g id="edge27" class="edge">
<title>Node14&#45;&gt;Node12</title>
<path fill="none" stroke="midnightblue" d="M500.52,-226.94C601.36,-216.83 803.17,-196.62 909.61,-185.95"/>
<polygon fill="midnightblue" stroke="midnightblue" points="910,-189.43 919.6,-184.95 909.31,-182.46 910,-189.43"/>
</g>
<!-- Node15 -->
<g id="node15" class="node">
<title>Node15</title>
<g id="a_node15"><a xlink:href="PatternArgs_8h.html" target="_top" xlink:title=" ">
<polygon fill="none" stroke="black" points="208,-112.5 208,-131.5 290,-131.5 290,-112.5 208,-112.5"/>
<text text-anchor="middle" x="249" y="-119.5" font-family="Helvetica,sans-Serif" font-size="10.00">PatternArgs.h</text>
</a>
</g>
</g>
<!-- Node14&#45;&gt;Node15 -->
<g id="edge29" class="edge">
<title>Node14&#45;&gt;Node15</title>
<path fill="none" stroke="midnightblue" d="M394.33,-224.49C366.51,-217.76 331.2,-206.37 304,-188 285.51,-175.51 269.7,-155.15 259.84,-140.55"/>
<polygon fill="midnightblue" stroke="midnightblue" points="262.63,-138.41 254.26,-131.92 256.76,-142.22 262.63,-138.41"/>
</g>
<!-- Node15&#45;&gt;Node4 -->
<g id="edge30" class="edge">
<title>Node15&#45;&gt;Node4</title>
<path fill="none" stroke="midnightblue" d="M263.14,-112.32C276.87,-103.9 297.94,-90.97 314.06,-81.07"/>
<polygon fill="midnightblue" stroke="midnightblue" points="316.2,-83.87 322.9,-75.65 312.54,-77.9 316.2,-83.87"/>
</g>
<!-- Node16&#45;&gt;Node4 -->
<g id="edge33" class="edge">
<title>Node16&#45;&gt;Node4</title>
<path fill="none" stroke="midnightblue" d="M52.85,-280.33C36.87,-252.17 -8.3,-162.23 35,-112 67.97,-73.75 219.16,-67.51 294.33,-66.82"/>
<polygon fill="midnightblue" stroke="midnightblue" points="294.43,-70.32 304.41,-66.76 294.39,-63.32 294.43,-70.32"/>
</g>
<!-- Node17&#45;&gt;Node6 -->
<g id="edge36" class="edge">
<title>Node17&#45;&gt;Node6</title>
<path fill="none" stroke="midnightblue" d="M1146.43,-224.43C1174.33,-213.25 1214.05,-192.24 1197,-168 1164.93,-122.41 1007.01,-90.39 919.55,-75.83"/>
<polygon fill="midnightblue" stroke="midnightblue" points="919.94,-72.35 909.51,-74.19 918.81,-79.26 919.94,-72.35"/>
</g>
<!-- Node17&#45;&gt;Node13 -->
<g id="edge35" class="edge">
<title>Node17&#45;&gt;Node13</title>
<path fill="none" stroke="midnightblue" d="M1122,-224.08C1122,-217.01 1122,-206.86 1122,-197.99"/>
<polygon fill="midnightblue" stroke="midnightblue" points="1125.5,-197.75 1122,-187.75 1118.5,-197.75 1125.5,-197.75"/>
</g>
<!-- Node18&#45;&gt;Node4 -->
<g id="edge38" class="edge">
<title>Node18&#45;&gt;Node4</title>
<path fill="none" stroke="midnightblue" d="M595.44,-228.95C509.81,-222.14 353.66,-207.22 337,-188 312.32,-159.53 322.22,-111.55 330.37,-85.38"/>
<polygon fill="midnightblue" stroke="midnightblue" points="333.78,-86.21 333.64,-75.62 327.14,-83.99 333.78,-86.21"/>
</g>
<!-- Node18&#45;&gt;Node5 -->
<g id="edge39" class="edge">
<title>Node18&#45;&gt;Node5</title>
<path fill="none" stroke="midnightblue" d="M600.1,-224.47C573.9,-218 542.77,-206.88 520,-188 505.2,-175.73 495.14,-155.91 489.29,-141.38"/>
<polygon fill="midnightblue" stroke="midnightblue" points="492.54,-140.07 485.77,-131.91 485.98,-142.51 492.54,-140.07"/>
</g>
<!-- Node18&#45;&gt;Node8 -->
<g id="edge40" class="edge">
<title>Node18&#45;&gt;Node8</title>
<path fill="none" stroke="midnightblue" d="M663.46,-224.43C681.82,-211.85 717.31,-187.73 748,-168 764.54,-157.37 783.44,-145.73 797.87,-136.95"/>
<polygon fill="midnightblue" stroke="midnightblue" points="799.9,-139.81 806.63,-131.64 796.27,-133.83 799.9,-139.81"/>
</g>
<!-- Node18&#45;&gt;Node10 -->
<g id="edge41" class="edge">
<title>Node18&#45;&gt;Node10</title>
<path fill="none" stroke="midnightblue" d="M676.99,-224.44C704.7,-215.32 748.75,-200.81 779.62,-190.65"/>
<polygon fill="midnightblue" stroke="midnightblue" points="780.73,-193.97 789.14,-187.52 778.54,-187.32 780.73,-193.97"/>
</g>
<!-- Node19&#45;&gt;Node4 -->
<g id="edge58" class="edge">
<title>Node19&#45;&gt;Node4</title>
<path fill="none" stroke="midnightblue" d="M224.45,-286.47C187.34,-282.15 139.38,-271.2 106,-244 56.73,-203.85 9.7,-160.31 51,-112 81.78,-76 222.27,-68.62 294.23,-67.23"/>
<polygon fill="midnightblue" stroke="midnightblue" points="294.39,-70.72 304.33,-67.06 294.28,-63.73 294.39,-70.72"/>
</g>
<!-- Node19&#45;&gt;Node5 -->
<g id="edge51" class="edge">
<title>Node19&#45;&gt;Node5</title>
<path fill="none" stroke="midnightblue" d="M281.6,-280.22C286.12,-258.02 301.05,-199.2 337,-168 357.87,-149.89 385.94,-139.06 411.88,-132.6"/>
<polygon fill="midnightblue" stroke="midnightblue" points="412.75,-135.99 421.71,-130.33 411.17,-129.17 412.75,-135.99"/>
</g>
<!-- Node19&#45;&gt;Node6 -->
<g id="edge57" class="edge">
<title>Node19&#45;&gt;Node6</title>
<path fill="none" stroke="midnightblue" d="M335.93,-287.89C451.53,-284.98 712.93,-275.07 796,-244 859.06,-220.42 883.97,-197.85 898,-132 899.85,-123.31 901,-120.37 898,-112 894.06,-101 886.14,-90.77 878.64,-82.85"/>
<polygon fill="midnightblue" stroke="midnightblue" points="881.02,-80.28 871.44,-75.76 876.11,-85.27 881.02,-80.28"/>
</g>
<!-- Node19&#45;&gt;Node11 -->
<g id="edge52" class="edge">
<title>Node19&#45;&gt;Node11</title>
<path fill="none" stroke="midnightblue" d="M224.31,-280.71C183.07,-273.31 131.89,-260.99 119,-244 96.12,-213.85 111.18,-166.58 122.25,-140.96"/>
<polygon fill="midnightblue" stroke="midnightblue" points="125.51,-142.25 126.49,-131.7 119.15,-139.34 125.51,-142.25"/>
</g>
<!-- Node20 -->
<g id="node20" class="node">
<title>Node20</title>
<g id="a_node20"><a xlink:href="ByteStream_8h.html" target="_top" xlink:title=" ">
<polygon fill="none" stroke="black" points="128.5,-224.5 128.5,-243.5 251.5,-243.5 251.5,-224.5 128.5,-224.5"/>
<text text-anchor="middle" x="190" y="-231.5" font-family="Helvetica,sans-Serif" font-size="10.00">../Serial/ByteStream.h</text>
</a>
</g>
</g>
<!-- Node19&#45;&gt;Node20 -->
<g id="edge43" class="edge">
<title>Node19&#45;&gt;Node20</title>
<path fill="none" stroke="midnightblue" d="M265.54,-280.32C251.5,-271.9 229.95,-258.97 213.46,-249.07"/>
<polygon fill="midnightblue" stroke="midnightblue" points="214.8,-245.8 204.42,-243.65 211.2,-251.8 214.8,-245.8"/>
</g>
<!-- Node19&#45;&gt;Node23 -->
<g id="edge53" class="edge">
<title>Node19&#45;&gt;Node23</title>
<path fill="none" stroke="midnightblue" d="M288.47,-280.37C306.61,-261.89 349.42,-218.29 372.54,-194.74"/>
<polygon fill="midnightblue" stroke="midnightblue" points="375.06,-197.18 379.56,-187.59 370.06,-192.28 375.06,-197.18"/>
</g>
<!-- Node20&#45;&gt;Node4 -->
<g id="edge44" class="edge">
<title>Node20&#45;&gt;Node4</title>
<path fill="none" stroke="midnightblue" d="M167.73,-224.4C121.78,-205.45 23.87,-158.08 63,-112 92.16,-77.66 224.79,-69.48 294.27,-67.56"/>
<polygon fill="midnightblue" stroke="midnightblue" points="294.53,-71.05 304.44,-67.31 294.36,-64.06 294.53,-71.05"/>
</g>
<!-- Node20&#45;&gt;Node21 -->
<g id="edge45" class="edge">
<title>Node20&#45;&gt;Node21</title>
<path fill="none" stroke="midnightblue" d="M251.52,-224.86C333.74,-213.98 477.64,-194.93 551.44,-185.16"/>
<polygon fill="midnightblue" stroke="midnightblue" points="552.35,-188.57 561.8,-183.79 551.43,-181.63 552.35,-188.57"/>
</g>
<!-- Node21&#45;&gt;Node6 -->
<g id="edge47" class="edge">
<title>Node21&#45;&gt;Node6</title>
<path fill="none" stroke="midnightblue" d="M624.28,-168.43C649.44,-159.99 688.29,-146.31 721,-132 738.85,-124.19 742.43,-120.41 760,-112 783.81,-100.6 811.18,-88.47 831.42,-79.67"/>
<polygon fill="midnightblue" stroke="midnightblue" points="832.94,-82.83 840.73,-75.64 830.16,-76.4 832.94,-82.83"/>
</g>
<!-- Node21&#45;&gt;Node9 -->
<g id="edge46" class="edge">
<title>Node21&#45;&gt;Node9</title>
<path fill="none" stroke="midnightblue" d="M593.8,-168.07C588.15,-154.59 580.1,-128.84 592,-112 611.98,-83.72 651.33,-73.1 680.96,-69.17"/>
<polygon fill="midnightblue" stroke="midnightblue" points="681.44,-72.64 690.98,-68.04 680.65,-65.68 681.44,-72.64"/>
</g>
<!-- Node22 -->
<g id="node22" class="node">
<title>Node22</title>
<g id="a_node22"><a xlink:href="ErrorBlinker_8h.html" target="_top" xlink:title=" ">
<polygon fill="none" stroke="black" points="600.5,-112.5 600.5,-131.5 711.5,-131.5 711.5,-112.5 600.5,-112.5"/>
<text text-anchor="middle" x="656" y="-119.5" font-family="Helvetica,sans-Serif" font-size="10.00">../Log/ErrorBlinker.h</text>
</a>
</g>
</g>
<!-- Node21&#45;&gt;Node22 -->
<g id="edge48" class="edge">
<title>Node21&#45;&gt;Node22</title>
<path fill="none" stroke="midnightblue" d="M607.32,-168.32C615.89,-160.34 628.81,-148.31 639.19,-138.65"/>
<polygon fill="midnightblue" stroke="midnightblue" points="641.58,-141.21 646.51,-131.83 636.81,-136.09 641.58,-141.21"/>
</g>
<!-- Node22&#45;&gt;Node4 -->
<g id="edge49" class="edge">
<title>Node22&#45;&gt;Node4</title>
<path fill="none" stroke="midnightblue" d="M605.45,-112.44C543.14,-101.89 438.32,-84.15 379.8,-74.25"/>
<polygon fill="midnightblue" stroke="midnightblue" points="380.22,-70.77 369.78,-72.55 379.05,-77.67 380.22,-70.77"/>
</g>
<!-- Node22&#45;&gt;Node6 -->
<g id="edge50" class="edge">
<title>Node22&#45;&gt;Node6</title>
<path fill="none" stroke="midnightblue" d="M688.48,-112.44C723.72,-103.16 780.1,-88.31 818.76,-78.13"/>
<polygon fill="midnightblue" stroke="midnightblue" points="819.89,-81.45 828.67,-75.52 818.11,-74.68 819.89,-81.45"/>
</g>
<!-- Node23&#45;&gt;Node4 -->
<g id="edge54" class="edge">
<title>Node23&#45;&gt;Node4</title>
<path fill="none" stroke="midnightblue" d="M384,-168.37C375.69,-150.46 356.44,-108.92 345.32,-84.95"/>
<polygon fill="midnightblue" stroke="midnightblue" points="348.36,-83.19 340.98,-75.59 342.01,-86.14 348.36,-83.19"/>
</g>
<!-- Node23&#45;&gt;Node5 -->
<g id="edge55" class="edge">
<title>Node23&#45;&gt;Node5</title>
<path fill="none" stroke="midnightblue" d="M403.26,-168.32C418.22,-159.82 441.25,-146.73 458.73,-136.8"/>
<polygon fill="midnightblue" stroke="midnightblue" points="460.81,-139.64 467.77,-131.65 457.35,-133.55 460.81,-139.64"/>
</g>
<!-- Node23&#45;&gt;Node8 -->
<g id="edge56" class="edge">
<title>Node23&#45;&gt;Node8</title>
<path fill="none" stroke="midnightblue" d="M429.52,-171.82C505.75,-162.32 668.42,-142.03 758.22,-130.83"/>
<polygon fill="midnightblue" stroke="midnightblue" points="758.77,-134.29 768.26,-129.58 757.91,-127.34 758.77,-134.29"/>
</g>
</g>
</svg>
        <g id="navigator" transform="translate(0 0)" fill="#404254">
                <rect fill="#f2f5e9" fill-opacity="0.5" stroke="#606060" stroke-width=".5" x="0" y="0" width="60" height="60"/>
                <use id="zoomplus" xlink:href="#zoomPlus" x="17" y="9" onmousedown="handleZoom(evt,'in')"/>
                <use id="zoomminus" xlink:href="#zoomMin" x="42" y="9" onmousedown="handleZoom(evt,'out')"/>
                <use id="reset" xlink:href="#resetDef" x="30" y="36" onmousedown="handleReset()"/>
                <g id="arrowUp" xlink:href="#dirArrow" transform="translate(30 24)" onmousedown="handlePan(0,-1)">
                  <use xlink:href="#rim" fill="#404040">
                        <set attributeName="fill" to="#808080" begin="arrowUp.mouseover" end="arrowUp.mouseout"/>
                  </use>
                  <path fill="none" stroke="white" stroke-width="1.5" d="M0,-3.0v7 M-2.5,-0.5L0,-3.0L2.5,-0.5"/>
                </g>
                <g id="arrowRight" xlink:href="#dirArrow" transform="rotate(90) translate(36 -43)" onmousedown="handlePan(1,0)">
                  <use xlink:href="#rim" fill="#404040">
                        <set attributeName="fill" to="#808080" begin="arrowRight.mouseover" end="arrowRight.mouseout"/>
                  </use>
                  <path fill="none" stroke="white" stroke-width="1.5" d="M0,-3.0v7 M-2.5,-0.5L0,-3.0L2.5,-0.5"/>
                </g>
                <g id="arrowDown" xlink:href="#dirArrow" transform="rotate(180) translate(-30 -48)" onmousedown="handlePan(0,1)">
                  <use xlink:href="#rim" fill="#404040">
                        <set attributeName="fill" to="#808080" begin="arrowDown.mouseover" end="arrowDown.mouseout"/>
                  </use>
                  <path fill="none" stroke="white" stroke-width="1.5" d="M0,-3.0v7 M-2.5,-0.5L0,-3.0L2.5,-0.5"/>
                </g>
                <g id="arrowLeft" xlink:href="#dirArrow" transform="rotate(270) translate(-36 17)" onmousedown="handlePan(-1,0)">
                  <use xlink:href="#rim" fill="#404040">
                        <set attributeName="fill" to="#808080" begin="arrowLeft.mouseover" end="arrowLeft.mouseout"/>
                  </use>
                  <path fill="none" stroke="white" stroke-width="1.5" d="M0,-3.0v7 M-2.5,-0.5L0,-3.0L2.5,-0.5"/>
                </g>
        </g>
        <svg viewBox="0 0 15 15" width="100%" height="30px" preserveAspectRatio="xMaxYMin meet">
         <g id="arrow_out" transform="scale(0.3 0.3)">
          <a xlink:href="ColorSelect_8cpp__incl_org.svg" target="_base">
           <rect id="button" ry="5" rx="5" y="6" x="6" height="38" width="38"
                fill="#f2f5e9" fill-opacity="0.5" stroke="#606060" stroke-width="1.0"/>
           <path id="arrow"
             d="M 11.500037,31.436501 C 11.940474,20.09759 22.043105,11.32322 32.158766,21.979434 L 37.068811,17.246167 C 37.068811,17.246167 37.088388,32 37.088388,32 L 22.160133,31.978069 C 22.160133,31.978069 26.997745,27.140456 26.997745,27.140456 C 18.528582,18.264221 13.291696,25.230495 11.500037,31.436501 z"
             style="fill:#404040;"/>
          </a>
         </g>
        </svg>
</svg>
