<?xml version="1.0" encoding="UTF-8" standalone="no"?>
<!DOCTYPE svg PUBLIC "-//W3C//DTD SVG 1.1//EN"
 "http://www.w3.org/Graphics/SVG/1.1/DTD/svg11.dtd">
<!-- Generated by graphviz version 2.43.0 (0)
 -->
<!-- Title: VortexEngine/src/Serial/Compression.cpp Pages: 1 -->
<svg width="513pt" height="207pt"
 viewBox="0.00 0.00 513.00 207.00" xmlns="http://www.w3.org/2000/svg" xmlns:xlink="http://www.w3.org/1999/xlink">
<g id="graph0" class="graph" transform="scale(1 1) rotate(0) translate(4 203)">
<title>VortexEngine/src/Serial/Compression.cpp</title>
<!-- Node1 -->
<g id="node1" class="node">
<title>Node1</title>
<g id="a_node1"><a xlink:title=" ">
<polygon fill="#bfbfbf" stroke="black" points="250,-168.5 250,-198.5 379,-198.5 379,-168.5 250,-168.5"/>
<text text-anchor="start" x="258" y="-186.5" font-family="Helvetica,sans-Serif" font-size="10.00">VortexEngine/src/Serial</text>
<text text-anchor="middle" x="314.5" y="-175.5" font-family="Helvetica,sans-Serif" font-size="10.00">/Compression.cpp</text>
</a>
</g>
</g>
<!-- Node2 -->
<g id="node2" class="node">
<title>Node2</title>
<g id="a_node2"><a xlink:href="Compression_8h.html" target="_top" xlink:title=" ">
<polygon fill="none" stroke="black" points="197,-112.5 197,-131.5 286,-131.5 286,-112.5 197,-112.5"/>
<text text-anchor="middle" x="241.5" y="-119.5" font-family="Helvetica,sans-Serif" font-size="10.00">Compression.h</text>
</a>
</g>
</g>
<!-- Node1&#45;&gt;Node2 -->
<g id="edge1" class="edge">
<title>Node1&#45;&gt;Node2</title>
<path fill="none" stroke="midnightblue" d="M297.2,-168.4C286.05,-159.31 271.55,-147.49 260.14,-138.19"/>
<polygon fill="midnightblue" stroke="midnightblue" points="262.08,-135.26 252.12,-131.66 257.66,-140.69 262.08,-135.26"/>
</g>
<!-- Node3 -->
<g id="node3" class="node">
<title>Node3</title>
<g id="a_node3"><a xlink:href="VortexConfig_8h.html" target="_top" xlink:title=" ">
<polygon fill="none" stroke="black" points="71,-56.5 71,-75.5 168,-75.5 168,-56.5 71,-56.5"/>
<text text-anchor="middle" x="119.5" y="-63.5" font-family="Helvetica,sans-Serif" font-size="10.00">../VortexConfig.h</text>
</a>
</g>
</g>
<!-- Node1&#45;&gt;Node3 -->
<g id="edge11" class="edge">
<title>Node1&#45;&gt;Node3</title>
<path fill="none" stroke="midnightblue" d="M266.87,-168.43C242.09,-159.94 211.96,-147.7 187.5,-132 166.36,-118.43 146.08,-97.7 133.25,-83.32"/>
<polygon fill="midnightblue" stroke="midnightblue" points="135.81,-80.93 126.61,-75.68 130.53,-85.52 135.81,-80.93"/>
</g>
<!-- Node6 -->
<g id="node6" class="node">
<title>Node6</title>
<g id="a_node6"><a xlink:title=" ">
<polygon fill="none" stroke="#bfbfbf" points="269.5,-56.5 269.5,-75.5 325.5,-75.5 325.5,-56.5 269.5,-56.5"/>
<text text-anchor="middle" x="297.5" y="-63.5" font-family="Helvetica,sans-Serif" font-size="10.00">stddef.h</text>
</a>
</g>
</g>
<!-- Node1&#45;&gt;Node6 -->
<g id="edge15" class="edge">
<title>Node1&#45;&gt;Node6</title>
<path fill="none" stroke="midnightblue" d="M312.42,-168.34C309.35,-147.53 303.63,-108.66 300.24,-85.58"/>
<polygon fill="midnightblue" stroke="midnightblue" points="303.69,-85.05 298.78,-75.67 296.77,-86.07 303.69,-85.05"/>
</g>
<!-- Node7 -->
<g id="node7" class="node">
<title>Node7</title>
<g id="a_node7"><a xlink:title=" ">
<polygon fill="none" stroke="#bfbfbf" points="344,-56.5 344,-75.5 397,-75.5 397,-56.5 344,-56.5"/>
<text text-anchor="middle" x="370.5" y="-63.5" font-family="Helvetica,sans-Serif" font-size="10.00">stdint.h</text>
</a>
</g>
</g>
<!-- Node1&#45;&gt;Node7 -->
<g id="edge14" class="edge">
<title>Node1&#45;&gt;Node7</title>
<path fill="none" stroke="midnightblue" d="M321.37,-168.34C331.55,-147.34 350.64,-107.96 361.79,-84.96"/>
<polygon fill="midnightblue" stroke="midnightblue" points="365.08,-86.19 366.3,-75.67 358.78,-83.14 365.08,-86.19"/>
</g>
<!-- Node8 -->
<g id="node8" class="node">
<title>Node8</title>
<g id="a_node8"><a xlink:href="Memory_8h.html" target="_top" xlink:title=" ">
<polygon fill="none" stroke="black" points="23,-112.5 23,-131.5 140,-131.5 140,-112.5 23,-112.5"/>
<text text-anchor="middle" x="81.5" y="-119.5" font-family="Helvetica,sans-Serif" font-size="10.00">../Memory/Memory.h</text>
</a>
</g>
</g>
<!-- Node1&#45;&gt;Node8 -->
<g id="edge7" class="edge">
<title>Node1&#45;&gt;Node8</title>
<path fill="none" stroke="midnightblue" d="M259.58,-168.47C218.33,-157.94 162.62,-143.72 124.57,-134"/>
<polygon fill="midnightblue" stroke="midnightblue" points="125.37,-130.59 114.81,-131.51 123.63,-137.37 125.37,-130.59"/>
</g>
<!-- Node10 -->
<g id="node10" class="node">
<title>Node10</title>
<g id="a_node10"><a xlink:title=" ">
<polygon fill="none" stroke="#bfbfbf" points="381,-112.5 381,-131.5 434,-131.5 434,-112.5 381,-112.5"/>
<text text-anchor="middle" x="407.5" y="-119.5" font-family="Helvetica,sans-Serif" font-size="10.00">string.h</text>
</a>
</g>
</g>
<!-- Node1&#45;&gt;Node10 -->
<g id="edge12" class="edge">
<title>Node1&#45;&gt;Node10</title>
<path fill="none" stroke="midnightblue" d="M336.54,-168.4C351.31,-158.95 370.68,-146.56 385.45,-137.11"/>
<polygon fill="midnightblue" stroke="midnightblue" points="387.43,-140 393.97,-131.66 383.66,-134.1 387.43,-140"/>
</g>
<!-- Node11 -->
<g id="node11" class="node">
<title>Node11</title>
<g id="a_node11"><a xlink:title=" ">
<polygon fill="none" stroke="#bfbfbf" points="452,-112.5 452,-131.5 505,-131.5 505,-112.5 452,-112.5"/>
<text text-anchor="middle" x="478.5" y="-119.5" font-family="Helvetica,sans-Serif" font-size="10.00">limits.h</text>
</a>
</g>
</g>
<!-- Node1&#45;&gt;Node11 -->
<g id="edge13" class="edge">
<title>Node1&#45;&gt;Node11</title>
<path fill="none" stroke="midnightblue" d="M353.37,-168.4C381.25,-158.28 418.44,-144.79 445.01,-135.15"/>
<polygon fill="midnightblue" stroke="midnightblue" points="446.43,-138.36 454.64,-131.66 444.04,-131.78 446.43,-138.36"/>
</g>
<!-- Node2&#45;&gt;Node3 -->
<g id="edge2" class="edge">
<title>Node2&#45;&gt;Node3</title>
<path fill="none" stroke="midnightblue" d="M222.17,-112.44C202.18,-103.6 170.76,-89.69 147.94,-79.59"/>
<polygon fill="midnightblue" stroke="midnightblue" points="149.3,-76.36 138.74,-75.52 146.47,-82.76 149.3,-76.36"/>
</g>
<!-- Node5 -->
<g id="node5" class="node">
<title>Node5</title>
<g id="a_node5"><a xlink:title=" ">
<polygon fill="none" stroke="#bfbfbf" points="186,-56.5 186,-75.5 251,-75.5 251,-56.5 186,-56.5"/>
<text text-anchor="middle" x="218.5" y="-63.5" font-family="Helvetica,sans-Serif" font-size="10.00">inttypes.h</text>
</a>
</g>
</g>
<!-- Node2&#45;&gt;Node5 -->
<g id="edge4" class="edge">
<title>Node2&#45;&gt;Node5</title>
<path fill="none" stroke="midnightblue" d="M237.7,-112.08C234.59,-104.77 230.08,-94.18 226.21,-85.1"/>
<polygon fill="midnightblue" stroke="midnightblue" points="229.37,-83.58 222.23,-75.75 222.93,-86.32 229.37,-83.58"/>
</g>
<!-- Node2&#45;&gt;Node6 -->
<g id="edge5" class="edge">
<title>Node2&#45;&gt;Node6</title>
<path fill="none" stroke="midnightblue" d="M250.5,-112.32C258.69,-104.42 271.01,-92.55 280.97,-82.94"/>
<polygon fill="midnightblue" stroke="midnightblue" points="283.57,-85.29 288.34,-75.83 278.71,-80.26 283.57,-85.29"/>
</g>
<!-- Node2&#45;&gt;Node7 -->
<g id="edge6" class="edge">
<title>Node2&#45;&gt;Node7</title>
<path fill="none" stroke="midnightblue" d="M261.94,-112.44C283.17,-103.56 316.6,-89.56 340.75,-79.45"/>
<polygon fill="midnightblue" stroke="midnightblue" points="342.28,-82.61 350.16,-75.52 339.58,-76.15 342.28,-82.61"/>
</g>
<!-- Node4 -->
<g id="node4" class="node">
<title>Node4</title>
<g id="a_node4"><a xlink:href="ColorConstants_8h.html" target="_top" xlink:title=" ">
<polygon fill="none" stroke="black" points="52.5,-0.5 52.5,-19.5 186.5,-19.5 186.5,-0.5 52.5,-0.5"/>
<text text-anchor="middle" x="119.5" y="-7.5" font-family="Helvetica,sans-Serif" font-size="10.00">Colors/ColorConstants.h</text>
</a>
</g>
</g>
<!-- Node3&#45;&gt;Node4 -->
<g id="edge3" class="edge">
<title>Node3&#45;&gt;Node4</title>
<path fill="none" stroke="midnightblue" d="M119.5,-56.08C119.5,-49.01 119.5,-38.86 119.5,-29.99"/>
<polygon fill="midnightblue" stroke="midnightblue" points="123,-29.75 119.5,-19.75 116,-29.75 123,-29.75"/>
</g>
<!-- Node8&#45;&gt;Node3 -->
<g id="edge10" class="edge">
<title>Node8&#45;&gt;Node3</title>
<path fill="none" stroke="midnightblue" d="M87.77,-112.08C93.14,-104.46 101.02,-93.26 107.58,-83.94"/>
<polygon fill="midnightblue" stroke="midnightblue" points="110.45,-85.94 113.34,-75.75 104.72,-81.91 110.45,-85.94"/>
</g>
<!-- Node8&#45;&gt;Node5 -->
<g id="edge8" class="edge">
<title>Node8&#45;&gt;Node5</title>
<path fill="none" stroke="midnightblue" d="M103.21,-112.44C125.85,-103.52 161.57,-89.44 187.25,-79.32"/>
<polygon fill="midnightblue" stroke="midnightblue" points="188.87,-82.44 196.89,-75.52 186.31,-75.93 188.87,-82.44"/>
</g>
<!-- Node9 -->
<g id="node9" class="node">
<title>Node9</title>
<g id="a_node9"><a xlink:title=" ">
<polygon fill="none" stroke="#bfbfbf" points="0,-56.5 0,-75.5 53,-75.5 53,-56.5 0,-56.5"/>
<text text-anchor="middle" x="26.5" y="-63.5" font-family="Helvetica,sans-Serif" font-size="10.00">stdlib.h</text>
</a>
</g>
</g>
<!-- Node8&#45;&gt;Node9 -->
<g id="edge9" class="edge">
<title>Node8&#45;&gt;Node9</title>
<path fill="none" stroke="midnightblue" d="M72.42,-112.08C64.33,-104.14 52.3,-92.34 42.59,-82.8"/>
<polygon fill="midnightblue" stroke="midnightblue" points="45,-80.26 35.41,-75.75 40.1,-85.25 45,-80.26"/>
</g>
</g>
</svg>
