<?xml version="1.0" encoding="UTF-8" standalone="no"?>
<!DOCTYPE svg PUBLIC "-//W3C//DTD SVG 1.1//EN"
 "http://www.w3.org/Graphics/SVG/1.1/DTD/svg11.dtd">
<!-- Generated by graphviz version 2.43.0 (0)
 -->
<!-- Title: VortexEngine/src/Patterns/Multi/Sequencer Pages: 1 -->
<!--zoomable 511 -->
<svg id="main" version="1.1" xmlns="http://www.w3.org/2000/svg" xmlns:xlink="http://www.w3.org/1999/xlink" xml:space="preserve" onload="init(evt)">
<style type="text/css"><![CDATA[
.edge:hover path { stroke: red; }
.edge:hover polygon { stroke: red; fill: red; }
]]></style>
<script type="text/javascript"><![CDATA[
var edges = document.getElementsByTagName('g');
if (edges && edges.length) {
  for (var i=0;i<edges.length;i++) {
    if (edges[i].id.substr(0,4)=='edge') {
      edges[i].setAttribute('class','edge');
    }
  }
}
]]></script>
        <defs>
                <circle id="rim" cx="0" cy="0" r="7"/>
                <circle id="rim2" cx="0" cy="0" r="3.5"/>
                <g id="zoomPlus">
                        <use xlink:href="#rim" fill="#404040">
                                <set attributeName="fill" to="#808080" begin="zoomplus.mouseover" end="zoomplus.mouseout"/>
                        </use>
                        <path d="M-4,0h8M0,-4v8" fill="none" stroke="white" stroke-width="1.5" pointer-events="none"/>
                </g>
                <g id="zoomMin">
                        <use xlink:href="#rim" fill="#404040">
                                <set attributeName="fill" to="#808080" begin="zoomminus.mouseover" end="zoomminus.mouseout"/>
                        </use>
                        <path d="M-4,0h8" fill="none" stroke="white" stroke-width="1.5" pointer-events="none"/>
                </g>
                <g id="dirArrow">
                        <path fill="none" stroke="white" stroke-width="1.5" d="M0,-3.0v7 M-2.5,-0.5L0,-3.0L2.5,-0.5"/>
                </g>
               <g id="resetDef">
                       <use xlink:href="#rim2" fill="#404040">
                               <set attributeName="fill" to="#808080" begin="reset.mouseover" end="reset.mouseout"/>
                       </use>
               </g>
        </defs>

<script type="text/javascript">
var viewWidth = 271;
var viewHeight = 511;
var sectionId = 'dynsection-0';
</script>
<script xlink:href="svgpan.js"/>
<svg id="graph" class="graph">
<g id="viewport">
<title>VortexEngine/src/Patterns/Multi/Sequencer</title>
<g id="clust1" class="cluster">
<title>clusterdir_47fec278782816999705227d1066c7a6</title>
<g id="a_clust1"><a xlink:href="dir_47fec278782816999705227d1066c7a6.html" target="_top" xlink:title="Multi">
<polygon fill="#ddddee" stroke="black" points="72,-424 72,-495 156,-495 156,-424 72,-424"/>
<text text-anchor="middle" x="114" y="-483" font-family="Helvetica,sans-Serif" font-size="10.00">Multi</text>
</a>
</g>
</g>
<!-- dir_fa5f32c9390e3ea098144f298be2a395 -->
<g id="node1" class="node">
<title>dir_fa5f32c9390e3ea098144f298be2a395</title>
<g id="a_node1"><a xlink:href="dir_fa5f32c9390e3ea098144f298be2a395.html" target="_top" xlink:title="Sequencer">
<polygon fill="#eeeeff" stroke="black" points="148,-468 80,-468 80,-432 148,-432 148,-468"/>
<text text-anchor="middle" x="114" y="-447.5" font-family="Helvetica,sans-Serif" font-size="10.00">Sequencer</text>
</a>
</g>
</g>
<!-- dir_60d51ee7315d72413f26211ac43a217e -->
<g id="node2" class="node">
<title>dir_60d51ee7315d72413f26211ac43a217e</title>
<g id="a_node2"><a xlink:href="dir_60d51ee7315d72413f26211ac43a217e.html" target="_top" xlink:title="Leds">
<polygon fill="none" stroke="black" points="196,-324 142,-324 142,-288 196,-288 196,-324"/>
<text text-anchor="middle" x="169" y="-303.5" font-family="Helvetica,sans-Serif" font-size="10.00">Leds</text>
</a>
</g>
</g>
<!-- dir_fa5f32c9390e3ea098144f298be2a395&#45;&gt;dir_60d51ee7315d72413f26211ac43a217e -->
<g id="edge18" class="edge">
<title>dir_fa5f32c9390e3ea098144f298be2a395&#45;&gt;dir_60d51ee7315d72413f26211ac43a217e</title>
<path fill="none" stroke="black" d="M115.7,-431.67C117.95,-413.29 122.89,-383.69 133,-360 137.08,-350.43 142.99,-340.78 148.84,-332.39"/>
<polygon fill="black" stroke="black" points="151.78,-334.29 154.84,-324.15 146.12,-330.17 151.78,-334.29"/>
<g id="a_edge18&#45;headlabel"><a xlink:href="dir_000012_000004.html" target="_top" xlink:title="4">
<text text-anchor="middle" x="151.96" y="-336.37" font-family="Helvetica,sans-Serif" font-size="10.00">4</text>
</a>
</g>
</g>
<!-- dir_63ce3ba067bdf35a8f7c780ac03d51a3 -->
<g id="node3" class="node">
<title>dir_63ce3ba067bdf35a8f7c780ac03d51a3</title>
<g id="a_node3"><a xlink:href="dir_63ce3ba067bdf35a8f7c780ac03d51a3.html" target="_top" xlink:title="Time">
<polygon fill="none" stroke="black" points="234,-252 180,-252 180,-216 234,-216 234,-252"/>
<text text-anchor="middle" x="207" y="-231.5" font-family="Helvetica,sans-Serif" font-size="10.00">Time</text>
</a>
</g>
</g>
<!-- dir_fa5f32c9390e3ea098144f298be2a395&#45;&gt;dir_63ce3ba067bdf35a8f7c780ac03d51a3 -->
<g id="edge19" class="edge">
<title>dir_fa5f32c9390e3ea098144f298be2a395&#45;&gt;dir_63ce3ba067bdf35a8f7c780ac03d51a3</title>
<path fill="none" stroke="black" d="M148.15,-437C167.61,-428.47 190.85,-415.1 205,-396 233.93,-356.96 228.68,-336.13 222,-288 220.82,-279.48 218.61,-270.39 216.25,-262.2"/>
<polygon fill="black" stroke="black" points="219.52,-260.94 213.24,-252.41 212.83,-262.99 219.52,-260.94"/>
<g id="a_edge19&#45;headlabel"><a xlink:href="dir_000012_000017.html" target="_top" xlink:title="2">
<text text-anchor="middle" x="223.29" y="-261.04" font-family="Helvetica,sans-Serif" font-size="10.00">2</text>
</a>
</g>
</g>
<!-- dir_7e29431de6169dbb5f5ee7a990ed2b16 -->
<g id="node4" class="node">
<title>dir_7e29431de6169dbb5f5ee7a990ed2b16</title>
<g id="a_node4"><a xlink:href="dir_7e29431de6169dbb5f5ee7a990ed2b16.html" target="_top" xlink:title="Memory">
<polygon fill="none" stroke="black" points="180.5,-36 123.5,-36 123.5,0 180.5,0 180.5,-36"/>
<text text-anchor="middle" x="152" y="-15.5" font-family="Helvetica,sans-Serif" font-size="10.00">Memory</text>
</a>
</g>
</g>
<!-- dir_fa5f32c9390e3ea098144f298be2a395&#45;&gt;dir_7e29431de6169dbb5f5ee7a990ed2b16 -->
<g id="edge20" class="edge">
<title>dir_fa5f32c9390e3ea098144f298be2a395&#45;&gt;dir_7e29431de6169dbb5f5ee7a990ed2b16</title>
<path fill="none" stroke="black" d="M86.98,-431.96C53.27,-408.37 0,-362.33 0,-307 0,-307 0,-307 0,-161 0,-98.63 69.19,-55.78 114.2,-34.5"/>
<polygon fill="black" stroke="black" points="115.77,-37.64 123.41,-30.29 112.86,-31.27 115.77,-37.64"/>
<g id="a_edge20&#45;headlabel"><a xlink:href="dir_000012_000006.html" target="_top" xlink:title="1">
<text text-anchor="middle" x="113.69" y="-39.21" font-family="Helvetica,sans-Serif" font-size="10.00">1</text>
</a>
</g>
</g>
<!-- dir_938e62fdb5540a46e6e0c12f6b77804d -->
<g id="node5" class="node">
<title>dir_938e62fdb5540a46e6e0c12f6b77804d</title>
<g id="a_node5"><a xlink:href="dir_938e62fdb5540a46e6e0c12f6b77804d.html" target="_top" xlink:title="Single">
<polygon fill="none" stroke="black" points="196,-396 142,-396 142,-360 196,-360 196,-396"/>
<text text-anchor="middle" x="169" y="-375.5" font-family="Helvetica,sans-Serif" font-size="10.00">Single</text>
</a>
</g>
</g>
<!-- dir_fa5f32c9390e3ea098144f298be2a395&#45;&gt;dir_938e62fdb5540a46e6e0c12f6b77804d -->
<g id="edge21" class="edge">
<title>dir_fa5f32c9390e3ea098144f298be2a395&#45;&gt;dir_938e62fdb5540a46e6e0c12f6b77804d</title>
<path fill="none" stroke="black" d="M127.6,-431.7C134.12,-423.39 142.07,-413.28 149.25,-404.14"/>
<polygon fill="black" stroke="black" points="152.13,-406.13 155.56,-396.1 146.63,-401.81 152.13,-406.13"/>
<g id="a_edge21&#45;headlabel"><a xlink:href="dir_000012_000013.html" target="_top" xlink:title="1">
<text text-anchor="middle" x="152.15" y="-408.21" font-family="Helvetica,sans-Serif" font-size="10.00">1</text>
</a>
</g>
</g>
<!-- dir_9a5c88f87170865d940dc95c76676edb -->
<g id="node6" class="node">
<title>dir_9a5c88f87170865d940dc95c76676edb</title>
<g id="a_node6"><a xlink:href="dir_9a5c88f87170865d940dc95c76676edb.html" target="_top" xlink:title="Log">
<polygon fill="none" stroke="black" points="234,-180 180,-180 180,-144 234,-144 234,-180"/>
<text text-anchor="middle" x="207" y="-159.5" font-family="Helvetica,sans-Serif" font-size="10.00">Log</text>
</a>
</g>
</g>
<!-- dir_fa5f32c9390e3ea098144f298be2a395&#45;&gt;dir_9a5c88f87170865d940dc95c76676edb -->
<g id="edge22" class="edge">
<title>dir_fa5f32c9390e3ea098144f298be2a395&#45;&gt;dir_9a5c88f87170865d940dc95c76676edb</title>
<path fill="none" stroke="black" d="M148.05,-442.54C174.44,-435.67 209.68,-422.04 229,-396 276.82,-331.57 266.58,-292.7 243,-216 239.99,-206.22 234.49,-196.62 228.68,-188.33"/>
<polygon fill="black" stroke="black" points="231.41,-186.13 222.61,-180.23 225.81,-190.33 231.41,-186.13"/>
<g id="a_edge22&#45;headlabel"><a xlink:href="dir_000012_000005.html" target="_top" xlink:title="2">
<text text-anchor="middle" x="235.83" y="-184.8" font-family="Helvetica,sans-Serif" font-size="10.00">2</text>
</a>
</g>
</g>
<!-- dir_cabf3d63e98569a74ecb960b83c4a15b -->
<g id="node7" class="node">
<title>dir_cabf3d63e98569a74ecb960b83c4a15b</title>
<g id="a_node7"><a xlink:href="dir_cabf3d63e98569a74ecb960b83c4a15b.html" target="_top" xlink:title="Serial">
<polygon fill="none" stroke="black" points="179,-108 125,-108 125,-72 179,-72 179,-108"/>
<text text-anchor="middle" x="152" y="-87.5" font-family="Helvetica,sans-Serif" font-size="10.00">Serial</text>
</a>
</g>
</g>
<!-- dir_fa5f32c9390e3ea098144f298be2a395&#45;&gt;dir_cabf3d63e98569a74ecb960b83c4a15b -->
<g id="edge23" class="edge">
<title>dir_fa5f32c9390e3ea098144f298be2a395&#45;&gt;dir_cabf3d63e98569a74ecb960b83c4a15b</title>
<path fill="none" stroke="black" d="M97.51,-431.77C75.16,-406.53 38,-357.05 38,-307 38,-307 38,-307 38,-233 38,-182 83.27,-138.88 116.76,-113.97"/>
<polygon fill="black" stroke="black" points="118.92,-116.73 124.98,-108.04 114.83,-111.05 118.92,-116.73"/>
<g id="a_edge23&#45;headlabel"><a xlink:href="dir_000012_000015.html" target="_top" xlink:title="2">
<text text-anchor="middle" x="117.67" y="-118.63" font-family="Helvetica,sans-Serif" font-size="10.00">2</text>
</a>
</g>
</g>
<!-- dir_ce91f970b513fb5ff406625265505b14 -->
<g id="node8" class="node">
<title>dir_ce91f970b513fb5ff406625265505b14</title>
<g id="a_node8"><a xlink:href="dir_ce91f970b513fb5ff406625265505b14.html" target="_top" xlink:title="Colors">
<polygon fill="none" stroke="black" points="141,-252 87,-252 87,-216 141,-216 141,-252"/>
<text text-anchor="middle" x="114" y="-231.5" font-family="Helvetica,sans-Serif" font-size="10.00">Colors</text>
</a>
</g>
</g>
<!-- dir_fa5f32c9390e3ea098144f298be2a395&#45;&gt;dir_ce91f970b513fb5ff406625265505b14 -->
<g id="edge24" class="edge">
<title>dir_fa5f32c9390e3ea098144f298be2a395&#45;&gt;dir_ce91f970b513fb5ff406625265505b14</title>
<path fill="none" stroke="black" d="M114,-431.85C114,-394.83 114,-307.18 114,-262.39"/>
<polygon fill="black" stroke="black" points="117.5,-262.23 114,-252.23 110.5,-262.23 117.5,-262.23"/>
<g id="a_edge24&#45;headlabel"><a xlink:href="dir_000012_000003.html" target="_top" xlink:title="1">
<text text-anchor="middle" x="120.34" y="-263.33" font-family="Helvetica,sans-Serif" font-size="10.00">1</text>
</a>
</g>
</g>
<!-- dir_60d51ee7315d72413f26211ac43a217e&#45;&gt;dir_63ce3ba067bdf35a8f7c780ac03d51a3 -->
<g id="edge10" class="edge">
<title>dir_60d51ee7315d72413f26211ac43a217e&#45;&gt;dir_63ce3ba067bdf35a8f7c780ac03d51a3</title>
<path fill="none" stroke="black" d="M172.48,-287.7C176.06,-279.56 181.21,-269.69 186.51,-260.7"/>
<polygon fill="black" stroke="black" points="189.55,-262.45 191.82,-252.1 183.59,-258.78 189.55,-262.45"/>
<g id="a_edge10&#45;headlabel"><a xlink:href="dir_000004_000017.html" target="_top" xlink:title="1">
<text text-anchor="middle" x="190.07" y="-264.5" font-family="Helvetica,sans-Serif" font-size="10.00">1</text>
</a>
</g>
</g>
<!-- dir_60d51ee7315d72413f26211ac43a217e&#45;&gt;dir_ce91f970b513fb5ff406625265505b14 -->
<g id="edge11" class="edge">
<title>dir_60d51ee7315d72413f26211ac43a217e&#45;&gt;dir_ce91f970b513fb5ff406625265505b14</title>
<path fill="none" stroke="black" d="M155.4,-287.7C148.88,-279.39 140.93,-269.28 133.75,-260.14"/>
<polygon fill="black" stroke="black" points="136.37,-257.81 127.44,-252.1 130.87,-262.13 136.37,-257.81"/>
<g id="a_edge11&#45;headlabel"><a xlink:href="dir_000004_000003.html" target="_top" xlink:title="2">
<text text-anchor="middle" x="140.82" y="-256.38" font-family="Helvetica,sans-Serif" font-size="10.00">2</text>
</a>
</g>
</g>
<!-- dir_63ce3ba067bdf35a8f7c780ac03d51a3&#45;&gt;dir_60d51ee7315d72413f26211ac43a217e -->
<g id="edge4" class="edge">
<title>dir_63ce3ba067bdf35a8f7c780ac03d51a3&#45;&gt;dir_60d51ee7315d72413f26211ac43a217e</title>
<path fill="none" stroke="black" d="M203.61,-252.1C200.06,-260.21 194.92,-270.08 189.62,-279.08"/>
<polygon fill="black" stroke="black" points="186.57,-277.35 184.31,-287.7 192.53,-281.02 186.57,-277.35"/>
<g id="a_edge4&#45;headlabel"><a xlink:href="dir_000017_000004.html" target="_top" xlink:title="3">
<text text-anchor="middle" x="186.04" y="-270.3" font-family="Helvetica,sans-Serif" font-size="10.00">3</text>
</a>
</g>
</g>
<!-- dir_63ce3ba067bdf35a8f7c780ac03d51a3&#45;&gt;dir_7e29431de6169dbb5f5ee7a990ed2b16 -->
<g id="edge5" class="edge">
<title>dir_63ce3ba067bdf35a8f7c780ac03d51a3&#45;&gt;dir_7e29431de6169dbb5f5ee7a990ed2b16</title>
<path fill="none" stroke="black" d="M222.61,-215.77C230.37,-206.03 238.95,-193.18 243,-180 247.7,-164.71 246.59,-159.59 243,-144 235.02,-109.33 229.04,-100.69 208,-72 200.33,-61.54 190.45,-51.41 181.12,-42.85"/>
<polygon fill="black" stroke="black" points="183.28,-40.09 173.48,-36.07 178.63,-45.32 183.28,-40.09"/>
<g id="a_edge5&#45;headlabel"><a xlink:href="dir_000017_000006.html" target="_top" xlink:title="2">
<text text-anchor="middle" x="187.86" y="-37.86" font-family="Helvetica,sans-Serif" font-size="10.00">2</text>
</a>
</g>
</g>
<!-- dir_63ce3ba067bdf35a8f7c780ac03d51a3&#45;&gt;dir_9a5c88f87170865d940dc95c76676edb -->
<g id="edge6" class="edge">
<title>dir_63ce3ba067bdf35a8f7c780ac03d51a3&#45;&gt;dir_9a5c88f87170865d940dc95c76676edb</title>
<path fill="none" stroke="black" d="M201.08,-215.7C200.29,-207.98 200.06,-198.71 200.4,-190.11"/>
<polygon fill="black" stroke="black" points="203.9,-190.32 201.1,-180.1 196.92,-189.84 203.9,-190.32"/>
<g id="a_edge6&#45;headlabel"><a xlink:href="dir_000017_000005.html" target="_top" xlink:title="2">
<text text-anchor="middle" x="206.48" y="-191.61" font-family="Helvetica,sans-Serif" font-size="10.00">2</text>
</a>
</g>
</g>
<!-- dir_7e29431de6169dbb5f5ee7a990ed2b16&#45;&gt;dir_9a5c88f87170865d940dc95c76676edb -->
<g id="edge9" class="edge">
<title>dir_7e29431de6169dbb5f5ee7a990ed2b16&#45;&gt;dir_9a5c88f87170865d940dc95c76676edb</title>
<path fill="none" stroke="black" d="M166.16,-36.15C173.69,-46.07 182.5,-59.11 188,-72 196.41,-91.71 201.24,-115.51 203.93,-133.54"/>
<polygon fill="black" stroke="black" points="200.49,-134.24 205.3,-143.67 207.43,-133.29 200.49,-134.24"/>
<g id="a_edge9&#45;headlabel"><a xlink:href="dir_000006_000005.html" target="_top" xlink:title="1">
<text text-anchor="middle" x="197.19" y="-128.56" font-family="Helvetica,sans-Serif" font-size="10.00">1</text>
</a>
</g>
</g>
<!-- dir_938e62fdb5540a46e6e0c12f6b77804d&#45;&gt;dir_60d51ee7315d72413f26211ac43a217e -->
<g id="edge15" class="edge">
<title>dir_938e62fdb5540a46e6e0c12f6b77804d&#45;&gt;dir_60d51ee7315d72413f26211ac43a217e</title>
<path fill="none" stroke="black" d="M169,-359.7C169,-351.98 169,-342.71 169,-334.11"/>
<polygon fill="black" stroke="black" points="172.5,-334.1 169,-324.1 165.5,-334.1 172.5,-334.1"/>
<g id="a_edge15&#45;headlabel"><a xlink:href="dir_000013_000004.html" target="_top" xlink:title="2">
<text text-anchor="middle" x="175.34" y="-335.2" font-family="Helvetica,sans-Serif" font-size="10.00">2</text>
</a>
</g>
</g>
<!-- dir_938e62fdb5540a46e6e0c12f6b77804d&#45;&gt;dir_63ce3ba067bdf35a8f7c780ac03d51a3 -->
<g id="edge16" class="edge">
<title>dir_938e62fdb5540a46e6e0c12f6b77804d&#45;&gt;dir_63ce3ba067bdf35a8f7c780ac03d51a3</title>
<path fill="none" stroke="black" d="M184.49,-359.74C192.22,-349.98 200.8,-337.14 205,-324 211.39,-304.04 211.57,-280.25 210.33,-262.29"/>
<polygon fill="black" stroke="black" points="213.8,-261.86 209.44,-252.2 206.83,-262.47 213.8,-261.86"/>
<g id="a_edge16&#45;headlabel"><a xlink:href="dir_000013_000017.html" target="_top" xlink:title="6">
<text text-anchor="middle" x="216.94" y="-262.69" font-family="Helvetica,sans-Serif" font-size="10.00">6</text>
</a>
</g>
</g>
<!-- dir_938e62fdb5540a46e6e0c12f6b77804d&#45;&gt;dir_ce91f970b513fb5ff406625265505b14 -->
<g id="edge17" class="edge">
<title>dir_938e62fdb5540a46e6e0c12f6b77804d&#45;&gt;dir_ce91f970b513fb5ff406625265505b14</title>
<path fill="none" stroke="black" d="M154.84,-359.85C147.31,-349.93 138.5,-336.89 133,-324 124.59,-304.29 119.76,-280.49 117.07,-262.46"/>
<polygon fill="black" stroke="black" points="120.51,-261.76 115.7,-252.33 113.57,-262.71 120.51,-261.76"/>
<g id="a_edge17&#45;headlabel"><a xlink:href="dir_000013_000003.html" target="_top" xlink:title="2">
<text text-anchor="middle" x="123.81" y="-262.44" font-family="Helvetica,sans-Serif" font-size="10.00">2</text>
</a>
</g>
</g>
<!-- dir_9a5c88f87170865d940dc95c76676edb&#45;&gt;dir_63ce3ba067bdf35a8f7c780ac03d51a3 -->
<g id="edge7" class="edge">
<title>dir_9a5c88f87170865d940dc95c76676edb&#45;&gt;dir_63ce3ba067bdf35a8f7c780ac03d51a3</title>
<path fill="none" stroke="black" d="M212.9,-180.1C213.7,-187.79 213.94,-197.05 213.6,-205.67"/>
<polygon fill="black" stroke="black" points="210.11,-205.48 212.92,-215.7 217.09,-205.96 210.11,-205.48"/>
<g id="a_edge7&#45;headlabel"><a xlink:href="dir_000005_000017.html" target="_top" xlink:title="1">
<text text-anchor="middle" x="207.52" y="-199.2" font-family="Helvetica,sans-Serif" font-size="10.00">1</text>
</a>
</g>
</g>
<!-- dir_9a5c88f87170865d940dc95c76676edb&#45;&gt;dir_cabf3d63e98569a74ecb960b83c4a15b -->
<g id="edge8" class="edge">
<title>dir_9a5c88f87170865d940dc95c76676edb&#45;&gt;dir_cabf3d63e98569a74ecb960b83c4a15b</title>
<path fill="none" stroke="black" d="M187.49,-143.7C180.18,-135.47 172.13,-125.48 165.45,-116.42"/>
<polygon fill="black" stroke="black" points="168.19,-114.23 159.54,-108.1 162.48,-118.28 168.19,-114.23"/>
<g id="a_edge8&#45;headlabel"><a xlink:href="dir_000005_000015.html" target="_top" xlink:title="1">
<text text-anchor="middle" x="172.59" y="-113.01" font-family="Helvetica,sans-Serif" font-size="10.00">1</text>
</a>
</g>
</g>
<!-- dir_cabf3d63e98569a74ecb960b83c4a15b&#45;&gt;dir_63ce3ba067bdf35a8f7c780ac03d51a3 -->
<g id="edge1" class="edge">
<title>dir_cabf3d63e98569a74ecb960b83c4a15b&#45;&gt;dir_63ce3ba067bdf35a8f7c780ac03d51a3</title>
<path fill="none" stroke="black" d="M153.7,-108.33C155.95,-126.71 160.89,-156.31 171,-180 175.08,-189.57 180.99,-199.22 186.84,-207.61"/>
<polygon fill="black" stroke="black" points="184.12,-209.83 192.84,-215.85 189.78,-205.71 184.12,-209.83"/>
<g id="a_edge1&#45;headlabel"><a xlink:href="dir_000015_000017.html" target="_top" xlink:title="2">
<text text-anchor="middle" x="179.71" y="-206.09" font-family="Helvetica,sans-Serif" font-size="10.00">2</text>
</a>
</g>
</g>
<!-- dir_cabf3d63e98569a74ecb960b83c4a15b&#45;&gt;dir_7e29431de6169dbb5f5ee7a990ed2b16 -->
<g id="edge2" class="edge">
<title>dir_cabf3d63e98569a74ecb960b83c4a15b&#45;&gt;dir_7e29431de6169dbb5f5ee7a990ed2b16</title>
<path fill="none" stroke="black" d="M152,-71.7C152,-63.98 152,-54.71 152,-46.11"/>
<polygon fill="black" stroke="black" points="155.5,-46.1 152,-36.1 148.5,-46.1 155.5,-46.1"/>
<g id="a_edge2&#45;headlabel"><a xlink:href="dir_000015_000006.html" target="_top" xlink:title="3">
<text text-anchor="middle" x="158.34" y="-47.2" font-family="Helvetica,sans-Serif" font-size="10.00">3</text>
</a>
</g>
</g>
<!-- dir_cabf3d63e98569a74ecb960b83c4a15b&#45;&gt;dir_9a5c88f87170865d940dc95c76676edb -->
<g id="edge3" class="edge">
<title>dir_cabf3d63e98569a74ecb960b83c4a15b&#45;&gt;dir_9a5c88f87170865d940dc95c76676edb</title>
<path fill="none" stroke="black" d="M171.33,-108.1C178.63,-116.3 186.69,-126.28 193.38,-135.36"/>
<polygon fill="black" stroke="black" points="190.67,-137.58 199.32,-143.7 196.37,-133.52 190.67,-137.58"/>
<g id="a_edge3&#45;headlabel"><a xlink:href="dir_000015_000005.html" target="_top" xlink:title="4">
<text text-anchor="middle" x="186.27" y="-133.8" font-family="Helvetica,sans-Serif" font-size="10.00">4</text>
</a>
</g>
</g>
<!-- dir_ce91f970b513fb5ff406625265505b14&#45;&gt;dir_7e29431de6169dbb5f5ee7a990ed2b16 -->
<g id="edge12" class="edge">
<title>dir_ce91f970b513fb5ff406625265505b14&#45;&gt;dir_7e29431de6169dbb5f5ee7a990ed2b16</title>
<path fill="none" stroke="black" d="M111.01,-215.57C106.55,-185.46 100.24,-122.13 116,-72 119.07,-62.23 124.58,-52.64 130.39,-44.36"/>
<polygon fill="black" stroke="black" points="133.27,-46.35 136.46,-36.25 127.66,-42.16 133.27,-46.35"/>
<g id="a_edge12&#45;headlabel"><a xlink:href="dir_000003_000006.html" target="_top" xlink:title="1">
<text text-anchor="middle" x="133.39" y="-48.43" font-family="Helvetica,sans-Serif" font-size="10.00">1</text>
</a>
</g>
</g>
<!-- dir_ce91f970b513fb5ff406625265505b14&#45;&gt;dir_9a5c88f87170865d940dc95c76676edb -->
<g id="edge13" class="edge">
<title>dir_ce91f970b513fb5ff406625265505b14&#45;&gt;dir_9a5c88f87170865d940dc95c76676edb</title>
<path fill="none" stroke="black" d="M136.99,-215.7C148.81,-206.8 163.39,-195.82 176.18,-186.2"/>
<polygon fill="black" stroke="black" points="178.39,-188.91 184.28,-180.1 174.18,-183.32 178.39,-188.91"/>
<g id="a_edge13&#45;headlabel"><a xlink:href="dir_000003_000005.html" target="_top" xlink:title="1">
<text text-anchor="middle" x="177.23" y="-190.84" font-family="Helvetica,sans-Serif" font-size="10.00">1</text>
</a>
</g>
</g>
<!-- dir_ce91f970b513fb5ff406625265505b14&#45;&gt;dir_cabf3d63e98569a74ecb960b83c4a15b -->
<g id="edge14" class="edge">
<title>dir_ce91f970b513fb5ff406625265505b14&#45;&gt;dir_cabf3d63e98569a74ecb960b83c4a15b</title>
<path fill="none" stroke="black" d="M118.58,-215.87C125.09,-191.56 137.06,-146.82 144.77,-118.01"/>
<polygon fill="black" stroke="black" points="148.2,-118.75 147.4,-108.19 141.43,-116.94 148.2,-118.75"/>
<g id="a_edge14&#45;headlabel"><a xlink:href="dir_000003_000015.html" target="_top" xlink:title="2">
<text text-anchor="middle" x="150.01" y="-120.46" font-family="Helvetica,sans-Serif" font-size="10.00">2</text>
</a>
</g>
</g>
</g>
</svg>
        <g id="navigator" transform="translate(0 0)" fill="#404254">
                <rect fill="#f2f5e9" fill-opacity="0.5" stroke="#606060" stroke-width=".5" x="0" y="0" width="60" height="60"/>
                <use id="zoomplus" xlink:href="#zoomPlus" x="17" y="9" onmousedown="handleZoom(evt,'in')"/>
                <use id="zoomminus" xlink:href="#zoomMin" x="42" y="9" onmousedown="handleZoom(evt,'out')"/>
                <use id="reset" xlink:href="#resetDef" x="30" y="36" onmousedown="handleReset()"/>
                <g id="arrowUp" xlink:href="#dirArrow" transform="translate(30 24)" onmousedown="handlePan(0,-1)">
                  <use xlink:href="#rim" fill="#404040">
                        <set attributeName="fill" to="#808080" begin="arrowUp.mouseover" end="arrowUp.mouseout"/>
                  </use>
                  <path fill="none" stroke="white" stroke-width="1.5" d="M0,-3.0v7 M-2.5,-0.5L0,-3.0L2.5,-0.5"/>
                </g>
                <g id="arrowRight" xlink:href="#dirArrow" transform="rotate(90) translate(36 -43)" onmousedown="handlePan(1,0)">
                  <use xlink:href="#rim" fill="#404040">
                        <set attributeName="fill" to="#808080" begin="arrowRight.mouseover" end="arrowRight.mouseout"/>
                  </use>
                  <path fill="none" stroke="white" stroke-width="1.5" d="M0,-3.0v7 M-2.5,-0.5L0,-3.0L2.5,-0.5"/>
                </g>
                <g id="arrowDown" xlink:href="#dirArrow" transform="rotate(180) translate(-30 -48)" onmousedown="handlePan(0,1)">
                  <use xlink:href="#rim" fill="#404040">
                        <set attributeName="fill" to="#808080" begin="arrowDown.mouseover" end="arrowDown.mouseout"/>
                  </use>
                  <path fill="none" stroke="white" stroke-width="1.5" d="M0,-3.0v7 M-2.5,-0.5L0,-3.0L2.5,-0.5"/>
                </g>
                <g id="arrowLeft" xlink:href="#dirArrow" transform="rotate(270) translate(-36 17)" onmousedown="handlePan(-1,0)">
                  <use xlink:href="#rim" fill="#404040">
                        <set attributeName="fill" to="#808080" begin="arrowLeft.mouseover" end="arrowLeft.mouseout"/>
                  </use>
                  <path fill="none" stroke="white" stroke-width="1.5" d="M0,-3.0v7 M-2.5,-0.5L0,-3.0L2.5,-0.5"/>
                </g>
        </g>
        <svg viewBox="0 0 15 15" width="100%" height="30px" preserveAspectRatio="xMaxYMin meet">
         <g id="arrow_out" transform="scale(0.3 0.3)">
          <a xlink:href="dir_fa5f32c9390e3ea098144f298be2a395_dep_org.svg" target="_base">
           <rect id="button" ry="5" rx="5" y="6" x="6" height="38" width="38"
                fill="#f2f5e9" fill-opacity="0.5" stroke="#606060" stroke-width="1.0"/>
           <path id="arrow"
             d="M 11.500037,31.436501 C 11.940474,20.09759 22.043105,11.32322 32.158766,21.979434 L 37.068811,17.246167 C 37.068811,17.246167 37.088388,32 37.088388,32 L 22.160133,31.978069 C 22.160133,31.978069 26.997745,27.140456 26.997745,27.140456 C 18.528582,18.264221 13.291696,25.230495 11.500037,31.436501 z"
             style="fill:#404040;"/>
          </a>
         </g>
        </svg>
</svg>
