<?xml version="1.0" encoding="UTF-8" standalone="no"?>
<!DOCTYPE svg PUBLIC "-//W3C//DTD SVG 1.1//EN"
 "http://www.w3.org/Graphics/SVG/1.1/DTD/svg11.dtd">
<!-- Generated by graphviz version 2.43.0 (0)
 -->
<!-- Title: VortexEngine/src/Time Pages: 1 -->
<svg width="118pt" height="311pt"
 viewBox="0.00 0.00 118.00 311.00" xmlns="http://www.w3.org/2000/svg" xmlns:xlink="http://www.w3.org/1999/xlink">
<g id="graph0" class="graph" transform="scale(1 1) rotate(0) translate(4 307)">
<title>VortexEngine/src/Time</title>
<g id="clust1" class="cluster">
<title>clusterdir_df02266255841645c523fab960c9ed1d</title>
<g id="a_clust1"><a xlink:href="dir_df02266255841645c523fab960c9ed1d.html" target="_top" xlink:title="src">
<polygon fill="#ddddee" stroke="black" points="8,-8 8,-295 102,-295 102,-8 8,-8"/>
<text text-anchor="middle" x="55" y="-283" font-family="Helvetica,sans-Serif" font-size="10.00">src</text>
</a>
</g>
</g>
<!-- dir_60d51ee7315d72413f26211ac43a217e -->
<g id="node1" class="node">
<title>dir_60d51ee7315d72413f26211ac43a217e</title>
<g id="a_node1"><a xlink:href="dir_60d51ee7315d72413f26211ac43a217e.html" target="_top" xlink:title="Leds">
<polygon fill="none" stroke="black" points="70,-268 16,-268 16,-232 70,-232 70,-268"/>
<text text-anchor="middle" x="43" y="-247.5" font-family="Helvetica,sans-Serif" font-size="10.00">Leds</text>
</a>
</g>
</g>
<!-- dir_63ce3ba067bdf35a8f7c780ac03d51a3 -->
<g id="node4" class="node">
<title>dir_63ce3ba067bdf35a8f7c780ac03d51a3</title>
<g id="a_node4"><a xlink:href="dir_63ce3ba067bdf35a8f7c780ac03d51a3.html" target="_top" xlink:title="Time">
<polygon fill="#eeeeff" stroke="black" points="70,-196 16,-196 16,-160 70,-160 70,-196"/>
<text text-anchor="middle" x="43" y="-175.5" font-family="Helvetica,sans-Serif" font-size="10.00">Time</text>
</a>
</g>
</g>
<!-- dir_60d51ee7315d72413f26211ac43a217e&#45;&gt;dir_63ce3ba067bdf35a8f7c780ac03d51a3 -->
<g id="edge6" class="edge">
<title>dir_60d51ee7315d72413f26211ac43a217e&#45;&gt;dir_63ce3ba067bdf35a8f7c780ac03d51a3</title>
<path fill="none" stroke="black" d="M37.08,-231.7C36.29,-223.98 36.06,-214.71 36.4,-206.11"/>
<polygon fill="black" stroke="black" points="39.9,-206.32 37.1,-196.1 32.92,-205.84 39.9,-206.32"/>
<g id="a_edge6&#45;headlabel"><a xlink:href="dir_000004_000017.html" target="_top" xlink:title="1">
<text text-anchor="middle" x="42.48" y="-207.61" font-family="Helvetica,sans-Serif" font-size="10.00">1</text>
</a>
</g>
</g>
<!-- dir_7e29431de6169dbb5f5ee7a990ed2b16 -->
<g id="node2" class="node">
<title>dir_7e29431de6169dbb5f5ee7a990ed2b16</title>
<g id="a_node2"><a xlink:href="dir_7e29431de6169dbb5f5ee7a990ed2b16.html" target="_top" xlink:title="Memory">
<polygon fill="none" stroke="black" points="93.5,-124 36.5,-124 36.5,-88 93.5,-88 93.5,-124"/>
<text text-anchor="middle" x="65" y="-103.5" font-family="Helvetica,sans-Serif" font-size="10.00">Memory</text>
</a>
</g>
</g>
<!-- dir_9a5c88f87170865d940dc95c76676edb -->
<g id="node3" class="node">
<title>dir_9a5c88f87170865d940dc95c76676edb</title>
<g id="a_node3"><a xlink:href="dir_9a5c88f87170865d940dc95c76676edb.html" target="_top" xlink:title="Log">
<polygon fill="none" stroke="black" points="70,-52 16,-52 16,-16 70,-16 70,-52"/>
<text text-anchor="middle" x="43" y="-31.5" font-family="Helvetica,sans-Serif" font-size="10.00">Log</text>
</a>
</g>
</g>
<!-- dir_7e29431de6169dbb5f5ee7a990ed2b16&#45;&gt;dir_9a5c88f87170865d940dc95c76676edb -->
<g id="edge5" class="edge">
<title>dir_7e29431de6169dbb5f5ee7a990ed2b16&#45;&gt;dir_9a5c88f87170865d940dc95c76676edb</title>
<path fill="none" stroke="black" d="M59.56,-87.7C57.11,-79.9 54.16,-70.51 51.43,-61.83"/>
<polygon fill="black" stroke="black" points="54.71,-60.59 48.38,-52.1 48.04,-62.69 54.71,-60.59"/>
<g id="a_edge5&#45;headlabel"><a xlink:href="dir_000006_000005.html" target="_top" xlink:title="1">
<text text-anchor="middle" x="58.5" y="-60.67" font-family="Helvetica,sans-Serif" font-size="10.00">1</text>
</a>
</g>
</g>
<!-- dir_9a5c88f87170865d940dc95c76676edb&#45;&gt;dir_63ce3ba067bdf35a8f7c780ac03d51a3 -->
<g id="edge4" class="edge">
<title>dir_9a5c88f87170865d940dc95c76676edb&#45;&gt;dir_63ce3ba067bdf35a8f7c780ac03d51a3</title>
<path fill="none" stroke="black" d="M44.22,-52.37C41.8,-62.58 37.8,-75.83 36,-88 33.66,-103.83 33.66,-108.17 36,-124 37.26,-132.56 39.62,-141.65 41.74,-149.84"/>
<polygon fill="black" stroke="black" points="38.38,-150.79 44.22,-159.63 45.16,-149.07 38.38,-150.79"/>
<g id="a_edge4&#45;headlabel"><a xlink:href="dir_000005_000017.html" target="_top" xlink:title="1">
<text text-anchor="middle" x="34.74" y="-145.51" font-family="Helvetica,sans-Serif" font-size="10.00">1</text>
</a>
</g>
</g>
<!-- dir_63ce3ba067bdf35a8f7c780ac03d51a3&#45;&gt;dir_60d51ee7315d72413f26211ac43a217e -->
<g id="edge1" class="edge">
<title>dir_63ce3ba067bdf35a8f7c780ac03d51a3&#45;&gt;dir_60d51ee7315d72413f26211ac43a217e</title>
<path fill="none" stroke="black" d="M48.9,-196.1C49.7,-203.79 49.94,-213.05 49.6,-221.67"/>
<polygon fill="black" stroke="black" points="46.11,-221.48 48.92,-231.7 53.09,-221.96 46.11,-221.48"/>
<g id="a_edge1&#45;headlabel"><a xlink:href="dir_000017_000004.html" target="_top" xlink:title="3">
<text text-anchor="middle" x="43.52" y="-215.2" font-family="Helvetica,sans-Serif" font-size="10.00">3</text>
</a>
</g>
</g>
<!-- dir_63ce3ba067bdf35a8f7c780ac03d51a3&#45;&gt;dir_7e29431de6169dbb5f5ee7a990ed2b16 -->
<g id="edge2" class="edge">
<title>dir_63ce3ba067bdf35a8f7c780ac03d51a3&#45;&gt;dir_7e29431de6169dbb5f5ee7a990ed2b16</title>
<path fill="none" stroke="black" d="M48.44,-159.7C50.89,-151.9 53.84,-142.51 56.57,-133.83"/>
<polygon fill="black" stroke="black" points="59.96,-134.69 59.62,-124.1 53.29,-132.59 59.96,-134.69"/>
<g id="a_edge2&#45;headlabel"><a xlink:href="dir_000017_000006.html" target="_top" xlink:title="2">
<text text-anchor="middle" x="61.6" y="-136.47" font-family="Helvetica,sans-Serif" font-size="10.00">2</text>
</a>
</g>
</g>
<!-- dir_63ce3ba067bdf35a8f7c780ac03d51a3&#45;&gt;dir_9a5c88f87170865d940dc95c76676edb -->
<g id="edge3" class="edge">
<title>dir_63ce3ba067bdf35a8f7c780ac03d51a3&#45;&gt;dir_9a5c88f87170865d940dc95c76676edb</title>
<path fill="none" stroke="black" d="M28.47,-159.63C23.8,-149.42 19.8,-136.17 18,-124 15.66,-108.17 15.66,-103.83 18,-88 19.28,-79.35 21.67,-70.15 24.62,-61.89"/>
<polygon fill="black" stroke="black" points="27.97,-62.95 28.47,-52.37 21.48,-60.33 27.97,-62.95"/>
<g id="a_edge3&#45;headlabel"><a xlink:href="dir_000017_000005.html" target="_top" xlink:title="2">
<text text-anchor="middle" x="29.25" y="-64.85" font-family="Helvetica,sans-Serif" font-size="10.00">2</text>
</a>
</g>
</g>
</g>
</svg>
