<?xml version="1.0" encoding="UTF-8" standalone="no"?>
<!DOCTYPE svg PUBLIC "-//W3C//DTD SVG 1.1//EN"
 "http://www.w3.org/Graphics/SVG/1.1/DTD/svg11.dtd">
<!-- Generated by graphviz version 2.43.0 (0)
 -->
<!-- Title: VortexEngine/src/Wireless Pages: 1 -->
<!--zoomable 455 -->
<svg id="main" version="1.1" xmlns="http://www.w3.org/2000/svg" xmlns:xlink="http://www.w3.org/1999/xlink" xml:space="preserve" onload="init(evt)">
<style type="text/css"><![CDATA[
.edge:hover path { stroke: red; }
.edge:hover polygon { stroke: red; fill: red; }
]]></style>
<script type="text/javascript"><![CDATA[
var edges = document.getElementsByTagName('g');
if (edges && edges.length) {
  for (var i=0;i<edges.length;i++) {
    if (edges[i].id.substr(0,4)=='edge') {
      edges[i].setAttribute('class','edge');
    }
  }
}
]]></script>
        <defs>
                <circle id="rim" cx="0" cy="0" r="7"/>
                <circle id="rim2" cx="0" cy="0" r="3.5"/>
                <g id="zoomPlus">
                        <use xlink:href="#rim" fill="#404040">
                                <set attributeName="fill" to="#808080" begin="zoomplus.mouseover" end="zoomplus.mouseout"/>
                        </use>
                        <path d="M-4,0h8M0,-4v8" fill="none" stroke="white" stroke-width="1.5" pointer-events="none"/>
                </g>
                <g id="zoomMin">
                        <use xlink:href="#rim" fill="#404040">
                                <set attributeName="fill" to="#808080" begin="zoomminus.mouseover" end="zoomminus.mouseout"/>
                        </use>
                        <path d="M-4,0h8" fill="none" stroke="white" stroke-width="1.5" pointer-events="none"/>
                </g>
                <g id="dirArrow">
                        <path fill="none" stroke="white" stroke-width="1.5" d="M0,-3.0v7 M-2.5,-0.5L0,-3.0L2.5,-0.5"/>
                </g>
               <g id="resetDef">
                       <use xlink:href="#rim2" fill="#404040">
                               <set attributeName="fill" to="#808080" begin="reset.mouseover" end="reset.mouseout"/>
                       </use>
               </g>
        </defs>

<script type="text/javascript">
var viewWidth = 214;
var viewHeight = 455;
var sectionId = 'dynsection-0';
</script>
<script xlink:href="svgpan.js"/>
<svg id="graph" class="graph">
<g id="viewport">
<title>VortexEngine/src/Wireless</title>
<g id="clust1" class="cluster">
<title>clusterdir_df02266255841645c523fab960c9ed1d</title>
<g id="a_clust1"><a xlink:href="dir_df02266255841645c523fab960c9ed1d.html" target="_top" xlink:title="src">
<polygon fill="#ddddee" stroke="black" points="8,-8 8,-439 198,-439 198,-8 8,-8"/>
<text text-anchor="middle" x="103" y="-427" font-family="Helvetica,sans-Serif" font-size="10.00">src</text>
</a>
</g>
</g>
<!-- dir_4d7f8bf987ecca6ad9438e8e8937cf95 -->
<g id="node1" class="node">
<title>dir_4d7f8bf987ecca6ad9438e8e8937cf95</title>
<g id="a_node1"><a xlink:href="dir_4d7f8bf987ecca6ad9438e8e8937cf95.html" target="_top" xlink:title="Modes">
<polygon fill="none" stroke="black" points="104,-340 50,-340 50,-304 104,-304 104,-340"/>
<text text-anchor="middle" x="77" y="-319.5" font-family="Helvetica,sans-Serif" font-size="10.00">Modes</text>
</a>
</g>
</g>
<!-- dir_60d51ee7315d72413f26211ac43a217e -->
<g id="node2" class="node">
<title>dir_60d51ee7315d72413f26211ac43a217e</title>
<g id="a_node2"><a xlink:href="dir_60d51ee7315d72413f26211ac43a217e.html" target="_top" xlink:title="Leds">
<polygon fill="none" stroke="black" points="150,-268 96,-268 96,-232 150,-232 150,-268"/>
<text text-anchor="middle" x="123" y="-247.5" font-family="Helvetica,sans-Serif" font-size="10.00">Leds</text>
</a>
</g>
</g>
<!-- dir_4d7f8bf987ecca6ad9438e8e8937cf95&#45;&gt;dir_60d51ee7315d72413f26211ac43a217e -->
<g id="edge10" class="edge">
<title>dir_4d7f8bf987ecca6ad9438e8e8937cf95&#45;&gt;dir_60d51ee7315d72413f26211ac43a217e</title>
<path fill="none" stroke="black" d="M82.46,-303.7C87.01,-295.47 93.37,-285.48 99.77,-276.42"/>
<polygon fill="black" stroke="black" points="102.78,-278.24 105.86,-268.1 97.13,-274.1 102.78,-278.24"/>
<g id="a_edge10&#45;headlabel"><a xlink:href="dir_000009_000004.html" target="_top" xlink:title="5">
<text text-anchor="middle" x="102.95" y="-280.32" font-family="Helvetica,sans-Serif" font-size="10.00">5</text>
</a>
</g>
</g>
<!-- dir_63ce3ba067bdf35a8f7c780ac03d51a3 -->
<g id="node3" class="node">
<title>dir_63ce3ba067bdf35a8f7c780ac03d51a3</title>
<g id="a_node3"><a xlink:href="dir_63ce3ba067bdf35a8f7c780ac03d51a3.html" target="_top" xlink:title="Time">
<polygon fill="none" stroke="black" points="150,-196 96,-196 96,-160 150,-160 150,-196"/>
<text text-anchor="middle" x="123" y="-175.5" font-family="Helvetica,sans-Serif" font-size="10.00">Time</text>
</a>
</g>
</g>
<!-- dir_4d7f8bf987ecca6ad9438e8e8937cf95&#45;&gt;dir_63ce3ba067bdf35a8f7c780ac03d51a3 -->
<g id="edge11" class="edge">
<title>dir_4d7f8bf987ecca6ad9438e8e8937cf95&#45;&gt;dir_63ce3ba067bdf35a8f7c780ac03d51a3</title>
<path fill="none" stroke="black" d="M76.52,-303.71C76.56,-285.35 78.21,-255.77 87,-232 90.55,-222.4 96.2,-212.85 101.98,-204.56"/>
<polygon fill="black" stroke="black" points="104.86,-206.55 107.97,-196.42 99.23,-202.4 104.86,-206.55"/>
<g id="a_edge11&#45;headlabel"><a xlink:href="dir_000009_000017.html" target="_top" xlink:title="3">
<text text-anchor="middle" x="105.02" y="-208.63" font-family="Helvetica,sans-Serif" font-size="10.00">3</text>
</a>
</g>
</g>
<!-- dir_9a5c88f87170865d940dc95c76676edb -->
<g id="node4" class="node">
<title>dir_9a5c88f87170865d940dc95c76676edb</title>
<g id="a_node4"><a xlink:href="dir_9a5c88f87170865d940dc95c76676edb.html" target="_top" xlink:title="Log">
<polygon fill="none" stroke="black" points="110,-124 56,-124 56,-88 110,-88 110,-124"/>
<text text-anchor="middle" x="83" y="-103.5" font-family="Helvetica,sans-Serif" font-size="10.00">Log</text>
</a>
</g>
</g>
<!-- dir_4d7f8bf987ecca6ad9438e8e8937cf95&#45;&gt;dir_9a5c88f87170865d940dc95c76676edb -->
<g id="edge12" class="edge">
<title>dir_4d7f8bf987ecca6ad9438e8e8937cf95&#45;&gt;dir_9a5c88f87170865d940dc95c76676edb</title>
<path fill="none" stroke="black" d="M75.78,-303.82C75.11,-293.46 74.34,-279.98 74,-268 72.68,-221.19 76.93,-166.81 80.03,-134.74"/>
<polygon fill="black" stroke="black" points="83.55,-134.68 81.07,-124.38 76.59,-133.98 83.55,-134.68"/>
<g id="a_edge12&#45;headlabel"><a xlink:href="dir_000009_000005.html" target="_top" xlink:title="2">
<text text-anchor="middle" x="86.02" y="-136.04" font-family="Helvetica,sans-Serif" font-size="10.00">2</text>
</a>
</g>
</g>
<!-- dir_cabf3d63e98569a74ecb960b83c4a15b -->
<g id="node5" class="node">
<title>dir_cabf3d63e98569a74ecb960b83c4a15b</title>
<g id="a_node5"><a xlink:href="dir_cabf3d63e98569a74ecb960b83c4a15b.html" target="_top" xlink:title="Serial">
<polygon fill="none" stroke="black" points="110,-52 56,-52 56,-16 110,-16 110,-52"/>
<text text-anchor="middle" x="83" y="-31.5" font-family="Helvetica,sans-Serif" font-size="10.00">Serial</text>
</a>
</g>
</g>
<!-- dir_4d7f8bf987ecca6ad9438e8e8937cf95&#45;&gt;dir_cabf3d63e98569a74ecb960b83c4a15b -->
<g id="edge13" class="edge">
<title>dir_4d7f8bf987ecca6ad9438e8e8937cf95&#45;&gt;dir_cabf3d63e98569a74ecb960b83c4a15b</title>
<path fill="none" stroke="black" d="M69.99,-303.92C54.98,-264.81 22.96,-166.16 47,-88 50.01,-78.22 55.51,-68.62 61.32,-60.33"/>
<polygon fill="black" stroke="black" points="64.19,-62.33 67.39,-52.23 58.59,-58.13 64.19,-62.33"/>
<g id="a_edge13&#45;headlabel"><a xlink:href="dir_000009_000015.html" target="_top" xlink:title="3">
<text text-anchor="middle" x="64.31" y="-64.41" font-family="Helvetica,sans-Serif" font-size="10.00">3</text>
</a>
</g>
</g>
<!-- dir_60d51ee7315d72413f26211ac43a217e&#45;&gt;dir_4d7f8bf987ecca6ad9438e8e8937cf95 -->
<g id="edge16" class="edge">
<title>dir_60d51ee7315d72413f26211ac43a217e&#45;&gt;dir_4d7f8bf987ecca6ad9438e8e8937cf95</title>
<path fill="none" stroke="black" d="M117.66,-268.1C113.13,-276.3 106.78,-286.28 100.38,-295.36"/>
<polygon fill="black" stroke="black" points="97.36,-293.56 94.29,-303.7 103.01,-297.69 97.36,-293.56"/>
<g id="a_edge16&#45;headlabel"><a xlink:href="dir_000004_000009.html" target="_top" xlink:title="1">
<text text-anchor="middle" x="97.19" y="-286.48" font-family="Helvetica,sans-Serif" font-size="10.00">1</text>
</a>
</g>
</g>
<!-- dir_60d51ee7315d72413f26211ac43a217e&#45;&gt;dir_63ce3ba067bdf35a8f7c780ac03d51a3 -->
<g id="edge17" class="edge">
<title>dir_60d51ee7315d72413f26211ac43a217e&#45;&gt;dir_63ce3ba067bdf35a8f7c780ac03d51a3</title>
<path fill="none" stroke="black" d="M117.08,-231.7C116.29,-223.98 116.06,-214.71 116.4,-206.11"/>
<polygon fill="black" stroke="black" points="119.9,-206.32 117.1,-196.1 112.92,-205.84 119.9,-206.32"/>
<g id="a_edge17&#45;headlabel"><a xlink:href="dir_000004_000017.html" target="_top" xlink:title="1">
<text text-anchor="middle" x="122.48" y="-207.61" font-family="Helvetica,sans-Serif" font-size="10.00">1</text>
</a>
</g>
</g>
<!-- dir_63ce3ba067bdf35a8f7c780ac03d51a3&#45;&gt;dir_60d51ee7315d72413f26211ac43a217e -->
<g id="edge8" class="edge">
<title>dir_63ce3ba067bdf35a8f7c780ac03d51a3&#45;&gt;dir_60d51ee7315d72413f26211ac43a217e</title>
<path fill="none" stroke="black" d="M128.9,-196.1C129.7,-203.79 129.94,-213.05 129.6,-221.67"/>
<polygon fill="black" stroke="black" points="126.11,-221.48 128.92,-231.7 133.09,-221.96 126.11,-221.48"/>
<g id="a_edge8&#45;headlabel"><a xlink:href="dir_000017_000004.html" target="_top" xlink:title="3">
<text text-anchor="middle" x="123.52" y="-215.2" font-family="Helvetica,sans-Serif" font-size="10.00">3</text>
</a>
</g>
</g>
<!-- dir_63ce3ba067bdf35a8f7c780ac03d51a3&#45;&gt;dir_9a5c88f87170865d940dc95c76676edb -->
<g id="edge9" class="edge">
<title>dir_63ce3ba067bdf35a8f7c780ac03d51a3&#45;&gt;dir_9a5c88f87170865d940dc95c76676edb</title>
<path fill="none" stroke="black" d="M107.2,-159.7C101.82,-151.73 96.1,-142.1 91.45,-133.26"/>
<polygon fill="black" stroke="black" points="94.47,-131.49 86.88,-124.1 88.21,-134.62 94.47,-131.49"/>
<g id="a_edge9&#45;headlabel"><a xlink:href="dir_000017_000005.html" target="_top" xlink:title="2">
<text text-anchor="middle" x="98.62" y="-130.94" font-family="Helvetica,sans-Serif" font-size="10.00">2</text>
</a>
</g>
</g>
<!-- dir_9a5c88f87170865d940dc95c76676edb&#45;&gt;dir_63ce3ba067bdf35a8f7c780ac03d51a3 -->
<g id="edge14" class="edge">
<title>dir_9a5c88f87170865d940dc95c76676edb&#45;&gt;dir_63ce3ba067bdf35a8f7c780ac03d51a3</title>
<path fill="none" stroke="black" d="M98.67,-124.1C104.04,-132.04 109.76,-141.67 114.43,-150.51"/>
<polygon fill="black" stroke="black" points="111.42,-152.32 119.03,-159.7 117.68,-149.19 111.42,-152.32"/>
<g id="a_edge14&#45;headlabel"><a xlink:href="dir_000005_000017.html" target="_top" xlink:title="1">
<text text-anchor="middle" x="107.28" y="-147.87" font-family="Helvetica,sans-Serif" font-size="10.00">1</text>
</a>
</g>
</g>
<!-- dir_9a5c88f87170865d940dc95c76676edb&#45;&gt;dir_cabf3d63e98569a74ecb960b83c4a15b -->
<g id="edge15" class="edge">
<title>dir_9a5c88f87170865d940dc95c76676edb&#45;&gt;dir_cabf3d63e98569a74ecb960b83c4a15b</title>
<path fill="none" stroke="black" d="M77.08,-87.7C76.29,-79.98 76.06,-70.71 76.4,-62.11"/>
<polygon fill="black" stroke="black" points="79.9,-62.32 77.1,-52.1 72.92,-61.84 79.9,-62.32"/>
<g id="a_edge15&#45;headlabel"><a xlink:href="dir_000005_000015.html" target="_top" xlink:title="1">
<text text-anchor="middle" x="82.48" y="-63.61" font-family="Helvetica,sans-Serif" font-size="10.00">1</text>
</a>
</g>
</g>
<!-- dir_cabf3d63e98569a74ecb960b83c4a15b&#45;&gt;dir_63ce3ba067bdf35a8f7c780ac03d51a3 -->
<g id="edge6" class="edge">
<title>dir_cabf3d63e98569a74ecb960b83c4a15b&#45;&gt;dir_63ce3ba067bdf35a8f7c780ac03d51a3</title>
<path fill="none" stroke="black" d="M98.37,-52.3C106.07,-62.07 114.65,-74.91 119,-88 125.61,-107.91 126.34,-131.7 125.57,-149.67"/>
<polygon fill="black" stroke="black" points="122.07,-149.57 124.95,-159.77 129.05,-150 122.07,-149.57"/>
<g id="a_edge6&#45;headlabel"><a xlink:href="dir_000015_000017.html" target="_top" xlink:title="2">
<text text-anchor="middle" x="119.45" y="-143.31" font-family="Helvetica,sans-Serif" font-size="10.00">2</text>
</a>
</g>
</g>
<!-- dir_cabf3d63e98569a74ecb960b83c4a15b&#45;&gt;dir_9a5c88f87170865d940dc95c76676edb -->
<g id="edge7" class="edge">
<title>dir_cabf3d63e98569a74ecb960b83c4a15b&#45;&gt;dir_9a5c88f87170865d940dc95c76676edb</title>
<path fill="none" stroke="black" d="M88.9,-52.1C89.7,-59.79 89.94,-69.05 89.6,-77.67"/>
<polygon fill="black" stroke="black" points="86.11,-77.48 88.92,-87.7 93.09,-77.96 86.11,-77.48"/>
<g id="a_edge7&#45;headlabel"><a xlink:href="dir_000015_000005.html" target="_top" xlink:title="4">
<text text-anchor="middle" x="83.52" y="-71.2" font-family="Helvetica,sans-Serif" font-size="10.00">4</text>
</a>
</g>
</g>
<!-- dir_1d79b4615f725ce6e1b38311d89b4d4f -->
<g id="node6" class="node">
<title>dir_1d79b4615f725ce6e1b38311d89b4d4f</title>
<g id="a_node6"><a xlink:href="dir_1d79b4615f725ce6e1b38311d89b4d4f.html" target="_top" xlink:title="Wireless">
<polygon fill="#eeeeff" stroke="black" points="152.5,-412 93.5,-412 93.5,-376 152.5,-376 152.5,-412"/>
<text text-anchor="middle" x="123" y="-391.5" font-family="Helvetica,sans-Serif" font-size="10.00">Wireless</text>
</a>
</g>
</g>
<!-- dir_1d79b4615f725ce6e1b38311d89b4d4f&#45;&gt;dir_4d7f8bf987ecca6ad9438e8e8937cf95 -->
<g id="edge1" class="edge">
<title>dir_1d79b4615f725ce6e1b38311d89b4d4f&#45;&gt;dir_4d7f8bf987ecca6ad9438e8e8937cf95</title>
<path fill="none" stroke="black" d="M111.63,-375.7C106.28,-367.56 99.8,-357.69 93.89,-348.7"/>
<polygon fill="black" stroke="black" points="96.66,-346.54 88.24,-340.1 90.81,-350.38 96.66,-346.54"/>
<g id="a_edge1&#45;headlabel"><a xlink:href="dir_000018_000009.html" target="_top" xlink:title="2">
<text text-anchor="middle" x="101" y="-345.48" font-family="Helvetica,sans-Serif" font-size="10.00">2</text>
</a>
</g>
</g>
<!-- dir_1d79b4615f725ce6e1b38311d89b4d4f&#45;&gt;dir_60d51ee7315d72413f26211ac43a217e -->
<g id="edge2" class="edge">
<title>dir_1d79b4615f725ce6e1b38311d89b4d4f&#45;&gt;dir_60d51ee7315d72413f26211ac43a217e</title>
<path fill="none" stroke="black" d="M123,-375.87C123,-351.67 123,-307.21 123,-278.39"/>
<polygon fill="black" stroke="black" points="126.5,-278.19 123,-268.19 119.5,-278.19 126.5,-278.19"/>
<g id="a_edge2&#45;headlabel"><a xlink:href="dir_000018_000004.html" target="_top" xlink:title="2">
<text text-anchor="middle" x="129.34" y="-279.28" font-family="Helvetica,sans-Serif" font-size="10.00">2</text>
</a>
</g>
</g>
<!-- dir_1d79b4615f725ce6e1b38311d89b4d4f&#45;&gt;dir_63ce3ba067bdf35a8f7c780ac03d51a3 -->
<g id="edge3" class="edge">
<title>dir_1d79b4615f725ce6e1b38311d89b4d4f&#45;&gt;dir_63ce3ba067bdf35a8f7c780ac03d51a3</title>
<path fill="none" stroke="black" d="M132.62,-375.85C147.99,-346.17 174.83,-283.47 159,-232 155.99,-222.22 150.49,-212.62 144.68,-204.33"/>
<polygon fill="black" stroke="black" points="147.41,-202.13 138.61,-196.23 141.81,-206.33 147.41,-202.13"/>
<g id="a_edge3&#45;headlabel"><a xlink:href="dir_000018_000017.html" target="_top" xlink:title="2">
<text text-anchor="middle" x="151.83" y="-200.8" font-family="Helvetica,sans-Serif" font-size="10.00">2</text>
</a>
</g>
</g>
<!-- dir_1d79b4615f725ce6e1b38311d89b4d4f&#45;&gt;dir_9a5c88f87170865d940dc95c76676edb -->
<g id="edge4" class="edge">
<title>dir_1d79b4615f725ce6e1b38311d89b4d4f&#45;&gt;dir_9a5c88f87170865d940dc95c76676edb</title>
<path fill="none" stroke="black" d="M93.1,-382.33C74.48,-373.94 52.02,-360.25 41,-340 4.03,-272.09 44.07,-178.17 67.91,-133.13"/>
<polygon fill="black" stroke="black" points="71.01,-134.75 72.72,-124.29 64.86,-131.41 71.01,-134.75"/>
<g id="a_edge4&#45;headlabel"><a xlink:href="dir_000018_000005.html" target="_top" xlink:title="2">
<text text-anchor="middle" x="71.79" y="-136.76" font-family="Helvetica,sans-Serif" font-size="10.00">2</text>
</a>
</g>
</g>
<!-- dir_1d79b4615f725ce6e1b38311d89b4d4f&#45;&gt;dir_cabf3d63e98569a74ecb960b83c4a15b -->
<g id="edge5" class="edge">
<title>dir_1d79b4615f725ce6e1b38311d89b4d4f&#45;&gt;dir_cabf3d63e98569a74ecb960b83c4a15b</title>
<path fill="none" stroke="black" d="M137,-375.82C156.37,-350.26 189,-299.93 189,-251 189,-251 189,-251 189,-177 189,-127.3 146.78,-83.77 115.63,-58.42"/>
<polygon fill="black" stroke="black" points="117.6,-55.52 107.58,-52.07 113.27,-61.01 117.6,-55.52"/>
<g id="a_edge5&#45;headlabel"><a xlink:href="dir_000018_000015.html" target="_top" xlink:title="8">
<text text-anchor="middle" x="122.18" y="-53.02" font-family="Helvetica,sans-Serif" font-size="10.00">8</text>
</a>
</g>
</g>
</g>
</svg>
        <g id="navigator" transform="translate(0 0)" fill="#404254">
                <rect fill="#f2f5e9" fill-opacity="0.5" stroke="#606060" stroke-width=".5" x="0" y="0" width="60" height="60"/>
                <use id="zoomplus" xlink:href="#zoomPlus" x="17" y="9" onmousedown="handleZoom(evt,'in')"/>
                <use id="zoomminus" xlink:href="#zoomMin" x="42" y="9" onmousedown="handleZoom(evt,'out')"/>
                <use id="reset" xlink:href="#resetDef" x="30" y="36" onmousedown="handleReset()"/>
                <g id="arrowUp" xlink:href="#dirArrow" transform="translate(30 24)" onmousedown="handlePan(0,-1)">
                  <use xlink:href="#rim" fill="#404040">
                        <set attributeName="fill" to="#808080" begin="arrowUp.mouseover" end="arrowUp.mouseout"/>
                  </use>
                  <path fill="none" stroke="white" stroke-width="1.5" d="M0,-3.0v7 M-2.5,-0.5L0,-3.0L2.5,-0.5"/>
                </g>
                <g id="arrowRight" xlink:href="#dirArrow" transform="rotate(90) translate(36 -43)" onmousedown="handlePan(1,0)">
                  <use xlink:href="#rim" fill="#404040">
                        <set attributeName="fill" to="#808080" begin="arrowRight.mouseover" end="arrowRight.mouseout"/>
                  </use>
                  <path fill="none" stroke="white" stroke-width="1.5" d="M0,-3.0v7 M-2.5,-0.5L0,-3.0L2.5,-0.5"/>
                </g>
                <g id="arrowDown" xlink:href="#dirArrow" transform="rotate(180) translate(-30 -48)" onmousedown="handlePan(0,1)">
                  <use xlink:href="#rim" fill="#404040">
                        <set attributeName="fill" to="#808080" begin="arrowDown.mouseover" end="arrowDown.mouseout"/>
                  </use>
                  <path fill="none" stroke="white" stroke-width="1.5" d="M0,-3.0v7 M-2.5,-0.5L0,-3.0L2.5,-0.5"/>
                </g>
                <g id="arrowLeft" xlink:href="#dirArrow" transform="rotate(270) translate(-36 17)" onmousedown="handlePan(-1,0)">
                  <use xlink:href="#rim" fill="#404040">
                        <set attributeName="fill" to="#808080" begin="arrowLeft.mouseover" end="arrowLeft.mouseout"/>
                  </use>
                  <path fill="none" stroke="white" stroke-width="1.5" d="M0,-3.0v7 M-2.5,-0.5L0,-3.0L2.5,-0.5"/>
                </g>
        </g>
        <svg viewBox="0 0 15 15" width="100%" height="30px" preserveAspectRatio="xMaxYMin meet">
         <g id="arrow_out" transform="scale(0.3 0.3)">
          <a xlink:href="dir_1d79b4615f725ce6e1b38311d89b4d4f_dep_org.svg" target="_base">
           <rect id="button" ry="5" rx="5" y="6" x="6" height="38" width="38"
                fill="#f2f5e9" fill-opacity="0.5" stroke="#606060" stroke-width="1.0"/>
           <path id="arrow"
             d="M 11.500037,31.436501 C 11.940474,20.09759 22.043105,11.32322 32.158766,21.979434 L 37.068811,17.246167 C 37.068811,17.246167 37.088388,32 37.088388,32 L 22.160133,31.978069 C 22.160133,31.978069 26.997745,27.140456 26.997745,27.140456 C 18.528582,18.264221 13.291696,25.230495 11.500037,31.436501 z"
             style="fill:#404040;"/>
          </a>
         </g>
        </svg>
</svg>
