<?xml version="1.0" encoding="UTF-8" standalone="no"?>
<!DOCTYPE svg PUBLIC "-//W3C//DTD SVG 1.1//EN"
 "http://www.w3.org/Graphics/SVG/1.1/DTD/svg11.dtd">
<!-- Generated by graphviz version 2.43.0 (0)
 -->
<!-- Title: VortexEngine Pages: 1 -->
<svg width="203pt" height="220pt"
 viewBox="0.00 0.00 203.00 220.00" xmlns="http://www.w3.org/2000/svg" xmlns:xlink="http://www.w3.org/1999/xlink">
<g id="graph0" class="graph" transform="scale(1 1) rotate(0) translate(4 216)">
<title>VortexEngine</title>
<g id="clust1" class="cluster">
<title>clusterdir_cfa97f0e2c08f470d5e70542e8b74b9a</title>
<g id="a_clust1"><a xlink:href="dir_cfa97f0e2c08f470d5e70542e8b74b9a.html" target="_top">
<polygon fill="#eeeeff" stroke="black" points="8,-8 8,-204 187,-204 187,-8 8,-8"/>
</a>
</g>
</g>
<!-- dir_cfa97f0e2c08f470d5e70542e8b74b9a -->
<g id="node1" class="node">
<title>dir_cfa97f0e2c08f470d5e70542e8b74b9a</title>
<text text-anchor="middle" x="138" y="-175.5" font-family="Helvetica,sans-Serif" font-size="10.00">VortexEngine</text>
</g>
<!-- dir_df02266255841645c523fab960c9ed1d -->
<g id="node2" class="node">
<title>dir_df02266255841645c523fab960c9ed1d</title>
<g id="a_node2"><a xlink:href="dir_df02266255841645c523fab960c9ed1d.html" target="_top" xlink:title="src">
<polygon fill="white" stroke="red" points="88,-52 34,-52 34,-16 88,-16 88,-52"/>
<text text-anchor="middle" x="61" y="-31.5" font-family="Helvetica,sans-Serif" font-size="10.00">src</text>
</a>
</g>
</g>
<!-- dir_0f91852d877cbfac2c00effa84ccfa3b -->
<g id="node3" class="node">
<title>dir_0f91852d877cbfac2c00effa84ccfa3b</title>
<g id="a_node3"><a xlink:href="dir_0f91852d877cbfac2c00effa84ccfa3b.html" target="_top" xlink:title="VortexCLI">
<polygon fill="white" stroke="black" points="79.5,-196 16.5,-196 16.5,-160 79.5,-160 79.5,-196"/>
<text text-anchor="middle" x="48" y="-175.5" font-family="Helvetica,sans-Serif" font-size="10.00">VortexCLI</text>
</a>
</g>
</g>
<!-- dir_0f91852d877cbfac2c00effa84ccfa3b&#45;&gt;dir_df02266255841645c523fab960c9ed1d -->
<g id="edge3" class="edge">
<title>dir_0f91852d877cbfac2c00effa84ccfa3b&#45;&gt;dir_df02266255841645c523fab960c9ed1d</title>
<path fill="none" stroke="black" d="M43.65,-159.8C39.74,-141.77 35.29,-112.69 40,-88 41.71,-79.06 44.9,-69.7 48.29,-61.37"/>
<polygon fill="black" stroke="black" points="51.51,-62.73 52.28,-52.17 45.09,-59.95 51.51,-62.73"/>
<g id="a_edge3&#45;headlabel"><a xlink:href="dir_000019_000001.html" target="_top" xlink:title="17">
<text text-anchor="middle" x="52.69" y="-64.66" font-family="Helvetica,sans-Serif" font-size="10.00">17</text>
</a>
</g>
</g>
<!-- dir_c60f258a3bc456c165ec6b5192c40c91 -->
<g id="node4" class="node">
<title>dir_c60f258a3bc456c165ec6b5192c40c91</title>
<g id="a_node4"><a xlink:href="dir_c60f258a3bc456c165ec6b5192c40c91.html" target="_top" xlink:title="VortexLib">
<polygon fill="white" stroke="black" points="111,-124 49,-124 49,-88 111,-88 111,-124"/>
<text text-anchor="middle" x="80" y="-103.5" font-family="Helvetica,sans-Serif" font-size="10.00">VortexLib</text>
</a>
</g>
</g>
<!-- dir_0f91852d877cbfac2c00effa84ccfa3b&#45;&gt;dir_c60f258a3bc456c165ec6b5192c40c91 -->
<g id="edge2" class="edge">
<title>dir_0f91852d877cbfac2c00effa84ccfa3b&#45;&gt;dir_c60f258a3bc456c165ec6b5192c40c91</title>
<path fill="none" stroke="black" d="M55.91,-159.7C59.55,-151.73 63.95,-142.1 67.99,-133.26"/>
<polygon fill="black" stroke="black" points="71.21,-134.65 72.18,-124.1 64.84,-131.74 71.21,-134.65"/>
<g id="a_edge2&#45;headlabel"><a xlink:href="dir_000019_000020.html" target="_top" xlink:title="2">
<text text-anchor="middle" x="72.29" y="-136.6" font-family="Helvetica,sans-Serif" font-size="10.00">2</text>
</a>
</g>
</g>
<!-- dir_c60f258a3bc456c165ec6b5192c40c91&#45;&gt;dir_df02266255841645c523fab960c9ed1d -->
<g id="edge1" class="edge">
<title>dir_c60f258a3bc456c165ec6b5192c40c91&#45;&gt;dir_df02266255841645c523fab960c9ed1d</title>
<path fill="none" stroke="black" d="M75.3,-87.7C73.19,-79.9 70.64,-70.51 68.28,-61.83"/>
<polygon fill="black" stroke="black" points="71.64,-60.84 65.64,-52.1 64.88,-62.67 71.64,-60.84"/>
<g id="a_edge1&#45;headlabel"><a xlink:href="dir_000020_000001.html" target="_top" xlink:title="21">
<text text-anchor="middle" x="75.32" y="-61.06" font-family="Helvetica,sans-Serif" font-size="10.00">21</text>
</a>
</g>
</g>
</g>
</svg>
