<?xml version="1.0" encoding="UTF-8" standalone="no"?>
<!DOCTYPE svg PUBLIC "-//W3C//DTD SVG 1.1//EN"
 "http://www.w3.org/Graphics/SVG/1.1/DTD/svg11.dtd">
<!-- Generated by graphviz version 2.43.0 (0)
 -->
<!-- Title: VortexEngine/src/Colors Pages: 1 -->
<svg width="213pt" height="311pt"
 viewBox="0.00 0.00 213.00 311.00" xmlns="http://www.w3.org/2000/svg" xmlns:xlink="http://www.w3.org/1999/xlink">
<g id="graph0" class="graph" transform="scale(1 1) rotate(0) translate(4 307)">
<title>VortexEngine/src/Colors</title>
<g id="clust1" class="cluster">
<title>clusterdir_df02266255841645c523fab960c9ed1d</title>
<g id="a_clust1"><a xlink:href="dir_df02266255841645c523fab960c9ed1d.html" target="_top" xlink:title="src">
<polygon fill="#ddddee" stroke="black" points="8,-8 8,-295 197,-295 197,-8 8,-8"/>
<text text-anchor="middle" x="102.5" y="-283" font-family="Helvetica,sans-Serif" font-size="10.00">src</text>
</a>
</g>
</g>
<!-- dir_77968f70279e8f688919023f4af8a16f -->
<g id="node1" class="node">
<title>dir_77968f70279e8f688919023f4af8a16f</title>
<g id="a_node1"><a xlink:href="dir_77968f70279e8f688919023f4af8a16f.html" target="_top" xlink:title="Random">
<polygon fill="none" stroke="black" points="73.5,-196 16.5,-196 16.5,-160 73.5,-160 73.5,-196"/>
<text text-anchor="middle" x="45" y="-175.5" font-family="Helvetica,sans-Serif" font-size="10.00">Random</text>
</a>
</g>
</g>
<!-- dir_7e29431de6169dbb5f5ee7a990ed2b16 -->
<g id="node2" class="node">
<title>dir_7e29431de6169dbb5f5ee7a990ed2b16</title>
<g id="a_node2"><a xlink:href="dir_7e29431de6169dbb5f5ee7a990ed2b16.html" target="_top" xlink:title="Memory">
<polygon fill="none" stroke="black" points="148.5,-196 91.5,-196 91.5,-160 148.5,-160 148.5,-196"/>
<text text-anchor="middle" x="120" y="-175.5" font-family="Helvetica,sans-Serif" font-size="10.00">Memory</text>
</a>
</g>
</g>
<!-- dir_9a5c88f87170865d940dc95c76676edb -->
<g id="node3" class="node">
<title>dir_9a5c88f87170865d940dc95c76676edb</title>
<g id="a_node3"><a xlink:href="dir_9a5c88f87170865d940dc95c76676edb.html" target="_top" xlink:title="Log">
<polygon fill="none" stroke="black" points="169,-124 115,-124 115,-88 169,-88 169,-124"/>
<text text-anchor="middle" x="142" y="-103.5" font-family="Helvetica,sans-Serif" font-size="10.00">Log</text>
</a>
</g>
</g>
<!-- dir_7e29431de6169dbb5f5ee7a990ed2b16&#45;&gt;dir_9a5c88f87170865d940dc95c76676edb -->
<g id="edge4" class="edge">
<title>dir_7e29431de6169dbb5f5ee7a990ed2b16&#45;&gt;dir_9a5c88f87170865d940dc95c76676edb</title>
<path fill="none" stroke="black" d="M125.44,-159.7C127.89,-151.9 130.84,-142.51 133.57,-133.83"/>
<polygon fill="black" stroke="black" points="136.96,-134.69 136.62,-124.1 130.29,-132.59 136.96,-134.69"/>
<g id="a_edge4&#45;headlabel"><a xlink:href="dir_000006_000005.html" target="_top" xlink:title="1">
<text text-anchor="middle" x="138.6" y="-136.47" font-family="Helvetica,sans-Serif" font-size="10.00">1</text>
</a>
</g>
</g>
<!-- dir_cabf3d63e98569a74ecb960b83c4a15b -->
<g id="node4" class="node">
<title>dir_cabf3d63e98569a74ecb960b83c4a15b</title>
<g id="a_node4"><a xlink:href="dir_cabf3d63e98569a74ecb960b83c4a15b.html" target="_top" xlink:title="Serial">
<polygon fill="none" stroke="black" points="169,-52 115,-52 115,-16 169,-16 169,-52"/>
<text text-anchor="middle" x="142" y="-31.5" font-family="Helvetica,sans-Serif" font-size="10.00">Serial</text>
</a>
</g>
</g>
<!-- dir_9a5c88f87170865d940dc95c76676edb&#45;&gt;dir_cabf3d63e98569a74ecb960b83c4a15b -->
<g id="edge3" class="edge">
<title>dir_9a5c88f87170865d940dc95c76676edb&#45;&gt;dir_cabf3d63e98569a74ecb960b83c4a15b</title>
<path fill="none" stroke="black" d="M136.08,-87.7C135.29,-79.98 135.06,-70.71 135.4,-62.11"/>
<polygon fill="black" stroke="black" points="138.9,-62.32 136.1,-52.1 131.92,-61.84 138.9,-62.32"/>
<g id="a_edge3&#45;headlabel"><a xlink:href="dir_000005_000015.html" target="_top" xlink:title="1">
<text text-anchor="middle" x="141.48" y="-63.61" font-family="Helvetica,sans-Serif" font-size="10.00">1</text>
</a>
</g>
</g>
<!-- dir_cabf3d63e98569a74ecb960b83c4a15b&#45;&gt;dir_7e29431de6169dbb5f5ee7a990ed2b16 -->
<g id="edge1" class="edge">
<title>dir_cabf3d63e98569a74ecb960b83c4a15b&#45;&gt;dir_7e29431de6169dbb5f5ee7a990ed2b16</title>
<path fill="none" stroke="black" d="M126.39,-52.23C118.63,-61.97 110.05,-74.82 106,-88 99.71,-108.47 104.15,-132.49 109.64,-150.42"/>
<polygon fill="black" stroke="black" points="106.34,-151.58 112.83,-159.95 112.97,-149.35 106.34,-151.58"/>
<g id="a_edge1&#45;headlabel"><a xlink:href="dir_000015_000006.html" target="_top" xlink:title="3">
<text text-anchor="middle" x="102.5" y="-146.57" font-family="Helvetica,sans-Serif" font-size="10.00">3</text>
</a>
</g>
</g>
<!-- dir_cabf3d63e98569a74ecb960b83c4a15b&#45;&gt;dir_9a5c88f87170865d940dc95c76676edb -->
<g id="edge2" class="edge">
<title>dir_cabf3d63e98569a74ecb960b83c4a15b&#45;&gt;dir_9a5c88f87170865d940dc95c76676edb</title>
<path fill="none" stroke="black" d="M147.9,-52.1C148.7,-59.79 148.94,-69.05 148.6,-77.67"/>
<polygon fill="black" stroke="black" points="145.11,-77.48 147.92,-87.7 152.09,-77.96 145.11,-77.48"/>
<g id="a_edge2&#45;headlabel"><a xlink:href="dir_000015_000005.html" target="_top" xlink:title="4">
<text text-anchor="middle" x="142.52" y="-71.2" font-family="Helvetica,sans-Serif" font-size="10.00">4</text>
</a>
</g>
</g>
<!-- dir_ce91f970b513fb5ff406625265505b14 -->
<g id="node5" class="node">
<title>dir_ce91f970b513fb5ff406625265505b14</title>
<g id="a_node5"><a xlink:href="dir_ce91f970b513fb5ff406625265505b14.html" target="_top" xlink:title="Colors">
<polygon fill="#eeeeff" stroke="black" points="168,-268 114,-268 114,-232 168,-232 168,-268"/>
<text text-anchor="middle" x="141" y="-247.5" font-family="Helvetica,sans-Serif" font-size="10.00">Colors</text>
</a>
</g>
</g>
<!-- dir_ce91f970b513fb5ff406625265505b14&#45;&gt;dir_77968f70279e8f688919023f4af8a16f -->
<g id="edge5" class="edge">
<title>dir_ce91f970b513fb5ff406625265505b14&#45;&gt;dir_77968f70279e8f688919023f4af8a16f</title>
<path fill="none" stroke="black" d="M117.27,-231.7C105.06,-222.8 90.01,-211.82 76.82,-202.2"/>
<polygon fill="black" stroke="black" points="78.6,-199.17 68.46,-196.1 74.48,-204.82 78.6,-199.17"/>
<g id="a_edge5&#45;headlabel"><a xlink:href="dir_000003_000014.html" target="_top" xlink:title="1">
<text text-anchor="middle" x="83.18" y="-196.49" font-family="Helvetica,sans-Serif" font-size="10.00">1</text>
</a>
</g>
</g>
<!-- dir_ce91f970b513fb5ff406625265505b14&#45;&gt;dir_7e29431de6169dbb5f5ee7a990ed2b16 -->
<g id="edge6" class="edge">
<title>dir_ce91f970b513fb5ff406625265505b14&#45;&gt;dir_7e29431de6169dbb5f5ee7a990ed2b16</title>
<path fill="none" stroke="black" d="M135.81,-231.7C133.47,-223.9 130.65,-214.51 128.05,-205.83"/>
<polygon fill="black" stroke="black" points="131.36,-204.68 125.13,-196.1 124.65,-206.69 131.36,-204.68"/>
<g id="a_edge6&#45;headlabel"><a xlink:href="dir_000003_000006.html" target="_top" xlink:title="1">
<text text-anchor="middle" x="135.11" y="-204.8" font-family="Helvetica,sans-Serif" font-size="10.00">1</text>
</a>
</g>
</g>
<!-- dir_ce91f970b513fb5ff406625265505b14&#45;&gt;dir_9a5c88f87170865d940dc95c76676edb -->
<g id="edge7" class="edge">
<title>dir_ce91f970b513fb5ff406625265505b14&#45;&gt;dir_9a5c88f87170865d940dc95c76676edb</title>
<path fill="none" stroke="black" d="M148.07,-231.67C151.84,-221.47 156.09,-208.22 158,-196 160.47,-180.19 160.34,-175.83 158,-160 156.72,-151.35 154.33,-142.15 151.78,-133.89"/>
<polygon fill="black" stroke="black" points="155.1,-132.78 148.65,-124.37 148.45,-134.96 155.1,-132.78"/>
<g id="a_edge7&#45;headlabel"><a xlink:href="dir_000003_000005.html" target="_top" xlink:title="1">
<text text-anchor="middle" x="158.92" y="-132.81" font-family="Helvetica,sans-Serif" font-size="10.00">1</text>
</a>
</g>
</g>
<!-- dir_ce91f970b513fb5ff406625265505b14&#45;&gt;dir_cabf3d63e98569a74ecb960b83c4a15b -->
<g id="edge8" class="edge">
<title>dir_ce91f970b513fb5ff406625265505b14&#45;&gt;dir_cabf3d63e98569a74ecb960b83c4a15b</title>
<path fill="none" stroke="black" d="M150.8,-231.86C166.46,-202.21 193.85,-139.54 178,-88 174.99,-78.22 169.49,-68.62 163.68,-60.33"/>
<polygon fill="black" stroke="black" points="166.41,-58.13 157.61,-52.23 160.81,-62.33 166.41,-58.13"/>
<g id="a_edge8&#45;headlabel"><a xlink:href="dir_000003_000015.html" target="_top" xlink:title="2">
<text text-anchor="middle" x="170.83" y="-56.8" font-family="Helvetica,sans-Serif" font-size="10.00">2</text>
</a>
</g>
</g>
</g>
</svg>
