<?xml version="1.0" encoding="UTF-8" standalone="no"?>
<!DOCTYPE svg PUBLIC "-//W3C//DTD SVG 1.1//EN"
 "http://www.w3.org/Graphics/SVG/1.1/DTD/svg11.dtd">
<!-- Generated by graphviz version 2.43.0 (0)
 -->
<!-- Title: VortexEngine/src/Menus/MenuList/EditorConnection.cpp Pages: 1 -->
<!--zoomable 431 -->
<svg id="main" version="1.1" xmlns="http://www.w3.org/2000/svg" xmlns:xlink="http://www.w3.org/1999/xlink" xml:space="preserve" onload="init(evt)">
<style type="text/css"><![CDATA[
.edge:hover path { stroke: red; }
.edge:hover polygon { stroke: red; fill: red; }
]]></style>
<script type="text/javascript"><![CDATA[
var edges = document.getElementsByTagName('g');
if (edges && edges.length) {
  for (var i=0;i<edges.length;i++) {
    if (edges[i].id.substr(0,4)=='edge') {
      edges[i].setAttribute('class','edge');
    }
  }
}
]]></script>
        <defs>
                <circle id="rim" cx="0" cy="0" r="7"/>
                <circle id="rim2" cx="0" cy="0" r="3.5"/>
                <g id="zoomPlus">
                        <use xlink:href="#rim" fill="#404040">
                                <set attributeName="fill" to="#808080" begin="zoomplus.mouseover" end="zoomplus.mouseout"/>
                        </use>
                        <path d="M-4,0h8M0,-4v8" fill="none" stroke="white" stroke-width="1.5" pointer-events="none"/>
                </g>
                <g id="zoomMin">
                        <use xlink:href="#rim" fill="#404040">
                                <set attributeName="fill" to="#808080" begin="zoomminus.mouseover" end="zoomminus.mouseout"/>
                        </use>
                        <path d="M-4,0h8" fill="none" stroke="white" stroke-width="1.5" pointer-events="none"/>
                </g>
                <g id="dirArrow">
                        <path fill="none" stroke="white" stroke-width="1.5" d="M0,-3.0v7 M-2.5,-0.5L0,-3.0L2.5,-0.5"/>
                </g>
               <g id="resetDef">
                       <use xlink:href="#rim2" fill="#404040">
                               <set attributeName="fill" to="#808080" begin="reset.mouseover" end="reset.mouseout"/>
                       </use>
               </g>
        </defs>

<script type="text/javascript">
var viewWidth = 1429;
var viewHeight = 431;
var sectionId = 'dynsection-0';
</script>
<script xlink:href="svgpan.js"/>
<svg id="graph" class="graph">
<g id="viewport">
<title>VortexEngine/src/Menus/MenuList/EditorConnection.cpp</title>
<!-- Node1 -->
<g id="node1" class="node">
<title>Node1</title>
<g id="a_node1"><a xlink:title=" ">
<polygon fill="#bfbfbf" stroke="black" points="520,-392.5 520,-422.5 690,-422.5 690,-392.5 520,-392.5"/>
<text text-anchor="start" x="528" y="-410.5" font-family="Helvetica,sans-Serif" font-size="10.00">VortexEngine/src/Menus</text>
<text text-anchor="middle" x="605" y="-399.5" font-family="Helvetica,sans-Serif" font-size="10.00">/MenuList/EditorConnection.cpp</text>
</a>
</g>
</g>
<!-- Node2 -->
<g id="node2" class="node">
<title>Node2</title>
<g id="a_node2"><a xlink:href="EditorConnection_8h.html" target="_top" xlink:title=" ">
<polygon fill="none" stroke="black" points="915.5,-336.5 915.5,-355.5 1024.5,-355.5 1024.5,-336.5 915.5,-336.5"/>
<text text-anchor="middle" x="970" y="-343.5" font-family="Helvetica,sans-Serif" font-size="10.00">EditorConnection.h</text>
</a>
</g>
</g>
<!-- Node1&#45;&gt;Node2 -->
<g id="edge1" class="edge">
<title>Node1&#45;&gt;Node2</title>
<path fill="none" stroke="midnightblue" d="M690.12,-392.62C756.73,-381.77 847.81,-366.92 907.74,-357.15"/>
<polygon fill="midnightblue" stroke="midnightblue" points="908.51,-360.57 917.81,-355.51 907.38,-353.66 908.51,-360.57"/>
</g>
<!-- Node10 -->
<g id="node10" class="node">
<title>Node10</title>
<g id="a_node10"><a xlink:href="Mode_8h.html" target="_top" xlink:title=" ">
<polygon fill="none" stroke="black" points="1102.5,-224.5 1102.5,-243.5 1199.5,-243.5 1199.5,-224.5 1102.5,-224.5"/>
<text text-anchor="middle" x="1151" y="-231.5" font-family="Helvetica,sans-Serif" font-size="10.00">../Modes/Mode.h</text>
</a>
</g>
</g>
<!-- Node1&#45;&gt;Node10 -->
<g id="edge58" class="edge">
<title>Node1&#45;&gt;Node10</title>
<path fill="none" stroke="midnightblue" d="M690.39,-403.21C797.85,-397.91 975.44,-384.99 1034,-356 1082.49,-331.99 1122.05,-279.41 1140.22,-252.15"/>
<polygon fill="midnightblue" stroke="midnightblue" points="1143.23,-253.95 1145.74,-243.65 1137.36,-250.13 1143.23,-253.95"/>
</g>
<!-- Node13 -->
<g id="node13" class="node">
<title>Node13</title>
<g id="a_node13"><a xlink:href="ByteStream_8h.html" target="_top" xlink:title=" ">
<polygon fill="none" stroke="black" points="299,-168.5 299,-187.5 431,-187.5 431,-168.5 299,-168.5"/>
<text text-anchor="middle" x="365" y="-175.5" font-family="Helvetica,sans-Serif" font-size="10.00">../../Serial/ByteStream.h</text>
</a>
</g>
</g>
<!-- Node1&#45;&gt;Node13 -->
<g id="edge30" class="edge">
<title>Node1&#45;&gt;Node13</title>
<path fill="none" stroke="midnightblue" d="M586.83,-392.44C552.32,-365.38 475.62,-303.46 418,-244 403.18,-228.71 388,-209.67 377.7,-196.16"/>
<polygon fill="midnightblue" stroke="midnightblue" points="380.22,-193.7 371.42,-187.81 374.63,-197.9 380.22,-193.7"/>
</g>
<!-- Node14 -->
<g id="node14" class="node">
<title>Node14</title>
<g id="a_node14"><a xlink:href="Log_8h.html" target="_top" xlink:title=" ">
<polygon fill="none" stroke="black" points="1303,-112.5 1303,-131.5 1375,-131.5 1375,-112.5 1303,-112.5"/>
<text text-anchor="middle" x="1339" y="-119.5" font-family="Helvetica,sans-Serif" font-size="10.00">../Log/Log.h</text>
</a>
</g>
</g>
<!-- Node1&#45;&gt;Node14 -->
<g id="edge60" class="edge">
<title>Node1&#45;&gt;Node14</title>
<path fill="none" stroke="midnightblue" d="M690.28,-401.88C883.69,-390.27 1339,-356.02 1339,-291 1339,-291 1339,-291 1339,-233 1339,-200.95 1339,-163.64 1339,-141.75"/>
<polygon fill="midnightblue" stroke="midnightblue" points="1342.5,-141.56 1339,-131.56 1335.5,-141.56 1342.5,-141.56"/>
</g>
<!-- Node15 -->
<g id="node15" class="node">
<title>Node15</title>
<g id="a_node15"><a xlink:href="PatternArgs_8h.html" target="_top" xlink:title=" ">
<polygon fill="none" stroke="black" points="69.5,-280.5 69.5,-299.5 212.5,-299.5 212.5,-280.5 69.5,-280.5"/>
<text text-anchor="middle" x="141" y="-287.5" font-family="Helvetica,sans-Serif" font-size="10.00">../../Patterns/PatternArgs.h</text>
</a>
</g>
</g>
<!-- Node1&#45;&gt;Node15 -->
<g id="edge28" class="edge">
<title>Node1&#45;&gt;Node15</title>
<path fill="none" stroke="midnightblue" d="M519.7,-395.77C461.67,-387.46 383.48,-374.26 316,-356 263.18,-341.7 203.91,-317.99 169.68,-303.5"/>
<polygon fill="midnightblue" stroke="midnightblue" points="170.87,-300.21 160.3,-299.5 168.12,-306.65 170.87,-300.21"/>
</g>
<!-- Node16 -->
<g id="node16" class="node">
<title>Node16</title>
<g id="a_node16"><a xlink:href="Serial_8h.html" target="_top" xlink:title=" ">
<polygon fill="none" stroke="black" points="231,-280.5 231,-299.5 333,-299.5 333,-280.5 231,-280.5"/>
<text text-anchor="middle" x="282" y="-287.5" font-family="Helvetica,sans-Serif" font-size="10.00">../../Serial/Serial.h</text>
</a>
</g>
</g>
<!-- Node1&#45;&gt;Node16 -->
<g id="edge31" class="edge">
<title>Node1&#45;&gt;Node16</title>
<path fill="none" stroke="midnightblue" d="M519.77,-402.4C467.36,-396.91 400.28,-384.37 347,-356 325.1,-344.34 305.82,-322.86 294.06,-307.8"/>
<polygon fill="midnightblue" stroke="midnightblue" points="296.85,-305.68 288.05,-299.79 291.26,-309.89 296.85,-305.68"/>
</g>
<!-- Node17 -->
<g id="node17" class="node">
<title>Node17</title>
<g id="a_node17"><a xlink:href="Storage_8h.html" target="_top" xlink:title=" ">
<polygon fill="none" stroke="black" points="0,-336.5 0,-355.5 122,-355.5 122,-336.5 0,-336.5"/>
<text text-anchor="middle" x="61" y="-343.5" font-family="Helvetica,sans-Serif" font-size="10.00">../../Storage/Storage.h</text>
</a>
</g>
</g>
<!-- Node1&#45;&gt;Node17 -->
<g id="edge33" class="edge">
<title>Node1&#45;&gt;Node17</title>
<path fill="none" stroke="midnightblue" d="M519.7,-397.17C412.88,-385.49 231.82,-365.68 132.12,-354.78"/>
<polygon fill="midnightblue" stroke="midnightblue" points="132.46,-351.3 122.14,-353.69 131.7,-358.25 132.46,-351.3"/>
</g>
<!-- Node18 -->
<g id="node18" class="node">
<title>Node18</title>
<g id="a_node18"><a xlink:href="VLSender_8h.html" target="_top" xlink:title=" ">
<polygon fill="none" stroke="black" points="221,-224.5 221,-243.5 355,-243.5 355,-224.5 221,-224.5"/>
<text text-anchor="middle" x="288" y="-231.5" font-family="Helvetica,sans-Serif" font-size="10.00">../../Wireless/VLSender.h</text>
</a>
</g>
</g>
<!-- Node1&#45;&gt;Node18 -->
<g id="edge35" class="edge">
<title>Node1&#45;&gt;Node18</title>
<path fill="none" stroke="midnightblue" d="M519.85,-403.1C475.94,-397.6 423.64,-384.82 385,-356 353.89,-332.8 366.87,-309.8 342,-280 332.37,-268.47 319.52,-257.62 308.77,-249.47"/>
<polygon fill="midnightblue" stroke="midnightblue" points="310.83,-246.64 300.7,-243.54 306.69,-252.28 310.83,-246.64"/>
</g>
<!-- Node21 -->
<g id="node21" class="node">
<title>Node21</title>
<g id="a_node21"><a xlink:href="TimeControl_8h.html" target="_top" xlink:title=" ">
<polygon fill="none" stroke="black" points="877.5,-168.5 877.5,-187.5 1008.5,-187.5 1008.5,-168.5 877.5,-168.5"/>
<text text-anchor="middle" x="943" y="-175.5" font-family="Helvetica,sans-Serif" font-size="10.00">../../Time/TimeControl.h</text>
</a>
</g>
</g>
<!-- Node1&#45;&gt;Node21 -->
<g id="edge41" class="edge">
<title>Node1&#45;&gt;Node21</title>
<path fill="none" stroke="midnightblue" d="M625.89,-392.44C686.26,-351.8 860.56,-234.49 921.59,-193.41"/>
<polygon fill="midnightblue" stroke="midnightblue" points="923.72,-196.2 930.06,-187.71 919.81,-190.39 923.72,-196.2"/>
</g>
<!-- Node22 -->
<g id="node22" class="node">
<title>Node22</title>
<g id="a_node22"><a xlink:href="Colorset_8h.html" target="_top" xlink:title=" ">
<polygon fill="none" stroke="black" points="703,-168.5 703,-187.5 821,-187.5 821,-168.5 703,-168.5"/>
<text text-anchor="middle" x="762" y="-175.5" font-family="Helvetica,sans-Serif" font-size="10.00">../../Colors/Colorset.h</text>
</a>
</g>
</g>
<!-- Node1&#45;&gt;Node22 -->
<g id="edge45" class="edge">
<title>Node1&#45;&gt;Node22</title>
<path fill="none" stroke="midnightblue" d="M614.82,-392.27C642.34,-352.39 720.14,-239.66 750.06,-196.3"/>
<polygon fill="midnightblue" stroke="midnightblue" points="753.04,-198.15 755.84,-187.93 747.28,-194.17 753.04,-198.15"/>
</g>
<!-- Node23 -->
<g id="node23" class="node">
<title>Node23</title>
<g id="a_node23"><a xlink:href="Modes_8h.html" target="_top" xlink:title=" ">
<polygon fill="none" stroke="black" points="465.5,-224.5 465.5,-243.5 576.5,-243.5 576.5,-224.5 465.5,-224.5"/>
<text text-anchor="middle" x="521" y="-231.5" font-family="Helvetica,sans-Serif" font-size="10.00">../../Modes/Modes.h</text>
</a>
</g>
</g>
<!-- Node1&#45;&gt;Node23 -->
<g id="edge48" class="edge">
<title>Node1&#45;&gt;Node23</title>
<path fill="none" stroke="midnightblue" d="M598.13,-392.47C582.93,-361.44 546.49,-287.05 529.72,-252.81"/>
<polygon fill="midnightblue" stroke="midnightblue" points="532.73,-251 525.19,-243.56 526.45,-254.08 532.73,-251"/>
</g>
<!-- Node24 -->
<g id="node24" class="node">
<title>Node24</title>
<g id="a_node24"><a xlink:href="Leds_8h.html" target="_top" xlink:title=" ">
<polygon fill="none" stroke="black" points="563.5,-168.5 563.5,-187.5 646.5,-187.5 646.5,-168.5 563.5,-168.5"/>
<text text-anchor="middle" x="605" y="-175.5" font-family="Helvetica,sans-Serif" font-size="10.00">../Leds/Leds.h</text>
</a>
</g>
</g>
<!-- Node1&#45;&gt;Node24 -->
<g id="edge59" class="edge">
<title>Node1&#45;&gt;Node24</title>
<path fill="none" stroke="midnightblue" d="M605,-392.27C605,-352.89 605,-242.49 605,-197.97"/>
<polygon fill="midnightblue" stroke="midnightblue" points="608.5,-197.93 605,-187.93 601.5,-197.93 608.5,-197.93"/>
</g>
<!-- Node25 -->
<g id="node25" class="node">
<title>Node25</title>
<g id="a_node25"><a xlink:title=" ">
<polygon fill="none" stroke="#bfbfbf" points="1367.5,-336.5 1367.5,-355.5 1420.5,-355.5 1420.5,-336.5 1367.5,-336.5"/>
<text text-anchor="middle" x="1394" y="-343.5" font-family="Helvetica,sans-Serif" font-size="10.00">string.h</text>
</a>
</g>
</g>
<!-- Node1&#45;&gt;Node25 -->
<g id="edge61" class="edge">
<title>Node1&#45;&gt;Node25</title>
<path fill="none" stroke="midnightblue" d="M690.12,-404.87C829.38,-401.27 1114.3,-390.06 1353,-356 1354.3,-355.81 1355.62,-355.61 1356.95,-355.39"/>
<polygon fill="midnightblue" stroke="midnightblue" points="1358.01,-358.75 1367.2,-353.48 1356.73,-351.87 1358.01,-358.75"/>
</g>
<!-- Node3 -->
<g id="node3" class="node">
<title>Node3</title>
<g id="a_node3"><a xlink:href="Menu_8h.html" target="_top" xlink:title=" ">
<polygon fill="none" stroke="black" points="939,-280.5 939,-299.5 1001,-299.5 1001,-280.5 939,-280.5"/>
<text text-anchor="middle" x="970" y="-287.5" font-family="Helvetica,sans-Serif" font-size="10.00">../Menu.h</text>
</a>
</g>
</g>
<!-- Node2&#45;&gt;Node3 -->
<g id="edge2" class="edge">
<title>Node2&#45;&gt;Node3</title>
<path fill="none" stroke="midnightblue" d="M970,-336.08C970,-329.01 970,-318.86 970,-309.99"/>
<polygon fill="midnightblue" stroke="midnightblue" points="973.5,-309.75 970,-299.75 966.5,-309.75 973.5,-309.75"/>
</g>
<!-- Node2&#45;&gt;Node10 -->
<g id="edge27" class="edge">
<title>Node2&#45;&gt;Node10</title>
<path fill="none" stroke="midnightblue" d="M984.2,-336.37C1015.39,-317.41 1090.12,-272 1128.06,-248.94"/>
<polygon fill="midnightblue" stroke="midnightblue" points="1130.14,-251.78 1136.86,-243.59 1126.5,-245.79 1130.14,-251.78"/>
</g>
<!-- Node2&#45;&gt;Node13 -->
<g id="edge22" class="edge">
<title>Node2&#45;&gt;Node13</title>
<path fill="none" stroke="midnightblue" d="M915.38,-341.75C819.16,-334.41 614.7,-311.56 457,-244 428.27,-231.69 399.55,-209.41 382.03,-194.41"/>
<polygon fill="midnightblue" stroke="midnightblue" points="384.2,-191.67 374.37,-187.71 379.59,-196.93 384.2,-191.67"/>
</g>
<!-- Node4 -->
<g id="node4" class="node">
<title>Node4</title>
<g id="a_node4"><a xlink:title=" ">
<polygon fill="none" stroke="#bfbfbf" points="445.5,-56.5 445.5,-75.5 510.5,-75.5 510.5,-56.5 445.5,-56.5"/>
<text text-anchor="middle" x="478" y="-63.5" font-family="Helvetica,sans-Serif" font-size="10.00">inttypes.h</text>
</a>
</g>
</g>
<!-- Node3&#45;&gt;Node4 -->
<g id="edge3" class="edge">
<title>Node3&#45;&gt;Node4</title>
<path fill="none" stroke="midnightblue" d="M962.55,-280.26C936.4,-250.29 844.9,-151.3 745,-112 669.74,-82.4 575.06,-72.26 521.04,-68.79"/>
<polygon fill="midnightblue" stroke="midnightblue" points="520.99,-65.28 510.8,-68.19 520.57,-72.27 520.99,-65.28"/>
</g>
<!-- Node5 -->
<g id="node5" class="node">
<title>Node5</title>
<g id="a_node5"><a xlink:href="ColorTypes_8h.html" target="_top" xlink:title=" ">
<polygon fill="none" stroke="black" points="614,-112.5 614,-131.5 736,-131.5 736,-112.5 614,-112.5"/>
<text text-anchor="middle" x="675" y="-119.5" font-family="Helvetica,sans-Serif" font-size="10.00">../Colors/ColorTypes.h</text>
</a>
</g>
</g>
<!-- Node3&#45;&gt;Node5 -->
<g id="edge4" class="edge">
<title>Node3&#45;&gt;Node5</title>
<path fill="none" stroke="midnightblue" d="M938.79,-286.76C881.59,-280.92 759.78,-260.25 694,-188 682.51,-175.38 677.94,-156.17 676.14,-141.9"/>
<polygon fill="midnightblue" stroke="midnightblue" points="679.61,-141.38 675.21,-131.74 672.63,-142.01 679.61,-141.38"/>
</g>
<!-- Node8 -->
<g id="node8" class="node">
<title>Node8</title>
<g id="a_node8"><a xlink:href="LedTypes_8h.html" target="_top" xlink:title=" ">
<polygon fill="none" stroke="black" points="968.5,-112.5 968.5,-131.5 1073.5,-131.5 1073.5,-112.5 968.5,-112.5"/>
<text text-anchor="middle" x="1021" y="-119.5" font-family="Helvetica,sans-Serif" font-size="10.00">../Leds/LedTypes.h</text>
</a>
</g>
</g>
<!-- Node3&#45;&gt;Node8 -->
<g id="edge9" class="edge">
<title>Node3&#45;&gt;Node8</title>
<path fill="none" stroke="midnightblue" d="M975.64,-280.26C986.25,-263.3 1008.92,-224.35 1018,-188 1021.81,-172.74 1022.37,-154.86 1022.08,-141.71"/>
<polygon fill="midnightblue" stroke="midnightblue" points="1025.57,-141.42 1021.67,-131.57 1018.57,-141.7 1025.57,-141.42"/>
</g>
<!-- Node3&#45;&gt;Node10 -->
<g id="edge13" class="edge">
<title>Node3&#45;&gt;Node10</title>
<path fill="none" stroke="midnightblue" d="M998.68,-280.44C1029.53,-271.24 1078.73,-256.56 1112.83,-246.39"/>
<polygon fill="midnightblue" stroke="midnightblue" points="1113.87,-249.73 1122.45,-243.52 1111.87,-243.02 1113.87,-249.73"/>
</g>
<!-- Node5&#45;&gt;Node4 -->
<g id="edge5" class="edge">
<title>Node5&#45;&gt;Node4</title>
<path fill="none" stroke="midnightblue" d="M643.78,-112.44C610.07,-103.2 556.2,-88.44 519.07,-78.26"/>
<polygon fill="midnightblue" stroke="midnightblue" points="519.64,-74.78 509.07,-75.52 517.79,-81.54 519.64,-74.78"/>
</g>
<!-- Node6 -->
<g id="node6" class="node">
<title>Node6</title>
<g id="a_node6"><a xlink:href="VortexConfig_8h.html" target="_top" xlink:title=" ">
<polygon fill="none" stroke="black" points="878.5,-56.5 878.5,-75.5 975.5,-75.5 975.5,-56.5 878.5,-56.5"/>
<text text-anchor="middle" x="927" y="-63.5" font-family="Helvetica,sans-Serif" font-size="10.00">../VortexConfig.h</text>
</a>
</g>
</g>
<!-- Node5&#45;&gt;Node6 -->
<g id="edge6" class="edge">
<title>Node5&#45;&gt;Node6</title>
<path fill="none" stroke="midnightblue" d="M714.93,-112.44C758.89,-103.02 829.63,-87.87 877.18,-77.68"/>
<polygon fill="midnightblue" stroke="midnightblue" points="878.21,-81.03 887.26,-75.52 876.75,-74.19 878.21,-81.03"/>
</g>
<!-- Node7 -->
<g id="node7" class="node">
<title>Node7</title>
<g id="a_node7"><a xlink:href="ColorConstants_8h.html" target="_top" xlink:title=" ">
<polygon fill="none" stroke="black" points="787,-0.5 787,-19.5 921,-19.5 921,-0.5 787,-0.5"/>
<text text-anchor="middle" x="854" y="-7.5" font-family="Helvetica,sans-Serif" font-size="10.00">Colors/ColorConstants.h</text>
</a>
</g>
</g>
<!-- Node5&#45;&gt;Node7 -->
<g id="edge8" class="edge">
<title>Node5&#45;&gt;Node7</title>
<path fill="none" stroke="midnightblue" d="M689.05,-112.37C719.89,-93.41 793.79,-48 831.31,-24.94"/>
<polygon fill="midnightblue" stroke="midnightblue" points="833.33,-27.81 840.02,-19.59 829.67,-21.85 833.33,-27.81"/>
</g>
<!-- Node6&#45;&gt;Node7 -->
<g id="edge7" class="edge">
<title>Node6&#45;&gt;Node7</title>
<path fill="none" stroke="midnightblue" d="M915.27,-56.32C904.16,-48.11 887.26,-35.6 874.02,-25.81"/>
<polygon fill="midnightblue" stroke="midnightblue" points="876.06,-22.97 865.94,-19.83 871.9,-28.59 876.06,-22.97"/>
</g>
<!-- Node8&#45;&gt;Node4 -->
<g id="edge10" class="edge">
<title>Node8&#45;&gt;Node4</title>
<path fill="none" stroke="midnightblue" d="M968.44,-115.77C861.23,-105.11 619.14,-81.04 520.77,-71.25"/>
<polygon fill="midnightblue" stroke="midnightblue" points="520.9,-67.75 510.6,-70.24 520.2,-74.71 520.9,-67.75"/>
</g>
<!-- Node8&#45;&gt;Node6 -->
<g id="edge12" class="edge">
<title>Node8&#45;&gt;Node6</title>
<path fill="none" stroke="midnightblue" d="M1005.9,-112.32C991.1,-103.82 968.31,-90.73 951.02,-80.8"/>
<polygon fill="midnightblue" stroke="midnightblue" points="952.48,-77.6 942.07,-75.65 948.99,-83.67 952.48,-77.6"/>
</g>
<!-- Node9 -->
<g id="node9" class="node">
<title>Node9</title>
<g id="a_node9"><a xlink:title=" ">
<polygon fill="none" stroke="#bfbfbf" points="1006,-56.5 1006,-75.5 1062,-75.5 1062,-56.5 1006,-56.5"/>
<text text-anchor="middle" x="1034" y="-63.5" font-family="Helvetica,sans-Serif" font-size="10.00">stdarg.h</text>
</a>
</g>
</g>
<!-- Node8&#45;&gt;Node9 -->
<g id="edge11" class="edge">
<title>Node8&#45;&gt;Node9</title>
<path fill="none" stroke="midnightblue" d="M1023.15,-112.08C1024.87,-104.93 1027.35,-94.64 1029.5,-85.69"/>
<polygon fill="midnightblue" stroke="midnightblue" points="1032.96,-86.29 1031.89,-75.75 1026.15,-84.65 1032.96,-86.29"/>
</g>
<!-- Node10&#45;&gt;Node6 -->
<g id="edge17" class="edge">
<title>Node10&#45;&gt;Node6</title>
<path fill="none" stroke="midnightblue" d="M1199.79,-229.85C1228.79,-225.16 1263.42,-214.03 1282,-188 1305.82,-154.64 1255.32,-122.91 1236,-112 1230.58,-108.94 1073.78,-87.09 985.68,-75"/>
<polygon fill="midnightblue" stroke="midnightblue" points="985.94,-71.51 975.56,-73.61 984.99,-78.44 985.94,-71.51"/>
</g>
<!-- Node10&#45;&gt;Node8 -->
<g id="edge14" class="edge">
<title>Node10&#45;&gt;Node8</title>
<path fill="none" stroke="midnightblue" d="M1143.91,-224.41C1132.92,-211.38 1110.77,-186.22 1089,-168 1075.15,-156.41 1058.22,-145.2 1044.72,-136.86"/>
<polygon fill="midnightblue" stroke="midnightblue" points="1046.36,-133.77 1036,-131.58 1042.74,-139.76 1046.36,-133.77"/>
</g>
<!-- Node11 -->
<g id="node11" class="node">
<title>Node11</title>
<g id="a_node11"><a xlink:href="Patterns_8h.html" target="_top" xlink:title=" ">
<polygon fill="none" stroke="black" points="1091.5,-112.5 1091.5,-131.5 1208.5,-131.5 1208.5,-112.5 1091.5,-112.5"/>
<text text-anchor="middle" x="1150" y="-119.5" font-family="Helvetica,sans-Serif" font-size="10.00">../Patterns/Patterns.h</text>
</a>
</g>
</g>
<!-- Node10&#45;&gt;Node11 -->
<g id="edge15" class="edge">
<title>Node10&#45;&gt;Node11</title>
<path fill="none" stroke="midnightblue" d="M1150.92,-224.37C1150.76,-206.62 1150.39,-165.67 1150.17,-141.6"/>
<polygon fill="midnightblue" stroke="midnightblue" points="1153.67,-141.56 1150.08,-131.59 1146.67,-141.62 1153.67,-141.56"/>
</g>
<!-- Node12 -->
<g id="node12" class="node">
<title>Node12</title>
<g id="a_node12"><a xlink:href="DefaultModes_8h.html" target="_top" xlink:title=" ">
<polygon fill="none" stroke="black" points="1179,-168.5 1179,-187.5 1273,-187.5 1273,-168.5 1179,-168.5"/>
<text text-anchor="middle" x="1226" y="-175.5" font-family="Helvetica,sans-Serif" font-size="10.00">DefaultModes.h</text>
</a>
</g>
</g>
<!-- Node10&#45;&gt;Node12 -->
<g id="edge18" class="edge">
<title>Node10&#45;&gt;Node12</title>
<path fill="none" stroke="midnightblue" d="M1163.05,-224.32C1174.46,-216.11 1191.83,-203.6 1205.43,-193.81"/>
<polygon fill="midnightblue" stroke="midnightblue" points="1207.66,-196.52 1213.73,-187.83 1203.57,-190.84 1207.66,-196.52"/>
</g>
<!-- Node11&#45;&gt;Node4 -->
<g id="edge16" class="edge">
<title>Node11&#45;&gt;Node4</title>
<path fill="none" stroke="midnightblue" d="M1091.2,-112.9C1088.43,-112.58 1085.68,-112.28 1083,-112 872.51,-90.05 619.74,-74.84 520.73,-69.3"/>
<polygon fill="midnightblue" stroke="midnightblue" points="520.7,-65.8 510.52,-68.74 520.31,-72.79 520.7,-65.8"/>
</g>
<!-- Node12&#45;&gt;Node6 -->
<g id="edge21" class="edge">
<title>Node12&#45;&gt;Node6</title>
<path fill="none" stroke="midnightblue" d="M1227.83,-168.48C1230.27,-154.62 1232.72,-127.18 1218,-112 1213.96,-107.84 1069.48,-86.97 985.66,-75.17"/>
<polygon fill="midnightblue" stroke="midnightblue" points="985.89,-71.67 975.5,-73.74 984.92,-78.6 985.89,-71.67"/>
</g>
<!-- Node12&#45;&gt;Node8 -->
<g id="edge20" class="edge">
<title>Node12&#45;&gt;Node8</title>
<path fill="none" stroke="midnightblue" d="M1193.52,-168.44C1158.28,-159.16 1101.9,-144.31 1063.24,-134.13"/>
<polygon fill="midnightblue" stroke="midnightblue" points="1063.89,-130.68 1053.33,-131.52 1062.11,-137.45 1063.89,-130.68"/>
</g>
<!-- Node12&#45;&gt;Node11 -->
<g id="edge19" class="edge">
<title>Node12&#45;&gt;Node11</title>
<path fill="none" stroke="midnightblue" d="M1213.79,-168.32C1202.22,-160.11 1184.62,-147.6 1170.84,-137.81"/>
<polygon fill="midnightblue" stroke="midnightblue" points="1172.61,-134.77 1162.43,-131.83 1168.56,-140.48 1172.61,-134.77"/>
</g>
<!-- Node13&#45;&gt;Node4 -->
<g id="edge23" class="edge">
<title>Node13&#45;&gt;Node4</title>
<path fill="none" stroke="midnightblue" d="M373.87,-168.37C392.85,-149.89 437.64,-106.29 461.83,-82.74"/>
<polygon fill="midnightblue" stroke="midnightblue" points="464.45,-85.07 469.17,-75.59 459.57,-80.06 464.45,-85.07"/>
</g>
<!-- Node13&#45;&gt;Node14 -->
<g id="edge24" class="edge">
<title>Node13&#45;&gt;Node14</title>
<path fill="none" stroke="midnightblue" d="M431.2,-173.69C603.89,-165.04 1065.19,-141.71 1218,-132 1242.7,-130.43 1270.22,-128.41 1292.76,-126.67"/>
<polygon fill="midnightblue" stroke="midnightblue" points="1293.05,-130.16 1302.75,-125.9 1292.5,-123.18 1293.05,-130.16"/>
</g>
<!-- Node14&#45;&gt;Node6 -->
<g id="edge26" class="edge">
<title>Node14&#45;&gt;Node6</title>
<path fill="none" stroke="midnightblue" d="M1302.99,-114.27C1298.29,-113.47 1293.53,-112.69 1289,-112 1159.72,-92.41 1126.74,-92.34 997,-76 993.32,-75.54 989.53,-75.06 985.71,-74.57"/>
<polygon fill="midnightblue" stroke="midnightblue" points="985.94,-71.07 975.57,-73.28 985.05,-78.02 985.94,-71.07"/>
</g>
<!-- Node14&#45;&gt;Node9 -->
<g id="edge25" class="edge">
<title>Node14&#45;&gt;Node9</title>
<path fill="none" stroke="midnightblue" d="M1302.95,-114.5C1298.26,-113.65 1293.52,-112.8 1289,-112 1212.15,-98.3 1122.23,-82.48 1072.33,-73.72"/>
<polygon fill="midnightblue" stroke="midnightblue" points="1072.76,-70.24 1062.31,-71.96 1071.55,-77.14 1072.76,-70.24"/>
</g>
<!-- Node15&#45;&gt;Node4 -->
<g id="edge29" class="edge">
<title>Node15&#45;&gt;Node4</title>
<path fill="none" stroke="midnightblue" d="M139.15,-280.46C133.52,-251.95 119.73,-159.17 167,-112 203.88,-75.2 358.87,-68.26 435.18,-67.11"/>
<polygon fill="midnightblue" stroke="midnightblue" points="435.45,-70.61 445.41,-66.99 435.37,-63.61 435.45,-70.61"/>
</g>
<!-- Node16&#45;&gt;Node4 -->
<g id="edge32" class="edge">
<title>Node16&#45;&gt;Node4</title>
<path fill="none" stroke="midnightblue" d="M260.49,-280.4C244.76,-273.03 224.13,-260.91 212,-244 177.05,-195.27 144.93,-157.5 184,-112 215.86,-74.89 361.55,-68.06 435.17,-67.02"/>
<polygon fill="midnightblue" stroke="midnightblue" points="435.52,-70.52 445.48,-66.9 435.44,-63.52 435.52,-70.52"/>
</g>
<!-- Node17&#45;&gt;Node4 -->
<g id="edge34" class="edge">
<title>Node17&#45;&gt;Node4</title>
<path fill="none" stroke="midnightblue" d="M58.3,-336.26C52.84,-317.77 41,-273.24 41,-235 41,-235 41,-235 41,-177 41,-96.28 324.91,-74.22 435.05,-68.7"/>
<polygon fill="midnightblue" stroke="midnightblue" points="435.33,-72.19 445.15,-68.22 435,-65.2 435.33,-72.19"/>
</g>
<!-- Node18&#45;&gt;Node13 -->
<g id="edge36" class="edge">
<title>Node18&#45;&gt;Node13</title>
<path fill="none" stroke="midnightblue" d="M300.37,-224.32C312.16,-216.06 330.13,-203.45 344.14,-193.63"/>
<polygon fill="midnightblue" stroke="midnightblue" points="346.48,-196.26 352.66,-187.65 342.46,-190.53 346.48,-196.26"/>
</g>
<!-- Node19 -->
<g id="node19" class="node">
<title>Node19</title>
<g id="a_node19"><a xlink:href="BitStream_8h.html" target="_top" xlink:title=" ">
<polygon fill="none" stroke="black" points="193,-112.5 193,-131.5 307,-131.5 307,-112.5 193,-112.5"/>
<text text-anchor="middle" x="250" y="-119.5" font-family="Helvetica,sans-Serif" font-size="10.00">../Serial/BitStream.h</text>
</a>
</g>
</g>
<!-- Node18&#45;&gt;Node19 -->
<g id="edge37" class="edge">
<title>Node18&#45;&gt;Node19</title>
<path fill="none" stroke="midnightblue" d="M280.14,-224.44C272.8,-215.9 262.21,-202.05 257,-188 251.5,-173.19 249.92,-155.26 249.61,-141.99"/>
<polygon fill="midnightblue" stroke="midnightblue" points="253.11,-141.72 249.61,-131.72 246.11,-141.72 253.11,-141.72"/>
</g>
<!-- Node20 -->
<g id="node20" class="node">
<title>Node20</title>
<g id="a_node20"><a xlink:href="VLConfig_8h.html" target="_top" xlink:title=" ">
<polygon fill="none" stroke="black" points="325,-112.5 325,-131.5 393,-131.5 393,-112.5 325,-112.5"/>
<text text-anchor="middle" x="359" y="-119.5" font-family="Helvetica,sans-Serif" font-size="10.00">VLConfig.h</text>
</a>
</g>
</g>
<!-- Node18&#45;&gt;Node20 -->
<g id="edge39" class="edge">
<title>Node18&#45;&gt;Node20</title>
<path fill="none" stroke="midnightblue" d="M285.88,-224.34C283.17,-211.21 279.94,-185.91 290,-168 297.97,-153.82 312.48,-143.35 326.14,-136.1"/>
<polygon fill="midnightblue" stroke="midnightblue" points="327.93,-139.13 335.38,-131.59 324.86,-132.84 327.93,-139.13"/>
</g>
<!-- Node19&#45;&gt;Node4 -->
<g id="edge38" class="edge">
<title>Node19&#45;&gt;Node4</title>
<path fill="none" stroke="midnightblue" d="M286.13,-112.44C326.7,-102.83 392.47,-87.26 435.49,-77.07"/>
<polygon fill="midnightblue" stroke="midnightblue" points="436.44,-80.44 445.37,-74.73 434.83,-73.63 436.44,-80.44"/>
</g>
<!-- Node20&#45;&gt;Node6 -->
<g id="edge40" class="edge">
<title>Node20&#45;&gt;Node6</title>
<path fill="none" stroke="midnightblue" d="M393.25,-117.74C487.2,-108.81 749.77,-83.85 867.99,-72.61"/>
<polygon fill="midnightblue" stroke="midnightblue" points="868.67,-76.06 878.29,-71.63 868,-69.09 868.67,-76.06"/>
</g>
<!-- Node21&#45;&gt;Node4 -->
<g id="edge42" class="edge">
<title>Node21&#45;&gt;Node4</title>
<path fill="none" stroke="midnightblue" d="M932.7,-168.28C915.03,-153.86 877.23,-125.31 840,-112 729.67,-72.56 589.75,-66.62 520.63,-66.36"/>
<polygon fill="midnightblue" stroke="midnightblue" points="520.56,-62.86 510.56,-66.36 520.56,-69.86 520.56,-62.86"/>
</g>
<!-- Node21&#45;&gt;Node6 -->
<g id="edge43" class="edge">
<title>Node21&#45;&gt;Node6</title>
<path fill="none" stroke="midnightblue" d="M941.74,-168.37C939.16,-150.62 933.21,-109.67 929.71,-85.6"/>
<polygon fill="midnightblue" stroke="midnightblue" points="933.15,-84.98 928.25,-75.59 926.23,-85.99 933.15,-84.98"/>
</g>
<!-- Node21&#45;&gt;Node8 -->
<g id="edge44" class="edge">
<title>Node21&#45;&gt;Node8</title>
<path fill="none" stroke="midnightblue" d="M955.53,-168.32C967.59,-159.98 986.03,-147.21 1000.27,-137.35"/>
<polygon fill="midnightblue" stroke="midnightblue" points="1002.27,-140.22 1008.5,-131.65 998.28,-134.47 1002.27,-140.22"/>
</g>
<!-- Node22&#45;&gt;Node5 -->
<g id="edge46" class="edge">
<title>Node22&#45;&gt;Node5</title>
<path fill="none" stroke="midnightblue" d="M748.02,-168.32C734.45,-159.9 713.62,-146.97 697.68,-137.07"/>
<polygon fill="midnightblue" stroke="midnightblue" points="699.29,-133.95 688.94,-131.65 695.59,-139.9 699.29,-133.95"/>
</g>
<!-- Node22&#45;&gt;Node6 -->
<g id="edge47" class="edge">
<title>Node22&#45;&gt;Node6</title>
<path fill="none" stroke="midnightblue" d="M774.95,-168.37C803.26,-149.49 870.92,-104.38 905.64,-81.24"/>
<polygon fill="midnightblue" stroke="midnightblue" points="907.73,-84.05 914.11,-75.59 903.85,-78.23 907.73,-84.05"/>
</g>
<!-- Node23&#45;&gt;Node4 -->
<g id="edge57" class="edge">
<title>Node23&#45;&gt;Node4</title>
<path fill="none" stroke="midnightblue" d="M510.43,-224.25C501.3,-215.98 488.71,-202.67 483,-188 469.7,-153.83 472.2,-110.07 475.14,-85.64"/>
<polygon fill="midnightblue" stroke="midnightblue" points="478.63,-85.98 476.52,-75.6 471.69,-85.03 478.63,-85.98"/>
</g>
<!-- Node23&#45;&gt;Node5 -->
<g id="edge50" class="edge">
<title>Node23&#45;&gt;Node5</title>
<path fill="none" stroke="midnightblue" d="M523.39,-224.15C527.56,-210.31 537.44,-183.52 555,-168 573.44,-151.7 598.36,-141.08 620.7,-134.28"/>
<polygon fill="midnightblue" stroke="midnightblue" points="621.77,-137.62 630.43,-131.51 619.85,-130.89 621.77,-137.62"/>
</g>
<!-- Node23&#45;&gt;Node6 -->
<g id="edge56" class="edge">
<title>Node23&#45;&gt;Node6</title>
<path fill="none" stroke="midnightblue" d="M521.06,-224.32C521.53,-211.18 523.95,-185.87 535,-168 555.96,-134.12 568.41,-127.76 605,-112 651.08,-92.15 788.43,-78.17 868.08,-71.48"/>
<polygon fill="midnightblue" stroke="midnightblue" points="868.76,-74.93 878.44,-70.62 868.19,-67.96 868.76,-74.93"/>
</g>
<!-- Node23&#45;&gt;Node11 -->
<g id="edge51" class="edge">
<title>Node23&#45;&gt;Node11</title>
<path fill="none" stroke="midnightblue" d="M576.64,-230.53C688.35,-225.14 936.26,-210.97 1018,-188 1059,-176.48 1102.57,-152.4 1127.99,-137"/>
<polygon fill="midnightblue" stroke="midnightblue" points="1130.12,-139.8 1136.79,-131.57 1126.44,-133.84 1130.12,-139.8"/>
</g>
<!-- Node23&#45;&gt;Node13 -->
<g id="edge49" class="edge">
<title>Node23&#45;&gt;Node13</title>
<path fill="none" stroke="midnightblue" d="M496.28,-224.44C470.15,-215.4 428.74,-201.06 399.42,-190.92"/>
<polygon fill="midnightblue" stroke="midnightblue" points="400.2,-187.48 389.6,-187.52 397.91,-194.1 400.2,-187.48"/>
</g>
<!-- Node23&#45;&gt;Node24 -->
<g id="edge52" class="edge">
<title>Node23&#45;&gt;Node24</title>
<path fill="none" stroke="midnightblue" d="M534.5,-224.32C547.6,-215.9 567.71,-202.97 583.11,-193.07"/>
<polygon fill="midnightblue" stroke="midnightblue" points="585.02,-196.01 591.54,-187.65 581.23,-190.12 585.02,-196.01"/>
</g>
<!-- Node24&#45;&gt;Node4 -->
<g id="edge53" class="edge">
<title>Node24&#45;&gt;Node4</title>
<path fill="none" stroke="midnightblue" d="M595.03,-168.37C573.61,-149.81 522.93,-105.91 495.82,-82.44"/>
<polygon fill="midnightblue" stroke="midnightblue" points="497.77,-79.49 487.92,-75.59 493.19,-84.78 497.77,-79.49"/>
</g>
<!-- Node24&#45;&gt;Node5 -->
<g id="edge54" class="edge">
<title>Node24&#45;&gt;Node5</title>
<path fill="none" stroke="midnightblue" d="M616.25,-168.32C626.8,-160.18 642.8,-147.84 655.44,-138.09"/>
<polygon fill="midnightblue" stroke="midnightblue" points="657.77,-140.71 663.55,-131.83 653.49,-135.17 657.77,-140.71"/>
</g>
<!-- Node24&#45;&gt;Node8 -->
<g id="edge55" class="edge">
<title>Node24&#45;&gt;Node8</title>
<path fill="none" stroke="midnightblue" d="M646.79,-171.58C720.05,-162.07 872.02,-142.34 958.05,-131.17"/>
<polygon fill="midnightblue" stroke="midnightblue" points="958.74,-134.61 968.21,-129.85 957.84,-127.67 958.74,-134.61"/>
</g>
</g>
</svg>
        <g id="navigator" transform="translate(0 0)" fill="#404254">
                <rect fill="#f2f5e9" fill-opacity="0.5" stroke="#606060" stroke-width=".5" x="0" y="0" width="60" height="60"/>
                <use id="zoomplus" xlink:href="#zoomPlus" x="17" y="9" onmousedown="handleZoom(evt,'in')"/>
                <use id="zoomminus" xlink:href="#zoomMin" x="42" y="9" onmousedown="handleZoom(evt,'out')"/>
                <use id="reset" xlink:href="#resetDef" x="30" y="36" onmousedown="handleReset()"/>
                <g id="arrowUp" xlink:href="#dirArrow" transform="translate(30 24)" onmousedown="handlePan(0,-1)">
                  <use xlink:href="#rim" fill="#404040">
                        <set attributeName="fill" to="#808080" begin="arrowUp.mouseover" end="arrowUp.mouseout"/>
                  </use>
                  <path fill="none" stroke="white" stroke-width="1.5" d="M0,-3.0v7 M-2.5,-0.5L0,-3.0L2.5,-0.5"/>
                </g>
                <g id="arrowRight" xlink:href="#dirArrow" transform="rotate(90) translate(36 -43)" onmousedown="handlePan(1,0)">
                  <use xlink:href="#rim" fill="#404040">
                        <set attributeName="fill" to="#808080" begin="arrowRight.mouseover" end="arrowRight.mouseout"/>
                  </use>
                  <path fill="none" stroke="white" stroke-width="1.5" d="M0,-3.0v7 M-2.5,-0.5L0,-3.0L2.5,-0.5"/>
                </g>
                <g id="arrowDown" xlink:href="#dirArrow" transform="rotate(180) translate(-30 -48)" onmousedown="handlePan(0,1)">
                  <use xlink:href="#rim" fill="#404040">
                        <set attributeName="fill" to="#808080" begin="arrowDown.mouseover" end="arrowDown.mouseout"/>
                  </use>
                  <path fill="none" stroke="white" stroke-width="1.5" d="M0,-3.0v7 M-2.5,-0.5L0,-3.0L2.5,-0.5"/>
                </g>
                <g id="arrowLeft" xlink:href="#dirArrow" transform="rotate(270) translate(-36 17)" onmousedown="handlePan(-1,0)">
                  <use xlink:href="#rim" fill="#404040">
                        <set attributeName="fill" to="#808080" begin="arrowLeft.mouseover" end="arrowLeft.mouseout"/>
                  </use>
                  <path fill="none" stroke="white" stroke-width="1.5" d="M0,-3.0v7 M-2.5,-0.5L0,-3.0L2.5,-0.5"/>
                </g>
        </g>
        <svg viewBox="0 0 15 15" width="100%" height="30px" preserveAspectRatio="xMaxYMin meet">
         <g id="arrow_out" transform="scale(0.3 0.3)">
          <a xlink:href="EditorConnection_8cpp__incl_org.svg" target="_base">
           <rect id="button" ry="5" rx="5" y="6" x="6" height="38" width="38"
                fill="#f2f5e9" fill-opacity="0.5" stroke="#606060" stroke-width="1.0"/>
           <path id="arrow"
             d="M 11.500037,31.436501 C 11.940474,20.09759 22.043105,11.32322 32.158766,21.979434 L 37.068811,17.246167 C 37.068811,17.246167 37.088388,32 37.088388,32 L 22.160133,31.978069 C 22.160133,31.978069 26.997745,27.140456 26.997745,27.140456 C 18.528582,18.264221 13.291696,25.230495 11.500037,31.436501 z"
             style="fill:#404040;"/>
          </a>
         </g>
        </svg>
</svg>
