<?xml version="1.0" encoding="UTF-8" standalone="no"?>
<!DOCTYPE svg PUBLIC "-//W3C//DTD SVG 1.1//EN"
 "http://www.w3.org/Graphics/SVG/1.1/DTD/svg11.dtd">
<!-- Generated by graphviz version 2.43.0 (0)
 -->
<!-- Title: VortexEngine/src/Menus/MenuList/FactoryReset.cpp Pages: 1 -->
<!--zoomable 375 -->
<svg id="main" version="1.1" xmlns="http://www.w3.org/2000/svg" xmlns:xlink="http://www.w3.org/1999/xlink" xml:space="preserve" onload="init(evt)">
<style type="text/css"><![CDATA[
.edge:hover path { stroke: red; }
.edge:hover polygon { stroke: red; fill: red; }
]]></style>
<script type="text/javascript"><![CDATA[
var edges = document.getElementsByTagName('g');
if (edges && edges.length) {
  for (var i=0;i<edges.length;i++) {
    if (edges[i].id.substr(0,4)=='edge') {
      edges[i].setAttribute('class','edge');
    }
  }
}
]]></script>
        <defs>
                <circle id="rim" cx="0" cy="0" r="7"/>
                <circle id="rim2" cx="0" cy="0" r="3.5"/>
                <g id="zoomPlus">
                        <use xlink:href="#rim" fill="#404040">
                                <set attributeName="fill" to="#808080" begin="zoomplus.mouseover" end="zoomplus.mouseout"/>
                        </use>
                        <path d="M-4,0h8M0,-4v8" fill="none" stroke="white" stroke-width="1.5" pointer-events="none"/>
                </g>
                <g id="zoomMin">
                        <use xlink:href="#rim" fill="#404040">
                                <set attributeName="fill" to="#808080" begin="zoomminus.mouseover" end="zoomminus.mouseout"/>
                        </use>
                        <path d="M-4,0h8" fill="none" stroke="white" stroke-width="1.5" pointer-events="none"/>
                </g>
                <g id="dirArrow">
                        <path fill="none" stroke="white" stroke-width="1.5" d="M0,-3.0v7 M-2.5,-0.5L0,-3.0L2.5,-0.5"/>
                </g>
               <g id="resetDef">
                       <use xlink:href="#rim2" fill="#404040">
                               <set attributeName="fill" to="#808080" begin="reset.mouseover" end="reset.mouseout"/>
                       </use>
               </g>
        </defs>

<script type="text/javascript">
var viewWidth = 1303;
var viewHeight = 375;
var sectionId = 'dynsection-0';
</script>
<script xlink:href="svgpan.js"/>
<svg id="graph" class="graph">
<g id="viewport">
<title>VortexEngine/src/Menus/MenuList/FactoryReset.cpp</title>
<!-- Node1 -->
<g id="node1" class="node">
<title>Node1</title>
<g id="a_node1"><a xlink:title=" ">
<polygon fill="#bfbfbf" stroke="black" points="701,-336.5 701,-366.5 851,-366.5 851,-336.5 701,-336.5"/>
<text text-anchor="start" x="709" y="-354.5" font-family="Helvetica,sans-Serif" font-size="10.00">VortexEngine/src/Menus</text>
<text text-anchor="middle" x="776" y="-343.5" font-family="Helvetica,sans-Serif" font-size="10.00">/MenuList/FactoryReset.cpp</text>
</a>
</g>
</g>
<!-- Node2 -->
<g id="node2" class="node">
<title>Node2</title>
<g id="a_node2"><a xlink:href="FactoryReset_8h.html" target="_top" xlink:title=" ">
<polygon fill="none" stroke="black" points="535.5,-280.5 535.5,-299.5 624.5,-299.5 624.5,-280.5 535.5,-280.5"/>
<text text-anchor="middle" x="580" y="-287.5" font-family="Helvetica,sans-Serif" font-size="10.00">FactoryReset.h</text>
</a>
</g>
</g>
<!-- Node1&#45;&gt;Node2 -->
<g id="edge1" class="edge">
<title>Node1&#45;&gt;Node2</title>
<path fill="none" stroke="midnightblue" d="M729.55,-336.4C695.54,-326.07 649.94,-312.23 618.07,-302.56"/>
<polygon fill="midnightblue" stroke="midnightblue" points="618.82,-299.13 608.23,-299.57 616.79,-305.82 618.82,-299.13"/>
</g>
<!-- Node6 -->
<g id="node6" class="node">
<title>Node6</title>
<g id="a_node6"><a xlink:href="VortexConfig_8h.html" target="_top" xlink:title=" ">
<polygon fill="none" stroke="black" points="893.5,-56.5 893.5,-75.5 990.5,-75.5 990.5,-56.5 893.5,-56.5"/>
<text text-anchor="middle" x="942" y="-63.5" font-family="Helvetica,sans-Serif" font-size="10.00">../VortexConfig.h</text>
</a>
</g>
</g>
<!-- Node1&#45;&gt;Node6 -->
<g id="edge58" class="edge">
<title>Node1&#45;&gt;Node6</title>
<path fill="none" stroke="midnightblue" d="M851.19,-349.26C995.03,-344.83 1295,-324.83 1295,-235 1295,-235 1295,-235 1295,-177 1295,-116.1 1101.1,-85.05 1000.71,-73.05"/>
<polygon fill="midnightblue" stroke="midnightblue" points="1001.05,-69.57 990.71,-71.89 1000.24,-76.52 1001.05,-69.57"/>
</g>
<!-- Node10 -->
<g id="node10" class="node">
<title>Node10</title>
<g id="a_node10"><a xlink:href="Mode_8h.html" target="_top" xlink:title=" ">
<polygon fill="none" stroke="black" points="650.5,-168.5 650.5,-187.5 747.5,-187.5 747.5,-168.5 650.5,-168.5"/>
<text text-anchor="middle" x="699" y="-175.5" font-family="Helvetica,sans-Serif" font-size="10.00">../Modes/Mode.h</text>
</a>
</g>
</g>
<!-- Node1&#45;&gt;Node10 -->
<g id="edge55" class="edge">
<title>Node1&#45;&gt;Node10</title>
<path fill="none" stroke="midnightblue" d="M777.14,-336.48C778.46,-311.91 778.22,-260.21 757,-224 749.4,-211.03 736.49,-200.46 724.78,-192.83"/>
<polygon fill="midnightblue" stroke="midnightblue" points="726.53,-189.8 716.17,-187.58 722.88,-195.77 726.53,-189.8"/>
</g>
<!-- Node12 -->
<g id="node12" class="node">
<title>Node12</title>
<g id="a_node12"><a xlink:href="DefaultModes_8h.html" target="_top" xlink:title=" ">
<polygon fill="none" stroke="black" points="842.5,-168.5 842.5,-187.5 989.5,-187.5 989.5,-168.5 842.5,-168.5"/>
<text text-anchor="middle" x="916" y="-175.5" font-family="Helvetica,sans-Serif" font-size="10.00">../../Modes/DefaultModes.h</text>
</a>
</g>
</g>
<!-- Node1&#45;&gt;Node12 -->
<g id="edge18" class="edge">
<title>Node1&#45;&gt;Node12</title>
<path fill="none" stroke="midnightblue" d="M787.46,-336.47C813.11,-305.03 875.09,-229.12 902.53,-195.5"/>
<polygon fill="midnightblue" stroke="midnightblue" points="905.4,-197.52 909.01,-187.56 899.98,-193.09 905.4,-197.52"/>
</g>
<!-- Node13 -->
<g id="node13" class="node">
<title>Node13</title>
<g id="a_node13"><a xlink:href="TimeControl_8h.html" target="_top" xlink:title=" ">
<polygon fill="none" stroke="black" points="1007.5,-168.5 1007.5,-187.5 1138.5,-187.5 1138.5,-168.5 1007.5,-168.5"/>
<text text-anchor="middle" x="1073" y="-175.5" font-family="Helvetica,sans-Serif" font-size="10.00">../../Time/TimeControl.h</text>
</a>
</g>
</g>
<!-- Node1&#45;&gt;Node13 -->
<g id="edge21" class="edge">
<title>Node1&#45;&gt;Node13</title>
<path fill="none" stroke="midnightblue" d="M800.3,-336.47C856.36,-304.1 994.11,-224.56 1049.43,-192.61"/>
<polygon fill="midnightblue" stroke="midnightblue" points="1051.27,-195.59 1058.18,-187.56 1047.77,-189.53 1051.27,-195.59"/>
</g>
<!-- Node14 -->
<g id="node14" class="node">
<title>Node14</title>
<g id="a_node14"><a xlink:href="Pattern_8h.html" target="_top" xlink:title=" ">
<polygon fill="none" stroke="black" points="626.5,-224.5 626.5,-243.5 747.5,-243.5 747.5,-224.5 626.5,-224.5"/>
<text text-anchor="middle" x="687" y="-231.5" font-family="Helvetica,sans-Serif" font-size="10.00">../../Patterns/Pattern.h</text>
</a>
</g>
</g>
<!-- Node1&#45;&gt;Node14 -->
<g id="edge25" class="edge">
<title>Node1&#45;&gt;Node14</title>
<path fill="none" stroke="midnightblue" d="M765.09,-336.34C748.61,-314.96 717.46,-274.53 699.89,-251.73"/>
<polygon fill="midnightblue" stroke="midnightblue" points="702.56,-249.45 693.68,-243.67 697.01,-253.73 702.56,-249.45"/>
</g>
<!-- Node17 -->
<g id="node17" class="node">
<title>Node17</title>
<g id="a_node17"><a xlink:href="Button_8h.html" target="_top" xlink:title=" ">
<polygon fill="none" stroke="black" points="0,-280.5 0,-299.5 116,-299.5 116,-280.5 0,-280.5"/>
<text text-anchor="middle" x="58" y="-287.5" font-family="Helvetica,sans-Serif" font-size="10.00">../../Buttons/Button.h</text>
</a>
</g>
</g>
<!-- Node1&#45;&gt;Node17 -->
<g id="edge33" class="edge">
<title>Node1&#45;&gt;Node17</title>
<path fill="none" stroke="midnightblue" d="M700.79,-345.36C581.41,-337.01 341.23,-319.47 138,-300 134.12,-299.63 130.14,-299.23 126.12,-298.82"/>
<polygon fill="midnightblue" stroke="midnightblue" points="126.4,-295.33 116.09,-297.76 125.67,-302.29 126.4,-295.33"/>
</g>
<!-- Node18 -->
<g id="node18" class="node">
<title>Node18</title>
<g id="a_node18"><a xlink:href="Timings_8h.html" target="_top" xlink:title=" ">
<polygon fill="none" stroke="black" points="1018,-224.5 1018,-243.5 1128,-243.5 1128,-224.5 1018,-224.5"/>
<text text-anchor="middle" x="1073" y="-231.5" font-family="Helvetica,sans-Serif" font-size="10.00">../../Time/Timings.h</text>
</a>
</g>
</g>
<!-- Node1&#45;&gt;Node18 -->
<g id="edge35" class="edge">
<title>Node1&#45;&gt;Node18</title>
<path fill="none" stroke="midnightblue" d="M851.03,-336.63C887.78,-328.43 932.16,-316.39 970,-300 1001.13,-286.52 1033.69,-264.4 1053.67,-249.78"/>
<polygon fill="midnightblue" stroke="midnightblue" points="1055.98,-252.42 1061.91,-243.64 1051.8,-246.8 1055.98,-252.42"/>
</g>
<!-- Node19 -->
<g id="node19" class="node">
<title>Node19</title>
<g id="a_node19"><a xlink:href="Modes_8h.html" target="_top" xlink:title=" ">
<polygon fill="none" stroke="black" points="321.5,-280.5 321.5,-299.5 432.5,-299.5 432.5,-280.5 321.5,-280.5"/>
<text text-anchor="middle" x="377" y="-287.5" font-family="Helvetica,sans-Serif" font-size="10.00">../../Modes/Modes.h</text>
</a>
</g>
</g>
<!-- Node1&#45;&gt;Node19 -->
<g id="edge38" class="edge">
<title>Node1&#45;&gt;Node19</title>
<path fill="none" stroke="midnightblue" d="M700.95,-339.31C626.61,-328.22 513.89,-311.41 442.91,-300.83"/>
<polygon fill="midnightblue" stroke="midnightblue" points="443.16,-297.33 432.75,-299.31 442.12,-304.25 443.16,-297.33"/>
</g>
<!-- Node21 -->
<g id="node21" class="node">
<title>Node21</title>
<g id="a_node21"><a xlink:href="Log_8h.html" target="_top" xlink:title=" ">
<polygon fill="none" stroke="black" points="1157,-168.5 1157,-187.5 1229,-187.5 1229,-168.5 1157,-168.5"/>
<text text-anchor="middle" x="1193" y="-175.5" font-family="Helvetica,sans-Serif" font-size="10.00">../Log/Log.h</text>
</a>
</g>
</g>
<!-- Node1&#45;&gt;Node21 -->
<g id="edge57" class="edge">
<title>Node1&#45;&gt;Node21</title>
<path fill="none" stroke="midnightblue" d="M851.19,-343.07C929.02,-332.22 1051.03,-306.04 1137,-244 1155.23,-230.84 1171.43,-210.61 1181.66,-196.21"/>
<polygon fill="midnightblue" stroke="midnightblue" points="1184.71,-197.95 1187.48,-187.73 1178.93,-193.99 1184.71,-197.95"/>
</g>
<!-- Node23 -->
<g id="node23" class="node">
<title>Node23</title>
<g id="a_node23"><a xlink:href="Leds_8h.html" target="_top" xlink:title=" ">
<polygon fill="none" stroke="black" points="116.5,-168.5 116.5,-187.5 199.5,-187.5 199.5,-168.5 116.5,-168.5"/>
<text text-anchor="middle" x="158" y="-175.5" font-family="Helvetica,sans-Serif" font-size="10.00">../Leds/Leds.h</text>
</a>
</g>
</g>
<!-- Node1&#45;&gt;Node23 -->
<g id="edge56" class="edge">
<title>Node1&#45;&gt;Node23</title>
<path fill="none" stroke="midnightblue" d="M700.92,-349.4C608.23,-346.44 446.5,-336 313,-300 253.83,-284.04 230.36,-287.3 187,-244 174.18,-231.2 166.53,-211.74 162.34,-197.45"/>
<polygon fill="midnightblue" stroke="midnightblue" points="165.71,-196.5 159.77,-187.72 158.94,-198.28 165.71,-196.5"/>
</g>
<!-- Node3 -->
<g id="node3" class="node">
<title>Node3</title>
<g id="a_node3"><a xlink:href="Menu_8h.html" target="_top" xlink:title=" ">
<polygon fill="none" stroke="black" points="405,-224.5 405,-243.5 467,-243.5 467,-224.5 405,-224.5"/>
<text text-anchor="middle" x="436" y="-231.5" font-family="Helvetica,sans-Serif" font-size="10.00">../Menu.h</text>
</a>
</g>
</g>
<!-- Node2&#45;&gt;Node3 -->
<g id="edge2" class="edge">
<title>Node2&#45;&gt;Node3</title>
<path fill="none" stroke="midnightblue" d="M557.18,-280.44C533.17,-271.44 495.17,-257.19 468.13,-247.05"/>
<polygon fill="midnightblue" stroke="midnightblue" points="469.3,-243.75 458.71,-243.52 466.84,-250.3 469.3,-243.75"/>
</g>
<!-- Node4 -->
<g id="node4" class="node">
<title>Node4</title>
<g id="a_node4"><a xlink:title=" ">
<polygon fill="none" stroke="#bfbfbf" points="309.5,-56.5 309.5,-75.5 374.5,-75.5 374.5,-56.5 309.5,-56.5"/>
<text text-anchor="middle" x="342" y="-63.5" font-family="Helvetica,sans-Serif" font-size="10.00">inttypes.h</text>
</a>
</g>
</g>
<!-- Node3&#45;&gt;Node4 -->
<g id="edge3" class="edge">
<title>Node3&#45;&gt;Node4</title>
<path fill="none" stroke="midnightblue" d="M404.98,-229.38C379.53,-224.59 345.01,-213.52 328,-188 306.97,-156.45 322.26,-109.74 333.32,-84.58"/>
<polygon fill="midnightblue" stroke="midnightblue" points="336.5,-86.05 337.54,-75.51 330.15,-83.1 336.5,-86.05"/>
</g>
<!-- Node5 -->
<g id="node5" class="node">
<title>Node5</title>
<g id="a_node5"><a xlink:href="ColorTypes_8h.html" target="_top" xlink:title=" ">
<polygon fill="none" stroke="black" points="154,-112.5 154,-131.5 276,-131.5 276,-112.5 154,-112.5"/>
<text text-anchor="middle" x="215" y="-119.5" font-family="Helvetica,sans-Serif" font-size="10.00">../Colors/ColorTypes.h</text>
</a>
</g>
</g>
<!-- Node3&#45;&gt;Node5 -->
<g id="edge4" class="edge">
<title>Node3&#45;&gt;Node5</title>
<path fill="none" stroke="midnightblue" d="M404.88,-227.33C374.27,-220.86 326.88,-208.46 290,-188 266.61,-175.02 244.01,-153.88 229.84,-139.25"/>
<polygon fill="midnightblue" stroke="midnightblue" points="232.29,-136.75 222.88,-131.88 227.2,-141.56 232.29,-136.75"/>
</g>
<!-- Node8 -->
<g id="node8" class="node">
<title>Node8</title>
<g id="a_node8"><a xlink:href="LedTypes_8h.html" target="_top" xlink:title=" ">
<polygon fill="none" stroke="black" points="682.5,-112.5 682.5,-131.5 787.5,-131.5 787.5,-112.5 682.5,-112.5"/>
<text text-anchor="middle" x="735" y="-119.5" font-family="Helvetica,sans-Serif" font-size="10.00">../Leds/LedTypes.h</text>
</a>
</g>
</g>
<!-- Node3&#45;&gt;Node8 -->
<g id="edge9" class="edge">
<title>Node3&#45;&gt;Node8</title>
<path fill="none" stroke="midnightblue" d="M459.46,-224.37C512.41,-204.89 641.28,-157.48 702.14,-135.09"/>
<polygon fill="midnightblue" stroke="midnightblue" points="703.47,-138.33 711.65,-131.59 701.05,-131.76 703.47,-138.33"/>
</g>
<!-- Node3&#45;&gt;Node10 -->
<g id="edge13" class="edge">
<title>Node3&#45;&gt;Node10</title>
<path fill="none" stroke="midnightblue" d="M467.33,-226.07C470.59,-225.36 473.86,-224.66 477,-224 534.77,-211.8 601.14,-198.44 646.15,-189.46"/>
<polygon fill="midnightblue" stroke="midnightblue" points="646.86,-192.89 655.98,-187.51 645.49,-186.03 646.86,-192.89"/>
</g>
<!-- Node5&#45;&gt;Node4 -->
<g id="edge5" class="edge">
<title>Node5&#45;&gt;Node4</title>
<path fill="none" stroke="midnightblue" d="M235.12,-112.44C256.02,-103.56 288.93,-89.56 312.72,-79.45"/>
<polygon fill="midnightblue" stroke="midnightblue" points="314.14,-82.65 321.97,-75.52 311.4,-76.21 314.14,-82.65"/>
</g>
<!-- Node5&#45;&gt;Node6 -->
<g id="edge6" class="edge">
<title>Node5&#45;&gt;Node6</title>
<path fill="none" stroke="midnightblue" d="M276.04,-116.47C413.79,-106.23 747.28,-81.46 883.03,-71.38"/>
<polygon fill="midnightblue" stroke="midnightblue" points="883.52,-74.85 893.23,-70.62 883,-67.87 883.52,-74.85"/>
</g>
<!-- Node7 -->
<g id="node7" class="node">
<title>Node7</title>
<g id="a_node7"><a xlink:href="ColorConstants_8h.html" target="_top" xlink:title=" ">
<polygon fill="none" stroke="black" points="507,-0.5 507,-19.5 641,-19.5 641,-0.5 507,-0.5"/>
<text text-anchor="middle" x="574" y="-7.5" font-family="Helvetica,sans-Serif" font-size="10.00">Colors/ColorConstants.h</text>
</a>
</g>
</g>
<!-- Node5&#45;&gt;Node7 -->
<g id="edge8" class="edge">
<title>Node5&#45;&gt;Node7</title>
<path fill="none" stroke="midnightblue" d="M223.6,-112.16C238.11,-97.82 269.01,-69.73 301,-56 363.54,-29.17 440.48,-18.25 496.72,-13.85"/>
<polygon fill="midnightblue" stroke="midnightblue" points="497.25,-17.32 506.97,-13.11 496.74,-10.34 497.25,-17.32"/>
</g>
<!-- Node6&#45;&gt;Node7 -->
<g id="edge7" class="edge">
<title>Node6&#45;&gt;Node7</title>
<path fill="none" stroke="midnightblue" d="M893.13,-57.83C828.71,-48.38 715.03,-31.7 642.18,-21"/>
<polygon fill="midnightblue" stroke="midnightblue" points="642.58,-17.53 632.18,-19.54 641.56,-24.45 642.58,-17.53"/>
</g>
<!-- Node8&#45;&gt;Node4 -->
<g id="edge10" class="edge">
<title>Node8&#45;&gt;Node4</title>
<path fill="none" stroke="midnightblue" d="M682.41,-113.77C603.76,-102.97 457.04,-82.81 384.64,-72.86"/>
<polygon fill="midnightblue" stroke="midnightblue" points="384.9,-69.36 374.52,-71.47 383.95,-76.3 384.9,-69.36"/>
</g>
<!-- Node8&#45;&gt;Node6 -->
<g id="edge12" class="edge">
<title>Node8&#45;&gt;Node6</title>
<path fill="none" stroke="midnightblue" d="M767.8,-112.44C803.38,-103.16 860.31,-88.31 899.35,-78.13"/>
<polygon fill="midnightblue" stroke="midnightblue" points="900.56,-81.43 909.35,-75.52 898.79,-74.65 900.56,-81.43"/>
</g>
<!-- Node9 -->
<g id="node9" class="node">
<title>Node9</title>
<g id="a_node9"><a xlink:title=" ">
<polygon fill="none" stroke="#bfbfbf" points="1095,-56.5 1095,-75.5 1151,-75.5 1151,-56.5 1095,-56.5"/>
<text text-anchor="middle" x="1123" y="-63.5" font-family="Helvetica,sans-Serif" font-size="10.00">stdarg.h</text>
</a>
</g>
</g>
<!-- Node8&#45;&gt;Node9 -->
<g id="edge11" class="edge">
<title>Node8&#45;&gt;Node9</title>
<path fill="none" stroke="midnightblue" d="M787.73,-113.66C866.96,-102.63 1014.84,-82.05 1084.64,-72.34"/>
<polygon fill="midnightblue" stroke="midnightblue" points="1085.34,-75.78 1094.76,-70.93 1084.37,-68.84 1085.34,-75.78"/>
</g>
<!-- Node10&#45;&gt;Node6 -->
<g id="edge17" class="edge">
<title>Node10&#45;&gt;Node6</title>
<path fill="none" stroke="midnightblue" d="M690.77,-168.5C678.83,-155.13 659.63,-128.98 674,-112 700.25,-80.98 812.54,-71.33 883.18,-68.34"/>
<polygon fill="midnightblue" stroke="midnightblue" points="883.43,-71.83 893.28,-67.94 883.15,-64.83 883.43,-71.83"/>
</g>
<!-- Node10&#45;&gt;Node8 -->
<g id="edge14" class="edge">
<title>Node10&#45;&gt;Node8</title>
<path fill="none" stroke="midnightblue" d="M704.94,-168.08C709.98,-160.53 717.34,-149.49 723.51,-140.23"/>
<polygon fill="midnightblue" stroke="midnightblue" points="726.53,-142.01 729.17,-131.75 720.71,-138.13 726.53,-142.01"/>
</g>
<!-- Node11 -->
<g id="node11" class="node">
<title>Node11</title>
<g id="a_node11"><a xlink:href="Patterns_8h.html" target="_top" xlink:title=" ">
<polygon fill="none" stroke="black" points="508.5,-112.5 508.5,-131.5 625.5,-131.5 625.5,-112.5 508.5,-112.5"/>
<text text-anchor="middle" x="567" y="-119.5" font-family="Helvetica,sans-Serif" font-size="10.00">../Patterns/Patterns.h</text>
</a>
</g>
</g>
<!-- Node10&#45;&gt;Node11 -->
<g id="edge15" class="edge">
<title>Node10&#45;&gt;Node11</title>
<path fill="none" stroke="midnightblue" d="M678.08,-168.44C656.26,-159.52 621.85,-145.44 597.11,-135.32"/>
<polygon fill="midnightblue" stroke="midnightblue" points="598.4,-132.06 587.82,-131.52 595.75,-138.54 598.4,-132.06"/>
</g>
<!-- Node11&#45;&gt;Node4 -->
<g id="edge16" class="edge">
<title>Node11&#45;&gt;Node4</title>
<path fill="none" stroke="midnightblue" d="M531.35,-112.44C491.43,-102.86 426.77,-87.35 384.32,-77.16"/>
<polygon fill="midnightblue" stroke="midnightblue" points="385.1,-73.75 374.56,-74.82 383.47,-80.55 385.1,-73.75"/>
</g>
<!-- Node12&#45;&gt;Node6 -->
<g id="edge20" class="edge">
<title>Node12&#45;&gt;Node6</title>
<path fill="none" stroke="midnightblue" d="M947.81,-168.38C965.95,-161.66 987.16,-150.31 998,-132 1009.51,-112.55 987.7,-93.32 968.02,-80.88"/>
<polygon fill="midnightblue" stroke="midnightblue" points="969.64,-77.77 959.26,-75.67 966.06,-83.79 969.64,-77.77"/>
</g>
<!-- Node12&#45;&gt;Node11 -->
<g id="edge19" class="edge">
<title>Node12&#45;&gt;Node11</title>
<path fill="none" stroke="midnightblue" d="M860.7,-168.44C798.67,-158.85 698.14,-143.29 632.3,-133.1"/>
<polygon fill="midnightblue" stroke="midnightblue" points="632.46,-129.59 622.04,-131.52 631.39,-136.5 632.46,-129.59"/>
</g>
<!-- Node13&#45;&gt;Node4 -->
<g id="edge22" class="edge">
<title>Node13&#45;&gt;Node4</title>
<path fill="none" stroke="midnightblue" d="M1018.44,-168.5C959.31,-158.95 868.98,-143.32 836,-132 817.58,-125.67 815.69,-117.5 797,-112 720.31,-89.43 482.65,-74.52 384.78,-69.19"/>
<polygon fill="midnightblue" stroke="midnightblue" points="384.83,-65.68 374.66,-68.64 384.45,-72.67 384.83,-65.68"/>
</g>
<!-- Node13&#45;&gt;Node6 -->
<g id="edge23" class="edge">
<title>Node13&#45;&gt;Node6</title>
<path fill="none" stroke="midnightblue" d="M1066.24,-168.33C1055.74,-155.2 1034.47,-129.9 1013,-112 998.66,-100.04 980.91,-88.79 966.75,-80.53"/>
<polygon fill="midnightblue" stroke="midnightblue" points="968.45,-77.47 958.03,-75.56 964.99,-83.56 968.45,-77.47"/>
</g>
<!-- Node13&#45;&gt;Node8 -->
<g id="edge24" class="edge">
<title>Node13&#45;&gt;Node8</title>
<path fill="none" stroke="midnightblue" d="M1019.44,-168.44C959.19,-158.82 861.44,-143.2 797.68,-133.01"/>
<polygon fill="midnightblue" stroke="midnightblue" points="798.18,-129.55 787.75,-131.43 797.07,-136.46 798.18,-129.55"/>
</g>
<!-- Node14&#45;&gt;Node8 -->
<g id="edge26" class="edge">
<title>Node14&#45;&gt;Node8</title>
<path fill="none" stroke="midnightblue" d="M711.47,-224.44C727.57,-217.38 747.38,-205.63 757,-188 765.35,-172.71 756.98,-153.67 748.27,-140.16"/>
<polygon fill="midnightblue" stroke="midnightblue" points="751,-137.97 742.38,-131.81 745.28,-142 751,-137.97"/>
</g>
<!-- Node14&#45;&gt;Node11 -->
<g id="edge30" class="edge">
<title>Node14&#45;&gt;Node11</title>
<path fill="none" stroke="midnightblue" d="M677.58,-224.37C657.34,-205.81 609.45,-161.91 583.84,-138.44"/>
<polygon fill="midnightblue" stroke="midnightblue" points="586.11,-135.77 576.37,-131.59 581.38,-140.93 586.11,-135.77"/>
</g>
<!-- Node15 -->
<g id="node15" class="node">
<title>Node15</title>
<g id="a_node15"><a xlink:href="Colorset_8h.html" target="_top" xlink:title=" ">
<polygon fill="none" stroke="black" points="370.5,-168.5 370.5,-187.5 479.5,-187.5 479.5,-168.5 370.5,-168.5"/>
<text text-anchor="middle" x="425" y="-175.5" font-family="Helvetica,sans-Serif" font-size="10.00">../Colors/Colorset.h</text>
</a>
</g>
</g>
<!-- Node14&#45;&gt;Node15 -->
<g id="edge27" class="edge">
<title>Node14&#45;&gt;Node15</title>
<path fill="none" stroke="midnightblue" d="M645.49,-224.44C599.59,-214.98 525.62,-199.74 476.17,-189.55"/>
<polygon fill="midnightblue" stroke="midnightblue" points="476.82,-186.11 466.32,-187.52 475.41,-192.96 476.82,-186.11"/>
</g>
<!-- Node16 -->
<g id="node16" class="node">
<title>Node16</title>
<g id="a_node16"><a xlink:href="PatternArgs_8h.html" target="_top" xlink:title=" ">
<polygon fill="none" stroke="black" points="408,-112.5 408,-131.5 490,-131.5 490,-112.5 408,-112.5"/>
<text text-anchor="middle" x="449" y="-119.5" font-family="Helvetica,sans-Serif" font-size="10.00">PatternArgs.h</text>
</a>
</g>
</g>
<!-- Node14&#45;&gt;Node16 -->
<g id="edge31" class="edge">
<title>Node14&#45;&gt;Node16</title>
<path fill="none" stroke="midnightblue" d="M668.32,-224.37C626.61,-205.09 525.71,-158.45 476.67,-135.79"/>
<polygon fill="midnightblue" stroke="midnightblue" points="478.13,-132.61 467.59,-131.59 475.2,-138.96 478.13,-132.61"/>
</g>
<!-- Node15&#45;&gt;Node5 -->
<g id="edge28" class="edge">
<title>Node15&#45;&gt;Node5</title>
<path fill="none" stroke="midnightblue" d="M391.72,-168.44C355.55,-159.14 297.62,-144.25 258.02,-134.06"/>
<polygon fill="midnightblue" stroke="midnightblue" points="258.68,-130.62 248.12,-131.52 256.93,-137.4 258.68,-130.62"/>
</g>
<!-- Node15&#45;&gt;Node6 -->
<g id="edge29" class="edge">
<title>Node15&#45;&gt;Node6</title>
<path fill="none" stroke="midnightblue" d="M416.39,-168.37C403.91,-154.83 383.85,-128.45 399,-112 431.27,-76.94 749.15,-69.19 883.04,-67.48"/>
<polygon fill="midnightblue" stroke="midnightblue" points="883.16,-70.98 893.12,-67.36 883.08,-63.98 883.16,-70.98"/>
</g>
<!-- Node16&#45;&gt;Node4 -->
<g id="edge32" class="edge">
<title>Node16&#45;&gt;Node4</title>
<path fill="none" stroke="midnightblue" d="M431.81,-112.32C414.65,-103.66 388.05,-90.24 368.25,-80.25"/>
<polygon fill="midnightblue" stroke="midnightblue" points="369.65,-77.04 359.15,-75.65 366.5,-83.28 369.65,-77.04"/>
</g>
<!-- Node17&#45;&gt;Node4 -->
<g id="edge34" class="edge">
<title>Node17&#45;&gt;Node4</title>
<path fill="none" stroke="midnightblue" d="M58.04,-280.38C58.66,-251.61 64.79,-158.09 117,-112 143.5,-88.61 241.37,-76.02 298.94,-70.5"/>
<polygon fill="midnightblue" stroke="midnightblue" points="299.56,-73.96 309.19,-69.55 298.91,-66.99 299.56,-73.96"/>
</g>
<!-- Node18&#45;&gt;Node6 -->
<g id="edge37" class="edge">
<title>Node18&#45;&gt;Node6</title>
<path fill="none" stroke="midnightblue" d="M1128.13,-230.27C1186.95,-225.14 1267.89,-210.4 1238,-168 1184.66,-92.34 1071.07,-72.66 1001.15,-67.95"/>
<polygon fill="midnightblue" stroke="midnightblue" points="1000.93,-64.43 990.74,-67.34 1000.52,-71.42 1000.93,-64.43"/>
</g>
<!-- Node18&#45;&gt;Node13 -->
<g id="edge36" class="edge">
<title>Node18&#45;&gt;Node13</title>
<path fill="none" stroke="midnightblue" d="M1073,-224.08C1073,-217.01 1073,-206.86 1073,-197.99"/>
<polygon fill="midnightblue" stroke="midnightblue" points="1076.5,-197.75 1073,-187.75 1069.5,-197.75 1076.5,-197.75"/>
</g>
<!-- Node19&#45;&gt;Node4 -->
<g id="edge54" class="edge">
<title>Node19&#45;&gt;Node4</title>
<path fill="none" stroke="midnightblue" d="M321.42,-288.16C254.66,-283.64 146.7,-264.24 107,-188 92.52,-160.19 133.1,-114.22 136,-112 161.19,-92.69 246.8,-78.89 299.4,-72"/>
<polygon fill="midnightblue" stroke="midnightblue" points="299.98,-75.45 309.45,-70.71 299.09,-68.51 299.98,-75.45"/>
</g>
<!-- Node19&#45;&gt;Node5 -->
<g id="edge47" class="edge">
<title>Node19&#45;&gt;Node5</title>
<path fill="none" stroke="midnightblue" d="M365.03,-280.46C342.62,-264.12 293.49,-226.62 259,-188 245.71,-173.11 233.22,-153.99 224.97,-140.34"/>
<polygon fill="midnightblue" stroke="midnightblue" points="227.86,-138.35 219.76,-131.52 221.83,-141.91 227.86,-138.35"/>
</g>
<!-- Node19&#45;&gt;Node6 -->
<g id="edge53" class="edge">
<title>Node19&#45;&gt;Node6</title>
<path fill="none" stroke="midnightblue" d="M432.52,-284.43C530.95,-276.03 728.41,-257.75 757,-244 800.33,-223.16 792.36,-192.04 834,-168 886.29,-137.81 928.4,-180.02 965,-132 975.83,-117.79 966.21,-98.04 956.3,-84.06"/>
<polygon fill="midnightblue" stroke="midnightblue" points="958.83,-81.61 949.97,-75.81 953.28,-85.87 958.83,-81.61"/>
</g>
<!-- Node19&#45;&gt;Node11 -->
<g id="edge48" class="edge">
<title>Node19&#45;&gt;Node11</title>
<path fill="none" stroke="midnightblue" d="M377.19,-280.25C377.95,-266.54 381.37,-239.93 396,-224 425.98,-191.36 450.8,-210.48 489,-188 512.58,-174.12 536.25,-153.17 551.22,-138.83"/>
<polygon fill="midnightblue" stroke="midnightblue" points="553.89,-141.12 558.59,-131.63 548.99,-136.11 553.89,-141.12"/>
</g>
<!-- Node20 -->
<g id="node20" class="node">
<title>Node20</title>
<g id="a_node20"><a xlink:href="ByteStream_8h.html" target="_top" xlink:title=" ">
<polygon fill="none" stroke="black" points="485.5,-224.5 485.5,-243.5 608.5,-243.5 608.5,-224.5 485.5,-224.5"/>
<text text-anchor="middle" x="547" y="-231.5" font-family="Helvetica,sans-Serif" font-size="10.00">../Serial/ByteStream.h</text>
</a>
</g>
</g>
<!-- Node19&#45;&gt;Node20 -->
<g id="edge39" class="edge">
<title>Node19&#45;&gt;Node20</title>
<path fill="none" stroke="midnightblue" d="M403.94,-280.44C432.66,-271.32 478.33,-256.81 510.32,-246.65"/>
<polygon fill="midnightblue" stroke="midnightblue" points="511.72,-249.88 520.19,-243.52 509.6,-243.21 511.72,-249.88"/>
</g>
<!-- Node19&#45;&gt;Node23 -->
<g id="edge49" class="edge">
<title>Node19&#45;&gt;Node23</title>
<path fill="none" stroke="midnightblue" d="M321.22,-281.94C288.09,-275.79 246.37,-264.5 214,-244 194.8,-231.84 178.59,-211.09 168.63,-196.3"/>
<polygon fill="midnightblue" stroke="midnightblue" points="171.38,-194.1 163.02,-187.6 165.5,-197.9 171.38,-194.1"/>
</g>
<!-- Node20&#45;&gt;Node4 -->
<g id="edge40" class="edge">
<title>Node20&#45;&gt;Node4</title>
<path fill="none" stroke="midnightblue" d="M485.36,-225.38C438.27,-218.25 378.69,-205.99 362,-188 336.14,-160.13 336.62,-112.26 339.28,-85.86"/>
<polygon fill="midnightblue" stroke="midnightblue" points="342.79,-86.03 340.53,-75.68 335.84,-85.18 342.79,-86.03"/>
</g>
<!-- Node20&#45;&gt;Node21 -->
<g id="edge41" class="edge">
<title>Node20&#45;&gt;Node21</title>
<path fill="none" stroke="midnightblue" d="M608.55,-224.98C611.74,-224.63 614.91,-224.3 618,-224 849.66,-201.47 912.21,-218.71 1146.51,-188.03"/>
<polygon fill="midnightblue" stroke="midnightblue" points="1147.26,-191.46 1156.72,-186.68 1146.35,-184.52 1147.26,-191.46"/>
</g>
<!-- Node21&#45;&gt;Node6 -->
<g id="edge43" class="edge">
<title>Node21&#45;&gt;Node6</title>
<path fill="none" stroke="midnightblue" d="M1173.3,-168.37C1129.22,-149.05 1022.46,-102.26 970.86,-79.65"/>
<polygon fill="midnightblue" stroke="midnightblue" points="972.17,-76.4 961.6,-75.59 969.36,-82.81 972.17,-76.4"/>
</g>
<!-- Node21&#45;&gt;Node9 -->
<g id="edge42" class="edge">
<title>Node21&#45;&gt;Node9</title>
<path fill="none" stroke="midnightblue" d="M1187.51,-168.37C1176.01,-150.3 1149.2,-108.18 1134.01,-84.31"/>
<polygon fill="midnightblue" stroke="midnightblue" points="1136.79,-82.15 1128.47,-75.59 1130.88,-85.91 1136.79,-82.15"/>
</g>
<!-- Node22 -->
<g id="node22" class="node">
<title>Node22</title>
<g id="a_node22"><a xlink:href="ErrorBlinker_8h.html" target="_top" xlink:title=" ">
<polygon fill="none" stroke="black" points="844.5,-112.5 844.5,-131.5 955.5,-131.5 955.5,-112.5 844.5,-112.5"/>
<text text-anchor="middle" x="900" y="-119.5" font-family="Helvetica,sans-Serif" font-size="10.00">../Log/ErrorBlinker.h</text>
</a>
</g>
</g>
<!-- Node21&#45;&gt;Node22 -->
<g id="edge44" class="edge">
<title>Node21&#45;&gt;Node22</title>
<path fill="none" stroke="midnightblue" d="M1156.66,-169.67C1153.73,-169.1 1150.82,-168.54 1148,-168 1083.26,-155.65 1008.85,-142.26 958.56,-133.32"/>
<polygon fill="midnightblue" stroke="midnightblue" points="958.98,-129.84 948.52,-131.54 957.75,-136.73 958.98,-129.84"/>
</g>
<!-- Node22&#45;&gt;Node4 -->
<g id="edge45" class="edge">
<title>Node22&#45;&gt;Node4</title>
<path fill="none" stroke="midnightblue" d="M844.24,-113.65C839.42,-113.07 834.63,-112.51 830,-112 665.61,-93.86 469.49,-77.32 384.62,-70.41"/>
<polygon fill="midnightblue" stroke="midnightblue" points="384.84,-66.92 374.59,-69.6 384.28,-73.9 384.84,-66.92"/>
</g>
<!-- Node22&#45;&gt;Node6 -->
<g id="edge46" class="edge">
<title>Node22&#45;&gt;Node6</title>
<path fill="none" stroke="midnightblue" d="M906.94,-112.08C912.93,-104.38 921.75,-93.03 929.05,-83.65"/>
<polygon fill="midnightblue" stroke="midnightblue" points="931.82,-85.79 935.19,-75.75 926.29,-81.5 931.82,-85.79"/>
</g>
<!-- Node23&#45;&gt;Node4 -->
<g id="edge50" class="edge">
<title>Node23&#45;&gt;Node4</title>
<path fill="none" stroke="midnightblue" d="M152.36,-168.4C144.29,-154.89 131.8,-128.56 145,-112 163.92,-88.28 247.2,-76.07 299.24,-70.64"/>
<polygon fill="midnightblue" stroke="midnightblue" points="299.6,-74.13 309.2,-69.65 298.91,-67.16 299.6,-74.13"/>
</g>
<!-- Node23&#45;&gt;Node5 -->
<g id="edge51" class="edge">
<title>Node23&#45;&gt;Node5</title>
<path fill="none" stroke="midnightblue" d="M167.16,-168.32C175.5,-160.42 188.03,-148.55 198.18,-138.94"/>
<polygon fill="midnightblue" stroke="midnightblue" points="200.82,-141.25 205.68,-131.83 196.01,-136.17 200.82,-141.25"/>
</g>
<!-- Node23&#45;&gt;Node8 -->
<g id="edge52" class="edge">
<title>Node23&#45;&gt;Node8</title>
<path fill="none" stroke="midnightblue" d="M199.96,-173.07C300.13,-163.7 553.65,-139.97 672.15,-128.88"/>
<polygon fill="midnightblue" stroke="midnightblue" points="672.53,-132.36 682.16,-127.95 671.88,-125.39 672.53,-132.36"/>
</g>
</g>
</svg>
        <g id="navigator" transform="translate(0 0)" fill="#404254">
                <rect fill="#f2f5e9" fill-opacity="0.5" stroke="#606060" stroke-width=".5" x="0" y="0" width="60" height="60"/>
                <use id="zoomplus" xlink:href="#zoomPlus" x="17" y="9" onmousedown="handleZoom(evt,'in')"/>
                <use id="zoomminus" xlink:href="#zoomMin" x="42" y="9" onmousedown="handleZoom(evt,'out')"/>
                <use id="reset" xlink:href="#resetDef" x="30" y="36" onmousedown="handleReset()"/>
                <g id="arrowUp" xlink:href="#dirArrow" transform="translate(30 24)" onmousedown="handlePan(0,-1)">
                  <use xlink:href="#rim" fill="#404040">
                        <set attributeName="fill" to="#808080" begin="arrowUp.mouseover" end="arrowUp.mouseout"/>
                  </use>
                  <path fill="none" stroke="white" stroke-width="1.5" d="M0,-3.0v7 M-2.5,-0.5L0,-3.0L2.5,-0.5"/>
                </g>
                <g id="arrowRight" xlink:href="#dirArrow" transform="rotate(90) translate(36 -43)" onmousedown="handlePan(1,0)">
                  <use xlink:href="#rim" fill="#404040">
                        <set attributeName="fill" to="#808080" begin="arrowRight.mouseover" end="arrowRight.mouseout"/>
                  </use>
                  <path fill="none" stroke="white" stroke-width="1.5" d="M0,-3.0v7 M-2.5,-0.5L0,-3.0L2.5,-0.5"/>
                </g>
                <g id="arrowDown" xlink:href="#dirArrow" transform="rotate(180) translate(-30 -48)" onmousedown="handlePan(0,1)">
                  <use xlink:href="#rim" fill="#404040">
                        <set attributeName="fill" to="#808080" begin="arrowDown.mouseover" end="arrowDown.mouseout"/>
                  </use>
                  <path fill="none" stroke="white" stroke-width="1.5" d="M0,-3.0v7 M-2.5,-0.5L0,-3.0L2.5,-0.5"/>
                </g>
                <g id="arrowLeft" xlink:href="#dirArrow" transform="rotate(270) translate(-36 17)" onmousedown="handlePan(-1,0)">
                  <use xlink:href="#rim" fill="#404040">
                        <set attributeName="fill" to="#808080" begin="arrowLeft.mouseover" end="arrowLeft.mouseout"/>
                  </use>
                  <path fill="none" stroke="white" stroke-width="1.5" d="M0,-3.0v7 M-2.5,-0.5L0,-3.0L2.5,-0.5"/>
                </g>
        </g>
        <svg viewBox="0 0 15 15" width="100%" height="30px" preserveAspectRatio="xMaxYMin meet">
         <g id="arrow_out" transform="scale(0.3 0.3)">
          <a xlink:href="FactoryReset_8cpp__incl_org.svg" target="_base">
           <rect id="button" ry="5" rx="5" y="6" x="6" height="38" width="38"
                fill="#f2f5e9" fill-opacity="0.5" stroke="#606060" stroke-width="1.0"/>
           <path id="arrow"
             d="M 11.500037,31.436501 C 11.940474,20.09759 22.043105,11.32322 32.158766,21.979434 L 37.068811,17.246167 C 37.068811,17.246167 37.088388,32 37.088388,32 L 22.160133,31.978069 C 22.160133,31.978069 26.997745,27.140456 26.997745,27.140456 C 18.528582,18.264221 13.291696,25.230495 11.500037,31.436501 z"
             style="fill:#404040;"/>
          </a>
         </g>
        </svg>
</svg>
