<?xml version="1.0" encoding="UTF-8" standalone="no"?>
<!DOCTYPE svg PUBLIC "-//W3C//DTD SVG 1.1//EN"
 "http://www.w3.org/Graphics/SVG/1.1/DTD/svg11.dtd">
<!-- Generated by graphviz version 2.43.0 (0)
 -->
<!-- Title: VortexEngine/src/Menus/MenuList/FactoryReset.cpp Pages: 1 -->
<!--zoomable 375 -->
<svg id="main" version="1.1" xmlns="http://www.w3.org/2000/svg" xmlns:xlink="http://www.w3.org/1999/xlink" xml:space="preserve" onload="init(evt)">
<style type="text/css"><![CDATA[
.edge:hover path { stroke: red; }
.edge:hover polygon { stroke: red; fill: red; }
]]></style>
<script type="text/javascript"><![CDATA[
var edges = document.getElementsByTagName('g');
if (edges && edges.length) {
  for (var i=0;i<edges.length;i++) {
    if (edges[i].id.substr(0,4)=='edge') {
      edges[i].setAttribute('class','edge');
    }
  }
}
]]></script>
        <defs>
                <circle id="rim" cx="0" cy="0" r="7"/>
                <circle id="rim2" cx="0" cy="0" r="3.5"/>
                <g id="zoomPlus">
                        <use xlink:href="#rim" fill="#404040">
                                <set attributeName="fill" to="#808080" begin="zoomplus.mouseover" end="zoomplus.mouseout"/>
                        </use>
                        <path d="M-4,0h8M0,-4v8" fill="none" stroke="white" stroke-width="1.5" pointer-events="none"/>
                </g>
                <g id="zoomMin">
                        <use xlink:href="#rim" fill="#404040">
                                <set attributeName="fill" to="#808080" begin="zoomminus.mouseover" end="zoomminus.mouseout"/>
                        </use>
                        <path d="M-4,0h8" fill="none" stroke="white" stroke-width="1.5" pointer-events="none"/>
                </g>
                <g id="dirArrow">
                        <path fill="none" stroke="white" stroke-width="1.5" d="M0,-3.0v7 M-2.5,-0.5L0,-3.0L2.5,-0.5"/>
                </g>
               <g id="resetDef">
                       <use xlink:href="#rim2" fill="#404040">
                               <set attributeName="fill" to="#808080" begin="reset.mouseover" end="reset.mouseout"/>
                       </use>
               </g>
        </defs>

<script type="text/javascript">
var viewWidth = 1343;
var viewHeight = 375;
var sectionId = 'dynsection-0';
</script>
<script xlink:href="svgpan.js"/>
<svg id="graph" class="graph">
<g id="viewport">
<title>VortexEngine/src/Menus/MenuList/FactoryReset.cpp</title>
<!-- Node1 -->
<g id="node1" class="node">
<title>Node1</title>
<g id="a_node1"><a xlink:title=" ">
<polygon fill="#bfbfbf" stroke="black" points="400,-336.5 400,-366.5 550,-366.5 550,-336.5 400,-336.5"/>
<text text-anchor="start" x="408" y="-354.5" font-family="Helvetica,sans-Serif" font-size="10.00">VortexEngine/src/Menus</text>
<text text-anchor="middle" x="475" y="-343.5" font-family="Helvetica,sans-Serif" font-size="10.00">/MenuList/FactoryReset.cpp</text>
</a>
</g>
</g>
<!-- Node2 -->
<g id="node2" class="node">
<title>Node2</title>
<g id="a_node2"><a xlink:href="FactoryReset_8h.html" target="_top" xlink:title=" ">
<polygon fill="none" stroke="black" points="379.5,-280.5 379.5,-299.5 468.5,-299.5 468.5,-280.5 379.5,-280.5"/>
<text text-anchor="middle" x="424" y="-287.5" font-family="Helvetica,sans-Serif" font-size="10.00">FactoryReset.h</text>
</a>
</g>
</g>
<!-- Node1&#45;&gt;Node2 -->
<g id="edge1" class="edge">
<title>Node1&#45;&gt;Node2</title>
<path fill="none" stroke="midnightblue" d="M462.91,-336.4C455.43,-327.66 445.78,-316.41 437.97,-307.3"/>
<polygon fill="midnightblue" stroke="midnightblue" points="440.59,-304.97 431.42,-299.66 435.27,-309.53 440.59,-304.97"/>
</g>
<!-- Node6 -->
<g id="node6" class="node">
<title>Node6</title>
<g id="a_node6"><a xlink:href="VortexConfig_8h.html" target="_top" xlink:title=" ">
<polygon fill="none" stroke="black" points="409.5,-56.5 409.5,-75.5 506.5,-75.5 506.5,-56.5 409.5,-56.5"/>
<text text-anchor="middle" x="458" y="-63.5" font-family="Helvetica,sans-Serif" font-size="10.00">../VortexConfig.h</text>
</a>
</g>
</g>
<!-- Node1&#45;&gt;Node6 -->
<g id="edge54" class="edge">
<title>Node1&#45;&gt;Node6</title>
<path fill="none" stroke="midnightblue" d="M400,-347.69C266.14,-340.61 0,-316.31 0,-235 0,-235 0,-235 0,-177 0,-95.77 275.82,-74.37 399.37,-68.86"/>
<polygon fill="midnightblue" stroke="midnightblue" points="399.58,-72.35 409.42,-68.43 399.28,-65.36 399.58,-72.35"/>
</g>
<!-- Node10 -->
<g id="node10" class="node">
<title>Node10</title>
<g id="a_node10"><a xlink:href="Mode_8h.html" target="_top" xlink:title=" ">
<polygon fill="none" stroke="black" points="253.5,-168.5 253.5,-187.5 350.5,-187.5 350.5,-168.5 253.5,-168.5"/>
<text text-anchor="middle" x="302" y="-175.5" font-family="Helvetica,sans-Serif" font-size="10.00">../Modes/Mode.h</text>
</a>
</g>
</g>
<!-- Node1&#45;&gt;Node10 -->
<g id="edge51" class="edge">
<title>Node1&#45;&gt;Node10</title>
<path fill="none" stroke="midnightblue" d="M431.27,-336.43C410.87,-328.24 387.33,-316.26 370,-300 338.63,-270.57 317.95,-223.35 308.3,-197.46"/>
<polygon fill="midnightblue" stroke="midnightblue" points="311.5,-196.02 304.84,-187.79 304.91,-198.38 311.5,-196.02"/>
</g>
<!-- Node12 -->
<g id="node12" class="node">
<title>Node12</title>
<g id="a_node12"><a xlink:href="VortexEngine_8h.html" target="_top" xlink:title=" ">
<polygon fill="none" stroke="black" points="129,-112.5 129,-131.5 237,-131.5 237,-112.5 129,-112.5"/>
<text text-anchor="middle" x="183" y="-119.5" font-family="Helvetica,sans-Serif" font-size="10.00">../../VortexEngine.h</text>
</a>
</g>
</g>
<!-- Node1&#45;&gt;Node12 -->
<g id="edge18" class="edge">
<title>Node1&#45;&gt;Node12</title>
<path fill="none" stroke="midnightblue" d="M399.92,-339.41C302.82,-323.37 141.86,-290.44 106,-244 85.14,-216.99 77.19,-197.11 95,-168 104.51,-152.46 121.26,-142.07 137.62,-135.23"/>
<polygon fill="midnightblue" stroke="midnightblue" points="139.05,-138.43 147.15,-131.6 136.56,-131.89 139.05,-138.43"/>
</g>
<!-- Node13 -->
<g id="node13" class="node">
<title>Node13</title>
<g id="a_node13"><a xlink:href="DefaultModes_8h.html" target="_top" xlink:title=" ">
<polygon fill="none" stroke="black" points="445.5,-168.5 445.5,-187.5 592.5,-187.5 592.5,-168.5 445.5,-168.5"/>
<text text-anchor="middle" x="519" y="-175.5" font-family="Helvetica,sans-Serif" font-size="10.00">../../Modes/DefaultModes.h</text>
</a>
</g>
</g>
<!-- Node1&#45;&gt;Node13 -->
<g id="edge21" class="edge">
<title>Node1&#45;&gt;Node13</title>
<path fill="none" stroke="midnightblue" d="M478.6,-336.47C486.53,-305.57 505.48,-231.69 514.32,-197.25"/>
<polygon fill="midnightblue" stroke="midnightblue" points="517.71,-198.12 516.8,-187.56 510.93,-196.38 517.71,-198.12"/>
</g>
<!-- Node14 -->
<g id="node14" class="node">
<title>Node14</title>
<g id="a_node14"><a xlink:href="TimeControl_8h.html" target="_top" xlink:title=" ">
<polygon fill="none" stroke="black" points="104.5,-168.5 104.5,-187.5 235.5,-187.5 235.5,-168.5 104.5,-168.5"/>
<text text-anchor="middle" x="170" y="-175.5" font-family="Helvetica,sans-Serif" font-size="10.00">../../Time/TimeControl.h</text>
</a>
</g>
</g>
<!-- Node1&#45;&gt;Node14 -->
<g id="edge25" class="edge">
<title>Node1&#45;&gt;Node14</title>
<path fill="none" stroke="midnightblue" d="M433.72,-336.49C408.63,-327.35 376.27,-314.47 349,-300 332.6,-291.3 234.57,-223.73 190.93,-193.51"/>
<polygon fill="midnightblue" stroke="midnightblue" points="192.7,-190.49 182.49,-187.67 188.72,-196.24 192.7,-190.49"/>
</g>
<!-- Node15 -->
<g id="node15" class="node">
<title>Node15</title>
<g id="a_node15"><a xlink:href="Timings_8h.html" target="_top" xlink:title=" ">
<polygon fill="none" stroke="black" points="115,-224.5 115,-243.5 225,-243.5 225,-224.5 115,-224.5"/>
<text text-anchor="middle" x="170" y="-231.5" font-family="Helvetica,sans-Serif" font-size="10.00">../../Time/Timings.h</text>
</a>
</g>
</g>
<!-- Node1&#45;&gt;Node15 -->
<g id="edge29" class="edge">
<title>Node1&#45;&gt;Node15</title>
<path fill="none" stroke="midnightblue" d="M399.85,-340.54C357.17,-333.04 303.54,-320.44 259,-300 231.46,-287.36 203.93,-265.48 186.94,-250.63"/>
<polygon fill="midnightblue" stroke="midnightblue" points="188.86,-247.65 179.07,-243.59 184.19,-252.87 188.86,-247.65"/>
</g>
<!-- Node16 -->
<g id="node16" class="node">
<title>Node16</title>
<g id="a_node16"><a xlink:href="Colorset_8h.html" target="_top" xlink:title=" ">
<polygon fill="none" stroke="black" points="611,-168.5 611,-187.5 729,-187.5 729,-168.5 611,-168.5"/>
<text text-anchor="middle" x="670" y="-175.5" font-family="Helvetica,sans-Serif" font-size="10.00">../../Colors/Colorset.h</text>
</a>
</g>
</g>
<!-- Node1&#45;&gt;Node16 -->
<g id="edge32" class="edge">
<title>Node1&#45;&gt;Node16</title>
<path fill="none" stroke="midnightblue" d="M490.96,-336.47C527.15,-304.63 615.23,-227.17 652.68,-194.23"/>
<polygon fill="midnightblue" stroke="midnightblue" points="655.07,-196.79 660.27,-187.56 650.45,-191.54 655.07,-196.79"/>
</g>
<!-- Node17 -->
<g id="node17" class="node">
<title>Node17</title>
<g id="a_node17"><a xlink:href="Button_8h.html" target="_top" xlink:title=" ">
<polygon fill="none" stroke="black" points="1219,-280.5 1219,-299.5 1335,-299.5 1335,-280.5 1219,-280.5"/>
<text text-anchor="middle" x="1277" y="-287.5" font-family="Helvetica,sans-Serif" font-size="10.00">../../Buttons/Button.h</text>
</a>
</g>
</g>
<!-- Node1&#45;&gt;Node17 -->
<g id="edge35" class="edge">
<title>Node1&#45;&gt;Node17</title>
<path fill="none" stroke="midnightblue" d="M550.25,-346.67C682.77,-339.62 966.33,-323.15 1205,-300 1206.27,-299.88 1207.55,-299.75 1208.84,-299.62"/>
<polygon fill="midnightblue" stroke="midnightblue" points="1209.3,-303.09 1218.87,-298.55 1208.56,-296.13 1209.3,-303.09"/>
</g>
<!-- Node18 -->
<g id="node18" class="node">
<title>Node18</title>
<g id="a_node18"><a xlink:href="Modes_8h.html" target="_top" xlink:title=" ">
<polygon fill="none" stroke="black" points="879.5,-224.5 879.5,-243.5 990.5,-243.5 990.5,-224.5 879.5,-224.5"/>
<text text-anchor="middle" x="935" y="-231.5" font-family="Helvetica,sans-Serif" font-size="10.00">../../Modes/Modes.h</text>
</a>
</g>
</g>
<!-- Node1&#45;&gt;Node18 -->
<g id="edge37" class="edge">
<title>Node1&#45;&gt;Node18</title>
<path fill="none" stroke="midnightblue" d="M550.25,-337.87C601.29,-328.76 670.11,-315.37 730,-300 791.18,-284.3 861.02,-260.96 901.36,-246.94"/>
<polygon fill="midnightblue" stroke="midnightblue" points="902.67,-250.19 910.95,-243.59 900.36,-243.58 902.67,-250.19"/>
</g>
<!-- Node20 -->
<g id="node20" class="node">
<title>Node20</title>
<g id="a_node20"><a xlink:href="Log_8h.html" target="_top" xlink:title=" ">
<polygon fill="none" stroke="black" points="1077,-112.5 1077,-131.5 1149,-131.5 1149,-112.5 1077,-112.5"/>
<text text-anchor="middle" x="1113" y="-119.5" font-family="Helvetica,sans-Serif" font-size="10.00">../Log/Log.h</text>
</a>
</g>
</g>
<!-- Node1&#45;&gt;Node20 -->
<g id="edge53" class="edge">
<title>Node1&#45;&gt;Node20</title>
<path fill="none" stroke="midnightblue" d="M550.29,-339.81C612.01,-330.61 701.51,-316.27 779,-300 956.33,-262.77 1064.54,-334.62 1171,-188 1184.76,-169.05 1160.64,-149.24 1139.44,-136.54"/>
<polygon fill="midnightblue" stroke="midnightblue" points="1141.08,-133.45 1130.65,-131.56 1137.63,-139.54 1141.08,-133.45"/>
</g>
<!-- Node21 -->
<g id="node21" class="node">
<title>Node21</title>
<g id="a_node21"><a xlink:href="Leds_8h.html" target="_top" xlink:title=" ">
<polygon fill="none" stroke="black" points="823.5,-168.5 823.5,-187.5 906.5,-187.5 906.5,-168.5 823.5,-168.5"/>
<text text-anchor="middle" x="865" y="-175.5" font-family="Helvetica,sans-Serif" font-size="10.00">../Leds/Leds.h</text>
</a>
</g>
</g>
<!-- Node1&#45;&gt;Node21 -->
<g id="edge52" class="edge">
<title>Node1&#45;&gt;Node21</title>
<path fill="none" stroke="midnightblue" d="M506.92,-336.47C581.28,-303.76 765.15,-222.91 836.27,-191.63"/>
<polygon fill="midnightblue" stroke="midnightblue" points="837.79,-194.79 845.53,-187.56 834.97,-188.38 837.79,-194.79"/>
</g>
<!-- Node3 -->
<g id="node3" class="node">
<title>Node3</title>
<g id="a_node3"><a xlink:href="Menu_8h.html" target="_top" xlink:title=" ">
<polygon fill="none" stroke="black" points="386,-224.5 386,-243.5 448,-243.5 448,-224.5 386,-224.5"/>
<text text-anchor="middle" x="417" y="-231.5" font-family="Helvetica,sans-Serif" font-size="10.00">../Menu.h</text>
</a>
</g>
</g>
<!-- Node2&#45;&gt;Node3 -->
<g id="edge2" class="edge">
<title>Node2&#45;&gt;Node3</title>
<path fill="none" stroke="midnightblue" d="M422.84,-280.08C421.92,-272.93 420.58,-262.64 419.42,-253.69"/>
<polygon fill="midnightblue" stroke="midnightblue" points="422.89,-253.22 418.13,-243.75 415.95,-254.12 422.89,-253.22"/>
</g>
<!-- Node4 -->
<g id="node4" class="node">
<title>Node4</title>
<g id="a_node4"><a xlink:title=" ">
<polygon fill="none" stroke="#bfbfbf" points="633.5,-56.5 633.5,-75.5 698.5,-75.5 698.5,-56.5 633.5,-56.5"/>
<text text-anchor="middle" x="666" y="-63.5" font-family="Helvetica,sans-Serif" font-size="10.00">inttypes.h</text>
</a>
</g>
</g>
<!-- Node3&#45;&gt;Node4 -->
<g id="edge3" class="edge">
<title>Node3&#45;&gt;Node4</title>
<path fill="none" stroke="midnightblue" d="M415.29,-224.44C411.39,-202.24 404.49,-142.43 436,-112 462.16,-86.74 563.94,-74.81 622.97,-69.92"/>
<polygon fill="midnightblue" stroke="midnightblue" points="623.43,-73.39 633.12,-69.11 622.87,-66.41 623.43,-73.39"/>
</g>
<!-- Node5 -->
<g id="node5" class="node">
<title>Node5</title>
<g id="a_node5"><a xlink:href="ColorTypes_8h.html" target="_top" xlink:title=" ">
<polygon fill="none" stroke="black" points="743,-112.5 743,-131.5 865,-131.5 865,-112.5 743,-112.5"/>
<text text-anchor="middle" x="804" y="-119.5" font-family="Helvetica,sans-Serif" font-size="10.00">../Colors/ColorTypes.h</text>
</a>
</g>
</g>
<!-- Node3&#45;&gt;Node5 -->
<g id="edge4" class="edge">
<title>Node3&#45;&gt;Node5</title>
<path fill="none" stroke="midnightblue" d="M448.06,-231.13C518.32,-226.5 687.29,-213.03 738,-188 760.42,-176.93 779.95,-155.33 791.84,-140.07"/>
<polygon fill="midnightblue" stroke="midnightblue" points="794.72,-142.06 797.91,-131.95 789.12,-137.86 794.72,-142.06"/>
</g>
<!-- Node8 -->
<g id="node8" class="node">
<title>Node8</title>
<g id="a_node8"><a xlink:href="LedTypes_8h.html" target="_top" xlink:title=" ">
<polygon fill="none" stroke="black" points="445.5,-112.5 445.5,-131.5 550.5,-131.5 550.5,-112.5 445.5,-112.5"/>
<text text-anchor="middle" x="498" y="-119.5" font-family="Helvetica,sans-Serif" font-size="10.00">../Leds/LedTypes.h</text>
</a>
</g>
</g>
<!-- Node3&#45;&gt;Node8 -->
<g id="edge9" class="edge">
<title>Node3&#45;&gt;Node8</title>
<path fill="none" stroke="midnightblue" d="M417.76,-224.23C419.27,-210.97 423.68,-185.49 436,-168 445.18,-154.96 459.36,-144.27 471.85,-136.58"/>
<polygon fill="midnightblue" stroke="midnightblue" points="473.66,-139.58 480.54,-131.52 470.14,-133.52 473.66,-139.58"/>
</g>
<!-- Node3&#45;&gt;Node10 -->
<g id="edge13" class="edge">
<title>Node3&#45;&gt;Node10</title>
<path fill="none" stroke="midnightblue" d="M398.78,-224.44C380.1,-215.68 350.84,-201.94 329.38,-191.86"/>
<polygon fill="midnightblue" stroke="midnightblue" points="330.68,-188.6 320.14,-187.52 327.7,-194.93 330.68,-188.6"/>
</g>
<!-- Node5&#45;&gt;Node4 -->
<g id="edge5" class="edge">
<title>Node5&#45;&gt;Node4</title>
<path fill="none" stroke="midnightblue" d="M782.13,-112.44C759.22,-103.48 723.02,-89.31 697.13,-79.18"/>
<polygon fill="midnightblue" stroke="midnightblue" points="698.35,-75.9 687.76,-75.52 695.8,-82.42 698.35,-75.9"/>
</g>
<!-- Node5&#45;&gt;Node6 -->
<g id="edge6" class="edge">
<title>Node5&#45;&gt;Node6</title>
<path fill="none" stroke="midnightblue" d="M749.18,-112.44C685.78,-102.55 581.82,-86.33 516.79,-76.18"/>
<polygon fill="midnightblue" stroke="midnightblue" points="517.12,-72.68 506.7,-74.6 516.04,-79.6 517.12,-72.68"/>
</g>
<!-- Node7 -->
<g id="node7" class="node">
<title>Node7</title>
<g id="a_node7"><a xlink:href="ColorConstants_8h.html" target="_top" xlink:title=" ">
<polygon fill="none" stroke="black" points="542,-0.5 542,-19.5 676,-19.5 676,-0.5 542,-0.5"/>
<text text-anchor="middle" x="609" y="-7.5" font-family="Helvetica,sans-Serif" font-size="10.00">Colors/ColorConstants.h</text>
</a>
</g>
</g>
<!-- Node5&#45;&gt;Node7 -->
<g id="edge8" class="edge">
<title>Node5&#45;&gt;Node7</title>
<path fill="none" stroke="midnightblue" d="M803.75,-112.47C802.87,-98.59 799.05,-71.13 783,-56 757.17,-31.66 719.95,-20.07 686.55,-14.7"/>
<polygon fill="midnightblue" stroke="midnightblue" points="686.73,-11.19 676.33,-13.22 685.73,-18.11 686.73,-11.19"/>
</g>
<!-- Node6&#45;&gt;Node7 -->
<g id="edge7" class="edge">
<title>Node6&#45;&gt;Node7</title>
<path fill="none" stroke="midnightblue" d="M481.93,-56.44C507.22,-47.4 547.3,-33.06 575.68,-22.92"/>
<polygon fill="midnightblue" stroke="midnightblue" points="576.95,-26.18 585.19,-19.52 574.59,-19.59 576.95,-26.18"/>
</g>
<!-- Node8&#45;&gt;Node4 -->
<g id="edge10" class="edge">
<title>Node8&#45;&gt;Node4</title>
<path fill="none" stroke="midnightblue" d="M524.62,-112.44C553.01,-103.32 598.14,-88.81 629.75,-78.65"/>
<polygon fill="midnightblue" stroke="midnightblue" points="631.06,-81.91 639.5,-75.52 628.91,-75.24 631.06,-81.91"/>
</g>
<!-- Node8&#45;&gt;Node6 -->
<g id="edge12" class="edge">
<title>Node8&#45;&gt;Node6</title>
<path fill="none" stroke="midnightblue" d="M491.39,-112.08C485.74,-104.46 477.46,-93.26 470.55,-83.94"/>
<polygon fill="midnightblue" stroke="midnightblue" points="473.25,-81.7 464.48,-75.75 467.62,-85.87 473.25,-81.7"/>
</g>
<!-- Node9 -->
<g id="node9" class="node">
<title>Node9</title>
<g id="a_node9"><a xlink:title=" ">
<polygon fill="none" stroke="#bfbfbf" points="718,-56.5 718,-75.5 774,-75.5 774,-56.5 718,-56.5"/>
<text text-anchor="middle" x="746" y="-63.5" font-family="Helvetica,sans-Serif" font-size="10.00">stdarg.h</text>
</a>
</g>
</g>
<!-- Node8&#45;&gt;Node9 -->
<g id="edge11" class="edge">
<title>Node8&#45;&gt;Node9</title>
<path fill="none" stroke="midnightblue" d="M538.5,-112.47C580.63,-103.54 648.49,-89.05 707,-76 707.33,-75.93 707.66,-75.85 708,-75.78"/>
<polygon fill="midnightblue" stroke="midnightblue" points="708.91,-79.16 717.89,-73.54 707.37,-72.33 708.91,-79.16"/>
</g>
<!-- Node10&#45;&gt;Node6 -->
<g id="edge17" class="edge">
<title>Node10&#45;&gt;Node6</title>
<path fill="none" stroke="midnightblue" d="M308.59,-168.49C319.27,-155.11 341.56,-128.94 365,-112 383.57,-98.58 406.76,-87.35 425.34,-79.46"/>
<polygon fill="midnightblue" stroke="midnightblue" points="426.68,-82.7 434.59,-75.65 424.01,-76.23 426.68,-82.7"/>
</g>
<!-- Node10&#45;&gt;Node8 -->
<g id="edge14" class="edge">
<title>Node10&#45;&gt;Node8</title>
<path fill="none" stroke="midnightblue" d="M333.06,-168.44C366.6,-159.2 420.2,-144.44 457.14,-134.26"/>
<polygon fill="midnightblue" stroke="midnightblue" points="458.38,-137.55 467.09,-131.52 456.52,-130.8 458.38,-137.55"/>
</g>
<!-- Node11 -->
<g id="node11" class="node">
<title>Node11</title>
<g id="a_node11"><a xlink:href="Patterns_8h.html" target="_top" xlink:title=" ">
<polygon fill="none" stroke="black" points="607.5,-112.5 607.5,-131.5 724.5,-131.5 724.5,-112.5 607.5,-112.5"/>
<text text-anchor="middle" x="666" y="-119.5" font-family="Helvetica,sans-Serif" font-size="10.00">../Patterns/Patterns.h</text>
</a>
</g>
</g>
<!-- Node10&#45;&gt;Node11 -->
<g id="edge15" class="edge">
<title>Node10&#45;&gt;Node11</title>
<path fill="none" stroke="midnightblue" d="M350.71,-169.77C414.41,-160.32 526.34,-143.72 598.27,-133.05"/>
<polygon fill="midnightblue" stroke="midnightblue" points="599.21,-136.45 608.58,-131.52 598.18,-129.52 599.21,-136.45"/>
</g>
<!-- Node11&#45;&gt;Node4 -->
<g id="edge16" class="edge">
<title>Node11&#45;&gt;Node4</title>
<path fill="none" stroke="midnightblue" d="M666,-112.08C666,-105.01 666,-94.86 666,-85.99"/>
<polygon fill="midnightblue" stroke="midnightblue" points="669.5,-85.75 666,-75.75 662.5,-85.75 669.5,-85.75"/>
</g>
<!-- Node12&#45;&gt;Node4 -->
<g id="edge19" class="edge">
<title>Node12&#45;&gt;Node4</title>
<path fill="none" stroke="midnightblue" d="M237,-114.96C333.87,-104.13 535.24,-81.62 623.27,-71.78"/>
<polygon fill="midnightblue" stroke="midnightblue" points="623.87,-75.23 633.42,-70.64 623.1,-68.27 623.87,-75.23"/>
</g>
<!-- Node12&#45;&gt;Node6 -->
<g id="edge20" class="edge">
<title>Node12&#45;&gt;Node6</title>
<path fill="none" stroke="midnightblue" d="M226.57,-112.44C274.85,-102.96 352.71,-87.67 404.61,-77.48"/>
<polygon fill="midnightblue" stroke="midnightblue" points="405.49,-80.88 414.63,-75.52 404.14,-74.01 405.49,-80.88"/>
</g>
<!-- Node13&#45;&gt;Node6 -->
<g id="edge23" class="edge">
<title>Node13&#45;&gt;Node6</title>
<path fill="none" stroke="midnightblue" d="M486.82,-168.49C468.46,-161.8 446.98,-150.45 436,-132 427.09,-117.03 435.54,-97.95 444.42,-84.34"/>
<polygon fill="midnightblue" stroke="midnightblue" points="447.48,-86.09 450.43,-75.91 441.78,-82.02 447.48,-86.09"/>
</g>
<!-- Node13&#45;&gt;Node8 -->
<g id="edge24" class="edge">
<title>Node13&#45;&gt;Node8</title>
<path fill="none" stroke="midnightblue" d="M515.53,-168.08C512.69,-160.77 508.57,-150.18 505.04,-141.1"/>
<polygon fill="midnightblue" stroke="midnightblue" points="508.29,-139.8 501.4,-131.75 501.77,-142.34 508.29,-139.8"/>
</g>
<!-- Node13&#45;&gt;Node11 -->
<g id="edge22" class="edge">
<title>Node13&#45;&gt;Node11</title>
<path fill="none" stroke="midnightblue" d="M542.29,-168.44C566.81,-159.44 605.6,-145.19 633.2,-135.05"/>
<polygon fill="midnightblue" stroke="midnightblue" points="634.64,-138.25 642.82,-131.52 632.22,-131.68 634.64,-138.25"/>
</g>
<!-- Node14&#45;&gt;Node4 -->
<g id="edge26" class="edge">
<title>Node14&#45;&gt;Node4</title>
<path fill="none" stroke="midnightblue" d="M207.84,-168.47C240.1,-160.66 287.4,-147.9 327,-132 344.71,-124.89 346.86,-117.94 365,-112 453.82,-82.92 563.6,-72.54 622.97,-68.9"/>
<polygon fill="midnightblue" stroke="midnightblue" points="623.32,-72.39 633.1,-68.32 622.92,-65.4 623.32,-72.39"/>
</g>
<!-- Node14&#45;&gt;Node6 -->
<g id="edge27" class="edge">
<title>Node14&#45;&gt;Node6</title>
<path fill="none" stroke="midnightblue" d="M192.13,-168.44C224.4,-155.97 286.28,-132.11 339,-112 368.25,-100.84 401.6,-88.24 425.53,-79.22"/>
<polygon fill="midnightblue" stroke="midnightblue" points="427.05,-82.39 435.17,-75.59 424.58,-75.84 427.05,-82.39"/>
</g>
<!-- Node14&#45;&gt;Node8 -->
<g id="edge28" class="edge">
<title>Node14&#45;&gt;Node8</title>
<path fill="none" stroke="midnightblue" d="M221.97,-168.44C280.15,-158.87 374.36,-143.36 436.25,-133.17"/>
<polygon fill="midnightblue" stroke="midnightblue" points="436.97,-136.59 446.27,-131.52 435.83,-129.69 436.97,-136.59"/>
</g>
<!-- Node15&#45;&gt;Node6 -->
<g id="edge31" class="edge">
<title>Node15&#45;&gt;Node6</title>
<path fill="none" stroke="midnightblue" d="M142.72,-224.45C125.71,-217.55 105.17,-205.97 95,-188 80.7,-162.75 113.12,-117.14 120,-112 162.95,-79.91 314.34,-70.7 399.21,-68.06"/>
<polygon fill="midnightblue" stroke="midnightblue" points="399.32,-71.56 409.22,-67.77 399.12,-64.56 399.32,-71.56"/>
</g>
<!-- Node15&#45;&gt;Node14 -->
<g id="edge30" class="edge">
<title>Node15&#45;&gt;Node14</title>
<path fill="none" stroke="midnightblue" d="M170,-224.08C170,-217.01 170,-206.86 170,-197.99"/>
<polygon fill="midnightblue" stroke="midnightblue" points="173.5,-197.75 170,-187.75 166.5,-197.75 173.5,-197.75"/>
</g>
<!-- Node16&#45;&gt;Node5 -->
<g id="edge33" class="edge">
<title>Node16&#45;&gt;Node5</title>
<path fill="none" stroke="midnightblue" d="M691.23,-168.44C713.38,-159.52 748.32,-145.44 773.44,-135.32"/>
<polygon fill="midnightblue" stroke="midnightblue" points="774.9,-138.5 782.87,-131.52 772.28,-132.01 774.9,-138.5"/>
</g>
<!-- Node16&#45;&gt;Node6 -->
<g id="edge34" class="edge">
<title>Node16&#45;&gt;Node6</title>
<path fill="none" stroke="midnightblue" d="M656.26,-168.29C635.56,-155.31 594.96,-130.47 559,-112 535.81,-100.09 508.81,-88.16 488.56,-79.57"/>
<polygon fill="midnightblue" stroke="midnightblue" points="489.78,-76.29 479.21,-75.64 487.07,-82.74 489.78,-76.29"/>
</g>
<!-- Node17&#45;&gt;Node4 -->
<g id="edge36" class="edge">
<title>Node17&#45;&gt;Node4</title>
<path fill="none" stroke="midnightblue" d="M1274.53,-280.49C1265.26,-250.4 1229.41,-148.84 1158,-112 1069.04,-66.11 808.07,-90.28 709,-76 708.9,-75.99 708.79,-75.97 708.69,-75.95"/>
<polygon fill="midnightblue" stroke="midnightblue" points="709.23,-72.5 698.79,-74.31 708.08,-79.4 709.23,-72.5"/>
</g>
<!-- Node18&#45;&gt;Node4 -->
<g id="edge50" class="edge">
<title>Node18&#45;&gt;Node4</title>
<path fill="none" stroke="midnightblue" d="M950.76,-224.39C970.31,-212.53 999.62,-190.08 987,-168 922.44,-55 836.54,-101.89 709,-76 708.9,-75.98 708.79,-75.96 708.69,-75.94"/>
<polygon fill="midnightblue" stroke="midnightblue" points="709.36,-72.5 698.86,-73.92 707.95,-79.36 709.36,-72.5"/>
</g>
<!-- Node18&#45;&gt;Node5 -->
<g id="edge43" class="edge">
<title>Node18&#45;&gt;Node5</title>
<path fill="none" stroke="midnightblue" d="M934.63,-224.27C933.59,-210.59 929.68,-184.01 915,-168 900.15,-151.8 878.63,-141.3 858.49,-134.57"/>
<polygon fill="midnightblue" stroke="midnightblue" points="859.34,-131.17 848.75,-131.55 857.27,-137.85 859.34,-131.17"/>
</g>
<!-- Node18&#45;&gt;Node6 -->
<g id="edge49" class="edge">
<title>Node18&#45;&gt;Node6</title>
<path fill="none" stroke="midnightblue" d="M937.16,-224.13C939.85,-211.18 943.17,-186.6 935,-168 920.19,-134.31 907.53,-127.18 874,-112 842.19,-97.59 623.44,-79.44 516.55,-71.3"/>
<polygon fill="midnightblue" stroke="midnightblue" points="516.8,-67.81 506.56,-70.54 516.27,-74.79 516.8,-67.81"/>
</g>
<!-- Node18&#45;&gt;Node11 -->
<g id="edge44" class="edge">
<title>Node18&#45;&gt;Node11</title>
<path fill="none" stroke="midnightblue" d="M910.74,-224.44C886.19,-215.68 847.24,-201.47 814,-188 771.7,-170.86 723.42,-149.27 693.83,-135.8"/>
<polygon fill="midnightblue" stroke="midnightblue" points="695.09,-132.53 684.54,-131.56 692.19,-138.89 695.09,-132.53"/>
</g>
<!-- Node19 -->
<g id="node19" class="node">
<title>Node19</title>
<g id="a_node19"><a xlink:href="ByteStream_8h.html" target="_top" xlink:title=" ">
<polygon fill="none" stroke="black" points="1039.5,-168.5 1039.5,-187.5 1162.5,-187.5 1162.5,-168.5 1039.5,-168.5"/>
<text text-anchor="middle" x="1101" y="-175.5" font-family="Helvetica,sans-Serif" font-size="10.00">../Serial/ByteStream.h</text>
</a>
</g>
</g>
<!-- Node18&#45;&gt;Node19 -->
<g id="edge38" class="edge">
<title>Node18&#45;&gt;Node19</title>
<path fill="none" stroke="midnightblue" d="M961.3,-224.44C989.35,-215.32 1033.94,-200.81 1065.18,-190.65"/>
<polygon fill="midnightblue" stroke="midnightblue" points="1066.39,-193.94 1074.82,-187.52 1064.23,-187.28 1066.39,-193.94"/>
</g>
<!-- Node18&#45;&gt;Node21 -->
<g id="edge45" class="edge">
<title>Node18&#45;&gt;Node21</title>
<path fill="none" stroke="midnightblue" d="M923.75,-224.32C913.2,-216.18 897.2,-203.84 884.56,-194.09"/>
<polygon fill="midnightblue" stroke="midnightblue" points="886.51,-191.17 876.45,-187.83 882.23,-196.71 886.51,-191.17"/>
</g>
<!-- Node19&#45;&gt;Node4 -->
<g id="edge39" class="edge">
<title>Node19&#45;&gt;Node4</title>
<path fill="none" stroke="midnightblue" d="M1094.1,-168.43C1081.89,-153.97 1054.93,-125.03 1025,-112 895.39,-55.59 848.55,-98.5 709,-76 708.9,-75.98 708.79,-75.97 708.69,-75.95"/>
<polygon fill="midnightblue" stroke="midnightblue" points="709.27,-72.5 698.81,-74.19 708.04,-79.39 709.27,-72.5"/>
</g>
<!-- Node19&#45;&gt;Node20 -->
<g id="edge40" class="edge">
<title>Node19&#45;&gt;Node20</title>
<path fill="none" stroke="midnightblue" d="M1102.98,-168.08C1104.57,-160.93 1106.86,-150.64 1108.85,-141.69"/>
<polygon fill="midnightblue" stroke="midnightblue" points="1112.3,-142.27 1111.06,-131.75 1105.47,-140.75 1112.3,-142.27"/>
</g>
<!-- Node20&#45;&gt;Node6 -->
<g id="edge42" class="edge">
<title>Node20&#45;&gt;Node6</title>
<path fill="none" stroke="midnightblue" d="M1076.85,-118.02C969.16,-109.14 649.76,-82.81 516.95,-71.86"/>
<polygon fill="midnightblue" stroke="midnightblue" points="517.21,-68.37 506.96,-71.04 516.63,-75.35 517.21,-68.37"/>
</g>
<!-- Node20&#45;&gt;Node9 -->
<g id="edge41" class="edge">
<title>Node20&#45;&gt;Node9</title>
<path fill="none" stroke="midnightblue" d="M1076.98,-114.35C1072.28,-113.53 1067.53,-112.73 1063,-112 962.56,-95.84 843.72,-79.79 784.12,-71.95"/>
<polygon fill="midnightblue" stroke="midnightblue" points="784.41,-68.45 774.04,-70.63 783.5,-75.4 784.41,-68.45"/>
</g>
<!-- Node21&#45;&gt;Node4 -->
<g id="edge46" class="edge">
<title>Node21&#45;&gt;Node4</title>
<path fill="none" stroke="midnightblue" d="M869.86,-168.34C876.75,-154.76 887.16,-128.31 874,-112 873.34,-111.19 769.61,-89.02 708.9,-76.11"/>
<polygon fill="midnightblue" stroke="midnightblue" points="709.34,-72.62 698.83,-73.97 707.88,-79.47 709.34,-72.62"/>
</g>
<!-- Node21&#45;&gt;Node5 -->
<g id="edge47" class="edge">
<title>Node21&#45;&gt;Node5</title>
<path fill="none" stroke="midnightblue" d="M855.2,-168.32C846.18,-160.34 832.59,-148.31 821.68,-138.65"/>
<polygon fill="midnightblue" stroke="midnightblue" points="823.79,-135.84 813.98,-131.83 819.15,-141.08 823.79,-135.84"/>
</g>
<!-- Node21&#45;&gt;Node8 -->
<g id="edge48" class="edge">
<title>Node21&#45;&gt;Node8</title>
<path fill="none" stroke="midnightblue" d="M823.26,-170.86C759.11,-161.42 635.87,-143.29 560.88,-132.25"/>
<polygon fill="midnightblue" stroke="midnightblue" points="561.03,-128.74 550.63,-130.74 560.01,-135.66 561.03,-128.74"/>
</g>
</g>
</svg>
        <g id="navigator" transform="translate(0 0)" fill="#404254">
                <rect fill="#f2f5e9" fill-opacity="0.5" stroke="#606060" stroke-width=".5" x="0" y="0" width="60" height="60"/>
                <use id="zoomplus" xlink:href="#zoomPlus" x="17" y="9" onmousedown="handleZoom(evt,'in')"/>
                <use id="zoomminus" xlink:href="#zoomMin" x="42" y="9" onmousedown="handleZoom(evt,'out')"/>
                <use id="reset" xlink:href="#resetDef" x="30" y="36" onmousedown="handleReset()"/>
                <g id="arrowUp" xlink:href="#dirArrow" transform="translate(30 24)" onmousedown="handlePan(0,-1)">
                  <use xlink:href="#rim" fill="#404040">
                        <set attributeName="fill" to="#808080" begin="arrowUp.mouseover" end="arrowUp.mouseout"/>
                  </use>
                  <path fill="none" stroke="white" stroke-width="1.5" d="M0,-3.0v7 M-2.5,-0.5L0,-3.0L2.5,-0.5"/>
                </g>
                <g id="arrowRight" xlink:href="#dirArrow" transform="rotate(90) translate(36 -43)" onmousedown="handlePan(1,0)">
                  <use xlink:href="#rim" fill="#404040">
                        <set attributeName="fill" to="#808080" begin="arrowRight.mouseover" end="arrowRight.mouseout"/>
                  </use>
                  <path fill="none" stroke="white" stroke-width="1.5" d="M0,-3.0v7 M-2.5,-0.5L0,-3.0L2.5,-0.5"/>
                </g>
                <g id="arrowDown" xlink:href="#dirArrow" transform="rotate(180) translate(-30 -48)" onmousedown="handlePan(0,1)">
                  <use xlink:href="#rim" fill="#404040">
                        <set attributeName="fill" to="#808080" begin="arrowDown.mouseover" end="arrowDown.mouseout"/>
                  </use>
                  <path fill="none" stroke="white" stroke-width="1.5" d="M0,-3.0v7 M-2.5,-0.5L0,-3.0L2.5,-0.5"/>
                </g>
                <g id="arrowLeft" xlink:href="#dirArrow" transform="rotate(270) translate(-36 17)" onmousedown="handlePan(-1,0)">
                  <use xlink:href="#rim" fill="#404040">
                        <set attributeName="fill" to="#808080" begin="arrowLeft.mouseover" end="arrowLeft.mouseout"/>
                  </use>
                  <path fill="none" stroke="white" stroke-width="1.5" d="M0,-3.0v7 M-2.5,-0.5L0,-3.0L2.5,-0.5"/>
                </g>
        </g>
        <svg viewBox="0 0 15 15" width="100%" height="30px" preserveAspectRatio="xMaxYMin meet">
         <g id="arrow_out" transform="scale(0.3 0.3)">
          <a xlink:href="FactoryReset_8cpp__incl_org.svg" target="_base">
           <rect id="button" ry="5" rx="5" y="6" x="6" height="38" width="38"
                fill="#f2f5e9" fill-opacity="0.5" stroke="#606060" stroke-width="1.0"/>
           <path id="arrow"
             d="M 11.500037,31.436501 C 11.940474,20.09759 22.043105,11.32322 32.158766,21.979434 L 37.068811,17.246167 C 37.068811,17.246167 37.088388,32 37.088388,32 L 22.160133,31.978069 C 22.160133,31.978069 26.997745,27.140456 26.997745,27.140456 C 18.528582,18.264221 13.291696,25.230495 11.500037,31.436501 z"
             style="fill:#404040;"/>
          </a>
         </g>
        </svg>
</svg>
