<?xml version="1.0" encoding="UTF-8" standalone="no"?>
<!DOCTYPE svg PUBLIC "-//W3C//DTD SVG 1.1//EN"
 "http://www.w3.org/Graphics/SVG/1.1/DTD/svg11.dtd">
<!-- Generated by graphviz version 2.43.0 (0)
 -->
<!-- Title: VortexEngine/src/Menus/MenuList/FactoryReset.cpp Pages: 1 -->
<!--zoomable 375 -->
<svg id="main" version="1.1" xmlns="http://www.w3.org/2000/svg" xmlns:xlink="http://www.w3.org/1999/xlink" xml:space="preserve" onload="init(evt)">
<style type="text/css"><![CDATA[
.edge:hover path { stroke: red; }
.edge:hover polygon { stroke: red; fill: red; }
]]></style>
<script type="text/javascript"><![CDATA[
var edges = document.getElementsByTagName('g');
if (edges && edges.length) {
  for (var i=0;i<edges.length;i++) {
    if (edges[i].id.substr(0,4)=='edge') {
      edges[i].setAttribute('class','edge');
    }
  }
}
]]></script>
        <defs>
                <circle id="rim" cx="0" cy="0" r="7"/>
                <circle id="rim2" cx="0" cy="0" r="3.5"/>
                <g id="zoomPlus">
                        <use xlink:href="#rim" fill="#404040">
                                <set attributeName="fill" to="#808080" begin="zoomplus.mouseover" end="zoomplus.mouseout"/>
                        </use>
                        <path d="M-4,0h8M0,-4v8" fill="none" stroke="white" stroke-width="1.5" pointer-events="none"/>
                </g>
                <g id="zoomMin">
                        <use xlink:href="#rim" fill="#404040">
                                <set attributeName="fill" to="#808080" begin="zoomminus.mouseover" end="zoomminus.mouseout"/>
                        </use>
                        <path d="M-4,0h8" fill="none" stroke="white" stroke-width="1.5" pointer-events="none"/>
                </g>
                <g id="dirArrow">
                        <path fill="none" stroke="white" stroke-width="1.5" d="M0,-3.0v7 M-2.5,-0.5L0,-3.0L2.5,-0.5"/>
                </g>
               <g id="resetDef">
                       <use xlink:href="#rim2" fill="#404040">
                               <set attributeName="fill" to="#808080" begin="reset.mouseover" end="reset.mouseout"/>
                       </use>
               </g>
        </defs>

<script type="text/javascript">
var viewWidth = 1415;
var viewHeight = 375;
var sectionId = 'dynsection-0';
</script>
<script xlink:href="svgpan.js"/>
<svg id="graph" class="graph">
<g id="viewport">
<title>VortexEngine/src/Menus/MenuList/FactoryReset.cpp</title>
<!-- Node1 -->
<g id="node1" class="node">
<title>Node1</title>
<g id="a_node1"><a xlink:title=" ">
<polygon fill="#bfbfbf" stroke="black" points="535,-336.5 535,-366.5 685,-366.5 685,-336.5 535,-336.5"/>
<text text-anchor="start" x="543" y="-354.5" font-family="Helvetica,sans-Serif" font-size="10.00">VortexEngine/src/Menus</text>
<text text-anchor="middle" x="610" y="-343.5" font-family="Helvetica,sans-Serif" font-size="10.00">/MenuList/FactoryReset.cpp</text>
</a>
</g>
</g>
<!-- Node2 -->
<g id="node2" class="node">
<title>Node2</title>
<g id="a_node2"><a xlink:href="FactoryReset_8h.html" target="_top" xlink:title=" ">
<polygon fill="none" stroke="black" points="1066.5,-280.5 1066.5,-299.5 1155.5,-299.5 1155.5,-280.5 1066.5,-280.5"/>
<text text-anchor="middle" x="1111" y="-287.5" font-family="Helvetica,sans-Serif" font-size="10.00">FactoryReset.h</text>
</a>
</g>
</g>
<!-- Node1&#45;&gt;Node2 -->
<g id="edge1" class="edge">
<title>Node1&#45;&gt;Node2</title>
<path fill="none" stroke="midnightblue" d="M685,-341.59C786.86,-329.5 966.5,-308.16 1056.46,-297.48"/>
<polygon fill="midnightblue" stroke="midnightblue" points="1056.93,-300.95 1066.45,-296.29 1056.1,-294 1056.93,-300.95"/>
</g>
<!-- Node6 -->
<g id="node6" class="node">
<title>Node6</title>
<g id="a_node6"><a xlink:href="VortexConfig_8h.html" target="_top" xlink:title=" ">
<polygon fill="none" stroke="black" points="363.5,-56.5 363.5,-75.5 460.5,-75.5 460.5,-56.5 363.5,-56.5"/>
<text text-anchor="middle" x="412" y="-63.5" font-family="Helvetica,sans-Serif" font-size="10.00">../VortexConfig.h</text>
</a>
</g>
</g>
<!-- Node1&#45;&gt;Node6 -->
<g id="edge61" class="edge">
<title>Node1&#45;&gt;Node6</title>
<path fill="none" stroke="midnightblue" d="M534.6,-348.25C444.49,-344.15 289.71,-332.57 161,-300 86.19,-281.07 0,-312.17 0,-235 0,-235 0,-235 0,-177 0,-104.85 238.84,-78.8 352.82,-70.48"/>
<polygon fill="midnightblue" stroke="midnightblue" points="353.39,-73.94 363.12,-69.75 352.9,-66.96 353.39,-73.94"/>
</g>
<!-- Node10 -->
<g id="node10" class="node">
<title>Node10</title>
<g id="a_node10"><a xlink:href="Mode_8h.html" target="_top" xlink:title=" ">
<polygon fill="none" stroke="black" points="874.5,-168.5 874.5,-187.5 971.5,-187.5 971.5,-168.5 874.5,-168.5"/>
<text text-anchor="middle" x="923" y="-175.5" font-family="Helvetica,sans-Serif" font-size="10.00">../Modes/Mode.h</text>
</a>
</g>
</g>
<!-- Node1&#45;&gt;Node10 -->
<g id="edge58" class="edge">
<title>Node1&#45;&gt;Node10</title>
<path fill="none" stroke="midnightblue" d="M635.61,-336.47C694.81,-304.03 840.46,-224.23 898.52,-192.41"/>
<polygon fill="midnightblue" stroke="midnightblue" points="900.29,-195.43 907.38,-187.56 896.93,-189.3 900.29,-195.43"/>
</g>
<!-- Node12 -->
<g id="node12" class="node">
<title>Node12</title>
<g id="a_node12"><a xlink:href="VortexEngine_8h.html" target="_top" xlink:title=" ">
<polygon fill="none" stroke="black" points="162,-112.5 162,-131.5 270,-131.5 270,-112.5 162,-112.5"/>
<text text-anchor="middle" x="216" y="-119.5" font-family="Helvetica,sans-Serif" font-size="10.00">../../VortexEngine.h</text>
</a>
</g>
</g>
<!-- Node1&#45;&gt;Node12 -->
<g id="edge18" class="edge">
<title>Node1&#45;&gt;Node12</title>
<path fill="none" stroke="midnightblue" d="M534.94,-342.42C481.41,-335.15 408.35,-322.11 347,-300 298.35,-282.47 276.38,-285.11 245,-244 221.81,-213.62 216.82,-167.45 215.95,-141.81"/>
<polygon fill="midnightblue" stroke="midnightblue" points="219.45,-141.56 215.79,-131.61 212.45,-141.67 219.45,-141.56"/>
</g>
<!-- Node13 -->
<g id="node13" class="node">
<title>Node13</title>
<g id="a_node13"><a xlink:href="DefaultModes_8h.html" target="_top" xlink:title=" ">
<polygon fill="none" stroke="black" points="28.5,-168.5 28.5,-187.5 175.5,-187.5 175.5,-168.5 28.5,-168.5"/>
<text text-anchor="middle" x="102" y="-175.5" font-family="Helvetica,sans-Serif" font-size="10.00">../../Modes/DefaultModes.h</text>
</a>
</g>
</g>
<!-- Node1&#45;&gt;Node13 -->
<g id="edge21" class="edge">
<title>Node1&#45;&gt;Node13</title>
<path fill="none" stroke="midnightblue" d="M534.69,-348.59C429.95,-344.74 246.76,-333.32 190,-300 149.06,-275.97 121.73,-224.59 109.44,-197.15"/>
<polygon fill="midnightblue" stroke="midnightblue" points="112.5,-195.42 105.34,-187.61 106.07,-198.18 112.5,-195.42"/>
</g>
<!-- Node14 -->
<g id="node14" class="node">
<title>Node14</title>
<g id="a_node14"><a xlink:href="TimeControl_8h.html" target="_top" xlink:title=" ">
<polygon fill="none" stroke="black" points="270.5,-168.5 270.5,-187.5 401.5,-187.5 401.5,-168.5 270.5,-168.5"/>
<text text-anchor="middle" x="336" y="-175.5" font-family="Helvetica,sans-Serif" font-size="10.00">../../Time/TimeControl.h</text>
</a>
</g>
</g>
<!-- Node1&#45;&gt;Node14 -->
<g id="edge24" class="edge">
<title>Node1&#45;&gt;Node14</title>
<path fill="none" stroke="midnightblue" d="M580.45,-336.37C541.56,-317.31 471.63,-281.42 416,-244 393.2,-228.66 368.97,-208.34 353.22,-194.53"/>
<polygon fill="midnightblue" stroke="midnightblue" points="355.22,-191.62 345.42,-187.6 350.57,-196.85 355.22,-191.62"/>
</g>
<!-- Node15 -->
<g id="node15" class="node">
<title>Node15</title>
<g id="a_node15"><a xlink:href="Pattern_8h.html" target="_top" xlink:title=" ">
<polygon fill="none" stroke="black" points="620.5,-224.5 620.5,-243.5 741.5,-243.5 741.5,-224.5 620.5,-224.5"/>
<text text-anchor="middle" x="681" y="-231.5" font-family="Helvetica,sans-Serif" font-size="10.00">../../Patterns/Pattern.h</text>
</a>
</g>
</g>
<!-- Node1&#45;&gt;Node15 -->
<g id="edge28" class="edge">
<title>Node1&#45;&gt;Node15</title>
<path fill="none" stroke="midnightblue" d="M618.71,-336.34C631.73,-315.15 656.26,-275.24 670.34,-252.34"/>
<polygon fill="midnightblue" stroke="midnightblue" points="673.42,-254.02 675.67,-243.67 667.45,-250.36 673.42,-254.02"/>
</g>
<!-- Node18 -->
<g id="node18" class="node">
<title>Node18</title>
<g id="a_node18"><a xlink:href="Button_8h.html" target="_top" xlink:title=" ">
<polygon fill="none" stroke="black" points="1291,-280.5 1291,-299.5 1407,-299.5 1407,-280.5 1291,-280.5"/>
<text text-anchor="middle" x="1349" y="-287.5" font-family="Helvetica,sans-Serif" font-size="10.00">../../Buttons/Button.h</text>
</a>
</g>
</g>
<!-- Node1&#45;&gt;Node18 -->
<g id="edge36" class="edge">
<title>Node1&#45;&gt;Node18</title>
<path fill="none" stroke="midnightblue" d="M685.13,-346.01C808.73,-338.36 1062.65,-321.5 1277,-300 1278.27,-299.87 1279.55,-299.74 1280.84,-299.61"/>
<polygon fill="midnightblue" stroke="midnightblue" points="1281.31,-303.08 1290.87,-298.51 1280.55,-296.12 1281.31,-303.08"/>
</g>
<!-- Node19 -->
<g id="node19" class="node">
<title>Node19</title>
<g id="a_node19"><a xlink:href="Timings_8h.html" target="_top" xlink:title=" ">
<polygon fill="none" stroke="black" points="254,-224.5 254,-243.5 364,-243.5 364,-224.5 254,-224.5"/>
<text text-anchor="middle" x="309" y="-231.5" font-family="Helvetica,sans-Serif" font-size="10.00">../../Time/Timings.h</text>
</a>
</g>
</g>
<!-- Node1&#45;&gt;Node19 -->
<g id="edge38" class="edge">
<title>Node1&#45;&gt;Node19</title>
<path fill="none" stroke="midnightblue" d="M534.92,-344.5C487.68,-338.28 426.69,-325.65 378,-300 355.36,-288.07 334.77,-266.66 322.09,-251.68"/>
<polygon fill="midnightblue" stroke="midnightblue" points="324.62,-249.25 315.58,-243.72 319.2,-253.68 324.62,-249.25"/>
</g>
<!-- Node20 -->
<g id="node20" class="node">
<title>Node20</title>
<g id="a_node20"><a xlink:href="Modes_8h.html" target="_top" xlink:title=" ">
<polygon fill="none" stroke="black" points="882.5,-280.5 882.5,-299.5 993.5,-299.5 993.5,-280.5 882.5,-280.5"/>
<text text-anchor="middle" x="938" y="-287.5" font-family="Helvetica,sans-Serif" font-size="10.00">../../Modes/Modes.h</text>
</a>
</g>
</g>
<!-- Node1&#45;&gt;Node20 -->
<g id="edge41" class="edge">
<title>Node1&#45;&gt;Node20</title>
<path fill="none" stroke="midnightblue" d="M685.25,-336.85C744.77,-326.05 826.62,-311.2 880.85,-301.37"/>
<polygon fill="midnightblue" stroke="midnightblue" points="881.77,-304.76 890.98,-299.53 880.52,-297.87 881.77,-304.76"/>
</g>
<!-- Node22 -->
<g id="node22" class="node">
<title>Node22</title>
<g id="a_node22"><a xlink:href="Log_8h.html" target="_top" xlink:title=" ">
<polygon fill="none" stroke="black" points="474,-168.5 474,-187.5 546,-187.5 546,-168.5 474,-168.5"/>
<text text-anchor="middle" x="510" y="-175.5" font-family="Helvetica,sans-Serif" font-size="10.00">../Log/Log.h</text>
</a>
</g>
</g>
<!-- Node1&#45;&gt;Node22 -->
<g id="edge60" class="edge">
<title>Node1&#45;&gt;Node22</title>
<path fill="none" stroke="midnightblue" d="M601.82,-336.47C583.65,-305.3 539.98,-230.41 520.13,-196.37"/>
<polygon fill="midnightblue" stroke="midnightblue" points="523.05,-194.44 514.99,-187.56 517,-197.96 523.05,-194.44"/>
</g>
<!-- Node24 -->
<g id="node24" class="node">
<title>Node24</title>
<g id="a_node24"><a xlink:href="Leds_8h.html" target="_top" xlink:title=" ">
<polygon fill="none" stroke="black" points="1194.5,-168.5 1194.5,-187.5 1277.5,-187.5 1277.5,-168.5 1194.5,-168.5"/>
<text text-anchor="middle" x="1236" y="-175.5" font-family="Helvetica,sans-Serif" font-size="10.00">../Leds/Leds.h</text>
</a>
</g>
</g>
<!-- Node1&#45;&gt;Node24 -->
<g id="edge59" class="edge">
<title>Node1&#45;&gt;Node24</title>
<path fill="none" stroke="midnightblue" d="M685.18,-349.36C816.04,-346.43 1079.78,-336.09 1164,-300 1198.74,-285.11 1210.31,-277.4 1228,-244 1235.57,-229.71 1237.2,-211.25 1237.15,-197.65"/>
<polygon fill="midnightblue" stroke="midnightblue" points="1240.65,-197.45 1236.81,-187.57 1233.65,-197.68 1240.65,-197.45"/>
</g>
<!-- Node3 -->
<g id="node3" class="node">
<title>Node3</title>
<g id="a_node3"><a xlink:href="Menu_8h.html" target="_top" xlink:title=" ">
<polygon fill="none" stroke="black" points="1135,-224.5 1135,-243.5 1197,-243.5 1197,-224.5 1135,-224.5"/>
<text text-anchor="middle" x="1166" y="-231.5" font-family="Helvetica,sans-Serif" font-size="10.00">../Menu.h</text>
</a>
</g>
</g>
<!-- Node2&#45;&gt;Node3 -->
<g id="edge2" class="edge">
<title>Node2&#45;&gt;Node3</title>
<path fill="none" stroke="midnightblue" d="M1120.08,-280.08C1128.17,-272.14 1140.2,-260.34 1149.91,-250.8"/>
<polygon fill="midnightblue" stroke="midnightblue" points="1152.4,-253.25 1157.09,-243.75 1147.5,-248.26 1152.4,-253.25"/>
</g>
<!-- Node4 -->
<g id="node4" class="node">
<title>Node4</title>
<g id="a_node4"><a xlink:title=" ">
<polygon fill="none" stroke="#bfbfbf" points="977.5,-56.5 977.5,-75.5 1042.5,-75.5 1042.5,-56.5 977.5,-56.5"/>
<text text-anchor="middle" x="1010" y="-63.5" font-family="Helvetica,sans-Serif" font-size="10.00">inttypes.h</text>
</a>
</g>
</g>
<!-- Node3&#45;&gt;Node4 -->
<g id="edge3" class="edge">
<title>Node3&#45;&gt;Node4</title>
<path fill="none" stroke="midnightblue" d="M1197.03,-230.9C1225.48,-227.13 1266.1,-216.71 1286,-188 1300.03,-167.76 1282.54,-124.65 1268,-112 1236.57,-84.64 1117.88,-73.39 1053,-69.21"/>
<polygon fill="midnightblue" stroke="midnightblue" points="1052.89,-65.69 1042.69,-68.57 1052.46,-72.68 1052.89,-65.69"/>
</g>
<!-- Node5 -->
<g id="node5" class="node">
<title>Node5</title>
<g id="a_node5"><a xlink:href="ColorTypes_8h.html" target="_top" xlink:title=" ">
<polygon fill="none" stroke="black" points="1120,-112.5 1120,-131.5 1242,-131.5 1242,-112.5 1120,-112.5"/>
<text text-anchor="middle" x="1181" y="-119.5" font-family="Helvetica,sans-Serif" font-size="10.00">../Colors/ColorTypes.h</text>
</a>
</g>
</g>
<!-- Node3&#45;&gt;Node5 -->
<g id="edge4" class="edge">
<title>Node3&#45;&gt;Node5</title>
<path fill="none" stroke="midnightblue" d="M1167.18,-224.37C1169.6,-206.62 1175.18,-165.67 1178.46,-141.6"/>
<polygon fill="midnightblue" stroke="midnightblue" points="1181.95,-141.97 1179.83,-131.59 1175.01,-141.03 1181.95,-141.97"/>
</g>
<!-- Node8 -->
<g id="node8" class="node">
<title>Node8</title>
<g id="a_node8"><a xlink:href="LedTypes_8h.html" target="_top" xlink:title=" ">
<polygon fill="none" stroke="black" points="920.5,-112.5 920.5,-131.5 1025.5,-131.5 1025.5,-112.5 920.5,-112.5"/>
<text text-anchor="middle" x="973" y="-119.5" font-family="Helvetica,sans-Serif" font-size="10.00">../Leds/LedTypes.h</text>
</a>
</g>
</g>
<!-- Node3&#45;&gt;Node8 -->
<g id="edge9" class="edge">
<title>Node3&#45;&gt;Node8</title>
<path fill="none" stroke="midnightblue" d="M1150.86,-224.37C1117.45,-205.33 1037.24,-159.62 996.95,-136.65"/>
<polygon fill="midnightblue" stroke="midnightblue" points="998.5,-133.5 988.07,-131.59 995.03,-139.58 998.5,-133.5"/>
</g>
<!-- Node3&#45;&gt;Node10 -->
<g id="edge13" class="edge">
<title>Node3&#45;&gt;Node10</title>
<path fill="none" stroke="midnightblue" d="M1134.73,-226.05C1093.32,-216.85 1019.89,-200.53 971.32,-189.74"/>
<polygon fill="midnightblue" stroke="midnightblue" points="971.87,-186.28 961.35,-187.52 970.35,-193.11 971.87,-186.28"/>
</g>
<!-- Node5&#45;&gt;Node4 -->
<g id="edge5" class="edge">
<title>Node5&#45;&gt;Node4</title>
<path fill="none" stroke="midnightblue" d="M1153.9,-112.44C1125.01,-103.32 1079.08,-88.81 1046.89,-78.65"/>
<polygon fill="midnightblue" stroke="midnightblue" points="1047.56,-75.19 1036.97,-75.52 1045.45,-81.87 1047.56,-75.19"/>
</g>
<!-- Node5&#45;&gt;Node6 -->
<g id="edge6" class="edge">
<title>Node5&#45;&gt;Node6</title>
<path fill="none" stroke="midnightblue" d="M1119.69,-116.69C974.94,-106.53 613.42,-81.14 471,-71.14"/>
<polygon fill="midnightblue" stroke="midnightblue" points="470.95,-67.63 460.73,-70.42 470.46,-74.61 470.95,-67.63"/>
</g>
<!-- Node7 -->
<g id="node7" class="node">
<title>Node7</title>
<g id="a_node7"><a xlink:href="ColorConstants_8h.html" target="_top" xlink:title=" ">
<polygon fill="none" stroke="black" points="656,-0.5 656,-19.5 790,-19.5 790,-0.5 656,-0.5"/>
<text text-anchor="middle" x="723" y="-7.5" font-family="Helvetica,sans-Serif" font-size="10.00">Colors/ColorConstants.h</text>
</a>
</g>
</g>
<!-- Node5&#45;&gt;Node7 -->
<g id="edge8" class="edge">
<title>Node5&#45;&gt;Node7</title>
<path fill="none" stroke="midnightblue" d="M1167.58,-112.42C1144.67,-98.2 1096.08,-69.94 1051,-56 967.56,-30.19 867.62,-19.17 800.16,-14.47"/>
<polygon fill="midnightblue" stroke="midnightblue" points="800.24,-10.97 790.03,-13.79 799.78,-17.95 800.24,-10.97"/>
</g>
<!-- Node6&#45;&gt;Node7 -->
<g id="edge7" class="edge">
<title>Node6&#45;&gt;Node7</title>
<path fill="none" stroke="midnightblue" d="M460.59,-56.56C515.58,-47.01 605.14,-31.46 664.07,-21.23"/>
<polygon fill="midnightblue" stroke="midnightblue" points="664.72,-24.67 673.98,-19.51 663.53,-17.77 664.72,-24.67"/>
</g>
<!-- Node8&#45;&gt;Node4 -->
<g id="edge10" class="edge">
<title>Node8&#45;&gt;Node4</title>
<path fill="none" stroke="midnightblue" d="M979.11,-112.08C984.28,-104.53 991.85,-93.49 998.19,-84.23"/>
<polygon fill="midnightblue" stroke="midnightblue" points="1001.24,-85.98 1004,-75.75 995.46,-82.02 1001.24,-85.98"/>
</g>
<!-- Node8&#45;&gt;Node6 -->
<g id="edge12" class="edge">
<title>Node8&#45;&gt;Node6</title>
<path fill="none" stroke="midnightblue" d="M920.36,-113.71C915.51,-113.11 910.67,-112.53 906,-112 749.07,-94.32 563.49,-78.88 470.82,-71.54"/>
<polygon fill="midnightblue" stroke="midnightblue" points="471.05,-68.05 460.8,-70.75 470.5,-75.03 471.05,-68.05"/>
</g>
<!-- Node9 -->
<g id="node9" class="node">
<title>Node9</title>
<g id="a_node9"><a xlink:title=" ">
<polygon fill="none" stroke="#bfbfbf" points="746,-56.5 746,-75.5 802,-75.5 802,-56.5 746,-56.5"/>
<text text-anchor="middle" x="774" y="-63.5" font-family="Helvetica,sans-Serif" font-size="10.00">stdarg.h</text>
</a>
</g>
</g>
<!-- Node8&#45;&gt;Node9 -->
<g id="edge11" class="edge">
<title>Node8&#45;&gt;Node9</title>
<path fill="none" stroke="midnightblue" d="M941.47,-112.44C906.41,-102.93 849.78,-87.56 812.22,-77.37"/>
<polygon fill="midnightblue" stroke="midnightblue" points="812.73,-73.88 802.17,-74.64 810.9,-80.64 812.73,-73.88"/>
</g>
<!-- Node10&#45;&gt;Node6 -->
<g id="edge17" class="edge">
<title>Node10&#45;&gt;Node6</title>
<path fill="none" stroke="midnightblue" d="M919.12,-168.42C912.07,-153.94 895.65,-124.96 872,-112 804.35,-74.91 578.78,-68.15 470.71,-67.08"/>
<polygon fill="midnightblue" stroke="midnightblue" points="470.66,-63.58 460.63,-67 470.6,-70.58 470.66,-63.58"/>
</g>
<!-- Node10&#45;&gt;Node8 -->
<g id="edge14" class="edge">
<title>Node10&#45;&gt;Node8</title>
<path fill="none" stroke="midnightblue" d="M931.26,-168.08C938.46,-160.3 949.11,-148.8 957.85,-139.37"/>
<polygon fill="midnightblue" stroke="midnightblue" points="960.67,-141.47 964.9,-131.75 955.53,-136.71 960.67,-141.47"/>
</g>
<!-- Node11 -->
<g id="node11" class="node">
<title>Node11</title>
<g id="a_node11"><a xlink:href="Patterns_8h.html" target="_top" xlink:title=" ">
<polygon fill="none" stroke="black" points="746.5,-112.5 746.5,-131.5 863.5,-131.5 863.5,-112.5 746.5,-112.5"/>
<text text-anchor="middle" x="805" y="-119.5" font-family="Helvetica,sans-Serif" font-size="10.00">../Patterns/Patterns.h</text>
</a>
</g>
</g>
<!-- Node10&#45;&gt;Node11 -->
<g id="edge15" class="edge">
<title>Node10&#45;&gt;Node11</title>
<path fill="none" stroke="midnightblue" d="M904.3,-168.44C885.06,-159.64 854.85,-145.81 832.8,-135.72"/>
<polygon fill="midnightblue" stroke="midnightblue" points="834.16,-132.5 823.61,-131.52 831.25,-138.86 834.16,-132.5"/>
</g>
<!-- Node11&#45;&gt;Node4 -->
<g id="edge16" class="edge">
<title>Node11&#45;&gt;Node4</title>
<path fill="none" stroke="midnightblue" d="M837.48,-112.44C872.72,-103.16 929.1,-88.31 967.76,-78.13"/>
<polygon fill="midnightblue" stroke="midnightblue" points="968.89,-81.45 977.67,-75.52 967.11,-74.68 968.89,-81.45"/>
</g>
<!-- Node12&#45;&gt;Node4 -->
<g id="edge19" class="edge">
<title>Node12&#45;&gt;Node4</title>
<path fill="none" stroke="midnightblue" d="M270.18,-116.2C286.8,-114.78 305.15,-113.27 322,-112 566.03,-93.66 859.08,-75.91 967.22,-69.51"/>
<polygon fill="midnightblue" stroke="midnightblue" points="967.62,-72.99 977.4,-68.91 967.21,-66 967.62,-72.99"/>
</g>
<!-- Node12&#45;&gt;Node6 -->
<g id="edge20" class="edge">
<title>Node12&#45;&gt;Node6</title>
<path fill="none" stroke="midnightblue" d="M247.06,-112.44C280.6,-103.2 334.2,-88.44 371.14,-78.26"/>
<polygon fill="midnightblue" stroke="midnightblue" points="372.38,-81.55 381.09,-75.52 370.52,-74.8 372.38,-81.55"/>
</g>
<!-- Node13&#45;&gt;Node6 -->
<g id="edge23" class="edge">
<title>Node13&#45;&gt;Node6</title>
<path fill="none" stroke="midnightblue" d="M101.65,-168.32C101.6,-154.23 103.72,-126.47 120,-112 153.59,-82.13 278.04,-72.07 353.2,-68.69"/>
<polygon fill="midnightblue" stroke="midnightblue" points="353.63,-72.18 363.47,-68.26 353.33,-65.18 353.63,-72.18"/>
</g>
<!-- Node13&#45;&gt;Node11 -->
<g id="edge22" class="edge">
<title>Node13&#45;&gt;Node11</title>
<path fill="none" stroke="midnightblue" d="M175.54,-172.35C314.76,-163.47 613.1,-143.97 736.44,-131.98"/>
<polygon fill="midnightblue" stroke="midnightblue" points="736.82,-135.46 746.42,-130.98 736.12,-128.49 736.82,-135.46"/>
</g>
<!-- Node14&#45;&gt;Node4 -->
<g id="edge25" class="edge">
<title>Node14&#45;&gt;Node4</title>
<path fill="none" stroke="midnightblue" d="M345.05,-168.32C360.94,-153.69 395.57,-124.49 431,-112 481.13,-94.34 841.47,-75.24 967.01,-69.06"/>
<polygon fill="midnightblue" stroke="midnightblue" points="967.56,-72.53 977.37,-68.55 967.21,-65.54 967.56,-72.53"/>
</g>
<!-- Node14&#45;&gt;Node6 -->
<g id="edge26" class="edge">
<title>Node14&#45;&gt;Node6</title>
<path fill="none" stroke="midnightblue" d="M330.4,-168.33C322.69,-155.19 310.95,-129.87 322,-112 331.67,-96.35 348.62,-85.96 365.22,-79.15"/>
<polygon fill="midnightblue" stroke="midnightblue" points="366.75,-82.32 374.9,-75.54 364.31,-75.76 366.75,-82.32"/>
</g>
<!-- Node14&#45;&gt;Node8 -->
<g id="edge27" class="edge">
<title>Node14&#45;&gt;Node8</title>
<path fill="none" stroke="midnightblue" d="M401.61,-171.6C502.65,-163.26 702.44,-146.67 872,-132 884.39,-130.93 897.62,-129.76 910.3,-128.64"/>
<polygon fill="midnightblue" stroke="midnightblue" points="910.67,-132.12 920.32,-127.75 910.05,-125.15 910.67,-132.12"/>
</g>
<!-- Node15&#45;&gt;Node8 -->
<g id="edge29" class="edge">
<title>Node15&#45;&gt;Node8</title>
<path fill="none" stroke="midnightblue" d="M703.91,-224.37C755.51,-204.93 880.96,-157.67 940.54,-135.23"/>
<polygon fill="midnightblue" stroke="midnightblue" points="942.07,-138.39 950.19,-131.59 939.6,-131.84 942.07,-138.39"/>
</g>
<!-- Node15&#45;&gt;Node11 -->
<g id="edge33" class="edge">
<title>Node15&#45;&gt;Node11</title>
<path fill="none" stroke="midnightblue" d="M690.73,-224.37C711.65,-205.81 761.13,-161.91 787.6,-138.44"/>
<polygon fill="midnightblue" stroke="midnightblue" points="790.16,-140.85 795.32,-131.59 785.51,-135.61 790.16,-140.85"/>
</g>
<!-- Node16 -->
<g id="node16" class="node">
<title>Node16</title>
<g id="a_node16"><a xlink:href="Colorset_8h.html" target="_top" xlink:title=" ">
<polygon fill="none" stroke="black" points="564.5,-168.5 564.5,-187.5 673.5,-187.5 673.5,-168.5 564.5,-168.5"/>
<text text-anchor="middle" x="619" y="-175.5" font-family="Helvetica,sans-Serif" font-size="10.00">../Colors/Colorset.h</text>
</a>
</g>
</g>
<!-- Node15&#45;&gt;Node16 -->
<g id="edge30" class="edge">
<title>Node15&#45;&gt;Node16</title>
<path fill="none" stroke="midnightblue" d="M671.04,-224.32C661.87,-216.34 648.06,-204.31 636.97,-194.65"/>
<polygon fill="midnightblue" stroke="midnightblue" points="638.98,-191.76 629.14,-187.83 634.38,-197.04 638.98,-191.76"/>
</g>
<!-- Node17 -->
<g id="node17" class="node">
<title>Node17</title>
<g id="a_node17"><a xlink:href="PatternArgs_8h.html" target="_top" xlink:title=" ">
<polygon fill="none" stroke="black" points="646,-112.5 646,-131.5 728,-131.5 728,-112.5 646,-112.5"/>
<text text-anchor="middle" x="687" y="-119.5" font-family="Helvetica,sans-Serif" font-size="10.00">PatternArgs.h</text>
</a>
</g>
</g>
<!-- Node15&#45;&gt;Node17 -->
<g id="edge34" class="edge">
<title>Node15&#45;&gt;Node17</title>
<path fill="none" stroke="midnightblue" d="M681.47,-224.37C682.44,-206.62 684.67,-165.67 685.99,-141.6"/>
<polygon fill="midnightblue" stroke="midnightblue" points="689.48,-141.77 686.53,-131.59 682.49,-141.39 689.48,-141.77"/>
</g>
<!-- Node16&#45;&gt;Node5 -->
<g id="edge31" class="edge">
<title>Node16&#45;&gt;Node5</title>
<path fill="none" stroke="midnightblue" d="M673.65,-171.75C775.94,-161.92 996.18,-140.76 1109.87,-129.83"/>
<polygon fill="midnightblue" stroke="midnightblue" points="1110.25,-133.31 1119.86,-128.87 1109.58,-126.35 1110.25,-133.31"/>
</g>
<!-- Node16&#45;&gt;Node6 -->
<g id="edge32" class="edge">
<title>Node16&#45;&gt;Node6</title>
<path fill="none" stroke="midnightblue" d="M613.55,-168.48C604.24,-154.61 583.95,-127.16 560,-112 533.01,-94.91 499.14,-83.98 470.61,-77.18"/>
<polygon fill="midnightblue" stroke="midnightblue" points="471.29,-73.75 460.77,-74.95 469.74,-80.58 471.29,-73.75"/>
</g>
<!-- Node17&#45;&gt;Node4 -->
<g id="edge35" class="edge">
<title>Node17&#45;&gt;Node4</title>
<path fill="none" stroke="midnightblue" d="M728.19,-113.54C731.17,-113.01 734.13,-112.49 737,-112 818.21,-98 913.18,-82.55 967,-73.89"/>
<polygon fill="midnightblue" stroke="midnightblue" points="967.88,-77.29 977.2,-72.25 966.77,-70.38 967.88,-77.29"/>
</g>
<!-- Node18&#45;&gt;Node4 -->
<g id="edge37" class="edge">
<title>Node18&#45;&gt;Node4</title>
<path fill="none" stroke="midnightblue" d="M1348.97,-280.3C1348.38,-251.27 1342.27,-157.04 1289,-112 1254.08,-82.47 1122.06,-72.08 1052.88,-68.62"/>
<polygon fill="midnightblue" stroke="midnightblue" points="1052.9,-65.12 1042.74,-68.14 1052.57,-72.11 1052.9,-65.12"/>
</g>
<!-- Node19&#45;&gt;Node6 -->
<g id="edge40" class="edge">
<title>Node19&#45;&gt;Node6</title>
<path fill="none" stroke="midnightblue" d="M291.52,-224.4C254.1,-205.59 168.34,-160.2 153,-132 148.75,-124.19 147.28,-118.8 153,-112 178.05,-82.23 284.61,-72.15 353.01,-68.74"/>
<polygon fill="midnightblue" stroke="midnightblue" points="353.39,-72.23 363.22,-68.27 353.07,-65.24 353.39,-72.23"/>
</g>
<!-- Node19&#45;&gt;Node14 -->
<g id="edge39" class="edge">
<title>Node19&#45;&gt;Node14</title>
<path fill="none" stroke="midnightblue" d="M313.46,-224.08C317.15,-216.69 322.52,-205.95 327.09,-196.81"/>
<polygon fill="midnightblue" stroke="midnightblue" points="330.28,-198.26 331.62,-187.75 324.02,-195.13 330.28,-198.26"/>
</g>
<!-- Node20&#45;&gt;Node4 -->
<g id="edge57" class="edge">
<title>Node20&#45;&gt;Node4</title>
<path fill="none" stroke="midnightblue" d="M958.01,-280.46C973.56,-272.91 994.66,-260.53 1008,-244 1041.39,-202.63 1040.51,-184.31 1050,-132 1051.59,-123.25 1053.16,-120.31 1050,-112 1045.66,-100.6 1036.97,-90.24 1028.79,-82.34"/>
<polygon fill="midnightblue" stroke="midnightblue" points="1031.04,-79.66 1021.27,-75.57 1026.36,-84.86 1031.04,-79.66"/>
</g>
<!-- Node20&#45;&gt;Node5 -->
<g id="edge50" class="edge">
<title>Node20&#45;&gt;Node5</title>
<path fill="none" stroke="midnightblue" d="M990.58,-280.46C1019.67,-273.91 1055.4,-262.7 1083,-244 1123.68,-216.44 1156,-167.01 1171.32,-140.67"/>
<polygon fill="midnightblue" stroke="midnightblue" points="1174.46,-142.22 1176.34,-131.79 1168.37,-138.77 1174.46,-142.22"/>
</g>
<!-- Node20&#45;&gt;Node6 -->
<g id="edge56" class="edge">
<title>Node20&#45;&gt;Node6</title>
<path fill="none" stroke="midnightblue" d="M882.29,-285.24C816.6,-279.92 704.52,-268.03 611,-244 543.69,-226.7 521.8,-228.05 465,-188 438.21,-169.11 429.54,-162.29 417,-132 410.97,-117.44 410.02,-99.5 410.41,-86.15"/>
<polygon fill="midnightblue" stroke="midnightblue" points="413.92,-85.99 411,-75.81 406.93,-85.59 413.92,-85.99"/>
</g>
<!-- Node20&#45;&gt;Node11 -->
<g id="edge51" class="edge">
<title>Node20&#45;&gt;Node11</title>
<path fill="none" stroke="midnightblue" d="M918.84,-280.41C903.3,-272.67 881.66,-260.06 867,-244 838.73,-213.02 819.83,-166.74 810.92,-141.34"/>
<polygon fill="midnightblue" stroke="midnightblue" points="814.13,-139.91 807.62,-131.55 807.49,-142.14 814.13,-139.91"/>
</g>
<!-- Node21 -->
<g id="node21" class="node">
<title>Node21</title>
<g id="a_node21"><a xlink:href="ByteStream_8h.html" target="_top" xlink:title=" ">
<polygon fill="none" stroke="black" points="876.5,-224.5 876.5,-243.5 999.5,-243.5 999.5,-224.5 876.5,-224.5"/>
<text text-anchor="middle" x="938" y="-231.5" font-family="Helvetica,sans-Serif" font-size="10.00">../Serial/ByteStream.h</text>
</a>
</g>
</g>
<!-- Node20&#45;&gt;Node21 -->
<g id="edge42" class="edge">
<title>Node20&#45;&gt;Node21</title>
<path fill="none" stroke="midnightblue" d="M938,-280.08C938,-273.01 938,-262.86 938,-253.99"/>
<polygon fill="midnightblue" stroke="midnightblue" points="941.5,-253.75 938,-243.75 934.5,-253.75 941.5,-253.75"/>
</g>
<!-- Node20&#45;&gt;Node24 -->
<g id="edge52" class="edge">
<title>Node20&#45;&gt;Node24</title>
<path fill="none" stroke="midnightblue" d="M993.72,-285.71C1062.26,-280.65 1173.52,-268.81 1206,-244 1220.64,-232.82 1228.38,-212.79 1232.31,-197.92"/>
<polygon fill="midnightblue" stroke="midnightblue" points="1235.81,-198.3 1234.62,-187.77 1228.99,-196.75 1235.81,-198.3"/>
</g>
<!-- Node21&#45;&gt;Node4 -->
<g id="edge43" class="edge">
<title>Node21&#45;&gt;Node4</title>
<path fill="none" stroke="midnightblue" d="M951.15,-224.35C973.26,-208.91 1017.13,-174.24 1034,-132 1040.39,-116 1032.12,-97.56 1023.59,-84.41"/>
<polygon fill="midnightblue" stroke="midnightblue" points="1026.18,-82.02 1017.54,-75.89 1020.47,-86.07 1026.18,-82.02"/>
</g>
<!-- Node21&#45;&gt;Node22 -->
<g id="edge44" class="edge">
<title>Node21&#45;&gt;Node22</title>
<path fill="none" stroke="midnightblue" d="M876.43,-227.31C802.66,-220.14 675.12,-206.66 556.3,-188.1"/>
<polygon fill="midnightblue" stroke="midnightblue" points="556.73,-184.62 546.3,-186.52 555.64,-191.54 556.73,-184.62"/>
</g>
<!-- Node22&#45;&gt;Node6 -->
<g id="edge46" class="edge">
<title>Node22&#45;&gt;Node6</title>
<path fill="none" stroke="midnightblue" d="M484.85,-168.49C467.36,-161.34 444.8,-149.46 431,-132 420.42,-118.61 415.73,-99.5 413.65,-85.46"/>
<polygon fill="midnightblue" stroke="midnightblue" points="417.12,-85.03 412.48,-75.5 410.17,-85.84 417.12,-85.03"/>
</g>
<!-- Node22&#45;&gt;Node9 -->
<g id="edge45" class="edge">
<title>Node22&#45;&gt;Node9</title>
<path fill="none" stroke="midnightblue" d="M524.89,-168.42C548.25,-155.17 595.17,-129.45 637,-112 669.82,-98.31 708.4,-85.96 736.24,-77.67"/>
<polygon fill="midnightblue" stroke="midnightblue" points="737.38,-80.99 745.99,-74.81 735.4,-74.27 737.38,-80.99"/>
</g>
<!-- Node23 -->
<g id="node23" class="node">
<title>Node23</title>
<g id="a_node23"><a xlink:href="ErrorBlinker_8h.html" target="_top" xlink:title=" ">
<polygon fill="none" stroke="black" points="440.5,-112.5 440.5,-131.5 551.5,-131.5 551.5,-112.5 440.5,-112.5"/>
<text text-anchor="middle" x="496" y="-119.5" font-family="Helvetica,sans-Serif" font-size="10.00">../Log/ErrorBlinker.h</text>
</a>
</g>
</g>
<!-- Node22&#45;&gt;Node23 -->
<g id="edge47" class="edge">
<title>Node22&#45;&gt;Node23</title>
<path fill="none" stroke="midnightblue" d="M507.69,-168.08C505.83,-160.93 503.16,-150.64 500.85,-141.69"/>
<polygon fill="midnightblue" stroke="midnightblue" points="504.17,-140.55 498.27,-131.75 497.39,-142.31 504.17,-140.55"/>
</g>
<!-- Node23&#45;&gt;Node4 -->
<g id="edge48" class="edge">
<title>Node23&#45;&gt;Node4</title>
<path fill="none" stroke="midnightblue" d="M551.99,-115.12C655.46,-104.25 874.5,-81.24 967.17,-71.5"/>
<polygon fill="midnightblue" stroke="midnightblue" points="967.72,-74.96 977.3,-70.44 966.99,-68 967.72,-74.96"/>
</g>
<!-- Node23&#45;&gt;Node6 -->
<g id="edge49" class="edge">
<title>Node23&#45;&gt;Node6</title>
<path fill="none" stroke="midnightblue" d="M482.5,-112.32C469.4,-103.9 449.29,-90.97 433.89,-81.07"/>
<polygon fill="midnightblue" stroke="midnightblue" points="435.77,-78.12 425.46,-75.65 431.98,-84.01 435.77,-78.12"/>
</g>
<!-- Node24&#45;&gt;Node4 -->
<g id="edge53" class="edge">
<title>Node24&#45;&gt;Node4</title>
<path fill="none" stroke="midnightblue" d="M1242.12,-168.36C1250.91,-154.8 1264.62,-128.39 1251,-112 1226.32,-82.29 1115.5,-72.09 1053.08,-68.67"/>
<polygon fill="midnightblue" stroke="midnightblue" points="1052.93,-65.15 1042.76,-68.14 1052.57,-72.14 1052.93,-65.15"/>
</g>
<!-- Node24&#45;&gt;Node5 -->
<g id="edge54" class="edge">
<title>Node24&#45;&gt;Node5</title>
<path fill="none" stroke="midnightblue" d="M1226.92,-168.08C1218.83,-160.14 1206.8,-148.34 1197.09,-138.8"/>
<polygon fill="midnightblue" stroke="midnightblue" points="1199.5,-136.26 1189.91,-131.75 1194.6,-141.25 1199.5,-136.26"/>
</g>
<!-- Node24&#45;&gt;Node8 -->
<g id="edge55" class="edge">
<title>Node24&#45;&gt;Node8</title>
<path fill="none" stroke="midnightblue" d="M1194.33,-168.44C1148.25,-158.98 1074,-143.74 1024.37,-133.55"/>
<polygon fill="midnightblue" stroke="midnightblue" points="1024.98,-130.1 1014.48,-131.52 1023.57,-136.96 1024.98,-130.1"/>
</g>
</g>
</svg>
        <g id="navigator" transform="translate(0 0)" fill="#404254">
                <rect fill="#f2f5e9" fill-opacity="0.5" stroke="#606060" stroke-width=".5" x="0" y="0" width="60" height="60"/>
                <use id="zoomplus" xlink:href="#zoomPlus" x="17" y="9" onmousedown="handleZoom(evt,'in')"/>
                <use id="zoomminus" xlink:href="#zoomMin" x="42" y="9" onmousedown="handleZoom(evt,'out')"/>
                <use id="reset" xlink:href="#resetDef" x="30" y="36" onmousedown="handleReset()"/>
                <g id="arrowUp" xlink:href="#dirArrow" transform="translate(30 24)" onmousedown="handlePan(0,-1)">
                  <use xlink:href="#rim" fill="#404040">
                        <set attributeName="fill" to="#808080" begin="arrowUp.mouseover" end="arrowUp.mouseout"/>
                  </use>
                  <path fill="none" stroke="white" stroke-width="1.5" d="M0,-3.0v7 M-2.5,-0.5L0,-3.0L2.5,-0.5"/>
                </g>
                <g id="arrowRight" xlink:href="#dirArrow" transform="rotate(90) translate(36 -43)" onmousedown="handlePan(1,0)">
                  <use xlink:href="#rim" fill="#404040">
                        <set attributeName="fill" to="#808080" begin="arrowRight.mouseover" end="arrowRight.mouseout"/>
                  </use>
                  <path fill="none" stroke="white" stroke-width="1.5" d="M0,-3.0v7 M-2.5,-0.5L0,-3.0L2.5,-0.5"/>
                </g>
                <g id="arrowDown" xlink:href="#dirArrow" transform="rotate(180) translate(-30 -48)" onmousedown="handlePan(0,1)">
                  <use xlink:href="#rim" fill="#404040">
                        <set attributeName="fill" to="#808080" begin="arrowDown.mouseover" end="arrowDown.mouseout"/>
                  </use>
                  <path fill="none" stroke="white" stroke-width="1.5" d="M0,-3.0v7 M-2.5,-0.5L0,-3.0L2.5,-0.5"/>
                </g>
                <g id="arrowLeft" xlink:href="#dirArrow" transform="rotate(270) translate(-36 17)" onmousedown="handlePan(-1,0)">
                  <use xlink:href="#rim" fill="#404040">
                        <set attributeName="fill" to="#808080" begin="arrowLeft.mouseover" end="arrowLeft.mouseout"/>
                  </use>
                  <path fill="none" stroke="white" stroke-width="1.5" d="M0,-3.0v7 M-2.5,-0.5L0,-3.0L2.5,-0.5"/>
                </g>
        </g>
        <svg viewBox="0 0 15 15" width="100%" height="30px" preserveAspectRatio="xMaxYMin meet">
         <g id="arrow_out" transform="scale(0.3 0.3)">
          <a xlink:href="FactoryReset_8cpp__incl_org.svg" target="_base">
           <rect id="button" ry="5" rx="5" y="6" x="6" height="38" width="38"
                fill="#f2f5e9" fill-opacity="0.5" stroke="#606060" stroke-width="1.0"/>
           <path id="arrow"
             d="M 11.500037,31.436501 C 11.940474,20.09759 22.043105,11.32322 32.158766,21.979434 L 37.068811,17.246167 C 37.068811,17.246167 37.088388,32 37.088388,32 L 22.160133,31.978069 C 22.160133,31.978069 26.997745,27.140456 26.997745,27.140456 C 18.528582,18.264221 13.291696,25.230495 11.500037,31.436501 z"
             style="fill:#404040;"/>
          </a>
         </g>
        </svg>
</svg>
