<?xml version="1.0" encoding="UTF-8" standalone="no"?>
<!DOCTYPE svg PUBLIC "-//W3C//DTD SVG 1.1//EN"
 "http://www.w3.org/Graphics/SVG/1.1/DTD/svg11.dtd">
<!-- Generated by graphviz version 2.43.0 (0)
 -->
<!-- Title: VortexEngine/src/Menus/MenuList/FactoryReset.cpp Pages: 1 -->
<svg width="1300pt" height="375pt"
 viewBox="0.00 0.00 1300.00 375.00" xmlns="http://www.w3.org/2000/svg" xmlns:xlink="http://www.w3.org/1999/xlink">
<g id="graph0" class="graph" transform="scale(1 1) rotate(0) translate(4 371)">
<title>VortexEngine/src/Menus/MenuList/FactoryReset.cpp</title>
<!-- Node1 -->
<g id="node1" class="node">
<title>Node1</title>
<g id="a_node1"><a xlink:title=" ">
<polygon fill="#bfbfbf" stroke="black" points="515,-336.5 515,-366.5 665,-366.5 665,-336.5 515,-336.5"/>
<text text-anchor="start" x="523" y="-354.5" font-family="Helvetica,sans-Serif" font-size="10.00">VortexEngine/src/Menus</text>
<text text-anchor="middle" x="590" y="-343.5" font-family="Helvetica,sans-Serif" font-size="10.00">/MenuList/FactoryReset.cpp</text>
</a>
</g>
</g>
<!-- Node2 -->
<g id="node2" class="node">
<title>Node2</title>
<g id="a_node2"><a xlink:href="FactoryReset_8h.html" target="_top" xlink:title=" ">
<polygon fill="none" stroke="black" points="637.5,-280.5 637.5,-299.5 726.5,-299.5 726.5,-280.5 637.5,-280.5"/>
<text text-anchor="middle" x="682" y="-287.5" font-family="Helvetica,sans-Serif" font-size="10.00">FactoryReset.h</text>
</a>
</g>
</g>
<!-- Node1&#45;&gt;Node2 -->
<g id="edge1" class="edge">
<title>Node1&#45;&gt;Node2</title>
<path fill="none" stroke="midnightblue" d="M611.8,-336.4C626.41,-326.95 645.57,-314.56 660.18,-305.11"/>
<polygon fill="midnightblue" stroke="midnightblue" points="662.12,-308.03 668.61,-299.66 658.32,-302.15 662.12,-308.03"/>
</g>
<!-- Node6 -->
<g id="node6" class="node">
<title>Node6</title>
<g id="a_node6"><a xlink:href="VortexConfig_8h.html" target="_top" xlink:title=" ">
<polygon fill="none" stroke="black" points="327.5,-56.5 327.5,-75.5 424.5,-75.5 424.5,-56.5 327.5,-56.5"/>
<text text-anchor="middle" x="376" y="-63.5" font-family="Helvetica,sans-Serif" font-size="10.00">../VortexConfig.h</text>
</a>
</g>
</g>
<!-- Node1&#45;&gt;Node6 -->
<g id="edge57" class="edge">
<title>Node1&#45;&gt;Node6</title>
<path fill="none" stroke="midnightblue" d="M514.98,-351.32C356.07,-351.02 0,-338.79 0,-235 0,-235 0,-235 0,-177 0,-136.14 28.47,-130.3 65,-112 108.06,-90.42 239.67,-77.2 317.2,-71.08"/>
<polygon fill="midnightblue" stroke="midnightblue" points="317.6,-74.56 327.3,-70.29 317.06,-67.58 317.6,-74.56"/>
</g>
<!-- Node10 -->
<g id="node10" class="node">
<title>Node10</title>
<g id="a_node10"><a xlink:href="Mode_8h.html" target="_top" xlink:title=" ">
<polygon fill="none" stroke="black" points="522.5,-168.5 522.5,-187.5 619.5,-187.5 619.5,-168.5 522.5,-168.5"/>
<text text-anchor="middle" x="571" y="-175.5" font-family="Helvetica,sans-Serif" font-size="10.00">../Modes/Mode.h</text>
</a>
</g>
</g>
<!-- Node1&#45;&gt;Node10 -->
<g id="edge54" class="edge">
<title>Node1&#45;&gt;Node10</title>
<path fill="none" stroke="midnightblue" d="M588.45,-336.47C585.04,-305.7 576.91,-232.33 573.07,-197.7"/>
<polygon fill="midnightblue" stroke="midnightblue" points="576.53,-197.11 571.95,-187.56 569.57,-197.88 576.53,-197.11"/>
</g>
<!-- Node12 -->
<g id="node12" class="node">
<title>Node12</title>
<g id="a_node12"><a xlink:href="VortexEngine_8h.html" target="_top" xlink:title=" ">
<polygon fill="none" stroke="black" points="88,-112.5 88,-131.5 196,-131.5 196,-112.5 88,-112.5"/>
<text text-anchor="middle" x="142" y="-119.5" font-family="Helvetica,sans-Serif" font-size="10.00">../../VortexEngine.h</text>
</a>
</g>
</g>
<!-- Node1&#45;&gt;Node12 -->
<g id="edge18" class="edge">
<title>Node1&#45;&gt;Node12</title>
<path fill="none" stroke="midnightblue" d="M514.97,-342.95C418.74,-329.21 253.2,-291.21 160,-188 148.61,-175.38 144.35,-156.17 142.79,-141.9"/>
<polygon fill="midnightblue" stroke="midnightblue" points="146.27,-141.45 142.04,-131.74 139.29,-141.97 146.27,-141.45"/>
</g>
<!-- Node13 -->
<g id="node13" class="node">
<title>Node13</title>
<g id="a_node13"><a xlink:href="DefaultModes_8h.html" target="_top" xlink:title=" ">
<polygon fill="none" stroke="black" points="357.5,-168.5 357.5,-187.5 504.5,-187.5 504.5,-168.5 357.5,-168.5"/>
<text text-anchor="middle" x="431" y="-175.5" font-family="Helvetica,sans-Serif" font-size="10.00">../../Modes/DefaultModes.h</text>
</a>
</g>
</g>
<!-- Node1&#45;&gt;Node13 -->
<g id="edge21" class="edge">
<title>Node1&#45;&gt;Node13</title>
<path fill="none" stroke="midnightblue" d="M576.99,-336.47C547.72,-304.9 476.87,-228.47 445.9,-195.07"/>
<polygon fill="midnightblue" stroke="midnightblue" points="448.3,-192.51 438.94,-187.56 443.17,-197.27 448.3,-192.51"/>
</g>
<!-- Node14 -->
<g id="node14" class="node">
<title>Node14</title>
<g id="a_node14"><a xlink:href="TimeControl_8h.html" target="_top" xlink:title=" ">
<polygon fill="none" stroke="black" points="169.5,-168.5 169.5,-187.5 300.5,-187.5 300.5,-168.5 169.5,-168.5"/>
<text text-anchor="middle" x="235" y="-175.5" font-family="Helvetica,sans-Serif" font-size="10.00">../../Time/TimeControl.h</text>
</a>
</g>
</g>
<!-- Node1&#45;&gt;Node14 -->
<g id="edge25" class="edge">
<title>Node1&#45;&gt;Node14</title>
<path fill="none" stroke="midnightblue" d="M560.95,-336.47C493.54,-303.9 327.26,-223.57 261.95,-192.02"/>
<polygon fill="midnightblue" stroke="midnightblue" points="263.25,-188.76 252.72,-187.56 260.2,-195.06 263.25,-188.76"/>
</g>
<!-- Node15 -->
<g id="node15" class="node">
<title>Node15</title>
<g id="a_node15"><a xlink:href="Timings_8h.html" target="_top" xlink:title=" ">
<polygon fill="none" stroke="black" points="28,-224.5 28,-243.5 138,-243.5 138,-224.5 28,-224.5"/>
<text text-anchor="middle" x="83" y="-231.5" font-family="Helvetica,sans-Serif" font-size="10.00">../../Time/Timings.h</text>
</a>
</g>
</g>
<!-- Node1&#45;&gt;Node15 -->
<g id="edge29" class="edge">
<title>Node1&#45;&gt;Node15</title>
<path fill="none" stroke="midnightblue" d="M514.97,-347.53C407.23,-342.32 214.73,-329.16 152,-300 128.55,-289.1 107.89,-267.08 95.43,-251.71"/>
<polygon fill="midnightblue" stroke="midnightblue" points="97.99,-249.3 89.08,-243.56 92.46,-253.6 97.99,-249.3"/>
</g>
<!-- Node16 -->
<g id="node16" class="node">
<title>Node16</title>
<g id="a_node16"><a xlink:href="Colorset_8h.html" target="_top" xlink:title=" ">
<polygon fill="none" stroke="black" points="880,-168.5 880,-187.5 998,-187.5 998,-168.5 880,-168.5"/>
<text text-anchor="middle" x="939" y="-175.5" font-family="Helvetica,sans-Serif" font-size="10.00">../../Colors/Colorset.h</text>
</a>
</g>
</g>
<!-- Node1&#45;&gt;Node16 -->
<g id="edge32" class="edge">
<title>Node1&#45;&gt;Node16</title>
<path fill="none" stroke="midnightblue" d="M637.96,-336.46C666.68,-327.41 703.58,-314.61 735,-300 804.92,-267.49 881.71,-217.79 917.9,-193.45"/>
<polygon fill="midnightblue" stroke="midnightblue" points="920.28,-196.07 926.6,-187.57 916.35,-190.27 920.28,-196.07"/>
</g>
<!-- Node17 -->
<g id="node17" class="node">
<title>Node17</title>
<g id="a_node17"><a xlink:href="Button_8h.html" target="_top" xlink:title=" ">
<polygon fill="none" stroke="black" points="1176,-280.5 1176,-299.5 1292,-299.5 1292,-280.5 1176,-280.5"/>
<text text-anchor="middle" x="1234" y="-287.5" font-family="Helvetica,sans-Serif" font-size="10.00">../../Buttons/Button.h</text>
</a>
</g>
</g>
<!-- Node1&#45;&gt;Node17 -->
<g id="edge35" class="edge">
<title>Node1&#45;&gt;Node17</title>
<path fill="none" stroke="midnightblue" d="M665.31,-344.3C773.51,-335.28 979.16,-317.66 1154,-300 1157.88,-299.61 1161.86,-299.2 1165.88,-298.77"/>
<polygon fill="midnightblue" stroke="midnightblue" points="1166.33,-302.24 1175.9,-297.69 1165.59,-295.28 1166.33,-302.24"/>
</g>
<!-- Node18 -->
<g id="node18" class="node">
<title>Node18</title>
<g id="a_node18"><a xlink:href="Modes_8h.html" target="_top" xlink:title=" ">
<polygon fill="none" stroke="black" points="918.5,-280.5 918.5,-299.5 1029.5,-299.5 1029.5,-280.5 918.5,-280.5"/>
<text text-anchor="middle" x="974" y="-287.5" font-family="Helvetica,sans-Serif" font-size="10.00">../../Modes/Modes.h</text>
</a>
</g>
</g>
<!-- Node1&#45;&gt;Node18 -->
<g id="edge37" class="edge">
<title>Node1&#45;&gt;Node18</title>
<path fill="none" stroke="midnightblue" d="M665.41,-338.82C736.36,-327.82 841.49,-311.53 908.87,-301.09"/>
<polygon fill="midnightblue" stroke="midnightblue" points="909.6,-304.52 918.94,-299.53 908.53,-297.6 909.6,-304.52"/>
</g>
<!-- Node20 -->
<g id="node20" class="node">
<title>Node20</title>
<g id="a_node20"><a xlink:href="Log_8h.html" target="_top" xlink:title=" ">
<polygon fill="none" stroke="black" points="676,-168.5 676,-187.5 748,-187.5 748,-168.5 676,-168.5"/>
<text text-anchor="middle" x="712" y="-175.5" font-family="Helvetica,sans-Serif" font-size="10.00">../Log/Log.h</text>
</a>
</g>
</g>
<!-- Node1&#45;&gt;Node20 -->
<g id="edge56" class="edge">
<title>Node1&#45;&gt;Node20</title>
<path fill="none" stroke="midnightblue" d="M592.92,-336.13C598.62,-311 613.27,-258.48 642,-224 653.05,-210.74 669.02,-200.06 682.92,-192.44"/>
<polygon fill="midnightblue" stroke="midnightblue" points="684.87,-195.37 692.13,-187.65 681.64,-189.16 684.87,-195.37"/>
</g>
<!-- Node22 -->
<g id="node22" class="node">
<title>Node22</title>
<g id="a_node22"><a xlink:href="Leds_8h.html" target="_top" xlink:title=" ">
<polygon fill="none" stroke="black" points="1092.5,-168.5 1092.5,-187.5 1175.5,-187.5 1175.5,-168.5 1092.5,-168.5"/>
<text text-anchor="middle" x="1134" y="-175.5" font-family="Helvetica,sans-Serif" font-size="10.00">../Leds/Leds.h</text>
</a>
</g>
</g>
<!-- Node1&#45;&gt;Node22 -->
<g id="edge55" class="edge">
<title>Node1&#45;&gt;Node22</title>
<path fill="none" stroke="midnightblue" d="M665.2,-347.38C774.92,-341.93 972.9,-328.42 1038,-300 1072.95,-284.74 1079.85,-274.3 1103,-244 1113.9,-229.73 1122.33,-211.02 1127.62,-197.33"/>
<polygon fill="midnightblue" stroke="midnightblue" points="1131.03,-198.21 1131.19,-187.62 1124.46,-195.8 1131.03,-198.21"/>
</g>
<!-- Node3 -->
<g id="node3" class="node">
<title>Node3</title>
<g id="a_node3"><a xlink:href="Menu_8h.html" target="_top" xlink:title=" ">
<polygon fill="none" stroke="black" points="651,-224.5 651,-243.5 713,-243.5 713,-224.5 651,-224.5"/>
<text text-anchor="middle" x="682" y="-231.5" font-family="Helvetica,sans-Serif" font-size="10.00">../Menu.h</text>
</a>
</g>
</g>
<!-- Node2&#45;&gt;Node3 -->
<g id="edge2" class="edge">
<title>Node2&#45;&gt;Node3</title>
<path fill="none" stroke="midnightblue" d="M682,-280.08C682,-273.01 682,-262.86 682,-253.99"/>
<polygon fill="midnightblue" stroke="midnightblue" points="685.5,-253.75 682,-243.75 678.5,-253.75 685.5,-253.75"/>
</g>
<!-- Node4 -->
<g id="node4" class="node">
<title>Node4</title>
<g id="a_node4"><a xlink:title=" ">
<polygon fill="none" stroke="#bfbfbf" points="885.5,-56.5 885.5,-75.5 950.5,-75.5 950.5,-56.5 885.5,-56.5"/>
<text text-anchor="middle" x="918" y="-63.5" font-family="Helvetica,sans-Serif" font-size="10.00">inttypes.h</text>
</a>
</g>
</g>
<!-- Node3&#45;&gt;Node4 -->
<g id="edge3" class="edge">
<title>Node3&#45;&gt;Node4</title>
<path fill="none" stroke="midnightblue" d="M701.73,-224.41C736.01,-208.95 807.89,-174.07 860,-132 877.57,-117.82 894.37,-98.07 905.33,-84.07"/>
<polygon fill="midnightblue" stroke="midnightblue" points="908.34,-85.89 911.63,-75.82 902.78,-81.64 908.34,-85.89"/>
</g>
<!-- Node5 -->
<g id="node5" class="node">
<title>Node5</title>
<g id="a_node5"><a xlink:href="ColorTypes_8h.html" target="_top" xlink:title=" ">
<polygon fill="none" stroke="black" points="946,-112.5 946,-131.5 1068,-131.5 1068,-112.5 946,-112.5"/>
<text text-anchor="middle" x="1007" y="-119.5" font-family="Helvetica,sans-Serif" font-size="10.00">../Colors/ColorTypes.h</text>
</a>
</g>
</g>
<!-- Node3&#45;&gt;Node5 -->
<g id="edge4" class="edge">
<title>Node3&#45;&gt;Node5</title>
<path fill="none" stroke="midnightblue" d="M706.43,-224.49C742.42,-211.99 811.82,-187.97 871,-168 905,-156.53 943.87,-143.69 971.33,-134.68"/>
<polygon fill="midnightblue" stroke="midnightblue" points="972.49,-137.98 980.9,-131.54 970.3,-131.33 972.49,-137.98"/>
</g>
<!-- Node8 -->
<g id="node8" class="node">
<title>Node8</title>
<g id="a_node8"><a xlink:href="LedTypes_8h.html" target="_top" xlink:title=" ">
<polygon fill="none" stroke="black" points="404.5,-112.5 404.5,-131.5 509.5,-131.5 509.5,-112.5 404.5,-112.5"/>
<text text-anchor="middle" x="457" y="-119.5" font-family="Helvetica,sans-Serif" font-size="10.00">../Leds/LedTypes.h</text>
</a>
</g>
</g>
<!-- Node3&#45;&gt;Node8 -->
<g id="edge9" class="edge">
<title>Node3&#45;&gt;Node8</title>
<path fill="none" stroke="midnightblue" d="M677.26,-224.37C669.09,-210.33 651.01,-182.67 628,-168 608.71,-155.7 553.91,-142.47 511.5,-133.56"/>
<polygon fill="midnightblue" stroke="midnightblue" points="512.06,-130.1 501.56,-131.5 510.64,-136.96 512.06,-130.1"/>
</g>
<!-- Node3&#45;&gt;Node10 -->
<g id="edge13" class="edge">
<title>Node3&#45;&gt;Node10</title>
<path fill="none" stroke="midnightblue" d="M664.17,-224.32C646.28,-215.62 618.52,-202.12 597.95,-192.11"/>
<polygon fill="midnightblue" stroke="midnightblue" points="599.31,-188.88 588.79,-187.65 596.25,-195.18 599.31,-188.88"/>
</g>
<!-- Node5&#45;&gt;Node4 -->
<g id="edge5" class="edge">
<title>Node5&#45;&gt;Node4</title>
<path fill="none" stroke="midnightblue" d="M992.7,-112.32C978.82,-103.9 957.51,-90.97 941.2,-81.07"/>
<polygon fill="midnightblue" stroke="midnightblue" points="942.63,-77.85 932.26,-75.65 939,-83.83 942.63,-77.85"/>
</g>
<!-- Node5&#45;&gt;Node6 -->
<g id="edge6" class="edge">
<title>Node5&#45;&gt;Node6</title>
<path fill="none" stroke="midnightblue" d="M945.92,-115.77C824.51,-105.38 554.24,-82.25 434.75,-72.03"/>
<polygon fill="midnightblue" stroke="midnightblue" points="434.96,-68.53 424.7,-71.17 434.36,-75.51 434.96,-68.53"/>
</g>
<!-- Node7 -->
<g id="node7" class="node">
<title>Node7</title>
<g id="a_node7"><a xlink:href="ColorConstants_8h.html" target="_top" xlink:title=" ">
<polygon fill="none" stroke="black" points="610,-0.5 610,-19.5 744,-19.5 744,-0.5 610,-0.5"/>
<text text-anchor="middle" x="677" y="-7.5" font-family="Helvetica,sans-Serif" font-size="10.00">Colors/ColorConstants.h</text>
</a>
</g>
</g>
<!-- Node5&#45;&gt;Node7 -->
<g id="edge8" class="edge">
<title>Node5&#45;&gt;Node7</title>
<path fill="none" stroke="midnightblue" d="M1003.2,-112.12C996.53,-97.73 981.29,-69.56 959,-56 925.49,-35.62 825.69,-23.24 754.33,-16.76"/>
<polygon fill="midnightblue" stroke="midnightblue" points="754.29,-13.24 744.02,-15.85 753.67,-20.21 754.29,-13.24"/>
</g>
<!-- Node6&#45;&gt;Node7 -->
<g id="edge7" class="edge">
<title>Node6&#45;&gt;Node7</title>
<path fill="none" stroke="midnightblue" d="M423.69,-56.44C476.86,-46.9 562.82,-31.48 619.63,-21.29"/>
<polygon fill="midnightblue" stroke="midnightblue" points="620.3,-24.73 629.53,-19.52 619.07,-17.84 620.3,-24.73"/>
</g>
<!-- Node8&#45;&gt;Node4 -->
<g id="edge10" class="edge">
<title>Node8&#45;&gt;Node4</title>
<path fill="none" stroke="midnightblue" d="M509.88,-114.81C602.17,-104 790.85,-81.89 875.38,-71.99"/>
<polygon fill="midnightblue" stroke="midnightblue" points="875.88,-75.46 885.4,-70.82 875.06,-68.51 875.88,-75.46"/>
</g>
<!-- Node8&#45;&gt;Node6 -->
<g id="edge12" class="edge">
<title>Node8&#45;&gt;Node6</title>
<path fill="none" stroke="midnightblue" d="M443.99,-112.32C431.47,-103.98 412.32,-91.21 397.53,-81.35"/>
<polygon fill="midnightblue" stroke="midnightblue" points="399.24,-78.29 388.98,-75.65 395.36,-84.11 399.24,-78.29"/>
</g>
<!-- Node9 -->
<g id="node9" class="node">
<title>Node9</title>
<g id="a_node9"><a xlink:title=" ">
<polygon fill="none" stroke="#bfbfbf" points="564,-56.5 564,-75.5 620,-75.5 620,-56.5 564,-56.5"/>
<text text-anchor="middle" x="592" y="-63.5" font-family="Helvetica,sans-Serif" font-size="10.00">stdarg.h</text>
</a>
</g>
</g>
<!-- Node8&#45;&gt;Node9 -->
<g id="edge11" class="edge">
<title>Node8&#45;&gt;Node9</title>
<path fill="none" stroke="midnightblue" d="M478.39,-112.44C500.71,-103.52 535.9,-89.44 561.21,-79.32"/>
<polygon fill="midnightblue" stroke="midnightblue" points="562.72,-82.48 570.71,-75.52 560.12,-75.98 562.72,-82.48"/>
</g>
<!-- Node10&#45;&gt;Node6 -->
<g id="edge17" class="edge">
<title>Node10&#45;&gt;Node6</title>
<path fill="none" stroke="midnightblue" d="M528.45,-168.42C479.53,-158.2 404.67,-141.34 395,-132 382.59,-120.01 378.17,-100.4 376.65,-85.85"/>
<polygon fill="midnightblue" stroke="midnightblue" points="380.12,-85.26 375.96,-75.51 373.13,-85.72 380.12,-85.26"/>
</g>
<!-- Node10&#45;&gt;Node8 -->
<g id="edge14" class="edge">
<title>Node10&#45;&gt;Node8</title>
<path fill="none" stroke="midnightblue" d="M552.94,-168.44C534.43,-159.68 505.42,-145.94 484.14,-135.86"/>
<polygon fill="midnightblue" stroke="midnightblue" points="485.51,-132.63 474.98,-131.52 482.52,-138.96 485.51,-132.63"/>
</g>
<!-- Node11 -->
<g id="node11" class="node">
<title>Node11</title>
<g id="a_node11"><a xlink:href="Patterns_8h.html" target="_top" xlink:title=" ">
<polygon fill="none" stroke="black" points="566.5,-112.5 566.5,-131.5 683.5,-131.5 683.5,-112.5 566.5,-112.5"/>
<text text-anchor="middle" x="625" y="-119.5" font-family="Helvetica,sans-Serif" font-size="10.00">../Patterns/Patterns.h</text>
</a>
</g>
</g>
<!-- Node10&#45;&gt;Node11 -->
<g id="edge15" class="edge">
<title>Node10&#45;&gt;Node11</title>
<path fill="none" stroke="midnightblue" d="M579.92,-168.08C587.78,-160.22 599.43,-148.57 608.92,-139.08"/>
<polygon fill="midnightblue" stroke="midnightblue" points="611.65,-141.3 616.25,-131.75 606.7,-136.35 611.65,-141.3"/>
</g>
<!-- Node11&#45;&gt;Node4 -->
<g id="edge16" class="edge">
<title>Node11&#45;&gt;Node4</title>
<path fill="none" stroke="midnightblue" d="M671.43,-112.44C727.52,-102.11 821.09,-84.86 875.41,-74.85"/>
<polygon fill="midnightblue" stroke="midnightblue" points="876.2,-78.26 885.4,-73.01 874.93,-71.38 876.2,-78.26"/>
</g>
<!-- Node12&#45;&gt;Node4 -->
<g id="edge19" class="edge">
<title>Node12&#45;&gt;Node4</title>
<path fill="none" stroke="midnightblue" d="M196.26,-117.22C342.6,-107.04 743.28,-79.16 875.23,-69.98"/>
<polygon fill="midnightblue" stroke="midnightblue" points="875.62,-73.46 885.35,-69.27 875.13,-66.47 875.62,-73.46"/>
</g>
<!-- Node12&#45;&gt;Node6 -->
<g id="edge20" class="edge">
<title>Node12&#45;&gt;Node6</title>
<path fill="none" stroke="midnightblue" d="M179.08,-112.44C219.73,-103.06 285.03,-87.99 329.18,-77.8"/>
<polygon fill="midnightblue" stroke="midnightblue" points="330.14,-81.18 339.1,-75.52 328.56,-74.35 330.14,-81.18"/>
</g>
<!-- Node13&#45;&gt;Node6 -->
<g id="edge23" class="edge">
<title>Node13&#45;&gt;Node6</title>
<path fill="none" stroke="midnightblue" d="M407.21,-168.5C391.28,-161.41 371.54,-149.61 362,-132 354.03,-117.28 359.58,-98.38 365.89,-84.75"/>
<polygon fill="midnightblue" stroke="midnightblue" points="369.18,-86.01 370.66,-75.52 362.96,-82.8 369.18,-86.01"/>
</g>
<!-- Node13&#45;&gt;Node8 -->
<g id="edge24" class="edge">
<title>Node13&#45;&gt;Node8</title>
<path fill="none" stroke="midnightblue" d="M435.29,-168.08C438.85,-160.69 444.02,-149.95 448.42,-140.81"/>
<polygon fill="midnightblue" stroke="midnightblue" points="451.6,-142.28 452.79,-131.75 445.29,-139.24 451.6,-142.28"/>
</g>
<!-- Node13&#45;&gt;Node11 -->
<g id="edge22" class="edge">
<title>Node13&#45;&gt;Node11</title>
<path fill="none" stroke="midnightblue" d="M461.74,-168.44C494.94,-159.2 547.99,-144.44 584.56,-134.26"/>
<polygon fill="midnightblue" stroke="midnightblue" points="585.71,-137.57 594.4,-131.52 583.83,-130.83 585.71,-137.57"/>
</g>
<!-- Node14&#45;&gt;Node4 -->
<g id="edge26" class="edge">
<title>Node14&#45;&gt;Node4</title>
<path fill="none" stroke="midnightblue" d="M251.27,-168.47C279.59,-154.05 340.19,-125.17 395,-112 569.52,-70.06 785.07,-66.02 875.22,-66.38"/>
<polygon fill="midnightblue" stroke="midnightblue" points="875.3,-69.88 885.32,-66.45 875.35,-62.88 875.3,-69.88"/>
</g>
<!-- Node14&#45;&gt;Node6 -->
<g id="edge27" class="edge">
<title>Node14&#45;&gt;Node6</title>
<path fill="none" stroke="midnightblue" d="M234.21,-168.26C233.47,-154.57 234.12,-127.99 248,-112 265.51,-91.83 292.62,-80.7 317.39,-74.56"/>
<polygon fill="midnightblue" stroke="midnightblue" points="318.47,-77.91 327.46,-72.3 316.94,-71.08 318.47,-77.91"/>
</g>
<!-- Node14&#45;&gt;Node8 -->
<g id="edge28" class="edge">
<title>Node14&#45;&gt;Node8</title>
<path fill="none" stroke="midnightblue" d="M270.18,-168.44C308.58,-159.1 370.18,-144.12 412.06,-133.93"/>
<polygon fill="midnightblue" stroke="midnightblue" points="413.1,-137.28 421.99,-131.52 411.44,-130.48 413.1,-137.28"/>
</g>
<!-- Node15&#45;&gt;Node6 -->
<g id="edge31" class="edge">
<title>Node15&#45;&gt;Node6</title>
<path fill="none" stroke="midnightblue" d="M79.24,-224.4C70.37,-202.61 50.91,-144.67 79,-112 109.1,-77 239.63,-68.89 317.27,-67.21"/>
<polygon fill="midnightblue" stroke="midnightblue" points="317.46,-70.71 327.39,-67.02 317.33,-63.71 317.46,-70.71"/>
</g>
<!-- Node15&#45;&gt;Node14 -->
<g id="edge30" class="edge">
<title>Node15&#45;&gt;Node14</title>
<path fill="none" stroke="midnightblue" d="M107.08,-224.44C132.54,-215.4 172.89,-201.06 201.46,-190.92"/>
<polygon fill="midnightblue" stroke="midnightblue" points="202.78,-194.16 211.03,-187.52 200.43,-187.57 202.78,-194.16"/>
</g>
<!-- Node16&#45;&gt;Node5 -->
<g id="edge33" class="edge">
<title>Node16&#45;&gt;Node5</title>
<path fill="none" stroke="midnightblue" d="M949.93,-168.32C960.17,-160.18 975.72,-147.84 988,-138.09"/>
<polygon fill="midnightblue" stroke="midnightblue" points="990.22,-140.79 995.88,-131.83 985.87,-135.31 990.22,-140.79"/>
</g>
<!-- Node16&#45;&gt;Node6 -->
<g id="edge34" class="edge">
<title>Node16&#45;&gt;Node6</title>
<path fill="none" stroke="midnightblue" d="M931.77,-168.37C919.01,-153.81 890.88,-124.71 860,-112 821.52,-96.16 554.99,-78.01 434.69,-70.52"/>
<polygon fill="midnightblue" stroke="midnightblue" points="434.75,-67.02 424.55,-69.89 434.32,-74 434.75,-67.02"/>
</g>
<!-- Node17&#45;&gt;Node4 -->
<g id="edge36" class="edge">
<title>Node17&#45;&gt;Node4</title>
<path fill="none" stroke="midnightblue" d="M1233.77,-280.27C1232.44,-250.31 1223.55,-151.35 1164,-112 1131.3,-90.39 1022.36,-76.88 960.98,-70.79"/>
<polygon fill="midnightblue" stroke="midnightblue" points="961.12,-67.29 950.83,-69.81 960.45,-74.26 961.12,-67.29"/>
</g>
<!-- Node18&#45;&gt;Node4 -->
<g id="edge53" class="edge">
<title>Node18&#45;&gt;Node4</title>
<path fill="none" stroke="midnightblue" d="M1029.52,-281.31C1100.62,-268.55 1211.55,-237.19 1184,-168 1150.26,-83.27 1026.84,-68.22 960.64,-66.42"/>
<polygon fill="midnightblue" stroke="midnightblue" points="960.59,-62.91 950.52,-66.23 960.46,-69.91 960.59,-62.91"/>
</g>
<!-- Node18&#45;&gt;Node5 -->
<g id="edge46" class="edge">
<title>Node18&#45;&gt;Node5</title>
<path fill="none" stroke="midnightblue" d="M998.47,-280.44C1014.57,-273.38 1034.38,-261.63 1044,-244 1062.85,-209.46 1037.21,-164.02 1020.11,-139.84"/>
<polygon fill="midnightblue" stroke="midnightblue" points="1022.84,-137.65 1014.08,-131.68 1017.21,-141.8 1022.84,-137.65"/>
</g>
<!-- Node18&#45;&gt;Node6 -->
<g id="edge52" class="edge">
<title>Node18&#45;&gt;Node6</title>
<path fill="none" stroke="midnightblue" d="M918.5,-284.19C772.13,-270.93 384.36,-231.94 348,-188 323.13,-157.95 347.39,-109.95 363.76,-84.38"/>
<polygon fill="midnightblue" stroke="midnightblue" points="366.88,-86.01 369.53,-75.75 361.06,-82.12 366.88,-86.01"/>
</g>
<!-- Node18&#45;&gt;Node11 -->
<g id="edge47" class="edge">
<title>Node18&#45;&gt;Node11</title>
<path fill="none" stroke="midnightblue" d="M960.73,-280.48C927.46,-259.37 837.4,-203.77 757,-168 726.79,-154.56 691.25,-142.65 664.66,-134.47"/>
<polygon fill="midnightblue" stroke="midnightblue" points="665.53,-131.07 654.94,-131.52 663.5,-137.77 665.53,-131.07"/>
</g>
<!-- Node19 -->
<g id="node19" class="node">
<title>Node19</title>
<g id="a_node19"><a xlink:href="ByteStream_8h.html" target="_top" xlink:title=" ">
<polygon fill="none" stroke="black" points="912.5,-224.5 912.5,-243.5 1035.5,-243.5 1035.5,-224.5 912.5,-224.5"/>
<text text-anchor="middle" x="974" y="-231.5" font-family="Helvetica,sans-Serif" font-size="10.00">../Serial/ByteStream.h</text>
</a>
</g>
</g>
<!-- Node18&#45;&gt;Node19 -->
<g id="edge38" class="edge">
<title>Node18&#45;&gt;Node19</title>
<path fill="none" stroke="midnightblue" d="M974,-280.08C974,-273.01 974,-262.86 974,-253.99"/>
<polygon fill="midnightblue" stroke="midnightblue" points="977.5,-253.75 974,-243.75 970.5,-253.75 977.5,-253.75"/>
</g>
<!-- Node18&#45;&gt;Node22 -->
<g id="edge48" class="edge">
<title>Node18&#45;&gt;Node22</title>
<path fill="none" stroke="midnightblue" d="M1002.74,-280.49C1024.7,-273.09 1055.02,-260.9 1078,-244 1096.11,-230.68 1112.33,-210.47 1122.6,-196.13"/>
<polygon fill="midnightblue" stroke="midnightblue" points="1125.63,-197.9 1128.44,-187.68 1119.87,-193.91 1125.63,-197.9"/>
</g>
<!-- Node19&#45;&gt;Node4 -->
<g id="edge39" class="edge">
<title>Node19&#45;&gt;Node4</title>
<path fill="none" stroke="midnightblue" d="M991.41,-224.48C1028.69,-205.11 1110.28,-156.01 1077,-112 1062.97,-93.45 1002.94,-80.35 960.8,-73.23"/>
<polygon fill="midnightblue" stroke="midnightblue" points="961.21,-69.75 950.77,-71.59 960.08,-76.66 961.21,-69.75"/>
</g>
<!-- Node19&#45;&gt;Node20 -->
<g id="edge40" class="edge">
<title>Node19&#45;&gt;Node20</title>
<path fill="none" stroke="midnightblue" d="M932.49,-224.44C885.07,-214.67 807.69,-198.72 758.34,-188.55"/>
<polygon fill="midnightblue" stroke="midnightblue" points="758.76,-185.06 748.26,-186.47 757.35,-191.92 758.76,-185.06"/>
</g>
<!-- Node20&#45;&gt;Node6 -->
<g id="edge42" class="edge">
<title>Node20&#45;&gt;Node6</title>
<path fill="none" stroke="midnightblue" d="M675.95,-168.62C644.11,-160.73 596.71,-147.78 557,-132 538.9,-124.81 536.01,-119.41 518,-112 485.05,-98.44 446.45,-86.45 417.81,-78.26"/>
<polygon fill="midnightblue" stroke="midnightblue" points="418.7,-74.87 408.12,-75.52 416.8,-81.61 418.7,-74.87"/>
</g>
<!-- Node20&#45;&gt;Node9 -->
<g id="edge41" class="edge">
<title>Node20&#45;&gt;Node9</title>
<path fill="none" stroke="midnightblue" d="M711.56,-168.33C710.42,-154.74 706.38,-128.29 692,-112 675.9,-93.76 650.96,-82.52 630.02,-75.84"/>
<polygon fill="midnightblue" stroke="midnightblue" points="631,-72.48 620.42,-72.99 629.01,-79.19 631,-72.48"/>
</g>
<!-- Node21 -->
<g id="node21" class="node">
<title>Node21</title>
<g id="a_node21"><a xlink:href="ErrorBlinker_8h.html" target="_top" xlink:title=" ">
<polygon fill="none" stroke="black" points="740.5,-112.5 740.5,-131.5 851.5,-131.5 851.5,-112.5 740.5,-112.5"/>
<text text-anchor="middle" x="796" y="-119.5" font-family="Helvetica,sans-Serif" font-size="10.00">../Log/ErrorBlinker.h</text>
</a>
</g>
</g>
<!-- Node20&#45;&gt;Node21 -->
<g id="edge43" class="edge">
<title>Node20&#45;&gt;Node21</title>
<path fill="none" stroke="midnightblue" d="M725.5,-168.32C738.6,-159.9 758.71,-146.97 774.11,-137.07"/>
<polygon fill="midnightblue" stroke="midnightblue" points="776.02,-140.01 782.54,-131.65 772.23,-134.12 776.02,-140.01"/>
</g>
<!-- Node21&#45;&gt;Node4 -->
<g id="edge44" class="edge">
<title>Node21&#45;&gt;Node4</title>
<path fill="none" stroke="midnightblue" d="M815.33,-112.44C835.32,-103.6 866.74,-89.69 889.56,-79.59"/>
<polygon fill="midnightblue" stroke="midnightblue" points="891.03,-82.76 898.76,-75.52 888.2,-76.36 891.03,-82.76"/>
</g>
<!-- Node21&#45;&gt;Node6 -->
<g id="edge45" class="edge">
<title>Node21&#45;&gt;Node6</title>
<path fill="none" stroke="midnightblue" d="M740.23,-113.83C660.73,-103.61 515.52,-84.94 434.53,-74.53"/>
<polygon fill="midnightblue" stroke="midnightblue" points="434.87,-71.04 424.5,-73.24 433.97,-77.98 434.87,-71.04"/>
</g>
<!-- Node22&#45;&gt;Node4 -->
<g id="edge49" class="edge">
<title>Node22&#45;&gt;Node4</title>
<path fill="none" stroke="midnightblue" d="M1133.36,-168.4C1131.84,-154.41 1126.77,-126.81 1110,-112 1088.14,-92.69 1010.33,-79.15 960.73,-72.25"/>
<polygon fill="midnightblue" stroke="midnightblue" points="960.98,-68.76 950.6,-70.88 960.04,-75.69 960.98,-68.76"/>
</g>
<!-- Node22&#45;&gt;Node5 -->
<g id="edge50" class="edge">
<title>Node22&#45;&gt;Node5</title>
<path fill="none" stroke="midnightblue" d="M1113.88,-168.44C1092.98,-159.56 1060.07,-145.56 1036.28,-135.45"/>
<polygon fill="midnightblue" stroke="midnightblue" points="1037.6,-132.21 1027.03,-131.52 1034.86,-138.65 1037.6,-132.21"/>
</g>
<!-- Node22&#45;&gt;Node8 -->
<g id="edge51" class="edge">
<title>Node22&#45;&gt;Node8</title>
<path fill="none" stroke="midnightblue" d="M1092.35,-173.92C997.38,-166.87 757.5,-148.84 557,-132 544.99,-130.99 532.17,-129.87 519.86,-128.77"/>
<polygon fill="midnightblue" stroke="midnightblue" points="519.94,-125.27 509.67,-127.86 519.31,-132.24 519.94,-125.27"/>
</g>
</g>
</svg>
