<?xml version="1.0" encoding="UTF-8" standalone="no"?>
<!DOCTYPE svg PUBLIC "-//W3C//DTD SVG 1.1//EN"
 "http://www.w3.org/Graphics/SVG/1.1/DTD/svg11.dtd">
<!-- Generated by graphviz version 2.43.0 (0)
 -->
<!-- Title: VortexEngine/src/Wireless/IRSender.cpp Pages: 1 -->
<svg width="417pt" height="375pt"
 viewBox="0.00 0.00 417.00 375.00" xmlns="http://www.w3.org/2000/svg" xmlns:xlink="http://www.w3.org/1999/xlink">
<g id="graph0" class="graph" transform="scale(1 1) rotate(0) translate(4 371)">
<title>VortexEngine/src/Wireless/IRSender.cpp</title>
<!-- Node1 -->
<g id="node1" class="node">
<title>Node1</title>
<g id="a_node1"><a xlink:title=" ">
<polygon fill="#bfbfbf" stroke="black" points="131.5,-336.5 131.5,-366.5 274.5,-366.5 274.5,-336.5 131.5,-336.5"/>
<text text-anchor="start" x="139.5" y="-354.5" font-family="Helvetica,sans-Serif" font-size="10.00">VortexEngine/src/Wireless</text>
<text text-anchor="middle" x="203" y="-343.5" font-family="Helvetica,sans-Serif" font-size="10.00">/IRSender.cpp</text>
</a>
</g>
</g>
<!-- Node2 -->
<g id="node2" class="node">
<title>Node2</title>
<g id="a_node2"><a xlink:href="IRSender_8h.html" target="_top" xlink:title=" ">
<polygon fill="none" stroke="black" points="138,-280.5 138,-299.5 206,-299.5 206,-280.5 138,-280.5"/>
<text text-anchor="middle" x="172" y="-287.5" font-family="Helvetica,sans-Serif" font-size="10.00">IRSender.h</text>
</a>
</g>
</g>
<!-- Node1&#45;&gt;Node2 -->
<g id="edge1" class="edge">
<title>Node1&#45;&gt;Node2</title>
<path fill="none" stroke="midnightblue" d="M195.65,-336.4C191.33,-328.11 185.83,-317.55 181.23,-308.71"/>
<polygon fill="midnightblue" stroke="midnightblue" points="184.24,-306.91 176.51,-299.66 178.03,-310.14 184.24,-306.91"/>
</g>
<!-- Node11 -->
<g id="node11" class="node">
<title>Node11</title>
<g id="a_node11"><a xlink:href="IRConfig_8h.html" target="_top" xlink:title=" ">
<polygon fill="none" stroke="black" points="227,-224.5 227,-243.5 293,-243.5 293,-224.5 227,-224.5"/>
<text text-anchor="middle" x="260" y="-231.5" font-family="Helvetica,sans-Serif" font-size="10.00">IRConfig.h</text>
</a>
</g>
</g>
<!-- Node1&#45;&gt;Node11 -->
<g id="edge14" class="edge">
<title>Node1&#45;&gt;Node11</title>
<path fill="none" stroke="midnightblue" d="M209.99,-336.34C220.4,-315.24 239.96,-275.6 251.29,-252.65"/>
<polygon fill="midnightblue" stroke="midnightblue" points="254.43,-254.19 255.72,-243.67 248.16,-251.09 254.43,-254.19"/>
</g>
<!-- Node3 -->
<g id="node3" class="node">
<title>Node3</title>
<g id="a_node3"><a xlink:href="ByteStream_8h.html" target="_top" xlink:title=" ">
<polygon fill="none" stroke="black" points="85.5,-224.5 85.5,-243.5 208.5,-243.5 208.5,-224.5 85.5,-224.5"/>
<text text-anchor="middle" x="147" y="-231.5" font-family="Helvetica,sans-Serif" font-size="10.00">../Serial/ByteStream.h</text>
</a>
</g>
</g>
<!-- Node2&#45;&gt;Node3 -->
<g id="edge2" class="edge">
<title>Node2&#45;&gt;Node3</title>
<path fill="none" stroke="midnightblue" d="M167.87,-280.08C164.49,-272.77 159.58,-262.18 155.38,-253.1"/>
<polygon fill="midnightblue" stroke="midnightblue" points="158.43,-251.36 151.05,-243.75 152.08,-254.3 158.43,-251.36"/>
</g>
<!-- Node10 -->
<g id="node10" class="node">
<title>Node10</title>
<g id="a_node10"><a xlink:href="BitStream_8h.html" target="_top" xlink:title=" ">
<polygon fill="none" stroke="black" points="0,-168.5 0,-187.5 114,-187.5 114,-168.5 0,-168.5"/>
<text text-anchor="middle" x="57" y="-175.5" font-family="Helvetica,sans-Serif" font-size="10.00">../Serial/BitStream.h</text>
</a>
</g>
</g>
<!-- Node2&#45;&gt;Node10 -->
<g id="edge11" class="edge">
<title>Node2&#45;&gt;Node10</title>
<path fill="none" stroke="midnightblue" d="M137.84,-280.69C117.22,-274.01 91.93,-262.59 76,-244 64.89,-231.04 60.27,-211.87 58.36,-197.71"/>
<polygon fill="midnightblue" stroke="midnightblue" points="61.82,-197.23 57.32,-187.63 54.86,-197.94 61.82,-197.23"/>
</g>
<!-- Node2&#45;&gt;Node11 -->
<g id="edge13" class="edge">
<title>Node2&#45;&gt;Node11</title>
<path fill="none" stroke="midnightblue" d="M186.14,-280.32C199.87,-271.9 220.94,-258.97 237.06,-249.07"/>
<polygon fill="midnightblue" stroke="midnightblue" points="239.2,-251.87 245.9,-243.65 235.54,-245.9 239.2,-251.87"/>
</g>
<!-- Node4 -->
<g id="node4" class="node">
<title>Node4</title>
<g id="a_node4"><a xlink:title=" ">
<polygon fill="none" stroke="#bfbfbf" points="109.5,-56.5 109.5,-75.5 174.5,-75.5 174.5,-56.5 109.5,-56.5"/>
<text text-anchor="middle" x="142" y="-63.5" font-family="Helvetica,sans-Serif" font-size="10.00">inttypes.h</text>
</a>
</g>
</g>
<!-- Node3&#45;&gt;Node4 -->
<g id="edge3" class="edge">
<title>Node3&#45;&gt;Node4</title>
<path fill="none" stroke="midnightblue" d="M146.73,-224.08C145.94,-197.95 143.63,-121.21 142.56,-85.58"/>
<polygon fill="midnightblue" stroke="midnightblue" points="146.06,-85.46 142.26,-75.57 139.06,-85.67 146.06,-85.46"/>
</g>
<!-- Node5 -->
<g id="node5" class="node">
<title>Node5</title>
<g id="a_node5"><a xlink:href="Log_8h.html" target="_top" xlink:title=" ">
<polygon fill="none" stroke="black" points="217,-168.5 217,-187.5 289,-187.5 289,-168.5 217,-168.5"/>
<text text-anchor="middle" x="253" y="-175.5" font-family="Helvetica,sans-Serif" font-size="10.00">../Log/Log.h</text>
</a>
</g>
</g>
<!-- Node3&#45;&gt;Node5 -->
<g id="edge4" class="edge">
<title>Node3&#45;&gt;Node5</title>
<path fill="none" stroke="midnightblue" d="M164.03,-224.32C181.03,-215.66 207.38,-202.24 226.99,-192.25"/>
<polygon fill="midnightblue" stroke="midnightblue" points="228.69,-195.31 236.01,-187.65 225.51,-189.08 228.69,-195.31"/>
</g>
<!-- Node6 -->
<g id="node6" class="node">
<title>Node6</title>
<g id="a_node6"><a xlink:title=" ">
<polygon fill="none" stroke="#bfbfbf" points="170,-112.5 170,-131.5 226,-131.5 226,-112.5 170,-112.5"/>
<text text-anchor="middle" x="198" y="-119.5" font-family="Helvetica,sans-Serif" font-size="10.00">stdarg.h</text>
</a>
</g>
</g>
<!-- Node5&#45;&gt;Node6 -->
<g id="edge5" class="edge">
<title>Node5&#45;&gt;Node6</title>
<path fill="none" stroke="midnightblue" d="M243.92,-168.08C235.83,-160.14 223.8,-148.34 214.09,-138.8"/>
<polygon fill="midnightblue" stroke="midnightblue" points="216.5,-136.26 206.91,-131.75 211.6,-141.25 216.5,-136.26"/>
</g>
<!-- Node7 -->
<g id="node7" class="node">
<title>Node7</title>
<g id="a_node7"><a xlink:href="VortexConfig_8h.html" target="_top" xlink:title=" ">
<polygon fill="none" stroke="black" points="293.5,-56.5 293.5,-75.5 390.5,-75.5 390.5,-56.5 293.5,-56.5"/>
<text text-anchor="middle" x="342" y="-63.5" font-family="Helvetica,sans-Serif" font-size="10.00">../VortexConfig.h</text>
</a>
</g>
</g>
<!-- Node5&#45;&gt;Node7 -->
<g id="edge6" class="edge">
<title>Node5&#45;&gt;Node7</title>
<path fill="none" stroke="midnightblue" d="M289.12,-173C315.01,-168.04 348.16,-156.91 365,-132 375.01,-117.19 365.52,-97.55 355.87,-83.75"/>
<polygon fill="midnightblue" stroke="midnightblue" points="358.55,-81.48 349.71,-75.63 352.97,-85.71 358.55,-81.48"/>
</g>
<!-- Node9 -->
<g id="node9" class="node">
<title>Node9</title>
<g id="a_node9"><a xlink:href="ErrorBlinker_8h.html" target="_top" xlink:title=" ">
<polygon fill="none" stroke="black" points="244.5,-112.5 244.5,-131.5 355.5,-131.5 355.5,-112.5 244.5,-112.5"/>
<text text-anchor="middle" x="300" y="-119.5" font-family="Helvetica,sans-Serif" font-size="10.00">../Log/ErrorBlinker.h</text>
</a>
</g>
</g>
<!-- Node5&#45;&gt;Node9 -->
<g id="edge8" class="edge">
<title>Node5&#45;&gt;Node9</title>
<path fill="none" stroke="midnightblue" d="M260.76,-168.08C267.54,-160.3 277.54,-148.8 285.76,-139.37"/>
<polygon fill="midnightblue" stroke="midnightblue" points="288.46,-141.59 292.38,-131.75 283.18,-137 288.46,-141.59"/>
</g>
<!-- Node8 -->
<g id="node8" class="node">
<title>Node8</title>
<g id="a_node8"><a xlink:href="ColorConstants_8h.html" target="_top" xlink:title=" ">
<polygon fill="none" stroke="black" points="275,-0.5 275,-19.5 409,-19.5 409,-0.5 275,-0.5"/>
<text text-anchor="middle" x="342" y="-7.5" font-family="Helvetica,sans-Serif" font-size="10.00">Colors/ColorConstants.h</text>
</a>
</g>
</g>
<!-- Node7&#45;&gt;Node8 -->
<g id="edge7" class="edge">
<title>Node7&#45;&gt;Node8</title>
<path fill="none" stroke="midnightblue" d="M342,-56.08C342,-49.01 342,-38.86 342,-29.99"/>
<polygon fill="midnightblue" stroke="midnightblue" points="345.5,-29.75 342,-19.75 338.5,-29.75 345.5,-29.75"/>
</g>
<!-- Node9&#45;&gt;Node4 -->
<g id="edge9" class="edge">
<title>Node9&#45;&gt;Node4</title>
<path fill="none" stroke="midnightblue" d="M274.96,-112.44C248.38,-103.36 206.19,-88.94 176.48,-78.78"/>
<polygon fill="midnightblue" stroke="midnightblue" points="177.51,-75.44 166.92,-75.52 175.25,-82.06 177.51,-75.44"/>
</g>
<!-- Node9&#45;&gt;Node7 -->
<g id="edge10" class="edge">
<title>Node9&#45;&gt;Node7</title>
<path fill="none" stroke="midnightblue" d="M306.94,-112.08C312.93,-104.38 321.75,-93.03 329.05,-83.65"/>
<polygon fill="midnightblue" stroke="midnightblue" points="331.82,-85.79 335.19,-75.75 326.29,-81.5 331.82,-85.79"/>
</g>
<!-- Node10&#45;&gt;Node4 -->
<g id="edge12" class="edge">
<title>Node10&#45;&gt;Node4</title>
<path fill="none" stroke="midnightblue" d="M63.67,-168.37C77.76,-150.14 110.76,-107.43 129.11,-83.68"/>
<polygon fill="midnightblue" stroke="midnightblue" points="132.02,-85.64 135.36,-75.59 126.48,-81.36 132.02,-85.64"/>
</g>
</g>
</svg>
