<?xml version="1.0" encoding="UTF-8" standalone="no"?>
<!DOCTYPE svg PUBLIC "-//W3C//DTD SVG 1.1//EN"
 "http://www.w3.org/Graphics/SVG/1.1/DTD/svg11.dtd">
<!-- Generated by graphviz version 2.43.0 (0)
 -->
<!-- Title: VortexEngine/src/Leds/Leds.cpp Pages: 1 -->
<!--zoomable 319 -->
<svg id="main" version="1.1" xmlns="http://www.w3.org/2000/svg" xmlns:xlink="http://www.w3.org/1999/xlink" xml:space="preserve" onload="init(evt)">
<style type="text/css"><![CDATA[
.edge:hover path { stroke: red; }
.edge:hover polygon { stroke: red; fill: red; }
]]></style>
<script type="text/javascript"><![CDATA[
var edges = document.getElementsByTagName('g');
if (edges && edges.length) {
  for (var i=0;i<edges.length;i++) {
    if (edges[i].id.substr(0,4)=='edge') {
      edges[i].setAttribute('class','edge');
    }
  }
}
]]></script>
        <defs>
                <circle id="rim" cx="0" cy="0" r="7"/>
                <circle id="rim2" cx="0" cy="0" r="3.5"/>
                <g id="zoomPlus">
                        <use xlink:href="#rim" fill="#404040">
                                <set attributeName="fill" to="#808080" begin="zoomplus.mouseover" end="zoomplus.mouseout"/>
                        </use>
                        <path d="M-4,0h8M0,-4v8" fill="none" stroke="white" stroke-width="1.5" pointer-events="none"/>
                </g>
                <g id="zoomMin">
                        <use xlink:href="#rim" fill="#404040">
                                <set attributeName="fill" to="#808080" begin="zoomminus.mouseover" end="zoomminus.mouseout"/>
                        </use>
                        <path d="M-4,0h8" fill="none" stroke="white" stroke-width="1.5" pointer-events="none"/>
                </g>
                <g id="dirArrow">
                        <path fill="none" stroke="white" stroke-width="1.5" d="M0,-3.0v7 M-2.5,-0.5L0,-3.0L2.5,-0.5"/>
                </g>
               <g id="resetDef">
                       <use xlink:href="#rim2" fill="#404040">
                               <set attributeName="fill" to="#808080" begin="reset.mouseover" end="reset.mouseout"/>
                       </use>
               </g>
        </defs>

<script type="text/javascript">
var viewWidth = 749;
var viewHeight = 319;
var sectionId = 'dynsection-0';
</script>
<script xlink:href="svgpan.js"/>
<svg id="graph" class="graph">
<g id="viewport">
<title>VortexEngine/src/Leds/Leds.cpp</title>
<!-- Node1 -->
<g id="node1" class="node">
<title>Node1</title>
<g id="a_node1"><a xlink:title=" ">
<polygon fill="#bfbfbf" stroke="black" points="362.58,-280.5 362.58,-310.5 486.58,-310.5 486.58,-280.5 362.58,-280.5"/>
<text text-anchor="start" x="370.58" y="-298.5" font-family="Helvetica,sans-Serif" font-size="10.00">VortexEngine/src/Leds</text>
<text text-anchor="middle" x="424.58" y="-287.5" font-family="Helvetica,sans-Serif" font-size="10.00">/Leds.cpp</text>
</a>
</g>
</g>
<!-- Node2 -->
<g id="node2" class="node">
<title>Node2</title>
<g id="a_node2"><a xlink:title=" ">
<polygon fill="none" stroke="#bfbfbf" points="139.08,-224.5 139.08,-243.5 190.08,-243.5 190.08,-224.5 139.08,-224.5"/>
<text text-anchor="middle" x="164.58" y="-231.5" font-family="Helvetica,sans-Serif" font-size="10.00">math.h</text>
</a>
</g>
</g>
<!-- Node1&#45;&gt;Node2 -->
<g id="edge1" class="edge">
<title>Node1&#45;&gt;Node2</title>
<path fill="none" stroke="midnightblue" d="M362.39,-281.08C319.44,-271.69 260.78,-258.62 199.95,-244.03"/>
<polygon fill="midnightblue" stroke="midnightblue" points="200.71,-240.62 190.17,-241.68 199.08,-247.42 200.71,-240.62"/>
</g>
<!-- Node3 -->
<g id="node3" class="node">
<title>Node3</title>
<g id="a_node3"><a xlink:href="LedStash_8h.html" target="_top" xlink:title=" ">
<polygon fill="none" stroke="black" points="389.58,-168.5 389.58,-187.5 459.58,-187.5 459.58,-168.5 389.58,-168.5"/>
<text text-anchor="middle" x="424.58" y="-175.5" font-family="Helvetica,sans-Serif" font-size="10.00">LedStash.h</text>
</a>
</g>
</g>
<!-- Node1&#45;&gt;Node3 -->
<g id="edge2" class="edge">
<title>Node1&#45;&gt;Node3</title>
<path fill="none" stroke="midnightblue" d="M424.58,-280.34C424.58,-259.62 424.58,-221.02 424.58,-197.9"/>
<polygon fill="midnightblue" stroke="midnightblue" points="428.08,-197.67 424.58,-187.67 421.08,-197.67 428.08,-197.67"/>
</g>
<!-- Node6 -->
<g id="node6" class="node">
<title>Node6</title>
<g id="a_node6"><a xlink:href="VortexConfig_8h.html" target="_top" xlink:title=" ">
<polygon fill="none" stroke="black" points="488.08,-56.5 488.08,-75.5 585.08,-75.5 585.08,-56.5 488.08,-56.5"/>
<text text-anchor="middle" x="536.58" y="-63.5" font-family="Helvetica,sans-Serif" font-size="10.00">../VortexConfig.h</text>
</a>
</g>
</g>
<!-- Node1&#45;&gt;Node6 -->
<g id="edge32" class="edge">
<title>Node1&#45;&gt;Node6</title>
<path fill="none" stroke="midnightblue" d="M484.86,-280.43C532.03,-265.9 594.51,-238.08 624.58,-188 635.9,-169.15 620.08,-126.1 609.58,-112 599.15,-97.99 582.95,-87.37 568.46,-79.98"/>
<polygon fill="midnightblue" stroke="midnightblue" points="569.79,-76.74 559.26,-75.58 566.78,-83.05 569.79,-76.74"/>
</g>
<!-- Node10 -->
<g id="node10" class="node">
<title>Node10</title>
<g id="a_node10"><a xlink:href="Leds_8h.html" target="_top" xlink:title=" ">
<polygon fill="none" stroke="black" points="323.58,-168.5 323.58,-187.5 371.58,-187.5 371.58,-168.5 323.58,-168.5"/>
<text text-anchor="middle" x="347.58" y="-175.5" font-family="Helvetica,sans-Serif" font-size="10.00">Leds.h</text>
</a>
</g>
</g>
<!-- Node1&#45;&gt;Node10 -->
<g id="edge12" class="edge">
<title>Node1&#45;&gt;Node10</title>
<path fill="none" stroke="midnightblue" d="M415.14,-280.34C400.95,-259.05 374.17,-218.89 358.94,-196.03"/>
<polygon fill="midnightblue" stroke="midnightblue" points="361.82,-194.05 353.36,-187.67 356,-197.93 361.82,-194.05"/>
</g>
<!-- Node11 -->
<g id="node11" class="node">
<title>Node11</title>
<g id="a_node11"><a xlink:href="TimeControl_8h.html" target="_top" xlink:title=" ">
<polygon fill="none" stroke="black" points="477.58,-168.5 477.58,-187.5 599.58,-187.5 599.58,-168.5 477.58,-168.5"/>
<text text-anchor="middle" x="538.58" y="-175.5" font-family="Helvetica,sans-Serif" font-size="10.00">../Time/TimeControl.h</text>
</a>
</g>
</g>
<!-- Node1&#45;&gt;Node11 -->
<g id="edge16" class="edge">
<title>Node1&#45;&gt;Node11</title>
<path fill="none" stroke="midnightblue" d="M438.56,-280.34C459.94,-258.68 500.63,-217.45 522.95,-194.83"/>
<polygon fill="midnightblue" stroke="midnightblue" points="525.49,-197.25 530.02,-187.67 520.51,-192.33 525.49,-197.25"/>
</g>
<!-- Node12 -->
<g id="node12" class="node">
<title>Node12</title>
<g id="a_node12"><a xlink:href="Modes_8h.html" target="_top" xlink:title=" ">
<polygon fill="none" stroke="black" points="208.58,-224.5 208.58,-243.5 310.58,-243.5 310.58,-224.5 208.58,-224.5"/>
<text text-anchor="middle" x="259.58" y="-231.5" font-family="Helvetica,sans-Serif" font-size="10.00">../Modes/Modes.h</text>
</a>
</g>
</g>
<!-- Node1&#45;&gt;Node12 -->
<g id="edge20" class="edge">
<title>Node1&#45;&gt;Node12</title>
<path fill="none" stroke="midnightblue" d="M385.48,-280.4C357.42,-270.28 320.01,-256.79 293.27,-247.15"/>
<polygon fill="midnightblue" stroke="midnightblue" points="294.18,-243.76 283.59,-243.66 291.81,-250.34 294.18,-243.76"/>
</g>
<!-- Node16 -->
<g id="node16" class="node">
<title>Node16</title>
<g id="a_node16"><a xlink:title=" ">
<polygon fill="none" stroke="#bfbfbf" points="700.08,-224.5 700.08,-243.5 741.08,-243.5 741.08,-224.5 700.08,-224.5"/>
<text text-anchor="middle" x="720.58" y="-231.5" font-family="Helvetica,sans-Serif" font-size="10.00">SPI.h</text>
</a>
</g>
</g>
<!-- Node1&#45;&gt;Node16 -->
<g id="edge33" class="edge">
<title>Node1&#45;&gt;Node16</title>
<path fill="none" stroke="midnightblue" d="M486.76,-283.56C539.78,-273.98 617.93,-259.23 685.58,-244 687.03,-243.67 688.52,-243.33 690.02,-242.97"/>
<polygon fill="midnightblue" stroke="midnightblue" points="691.03,-246.33 699.9,-240.54 689.36,-239.53 691.03,-246.33"/>
</g>
<!-- Node4 -->
<g id="node4" class="node">
<title>Node4</title>
<g id="a_node4"><a xlink:href="ColorTypes_8h.html" target="_top" xlink:title=" ">
<polygon fill="none" stroke="black" points="227.58,-112.5 227.58,-131.5 349.58,-131.5 349.58,-112.5 227.58,-112.5"/>
<text text-anchor="middle" x="288.58" y="-119.5" font-family="Helvetica,sans-Serif" font-size="10.00">../Colors/ColorTypes.h</text>
</a>
</g>
</g>
<!-- Node3&#45;&gt;Node4 -->
<g id="edge3" class="edge">
<title>Node3&#45;&gt;Node4</title>
<path fill="none" stroke="midnightblue" d="M403.03,-168.44C380.55,-159.52 345.09,-145.44 319.6,-135.32"/>
<polygon fill="midnightblue" stroke="midnightblue" points="320.62,-131.95 310.03,-131.52 318.03,-138.46 320.62,-131.95"/>
</g>
<!-- Node8 -->
<g id="node8" class="node">
<title>Node8</title>
<g id="a_node8"><a xlink:href="LedTypes_8h.html" target="_top" xlink:title=" ">
<polygon fill="none" stroke="black" points="496.08,-112.5 496.08,-131.5 567.08,-131.5 567.08,-112.5 496.08,-112.5"/>
<text text-anchor="middle" x="531.58" y="-119.5" font-family="Helvetica,sans-Serif" font-size="10.00">LedTypes.h</text>
</a>
</g>
</g>
<!-- Node3&#45;&gt;Node8 -->
<g id="edge8" class="edge">
<title>Node3&#45;&gt;Node8</title>
<path fill="none" stroke="midnightblue" d="M441.77,-168.32C458.93,-159.66 485.53,-146.24 505.33,-136.25"/>
<polygon fill="midnightblue" stroke="midnightblue" points="507.08,-139.28 514.43,-131.65 503.93,-133.04 507.08,-139.28"/>
</g>
<!-- Node5 -->
<g id="node5" class="node">
<title>Node5</title>
<g id="a_node5"><a xlink:title=" ">
<polygon fill="none" stroke="#bfbfbf" points="167.08,-56.5 167.08,-75.5 232.08,-75.5 232.08,-56.5 167.08,-56.5"/>
<text text-anchor="middle" x="199.58" y="-63.5" font-family="Helvetica,sans-Serif" font-size="10.00">inttypes.h</text>
</a>
</g>
</g>
<!-- Node4&#45;&gt;Node5 -->
<g id="edge4" class="edge">
<title>Node4&#45;&gt;Node5</title>
<path fill="none" stroke="midnightblue" d="M274.28,-112.32C260.4,-103.9 239.09,-90.97 222.78,-81.07"/>
<polygon fill="midnightblue" stroke="midnightblue" points="224.21,-77.85 213.85,-75.65 220.58,-83.83 224.21,-77.85"/>
</g>
<!-- Node4&#45;&gt;Node6 -->
<g id="edge5" class="edge">
<title>Node4&#45;&gt;Node6</title>
<path fill="none" stroke="midnightblue" d="M327.88,-112.44C371.14,-103.02 440.75,-87.87 487.55,-77.68"/>
<polygon fill="midnightblue" stroke="midnightblue" points="488.44,-81.06 497.47,-75.52 486.95,-74.22 488.44,-81.06"/>
</g>
<!-- Node7 -->
<g id="node7" class="node">
<title>Node7</title>
<g id="a_node7"><a xlink:href="ColorConstants_8h.html" target="_top" xlink:title=" ">
<polygon fill="none" stroke="black" points="393.58,-0.5 393.58,-19.5 527.58,-19.5 527.58,-0.5 393.58,-0.5"/>
<text text-anchor="middle" x="460.58" y="-7.5" font-family="Helvetica,sans-Serif" font-size="10.00">Colors/ColorConstants.h</text>
</a>
</g>
</g>
<!-- Node4&#45;&gt;Node7 -->
<g id="edge7" class="edge">
<title>Node4&#45;&gt;Node7</title>
<path fill="none" stroke="midnightblue" d="M302.08,-112.37C331.59,-93.49 402.12,-48.38 438.32,-25.24"/>
<polygon fill="midnightblue" stroke="midnightblue" points="440.61,-27.93 447.15,-19.59 436.84,-22.03 440.61,-27.93"/>
</g>
<!-- Node6&#45;&gt;Node7 -->
<g id="edge6" class="edge">
<title>Node6&#45;&gt;Node7</title>
<path fill="none" stroke="midnightblue" d="M524.37,-56.32C512.81,-48.11 495.21,-35.6 481.42,-25.81"/>
<polygon fill="midnightblue" stroke="midnightblue" points="483.19,-22.77 473.01,-19.83 479.14,-28.48 483.19,-22.77"/>
</g>
<!-- Node8&#45;&gt;Node5 -->
<g id="edge9" class="edge">
<title>Node8&#45;&gt;Node5</title>
<path fill="none" stroke="midnightblue" d="M495.75,-113.69C492.65,-113.1 489.56,-112.53 486.58,-112 400.11,-96.58 298.46,-81.31 242.31,-73.13"/>
<polygon fill="midnightblue" stroke="midnightblue" points="242.77,-69.66 232.37,-71.68 241.76,-76.59 242.77,-69.66"/>
</g>
<!-- Node8&#45;&gt;Node6 -->
<g id="edge11" class="edge">
<title>Node8&#45;&gt;Node6</title>
<path fill="none" stroke="midnightblue" d="M532.41,-112.08C533.06,-105.01 534,-94.86 534.82,-85.99"/>
<polygon fill="midnightblue" stroke="midnightblue" points="538.33,-86.03 535.77,-75.75 531.36,-85.39 538.33,-86.03"/>
</g>
<!-- Node9 -->
<g id="node9" class="node">
<title>Node9</title>
<g id="a_node9"><a xlink:title=" ">
<polygon fill="none" stroke="#bfbfbf" points="413.58,-56.5 413.58,-75.5 469.58,-75.5 469.58,-56.5 413.58,-56.5"/>
<text text-anchor="middle" x="441.58" y="-63.5" font-family="Helvetica,sans-Serif" font-size="10.00">stdarg.h</text>
</a>
</g>
</g>
<!-- Node8&#45;&gt;Node9 -->
<g id="edge10" class="edge">
<title>Node8&#45;&gt;Node9</title>
<path fill="none" stroke="midnightblue" d="M517.12,-112.32C503.08,-103.9 481.53,-90.97 465.04,-81.07"/>
<polygon fill="midnightblue" stroke="midnightblue" points="466.38,-77.8 456.01,-75.65 462.78,-83.8 466.38,-77.8"/>
</g>
<!-- Node10&#45;&gt;Node4 -->
<g id="edge14" class="edge">
<title>Node10&#45;&gt;Node4</title>
<path fill="none" stroke="midnightblue" d="M338.1,-168.32C329.38,-160.34 316.24,-148.31 305.68,-138.65"/>
<polygon fill="midnightblue" stroke="midnightblue" points="307.97,-136 298.23,-131.83 303.25,-141.17 307.97,-136"/>
</g>
<!-- Node10&#45;&gt;Node5 -->
<g id="edge13" class="edge">
<title>Node10&#45;&gt;Node5</title>
<path fill="none" stroke="midnightblue" d="M323.34,-169.85C288.08,-159.27 226.01,-139.82 218.58,-132 206.82,-119.62 202.29,-100.38 200.57,-86.04"/>
<polygon fill="midnightblue" stroke="midnightblue" points="204.04,-85.48 199.71,-75.81 197.06,-86.07 204.04,-85.48"/>
</g>
<!-- Node10&#45;&gt;Node8 -->
<g id="edge15" class="edge">
<title>Node10&#45;&gt;Node8</title>
<path fill="none" stroke="midnightblue" d="M371.64,-169.94C402.36,-160.92 455.91,-145.21 492.52,-134.46"/>
<polygon fill="midnightblue" stroke="midnightblue" points="493.75,-137.75 502.36,-131.58 491.78,-131.03 493.75,-137.75"/>
</g>
<!-- Node11&#45;&gt;Node5 -->
<g id="edge17" class="edge">
<title>Node11&#45;&gt;Node5</title>
<path fill="none" stroke="midnightblue" d="M506.13,-168.49C476.97,-160.43 433.21,-147.3 396.58,-132 378.97,-124.64 376.3,-119.08 358.58,-112 320.24,-96.68 274.75,-84.36 242.28,-76.51"/>
<polygon fill="midnightblue" stroke="midnightblue" points="242.75,-73.03 232.21,-74.12 241.13,-79.84 242.75,-73.03"/>
</g>
<!-- Node11&#45;&gt;Node6 -->
<g id="edge18" class="edge">
<title>Node11&#45;&gt;Node6</title>
<path fill="none" stroke="midnightblue" d="M549.79,-168.22C563.73,-156.16 584.76,-133.5 576.58,-112 572.25,-100.6 563.55,-90.24 555.37,-82.34"/>
<polygon fill="midnightblue" stroke="midnightblue" points="557.62,-79.66 547.85,-75.57 552.94,-84.86 557.62,-79.66"/>
</g>
<!-- Node11&#45;&gt;Node8 -->
<g id="edge19" class="edge">
<title>Node11&#45;&gt;Node8</title>
<path fill="none" stroke="midnightblue" d="M537.43,-168.08C536.5,-160.93 535.16,-150.64 534,-141.69"/>
<polygon fill="midnightblue" stroke="midnightblue" points="537.47,-141.22 532.72,-131.75 530.53,-142.12 537.47,-141.22"/>
</g>
<!-- Node12&#45;&gt;Node4 -->
<g id="edge26" class="edge">
<title>Node12&#45;&gt;Node4</title>
<path fill="none" stroke="midnightblue" d="M229.8,-224.44C198.43,-213.85 155.86,-193.97 173.58,-168 184.7,-151.71 202.67,-141.32 221.13,-134.69"/>
<polygon fill="midnightblue" stroke="midnightblue" points="222.37,-137.97 230.8,-131.55 220.21,-131.31 222.37,-137.97"/>
</g>
<!-- Node12&#45;&gt;Node5 -->
<g id="edge31" class="edge">
<title>Node12&#45;&gt;Node5</title>
<path fill="none" stroke="midnightblue" d="M224.66,-224.38C161.18,-207.9 31.15,-170.18 6.58,-132 -29.1,-76.54 89.67,-67.39 156.76,-66.51"/>
<polygon fill="midnightblue" stroke="midnightblue" points="157.08,-70.01 167.06,-66.43 157.03,-63.01 157.08,-70.01"/>
</g>
<!-- Node12&#45;&gt;Node6 -->
<g id="edge30" class="edge">
<title>Node12&#45;&gt;Node6</title>
<path fill="none" stroke="midnightblue" d="M310.84,-230.08C403.07,-224.29 589.24,-209.99 608.58,-188 623.09,-171.5 606.54,-135.65 590.58,-112 582.4,-99.87 570.03,-89.23 559.19,-81.34"/>
<polygon fill="midnightblue" stroke="midnightblue" points="561.16,-78.44 550.94,-75.63 557.17,-84.2 561.16,-78.44"/>
</g>
<!-- Node12&#45;&gt;Node10 -->
<g id="edge29" class="edge">
<title>Node12&#45;&gt;Node10</title>
<path fill="none" stroke="midnightblue" d="M273.72,-224.32C287.45,-215.9 308.52,-202.97 324.65,-193.07"/>
<polygon fill="midnightblue" stroke="midnightblue" points="326.78,-195.87 333.48,-187.65 323.12,-189.9 326.78,-195.87"/>
</g>
<!-- Node13 -->
<g id="node13" class="node">
<title>Node13</title>
<g id="a_node13"><a xlink:href="ByteStream_8h.html" target="_top" xlink:title=" ">
<polygon fill="none" stroke="black" points="182.08,-168.5 182.08,-187.5 305.08,-187.5 305.08,-168.5 182.08,-168.5"/>
<text text-anchor="middle" x="243.58" y="-175.5" font-family="Helvetica,sans-Serif" font-size="10.00">../Serial/ByteStream.h</text>
</a>
</g>
</g>
<!-- Node12&#45;&gt;Node13 -->
<g id="edge21" class="edge">
<title>Node12&#45;&gt;Node13</title>
<path fill="none" stroke="midnightblue" d="M256.94,-224.08C254.8,-216.85 251.7,-206.41 249.03,-197.4"/>
<polygon fill="midnightblue" stroke="midnightblue" points="252.37,-196.34 246.17,-187.75 245.66,-198.33 252.37,-196.34"/>
</g>
<!-- Node15 -->
<g id="node15" class="node">
<title>Node15</title>
<g id="a_node15"><a xlink:href="Patterns_8h.html" target="_top" xlink:title=" ">
<polygon fill="none" stroke="black" points="16.08,-112.5 16.08,-131.5 133.08,-131.5 133.08,-112.5 16.08,-112.5"/>
<text text-anchor="middle" x="74.58" y="-119.5" font-family="Helvetica,sans-Serif" font-size="10.00">../Patterns/Patterns.h</text>
</a>
</g>
</g>
<!-- Node12&#45;&gt;Node15 -->
<g id="edge27" class="edge">
<title>Node12&#45;&gt;Node15</title>
<path fill="none" stroke="midnightblue" d="M238.64,-224.4C219,-216.03 189.09,-202.49 164.58,-188 138.63,-172.66 110.8,-151.8 93.06,-137.89"/>
<polygon fill="midnightblue" stroke="midnightblue" points="95.24,-135.15 85.22,-131.68 90.89,-140.63 95.24,-135.15"/>
</g>
<!-- Node13&#45;&gt;Node5 -->
<g id="edge22" class="edge">
<title>Node13&#45;&gt;Node5</title>
<path fill="none" stroke="midnightblue" d="M225.19,-168.47C211.48,-161 193.77,-148.71 185.58,-132 178.3,-117.13 183.57,-98.52 189.62,-85.02"/>
<polygon fill="midnightblue" stroke="midnightblue" points="192.86,-86.36 194.2,-75.85 186.6,-83.24 192.86,-86.36"/>
</g>
<!-- Node14 -->
<g id="node14" class="node">
<title>Node14</title>
<g id="a_node14"><a xlink:href="Log_8h.html" target="_top" xlink:title=" ">
<polygon fill="none" stroke="black" points="405.58,-112.5 405.58,-131.5 477.58,-131.5 477.58,-112.5 405.58,-112.5"/>
<text text-anchor="middle" x="441.58" y="-119.5" font-family="Helvetica,sans-Serif" font-size="10.00">../Log/Log.h</text>
</a>
</g>
</g>
<!-- Node13&#45;&gt;Node14 -->
<g id="edge23" class="edge">
<title>Node13&#45;&gt;Node14</title>
<path fill="none" stroke="midnightblue" d="M274.95,-168.44C308.84,-159.2 362.98,-144.44 400.3,-134.26"/>
<polygon fill="midnightblue" stroke="midnightblue" points="401.63,-137.52 410.35,-131.52 399.79,-130.77 401.63,-137.52"/>
</g>
<!-- Node14&#45;&gt;Node6 -->
<g id="edge25" class="edge">
<title>Node14&#45;&gt;Node6</title>
<path fill="none" stroke="midnightblue" d="M456.84,-112.32C471.8,-103.82 494.84,-90.73 512.31,-80.8"/>
<polygon fill="midnightblue" stroke="midnightblue" points="514.39,-83.64 521.36,-75.65 510.93,-77.55 514.39,-83.64"/>
</g>
<!-- Node14&#45;&gt;Node9 -->
<g id="edge24" class="edge">
<title>Node14&#45;&gt;Node9</title>
<path fill="none" stroke="midnightblue" d="M441.58,-112.08C441.58,-105.01 441.58,-94.86 441.58,-85.99"/>
<polygon fill="midnightblue" stroke="midnightblue" points="445.08,-85.75 441.58,-75.75 438.08,-85.75 445.08,-85.75"/>
</g>
<!-- Node15&#45;&gt;Node5 -->
<g id="edge28" class="edge">
<title>Node15&#45;&gt;Node5</title>
<path fill="none" stroke="midnightblue" d="M94.39,-112.44C114.87,-103.6 147.06,-89.69 170.45,-79.59"/>
<polygon fill="midnightblue" stroke="midnightblue" points="172.08,-82.7 179.87,-75.52 169.3,-76.27 172.08,-82.7"/>
</g>
</g>
</svg>
        <g id="navigator" transform="translate(0 0)" fill="#404254">
                <rect fill="#f2f5e9" fill-opacity="0.5" stroke="#606060" stroke-width=".5" x="0" y="0" width="60" height="60"/>
                <use id="zoomplus" xlink:href="#zoomPlus" x="17" y="9" onmousedown="handleZoom(evt,'in')"/>
                <use id="zoomminus" xlink:href="#zoomMin" x="42" y="9" onmousedown="handleZoom(evt,'out')"/>
                <use id="reset" xlink:href="#resetDef" x="30" y="36" onmousedown="handleReset()"/>
                <g id="arrowUp" xlink:href="#dirArrow" transform="translate(30 24)" onmousedown="handlePan(0,-1)">
                  <use xlink:href="#rim" fill="#404040">
                        <set attributeName="fill" to="#808080" begin="arrowUp.mouseover" end="arrowUp.mouseout"/>
                  </use>
                  <path fill="none" stroke="white" stroke-width="1.5" d="M0,-3.0v7 M-2.5,-0.5L0,-3.0L2.5,-0.5"/>
                </g>
                <g id="arrowRight" xlink:href="#dirArrow" transform="rotate(90) translate(36 -43)" onmousedown="handlePan(1,0)">
                  <use xlink:href="#rim" fill="#404040">
                        <set attributeName="fill" to="#808080" begin="arrowRight.mouseover" end="arrowRight.mouseout"/>
                  </use>
                  <path fill="none" stroke="white" stroke-width="1.5" d="M0,-3.0v7 M-2.5,-0.5L0,-3.0L2.5,-0.5"/>
                </g>
                <g id="arrowDown" xlink:href="#dirArrow" transform="rotate(180) translate(-30 -48)" onmousedown="handlePan(0,1)">
                  <use xlink:href="#rim" fill="#404040">
                        <set attributeName="fill" to="#808080" begin="arrowDown.mouseover" end="arrowDown.mouseout"/>
                  </use>
                  <path fill="none" stroke="white" stroke-width="1.5" d="M0,-3.0v7 M-2.5,-0.5L0,-3.0L2.5,-0.5"/>
                </g>
                <g id="arrowLeft" xlink:href="#dirArrow" transform="rotate(270) translate(-36 17)" onmousedown="handlePan(-1,0)">
                  <use xlink:href="#rim" fill="#404040">
                        <set attributeName="fill" to="#808080" begin="arrowLeft.mouseover" end="arrowLeft.mouseout"/>
                  </use>
                  <path fill="none" stroke="white" stroke-width="1.5" d="M0,-3.0v7 M-2.5,-0.5L0,-3.0L2.5,-0.5"/>
                </g>
        </g>
        <svg viewBox="0 0 15 15" width="100%" height="30px" preserveAspectRatio="xMaxYMin meet">
         <g id="arrow_out" transform="scale(0.3 0.3)">
          <a xlink:href="Leds_8cpp__incl_org.svg" target="_base">
           <rect id="button" ry="5" rx="5" y="6" x="6" height="38" width="38"
                fill="#f2f5e9" fill-opacity="0.5" stroke="#606060" stroke-width="1.0"/>
           <path id="arrow"
             d="M 11.500037,31.436501 C 11.940474,20.09759 22.043105,11.32322 32.158766,21.979434 L 37.068811,17.246167 C 37.068811,17.246167 37.088388,32 37.088388,32 L 22.160133,31.978069 C 22.160133,31.978069 26.997745,27.140456 26.997745,27.140456 C 18.528582,18.264221 13.291696,25.230495 11.500037,31.436501 z"
             style="fill:#404040;"/>
          </a>
         </g>
        </svg>
</svg>
