<?xml version="1.0" encoding="UTF-8" standalone="no"?>
<!DOCTYPE svg PUBLIC "-//W3C//DTD SVG 1.1//EN"
 "http://www.w3.org/Graphics/SVG/1.1/DTD/svg11.dtd">
<!-- Generated by graphviz version 2.43.0 (0)
 -->
<!-- Title: VortexEngine/src/Leds/Leds.cpp Pages: 1 -->
<!--zoomable 319 -->
<svg id="main" version="1.1" xmlns="http://www.w3.org/2000/svg" xmlns:xlink="http://www.w3.org/1999/xlink" xml:space="preserve" onload="init(evt)">
<style type="text/css"><![CDATA[
.edge:hover path { stroke: red; }
.edge:hover polygon { stroke: red; fill: red; }
]]></style>
<script type="text/javascript"><![CDATA[
var edges = document.getElementsByTagName('g');
if (edges && edges.length) {
  for (var i=0;i<edges.length;i++) {
    if (edges[i].id.substr(0,4)=='edge') {
      edges[i].setAttribute('class','edge');
    }
  }
}
]]></script>
        <defs>
                <circle id="rim" cx="0" cy="0" r="7"/>
                <circle id="rim2" cx="0" cy="0" r="3.5"/>
                <g id="zoomPlus">
                        <use xlink:href="#rim" fill="#404040">
                                <set attributeName="fill" to="#808080" begin="zoomplus.mouseover" end="zoomplus.mouseout"/>
                        </use>
                        <path d="M-4,0h8M0,-4v8" fill="none" stroke="white" stroke-width="1.5" pointer-events="none"/>
                </g>
                <g id="zoomMin">
                        <use xlink:href="#rim" fill="#404040">
                                <set attributeName="fill" to="#808080" begin="zoomminus.mouseover" end="zoomminus.mouseout"/>
                        </use>
                        <path d="M-4,0h8" fill="none" stroke="white" stroke-width="1.5" pointer-events="none"/>
                </g>
                <g id="dirArrow">
                        <path fill="none" stroke="white" stroke-width="1.5" d="M0,-3.0v7 M-2.5,-0.5L0,-3.0L2.5,-0.5"/>
                </g>
               <g id="resetDef">
                       <use xlink:href="#rim2" fill="#404040">
                               <set attributeName="fill" to="#808080" begin="reset.mouseover" end="reset.mouseout"/>
                       </use>
               </g>
        </defs>

<script type="text/javascript">
var viewWidth = 868;
var viewHeight = 319;
var sectionId = 'dynsection-0';
</script>
<script xlink:href="svgpan.js"/>
<svg id="graph" class="graph">
<g id="viewport">
<title>VortexEngine/src/Leds/Leds.cpp</title>
<!-- Node1 -->
<g id="node1" class="node">
<title>Node1</title>
<g id="a_node1"><a xlink:title=" ">
<polygon fill="#bfbfbf" stroke="black" points="482.8,-280.5 482.8,-310.5 606.8,-310.5 606.8,-280.5 482.8,-280.5"/>
<text text-anchor="start" x="490.8" y="-298.5" font-family="Helvetica,sans-Serif" font-size="10.00">VortexEngine/src/Leds</text>
<text text-anchor="middle" x="544.8" y="-287.5" font-family="Helvetica,sans-Serif" font-size="10.00">/Leds.cpp</text>
</a>
</g>
</g>
<!-- Node2 -->
<g id="node2" class="node">
<title>Node2</title>
<g id="a_node2"><a xlink:title=" ">
<polygon fill="none" stroke="#bfbfbf" points="141.3,-224.5 141.3,-243.5 192.3,-243.5 192.3,-224.5 141.3,-224.5"/>
<text text-anchor="middle" x="166.8" y="-231.5" font-family="Helvetica,sans-Serif" font-size="10.00">math.h</text>
</a>
</g>
</g>
<!-- Node1&#45;&gt;Node2 -->
<g id="edge1" class="edge">
<title>Node1&#45;&gt;Node2</title>
<path fill="none" stroke="midnightblue" d="M482.5,-287.33C415.66,-279.19 306.26,-264.58 202.38,-243.92"/>
<polygon fill="midnightblue" stroke="midnightblue" points="202.84,-240.44 192.35,-241.9 201.46,-247.3 202.84,-240.44"/>
</g>
<!-- Node3 -->
<g id="node3" class="node">
<title>Node3</title>
<g id="a_node3"><a xlink:href="LedStash_8h.html" target="_top" xlink:title=" ">
<polygon fill="none" stroke="black" points="395.8,-168.5 395.8,-187.5 465.8,-187.5 465.8,-168.5 395.8,-168.5"/>
<text text-anchor="middle" x="430.8" y="-175.5" font-family="Helvetica,sans-Serif" font-size="10.00">LedStash.h</text>
</a>
</g>
</g>
<!-- Node1&#45;&gt;Node3 -->
<g id="edge2" class="edge">
<title>Node1&#45;&gt;Node3</title>
<path fill="none" stroke="midnightblue" d="M530.82,-280.34C509.44,-258.68 468.76,-217.45 446.43,-194.83"/>
<polygon fill="midnightblue" stroke="midnightblue" points="448.88,-192.33 439.36,-187.67 443.89,-197.25 448.88,-192.33"/>
</g>
<!-- Node6 -->
<g id="node6" class="node">
<title>Node6</title>
<g id="a_node6"><a xlink:href="VortexConfig_8h.html" target="_top" xlink:title=" ">
<polygon fill="none" stroke="black" points="488.3,-56.5 488.3,-75.5 585.3,-75.5 585.3,-56.5 488.3,-56.5"/>
<text text-anchor="middle" x="536.8" y="-63.5" font-family="Helvetica,sans-Serif" font-size="10.00">../VortexConfig.h</text>
</a>
</g>
</g>
<!-- Node1&#45;&gt;Node6 -->
<g id="edge32" class="edge">
<title>Node1&#45;&gt;Node6</title>
<path fill="none" stroke="midnightblue" d="M562.13,-280.49C583.51,-261.95 618.76,-227.04 632.8,-188 635.81,-179.64 634.04,-176.8 632.8,-168 629.21,-142.37 632.84,-132.32 616.8,-112 605.35,-97.5 587.87,-86.9 572.16,-79.65"/>
<polygon fill="midnightblue" stroke="midnightblue" points="573.25,-76.31 562.68,-75.56 570.47,-82.73 573.25,-76.31"/>
</g>
<!-- Node10 -->
<g id="node10" class="node">
<title>Node10</title>
<g id="a_node10"><a xlink:href="Leds_8h.html" target="_top" xlink:title=" ">
<polygon fill="none" stroke="black" points="329.8,-168.5 329.8,-187.5 377.8,-187.5 377.8,-168.5 329.8,-168.5"/>
<text text-anchor="middle" x="353.8" y="-175.5" font-family="Helvetica,sans-Serif" font-size="10.00">Leds.h</text>
</a>
</g>
</g>
<!-- Node1&#45;&gt;Node10 -->
<g id="edge12" class="edge">
<title>Node1&#45;&gt;Node10</title>
<path fill="none" stroke="midnightblue" d="M521.38,-280.34C484.62,-258.11 413.8,-215.28 377.11,-193.09"/>
<polygon fill="midnightblue" stroke="midnightblue" points="378.51,-189.85 368.14,-187.67 374.89,-195.84 378.51,-189.85"/>
</g>
<!-- Node11 -->
<g id="node11" class="node">
<title>Node11</title>
<g id="a_node11"><a xlink:href="TimeControl_8h.html" target="_top" xlink:title=" ">
<polygon fill="none" stroke="black" points="483.8,-168.5 483.8,-187.5 605.8,-187.5 605.8,-168.5 483.8,-168.5"/>
<text text-anchor="middle" x="544.8" y="-175.5" font-family="Helvetica,sans-Serif" font-size="10.00">../Time/TimeControl.h</text>
</a>
</g>
</g>
<!-- Node1&#45;&gt;Node11 -->
<g id="edge16" class="edge">
<title>Node1&#45;&gt;Node11</title>
<path fill="none" stroke="midnightblue" d="M544.8,-280.34C544.8,-259.62 544.8,-221.02 544.8,-197.9"/>
<polygon fill="midnightblue" stroke="midnightblue" points="548.3,-197.67 544.8,-187.67 541.3,-197.67 548.3,-197.67"/>
</g>
<!-- Node12 -->
<g id="node12" class="node">
<title>Node12</title>
<g id="a_node12"><a xlink:href="Modes_8h.html" target="_top" xlink:title=" ">
<polygon fill="none" stroke="black" points="210.8,-224.5 210.8,-243.5 312.8,-243.5 312.8,-224.5 210.8,-224.5"/>
<text text-anchor="middle" x="261.8" y="-231.5" font-family="Helvetica,sans-Serif" font-size="10.00">../Modes/Modes.h</text>
</a>
</g>
</g>
<!-- Node1&#45;&gt;Node12 -->
<g id="edge20" class="edge">
<title>Node1&#45;&gt;Node12</title>
<path fill="none" stroke="midnightblue" d="M482.7,-281.44C431.51,-270.68 359.82,-255.61 312.15,-245.59"/>
<polygon fill="midnightblue" stroke="midnightblue" points="312.87,-242.16 302.36,-243.53 311.43,-249.01 312.87,-242.16"/>
</g>
<!-- Node16 -->
<g id="node16" class="node">
<title>Node16</title>
<g id="a_node16"><a xlink:title=" ">
<polygon fill="none" stroke="#bfbfbf" points="655.3,-224.5 655.3,-243.5 718.3,-243.5 718.3,-224.5 655.3,-224.5"/>
<text text-anchor="middle" x="686.8" y="-231.5" font-family="Helvetica,sans-Serif" font-size="10.00">Arduino.h</text>
</a>
</g>
</g>
<!-- Node1&#45;&gt;Node16 -->
<g id="edge33" class="edge">
<title>Node1&#45;&gt;Node16</title>
<path fill="none" stroke="midnightblue" d="M578.46,-280.4C602.28,-270.42 633.95,-257.15 656.89,-247.53"/>
<polygon fill="midnightblue" stroke="midnightblue" points="658.27,-250.75 666.14,-243.66 655.57,-244.29 658.27,-250.75"/>
</g>
<!-- Node17 -->
<g id="node17" class="node">
<title>Node17</title>
<g id="a_node17"><a xlink:title=" ">
<polygon fill="none" stroke="#bfbfbf" points="736.8,-224.5 736.8,-243.5 800.8,-243.5 800.8,-224.5 736.8,-224.5"/>
<text text-anchor="middle" x="768.8" y="-231.5" font-family="Helvetica,sans-Serif" font-size="10.00">FastLED.h</text>
</a>
</g>
</g>
<!-- Node1&#45;&gt;Node17 -->
<g id="edge34" class="edge">
<title>Node1&#45;&gt;Node17</title>
<path fill="none" stroke="midnightblue" d="M597.6,-280.47C637.09,-269.99 690.36,-255.84 726.93,-246.12"/>
<polygon fill="midnightblue" stroke="midnightblue" points="728.01,-249.46 736.78,-243.51 726.22,-242.69 728.01,-249.46"/>
</g>
<!-- Node18 -->
<g id="node18" class="node">
<title>Node18</title>
<g id="a_node18"><a xlink:title=" ">
<polygon fill="none" stroke="#bfbfbf" points="819.3,-224.5 819.3,-243.5 860.3,-243.5 860.3,-224.5 819.3,-224.5"/>
<text text-anchor="middle" x="839.8" y="-231.5" font-family="Helvetica,sans-Serif" font-size="10.00">SPI.h</text>
</a>
</g>
</g>
<!-- Node1&#45;&gt;Node18 -->
<g id="edge35" class="edge">
<title>Node1&#45;&gt;Node18</title>
<path fill="none" stroke="midnightblue" d="M607.04,-284.51C658.67,-275.79 734.17,-262.07 809.13,-243.95"/>
<polygon fill="midnightblue" stroke="midnightblue" points="810.34,-247.25 819.22,-241.48 808.68,-240.45 810.34,-247.25"/>
</g>
<!-- Node4 -->
<g id="node4" class="node">
<title>Node4</title>
<g id="a_node4"><a xlink:href="ColorTypes_8h.html" target="_top" xlink:title=" ">
<polygon fill="none" stroke="black" points="227.8,-112.5 227.8,-131.5 349.8,-131.5 349.8,-112.5 227.8,-112.5"/>
<text text-anchor="middle" x="288.8" y="-119.5" font-family="Helvetica,sans-Serif" font-size="10.00">../Colors/ColorTypes.h</text>
</a>
</g>
</g>
<!-- Node3&#45;&gt;Node4 -->
<g id="edge3" class="edge">
<title>Node3&#45;&gt;Node4</title>
<path fill="none" stroke="midnightblue" d="M408.3,-168.44C384.73,-159.48 347.48,-145.31 320.84,-135.18"/>
<polygon fill="midnightblue" stroke="midnightblue" points="321.79,-131.8 311.2,-131.52 319.3,-138.34 321.79,-131.8"/>
</g>
<!-- Node8 -->
<g id="node8" class="node">
<title>Node8</title>
<g id="a_node8"><a xlink:href="LedTypes_8h.html" target="_top" xlink:title=" ">
<polygon fill="none" stroke="black" points="496.3,-112.5 496.3,-131.5 567.3,-131.5 567.3,-112.5 496.3,-112.5"/>
<text text-anchor="middle" x="531.8" y="-119.5" font-family="Helvetica,sans-Serif" font-size="10.00">LedTypes.h</text>
</a>
</g>
</g>
<!-- Node3&#45;&gt;Node8 -->
<g id="edge8" class="edge">
<title>Node3&#45;&gt;Node8</title>
<path fill="none" stroke="midnightblue" d="M447.03,-168.32C463.15,-159.7 488.1,-146.36 506.77,-136.39"/>
<polygon fill="midnightblue" stroke="midnightblue" points="508.45,-139.46 515.62,-131.65 505.15,-133.28 508.45,-139.46"/>
</g>
<!-- Node5 -->
<g id="node5" class="node">
<title>Node5</title>
<g id="a_node5"><a xlink:title=" ">
<polygon fill="none" stroke="#bfbfbf" points="167.3,-56.5 167.3,-75.5 232.3,-75.5 232.3,-56.5 167.3,-56.5"/>
<text text-anchor="middle" x="199.8" y="-63.5" font-family="Helvetica,sans-Serif" font-size="10.00">inttypes.h</text>
</a>
</g>
</g>
<!-- Node4&#45;&gt;Node5 -->
<g id="edge4" class="edge">
<title>Node4&#45;&gt;Node5</title>
<path fill="none" stroke="midnightblue" d="M274.5,-112.32C260.62,-103.9 239.31,-90.97 223,-81.07"/>
<polygon fill="midnightblue" stroke="midnightblue" points="224.43,-77.85 214.07,-75.65 220.8,-83.83 224.43,-77.85"/>
</g>
<!-- Node4&#45;&gt;Node6 -->
<g id="edge5" class="edge">
<title>Node4&#45;&gt;Node6</title>
<path fill="none" stroke="midnightblue" d="M328.1,-112.44C371.36,-103.02 440.98,-87.87 487.78,-77.68"/>
<polygon fill="midnightblue" stroke="midnightblue" points="488.66,-81.06 497.69,-75.52 487.18,-74.22 488.66,-81.06"/>
</g>
<!-- Node7 -->
<g id="node7" class="node">
<title>Node7</title>
<g id="a_node7"><a xlink:href="ColorConstants_8h.html" target="_top" xlink:title=" ">
<polygon fill="none" stroke="black" points="393.8,-0.5 393.8,-19.5 527.8,-19.5 527.8,-0.5 393.8,-0.5"/>
<text text-anchor="middle" x="460.8" y="-7.5" font-family="Helvetica,sans-Serif" font-size="10.00">Colors/ColorConstants.h</text>
</a>
</g>
</g>
<!-- Node4&#45;&gt;Node7 -->
<g id="edge7" class="edge">
<title>Node4&#45;&gt;Node7</title>
<path fill="none" stroke="midnightblue" d="M302.3,-112.37C331.82,-93.49 402.35,-48.38 438.54,-25.24"/>
<polygon fill="midnightblue" stroke="midnightblue" points="440.83,-27.93 447.37,-19.59 437.06,-22.03 440.83,-27.93"/>
</g>
<!-- Node6&#45;&gt;Node7 -->
<g id="edge6" class="edge">
<title>Node6&#45;&gt;Node7</title>
<path fill="none" stroke="midnightblue" d="M524.59,-56.32C513.03,-48.11 495.43,-35.6 481.64,-25.81"/>
<polygon fill="midnightblue" stroke="midnightblue" points="483.42,-22.77 473.24,-19.83 479.36,-28.48 483.42,-22.77"/>
</g>
<!-- Node8&#45;&gt;Node5 -->
<g id="edge9" class="edge">
<title>Node8&#45;&gt;Node5</title>
<path fill="none" stroke="midnightblue" d="M495.97,-113.69C492.87,-113.1 489.78,-112.53 486.8,-112 400.33,-96.58 298.68,-81.31 242.53,-73.13"/>
<polygon fill="midnightblue" stroke="midnightblue" points="242.99,-69.66 232.59,-71.68 241.98,-76.59 242.99,-69.66"/>
</g>
<!-- Node8&#45;&gt;Node6 -->
<g id="edge11" class="edge">
<title>Node8&#45;&gt;Node6</title>
<path fill="none" stroke="midnightblue" d="M532.63,-112.08C533.28,-105.01 534.22,-94.86 535.05,-85.99"/>
<polygon fill="midnightblue" stroke="midnightblue" points="538.56,-86.03 535.99,-75.75 531.59,-85.39 538.56,-86.03"/>
</g>
<!-- Node9 -->
<g id="node9" class="node">
<title>Node9</title>
<g id="a_node9"><a xlink:title=" ">
<polygon fill="none" stroke="#bfbfbf" points="413.8,-56.5 413.8,-75.5 469.8,-75.5 469.8,-56.5 413.8,-56.5"/>
<text text-anchor="middle" x="441.8" y="-63.5" font-family="Helvetica,sans-Serif" font-size="10.00">stdarg.h</text>
</a>
</g>
</g>
<!-- Node8&#45;&gt;Node9 -->
<g id="edge10" class="edge">
<title>Node8&#45;&gt;Node9</title>
<path fill="none" stroke="midnightblue" d="M517.34,-112.32C503.3,-103.9 481.75,-90.97 465.26,-81.07"/>
<polygon fill="midnightblue" stroke="midnightblue" points="466.6,-77.8 456.23,-75.65 463,-83.8 466.6,-77.8"/>
</g>
<!-- Node10&#45;&gt;Node4 -->
<g id="edge14" class="edge">
<title>Node10&#45;&gt;Node4</title>
<path fill="none" stroke="midnightblue" d="M343.36,-168.32C333.66,-160.26 318.99,-148.08 307.3,-138.37"/>
<polygon fill="midnightblue" stroke="midnightblue" points="309.37,-135.53 299.44,-131.83 304.89,-140.92 309.37,-135.53"/>
</g>
<!-- Node10&#45;&gt;Node5 -->
<g id="edge13" class="edge">
<title>Node10&#45;&gt;Node5</title>
<path fill="none" stroke="midnightblue" d="M329.64,-170.27C292.98,-159.85 226.69,-140.18 218.8,-132 206.96,-119.71 202.44,-100.45 200.74,-86.08"/>
<polygon fill="midnightblue" stroke="midnightblue" points="204.21,-85.52 199.91,-75.84 197.23,-86.09 204.21,-85.52"/>
</g>
<!-- Node10&#45;&gt;Node8 -->
<g id="edge15" class="edge">
<title>Node10&#45;&gt;Node8</title>
<path fill="none" stroke="midnightblue" d="M377.81,-169.72C407.52,-160.7 458.48,-145.24 493.59,-134.59"/>
<polygon fill="midnightblue" stroke="midnightblue" points="494.93,-137.84 503.49,-131.59 492.9,-131.14 494.93,-137.84"/>
</g>
<!-- Node11&#45;&gt;Node5 -->
<g id="edge17" class="edge">
<title>Node11&#45;&gt;Node5</title>
<path fill="none" stroke="midnightblue" d="M510.07,-168.43C479.66,-160.47 434.56,-147.51 396.8,-132 379.15,-124.75 376.53,-119.08 358.8,-112 320.46,-96.68 274.98,-84.36 242.5,-76.51"/>
<polygon fill="midnightblue" stroke="midnightblue" points="242.97,-73.03 232.44,-74.12 241.36,-79.84 242.97,-73.03"/>
</g>
<!-- Node11&#45;&gt;Node6 -->
<g id="edge18" class="edge">
<title>Node11&#45;&gt;Node6</title>
<path fill="none" stroke="midnightblue" d="M554.12,-168.4C566.18,-156.18 584.76,-132.93 576.8,-112 572.47,-100.6 563.77,-90.24 555.59,-82.34"/>
<polygon fill="midnightblue" stroke="midnightblue" points="557.84,-79.66 548.07,-75.57 553.16,-84.86 557.84,-79.66"/>
</g>
<!-- Node11&#45;&gt;Node8 -->
<g id="edge19" class="edge">
<title>Node11&#45;&gt;Node8</title>
<path fill="none" stroke="midnightblue" d="M542.66,-168.08C540.93,-160.93 538.46,-150.64 536.3,-141.69"/>
<polygon fill="midnightblue" stroke="midnightblue" points="539.65,-140.65 533.91,-131.75 532.85,-142.29 539.65,-140.65"/>
</g>
<!-- Node12&#45;&gt;Node4 -->
<g id="edge26" class="edge">
<title>Node12&#45;&gt;Node4</title>
<path fill="none" stroke="midnightblue" d="M233.91,-224.42C203.94,-213.67 162.73,-193.52 179.8,-168 190.71,-151.7 208.72,-141.3 226.98,-134.66"/>
<polygon fill="midnightblue" stroke="midnightblue" points="228.12,-137.97 236.52,-131.52 225.93,-131.32 228.12,-137.97"/>
</g>
<!-- Node12&#45;&gt;Node5 -->
<g id="edge31" class="edge">
<title>Node12&#45;&gt;Node5</title>
<path fill="none" stroke="midnightblue" d="M226.67,-224.38C162.81,-207.91 31.93,-170.19 6.8,-132 -29.45,-76.91 89.58,-67.59 156.86,-66.59"/>
<polygon fill="midnightblue" stroke="midnightblue" points="157.22,-70.09 167.18,-66.5 157.15,-63.09 157.22,-70.09"/>
</g>
<!-- Node12&#45;&gt;Node6 -->
<g id="edge30" class="edge">
<title>Node12&#45;&gt;Node6</title>
<path fill="none" stroke="midnightblue" d="M312.92,-230.16C405.95,-224.48 595.18,-210.28 614.8,-188 645.45,-153.2 590.69,-105.28 558.23,-81.54"/>
<polygon fill="midnightblue" stroke="midnightblue" points="559.94,-78.46 549.76,-75.52 555.88,-84.16 559.94,-78.46"/>
</g>
<!-- Node12&#45;&gt;Node10 -->
<g id="edge29" class="edge">
<title>Node12&#45;&gt;Node10</title>
<path fill="none" stroke="midnightblue" d="M276.58,-224.32C291.07,-215.82 313.38,-202.73 330.3,-192.8"/>
<polygon fill="midnightblue" stroke="midnightblue" points="332.21,-195.74 339.06,-187.65 328.66,-189.7 332.21,-195.74"/>
</g>
<!-- Node13 -->
<g id="node13" class="node">
<title>Node13</title>
<g id="a_node13"><a xlink:href="ByteStream_8h.html" target="_top" xlink:title=" ">
<polygon fill="none" stroke="black" points="188.3,-168.5 188.3,-187.5 311.3,-187.5 311.3,-168.5 188.3,-168.5"/>
<text text-anchor="middle" x="249.8" y="-175.5" font-family="Helvetica,sans-Serif" font-size="10.00">../Serial/ByteStream.h</text>
</a>
</g>
</g>
<!-- Node12&#45;&gt;Node13 -->
<g id="edge21" class="edge">
<title>Node12&#45;&gt;Node13</title>
<path fill="none" stroke="midnightblue" d="M259.82,-224.08C258.23,-216.93 255.94,-206.64 253.96,-197.69"/>
<polygon fill="midnightblue" stroke="midnightblue" points="257.33,-196.75 251.75,-187.75 250.5,-198.27 257.33,-196.75"/>
</g>
<!-- Node15 -->
<g id="node15" class="node">
<title>Node15</title>
<g id="a_node15"><a xlink:href="Patterns_8h.html" target="_top" xlink:title=" ">
<polygon fill="none" stroke="black" points="16.3,-112.5 16.3,-131.5 133.3,-131.5 133.3,-112.5 16.3,-112.5"/>
<text text-anchor="middle" x="74.8" y="-119.5" font-family="Helvetica,sans-Serif" font-size="10.00">../Patterns/Patterns.h</text>
</a>
</g>
</g>
<!-- Node12&#45;&gt;Node15 -->
<g id="edge27" class="edge">
<title>Node12&#45;&gt;Node15</title>
<path fill="none" stroke="midnightblue" d="M242.82,-224.37C224.35,-215.77 195.66,-201.88 171.8,-188 144.27,-171.98 114,-151.14 94.72,-137.43"/>
<polygon fill="midnightblue" stroke="midnightblue" points="96.61,-134.48 86.44,-131.5 92.53,-140.17 96.61,-134.48"/>
</g>
<!-- Node13&#45;&gt;Node5 -->
<g id="edge22" class="edge">
<title>Node13&#45;&gt;Node5</title>
<path fill="none" stroke="midnightblue" d="M228.32,-168.36C213.41,-161.09 194.69,-149.12 185.8,-132 178.17,-117.31 183.49,-98.67 189.64,-85.13"/>
<polygon fill="midnightblue" stroke="midnightblue" points="192.91,-86.41 194.3,-75.91 186.66,-83.25 192.91,-86.41"/>
</g>
<!-- Node14 -->
<g id="node14" class="node">
<title>Node14</title>
<g id="a_node14"><a xlink:href="Log_8h.html" target="_top" xlink:title=" ">
<polygon fill="none" stroke="black" points="405.8,-112.5 405.8,-131.5 477.8,-131.5 477.8,-112.5 405.8,-112.5"/>
<text text-anchor="middle" x="441.8" y="-119.5" font-family="Helvetica,sans-Serif" font-size="10.00">../Log/Log.h</text>
</a>
</g>
</g>
<!-- Node13&#45;&gt;Node14 -->
<g id="edge23" class="edge">
<title>Node13&#45;&gt;Node14</title>
<path fill="none" stroke="midnightblue" d="M280.23,-168.44C313.09,-159.2 365.59,-144.44 401.78,-134.26"/>
<polygon fill="midnightblue" stroke="midnightblue" points="402.84,-137.59 411.52,-131.52 400.95,-130.85 402.84,-137.59"/>
</g>
<!-- Node14&#45;&gt;Node6 -->
<g id="edge25" class="edge">
<title>Node14&#45;&gt;Node6</title>
<path fill="none" stroke="midnightblue" d="M457.07,-112.32C472.02,-103.82 495.06,-90.73 512.53,-80.8"/>
<polygon fill="midnightblue" stroke="midnightblue" points="514.61,-83.64 521.58,-75.65 511.15,-77.55 514.61,-83.64"/>
</g>
<!-- Node14&#45;&gt;Node9 -->
<g id="edge24" class="edge">
<title>Node14&#45;&gt;Node9</title>
<path fill="none" stroke="midnightblue" d="M441.8,-112.08C441.8,-105.01 441.8,-94.86 441.8,-85.99"/>
<polygon fill="midnightblue" stroke="midnightblue" points="445.3,-85.75 441.8,-75.75 438.3,-85.75 445.3,-85.75"/>
</g>
<!-- Node15&#45;&gt;Node5 -->
<g id="edge28" class="edge">
<title>Node15&#45;&gt;Node5</title>
<path fill="none" stroke="midnightblue" d="M94.61,-112.44C115.09,-103.6 147.29,-89.69 170.67,-79.59"/>
<polygon fill="midnightblue" stroke="midnightblue" points="172.3,-82.7 180.09,-75.52 169.52,-76.27 172.3,-82.7"/>
</g>
</g>
</svg>
        <g id="navigator" transform="translate(0 0)" fill="#404254">
                <rect fill="#f2f5e9" fill-opacity="0.5" stroke="#606060" stroke-width=".5" x="0" y="0" width="60" height="60"/>
                <use id="zoomplus" xlink:href="#zoomPlus" x="17" y="9" onmousedown="handleZoom(evt,'in')"/>
                <use id="zoomminus" xlink:href="#zoomMin" x="42" y="9" onmousedown="handleZoom(evt,'out')"/>
                <use id="reset" xlink:href="#resetDef" x="30" y="36" onmousedown="handleReset()"/>
                <g id="arrowUp" xlink:href="#dirArrow" transform="translate(30 24)" onmousedown="handlePan(0,-1)">
                  <use xlink:href="#rim" fill="#404040">
                        <set attributeName="fill" to="#808080" begin="arrowUp.mouseover" end="arrowUp.mouseout"/>
                  </use>
                  <path fill="none" stroke="white" stroke-width="1.5" d="M0,-3.0v7 M-2.5,-0.5L0,-3.0L2.5,-0.5"/>
                </g>
                <g id="arrowRight" xlink:href="#dirArrow" transform="rotate(90) translate(36 -43)" onmousedown="handlePan(1,0)">
                  <use xlink:href="#rim" fill="#404040">
                        <set attributeName="fill" to="#808080" begin="arrowRight.mouseover" end="arrowRight.mouseout"/>
                  </use>
                  <path fill="none" stroke="white" stroke-width="1.5" d="M0,-3.0v7 M-2.5,-0.5L0,-3.0L2.5,-0.5"/>
                </g>
                <g id="arrowDown" xlink:href="#dirArrow" transform="rotate(180) translate(-30 -48)" onmousedown="handlePan(0,1)">
                  <use xlink:href="#rim" fill="#404040">
                        <set attributeName="fill" to="#808080" begin="arrowDown.mouseover" end="arrowDown.mouseout"/>
                  </use>
                  <path fill="none" stroke="white" stroke-width="1.5" d="M0,-3.0v7 M-2.5,-0.5L0,-3.0L2.5,-0.5"/>
                </g>
                <g id="arrowLeft" xlink:href="#dirArrow" transform="rotate(270) translate(-36 17)" onmousedown="handlePan(-1,0)">
                  <use xlink:href="#rim" fill="#404040">
                        <set attributeName="fill" to="#808080" begin="arrowLeft.mouseover" end="arrowLeft.mouseout"/>
                  </use>
                  <path fill="none" stroke="white" stroke-width="1.5" d="M0,-3.0v7 M-2.5,-0.5L0,-3.0L2.5,-0.5"/>
                </g>
        </g>
        <svg viewBox="0 0 15 15" width="100%" height="30px" preserveAspectRatio="xMaxYMin meet">
         <g id="arrow_out" transform="scale(0.3 0.3)">
          <a xlink:href="Leds_8cpp__incl_org.svg" target="_base">
           <rect id="button" ry="5" rx="5" y="6" x="6" height="38" width="38"
                fill="#f2f5e9" fill-opacity="0.5" stroke="#606060" stroke-width="1.0"/>
           <path id="arrow"
             d="M 11.500037,31.436501 C 11.940474,20.09759 22.043105,11.32322 32.158766,21.979434 L 37.068811,17.246167 C 37.068811,17.246167 37.088388,32 37.088388,32 L 22.160133,31.978069 C 22.160133,31.978069 26.997745,27.140456 26.997745,27.140456 C 18.528582,18.264221 13.291696,25.230495 11.500037,31.436501 z"
             style="fill:#404040;"/>
          </a>
         </g>
        </svg>
</svg>
