<?xml version="1.0" encoding="UTF-8" standalone="no"?>
<!DOCTYPE svg PUBLIC "-//W3C//DTD SVG 1.1//EN"
 "http://www.w3.org/Graphics/SVG/1.1/DTD/svg11.dtd">
<!-- Generated by graphviz version 2.43.0 (0)
 -->
<!-- Title: VortexEngine/src/Patterns/Multi/LighthousePattern.h Pages: 1 -->
<svg width="708pt" height="487pt"
 viewBox="0.00 0.00 707.50 487.00" xmlns="http://www.w3.org/2000/svg" xmlns:xlink="http://www.w3.org/1999/xlink">
<g id="graph0" class="graph" transform="scale(1 1) rotate(0) translate(4 483)">
<title>VortexEngine/src/Patterns/Multi/LighthousePattern.h</title>
<!-- Node1 -->
<g id="node1" class="node">
<title>Node1</title>
<g id="a_node1"><a xlink:title=" ">
<polygon fill="#bfbfbf" stroke="black" points="299.5,-448.5 299.5,-478.5 443.5,-478.5 443.5,-448.5 299.5,-448.5"/>
<text text-anchor="start" x="307.5" y="-466.5" font-family="Helvetica,sans-Serif" font-size="10.00">VortexEngine/src/Patterns</text>
<text text-anchor="middle" x="371.5" y="-455.5" font-family="Helvetica,sans-Serif" font-size="10.00">/Multi/LighthousePattern.h</text>
</a>
</g>
</g>
<!-- Node2 -->
<g id="node2" class="node">
<title>Node2</title>
<g id="a_node2"><a xlink:href="BlinkStepPattern_8h.html" target="_top" xlink:title=" ">
<polygon fill="none" stroke="black" points="277,-392.5 277,-411.5 384,-411.5 384,-392.5 277,-392.5"/>
<text text-anchor="middle" x="330.5" y="-399.5" font-family="Helvetica,sans-Serif" font-size="10.00">BlinkStepPattern.h</text>
</a>
</g>
</g>
<!-- Node1&#45;&gt;Node2 -->
<g id="edge1" class="edge">
<title>Node1&#45;&gt;Node2</title>
<path fill="none" stroke="midnightblue" d="M361.79,-448.4C355.95,-439.93 348.49,-429.1 342.32,-420.14"/>
<polygon fill="midnightblue" stroke="midnightblue" points="345.03,-417.91 336.47,-411.66 339.26,-421.88 345.03,-417.91"/>
</g>
<!-- Node16 -->
<g id="node16" class="node">
<title>Node16</title>
<g id="a_node16"><a xlink:href="Timer_8h.html" target="_top" xlink:title=" ">
<polygon fill="none" stroke="black" points="112,-336.5 112,-355.5 211,-355.5 211,-336.5 112,-336.5"/>
<text text-anchor="middle" x="161.5" y="-343.5" font-family="Helvetica,sans-Serif" font-size="10.00">../../Time/Timer.h</text>
</a>
</g>
</g>
<!-- Node1&#45;&gt;Node16 -->
<g id="edge38" class="edge">
<title>Node1&#45;&gt;Node16</title>
<path fill="none" stroke="midnightblue" d="M340.61,-448.47C319.71,-438.74 291.62,-425.21 267.5,-412 237.65,-395.65 204.36,-374.78 183.2,-361.17"/>
<polygon fill="midnightblue" stroke="midnightblue" points="184.94,-358.13 174.64,-355.64 181.14,-364.01 184.94,-358.13"/>
</g>
<!-- Node17 -->
<g id="node17" class="node">
<title>Node17</title>
<g id="a_node17"><a xlink:href="LedStash_8h.html" target="_top" xlink:title=" ">
<polygon fill="none" stroke="black" points="492,-280.5 492,-299.5 605,-299.5 605,-280.5 492,-280.5"/>
<text text-anchor="middle" x="548.5" y="-287.5" font-family="Helvetica,sans-Serif" font-size="10.00">../../Leds/LedStash.h</text>
</a>
</g>
</g>
<!-- Node1&#45;&gt;Node17 -->
<g id="edge28" class="edge">
<title>Node1&#45;&gt;Node17</title>
<path fill="none" stroke="midnightblue" d="M393.91,-448.22C422.31,-429.41 471.75,-394.2 506.5,-356 519.75,-341.45 531.58,-322.27 539.29,-308.53"/>
<polygon fill="midnightblue" stroke="midnightblue" points="542.43,-310.08 544.13,-299.62 536.28,-306.73 542.43,-310.08"/>
</g>
<!-- Node18 -->
<g id="node18" class="node">
<title>Node18</title>
<g id="a_node18"><a xlink:href="Timings_8h.html" target="_top" xlink:title=" ">
<polygon fill="none" stroke="black" points="387.5,-336.5 387.5,-355.5 497.5,-355.5 497.5,-336.5 387.5,-336.5"/>
<text text-anchor="middle" x="442.5" y="-343.5" font-family="Helvetica,sans-Serif" font-size="10.00">../../Time/Timings.h</text>
</a>
</g>
</g>
<!-- Node1&#45;&gt;Node18 -->
<g id="edge32" class="edge">
<title>Node1&#45;&gt;Node18</title>
<path fill="none" stroke="midnightblue" d="M380.21,-448.34C393.24,-427.15 417.77,-387.24 431.85,-364.34"/>
<polygon fill="midnightblue" stroke="midnightblue" points="434.92,-366.02 437.18,-355.67 428.96,-362.36 434.92,-366.02"/>
</g>
<!-- Node3 -->
<g id="node3" class="node">
<title>Node3</title>
<g id="a_node3"><a xlink:href="MultiLedPattern_8h.html" target="_top" xlink:title=" ">
<polygon fill="none" stroke="black" points="229.5,-336.5 229.5,-355.5 331.5,-355.5 331.5,-336.5 229.5,-336.5"/>
<text text-anchor="middle" x="280.5" y="-343.5" font-family="Helvetica,sans-Serif" font-size="10.00">MultiLedPattern.h</text>
</a>
</g>
</g>
<!-- Node2&#45;&gt;Node3 -->
<g id="edge2" class="edge">
<title>Node2&#45;&gt;Node3</title>
<path fill="none" stroke="midnightblue" d="M322.25,-392.08C315.04,-384.3 304.4,-372.8 295.66,-363.37"/>
<polygon fill="midnightblue" stroke="midnightblue" points="297.97,-360.71 288.61,-355.75 292.83,-365.47 297.97,-360.71"/>
</g>
<!-- Node5 -->
<g id="node5" class="node">
<title>Node5</title>
<g id="a_node5"><a xlink:href="LedTypes_8h.html" target="_top" xlink:title=" ">
<polygon fill="none" stroke="black" points="330,-224.5 330,-243.5 435,-243.5 435,-224.5 330,-224.5"/>
<text text-anchor="middle" x="382.5" y="-231.5" font-family="Helvetica,sans-Serif" font-size="10.00">../Leds/LedTypes.h</text>
</a>
</g>
</g>
<!-- Node2&#45;&gt;Node5 -->
<g id="edge27" class="edge">
<title>Node2&#45;&gt;Node5</title>
<path fill="none" stroke="midnightblue" d="M333.3,-392.08C341.52,-365.83 365.73,-288.55 376.83,-253.12"/>
<polygon fill="midnightblue" stroke="midnightblue" points="380.17,-254.16 379.82,-243.57 373.49,-252.06 380.17,-254.16"/>
</g>
<!-- Node2&#45;&gt;Node16 -->
<g id="edge24" class="edge">
<title>Node2&#45;&gt;Node16</title>
<path fill="none" stroke="midnightblue" d="M303.73,-392.44C275.17,-383.32 229.77,-368.81 197.97,-358.65"/>
<polygon fill="midnightblue" stroke="midnightblue" points="198.75,-355.23 188.16,-355.52 196.62,-361.89 198.75,-355.23"/>
</g>
<!-- Node4 -->
<g id="node4" class="node">
<title>Node4</title>
<g id="a_node4"><a xlink:href="Pattern_8h.html" target="_top" xlink:title=" ">
<polygon fill="none" stroke="black" points="224,-280.5 224,-299.5 293,-299.5 293,-280.5 224,-280.5"/>
<text text-anchor="middle" x="258.5" y="-287.5" font-family="Helvetica,sans-Serif" font-size="10.00">../Pattern.h</text>
</a>
</g>
</g>
<!-- Node3&#45;&gt;Node4 -->
<g id="edge3" class="edge">
<title>Node3&#45;&gt;Node4</title>
<path fill="none" stroke="midnightblue" d="M276.87,-336.08C273.89,-328.77 269.58,-318.18 265.88,-309.1"/>
<polygon fill="midnightblue" stroke="midnightblue" points="269.08,-307.69 262.07,-299.75 262.6,-310.33 269.08,-307.69"/>
</g>
<!-- Node4&#45;&gt;Node5 -->
<g id="edge4" class="edge">
<title>Node4&#45;&gt;Node5</title>
<path fill="none" stroke="midnightblue" d="M278.15,-280.44C298.47,-271.6 330.41,-257.69 353.6,-247.59"/>
<polygon fill="midnightblue" stroke="midnightblue" points="355.18,-250.72 362.95,-243.52 352.38,-244.3 355.18,-250.72"/>
</g>
<!-- Node13 -->
<g id="node13" class="node">
<title>Node13</title>
<g id="a_node13"><a xlink:href="Colorset_8h.html" target="_top" xlink:title=" ">
<polygon fill="none" stroke="black" points="227,-168.5 227,-187.5 336,-187.5 336,-168.5 227,-168.5"/>
<text text-anchor="middle" x="281.5" y="-175.5" font-family="Helvetica,sans-Serif" font-size="10.00">../Colors/Colorset.h</text>
</a>
</g>
</g>
<!-- Node4&#45;&gt;Node13 -->
<g id="edge17" class="edge">
<title>Node4&#45;&gt;Node13</title>
<path fill="none" stroke="midnightblue" d="M260.31,-280.37C264.02,-262.62 272.58,-221.67 277.62,-197.6"/>
<polygon fill="midnightblue" stroke="midnightblue" points="281.09,-198.1 279.71,-187.59 274.24,-196.66 281.09,-198.1"/>
</g>
<!-- Node14 -->
<g id="node14" class="node">
<title>Node14</title>
<g id="a_node14"><a xlink:href="Patterns_8h.html" target="_top" xlink:title=" ">
<polygon fill="none" stroke="black" points="29,-112.5 29,-131.5 94,-131.5 94,-112.5 29,-112.5"/>
<text text-anchor="middle" x="61.5" y="-119.5" font-family="Helvetica,sans-Serif" font-size="10.00">Patterns.h</text>
</a>
</g>
</g>
<!-- Node4&#45;&gt;Node14 -->
<g id="edge20" class="edge">
<title>Node4&#45;&gt;Node14</title>
<path fill="none" stroke="midnightblue" d="M223.82,-285.39C175.59,-279.61 91.99,-266.57 72.5,-244 47.89,-215.48 52.27,-167.87 57.16,-141.68"/>
<polygon fill="midnightblue" stroke="midnightblue" points="60.65,-142.1 59.28,-131.6 53.8,-140.66 60.65,-142.1"/>
</g>
<!-- Node15 -->
<g id="node15" class="node">
<title>Node15</title>
<g id="a_node15"><a xlink:href="PatternArgs_8h.html" target="_top" xlink:title=" ">
<polygon fill="none" stroke="black" points="81.5,-224.5 81.5,-243.5 163.5,-243.5 163.5,-224.5 81.5,-224.5"/>
<text text-anchor="middle" x="122.5" y="-231.5" font-family="Helvetica,sans-Serif" font-size="10.00">PatternArgs.h</text>
</a>
</g>
</g>
<!-- Node4&#45;&gt;Node15 -->
<g id="edge22" class="edge">
<title>Node4&#45;&gt;Node15</title>
<path fill="none" stroke="midnightblue" d="M236.96,-280.44C214.47,-271.52 179.02,-257.44 153.53,-247.32"/>
<polygon fill="midnightblue" stroke="midnightblue" points="154.54,-243.95 143.95,-243.52 151.96,-250.46 154.54,-243.95"/>
</g>
<!-- Node6 -->
<g id="node6" class="node">
<title>Node6</title>
<g id="a_node6"><a xlink:title=" ">
<polygon fill="none" stroke="#bfbfbf" points="128,-56.5 128,-75.5 193,-75.5 193,-56.5 128,-56.5"/>
<text text-anchor="middle" x="160.5" y="-63.5" font-family="Helvetica,sans-Serif" font-size="10.00">inttypes.h</text>
</a>
</g>
</g>
<!-- Node5&#45;&gt;Node6 -->
<g id="edge5" class="edge">
<title>Node5&#45;&gt;Node6</title>
<path fill="none" stroke="midnightblue" d="M329.66,-229.92C294.38,-225.36 248.89,-214.35 217.5,-188 200.87,-174.04 178.12,-115.89 167.07,-85.57"/>
<polygon fill="midnightblue" stroke="midnightblue" points="170.23,-84.03 163.56,-75.8 163.64,-86.39 170.23,-84.03"/>
</g>
<!-- Node7 -->
<g id="node7" class="node">
<title>Node7</title>
<g id="a_node7"><a xlink:title=" ">
<polygon fill="none" stroke="#bfbfbf" points="354.5,-168.5 354.5,-187.5 410.5,-187.5 410.5,-168.5 354.5,-168.5"/>
<text text-anchor="middle" x="382.5" y="-175.5" font-family="Helvetica,sans-Serif" font-size="10.00">stdarg.h</text>
</a>
</g>
</g>
<!-- Node5&#45;&gt;Node7 -->
<g id="edge6" class="edge">
<title>Node5&#45;&gt;Node7</title>
<path fill="none" stroke="midnightblue" d="M382.5,-224.08C382.5,-217.01 382.5,-206.86 382.5,-197.99"/>
<polygon fill="midnightblue" stroke="midnightblue" points="386,-197.75 382.5,-187.75 379,-197.75 386,-197.75"/>
</g>
<!-- Node8 -->
<g id="node8" class="node">
<title>Node8</title>
<g id="a_node8"><a xlink:href="Leds_8h.html" target="_top" xlink:title=" ">
<polygon fill="none" stroke="black" points="429,-168.5 429,-187.5 512,-187.5 512,-168.5 429,-168.5"/>
<text text-anchor="middle" x="470.5" y="-175.5" font-family="Helvetica,sans-Serif" font-size="10.00">../Leds/Leds.h</text>
</a>
</g>
</g>
<!-- Node5&#45;&gt;Node8 -->
<g id="edge7" class="edge">
<title>Node5&#45;&gt;Node8</title>
<path fill="none" stroke="midnightblue" d="M396.64,-224.32C410.37,-215.9 431.44,-202.97 447.57,-193.07"/>
<polygon fill="midnightblue" stroke="midnightblue" points="449.71,-195.87 456.4,-187.65 446.05,-189.9 449.71,-195.87"/>
</g>
<!-- Node10 -->
<g id="node10" class="node">
<title>Node10</title>
<g id="a_node10"><a xlink:href="VortexConfig_8h.html" target="_top" xlink:title=" ">
<polygon fill="none" stroke="black" points="471,-56.5 471,-75.5 568,-75.5 568,-56.5 471,-56.5"/>
<text text-anchor="middle" x="519.5" y="-63.5" font-family="Helvetica,sans-Serif" font-size="10.00">../VortexConfig.h</text>
</a>
</g>
</g>
<!-- Node5&#45;&gt;Node10 -->
<g id="edge16" class="edge">
<title>Node5&#45;&gt;Node10</title>
<path fill="none" stroke="midnightblue" d="M435.23,-230.56C465.75,-226.11 501.88,-214.97 521.5,-188 543.56,-157.67 533.89,-110.81 526.01,-85.22"/>
<polygon fill="midnightblue" stroke="midnightblue" points="529.31,-84.05 522.84,-75.66 522.67,-86.25 529.31,-84.05"/>
</g>
<!-- Node8&#45;&gt;Node6 -->
<g id="edge8" class="edge">
<title>Node8&#45;&gt;Node6</title>
<path fill="none" stroke="midnightblue" d="M446.44,-168.46C391.61,-149.01 257.32,-101.36 194.26,-78.98"/>
<polygon fill="midnightblue" stroke="midnightblue" points="195.37,-75.66 184.77,-75.61 193.02,-82.25 195.37,-75.66"/>
</g>
<!-- Node9 -->
<g id="node9" class="node">
<title>Node9</title>
<g id="a_node9"><a xlink:href="ColorTypes_8h.html" target="_top" xlink:title=" ">
<polygon fill="none" stroke="black" points="369.5,-112.5 369.5,-131.5 491.5,-131.5 491.5,-112.5 369.5,-112.5"/>
<text text-anchor="middle" x="430.5" y="-119.5" font-family="Helvetica,sans-Serif" font-size="10.00">../Colors/ColorTypes.h</text>
</a>
</g>
</g>
<!-- Node8&#45;&gt;Node9 -->
<g id="edge9" class="edge">
<title>Node8&#45;&gt;Node9</title>
<path fill="none" stroke="midnightblue" d="M463.9,-168.08C458.25,-160.46 449.96,-149.26 443.05,-139.94"/>
<polygon fill="midnightblue" stroke="midnightblue" points="445.75,-137.7 436.99,-131.75 440.13,-141.87 445.75,-137.7"/>
</g>
<!-- Node8&#45;&gt;Node10 -->
<g id="edge14" class="edge">
<title>Node8&#45;&gt;Node10</title>
<path fill="none" stroke="midnightblue" d="M477.57,-168.18C484.28,-159.44 494.24,-145.45 500.5,-132 507.49,-117.01 512.53,-98.88 515.66,-85.58"/>
<polygon fill="midnightblue" stroke="midnightblue" points="519.1,-86.23 517.84,-75.71 512.27,-84.72 519.1,-86.23"/>
</g>
<!-- Node12 -->
<g id="node12" class="node">
<title>Node12</title>
<g id="a_node12"><a xlink:title=" ">
<polygon fill="none" stroke="#bfbfbf" points="586,-112.5 586,-131.5 633,-131.5 633,-112.5 586,-112.5"/>
<text text-anchor="middle" x="609.5" y="-119.5" font-family="Helvetica,sans-Serif" font-size="10.00">vector</text>
</a>
</g>
</g>
<!-- Node8&#45;&gt;Node12 -->
<g id="edge15" class="edge">
<title>Node8&#45;&gt;Node12</title>
<path fill="none" stroke="midnightblue" d="M492.53,-168.44C515.61,-159.48 552.07,-145.31 578.15,-135.18"/>
<polygon fill="midnightblue" stroke="midnightblue" points="579.53,-138.4 587.58,-131.52 576.99,-131.88 579.53,-138.4"/>
</g>
<!-- Node9&#45;&gt;Node6 -->
<g id="edge10" class="edge">
<title>Node9&#45;&gt;Node6</title>
<path fill="none" stroke="midnightblue" d="M387.72,-112.44C337.22,-102.34 253.75,-85.65 203.26,-75.55"/>
<polygon fill="midnightblue" stroke="midnightblue" points="203.81,-72.09 193.32,-73.56 202.44,-78.96 203.81,-72.09"/>
</g>
<!-- Node9&#45;&gt;Node10 -->
<g id="edge11" class="edge">
<title>Node9&#45;&gt;Node10</title>
<path fill="none" stroke="midnightblue" d="M444.8,-112.32C458.69,-103.9 480,-90.97 496.31,-81.07"/>
<polygon fill="midnightblue" stroke="midnightblue" points="498.51,-83.83 505.24,-75.65 494.88,-77.85 498.51,-83.83"/>
</g>
<!-- Node11 -->
<g id="node11" class="node">
<title>Node11</title>
<g id="a_node11"><a xlink:href="ColorConstants_8h.html" target="_top" xlink:title=" ">
<polygon fill="none" stroke="black" points="410.5,-0.5 410.5,-19.5 544.5,-19.5 544.5,-0.5 410.5,-0.5"/>
<text text-anchor="middle" x="477.5" y="-7.5" font-family="Helvetica,sans-Serif" font-size="10.00">Colors/ColorConstants.h</text>
</a>
</g>
</g>
<!-- Node9&#45;&gt;Node11 -->
<g id="edge13" class="edge">
<title>Node9&#45;&gt;Node11</title>
<path fill="none" stroke="midnightblue" d="M434.19,-112.37C441.85,-94.46 459.59,-52.92 469.84,-28.95"/>
<polygon fill="midnightblue" stroke="midnightblue" points="473.12,-30.16 473.83,-19.59 466.69,-27.41 473.12,-30.16"/>
</g>
<!-- Node10&#45;&gt;Node11 -->
<g id="edge12" class="edge">
<title>Node10&#45;&gt;Node11</title>
<path fill="none" stroke="midnightblue" d="M512.57,-56.08C506.58,-48.38 497.75,-37.03 490.46,-27.65"/>
<polygon fill="midnightblue" stroke="midnightblue" points="493.21,-25.5 484.31,-19.75 487.69,-29.79 493.21,-25.5"/>
</g>
<!-- Node13&#45;&gt;Node9 -->
<g id="edge18" class="edge">
<title>Node13&#45;&gt;Node9</title>
<path fill="none" stroke="midnightblue" d="M305.11,-168.44C329.96,-159.44 369.28,-145.19 397.26,-135.05"/>
<polygon fill="midnightblue" stroke="midnightblue" points="398.8,-138.21 407.01,-131.52 396.41,-131.63 398.8,-138.21"/>
</g>
<!-- Node13&#45;&gt;Node10 -->
<g id="edge19" class="edge">
<title>Node13&#45;&gt;Node10</title>
<path fill="none" stroke="midnightblue" d="M289.87,-168.06C303.41,-154.1 331.55,-127.15 360.5,-112 391.93,-95.56 430.08,-84.5 461.13,-77.46"/>
<polygon fill="midnightblue" stroke="midnightblue" points="461.93,-80.87 470.95,-75.32 460.43,-74.03 461.93,-80.87"/>
</g>
<!-- Node14&#45;&gt;Node6 -->
<g id="edge21" class="edge">
<title>Node14&#45;&gt;Node6</title>
<path fill="none" stroke="midnightblue" d="M77.41,-112.32C93.14,-103.74 117.45,-90.49 135.71,-80.52"/>
<polygon fill="midnightblue" stroke="midnightblue" points="137.54,-83.52 144.64,-75.65 134.18,-77.37 137.54,-83.52"/>
</g>
<!-- Node15&#45;&gt;Node6 -->
<g id="edge23" class="edge">
<title>Node15&#45;&gt;Node6</title>
<path fill="none" stroke="midnightblue" d="M123.88,-224.42C127.16,-204.52 135.91,-153.72 146.5,-112 148.77,-103.07 151.76,-93.28 154.39,-85.13"/>
<polygon fill="midnightblue" stroke="midnightblue" points="157.74,-86.14 157.55,-75.55 151.09,-83.95 157.74,-86.14"/>
</g>
<!-- Node16&#45;&gt;Node5 -->
<g id="edge26" class="edge">
<title>Node16&#45;&gt;Node5</title>
<path fill="none" stroke="midnightblue" d="M200.77,-336.47C229.72,-329.23 269.47,-317.24 301.5,-300 326.16,-286.74 350.7,-265.65 366.2,-251.12"/>
<polygon fill="midnightblue" stroke="midnightblue" points="369.03,-253.25 373.82,-243.8 364.18,-248.2 369.03,-253.25"/>
</g>
<!-- Node16&#45;&gt;Node6 -->
<g id="edge25" class="edge">
<title>Node16&#45;&gt;Node6</title>
<path fill="none" stroke="midnightblue" d="M122.12,-336.39C74.46,-323.38 0.5,-293.73 0.5,-235 0.5,-235 0.5,-235 0.5,-177 0.5,-146.9 -1.51,-133.54 19.5,-112 45.3,-85.56 86.59,-74.63 117.83,-70.12"/>
<polygon fill="midnightblue" stroke="midnightblue" points="118.53,-73.56 128,-68.82 117.64,-66.62 118.53,-73.56"/>
</g>
<!-- Node17&#45;&gt;Node5 -->
<g id="edge30" class="edge">
<title>Node17&#45;&gt;Node5</title>
<path fill="none" stroke="midnightblue" d="M522.2,-280.44C494.15,-271.32 449.56,-256.81 418.32,-246.65"/>
<polygon fill="midnightblue" stroke="midnightblue" points="419.28,-243.28 408.69,-243.52 417.11,-249.94 419.28,-243.28"/>
</g>
<!-- Node17&#45;&gt;Node9 -->
<g id="edge29" class="edge">
<title>Node17&#45;&gt;Node9</title>
<path fill="none" stroke="midnightblue" d="M548.97,-280.33C549.66,-258.87 548.62,-202.54 521.5,-168 509.38,-152.56 490.59,-142.04 473.21,-135.08"/>
<polygon fill="midnightblue" stroke="midnightblue" points="474.35,-131.77 463.76,-131.57 471.92,-138.33 474.35,-131.77"/>
</g>
<!-- Node17&#45;&gt;Node12 -->
<g id="edge31" class="edge">
<title>Node17&#45;&gt;Node12</title>
<path fill="none" stroke="midnightblue" d="M552.86,-280.27C561.36,-262.99 580.36,-223.06 592.5,-188 597.82,-172.65 602.38,-154.78 605.44,-141.66"/>
<polygon fill="midnightblue" stroke="midnightblue" points="608.93,-142.06 607.72,-131.54 602.1,-140.53 608.93,-142.06"/>
</g>
<!-- Node18&#45;&gt;Node10 -->
<g id="edge37" class="edge">
<title>Node18&#45;&gt;Node10</title>
<path fill="none" stroke="midnightblue" d="M497.64,-344.74C573.15,-341.15 699.5,-322.12 699.5,-235 699.5,-235 699.5,-235 699.5,-177 699.5,-119.03 630.68,-90.69 578.15,-77.5"/>
<polygon fill="midnightblue" stroke="midnightblue" points="578.75,-74.05 568.22,-75.14 577.13,-80.86 578.75,-74.05"/>
</g>
<!-- Node19 -->
<g id="node19" class="node">
<title>Node19</title>
<g id="a_node19"><a xlink:href="TimeControl_8h.html" target="_top" xlink:title=" ">
<polygon fill="none" stroke="black" points="387.5,-280.5 387.5,-299.5 473.5,-299.5 473.5,-280.5 387.5,-280.5"/>
<text text-anchor="middle" x="430.5" y="-287.5" font-family="Helvetica,sans-Serif" font-size="10.00">TimeControl.h</text>
</a>
</g>
</g>
<!-- Node18&#45;&gt;Node19 -->
<g id="edge33" class="edge">
<title>Node18&#45;&gt;Node19</title>
<path fill="none" stroke="midnightblue" d="M440.52,-336.08C438.93,-328.93 436.65,-318.64 434.66,-309.69"/>
<polygon fill="midnightblue" stroke="midnightblue" points="438.04,-308.75 432.45,-299.75 431.2,-310.27 438.04,-308.75"/>
</g>
<!-- Node19&#45;&gt;Node5 -->
<g id="edge36" class="edge">
<title>Node19&#45;&gt;Node5</title>
<path fill="none" stroke="midnightblue" d="M422.58,-280.08C415.66,-272.3 405.44,-260.8 397.05,-251.37"/>
<polygon fill="midnightblue" stroke="midnightblue" points="399.54,-248.9 390.28,-243.75 394.31,-253.55 399.54,-248.9"/>
</g>
<!-- Node19&#45;&gt;Node6 -->
<g id="edge34" class="edge">
<title>Node19&#45;&gt;Node6</title>
<path fill="none" stroke="midnightblue" d="M387.5,-280.4C336.48,-268.13 251.76,-240.97 199.5,-188 171.83,-159.94 163.78,-112.15 161.45,-85.81"/>
<polygon fill="midnightblue" stroke="midnightblue" points="164.93,-85.39 160.75,-75.66 157.95,-85.88 164.93,-85.39"/>
</g>
<!-- Node19&#45;&gt;Node10 -->
<g id="edge35" class="edge">
<title>Node19&#45;&gt;Node10</title>
<path fill="none" stroke="midnightblue" d="M453.33,-280.38C499.3,-261.61 602.12,-212.17 642.5,-132 658.23,-100.78 616.86,-84.09 577.93,-75.47"/>
<polygon fill="midnightblue" stroke="midnightblue" points="578.62,-72.04 568.12,-73.45 577.21,-78.9 578.62,-72.04"/>
</g>
</g>
</svg>
