<?xml version="1.0" encoding="UTF-8" standalone="no"?>
<!DOCTYPE svg PUBLIC "-//W3C//DTD SVG 1.1//EN"
 "http://www.w3.org/Graphics/SVG/1.1/DTD/svg11.dtd">
<!-- Generated by graphviz version 2.43.0 (0)
 -->
<!-- Title: VortexEngine/src/Log/Log.cpp Pages: 1 -->
<svg width="413pt" height="263pt"
 viewBox="0.00 0.00 412.69 263.00" xmlns="http://www.w3.org/2000/svg" xmlns:xlink="http://www.w3.org/1999/xlink">
<g id="graph0" class="graph" transform="scale(1 1) rotate(0) translate(4 259)">
<title>VortexEngine/src/Log/Log.cpp</title>
<!-- Node1 -->
<g id="node1" class="node">
<title>Node1</title>
<g id="a_node1"><a xlink:title=" ">
<polygon fill="#bfbfbf" stroke="black" points="150.19,-224.5 150.19,-254.5 269.19,-254.5 269.19,-224.5 150.19,-224.5"/>
<text text-anchor="start" x="158.19" y="-242.5" font-family="Helvetica,sans-Serif" font-size="10.00">VortexEngine/src/Log</text>
<text text-anchor="middle" x="209.69" y="-231.5" font-family="Helvetica,sans-Serif" font-size="10.00">/Log.cpp</text>
</a>
</g>
</g>
<!-- Node2 -->
<g id="node2" class="node">
<title>Node2</title>
<g id="a_node2"><a xlink:href="Log_8h.html" target="_top" xlink:title=" ">
<polygon fill="none" stroke="black" points="12.19,-112.5 12.19,-131.5 55.19,-131.5 55.19,-112.5 12.19,-112.5"/>
<text text-anchor="middle" x="33.69" y="-119.5" font-family="Helvetica,sans-Serif" font-size="10.00">Log.h</text>
</a>
</g>
</g>
<!-- Node1&#45;&gt;Node2 -->
<g id="edge1" class="edge">
<title>Node1&#45;&gt;Node2</title>
<path fill="none" stroke="midnightblue" d="M167.8,-224.49C145.29,-215.87 117.73,-203.51 95.69,-188 76.25,-174.33 57.99,-153.9 46.38,-139.61"/>
<polygon fill="midnightblue" stroke="midnightblue" points="49.02,-137.29 40.07,-131.61 43.52,-141.63 49.02,-137.29"/>
</g>
<!-- Node3 -->
<g id="node3" class="node">
<title>Node3</title>
<g id="a_node3"><a xlink:title=" ">
<polygon fill="none" stroke="#bfbfbf" points="3.69,-56.5 3.69,-75.5 59.69,-75.5 59.69,-56.5 3.69,-56.5"/>
<text text-anchor="middle" x="31.69" y="-63.5" font-family="Helvetica,sans-Serif" font-size="10.00">stdarg.h</text>
</a>
</g>
</g>
<!-- Node1&#45;&gt;Node3 -->
<g id="edge14" class="edge">
<title>Node1&#45;&gt;Node3</title>
<path fill="none" stroke="midnightblue" d="M149.84,-228.1C98.6,-215.47 29.04,-188.38 2.69,-132 -4.95,-115.65 5.55,-96.81 16,-83.63"/>
<polygon fill="midnightblue" stroke="midnightblue" points="18.8,-85.74 22.66,-75.88 13.49,-81.18 18.8,-85.74"/>
</g>
<!-- Node6 -->
<g id="node6" class="node">
<title>Node6</title>
<g id="a_node6"><a xlink:href="TimeControl_8h.html" target="_top" xlink:title=" ">
<polygon fill="none" stroke="black" points="104.69,-168.5 104.69,-187.5 226.69,-187.5 226.69,-168.5 104.69,-168.5"/>
<text text-anchor="middle" x="165.69" y="-175.5" font-family="Helvetica,sans-Serif" font-size="10.00">../Time/TimeControl.h</text>
</a>
</g>
</g>
<!-- Node1&#45;&gt;Node6 -->
<g id="edge5" class="edge">
<title>Node1&#45;&gt;Node6</title>
<path fill="none" stroke="midnightblue" d="M199.26,-224.4C192.93,-215.84 184.82,-204.87 178.15,-195.86"/>
<polygon fill="midnightblue" stroke="midnightblue" points="180.85,-193.62 172.09,-187.66 175.22,-197.78 180.85,-193.62"/>
</g>
<!-- Node9 -->
<g id="node9" class="node">
<title>Node9</title>
<g id="a_node9"><a xlink:href="Serial_8h.html" target="_top" xlink:title=" ">
<polygon fill="none" stroke="black" points="273.19,-112.5 273.19,-131.5 366.19,-131.5 366.19,-112.5 273.19,-112.5"/>
<text text-anchor="middle" x="319.69" y="-119.5" font-family="Helvetica,sans-Serif" font-size="10.00">../Serial/Serial.h</text>
</a>
</g>
</g>
<!-- Node1&#45;&gt;Node9 -->
<g id="edge12" class="edge">
<title>Node1&#45;&gt;Node9</title>
<path fill="none" stroke="midnightblue" d="M222.47,-224.3C235.46,-209.95 256.24,-187.21 274.69,-168 284.18,-158.12 295.03,-147.25 303.71,-138.67"/>
<polygon fill="midnightblue" stroke="midnightblue" points="306.29,-141.04 310.95,-131.52 301.37,-136.05 306.29,-141.04"/>
</g>
<!-- Node10 -->
<g id="node10" class="node">
<title>Node10</title>
<g id="a_node10"><a xlink:title=" ">
<polygon fill="none" stroke="#bfbfbf" points="283.19,-168.5 283.19,-187.5 336.19,-187.5 336.19,-168.5 283.19,-168.5"/>
<text text-anchor="middle" x="309.69" y="-175.5" font-family="Helvetica,sans-Serif" font-size="10.00">string.h</text>
</a>
</g>
</g>
<!-- Node1&#45;&gt;Node10 -->
<g id="edge15" class="edge">
<title>Node1&#45;&gt;Node10</title>
<path fill="none" stroke="midnightblue" d="M233.38,-224.4C249.41,-214.86 270.48,-202.32 286.42,-192.84"/>
<polygon fill="midnightblue" stroke="midnightblue" points="288.33,-195.78 295.14,-187.66 284.75,-189.76 288.33,-195.78"/>
</g>
<!-- Node11 -->
<g id="node11" class="node">
<title>Node11</title>
<g id="a_node11"><a xlink:title=" ">
<polygon fill="none" stroke="#bfbfbf" points="354.69,-168.5 354.69,-187.5 404.69,-187.5 404.69,-168.5 354.69,-168.5"/>
<text text-anchor="middle" x="379.69" y="-175.5" font-family="Helvetica,sans-Serif" font-size="10.00">stdio.h</text>
</a>
</g>
</g>
<!-- Node1&#45;&gt;Node11 -->
<g id="edge16" class="edge">
<title>Node1&#45;&gt;Node11</title>
<path fill="none" stroke="midnightblue" d="M249.97,-224.4C279.01,-214.24 317.77,-200.67 345.34,-191.02"/>
<polygon fill="midnightblue" stroke="midnightblue" points="346.67,-194.26 354.95,-187.66 344.35,-187.66 346.67,-194.26"/>
</g>
<!-- Node2&#45;&gt;Node3 -->
<g id="edge2" class="edge">
<title>Node2&#45;&gt;Node3</title>
<path fill="none" stroke="midnightblue" d="M33.36,-112.08C33.09,-105.01 32.72,-94.86 32.39,-85.99"/>
<polygon fill="midnightblue" stroke="midnightblue" points="35.88,-85.61 32.01,-75.75 28.88,-85.87 35.88,-85.61"/>
</g>
<!-- Node4 -->
<g id="node4" class="node">
<title>Node4</title>
<g id="a_node4"><a xlink:href="VortexConfig_8h.html" target="_top" xlink:title=" ">
<polygon fill="none" stroke="black" points="78.19,-56.5 78.19,-75.5 175.19,-75.5 175.19,-56.5 78.19,-56.5"/>
<text text-anchor="middle" x="126.69" y="-63.5" font-family="Helvetica,sans-Serif" font-size="10.00">../VortexConfig.h</text>
</a>
</g>
</g>
<!-- Node2&#45;&gt;Node4 -->
<g id="edge3" class="edge">
<title>Node2&#45;&gt;Node4</title>
<path fill="none" stroke="midnightblue" d="M48.63,-112.32C63.27,-103.82 85.82,-90.73 102.92,-80.8"/>
<polygon fill="midnightblue" stroke="midnightblue" points="104.89,-83.7 111.78,-75.65 101.38,-77.65 104.89,-83.7"/>
</g>
<!-- Node5 -->
<g id="node5" class="node">
<title>Node5</title>
<g id="a_node5"><a xlink:href="ColorConstants_8h.html" target="_top" xlink:title=" ">
<polygon fill="none" stroke="black" points="59.69,-0.5 59.69,-19.5 193.69,-19.5 193.69,-0.5 59.69,-0.5"/>
<text text-anchor="middle" x="126.69" y="-7.5" font-family="Helvetica,sans-Serif" font-size="10.00">Colors/ColorConstants.h</text>
</a>
</g>
</g>
<!-- Node4&#45;&gt;Node5 -->
<g id="edge4" class="edge">
<title>Node4&#45;&gt;Node5</title>
<path fill="none" stroke="midnightblue" d="M126.69,-56.08C126.69,-49.01 126.69,-38.86 126.69,-29.99"/>
<polygon fill="midnightblue" stroke="midnightblue" points="130.19,-29.75 126.69,-19.75 123.19,-29.75 130.19,-29.75"/>
</g>
<!-- Node6&#45;&gt;Node4 -->
<g id="edge7" class="edge">
<title>Node6&#45;&gt;Node4</title>
<path fill="none" stroke="midnightblue" d="M172.66,-168.26C181.97,-155.47 196.23,-131.09 186.69,-112 179.96,-98.54 167.08,-88.07 154.97,-80.62"/>
<polygon fill="midnightblue" stroke="midnightblue" points="156.41,-77.41 145.98,-75.52 152.95,-83.5 156.41,-77.41"/>
</g>
<!-- Node7 -->
<g id="node7" class="node">
<title>Node7</title>
<g id="a_node7"><a xlink:title=" ">
<polygon fill="none" stroke="#bfbfbf" points="212.19,-56.5 212.19,-75.5 277.19,-75.5 277.19,-56.5 212.19,-56.5"/>
<text text-anchor="middle" x="244.69" y="-63.5" font-family="Helvetica,sans-Serif" font-size="10.00">inttypes.h</text>
</a>
</g>
</g>
<!-- Node6&#45;&gt;Node7 -->
<g id="edge6" class="edge">
<title>Node6&#45;&gt;Node7</title>
<path fill="none" stroke="midnightblue" d="M173.37,-168.27C181.07,-159.38 193.14,-145.07 202.69,-132 214.17,-116.29 226.1,-97.55 234.3,-84.23"/>
<polygon fill="midnightblue" stroke="midnightblue" points="237.33,-85.98 239.55,-75.62 231.36,-82.34 237.33,-85.98"/>
</g>
<!-- Node8 -->
<g id="node8" class="node">
<title>Node8</title>
<g id="a_node8"><a xlink:href="LedTypes_8h.html" target="_top" xlink:title=" ">
<polygon fill="none" stroke="black" points="73.19,-112.5 73.19,-131.5 178.19,-131.5 178.19,-112.5 73.19,-112.5"/>
<text text-anchor="middle" x="125.69" y="-119.5" font-family="Helvetica,sans-Serif" font-size="10.00">../Leds/LedTypes.h</text>
</a>
</g>
</g>
<!-- Node6&#45;&gt;Node8 -->
<g id="edge8" class="edge">
<title>Node6&#45;&gt;Node8</title>
<path fill="none" stroke="midnightblue" d="M159.08,-168.08C153.43,-160.46 145.14,-149.26 138.23,-139.94"/>
<polygon fill="midnightblue" stroke="midnightblue" points="140.93,-137.7 132.17,-131.75 135.31,-141.87 140.93,-137.7"/>
</g>
<!-- Node8&#45;&gt;Node3 -->
<g id="edge10" class="edge">
<title>Node8&#45;&gt;Node3</title>
<path fill="none" stroke="midnightblue" d="M110.58,-112.32C95.78,-103.82 72.99,-90.73 55.7,-80.8"/>
<polygon fill="midnightblue" stroke="midnightblue" points="57.17,-77.6 46.75,-75.65 53.68,-83.67 57.17,-77.6"/>
</g>
<!-- Node8&#45;&gt;Node4 -->
<g id="edge11" class="edge">
<title>Node8&#45;&gt;Node4</title>
<path fill="none" stroke="midnightblue" d="M125.85,-112.08C125.98,-105.01 126.17,-94.86 126.33,-85.99"/>
<polygon fill="midnightblue" stroke="midnightblue" points="129.84,-85.81 126.52,-75.75 122.84,-85.68 129.84,-85.81"/>
</g>
<!-- Node8&#45;&gt;Node7 -->
<g id="edge9" class="edge">
<title>Node8&#45;&gt;Node7</title>
<path fill="none" stroke="midnightblue" d="M144.54,-112.44C163.95,-103.64 194.42,-89.81 216.65,-79.72"/>
<polygon fill="midnightblue" stroke="midnightblue" points="218.26,-82.84 225.92,-75.52 215.37,-76.46 218.26,-82.84"/>
</g>
<!-- Node9&#45;&gt;Node7 -->
<g id="edge13" class="edge">
<title>Node9&#45;&gt;Node7</title>
<path fill="none" stroke="midnightblue" d="M307.64,-112.32C296.22,-104.11 278.86,-91.6 265.25,-81.81"/>
<polygon fill="midnightblue" stroke="midnightblue" points="267.12,-78.84 256.96,-75.83 263.03,-84.52 267.12,-78.84"/>
</g>
</g>
</svg>
