<?xml version="1.0" encoding="UTF-8" standalone="no"?>
<!DOCTYPE svg PUBLIC "-//W3C//DTD SVG 1.1//EN"
 "http://www.w3.org/Graphics/SVG/1.1/DTD/svg11.dtd">
<!-- Generated by graphviz version 2.43.0 (0)
 -->
<!-- Title: VortexEngine/src/Menus/MainMenu.cpp Pages: 1 -->
<!--zoomable 375 -->
<svg id="main" version="1.1" xmlns="http://www.w3.org/2000/svg" xmlns:xlink="http://www.w3.org/1999/xlink" xml:space="preserve" onload="init(evt)">
<style type="text/css"><![CDATA[
.edge:hover path { stroke: red; }
.edge:hover polygon { stroke: red; fill: red; }
]]></style>
<script type="text/javascript"><![CDATA[
var edges = document.getElementsByTagName('g');
if (edges && edges.length) {
  for (var i=0;i<edges.length;i++) {
    if (edges[i].id.substr(0,4)=='edge') {
      edges[i].setAttribute('class','edge');
    }
  }
}
]]></script>
        <defs>
                <circle id="rim" cx="0" cy="0" r="7"/>
                <circle id="rim2" cx="0" cy="0" r="3.5"/>
                <g id="zoomPlus">
                        <use xlink:href="#rim" fill="#404040">
                                <set attributeName="fill" to="#808080" begin="zoomplus.mouseover" end="zoomplus.mouseout"/>
                        </use>
                        <path d="M-4,0h8M0,-4v8" fill="none" stroke="white" stroke-width="1.5" pointer-events="none"/>
                </g>
                <g id="zoomMin">
                        <use xlink:href="#rim" fill="#404040">
                                <set attributeName="fill" to="#808080" begin="zoomminus.mouseover" end="zoomminus.mouseout"/>
                        </use>
                        <path d="M-4,0h8" fill="none" stroke="white" stroke-width="1.5" pointer-events="none"/>
                </g>
                <g id="dirArrow">
                        <path fill="none" stroke="white" stroke-width="1.5" d="M0,-3.0v7 M-2.5,-0.5L0,-3.0L2.5,-0.5"/>
                </g>
               <g id="resetDef">
                       <use xlink:href="#rim2" fill="#404040">
                               <set attributeName="fill" to="#808080" begin="reset.mouseover" end="reset.mouseout"/>
                       </use>
               </g>
        </defs>

<script type="text/javascript">
var viewWidth = 905;
var viewHeight = 375;
var sectionId = 'dynsection-0';
</script>
<script xlink:href="svgpan.js"/>
<svg id="graph" class="graph">
<g id="viewport">
<title>VortexEngine/src/Menus/MainMenu.cpp</title>
<!-- Node1 -->
<g id="node1" class="node">
<title>Node1</title>
<g id="a_node1"><a xlink:title=" ">
<polygon fill="#bfbfbf" stroke="black" points="491.5,-336.5 491.5,-366.5 625.5,-366.5 625.5,-336.5 491.5,-336.5"/>
<text text-anchor="start" x="499.5" y="-354.5" font-family="Helvetica,sans-Serif" font-size="10.00">VortexEngine/src/Menus</text>
<text text-anchor="middle" x="558.5" y="-343.5" font-family="Helvetica,sans-Serif" font-size="10.00">/MainMenu.cpp</text>
</a>
</g>
</g>
<!-- Node2 -->
<g id="node2" class="node">
<title>Node2</title>
<g id="a_node2"><a xlink:href="MainMenu_8h.html" target="_top" xlink:title=" ">
<polygon fill="none" stroke="black" points="0,-224.5 0,-243.5 77,-243.5 77,-224.5 0,-224.5"/>
<text text-anchor="middle" x="38.5" y="-231.5" font-family="Helvetica,sans-Serif" font-size="10.00">MainMenu.h</text>
</a>
</g>
</g>
<!-- Node1&#45;&gt;Node2 -->
<g id="edge1" class="edge">
<title>Node1&#45;&gt;Node2</title>
<path fill="none" stroke="midnightblue" d="M491.3,-350.78C408.12,-349.22 263.17,-340.21 146.5,-300 112.8,-288.39 78.26,-265.23 57.59,-249.93"/>
<polygon fill="midnightblue" stroke="midnightblue" points="59.46,-246.96 49.38,-243.71 55.24,-252.54 59.46,-246.96"/>
</g>
<!-- Node4 -->
<g id="node4" class="node">
<title>Node4</title>
<g id="a_node4"><a xlink:href="TimeControl_8h.html" target="_top" xlink:title=" ">
<polygon fill="none" stroke="black" points="744.5,-168.5 744.5,-187.5 866.5,-187.5 866.5,-168.5 744.5,-168.5"/>
<text text-anchor="middle" x="805.5" y="-175.5" font-family="Helvetica,sans-Serif" font-size="10.00">../Time/TimeControl.h</text>
</a>
</g>
</g>
<!-- Node1&#45;&gt;Node4 -->
<g id="edge3" class="edge">
<title>Node1&#45;&gt;Node4</title>
<path fill="none" stroke="midnightblue" d="M578.71,-336.47C624.94,-304.37 738,-225.87 784.75,-193.41"/>
<polygon fill="midnightblue" stroke="midnightblue" points="786.95,-196.14 793.17,-187.56 782.96,-190.39 786.95,-196.14"/>
</g>
<!-- Node7 -->
<g id="node7" class="node">
<title>Node7</title>
<g id="a_node7"><a xlink:href="LedTypes_8h.html" target="_top" xlink:title=" ">
<polygon fill="none" stroke="black" points="753,-112.5 753,-131.5 858,-131.5 858,-112.5 753,-112.5"/>
<text text-anchor="middle" x="805.5" y="-119.5" font-family="Helvetica,sans-Serif" font-size="10.00">../Leds/LedTypes.h</text>
</a>
</g>
</g>
<!-- Node1&#45;&gt;Node7 -->
<g id="edge16" class="edge">
<title>Node1&#45;&gt;Node7</title>
<path fill="none" stroke="midnightblue" d="M625.65,-337.65C701.52,-319.15 821.45,-276.91 875.5,-188 888.58,-166.48 861.52,-147.62 837.33,-135.84"/>
<polygon fill="midnightblue" stroke="midnightblue" points="838.5,-132.52 827.95,-131.53 835.58,-138.88 838.5,-132.52"/>
</g>
<!-- Node9 -->
<g id="node9" class="node">
<title>Node9</title>
<g id="a_node9"><a xlink:href="Storage_8h.html" target="_top" xlink:title=" ">
<polygon fill="none" stroke="black" points="155,-280.5 155,-299.5 268,-299.5 268,-280.5 155,-280.5"/>
<text text-anchor="middle" x="211.5" y="-287.5" font-family="Helvetica,sans-Serif" font-size="10.00">../Storage/Storage.h</text>
</a>
</g>
</g>
<!-- Node1&#45;&gt;Node9 -->
<g id="edge11" class="edge">
<title>Node1&#45;&gt;Node9</title>
<path fill="none" stroke="midnightblue" d="M491.18,-338.96C427.33,-328.01 332.31,-311.72 271.13,-301.22"/>
<polygon fill="midnightblue" stroke="midnightblue" points="271.68,-297.77 261.23,-299.53 270.5,-304.67 271.68,-297.77"/>
</g>
<!-- Node10 -->
<g id="node10" class="node">
<title>Node10</title>
<g id="a_node10"><a xlink:href="Buttons_8h.html" target="_top" xlink:title=" ">
<polygon fill="none" stroke="black" points="320,-280.5 320,-299.5 433,-299.5 433,-280.5 320,-280.5"/>
<text text-anchor="middle" x="376.5" y="-287.5" font-family="Helvetica,sans-Serif" font-size="10.00">../Buttons/Buttons.h</text>
</a>
</g>
</g>
<!-- Node1&#45;&gt;Node10 -->
<g id="edge13" class="edge">
<title>Node1&#45;&gt;Node10</title>
<path fill="none" stroke="midnightblue" d="M515.37,-336.4C483.92,-326.12 441.81,-312.35 412.23,-302.68"/>
<polygon fill="midnightblue" stroke="midnightblue" points="413.31,-299.35 402.72,-299.57 411.13,-306.01 413.31,-299.35"/>
</g>
<!-- Node12 -->
<g id="node12" class="node">
<title>Node12</title>
<g id="a_node12"><a xlink:href="Modes_8h.html" target="_top" xlink:title=" ">
<polygon fill="none" stroke="black" points="468.5,-280.5 468.5,-299.5 570.5,-299.5 570.5,-280.5 468.5,-280.5"/>
<text text-anchor="middle" x="519.5" y="-287.5" font-family="Helvetica,sans-Serif" font-size="10.00">../Modes/Modes.h</text>
</a>
</g>
</g>
<!-- Node1&#45;&gt;Node12 -->
<g id="edge17" class="edge">
<title>Node1&#45;&gt;Node12</title>
<path fill="none" stroke="midnightblue" d="M549.26,-336.4C543.71,-327.93 536.61,-317.1 530.73,-308.14"/>
<polygon fill="midnightblue" stroke="midnightblue" points="533.58,-306.1 525.17,-299.66 527.73,-309.94 533.58,-306.1"/>
</g>
<!-- Node14 -->
<g id="node14" class="node">
<title>Node14</title>
<g id="a_node14"><a xlink:href="Log_8h.html" target="_top" xlink:title=" ">
<polygon fill="none" stroke="black" points="391.5,-168.5 391.5,-187.5 463.5,-187.5 463.5,-168.5 391.5,-168.5"/>
<text text-anchor="middle" x="427.5" y="-175.5" font-family="Helvetica,sans-Serif" font-size="10.00">../Log/Log.h</text>
</a>
</g>
</g>
<!-- Node1&#45;&gt;Node14 -->
<g id="edge39" class="edge">
<title>Node1&#45;&gt;Node14</title>
<path fill="none" stroke="midnightblue" d="M568.8,-336.38C578.15,-321.69 589.11,-298.32 579.5,-280 555.46,-234.15 500.18,-205.68 463.34,-191.09"/>
<polygon fill="midnightblue" stroke="midnightblue" points="464.53,-187.8 453.94,-187.5 462.04,-194.34 464.53,-187.8"/>
</g>
<!-- Node18 -->
<g id="node18" class="node">
<title>Node18</title>
<g id="a_node18"><a xlink:href="Leds_8h.html" target="_top" xlink:title=" ">
<polygon fill="none" stroke="black" points="482,-168.5 482,-187.5 565,-187.5 565,-168.5 482,-168.5"/>
<text text-anchor="middle" x="523.5" y="-175.5" font-family="Helvetica,sans-Serif" font-size="10.00">../Leds/Leds.h</text>
</a>
</g>
</g>
<!-- Node1&#45;&gt;Node18 -->
<g id="edge38" class="edge">
<title>Node1&#45;&gt;Node18</title>
<path fill="none" stroke="midnightblue" d="M580.87,-336.35C592.67,-327.5 606.01,-314.95 612.5,-300 625.95,-269.01 630.19,-252.77 612.5,-224 602.95,-208.47 586.19,-198.1 569.77,-191.27"/>
<polygon fill="midnightblue" stroke="midnightblue" points="570.79,-187.92 560.2,-187.65 568.32,-194.46 570.79,-187.92"/>
</g>
<!-- Node3 -->
<g id="node3" class="node">
<title>Node3</title>
<g id="a_node3"><a xlink:title=" ">
<polygon fill="none" stroke="#bfbfbf" points="270,-56.5 270,-75.5 335,-75.5 335,-56.5 270,-56.5"/>
<text text-anchor="middle" x="302.5" y="-63.5" font-family="Helvetica,sans-Serif" font-size="10.00">inttypes.h</text>
</a>
</g>
</g>
<!-- Node2&#45;&gt;Node3 -->
<g id="edge2" class="edge">
<title>Node2&#45;&gt;Node3</title>
<path fill="none" stroke="midnightblue" d="M39.59,-224.37C42.88,-202.01 54.88,-141.85 91.5,-112 116.86,-91.32 205.91,-77.91 259.88,-71.47"/>
<polygon fill="midnightblue" stroke="midnightblue" points="260.32,-74.95 269.85,-70.32 259.52,-67.99 260.32,-74.95"/>
</g>
<!-- Node4&#45;&gt;Node3 -->
<g id="edge4" class="edge">
<title>Node4&#45;&gt;Node3</title>
<path fill="none" stroke="midnightblue" d="M791.2,-168.38C766.78,-154.1 715.07,-125.75 667.5,-112 607.87,-94.76 428.27,-77.75 345.33,-70.56"/>
<polygon fill="midnightblue" stroke="midnightblue" points="345.5,-67.07 335.24,-69.7 344.9,-74.04 345.5,-67.07"/>
</g>
<!-- Node5 -->
<g id="node5" class="node">
<title>Node5</title>
<g id="a_node5"><a xlink:href="VortexConfig_8h.html" target="_top" xlink:title=" ">
<polygon fill="none" stroke="black" points="638,-56.5 638,-75.5 735,-75.5 735,-56.5 638,-56.5"/>
<text text-anchor="middle" x="686.5" y="-63.5" font-family="Helvetica,sans-Serif" font-size="10.00">../VortexConfig.h</text>
</a>
</g>
</g>
<!-- Node4&#45;&gt;Node5 -->
<g id="edge5" class="edge">
<title>Node4&#45;&gt;Node5</title>
<path fill="none" stroke="midnightblue" d="M824.43,-168.46C848.35,-156.49 884.5,-133.75 867.5,-112 852.45,-92.75 792.23,-80.56 745.34,-73.79"/>
<polygon fill="midnightblue" stroke="midnightblue" points="745.64,-70.3 735.26,-72.39 744.68,-77.23 745.64,-70.3"/>
</g>
<!-- Node4&#45;&gt;Node7 -->
<g id="edge7" class="edge">
<title>Node4&#45;&gt;Node7</title>
<path fill="none" stroke="midnightblue" d="M805.5,-168.08C805.5,-161.01 805.5,-150.86 805.5,-141.99"/>
<polygon fill="midnightblue" stroke="midnightblue" points="809,-141.75 805.5,-131.75 802,-141.75 809,-141.75"/>
</g>
<!-- Node6 -->
<g id="node6" class="node">
<title>Node6</title>
<g id="a_node6"><a xlink:href="ColorConstants_8h.html" target="_top" xlink:title=" ">
<polygon fill="none" stroke="black" points="580.5,-0.5 580.5,-19.5 714.5,-19.5 714.5,-0.5 580.5,-0.5"/>
<text text-anchor="middle" x="647.5" y="-7.5" font-family="Helvetica,sans-Serif" font-size="10.00">Colors/ColorConstants.h</text>
</a>
</g>
</g>
<!-- Node5&#45;&gt;Node6 -->
<g id="edge6" class="edge">
<title>Node5&#45;&gt;Node6</title>
<path fill="none" stroke="midnightblue" d="M680.06,-56.08C674.55,-48.46 666.47,-37.26 659.74,-27.94"/>
<polygon fill="midnightblue" stroke="midnightblue" points="662.51,-25.81 653.82,-19.75 656.84,-29.91 662.51,-25.81"/>
</g>
<!-- Node7&#45;&gt;Node3 -->
<g id="edge8" class="edge">
<title>Node7&#45;&gt;Node3</title>
<path fill="none" stroke="midnightblue" d="M752.85,-113.77C748,-113.15 743.16,-112.55 738.5,-112 594.7,-94.92 423.76,-78.37 345.5,-71"/>
<polygon fill="midnightblue" stroke="midnightblue" points="345.36,-67.47 335.08,-70.02 344.71,-74.44 345.36,-67.47"/>
</g>
<!-- Node7&#45;&gt;Node5 -->
<g id="edge10" class="edge">
<title>Node7&#45;&gt;Node5</title>
<path fill="none" stroke="midnightblue" d="M786.64,-112.44C767.23,-103.64 736.77,-89.81 714.54,-79.72"/>
<polygon fill="midnightblue" stroke="midnightblue" points="715.82,-76.46 705.27,-75.52 712.93,-82.84 715.82,-76.46"/>
</g>
<!-- Node8 -->
<g id="node8" class="node">
<title>Node8</title>
<g id="a_node8"><a xlink:title=" ">
<polygon fill="none" stroke="#bfbfbf" points="439.5,-56.5 439.5,-75.5 495.5,-75.5 495.5,-56.5 439.5,-56.5"/>
<text text-anchor="middle" x="467.5" y="-63.5" font-family="Helvetica,sans-Serif" font-size="10.00">stdarg.h</text>
</a>
</g>
</g>
<!-- Node7&#45;&gt;Node8 -->
<g id="edge9" class="edge">
<title>Node7&#45;&gt;Node8</title>
<path fill="none" stroke="midnightblue" d="M752.69,-112.56C684.06,-101.6 565.89,-82.72 505.48,-73.07"/>
<polygon fill="midnightblue" stroke="midnightblue" points="506.02,-69.61 495.59,-71.49 504.91,-76.52 506.02,-69.61"/>
</g>
<!-- Node9&#45;&gt;Node3 -->
<g id="edge12" class="edge">
<title>Node9&#45;&gt;Node3</title>
<path fill="none" stroke="midnightblue" d="M186,-280.47C169.51,-273.48 149.36,-261.79 139.5,-244 129.15,-225.32 149.13,-183.42 155.5,-168 166.37,-141.71 165.07,-130.71 186.5,-112 207.29,-93.85 236.22,-82.61 259.98,-75.9"/>
<polygon fill="midnightblue" stroke="midnightblue" points="261.04,-79.24 269.81,-73.3 259.25,-72.48 261.04,-79.24"/>
</g>
<!-- Node11 -->
<g id="node11" class="node">
<title>Node11</title>
<g id="a_node11"><a xlink:href="Button_8h.html" target="_top" xlink:title=" ">
<polygon fill="none" stroke="black" points="148.5,-224.5 148.5,-243.5 206.5,-243.5 206.5,-224.5 148.5,-224.5"/>
<text text-anchor="middle" x="177.5" y="-231.5" font-family="Helvetica,sans-Serif" font-size="10.00">Button.h</text>
</a>
</g>
</g>
<!-- Node10&#45;&gt;Node11 -->
<g id="edge14" class="edge">
<title>Node10&#45;&gt;Node11</title>
<path fill="none" stroke="midnightblue" d="M344.97,-280.44C310.21,-271.01 254.24,-255.83 216.69,-245.63"/>
<polygon fill="midnightblue" stroke="midnightblue" points="217.19,-242.14 206.62,-242.9 215.35,-248.9 217.19,-242.14"/>
</g>
<!-- Node11&#45;&gt;Node3 -->
<g id="edge15" class="edge">
<title>Node11&#45;&gt;Node3</title>
<path fill="none" stroke="midnightblue" d="M172.1,-224.14C164.96,-211.2 154.31,-186.63 163.5,-168 185.18,-124.05 236.28,-94.91 270.11,-79.68"/>
<polygon fill="midnightblue" stroke="midnightblue" points="271.79,-82.76 279.58,-75.57 269.01,-76.34 271.79,-82.76"/>
</g>
<!-- Node12&#45;&gt;Node3 -->
<g id="edge37" class="edge">
<title>Node12&#45;&gt;Node3</title>
<path fill="none" stroke="midnightblue" d="M469.31,-280.48C427.91,-272.5 373.48,-259.5 357.5,-244 312.9,-200.73 304.29,-122.03 302.75,-85.97"/>
<polygon fill="midnightblue" stroke="midnightblue" points="306.25,-85.75 302.46,-75.86 299.25,-85.95 306.25,-85.75"/>
</g>
<!-- Node12&#45;&gt;Node5 -->
<g id="edge36" class="edge">
<title>Node12&#45;&gt;Node5</title>
<path fill="none" stroke="midnightblue" d="M570.63,-281.43C659.16,-267.25 835.4,-233.9 875.5,-188 897.85,-162.42 904.67,-138.56 883.5,-112 866.43,-90.59 796.94,-78.56 745.29,-72.43"/>
<polygon fill="midnightblue" stroke="midnightblue" points="745.56,-68.94 735.22,-71.28 744.76,-75.89 745.56,-68.94"/>
</g>
<!-- Node13 -->
<g id="node13" class="node">
<title>Node13</title>
<g id="a_node13"><a xlink:href="ByteStream_8h.html" target="_top" xlink:title=" ">
<polygon fill="none" stroke="black" points="366,-224.5 366,-243.5 489,-243.5 489,-224.5 366,-224.5"/>
<text text-anchor="middle" x="427.5" y="-231.5" font-family="Helvetica,sans-Serif" font-size="10.00">../Serial/ByteStream.h</text>
</a>
</g>
</g>
<!-- Node12&#45;&gt;Node13 -->
<g id="edge18" class="edge">
<title>Node12&#45;&gt;Node13</title>
<path fill="none" stroke="midnightblue" d="M504.72,-280.32C490.23,-271.82 467.93,-258.73 451.01,-248.8"/>
<polygon fill="midnightblue" stroke="midnightblue" points="452.64,-245.7 442.24,-243.65 449.1,-251.74 452.64,-245.7"/>
</g>
<!-- Node16 -->
<g id="node16" class="node">
<title>Node16</title>
<g id="a_node16"><a xlink:href="ColorTypes_8h.html" target="_top" xlink:title=" ">
<polygon fill="none" stroke="black" points="536.5,-112.5 536.5,-131.5 658.5,-131.5 658.5,-112.5 536.5,-112.5"/>
<text text-anchor="middle" x="597.5" y="-119.5" font-family="Helvetica,sans-Serif" font-size="10.00">../Colors/ColorTypes.h</text>
</a>
</g>
</g>
<!-- Node12&#45;&gt;Node16 -->
<g id="edge26" class="edge">
<title>Node12&#45;&gt;Node16</title>
<path fill="none" stroke="midnightblue" d="M524.84,-280.32C535.27,-263.14 558.73,-223.38 574.5,-188 581.35,-172.63 587.62,-154.53 591.87,-141.34"/>
<polygon fill="midnightblue" stroke="midnightblue" points="595.28,-142.17 594.94,-131.58 588.6,-140.07 595.28,-142.17"/>
</g>
<!-- Node17 -->
<g id="node17" class="node">
<title>Node17</title>
<g id="a_node17"><a xlink:href="Patterns_8h.html" target="_top" xlink:title=" ">
<polygon fill="none" stroke="black" points="172,-168.5 172,-187.5 289,-187.5 289,-168.5 172,-168.5"/>
<text text-anchor="middle" x="230.5" y="-175.5" font-family="Helvetica,sans-Serif" font-size="10.00">../Patterns/Patterns.h</text>
</a>
</g>
</g>
<!-- Node12&#45;&gt;Node17 -->
<g id="edge30" class="edge">
<title>Node12&#45;&gt;Node17</title>
<path fill="none" stroke="midnightblue" d="M468.22,-281.45C413.79,-272.89 331.81,-258.25 303.5,-244 279.71,-232.02 257.66,-210.3 244.15,-195.29"/>
<polygon fill="midnightblue" stroke="midnightblue" points="246.78,-192.97 237.57,-187.74 241.5,-197.58 246.78,-192.97"/>
</g>
<!-- Node12&#45;&gt;Node18 -->
<g id="edge32" class="edge">
<title>Node12&#45;&gt;Node18</title>
<path fill="none" stroke="midnightblue" d="M519.81,-280.37C520.46,-262.62 521.95,-221.67 522.82,-197.6"/>
<polygon fill="midnightblue" stroke="midnightblue" points="526.32,-197.71 523.19,-187.59 519.33,-197.46 526.32,-197.71"/>
</g>
<!-- Node13&#45;&gt;Node3 -->
<g id="edge19" class="edge">
<title>Node13&#45;&gt;Node3</title>
<path fill="none" stroke="midnightblue" d="M417.62,-224.21C408.1,-215.49 393.54,-201.52 382.5,-188 354.22,-153.37 326.69,-108.58 312.47,-84.37"/>
<polygon fill="midnightblue" stroke="midnightblue" points="315.43,-82.51 307.38,-75.62 309.38,-86.03 315.43,-82.51"/>
</g>
<!-- Node13&#45;&gt;Node14 -->
<g id="edge20" class="edge">
<title>Node13&#45;&gt;Node14</title>
<path fill="none" stroke="midnightblue" d="M427.5,-224.08C427.5,-217.01 427.5,-206.86 427.5,-197.99"/>
<polygon fill="midnightblue" stroke="midnightblue" points="431,-197.75 427.5,-187.75 424,-197.75 431,-197.75"/>
</g>
<!-- Node14&#45;&gt;Node5 -->
<g id="edge22" class="edge">
<title>Node14&#45;&gt;Node5</title>
<path fill="none" stroke="midnightblue" d="M463.65,-169.89C466.98,-169.25 470.3,-168.61 473.5,-168 559.64,-151.58 602.44,-190.8 667.5,-132 680.43,-120.32 684.75,-100.37 686.11,-85.65"/>
<polygon fill="midnightblue" stroke="midnightblue" points="689.6,-85.81 686.65,-75.63 682.61,-85.43 689.6,-85.81"/>
</g>
<!-- Node14&#45;&gt;Node8 -->
<g id="edge21" class="edge">
<title>Node14&#45;&gt;Node8</title>
<path fill="none" stroke="midnightblue" d="M418.55,-168.39C406.55,-155.75 387.91,-131.56 398.5,-112 406.25,-97.7 420.73,-87.22 434.44,-79.99"/>
<polygon fill="midnightblue" stroke="midnightblue" points="436.24,-83.01 443.71,-75.5 433.19,-76.71 436.24,-83.01"/>
</g>
<!-- Node15 -->
<g id="node15" class="node">
<title>Node15</title>
<g id="a_node15"><a xlink:href="ErrorBlinker_8h.html" target="_top" xlink:title=" ">
<polygon fill="none" stroke="black" points="407,-112.5 407,-131.5 518,-131.5 518,-112.5 407,-112.5"/>
<text text-anchor="middle" x="462.5" y="-119.5" font-family="Helvetica,sans-Serif" font-size="10.00">../Log/ErrorBlinker.h</text>
</a>
</g>
</g>
<!-- Node14&#45;&gt;Node15 -->
<g id="edge23" class="edge">
<title>Node14&#45;&gt;Node15</title>
<path fill="none" stroke="midnightblue" d="M433.28,-168.08C438.17,-160.53 445.33,-149.49 451.33,-140.23"/>
<polygon fill="midnightblue" stroke="midnightblue" points="454.33,-142.05 456.83,-131.75 448.45,-138.24 454.33,-142.05"/>
</g>
<!-- Node15&#45;&gt;Node3 -->
<g id="edge24" class="edge">
<title>Node15&#45;&gt;Node3</title>
<path fill="none" stroke="midnightblue" d="M437.15,-112.44C410.23,-103.36 367.5,-88.94 337.41,-78.78"/>
<polygon fill="midnightblue" stroke="midnightblue" points="338.33,-75.4 327.73,-75.52 336.09,-82.03 338.33,-75.4"/>
</g>
<!-- Node15&#45;&gt;Node5 -->
<g id="edge25" class="edge">
<title>Node15&#45;&gt;Node5</title>
<path fill="none" stroke="midnightblue" d="M497.99,-112.44C536.82,-103.08 599.16,-88.06 641.42,-77.87"/>
<polygon fill="midnightblue" stroke="midnightblue" points="642.27,-81.26 651.17,-75.52 640.63,-74.46 642.27,-81.26"/>
</g>
<!-- Node16&#45;&gt;Node3 -->
<g id="edge27" class="edge">
<title>Node16&#45;&gt;Node3</title>
<path fill="none" stroke="midnightblue" d="M550.76,-112.44C494.28,-102.11 400.07,-84.86 345.38,-74.85"/>
<polygon fill="midnightblue" stroke="midnightblue" points="345.79,-71.37 335.32,-73.01 344.53,-78.25 345.79,-71.37"/>
</g>
<!-- Node16&#45;&gt;Node5 -->
<g id="edge28" class="edge">
<title>Node16&#45;&gt;Node5</title>
<path fill="none" stroke="midnightblue" d="M611.8,-112.32C625.68,-103.9 646.99,-90.97 663.3,-81.07"/>
<polygon fill="midnightblue" stroke="midnightblue" points="665.5,-83.83 672.24,-75.65 661.87,-77.85 665.5,-83.83"/>
</g>
<!-- Node16&#45;&gt;Node6 -->
<g id="edge29" class="edge">
<title>Node16&#45;&gt;Node6</title>
<path fill="none" stroke="midnightblue" d="M601.42,-112.37C609.57,-94.46 628.44,-52.92 639.34,-28.95"/>
<polygon fill="midnightblue" stroke="midnightblue" points="642.64,-30.14 643.59,-19.59 636.27,-27.25 642.64,-30.14"/>
</g>
<!-- Node17&#45;&gt;Node3 -->
<g id="edge31" class="edge">
<title>Node17&#45;&gt;Node3</title>
<path fill="none" stroke="midnightblue" d="M231.6,-168.36C233.6,-155.26 238.76,-130 250.5,-112 258.25,-100.13 269.99,-89.58 280.37,-81.7"/>
<polygon fill="midnightblue" stroke="midnightblue" points="282.58,-84.41 288.64,-75.72 278.48,-78.74 282.58,-84.41"/>
</g>
<!-- Node18&#45;&gt;Node3 -->
<g id="edge33" class="edge">
<title>Node18&#45;&gt;Node3</title>
<path fill="none" stroke="midnightblue" d="M493.33,-168.47C467.46,-160.6 429.55,-147.78 398.5,-132 370,-117.51 339.91,-95.98 321.17,-81.72"/>
<polygon fill="midnightblue" stroke="midnightblue" points="323.23,-78.89 313.18,-75.55 318.95,-84.43 323.23,-78.89"/>
</g>
<!-- Node18&#45;&gt;Node7 -->
<g id="edge35" class="edge">
<title>Node18&#45;&gt;Node7</title>
<path fill="none" stroke="midnightblue" d="M565.11,-169.03C614.34,-159.61 696.44,-143.88 750.78,-133.48"/>
<polygon fill="midnightblue" stroke="midnightblue" points="751.76,-136.85 760.92,-131.54 750.44,-129.98 751.76,-136.85"/>
</g>
<!-- Node18&#45;&gt;Node16 -->
<g id="edge34" class="edge">
<title>Node18&#45;&gt;Node16</title>
<path fill="none" stroke="midnightblue" d="M535.39,-168.32C546.65,-160.11 563.79,-147.6 577.21,-137.81"/>
<polygon fill="midnightblue" stroke="midnightblue" points="579.38,-140.56 585.39,-131.83 575.25,-134.9 579.38,-140.56"/>
</g>
</g>
</svg>
        <g id="navigator" transform="translate(0 0)" fill="#404254">
                <rect fill="#f2f5e9" fill-opacity="0.5" stroke="#606060" stroke-width=".5" x="0" y="0" width="60" height="60"/>
                <use id="zoomplus" xlink:href="#zoomPlus" x="17" y="9" onmousedown="handleZoom(evt,'in')"/>
                <use id="zoomminus" xlink:href="#zoomMin" x="42" y="9" onmousedown="handleZoom(evt,'out')"/>
                <use id="reset" xlink:href="#resetDef" x="30" y="36" onmousedown="handleReset()"/>
                <g id="arrowUp" xlink:href="#dirArrow" transform="translate(30 24)" onmousedown="handlePan(0,-1)">
                  <use xlink:href="#rim" fill="#404040">
                        <set attributeName="fill" to="#808080" begin="arrowUp.mouseover" end="arrowUp.mouseout"/>
                  </use>
                  <path fill="none" stroke="white" stroke-width="1.5" d="M0,-3.0v7 M-2.5,-0.5L0,-3.0L2.5,-0.5"/>
                </g>
                <g id="arrowRight" xlink:href="#dirArrow" transform="rotate(90) translate(36 -43)" onmousedown="handlePan(1,0)">
                  <use xlink:href="#rim" fill="#404040">
                        <set attributeName="fill" to="#808080" begin="arrowRight.mouseover" end="arrowRight.mouseout"/>
                  </use>
                  <path fill="none" stroke="white" stroke-width="1.5" d="M0,-3.0v7 M-2.5,-0.5L0,-3.0L2.5,-0.5"/>
                </g>
                <g id="arrowDown" xlink:href="#dirArrow" transform="rotate(180) translate(-30 -48)" onmousedown="handlePan(0,1)">
                  <use xlink:href="#rim" fill="#404040">
                        <set attributeName="fill" to="#808080" begin="arrowDown.mouseover" end="arrowDown.mouseout"/>
                  </use>
                  <path fill="none" stroke="white" stroke-width="1.5" d="M0,-3.0v7 M-2.5,-0.5L0,-3.0L2.5,-0.5"/>
                </g>
                <g id="arrowLeft" xlink:href="#dirArrow" transform="rotate(270) translate(-36 17)" onmousedown="handlePan(-1,0)">
                  <use xlink:href="#rim" fill="#404040">
                        <set attributeName="fill" to="#808080" begin="arrowLeft.mouseover" end="arrowLeft.mouseout"/>
                  </use>
                  <path fill="none" stroke="white" stroke-width="1.5" d="M0,-3.0v7 M-2.5,-0.5L0,-3.0L2.5,-0.5"/>
                </g>
        </g>
        <svg viewBox="0 0 15 15" width="100%" height="30px" preserveAspectRatio="xMaxYMin meet">
         <g id="arrow_out" transform="scale(0.3 0.3)">
          <a xlink:href="MainMenu_8cpp__incl_org.svg" target="_base">
           <rect id="button" ry="5" rx="5" y="6" x="6" height="38" width="38"
                fill="#f2f5e9" fill-opacity="0.5" stroke="#606060" stroke-width="1.0"/>
           <path id="arrow"
             d="M 11.500037,31.436501 C 11.940474,20.09759 22.043105,11.32322 32.158766,21.979434 L 37.068811,17.246167 C 37.068811,17.246167 37.088388,32 37.088388,32 L 22.160133,31.978069 C 22.160133,31.978069 26.997745,27.140456 26.997745,27.140456 C 18.528582,18.264221 13.291696,25.230495 11.500037,31.436501 z"
             style="fill:#404040;"/>
          </a>
         </g>
        </svg>
</svg>
