<?xml version="1.0" encoding="UTF-8" standalone="no"?>
<!DOCTYPE svg PUBLIC "-//W3C//DTD SVG 1.1//EN"
 "http://www.w3.org/Graphics/SVG/1.1/DTD/svg11.dtd">
<!-- Generated by graphviz version 2.43.0 (0)
 -->
<!-- Title: VortexEngine/src/Memory/Memory.h Pages: 1 -->
<svg width="1685pt" height="106pt"
 viewBox="0.00 0.00 1685.00 106.00" xmlns="http://www.w3.org/2000/svg" xmlns:xlink="http://www.w3.org/1999/xlink">
<g id="graph0" class="graph" transform="scale(1 1) rotate(0) translate(4 102)">
<title>VortexEngine/src/Memory/Memory.h</title>
<!-- Node1 -->
<g id="node1" class="node">
<title>Node1</title>
<g id="a_node1"><a xlink:title=" ">
<polygon fill="#bfbfbf" stroke="black" points="802,-67.5 802,-97.5 944,-97.5 944,-67.5 802,-67.5"/>
<text text-anchor="start" x="810" y="-85.5" font-family="Helvetica,sans-Serif" font-size="10.00">VortexEngine/src/Memory</text>
<text text-anchor="middle" x="873" y="-74.5" font-family="Helvetica,sans-Serif" font-size="10.00">/Memory.h</text>
</a>
</g>
</g>
<!-- Node2 -->
<g id="node2" class="node">
<title>Node2</title>
<g id="a_node2"><a xlink:href="Colorset_8cpp.html" target="_top" xlink:title=" ">
<polygon fill="none" stroke="black" points="0,-0.5 0,-30.5 132,-30.5 132,-0.5 0,-0.5"/>
<text text-anchor="start" x="8" y="-18.5" font-family="Helvetica,sans-Serif" font-size="10.00">VortexEngine/src/Colors</text>
<text text-anchor="middle" x="66" y="-7.5" font-family="Helvetica,sans-Serif" font-size="10.00">/Colorset.cpp</text>
</a>
</g>
</g>
<!-- Node1&#45;&gt;Node2 -->
<g id="edge1" class="edge">
<title>Node1&#45;&gt;Node2</title>
<path fill="none" stroke="midnightblue" d="M791.5,-79.13C655.99,-74.45 375.98,-61.7 141,-31 138.11,-30.62 135.16,-30.2 132.18,-29.75"/>
<polygon fill="midnightblue" stroke="midnightblue" points="791.68,-82.63 801.79,-79.47 791.92,-75.64 791.68,-82.63"/>
</g>
<!-- Node3 -->
<g id="node3" class="node">
<title>Node3</title>
<g id="a_node3"><a xlink:href="Memory_8cpp.html" target="_top" xlink:title=" ">
<polygon fill="none" stroke="black" points="150,-0.5 150,-30.5 292,-30.5 292,-0.5 150,-0.5"/>
<text text-anchor="start" x="158" y="-18.5" font-family="Helvetica,sans-Serif" font-size="10.00">VortexEngine/src/Memory</text>
<text text-anchor="middle" x="221" y="-7.5" font-family="Helvetica,sans-Serif" font-size="10.00">/Memory.cpp</text>
</a>
</g>
</g>
<!-- Node1&#45;&gt;Node3 -->
<g id="edge2" class="edge">
<title>Node1&#45;&gt;Node3</title>
<path fill="none" stroke="midnightblue" d="M791.75,-76.67C680.62,-69.53 475.14,-54.42 301,-31 298.06,-30.6 295.07,-30.18 292.05,-29.72"/>
<polygon fill="midnightblue" stroke="midnightblue" points="791.67,-80.17 801.88,-77.31 792.12,-73.19 791.67,-80.17"/>
</g>
<!-- Node4 -->
<g id="node4" class="node">
<title>Node4</title>
<g id="a_node4"><a xlink:href="Mode_8cpp.html" target="_top" xlink:title=" ">
<polygon fill="none" stroke="black" points="310,-0.5 310,-30.5 444,-30.5 444,-0.5 310,-0.5"/>
<text text-anchor="start" x="318" y="-18.5" font-family="Helvetica,sans-Serif" font-size="10.00">VortexEngine/src/Modes</text>
<text text-anchor="middle" x="377" y="-7.5" font-family="Helvetica,sans-Serif" font-size="10.00">/Mode.cpp</text>
</a>
</g>
</g>
<!-- Node1&#45;&gt;Node4 -->
<g id="edge3" class="edge">
<title>Node1&#45;&gt;Node4</title>
<path fill="none" stroke="midnightblue" d="M791.75,-73.41C706.98,-64.57 570.33,-49.22 453,-31 450.08,-30.55 447.1,-30.06 444.09,-29.56"/>
<polygon fill="midnightblue" stroke="midnightblue" points="791.52,-76.9 801.83,-74.45 792.24,-69.94 791.52,-76.9"/>
</g>
<!-- Node5 -->
<g id="node5" class="node">
<title>Node5</title>
<g id="a_node5"><a xlink:href="Sequence_8cpp.html" target="_top" xlink:title=" ">
<polygon fill="none" stroke="black" points="462.5,-0.5 462.5,-30.5 631.5,-30.5 631.5,-0.5 462.5,-0.5"/>
<text text-anchor="start" x="470.5" y="-18.5" font-family="Helvetica,sans-Serif" font-size="10.00">VortexEngine/src/Patterns</text>
<text text-anchor="middle" x="547" y="-7.5" font-family="Helvetica,sans-Serif" font-size="10.00">/Multi/Sequencer/Sequence.cpp</text>
</a>
</g>
</g>
<!-- Node1&#45;&gt;Node5 -->
<g id="edge4" class="edge">
<title>Node1&#45;&gt;Node5</title>
<path fill="none" stroke="midnightblue" d="M792.83,-65.52C739.12,-54.81 669.07,-40.84 617.49,-30.55"/>
<polygon fill="midnightblue" stroke="midnightblue" points="792.17,-68.95 802.66,-67.48 793.54,-62.09 792.17,-68.95"/>
</g>
<!-- Node6 -->
<g id="node6" class="node">
<title>Node6</title>
<g id="a_node6"><a xlink:href="Pattern_8cpp.html" target="_top" xlink:title=" ">
<polygon fill="none" stroke="black" points="649.5,-0.5 649.5,-30.5 790.5,-30.5 790.5,-0.5 649.5,-0.5"/>
<text text-anchor="start" x="657.5" y="-18.5" font-family="Helvetica,sans-Serif" font-size="10.00">VortexEngine/src/Patterns</text>
<text text-anchor="middle" x="720" y="-7.5" font-family="Helvetica,sans-Serif" font-size="10.00">/Pattern.cpp</text>
</a>
</g>
</g>
<!-- Node1&#45;&gt;Node6 -->
<g id="edge5" class="edge">
<title>Node1&#45;&gt;Node6</title>
<path fill="none" stroke="midnightblue" d="M830.41,-63.41C805.98,-53.03 775.78,-40.2 753.13,-30.58"/>
<polygon fill="midnightblue" stroke="midnightblue" points="829.23,-66.71 839.8,-67.4 831.97,-60.26 829.23,-66.71"/>
</g>
<!-- Node7 -->
<g id="node7" class="node">
<title>Node7</title>
<g id="a_node7"><a xlink:href="BitStream_8cpp.html" target="_top" xlink:title=" ">
<polygon fill="none" stroke="black" points="808.5,-0.5 808.5,-30.5 937.5,-30.5 937.5,-0.5 808.5,-0.5"/>
<text text-anchor="start" x="816.5" y="-18.5" font-family="Helvetica,sans-Serif" font-size="10.00">VortexEngine/src/Serial</text>
<text text-anchor="middle" x="873" y="-7.5" font-family="Helvetica,sans-Serif" font-size="10.00">/BitStream.cpp</text>
</a>
</g>
</g>
<!-- Node1&#45;&gt;Node7 -->
<g id="edge6" class="edge">
<title>Node1&#45;&gt;Node7</title>
<path fill="none" stroke="midnightblue" d="M873,-57.11C873,-48.15 873,-38.32 873,-30.58"/>
<polygon fill="midnightblue" stroke="midnightblue" points="869.5,-57.4 873,-67.4 876.5,-57.4 869.5,-57.4"/>
</g>
<!-- Node8 -->
<g id="node8" class="node">
<title>Node8</title>
<g id="a_node8"><a xlink:href="ByteStream_8cpp.html" target="_top" xlink:title=" ">
<polygon fill="none" stroke="black" points="955.5,-0.5 955.5,-30.5 1084.5,-30.5 1084.5,-0.5 955.5,-0.5"/>
<text text-anchor="start" x="963.5" y="-18.5" font-family="Helvetica,sans-Serif" font-size="10.00">VortexEngine/src/Serial</text>
<text text-anchor="middle" x="1020" y="-7.5" font-family="Helvetica,sans-Serif" font-size="10.00">/ByteStream.cpp</text>
</a>
</g>
</g>
<!-- Node1&#45;&gt;Node8 -->
<g id="edge7" class="edge">
<title>Node1&#45;&gt;Node8</title>
<path fill="none" stroke="midnightblue" d="M914.23,-63.27C937.64,-52.92 966.51,-40.15 988.17,-30.58"/>
<polygon fill="midnightblue" stroke="midnightblue" points="912.63,-60.15 904.9,-67.4 915.46,-66.55 912.63,-60.15"/>
</g>
<!-- Node9 -->
<g id="node9" class="node">
<title>Node9</title>
<g id="a_node9"><a xlink:href="Compression_8cpp.html" target="_top" xlink:title=" ">
<polygon fill="none" stroke="black" points="1102.5,-0.5 1102.5,-30.5 1231.5,-30.5 1231.5,-0.5 1102.5,-0.5"/>
<text text-anchor="start" x="1110.5" y="-18.5" font-family="Helvetica,sans-Serif" font-size="10.00">VortexEngine/src/Serial</text>
<text text-anchor="middle" x="1167" y="-7.5" font-family="Helvetica,sans-Serif" font-size="10.00">/Compression.cpp</text>
</a>
</g>
</g>
<!-- Node1&#45;&gt;Node9 -->
<g id="edge8" class="edge">
<title>Node1&#45;&gt;Node9</title>
<path fill="none" stroke="midnightblue" d="M946.2,-65.32C994.52,-54.63 1057.2,-40.77 1103.43,-30.55"/>
<polygon fill="midnightblue" stroke="midnightblue" points="945.44,-61.9 936.43,-67.48 946.95,-68.73 945.44,-61.9"/>
</g>
<!-- Node10 -->
<g id="node10" class="node">
<title>Node10</title>
<g id="a_node10"><a xlink:href="Storage_8cpp.html" target="_top" xlink:title=" ">
<polygon fill="none" stroke="black" points="1249.5,-0.5 1249.5,-30.5 1388.5,-30.5 1388.5,-0.5 1249.5,-0.5"/>
<text text-anchor="start" x="1257.5" y="-18.5" font-family="Helvetica,sans-Serif" font-size="10.00">VortexEngine/src/Storage</text>
<text text-anchor="middle" x="1319" y="-7.5" font-family="Helvetica,sans-Serif" font-size="10.00">/Storage.cpp</text>
</a>
</g>
</g>
<!-- Node1&#45;&gt;Node10 -->
<g id="edge9" class="edge">
<title>Node1&#45;&gt;Node10</title>
<path fill="none" stroke="midnightblue" d="M954.31,-71.47C1028.99,-61.98 1142.65,-46.88 1241,-31 1243.72,-30.56 1246.49,-30.1 1249.29,-29.63"/>
<polygon fill="midnightblue" stroke="midnightblue" points="953.52,-68.04 944.04,-72.77 954.4,-74.98 953.52,-68.04"/>
</g>
<!-- Node11 -->
<g id="node11" class="node">
<title>Node11</title>
<g id="a_node11"><a xlink:href="TimeControl_8cpp.html" target="_top" xlink:title=" ">
<polygon fill="none" stroke="black" points="1407,-0.5 1407,-30.5 1533,-30.5 1533,-0.5 1407,-0.5"/>
<text text-anchor="start" x="1415" y="-18.5" font-family="Helvetica,sans-Serif" font-size="10.00">VortexEngine/src/Time</text>
<text text-anchor="middle" x="1470" y="-7.5" font-family="Helvetica,sans-Serif" font-size="10.00">/TimeControl.cpp</text>
</a>
</g>
</g>
<!-- Node1&#45;&gt;Node11 -->
<g id="edge10" class="edge">
<title>Node1&#45;&gt;Node11</title>
<path fill="none" stroke="midnightblue" d="M954.25,-76.29C1057.69,-69.05 1241.75,-54.19 1398,-31 1400.9,-30.57 1403.86,-30.1 1406.85,-29.6"/>
<polygon fill="midnightblue" stroke="midnightblue" points="953.92,-72.8 944.19,-76.98 954.4,-79.78 953.92,-72.8"/>
</g>
<!-- Node12 -->
<g id="node12" class="node">
<title>Node12</title>
<g id="a_node12"><a xlink:href="Timer_8cpp.html" target="_top" xlink:title=" ">
<polygon fill="none" stroke="black" points="1551,-0.5 1551,-30.5 1677,-30.5 1677,-0.5 1551,-0.5"/>
<text text-anchor="start" x="1559" y="-18.5" font-family="Helvetica,sans-Serif" font-size="10.00">VortexEngine/src/Time</text>
<text text-anchor="middle" x="1614" y="-7.5" font-family="Helvetica,sans-Serif" font-size="10.00">/Timer.cpp</text>
</a>
</g>
</g>
<!-- Node1&#45;&gt;Node12 -->
<g id="edge11" class="edge">
<title>Node1&#45;&gt;Node12</title>
<path fill="none" stroke="midnightblue" d="M954.46,-78.59C1080.77,-73.36 1331.29,-60.06 1542,-31 1544.91,-30.6 1547.87,-30.15 1550.86,-29.67"/>
<polygon fill="midnightblue" stroke="midnightblue" points="953.95,-75.11 944.1,-79.02 954.24,-82.1 953.95,-75.11"/>
</g>
</g>
</svg>
