<?xml version="1.0" encoding="UTF-8" standalone="no"?>
<!DOCTYPE svg PUBLIC "-//W3C//DTD SVG 1.1//EN"
 "http://www.w3.org/Graphics/SVG/1.1/DTD/svg11.dtd">
<!-- Generated by graphviz version 2.43.0 (0)
 -->
<!-- Title: VortexEngine/src/Menus/Menu.cpp Pages: 1 -->
<!--zoomable 375 -->
<svg id="main" version="1.1" xmlns="http://www.w3.org/2000/svg" xmlns:xlink="http://www.w3.org/1999/xlink" xml:space="preserve" onload="init(evt)">
<style type="text/css"><![CDATA[
.edge:hover path { stroke: red; }
.edge:hover polygon { stroke: red; fill: red; }
]]></style>
<script type="text/javascript"><![CDATA[
var edges = document.getElementsByTagName('g');
if (edges && edges.length) {
  for (var i=0;i<edges.length;i++) {
    if (edges[i].id.substr(0,4)=='edge') {
      edges[i].setAttribute('class','edge');
    }
  }
}
]]></script>
        <defs>
                <circle id="rim" cx="0" cy="0" r="7"/>
                <circle id="rim2" cx="0" cy="0" r="3.5"/>
                <g id="zoomPlus">
                        <use xlink:href="#rim" fill="#404040">
                                <set attributeName="fill" to="#808080" begin="zoomplus.mouseover" end="zoomplus.mouseout"/>
                        </use>
                        <path d="M-4,0h8M0,-4v8" fill="none" stroke="white" stroke-width="1.5" pointer-events="none"/>
                </g>
                <g id="zoomMin">
                        <use xlink:href="#rim" fill="#404040">
                                <set attributeName="fill" to="#808080" begin="zoomminus.mouseover" end="zoomminus.mouseout"/>
                        </use>
                        <path d="M-4,0h8" fill="none" stroke="white" stroke-width="1.5" pointer-events="none"/>
                </g>
                <g id="dirArrow">
                        <path fill="none" stroke="white" stroke-width="1.5" d="M0,-3.0v7 M-2.5,-0.5L0,-3.0L2.5,-0.5"/>
                </g>
               <g id="resetDef">
                       <use xlink:href="#rim2" fill="#404040">
                               <set attributeName="fill" to="#808080" begin="reset.mouseover" end="reset.mouseout"/>
                       </use>
               </g>
        </defs>

<script type="text/javascript">
var viewWidth = 1048;
var viewHeight = 375;
var sectionId = 'dynsection-0';
</script>
<script xlink:href="svgpan.js"/>
<svg id="graph" class="graph">
<g id="viewport">
<title>VortexEngine/src/Menus/Menu.cpp</title>
<!-- Node1 -->
<g id="node1" class="node">
<title>Node1</title>
<g id="a_node1"><a xlink:title=" ">
<polygon fill="#bfbfbf" stroke="black" points="579,-336.5 579,-366.5 713,-366.5 713,-336.5 579,-336.5"/>
<text text-anchor="start" x="587" y="-354.5" font-family="Helvetica,sans-Serif" font-size="10.00">VortexEngine/src/Menus</text>
<text text-anchor="middle" x="646" y="-343.5" font-family="Helvetica,sans-Serif" font-size="10.00">/Menu.cpp</text>
</a>
</g>
</g>
<!-- Node2 -->
<g id="node2" class="node">
<title>Node2</title>
<g id="a_node2"><a xlink:href="Menu_8h.html" target="_top" xlink:title=" ">
<polygon fill="none" stroke="black" points="715.5,-224.5 715.5,-243.5 768.5,-243.5 768.5,-224.5 715.5,-224.5"/>
<text text-anchor="middle" x="742" y="-231.5" font-family="Helvetica,sans-Serif" font-size="10.00">Menu.h</text>
</a>
</g>
</g>
<!-- Node1&#45;&gt;Node2 -->
<g id="edge1" class="edge">
<title>Node1&#45;&gt;Node2</title>
<path fill="none" stroke="midnightblue" d="M657.77,-336.34C675.62,-314.86 709.44,-274.17 728.34,-251.43"/>
<polygon fill="midnightblue" stroke="midnightblue" points="731.09,-253.6 734.79,-243.67 725.71,-249.12 731.09,-253.6"/>
</g>
<!-- Node9 -->
<g id="node9" class="node">
<title>Node9</title>
<g id="a_node9"><a xlink:href="Mode_8h.html" target="_top" xlink:title=" ">
<polygon fill="none" stroke="black" points="746.5,-168.5 746.5,-187.5 843.5,-187.5 843.5,-168.5 746.5,-168.5"/>
<text text-anchor="middle" x="795" y="-175.5" font-family="Helvetica,sans-Serif" font-size="10.00">../Modes/Mode.h</text>
</a>
</g>
</g>
<!-- Node1&#45;&gt;Node9 -->
<g id="edge49" class="edge">
<title>Node1&#45;&gt;Node9</title>
<path fill="none" stroke="midnightblue" d="M672.03,-336.45C702.15,-318.84 751.05,-285.83 778,-244 786.98,-230.06 791.23,-211.55 793.23,-197.85"/>
<polygon fill="midnightblue" stroke="midnightblue" points="796.74,-198.02 794.44,-187.68 789.79,-197.2 796.74,-198.02"/>
</g>
<!-- Node11 -->
<g id="node11" class="node">
<title>Node11</title>
<g id="a_node11"><a xlink:href="TimeControl_8h.html" target="_top" xlink:title=" ">
<polygon fill="none" stroke="black" points="900,-168.5 900,-187.5 1022,-187.5 1022,-168.5 900,-168.5"/>
<text text-anchor="middle" x="961" y="-175.5" font-family="Helvetica,sans-Serif" font-size="10.00">../Time/TimeControl.h</text>
</a>
</g>
</g>
<!-- Node1&#45;&gt;Node11 -->
<g id="edge17" class="edge">
<title>Node1&#45;&gt;Node11</title>
<path fill="none" stroke="midnightblue" d="M687.35,-336.43C736.71,-318.68 820.78,-285.43 886,-244 908.34,-229.81 930.86,-209.26 945.31,-195.08"/>
<polygon fill="midnightblue" stroke="midnightblue" points="947.86,-197.48 952.46,-187.94 942.91,-192.53 947.86,-197.48"/>
</g>
<!-- Node12 -->
<g id="node12" class="node">
<title>Node12</title>
<g id="a_node12"><a xlink:href="Timings_8h.html" target="_top" xlink:title=" ">
<polygon fill="none" stroke="black" points="938.5,-224.5 938.5,-243.5 1039.5,-243.5 1039.5,-224.5 938.5,-224.5"/>
<text text-anchor="middle" x="989" y="-231.5" font-family="Helvetica,sans-Serif" font-size="10.00">../Time/Timings.h</text>
</a>
</g>
</g>
<!-- Node1&#45;&gt;Node12 -->
<g id="edge21" class="edge">
<title>Node1&#45;&gt;Node12</title>
<path fill="none" stroke="midnightblue" d="M713.08,-349.43C771.77,-345.99 857.73,-334.71 924,-300 945.98,-288.49 965.24,-266.98 976.97,-251.87"/>
<polygon fill="midnightblue" stroke="midnightblue" points="979.79,-253.94 982.98,-243.83 974.19,-249.75 979.79,-253.94"/>
</g>
<!-- Node13 -->
<g id="node13" class="node">
<title>Node13</title>
<g id="a_node13"><a xlink:href="Buttons_8h.html" target="_top" xlink:title=" ">
<polygon fill="none" stroke="black" points="92.5,-280.5 92.5,-299.5 205.5,-299.5 205.5,-280.5 92.5,-280.5"/>
<text text-anchor="middle" x="149" y="-287.5" font-family="Helvetica,sans-Serif" font-size="10.00">../Buttons/Buttons.h</text>
</a>
</g>
</g>
<!-- Node1&#45;&gt;Node13 -->
<g id="edge24" class="edge">
<title>Node1&#45;&gt;Node13</title>
<path fill="none" stroke="midnightblue" d="M578.97,-342.48C483.87,-331.09 310.81,-310.37 215.82,-299"/>
<polygon fill="midnightblue" stroke="midnightblue" points="216.1,-295.51 205.75,-297.79 215.27,-302.46 216.1,-295.51"/>
</g>
<!-- Node15 -->
<g id="node15" class="node">
<title>Node15</title>
<g id="a_node15"><a xlink:href="Menus_8h.html" target="_top" xlink:title=" ">
<polygon fill="none" stroke="black" points="595,-224.5 595,-243.5 697,-243.5 697,-224.5 595,-224.5"/>
<text text-anchor="middle" x="646" y="-231.5" font-family="Helvetica,sans-Serif" font-size="10.00">../Menus/Menus.h</text>
</a>
</g>
</g>
<!-- Node1&#45;&gt;Node15 -->
<g id="edge27" class="edge">
<title>Node1&#45;&gt;Node15</title>
<path fill="none" stroke="midnightblue" d="M646,-336.34C646,-315.62 646,-277.02 646,-253.9"/>
<polygon fill="midnightblue" stroke="midnightblue" points="649.5,-253.67 646,-243.67 642.5,-253.67 649.5,-253.67"/>
</g>
<!-- Node16 -->
<g id="node16" class="node">
<title>Node16</title>
<g id="a_node16"><a xlink:href="Modes_8h.html" target="_top" xlink:title=" ">
<polygon fill="none" stroke="black" points="325,-280.5 325,-299.5 427,-299.5 427,-280.5 325,-280.5"/>
<text text-anchor="middle" x="376" y="-287.5" font-family="Helvetica,sans-Serif" font-size="10.00">../Modes/Modes.h</text>
</a>
</g>
</g>
<!-- Node1&#45;&gt;Node16 -->
<g id="edge32" class="edge">
<title>Node1&#45;&gt;Node16</title>
<path fill="none" stroke="midnightblue" d="M582.36,-336.47C534.05,-325.83 468.63,-311.41 424.51,-301.69"/>
<polygon fill="midnightblue" stroke="midnightblue" points="425.12,-298.24 414.6,-299.51 423.61,-305.08 425.12,-298.24"/>
</g>
<!-- Node18 -->
<g id="node18" class="node">
<title>Node18</title>
<g id="a_node18"><a xlink:href="Log_8h.html" target="_top" xlink:title=" ">
<polygon fill="none" stroke="black" points="542,-168.5 542,-187.5 614,-187.5 614,-168.5 542,-168.5"/>
<text text-anchor="middle" x="578" y="-175.5" font-family="Helvetica,sans-Serif" font-size="10.00">../Log/Log.h</text>
</a>
</g>
</g>
<!-- Node1&#45;&gt;Node18 -->
<g id="edge51" class="edge">
<title>Node1&#45;&gt;Node18</title>
<path fill="none" stroke="midnightblue" d="M635.5,-336.19C621.65,-316.51 597.67,-279.48 586,-244 581.05,-228.96 579.12,-211.06 578.39,-197.85"/>
<polygon fill="midnightblue" stroke="midnightblue" points="581.88,-197.51 578.01,-187.64 574.88,-197.77 581.88,-197.51"/>
</g>
<!-- Node20 -->
<g id="node20" class="node">
<title>Node20</title>
<g id="a_node20"><a xlink:href="Leds_8h.html" target="_top" xlink:title=" ">
<polygon fill="none" stroke="black" points="455.5,-224.5 455.5,-243.5 538.5,-243.5 538.5,-224.5 455.5,-224.5"/>
<text text-anchor="middle" x="497" y="-231.5" font-family="Helvetica,sans-Serif" font-size="10.00">../Leds/Leds.h</text>
</a>
</g>
</g>
<!-- Node1&#45;&gt;Node20 -->
<g id="edge50" class="edge">
<title>Node1&#45;&gt;Node20</title>
<path fill="none" stroke="midnightblue" d="M613.23,-336.32C594.56,-327.39 571.31,-314.76 553,-300 535.69,-286.04 519.52,-266.26 509.05,-252.19"/>
<polygon fill="midnightblue" stroke="midnightblue" points="511.74,-249.93 503.04,-243.89 506.07,-254.04 511.74,-249.93"/>
</g>
<!-- Node3 -->
<g id="node3" class="node">
<title>Node3</title>
<g id="a_node3"><a xlink:title=" ">
<polygon fill="none" stroke="#bfbfbf" points="303.5,-56.5 303.5,-75.5 368.5,-75.5 368.5,-56.5 303.5,-56.5"/>
<text text-anchor="middle" x="336" y="-63.5" font-family="Helvetica,sans-Serif" font-size="10.00">inttypes.h</text>
</a>
</g>
</g>
<!-- Node2&#45;&gt;Node3 -->
<g id="edge2" class="edge">
<title>Node2&#45;&gt;Node3</title>
<path fill="none" stroke="midnightblue" d="M715.29,-226.2C712.16,-225.44 709.01,-224.69 706,-224 629.44,-206.47 605.99,-216.98 533,-188 514.42,-180.62 405.46,-111.45 358.03,-81.13"/>
<polygon fill="midnightblue" stroke="midnightblue" points="359.72,-78.06 349.41,-75.61 355.95,-83.95 359.72,-78.06"/>
</g>
<!-- Node4 -->
<g id="node4" class="node">
<title>Node4</title>
<g id="a_node4"><a xlink:href="ColorTypes_8h.html" target="_top" xlink:title=" ">
<polygon fill="none" stroke="black" points="364,-168.5 364,-187.5 486,-187.5 486,-168.5 364,-168.5"/>
<text text-anchor="middle" x="425" y="-175.5" font-family="Helvetica,sans-Serif" font-size="10.00">../Colors/ColorTypes.h</text>
</a>
</g>
</g>
<!-- Node2&#45;&gt;Node4 -->
<g id="edge3" class="edge">
<title>Node2&#45;&gt;Node4</title>
<path fill="none" stroke="midnightblue" d="M715.32,-226.06C712.19,-225.32 709.03,-224.62 706,-224 635,-209.47 553.1,-196.81 496.11,-188.66"/>
<polygon fill="midnightblue" stroke="midnightblue" points="496.51,-185.18 486.12,-187.24 495.53,-192.11 496.51,-185.18"/>
</g>
<!-- Node7 -->
<g id="node7" class="node">
<title>Node7</title>
<g id="a_node7"><a xlink:href="LedTypes_8h.html" target="_top" xlink:title=" ">
<polygon fill="none" stroke="black" points="722.5,-112.5 722.5,-131.5 827.5,-131.5 827.5,-112.5 722.5,-112.5"/>
<text text-anchor="middle" x="775" y="-119.5" font-family="Helvetica,sans-Serif" font-size="10.00">../Leds/LedTypes.h</text>
</a>
</g>
</g>
<!-- Node2&#45;&gt;Node7 -->
<g id="edge8" class="edge">
<title>Node2&#45;&gt;Node7</title>
<path fill="none" stroke="midnightblue" d="M739.34,-224.28C735.9,-211.51 731.14,-187.16 738,-168 741.94,-157 749.86,-146.77 757.36,-138.85"/>
<polygon fill="midnightblue" stroke="midnightblue" points="759.89,-141.27 764.56,-131.76 754.98,-136.28 759.89,-141.27"/>
</g>
<!-- Node2&#45;&gt;Node9 -->
<g id="edge12" class="edge">
<title>Node2&#45;&gt;Node9</title>
<path fill="none" stroke="midnightblue" d="M750.75,-224.08C758.47,-216.22 769.9,-204.57 779.22,-195.08"/>
<polygon fill="midnightblue" stroke="midnightblue" points="781.9,-197.34 786.41,-187.75 776.91,-192.44 781.9,-197.34"/>
</g>
<!-- Node4&#45;&gt;Node3 -->
<g id="edge4" class="edge">
<title>Node4&#45;&gt;Node3</title>
<path fill="none" stroke="midnightblue" d="M418.02,-168.37C403.26,-150.14 368.71,-107.43 349.49,-83.68"/>
<polygon fill="midnightblue" stroke="midnightblue" points="351.96,-81.16 342.95,-75.59 346.52,-85.57 351.96,-81.16"/>
</g>
<!-- Node5 -->
<g id="node5" class="node">
<title>Node5</title>
<g id="a_node5"><a xlink:href="VortexConfig_8h.html" target="_top" xlink:title=" ">
<polygon fill="none" stroke="black" points="726.5,-56.5 726.5,-75.5 823.5,-75.5 823.5,-56.5 726.5,-56.5"/>
<text text-anchor="middle" x="775" y="-63.5" font-family="Helvetica,sans-Serif" font-size="10.00">../VortexConfig.h</text>
</a>
</g>
</g>
<!-- Node4&#45;&gt;Node5 -->
<g id="edge5" class="edge">
<title>Node4&#45;&gt;Node5</title>
<path fill="none" stroke="midnightblue" d="M462.64,-168.42C498.1,-160.07 552.55,-146.54 599,-132 606.14,-129.76 693.79,-97.22 742.63,-79.05"/>
<polygon fill="midnightblue" stroke="midnightblue" points="743.98,-82.28 752.13,-75.51 741.54,-75.72 743.98,-82.28"/>
</g>
<!-- Node6 -->
<g id="node6" class="node">
<title>Node6</title>
<g id="a_node6"><a xlink:href="ColorConstants_8h.html" target="_top" xlink:title=" ">
<polygon fill="none" stroke="black" points="545,-0.5 545,-19.5 679,-19.5 679,-0.5 545,-0.5"/>
<text text-anchor="middle" x="612" y="-7.5" font-family="Helvetica,sans-Serif" font-size="10.00">Colors/ColorConstants.h</text>
</a>
</g>
</g>
<!-- Node4&#45;&gt;Node6 -->
<g id="edge7" class="edge">
<title>Node4&#45;&gt;Node6</title>
<path fill="none" stroke="midnightblue" d="M429.71,-168.3C437.11,-155.13 452.45,-129.78 470,-112 506.44,-75.09 557.76,-42.32 587.69,-24.7"/>
<polygon fill="midnightblue" stroke="midnightblue" points="589.71,-27.57 596.6,-19.52 586.2,-21.51 589.71,-27.57"/>
</g>
<!-- Node5&#45;&gt;Node6 -->
<g id="edge6" class="edge">
<title>Node5&#45;&gt;Node6</title>
<path fill="none" stroke="midnightblue" d="M749.17,-56.44C721.75,-47.36 678.22,-32.94 647.57,-22.78"/>
<polygon fill="midnightblue" stroke="midnightblue" points="648.3,-19.34 637.71,-19.52 646.1,-25.98 648.3,-19.34"/>
</g>
<!-- Node7&#45;&gt;Node3 -->
<g id="edge9" class="edge">
<title>Node7&#45;&gt;Node3</title>
<path fill="none" stroke="midnightblue" d="M722.48,-114.54C634.71,-103.74 459.86,-82.24 378.94,-72.28"/>
<polygon fill="midnightblue" stroke="midnightblue" points="378.97,-68.76 368.62,-71.01 378.12,-75.71 378.97,-68.76"/>
</g>
<!-- Node7&#45;&gt;Node5 -->
<g id="edge11" class="edge">
<title>Node7&#45;&gt;Node5</title>
<path fill="none" stroke="midnightblue" d="M775,-112.08C775,-105.01 775,-94.86 775,-85.99"/>
<polygon fill="midnightblue" stroke="midnightblue" points="778.5,-85.75 775,-75.75 771.5,-85.75 778.5,-85.75"/>
</g>
<!-- Node8 -->
<g id="node8" class="node">
<title>Node8</title>
<g id="a_node8"><a xlink:title=" ">
<polygon fill="none" stroke="#bfbfbf" points="640,-56.5 640,-75.5 696,-75.5 696,-56.5 640,-56.5"/>
<text text-anchor="middle" x="668" y="-63.5" font-family="Helvetica,sans-Serif" font-size="10.00">stdarg.h</text>
</a>
</g>
</g>
<!-- Node7&#45;&gt;Node8 -->
<g id="edge10" class="edge">
<title>Node7&#45;&gt;Node8</title>
<path fill="none" stroke="midnightblue" d="M757.81,-112.32C740.65,-103.66 714.05,-90.24 694.25,-80.25"/>
<polygon fill="midnightblue" stroke="midnightblue" points="695.65,-77.04 685.15,-75.65 692.5,-83.28 695.65,-77.04"/>
</g>
<!-- Node9&#45;&gt;Node5 -->
<g id="edge16" class="edge">
<title>Node9&#45;&gt;Node5</title>
<path fill="none" stroke="midnightblue" d="M807.62,-168.3C823.59,-156.15 847.8,-133.19 837,-112 830,-98.27 816.63,-87.75 804.1,-80.35"/>
<polygon fill="midnightblue" stroke="midnightblue" points="805.68,-77.22 795.22,-75.51 802.33,-83.37 805.68,-77.22"/>
</g>
<!-- Node9&#45;&gt;Node7 -->
<g id="edge13" class="edge">
<title>Node9&#45;&gt;Node7</title>
<path fill="none" stroke="midnightblue" d="M791.7,-168.08C789.02,-160.85 785.15,-150.41 781.81,-141.4"/>
<polygon fill="midnightblue" stroke="midnightblue" points="785,-139.91 778.24,-131.75 778.43,-142.34 785,-139.91"/>
</g>
<!-- Node10 -->
<g id="node10" class="node">
<title>Node10</title>
<g id="a_node10"><a xlink:href="Patterns_8h.html" target="_top" xlink:title=" ">
<polygon fill="none" stroke="black" points="190.5,-112.5 190.5,-131.5 307.5,-131.5 307.5,-112.5 190.5,-112.5"/>
<text text-anchor="middle" x="249" y="-119.5" font-family="Helvetica,sans-Serif" font-size="10.00">../Patterns/Patterns.h</text>
</a>
</g>
</g>
<!-- Node9&#45;&gt;Node10 -->
<g id="edge14" class="edge">
<title>Node9&#45;&gt;Node10</title>
<path fill="none" stroke="midnightblue" d="M746.07,-172.16C648.6,-162.52 429.98,-140.9 317.99,-129.82"/>
<polygon fill="midnightblue" stroke="midnightblue" points="318.12,-126.32 307.82,-128.82 317.43,-133.28 318.12,-126.32"/>
</g>
<!-- Node10&#45;&gt;Node3 -->
<g id="edge15" class="edge">
<title>Node10&#45;&gt;Node3</title>
<path fill="none" stroke="midnightblue" d="M262.98,-112.32C276.55,-103.9 297.38,-90.97 313.32,-81.07"/>
<polygon fill="midnightblue" stroke="midnightblue" points="315.41,-83.9 322.06,-75.65 311.71,-77.95 315.41,-83.9"/>
</g>
<!-- Node11&#45;&gt;Node3 -->
<g id="edge18" class="edge">
<title>Node11&#45;&gt;Node3</title>
<path fill="none" stroke="midnightblue" d="M948.68,-168.41C927.16,-153.91 880.84,-124.9 837,-112 751.55,-86.85 484.16,-73.21 379.05,-68.7"/>
<polygon fill="midnightblue" stroke="midnightblue" points="378.94,-65.2 368.81,-68.27 378.65,-72.19 378.94,-65.2"/>
</g>
<!-- Node11&#45;&gt;Node5 -->
<g id="edge19" class="edge">
<title>Node11&#45;&gt;Node5</title>
<path fill="none" stroke="midnightblue" d="M961.63,-168.1C962.09,-154.18 960.84,-127.3 946,-112 917.09,-82.19 870.98,-71.32 833.92,-67.7"/>
<polygon fill="midnightblue" stroke="midnightblue" points="833.99,-64.19 823.73,-66.86 833.41,-71.17 833.99,-64.19"/>
</g>
<!-- Node11&#45;&gt;Node7 -->
<g id="edge20" class="edge">
<title>Node11&#45;&gt;Node7</title>
<path fill="none" stroke="midnightblue" d="M931.53,-168.44C899.83,-159.24 849.27,-144.56 814.23,-134.39"/>
<polygon fill="midnightblue" stroke="midnightblue" points="814.91,-130.94 804.33,-131.52 812.96,-137.67 814.91,-130.94"/>
</g>
<!-- Node12&#45;&gt;Node5 -->
<g id="edge23" class="edge">
<title>Node12&#45;&gt;Node5</title>
<path fill="none" stroke="midnightblue" d="M1001.38,-224.42C1017.09,-212.39 1040.99,-189.58 1031,-168 1014.84,-133.09 999.33,-129.36 965,-112 923.76,-91.15 872.57,-79.75 833.71,-73.64"/>
<polygon fill="midnightblue" stroke="midnightblue" points="834.02,-70.15 823.61,-72.13 832.98,-77.07 834.02,-70.15"/>
</g>
<!-- Node12&#45;&gt;Node11 -->
<g id="edge22" class="edge">
<title>Node12&#45;&gt;Node11</title>
<path fill="none" stroke="midnightblue" d="M984.38,-224.08C980.54,-216.69 974.98,-205.95 970.24,-196.81"/>
<polygon fill="midnightblue" stroke="midnightblue" points="973.25,-195.02 965.54,-187.75 967.03,-198.24 973.25,-195.02"/>
</g>
<!-- Node14 -->
<g id="node14" class="node">
<title>Node14</title>
<g id="a_node14"><a xlink:href="Button_8h.html" target="_top" xlink:title=" ">
<polygon fill="none" stroke="black" points="0,-112.5 0,-131.5 58,-131.5 58,-112.5 0,-112.5"/>
<text text-anchor="middle" x="29" y="-119.5" font-family="Helvetica,sans-Serif" font-size="10.00">Button.h</text>
</a>
</g>
</g>
<!-- Node13&#45;&gt;Node14 -->
<g id="edge25" class="edge">
<title>Node13&#45;&gt;Node14</title>
<path fill="none" stroke="midnightblue" d="M125.49,-280.4C108.49,-273.1 86.12,-261.05 72,-244 46.84,-213.62 35.92,-167.45 31.57,-141.82"/>
<polygon fill="midnightblue" stroke="midnightblue" points="34.98,-140.97 30.01,-131.61 28.07,-142.03 34.98,-140.97"/>
</g>
<!-- Node14&#45;&gt;Node3 -->
<g id="edge26" class="edge">
<title>Node14&#45;&gt;Node3</title>
<path fill="none" stroke="midnightblue" d="M58.11,-114.75C62.75,-113.8 67.5,-112.85 72,-112 149.94,-97.21 241.26,-82.14 293.5,-73.74"/>
<polygon fill="midnightblue" stroke="midnightblue" points="294.1,-77.19 303.42,-72.15 292.99,-70.28 294.1,-77.19"/>
</g>
<!-- Node15&#45;&gt;Node3 -->
<g id="edge28" class="edge">
<title>Node15&#45;&gt;Node3</title>
<path fill="none" stroke="midnightblue" d="M594.81,-228.36C515.86,-220.72 371.72,-204.68 355,-188 327.87,-160.93 329.52,-111.99 332.88,-85.4"/>
<polygon fill="midnightblue" stroke="midnightblue" points="336.34,-85.91 334.34,-75.5 329.42,-84.88 336.34,-85.91"/>
</g>
<!-- Node15&#45;&gt;Node4 -->
<g id="edge29" class="edge">
<title>Node15&#45;&gt;Node4</title>
<path fill="none" stroke="midnightblue" d="M610.98,-224.44C572.75,-215.1 511.43,-200.12 469.74,-189.93"/>
<polygon fill="midnightblue" stroke="midnightblue" points="470.4,-186.49 459.85,-187.52 468.74,-193.29 470.4,-186.49"/>
</g>
<!-- Node15&#45;&gt;Node7 -->
<g id="edge30" class="edge">
<title>Node15&#45;&gt;Node7</title>
<path fill="none" stroke="midnightblue" d="M656.12,-224.37C677.98,-205.73 729.81,-161.53 757.25,-138.13"/>
<polygon fill="midnightblue" stroke="midnightblue" points="759.59,-140.74 764.92,-131.59 755.04,-135.42 759.59,-140.74"/>
</g>
<!-- Node15&#45;&gt;Node9 -->
<g id="edge31" class="edge">
<title>Node15&#45;&gt;Node9</title>
<path fill="none" stroke="midnightblue" d="M669.61,-224.44C694.46,-215.44 733.77,-201.19 761.75,-191.05"/>
<polygon fill="midnightblue" stroke="midnightblue" points="763.29,-194.21 771.5,-187.52 760.91,-187.63 763.29,-194.21"/>
</g>
<!-- Node16&#45;&gt;Node3 -->
<g id="edge48" class="edge">
<title>Node16&#45;&gt;Node3</title>
<path fill="none" stroke="midnightblue" d="M324.76,-284.14C266.78,-275.59 174.86,-252.13 132,-188 113.23,-159.92 110.84,-138.33 132,-112 151.81,-87.35 239.28,-75.4 293.05,-70.29"/>
<polygon fill="midnightblue" stroke="midnightblue" points="293.68,-73.75 303.32,-69.36 293.05,-66.77 293.68,-73.75"/>
</g>
<!-- Node16&#45;&gt;Node4 -->
<g id="edge41" class="edge">
<title>Node16&#45;&gt;Node4</title>
<path fill="none" stroke="midnightblue" d="M353.26,-280.43C326.75,-269.09 288.53,-247.76 305,-224 316.55,-207.34 335.07,-196.84 354.15,-190.22"/>
<polygon fill="midnightblue" stroke="midnightblue" points="355.34,-193.52 363.83,-187.19 353.25,-186.84 355.34,-193.52"/>
</g>
<!-- Node16&#45;&gt;Node5 -->
<g id="edge47" class="edge">
<title>Node16&#45;&gt;Node5</title>
<path fill="none" stroke="midnightblue" d="M427.06,-286.62C520.53,-281.7 715.3,-268.78 778,-244 816.69,-228.71 834.36,-225.19 853,-188 859.11,-175.8 867.63,-138.68 852,-112 843.33,-97.2 827.76,-86.79 812.87,-79.73"/>
<polygon fill="midnightblue" stroke="midnightblue" points="813.83,-76.34 803.26,-75.57 811.05,-82.76 813.83,-76.34"/>
</g>
<!-- Node16&#45;&gt;Node10 -->
<g id="edge42" class="edge">
<title>Node16&#45;&gt;Node10</title>
<path fill="none" stroke="midnightblue" d="M352.76,-280.45C335.61,-273.1 312.78,-260.98 298,-244 271.56,-213.62 258.22,-167.11 252.53,-141.51"/>
<polygon fill="midnightblue" stroke="midnightblue" points="255.94,-140.72 250.49,-131.63 249.08,-142.13 255.94,-140.72"/>
</g>
<!-- Node17 -->
<g id="node17" class="node">
<title>Node17</title>
<g id="a_node17"><a xlink:href="ByteStream_8h.html" target="_top" xlink:title=" ">
<polygon fill="none" stroke="black" points="314.5,-224.5 314.5,-243.5 437.5,-243.5 437.5,-224.5 314.5,-224.5"/>
<text text-anchor="middle" x="376" y="-231.5" font-family="Helvetica,sans-Serif" font-size="10.00">../Serial/ByteStream.h</text>
</a>
</g>
</g>
<!-- Node16&#45;&gt;Node17 -->
<g id="edge33" class="edge">
<title>Node16&#45;&gt;Node17</title>
<path fill="none" stroke="midnightblue" d="M376,-280.08C376,-273.01 376,-262.86 376,-253.99"/>
<polygon fill="midnightblue" stroke="midnightblue" points="379.5,-253.75 376,-243.75 372.5,-253.75 379.5,-253.75"/>
</g>
<!-- Node16&#45;&gt;Node20 -->
<g id="edge43" class="edge">
<title>Node16&#45;&gt;Node20</title>
<path fill="none" stroke="midnightblue" d="M395.17,-280.44C414.91,-271.64 445.89,-257.81 468.49,-247.72"/>
<polygon fill="midnightblue" stroke="midnightblue" points="470.21,-250.79 477.92,-243.52 467.36,-244.4 470.21,-250.79"/>
</g>
<!-- Node17&#45;&gt;Node3 -->
<g id="edge34" class="edge">
<title>Node17&#45;&gt;Node3</title>
<path fill="none" stroke="midnightblue" d="M314.47,-229.44C254.28,-224.53 168.72,-213.21 148,-188 126.55,-161.91 127.08,-138.52 148,-112 165.76,-89.49 243.55,-76.98 293.33,-71.15"/>
<polygon fill="midnightblue" stroke="midnightblue" points="293.95,-74.61 303.5,-70.01 293.17,-67.65 293.95,-74.61"/>
</g>
<!-- Node17&#45;&gt;Node18 -->
<g id="edge35" class="edge">
<title>Node17&#45;&gt;Node18</title>
<path fill="none" stroke="midnightblue" d="M408.01,-224.44C442.73,-215.16 498.29,-200.31 536.38,-190.13"/>
<polygon fill="midnightblue" stroke="midnightblue" points="537.39,-193.48 546.14,-187.52 535.58,-186.72 537.39,-193.48"/>
</g>
<!-- Node18&#45;&gt;Node5 -->
<g id="edge37" class="edge">
<title>Node18&#45;&gt;Node5</title>
<path fill="none" stroke="midnightblue" d="M593.46,-168.37C627.62,-149.29 709.77,-103.42 750.81,-80.51"/>
<polygon fill="midnightblue" stroke="midnightblue" points="752.59,-83.52 759.61,-75.59 749.18,-77.41 752.59,-83.52"/>
</g>
<!-- Node18&#45;&gt;Node8 -->
<g id="edge36" class="edge">
<title>Node18&#45;&gt;Node8</title>
<path fill="none" stroke="midnightblue" d="M585.06,-168.37C600.05,-150.05 635.23,-107.05 654.61,-83.36"/>
<polygon fill="midnightblue" stroke="midnightblue" points="657.35,-85.55 660.97,-75.59 651.93,-81.11 657.35,-85.55"/>
</g>
<!-- Node19 -->
<g id="node19" class="node">
<title>Node19</title>
<g id="a_node19"><a xlink:href="ErrorBlinker_8h.html" target="_top" xlink:title=" ">
<polygon fill="none" stroke="black" points="478.5,-112.5 478.5,-131.5 589.5,-131.5 589.5,-112.5 478.5,-112.5"/>
<text text-anchor="middle" x="534" y="-119.5" font-family="Helvetica,sans-Serif" font-size="10.00">../Log/ErrorBlinker.h</text>
</a>
</g>
</g>
<!-- Node18&#45;&gt;Node19 -->
<g id="edge38" class="edge">
<title>Node18&#45;&gt;Node19</title>
<path fill="none" stroke="midnightblue" d="M570.73,-168.08C564.46,-160.38 555.21,-149.03 547.57,-139.65"/>
<polygon fill="midnightblue" stroke="midnightblue" points="550.16,-137.29 541.13,-131.75 544.73,-141.71 550.16,-137.29"/>
</g>
<!-- Node19&#45;&gt;Node3 -->
<g id="edge39" class="edge">
<title>Node19&#45;&gt;Node3</title>
<path fill="none" stroke="midnightblue" d="M502.63,-112.44C468.74,-103.2 414.6,-88.44 377.28,-78.26"/>
<polygon fill="midnightblue" stroke="midnightblue" points="377.8,-74.77 367.23,-75.52 375.95,-81.52 377.8,-74.77"/>
</g>
<!-- Node19&#45;&gt;Node5 -->
<g id="edge40" class="edge">
<title>Node19&#45;&gt;Node5</title>
<path fill="none" stroke="midnightblue" d="M572.19,-112.44C614.14,-103.04 681.59,-87.93 727.07,-77.74"/>
<polygon fill="midnightblue" stroke="midnightblue" points="728,-81.12 736.99,-75.52 726.47,-74.29 728,-81.12"/>
</g>
<!-- Node20&#45;&gt;Node3 -->
<g id="edge44" class="edge">
<title>Node20&#45;&gt;Node3</title>
<path fill="none" stroke="midnightblue" d="M458.02,-224.47C422.28,-216.29 368.08,-203.01 322,-188 257.89,-167.12 218.87,-187.79 181,-132 151.9,-89.13 237.73,-74.46 293.06,-69.49"/>
<polygon fill="midnightblue" stroke="midnightblue" points="293.66,-72.96 303.34,-68.65 293.09,-65.98 293.66,-72.96"/>
</g>
<!-- Node20&#45;&gt;Node4 -->
<g id="edge45" class="edge">
<title>Node20&#45;&gt;Node4</title>
<path fill="none" stroke="midnightblue" d="M485.43,-224.32C474.58,-216.18 458.12,-203.84 445.12,-194.09"/>
<polygon fill="midnightblue" stroke="midnightblue" points="446.88,-191.03 436.78,-187.83 442.68,-196.63 446.88,-191.03"/>
</g>
<!-- Node20&#45;&gt;Node7 -->
<g id="edge46" class="edge">
<title>Node20&#45;&gt;Node7</title>
<path fill="none" stroke="midnightblue" d="M522.27,-224.48C547.83,-215.75 588.4,-201.56 623,-188 666.64,-170.89 716.47,-149.16 746.82,-135.66"/>
<polygon fill="midnightblue" stroke="midnightblue" points="748.25,-138.86 755.96,-131.59 745.4,-132.46 748.25,-138.86"/>
</g>
</g>
</svg>
        <g id="navigator" transform="translate(0 0)" fill="#404254">
                <rect fill="#f2f5e9" fill-opacity="0.5" stroke="#606060" stroke-width=".5" x="0" y="0" width="60" height="60"/>
                <use id="zoomplus" xlink:href="#zoomPlus" x="17" y="9" onmousedown="handleZoom(evt,'in')"/>
                <use id="zoomminus" xlink:href="#zoomMin" x="42" y="9" onmousedown="handleZoom(evt,'out')"/>
                <use id="reset" xlink:href="#resetDef" x="30" y="36" onmousedown="handleReset()"/>
                <g id="arrowUp" xlink:href="#dirArrow" transform="translate(30 24)" onmousedown="handlePan(0,-1)">
                  <use xlink:href="#rim" fill="#404040">
                        <set attributeName="fill" to="#808080" begin="arrowUp.mouseover" end="arrowUp.mouseout"/>
                  </use>
                  <path fill="none" stroke="white" stroke-width="1.5" d="M0,-3.0v7 M-2.5,-0.5L0,-3.0L2.5,-0.5"/>
                </g>
                <g id="arrowRight" xlink:href="#dirArrow" transform="rotate(90) translate(36 -43)" onmousedown="handlePan(1,0)">
                  <use xlink:href="#rim" fill="#404040">
                        <set attributeName="fill" to="#808080" begin="arrowRight.mouseover" end="arrowRight.mouseout"/>
                  </use>
                  <path fill="none" stroke="white" stroke-width="1.5" d="M0,-3.0v7 M-2.5,-0.5L0,-3.0L2.5,-0.5"/>
                </g>
                <g id="arrowDown" xlink:href="#dirArrow" transform="rotate(180) translate(-30 -48)" onmousedown="handlePan(0,1)">
                  <use xlink:href="#rim" fill="#404040">
                        <set attributeName="fill" to="#808080" begin="arrowDown.mouseover" end="arrowDown.mouseout"/>
                  </use>
                  <path fill="none" stroke="white" stroke-width="1.5" d="M0,-3.0v7 M-2.5,-0.5L0,-3.0L2.5,-0.5"/>
                </g>
                <g id="arrowLeft" xlink:href="#dirArrow" transform="rotate(270) translate(-36 17)" onmousedown="handlePan(-1,0)">
                  <use xlink:href="#rim" fill="#404040">
                        <set attributeName="fill" to="#808080" begin="arrowLeft.mouseover" end="arrowLeft.mouseout"/>
                  </use>
                  <path fill="none" stroke="white" stroke-width="1.5" d="M0,-3.0v7 M-2.5,-0.5L0,-3.0L2.5,-0.5"/>
                </g>
        </g>
        <svg viewBox="0 0 15 15" width="100%" height="30px" preserveAspectRatio="xMaxYMin meet">
         <g id="arrow_out" transform="scale(0.3 0.3)">
          <a xlink:href="Menu_8cpp__incl_org.svg" target="_base">
           <rect id="button" ry="5" rx="5" y="6" x="6" height="38" width="38"
                fill="#f2f5e9" fill-opacity="0.5" stroke="#606060" stroke-width="1.0"/>
           <path id="arrow"
             d="M 11.500037,31.436501 C 11.940474,20.09759 22.043105,11.32322 32.158766,21.979434 L 37.068811,17.246167 C 37.068811,17.246167 37.088388,32 37.088388,32 L 22.160133,31.978069 C 22.160133,31.978069 26.997745,27.140456 26.997745,27.140456 C 18.528582,18.264221 13.291696,25.230495 11.500037,31.436501 z"
             style="fill:#404040;"/>
          </a>
         </g>
        </svg>
</svg>
