<?xml version="1.0" encoding="UTF-8" standalone="no"?>
<!DOCTYPE svg PUBLIC "-//W3C//DTD SVG 1.1//EN"
 "http://www.w3.org/Graphics/SVG/1.1/DTD/svg11.dtd">
<!-- Generated by graphviz version 2.43.0 (0)
 -->
<!-- Title: VortexEngine/src/Modes/Mode.h Pages: 1 -->
<svg width="2466pt" height="240pt"
 viewBox="0.00 0.00 2465.50 240.00" xmlns="http://www.w3.org/2000/svg" xmlns:xlink="http://www.w3.org/1999/xlink">
<g id="graph0" class="graph" transform="scale(1 1) rotate(0) translate(4 236)">
<title>VortexEngine/src/Modes/Mode.h</title>
<!-- Node1 -->
<g id="node1" class="node">
<title>Node1</title>
<g id="a_node1"><a xlink:title=" ">
<polygon fill="#bfbfbf" stroke="black" points="1414,-201.5 1414,-231.5 1548,-231.5 1548,-201.5 1414,-201.5"/>
<text text-anchor="start" x="1422" y="-219.5" font-family="Helvetica,sans-Serif" font-size="10.00">VortexEngine/src/Modes</text>
<text text-anchor="middle" x="1481" y="-208.5" font-family="Helvetica,sans-Serif" font-size="10.00">/Mode.h</text>
</a>
</g>
</g>
<!-- Node2 -->
<g id="node2" class="node">
<title>Node2</title>
<g id="a_node2"><a xlink:href="Menu_8cpp.html" target="_top" xlink:title=" ">
<polygon fill="none" stroke="black" points="1300,-67.5 1300,-97.5 1434,-97.5 1434,-67.5 1300,-67.5"/>
<text text-anchor="start" x="1308" y="-85.5" font-family="Helvetica,sans-Serif" font-size="10.00">VortexEngine/src/Menus</text>
<text text-anchor="middle" x="1367" y="-74.5" font-family="Helvetica,sans-Serif" font-size="10.00">/Menu.cpp</text>
</a>
</g>
</g>
<!-- Node1&#45;&gt;Node2 -->
<g id="edge1" class="edge">
<title>Node1&#45;&gt;Node2</title>
<path fill="none" stroke="midnightblue" d="M1462.04,-193.54C1438.47,-166.25 1398.94,-120.48 1379.11,-97.52"/>
<polygon fill="midnightblue" stroke="midnightblue" points="1459.61,-196.09 1468.8,-201.37 1464.91,-191.52 1459.61,-196.09"/>
</g>
<!-- Node3 -->
<g id="node3" class="node">
<title>Node3</title>
<g id="a_node3"><a xlink:href="Menu_8h.html" target="_top" xlink:title=" ">
<polygon fill="none" stroke="black" points="838,-134.5 838,-164.5 972,-164.5 972,-134.5 838,-134.5"/>
<text text-anchor="start" x="846" y="-152.5" font-family="Helvetica,sans-Serif" font-size="10.00">VortexEngine/src/Menus</text>
<text text-anchor="middle" x="905" y="-141.5" font-family="Helvetica,sans-Serif" font-size="10.00">/Menu.h</text>
</a>
</g>
</g>
<!-- Node1&#45;&gt;Node3 -->
<g id="edge2" class="edge">
<title>Node1&#45;&gt;Node3</title>
<path fill="none" stroke="midnightblue" d="M1403.78,-206.79C1290.17,-193.97 1079.82,-170.23 972.22,-158.09"/>
<polygon fill="midnightblue" stroke="midnightblue" points="1403.47,-210.27 1413.8,-207.92 1404.25,-203.32 1403.47,-210.27"/>
</g>
<!-- Node5 -->
<g id="node5" class="node">
<title>Node5</title>
<g id="a_node5"><a xlink:href="ColorSelect_8cpp.html" target="_top" xlink:title=" ">
<polygon fill="none" stroke="black" points="1311.5,-0.5 1311.5,-30.5 1454.5,-30.5 1454.5,-0.5 1311.5,-0.5"/>
<text text-anchor="start" x="1319.5" y="-18.5" font-family="Helvetica,sans-Serif" font-size="10.00">VortexEngine/src/Menus</text>
<text text-anchor="middle" x="1383" y="-7.5" font-family="Helvetica,sans-Serif" font-size="10.00">/MenuList/ColorSelect.cpp</text>
</a>
</g>
</g>
<!-- Node1&#45;&gt;Node5 -->
<g id="edge25" class="edge">
<title>Node1&#45;&gt;Node5</title>
<path fill="none" stroke="midnightblue" d="M1479.32,-190.97C1476.21,-159.96 1467.46,-105.94 1443,-67 1433.73,-52.24 1418.73,-39.62 1406.05,-30.68"/>
<polygon fill="midnightblue" stroke="midnightblue" points="1475.86,-191.63 1480.23,-201.28 1482.83,-191.01 1475.86,-191.63"/>
</g>
<!-- Node7 -->
<g id="node7" class="node">
<title>Node7</title>
<g id="a_node7"><a xlink:href="EditorConnection_8h.html" target="_top" xlink:title=" ">
<polygon fill="none" stroke="black" points="167.5,-67.5 167.5,-97.5 326.5,-97.5 326.5,-67.5 167.5,-67.5"/>
<text text-anchor="start" x="175.5" y="-85.5" font-family="Helvetica,sans-Serif" font-size="10.00">VortexEngine/src/Menus</text>
<text text-anchor="middle" x="247" y="-74.5" font-family="Helvetica,sans-Serif" font-size="10.00">/MenuList/EditorConnection.h</text>
</a>
</g>
</g>
<!-- Node1&#45;&gt;Node7 -->
<g id="edge27" class="edge">
<title>Node1&#45;&gt;Node7</title>
<path fill="none" stroke="midnightblue" d="M1403.76,-210.96C1281.57,-203.45 1036.26,-187.06 829,-165 608.68,-141.55 554.11,-130.9 335,-98 332.24,-97.59 329.44,-97.16 326.61,-96.72"/>
<polygon fill="midnightblue" stroke="midnightblue" points="1403.58,-214.46 1413.77,-211.57 1404.01,-207.47 1403.58,-214.46"/>
</g>
<!-- Node8 -->
<g id="node8" class="node">
<title>Node8</title>
<g id="a_node8"><a xlink:href="EditorConnection_8cpp.html" target="_top" xlink:title=" ">
<polygon fill="none" stroke="black" points="0,-0.5 0,-30.5 170,-30.5 170,-0.5 0,-0.5"/>
<text text-anchor="start" x="8" y="-18.5" font-family="Helvetica,sans-Serif" font-size="10.00">VortexEngine/src/Menus</text>
<text text-anchor="middle" x="85" y="-7.5" font-family="Helvetica,sans-Serif" font-size="10.00">/MenuList/EditorConnection.cpp</text>
</a>
</g>
</g>
<!-- Node1&#45;&gt;Node8 -->
<g id="edge26" class="edge">
<title>Node1&#45;&gt;Node8</title>
<path fill="none" stroke="midnightblue" d="M1403.39,-214.59C1129.52,-211.11 221.85,-197.2 169,-165 118.66,-134.33 95.83,-61.61 88.15,-30.75"/>
<polygon fill="midnightblue" stroke="midnightblue" points="1403.59,-218.09 1413.64,-214.72 1403.68,-211.09 1403.59,-218.09"/>
</g>
<!-- Node10 -->
<g id="node10" class="node">
<title>Node10</title>
<g id="a_node10"><a xlink:href="FactoryReset_8cpp.html" target="_top" xlink:title=" ">
<polygon fill="none" stroke="black" points="228,-0.5 228,-30.5 378,-30.5 378,-0.5 228,-0.5"/>
<text text-anchor="start" x="236" y="-18.5" font-family="Helvetica,sans-Serif" font-size="10.00">VortexEngine/src/Menus</text>
<text text-anchor="middle" x="303" y="-7.5" font-family="Helvetica,sans-Serif" font-size="10.00">/MenuList/FactoryReset.cpp</text>
</a>
</g>
</g>
<!-- Node1&#45;&gt;Node10 -->
<g id="edge28" class="edge">
<title>Node1&#45;&gt;Node10</title>
<path fill="none" stroke="midnightblue" d="M1403.53,-214.88C1149.59,-212.51 352.36,-202.15 243,-165 185.56,-145.49 112.36,-116.09 148,-67 166.46,-41.58 198.05,-28.71 227.91,-22.28"/>
<polygon fill="midnightblue" stroke="midnightblue" points="1403.74,-218.39 1413.77,-214.98 1403.8,-211.39 1403.74,-218.39"/>
</g>
<!-- Node14 -->
<g id="node14" class="node">
<title>Node14</title>
<g id="a_node14"><a xlink:href="ModeSharing_8cpp.html" target="_top" xlink:title=" ">
<polygon fill="none" stroke="black" points="416.5,-0.5 416.5,-30.5 567.5,-30.5 567.5,-0.5 416.5,-0.5"/>
<text text-anchor="start" x="424.5" y="-18.5" font-family="Helvetica,sans-Serif" font-size="10.00">VortexEngine/src/Menus</text>
<text text-anchor="middle" x="492" y="-7.5" font-family="Helvetica,sans-Serif" font-size="10.00">/MenuList/ModeSharing.cpp</text>
</a>
</g>
</g>
<!-- Node1&#45;&gt;Node14 -->
<g id="edge29" class="edge">
<title>Node1&#45;&gt;Node14</title>
<path fill="none" stroke="midnightblue" d="M1403.74,-214.77C1133.01,-211.42 239.18,-193.15 158,-98 149.06,-87.52 149.02,-77.45 158,-67 160.11,-64.54 318.52,-41.41 416.4,-27.32"/>
<polygon fill="midnightblue" stroke="midnightblue" points="1403.83,-218.28 1413.88,-214.9 1403.92,-211.28 1403.83,-218.28"/>
</g>
<!-- Node15 -->
<g id="node15" class="node">
<title>Node15</title>
<g id="a_node15"><a xlink:href="PatternSelect_8h.html" target="_top" xlink:title=" ">
<polygon fill="none" stroke="black" points="990,-67.5 990,-97.5 1130,-97.5 1130,-67.5 990,-67.5"/>
<text text-anchor="start" x="998" y="-85.5" font-family="Helvetica,sans-Serif" font-size="10.00">VortexEngine/src/Menus</text>
<text text-anchor="middle" x="1060" y="-74.5" font-family="Helvetica,sans-Serif" font-size="10.00">/MenuList/PatternSelect.h</text>
</a>
</g>
</g>
<!-- Node1&#45;&gt;Node15 -->
<g id="edge30" class="edge">
<title>Node1&#45;&gt;Node15</title>
<path fill="none" stroke="midnightblue" d="M1426.73,-198.48C1342.71,-172.14 1182.72,-121.98 1104.83,-97.56"/>
<polygon fill="midnightblue" stroke="midnightblue" points="1425.76,-201.85 1436.34,-201.5 1427.85,-195.17 1425.76,-201.85"/>
</g>
<!-- Node17 -->
<g id="node17" class="node">
<title>Node17</title>
<g id="a_node17"><a xlink:href="Randomizer_8h.html" target="_top" xlink:title=" ">
<polygon fill="none" stroke="black" points="1148,-67.5 1148,-97.5 1282,-97.5 1282,-67.5 1148,-67.5"/>
<text text-anchor="start" x="1156" y="-85.5" font-family="Helvetica,sans-Serif" font-size="10.00">VortexEngine/src/Menus</text>
<text text-anchor="middle" x="1215" y="-74.5" font-family="Helvetica,sans-Serif" font-size="10.00">/MenuList/Randomizer.h</text>
</a>
</g>
</g>
<!-- Node1&#45;&gt;Node17 -->
<g id="edge32" class="edge">
<title>Node1&#45;&gt;Node17</title>
<path fill="none" stroke="midnightblue" d="M1443.32,-196.8C1389.39,-170.04 1291.42,-121.42 1243.26,-97.52"/>
<polygon fill="midnightblue" stroke="midnightblue" points="1442.02,-200.06 1452.53,-201.37 1445.13,-193.79 1442.02,-200.06"/>
</g>
<!-- Node18 -->
<g id="node18" class="node">
<title>Node18</title>
<g id="a_node18"><a xlink:href="Randomizer_8cpp.html" target="_top" xlink:title=" ">
<polygon fill="none" stroke="black" points="1643.5,-0.5 1643.5,-30.5 1788.5,-30.5 1788.5,-0.5 1643.5,-0.5"/>
<text text-anchor="start" x="1651.5" y="-18.5" font-family="Helvetica,sans-Serif" font-size="10.00">VortexEngine/src/Menus</text>
<text text-anchor="middle" x="1716" y="-7.5" font-family="Helvetica,sans-Serif" font-size="10.00">/MenuList/Randomizer.cpp</text>
</a>
</g>
</g>
<!-- Node1&#45;&gt;Node18 -->
<g id="edge31" class="edge">
<title>Node1&#45;&gt;Node18</title>
<path fill="none" stroke="midnightblue" d="M1558.19,-210.84C1694.99,-200.75 1970.9,-171.58 2027,-98 2035.35,-87.04 2035.93,-77.49 2027,-67 1997.01,-31.74 1870.73,-21.03 1788.6,-17.82"/>
<polygon fill="midnightblue" stroke="midnightblue" points="1557.91,-207.35 1548.19,-211.56 1558.41,-214.33 1557.91,-207.35"/>
</g>
<!-- Node19 -->
<g id="node19" class="node">
<title>Node19</title>
<g id="a_node19"><a xlink:href="Menus_8h.html" target="_top" xlink:title=" ">
<polygon fill="none" stroke="black" points="1556,-134.5 1556,-164.5 1690,-164.5 1690,-134.5 1556,-134.5"/>
<text text-anchor="start" x="1564" y="-152.5" font-family="Helvetica,sans-Serif" font-size="10.00">VortexEngine/src/Menus</text>
<text text-anchor="middle" x="1623" y="-141.5" font-family="Helvetica,sans-Serif" font-size="10.00">/Menus.h</text>
</a>
</g>
</g>
<!-- Node1&#45;&gt;Node19 -->
<g id="edge33" class="edge">
<title>Node1&#45;&gt;Node19</title>
<path fill="none" stroke="midnightblue" d="M1521.13,-197.13C1543.69,-186.8 1571.42,-174.11 1592.25,-164.58"/>
<polygon fill="midnightblue" stroke="midnightblue" points="1519.45,-194.05 1511.81,-201.4 1522.36,-200.42 1519.45,-194.05"/>
</g>
<!-- Node20 -->
<g id="node20" class="node">
<title>Node20</title>
<g id="a_node20"><a xlink:href="Modes_8cpp.html" target="_top" xlink:title=" ">
<polygon fill="none" stroke="black" points="1680,-67.5 1680,-97.5 1814,-97.5 1814,-67.5 1680,-67.5"/>
<text text-anchor="start" x="1688" y="-85.5" font-family="Helvetica,sans-Serif" font-size="10.00">VortexEngine/src/Modes</text>
<text text-anchor="middle" x="1747" y="-74.5" font-family="Helvetica,sans-Serif" font-size="10.00">/Modes.cpp</text>
</a>
</g>
</g>
<!-- Node1&#45;&gt;Node20 -->
<g id="edge43" class="edge">
<title>Node1&#45;&gt;Node20</title>
<path fill="none" stroke="midnightblue" d="M1558.17,-212.52C1602.97,-207.38 1658.38,-194.81 1699,-165 1722.17,-148 1736.09,-116.16 1742.58,-97.71"/>
<polygon fill="midnightblue" stroke="midnightblue" points="1557.79,-209.04 1548.2,-213.56 1558.51,-216 1557.79,-209.04"/>
</g>
<!-- Node21 -->
<g id="node21" class="node">
<title>Node21</title>
<g id="a_node21"><a xlink:href="VortexEngine_8cpp.html" target="_top" xlink:title=" ">
<polygon fill="none" stroke="black" points="1832,-73 1832,-92 2018,-92 2018,-73 1832,-73"/>
<text text-anchor="middle" x="1925" y="-80" font-family="Helvetica,sans-Serif" font-size="10.00">VortexEngine/src/VortexEngine.cpp</text>
</a>
</g>
</g>
<!-- Node1&#45;&gt;Node21 -->
<g id="edge44" class="edge">
<title>Node1&#45;&gt;Node21</title>
<path fill="none" stroke="midnightblue" d="M1558.04,-203.52C1607.01,-194.97 1671.41,-181.98 1727,-165 1795.61,-144.04 1873.31,-108.36 1907.39,-92.07"/>
<polygon fill="midnightblue" stroke="midnightblue" points="1557.41,-200.08 1548.15,-205.23 1558.6,-206.98 1557.41,-200.08"/>
</g>
<!-- Node22 -->
<g id="node22" class="node">
<title>Node22</title>
<g id="a_node22"><a xlink:href="Mode_8cpp.html" target="_top" xlink:title=" ">
<polygon fill="none" stroke="black" points="2001,-134.5 2001,-164.5 2135,-164.5 2135,-134.5 2001,-134.5"/>
<text text-anchor="start" x="2009" y="-152.5" font-family="Helvetica,sans-Serif" font-size="10.00">VortexEngine/src/Modes</text>
<text text-anchor="middle" x="2068" y="-141.5" font-family="Helvetica,sans-Serif" font-size="10.00">/Mode.cpp</text>
</a>
</g>
</g>
<!-- Node1&#45;&gt;Node22 -->
<g id="edge42" class="edge">
<title>Node1&#45;&gt;Node22</title>
<path fill="none" stroke="midnightblue" d="M1558.58,-209.64C1658.07,-201.69 1835.83,-186.04 1987,-165 1991.53,-164.37 1996.19,-163.67 2000.88,-162.93"/>
<polygon fill="midnightblue" stroke="midnightblue" points="1558.01,-206.18 1548.31,-210.46 1558.56,-213.15 1558.01,-206.18"/>
</g>
<!-- Node23 -->
<g id="node23" class="node">
<title>Node23</title>
<g id="a_node23"><a xlink:href="VLReceiver_8cpp.html" target="_top" xlink:title=" ">
<polygon fill="none" stroke="black" points="2153.5,-134.5 2153.5,-164.5 2296.5,-164.5 2296.5,-134.5 2153.5,-134.5"/>
<text text-anchor="start" x="2161.5" y="-152.5" font-family="Helvetica,sans-Serif" font-size="10.00">VortexEngine/src/Wireless</text>
<text text-anchor="middle" x="2225" y="-141.5" font-family="Helvetica,sans-Serif" font-size="10.00">/VLReceiver.cpp</text>
</a>
</g>
</g>
<!-- Node1&#45;&gt;Node23 -->
<g id="edge45" class="edge">
<title>Node1&#45;&gt;Node23</title>
<path fill="none" stroke="midnightblue" d="M1558.19,-212.16C1682.1,-206.22 1932.93,-191.86 2144,-165 2146.98,-164.62 2150.01,-164.21 2153.07,-163.77"/>
<polygon fill="midnightblue" stroke="midnightblue" points="1557.87,-208.67 1548.04,-212.64 1558.2,-215.66 1557.87,-208.67"/>
</g>
<!-- Node24 -->
<g id="node24" class="node">
<title>Node24</title>
<g id="a_node24"><a xlink:href="VLSender_8cpp.html" target="_top" xlink:title=" ">
<polygon fill="none" stroke="black" points="2314.5,-134.5 2314.5,-164.5 2457.5,-164.5 2457.5,-134.5 2314.5,-134.5"/>
<text text-anchor="start" x="2322.5" y="-152.5" font-family="Helvetica,sans-Serif" font-size="10.00">VortexEngine/src/Wireless</text>
<text text-anchor="middle" x="2386" y="-141.5" font-family="Helvetica,sans-Serif" font-size="10.00">/VLSender.cpp</text>
</a>
</g>
</g>
<!-- Node1&#45;&gt;Node24 -->
<g id="edge46" class="edge">
<title>Node1&#45;&gt;Node24</title>
<path fill="none" stroke="midnightblue" d="M1558.3,-213.81C1704.7,-209.94 2032.28,-198.07 2306,-165 2308.66,-164.68 2311.37,-164.32 2314.1,-163.95"/>
<polygon fill="midnightblue" stroke="midnightblue" points="1557.98,-210.32 1548.08,-214.08 1558.17,-217.32 1557.98,-210.32"/>
</g>
<!-- Node3&#45;&gt;Node2 -->
<g id="edge3" class="edge">
<title>Node3&#45;&gt;Node2</title>
<path fill="none" stroke="midnightblue" d="M982.35,-139.73C1060.42,-130.56 1184.35,-115.14 1291,-98 1293.92,-97.53 1296.9,-97.04 1299.9,-96.52"/>
<polygon fill="midnightblue" stroke="midnightblue" points="981.64,-136.29 972.12,-140.93 982.45,-143.24 981.64,-136.29"/>
</g>
<!-- Node4 -->
<g id="node4" class="node">
<title>Node4</title>
<g id="a_node4"><a xlink:href="ColorSelect_8h.html" target="_top" xlink:title=" ">
<polygon fill="none" stroke="black" points="838,-67.5 838,-97.5 972,-97.5 972,-67.5 838,-67.5"/>
<text text-anchor="start" x="846" y="-85.5" font-family="Helvetica,sans-Serif" font-size="10.00">VortexEngine/src/Menus</text>
<text text-anchor="middle" x="905" y="-74.5" font-family="Helvetica,sans-Serif" font-size="10.00">/MenuList/ColorSelect.h</text>
</a>
</g>
</g>
<!-- Node3&#45;&gt;Node4 -->
<g id="edge4" class="edge">
<title>Node3&#45;&gt;Node4</title>
<path fill="none" stroke="midnightblue" d="M905,-124.11C905,-115.15 905,-105.32 905,-97.58"/>
<polygon fill="midnightblue" stroke="midnightblue" points="901.5,-124.4 905,-134.4 908.5,-124.4 901.5,-124.4"/>
</g>
<!-- Node3&#45;&gt;Node7 -->
<g id="edge7" class="edge">
<title>Node3&#45;&gt;Node7</title>
<path fill="none" stroke="midnightblue" d="M827.7,-143.5C717.91,-135.97 510.62,-120.22 335,-98 332.23,-97.65 329.42,-97.28 326.59,-96.89"/>
<polygon fill="midnightblue" stroke="midnightblue" points="827.48,-146.99 837.7,-144.18 827.96,-140.01 827.48,-146.99"/>
</g>
<!-- Node9 -->
<g id="node9" class="node">
<title>Node9</title>
<g id="a_node9"><a xlink:href="FactoryReset_8h.html" target="_top" xlink:title=" ">
<polygon fill="none" stroke="black" points="344.5,-67.5 344.5,-97.5 483.5,-97.5 483.5,-67.5 344.5,-67.5"/>
<text text-anchor="start" x="352.5" y="-85.5" font-family="Helvetica,sans-Serif" font-size="10.00">VortexEngine/src/Menus</text>
<text text-anchor="middle" x="414" y="-74.5" font-family="Helvetica,sans-Serif" font-size="10.00">/MenuList/FactoryReset.h</text>
</a>
</g>
</g>
<!-- Node3&#45;&gt;Node9 -->
<g id="edge10" class="edge">
<title>Node3&#45;&gt;Node9</title>
<path fill="none" stroke="midnightblue" d="M827.65,-140.41C744.71,-131.41 609.25,-115.78 493,-98 489.97,-97.54 486.87,-97.05 483.75,-96.53"/>
<polygon fill="midnightblue" stroke="midnightblue" points="827.43,-143.91 837.75,-141.5 828.19,-136.95 827.43,-143.91"/>
</g>
<!-- Node11 -->
<g id="node11" class="node">
<title>Node11</title>
<g id="a_node11"><a xlink:href="GlobalBrightness_8h.html" target="_top" xlink:title=" ">
<polygon fill="none" stroke="black" points="660.5,-67.5 660.5,-97.5 819.5,-97.5 819.5,-67.5 660.5,-67.5"/>
<text text-anchor="start" x="668.5" y="-85.5" font-family="Helvetica,sans-Serif" font-size="10.00">VortexEngine/src/Menus</text>
<text text-anchor="middle" x="740" y="-74.5" font-family="Helvetica,sans-Serif" font-size="10.00">/MenuList/GlobalBrightness.h</text>
</a>
</g>
</g>
<!-- Node3&#45;&gt;Node11 -->
<g id="edge13" class="edge">
<title>Node3&#45;&gt;Node11</title>
<path fill="none" stroke="midnightblue" d="M859.77,-130.68C833.31,-120.26 800.37,-107.28 775.73,-97.58"/>
<polygon fill="midnightblue" stroke="midnightblue" points="858.61,-133.99 869.2,-134.4 861.18,-127.47 858.61,-133.99"/>
</g>
<!-- Node13 -->
<g id="node13" class="node">
<title>Node13</title>
<g id="a_node13"><a xlink:href="ModeSharing_8h.html" target="_top" xlink:title=" ">
<polygon fill="none" stroke="black" points="502,-67.5 502,-97.5 642,-97.5 642,-67.5 502,-67.5"/>
<text text-anchor="start" x="510" y="-85.5" font-family="Helvetica,sans-Serif" font-size="10.00">VortexEngine/src/Menus</text>
<text text-anchor="middle" x="572" y="-74.5" font-family="Helvetica,sans-Serif" font-size="10.00">/MenuList/ModeSharing.h</text>
</a>
</g>
</g>
<!-- Node3&#45;&gt;Node13 -->
<g id="edge16" class="edge">
<title>Node3&#45;&gt;Node13</title>
<path fill="none" stroke="midnightblue" d="M827.73,-133.42C771.68,-122.48 696.49,-107.8 642.16,-97.19"/>
<polygon fill="midnightblue" stroke="midnightblue" points="827.13,-136.87 837.61,-135.35 828.47,-130 827.13,-136.87"/>
</g>
<!-- Node3&#45;&gt;Node15 -->
<g id="edge19" class="edge">
<title>Node3&#45;&gt;Node15</title>
<path fill="none" stroke="midnightblue" d="M948.15,-130.41C972.89,-120.03 1003.5,-107.2 1026.43,-97.58"/>
<polygon fill="midnightblue" stroke="midnightblue" points="946.5,-127.3 938.63,-134.4 949.21,-133.76 946.5,-127.3"/>
</g>
<!-- Node3&#45;&gt;Node17 -->
<g id="edge22" class="edge">
<title>Node3&#45;&gt;Node17</title>
<path fill="none" stroke="midnightblue" d="M981.87,-132.38C1032.86,-121.69 1099.13,-107.8 1147.97,-97.55"/>
<polygon fill="midnightblue" stroke="midnightblue" points="980.95,-129 971.88,-134.48 982.39,-135.85 980.95,-129"/>
</g>
<!-- Node4&#45;&gt;Node5 -->
<g id="edge5" class="edge">
<title>Node4&#45;&gt;Node5</title>
<path fill="none" stroke="midnightblue" d="M982.3,-66.86C1103.48,-47.94 1232.92,-32.75 1311.28,-24.12"/>
<polygon fill="midnightblue" stroke="midnightblue" points="981.43,-63.45 972.1,-68.46 982.52,-70.36 981.43,-63.45"/>
</g>
<!-- Node6 -->
<g id="node6" class="node">
<title>Node6</title>
<g id="a_node6"><a xlink:href="Menus_8cpp.html" target="_top" xlink:title=" ">
<polygon fill="none" stroke="black" points="731,-0.5 731,-30.5 865,-30.5 865,-0.5 731,-0.5"/>
<text text-anchor="start" x="739" y="-18.5" font-family="Helvetica,sans-Serif" font-size="10.00">VortexEngine/src/Menus</text>
<text text-anchor="middle" x="798" y="-7.5" font-family="Helvetica,sans-Serif" font-size="10.00">/Menus.cpp</text>
</a>
</g>
</g>
<!-- Node4&#45;&gt;Node6 -->
<g id="edge6" class="edge">
<title>Node4&#45;&gt;Node6</title>
<path fill="none" stroke="midnightblue" d="M872.92,-62.02C856.27,-51.9 836.31,-39.77 821.17,-30.58"/>
<polygon fill="midnightblue" stroke="midnightblue" points="871.42,-65.2 881.78,-67.4 875.05,-59.21 871.42,-65.2"/>
</g>
<!-- Node7&#45;&gt;Node6 -->
<g id="edge9" class="edge">
<title>Node7&#45;&gt;Node6</title>
<path fill="none" stroke="midnightblue" d="M336.65,-66.82C482.78,-47.05 642.58,-31.02 730.77,-22.67"/>
<polygon fill="midnightblue" stroke="midnightblue" points="336.03,-63.37 326.6,-68.18 336.98,-70.3 336.03,-63.37"/>
</g>
<!-- Node7&#45;&gt;Node8 -->
<g id="edge8" class="edge">
<title>Node7&#45;&gt;Node8</title>
<path fill="none" stroke="midnightblue" d="M202.25,-63.54C176.33,-53.14 144.16,-40.24 120.08,-30.58"/>
<polygon fill="midnightblue" stroke="midnightblue" points="201.26,-66.92 211.85,-67.4 203.87,-60.42 201.26,-66.92"/>
</g>
<!-- Node9&#45;&gt;Node6 -->
<g id="edge12" class="edge">
<title>Node9&#45;&gt;Node6</title>
<path fill="none" stroke="midnightblue" d="M493.64,-66.91C581.45,-51.63 671.1,-36.94 730.71,-27.3"/>
<polygon fill="midnightblue" stroke="midnightblue" points="493.03,-63.46 483.78,-68.63 494.23,-70.36 493.03,-63.46"/>
</g>
<!-- Node9&#45;&gt;Node10 -->
<g id="edge11" class="edge">
<title>Node9&#45;&gt;Node10</title>
<path fill="none" stroke="midnightblue" d="M381.2,-62.3C363.84,-52.12 342.88,-39.85 327.04,-30.58"/>
<polygon fill="midnightblue" stroke="midnightblue" points="379.52,-65.36 389.91,-67.4 383.05,-59.32 379.52,-65.36"/>
</g>
<!-- Node11&#45;&gt;Node6 -->
<g id="edge15" class="edge">
<title>Node11&#45;&gt;Node6</title>
<path fill="none" stroke="midnightblue" d="M759.42,-59.74C768,-50.12 777.84,-39.09 785.44,-30.58"/>
<polygon fill="midnightblue" stroke="midnightblue" points="756.63,-57.6 752.59,-67.4 761.85,-62.26 756.63,-57.6"/>
</g>
<!-- Node12 -->
<g id="node12" class="node">
<title>Node12</title>
<g id="a_node12"><a xlink:href="GlobalBrightness_8cpp.html" target="_top" xlink:title=" ">
<polygon fill="none" stroke="black" points="1006,-0.5 1006,-30.5 1176,-30.5 1176,-0.5 1006,-0.5"/>
<text text-anchor="start" x="1014" y="-18.5" font-family="Helvetica,sans-Serif" font-size="10.00">VortexEngine/src/Menus</text>
<text text-anchor="middle" x="1091" y="-7.5" font-family="Helvetica,sans-Serif" font-size="10.00">/MenuList/GlobalBrightness.cpp</text>
</a>
</g>
</g>
<!-- Node11&#45;&gt;Node12 -->
<g id="edge14" class="edge">
<title>Node11&#45;&gt;Node12</title>
<path fill="none" stroke="midnightblue" d="M825.6,-65.65C883.52,-54.92 959.34,-40.88 1015.1,-30.55"/>
<polygon fill="midnightblue" stroke="midnightblue" points="824.93,-62.21 815.73,-67.48 826.2,-69.1 824.93,-62.21"/>
</g>
<!-- Node13&#45;&gt;Node6 -->
<g id="edge18" class="edge">
<title>Node13&#45;&gt;Node6</title>
<path fill="none" stroke="midnightblue" d="M630.83,-64.58C667.54,-54.02 714.23,-40.59 748.94,-30.61"/>
<polygon fill="midnightblue" stroke="midnightblue" points="629.4,-61.35 620.76,-67.48 631.34,-68.08 629.4,-61.35"/>
</g>
<!-- Node13&#45;&gt;Node14 -->
<g id="edge17" class="edge">
<title>Node13&#45;&gt;Node14</title>
<path fill="none" stroke="midnightblue" d="M546.63,-60.88C534.47,-51.01 520.22,-39.43 509.32,-30.58"/>
<polygon fill="midnightblue" stroke="midnightblue" points="544.67,-63.81 554.64,-67.4 549.09,-58.37 544.67,-63.81"/>
</g>
<!-- Node15&#45;&gt;Node6 -->
<g id="edge21" class="edge">
<title>Node15&#45;&gt;Node6</title>
<path fill="none" stroke="midnightblue" d="M993.7,-65.05C950.87,-54.43 895.71,-40.74 854.88,-30.61"/>
<polygon fill="midnightblue" stroke="midnightblue" points="992.92,-68.47 1003.47,-67.48 994.61,-61.67 992.92,-68.47"/>
</g>
<!-- Node16 -->
<g id="node16" class="node">
<title>Node16</title>
<g id="a_node16"><a xlink:href="PatternSelect_8cpp.html" target="_top" xlink:title=" ">
<polygon fill="none" stroke="black" points="1473,-0.5 1473,-30.5 1625,-30.5 1625,-0.5 1473,-0.5"/>
<text text-anchor="start" x="1481" y="-18.5" font-family="Helvetica,sans-Serif" font-size="10.00">VortexEngine/src/Menus</text>
<text text-anchor="middle" x="1549" y="-7.5" font-family="Helvetica,sans-Serif" font-size="10.00">/MenuList/PatternSelect.cpp</text>
</a>
</g>
</g>
<!-- Node15&#45;&gt;Node16 -->
<g id="edge20" class="edge">
<title>Node15&#45;&gt;Node16</title>
<path fill="none" stroke="midnightblue" d="M1140.25,-66.88C1284.07,-46.13 1322.73,-50.6 1463,-31 1466.15,-30.56 1469.36,-30.09 1472.6,-29.61"/>
<polygon fill="midnightblue" stroke="midnightblue" points="1139.56,-63.45 1130.17,-68.35 1140.57,-70.37 1139.56,-63.45"/>
</g>
<!-- Node17&#45;&gt;Node6 -->
<g id="edge24" class="edge">
<title>Node17&#45;&gt;Node6</title>
<path fill="none" stroke="midnightblue" d="M1137.84,-66.84C1037.09,-49.92 931.74,-34.83 865.1,-25.6"/>
<polygon fill="midnightblue" stroke="midnightblue" points="1137.45,-70.33 1147.89,-68.54 1138.61,-63.42 1137.45,-70.33"/>
</g>
<!-- Node17&#45;&gt;Node18 -->
<g id="edge23" class="edge">
<title>Node17&#45;&gt;Node18</title>
<path fill="none" stroke="midnightblue" d="M1292.27,-66.9C1444.39,-44.94 1485.47,-51.9 1634,-31 1637.01,-30.58 1640.07,-30.13 1643.16,-29.65"/>
<polygon fill="midnightblue" stroke="midnightblue" points="1291.47,-63.47 1282.08,-68.38 1292.49,-70.4 1291.47,-63.47"/>
</g>
<!-- Node19&#45;&gt;Node2 -->
<g id="edge34" class="edge">
<title>Node19&#45;&gt;Node2</title>
<path fill="none" stroke="midnightblue" d="M1557.95,-131.98C1516.14,-121.37 1462.39,-107.72 1422.58,-97.61"/>
<polygon fill="midnightblue" stroke="midnightblue" points="1557.21,-135.41 1567.77,-134.48 1558.94,-128.62 1557.21,-135.41"/>
</g>
<!-- Node19&#45;&gt;Node5 -->
<g id="edge35" class="edge">
<title>Node19&#45;&gt;Node5</title>
<path fill="none" stroke="midnightblue" d="M1608.61,-125.82C1595.85,-107.45 1575.59,-82.2 1552,-67 1533.66,-55.18 1483.37,-40.88 1442.39,-30.51"/>
<polygon fill="midnightblue" stroke="midnightblue" points="1605.78,-127.87 1614.26,-134.21 1611.58,-123.96 1605.78,-127.87"/>
</g>
<!-- Node19&#45;&gt;Node6 -->
<g id="edge39" class="edge">
<title>Node19&#45;&gt;Node6</title>
<path fill="none" stroke="midnightblue" d="M1554.3,-131.5C1528.66,-123.49 1499.98,-112.45 1476,-98 1458.77,-87.61 1461.41,-75.13 1443,-67 1436.43,-64.1 1028.77,-33.61 865.01,-21.46"/>
<polygon fill="midnightblue" stroke="midnightblue" points="1553.38,-134.87 1563.96,-134.42 1555.4,-128.17 1553.38,-134.87"/>
</g>
<!-- Node19&#45;&gt;Node12 -->
<g id="edge36" class="edge">
<title>Node19&#45;&gt;Node12</title>
<path fill="none" stroke="midnightblue" d="M1594.56,-128.45C1565.99,-109.38 1520.01,-81.5 1476,-67 1422.06,-49.22 1272.33,-32.97 1176.28,-23.94"/>
<polygon fill="midnightblue" stroke="midnightblue" points="1592.95,-131.59 1603.2,-134.31 1596.88,-125.8 1592.95,-131.59"/>
</g>
<!-- Node19&#45;&gt;Node16 -->
<g id="edge37" class="edge">
<title>Node19&#45;&gt;Node16</title>
<path fill="none" stroke="midnightblue" d="M1615.5,-124.78C1609.71,-108.04 1600.86,-85.4 1590,-67 1582.19,-53.77 1571.11,-40.35 1562.43,-30.67"/>
<polygon fill="midnightblue" stroke="midnightblue" points="1612.21,-125.98 1618.7,-134.36 1618.85,-123.76 1612.21,-125.98"/>
</g>
<!-- Node19&#45;&gt;Node18 -->
<g id="edge38" class="edge">
<title>Node19&#45;&gt;Node18</title>
<path fill="none" stroke="midnightblue" d="M1635.04,-125.36C1644.13,-108.62 1657.33,-85.74 1671,-67 1680.41,-54.1 1692.52,-40.65 1701.81,-30.88"/>
<polygon fill="midnightblue" stroke="midnightblue" points="1631.82,-123.96 1630.2,-134.43 1638,-127.26 1631.82,-123.96"/>
</g>
<!-- Node19&#45;&gt;Node20 -->
<g id="edge40" class="edge">
<title>Node19&#45;&gt;Node20</title>
<path fill="none" stroke="midnightblue" d="M1658.84,-129.71C1678.39,-119.46 1702.2,-106.98 1720.15,-97.58"/>
<polygon fill="midnightblue" stroke="midnightblue" points="1657.14,-126.65 1649.91,-134.4 1660.39,-132.85 1657.14,-126.65"/>
</g>
<!-- Node19&#45;&gt;Node21 -->
<g id="edge41" class="edge">
<title>Node19&#45;&gt;Node21</title>
<path fill="none" stroke="midnightblue" d="M1698.23,-132.31C1757.57,-119.54 1837.97,-102.23 1885.37,-92.03"/>
<polygon fill="midnightblue" stroke="midnightblue" points="1697.2,-128.95 1688.16,-134.48 1698.67,-135.79 1697.2,-128.95"/>
</g>
</g>
</svg>
