<?xml version="1.0" encoding="UTF-8" standalone="no"?>
<!DOCTYPE svg PUBLIC "-//W3C//DTD SVG 1.1//EN"
 "http://www.w3.org/Graphics/SVG/1.1/DTD/svg11.dtd">
<!-- Generated by graphviz version 2.43.0 (0)
 -->
<!-- Title: VortexEngine/src/Modes/Mode.cpp Pages: 1 -->
<svg width="1099pt" height="386pt"
 viewBox="0.00 0.00 1098.50 386.00" xmlns="http://www.w3.org/2000/svg" xmlns:xlink="http://www.w3.org/1999/xlink">
<g id="graph0" class="graph" transform="scale(1 1) rotate(0) translate(4 382)">
<title>VortexEngine/src/Modes/Mode.cpp</title>
<!-- Node1 -->
<g id="node1" class="node">
<title>Node1</title>
<g id="a_node1"><a xlink:title=" ">
<polygon fill="#bfbfbf" stroke="black" points="519.5,-347.5 519.5,-377.5 653.5,-377.5 653.5,-347.5 519.5,-347.5"/>
<text text-anchor="start" x="527.5" y="-365.5" font-family="Helvetica,sans-Serif" font-size="10.00">VortexEngine/src/Modes</text>
<text text-anchor="middle" x="586.5" y="-354.5" font-family="Helvetica,sans-Serif" font-size="10.00">/Mode.cpp</text>
</a>
</g>
</g>
<!-- Node2 -->
<g id="node2" class="node">
<title>Node2</title>
<g id="a_node2"><a xlink:href="Mode_8h.html" target="_top" xlink:title=" ">
<polygon fill="none" stroke="black" points="466,-224.5 466,-243.5 519,-243.5 519,-224.5 466,-224.5"/>
<text text-anchor="middle" x="492.5" y="-231.5" font-family="Helvetica,sans-Serif" font-size="10.00">Mode.h</text>
</a>
</g>
</g>
<!-- Node1&#45;&gt;Node2 -->
<g id="edge1" class="edge">
<title>Node1&#45;&gt;Node2</title>
<path fill="none" stroke="midnightblue" d="M597.13,-347.37C608.69,-330.13 623.73,-300.72 609.5,-280 600.04,-266.22 559.79,-252.77 529.12,-244.22"/>
<polygon fill="midnightblue" stroke="midnightblue" points="529.71,-240.76 519.15,-241.52 527.88,-247.51 529.71,-240.76"/>
</g>
<!-- Node10 -->
<g id="node10" class="node">
<title>Node10</title>
<g id="a_node10"><a xlink:href="VortexEngine_8h.html" target="_top" xlink:title=" ">
<polygon fill="none" stroke="black" points="174,-112.5 174,-131.5 273,-131.5 273,-112.5 174,-112.5"/>
<text text-anchor="middle" x="223.5" y="-119.5" font-family="Helvetica,sans-Serif" font-size="10.00">../VortexEngine.h</text>
</a>
</g>
</g>
<!-- Node1&#45;&gt;Node10 -->
<g id="edge14" class="edge">
<title>Node1&#45;&gt;Node10</title>
<path fill="none" stroke="midnightblue" d="M519.48,-358.05C442.25,-352.75 321.58,-340 287.5,-311 236.1,-267.26 225.88,-180.49 223.92,-142.07"/>
<polygon fill="midnightblue" stroke="midnightblue" points="227.41,-141.66 223.54,-131.8 220.42,-141.92 227.41,-141.66"/>
</g>
<!-- Node11 -->
<g id="node11" class="node">
<title>Node11</title>
<g id="a_node11"><a xlink:href="SingleLedPattern_8h.html" target="_top" xlink:title=" ">
<polygon fill="none" stroke="black" points="490.5,-280.5 490.5,-310.5 600.5,-310.5 600.5,-280.5 490.5,-280.5"/>
<text text-anchor="start" x="498.5" y="-298.5" font-family="Helvetica,sans-Serif" font-size="10.00">../Patterns/Single</text>
<text text-anchor="middle" x="545.5" y="-287.5" font-family="Helvetica,sans-Serif" font-size="10.00">/SingleLedPattern.h</text>
</a>
</g>
</g>
<!-- Node1&#45;&gt;Node11 -->
<g id="edge17" class="edge">
<title>Node1&#45;&gt;Node11</title>
<path fill="none" stroke="midnightblue" d="M577.6,-347.4C572.39,-339.13 565.69,-328.51 559.76,-319.1"/>
<polygon fill="midnightblue" stroke="midnightblue" points="562.67,-317.17 554.38,-310.58 556.75,-320.9 562.67,-317.17"/>
</g>
<!-- Node12 -->
<g id="node12" class="node">
<title>Node12</title>
<g id="a_node12"><a xlink:href="Pattern_8h.html" target="_top" xlink:title=" ">
<polygon fill="none" stroke="black" points="379,-224.5 379,-243.5 448,-243.5 448,-224.5 379,-224.5"/>
<text text-anchor="middle" x="413.5" y="-231.5" font-family="Helvetica,sans-Serif" font-size="10.00">../Pattern.h</text>
</a>
</g>
</g>
<!-- Node1&#45;&gt;Node12 -->
<g id="edge33" class="edge">
<title>Node1&#45;&gt;Node12</title>
<path fill="none" stroke="midnightblue" d="M548.03,-347.3C527.22,-338.59 501.71,-326.19 481.5,-311 458.81,-293.95 437.87,-268.45 425.39,-251.77"/>
<polygon fill="midnightblue" stroke="midnightblue" points="428.09,-249.53 419.37,-243.52 422.44,-253.66 428.09,-249.53"/>
</g>
<!-- Node13 -->
<g id="node13" class="node">
<title>Node13</title>
<g id="a_node13"><a xlink:href="Colorset_8h.html" target="_top" xlink:title=" ">
<polygon fill="none" stroke="black" points="891,-168.5 891,-187.5 1000,-187.5 1000,-168.5 891,-168.5"/>
<text text-anchor="middle" x="945.5" y="-175.5" font-family="Helvetica,sans-Serif" font-size="10.00">../Colors/Colorset.h</text>
</a>
</g>
</g>
<!-- Node1&#45;&gt;Node13 -->
<g id="edge46" class="edge">
<title>Node1&#45;&gt;Node13</title>
<path fill="none" stroke="midnightblue" d="M626.96,-347.41C652.71,-338.02 686.55,-324.88 715.5,-311 794.65,-273.05 883.47,-218.42 923.66,-193"/>
<polygon fill="midnightblue" stroke="midnightblue" points="925.58,-195.93 932.14,-187.61 921.82,-190.02 925.58,-195.93"/>
</g>
<!-- Node16 -->
<g id="node16" class="node">
<title>Node16</title>
<g id="a_node16"><a xlink:href="MultiLedPattern_8h.html" target="_top" xlink:title=" ">
<polygon fill="none" stroke="black" points="296.5,-280.5 296.5,-310.5 434.5,-310.5 434.5,-280.5 296.5,-280.5"/>
<text text-anchor="start" x="304.5" y="-298.5" font-family="Helvetica,sans-Serif" font-size="10.00">../Patterns/Multi/MultiLed</text>
<text text-anchor="middle" x="365.5" y="-287.5" font-family="Helvetica,sans-Serif" font-size="10.00">Pattern.h</text>
</a>
</g>
</g>
<!-- Node1&#45;&gt;Node16 -->
<g id="edge29" class="edge">
<title>Node1&#45;&gt;Node16</title>
<path fill="none" stroke="midnightblue" d="M538.82,-347.48C504.95,-337.51 459.29,-324.09 423.34,-313.51"/>
<polygon fill="midnightblue" stroke="midnightblue" points="424.06,-310.07 413.48,-310.61 422.08,-316.79 424.06,-310.07"/>
</g>
<!-- Node17 -->
<g id="node17" class="node">
<title>Node17</title>
<g id="a_node17"><a xlink:href="PatternBuilder_8h.html" target="_top" xlink:title=" ">
<polygon fill="none" stroke="black" points="94.5,-286 94.5,-305 240.5,-305 240.5,-286 94.5,-286"/>
<text text-anchor="middle" x="167.5" y="-293" font-family="Helvetica,sans-Serif" font-size="10.00">../Patterns/PatternBuilder.h</text>
</a>
</g>
</g>
<!-- Node1&#45;&gt;Node17 -->
<g id="edge31" class="edge">
<title>Node1&#45;&gt;Node17</title>
<path fill="none" stroke="midnightblue" d="M519.37,-351.57C452.28,-341.59 346.19,-325.61 254.5,-311 245.93,-309.63 236.89,-308.16 228.01,-306.7"/>
<polygon fill="midnightblue" stroke="midnightblue" points="228.52,-303.24 218.08,-305.06 227.38,-310.14 228.52,-303.24"/>
</g>
<!-- Node18 -->
<g id="node18" class="node">
<title>Node18</title>
<g id="a_node18"><a xlink:href="ByteStream_8h.html" target="_top" xlink:title=" ">
<polygon fill="none" stroke="black" points="560,-224.5 560,-243.5 683,-243.5 683,-224.5 560,-224.5"/>
<text text-anchor="middle" x="621.5" y="-231.5" font-family="Helvetica,sans-Serif" font-size="10.00">../Serial/ByteStream.h</text>
</a>
</g>
</g>
<!-- Node1&#45;&gt;Node18 -->
<g id="edge34" class="edge">
<title>Node1&#45;&gt;Node18</title>
<path fill="none" stroke="midnightblue" d="M609.97,-347.32C622.13,-338.54 635.8,-326.07 642.5,-311 651.07,-291.73 641.72,-268.14 632.92,-252.4"/>
<polygon fill="midnightblue" stroke="midnightblue" points="635.84,-250.47 627.67,-243.72 629.85,-254.09 635.84,-250.47"/>
</g>
<!-- Node19 -->
<g id="node19" class="node">
<title>Node19</title>
<g id="a_node19"><a xlink:href="Log_8h.html" target="_top" xlink:title=" ">
<polygon fill="none" stroke="black" points="1018.5,-168.5 1018.5,-187.5 1090.5,-187.5 1090.5,-168.5 1018.5,-168.5"/>
<text text-anchor="middle" x="1054.5" y="-175.5" font-family="Helvetica,sans-Serif" font-size="10.00">../Log/Log.h</text>
</a>
</g>
</g>
<!-- Node1&#45;&gt;Node19 -->
<g id="edge55" class="edge">
<title>Node1&#45;&gt;Node19</title>
<path fill="none" stroke="midnightblue" d="M641.66,-347.47C675.95,-338.23 720.74,-325.25 759.5,-311 861.41,-273.52 977.83,-217.27 1028.58,-192.05"/>
<polygon fill="midnightblue" stroke="midnightblue" points="1030.17,-195.17 1037.55,-187.57 1027.04,-188.91 1030.17,-195.17"/>
</g>
<!-- Node21 -->
<g id="node21" class="node">
<title>Node21</title>
<g id="a_node21"><a xlink:href="TimeControl_8h.html" target="_top" xlink:title=" ">
<polygon fill="none" stroke="black" points="649.5,-168.5 649.5,-187.5 771.5,-187.5 771.5,-168.5 649.5,-168.5"/>
<text text-anchor="middle" x="710.5" y="-175.5" font-family="Helvetica,sans-Serif" font-size="10.00">../Time/TimeControl.h</text>
</a>
</g>
</g>
<!-- Node1&#45;&gt;Node21 -->
<g id="edge42" class="edge">
<title>Node1&#45;&gt;Node21</title>
<path fill="none" stroke="midnightblue" d="M612.12,-347.41C626.75,-338.42 644.68,-325.71 657.5,-311 686.88,-277.3 701.21,-225.24 707.09,-197.65"/>
<polygon fill="midnightblue" stroke="midnightblue" points="710.54,-198.24 709.05,-187.75 703.67,-196.88 710.54,-198.24"/>
</g>
<!-- Node22 -->
<g id="node22" class="node">
<title>Node22</title>
<g id="a_node22"><a xlink:href="Memory_8h.html" target="_top" xlink:title=" ">
<polygon fill="none" stroke="black" points="0,-112.5 0,-131.5 117,-131.5 117,-112.5 0,-112.5"/>
<text text-anchor="middle" x="58.5" y="-119.5" font-family="Helvetica,sans-Serif" font-size="10.00">../Memory/Memory.h</text>
</a>
</g>
</g>
<!-- Node1&#45;&gt;Node22 -->
<g id="edge47" class="edge">
<title>Node1&#45;&gt;Node22</title>
<path fill="none" stroke="midnightblue" d="M519.46,-359.27C390.15,-354.32 116.22,-340.45 85.5,-311 38.91,-266.33 47.78,-180.05 54.54,-141.92"/>
<polygon fill="midnightblue" stroke="midnightblue" points="58.05,-142.21 56.51,-131.73 51.18,-140.88 58.05,-142.21"/>
</g>
<!-- Node24 -->
<g id="node24" class="node">
<title>Node24</title>
<g id="a_node24"><a xlink:href="Leds_8h.html" target="_top" xlink:title=" ">
<polygon fill="none" stroke="black" points="790,-168.5 790,-187.5 873,-187.5 873,-168.5 790,-168.5"/>
<text text-anchor="middle" x="831.5" y="-175.5" font-family="Helvetica,sans-Serif" font-size="10.00">../Leds/Leds.h</text>
</a>
</g>
</g>
<!-- Node1&#45;&gt;Node24 -->
<g id="edge51" class="edge">
<title>Node1&#45;&gt;Node24</title>
<path fill="none" stroke="midnightblue" d="M617.5,-347.31C636.6,-338.01 661.22,-325.03 681.5,-311 734.5,-274.34 789.57,-221.37 815.8,-195.07"/>
<polygon fill="midnightblue" stroke="midnightblue" points="818.43,-197.38 822.98,-187.81 813.46,-192.46 818.43,-197.38"/>
</g>
<!-- Node3 -->
<g id="node3" class="node">
<title>Node3</title>
<g id="a_node3"><a xlink:href="LedTypes_8h.html" target="_top" xlink:title=" ">
<polygon fill="none" stroke="black" points="541,-112.5 541,-131.5 646,-131.5 646,-112.5 541,-112.5"/>
<text text-anchor="middle" x="593.5" y="-119.5" font-family="Helvetica,sans-Serif" font-size="10.00">../Leds/LedTypes.h</text>
</a>
</g>
</g>
<!-- Node2&#45;&gt;Node3 -->
<g id="edge2" class="edge">
<title>Node2&#45;&gt;Node3</title>
<path fill="none" stroke="midnightblue" d="M509.94,-224.45C524.61,-216.58 545.38,-203.76 559.5,-188 571.83,-174.24 581.1,-155.21 586.82,-141.3"/>
<polygon fill="midnightblue" stroke="midnightblue" points="590.14,-142.42 590.5,-131.83 583.62,-139.88 590.14,-142.42"/>
</g>
<!-- Node6 -->
<g id="node6" class="node">
<title>Node6</title>
<g id="a_node6"><a xlink:href="VortexConfig_8h.html" target="_top" xlink:title=" ">
<polygon fill="none" stroke="black" points="702,-56.5 702,-75.5 799,-75.5 799,-56.5 702,-56.5"/>
<text text-anchor="middle" x="750.5" y="-63.5" font-family="Helvetica,sans-Serif" font-size="10.00">../VortexConfig.h</text>
</a>
</g>
</g>
<!-- Node2&#45;&gt;Node6 -->
<g id="edge9" class="edge">
<title>Node2&#45;&gt;Node6</title>
<path fill="none" stroke="midnightblue" d="M466.13,-224.44C438.29,-213.84 400.25,-193.96 414.5,-168 436.81,-127.36 459.33,-128.9 502.5,-112 564.45,-87.75 640.28,-76.43 691.66,-71.24"/>
<polygon fill="midnightblue" stroke="midnightblue" points="692.3,-74.69 701.92,-70.25 691.63,-67.73 692.3,-74.69"/>
</g>
<!-- Node8 -->
<g id="node8" class="node">
<title>Node8</title>
<g id="a_node8"><a xlink:href="Patterns_8h.html" target="_top" xlink:title=" ">
<polygon fill="none" stroke="black" points="291,-112.5 291,-131.5 408,-131.5 408,-112.5 291,-112.5"/>
<text text-anchor="middle" x="349.5" y="-119.5" font-family="Helvetica,sans-Serif" font-size="10.00">../Patterns/Patterns.h</text>
</a>
</g>
</g>
<!-- Node2&#45;&gt;Node8 -->
<g id="edge7" class="edge">
<title>Node2&#45;&gt;Node8</title>
<path fill="none" stroke="midnightblue" d="M465.93,-224.67C437.32,-215.28 394.18,-199.79 381.5,-188 368,-175.44 359.46,-155.94 354.64,-141.58"/>
<polygon fill="midnightblue" stroke="midnightblue" points="357.92,-140.33 351.65,-131.79 351.22,-142.38 357.92,-140.33"/>
</g>
<!-- Node9 -->
<g id="node9" class="node">
<title>Node9</title>
<g id="a_node9"><a xlink:href="DefaultModes_8h.html" target="_top" xlink:title=" ">
<polygon fill="none" stroke="black" points="423.5,-168.5 423.5,-187.5 517.5,-187.5 517.5,-168.5 423.5,-168.5"/>
<text text-anchor="middle" x="470.5" y="-175.5" font-family="Helvetica,sans-Serif" font-size="10.00">DefaultModes.h</text>
</a>
</g>
</g>
<!-- Node2&#45;&gt;Node9 -->
<g id="edge10" class="edge">
<title>Node2&#45;&gt;Node9</title>
<path fill="none" stroke="midnightblue" d="M488.87,-224.08C485.89,-216.77 481.57,-206.18 477.88,-197.1"/>
<polygon fill="midnightblue" stroke="midnightblue" points="481.08,-195.69 474.07,-187.75 474.6,-198.33 481.08,-195.69"/>
</g>
<!-- Node4 -->
<g id="node4" class="node">
<title>Node4</title>
<g id="a_node4"><a xlink:title=" ">
<polygon fill="none" stroke="#bfbfbf" points="482,-56.5 482,-75.5 547,-75.5 547,-56.5 482,-56.5"/>
<text text-anchor="middle" x="514.5" y="-63.5" font-family="Helvetica,sans-Serif" font-size="10.00">inttypes.h</text>
</a>
</g>
</g>
<!-- Node3&#45;&gt;Node4 -->
<g id="edge3" class="edge">
<title>Node3&#45;&gt;Node4</title>
<path fill="none" stroke="midnightblue" d="M580.81,-112.32C568.6,-103.98 549.92,-91.21 535.5,-81.35"/>
<polygon fill="midnightblue" stroke="midnightblue" points="537.39,-78.41 527.16,-75.65 533.44,-84.19 537.39,-78.41"/>
</g>
<!-- Node5 -->
<g id="node5" class="node">
<title>Node5</title>
<g id="a_node5"><a xlink:title=" ">
<polygon fill="none" stroke="#bfbfbf" points="840.5,-56.5 840.5,-75.5 896.5,-75.5 896.5,-56.5 840.5,-56.5"/>
<text text-anchor="middle" x="868.5" y="-63.5" font-family="Helvetica,sans-Serif" font-size="10.00">stdarg.h</text>
</a>
</g>
</g>
<!-- Node3&#45;&gt;Node5 -->
<g id="edge4" class="edge">
<title>Node3&#45;&gt;Node5</title>
<path fill="none" stroke="midnightblue" d="M637.07,-112.44C690.35,-101.98 779.66,-84.45 830.34,-74.49"/>
<polygon fill="midnightblue" stroke="midnightblue" points="831.1,-77.91 840.24,-72.55 829.76,-71.04 831.1,-77.91"/>
</g>
<!-- Node3&#45;&gt;Node6 -->
<g id="edge5" class="edge">
<title>Node3&#45;&gt;Node6</title>
<path fill="none" stroke="midnightblue" d="M618.38,-112.44C644.79,-103.36 686.72,-88.94 716.24,-78.78"/>
<polygon fill="midnightblue" stroke="midnightblue" points="717.42,-82.08 725.74,-75.52 715.14,-75.46 717.42,-82.08"/>
</g>
<!-- Node7 -->
<g id="node7" class="node">
<title>Node7</title>
<g id="a_node7"><a xlink:href="ColorConstants_8h.html" target="_top" xlink:title=" ">
<polygon fill="none" stroke="black" points="775.5,-0.5 775.5,-19.5 909.5,-19.5 909.5,-0.5 775.5,-0.5"/>
<text text-anchor="middle" x="842.5" y="-7.5" font-family="Helvetica,sans-Serif" font-size="10.00">Colors/ColorConstants.h</text>
</a>
</g>
</g>
<!-- Node6&#45;&gt;Node7 -->
<g id="edge6" class="edge">
<title>Node6&#45;&gt;Node7</title>
<path fill="none" stroke="midnightblue" d="M765.28,-56.32C779.77,-47.82 802.07,-34.73 818.99,-24.8"/>
<polygon fill="midnightblue" stroke="midnightblue" points="820.9,-27.74 827.76,-19.65 817.36,-21.7 820.9,-27.74"/>
</g>
<!-- Node8&#45;&gt;Node4 -->
<g id="edge8" class="edge">
<title>Node8&#45;&gt;Node4</title>
<path fill="none" stroke="midnightblue" d="M375.64,-112.44C403.52,-103.32 447.85,-88.81 478.9,-78.65"/>
<polygon fill="midnightblue" stroke="midnightblue" points="480.06,-81.95 488.48,-75.52 477.88,-75.3 480.06,-81.95"/>
</g>
<!-- Node9&#45;&gt;Node3 -->
<g id="edge12" class="edge">
<title>Node9&#45;&gt;Node3</title>
<path fill="none" stroke="midnightblue" d="M489.99,-168.44C510.14,-159.6 541.82,-145.69 564.83,-135.59"/>
<polygon fill="midnightblue" stroke="midnightblue" points="566.35,-138.74 574.1,-131.52 563.54,-132.33 566.35,-138.74"/>
</g>
<!-- Node9&#45;&gt;Node6 -->
<g id="edge13" class="edge">
<title>Node9&#45;&gt;Node6</title>
<path fill="none" stroke="midnightblue" d="M476.18,-168.23C485.9,-154.01 507.13,-126.07 532.5,-112 581.83,-84.65 645.78,-73.86 691.64,-69.63"/>
<polygon fill="midnightblue" stroke="midnightblue" points="692.04,-73.11 701.72,-68.78 691.46,-66.14 692.04,-73.11"/>
</g>
<!-- Node9&#45;&gt;Node8 -->
<g id="edge11" class="edge">
<title>Node9&#45;&gt;Node8</title>
<path fill="none" stroke="midnightblue" d="M451.33,-168.44C431.59,-159.64 400.61,-145.81 378.01,-135.72"/>
<polygon fill="midnightblue" stroke="midnightblue" points="379.14,-132.4 368.58,-131.52 376.29,-138.79 379.14,-132.4"/>
</g>
<!-- Node10&#45;&gt;Node4 -->
<g id="edge15" class="edge">
<title>Node10&#45;&gt;Node4</title>
<path fill="none" stroke="midnightblue" d="M269.61,-112.44C325.17,-102.13 417.75,-84.95 471.76,-74.93"/>
<polygon fill="midnightblue" stroke="midnightblue" points="472.51,-78.35 481.7,-73.09 471.23,-71.47 472.51,-78.35"/>
</g>
<!-- Node10&#45;&gt;Node6 -->
<g id="edge16" class="edge">
<title>Node10&#45;&gt;Node6</title>
<path fill="none" stroke="midnightblue" d="M273.05,-113.24C276.24,-112.8 279.42,-112.38 282.5,-112 429.37,-93.75 602.97,-78.78 691.75,-71.6"/>
<polygon fill="midnightblue" stroke="midnightblue" points="692.21,-75.07 701.89,-70.78 691.65,-68.09 692.21,-75.07"/>
</g>
<!-- Node11&#45;&gt;Node12 -->
<g id="edge18" class="edge">
<title>Node11&#45;&gt;Node12</title>
<path fill="none" stroke="midnightblue" d="M514.22,-280.4C492.27,-270.51 463.16,-257.38 441.88,-247.79"/>
<polygon fill="midnightblue" stroke="midnightblue" points="443.26,-244.58 432.71,-243.66 440.39,-250.96 443.26,-244.58"/>
</g>
<!-- Node12&#45;&gt;Node3 -->
<g id="edge19" class="edge">
<title>Node12&#45;&gt;Node3</title>
<path fill="none" stroke="midnightblue" d="M443.83,-224.5C467.51,-217.04 500.62,-204.76 526.5,-188 547.42,-174.45 567.39,-153.72 580,-139.33"/>
<polygon fill="midnightblue" stroke="midnightblue" points="582.69,-141.56 586.52,-131.69 577.37,-137.02 582.69,-141.56"/>
</g>
<!-- Node12&#45;&gt;Node8 -->
<g id="edge26" class="edge">
<title>Node12&#45;&gt;Node8</title>
<path fill="none" stroke="midnightblue" d="M389.03,-224.44C372.93,-217.38 353.12,-205.63 343.5,-188 335.7,-173.72 338.54,-155 342.54,-141.32"/>
<polygon fill="midnightblue" stroke="midnightblue" points="345.93,-142.21 345.81,-131.62 339.3,-139.97 345.93,-142.21"/>
</g>
<!-- Node12&#45;&gt;Node13 -->
<g id="edge20" class="edge">
<title>Node12&#45;&gt;Node13</title>
<path fill="none" stroke="midnightblue" d="M448.02,-225.54C451.22,-224.97 454.41,-224.44 457.5,-224 641.92,-197.42 692.43,-209 880.93,-188.12"/>
<polygon fill="midnightblue" stroke="midnightblue" points="881.34,-191.59 890.89,-187 880.56,-184.64 881.34,-191.59"/>
</g>
<!-- Node15 -->
<g id="node15" class="node">
<title>Node15</title>
<g id="a_node15"><a xlink:href="PatternArgs_8h.html" target="_top" xlink:title=" ">
<polygon fill="none" stroke="black" points="108.5,-168.5 108.5,-187.5 190.5,-187.5 190.5,-168.5 108.5,-168.5"/>
<text text-anchor="middle" x="149.5" y="-175.5" font-family="Helvetica,sans-Serif" font-size="10.00">PatternArgs.h</text>
</a>
</g>
</g>
<!-- Node12&#45;&gt;Node15 -->
<g id="edge27" class="edge">
<title>Node12&#45;&gt;Node15</title>
<path fill="none" stroke="midnightblue" d="M378.99,-225.94C333.52,-216.64 253.19,-200.21 200.65,-189.46"/>
<polygon fill="midnightblue" stroke="midnightblue" points="201.03,-185.97 190.53,-187.39 199.62,-192.83 201.03,-185.97"/>
</g>
<!-- Node13&#45;&gt;Node6 -->
<g id="edge25" class="edge">
<title>Node13&#45;&gt;Node6</title>
<path fill="none" stroke="midnightblue" d="M960.69,-168.46C981.1,-155.91 1013.03,-131.83 996.5,-112 984.58,-97.71 878.29,-82.37 809.38,-73.81"/>
<polygon fill="midnightblue" stroke="midnightblue" points="809.43,-70.29 799.08,-72.54 808.58,-77.23 809.43,-70.29"/>
</g>
<!-- Node14 -->
<g id="node14" class="node">
<title>Node14</title>
<g id="a_node14"><a xlink:href="ColorTypes_8h.html" target="_top" xlink:title=" ">
<polygon fill="none" stroke="black" points="908,-112.5 908,-131.5 987,-131.5 987,-112.5 908,-112.5"/>
<text text-anchor="middle" x="947.5" y="-119.5" font-family="Helvetica,sans-Serif" font-size="10.00">ColorTypes.h</text>
</a>
</g>
</g>
<!-- Node13&#45;&gt;Node14 -->
<g id="edge21" class="edge">
<title>Node13&#45;&gt;Node14</title>
<path fill="none" stroke="midnightblue" d="M945.83,-168.08C946.09,-161.01 946.47,-150.86 946.8,-141.99"/>
<polygon fill="midnightblue" stroke="midnightblue" points="950.3,-141.87 947.18,-131.75 943.31,-141.61 950.3,-141.87"/>
</g>
<!-- Node14&#45;&gt;Node4 -->
<g id="edge22" class="edge">
<title>Node14&#45;&gt;Node4</title>
<path fill="none" stroke="midnightblue" d="M907.98,-113.37C905.12,-112.88 902.27,-112.42 899.5,-112 775.78,-93.19 628.66,-77.97 557.41,-71.04"/>
<polygon fill="midnightblue" stroke="midnightblue" points="557.34,-67.52 547.05,-70.04 556.67,-74.48 557.34,-67.52"/>
</g>
<!-- Node14&#45;&gt;Node6 -->
<g id="edge23" class="edge">
<title>Node14&#45;&gt;Node6</title>
<path fill="none" stroke="midnightblue" d="M916.28,-112.44C882.57,-103.2 828.7,-88.44 791.57,-78.26"/>
<polygon fill="midnightblue" stroke="midnightblue" points="792.14,-74.78 781.57,-75.52 790.29,-81.54 792.14,-74.78"/>
</g>
<!-- Node14&#45;&gt;Node7 -->
<g id="edge24" class="edge">
<title>Node14&#45;&gt;Node7</title>
<path fill="none" stroke="midnightblue" d="M943.23,-112.28C936.49,-99.08 922.38,-73.69 905.5,-56 894,-43.95 878.87,-33.02 866.32,-24.95"/>
<polygon fill="midnightblue" stroke="midnightblue" points="868.07,-21.92 857.73,-19.61 864.37,-27.86 868.07,-21.92"/>
</g>
<!-- Node15&#45;&gt;Node4 -->
<g id="edge28" class="edge">
<title>Node15&#45;&gt;Node4</title>
<path fill="none" stroke="midnightblue" d="M148.67,-168.32C147.85,-154.22 148.53,-126.46 164.5,-112 208.75,-71.92 388.52,-66.79 471.78,-66.62"/>
<polygon fill="midnightblue" stroke="midnightblue" points="471.92,-70.12 481.92,-66.62 471.92,-63.12 471.92,-70.12"/>
</g>
<!-- Node16&#45;&gt;Node12 -->
<g id="edge30" class="edge">
<title>Node16&#45;&gt;Node12</title>
<path fill="none" stroke="midnightblue" d="M376.88,-280.4C383.85,-271.75 392.81,-260.64 400.13,-251.58"/>
<polygon fill="midnightblue" stroke="midnightblue" points="402.96,-253.64 406.52,-243.66 397.51,-249.24 402.96,-253.64"/>
</g>
<!-- Node17&#45;&gt;Node8 -->
<g id="edge32" class="edge">
<title>Node17&#45;&gt;Node8</title>
<path fill="none" stroke="midnightblue" d="M176.78,-285.76C205.87,-258.35 295.6,-173.79 332.94,-138.61"/>
<polygon fill="midnightblue" stroke="midnightblue" points="335.58,-140.92 340.46,-131.52 330.78,-135.83 335.58,-140.92"/>
</g>
<!-- Node18&#45;&gt;Node4 -->
<g id="edge35" class="edge">
<title>Node18&#45;&gt;Node4</title>
<path fill="none" stroke="midnightblue" d="M611.31,-224.36C592.84,-208.16 553.75,-171.25 532.5,-132 524.66,-117.52 520,-99.33 517.4,-85.88"/>
<polygon fill="midnightblue" stroke="midnightblue" points="520.82,-85.14 515.66,-75.88 513.92,-86.33 520.82,-85.14"/>
</g>
<!-- Node18&#45;&gt;Node19 -->
<g id="edge36" class="edge">
<title>Node18&#45;&gt;Node19</title>
<path fill="none" stroke="midnightblue" d="M683.2,-227.42C757.83,-220.32 887.46,-206.85 1008.05,-188.12"/>
<polygon fill="midnightblue" stroke="midnightblue" points="1008.86,-191.53 1018.2,-186.53 1007.77,-184.62 1008.86,-191.53"/>
</g>
<!-- Node19&#45;&gt;Node5 -->
<g id="edge37" class="edge">
<title>Node19&#45;&gt;Node5</title>
<path fill="none" stroke="midnightblue" d="M1060.14,-168.39C1068.22,-154.88 1080.72,-128.54 1067.5,-112 1047.8,-87.34 959.08,-75.21 906.99,-70.11"/>
<polygon fill="midnightblue" stroke="midnightblue" points="907.06,-66.6 896.78,-69.15 906.41,-73.57 907.06,-66.6"/>
</g>
<!-- Node19&#45;&gt;Node6 -->
<g id="edge38" class="edge">
<title>Node19&#45;&gt;Node6</title>
<path fill="none" stroke="midnightblue" d="M1051.47,-168.17C1046.08,-153.84 1033.35,-125.77 1012.5,-112 995.8,-100.97 881.43,-84.23 809.43,-74.58"/>
<polygon fill="midnightblue" stroke="midnightblue" points="809.5,-71.06 799.13,-73.21 808.58,-77.99 809.5,-71.06"/>
</g>
<!-- Node20 -->
<g id="node20" class="node">
<title>Node20</title>
<g id="a_node20"><a xlink:href="ErrorBlinker_8h.html" target="_top" xlink:title=" ">
<polygon fill="none" stroke="black" points="779,-112.5 779,-131.5 890,-131.5 890,-112.5 779,-112.5"/>
<text text-anchor="middle" x="834.5" y="-119.5" font-family="Helvetica,sans-Serif" font-size="10.00">../Log/ErrorBlinker.h</text>
</a>
</g>
</g>
<!-- Node19&#45;&gt;Node20 -->
<g id="edge39" class="edge">
<title>Node19&#45;&gt;Node20</title>
<path fill="none" stroke="midnightblue" d="M1019.64,-168.44C981.58,-159.1 920.54,-144.12 879.04,-133.93"/>
<polygon fill="midnightblue" stroke="midnightblue" points="879.74,-130.5 869.2,-131.52 878.07,-137.3 879.74,-130.5"/>
</g>
<!-- Node20&#45;&gt;Node4 -->
<g id="edge40" class="edge">
<title>Node20&#45;&gt;Node4</title>
<path fill="none" stroke="midnightblue" d="M783.8,-112.44C721.28,-101.89 616.14,-84.15 557.43,-74.25"/>
<polygon fill="midnightblue" stroke="midnightblue" points="557.82,-70.76 547.38,-72.55 556.66,-77.66 557.82,-70.76"/>
</g>
<!-- Node20&#45;&gt;Node6 -->
<g id="edge41" class="edge">
<title>Node20&#45;&gt;Node6</title>
<path fill="none" stroke="midnightblue" d="M821,-112.32C807.9,-103.9 787.79,-90.97 772.39,-81.07"/>
<polygon fill="midnightblue" stroke="midnightblue" points="774.27,-78.12 763.96,-75.65 770.48,-84.01 774.27,-78.12"/>
</g>
<!-- Node21&#45;&gt;Node3 -->
<g id="edge45" class="edge">
<title>Node21&#45;&gt;Node3</title>
<path fill="none" stroke="midnightblue" d="M691.96,-168.44C672.88,-159.64 642.93,-145.81 621.06,-135.72"/>
<polygon fill="midnightblue" stroke="midnightblue" points="622.5,-132.53 611.95,-131.52 619.57,-138.88 622.5,-132.53"/>
</g>
<!-- Node21&#45;&gt;Node4 -->
<g id="edge43" class="edge">
<title>Node21&#45;&gt;Node4</title>
<path fill="none" stroke="midnightblue" d="M705.26,-168.05C696.64,-154.08 678.12,-127.1 655.5,-112 625.77,-92.15 586.72,-80.59 557.26,-74.16"/>
<polygon fill="midnightblue" stroke="midnightblue" points="557.77,-70.7 547.27,-72.1 556.35,-77.55 557.77,-70.7"/>
</g>
<!-- Node21&#45;&gt;Node6 -->
<g id="edge44" class="edge">
<title>Node21&#45;&gt;Node6</title>
<path fill="none" stroke="midnightblue" d="M713.64,-168.37C720.12,-150.54 735.12,-109.3 743.86,-85.27"/>
<polygon fill="midnightblue" stroke="midnightblue" points="747.25,-86.19 747.38,-75.59 740.67,-83.79 747.25,-86.19"/>
</g>
<!-- Node22&#45;&gt;Node4 -->
<g id="edge48" class="edge">
<title>Node22&#45;&gt;Node4</title>
<path fill="none" stroke="midnightblue" d="M117.07,-113.75C121.95,-113.15 126.81,-112.56 131.5,-112 254.95,-97.14 400.85,-80.16 471.66,-71.95"/>
<polygon fill="midnightblue" stroke="midnightblue" points="472.43,-75.39 481.96,-70.76 471.62,-68.43 472.43,-75.39"/>
</g>
<!-- Node22&#45;&gt;Node6 -->
<g id="edge50" class="edge">
<title>Node22&#45;&gt;Node6</title>
<path fill="none" stroke="midnightblue" d="M117.09,-115.94C132.51,-114.63 149.13,-113.24 164.5,-112 357.42,-96.4 586.17,-79.21 691.74,-71.35"/>
<polygon fill="midnightblue" stroke="midnightblue" points="692.16,-74.83 701.87,-70.6 691.64,-67.85 692.16,-74.83"/>
</g>
<!-- Node23 -->
<g id="node23" class="node">
<title>Node23</title>
<g id="a_node23"><a xlink:title=" ">
<polygon fill="none" stroke="#bfbfbf" points="32,-56.5 32,-75.5 85,-75.5 85,-56.5 32,-56.5"/>
<text text-anchor="middle" x="58.5" y="-63.5" font-family="Helvetica,sans-Serif" font-size="10.00">stdlib.h</text>
</a>
</g>
</g>
<!-- Node22&#45;&gt;Node23 -->
<g id="edge49" class="edge">
<title>Node22&#45;&gt;Node23</title>
<path fill="none" stroke="midnightblue" d="M58.5,-112.08C58.5,-105.01 58.5,-94.86 58.5,-85.99"/>
<polygon fill="midnightblue" stroke="midnightblue" points="62,-85.75 58.5,-75.75 55,-85.75 62,-85.75"/>
</g>
<!-- Node24&#45;&gt;Node3 -->
<g id="edge54" class="edge">
<title>Node24&#45;&gt;Node3</title>
<path fill="none" stroke="midnightblue" d="M793.79,-168.44C752.36,-159.04 685.74,-143.93 640.83,-133.74"/>
<polygon fill="midnightblue" stroke="midnightblue" points="641.56,-130.32 631.04,-131.52 640.01,-137.14 641.56,-130.32"/>
</g>
<!-- Node24&#45;&gt;Node4 -->
<g id="edge52" class="edge">
<title>Node24&#45;&gt;Node4</title>
<path fill="none" stroke="midnightblue" d="M813.7,-168.35C785.79,-155.03 729.82,-129.2 680.5,-112 639.24,-97.61 590.9,-84.96 557.06,-76.77"/>
<polygon fill="midnightblue" stroke="midnightblue" points="557.59,-73.3 547.05,-74.38 555.96,-80.11 557.59,-73.3"/>
</g>
<!-- Node24&#45;&gt;Node14 -->
<g id="edge53" class="edge">
<title>Node24&#45;&gt;Node14</title>
<path fill="none" stroke="midnightblue" d="M849.88,-168.44C868.72,-159.68 898.23,-145.94 919.88,-135.86"/>
<polygon fill="midnightblue" stroke="midnightblue" points="921.62,-138.91 929.21,-131.52 918.66,-132.56 921.62,-138.91"/>
</g>
</g>
</svg>
