<?xml version="1.0" encoding="UTF-8" standalone="no"?>
<!DOCTYPE svg PUBLIC "-//W3C//DTD SVG 1.1//EN"
 "http://www.w3.org/Graphics/SVG/1.1/DTD/svg11.dtd">
<!-- Generated by graphviz version 2.43.0 (0)
 -->
<!-- Title: VortexEngine/src/Menus/MenuList/ModeSharing.cpp Pages: 1 -->
<svg width="1283pt" height="375pt"
 viewBox="0.00 0.00 1283.00 375.00" xmlns="http://www.w3.org/2000/svg" xmlns:xlink="http://www.w3.org/1999/xlink">
<g id="graph0" class="graph" transform="scale(1 1) rotate(0) translate(4 371)">
<title>VortexEngine/src/Menus/MenuList/ModeSharing.cpp</title>
<!-- Node1 -->
<g id="node1" class="node">
<title>Node1</title>
<g id="a_node1"><a xlink:title=" ">
<polygon fill="#bfbfbf" stroke="black" points="533.5,-336.5 533.5,-366.5 684.5,-366.5 684.5,-336.5 533.5,-336.5"/>
<text text-anchor="start" x="541.5" y="-354.5" font-family="Helvetica,sans-Serif" font-size="10.00">VortexEngine/src/Menus</text>
<text text-anchor="middle" x="609" y="-343.5" font-family="Helvetica,sans-Serif" font-size="10.00">/MenuList/ModeSharing.cpp</text>
</a>
</g>
</g>
<!-- Node2 -->
<g id="node2" class="node">
<title>Node2</title>
<g id="a_node2"><a xlink:href="ModeSharing_8h.html" target="_top" xlink:title=" ">
<polygon fill="none" stroke="black" points="396.5,-280.5 396.5,-299.5 485.5,-299.5 485.5,-280.5 396.5,-280.5"/>
<text text-anchor="middle" x="441" y="-287.5" font-family="Helvetica,sans-Serif" font-size="10.00">ModeSharing.h</text>
</a>
</g>
</g>
<!-- Node1&#45;&gt;Node2 -->
<g id="edge1" class="edge">
<title>Node1&#45;&gt;Node2</title>
<path fill="none" stroke="midnightblue" d="M569.19,-336.4C540.5,-326.24 502.19,-312.67 474.94,-303.02"/>
<polygon fill="midnightblue" stroke="midnightblue" points="476.04,-299.7 465.45,-299.66 473.7,-306.3 476.04,-299.7"/>
</g>
<!-- Node10 -->
<g id="node10" class="node">
<title>Node10</title>
<g id="a_node10"><a xlink:href="Mode_8h.html" target="_top" xlink:title=" ">
<polygon fill="none" stroke="black" points="406.5,-168.5 406.5,-187.5 503.5,-187.5 503.5,-168.5 406.5,-168.5"/>
<text text-anchor="middle" x="455" y="-175.5" font-family="Helvetica,sans-Serif" font-size="10.00">../Modes/Mode.h</text>
</a>
</g>
</g>
<!-- Node1&#45;&gt;Node10 -->
<g id="edge61" class="edge">
<title>Node1&#45;&gt;Node10</title>
<path fill="none" stroke="midnightblue" d="M533.26,-343.29C476.35,-336.12 405.21,-322.82 387,-300 359.37,-265.37 406.5,-218.07 435.26,-194.16"/>
<polygon fill="midnightblue" stroke="midnightblue" points="437.56,-196.8 443.15,-187.8 433.17,-191.35 437.56,-196.8"/>
</g>
<!-- Node12 -->
<g id="node12" class="node">
<title>Node12</title>
<g id="a_node12"><a xlink:href="ByteStream_8h.html" target="_top" xlink:title=" ">
<polygon fill="none" stroke="black" points="543,-224.5 543,-243.5 675,-243.5 675,-224.5 543,-224.5"/>
<text text-anchor="middle" x="609" y="-231.5" font-family="Helvetica,sans-Serif" font-size="10.00">../../Serial/ByteStream.h</text>
</a>
</g>
</g>
<!-- Node1&#45;&gt;Node12 -->
<g id="edge18" class="edge">
<title>Node1&#45;&gt;Node12</title>
<path fill="none" stroke="midnightblue" d="M643.92,-336.44C669.79,-323.76 698.41,-303.53 685,-280 676.59,-265.25 661.23,-254.84 646.52,-247.77"/>
<polygon fill="midnightblue" stroke="midnightblue" points="647.58,-244.42 637.02,-243.6 644.76,-250.83 647.58,-244.42"/>
</g>
<!-- Node13 -->
<g id="node13" class="node">
<title>Node13</title>
<g id="a_node13"><a xlink:href="Log_8h.html" target="_top" xlink:title=" ">
<polygon fill="none" stroke="black" points="167,-168.5 167,-187.5 239,-187.5 239,-168.5 167,-168.5"/>
<text text-anchor="middle" x="203" y="-175.5" font-family="Helvetica,sans-Serif" font-size="10.00">../Log/Log.h</text>
</a>
</g>
</g>
<!-- Node1&#45;&gt;Node13 -->
<g id="edge63" class="edge">
<title>Node1&#45;&gt;Node13</title>
<path fill="none" stroke="midnightblue" d="M533.25,-345.05C480.91,-339.03 410.77,-326.42 354,-300 297.14,-273.54 242.91,-221.32 217.71,-194.99"/>
<polygon fill="midnightblue" stroke="midnightblue" points="220.25,-192.58 210.85,-187.7 215.16,-197.38 220.25,-192.58"/>
</g>
<!-- Node15 -->
<g id="node15" class="node">
<title>Node15</title>
<g id="a_node15"><a xlink:href="Serial_8h.html" target="_top" xlink:title=" ">
<polygon fill="none" stroke="black" points="960,-168.5 960,-187.5 1062,-187.5 1062,-168.5 960,-168.5"/>
<text text-anchor="middle" x="1011" y="-175.5" font-family="Helvetica,sans-Serif" font-size="10.00">../../Serial/Serial.h</text>
</a>
</g>
</g>
<!-- Node1&#45;&gt;Node15 -->
<g id="edge26" class="edge">
<title>Node1&#45;&gt;Node15</title>
<path fill="none" stroke="midnightblue" d="M684.54,-341.7C745.64,-333.35 825.68,-319.21 852,-300 883.35,-277.12 865.64,-249.39 895,-224 913.49,-208.01 938.3,-197.36 960.23,-190.46"/>
<polygon fill="midnightblue" stroke="midnightblue" points="961.48,-193.74 970.07,-187.55 959.49,-187.03 961.48,-193.74"/>
</g>
<!-- Node16 -->
<g id="node16" class="node">
<title>Node16</title>
<g id="a_node16"><a xlink:href="TimeControl_8h.html" target="_top" xlink:title=" ">
<polygon fill="none" stroke="black" points="257.5,-168.5 257.5,-187.5 388.5,-187.5 388.5,-168.5 257.5,-168.5"/>
<text text-anchor="middle" x="323" y="-175.5" font-family="Helvetica,sans-Serif" font-size="10.00">../../Time/TimeControl.h</text>
</a>
</g>
</g>
<!-- Node1&#45;&gt;Node16 -->
<g id="edge28" class="edge">
<title>Node1&#45;&gt;Node16</title>
<path fill="none" stroke="midnightblue" d="M533.36,-341.76C474.51,-333.6 398.94,-319.71 375,-300 343.18,-273.81 330.39,-224.51 325.61,-197.63"/>
<polygon fill="midnightblue" stroke="midnightblue" points="329.04,-196.94 324.01,-187.62 322.13,-198.04 329.04,-196.94"/>
</g>
<!-- Node17 -->
<g id="node17" class="node">
<title>Node17</title>
<g id="a_node17"><a xlink:href="Timings_8h.html" target="_top" xlink:title=" ">
<polygon fill="none" stroke="black" points="52,-224.5 52,-243.5 162,-243.5 162,-224.5 52,-224.5"/>
<text text-anchor="middle" x="107" y="-231.5" font-family="Helvetica,sans-Serif" font-size="10.00">../../Time/Timings.h</text>
</a>
</g>
</g>
<!-- Node1&#45;&gt;Node17 -->
<g id="edge32" class="edge">
<title>Node1&#45;&gt;Node17</title>
<path fill="none" stroke="midnightblue" d="M533.23,-346.56C458.81,-341.16 342.7,-328.63 246,-300 203.46,-287.41 157.44,-263.69 130.47,-248.65"/>
<polygon fill="midnightblue" stroke="midnightblue" points="131.87,-245.42 121.44,-243.54 128.42,-251.51 131.87,-245.42"/>
</g>
<!-- Node18 -->
<g id="node18" class="node">
<title>Node18</title>
<g id="a_node18"><a xlink:href="IRReceiver_8h.html" target="_top" xlink:title=" ">
<polygon fill="none" stroke="black" points="1050,-280.5 1050,-299.5 1190,-299.5 1190,-280.5 1050,-280.5"/>
<text text-anchor="middle" x="1120" y="-287.5" font-family="Helvetica,sans-Serif" font-size="10.00">../../Wireless/IRReceiver.h</text>
</a>
</g>
</g>
<!-- Node1&#45;&gt;Node18 -->
<g id="edge35" class="edge">
<title>Node1&#45;&gt;Node18</title>
<path fill="none" stroke="midnightblue" d="M684.67,-341.69C779.8,-330.61 942.37,-311.68 1039.64,-300.36"/>
<polygon fill="midnightblue" stroke="midnightblue" points="1040.19,-303.82 1049.72,-299.18 1039.38,-296.86 1040.19,-303.82"/>
</g>
<!-- Node21 -->
<g id="node21" class="node">
<title>Node21</title>
<g id="a_node21"><a xlink:href="VLSender_8h.html" target="_top" xlink:title=" ">
<polygon fill="none" stroke="black" points="542,-280.5 542,-299.5 676,-299.5 676,-280.5 542,-280.5"/>
<text text-anchor="middle" x="609" y="-287.5" font-family="Helvetica,sans-Serif" font-size="10.00">../../Wireless/VLSender.h</text>
</a>
</g>
</g>
<!-- Node1&#45;&gt;Node21 -->
<g id="edge40" class="edge">
<title>Node1&#45;&gt;Node21</title>
<path fill="none" stroke="midnightblue" d="M609,-336.4C609,-328.47 609,-318.46 609,-309.86"/>
<polygon fill="midnightblue" stroke="midnightblue" points="612.5,-309.66 609,-299.66 605.5,-309.66 612.5,-309.66"/>
</g>
<!-- Node23 -->
<g id="node23" class="node">
<title>Node23</title>
<g id="a_node23"><a xlink:href="IRSender_8h.html" target="_top" xlink:title=" ">
<polygon fill="none" stroke="black" points="900.5,-280.5 900.5,-299.5 1031.5,-299.5 1031.5,-280.5 900.5,-280.5"/>
<text text-anchor="middle" x="966" y="-287.5" font-family="Helvetica,sans-Serif" font-size="10.00">../../Wireless/IRSender.h</text>
</a>
</g>
</g>
<!-- Node1&#45;&gt;Node23 -->
<g id="edge45" class="edge">
<title>Node1&#45;&gt;Node23</title>
<path fill="none" stroke="midnightblue" d="M684.71,-337.88C750.2,-326.97 843.7,-311.38 904.62,-301.23"/>
<polygon fill="midnightblue" stroke="midnightblue" points="905.57,-304.62 914.86,-299.52 904.42,-297.72 905.57,-304.62"/>
</g>
<!-- Node24 -->
<g id="node24" class="node">
<title>Node24</title>
<g id="a_node24"><a xlink:href="Button_8h.html" target="_top" xlink:title=" ">
<polygon fill="none" stroke="black" points="1159,-112.5 1159,-131.5 1275,-131.5 1275,-112.5 1159,-112.5"/>
<text text-anchor="middle" x="1217" y="-119.5" font-family="Helvetica,sans-Serif" font-size="10.00">../../Buttons/Button.h</text>
</a>
</g>
</g>
<!-- Node1&#45;&gt;Node24 -->
<g id="edge49" class="edge">
<title>Node1&#45;&gt;Node24</title>
<path fill="none" stroke="midnightblue" d="M684.54,-349.31C835.49,-346.19 1163.05,-335.38 1199,-300 1241.71,-257.97 1230.02,-177.99 1221.86,-141.72"/>
<polygon fill="midnightblue" stroke="midnightblue" points="1225.16,-140.48 1219.4,-131.58 1218.36,-142.12 1225.16,-140.48"/>
</g>
<!-- Node25 -->
<g id="node25" class="node">
<title>Node25</title>
<g id="a_node25"><a xlink:href="Modes_8h.html" target="_top" xlink:title=" ">
<polygon fill="none" stroke="black" points="732.5,-280.5 732.5,-299.5 843.5,-299.5 843.5,-280.5 732.5,-280.5"/>
<text text-anchor="middle" x="788" y="-287.5" font-family="Helvetica,sans-Serif" font-size="10.00">../../Modes/Modes.h</text>
</a>
</g>
</g>
<!-- Node1&#45;&gt;Node25 -->
<g id="edge51" class="edge">
<title>Node1&#45;&gt;Node25</title>
<path fill="none" stroke="midnightblue" d="M651.42,-336.4C682.22,-326.16 723.41,-312.47 752.48,-302.81"/>
<polygon fill="midnightblue" stroke="midnightblue" points="753.83,-306.05 762.22,-299.57 751.62,-299.4 753.83,-306.05"/>
</g>
<!-- Node26 -->
<g id="node26" class="node">
<title>Node26</title>
<g id="a_node26"><a xlink:href="Leds_8h.html" target="_top" xlink:title=" ">
<polygon fill="none" stroke="black" points="598.5,-168.5 598.5,-187.5 681.5,-187.5 681.5,-168.5 598.5,-168.5"/>
<text text-anchor="middle" x="640" y="-175.5" font-family="Helvetica,sans-Serif" font-size="10.00">../Leds/Leds.h</text>
</a>
</g>
</g>
<!-- Node1&#45;&gt;Node26 -->
<g id="edge62" class="edge">
<title>Node1&#45;&gt;Node26</title>
<path fill="none" stroke="midnightblue" d="M573.86,-336.45C558.39,-328.29 541.76,-316.34 533,-300 526.27,-287.45 516.66,-249.7 534,-224 546.45,-205.54 568.13,-194.63 588.65,-188.19"/>
<polygon fill="midnightblue" stroke="midnightblue" points="589.61,-191.55 598.27,-185.45 587.7,-184.82 589.61,-191.55"/>
</g>
<!-- Node3 -->
<g id="node3" class="node">
<title>Node3</title>
<g id="a_node3"><a xlink:href="Menu_8h.html" target="_top" xlink:title=" ">
<polygon fill="none" stroke="black" points="424,-224.5 424,-243.5 486,-243.5 486,-224.5 424,-224.5"/>
<text text-anchor="middle" x="455" y="-231.5" font-family="Helvetica,sans-Serif" font-size="10.00">../Menu.h</text>
</a>
</g>
</g>
<!-- Node2&#45;&gt;Node3 -->
<g id="edge2" class="edge">
<title>Node2&#45;&gt;Node3</title>
<path fill="none" stroke="midnightblue" d="M443.31,-280.08C445.17,-272.93 447.84,-262.64 450.15,-253.69"/>
<polygon fill="midnightblue" stroke="midnightblue" points="453.61,-254.31 452.73,-243.75 446.83,-252.55 453.61,-254.31"/>
</g>
<!-- Node4 -->
<g id="node4" class="node">
<title>Node4</title>
<g id="a_node4"><a xlink:title=" ">
<polygon fill="none" stroke="#bfbfbf" points="864.5,-56.5 864.5,-75.5 929.5,-75.5 929.5,-56.5 864.5,-56.5"/>
<text text-anchor="middle" x="897" y="-63.5" font-family="Helvetica,sans-Serif" font-size="10.00">inttypes.h</text>
</a>
</g>
</g>
<!-- Node3&#45;&gt;Node4 -->
<g id="edge3" class="edge">
<title>Node3&#45;&gt;Node4</title>
<path fill="none" stroke="midnightblue" d="M486.25,-228.37C546.23,-219.29 673.1,-199.07 690,-188 724.23,-165.57 708.85,-136 742,-112 775.08,-88.05 820.72,-76.79 853.91,-71.53"/>
<polygon fill="midnightblue" stroke="midnightblue" points="854.83,-74.93 864.21,-70.02 853.81,-68 854.83,-74.93"/>
</g>
<!-- Node5 -->
<g id="node5" class="node">
<title>Node5</title>
<g id="a_node5"><a xlink:href="ColorTypes_8h.html" target="_top" xlink:title=" ">
<polygon fill="none" stroke="black" points="573,-112.5 573,-131.5 695,-131.5 695,-112.5 573,-112.5"/>
<text text-anchor="middle" x="634" y="-119.5" font-family="Helvetica,sans-Serif" font-size="10.00">../Colors/ColorTypes.h</text>
</a>
</g>
</g>
<!-- Node3&#45;&gt;Node5 -->
<g id="edge4" class="edge">
<title>Node3&#45;&gt;Node5</title>
<path fill="none" stroke="midnightblue" d="M469.05,-224.37C499.89,-205.41 573.79,-160 611.31,-136.94"/>
<polygon fill="midnightblue" stroke="midnightblue" points="613.33,-139.81 620.02,-131.59 609.67,-133.85 613.33,-139.81"/>
</g>
<!-- Node8 -->
<g id="node8" class="node">
<title>Node8</title>
<g id="a_node8"><a xlink:href="LedTypes_8h.html" target="_top" xlink:title=" ">
<polygon fill="none" stroke="black" points="449.5,-112.5 449.5,-131.5 554.5,-131.5 554.5,-112.5 449.5,-112.5"/>
<text text-anchor="middle" x="502" y="-119.5" font-family="Helvetica,sans-Serif" font-size="10.00">../Leds/LedTypes.h</text>
</a>
</g>
</g>
<!-- Node3&#45;&gt;Node8 -->
<g id="edge9" class="edge">
<title>Node3&#45;&gt;Node8</title>
<path fill="none" stroke="midnightblue" d="M473.08,-224.39C486.56,-216.87 503.97,-204.57 512,-188 519.07,-173.41 515.22,-155 510.39,-141.5"/>
<polygon fill="midnightblue" stroke="midnightblue" points="513.49,-139.85 506.49,-131.89 507.01,-142.48 513.49,-139.85"/>
</g>
<!-- Node3&#45;&gt;Node10 -->
<g id="edge13" class="edge">
<title>Node3&#45;&gt;Node10</title>
<path fill="none" stroke="midnightblue" d="M455,-224.08C455,-217.01 455,-206.86 455,-197.99"/>
<polygon fill="midnightblue" stroke="midnightblue" points="458.5,-197.75 455,-187.75 451.5,-197.75 458.5,-197.75"/>
</g>
<!-- Node5&#45;&gt;Node4 -->
<g id="edge5" class="edge">
<title>Node5&#45;&gt;Node4</title>
<path fill="none" stroke="midnightblue" d="M675.67,-112.44C724.49,-102.42 804.94,-85.9 854.23,-75.78"/>
<polygon fill="midnightblue" stroke="midnightblue" points="855.15,-79.16 864.25,-73.73 853.75,-72.31 855.15,-79.16"/>
</g>
<!-- Node6 -->
<g id="node6" class="node">
<title>Node6</title>
<g id="a_node6"><a xlink:href="VortexConfig_8h.html" target="_top" xlink:title=" ">
<polygon fill="none" stroke="black" points="185.5,-56.5 185.5,-75.5 282.5,-75.5 282.5,-56.5 185.5,-56.5"/>
<text text-anchor="middle" x="234" y="-63.5" font-family="Helvetica,sans-Serif" font-size="10.00">../VortexConfig.h</text>
</a>
</g>
</g>
<!-- Node5&#45;&gt;Node6 -->
<g id="edge6" class="edge">
<title>Node5&#45;&gt;Node6</title>
<path fill="none" stroke="midnightblue" d="M572.81,-112.74C496.73,-102.47 367.76,-85.06 292.8,-74.94"/>
<polygon fill="midnightblue" stroke="midnightblue" points="292.97,-71.43 282.59,-73.56 292.04,-78.37 292.97,-71.43"/>
</g>
<!-- Node7 -->
<g id="node7" class="node">
<title>Node7</title>
<g id="a_node7"><a xlink:href="ColorConstants_8h.html" target="_top" xlink:title=" ">
<polygon fill="none" stroke="black" points="291,-0.5 291,-19.5 425,-19.5 425,-0.5 291,-0.5"/>
<text text-anchor="middle" x="358" y="-7.5" font-family="Helvetica,sans-Serif" font-size="10.00">Colors/ColorConstants.h</text>
</a>
</g>
</g>
<!-- Node5&#45;&gt;Node7 -->
<g id="edge8" class="edge">
<title>Node5&#45;&gt;Node7</title>
<path fill="none" stroke="midnightblue" d="M612.34,-112.37C563.67,-92.97 445.49,-45.87 389.03,-23.37"/>
<polygon fill="midnightblue" stroke="midnightblue" points="390.14,-20.04 379.56,-19.59 387.55,-26.55 390.14,-20.04"/>
</g>
<!-- Node6&#45;&gt;Node7 -->
<g id="edge7" class="edge">
<title>Node6&#45;&gt;Node7</title>
<path fill="none" stroke="midnightblue" d="M253.65,-56.44C273.96,-47.6 305.9,-33.69 329.1,-23.59"/>
<polygon fill="midnightblue" stroke="midnightblue" points="330.67,-26.72 338.44,-19.52 327.88,-20.3 330.67,-26.72"/>
</g>
<!-- Node8&#45;&gt;Node4 -->
<g id="edge10" class="edge">
<title>Node8&#45;&gt;Node4</title>
<path fill="none" stroke="midnightblue" d="M554.76,-113.31C557.89,-112.86 560.98,-112.42 564,-112 668.25,-97.39 790.99,-81.02 854.35,-72.63"/>
<polygon fill="midnightblue" stroke="midnightblue" points="854.92,-76.08 864.37,-71.3 854,-69.14 854.92,-76.08"/>
</g>
<!-- Node8&#45;&gt;Node6 -->
<g id="edge12" class="edge">
<title>Node8&#45;&gt;Node6</title>
<path fill="none" stroke="midnightblue" d="M459.53,-112.44C412.59,-102.98 336.92,-87.74 286.35,-77.55"/>
<polygon fill="midnightblue" stroke="midnightblue" points="286.76,-74.06 276.27,-75.52 285.38,-80.92 286.76,-74.06"/>
</g>
<!-- Node9 -->
<g id="node9" class="node">
<title>Node9</title>
<g id="a_node9"><a xlink:title=" ">
<polygon fill="none" stroke="#bfbfbf" points="64,-56.5 64,-75.5 120,-75.5 120,-56.5 64,-56.5"/>
<text text-anchor="middle" x="92" y="-63.5" font-family="Helvetica,sans-Serif" font-size="10.00">stdarg.h</text>
</a>
</g>
</g>
<!-- Node8&#45;&gt;Node9 -->
<g id="edge11" class="edge">
<title>Node8&#45;&gt;Node9</title>
<path fill="none" stroke="midnightblue" d="M449.24,-114.05C365.44,-103.01 203.9,-81.74 130.26,-72.04"/>
<polygon fill="midnightblue" stroke="midnightblue" points="130.43,-68.53 120.05,-70.69 129.51,-75.47 130.43,-68.53"/>
</g>
<!-- Node10&#45;&gt;Node6 -->
<g id="edge17" class="edge">
<title>Node10&#45;&gt;Node6</title>
<path fill="none" stroke="midnightblue" d="M406.38,-169.44C359.63,-161.41 293.04,-147.71 272,-132 256.32,-120.29 245.99,-100.06 240.11,-85.27"/>
<polygon fill="midnightblue" stroke="midnightblue" points="243.32,-83.85 236.6,-75.66 236.74,-86.25 243.32,-83.85"/>
</g>
<!-- Node10&#45;&gt;Node8 -->
<g id="edge14" class="edge">
<title>Node10&#45;&gt;Node8</title>
<path fill="none" stroke="midnightblue" d="M462.76,-168.08C469.54,-160.3 479.54,-148.8 487.76,-139.37"/>
<polygon fill="midnightblue" stroke="midnightblue" points="490.46,-141.59 494.38,-131.75 485.18,-137 490.46,-141.59"/>
</g>
<!-- Node11 -->
<g id="node11" class="node">
<title>Node11</title>
<g id="a_node11"><a xlink:href="Patterns_8h.html" target="_top" xlink:title=" ">
<polygon fill="none" stroke="black" points="751.5,-112.5 751.5,-131.5 868.5,-131.5 868.5,-112.5 751.5,-112.5"/>
<text text-anchor="middle" x="810" y="-119.5" font-family="Helvetica,sans-Serif" font-size="10.00">../Patterns/Patterns.h</text>
</a>
</g>
</g>
<!-- Node10&#45;&gt;Node11 -->
<g id="edge15" class="edge">
<title>Node10&#45;&gt;Node11</title>
<path fill="none" stroke="midnightblue" d="M503.62,-169.6C565.97,-160.12 674.36,-143.63 744.09,-133.03"/>
<polygon fill="midnightblue" stroke="midnightblue" points="744.73,-136.47 754.09,-131.51 743.67,-129.55 744.73,-136.47"/>
</g>
<!-- Node11&#45;&gt;Node4 -->
<g id="edge16" class="edge">
<title>Node11&#45;&gt;Node4</title>
<path fill="none" stroke="midnightblue" d="M823.98,-112.32C837.55,-103.9 858.38,-90.97 874.32,-81.07"/>
<polygon fill="midnightblue" stroke="midnightblue" points="876.41,-83.9 883.06,-75.65 872.71,-77.95 876.41,-83.9"/>
</g>
<!-- Node12&#45;&gt;Node4 -->
<g id="edge19" class="edge">
<title>Node12&#45;&gt;Node4</title>
<path fill="none" stroke="midnightblue" d="M675.04,-231.33C744.21,-225.57 849.42,-204.53 898,-132 907.02,-118.53 905.6,-99.72 902.62,-85.8"/>
<polygon fill="midnightblue" stroke="midnightblue" points="905.95,-84.69 900.07,-75.88 899.17,-86.43 905.95,-84.69"/>
</g>
<!-- Node12&#45;&gt;Node13 -->
<g id="edge20" class="edge">
<title>Node12&#45;&gt;Node13</title>
<path fill="none" stroke="midnightblue" d="M542.92,-226.23C472.57,-218.7 357.77,-205.46 249.43,-188.13"/>
<polygon fill="midnightblue" stroke="midnightblue" points="249.74,-184.64 239.31,-186.5 248.62,-191.55 249.74,-184.64"/>
</g>
<!-- Node13&#45;&gt;Node6 -->
<g id="edge22" class="edge">
<title>Node13&#45;&gt;Node6</title>
<path fill="none" stroke="midnightblue" d="M200.9,-168.32C198.23,-155.6 194.68,-131.31 201,-112 204.49,-101.34 211.57,-91.12 218.29,-83.12"/>
<polygon fill="midnightblue" stroke="midnightblue" points="220.9,-85.44 224.98,-75.66 215.7,-80.76 220.9,-85.44"/>
</g>
<!-- Node13&#45;&gt;Node9 -->
<g id="edge21" class="edge">
<title>Node13&#45;&gt;Node9</title>
<path fill="none" stroke="midnightblue" d="M194.29,-168.37C175.65,-149.89 131.65,-106.29 107.89,-82.74"/>
<polygon fill="midnightblue" stroke="midnightblue" points="110.24,-80.14 100.67,-75.59 105.31,-85.12 110.24,-80.14"/>
</g>
<!-- Node14 -->
<g id="node14" class="node">
<title>Node14</title>
<g id="a_node14"><a xlink:href="ErrorBlinker_8h.html" target="_top" xlink:title=" ">
<polygon fill="none" stroke="black" points="281.5,-112.5 281.5,-131.5 392.5,-131.5 392.5,-112.5 281.5,-112.5"/>
<text text-anchor="middle" x="337" y="-119.5" font-family="Helvetica,sans-Serif" font-size="10.00">../Log/ErrorBlinker.h</text>
</a>
</g>
</g>
<!-- Node13&#45;&gt;Node14 -->
<g id="edge23" class="edge">
<title>Node13&#45;&gt;Node14</title>
<path fill="none" stroke="midnightblue" d="M224.23,-168.44C246.38,-159.52 281.32,-145.44 306.44,-135.32"/>
<polygon fill="midnightblue" stroke="midnightblue" points="307.9,-138.5 315.87,-131.52 305.28,-132.01 307.9,-138.5"/>
</g>
<!-- Node14&#45;&gt;Node4 -->
<g id="edge24" class="edge">
<title>Node14&#45;&gt;Node4</title>
<path fill="none" stroke="midnightblue" d="M392.76,-113.65C397.58,-113.07 402.37,-112.51 407,-112 572.07,-93.82 768.98,-77.3 854.2,-70.4"/>
<polygon fill="midnightblue" stroke="midnightblue" points="854.59,-73.89 864.27,-69.59 854.02,-66.91 854.59,-73.89"/>
</g>
<!-- Node14&#45;&gt;Node6 -->
<g id="edge25" class="edge">
<title>Node14&#45;&gt;Node6</title>
<path fill="none" stroke="midnightblue" d="M320.45,-112.32C304.01,-103.7 278.57,-90.36 259.53,-80.39"/>
<polygon fill="midnightblue" stroke="midnightblue" points="260.99,-77.2 250.51,-75.65 257.74,-83.4 260.99,-77.2"/>
</g>
<!-- Node15&#45;&gt;Node4 -->
<g id="edge27" class="edge">
<title>Node15&#45;&gt;Node4</title>
<path fill="none" stroke="midnightblue" d="M1009.88,-168.38C1007.71,-154.85 1001.77,-128.49 987,-112 973.53,-96.96 953.87,-86.33 936.36,-79.19"/>
<polygon fill="midnightblue" stroke="midnightblue" points="937.5,-75.87 926.91,-75.57 935,-82.41 937.5,-75.87"/>
</g>
<!-- Node16&#45;&gt;Node4 -->
<g id="edge29" class="edge">
<title>Node16&#45;&gt;Node4</title>
<path fill="none" stroke="midnightblue" d="M337.92,-168.26C366.96,-151.32 429.19,-115.38 440,-112 516.73,-88.04 756.14,-73.91 854.33,-68.98"/>
<polygon fill="midnightblue" stroke="midnightblue" points="854.67,-72.47 864.49,-68.48 854.33,-65.48 854.67,-72.47"/>
</g>
<!-- Node16&#45;&gt;Node6 -->
<g id="edge30" class="edge">
<title>Node16&#45;&gt;Node6</title>
<path fill="none" stroke="midnightblue" d="M291.36,-168.43C272.89,-161.68 250.93,-150.29 239,-132 230.21,-118.52 229.64,-99.96 230.87,-86.13"/>
<polygon fill="midnightblue" stroke="midnightblue" points="234.39,-86.19 232.19,-75.83 227.45,-85.3 234.39,-86.19"/>
</g>
<!-- Node16&#45;&gt;Node8 -->
<g id="edge31" class="edge">
<title>Node16&#45;&gt;Node8</title>
<path fill="none" stroke="midnightblue" d="M351.36,-168.44C381.74,-159.28 430.11,-144.69 463.82,-134.52"/>
<polygon fill="midnightblue" stroke="midnightblue" points="465.21,-137.76 473.77,-131.52 463.18,-131.05 465.21,-137.76"/>
</g>
<!-- Node17&#45;&gt;Node6 -->
<g id="edge34" class="edge">
<title>Node17&#45;&gt;Node6</title>
<path fill="none" stroke="midnightblue" d="M105.62,-224.28C102.73,-202.7 98.32,-146.13 125,-112 137.73,-95.72 157.37,-85.28 176.49,-78.61"/>
<polygon fill="midnightblue" stroke="midnightblue" points="177.63,-81.92 186.1,-75.54 175.51,-75.25 177.63,-81.92"/>
</g>
<!-- Node17&#45;&gt;Node16 -->
<g id="edge33" class="edge">
<title>Node17&#45;&gt;Node16</title>
<path fill="none" stroke="midnightblue" d="M141.23,-224.44C178.51,-215.12 238.27,-200.18 279.01,-190"/>
<polygon fill="midnightblue" stroke="midnightblue" points="280.08,-193.34 288.93,-187.52 278.38,-186.55 280.08,-193.34"/>
</g>
<!-- Node18&#45;&gt;Node4 -->
<g id="edge36" class="edge">
<title>Node18&#45;&gt;Node4</title>
<path fill="none" stroke="midnightblue" d="M1119.54,-280.44C1118.71,-267.87 1116.49,-243.76 1111,-224 1095.64,-168.76 1093.63,-145.36 1047,-112 1015.08,-89.16 971.45,-77.77 939.48,-72.18"/>
<polygon fill="midnightblue" stroke="midnightblue" points="939.97,-68.71 929.54,-70.56 938.84,-75.62 939.97,-68.71"/>
</g>
<!-- Node19 -->
<g id="node19" class="node">
<title>Node19</title>
<g id="a_node19"><a xlink:href="BitStream_8h.html" target="_top" xlink:title=" ">
<polygon fill="none" stroke="black" points="904,-224.5 904,-243.5 1018,-243.5 1018,-224.5 904,-224.5"/>
<text text-anchor="middle" x="961" y="-231.5" font-family="Helvetica,sans-Serif" font-size="10.00">../Serial/BitStream.h</text>
</a>
</g>
</g>
<!-- Node18&#45;&gt;Node19 -->
<g id="edge37" class="edge">
<title>Node18&#45;&gt;Node19</title>
<path fill="none" stroke="midnightblue" d="M1094.81,-280.44C1068.06,-271.36 1025.6,-256.94 995.69,-246.78"/>
<polygon fill="midnightblue" stroke="midnightblue" points="996.67,-243.42 986.08,-243.52 994.42,-250.05 996.67,-243.42"/>
</g>
<!-- Node20 -->
<g id="node20" class="node">
<title>Node20</title>
<g id="a_node20"><a xlink:href="IRConfig_8h.html" target="_top" xlink:title=" ">
<polygon fill="none" stroke="black" points="1036,-224.5 1036,-243.5 1102,-243.5 1102,-224.5 1036,-224.5"/>
<text text-anchor="middle" x="1069" y="-231.5" font-family="Helvetica,sans-Serif" font-size="10.00">IRConfig.h</text>
</a>
</g>
</g>
<!-- Node18&#45;&gt;Node20 -->
<g id="edge39" class="edge">
<title>Node18&#45;&gt;Node20</title>
<path fill="none" stroke="midnightblue" d="M1111.58,-280.08C1104.15,-272.22 1093.15,-260.57 1084.19,-251.08"/>
<polygon fill="midnightblue" stroke="midnightblue" points="1086.68,-248.62 1077.26,-243.75 1081.59,-253.42 1086.68,-248.62"/>
</g>
<!-- Node19&#45;&gt;Node4 -->
<g id="edge38" class="edge">
<title>Node19&#45;&gt;Node4</title>
<path fill="none" stroke="midnightblue" d="M1008.62,-224.5C1044.25,-215.57 1084.68,-198.45 1071,-168 1047.57,-115.83 982.93,-89.07 939.38,-76.57"/>
<polygon fill="midnightblue" stroke="midnightblue" points="940.18,-73.16 929.61,-73.9 938.34,-79.91 940.18,-73.16"/>
</g>
<!-- Node21&#45;&gt;Node12 -->
<g id="edge41" class="edge">
<title>Node21&#45;&gt;Node12</title>
<path fill="none" stroke="midnightblue" d="M609,-280.08C609,-273.01 609,-262.86 609,-253.99"/>
<polygon fill="midnightblue" stroke="midnightblue" points="612.5,-253.75 609,-243.75 605.5,-253.75 612.5,-253.75"/>
</g>
<!-- Node21&#45;&gt;Node19 -->
<g id="edge42" class="edge">
<title>Node21&#45;&gt;Node19</title>
<path fill="none" stroke="midnightblue" d="M664.78,-280.44C727.47,-270.83 829.15,-255.23 895.55,-245.04"/>
<polygon fill="midnightblue" stroke="midnightblue" points="896.13,-248.49 905.49,-243.52 895.07,-241.57 896.13,-248.49"/>
</g>
<!-- Node22 -->
<g id="node22" class="node">
<title>Node22</title>
<g id="a_node22"><a xlink:href="VLConfig_8h.html" target="_top" xlink:title=" ">
<polygon fill="none" stroke="black" points="0,-168.5 0,-187.5 68,-187.5 68,-168.5 0,-168.5"/>
<text text-anchor="middle" x="34" y="-175.5" font-family="Helvetica,sans-Serif" font-size="10.00">VLConfig.h</text>
</a>
</g>
</g>
<!-- Node21&#45;&gt;Node22 -->
<g id="edge43" class="edge">
<title>Node21&#45;&gt;Node22</title>
<path fill="none" stroke="midnightblue" d="M541.93,-283.73C392.16,-271.97 43.56,-244.53 43,-244 30.72,-232.41 29.64,-212.45 30.91,-197.7"/>
<polygon fill="midnightblue" stroke="midnightblue" points="34.4,-198.02 32.19,-187.66 27.45,-197.14 34.4,-198.02"/>
</g>
<!-- Node22&#45;&gt;Node6 -->
<g id="edge44" class="edge">
<title>Node22&#45;&gt;Node6</title>
<path fill="none" stroke="midnightblue" d="M38.68,-168.47C46.73,-154.58 64.52,-127.11 87,-112 113.35,-94.28 146.96,-83.31 175.39,-76.65"/>
<polygon fill="midnightblue" stroke="midnightblue" points="176.2,-80.05 185.21,-74.47 174.68,-73.22 176.2,-80.05"/>
</g>
<!-- Node23&#45;&gt;Node12 -->
<g id="edge46" class="edge">
<title>Node23&#45;&gt;Node12</title>
<path fill="none" stroke="midnightblue" d="M909.43,-280.44C845.85,-270.83 742.73,-255.23 675.38,-245.04"/>
<polygon fill="midnightblue" stroke="midnightblue" points="675.71,-241.55 665.3,-243.52 674.67,-248.47 675.71,-241.55"/>
</g>
<!-- Node23&#45;&gt;Node19 -->
<g id="edge47" class="edge">
<title>Node23&#45;&gt;Node19</title>
<path fill="none" stroke="midnightblue" d="M965.17,-280.08C964.52,-273.01 963.58,-262.86 962.76,-253.99"/>
<polygon fill="midnightblue" stroke="midnightblue" points="966.22,-253.39 961.81,-243.75 959.25,-254.03 966.22,-253.39"/>
</g>
<!-- Node23&#45;&gt;Node20 -->
<g id="edge48" class="edge">
<title>Node23&#45;&gt;Node20</title>
<path fill="none" stroke="midnightblue" d="M982.55,-280.32C998.99,-271.7 1024.43,-258.36 1043.47,-248.39"/>
<polygon fill="midnightblue" stroke="midnightblue" points="1045.26,-251.4 1052.49,-243.65 1042.01,-245.2 1045.26,-251.4"/>
</g>
<!-- Node24&#45;&gt;Node4 -->
<g id="edge50" class="edge">
<title>Node24&#45;&gt;Node4</title>
<path fill="none" stroke="midnightblue" d="M1166.3,-112.44C1103.78,-101.89 998.64,-84.15 939.93,-74.25"/>
<polygon fill="midnightblue" stroke="midnightblue" points="940.32,-70.76 929.88,-72.55 939.16,-77.66 940.32,-70.76"/>
</g>
<!-- Node25&#45;&gt;Node4 -->
<g id="edge60" class="edge">
<title>Node25&#45;&gt;Node4</title>
<path fill="none" stroke="midnightblue" d="M797.24,-280.21C819.85,-258 877.57,-196.75 898,-132 902.73,-117.02 902.02,-99.11 900.39,-85.88"/>
<polygon fill="midnightblue" stroke="midnightblue" points="903.79,-85.02 898.83,-75.66 896.87,-86.08 903.79,-85.02"/>
</g>
<!-- Node25&#45;&gt;Node5 -->
<g id="edge53" class="edge">
<title>Node25&#45;&gt;Node5</title>
<path fill="none" stroke="midnightblue" d="M781.92,-280.26C767.34,-259.6 728.69,-206.54 690,-168 678.98,-157.03 665.42,-146.07 654.39,-137.71"/>
<polygon fill="midnightblue" stroke="midnightblue" points="656.31,-134.78 646.2,-131.62 652.14,-140.4 656.31,-134.78"/>
</g>
<!-- Node25&#45;&gt;Node6 -->
<g id="edge59" class="edge">
<title>Node25&#45;&gt;Node6</title>
<path fill="none" stroke="midnightblue" d="M732.35,-284.29C585.09,-271.26 194.03,-232.72 158,-188 129.27,-152.33 181.52,-105.17 212.88,-81.65"/>
<polygon fill="midnightblue" stroke="midnightblue" points="215.06,-84.39 221.09,-75.67 210.94,-78.73 215.06,-84.39"/>
</g>
<!-- Node25&#45;&gt;Node11 -->
<g id="edge54" class="edge">
<title>Node25&#45;&gt;Node11</title>
<path fill="none" stroke="midnightblue" d="M789.18,-280.08C792.65,-253.95 802.82,-177.21 807.54,-141.58"/>
<polygon fill="midnightblue" stroke="midnightblue" points="811.02,-141.94 808.86,-131.57 804.08,-141.02 811.02,-141.94"/>
</g>
<!-- Node25&#45;&gt;Node12 -->
<g id="edge52" class="edge">
<title>Node25&#45;&gt;Node12</title>
<path fill="none" stroke="midnightblue" d="M759.64,-280.44C729.26,-271.28 680.89,-256.69 647.18,-246.52"/>
<polygon fill="midnightblue" stroke="midnightblue" points="647.82,-243.05 637.23,-243.52 645.79,-249.76 647.82,-243.05"/>
</g>
<!-- Node25&#45;&gt;Node26 -->
<g id="edge55" class="edge">
<title>Node25&#45;&gt;Node26</title>
<path fill="none" stroke="midnightblue" d="M776.29,-280.39C764,-271.35 744.12,-256.71 727,-244 703.92,-226.87 677.48,-207.09 659.87,-193.9"/>
<polygon fill="midnightblue" stroke="midnightblue" points="661.62,-190.84 651.52,-187.64 657.43,-196.44 661.62,-190.84"/>
</g>
<!-- Node26&#45;&gt;Node4 -->
<g id="edge56" class="edge">
<title>Node26&#45;&gt;Node4</title>
<path fill="none" stroke="midnightblue" d="M681.83,-174.18C741.98,-169.3 848.76,-157.27 877,-132 890.04,-120.33 894.69,-100.38 896.28,-85.66"/>
<polygon fill="midnightblue" stroke="midnightblue" points="899.78,-85.86 897,-75.64 892.8,-85.36 899.78,-85.86"/>
</g>
<!-- Node26&#45;&gt;Node5 -->
<g id="edge57" class="edge">
<title>Node26&#45;&gt;Node5</title>
<path fill="none" stroke="midnightblue" d="M639.01,-168.08C638.21,-160.93 637.07,-150.64 636.08,-141.69"/>
<polygon fill="midnightblue" stroke="midnightblue" points="639.56,-141.3 634.97,-131.75 632.6,-142.08 639.56,-141.3"/>
</g>
<!-- Node26&#45;&gt;Node8 -->
<g id="edge58" class="edge">
<title>Node26&#45;&gt;Node8</title>
<path fill="none" stroke="midnightblue" d="M618.13,-168.44C595.22,-159.48 559.02,-145.31 533.13,-135.18"/>
<polygon fill="midnightblue" stroke="midnightblue" points="534.35,-131.9 523.76,-131.52 531.8,-138.42 534.35,-131.9"/>
</g>
</g>
</svg>
