<?xml version="1.0" encoding="UTF-8" standalone="no"?>
<!DOCTYPE svg PUBLIC "-//W3C//DTD SVG 1.1//EN"
 "http://www.w3.org/Graphics/SVG/1.1/DTD/svg11.dtd">
<!-- Generated by graphviz version 2.43.0 (0)
 -->
<!-- Title: VortexEngine/src/Modes/Modes.cpp Pages: 1 -->
<svg width="1346pt" height="375pt"
 viewBox="0.00 0.00 1346.06 375.00" xmlns="http://www.w3.org/2000/svg" xmlns:xlink="http://www.w3.org/1999/xlink">
<g id="graph0" class="graph" transform="scale(1 1) rotate(0) translate(4 371)">
<title>VortexEngine/src/Modes/Modes.cpp</title>
<!-- Node1 -->
<g id="node1" class="node">
<title>Node1</title>
<g id="a_node1"><a xlink:title=" ">
<polygon fill="#bfbfbf" stroke="black" points="505.56,-336.5 505.56,-366.5 639.56,-366.5 639.56,-336.5 505.56,-336.5"/>
<text text-anchor="start" x="513.56" y="-354.5" font-family="Helvetica,sans-Serif" font-size="10.00">VortexEngine/src/Modes</text>
<text text-anchor="middle" x="572.56" y="-343.5" font-family="Helvetica,sans-Serif" font-size="10.00">/Modes.cpp</text>
</a>
</g>
</g>
<!-- Node2 -->
<g id="node2" class="node">
<title>Node2</title>
<g id="a_node2"><a xlink:href="Modes_8h.html" target="_top" xlink:title=" ">
<polygon fill="none" stroke="black" points="884.56,-280.5 884.56,-299.5 942.56,-299.5 942.56,-280.5 884.56,-280.5"/>
<text text-anchor="middle" x="913.56" y="-287.5" font-family="Helvetica,sans-Serif" font-size="10.00">Modes.h</text>
</a>
</g>
</g>
<!-- Node1&#45;&gt;Node2 -->
<g id="edge1" class="edge">
<title>Node1&#45;&gt;Node2</title>
<path fill="none" stroke="midnightblue" d="M639.93,-338.74C709.92,-326.53 817.03,-307.84 874.28,-297.86"/>
<polygon fill="midnightblue" stroke="midnightblue" points="875.11,-301.26 884.36,-296.1 873.91,-294.37 875.11,-301.26"/>
</g>
<!-- Node3 -->
<g id="node3" class="node">
<title>Node3</title>
<g id="a_node3"><a xlink:href="ByteStream_8h.html" target="_top" xlink:title=" ">
<polygon fill="none" stroke="black" points="556.06,-224.5 556.06,-243.5 679.06,-243.5 679.06,-224.5 556.06,-224.5"/>
<text text-anchor="middle" x="617.56" y="-231.5" font-family="Helvetica,sans-Serif" font-size="10.00">../Serial/ByteStream.h</text>
</a>
</g>
</g>
<!-- Node1&#45;&gt;Node3 -->
<g id="edge40" class="edge">
<title>Node1&#45;&gt;Node3</title>
<path fill="none" stroke="midnightblue" d="M578.08,-336.34C586.23,-315.43 601.47,-276.31 610.45,-253.27"/>
<polygon fill="midnightblue" stroke="midnightblue" points="613.82,-254.26 614.19,-243.67 607.3,-251.72 613.82,-254.26"/>
</g>
<!-- Node5 -->
<g id="node5" class="node">
<title>Node5</title>
<g id="a_node5"><a xlink:href="Log_8h.html" target="_top" xlink:title=" ">
<polygon fill="none" stroke="black" points="13.56,-168.5 13.56,-187.5 85.56,-187.5 85.56,-168.5 13.56,-168.5"/>
<text text-anchor="middle" x="49.56" y="-175.5" font-family="Helvetica,sans-Serif" font-size="10.00">../Log/Log.h</text>
</a>
</g>
</g>
<!-- Node1&#45;&gt;Node5 -->
<g id="edge64" class="edge">
<title>Node1&#45;&gt;Node5</title>
<path fill="none" stroke="midnightblue" d="M505.29,-348.07C431.41,-343.82 310.05,-332.12 210.56,-300 159.86,-283.63 146.09,-277.39 104.56,-244 87.37,-230.17 71.52,-210.36 61.3,-196.26"/>
<polygon fill="midnightblue" stroke="midnightblue" points="64.06,-194.09 55.44,-187.93 58.33,-198.12 64.06,-194.09"/>
</g>
<!-- Node12 -->
<g id="node12" class="node">
<title>Node12</title>
<g id="a_node12"><a xlink:href="Leds_8h.html" target="_top" xlink:title=" ">
<polygon fill="none" stroke="black" points="1018.06,-168.5 1018.06,-187.5 1101.06,-187.5 1101.06,-168.5 1018.06,-168.5"/>
<text text-anchor="middle" x="1059.56" y="-175.5" font-family="Helvetica,sans-Serif" font-size="10.00">../Leds/Leds.h</text>
</a>
</g>
</g>
<!-- Node1&#45;&gt;Node12 -->
<g id="edge63" class="edge">
<title>Node1&#45;&gt;Node12</title>
<path fill="none" stroke="midnightblue" d="M639.77,-347.14C733.77,-341.5 898.92,-327.89 951.56,-300 997.44,-275.7 1033.25,-223.64 1049.7,-196.41"/>
<polygon fill="midnightblue" stroke="midnightblue" points="1052.83,-198 1054.87,-187.6 1046.79,-194.46 1052.83,-198"/>
</g>
<!-- Node14 -->
<g id="node14" class="node">
<title>Node14</title>
<g id="a_node14"><a xlink:href="DefaultModes_8h.html" target="_top" xlink:title=" ">
<polygon fill="none" stroke="black" points="473.56,-168.5 473.56,-187.5 567.56,-187.5 567.56,-168.5 473.56,-168.5"/>
<text text-anchor="middle" x="520.56" y="-175.5" font-family="Helvetica,sans-Serif" font-size="10.00">DefaultModes.h</text>
</a>
</g>
</g>
<!-- Node1&#45;&gt;Node14 -->
<g id="edge26" class="edge">
<title>Node1&#45;&gt;Node14</title>
<path fill="none" stroke="midnightblue" d="M547.56,-336.39C534.84,-327.71 520.61,-315.31 513.56,-300 498.15,-266.52 507.11,-222.2 514.3,-197.56"/>
<polygon fill="midnightblue" stroke="midnightblue" points="517.73,-198.32 517.39,-187.73 511.05,-196.22 517.73,-198.32"/>
</g>
<!-- Node15 -->
<g id="node15" class="node">
<title>Node15</title>
<g id="a_node15"><a xlink:href="VortexEngine_8h.html" target="_top" xlink:title=" ">
<polygon fill="none" stroke="black" points="512.06,-112.5 512.06,-131.5 611.06,-131.5 611.06,-112.5 512.06,-112.5"/>
<text text-anchor="middle" x="561.56" y="-119.5" font-family="Helvetica,sans-Serif" font-size="10.00">../VortexEngine.h</text>
</a>
</g>
</g>
<!-- Node1&#45;&gt;Node15 -->
<g id="edge29" class="edge">
<title>Node1&#45;&gt;Node15</title>
<path fill="none" stroke="midnightblue" d="M567.92,-336.23C561.6,-315.99 550.61,-277.64 546.56,-244 545.5,-235.17 543.54,-232.36 546.56,-224 553.65,-204.42 569.47,-207.58 576.56,-188 579.59,-179.64 577.99,-176.77 576.56,-168 575.1,-158.96 572.07,-149.28 569.12,-141.22"/>
<polygon fill="midnightblue" stroke="midnightblue" points="572.32,-139.79 565.42,-131.75 565.8,-142.34 572.32,-139.79"/>
</g>
<!-- Node16 -->
<g id="node16" class="node">
<title>Node16</title>
<g id="a_node16"><a xlink:href="Pattern_8h.html" target="_top" xlink:title=" ">
<polygon fill="none" stroke="black" points="735.56,-224.5 735.56,-243.5 847.56,-243.5 847.56,-224.5 735.56,-224.5"/>
<text text-anchor="middle" x="791.56" y="-231.5" font-family="Helvetica,sans-Serif" font-size="10.00">../Patterns/Pattern.h</text>
</a>
</g>
</g>
<!-- Node1&#45;&gt;Node16 -->
<g id="edge32" class="edge">
<title>Node1&#45;&gt;Node16</title>
<path fill="none" stroke="midnightblue" d="M632.37,-336.48C660.63,-328.32 694.12,-316.36 721.56,-300 743.47,-286.94 764.33,-266.11 777.48,-251.56"/>
<polygon fill="midnightblue" stroke="midnightblue" points="780.31,-253.64 784.29,-243.82 775.05,-249.02 780.31,-253.64"/>
</g>
<!-- Node17 -->
<g id="node17" class="node">
<title>Node17</title>
<g id="a_node17"><a xlink:href="Colorset_8h.html" target="_top" xlink:title=" ">
<polygon fill="none" stroke="black" points="700.06,-168.5 700.06,-187.5 809.06,-187.5 809.06,-168.5 700.06,-168.5"/>
<text text-anchor="middle" x="754.56" y="-175.5" font-family="Helvetica,sans-Serif" font-size="10.00">../Colors/Colorset.h</text>
</a>
</g>
</g>
<!-- Node1&#45;&gt;Node17 -->
<g id="edge45" class="edge">
<title>Node1&#45;&gt;Node17</title>
<path fill="none" stroke="midnightblue" d="M587.92,-336.49C610.07,-316.23 652.21,-277.51 687.56,-244 705.07,-227.41 724.86,-208.15 738.36,-194.92"/>
<polygon fill="midnightblue" stroke="midnightblue" points="740.84,-197.4 745.53,-187.9 735.94,-192.4 740.84,-197.4"/>
</g>
<!-- Node19 -->
<g id="node19" class="node">
<title>Node19</title>
<g id="a_node19"><a xlink:href="TimeControl_8h.html" target="_top" xlink:title=" ">
<polygon fill="none" stroke="black" points="103.56,-168.5 103.56,-187.5 225.56,-187.5 225.56,-168.5 103.56,-168.5"/>
<text text-anchor="middle" x="164.56" y="-175.5" font-family="Helvetica,sans-Serif" font-size="10.00">../Time/TimeControl.h</text>
</a>
</g>
</g>
<!-- Node1&#45;&gt;Node19 -->
<g id="edge41" class="edge">
<title>Node1&#45;&gt;Node19</title>
<path fill="none" stroke="midnightblue" d="M515.8,-336.41C482.33,-327.42 439.45,-314.72 402.56,-300 321.08,-267.5 230,-216.92 188.04,-192.76"/>
<polygon fill="midnightblue" stroke="midnightblue" points="189.57,-189.6 179.16,-187.61 186.06,-195.65 189.57,-189.6"/>
</g>
<!-- Node20 -->
<g id="node20" class="node">
<title>Node20</title>
<g id="a_node20"><a xlink:href="Storage_8h.html" target="_top" xlink:title=" ">
<polygon fill="none" stroke="black" points="1094.06,-280.5 1094.06,-299.5 1207.06,-299.5 1207.06,-280.5 1094.06,-280.5"/>
<text text-anchor="middle" x="1150.56" y="-287.5" font-family="Helvetica,sans-Serif" font-size="10.00">../Storage/Storage.h</text>
</a>
</g>
</g>
<!-- Node1&#45;&gt;Node20 -->
<g id="edge46" class="edge">
<title>Node1&#45;&gt;Node20</title>
<path fill="none" stroke="midnightblue" d="M639.87,-344.37C737.04,-335.4 922.23,-317.8 1079.56,-300 1081.03,-299.83 1082.51,-299.66 1084.01,-299.49"/>
<polygon fill="midnightblue" stroke="midnightblue" points="1084.48,-302.96 1094,-298.31 1083.66,-296.01 1084.48,-302.96"/>
</g>
<!-- Node21 -->
<g id="node21" class="node">
<title>Node21</title>
<g id="a_node21"><a xlink:href="Buttons_8h.html" target="_top" xlink:title=" ">
<polygon fill="none" stroke="black" points="1225.06,-280.5 1225.06,-299.5 1338.06,-299.5 1338.06,-280.5 1225.06,-280.5"/>
<text text-anchor="middle" x="1281.56" y="-287.5" font-family="Helvetica,sans-Serif" font-size="10.00">../Buttons/Buttons.h</text>
</a>
</g>
</g>
<!-- Node1&#45;&gt;Node21 -->
<g id="edge48" class="edge">
<title>Node1&#45;&gt;Node21</title>
<path fill="none" stroke="midnightblue" d="M639.9,-346.54C755.4,-339.46 998.91,-323.26 1214.62,-300.16"/>
<polygon fill="midnightblue" stroke="midnightblue" points="1215.3,-303.6 1224.87,-299.05 1214.55,-296.64 1215.3,-303.6"/>
</g>
<!-- Node23 -->
<g id="node23" class="node">
<title>Node23</title>
<g id="a_node23"><a xlink:href="Timings_8h.html" target="_top" xlink:title=" ">
<polygon fill="none" stroke="black" points="114.06,-224.5 114.06,-243.5 215.06,-243.5 215.06,-224.5 114.06,-224.5"/>
<text text-anchor="middle" x="164.56" y="-231.5" font-family="Helvetica,sans-Serif" font-size="10.00">../Time/Timings.h</text>
</a>
</g>
</g>
<!-- Node1&#45;&gt;Node23 -->
<g id="edge51" class="edge">
<title>Node1&#45;&gt;Node23</title>
<path fill="none" stroke="midnightblue" d="M505.54,-350.18C437.39,-347.6 330.08,-337.21 245.56,-300 219.43,-288.49 194.63,-266.34 179.51,-251.12"/>
<polygon fill="midnightblue" stroke="midnightblue" points="182,-248.66 172.54,-243.89 176.96,-253.52 182,-248.66"/>
</g>
<!-- Node24 -->
<g id="node24" class="node">
<title>Node24</title>
<g id="a_node24"><a xlink:href="Menus_8h.html" target="_top" xlink:title=" ">
<polygon fill="none" stroke="black" points="359.56,-224.5 359.56,-243.5 461.56,-243.5 461.56,-224.5 359.56,-224.5"/>
<text text-anchor="middle" x="410.56" y="-231.5" font-family="Helvetica,sans-Serif" font-size="10.00">../Menus/Menus.h</text>
</a>
</g>
</g>
<!-- Node1&#45;&gt;Node24 -->
<g id="edge54" class="edge">
<title>Node1&#45;&gt;Node24</title>
<path fill="none" stroke="midnightblue" d="M539.67,-336.45C520.17,-327.39 495.47,-314.59 475.56,-300 456.17,-285.78 437.08,-265.77 424.66,-251.72"/>
<polygon fill="midnightblue" stroke="midnightblue" points="427.04,-249.12 417.85,-243.85 421.74,-253.7 427.04,-249.12"/>
</g>
<!-- Node25 -->
<g id="node25" class="node">
<title>Node25</title>
<g id="a_node25"><a xlink:href="Mode_8h.html" target="_top" xlink:title=" ">
<polygon fill="none" stroke="black" points="244.06,-168.5 244.06,-187.5 341.06,-187.5 341.06,-168.5 244.06,-168.5"/>
<text text-anchor="middle" x="292.56" y="-175.5" font-family="Helvetica,sans-Serif" font-size="10.00">../Modes/Mode.h</text>
</a>
</g>
</g>
<!-- Node1&#45;&gt;Node25 -->
<g id="edge62" class="edge">
<title>Node1&#45;&gt;Node25</title>
<path fill="none" stroke="midnightblue" d="M528.7,-336.37C481.29,-319.61 405.21,-288.25 350.56,-244 333.02,-229.79 316.21,-210.05 305.25,-196.06"/>
<polygon fill="midnightblue" stroke="midnightblue" points="307.8,-193.63 298.94,-187.81 302.24,-197.88 307.8,-193.63"/>
</g>
<!-- Node2&#45;&gt;Node3 -->
<g id="edge2" class="edge">
<title>Node2&#45;&gt;Node3</title>
<path fill="none" stroke="midnightblue" d="M884.37,-283.67C835.74,-274.8 737.29,-256.84 674.54,-245.39"/>
<polygon fill="midnightblue" stroke="midnightblue" points="674.87,-241.9 664.41,-243.55 673.61,-248.78 674.87,-241.9"/>
</g>
<!-- Node4 -->
<g id="node4" class="node">
<title>Node4</title>
<g id="a_node4"><a xlink:title=" ">
<polygon fill="none" stroke="#bfbfbf" points="732.06,-56.5 732.06,-75.5 797.06,-75.5 797.06,-56.5 732.06,-56.5"/>
<text text-anchor="middle" x="764.56" y="-63.5" font-family="Helvetica,sans-Serif" font-size="10.00">inttypes.h</text>
</a>
</g>
</g>
<!-- Node2&#45;&gt;Node4 -->
<g id="edge25" class="edge">
<title>Node2&#45;&gt;Node4</title>
<path fill="none" stroke="midnightblue" d="M940.46,-280.49C1011.22,-256.79 1192.7,-186.86 1126.56,-112 1105.7,-88.38 898.37,-74.28 807.2,-69.18"/>
<polygon fill="midnightblue" stroke="midnightblue" points="807.37,-65.69 797.2,-68.63 806.99,-72.68 807.37,-65.69"/>
</g>
<!-- Node7 -->
<g id="node7" class="node">
<title>Node7</title>
<g id="a_node7"><a xlink:href="VortexConfig_8h.html" target="_top" xlink:title=" ">
<polygon fill="none" stroke="black" points="384.06,-56.5 384.06,-75.5 481.06,-75.5 481.06,-56.5 384.06,-56.5"/>
<text text-anchor="middle" x="432.56" y="-63.5" font-family="Helvetica,sans-Serif" font-size="10.00">../VortexConfig.h</text>
</a>
</g>
</g>
<!-- Node2&#45;&gt;Node7 -->
<g id="edge24" class="edge">
<title>Node2&#45;&gt;Node7</title>
<path fill="none" stroke="midnightblue" d="M912.69,-280.29C909.16,-250.38 893.07,-151.6 831.56,-112 776.64,-76.64 588.28,-68.93 491.3,-67.34"/>
<polygon fill="midnightblue" stroke="midnightblue" points="491.12,-63.84 481.07,-67.19 491.02,-70.84 491.12,-63.84"/>
</g>
<!-- Node10 -->
<g id="node10" class="node">
<title>Node10</title>
<g id="a_node10"><a xlink:href="ColorTypes_8h.html" target="_top" xlink:title=" ">
<polygon fill="none" stroke="black" points="879.56,-112.5 879.56,-131.5 1001.56,-131.5 1001.56,-112.5 879.56,-112.5"/>
<text text-anchor="middle" x="940.56" y="-119.5" font-family="Helvetica,sans-Serif" font-size="10.00">../Colors/ColorTypes.h</text>
</a>
</g>
</g>
<!-- Node2&#45;&gt;Node10 -->
<g id="edge11" class="edge">
<title>Node2&#45;&gt;Node10</title>
<path fill="none" stroke="midnightblue" d="M916.87,-280.17C920.1,-271.19 924.91,-256.82 927.56,-244 934.97,-208.26 938.3,-165.66 939.68,-141.73"/>
<polygon fill="midnightblue" stroke="midnightblue" points="943.19,-141.77 940.22,-131.6 936.2,-141.4 943.19,-141.77"/>
</g>
<!-- Node11 -->
<g id="node11" class="node">
<title>Node11</title>
<g id="a_node11"><a xlink:href="Patterns_8h.html" target="_top" xlink:title=" ">
<polygon fill="none" stroke="black" points="706.06,-112.5 706.06,-131.5 823.06,-131.5 823.06,-112.5 706.06,-112.5"/>
<text text-anchor="middle" x="764.56" y="-119.5" font-family="Helvetica,sans-Serif" font-size="10.00">../Patterns/Patterns.h</text>
</a>
</g>
</g>
<!-- Node2&#45;&gt;Node11 -->
<g id="edge15" class="edge">
<title>Node2&#45;&gt;Node11</title>
<path fill="none" stroke="midnightblue" d="M909.36,-280.22C898.88,-259.01 869.83,-204.03 833.56,-168 820.95,-155.47 804.32,-144.5 790.54,-136.52"/>
<polygon fill="midnightblue" stroke="midnightblue" points="791.99,-133.32 781.55,-131.5 788.57,-139.43 791.99,-133.32"/>
</g>
<!-- Node2&#45;&gt;Node12 -->
<g id="edge17" class="edge">
<title>Node2&#45;&gt;Node12</title>
<path fill="none" stroke="midnightblue" d="M925.02,-280.37C949.86,-261.65 1008.93,-217.15 1039.88,-193.83"/>
<polygon fill="midnightblue" stroke="midnightblue" points="1042.28,-196.4 1048.16,-187.59 1038.07,-190.81 1042.28,-196.4"/>
</g>
<!-- Node3&#45;&gt;Node4 -->
<g id="edge3" class="edge">
<title>Node3&#45;&gt;Node4</title>
<path fill="none" stroke="midnightblue" d="M623.35,-224.4C629.43,-215.36 639.22,-200.72 647.56,-188 669.6,-154.39 668.32,-140.59 696.56,-112 708.93,-99.48 725.32,-88.51 738.91,-80.53"/>
<polygon fill="midnightblue" stroke="midnightblue" points="740.81,-83.48 747.79,-75.51 737.37,-77.39 740.81,-83.48"/>
</g>
<!-- Node3&#45;&gt;Node5 -->
<g id="edge4" class="edge">
<title>Node3&#45;&gt;Node5</title>
<path fill="none" stroke="midnightblue" d="M555.79,-228.56C441.24,-220.17 198.88,-201.75 95.95,-188.02"/>
<polygon fill="midnightblue" stroke="midnightblue" points="96.24,-184.52 85.85,-186.62 95.28,-191.46 96.24,-184.52"/>
</g>
<!-- Node6 -->
<g id="node6" class="node">
<title>Node6</title>
<g id="a_node6"><a xlink:title=" ">
<polygon fill="none" stroke="#bfbfbf" points="140.56,-56.5 140.56,-75.5 196.56,-75.5 196.56,-56.5 140.56,-56.5"/>
<text text-anchor="middle" x="168.56" y="-63.5" font-family="Helvetica,sans-Serif" font-size="10.00">stdarg.h</text>
</a>
</g>
</g>
<!-- Node5&#45;&gt;Node6 -->
<g id="edge5" class="edge">
<title>Node5&#45;&gt;Node6</title>
<path fill="none" stroke="midnightblue" d="M46.22,-168.08C41.8,-154.61 35.84,-128.87 47.56,-112 66.13,-85.28 102.55,-74.4 130.61,-69.98"/>
<polygon fill="midnightblue" stroke="midnightblue" points="131.08,-73.44 140.52,-68.62 130.13,-66.51 131.08,-73.44"/>
</g>
<!-- Node5&#45;&gt;Node7 -->
<g id="edge6" class="edge">
<title>Node5&#45;&gt;Node7</title>
<path fill="none" stroke="midnightblue" d="M56.54,-168.07C68.38,-153.6 93.95,-125.32 122.56,-112 166.03,-91.76 296.7,-78.05 373.81,-71.48"/>
<polygon fill="midnightblue" stroke="midnightblue" points="374.19,-74.96 383.86,-70.64 373.61,-67.99 374.19,-74.96"/>
</g>
<!-- Node9 -->
<g id="node9" class="node">
<title>Node9</title>
<g id="a_node9"><a xlink:href="ErrorBlinker_8h.html" target="_top" xlink:title=" ">
<polygon fill="none" stroke="black" points="140.06,-112.5 140.06,-131.5 251.06,-131.5 251.06,-112.5 140.06,-112.5"/>
<text text-anchor="middle" x="195.56" y="-119.5" font-family="Helvetica,sans-Serif" font-size="10.00">../Log/ErrorBlinker.h</text>
</a>
</g>
</g>
<!-- Node5&#45;&gt;Node9 -->
<g id="edge8" class="edge">
<title>Node5&#45;&gt;Node9</title>
<path fill="none" stroke="midnightblue" d="M72.7,-168.44C97.05,-159.44 135.57,-145.19 162.99,-135.05"/>
<polygon fill="midnightblue" stroke="midnightblue" points="164.37,-138.27 172.54,-131.52 161.95,-131.7 164.37,-138.27"/>
</g>
<!-- Node8 -->
<g id="node8" class="node">
<title>Node8</title>
<g id="a_node8"><a xlink:href="ColorConstants_8h.html" target="_top" xlink:title=" ">
<polygon fill="none" stroke="black" points="615.56,-0.5 615.56,-19.5 749.56,-19.5 749.56,-0.5 615.56,-0.5"/>
<text text-anchor="middle" x="682.56" y="-7.5" font-family="Helvetica,sans-Serif" font-size="10.00">Colors/ColorConstants.h</text>
</a>
</g>
</g>
<!-- Node7&#45;&gt;Node8 -->
<g id="edge7" class="edge">
<title>Node7&#45;&gt;Node8</title>
<path fill="none" stroke="midnightblue" d="M472.18,-56.44C515.79,-47.02 585.96,-31.87 633.14,-21.68"/>
<polygon fill="midnightblue" stroke="midnightblue" points="634.1,-25.05 643.14,-19.52 632.62,-18.21 634.1,-25.05"/>
</g>
<!-- Node9&#45;&gt;Node4 -->
<g id="edge9" class="edge">
<title>Node9&#45;&gt;Node4</title>
<path fill="none" stroke="midnightblue" d="M251.33,-113.64C256.14,-113.06 260.94,-112.51 265.56,-112 434.07,-93.58 635.18,-77.13 721.62,-70.32"/>
<polygon fill="midnightblue" stroke="midnightblue" points="722.13,-73.79 731.83,-69.52 721.58,-66.81 722.13,-73.79"/>
</g>
<!-- Node9&#45;&gt;Node7 -->
<g id="edge10" class="edge">
<title>Node9&#45;&gt;Node7</title>
<path fill="none" stroke="midnightblue" d="M233.12,-112.44C274.38,-103.04 340.71,-87.93 385.43,-77.74"/>
<polygon fill="midnightblue" stroke="midnightblue" points="386.21,-81.15 395.19,-75.52 384.66,-74.33 386.21,-81.15"/>
</g>
<!-- Node10&#45;&gt;Node4 -->
<g id="edge12" class="edge">
<title>Node10&#45;&gt;Node4</title>
<path fill="none" stroke="midnightblue" d="M912.68,-112.44C882.81,-103.28 835.25,-88.69 802.11,-78.52"/>
<polygon fill="midnightblue" stroke="midnightblue" points="802.91,-75.1 792.32,-75.52 800.86,-81.8 802.91,-75.1"/>
</g>
<!-- Node10&#45;&gt;Node7 -->
<g id="edge13" class="edge">
<title>Node10&#45;&gt;Node7</title>
<path fill="none" stroke="midnightblue" d="M879.18,-113.55C874.57,-113.02 870,-112.5 865.56,-112 731.82,-97.03 574.63,-81.11 491.32,-72.81"/>
<polygon fill="midnightblue" stroke="midnightblue" points="491.59,-69.32 481.29,-71.81 490.9,-76.28 491.59,-69.32"/>
</g>
<!-- Node10&#45;&gt;Node8 -->
<g id="edge14" class="edge">
<title>Node10&#45;&gt;Node8</title>
<path fill="none" stroke="midnightblue" d="M924.18,-112.46C899.01,-99.5 849.18,-74.42 805.56,-56 776.48,-43.71 742.75,-31.51 717.98,-22.92"/>
<polygon fill="midnightblue" stroke="midnightblue" points="718.88,-19.53 708.29,-19.59 716.61,-26.15 718.88,-19.53"/>
</g>
<!-- Node11&#45;&gt;Node4 -->
<g id="edge16" class="edge">
<title>Node11&#45;&gt;Node4</title>
<path fill="none" stroke="midnightblue" d="M764.56,-112.08C764.56,-105.01 764.56,-94.86 764.56,-85.99"/>
<polygon fill="midnightblue" stroke="midnightblue" points="768.06,-85.75 764.56,-75.75 761.06,-85.75 768.06,-85.75"/>
</g>
<!-- Node12&#45;&gt;Node4 -->
<g id="edge18" class="edge">
<title>Node12&#45;&gt;Node4</title>
<path fill="none" stroke="midnightblue" d="M1074.89,-168.34C1095.47,-155.65 1127.6,-131.4 1110.56,-112 1090.83,-89.53 895.66,-74.95 807.45,-69.46"/>
<polygon fill="midnightblue" stroke="midnightblue" points="807.44,-65.95 797.25,-68.83 807.01,-72.94 807.44,-65.95"/>
</g>
<!-- Node12&#45;&gt;Node10 -->
<g id="edge19" class="edge">
<title>Node12&#45;&gt;Node10</title>
<path fill="none" stroke="midnightblue" d="M1040.71,-168.44C1021.3,-159.64 990.83,-145.81 968.6,-135.72"/>
<polygon fill="midnightblue" stroke="midnightblue" points="969.88,-132.46 959.33,-131.52 966.99,-138.84 969.88,-132.46"/>
</g>
<!-- Node13 -->
<g id="node13" class="node">
<title>Node13</title>
<g id="a_node13"><a xlink:href="LedTypes_8h.html" target="_top" xlink:title=" ">
<polygon fill="none" stroke="black" points="346.06,-112.5 346.06,-131.5 417.06,-131.5 417.06,-112.5 346.06,-112.5"/>
<text text-anchor="middle" x="381.56" y="-119.5" font-family="Helvetica,sans-Serif" font-size="10.00">LedTypes.h</text>
</a>
</g>
</g>
<!-- Node12&#45;&gt;Node13 -->
<g id="edge20" class="edge">
<title>Node12&#45;&gt;Node13</title>
<path fill="none" stroke="midnightblue" d="M1017.92,-173.68C897.98,-164.13 552.39,-136.61 427.38,-126.65"/>
<polygon fill="midnightblue" stroke="midnightblue" points="427.62,-123.16 417.37,-125.85 427.06,-130.13 427.62,-123.16"/>
</g>
<!-- Node13&#45;&gt;Node4 -->
<g id="edge21" class="edge">
<title>Node13&#45;&gt;Node4</title>
<path fill="none" stroke="midnightblue" d="M417.31,-114.37C422.1,-113.54 426.95,-112.73 431.56,-112 535.56,-95.62 658.4,-79.97 721.85,-72.16"/>
<polygon fill="midnightblue" stroke="midnightblue" points="722.38,-75.63 731.88,-70.93 721.53,-68.68 722.38,-75.63"/>
</g>
<!-- Node13&#45;&gt;Node6 -->
<g id="edge22" class="edge">
<title>Node13&#45;&gt;Node6</title>
<path fill="none" stroke="midnightblue" d="M347.81,-112.44C309.4,-102.7 246.79,-86.83 206.65,-76.66"/>
<polygon fill="midnightblue" stroke="midnightblue" points="207.27,-73.2 196.72,-74.14 205.55,-79.99 207.27,-73.2"/>
</g>
<!-- Node13&#45;&gt;Node7 -->
<g id="edge23" class="edge">
<title>Node13&#45;&gt;Node7</title>
<path fill="none" stroke="midnightblue" d="M389.99,-112.08C397.41,-104.22 408.42,-92.57 417.38,-83.08"/>
<polygon fill="midnightblue" stroke="midnightblue" points="419.98,-85.42 424.3,-75.75 414.89,-80.62 419.98,-85.42"/>
</g>
<!-- Node14&#45;&gt;Node7 -->
<g id="edge28" class="edge">
<title>Node14&#45;&gt;Node7</title>
<path fill="none" stroke="midnightblue" d="M513.66,-168.37C499.07,-150.14 464.9,-107.43 445.9,-83.68"/>
<polygon fill="midnightblue" stroke="midnightblue" points="448.42,-81.21 439.44,-75.59 442.95,-85.59 448.42,-81.21"/>
</g>
<!-- Node14&#45;&gt;Node11 -->
<g id="edge27" class="edge">
<title>Node14&#45;&gt;Node11</title>
<path fill="none" stroke="midnightblue" d="M559.23,-168.44C601.7,-159.04 670,-143.93 716.04,-133.74"/>
<polygon fill="midnightblue" stroke="midnightblue" points="717.08,-137.09 726.08,-131.52 715.56,-130.26 717.08,-137.09"/>
</g>
<!-- Node15&#45;&gt;Node4 -->
<g id="edge30" class="edge">
<title>Node15&#45;&gt;Node4</title>
<path fill="none" stroke="midnightblue" d="M593.73,-112.44C628.62,-103.16 684.46,-88.31 722.74,-78.13"/>
<polygon fill="midnightblue" stroke="midnightblue" points="723.78,-81.47 732.55,-75.52 721.99,-74.7 723.78,-81.47"/>
</g>
<!-- Node15&#45;&gt;Node7 -->
<g id="edge31" class="edge">
<title>Node15&#45;&gt;Node7</title>
<path fill="none" stroke="midnightblue" d="M541.12,-112.44C519.89,-103.56 486.47,-89.56 462.31,-79.45"/>
<polygon fill="midnightblue" stroke="midnightblue" points="463.49,-76.15 452.91,-75.52 460.78,-82.61 463.49,-76.15"/>
</g>
<!-- Node16&#45;&gt;Node11 -->
<g id="edge37" class="edge">
<title>Node16&#45;&gt;Node11</title>
<path fill="none" stroke="midnightblue" d="M799.51,-224.46C810.17,-211.92 826.75,-187.85 817.56,-168 811.64,-155.21 800.1,-144.72 789.29,-137.1"/>
<polygon fill="midnightblue" stroke="midnightblue" points="791.18,-134.16 780.9,-131.61 787.35,-140.02 791.18,-134.16"/>
</g>
<!-- Node16&#45;&gt;Node13 -->
<g id="edge33" class="edge">
<title>Node16&#45;&gt;Node13</title>
<path fill="none" stroke="midnightblue" d="M735.34,-226.88C648.44,-217.18 488.94,-198.32 464.56,-188 437.87,-176.7 412.43,-154.5 396.92,-139.21"/>
<polygon fill="midnightblue" stroke="midnightblue" points="399.27,-136.61 389.76,-131.94 394.28,-141.52 399.27,-136.61"/>
</g>
<!-- Node16&#45;&gt;Node17 -->
<g id="edge34" class="edge">
<title>Node16&#45;&gt;Node17</title>
<path fill="none" stroke="midnightblue" d="M785.45,-224.08C780.28,-216.53 772.72,-205.49 766.37,-196.23"/>
<polygon fill="midnightblue" stroke="midnightblue" points="769.1,-194.02 760.56,-187.75 763.33,-197.98 769.1,-194.02"/>
</g>
<!-- Node18 -->
<g id="node18" class="node">
<title>Node18</title>
<g id="a_node18"><a xlink:href="PatternArgs_8h.html" target="_top" xlink:title=" ">
<polygon fill="none" stroke="black" points="1019.56,-112.5 1019.56,-131.5 1101.56,-131.5 1101.56,-112.5 1019.56,-112.5"/>
<text text-anchor="middle" x="1060.56" y="-119.5" font-family="Helvetica,sans-Serif" font-size="10.00">PatternArgs.h</text>
</a>
</g>
</g>
<!-- Node16&#45;&gt;Node18 -->
<g id="edge38" class="edge">
<title>Node16&#45;&gt;Node18</title>
<path fill="none" stroke="midnightblue" d="M812.67,-224.37C860.01,-205.01 974.82,-158.06 1029.98,-135.51"/>
<polygon fill="midnightblue" stroke="midnightblue" points="1031.62,-138.62 1039.55,-131.59 1028.97,-132.14 1031.62,-138.62"/>
</g>
<!-- Node17&#45;&gt;Node7 -->
<g id="edge36" class="edge">
<title>Node17&#45;&gt;Node7</title>
<path fill="none" stroke="midnightblue" d="M739.23,-168.28C714.67,-154.62 664.65,-128.07 619.56,-112 577.3,-96.93 527.89,-85.29 490.47,-77.62"/>
<polygon fill="midnightblue" stroke="midnightblue" points="490.75,-74.1 480.25,-75.56 489.37,-80.97 490.75,-74.1"/>
</g>
<!-- Node17&#45;&gt;Node10 -->
<g id="edge35" class="edge">
<title>Node17&#45;&gt;Node10</title>
<path fill="none" stroke="midnightblue" d="M784.04,-168.44C815.74,-159.24 866.3,-144.56 901.34,-134.39"/>
<polygon fill="midnightblue" stroke="midnightblue" points="902.6,-137.67 911.23,-131.52 900.65,-130.94 902.6,-137.67"/>
</g>
<!-- Node18&#45;&gt;Node4 -->
<g id="edge39" class="edge">
<title>Node18&#45;&gt;Node4</title>
<path fill="none" stroke="midnightblue" d="M1019.41,-113.49C963.48,-103.29 863.96,-85.13 807.25,-74.79"/>
<polygon fill="midnightblue" stroke="midnightblue" points="807.64,-71.3 797.18,-72.95 806.39,-78.19 807.64,-71.3"/>
</g>
<!-- Node19&#45;&gt;Node4 -->
<g id="edge42" class="edge">
<title>Node19&#45;&gt;Node4</title>
<path fill="none" stroke="midnightblue" d="M182.66,-168.38C213.48,-154.11 278.48,-125.79 336.56,-112 474.73,-79.21 643.65,-70.3 721.5,-67.89"/>
<polygon fill="midnightblue" stroke="midnightblue" points="721.98,-71.38 731.87,-67.59 721.78,-64.38 721.98,-71.38"/>
</g>
<!-- Node19&#45;&gt;Node7 -->
<g id="edge43" class="edge">
<title>Node19&#45;&gt;Node7</title>
<path fill="none" stroke="midnightblue" d="M153.89,-168.25C139,-155 115.43,-129.56 130.56,-112 161.29,-76.36 294.63,-68.51 373.49,-67.05"/>
<polygon fill="midnightblue" stroke="midnightblue" points="373.83,-70.54 383.77,-66.89 373.72,-63.54 373.83,-70.54"/>
</g>
<!-- Node19&#45;&gt;Node13 -->
<g id="edge44" class="edge">
<title>Node19&#45;&gt;Node13</title>
<path fill="none" stroke="midnightblue" d="M198.95,-168.44C236.49,-159.1 296.7,-144.12 337.63,-133.93"/>
<polygon fill="midnightblue" stroke="midnightblue" points="338.48,-137.33 347.34,-131.52 336.79,-130.53 338.48,-137.33"/>
</g>
<!-- Node20&#45;&gt;Node4 -->
<g id="edge47" class="edge">
<title>Node20&#45;&gt;Node4</title>
<path fill="none" stroke="midnightblue" d="M1153.79,-280.19C1163.63,-251.62 1189.96,-160.55 1145.56,-112 1123.04,-87.36 902.12,-73.72 807.37,-68.96"/>
<polygon fill="midnightblue" stroke="midnightblue" points="807.42,-65.45 797.26,-68.46 807.08,-72.45 807.42,-65.45"/>
</g>
<!-- Node22 -->
<g id="node22" class="node">
<title>Node22</title>
<g id="a_node22"><a xlink:href="Button_8h.html" target="_top" xlink:title=" ">
<polygon fill="none" stroke="black" points="1242.56,-224.5 1242.56,-243.5 1300.56,-243.5 1300.56,-224.5 1242.56,-224.5"/>
<text text-anchor="middle" x="1271.56" y="-231.5" font-family="Helvetica,sans-Serif" font-size="10.00">Button.h</text>
</a>
</g>
</g>
<!-- Node21&#45;&gt;Node22 -->
<g id="edge49" class="edge">
<title>Node21&#45;&gt;Node22</title>
<path fill="none" stroke="midnightblue" d="M1279.91,-280.08C1278.59,-272.93 1276.68,-262.64 1275.03,-253.69"/>
<polygon fill="midnightblue" stroke="midnightblue" points="1278.45,-252.95 1273.18,-243.75 1271.56,-254.22 1278.45,-252.95"/>
</g>
<!-- Node22&#45;&gt;Node4 -->
<g id="edge50" class="edge">
<title>Node22&#45;&gt;Node4</title>
<path fill="none" stroke="midnightblue" d="M1270.78,-224.47C1268.18,-201.81 1257.76,-139.95 1219.56,-112 1186.71,-87.96 914.27,-73.55 807.37,-68.77"/>
<polygon fill="midnightblue" stroke="midnightblue" points="807.4,-65.27 797.26,-68.33 807.1,-72.27 807.4,-65.27"/>
</g>
<!-- Node23&#45;&gt;Node7 -->
<g id="edge53" class="edge">
<title>Node23&#45;&gt;Node7</title>
<path fill="none" stroke="midnightblue" d="M113.85,-231.08C58.42,-226.73 -19.54,-212.74 4.56,-168 26.02,-128.17 47.17,-127.79 89.56,-112 184.72,-76.56 303.8,-68.31 373.69,-66.78"/>
<polygon fill="midnightblue" stroke="midnightblue" points="374.12,-70.28 384.06,-66.6 374,-63.28 374.12,-70.28"/>
</g>
<!-- Node23&#45;&gt;Node19 -->
<g id="edge52" class="edge">
<title>Node23&#45;&gt;Node19</title>
<path fill="none" stroke="midnightblue" d="M164.56,-224.08C164.56,-217.01 164.56,-206.86 164.56,-197.99"/>
<polygon fill="midnightblue" stroke="midnightblue" points="168.06,-197.75 164.56,-187.75 161.06,-197.75 168.06,-197.75"/>
</g>
<!-- Node24&#45;&gt;Node4 -->
<g id="edge55" class="edge">
<title>Node24&#45;&gt;Node4</title>
<path fill="none" stroke="midnightblue" d="M414.4,-224.18C424.84,-201.37 456.09,-140.2 502.56,-112 538.63,-90.11 656.81,-76.54 721.42,-70.56"/>
<polygon fill="midnightblue" stroke="midnightblue" points="722.05,-74.02 731.69,-69.64 721.42,-67.05 722.05,-74.02"/>
</g>
<!-- Node24&#45;&gt;Node10 -->
<g id="edge56" class="edge">
<title>Node24&#45;&gt;Node10</title>
<path fill="none" stroke="midnightblue" d="M444.93,-224.44C497.61,-211.44 601.61,-186.32 690.56,-168 754.41,-154.85 827.88,-141.88 878.57,-133.27"/>
<polygon fill="midnightblue" stroke="midnightblue" points="879.43,-136.68 888.71,-131.56 878.26,-129.77 879.43,-136.68"/>
</g>
<!-- Node24&#45;&gt;Node13 -->
<g id="edge57" class="edge">
<title>Node24&#45;&gt;Node13</title>
<path fill="none" stroke="midnightblue" d="M406.7,-224.19C402.9,-215.23 397.15,-200.87 393.56,-188 389.27,-172.61 386.1,-154.74 384.1,-141.63"/>
<polygon fill="midnightblue" stroke="midnightblue" points="387.53,-140.92 382.64,-131.52 380.6,-141.92 387.53,-140.92"/>
</g>
<!-- Node24&#45;&gt;Node25 -->
<g id="edge58" class="edge">
<title>Node24&#45;&gt;Node25</title>
<path fill="none" stroke="midnightblue" d="M391.87,-224.44C372.62,-215.64 342.41,-201.81 320.36,-191.72"/>
<polygon fill="midnightblue" stroke="midnightblue" points="321.72,-188.5 311.17,-187.52 318.81,-194.86 321.72,-188.5"/>
</g>
<!-- Node25&#45;&gt;Node7 -->
<g id="edge61" class="edge">
<title>Node25&#45;&gt;Node7</title>
<path fill="none" stroke="midnightblue" d="M296.52,-168.33C303.11,-154.74 317.5,-128.29 336.56,-112 353.61,-97.44 376.16,-86.55 395.12,-79.13"/>
<polygon fill="midnightblue" stroke="midnightblue" points="396.52,-82.35 404.66,-75.57 394.07,-75.79 396.52,-82.35"/>
</g>
<!-- Node25&#45;&gt;Node11 -->
<g id="edge60" class="edge">
<title>Node25&#45;&gt;Node11</title>
<path fill="none" stroke="midnightblue" d="M341.3,-171.42C425.7,-161.77 599.27,-141.91 695.87,-130.86"/>
<polygon fill="midnightblue" stroke="midnightblue" points="696.29,-134.33 705.82,-129.72 695.49,-127.38 696.29,-134.33"/>
</g>
<!-- Node25&#45;&gt;Node13 -->
<g id="edge59" class="edge">
<title>Node25&#45;&gt;Node13</title>
<path fill="none" stroke="midnightblue" d="M306.86,-168.32C320.75,-159.9 342.06,-146.97 358.37,-137.07"/>
<polygon fill="midnightblue" stroke="midnightblue" points="360.57,-139.83 367.3,-131.65 356.94,-133.85 360.57,-139.83"/>
</g>
</g>
</svg>
