<?xml version="1.0" encoding="UTF-8" standalone="no"?>
<!DOCTYPE svg PUBLIC "-//W3C//DTD SVG 1.1//EN"
 "http://www.w3.org/Graphics/SVG/1.1/DTD/svg11.dtd">
<!-- Generated by graphviz version 2.43.0 (0)
 -->
<!-- Title: VortexEngine/src/Menus/MenuList/ModeSharing.cpp Pages: 1 -->
<svg width="1854pt" height="487pt"
 viewBox="0.00 0.00 1854.00 487.00" xmlns="http://www.w3.org/2000/svg" xmlns:xlink="http://www.w3.org/1999/xlink">
<g id="graph0" class="graph" transform="scale(1 1) rotate(0) translate(4 483)">
<title>VortexEngine/src/Menus/MenuList/ModeSharing.cpp</title>
<!-- Node1 -->
<g id="node1" class="node">
<title>Node1</title>
<g id="a_node1"><a xlink:title=" ">
<polygon fill="#bfbfbf" stroke="black" points="777.5,-448.5 777.5,-478.5 928.5,-478.5 928.5,-448.5 777.5,-448.5"/>
<text text-anchor="start" x="785.5" y="-466.5" font-family="Helvetica,sans-Serif" font-size="10.00">VortexEngine/src/Menus</text>
<text text-anchor="middle" x="853" y="-455.5" font-family="Helvetica,sans-Serif" font-size="10.00">/MenuList/ModeSharing.cpp</text>
</a>
</g>
</g>
<!-- Node2 -->
<g id="node2" class="node">
<title>Node2</title>
<g id="a_node2"><a xlink:href="ModeSharing_8h.html" target="_top" xlink:title=" ">
<polygon fill="none" stroke="black" points="339.5,-392.5 339.5,-411.5 428.5,-411.5 428.5,-392.5 339.5,-392.5"/>
<text text-anchor="middle" x="384" y="-399.5" font-family="Helvetica,sans-Serif" font-size="10.00">ModeSharing.h</text>
</a>
</g>
</g>
<!-- Node1&#45;&gt;Node2 -->
<g id="edge1" class="edge">
<title>Node1&#45;&gt;Node2</title>
<path fill="none" stroke="midnightblue" d="M777.35,-453.84C695.01,-444.27 559.52,-428.06 443,-412 441.7,-411.82 440.39,-411.64 439.06,-411.45"/>
<polygon fill="midnightblue" stroke="midnightblue" points="439.16,-407.93 428.76,-409.97 438.16,-414.86 439.16,-407.93"/>
</g>
<!-- Node10 -->
<g id="node10" class="node">
<title>Node10</title>
<g id="a_node10"><a xlink:href="Leds_8h.html" target="_top" xlink:title=" ">
<polygon fill="none" stroke="black" points="273.5,-168.5 273.5,-187.5 356.5,-187.5 356.5,-168.5 273.5,-168.5"/>
<text text-anchor="middle" x="315" y="-175.5" font-family="Helvetica,sans-Serif" font-size="10.00">../Leds/Leds.h</text>
</a>
</g>
</g>
<!-- Node1&#45;&gt;Node10 -->
<g id="edge92" class="edge">
<title>Node1&#45;&gt;Node10</title>
<path fill="none" stroke="midnightblue" d="M777.42,-459.66C575.38,-451.08 38,-421.27 38,-347 38,-347 38,-347 38,-289 38,-241.05 183.16,-204.88 263.32,-188.56"/>
<polygon fill="midnightblue" stroke="midnightblue" points="264.11,-191.97 273.23,-186.58 262.74,-185.11 264.11,-191.97"/>
</g>
<!-- Node12 -->
<g id="node12" class="node">
<title>Node12</title>
<g id="a_node12"><a xlink:href="Mode_8h.html" target="_top" xlink:title=" ">
<polygon fill="none" stroke="black" points="481.5,-280.5 481.5,-299.5 578.5,-299.5 578.5,-280.5 481.5,-280.5"/>
<text text-anchor="middle" x="530" y="-287.5" font-family="Helvetica,sans-Serif" font-size="10.00">../Modes/Mode.h</text>
</a>
</g>
</g>
<!-- Node1&#45;&gt;Node12 -->
<g id="edge91" class="edge">
<title>Node1&#45;&gt;Node12</title>
<path fill="none" stroke="midnightblue" d="M777.41,-451.61C712.88,-438.78 621.24,-411.67 561,-356 547.54,-343.56 539.33,-324.05 534.77,-309.64"/>
<polygon fill="midnightblue" stroke="midnightblue" points="538.08,-308.48 531.97,-299.83 531.35,-310.4 538.08,-308.48"/>
</g>
<!-- Node14 -->
<g id="node14" class="node">
<title>Node14</title>
<g id="a_node14"><a xlink:href="VortexEngine_8h.html" target="_top" xlink:title=" ">
<polygon fill="none" stroke="black" points="840,-392.5 840,-411.5 948,-411.5 948,-392.5 840,-392.5"/>
<text text-anchor="middle" x="894" y="-399.5" font-family="Helvetica,sans-Serif" font-size="10.00">../../VortexEngine.h</text>
</a>
</g>
</g>
<!-- Node1&#45;&gt;Node14 -->
<g id="edge23" class="edge">
<title>Node1&#45;&gt;Node14</title>
<path fill="none" stroke="midnightblue" d="M862.72,-448.4C868.55,-439.93 876.02,-429.1 882.19,-420.14"/>
<polygon fill="midnightblue" stroke="midnightblue" points="885.24,-421.88 888.03,-411.66 879.48,-417.91 885.24,-421.88"/>
</g>
<!-- Node16 -->
<g id="node16" class="node">
<title>Node16</title>
<g id="a_node16"><a xlink:href="IRReceiver_8h.html" target="_top" xlink:title=" ">
<polygon fill="none" stroke="black" points="1462,-336.5 1462,-355.5 1584,-355.5 1584,-336.5 1462,-336.5"/>
<text text-anchor="middle" x="1523" y="-343.5" font-family="Helvetica,sans-Serif" font-size="10.00">Wireless/IRReceiver.h</text>
</a>
</g>
</g>
<!-- Node1&#45;&gt;Node16 -->
<g id="edge86" class="edge">
<title>Node1&#45;&gt;Node16</title>
<path fill="none" stroke="midnightblue" d="M928.8,-460.47C1026.07,-456.55 1199.5,-445.13 1344,-412 1398.85,-399.42 1459.89,-374.84 1494.64,-359.77"/>
<polygon fill="midnightblue" stroke="midnightblue" points="1496.38,-362.83 1504.13,-355.61 1493.57,-356.42 1496.38,-362.83"/>
</g>
<!-- Node19 -->
<g id="node19" class="node">
<title>Node19</title>
<g id="a_node19"><a xlink:href="IRSender_8h.html" target="_top" xlink:title=" ">
<polygon fill="none" stroke="black" points="1330.5,-336.5 1330.5,-355.5 1443.5,-355.5 1443.5,-336.5 1330.5,-336.5"/>
<text text-anchor="middle" x="1387" y="-343.5" font-family="Helvetica,sans-Serif" font-size="10.00">Wireless/IRSender.h</text>
</a>
</g>
</g>
<!-- Node1&#45;&gt;Node19 -->
<g id="edge88" class="edge">
<title>Node1&#45;&gt;Node19</title>
<path fill="none" stroke="midnightblue" d="M928.96,-459.92C1042.1,-455.13 1248.78,-442.42 1316,-412 1339.93,-401.17 1361.23,-379.14 1374.12,-363.74"/>
<polygon fill="midnightblue" stroke="midnightblue" points="1377.15,-365.57 1380.69,-355.58 1371.7,-361.18 1377.15,-365.57"/>
</g>
<!-- Node20 -->
<g id="node20" class="node">
<title>Node20</title>
<g id="a_node20"><a xlink:href="ByteStream_8h.html" target="_top" xlink:title=" ">
<polygon fill="none" stroke="black" points="1235.5,-224.5 1235.5,-243.5 1358.5,-243.5 1358.5,-224.5 1235.5,-224.5"/>
<text text-anchor="middle" x="1297" y="-231.5" font-family="Helvetica,sans-Serif" font-size="10.00">../Serial/ByteStream.h</text>
</a>
</g>
</g>
<!-- Node1&#45;&gt;Node20 -->
<g id="edge82" class="edge">
<title>Node1&#45;&gt;Node20</title>
<path fill="none" stroke="midnightblue" d="M928.88,-454.06C1039.48,-440.12 1236.83,-408.47 1283,-356 1307.95,-327.65 1304.9,-279.97 1300.78,-253.73"/>
<polygon fill="midnightblue" stroke="midnightblue" points="1304.18,-252.84 1298.96,-243.62 1297.29,-254.08 1304.18,-252.84"/>
</g>
<!-- Node21 -->
<g id="node21" class="node">
<title>Node21</title>
<g id="a_node21"><a xlink:href="Log_8h.html" target="_top" xlink:title=" ">
<polygon fill="none" stroke="black" points="783,-168.5 783,-187.5 855,-187.5 855,-168.5 783,-168.5"/>
<text text-anchor="middle" x="819" y="-175.5" font-family="Helvetica,sans-Serif" font-size="10.00">../Log/Log.h</text>
</a>
</g>
</g>
<!-- Node1&#45;&gt;Node21 -->
<g id="edge93" class="edge">
<title>Node1&#45;&gt;Node21</title>
<path fill="none" stroke="midnightblue" d="M838.77,-448.48C813.22,-422.19 760.45,-362.49 741,-300 727.73,-257.36 770.97,-215.3 798.31,-193.78"/>
<polygon fill="midnightblue" stroke="midnightblue" points="800.69,-196.37 806.54,-187.54 796.46,-190.8 800.69,-196.37"/>
</g>
<!-- Node25 -->
<g id="node25" class="node">
<title>Node25</title>
<g id="a_node25"><a xlink:href="VLSender_8h.html" target="_top" xlink:title=" ">
<polygon fill="none" stroke="black" points="1158,-336.5 1158,-355.5 1274,-355.5 1274,-336.5 1158,-336.5"/>
<text text-anchor="middle" x="1216" y="-343.5" font-family="Helvetica,sans-Serif" font-size="10.00">Wireless/VLSender.h</text>
</a>
</g>
</g>
<!-- Node1&#45;&gt;Node25 -->
<g id="edge87" class="edge">
<title>Node1&#45;&gt;Node25</title>
<path fill="none" stroke="midnightblue" d="M897.15,-448.45C969.58,-425.41 1112.27,-380 1179.43,-358.64"/>
<polygon fill="midnightblue" stroke="midnightblue" points="1180.68,-361.91 1189.15,-355.54 1178.56,-355.24 1180.68,-361.91"/>
</g>
<!-- Node28 -->
<g id="node28" class="node">
<title>Node28</title>
<g id="a_node28"><a xlink:href="Button_8h.html" target="_top" xlink:title=" ">
<polygon fill="none" stroke="black" points="1625,-280.5 1625,-299.5 1683,-299.5 1683,-280.5 1625,-280.5"/>
<text text-anchor="middle" x="1654" y="-287.5" font-family="Helvetica,sans-Serif" font-size="10.00">Button.h</text>
</a>
</g>
</g>
<!-- Node1&#45;&gt;Node28 -->
<g id="edge89" class="edge">
<title>Node1&#45;&gt;Node28</title>
<path fill="none" stroke="midnightblue" d="M928.67,-458.92C1129.58,-448.64 1664.6,-415.82 1715,-356 1730.6,-337.48 1704.35,-317.32 1681.58,-304.44"/>
<polygon fill="midnightblue" stroke="midnightblue" points="1682.95,-301.21 1672.48,-299.56 1679.63,-307.37 1682.95,-301.21"/>
</g>
<!-- Node29 -->
<g id="node29" class="node">
<title>Node29</title>
<g id="a_node29"><a xlink:href="TimeControl_8h.html" target="_top" xlink:title=" ">
<polygon fill="none" stroke="black" points="311.5,-280.5 311.5,-299.5 424.5,-299.5 424.5,-280.5 311.5,-280.5"/>
<text text-anchor="middle" x="368" y="-287.5" font-family="Helvetica,sans-Serif" font-size="10.00">Time/TimeControl.h</text>
</a>
</g>
</g>
<!-- Node1&#45;&gt;Node29 -->
<g id="edge84" class="edge">
<title>Node1&#45;&gt;Node29</title>
<path fill="none" stroke="midnightblue" d="M777.45,-451.2C728.91,-442.86 664.91,-429.86 610,-412 552.5,-393.29 540.08,-383.05 486,-356 452.72,-339.35 415.24,-318.3 391.62,-304.74"/>
<polygon fill="midnightblue" stroke="midnightblue" points="393.11,-301.56 382.7,-299.59 389.62,-307.62 393.11,-301.56"/>
</g>
<!-- Node30 -->
<g id="node30" class="node">
<title>Node30</title>
<g id="a_node30"><a xlink:href="Timings_8h.html" target="_top" xlink:title=" ">
<polygon fill="none" stroke="black" points="66,-336.5 66,-355.5 158,-355.5 158,-336.5 66,-336.5"/>
<text text-anchor="middle" x="112" y="-343.5" font-family="Helvetica,sans-Serif" font-size="10.00">Time/Timings.h</text>
</a>
</g>
</g>
<!-- Node1&#45;&gt;Node30 -->
<g id="edge85" class="edge">
<title>Node1&#45;&gt;Node30</title>
<path fill="none" stroke="midnightblue" d="M777.14,-459.73C674.96,-454.96 487.84,-442.57 331,-412 263.61,-398.87 187.21,-373.77 144.81,-358.9"/>
<polygon fill="midnightblue" stroke="midnightblue" points="145.88,-355.56 135.29,-355.53 143.55,-362.16 145.88,-355.56"/>
</g>
<!-- Node31 -->
<g id="node31" class="node">
<title>Node31</title>
<g id="a_node31"><a xlink:href="Serial_8h.html" target="_top" xlink:title=" ">
<polygon fill="none" stroke="black" points="1762,-336.5 1762,-355.5 1846,-355.5 1846,-336.5 1762,-336.5"/>
<text text-anchor="middle" x="1804" y="-343.5" font-family="Helvetica,sans-Serif" font-size="10.00">Serial/Serial.h</text>
</a>
</g>
</g>
<!-- Node1&#45;&gt;Node31 -->
<g id="edge83" class="edge">
<title>Node1&#45;&gt;Node31</title>
<path fill="none" stroke="midnightblue" d="M928.67,-461.6C1131.25,-458.73 1675.5,-447.74 1748,-412 1768.8,-401.75 1785.01,-379.92 1794.52,-364.4"/>
<polygon fill="midnightblue" stroke="midnightblue" points="1797.58,-366.11 1799.56,-355.7 1791.52,-362.6 1797.58,-366.11"/>
</g>
<!-- Node32 -->
<g id="node32" class="node">
<title>Node32</title>
<g id="a_node32"><a xlink:href="Modes_8h.html" target="_top" xlink:title=" ">
<polygon fill="none" stroke="black" points="749.5,-280.5 749.5,-299.5 842.5,-299.5 842.5,-280.5 749.5,-280.5"/>
<text text-anchor="middle" x="796" y="-287.5" font-family="Helvetica,sans-Serif" font-size="10.00">Modes/Modes.h</text>
</a>
</g>
</g>
<!-- Node1&#45;&gt;Node32 -->
<g id="edge90" class="edge">
<title>Node1&#45;&gt;Node32</title>
<path fill="none" stroke="midnightblue" d="M846.14,-448.12C841.52,-438.12 835.48,-424.41 831,-412 818.12,-376.31 806.62,-333.41 800.55,-309.47"/>
<polygon fill="midnightblue" stroke="midnightblue" points="803.91,-308.48 798.09,-299.63 797.12,-310.18 803.91,-308.48"/>
</g>
<!-- Node3 -->
<g id="node3" class="node">
<title>Node3</title>
<g id="a_node3"><a xlink:href="Menu_8h.html" target="_top" xlink:title=" ">
<polygon fill="none" stroke="black" points="353,-336.5 353,-355.5 415,-355.5 415,-336.5 353,-336.5"/>
<text text-anchor="middle" x="384" y="-343.5" font-family="Helvetica,sans-Serif" font-size="10.00">../Menu.h</text>
</a>
</g>
</g>
<!-- Node2&#45;&gt;Node3 -->
<g id="edge2" class="edge">
<title>Node2&#45;&gt;Node3</title>
<path fill="none" stroke="midnightblue" d="M384,-392.08C384,-385.01 384,-374.86 384,-365.99"/>
<polygon fill="midnightblue" stroke="midnightblue" points="387.5,-365.75 384,-355.75 380.5,-365.75 387.5,-365.75"/>
</g>
<!-- Node4 -->
<g id="node4" class="node">
<title>Node4</title>
<g id="a_node4"><a xlink:title=" ">
<polygon fill="none" stroke="#bfbfbf" points="1002.5,-56.5 1002.5,-75.5 1067.5,-75.5 1067.5,-56.5 1002.5,-56.5"/>
<text text-anchor="middle" x="1035" y="-63.5" font-family="Helvetica,sans-Serif" font-size="10.00">inttypes.h</text>
</a>
</g>
</g>
<!-- Node3&#45;&gt;Node4 -->
<g id="edge3" class="edge">
<title>Node3&#45;&gt;Node4</title>
<path fill="none" stroke="midnightblue" d="M393.81,-336.45C409.61,-323.01 442.04,-296.76 473,-280 636.39,-191.52 690.27,-197.9 864,-132 912.51,-113.6 968.75,-92.21 1003.09,-79.14"/>
<polygon fill="midnightblue" stroke="midnightblue" points="1004.49,-82.36 1012.6,-75.53 1002,-75.81 1004.49,-82.36"/>
</g>
<!-- Node5 -->
<g id="node5" class="node">
<title>Node5</title>
<g id="a_node5"><a xlink:href="ColorTypes_8h.html" target="_top" xlink:title=" ">
<polygon fill="none" stroke="black" points="415,-112.5 415,-131.5 537,-131.5 537,-112.5 415,-112.5"/>
<text text-anchor="middle" x="476" y="-119.5" font-family="Helvetica,sans-Serif" font-size="10.00">../Colors/ColorTypes.h</text>
</a>
</g>
</g>
<!-- Node3&#45;&gt;Node5 -->
<g id="edge4" class="edge">
<title>Node3&#45;&gt;Node5</title>
<path fill="none" stroke="midnightblue" d="M357.71,-336.48C338.51,-329.2 312.83,-317.18 295,-300 268.73,-274.69 242.93,-253.78 264,-224 291.77,-184.76 322.43,-208.32 366,-188 398.19,-172.98 433.15,-151.32 454.82,-137.2"/>
<polygon fill="midnightblue" stroke="midnightblue" points="456.81,-140.08 463.24,-131.66 452.96,-134.23 456.81,-140.08"/>
</g>
<!-- Node8 -->
<g id="node8" class="node">
<title>Node8</title>
<g id="a_node8"><a xlink:href="LedTypes_8h.html" target="_top" xlink:title=" ">
<polygon fill="none" stroke="black" points="273.5,-224.5 273.5,-243.5 378.5,-243.5 378.5,-224.5 273.5,-224.5"/>
<text text-anchor="middle" x="326" y="-231.5" font-family="Helvetica,sans-Serif" font-size="10.00">../Leds/LedTypes.h</text>
</a>
</g>
</g>
<!-- Node3&#45;&gt;Node8 -->
<g id="edge9" class="edge">
<title>Node3&#45;&gt;Node8</title>
<path fill="none" stroke="midnightblue" d="M352.61,-336.54C334.38,-329.83 312.92,-318.45 302,-300 292.95,-284.71 302.33,-265.44 311.88,-251.86"/>
<polygon fill="midnightblue" stroke="midnightblue" points="314.7,-253.93 317.99,-243.86 309.14,-249.68 314.7,-253.93"/>
</g>
<!-- Node3&#45;&gt;Node12 -->
<g id="edge18" class="edge">
<title>Node3&#45;&gt;Node12</title>
<path fill="none" stroke="midnightblue" d="M407.13,-336.44C431.48,-327.44 470.01,-313.19 497.42,-303.05"/>
<polygon fill="midnightblue" stroke="midnightblue" points="498.81,-306.27 506.97,-299.52 496.38,-299.7 498.81,-306.27"/>
</g>
<!-- Node5&#45;&gt;Node4 -->
<g id="edge5" class="edge">
<title>Node5&#45;&gt;Node4</title>
<path fill="none" stroke="midnightblue" d="M537.38,-113.5C541.99,-112.98 546.57,-112.47 551,-112 713.92,-94.65 908.11,-77.74 992.43,-70.57"/>
<polygon fill="midnightblue" stroke="midnightblue" points="992.73,-74.06 1002.4,-69.73 992.14,-67.09 992.73,-74.06"/>
</g>
<!-- Node6 -->
<g id="node6" class="node">
<title>Node6</title>
<g id="a_node6"><a xlink:href="VortexConfig_8h.html" target="_top" xlink:title=" ">
<polygon fill="none" stroke="black" points="215.5,-56.5 215.5,-75.5 312.5,-75.5 312.5,-56.5 215.5,-56.5"/>
<text text-anchor="middle" x="264" y="-63.5" font-family="Helvetica,sans-Serif" font-size="10.00">../VortexConfig.h</text>
</a>
</g>
</g>
<!-- Node5&#45;&gt;Node6 -->
<g id="edge6" class="edge">
<title>Node5&#45;&gt;Node6</title>
<path fill="none" stroke="midnightblue" d="M442.41,-112.44C405.81,-103.12 347.16,-88.18 307.17,-78"/>
<polygon fill="midnightblue" stroke="midnightblue" points="307.99,-74.59 297.43,-75.52 306.26,-81.38 307.99,-74.59"/>
</g>
<!-- Node7 -->
<g id="node7" class="node">
<title>Node7</title>
<g id="a_node7"><a xlink:href="ColorConstants_8h.html" target="_top" xlink:title=" ">
<polygon fill="none" stroke="black" points="235,-0.5 235,-19.5 369,-19.5 369,-0.5 235,-0.5"/>
<text text-anchor="middle" x="302" y="-7.5" font-family="Helvetica,sans-Serif" font-size="10.00">Colors/ColorConstants.h</text>
</a>
</g>
</g>
<!-- Node5&#45;&gt;Node7 -->
<g id="edge8" class="edge">
<title>Node5&#45;&gt;Node7</title>
<path fill="none" stroke="midnightblue" d="M462.35,-112.37C432.36,-93.41 360.53,-48 324.05,-24.94"/>
<polygon fill="midnightblue" stroke="midnightblue" points="325.91,-21.98 315.59,-19.59 322.17,-27.89 325.91,-21.98"/>
</g>
<!-- Node6&#45;&gt;Node7 -->
<g id="edge7" class="edge">
<title>Node6&#45;&gt;Node7</title>
<path fill="none" stroke="midnightblue" d="M270.27,-56.08C275.64,-48.46 283.52,-37.26 290.08,-27.94"/>
<polygon fill="midnightblue" stroke="midnightblue" points="292.95,-29.94 295.84,-19.75 287.22,-25.91 292.95,-29.94"/>
</g>
<!-- Node8&#45;&gt;Node4 -->
<g id="edge10" class="edge">
<title>Node8&#45;&gt;Node4</title>
<path fill="none" stroke="midnightblue" d="M345.59,-224.43C384.23,-207.44 472.85,-168.01 546,-132 563.12,-123.57 565.72,-117.49 584,-112 659.8,-89.22 894.97,-74.45 992.23,-69.17"/>
<polygon fill="midnightblue" stroke="midnightblue" points="992.5,-72.66 1002.3,-68.63 992.12,-65.67 992.5,-72.66"/>
</g>
<!-- Node8&#45;&gt;Node6 -->
<g id="edge17" class="edge">
<title>Node8&#45;&gt;Node6</title>
<path fill="none" stroke="midnightblue" d="M284.95,-224.38C265.04,-217.92 242.91,-206.81 231,-188 212.94,-159.46 220.49,-144.1 231,-112 234.49,-101.34 241.57,-91.12 248.29,-83.12"/>
<polygon fill="midnightblue" stroke="midnightblue" points="250.9,-85.44 254.98,-75.66 245.7,-80.76 250.9,-85.44"/>
</g>
<!-- Node9 -->
<g id="node9" class="node">
<title>Node9</title>
<g id="a_node9"><a xlink:title=" ">
<polygon fill="none" stroke="#bfbfbf" points="593,-112.5 593,-131.5 649,-131.5 649,-112.5 593,-112.5"/>
<text text-anchor="middle" x="621" y="-119.5" font-family="Helvetica,sans-Serif" font-size="10.00">stdarg.h</text>
</a>
</g>
</g>
<!-- Node8&#45;&gt;Node9 -->
<g id="edge11" class="edge">
<title>Node8&#45;&gt;Node9</title>
<path fill="none" stroke="midnightblue" d="M378.68,-228.59C442.92,-222.36 546.91,-209.33 579,-188 595.91,-176.76 607.49,-156.14 614.14,-141.13"/>
<polygon fill="midnightblue" stroke="midnightblue" points="617.41,-142.4 617.96,-131.82 610.93,-139.74 617.41,-142.4"/>
</g>
<!-- Node8&#45;&gt;Node10 -->
<g id="edge12" class="edge">
<title>Node8&#45;&gt;Node10</title>
<path fill="none" stroke="midnightblue" d="M324.18,-224.08C322.73,-216.93 320.63,-206.64 318.81,-197.69"/>
<polygon fill="midnightblue" stroke="midnightblue" points="322.21,-196.85 316.78,-187.75 315.35,-198.25 322.21,-196.85"/>
</g>
<!-- Node10&#45;&gt;Node4 -->
<g id="edge13" class="edge">
<title>Node10&#45;&gt;Node4</title>
<path fill="none" stroke="midnightblue" d="M325.62,-168.28C345.6,-152.07 388.37,-118.35 406,-112 514.21,-73.01 868.55,-67.71 992.07,-67.06"/>
<polygon fill="midnightblue" stroke="midnightblue" points="992.29,-70.56 1002.27,-67.02 992.25,-63.56 992.29,-70.56"/>
</g>
<!-- Node10&#45;&gt;Node5 -->
<g id="edge14" class="edge">
<title>Node10&#45;&gt;Node5</title>
<path fill="none" stroke="midnightblue" d="M340.51,-168.44C367.6,-159.36 410.59,-144.94 440.87,-134.78"/>
<polygon fill="midnightblue" stroke="midnightblue" points="442.24,-138.01 450.61,-131.52 440.01,-131.38 442.24,-138.01"/>
</g>
<!-- Node10&#45;&gt;Node6 -->
<g id="edge15" class="edge">
<title>Node10&#45;&gt;Node6</title>
<path fill="none" stroke="midnightblue" d="M311,-168.37C302.69,-150.46 283.44,-108.92 272.32,-84.95"/>
<polygon fill="midnightblue" stroke="midnightblue" points="275.36,-83.19 267.98,-75.59 269.01,-86.14 275.36,-83.19"/>
</g>
<!-- Node11 -->
<g id="node11" class="node">
<title>Node11</title>
<g id="a_node11"><a xlink:title=" ">
<polygon fill="none" stroke="#bfbfbf" points="311.5,-112.5 311.5,-131.5 358.5,-131.5 358.5,-112.5 311.5,-112.5"/>
<text text-anchor="middle" x="335" y="-119.5" font-family="Helvetica,sans-Serif" font-size="10.00">vector</text>
</a>
</g>
</g>
<!-- Node10&#45;&gt;Node11 -->
<g id="edge16" class="edge">
<title>Node10&#45;&gt;Node11</title>
<path fill="none" stroke="midnightblue" d="M318.3,-168.08C320.98,-160.85 324.85,-150.41 328.19,-141.4"/>
<polygon fill="midnightblue" stroke="midnightblue" points="331.57,-142.34 331.76,-131.75 325,-139.91 331.57,-142.34"/>
</g>
<!-- Node12&#45;&gt;Node6 -->
<g id="edge22" class="edge">
<title>Node12&#45;&gt;Node6</title>
<path fill="none" stroke="midnightblue" d="M481.29,-284.86C414.9,-278.53 300.11,-264.94 264,-244 210.62,-213.06 196.51,-168.63 221,-112 225.99,-100.46 235.33,-90.11 244.03,-82.26"/>
<polygon fill="midnightblue" stroke="midnightblue" points="246.32,-84.91 251.7,-75.78 241.8,-79.56 246.32,-84.91"/>
</g>
<!-- Node12&#45;&gt;Node8 -->
<g id="edge19" class="edge">
<title>Node12&#45;&gt;Node8</title>
<path fill="none" stroke="midnightblue" d="M497.68,-280.44C462.61,-271.16 406.5,-256.31 368.04,-246.13"/>
<polygon fill="midnightblue" stroke="midnightblue" points="368.74,-242.69 358.17,-243.52 366.94,-249.46 368.74,-242.69"/>
</g>
<!-- Node13 -->
<g id="node13" class="node">
<title>Node13</title>
<g id="a_node13"><a xlink:href="Patterns_8h.html" target="_top" xlink:title=" ">
<polygon fill="none" stroke="black" points="880.5,-224.5 880.5,-243.5 997.5,-243.5 997.5,-224.5 880.5,-224.5"/>
<text text-anchor="middle" x="939" y="-231.5" font-family="Helvetica,sans-Serif" font-size="10.00">../Patterns/Patterns.h</text>
</a>
</g>
</g>
<!-- Node12&#45;&gt;Node13 -->
<g id="edge20" class="edge">
<title>Node12&#45;&gt;Node13</title>
<path fill="none" stroke="midnightblue" d="M578.52,-282.59C650.94,-273.03 787.6,-254.99 870.27,-244.07"/>
<polygon fill="midnightblue" stroke="midnightblue" points="870.86,-247.53 880.32,-242.75 869.95,-240.59 870.86,-247.53"/>
</g>
<!-- Node13&#45;&gt;Node4 -->
<g id="edge21" class="edge">
<title>Node13&#45;&gt;Node4</title>
<path fill="none" stroke="midnightblue" d="M945.65,-224.47C952.6,-215.49 963.76,-200.9 973,-188 990.52,-163.55 997.25,-158.75 1011,-132 1018.74,-116.96 1025.21,-98.83 1029.48,-85.54"/>
<polygon fill="midnightblue" stroke="midnightblue" points="1032.92,-86.28 1032.53,-75.69 1026.23,-84.21 1032.92,-86.28"/>
</g>
<!-- Node14&#45;&gt;Node4 -->
<g id="edge24" class="edge">
<title>Node14&#45;&gt;Node4</title>
<path fill="none" stroke="midnightblue" d="M948.44,-394.68C993.18,-388.33 1057.65,-376.46 1111,-356 1116.76,-353.79 1203.92,-305.35 1207,-300 1252.95,-220 1186.38,-175.02 1119,-112 1104.25,-98.21 1084.48,-87.34 1067.82,-79.74"/>
<polygon fill="midnightblue" stroke="midnightblue" points="1068.99,-76.43 1058.43,-75.65 1066.2,-82.85 1068.99,-76.43"/>
</g>
<!-- Node14&#45;&gt;Node6 -->
<g id="edge25" class="edge">
<title>Node14&#45;&gt;Node6</title>
<path fill="none" stroke="midnightblue" d="M839.95,-400.5C712.93,-398.76 398.71,-390.95 300,-356 217.49,-326.79 187.21,-316.39 138,-244 123.64,-222.87 127.91,-213.38 125,-188 121.08,-153.79 116.73,-137.37 140,-112 157,-93.47 182.23,-82.55 205.5,-76.13"/>
<polygon fill="midnightblue" stroke="midnightblue" points="206.49,-79.49 215.33,-73.65 204.78,-72.71 206.49,-79.49"/>
</g>
<!-- Node14&#45;&gt;Node10 -->
<g id="edge80" class="edge">
<title>Node14&#45;&gt;Node10</title>
<path fill="none" stroke="midnightblue" d="M839.84,-400.44C719.52,-398.56 433.5,-390.51 344,-356 284.16,-332.93 262.93,-307.36 253,-244 251.62,-235.22 248.96,-231.92 253,-224 260,-210.27 273.37,-199.75 285.9,-192.35"/>
<polygon fill="midnightblue" stroke="midnightblue" points="287.67,-195.37 294.78,-187.51 284.32,-189.22 287.67,-195.37"/>
</g>
<!-- Node14&#45;&gt;Node12 -->
<g id="edge79" class="edge">
<title>Node14&#45;&gt;Node12</title>
<path fill="none" stroke="midnightblue" d="M839.7,-397.23C764.51,-391.28 633.17,-378.08 591,-356 569.88,-344.94 552.09,-323.66 541.27,-308.46"/>
<polygon fill="midnightblue" stroke="midnightblue" points="543.99,-306.23 535.47,-299.93 538.2,-310.16 543.99,-306.23"/>
</g>
<!-- Node15 -->
<g id="node15" class="node">
<title>Node15</title>
<g id="a_node15"><a xlink:href="PatternBuilder_8h.html" target="_top" xlink:title=" ">
<polygon fill="none" stroke="black" points="860.5,-280.5 860.5,-299.5 997.5,-299.5 997.5,-280.5 860.5,-280.5"/>
<text text-anchor="middle" x="929" y="-287.5" font-family="Helvetica,sans-Serif" font-size="10.00">Patterns/PatternBuilder.h</text>
</a>
</g>
</g>
<!-- Node14&#45;&gt;Node15 -->
<g id="edge26" class="edge">
<title>Node14&#45;&gt;Node15</title>
<path fill="none" stroke="midnightblue" d="M892.67,-392.3C891.08,-379.54 889.38,-355.21 896,-336 899.65,-325.39 906.75,-315.18 913.43,-307.17"/>
<polygon fill="midnightblue" stroke="midnightblue" points="916.05,-309.49 920.08,-299.69 910.82,-304.84 916.05,-309.49"/>
</g>
<!-- Node14&#45;&gt;Node16 -->
<g id="edge28" class="edge">
<title>Node14&#45;&gt;Node16</title>
<path fill="none" stroke="midnightblue" d="M948.04,-397.51C1046.2,-390.98 1260.56,-375.85 1451.97,-356.06"/>
<polygon fill="midnightblue" stroke="midnightblue" points="1452.35,-359.54 1461.94,-355.02 1451.63,-352.58 1452.35,-359.54"/>
</g>
<!-- Node14&#45;&gt;Node19 -->
<g id="edge33" class="edge">
<title>Node14&#45;&gt;Node19</title>
<path fill="none" stroke="midnightblue" d="M948.17,-395.07C1039.01,-385.12 1221.75,-365.1 1320.33,-354.3"/>
<polygon fill="midnightblue" stroke="midnightblue" points="1320.91,-357.76 1330.47,-353.19 1320.15,-350.8 1320.91,-357.76"/>
</g>
<!-- Node14&#45;&gt;Node21 -->
<g id="edge81" class="edge">
<title>Node14&#45;&gt;Node21</title>
<path fill="none" stroke="midnightblue" d="M897.43,-392.36C903.2,-378.81 915.97,-352.42 934,-336 960.75,-311.64 987.9,-330.72 1007,-300 1024.84,-271.32 1027.92,-250.52 1007,-224 989.68,-202.05 915.24,-189.61 865.39,-183.6"/>
<polygon fill="midnightblue" stroke="midnightblue" points="865.49,-180.08 855.16,-182.41 864.69,-187.04 865.49,-180.08"/>
</g>
<!-- Node23 -->
<g id="node23" class="node">
<title>Node23</title>
<g id="a_node23"><a xlink:href="VLReceiver_8h.html" target="_top" xlink:title=" ">
<polygon fill="none" stroke="black" points="976.5,-336.5 976.5,-355.5 1101.5,-355.5 1101.5,-336.5 976.5,-336.5"/>
<text text-anchor="middle" x="1039" y="-343.5" font-family="Helvetica,sans-Serif" font-size="10.00">Wireless/VLReceiver.h</text>
</a>
</g>
</g>
<!-- Node14&#45;&gt;Node23 -->
<g id="edge44" class="edge">
<title>Node14&#45;&gt;Node23</title>
<path fill="none" stroke="midnightblue" d="M916.98,-392.44C941.16,-383.44 979.42,-369.19 1006.65,-359.05"/>
<polygon fill="midnightblue" stroke="midnightblue" points="1007.98,-362.29 1016.13,-355.52 1005.54,-355.73 1007.98,-362.29"/>
</g>
<!-- Node14&#45;&gt;Node25 -->
<g id="edge49" class="edge">
<title>Node14&#45;&gt;Node25</title>
<path fill="none" stroke="midnightblue" d="M945.02,-392.44C1002.02,-382.89 1094.24,-367.42 1155,-357.23"/>
<polygon fill="midnightblue" stroke="midnightblue" points="1155.93,-360.62 1165.22,-355.52 1154.78,-353.72 1155.93,-360.62"/>
</g>
<!-- Node26 -->
<g id="node26" class="node">
<title>Node26</title>
<g id="a_node26"><a xlink:href="Storage_8h.html" target="_top" xlink:title=" ">
<polygon fill="none" stroke="black" points="1025,-168.5 1025,-187.5 1129,-187.5 1129,-168.5 1025,-168.5"/>
<text text-anchor="middle" x="1077" y="-175.5" font-family="Helvetica,sans-Serif" font-size="10.00">Storage/Storage.h</text>
</a>
</g>
</g>
<!-- Node14&#45;&gt;Node26 -->
<g id="edge53" class="edge">
<title>Node14&#45;&gt;Node26</title>
<path fill="none" stroke="midnightblue" d="M902.71,-392.49C916.15,-379.57 943,-354.54 968,-336 992.37,-317.93 1006.29,-323.07 1026,-300 1052.32,-269.2 1066.67,-222.86 1072.99,-197.39"/>
<polygon fill="midnightblue" stroke="midnightblue" points="1076.42,-198.11 1075.28,-187.57 1069.6,-196.52 1076.42,-198.11"/>
</g>
<!-- Node27 -->
<g id="node27" class="node">
<title>Node27</title>
<g id="a_node27"><a xlink:href="Buttons_8h.html" target="_top" xlink:title=" ">
<polygon fill="none" stroke="black" points="1602,-336.5 1602,-355.5 1706,-355.5 1706,-336.5 1602,-336.5"/>
<text text-anchor="middle" x="1654" y="-343.5" font-family="Helvetica,sans-Serif" font-size="10.00">Buttons/Buttons.h</text>
</a>
</g>
</g>
<!-- Node14&#45;&gt;Node27 -->
<g id="edge55" class="edge">
<title>Node14&#45;&gt;Node27</title>
<path fill="none" stroke="midnightblue" d="M948.06,-399.03C1064.02,-394.49 1345.42,-381.72 1591.58,-356.07"/>
<polygon fill="midnightblue" stroke="midnightblue" points="1592.21,-359.52 1601.79,-354.99 1591.48,-352.56 1592.21,-359.52"/>
</g>
<!-- Node14&#45;&gt;Node29 -->
<g id="edge58" class="edge">
<title>Node14&#45;&gt;Node29</title>
<path fill="none" stroke="midnightblue" d="M839.79,-396.87C773.41,-391.08 657.86,-378.64 561,-356 502.22,-342.26 435.99,-317.93 398.4,-303.25"/>
<polygon fill="midnightblue" stroke="midnightblue" points="399.62,-299.97 389.04,-299.57 397.06,-306.49 399.62,-299.97"/>
</g>
<!-- Node14&#45;&gt;Node30 -->
<g id="edge62" class="edge">
<title>Node14&#45;&gt;Node30</title>
<path fill="none" stroke="midnightblue" d="M839.98,-399.23C719.7,-394.95 420.85,-382.37 172,-356 170.73,-355.87 169.45,-355.72 168.16,-355.58"/>
<polygon fill="midnightblue" stroke="midnightblue" points="168.49,-352.09 158.14,-354.33 167.63,-359.04 168.49,-352.09"/>
</g>
<!-- Node14&#45;&gt;Node31 -->
<g id="edge65" class="edge">
<title>Node14&#45;&gt;Node31</title>
<path fill="none" stroke="midnightblue" d="M948.34,-398.89C1079.99,-393.58 1426.45,-378.49 1715,-356 1726.98,-355.07 1739.84,-353.88 1751.96,-352.67"/>
<polygon fill="midnightblue" stroke="midnightblue" points="1752.34,-356.15 1761.93,-351.66 1751.63,-349.18 1752.34,-356.15"/>
</g>
<!-- Node14&#45;&gt;Node32 -->
<g id="edge67" class="edge">
<title>Node14&#45;&gt;Node32</title>
<path fill="none" stroke="midnightblue" d="M886.31,-392.37C869.99,-374.05 831.68,-331.05 810.58,-307.36"/>
<polygon fill="midnightblue" stroke="midnightblue" points="812.92,-304.73 803.65,-299.59 807.69,-309.39 812.92,-304.73"/>
</g>
<!-- Node33 -->
<g id="node33" class="node">
<title>Node33</title>
<g id="a_node33"><a xlink:href="Menus_8h.html" target="_top" xlink:title=" ">
<polygon fill="none" stroke="black" points="599.5,-336.5 599.5,-355.5 692.5,-355.5 692.5,-336.5 599.5,-336.5"/>
<text text-anchor="middle" x="646" y="-343.5" font-family="Helvetica,sans-Serif" font-size="10.00">Menus/Menus.h</text>
</a>
</g>
</g>
<!-- Node14&#45;&gt;Node33 -->
<g id="edge74" class="edge">
<title>Node14&#45;&gt;Node33</title>
<path fill="none" stroke="midnightblue" d="M854.7,-392.44C811.44,-383.02 741.83,-367.87 695.03,-357.68"/>
<polygon fill="midnightblue" stroke="midnightblue" points="695.63,-354.22 685.11,-355.52 694.14,-361.06 695.63,-354.22"/>
</g>
<!-- Node15&#45;&gt;Node13 -->
<g id="edge27" class="edge">
<title>Node15&#45;&gt;Node13</title>
<path fill="none" stroke="midnightblue" d="M930.65,-280.08C931.98,-272.93 933.88,-262.64 935.54,-253.69"/>
<polygon fill="midnightblue" stroke="midnightblue" points="939,-254.22 937.38,-243.75 932.12,-252.95 939,-254.22"/>
</g>
<!-- Node16&#45;&gt;Node4 -->
<g id="edge29" class="edge">
<title>Node16&#45;&gt;Node4</title>
<path fill="none" stroke="midnightblue" d="M1536.92,-336.31C1548.7,-328.27 1565.19,-315.27 1575,-300 1591.26,-274.68 1594,-265.1 1594,-235 1594,-235 1594,-235 1594,-177 1594,-71.91 1208.85,-65.49 1077.94,-66.35"/>
<polygon fill="midnightblue" stroke="midnightblue" points="1077.85,-62.85 1067.88,-66.43 1077.91,-69.85 1077.85,-62.85"/>
</g>
<!-- Node17 -->
<g id="node17" class="node">
<title>Node17</title>
<g id="a_node17"><a xlink:href="BitStream_8h.html" target="_top" xlink:title=" ">
<polygon fill="none" stroke="black" points="1330,-280.5 1330,-299.5 1444,-299.5 1444,-280.5 1330,-280.5"/>
<text text-anchor="middle" x="1387" y="-287.5" font-family="Helvetica,sans-Serif" font-size="10.00">../Serial/BitStream.h</text>
</a>
</g>
</g>
<!-- Node16&#45;&gt;Node17 -->
<g id="edge30" class="edge">
<title>Node16&#45;&gt;Node17</title>
<path fill="none" stroke="midnightblue" d="M1501.45,-336.44C1478.97,-327.52 1443.51,-313.44 1418.02,-303.32"/>
<polygon fill="midnightblue" stroke="midnightblue" points="1419.03,-299.95 1408.45,-299.52 1416.45,-306.46 1419.03,-299.95"/>
</g>
<!-- Node18 -->
<g id="node18" class="node">
<title>Node18</title>
<g id="a_node18"><a xlink:href="IRConfig_8h.html" target="_top" xlink:title=" ">
<polygon fill="none" stroke="black" points="1500,-280.5 1500,-299.5 1566,-299.5 1566,-280.5 1500,-280.5"/>
<text text-anchor="middle" x="1533" y="-287.5" font-family="Helvetica,sans-Serif" font-size="10.00">IRConfig.h</text>
</a>
</g>
</g>
<!-- Node16&#45;&gt;Node18 -->
<g id="edge32" class="edge">
<title>Node16&#45;&gt;Node18</title>
<path fill="none" stroke="midnightblue" d="M1524.65,-336.08C1525.98,-328.93 1527.88,-318.64 1529.54,-309.69"/>
<polygon fill="midnightblue" stroke="midnightblue" points="1533,-310.22 1531.38,-299.75 1526.12,-308.95 1533,-310.22"/>
</g>
<!-- Node17&#45;&gt;Node4 -->
<g id="edge31" class="edge">
<title>Node17&#45;&gt;Node4</title>
<path fill="none" stroke="midnightblue" d="M1386,-280.4C1384.16,-267.35 1379.33,-242.15 1368,-224 1328.84,-161.29 1310.75,-145.8 1245,-112 1191.43,-84.46 1121.84,-73.76 1077.79,-69.61"/>
<polygon fill="midnightblue" stroke="midnightblue" points="1077.97,-66.11 1067.71,-68.73 1077.37,-73.09 1077.97,-66.11"/>
</g>
<!-- Node19&#45;&gt;Node17 -->
<g id="edge42" class="edge">
<title>Node19&#45;&gt;Node17</title>
<path fill="none" stroke="midnightblue" d="M1387,-336.08C1387,-329.01 1387,-318.86 1387,-309.99"/>
<polygon fill="midnightblue" stroke="midnightblue" points="1390.5,-309.75 1387,-299.75 1383.5,-309.75 1390.5,-309.75"/>
</g>
<!-- Node19&#45;&gt;Node18 -->
<g id="edge43" class="edge">
<title>Node19&#45;&gt;Node18</title>
<path fill="none" stroke="midnightblue" d="M1410.13,-336.44C1434.48,-327.44 1473.01,-313.19 1500.42,-303.05"/>
<polygon fill="midnightblue" stroke="midnightblue" points="1501.81,-306.27 1509.97,-299.52 1499.38,-299.7 1501.81,-306.27"/>
</g>
<!-- Node19&#45;&gt;Node20 -->
<g id="edge34" class="edge">
<title>Node19&#45;&gt;Node20</title>
<path fill="none" stroke="midnightblue" d="M1407.72,-336.35C1432.87,-324.61 1469.92,-302.49 1453,-280 1441.57,-264.8 1398.84,-253.12 1360.99,-245.48"/>
<polygon fill="midnightblue" stroke="midnightblue" points="1361.47,-242 1350.99,-243.52 1360.13,-248.87 1361.47,-242"/>
</g>
<!-- Node20&#45;&gt;Node4 -->
<g id="edge35" class="edge">
<title>Node20&#45;&gt;Node4</title>
<path fill="none" stroke="midnightblue" d="M1294.18,-224.37C1286.42,-202.01 1262.48,-141.84 1221,-112 1178.58,-81.48 1118.06,-71.47 1077.7,-68.3"/>
<polygon fill="midnightblue" stroke="midnightblue" points="1077.86,-64.8 1067.65,-67.62 1077.39,-71.79 1077.86,-64.8"/>
</g>
<!-- Node20&#45;&gt;Node21 -->
<g id="edge36" class="edge">
<title>Node20&#45;&gt;Node21</title>
<path fill="none" stroke="midnightblue" d="M1235.49,-226.05C1138.45,-215.09 951.97,-194.02 865.34,-184.24"/>
<polygon fill="midnightblue" stroke="midnightblue" points="865.62,-180.74 855.29,-183.1 864.83,-187.7 865.62,-180.74"/>
</g>
<!-- Node21&#45;&gt;Node6 -->
<g id="edge38" class="edge">
<title>Node21&#45;&gt;Node6</title>
<path fill="none" stroke="midnightblue" d="M802.12,-168.4C773.36,-154.16 712.63,-125.88 658,-112 541.45,-82.4 400.54,-72.24 322.76,-68.78"/>
<polygon fill="midnightblue" stroke="midnightblue" points="322.81,-65.28 312.67,-68.35 322.51,-72.27 322.81,-65.28"/>
</g>
<!-- Node21&#45;&gt;Node9 -->
<g id="edge37" class="edge">
<title>Node21&#45;&gt;Node9</title>
<path fill="none" stroke="midnightblue" d="M787.63,-168.44C752.74,-158.93 696.39,-143.56 659.03,-133.37"/>
<polygon fill="midnightblue" stroke="midnightblue" points="659.59,-129.9 649.03,-130.64 657.75,-136.65 659.59,-129.9"/>
</g>
<!-- Node22 -->
<g id="node22" class="node">
<title>Node22</title>
<g id="a_node22"><a xlink:href="ErrorBlinker_8h.html" target="_top" xlink:title=" ">
<polygon fill="none" stroke="black" points="743.5,-112.5 743.5,-131.5 854.5,-131.5 854.5,-112.5 743.5,-112.5"/>
<text text-anchor="middle" x="799" y="-119.5" font-family="Helvetica,sans-Serif" font-size="10.00">../Log/ErrorBlinker.h</text>
</a>
</g>
</g>
<!-- Node21&#45;&gt;Node22 -->
<g id="edge39" class="edge">
<title>Node21&#45;&gt;Node22</title>
<path fill="none" stroke="midnightblue" d="M815.7,-168.08C813.02,-160.85 809.15,-150.41 805.81,-141.4"/>
<polygon fill="midnightblue" stroke="midnightblue" points="809,-139.91 802.24,-131.75 802.43,-142.34 809,-139.91"/>
</g>
<!-- Node22&#45;&gt;Node4 -->
<g id="edge40" class="edge">
<title>Node22&#45;&gt;Node4</title>
<path fill="none" stroke="midnightblue" d="M836.39,-112.44C878.84,-102.73 947.93,-86.92 992.42,-76.74"/>
<polygon fill="midnightblue" stroke="midnightblue" points="993.37,-80.12 1002.34,-74.47 991.81,-73.29 993.37,-80.12"/>
</g>
<!-- Node22&#45;&gt;Node6 -->
<g id="edge41" class="edge">
<title>Node22&#45;&gt;Node6</title>
<path fill="none" stroke="midnightblue" d="M743.23,-113.67C738.42,-113.09 733.63,-112.52 729,-112 583.06,-95.56 410.92,-79.86 322.67,-72.08"/>
<polygon fill="midnightblue" stroke="midnightblue" points="322.85,-68.59 312.59,-71.2 322.24,-75.56 322.85,-68.59"/>
</g>
<!-- Node23&#45;&gt;Node4 -->
<g id="edge45" class="edge">
<title>Node23&#45;&gt;Node4</title>
<path fill="none" stroke="midnightblue" d="M1050.67,-336.15C1082.48,-310.89 1166.49,-235.85 1138,-168 1121.85,-129.54 1083.12,-98.38 1058.02,-81.29"/>
<polygon fill="midnightblue" stroke="midnightblue" points="1059.74,-78.23 1049.46,-75.65 1055.88,-84.07 1059.74,-78.23"/>
</g>
<!-- Node23&#45;&gt;Node17 -->
<g id="edge46" class="edge">
<title>Node23&#45;&gt;Node17</title>
<path fill="none" stroke="midnightblue" d="M1094.14,-336.44C1155.99,-326.85 1256.23,-311.29 1321.89,-301.1"/>
<polygon fill="midnightblue" stroke="midnightblue" points="1322.77,-304.51 1332.12,-299.52 1321.7,-297.59 1322.77,-304.51"/>
</g>
<!-- Node24 -->
<g id="node24" class="node">
<title>Node24</title>
<g id="a_node24"><a xlink:href="VLConfig_8h.html" target="_top" xlink:title=" ">
<polygon fill="none" stroke="black" points="1130,-280.5 1130,-299.5 1198,-299.5 1198,-280.5 1130,-280.5"/>
<text text-anchor="middle" x="1164" y="-287.5" font-family="Helvetica,sans-Serif" font-size="10.00">VLConfig.h</text>
</a>
</g>
</g>
<!-- Node23&#45;&gt;Node24 -->
<g id="edge47" class="edge">
<title>Node23&#45;&gt;Node24</title>
<path fill="none" stroke="midnightblue" d="M1058.81,-336.44C1079.29,-327.6 1111.48,-313.69 1134.86,-303.59"/>
<polygon fill="midnightblue" stroke="midnightblue" points="1136.49,-306.7 1144.29,-299.52 1133.72,-300.27 1136.49,-306.7"/>
</g>
<!-- Node24&#45;&gt;Node6 -->
<g id="edge48" class="edge">
<title>Node24&#45;&gt;Node6</title>
<path fill="none" stroke="midnightblue" d="M1151.31,-280.44C1102.61,-247.79 927.33,-131.86 864,-112 764.29,-80.72 453.93,-70.85 323.1,-68.03"/>
<polygon fill="midnightblue" stroke="midnightblue" points="322.95,-64.52 312.88,-67.81 322.8,-71.52 322.95,-64.52"/>
</g>
<!-- Node25&#45;&gt;Node17 -->
<g id="edge51" class="edge">
<title>Node25&#45;&gt;Node17</title>
<path fill="none" stroke="midnightblue" d="M1243.1,-336.44C1271.99,-327.32 1317.92,-312.81 1350.11,-302.65"/>
<polygon fill="midnightblue" stroke="midnightblue" points="1351.55,-305.87 1360.03,-299.52 1349.44,-299.19 1351.55,-305.87"/>
</g>
<!-- Node25&#45;&gt;Node20 -->
<g id="edge50" class="edge">
<title>Node25&#45;&gt;Node20</title>
<path fill="none" stroke="midnightblue" d="M1222.36,-336.37C1235.78,-318.14 1267.23,-275.43 1284.72,-251.68"/>
<polygon fill="midnightblue" stroke="midnightblue" points="1287.56,-253.72 1290.67,-243.59 1281.93,-249.57 1287.56,-253.72"/>
</g>
<!-- Node25&#45;&gt;Node24 -->
<g id="edge52" class="edge">
<title>Node25&#45;&gt;Node24</title>
<path fill="none" stroke="midnightblue" d="M1207.41,-336.08C1199.84,-328.22 1188.62,-316.57 1179.49,-307.08"/>
<polygon fill="midnightblue" stroke="midnightblue" points="1181.88,-304.53 1172.43,-299.75 1176.84,-309.38 1181.88,-304.53"/>
</g>
<!-- Node26&#45;&gt;Node4 -->
<g id="edge54" class="edge">
<title>Node26&#45;&gt;Node4</title>
<path fill="none" stroke="midnightblue" d="M1073.7,-168.37C1066.87,-150.46 1051.01,-108.92 1041.85,-84.95"/>
<polygon fill="midnightblue" stroke="midnightblue" points="1045.12,-83.69 1038.28,-75.59 1038.58,-86.18 1045.12,-83.69"/>
</g>
<!-- Node27&#45;&gt;Node28 -->
<g id="edge56" class="edge">
<title>Node27&#45;&gt;Node28</title>
<path fill="none" stroke="midnightblue" d="M1654,-336.08C1654,-329.01 1654,-318.86 1654,-309.99"/>
<polygon fill="midnightblue" stroke="midnightblue" points="1657.5,-309.75 1654,-299.75 1650.5,-309.75 1657.5,-309.75"/>
</g>
<!-- Node28&#45;&gt;Node4 -->
<g id="edge57" class="edge">
<title>Node28&#45;&gt;Node4</title>
<path fill="none" stroke="midnightblue" d="M1654.86,-280.21C1657.2,-250.89 1660.32,-155.84 1608,-112 1567.6,-78.14 1203.49,-69.52 1077.6,-67.54"/>
<polygon fill="midnightblue" stroke="midnightblue" points="1077.61,-64.04 1067.56,-67.39 1077.5,-71.04 1077.61,-64.04"/>
</g>
<!-- Node29&#45;&gt;Node4 -->
<g id="edge59" class="edge">
<title>Node29&#45;&gt;Node4</title>
<path fill="none" stroke="midnightblue" d="M389.99,-280.47C431.89,-263.99 525.8,-226.07 602,-188 662.9,-157.57 670.68,-134.32 735,-112 823.01,-81.46 932.62,-71.64 991.96,-68.49"/>
<polygon fill="midnightblue" stroke="midnightblue" points="992.28,-71.98 1002.09,-67.99 991.93,-64.98 992.28,-71.98"/>
</g>
<!-- Node29&#45;&gt;Node6 -->
<g id="edge60" class="edge">
<title>Node29&#45;&gt;Node6</title>
<path fill="none" stroke="midnightblue" d="M311.25,-284.92C254.95,-279.56 174.34,-267.85 155,-244 118.05,-198.43 122.38,-160.76 155,-112 166.59,-94.68 186.2,-84.02 205.62,-77.46"/>
<polygon fill="midnightblue" stroke="midnightblue" points="206.86,-80.74 215.4,-74.47 204.81,-74.04 206.86,-80.74"/>
</g>
<!-- Node29&#45;&gt;Node8 -->
<g id="edge61" class="edge">
<title>Node29&#45;&gt;Node8</title>
<path fill="none" stroke="midnightblue" d="M361.06,-280.08C355.07,-272.38 346.25,-261.03 338.95,-251.65"/>
<polygon fill="midnightblue" stroke="midnightblue" points="341.71,-249.5 332.81,-243.75 336.18,-253.79 341.71,-249.5"/>
</g>
<!-- Node30&#45;&gt;Node6 -->
<g id="edge64" class="edge">
<title>Node30&#45;&gt;Node6</title>
<path fill="none" stroke="midnightblue" d="M91.98,-336.44C59.76,-321.17 0,-285.97 0,-235 0,-235 0,-235 0,-177 0,-88.73 127.3,-70.01 205.11,-66.81"/>
<polygon fill="midnightblue" stroke="midnightblue" points="205.39,-70.3 215.27,-66.47 205.16,-63.31 205.39,-70.3"/>
</g>
<!-- Node30&#45;&gt;Node29 -->
<g id="edge63" class="edge">
<title>Node30&#45;&gt;Node29</title>
<path fill="none" stroke="midnightblue" d="M152.56,-336.44C197.32,-327 269.38,-311.8 317.7,-301.61"/>
<polygon fill="midnightblue" stroke="midnightblue" points="318.56,-305.01 327.63,-299.52 317.12,-298.16 318.56,-305.01"/>
</g>
<!-- Node31&#45;&gt;Node4 -->
<g id="edge66" class="edge">
<title>Node31&#45;&gt;Node4</title>
<path fill="none" stroke="midnightblue" d="M1797.46,-336.41C1784.55,-318.56 1757,-275.7 1757,-235 1757,-235 1757,-235 1757,-177 1757,-113.59 1691.04,-129.17 1630,-112 1525.94,-82.72 1196.1,-71.27 1077.77,-68.04"/>
<polygon fill="midnightblue" stroke="midnightblue" points="1077.74,-64.54 1067.65,-67.77 1077.55,-71.54 1077.74,-64.54"/>
</g>
<!-- Node32&#45;&gt;Node4 -->
<g id="edge73" class="edge">
<title>Node32&#45;&gt;Node4</title>
<path fill="none" stroke="midnightblue" d="M806.17,-280.17C838.93,-251.72 941.36,-162.51 973,-132 989.73,-115.86 1008,-96.48 1020.34,-83.1"/>
<polygon fill="midnightblue" stroke="midnightblue" points="1023.01,-85.37 1027.19,-75.63 1017.85,-80.64 1023.01,-85.37"/>
</g>
<!-- Node32&#45;&gt;Node5 -->
<g id="edge69" class="edge">
<title>Node32&#45;&gt;Node5</title>
<path fill="none" stroke="midnightblue" d="M779.25,-280.31C726.65,-253.02 564.57,-168.95 501.49,-136.22"/>
<polygon fill="midnightblue" stroke="midnightblue" points="503.08,-133.1 492.59,-131.61 499.85,-139.32 503.08,-133.1"/>
</g>
<!-- Node32&#45;&gt;Node6 -->
<g id="edge72" class="edge">
<title>Node32&#45;&gt;Node6</title>
<path fill="none" stroke="midnightblue" d="M749.44,-282.76C692.34,-274.86 592.73,-260.32 508,-244 480.69,-238.74 281.33,-209.76 264,-188 240.64,-158.67 249.86,-111.41 257.58,-85.49"/>
<polygon fill="midnightblue" stroke="midnightblue" points="260.96,-86.39 260.7,-75.8 254.3,-84.25 260.96,-86.39"/>
</g>
<!-- Node32&#45;&gt;Node10 -->
<g id="edge71" class="edge">
<title>Node32&#45;&gt;Node10</title>
<path fill="none" stroke="midnightblue" d="M758.66,-280.46C672.09,-260.66 457.81,-211.66 362.28,-189.81"/>
<polygon fill="midnightblue" stroke="midnightblue" points="362.85,-186.35 352.32,-187.53 361.29,-193.18 362.85,-186.35"/>
</g>
<!-- Node32&#45;&gt;Node13 -->
<g id="edge70" class="edge">
<title>Node32&#45;&gt;Node13</title>
<path fill="none" stroke="midnightblue" d="M818.66,-280.44C842.4,-271.48 879.91,-257.31 906.74,-247.18"/>
<polygon fill="midnightblue" stroke="midnightblue" points="908.33,-250.32 916.45,-243.52 905.86,-243.77 908.33,-250.32"/>
</g>
<!-- Node32&#45;&gt;Node20 -->
<g id="edge68" class="edge">
<title>Node32&#45;&gt;Node20</title>
<path fill="none" stroke="midnightblue" d="M842.72,-281.28C845.86,-280.83 848.97,-280.4 852,-280 983.28,-262.83 1137.08,-248.57 1225.17,-240.96"/>
<polygon fill="midnightblue" stroke="midnightblue" points="1225.66,-244.43 1235.32,-240.09 1225.06,-237.46 1225.66,-244.43"/>
</g>
<!-- Node33&#45;&gt;Node4 -->
<g id="edge75" class="edge">
<title>Node33&#45;&gt;Node4</title>
<path fill="none" stroke="midnightblue" d="M658.07,-336.38C713.54,-296.73 944.34,-131.79 1014.61,-81.57"/>
<polygon fill="midnightblue" stroke="midnightblue" points="1016.97,-84.19 1023.07,-75.52 1012.9,-78.49 1016.97,-84.19"/>
</g>
<!-- Node33&#45;&gt;Node5 -->
<g id="edge76" class="edge">
<title>Node33&#45;&gt;Node5</title>
<path fill="none" stroke="midnightblue" d="M642.54,-336.19C637.29,-323.31 626.58,-298.82 614,-280 576.19,-223.44 519.74,-165.51 492.23,-138.56"/>
<polygon fill="midnightblue" stroke="midnightblue" points="494.59,-135.97 484.98,-131.52 489.72,-140.99 494.59,-135.97"/>
</g>
<!-- Node33&#45;&gt;Node8 -->
<g id="edge77" class="edge">
<title>Node33&#45;&gt;Node8</title>
<path fill="none" stroke="midnightblue" d="M640.88,-336.14C632.07,-321.77 612.6,-293.64 588,-280 570.83,-270.48 460.77,-253.74 388.86,-243.58"/>
<polygon fill="midnightblue" stroke="midnightblue" points="388.93,-240.06 378.54,-242.13 387.96,-246.99 388.93,-240.06"/>
</g>
<!-- Node33&#45;&gt;Node12 -->
<g id="edge78" class="edge">
<title>Node33&#45;&gt;Node12</title>
<path fill="none" stroke="midnightblue" d="M627.62,-336.44C608.78,-327.68 579.27,-313.94 557.62,-303.86"/>
<polygon fill="midnightblue" stroke="midnightblue" points="558.84,-300.56 548.29,-299.52 555.88,-306.91 558.84,-300.56"/>
</g>
</g>
</svg>
