<?xml version="1.0" encoding="UTF-8" standalone="no"?>
<!DOCTYPE svg PUBLIC "-//W3C//DTD SVG 1.1//EN"
 "http://www.w3.org/Graphics/SVG/1.1/DTD/svg11.dtd">
<!-- Generated by graphviz version 2.43.0 (0)
 -->
<!-- Title: VortexEngine/src/Modes/Modes.cpp Pages: 1 -->
<!--zoomable 375 -->
<svg id="main" version="1.1" xmlns="http://www.w3.org/2000/svg" xmlns:xlink="http://www.w3.org/1999/xlink" xml:space="preserve" onload="init(evt)">
<style type="text/css"><![CDATA[
.edge:hover path { stroke: red; }
.edge:hover polygon { stroke: red; fill: red; }
]]></style>
<script type="text/javascript"><![CDATA[
var edges = document.getElementsByTagName('g');
if (edges && edges.length) {
  for (var i=0;i<edges.length;i++) {
    if (edges[i].id.substr(0,4)=='edge') {
      edges[i].setAttribute('class','edge');
    }
  }
}
]]></script>
        <defs>
                <circle id="rim" cx="0" cy="0" r="7"/>
                <circle id="rim2" cx="0" cy="0" r="3.5"/>
                <g id="zoomPlus">
                        <use xlink:href="#rim" fill="#404040">
                                <set attributeName="fill" to="#808080" begin="zoomplus.mouseover" end="zoomplus.mouseout"/>
                        </use>
                        <path d="M-4,0h8M0,-4v8" fill="none" stroke="white" stroke-width="1.5" pointer-events="none"/>
                </g>
                <g id="zoomMin">
                        <use xlink:href="#rim" fill="#404040">
                                <set attributeName="fill" to="#808080" begin="zoomminus.mouseover" end="zoomminus.mouseout"/>
                        </use>
                        <path d="M-4,0h8" fill="none" stroke="white" stroke-width="1.5" pointer-events="none"/>
                </g>
                <g id="dirArrow">
                        <path fill="none" stroke="white" stroke-width="1.5" d="M0,-3.0v7 M-2.5,-0.5L0,-3.0L2.5,-0.5"/>
                </g>
               <g id="resetDef">
                       <use xlink:href="#rim2" fill="#404040">
                               <set attributeName="fill" to="#808080" begin="reset.mouseover" end="reset.mouseout"/>
                       </use>
               </g>
        </defs>

<script type="text/javascript">
var viewWidth = 1187;
var viewHeight = 375;
var sectionId = 'dynsection-0';
</script>
<script xlink:href="svgpan.js"/>
<svg id="graph" class="graph">
<g id="viewport">
<title>VortexEngine/src/Modes/Modes.cpp</title>
<!-- Node1 -->
<g id="node1" class="node">
<title>Node1</title>
<g id="a_node1"><a xlink:title=" ">
<polygon fill="#bfbfbf" stroke="black" points="502.5,-336.5 502.5,-366.5 636.5,-366.5 636.5,-336.5 502.5,-336.5"/>
<text text-anchor="start" x="510.5" y="-354.5" font-family="Helvetica,sans-Serif" font-size="10.00">VortexEngine/src/Modes</text>
<text text-anchor="middle" x="569.5" y="-343.5" font-family="Helvetica,sans-Serif" font-size="10.00">/Modes.cpp</text>
</a>
</g>
</g>
<!-- Node2 -->
<g id="node2" class="node">
<title>Node2</title>
<g id="a_node2"><a xlink:href="Modes_8h.html" target="_top" xlink:title=" ">
<polygon fill="none" stroke="black" points="802.5,-280.5 802.5,-299.5 860.5,-299.5 860.5,-280.5 802.5,-280.5"/>
<text text-anchor="middle" x="831.5" y="-287.5" font-family="Helvetica,sans-Serif" font-size="10.00">Modes.h</text>
</a>
</g>
</g>
<!-- Node1&#45;&gt;Node2 -->
<g id="edge1" class="edge">
<title>Node1&#45;&gt;Node2</title>
<path fill="none" stroke="midnightblue" d="M631.26,-336.47C681.15,-325.14 749.86,-309.54 792.43,-299.87"/>
<polygon fill="midnightblue" stroke="midnightblue" points="793.43,-303.24 802.41,-297.61 791.88,-296.41 793.43,-303.24"/>
</g>
<!-- Node3 -->
<g id="node3" class="node">
<title>Node3</title>
<g id="a_node3"><a xlink:href="ByteStream_8h.html" target="_top" xlink:title=" ">
<polygon fill="none" stroke="black" points="936,-224.5 936,-243.5 1059,-243.5 1059,-224.5 936,-224.5"/>
<text text-anchor="middle" x="997.5" y="-231.5" font-family="Helvetica,sans-Serif" font-size="10.00">../Serial/ByteStream.h</text>
</a>
</g>
</g>
<!-- Node1&#45;&gt;Node3 -->
<g id="edge41" class="edge">
<title>Node1&#45;&gt;Node3</title>
<path fill="none" stroke="midnightblue" d="M636.73,-345.05C698.47,-338.69 791.87,-325.58 869.5,-300 908.54,-287.13 950.41,-263.87 975.25,-248.94"/>
<polygon fill="midnightblue" stroke="midnightblue" points="977.18,-251.86 983.9,-243.67 973.54,-245.89 977.18,-251.86"/>
</g>
<!-- Node5 -->
<g id="node5" class="node">
<title>Node5</title>
<g id="a_node5"><a xlink:href="Log_8h.html" target="_top" xlink:title=" ">
<polygon fill="none" stroke="black" points="465.5,-168.5 465.5,-187.5 537.5,-187.5 537.5,-168.5 465.5,-168.5"/>
<text text-anchor="middle" x="501.5" y="-175.5" font-family="Helvetica,sans-Serif" font-size="10.00">../Log/Log.h</text>
</a>
</g>
</g>
<!-- Node1&#45;&gt;Node5 -->
<g id="edge60" class="edge">
<title>Node1&#45;&gt;Node5</title>
<path fill="none" stroke="midnightblue" d="M557.69,-336.48C542.2,-317.12 515.66,-280.45 504.5,-244 499.9,-228.96 499.41,-211.06 499.93,-197.85"/>
<polygon fill="midnightblue" stroke="midnightblue" points="503.44,-197.84 500.56,-187.64 496.45,-197.41 503.44,-197.84"/>
</g>
<!-- Node12 -->
<g id="node12" class="node">
<title>Node12</title>
<g id="a_node12"><a xlink:href="Leds_8h.html" target="_top" xlink:title=" ">
<polygon fill="none" stroke="black" points="720,-224.5 720,-243.5 803,-243.5 803,-224.5 720,-224.5"/>
<text text-anchor="middle" x="761.5" y="-231.5" font-family="Helvetica,sans-Serif" font-size="10.00">../Leds/Leds.h</text>
</a>
</g>
</g>
<!-- Node1&#45;&gt;Node12 -->
<g id="edge59" class="edge">
<title>Node1&#45;&gt;Node12</title>
<path fill="none" stroke="midnightblue" d="M599.2,-336.44C618.92,-326.81 645.18,-313.39 667.5,-300 693.96,-284.12 722.97,-263.54 741.66,-249.84"/>
<polygon fill="midnightblue" stroke="midnightblue" points="743.99,-252.47 749.95,-243.71 739.83,-246.84 743.99,-252.47"/>
</g>
<!-- Node14 -->
<g id="node14" class="node">
<title>Node14</title>
<g id="a_node14"><a xlink:href="DefaultModes_8h.html" target="_top" xlink:title=" ">
<polygon fill="none" stroke="black" points="228.5,-224.5 228.5,-243.5 322.5,-243.5 322.5,-224.5 228.5,-224.5"/>
<text text-anchor="middle" x="275.5" y="-231.5" font-family="Helvetica,sans-Serif" font-size="10.00">DefaultModes.h</text>
</a>
</g>
</g>
<!-- Node1&#45;&gt;Node14 -->
<g id="edge26" class="edge">
<title>Node1&#45;&gt;Node14</title>
<path fill="none" stroke="midnightblue" d="M533.05,-336.42C506.98,-326.32 471.06,-312.38 439.5,-300 393.12,-281.8 339.46,-260.49 306.51,-247.36"/>
<polygon fill="midnightblue" stroke="midnightblue" points="307.56,-244.01 296.97,-243.56 304.97,-250.52 307.56,-244.01"/>
</g>
<!-- Node15 -->
<g id="node15" class="node">
<title>Node15</title>
<g id="a_node15"><a xlink:href="VortexEngine_8h.html" target="_top" xlink:title=" ">
<polygon fill="none" stroke="black" points="132,-112.5 132,-131.5 231,-131.5 231,-112.5 132,-112.5"/>
<text text-anchor="middle" x="181.5" y="-119.5" font-family="Helvetica,sans-Serif" font-size="10.00">../VortexEngine.h</text>
</a>
</g>
</g>
<!-- Node1&#45;&gt;Node15 -->
<g id="edge30" class="edge">
<title>Node1&#45;&gt;Node15</title>
<path fill="none" stroke="midnightblue" d="M502.45,-348.56C423.88,-342.63 294.89,-320.85 219.5,-244 191.97,-215.93 184.35,-168.14 182.27,-141.81"/>
<polygon fill="midnightblue" stroke="midnightblue" points="185.75,-141.43 181.66,-131.66 178.77,-141.85 185.75,-141.43"/>
</g>
<!-- Node16 -->
<g id="node16" class="node">
<title>Node16</title>
<g id="a_node16"><a xlink:href="Pattern_8h.html" target="_top" xlink:title=" ">
<polygon fill="none" stroke="black" points="513.5,-224.5 513.5,-243.5 625.5,-243.5 625.5,-224.5 513.5,-224.5"/>
<text text-anchor="middle" x="569.5" y="-231.5" font-family="Helvetica,sans-Serif" font-size="10.00">../Patterns/Pattern.h</text>
</a>
</g>
</g>
<!-- Node1&#45;&gt;Node16 -->
<g id="edge33" class="edge">
<title>Node1&#45;&gt;Node16</title>
<path fill="none" stroke="midnightblue" d="M569.5,-336.34C569.5,-315.62 569.5,-277.02 569.5,-253.9"/>
<polygon fill="midnightblue" stroke="midnightblue" points="573,-253.67 569.5,-243.67 566,-253.67 573,-253.67"/>
</g>
<!-- Node17 -->
<g id="node17" class="node">
<title>Node17</title>
<g id="a_node17"><a xlink:href="Colorset_8h.html" target="_top" xlink:title=" ">
<polygon fill="none" stroke="black" points="656,-168.5 656,-187.5 765,-187.5 765,-168.5 656,-168.5"/>
<text text-anchor="middle" x="710.5" y="-175.5" font-family="Helvetica,sans-Serif" font-size="10.00">../Colors/Colorset.h</text>
</a>
</g>
</g>
<!-- Node1&#45;&gt;Node17 -->
<g id="edge46" class="edge">
<title>Node1&#45;&gt;Node17</title>
<path fill="none" stroke="midnightblue" d="M581.04,-336.47C606.88,-305.03 669.29,-229.12 696.94,-195.5"/>
<polygon fill="midnightblue" stroke="midnightblue" points="699.82,-197.51 703.46,-187.56 694.41,-193.06 699.82,-197.51"/>
</g>
<!-- Node19 -->
<g id="node19" class="node">
<title>Node19</title>
<g id="a_node19"><a xlink:href="TimeControl_8h.html" target="_top" xlink:title=" ">
<polygon fill="none" stroke="black" points="17.5,-224.5 17.5,-243.5 139.5,-243.5 139.5,-224.5 17.5,-224.5"/>
<text text-anchor="middle" x="78.5" y="-231.5" font-family="Helvetica,sans-Serif" font-size="10.00">../Time/TimeControl.h</text>
</a>
</g>
</g>
<!-- Node1&#45;&gt;Node19 -->
<g id="edge42" class="edge">
<title>Node1&#45;&gt;Node19</title>
<path fill="none" stroke="midnightblue" d="M502.16,-347.11C400.78,-341.2 214.35,-326.99 153.5,-300 128.52,-288.92 105.7,-266.61 91.95,-251.25"/>
<polygon fill="midnightblue" stroke="midnightblue" points="94.48,-248.82 85.3,-243.54 89.18,-253.4 94.48,-248.82"/>
</g>
<!-- Node20 -->
<g id="node20" class="node">
<title>Node20</title>
<g id="a_node20"><a xlink:href="Storage_8h.html" target="_top" xlink:title=" ">
<polygon fill="none" stroke="black" points="932,-280.5 932,-299.5 1045,-299.5 1045,-280.5 932,-280.5"/>
<text text-anchor="middle" x="988.5" y="-287.5" font-family="Helvetica,sans-Serif" font-size="10.00">../Storage/Storage.h</text>
</a>
</g>
</g>
<!-- Node1&#45;&gt;Node20 -->
<g id="edge47" class="edge">
<title>Node1&#45;&gt;Node20</title>
<path fill="none" stroke="midnightblue" d="M636.82,-340.94C715.08,-329.83 843.46,-311.6 921.56,-300.51"/>
<polygon fill="midnightblue" stroke="midnightblue" points="922.36,-303.93 931.77,-299.06 921.38,-297 922.36,-303.93"/>
</g>
<!-- Node21 -->
<g id="node21" class="node">
<title>Node21</title>
<g id="a_node21"><a xlink:href="Buttons_8h.html" target="_top" xlink:title=" ">
<polygon fill="none" stroke="black" points="1066,-280.5 1066,-299.5 1179,-299.5 1179,-280.5 1066,-280.5"/>
<text text-anchor="middle" x="1122.5" y="-287.5" font-family="Helvetica,sans-Serif" font-size="10.00">../Buttons/Buttons.h</text>
</a>
</g>
</g>
<!-- Node1&#45;&gt;Node21 -->
<g id="edge49" class="edge">
<title>Node1&#45;&gt;Node21</title>
<path fill="none" stroke="midnightblue" d="M636.5,-344.06C729.97,-334.95 904.77,-317.46 1053.5,-300 1054.12,-299.93 1054.74,-299.85 1055.36,-299.78"/>
<polygon fill="midnightblue" stroke="midnightblue" points="1056.15,-303.21 1065.66,-298.53 1055.31,-296.26 1056.15,-303.21"/>
</g>
<!-- Node23 -->
<g id="node23" class="node">
<title>Node23</title>
<g id="a_node23"><a xlink:href="Timings_8h.html" target="_top" xlink:title=" ">
<polygon fill="none" stroke="black" points="0,-280.5 0,-299.5 101,-299.5 101,-280.5 0,-280.5"/>
<text text-anchor="middle" x="50.5" y="-287.5" font-family="Helvetica,sans-Serif" font-size="10.00">../Time/Timings.h</text>
</a>
</g>
</g>
<!-- Node1&#45;&gt;Node23 -->
<g id="edge52" class="edge">
<title>Node1&#45;&gt;Node23</title>
<path fill="none" stroke="midnightblue" d="M502.13,-343.58C413.42,-334.33 252.63,-317.12 115.5,-300 114.2,-299.84 112.88,-299.67 111.55,-299.5"/>
<polygon fill="midnightblue" stroke="midnightblue" points="111.59,-295.98 101.22,-298.16 110.69,-302.92 111.59,-295.98"/>
</g>
<!-- Node24 -->
<g id="node24" class="node">
<title>Node24</title>
<g id="a_node24"><a xlink:href="Mode_8h.html" target="_top" xlink:title=" ">
<polygon fill="none" stroke="black" points="341,-224.5 341,-243.5 438,-243.5 438,-224.5 341,-224.5"/>
<text text-anchor="middle" x="389.5" y="-231.5" font-family="Helvetica,sans-Serif" font-size="10.00">../Modes/Mode.h</text>
</a>
</g>
</g>
<!-- Node1&#45;&gt;Node24 -->
<g id="edge55" class="edge">
<title>Node1&#45;&gt;Node24</title>
<path fill="none" stroke="midnightblue" d="M538.63,-336.5C518.89,-327.09 493.05,-313.91 471.5,-300 447.84,-284.73 422.78,-264.13 406.68,-250.24"/>
<polygon fill="midnightblue" stroke="midnightblue" points="408.97,-247.6 399.13,-243.66 404.36,-252.87 408.97,-247.6"/>
</g>
<!-- Node2&#45;&gt;Node3 -->
<g id="edge2" class="edge">
<title>Node2&#45;&gt;Node3</title>
<path fill="none" stroke="midnightblue" d="M857.8,-280.44C885.85,-271.32 930.44,-256.81 961.68,-246.65"/>
<polygon fill="midnightblue" stroke="midnightblue" points="962.89,-249.94 971.32,-243.52 960.73,-243.28 962.89,-249.94"/>
</g>
<!-- Node4 -->
<g id="node4" class="node">
<title>Node4</title>
<g id="a_node4"><a xlink:title=" ">
<polygon fill="none" stroke="#bfbfbf" points="666,-56.5 666,-75.5 731,-75.5 731,-56.5 666,-56.5"/>
<text text-anchor="middle" x="698.5" y="-63.5" font-family="Helvetica,sans-Serif" font-size="10.00">inttypes.h</text>
</a>
</g>
</g>
<!-- Node2&#45;&gt;Node4 -->
<g id="edge25" class="edge">
<title>Node2&#45;&gt;Node4</title>
<path fill="none" stroke="midnightblue" d="M847.28,-280.47C859.7,-272.77 876.11,-260.18 883.5,-244 899.5,-209 937.72,-190.51 868.5,-112 851.83,-93.09 785.93,-79.85 741.25,-72.84"/>
<polygon fill="midnightblue" stroke="midnightblue" points="741.64,-69.36 731.22,-71.31 740.58,-76.28 741.64,-69.36"/>
</g>
<!-- Node7 -->
<g id="node7" class="node">
<title>Node7</title>
<g id="a_node7"><a xlink:href="VortexConfig_8h.html" target="_top" xlink:title=" ">
<polygon fill="none" stroke="black" points="305,-56.5 305,-75.5 402,-75.5 402,-56.5 305,-56.5"/>
<text text-anchor="middle" x="353.5" y="-63.5" font-family="Helvetica,sans-Serif" font-size="10.00">../VortexConfig.h</text>
</a>
</g>
</g>
<!-- Node2&#45;&gt;Node7 -->
<g id="edge24" class="edge">
<title>Node2&#45;&gt;Node7</title>
<path fill="none" stroke="midnightblue" d="M836.47,-280.21C851.86,-251.71 895.11,-160.83 850.5,-112 821.44,-80.19 537.5,-70.65 412.29,-67.97"/>
<polygon fill="midnightblue" stroke="midnightblue" points="412.19,-64.47 402.12,-67.76 412.05,-71.47 412.19,-64.47"/>
</g>
<!-- Node10 -->
<g id="node10" class="node">
<title>Node10</title>
<g id="a_node10"><a xlink:href="ColorTypes_8h.html" target="_top" xlink:title=" ">
<polygon fill="none" stroke="black" points="719.5,-112.5 719.5,-131.5 841.5,-131.5 841.5,-112.5 719.5,-112.5"/>
<text text-anchor="middle" x="780.5" y="-119.5" font-family="Helvetica,sans-Serif" font-size="10.00">../Colors/ColorTypes.h</text>
</a>
</g>
</g>
<!-- Node2&#45;&gt;Node10 -->
<g id="edge11" class="edge">
<title>Node2&#45;&gt;Node10</title>
<path fill="none" stroke="midnightblue" d="M828.76,-280.08C820.73,-253.95 797.16,-177.21 786.21,-141.58"/>
<polygon fill="midnightblue" stroke="midnightblue" points="789.41,-140.1 783.13,-131.57 782.72,-142.16 789.41,-140.1"/>
</g>
<!-- Node11 -->
<g id="node11" class="node">
<title>Node11</title>
<g id="a_node11"><a xlink:href="Patterns_8h.html" target="_top" xlink:title=" ">
<polygon fill="none" stroke="black" points="330,-168.5 330,-187.5 447,-187.5 447,-168.5 330,-168.5"/>
<text text-anchor="middle" x="388.5" y="-175.5" font-family="Helvetica,sans-Serif" font-size="10.00">../Patterns/Patterns.h</text>
</a>
</g>
</g>
<!-- Node2&#45;&gt;Node11 -->
<g id="edge15" class="edge">
<title>Node2&#45;&gt;Node11</title>
<path fill="none" stroke="midnightblue" d="M809.05,-280.47C772.79,-266.94 698.89,-240.43 634.5,-224 575.27,-208.89 506.78,-196.79 457.13,-188.96"/>
<polygon fill="midnightblue" stroke="midnightblue" points="457.56,-185.48 447.14,-187.4 456.48,-192.4 457.56,-185.48"/>
</g>
<!-- Node2&#45;&gt;Node12 -->
<g id="edge17" class="edge">
<title>Node2&#45;&gt;Node12</title>
<path fill="none" stroke="midnightblue" d="M820.25,-280.32C809.7,-272.18 793.7,-259.84 781.06,-250.09"/>
<polygon fill="midnightblue" stroke="midnightblue" points="783.01,-247.17 772.95,-243.83 778.73,-252.71 783.01,-247.17"/>
</g>
<!-- Node3&#45;&gt;Node4 -->
<g id="edge3" class="edge">
<title>Node3&#45;&gt;Node4</title>
<path fill="none" stroke="midnightblue" d="M997.62,-224.37C997.44,-202.01 993.64,-141.86 959.5,-112 927.63,-84.13 806.56,-73.07 741.11,-69.06"/>
<polygon fill="midnightblue" stroke="midnightblue" points="741.29,-65.56 731.1,-68.47 740.88,-72.55 741.29,-65.56"/>
</g>
<!-- Node3&#45;&gt;Node5 -->
<g id="edge4" class="edge">
<title>Node3&#45;&gt;Node5</title>
<path fill="none" stroke="midnightblue" d="M935.99,-228.78C850.91,-222.52 692.35,-209.32 547.74,-188.06"/>
<polygon fill="midnightblue" stroke="midnightblue" points="548.2,-184.59 537.8,-186.58 547.17,-191.51 548.2,-184.59"/>
</g>
<!-- Node6 -->
<g id="node6" class="node">
<title>Node6</title>
<g id="a_node6"><a xlink:title=" ">
<polygon fill="none" stroke="#bfbfbf" points="363.5,-112.5 363.5,-131.5 419.5,-131.5 419.5,-112.5 363.5,-112.5"/>
<text text-anchor="middle" x="391.5" y="-119.5" font-family="Helvetica,sans-Serif" font-size="10.00">stdarg.h</text>
</a>
</g>
</g>
<!-- Node5&#45;&gt;Node6 -->
<g id="edge5" class="edge">
<title>Node5&#45;&gt;Node6</title>
<path fill="none" stroke="midnightblue" d="M483.83,-168.32C466.11,-159.62 438.6,-146.12 418.21,-136.11"/>
<polygon fill="midnightblue" stroke="midnightblue" points="419.65,-132.92 409.13,-131.65 416.56,-139.2 419.65,-132.92"/>
</g>
<!-- Node5&#45;&gt;Node7 -->
<g id="edge6" class="edge">
<title>Node5&#45;&gt;Node7</title>
<path fill="none" stroke="midnightblue" d="M492.96,-168.43C479.78,-155.43 453.38,-130.29 428.5,-112 412.74,-100.42 393.86,-89.1 378.98,-80.71"/>
<polygon fill="midnightblue" stroke="midnightblue" points="380.3,-77.44 369.86,-75.65 376.9,-83.56 380.3,-77.44"/>
</g>
<!-- Node9 -->
<g id="node9" class="node">
<title>Node9</title>
<g id="a_node9"><a xlink:href="ErrorBlinker_8h.html" target="_top" xlink:title=" ">
<polygon fill="none" stroke="black" points="514,-112.5 514,-131.5 625,-131.5 625,-112.5 514,-112.5"/>
<text text-anchor="middle" x="569.5" y="-119.5" font-family="Helvetica,sans-Serif" font-size="10.00">../Log/ErrorBlinker.h</text>
</a>
</g>
</g>
<!-- Node5&#45;&gt;Node9 -->
<g id="edge8" class="edge">
<title>Node5&#45;&gt;Node9</title>
<path fill="none" stroke="midnightblue" d="M512.43,-168.32C522.67,-160.18 538.22,-147.84 550.5,-138.09"/>
<polygon fill="midnightblue" stroke="midnightblue" points="552.72,-140.79 558.38,-131.83 548.37,-135.31 552.72,-140.79"/>
</g>
<!-- Node8 -->
<g id="node8" class="node">
<title>Node8</title>
<g id="a_node8"><a xlink:href="ColorConstants_8h.html" target="_top" xlink:title=" ">
<polygon fill="none" stroke="black" points="532.5,-0.5 532.5,-19.5 666.5,-19.5 666.5,-0.5 532.5,-0.5"/>
<text text-anchor="middle" x="599.5" y="-7.5" font-family="Helvetica,sans-Serif" font-size="10.00">Colors/ColorConstants.h</text>
</a>
</g>
</g>
<!-- Node7&#45;&gt;Node8 -->
<g id="edge7" class="edge">
<title>Node7&#45;&gt;Node8</title>
<path fill="none" stroke="midnightblue" d="M392.48,-56.44C435.39,-47.02 504.45,-31.87 550.87,-21.68"/>
<polygon fill="midnightblue" stroke="midnightblue" points="551.69,-25.08 560.7,-19.52 550.19,-18.24 551.69,-25.08"/>
</g>
<!-- Node9&#45;&gt;Node4 -->
<g id="edge9" class="edge">
<title>Node9&#45;&gt;Node4</title>
<path fill="none" stroke="midnightblue" d="M589.94,-112.44C611.17,-103.56 644.6,-89.56 668.75,-79.45"/>
<polygon fill="midnightblue" stroke="midnightblue" points="670.28,-82.61 678.16,-75.52 667.58,-76.15 670.28,-82.61"/>
</g>
<!-- Node9&#45;&gt;Node7 -->
<g id="edge10" class="edge">
<title>Node9&#45;&gt;Node7</title>
<path fill="none" stroke="midnightblue" d="M535.27,-112.44C497.99,-103.12 438.23,-88.18 397.49,-78"/>
<polygon fill="midnightblue" stroke="midnightblue" points="398.12,-74.55 387.57,-75.52 396.42,-81.34 398.12,-74.55"/>
</g>
<!-- Node10&#45;&gt;Node4 -->
<g id="edge12" class="edge">
<title>Node10&#45;&gt;Node4</title>
<path fill="none" stroke="midnightblue" d="M767.33,-112.32C754.65,-103.98 735.27,-91.21 720.29,-81.35"/>
<polygon fill="midnightblue" stroke="midnightblue" points="721.92,-78.23 711.64,-75.65 718.07,-84.08 721.92,-78.23"/>
</g>
<!-- Node10&#45;&gt;Node7 -->
<g id="edge13" class="edge">
<title>Node10&#45;&gt;Node7</title>
<path fill="none" stroke="midnightblue" d="M719.32,-113.26C637.39,-102.9 493,-84.64 412.3,-74.44"/>
<polygon fill="midnightblue" stroke="midnightblue" points="412.66,-70.95 402.3,-73.17 411.78,-77.9 412.66,-70.95"/>
</g>
<!-- Node10&#45;&gt;Node8 -->
<g id="edge14" class="edge">
<title>Node10&#45;&gt;Node8</title>
<path fill="none" stroke="midnightblue" d="M777.38,-112.49C771.87,-98.63 759.11,-71.21 739.5,-56 717.95,-39.29 690.01,-28.69 664.76,-22.01"/>
<polygon fill="midnightblue" stroke="midnightblue" points="665.42,-18.57 654.87,-19.55 663.73,-25.36 665.42,-18.57"/>
</g>
<!-- Node11&#45;&gt;Node4 -->
<g id="edge16" class="edge">
<title>Node11&#45;&gt;Node4</title>
<path fill="none" stroke="midnightblue" d="M401.13,-168.33C421.83,-154.5 464.67,-127.42 504.5,-112 554.78,-92.54 615.78,-80.09 655.79,-73.33"/>
<polygon fill="midnightblue" stroke="midnightblue" points="656.44,-76.77 665.74,-71.69 655.3,-69.86 656.44,-76.77"/>
</g>
<!-- Node12&#45;&gt;Node4 -->
<g id="edge18" class="edge">
<title>Node12&#45;&gt;Node4</title>
<path fill="none" stroke="midnightblue" d="M776.4,-224.46C809.11,-204.64 881.86,-154 850.5,-112 825.54,-78.59 776.87,-68.96 741.3,-66.67"/>
<polygon fill="midnightblue" stroke="midnightblue" points="741.35,-63.17 731.19,-66.19 741.01,-70.16 741.35,-63.17"/>
</g>
<!-- Node12&#45;&gt;Node10 -->
<g id="edge19" class="edge">
<title>Node12&#45;&gt;Node10</title>
<path fill="none" stroke="midnightblue" d="M764.2,-224.46C766.94,-215.48 771.1,-200.88 773.5,-188 776.36,-172.64 778.17,-155 779.23,-141.98"/>
<polygon fill="midnightblue" stroke="midnightblue" points="782.73,-142.13 779.98,-131.89 775.75,-141.61 782.73,-142.13"/>
</g>
<!-- Node13 -->
<g id="node13" class="node">
<title>Node13</title>
<g id="a_node13"><a xlink:href="LedTypes_8h.html" target="_top" xlink:title=" ">
<polygon fill="none" stroke="black" points="241,-168.5 241,-187.5 312,-187.5 312,-168.5 241,-168.5"/>
<text text-anchor="middle" x="276.5" y="-175.5" font-family="Helvetica,sans-Serif" font-size="10.00">LedTypes.h</text>
</a>
</g>
</g>
<!-- Node12&#45;&gt;Node13 -->
<g id="edge20" class="edge">
<title>Node12&#45;&gt;Node13</title>
<path fill="none" stroke="midnightblue" d="M719.98,-230.16C643.28,-224.6 474.04,-210.94 322.43,-188.17"/>
<polygon fill="midnightblue" stroke="midnightblue" points="322.88,-184.7 312.47,-186.66 321.83,-191.62 322.88,-184.7"/>
</g>
<!-- Node13&#45;&gt;Node4 -->
<g id="edge21" class="edge">
<title>Node13&#45;&gt;Node4</title>
<path fill="none" stroke="midnightblue" d="M283.66,-168.49C296.3,-154.11 324.14,-125.28 354.5,-112 407.71,-88.72 575.95,-74.98 655.73,-69.62"/>
<polygon fill="midnightblue" stroke="midnightblue" points="656.18,-73.09 665.92,-68.94 655.72,-66.11 656.18,-73.09"/>
</g>
<!-- Node13&#45;&gt;Node6 -->
<g id="edge22" class="edge">
<title>Node13&#45;&gt;Node6</title>
<path fill="none" stroke="midnightblue" d="M294.72,-168.44C313.4,-159.68 342.66,-145.94 364.12,-135.86"/>
<polygon fill="midnightblue" stroke="midnightblue" points="365.8,-138.93 373.36,-131.52 362.82,-132.6 365.8,-138.93"/>
</g>
<!-- Node13&#45;&gt;Node7 -->
<g id="edge23" class="edge">
<title>Node13&#45;&gt;Node7</title>
<path fill="none" stroke="midnightblue" d="M282.58,-168.14C291.19,-155.61 307.47,-132 321.5,-112 328.05,-102.66 335.42,-92.29 341.44,-83.85"/>
<polygon fill="midnightblue" stroke="midnightblue" points="344.37,-85.78 347.33,-75.6 338.67,-81.71 344.37,-85.78"/>
</g>
<!-- Node14&#45;&gt;Node7 -->
<g id="edge28" class="edge">
<title>Node14&#45;&gt;Node7</title>
<path fill="none" stroke="midnightblue" d="M244.75,-224.44C187.09,-206.91 72.28,-164.16 115.5,-112 137.83,-85.05 231.77,-74.12 294.74,-69.77"/>
<polygon fill="midnightblue" stroke="midnightblue" points="295.2,-73.25 304.95,-69.11 294.74,-66.26 295.2,-73.25"/>
</g>
<!-- Node14&#45;&gt;Node11 -->
<g id="edge27" class="edge">
<title>Node14&#45;&gt;Node11</title>
<path fill="none" stroke="midnightblue" d="M293.41,-224.44C311.75,-215.68 340.51,-201.94 361.59,-191.86"/>
<polygon fill="midnightblue" stroke="midnightblue" points="363.17,-194.99 370.68,-187.52 360.15,-188.67 363.17,-194.99"/>
</g>
<!-- Node14&#45;&gt;Node13 -->
<g id="edge29" class="edge">
<title>Node14&#45;&gt;Node13</title>
<path fill="none" stroke="midnightblue" d="M275.67,-224.08C275.8,-217.01 275.98,-206.86 276.15,-197.99"/>
<polygon fill="midnightblue" stroke="midnightblue" points="279.65,-197.81 276.34,-187.75 272.65,-197.68 279.65,-197.81"/>
</g>
<!-- Node15&#45;&gt;Node4 -->
<g id="edge31" class="edge">
<title>Node15&#45;&gt;Node4</title>
<path fill="none" stroke="midnightblue" d="M231.07,-115.82C332.17,-105.26 560.6,-81.4 655.7,-71.47"/>
<polygon fill="midnightblue" stroke="midnightblue" points="656.24,-74.93 665.82,-70.41 655.51,-67.97 656.24,-74.93"/>
</g>
<!-- Node15&#45;&gt;Node7 -->
<g id="edge32" class="edge">
<title>Node15&#45;&gt;Node7</title>
<path fill="none" stroke="midnightblue" d="M208.75,-112.44C237.94,-103.28 284.42,-88.69 316.81,-78.52"/>
<polygon fill="midnightblue" stroke="midnightblue" points="317.88,-81.85 326.37,-75.52 315.78,-75.17 317.88,-81.85"/>
</g>
<!-- Node16&#45;&gt;Node11 -->
<g id="edge38" class="edge">
<title>Node16&#45;&gt;Node11</title>
<path fill="none" stroke="midnightblue" d="M540.82,-224.44C509.97,-215.24 460.77,-200.56 426.67,-190.39"/>
<polygon fill="midnightblue" stroke="midnightblue" points="427.63,-187.02 417.05,-187.52 425.63,-193.73 427.63,-187.02"/>
</g>
<!-- Node16&#45;&gt;Node13 -->
<g id="edge34" class="edge">
<title>Node16&#45;&gt;Node13</title>
<path fill="none" stroke="midnightblue" d="M520.3,-224.45C472.19,-216.02 396.58,-202.55 322.06,-188.27"/>
<polygon fill="midnightblue" stroke="midnightblue" points="322.51,-184.79 312.03,-186.34 321.19,-191.67 322.51,-184.79"/>
</g>
<!-- Node16&#45;&gt;Node17 -->
<g id="edge35" class="edge">
<title>Node16&#45;&gt;Node17</title>
<path fill="none" stroke="midnightblue" d="M591.84,-224.44C615.25,-215.48 652.24,-201.31 678.69,-191.18"/>
<polygon fill="midnightblue" stroke="midnightblue" points="680.18,-194.36 688.26,-187.52 677.67,-187.82 680.18,-194.36"/>
</g>
<!-- Node18 -->
<g id="node18" class="node">
<title>Node18</title>
<g id="a_node18"><a xlink:href="PatternArgs_8h.html" target="_top" xlink:title=" ">
<polygon fill="none" stroke="black" points="555.5,-168.5 555.5,-187.5 637.5,-187.5 637.5,-168.5 555.5,-168.5"/>
<text text-anchor="middle" x="596.5" y="-175.5" font-family="Helvetica,sans-Serif" font-size="10.00">PatternArgs.h</text>
</a>
</g>
</g>
<!-- Node16&#45;&gt;Node18 -->
<g id="edge39" class="edge">
<title>Node16&#45;&gt;Node18</title>
<path fill="none" stroke="midnightblue" d="M573.96,-224.08C577.65,-216.69 583.02,-205.95 587.59,-196.81"/>
<polygon fill="midnightblue" stroke="midnightblue" points="590.78,-198.26 592.12,-187.75 584.52,-195.13 590.78,-198.26"/>
</g>
<!-- Node17&#45;&gt;Node7 -->
<g id="edge37" class="edge">
<title>Node17&#45;&gt;Node7</title>
<path fill="none" stroke="midnightblue" d="M703.01,-168.12C690.32,-153.73 663.07,-125.57 633.5,-112 562.05,-79.21 470.81,-69.82 412.26,-67.39"/>
<polygon fill="midnightblue" stroke="midnightblue" points="412.2,-63.89 402.08,-67.03 411.94,-70.88 412.2,-63.89"/>
</g>
<!-- Node17&#45;&gt;Node10 -->
<g id="edge36" class="edge">
<title>Node17&#45;&gt;Node10</title>
<path fill="none" stroke="midnightblue" d="M721.75,-168.32C732.3,-160.18 748.3,-147.84 760.94,-138.09"/>
<polygon fill="midnightblue" stroke="midnightblue" points="763.27,-140.71 769.05,-131.83 758.99,-135.17 763.27,-140.71"/>
</g>
<!-- Node18&#45;&gt;Node4 -->
<g id="edge40" class="edge">
<title>Node18&#45;&gt;Node4</title>
<path fill="none" stroke="midnightblue" d="M604.5,-168.37C621.56,-149.97 661.71,-106.67 683.62,-83.05"/>
<polygon fill="midnightblue" stroke="midnightblue" points="686.3,-85.3 690.53,-75.59 681.17,-80.54 686.3,-85.3"/>
</g>
<!-- Node19&#45;&gt;Node4 -->
<g id="edge43" class="edge">
<title>Node19&#45;&gt;Node4</title>
<path fill="none" stroke="midnightblue" d="M91.47,-224.46C126.62,-201.79 227.36,-139.9 320.5,-112 438.22,-76.73 584.37,-68.96 655.53,-67.34"/>
<polygon fill="midnightblue" stroke="midnightblue" points="655.95,-70.83 665.88,-67.14 655.81,-63.84 655.95,-70.83"/>
</g>
<!-- Node19&#45;&gt;Node7 -->
<g id="edge44" class="edge">
<title>Node19&#45;&gt;Node7</title>
<path fill="none" stroke="midnightblue" d="M70.29,-224.21C59.71,-211.76 43.55,-188.25 51.5,-168 63.91,-136.39 73.7,-128.29 103.5,-112 163.18,-79.38 241.68,-69.73 294.67,-67.21"/>
<polygon fill="midnightblue" stroke="midnightblue" points="295.06,-70.7 304.91,-66.8 294.78,-63.71 295.06,-70.7"/>
</g>
<!-- Node19&#45;&gt;Node13 -->
<g id="edge45" class="edge">
<title>Node19&#45;&gt;Node13</title>
<path fill="none" stroke="midnightblue" d="M109.87,-224.44C143.76,-215.2 197.9,-200.44 235.22,-190.26"/>
<polygon fill="midnightblue" stroke="midnightblue" points="236.55,-193.52 245.27,-187.52 234.7,-186.77 236.55,-193.52"/>
</g>
<!-- Node20&#45;&gt;Node4 -->
<g id="edge48" class="edge">
<title>Node20&#45;&gt;Node4</title>
<path fill="none" stroke="midnightblue" d="M1018.38,-280.39C1036.04,-273.59 1056.95,-262.15 1067.5,-244 1100.92,-186.49 1097.41,-180.98 981.5,-112 941.7,-88.31 810.09,-75.28 741.28,-69.93"/>
<polygon fill="midnightblue" stroke="midnightblue" points="741.43,-66.43 731.19,-69.17 740.9,-73.41 741.43,-66.43"/>
</g>
<!-- Node22 -->
<g id="node22" class="node">
<title>Node22</title>
<g id="a_node22"><a xlink:href="Button_8h.html" target="_top" xlink:title=" ">
<polygon fill="none" stroke="black" points="1115.5,-112.5 1115.5,-131.5 1173.5,-131.5 1173.5,-112.5 1115.5,-112.5"/>
<text text-anchor="middle" x="1144.5" y="-119.5" font-family="Helvetica,sans-Serif" font-size="10.00">Button.h</text>
</a>
</g>
</g>
<!-- Node21&#45;&gt;Node22 -->
<g id="edge50" class="edge">
<title>Node21&#45;&gt;Node22</title>
<path fill="none" stroke="midnightblue" d="M1123.68,-280.08C1127.15,-253.95 1137.32,-177.21 1142.04,-141.58"/>
<polygon fill="midnightblue" stroke="midnightblue" points="1145.52,-141.94 1143.36,-131.57 1138.58,-141.02 1145.52,-141.94"/>
</g>
<!-- Node22&#45;&gt;Node4 -->
<g id="edge51" class="edge">
<title>Node22&#45;&gt;Node4</title>
<path fill="none" stroke="midnightblue" d="M1115.43,-114.52C1110.78,-113.6 1106.02,-112.72 1101.5,-112 970.98,-91.1 815.12,-76.65 741.31,-70.43"/>
<polygon fill="midnightblue" stroke="midnightblue" points="741.29,-66.92 731.03,-69.58 740.7,-73.89 741.29,-66.92"/>
</g>
<!-- Node23&#45;&gt;Node7 -->
<g id="edge54" class="edge">
<title>Node23&#45;&gt;Node7</title>
<path fill="none" stroke="midnightblue" d="M38.29,-280.24C28.15,-272.14 14.46,-259.11 8.5,-244 5.24,-235.73 6.28,-232.61 8.5,-224 22.73,-168.91 23.91,-144.66 70.5,-112 105.73,-87.3 222.58,-75.43 294.65,-70.33"/>
<polygon fill="midnightblue" stroke="midnightblue" points="295.2,-73.8 304.94,-69.63 294.72,-66.82 295.2,-73.8"/>
</g>
<!-- Node23&#45;&gt;Node19 -->
<g id="edge53" class="edge">
<title>Node23&#45;&gt;Node19</title>
<path fill="none" stroke="midnightblue" d="M55.12,-280.08C58.96,-272.69 64.52,-261.95 69.26,-252.81"/>
<polygon fill="midnightblue" stroke="midnightblue" points="72.47,-254.24 73.96,-243.75 66.25,-251.02 72.47,-254.24"/>
</g>
<!-- Node24&#45;&gt;Node7 -->
<g id="edge58" class="edge">
<title>Node24&#45;&gt;Node7</title>
<path fill="none" stroke="midnightblue" d="M350.84,-224.46C282.94,-208.55 147.1,-172.29 122.5,-132 117.87,-124.41 116.85,-118.86 122.5,-112 143.9,-86.03 233.4,-74.85 294.5,-70.18"/>
<polygon fill="midnightblue" stroke="midnightblue" points="295.08,-73.65 304.8,-69.43 294.57,-66.66 295.08,-73.65"/>
</g>
<!-- Node24&#45;&gt;Node11 -->
<g id="edge57" class="edge">
<title>Node24&#45;&gt;Node11</title>
<path fill="none" stroke="midnightblue" d="M389.33,-224.08C389.2,-217.01 389.02,-206.86 388.85,-197.99"/>
<polygon fill="midnightblue" stroke="midnightblue" points="392.35,-197.68 388.66,-187.75 385.35,-197.81 392.35,-197.68"/>
</g>
<!-- Node24&#45;&gt;Node13 -->
<g id="edge56" class="edge">
<title>Node24&#45;&gt;Node13</title>
<path fill="none" stroke="midnightblue" d="M371.59,-224.44C353.25,-215.68 324.49,-201.94 303.41,-191.86"/>
<polygon fill="midnightblue" stroke="midnightblue" points="304.85,-188.67 294.32,-187.52 301.83,-194.99 304.85,-188.67"/>
</g>
</g>
</svg>
        <g id="navigator" transform="translate(0 0)" fill="#404254">
                <rect fill="#f2f5e9" fill-opacity="0.5" stroke="#606060" stroke-width=".5" x="0" y="0" width="60" height="60"/>
                <use id="zoomplus" xlink:href="#zoomPlus" x="17" y="9" onmousedown="handleZoom(evt,'in')"/>
                <use id="zoomminus" xlink:href="#zoomMin" x="42" y="9" onmousedown="handleZoom(evt,'out')"/>
                <use id="reset" xlink:href="#resetDef" x="30" y="36" onmousedown="handleReset()"/>
                <g id="arrowUp" xlink:href="#dirArrow" transform="translate(30 24)" onmousedown="handlePan(0,-1)">
                  <use xlink:href="#rim" fill="#404040">
                        <set attributeName="fill" to="#808080" begin="arrowUp.mouseover" end="arrowUp.mouseout"/>
                  </use>
                  <path fill="none" stroke="white" stroke-width="1.5" d="M0,-3.0v7 M-2.5,-0.5L0,-3.0L2.5,-0.5"/>
                </g>
                <g id="arrowRight" xlink:href="#dirArrow" transform="rotate(90) translate(36 -43)" onmousedown="handlePan(1,0)">
                  <use xlink:href="#rim" fill="#404040">
                        <set attributeName="fill" to="#808080" begin="arrowRight.mouseover" end="arrowRight.mouseout"/>
                  </use>
                  <path fill="none" stroke="white" stroke-width="1.5" d="M0,-3.0v7 M-2.5,-0.5L0,-3.0L2.5,-0.5"/>
                </g>
                <g id="arrowDown" xlink:href="#dirArrow" transform="rotate(180) translate(-30 -48)" onmousedown="handlePan(0,1)">
                  <use xlink:href="#rim" fill="#404040">
                        <set attributeName="fill" to="#808080" begin="arrowDown.mouseover" end="arrowDown.mouseout"/>
                  </use>
                  <path fill="none" stroke="white" stroke-width="1.5" d="M0,-3.0v7 M-2.5,-0.5L0,-3.0L2.5,-0.5"/>
                </g>
                <g id="arrowLeft" xlink:href="#dirArrow" transform="rotate(270) translate(-36 17)" onmousedown="handlePan(-1,0)">
                  <use xlink:href="#rim" fill="#404040">
                        <set attributeName="fill" to="#808080" begin="arrowLeft.mouseover" end="arrowLeft.mouseout"/>
                  </use>
                  <path fill="none" stroke="white" stroke-width="1.5" d="M0,-3.0v7 M-2.5,-0.5L0,-3.0L2.5,-0.5"/>
                </g>
        </g>
        <svg viewBox="0 0 15 15" width="100%" height="30px" preserveAspectRatio="xMaxYMin meet">
         <g id="arrow_out" transform="scale(0.3 0.3)">
          <a xlink:href="Modes_8cpp__incl_org.svg" target="_base">
           <rect id="button" ry="5" rx="5" y="6" x="6" height="38" width="38"
                fill="#f2f5e9" fill-opacity="0.5" stroke="#606060" stroke-width="1.0"/>
           <path id="arrow"
             d="M 11.500037,31.436501 C 11.940474,20.09759 22.043105,11.32322 32.158766,21.979434 L 37.068811,17.246167 C 37.068811,17.246167 37.088388,32 37.088388,32 L 22.160133,31.978069 C 22.160133,31.978069 26.997745,27.140456 26.997745,27.140456 C 18.528582,18.264221 13.291696,25.230495 11.500037,31.436501 z"
             style="fill:#404040;"/>
          </a>
         </g>
        </svg>
</svg>
