<?xml version="1.0" encoding="UTF-8" standalone="no"?>
<!DOCTYPE svg PUBLIC "-//W3C//DTD SVG 1.1//EN"
 "http://www.w3.org/Graphics/SVG/1.1/DTD/svg11.dtd">
<!-- Generated by graphviz version 2.43.0 (0)
 -->
<!-- Title: VortexEngine/src/Modes/Mode.h Pages: 1 -->
<!--zoomable 240 -->
<svg id="main" version="1.1" xmlns="http://www.w3.org/2000/svg" xmlns:xlink="http://www.w3.org/1999/xlink" xml:space="preserve" onload="init(evt)">
<style type="text/css"><![CDATA[
.edge:hover path { stroke: red; }
.edge:hover polygon { stroke: red; fill: red; }
]]></style>
<script type="text/javascript"><![CDATA[
var edges = document.getElementsByTagName('g');
if (edges && edges.length) {
  for (var i=0;i<edges.length;i++) {
    if (edges[i].id.substr(0,4)=='edge') {
      edges[i].setAttribute('class','edge');
    }
  }
}
]]></script>
        <defs>
                <circle id="rim" cx="0" cy="0" r="7"/>
                <circle id="rim2" cx="0" cy="0" r="3.5"/>
                <g id="zoomPlus">
                        <use xlink:href="#rim" fill="#404040">
                                <set attributeName="fill" to="#808080" begin="zoomplus.mouseover" end="zoomplus.mouseout"/>
                        </use>
                        <path d="M-4,0h8M0,-4v8" fill="none" stroke="white" stroke-width="1.5" pointer-events="none"/>
                </g>
                <g id="zoomMin">
                        <use xlink:href="#rim" fill="#404040">
                                <set attributeName="fill" to="#808080" begin="zoomminus.mouseover" end="zoomminus.mouseout"/>
                        </use>
                        <path d="M-4,0h8" fill="none" stroke="white" stroke-width="1.5" pointer-events="none"/>
                </g>
                <g id="dirArrow">
                        <path fill="none" stroke="white" stroke-width="1.5" d="M0,-3.0v7 M-2.5,-0.5L0,-3.0L2.5,-0.5"/>
                </g>
               <g id="resetDef">
                       <use xlink:href="#rim2" fill="#404040">
                               <set attributeName="fill" to="#808080" begin="reset.mouseover" end="reset.mouseout"/>
                       </use>
               </g>
        </defs>

<script type="text/javascript">
var viewWidth = 2444;
var viewHeight = 240;
var sectionId = 'dynsection-1';
</script>
<script xlink:href="svgpan.js"/>
<svg id="graph" class="graph">
<g id="viewport">
<title>VortexEngine/src/Modes/Mode.h</title>
<!-- Node1 -->
<g id="node1" class="node">
<title>Node1</title>
<g id="a_node1"><a xlink:title=" ">
<polygon fill="#bfbfbf" stroke="black" points="1433,-201.5 1433,-231.5 1567,-231.5 1567,-201.5 1433,-201.5"/>
<text text-anchor="start" x="1441" y="-219.5" font-family="Helvetica,sans-Serif" font-size="10.00">VortexEngine/src/Modes</text>
<text text-anchor="middle" x="1500" y="-208.5" font-family="Helvetica,sans-Serif" font-size="10.00">/Mode.h</text>
</a>
</g>
</g>
<!-- Node2 -->
<g id="node2" class="node">
<title>Node2</title>
<g id="a_node2"><a xlink:href="Menu_8cpp.html" target="_top" xlink:title=" ">
<polygon fill="none" stroke="black" points="605,-0.5 605,-30.5 739,-30.5 739,-0.5 605,-0.5"/>
<text text-anchor="start" x="613" y="-18.5" font-family="Helvetica,sans-Serif" font-size="10.00">VortexEngine/src/Menus</text>
<text text-anchor="middle" x="672" y="-7.5" font-family="Helvetica,sans-Serif" font-size="10.00">/Menu.cpp</text>
</a>
</g>
</g>
<!-- Node1&#45;&gt;Node2 -->
<g id="edge1" class="edge">
<title>Node1&#45;&gt;Node2</title>
<path fill="none" stroke="midnightblue" d="M1422.51,-214.84C1152.04,-211.72 262,-194.14 183,-98 174.25,-87.35 173.7,-77.17 183,-67 213.18,-33.98 539.62,-36.64 584,-31 590.76,-30.14 597.79,-29.15 604.81,-28.09"/>
<polygon fill="midnightblue" stroke="midnightblue" points="1422.6,-218.34 1432.63,-214.96 1422.67,-211.34 1422.6,-218.34"/>
</g>
<!-- Node3 -->
<g id="node3" class="node">
<title>Node3</title>
<g id="a_node3"><a xlink:href="Menu_8h.html" target="_top" xlink:title=" ">
<polygon fill="none" stroke="black" points="735,-134.5 735,-164.5 869,-164.5 869,-134.5 735,-134.5"/>
<text text-anchor="start" x="743" y="-152.5" font-family="Helvetica,sans-Serif" font-size="10.00">VortexEngine/src/Menus</text>
<text text-anchor="middle" x="802" y="-141.5" font-family="Helvetica,sans-Serif" font-size="10.00">/Menu.h</text>
</a>
</g>
</g>
<!-- Node1&#45;&gt;Node3 -->
<g id="edge2" class="edge">
<title>Node1&#45;&gt;Node3</title>
<path fill="none" stroke="midnightblue" d="M1422.7,-208.3C1284.94,-195.47 999.26,-168.87 869.16,-156.75"/>
<polygon fill="midnightblue" stroke="midnightblue" points="1422.47,-211.8 1432.76,-209.24 1423.12,-204.83 1422.47,-211.8"/>
</g>
<!-- Node5 -->
<g id="node5" class="node">
<title>Node5</title>
<g id="a_node5"><a xlink:href="ColorSelect_8cpp.html" target="_top" xlink:title=" ">
<polygon fill="none" stroke="black" points="1097.5,-0.5 1097.5,-30.5 1240.5,-30.5 1240.5,-0.5 1097.5,-0.5"/>
<text text-anchor="start" x="1105.5" y="-18.5" font-family="Helvetica,sans-Serif" font-size="10.00">VortexEngine/src/Menus</text>
<text text-anchor="middle" x="1169" y="-7.5" font-family="Helvetica,sans-Serif" font-size="10.00">/MenuList/ColorSelect.cpp</text>
</a>
</g>
</g>
<!-- Node1&#45;&gt;Node5 -->
<g id="edge25" class="edge">
<title>Node1&#45;&gt;Node5</title>
<path fill="none" stroke="midnightblue" d="M1509.72,-191.57C1521.11,-159.17 1534.92,-101.44 1505,-67 1467.47,-23.8 1306.51,-40.04 1250,-31 1246.9,-30.5 1243.73,-29.98 1240.53,-29.45"/>
<polygon fill="midnightblue" stroke="midnightblue" points="1506.36,-190.55 1506.16,-201.14 1512.92,-192.99 1506.36,-190.55"/>
</g>
<!-- Node7 -->
<g id="node7" class="node">
<title>Node7</title>
<g id="a_node7"><a xlink:href="EditorConnection_8h.html" target="_top" xlink:title=" ">
<polygon fill="none" stroke="black" points="192.5,-67.5 192.5,-97.5 351.5,-97.5 351.5,-67.5 192.5,-67.5"/>
<text text-anchor="start" x="200.5" y="-85.5" font-family="Helvetica,sans-Serif" font-size="10.00">VortexEngine/src/Menus</text>
<text text-anchor="middle" x="272" y="-74.5" font-family="Helvetica,sans-Serif" font-size="10.00">/MenuList/EditorConnection.h</text>
</a>
</g>
</g>
<!-- Node1&#45;&gt;Node7 -->
<g id="edge27" class="edge">
<title>Node1&#45;&gt;Node7</title>
<path fill="none" stroke="midnightblue" d="M1422.82,-213.34C1283.29,-208.79 979.97,-195.98 726,-165 586.49,-147.98 424.9,-115.99 337.06,-97.56"/>
<polygon fill="midnightblue" stroke="midnightblue" points="1422.88,-216.84 1432.99,-213.66 1423.1,-209.85 1422.88,-216.84"/>
</g>
<!-- Node8 -->
<g id="node8" class="node">
<title>Node8</title>
<g id="a_node8"><a xlink:href="EditorConnection_8cpp.html" target="_top" xlink:title=" ">
<polygon fill="none" stroke="black" points="0,-0.5 0,-30.5 170,-30.5 170,-0.5 0,-0.5"/>
<text text-anchor="start" x="8" y="-18.5" font-family="Helvetica,sans-Serif" font-size="10.00">VortexEngine/src/Menus</text>
<text text-anchor="middle" x="85" y="-7.5" font-family="Helvetica,sans-Serif" font-size="10.00">/MenuList/EditorConnection.cpp</text>
</a>
</g>
</g>
<!-- Node1&#45;&gt;Node8 -->
<g id="edge26" class="edge">
<title>Node1&#45;&gt;Node8</title>
<path fill="none" stroke="midnightblue" d="M1422.58,-214.74C1145,-211.76 213.32,-199.21 160,-165 111.62,-133.96 93.14,-61.45 87.3,-30.69"/>
<polygon fill="midnightblue" stroke="midnightblue" points="1422.92,-218.25 1432.96,-214.85 1423,-211.25 1422.92,-218.25"/>
</g>
<!-- Node10 -->
<g id="node10" class="node">
<title>Node10</title>
<g id="a_node10"><a xlink:href="FactoryReset_8cpp.html" target="_top" xlink:title=" ">
<polygon fill="none" stroke="black" points="233,-0.5 233,-30.5 383,-30.5 383,-0.5 233,-0.5"/>
<text text-anchor="start" x="241" y="-18.5" font-family="Helvetica,sans-Serif" font-size="10.00">VortexEngine/src/Menus</text>
<text text-anchor="middle" x="308" y="-7.5" font-family="Helvetica,sans-Serif" font-size="10.00">/MenuList/FactoryReset.cpp</text>
</a>
</g>
</g>
<!-- Node1&#45;&gt;Node10 -->
<g id="edge28" class="edge">
<title>Node1&#45;&gt;Node10</title>
<path fill="none" stroke="midnightblue" d="M1422.78,-214.7C1150.31,-211.6 247.39,-198.81 196,-165 157.72,-139.82 137.5,-104.38 164,-67 179.94,-44.52 206.69,-31.97 232.84,-25"/>
<polygon fill="midnightblue" stroke="midnightblue" points="1422.94,-218.2 1432.98,-214.82 1423.02,-211.2 1422.94,-218.2"/>
</g>
<!-- Node14 -->
<g id="node14" class="node">
<title>Node14</title>
<g id="a_node14"><a xlink:href="ModeSharing_8cpp.html" target="_top" xlink:title=" ">
<polygon fill="none" stroke="black" points="424.5,-0.5 424.5,-30.5 575.5,-30.5 575.5,-0.5 424.5,-0.5"/>
<text text-anchor="start" x="432.5" y="-18.5" font-family="Helvetica,sans-Serif" font-size="10.00">VortexEngine/src/Menus</text>
<text text-anchor="middle" x="500" y="-7.5" font-family="Helvetica,sans-Serif" font-size="10.00">/MenuList/ModeSharing.cpp</text>
</a>
</g>
</g>
<!-- Node1&#45;&gt;Node14 -->
<g id="edge29" class="edge">
<title>Node1&#45;&gt;Node14</title>
<path fill="none" stroke="midnightblue" d="M1422.4,-214.89C1168.98,-212.54 375.76,-202.26 267,-165 218.47,-148.37 196.5,-143.61 173,-98 166.69,-85.75 164.03,-77.46 173,-67 177.1,-62.22 328.83,-40.32 424.14,-26.98"/>
<polygon fill="midnightblue" stroke="midnightblue" points="1422.59,-218.39 1432.62,-214.98 1422.65,-211.39 1422.59,-218.39"/>
</g>
<!-- Node15 -->
<g id="node15" class="node">
<title>Node15</title>
<g id="a_node15"><a xlink:href="PatternSelect_8h.html" target="_top" xlink:title=" ">
<polygon fill="none" stroke="black" points="1052,-67.5 1052,-97.5 1192,-97.5 1192,-67.5 1052,-67.5"/>
<text text-anchor="start" x="1060" y="-85.5" font-family="Helvetica,sans-Serif" font-size="10.00">VortexEngine/src/Menus</text>
<text text-anchor="middle" x="1122" y="-74.5" font-family="Helvetica,sans-Serif" font-size="10.00">/MenuList/PatternSelect.h</text>
</a>
</g>
</g>
<!-- Node1&#45;&gt;Node15 -->
<g id="edge31" class="edge">
<title>Node1&#45;&gt;Node15</title>
<path fill="none" stroke="midnightblue" d="M1450.12,-198.08C1374.38,-171.63 1231.83,-121.85 1162.25,-97.56"/>
<polygon fill="midnightblue" stroke="midnightblue" points="1449.31,-201.51 1459.91,-201.5 1451.62,-194.9 1449.31,-201.51"/>
</g>
<!-- Node16 -->
<g id="node16" class="node">
<title>Node16</title>
<g id="a_node16"><a xlink:href="PatternSelect_8cpp.html" target="_top" xlink:title=" ">
<polygon fill="none" stroke="black" points="1259,-0.5 1259,-30.5 1411,-30.5 1411,-0.5 1259,-0.5"/>
<text text-anchor="start" x="1267" y="-18.5" font-family="Helvetica,sans-Serif" font-size="10.00">VortexEngine/src/Menus</text>
<text text-anchor="middle" x="1335" y="-7.5" font-family="Helvetica,sans-Serif" font-size="10.00">/MenuList/PatternSelect.cpp</text>
</a>
</g>
</g>
<!-- Node1&#45;&gt;Node16 -->
<g id="edge30" class="edge">
<title>Node1&#45;&gt;Node16</title>
<path fill="none" stroke="midnightblue" d="M1521.46,-193.44C1528.09,-185.19 1534.56,-175.3 1538,-165 1551.81,-123.69 1564.82,-101.32 1538,-67 1529.79,-56.5 1464.29,-41.45 1409.87,-30.51"/>
<polygon fill="midnightblue" stroke="midnightblue" points="1518.74,-191.24 1514.88,-201.1 1524.05,-195.8 1518.74,-191.24"/>
</g>
<!-- Node17 -->
<g id="node17" class="node">
<title>Node17</title>
<g id="a_node17"><a xlink:href="Randomizer_8h.html" target="_top" xlink:title=" ">
<polygon fill="none" stroke="black" points="1210,-67.5 1210,-97.5 1344,-97.5 1344,-67.5 1210,-67.5"/>
<text text-anchor="start" x="1218" y="-85.5" font-family="Helvetica,sans-Serif" font-size="10.00">VortexEngine/src/Menus</text>
<text text-anchor="middle" x="1277" y="-74.5" font-family="Helvetica,sans-Serif" font-size="10.00">/MenuList/Randomizer.h</text>
</a>
</g>
</g>
<!-- Node1&#45;&gt;Node17 -->
<g id="edge33" class="edge">
<title>Node1&#45;&gt;Node17</title>
<path fill="none" stroke="midnightblue" d="M1467.28,-196.13C1421.84,-169.24 1340.73,-121.22 1300.69,-97.52"/>
<polygon fill="midnightblue" stroke="midnightblue" points="1465.75,-199.29 1476.14,-201.37 1469.31,-193.27 1465.75,-199.29"/>
</g>
<!-- Node18 -->
<g id="node18" class="node">
<title>Node18</title>
<g id="a_node18"><a xlink:href="Randomizer_8cpp.html" target="_top" xlink:title=" ">
<polygon fill="none" stroke="black" points="1429.5,-0.5 1429.5,-30.5 1574.5,-30.5 1574.5,-0.5 1429.5,-0.5"/>
<text text-anchor="start" x="1437.5" y="-18.5" font-family="Helvetica,sans-Serif" font-size="10.00">VortexEngine/src/Menus</text>
<text text-anchor="middle" x="1502" y="-7.5" font-family="Helvetica,sans-Serif" font-size="10.00">/MenuList/Randomizer.cpp</text>
</a>
</g>
</g>
<!-- Node1&#45;&gt;Node18 -->
<g id="edge32" class="edge">
<title>Node1&#45;&gt;Node18</title>
<path fill="none" stroke="midnightblue" d="M1543.91,-196.46C1556.57,-188.65 1568.88,-178.27 1576,-165 1596.58,-126.61 1596.34,-105.51 1576,-67 1567.43,-50.77 1551.04,-38.77 1535.85,-30.56"/>
<polygon fill="midnightblue" stroke="midnightblue" points="1542.1,-193.46 1535.14,-201.45 1545.56,-199.54 1542.1,-193.46"/>
</g>
<!-- Node19 -->
<g id="node19" class="node">
<title>Node19</title>
<g id="a_node19"><a xlink:href="Menus_8h.html" target="_top" xlink:title=" ">
<polygon fill="none" stroke="black" points="1362,-67.5 1362,-97.5 1496,-97.5 1496,-67.5 1362,-67.5"/>
<text text-anchor="start" x="1370" y="-85.5" font-family="Helvetica,sans-Serif" font-size="10.00">VortexEngine/src/Menus</text>
<text text-anchor="middle" x="1429" y="-74.5" font-family="Helvetica,sans-Serif" font-size="10.00">/Menus.h</text>
</a>
</g>
</g>
<!-- Node1&#45;&gt;Node19 -->
<g id="edge34" class="edge">
<title>Node1&#45;&gt;Node19</title>
<path fill="none" stroke="midnightblue" d="M1487.62,-192.48C1472.88,-165.07 1448.73,-120.19 1436.54,-97.52"/>
<polygon fill="midnightblue" stroke="midnightblue" points="1484.58,-194.22 1492.4,-201.37 1490.75,-190.91 1484.58,-194.22"/>
</g>
<!-- Node20 -->
<g id="node20" class="node">
<title>Node20</title>
<g id="a_node20"><a xlink:href="VortexEngine_8cpp.html" target="_top" xlink:title=" ">
<polygon fill="none" stroke="black" points="1593,-6 1593,-25 1779,-25 1779,-6 1593,-6"/>
<text text-anchor="middle" x="1686" y="-13" font-family="Helvetica,sans-Serif" font-size="10.00">VortexEngine/src/VortexEngine.cpp</text>
</a>
</g>
</g>
<!-- Node1&#45;&gt;Node20 -->
<g id="edge44" class="edge">
<title>Node1&#45;&gt;Node20</title>
<path fill="none" stroke="midnightblue" d="M1546.78,-197.18C1563.6,-189.05 1581.88,-178.29 1596,-165 1641.88,-121.82 1672.83,-50.17 1682.65,-25.31"/>
<polygon fill="midnightblue" stroke="midnightblue" points="1545.22,-194.04 1537.62,-201.42 1548.17,-200.39 1545.22,-194.04"/>
</g>
<!-- Node21 -->
<g id="node21" class="node">
<title>Node21</title>
<g id="a_node21"><a xlink:href="Mode_8cpp.html" target="_top" xlink:title=" ">
<polygon fill="none" stroke="black" points="1666,-134.5 1666,-164.5 1800,-164.5 1800,-134.5 1666,-134.5"/>
<text text-anchor="start" x="1674" y="-152.5" font-family="Helvetica,sans-Serif" font-size="10.00">VortexEngine/src/Modes</text>
<text text-anchor="middle" x="1733" y="-141.5" font-family="Helvetica,sans-Serif" font-size="10.00">/Mode.cpp</text>
</a>
</g>
</g>
<!-- Node1&#45;&gt;Node21 -->
<g id="edge42" class="edge">
<title>Node1&#45;&gt;Node21</title>
<path fill="none" stroke="midnightblue" d="M1560.17,-198.71C1598.08,-188.14 1646.49,-174.63 1682.42,-164.61"/>
<polygon fill="midnightblue" stroke="midnightblue" points="1558.96,-195.42 1550.27,-201.48 1560.84,-202.16 1558.96,-195.42"/>
</g>
<!-- Node22 -->
<g id="node22" class="node">
<title>Node22</title>
<g id="a_node22"><a xlink:href="Modes_8cpp.html" target="_top" xlink:title=" ">
<polygon fill="none" stroke="black" points="1818,-134.5 1818,-164.5 1952,-164.5 1952,-134.5 1818,-134.5"/>
<text text-anchor="start" x="1826" y="-152.5" font-family="Helvetica,sans-Serif" font-size="10.00">VortexEngine/src/Modes</text>
<text text-anchor="middle" x="1885" y="-141.5" font-family="Helvetica,sans-Serif" font-size="10.00">/Modes.cpp</text>
</a>
</g>
</g>
<!-- Node1&#45;&gt;Node22 -->
<g id="edge43" class="edge">
<title>Node1&#45;&gt;Node22</title>
<path fill="none" stroke="midnightblue" d="M1577.48,-203.42C1640.03,-193.53 1730.28,-178.94 1809,-165 1811.91,-164.48 1814.88,-163.95 1817.88,-163.41"/>
<polygon fill="midnightblue" stroke="midnightblue" points="1576.63,-200.01 1567.3,-205.03 1577.72,-206.93 1576.63,-200.01"/>
</g>
<!-- Node23 -->
<g id="node23" class="node">
<title>Node23</title>
<g id="a_node23"><a xlink:href="IRReceiver_8cpp.html" target="_top" xlink:title=" ">
<polygon fill="none" stroke="black" points="1970.5,-134.5 1970.5,-164.5 2113.5,-164.5 2113.5,-134.5 1970.5,-134.5"/>
<text text-anchor="start" x="1978.5" y="-152.5" font-family="Helvetica,sans-Serif" font-size="10.00">VortexEngine/src/Wireless</text>
<text text-anchor="middle" x="2042" y="-141.5" font-family="Helvetica,sans-Serif" font-size="10.00">/IRReceiver.cpp</text>
</a>
</g>
</g>
<!-- Node1&#45;&gt;Node23 -->
<g id="edge45" class="edge">
<title>Node1&#45;&gt;Node23</title>
<path fill="none" stroke="midnightblue" d="M1577.4,-208.64C1669.16,-200.14 1826.58,-184.37 1961,-165 1964.11,-164.55 1967.29,-164.07 1970.49,-163.57"/>
<polygon fill="midnightblue" stroke="midnightblue" points="1577,-205.16 1567.37,-209.57 1577.65,-212.14 1577,-205.16"/>
</g>
<!-- Node24 -->
<g id="node24" class="node">
<title>Node24</title>
<g id="a_node24"><a xlink:href="IRSender_8cpp.html" target="_top" xlink:title=" ">
<polygon fill="none" stroke="black" points="2131.5,-134.5 2131.5,-164.5 2274.5,-164.5 2274.5,-134.5 2131.5,-134.5"/>
<text text-anchor="start" x="2139.5" y="-152.5" font-family="Helvetica,sans-Serif" font-size="10.00">VortexEngine/src/Wireless</text>
<text text-anchor="middle" x="2203" y="-141.5" font-family="Helvetica,sans-Serif" font-size="10.00">/IRSender.cpp</text>
</a>
</g>
</g>
<!-- Node1&#45;&gt;Node24 -->
<g id="edge46" class="edge">
<title>Node1&#45;&gt;Node24</title>
<path fill="none" stroke="midnightblue" d="M1577.09,-211.7C1695.04,-205.33 1927.23,-190.61 2123,-165 2125.66,-164.65 2128.36,-164.28 2131.09,-163.88"/>
<polygon fill="midnightblue" stroke="midnightblue" points="1576.87,-208.2 1567.07,-212.23 1577.24,-215.19 1576.87,-208.2"/>
</g>
<!-- Node25 -->
<g id="node25" class="node">
<title>Node25</title>
<g id="a_node25"><a xlink:href="VLSender_8cpp.html" target="_top" xlink:title=" ">
<polygon fill="none" stroke="black" points="2292.5,-134.5 2292.5,-164.5 2435.5,-164.5 2435.5,-134.5 2292.5,-134.5"/>
<text text-anchor="start" x="2300.5" y="-152.5" font-family="Helvetica,sans-Serif" font-size="10.00">VortexEngine/src/Wireless</text>
<text text-anchor="middle" x="2364" y="-141.5" font-family="Helvetica,sans-Serif" font-size="10.00">/VLSender.cpp</text>
</a>
</g>
</g>
<!-- Node1&#45;&gt;Node25 -->
<g id="edge47" class="edge">
<title>Node1&#45;&gt;Node25</title>
<path fill="none" stroke="midnightblue" d="M1577.37,-213.46C1718.34,-209.1 2026.28,-196.55 2284,-165 2286.66,-164.67 2289.37,-164.32 2292.1,-163.93"/>
<polygon fill="midnightblue" stroke="midnightblue" points="1576.99,-209.97 1567.1,-213.78 1577.2,-216.97 1576.99,-209.97"/>
</g>
<!-- Node3&#45;&gt;Node2 -->
<g id="edge3" class="edge">
<title>Node3&#45;&gt;Node2</title>
<path fill="none" stroke="midnightblue" d="M757.68,-129.91C742.15,-121.81 725.49,-111.13 713,-98 694.22,-78.26 682.17,-48.26 676.28,-30.69"/>
<polygon fill="midnightblue" stroke="midnightblue" points="756.14,-133.06 766.65,-134.38 759.26,-126.79 756.14,-133.06"/>
</g>
<!-- Node4 -->
<g id="node4" class="node">
<title>Node4</title>
<g id="a_node4"><a xlink:href="ColorSelect_8h.html" target="_top" xlink:title=" ">
<polygon fill="none" stroke="black" points="900,-67.5 900,-97.5 1034,-97.5 1034,-67.5 900,-67.5"/>
<text text-anchor="start" x="908" y="-85.5" font-family="Helvetica,sans-Serif" font-size="10.00">VortexEngine/src/Menus</text>
<text text-anchor="middle" x="967" y="-74.5" font-family="Helvetica,sans-Serif" font-size="10.00">/MenuList/ColorSelect.h</text>
</a>
</g>
</g>
<!-- Node3&#45;&gt;Node4 -->
<g id="edge4" class="edge">
<title>Node3&#45;&gt;Node4</title>
<path fill="none" stroke="midnightblue" d="M847.23,-130.68C873.69,-120.26 906.63,-107.28 931.27,-97.58"/>
<polygon fill="midnightblue" stroke="midnightblue" points="845.82,-127.47 837.8,-134.4 848.39,-133.99 845.82,-127.47"/>
</g>
<!-- Node3&#45;&gt;Node7 -->
<g id="edge7" class="edge">
<title>Node3&#45;&gt;Node7</title>
<path fill="none" stroke="midnightblue" d="M724.65,-140.83C636.3,-131.81 487.48,-115.77 360,-98 357.24,-97.62 354.43,-97.21 351.6,-96.8"/>
<polygon fill="midnightblue" stroke="midnightblue" points="724.55,-144.34 734.85,-141.87 725.26,-137.38 724.55,-144.34"/>
</g>
<!-- Node9 -->
<g id="node9" class="node">
<title>Node9</title>
<g id="a_node9"><a xlink:href="FactoryReset_8h.html" target="_top" xlink:title=" ">
<polygon fill="none" stroke="black" points="369.5,-67.5 369.5,-97.5 508.5,-97.5 508.5,-67.5 369.5,-67.5"/>
<text text-anchor="start" x="377.5" y="-85.5" font-family="Helvetica,sans-Serif" font-size="10.00">VortexEngine/src/Menus</text>
<text text-anchor="middle" x="439" y="-74.5" font-family="Helvetica,sans-Serif" font-size="10.00">/MenuList/FactoryReset.h</text>
</a>
</g>
</g>
<!-- Node3&#45;&gt;Node9 -->
<g id="edge10" class="edge">
<title>Node3&#45;&gt;Node9</title>
<path fill="none" stroke="midnightblue" d="M724.81,-134.89C667.68,-124.79 587.97,-110.64 518,-98 514.98,-97.45 511.9,-96.9 508.78,-96.33"/>
<polygon fill="midnightblue" stroke="midnightblue" points="724.39,-138.37 734.84,-136.67 725.61,-131.48 724.39,-138.37"/>
</g>
<!-- Node11 -->
<g id="node11" class="node">
<title>Node11</title>
<g id="a_node11"><a xlink:href="GlobalBrightness_8h.html" target="_top" xlink:title=" ">
<polygon fill="none" stroke="black" points="722.5,-67.5 722.5,-97.5 881.5,-97.5 881.5,-67.5 722.5,-67.5"/>
<text text-anchor="start" x="730.5" y="-85.5" font-family="Helvetica,sans-Serif" font-size="10.00">VortexEngine/src/Menus</text>
<text text-anchor="middle" x="802" y="-74.5" font-family="Helvetica,sans-Serif" font-size="10.00">/MenuList/GlobalBrightness.h</text>
</a>
</g>
</g>
<!-- Node3&#45;&gt;Node11 -->
<g id="edge13" class="edge">
<title>Node3&#45;&gt;Node11</title>
<path fill="none" stroke="midnightblue" d="M802,-124.11C802,-115.15 802,-105.32 802,-97.58"/>
<polygon fill="midnightblue" stroke="midnightblue" points="798.5,-124.4 802,-134.4 805.5,-124.4 798.5,-124.4"/>
</g>
<!-- Node13 -->
<g id="node13" class="node">
<title>Node13</title>
<g id="a_node13"><a xlink:href="ModeSharing_8h.html" target="_top" xlink:title=" ">
<polygon fill="none" stroke="black" points="527,-67.5 527,-97.5 667,-97.5 667,-67.5 527,-67.5"/>
<text text-anchor="start" x="535" y="-85.5" font-family="Helvetica,sans-Serif" font-size="10.00">VortexEngine/src/Menus</text>
<text text-anchor="middle" x="597" y="-74.5" font-family="Helvetica,sans-Serif" font-size="10.00">/MenuList/ModeSharing.h</text>
</a>
</g>
</g>
<!-- Node3&#45;&gt;Node13 -->
<g id="edge16" class="edge">
<title>Node3&#45;&gt;Node13</title>
<path fill="none" stroke="midnightblue" d="M748.21,-131.44C714.98,-120.91 672.85,-107.55 641.5,-97.61"/>
<polygon fill="midnightblue" stroke="midnightblue" points="747.18,-134.79 757.77,-134.48 749.3,-128.12 747.18,-134.79"/>
</g>
<!-- Node3&#45;&gt;Node15 -->
<g id="edge19" class="edge">
<title>Node3&#45;&gt;Node15</title>
<path fill="none" stroke="midnightblue" d="M879.11,-132.84C932.13,-122.07 1001.91,-107.89 1053.07,-97.5"/>
<polygon fill="midnightblue" stroke="midnightblue" points="878.19,-129.45 869.08,-134.87 879.58,-136.31 878.19,-129.45"/>
</g>
<!-- Node3&#45;&gt;Node17 -->
<g id="edge22" class="edge">
<title>Node3&#45;&gt;Node17</title>
<path fill="none" stroke="midnightblue" d="M879.31,-140.17C959.84,-131.15 1089.56,-115.66 1201,-98 1203.92,-97.54 1206.9,-97.05 1209.9,-96.54"/>
<polygon fill="midnightblue" stroke="midnightblue" points="878.8,-136.7 869.25,-141.29 879.58,-143.66 878.8,-136.7"/>
</g>
<!-- Node4&#45;&gt;Node5 -->
<g id="edge5" class="edge">
<title>Node4&#45;&gt;Node5</title>
<path fill="none" stroke="midnightblue" d="M1020.68,-64.23C1053.35,-53.71 1094.57,-40.45 1125.25,-30.58"/>
<polygon fill="midnightblue" stroke="midnightblue" points="1019.28,-61 1010.83,-67.4 1021.42,-67.66 1019.28,-61"/>
</g>
<!-- Node6 -->
<g id="node6" class="node">
<title>Node6</title>
<g id="a_node6"><a xlink:href="Menus_8cpp.html" target="_top" xlink:title=" ">
<polygon fill="none" stroke="black" points="757,-0.5 757,-30.5 891,-30.5 891,-0.5 757,-0.5"/>
<text text-anchor="start" x="765" y="-18.5" font-family="Helvetica,sans-Serif" font-size="10.00">VortexEngine/src/Menus</text>
<text text-anchor="middle" x="824" y="-7.5" font-family="Helvetica,sans-Serif" font-size="10.00">/Menus.cpp</text>
</a>
</g>
</g>
<!-- Node4&#45;&gt;Node6 -->
<g id="edge6" class="edge">
<title>Node4&#45;&gt;Node6</title>
<path fill="none" stroke="midnightblue" d="M926.59,-63.13C903.87,-52.8 875.94,-40.11 854.97,-30.58"/>
<polygon fill="midnightblue" stroke="midnightblue" points="925.42,-66.44 935.97,-67.4 928.32,-60.07 925.42,-66.44"/>
</g>
<!-- Node7&#45;&gt;Node6 -->
<g id="edge9" class="edge">
<title>Node7&#45;&gt;Node6</title>
<path fill="none" stroke="midnightblue" d="M361.74,-66.84C533.52,-45.29 579.79,-54.79 748,-31 750.93,-30.59 753.91,-30.14 756.92,-29.66"/>
<polygon fill="midnightblue" stroke="midnightblue" points="361.07,-63.39 351.59,-68.13 361.95,-70.34 361.07,-63.39"/>
</g>
<!-- Node7&#45;&gt;Node8 -->
<g id="edge8" class="edge">
<title>Node7&#45;&gt;Node8</title>
<path fill="none" stroke="midnightblue" d="M221.92,-64.09C191.73,-53.6 153.78,-40.41 125.5,-30.58"/>
<polygon fill="midnightblue" stroke="midnightblue" points="220.83,-67.42 231.42,-67.4 223.13,-60.81 220.83,-67.42"/>
</g>
<!-- Node9&#45;&gt;Node6 -->
<g id="edge12" class="edge">
<title>Node9&#45;&gt;Node6</title>
<path fill="none" stroke="midnightblue" d="M518.64,-66.92C621.65,-49.59 649.14,-48.16 748,-31 750.91,-30.49 753.88,-29.97 756.89,-29.43"/>
<polygon fill="midnightblue" stroke="midnightblue" points="518.04,-63.47 508.77,-68.59 519.21,-70.37 518.04,-63.47"/>
</g>
<!-- Node9&#45;&gt;Node10 -->
<g id="edge11" class="edge">
<title>Node9&#45;&gt;Node10</title>
<path fill="none" stroke="midnightblue" d="M401.42,-62.85C380.71,-52.58 355.41,-40.03 336.37,-30.58"/>
<polygon fill="midnightblue" stroke="midnightblue" points="400.06,-66.09 410.57,-67.4 403.17,-59.82 400.06,-66.09"/>
</g>
<!-- Node11&#45;&gt;Node6 -->
<g id="edge15" class="edge">
<title>Node11&#45;&gt;Node6</title>
<path fill="none" stroke="midnightblue" d="M810.06,-57.7C813.14,-48.59 816.56,-38.49 819.24,-30.58"/>
<polygon fill="midnightblue" stroke="midnightblue" points="806.66,-56.8 806.77,-67.4 813.29,-59.05 806.66,-56.8"/>
</g>
<!-- Node12 -->
<g id="node12" class="node">
<title>Node12</title>
<g id="a_node12"><a xlink:href="GlobalBrightness_8cpp.html" target="_top" xlink:title=" ">
<polygon fill="none" stroke="black" points="909,-0.5 909,-30.5 1079,-30.5 1079,-0.5 909,-0.5"/>
<text text-anchor="start" x="917" y="-18.5" font-family="Helvetica,sans-Serif" font-size="10.00">VortexEngine/src/Menus</text>
<text text-anchor="middle" x="994" y="-7.5" font-family="Helvetica,sans-Serif" font-size="10.00">/MenuList/GlobalBrightness.cpp</text>
</a>
</g>
</g>
<!-- Node11&#45;&gt;Node12 -->
<g id="edge14" class="edge">
<title>Node11&#45;&gt;Node12</title>
<path fill="none" stroke="midnightblue" d="M853.42,-64.09C884.42,-53.6 923.38,-40.41 952.42,-30.58"/>
<polygon fill="midnightblue" stroke="midnightblue" points="852.01,-60.87 843.66,-67.4 854.26,-67.5 852.01,-60.87"/>
</g>
<!-- Node13&#45;&gt;Node6 -->
<g id="edge18" class="edge">
<title>Node13&#45;&gt;Node6</title>
<path fill="none" stroke="midnightblue" d="M655.62,-64.71C692.56,-54.14 739.71,-40.63 774.72,-30.61"/>
<polygon fill="midnightblue" stroke="midnightblue" points="654.63,-61.36 645.98,-67.48 656.55,-68.09 654.63,-61.36"/>
</g>
<!-- Node13&#45;&gt;Node14 -->
<g id="edge17" class="edge">
<title>Node13&#45;&gt;Node14</title>
<path fill="none" stroke="midnightblue" d="M567.5,-61.73C552.49,-51.68 534.6,-39.68 521.01,-30.58"/>
<polygon fill="midnightblue" stroke="midnightblue" points="565.7,-64.74 575.95,-67.4 569.59,-58.92 565.7,-64.74"/>
</g>
<!-- Node15&#45;&gt;Node6 -->
<g id="edge21" class="edge">
<title>Node15&#45;&gt;Node6</title>
<path fill="none" stroke="midnightblue" d="M1047.8,-65.32C998.82,-54.63 935.29,-40.77 888.44,-30.55"/>
<polygon fill="midnightblue" stroke="midnightblue" points="1047.19,-68.76 1057.71,-67.48 1048.68,-61.93 1047.19,-68.76"/>
</g>
<!-- Node15&#45;&gt;Node16 -->
<g id="edge20" class="edge">
<title>Node15&#45;&gt;Node16</title>
<path fill="none" stroke="midnightblue" d="M1177.89,-64.44C1212.42,-53.91 1256.19,-40.55 1288.76,-30.61"/>
<polygon fill="midnightblue" stroke="midnightblue" points="1176.5,-61.21 1167.96,-67.48 1178.54,-67.9 1176.5,-61.21"/>
</g>
<!-- Node17&#45;&gt;Node6 -->
<g id="edge24" class="edge">
<title>Node17&#45;&gt;Node6</title>
<path fill="none" stroke="midnightblue" d="M1199.69,-66.87C1066.1,-46.6 1029.89,-51.13 900,-31 897.08,-30.55 894.1,-30.07 891.09,-29.56"/>
<polygon fill="midnightblue" stroke="midnightblue" points="1199.49,-70.38 1209.91,-68.44 1200.55,-63.46 1199.49,-70.38"/>
</g>
<!-- Node17&#45;&gt;Node18 -->
<g id="edge23" class="edge">
<title>Node17&#45;&gt;Node18</title>
<path fill="none" stroke="midnightblue" d="M1335.57,-64.58C1372.11,-54.02 1418.6,-40.59 1453.15,-30.61"/>
<polygon fill="midnightblue" stroke="midnightblue" points="1334.18,-61.34 1325.54,-67.48 1336.12,-68.06 1334.18,-61.34"/>
</g>
<!-- Node19&#45;&gt;Node2 -->
<g id="edge35" class="edge">
<title>Node19&#45;&gt;Node2</title>
<path fill="none" stroke="midnightblue" d="M1351.91,-66.98C1083.95,-34.43 1012.03,-63.9 748,-31 745.07,-30.63 742.08,-30.22 739.06,-29.78"/>
<polygon fill="midnightblue" stroke="midnightblue" points="1351.58,-70.47 1361.94,-68.22 1352.44,-63.52 1351.58,-70.47"/>
</g>
<!-- Node19&#45;&gt;Node5 -->
<g id="edge36" class="edge">
<title>Node19&#45;&gt;Node5</title>
<path fill="none" stroke="midnightblue" d="M1362.94,-64.98C1320.47,-54.37 1265.88,-40.72 1225.44,-30.61"/>
<polygon fill="midnightblue" stroke="midnightblue" points="1362.35,-68.45 1372.9,-67.48 1364.05,-61.66 1362.35,-68.45"/>
</g>
<!-- Node19&#45;&gt;Node6 -->
<g id="edge40" class="edge">
<title>Node19&#45;&gt;Node6</title>
<path fill="none" stroke="midnightblue" d="M1351.94,-66.96C1151.1,-40.6 1096.93,-57.53 900,-31 897.07,-30.61 894.08,-30.17 891.07,-29.71"/>
<polygon fill="midnightblue" stroke="midnightblue" points="1351.55,-70.44 1361.93,-68.29 1352.48,-63.5 1351.55,-70.44"/>
</g>
<!-- Node19&#45;&gt;Node12 -->
<g id="edge37" class="edge">
<title>Node19&#45;&gt;Node12</title>
<path fill="none" stroke="midnightblue" d="M1351.76,-66.85C1233.98,-47.85 1202.41,-47.59 1088,-31 1085.06,-30.57 1082.07,-30.14 1079.04,-29.69"/>
<polygon fill="midnightblue" stroke="midnightblue" points="1351.47,-70.35 1361.9,-68.5 1352.59,-63.44 1351.47,-70.35"/>
</g>
<!-- Node19&#45;&gt;Node16 -->
<g id="edge38" class="edge">
<title>Node19&#45;&gt;Node16</title>
<path fill="none" stroke="midnightblue" d="M1400.01,-61.45C1385.55,-51.45 1368.41,-39.6 1355.36,-30.58"/>
<polygon fill="midnightblue" stroke="midnightblue" points="1398.39,-64.59 1408.6,-67.4 1402.37,-58.83 1398.39,-64.59"/>
</g>
<!-- Node19&#45;&gt;Node18 -->
<g id="edge39" class="edge">
<title>Node19&#45;&gt;Node18</title>
<path fill="none" stroke="midnightblue" d="M1452.47,-60.6C1463.5,-50.78 1476.34,-39.34 1486.19,-30.58"/>
<polygon fill="midnightblue" stroke="midnightblue" points="1449.98,-58.13 1444.84,-67.4 1454.64,-63.36 1449.98,-58.13"/>
</g>
<!-- Node19&#45;&gt;Node20 -->
<g id="edge41" class="edge">
<title>Node19&#45;&gt;Node20</title>
<path fill="none" stroke="midnightblue" d="M1494.28,-64.99C1544.64,-52.25 1612.27,-35.15 1652.28,-25.03"/>
<polygon fill="midnightblue" stroke="midnightblue" points="1493.29,-61.63 1484.45,-67.48 1495,-68.42 1493.29,-61.63"/>
</g>
</g>
</svg>
        <g id="navigator" transform="translate(0 0)" fill="#404254">
                <rect fill="#f2f5e9" fill-opacity="0.5" stroke="#606060" stroke-width=".5" x="0" y="0" width="60" height="60"/>
                <use id="zoomplus" xlink:href="#zoomPlus" x="17" y="9" onmousedown="handleZoom(evt,'in')"/>
                <use id="zoomminus" xlink:href="#zoomMin" x="42" y="9" onmousedown="handleZoom(evt,'out')"/>
                <use id="reset" xlink:href="#resetDef" x="30" y="36" onmousedown="handleReset()"/>
                <g id="arrowUp" xlink:href="#dirArrow" transform="translate(30 24)" onmousedown="handlePan(0,-1)">
                  <use xlink:href="#rim" fill="#404040">
                        <set attributeName="fill" to="#808080" begin="arrowUp.mouseover" end="arrowUp.mouseout"/>
                  </use>
                  <path fill="none" stroke="white" stroke-width="1.5" d="M0,-3.0v7 M-2.5,-0.5L0,-3.0L2.5,-0.5"/>
                </g>
                <g id="arrowRight" xlink:href="#dirArrow" transform="rotate(90) translate(36 -43)" onmousedown="handlePan(1,0)">
                  <use xlink:href="#rim" fill="#404040">
                        <set attributeName="fill" to="#808080" begin="arrowRight.mouseover" end="arrowRight.mouseout"/>
                  </use>
                  <path fill="none" stroke="white" stroke-width="1.5" d="M0,-3.0v7 M-2.5,-0.5L0,-3.0L2.5,-0.5"/>
                </g>
                <g id="arrowDown" xlink:href="#dirArrow" transform="rotate(180) translate(-30 -48)" onmousedown="handlePan(0,1)">
                  <use xlink:href="#rim" fill="#404040">
                        <set attributeName="fill" to="#808080" begin="arrowDown.mouseover" end="arrowDown.mouseout"/>
                  </use>
                  <path fill="none" stroke="white" stroke-width="1.5" d="M0,-3.0v7 M-2.5,-0.5L0,-3.0L2.5,-0.5"/>
                </g>
                <g id="arrowLeft" xlink:href="#dirArrow" transform="rotate(270) translate(-36 17)" onmousedown="handlePan(-1,0)">
                  <use xlink:href="#rim" fill="#404040">
                        <set attributeName="fill" to="#808080" begin="arrowLeft.mouseover" end="arrowLeft.mouseout"/>
                  </use>
                  <path fill="none" stroke="white" stroke-width="1.5" d="M0,-3.0v7 M-2.5,-0.5L0,-3.0L2.5,-0.5"/>
                </g>
        </g>
        <svg viewBox="0 0 15 15" width="100%" height="30px" preserveAspectRatio="xMaxYMin meet">
         <g id="arrow_out" transform="scale(0.3 0.3)">
          <a xlink:href="Mode_8h__dep__incl_org.svg" target="_base">
           <rect id="button" ry="5" rx="5" y="6" x="6" height="38" width="38"
                fill="#f2f5e9" fill-opacity="0.5" stroke="#606060" stroke-width="1.0"/>
           <path id="arrow"
             d="M 11.500037,31.436501 C 11.940474,20.09759 22.043105,11.32322 32.158766,21.979434 L 37.068811,17.246167 C 37.068811,17.246167 37.088388,32 37.088388,32 L 22.160133,31.978069 C 22.160133,31.978069 26.997745,27.140456 26.997745,27.140456 C 18.528582,18.264221 13.291696,25.230495 11.500037,31.436501 z"
             style="fill:#404040;"/>
          </a>
         </g>
        </svg>
</svg>
