<?xml version="1.0" encoding="UTF-8" standalone="no"?>
<!DOCTYPE svg PUBLIC "-//W3C//DTD SVG 1.1//EN"
 "http://www.w3.org/Graphics/SVG/1.1/DTD/svg11.dtd">
<!-- Generated by graphviz version 2.43.0 (0)
 -->
<!-- Title: VortexEngine/src/Menus/MenuList/PatternSelect.cpp Pages: 1 -->
<svg width="1402pt" height="431pt"
 viewBox="0.00 0.00 1402.29 431.00" xmlns="http://www.w3.org/2000/svg" xmlns:xlink="http://www.w3.org/1999/xlink">
<g id="graph0" class="graph" transform="scale(1 1) rotate(0) translate(4 427)">
<title>VortexEngine/src/Menus/MenuList/PatternSelect.cpp</title>
<!-- Node1 -->
<g id="node1" class="node">
<title>Node1</title>
<g id="a_node1"><a xlink:title=" ">
<polygon fill="#bfbfbf" stroke="black" points="597.63,-392.5 597.63,-422.5 749.63,-422.5 749.63,-392.5 597.63,-392.5"/>
<text text-anchor="start" x="605.63" y="-410.5" font-family="Helvetica,sans-Serif" font-size="10.00">VortexEngine/src/Menus</text>
<text text-anchor="middle" x="673.63" y="-399.5" font-family="Helvetica,sans-Serif" font-size="10.00">/MenuList/PatternSelect.cpp</text>
</a>
</g>
</g>
<!-- Node2 -->
<g id="node2" class="node">
<title>Node2</title>
<g id="a_node2"><a xlink:href="PatternSelect_8h.html" target="_top" xlink:title=" ">
<polygon fill="none" stroke="black" points="421.63,-336.5 421.63,-355.5 511.63,-355.5 511.63,-336.5 421.63,-336.5"/>
<text text-anchor="middle" x="466.63" y="-343.5" font-family="Helvetica,sans-Serif" font-size="10.00">PatternSelect.h</text>
</a>
</g>
</g>
<!-- Node1&#45;&gt;Node2 -->
<g id="edge1" class="edge">
<title>Node1&#45;&gt;Node2</title>
<path fill="none" stroke="midnightblue" d="M624.84,-392.47C588.66,-382.08 539.96,-368.08 506.2,-358.37"/>
<polygon fill="midnightblue" stroke="midnightblue" points="506.8,-354.91 496.23,-355.51 504.87,-361.63 506.8,-354.91"/>
</g>
<!-- Node14 -->
<g id="node14" class="node">
<title>Node14</title>
<g id="a_node14"><a xlink:href="PatternBuilder_8h.html" target="_top" xlink:title=" ">
<polygon fill="none" stroke="black" points="913.13,-336.5 913.13,-355.5 1068.13,-355.5 1068.13,-336.5 913.13,-336.5"/>
<text text-anchor="middle" x="990.63" y="-343.5" font-family="Helvetica,sans-Serif" font-size="10.00">../../Patterns/PatternBuilder.h</text>
</a>
</g>
</g>
<!-- Node1&#45;&gt;Node14 -->
<g id="edge26" class="edge">
<title>Node1&#45;&gt;Node14</title>
<path fill="none" stroke="midnightblue" d="M748.36,-392.47C805.67,-381.72 883.5,-367.11 935.31,-357.38"/>
<polygon fill="midnightblue" stroke="midnightblue" points="936.13,-360.79 945.31,-355.51 934.84,-353.91 936.13,-360.79"/>
</g>
<!-- Node15 -->
<g id="node15" class="node">
<title>Node15</title>
<g id="a_node15"><a xlink:href="PatternArgs_8h.html" target="_top" xlink:title=" ">
<polygon fill="none" stroke="black" points="942.13,-168.5 942.13,-187.5 1085.13,-187.5 1085.13,-168.5 942.13,-168.5"/>
<text text-anchor="middle" x="1013.63" y="-175.5" font-family="Helvetica,sans-Serif" font-size="10.00">../../Patterns/PatternArgs.h</text>
</a>
</g>
</g>
<!-- Node1&#45;&gt;Node15 -->
<g id="edge28" class="edge">
<title>Node1&#45;&gt;Node15</title>
<path fill="none" stroke="midnightblue" d="M749.87,-402.31C860.67,-395.43 1055.4,-380.06 1076.63,-356 1119.21,-307.75 1058.75,-228.75 1028.78,-195.05"/>
<polygon fill="midnightblue" stroke="midnightblue" points="1031.22,-192.53 1021.89,-187.5 1026.05,-197.25 1031.22,-192.53"/>
</g>
<!-- Node16 -->
<g id="node16" class="node">
<title>Node16</title>
<g id="a_node16"><a xlink:href="Pattern_8h.html" target="_top" xlink:title=" ">
<polygon fill="none" stroke="black" points="804.13,-224.5 804.13,-243.5 925.13,-243.5 925.13,-224.5 804.13,-224.5"/>
<text text-anchor="middle" x="864.63" y="-231.5" font-family="Helvetica,sans-Serif" font-size="10.00">../../Patterns/Pattern.h</text>
</a>
</g>
</g>
<!-- Node1&#45;&gt;Node16 -->
<g id="edge30" class="edge">
<title>Node1&#45;&gt;Node16</title>
<path fill="none" stroke="midnightblue" d="M685.38,-392.16C705.96,-367.53 750.55,-316.35 794.63,-280 808.85,-268.28 826.28,-257.06 840.19,-248.76"/>
<polygon fill="midnightblue" stroke="midnightblue" points="842.31,-251.58 849.18,-243.51 838.78,-245.54 842.31,-251.58"/>
</g>
<!-- Node17 -->
<g id="node17" class="node">
<title>Node17</title>
<g id="a_node17"><a xlink:href="ByteStream_8h.html" target="_top" xlink:title=" ">
<polygon fill="none" stroke="black" points="577.63,-224.5 577.63,-243.5 709.63,-243.5 709.63,-224.5 577.63,-224.5"/>
<text text-anchor="middle" x="643.63" y="-231.5" font-family="Helvetica,sans-Serif" font-size="10.00">../../Serial/ByteStream.h</text>
</a>
</g>
</g>
<!-- Node1&#45;&gt;Node17 -->
<g id="edge35" class="edge">
<title>Node1&#45;&gt;Node17</title>
<path fill="none" stroke="midnightblue" d="M661.31,-392.22C645.5,-372.86 618.89,-336.49 608.63,-300 606.23,-291.44 605.75,-288.41 608.63,-280 612.35,-269.16 619.87,-258.92 626.98,-250.96"/>
<polygon fill="midnightblue" stroke="midnightblue" points="629.69,-253.19 634.08,-243.55 624.63,-248.35 629.69,-253.19"/>
</g>
<!-- Node18 -->
<g id="node18" class="node">
<title>Node18</title>
<g id="a_node18"><a xlink:href="Log_8h.html" target="_top" xlink:title=" ">
<polygon fill="none" stroke="black" points="35.63,-168.5 35.63,-187.5 107.63,-187.5 107.63,-168.5 35.63,-168.5"/>
<text text-anchor="middle" x="71.63" y="-175.5" font-family="Helvetica,sans-Serif" font-size="10.00">../Log/Log.h</text>
</a>
</g>
</g>
<!-- Node1&#45;&gt;Node18 -->
<g id="edge71" class="edge">
<title>Node1&#45;&gt;Node18</title>
<path fill="none" stroke="midnightblue" d="M597.39,-405.07C534.82,-401.26 445.33,-389.67 374.63,-356 294.46,-317.81 302.4,-266.88 224.63,-224 206.1,-213.78 155.16,-199.73 117.12,-190.06"/>
<polygon fill="midnightblue" stroke="midnightblue" points="117.81,-186.62 107.26,-187.57 116.1,-193.41 117.81,-186.62"/>
</g>
<!-- Node20 -->
<g id="node20" class="node">
<title>Node20</title>
<g id="a_node20"><a xlink:href="TimeControl_8h.html" target="_top" xlink:title=" ">
<polygon fill="none" stroke="black" points="126.13,-168.5 126.13,-187.5 257.13,-187.5 257.13,-168.5 126.13,-168.5"/>
<text text-anchor="middle" x="191.63" y="-175.5" font-family="Helvetica,sans-Serif" font-size="10.00">../../Time/TimeControl.h</text>
</a>
</g>
</g>
<!-- Node1&#45;&gt;Node20 -->
<g id="edge43" class="edge">
<title>Node1&#45;&gt;Node20</title>
<path fill="none" stroke="midnightblue" d="M597.59,-402.07C543.72,-396.53 470.97,-384.05 412.63,-356 331.09,-316.78 329.56,-278.9 257.63,-224 243.44,-213.17 226.83,-201.85 213.82,-193.27"/>
<polygon fill="midnightblue" stroke="midnightblue" points="215.36,-190.1 205.08,-187.56 211.53,-195.96 215.36,-190.1"/>
</g>
<!-- Node21 -->
<g id="node21" class="node">
<title>Node21</title>
<g id="a_node21"><a xlink:href="Button_8h.html" target="_top" xlink:title=" ">
<polygon fill="none" stroke="black" points="544.63,-112.5 544.63,-131.5 660.63,-131.5 660.63,-112.5 544.63,-112.5"/>
<text text-anchor="middle" x="602.63" y="-119.5" font-family="Helvetica,sans-Serif" font-size="10.00">../../Buttons/Button.h</text>
</a>
</g>
</g>
<!-- Node1&#45;&gt;Node21 -->
<g id="edge47" class="edge">
<title>Node1&#45;&gt;Node21</title>
<path fill="none" stroke="midnightblue" d="M655.76,-392.45C644.61,-383.03 630.56,-369.84 620.63,-356 588.65,-311.4 580.47,-297.59 568.63,-244 560.4,-206.71 579.31,-163.86 592.1,-140.48"/>
<polygon fill="midnightblue" stroke="midnightblue" points="595.19,-142.14 597.11,-131.72 589.11,-138.66 595.19,-142.14"/>
</g>
<!-- Node22 -->
<g id="node22" class="node">
<title>Node22</title>
<g id="a_node22"><a xlink:href="Random_8h.html" target="_top" xlink:title=" ">
<polygon fill="none" stroke="black" points="766.63,-336.5 766.63,-355.5 894.63,-355.5 894.63,-336.5 766.63,-336.5"/>
<text text-anchor="middle" x="830.63" y="-343.5" font-family="Helvetica,sans-Serif" font-size="10.00">../../Random/Random.h</text>
</a>
</g>
</g>
<!-- Node1&#45;&gt;Node22 -->
<g id="edge50" class="edge">
<title>Node1&#45;&gt;Node22</title>
<path fill="none" stroke="midnightblue" d="M710.84,-392.4C737.42,-382.33 772.82,-368.91 798.24,-359.28"/>
<polygon fill="midnightblue" stroke="midnightblue" points="799.68,-362.47 807.79,-355.66 797.2,-355.93 799.68,-362.47"/>
</g>
<!-- Node24 -->
<g id="node24" class="node">
<title>Node24</title>
<g id="a_node24"><a xlink:href="Timings_8h.html" target="_top" xlink:title=" ">
<polygon fill="none" stroke="black" points="105.63,-224.5 105.63,-243.5 215.63,-243.5 215.63,-224.5 105.63,-224.5"/>
<text text-anchor="middle" x="160.63" y="-231.5" font-family="Helvetica,sans-Serif" font-size="10.00">../../Time/Timings.h</text>
</a>
</g>
</g>
<!-- Node1&#45;&gt;Node24 -->
<g id="edge52" class="edge">
<title>Node1&#45;&gt;Node24</title>
<path fill="none" stroke="midnightblue" d="M597.19,-406C486.48,-403.91 288.33,-394.7 229.63,-356 192.9,-331.78 173.53,-280.87 165.39,-253.44"/>
<polygon fill="midnightblue" stroke="midnightblue" points="168.7,-252.27 162.66,-243.57 161.96,-254.15 168.7,-252.27"/>
</g>
<!-- Node25 -->
<g id="node25" class="node">
<title>Node25</title>
<g id="a_node25"><a xlink:href="Modes_8h.html" target="_top" xlink:title=" ">
<polygon fill="none" stroke="black" points="1206.13,-280.5 1206.13,-299.5 1317.13,-299.5 1317.13,-280.5 1206.13,-280.5"/>
<text text-anchor="middle" x="1261.63" y="-287.5" font-family="Helvetica,sans-Serif" font-size="10.00">../../Modes/Modes.h</text>
</a>
</g>
</g>
<!-- Node1&#45;&gt;Node25 -->
<g id="edge55" class="edge">
<title>Node1&#45;&gt;Node25</title>
<path fill="none" stroke="midnightblue" d="M749.7,-405.02C874.03,-401.62 1114.64,-390.64 1191.63,-356 1215.4,-345.31 1236.37,-323.25 1249.02,-307.81"/>
<polygon fill="midnightblue" stroke="midnightblue" points="1252.03,-309.64 1255.46,-299.61 1246.53,-305.31 1252.03,-309.64"/>
</g>
<!-- Node26 -->
<g id="node26" class="node">
<title>Node26</title>
<g id="a_node26"><a xlink:href="Leds_8h.html" target="_top" xlink:title=" ">
<polygon fill="none" stroke="black" points="1294.13,-168.5 1294.13,-187.5 1377.13,-187.5 1377.13,-168.5 1294.13,-168.5"/>
<text text-anchor="middle" x="1335.63" y="-175.5" font-family="Helvetica,sans-Serif" font-size="10.00">../Leds/Leds.h</text>
</a>
</g>
</g>
<!-- Node1&#45;&gt;Node26 -->
<g id="edge70" class="edge">
<title>Node1&#45;&gt;Node26</title>
<path fill="none" stroke="midnightblue" d="M749.7,-403.16C878.63,-396.89 1134.48,-381.62 1220.63,-356 1271.7,-340.81 1297.46,-344.58 1326.63,-300 1346.94,-268.97 1343.57,-223.4 1339.49,-197.96"/>
<polygon fill="midnightblue" stroke="midnightblue" points="1342.88,-197.02 1337.65,-187.81 1335.99,-198.28 1342.88,-197.02"/>
</g>
<!-- Node27 -->
<g id="node27" class="node">
<title>Node27</title>
<g id="a_node27"><a xlink:href="Menus_8h.html" target="_top" xlink:title=" ">
<polygon fill="none" stroke="black" points="618.13,-280.5 618.13,-299.5 729.13,-299.5 729.13,-280.5 618.13,-280.5"/>
<text text-anchor="middle" x="673.63" y="-287.5" font-family="Helvetica,sans-Serif" font-size="10.00">../../Menus/Menus.h</text>
</a>
</g>
</g>
<!-- Node1&#45;&gt;Node27 -->
<g id="edge65" class="edge">
<title>Node1&#45;&gt;Node27</title>
<path fill="none" stroke="midnightblue" d="M673.63,-392.34C673.63,-371.62 673.63,-333.02 673.63,-309.9"/>
<polygon fill="midnightblue" stroke="midnightblue" points="677.13,-309.67 673.63,-299.67 670.13,-309.67 677.13,-309.67"/>
</g>
<!-- Node3 -->
<g id="node3" class="node">
<title>Node3</title>
<g id="a_node3"><a xlink:href="Menu_8h.html" target="_top" xlink:title=" ">
<polygon fill="none" stroke="black" points="423.63,-280.5 423.63,-299.5 485.63,-299.5 485.63,-280.5 423.63,-280.5"/>
<text text-anchor="middle" x="454.63" y="-287.5" font-family="Helvetica,sans-Serif" font-size="10.00">../Menu.h</text>
</a>
</g>
</g>
<!-- Node2&#45;&gt;Node3 -->
<g id="edge2" class="edge">
<title>Node2&#45;&gt;Node3</title>
<path fill="none" stroke="midnightblue" d="M464.65,-336.08C463.06,-328.93 460.77,-318.64 458.79,-309.69"/>
<polygon fill="midnightblue" stroke="midnightblue" points="462.16,-308.75 456.58,-299.75 455.33,-310.27 462.16,-308.75"/>
</g>
<!-- Node10 -->
<g id="node10" class="node">
<title>Node10</title>
<g id="a_node10"><a xlink:href="Mode_8h.html" target="_top" xlink:title=" ">
<polygon fill="none" stroke="black" points="310.13,-224.5 310.13,-243.5 407.13,-243.5 407.13,-224.5 310.13,-224.5"/>
<text text-anchor="middle" x="358.63" y="-231.5" font-family="Helvetica,sans-Serif" font-size="10.00">../Modes/Mode.h</text>
</a>
</g>
</g>
<!-- Node2&#45;&gt;Node10 -->
<g id="edge25" class="edge">
<title>Node2&#45;&gt;Node10</title>
<path fill="none" stroke="midnightblue" d="M455.87,-336.47C445.07,-327.72 428.13,-313.52 414.63,-300 399.1,-284.43 382.85,-265.2 371.89,-251.71"/>
<polygon fill="midnightblue" stroke="midnightblue" points="374.5,-249.37 365.5,-243.77 369.04,-253.75 374.5,-249.37"/>
</g>
<!-- Node13 -->
<g id="node13" class="node">
<title>Node13</title>
<g id="a_node13"><a xlink:href="Colorset_8h.html" target="_top" xlink:title=" ">
<polygon fill="none" stroke="black" points="729.63,-168.5 729.63,-187.5 847.63,-187.5 847.63,-168.5 729.63,-168.5"/>
<text text-anchor="middle" x="788.63" y="-175.5" font-family="Helvetica,sans-Serif" font-size="10.00">../../Colors/Colorset.h</text>
</a>
</g>
</g>
<!-- Node2&#45;&gt;Node13 -->
<g id="edge22" class="edge">
<title>Node2&#45;&gt;Node13</title>
<path fill="none" stroke="midnightblue" d="M483.85,-336.35C510.29,-323.24 562.68,-297.97 608.63,-280 656.54,-261.26 674.31,-270.11 718.63,-244 740.61,-231.05 761.45,-210.2 774.58,-195.61"/>
<polygon fill="midnightblue" stroke="midnightblue" points="777.42,-197.69 781.38,-187.86 772.15,-193.07 777.42,-197.69"/>
</g>
<!-- Node4 -->
<g id="node4" class="node">
<title>Node4</title>
<g id="a_node4"><a xlink:title=" ">
<polygon fill="none" stroke="#bfbfbf" points="762.13,-56.5 762.13,-75.5 827.13,-75.5 827.13,-56.5 762.13,-56.5"/>
<text text-anchor="middle" x="794.63" y="-63.5" font-family="Helvetica,sans-Serif" font-size="10.00">inttypes.h</text>
</a>
</g>
</g>
<!-- Node3&#45;&gt;Node4 -->
<g id="edge3" class="edge">
<title>Node3&#45;&gt;Node4</title>
<path fill="none" stroke="midnightblue" d="M467.96,-280.3C519.8,-246.45 708.31,-123.37 772.81,-81.25"/>
<polygon fill="midnightblue" stroke="midnightblue" points="774.94,-84.04 781.4,-75.64 771.11,-78.18 774.94,-84.04"/>
</g>
<!-- Node5 -->
<g id="node5" class="node">
<title>Node5</title>
<g id="a_node5"><a xlink:href="ColorTypes_8h.html" target="_top" xlink:title=" ">
<polygon fill="none" stroke="black" points="1024.63,-112.5 1024.63,-131.5 1146.63,-131.5 1146.63,-112.5 1024.63,-112.5"/>
<text text-anchor="middle" x="1085.63" y="-119.5" font-family="Helvetica,sans-Serif" font-size="10.00">../Colors/ColorTypes.h</text>
</a>
</g>
</g>
<!-- Node3&#45;&gt;Node5 -->
<g id="edge4" class="edge">
<title>Node3&#45;&gt;Node5</title>
<path fill="none" stroke="midnightblue" d="M485.85,-287.06C577.97,-281.18 847.55,-262.82 933.63,-244 1007.24,-227.91 1050.04,-249.45 1093.63,-188 1103.18,-174.55 1099.34,-155.48 1094.22,-141.47"/>
<polygon fill="midnightblue" stroke="midnightblue" points="1097.32,-139.82 1090.25,-131.92 1090.86,-142.5 1097.32,-139.82"/>
</g>
<!-- Node8 -->
<g id="node8" class="node">
<title>Node8</title>
<g id="a_node8"><a xlink:href="LedTypes_8h.html" target="_top" xlink:title=" ">
<polygon fill="none" stroke="black" points="383.13,-112.5 383.13,-131.5 488.13,-131.5 488.13,-112.5 383.13,-112.5"/>
<text text-anchor="middle" x="435.63" y="-119.5" font-family="Helvetica,sans-Serif" font-size="10.00">../Leds/LedTypes.h</text>
</a>
</g>
</g>
<!-- Node3&#45;&gt;Node8 -->
<g id="edge9" class="edge">
<title>Node3&#45;&gt;Node8</title>
<path fill="none" stroke="midnightblue" d="M453.61,-280.08C450.62,-253.95 441.84,-177.21 437.76,-141.58"/>
<polygon fill="midnightblue" stroke="midnightblue" points="441.23,-141.11 436.61,-131.57 434.27,-141.9 441.23,-141.11"/>
</g>
<!-- Node3&#45;&gt;Node10 -->
<g id="edge13" class="edge">
<title>Node3&#45;&gt;Node10</title>
<path fill="none" stroke="midnightblue" d="M439.21,-280.32C424.09,-271.82 400.82,-258.73 383.16,-248.8"/>
<polygon fill="midnightblue" stroke="midnightblue" points="384.45,-245.51 374.02,-243.65 381.02,-251.61 384.45,-245.51"/>
</g>
<!-- Node5&#45;&gt;Node4 -->
<g id="edge5" class="edge">
<title>Node5&#45;&gt;Node4</title>
<path fill="none" stroke="midnightblue" d="M1039.52,-112.44C983.97,-102.13 891.38,-84.95 837.37,-74.93"/>
<polygon fill="midnightblue" stroke="midnightblue" points="837.9,-71.47 827.43,-73.09 836.63,-78.35 837.9,-71.47"/>
</g>
<!-- Node6 -->
<g id="node6" class="node">
<title>Node6</title>
<g id="a_node6"><a xlink:href="VortexConfig_8h.html" target="_top" xlink:title=" ">
<polygon fill="none" stroke="black" points="327.13,-56.5 327.13,-75.5 424.13,-75.5 424.13,-56.5 327.13,-56.5"/>
<text text-anchor="middle" x="375.63" y="-63.5" font-family="Helvetica,sans-Serif" font-size="10.00">../VortexConfig.h</text>
</a>
</g>
</g>
<!-- Node5&#45;&gt;Node6 -->
<g id="edge6" class="edge">
<title>Node5&#45;&gt;Node6</title>
<path fill="none" stroke="midnightblue" d="M1024.48,-116.35C889.42,-106.08 567.13,-81.56 434.35,-71.47"/>
<polygon fill="midnightblue" stroke="midnightblue" points="434.6,-67.97 424.36,-70.71 434.07,-74.95 434.6,-67.97"/>
</g>
<!-- Node7 -->
<g id="node7" class="node">
<title>Node7</title>
<g id="a_node7"><a xlink:href="ColorConstants_8h.html" target="_top" xlink:title=" ">
<polygon fill="none" stroke="black" points="621.63,-0.5 621.63,-19.5 755.63,-19.5 755.63,-0.5 621.63,-0.5"/>
<text text-anchor="middle" x="688.63" y="-7.5" font-family="Helvetica,sans-Serif" font-size="10.00">Colors/ColorConstants.h</text>
</a>
</g>
</g>
<!-- Node5&#45;&gt;Node7 -->
<g id="edge8" class="edge">
<title>Node5&#45;&gt;Node7</title>
<path fill="none" stroke="midnightblue" d="M1054.81,-112.46C983.79,-92.78 808.64,-44.25 729.1,-22.21"/>
<polygon fill="midnightblue" stroke="midnightblue" points="730.01,-18.83 719.44,-19.53 728.14,-25.58 730.01,-18.83"/>
</g>
<!-- Node6&#45;&gt;Node7 -->
<g id="edge7" class="edge">
<title>Node6&#45;&gt;Node7</title>
<path fill="none" stroke="midnightblue" d="M424.2,-56.62C479.47,-47.09 569.76,-31.51 629.19,-21.26"/>
<polygon fill="midnightblue" stroke="midnightblue" points="629.92,-24.68 639.18,-19.53 628.73,-17.78 629.92,-24.68"/>
</g>
<!-- Node8&#45;&gt;Node4 -->
<g id="edge10" class="edge">
<title>Node8&#45;&gt;Node4</title>
<path fill="none" stroke="midnightblue" d="M488.22,-113.09C559.58,-102.36 685.72,-83.38 751.7,-73.46"/>
<polygon fill="midnightblue" stroke="midnightblue" points="752.39,-76.89 761.75,-71.95 751.34,-69.97 752.39,-76.89"/>
</g>
<!-- Node8&#45;&gt;Node6 -->
<g id="edge12" class="edge">
<title>Node8&#45;&gt;Node6</title>
<path fill="none" stroke="midnightblue" d="M425.99,-112.32C417.12,-104.34 403.76,-92.31 393.03,-82.65"/>
<polygon fill="midnightblue" stroke="midnightblue" points="395.22,-79.92 385.45,-75.83 390.54,-85.13 395.22,-79.92"/>
</g>
<!-- Node9 -->
<g id="node9" class="node">
<title>Node9</title>
<g id="a_node9"><a xlink:title=" ">
<polygon fill="none" stroke="#bfbfbf" points="107.63,-56.5 107.63,-75.5 163.63,-75.5 163.63,-56.5 107.63,-56.5"/>
<text text-anchor="middle" x="135.63" y="-63.5" font-family="Helvetica,sans-Serif" font-size="10.00">stdarg.h</text>
</a>
</g>
</g>
<!-- Node8&#45;&gt;Node9 -->
<g id="edge11" class="edge">
<title>Node8&#45;&gt;Node9</title>
<path fill="none" stroke="midnightblue" d="M388.1,-112.44C328.81,-101.77 228.6,-83.73 173.96,-73.9"/>
<polygon fill="midnightblue" stroke="midnightblue" points="174.45,-70.43 163.99,-72.1 173.21,-77.32 174.45,-70.43"/>
</g>
<!-- Node10&#45;&gt;Node6 -->
<g id="edge17" class="edge">
<title>Node10&#45;&gt;Node6</title>
<path fill="none" stroke="midnightblue" d="M309.86,-229.89C222.11,-223.79 44.98,-209 26.63,-188 -56.79,-92.5 196.88,-72.34 316.67,-68.11"/>
<polygon fill="midnightblue" stroke="midnightblue" points="316.91,-71.6 326.79,-67.78 316.68,-64.61 316.91,-71.6"/>
</g>
<!-- Node10&#45;&gt;Node8 -->
<g id="edge14" class="edge">
<title>Node10&#45;&gt;Node8</title>
<path fill="none" stroke="midnightblue" d="M364.68,-224.37C377.38,-206.22 407.07,-163.8 423.74,-139.99"/>
<polygon fill="midnightblue" stroke="midnightblue" points="426.75,-141.79 429.62,-131.59 421.02,-137.78 426.75,-141.79"/>
</g>
<!-- Node11 -->
<g id="node11" class="node">
<title>Node11</title>
<g id="a_node11"><a xlink:href="Patterns_8h.html" target="_top" xlink:title=" ">
<polygon fill="none" stroke="black" points="805.13,-112.5 805.13,-131.5 922.13,-131.5 922.13,-112.5 805.13,-112.5"/>
<text text-anchor="middle" x="863.63" y="-119.5" font-family="Helvetica,sans-Serif" font-size="10.00">../Patterns/Patterns.h</text>
</a>
</g>
</g>
<!-- Node10&#45;&gt;Node11 -->
<g id="edge15" class="edge">
<title>Node10&#45;&gt;Node11</title>
<path fill="none" stroke="midnightblue" d="M397.84,-224.46C488.92,-204.62 714.61,-155.46 814.61,-133.68"/>
<polygon fill="midnightblue" stroke="midnightblue" points="815.43,-137.08 824.45,-131.53 813.94,-130.24 815.43,-137.08"/>
</g>
<!-- Node12 -->
<g id="node12" class="node">
<title>Node12</title>
<g id="a_node12"><a xlink:href="DefaultModes_8h.html" target="_top" xlink:title=" ">
<polygon fill="none" stroke="black" points="275.63,-168.5 275.63,-187.5 369.63,-187.5 369.63,-168.5 275.63,-168.5"/>
<text text-anchor="middle" x="322.63" y="-175.5" font-family="Helvetica,sans-Serif" font-size="10.00">DefaultModes.h</text>
</a>
</g>
</g>
<!-- Node10&#45;&gt;Node12 -->
<g id="edge18" class="edge">
<title>Node10&#45;&gt;Node12</title>
<path fill="none" stroke="midnightblue" d="M352.69,-224.08C347.66,-216.53 340.3,-205.49 334.12,-196.23"/>
<polygon fill="midnightblue" stroke="midnightblue" points="336.93,-194.13 328.47,-187.75 331.1,-198.01 336.93,-194.13"/>
</g>
<!-- Node11&#45;&gt;Node4 -->
<g id="edge16" class="edge">
<title>Node11&#45;&gt;Node4</title>
<path fill="none" stroke="midnightblue" d="M852.55,-112.32C842.15,-104.18 826.37,-91.84 813.91,-82.09"/>
<polygon fill="midnightblue" stroke="midnightblue" points="815.95,-79.24 805.92,-75.83 811.64,-84.75 815.95,-79.24"/>
</g>
<!-- Node12&#45;&gt;Node6 -->
<g id="edge21" class="edge">
<title>Node12&#45;&gt;Node6</title>
<path fill="none" stroke="midnightblue" d="M326.79,-168.37C335.46,-150.38 355.61,-108.55 367.14,-84.63"/>
<polygon fill="midnightblue" stroke="midnightblue" points="370.31,-86.12 371.49,-75.59 364,-83.08 370.31,-86.12"/>
</g>
<!-- Node12&#45;&gt;Node8 -->
<g id="edge20" class="edge">
<title>Node12&#45;&gt;Node8</title>
<path fill="none" stroke="midnightblue" d="M340.54,-168.44C358.89,-159.68 387.64,-145.94 408.73,-135.86"/>
<polygon fill="midnightblue" stroke="midnightblue" points="410.3,-138.99 417.81,-131.52 407.28,-132.67 410.3,-138.99"/>
</g>
<!-- Node12&#45;&gt;Node11 -->
<g id="edge19" class="edge">
<title>Node12&#45;&gt;Node11</title>
<path fill="none" stroke="midnightblue" d="M369.7,-172.3C465.43,-162.75 683.18,-141.01 794.83,-129.87"/>
<polygon fill="midnightblue" stroke="midnightblue" points="795.36,-133.33 804.97,-128.86 794.67,-126.37 795.36,-133.33"/>
</g>
<!-- Node13&#45;&gt;Node5 -->
<g id="edge23" class="edge">
<title>Node13&#45;&gt;Node5</title>
<path fill="none" stroke="midnightblue" d="M835.69,-168.44C888.05,-158.92 972.62,-143.55 1028.67,-133.36"/>
<polygon fill="midnightblue" stroke="midnightblue" points="1029.58,-136.75 1038.79,-131.52 1028.33,-129.86 1029.58,-136.75"/>
</g>
<!-- Node13&#45;&gt;Node6 -->
<g id="edge24" class="edge">
<title>Node13&#45;&gt;Node6</title>
<path fill="none" stroke="midnightblue" d="M776.45,-168.45C755.61,-154.28 711.34,-126.09 669.63,-112 590.79,-85.35 494.69,-74.42 434.31,-69.98"/>
<polygon fill="midnightblue" stroke="midnightblue" points="434.42,-66.48 424.2,-69.27 433.93,-73.46 434.42,-66.48"/>
</g>
<!-- Node14&#45;&gt;Node11 -->
<g id="edge27" class="edge">
<title>Node14&#45;&gt;Node11</title>
<path fill="none" stroke="midnightblue" d="M987.1,-336.24C978.79,-315.97 956.95,-264.43 933.63,-224 915.78,-193.05 891.33,-159.37 876.55,-139.78"/>
<polygon fill="midnightblue" stroke="midnightblue" points="879.17,-137.43 870.32,-131.59 873.6,-141.67 879.17,-137.43"/>
</g>
<!-- Node15&#45;&gt;Node4 -->
<g id="edge29" class="edge">
<title>Node15&#45;&gt;Node4</title>
<path fill="none" stroke="midnightblue" d="M1004.67,-168.24C990.21,-154.53 960.32,-127.91 930.63,-112 900.96,-96.1 864.64,-84.43 837,-76.97"/>
<polygon fill="midnightblue" stroke="midnightblue" points="837.8,-73.56 827.24,-74.41 836.02,-80.33 837.8,-73.56"/>
</g>
<!-- Node16&#45;&gt;Node8 -->
<g id="edge31" class="edge">
<title>Node16&#45;&gt;Node8</title>
<path fill="none" stroke="midnightblue" d="M831.33,-224.46C754.43,-204.74 564.55,-156.05 478.84,-134.08"/>
<polygon fill="midnightblue" stroke="midnightblue" points="479.47,-130.63 468.92,-131.53 477.74,-137.41 479.47,-130.63"/>
</g>
<!-- Node16&#45;&gt;Node11 -->
<g id="edge33" class="edge">
<title>Node16&#45;&gt;Node11</title>
<path fill="none" stroke="midnightblue" d="M864.56,-224.37C864.39,-206.62 864.02,-165.67 863.8,-141.6"/>
<polygon fill="midnightblue" stroke="midnightblue" points="867.3,-141.56 863.71,-131.59 860.3,-141.62 867.3,-141.56"/>
</g>
<!-- Node16&#45;&gt;Node13 -->
<g id="edge32" class="edge">
<title>Node16&#45;&gt;Node13</title>
<path fill="none" stroke="midnightblue" d="M852.42,-224.32C840.86,-216.11 823.26,-203.6 809.47,-193.81"/>
<polygon fill="midnightblue" stroke="midnightblue" points="811.25,-190.77 801.07,-187.83 807.19,-196.48 811.25,-190.77"/>
</g>
<!-- Node16&#45;&gt;Node15 -->
<g id="edge34" class="edge">
<title>Node16&#45;&gt;Node15</title>
<path fill="none" stroke="midnightblue" d="M888.24,-224.44C913.09,-215.44 952.41,-201.19 980.39,-191.05"/>
<polygon fill="midnightblue" stroke="midnightblue" points="981.93,-194.21 990.13,-187.52 979.54,-187.63 981.93,-194.21"/>
</g>
<!-- Node17&#45;&gt;Node4 -->
<g id="edge36" class="edge">
<title>Node17&#45;&gt;Node4</title>
<path fill="none" stroke="midnightblue" d="M651.75,-224.08C676.04,-197.38 748.36,-117.87 779.79,-83.32"/>
<polygon fill="midnightblue" stroke="midnightblue" points="782.7,-85.32 786.84,-75.57 777.52,-80.61 782.7,-85.32"/>
</g>
<!-- Node17&#45;&gt;Node18 -->
<g id="edge37" class="edge">
<title>Node17&#45;&gt;Node18</title>
<path fill="none" stroke="midnightblue" d="M577.22,-229.73C478.94,-224.35 288.83,-211.92 117.86,-188.03"/>
<polygon fill="midnightblue" stroke="midnightblue" points="118.31,-184.56 107.92,-186.62 117.33,-191.49 118.31,-184.56"/>
</g>
<!-- Node18&#45;&gt;Node6 -->
<g id="edge39" class="edge">
<title>Node18&#45;&gt;Node6</title>
<path fill="none" stroke="midnightblue" d="M80.54,-168.31C95.54,-154.2 127.39,-126.43 159.63,-112 210.07,-89.43 272.26,-78 316.93,-72.33"/>
<polygon fill="midnightblue" stroke="midnightblue" points="317.53,-75.79 327.04,-71.11 316.69,-68.84 317.53,-75.79"/>
</g>
<!-- Node18&#45;&gt;Node9 -->
<g id="edge38" class="edge">
<title>Node18&#45;&gt;Node9</title>
<path fill="none" stroke="midnightblue" d="M70.36,-168.38C68.87,-155.31 67.72,-130.09 77.63,-112 84.81,-98.91 97.56,-88.38 109.29,-80.8"/>
<polygon fill="midnightblue" stroke="midnightblue" points="111.18,-83.75 117.94,-75.59 107.57,-77.75 111.18,-83.75"/>
</g>
<!-- Node19 -->
<g id="node19" class="node">
<title>Node19</title>
<g id="a_node19"><a xlink:href="ErrorBlinker_8h.html" target="_top" xlink:title=" ">
<polygon fill="none" stroke="black" points="177.13,-112.5 177.13,-131.5 288.13,-131.5 288.13,-112.5 177.13,-112.5"/>
<text text-anchor="middle" x="232.63" y="-119.5" font-family="Helvetica,sans-Serif" font-size="10.00">../Log/ErrorBlinker.h</text>
</a>
</g>
</g>
<!-- Node18&#45;&gt;Node19 -->
<g id="edge40" class="edge">
<title>Node18&#45;&gt;Node19</title>
<path fill="none" stroke="midnightblue" d="M97.14,-168.44C124.23,-159.36 167.22,-144.94 197.5,-134.78"/>
<polygon fill="midnightblue" stroke="midnightblue" points="198.87,-138.01 207.24,-131.52 196.65,-131.38 198.87,-138.01"/>
</g>
<!-- Node19&#45;&gt;Node4 -->
<g id="edge41" class="edge">
<title>Node19&#45;&gt;Node4</title>
<path fill="none" stroke="midnightblue" d="M288.32,-115.65C400.53,-104.87 651.66,-80.74 752.01,-71.1"/>
<polygon fill="midnightblue" stroke="midnightblue" points="752.47,-74.57 762.09,-70.13 751.8,-67.6 752.47,-74.57"/>
</g>
<!-- Node19&#45;&gt;Node6 -->
<g id="edge42" class="edge">
<title>Node19&#45;&gt;Node6</title>
<path fill="none" stroke="midnightblue" d="M255.29,-112.44C279.04,-103.48 316.54,-89.31 343.37,-79.18"/>
<polygon fill="midnightblue" stroke="midnightblue" points="344.96,-82.32 353.08,-75.52 342.49,-75.77 344.96,-82.32"/>
</g>
<!-- Node20&#45;&gt;Node4 -->
<g id="edge44" class="edge">
<title>Node20&#45;&gt;Node4</title>
<path fill="none" stroke="midnightblue" d="M210.84,-168.43C243.55,-154.22 312.47,-125.98 373.63,-112 509.48,-80.94 675.01,-71.21 751.76,-68.24"/>
<polygon fill="midnightblue" stroke="midnightblue" points="752.12,-71.73 761.98,-67.87 751.86,-64.74 752.12,-71.73"/>
</g>
<!-- Node20&#45;&gt;Node6 -->
<g id="edge45" class="edge">
<title>Node20&#45;&gt;Node6</title>
<path fill="none" stroke="midnightblue" d="M183.33,-168.12C171.82,-154.7 153.89,-129.04 167.63,-112 186.09,-89.13 261.94,-77.3 316.72,-71.63"/>
<polygon fill="midnightblue" stroke="midnightblue" points="317.08,-75.11 326.69,-70.64 316.39,-68.15 317.08,-75.11"/>
</g>
<!-- Node20&#45;&gt;Node8 -->
<g id="edge46" class="edge">
<title>Node20&#45;&gt;Node8</title>
<path fill="none" stroke="midnightblue" d="M230.3,-168.44C272.77,-159.04 341.06,-143.93 387.11,-133.74"/>
<polygon fill="midnightblue" stroke="midnightblue" points="388.14,-137.09 397.15,-131.52 386.63,-130.26 388.14,-137.09"/>
</g>
<!-- Node21&#45;&gt;Node4 -->
<g id="edge48" class="edge">
<title>Node21&#45;&gt;Node4</title>
<path fill="none" stroke="midnightblue" d="M633.06,-112.44C665.92,-103.2 718.42,-88.44 754.61,-78.26"/>
<polygon fill="midnightblue" stroke="midnightblue" points="755.67,-81.59 764.35,-75.52 753.78,-74.85 755.67,-81.59"/>
</g>
<!-- Node21&#45;&gt;Node6 -->
<g id="edge49" class="edge">
<title>Node21&#45;&gt;Node6</title>
<path fill="none" stroke="midnightblue" d="M566.66,-112.44C527.31,-103.08 464.15,-88.06 421.32,-77.87"/>
<polygon fill="midnightblue" stroke="midnightblue" points="421.97,-74.43 411.43,-75.52 420.35,-81.24 421.97,-74.43"/>
</g>
<!-- Node23 -->
<g id="node23" class="node">
<title>Node23</title>
<g id="a_node23"><a xlink:title=" ">
<polygon fill="none" stroke="#bfbfbf" points="804.13,-280.5 804.13,-299.5 857.13,-299.5 857.13,-280.5 804.13,-280.5"/>
<text text-anchor="middle" x="830.63" y="-287.5" font-family="Helvetica,sans-Serif" font-size="10.00">stdint.h</text>
</a>
</g>
</g>
<!-- Node22&#45;&gt;Node23 -->
<g id="edge51" class="edge">
<title>Node22&#45;&gt;Node23</title>
<path fill="none" stroke="midnightblue" d="M830.63,-336.08C830.63,-329.01 830.63,-318.86 830.63,-309.99"/>
<polygon fill="midnightblue" stroke="midnightblue" points="834.13,-309.75 830.63,-299.75 827.13,-309.75 834.13,-309.75"/>
</g>
<!-- Node24&#45;&gt;Node6 -->
<g id="edge54" class="edge">
<title>Node24&#45;&gt;Node6</title>
<path fill="none" stroke="midnightblue" d="M105.36,-232.1C71.89,-228.34 31.54,-217.39 9.63,-188 -0.75,-174.07 -7.11,-134.52 14.63,-112 35.22,-90.68 219.61,-76.44 316.59,-70.35"/>
<polygon fill="midnightblue" stroke="midnightblue" points="317.07,-73.83 326.83,-69.72 316.64,-66.84 317.07,-73.83"/>
</g>
<!-- Node24&#45;&gt;Node20 -->
<g id="edge53" class="edge">
<title>Node24&#45;&gt;Node20</title>
<path fill="none" stroke="midnightblue" d="M165.75,-224.08C170.04,-216.61 176.29,-205.72 181.58,-196.52"/>
<polygon fill="midnightblue" stroke="midnightblue" points="184.67,-198.17 186.61,-187.75 178.6,-194.68 184.67,-198.17"/>
</g>
<!-- Node25&#45;&gt;Node4 -->
<g id="edge64" class="edge">
<title>Node25&#45;&gt;Node4</title>
<path fill="none" stroke="midnightblue" d="M1284.18,-280.37C1328.56,-262.06 1420.14,-216.98 1386.63,-168 1324.57,-77.27 963.13,-67.48 837.58,-66.85"/>
<polygon fill="midnightblue" stroke="midnightblue" points="837.23,-63.35 827.22,-66.82 837.21,-70.35 837.23,-63.35"/>
</g>
<!-- Node25&#45;&gt;Node5 -->
<g id="edge57" class="edge">
<title>Node25&#45;&gt;Node5</title>
<path fill="none" stroke="midnightblue" d="M1263.02,-280.39C1266.02,-258.59 1270.64,-200.62 1241.63,-168 1220.34,-144.06 1187.21,-132.51 1156.95,-127.06"/>
<polygon fill="midnightblue" stroke="midnightblue" points="1157.24,-123.57 1146.81,-125.44 1156.13,-130.48 1157.24,-123.57"/>
</g>
<!-- Node25&#45;&gt;Node6 -->
<g id="edge63" class="edge">
<title>Node25&#45;&gt;Node6</title>
<path fill="none" stroke="midnightblue" d="M1206.03,-289.2C1117.52,-288.28 939.77,-281.38 794.63,-244 673.19,-212.72 649.05,-185.53 535.63,-132 518.02,-123.69 514.46,-119.85 496.63,-112 468.33,-99.53 435.38,-87.43 411.02,-78.92"/>
<polygon fill="midnightblue" stroke="midnightblue" points="412.07,-75.58 401.48,-75.62 409.78,-82.2 412.07,-75.58"/>
</g>
<!-- Node25&#45;&gt;Node11 -->
<g id="edge58" class="edge">
<title>Node25&#45;&gt;Node11</title>
<path fill="none" stroke="midnightblue" d="M1255.68,-280.5C1246,-267.13 1225.68,-240.99 1203.63,-224 1123.51,-162.25 1006.21,-138.16 932.44,-128.83"/>
<polygon fill="midnightblue" stroke="midnightblue" points="932.68,-125.33 922.33,-127.6 931.84,-132.28 932.68,-125.33"/>
</g>
<!-- Node25&#45;&gt;Node17 -->
<g id="edge56" class="edge">
<title>Node25&#45;&gt;Node17</title>
<path fill="none" stroke="midnightblue" d="M1205.82,-284.86C1108.05,-277.49 899.47,-261.24 723.63,-244 722.52,-243.89 721.4,-243.78 720.27,-243.67"/>
<polygon fill="midnightblue" stroke="midnightblue" points="720.28,-240.15 709.97,-242.61 719.56,-247.11 720.28,-240.15"/>
</g>
<!-- Node25&#45;&gt;Node26 -->
<g id="edge59" class="edge">
<title>Node25&#45;&gt;Node26</title>
<path fill="none" stroke="midnightblue" d="M1267.44,-280.37C1279.65,-262.22 1308.19,-219.8 1324.2,-195.99"/>
<polygon fill="midnightblue" stroke="midnightblue" points="1327.18,-197.84 1329.85,-187.59 1321.37,-193.94 1327.18,-197.84"/>
</g>
<!-- Node26&#45;&gt;Node4 -->
<g id="edge60" class="edge">
<title>Node26&#45;&gt;Node4</title>
<path fill="none" stroke="midnightblue" d="M1322.03,-168.29C1298.79,-153.89 1249.49,-125.37 1203.63,-112 1073.94,-74.2 912.68,-67.69 837.25,-66.87"/>
<polygon fill="midnightblue" stroke="midnightblue" points="837.22,-63.37 827.19,-66.79 837.16,-70.37 837.22,-63.37"/>
</g>
<!-- Node26&#45;&gt;Node5 -->
<g id="edge61" class="edge">
<title>Node26&#45;&gt;Node5</title>
<path fill="none" stroke="midnightblue" d="M1296.02,-168.44C1252.41,-159.02 1182.23,-143.87 1135.06,-133.68"/>
<polygon fill="midnightblue" stroke="midnightblue" points="1135.57,-130.21 1125.06,-131.52 1134.1,-137.05 1135.57,-130.21"/>
</g>
<!-- Node26&#45;&gt;Node8 -->
<g id="edge62" class="edge">
<title>Node26&#45;&gt;Node8</title>
<path fill="none" stroke="midnightblue" d="M1293.96,-175.15C1175.32,-169.78 825.6,-153.2 535.63,-132 523.61,-131.12 510.79,-130.06 498.48,-128.98"/>
<polygon fill="midnightblue" stroke="midnightblue" points="498.55,-125.47 488.28,-128.07 497.93,-132.45 498.55,-125.47"/>
</g>
<!-- Node27&#45;&gt;Node4 -->
<g id="edge66" class="edge">
<title>Node27&#45;&gt;Node4</title>
<path fill="none" stroke="midnightblue" d="M729.26,-284.81C844.91,-275.91 1101.93,-255.01 1117.63,-244 1140.26,-228.14 1135.9,-214.21 1144.63,-188 1155.42,-155.62 1178.23,-137.58 1155.63,-112 1134.85,-88.46 928.49,-74.34 837.43,-69.21"/>
<polygon fill="midnightblue" stroke="midnightblue" points="837.35,-65.7 827.18,-68.64 836.97,-72.69 837.35,-65.7"/>
</g>
<!-- Node27&#45;&gt;Node5 -->
<g id="edge67" class="edge">
<title>Node27&#45;&gt;Node5</title>
<path fill="none" stroke="midnightblue" d="M729.38,-284.22C839.23,-274.62 1074.4,-253.16 1089.63,-244 1122,-224.55 1141.48,-203.13 1127.63,-168 1123.12,-156.55 1114.16,-146.29 1105.68,-138.47"/>
<polygon fill="midnightblue" stroke="midnightblue" points="1107.72,-135.61 1097.85,-131.76 1103.16,-140.93 1107.72,-135.61"/>
</g>
<!-- Node27&#45;&gt;Node8 -->
<g id="edge68" class="edge">
<title>Node27&#45;&gt;Node8</title>
<path fill="none" stroke="midnightblue" d="M646.96,-280.36C624.98,-272.61 593.49,-259.98 568.63,-244 520.51,-213.05 473.12,-164.4 450.08,-139.25"/>
<polygon fill="midnightblue" stroke="midnightblue" points="452.54,-136.75 443.24,-131.69 447.35,-141.45 452.54,-136.75"/>
</g>
<!-- Node27&#45;&gt;Node10 -->
<g id="edge69" class="edge">
<title>Node27&#45;&gt;Node10</title>
<path fill="none" stroke="midnightblue" d="M623.72,-280.44C567.64,-270.83 476.68,-255.24 417.26,-245.05"/>
<polygon fill="midnightblue" stroke="midnightblue" points="417.73,-241.58 407.28,-243.34 416.54,-248.48 417.73,-241.58"/>
</g>
</g>
</svg>
