<?xml version="1.0" encoding="UTF-8" standalone="no"?>
<!DOCTYPE svg PUBLIC "-//W3C//DTD SVG 1.1//EN"
 "http://www.w3.org/Graphics/SVG/1.1/DTD/svg11.dtd">
<!-- Generated by graphviz version 2.43.0 (0)
 -->
<!-- Title: VortexEngine/src/Random/Random.h Pages: 1 -->
<!--zoomable 240 -->
<svg id="main" version="1.1" xmlns="http://www.w3.org/2000/svg" xmlns:xlink="http://www.w3.org/1999/xlink" xml:space="preserve" onload="init(evt)">
<style type="text/css"><![CDATA[
.edge:hover path { stroke: red; }
.edge:hover polygon { stroke: red; fill: red; }
]]></style>
<script type="text/javascript"><![CDATA[
var edges = document.getElementsByTagName('g');
if (edges && edges.length) {
  for (var i=0;i<edges.length;i++) {
    if (edges[i].id.substr(0,4)=='edge') {
      edges[i].setAttribute('class','edge');
    }
  }
}
]]></script>
        <defs>
                <circle id="rim" cx="0" cy="0" r="7"/>
                <circle id="rim2" cx="0" cy="0" r="3.5"/>
                <g id="zoomPlus">
                        <use xlink:href="#rim" fill="#404040">
                                <set attributeName="fill" to="#808080" begin="zoomplus.mouseover" end="zoomplus.mouseout"/>
                        </use>
                        <path d="M-4,0h8M0,-4v8" fill="none" stroke="white" stroke-width="1.5" pointer-events="none"/>
                </g>
                <g id="zoomMin">
                        <use xlink:href="#rim" fill="#404040">
                                <set attributeName="fill" to="#808080" begin="zoomminus.mouseover" end="zoomminus.mouseout"/>
                        </use>
                        <path d="M-4,0h8" fill="none" stroke="white" stroke-width="1.5" pointer-events="none"/>
                </g>
                <g id="dirArrow">
                        <path fill="none" stroke="white" stroke-width="1.5" d="M0,-3.0v7 M-2.5,-0.5L0,-3.0L2.5,-0.5"/>
                </g>
               <g id="resetDef">
                       <use xlink:href="#rim2" fill="#404040">
                               <set attributeName="fill" to="#808080" begin="reset.mouseover" end="reset.mouseout"/>
                       </use>
               </g>
        </defs>

<script type="text/javascript">
var viewWidth = 1337;
var viewHeight = 240;
var sectionId = 'dynsection-1';
</script>
<script xlink:href="svgpan.js"/>
<svg id="graph" class="graph">
<g id="viewport">
<title>VortexEngine/src/Random/Random.h</title>
<!-- Node1 -->
<g id="node1" class="node">
<title>Node1</title>
<g id="a_node1"><a xlink:title=" ">
<polygon fill="#bfbfbf" stroke="black" points="510,-201.5 510,-231.5 652,-231.5 652,-201.5 510,-201.5"/>
<text text-anchor="start" x="518" y="-219.5" font-family="Helvetica,sans-Serif" font-size="10.00">VortexEngine/src/Random</text>
<text text-anchor="middle" x="581" y="-208.5" font-family="Helvetica,sans-Serif" font-size="10.00">/Random.h</text>
</a>
</g>
</g>
<!-- Node2 -->
<g id="node2" class="node">
<title>Node2</title>
<g id="a_node2"><a xlink:href="Colorset_8cpp.html" target="_top" xlink:title=" ">
<polygon fill="none" stroke="black" points="0,-134.5 0,-164.5 132,-164.5 132,-134.5 0,-134.5"/>
<text text-anchor="start" x="8" y="-152.5" font-family="Helvetica,sans-Serif" font-size="10.00">VortexEngine/src/Colors</text>
<text text-anchor="middle" x="66" y="-141.5" font-family="Helvetica,sans-Serif" font-size="10.00">/Colorset.cpp</text>
</a>
</g>
</g>
<!-- Node1&#45;&gt;Node2 -->
<g id="edge1" class="edge">
<title>Node1&#45;&gt;Node2</title>
<path fill="none" stroke="midnightblue" d="M499.93,-208.08C411.46,-199.54 265.77,-184.19 141,-165 138.12,-164.56 135.17,-164.08 132.21,-163.59"/>
<polygon fill="midnightblue" stroke="midnightblue" points="499.62,-211.56 509.9,-209.03 500.28,-204.59 499.62,-211.56"/>
</g>
<!-- Node3 -->
<g id="node3" class="node">
<title>Node3</title>
<g id="a_node3"><a xlink:href="PatternSelect_8cpp.html" target="_top" xlink:title=" ">
<polygon fill="none" stroke="black" points="150,-134.5 150,-164.5 302,-164.5 302,-134.5 150,-134.5"/>
<text text-anchor="start" x="158" y="-152.5" font-family="Helvetica,sans-Serif" font-size="10.00">VortexEngine/src/Menus</text>
<text text-anchor="middle" x="226" y="-141.5" font-family="Helvetica,sans-Serif" font-size="10.00">/MenuList/PatternSelect.cpp</text>
</a>
</g>
</g>
<!-- Node1&#45;&gt;Node3 -->
<g id="edge2" class="edge">
<title>Node1&#45;&gt;Node3</title>
<path fill="none" stroke="midnightblue" d="M499.5,-200.58C440.14,-189.71 360.3,-175.09 302.21,-164.45"/>
<polygon fill="midnightblue" stroke="midnightblue" points="499.12,-204.07 509.59,-202.42 500.38,-197.18 499.12,-204.07"/>
</g>
<!-- Node4 -->
<g id="node4" class="node">
<title>Node4</title>
<g id="a_node4"><a xlink:href="Randomizer_8cpp.html" target="_top" xlink:title=" ">
<polygon fill="none" stroke="black" points="194.5,-67.5 194.5,-97.5 339.5,-97.5 339.5,-67.5 194.5,-67.5"/>
<text text-anchor="start" x="202.5" y="-85.5" font-family="Helvetica,sans-Serif" font-size="10.00">VortexEngine/src/Menus</text>
<text text-anchor="middle" x="267" y="-74.5" font-family="Helvetica,sans-Serif" font-size="10.00">/MenuList/Randomizer.cpp</text>
</a>
</g>
</g>
<!-- Node1&#45;&gt;Node4 -->
<g id="edge3" class="edge">
<title>Node1&#45;&gt;Node4</title>
<path fill="none" stroke="midnightblue" d="M499.87,-209.18C453.44,-202.86 395.38,-190.24 349,-165 332.96,-156.27 298.28,-118.76 279.57,-97.8"/>
<polygon fill="midnightblue" stroke="midnightblue" points="499.53,-212.66 509.89,-210.47 500.42,-205.72 499.53,-212.66"/>
</g>
<!-- Node5 -->
<g id="node5" class="node">
<title>Node5</title>
<g id="a_node5"><a xlink:href="Randomizer_8h.html" target="_top" xlink:title=" ">
<polygon fill="none" stroke="black" points="358,-134.5 358,-164.5 492,-164.5 492,-134.5 358,-134.5"/>
<text text-anchor="start" x="366" y="-152.5" font-family="Helvetica,sans-Serif" font-size="10.00">VortexEngine/src/Menus</text>
<text text-anchor="middle" x="425" y="-141.5" font-family="Helvetica,sans-Serif" font-size="10.00">/MenuList/Randomizer.h</text>
</a>
</g>
</g>
<!-- Node1&#45;&gt;Node5 -->
<g id="edge4" class="edge">
<title>Node1&#45;&gt;Node5</title>
<path fill="none" stroke="midnightblue" d="M537.91,-197.54C512.94,-187.14 481.97,-174.24 458.78,-164.58"/>
<polygon fill="midnightblue" stroke="midnightblue" points="536.57,-200.78 547.15,-201.4 539.27,-194.32 536.57,-200.78"/>
</g>
<!-- Node7 -->
<g id="node7" class="node">
<title>Node7</title>
<g id="a_node7"><a xlink:href="MeteorPattern_8h.html" target="_top" xlink:title=" ">
<polygon fill="none" stroke="black" points="510.5,-134.5 510.5,-164.5 651.5,-164.5 651.5,-134.5 510.5,-134.5"/>
<text text-anchor="start" x="518.5" y="-152.5" font-family="Helvetica,sans-Serif" font-size="10.00">VortexEngine/src/Patterns</text>
<text text-anchor="middle" x="581" y="-141.5" font-family="Helvetica,sans-Serif" font-size="10.00">/Multi/MeteorPattern.h</text>
</a>
</g>
</g>
<!-- Node1&#45;&gt;Node7 -->
<g id="edge7" class="edge">
<title>Node1&#45;&gt;Node7</title>
<path fill="none" stroke="midnightblue" d="M581,-191.11C581,-182.15 581,-172.32 581,-164.58"/>
<polygon fill="midnightblue" stroke="midnightblue" points="577.5,-191.4 581,-201.4 584.5,-191.4 577.5,-191.4"/>
</g>
<!-- Node10 -->
<g id="node10" class="node">
<title>Node10</title>
<g id="a_node10"><a xlink:href="SparkleTracePattern_8h.html" target="_top" xlink:title=" ">
<polygon fill="none" stroke="black" points="669.5,-134.5 669.5,-164.5 822.5,-164.5 822.5,-134.5 669.5,-134.5"/>
<text text-anchor="start" x="677.5" y="-152.5" font-family="Helvetica,sans-Serif" font-size="10.00">VortexEngine/src/Patterns</text>
<text text-anchor="middle" x="746" y="-141.5" font-family="Helvetica,sans-Serif" font-size="10.00">/Multi/SparkleTracePattern.h</text>
</a>
</g>
</g>
<!-- Node1&#45;&gt;Node10 -->
<g id="edge10" class="edge">
<title>Node1&#45;&gt;Node10</title>
<path fill="none" stroke="midnightblue" d="M626.23,-197.68C652.69,-187.26 685.63,-174.28 710.27,-164.58"/>
<polygon fill="midnightblue" stroke="midnightblue" points="624.82,-194.47 616.8,-201.4 627.39,-200.99 624.82,-194.47"/>
</g>
<!-- Node12 -->
<g id="node12" class="node">
<title>Node12</title>
<g id="a_node12"><a xlink:href="Random_8cpp.html" target="_top" xlink:title=" ">
<polygon fill="none" stroke="black" points="841,-134.5 841,-164.5 983,-164.5 983,-134.5 841,-134.5"/>
<text text-anchor="start" x="849" y="-152.5" font-family="Helvetica,sans-Serif" font-size="10.00">VortexEngine/src/Random</text>
<text text-anchor="middle" x="912" y="-141.5" font-family="Helvetica,sans-Serif" font-size="10.00">/Random.cpp</text>
</a>
</g>
</g>
<!-- Node1&#45;&gt;Node12 -->
<g id="edge13" class="edge">
<title>Node1&#45;&gt;Node12</title>
<path fill="none" stroke="midnightblue" d="M662.02,-199.59C716.74,-188.84 788.3,-174.79 840.82,-164.48"/>
<polygon fill="midnightblue" stroke="midnightblue" points="661.15,-196.19 652.01,-201.56 662.49,-203.06 661.15,-196.19"/>
</g>
<!-- Node13 -->
<g id="node13" class="node">
<title>Node13</title>
<g id="a_node13"><a xlink:href="VortexLib_8cpp.html" target="_top" xlink:title=" ">
<polygon fill="none" stroke="black" points="1011,-67.5 1011,-97.5 1141,-97.5 1141,-67.5 1011,-67.5"/>
<text text-anchor="start" x="1019" y="-85.5" font-family="Helvetica,sans-Serif" font-size="10.00">VortexEngine/VortexLib</text>
<text text-anchor="middle" x="1076" y="-74.5" font-family="Helvetica,sans-Serif" font-size="10.00">/VortexLib.cpp</text>
</a>
</g>
</g>
<!-- Node1&#45;&gt;Node13 -->
<g id="edge14" class="edge">
<title>Node1&#45;&gt;Node13</title>
<path fill="none" stroke="midnightblue" d="M662.34,-211.63C765.12,-205.69 935.44,-192.06 992,-165 1024.44,-149.48 1052.18,-116.46 1066.21,-97.56"/>
<polygon fill="midnightblue" stroke="midnightblue" points="662.09,-208.14 652.31,-212.2 662.49,-215.13 662.09,-208.14"/>
</g>
<!-- Node14 -->
<g id="node14" class="node">
<title>Node14</title>
<g id="a_node14"><a xlink:href="VortexLib_8h.html" target="_top" xlink:title=" ">
<polygon fill="none" stroke="black" points="1087,-134.5 1087,-164.5 1217,-164.5 1217,-134.5 1087,-134.5"/>
<text text-anchor="start" x="1095" y="-152.5" font-family="Helvetica,sans-Serif" font-size="10.00">VortexEngine/VortexLib</text>
<text text-anchor="middle" x="1152" y="-141.5" font-family="Helvetica,sans-Serif" font-size="10.00">/VortexLib.h</text>
</a>
</g>
</g>
<!-- Node1&#45;&gt;Node14 -->
<g id="edge15" class="edge">
<title>Node1&#45;&gt;Node14</title>
<path fill="none" stroke="midnightblue" d="M662.18,-208.03C757.04,-199.03 918.64,-182.89 1057,-165 1066.68,-163.75 1076.9,-162.31 1086.9,-160.84"/>
<polygon fill="midnightblue" stroke="midnightblue" points="661.71,-204.56 652.09,-208.98 662.37,-211.53 661.71,-204.56"/>
</g>
<!-- Node5&#45;&gt;Node4 -->
<g id="edge5" class="edge">
<title>Node5&#45;&gt;Node4</title>
<path fill="none" stroke="midnightblue" d="M381.35,-130.54C356.07,-120.14 324.7,-107.24 301.22,-97.58"/>
<polygon fill="midnightblue" stroke="midnightblue" points="380.14,-133.83 390.72,-134.4 382.8,-127.35 380.14,-133.83"/>
</g>
<!-- Node6 -->
<g id="node6" class="node">
<title>Node6</title>
<g id="a_node6"><a xlink:href="Menus_8cpp.html" target="_top" xlink:title=" ">
<polygon fill="none" stroke="black" points="358,-67.5 358,-97.5 492,-97.5 492,-67.5 358,-67.5"/>
<text text-anchor="start" x="366" y="-85.5" font-family="Helvetica,sans-Serif" font-size="10.00">VortexEngine/src/Menus</text>
<text text-anchor="middle" x="425" y="-74.5" font-family="Helvetica,sans-Serif" font-size="10.00">/Menus.cpp</text>
</a>
</g>
</g>
<!-- Node5&#45;&gt;Node6 -->
<g id="edge6" class="edge">
<title>Node5&#45;&gt;Node6</title>
<path fill="none" stroke="midnightblue" d="M425,-124.11C425,-115.15 425,-105.32 425,-97.58"/>
<polygon fill="midnightblue" stroke="midnightblue" points="421.5,-124.4 425,-134.4 428.5,-124.4 421.5,-124.4"/>
</g>
<!-- Node8 -->
<g id="node8" class="node">
<title>Node8</title>
<g id="a_node8"><a xlink:href="MeteorPattern_8cpp.html" target="_top" xlink:title=" ">
<polygon fill="none" stroke="black" points="510.5,-67.5 510.5,-97.5 651.5,-97.5 651.5,-67.5 510.5,-67.5"/>
<text text-anchor="start" x="518.5" y="-85.5" font-family="Helvetica,sans-Serif" font-size="10.00">VortexEngine/src/Patterns</text>
<text text-anchor="middle" x="581" y="-74.5" font-family="Helvetica,sans-Serif" font-size="10.00">/Multi/MeteorPattern.cpp</text>
</a>
</g>
</g>
<!-- Node7&#45;&gt;Node8 -->
<g id="edge8" class="edge">
<title>Node7&#45;&gt;Node8</title>
<path fill="none" stroke="midnightblue" d="M581,-124.11C581,-115.15 581,-105.32 581,-97.58"/>
<polygon fill="midnightblue" stroke="midnightblue" points="577.5,-124.4 581,-134.4 584.5,-124.4 577.5,-124.4"/>
</g>
<!-- Node9 -->
<g id="node9" class="node">
<title>Node9</title>
<g id="a_node9"><a xlink:href="PatternBuilder_8cpp.html" target="_top" xlink:title=" ">
<polygon fill="none" stroke="black" points="669.5,-67.5 669.5,-97.5 810.5,-97.5 810.5,-67.5 669.5,-67.5"/>
<text text-anchor="start" x="677.5" y="-85.5" font-family="Helvetica,sans-Serif" font-size="10.00">VortexEngine/src/Patterns</text>
<text text-anchor="middle" x="740" y="-74.5" font-family="Helvetica,sans-Serif" font-size="10.00">/PatternBuilder.cpp</text>
</a>
</g>
</g>
<!-- Node7&#45;&gt;Node9 -->
<g id="edge9" class="edge">
<title>Node7&#45;&gt;Node9</title>
<path fill="none" stroke="midnightblue" d="M624.92,-130.54C650.37,-120.14 681.93,-107.24 705.57,-97.58"/>
<polygon fill="midnightblue" stroke="midnightblue" points="623.43,-127.37 615.5,-134.4 626.08,-133.85 623.43,-127.37"/>
</g>
<!-- Node10&#45;&gt;Node9 -->
<g id="edge12" class="edge">
<title>Node10&#45;&gt;Node9</title>
<path fill="none" stroke="midnightblue" d="M743.78,-124.4C742.94,-115.37 742.02,-105.41 741.3,-97.58"/>
<polygon fill="midnightblue" stroke="midnightblue" points="740.29,-124.76 744.7,-134.4 747.26,-124.12 740.29,-124.76"/>
</g>
<!-- Node11 -->
<g id="node11" class="node">
<title>Node11</title>
<g id="a_node11"><a xlink:href="SparkleTracePattern_8cpp.html" target="_top" xlink:title=" ">
<polygon fill="none" stroke="black" points="829,-67.5 829,-97.5 993,-97.5 993,-67.5 829,-67.5"/>
<text text-anchor="start" x="837" y="-85.5" font-family="Helvetica,sans-Serif" font-size="10.00">VortexEngine/src/Patterns</text>
<text text-anchor="middle" x="911" y="-74.5" font-family="Helvetica,sans-Serif" font-size="10.00">/Multi/SparkleTracePattern.cpp</text>
</a>
</g>
</g>
<!-- Node10&#45;&gt;Node11 -->
<g id="edge11" class="edge">
<title>Node10&#45;&gt;Node11</title>
<path fill="none" stroke="midnightblue" d="M791.23,-130.68C817.69,-120.26 850.63,-107.28 875.27,-97.58"/>
<polygon fill="midnightblue" stroke="midnightblue" points="789.82,-127.47 781.8,-134.4 792.39,-133.99 789.82,-127.47"/>
</g>
<!-- Node14&#45;&gt;Node13 -->
<g id="edge16" class="edge">
<title>Node14&#45;&gt;Node13</title>
<path fill="none" stroke="midnightblue" d="M1127.89,-127.88C1116.34,-118.01 1102.81,-106.43 1092.46,-97.58"/>
<polygon fill="midnightblue" stroke="midnightblue" points="1125.63,-130.56 1135.51,-134.4 1130.18,-125.24 1125.63,-130.56"/>
</g>
<!-- Node15 -->
<g id="node15" class="node">
<title>Node15</title>
<g id="a_node15"><a xlink:href="VortexCLI_8cpp.html" target="_top" xlink:title=" ">
<polygon fill="none" stroke="black" points="1150.5,-0.5 1150.5,-30.5 1281.5,-30.5 1281.5,-0.5 1150.5,-0.5"/>
<text text-anchor="start" x="1158.5" y="-18.5" font-family="Helvetica,sans-Serif" font-size="10.00">VortexEngine/VortexCLI</text>
<text text-anchor="middle" x="1216" y="-7.5" font-family="Helvetica,sans-Serif" font-size="10.00">/VortexCLI.cpp</text>
</a>
</g>
</g>
<!-- Node14&#45;&gt;Node15 -->
<g id="edge17" class="edge">
<title>Node14&#45;&gt;Node15</title>
<path fill="none" stroke="midnightblue" d="M1162.24,-124.88C1169.45,-108.5 1179.49,-86.27 1189,-67 1195.16,-54.52 1202.66,-40.59 1208.19,-30.52"/>
<polygon fill="midnightblue" stroke="midnightblue" points="1158.95,-123.67 1158.14,-134.24 1165.36,-126.48 1158.95,-123.67"/>
</g>
<!-- Node16 -->
<g id="node16" class="node">
<title>Node16</title>
<g id="a_node16"><a xlink:href="VortexCLI_8h.html" target="_top" xlink:title=" ">
<polygon fill="none" stroke="black" points="1197.5,-67.5 1197.5,-97.5 1328.5,-97.5 1328.5,-67.5 1197.5,-67.5"/>
<text text-anchor="start" x="1205.5" y="-85.5" font-family="Helvetica,sans-Serif" font-size="10.00">VortexEngine/VortexCLI</text>
<text text-anchor="middle" x="1263" y="-74.5" font-family="Helvetica,sans-Serif" font-size="10.00">/VortexCLI.h</text>
</a>
</g>
</g>
<!-- Node14&#45;&gt;Node16 -->
<g id="edge18" class="edge">
<title>Node14&#45;&gt;Node16</title>
<path fill="none" stroke="midnightblue" d="M1184.8,-129.3C1202.16,-119.12 1223.12,-106.85 1238.96,-97.58"/>
<polygon fill="midnightblue" stroke="midnightblue" points="1182.95,-126.32 1176.09,-134.4 1186.48,-132.36 1182.95,-126.32"/>
</g>
<!-- Node16&#45;&gt;Node15 -->
<g id="edge19" class="edge">
<title>Node16&#45;&gt;Node15</title>
<path fill="none" stroke="midnightblue" d="M1246.84,-59.16C1239.99,-49.68 1232.21,-38.92 1226.18,-30.58"/>
<polygon fill="midnightblue" stroke="midnightblue" points="1244.11,-61.34 1252.8,-67.4 1249.78,-57.24 1244.11,-61.34"/>
</g>
</g>
</svg>
        <g id="navigator" transform="translate(0 0)" fill="#404254">
                <rect fill="#f2f5e9" fill-opacity="0.5" stroke="#606060" stroke-width=".5" x="0" y="0" width="60" height="60"/>
                <use id="zoomplus" xlink:href="#zoomPlus" x="17" y="9" onmousedown="handleZoom(evt,'in')"/>
                <use id="zoomminus" xlink:href="#zoomMin" x="42" y="9" onmousedown="handleZoom(evt,'out')"/>
                <use id="reset" xlink:href="#resetDef" x="30" y="36" onmousedown="handleReset()"/>
                <g id="arrowUp" xlink:href="#dirArrow" transform="translate(30 24)" onmousedown="handlePan(0,-1)">
                  <use xlink:href="#rim" fill="#404040">
                        <set attributeName="fill" to="#808080" begin="arrowUp.mouseover" end="arrowUp.mouseout"/>
                  </use>
                  <path fill="none" stroke="white" stroke-width="1.5" d="M0,-3.0v7 M-2.5,-0.5L0,-3.0L2.5,-0.5"/>
                </g>
                <g id="arrowRight" xlink:href="#dirArrow" transform="rotate(90) translate(36 -43)" onmousedown="handlePan(1,0)">
                  <use xlink:href="#rim" fill="#404040">
                        <set attributeName="fill" to="#808080" begin="arrowRight.mouseover" end="arrowRight.mouseout"/>
                  </use>
                  <path fill="none" stroke="white" stroke-width="1.5" d="M0,-3.0v7 M-2.5,-0.5L0,-3.0L2.5,-0.5"/>
                </g>
                <g id="arrowDown" xlink:href="#dirArrow" transform="rotate(180) translate(-30 -48)" onmousedown="handlePan(0,1)">
                  <use xlink:href="#rim" fill="#404040">
                        <set attributeName="fill" to="#808080" begin="arrowDown.mouseover" end="arrowDown.mouseout"/>
                  </use>
                  <path fill="none" stroke="white" stroke-width="1.5" d="M0,-3.0v7 M-2.5,-0.5L0,-3.0L2.5,-0.5"/>
                </g>
                <g id="arrowLeft" xlink:href="#dirArrow" transform="rotate(270) translate(-36 17)" onmousedown="handlePan(-1,0)">
                  <use xlink:href="#rim" fill="#404040">
                        <set attributeName="fill" to="#808080" begin="arrowLeft.mouseover" end="arrowLeft.mouseout"/>
                  </use>
                  <path fill="none" stroke="white" stroke-width="1.5" d="M0,-3.0v7 M-2.5,-0.5L0,-3.0L2.5,-0.5"/>
                </g>
        </g>
        <svg viewBox="0 0 15 15" width="100%" height="30px" preserveAspectRatio="xMaxYMin meet">
         <g id="arrow_out" transform="scale(0.3 0.3)">
          <a xlink:href="Random_8h__dep__incl_org.svg" target="_base">
           <rect id="button" ry="5" rx="5" y="6" x="6" height="38" width="38"
                fill="#f2f5e9" fill-opacity="0.5" stroke="#606060" stroke-width="1.0"/>
           <path id="arrow"
             d="M 11.500037,31.436501 C 11.940474,20.09759 22.043105,11.32322 32.158766,21.979434 L 37.068811,17.246167 C 37.068811,17.246167 37.088388,32 37.088388,32 L 22.160133,31.978069 C 22.160133,31.978069 26.997745,27.140456 26.997745,27.140456 C 18.528582,18.264221 13.291696,25.230495 11.500037,31.436501 z"
             style="fill:#404040;"/>
          </a>
         </g>
        </svg>
</svg>
