<?xml version="1.0" encoding="UTF-8" standalone="no"?>
<!DOCTYPE svg PUBLIC "-//W3C//DTD SVG 1.1//EN"
 "http://www.w3.org/Graphics/SVG/1.1/DTD/svg11.dtd">
<!-- Generated by graphviz version 2.43.0 (0)
 -->
<!-- Title: VortexEngine/src/Random/Random.h Pages: 1 -->
<svg width="1301pt" height="173pt"
 viewBox="0.00 0.00 1301.00 173.00" xmlns="http://www.w3.org/2000/svg" xmlns:xlink="http://www.w3.org/1999/xlink">
<g id="graph0" class="graph" transform="scale(1 1) rotate(0) translate(4 169)">
<title>VortexEngine/src/Random/Random.h</title>
<!-- Node1 -->
<g id="node1" class="node">
<title>Node1</title>
<g id="a_node1"><a xlink:title=" ">
<polygon fill="#bfbfbf" stroke="black" points="516,-134.5 516,-164.5 658,-164.5 658,-134.5 516,-134.5"/>
<text text-anchor="start" x="524" y="-152.5" font-family="Helvetica,sans-Serif" font-size="10.00">VortexEngine/src/Random</text>
<text text-anchor="middle" x="587" y="-141.5" font-family="Helvetica,sans-Serif" font-size="10.00">/Random.h</text>
</a>
</g>
</g>
<!-- Node2 -->
<g id="node2" class="node">
<title>Node2</title>
<g id="a_node2"><a xlink:href="Colorset_8cpp.html" target="_top" xlink:title=" ">
<polygon fill="none" stroke="black" points="0,-67.5 0,-97.5 132,-97.5 132,-67.5 0,-67.5"/>
<text text-anchor="start" x="8" y="-85.5" font-family="Helvetica,sans-Serif" font-size="10.00">VortexEngine/src/Colors</text>
<text text-anchor="middle" x="66" y="-74.5" font-family="Helvetica,sans-Serif" font-size="10.00">/Colorset.cpp</text>
</a>
</g>
</g>
<!-- Node1&#45;&gt;Node2 -->
<g id="edge1" class="edge">
<title>Node1&#45;&gt;Node2</title>
<path fill="none" stroke="midnightblue" d="M505.61,-141.21C416.01,-132.74 267.83,-117.41 141,-98 138.12,-97.56 135.17,-97.09 132.2,-96.59"/>
<polygon fill="midnightblue" stroke="midnightblue" points="505.42,-144.71 515.71,-142.16 506.08,-137.74 505.42,-144.71"/>
</g>
<!-- Node3 -->
<g id="node3" class="node">
<title>Node3</title>
<g id="a_node3"><a xlink:href="ColorSelect_8cpp.html" target="_top" xlink:title=" ">
<polygon fill="none" stroke="black" points="150.5,-67.5 150.5,-97.5 293.5,-97.5 293.5,-67.5 150.5,-67.5"/>
<text text-anchor="start" x="158.5" y="-85.5" font-family="Helvetica,sans-Serif" font-size="10.00">VortexEngine/src/Menus</text>
<text text-anchor="middle" x="222" y="-74.5" font-family="Helvetica,sans-Serif" font-size="10.00">/MenuList/ColorSelect.cpp</text>
</a>
</g>
</g>
<!-- Node1&#45;&gt;Node3 -->
<g id="edge2" class="edge">
<title>Node1&#45;&gt;Node3</title>
<path fill="none" stroke="midnightblue" d="M505.8,-134.09C449,-124 371.37,-110.2 303,-98 299.91,-97.45 296.75,-96.88 293.55,-96.31"/>
<polygon fill="midnightblue" stroke="midnightblue" points="505.34,-137.56 515.8,-135.86 506.57,-130.67 505.34,-137.56"/>
</g>
<!-- Node4 -->
<g id="node4" class="node">
<title>Node4</title>
<g id="a_node4"><a xlink:href="PatternSelect_8cpp.html" target="_top" xlink:title=" ">
<polygon fill="none" stroke="black" points="312,-67.5 312,-97.5 464,-97.5 464,-67.5 312,-67.5"/>
<text text-anchor="start" x="320" y="-85.5" font-family="Helvetica,sans-Serif" font-size="10.00">VortexEngine/src/Menus</text>
<text text-anchor="middle" x="388" y="-74.5" font-family="Helvetica,sans-Serif" font-size="10.00">/MenuList/PatternSelect.cpp</text>
</a>
</g>
</g>
<!-- Node1&#45;&gt;Node4 -->
<g id="edge3" class="edge">
<title>Node1&#45;&gt;Node4</title>
<path fill="none" stroke="midnightblue" d="M534.12,-131.23C501.93,-120.71 461.33,-107.45 431.1,-97.58"/>
<polygon fill="midnightblue" stroke="midnightblue" points="533.23,-134.62 543.82,-134.4 535.4,-127.96 533.23,-134.62"/>
</g>
<!-- Node5 -->
<g id="node5" class="node">
<title>Node5</title>
<g id="a_node5"><a xlink:href="Randomizer_8cpp.html" target="_top" xlink:title=" ">
<polygon fill="none" stroke="black" points="356.5,-0.5 356.5,-30.5 501.5,-30.5 501.5,-0.5 356.5,-0.5"/>
<text text-anchor="start" x="364.5" y="-18.5" font-family="Helvetica,sans-Serif" font-size="10.00">VortexEngine/src/Menus</text>
<text text-anchor="middle" x="429" y="-7.5" font-family="Helvetica,sans-Serif" font-size="10.00">/MenuList/Randomizer.cpp</text>
</a>
</g>
</g>
<!-- Node1&#45;&gt;Node5 -->
<g id="edge4" class="edge">
<title>Node1&#45;&gt;Node5</title>
<path fill="none" stroke="midnightblue" d="M554.49,-128.89C540.65,-120.04 524.59,-109.09 511,-98 484.56,-76.43 457.08,-47.57 441.59,-30.61"/>
<polygon fill="midnightblue" stroke="midnightblue" points="552.89,-132.02 563.22,-134.38 556.62,-126.09 552.89,-132.02"/>
</g>
<!-- Node6 -->
<g id="node6" class="node">
<title>Node6</title>
<g id="a_node6"><a xlink:href="Randomizer_8h.html" target="_top" xlink:title=" ">
<polygon fill="none" stroke="black" points="520,-67.5 520,-97.5 654,-97.5 654,-67.5 520,-67.5"/>
<text text-anchor="start" x="528" y="-85.5" font-family="Helvetica,sans-Serif" font-size="10.00">VortexEngine/src/Menus</text>
<text text-anchor="middle" x="587" y="-74.5" font-family="Helvetica,sans-Serif" font-size="10.00">/MenuList/Randomizer.h</text>
</a>
</g>
</g>
<!-- Node1&#45;&gt;Node6 -->
<g id="edge5" class="edge">
<title>Node1&#45;&gt;Node6</title>
<path fill="none" stroke="midnightblue" d="M587,-124.11C587,-115.15 587,-105.32 587,-97.58"/>
<polygon fill="midnightblue" stroke="midnightblue" points="583.5,-124.4 587,-134.4 590.5,-124.4 583.5,-124.4"/>
</g>
<!-- Node8 -->
<g id="node8" class="node">
<title>Node8</title>
<g id="a_node8"><a xlink:href="MeteorPattern_8h.html" target="_top" xlink:title=" ">
<polygon fill="none" stroke="black" points="672.5,-67.5 672.5,-97.5 813.5,-97.5 813.5,-67.5 672.5,-67.5"/>
<text text-anchor="start" x="680.5" y="-85.5" font-family="Helvetica,sans-Serif" font-size="10.00">VortexEngine/src/Patterns</text>
<text text-anchor="middle" x="743" y="-74.5" font-family="Helvetica,sans-Serif" font-size="10.00">/Multi/MeteorPattern.h</text>
</a>
</g>
</g>
<!-- Node1&#45;&gt;Node8 -->
<g id="edge8" class="edge">
<title>Node1&#45;&gt;Node8</title>
<path fill="none" stroke="midnightblue" d="M630.09,-130.54C655.06,-120.14 686.03,-107.24 709.22,-97.58"/>
<polygon fill="midnightblue" stroke="midnightblue" points="628.73,-127.32 620.85,-134.4 631.43,-133.78 628.73,-127.32"/>
</g>
<!-- Node11 -->
<g id="node11" class="node">
<title>Node11</title>
<g id="a_node11"><a xlink:href="SparkleTracePattern_8h.html" target="_top" xlink:title=" ">
<polygon fill="none" stroke="black" points="831.5,-67.5 831.5,-97.5 984.5,-97.5 984.5,-67.5 831.5,-67.5"/>
<text text-anchor="start" x="839.5" y="-85.5" font-family="Helvetica,sans-Serif" font-size="10.00">VortexEngine/src/Patterns</text>
<text text-anchor="middle" x="908" y="-74.5" font-family="Helvetica,sans-Serif" font-size="10.00">/Multi/SparkleTracePattern.h</text>
</a>
</g>
</g>
<!-- Node1&#45;&gt;Node11 -->
<g id="edge11" class="edge">
<title>Node1&#45;&gt;Node11</title>
<path fill="none" stroke="midnightblue" d="M666.27,-132.45C719.11,-121.75 787.91,-107.82 838.59,-97.55"/>
<polygon fill="midnightblue" stroke="midnightblue" points="665.36,-129.06 656.26,-134.48 666.75,-135.92 665.36,-129.06"/>
</g>
<!-- Node13 -->
<g id="node13" class="node">
<title>Node13</title>
<g id="a_node13"><a xlink:href="Random_8cpp.html" target="_top" xlink:title=" ">
<polygon fill="none" stroke="black" points="1003,-67.5 1003,-97.5 1145,-97.5 1145,-67.5 1003,-67.5"/>
<text text-anchor="start" x="1011" y="-85.5" font-family="Helvetica,sans-Serif" font-size="10.00">VortexEngine/src/Random</text>
<text text-anchor="middle" x="1074" y="-74.5" font-family="Helvetica,sans-Serif" font-size="10.00">/Random.cpp</text>
</a>
</g>
</g>
<!-- Node1&#45;&gt;Node13 -->
<g id="edge14" class="edge">
<title>Node1&#45;&gt;Node13</title>
<path fill="none" stroke="midnightblue" d="M668.15,-139.78C750.43,-130.63 881.33,-115.19 994,-98 996.93,-97.55 999.92,-97.08 1002.93,-96.59"/>
<polygon fill="midnightblue" stroke="midnightblue" points="667.67,-136.31 658.12,-140.89 668.44,-143.27 667.67,-136.31"/>
</g>
<!-- Node14 -->
<g id="node14" class="node">
<title>Node14</title>
<g id="a_node14"><a xlink:href="VortexLib_8cpp.html" target="_top" xlink:title=" ">
<polygon fill="none" stroke="black" points="1163,-67.5 1163,-97.5 1293,-97.5 1293,-67.5 1163,-67.5"/>
<text text-anchor="start" x="1171" y="-85.5" font-family="Helvetica,sans-Serif" font-size="10.00">VortexEngine/VortexLib</text>
<text text-anchor="middle" x="1228" y="-74.5" font-family="Helvetica,sans-Serif" font-size="10.00">/VortexLib.cpp</text>
</a>
</g>
</g>
<!-- Node1&#45;&gt;Node14 -->
<g id="edge15" class="edge">
<title>Node1&#45;&gt;Node14</title>
<path fill="none" stroke="midnightblue" d="M668.5,-143.93C778.92,-137.12 982.03,-122.44 1154,-98 1156.85,-97.59 1159.76,-97.15 1162.69,-96.68"/>
<polygon fill="midnightblue" stroke="midnightblue" points="668.2,-140.44 658.43,-144.54 668.63,-147.43 668.2,-140.44"/>
</g>
<!-- Node6&#45;&gt;Node5 -->
<g id="edge6" class="edge">
<title>Node6&#45;&gt;Node5</title>
<path fill="none" stroke="midnightblue" d="M543.35,-63.54C518.07,-53.14 486.7,-40.24 463.22,-30.58"/>
<polygon fill="midnightblue" stroke="midnightblue" points="542.14,-66.83 552.72,-67.4 544.8,-60.35 542.14,-66.83"/>
</g>
<!-- Node7 -->
<g id="node7" class="node">
<title>Node7</title>
<g id="a_node7"><a xlink:href="Menus_8cpp.html" target="_top" xlink:title=" ">
<polygon fill="none" stroke="black" points="520,-0.5 520,-30.5 654,-30.5 654,-0.5 520,-0.5"/>
<text text-anchor="start" x="528" y="-18.5" font-family="Helvetica,sans-Serif" font-size="10.00">VortexEngine/src/Menus</text>
<text text-anchor="middle" x="587" y="-7.5" font-family="Helvetica,sans-Serif" font-size="10.00">/Menus.cpp</text>
</a>
</g>
</g>
<!-- Node6&#45;&gt;Node7 -->
<g id="edge7" class="edge">
<title>Node6&#45;&gt;Node7</title>
<path fill="none" stroke="midnightblue" d="M587,-57.11C587,-48.15 587,-38.32 587,-30.58"/>
<polygon fill="midnightblue" stroke="midnightblue" points="583.5,-57.4 587,-67.4 590.5,-57.4 583.5,-57.4"/>
</g>
<!-- Node9 -->
<g id="node9" class="node">
<title>Node9</title>
<g id="a_node9"><a xlink:href="MeteorPattern_8cpp.html" target="_top" xlink:title=" ">
<polygon fill="none" stroke="black" points="672.5,-0.5 672.5,-30.5 813.5,-30.5 813.5,-0.5 672.5,-0.5"/>
<text text-anchor="start" x="680.5" y="-18.5" font-family="Helvetica,sans-Serif" font-size="10.00">VortexEngine/src/Patterns</text>
<text text-anchor="middle" x="743" y="-7.5" font-family="Helvetica,sans-Serif" font-size="10.00">/Multi/MeteorPattern.cpp</text>
</a>
</g>
</g>
<!-- Node8&#45;&gt;Node9 -->
<g id="edge9" class="edge">
<title>Node8&#45;&gt;Node9</title>
<path fill="none" stroke="midnightblue" d="M743,-57.11C743,-48.15 743,-38.32 743,-30.58"/>
<polygon fill="midnightblue" stroke="midnightblue" points="739.5,-57.4 743,-67.4 746.5,-57.4 739.5,-57.4"/>
</g>
<!-- Node10 -->
<g id="node10" class="node">
<title>Node10</title>
<g id="a_node10"><a xlink:href="PatternBuilder_8cpp.html" target="_top" xlink:title=" ">
<polygon fill="none" stroke="black" points="831.5,-0.5 831.5,-30.5 972.5,-30.5 972.5,-0.5 831.5,-0.5"/>
<text text-anchor="start" x="839.5" y="-18.5" font-family="Helvetica,sans-Serif" font-size="10.00">VortexEngine/src/Patterns</text>
<text text-anchor="middle" x="902" y="-7.5" font-family="Helvetica,sans-Serif" font-size="10.00">/PatternBuilder.cpp</text>
</a>
</g>
</g>
<!-- Node8&#45;&gt;Node10 -->
<g id="edge10" class="edge">
<title>Node8&#45;&gt;Node10</title>
<path fill="none" stroke="midnightblue" d="M786.92,-63.54C812.37,-53.14 843.93,-40.24 867.57,-30.58"/>
<polygon fill="midnightblue" stroke="midnightblue" points="785.43,-60.37 777.5,-67.4 788.08,-66.85 785.43,-60.37"/>
</g>
<!-- Node11&#45;&gt;Node10 -->
<g id="edge13" class="edge">
<title>Node11&#45;&gt;Node10</title>
<path fill="none" stroke="midnightblue" d="M905.78,-57.4C904.94,-48.37 904.02,-38.41 903.3,-30.58"/>
<polygon fill="midnightblue" stroke="midnightblue" points="902.29,-57.76 906.7,-67.4 909.26,-57.12 902.29,-57.76"/>
</g>
<!-- Node12 -->
<g id="node12" class="node">
<title>Node12</title>
<g id="a_node12"><a xlink:href="SparkleTracePattern_8cpp.html" target="_top" xlink:title=" ">
<polygon fill="none" stroke="black" points="991,-0.5 991,-30.5 1155,-30.5 1155,-0.5 991,-0.5"/>
<text text-anchor="start" x="999" y="-18.5" font-family="Helvetica,sans-Serif" font-size="10.00">VortexEngine/src/Patterns</text>
<text text-anchor="middle" x="1073" y="-7.5" font-family="Helvetica,sans-Serif" font-size="10.00">/Multi/SparkleTracePattern.cpp</text>
</a>
</g>
</g>
<!-- Node11&#45;&gt;Node12 -->
<g id="edge12" class="edge">
<title>Node11&#45;&gt;Node12</title>
<path fill="none" stroke="midnightblue" d="M953.23,-63.68C979.69,-53.26 1012.63,-40.28 1037.27,-30.58"/>
<polygon fill="midnightblue" stroke="midnightblue" points="951.82,-60.47 943.8,-67.4 954.39,-66.99 951.82,-60.47"/>
</g>
</g>
</svg>
