<?xml version="1.0" encoding="UTF-8" standalone="no"?>
<!DOCTYPE svg PUBLIC "-//W3C//DTD SVG 1.1//EN"
 "http://www.w3.org/Graphics/SVG/1.1/DTD/svg11.dtd">
<!-- Generated by graphviz version 2.43.0 (0)
 -->
<!-- Title: VortexEngine/src/Serial/Serial.cpp Pages: 1 -->
<!--zoomable 319 -->
<svg id="main" version="1.1" xmlns="http://www.w3.org/2000/svg" xmlns:xlink="http://www.w3.org/1999/xlink" xml:space="preserve" onload="init(evt)">
<style type="text/css"><![CDATA[
.edge:hover path { stroke: red; }
.edge:hover polygon { stroke: red; fill: red; }
]]></style>
<script type="text/javascript"><![CDATA[
var edges = document.getElementsByTagName('g');
if (edges && edges.length) {
  for (var i=0;i<edges.length;i++) {
    if (edges[i].id.substr(0,4)=='edge') {
      edges[i].setAttribute('class','edge');
    }
  }
}
]]></script>
        <defs>
                <circle id="rim" cx="0" cy="0" r="7"/>
                <circle id="rim2" cx="0" cy="0" r="3.5"/>
                <g id="zoomPlus">
                        <use xlink:href="#rim" fill="#404040">
                                <set attributeName="fill" to="#808080" begin="zoomplus.mouseover" end="zoomplus.mouseout"/>
                        </use>
                        <path d="M-4,0h8M0,-4v8" fill="none" stroke="white" stroke-width="1.5" pointer-events="none"/>
                </g>
                <g id="zoomMin">
                        <use xlink:href="#rim" fill="#404040">
                                <set attributeName="fill" to="#808080" begin="zoomminus.mouseover" end="zoomminus.mouseout"/>
                        </use>
                        <path d="M-4,0h8" fill="none" stroke="white" stroke-width="1.5" pointer-events="none"/>
                </g>
                <g id="dirArrow">
                        <path fill="none" stroke="white" stroke-width="1.5" d="M0,-3.0v7 M-2.5,-0.5L0,-3.0L2.5,-0.5"/>
                </g>
               <g id="resetDef">
                       <use xlink:href="#rim2" fill="#404040">
                               <set attributeName="fill" to="#808080" begin="reset.mouseover" end="reset.mouseout"/>
                       </use>
               </g>
        </defs>

<script type="text/javascript">
var viewWidth = 603;
var viewHeight = 319;
var sectionId = 'dynsection-0';
</script>
<script xlink:href="svgpan.js"/>
<svg id="graph" class="graph">
<g id="viewport">
<title>VortexEngine/src/Serial/Serial.cpp</title>
<!-- Node1 -->
<g id="node1" class="node">
<title>Node1</title>
<g id="a_node1"><a xlink:title=" ">
<polygon fill="#bfbfbf" stroke="black" points="208,-280.5 208,-310.5 337,-310.5 337,-280.5 208,-280.5"/>
<text text-anchor="start" x="216" y="-298.5" font-family="Helvetica,sans-Serif" font-size="10.00">VortexEngine/src/Serial</text>
<text text-anchor="middle" x="272.5" y="-287.5" font-family="Helvetica,sans-Serif" font-size="10.00">/Serial.cpp</text>
</a>
</g>
</g>
<!-- Node2 -->
<g id="node2" class="node">
<title>Node2</title>
<g id="a_node2"><a xlink:href="Serial_8h.html" target="_top" xlink:title=" ">
<polygon fill="none" stroke="black" points="0,-168.5 0,-187.5 53,-187.5 53,-168.5 0,-168.5"/>
<text text-anchor="middle" x="26.5" y="-175.5" font-family="Helvetica,sans-Serif" font-size="10.00">Serial.h</text>
</a>
</g>
</g>
<!-- Node1&#45;&gt;Node2 -->
<g id="edge1" class="edge">
<title>Node1&#45;&gt;Node2</title>
<path fill="none" stroke="midnightblue" d="M207.56,-287.57C168.34,-281.02 118.72,-268.36 80.5,-244 61.62,-231.97 46.07,-211.19 36.58,-196.36"/>
<polygon fill="midnightblue" stroke="midnightblue" points="39.44,-194.34 31.24,-187.63 33.47,-197.99 39.44,-194.34"/>
</g>
<!-- Node4 -->
<g id="node4" class="node">
<title>Node4</title>
<g id="a_node4"><a xlink:href="ByteStream_8h.html" target="_top" xlink:title=" ">
<polygon fill="none" stroke="black" points="90,-224.5 90,-243.5 213,-243.5 213,-224.5 90,-224.5"/>
<text text-anchor="middle" x="151.5" y="-231.5" font-family="Helvetica,sans-Serif" font-size="10.00">../Serial/ByteStream.h</text>
</a>
</g>
</g>
<!-- Node1&#45;&gt;Node4 -->
<g id="edge3" class="edge">
<title>Node1&#45;&gt;Node4</title>
<path fill="none" stroke="midnightblue" d="M243.82,-280.4C223.98,-270.64 197.74,-257.74 178.31,-248.18"/>
<polygon fill="midnightblue" stroke="midnightblue" points="179.62,-244.93 169.11,-243.66 176.54,-251.21 179.62,-244.93"/>
</g>
<!-- Node5 -->
<g id="node5" class="node">
<title>Node5</title>
<g id="a_node5"><a xlink:href="Log_8h.html" target="_top" xlink:title=" ">
<polygon fill="none" stroke="black" points="269.5,-168.5 269.5,-187.5 341.5,-187.5 341.5,-168.5 269.5,-168.5"/>
<text text-anchor="middle" x="305.5" y="-175.5" font-family="Helvetica,sans-Serif" font-size="10.00">../Log/Log.h</text>
</a>
</g>
</g>
<!-- Node1&#45;&gt;Node5 -->
<g id="edge22" class="edge">
<title>Node1&#45;&gt;Node5</title>
<path fill="none" stroke="midnightblue" d="M276.55,-280.34C282.49,-259.53 293.6,-220.66 300.19,-197.58"/>
<polygon fill="midnightblue" stroke="midnightblue" points="303.64,-198.25 303.02,-187.67 296.91,-196.32 303.64,-198.25"/>
</g>
<!-- Node10 -->
<g id="node10" class="node">
<title>Node10</title>
<g id="a_node10"><a xlink:href="TimeControl_8h.html" target="_top" xlink:title=" ">
<polygon fill="none" stroke="black" points="362.5,-168.5 362.5,-187.5 484.5,-187.5 484.5,-168.5 362.5,-168.5"/>
<text text-anchor="middle" x="423.5" y="-175.5" font-family="Helvetica,sans-Serif" font-size="10.00">../Time/TimeControl.h</text>
</a>
</g>
</g>
<!-- Node1&#45;&gt;Node10 -->
<g id="edge12" class="edge">
<title>Node1&#45;&gt;Node10</title>
<path fill="none" stroke="midnightblue" d="M290.82,-280.44C309.38,-266.2 338.92,-243.55 364.5,-224 377.71,-213.9 392.6,-202.54 404.12,-193.77"/>
<polygon fill="midnightblue" stroke="midnightblue" points="406.35,-196.46 412.18,-187.62 402.11,-190.9 406.35,-196.46"/>
</g>
<!-- Node12 -->
<g id="node12" class="node">
<title>Node12</title>
<g id="a_node12"><a xlink:href="Timings_8h.html" target="_top" xlink:title=" ">
<polygon fill="none" stroke="black" points="373,-224.5 373,-243.5 474,-243.5 474,-224.5 373,-224.5"/>
<text text-anchor="middle" x="423.5" y="-231.5" font-family="Helvetica,sans-Serif" font-size="10.00">../Time/Timings.h</text>
</a>
</g>
</g>
<!-- Node1&#45;&gt;Node12 -->
<g id="edge19" class="edge">
<title>Node1&#45;&gt;Node12</title>
<path fill="none" stroke="midnightblue" d="M308.28,-280.4C333.73,-270.37 367.6,-257.03 392.02,-247.4"/>
<polygon fill="midnightblue" stroke="midnightblue" points="393.51,-250.58 401.53,-243.66 390.94,-244.07 393.51,-250.58"/>
</g>
<!-- Node13 -->
<g id="node13" class="node">
<title>Node13</title>
<g id="a_node13"><a xlink:href="VortexEngine_8h.html" target="_top" xlink:title=" ">
<polygon fill="none" stroke="black" points="110,-112.5 110,-131.5 209,-131.5 209,-112.5 110,-112.5"/>
<text text-anchor="middle" x="159.5" y="-119.5" font-family="Helvetica,sans-Serif" font-size="10.00">../VortexEngine.h</text>
</a>
</g>
</g>
<!-- Node1&#45;&gt;Node13 -->
<g id="edge23" class="edge">
<title>Node1&#45;&gt;Node13</title>
<path fill="none" stroke="midnightblue" d="M263.25,-280.47C242.63,-249.17 192.95,-173.76 170.65,-139.93"/>
<polygon fill="midnightblue" stroke="midnightblue" points="173.56,-137.98 165.14,-131.56 167.72,-141.84 173.56,-137.98"/>
</g>
<!-- Node3 -->
<g id="node3" class="node">
<title>Node3</title>
<g id="a_node3"><a xlink:title=" ">
<polygon fill="none" stroke="#bfbfbf" points="215,-56.5 215,-75.5 280,-75.5 280,-56.5 215,-56.5"/>
<text text-anchor="middle" x="247.5" y="-63.5" font-family="Helvetica,sans-Serif" font-size="10.00">inttypes.h</text>
</a>
</g>
</g>
<!-- Node2&#45;&gt;Node3 -->
<g id="edge2" class="edge">
<title>Node2&#45;&gt;Node3</title>
<path fill="none" stroke="midnightblue" d="M29.51,-168.34C34.86,-154.27 47.4,-126.55 67.5,-112 108.1,-82.61 165.84,-72.33 204.89,-68.78"/>
<polygon fill="midnightblue" stroke="midnightblue" points="205.2,-72.26 214.88,-67.98 204.64,-65.28 205.2,-72.26"/>
</g>
<!-- Node4&#45;&gt;Node3 -->
<g id="edge4" class="edge">
<title>Node4&#45;&gt;Node3</title>
<path fill="none" stroke="midnightblue" d="M142.31,-224.37C121.17,-203.49 72.98,-149.21 100.5,-112 124.23,-79.91 170.39,-69.96 204.69,-67.23"/>
<polygon fill="midnightblue" stroke="midnightblue" points="205.14,-70.71 214.91,-66.59 204.71,-63.72 205.14,-70.71"/>
</g>
<!-- Node4&#45;&gt;Node5 -->
<g id="edge5" class="edge">
<title>Node4&#45;&gt;Node5</title>
<path fill="none" stroke="midnightblue" d="M175.9,-224.44C201.7,-215.4 242.58,-201.06 271.52,-190.92"/>
<polygon fill="midnightblue" stroke="midnightblue" points="272.93,-194.13 281.21,-187.52 270.62,-187.52 272.93,-194.13"/>
</g>
<!-- Node6 -->
<g id="node6" class="node">
<title>Node6</title>
<g id="a_node6"><a xlink:title=" ">
<polygon fill="none" stroke="#bfbfbf" points="535.5,-56.5 535.5,-75.5 591.5,-75.5 591.5,-56.5 535.5,-56.5"/>
<text text-anchor="middle" x="563.5" y="-63.5" font-family="Helvetica,sans-Serif" font-size="10.00">stdarg.h</text>
</a>
</g>
</g>
<!-- Node5&#45;&gt;Node6 -->
<g id="edge6" class="edge">
<title>Node5&#45;&gt;Node6</title>
<path fill="none" stroke="midnightblue" d="M341.65,-170.1C345.64,-169.37 349.66,-168.66 353.5,-168 404.92,-159.19 551.55,-171.62 585.5,-132 597.31,-118.21 587.27,-97.81 577.2,-83.55"/>
<polygon fill="midnightblue" stroke="midnightblue" points="579.97,-81.41 571.13,-75.58 574.41,-85.66 579.97,-81.41"/>
</g>
<!-- Node7 -->
<g id="node7" class="node">
<title>Node7</title>
<g id="a_node7"><a xlink:href="VortexConfig_8h.html" target="_top" xlink:title=" ">
<polygon fill="none" stroke="black" points="352,-56.5 352,-75.5 449,-75.5 449,-56.5 352,-56.5"/>
<text text-anchor="middle" x="400.5" y="-63.5" font-family="Helvetica,sans-Serif" font-size="10.00">../VortexConfig.h</text>
</a>
</g>
</g>
<!-- Node5&#45;&gt;Node7 -->
<g id="edge7" class="edge">
<title>Node5&#45;&gt;Node7</title>
<path fill="none" stroke="midnightblue" d="M314.05,-168.2C322.66,-159.24 336.26,-144.88 347.5,-132 361.5,-115.96 376.8,-97.03 387.35,-83.75"/>
<polygon fill="midnightblue" stroke="midnightblue" points="390.36,-85.58 393.82,-75.56 384.87,-81.24 390.36,-85.58"/>
</g>
<!-- Node9 -->
<g id="node9" class="node">
<title>Node9</title>
<g id="a_node9"><a xlink:href="ErrorBlinker_8h.html" target="_top" xlink:title=" ">
<polygon fill="none" stroke="black" points="227,-112.5 227,-131.5 338,-131.5 338,-112.5 227,-112.5"/>
<text text-anchor="middle" x="282.5" y="-119.5" font-family="Helvetica,sans-Serif" font-size="10.00">../Log/ErrorBlinker.h</text>
</a>
</g>
</g>
<!-- Node5&#45;&gt;Node9 -->
<g id="edge9" class="edge">
<title>Node5&#45;&gt;Node9</title>
<path fill="none" stroke="midnightblue" d="M301.7,-168.08C298.59,-160.77 294.08,-150.18 290.21,-141.1"/>
<polygon fill="midnightblue" stroke="midnightblue" points="293.37,-139.58 286.23,-131.75 286.93,-142.32 293.37,-139.58"/>
</g>
<!-- Node8 -->
<g id="node8" class="node">
<title>Node8</title>
<g id="a_node8"><a xlink:href="ColorConstants_8h.html" target="_top" xlink:title=" ">
<polygon fill="none" stroke="black" points="333.5,-0.5 333.5,-19.5 467.5,-19.5 467.5,-0.5 333.5,-0.5"/>
<text text-anchor="middle" x="400.5" y="-7.5" font-family="Helvetica,sans-Serif" font-size="10.00">Colors/ColorConstants.h</text>
</a>
</g>
</g>
<!-- Node7&#45;&gt;Node8 -->
<g id="edge8" class="edge">
<title>Node7&#45;&gt;Node8</title>
<path fill="none" stroke="midnightblue" d="M400.5,-56.08C400.5,-49.01 400.5,-38.86 400.5,-29.99"/>
<polygon fill="midnightblue" stroke="midnightblue" points="404,-29.75 400.5,-19.75 397,-29.75 404,-29.75"/>
</g>
<!-- Node9&#45;&gt;Node3 -->
<g id="edge10" class="edge">
<title>Node9&#45;&gt;Node3</title>
<path fill="none" stroke="midnightblue" d="M276.72,-112.08C271.83,-104.53 264.67,-93.49 258.67,-84.23"/>
<polygon fill="midnightblue" stroke="midnightblue" points="261.55,-82.24 253.17,-75.75 255.67,-86.05 261.55,-82.24"/>
</g>
<!-- Node9&#45;&gt;Node7 -->
<g id="edge11" class="edge">
<title>Node9&#45;&gt;Node7</title>
<path fill="none" stroke="midnightblue" d="M301.2,-112.44C320.44,-103.64 350.65,-89.81 372.7,-79.72"/>
<polygon fill="midnightblue" stroke="midnightblue" points="374.25,-82.86 381.89,-75.52 371.34,-76.5 374.25,-82.86"/>
</g>
<!-- Node10&#45;&gt;Node3 -->
<g id="edge13" class="edge">
<title>Node10&#45;&gt;Node3</title>
<path fill="none" stroke="midnightblue" d="M414.81,-168.09C401.34,-154.64 374.18,-128.92 347.5,-112 326.5,-98.68 300.89,-87.24 280.85,-79.22"/>
<polygon fill="midnightblue" stroke="midnightblue" points="282.09,-75.95 271.5,-75.57 279.54,-82.47 282.09,-75.95"/>
</g>
<!-- Node10&#45;&gt;Node7 -->
<g id="edge14" class="edge">
<title>Node10&#45;&gt;Node7</title>
<path fill="none" stroke="midnightblue" d="M423.66,-168.46C423.71,-155.92 423.12,-131.84 418.5,-112 416.35,-102.78 412.62,-92.97 409.1,-84.88"/>
<polygon fill="midnightblue" stroke="midnightblue" points="412.25,-83.34 404.91,-75.71 405.89,-86.26 412.25,-83.34"/>
</g>
<!-- Node11 -->
<g id="node11" class="node">
<title>Node11</title>
<g id="a_node11"><a xlink:href="LedTypes_8h.html" target="_top" xlink:title=" ">
<polygon fill="none" stroke="black" points="471,-112.5 471,-131.5 576,-131.5 576,-112.5 471,-112.5"/>
<text text-anchor="middle" x="523.5" y="-119.5" font-family="Helvetica,sans-Serif" font-size="10.00">../Leds/LedTypes.h</text>
</a>
</g>
</g>
<!-- Node10&#45;&gt;Node11 -->
<g id="edge15" class="edge">
<title>Node10&#45;&gt;Node11</title>
<path fill="none" stroke="midnightblue" d="M439.57,-168.32C455.46,-159.74 480.01,-146.49 498.46,-136.52"/>
<polygon fill="midnightblue" stroke="midnightblue" points="500.34,-139.49 507.47,-131.65 497.01,-133.33 500.34,-139.49"/>
</g>
<!-- Node11&#45;&gt;Node3 -->
<g id="edge16" class="edge">
<title>Node11&#45;&gt;Node3</title>
<path fill="none" stroke="midnightblue" d="M479.77,-112.44C427.86,-102.29 341.88,-85.47 290.36,-75.39"/>
<polygon fill="midnightblue" stroke="midnightblue" points="290.71,-71.89 280.22,-73.4 289.37,-78.76 290.71,-71.89"/>
</g>
<!-- Node11&#45;&gt;Node6 -->
<g id="edge17" class="edge">
<title>Node11&#45;&gt;Node6</title>
<path fill="none" stroke="midnightblue" d="M530.11,-112.08C535.76,-104.46 544.04,-93.26 550.95,-83.94"/>
<polygon fill="midnightblue" stroke="midnightblue" points="553.88,-85.87 557.02,-75.75 548.25,-81.7 553.88,-85.87"/>
</g>
<!-- Node11&#45;&gt;Node7 -->
<g id="edge18" class="edge">
<title>Node11&#45;&gt;Node7</title>
<path fill="none" stroke="midnightblue" d="M504.01,-112.44C483.86,-103.6 452.18,-89.69 429.17,-79.59"/>
<polygon fill="midnightblue" stroke="midnightblue" points="430.46,-76.33 419.9,-75.52 427.65,-82.74 430.46,-76.33"/>
</g>
<!-- Node12&#45;&gt;Node7 -->
<g id="edge21" class="edge">
<title>Node12&#45;&gt;Node7</title>
<path fill="none" stroke="midnightblue" d="M455.26,-224.43C513.44,-207.21 627.47,-165.41 585.5,-112 569.96,-92.23 507.52,-80.06 459.44,-73.44"/>
<polygon fill="midnightblue" stroke="midnightblue" points="459.79,-69.96 449.42,-72.12 458.87,-76.9 459.79,-69.96"/>
</g>
<!-- Node12&#45;&gt;Node10 -->
<g id="edge20" class="edge">
<title>Node12&#45;&gt;Node10</title>
<path fill="none" stroke="midnightblue" d="M423.5,-224.08C423.5,-217.01 423.5,-206.86 423.5,-197.99"/>
<polygon fill="midnightblue" stroke="midnightblue" points="427,-197.75 423.5,-187.75 420,-197.75 427,-197.75"/>
</g>
<!-- Node13&#45;&gt;Node3 -->
<g id="edge24" class="edge">
<title>Node13&#45;&gt;Node3</title>
<path fill="none" stroke="midnightblue" d="M173.64,-112.32C187.37,-103.9 208.44,-90.97 224.56,-81.07"/>
<polygon fill="midnightblue" stroke="midnightblue" points="226.7,-83.87 233.4,-75.65 223.04,-77.9 226.7,-83.87"/>
</g>
<!-- Node13&#45;&gt;Node7 -->
<g id="edge25" class="edge">
<title>Node13&#45;&gt;Node7</title>
<path fill="none" stroke="midnightblue" d="M197.69,-112.44C239.64,-103.04 307.09,-87.93 352.57,-77.74"/>
<polygon fill="midnightblue" stroke="midnightblue" points="353.5,-81.12 362.49,-75.52 351.97,-74.29 353.5,-81.12"/>
</g>
</g>
</svg>
        <g id="navigator" transform="translate(0 0)" fill="#404254">
                <rect fill="#f2f5e9" fill-opacity="0.5" stroke="#606060" stroke-width=".5" x="0" y="0" width="60" height="60"/>
                <use id="zoomplus" xlink:href="#zoomPlus" x="17" y="9" onmousedown="handleZoom(evt,'in')"/>
                <use id="zoomminus" xlink:href="#zoomMin" x="42" y="9" onmousedown="handleZoom(evt,'out')"/>
                <use id="reset" xlink:href="#resetDef" x="30" y="36" onmousedown="handleReset()"/>
                <g id="arrowUp" xlink:href="#dirArrow" transform="translate(30 24)" onmousedown="handlePan(0,-1)">
                  <use xlink:href="#rim" fill="#404040">
                        <set attributeName="fill" to="#808080" begin="arrowUp.mouseover" end="arrowUp.mouseout"/>
                  </use>
                  <path fill="none" stroke="white" stroke-width="1.5" d="M0,-3.0v7 M-2.5,-0.5L0,-3.0L2.5,-0.5"/>
                </g>
                <g id="arrowRight" xlink:href="#dirArrow" transform="rotate(90) translate(36 -43)" onmousedown="handlePan(1,0)">
                  <use xlink:href="#rim" fill="#404040">
                        <set attributeName="fill" to="#808080" begin="arrowRight.mouseover" end="arrowRight.mouseout"/>
                  </use>
                  <path fill="none" stroke="white" stroke-width="1.5" d="M0,-3.0v7 M-2.5,-0.5L0,-3.0L2.5,-0.5"/>
                </g>
                <g id="arrowDown" xlink:href="#dirArrow" transform="rotate(180) translate(-30 -48)" onmousedown="handlePan(0,1)">
                  <use xlink:href="#rim" fill="#404040">
                        <set attributeName="fill" to="#808080" begin="arrowDown.mouseover" end="arrowDown.mouseout"/>
                  </use>
                  <path fill="none" stroke="white" stroke-width="1.5" d="M0,-3.0v7 M-2.5,-0.5L0,-3.0L2.5,-0.5"/>
                </g>
                <g id="arrowLeft" xlink:href="#dirArrow" transform="rotate(270) translate(-36 17)" onmousedown="handlePan(-1,0)">
                  <use xlink:href="#rim" fill="#404040">
                        <set attributeName="fill" to="#808080" begin="arrowLeft.mouseover" end="arrowLeft.mouseout"/>
                  </use>
                  <path fill="none" stroke="white" stroke-width="1.5" d="M0,-3.0v7 M-2.5,-0.5L0,-3.0L2.5,-0.5"/>
                </g>
        </g>
        <svg viewBox="0 0 15 15" width="100%" height="30px" preserveAspectRatio="xMaxYMin meet">
         <g id="arrow_out" transform="scale(0.3 0.3)">
          <a xlink:href="Serial_8cpp__incl_org.svg" target="_base">
           <rect id="button" ry="5" rx="5" y="6" x="6" height="38" width="38"
                fill="#f2f5e9" fill-opacity="0.5" stroke="#606060" stroke-width="1.0"/>
           <path id="arrow"
             d="M 11.500037,31.436501 C 11.940474,20.09759 22.043105,11.32322 32.158766,21.979434 L 37.068811,17.246167 C 37.068811,17.246167 37.088388,32 37.088388,32 L 22.160133,31.978069 C 22.160133,31.978069 26.997745,27.140456 26.997745,27.140456 C 18.528582,18.264221 13.291696,25.230495 11.500037,31.436501 z"
             style="fill:#404040;"/>
          </a>
         </g>
        </svg>
</svg>
