<?xml version="1.0" encoding="UTF-8" standalone="no"?>
<!DOCTYPE svg PUBLIC "-//W3C//DTD SVG 1.1//EN"
 "http://www.w3.org/Graphics/SVG/1.1/DTD/svg11.dtd">
<!-- Generated by graphviz version 2.43.0 (0)
 -->
<!-- Title: VortexEngine/src/Serial/Serial.h Pages: 1 -->
<svg width="990pt" height="106pt"
 viewBox="0.00 0.00 989.50 106.00" xmlns="http://www.w3.org/2000/svg" xmlns:xlink="http://www.w3.org/1999/xlink">
<g id="graph0" class="graph" transform="scale(1 1) rotate(0) translate(4 102)">
<title>VortexEngine/src/Serial/Serial.h</title>
<!-- Node1 -->
<g id="node1" class="node">
<title>Node1</title>
<g id="a_node1"><a xlink:title=" ">
<polygon fill="#bfbfbf" stroke="black" points="417,-67.5 417,-97.5 546,-97.5 546,-67.5 417,-67.5"/>
<text text-anchor="start" x="425" y="-85.5" font-family="Helvetica,sans-Serif" font-size="10.00">VortexEngine/src/Serial</text>
<text text-anchor="middle" x="481.5" y="-74.5" font-family="Helvetica,sans-Serif" font-size="10.00">/Serial.h</text>
</a>
</g>
</g>
<!-- Node2 -->
<g id="node2" class="node">
<title>Node2</title>
<g id="a_node2"><a xlink:href="Log_8cpp.html" target="_top" xlink:title=" ">
<polygon fill="none" stroke="black" points="0,-0.5 0,-30.5 119,-30.5 119,-0.5 0,-0.5"/>
<text text-anchor="start" x="8" y="-18.5" font-family="Helvetica,sans-Serif" font-size="10.00">VortexEngine/src/Log</text>
<text text-anchor="middle" x="59.5" y="-7.5" font-family="Helvetica,sans-Serif" font-size="10.00">/Log.cpp</text>
</a>
</g>
</g>
<!-- Node1&#45;&gt;Node2 -->
<g id="edge1" class="edge">
<title>Node1&#45;&gt;Node2</title>
<path fill="none" stroke="midnightblue" d="M406.61,-72.22C335,-63.01 224.09,-47.86 128.5,-31 125.49,-30.47 122.4,-29.9 119.29,-29.31"/>
<polygon fill="midnightblue" stroke="midnightblue" points="406.52,-75.74 416.89,-73.54 407.41,-68.8 406.52,-75.74"/>
</g>
<!-- Node3 -->
<g id="node3" class="node">
<title>Node3</title>
<g id="a_node3"><a xlink:href="EditorConnection_8cpp.html" target="_top" xlink:title=" ">
<polygon fill="none" stroke="black" points="137.5,-0.5 137.5,-30.5 307.5,-30.5 307.5,-0.5 137.5,-0.5"/>
<text text-anchor="start" x="145.5" y="-18.5" font-family="Helvetica,sans-Serif" font-size="10.00">VortexEngine/src/Menus</text>
<text text-anchor="middle" x="222.5" y="-7.5" font-family="Helvetica,sans-Serif" font-size="10.00">/MenuList/EditorConnection.cpp</text>
</a>
</g>
</g>
<!-- Node1&#45;&gt;Node3 -->
<g id="edge2" class="edge">
<title>Node1&#45;&gt;Node3</title>
<path fill="none" stroke="midnightblue" d="M415.69,-64.98C373.39,-54.37 319.01,-40.72 278.73,-30.61"/>
<polygon fill="midnightblue" stroke="midnightblue" points="415.07,-68.44 425.62,-67.48 416.77,-61.65 415.07,-68.44"/>
</g>
<!-- Node4 -->
<g id="node4" class="node">
<title>Node4</title>
<g id="a_node4"><a xlink:href="ModeSharing_8cpp.html" target="_top" xlink:title=" ">
<polygon fill="none" stroke="black" points="326,-0.5 326,-30.5 477,-30.5 477,-0.5 326,-0.5"/>
<text text-anchor="start" x="334" y="-18.5" font-family="Helvetica,sans-Serif" font-size="10.00">VortexEngine/src/Menus</text>
<text text-anchor="middle" x="401.5" y="-7.5" font-family="Helvetica,sans-Serif" font-size="10.00">/MenuList/ModeSharing.cpp</text>
</a>
</g>
</g>
<!-- Node1&#45;&gt;Node4 -->
<g id="edge3" class="edge">
<title>Node1&#45;&gt;Node4</title>
<path fill="none" stroke="midnightblue" d="M456.13,-60.88C443.97,-51.01 429.72,-39.43 418.82,-30.58"/>
<polygon fill="midnightblue" stroke="midnightblue" points="454.17,-63.81 464.14,-67.4 458.59,-58.37 454.17,-63.81"/>
</g>
<!-- Node5 -->
<g id="node5" class="node">
<title>Node5</title>
<g id="a_node5"><a xlink:href="Menus_8cpp.html" target="_top" xlink:title=" ">
<polygon fill="none" stroke="black" points="495.5,-0.5 495.5,-30.5 629.5,-30.5 629.5,-0.5 495.5,-0.5"/>
<text text-anchor="start" x="503.5" y="-18.5" font-family="Helvetica,sans-Serif" font-size="10.00">VortexEngine/src/Menus</text>
<text text-anchor="middle" x="562.5" y="-7.5" font-family="Helvetica,sans-Serif" font-size="10.00">/Menus.cpp</text>
</a>
</g>
</g>
<!-- Node1&#45;&gt;Node5 -->
<g id="edge4" class="edge">
<title>Node1&#45;&gt;Node5</title>
<path fill="none" stroke="midnightblue" d="M507.19,-60.88C519.5,-51.01 533.93,-39.43 544.96,-30.58"/>
<polygon fill="midnightblue" stroke="midnightblue" points="504.68,-58.41 499.08,-67.4 509.07,-63.87 504.68,-58.41"/>
</g>
<!-- Node6 -->
<g id="node6" class="node">
<title>Node6</title>
<g id="a_node6"><a xlink:href="Serial_8cpp.html" target="_top" xlink:title=" ">
<polygon fill="none" stroke="black" points="648,-0.5 648,-30.5 777,-30.5 777,-0.5 648,-0.5"/>
<text text-anchor="start" x="656" y="-18.5" font-family="Helvetica,sans-Serif" font-size="10.00">VortexEngine/src/Serial</text>
<text text-anchor="middle" x="712.5" y="-7.5" font-family="Helvetica,sans-Serif" font-size="10.00">/Serial.cpp</text>
</a>
</g>
</g>
<!-- Node1&#45;&gt;Node6 -->
<g id="edge5" class="edge">
<title>Node1&#45;&gt;Node6</title>
<path fill="none" stroke="midnightblue" d="M541.15,-64.71C578.74,-54.14 626.73,-40.63 662.35,-30.61"/>
<polygon fill="midnightblue" stroke="midnightblue" points="540.02,-61.4 531.34,-67.48 541.91,-68.14 540.02,-61.4"/>
</g>
<!-- Node7 -->
<g id="node7" class="node">
<title>Node7</title>
<g id="a_node7"><a xlink:href="VortexEngine_8cpp.html" target="_top" xlink:title=" ">
<polygon fill="none" stroke="black" points="795.5,-6 795.5,-25 981.5,-25 981.5,-6 795.5,-6"/>
<text text-anchor="middle" x="888.5" y="-13" font-family="Helvetica,sans-Serif" font-size="10.00">VortexEngine/src/VortexEngine.cpp</text>
</a>
</g>
</g>
<!-- Node1&#45;&gt;Node7 -->
<g id="edge6" class="edge">
<title>Node1&#45;&gt;Node7</title>
<path fill="none" stroke="midnightblue" d="M556.55,-69.51C637.38,-56.61 763.92,-36.4 835.15,-25.02"/>
<polygon fill="midnightblue" stroke="midnightblue" points="555.76,-66.1 546.44,-71.13 556.87,-73.01 555.76,-66.1"/>
</g>
</g>
</svg>
