<?xml version="1.0" encoding="UTF-8" standalone="no"?>
<!DOCTYPE svg PUBLIC "-//W3C//DTD SVG 1.1//EN"
 "http://www.w3.org/Graphics/SVG/1.1/DTD/svg11.dtd">
<!-- Generated by graphviz version 2.43.0 (0)
 -->
<!-- Title: VortexEngine/src/Serial/Serial.cpp Pages: 1 -->
<svg width="617pt" height="319pt"
 viewBox="0.00 0.00 617.36 319.00" xmlns="http://www.w3.org/2000/svg" xmlns:xlink="http://www.w3.org/1999/xlink">
<g id="graph0" class="graph" transform="scale(1 1) rotate(0) translate(4 315)">
<title>VortexEngine/src/Serial/Serial.cpp</title>
<!-- Node1 -->
<g id="node1" class="node">
<title>Node1</title>
<g id="a_node1"><a xlink:title=" ">
<polygon fill="#bfbfbf" stroke="black" points="270.36,-280.5 270.36,-310.5 399.36,-310.5 399.36,-280.5 270.36,-280.5"/>
<text text-anchor="start" x="278.36" y="-298.5" font-family="Helvetica,sans-Serif" font-size="10.00">VortexEngine/src/Serial</text>
<text text-anchor="middle" x="334.86" y="-287.5" font-family="Helvetica,sans-Serif" font-size="10.00">/Serial.cpp</text>
</a>
</g>
</g>
<!-- Node2 -->
<g id="node2" class="node">
<title>Node2</title>
<g id="a_node2"><a xlink:href="Serial_8h.html" target="_top" xlink:title=" ">
<polygon fill="none" stroke="black" points="11.36,-168.5 11.36,-187.5 64.36,-187.5 64.36,-168.5 11.36,-168.5"/>
<text text-anchor="middle" x="37.86" y="-175.5" font-family="Helvetica,sans-Serif" font-size="10.00">Serial.h</text>
</a>
</g>
</g>
<!-- Node1&#45;&gt;Node2 -->
<g id="edge1" class="edge">
<title>Node1&#45;&gt;Node2</title>
<path fill="none" stroke="midnightblue" d="M270.23,-285.34C228.29,-277.83 173.2,-264.93 127.86,-244 99.89,-231.09 71.76,-208.96 54.57,-194.16"/>
<polygon fill="midnightblue" stroke="midnightblue" points="56.89,-191.53 47.07,-187.55 52.26,-196.79 56.89,-191.53"/>
</g>
<!-- Node4 -->
<g id="node4" class="node">
<title>Node4</title>
<g id="a_node4"><a xlink:href="ByteStream_8h.html" target="_top" xlink:title=" ">
<polygon fill="none" stroke="black" points="366.36,-168.5 366.36,-187.5 489.36,-187.5 489.36,-168.5 366.36,-168.5"/>
<text text-anchor="middle" x="427.86" y="-175.5" font-family="Helvetica,sans-Serif" font-size="10.00">../Serial/ByteStream.h</text>
</a>
</g>
</g>
<!-- Node1&#45;&gt;Node4 -->
<g id="edge3" class="edge">
<title>Node1&#45;&gt;Node4</title>
<path fill="none" stroke="midnightblue" d="M354.9,-280.44C367.2,-271.11 382.69,-258.03 393.86,-244 405.36,-229.55 414.75,-210.61 420.72,-196.91"/>
<polygon fill="midnightblue" stroke="midnightblue" points="423.98,-198.18 424.6,-187.61 417.52,-195.49 423.98,-198.18"/>
</g>
<!-- Node5 -->
<g id="node5" class="node">
<title>Node5</title>
<g id="a_node5"><a xlink:href="Log_8h.html" target="_top" xlink:title=" ">
<polygon fill="none" stroke="black" points="400.86,-112.5 400.86,-131.5 472.86,-131.5 472.86,-112.5 400.86,-112.5"/>
<text text-anchor="middle" x="436.86" y="-119.5" font-family="Helvetica,sans-Serif" font-size="10.00">../Log/Log.h</text>
</a>
</g>
</g>
<!-- Node1&#45;&gt;Node5 -->
<g id="edge19" class="edge">
<title>Node1&#45;&gt;Node5</title>
<path fill="none" stroke="midnightblue" d="M377.43,-280.42C417.01,-264.78 473.55,-235.29 498.86,-188 510,-167.19 486.29,-148.26 465.04,-136.27"/>
<polygon fill="midnightblue" stroke="midnightblue" points="466.67,-133.17 456.2,-131.57 463.39,-139.35 466.67,-133.17"/>
</g>
<!-- Node9 -->
<g id="node9" class="node">
<title>Node9</title>
<g id="a_node9"><a xlink:href="TimeControl_8h.html" target="_top" xlink:title=" ">
<polygon fill="none" stroke="black" points="187.86,-168.5 187.86,-187.5 309.86,-187.5 309.86,-168.5 187.86,-168.5"/>
<text text-anchor="middle" x="248.86" y="-175.5" font-family="Helvetica,sans-Serif" font-size="10.00">../Time/TimeControl.h</text>
</a>
</g>
</g>
<!-- Node1&#45;&gt;Node9 -->
<g id="edge9" class="edge">
<title>Node1&#45;&gt;Node9</title>
<path fill="none" stroke="midnightblue" d="M313.39,-280.48C300.77,-271.34 285.31,-258.46 274.86,-244 264.64,-229.85 257.7,-211.12 253.58,-197.4"/>
<polygon fill="midnightblue" stroke="midnightblue" points="256.92,-196.36 250.87,-187.66 250.18,-198.23 256.92,-196.36"/>
</g>
<!-- Node11 -->
<g id="node11" class="node">
<title>Node11</title>
<g id="a_node11"><a xlink:href="Timings_8h.html" target="_top" xlink:title=" ">
<polygon fill="none" stroke="black" points="284.36,-224.5 284.36,-243.5 385.36,-243.5 385.36,-224.5 284.36,-224.5"/>
<text text-anchor="middle" x="334.86" y="-231.5" font-family="Helvetica,sans-Serif" font-size="10.00">../Time/Timings.h</text>
</a>
</g>
</g>
<!-- Node1&#45;&gt;Node11 -->
<g id="edge16" class="edge">
<title>Node1&#45;&gt;Node11</title>
<path fill="none" stroke="midnightblue" d="M334.86,-280.4C334.86,-272.47 334.86,-262.46 334.86,-253.86"/>
<polygon fill="midnightblue" stroke="midnightblue" points="338.36,-253.66 334.86,-243.66 331.36,-253.66 338.36,-253.66"/>
</g>
<!-- Node12 -->
<g id="node12" class="node">
<title>Node12</title>
<g id="a_node12"><a xlink:href="VortexEngine_8h.html" target="_top" xlink:title=" ">
<polygon fill="none" stroke="black" points="83.36,-112.5 83.36,-131.5 182.36,-131.5 182.36,-112.5 83.36,-112.5"/>
<text text-anchor="middle" x="132.86" y="-119.5" font-family="Helvetica,sans-Serif" font-size="10.00">../VortexEngine.h</text>
</a>
</g>
</g>
<!-- Node1&#45;&gt;Node12 -->
<g id="edge20" class="edge">
<title>Node1&#45;&gt;Node12</title>
<path fill="none" stroke="midnightblue" d="M308.45,-280.44C275.6,-262.11 218.96,-227.66 178.86,-188 164.47,-173.76 151.49,-154.54 143.01,-140.7"/>
<polygon fill="midnightblue" stroke="midnightblue" points="145.8,-138.53 137.68,-131.72 139.78,-142.1 145.8,-138.53"/>
</g>
<!-- Node13 -->
<g id="node13" class="node">
<title>Node13</title>
<g id="a_node13"><a xlink:title=" ">
<polygon fill="none" stroke="#bfbfbf" points="546.36,-224.5 546.36,-243.5 609.36,-243.5 609.36,-224.5 546.36,-224.5"/>
<text text-anchor="middle" x="577.86" y="-231.5" font-family="Helvetica,sans-Serif" font-size="10.00">Arduino.h</text>
</a>
</g>
</g>
<!-- Node1&#45;&gt;Node13 -->
<g id="edge23" class="edge">
<title>Node1&#45;&gt;Node13</title>
<path fill="none" stroke="midnightblue" d="M392.14,-280.47C436.41,-269.63 496.65,-254.88 536.37,-245.16"/>
<polygon fill="midnightblue" stroke="midnightblue" points="537.36,-248.52 546.25,-242.74 535.7,-241.72 537.36,-248.52"/>
</g>
<!-- Node3 -->
<g id="node3" class="node">
<title>Node3</title>
<g id="a_node3"><a xlink:title=" ">
<polygon fill="none" stroke="#bfbfbf" points="22.36,-56.5 22.36,-75.5 87.36,-75.5 87.36,-56.5 22.36,-56.5"/>
<text text-anchor="middle" x="54.86" y="-63.5" font-family="Helvetica,sans-Serif" font-size="10.00">inttypes.h</text>
</a>
</g>
</g>
<!-- Node2&#45;&gt;Node3 -->
<g id="edge2" class="edge">
<title>Node2&#45;&gt;Node3</title>
<path fill="none" stroke="midnightblue" d="M27.45,-168.35C14,-156.07 -6.62,-132.75 2.86,-112 8.64,-99.36 19.91,-88.91 30.49,-81.27"/>
<polygon fill="midnightblue" stroke="midnightblue" points="32.71,-84 39.08,-75.53 28.82,-78.18 32.71,-84"/>
</g>
<!-- Node4&#45;&gt;Node3 -->
<g id="edge4" class="edge">
<title>Node4&#45;&gt;Node3</title>
<path fill="none" stroke="midnightblue" d="M366.18,-170.92C267.71,-160.97 84.85,-141.38 73.86,-132 60.6,-120.69 56.33,-100.69 55.08,-85.85"/>
<polygon fill="midnightblue" stroke="midnightblue" points="58.57,-85.57 54.61,-75.74 51.58,-85.89 58.57,-85.57"/>
</g>
<!-- Node4&#45;&gt;Node5 -->
<g id="edge5" class="edge">
<title>Node4&#45;&gt;Node5</title>
<path fill="none" stroke="midnightblue" d="M429.35,-168.08C430.54,-160.93 432.25,-150.64 433.74,-141.69"/>
<polygon fill="midnightblue" stroke="midnightblue" points="437.21,-142.19 435.4,-131.75 430.31,-141.04 437.21,-142.19"/>
</g>
<!-- Node6 -->
<g id="node6" class="node">
<title>Node6</title>
<g id="a_node6"><a xlink:title=" ">
<polygon fill="none" stroke="#bfbfbf" points="383.86,-56.5 383.86,-75.5 439.86,-75.5 439.86,-56.5 383.86,-56.5"/>
<text text-anchor="middle" x="411.86" y="-63.5" font-family="Helvetica,sans-Serif" font-size="10.00">stdarg.h</text>
</a>
</g>
</g>
<!-- Node5&#45;&gt;Node6 -->
<g id="edge6" class="edge">
<title>Node5&#45;&gt;Node6</title>
<path fill="none" stroke="midnightblue" d="M432.73,-112.08C429.35,-104.77 424.44,-94.18 420.24,-85.1"/>
<polygon fill="midnightblue" stroke="midnightblue" points="423.29,-83.36 415.91,-75.75 416.94,-86.3 423.29,-83.36"/>
</g>
<!-- Node7 -->
<g id="node7" class="node">
<title>Node7</title>
<g id="a_node7"><a xlink:href="VortexConfig_8h.html" target="_top" xlink:title=" ">
<polygon fill="none" stroke="black" points="243.36,-56.5 243.36,-75.5 340.36,-75.5 340.36,-56.5 243.36,-56.5"/>
<text text-anchor="middle" x="291.86" y="-63.5" font-family="Helvetica,sans-Serif" font-size="10.00">../VortexConfig.h</text>
</a>
</g>
</g>
<!-- Node5&#45;&gt;Node7 -->
<g id="edge7" class="edge">
<title>Node5&#45;&gt;Node7</title>
<path fill="none" stroke="midnightblue" d="M413.88,-112.44C389.7,-103.44 351.44,-89.19 324.21,-79.05"/>
<polygon fill="midnightblue" stroke="midnightblue" points="325.32,-75.73 314.73,-75.52 322.88,-82.29 325.32,-75.73"/>
</g>
<!-- Node8 -->
<g id="node8" class="node">
<title>Node8</title>
<g id="a_node8"><a xlink:href="ColorConstants_8h.html" target="_top" xlink:title=" ">
<polygon fill="none" stroke="black" points="224.86,-0.5 224.86,-19.5 358.86,-19.5 358.86,-0.5 224.86,-0.5"/>
<text text-anchor="middle" x="291.86" y="-7.5" font-family="Helvetica,sans-Serif" font-size="10.00">Colors/ColorConstants.h</text>
</a>
</g>
</g>
<!-- Node7&#45;&gt;Node8 -->
<g id="edge8" class="edge">
<title>Node7&#45;&gt;Node8</title>
<path fill="none" stroke="midnightblue" d="M291.86,-56.08C291.86,-49.01 291.86,-38.86 291.86,-29.99"/>
<polygon fill="midnightblue" stroke="midnightblue" points="295.36,-29.75 291.86,-19.75 288.36,-29.75 295.36,-29.75"/>
</g>
<!-- Node9&#45;&gt;Node3 -->
<g id="edge10" class="edge">
<title>Node9&#45;&gt;Node3</title>
<path fill="none" stroke="midnightblue" d="M187.77,-172.14C133.18,-166.38 59.07,-154.57 40.86,-132 30.02,-118.57 36.62,-98.66 43.98,-84.41"/>
<polygon fill="midnightblue" stroke="midnightblue" points="47.09,-86.03 49,-75.61 41.01,-82.57 47.09,-86.03"/>
</g>
<!-- Node9&#45;&gt;Node7 -->
<g id="edge11" class="edge">
<title>Node9&#45;&gt;Node7</title>
<path fill="none" stroke="midnightblue" d="M242.29,-168.2C233.55,-155.33 220.25,-130.85 229.86,-112 236.86,-98.27 250.23,-87.75 262.76,-80.35"/>
<polygon fill="midnightblue" stroke="midnightblue" points="264.53,-83.37 271.64,-75.51 261.18,-77.22 264.53,-83.37"/>
</g>
<!-- Node10 -->
<g id="node10" class="node">
<title>Node10</title>
<g id="a_node10"><a xlink:href="LedTypes_8h.html" target="_top" xlink:title=" ">
<polygon fill="none" stroke="black" points="239.36,-112.5 239.36,-131.5 344.36,-131.5 344.36,-112.5 239.36,-112.5"/>
<text text-anchor="middle" x="291.86" y="-119.5" font-family="Helvetica,sans-Serif" font-size="10.00">../Leds/LedTypes.h</text>
</a>
</g>
</g>
<!-- Node9&#45;&gt;Node10 -->
<g id="edge12" class="edge">
<title>Node9&#45;&gt;Node10</title>
<path fill="none" stroke="midnightblue" d="M255.96,-168.08C262.1,-160.38 271.13,-149.03 278.6,-139.65"/>
<polygon fill="midnightblue" stroke="midnightblue" points="281.4,-141.75 284.89,-131.75 275.92,-137.39 281.4,-141.75"/>
</g>
<!-- Node10&#45;&gt;Node3 -->
<g id="edge13" class="edge">
<title>Node10&#45;&gt;Node3</title>
<path fill="none" stroke="midnightblue" d="M254.31,-112.44C211.68,-102.73 142.29,-86.92 97.62,-76.74"/>
<polygon fill="midnightblue" stroke="midnightblue" points="98.19,-73.28 87.66,-74.47 96.63,-80.11 98.19,-73.28"/>
</g>
<!-- Node10&#45;&gt;Node6 -->
<g id="edge14" class="edge">
<title>Node10&#45;&gt;Node6</title>
<path fill="none" stroke="midnightblue" d="M310.87,-112.44C330.45,-103.64 361.17,-89.81 383.59,-79.72"/>
<polygon fill="midnightblue" stroke="midnightblue" points="385.25,-82.81 392.93,-75.52 382.38,-76.43 385.25,-82.81"/>
</g>
<!-- Node10&#45;&gt;Node7 -->
<g id="edge15" class="edge">
<title>Node10&#45;&gt;Node7</title>
<path fill="none" stroke="midnightblue" d="M291.86,-112.08C291.86,-105.01 291.86,-94.86 291.86,-85.99"/>
<polygon fill="midnightblue" stroke="midnightblue" points="295.36,-85.75 291.86,-75.75 288.36,-85.75 295.36,-85.75"/>
</g>
<!-- Node11&#45;&gt;Node7 -->
<g id="edge18" class="edge">
<title>Node11&#45;&gt;Node7</title>
<path fill="none" stroke="midnightblue" d="M337.47,-224.27C344.54,-199.92 362.86,-131.81 352.86,-112 346.05,-98.52 333.09,-88.08 320.86,-80.67"/>
<polygon fill="midnightblue" stroke="midnightblue" points="322.2,-77.41 311.77,-75.59 318.79,-83.52 322.2,-77.41"/>
</g>
<!-- Node11&#45;&gt;Node9 -->
<g id="edge17" class="edge">
<title>Node11&#45;&gt;Node9</title>
<path fill="none" stroke="midnightblue" d="M321.04,-224.32C307.63,-215.9 287.04,-202.97 271.27,-193.07"/>
<polygon fill="midnightblue" stroke="midnightblue" points="272.97,-190.01 262.64,-187.65 269.25,-195.94 272.97,-190.01"/>
</g>
<!-- Node12&#45;&gt;Node3 -->
<g id="edge21" class="edge">
<title>Node12&#45;&gt;Node3</title>
<path fill="none" stroke="midnightblue" d="M120.33,-112.32C108.27,-103.98 89.83,-91.21 75.59,-81.35"/>
<polygon fill="midnightblue" stroke="midnightblue" points="77.58,-78.47 67.36,-75.65 73.59,-84.22 77.58,-78.47"/>
</g>
<!-- Node12&#45;&gt;Node7 -->
<g id="edge22" class="edge">
<title>Node12&#45;&gt;Node7</title>
<path fill="none" stroke="midnightblue" d="M158.05,-112.44C184.8,-103.36 227.26,-88.94 257.17,-78.78"/>
<polygon fill="midnightblue" stroke="midnightblue" points="258.44,-82.05 266.78,-75.52 256.19,-75.42 258.44,-82.05"/>
</g>
</g>
</svg>
