<?xml version="1.0" encoding="UTF-8" standalone="no"?>
<!DOCTYPE svg PUBLIC "-//W3C//DTD SVG 1.1//EN"
 "http://www.w3.org/Graphics/SVG/1.1/DTD/svg11.dtd">
<!-- Generated by graphviz version 2.43.0 (0)
 -->
<!-- Title: VortexEngine/src/Storage/Storage.cpp Pages: 1 -->
<!--zoomable 263 -->
<svg id="main" version="1.1" xmlns="http://www.w3.org/2000/svg" xmlns:xlink="http://www.w3.org/1999/xlink" xml:space="preserve" onload="init(evt)">
<style type="text/css"><![CDATA[
.edge:hover path { stroke: red; }
.edge:hover polygon { stroke: red; fill: red; }
]]></style>
<script type="text/javascript"><![CDATA[
var edges = document.getElementsByTagName('g');
if (edges && edges.length) {
  for (var i=0;i<edges.length;i++) {
    if (edges[i].id.substr(0,4)=='edge') {
      edges[i].setAttribute('class','edge');
    }
  }
}
]]></script>
        <defs>
                <circle id="rim" cx="0" cy="0" r="7"/>
                <circle id="rim2" cx="0" cy="0" r="3.5"/>
                <g id="zoomPlus">
                        <use xlink:href="#rim" fill="#404040">
                                <set attributeName="fill" to="#808080" begin="zoomplus.mouseover" end="zoomplus.mouseout"/>
                        </use>
                        <path d="M-4,0h8M0,-4v8" fill="none" stroke="white" stroke-width="1.5" pointer-events="none"/>
                </g>
                <g id="zoomMin">
                        <use xlink:href="#rim" fill="#404040">
                                <set attributeName="fill" to="#808080" begin="zoomminus.mouseover" end="zoomminus.mouseout"/>
                        </use>
                        <path d="M-4,0h8" fill="none" stroke="white" stroke-width="1.5" pointer-events="none"/>
                </g>
                <g id="dirArrow">
                        <path fill="none" stroke="white" stroke-width="1.5" d="M0,-3.0v7 M-2.5,-0.5L0,-3.0L2.5,-0.5"/>
                </g>
               <g id="resetDef">
                       <use xlink:href="#rim2" fill="#404040">
                               <set attributeName="fill" to="#808080" begin="reset.mouseover" end="reset.mouseout"/>
                       </use>
               </g>
        </defs>

<script type="text/javascript">
var viewWidth = 597;
var viewHeight = 263;
var sectionId = 'dynsection-0';
</script>
<script xlink:href="svgpan.js"/>
<svg id="graph" class="graph">
<g id="viewport">
<title>VortexEngine/src/Storage/Storage.cpp</title>
<!-- Node1 -->
<g id="node1" class="node">
<title>Node1</title>
<g id="a_node1"><a xlink:title=" ">
<polygon fill="#bfbfbf" stroke="black" points="172.82,-224.5 172.82,-254.5 311.82,-254.5 311.82,-224.5 172.82,-224.5"/>
<text text-anchor="start" x="180.82" y="-242.5" font-family="Helvetica,sans-Serif" font-size="10.00">VortexEngine/src/Storage</text>
<text text-anchor="middle" x="242.32" y="-231.5" font-family="Helvetica,sans-Serif" font-size="10.00">/Storage.cpp</text>
</a>
</g>
</g>
<!-- Node2 -->
<g id="node2" class="node">
<title>Node2</title>
<g id="a_node2"><a xlink:href="Storage_8h.html" target="_top" xlink:title=" ">
<polygon fill="none" stroke="black" points="264.82,-168.5 264.82,-187.5 327.82,-187.5 327.82,-168.5 264.82,-168.5"/>
<text text-anchor="middle" x="296.32" y="-175.5" font-family="Helvetica,sans-Serif" font-size="10.00">Storage.h</text>
</a>
</g>
</g>
<!-- Node1&#45;&gt;Node2 -->
<g id="edge1" class="edge">
<title>Node1&#45;&gt;Node2</title>
<path fill="none" stroke="midnightblue" d="M255.12,-224.4C263.04,-215.66 273.25,-204.41 281.53,-195.3"/>
<polygon fill="midnightblue" stroke="midnightblue" points="284.33,-197.42 288.46,-187.66 279.15,-192.71 284.33,-197.42"/>
</g>
<!-- Node4 -->
<g id="node4" class="node">
<title>Node4</title>
<g id="a_node4"><a xlink:title=" ">
<polygon fill="none" stroke="#bfbfbf" points="19.82,-168.5 19.82,-187.5 72.82,-187.5 72.82,-168.5 19.82,-168.5"/>
<text text-anchor="middle" x="46.32" y="-175.5" font-family="Helvetica,sans-Serif" font-size="10.00">string.h</text>
</a>
</g>
</g>
<!-- Node1&#45;&gt;Node4 -->
<g id="edge3" class="edge">
<title>Node1&#45;&gt;Node4</title>
<path fill="none" stroke="midnightblue" d="M195.87,-224.4C161.24,-213.89 114.61,-199.73 82.68,-190.04"/>
<polygon fill="midnightblue" stroke="midnightblue" points="83.44,-186.61 72.86,-187.06 81.41,-193.31 83.44,-186.61"/>
</g>
<!-- Node5 -->
<g id="node5" class="node">
<title>Node5</title>
<g id="a_node5"><a xlink:title=" ">
<polygon fill="none" stroke="#bfbfbf" points="90.82,-112.5 90.82,-131.5 143.82,-131.5 143.82,-112.5 90.82,-112.5"/>
<text text-anchor="middle" x="117.32" y="-119.5" font-family="Helvetica,sans-Serif" font-size="10.00">stdlib.h</text>
</a>
</g>
</g>
<!-- Node1&#45;&gt;Node5 -->
<g id="edge4" class="edge">
<title>Node1&#45;&gt;Node5</title>
<path fill="none" stroke="midnightblue" d="M172.78,-224.73C152.65,-217.25 132.77,-205.73 120.32,-188 111,-174.72 111.19,-155.89 113.15,-141.91"/>
<polygon fill="midnightblue" stroke="midnightblue" points="116.62,-142.4 114.96,-131.94 109.73,-141.15 116.62,-142.4"/>
</g>
<!-- Node6 -->
<g id="node6" class="node">
<title>Node6</title>
<g id="a_node6"><a xlink:href="VortexConfig_8h.html" target="_top" xlink:title=" ">
<polygon fill="none" stroke="black" points="139.82,-56.5 139.82,-75.5 236.82,-75.5 236.82,-56.5 139.82,-56.5"/>
<text text-anchor="middle" x="188.32" y="-63.5" font-family="Helvetica,sans-Serif" font-size="10.00">../VortexConfig.h</text>
</a>
</g>
</g>
<!-- Node1&#45;&gt;Node6 -->
<g id="edge5" class="edge">
<title>Node1&#45;&gt;Node6</title>
<path fill="none" stroke="midnightblue" d="M172.72,-232.83C111.97,-226.27 30.46,-213 10.32,-188 -32.39,-135 75.79,-96.16 141.76,-78.17"/>
<polygon fill="midnightblue" stroke="midnightblue" points="142.8,-81.51 151.56,-75.56 141,-74.75 142.8,-81.51"/>
</g>
<!-- Node8 -->
<g id="node8" class="node">
<title>Node8</title>
<g id="a_node8"><a xlink:href="Memory_8h.html" target="_top" xlink:title=" ">
<polygon fill="none" stroke="black" points="129.82,-168.5 129.82,-187.5 246.82,-187.5 246.82,-168.5 129.82,-168.5"/>
<text text-anchor="middle" x="188.32" y="-175.5" font-family="Helvetica,sans-Serif" font-size="10.00">../Memory/Memory.h</text>
</a>
</g>
</g>
<!-- Node1&#45;&gt;Node8 -->
<g id="edge7" class="edge">
<title>Node1&#45;&gt;Node8</title>
<path fill="none" stroke="midnightblue" d="M229.52,-224.4C221.59,-215.66 211.38,-204.41 203.11,-195.3"/>
<polygon fill="midnightblue" stroke="midnightblue" points="205.49,-192.71 196.18,-187.66 200.3,-197.42 205.49,-192.71"/>
</g>
<!-- Node9 -->
<g id="node9" class="node">
<title>Node9</title>
<g id="a_node9"><a xlink:href="ByteStream_8h.html" target="_top" xlink:title=" ">
<polygon fill="none" stroke="black" points="345.82,-168.5 345.82,-187.5 468.82,-187.5 468.82,-168.5 345.82,-168.5"/>
<text text-anchor="middle" x="407.32" y="-175.5" font-family="Helvetica,sans-Serif" font-size="10.00">../Serial/ByteStream.h</text>
</a>
</g>
</g>
<!-- Node1&#45;&gt;Node9 -->
<g id="edge11" class="edge">
<title>Node1&#45;&gt;Node9</title>
<path fill="none" stroke="midnightblue" d="M281.42,-224.4C309.48,-214.28 346.89,-200.79 373.63,-191.15"/>
<polygon fill="midnightblue" stroke="midnightblue" points="375.09,-194.34 383.31,-187.66 372.72,-187.76 375.09,-194.34"/>
</g>
<!-- Node10 -->
<g id="node10" class="node">
<title>Node10</title>
<g id="a_node10"><a xlink:href="Log_8h.html" target="_top" xlink:title=" ">
<polygon fill="none" stroke="black" points="371.32,-112.5 371.32,-131.5 443.32,-131.5 443.32,-112.5 371.32,-112.5"/>
<text text-anchor="middle" x="407.32" y="-119.5" font-family="Helvetica,sans-Serif" font-size="10.00">../Log/Log.h</text>
</a>
</g>
</g>
<!-- Node1&#45;&gt;Node10 -->
<g id="edge16" class="edge">
<title>Node1&#45;&gt;Node10</title>
<path fill="none" stroke="midnightblue" d="M311.92,-233.13C373.83,-226.73 457.67,-213.53 478.32,-188 494.7,-167.75 464.81,-148.06 438.93,-135.76"/>
<polygon fill="midnightblue" stroke="midnightblue" points="440.22,-132.5 429.67,-131.57 437.34,-138.88 440.22,-132.5"/>
</g>
<!-- Node12 -->
<g id="node12" class="node">
<title>Node12</title>
<g id="a_node12"><a xlink:title=" ">
<polygon fill="none" stroke="#bfbfbf" points="525.82,-168.5 525.82,-187.5 588.82,-187.5 588.82,-168.5 525.82,-168.5"/>
<text text-anchor="middle" x="557.32" y="-175.5" font-family="Helvetica,sans-Serif" font-size="10.00">Arduino.h</text>
</a>
</g>
</g>
<!-- Node1&#45;&gt;Node12 -->
<g id="edge17" class="edge">
<title>Node1&#45;&gt;Node12</title>
<path fill="none" stroke="midnightblue" d="M312.02,-225.57C366.34,-215.45 443.65,-200.97 511.32,-188 512.77,-187.72 514.24,-187.44 515.73,-187.15"/>
<polygon fill="midnightblue" stroke="midnightblue" points="516.5,-190.57 525.65,-185.23 515.17,-183.7 516.5,-190.57"/>
</g>
<!-- Node3 -->
<g id="node3" class="node">
<title>Node3</title>
<g id="a_node3"><a xlink:title=" ">
<polygon fill="none" stroke="#bfbfbf" points="263.82,-112.5 263.82,-131.5 328.82,-131.5 328.82,-112.5 263.82,-112.5"/>
<text text-anchor="middle" x="296.32" y="-119.5" font-family="Helvetica,sans-Serif" font-size="10.00">inttypes.h</text>
</a>
</g>
</g>
<!-- Node2&#45;&gt;Node3 -->
<g id="edge2" class="edge">
<title>Node2&#45;&gt;Node3</title>
<path fill="none" stroke="midnightblue" d="M296.32,-168.08C296.32,-161.01 296.32,-150.86 296.32,-141.99"/>
<polygon fill="midnightblue" stroke="midnightblue" points="299.82,-141.75 296.32,-131.75 292.82,-141.75 299.82,-141.75"/>
</g>
<!-- Node7 -->
<g id="node7" class="node">
<title>Node7</title>
<g id="a_node7"><a xlink:href="ColorConstants_8h.html" target="_top" xlink:title=" ">
<polygon fill="none" stroke="black" points="121.32,-0.5 121.32,-19.5 255.32,-19.5 255.32,-0.5 121.32,-0.5"/>
<text text-anchor="middle" x="188.32" y="-7.5" font-family="Helvetica,sans-Serif" font-size="10.00">Colors/ColorConstants.h</text>
</a>
</g>
</g>
<!-- Node6&#45;&gt;Node7 -->
<g id="edge6" class="edge">
<title>Node6&#45;&gt;Node7</title>
<path fill="none" stroke="midnightblue" d="M188.32,-56.08C188.32,-49.01 188.32,-38.86 188.32,-29.99"/>
<polygon fill="midnightblue" stroke="midnightblue" points="191.82,-29.75 188.32,-19.75 184.82,-29.75 191.82,-29.75"/>
</g>
<!-- Node8&#45;&gt;Node3 -->
<g id="edge8" class="edge">
<title>Node8&#45;&gt;Node3</title>
<path fill="none" stroke="midnightblue" d="M205.67,-168.32C222.99,-159.66 249.83,-146.24 269.82,-136.25"/>
<polygon fill="midnightblue" stroke="midnightblue" points="271.63,-139.26 279.01,-131.65 268.5,-133 271.63,-139.26"/>
</g>
<!-- Node8&#45;&gt;Node5 -->
<g id="edge9" class="edge">
<title>Node8&#45;&gt;Node5</title>
<path fill="none" stroke="midnightblue" d="M176.91,-168.32C166.21,-160.18 149.98,-147.84 137.16,-138.09"/>
<polygon fill="midnightblue" stroke="midnightblue" points="139.01,-135.1 128.93,-131.83 134.77,-140.67 139.01,-135.1"/>
</g>
<!-- Node8&#45;&gt;Node6 -->
<g id="edge10" class="edge">
<title>Node8&#45;&gt;Node6</title>
<path fill="none" stroke="midnightblue" d="M188.32,-168.37C188.32,-150.62 188.32,-109.67 188.32,-85.6"/>
<polygon fill="midnightblue" stroke="midnightblue" points="191.82,-85.59 188.32,-75.59 184.82,-85.59 191.82,-85.59"/>
</g>
<!-- Node9&#45;&gt;Node3 -->
<g id="edge12" class="edge">
<title>Node9&#45;&gt;Node3</title>
<path fill="none" stroke="midnightblue" d="M389.48,-168.32C371.6,-159.62 343.84,-146.12 323.27,-136.11"/>
<polygon fill="midnightblue" stroke="midnightblue" points="324.63,-132.88 314.11,-131.65 321.57,-139.18 324.63,-132.88"/>
</g>
<!-- Node9&#45;&gt;Node10 -->
<g id="edge13" class="edge">
<title>Node9&#45;&gt;Node10</title>
<path fill="none" stroke="midnightblue" d="M407.32,-168.08C407.32,-161.01 407.32,-150.86 407.32,-141.99"/>
<polygon fill="midnightblue" stroke="midnightblue" points="410.82,-141.75 407.32,-131.75 403.82,-141.75 410.82,-141.75"/>
</g>
<!-- Node10&#45;&gt;Node6 -->
<g id="edge15" class="edge">
<title>Node10&#45;&gt;Node6</title>
<path fill="none" stroke="midnightblue" d="M372.62,-112.44C334.73,-103.1 273.97,-88.12 232.66,-77.93"/>
<polygon fill="midnightblue" stroke="midnightblue" points="233.4,-74.51 222.86,-75.52 231.73,-81.31 233.4,-74.51"/>
</g>
<!-- Node11 -->
<g id="node11" class="node">
<title>Node11</title>
<g id="a_node11"><a xlink:title=" ">
<polygon fill="none" stroke="#bfbfbf" points="379.32,-56.5 379.32,-75.5 435.32,-75.5 435.32,-56.5 379.32,-56.5"/>
<text text-anchor="middle" x="407.32" y="-63.5" font-family="Helvetica,sans-Serif" font-size="10.00">stdarg.h</text>
</a>
</g>
</g>
<!-- Node10&#45;&gt;Node11 -->
<g id="edge14" class="edge">
<title>Node10&#45;&gt;Node11</title>
<path fill="none" stroke="midnightblue" d="M407.32,-112.08C407.32,-105.01 407.32,-94.86 407.32,-85.99"/>
<polygon fill="midnightblue" stroke="midnightblue" points="410.82,-85.75 407.32,-75.75 403.82,-85.75 410.82,-85.75"/>
</g>
</g>
</svg>
        <g id="navigator" transform="translate(0 0)" fill="#404254">
                <rect fill="#f2f5e9" fill-opacity="0.5" stroke="#606060" stroke-width=".5" x="0" y="0" width="60" height="60"/>
                <use id="zoomplus" xlink:href="#zoomPlus" x="17" y="9" onmousedown="handleZoom(evt,'in')"/>
                <use id="zoomminus" xlink:href="#zoomMin" x="42" y="9" onmousedown="handleZoom(evt,'out')"/>
                <use id="reset" xlink:href="#resetDef" x="30" y="36" onmousedown="handleReset()"/>
                <g id="arrowUp" xlink:href="#dirArrow" transform="translate(30 24)" onmousedown="handlePan(0,-1)">
                  <use xlink:href="#rim" fill="#404040">
                        <set attributeName="fill" to="#808080" begin="arrowUp.mouseover" end="arrowUp.mouseout"/>
                  </use>
                  <path fill="none" stroke="white" stroke-width="1.5" d="M0,-3.0v7 M-2.5,-0.5L0,-3.0L2.5,-0.5"/>
                </g>
                <g id="arrowRight" xlink:href="#dirArrow" transform="rotate(90) translate(36 -43)" onmousedown="handlePan(1,0)">
                  <use xlink:href="#rim" fill="#404040">
                        <set attributeName="fill" to="#808080" begin="arrowRight.mouseover" end="arrowRight.mouseout"/>
                  </use>
                  <path fill="none" stroke="white" stroke-width="1.5" d="M0,-3.0v7 M-2.5,-0.5L0,-3.0L2.5,-0.5"/>
                </g>
                <g id="arrowDown" xlink:href="#dirArrow" transform="rotate(180) translate(-30 -48)" onmousedown="handlePan(0,1)">
                  <use xlink:href="#rim" fill="#404040">
                        <set attributeName="fill" to="#808080" begin="arrowDown.mouseover" end="arrowDown.mouseout"/>
                  </use>
                  <path fill="none" stroke="white" stroke-width="1.5" d="M0,-3.0v7 M-2.5,-0.5L0,-3.0L2.5,-0.5"/>
                </g>
                <g id="arrowLeft" xlink:href="#dirArrow" transform="rotate(270) translate(-36 17)" onmousedown="handlePan(-1,0)">
                  <use xlink:href="#rim" fill="#404040">
                        <set attributeName="fill" to="#808080" begin="arrowLeft.mouseover" end="arrowLeft.mouseout"/>
                  </use>
                  <path fill="none" stroke="white" stroke-width="1.5" d="M0,-3.0v7 M-2.5,-0.5L0,-3.0L2.5,-0.5"/>
                </g>
        </g>
        <svg viewBox="0 0 15 15" width="100%" height="30px" preserveAspectRatio="xMaxYMin meet">
         <g id="arrow_out" transform="scale(0.3 0.3)">
          <a xlink:href="Storage_8cpp__incl_org.svg" target="_base">
           <rect id="button" ry="5" rx="5" y="6" x="6" height="38" width="38"
                fill="#f2f5e9" fill-opacity="0.5" stroke="#606060" stroke-width="1.0"/>
           <path id="arrow"
             d="M 11.500037,31.436501 C 11.940474,20.09759 22.043105,11.32322 32.158766,21.979434 L 37.068811,17.246167 C 37.068811,17.246167 37.088388,32 37.088388,32 L 22.160133,31.978069 C 22.160133,31.978069 26.997745,27.140456 26.997745,27.140456 C 18.528582,18.264221 13.291696,25.230495 11.500037,31.436501 z"
             style="fill:#404040;"/>
          </a>
         </g>
        </svg>
</svg>
