<?xml version="1.0" encoding="UTF-8" standalone="no"?>
<!DOCTYPE svg PUBLIC "-//W3C//DTD SVG 1.1//EN"
 "http://www.w3.org/Graphics/SVG/1.1/DTD/svg11.dtd">
<!-- Generated by graphviz version 2.43.0 (0)
 -->
<!-- Title: VortexEngine/src/Storage/Storage.cpp Pages: 1 -->
<!--zoomable 263 -->
<svg id="main" version="1.1" xmlns="http://www.w3.org/2000/svg" xmlns:xlink="http://www.w3.org/1999/xlink" xml:space="preserve" onload="init(evt)">
<style type="text/css"><![CDATA[
.edge:hover path { stroke: red; }
.edge:hover polygon { stroke: red; fill: red; }
]]></style>
<script type="text/javascript"><![CDATA[
var edges = document.getElementsByTagName('g');
if (edges && edges.length) {
  for (var i=0;i<edges.length;i++) {
    if (edges[i].id.substr(0,4)=='edge') {
      edges[i].setAttribute('class','edge');
    }
  }
}
]]></script>
        <defs>
                <circle id="rim" cx="0" cy="0" r="7"/>
                <circle id="rim2" cx="0" cy="0" r="3.5"/>
                <g id="zoomPlus">
                        <use xlink:href="#rim" fill="#404040">
                                <set attributeName="fill" to="#808080" begin="zoomplus.mouseover" end="zoomplus.mouseout"/>
                        </use>
                        <path d="M-4,0h8M0,-4v8" fill="none" stroke="white" stroke-width="1.5" pointer-events="none"/>
                </g>
                <g id="zoomMin">
                        <use xlink:href="#rim" fill="#404040">
                                <set attributeName="fill" to="#808080" begin="zoomminus.mouseover" end="zoomminus.mouseout"/>
                        </use>
                        <path d="M-4,0h8" fill="none" stroke="white" stroke-width="1.5" pointer-events="none"/>
                </g>
                <g id="dirArrow">
                        <path fill="none" stroke="white" stroke-width="1.5" d="M0,-3.0v7 M-2.5,-0.5L0,-3.0L2.5,-0.5"/>
                </g>
               <g id="resetDef">
                       <use xlink:href="#rim2" fill="#404040">
                               <set attributeName="fill" to="#808080" begin="reset.mouseover" end="reset.mouseout"/>
                       </use>
               </g>
        </defs>

<script type="text/javascript">
var viewWidth = 893;
var viewHeight = 263;
var sectionId = 'dynsection-0';
</script>
<script xlink:href="svgpan.js"/>
<svg id="graph" class="graph">
<g id="viewport">
<title>VortexEngine/src/Storage/Storage.cpp</title>
<!-- Node1 -->
<g id="node1" class="node">
<title>Node1</title>
<g id="a_node1"><a xlink:title=" ">
<polygon fill="#bfbfbf" stroke="black" points="338.73,-224.5 338.73,-254.5 477.73,-254.5 477.73,-224.5 338.73,-224.5"/>
<text text-anchor="start" x="346.73" y="-242.5" font-family="Helvetica,sans-Serif" font-size="10.00">VortexEngine/src/Storage</text>
<text text-anchor="middle" x="408.23" y="-231.5" font-family="Helvetica,sans-Serif" font-size="10.00">/Storage.cpp</text>
</a>
</g>
</g>
<!-- Node2 -->
<g id="node2" class="node">
<title>Node2</title>
<g id="a_node2"><a xlink:href="Storage_8h.html" target="_top" xlink:title=" ">
<polygon fill="none" stroke="black" points="265.73,-168.5 265.73,-187.5 328.73,-187.5 328.73,-168.5 265.73,-168.5"/>
<text text-anchor="middle" x="297.23" y="-175.5" font-family="Helvetica,sans-Serif" font-size="10.00">Storage.h</text>
</a>
</g>
</g>
<!-- Node1&#45;&gt;Node2 -->
<g id="edge1" class="edge">
<title>Node1&#45;&gt;Node2</title>
<path fill="none" stroke="midnightblue" d="M381.92,-224.4C363.96,-214.77 340.3,-202.09 322.55,-192.58"/>
<polygon fill="midnightblue" stroke="midnightblue" points="323.84,-189.3 313.38,-187.66 320.54,-195.47 323.84,-189.3"/>
</g>
<!-- Node4 -->
<g id="node4" class="node">
<title>Node4</title>
<g id="a_node4"><a xlink:title=" ">
<polygon fill="none" stroke="#bfbfbf" points="20.73,-168.5 20.73,-187.5 73.73,-187.5 73.73,-168.5 20.73,-168.5"/>
<text text-anchor="middle" x="47.23" y="-175.5" font-family="Helvetica,sans-Serif" font-size="10.00">string.h</text>
</a>
</g>
</g>
<!-- Node1&#45;&gt;Node4 -->
<g id="edge3" class="edge">
<title>Node1&#45;&gt;Node4</title>
<path fill="none" stroke="midnightblue" d="M338.42,-228.71C273.45,-219.3 174.03,-204.17 88.23,-188 86.94,-187.76 85.63,-187.5 84.3,-187.24"/>
<polygon fill="midnightblue" stroke="midnightblue" points="84.59,-183.73 74.08,-185.14 83.17,-190.58 84.59,-183.73"/>
</g>
<!-- Node5 -->
<g id="node5" class="node">
<title>Node5</title>
<g id="a_node5"><a xlink:title=" ">
<polygon fill="none" stroke="#bfbfbf" points="91.73,-112.5 91.73,-131.5 144.73,-131.5 144.73,-112.5 91.73,-112.5"/>
<text text-anchor="middle" x="118.23" y="-119.5" font-family="Helvetica,sans-Serif" font-size="10.00">stdlib.h</text>
</a>
</g>
</g>
<!-- Node1&#45;&gt;Node5 -->
<g id="edge4" class="edge">
<title>Node1&#45;&gt;Node5</title>
<path fill="none" stroke="midnightblue" d="M338.4,-235.93C262.76,-231.55 149.12,-219.72 121.23,-188 110.29,-175.56 110.89,-156.05 113.41,-141.65"/>
<polygon fill="midnightblue" stroke="midnightblue" points="116.84,-142.34 115.55,-131.83 110,-140.86 116.84,-142.34"/>
</g>
<!-- Node6 -->
<g id="node6" class="node">
<title>Node6</title>
<g id="a_node6"><a xlink:href="VortexConfig_8h.html" target="_top" xlink:title=" ">
<polygon fill="none" stroke="black" points="140.73,-56.5 140.73,-75.5 237.73,-75.5 237.73,-56.5 140.73,-56.5"/>
<text text-anchor="middle" x="189.23" y="-63.5" font-family="Helvetica,sans-Serif" font-size="10.00">../VortexConfig.h</text>
</a>
</g>
</g>
<!-- Node1&#45;&gt;Node6 -->
<g id="edge5" class="edge">
<title>Node1&#45;&gt;Node6</title>
<path fill="none" stroke="midnightblue" d="M338.45,-234.57C230.33,-227.75 32.47,-212.11 11.23,-188 -34.12,-136.53 77.1,-96.65 143.66,-78.21"/>
<polygon fill="midnightblue" stroke="midnightblue" points="144.79,-81.53 153.53,-75.54 142.96,-74.78 144.79,-81.53"/>
</g>
<!-- Node8 -->
<g id="node8" class="node">
<title>Node8</title>
<g id="a_node8"><a xlink:href="Memory_8h.html" target="_top" xlink:title=" ">
<polygon fill="none" stroke="black" points="130.73,-168.5 130.73,-187.5 247.73,-187.5 247.73,-168.5 130.73,-168.5"/>
<text text-anchor="middle" x="189.23" y="-175.5" font-family="Helvetica,sans-Serif" font-size="10.00">../Memory/Memory.h</text>
</a>
</g>
</g>
<!-- Node1&#45;&gt;Node8 -->
<g id="edge7" class="edge">
<title>Node1&#45;&gt;Node8</title>
<path fill="none" stroke="midnightblue" d="M356.6,-224.47C318.16,-214.03 266.36,-199.96 230.62,-190.25"/>
<polygon fill="midnightblue" stroke="midnightblue" points="231.1,-186.75 220.53,-187.51 229.27,-193.51 231.1,-186.75"/>
</g>
<!-- Node9 -->
<g id="node9" class="node">
<title>Node9</title>
<g id="a_node9"><a xlink:href="ByteStream_8h.html" target="_top" xlink:title=" ">
<polygon fill="none" stroke="black" points="346.73,-168.5 346.73,-187.5 469.73,-187.5 469.73,-168.5 346.73,-168.5"/>
<text text-anchor="middle" x="408.23" y="-175.5" font-family="Helvetica,sans-Serif" font-size="10.00">../Serial/ByteStream.h</text>
</a>
</g>
</g>
<!-- Node1&#45;&gt;Node9 -->
<g id="edge11" class="edge">
<title>Node1&#45;&gt;Node9</title>
<path fill="none" stroke="midnightblue" d="M408.23,-224.4C408.23,-216.47 408.23,-206.46 408.23,-197.86"/>
<polygon fill="midnightblue" stroke="midnightblue" points="411.73,-197.66 408.23,-187.66 404.73,-197.66 411.73,-197.66"/>
</g>
<!-- Node10 -->
<g id="node10" class="node">
<title>Node10</title>
<g id="a_node10"><a xlink:href="Log_8h.html" target="_top" xlink:title=" ">
<polygon fill="none" stroke="black" points="372.23,-112.5 372.23,-131.5 444.23,-131.5 444.23,-112.5 372.23,-112.5"/>
<text text-anchor="middle" x="408.23" y="-119.5" font-family="Helvetica,sans-Serif" font-size="10.00">../Log/Log.h</text>
</a>
</g>
</g>
<!-- Node1&#45;&gt;Node10 -->
<g id="edge16" class="edge">
<title>Node1&#45;&gt;Node10</title>
<path fill="none" stroke="midnightblue" d="M440.64,-224.25C464.89,-211.38 491.87,-190.98 479.23,-168 471.34,-153.66 456.74,-143.25 442.82,-136.08"/>
<polygon fill="midnightblue" stroke="midnightblue" points="443.92,-132.73 433.39,-131.62 440.93,-139.06 443.92,-132.73"/>
</g>
<!-- Node12 -->
<g id="node12" class="node">
<title>Node12</title>
<g id="a_node12"><a xlink:title=" ">
<polygon fill="none" stroke="#bfbfbf" points="526.73,-168.5 526.73,-187.5 579.73,-187.5 579.73,-168.5 526.73,-168.5"/>
<text text-anchor="middle" x="553.23" y="-175.5" font-family="Helvetica,sans-Serif" font-size="10.00">avr/io.h</text>
</a>
</g>
</g>
<!-- Node1&#45;&gt;Node12 -->
<g id="edge17" class="edge">
<title>Node1&#45;&gt;Node12</title>
<path fill="none" stroke="midnightblue" d="M442.59,-224.4C466.92,-214.42 499.25,-201.15 522.68,-191.53"/>
<polygon fill="midnightblue" stroke="midnightblue" points="524.2,-194.69 532.13,-187.66 521.55,-188.22 524.2,-194.69"/>
</g>
<!-- Node13 -->
<g id="node13" class="node">
<title>Node13</title>
<g id="a_node13"><a xlink:title=" ">
<polygon fill="none" stroke="#bfbfbf" points="597.73,-168.5 597.73,-187.5 692.73,-187.5 692.73,-168.5 597.73,-168.5"/>
<text text-anchor="middle" x="645.23" y="-175.5" font-family="Helvetica,sans-Serif" font-size="10.00">avr/pgmspace.h</text>
</a>
</g>
</g>
<!-- Node1&#45;&gt;Node13 -->
<g id="edge18" class="edge">
<title>Node1&#45;&gt;Node13</title>
<path fill="none" stroke="midnightblue" d="M464.09,-224.47C506.05,-213.94 562.71,-199.72 601.42,-190"/>
<polygon fill="midnightblue" stroke="midnightblue" points="602.5,-193.34 611.34,-187.51 600.79,-186.55 602.5,-193.34"/>
</g>
<!-- Node14 -->
<g id="node14" class="node">
<title>Node14</title>
<g id="a_node14"><a xlink:title=" ">
<polygon fill="none" stroke="#bfbfbf" points="711.23,-168.5 711.23,-187.5 797.23,-187.5 797.23,-168.5 711.23,-168.5"/>
<text text-anchor="middle" x="754.23" y="-175.5" font-family="Helvetica,sans-Serif" font-size="10.00">avr/interrupt.h</text>
</a>
</g>
</g>
<!-- Node1&#45;&gt;Node14 -->
<g id="edge19" class="edge">
<title>Node1&#45;&gt;Node14</title>
<path fill="none" stroke="midnightblue" d="M477.73,-226.59C534.98,-216.77 618.58,-202.42 701.05,-188.2"/>
<polygon fill="midnightblue" stroke="midnightblue" points="701.84,-191.62 711.1,-186.47 700.65,-184.72 701.84,-191.62"/>
</g>
<!-- Node15 -->
<g id="node15" class="node">
<title>Node15</title>
<g id="a_node15"><a xlink:title=" ">
<polygon fill="none" stroke="#bfbfbf" points="815.23,-168.5 815.23,-187.5 885.23,-187.5 885.23,-168.5 815.23,-168.5"/>
<text text-anchor="middle" x="850.23" y="-175.5" font-family="Helvetica,sans-Serif" font-size="10.00">util/delay.h</text>
</a>
</g>
</g>
<!-- Node1&#45;&gt;Node15 -->
<g id="edge20" class="edge">
<title>Node1&#45;&gt;Node15</title>
<path fill="none" stroke="midnightblue" d="M477.84,-231.28C555.29,-222.88 684.34,-207.81 805.05,-188.09"/>
<polygon fill="midnightblue" stroke="midnightblue" points="805.91,-191.49 815.21,-186.41 804.77,-184.58 805.91,-191.49"/>
</g>
<!-- Node3 -->
<g id="node3" class="node">
<title>Node3</title>
<g id="a_node3"><a xlink:title=" ">
<polygon fill="none" stroke="#bfbfbf" points="264.73,-112.5 264.73,-131.5 329.73,-131.5 329.73,-112.5 264.73,-112.5"/>
<text text-anchor="middle" x="297.23" y="-119.5" font-family="Helvetica,sans-Serif" font-size="10.00">inttypes.h</text>
</a>
</g>
</g>
<!-- Node2&#45;&gt;Node3 -->
<g id="edge2" class="edge">
<title>Node2&#45;&gt;Node3</title>
<path fill="none" stroke="midnightblue" d="M297.23,-168.08C297.23,-161.01 297.23,-150.86 297.23,-141.99"/>
<polygon fill="midnightblue" stroke="midnightblue" points="300.73,-141.75 297.23,-131.75 293.73,-141.75 300.73,-141.75"/>
</g>
<!-- Node7 -->
<g id="node7" class="node">
<title>Node7</title>
<g id="a_node7"><a xlink:href="ColorConstants_8h.html" target="_top" xlink:title=" ">
<polygon fill="none" stroke="black" points="122.23,-0.5 122.23,-19.5 256.23,-19.5 256.23,-0.5 122.23,-0.5"/>
<text text-anchor="middle" x="189.23" y="-7.5" font-family="Helvetica,sans-Serif" font-size="10.00">Colors/ColorConstants.h</text>
</a>
</g>
</g>
<!-- Node6&#45;&gt;Node7 -->
<g id="edge6" class="edge">
<title>Node6&#45;&gt;Node7</title>
<path fill="none" stroke="midnightblue" d="M189.23,-56.08C189.23,-49.01 189.23,-38.86 189.23,-29.99"/>
<polygon fill="midnightblue" stroke="midnightblue" points="192.73,-29.75 189.23,-19.75 185.73,-29.75 192.73,-29.75"/>
</g>
<!-- Node8&#45;&gt;Node3 -->
<g id="edge8" class="edge">
<title>Node8&#45;&gt;Node3</title>
<path fill="none" stroke="midnightblue" d="M206.58,-168.32C223.9,-159.66 250.74,-146.24 270.73,-136.25"/>
<polygon fill="midnightblue" stroke="midnightblue" points="272.54,-139.26 279.92,-131.65 269.41,-133 272.54,-139.26"/>
</g>
<!-- Node8&#45;&gt;Node5 -->
<g id="edge9" class="edge">
<title>Node8&#45;&gt;Node5</title>
<path fill="none" stroke="midnightblue" d="M177.82,-168.32C167.12,-160.18 150.88,-147.84 138.06,-138.09"/>
<polygon fill="midnightblue" stroke="midnightblue" points="139.92,-135.1 129.84,-131.83 135.68,-140.67 139.92,-135.1"/>
</g>
<!-- Node8&#45;&gt;Node6 -->
<g id="edge10" class="edge">
<title>Node8&#45;&gt;Node6</title>
<path fill="none" stroke="midnightblue" d="M189.23,-168.37C189.23,-150.62 189.23,-109.67 189.23,-85.6"/>
<polygon fill="midnightblue" stroke="midnightblue" points="192.73,-85.59 189.23,-75.59 185.73,-85.59 192.73,-85.59"/>
</g>
<!-- Node9&#45;&gt;Node3 -->
<g id="edge12" class="edge">
<title>Node9&#45;&gt;Node3</title>
<path fill="none" stroke="midnightblue" d="M390.39,-168.32C372.51,-159.62 344.75,-146.12 324.18,-136.11"/>
<polygon fill="midnightblue" stroke="midnightblue" points="325.54,-132.88 315.02,-131.65 322.48,-139.18 325.54,-132.88"/>
</g>
<!-- Node9&#45;&gt;Node10 -->
<g id="edge13" class="edge">
<title>Node9&#45;&gt;Node10</title>
<path fill="none" stroke="midnightblue" d="M408.23,-168.08C408.23,-161.01 408.23,-150.86 408.23,-141.99"/>
<polygon fill="midnightblue" stroke="midnightblue" points="411.73,-141.75 408.23,-131.75 404.73,-141.75 411.73,-141.75"/>
</g>
<!-- Node10&#45;&gt;Node6 -->
<g id="edge15" class="edge">
<title>Node10&#45;&gt;Node6</title>
<path fill="none" stroke="midnightblue" d="M373.52,-112.44C335.64,-103.1 274.88,-88.12 233.56,-77.93"/>
<polygon fill="midnightblue" stroke="midnightblue" points="234.31,-74.51 223.76,-75.52 232.64,-81.31 234.31,-74.51"/>
</g>
<!-- Node11 -->
<g id="node11" class="node">
<title>Node11</title>
<g id="a_node11"><a xlink:title=" ">
<polygon fill="none" stroke="#bfbfbf" points="380.23,-56.5 380.23,-75.5 436.23,-75.5 436.23,-56.5 380.23,-56.5"/>
<text text-anchor="middle" x="408.23" y="-63.5" font-family="Helvetica,sans-Serif" font-size="10.00">stdarg.h</text>
</a>
</g>
</g>
<!-- Node10&#45;&gt;Node11 -->
<g id="edge14" class="edge">
<title>Node10&#45;&gt;Node11</title>
<path fill="none" stroke="midnightblue" d="M408.23,-112.08C408.23,-105.01 408.23,-94.86 408.23,-85.99"/>
<polygon fill="midnightblue" stroke="midnightblue" points="411.73,-85.75 408.23,-75.75 404.73,-85.75 411.73,-85.75"/>
</g>
</g>
</svg>
        <g id="navigator" transform="translate(0 0)" fill="#404254">
                <rect fill="#f2f5e9" fill-opacity="0.5" stroke="#606060" stroke-width=".5" x="0" y="0" width="60" height="60"/>
                <use id="zoomplus" xlink:href="#zoomPlus" x="17" y="9" onmousedown="handleZoom(evt,'in')"/>
                <use id="zoomminus" xlink:href="#zoomMin" x="42" y="9" onmousedown="handleZoom(evt,'out')"/>
                <use id="reset" xlink:href="#resetDef" x="30" y="36" onmousedown="handleReset()"/>
                <g id="arrowUp" xlink:href="#dirArrow" transform="translate(30 24)" onmousedown="handlePan(0,-1)">
                  <use xlink:href="#rim" fill="#404040">
                        <set attributeName="fill" to="#808080" begin="arrowUp.mouseover" end="arrowUp.mouseout"/>
                  </use>
                  <path fill="none" stroke="white" stroke-width="1.5" d="M0,-3.0v7 M-2.5,-0.5L0,-3.0L2.5,-0.5"/>
                </g>
                <g id="arrowRight" xlink:href="#dirArrow" transform="rotate(90) translate(36 -43)" onmousedown="handlePan(1,0)">
                  <use xlink:href="#rim" fill="#404040">
                        <set attributeName="fill" to="#808080" begin="arrowRight.mouseover" end="arrowRight.mouseout"/>
                  </use>
                  <path fill="none" stroke="white" stroke-width="1.5" d="M0,-3.0v7 M-2.5,-0.5L0,-3.0L2.5,-0.5"/>
                </g>
                <g id="arrowDown" xlink:href="#dirArrow" transform="rotate(180) translate(-30 -48)" onmousedown="handlePan(0,1)">
                  <use xlink:href="#rim" fill="#404040">
                        <set attributeName="fill" to="#808080" begin="arrowDown.mouseover" end="arrowDown.mouseout"/>
                  </use>
                  <path fill="none" stroke="white" stroke-width="1.5" d="M0,-3.0v7 M-2.5,-0.5L0,-3.0L2.5,-0.5"/>
                </g>
                <g id="arrowLeft" xlink:href="#dirArrow" transform="rotate(270) translate(-36 17)" onmousedown="handlePan(-1,0)">
                  <use xlink:href="#rim" fill="#404040">
                        <set attributeName="fill" to="#808080" begin="arrowLeft.mouseover" end="arrowLeft.mouseout"/>
                  </use>
                  <path fill="none" stroke="white" stroke-width="1.5" d="M0,-3.0v7 M-2.5,-0.5L0,-3.0L2.5,-0.5"/>
                </g>
        </g>
        <svg viewBox="0 0 15 15" width="100%" height="30px" preserveAspectRatio="xMaxYMin meet">
         <g id="arrow_out" transform="scale(0.3 0.3)">
          <a xlink:href="Storage_8cpp__incl_org.svg" target="_base">
           <rect id="button" ry="5" rx="5" y="6" x="6" height="38" width="38"
                fill="#f2f5e9" fill-opacity="0.5" stroke="#606060" stroke-width="1.0"/>
           <path id="arrow"
             d="M 11.500037,31.436501 C 11.940474,20.09759 22.043105,11.32322 32.158766,21.979434 L 37.068811,17.246167 C 37.068811,17.246167 37.088388,32 37.088388,32 L 22.160133,31.978069 C 22.160133,31.978069 26.997745,27.140456 26.997745,27.140456 C 18.528582,18.264221 13.291696,25.230495 11.500037,31.436501 z"
             style="fill:#404040;"/>
          </a>
         </g>
        </svg>
</svg>
