<?xml version="1.0" encoding="UTF-8" standalone="no"?>
<!DOCTYPE svg PUBLIC "-//W3C//DTD SVG 1.1//EN"
 "http://www.w3.org/Graphics/SVG/1.1/DTD/svg11.dtd">
<!-- Generated by graphviz version 2.43.0 (0)
 -->
<!-- Title: VortexEngine/src/Storage/Storage.cpp Pages: 1 -->
<svg width="872pt" height="319pt"
 viewBox="0.00 0.00 872.00 319.00" xmlns="http://www.w3.org/2000/svg" xmlns:xlink="http://www.w3.org/1999/xlink">
<g id="graph0" class="graph" transform="scale(1 1) rotate(0) translate(4 315)">
<title>VortexEngine/src/Storage/Storage.cpp</title>
<!-- Node1 -->
<g id="node1" class="node">
<title>Node1</title>
<g id="a_node1"><a xlink:title=" ">
<polygon fill="#bfbfbf" stroke="black" points="527,-280.5 527,-310.5 666,-310.5 666,-280.5 527,-280.5"/>
<text text-anchor="start" x="535" y="-298.5" font-family="Helvetica,sans-Serif" font-size="10.00">VortexEngine/src/Storage</text>
<text text-anchor="middle" x="596.5" y="-287.5" font-family="Helvetica,sans-Serif" font-size="10.00">/Storage.cpp</text>
</a>
</g>
</g>
<!-- Node2 -->
<g id="node2" class="node">
<title>Node2</title>
<g id="a_node2"><a xlink:href="Storage_8h.html" target="_top" xlink:title=" ">
<polygon fill="none" stroke="black" points="0,-168.5 0,-187.5 63,-187.5 63,-168.5 0,-168.5"/>
<text text-anchor="middle" x="31.5" y="-175.5" font-family="Helvetica,sans-Serif" font-size="10.00">Storage.h</text>
</a>
</g>
</g>
<!-- Node1&#45;&gt;Node2 -->
<g id="edge1" class="edge">
<title>Node1&#45;&gt;Node2</title>
<path fill="none" stroke="midnightblue" d="M526.95,-283.3C468.91,-273.7 384.1,-259.06 310.5,-244 225.82,-226.67 127.52,-202.91 73.13,-189.44"/>
<polygon fill="midnightblue" stroke="midnightblue" points="73.73,-185.98 63.18,-186.97 72.04,-192.78 73.73,-185.98"/>
</g>
<!-- Node4 -->
<g id="node4" class="node">
<title>Node4</title>
<g id="a_node4"><a xlink:title=" ">
<polygon fill="none" stroke="#bfbfbf" points="750,-224.5 750,-243.5 803,-243.5 803,-224.5 750,-224.5"/>
<text text-anchor="middle" x="776.5" y="-231.5" font-family="Helvetica,sans-Serif" font-size="10.00">string.h</text>
</a>
</g>
</g>
<!-- Node1&#45;&gt;Node4 -->
<g id="edge3" class="edge">
<title>Node1&#45;&gt;Node4</title>
<path fill="none" stroke="midnightblue" d="M639.16,-280.4C670.13,-270.16 711.55,-256.47 740.78,-246.81"/>
<polygon fill="midnightblue" stroke="midnightblue" points="742.17,-250.03 750.57,-243.57 739.98,-243.39 742.17,-250.03"/>
</g>
<!-- Node5 -->
<g id="node5" class="node">
<title>Node5</title>
<g id="a_node5"><a xlink:title=" ">
<polygon fill="none" stroke="#bfbfbf" points="640,-168.5 640,-187.5 693,-187.5 693,-168.5 640,-168.5"/>
<text text-anchor="middle" x="666.5" y="-175.5" font-family="Helvetica,sans-Serif" font-size="10.00">stdlib.h</text>
</a>
</g>
</g>
<!-- Node1&#45;&gt;Node5 -->
<g id="edge4" class="edge">
<title>Node1&#45;&gt;Node5</title>
<path fill="none" stroke="midnightblue" d="M625.54,-280.39C639.6,-271.92 655.21,-259.72 663.5,-244 671,-229.79 671.09,-211.32 669.69,-197.7"/>
<polygon fill="midnightblue" stroke="midnightblue" points="673.13,-197.02 668.3,-187.6 666.2,-197.98 673.13,-197.02"/>
</g>
<!-- Node6 -->
<g id="node6" class="node">
<title>Node6</title>
<g id="a_node6"><a xlink:href="VortexConfig_8h.html" target="_top" xlink:title=" ">
<polygon fill="none" stroke="black" points="432,-56.5 432,-75.5 529,-75.5 529,-56.5 432,-56.5"/>
<text text-anchor="middle" x="480.5" y="-63.5" font-family="Helvetica,sans-Serif" font-size="10.00">../VortexConfig.h</text>
</a>
</g>
</g>
<!-- Node1&#45;&gt;Node6 -->
<g id="edge5" class="edge">
<title>Node1&#45;&gt;Node6</title>
<path fill="none" stroke="midnightblue" d="M630.95,-280.38C647.84,-271.97 667.33,-259.83 680.5,-244 702.92,-217.07 718.36,-198.72 701.5,-168 669.56,-109.81 593.38,-85 539.42,-74.51"/>
<polygon fill="midnightblue" stroke="midnightblue" points="539.75,-71.01 529.28,-72.66 538.49,-77.9 539.75,-71.01"/>
</g>
<!-- Node8 -->
<g id="node8" class="node">
<title>Node8</title>
<g id="a_node8"><a xlink:href="Memory_8h.html" target="_top" xlink:title=" ">
<polygon fill="none" stroke="black" points="538,-224.5 538,-243.5 655,-243.5 655,-224.5 538,-224.5"/>
<text text-anchor="middle" x="596.5" y="-231.5" font-family="Helvetica,sans-Serif" font-size="10.00">../Memory/Memory.h</text>
</a>
</g>
</g>
<!-- Node1&#45;&gt;Node8 -->
<g id="edge7" class="edge">
<title>Node1&#45;&gt;Node8</title>
<path fill="none" stroke="midnightblue" d="M596.5,-280.4C596.5,-272.47 596.5,-262.46 596.5,-253.86"/>
<polygon fill="midnightblue" stroke="midnightblue" points="600,-253.66 596.5,-243.66 593,-253.66 600,-253.66"/>
</g>
<!-- Node9 -->
<g id="node9" class="node">
<title>Node9</title>
<g id="a_node9"><a xlink:href="ByteStream_8h.html" target="_top" xlink:title=" ">
<polygon fill="none" stroke="black" points="320,-224.5 320,-243.5 443,-243.5 443,-224.5 320,-224.5"/>
<text text-anchor="middle" x="381.5" y="-231.5" font-family="Helvetica,sans-Serif" font-size="10.00">../Serial/ByteStream.h</text>
</a>
</g>
</g>
<!-- Node1&#45;&gt;Node9 -->
<g id="edge11" class="edge">
<title>Node1&#45;&gt;Node9</title>
<path fill="none" stroke="midnightblue" d="M545.82,-280.47C508.08,-270.03 457.23,-255.96 422.14,-246.25"/>
<polygon fill="midnightblue" stroke="midnightblue" points="422.81,-242.8 412.24,-243.51 420.94,-249.55 422.81,-242.8"/>
</g>
<!-- Node10 -->
<g id="node10" class="node">
<title>Node10</title>
<g id="a_node10"><a xlink:href="Log_8h.html" target="_top" xlink:title=" ">
<polygon fill="none" stroke="black" points="473.5,-168.5 473.5,-187.5 545.5,-187.5 545.5,-168.5 473.5,-168.5"/>
<text text-anchor="middle" x="509.5" y="-175.5" font-family="Helvetica,sans-Serif" font-size="10.00">../Log/Log.h</text>
</a>
</g>
</g>
<!-- Node1&#45;&gt;Node10 -->
<g id="edge19" class="edge">
<title>Node1&#45;&gt;Node10</title>
<path fill="none" stroke="midnightblue" d="M569.89,-280.42C555.73,-271.68 539.09,-259.21 528.5,-244 518.95,-230.28 514.15,-211.75 511.76,-197.98"/>
<polygon fill="midnightblue" stroke="midnightblue" points="515.18,-197.15 510.28,-187.75 508.25,-198.15 515.18,-197.15"/>
</g>
<!-- Node13 -->
<g id="node13" class="node">
<title>Node13</title>
<g id="a_node13"><a xlink:href="Leds_8h.html" target="_top" xlink:title=" ">
<polygon fill="none" stroke="black" points="272,-168.5 272,-187.5 355,-187.5 355,-168.5 272,-168.5"/>
<text text-anchor="middle" x="313.5" y="-175.5" font-family="Helvetica,sans-Serif" font-size="10.00">../Leds/Leds.h</text>
</a>
</g>
</g>
<!-- Node1&#45;&gt;Node13 -->
<g id="edge20" class="edge">
<title>Node1&#45;&gt;Node13</title>
<path fill="none" stroke="midnightblue" d="M570.27,-280.39C541.6,-265.29 494.06,-241.19 451.5,-224 419.14,-210.93 381.4,-198.83 353.58,-190.48"/>
<polygon fill="midnightblue" stroke="midnightblue" points="354.39,-187.07 343.81,-187.58 352.4,-193.78 354.39,-187.07"/>
</g>
<!-- Node16 -->
<g id="node16" class="node">
<title>Node16</title>
<g id="a_node16"><a xlink:title=" ">
<polygon fill="none" stroke="#bfbfbf" points="821,-224.5 821,-243.5 864,-243.5 864,-224.5 821,-224.5"/>
<text text-anchor="middle" x="842.5" y="-231.5" font-family="Helvetica,sans-Serif" font-size="10.00">nvs.h</text>
</a>
</g>
</g>
<!-- Node1&#45;&gt;Node16 -->
<g id="edge30" class="edge">
<title>Node1&#45;&gt;Node16</title>
<path fill="none" stroke="midnightblue" d="M661.5,-280.4C702.08,-271.35 755.6,-258.94 810.93,-244.31"/>
<polygon fill="midnightblue" stroke="midnightblue" points="812.15,-247.61 820.92,-241.65 810.35,-240.84 812.15,-247.61"/>
</g>
<!-- Node3 -->
<g id="node3" class="node">
<title>Node3</title>
<g id="a_node3"><a xlink:title=" ">
<polygon fill="none" stroke="#bfbfbf" points="135,-56.5 135,-75.5 200,-75.5 200,-56.5 135,-56.5"/>
<text text-anchor="middle" x="167.5" y="-63.5" font-family="Helvetica,sans-Serif" font-size="10.00">inttypes.h</text>
</a>
</g>
</g>
<!-- Node2&#45;&gt;Node3 -->
<g id="edge2" class="edge">
<title>Node2&#45;&gt;Node3</title>
<path fill="none" stroke="midnightblue" d="M35.79,-168.4C42.88,-154.9 58.2,-128.57 77.5,-112 93.83,-97.98 115.28,-87.04 133.15,-79.45"/>
<polygon fill="midnightblue" stroke="midnightblue" points="134.71,-82.6 142.65,-75.58 132.07,-76.11 134.71,-82.6"/>
</g>
<!-- Node7 -->
<g id="node7" class="node">
<title>Node7</title>
<g id="a_node7"><a xlink:href="ColorConstants_8h.html" target="_top" xlink:title=" ">
<polygon fill="none" stroke="black" points="330.5,-0.5 330.5,-19.5 464.5,-19.5 464.5,-0.5 330.5,-0.5"/>
<text text-anchor="middle" x="397.5" y="-7.5" font-family="Helvetica,sans-Serif" font-size="10.00">Colors/ColorConstants.h</text>
</a>
</g>
</g>
<!-- Node6&#45;&gt;Node7 -->
<g id="edge6" class="edge">
<title>Node6&#45;&gt;Node7</title>
<path fill="none" stroke="midnightblue" d="M467.16,-56.32C454.34,-47.98 434.72,-35.21 419.56,-25.35"/>
<polygon fill="midnightblue" stroke="midnightblue" points="421.09,-22.17 410.8,-19.65 417.28,-28.04 421.09,-22.17"/>
</g>
<!-- Node8&#45;&gt;Node3 -->
<g id="edge8" class="edge">
<title>Node8&#45;&gt;Node3</title>
<path fill="none" stroke="midnightblue" d="M537.76,-228.04C455.87,-220.63 311.89,-205.63 262.5,-188 217.77,-172.04 195.93,-172.72 171.5,-132 163.23,-118.21 162.91,-99.69 164.27,-85.94"/>
<polygon fill="midnightblue" stroke="midnightblue" points="167.78,-86.11 165.66,-75.73 160.84,-85.17 167.78,-86.11"/>
</g>
<!-- Node8&#45;&gt;Node5 -->
<g id="edge9" class="edge">
<title>Node8&#45;&gt;Node5</title>
<path fill="none" stroke="midnightblue" d="M607.75,-224.32C618.3,-216.18 634.3,-203.84 646.94,-194.09"/>
<polygon fill="midnightblue" stroke="midnightblue" points="649.27,-196.71 655.05,-187.83 644.99,-191.17 649.27,-196.71"/>
</g>
<!-- Node8&#45;&gt;Node6 -->
<g id="edge10" class="edge">
<title>Node8&#45;&gt;Node6</title>
<path fill="none" stroke="midnightblue" d="M599.31,-224.41C605.68,-203.15 618.9,-147.24 594.5,-112 581.69,-93.5 560.01,-82.61 538.97,-76.19"/>
<polygon fill="midnightblue" stroke="midnightblue" points="539.63,-72.74 529.06,-73.47 537.78,-79.49 539.63,-72.74"/>
</g>
<!-- Node9&#45;&gt;Node3 -->
<g id="edge12" class="edge">
<title>Node9&#45;&gt;Node3</title>
<path fill="none" stroke="midnightblue" d="M319.87,-226.76C245.46,-218.58 128.57,-203.47 115.5,-188 93.7,-162.2 101.46,-142.72 115.5,-112 121.28,-99.36 132.55,-88.91 143.13,-81.27"/>
<polygon fill="midnightblue" stroke="midnightblue" points="145.35,-84 151.72,-75.53 141.46,-78.18 145.35,-84"/>
</g>
<!-- Node9&#45;&gt;Node10 -->
<g id="edge13" class="edge">
<title>Node9&#45;&gt;Node10</title>
<path fill="none" stroke="midnightblue" d="M401.78,-224.44C422.85,-215.56 456.02,-201.56 479.99,-191.45"/>
<polygon fill="midnightblue" stroke="midnightblue" points="481.46,-194.63 489.31,-187.52 478.74,-188.18 481.46,-194.63"/>
</g>
<!-- Node10&#45;&gt;Node6 -->
<g id="edge15" class="edge">
<title>Node10&#45;&gt;Node6</title>
<path fill="none" stroke="midnightblue" d="M531.4,-168.49C556.95,-157.23 593.87,-135.97 578.5,-112 568.23,-95.98 550.65,-85.58 533.2,-78.87"/>
<polygon fill="midnightblue" stroke="midnightblue" points="534.16,-75.5 523.57,-75.51 531.86,-82.11 534.16,-75.5"/>
</g>
<!-- Node11 -->
<g id="node11" class="node">
<title>Node11</title>
<g id="a_node11"><a xlink:title=" ">
<polygon fill="none" stroke="#bfbfbf" points="350.5,-56.5 350.5,-75.5 406.5,-75.5 406.5,-56.5 350.5,-56.5"/>
<text text-anchor="middle" x="378.5" y="-63.5" font-family="Helvetica,sans-Serif" font-size="10.00">stdarg.h</text>
</a>
</g>
</g>
<!-- Node10&#45;&gt;Node11 -->
<g id="edge14" class="edge">
<title>Node10&#45;&gt;Node11</title>
<path fill="none" stroke="midnightblue" d="M520.14,-168.49C535,-155.56 558.67,-130.53 544.5,-112 536.64,-101.72 463.28,-84.72 416.75,-74.82"/>
<polygon fill="midnightblue" stroke="midnightblue" points="417.2,-71.34 406.69,-72.7 415.75,-78.19 417.2,-71.34"/>
</g>
<!-- Node12 -->
<g id="node12" class="node">
<title>Node12</title>
<g id="a_node12"><a xlink:href="ErrorBlinker_8h.html" target="_top" xlink:title=" ">
<polygon fill="none" stroke="black" points="425,-112.5 425,-131.5 536,-131.5 536,-112.5 425,-112.5"/>
<text text-anchor="middle" x="480.5" y="-119.5" font-family="Helvetica,sans-Serif" font-size="10.00">../Log/ErrorBlinker.h</text>
</a>
</g>
</g>
<!-- Node10&#45;&gt;Node12 -->
<g id="edge16" class="edge">
<title>Node10&#45;&gt;Node12</title>
<path fill="none" stroke="midnightblue" d="M504.71,-168.08C500.74,-160.69 494.97,-149.95 490.07,-140.81"/>
<polygon fill="midnightblue" stroke="midnightblue" points="493.01,-138.91 485.2,-131.75 486.85,-142.22 493.01,-138.91"/>
</g>
<!-- Node12&#45;&gt;Node3 -->
<g id="edge17" class="edge">
<title>Node12&#45;&gt;Node3</title>
<path fill="none" stroke="midnightblue" d="M430.9,-112.44C370.05,-101.94 267.89,-84.32 210.31,-74.39"/>
<polygon fill="midnightblue" stroke="midnightblue" points="210.55,-70.88 200.1,-72.62 209.36,-77.77 210.55,-70.88"/>
</g>
<!-- Node12&#45;&gt;Node6 -->
<g id="edge18" class="edge">
<title>Node12&#45;&gt;Node6</title>
<path fill="none" stroke="midnightblue" d="M480.5,-112.08C480.5,-105.01 480.5,-94.86 480.5,-85.99"/>
<polygon fill="midnightblue" stroke="midnightblue" points="484,-85.75 480.5,-75.75 477,-85.75 484,-85.75"/>
</g>
<!-- Node13&#45;&gt;Node3 -->
<g id="edge21" class="edge">
<title>Node13&#45;&gt;Node3</title>
<path fill="none" stroke="midnightblue" d="M271.86,-172.14C244.1,-166.78 208.76,-155.54 186.5,-132 174.77,-119.6 170.24,-100.35 168.51,-86.02"/>
<polygon fill="midnightblue" stroke="midnightblue" points="171.97,-85.47 167.64,-75.8 165,-86.06 171.97,-85.47"/>
</g>
<!-- Node14 -->
<g id="node14" class="node">
<title>Node14</title>
<g id="a_node14"><a xlink:href="ColorTypes_8h.html" target="_top" xlink:title=" ">
<polygon fill="none" stroke="black" points="195.5,-112.5 195.5,-131.5 317.5,-131.5 317.5,-112.5 195.5,-112.5"/>
<text text-anchor="middle" x="256.5" y="-119.5" font-family="Helvetica,sans-Serif" font-size="10.00">../Colors/ColorTypes.h</text>
</a>
</g>
</g>
<!-- Node13&#45;&gt;Node14 -->
<g id="edge22" class="edge">
<title>Node13&#45;&gt;Node14</title>
<path fill="none" stroke="midnightblue" d="M304.34,-168.32C296,-160.42 283.47,-148.55 273.32,-138.94"/>
<polygon fill="midnightblue" stroke="midnightblue" points="275.49,-136.17 265.82,-131.83 270.68,-141.25 275.49,-136.17"/>
</g>
<!-- Node15 -->
<g id="node15" class="node">
<title>Node15</title>
<g id="a_node15"><a xlink:href="LedTypes_8h.html" target="_top" xlink:title=" ">
<polygon fill="none" stroke="black" points="336,-112.5 336,-131.5 407,-131.5 407,-112.5 336,-112.5"/>
<text text-anchor="middle" x="371.5" y="-119.5" font-family="Helvetica,sans-Serif" font-size="10.00">LedTypes.h</text>
</a>
</g>
</g>
<!-- Node13&#45;&gt;Node15 -->
<g id="edge26" class="edge">
<title>Node13&#45;&gt;Node15</title>
<path fill="none" stroke="midnightblue" d="M322.82,-168.32C331.39,-160.34 344.31,-148.31 354.69,-138.65"/>
<polygon fill="midnightblue" stroke="midnightblue" points="357.08,-141.21 362.01,-131.83 352.31,-136.09 357.08,-141.21"/>
</g>
<!-- Node14&#45;&gt;Node3 -->
<g id="edge23" class="edge">
<title>Node14&#45;&gt;Node3</title>
<path fill="none" stroke="midnightblue" d="M242.2,-112.32C228.32,-103.9 207.01,-90.97 190.7,-81.07"/>
<polygon fill="midnightblue" stroke="midnightblue" points="192.13,-77.85 181.76,-75.65 188.5,-83.83 192.13,-77.85"/>
</g>
<!-- Node14&#45;&gt;Node6 -->
<g id="edge24" class="edge">
<title>Node14&#45;&gt;Node6</title>
<path fill="none" stroke="midnightblue" d="M291.99,-112.44C330.82,-103.08 393.16,-88.06 435.42,-77.87"/>
<polygon fill="midnightblue" stroke="midnightblue" points="436.27,-81.26 445.17,-75.52 434.63,-74.46 436.27,-81.26"/>
</g>
<!-- Node14&#45;&gt;Node7 -->
<g id="edge25" class="edge">
<title>Node14&#45;&gt;Node7</title>
<path fill="none" stroke="midnightblue" d="M267.56,-112.37C291.55,-93.65 348.6,-49.15 378.49,-25.83"/>
<polygon fill="midnightblue" stroke="midnightblue" points="380.76,-28.5 386.49,-19.59 376.45,-22.98 380.76,-28.5"/>
</g>
<!-- Node15&#45;&gt;Node3 -->
<g id="edge27" class="edge">
<title>Node15&#45;&gt;Node3</title>
<path fill="none" stroke="midnightblue" d="M339.18,-112.44C304.11,-103.16 248,-88.31 209.54,-78.13"/>
<polygon fill="midnightblue" stroke="midnightblue" points="210.24,-74.69 199.67,-75.52 208.44,-81.46 210.24,-74.69"/>
</g>
<!-- Node15&#45;&gt;Node6 -->
<g id="edge29" class="edge">
<title>Node15&#45;&gt;Node6</title>
<path fill="none" stroke="midnightblue" d="M389.01,-112.32C406.57,-103.62 433.83,-90.12 454.03,-80.11"/>
<polygon fill="midnightblue" stroke="midnightblue" points="455.62,-83.23 463.03,-75.65 452.52,-76.96 455.62,-83.23"/>
</g>
<!-- Node15&#45;&gt;Node11 -->
<g id="edge28" class="edge">
<title>Node15&#45;&gt;Node11</title>
<path fill="none" stroke="midnightblue" d="M372.66,-112.08C373.58,-104.93 374.92,-94.64 376.08,-85.69"/>
<polygon fill="midnightblue" stroke="midnightblue" points="379.55,-86.12 377.37,-75.75 372.61,-85.22 379.55,-86.12"/>
</g>
</g>
</svg>
