<?xml version="1.0" encoding="UTF-8" standalone="no"?>
<!DOCTYPE svg PUBLIC "-//W3C//DTD SVG 1.1//EN"
 "http://www.w3.org/Graphics/SVG/1.1/DTD/svg11.dtd">
<!-- Generated by graphviz version 2.43.0 (0)
 -->
<!-- Title: MenuEntry Pages: 1 -->
<svg width="241pt" height="374pt"
 viewBox="0.00 0.00 240.50 374.00" xmlns="http://www.w3.org/2000/svg" xmlns:xlink="http://www.w3.org/1999/xlink">
<g id="graph0" class="graph" transform="scale(1 1) rotate(0) translate(4 370)">
<title>MenuEntry</title>
<!-- Node1 -->
<g id="node1" class="node">
<title>Node1</title>
<g id="a_node1"><a xlink:title=" ">
<polygon fill="#bfbfbf" stroke="black" points="0,-0.5 0,-19.5 69,-19.5 69,-0.5 0,-0.5"/>
<text text-anchor="middle" x="34.5" y="-7.5" font-family="Helvetica,sans-Serif" font-size="10.00">MenuEntry</text>
</a>
</g>
</g>
<!-- Node2 -->
<g id="node2" class="node">
<title>Node2</title>
<g id="a_node2"><a xlink:href="classRGBColor.html" target="_top" xlink:title=" ">
<polygon fill="none" stroke="black" points="33,-346.5 33,-365.5 96,-365.5 96,-346.5 33,-346.5"/>
<text text-anchor="middle" x="64.5" y="-353.5" font-family="Helvetica,sans-Serif" font-size="10.00">RGBColor</text>
</a>
</g>
</g>
<!-- Node2&#45;&gt;Node1 -->
<g id="edge1" class="edge">
<title>Node2&#45;&gt;Node1</title>
<path fill="none" stroke="#9a32cd" stroke-dasharray="5,2" d="M45.37,-339.6C32.74,-327.59 18.5,-309.69 18.5,-290 18.5,-290 18.5,-290 18.5,-76 18.5,-55.31 26.24,-31.97 30.95,-19.66"/>
<polygon fill="#9a32cd" stroke="#9a32cd" points="43.09,-342.25 52.89,-346.28 47.74,-337.02 43.09,-342.25"/>
<text text-anchor="middle" x="32.5" y="-180.5" font-family="Helvetica,sans-Serif" font-size="10.00"> color</text>
</g>
<!-- Node3 -->
<g id="node3" class="node">
<title>Node3</title>
<g id="a_node3"><a xlink:href="classMenu.html" target="_top" xlink:title=" ">
<polygon fill="none" stroke="black" points="46.5,-67.5 46.5,-86.5 90.5,-86.5 90.5,-67.5 46.5,-67.5"/>
<text text-anchor="middle" x="68.5" y="-74.5" font-family="Helvetica,sans-Serif" font-size="10.00">Menu</text>
</a>
</g>
</g>
<!-- Node2&#45;&gt;Node3 -->
<g id="edge7" class="edge">
<title>Node2&#45;&gt;Node3</title>
<path fill="none" stroke="#9a32cd" stroke-dasharray="5,2" d="M64.5,-336.13C64.5,-323.16 64.5,-305.54 64.5,-290 64.5,-290 64.5,-290 64.5,-143 64.5,-122.88 66.43,-99.31 67.61,-86.82"/>
<polygon fill="#9a32cd" stroke="#9a32cd" points="61,-336.17 64.5,-346.17 68,-336.17 61,-336.17"/>
<text text-anchor="middle" x="100.5" y="-219.5" font-family="Helvetica,sans-Serif" font-size="10.00"> m_menuColor</text>
</g>
<!-- Node6 -->
<g id="node6" class="node">
<title>Node6</title>
<g id="a_node6"><a xlink:href="classColorset.html" target="_top" xlink:title=" ">
<polygon fill="none" stroke="black" points="122,-279.5 122,-298.5 179,-298.5 179,-279.5 122,-279.5"/>
<text text-anchor="middle" x="150.5" y="-286.5" font-family="Helvetica,sans-Serif" font-size="10.00">Colorset</text>
</a>
</g>
</g>
<!-- Node2&#45;&gt;Node6 -->
<g id="edge6" class="edge">
<title>Node2&#45;&gt;Node6</title>
<path fill="none" stroke="#9a32cd" stroke-dasharray="5,2" d="M84.26,-340.07C101.23,-327.24 125.12,-309.19 139.09,-298.63"/>
<polygon fill="#9a32cd" stroke="#9a32cd" points="81.97,-337.41 76.1,-346.23 86.19,-343 81.97,-337.41"/>
<text text-anchor="middle" x="139" y="-320" font-family="Helvetica,sans-Serif" font-size="10.00"> m_palette</text>
</g>
<!-- Node3&#45;&gt;Node1 -->
<g id="edge2" class="edge">
<title>Node3&#45;&gt;Node1</title>
<path fill="none" stroke="#9a32cd" stroke-dasharray="5,2" d="M59.17,-58.16C52.61,-45.63 44.13,-29.41 39.01,-19.63"/>
<polygon fill="#9a32cd" stroke="#9a32cd" points="56.18,-60 63.91,-67.23 62.38,-56.75 56.18,-60"/>
<text text-anchor="middle" x="77.5" y="-41" font-family="Helvetica,sans-Serif" font-size="10.00"> initMenu</text>
</g>
<!-- Node4 -->
<g id="node4" class="node">
<title>Node4</title>
<g id="a_node4"><a xlink:href="classMode.html" target="_top" xlink:title=" ">
<polygon fill="none" stroke="black" points="125.5,-134.5 125.5,-153.5 169.5,-153.5 169.5,-134.5 125.5,-134.5"/>
<text text-anchor="middle" x="147.5" y="-141.5" font-family="Helvetica,sans-Serif" font-size="10.00">Mode</text>
</a>
</g>
</g>
<!-- Node4&#45;&gt;Node3 -->
<g id="edge3" class="edge">
<title>Node4&#45;&gt;Node3</title>
<path fill="none" stroke="#9a32cd" stroke-dasharray="5,2" d="M128.92,-127.71C113.36,-114.91 91.7,-97.09 78.99,-86.63"/>
<polygon fill="#9a32cd" stroke="#9a32cd" points="126.9,-130.58 136.85,-134.23 131.35,-125.18 126.9,-130.58"/>
<text text-anchor="middle" x="155" y="-108" font-family="Helvetica,sans-Serif" font-size="10.00"> m_previewMode</text>
</g>
<!-- Node5 -->
<g id="node5" class="node">
<title>Node5</title>
<g id="a_node5"><a xlink:href="classPattern.html" target="_top" xlink:title=" ">
<polygon fill="none" stroke="black" points="155,-212.5 155,-231.5 206,-231.5 206,-212.5 155,-212.5"/>
<text text-anchor="middle" x="180.5" y="-219.5" font-family="Helvetica,sans-Serif" font-size="10.00">Pattern</text>
</a>
</g>
</g>
<!-- Node5&#45;&gt;Node4 -->
<g id="edge4" class="edge">
<title>Node5&#45;&gt;Node4</title>
<path fill="none" stroke="#9a32cd" stroke-dasharray="5,2" d="M172.54,-202.67C165.79,-187.11 156.39,-165.47 151.24,-153.62"/>
<polygon fill="#9a32cd" stroke="#9a32cd" points="169.52,-204.5 176.71,-212.28 175.94,-201.72 169.52,-204.5"/>
<text text-anchor="middle" x="200" y="-186" font-family="Helvetica,sans-Serif" font-size="10.00"> m_multiPat</text>
<text text-anchor="middle" x="200" y="-175" font-family="Helvetica,sans-Serif" font-size="10.00">m_singlePats</text>
</g>
<!-- Node6&#45;&gt;Node5 -->
<g id="edge5" class="edge">
<title>Node6&#45;&gt;Node5</title>
<path fill="none" stroke="#9a32cd" stroke-dasharray="5,2" d="M158.9,-269.79C164.67,-257.31 172.05,-241.31 176.52,-231.63"/>
<polygon fill="#9a32cd" stroke="#9a32cd" points="155.56,-268.69 154.55,-279.23 161.91,-271.62 155.56,-268.69"/>
<text text-anchor="middle" x="195.5" y="-253" font-family="Helvetica,sans-Serif" font-size="10.00"> m_colorset</text>
</g>
</g>
</svg>
