<?xml version="1.0" encoding="UTF-8" standalone="no"?>
<!DOCTYPE svg PUBLIC "-//W3C//DTD SVG 1.1//EN"
 "http://www.w3.org/Graphics/SVG/1.1/DTD/svg11.dtd">
<!-- Generated by graphviz version 2.43.0 (0)
 -->
<!-- Title: VortexEngine/src/Wireless/VLConfig.h Pages: 1 -->
<svg width="1023pt" height="173pt"
 viewBox="0.00 0.00 1023.00 173.00" xmlns="http://www.w3.org/2000/svg" xmlns:xlink="http://www.w3.org/1999/xlink">
<g id="graph0" class="graph" transform="scale(1 1) rotate(0) translate(4 169)">
<title>VortexEngine/src/Wireless/VLConfig.h</title>
<!-- Node1 -->
<g id="node1" class="node">
<title>Node1</title>
<g id="a_node1"><a xlink:title=" ">
<polygon fill="#bfbfbf" stroke="black" points="496.5,-134.5 496.5,-164.5 639.5,-164.5 639.5,-134.5 496.5,-134.5"/>
<text text-anchor="start" x="504.5" y="-152.5" font-family="Helvetica,sans-Serif" font-size="10.00">VortexEngine/src/Wireless</text>
<text text-anchor="middle" x="568" y="-141.5" font-family="Helvetica,sans-Serif" font-size="10.00">/VLConfig.h</text>
</a>
</g>
</g>
<!-- Node2 -->
<g id="node2" class="node">
<title>Node2</title>
<g id="a_node2"><a xlink:href="VortexEngine_8cpp.html" target="_top" xlink:title=" ">
<polygon fill="none" stroke="black" points="519,-6 519,-25 705,-25 705,-6 519,-6"/>
<text text-anchor="middle" x="612" y="-13" font-family="Helvetica,sans-Serif" font-size="10.00">VortexEngine/src/VortexEngine.cpp</text>
</a>
</g>
</g>
<!-- Node1&#45;&gt;Node2 -->
<g id="edge1" class="edge">
<title>Node1&#45;&gt;Node2</title>
<path fill="none" stroke="midnightblue" d="M572.54,-124.52C575.98,-108.08 581.26,-85.91 588,-67 593.41,-51.82 601.89,-35.09 607.19,-25.21"/>
<polygon fill="midnightblue" stroke="midnightblue" points="569.1,-123.91 570.55,-134.4 575.96,-125.29 569.1,-123.91"/>
</g>
<!-- Node3 -->
<g id="node3" class="node">
<title>Node3</title>
<g id="a_node3"><a xlink:href="VLReceiver_8h.html" target="_top" xlink:title=" ">
<polygon fill="none" stroke="black" points="596.5,-67.5 596.5,-97.5 739.5,-97.5 739.5,-67.5 596.5,-67.5"/>
<text text-anchor="start" x="604.5" y="-85.5" font-family="Helvetica,sans-Serif" font-size="10.00">VortexEngine/src/Wireless</text>
<text text-anchor="middle" x="668" y="-74.5" font-family="Helvetica,sans-Serif" font-size="10.00">/VLReceiver.h</text>
</a>
</g>
</g>
<!-- Node1&#45;&gt;Node3 -->
<g id="edge2" class="edge">
<title>Node1&#45;&gt;Node3</title>
<path fill="none" stroke="midnightblue" d="M598.41,-128.73C613.88,-118.68 632.33,-106.68 646.34,-97.58"/>
<polygon fill="midnightblue" stroke="midnightblue" points="596.18,-126.01 589.7,-134.4 599.99,-131.88 596.18,-126.01"/>
</g>
<!-- Node7 -->
<g id="node7" class="node">
<title>Node7</title>
<g id="a_node7"><a xlink:href="VLSender_8h.html" target="_top" xlink:title=" ">
<polygon fill="none" stroke="black" points="353.5,-67.5 353.5,-97.5 496.5,-97.5 496.5,-67.5 353.5,-67.5"/>
<text text-anchor="start" x="361.5" y="-85.5" font-family="Helvetica,sans-Serif" font-size="10.00">VortexEngine/src/Wireless</text>
<text text-anchor="middle" x="425" y="-74.5" font-family="Helvetica,sans-Serif" font-size="10.00">/VLSender.h</text>
</a>
</g>
</g>
<!-- Node1&#45;&gt;Node7 -->
<g id="edge7" class="edge">
<title>Node1&#45;&gt;Node7</title>
<path fill="none" stroke="midnightblue" d="M527.59,-130.13C504.87,-119.8 476.94,-107.11 455.97,-97.58"/>
<polygon fill="midnightblue" stroke="midnightblue" points="526.42,-133.44 536.97,-134.4 529.32,-127.07 526.42,-133.44"/>
</g>
<!-- Node3&#45;&gt;Node2 -->
<g id="edge4" class="edge">
<title>Node3&#45;&gt;Node2</title>
<path fill="none" stroke="midnightblue" d="M649.18,-59.66C639.02,-47.86 627.05,-33.97 619.49,-25.19"/>
<polygon fill="midnightblue" stroke="midnightblue" points="646.67,-62.1 655.85,-67.4 651.97,-57.54 646.67,-62.1"/>
</g>
<!-- Node4 -->
<g id="node4" class="node">
<title>Node4</title>
<g id="a_node4"><a xlink:href="ModeSharing_8cpp.html" target="_top" xlink:title=" ">
<polygon fill="none" stroke="black" points="349.5,-0.5 349.5,-30.5 500.5,-30.5 500.5,-0.5 349.5,-0.5"/>
<text text-anchor="start" x="357.5" y="-18.5" font-family="Helvetica,sans-Serif" font-size="10.00">VortexEngine/src/Menus</text>
<text text-anchor="middle" x="425" y="-7.5" font-family="Helvetica,sans-Serif" font-size="10.00">/MenuList/ModeSharing.cpp</text>
</a>
</g>
</g>
<!-- Node3&#45;&gt;Node4 -->
<g id="edge3" class="edge">
<title>Node3&#45;&gt;Node4</title>
<path fill="none" stroke="midnightblue" d="M605.75,-64.85C566.14,-54.25 515.39,-40.68 477.75,-30.61"/>
<polygon fill="midnightblue" stroke="midnightblue" points="605.01,-68.27 615.57,-67.48 606.82,-61.51 605.01,-68.27"/>
</g>
<!-- Node5 -->
<g id="node5" class="node">
<title>Node5</title>
<g id="a_node5"><a xlink:href="VLReceiver_8cpp.html" target="_top" xlink:title=" ">
<polygon fill="none" stroke="black" points="723.5,-0.5 723.5,-30.5 866.5,-30.5 866.5,-0.5 723.5,-0.5"/>
<text text-anchor="start" x="731.5" y="-18.5" font-family="Helvetica,sans-Serif" font-size="10.00">VortexEngine/src/Wireless</text>
<text text-anchor="middle" x="795" y="-7.5" font-family="Helvetica,sans-Serif" font-size="10.00">/VLReceiver.cpp</text>
</a>
</g>
</g>
<!-- Node3&#45;&gt;Node5 -->
<g id="edge5" class="edge">
<title>Node3&#45;&gt;Node5</title>
<path fill="none" stroke="midnightblue" d="M704.7,-62.71C724.73,-52.46 749.12,-39.98 767.5,-30.58"/>
<polygon fill="midnightblue" stroke="midnightblue" points="702.86,-59.72 695.56,-67.4 706.05,-65.96 702.86,-59.72"/>
</g>
<!-- Node6 -->
<g id="node6" class="node">
<title>Node6</title>
<g id="a_node6"><a xlink:href="VortexLib_8cpp.html" target="_top" xlink:title=" ">
<polygon fill="none" stroke="black" points="885,-0.5 885,-30.5 1015,-30.5 1015,-0.5 885,-0.5"/>
<text text-anchor="start" x="893" y="-18.5" font-family="Helvetica,sans-Serif" font-size="10.00">VortexEngine/VortexLib</text>
<text text-anchor="middle" x="950" y="-7.5" font-family="Helvetica,sans-Serif" font-size="10.00">/VortexLib.cpp</text>
</a>
</g>
</g>
<!-- Node3&#45;&gt;Node6 -->
<g id="edge6" class="edge">
<title>Node3&#45;&gt;Node6</title>
<path fill="none" stroke="midnightblue" d="M738.78,-65.19C784.96,-54.54 844.64,-40.78 888.78,-30.61"/>
<polygon fill="midnightblue" stroke="midnightblue" points="737.8,-61.82 728.84,-67.48 739.37,-68.64 737.8,-61.82"/>
</g>
<!-- Node7&#45;&gt;Node2 -->
<g id="edge10" class="edge">
<title>Node7&#45;&gt;Node2</title>
<path fill="none" stroke="midnightblue" d="M475.04,-64.11C511.42,-51.46 559.09,-34.89 587.53,-25.01"/>
<polygon fill="midnightblue" stroke="midnightblue" points="473.87,-60.81 465.58,-67.4 476.17,-67.42 473.87,-60.81"/>
</g>
<!-- Node7&#45;&gt;Node4 -->
<g id="edge9" class="edge">
<title>Node7&#45;&gt;Node4</title>
<path fill="none" stroke="midnightblue" d="M425,-57.11C425,-48.15 425,-38.32 425,-30.58"/>
<polygon fill="midnightblue" stroke="midnightblue" points="421.5,-57.4 425,-67.4 428.5,-57.4 421.5,-57.4"/>
</g>
<!-- Node8 -->
<g id="node8" class="node">
<title>Node8</title>
<g id="a_node8"><a xlink:href="EditorConnection_8cpp.html" target="_top" xlink:title=" ">
<polygon fill="none" stroke="black" points="0,-0.5 0,-30.5 170,-30.5 170,-0.5 0,-0.5"/>
<text text-anchor="start" x="8" y="-18.5" font-family="Helvetica,sans-Serif" font-size="10.00">VortexEngine/src/Menus</text>
<text text-anchor="middle" x="85" y="-7.5" font-family="Helvetica,sans-Serif" font-size="10.00">/MenuList/EditorConnection.cpp</text>
</a>
</g>
</g>
<!-- Node7&#45;&gt;Node8 -->
<g id="edge8" class="edge">
<title>Node7&#45;&gt;Node8</title>
<path fill="none" stroke="midnightblue" d="M343.37,-65.89C287.04,-55.13 212.8,-40.93 158.35,-30.52"/>
<polygon fill="midnightblue" stroke="midnightblue" points="342.83,-69.35 353.31,-67.79 344.15,-62.48 342.83,-69.35"/>
</g>
<!-- Node9 -->
<g id="node9" class="node">
<title>Node9</title>
<g id="a_node9"><a xlink:href="VLSender_8cpp.html" target="_top" xlink:title=" ">
<polygon fill="none" stroke="black" points="188.5,-0.5 188.5,-30.5 331.5,-30.5 331.5,-0.5 188.5,-0.5"/>
<text text-anchor="start" x="196.5" y="-18.5" font-family="Helvetica,sans-Serif" font-size="10.00">VortexEngine/src/Wireless</text>
<text text-anchor="middle" x="260" y="-7.5" font-family="Helvetica,sans-Serif" font-size="10.00">/VLSender.cpp</text>
</a>
</g>
</g>
<!-- Node7&#45;&gt;Node9 -->
<g id="edge11" class="edge">
<title>Node7&#45;&gt;Node9</title>
<path fill="none" stroke="midnightblue" d="M379.77,-63.68C353.31,-53.26 320.37,-40.28 295.73,-30.58"/>
<polygon fill="midnightblue" stroke="midnightblue" points="378.61,-66.99 389.2,-67.4 381.18,-60.47 378.61,-66.99"/>
</g>
</g>
</svg>
