<?xml version="1.0" encoding="UTF-8" standalone="no"?>
<!DOCTYPE svg PUBLIC "-//W3C//DTD SVG 1.1//EN"
 "http://www.w3.org/Graphics/SVG/1.1/DTD/svg11.dtd">
<!-- Generated by graphviz version 2.43.0 (0)
 -->
<!-- Title: VortexEngine/src/Wireless/VLReceiver.cpp Pages: 1 -->
<!--zoomable 319 -->
<svg id="main" version="1.1" xmlns="http://www.w3.org/2000/svg" xmlns:xlink="http://www.w3.org/1999/xlink" xml:space="preserve" onload="init(evt)">
<style type="text/css"><![CDATA[
.edge:hover path { stroke: red; }
.edge:hover polygon { stroke: red; fill: red; }
]]></style>
<script type="text/javascript"><![CDATA[
var edges = document.getElementsByTagName('g');
if (edges && edges.length) {
  for (var i=0;i<edges.length;i++) {
    if (edges[i].id.substr(0,4)=='edge') {
      edges[i].setAttribute('class','edge');
    }
  }
}
]]></script>
        <defs>
                <circle id="rim" cx="0" cy="0" r="7"/>
                <circle id="rim2" cx="0" cy="0" r="3.5"/>
                <g id="zoomPlus">
                        <use xlink:href="#rim" fill="#404040">
                                <set attributeName="fill" to="#808080" begin="zoomplus.mouseover" end="zoomplus.mouseout"/>
                        </use>
                        <path d="M-4,0h8M0,-4v8" fill="none" stroke="white" stroke-width="1.5" pointer-events="none"/>
                </g>
                <g id="zoomMin">
                        <use xlink:href="#rim" fill="#404040">
                                <set attributeName="fill" to="#808080" begin="zoomminus.mouseover" end="zoomminus.mouseout"/>
                        </use>
                        <path d="M-4,0h8" fill="none" stroke="white" stroke-width="1.5" pointer-events="none"/>
                </g>
                <g id="dirArrow">
                        <path fill="none" stroke="white" stroke-width="1.5" d="M0,-3.0v7 M-2.5,-0.5L0,-3.0L2.5,-0.5"/>
                </g>
               <g id="resetDef">
                       <use xlink:href="#rim2" fill="#404040">
                               <set attributeName="fill" to="#808080" begin="reset.mouseover" end="reset.mouseout"/>
                       </use>
               </g>
        </defs>

<script type="text/javascript">
var viewWidth = 1070;
var viewHeight = 319;
var sectionId = 'dynsection-0';
</script>
<script xlink:href="svgpan.js"/>
<svg id="graph" class="graph">
<g id="viewport">
<title>VortexEngine/src/Wireless/VLReceiver.cpp</title>
<!-- Node1 -->
<g id="node1" class="node">
<title>Node1</title>
<g id="a_node1"><a xlink:title=" ">
<polygon fill="#bfbfbf" stroke="black" points="604.5,-280.5 604.5,-310.5 747.5,-310.5 747.5,-280.5 604.5,-280.5"/>
<text text-anchor="start" x="612.5" y="-298.5" font-family="Helvetica,sans-Serif" font-size="10.00">VortexEngine/src/Wireless</text>
<text text-anchor="middle" x="676" y="-287.5" font-family="Helvetica,sans-Serif" font-size="10.00">/VLReceiver.cpp</text>
</a>
</g>
</g>
<!-- Node2 -->
<g id="node2" class="node">
<title>Node2</title>
<g id="a_node2"><a xlink:href="VLReceiver_8h.html" target="_top" xlink:title=" ">
<polygon fill="none" stroke="black" points="85,-168.5 85,-187.5 165,-187.5 165,-168.5 85,-168.5"/>
<text text-anchor="middle" x="125" y="-175.5" font-family="Helvetica,sans-Serif" font-size="10.00">VLReceiver.h</text>
</a>
</g>
</g>
<!-- Node1&#45;&gt;Node2 -->
<g id="edge1" class="edge">
<title>Node1&#45;&gt;Node2</title>
<path fill="none" stroke="midnightblue" d="M608.99,-280.45C496.97,-256.97 274.2,-210.27 174.84,-189.45"/>
<polygon fill="midnightblue" stroke="midnightblue" points="175.56,-186.02 165.05,-187.4 174.12,-192.87 175.56,-186.02"/>
</g>
<!-- Node4 -->
<g id="node4" class="node">
<title>Node4</title>
<g id="a_node4"><a xlink:href="BitStream_8h.html" target="_top" xlink:title=" ">
<polygon fill="none" stroke="black" points="0,-112.5 0,-131.5 114,-131.5 114,-112.5 0,-112.5"/>
<text text-anchor="middle" x="57" y="-119.5" font-family="Helvetica,sans-Serif" font-size="10.00">../Serial/BitStream.h</text>
</a>
</g>
</g>
<!-- Node1&#45;&gt;Node4 -->
<g id="edge17" class="edge">
<title>Node1&#45;&gt;Node4</title>
<path fill="none" stroke="midnightblue" d="M604.32,-291.23C462.25,-283.27 152.09,-258.14 76,-188 63.19,-176.19 58.84,-156.27 57.45,-141.58"/>
<polygon fill="midnightblue" stroke="midnightblue" points="60.95,-141.38 56.88,-131.6 53.96,-141.78 60.95,-141.38"/>
</g>
<!-- Node8 -->
<g id="node8" class="node">
<title>Node8</title>
<g id="a_node8"><a xlink:href="IRConfig_8h.html" target="_top" xlink:title=" ">
<polygon fill="none" stroke="black" points="820,-224.5 820,-243.5 886,-243.5 886,-224.5 820,-224.5"/>
<text text-anchor="middle" x="853" y="-231.5" font-family="Helvetica,sans-Serif" font-size="10.00">IRConfig.h</text>
</a>
</g>
</g>
<!-- Node1&#45;&gt;Node8 -->
<g id="edge8" class="edge">
<title>Node1&#45;&gt;Node8</title>
<path fill="none" stroke="midnightblue" d="M717.95,-280.4C748.4,-270.16 789.13,-256.47 817.87,-246.81"/>
<polygon fill="midnightblue" stroke="midnightblue" points="819.14,-250.07 827.5,-243.57 816.91,-243.44 819.14,-250.07"/>
</g>
<!-- Node9 -->
<g id="node9" class="node">
<title>Node9</title>
<g id="a_node9"><a xlink:href="ByteStream_8h.html" target="_top" xlink:title=" ">
<polygon fill="none" stroke="black" points="448.5,-224.5 448.5,-243.5 571.5,-243.5 571.5,-224.5 448.5,-224.5"/>
<text text-anchor="middle" x="510" y="-231.5" font-family="Helvetica,sans-Serif" font-size="10.00">../Serial/ByteStream.h</text>
</a>
</g>
</g>
<!-- Node1&#45;&gt;Node9 -->
<g id="edge9" class="edge">
<title>Node1&#45;&gt;Node9</title>
<path fill="none" stroke="midnightblue" d="M636.66,-280.4C608.44,-270.28 570.79,-256.79 543.9,-247.15"/>
<polygon fill="midnightblue" stroke="midnightblue" points="544.75,-243.74 534.15,-243.66 542.39,-250.33 544.75,-243.74"/>
</g>
<!-- Node10 -->
<g id="node10" class="node">
<title>Node10</title>
<g id="a_node10"><a xlink:href="Log_8h.html" target="_top" xlink:title=" ">
<polygon fill="none" stroke="black" points="867,-168.5 867,-187.5 939,-187.5 939,-168.5 867,-168.5"/>
<text text-anchor="middle" x="903" y="-175.5" font-family="Helvetica,sans-Serif" font-size="10.00">../Log/Log.h</text>
</a>
</g>
</g>
<!-- Node1&#45;&gt;Node10 -->
<g id="edge41" class="edge">
<title>Node1&#45;&gt;Node10</title>
<path fill="none" stroke="midnightblue" d="M703.19,-280.38C722.65,-270.27 749.45,-256.33 773,-244 789.91,-235.15 793.98,-232.64 811,-224 832.64,-213.02 857.35,-200.96 875.71,-192.09"/>
<polygon fill="midnightblue" stroke="midnightblue" points="877.45,-195.13 884.94,-187.64 874.41,-188.83 877.45,-195.13"/>
</g>
<!-- Node13 -->
<g id="node13" class="node">
<title>Node13</title>
<g id="a_node13"><a xlink:href="TimeControl_8h.html" target="_top" xlink:title=" ">
<polygon fill="none" stroke="black" points="577,-168.5 577,-187.5 699,-187.5 699,-168.5 577,-168.5"/>
<text text-anchor="middle" x="638" y="-175.5" font-family="Helvetica,sans-Serif" font-size="10.00">../Time/TimeControl.h</text>
</a>
</g>
</g>
<!-- Node1&#45;&gt;Node13 -->
<g id="edge18" class="edge">
<title>Node1&#45;&gt;Node13</title>
<path fill="none" stroke="midnightblue" d="M670.79,-280.41C667.1,-270.31 662.1,-256.37 658,-244 652.83,-228.42 647.37,-210.58 643.47,-197.54"/>
<polygon fill="midnightblue" stroke="midnightblue" points="646.8,-196.46 640.59,-187.87 640.09,-198.45 646.8,-196.46"/>
</g>
<!-- Node15 -->
<g id="node15" class="node">
<title>Node15</title>
<g id="a_node15"><a xlink:href="Mode_8h.html" target="_top" xlink:title=" ">
<polygon fill="none" stroke="black" points="666.5,-224.5 666.5,-243.5 763.5,-243.5 763.5,-224.5 666.5,-224.5"/>
<text text-anchor="middle" x="715" y="-231.5" font-family="Helvetica,sans-Serif" font-size="10.00">../Modes/Mode.h</text>
</a>
</g>
</g>
<!-- Node1&#45;&gt;Node15 -->
<g id="edge25" class="edge">
<title>Node1&#45;&gt;Node15</title>
<path fill="none" stroke="midnightblue" d="M685.24,-280.4C690.79,-271.93 697.89,-261.1 703.77,-252.14"/>
<polygon fill="midnightblue" stroke="midnightblue" points="706.77,-253.94 709.33,-243.66 700.92,-250.1 706.77,-253.94"/>
</g>
<!-- Node18 -->
<g id="node18" class="node">
<title>Node18</title>
<g id="a_node18"><a xlink:href="Leds_8h.html" target="_top" xlink:title=" ">
<polygon fill="none" stroke="black" points="437.5,-168.5 437.5,-187.5 520.5,-187.5 520.5,-168.5 437.5,-168.5"/>
<text text-anchor="middle" x="479" y="-175.5" font-family="Helvetica,sans-Serif" font-size="10.00">../Leds/Leds.h</text>
</a>
</g>
</g>
<!-- Node1&#45;&gt;Node18 -->
<g id="edge34" class="edge">
<title>Node1&#45;&gt;Node18</title>
<path fill="none" stroke="midnightblue" d="M659.29,-280.29C640.91,-265.11 610.11,-240.94 581,-224 558.86,-211.12 532.35,-199.53 511.91,-191.34"/>
<polygon fill="midnightblue" stroke="midnightblue" points="512.99,-188 502.4,-187.6 510.43,-194.52 512.99,-188"/>
</g>
<!-- Node20 -->
<g id="node20" class="node">
<title>Node20</title>
<g id="a_node20"><a xlink:title=" ">
<polygon fill="none" stroke="#bfbfbf" points="904,-224.5 904,-243.5 990,-243.5 990,-224.5 904,-224.5"/>
<text text-anchor="middle" x="947" y="-231.5" font-family="Helvetica,sans-Serif" font-size="10.00">avr/interrupt.h</text>
</a>
</g>
</g>
<!-- Node1&#45;&gt;Node20 -->
<g id="edge42" class="edge">
<title>Node1&#45;&gt;Node20</title>
<path fill="none" stroke="midnightblue" d="M739.88,-280.47C788.37,-269.83 854.03,-255.41 898.31,-245.69"/>
<polygon fill="midnightblue" stroke="midnightblue" points="899.24,-249.07 908.26,-243.51 897.74,-242.23 899.24,-249.07"/>
</g>
<!-- Node21 -->
<g id="node21" class="node">
<title>Node21</title>
<g id="a_node21"><a xlink:title=" ">
<polygon fill="none" stroke="#bfbfbf" points="1008.5,-224.5 1008.5,-243.5 1061.5,-243.5 1061.5,-224.5 1008.5,-224.5"/>
<text text-anchor="middle" x="1035" y="-231.5" font-family="Helvetica,sans-Serif" font-size="10.00">avr/io.h</text>
</a>
</g>
</g>
<!-- Node1&#45;&gt;Node21 -->
<g id="edge43" class="edge">
<title>Node1&#45;&gt;Node21</title>
<path fill="none" stroke="midnightblue" d="M747.53,-285.2C810.9,-276.53 906.08,-262.46 998.26,-243.99"/>
<polygon fill="midnightblue" stroke="midnightblue" points="999.22,-247.37 1008.32,-241.95 997.83,-240.51 999.22,-247.37"/>
</g>
<!-- Node3 -->
<g id="node3" class="node">
<title>Node3</title>
<g id="a_node3"><a xlink:title=" ">
<polygon fill="none" stroke="#bfbfbf" points="223.5,-56.5 223.5,-75.5 288.5,-75.5 288.5,-56.5 223.5,-56.5"/>
<text text-anchor="middle" x="256" y="-63.5" font-family="Helvetica,sans-Serif" font-size="10.00">inttypes.h</text>
</a>
</g>
</g>
<!-- Node2&#45;&gt;Node3 -->
<g id="edge2" class="edge">
<title>Node2&#45;&gt;Node3</title>
<path fill="none" stroke="midnightblue" d="M128.59,-168.38C134.58,-154.85 147.8,-128.48 166,-112 181.73,-97.75 202.81,-86.89 220.6,-79.41"/>
<polygon fill="midnightblue" stroke="midnightblue" points="222.12,-82.58 230.1,-75.61 219.52,-76.08 222.12,-82.58"/>
</g>
<!-- Node2&#45;&gt;Node4 -->
<g id="edge3" class="edge">
<title>Node2&#45;&gt;Node4</title>
<path fill="none" stroke="midnightblue" d="M114.07,-168.32C103.83,-160.18 88.28,-147.84 76,-138.09"/>
<polygon fill="midnightblue" stroke="midnightblue" points="78.13,-135.31 68.12,-131.83 73.78,-140.79 78.13,-135.31"/>
</g>
<!-- Node5 -->
<g id="node5" class="node">
<title>Node5</title>
<g id="a_node5"><a xlink:href="VLConfig_8h.html" target="_top" xlink:title=" ">
<polygon fill="none" stroke="black" points="560,-112.5 560,-131.5 628,-131.5 628,-112.5 560,-112.5"/>
<text text-anchor="middle" x="594" y="-119.5" font-family="Helvetica,sans-Serif" font-size="10.00">VLConfig.h</text>
</a>
</g>
</g>
<!-- Node2&#45;&gt;Node5 -->
<g id="edge5" class="edge">
<title>Node2&#45;&gt;Node5</title>
<path fill="none" stroke="midnightblue" d="M165.11,-174.12C239.14,-168.52 402.39,-154.79 549.66,-132.07"/>
<polygon fill="midnightblue" stroke="midnightblue" points="550.45,-135.49 559.79,-130.49 549.37,-128.57 550.45,-135.49"/>
</g>
<!-- Node4&#45;&gt;Node3 -->
<g id="edge4" class="edge">
<title>Node4&#45;&gt;Node3</title>
<path fill="none" stroke="midnightblue" d="M88.53,-112.44C122.59,-103.2 177.01,-88.44 214.52,-78.26"/>
<polygon fill="midnightblue" stroke="midnightblue" points="215.88,-81.51 224.62,-75.52 214.05,-74.76 215.88,-81.51"/>
</g>
<!-- Node6 -->
<g id="node6" class="node">
<title>Node6</title>
<g id="a_node6"><a xlink:href="VortexConfig_8h.html" target="_top" xlink:title=" ">
<polygon fill="none" stroke="black" points="688.5,-56.5 688.5,-75.5 785.5,-75.5 785.5,-56.5 688.5,-56.5"/>
<text text-anchor="middle" x="737" y="-63.5" font-family="Helvetica,sans-Serif" font-size="10.00">../VortexConfig.h</text>
</a>
</g>
</g>
<!-- Node5&#45;&gt;Node6 -->
<g id="edge6" class="edge">
<title>Node5&#45;&gt;Node6</title>
<path fill="none" stroke="midnightblue" d="M616.66,-112.44C640.4,-103.48 677.91,-89.31 704.74,-79.18"/>
<polygon fill="midnightblue" stroke="midnightblue" points="706.33,-82.32 714.45,-75.52 703.86,-75.77 706.33,-82.32"/>
</g>
<!-- Node7 -->
<g id="node7" class="node">
<title>Node7</title>
<g id="a_node7"><a xlink:href="ColorConstants_8h.html" target="_top" xlink:title=" ">
<polygon fill="none" stroke="black" points="606,-0.5 606,-19.5 740,-19.5 740,-0.5 606,-0.5"/>
<text text-anchor="middle" x="673" y="-7.5" font-family="Helvetica,sans-Serif" font-size="10.00">Colors/ColorConstants.h</text>
</a>
</g>
</g>
<!-- Node6&#45;&gt;Node7 -->
<g id="edge7" class="edge">
<title>Node6&#45;&gt;Node7</title>
<path fill="none" stroke="midnightblue" d="M726.72,-56.32C717.16,-48.26 702.72,-36.08 691.22,-26.37"/>
<polygon fill="midnightblue" stroke="midnightblue" points="693.37,-23.61 683.47,-19.83 688.86,-28.96 693.37,-23.61"/>
</g>
<!-- Node9&#45;&gt;Node3 -->
<g id="edge10" class="edge">
<title>Node9&#45;&gt;Node3</title>
<path fill="none" stroke="midnightblue" d="M470.64,-224.46C401.06,-208.47 260.99,-172 233,-132 222.75,-117.36 232.28,-97.69 242,-83.83"/>
<polygon fill="midnightblue" stroke="midnightblue" points="244.94,-85.75 248.21,-75.68 239.37,-81.51 244.94,-85.75"/>
</g>
<!-- Node9&#45;&gt;Node10 -->
<g id="edge11" class="edge">
<title>Node9&#45;&gt;Node10</title>
<path fill="none" stroke="midnightblue" d="M571.79,-226.31C639.4,-218.7 751.19,-205.26 856.82,-188.1"/>
<polygon fill="midnightblue" stroke="midnightblue" points="857.39,-191.56 866.69,-186.48 856.26,-184.65 857.39,-191.56"/>
</g>
<!-- Node10&#45;&gt;Node6 -->
<g id="edge13" class="edge">
<title>Node10&#45;&gt;Node6</title>
<path fill="none" stroke="midnightblue" d="M922.61,-168.43C947.4,-156.43 984.82,-133.64 967,-112 945.73,-86.17 856.84,-74.95 796.01,-70.24"/>
<polygon fill="midnightblue" stroke="midnightblue" points="795.98,-66.73 785.75,-69.48 795.47,-73.71 795.98,-66.73"/>
</g>
<!-- Node11 -->
<g id="node11" class="node">
<title>Node11</title>
<g id="a_node11"><a xlink:title=" ">
<polygon fill="none" stroke="#bfbfbf" points="919,-56.5 919,-75.5 975,-75.5 975,-56.5 919,-56.5"/>
<text text-anchor="middle" x="947" y="-63.5" font-family="Helvetica,sans-Serif" font-size="10.00">stdarg.h</text>
</a>
</g>
</g>
<!-- Node10&#45;&gt;Node11 -->
<g id="edge12" class="edge">
<title>Node10&#45;&gt;Node11</title>
<path fill="none" stroke="midnightblue" d="M939.46,-170.23C961.05,-164.14 986.71,-152.81 1000,-132 1012.03,-113.16 990.58,-93.55 971.47,-80.86"/>
<polygon fill="midnightblue" stroke="midnightblue" points="973.32,-77.89 962.99,-75.54 969.61,-83.82 973.32,-77.89"/>
</g>
<!-- Node12 -->
<g id="node12" class="node">
<title>Node12</title>
<g id="a_node12"><a xlink:href="ErrorBlinker_8h.html" target="_top" xlink:title=" ">
<polygon fill="none" stroke="black" points="846.5,-112.5 846.5,-131.5 957.5,-131.5 957.5,-112.5 846.5,-112.5"/>
<text text-anchor="middle" x="902" y="-119.5" font-family="Helvetica,sans-Serif" font-size="10.00">../Log/ErrorBlinker.h</text>
</a>
</g>
</g>
<!-- Node10&#45;&gt;Node12 -->
<g id="edge14" class="edge">
<title>Node10&#45;&gt;Node12</title>
<path fill="none" stroke="midnightblue" d="M902.83,-168.08C902.7,-161.01 902.52,-150.86 902.35,-141.99"/>
<polygon fill="midnightblue" stroke="midnightblue" points="905.85,-141.68 902.16,-131.75 898.85,-141.81 905.85,-141.68"/>
</g>
<!-- Node12&#45;&gt;Node3 -->
<g id="edge15" class="edge">
<title>Node12&#45;&gt;Node3</title>
<path fill="none" stroke="midnightblue" d="M846.41,-116.1C831.05,-114.75 814.38,-113.31 799,-112 612.72,-96.14 390.44,-77.95 298.76,-70.48"/>
<polygon fill="midnightblue" stroke="midnightblue" points="299,-66.99 288.75,-69.66 298.43,-73.96 299,-66.99"/>
</g>
<!-- Node12&#45;&gt;Node6 -->
<g id="edge16" class="edge">
<title>Node12&#45;&gt;Node6</title>
<path fill="none" stroke="midnightblue" d="M875.86,-112.44C847.98,-103.32 803.65,-88.81 772.6,-78.65"/>
<polygon fill="midnightblue" stroke="midnightblue" points="773.62,-75.3 763.02,-75.52 771.44,-81.95 773.62,-75.3"/>
</g>
<!-- Node13&#45;&gt;Node3 -->
<g id="edge19" class="edge">
<title>Node13&#45;&gt;Node3</title>
<path fill="none" stroke="midnightblue" d="M576.78,-171.17C476.3,-161.35 286.35,-141.66 275,-132 261.73,-120.71 257.45,-100.7 256.21,-85.86"/>
<polygon fill="midnightblue" stroke="midnightblue" points="259.7,-85.57 255.75,-75.74 252.71,-85.89 259.7,-85.57"/>
</g>
<!-- Node13&#45;&gt;Node6 -->
<g id="edge20" class="edge">
<title>Node13&#45;&gt;Node6</title>
<path fill="none" stroke="midnightblue" d="M641.7,-168.28C647.6,-155.08 660.1,-129.69 676,-112 686.8,-99.99 701.26,-89.15 713.39,-81.12"/>
<polygon fill="midnightblue" stroke="midnightblue" points="715.57,-83.89 722.12,-75.56 711.8,-77.99 715.57,-83.89"/>
</g>
<!-- Node14 -->
<g id="node14" class="node">
<title>Node14</title>
<g id="a_node14"><a xlink:href="LedTypes_8h.html" target="_top" xlink:title=" ">
<polygon fill="none" stroke="black" points="684.5,-112.5 684.5,-131.5 789.5,-131.5 789.5,-112.5 684.5,-112.5"/>
<text text-anchor="middle" x="737" y="-119.5" font-family="Helvetica,sans-Serif" font-size="10.00">../Leds/LedTypes.h</text>
</a>
</g>
</g>
<!-- Node13&#45;&gt;Node14 -->
<g id="edge21" class="edge">
<title>Node13&#45;&gt;Node14</title>
<path fill="none" stroke="midnightblue" d="M653.91,-168.32C669.64,-159.74 693.94,-146.49 712.21,-136.52"/>
<polygon fill="midnightblue" stroke="midnightblue" points="714.03,-139.52 721.13,-131.65 710.68,-133.37 714.03,-139.52"/>
</g>
<!-- Node14&#45;&gt;Node3 -->
<g id="edge22" class="edge">
<title>Node14&#45;&gt;Node3</title>
<path fill="none" stroke="midnightblue" d="M684.15,-115.07C588.12,-104.29 386.8,-81.68 298.75,-71.8"/>
<polygon fill="midnightblue" stroke="midnightblue" points="298.92,-68.3 288.59,-70.66 298.14,-75.25 298.92,-68.3"/>
</g>
<!-- Node14&#45;&gt;Node6 -->
<g id="edge24" class="edge">
<title>Node14&#45;&gt;Node6</title>
<path fill="none" stroke="midnightblue" d="M737,-112.08C737,-105.01 737,-94.86 737,-85.99"/>
<polygon fill="midnightblue" stroke="midnightblue" points="740.5,-85.75 737,-75.75 733.5,-85.75 740.5,-85.75"/>
</g>
<!-- Node14&#45;&gt;Node11 -->
<g id="edge23" class="edge">
<title>Node14&#45;&gt;Node11</title>
<path fill="none" stroke="midnightblue" d="M770.28,-112.44C808.04,-102.73 869.53,-86.92 909.11,-76.74"/>
<polygon fill="midnightblue" stroke="midnightblue" points="910.11,-80.1 918.92,-74.22 908.36,-73.32 910.11,-80.1"/>
</g>
<!-- Node15&#45;&gt;Node6 -->
<g id="edge29" class="edge">
<title>Node15&#45;&gt;Node6</title>
<path fill="none" stroke="midnightblue" d="M763.59,-228.21C822.82,-221.59 918.66,-208.14 948,-188 972.2,-171.39 974.91,-160.21 983,-132 985.45,-123.46 988.69,-118.83 983,-112 959.61,-83.95 860.71,-73.33 795.65,-69.35"/>
<polygon fill="midnightblue" stroke="midnightblue" points="795.7,-65.85 785.52,-68.76 795.3,-72.83 795.7,-65.85"/>
</g>
<!-- Node15&#45;&gt;Node14 -->
<g id="edge26" class="edge">
<title>Node15&#45;&gt;Node14</title>
<path fill="none" stroke="midnightblue" d="M716.73,-224.37C720.28,-206.62 728.47,-165.67 733.28,-141.6"/>
<polygon fill="midnightblue" stroke="midnightblue" points="736.75,-142.08 735.28,-131.59 729.89,-140.71 736.75,-142.08"/>
</g>
<!-- Node16 -->
<g id="node16" class="node">
<title>Node16</title>
<g id="a_node16"><a xlink:href="Patterns_8h.html" target="_top" xlink:title=" ">
<polygon fill="none" stroke="black" points="284.5,-112.5 284.5,-131.5 401.5,-131.5 401.5,-112.5 284.5,-112.5"/>
<text text-anchor="middle" x="343" y="-119.5" font-family="Helvetica,sans-Serif" font-size="10.00">../Patterns/Patterns.h</text>
</a>
</g>
</g>
<!-- Node15&#45;&gt;Node16 -->
<g id="edge27" class="edge">
<title>Node15&#45;&gt;Node16</title>
<path fill="none" stroke="midnightblue" d="M680.8,-224.48C650.6,-216.5 605.63,-203.5 568,-188 550.35,-180.73 547.86,-174.73 530,-168 488.87,-152.5 440.6,-141.05 403.4,-133.57"/>
<polygon fill="midnightblue" stroke="midnightblue" points="403.71,-130.06 393.22,-131.57 402.36,-136.93 403.71,-130.06"/>
</g>
<!-- Node17 -->
<g id="node17" class="node">
<title>Node17</title>
<g id="a_node17"><a xlink:href="DefaultModes_8h.html" target="_top" xlink:title=" ">
<polygon fill="none" stroke="black" points="755,-168.5 755,-187.5 849,-187.5 849,-168.5 755,-168.5"/>
<text text-anchor="middle" x="802" y="-175.5" font-family="Helvetica,sans-Serif" font-size="10.00">DefaultModes.h</text>
</a>
</g>
</g>
<!-- Node15&#45;&gt;Node17 -->
<g id="edge30" class="edge">
<title>Node15&#45;&gt;Node17</title>
<path fill="none" stroke="midnightblue" d="M728.98,-224.32C742.55,-215.9 763.38,-202.97 779.32,-193.07"/>
<polygon fill="midnightblue" stroke="midnightblue" points="781.41,-195.9 788.06,-187.65 777.71,-189.95 781.41,-195.9"/>
</g>
<!-- Node16&#45;&gt;Node3 -->
<g id="edge28" class="edge">
<title>Node16&#45;&gt;Node3</title>
<path fill="none" stroke="midnightblue" d="M329.02,-112.32C315.45,-103.9 294.62,-90.97 278.68,-81.07"/>
<polygon fill="midnightblue" stroke="midnightblue" points="280.29,-77.95 269.94,-75.65 276.59,-83.9 280.29,-77.95"/>
</g>
<!-- Node17&#45;&gt;Node6 -->
<g id="edge33" class="edge">
<title>Node17&#45;&gt;Node6</title>
<path fill="none" stroke="midnightblue" d="M803.84,-168.38C806.16,-155.32 808.76,-130.1 799,-112 791.69,-98.43 778.29,-87.93 765.82,-80.49"/>
<polygon fill="midnightblue" stroke="midnightblue" points="767.44,-77.39 757,-75.62 764.06,-83.52 767.44,-77.39"/>
</g>
<!-- Node17&#45;&gt;Node14 -->
<g id="edge32" class="edge">
<title>Node17&#45;&gt;Node14</title>
<path fill="none" stroke="midnightblue" d="M791.56,-168.32C781.85,-160.26 767.18,-148.08 755.5,-138.37"/>
<polygon fill="midnightblue" stroke="midnightblue" points="757.56,-135.53 747.63,-131.83 753.09,-140.92 757.56,-135.53"/>
</g>
<!-- Node17&#45;&gt;Node16 -->
<g id="edge31" class="edge">
<title>Node17&#45;&gt;Node16</title>
<path fill="none" stroke="midnightblue" d="M754.72,-171.82C683.04,-163.91 542.31,-148.16 411.78,-132.08"/>
<polygon fill="midnightblue" stroke="midnightblue" points="411.95,-128.57 401.6,-130.82 411.09,-135.52 411.95,-128.57"/>
</g>
<!-- Node18&#45;&gt;Node3 -->
<g id="edge35" class="edge">
<title>Node18&#45;&gt;Node3</title>
<path fill="none" stroke="midnightblue" d="M437.38,-175.27C376.14,-171.74 266.34,-161.4 242,-132 230.99,-118.71 237.62,-98.77 245.03,-84.49"/>
<polygon fill="midnightblue" stroke="midnightblue" points="248.16,-86.07 250.09,-75.65 242.08,-82.59 248.16,-86.07"/>
</g>
<!-- Node18&#45;&gt;Node14 -->
<g id="edge40" class="edge">
<title>Node18&#45;&gt;Node14</title>
<path fill="none" stroke="midnightblue" d="M519.88,-168.44C564.98,-159 637.61,-143.8 686.3,-133.61"/>
<polygon fill="midnightblue" stroke="midnightblue" points="687.24,-136.99 696.31,-131.52 685.81,-130.14 687.24,-136.99"/>
</g>
<!-- Node19 -->
<g id="node19" class="node">
<title>Node19</title>
<g id="a_node19"><a xlink:href="ColorTypes_8h.html" target="_top" xlink:title=" ">
<polygon fill="none" stroke="black" points="420,-112.5 420,-131.5 542,-131.5 542,-112.5 420,-112.5"/>
<text text-anchor="middle" x="481" y="-119.5" font-family="Helvetica,sans-Serif" font-size="10.00">../Colors/ColorTypes.h</text>
</a>
</g>
</g>
<!-- Node18&#45;&gt;Node19 -->
<g id="edge36" class="edge">
<title>Node18&#45;&gt;Node19</title>
<path fill="none" stroke="midnightblue" d="M479.33,-168.08C479.59,-161.01 479.97,-150.86 480.3,-141.99"/>
<polygon fill="midnightblue" stroke="midnightblue" points="483.8,-141.87 480.68,-131.75 476.81,-141.61 483.8,-141.87"/>
</g>
<!-- Node19&#45;&gt;Node3 -->
<g id="edge37" class="edge">
<title>Node19&#45;&gt;Node3</title>
<path fill="none" stroke="midnightblue" d="M445.35,-112.44C405.43,-102.86 340.77,-87.35 298.32,-77.16"/>
<polygon fill="midnightblue" stroke="midnightblue" points="299.1,-73.75 288.56,-74.82 297.47,-80.55 299.1,-73.75"/>
</g>
<!-- Node19&#45;&gt;Node6 -->
<g id="edge38" class="edge">
<title>Node19&#45;&gt;Node6</title>
<path fill="none" stroke="midnightblue" d="M521.56,-112.44C566.32,-103 638.38,-87.8 686.7,-77.61"/>
<polygon fill="midnightblue" stroke="midnightblue" points="687.56,-81.01 696.63,-75.52 686.12,-74.16 687.56,-81.01"/>
</g>
<!-- Node19&#45;&gt;Node7 -->
<g id="edge39" class="edge">
<title>Node19&#45;&gt;Node7</title>
<path fill="none" stroke="midnightblue" d="M496.07,-112.37C529.29,-93.33 609.09,-47.62 649.17,-24.65"/>
<polygon fill="midnightblue" stroke="midnightblue" points="651.07,-27.6 658,-19.59 647.59,-21.53 651.07,-27.6"/>
</g>
</g>
</svg>
        <g id="navigator" transform="translate(0 0)" fill="#404254">
                <rect fill="#f2f5e9" fill-opacity="0.5" stroke="#606060" stroke-width=".5" x="0" y="0" width="60" height="60"/>
                <use id="zoomplus" xlink:href="#zoomPlus" x="17" y="9" onmousedown="handleZoom(evt,'in')"/>
                <use id="zoomminus" xlink:href="#zoomMin" x="42" y="9" onmousedown="handleZoom(evt,'out')"/>
                <use id="reset" xlink:href="#resetDef" x="30" y="36" onmousedown="handleReset()"/>
                <g id="arrowUp" xlink:href="#dirArrow" transform="translate(30 24)" onmousedown="handlePan(0,-1)">
                  <use xlink:href="#rim" fill="#404040">
                        <set attributeName="fill" to="#808080" begin="arrowUp.mouseover" end="arrowUp.mouseout"/>
                  </use>
                  <path fill="none" stroke="white" stroke-width="1.5" d="M0,-3.0v7 M-2.5,-0.5L0,-3.0L2.5,-0.5"/>
                </g>
                <g id="arrowRight" xlink:href="#dirArrow" transform="rotate(90) translate(36 -43)" onmousedown="handlePan(1,0)">
                  <use xlink:href="#rim" fill="#404040">
                        <set attributeName="fill" to="#808080" begin="arrowRight.mouseover" end="arrowRight.mouseout"/>
                  </use>
                  <path fill="none" stroke="white" stroke-width="1.5" d="M0,-3.0v7 M-2.5,-0.5L0,-3.0L2.5,-0.5"/>
                </g>
                <g id="arrowDown" xlink:href="#dirArrow" transform="rotate(180) translate(-30 -48)" onmousedown="handlePan(0,1)">
                  <use xlink:href="#rim" fill="#404040">
                        <set attributeName="fill" to="#808080" begin="arrowDown.mouseover" end="arrowDown.mouseout"/>
                  </use>
                  <path fill="none" stroke="white" stroke-width="1.5" d="M0,-3.0v7 M-2.5,-0.5L0,-3.0L2.5,-0.5"/>
                </g>
                <g id="arrowLeft" xlink:href="#dirArrow" transform="rotate(270) translate(-36 17)" onmousedown="handlePan(-1,0)">
                  <use xlink:href="#rim" fill="#404040">
                        <set attributeName="fill" to="#808080" begin="arrowLeft.mouseover" end="arrowLeft.mouseout"/>
                  </use>
                  <path fill="none" stroke="white" stroke-width="1.5" d="M0,-3.0v7 M-2.5,-0.5L0,-3.0L2.5,-0.5"/>
                </g>
        </g>
        <svg viewBox="0 0 15 15" width="100%" height="30px" preserveAspectRatio="xMaxYMin meet">
         <g id="arrow_out" transform="scale(0.3 0.3)">
          <a xlink:href="VLReceiver_8cpp__incl_org.svg" target="_base">
           <rect id="button" ry="5" rx="5" y="6" x="6" height="38" width="38"
                fill="#f2f5e9" fill-opacity="0.5" stroke="#606060" stroke-width="1.0"/>
           <path id="arrow"
             d="M 11.500037,31.436501 C 11.940474,20.09759 22.043105,11.32322 32.158766,21.979434 L 37.068811,17.246167 C 37.068811,17.246167 37.088388,32 37.088388,32 L 22.160133,31.978069 C 22.160133,31.978069 26.997745,27.140456 26.997745,27.140456 C 18.528582,18.264221 13.291696,25.230495 11.500037,31.436501 z"
             style="fill:#404040;"/>
          </a>
         </g>
        </svg>
</svg>
