<?xml version="1.0" encoding="UTF-8" standalone="no"?>
<!DOCTYPE svg PUBLIC "-//W3C//DTD SVG 1.1//EN"
 "http://www.w3.org/Graphics/SVG/1.1/DTD/svg11.dtd">
<!-- Generated by graphviz version 2.43.0 (0)
 -->
<!-- Title: VortexEngine/src/Wireless/VLReceiver.cpp Pages: 1 -->
<svg width="962pt" height="319pt"
 viewBox="0.00 0.00 962.27 319.00" xmlns="http://www.w3.org/2000/svg" xmlns:xlink="http://www.w3.org/1999/xlink">
<g id="graph0" class="graph" transform="scale(1 1) rotate(0) translate(4 315)">
<title>VortexEngine/src/Wireless/VLReceiver.cpp</title>
<!-- Node1 -->
<g id="node1" class="node">
<title>Node1</title>
<g id="a_node1"><a xlink:title=" ">
<polygon fill="#bfbfbf" stroke="black" points="434.77,-280.5 434.77,-310.5 577.77,-310.5 577.77,-280.5 434.77,-280.5"/>
<text text-anchor="start" x="442.77" y="-298.5" font-family="Helvetica,sans-Serif" font-size="10.00">VortexEngine/src/Wireless</text>
<text text-anchor="middle" x="506.27" y="-287.5" font-family="Helvetica,sans-Serif" font-size="10.00">/VLReceiver.cpp</text>
</a>
</g>
</g>
<!-- Node2 -->
<g id="node2" class="node">
<title>Node2</title>
<g id="a_node2"><a xlink:href="VLReceiver_8h.html" target="_top" xlink:title=" ">
<polygon fill="none" stroke="black" points="850.27,-168.5 850.27,-187.5 930.27,-187.5 930.27,-168.5 850.27,-168.5"/>
<text text-anchor="middle" x="890.27" y="-175.5" font-family="Helvetica,sans-Serif" font-size="10.00">VLReceiver.h</text>
</a>
</g>
</g>
<!-- Node1&#45;&gt;Node2 -->
<g id="edge1" class="edge">
<title>Node1&#45;&gt;Node2</title>
<path fill="none" stroke="midnightblue" d="M578.09,-289.47C661.55,-282.61 793.33,-268.29 836.27,-244 855.76,-232.98 871.2,-212.01 880.49,-196.86"/>
<polygon fill="midnightblue" stroke="midnightblue" points="883.7,-198.31 885.7,-187.91 877.65,-194.8 883.7,-198.31"/>
</g>
<!-- Node4 -->
<g id="node4" class="node">
<title>Node4</title>
<g id="a_node4"><a xlink:href="BitStream_8h.html" target="_top" xlink:title=" ">
<polygon fill="none" stroke="black" points="823.27,-112.5 823.27,-131.5 937.27,-131.5 937.27,-112.5 823.27,-112.5"/>
<text text-anchor="middle" x="880.27" y="-119.5" font-family="Helvetica,sans-Serif" font-size="10.00">../Serial/BitStream.h</text>
</a>
</g>
</g>
<!-- Node1&#45;&gt;Node4 -->
<g id="edge17" class="edge">
<title>Node1&#45;&gt;Node4</title>
<path fill="none" stroke="midnightblue" d="M536.88,-280.47C608.05,-247.83 783.8,-167.24 852.3,-135.83"/>
<polygon fill="midnightblue" stroke="midnightblue" points="853.98,-138.91 861.61,-131.56 851.06,-132.55 853.98,-138.91"/>
</g>
<!-- Node8 -->
<g id="node8" class="node">
<title>Node8</title>
<g id="a_node8"><a xlink:href="IRConfig_8h.html" target="_top" xlink:title=" ">
<polygon fill="none" stroke="black" points="888.27,-224.5 888.27,-243.5 954.27,-243.5 954.27,-224.5 888.27,-224.5"/>
<text text-anchor="middle" x="921.27" y="-231.5" font-family="Helvetica,sans-Serif" font-size="10.00">IRConfig.h</text>
</a>
</g>
</g>
<!-- Node1&#45;&gt;Node8 -->
<g id="edge8" class="edge">
<title>Node1&#45;&gt;Node8</title>
<path fill="none" stroke="midnightblue" d="M578.02,-285.79C652.31,-276.51 771.66,-260.85 874.27,-244 875.54,-243.79 876.83,-243.58 878.13,-243.35"/>
<polygon fill="midnightblue" stroke="midnightblue" points="878.96,-246.76 888.19,-241.56 877.73,-239.87 878.96,-246.76"/>
</g>
<!-- Node9 -->
<g id="node9" class="node">
<title>Node9</title>
<g id="a_node9"><a xlink:href="ByteStream_8h.html" target="_top" xlink:title=" ">
<polygon fill="none" stroke="black" points="297.77,-224.5 297.77,-243.5 420.77,-243.5 420.77,-224.5 297.77,-224.5"/>
<text text-anchor="middle" x="359.27" y="-231.5" font-family="Helvetica,sans-Serif" font-size="10.00">../Serial/ByteStream.h</text>
</a>
</g>
</g>
<!-- Node1&#45;&gt;Node9 -->
<g id="edge9" class="edge">
<title>Node1&#45;&gt;Node9</title>
<path fill="none" stroke="midnightblue" d="M471.44,-280.4C446.77,-270.42 413.99,-257.15 390.24,-247.53"/>
<polygon fill="midnightblue" stroke="midnightblue" points="391.25,-244.17 380.66,-243.66 388.62,-250.65 391.25,-244.17"/>
</g>
<!-- Node10 -->
<g id="node10" class="node">
<title>Node10</title>
<g id="a_node10"><a xlink:href="Log_8h.html" target="_top" xlink:title=" ">
<polygon fill="none" stroke="black" points="114.27,-168.5 114.27,-187.5 186.27,-187.5 186.27,-168.5 114.27,-168.5"/>
<text text-anchor="middle" x="150.27" y="-175.5" font-family="Helvetica,sans-Serif" font-size="10.00">../Log/Log.h</text>
</a>
</g>
</g>
<!-- Node1&#45;&gt;Node10 -->
<g id="edge37" class="edge">
<title>Node1&#45;&gt;Node10</title>
<path fill="none" stroke="midnightblue" d="M434.36,-281.69C391.59,-273.11 336.61,-260.38 289.27,-244 247.61,-229.59 201.73,-206.65 174.49,-192.23"/>
<polygon fill="midnightblue" stroke="midnightblue" points="176.14,-189.14 165.67,-187.51 172.84,-195.31 176.14,-189.14"/>
</g>
<!-- Node13 -->
<g id="node13" class="node">
<title>Node13</title>
<g id="a_node13"><a xlink:href="TimeControl_8h.html" target="_top" xlink:title=" ">
<polygon fill="none" stroke="black" points="343.27,-168.5 343.27,-187.5 465.27,-187.5 465.27,-168.5 343.27,-168.5"/>
<text text-anchor="middle" x="404.27" y="-175.5" font-family="Helvetica,sans-Serif" font-size="10.00">../Time/TimeControl.h</text>
</a>
</g>
</g>
<!-- Node1&#45;&gt;Node13 -->
<g id="edge18" class="edge">
<title>Node1&#45;&gt;Node13</title>
<path fill="none" stroke="midnightblue" d="M499.7,-280.5C492.23,-265.49 479.01,-241.47 463.27,-224 452.69,-212.26 438.7,-201.43 426.99,-193.34"/>
<polygon fill="midnightblue" stroke="midnightblue" points="428.84,-190.37 418.58,-187.72 424.95,-196.19 428.84,-190.37"/>
</g>
<!-- Node15 -->
<g id="node15" class="node">
<title>Node15</title>
<g id="a_node15"><a xlink:href="Mode_8h.html" target="_top" xlink:title=" ">
<polygon fill="none" stroke="black" points="227.77,-168.5 227.77,-187.5 324.77,-187.5 324.77,-168.5 227.77,-168.5"/>
<text text-anchor="middle" x="276.27" y="-175.5" font-family="Helvetica,sans-Serif" font-size="10.00">../Modes/Mode.h</text>
</a>
</g>
</g>
<!-- Node1&#45;&gt;Node15 -->
<g id="edge25" class="edge">
<title>Node1&#45;&gt;Node15</title>
<path fill="none" stroke="midnightblue" d="M494.58,-280.24C480.79,-264.31 456.41,-238.83 430.27,-224 400.89,-207.33 364.78,-196.35 334.91,-189.42"/>
<polygon fill="midnightblue" stroke="midnightblue" points="335.57,-185.98 325.04,-187.22 334.04,-192.81 335.57,-185.98"/>
</g>
<!-- Node17 -->
<g id="node17" class="node">
<title>Node17</title>
<g id="a_node17"><a xlink:href="Leds_8h.html" target="_top" xlink:title=" ">
<polygon fill="none" stroke="black" points="483.77,-168.5 483.77,-187.5 566.77,-187.5 566.77,-168.5 483.77,-168.5"/>
<text text-anchor="middle" x="525.27" y="-175.5" font-family="Helvetica,sans-Serif" font-size="10.00">../Leds/Leds.h</text>
</a>
</g>
</g>
<!-- Node1&#45;&gt;Node17 -->
<g id="edge30" class="edge">
<title>Node1&#45;&gt;Node17</title>
<path fill="none" stroke="midnightblue" d="M508.6,-280.34C512.03,-259.53 518.42,-220.66 522.22,-197.58"/>
<polygon fill="midnightblue" stroke="midnightblue" points="525.68,-198.1 523.85,-187.67 518.77,-196.97 525.68,-198.1"/>
</g>
<!-- Node3 -->
<g id="node3" class="node">
<title>Node3</title>
<g id="a_node3"><a xlink:title=" ">
<polygon fill="none" stroke="#bfbfbf" points="686.77,-56.5 686.77,-75.5 751.77,-75.5 751.77,-56.5 686.77,-56.5"/>
<text text-anchor="middle" x="719.27" y="-63.5" font-family="Helvetica,sans-Serif" font-size="10.00">inttypes.h</text>
</a>
</g>
</g>
<!-- Node2&#45;&gt;Node3 -->
<g id="edge2" class="edge">
<title>Node2&#45;&gt;Node3</title>
<path fill="none" stroke="midnightblue" d="M907.02,-168.49C929.07,-156.17 963.19,-132.6 946.27,-112 923.42,-84.17 821.29,-73.25 762.1,-69.21"/>
<polygon fill="midnightblue" stroke="midnightblue" points="762.13,-65.7 751.93,-68.55 761.68,-72.69 762.13,-65.7"/>
</g>
<!-- Node2&#45;&gt;Node4 -->
<g id="edge3" class="edge">
<title>Node2&#45;&gt;Node4</title>
<path fill="none" stroke="midnightblue" d="M888.62,-168.08C887.3,-160.93 885.39,-150.64 883.73,-141.69"/>
<polygon fill="midnightblue" stroke="midnightblue" points="887.16,-140.95 881.89,-131.75 880.27,-142.22 887.16,-140.95"/>
</g>
<!-- Node5 -->
<g id="node5" class="node">
<title>Node5</title>
<g id="a_node5"><a xlink:href="VLConfig_8h.html" target="_top" xlink:title=" ">
<polygon fill="none" stroke="black" points="347.27,-112.5 347.27,-131.5 415.27,-131.5 415.27,-112.5 347.27,-112.5"/>
<text text-anchor="middle" x="381.27" y="-119.5" font-family="Helvetica,sans-Serif" font-size="10.00">VLConfig.h</text>
</a>
</g>
</g>
<!-- Node2&#45;&gt;Node5 -->
<g id="edge5" class="edge">
<title>Node2&#45;&gt;Node5</title>
<path fill="none" stroke="midnightblue" d="M850.2,-174.62C770.98,-169.6 588.64,-156.44 425.69,-132.06"/>
<polygon fill="midnightblue" stroke="midnightblue" points="425.89,-128.55 415.48,-130.51 424.84,-135.47 425.89,-128.55"/>
</g>
<!-- Node4&#45;&gt;Node3 -->
<g id="edge4" class="edge">
<title>Node4&#45;&gt;Node3</title>
<path fill="none" stroke="midnightblue" d="M854.76,-112.44C827.68,-103.36 784.68,-88.94 754.4,-78.78"/>
<polygon fill="midnightblue" stroke="midnightblue" points="755.26,-75.38 744.66,-75.52 753.03,-82.01 755.26,-75.38"/>
</g>
<!-- Node6 -->
<g id="node6" class="node">
<title>Node6</title>
<g id="a_node6"><a xlink:href="VortexConfig_8h.html" target="_top" xlink:title=" ">
<polygon fill="none" stroke="black" points="144.77,-56.5 144.77,-75.5 241.77,-75.5 241.77,-56.5 144.77,-56.5"/>
<text text-anchor="middle" x="193.27" y="-63.5" font-family="Helvetica,sans-Serif" font-size="10.00">../VortexConfig.h</text>
</a>
</g>
</g>
<!-- Node5&#45;&gt;Node6 -->
<g id="edge6" class="edge">
<title>Node5&#45;&gt;Node6</title>
<path fill="none" stroke="midnightblue" d="M351.48,-112.44C319.44,-103.24 268.34,-88.56 232.92,-78.39"/>
<polygon fill="midnightblue" stroke="midnightblue" points="233.5,-74.91 222.92,-75.52 231.57,-81.64 233.5,-74.91"/>
</g>
<!-- Node7 -->
<g id="node7" class="node">
<title>Node7</title>
<g id="a_node7"><a xlink:href="ColorConstants_8h.html" target="_top" xlink:title=" ">
<polygon fill="none" stroke="black" points="298.27,-0.5 298.27,-19.5 432.27,-19.5 432.27,-0.5 298.27,-0.5"/>
<text text-anchor="middle" x="365.27" y="-7.5" font-family="Helvetica,sans-Serif" font-size="10.00">Colors/ColorConstants.h</text>
</a>
</g>
</g>
<!-- Node6&#45;&gt;Node7 -->
<g id="edge7" class="edge">
<title>Node6&#45;&gt;Node7</title>
<path fill="none" stroke="midnightblue" d="M220.53,-56.44C249.71,-47.28 296.19,-32.69 328.58,-22.52"/>
<polygon fill="midnightblue" stroke="midnightblue" points="329.65,-25.85 338.15,-19.52 327.56,-19.17 329.65,-25.85"/>
</g>
<!-- Node9&#45;&gt;Node3 -->
<g id="edge10" class="edge">
<title>Node9&#45;&gt;Node3</title>
<path fill="none" stroke="midnightblue" d="M421.01,-226.42C520.95,-214.32 710.86,-184.81 749.27,-132 760.4,-116.71 747.7,-96.63 735.57,-82.86"/>
<polygon fill="midnightblue" stroke="midnightblue" points="738.09,-80.43 728.68,-75.57 733,-85.24 738.09,-80.43"/>
</g>
<!-- Node9&#45;&gt;Node10 -->
<g id="edge11" class="edge">
<title>Node9&#45;&gt;Node10</title>
<path fill="none" stroke="midnightblue" d="M326.16,-224.44C290.16,-215.14 232.5,-200.25 193.09,-190.06"/>
<polygon fill="midnightblue" stroke="midnightblue" points="193.79,-186.63 183.24,-187.52 192.04,-193.41 193.79,-186.63"/>
</g>
<!-- Node10&#45;&gt;Node6 -->
<g id="edge13" class="edge">
<title>Node10&#45;&gt;Node6</title>
<path fill="none" stroke="midnightblue" d="M114.18,-173.09C64.75,-166.29 -14.77,-149.25 14.27,-112 29.1,-92.99 88.33,-80.78 134.65,-73.95"/>
<polygon fill="midnightblue" stroke="midnightblue" points="135.2,-77.4 144.61,-72.53 134.22,-70.47 135.2,-77.4"/>
</g>
<!-- Node11 -->
<g id="node11" class="node">
<title>Node11</title>
<g id="a_node11"><a xlink:title=" ">
<polygon fill="none" stroke="#bfbfbf" points="19.27,-56.5 19.27,-75.5 75.27,-75.5 75.27,-56.5 19.27,-56.5"/>
<text text-anchor="middle" x="47.27" y="-63.5" font-family="Helvetica,sans-Serif" font-size="10.00">stdarg.h</text>
</a>
</g>
</g>
<!-- Node10&#45;&gt;Node11 -->
<g id="edge12" class="edge">
<title>Node10&#45;&gt;Node11</title>
<path fill="none" stroke="midnightblue" d="M114.06,-177.13C79.57,-175.07 29.32,-165.93 4.27,-132 -8.04,-115.31 9.8,-95.31 26.11,-81.94"/>
<polygon fill="midnightblue" stroke="midnightblue" points="28.55,-84.48 34.33,-75.6 24.27,-78.94 28.55,-84.48"/>
</g>
<!-- Node12 -->
<g id="node12" class="node">
<title>Node12</title>
<g id="a_node12"><a xlink:href="ErrorBlinker_8h.html" target="_top" xlink:title=" ">
<polygon fill="none" stroke="black" points="94.77,-112.5 94.77,-131.5 205.77,-131.5 205.77,-112.5 94.77,-112.5"/>
<text text-anchor="middle" x="150.27" y="-119.5" font-family="Helvetica,sans-Serif" font-size="10.00">../Log/ErrorBlinker.h</text>
</a>
</g>
</g>
<!-- Node10&#45;&gt;Node12 -->
<g id="edge14" class="edge">
<title>Node10&#45;&gt;Node12</title>
<path fill="none" stroke="midnightblue" d="M150.27,-168.08C150.27,-161.01 150.27,-150.86 150.27,-141.99"/>
<polygon fill="midnightblue" stroke="midnightblue" points="153.77,-141.75 150.27,-131.75 146.77,-141.75 153.77,-141.75"/>
</g>
<!-- Node12&#45;&gt;Node3 -->
<g id="edge15" class="edge">
<title>Node12&#45;&gt;Node3</title>
<path fill="none" stroke="midnightblue" d="M206.1,-112.98C208.86,-112.64 211.6,-112.31 214.27,-112 385.28,-92.37 589.7,-76.47 676.7,-70.06"/>
<polygon fill="midnightblue" stroke="midnightblue" points="677,-73.55 686.72,-69.32 676.49,-66.56 677,-73.55"/>
</g>
<!-- Node12&#45;&gt;Node6 -->
<g id="edge16" class="edge">
<title>Node12&#45;&gt;Node6</title>
<path fill="none" stroke="midnightblue" d="M157.37,-112.08C163.51,-104.38 172.54,-93.03 180.01,-83.65"/>
<polygon fill="midnightblue" stroke="midnightblue" points="182.81,-85.75 186.3,-75.75 177.34,-81.39 182.81,-85.75"/>
</g>
<!-- Node13&#45;&gt;Node3 -->
<g id="edge19" class="edge">
<title>Node13&#45;&gt;Node3</title>
<path fill="none" stroke="midnightblue" d="M465.53,-168.52C550.92,-156.59 695.87,-135.86 700.27,-132 713.39,-120.53 717.69,-100.55 718.98,-85.76"/>
<polygon fill="midnightblue" stroke="midnightblue" points="722.48,-85.85 719.48,-75.69 715.49,-85.51 722.48,-85.85"/>
</g>
<!-- Node13&#45;&gt;Node6 -->
<g id="edge20" class="edge">
<title>Node13&#45;&gt;Node6</title>
<path fill="none" stroke="midnightblue" d="M343.27,-168.9C251.26,-156.61 87.38,-134.43 85.27,-132 63.6,-107.05 105.07,-88.92 142.74,-78.24"/>
<polygon fill="midnightblue" stroke="midnightblue" points="143.95,-81.54 152.7,-75.56 142.13,-74.78 143.95,-81.54"/>
</g>
<!-- Node14 -->
<g id="node14" class="node">
<title>Node14</title>
<g id="a_node14"><a xlink:href="LedTypes_8h.html" target="_top" xlink:title=" ">
<polygon fill="none" stroke="black" points="223.77,-112.5 223.77,-131.5 328.77,-131.5 328.77,-112.5 223.77,-112.5"/>
<text text-anchor="middle" x="276.27" y="-119.5" font-family="Helvetica,sans-Serif" font-size="10.00">../Leds/LedTypes.h</text>
</a>
</g>
</g>
<!-- Node13&#45;&gt;Node14 -->
<g id="edge21" class="edge">
<title>Node13&#45;&gt;Node14</title>
<path fill="none" stroke="midnightblue" d="M383.99,-168.44C362.93,-159.56 329.76,-145.56 305.79,-135.45"/>
<polygon fill="midnightblue" stroke="midnightblue" points="307.03,-132.18 296.46,-131.52 304.31,-138.63 307.03,-132.18"/>
</g>
<!-- Node14&#45;&gt;Node3 -->
<g id="edge22" class="edge">
<title>Node14&#45;&gt;Node3</title>
<path fill="none" stroke="midnightblue" d="M329.03,-113.25C332.15,-112.82 335.25,-112.4 338.27,-112 460.76,-95.88 605.76,-79.5 676.35,-71.69"/>
<polygon fill="midnightblue" stroke="midnightblue" points="677.06,-75.14 686.62,-70.56 676.3,-68.18 677.06,-75.14"/>
</g>
<!-- Node14&#45;&gt;Node6 -->
<g id="edge24" class="edge">
<title>Node14&#45;&gt;Node6</title>
<path fill="none" stroke="midnightblue" d="M262.94,-112.32C250.11,-103.98 230.49,-91.21 215.33,-81.35"/>
<polygon fill="midnightblue" stroke="midnightblue" points="216.87,-78.17 206.58,-75.65 213.05,-84.04 216.87,-78.17"/>
</g>
<!-- Node14&#45;&gt;Node11 -->
<g id="edge23" class="edge">
<title>Node14&#45;&gt;Node11</title>
<path fill="none" stroke="midnightblue" d="M239.99,-112.44C197.72,-102.48 128.22,-86.09 85.24,-75.95"/>
<polygon fill="midnightblue" stroke="midnightblue" points="85.98,-72.53 75.45,-73.64 84.38,-79.35 85.98,-72.53"/>
</g>
<!-- Node15&#45;&gt;Node6 -->
<g id="edge29" class="edge">
<title>Node15&#45;&gt;Node6</title>
<path fill="none" stroke="midnightblue" d="M227.56,-170.52C165.06,-161.71 63.33,-145.5 52.27,-132 25.43,-99.23 84.69,-82.19 134.45,-73.93"/>
<polygon fill="midnightblue" stroke="midnightblue" points="135.23,-77.35 144.57,-72.34 134.15,-70.43 135.23,-77.35"/>
</g>
<!-- Node15&#45;&gt;Node14 -->
<g id="edge26" class="edge">
<title>Node15&#45;&gt;Node14</title>
<path fill="none" stroke="midnightblue" d="M276.27,-168.08C276.27,-161.01 276.27,-150.86 276.27,-141.99"/>
<polygon fill="midnightblue" stroke="midnightblue" points="279.77,-141.75 276.27,-131.75 272.77,-141.75 279.77,-141.75"/>
</g>
<!-- Node16 -->
<g id="node16" class="node">
<title>Node16</title>
<g id="a_node16"><a xlink:href="Patterns_8h.html" target="_top" xlink:title=" ">
<polygon fill="none" stroke="black" points="573.77,-112.5 573.77,-131.5 690.77,-131.5 690.77,-112.5 573.77,-112.5"/>
<text text-anchor="middle" x="632.27" y="-119.5" font-family="Helvetica,sans-Serif" font-size="10.00">../Patterns/Patterns.h</text>
</a>
</g>
</g>
<!-- Node15&#45;&gt;Node16 -->
<g id="edge27" class="edge">
<title>Node15&#45;&gt;Node16</title>
<path fill="none" stroke="midnightblue" d="M325.01,-169.42C328.14,-168.94 331.25,-168.46 334.27,-168 413.6,-155.86 504.84,-142.11 565.25,-133.04"/>
<polygon fill="midnightblue" stroke="midnightblue" points="566.04,-136.46 575.41,-131.52 565,-129.54 566.04,-136.46"/>
</g>
<!-- Node16&#45;&gt;Node3 -->
<g id="edge28" class="edge">
<title>Node16&#45;&gt;Node3</title>
<path fill="none" stroke="midnightblue" d="M646.25,-112.32C659.82,-103.9 680.65,-90.97 696.6,-81.07"/>
<polygon fill="midnightblue" stroke="midnightblue" points="698.68,-83.9 705.33,-75.65 694.99,-77.95 698.68,-83.9"/>
</g>
<!-- Node17&#45;&gt;Node3 -->
<g id="edge31" class="edge">
<title>Node17&#45;&gt;Node3</title>
<path fill="none" stroke="midnightblue" d="M567.07,-174.02C621.69,-169.15 712.8,-157.38 733.27,-132 744.11,-118.57 737.51,-98.66 730.15,-84.41"/>
<polygon fill="midnightblue" stroke="midnightblue" points="733.13,-82.57 725.14,-75.61 727.05,-86.03 733.13,-82.57"/>
</g>
<!-- Node17&#45;&gt;Node14 -->
<g id="edge36" class="edge">
<title>Node17&#45;&gt;Node14</title>
<path fill="none" stroke="midnightblue" d="M485.82,-168.44C442.38,-159.02 372.49,-143.87 325.5,-133.68"/>
<polygon fill="midnightblue" stroke="midnightblue" points="326.06,-130.22 315.54,-131.52 324.57,-137.06 326.06,-130.22"/>
</g>
<!-- Node18 -->
<g id="node18" class="node">
<title>Node18</title>
<g id="a_node18"><a xlink:href="ColorTypes_8h.html" target="_top" xlink:title=" ">
<polygon fill="none" stroke="black" points="433.27,-112.5 433.27,-131.5 555.27,-131.5 555.27,-112.5 433.27,-112.5"/>
<text text-anchor="middle" x="494.27" y="-119.5" font-family="Helvetica,sans-Serif" font-size="10.00">../Colors/ColorTypes.h</text>
</a>
</g>
</g>
<!-- Node17&#45;&gt;Node18 -->
<g id="edge32" class="edge">
<title>Node17&#45;&gt;Node18</title>
<path fill="none" stroke="midnightblue" d="M520.15,-168.08C515.87,-160.61 509.62,-149.72 504.33,-140.52"/>
<polygon fill="midnightblue" stroke="midnightblue" points="507.31,-138.68 499.3,-131.75 501.24,-142.17 507.31,-138.68"/>
</g>
<!-- Node18&#45;&gt;Node3 -->
<g id="edge33" class="edge">
<title>Node18&#45;&gt;Node3</title>
<path fill="none" stroke="midnightblue" d="M529.93,-112.44C569.85,-102.86 634.5,-87.35 676.95,-77.16"/>
<polygon fill="midnightblue" stroke="midnightblue" points="677.8,-80.55 686.71,-74.82 676.17,-73.75 677.8,-80.55"/>
</g>
<!-- Node18&#45;&gt;Node6 -->
<g id="edge34" class="edge">
<title>Node18&#45;&gt;Node6</title>
<path fill="none" stroke="midnightblue" d="M446.58,-112.44C393.41,-102.9 307.45,-87.48 250.65,-77.29"/>
<polygon fill="midnightblue" stroke="midnightblue" points="251.21,-73.84 240.74,-75.52 249.97,-80.73 251.21,-73.84"/>
</g>
<!-- Node18&#45;&gt;Node7 -->
<g id="edge35" class="edge">
<title>Node18&#45;&gt;Node7</title>
<path fill="none" stroke="midnightblue" d="M484.15,-112.37C462.3,-93.73 410.46,-49.53 383.02,-26.13"/>
<polygon fill="midnightblue" stroke="midnightblue" points="385.23,-23.42 375.35,-19.59 380.69,-28.74 385.23,-23.42"/>
</g>
</g>
</svg>
