<?xml version="1.0" encoding="UTF-8" standalone="no"?>
<!DOCTYPE svg PUBLIC "-//W3C//DTD SVG 1.1//EN"
 "http://www.w3.org/Graphics/SVG/1.1/DTD/svg11.dtd">
<!-- Generated by graphviz version 2.43.0 (0)
 -->
<!-- Title: VortexEngine/src/Wireless/VLReceiver.cpp Pages: 1 -->
<!--zoomable 487 -->
<svg id="main" version="1.1" xmlns="http://www.w3.org/2000/svg" xmlns:xlink="http://www.w3.org/1999/xlink" xml:space="preserve" onload="init(evt)">
<style type="text/css"><![CDATA[
.edge:hover path { stroke: red; }
.edge:hover polygon { stroke: red; fill: red; }
]]></style>
<script type="text/javascript"><![CDATA[
var edges = document.getElementsByTagName('g');
if (edges && edges.length) {
  for (var i=0;i<edges.length;i++) {
    if (edges[i].id.substr(0,4)=='edge') {
      edges[i].setAttribute('class','edge');
    }
  }
}
]]></script>
        <defs>
                <circle id="rim" cx="0" cy="0" r="7"/>
                <circle id="rim2" cx="0" cy="0" r="3.5"/>
                <g id="zoomPlus">
                        <use xlink:href="#rim" fill="#404040">
                                <set attributeName="fill" to="#808080" begin="zoomplus.mouseover" end="zoomplus.mouseout"/>
                        </use>
                        <path d="M-4,0h8M0,-4v8" fill="none" stroke="white" stroke-width="1.5" pointer-events="none"/>
                </g>
                <g id="zoomMin">
                        <use xlink:href="#rim" fill="#404040">
                                <set attributeName="fill" to="#808080" begin="zoomminus.mouseover" end="zoomminus.mouseout"/>
                        </use>
                        <path d="M-4,0h8" fill="none" stroke="white" stroke-width="1.5" pointer-events="none"/>
                </g>
                <g id="dirArrow">
                        <path fill="none" stroke="white" stroke-width="1.5" d="M0,-3.0v7 M-2.5,-0.5L0,-3.0L2.5,-0.5"/>
                </g>
               <g id="resetDef">
                       <use xlink:href="#rim2" fill="#404040">
                               <set attributeName="fill" to="#808080" begin="reset.mouseover" end="reset.mouseout"/>
                       </use>
               </g>
        </defs>

<script type="text/javascript">
var viewWidth = 1604;
var viewHeight = 487;
var sectionId = 'dynsection-0';
</script>
<script xlink:href="svgpan.js"/>
<svg id="graph" class="graph">
<g id="viewport">
<title>VortexEngine/src/Wireless/VLReceiver.cpp</title>
<!-- Node1 -->
<g id="node1" class="node">
<title>Node1</title>
<g id="a_node1"><a xlink:title=" ">
<polygon fill="#bfbfbf" stroke="black" points="632.17,-448.5 632.17,-478.5 775.17,-478.5 775.17,-448.5 632.17,-448.5"/>
<text text-anchor="start" x="640.17" y="-466.5" font-family="Helvetica,sans-Serif" font-size="10.00">VortexEngine/src/Wireless</text>
<text text-anchor="middle" x="703.67" y="-455.5" font-family="Helvetica,sans-Serif" font-size="10.00">/VLReceiver.cpp</text>
</a>
</g>
</g>
<!-- Node2 -->
<g id="node2" class="node">
<title>Node2</title>
<g id="a_node2"><a xlink:href="VLReceiver_8h.html" target="_top" xlink:title=" ">
<polygon fill="none" stroke="black" points="1063.67,-336.5 1063.67,-355.5 1143.67,-355.5 1143.67,-336.5 1063.67,-336.5"/>
<text text-anchor="middle" x="1103.67" y="-343.5" font-family="Helvetica,sans-Serif" font-size="10.00">VLReceiver.h</text>
</a>
</g>
</g>
<!-- Node1&#45;&gt;Node2 -->
<g id="edge1" class="edge">
<title>Node1&#45;&gt;Node2</title>
<path fill="none" stroke="midnightblue" d="M752.32,-448.45C832.46,-425.31 990.67,-379.63 1064.28,-358.37"/>
<polygon fill="midnightblue" stroke="midnightblue" points="1065.45,-361.68 1074.09,-355.54 1063.51,-354.95 1065.45,-361.68"/>
</g>
<!-- Node4 -->
<g id="node4" class="node">
<title>Node4</title>
<g id="a_node4"><a xlink:href="BitStream_8h.html" target="_top" xlink:title=" ">
<polygon fill="none" stroke="black" points="1199.67,-280.5 1199.67,-299.5 1313.67,-299.5 1313.67,-280.5 1199.67,-280.5"/>
<text text-anchor="middle" x="1256.67" y="-287.5" font-family="Helvetica,sans-Serif" font-size="10.00">../Serial/BitStream.h</text>
</a>
</g>
</g>
<!-- Node1&#45;&gt;Node4 -->
<g id="edge79" class="edge">
<title>Node1&#45;&gt;Node4</title>
<path fill="none" stroke="midnightblue" d="M775.35,-460.33C915.92,-454.4 1219.7,-432.79 1283.67,-356 1295.46,-341.85 1284.01,-321.83 1272.6,-307.76"/>
<polygon fill="midnightblue" stroke="midnightblue" points="1274.92,-305.1 1265.71,-299.87 1269.65,-309.7 1274.92,-305.1"/>
</g>
<!-- Node8 -->
<g id="node8" class="node">
<title>Node8</title>
<g id="a_node8"><a xlink:href="IRConfig_8h.html" target="_top" xlink:title=" ">
<polygon fill="none" stroke="black" points="1397.67,-280.5 1397.67,-299.5 1463.67,-299.5 1463.67,-280.5 1397.67,-280.5"/>
<text text-anchor="middle" x="1430.67" y="-287.5" font-family="Helvetica,sans-Serif" font-size="10.00">IRConfig.h</text>
</a>
</g>
</g>
<!-- Node1&#45;&gt;Node8 -->
<g id="edge8" class="edge">
<title>Node1&#45;&gt;Node8</title>
<path fill="none" stroke="midnightblue" d="M775.38,-458.4C962.59,-446.94 1454.77,-411.73 1500.67,-356 1517.11,-336.05 1487.58,-316.3 1461.97,-303.9"/>
<polygon fill="midnightblue" stroke="midnightblue" points="1463.35,-300.68 1452.81,-299.68 1460.42,-307.04 1463.35,-300.68"/>
</g>
<!-- Node9 -->
<g id="node9" class="node">
<title>Node9</title>
<g id="a_node9"><a xlink:href="VortexEngine_8h.html" target="_top" xlink:title=" ">
<polygon fill="none" stroke="black" points="654.17,-392.5 654.17,-411.5 753.17,-411.5 753.17,-392.5 654.17,-392.5"/>
<text text-anchor="middle" x="703.67" y="-399.5" font-family="Helvetica,sans-Serif" font-size="10.00">../VortexEngine.h</text>
</a>
</g>
</g>
<!-- Node1&#45;&gt;Node9 -->
<g id="edge9" class="edge">
<title>Node1&#45;&gt;Node9</title>
<path fill="none" stroke="midnightblue" d="M703.67,-448.4C703.67,-440.47 703.67,-430.46 703.67,-421.86"/>
<polygon fill="midnightblue" stroke="midnightblue" points="707.17,-421.66 703.67,-411.66 700.17,-421.66 707.17,-421.66"/>
</g>
<!-- Node14 -->
<g id="node14" class="node">
<title>Node14</title>
<g id="a_node14"><a xlink:href="ByteStream_8h.html" target="_top" xlink:title=" ">
<polygon fill="none" stroke="black" points="1006.17,-224.5 1006.17,-243.5 1129.17,-243.5 1129.17,-224.5 1006.17,-224.5"/>
<text text-anchor="middle" x="1067.67" y="-231.5" font-family="Helvetica,sans-Serif" font-size="10.00">../Serial/ByteStream.h</text>
</a>
</g>
</g>
<!-- Node1&#45;&gt;Node14 -->
<g id="edge78" class="edge">
<title>Node1&#45;&gt;Node14</title>
<path fill="none" stroke="midnightblue" d="M775.54,-462.95C896.72,-462.37 1148.81,-455.43 1356.67,-412 1430.83,-396.51 1473.78,-417.75 1517.67,-356 1541.15,-322.98 1491.43,-290.26 1472.67,-280 1409.68,-245.53 1227.44,-252.11 1139.26,-243.92"/>
<polygon fill="midnightblue" stroke="midnightblue" points="1139.55,-240.43 1129.24,-242.88 1138.82,-247.39 1139.55,-240.43"/>
</g>
<!-- Node15 -->
<g id="node15" class="node">
<title>Node15</title>
<g id="a_node15"><a xlink:href="Log_8h.html" target="_top" xlink:title=" ">
<polygon fill="none" stroke="black" points="235.67,-168.5 235.67,-187.5 307.67,-187.5 307.67,-168.5 235.67,-168.5"/>
<text text-anchor="middle" x="271.67" y="-175.5" font-family="Helvetica,sans-Serif" font-size="10.00">../Log/Log.h</text>
</a>
</g>
</g>
<!-- Node1&#45;&gt;Node15 -->
<g id="edge83" class="edge">
<title>Node1&#45;&gt;Node15</title>
<path fill="none" stroke="midnightblue" d="M631.85,-462.97C525.82,-462.09 321.93,-454.33 154.67,-412 83.45,-393.97 2.67,-420.47 2.67,-347 2.67,-347 2.67,-347 2.67,-289 2.67,-241.44 148.57,-204.27 225.47,-187.98"/>
<polygon fill="midnightblue" stroke="midnightblue" points="226.32,-191.38 235.4,-185.92 224.89,-184.53 226.32,-191.38"/>
</g>
<!-- Node22 -->
<g id="node22" class="node">
<title>Node22</title>
<g id="a_node22"><a xlink:href="TimeControl_8h.html" target="_top" xlink:title=" ">
<polygon fill="none" stroke="black" points="139.17,-280.5 139.17,-299.5 252.17,-299.5 252.17,-280.5 139.17,-280.5"/>
<text text-anchor="middle" x="195.67" y="-287.5" font-family="Helvetica,sans-Serif" font-size="10.00">Time/TimeControl.h</text>
</a>
</g>
</g>
<!-- Node1&#45;&gt;Node22 -->
<g id="edge80" class="edge">
<title>Node1&#45;&gt;Node22</title>
<path fill="none" stroke="midnightblue" d="M631.97,-459.89C494.57,-453.21 202.32,-430.4 140.67,-356 125.9,-338.17 149.79,-317.83 170.57,-304.72"/>
<polygon fill="midnightblue" stroke="midnightblue" points="172.38,-307.72 179.16,-299.57 168.78,-301.71 172.38,-307.72"/>
</g>
<!-- Node24 -->
<g id="node24" class="node">
<title>Node24</title>
<g id="a_node24"><a xlink:href="Leds_8h.html" target="_top" xlink:title=" ">
<polygon fill="none" stroke="black" points="449.17,-168.5 449.17,-187.5 532.17,-187.5 532.17,-168.5 449.17,-168.5"/>
<text text-anchor="middle" x="490.67" y="-175.5" font-family="Helvetica,sans-Serif" font-size="10.00">../Leds/Leds.h</text>
</a>
</g>
</g>
<!-- Node1&#45;&gt;Node24 -->
<g id="edge82" class="edge">
<title>Node1&#45;&gt;Node24</title>
<path fill="none" stroke="midnightblue" d="M631.97,-460.96C510.55,-457.44 270.22,-446.25 193.67,-412 160.08,-396.97 148.38,-389.28 132.67,-356 118.25,-325.43 109.25,-306.93 129.67,-280 167.12,-230.63 348.58,-198.83 439.1,-185.77"/>
<polygon fill="midnightblue" stroke="midnightblue" points="439.74,-189.22 449.15,-184.34 438.76,-182.28 439.74,-189.22"/>
</g>
<!-- Node31 -->
<g id="node31" class="node">
<title>Node31</title>
<g id="a_node31"><a xlink:href="Mode_8h.html" target="_top" xlink:title=" ">
<polygon fill="none" stroke="black" points="309.17,-280.5 309.17,-299.5 406.17,-299.5 406.17,-280.5 309.17,-280.5"/>
<text text-anchor="middle" x="357.67" y="-287.5" font-family="Helvetica,sans-Serif" font-size="10.00">../Modes/Mode.h</text>
</a>
</g>
</g>
<!-- Node1&#45;&gt;Node31 -->
<g id="edge81" class="edge">
<title>Node1&#45;&gt;Node31</title>
<path fill="none" stroke="midnightblue" d="M640.86,-448.45C579.85,-432.77 486.46,-403.18 416.67,-356 397.44,-342.99 380.2,-322.44 369.39,-307.93"/>
<polygon fill="midnightblue" stroke="midnightblue" points="372.22,-305.87 363.54,-299.81 366.54,-309.97 372.22,-305.87"/>
</g>
<!-- Node3 -->
<g id="node3" class="node">
<title>Node3</title>
<g id="a_node3"><a xlink:title=" ">
<polygon fill="none" stroke="#bfbfbf" points="909.17,-56.5 909.17,-75.5 974.17,-75.5 974.17,-56.5 909.17,-56.5"/>
<text text-anchor="middle" x="941.67" y="-63.5" font-family="Helvetica,sans-Serif" font-size="10.00">inttypes.h</text>
</a>
</g>
</g>
<!-- Node2&#45;&gt;Node3 -->
<g id="edge2" class="edge">
<title>Node2&#45;&gt;Node3</title>
<path fill="none" stroke="midnightblue" d="M1115.17,-336.31C1131.77,-323.79 1163.46,-299.96 1190.67,-280 1212.75,-263.8 1228.19,-268.37 1240.67,-244 1244.73,-236.09 1244.3,-232.12 1240.67,-224 1210.25,-155.89 1181.43,-147.23 1115.67,-112 1074.24,-89.8 1021.33,-78.15 984.79,-72.31"/>
<polygon fill="midnightblue" stroke="midnightblue" points="984.88,-68.79 974.47,-70.75 983.83,-75.71 984.88,-68.79"/>
</g>
<!-- Node2&#45;&gt;Node4 -->
<g id="edge3" class="edge">
<title>Node2&#45;&gt;Node4</title>
<path fill="none" stroke="midnightblue" d="M1127.92,-336.44C1153.54,-327.4 1194.16,-313.06 1222.91,-302.92"/>
<polygon fill="midnightblue" stroke="midnightblue" points="1224.28,-306.15 1232.54,-299.52 1221.95,-299.54 1224.28,-306.15"/>
</g>
<!-- Node5 -->
<g id="node5" class="node">
<title>Node5</title>
<g id="a_node5"><a xlink:href="VLConfig_8h.html" target="_top" xlink:title=" ">
<polygon fill="none" stroke="black" points="538.67,-280.5 538.67,-299.5 606.67,-299.5 606.67,-280.5 538.67,-280.5"/>
<text text-anchor="middle" x="572.67" y="-287.5" font-family="Helvetica,sans-Serif" font-size="10.00">VLConfig.h</text>
</a>
</g>
</g>
<!-- Node2&#45;&gt;Node5 -->
<g id="edge5" class="edge">
<title>Node2&#45;&gt;Node5</title>
<path fill="none" stroke="midnightblue" d="M1063.4,-340.72C1048.7,-339.19 1031.94,-337.47 1016.67,-336 841.78,-319.1 794.36,-326.11 616.81,-300.01"/>
<polygon fill="midnightblue" stroke="midnightblue" points="617.28,-296.54 606.88,-298.53 616.25,-303.47 617.28,-296.54"/>
</g>
<!-- Node4&#45;&gt;Node3 -->
<g id="edge4" class="edge">
<title>Node4&#45;&gt;Node3</title>
<path fill="none" stroke="midnightblue" d="M1261.41,-280.29C1276.06,-252.01 1317.14,-161.75 1273.67,-112 1236.64,-69.61 1065.81,-65.59 984.68,-66.16"/>
<polygon fill="midnightblue" stroke="midnightblue" points="984.28,-62.66 974.32,-66.26 984.35,-69.66 984.28,-62.66"/>
</g>
<!-- Node6 -->
<g id="node6" class="node">
<title>Node6</title>
<g id="a_node6"><a xlink:href="VortexConfig_8h.html" target="_top" xlink:title=" ">
<polygon fill="none" stroke="black" points="120.17,-56.5 120.17,-75.5 217.17,-75.5 217.17,-56.5 120.17,-56.5"/>
<text text-anchor="middle" x="168.67" y="-63.5" font-family="Helvetica,sans-Serif" font-size="10.00">../VortexConfig.h</text>
</a>
</g>
</g>
<!-- Node5&#45;&gt;Node6 -->
<g id="edge6" class="edge">
<title>Node5&#45;&gt;Node6</title>
<path fill="none" stroke="midnightblue" d="M538.43,-286.43C485.58,-281.79 381.38,-269.98 296.67,-244 240.02,-226.63 221.3,-225.81 175.67,-188 146.28,-163.64 123.8,-148.28 135.67,-112 139.16,-101.34 146.25,-91.12 152.96,-83.12"/>
<polygon fill="midnightblue" stroke="midnightblue" points="155.58,-85.44 159.65,-75.66 150.37,-80.76 155.58,-85.44"/>
</g>
<!-- Node7 -->
<g id="node7" class="node">
<title>Node7</title>
<g id="a_node7"><a xlink:href="ColorConstants_8h.html" target="_top" xlink:title=" ">
<polygon fill="none" stroke="black" points="337.67,-0.5 337.67,-19.5 471.67,-19.5 471.67,-0.5 337.67,-0.5"/>
<text text-anchor="middle" x="404.67" y="-7.5" font-family="Helvetica,sans-Serif" font-size="10.00">Colors/ColorConstants.h</text>
</a>
</g>
</g>
<!-- Node6&#45;&gt;Node7 -->
<g id="edge7" class="edge">
<title>Node6&#45;&gt;Node7</title>
<path fill="none" stroke="midnightblue" d="M206.07,-56.44C247.07,-47.06 312.93,-31.99 357.46,-21.8"/>
<polygon fill="midnightblue" stroke="midnightblue" points="358.49,-25.16 367.45,-19.52 356.93,-18.34 358.49,-25.16"/>
</g>
<!-- Node9&#45;&gt;Node2 -->
<g id="edge30" class="edge">
<title>Node9&#45;&gt;Node2</title>
<path fill="none" stroke="midnightblue" d="M753.31,-395.11C820.58,-387 944.36,-371.62 1049.67,-356 1050.94,-355.81 1052.23,-355.62 1053.53,-355.42"/>
<polygon fill="midnightblue" stroke="midnightblue" points="1054.26,-358.85 1063.59,-353.84 1053.17,-351.93 1054.26,-358.85"/>
</g>
<!-- Node9&#45;&gt;Node3 -->
<g id="edge10" class="edge">
<title>Node9&#45;&gt;Node3</title>
<path fill="none" stroke="midnightblue" d="M753.18,-399.27C884.83,-394.37 1236.72,-379.25 1283.67,-356 1318.37,-338.82 1341.67,-329.72 1341.67,-291 1341.67,-291 1341.67,-291 1341.67,-177 1341.67,-141.35 1325.33,-130.2 1294.67,-112 1243.09,-81.38 1066.64,-71.32 984.45,-68.25"/>
<polygon fill="midnightblue" stroke="midnightblue" points="984.55,-64.75 974.43,-67.89 984.3,-71.74 984.55,-64.75"/>
</g>
<!-- Node9&#45;&gt;Node6 -->
<g id="edge11" class="edge">
<title>Node9&#45;&gt;Node6</title>
<path fill="none" stroke="midnightblue" d="M654.16,-401.5C534.13,-402.02 230.88,-398.91 140.67,-356 32.92,-304.74 -43.32,-207.15 28.67,-112 47.62,-86.96 80.68,-75.59 109.92,-70.54"/>
<polygon fill="midnightblue" stroke="midnightblue" points="110.7,-73.96 120.07,-69.01 109.66,-67.04 110.7,-73.96"/>
</g>
<!-- Node10 -->
<g id="node10" class="node">
<title>Node10</title>
<g id="a_node10"><a xlink:href="PatternBuilder_8h.html" target="_top" xlink:title=" ">
<polygon fill="none" stroke="black" points="736.17,-280.5 736.17,-299.5 873.17,-299.5 873.17,-280.5 736.17,-280.5"/>
<text text-anchor="middle" x="804.67" y="-287.5" font-family="Helvetica,sans-Serif" font-size="10.00">Patterns/PatternBuilder.h</text>
</a>
</g>
</g>
<!-- Node9&#45;&gt;Node10 -->
<g id="edge12" class="edge">
<title>Node9&#45;&gt;Node10</title>
<path fill="none" stroke="midnightblue" d="M704.93,-392.49C707.28,-379.12 713.45,-352.96 727.67,-336 739.46,-321.95 756.81,-311.27 772.07,-303.85"/>
<polygon fill="midnightblue" stroke="midnightblue" points="773.6,-307 781.23,-299.65 770.68,-300.63 773.6,-307"/>
</g>
<!-- Node12 -->
<g id="node12" class="node">
<title>Node12</title>
<g id="a_node12"><a xlink:href="IRReceiver_8h.html" target="_top" xlink:title=" ">
<polygon fill="none" stroke="black" points="1369.67,-336.5 1369.67,-355.5 1491.67,-355.5 1491.67,-336.5 1369.67,-336.5"/>
<text text-anchor="middle" x="1430.67" y="-343.5" font-family="Helvetica,sans-Serif" font-size="10.00">Wireless/IRReceiver.h</text>
</a>
</g>
</g>
<!-- Node9&#45;&gt;Node12 -->
<g id="edge15" class="edge">
<title>Node9&#45;&gt;Node12</title>
<path fill="none" stroke="midnightblue" d="M753.23,-398.44C862.27,-392.61 1131.16,-377.2 1355.67,-356 1356.78,-355.9 1357.9,-355.79 1359.03,-355.68"/>
<polygon fill="midnightblue" stroke="midnightblue" points="1359.72,-359.12 1369.31,-354.62 1359,-352.16 1359.72,-359.12"/>
</g>
<!-- Node13 -->
<g id="node13" class="node">
<title>Node13</title>
<g id="a_node13"><a xlink:href="IRSender_8h.html" target="_top" xlink:title=" ">
<polygon fill="none" stroke="black" points="1162.17,-336.5 1162.17,-355.5 1275.17,-355.5 1275.17,-336.5 1162.17,-336.5"/>
<text text-anchor="middle" x="1218.67" y="-343.5" font-family="Helvetica,sans-Serif" font-size="10.00">Wireless/IRSender.h</text>
</a>
</g>
</g>
<!-- Node9&#45;&gt;Node13 -->
<g id="edge19" class="edge">
<title>Node9&#45;&gt;Node13</title>
<path fill="none" stroke="midnightblue" d="M753.24,-396.61C834.27,-389.32 1000.43,-373.82 1152.19,-356.02"/>
<polygon fill="midnightblue" stroke="midnightblue" points="1152.64,-359.49 1162.17,-354.84 1151.82,-352.54 1152.64,-359.49"/>
</g>
<!-- Node9&#45;&gt;Node15 -->
<g id="edge77" class="edge">
<title>Node9&#45;&gt;Node15</title>
<path fill="none" stroke="midnightblue" d="M653.94,-397.61C595.91,-392.65 497.6,-381.12 416.67,-356 361.62,-338.91 335.74,-344.98 299.67,-300 275.81,-270.24 271.56,-223.83 271.21,-197.99"/>
<polygon fill="midnightblue" stroke="midnightblue" points="274.71,-197.72 271.26,-187.7 267.71,-197.68 274.71,-197.72"/>
</g>
<!-- Node18 -->
<g id="node18" class="node">
<title>Node18</title>
<g id="a_node18"><a xlink:href="VLSender_8h.html" target="_top" xlink:title=" ">
<polygon fill="none" stroke="black" points="891.67,-336.5 891.67,-355.5 1007.67,-355.5 1007.67,-336.5 891.67,-336.5"/>
<text text-anchor="middle" x="949.67" y="-343.5" font-family="Helvetica,sans-Serif" font-size="10.00">Wireless/VLSender.h</text>
</a>
</g>
</g>
<!-- Node9&#45;&gt;Node18 -->
<g id="edge31" class="edge">
<title>Node9&#45;&gt;Node18</title>
<path fill="none" stroke="midnightblue" d="M742.65,-392.44C785.57,-383.02 854.62,-367.87 901.04,-357.68"/>
<polygon fill="midnightblue" stroke="midnightblue" points="901.86,-361.08 910.88,-355.52 900.36,-354.24 901.86,-361.08"/>
</g>
<!-- Node19 -->
<g id="node19" class="node">
<title>Node19</title>
<g id="a_node19"><a xlink:href="Storage_8h.html" target="_top" xlink:title=" ">
<polygon fill="none" stroke="black" points="929.67,-168.5 929.67,-187.5 1033.67,-187.5 1033.67,-168.5 929.67,-168.5"/>
<text text-anchor="middle" x="981.67" y="-175.5" font-family="Helvetica,sans-Serif" font-size="10.00">Storage/Storage.h</text>
</a>
</g>
</g>
<!-- Node9&#45;&gt;Node19 -->
<g id="edge35" class="edge">
<title>Node9&#45;&gt;Node19</title>
<path fill="none" stroke="midnightblue" d="M708.76,-392.3C717.49,-378.16 736.72,-350.34 760.67,-336 821.35,-299.67 859.37,-342.79 915.67,-300 950.17,-273.79 968.88,-224.13 976.89,-197.3"/>
<polygon fill="midnightblue" stroke="midnightblue" points="980.27,-198.2 979.6,-187.63 973.53,-196.32 980.27,-198.2"/>
</g>
<!-- Node20 -->
<g id="node20" class="node">
<title>Node20</title>
<g id="a_node20"><a xlink:href="Buttons_8h.html" target="_top" xlink:title=" ">
<polygon fill="none" stroke="black" points="769.67,-336.5 769.67,-355.5 873.67,-355.5 873.67,-336.5 769.67,-336.5"/>
<text text-anchor="middle" x="821.67" y="-343.5" font-family="Helvetica,sans-Serif" font-size="10.00">Buttons/Buttons.h</text>
</a>
</g>
</g>
<!-- Node9&#45;&gt;Node20 -->
<g id="edge37" class="edge">
<title>Node9&#45;&gt;Node20</title>
<path fill="none" stroke="midnightblue" d="M722.37,-392.44C741.62,-383.64 771.83,-369.81 793.87,-359.72"/>
<polygon fill="midnightblue" stroke="midnightblue" points="795.43,-362.86 803.06,-355.52 792.51,-356.5 795.43,-362.86"/>
</g>
<!-- Node9&#45;&gt;Node22 -->
<g id="edge40" class="edge">
<title>Node9&#45;&gt;Node22</title>
<path fill="none" stroke="midnightblue" d="M653.91,-400.09C581.58,-397.62 443.8,-388.62 331.67,-356 289.83,-343.82 244.87,-319.98 218.56,-304.8"/>
<polygon fill="midnightblue" stroke="midnightblue" points="220.14,-301.68 209.75,-299.64 216.61,-307.72 220.14,-301.68"/>
</g>
<!-- Node9&#45;&gt;Node24 -->
<g id="edge76" class="edge">
<title>Node9&#45;&gt;Node24</title>
<path fill="none" stroke="midnightblue" d="M653.82,-397.48C597.71,-392.36 511.76,-380.65 491.67,-356 454.19,-310 472.69,-232.69 484.04,-197.47"/>
<polygon fill="midnightblue" stroke="midnightblue" points="487.48,-198.21 487.39,-187.61 480.86,-195.95 487.48,-198.21"/>
</g>
<!-- Node27 -->
<g id="node27" class="node">
<title>Node27</title>
<g id="a_node27"><a xlink:href="Timings_8h.html" target="_top" xlink:title=" ">
<polygon fill="none" stroke="black" points="149.67,-336.5 149.67,-355.5 241.67,-355.5 241.67,-336.5 149.67,-336.5"/>
<text text-anchor="middle" x="195.67" y="-343.5" font-family="Helvetica,sans-Serif" font-size="10.00">Time/Timings.h</text>
</a>
</g>
</g>
<!-- Node9&#45;&gt;Node27 -->
<g id="edge55" class="edge">
<title>Node9&#45;&gt;Node27</title>
<path fill="none" stroke="midnightblue" d="M654.04,-395.72C559.04,-385.63 352.05,-363.62 252.03,-352.99"/>
<polygon fill="midnightblue" stroke="midnightblue" points="252.13,-349.48 241.82,-351.9 251.39,-356.44 252.13,-349.48"/>
</g>
<!-- Node28 -->
<g id="node28" class="node">
<title>Node28</title>
<g id="a_node28"><a xlink:href="Serial_8h.html" target="_top" xlink:title=" ">
<polygon fill="none" stroke="black" points="1147.67,-224.5 1147.67,-243.5 1231.67,-243.5 1231.67,-224.5 1147.67,-224.5"/>
<text text-anchor="middle" x="1189.67" y="-231.5" font-family="Helvetica,sans-Serif" font-size="10.00">Serial/Serial.h</text>
</a>
</g>
</g>
<!-- Node9&#45;&gt;Node28 -->
<g id="edge58" class="edge">
<title>Node9&#45;&gt;Node28</title>
<path fill="none" stroke="midnightblue" d="M753.33,-401.24C816.75,-399.92 928.8,-392.04 1016.67,-356 1069.31,-334.41 1072.83,-312.29 1119.67,-280 1135.23,-269.27 1153.17,-257.76 1166.99,-249.06"/>
<polygon fill="midnightblue" stroke="midnightblue" points="1169.2,-251.81 1175.82,-243.54 1165.49,-245.88 1169.2,-251.81"/>
</g>
<!-- Node29 -->
<g id="node29" class="node">
<title>Node29</title>
<g id="a_node29"><a xlink:href="Modes_8h.html" target="_top" xlink:title=" ">
<polygon fill="none" stroke="black" points="625.17,-280.5 625.17,-299.5 718.17,-299.5 718.17,-280.5 625.17,-280.5"/>
<text text-anchor="middle" x="671.67" y="-287.5" font-family="Helvetica,sans-Serif" font-size="10.00">Modes/Modes.h</text>
</a>
</g>
</g>
<!-- Node9&#45;&gt;Node29 -->
<g id="edge60" class="edge">
<title>Node9&#45;&gt;Node29</title>
<path fill="none" stroke="midnightblue" d="M700.91,-392.4C698.03,-383.36 693.41,-368.72 689.67,-356 685.08,-340.38 680.17,-322.55 676.64,-309.52"/>
<polygon fill="midnightblue" stroke="midnightblue" points="680.01,-308.6 674.03,-299.86 673.25,-310.42 680.01,-308.6"/>
</g>
<!-- Node30 -->
<g id="node30" class="node">
<title>Node30</title>
<g id="a_node30"><a xlink:href="Menus_8h.html" target="_top" xlink:title=" ">
<polygon fill="none" stroke="black" points="501.17,-336.5 501.17,-355.5 594.17,-355.5 594.17,-336.5 501.17,-336.5"/>
<text text-anchor="middle" x="547.67" y="-343.5" font-family="Helvetica,sans-Serif" font-size="10.00">Menus/Menus.h</text>
</a>
</g>
</g>
<!-- Node9&#45;&gt;Node30 -->
<g id="edge67" class="edge">
<title>Node9&#45;&gt;Node30</title>
<path fill="none" stroke="midnightblue" d="M678.96,-392.44C652.83,-383.4 611.41,-369.06 582.1,-358.92"/>
<polygon fill="midnightblue" stroke="midnightblue" points="582.87,-355.48 572.28,-355.52 580.58,-362.1 582.87,-355.48"/>
</g>
<!-- Node9&#45;&gt;Node31 -->
<g id="edge75" class="edge">
<title>Node9&#45;&gt;Node31</title>
<path fill="none" stroke="midnightblue" d="M653.77,-397.55C603.13,-392.74 523.22,-381.54 458.67,-356 427.4,-343.63 395.44,-321.04 376.07,-306.02"/>
<polygon fill="midnightblue" stroke="midnightblue" points="378.12,-303.18 368.11,-299.72 373.78,-308.67 378.12,-303.18"/>
</g>
<!-- Node11 -->
<g id="node11" class="node">
<title>Node11</title>
<g id="a_node11"><a xlink:href="Patterns_8h.html" target="_top" xlink:title=" ">
<polygon fill="none" stroke="black" points="808.17,-224.5 808.17,-243.5 873.17,-243.5 873.17,-224.5 808.17,-224.5"/>
<text text-anchor="middle" x="840.67" y="-231.5" font-family="Helvetica,sans-Serif" font-size="10.00">Patterns.h</text>
</a>
</g>
</g>
<!-- Node10&#45;&gt;Node11 -->
<g id="edge13" class="edge">
<title>Node10&#45;&gt;Node11</title>
<path fill="none" stroke="midnightblue" d="M810.62,-280.08C815.65,-272.53 823.01,-261.49 829.19,-252.23"/>
<polygon fill="midnightblue" stroke="midnightblue" points="832.21,-254.01 834.84,-243.75 826.38,-250.13 832.21,-254.01"/>
</g>
<!-- Node11&#45;&gt;Node3 -->
<g id="edge14" class="edge">
<title>Node11&#45;&gt;Node3</title>
<path fill="none" stroke="midnightblue" d="M842.45,-224.37C847.06,-203.47 860.97,-149.15 887.67,-112 896.22,-100.12 908.61,-89.49 919.37,-81.55"/>
<polygon fill="midnightblue" stroke="midnightblue" points="921.38,-84.41 927.54,-75.79 917.35,-78.69 921.38,-84.41"/>
</g>
<!-- Node12&#45;&gt;Node3 -->
<g id="edge16" class="edge">
<title>Node12&#45;&gt;Node3</title>
<path fill="none" stroke="midnightblue" d="M1471.88,-336.48C1520.76,-323.69 1595.67,-294.39 1595.67,-235 1595.67,-235 1595.67,-235 1595.67,-177 1595.67,-114.87 1130.74,-79.31 984.89,-69.68"/>
<polygon fill="midnightblue" stroke="midnightblue" points="984.76,-66.17 974.55,-69.01 984.31,-73.15 984.76,-66.17"/>
</g>
<!-- Node12&#45;&gt;Node4 -->
<g id="edge17" class="edge">
<title>Node12&#45;&gt;Node4</title>
<path fill="none" stroke="midnightblue" d="M1403.1,-336.44C1373.58,-327.28 1326.56,-312.69 1293.79,-302.52"/>
<polygon fill="midnightblue" stroke="midnightblue" points="1294.7,-299.14 1284.12,-299.52 1292.63,-305.82 1294.7,-299.14"/>
</g>
<!-- Node12&#45;&gt;Node8 -->
<g id="edge18" class="edge">
<title>Node12&#45;&gt;Node8</title>
<path fill="none" stroke="midnightblue" d="M1430.67,-336.08C1430.67,-329.01 1430.67,-318.86 1430.67,-309.99"/>
<polygon fill="midnightblue" stroke="midnightblue" points="1434.17,-309.75 1430.67,-299.75 1427.17,-309.75 1434.17,-309.75"/>
</g>
<!-- Node13&#45;&gt;Node4 -->
<g id="edge28" class="edge">
<title>Node13&#45;&gt;Node4</title>
<path fill="none" stroke="midnightblue" d="M1224.95,-336.08C1230.32,-328.46 1238.19,-317.26 1244.75,-307.94"/>
<polygon fill="midnightblue" stroke="midnightblue" points="1247.62,-309.94 1250.52,-299.75 1241.9,-305.91 1247.62,-309.94"/>
</g>
<!-- Node13&#45;&gt;Node8 -->
<g id="edge29" class="edge">
<title>Node13&#45;&gt;Node8</title>
<path fill="none" stroke="midnightblue" d="M1252.27,-336.44C1288.97,-327.09 1347.86,-312.09 1387.85,-301.91"/>
<polygon fill="midnightblue" stroke="midnightblue" points="1388.76,-305.29 1397.59,-299.43 1387.03,-298.5 1388.76,-305.29"/>
</g>
<!-- Node13&#45;&gt;Node14 -->
<g id="edge20" class="edge">
<title>Node13&#45;&gt;Node14</title>
<path fill="none" stroke="midnightblue" d="M1206.83,-336.37C1181.02,-317.57 1119.52,-272.77 1087.62,-249.53"/>
<polygon fill="midnightblue" stroke="midnightblue" points="1089.61,-246.65 1079.47,-243.59 1085.49,-252.31 1089.61,-246.65"/>
</g>
<!-- Node14&#45;&gt;Node3 -->
<g id="edge21" class="edge">
<title>Node14&#45;&gt;Node3</title>
<path fill="none" stroke="midnightblue" d="M1083.14,-224.36C1102.33,-212.46 1131.09,-189.98 1118.67,-168 1090.47,-118.1 1027.08,-90.91 984.33,-77.67"/>
<polygon fill="midnightblue" stroke="midnightblue" points="985.05,-74.23 974.47,-74.75 983.07,-80.94 985.05,-74.23"/>
</g>
<!-- Node14&#45;&gt;Node15 -->
<g id="edge22" class="edge">
<title>Node14&#45;&gt;Node15</title>
<path fill="none" stroke="midnightblue" d="M1005.88,-228.81C851.9,-218.36 453.82,-191.36 317.93,-182.14"/>
<polygon fill="midnightblue" stroke="midnightblue" points="318.07,-178.64 307.85,-181.45 317.59,-185.62 318.07,-178.64"/>
</g>
<!-- Node15&#45;&gt;Node6 -->
<g id="edge24" class="edge">
<title>Node15&#45;&gt;Node6</title>
<path fill="none" stroke="midnightblue" d="M255.5,-168.49C241.37,-160.47 220.94,-147.41 206.67,-132 193.79,-118.09 183.31,-99.08 176.64,-85.21"/>
<polygon fill="midnightblue" stroke="midnightblue" points="179.66,-83.41 172.31,-75.78 173.3,-86.33 179.66,-83.41"/>
</g>
<!-- Node16 -->
<g id="node16" class="node">
<title>Node16</title>
<g id="a_node16"><a xlink:title=" ">
<polygon fill="none" stroke="#bfbfbf" points="345.67,-112.5 345.67,-131.5 401.67,-131.5 401.67,-112.5 345.67,-112.5"/>
<text text-anchor="middle" x="373.67" y="-119.5" font-family="Helvetica,sans-Serif" font-size="10.00">stdarg.h</text>
</a>
</g>
</g>
<!-- Node15&#45;&gt;Node16 -->
<g id="edge23" class="edge">
<title>Node15&#45;&gt;Node16</title>
<path fill="none" stroke="midnightblue" d="M288.06,-168.32C304.35,-159.7 329.54,-146.36 348.39,-136.39"/>
<polygon fill="midnightblue" stroke="midnightblue" points="350.13,-139.43 357.33,-131.65 346.85,-133.24 350.13,-139.43"/>
</g>
<!-- Node17 -->
<g id="node17" class="node">
<title>Node17</title>
<g id="a_node17"><a xlink:href="ErrorBlinker_8h.html" target="_top" xlink:title=" ">
<polygon fill="none" stroke="black" points="216.17,-112.5 216.17,-131.5 327.17,-131.5 327.17,-112.5 216.17,-112.5"/>
<text text-anchor="middle" x="271.67" y="-119.5" font-family="Helvetica,sans-Serif" font-size="10.00">../Log/ErrorBlinker.h</text>
</a>
</g>
</g>
<!-- Node15&#45;&gt;Node17 -->
<g id="edge25" class="edge">
<title>Node15&#45;&gt;Node17</title>
<path fill="none" stroke="midnightblue" d="M271.67,-168.08C271.67,-161.01 271.67,-150.86 271.67,-141.99"/>
<polygon fill="midnightblue" stroke="midnightblue" points="275.17,-141.75 271.67,-131.75 268.17,-141.75 275.17,-141.75"/>
</g>
<!-- Node17&#45;&gt;Node3 -->
<g id="edge26" class="edge">
<title>Node17&#45;&gt;Node3</title>
<path fill="none" stroke="midnightblue" d="M327.31,-113.06C330.48,-112.68 333.62,-112.33 336.67,-112 547.12,-89.63 799.92,-74.65 898.94,-69.25"/>
<polygon fill="midnightblue" stroke="midnightblue" points="899.35,-72.73 909.15,-68.69 898.97,-65.74 899.35,-72.73"/>
</g>
<!-- Node17&#45;&gt;Node6 -->
<g id="edge27" class="edge">
<title>Node17&#45;&gt;Node6</title>
<path fill="none" stroke="midnightblue" d="M255.13,-112.32C238.68,-103.7 213.24,-90.36 194.21,-80.39"/>
<polygon fill="midnightblue" stroke="midnightblue" points="195.66,-77.2 185.18,-75.65 192.41,-83.4 195.66,-77.2"/>
</g>
<!-- Node18&#45;&gt;Node4 -->
<g id="edge33" class="edge">
<title>Node18&#45;&gt;Node4</title>
<path fill="none" stroke="midnightblue" d="M998.32,-336.44C1052.55,-326.9 1140.22,-311.48 1198.16,-301.29"/>
<polygon fill="midnightblue" stroke="midnightblue" points="1199.01,-304.7 1208.26,-299.52 1197.8,-297.8 1199.01,-304.7"/>
</g>
<!-- Node18&#45;&gt;Node5 -->
<g id="edge34" class="edge">
<title>Node18&#45;&gt;Node5</title>
<path fill="none" stroke="midnightblue" d="M891.46,-337.18C807.39,-325.89 658.23,-305.85 617.04,-299.93"/>
<polygon fill="midnightblue" stroke="midnightblue" points="617.31,-296.43 606.9,-298.4 616.26,-303.35 617.31,-296.43"/>
</g>
<!-- Node18&#45;&gt;Node14 -->
<g id="edge32" class="edge">
<title>Node18&#45;&gt;Node14</title>
<path fill="none" stroke="midnightblue" d="M958.93,-336.37C978.84,-317.81 1025.93,-273.91 1051.11,-250.44"/>
<polygon fill="midnightblue" stroke="midnightblue" points="1053.53,-252.97 1058.46,-243.59 1048.76,-247.85 1053.53,-252.97"/>
</g>
<!-- Node19&#45;&gt;Node3 -->
<g id="edge36" class="edge">
<title>Node19&#45;&gt;Node3</title>
<path fill="none" stroke="midnightblue" d="M978.54,-168.37C972.05,-150.54 957.05,-109.3 948.32,-85.27"/>
<polygon fill="midnightblue" stroke="midnightblue" points="951.5,-83.79 944.8,-75.59 944.93,-86.19 951.5,-83.79"/>
</g>
<!-- Node21 -->
<g id="node21" class="node">
<title>Node21</title>
<g id="a_node21"><a xlink:href="Button_8h.html" target="_top" xlink:title=" ">
<polygon fill="none" stroke="black" points="1051.67,-168.5 1051.67,-187.5 1109.67,-187.5 1109.67,-168.5 1051.67,-168.5"/>
<text text-anchor="middle" x="1080.67" y="-175.5" font-family="Helvetica,sans-Serif" font-size="10.00">Button.h</text>
</a>
</g>
</g>
<!-- Node20&#45;&gt;Node21 -->
<g id="edge38" class="edge">
<title>Node20&#45;&gt;Node21</title>
<path fill="none" stroke="midnightblue" d="M873.3,-336.49C899.64,-330.05 930.84,-318.93 953.67,-300 983.55,-275.23 968.92,-251.12 996.67,-224 1011.02,-209.98 1030.61,-199.15 1047.26,-191.63"/>
<polygon fill="midnightblue" stroke="midnightblue" points="1048.87,-194.75 1056.67,-187.59 1046.1,-188.32 1048.87,-194.75"/>
</g>
<!-- Node21&#45;&gt;Node3 -->
<g id="edge39" class="edge">
<title>Node21&#45;&gt;Node3</title>
<path fill="none" stroke="midnightblue" d="M1069.77,-168.37C1046.12,-149.65 989.88,-105.15 960.42,-81.83"/>
<polygon fill="midnightblue" stroke="midnightblue" points="962.54,-79.05 952.53,-75.59 958.2,-84.54 962.54,-79.05"/>
</g>
<!-- Node22&#45;&gt;Node3 -->
<g id="edge41" class="edge">
<title>Node22&#45;&gt;Node3</title>
<path fill="none" stroke="midnightblue" d="M252.42,-281.88C304.89,-274.63 384.79,-261.91 452.67,-244 595.94,-206.2 627.45,-182.68 766.67,-132 816.57,-113.84 874.27,-92.3 909.36,-79.15"/>
<polygon fill="midnightblue" stroke="midnightblue" points="910.92,-82.3 919.06,-75.51 908.46,-75.74 910.92,-82.3"/>
</g>
<!-- Node22&#45;&gt;Node6 -->
<g id="edge42" class="edge">
<title>Node22&#45;&gt;Node6</title>
<path fill="none" stroke="midnightblue" d="M139.1,-283.96C112.18,-278.45 82.13,-267.13 64.67,-244 29.3,-197.15 27.03,-160.8 59.67,-112 71.26,-94.68 90.87,-84.02 110.29,-77.46"/>
<polygon fill="midnightblue" stroke="midnightblue" points="111.53,-80.74 120.07,-74.47 109.49,-74.04 111.53,-80.74"/>
</g>
<!-- Node23 -->
<g id="node23" class="node">
<title>Node23</title>
<g id="a_node23"><a xlink:href="LedTypes_8h.html" target="_top" xlink:title=" ">
<polygon fill="none" stroke="black" points="339.17,-224.5 339.17,-243.5 444.17,-243.5 444.17,-224.5 339.17,-224.5"/>
<text text-anchor="middle" x="391.67" y="-231.5" font-family="Helvetica,sans-Serif" font-size="10.00">../Leds/LedTypes.h</text>
</a>
</g>
</g>
<!-- Node22&#45;&gt;Node23 -->
<g id="edge43" class="edge">
<title>Node22&#45;&gt;Node23</title>
<path fill="none" stroke="midnightblue" d="M226.73,-280.44C260.28,-271.2 313.87,-256.44 350.81,-246.26"/>
<polygon fill="midnightblue" stroke="midnightblue" points="352.05,-249.55 360.76,-243.52 350.19,-242.8 352.05,-249.55"/>
</g>
<!-- Node23&#45;&gt;Node3 -->
<g id="edge44" class="edge">
<title>Node23&#45;&gt;Node3</title>
<path fill="none" stroke="midnightblue" d="M426.39,-224.45C488.39,-208.78 621.86,-173.26 730.67,-132 750.38,-124.53 753.86,-119.2 773.67,-112 815.34,-96.86 864.47,-84.29 898.8,-76.31"/>
<polygon fill="midnightblue" stroke="midnightblue" points="899.98,-79.63 908.95,-73.99 898.42,-72.81 899.98,-79.63"/>
</g>
<!-- Node23&#45;&gt;Node6 -->
<g id="edge54" class="edge">
<title>Node23&#45;&gt;Node6</title>
<path fill="none" stroke="midnightblue" d="M396.95,-224.5C409.59,-202.95 438.54,-145.52 410.67,-112 387.84,-84.53 291.61,-73.75 227.59,-69.57"/>
<polygon fill="midnightblue" stroke="midnightblue" points="227.42,-66.05 217.22,-68.93 226.99,-73.04 227.42,-66.05"/>
</g>
<!-- Node23&#45;&gt;Node16 -->
<g id="edge45" class="edge">
<title>Node23&#45;&gt;Node16</title>
<path fill="none" stroke="midnightblue" d="M390.26,-224.37C387.36,-206.62 380.66,-165.67 376.72,-141.6"/>
<polygon fill="midnightblue" stroke="midnightblue" points="380.15,-140.89 375.08,-131.59 373.24,-142.03 380.15,-140.89"/>
</g>
<!-- Node23&#45;&gt;Node24 -->
<g id="edge46" class="edge">
<title>Node23&#45;&gt;Node24</title>
<path fill="none" stroke="midnightblue" d="M407.58,-224.32C423.31,-215.74 447.62,-202.49 465.88,-192.52"/>
<polygon fill="midnightblue" stroke="midnightblue" points="467.7,-195.52 474.81,-187.65 464.35,-189.37 467.7,-195.52"/>
</g>
<!-- Node24&#45;&gt;Node3 -->
<g id="edge47" class="edge">
<title>Node24&#45;&gt;Node3</title>
<path fill="none" stroke="midnightblue" d="M502.45,-168.38C524.6,-152.33 571.92,-118.89 590.67,-112 696.6,-73.1 831.21,-66.86 898.82,-66.43"/>
<polygon fill="midnightblue" stroke="midnightblue" points="899.09,-69.93 909.08,-66.41 899.07,-62.93 899.09,-69.93"/>
</g>
<!-- Node24&#45;&gt;Node6 -->
<g id="edge52" class="edge">
<title>Node24&#45;&gt;Node6</title>
<path fill="none" stroke="midnightblue" d="M487,-168.13C480.54,-153.76 465.71,-125.62 443.67,-112 408.37,-90.19 296.88,-77.4 227.17,-71.34"/>
<polygon fill="midnightblue" stroke="midnightblue" points="227.46,-67.85 217.2,-70.49 226.87,-74.83 227.46,-67.85"/>
</g>
<!-- Node25 -->
<g id="node25" class="node">
<title>Node25</title>
<g id="a_node25"><a xlink:href="ColorTypes_8h.html" target="_top" xlink:title=" ">
<polygon fill="none" stroke="black" points="599.67,-112.5 599.67,-131.5 721.67,-131.5 721.67,-112.5 599.67,-112.5"/>
<text text-anchor="middle" x="660.67" y="-119.5" font-family="Helvetica,sans-Serif" font-size="10.00">../Colors/ColorTypes.h</text>
</a>
</g>
</g>
<!-- Node24&#45;&gt;Node25 -->
<g id="edge48" class="edge">
<title>Node24&#45;&gt;Node25</title>
<path fill="none" stroke="midnightblue" d="M517.61,-168.44C546.33,-159.32 592,-144.81 624,-134.65"/>
<polygon fill="midnightblue" stroke="midnightblue" points="625.39,-137.88 633.86,-131.52 623.27,-131.21 625.39,-137.88"/>
</g>
<!-- Node26 -->
<g id="node26" class="node">
<title>Node26</title>
<g id="a_node26"><a xlink:title=" ">
<polygon fill="none" stroke="#bfbfbf" points="496.17,-112.5 496.17,-131.5 543.17,-131.5 543.17,-112.5 496.17,-112.5"/>
<text text-anchor="middle" x="519.67" y="-119.5" font-family="Helvetica,sans-Serif" font-size="10.00">vector</text>
</a>
</g>
</g>
<!-- Node24&#45;&gt;Node26 -->
<g id="edge53" class="edge">
<title>Node24&#45;&gt;Node26</title>
<path fill="none" stroke="midnightblue" d="M495.46,-168.08C499.43,-160.69 505.2,-149.95 510.11,-140.81"/>
<polygon fill="midnightblue" stroke="midnightblue" points="513.33,-142.22 514.97,-131.75 507.16,-138.91 513.33,-142.22"/>
</g>
<!-- Node25&#45;&gt;Node3 -->
<g id="edge49" class="edge">
<title>Node25&#45;&gt;Node3</title>
<path fill="none" stroke="midnightblue" d="M705.2,-112.44C758.3,-102.24 846.43,-85.3 898.8,-75.24"/>
<polygon fill="midnightblue" stroke="midnightblue" points="899.61,-78.65 908.77,-73.32 898.29,-71.77 899.61,-78.65"/>
</g>
<!-- Node25&#45;&gt;Node6 -->
<g id="edge50" class="edge">
<title>Node25&#45;&gt;Node6</title>
<path fill="none" stroke="midnightblue" d="M599.36,-114.27C504.01,-103.81 321.45,-83.77 227.59,-73.47"/>
<polygon fill="midnightblue" stroke="midnightblue" points="227.74,-69.96 217.42,-72.35 226.98,-76.92 227.74,-69.96"/>
</g>
<!-- Node25&#45;&gt;Node7 -->
<g id="edge51" class="edge">
<title>Node25&#45;&gt;Node7</title>
<path fill="none" stroke="midnightblue" d="M640.59,-112.37C595.63,-93.05 486.73,-46.26 434.11,-23.65"/>
<polygon fill="midnightblue" stroke="midnightblue" points="435.24,-20.32 424.67,-19.59 432.47,-26.76 435.24,-20.32"/>
</g>
<!-- Node27&#45;&gt;Node6 -->
<g id="edge57" class="edge">
<title>Node27&#45;&gt;Node6</title>
<path fill="none" stroke="midnightblue" d="M183.02,-336.38C169.73,-327.32 148.23,-312.66 129.67,-300 93.22,-275.12 73.2,-280 47.67,-244 32.77,-222.98 36.04,-213.55 32.67,-188 28.21,-154.1 22.21,-137.78 44.67,-112 61.26,-92.97 86.56,-81.98 109.99,-75.64"/>
<polygon fill="midnightblue" stroke="midnightblue" points="111.02,-78.99 119.89,-73.2 109.34,-72.2 111.02,-78.99"/>
</g>
<!-- Node27&#45;&gt;Node22 -->
<g id="edge56" class="edge">
<title>Node27&#45;&gt;Node22</title>
<path fill="none" stroke="midnightblue" d="M195.67,-336.08C195.67,-329.01 195.67,-318.86 195.67,-309.99"/>
<polygon fill="midnightblue" stroke="midnightblue" points="199.17,-309.75 195.67,-299.75 192.17,-309.75 199.17,-309.75"/>
</g>
<!-- Node28&#45;&gt;Node3 -->
<g id="edge59" class="edge">
<title>Node28&#45;&gt;Node3</title>
<path fill="none" stroke="midnightblue" d="M1184.88,-224.19C1172.32,-201.93 1136.17,-142.97 1089.67,-112 1057.85,-90.8 1015.63,-79.26 984.44,-73.19"/>
<polygon fill="midnightblue" stroke="midnightblue" points="984.78,-69.7 974.31,-71.34 983.52,-76.58 984.78,-69.7"/>
</g>
<!-- Node29&#45;&gt;Node3 -->
<g id="edge66" class="edge">
<title>Node29&#45;&gt;Node3</title>
<path fill="none" stroke="midnightblue" d="M680.49,-280.4C707.85,-253.89 794.2,-171.65 872.67,-112 887.38,-100.82 904.82,-89.46 918.48,-80.96"/>
<polygon fill="midnightblue" stroke="midnightblue" points="920.57,-83.78 927.26,-75.56 916.91,-77.82 920.57,-83.78"/>
</g>
<!-- Node29&#45;&gt;Node6 -->
<g id="edge65" class="edge">
<title>Node29&#45;&gt;Node6</title>
<path fill="none" stroke="midnightblue" d="M624.94,-281.37C621.81,-280.89 618.7,-280.43 615.67,-280 488.85,-261.83 451.62,-283.28 329.67,-244 304.88,-236.01 245.98,-205.5 226.67,-188 204.39,-167.8 201.69,-159.12 188.67,-132 181.49,-117.03 176.17,-98.89 172.82,-85.59"/>
<polygon fill="midnightblue" stroke="midnightblue" points="176.2,-84.64 170.48,-75.72 169.38,-86.26 176.2,-84.64"/>
</g>
<!-- Node29&#45;&gt;Node11 -->
<g id="edge63" class="edge">
<title>Node29&#45;&gt;Node11</title>
<path fill="none" stroke="midnightblue" d="M698.45,-280.44C727.01,-271.32 772.41,-256.81 804.21,-246.65"/>
<polygon fill="midnightblue" stroke="midnightblue" points="805.56,-249.89 814.02,-243.52 803.43,-243.23 805.56,-249.89"/>
</g>
<!-- Node29&#45;&gt;Node14 -->
<g id="edge61" class="edge">
<title>Node29&#45;&gt;Node14</title>
<path fill="none" stroke="midnightblue" d="M718.47,-281.24C721.24,-280.81 723.99,-280.4 726.67,-280 819.39,-266.3 926.58,-252.49 995.66,-243.85"/>
<polygon fill="midnightblue" stroke="midnightblue" points="996.5,-247.27 1005.99,-242.56 995.63,-240.32 996.5,-247.27"/>
</g>
<!-- Node29&#45;&gt;Node24 -->
<g id="edge64" class="edge">
<title>Node29&#45;&gt;Node24</title>
<path fill="none" stroke="midnightblue" d="M657.47,-280.37C626.28,-261.41 551.56,-216 513.62,-192.94"/>
<polygon fill="midnightblue" stroke="midnightblue" points="515.17,-189.79 504.81,-187.59 511.54,-195.78 515.17,-189.79"/>
</g>
<!-- Node29&#45;&gt;Node25 -->
<g id="edge62" class="edge">
<title>Node29&#45;&gt;Node25</title>
<path fill="none" stroke="midnightblue" d="M671.08,-280.08C669.35,-253.95 664.27,-177.21 661.91,-141.58"/>
<polygon fill="midnightblue" stroke="midnightblue" points="665.4,-141.31 661.24,-131.57 658.41,-141.78 665.4,-141.31"/>
</g>
<!-- Node30&#45;&gt;Node3 -->
<g id="edge68" class="edge">
<title>Node30&#45;&gt;Node3</title>
<path fill="none" stroke="midnightblue" d="M594.49,-341.48C681.24,-334.56 860.14,-318.25 881.67,-300 904.73,-280.46 901.67,-265.23 901.67,-235 901.67,-235 901.67,-235 901.67,-177 901.67,-142.62 919.15,-105.63 931,-84.5"/>
<polygon fill="midnightblue" stroke="midnightblue" points="934.1,-86.13 936.11,-75.73 928.05,-82.61 934.1,-86.13"/>
</g>
<!-- Node30&#45;&gt;Node23 -->
<g id="edge70" class="edge">
<title>Node30&#45;&gt;Node23</title>
<path fill="none" stroke="midnightblue" d="M535.43,-336.37C508.78,-317.57 445.24,-272.77 412.28,-249.53"/>
<polygon fill="midnightblue" stroke="midnightblue" points="414.05,-246.49 403.86,-243.59 410.01,-252.21 414.05,-246.49"/>
</g>
<!-- Node30&#45;&gt;Node25 -->
<g id="edge69" class="edge">
<title>Node30&#45;&gt;Node25</title>
<path fill="none" stroke="midnightblue" d="M541.96,-336.45C534.31,-323.9 522.49,-299.82 529.67,-280 552.12,-218.07 610.85,-163.43 641.47,-138.05"/>
<polygon fill="midnightblue" stroke="midnightblue" points="643.75,-140.71 649.31,-131.69 639.34,-135.28 643.75,-140.71"/>
</g>
<!-- Node30&#45;&gt;Node31 -->
<g id="edge71" class="edge">
<title>Node30&#45;&gt;Node31</title>
<path fill="none" stroke="midnightblue" d="M517.57,-336.44C485.05,-327.2 433.1,-312.44 397.28,-302.26"/>
<polygon fill="midnightblue" stroke="midnightblue" points="398.22,-298.88 387.64,-299.52 396.3,-305.62 398.22,-298.88"/>
</g>
<!-- Node31&#45;&gt;Node6 -->
<g id="edge74" class="edge">
<title>Node31&#45;&gt;Node6</title>
<path fill="none" stroke="midnightblue" d="M309.1,-284.35C253.11,-278.07 165.6,-265.18 140.67,-244 93.66,-204.05 67.93,-166.06 97.67,-112 105.56,-97.66 120.16,-87.25 134.08,-80.08"/>
<polygon fill="midnightblue" stroke="midnightblue" points="135.97,-83.06 143.51,-75.62 132.98,-76.73 135.97,-83.06"/>
</g>
<!-- Node31&#45;&gt;Node11 -->
<g id="edge73" class="edge">
<title>Node31&#45;&gt;Node11</title>
<path fill="none" stroke="midnightblue" d="M406.2,-283.58C500.77,-273 708.34,-249.79 798.02,-239.77"/>
<polygon fill="midnightblue" stroke="midnightblue" points="798.55,-243.23 808.1,-238.64 797.77,-236.27 798.55,-243.23"/>
</g>
<!-- Node31&#45;&gt;Node23 -->
<g id="edge72" class="edge">
<title>Node31&#45;&gt;Node23</title>
<path fill="none" stroke="midnightblue" d="M363.29,-280.08C368.04,-272.53 374.99,-261.49 380.83,-252.23"/>
<polygon fill="midnightblue" stroke="midnightblue" points="383.8,-254.08 386.16,-243.75 377.87,-250.35 383.8,-254.08"/>
</g>
</g>
</svg>
        <g id="navigator" transform="translate(0 0)" fill="#404254">
                <rect fill="#f2f5e9" fill-opacity="0.5" stroke="#606060" stroke-width=".5" x="0" y="0" width="60" height="60"/>
                <use id="zoomplus" xlink:href="#zoomPlus" x="17" y="9" onmousedown="handleZoom(evt,'in')"/>
                <use id="zoomminus" xlink:href="#zoomMin" x="42" y="9" onmousedown="handleZoom(evt,'out')"/>
                <use id="reset" xlink:href="#resetDef" x="30" y="36" onmousedown="handleReset()"/>
                <g id="arrowUp" xlink:href="#dirArrow" transform="translate(30 24)" onmousedown="handlePan(0,-1)">
                  <use xlink:href="#rim" fill="#404040">
                        <set attributeName="fill" to="#808080" begin="arrowUp.mouseover" end="arrowUp.mouseout"/>
                  </use>
                  <path fill="none" stroke="white" stroke-width="1.5" d="M0,-3.0v7 M-2.5,-0.5L0,-3.0L2.5,-0.5"/>
                </g>
                <g id="arrowRight" xlink:href="#dirArrow" transform="rotate(90) translate(36 -43)" onmousedown="handlePan(1,0)">
                  <use xlink:href="#rim" fill="#404040">
                        <set attributeName="fill" to="#808080" begin="arrowRight.mouseover" end="arrowRight.mouseout"/>
                  </use>
                  <path fill="none" stroke="white" stroke-width="1.5" d="M0,-3.0v7 M-2.5,-0.5L0,-3.0L2.5,-0.5"/>
                </g>
                <g id="arrowDown" xlink:href="#dirArrow" transform="rotate(180) translate(-30 -48)" onmousedown="handlePan(0,1)">
                  <use xlink:href="#rim" fill="#404040">
                        <set attributeName="fill" to="#808080" begin="arrowDown.mouseover" end="arrowDown.mouseout"/>
                  </use>
                  <path fill="none" stroke="white" stroke-width="1.5" d="M0,-3.0v7 M-2.5,-0.5L0,-3.0L2.5,-0.5"/>
                </g>
                <g id="arrowLeft" xlink:href="#dirArrow" transform="rotate(270) translate(-36 17)" onmousedown="handlePan(-1,0)">
                  <use xlink:href="#rim" fill="#404040">
                        <set attributeName="fill" to="#808080" begin="arrowLeft.mouseover" end="arrowLeft.mouseout"/>
                  </use>
                  <path fill="none" stroke="white" stroke-width="1.5" d="M0,-3.0v7 M-2.5,-0.5L0,-3.0L2.5,-0.5"/>
                </g>
        </g>
        <svg viewBox="0 0 15 15" width="100%" height="30px" preserveAspectRatio="xMaxYMin meet">
         <g id="arrow_out" transform="scale(0.3 0.3)">
          <a xlink:href="VLReceiver_8cpp__incl_org.svg" target="_base">
           <rect id="button" ry="5" rx="5" y="6" x="6" height="38" width="38"
                fill="#f2f5e9" fill-opacity="0.5" stroke="#606060" stroke-width="1.0"/>
           <path id="arrow"
             d="M 11.500037,31.436501 C 11.940474,20.09759 22.043105,11.32322 32.158766,21.979434 L 37.068811,17.246167 C 37.068811,17.246167 37.088388,32 37.088388,32 L 22.160133,31.978069 C 22.160133,31.978069 26.997745,27.140456 26.997745,27.140456 C 18.528582,18.264221 13.291696,25.230495 11.500037,31.436501 z"
             style="fill:#404040;"/>
          </a>
         </g>
        </svg>
</svg>
