<?xml version="1.0" encoding="UTF-8" standalone="no"?>
<!DOCTYPE svg PUBLIC "-//W3C//DTD SVG 1.1//EN"
 "http://www.w3.org/Graphics/SVG/1.1/DTD/svg11.dtd">
<!-- Generated by graphviz version 2.43.0 (0)
 -->
<!-- Title: VortexEngine/src/Wireless/VLReceiver.h Pages: 1 -->
<svg width="7617pt" height="296pt"
 viewBox="0.00 0.00 7617.00 296.00" xmlns="http://www.w3.org/2000/svg" xmlns:xlink="http://www.w3.org/1999/xlink">
<g id="graph0" class="graph" transform="scale(1 1) rotate(0) translate(4 292)">
<title>VortexEngine/src/Wireless/VLReceiver.h</title>
<!-- Node1 -->
<g id="node1" class="node">
<title>Node1</title>
<g id="a_node1"><a xlink:title=" ">
<polygon fill="#bfbfbf" stroke="black" points="7218,-257.5 7218,-287.5 7361,-287.5 7361,-257.5 7218,-257.5"/>
<text text-anchor="start" x="7226" y="-275.5" font-family="Helvetica,sans-Serif" font-size="10.00">VortexEngine/src/Wireless</text>
<text text-anchor="middle" x="7289.5" y="-264.5" font-family="Helvetica,sans-Serif" font-size="10.00">/VLReceiver.h</text>
</a>
</g>
</g>
<!-- Node2 -->
<g id="node2" class="node">
<title>Node2</title>
<g id="a_node2"><a xlink:href="VortexEngine_8h.html" target="_top" xlink:title=" ">
<polygon fill="none" stroke="black" points="3904,-201.5 3904,-220.5 4079,-220.5 4079,-201.5 3904,-201.5"/>
<text text-anchor="middle" x="3991.5" y="-208.5" font-family="Helvetica,sans-Serif" font-size="10.00">VortexEngine/src/VortexEngine.h</text>
</a>
</g>
</g>
<!-- Node1&#45;&gt;Node2 -->
<g id="edge1" class="edge">
<title>Node1&#45;&gt;Node2</title>
<path fill="none" stroke="midnightblue" d="M7207.87,-270.03C6754.31,-261.84 4547.93,-222.04 4079.16,-213.58"/>
<polygon fill="midnightblue" stroke="midnightblue" points="7207.87,-273.53 7217.94,-270.21 7208,-266.53 7207.87,-273.53"/>
</g>
<!-- Node46 -->
<g id="node46" class="node">
<title>Node46</title>
<g id="a_node46"><a xlink:href="VLReceiver_8cpp.html" target="_top" xlink:title=" ">
<polygon fill="none" stroke="black" points="7466,-134.5 7466,-164.5 7609,-164.5 7609,-134.5 7466,-134.5"/>
<text text-anchor="start" x="7474" y="-152.5" font-family="Helvetica,sans-Serif" font-size="10.00">VortexEngine/src/Wireless</text>
<text text-anchor="middle" x="7537.5" y="-141.5" font-family="Helvetica,sans-Serif" font-size="10.00">/VLReceiver.cpp</text>
</a>
</g>
</g>
<!-- Node1&#45;&gt;Node46 -->
<g id="edge52" class="edge">
<title>Node1&#45;&gt;Node46</title>
<path fill="none" stroke="midnightblue" d="M7327.61,-252.91C7377.54,-228.55 7463.97,-186.38 7508.75,-164.53"/>
<polygon fill="midnightblue" stroke="midnightblue" points="7325.89,-249.85 7318.43,-257.38 7328.96,-256.14 7325.89,-249.85"/>
</g>
<!-- Node47 -->
<g id="node47" class="node">
<title>Node47</title>
<g id="a_node47"><a xlink:href="VortexLib_8cpp.html" target="_top" xlink:title=" ">
<polygon fill="none" stroke="black" points="7168.5,-67.5 7168.5,-97.5 7298.5,-97.5 7298.5,-67.5 7168.5,-67.5"/>
<text text-anchor="start" x="7176.5" y="-85.5" font-family="Helvetica,sans-Serif" font-size="10.00">VortexEngine/VortexLib</text>
<text text-anchor="middle" x="7233.5" y="-74.5" font-family="Helvetica,sans-Serif" font-size="10.00">/VortexLib.cpp</text>
</a>
</g>
</g>
<!-- Node1&#45;&gt;Node47 -->
<g id="edge53" class="edge">
<title>Node1&#45;&gt;Node47</title>
<path fill="none" stroke="midnightblue" d="M7289.69,-247.1C7289.12,-218.86 7285.67,-171.47 7270.5,-134 7265.03,-120.5 7255.15,-107.3 7246.98,-97.78"/>
<polygon fill="midnightblue" stroke="midnightblue" points="7286.19,-247.29 7289.79,-257.26 7293.19,-247.22 7286.19,-247.29"/>
</g>
<!-- Node3 -->
<g id="node3" class="node">
<title>Node3</title>
<g id="a_node3"><a xlink:href="LedStash_8cpp.html" target="_top" xlink:title=" ">
<polygon fill="none" stroke="black" points="6279.5,-134.5 6279.5,-164.5 6403.5,-164.5 6403.5,-134.5 6279.5,-134.5"/>
<text text-anchor="start" x="6287.5" y="-152.5" font-family="Helvetica,sans-Serif" font-size="10.00">VortexEngine/src/Leds</text>
<text text-anchor="middle" x="6341.5" y="-141.5" font-family="Helvetica,sans-Serif" font-size="10.00">/LedStash.cpp</text>
</a>
</g>
</g>
<!-- Node2&#45;&gt;Node3 -->
<g id="edge2" class="edge">
<title>Node2&#45;&gt;Node3</title>
<path fill="none" stroke="midnightblue" d="M4089.11,-210.26C4466.97,-210.93 5833.87,-210.12 6265.5,-165 6270.04,-164.53 6274.72,-163.92 6279.41,-163.23"/>
<polygon fill="midnightblue" stroke="midnightblue" points="4089.04,-206.76 4079.03,-210.24 4089.02,-213.76 4089.04,-206.76"/>
</g>
<!-- Node4 -->
<g id="node4" class="node">
<title>Node4</title>
<g id="a_node4"><a xlink:href="Menu_8cpp.html" target="_top" xlink:title=" ">
<polygon fill="none" stroke="black" points="6421.5,-134.5 6421.5,-164.5 6555.5,-164.5 6555.5,-134.5 6421.5,-134.5"/>
<text text-anchor="start" x="6429.5" y="-152.5" font-family="Helvetica,sans-Serif" font-size="10.00">VortexEngine/src/Menus</text>
<text text-anchor="middle" x="6488.5" y="-141.5" font-family="Helvetica,sans-Serif" font-size="10.00">/Menu.cpp</text>
</a>
</g>
</g>
<!-- Node2&#45;&gt;Node4 -->
<g id="edge3" class="edge">
<title>Node2&#45;&gt;Node4</title>
<path fill="none" stroke="midnightblue" d="M4089.42,-210.4C4483.01,-211.67 5950.64,-213 6412.5,-165 6415.44,-164.69 6418.43,-164.33 6421.45,-163.93"/>
<polygon fill="midnightblue" stroke="midnightblue" points="4089.22,-206.9 4079.21,-210.37 4089.2,-213.9 4089.22,-206.9"/>
</g>
<!-- Node5 -->
<g id="node5" class="node">
<title>Node5</title>
<g id="a_node5"><a xlink:href="ColorSelect_8cpp.html" target="_top" xlink:title=" ">
<polygon fill="none" stroke="black" points="6574,-134.5 6574,-164.5 6717,-164.5 6717,-134.5 6574,-134.5"/>
<text text-anchor="start" x="6582" y="-152.5" font-family="Helvetica,sans-Serif" font-size="10.00">VortexEngine/src/Menus</text>
<text text-anchor="middle" x="6645.5" y="-141.5" font-family="Helvetica,sans-Serif" font-size="10.00">/MenuList/ColorSelect.cpp</text>
</a>
</g>
</g>
<!-- Node2&#45;&gt;Node5 -->
<g id="edge4" class="edge">
<title>Node2&#45;&gt;Node5</title>
<path fill="none" stroke="midnightblue" d="M4089.05,-210.38C4497.35,-211.64 6070.76,-213.2 6564.5,-165 6567.49,-164.71 6570.53,-164.37 6573.59,-163.99"/>
<polygon fill="midnightblue" stroke="midnightblue" points="4089.05,-206.88 4079.04,-210.35 4089.03,-213.88 4089.05,-206.88"/>
</g>
<!-- Node6 -->
<g id="node6" class="node">
<title>Node6</title>
<g id="a_node6"><a xlink:href="EditorConnection_8cpp.html" target="_top" xlink:title=" ">
<polygon fill="none" stroke="black" points="6735.5,-134.5 6735.5,-164.5 6905.5,-164.5 6905.5,-134.5 6735.5,-134.5"/>
<text text-anchor="start" x="6743.5" y="-152.5" font-family="Helvetica,sans-Serif" font-size="10.00">VortexEngine/src/Menus</text>
<text text-anchor="middle" x="6820.5" y="-141.5" font-family="Helvetica,sans-Serif" font-size="10.00">/MenuList/EditorConnection.cpp</text>
</a>
</g>
</g>
<!-- Node2&#45;&gt;Node6 -->
<g id="edge5" class="edge">
<title>Node2&#45;&gt;Node6</title>
<path fill="none" stroke="midnightblue" d="M4089.42,-210.16C4513.99,-210.59 6197.91,-209.4 6725.5,-165 6728.74,-164.73 6732.04,-164.41 6735.37,-164.06"/>
<polygon fill="midnightblue" stroke="midnightblue" points="4089.33,-206.66 4079.33,-210.15 4089.33,-213.66 4089.33,-206.66"/>
</g>
<!-- Node7 -->
<g id="node7" class="node">
<title>Node7</title>
<g id="a_node7"><a xlink:href="FactoryReset_8cpp.html" target="_top" xlink:title=" ">
<polygon fill="none" stroke="black" points="6923.5,-134.5 6923.5,-164.5 7073.5,-164.5 7073.5,-134.5 6923.5,-134.5"/>
<text text-anchor="start" x="6931.5" y="-152.5" font-family="Helvetica,sans-Serif" font-size="10.00">VortexEngine/src/Menus</text>
<text text-anchor="middle" x="6998.5" y="-141.5" font-family="Helvetica,sans-Serif" font-size="10.00">/MenuList/FactoryReset.cpp</text>
</a>
</g>
</g>
<!-- Node2&#45;&gt;Node7 -->
<g id="edge6" class="edge">
<title>Node2&#45;&gt;Node7</title>
<path fill="none" stroke="midnightblue" d="M4089.45,-209.4C4565.77,-206.35 6628.73,-191.7 6914.5,-165 6917.45,-164.72 6920.45,-164.4 6923.47,-164.05"/>
<polygon fill="midnightblue" stroke="midnightblue" points="4089.14,-205.9 4079.17,-209.46 4089.19,-212.9 4089.14,-205.9"/>
</g>
<!-- Node8 -->
<g id="node8" class="node">
<title>Node8</title>
<g id="a_node8"><a xlink:href="GlobalBrightness_8cpp.html" target="_top" xlink:title=" ">
<polygon fill="none" stroke="black" points="7091.5,-134.5 7091.5,-164.5 7261.5,-164.5 7261.5,-134.5 7091.5,-134.5"/>
<text text-anchor="start" x="7099.5" y="-152.5" font-family="Helvetica,sans-Serif" font-size="10.00">VortexEngine/src/Menus</text>
<text text-anchor="middle" x="7176.5" y="-141.5" font-family="Helvetica,sans-Serif" font-size="10.00">/MenuList/GlobalBrightness.cpp</text>
</a>
</g>
</g>
<!-- Node2&#45;&gt;Node8 -->
<g id="edge7" class="edge">
<title>Node2&#45;&gt;Node8</title>
<path fill="none" stroke="midnightblue" d="M4089.38,-209.38C4582.05,-206.17 6778.91,-190.5 7082.5,-165 7085.38,-164.76 7088.3,-164.48 7091.26,-164.18"/>
<polygon fill="midnightblue" stroke="midnightblue" points="4089.08,-205.88 4079.1,-209.45 4089.13,-212.88 4089.08,-205.88"/>
</g>
<!-- Node9 -->
<g id="node9" class="node">
<title>Node9</title>
<g id="a_node9"><a xlink:href="ModeSharing_8cpp.html" target="_top" xlink:title=" ">
<polygon fill="none" stroke="black" points="0,-134.5 0,-164.5 151,-164.5 151,-134.5 0,-134.5"/>
<text text-anchor="start" x="8" y="-152.5" font-family="Helvetica,sans-Serif" font-size="10.00">VortexEngine/src/Menus</text>
<text text-anchor="middle" x="75.5" y="-141.5" font-family="Helvetica,sans-Serif" font-size="10.00">/MenuList/ModeSharing.cpp</text>
</a>
</g>
</g>
<!-- Node2&#45;&gt;Node9 -->
<g id="edge8" class="edge">
<title>Node2&#45;&gt;Node9</title>
<path fill="none" stroke="midnightblue" d="M3893.86,-209.77C3333.83,-208.34 541.65,-199.53 160.5,-165 157.52,-164.73 154.48,-164.41 151.42,-164.06"/>
<polygon fill="midnightblue" stroke="midnightblue" points="3893.91,-213.27 3903.92,-209.8 3893.93,-206.27 3893.91,-213.27"/>
</g>
<!-- Node10 -->
<g id="node10" class="node">
<title>Node10</title>
<g id="a_node10"><a xlink:href="PatternSelect_8cpp.html" target="_top" xlink:title=" ">
<polygon fill="none" stroke="black" points="169.5,-134.5 169.5,-164.5 321.5,-164.5 321.5,-134.5 169.5,-134.5"/>
<text text-anchor="start" x="177.5" y="-152.5" font-family="Helvetica,sans-Serif" font-size="10.00">VortexEngine/src/Menus</text>
<text text-anchor="middle" x="245.5" y="-141.5" font-family="Helvetica,sans-Serif" font-size="10.00">/MenuList/PatternSelect.cpp</text>
</a>
</g>
</g>
<!-- Node2&#45;&gt;Node10 -->
<g id="edge9" class="edge">
<title>Node2&#45;&gt;Node10</title>
<path fill="none" stroke="midnightblue" d="M3893.41,-209.71C3347.32,-208 693.66,-198 330.5,-165 327.67,-164.74 324.79,-164.44 321.88,-164.11"/>
<polygon fill="midnightblue" stroke="midnightblue" points="3893.6,-213.21 3903.61,-209.75 3893.62,-206.21 3893.6,-213.21"/>
</g>
<!-- Node11 -->
<g id="node11" class="node">
<title>Node11</title>
<g id="a_node11"><a xlink:href="Randomizer_8cpp.html" target="_top" xlink:title=" ">
<polygon fill="none" stroke="black" points="340,-134.5 340,-164.5 485,-164.5 485,-134.5 340,-134.5"/>
<text text-anchor="start" x="348" y="-152.5" font-family="Helvetica,sans-Serif" font-size="10.00">VortexEngine/src/Menus</text>
<text text-anchor="middle" x="412.5" y="-141.5" font-family="Helvetica,sans-Serif" font-size="10.00">/MenuList/Randomizer.cpp</text>
</a>
</g>
</g>
<!-- Node2&#45;&gt;Node11 -->
<g id="edge10" class="edge">
<title>Node2&#45;&gt;Node11</title>
<path fill="none" stroke="midnightblue" d="M3893.56,-209.69C3362.58,-207.87 840.35,-197.59 494.5,-165 491.48,-164.72 488.4,-164.38 485.29,-164"/>
<polygon fill="midnightblue" stroke="midnightblue" points="3893.85,-213.19 3903.86,-209.72 3893.88,-206.19 3893.85,-213.19"/>
</g>
<!-- Node12 -->
<g id="node12" class="node">
<title>Node12</title>
<g id="a_node12"><a xlink:href="Menus_8cpp.html" target="_top" xlink:title=" ">
<polygon fill="none" stroke="black" points="503.5,-134.5 503.5,-164.5 637.5,-164.5 637.5,-134.5 503.5,-134.5"/>
<text text-anchor="start" x="511.5" y="-152.5" font-family="Helvetica,sans-Serif" font-size="10.00">VortexEngine/src/Menus</text>
<text text-anchor="middle" x="570.5" y="-141.5" font-family="Helvetica,sans-Serif" font-size="10.00">/Menus.cpp</text>
</a>
</g>
</g>
<!-- Node2&#45;&gt;Node12 -->
<g id="edge11" class="edge">
<title>Node2&#45;&gt;Node12</title>
<path fill="none" stroke="midnightblue" d="M3893.63,-209.71C3376.8,-208.02 976.2,-198.41 646.5,-165 643.56,-164.7 640.56,-164.35 637.54,-163.95"/>
<polygon fill="midnightblue" stroke="midnightblue" points="3893.66,-213.21 3903.67,-209.74 3893.68,-206.21 3893.66,-213.21"/>
</g>
<!-- Node13 -->
<g id="node13" class="node">
<title>Node13</title>
<g id="a_node13"><a xlink:href="Mode_8cpp.html" target="_top" xlink:title=" ">
<polygon fill="none" stroke="black" points="655.5,-134.5 655.5,-164.5 789.5,-164.5 789.5,-134.5 655.5,-134.5"/>
<text text-anchor="start" x="663.5" y="-152.5" font-family="Helvetica,sans-Serif" font-size="10.00">VortexEngine/src/Modes</text>
<text text-anchor="middle" x="722.5" y="-141.5" font-family="Helvetica,sans-Serif" font-size="10.00">/Mode.cpp</text>
</a>
</g>
</g>
<!-- Node2&#45;&gt;Node13 -->
<g id="edge12" class="edge">
<title>Node2&#45;&gt;Node13</title>
<path fill="none" stroke="midnightblue" d="M3893.64,-209.64C3391.15,-207.64 1112.28,-196.9 798.5,-165 795.56,-164.7 792.56,-164.35 789.54,-163.95"/>
<polygon fill="midnightblue" stroke="midnightblue" points="3893.75,-213.14 3903.76,-209.68 3893.78,-206.14 3893.75,-213.14"/>
</g>
<!-- Node14 -->
<g id="node14" class="node">
<title>Node14</title>
<g id="a_node14"><a xlink:href="Modes_8cpp.html" target="_top" xlink:title=" ">
<polygon fill="none" stroke="black" points="807.5,-134.5 807.5,-164.5 941.5,-164.5 941.5,-134.5 807.5,-134.5"/>
<text text-anchor="start" x="815.5" y="-152.5" font-family="Helvetica,sans-Serif" font-size="10.00">VortexEngine/src/Modes</text>
<text text-anchor="middle" x="874.5" y="-141.5" font-family="Helvetica,sans-Serif" font-size="10.00">/Modes.cpp</text>
</a>
</g>
</g>
<!-- Node2&#45;&gt;Node14 -->
<g id="edge13" class="edge">
<title>Node2&#45;&gt;Node14</title>
<path fill="none" stroke="midnightblue" d="M3893.59,-209.56C3405.66,-207.25 1248.36,-195.39 950.5,-165 947.56,-164.7 944.56,-164.34 941.54,-163.95"/>
<polygon fill="midnightblue" stroke="midnightblue" points="3893.75,-213.06 3903.77,-209.61 3893.79,-206.06 3893.75,-213.06"/>
</g>
<!-- Node15 -->
<g id="node15" class="node">
<title>Node15</title>
<g id="a_node15"><a xlink:href="BlinkStepPattern_8cpp.html" target="_top" xlink:title=" ">
<polygon fill="none" stroke="black" points="960,-134.5 960,-164.5 1109,-164.5 1109,-134.5 960,-134.5"/>
<text text-anchor="start" x="968" y="-152.5" font-family="Helvetica,sans-Serif" font-size="10.00">VortexEngine/src/Patterns</text>
<text text-anchor="middle" x="1034.5" y="-141.5" font-family="Helvetica,sans-Serif" font-size="10.00">/Multi/BlinkStepPattern.cpp</text>
</a>
</g>
</g>
<!-- Node2&#45;&gt;Node15 -->
<g id="edge14" class="edge">
<title>Node2&#45;&gt;Node15</title>
<path fill="none" stroke="midnightblue" d="M3893.65,-209.38C3422.41,-206.29 1398.14,-191.54 1117.5,-165 1114.73,-164.74 1111.92,-164.44 1109.08,-164.1"/>
<polygon fill="midnightblue" stroke="midnightblue" points="3893.8,-212.88 3903.82,-209.45 3893.84,-205.88 3893.8,-212.88"/>
</g>
<!-- Node16 -->
<g id="node16" class="node">
<title>Node16</title>
<g id="a_node16"><a xlink:href="BouncePattern_8cpp.html" target="_top" xlink:title=" ">
<polygon fill="none" stroke="black" points="1127,-134.5 1127,-164.5 1268,-164.5 1268,-134.5 1127,-134.5"/>
<text text-anchor="start" x="1135" y="-152.5" font-family="Helvetica,sans-Serif" font-size="10.00">VortexEngine/src/Patterns</text>
<text text-anchor="middle" x="1197.5" y="-141.5" font-family="Helvetica,sans-Serif" font-size="10.00">/Multi/BouncePattern.cpp</text>
</a>
</g>
</g>
<!-- Node2&#45;&gt;Node16 -->
<g id="edge15" class="edge">
<title>Node2&#45;&gt;Node16</title>
<path fill="none" stroke="midnightblue" d="M3893.52,-209.34C3438.25,-206.12 1540.41,-191.23 1276.5,-165 1273.72,-164.72 1270.9,-164.4 1268.05,-164.05"/>
<polygon fill="midnightblue" stroke="midnightblue" points="3893.66,-212.84 3903.68,-209.41 3893.71,-205.84 3893.66,-212.84"/>
</g>
<!-- Node17 -->
<g id="node17" class="node">
<title>Node17</title>
<g id="a_node17"><a xlink:href="CompoundPattern_8cpp.html" target="_top" xlink:title=" ">
<polygon fill="none" stroke="black" points="1286,-134.5 1286,-164.5 1441,-164.5 1441,-134.5 1286,-134.5"/>
<text text-anchor="start" x="1294" y="-152.5" font-family="Helvetica,sans-Serif" font-size="10.00">VortexEngine/src/Patterns</text>
<text text-anchor="middle" x="1363.5" y="-141.5" font-family="Helvetica,sans-Serif" font-size="10.00">/Multi/CompoundPattern.cpp</text>
</a>
</g>
</g>
<!-- Node2&#45;&gt;Node17 -->
<g id="edge16" class="edge">
<title>Node2&#45;&gt;Node17</title>
<path fill="none" stroke="midnightblue" d="M3893.52,-210.2C3487.78,-210.72 1937.71,-209.67 1450.5,-165 1447.45,-164.72 1444.35,-164.4 1441.21,-164.04"/>
<polygon fill="midnightblue" stroke="midnightblue" points="3893.76,-213.7 3903.76,-210.18 3893.75,-206.7 3893.76,-213.7"/>
</g>
<!-- Node18 -->
<g id="node18" class="node">
<title>Node18</title>
<g id="a_node18"><a xlink:href="CrossDopsPattern_8cpp.html" target="_top" xlink:title=" ">
<polygon fill="none" stroke="black" points="1459.5,-134.5 1459.5,-164.5 1613.5,-164.5 1613.5,-134.5 1459.5,-134.5"/>
<text text-anchor="start" x="1467.5" y="-152.5" font-family="Helvetica,sans-Serif" font-size="10.00">VortexEngine/src/Patterns</text>
<text text-anchor="middle" x="1536.5" y="-141.5" font-family="Helvetica,sans-Serif" font-size="10.00">/Multi/CrossDopsPattern.cpp</text>
</a>
</g>
</g>
<!-- Node2&#45;&gt;Node18 -->
<g id="edge17" class="edge">
<title>Node2&#45;&gt;Node18</title>
<path fill="none" stroke="midnightblue" d="M3893.75,-210.07C3505.84,-210.07 2074.15,-207.13 1622.5,-165 1619.64,-164.73 1616.72,-164.43 1613.78,-164.09"/>
<polygon fill="midnightblue" stroke="midnightblue" points="3893.82,-213.57 3903.82,-210.07 3893.82,-206.57 3893.82,-213.57"/>
</g>
<!-- Node19 -->
<g id="node19" class="node">
<title>Node19</title>
<g id="a_node19"><a xlink:href="DoubleStrobePattern_8cpp.html" target="_top" xlink:title=" ">
<polygon fill="none" stroke="black" points="1631.5,-134.5 1631.5,-164.5 1799.5,-164.5 1799.5,-134.5 1631.5,-134.5"/>
<text text-anchor="start" x="1639.5" y="-152.5" font-family="Helvetica,sans-Serif" font-size="10.00">VortexEngine/src/Patterns</text>
<text text-anchor="middle" x="1715.5" y="-141.5" font-family="Helvetica,sans-Serif" font-size="10.00">/Multi/DoubleStrobePattern.cpp</text>
</a>
</g>
</g>
<!-- Node2&#45;&gt;Node19 -->
<g id="edge18" class="edge">
<title>Node2&#45;&gt;Node19</title>
<path fill="none" stroke="midnightblue" d="M3893.85,-209.73C3525.74,-208.44 2222.01,-201.33 1808.5,-165 1805.57,-164.74 1802.59,-164.45 1799.59,-164.13"/>
<polygon fill="midnightblue" stroke="midnightblue" points="3893.93,-213.23 3903.94,-209.76 3893.95,-206.23 3893.93,-213.23"/>
</g>
<!-- Node20 -->
<g id="node20" class="node">
<title>Node20</title>
<g id="a_node20"><a xlink:href="DripMorphPattern_8cpp.html" target="_top" xlink:title=" ">
<polygon fill="none" stroke="black" points="1818,-134.5 1818,-164.5 1971,-164.5 1971,-134.5 1818,-134.5"/>
<text text-anchor="start" x="1826" y="-152.5" font-family="Helvetica,sans-Serif" font-size="10.00">VortexEngine/src/Patterns</text>
<text text-anchor="middle" x="1894.5" y="-141.5" font-family="Helvetica,sans-Serif" font-size="10.00">/Multi/DripMorphPattern.cpp</text>
</a>
</g>
</g>
<!-- Node2&#45;&gt;Node20 -->
<g id="edge19" class="edge">
<title>Node2&#45;&gt;Node20</title>
<path fill="none" stroke="midnightblue" d="M3893.64,-209.71C3544.03,-208.39 2357.48,-201.27 1979.5,-165 1976.82,-164.74 1974.09,-164.45 1971.34,-164.13"/>
<polygon fill="midnightblue" stroke="midnightblue" points="3893.73,-213.21 3903.74,-209.75 3893.75,-206.21 3893.73,-213.21"/>
</g>
<!-- Node21 -->
<g id="node21" class="node">
<title>Node21</title>
<g id="a_node21"><a xlink:href="DripPattern_8cpp.html" target="_top" xlink:title=" ">
<polygon fill="none" stroke="black" points="1989,-134.5 1989,-164.5 2130,-164.5 2130,-134.5 1989,-134.5"/>
<text text-anchor="start" x="1997" y="-152.5" font-family="Helvetica,sans-Serif" font-size="10.00">VortexEngine/src/Patterns</text>
<text text-anchor="middle" x="2059.5" y="-141.5" font-family="Helvetica,sans-Serif" font-size="10.00">/Multi/DripPattern.cpp</text>
</a>
</g>
</g>
<!-- Node2&#45;&gt;Node21 -->
<g id="edge20" class="edge">
<title>Node2&#45;&gt;Node21</title>
<path fill="none" stroke="midnightblue" d="M3893.87,-209.66C3562.73,-208.17 2483.73,-200.65 2138.5,-165 2135.73,-164.71 2132.9,-164.38 2130.06,-164.02"/>
<polygon fill="midnightblue" stroke="midnightblue" points="3893.91,-213.16 3903.92,-209.7 3893.94,-206.16 3893.91,-213.16"/>
</g>
<!-- Node22 -->
<g id="node22" class="node">
<title>Node22</title>
<g id="a_node22"><a xlink:href="FillPattern_8cpp.html" target="_top" xlink:title=" ">
<polygon fill="none" stroke="black" points="2148,-134.5 2148,-164.5 2289,-164.5 2289,-134.5 2148,-134.5"/>
<text text-anchor="start" x="2156" y="-152.5" font-family="Helvetica,sans-Serif" font-size="10.00">VortexEngine/src/Patterns</text>
<text text-anchor="middle" x="2218.5" y="-141.5" font-family="Helvetica,sans-Serif" font-size="10.00">/Multi/FillPattern.cpp</text>
</a>
</g>
</g>
<!-- Node2&#45;&gt;Node22 -->
<g id="edge21" class="edge">
<title>Node2&#45;&gt;Node22</title>
<path fill="none" stroke="midnightblue" d="M3893.36,-209.39C3580.68,-207.14 2610.06,-197.64 2297.5,-165 2294.73,-164.71 2291.9,-164.38 2289.06,-164.01"/>
<polygon fill="midnightblue" stroke="midnightblue" points="3893.73,-212.89 3903.76,-209.47 3893.78,-205.89 3893.73,-212.89"/>
</g>
<!-- Node23 -->
<g id="node23" class="node">
<title>Node23</title>
<g id="a_node23"><a xlink:href="HueShiftPattern_8cpp.html" target="_top" xlink:title=" ">
<polygon fill="none" stroke="black" points="2307,-134.5 2307,-164.5 2450,-164.5 2450,-134.5 2307,-134.5"/>
<text text-anchor="start" x="2315" y="-152.5" font-family="Helvetica,sans-Serif" font-size="10.00">VortexEngine/src/Patterns</text>
<text text-anchor="middle" x="2378.5" y="-141.5" font-family="Helvetica,sans-Serif" font-size="10.00">/Multi/HueShiftPattern.cpp</text>
</a>
</g>
</g>
<!-- Node2&#45;&gt;Node23 -->
<g id="edge22" class="edge">
<title>Node2&#45;&gt;Node23</title>
<path fill="none" stroke="midnightblue" d="M3893.48,-209.05C3601.15,-205.89 2738.37,-194.3 2458.5,-165 2455.83,-164.72 2453.12,-164.4 2450.39,-164.05"/>
<polygon fill="midnightblue" stroke="midnightblue" points="3893.6,-212.55 3903.64,-209.15 3893.68,-205.55 3893.6,-212.55"/>
</g>
<!-- Node24 -->
<g id="node24" class="node">
<title>Node24</title>
<g id="a_node24"><a xlink:href="LighthousePattern_8cpp.html" target="_top" xlink:title=" ">
<polygon fill="none" stroke="black" points="2468,-134.5 2468,-164.5 2623,-164.5 2623,-134.5 2468,-134.5"/>
<text text-anchor="start" x="2476" y="-152.5" font-family="Helvetica,sans-Serif" font-size="10.00">VortexEngine/src/Patterns</text>
<text text-anchor="middle" x="2545.5" y="-141.5" font-family="Helvetica,sans-Serif" font-size="10.00">/Multi/LighthousePattern.cpp</text>
</a>
</g>
</g>
<!-- Node2&#45;&gt;Node24 -->
<g id="edge23" class="edge">
<title>Node2&#45;&gt;Node24</title>
<path fill="none" stroke="midnightblue" d="M3893.51,-208.46C3624.17,-203.97 2876.48,-189.59 2631.5,-165 2628.79,-164.73 2626.03,-164.42 2623.25,-164.09"/>
<polygon fill="midnightblue" stroke="midnightblue" points="3893.6,-211.97 3903.66,-208.63 3893.72,-204.97 3893.6,-211.97"/>
</g>
<!-- Node25 -->
<g id="node25" class="node">
<title>Node25</title>
<g id="a_node25"><a xlink:href="MeteorPattern_8cpp.html" target="_top" xlink:title=" ">
<polygon fill="none" stroke="black" points="2641,-134.5 2641,-164.5 2782,-164.5 2782,-134.5 2641,-134.5"/>
<text text-anchor="start" x="2649" y="-152.5" font-family="Helvetica,sans-Serif" font-size="10.00">VortexEngine/src/Patterns</text>
<text text-anchor="middle" x="2711.5" y="-141.5" font-family="Helvetica,sans-Serif" font-size="10.00">/Multi/MeteorPattern.cpp</text>
</a>
</g>
</g>
<!-- Node2&#45;&gt;Node25 -->
<g id="edge24" class="edge">
<title>Node2&#45;&gt;Node25</title>
<path fill="none" stroke="midnightblue" d="M3893.9,-208.13C3647.39,-203.11 3004.23,-188.15 2791.5,-165 2788.41,-164.66 2785.27,-164.28 2782.09,-163.86"/>
<polygon fill="midnightblue" stroke="midnightblue" points="3893.85,-211.63 3903.92,-208.33 3893.99,-204.63 3893.85,-211.63"/>
</g>
<!-- Node26 -->
<g id="node26" class="node">
<title>Node26</title>
<g id="a_node26"><a xlink:href="MultiLedPattern_8cpp.html" target="_top" xlink:title=" ">
<polygon fill="none" stroke="black" points="2800.5,-134.5 2800.5,-164.5 2944.5,-164.5 2944.5,-134.5 2800.5,-134.5"/>
<text text-anchor="start" x="2808.5" y="-152.5" font-family="Helvetica,sans-Serif" font-size="10.00">VortexEngine/src/Patterns</text>
<text text-anchor="middle" x="2872.5" y="-141.5" font-family="Helvetica,sans-Serif" font-size="10.00">/Multi/MultiLedPattern.cpp</text>
</a>
</g>
</g>
<!-- Node2&#45;&gt;Node26 -->
<g id="edge25" class="edge">
<title>Node2&#45;&gt;Node26</title>
<path fill="none" stroke="midnightblue" d="M3893.49,-210.11C3708.94,-209.35 3297.49,-203.07 2953.5,-165 2950.66,-164.69 2947.77,-164.33 2944.85,-163.95"/>
<polygon fill="midnightblue" stroke="midnightblue" points="3893.7,-213.61 3903.71,-210.15 3893.72,-206.61 3893.7,-213.61"/>
</g>
<!-- Node27 -->
<g id="node27" class="node">
<title>Node27</title>
<g id="a_node27"><a xlink:href="PulsishPattern_8cpp.html" target="_top" xlink:title=" ">
<polygon fill="none" stroke="black" points="2963,-134.5 2963,-164.5 3104,-164.5 3104,-134.5 2963,-134.5"/>
<text text-anchor="start" x="2971" y="-152.5" font-family="Helvetica,sans-Serif" font-size="10.00">VortexEngine/src/Patterns</text>
<text text-anchor="middle" x="3033.5" y="-141.5" font-family="Helvetica,sans-Serif" font-size="10.00">/Multi/PulsishPattern.cpp</text>
</a>
</g>
</g>
<!-- Node2&#45;&gt;Node27 -->
<g id="edge26" class="edge">
<title>Node2&#45;&gt;Node27</title>
<path fill="none" stroke="midnightblue" d="M3893.5,-209.07C3730.92,-206.6 3395.39,-197.63 3113.5,-165 3110.42,-164.64 3107.27,-164.24 3104.1,-163.8"/>
<polygon fill="midnightblue" stroke="midnightblue" points="3893.91,-212.57 3903.96,-209.22 3894.01,-205.57 3893.91,-212.57"/>
</g>
<!-- Node28 -->
<g id="node28" class="node">
<title>Node28</title>
<g id="a_node28"><a xlink:href="ChaserPattern_8cpp.html" target="_top" xlink:title=" ">
<polygon fill="none" stroke="black" points="3122.5,-134.5 3122.5,-164.5 3312.5,-164.5 3312.5,-134.5 3122.5,-134.5"/>
<text text-anchor="start" x="3130.5" y="-152.5" font-family="Helvetica,sans-Serif" font-size="10.00">VortexEngine/src/Patterns</text>
<text text-anchor="middle" x="3217.5" y="-141.5" font-family="Helvetica,sans-Serif" font-size="10.00">/Multi/Sequencer/ChaserPattern.cpp</text>
</a>
</g>
</g>
<!-- Node2&#45;&gt;Node28 -->
<g id="edge27" class="edge">
<title>Node2&#45;&gt;Node28</title>
<path fill="none" stroke="midnightblue" d="M3893.42,-205.61C3762.71,-199.26 3524.31,-185.92 3321.5,-165 3318.6,-164.7 3315.65,-164.38 3312.68,-164.05"/>
<polygon fill="midnightblue" stroke="midnightblue" points="3893.64,-209.13 3903.8,-206.11 3893.98,-202.13 3893.64,-209.13"/>
</g>
<!-- Node29 -->
<g id="node29" class="node">
<title>Node29</title>
<g id="a_node29"><a xlink:href="Sequence_8cpp.html" target="_top" xlink:title=" ">
<polygon fill="none" stroke="black" points="3331,-134.5 3331,-164.5 3500,-164.5 3500,-134.5 3331,-134.5"/>
<text text-anchor="start" x="3339" y="-152.5" font-family="Helvetica,sans-Serif" font-size="10.00">VortexEngine/src/Patterns</text>
<text text-anchor="middle" x="3415.5" y="-141.5" font-family="Helvetica,sans-Serif" font-size="10.00">/Multi/Sequencer/Sequence.cpp</text>
</a>
</g>
</g>
<!-- Node2&#45;&gt;Node29 -->
<g id="edge28" class="edge">
<title>Node2&#45;&gt;Node29</title>
<path fill="none" stroke="midnightblue" d="M3893.47,-202.65C3795.75,-194.91 3641.48,-181.55 3508.5,-165 3505.74,-164.66 3502.94,-164.3 3500.12,-163.92"/>
<polygon fill="midnightblue" stroke="midnightblue" points="3893.38,-206.16 3903.63,-203.45 3893.93,-199.18 3893.38,-206.16"/>
</g>
<!-- Node30 -->
<g id="node30" class="node">
<title>Node30</title>
<g id="a_node30"><a xlink:href="SequencedPattern_8cpp.html" target="_top" xlink:title=" ">
<polygon fill="none" stroke="black" points="3518,-134.5 3518,-164.5 3727,-164.5 3727,-134.5 3518,-134.5"/>
<text text-anchor="start" x="3526" y="-152.5" font-family="Helvetica,sans-Serif" font-size="10.00">VortexEngine/src/Patterns</text>
<text text-anchor="middle" x="3622.5" y="-141.5" font-family="Helvetica,sans-Serif" font-size="10.00">/Multi/Sequencer/SequencedPattern.cpp</text>
</a>
</g>
</g>
<!-- Node2&#45;&gt;Node30 -->
<g id="edge29" class="edge">
<title>Node2&#45;&gt;Node30</title>
<path fill="none" stroke="midnightblue" d="M3928.49,-199.84C3868.18,-190.12 3776.7,-175.36 3709.47,-164.52"/>
<polygon fill="midnightblue" stroke="midnightblue" points="3928.2,-203.34 3938.63,-201.48 3929.32,-196.43 3928.2,-203.34"/>
</g>
<!-- Node31 -->
<g id="node31" class="node">
<title>Node31</title>
<g id="a_node31"><a xlink:href="SnowballPattern_8cpp.html" target="_top" xlink:title=" ">
<polygon fill="none" stroke="black" points="3745.5,-134.5 3745.5,-164.5 3891.5,-164.5 3891.5,-134.5 3745.5,-134.5"/>
<text text-anchor="start" x="3753.5" y="-152.5" font-family="Helvetica,sans-Serif" font-size="10.00">VortexEngine/src/Patterns</text>
<text text-anchor="middle" x="3818.5" y="-141.5" font-family="Helvetica,sans-Serif" font-size="10.00">/Multi/SnowballPattern.cpp</text>
</a>
</g>
</g>
<!-- Node2&#45;&gt;Node31 -->
<g id="edge30" class="edge">
<title>Node2&#45;&gt;Node31</title>
<path fill="none" stroke="midnightblue" d="M3956.91,-198.1C3928.76,-188.42 3888.97,-174.74 3859.27,-164.52"/>
<polygon fill="midnightblue" stroke="midnightblue" points="3956.12,-201.53 3966.71,-201.48 3958.4,-194.91 3956.12,-201.53"/>
</g>
<!-- Node32 -->
<g id="node32" class="node">
<title>Node32</title>
<g id="a_node32"><a xlink:href="SparkleTracePattern_8cpp.html" target="_top" xlink:title=" ">
<polygon fill="none" stroke="black" points="3909.5,-134.5 3909.5,-164.5 4073.5,-164.5 4073.5,-134.5 3909.5,-134.5"/>
<text text-anchor="start" x="3917.5" y="-152.5" font-family="Helvetica,sans-Serif" font-size="10.00">VortexEngine/src/Patterns</text>
<text text-anchor="middle" x="3991.5" y="-141.5" font-family="Helvetica,sans-Serif" font-size="10.00">/Multi/SparkleTracePattern.cpp</text>
</a>
</g>
</g>
<!-- Node2&#45;&gt;Node32 -->
<g id="edge31" class="edge">
<title>Node2&#45;&gt;Node32</title>
<path fill="none" stroke="midnightblue" d="M3991.5,-191.23C3991.5,-182.59 3991.5,-172.5 3991.5,-164.52"/>
<polygon fill="midnightblue" stroke="midnightblue" points="3988,-191.48 3991.5,-201.48 3995,-191.48 3988,-191.48"/>
</g>
<!-- Node33 -->
<g id="node33" class="node">
<title>Node33</title>
<g id="a_node33"><a xlink:href="TheaterChasePattern_8cpp.html" target="_top" xlink:title=" ">
<polygon fill="none" stroke="black" points="4091.5,-134.5 4091.5,-164.5 4261.5,-164.5 4261.5,-134.5 4091.5,-134.5"/>
<text text-anchor="start" x="4099.5" y="-152.5" font-family="Helvetica,sans-Serif" font-size="10.00">VortexEngine/src/Patterns</text>
<text text-anchor="middle" x="4176.5" y="-141.5" font-family="Helvetica,sans-Serif" font-size="10.00">/Multi/TheaterChasePattern.cpp</text>
</a>
</g>
</g>
<!-- Node2&#45;&gt;Node33 -->
<g id="edge32" class="edge">
<title>Node2&#45;&gt;Node33</title>
<path fill="none" stroke="midnightblue" d="M4027.7,-198.36C4057.85,-188.66 4100.86,-174.83 4132.9,-164.52"/>
<polygon fill="midnightblue" stroke="midnightblue" points="4026.45,-195.08 4018.01,-201.48 4028.6,-201.75 4026.45,-195.08"/>
</g>
<!-- Node34 -->
<g id="node34" class="node">
<title>Node34</title>
<g id="a_node34"><a xlink:href="VortexPattern_8cpp.html" target="_top" xlink:title=" ">
<polygon fill="none" stroke="black" points="4280,-134.5 4280,-164.5 4421,-164.5 4421,-134.5 4280,-134.5"/>
<text text-anchor="start" x="4288" y="-152.5" font-family="Helvetica,sans-Serif" font-size="10.00">VortexEngine/src/Patterns</text>
<text text-anchor="middle" x="4350.5" y="-141.5" font-family="Helvetica,sans-Serif" font-size="10.00">/Multi/VortexPattern.cpp</text>
</a>
</g>
</g>
<!-- Node2&#45;&gt;Node34 -->
<g id="edge33" class="edge">
<title>Node2&#45;&gt;Node34</title>
<path fill="none" stroke="midnightblue" d="M4056.23,-199.92C4112.81,-191.03 4197.17,-177.56 4270.5,-165 4273.56,-164.48 4276.69,-163.93 4279.84,-163.38"/>
<polygon fill="midnightblue" stroke="midnightblue" points="4055.68,-196.47 4046.34,-201.48 4056.77,-203.38 4055.68,-196.47"/>
</g>
<!-- Node35 -->
<g id="node35" class="node">
<title>Node35</title>
<g id="a_node35"><a xlink:href="VortexWipePattern_8cpp.html" target="_top" xlink:title=" ">
<polygon fill="none" stroke="black" points="4439.5,-134.5 4439.5,-164.5 4597.5,-164.5 4597.5,-134.5 4439.5,-134.5"/>
<text text-anchor="start" x="4447.5" y="-152.5" font-family="Helvetica,sans-Serif" font-size="10.00">VortexEngine/src/Patterns</text>
<text text-anchor="middle" x="4518.5" y="-141.5" font-family="Helvetica,sans-Serif" font-size="10.00">/Multi/VortexWipePattern.cpp</text>
</a>
</g>
</g>
<!-- Node2&#45;&gt;Node35 -->
<g id="edge34" class="edge">
<title>Node2&#45;&gt;Node35</title>
<path fill="none" stroke="midnightblue" d="M4089.42,-201.61C4178.32,-193.6 4312.94,-180.47 4429.5,-165 4432.76,-164.57 4436.08,-164.11 4439.44,-163.63"/>
<polygon fill="midnightblue" stroke="midnightblue" points="4089,-198.13 4079.35,-202.51 4089.62,-205.11 4089,-198.13"/>
</g>
<!-- Node36 -->
<g id="node36" class="node">
<title>Node36</title>
<g id="a_node36"><a xlink:href="WarpPattern_8cpp.html" target="_top" xlink:title=" ">
<polygon fill="none" stroke="black" points="4616,-134.5 4616,-164.5 4757,-164.5 4757,-134.5 4616,-134.5"/>
<text text-anchor="start" x="4624" y="-152.5" font-family="Helvetica,sans-Serif" font-size="10.00">VortexEngine/src/Patterns</text>
<text text-anchor="middle" x="4686.5" y="-141.5" font-family="Helvetica,sans-Serif" font-size="10.00">/Multi/WarpPattern.cpp</text>
</a>
</g>
</g>
<!-- Node2&#45;&gt;Node36 -->
<g id="edge35" class="edge">
<title>Node2&#45;&gt;Node36</title>
<path fill="none" stroke="midnightblue" d="M4089.15,-206.06C4210.73,-200.42 4424.56,-188.08 4606.5,-165 4609.58,-164.61 4612.72,-164.18 4615.89,-163.72"/>
<polygon fill="midnightblue" stroke="midnightblue" points="4088.95,-202.57 4079.12,-206.52 4089.27,-209.56 4088.95,-202.57"/>
</g>
<!-- Node37 -->
<g id="node37" class="node">
<title>Node37</title>
<g id="a_node37"><a xlink:href="WarpWormPattern_8cpp.html" target="_top" xlink:title=" ">
<polygon fill="none" stroke="black" points="4775,-134.5 4775,-164.5 4930,-164.5 4930,-134.5 4775,-134.5"/>
<text text-anchor="start" x="4783" y="-152.5" font-family="Helvetica,sans-Serif" font-size="10.00">VortexEngine/src/Patterns</text>
<text text-anchor="middle" x="4852.5" y="-141.5" font-family="Helvetica,sans-Serif" font-size="10.00">/Multi/WarpWormPattern.cpp</text>
</a>
</g>
</g>
<!-- Node2&#45;&gt;Node37 -->
<g id="edge36" class="edge">
<title>Node2&#45;&gt;Node37</title>
<path fill="none" stroke="midnightblue" d="M4089.46,-207.67C4236.62,-203.4 4523.35,-192.14 4765.5,-165 4768.54,-164.66 4771.64,-164.28 4774.77,-163.88"/>
<polygon fill="midnightblue" stroke="midnightblue" points="4089,-204.18 4079.1,-207.96 4089.2,-211.17 4089,-204.18"/>
</g>
<!-- Node38 -->
<g id="node38" class="node">
<title>Node38</title>
<g id="a_node38"><a xlink:href="ZigzagPattern_8cpp.html" target="_top" xlink:title=" ">
<polygon fill="none" stroke="black" points="4948,-134.5 4948,-164.5 5089,-164.5 5089,-134.5 4948,-134.5"/>
<text text-anchor="start" x="4956" y="-152.5" font-family="Helvetica,sans-Serif" font-size="10.00">VortexEngine/src/Patterns</text>
<text text-anchor="middle" x="5018.5" y="-141.5" font-family="Helvetica,sans-Serif" font-size="10.00">/Multi/ZigzagPattern.cpp</text>
</a>
</g>
</g>
<!-- Node2&#45;&gt;Node38 -->
<g id="edge37" class="edge">
<title>Node2&#45;&gt;Node38</title>
<path fill="none" stroke="midnightblue" d="M4089.34,-209.59C4261.55,-207.93 4629.84,-200.15 4938.5,-165 4941.59,-164.65 4944.73,-164.25 4947.9,-163.82"/>
<polygon fill="midnightblue" stroke="midnightblue" points="4089.25,-206.09 4079.29,-209.68 4089.32,-213.09 4089.25,-206.09"/>
</g>
<!-- Node39 -->
<g id="node39" class="node">
<title>Node39</title>
<g id="a_node39"><a xlink:href="Pattern_8cpp.html" target="_top" xlink:title=" ">
<polygon fill="none" stroke="black" points="5107,-134.5 5107,-164.5 5248,-164.5 5248,-134.5 5107,-134.5"/>
<text text-anchor="start" x="5115" y="-152.5" font-family="Helvetica,sans-Serif" font-size="10.00">VortexEngine/src/Patterns</text>
<text text-anchor="middle" x="5177.5" y="-141.5" font-family="Helvetica,sans-Serif" font-size="10.00">/Pattern.cpp</text>
</a>
</g>
</g>
<!-- Node2&#45;&gt;Node39 -->
<g id="edge38" class="edge">
<title>Node2&#45;&gt;Node39</title>
<path fill="none" stroke="midnightblue" d="M4089.4,-210.56C4282.73,-210.67 4726.88,-205.93 5097.5,-165 5100.59,-164.66 5103.73,-164.27 5106.91,-163.84"/>
<polygon fill="midnightblue" stroke="midnightblue" points="4089.27,-207.06 4079.27,-210.55 4089.27,-214.06 4089.27,-207.06"/>
</g>
<!-- Node40 -->
<g id="node40" class="node">
<title>Node40</title>
<g id="a_node40"><a xlink:href="BasicPattern_8cpp.html" target="_top" xlink:title=" ">
<polygon fill="none" stroke="black" points="5266,-134.5 5266,-164.5 5407,-164.5 5407,-134.5 5266,-134.5"/>
<text text-anchor="start" x="5274" y="-152.5" font-family="Helvetica,sans-Serif" font-size="10.00">VortexEngine/src/Patterns</text>
<text text-anchor="middle" x="5336.5" y="-141.5" font-family="Helvetica,sans-Serif" font-size="10.00">/Single/BasicPattern.cpp</text>
</a>
</g>
</g>
<!-- Node2&#45;&gt;Node40 -->
<g id="edge39" class="edge">
<title>Node2&#45;&gt;Node40</title>
<path fill="none" stroke="midnightblue" d="M4089.37,-208.34C4345.4,-203.7 5030.78,-189.34 5256.5,-165 5259.59,-164.67 5262.74,-164.28 5265.91,-163.86"/>
<polygon fill="midnightblue" stroke="midnightblue" points="4089.27,-204.84 4079.34,-208.52 4089.4,-211.84 4089.27,-204.84"/>
</g>
<!-- Node41 -->
<g id="node41" class="node">
<title>Node41</title>
<g id="a_node41"><a xlink:href="BlendPattern_8cpp.html" target="_top" xlink:title=" ">
<polygon fill="none" stroke="black" points="5425,-134.5 5425,-164.5 5566,-164.5 5566,-134.5 5425,-134.5"/>
<text text-anchor="start" x="5433" y="-152.5" font-family="Helvetica,sans-Serif" font-size="10.00">VortexEngine/src/Patterns</text>
<text text-anchor="middle" x="5495.5" y="-141.5" font-family="Helvetica,sans-Serif" font-size="10.00">/Single/BlendPattern.cpp</text>
</a>
</g>
</g>
<!-- Node2&#45;&gt;Node41 -->
<g id="edge40" class="edge">
<title>Node2&#45;&gt;Node41</title>
<path fill="none" stroke="midnightblue" d="M4089.24,-208.79C4367.03,-205.06 5157.65,-192.29 5415.5,-165 5418.59,-164.67 5421.74,-164.3 5424.91,-163.88"/>
<polygon fill="midnightblue" stroke="midnightblue" points="4089.13,-205.29 4079.18,-208.93 4089.23,-212.29 4089.13,-205.29"/>
</g>
<!-- Node42 -->
<g id="node42" class="node">
<title>Node42</title>
<g id="a_node42"><a xlink:href="Serial_8cpp.html" target="_top" xlink:title=" ">
<polygon fill="none" stroke="black" points="5584,-134.5 5584,-164.5 5713,-164.5 5713,-134.5 5584,-134.5"/>
<text text-anchor="start" x="5592" y="-152.5" font-family="Helvetica,sans-Serif" font-size="10.00">VortexEngine/src/Serial</text>
<text text-anchor="middle" x="5648.5" y="-141.5" font-family="Helvetica,sans-Serif" font-size="10.00">/Serial.cpp</text>
</a>
</g>
</g>
<!-- Node2&#45;&gt;Node42 -->
<g id="edge41" class="edge">
<title>Node2&#45;&gt;Node42</title>
<path fill="none" stroke="midnightblue" d="M4089.58,-209.33C4388.4,-206.96 5284.71,-197.29 5574.5,-165 5577.49,-164.67 5580.54,-164.28 5583.62,-163.84"/>
<polygon fill="midnightblue" stroke="midnightblue" points="4089.18,-205.84 4079.21,-209.41 4089.23,-212.84 4089.18,-205.84"/>
</g>
<!-- Node43 -->
<g id="node43" class="node">
<title>Node43</title>
<g id="a_node43"><a xlink:href="Timer_8cpp.html" target="_top" xlink:title=" ">
<polygon fill="none" stroke="black" points="5731.5,-134.5 5731.5,-164.5 5857.5,-164.5 5857.5,-134.5 5731.5,-134.5"/>
<text text-anchor="start" x="5739.5" y="-152.5" font-family="Helvetica,sans-Serif" font-size="10.00">VortexEngine/src/Time</text>
<text text-anchor="middle" x="5794.5" y="-141.5" font-family="Helvetica,sans-Serif" font-size="10.00">/Timer.cpp</text>
</a>
</g>
</g>
<!-- Node2&#45;&gt;Node43 -->
<g id="edge42" class="edge">
<title>Node2&#45;&gt;Node43</title>
<path fill="none" stroke="midnightblue" d="M4089.07,-209.65C4405.56,-208.15 5401.65,-200.66 5721.5,-165 5724.71,-164.64 5727.99,-164.22 5731.29,-163.74"/>
<polygon fill="midnightblue" stroke="midnightblue" points="4088.98,-206.15 4079,-209.69 4089.02,-213.15 4088.98,-206.15"/>
</g>
<!-- Node44 -->
<g id="node44" class="node">
<title>Node44</title>
<g id="a_node44"><a xlink:href="VortexEngine_8cpp.html" target="_top" xlink:title=" ">
<polygon fill="none" stroke="black" points="5875.5,-140 5875.5,-159 6061.5,-159 6061.5,-140 5875.5,-140"/>
<text text-anchor="middle" x="5968.5" y="-147" font-family="Helvetica,sans-Serif" font-size="10.00">VortexEngine/src/VortexEngine.cpp</text>
</a>
</g>
</g>
<!-- Node2&#45;&gt;Node44 -->
<g id="edge43" class="edge">
<title>Node2&#45;&gt;Node44</title>
<path fill="none" stroke="midnightblue" d="M4089.37,-209.17C4423.27,-206.09 5516.22,-194 5866.5,-165 5882.99,-163.63 5900.88,-161.36 5917,-159.02"/>
<polygon fill="midnightblue" stroke="midnightblue" points="4089.21,-205.67 4079.24,-209.26 4089.27,-212.67 4089.21,-205.67"/>
</g>
<!-- Node45 -->
<g id="node45" class="node">
<title>Node45</title>
<g id="a_node45"><a xlink:href="IRReceiver_8cpp.html" target="_top" xlink:title=" ">
<polygon fill="none" stroke="black" points="6080,-134.5 6080,-164.5 6223,-164.5 6223,-134.5 6080,-134.5"/>
<text text-anchor="start" x="6088" y="-152.5" font-family="Helvetica,sans-Serif" font-size="10.00">VortexEngine/src/Wireless</text>
<text text-anchor="middle" x="6151.5" y="-141.5" font-family="Helvetica,sans-Serif" font-size="10.00">/IRReceiver.cpp</text>
</a>
</g>
</g>
<!-- Node2&#45;&gt;Node45 -->
<g id="edge44" class="edge">
<title>Node2&#45;&gt;Node45</title>
<path fill="none" stroke="midnightblue" d="M4089.3,-209.9C4446.32,-209.23 5678.88,-204.05 6070.5,-165 6073.49,-164.7 6076.53,-164.36 6079.59,-163.97"/>
<polygon fill="midnightblue" stroke="midnightblue" points="4089.24,-206.4 4079.25,-209.92 4089.25,-213.4 4089.24,-206.4"/>
</g>
<!-- Node2&#45;&gt;Node46 -->
<g id="edge45" class="edge">
<title>Node2&#45;&gt;Node46</title>
<path fill="none" stroke="midnightblue" d="M4089.4,-209.69C4617.38,-207.88 7114.03,-197.65 7456.5,-165 7459.49,-164.72 7462.53,-164.38 7465.6,-164"/>
<polygon fill="midnightblue" stroke="midnightblue" points="4089.14,-206.19 4079.16,-209.72 4089.17,-213.19 4089.14,-206.19"/>
</g>
<!-- Node2&#45;&gt;Node47 -->
<g id="edge46" class="edge">
<title>Node2&#45;&gt;Node47</title>
<path fill="none" stroke="midnightblue" d="M4089.48,-209.78C4508.07,-208.61 6129.58,-201.73 6231.5,-165 6252.33,-157.49 6249.79,-141.84 6270.5,-134 6353.87,-102.43 6965.17,-88.43 7168.18,-84.62"/>
<polygon fill="midnightblue" stroke="midnightblue" points="4089.22,-206.28 4079.23,-209.81 4089.24,-213.28 4089.22,-206.28"/>
</g>
<!-- Node48 -->
<g id="node48" class="node">
<title>Node48</title>
<g id="a_node48"><a xlink:href="VortexLib_8h.html" target="_top" xlink:title=" ">
<polygon fill="none" stroke="black" points="7317.5,-134.5 7317.5,-164.5 7447.5,-164.5 7447.5,-134.5 7317.5,-134.5"/>
<text text-anchor="start" x="7325.5" y="-152.5" font-family="Helvetica,sans-Serif" font-size="10.00">VortexEngine/VortexLib</text>
<text text-anchor="middle" x="7382.5" y="-141.5" font-family="Helvetica,sans-Serif" font-size="10.00">/VortexLib.h</text>
</a>
</g>
</g>
<!-- Node2&#45;&gt;Node48 -->
<g id="edge47" class="edge">
<title>Node2&#45;&gt;Node48</title>
<path fill="none" stroke="midnightblue" d="M4089.47,-210.18C4564.22,-210.8 6628.74,-210.79 7270.5,-165 7285.75,-163.91 7302.11,-162.14 7317.48,-160.2"/>
<polygon fill="midnightblue" stroke="midnightblue" points="4089.23,-206.68 4079.23,-210.16 4089.22,-213.68 4089.23,-206.68"/>
</g>
<!-- Node48&#45;&gt;Node47 -->
<g id="edge48" class="edge">
<title>Node48&#45;&gt;Node47</title>
<path fill="none" stroke="midnightblue" d="M7340.71,-130.27C7316.98,-119.92 7287.72,-107.15 7265.77,-97.58"/>
<polygon fill="midnightblue" stroke="midnightblue" points="7339.6,-133.61 7350.17,-134.4 7342.4,-127.19 7339.6,-133.61"/>
</g>
<!-- Node49 -->
<g id="node49" class="node">
<title>Node49</title>
<g id="a_node49"><a xlink:href="VortexCLI_8cpp.html" target="_top" xlink:title=" ">
<polygon fill="none" stroke="black" points="7364,-0.5 7364,-30.5 7495,-30.5 7495,-0.5 7364,-0.5"/>
<text text-anchor="start" x="7372" y="-18.5" font-family="Helvetica,sans-Serif" font-size="10.00">VortexEngine/VortexCLI</text>
<text text-anchor="middle" x="7429.5" y="-7.5" font-family="Helvetica,sans-Serif" font-size="10.00">/VortexCLI.cpp</text>
</a>
</g>
</g>
<!-- Node48&#45;&gt;Node49 -->
<g id="edge49" class="edge">
<title>Node48&#45;&gt;Node49</title>
<path fill="none" stroke="midnightblue" d="M7426.2,-129.11C7438.58,-121.33 7450.56,-111.05 7457.5,-98 7469.38,-75.68 7453.37,-47.31 7441.12,-30.61"/>
<polygon fill="midnightblue" stroke="midnightblue" points="7424.08,-126.3 7417.19,-134.34 7427.6,-132.35 7424.08,-126.3"/>
</g>
<!-- Node50 -->
<g id="node50" class="node">
<title>Node50</title>
<g id="a_node50"><a xlink:href="VortexCLI_8h.html" target="_top" xlink:title=" ">
<polygon fill="none" stroke="black" points="7317,-67.5 7317,-97.5 7448,-97.5 7448,-67.5 7317,-67.5"/>
<text text-anchor="start" x="7325" y="-85.5" font-family="Helvetica,sans-Serif" font-size="10.00">VortexEngine/VortexCLI</text>
<text text-anchor="middle" x="7382.5" y="-74.5" font-family="Helvetica,sans-Serif" font-size="10.00">/VortexCLI.h</text>
</a>
</g>
</g>
<!-- Node48&#45;&gt;Node50 -->
<g id="edge50" class="edge">
<title>Node48&#45;&gt;Node50</title>
<path fill="none" stroke="midnightblue" d="M7382.5,-124.11C7382.5,-115.15 7382.5,-105.32 7382.5,-97.58"/>
<polygon fill="midnightblue" stroke="midnightblue" points="7379,-124.4 7382.5,-134.4 7386,-124.4 7379,-124.4"/>
</g>
<!-- Node50&#45;&gt;Node49 -->
<g id="edge51" class="edge">
<title>Node50&#45;&gt;Node49</title>
<path fill="none" stroke="midnightblue" d="M7398.66,-59.16C7405.51,-49.68 7413.29,-38.92 7419.32,-30.58"/>
<polygon fill="midnightblue" stroke="midnightblue" points="7395.72,-57.24 7392.7,-67.4 7401.39,-61.34 7395.72,-57.24"/>
</g>
</g>
</svg>
