<?xml version="1.0" encoding="UTF-8" standalone="no"?>
<!DOCTYPE svg PUBLIC "-//W3C//DTD SVG 1.1//EN"
 "http://www.w3.org/Graphics/SVG/1.1/DTD/svg11.dtd">
<!-- Generated by graphviz version 2.43.0 (0)
 -->
<!-- Title: VortexEngine/src/Wireless/VLSender.cpp Pages: 1 -->
<!--zoomable 375 -->
<svg id="main" version="1.1" xmlns="http://www.w3.org/2000/svg" xmlns:xlink="http://www.w3.org/1999/xlink" xml:space="preserve" onload="init(evt)">
<style type="text/css"><![CDATA[
.edge:hover path { stroke: red; }
.edge:hover polygon { stroke: red; fill: red; }
]]></style>
<script type="text/javascript"><![CDATA[
var edges = document.getElementsByTagName('g');
if (edges && edges.length) {
  for (var i=0;i<edges.length;i++) {
    if (edges[i].id.substr(0,4)=='edge') {
      edges[i].setAttribute('class','edge');
    }
  }
}
]]></script>
        <defs>
                <circle id="rim" cx="0" cy="0" r="7"/>
                <circle id="rim2" cx="0" cy="0" r="3.5"/>
                <g id="zoomPlus">
                        <use xlink:href="#rim" fill="#404040">
                                <set attributeName="fill" to="#808080" begin="zoomplus.mouseover" end="zoomplus.mouseout"/>
                        </use>
                        <path d="M-4,0h8M0,-4v8" fill="none" stroke="white" stroke-width="1.5" pointer-events="none"/>
                </g>
                <g id="zoomMin">
                        <use xlink:href="#rim" fill="#404040">
                                <set attributeName="fill" to="#808080" begin="zoomminus.mouseover" end="zoomminus.mouseout"/>
                        </use>
                        <path d="M-4,0h8" fill="none" stroke="white" stroke-width="1.5" pointer-events="none"/>
                </g>
                <g id="dirArrow">
                        <path fill="none" stroke="white" stroke-width="1.5" d="M0,-3.0v7 M-2.5,-0.5L0,-3.0L2.5,-0.5"/>
                </g>
               <g id="resetDef">
                       <use xlink:href="#rim2" fill="#404040">
                               <set attributeName="fill" to="#808080" begin="reset.mouseover" end="reset.mouseout"/>
                       </use>
               </g>
        </defs>

<script type="text/javascript">
var viewWidth = 1021;
var viewHeight = 375;
var sectionId = 'dynsection-0';
</script>
<script xlink:href="svgpan.js"/>
<svg id="graph" class="graph">
<g id="viewport">
<title>VortexEngine/src/Wireless/VLSender.cpp</title>
<!-- Node1 -->
<g id="node1" class="node">
<title>Node1</title>
<g id="a_node1"><a xlink:title=" ">
<polygon fill="#bfbfbf" stroke="black" points="345,-336.5 345,-366.5 488,-366.5 488,-336.5 345,-336.5"/>
<text text-anchor="start" x="353" y="-354.5" font-family="Helvetica,sans-Serif" font-size="10.00">VortexEngine/src/Wireless</text>
<text text-anchor="middle" x="416.5" y="-343.5" font-family="Helvetica,sans-Serif" font-size="10.00">/VLSender.cpp</text>
</a>
</g>
</g>
<!-- Node2 -->
<g id="node2" class="node">
<title>Node2</title>
<g id="a_node2"><a xlink:href="VLSender_8h.html" target="_top" xlink:title=" ">
<polygon fill="none" stroke="black" points="561,-280.5 561,-299.5 632,-299.5 632,-280.5 561,-280.5"/>
<text text-anchor="middle" x="596.5" y="-287.5" font-family="Helvetica,sans-Serif" font-size="10.00">VLSender.h</text>
</a>
</g>
</g>
<!-- Node1&#45;&gt;Node2 -->
<g id="edge1" class="edge">
<title>Node1&#45;&gt;Node2</title>
<path fill="none" stroke="midnightblue" d="M459.16,-336.4C490.13,-326.16 531.55,-312.47 560.78,-302.81"/>
<polygon fill="midnightblue" stroke="midnightblue" points="562.17,-306.03 570.57,-299.57 559.98,-299.39 562.17,-306.03"/>
</g>
<!-- Node5 -->
<g id="node5" class="node">
<title>Node5</title>
<g id="a_node5"><a xlink:href="Log_8h.html" target="_top" xlink:title=" ">
<polygon fill="none" stroke="black" points="702.5,-168.5 702.5,-187.5 774.5,-187.5 774.5,-168.5 702.5,-168.5"/>
<text text-anchor="middle" x="738.5" y="-175.5" font-family="Helvetica,sans-Serif" font-size="10.00">../Log/Log.h</text>
</a>
</g>
</g>
<!-- Node1&#45;&gt;Node5 -->
<g id="edge37" class="edge">
<title>Node1&#45;&gt;Node5</title>
<path fill="none" stroke="midnightblue" d="M488.02,-346.62C534.7,-341.28 595.31,-328.83 641.5,-300 683.22,-273.96 714.79,-223.48 729.45,-196.69"/>
<polygon fill="midnightblue" stroke="midnightblue" points="732.63,-198.16 734.23,-187.68 726.45,-194.88 732.63,-198.16"/>
</g>
<!-- Node12 -->
<g id="node12" class="node">
<title>Node12</title>
<g id="a_node12"><a xlink:href="IRConfig_8h.html" target="_top" xlink:title=" ">
<polygon fill="none" stroke="black" points="327.5,-280.5 327.5,-299.5 393.5,-299.5 393.5,-280.5 327.5,-280.5"/>
<text text-anchor="middle" x="360.5" y="-287.5" font-family="Helvetica,sans-Serif" font-size="10.00">IRConfig.h</text>
</a>
</g>
</g>
<!-- Node1&#45;&gt;Node12 -->
<g id="edge15" class="edge">
<title>Node1&#45;&gt;Node12</title>
<path fill="none" stroke="midnightblue" d="M403.23,-336.4C394.92,-327.58 384.2,-316.18 375.58,-307.02"/>
<polygon fill="midnightblue" stroke="midnightblue" points="378.05,-304.54 368.65,-299.66 372.95,-309.34 378.05,-304.54"/>
</g>
<!-- Node13 -->
<g id="node13" class="node">
<title>Node13</title>
<g id="a_node13"><a xlink:href="TimeControl_8h.html" target="_top" xlink:title=" ">
<polygon fill="none" stroke="black" points="411.5,-280.5 411.5,-299.5 533.5,-299.5 533.5,-280.5 411.5,-280.5"/>
<text text-anchor="middle" x="472.5" y="-287.5" font-family="Helvetica,sans-Serif" font-size="10.00">../Time/TimeControl.h</text>
</a>
</g>
</g>
<!-- Node1&#45;&gt;Node13 -->
<g id="edge16" class="edge">
<title>Node1&#45;&gt;Node13</title>
<path fill="none" stroke="midnightblue" d="M429.77,-336.4C438.08,-327.58 448.8,-316.18 457.42,-307.02"/>
<polygon fill="midnightblue" stroke="midnightblue" points="460.05,-309.34 464.35,-299.66 454.95,-304.54 460.05,-309.34"/>
</g>
<!-- Node15 -->
<g id="node15" class="node">
<title>Node15</title>
<g id="a_node15"><a xlink:href="Leds_8h.html" target="_top" xlink:title=" ">
<polygon fill="none" stroke="black" points="388,-168.5 388,-187.5 471,-187.5 471,-168.5 388,-168.5"/>
<text text-anchor="middle" x="429.5" y="-175.5" font-family="Helvetica,sans-Serif" font-size="10.00">../Leds/Leds.h</text>
</a>
</g>
</g>
<!-- Node1&#45;&gt;Node15 -->
<g id="edge36" class="edge">
<title>Node1&#45;&gt;Node15</title>
<path fill="none" stroke="midnightblue" d="M378.85,-336.43C326.88,-314.87 243.34,-271.16 278.5,-224 301.17,-193.59 343.58,-182.92 377.7,-179.53"/>
<polygon fill="midnightblue" stroke="midnightblue" points="378.3,-182.99 387.99,-178.7 377.74,-176.01 378.3,-182.99"/>
</g>
<!-- Node18 -->
<g id="node18" class="node">
<title>Node18</title>
<g id="a_node18"><a xlink:href="Mode_8h.html" target="_top" xlink:title=" ">
<polygon fill="none" stroke="black" points="96,-280.5 96,-299.5 193,-299.5 193,-280.5 96,-280.5"/>
<text text-anchor="middle" x="144.5" y="-287.5" font-family="Helvetica,sans-Serif" font-size="10.00">../Modes/Mode.h</text>
</a>
</g>
</g>
<!-- Node1&#45;&gt;Node18 -->
<g id="edge31" class="edge">
<title>Node1&#45;&gt;Node18</title>
<path fill="none" stroke="midnightblue" d="M352.38,-336.47C303.72,-325.83 237.82,-311.41 193.36,-301.69"/>
<polygon fill="midnightblue" stroke="midnightblue" points="193.9,-298.22 183.39,-299.51 192.41,-305.06 193.9,-298.22"/>
</g>
<!-- Node3 -->
<g id="node3" class="node">
<title>Node3</title>
<g id="a_node3"><a xlink:href="ByteStream_8h.html" target="_top" xlink:title=" ">
<polygon fill="none" stroke="black" points="543,-224.5 543,-243.5 666,-243.5 666,-224.5 543,-224.5"/>
<text text-anchor="middle" x="604.5" y="-231.5" font-family="Helvetica,sans-Serif" font-size="10.00">../Serial/ByteStream.h</text>
</a>
</g>
</g>
<!-- Node2&#45;&gt;Node3 -->
<g id="edge2" class="edge">
<title>Node2&#45;&gt;Node3</title>
<path fill="none" stroke="midnightblue" d="M597.82,-280.08C598.88,-272.93 600.41,-262.64 601.73,-253.69"/>
<polygon fill="midnightblue" stroke="midnightblue" points="605.2,-254.16 603.2,-243.75 598.28,-253.13 605.2,-254.16"/>
</g>
<!-- Node10 -->
<g id="node10" class="node">
<title>Node10</title>
<g id="a_node10"><a xlink:href="BitStream_8h.html" target="_top" xlink:title=" ">
<polygon fill="none" stroke="black" points="287.5,-224.5 287.5,-243.5 401.5,-243.5 401.5,-224.5 287.5,-224.5"/>
<text text-anchor="middle" x="344.5" y="-231.5" font-family="Helvetica,sans-Serif" font-size="10.00">../Serial/BitStream.h</text>
</a>
</g>
</g>
<!-- Node2&#45;&gt;Node10 -->
<g id="edge11" class="edge">
<title>Node2&#45;&gt;Node10</title>
<path fill="none" stroke="midnightblue" d="M560.93,-281.38C517.39,-272.05 443.41,-256.2 394.25,-245.66"/>
<polygon fill="midnightblue" stroke="midnightblue" points="394.98,-242.24 384.46,-243.56 393.51,-249.08 394.98,-242.24"/>
</g>
<!-- Node11 -->
<g id="node11" class="node">
<title>Node11</title>
<g id="a_node11"><a xlink:href="VLConfig_8h.html" target="_top" xlink:title=" ">
<polygon fill="none" stroke="black" points="944.5,-168.5 944.5,-187.5 1012.5,-187.5 1012.5,-168.5 944.5,-168.5"/>
<text text-anchor="middle" x="978.5" y="-175.5" font-family="Helvetica,sans-Serif" font-size="10.00">VLConfig.h</text>
</a>
</g>
</g>
<!-- Node2&#45;&gt;Node11 -->
<g id="edge13" class="edge">
<title>Node2&#45;&gt;Node11</title>
<path fill="none" stroke="midnightblue" d="M632.2,-287.67C707.67,-284.31 880.59,-273.54 930.5,-244 948.75,-233.2 962.18,-212.5 970.12,-197.35"/>
<polygon fill="midnightblue" stroke="midnightblue" points="973.47,-198.46 974.73,-187.94 967.19,-195.38 973.47,-198.46"/>
</g>
<!-- Node4 -->
<g id="node4" class="node">
<title>Node4</title>
<g id="a_node4"><a xlink:title=" ">
<polygon fill="none" stroke="#bfbfbf" points="227,-56.5 227,-75.5 292,-75.5 292,-56.5 227,-56.5"/>
<text text-anchor="middle" x="259.5" y="-63.5" font-family="Helvetica,sans-Serif" font-size="10.00">inttypes.h</text>
</a>
</g>
</g>
<!-- Node3&#45;&gt;Node4 -->
<g id="edge3" class="edge">
<title>Node3&#45;&gt;Node4</title>
<path fill="none" stroke="midnightblue" d="M547.17,-224.49C490.74,-215.58 408.88,-201.1 379.5,-188 341.5,-171.06 333.38,-161.94 304.5,-132 290.54,-117.53 277.83,-98.35 269.5,-84.57"/>
<polygon fill="midnightblue" stroke="midnightblue" points="272.34,-82.5 264.26,-75.65 266.3,-86.04 272.34,-82.5"/>
</g>
<!-- Node3&#45;&gt;Node5 -->
<g id="edge4" class="edge">
<title>Node3&#45;&gt;Node5</title>
<path fill="none" stroke="midnightblue" d="M625.73,-224.44C647.88,-215.52 682.82,-201.44 707.94,-191.32"/>
<polygon fill="midnightblue" stroke="midnightblue" points="709.4,-194.5 717.37,-187.52 706.78,-188.01 709.4,-194.5"/>
</g>
<!-- Node6 -->
<g id="node6" class="node">
<title>Node6</title>
<g id="a_node6"><a xlink:title=" ">
<polygon fill="none" stroke="#bfbfbf" points="664.5,-112.5 664.5,-131.5 720.5,-131.5 720.5,-112.5 664.5,-112.5"/>
<text text-anchor="middle" x="692.5" y="-119.5" font-family="Helvetica,sans-Serif" font-size="10.00">stdarg.h</text>
</a>
</g>
</g>
<!-- Node5&#45;&gt;Node6 -->
<g id="edge5" class="edge">
<title>Node5&#45;&gt;Node6</title>
<path fill="none" stroke="midnightblue" d="M730.9,-168.08C724.27,-160.3 714.48,-148.8 706.44,-139.37"/>
<polygon fill="midnightblue" stroke="midnightblue" points="709.1,-137.09 699.95,-131.75 703.77,-141.63 709.1,-137.09"/>
</g>
<!-- Node7 -->
<g id="node7" class="node">
<title>Node7</title>
<g id="a_node7"><a xlink:href="VortexConfig_8h.html" target="_top" xlink:title=" ">
<polygon fill="none" stroke="black" points="588,-56.5 588,-75.5 685,-75.5 685,-56.5 588,-56.5"/>
<text text-anchor="middle" x="636.5" y="-63.5" font-family="Helvetica,sans-Serif" font-size="10.00">../VortexConfig.h</text>
</a>
</g>
</g>
<!-- Node5&#45;&gt;Node7 -->
<g id="edge6" class="edge">
<title>Node5&#45;&gt;Node7</title>
<path fill="none" stroke="midnightblue" d="M774.73,-171.37C819.3,-162.92 886,-144.39 859.5,-112 839.12,-87.09 754.32,-75.66 695.37,-70.64"/>
<polygon fill="midnightblue" stroke="midnightblue" points="695.31,-67.13 685.06,-69.81 694.74,-74.1 695.31,-67.13"/>
</g>
<!-- Node9 -->
<g id="node9" class="node">
<title>Node9</title>
<g id="a_node9"><a xlink:href="ErrorBlinker_8h.html" target="_top" xlink:title=" ">
<polygon fill="none" stroke="black" points="739,-112.5 739,-131.5 850,-131.5 850,-112.5 739,-112.5"/>
<text text-anchor="middle" x="794.5" y="-119.5" font-family="Helvetica,sans-Serif" font-size="10.00">../Log/ErrorBlinker.h</text>
</a>
</g>
</g>
<!-- Node5&#45;&gt;Node9 -->
<g id="edge8" class="edge">
<title>Node5&#45;&gt;Node9</title>
<path fill="none" stroke="midnightblue" d="M747.5,-168.32C755.69,-160.42 768.01,-148.55 777.97,-138.94"/>
<polygon fill="midnightblue" stroke="midnightblue" points="780.57,-141.29 785.34,-131.83 775.71,-136.26 780.57,-141.29"/>
</g>
<!-- Node8 -->
<g id="node8" class="node">
<title>Node8</title>
<g id="a_node8"><a xlink:href="ColorConstants_8h.html" target="_top" xlink:title=" ">
<polygon fill="none" stroke="black" points="511.5,-0.5 511.5,-19.5 645.5,-19.5 645.5,-0.5 511.5,-0.5"/>
<text text-anchor="middle" x="578.5" y="-7.5" font-family="Helvetica,sans-Serif" font-size="10.00">Colors/ColorConstants.h</text>
</a>
</g>
</g>
<!-- Node7&#45;&gt;Node8 -->
<g id="edge7" class="edge">
<title>Node7&#45;&gt;Node8</title>
<path fill="none" stroke="midnightblue" d="M627.18,-56.32C618.61,-48.34 605.69,-36.31 595.31,-26.65"/>
<polygon fill="midnightblue" stroke="midnightblue" points="597.69,-24.09 587.99,-19.83 592.92,-29.21 597.69,-24.09"/>
</g>
<!-- Node9&#45;&gt;Node4 -->
<g id="edge9" class="edge">
<title>Node9&#45;&gt;Node4</title>
<path fill="none" stroke="midnightblue" d="M738.85,-113.14C735.69,-112.74 732.56,-112.36 729.5,-112 572.18,-93.59 384.57,-77.33 302.03,-70.47"/>
<polygon fill="midnightblue" stroke="midnightblue" points="302.28,-66.98 292.03,-69.64 301.71,-73.95 302.28,-66.98"/>
</g>
<!-- Node9&#45;&gt;Node7 -->
<g id="edge10" class="edge">
<title>Node9&#45;&gt;Node7</title>
<path fill="none" stroke="midnightblue" d="M769.46,-112.44C742.88,-103.36 700.69,-88.94 670.98,-78.78"/>
<polygon fill="midnightblue" stroke="midnightblue" points="672.01,-75.44 661.42,-75.52 669.75,-82.06 672.01,-75.44"/>
</g>
<!-- Node10&#45;&gt;Node4 -->
<g id="edge12" class="edge">
<title>Node10&#45;&gt;Node4</title>
<path fill="none" stroke="midnightblue" d="M308.61,-224.41C287.63,-217.69 262.1,-206.34 245.5,-188 222.14,-162.19 215.67,-145.09 226.5,-112 229.99,-101.34 237.07,-91.12 243.79,-83.12"/>
<polygon fill="midnightblue" stroke="midnightblue" points="246.4,-85.44 250.48,-75.66 241.2,-80.76 246.4,-85.44"/>
</g>
<!-- Node11&#45;&gt;Node7 -->
<g id="edge14" class="edge">
<title>Node11&#45;&gt;Node7</title>
<path fill="none" stroke="midnightblue" d="M974.71,-168.1C968.05,-153.69 952.84,-125.49 930.5,-112 891.93,-88.7 769.29,-76.26 695.14,-70.69"/>
<polygon fill="midnightblue" stroke="midnightblue" points="695.24,-67.19 685.02,-69.95 694.73,-74.17 695.24,-67.19"/>
</g>
<!-- Node13&#45;&gt;Node4 -->
<g id="edge17" class="edge">
<title>Node13&#45;&gt;Node4</title>
<path fill="none" stroke="midnightblue" d="M420.78,-280.48C371.84,-271.81 302.42,-257.71 278.5,-244 248.77,-226.96 240.4,-218.86 225.5,-188 214.57,-165.36 219.28,-157.08 217.5,-132 216.87,-123.13 214.24,-120.27 217.5,-112 222.01,-100.55 230.97,-90.29 239.45,-82.47"/>
<polygon fill="midnightblue" stroke="midnightblue" points="241.97,-84.93 247.29,-75.76 237.41,-79.61 241.97,-84.93"/>
</g>
<!-- Node13&#45;&gt;Node7 -->
<g id="edge18" class="edge">
<title>Node13&#45;&gt;Node7</title>
<path fill="none" stroke="midnightblue" d="M529.63,-280.43C570.93,-273.26 627.66,-261.37 675.5,-244 771.63,-209.1 826.18,-221.03 876.5,-132 880.87,-124.26 882.18,-118.84 876.5,-112 853.93,-84.81 758.97,-73.95 695.48,-69.68"/>
<polygon fill="midnightblue" stroke="midnightblue" points="695.39,-66.17 685.18,-69.03 694.94,-73.15 695.39,-66.17"/>
</g>
<!-- Node14 -->
<g id="node14" class="node">
<title>Node14</title>
<g id="a_node14"><a xlink:href="LedTypes_8h.html" target="_top" xlink:title=" ">
<polygon fill="none" stroke="black" points="420,-224.5 420,-243.5 525,-243.5 525,-224.5 420,-224.5"/>
<text text-anchor="middle" x="472.5" y="-231.5" font-family="Helvetica,sans-Serif" font-size="10.00">../Leds/LedTypes.h</text>
</a>
</g>
</g>
<!-- Node13&#45;&gt;Node14 -->
<g id="edge19" class="edge">
<title>Node13&#45;&gt;Node14</title>
<path fill="none" stroke="midnightblue" d="M472.5,-280.08C472.5,-273.01 472.5,-262.86 472.5,-253.99"/>
<polygon fill="midnightblue" stroke="midnightblue" points="476,-253.75 472.5,-243.75 469,-253.75 476,-253.75"/>
</g>
<!-- Node14&#45;&gt;Node4 -->
<g id="edge20" class="edge">
<title>Node14&#45;&gt;Node4</title>
<path fill="none" stroke="midnightblue" d="M426.43,-224.44C373.97,-214.33 294.1,-197.65 283.5,-188 254.96,-162.01 254.71,-112.63 257.06,-85.69"/>
<polygon fill="midnightblue" stroke="midnightblue" points="260.55,-85.96 258.16,-75.64 253.6,-85.21 260.55,-85.96"/>
</g>
<!-- Node14&#45;&gt;Node6 -->
<g id="edge21" class="edge">
<title>Node14&#45;&gt;Node6</title>
<path fill="none" stroke="midnightblue" d="M523.08,-224.48C568.22,-216.12 630.23,-202.54 650.5,-188 666.84,-176.28 678.43,-156.04 685.24,-141.26"/>
<polygon fill="midnightblue" stroke="midnightblue" points="688.63,-142.22 689.35,-131.65 682.2,-139.47 688.63,-142.22"/>
</g>
<!-- Node14&#45;&gt;Node7 -->
<g id="edge30" class="edge">
<title>Node14&#45;&gt;Node7</title>
<path fill="none" stroke="midnightblue" d="M488.2,-224.28C515.02,-208.74 570.07,-173.92 604.5,-132 616.08,-117.9 624.81,-98.92 630.2,-85.11"/>
<polygon fill="midnightblue" stroke="midnightblue" points="633.49,-86.31 633.67,-75.72 626.92,-83.89 633.49,-86.31"/>
</g>
<!-- Node14&#45;&gt;Node15 -->
<g id="edge22" class="edge">
<title>Node14&#45;&gt;Node15</title>
<path fill="none" stroke="midnightblue" d="M465.4,-224.08C459.26,-216.38 450.23,-205.03 442.76,-195.65"/>
<polygon fill="midnightblue" stroke="midnightblue" points="445.44,-193.39 436.47,-187.75 439.96,-197.75 445.44,-193.39"/>
</g>
<!-- Node15&#45;&gt;Node4 -->
<g id="edge23" class="edge">
<title>Node15&#45;&gt;Node4</title>
<path fill="none" stroke="midnightblue" d="M407.36,-168.34C387.75,-160.23 358.7,-147.1 335.5,-132 313.16,-117.46 290.27,-96.97 275.53,-82.91"/>
<polygon fill="midnightblue" stroke="midnightblue" points="277.86,-80.28 268.24,-75.83 272.98,-85.31 277.86,-80.28"/>
</g>
<!-- Node15&#45;&gt;Node7 -->
<g id="edge28" class="edge">
<title>Node15&#45;&gt;Node7</title>
<path fill="none" stroke="midnightblue" d="M471.27,-170.91C502.92,-164.84 546.45,-153.24 579.5,-132 598.77,-119.62 615.31,-98.91 625.54,-84.19"/>
<polygon fill="midnightblue" stroke="midnightblue" points="628.68,-85.8 631.31,-75.54 622.85,-81.91 628.68,-85.8"/>
</g>
<!-- Node16 -->
<g id="node16" class="node">
<title>Node16</title>
<g id="a_node16"><a xlink:href="ColorTypes_8h.html" target="_top" xlink:title=" ">
<polygon fill="none" stroke="black" points="344.5,-112.5 344.5,-131.5 466.5,-131.5 466.5,-112.5 344.5,-112.5"/>
<text text-anchor="middle" x="405.5" y="-119.5" font-family="Helvetica,sans-Serif" font-size="10.00">../Colors/ColorTypes.h</text>
</a>
</g>
</g>
<!-- Node15&#45;&gt;Node16 -->
<g id="edge24" class="edge">
<title>Node15&#45;&gt;Node16</title>
<path fill="none" stroke="midnightblue" d="M425.54,-168.08C422.29,-160.77 417.58,-150.18 413.55,-141.1"/>
<polygon fill="midnightblue" stroke="midnightblue" points="416.65,-139.47 409.39,-131.75 410.25,-142.31 416.65,-139.47"/>
</g>
<!-- Node17 -->
<g id="node17" class="node">
<title>Node17</title>
<g id="a_node17"><a xlink:title=" ">
<polygon fill="none" stroke="#bfbfbf" points="523,-112.5 523,-131.5 570,-131.5 570,-112.5 523,-112.5"/>
<text text-anchor="middle" x="546.5" y="-119.5" font-family="Helvetica,sans-Serif" font-size="10.00">vector</text>
</a>
</g>
</g>
<!-- Node15&#45;&gt;Node17 -->
<g id="edge29" class="edge">
<title>Node15&#45;&gt;Node17</title>
<path fill="none" stroke="midnightblue" d="M448.04,-168.44C467.12,-159.64 497.07,-145.81 518.94,-135.72"/>
<polygon fill="midnightblue" stroke="midnightblue" points="520.43,-138.88 528.05,-131.52 517.5,-132.53 520.43,-138.88"/>
</g>
<!-- Node16&#45;&gt;Node4 -->
<g id="edge25" class="edge">
<title>Node16&#45;&gt;Node4</title>
<path fill="none" stroke="midnightblue" d="M382.37,-112.44C358.02,-103.44 319.49,-89.19 292.08,-79.05"/>
<polygon fill="midnightblue" stroke="midnightblue" points="293.12,-75.7 282.53,-75.52 290.69,-82.27 293.12,-75.7"/>
</g>
<!-- Node16&#45;&gt;Node7 -->
<g id="edge26" class="edge">
<title>Node16&#45;&gt;Node7</title>
<path fill="none" stroke="midnightblue" d="M442.1,-112.44C482.23,-103.06 546.7,-87.99 590.28,-77.8"/>
<polygon fill="midnightblue" stroke="midnightblue" points="591.13,-81.2 600.07,-75.52 589.53,-74.38 591.13,-81.2"/>
</g>
<!-- Node16&#45;&gt;Node8 -->
<g id="edge27" class="edge">
<title>Node16&#45;&gt;Node8</title>
<path fill="none" stroke="midnightblue" d="M419.08,-112.37C448.76,-93.49 519.7,-48.38 556.11,-25.24"/>
<polygon fill="midnightblue" stroke="midnightblue" points="558.43,-27.91 564.99,-19.59 554.67,-22 558.43,-27.91"/>
</g>
<!-- Node18&#45;&gt;Node7 -->
<g id="edge35" class="edge">
<title>Node18&#45;&gt;Node7</title>
<path fill="none" stroke="midnightblue" d="M160.07,-280.4C183.01,-267.79 227.32,-243.62 265.5,-224 315.71,-198.19 327.68,-190.38 379.5,-168 421.33,-149.93 433.82,-150.43 475.5,-132 493.32,-124.12 496.66,-119.83 514.5,-112 543.02,-99.48 576.24,-87.38 600.81,-78.89"/>
<polygon fill="midnightblue" stroke="midnightblue" points="602.11,-82.14 610.44,-75.59 599.84,-75.52 602.11,-82.14"/>
</g>
<!-- Node18&#45;&gt;Node14 -->
<g id="edge32" class="edge">
<title>Node18&#45;&gt;Node14</title>
<path fill="none" stroke="midnightblue" d="M193.25,-280.97C251.06,-271.46 347.52,-255.58 410.57,-245.2"/>
<polygon fill="midnightblue" stroke="midnightblue" points="411.47,-248.59 420.77,-243.52 410.34,-241.69 411.47,-248.59"/>
</g>
<!-- Node19 -->
<g id="node19" class="node">
<title>Node19</title>
<g id="a_node19"><a xlink:href="Patterns_8h.html" target="_top" xlink:title=" ">
<polygon fill="none" stroke="black" points="0,-168.5 0,-187.5 117,-187.5 117,-168.5 0,-168.5"/>
<text text-anchor="middle" x="58.5" y="-175.5" font-family="Helvetica,sans-Serif" font-size="10.00">../Patterns/Patterns.h</text>
</a>
</g>
</g>
<!-- Node18&#45;&gt;Node19 -->
<g id="edge33" class="edge">
<title>Node18&#45;&gt;Node19</title>
<path fill="none" stroke="midnightblue" d="M137.75,-280.37C123.5,-262.14 90.11,-219.43 71.54,-195.68"/>
<polygon fill="midnightblue" stroke="midnightblue" points="74.13,-193.31 65.22,-187.59 68.62,-197.63 74.13,-193.31"/>
</g>
<!-- Node19&#45;&gt;Node4 -->
<g id="edge34" class="edge">
<title>Node19&#45;&gt;Node4</title>
<path fill="none" stroke="midnightblue" d="M66.19,-168.23C78.66,-154.5 104.6,-127.86 131.5,-112 158.19,-96.26 191.25,-84.82 217.08,-77.41"/>
<polygon fill="midnightblue" stroke="midnightblue" points="218.25,-80.71 226.95,-74.67 216.38,-73.97 218.25,-80.71"/>
</g>
</g>
</svg>
        <g id="navigator" transform="translate(0 0)" fill="#404254">
                <rect fill="#f2f5e9" fill-opacity="0.5" stroke="#606060" stroke-width=".5" x="0" y="0" width="60" height="60"/>
                <use id="zoomplus" xlink:href="#zoomPlus" x="17" y="9" onmousedown="handleZoom(evt,'in')"/>
                <use id="zoomminus" xlink:href="#zoomMin" x="42" y="9" onmousedown="handleZoom(evt,'out')"/>
                <use id="reset" xlink:href="#resetDef" x="30" y="36" onmousedown="handleReset()"/>
                <g id="arrowUp" xlink:href="#dirArrow" transform="translate(30 24)" onmousedown="handlePan(0,-1)">
                  <use xlink:href="#rim" fill="#404040">
                        <set attributeName="fill" to="#808080" begin="arrowUp.mouseover" end="arrowUp.mouseout"/>
                  </use>
                  <path fill="none" stroke="white" stroke-width="1.5" d="M0,-3.0v7 M-2.5,-0.5L0,-3.0L2.5,-0.5"/>
                </g>
                <g id="arrowRight" xlink:href="#dirArrow" transform="rotate(90) translate(36 -43)" onmousedown="handlePan(1,0)">
                  <use xlink:href="#rim" fill="#404040">
                        <set attributeName="fill" to="#808080" begin="arrowRight.mouseover" end="arrowRight.mouseout"/>
                  </use>
                  <path fill="none" stroke="white" stroke-width="1.5" d="M0,-3.0v7 M-2.5,-0.5L0,-3.0L2.5,-0.5"/>
                </g>
                <g id="arrowDown" xlink:href="#dirArrow" transform="rotate(180) translate(-30 -48)" onmousedown="handlePan(0,1)">
                  <use xlink:href="#rim" fill="#404040">
                        <set attributeName="fill" to="#808080" begin="arrowDown.mouseover" end="arrowDown.mouseout"/>
                  </use>
                  <path fill="none" stroke="white" stroke-width="1.5" d="M0,-3.0v7 M-2.5,-0.5L0,-3.0L2.5,-0.5"/>
                </g>
                <g id="arrowLeft" xlink:href="#dirArrow" transform="rotate(270) translate(-36 17)" onmousedown="handlePan(-1,0)">
                  <use xlink:href="#rim" fill="#404040">
                        <set attributeName="fill" to="#808080" begin="arrowLeft.mouseover" end="arrowLeft.mouseout"/>
                  </use>
                  <path fill="none" stroke="white" stroke-width="1.5" d="M0,-3.0v7 M-2.5,-0.5L0,-3.0L2.5,-0.5"/>
                </g>
        </g>
        <svg viewBox="0 0 15 15" width="100%" height="30px" preserveAspectRatio="xMaxYMin meet">
         <g id="arrow_out" transform="scale(0.3 0.3)">
          <a xlink:href="VLSender_8cpp__incl_org.svg" target="_base">
           <rect id="button" ry="5" rx="5" y="6" x="6" height="38" width="38"
                fill="#f2f5e9" fill-opacity="0.5" stroke="#606060" stroke-width="1.0"/>
           <path id="arrow"
             d="M 11.500037,31.436501 C 11.940474,20.09759 22.043105,11.32322 32.158766,21.979434 L 37.068811,17.246167 C 37.068811,17.246167 37.088388,32 37.088388,32 L 22.160133,31.978069 C 22.160133,31.978069 26.997745,27.140456 26.997745,27.140456 C 18.528582,18.264221 13.291696,25.230495 11.500037,31.436501 z"
             style="fill:#404040;"/>
          </a>
         </g>
        </svg>
</svg>
