<?xml version="1.0" encoding="UTF-8" standalone="no"?>
<!DOCTYPE svg PUBLIC "-//W3C//DTD SVG 1.1//EN"
 "http://www.w3.org/Graphics/SVG/1.1/DTD/svg11.dtd">
<!-- Generated by graphviz version 2.43.0 (0)
 -->
<!-- Title: VortexEngine/src/Wireless/VLSender.cpp Pages: 1 -->
<svg width="909pt" height="319pt"
 viewBox="0.00 0.00 909.00 319.00" xmlns="http://www.w3.org/2000/svg" xmlns:xlink="http://www.w3.org/1999/xlink">
<g id="graph0" class="graph" transform="scale(1 1) rotate(0) translate(4 315)">
<title>VortexEngine/src/Wireless/VLSender.cpp</title>
<!-- Node1 -->
<g id="node1" class="node">
<title>Node1</title>
<g id="a_node1"><a xlink:title=" ">
<polygon fill="#bfbfbf" stroke="black" points="542.5,-280.5 542.5,-310.5 685.5,-310.5 685.5,-280.5 542.5,-280.5"/>
<text text-anchor="start" x="550.5" y="-298.5" font-family="Helvetica,sans-Serif" font-size="10.00">VortexEngine/src/Wireless</text>
<text text-anchor="middle" x="614" y="-287.5" font-family="Helvetica,sans-Serif" font-size="10.00">/VLSender.cpp</text>
</a>
</g>
</g>
<!-- Node2 -->
<g id="node2" class="node">
<title>Node2</title>
<g id="a_node2"><a xlink:href="VLSender_8h.html" target="_top" xlink:title=" ">
<polygon fill="none" stroke="black" points="278.5,-224.5 278.5,-243.5 349.5,-243.5 349.5,-224.5 278.5,-224.5"/>
<text text-anchor="middle" x="314" y="-231.5" font-family="Helvetica,sans-Serif" font-size="10.00">VLSender.h</text>
</a>
</g>
</g>
<!-- Node1&#45;&gt;Node2 -->
<g id="edge1" class="edge">
<title>Node1&#45;&gt;Node2</title>
<path fill="none" stroke="midnightblue" d="M543.28,-280.47C486.52,-269.22 408.49,-253.74 359.68,-244.06"/>
<polygon fill="midnightblue" stroke="midnightblue" points="360.21,-240.6 349.72,-242.08 358.85,-247.46 360.21,-240.6"/>
</g>
<!-- Node5 -->
<g id="node5" class="node">
<title>Node5</title>
<g id="a_node5"><a xlink:href="Log_8h.html" target="_top" xlink:title=" ">
<polygon fill="none" stroke="black" points="797,-112.5 797,-131.5 869,-131.5 869,-112.5 797,-112.5"/>
<text text-anchor="middle" x="833" y="-119.5" font-family="Helvetica,sans-Serif" font-size="10.00">../Log/Log.h</text>
</a>
</g>
</g>
<!-- Node1&#45;&gt;Node5 -->
<g id="edge36" class="edge">
<title>Node1&#45;&gt;Node5</title>
<path fill="none" stroke="midnightblue" d="M648.08,-280.38C667.92,-271.38 692.9,-258.68 713,-244 756.61,-212.17 799.02,-164.23 819.78,-139.33"/>
<polygon fill="midnightblue" stroke="midnightblue" points="822.54,-141.49 826.19,-131.54 817.13,-137.04 822.54,-141.49"/>
</g>
<!-- Node11 -->
<g id="node11" class="node">
<title>Node11</title>
<g id="a_node11"><a xlink:href="IRConfig_8h.html" target="_top" xlink:title=" ">
<polygon fill="none" stroke="black" points="835,-224.5 835,-243.5 901,-243.5 901,-224.5 835,-224.5"/>
<text text-anchor="middle" x="868" y="-231.5" font-family="Helvetica,sans-Serif" font-size="10.00">IRConfig.h</text>
</a>
</g>
</g>
<!-- Node1&#45;&gt;Node11 -->
<g id="edge12" class="edge">
<title>Node1&#45;&gt;Node11</title>
<path fill="none" stroke="midnightblue" d="M673.87,-280.47C720.35,-269.59 783.65,-254.76 825.15,-245.04"/>
<polygon fill="midnightblue" stroke="midnightblue" points="826.02,-248.43 834.95,-242.74 824.42,-241.61 826.02,-248.43"/>
</g>
<!-- Node12 -->
<g id="node12" class="node">
<title>Node12</title>
<g id="a_node12"><a xlink:href="TimeControl_8h.html" target="_top" xlink:title=" ">
<polygon fill="none" stroke="black" points="430,-168.5 430,-187.5 552,-187.5 552,-168.5 430,-168.5"/>
<text text-anchor="middle" x="491" y="-175.5" font-family="Helvetica,sans-Serif" font-size="10.00">../Time/TimeControl.h</text>
</a>
</g>
</g>
<!-- Node1&#45;&gt;Node12 -->
<g id="edge13" class="edge">
<title>Node1&#45;&gt;Node12</title>
<path fill="none" stroke="midnightblue" d="M598.92,-280.34C575.75,-258.58 531.57,-217.09 507.55,-194.54"/>
<polygon fill="midnightblue" stroke="midnightblue" points="509.92,-191.96 500.23,-187.67 505.13,-197.07 509.92,-191.96"/>
</g>
<!-- Node14 -->
<g id="node14" class="node">
<title>Node14</title>
<g id="a_node14"><a xlink:href="Mode_8h.html" target="_top" xlink:title=" ">
<polygon fill="none" stroke="black" points="606.5,-224.5 606.5,-243.5 703.5,-243.5 703.5,-224.5 606.5,-224.5"/>
<text text-anchor="middle" x="655" y="-231.5" font-family="Helvetica,sans-Serif" font-size="10.00">../Modes/Mode.h</text>
</a>
</g>
</g>
<!-- Node1&#45;&gt;Node14 -->
<g id="edge20" class="edge">
<title>Node1&#45;&gt;Node14</title>
<path fill="none" stroke="midnightblue" d="M623.72,-280.4C629.55,-271.93 637.02,-261.1 643.19,-252.14"/>
<polygon fill="midnightblue" stroke="midnightblue" points="646.24,-253.88 649.03,-243.66 640.48,-249.91 646.24,-253.88"/>
</g>
<!-- Node17 -->
<g id="node17" class="node">
<title>Node17</title>
<g id="a_node17"><a xlink:href="Leds_8h.html" target="_top" xlink:title=" ">
<polygon fill="none" stroke="black" points="100.5,-168.5 100.5,-187.5 183.5,-187.5 183.5,-168.5 100.5,-168.5"/>
<text text-anchor="middle" x="142" y="-175.5" font-family="Helvetica,sans-Serif" font-size="10.00">../Leds/Leds.h</text>
</a>
</g>
</g>
<!-- Node1&#45;&gt;Node17 -->
<g id="edge29" class="edge">
<title>Node1&#45;&gt;Node17</title>
<path fill="none" stroke="midnightblue" d="M542.43,-290.86C471.57,-285.68 360.68,-273.29 269,-244 229.88,-231.5 188.15,-207.92 163.61,-192.86"/>
<polygon fill="midnightblue" stroke="midnightblue" points="165.43,-189.87 155.09,-187.55 161.72,-195.81 165.43,-189.87"/>
</g>
<!-- Node3 -->
<g id="node3" class="node">
<title>Node3</title>
<g id="a_node3"><a xlink:href="ByteStream_8h.html" target="_top" xlink:title=" ">
<polygon fill="none" stroke="black" points="288.5,-168.5 288.5,-187.5 411.5,-187.5 411.5,-168.5 288.5,-168.5"/>
<text text-anchor="middle" x="350" y="-175.5" font-family="Helvetica,sans-Serif" font-size="10.00">../Serial/ByteStream.h</text>
</a>
</g>
</g>
<!-- Node2&#45;&gt;Node3 -->
<g id="edge2" class="edge">
<title>Node2&#45;&gt;Node3</title>
<path fill="none" stroke="midnightblue" d="M319.94,-224.08C324.98,-216.53 332.34,-205.49 338.51,-196.23"/>
<polygon fill="midnightblue" stroke="midnightblue" points="341.53,-198.01 344.17,-187.75 335.71,-194.13 341.53,-198.01"/>
</g>
<!-- Node9 -->
<g id="node9" class="node">
<title>Node9</title>
<g id="a_node9"><a xlink:href="BitStream_8h.html" target="_top" xlink:title=" ">
<polygon fill="none" stroke="black" points="0,-112.5 0,-131.5 114,-131.5 114,-112.5 0,-112.5"/>
<text text-anchor="middle" x="57" y="-119.5" font-family="Helvetica,sans-Serif" font-size="10.00">../Serial/BitStream.h</text>
</a>
</g>
</g>
<!-- Node2&#45;&gt;Node9 -->
<g id="edge8" class="edge">
<title>Node2&#45;&gt;Node9</title>
<path fill="none" stroke="midnightblue" d="M278.35,-229.55C223.1,-223.59 120.14,-209.88 91,-188 75.76,-176.56 66.72,-156.28 61.83,-141.4"/>
<polygon fill="midnightblue" stroke="midnightblue" points="65.17,-140.34 58.99,-131.73 58.45,-142.31 65.17,-140.34"/>
</g>
<!-- Node10 -->
<g id="node10" class="node">
<title>Node10</title>
<g id="a_node10"><a xlink:href="VLConfig_8h.html" target="_top" xlink:title=" ">
<polygon fill="none" stroke="black" points="202,-168.5 202,-187.5 270,-187.5 270,-168.5 202,-168.5"/>
<text text-anchor="middle" x="236" y="-175.5" font-family="Helvetica,sans-Serif" font-size="10.00">VLConfig.h</text>
</a>
</g>
</g>
<!-- Node2&#45;&gt;Node10 -->
<g id="edge10" class="edge">
<title>Node2&#45;&gt;Node10</title>
<path fill="none" stroke="midnightblue" d="M301.47,-224.32C289.41,-215.98 270.97,-203.21 256.73,-193.35"/>
<polygon fill="midnightblue" stroke="midnightblue" points="258.72,-190.47 248.5,-187.65 254.73,-196.22 258.72,-190.47"/>
</g>
<!-- Node4 -->
<g id="node4" class="node">
<title>Node4</title>
<g id="a_node4"><a xlink:title=" ">
<polygon fill="none" stroke="#bfbfbf" points="185.5,-56.5 185.5,-75.5 250.5,-75.5 250.5,-56.5 185.5,-56.5"/>
<text text-anchor="middle" x="218" y="-63.5" font-family="Helvetica,sans-Serif" font-size="10.00">inttypes.h</text>
</a>
</g>
</g>
<!-- Node3&#45;&gt;Node4 -->
<g id="edge3" class="edge">
<title>Node3&#45;&gt;Node4</title>
<path fill="none" stroke="midnightblue" d="M301.71,-168.48C263.91,-160.7 215.81,-148 204,-132 193.96,-118.4 199.99,-99.09 206.99,-85.05"/>
<polygon fill="midnightblue" stroke="midnightblue" points="210.26,-86.36 212.04,-75.92 204.14,-82.97 210.26,-86.36"/>
</g>
<!-- Node3&#45;&gt;Node5 -->
<g id="edge4" class="edge">
<title>Node3&#45;&gt;Node5</title>
<path fill="none" stroke="midnightblue" d="M411.57,-169.13C414.76,-168.74 417.92,-168.36 421,-168 553.57,-152.36 710.37,-135.75 786.66,-127.8"/>
<polygon fill="midnightblue" stroke="midnightblue" points="787.3,-131.25 796.88,-126.73 786.57,-124.29 787.3,-131.25"/>
</g>
<!-- Node6 -->
<g id="node6" class="node">
<title>Node6</title>
<g id="a_node6"><a xlink:title=" ">
<polygon fill="none" stroke="#bfbfbf" points="693,-56.5 693,-75.5 749,-75.5 749,-56.5 693,-56.5"/>
<text text-anchor="middle" x="721" y="-63.5" font-family="Helvetica,sans-Serif" font-size="10.00">stdarg.h</text>
</a>
</g>
</g>
<!-- Node5&#45;&gt;Node6 -->
<g id="edge5" class="edge">
<title>Node5&#45;&gt;Node6</title>
<path fill="none" stroke="midnightblue" d="M815.01,-112.32C796.96,-103.62 768.95,-90.12 748.2,-80.11"/>
<polygon fill="midnightblue" stroke="midnightblue" points="749.48,-76.84 738.95,-75.65 746.44,-83.15 749.48,-76.84"/>
</g>
<!-- Node7 -->
<g id="node7" class="node">
<title>Node7</title>
<g id="a_node7"><a xlink:href="VortexConfig_8h.html" target="_top" xlink:title=" ">
<polygon fill="none" stroke="black" points="425.5,-56.5 425.5,-75.5 522.5,-75.5 522.5,-56.5 425.5,-56.5"/>
<text text-anchor="middle" x="474" y="-63.5" font-family="Helvetica,sans-Serif" font-size="10.00">../VortexConfig.h</text>
</a>
</g>
</g>
<!-- Node5&#45;&gt;Node7 -->
<g id="edge6" class="edge">
<title>Node5&#45;&gt;Node7</title>
<path fill="none" stroke="midnightblue" d="M796.97,-114.37C792.28,-113.55 787.53,-112.74 783,-112 695.95,-97.83 594.74,-83.5 532.53,-74.93"/>
<polygon fill="midnightblue" stroke="midnightblue" points="532.9,-71.45 522.51,-73.55 531.94,-78.38 532.9,-71.45"/>
</g>
<!-- Node8 -->
<g id="node8" class="node">
<title>Node8</title>
<g id="a_node8"><a xlink:href="ColorConstants_8h.html" target="_top" xlink:title=" ">
<polygon fill="none" stroke="black" points="348,-0.5 348,-19.5 482,-19.5 482,-0.5 348,-0.5"/>
<text text-anchor="middle" x="415" y="-7.5" font-family="Helvetica,sans-Serif" font-size="10.00">Colors/ColorConstants.h</text>
</a>
</g>
</g>
<!-- Node7&#45;&gt;Node8 -->
<g id="edge7" class="edge">
<title>Node7&#45;&gt;Node8</title>
<path fill="none" stroke="midnightblue" d="M464.52,-56.32C455.8,-48.34 442.66,-36.31 432.1,-26.65"/>
<polygon fill="midnightblue" stroke="midnightblue" points="434.39,-24 424.65,-19.83 429.67,-29.17 434.39,-24"/>
</g>
<!-- Node9&#45;&gt;Node4 -->
<g id="edge9" class="edge">
<title>Node9&#45;&gt;Node4</title>
<path fill="none" stroke="midnightblue" d="M82.51,-112.44C109.6,-103.36 152.59,-88.94 182.87,-78.78"/>
<polygon fill="midnightblue" stroke="midnightblue" points="184.24,-82.01 192.61,-75.52 182.01,-75.38 184.24,-82.01"/>
</g>
<!-- Node10&#45;&gt;Node7 -->
<g id="edge11" class="edge">
<title>Node10&#45;&gt;Node7</title>
<path fill="none" stroke="midnightblue" d="M270.07,-169.01C299.28,-161.49 342.06,-148.86 377,-132 406,-118 436.36,-96.35 455.22,-81.93"/>
<polygon fill="midnightblue" stroke="midnightblue" points="457.52,-84.58 463.27,-75.69 453.22,-79.05 457.52,-84.58"/>
</g>
<!-- Node12&#45;&gt;Node4 -->
<g id="edge14" class="edge">
<title>Node12&#45;&gt;Node4</title>
<path fill="none" stroke="midnightblue" d="M434.24,-168.49C361.64,-157.38 244.34,-138.58 237,-132 224.02,-120.37 219.71,-100.42 218.37,-85.68"/>
<polygon fill="midnightblue" stroke="midnightblue" points="221.86,-85.45 217.83,-75.65 214.87,-85.82 221.86,-85.45"/>
</g>
<!-- Node12&#45;&gt;Node7 -->
<g id="edge15" class="edge">
<title>Node12&#45;&gt;Node7</title>
<path fill="none" stroke="midnightblue" d="M480.29,-168.3C471.06,-160.07 458.41,-146.79 453,-132 447.17,-116.05 454.43,-97.6 461.97,-84.44"/>
<polygon fill="midnightblue" stroke="midnightblue" points="464.97,-86.24 467.32,-75.9 459.04,-82.52 464.97,-86.24"/>
</g>
<!-- Node13 -->
<g id="node13" class="node">
<title>Node13</title>
<g id="a_node13"><a xlink:href="LedTypes_8h.html" target="_top" xlink:title=" ">
<polygon fill="none" stroke="black" points="462.5,-112.5 462.5,-131.5 567.5,-131.5 567.5,-112.5 462.5,-112.5"/>
<text text-anchor="middle" x="515" y="-119.5" font-family="Helvetica,sans-Serif" font-size="10.00">../Leds/LedTypes.h</text>
</a>
</g>
</g>
<!-- Node12&#45;&gt;Node13 -->
<g id="edge16" class="edge">
<title>Node12&#45;&gt;Node13</title>
<path fill="none" stroke="midnightblue" d="M494.96,-168.08C498.21,-160.77 502.92,-150.18 506.95,-141.1"/>
<polygon fill="midnightblue" stroke="midnightblue" points="510.25,-142.31 511.11,-131.75 503.85,-139.47 510.25,-142.31"/>
</g>
<!-- Node13&#45;&gt;Node4 -->
<g id="edge17" class="edge">
<title>Node13&#45;&gt;Node4</title>
<path fill="none" stroke="midnightblue" d="M467.94,-112.44C410.93,-102.08 315.72,-84.77 260.73,-74.77"/>
<polygon fill="midnightblue" stroke="midnightblue" points="261.08,-71.28 250.62,-72.93 259.83,-78.16 261.08,-71.28"/>
</g>
<!-- Node13&#45;&gt;Node6 -->
<g id="edge18" class="edge">
<title>Node13&#45;&gt;Node6</title>
<path fill="none" stroke="midnightblue" d="M547.64,-112.44C584.4,-102.81 644.07,-87.17 682.93,-76.98"/>
<polygon fill="midnightblue" stroke="midnightblue" points="684.03,-80.31 692.81,-74.39 682.25,-73.54 684.03,-80.31"/>
</g>
<!-- Node13&#45;&gt;Node7 -->
<g id="edge19" class="edge">
<title>Node13&#45;&gt;Node7</title>
<path fill="none" stroke="midnightblue" d="M508.23,-112.08C502.44,-104.46 493.94,-93.26 486.86,-83.94"/>
<polygon fill="midnightblue" stroke="midnightblue" points="489.48,-81.6 480.64,-75.75 483.9,-85.83 489.48,-81.6"/>
</g>
<!-- Node14&#45;&gt;Node7 -->
<g id="edge24" class="edge">
<title>Node14&#45;&gt;Node7</title>
<path fill="none" stroke="midnightblue" d="M679.61,-224.42C695.84,-217.35 715.91,-205.6 726,-188 742.81,-158.69 749.71,-137.89 728,-112 703.57,-82.87 599.82,-72.58 532.71,-68.96"/>
<polygon fill="midnightblue" stroke="midnightblue" points="532.84,-65.46 522.68,-68.45 532.49,-72.45 532.84,-65.46"/>
</g>
<!-- Node14&#45;&gt;Node13 -->
<g id="edge21" class="edge">
<title>Node14&#45;&gt;Node13</title>
<path fill="none" stroke="midnightblue" d="M644.01,-224.37C620.19,-205.65 563.56,-161.15 533.88,-137.83"/>
<polygon fill="midnightblue" stroke="midnightblue" points="535.96,-135.02 525.93,-131.59 531.64,-140.52 535.96,-135.02"/>
</g>
<!-- Node15 -->
<g id="node15" class="node">
<title>Node15</title>
<g id="a_node15"><a xlink:href="Patterns_8h.html" target="_top" xlink:title=" ">
<polygon fill="none" stroke="black" points="585.5,-112.5 585.5,-131.5 702.5,-131.5 702.5,-112.5 585.5,-112.5"/>
<text text-anchor="middle" x="644" y="-119.5" font-family="Helvetica,sans-Serif" font-size="10.00">../Patterns/Patterns.h</text>
</a>
</g>
</g>
<!-- Node14&#45;&gt;Node15 -->
<g id="edge22" class="edge">
<title>Node14&#45;&gt;Node15</title>
<path fill="none" stroke="midnightblue" d="M672.31,-224.31C692.94,-212.68 723.19,-190.87 711,-168 703.45,-153.83 689.24,-143.33 675.84,-136.06"/>
<polygon fill="midnightblue" stroke="midnightblue" points="677.3,-132.87 666.79,-131.53 674.17,-139.13 677.3,-132.87"/>
</g>
<!-- Node16 -->
<g id="node16" class="node">
<title>Node16</title>
<g id="a_node16"><a xlink:href="DefaultModes_8h.html" target="_top" xlink:title=" ">
<polygon fill="none" stroke="black" points="608,-168.5 608,-187.5 702,-187.5 702,-168.5 608,-168.5"/>
<text text-anchor="middle" x="655" y="-175.5" font-family="Helvetica,sans-Serif" font-size="10.00">DefaultModes.h</text>
</a>
</g>
</g>
<!-- Node14&#45;&gt;Node16 -->
<g id="edge25" class="edge">
<title>Node14&#45;&gt;Node16</title>
<path fill="none" stroke="midnightblue" d="M655,-224.08C655,-217.01 655,-206.86 655,-197.99"/>
<polygon fill="midnightblue" stroke="midnightblue" points="658.5,-197.75 655,-187.75 651.5,-197.75 658.5,-197.75"/>
</g>
<!-- Node15&#45;&gt;Node4 -->
<g id="edge23" class="edge">
<title>Node15&#45;&gt;Node4</title>
<path fill="none" stroke="midnightblue" d="M585.4,-113.22C582.22,-112.8 579.07,-112.4 576,-112 462.18,-97.31 327.93,-80.6 260.78,-72.28"/>
<polygon fill="midnightblue" stroke="midnightblue" points="260.94,-68.78 250.59,-71.02 260.08,-75.73 260.94,-68.78"/>
</g>
<!-- Node16&#45;&gt;Node7 -->
<g id="edge28" class="edge">
<title>Node16&#45;&gt;Node7</title>
<path fill="none" stroke="midnightblue" d="M672.4,-168.3C694.83,-155.96 729.05,-132.57 712,-112 689.67,-85.05 595.73,-74.12 532.76,-69.77"/>
<polygon fill="midnightblue" stroke="midnightblue" points="532.76,-66.26 522.55,-69.11 532.3,-73.25 532.76,-66.26"/>
</g>
<!-- Node16&#45;&gt;Node13 -->
<g id="edge27" class="edge">
<title>Node16&#45;&gt;Node13</title>
<path fill="none" stroke="midnightblue" d="M632.82,-168.44C609.57,-159.48 572.85,-145.31 546.58,-135.18"/>
<polygon fill="midnightblue" stroke="midnightblue" points="547.67,-131.85 537.08,-131.52 545.15,-138.38 547.67,-131.85"/>
</g>
<!-- Node16&#45;&gt;Node15 -->
<g id="edge26" class="edge">
<title>Node16&#45;&gt;Node15</title>
<path fill="none" stroke="midnightblue" d="M653.18,-168.08C651.73,-160.93 649.63,-150.64 647.81,-141.69"/>
<polygon fill="midnightblue" stroke="midnightblue" points="651.21,-140.85 645.78,-131.75 644.35,-142.25 651.21,-140.85"/>
</g>
<!-- Node17&#45;&gt;Node4 -->
<g id="edge30" class="edge">
<title>Node17&#45;&gt;Node4</title>
<path fill="none" stroke="midnightblue" d="M143.73,-168.36C146.66,-155.26 153.54,-130 166,-112 174.18,-100.19 186.15,-89.54 196.55,-81.57"/>
<polygon fill="midnightblue" stroke="midnightblue" points="198.79,-84.27 204.8,-75.54 194.66,-78.62 198.79,-84.27"/>
</g>
<!-- Node17&#45;&gt;Node13 -->
<g id="edge35" class="edge">
<title>Node17&#45;&gt;Node13</title>
<path fill="none" stroke="midnightblue" d="M183.73,-169.51C186.86,-168.99 189.98,-168.48 193,-168 282.97,-153.78 387.46,-139.61 452.41,-131.07"/>
<polygon fill="midnightblue" stroke="midnightblue" points="453.03,-134.52 462.49,-129.75 452.12,-127.58 453.03,-134.52"/>
</g>
<!-- Node18 -->
<g id="node18" class="node">
<title>Node18</title>
<g id="a_node18"><a xlink:href="ColorTypes_8h.html" target="_top" xlink:title=" ">
<polygon fill="none" stroke="black" points="246,-112.5 246,-131.5 368,-131.5 368,-112.5 246,-112.5"/>
<text text-anchor="middle" x="307" y="-119.5" font-family="Helvetica,sans-Serif" font-size="10.00">../Colors/ColorTypes.h</text>
</a>
</g>
</g>
<!-- Node17&#45;&gt;Node18 -->
<g id="edge31" class="edge">
<title>Node17&#45;&gt;Node18</title>
<path fill="none" stroke="midnightblue" d="M168.14,-168.44C196.02,-159.32 240.35,-144.81 271.4,-134.65"/>
<polygon fill="midnightblue" stroke="midnightblue" points="272.56,-137.95 280.98,-131.52 270.38,-131.3 272.56,-137.95"/>
</g>
<!-- Node18&#45;&gt;Node4 -->
<g id="edge32" class="edge">
<title>Node18&#45;&gt;Node4</title>
<path fill="none" stroke="midnightblue" d="M292.7,-112.32C278.82,-103.9 257.51,-90.97 241.2,-81.07"/>
<polygon fill="midnightblue" stroke="midnightblue" points="242.63,-77.85 232.26,-75.65 239,-83.83 242.63,-77.85"/>
</g>
<!-- Node18&#45;&gt;Node7 -->
<g id="edge33" class="edge">
<title>Node18&#45;&gt;Node7</title>
<path fill="none" stroke="midnightblue" d="M333.46,-112.44C361.68,-103.32 406.54,-88.81 437.97,-78.65"/>
<polygon fill="midnightblue" stroke="midnightblue" points="439.22,-81.92 447.66,-75.52 437.07,-75.26 439.22,-81.92"/>
</g>
<!-- Node18&#45;&gt;Node8 -->
<g id="edge34" class="edge">
<title>Node18&#45;&gt;Node8</title>
<path fill="none" stroke="midnightblue" d="M315.47,-112.37C333.61,-93.89 376.42,-50.29 399.54,-26.74"/>
<polygon fill="midnightblue" stroke="midnightblue" points="402.06,-29.18 406.56,-19.59 397.06,-24.28 402.06,-29.18"/>
</g>
</g>
</svg>
