<?xml version="1.0" encoding="UTF-8" standalone="no"?>
<!DOCTYPE svg PUBLIC "-//W3C//DTD SVG 1.1//EN"
 "http://www.w3.org/Graphics/SVG/1.1/DTD/svg11.dtd">
<!-- Generated by graphviz version 2.43.0 (0)
 -->
<!-- Title: VortexEngine/src/VortexEngine.cpp Pages: 1 -->
<svg width="1717pt" height="364pt"
 viewBox="0.00 0.00 1717.00 364.00" xmlns="http://www.w3.org/2000/svg" xmlns:xlink="http://www.w3.org/1999/xlink">
<g id="graph0" class="graph" transform="scale(1 1) rotate(0) translate(4 360)">
<title>VortexEngine/src/VortexEngine.cpp</title>
<!-- Node1 -->
<g id="node1" class="node">
<title>Node1</title>
<g id="a_node1"><a xlink:title=" ">
<polygon fill="#bfbfbf" stroke="black" points="729,-336.5 729,-355.5 915,-355.5 915,-336.5 729,-336.5"/>
<text text-anchor="middle" x="822" y="-343.5" font-family="Helvetica,sans-Serif" font-size="10.00">VortexEngine/src/VortexEngine.cpp</text>
</a>
</g>
</g>
<!-- Node2 -->
<g id="node2" class="node">
<title>Node2</title>
<g id="a_node2"><a xlink:href="VortexEngine_8h.html" target="_top" xlink:title=" ">
<polygon fill="none" stroke="black" points="1545,-112.5 1545,-131.5 1635,-131.5 1635,-112.5 1545,-112.5"/>
<text text-anchor="middle" x="1590" y="-119.5" font-family="Helvetica,sans-Serif" font-size="10.00">VortexEngine.h</text>
</a>
</g>
</g>
<!-- Node1&#45;&gt;Node2 -->
<g id="edge1" class="edge">
<title>Node1&#45;&gt;Node2</title>
<path fill="none" stroke="midnightblue" d="M915.39,-341.11C1007.73,-336.01 1152.7,-324.63 1276,-300 1359.83,-283.26 1380.72,-275.96 1460,-244 1510.88,-223.49 1534.69,-229.99 1570,-188 1581.03,-174.88 1585.98,-155.73 1588.2,-141.62"/>
<polygon fill="midnightblue" stroke="midnightblue" points="1591.69,-141.94 1589.46,-131.59 1584.74,-141.07 1591.69,-141.94"/>
</g>
<!-- Node6 -->
<g id="node6" class="node">
<title>Node6</title>
<g id="a_node6"><a xlink:href="IRReceiver_8h.html" target="_top" xlink:title=" ">
<polygon fill="none" stroke="black" points="497,-280.5 497,-299.5 619,-299.5 619,-280.5 497,-280.5"/>
<text text-anchor="middle" x="558" y="-287.5" font-family="Helvetica,sans-Serif" font-size="10.00">Wireless/IRReceiver.h</text>
</a>
</g>
</g>
<!-- Node1&#45;&gt;Node6 -->
<g id="edge5" class="edge">
<title>Node1&#45;&gt;Node6</title>
<path fill="none" stroke="midnightblue" d="M780.17,-336.44C733.92,-326.98 659.39,-311.74 609.56,-301.55"/>
<polygon fill="midnightblue" stroke="midnightblue" points="610.13,-298.09 599.64,-299.52 608.73,-304.95 610.13,-298.09"/>
</g>
<!-- Node8 -->
<g id="node8" class="node">
<title>Node8</title>
<g id="a_node8"><a xlink:href="IRConfig_8h.html" target="_top" xlink:title=" ">
<polygon fill="none" stroke="black" points="435,-224.5 435,-243.5 501,-243.5 501,-224.5 435,-224.5"/>
<text text-anchor="middle" x="468" y="-231.5" font-family="Helvetica,sans-Serif" font-size="10.00">IRConfig.h</text>
</a>
</g>
</g>
<!-- Node1&#45;&gt;Node8 -->
<g id="edge31" class="edge">
<title>Node1&#45;&gt;Node8</title>
<path fill="none" stroke="midnightblue" d="M728.87,-342.82C597.35,-338.76 370.28,-327.78 345,-300 339.02,-293.43 339.91,-287.29 345,-280 354.55,-266.34 393.51,-253.56 425.06,-245.14"/>
<polygon fill="midnightblue" stroke="midnightblue" points="426.2,-248.46 435,-242.56 424.44,-241.69 426.2,-248.46"/>
</g>
<!-- Node9 -->
<g id="node9" class="node">
<title>Node9</title>
<g id="a_node9"><a xlink:href="IRSender_8h.html" target="_top" xlink:title=" ">
<polygon fill="none" stroke="black" points="637.5,-280.5 637.5,-299.5 750.5,-299.5 750.5,-280.5 637.5,-280.5"/>
<text text-anchor="middle" x="694" y="-287.5" font-family="Helvetica,sans-Serif" font-size="10.00">Wireless/IRSender.h</text>
</a>
</g>
</g>
<!-- Node1&#45;&gt;Node9 -->
<g id="edge10" class="edge">
<title>Node1&#45;&gt;Node9</title>
<path fill="none" stroke="midnightblue" d="M801.72,-336.44C780.65,-327.56 747.48,-313.56 723.51,-303.45"/>
<polygon fill="midnightblue" stroke="midnightblue" points="724.76,-300.18 714.19,-299.52 722.04,-306.63 724.76,-300.18"/>
</g>
<!-- Node11 -->
<g id="node11" class="node">
<title>Node11</title>
<g id="a_node11"><a xlink:href="Log_8h.html" target="_top" xlink:title=" ">
<polygon fill="none" stroke="black" points="1021,-168.5 1021,-187.5 1093,-187.5 1093,-168.5 1021,-168.5"/>
<text text-anchor="middle" x="1057" y="-175.5" font-family="Helvetica,sans-Serif" font-size="10.00">../Log/Log.h</text>
</a>
</g>
</g>
<!-- Node1&#45;&gt;Node11 -->
<g id="edge76" class="edge">
<title>Node1&#45;&gt;Node11</title>
<path fill="none" stroke="midnightblue" d="M915.08,-339.39C985.93,-333.46 1076.2,-321.83 1106,-300 1135.04,-278.73 1151.92,-255.22 1134,-224 1125.38,-208.99 1109.61,-198.5 1094.57,-191.46"/>
<polygon fill="midnightblue" stroke="midnightblue" points="1095.94,-188.24 1085.37,-187.51 1093.18,-194.67 1095.94,-188.24"/>
</g>
<!-- Node14 -->
<g id="node14" class="node">
<title>Node14</title>
<g id="a_node14"><a xlink:href="VLReceiver_8h.html" target="_top" xlink:title=" ">
<polygon fill="none" stroke="black" points="353.5,-280.5 353.5,-299.5 478.5,-299.5 478.5,-280.5 353.5,-280.5"/>
<text text-anchor="middle" x="416" y="-287.5" font-family="Helvetica,sans-Serif" font-size="10.00">Wireless/VLReceiver.h</text>
</a>
</g>
</g>
<!-- Node1&#45;&gt;Node14 -->
<g id="edge21" class="edge">
<title>Node1&#45;&gt;Node14</title>
<path fill="none" stroke="midnightblue" d="M757.67,-336.44C684.48,-326.71 565.24,-310.85 488.74,-300.67"/>
<polygon fill="midnightblue" stroke="midnightblue" points="489.07,-297.19 478.7,-299.34 488.15,-304.13 489.07,-297.19"/>
</g>
<!-- Node15 -->
<g id="node15" class="node">
<title>Node15</title>
<g id="a_node15"><a xlink:href="VLConfig_8h.html" target="_top" xlink:title=" ">
<polygon fill="none" stroke="black" points="689,-224.5 689,-243.5 757,-243.5 757,-224.5 689,-224.5"/>
<text text-anchor="middle" x="723" y="-231.5" font-family="Helvetica,sans-Serif" font-size="10.00">VLConfig.h</text>
</a>
</g>
</g>
<!-- Node1&#45;&gt;Node15 -->
<g id="edge32" class="edge">
<title>Node1&#45;&gt;Node15</title>
<path fill="none" stroke="midnightblue" d="M814.23,-336.37C797.68,-317.97 758.7,-274.67 737.45,-251.05"/>
<polygon fill="midnightblue" stroke="midnightblue" points="740.02,-248.68 730.73,-243.59 734.82,-253.37 740.02,-248.68"/>
</g>
<!-- Node17 -->
<g id="node17" class="node">
<title>Node17</title>
<g id="a_node17"><a xlink:href="VLSender_8h.html" target="_top" xlink:title=" ">
<polygon fill="none" stroke="black" points="807,-280.5 807,-299.5 923,-299.5 923,-280.5 807,-280.5"/>
<text text-anchor="middle" x="865" y="-287.5" font-family="Helvetica,sans-Serif" font-size="10.00">Wireless/VLSender.h</text>
</a>
</g>
</g>
<!-- Node1&#45;&gt;Node17 -->
<g id="edge27" class="edge">
<title>Node1&#45;&gt;Node17</title>
<path fill="none" stroke="midnightblue" d="M829.1,-336.08C835.24,-328.38 844.27,-317.03 851.74,-307.65"/>
<polygon fill="midnightblue" stroke="midnightblue" points="854.54,-309.75 858.03,-299.75 849.06,-305.39 854.54,-309.75"/>
</g>
<!-- Node18 -->
<g id="node18" class="node">
<title>Node18</title>
<g id="a_node18"><a xlink:href="Storage_8h.html" target="_top" xlink:title=" ">
<polygon fill="none" stroke="black" points="75,-168.5 75,-187.5 179,-187.5 179,-168.5 75,-168.5"/>
<text text-anchor="middle" x="127" y="-175.5" font-family="Helvetica,sans-Serif" font-size="10.00">Storage/Storage.h</text>
</a>
</g>
</g>
<!-- Node1&#45;&gt;Node18 -->
<g id="edge33" class="edge">
<title>Node1&#45;&gt;Node18</title>
<path fill="none" stroke="midnightblue" d="M728.98,-345.13C553.66,-344.47 188.04,-338.45 146,-300 117.71,-274.13 119.84,-224.71 123.58,-197.72"/>
<polygon fill="midnightblue" stroke="midnightblue" points="127.06,-198.09 125.19,-187.66 120.15,-196.98 127.06,-198.09"/>
</g>
<!-- Node19 -->
<g id="node19" class="node">
<title>Node19</title>
<g id="a_node19"><a xlink:href="Buttons_8h.html" target="_top" xlink:title=" ">
<polygon fill="none" stroke="black" points="155,-280.5 155,-299.5 259,-299.5 259,-280.5 155,-280.5"/>
<text text-anchor="middle" x="207" y="-287.5" font-family="Helvetica,sans-Serif" font-size="10.00">Buttons/Buttons.h</text>
</a>
</g>
</g>
<!-- Node1&#45;&gt;Node19 -->
<g id="edge35" class="edge">
<title>Node1&#45;&gt;Node19</title>
<path fill="none" stroke="midnightblue" d="M728.6,-338.88C619.24,-331.36 432.71,-317.42 273,-300 271.74,-299.86 270.46,-299.72 269.18,-299.57"/>
<polygon fill="midnightblue" stroke="midnightblue" points="269.55,-296.09 259.21,-298.38 268.72,-303.04 269.55,-296.09"/>
</g>
<!-- Node21 -->
<g id="node21" class="node">
<title>Node21</title>
<g id="a_node21"><a xlink:href="TimeControl_8h.html" target="_top" xlink:title=" ">
<polygon fill="none" stroke="black" points="1447.5,-168.5 1447.5,-187.5 1560.5,-187.5 1560.5,-168.5 1447.5,-168.5"/>
<text text-anchor="middle" x="1504" y="-175.5" font-family="Helvetica,sans-Serif" font-size="10.00">Time/TimeControl.h</text>
</a>
</g>
</g>
<!-- Node1&#45;&gt;Node21 -->
<g id="edge38" class="edge">
<title>Node1&#45;&gt;Node21</title>
<path fill="none" stroke="midnightblue" d="M915.28,-336.54C1063.25,-321.96 1344.14,-289.26 1433,-244 1456.15,-232.21 1477.37,-210.76 1490.47,-195.74"/>
<polygon fill="midnightblue" stroke="midnightblue" points="1493.42,-197.66 1497.19,-187.76 1488.07,-193.15 1493.42,-197.66"/>
</g>
<!-- Node23 -->
<g id="node23" class="node">
<title>Node23</title>
<g id="a_node23"><a xlink:href="Timings_8h.html" target="_top" xlink:title=" ">
<polygon fill="none" stroke="black" points="1617,-224.5 1617,-243.5 1709,-243.5 1709,-224.5 1617,-224.5"/>
<text text-anchor="middle" x="1663" y="-231.5" font-family="Helvetica,sans-Serif" font-size="10.00">Time/Timings.h</text>
</a>
</g>
</g>
<!-- Node1&#45;&gt;Node23 -->
<g id="edge45" class="edge">
<title>Node1&#45;&gt;Node23</title>
<path fill="none" stroke="midnightblue" d="M915.11,-343.53C1108.81,-339.92 1542.26,-328.71 1603,-300 1624.62,-289.78 1642.13,-267.95 1652.54,-252.41"/>
<polygon fill="midnightblue" stroke="midnightblue" points="1655.66,-254.03 1658.07,-243.71 1649.75,-250.27 1655.66,-254.03"/>
</g>
<!-- Node24 -->
<g id="node24" class="node">
<title>Node24</title>
<g id="a_node24"><a xlink:href="Serial_8h.html" target="_top" xlink:title=" ">
<polygon fill="none" stroke="black" points="273,-168.5 273,-187.5 357,-187.5 357,-168.5 273,-168.5"/>
<text text-anchor="middle" x="315" y="-175.5" font-family="Helvetica,sans-Serif" font-size="10.00">Serial/Serial.h</text>
</a>
</g>
</g>
<!-- Node1&#45;&gt;Node24 -->
<g id="edge48" class="edge">
<title>Node1&#45;&gt;Node24</title>
<path fill="none" stroke="midnightblue" d="M728.78,-341.4C596.58,-335.54 367.13,-322.3 336,-300 304.47,-277.41 307.15,-225.82 311.34,-197.85"/>
<polygon fill="midnightblue" stroke="midnightblue" points="314.82,-198.23 313.07,-187.78 307.93,-197.04 314.82,-198.23"/>
</g>
<!-- Node25 -->
<g id="node25" class="node">
<title>Node25</title>
<g id="a_node25"><a xlink:href="Modes_8h.html" target="_top" xlink:title=" ">
<polygon fill="none" stroke="black" points="986.5,-280.5 986.5,-299.5 1079.5,-299.5 1079.5,-280.5 986.5,-280.5"/>
<text text-anchor="middle" x="1033" y="-287.5" font-family="Helvetica,sans-Serif" font-size="10.00">Modes/Modes.h</text>
</a>
</g>
</g>
<!-- Node1&#45;&gt;Node25 -->
<g id="edge50" class="edge">
<title>Node1&#45;&gt;Node25</title>
<path fill="none" stroke="midnightblue" d="M855.43,-336.44C891.86,-327.12 950.23,-312.18 990.03,-302"/>
<polygon fill="midnightblue" stroke="midnightblue" points="990.9,-305.39 999.72,-299.52 989.17,-298.61 990.9,-305.39"/>
</g>
<!-- Node28 -->
<g id="node28" class="node">
<title>Node28</title>
<g id="a_node28"><a xlink:href="Leds_8h.html" target="_top" xlink:title=" ">
<polygon fill="none" stroke="black" points="1187.5,-168.5 1187.5,-187.5 1270.5,-187.5 1270.5,-168.5 1187.5,-168.5"/>
<text text-anchor="middle" x="1229" y="-175.5" font-family="Helvetica,sans-Serif" font-size="10.00">../Leds/Leds.h</text>
</a>
</g>
</g>
<!-- Node1&#45;&gt;Node28 -->
<g id="edge75" class="edge">
<title>Node1&#45;&gt;Node28</title>
<path fill="none" stroke="midnightblue" d="M915.07,-338.91C992.3,-332.5 1095.07,-320.44 1131,-300 1174.13,-275.46 1205.79,-223.91 1220.26,-196.69"/>
<polygon fill="midnightblue" stroke="midnightblue" points="1223.49,-198.05 1224.95,-187.56 1217.27,-194.86 1223.49,-198.05"/>
</g>
<!-- Node29 -->
<g id="node29" class="node">
<title>Node29</title>
<g id="a_node29"><a xlink:href="MainMenu_8h.html" target="_top" xlink:title=" ">
<polygon fill="none" stroke="black" points="0,-112.5 0,-131.5 112,-131.5 112,-112.5 0,-112.5"/>
<text text-anchor="middle" x="56" y="-119.5" font-family="Helvetica,sans-Serif" font-size="10.00">Menus/MainMenu.h</text>
</a>
</g>
</g>
<!-- Node1&#45;&gt;Node29 -->
<g id="edge64" class="edge">
<title>Node1&#45;&gt;Node29</title>
<path fill="none" stroke="midnightblue" d="M728.8,-343.85C551.43,-340.94 178.52,-331.16 129,-300 73.93,-265.35 60.4,-180.2 57.08,-142.04"/>
<polygon fill="midnightblue" stroke="midnightblue" points="60.55,-141.54 56.34,-131.81 53.57,-142.04 60.55,-141.54"/>
</g>
<!-- Node30 -->
<g id="node30" class="node">
<title>Node30</title>
<g id="a_node30"><a xlink:href="Menus_8h.html" target="_top" xlink:title=" ">
<polygon fill="none" stroke="black" points="1031.5,-224.5 1031.5,-243.5 1124.5,-243.5 1124.5,-224.5 1031.5,-224.5"/>
<text text-anchor="middle" x="1078" y="-231.5" font-family="Helvetica,sans-Serif" font-size="10.00">Menus/Menus.h</text>
</a>
</g>
</g>
<!-- Node1&#45;&gt;Node30 -->
<g id="edge66" class="edge">
<title>Node1&#45;&gt;Node30</title>
<path fill="none" stroke="midnightblue" d="M915.25,-341.73C983.12,-337.16 1066.84,-326.2 1089,-300 1099.94,-287.06 1094.55,-267.34 1088.05,-253.02"/>
<polygon fill="midnightblue" stroke="midnightblue" points="1090.98,-251.06 1083.35,-243.72 1084.74,-254.22 1090.98,-251.06"/>
</g>
<!-- Node31 -->
<g id="node31" class="node">
<title>Node31</title>
<g id="a_node31"><a xlink:href="Mode_8h.html" target="_top" xlink:title=" ">
<polygon fill="none" stroke="black" points="905.5,-168.5 905.5,-187.5 1002.5,-187.5 1002.5,-168.5 905.5,-168.5"/>
<text text-anchor="middle" x="954" y="-175.5" font-family="Helvetica,sans-Serif" font-size="10.00">../Modes/Mode.h</text>
</a>
</g>
</g>
<!-- Node1&#45;&gt;Node31 -->
<g id="edge74" class="edge">
<title>Node1&#45;&gt;Node31</title>
<path fill="none" stroke="midnightblue" d="M869.79,-336.44C891.89,-330.05 916.6,-318.99 932,-300 955.89,-270.53 957.22,-223.67 955.79,-197.76"/>
<polygon fill="midnightblue" stroke="midnightblue" points="959.28,-197.47 955.04,-187.76 952.3,-197.99 959.28,-197.47"/>
</g>
<!-- Node3 -->
<g id="node3" class="node">
<title>Node3</title>
<g id="a_node3"><a xlink:title=" ">
<polygon fill="none" stroke="#bfbfbf" points="612.5,-56.5 612.5,-75.5 677.5,-75.5 677.5,-56.5 612.5,-56.5"/>
<text text-anchor="middle" x="645" y="-63.5" font-family="Helvetica,sans-Serif" font-size="10.00">inttypes.h</text>
</a>
</g>
</g>
<!-- Node2&#45;&gt;Node3 -->
<g id="edge2" class="edge">
<title>Node2&#45;&gt;Node3</title>
<path fill="none" stroke="midnightblue" d="M1544.63,-116.42C1528.36,-114.87 1509.87,-113.23 1493,-112 1184.75,-89.53 812.68,-73.68 688.03,-68.68"/>
<polygon fill="midnightblue" stroke="midnightblue" points="687.9,-65.17 677.77,-68.27 687.62,-72.17 687.9,-65.17"/>
</g>
<!-- Node4 -->
<g id="node4" class="node">
<title>Node4</title>
<g id="a_node4"><a xlink:href="VortexConfig_8h.html" target="_top" xlink:title=" ">
<polygon fill="none" stroke="black" points="1236,-56.5 1236,-75.5 1324,-75.5 1324,-56.5 1236,-56.5"/>
<text text-anchor="middle" x="1280" y="-63.5" font-family="Helvetica,sans-Serif" font-size="10.00">VortexConfig.h</text>
</a>
</g>
</g>
<!-- Node2&#45;&gt;Node4 -->
<g id="edge3" class="edge">
<title>Node2&#45;&gt;Node4</title>
<path fill="none" stroke="midnightblue" d="M1544.92,-113.15C1489.05,-103.41 1393.9,-86.84 1334.13,-76.43"/>
<polygon fill="midnightblue" stroke="midnightblue" points="1334.58,-72.95 1324.13,-74.69 1333.38,-79.85 1334.58,-72.95"/>
</g>
<!-- Node5 -->
<g id="node5" class="node">
<title>Node5</title>
<g id="a_node5"><a xlink:href="ColorConstants_8h.html" target="_top" xlink:title=" ">
<polygon fill="none" stroke="black" points="1249,-0.5 1249,-19.5 1383,-19.5 1383,-0.5 1249,-0.5"/>
<text text-anchor="middle" x="1316" y="-7.5" font-family="Helvetica,sans-Serif" font-size="10.00">Colors/ColorConstants.h</text>
</a>
</g>
</g>
<!-- Node4&#45;&gt;Node5 -->
<g id="edge4" class="edge">
<title>Node4&#45;&gt;Node5</title>
<path fill="none" stroke="midnightblue" d="M1285.94,-56.08C1290.98,-48.53 1298.34,-37.49 1304.51,-28.23"/>
<polygon fill="midnightblue" stroke="midnightblue" points="1307.53,-30.01 1310.17,-19.75 1301.71,-26.13 1307.53,-30.01"/>
</g>
<!-- Node6&#45;&gt;Node3 -->
<g id="edge6" class="edge">
<title>Node6&#45;&gt;Node3</title>
<path fill="none" stroke="midnightblue" d="M555.52,-280.47C553.04,-271.48 549.41,-256.89 548,-244 541.38,-183.67 547.59,-161.29 583,-112 592.3,-99.05 606.49,-88.36 618.95,-80.65"/>
<polygon fill="midnightblue" stroke="midnightblue" points="620.76,-83.65 627.62,-75.58 617.22,-77.61 620.76,-83.65"/>
</g>
<!-- Node7 -->
<g id="node7" class="node">
<title>Node7</title>
<g id="a_node7"><a xlink:href="BitStream_8h.html" target="_top" xlink:title=" ">
<polygon fill="none" stroke="black" points="557,-224.5 557,-243.5 671,-243.5 671,-224.5 557,-224.5"/>
<text text-anchor="middle" x="614" y="-231.5" font-family="Helvetica,sans-Serif" font-size="10.00">../Serial/BitStream.h</text>
</a>
</g>
</g>
<!-- Node6&#45;&gt;Node7 -->
<g id="edge7" class="edge">
<title>Node6&#45;&gt;Node7</title>
<path fill="none" stroke="midnightblue" d="M567,-280.32C575.19,-272.42 587.51,-260.55 597.47,-250.94"/>
<polygon fill="midnightblue" stroke="midnightblue" points="600.07,-253.29 604.84,-243.83 595.21,-248.26 600.07,-253.29"/>
</g>
<!-- Node6&#45;&gt;Node8 -->
<g id="edge9" class="edge">
<title>Node6&#45;&gt;Node8</title>
<path fill="none" stroke="midnightblue" d="M543.54,-280.32C529.5,-271.9 507.95,-258.97 491.46,-249.07"/>
<polygon fill="midnightblue" stroke="midnightblue" points="492.8,-245.8 482.42,-243.65 489.2,-251.8 492.8,-245.8"/>
</g>
<!-- Node7&#45;&gt;Node3 -->
<g id="edge8" class="edge">
<title>Node7&#45;&gt;Node3</title>
<path fill="none" stroke="midnightblue" d="M609.2,-224.35C598.52,-203.86 575.1,-151.17 593,-112 598.78,-99.36 610.05,-88.91 620.63,-81.27"/>
<polygon fill="midnightblue" stroke="midnightblue" points="622.85,-84 629.22,-75.53 618.96,-78.18 622.85,-84"/>
</g>
<!-- Node9&#45;&gt;Node7 -->
<g id="edge19" class="edge">
<title>Node9&#45;&gt;Node7</title>
<path fill="none" stroke="midnightblue" d="M681.15,-280.32C668.78,-271.98 649.87,-259.21 635.26,-249.35"/>
<polygon fill="midnightblue" stroke="midnightblue" points="637.07,-246.35 626.82,-243.65 633.15,-252.15 637.07,-246.35"/>
</g>
<!-- Node9&#45;&gt;Node8 -->
<g id="edge20" class="edge">
<title>Node9&#45;&gt;Node8</title>
<path fill="none" stroke="midnightblue" d="M658.19,-280.44C618.21,-270.89 553.52,-255.43 510.88,-245.24"/>
<polygon fill="midnightblue" stroke="midnightblue" points="511.61,-241.82 501.07,-242.9 509.98,-248.63 511.61,-241.82"/>
</g>
<!-- Node10 -->
<g id="node10" class="node">
<title>Node10</title>
<g id="a_node10"><a xlink:href="ByteStream_8h.html" target="_top" xlink:title=" ">
<polygon fill="none" stroke="black" points="775.5,-224.5 775.5,-243.5 898.5,-243.5 898.5,-224.5 775.5,-224.5"/>
<text text-anchor="middle" x="837" y="-231.5" font-family="Helvetica,sans-Serif" font-size="10.00">../Serial/ByteStream.h</text>
</a>
</g>
</g>
<!-- Node9&#45;&gt;Node10 -->
<g id="edge11" class="edge">
<title>Node9&#45;&gt;Node10</title>
<path fill="none" stroke="midnightblue" d="M716.66,-280.44C740.4,-271.48 777.91,-257.31 804.74,-247.18"/>
<polygon fill="midnightblue" stroke="midnightblue" points="806.33,-250.32 814.45,-243.52 803.86,-243.77 806.33,-250.32"/>
</g>
<!-- Node10&#45;&gt;Node3 -->
<g id="edge12" class="edge">
<title>Node10&#45;&gt;Node3</title>
<path fill="none" stroke="midnightblue" d="M788.34,-224.4C739.02,-212.82 665.24,-186.93 631,-132 622.06,-117.65 627.93,-98.45 634.59,-84.64"/>
<polygon fill="midnightblue" stroke="midnightblue" points="637.75,-86.15 639.38,-75.68 631.58,-82.85 637.75,-86.15"/>
</g>
<!-- Node10&#45;&gt;Node11 -->
<g id="edge13" class="edge">
<title>Node10&#45;&gt;Node11</title>
<path fill="none" stroke="midnightblue" d="M871.86,-224.44C909.92,-215.1 970.96,-200.12 1012.46,-189.93"/>
<polygon fill="midnightblue" stroke="midnightblue" points="1013.43,-193.3 1022.3,-187.52 1011.76,-186.5 1013.43,-193.3"/>
</g>
<!-- Node11&#45;&gt;Node4 -->
<g id="edge15" class="edge">
<title>Node11&#45;&gt;Node4</title>
<path fill="none" stroke="midnightblue" d="M1068.76,-168.33C1087.26,-154.98 1124.6,-129.12 1159,-112 1185.98,-98.57 1218.01,-86.84 1242.33,-78.72"/>
<polygon fill="midnightblue" stroke="midnightblue" points="1243.5,-82.02 1251.91,-75.57 1241.32,-75.37 1243.5,-82.02"/>
</g>
<!-- Node12 -->
<g id="node12" class="node">
<title>Node12</title>
<g id="a_node12"><a xlink:title=" ">
<polygon fill="none" stroke="#bfbfbf" points="1015,-56.5 1015,-75.5 1071,-75.5 1071,-56.5 1015,-56.5"/>
<text text-anchor="middle" x="1043" y="-63.5" font-family="Helvetica,sans-Serif" font-size="10.00">stdarg.h</text>
</a>
</g>
</g>
<!-- Node11&#45;&gt;Node12 -->
<g id="edge14" class="edge">
<title>Node11&#45;&gt;Node12</title>
<path fill="none" stroke="midnightblue" d="M1034.54,-168.38C1019.23,-161.18 1000.14,-149.29 991,-132 980.84,-112.78 1000.57,-93.71 1018.57,-81.25"/>
<polygon fill="midnightblue" stroke="midnightblue" points="1020.65,-84.07 1027.13,-75.69 1016.83,-78.2 1020.65,-84.07"/>
</g>
<!-- Node13 -->
<g id="node13" class="node">
<title>Node13</title>
<g id="a_node13"><a xlink:href="ErrorBlinker_8h.html" target="_top" xlink:title=" ">
<polygon fill="none" stroke="black" points="999.5,-112.5 999.5,-131.5 1110.5,-131.5 1110.5,-112.5 999.5,-112.5"/>
<text text-anchor="middle" x="1055" y="-119.5" font-family="Helvetica,sans-Serif" font-size="10.00">../Log/ErrorBlinker.h</text>
</a>
</g>
</g>
<!-- Node11&#45;&gt;Node13 -->
<g id="edge16" class="edge">
<title>Node11&#45;&gt;Node13</title>
<path fill="none" stroke="midnightblue" d="M1056.67,-168.08C1056.41,-161.01 1056.03,-150.86 1055.7,-141.99"/>
<polygon fill="midnightblue" stroke="midnightblue" points="1059.19,-141.61 1055.32,-131.75 1052.2,-141.87 1059.19,-141.61"/>
</g>
<!-- Node13&#45;&gt;Node3 -->
<g id="edge17" class="edge">
<title>Node13&#45;&gt;Node3</title>
<path fill="none" stroke="midnightblue" d="M999.28,-113.66C916.37,-102.74 762.29,-82.45 687.68,-72.62"/>
<polygon fill="midnightblue" stroke="midnightblue" points="688.07,-69.14 677.7,-71.31 687.16,-76.08 688.07,-69.14"/>
</g>
<!-- Node13&#45;&gt;Node4 -->
<g id="edge18" class="edge">
<title>Node13&#45;&gt;Node4</title>
<path fill="none" stroke="midnightblue" d="M1090.65,-112.44C1129.66,-103.08 1192.27,-88.06 1234.72,-77.87"/>
<polygon fill="midnightblue" stroke="midnightblue" points="1235.61,-81.25 1244.51,-75.52 1233.97,-74.45 1235.61,-81.25"/>
</g>
<!-- Node14&#45;&gt;Node3 -->
<g id="edge22" class="edge">
<title>Node14&#45;&gt;Node3</title>
<path fill="none" stroke="midnightblue" d="M392.82,-280.35C366.85,-269.24 330.2,-248.45 345,-224 401.46,-130.73 533.59,-90.2 602.1,-74.94"/>
<polygon fill="midnightblue" stroke="midnightblue" points="603.09,-78.31 612.13,-72.79 601.62,-71.47 603.09,-78.31"/>
</g>
<!-- Node14&#45;&gt;Node7 -->
<g id="edge23" class="edge">
<title>Node14&#45;&gt;Node7</title>
<path fill="none" stroke="midnightblue" d="M447.37,-280.44C481.26,-271.2 535.4,-256.44 572.72,-246.26"/>
<polygon fill="midnightblue" stroke="midnightblue" points="574.05,-249.52 582.77,-243.52 572.2,-242.77 574.05,-249.52"/>
</g>
<!-- Node14&#45;&gt;Node15 -->
<g id="edge24" class="edge">
<title>Node14&#45;&gt;Node15</title>
<path fill="none" stroke="midnightblue" d="M469.45,-280.49C520.67,-272.2 600.39,-258.95 678.72,-244.19"/>
<polygon fill="midnightblue" stroke="midnightblue" points="679.58,-247.59 688.76,-242.29 678.28,-240.71 679.58,-247.59"/>
</g>
<!-- Node16 -->
<g id="node16" class="node">
<title>Node16</title>
<g id="a_node16"><a xlink:title=" ">
<polygon fill="none" stroke="#bfbfbf" points="353.5,-224.5 353.5,-243.5 416.5,-243.5 416.5,-224.5 353.5,-224.5"/>
<text text-anchor="middle" x="385" y="-231.5" font-family="Helvetica,sans-Serif" font-size="10.00">Arduino.h</text>
</a>
</g>
</g>
<!-- Node14&#45;&gt;Node16 -->
<g id="edge26" class="edge">
<title>Node14&#45;&gt;Node16</title>
<path fill="none" stroke="midnightblue" d="M410.88,-280.08C406.59,-272.61 400.34,-261.72 395.06,-252.52"/>
<polygon fill="midnightblue" stroke="midnightblue" points="398.04,-250.68 390.02,-243.75 391.97,-254.17 398.04,-250.68"/>
</g>
<!-- Node15&#45;&gt;Node4 -->
<g id="edge25" class="edge">
<title>Node15&#45;&gt;Node4</title>
<path fill="none" stroke="midnightblue" d="M721.14,-224.38C716.88,-202.04 709.08,-141.92 741,-112 758.53,-95.57 1092.54,-76.65 1225.79,-69.72"/>
<polygon fill="midnightblue" stroke="midnightblue" points="1225.98,-73.22 1235.79,-69.2 1225.62,-66.22 1225.98,-73.22"/>
</g>
<!-- Node17&#45;&gt;Node7 -->
<g id="edge29" class="edge">
<title>Node17&#45;&gt;Node7</title>
<path fill="none" stroke="midnightblue" d="M825.23,-280.44C781.44,-271.02 710.99,-255.87 663.62,-245.68"/>
<polygon fill="midnightblue" stroke="midnightblue" points="664.1,-242.2 653.59,-243.52 662.63,-249.04 664.1,-242.2"/>
</g>
<!-- Node17&#45;&gt;Node10 -->
<g id="edge28" class="edge">
<title>Node17&#45;&gt;Node10</title>
<path fill="none" stroke="midnightblue" d="M860.38,-280.08C856.54,-272.69 850.98,-261.95 846.24,-252.81"/>
<polygon fill="midnightblue" stroke="midnightblue" points="849.25,-251.02 841.54,-243.75 843.03,-254.24 849.25,-251.02"/>
</g>
<!-- Node17&#45;&gt;Node15 -->
<g id="edge30" class="edge">
<title>Node17&#45;&gt;Node15</title>
<path fill="none" stroke="midnightblue" d="M842.5,-280.44C818.92,-271.48 781.68,-257.31 755.04,-247.18"/>
<polygon fill="midnightblue" stroke="midnightblue" points="755.99,-243.8 745.4,-243.52 753.5,-250.34 755.99,-243.8"/>
</g>
<!-- Node18&#45;&gt;Node3 -->
<g id="edge34" class="edge">
<title>Node18&#45;&gt;Node3</title>
<path fill="none" stroke="midnightblue" d="M145.17,-168.29C175.48,-154.14 238.62,-126.31 295,-112 403.51,-84.47 535.43,-73.31 602.06,-69.18"/>
<polygon fill="midnightblue" stroke="midnightblue" points="602.41,-72.67 612.18,-68.58 601.99,-65.68 602.41,-72.67"/>
</g>
<!-- Node20 -->
<g id="node20" class="node">
<title>Node20</title>
<g id="a_node20"><a xlink:href="Button_8h.html" target="_top" xlink:title=" ">
<polygon fill="none" stroke="black" points="197,-168.5 197,-187.5 255,-187.5 255,-168.5 197,-168.5"/>
<text text-anchor="middle" x="226" y="-175.5" font-family="Helvetica,sans-Serif" font-size="10.00">Button.h</text>
</a>
</g>
</g>
<!-- Node19&#45;&gt;Node20 -->
<g id="edge36" class="edge">
<title>Node19&#45;&gt;Node20</title>
<path fill="none" stroke="midnightblue" d="M208.49,-280.37C211.56,-262.62 218.63,-221.67 222.79,-197.6"/>
<polygon fill="midnightblue" stroke="midnightblue" points="226.26,-198.04 224.52,-187.59 219.36,-196.85 226.26,-198.04"/>
</g>
<!-- Node20&#45;&gt;Node3 -->
<g id="edge37" class="edge">
<title>Node20&#45;&gt;Node3</title>
<path fill="none" stroke="midnightblue" d="M237.95,-168.43C258.39,-154.22 301.86,-125.98 343,-112 432.02,-81.76 542.64,-71.82 602.21,-68.57"/>
<polygon fill="midnightblue" stroke="midnightblue" points="602.56,-72.06 612.37,-68.05 602.2,-65.06 602.56,-72.06"/>
</g>
<!-- Node21&#45;&gt;Node3 -->
<g id="edge39" class="edge">
<title>Node21&#45;&gt;Node3</title>
<path fill="none" stroke="midnightblue" d="M1496.47,-168.25C1483.18,-153.52 1453.91,-124.16 1422,-112 1353.41,-85.86 841.5,-71.68 688.23,-67.98"/>
<polygon fill="midnightblue" stroke="midnightblue" points="687.91,-64.47 677.83,-67.74 687.74,-71.47 687.91,-64.47"/>
</g>
<!-- Node21&#45;&gt;Node4 -->
<g id="edge40" class="edge">
<title>Node21&#45;&gt;Node4</title>
<path fill="none" stroke="midnightblue" d="M1505.34,-168.07C1506.89,-154.12 1507.59,-127.19 1493,-112 1471.5,-89.61 1389.88,-77.42 1334.16,-71.57"/>
<polygon fill="midnightblue" stroke="midnightblue" points="1334.38,-68.07 1324.07,-70.55 1333.67,-75.04 1334.38,-68.07"/>
</g>
<!-- Node22 -->
<g id="node22" class="node">
<title>Node22</title>
<g id="a_node22"><a xlink:href="LedTypes_8h.html" target="_top" xlink:title=" ">
<polygon fill="none" stroke="black" points="1167.5,-112.5 1167.5,-131.5 1272.5,-131.5 1272.5,-112.5 1167.5,-112.5"/>
<text text-anchor="middle" x="1220" y="-119.5" font-family="Helvetica,sans-Serif" font-size="10.00">../Leds/LedTypes.h</text>
</a>
</g>
</g>
<!-- Node21&#45;&gt;Node22 -->
<g id="edge41" class="edge">
<title>Node21&#45;&gt;Node22</title>
<path fill="none" stroke="midnightblue" d="M1459,-168.44C1409.04,-158.94 1328.4,-143.61 1274.8,-133.42"/>
<polygon fill="midnightblue" stroke="midnightblue" points="1275.27,-129.95 1264.79,-131.52 1273.96,-136.82 1275.27,-129.95"/>
</g>
<!-- Node22&#45;&gt;Node3 -->
<g id="edge42" class="edge">
<title>Node22&#45;&gt;Node3</title>
<path fill="none" stroke="midnightblue" d="M1167.45,-116.06C1054.61,-105.47 791,-80.71 687.65,-71.01"/>
<polygon fill="midnightblue" stroke="midnightblue" points="687.87,-67.51 677.58,-70.06 687.21,-74.48 687.87,-67.51"/>
</g>
<!-- Node22&#45;&gt;Node4 -->
<g id="edge44" class="edge">
<title>Node22&#45;&gt;Node4</title>
<path fill="none" stroke="midnightblue" d="M1229.64,-112.32C1238.51,-104.34 1251.87,-92.31 1262.61,-82.65"/>
<polygon fill="midnightblue" stroke="midnightblue" points="1265.09,-85.13 1270.18,-75.83 1260.41,-79.92 1265.09,-85.13"/>
</g>
<!-- Node22&#45;&gt;Node12 -->
<g id="edge43" class="edge">
<title>Node22&#45;&gt;Node12</title>
<path fill="none" stroke="midnightblue" d="M1191.95,-112.44C1161.92,-103.28 1114.09,-88.69 1080.76,-78.52"/>
<polygon fill="midnightblue" stroke="midnightblue" points="1081.5,-75.09 1070.91,-75.52 1079.46,-81.78 1081.5,-75.09"/>
</g>
<!-- Node23&#45;&gt;Node4 -->
<g id="edge47" class="edge">
<title>Node23&#45;&gt;Node4</title>
<path fill="none" stroke="midnightblue" d="M1664.71,-224.44C1668.6,-202.25 1675.48,-142.46 1644,-112 1600.99,-70.37 1424.83,-65.62 1334.29,-66.03"/>
<polygon fill="midnightblue" stroke="midnightblue" points="1334.2,-62.53 1324.22,-66.1 1334.24,-69.53 1334.2,-62.53"/>
</g>
<!-- Node23&#45;&gt;Node21 -->
<g id="edge46" class="edge">
<title>Node23&#45;&gt;Node21</title>
<path fill="none" stroke="midnightblue" d="M1637.81,-224.44C1611.06,-215.36 1568.6,-200.94 1538.69,-190.78"/>
<polygon fill="midnightblue" stroke="midnightblue" points="1539.67,-187.42 1529.08,-187.52 1537.42,-194.05 1539.67,-187.42"/>
</g>
<!-- Node24&#45;&gt;Node3 -->
<g id="edge49" class="edge">
<title>Node24&#45;&gt;Node3</title>
<path fill="none" stroke="midnightblue" d="M319.85,-168.12C328.22,-153.73 346.84,-125.55 371,-112 409.81,-90.23 535.15,-76.45 602.03,-70.47"/>
<polygon fill="midnightblue" stroke="midnightblue" points="602.58,-73.93 612.24,-69.57 601.97,-66.96 602.58,-73.93"/>
</g>
<!-- Node25&#45;&gt;Node3 -->
<g id="edge63" class="edge">
<title>Node25&#45;&gt;Node3</title>
<path fill="none" stroke="midnightblue" d="M1016.07,-280.49C998.31,-271.52 969.6,-256.94 945,-244 928.46,-235.3 924.76,-232.28 908,-224 818.46,-179.78 783.57,-191 703,-132 684.58,-118.51 667.72,-98.33 656.98,-84.04"/>
<polygon fill="midnightblue" stroke="midnightblue" points="659.57,-81.65 650.85,-75.63 653.91,-85.77 659.57,-81.65"/>
</g>
<!-- Node25&#45;&gt;Node4 -->
<g id="edge62" class="edge">
<title>Node25&#45;&gt;Node4</title>
<path fill="none" stroke="midnightblue" d="M1079.82,-286.9C1166.39,-280.13 1349.27,-251.64 1422,-132 1444.6,-94.83 1383.09,-78.72 1334.03,-71.87"/>
<polygon fill="midnightblue" stroke="midnightblue" points="1334.46,-68.4 1324.09,-70.58 1333.56,-75.34 1334.46,-68.4"/>
</g>
<!-- Node25&#45;&gt;Node10 -->
<g id="edge51" class="edge">
<title>Node25&#45;&gt;Node10</title>
<path fill="none" stroke="midnightblue" d="M1001.94,-280.44C968.4,-271.2 914.8,-256.44 877.86,-246.26"/>
<polygon fill="midnightblue" stroke="midnightblue" points="878.48,-242.8 867.91,-243.52 876.62,-249.55 878.48,-242.8"/>
</g>
<!-- Node26 -->
<g id="node26" class="node">
<title>Node26</title>
<g id="a_node26"><a xlink:href="ColorTypes_8h.html" target="_top" xlink:title=" ">
<polygon fill="none" stroke="black" points="1291,-112.5 1291,-131.5 1413,-131.5 1413,-112.5 1291,-112.5"/>
<text text-anchor="middle" x="1352" y="-119.5" font-family="Helvetica,sans-Serif" font-size="10.00">../Colors/ColorTypes.h</text>
</a>
</g>
</g>
<!-- Node25&#45;&gt;Node26 -->
<g id="edge52" class="edge">
<title>Node25&#45;&gt;Node26</title>
<path fill="none" stroke="midnightblue" d="M1065.04,-280.47C1114.18,-266.42 1209.84,-235.18 1280,-188 1301.26,-173.7 1322.68,-153.44 1336.56,-139.35"/>
<polygon fill="midnightblue" stroke="midnightblue" points="1339.37,-141.49 1343.8,-131.87 1334.34,-136.62 1339.37,-141.49"/>
</g>
<!-- Node27 -->
<g id="node27" class="node">
<title>Node27</title>
<g id="a_node27"><a xlink:href="Patterns_8h.html" target="_top" xlink:title=" ">
<polygon fill="none" stroke="black" points="749.5,-112.5 749.5,-131.5 866.5,-131.5 866.5,-112.5 749.5,-112.5"/>
<text text-anchor="middle" x="808" y="-119.5" font-family="Helvetica,sans-Serif" font-size="10.00">../Patterns/Patterns.h</text>
</a>
</g>
</g>
<!-- Node25&#45;&gt;Node27 -->
<g id="edge56" class="edge">
<title>Node25&#45;&gt;Node27</title>
<path fill="none" stroke="midnightblue" d="M1021.22,-280.31C984.77,-253.42 873.54,-171.35 827.88,-137.67"/>
<polygon fill="midnightblue" stroke="midnightblue" points="829.79,-134.73 819.66,-131.61 825.63,-140.36 829.79,-134.73"/>
</g>
<!-- Node25&#45;&gt;Node28 -->
<g id="edge58" class="edge">
<title>Node25&#45;&gt;Node28</title>
<path fill="none" stroke="midnightblue" d="M1055.23,-280.45C1076.07,-272.12 1107.86,-258.61 1134,-244 1161.41,-228.68 1190.96,-207.68 1209.7,-193.75"/>
<polygon fill="midnightblue" stroke="midnightblue" points="1211.84,-196.51 1217.73,-187.71 1207.64,-190.92 1211.84,-196.51"/>
</g>
<!-- Node26&#45;&gt;Node3 -->
<g id="edge53" class="edge">
<title>Node26&#45;&gt;Node3</title>
<path fill="none" stroke="midnightblue" d="M1290.94,-112.94C1287.92,-112.61 1284.93,-112.29 1282,-112 1058.78,-89.78 790.48,-74.57 687.81,-69.17"/>
<polygon fill="midnightblue" stroke="midnightblue" points="687.71,-65.66 677.54,-68.64 687.34,-72.65 687.71,-65.66"/>
</g>
<!-- Node26&#45;&gt;Node4 -->
<g id="edge54" class="edge">
<title>Node26&#45;&gt;Node4</title>
<path fill="none" stroke="midnightblue" d="M1340.43,-112.32C1329.58,-104.18 1313.12,-91.84 1300.12,-82.09"/>
<polygon fill="midnightblue" stroke="midnightblue" points="1301.88,-79.03 1291.78,-75.83 1297.68,-84.63 1301.88,-79.03"/>
</g>
<!-- Node26&#45;&gt;Node5 -->
<g id="edge55" class="edge">
<title>Node26&#45;&gt;Node5</title>
<path fill="none" stroke="midnightblue" d="M1349.63,-112.1C1346.23,-99.52 1339.64,-75.85 1333,-56 1330.02,-47.08 1326.37,-37.3 1323.22,-29.14"/>
<polygon fill="midnightblue" stroke="midnightblue" points="1326.37,-27.59 1319.46,-19.56 1319.85,-30.14 1326.37,-27.59"/>
</g>
<!-- Node27&#45;&gt;Node3 -->
<g id="edge57" class="edge">
<title>Node27&#45;&gt;Node3</title>
<path fill="none" stroke="midnightblue" d="M782.17,-112.44C754.75,-103.36 711.22,-88.94 680.57,-78.78"/>
<polygon fill="midnightblue" stroke="midnightblue" points="681.3,-75.34 670.71,-75.52 679.1,-81.98 681.3,-75.34"/>
</g>
<!-- Node28&#45;&gt;Node3 -->
<g id="edge59" class="edge">
<title>Node28&#45;&gt;Node3</title>
<path fill="none" stroke="midnightblue" d="M1187.47,-169.18C1080.43,-149.02 796,-95.44 687.69,-75.04"/>
<polygon fill="midnightblue" stroke="midnightblue" points="688.25,-71.58 677.77,-73.17 686.95,-78.46 688.25,-71.58"/>
</g>
<!-- Node28&#45;&gt;Node22 -->
<g id="edge61" class="edge">
<title>Node28&#45;&gt;Node22</title>
<path fill="none" stroke="midnightblue" d="M1227.51,-168.08C1226.32,-160.93 1224.61,-150.64 1223.12,-141.69"/>
<polygon fill="midnightblue" stroke="midnightblue" points="1226.55,-141.04 1221.46,-131.75 1219.65,-142.19 1226.55,-141.04"/>
</g>
<!-- Node28&#45;&gt;Node26 -->
<g id="edge60" class="edge">
<title>Node28&#45;&gt;Node26</title>
<path fill="none" stroke="midnightblue" d="M1248.49,-168.44C1268.64,-159.6 1300.32,-145.69 1323.33,-135.59"/>
<polygon fill="midnightblue" stroke="midnightblue" points="1324.85,-138.74 1332.6,-131.52 1322.04,-132.33 1324.85,-138.74"/>
</g>
<!-- Node29&#45;&gt;Node3 -->
<g id="edge65" class="edge">
<title>Node29&#45;&gt;Node3</title>
<path fill="none" stroke="midnightblue" d="M112.21,-115.85C229.39,-105.1 497.55,-80.52 602.12,-70.93"/>
<polygon fill="midnightblue" stroke="midnightblue" points="602.67,-74.4 612.31,-70 602.03,-67.43 602.67,-74.4"/>
</g>
<!-- Node30&#45;&gt;Node3 -->
<g id="edge67" class="edge">
<title>Node30&#45;&gt;Node3</title>
<path fill="none" stroke="midnightblue" d="M1031.33,-224.52C964.4,-211.16 838.48,-181.51 741,-132 712.49,-117.52 682.4,-95.99 663.67,-81.72"/>
<polygon fill="midnightblue" stroke="midnightblue" points="665.73,-78.89 655.67,-75.55 661.45,-84.43 665.73,-78.89"/>
</g>
<!-- Node30&#45;&gt;Node22 -->
<g id="edge69" class="edge">
<title>Node30&#45;&gt;Node22</title>
<path fill="none" stroke="midnightblue" d="M1085.7,-224.35C1097.62,-211.25 1121.61,-185.98 1145,-168 1160.41,-156.16 1179.15,-144.91 1194.05,-136.62"/>
<polygon fill="midnightblue" stroke="midnightblue" points="1196.1,-139.49 1203.21,-131.63 1192.75,-133.34 1196.1,-139.49"/>
</g>
<!-- Node30&#45;&gt;Node26 -->
<g id="edge68" class="edge">
<title>Node30&#45;&gt;Node26</title>
<path fill="none" stroke="midnightblue" d="M1090.89,-224.38C1115.96,-207.66 1169.69,-172.08 1179,-168 1215.35,-152.07 1258.55,-140.82 1292.69,-133.56"/>
<polygon fill="midnightblue" stroke="midnightblue" points="1293.43,-136.98 1302.52,-131.52 1292.02,-130.12 1293.43,-136.98"/>
</g>
<!-- Node30&#45;&gt;Node31 -->
<g id="edge70" class="edge">
<title>Node30&#45;&gt;Node31</title>
<path fill="none" stroke="midnightblue" d="M1058.35,-224.44C1038.04,-215.6 1006.1,-201.69 982.9,-191.59"/>
<polygon fill="midnightblue" stroke="midnightblue" points="984.12,-188.3 973.56,-187.52 981.33,-194.72 984.12,-188.3"/>
</g>
<!-- Node31&#45;&gt;Node4 -->
<g id="edge73" class="edge">
<title>Node31&#45;&gt;Node4</title>
<path fill="none" stroke="midnightblue" d="M956.33,-168.15C960.6,-153.81 971.12,-125.71 991,-112 1028.1,-86.41 1152.71,-74.67 1225.63,-69.88"/>
<polygon fill="midnightblue" stroke="midnightblue" points="1226.24,-73.35 1236,-69.22 1225.8,-66.36 1226.24,-73.35"/>
</g>
<!-- Node31&#45;&gt;Node22 -->
<g id="edge71" class="edge">
<title>Node31&#45;&gt;Node22</title>
<path fill="none" stroke="midnightblue" d="M996.15,-168.44C1042.75,-158.98 1117.84,-143.74 1168.05,-133.55"/>
<polygon fill="midnightblue" stroke="midnightblue" points="1168.94,-136.94 1178.05,-131.52 1167.55,-130.08 1168.94,-136.94"/>
</g>
<!-- Node31&#45;&gt;Node27 -->
<g id="edge72" class="edge">
<title>Node31&#45;&gt;Node27</title>
<path fill="none" stroke="midnightblue" d="M930.87,-168.44C906.52,-159.44 867.99,-145.19 840.58,-135.05"/>
<polygon fill="midnightblue" stroke="midnightblue" points="841.62,-131.7 831.03,-131.52 839.19,-138.27 841.62,-131.7"/>
</g>
</g>
</svg>
