<?xml version="1.0" encoding="UTF-8" standalone="no"?>
<!DOCTYPE svg PUBLIC "-//W3C//DTD SVG 1.1//EN"
 "http://www.w3.org/Graphics/SVG/1.1/DTD/svg11.dtd">
<!-- Generated by graphviz version 2.43.0 (0)
 -->
<!-- Title: VortexEngine/src/VortexEngine.cpp Pages: 1 -->
<!--zoomable 364 -->
<svg id="main" version="1.1" xmlns="http://www.w3.org/2000/svg" xmlns:xlink="http://www.w3.org/1999/xlink" xml:space="preserve" onload="init(evt)">
<style type="text/css"><![CDATA[
.edge:hover path { stroke: red; }
.edge:hover polygon { stroke: red; fill: red; }
]]></style>
<script type="text/javascript"><![CDATA[
var edges = document.getElementsByTagName('g');
if (edges && edges.length) {
  for (var i=0;i<edges.length;i++) {
    if (edges[i].id.substr(0,4)=='edge') {
      edges[i].setAttribute('class','edge');
    }
  }
}
]]></script>
        <defs>
                <circle id="rim" cx="0" cy="0" r="7"/>
                <circle id="rim2" cx="0" cy="0" r="3.5"/>
                <g id="zoomPlus">
                        <use xlink:href="#rim" fill="#404040">
                                <set attributeName="fill" to="#808080" begin="zoomplus.mouseover" end="zoomplus.mouseout"/>
                        </use>
                        <path d="M-4,0h8M0,-4v8" fill="none" stroke="white" stroke-width="1.5" pointer-events="none"/>
                </g>
                <g id="zoomMin">
                        <use xlink:href="#rim" fill="#404040">
                                <set attributeName="fill" to="#808080" begin="zoomminus.mouseover" end="zoomminus.mouseout"/>
                        </use>
                        <path d="M-4,0h8" fill="none" stroke="white" stroke-width="1.5" pointer-events="none"/>
                </g>
                <g id="dirArrow">
                        <path fill="none" stroke="white" stroke-width="1.5" d="M0,-3.0v7 M-2.5,-0.5L0,-3.0L2.5,-0.5"/>
                </g>
               <g id="resetDef">
                       <use xlink:href="#rim2" fill="#404040">
                               <set attributeName="fill" to="#808080" begin="reset.mouseover" end="reset.mouseout"/>
                       </use>
               </g>
        </defs>

<script type="text/javascript">
var viewWidth = 1617;
var viewHeight = 364;
var sectionId = 'dynsection-0';
</script>
<script xlink:href="svgpan.js"/>
<svg id="graph" class="graph">
<g id="viewport">
<title>VortexEngine/src/VortexEngine.cpp</title>
<!-- Node1 -->
<g id="node1" class="node">
<title>Node1</title>
<g id="a_node1"><a xlink:title=" ">
<polygon fill="#bfbfbf" stroke="black" points="680,-336.5 680,-355.5 866,-355.5 866,-336.5 680,-336.5"/>
<text text-anchor="middle" x="773" y="-343.5" font-family="Helvetica,sans-Serif" font-size="10.00">VortexEngine/src/VortexEngine.cpp</text>
</a>
</g>
</g>
<!-- Node2 -->
<g id="node2" class="node">
<title>Node2</title>
<g id="a_node2"><a xlink:href="VortexEngine_8h.html" target="_top" xlink:title=" ">
<polygon fill="none" stroke="black" points="1499,-112.5 1499,-131.5 1589,-131.5 1589,-112.5 1499,-112.5"/>
<text text-anchor="middle" x="1544" y="-119.5" font-family="Helvetica,sans-Serif" font-size="10.00">VortexEngine.h</text>
</a>
</g>
</g>
<!-- Node1&#45;&gt;Node2 -->
<g id="edge1" class="edge">
<title>Node1&#45;&gt;Node2</title>
<path fill="none" stroke="midnightblue" d="M866.06,-343.24C1014.31,-339.6 1297.12,-328.99 1393,-300 1441.39,-285.37 1458.25,-281.64 1492,-244 1519.12,-213.75 1533.65,-167.19 1539.99,-141.54"/>
<polygon fill="midnightblue" stroke="midnightblue" points="1543.44,-142.18 1542.29,-131.65 1536.62,-140.6 1543.44,-142.18"/>
</g>
<!-- Node6 -->
<g id="node6" class="node">
<title>Node6</title>
<g id="a_node6"><a xlink:href="IRReceiver_8h.html" target="_top" xlink:title=" ">
<polygon fill="none" stroke="black" points="58,-280.5 58,-299.5 180,-299.5 180,-280.5 58,-280.5"/>
<text text-anchor="middle" x="119" y="-287.5" font-family="Helvetica,sans-Serif" font-size="10.00">Wireless/IRReceiver.h</text>
</a>
</g>
</g>
<!-- Node1&#45;&gt;Node6 -->
<g id="edge5" class="edge">
<title>Node1&#45;&gt;Node6</title>
<path fill="none" stroke="midnightblue" d="M679.88,-338.97C565.39,-331.27 365.2,-316.92 194,-300 192.89,-299.89 191.77,-299.78 190.65,-299.66"/>
<polygon fill="midnightblue" stroke="midnightblue" points="190.68,-296.15 180.37,-298.58 189.95,-303.11 190.68,-296.15"/>
</g>
<!-- Node8 -->
<g id="node8" class="node">
<title>Node8</title>
<g id="a_node8"><a xlink:href="IRConfig_8h.html" target="_top" xlink:title=" ">
<polygon fill="none" stroke="black" points="175,-224.5 175,-243.5 241,-243.5 241,-224.5 175,-224.5"/>
<text text-anchor="middle" x="208" y="-231.5" font-family="Helvetica,sans-Serif" font-size="10.00">IRConfig.h</text>
</a>
</g>
</g>
<!-- Node1&#45;&gt;Node8 -->
<g id="edge30" class="edge">
<title>Node1&#45;&gt;Node8</title>
<path fill="none" stroke="midnightblue" d="M679.95,-343C533.24,-339.02 261.22,-327.92 227,-300 213.5,-288.98 209.26,-268.94 208.09,-254.01"/>
<polygon fill="midnightblue" stroke="midnightblue" points="211.58,-253.67 207.68,-243.82 204.58,-253.95 211.58,-253.67"/>
</g>
<!-- Node9 -->
<g id="node9" class="node">
<title>Node9</title>
<g id="a_node9"><a xlink:href="IRSender_8h.html" target="_top" xlink:title=" ">
<polygon fill="none" stroke="black" points="236.5,-280.5 236.5,-299.5 349.5,-299.5 349.5,-280.5 236.5,-280.5"/>
<text text-anchor="middle" x="293" y="-287.5" font-family="Helvetica,sans-Serif" font-size="10.00">Wireless/IRSender.h</text>
</a>
</g>
</g>
<!-- Node1&#45;&gt;Node9 -->
<g id="edge10" class="edge">
<title>Node1&#45;&gt;Node9</title>
<path fill="none" stroke="midnightblue" d="M687.47,-336.47C605.8,-328.16 478.99,-314.8 359.74,-300.19"/>
<polygon fill="midnightblue" stroke="midnightblue" points="360.06,-296.7 349.71,-298.95 359.2,-303.65 360.06,-296.7"/>
</g>
<!-- Node11 -->
<g id="node11" class="node">
<title>Node11</title>
<g id="a_node11"><a xlink:href="Log_8h.html" target="_top" xlink:title=" ">
<polygon fill="none" stroke="black" points="781,-168.5 781,-187.5 853,-187.5 853,-168.5 781,-168.5"/>
<text text-anchor="middle" x="817" y="-175.5" font-family="Helvetica,sans-Serif" font-size="10.00">../Log/Log.h</text>
</a>
</g>
</g>
<!-- Node1&#45;&gt;Node11 -->
<g id="edge73" class="edge">
<title>Node1&#45;&gt;Node11</title>
<path fill="none" stroke="midnightblue" d="M792.91,-336.41C807.22,-329.04 825.46,-316.92 834,-300 850.9,-266.53 836.36,-221.6 825.74,-196.99"/>
<polygon fill="midnightblue" stroke="midnightblue" points="828.87,-195.41 821.53,-187.77 822.5,-198.32 828.87,-195.41"/>
</g>
<!-- Node14 -->
<g id="node14" class="node">
<title>Node14</title>
<g id="a_node14"><a xlink:href="VLReceiver_8h.html" target="_top" xlink:title=" ">
<polygon fill="none" stroke="black" points="367.5,-280.5 367.5,-299.5 492.5,-299.5 492.5,-280.5 367.5,-280.5"/>
<text text-anchor="middle" x="430" y="-287.5" font-family="Helvetica,sans-Serif" font-size="10.00">Wireless/VLReceiver.h</text>
</a>
</g>
</g>
<!-- Node1&#45;&gt;Node14 -->
<g id="edge21" class="edge">
<title>Node1&#45;&gt;Node14</title>
<path fill="none" stroke="midnightblue" d="M718.65,-336.44C657.69,-326.85 558.89,-311.29 494.18,-301.1"/>
<polygon fill="midnightblue" stroke="midnightblue" points="494.52,-297.61 484.1,-299.52 493.43,-304.53 494.52,-297.61"/>
</g>
<!-- Node15 -->
<g id="node15" class="node">
<title>Node15</title>
<g id="a_node15"><a xlink:href="VLConfig_8h.html" target="_top" xlink:title=" ">
<polygon fill="none" stroke="black" points="597,-224.5 597,-243.5 665,-243.5 665,-224.5 597,-224.5"/>
<text text-anchor="middle" x="631" y="-231.5" font-family="Helvetica,sans-Serif" font-size="10.00">VLConfig.h</text>
</a>
</g>
</g>
<!-- Node1&#45;&gt;Node15 -->
<g id="edge31" class="edge">
<title>Node1&#45;&gt;Node15</title>
<path fill="none" stroke="midnightblue" d="M746.71,-336.38C726.69,-328.93 699.22,-316.71 679,-300 662.83,-286.64 649.18,-266.72 640.62,-252.45"/>
<polygon fill="midnightblue" stroke="midnightblue" points="643.56,-250.55 635.53,-243.63 637.49,-254.04 643.56,-250.55"/>
</g>
<!-- Node16 -->
<g id="node16" class="node">
<title>Node16</title>
<g id="a_node16"><a xlink:href="VLSender_8h.html" target="_top" xlink:title=" ">
<polygon fill="none" stroke="black" points="511,-280.5 511,-299.5 627,-299.5 627,-280.5 511,-280.5"/>
<text text-anchor="middle" x="569" y="-287.5" font-family="Helvetica,sans-Serif" font-size="10.00">Wireless/VLSender.h</text>
</a>
</g>
</g>
<!-- Node1&#45;&gt;Node16 -->
<g id="edge26" class="edge">
<title>Node1&#45;&gt;Node16</title>
<path fill="none" stroke="midnightblue" d="M740.68,-336.44C705.61,-327.16 649.5,-312.31 611.04,-302.13"/>
<polygon fill="midnightblue" stroke="midnightblue" points="611.74,-298.69 601.17,-299.52 609.94,-305.46 611.74,-298.69"/>
</g>
<!-- Node17 -->
<g id="node17" class="node">
<title>Node17</title>
<g id="a_node17"><a xlink:href="Storage_8h.html" target="_top" xlink:title=" ">
<polygon fill="none" stroke="black" points="529,-168.5 529,-187.5 633,-187.5 633,-168.5 529,-168.5"/>
<text text-anchor="middle" x="581" y="-175.5" font-family="Helvetica,sans-Serif" font-size="10.00">Storage/Storage.h</text>
</a>
</g>
</g>
<!-- Node1&#45;&gt;Node17 -->
<g id="edge32" class="edge">
<title>Node1&#45;&gt;Node17</title>
<path fill="none" stroke="midnightblue" d="M757.62,-336.49C744.22,-328.47 724.96,-315.41 712,-300 687.69,-271.1 700.88,-250.53 674,-224 658.96,-209.15 638.06,-198.44 619.89,-191.2"/>
<polygon fill="midnightblue" stroke="midnightblue" points="620.99,-187.88 610.4,-187.63 618.53,-194.43 620.99,-187.88"/>
</g>
<!-- Node18 -->
<g id="node18" class="node">
<title>Node18</title>
<g id="a_node18"><a xlink:href="Buttons_8h.html" target="_top" xlink:title=" ">
<polygon fill="none" stroke="black" points="721,-280.5 721,-299.5 825,-299.5 825,-280.5 721,-280.5"/>
<text text-anchor="middle" x="773" y="-287.5" font-family="Helvetica,sans-Serif" font-size="10.00">Buttons/Buttons.h</text>
</a>
</g>
</g>
<!-- Node1&#45;&gt;Node18 -->
<g id="edge34" class="edge">
<title>Node1&#45;&gt;Node18</title>
<path fill="none" stroke="midnightblue" d="M773,-336.08C773,-329.01 773,-318.86 773,-309.99"/>
<polygon fill="midnightblue" stroke="midnightblue" points="776.5,-309.75 773,-299.75 769.5,-309.75 776.5,-309.75"/>
</g>
<!-- Node20 -->
<g id="node20" class="node">
<title>Node20</title>
<g id="a_node20"><a xlink:href="TimeControl_8h.html" target="_top" xlink:title=" ">
<polygon fill="none" stroke="black" points="1380.5,-168.5 1380.5,-187.5 1493.5,-187.5 1493.5,-168.5 1380.5,-168.5"/>
<text text-anchor="middle" x="1437" y="-175.5" font-family="Helvetica,sans-Serif" font-size="10.00">Time/TimeControl.h</text>
</a>
</g>
</g>
<!-- Node1&#45;&gt;Node20 -->
<g id="edge37" class="edge">
<title>Node1&#45;&gt;Node20</title>
<path fill="none" stroke="midnightblue" d="M866.32,-342.47C947.34,-338.37 1067.17,-327.7 1168,-300 1263.43,-273.79 1368.07,-218.2 1413.64,-192.52"/>
<polygon fill="midnightblue" stroke="midnightblue" points="1415.48,-195.5 1422.44,-187.52 1412.02,-189.42 1415.48,-195.5"/>
</g>
<!-- Node22 -->
<g id="node22" class="node">
<title>Node22</title>
<g id="a_node22"><a xlink:href="Timings_8h.html" target="_top" xlink:title=" ">
<polygon fill="none" stroke="black" points="1391,-224.5 1391,-243.5 1483,-243.5 1483,-224.5 1391,-224.5"/>
<text text-anchor="middle" x="1437" y="-231.5" font-family="Helvetica,sans-Serif" font-size="10.00">Time/Timings.h</text>
</a>
</g>
</g>
<!-- Node1&#45;&gt;Node22 -->
<g id="edge44" class="edge">
<title>Node1&#45;&gt;Node22</title>
<path fill="none" stroke="midnightblue" d="M866.27,-345.11C1009.68,-344.07 1276.87,-337.02 1364,-300 1388.77,-289.47 1410.87,-267.04 1424.1,-251.49"/>
<polygon fill="midnightblue" stroke="midnightblue" points="1426.87,-253.64 1430.5,-243.68 1421.45,-249.2 1426.87,-253.64"/>
</g>
<!-- Node23 -->
<g id="node23" class="node">
<title>Node23</title>
<g id="a_node23"><a xlink:href="Serial_8h.html" target="_top" xlink:title=" ">
<polygon fill="none" stroke="black" points="0,-168.5 0,-187.5 84,-187.5 84,-168.5 0,-168.5"/>
<text text-anchor="middle" x="42" y="-175.5" font-family="Helvetica,sans-Serif" font-size="10.00">Serial/Serial.h</text>
</a>
</g>
</g>
<!-- Node1&#45;&gt;Node23 -->
<g id="edge47" class="edge">
<title>Node1&#45;&gt;Node23</title>
<path fill="none" stroke="midnightblue" d="M679.93,-342.47C489.41,-336.83 70.92,-322.02 49,-300 22.24,-273.12 29.69,-224.11 36.45,-197.45"/>
<polygon fill="midnightblue" stroke="midnightblue" points="39.9,-198.1 39.2,-187.53 33.15,-196.23 39.9,-198.1"/>
</g>
<!-- Node24 -->
<g id="node24" class="node">
<title>Node24</title>
<g id="a_node24"><a xlink:href="Modes_8h.html" target="_top" xlink:title=" ">
<polygon fill="none" stroke="black" points="881.5,-280.5 881.5,-299.5 974.5,-299.5 974.5,-280.5 881.5,-280.5"/>
<text text-anchor="middle" x="928" y="-287.5" font-family="Helvetica,sans-Serif" font-size="10.00">Modes/Modes.h</text>
</a>
</g>
</g>
<!-- Node1&#45;&gt;Node24 -->
<g id="edge49" class="edge">
<title>Node1&#45;&gt;Node24</title>
<path fill="none" stroke="midnightblue" d="M797.56,-336.44C823.52,-327.4 864.67,-313.06 893.8,-302.92"/>
<polygon fill="midnightblue" stroke="midnightblue" points="895.26,-306.11 903.55,-299.52 892.96,-299.5 895.26,-306.11"/>
</g>
<!-- Node27 -->
<g id="node27" class="node">
<title>Node27</title>
<g id="a_node27"><a xlink:href="Leds_8h.html" target="_top" xlink:title=" ">
<polygon fill="none" stroke="black" points="1029.5,-168.5 1029.5,-187.5 1112.5,-187.5 1112.5,-168.5 1029.5,-168.5"/>
<text text-anchor="middle" x="1071" y="-175.5" font-family="Helvetica,sans-Serif" font-size="10.00">../Leds/Leds.h</text>
</a>
</g>
</g>
<!-- Node1&#45;&gt;Node27 -->
<g id="edge72" class="edge">
<title>Node1&#45;&gt;Node27</title>
<path fill="none" stroke="midnightblue" d="M866.1,-337.93C904.6,-331.85 948.45,-320.64 984,-300 1024.89,-276.26 1051.73,-224.76 1063.75,-197.22"/>
<polygon fill="midnightblue" stroke="midnightblue" points="1067.12,-198.22 1067.75,-187.65 1060.67,-195.53 1067.12,-198.22"/>
</g>
<!-- Node28 -->
<g id="node28" class="node">
<title>Node28</title>
<g id="a_node28"><a xlink:href="Menus_8h.html" target="_top" xlink:title=" ">
<polygon fill="none" stroke="black" points="1152.5,-224.5 1152.5,-243.5 1245.5,-243.5 1245.5,-224.5 1152.5,-224.5"/>
<text text-anchor="middle" x="1199" y="-231.5" font-family="Helvetica,sans-Serif" font-size="10.00">Menus/Menus.h</text>
</a>
</g>
</g>
<!-- Node1&#45;&gt;Node28 -->
<g id="edge63" class="edge">
<title>Node1&#45;&gt;Node28</title>
<path fill="none" stroke="midnightblue" d="M866.26,-340.68C929.41,-335.56 1013.96,-324.39 1085,-300 1120.26,-287.89 1157.02,-264.71 1178.95,-249.55"/>
<polygon fill="midnightblue" stroke="midnightblue" points="1181.24,-252.22 1187.4,-243.61 1177.21,-246.5 1181.24,-252.22"/>
</g>
<!-- Node29 -->
<g id="node29" class="node">
<title>Node29</title>
<g id="a_node29"><a xlink:href="Mode_8h.html" target="_top" xlink:title=" ">
<polygon fill="none" stroke="black" points="1265.5,-168.5 1265.5,-187.5 1362.5,-187.5 1362.5,-168.5 1265.5,-168.5"/>
<text text-anchor="middle" x="1314" y="-175.5" font-family="Helvetica,sans-Serif" font-size="10.00">../Modes/Mode.h</text>
</a>
</g>
</g>
<!-- Node1&#45;&gt;Node29 -->
<g id="edge71" class="edge">
<title>Node1&#45;&gt;Node29</title>
<path fill="none" stroke="midnightblue" d="M866.35,-339.6C936.95,-333.92 1035.78,-322.5 1120,-300 1182.76,-283.23 1201.89,-281.4 1255,-244 1273.81,-230.76 1290.95,-210.53 1301.85,-196.17"/>
<polygon fill="midnightblue" stroke="midnightblue" points="1304.97,-197.83 1308.07,-187.7 1299.32,-193.69 1304.97,-197.83"/>
</g>
<!-- Node3 -->
<g id="node3" class="node">
<title>Node3</title>
<g id="a_node3"><a xlink:title=" ">
<polygon fill="none" stroke="#bfbfbf" points="608.5,-56.5 608.5,-75.5 673.5,-75.5 673.5,-56.5 608.5,-56.5"/>
<text text-anchor="middle" x="641" y="-63.5" font-family="Helvetica,sans-Serif" font-size="10.00">inttypes.h</text>
</a>
</g>
</g>
<!-- Node2&#45;&gt;Node3 -->
<g id="edge2" class="edge">
<title>Node2&#45;&gt;Node3</title>
<path fill="none" stroke="midnightblue" d="M1498.7,-117.89C1472.49,-116.11 1438.89,-113.87 1409,-112 1132.7,-94.7 800.34,-75.91 683.84,-69.39"/>
<polygon fill="midnightblue" stroke="midnightblue" points="683.75,-65.88 673.57,-68.81 683.36,-72.87 683.75,-65.88"/>
</g>
<!-- Node4 -->
<g id="node4" class="node">
<title>Node4</title>
<g id="a_node4"><a xlink:href="VortexConfig_8h.html" target="_top" xlink:title=" ">
<polygon fill="none" stroke="black" points="1246,-56.5 1246,-75.5 1334,-75.5 1334,-56.5 1246,-56.5"/>
<text text-anchor="middle" x="1290" y="-63.5" font-family="Helvetica,sans-Serif" font-size="10.00">VortexConfig.h</text>
</a>
</g>
</g>
<!-- Node2&#45;&gt;Node4 -->
<g id="edge3" class="edge">
<title>Node2&#45;&gt;Node4</title>
<path fill="none" stroke="midnightblue" d="M1503.75,-112.44C1459.35,-103 1387.85,-87.8 1339.91,-77.61"/>
<polygon fill="midnightblue" stroke="midnightblue" points="1340.57,-74.17 1330.06,-75.52 1339.11,-81.02 1340.57,-74.17"/>
</g>
<!-- Node5 -->
<g id="node5" class="node">
<title>Node5</title>
<g id="a_node5"><a xlink:href="ColorConstants_8h.html" target="_top" xlink:title=" ">
<polygon fill="none" stroke="black" points="1150,-0.5 1150,-19.5 1284,-19.5 1284,-0.5 1150,-0.5"/>
<text text-anchor="middle" x="1217" y="-7.5" font-family="Helvetica,sans-Serif" font-size="10.00">Colors/ColorConstants.h</text>
</a>
</g>
</g>
<!-- Node4&#45;&gt;Node5 -->
<g id="edge4" class="edge">
<title>Node4&#45;&gt;Node5</title>
<path fill="none" stroke="midnightblue" d="M1278.27,-56.32C1267.16,-48.11 1250.26,-35.6 1237.02,-25.81"/>
<polygon fill="midnightblue" stroke="midnightblue" points="1239.06,-22.97 1228.94,-19.83 1234.9,-28.59 1239.06,-22.97"/>
</g>
<!-- Node6&#45;&gt;Node3 -->
<g id="edge6" class="edge">
<title>Node6&#45;&gt;Node3</title>
<path fill="none" stroke="midnightblue" d="M123.5,-280.49C130.92,-267.12 146.79,-240.96 166,-224 243.53,-155.53 272.26,-145.84 370,-112 447.74,-85.08 543.76,-74.01 598.13,-69.65"/>
<polygon fill="midnightblue" stroke="midnightblue" points="598.72,-73.11 608.43,-68.86 598.19,-66.13 598.72,-73.11"/>
</g>
<!-- Node7 -->
<g id="node7" class="node">
<title>Node7</title>
<g id="a_node7"><a xlink:href="BitStream_8h.html" target="_top" xlink:title=" ">
<polygon fill="none" stroke="black" points="267,-224.5 267,-243.5 381,-243.5 381,-224.5 267,-224.5"/>
<text text-anchor="middle" x="324" y="-231.5" font-family="Helvetica,sans-Serif" font-size="10.00">../Serial/BitStream.h</text>
</a>
</g>
</g>
<!-- Node6&#45;&gt;Node7 -->
<g id="edge7" class="edge">
<title>Node6&#45;&gt;Node7</title>
<path fill="none" stroke="midnightblue" d="M151.48,-280.44C186.72,-271.16 243.1,-256.31 281.76,-246.13"/>
<polygon fill="midnightblue" stroke="midnightblue" points="282.89,-249.45 291.67,-243.52 281.11,-242.68 282.89,-249.45"/>
</g>
<!-- Node6&#45;&gt;Node8 -->
<g id="edge9" class="edge">
<title>Node6&#45;&gt;Node8</title>
<path fill="none" stroke="midnightblue" d="M133.3,-280.32C147.18,-271.9 168.49,-258.97 184.8,-249.07"/>
<polygon fill="midnightblue" stroke="midnightblue" points="187,-251.83 193.74,-243.65 183.37,-245.85 187,-251.83"/>
</g>
<!-- Node7&#45;&gt;Node3 -->
<g id="edge8" class="edge">
<title>Node7&#45;&gt;Node3</title>
<path fill="none" stroke="midnightblue" d="M326.36,-224.25C332.97,-201.59 353.89,-140.77 395,-112 427.11,-89.53 536.3,-76.37 597.86,-70.57"/>
<polygon fill="midnightblue" stroke="midnightblue" points="598.41,-74.03 608.05,-69.63 597.77,-67.06 598.41,-74.03"/>
</g>
<!-- Node9&#45;&gt;Node7 -->
<g id="edge19" class="edge">
<title>Node9&#45;&gt;Node7</title>
<path fill="none" stroke="midnightblue" d="M298.12,-280.08C302.41,-272.61 308.66,-261.72 313.94,-252.52"/>
<polygon fill="midnightblue" stroke="midnightblue" points="317.03,-254.17 318.98,-243.75 310.96,-250.68 317.03,-254.17"/>
</g>
<!-- Node9&#45;&gt;Node8 -->
<g id="edge20" class="edge">
<title>Node9&#45;&gt;Node8</title>
<path fill="none" stroke="midnightblue" d="M279.34,-280.32C266.08,-271.9 245.73,-258.97 230.15,-249.07"/>
<polygon fill="midnightblue" stroke="midnightblue" points="231.94,-246.06 221.62,-243.65 228.19,-251.97 231.94,-246.06"/>
</g>
<!-- Node10 -->
<g id="node10" class="node">
<title>Node10</title>
<g id="a_node10"><a xlink:href="ByteStream_8h.html" target="_top" xlink:title=" ">
<polygon fill="none" stroke="black" points="455.5,-224.5 455.5,-243.5 578.5,-243.5 578.5,-224.5 455.5,-224.5"/>
<text text-anchor="middle" x="517" y="-231.5" font-family="Helvetica,sans-Serif" font-size="10.00">../Serial/ByteStream.h</text>
</a>
</g>
</g>
<!-- Node9&#45;&gt;Node10 -->
<g id="edge11" class="edge">
<title>Node9&#45;&gt;Node10</title>
<path fill="none" stroke="midnightblue" d="M328.49,-280.44C367.32,-271.08 429.66,-256.06 471.92,-245.87"/>
<polygon fill="midnightblue" stroke="midnightblue" points="472.77,-249.26 481.67,-243.52 471.13,-242.46 472.77,-249.26"/>
</g>
<!-- Node10&#45;&gt;Node3 -->
<g id="edge12" class="edge">
<title>Node10&#45;&gt;Node3</title>
<path fill="none" stroke="midnightblue" d="M511.56,-224.39C498.85,-203.06 470.2,-147.02 496,-112 519.24,-80.46 564.36,-70.37 598.13,-67.46"/>
<polygon fill="midnightblue" stroke="midnightblue" points="598.48,-70.95 608.21,-66.77 598,-63.96 598.48,-70.95"/>
</g>
<!-- Node10&#45;&gt;Node11 -->
<g id="edge13" class="edge">
<title>Node10&#45;&gt;Node11</title>
<path fill="none" stroke="midnightblue" d="M564.54,-224.44C621.15,-214.25 715.07,-197.35 771,-187.28"/>
<polygon fill="midnightblue" stroke="midnightblue" points="771.76,-190.7 780.99,-185.48 770.52,-183.81 771.76,-190.7"/>
</g>
<!-- Node11&#45;&gt;Node4 -->
<g id="edge15" class="edge">
<title>Node11&#45;&gt;Node4</title>
<path fill="none" stroke="midnightblue" d="M820.75,-168.42C827.6,-153.95 843.59,-124.97 867,-112 936.72,-73.36 1140.11,-85.94 1235.77,-75.94"/>
<polygon fill="midnightblue" stroke="midnightblue" points="1236.27,-79.4 1245.79,-74.75 1235.45,-72.45 1236.27,-79.4"/>
</g>
<!-- Node12 -->
<g id="node12" class="node">
<title>Node12</title>
<g id="a_node12"><a xlink:title=" ">
<polygon fill="none" stroke="#bfbfbf" points="1172,-56.5 1172,-75.5 1228,-75.5 1228,-56.5 1172,-56.5"/>
<text text-anchor="middle" x="1200" y="-63.5" font-family="Helvetica,sans-Serif" font-size="10.00">stdarg.h</text>
</a>
</g>
</g>
<!-- Node11&#45;&gt;Node12 -->
<g id="edge14" class="edge">
<title>Node11&#45;&gt;Node12</title>
<path fill="none" stroke="midnightblue" d="M815.71,-168.36C814.16,-154.31 813.45,-126.62 829,-112 852.99,-89.45 1072.14,-74.37 1161.92,-69.09"/>
<polygon fill="midnightblue" stroke="midnightblue" points="1162.17,-72.58 1171.95,-68.51 1161.77,-65.59 1162.17,-72.58"/>
</g>
<!-- Node13 -->
<g id="node13" class="node">
<title>Node13</title>
<g id="a_node13"><a xlink:href="ErrorBlinker_8h.html" target="_top" xlink:title=" ">
<polygon fill="none" stroke="black" points="627.5,-112.5 627.5,-131.5 738.5,-131.5 738.5,-112.5 627.5,-112.5"/>
<text text-anchor="middle" x="683" y="-119.5" font-family="Helvetica,sans-Serif" font-size="10.00">../Log/ErrorBlinker.h</text>
</a>
</g>
</g>
<!-- Node11&#45;&gt;Node13 -->
<g id="edge16" class="edge">
<title>Node11&#45;&gt;Node13</title>
<path fill="none" stroke="midnightblue" d="M795.77,-168.44C773.62,-159.52 738.68,-145.44 713.56,-135.32"/>
<polygon fill="midnightblue" stroke="midnightblue" points="714.72,-132.01 704.13,-131.52 712.1,-138.5 714.72,-132.01"/>
</g>
<!-- Node13&#45;&gt;Node3 -->
<g id="edge17" class="edge">
<title>Node13&#45;&gt;Node3</title>
<path fill="none" stroke="midnightblue" d="M676.06,-112.08C670.07,-104.38 661.25,-93.03 653.95,-83.65"/>
<polygon fill="midnightblue" stroke="midnightblue" points="656.71,-81.5 647.81,-75.75 651.18,-85.79 656.71,-81.5"/>
</g>
<!-- Node13&#45;&gt;Node4 -->
<g id="edge18" class="edge">
<title>Node13&#45;&gt;Node4</title>
<path fill="none" stroke="midnightblue" d="M738.54,-117.11C855.45,-108.82 1124.65,-89.19 1235.85,-76.02"/>
<polygon fill="midnightblue" stroke="midnightblue" points="1236.29,-79.49 1245.8,-74.8 1235.45,-72.54 1236.29,-79.49"/>
</g>
<!-- Node14&#45;&gt;Node3 -->
<g id="edge22" class="edge">
<title>Node14&#45;&gt;Node3</title>
<path fill="none" stroke="midnightblue" d="M429.86,-280.1C429.94,-251.25 434.23,-159.44 484,-112 514.69,-82.75 563.09,-72.31 598.05,-68.7"/>
<polygon fill="midnightblue" stroke="midnightblue" points="598.77,-72.15 608.43,-67.78 598.16,-65.17 598.77,-72.15"/>
</g>
<!-- Node14&#45;&gt;Node7 -->
<g id="edge23" class="edge">
<title>Node14&#45;&gt;Node7</title>
<path fill="none" stroke="midnightblue" d="M412.97,-280.32C395.97,-271.66 369.62,-258.24 350.01,-248.25"/>
<polygon fill="midnightblue" stroke="midnightblue" points="351.49,-245.08 340.99,-243.65 348.31,-251.31 351.49,-245.08"/>
</g>
<!-- Node14&#45;&gt;Node15 -->
<g id="edge24" class="edge">
<title>Node14&#45;&gt;Node15</title>
<path fill="none" stroke="midnightblue" d="M461.85,-280.44C496.4,-271.16 551.68,-256.31 589.58,-246.13"/>
<polygon fill="midnightblue" stroke="midnightblue" points="590.55,-249.49 599.3,-243.52 588.73,-242.73 590.55,-249.49"/>
</g>
<!-- Node15&#45;&gt;Node4 -->
<g id="edge25" class="edge">
<title>Node15&#45;&gt;Node4</title>
<path fill="none" stroke="midnightblue" d="M665.09,-229.87C721.45,-224.12 830.92,-210.39 862,-188 893.49,-165.32 872.58,-133.33 905,-112 964.57,-72.8 1148.35,-85.13 1235.63,-75.94"/>
<polygon fill="midnightblue" stroke="midnightblue" points="1236.28,-79.39 1245.78,-74.71 1235.44,-72.44 1236.28,-79.39"/>
</g>
<!-- Node16&#45;&gt;Node7 -->
<g id="edge28" class="edge">
<title>Node16&#45;&gt;Node7</title>
<path fill="none" stroke="midnightblue" d="M530.18,-280.44C487.44,-271.02 418.67,-255.87 372.43,-245.68"/>
<polygon fill="midnightblue" stroke="midnightblue" points="373.16,-242.25 362.64,-243.52 371.65,-249.09 373.16,-242.25"/>
</g>
<!-- Node16&#45;&gt;Node10 -->
<g id="edge27" class="edge">
<title>Node16&#45;&gt;Node10</title>
<path fill="none" stroke="midnightblue" d="M560.41,-280.08C552.84,-272.22 541.62,-260.57 532.49,-251.08"/>
<polygon fill="midnightblue" stroke="midnightblue" points="534.88,-248.53 525.43,-243.75 529.84,-253.38 534.88,-248.53"/>
</g>
<!-- Node16&#45;&gt;Node15 -->
<g id="edge29" class="edge">
<title>Node16&#45;&gt;Node15</title>
<path fill="none" stroke="midnightblue" d="M578.96,-280.32C588.13,-272.34 601.94,-260.31 613.03,-250.65"/>
<polygon fill="midnightblue" stroke="midnightblue" points="615.62,-253.04 620.86,-243.83 611.02,-247.76 615.62,-253.04"/>
</g>
<!-- Node17&#45;&gt;Node3 -->
<g id="edge33" class="edge">
<title>Node17&#45;&gt;Node3</title>
<path fill="none" stroke="midnightblue" d="M555.87,-168.47C527.18,-157.34 486.35,-136.37 504,-112 525.3,-82.58 566.47,-72.05 598.14,-68.45"/>
<polygon fill="midnightblue" stroke="midnightblue" points="598.84,-71.9 608.47,-67.48 598.19,-64.93 598.84,-71.9"/>
</g>
<!-- Node19 -->
<g id="node19" class="node">
<title>Node19</title>
<g id="a_node19"><a xlink:href="Button_8h.html" target="_top" xlink:title=" ">
<polygon fill="none" stroke="black" points="513,-112.5 513,-131.5 571,-131.5 571,-112.5 513,-112.5"/>
<text text-anchor="middle" x="542" y="-119.5" font-family="Helvetica,sans-Serif" font-size="10.00">Button.h</text>
</a>
</g>
</g>
<!-- Node18&#45;&gt;Node19 -->
<g id="edge35" class="edge">
<title>Node18&#45;&gt;Node19</title>
<path fill="none" stroke="midnightblue" d="M765.5,-280.36C746.59,-258.99 694.68,-202.84 642,-168 621.53,-154.46 596.32,-143.15 576.33,-135.25"/>
<polygon fill="midnightblue" stroke="midnightblue" points="577.57,-131.98 566.98,-131.65 575.06,-138.51 577.57,-131.98"/>
</g>
<!-- Node19&#45;&gt;Node3 -->
<g id="edge36" class="edge">
<title>Node19&#45;&gt;Node3</title>
<path fill="none" stroke="midnightblue" d="M557.91,-112.32C573.64,-103.74 597.94,-90.49 616.21,-80.52"/>
<polygon fill="midnightblue" stroke="midnightblue" points="618.03,-83.52 625.13,-75.65 614.68,-77.37 618.03,-83.52"/>
</g>
<!-- Node20&#45;&gt;Node3 -->
<g id="edge38" class="edge">
<title>Node20&#45;&gt;Node3</title>
<path fill="none" stroke="midnightblue" d="M1431.95,-168.3C1422.89,-153.63 1402.33,-124.37 1376,-112 1313.36,-82.57 830.76,-70.73 683.51,-67.78"/>
<polygon fill="midnightblue" stroke="midnightblue" points="683.57,-64.28 673.5,-67.58 683.43,-71.28 683.57,-64.28"/>
</g>
<!-- Node20&#45;&gt;Node4 -->
<g id="edge39" class="edge">
<title>Node20&#45;&gt;Node4</title>
<path fill="none" stroke="midnightblue" d="M1432.8,-168.3C1425.83,-154.65 1410.67,-128.13 1391,-112 1372.89,-97.14 1349.09,-86.22 1329.15,-78.87"/>
<polygon fill="midnightblue" stroke="midnightblue" points="1330.31,-75.56 1319.71,-75.54 1327.98,-82.16 1330.31,-75.56"/>
</g>
<!-- Node21 -->
<g id="node21" class="node">
<title>Node21</title>
<g id="a_node21"><a xlink:href="LedTypes_8h.html" target="_top" xlink:title=" ">
<polygon fill="none" stroke="black" points="1261.5,-112.5 1261.5,-131.5 1366.5,-131.5 1366.5,-112.5 1261.5,-112.5"/>
<text text-anchor="middle" x="1314" y="-119.5" font-family="Helvetica,sans-Serif" font-size="10.00">../Leds/LedTypes.h</text>
</a>
</g>
</g>
<!-- Node20&#45;&gt;Node21 -->
<g id="edge40" class="edge">
<title>Node20&#45;&gt;Node21</title>
<path fill="none" stroke="midnightblue" d="M1417.51,-168.44C1397.36,-159.6 1365.68,-145.69 1342.67,-135.59"/>
<polygon fill="midnightblue" stroke="midnightblue" points="1343.96,-132.33 1333.4,-131.52 1341.15,-138.74 1343.96,-132.33"/>
</g>
<!-- Node21&#45;&gt;Node3 -->
<g id="edge41" class="edge">
<title>Node21&#45;&gt;Node3</title>
<path fill="none" stroke="midnightblue" d="M1261.37,-113.63C1256.52,-113.04 1251.67,-112.49 1247,-112 1036.17,-90.03 782.97,-74.83 683.8,-69.3"/>
<polygon fill="midnightblue" stroke="midnightblue" points="683.76,-65.79 673.58,-68.74 683.37,-72.78 683.76,-65.79"/>
</g>
<!-- Node21&#45;&gt;Node4 -->
<g id="edge43" class="edge">
<title>Node21&#45;&gt;Node4</title>
<path fill="none" stroke="midnightblue" d="M1310.04,-112.08C1306.79,-104.77 1302.08,-94.18 1298.05,-85.1"/>
<polygon fill="midnightblue" stroke="midnightblue" points="1301.15,-83.47 1293.89,-75.75 1294.75,-86.31 1301.15,-83.47"/>
</g>
<!-- Node21&#45;&gt;Node12 -->
<g id="edge42" class="edge">
<title>Node21&#45;&gt;Node12</title>
<path fill="none" stroke="midnightblue" d="M1295.94,-112.44C1277.43,-103.68 1248.42,-89.94 1227.14,-79.86"/>
<polygon fill="midnightblue" stroke="midnightblue" points="1228.51,-76.63 1217.98,-75.52 1225.52,-82.96 1228.51,-76.63"/>
</g>
<!-- Node22&#45;&gt;Node4 -->
<g id="edge46" class="edge">
<title>Node22&#45;&gt;Node4</title>
<path fill="none" stroke="midnightblue" d="M1467.66,-224.45C1525.84,-206.79 1642.59,-163.58 1598,-112 1565.87,-74.83 1423.99,-67.76 1344.48,-66.78"/>
<polygon fill="midnightblue" stroke="midnightblue" points="1344.2,-63.28 1334.17,-66.69 1344.13,-70.28 1344.2,-63.28"/>
</g>
<!-- Node22&#45;&gt;Node20 -->
<g id="edge45" class="edge">
<title>Node22&#45;&gt;Node20</title>
<path fill="none" stroke="midnightblue" d="M1437,-224.08C1437,-217.01 1437,-206.86 1437,-197.99"/>
<polygon fill="midnightblue" stroke="midnightblue" points="1440.5,-197.75 1437,-187.75 1433.5,-197.75 1440.5,-197.75"/>
</g>
<!-- Node23&#45;&gt;Node3 -->
<g id="edge48" class="edge">
<title>Node23&#45;&gt;Node3</title>
<path fill="none" stroke="midnightblue" d="M49.22,-168.35C61.97,-153.76 90.08,-124.61 121,-112 207.17,-76.84 489.84,-69.13 598.2,-67.46"/>
<polygon fill="midnightblue" stroke="midnightblue" points="598.48,-70.95 608.43,-67.31 598.38,-63.96 598.48,-70.95"/>
</g>
<!-- Node24&#45;&gt;Node3 -->
<g id="edge62" class="edge">
<title>Node24&#45;&gt;Node3</title>
<path fill="none" stroke="midnightblue" d="M908.06,-280.33C842.37,-251.57 635.91,-159.57 619,-132 609.79,-116.98 618.56,-97.63 627.61,-83.96"/>
<polygon fill="midnightblue" stroke="midnightblue" points="630.69,-85.68 633.71,-75.52 625.01,-81.58 630.69,-85.68"/>
</g>
<!-- Node24&#45;&gt;Node4 -->
<g id="edge61" class="edge">
<title>Node24&#45;&gt;Node4</title>
<path fill="none" stroke="midnightblue" d="M925.14,-280.14C916.48,-251.41 893.78,-159.92 939,-112 982.81,-65.57 1155.25,-83.82 1235.54,-75.9"/>
<polygon fill="midnightblue" stroke="midnightblue" points="1236.27,-79.34 1245.78,-74.67 1235.43,-72.39 1236.27,-79.34"/>
</g>
<!-- Node24&#45;&gt;Node10 -->
<g id="edge50" class="edge">
<title>Node24&#45;&gt;Node10</title>
<path fill="none" stroke="midnightblue" d="M881.25,-282.86C809.78,-273.47 672.81,-255.47 588.71,-244.42"/>
<polygon fill="midnightblue" stroke="midnightblue" points="589.1,-240.94 578.73,-243.11 588.19,-247.88 589.1,-240.94"/>
</g>
<!-- Node25 -->
<g id="node25" class="node">
<title>Node25</title>
<g id="a_node25"><a xlink:href="ColorTypes_8h.html" target="_top" xlink:title=" ">
<polygon fill="none" stroke="black" points="1083,-112.5 1083,-131.5 1205,-131.5 1205,-112.5 1083,-112.5"/>
<text text-anchor="middle" x="1144" y="-119.5" font-family="Helvetica,sans-Serif" font-size="10.00">../Colors/ColorTypes.h</text>
</a>
</g>
</g>
<!-- Node24&#45;&gt;Node25 -->
<g id="edge51" class="edge">
<title>Node24&#45;&gt;Node25</title>
<path fill="none" stroke="midnightblue" d="M935.23,-280.48C942.79,-271.51 954.93,-256.93 965,-244 990.78,-210.9 987.43,-193.17 1021,-168 1042.25,-152.07 1069.72,-141.31 1093.31,-134.31"/>
<polygon fill="midnightblue" stroke="midnightblue" points="1094.47,-137.62 1103.15,-131.54 1092.57,-130.88 1094.47,-137.62"/>
</g>
<!-- Node26 -->
<g id="node26" class="node">
<title>Node26</title>
<g id="a_node26"><a xlink:href="Patterns_8h.html" target="_top" xlink:title=" ">
<polygon fill="none" stroke="black" points="947.5,-112.5 947.5,-131.5 1064.5,-131.5 1064.5,-112.5 947.5,-112.5"/>
<text text-anchor="middle" x="1006" y="-119.5" font-family="Helvetica,sans-Serif" font-size="10.00">../Patterns/Patterns.h</text>
</a>
</g>
</g>
<!-- Node24&#45;&gt;Node26 -->
<g id="edge55" class="edge">
<title>Node24&#45;&gt;Node26</title>
<path fill="none" stroke="midnightblue" d="M931.45,-280.36C939.53,-260.34 960.54,-209.31 981,-168 985.56,-158.79 991.07,-148.77 995.75,-140.53"/>
<polygon fill="midnightblue" stroke="midnightblue" points="998.81,-142.24 1000.77,-131.83 992.74,-138.75 998.81,-142.24"/>
</g>
<!-- Node24&#45;&gt;Node27 -->
<g id="edge57" class="edge">
<title>Node24&#45;&gt;Node27</title>
<path fill="none" stroke="midnightblue" d="M946.99,-280.48C964.07,-272.36 989.4,-259.15 1009,-244 1027.6,-229.62 1045.79,-209.65 1057.6,-195.64"/>
<polygon fill="midnightblue" stroke="midnightblue" points="1060.41,-197.74 1064.08,-187.8 1055.01,-193.28 1060.41,-197.74"/>
</g>
<!-- Node25&#45;&gt;Node3 -->
<g id="edge52" class="edge">
<title>Node25&#45;&gt;Node3</title>
<path fill="none" stroke="midnightblue" d="M1082.93,-113.06C1079.91,-112.69 1076.92,-112.34 1074,-112 931.32,-95.42 761.83,-78.65 683.98,-71.12"/>
<polygon fill="midnightblue" stroke="midnightblue" points="683.91,-67.59 673.62,-70.12 683.24,-74.56 683.91,-67.59"/>
</g>
<!-- Node25&#45;&gt;Node4 -->
<g id="edge53" class="edge">
<title>Node25&#45;&gt;Node4</title>
<path fill="none" stroke="midnightblue" d="M1167.13,-112.44C1191.48,-103.44 1230.01,-89.19 1257.42,-79.05"/>
<polygon fill="midnightblue" stroke="midnightblue" points="1258.81,-82.27 1266.97,-75.52 1256.38,-75.7 1258.81,-82.27"/>
</g>
<!-- Node25&#45;&gt;Node5 -->
<g id="edge54" class="edge">
<title>Node25&#45;&gt;Node5</title>
<path fill="none" stroke="midnightblue" d="M1144.9,-112.33C1146.62,-99.2 1151.27,-73.9 1163,-56 1171.02,-43.76 1183.38,-33.11 1194.25,-25.25"/>
<polygon fill="midnightblue" stroke="midnightblue" points="1196.27,-28.11 1202.54,-19.56 1192.31,-22.33 1196.27,-28.11"/>
</g>
<!-- Node26&#45;&gt;Node3 -->
<g id="edge56" class="edge">
<title>Node26&#45;&gt;Node3</title>
<path fill="none" stroke="midnightblue" d="M948.16,-112.44C874.51,-101.55 748.97,-82.97 683.52,-73.29"/>
<polygon fill="midnightblue" stroke="midnightblue" points="683.96,-69.82 673.55,-71.82 682.93,-76.74 683.96,-69.82"/>
</g>
<!-- Node27&#45;&gt;Node3 -->
<g id="edge58" class="edge">
<title>Node27&#45;&gt;Node3</title>
<path fill="none" stroke="midnightblue" d="M1037.62,-168.46C960.35,-148.69 769.28,-99.81 683.67,-77.92"/>
<polygon fill="midnightblue" stroke="midnightblue" points="684.33,-74.47 673.77,-75.38 682.59,-81.25 684.33,-74.47"/>
</g>
<!-- Node27&#45;&gt;Node21 -->
<g id="edge60" class="edge">
<title>Node27&#45;&gt;Node21</title>
<path fill="none" stroke="midnightblue" d="M1109.5,-168.44C1151.81,-159.04 1219.82,-143.93 1265.67,-133.74"/>
<polygon fill="midnightblue" stroke="midnightblue" points="1266.67,-137.1 1275.68,-131.52 1265.15,-130.27 1266.67,-137.1"/>
</g>
<!-- Node27&#45;&gt;Node25 -->
<g id="edge59" class="edge">
<title>Node27&#45;&gt;Node25</title>
<path fill="none" stroke="midnightblue" d="M1082.73,-168.32C1093.84,-160.11 1110.74,-147.6 1123.98,-137.81"/>
<polygon fill="midnightblue" stroke="midnightblue" points="1126.1,-140.59 1132.06,-131.83 1121.94,-134.97 1126.1,-140.59"/>
</g>
<!-- Node28&#45;&gt;Node3 -->
<g id="edge64" class="edge">
<title>Node28&#45;&gt;Node3</title>
<path fill="none" stroke="midnightblue" d="M1204.06,-224.3C1216.12,-202.29 1243.46,-143.86 1214,-112 1178.21,-73.29 811.1,-67.83 684.02,-67.1"/>
<polygon fill="midnightblue" stroke="midnightblue" points="683.9,-63.6 673.88,-67.05 683.86,-70.6 683.9,-63.6"/>
</g>
<!-- Node28&#45;&gt;Node21 -->
<g id="edge66" class="edge">
<title>Node28&#45;&gt;Node21</title>
<path fill="none" stroke="midnightblue" d="M1206.06,-224.15C1216.56,-211.22 1237.18,-186.66 1257,-168 1268.44,-157.23 1282.26,-146.27 1293.42,-137.87"/>
<polygon fill="midnightblue" stroke="midnightblue" points="1295.76,-140.5 1301.71,-131.73 1291.59,-134.87 1295.76,-140.5"/>
</g>
<!-- Node28&#45;&gt;Node25 -->
<g id="edge65" class="edge">
<title>Node28&#45;&gt;Node25</title>
<path fill="none" stroke="midnightblue" d="M1194.68,-224.37C1185.69,-206.38 1164.78,-164.55 1152.81,-140.63"/>
<polygon fill="midnightblue" stroke="midnightblue" points="1155.9,-138.97 1148.3,-131.59 1149.64,-142.1 1155.9,-138.97"/>
</g>
<!-- Node28&#45;&gt;Node29 -->
<g id="edge67" class="edge">
<title>Node28&#45;&gt;Node29</title>
<path fill="none" stroke="midnightblue" d="M1217.22,-224.44C1235.9,-215.68 1265.16,-201.94 1286.62,-191.86"/>
<polygon fill="midnightblue" stroke="midnightblue" points="1288.3,-194.93 1295.86,-187.52 1285.32,-188.6 1288.3,-194.93"/>
</g>
<!-- Node29&#45;&gt;Node4 -->
<g id="edge70" class="edge">
<title>Node29&#45;&gt;Node4</title>
<path fill="none" stroke="midnightblue" d="M1333.33,-168.41C1356.36,-156.9 1390.05,-135.21 1376,-112 1366.59,-96.46 1349.85,-86.02 1333.62,-79.15"/>
<polygon fill="midnightblue" stroke="midnightblue" points="1334.77,-75.85 1324.18,-75.51 1332.25,-82.37 1334.77,-75.85"/>
</g>
<!-- Node29&#45;&gt;Node21 -->
<g id="edge68" class="edge">
<title>Node29&#45;&gt;Node21</title>
<path fill="none" stroke="midnightblue" d="M1314,-168.08C1314,-161.01 1314,-150.86 1314,-141.99"/>
<polygon fill="midnightblue" stroke="midnightblue" points="1317.5,-141.75 1314,-131.75 1310.5,-141.75 1317.5,-141.75"/>
</g>
<!-- Node29&#45;&gt;Node26 -->
<g id="edge69" class="edge">
<title>Node29&#45;&gt;Node26</title>
<path fill="none" stroke="midnightblue" d="M1265.2,-168.44C1210.79,-158.9 1122.83,-143.48 1064.71,-133.29"/>
<polygon fill="midnightblue" stroke="midnightblue" points="1065.03,-129.8 1054.58,-131.52 1063.82,-136.69 1065.03,-129.8"/>
</g>
</g>
</svg>
        <g id="navigator" transform="translate(0 0)" fill="#404254">
                <rect fill="#f2f5e9" fill-opacity="0.5" stroke="#606060" stroke-width=".5" x="0" y="0" width="60" height="60"/>
                <use id="zoomplus" xlink:href="#zoomPlus" x="17" y="9" onmousedown="handleZoom(evt,'in')"/>
                <use id="zoomminus" xlink:href="#zoomMin" x="42" y="9" onmousedown="handleZoom(evt,'out')"/>
                <use id="reset" xlink:href="#resetDef" x="30" y="36" onmousedown="handleReset()"/>
                <g id="arrowUp" xlink:href="#dirArrow" transform="translate(30 24)" onmousedown="handlePan(0,-1)">
                  <use xlink:href="#rim" fill="#404040">
                        <set attributeName="fill" to="#808080" begin="arrowUp.mouseover" end="arrowUp.mouseout"/>
                  </use>
                  <path fill="none" stroke="white" stroke-width="1.5" d="M0,-3.0v7 M-2.5,-0.5L0,-3.0L2.5,-0.5"/>
                </g>
                <g id="arrowRight" xlink:href="#dirArrow" transform="rotate(90) translate(36 -43)" onmousedown="handlePan(1,0)">
                  <use xlink:href="#rim" fill="#404040">
                        <set attributeName="fill" to="#808080" begin="arrowRight.mouseover" end="arrowRight.mouseout"/>
                  </use>
                  <path fill="none" stroke="white" stroke-width="1.5" d="M0,-3.0v7 M-2.5,-0.5L0,-3.0L2.5,-0.5"/>
                </g>
                <g id="arrowDown" xlink:href="#dirArrow" transform="rotate(180) translate(-30 -48)" onmousedown="handlePan(0,1)">
                  <use xlink:href="#rim" fill="#404040">
                        <set attributeName="fill" to="#808080" begin="arrowDown.mouseover" end="arrowDown.mouseout"/>
                  </use>
                  <path fill="none" stroke="white" stroke-width="1.5" d="M0,-3.0v7 M-2.5,-0.5L0,-3.0L2.5,-0.5"/>
                </g>
                <g id="arrowLeft" xlink:href="#dirArrow" transform="rotate(270) translate(-36 17)" onmousedown="handlePan(-1,0)">
                  <use xlink:href="#rim" fill="#404040">
                        <set attributeName="fill" to="#808080" begin="arrowLeft.mouseover" end="arrowLeft.mouseout"/>
                  </use>
                  <path fill="none" stroke="white" stroke-width="1.5" d="M0,-3.0v7 M-2.5,-0.5L0,-3.0L2.5,-0.5"/>
                </g>
        </g>
        <svg viewBox="0 0 15 15" width="100%" height="30px" preserveAspectRatio="xMaxYMin meet">
         <g id="arrow_out" transform="scale(0.3 0.3)">
          <a xlink:href="VortexEngine_8cpp__incl_org.svg" target="_base">
           <rect id="button" ry="5" rx="5" y="6" x="6" height="38" width="38"
                fill="#f2f5e9" fill-opacity="0.5" stroke="#606060" stroke-width="1.0"/>
           <path id="arrow"
             d="M 11.500037,31.436501 C 11.940474,20.09759 22.043105,11.32322 32.158766,21.979434 L 37.068811,17.246167 C 37.068811,17.246167 37.088388,32 37.088388,32 L 22.160133,31.978069 C 22.160133,31.978069 26.997745,27.140456 26.997745,27.140456 C 18.528582,18.264221 13.291696,25.230495 11.500037,31.436501 z"
             style="fill:#404040;"/>
          </a>
         </g>
        </svg>
</svg>
