<?xml version="1.0" encoding="UTF-8" standalone="no"?>
<!DOCTYPE svg PUBLIC "-//W3C//DTD SVG 1.1//EN"
 "http://www.w3.org/Graphics/SVG/1.1/DTD/svg11.dtd">
<!-- Generated by graphviz version 2.43.0 (0)
 -->
<!-- Title: VortexEngine/src/VortexEngine.cpp Pages: 1 -->
<!--zoomable 364 -->
<svg id="main" version="1.1" xmlns="http://www.w3.org/2000/svg" xmlns:xlink="http://www.w3.org/1999/xlink" xml:space="preserve" onload="init(evt)">
<style type="text/css"><![CDATA[
.edge:hover path { stroke: red; }
.edge:hover polygon { stroke: red; fill: red; }
]]></style>
<script type="text/javascript"><![CDATA[
var edges = document.getElementsByTagName('g');
if (edges && edges.length) {
  for (var i=0;i<edges.length;i++) {
    if (edges[i].id.substr(0,4)=='edge') {
      edges[i].setAttribute('class','edge');
    }
  }
}
]]></script>
        <defs>
                <circle id="rim" cx="0" cy="0" r="7"/>
                <circle id="rim2" cx="0" cy="0" r="3.5"/>
                <g id="zoomPlus">
                        <use xlink:href="#rim" fill="#404040">
                                <set attributeName="fill" to="#808080" begin="zoomplus.mouseover" end="zoomplus.mouseout"/>
                        </use>
                        <path d="M-4,0h8M0,-4v8" fill="none" stroke="white" stroke-width="1.5" pointer-events="none"/>
                </g>
                <g id="zoomMin">
                        <use xlink:href="#rim" fill="#404040">
                                <set attributeName="fill" to="#808080" begin="zoomminus.mouseover" end="zoomminus.mouseout"/>
                        </use>
                        <path d="M-4,0h8" fill="none" stroke="white" stroke-width="1.5" pointer-events="none"/>
                </g>
                <g id="dirArrow">
                        <path fill="none" stroke="white" stroke-width="1.5" d="M0,-3.0v7 M-2.5,-0.5L0,-3.0L2.5,-0.5"/>
                </g>
               <g id="resetDef">
                       <use xlink:href="#rim2" fill="#404040">
                               <set attributeName="fill" to="#808080" begin="reset.mouseover" end="reset.mouseout"/>
                       </use>
               </g>
        </defs>

<script type="text/javascript">
var viewWidth = 1551;
var viewHeight = 364;
var sectionId = 'dynsection-0';
</script>
<script xlink:href="svgpan.js"/>
<svg id="graph" class="graph">
<g id="viewport">
<title>VortexEngine/src/VortexEngine.cpp</title>
<!-- Node1 -->
<g id="node1" class="node">
<title>Node1</title>
<g id="a_node1"><a xlink:title=" ">
<polygon fill="#bfbfbf" stroke="black" points="762,-336.5 762,-355.5 948,-355.5 948,-336.5 762,-336.5"/>
<text text-anchor="middle" x="855" y="-343.5" font-family="Helvetica,sans-Serif" font-size="10.00">VortexEngine/src/VortexEngine.cpp</text>
</a>
</g>
</g>
<!-- Node2 -->
<g id="node2" class="node">
<title>Node2</title>
<g id="a_node2"><a xlink:href="VortexEngine_8h.html" target="_top" xlink:title=" ">
<polygon fill="none" stroke="black" points="875,-112.5 875,-131.5 965,-131.5 965,-112.5 875,-112.5"/>
<text text-anchor="middle" x="920" y="-119.5" font-family="Helvetica,sans-Serif" font-size="10.00">VortexEngine.h</text>
</a>
</g>
</g>
<!-- Node1&#45;&gt;Node2 -->
<g id="edge1" class="edge">
<title>Node1&#45;&gt;Node2</title>
<path fill="none" stroke="midnightblue" d="M922.7,-336.45C966.72,-329.34 1018.38,-317.52 1032,-300 1076.17,-243.2 985.15,-168.46 941.54,-137.45"/>
<polygon fill="midnightblue" stroke="midnightblue" points="943.46,-134.53 933.26,-131.68 939.46,-140.27 943.46,-134.53"/>
</g>
<!-- Node6 -->
<g id="node6" class="node">
<title>Node6</title>
<g id="a_node6"><a xlink:href="IRReceiver_8h.html" target="_top" xlink:title=" ">
<polygon fill="none" stroke="black" points="149,-280.5 149,-299.5 271,-299.5 271,-280.5 149,-280.5"/>
<text text-anchor="middle" x="210" y="-287.5" font-family="Helvetica,sans-Serif" font-size="10.00">Wireless/IRReceiver.h</text>
</a>
</g>
</g>
<!-- Node1&#45;&gt;Node6 -->
<g id="edge5" class="edge">
<title>Node1&#45;&gt;Node6</title>
<path fill="none" stroke="midnightblue" d="M761.59,-338.8C648.61,-331.02 452.68,-316.67 285,-300 283.89,-299.89 282.77,-299.78 281.65,-299.66"/>
<polygon fill="midnightblue" stroke="midnightblue" points="281.69,-296.15 271.37,-298.57 280.95,-303.11 281.69,-296.15"/>
</g>
<!-- Node8 -->
<g id="node8" class="node">
<title>Node8</title>
<g id="a_node8"><a xlink:href="IRConfig_8h.html" target="_top" xlink:title=" ">
<polygon fill="none" stroke="black" points="102,-224.5 102,-243.5 168,-243.5 168,-224.5 102,-224.5"/>
<text text-anchor="middle" x="135" y="-231.5" font-family="Helvetica,sans-Serif" font-size="10.00">IRConfig.h</text>
</a>
</g>
</g>
<!-- Node1&#45;&gt;Node8 -->
<g id="edge30" class="edge">
<title>Node1&#45;&gt;Node8</title>
<path fill="none" stroke="midnightblue" d="M761.68,-345.8C577.95,-346.42 183.31,-342.71 140,-300 128.06,-288.22 128.27,-268.29 130.56,-253.6"/>
<polygon fill="midnightblue" stroke="midnightblue" points="134.03,-254.1 132.55,-243.61 127.17,-252.73 134.03,-254.1"/>
</g>
<!-- Node9 -->
<g id="node9" class="node">
<title>Node9</title>
<g id="a_node9"><a xlink:href="IRSender_8h.html" target="_top" xlink:title=" ">
<polygon fill="none" stroke="black" points="370.5,-280.5 370.5,-299.5 483.5,-299.5 483.5,-280.5 370.5,-280.5"/>
<text text-anchor="middle" x="427" y="-287.5" font-family="Helvetica,sans-Serif" font-size="10.00">Wireless/IRSender.h</text>
</a>
</g>
</g>
<!-- Node1&#45;&gt;Node9 -->
<g id="edge10" class="edge">
<title>Node1&#45;&gt;Node9</title>
<path fill="none" stroke="midnightblue" d="M784.56,-336.49C713.79,-327.89 601.33,-314.07 493.59,-300.06"/>
<polygon fill="midnightblue" stroke="midnightblue" points="493.89,-296.57 483.52,-298.75 492.98,-303.51 493.89,-296.57"/>
</g>
<!-- Node14 -->
<g id="node14" class="node">
<title>Node14</title>
<g id="a_node14"><a xlink:href="VLReceiver_8h.html" target="_top" xlink:title=" ">
<polygon fill="none" stroke="black" points="747.5,-280.5 747.5,-299.5 872.5,-299.5 872.5,-280.5 747.5,-280.5"/>
<text text-anchor="middle" x="810" y="-287.5" font-family="Helvetica,sans-Serif" font-size="10.00">Wireless/VLReceiver.h</text>
</a>
</g>
</g>
<!-- Node1&#45;&gt;Node14 -->
<g id="edge21" class="edge">
<title>Node1&#45;&gt;Node14</title>
<path fill="none" stroke="midnightblue" d="M847.57,-336.08C841.15,-328.38 831.69,-317.03 823.88,-307.65"/>
<polygon fill="midnightblue" stroke="midnightblue" points="826.38,-305.19 817.29,-299.75 821.01,-309.67 826.38,-305.19"/>
</g>
<!-- Node15 -->
<g id="node15" class="node">
<title>Node15</title>
<g id="a_node15"><a xlink:href="VLConfig_8h.html" target="_top" xlink:title=" ">
<polygon fill="none" stroke="black" points="867,-224.5 867,-243.5 935,-243.5 935,-224.5 867,-224.5"/>
<text text-anchor="middle" x="901" y="-231.5" font-family="Helvetica,sans-Serif" font-size="10.00">VLConfig.h</text>
</a>
</g>
</g>
<!-- Node1&#45;&gt;Node15 -->
<g id="edge31" class="edge">
<title>Node1&#45;&gt;Node15</title>
<path fill="none" stroke="midnightblue" d="M861.08,-336.4C867.07,-327.59 876.16,-313.36 882,-300 888.63,-284.85 893.71,-266.73 896.94,-253.48"/>
<polygon fill="midnightblue" stroke="midnightblue" points="900.37,-254.19 899.21,-243.66 893.55,-252.61 900.37,-254.19"/>
</g>
<!-- Node16 -->
<g id="node16" class="node">
<title>Node16</title>
<g id="a_node16"><a xlink:href="VLSender_8h.html" target="_top" xlink:title=" ">
<polygon fill="none" stroke="black" points="613,-280.5 613,-299.5 729,-299.5 729,-280.5 613,-280.5"/>
<text text-anchor="middle" x="671" y="-287.5" font-family="Helvetica,sans-Serif" font-size="10.00">Wireless/VLSender.h</text>
</a>
</g>
</g>
<!-- Node1&#45;&gt;Node16 -->
<g id="edge26" class="edge">
<title>Node1&#45;&gt;Node16</title>
<path fill="none" stroke="midnightblue" d="M825.84,-336.44C794.49,-327.24 744.47,-312.56 709.8,-302.39"/>
<polygon fill="midnightblue" stroke="midnightblue" points="710.6,-298.97 700.02,-299.52 708.63,-305.69 710.6,-298.97"/>
</g>
<!-- Node17 -->
<g id="node17" class="node">
<title>Node17</title>
<g id="a_node17"><a xlink:href="Storage_8h.html" target="_top" xlink:title=" ">
<polygon fill="none" stroke="black" points="179,-168.5 179,-187.5 283,-187.5 283,-168.5 179,-168.5"/>
<text text-anchor="middle" x="231" y="-175.5" font-family="Helvetica,sans-Serif" font-size="10.00">Storage/Storage.h</text>
</a>
</g>
</g>
<!-- Node1&#45;&gt;Node17 -->
<g id="edge32" class="edge">
<title>Node1&#45;&gt;Node17</title>
<path fill="none" stroke="midnightblue" d="M761.97,-344.7C635.08,-342.95 415.34,-334.79 344,-300 296.16,-276.67 258.41,-223.79 241.18,-196.31"/>
<polygon fill="midnightblue" stroke="midnightblue" points="244.15,-194.45 235.96,-187.74 238.17,-198.1 244.15,-194.45"/>
</g>
<!-- Node18 -->
<g id="node18" class="node">
<title>Node18</title>
<g id="a_node18"><a xlink:href="Buttons_8h.html" target="_top" xlink:title=" ">
<polygon fill="none" stroke="black" points="1068,-168.5 1068,-187.5 1172,-187.5 1172,-168.5 1068,-168.5"/>
<text text-anchor="middle" x="1120" y="-175.5" font-family="Helvetica,sans-Serif" font-size="10.00">Buttons/Buttons.h</text>
</a>
</g>
</g>
<!-- Node1&#45;&gt;Node18 -->
<g id="edge34" class="edge">
<title>Node1&#45;&gt;Node18</title>
<path fill="none" stroke="midnightblue" d="M927.6,-336.48C979.59,-329.09 1043.98,-316.92 1065,-300 1097.4,-273.92 1111.44,-224.58 1116.91,-197.66"/>
<polygon fill="midnightblue" stroke="midnightblue" points="1120.39,-198.1 1118.76,-187.63 1113.51,-196.83 1120.39,-198.1"/>
</g>
<!-- Node20 -->
<g id="node20" class="node">
<title>Node20</title>
<g id="a_node20"><a xlink:href="TimeControl_8h.html" target="_top" xlink:title=" ">
<polygon fill="none" stroke="black" points="1416.5,-168.5 1416.5,-187.5 1529.5,-187.5 1529.5,-168.5 1416.5,-168.5"/>
<text text-anchor="middle" x="1473" y="-175.5" font-family="Helvetica,sans-Serif" font-size="10.00">Time/TimeControl.h</text>
</a>
</g>
</g>
<!-- Node1&#45;&gt;Node20 -->
<g id="edge38" class="edge">
<title>Node1&#45;&gt;Node20</title>
<path fill="none" stroke="midnightblue" d="M948.17,-336.69C1009.13,-329.92 1090.13,-318.41 1160,-300 1269.25,-271.21 1392.6,-216.6 1445.99,-191.81"/>
<polygon fill="midnightblue" stroke="midnightblue" points="1447.55,-194.95 1455.13,-187.54 1444.58,-188.61 1447.55,-194.95"/>
</g>
<!-- Node22 -->
<g id="node22" class="node">
<title>Node22</title>
<g id="a_node22"><a xlink:href="Timings_8h.html" target="_top" xlink:title=" ">
<polygon fill="none" stroke="black" points="1427,-224.5 1427,-243.5 1519,-243.5 1519,-224.5 1427,-224.5"/>
<text text-anchor="middle" x="1473" y="-231.5" font-family="Helvetica,sans-Serif" font-size="10.00">Time/Timings.h</text>
</a>
</g>
</g>
<!-- Node1&#45;&gt;Node22 -->
<g id="edge45" class="edge">
<title>Node1&#45;&gt;Node22</title>
<path fill="none" stroke="midnightblue" d="M948.29,-344.17C1037.12,-341.32 1173.81,-331.54 1288,-300 1308.32,-294.39 1311.36,-287.64 1331,-280 1364.63,-266.91 1403.79,-254.72 1432.46,-246.34"/>
<polygon fill="midnightblue" stroke="midnightblue" points="1433.5,-249.68 1442.14,-243.54 1431.56,-242.96 1433.5,-249.68"/>
</g>
<!-- Node23 -->
<g id="node23" class="node">
<title>Node23</title>
<g id="a_node23"><a xlink:href="Serial_8h.html" target="_top" xlink:title=" ">
<polygon fill="none" stroke="black" points="0,-224.5 0,-243.5 84,-243.5 84,-224.5 0,-224.5"/>
<text text-anchor="middle" x="42" y="-231.5" font-family="Helvetica,sans-Serif" font-size="10.00">Serial/Serial.h</text>
</a>
</g>
</g>
<!-- Node1&#45;&gt;Node23 -->
<g id="edge48" class="edge">
<title>Node1&#45;&gt;Node23</title>
<path fill="none" stroke="midnightblue" d="M761.94,-345.94C592.53,-346.56 240.74,-342.46 127,-300 99.14,-289.6 72.88,-266.79 57.12,-251.15"/>
<polygon fill="midnightblue" stroke="midnightblue" points="59.37,-248.45 49.88,-243.74 54.36,-253.34 59.37,-248.45"/>
</g>
<!-- Node24 -->
<g id="node24" class="node">
<title>Node24</title>
<g id="a_node24"><a xlink:href="Modes_8h.html" target="_top" xlink:title=" ">
<polygon fill="none" stroke="black" points="501.5,-280.5 501.5,-299.5 594.5,-299.5 594.5,-280.5 501.5,-280.5"/>
<text text-anchor="middle" x="548" y="-287.5" font-family="Helvetica,sans-Serif" font-size="10.00">Modes/Modes.h</text>
</a>
</g>
</g>
<!-- Node1&#45;&gt;Node24 -->
<g id="edge50" class="edge">
<title>Node1&#45;&gt;Node24</title>
<path fill="none" stroke="midnightblue" d="M806.35,-336.44C751.57,-326.81 662.64,-311.17 604.74,-300.98"/>
<polygon fill="midnightblue" stroke="midnightblue" points="605.11,-297.49 594.66,-299.21 603.9,-304.39 605.11,-297.49"/>
</g>
<!-- Node27 -->
<g id="node27" class="node">
<title>Node27</title>
<g id="a_node27"><a xlink:href="Leds_8h.html" target="_top" xlink:title=" ">
<polygon fill="none" stroke="black" points="301.5,-168.5 301.5,-187.5 384.5,-187.5 384.5,-168.5 301.5,-168.5"/>
<text text-anchor="middle" x="343" y="-175.5" font-family="Helvetica,sans-Serif" font-size="10.00">../Leds/Leds.h</text>
</a>
</g>
</g>
<!-- Node1&#45;&gt;Node27 -->
<g id="edge77" class="edge">
<title>Node1&#45;&gt;Node27</title>
<path fill="none" stroke="midnightblue" d="M761.83,-342.58C627.02,-338.17 390.49,-326.71 362,-300 334.03,-273.79 336.03,-224.5 339.66,-197.63"/>
<polygon fill="midnightblue" stroke="midnightblue" points="343.14,-198.04 341.23,-187.62 336.22,-196.95 343.14,-198.04"/>
</g>
<!-- Node28 -->
<g id="node28" class="node">
<title>Node28</title>
<g id="a_node28"><a xlink:href="Menus_8h.html" target="_top" xlink:title=" ">
<polygon fill="none" stroke="black" points="929.5,-280.5 929.5,-299.5 1022.5,-299.5 1022.5,-280.5 929.5,-280.5"/>
<text text-anchor="middle" x="976" y="-287.5" font-family="Helvetica,sans-Serif" font-size="10.00">Menus/Menus.h</text>
</a>
</g>
</g>
<!-- Node1&#45;&gt;Node28 -->
<g id="edge64" class="edge">
<title>Node1&#45;&gt;Node28</title>
<path fill="none" stroke="midnightblue" d="M874.17,-336.44C893.91,-327.64 924.89,-313.81 947.49,-303.72"/>
<polygon fill="midnightblue" stroke="midnightblue" points="949.21,-306.79 956.92,-299.52 946.36,-300.4 949.21,-306.79"/>
</g>
<!-- Node29 -->
<g id="node29" class="node">
<title>Node29</title>
<g id="a_node29"><a xlink:href="Mode_8h.html" target="_top" xlink:title=" ">
<polygon fill="none" stroke="black" points="1148.5,-224.5 1148.5,-243.5 1245.5,-243.5 1245.5,-224.5 1148.5,-224.5"/>
<text text-anchor="middle" x="1197" y="-231.5" font-family="Helvetica,sans-Serif" font-size="10.00">../Modes/Mode.h</text>
</a>
</g>
</g>
<!-- Node1&#45;&gt;Node29 -->
<g id="edge76" class="edge">
<title>Node1&#45;&gt;Node29</title>
<path fill="none" stroke="midnightblue" d="M946.62,-336.5C1015.07,-328.99 1102.08,-316.64 1134,-300 1155.47,-288.81 1173.91,-267.56 1185.19,-252.4"/>
<polygon fill="midnightblue" stroke="midnightblue" points="1188.3,-254.07 1191.26,-243.89 1182.6,-250 1188.3,-254.07"/>
</g>
<!-- Node31 -->
<g id="node31" class="node">
<title>Node31</title>
<g id="a_node31"><a xlink:title=" ">
<polygon fill="none" stroke="#bfbfbf" points="1340,-280.5 1340,-299.5 1426,-299.5 1426,-280.5 1340,-280.5"/>
<text text-anchor="middle" x="1383" y="-287.5" font-family="Helvetica,sans-Serif" font-size="10.00">avr/interrupt.h</text>
</a>
</g>
</g>
<!-- Node1&#45;&gt;Node31 -->
<g id="edge78" class="edge">
<title>Node1&#45;&gt;Node31</title>
<path fill="none" stroke="midnightblue" d="M948.13,-337.8C1043.28,-330.04 1195.2,-316.56 1326,-300 1327.26,-299.84 1328.53,-299.68 1329.81,-299.5"/>
<polygon fill="midnightblue" stroke="midnightblue" points="1330.36,-302.96 1339.78,-298.11 1329.39,-296.03 1330.36,-302.96"/>
</g>
<!-- Node32 -->
<g id="node32" class="node">
<title>Node32</title>
<g id="a_node32"><a xlink:title=" ">
<polygon fill="none" stroke="#bfbfbf" points="1444.5,-280.5 1444.5,-299.5 1515.5,-299.5 1515.5,-280.5 1444.5,-280.5"/>
<text text-anchor="middle" x="1480" y="-287.5" font-family="Helvetica,sans-Serif" font-size="10.00">avr/sleep.h</text>
</a>
</g>
</g>
<!-- Node1&#45;&gt;Node32 -->
<g id="edge79" class="edge">
<title>Node1&#45;&gt;Node32</title>
<path fill="none" stroke="midnightblue" d="M948.04,-341.22C1060.77,-335.87 1256.61,-324.09 1434.16,-299.94"/>
<polygon fill="midnightblue" stroke="midnightblue" points="1434.77,-303.39 1444.2,-298.56 1433.82,-296.46 1434.77,-303.39"/>
</g>
<!-- Node3 -->
<g id="node3" class="node">
<title>Node3</title>
<g id="a_node3"><a xlink:title=" ">
<polygon fill="none" stroke="#bfbfbf" points="513.5,-56.5 513.5,-75.5 578.5,-75.5 578.5,-56.5 513.5,-56.5"/>
<text text-anchor="middle" x="546" y="-63.5" font-family="Helvetica,sans-Serif" font-size="10.00">inttypes.h</text>
</a>
</g>
</g>
<!-- Node2&#45;&gt;Node3 -->
<g id="edge2" class="edge">
<title>Node2&#45;&gt;Node3</title>
<path fill="none" stroke="midnightblue" d="M874.89,-114.49C802.11,-103.98 659.79,-83.43 588.63,-73.16"/>
<polygon fill="midnightblue" stroke="midnightblue" points="589.06,-69.68 578.67,-71.72 588.06,-76.61 589.06,-69.68"/>
</g>
<!-- Node4 -->
<g id="node4" class="node">
<title>Node4</title>
<g id="a_node4"><a xlink:href="VortexConfig_8h.html" target="_top" xlink:title=" ">
<polygon fill="none" stroke="black" points="1104,-56.5 1104,-75.5 1192,-75.5 1192,-56.5 1104,-56.5"/>
<text text-anchor="middle" x="1148" y="-63.5" font-family="Helvetica,sans-Serif" font-size="10.00">VortexConfig.h</text>
</a>
</g>
</g>
<!-- Node2&#45;&gt;Node4 -->
<g id="edge3" class="edge">
<title>Node2&#45;&gt;Node4</title>
<path fill="none" stroke="midnightblue" d="M956.13,-112.44C995.65,-103.08 1059.1,-88.06 1102.11,-77.87"/>
<polygon fill="midnightblue" stroke="midnightblue" points="1103.12,-81.23 1112.04,-75.52 1101.5,-74.42 1103.12,-81.23"/>
</g>
<!-- Node5 -->
<g id="node5" class="node">
<title>Node5</title>
<g id="a_node5"><a xlink:href="ColorConstants_8h.html" target="_top" xlink:title=" ">
<polygon fill="none" stroke="black" points="707,-0.5 707,-19.5 841,-19.5 841,-0.5 707,-0.5"/>
<text text-anchor="middle" x="774" y="-7.5" font-family="Helvetica,sans-Serif" font-size="10.00">Colors/ColorConstants.h</text>
</a>
</g>
</g>
<!-- Node4&#45;&gt;Node5 -->
<g id="edge4" class="edge">
<title>Node4&#45;&gt;Node5</title>
<path fill="none" stroke="midnightblue" d="M1104,-58.65C1039.6,-49.35 919.07,-31.95 842.86,-20.94"/>
<polygon fill="midnightblue" stroke="midnightblue" points="843.27,-17.47 832.88,-19.5 842.27,-24.39 843.27,-17.47"/>
</g>
<!-- Node6&#45;&gt;Node3 -->
<g id="edge6" class="edge">
<title>Node6&#45;&gt;Node3</title>
<path fill="none" stroke="midnightblue" d="M205.34,-280.32C192.61,-256.11 158.98,-188.33 170,-168 191.74,-127.9 213.4,-128.31 256,-112 339.54,-80.02 444.9,-70.74 502.85,-68.07"/>
<polygon fill="midnightblue" stroke="midnightblue" points="503.26,-71.55 513.11,-67.64 502.97,-64.56 503.26,-71.55"/>
</g>
<!-- Node7 -->
<g id="node7" class="node">
<title>Node7</title>
<g id="a_node7"><a xlink:href="BitStream_8h.html" target="_top" xlink:title=" ">
<polygon fill="none" stroke="black" points="479,-224.5 479,-243.5 593,-243.5 593,-224.5 479,-224.5"/>
<text text-anchor="middle" x="536" y="-231.5" font-family="Helvetica,sans-Serif" font-size="10.00">../Serial/BitStream.h</text>
</a>
</g>
</g>
<!-- Node6&#45;&gt;Node7 -->
<g id="edge7" class="edge">
<title>Node6&#45;&gt;Node7</title>
<path fill="none" stroke="midnightblue" d="M261.66,-280.44C319.48,-270.87 413.11,-255.36 474.62,-245.17"/>
<polygon fill="midnightblue" stroke="midnightblue" points="475.29,-248.6 484.59,-243.52 474.15,-241.7 475.29,-248.6"/>
</g>
<!-- Node6&#45;&gt;Node8 -->
<g id="edge9" class="edge">
<title>Node6&#45;&gt;Node8</title>
<path fill="none" stroke="midnightblue" d="M197.95,-280.32C186.54,-272.11 169.17,-259.6 155.57,-249.81"/>
<polygon fill="midnightblue" stroke="midnightblue" points="157.43,-246.84 147.27,-243.83 153.34,-252.52 157.43,-246.84"/>
</g>
<!-- Node7&#45;&gt;Node3 -->
<g id="edge8" class="edge">
<title>Node7&#45;&gt;Node3</title>
<path fill="none" stroke="midnightblue" d="M531.42,-224.3C521.43,-204.14 499.63,-152.85 513,-112 516.49,-101.34 523.57,-91.12 530.29,-83.12"/>
<polygon fill="midnightblue" stroke="midnightblue" points="532.9,-85.44 536.98,-75.66 527.7,-80.76 532.9,-85.44"/>
</g>
<!-- Node9&#45;&gt;Node7 -->
<g id="edge19" class="edge">
<title>Node9&#45;&gt;Node7</title>
<path fill="none" stroke="midnightblue" d="M444.51,-280.32C462.07,-271.62 489.33,-258.12 509.53,-248.11"/>
<polygon fill="midnightblue" stroke="midnightblue" points="511.12,-251.23 518.53,-243.65 508.02,-244.96 511.12,-251.23"/>
</g>
<!-- Node9&#45;&gt;Node8 -->
<g id="edge20" class="edge">
<title>Node9&#45;&gt;Node8</title>
<path fill="none" stroke="midnightblue" d="M380.73,-280.44C325.14,-270.16 232.58,-253.05 178.33,-243.01"/>
<polygon fill="midnightblue" stroke="midnightblue" points="178.81,-239.54 168.34,-241.16 177.53,-246.43 178.81,-239.54"/>
</g>
<!-- Node10 -->
<g id="node10" class="node">
<title>Node10</title>
<g id="a_node10"><a xlink:href="ByteStream_8h.html" target="_top" xlink:title=" ">
<polygon fill="none" stroke="black" points="611.5,-224.5 611.5,-243.5 734.5,-243.5 734.5,-224.5 611.5,-224.5"/>
<text text-anchor="middle" x="673" y="-231.5" font-family="Helvetica,sans-Serif" font-size="10.00">../Serial/ByteStream.h</text>
</a>
</g>
</g>
<!-- Node9&#45;&gt;Node10 -->
<g id="edge11" class="edge">
<title>Node9&#45;&gt;Node10</title>
<path fill="none" stroke="midnightblue" d="M465.98,-280.44C508.89,-271.02 577.95,-255.87 624.37,-245.68"/>
<polygon fill="midnightblue" stroke="midnightblue" points="625.19,-249.08 634.2,-243.52 623.69,-242.24 625.19,-249.08"/>
</g>
<!-- Node10&#45;&gt;Node3 -->
<g id="edge12" class="edge">
<title>Node10&#45;&gt;Node3</title>
<path fill="none" stroke="midnightblue" d="M655.45,-224.43C627.69,-209.8 574.4,-177.17 551,-132 543.6,-117.71 542.87,-99.24 543.7,-85.65"/>
<polygon fill="midnightblue" stroke="midnightblue" points="547.19,-85.85 544.64,-75.57 540.22,-85.2 547.19,-85.85"/>
</g>
<!-- Node11 -->
<g id="node11" class="node">
<title>Node11</title>
<g id="a_node11"><a xlink:href="Log_8h.html" target="_top" xlink:title=" ">
<polygon fill="none" stroke="black" points="731,-168.5 731,-187.5 803,-187.5 803,-168.5 731,-168.5"/>
<text text-anchor="middle" x="767" y="-175.5" font-family="Helvetica,sans-Serif" font-size="10.00">../Log/Log.h</text>
</a>
</g>
</g>
<!-- Node10&#45;&gt;Node11 -->
<g id="edge13" class="edge">
<title>Node10&#45;&gt;Node11</title>
<path fill="none" stroke="midnightblue" d="M688.1,-224.32C702.9,-215.82 725.69,-202.73 742.98,-192.8"/>
<polygon fill="midnightblue" stroke="midnightblue" points="745.01,-195.67 751.93,-187.65 741.52,-189.6 745.01,-195.67"/>
</g>
<!-- Node11&#45;&gt;Node4 -->
<g id="edge15" class="edge">
<title>Node11&#45;&gt;Node4</title>
<path fill="none" stroke="midnightblue" d="M773.09,-168.06C783.5,-153.57 806.19,-125.28 833,-112 877.71,-89.86 1016.16,-76.56 1093.8,-70.65"/>
<polygon fill="midnightblue" stroke="midnightblue" points="1094.17,-74.13 1103.88,-69.89 1093.65,-67.15 1094.17,-74.13"/>
</g>
<!-- Node12 -->
<g id="node12" class="node">
<title>Node12</title>
<g id="a_node12"><a xlink:title=" ">
<polygon fill="none" stroke="#bfbfbf" points="886,-56.5 886,-75.5 942,-75.5 942,-56.5 886,-56.5"/>
<text text-anchor="middle" x="914" y="-63.5" font-family="Helvetica,sans-Serif" font-size="10.00">stdarg.h</text>
</a>
</g>
</g>
<!-- Node11&#45;&gt;Node12 -->
<g id="edge14" class="edge">
<title>Node11&#45;&gt;Node12</title>
<path fill="none" stroke="midnightblue" d="M768.52,-168.17C771.34,-154.37 778.66,-127.62 795,-112 817.2,-90.78 850.39,-79.34 876.08,-73.31"/>
<polygon fill="midnightblue" stroke="midnightblue" points="876.84,-76.72 885.87,-71.18 875.36,-69.88 876.84,-76.72"/>
</g>
<!-- Node13 -->
<g id="node13" class="node">
<title>Node13</title>
<g id="a_node13"><a xlink:href="ErrorBlinker_8h.html" target="_top" xlink:title=" ">
<polygon fill="none" stroke="black" points="631.5,-112.5 631.5,-131.5 742.5,-131.5 742.5,-112.5 631.5,-112.5"/>
<text text-anchor="middle" x="687" y="-119.5" font-family="Helvetica,sans-Serif" font-size="10.00">../Log/ErrorBlinker.h</text>
</a>
</g>
</g>
<!-- Node11&#45;&gt;Node13 -->
<g id="edge16" class="edge">
<title>Node11&#45;&gt;Node13</title>
<path fill="none" stroke="midnightblue" d="M754.15,-168.32C741.78,-159.98 722.87,-147.21 708.26,-137.35"/>
<polygon fill="midnightblue" stroke="midnightblue" points="710.07,-134.35 699.82,-131.65 706.15,-140.15 710.07,-134.35"/>
</g>
<!-- Node13&#45;&gt;Node3 -->
<g id="edge17" class="edge">
<title>Node13&#45;&gt;Node3</title>
<path fill="none" stroke="midnightblue" d="M664.66,-112.44C641.25,-103.48 604.26,-89.31 577.81,-79.18"/>
<polygon fill="midnightblue" stroke="midnightblue" points="578.83,-75.82 568.24,-75.52 576.32,-82.36 578.83,-75.82"/>
</g>
<!-- Node13&#45;&gt;Node4 -->
<g id="edge18" class="edge">
<title>Node13&#45;&gt;Node4</title>
<path fill="none" stroke="midnightblue" d="M742.61,-114.49C831.76,-104.04 1005.57,-83.68 1093.81,-73.35"/>
<polygon fill="midnightblue" stroke="midnightblue" points="1094.36,-76.81 1103.88,-72.17 1093.54,-69.86 1094.36,-76.81"/>
</g>
<!-- Node14&#45;&gt;Node3 -->
<g id="edge22" class="edge">
<title>Node14&#45;&gt;Node3</title>
<path fill="none" stroke="midnightblue" d="M802.49,-280.28C790.85,-267.07 767.33,-241.68 744,-224 718.3,-204.52 708.78,-204.39 681,-188 639.77,-163.68 623.48,-165.2 589,-132 574.73,-118.25 562.71,-98.96 555.04,-84.97"/>
<polygon fill="midnightblue" stroke="midnightblue" points="558.01,-83.09 550.26,-75.87 551.81,-86.35 558.01,-83.09"/>
</g>
<!-- Node14&#45;&gt;Node7 -->
<g id="edge23" class="edge">
<title>Node14&#45;&gt;Node7</title>
<path fill="none" stroke="midnightblue" d="M766.58,-280.44C718.48,-270.96 640.91,-255.67 589.19,-245.48"/>
<polygon fill="midnightblue" stroke="midnightblue" points="589.7,-242.02 579.21,-243.52 588.35,-248.88 589.7,-242.02"/>
</g>
<!-- Node14&#45;&gt;Node15 -->
<g id="edge24" class="edge">
<title>Node14&#45;&gt;Node15</title>
<path fill="none" stroke="midnightblue" d="M824.62,-280.32C838.95,-271.82 861.01,-258.73 877.75,-248.8"/>
<polygon fill="midnightblue" stroke="midnightblue" points="879.6,-251.77 886.42,-243.65 876.03,-245.75 879.6,-251.77"/>
</g>
<!-- Node15&#45;&gt;Node4 -->
<g id="edge25" class="edge">
<title>Node15&#45;&gt;Node4</title>
<path fill="none" stroke="midnightblue" d="M919.7,-224.49C949.01,-211.34 1007.71,-185.76 1059,-168 1114.44,-148.81 1150.62,-178.8 1186,-132 1198.04,-116.08 1182.19,-96.02 1167.44,-82.43"/>
<polygon fill="midnightblue" stroke="midnightblue" points="1169.4,-79.5 1159.55,-75.61 1164.83,-84.79 1169.4,-79.5"/>
</g>
<!-- Node16&#45;&gt;Node7 -->
<g id="edge28" class="edge">
<title>Node16&#45;&gt;Node7</title>
<path fill="none" stroke="midnightblue" d="M649.61,-280.44C627.29,-271.52 592.1,-257.44 566.79,-247.32"/>
<polygon fill="midnightblue" stroke="midnightblue" points="567.88,-243.98 557.29,-243.52 565.28,-250.48 567.88,-243.98"/>
</g>
<!-- Node16&#45;&gt;Node10 -->
<g id="edge27" class="edge">
<title>Node16&#45;&gt;Node10</title>
<path fill="none" stroke="midnightblue" d="M671.33,-280.08C671.59,-273.01 671.97,-262.86 672.3,-253.99"/>
<polygon fill="midnightblue" stroke="midnightblue" points="675.8,-253.87 672.68,-243.75 668.81,-253.61 675.8,-253.87"/>
</g>
<!-- Node16&#45;&gt;Node15 -->
<g id="edge29" class="edge">
<title>Node16&#45;&gt;Node15</title>
<path fill="none" stroke="midnightblue" d="M707.44,-280.44C748.02,-270.92 813.58,-255.52 856.99,-245.33"/>
<polygon fill="midnightblue" stroke="midnightblue" points="858.04,-248.68 866.98,-242.99 856.44,-241.87 858.04,-248.68"/>
</g>
<!-- Node17&#45;&gt;Node3 -->
<g id="edge33" class="edge">
<title>Node17&#45;&gt;Node3</title>
<path fill="none" stroke="midnightblue" d="M235.34,-168.14C242.89,-153.78 259.85,-125.65 283,-112 319.48,-90.49 437.99,-76.75 502.76,-70.66"/>
<polygon fill="midnightblue" stroke="midnightblue" points="503.41,-74.11 513.05,-69.71 502.77,-67.14 503.41,-74.11"/>
</g>
<!-- Node19 -->
<g id="node19" class="node">
<title>Node19</title>
<g id="a_node19"><a xlink:href="Button_8h.html" target="_top" xlink:title=" ">
<polygon fill="none" stroke="black" points="1119,-112.5 1119,-131.5 1177,-131.5 1177,-112.5 1119,-112.5"/>
<text text-anchor="middle" x="1148" y="-119.5" font-family="Helvetica,sans-Serif" font-size="10.00">Button.h</text>
</a>
</g>
</g>
<!-- Node18&#45;&gt;Node19 -->
<g id="edge35" class="edge">
<title>Node18&#45;&gt;Node19</title>
<path fill="none" stroke="midnightblue" d="M1124.62,-168.08C1128.46,-160.69 1134.02,-149.95 1138.76,-140.81"/>
<polygon fill="midnightblue" stroke="midnightblue" points="1141.97,-142.24 1143.46,-131.75 1135.75,-139.02 1141.97,-142.24"/>
</g>
<!-- Node19&#45;&gt;Node3 -->
<g id="edge36" class="edge">
<title>Node19&#45;&gt;Node3</title>
<path fill="none" stroke="midnightblue" d="M1118.63,-113.58C1115.73,-112.98 1112.81,-112.44 1110,-112 916.87,-81.61 683.12,-71.27 588.66,-68.18"/>
<polygon fill="midnightblue" stroke="midnightblue" points="588.74,-64.68 578.63,-67.86 588.51,-71.68 588.74,-64.68"/>
</g>
<!-- Node19&#45;&gt;Node4 -->
<g id="edge37" class="edge">
<title>Node19&#45;&gt;Node4</title>
<path fill="none" stroke="midnightblue" d="M1148,-112.08C1148,-105.01 1148,-94.86 1148,-85.99"/>
<polygon fill="midnightblue" stroke="midnightblue" points="1151.5,-85.75 1148,-75.75 1144.5,-85.75 1151.5,-85.75"/>
</g>
<!-- Node20&#45;&gt;Node3 -->
<g id="edge39" class="edge">
<title>Node20&#45;&gt;Node3</title>
<path fill="none" stroke="midnightblue" d="M1460.96,-168.49C1439.47,-153.83 1392.58,-124.23 1348,-112 1274.71,-91.89 744.71,-73.4 588.94,-68.35"/>
<polygon fill="midnightblue" stroke="midnightblue" points="588.91,-64.85 578.81,-68.02 588.69,-71.85 588.91,-64.85"/>
</g>
<!-- Node20&#45;&gt;Node4 -->
<g id="edge40" class="edge">
<title>Node20&#45;&gt;Node4</title>
<path fill="none" stroke="midnightblue" d="M1473.66,-168.34C1474.2,-154.26 1473.01,-126.53 1457,-112 1420.6,-78.96 1280.7,-70.15 1202.21,-67.82"/>
<polygon fill="midnightblue" stroke="midnightblue" points="1202.11,-64.32 1192.02,-67.54 1201.92,-71.31 1202.11,-64.32"/>
</g>
<!-- Node21 -->
<g id="node21" class="node">
<title>Node21</title>
<g id="a_node21"><a xlink:href="LedTypes_8h.html" target="_top" xlink:title=" ">
<polygon fill="none" stroke="black" points="1233.5,-112.5 1233.5,-131.5 1338.5,-131.5 1338.5,-112.5 1233.5,-112.5"/>
<text text-anchor="middle" x="1286" y="-119.5" font-family="Helvetica,sans-Serif" font-size="10.00">../Leds/LedTypes.h</text>
</a>
</g>
</g>
<!-- Node20&#45;&gt;Node21 -->
<g id="edge41" class="edge">
<title>Node20&#45;&gt;Node21</title>
<path fill="none" stroke="midnightblue" d="M1443.37,-168.44C1411.5,-159.24 1360.67,-144.56 1325.44,-134.39"/>
<polygon fill="midnightblue" stroke="midnightblue" points="1326.07,-130.93 1315.49,-131.52 1324.13,-137.65 1326.07,-130.93"/>
</g>
<!-- Node21&#45;&gt;Node3 -->
<g id="edge42" class="edge">
<title>Node21&#45;&gt;Node3</title>
<path fill="none" stroke="midnightblue" d="M1233.34,-116.07C1218.07,-114.69 1201.38,-113.23 1186,-112 961.12,-93.98 691.46,-76.3 588.65,-69.71"/>
<polygon fill="midnightblue" stroke="midnightblue" points="588.86,-66.22 578.65,-69.07 588.41,-73.2 588.86,-66.22"/>
</g>
<!-- Node21&#45;&gt;Node4 -->
<g id="edge44" class="edge">
<title>Node21&#45;&gt;Node4</title>
<path fill="none" stroke="midnightblue" d="M1264.13,-112.44C1241.22,-103.48 1205.02,-89.31 1179.13,-79.18"/>
<polygon fill="midnightblue" stroke="midnightblue" points="1180.35,-75.9 1169.76,-75.52 1177.8,-82.42 1180.35,-75.9"/>
</g>
<!-- Node21&#45;&gt;Node12 -->
<g id="edge43" class="edge">
<title>Node21&#45;&gt;Node12</title>
<path fill="none" stroke="midnightblue" d="M1233.49,-113.38C1157.64,-102.37 1019.18,-82.27 952.25,-72.55"/>
<polygon fill="midnightblue" stroke="midnightblue" points="952.54,-69.06 942.14,-71.08 951.53,-75.99 952.54,-69.06"/>
</g>
<!-- Node22&#45;&gt;Node4 -->
<g id="edge47" class="edge">
<title>Node22&#45;&gt;Node4</title>
<path fill="none" stroke="midnightblue" d="M1495.46,-224.38C1510.77,-217.18 1529.86,-205.29 1539,-188 1562.09,-144.3 1484.21,-115.35 1477,-112 1429.41,-89.87 1283.09,-76.46 1202.55,-70.55"/>
<polygon fill="midnightblue" stroke="midnightblue" points="1202.34,-67.03 1192.12,-69.8 1201.84,-74.01 1202.34,-67.03"/>
</g>
<!-- Node22&#45;&gt;Node20 -->
<g id="edge46" class="edge">
<title>Node22&#45;&gt;Node20</title>
<path fill="none" stroke="midnightblue" d="M1473,-224.08C1473,-217.01 1473,-206.86 1473,-197.99"/>
<polygon fill="midnightblue" stroke="midnightblue" points="1476.5,-197.75 1473,-187.75 1469.5,-197.75 1476.5,-197.75"/>
</g>
<!-- Node23&#45;&gt;Node3 -->
<g id="edge49" class="edge">
<title>Node23&#45;&gt;Node3</title>
<path fill="none" stroke="midnightblue" d="M45.8,-224.35C56.39,-201.4 88.68,-138.86 137,-112 199.07,-77.49 411.46,-69.44 503.21,-67.57"/>
<polygon fill="midnightblue" stroke="midnightblue" points="503.34,-71.07 513.27,-67.38 503.2,-64.07 503.34,-71.07"/>
</g>
<!-- Node24&#45;&gt;Node3 -->
<g id="edge63" class="edge">
<title>Node24&#45;&gt;Node3</title>
<path fill="none" stroke="midnightblue" d="M518.88,-280.44C501.36,-273.62 480.48,-262.14 470,-244 437.47,-187.67 498.25,-114.75 529.32,-82.98"/>
<polygon fill="midnightblue" stroke="midnightblue" points="531.89,-85.36 536.51,-75.82 526.95,-80.4 531.89,-85.36"/>
</g>
<!-- Node24&#45;&gt;Node4 -->
<g id="edge62" class="edge">
<title>Node24&#45;&gt;Node4</title>
<path fill="none" stroke="midnightblue" d="M594.89,-280.81C644.2,-271.74 718.16,-256.72 744,-244 779.13,-226.71 785.32,-216.65 812,-188 840.24,-157.68 830.8,-133.86 866,-112 903.13,-88.94 1022.9,-76.3 1093.85,-70.66"/>
<polygon fill="midnightblue" stroke="midnightblue" points="1094.25,-74.14 1103.95,-69.88 1093.71,-67.16 1094.25,-74.14"/>
</g>
<!-- Node24&#45;&gt;Node10 -->
<g id="edge51" class="edge">
<title>Node24&#45;&gt;Node10</title>
<path fill="none" stroke="midnightblue" d="M567.81,-280.44C588.29,-271.6 620.48,-257.69 643.86,-247.59"/>
<polygon fill="midnightblue" stroke="midnightblue" points="645.49,-250.7 653.29,-243.52 642.72,-244.27 645.49,-250.7"/>
</g>
<!-- Node25 -->
<g id="node25" class="node">
<title>Node25</title>
<g id="a_node25"><a xlink:href="ColorTypes_8h.html" target="_top" xlink:title=" ">
<polygon fill="none" stroke="black" points="301,-112.5 301,-131.5 423,-131.5 423,-112.5 301,-112.5"/>
<text text-anchor="middle" x="362" y="-119.5" font-family="Helvetica,sans-Serif" font-size="10.00">../Colors/ColorTypes.h</text>
</a>
</g>
</g>
<!-- Node24&#45;&gt;Node25 -->
<g id="edge52" class="edge">
<title>Node24&#45;&gt;Node25</title>
<path fill="none" stroke="midnightblue" d="M510.14,-280.45C486.93,-273.68 457.78,-262.25 437,-244 407.84,-218.39 414.83,-200.75 394,-168 387.95,-158.5 380.72,-148.24 374.66,-139.92"/>
<polygon fill="midnightblue" stroke="midnightblue" points="377.41,-137.75 368.65,-131.78 371.77,-141.9 377.41,-137.75"/>
</g>
<!-- Node26 -->
<g id="node26" class="node">
<title>Node26</title>
<g id="a_node26"><a xlink:href="Patterns_8h.html" target="_top" xlink:title=" ">
<polygon fill="none" stroke="black" points="983.5,-112.5 983.5,-131.5 1100.5,-131.5 1100.5,-112.5 983.5,-112.5"/>
<text text-anchor="middle" x="1042" y="-119.5" font-family="Helvetica,sans-Serif" font-size="10.00">../Patterns/Patterns.h</text>
</a>
</g>
</g>
<!-- Node24&#45;&gt;Node26 -->
<g id="edge56" class="edge">
<title>Node24&#45;&gt;Node26</title>
<path fill="none" stroke="midnightblue" d="M594.6,-281.34C669.73,-268.97 809.8,-245.77 815,-244 836.19,-236.78 963.39,-166.67 1017.58,-136.59"/>
<polygon fill="midnightblue" stroke="midnightblue" points="1019.47,-139.55 1026.51,-131.63 1016.07,-133.43 1019.47,-139.55"/>
</g>
<!-- Node24&#45;&gt;Node27 -->
<g id="edge58" class="edge">
<title>Node24&#45;&gt;Node27</title>
<path fill="none" stroke="midnightblue" d="M511.3,-280.42C473.5,-271.15 417.58,-256.08 399,-244 379.95,-231.61 363.71,-210.9 353.71,-196.19"/>
<polygon fill="midnightblue" stroke="midnightblue" points="356.46,-194 348.06,-187.53 350.59,-197.82 356.46,-194"/>
</g>
<!-- Node25&#45;&gt;Node3 -->
<g id="edge53" class="edge">
<title>Node25&#45;&gt;Node3</title>
<path fill="none" stroke="midnightblue" d="M391.16,-112.44C422.51,-103.24 472.53,-88.56 507.2,-78.39"/>
<polygon fill="midnightblue" stroke="midnightblue" points="508.37,-81.69 516.98,-75.52 506.4,-74.97 508.37,-81.69"/>
</g>
<!-- Node25&#45;&gt;Node4 -->
<g id="edge54" class="edge">
<title>Node25&#45;&gt;Node4</title>
<path fill="none" stroke="midnightblue" d="M423.02,-116.81C571.87,-106.58 951.75,-80.48 1093.54,-70.74"/>
<polygon fill="midnightblue" stroke="midnightblue" points="1093.99,-74.22 1103.73,-70.04 1093.51,-67.24 1093.99,-74.22"/>
</g>
<!-- Node25&#45;&gt;Node5 -->
<g id="edge55" class="edge">
<title>Node25&#45;&gt;Node5</title>
<path fill="none" stroke="midnightblue" d="M377.35,-112.4C402.98,-98.41 456.49,-70.81 505,-56 568.21,-36.71 642.45,-25.08 696.9,-18.49"/>
<polygon fill="midnightblue" stroke="midnightblue" points="697.31,-21.96 706.83,-17.32 696.49,-15.01 697.31,-21.96"/>
</g>
<!-- Node26&#45;&gt;Node3 -->
<g id="edge57" class="edge">
<title>Node26&#45;&gt;Node3</title>
<path fill="none" stroke="midnightblue" d="M983.41,-113.14C980.23,-112.75 977.07,-112.37 974,-112 833.16,-95.28 665.87,-78.61 588.78,-71.11"/>
<polygon fill="midnightblue" stroke="midnightblue" points="588.81,-67.6 578.52,-70.12 588.13,-74.57 588.81,-67.6"/>
</g>
<!-- Node27&#45;&gt;Node3 -->
<g id="edge59" class="edge">
<title>Node27&#45;&gt;Node3</title>
<path fill="none" stroke="midnightblue" d="M327.8,-168.45C307.36,-155.88 275.41,-131.78 292,-112 318.44,-80.47 437.81,-71.02 503.06,-68.19"/>
<polygon fill="midnightblue" stroke="midnightblue" points="503.58,-71.68 513.43,-67.78 503.3,-64.68 503.58,-71.68"/>
</g>
<!-- Node27&#45;&gt;Node21 -->
<g id="edge61" class="edge">
<title>Node27&#45;&gt;Node21</title>
<path fill="none" stroke="midnightblue" d="M384.7,-175.31C507.53,-170.23 878.64,-154.03 1186,-132 1198.02,-131.14 1210.84,-130.09 1223.16,-129.01"/>
<polygon fill="midnightblue" stroke="midnightblue" points="1223.7,-132.47 1233.35,-128.1 1223.08,-125.5 1223.7,-132.47"/>
</g>
<!-- Node27&#45;&gt;Node25 -->
<g id="edge60" class="edge">
<title>Node27&#45;&gt;Node25</title>
<path fill="none" stroke="midnightblue" d="M346.14,-168.08C348.68,-160.85 352.36,-150.41 355.53,-141.4"/>
<polygon fill="midnightblue" stroke="midnightblue" points="358.9,-142.35 358.92,-131.75 352.3,-140.02 358.9,-142.35"/>
</g>
<!-- Node28&#45;&gt;Node3 -->
<g id="edge65" class="edge">
<title>Node28&#45;&gt;Node3</title>
<path fill="none" stroke="midnightblue" d="M977.54,-280.44C979.52,-266.5 981.06,-238.97 966,-224 888.25,-146.73 825.68,-223.59 722,-188 674.19,-171.59 664.49,-160.87 623,-132 600.95,-116.66 577.65,-96.33 562.53,-82.52"/>
<polygon fill="midnightblue" stroke="midnightblue" points="564.75,-79.81 555.03,-75.6 560,-84.95 564.75,-79.81"/>
</g>
<!-- Node28&#45;&gt;Node21 -->
<g id="edge67" class="edge">
<title>Node28&#45;&gt;Node21</title>
<path fill="none" stroke="midnightblue" d="M994.97,-280.4C1031.52,-263.67 1114.02,-225.12 1181,-188 1210.57,-171.62 1243.54,-150.76 1264.51,-137.15"/>
<polygon fill="midnightblue" stroke="midnightblue" points="1266.52,-140.02 1272.98,-131.62 1262.7,-134.16 1266.52,-140.02"/>
</g>
<!-- Node28&#45;&gt;Node25 -->
<g id="edge66" class="edge">
<title>Node28&#45;&gt;Node25</title>
<path fill="none" stroke="midnightblue" d="M974.39,-280.15C971.27,-265.8 962.98,-237.68 944,-224 896.15,-189.5 739.15,-197.89 681,-188 584.15,-171.52 471.75,-147.45 409.57,-133.7"/>
<polygon fill="midnightblue" stroke="midnightblue" points="410.18,-130.25 399.66,-131.5 408.67,-137.08 410.18,-130.25"/>
</g>
<!-- Node28&#45;&gt;Node29 -->
<g id="edge68" class="edge">
<title>Node28&#45;&gt;Node29</title>
<path fill="none" stroke="midnightblue" d="M1011.02,-280.44C1049.25,-271.1 1110.57,-256.12 1152.26,-245.93"/>
<polygon fill="midnightblue" stroke="midnightblue" points="1153.26,-249.29 1162.15,-243.52 1151.6,-242.49 1153.26,-249.29"/>
</g>
<!-- Node29&#45;&gt;Node4 -->
<g id="edge71" class="edge">
<title>Node29&#45;&gt;Node4</title>
<path fill="none" stroke="midnightblue" d="M1240.93,-224.45C1279.26,-216.16 1331.01,-202.72 1346,-188 1370.76,-163.67 1385.9,-138.93 1364,-112 1344,-87.4 1259.52,-75.8 1202.34,-70.67"/>
<polygon fill="midnightblue" stroke="midnightblue" points="1202.61,-67.18 1192.35,-69.81 1202.02,-74.15 1202.61,-67.18"/>
</g>
<!-- Node29&#45;&gt;Node21 -->
<g id="edge69" class="edge">
<title>Node29&#45;&gt;Node21</title>
<path fill="none" stroke="midnightblue" d="M1238.96,-224.49C1274.02,-216.42 1320,-203.29 1331,-188 1343.21,-171.01 1324.93,-151.21 1308.13,-137.97"/>
<polygon fill="midnightblue" stroke="midnightblue" points="1309.78,-134.83 1299.66,-131.69 1305.61,-140.45 1309.78,-134.83"/>
</g>
<!-- Node29&#45;&gt;Node26 -->
<g id="edge70" class="edge">
<title>Node29&#45;&gt;Node26</title>
<path fill="none" stroke="midnightblue" d="M1148.29,-228.77C1118.61,-223.67 1082.07,-212.48 1059,-188 1047.39,-175.67 1043.48,-156.42 1042.27,-142.07"/>
<polygon fill="midnightblue" stroke="midnightblue" points="1045.75,-141.65 1041.78,-131.83 1038.76,-141.98 1045.75,-141.65"/>
</g>
<!-- Node30 -->
<g id="node30" class="node">
<title>Node30</title>
<g id="a_node30"><a xlink:href="DefaultModes_8h.html" target="_top" xlink:title=" ">
<polygon fill="none" stroke="black" points="1228,-168.5 1228,-187.5 1322,-187.5 1322,-168.5 1228,-168.5"/>
<text text-anchor="middle" x="1275" y="-175.5" font-family="Helvetica,sans-Serif" font-size="10.00">DefaultModes.h</text>
</a>
</g>
</g>
<!-- Node29&#45;&gt;Node30 -->
<g id="edge72" class="edge">
<title>Node29&#45;&gt;Node30</title>
<path fill="none" stroke="midnightblue" d="M1209.53,-224.32C1221.59,-215.98 1240.03,-203.21 1254.27,-193.35"/>
<polygon fill="midnightblue" stroke="midnightblue" points="1256.27,-196.22 1262.5,-187.65 1252.28,-190.47 1256.27,-196.22"/>
</g>
<!-- Node30&#45;&gt;Node4 -->
<g id="edge75" class="edge">
<title>Node30&#45;&gt;Node4</title>
<path fill="none" stroke="midnightblue" d="M1298.35,-168.36C1326.09,-156.8 1366.45,-135.06 1348,-112 1330.07,-89.59 1255.38,-77.56 1202.54,-71.72"/>
<polygon fill="midnightblue" stroke="midnightblue" points="1202.61,-68.21 1192.29,-70.64 1201.87,-75.17 1202.61,-68.21"/>
</g>
<!-- Node30&#45;&gt;Node21 -->
<g id="edge74" class="edge">
<title>Node30&#45;&gt;Node21</title>
<path fill="none" stroke="midnightblue" d="M1276.82,-168.08C1278.27,-160.93 1280.37,-150.64 1282.19,-141.69"/>
<polygon fill="midnightblue" stroke="midnightblue" points="1285.65,-142.25 1284.22,-131.75 1278.79,-140.85 1285.65,-142.25"/>
</g>
<!-- Node30&#45;&gt;Node26 -->
<g id="edge73" class="edge">
<title>Node30&#45;&gt;Node26</title>
<path fill="none" stroke="midnightblue" d="M1238.08,-168.44C1197.6,-159.06 1132.58,-143.99 1088.62,-133.8"/>
<polygon fill="midnightblue" stroke="midnightblue" points="1089.28,-130.36 1078.75,-131.52 1087.7,-137.18 1089.28,-130.36"/>
</g>
</g>
</svg>
        <g id="navigator" transform="translate(0 0)" fill="#404254">
                <rect fill="#f2f5e9" fill-opacity="0.5" stroke="#606060" stroke-width=".5" x="0" y="0" width="60" height="60"/>
                <use id="zoomplus" xlink:href="#zoomPlus" x="17" y="9" onmousedown="handleZoom(evt,'in')"/>
                <use id="zoomminus" xlink:href="#zoomMin" x="42" y="9" onmousedown="handleZoom(evt,'out')"/>
                <use id="reset" xlink:href="#resetDef" x="30" y="36" onmousedown="handleReset()"/>
                <g id="arrowUp" xlink:href="#dirArrow" transform="translate(30 24)" onmousedown="handlePan(0,-1)">
                  <use xlink:href="#rim" fill="#404040">
                        <set attributeName="fill" to="#808080" begin="arrowUp.mouseover" end="arrowUp.mouseout"/>
                  </use>
                  <path fill="none" stroke="white" stroke-width="1.5" d="M0,-3.0v7 M-2.5,-0.5L0,-3.0L2.5,-0.5"/>
                </g>
                <g id="arrowRight" xlink:href="#dirArrow" transform="rotate(90) translate(36 -43)" onmousedown="handlePan(1,0)">
                  <use xlink:href="#rim" fill="#404040">
                        <set attributeName="fill" to="#808080" begin="arrowRight.mouseover" end="arrowRight.mouseout"/>
                  </use>
                  <path fill="none" stroke="white" stroke-width="1.5" d="M0,-3.0v7 M-2.5,-0.5L0,-3.0L2.5,-0.5"/>
                </g>
                <g id="arrowDown" xlink:href="#dirArrow" transform="rotate(180) translate(-30 -48)" onmousedown="handlePan(0,1)">
                  <use xlink:href="#rim" fill="#404040">
                        <set attributeName="fill" to="#808080" begin="arrowDown.mouseover" end="arrowDown.mouseout"/>
                  </use>
                  <path fill="none" stroke="white" stroke-width="1.5" d="M0,-3.0v7 M-2.5,-0.5L0,-3.0L2.5,-0.5"/>
                </g>
                <g id="arrowLeft" xlink:href="#dirArrow" transform="rotate(270) translate(-36 17)" onmousedown="handlePan(-1,0)">
                  <use xlink:href="#rim" fill="#404040">
                        <set attributeName="fill" to="#808080" begin="arrowLeft.mouseover" end="arrowLeft.mouseout"/>
                  </use>
                  <path fill="none" stroke="white" stroke-width="1.5" d="M0,-3.0v7 M-2.5,-0.5L0,-3.0L2.5,-0.5"/>
                </g>
        </g>
        <svg viewBox="0 0 15 15" width="100%" height="30px" preserveAspectRatio="xMaxYMin meet">
         <g id="arrow_out" transform="scale(0.3 0.3)">
          <a xlink:href="VortexEngine_8cpp__incl_org.svg" target="_base">
           <rect id="button" ry="5" rx="5" y="6" x="6" height="38" width="38"
                fill="#f2f5e9" fill-opacity="0.5" stroke="#606060" stroke-width="1.0"/>
           <path id="arrow"
             d="M 11.500037,31.436501 C 11.940474,20.09759 22.043105,11.32322 32.158766,21.979434 L 37.068811,17.246167 C 37.068811,17.246167 37.088388,32 37.088388,32 L 22.160133,31.978069 C 22.160133,31.978069 26.997745,27.140456 26.997745,27.140456 C 18.528582,18.264221 13.291696,25.230495 11.500037,31.436501 z"
             style="fill:#404040;"/>
          </a>
         </g>
        </svg>
</svg>
