<?xml version="1.0" encoding="UTF-8" standalone="no"?>
<!DOCTYPE svg PUBLIC "-//W3C//DTD SVG 1.1//EN"
 "http://www.w3.org/Graphics/SVG/1.1/DTD/svg11.dtd">
<!-- Generated by graphviz version 2.43.0 (0)
 -->
<!-- Title: VortexEngine/src/Patterns/Multi/WarpWormPattern.cpp Pages: 1 -->
<svg width="1884pt" height="543pt"
 viewBox="0.00 0.00 1884.00 543.00" xmlns="http://www.w3.org/2000/svg" xmlns:xlink="http://www.w3.org/1999/xlink">
<g id="graph0" class="graph" transform="scale(1 1) rotate(0) translate(4 539)">
<title>VortexEngine/src/Patterns/Multi/WarpWormPattern.cpp</title>
<!-- Node1 -->
<g id="node1" class="node">
<title>Node1</title>
<g id="a_node1"><a xlink:title=" ">
<polygon fill="#bfbfbf" stroke="black" points="1351.5,-504.5 1351.5,-534.5 1506.5,-534.5 1506.5,-504.5 1351.5,-504.5"/>
<text text-anchor="start" x="1359.5" y="-522.5" font-family="Helvetica,sans-Serif" font-size="10.00">VortexEngine/src/Patterns</text>
<text text-anchor="middle" x="1429" y="-511.5" font-family="Helvetica,sans-Serif" font-size="10.00">/Multi/WarpWormPattern.cpp</text>
</a>
</g>
</g>
<!-- Node2 -->
<g id="node2" class="node">
<title>Node2</title>
<g id="a_node2"><a xlink:href="WarpWormPattern_8h.html" target="_top" xlink:title=" ">
<polygon fill="none" stroke="black" points="1431.5,-448.5 1431.5,-467.5 1544.5,-467.5 1544.5,-448.5 1431.5,-448.5"/>
<text text-anchor="middle" x="1488" y="-455.5" font-family="Helvetica,sans-Serif" font-size="10.00">WarpWormPattern.h</text>
</a>
</g>
</g>
<!-- Node1&#45;&gt;Node2 -->
<g id="edge1" class="edge">
<title>Node1&#45;&gt;Node2</title>
<path fill="none" stroke="midnightblue" d="M1442.98,-504.4C1451.73,-495.58 1463.03,-484.18 1472.12,-475.02"/>
<polygon fill="midnightblue" stroke="midnightblue" points="1474.86,-477.22 1479.41,-467.66 1469.89,-472.29 1474.86,-477.22"/>
</g>
<!-- Node9 -->
<g id="node9" class="node">
<title>Node9</title>
<g id="a_node9"><a xlink:href="Leds_8h.html" target="_top" xlink:title=" ">
<polygon fill="none" stroke="black" points="1205.5,-168.5 1205.5,-187.5 1288.5,-187.5 1288.5,-168.5 1205.5,-168.5"/>
<text text-anchor="middle" x="1247" y="-175.5" font-family="Helvetica,sans-Serif" font-size="10.00">../Leds/Leds.h</text>
</a>
</g>
</g>
<!-- Node1&#45;&gt;Node9 -->
<g id="edge94" class="edge">
<title>Node1&#45;&gt;Node9</title>
<path fill="none" stroke="midnightblue" d="M1416.2,-504.38C1398.85,-483.71 1370,-443.31 1370,-403 1370,-403 1370,-403 1370,-345 1370,-277.54 1303.62,-219.61 1268.39,-193.62"/>
<polygon fill="midnightblue" stroke="midnightblue" points="1270.33,-190.7 1260.16,-187.71 1266.24,-196.38 1270.33,-190.7"/>
</g>
<!-- Node19 -->
<g id="node19" class="node">
<title>Node19</title>
<g id="a_node19"><a xlink:href="TimeControl_8h.html" target="_top" xlink:title=" ">
<polygon fill="none" stroke="black" points="1605,-280.5 1605,-299.5 1691,-299.5 1691,-280.5 1605,-280.5"/>
<text text-anchor="middle" x="1648" y="-287.5" font-family="Helvetica,sans-Serif" font-size="10.00">TimeControl.h</text>
</a>
</g>
</g>
<!-- Node1&#45;&gt;Node19 -->
<g id="edge93" class="edge">
<title>Node1&#45;&gt;Node19</title>
<path fill="none" stroke="midnightblue" d="M1489.07,-504.43C1557.98,-484.61 1667.09,-440.96 1711,-356 1721.86,-334.99 1698.18,-316.22 1676.81,-304.31"/>
<polygon fill="midnightblue" stroke="midnightblue" points="1678.39,-301.19 1667.91,-299.65 1675.14,-307.39 1678.39,-301.19"/>
</g>
<!-- Node20 -->
<g id="node20" class="node">
<title>Node20</title>
<g id="a_node20"><a xlink:href="VortexEngine_8h.html" target="_top" xlink:title=" ">
<polygon fill="none" stroke="black" points="700,-392.5 700,-411.5 808,-411.5 808,-392.5 700,-392.5"/>
<text text-anchor="middle" x="754" y="-399.5" font-family="Helvetica,sans-Serif" font-size="10.00">../../VortexEngine.h</text>
</a>
</g>
</g>
<!-- Node1&#45;&gt;Node20 -->
<g id="edge35" class="edge">
<title>Node1&#45;&gt;Node20</title>
<path fill="none" stroke="midnightblue" d="M1351.37,-517.83C1211.27,-515.66 922.14,-506.5 830,-468 804.59,-457.38 781.49,-434.97 767.59,-419.45"/>
<polygon fill="midnightblue" stroke="midnightblue" points="770.05,-416.94 760.86,-411.66 764.75,-421.51 770.05,-416.94"/>
</g>
<!-- Node26 -->
<g id="node26" class="node">
<title>Node26</title>
<g id="a_node26"><a xlink:href="ByteStream_8h.html" target="_top" xlink:title=" ">
<polygon fill="none" stroke="black" points="676.5,-224.5 676.5,-243.5 799.5,-243.5 799.5,-224.5 676.5,-224.5"/>
<text text-anchor="middle" x="738" y="-231.5" font-family="Helvetica,sans-Serif" font-size="10.00">../Serial/ByteStream.h</text>
</a>
</g>
</g>
<!-- Node1&#45;&gt;Node26 -->
<g id="edge92" class="edge">
<title>Node1&#45;&gt;Node26</title>
<path fill="none" stroke="midnightblue" d="M1377.24,-504.4C1271.36,-474.53 1023.84,-399.37 832,-300 804.14,-285.57 774.83,-264.17 756.5,-249.91"/>
<polygon fill="midnightblue" stroke="midnightblue" points="758.45,-246.99 748.43,-243.55 754.12,-252.49 758.45,-246.99"/>
</g>
<!-- Node27 -->
<g id="node27" class="node">
<title>Node27</title>
<g id="a_node27"><a xlink:href="Log_8h.html" target="_top" xlink:title=" ">
<polygon fill="none" stroke="black" points="1519,-168.5 1519,-187.5 1591,-187.5 1591,-168.5 1519,-168.5"/>
<text text-anchor="middle" x="1555" y="-175.5" font-family="Helvetica,sans-Serif" font-size="10.00">../Log/Log.h</text>
</a>
</g>
</g>
<!-- Node1&#45;&gt;Node27 -->
<g id="edge95" class="edge">
<title>Node1&#45;&gt;Node27</title>
<path fill="none" stroke="midnightblue" d="M1506.61,-514.35C1634.61,-505.35 1876,-478.39 1876,-403 1876,-403 1876,-403 1876,-345 1876,-222.79 1690.16,-190.45 1601.28,-181.97"/>
<polygon fill="midnightblue" stroke="midnightblue" points="1601.47,-178.48 1591.2,-181.07 1600.85,-185.45 1601.47,-178.48"/>
</g>
<!-- Node3 -->
<g id="node3" class="node">
<title>Node3</title>
<g id="a_node3"><a xlink:href="BlinkStepPattern_8h.html" target="_top" xlink:title=" ">
<polygon fill="none" stroke="black" points="1434.5,-392.5 1434.5,-411.5 1541.5,-411.5 1541.5,-392.5 1434.5,-392.5"/>
<text text-anchor="middle" x="1488" y="-399.5" font-family="Helvetica,sans-Serif" font-size="10.00">BlinkStepPattern.h</text>
</a>
</g>
</g>
<!-- Node2&#45;&gt;Node3 -->
<g id="edge2" class="edge">
<title>Node2&#45;&gt;Node3</title>
<path fill="none" stroke="midnightblue" d="M1488,-448.08C1488,-441.01 1488,-430.86 1488,-421.99"/>
<polygon fill="midnightblue" stroke="midnightblue" points="1491.5,-421.75 1488,-411.75 1484.5,-421.75 1491.5,-421.75"/>
</g>
<!-- Node18 -->
<g id="node18" class="node">
<title>Node18</title>
<g id="a_node18"><a xlink:href="Timings_8h.html" target="_top" xlink:title=" ">
<polygon fill="none" stroke="black" points="1592,-336.5 1592,-355.5 1702,-355.5 1702,-336.5 1592,-336.5"/>
<text text-anchor="middle" x="1647" y="-343.5" font-family="Helvetica,sans-Serif" font-size="10.00">../../Time/Timings.h</text>
</a>
</g>
</g>
<!-- Node2&#45;&gt;Node18 -->
<g id="edge29" class="edge">
<title>Node2&#45;&gt;Node18</title>
<path fill="none" stroke="midnightblue" d="M1500.48,-448.37C1527.64,-429.57 1592.41,-384.77 1625.99,-361.53"/>
<polygon fill="midnightblue" stroke="midnightblue" points="1628.35,-364.16 1634.58,-355.59 1624.37,-358.4 1628.35,-364.16"/>
</g>
<!-- Node4 -->
<g id="node4" class="node">
<title>Node4</title>
<g id="a_node4"><a xlink:href="MultiLedPattern_8h.html" target="_top" xlink:title=" ">
<polygon fill="none" stroke="black" points="1057,-336.5 1057,-355.5 1159,-355.5 1159,-336.5 1057,-336.5"/>
<text text-anchor="middle" x="1108" y="-343.5" font-family="Helvetica,sans-Serif" font-size="10.00">MultiLedPattern.h</text>
</a>
</g>
</g>
<!-- Node3&#45;&gt;Node4 -->
<g id="edge3" class="edge">
<title>Node3&#45;&gt;Node4</title>
<path fill="none" stroke="midnightblue" d="M1434.47,-393.63C1372.96,-385.12 1268.68,-370.59 1169,-356.13"/>
<polygon fill="midnightblue" stroke="midnightblue" points="1169.46,-352.66 1159.06,-354.69 1168.45,-359.59 1169.46,-352.66"/>
</g>
<!-- Node6 -->
<g id="node6" class="node">
<title>Node6</title>
<g id="a_node6"><a xlink:href="LedTypes_8h.html" target="_top" xlink:title=" ">
<polygon fill="none" stroke="black" points="1392.5,-224.5 1392.5,-243.5 1497.5,-243.5 1497.5,-224.5 1392.5,-224.5"/>
<text text-anchor="middle" x="1445" y="-231.5" font-family="Helvetica,sans-Serif" font-size="10.00">../Leds/LedTypes.h</text>
</a>
</g>
</g>
<!-- Node3&#45;&gt;Node6 -->
<g id="edge28" class="edge">
<title>Node3&#45;&gt;Node6</title>
<path fill="none" stroke="midnightblue" d="M1492.65,-392.23C1502.95,-371.49 1525.34,-318.3 1506,-280 1499.19,-266.52 1486.23,-256.08 1474,-248.67"/>
<polygon fill="midnightblue" stroke="midnightblue" points="1475.34,-245.41 1464.91,-243.59 1471.93,-251.52 1475.34,-245.41"/>
</g>
<!-- Node17 -->
<g id="node17" class="node">
<title>Node17</title>
<g id="a_node17"><a xlink:href="Timer_8h.html" target="_top" xlink:title=" ">
<polygon fill="none" stroke="black" points="1398.5,-280.5 1398.5,-299.5 1497.5,-299.5 1497.5,-280.5 1398.5,-280.5"/>
<text text-anchor="middle" x="1448" y="-287.5" font-family="Helvetica,sans-Serif" font-size="10.00">../../Time/Timer.h</text>
</a>
</g>
</g>
<!-- Node3&#45;&gt;Node17 -->
<g id="edge25" class="edge">
<title>Node3&#45;&gt;Node17</title>
<path fill="none" stroke="midnightblue" d="M1484.86,-392.37C1478.38,-374.54 1463.38,-333.3 1454.64,-309.27"/>
<polygon fill="midnightblue" stroke="midnightblue" points="1457.83,-307.79 1451.12,-299.59 1451.25,-310.19 1457.83,-307.79"/>
</g>
<!-- Node5 -->
<g id="node5" class="node">
<title>Node5</title>
<g id="a_node5"><a xlink:href="Pattern_8h.html" target="_top" xlink:title=" ">
<polygon fill="none" stroke="black" points="1080.5,-280.5 1080.5,-299.5 1149.5,-299.5 1149.5,-280.5 1080.5,-280.5"/>
<text text-anchor="middle" x="1115" y="-287.5" font-family="Helvetica,sans-Serif" font-size="10.00">../Pattern.h</text>
</a>
</g>
</g>
<!-- Node4&#45;&gt;Node5 -->
<g id="edge4" class="edge">
<title>Node4&#45;&gt;Node5</title>
<path fill="none" stroke="midnightblue" d="M1109.16,-336.08C1110.08,-328.93 1111.42,-318.64 1112.58,-309.69"/>
<polygon fill="midnightblue" stroke="midnightblue" points="1116.05,-310.12 1113.87,-299.75 1109.11,-309.22 1116.05,-310.12"/>
</g>
<!-- Node5&#45;&gt;Node6 -->
<g id="edge5" class="edge">
<title>Node5&#45;&gt;Node6</title>
<path fill="none" stroke="midnightblue" d="M1149.69,-283.32C1205.05,-274.26 1314.15,-256.41 1383.12,-245.13"/>
<polygon fill="midnightblue" stroke="midnightblue" points="1383.69,-248.58 1392.99,-243.51 1382.56,-241.67 1383.69,-248.58"/>
</g>
<!-- Node14 -->
<g id="node14" class="node">
<title>Node14</title>
<g id="a_node14"><a xlink:href="Colorset_8h.html" target="_top" xlink:title=" ">
<polygon fill="none" stroke="black" points="1306.5,-168.5 1306.5,-187.5 1415.5,-187.5 1415.5,-168.5 1306.5,-168.5"/>
<text text-anchor="middle" x="1361" y="-175.5" font-family="Helvetica,sans-Serif" font-size="10.00">../Colors/Colorset.h</text>
</a>
</g>
</g>
<!-- Node5&#45;&gt;Node14 -->
<g id="edge18" class="edge">
<title>Node5&#45;&gt;Node14</title>
<path fill="none" stroke="midnightblue" d="M1134.3,-280.37C1177.42,-261.09 1281.71,-214.45 1332.4,-191.79"/>
<polygon fill="midnightblue" stroke="midnightblue" points="1334.09,-194.87 1341.79,-187.59 1331.23,-188.48 1334.09,-194.87"/>
</g>
<!-- Node15 -->
<g id="node15" class="node">
<title>Node15</title>
<g id="a_node15"><a xlink:href="Patterns_8h.html" target="_top" xlink:title=" ">
<polygon fill="none" stroke="black" points="932.5,-224.5 932.5,-243.5 997.5,-243.5 997.5,-224.5 932.5,-224.5"/>
<text text-anchor="middle" x="965" y="-231.5" font-family="Helvetica,sans-Serif" font-size="10.00">Patterns.h</text>
</a>
</g>
</g>
<!-- Node5&#45;&gt;Node15 -->
<g id="edge21" class="edge">
<title>Node5&#45;&gt;Node15</title>
<path fill="none" stroke="midnightblue" d="M1091.23,-280.44C1066.11,-271.4 1026.29,-257.06 998.1,-246.92"/>
<polygon fill="midnightblue" stroke="midnightblue" points="999.25,-243.61 988.66,-243.52 996.88,-250.2 999.25,-243.61"/>
</g>
<!-- Node16 -->
<g id="node16" class="node">
<title>Node16</title>
<g id="a_node16"><a xlink:href="PatternArgs_8h.html" target="_top" xlink:title=" ">
<polygon fill="none" stroke="black" points="1029,-168.5 1029,-187.5 1111,-187.5 1111,-168.5 1029,-168.5"/>
<text text-anchor="middle" x="1070" y="-175.5" font-family="Helvetica,sans-Serif" font-size="10.00">PatternArgs.h</text>
</a>
</g>
</g>
<!-- Node5&#45;&gt;Node16 -->
<g id="edge23" class="edge">
<title>Node5&#45;&gt;Node16</title>
<path fill="none" stroke="midnightblue" d="M1111.47,-280.37C1104.14,-262.46 1087.15,-220.92 1077.34,-196.95"/>
<polygon fill="midnightblue" stroke="midnightblue" points="1080.54,-195.52 1073.51,-187.59 1074.06,-198.17 1080.54,-195.52"/>
</g>
<!-- Node7 -->
<g id="node7" class="node">
<title>Node7</title>
<g id="a_node7"><a xlink:title=" ">
<polygon fill="none" stroke="#bfbfbf" points="768.5,-56.5 768.5,-75.5 833.5,-75.5 833.5,-56.5 768.5,-56.5"/>
<text text-anchor="middle" x="801" y="-63.5" font-family="Helvetica,sans-Serif" font-size="10.00">inttypes.h</text>
</a>
</g>
</g>
<!-- Node6&#45;&gt;Node7 -->
<g id="edge6" class="edge">
<title>Node6&#45;&gt;Node7</title>
<path fill="none" stroke="midnightblue" d="M1444.54,-224.2C1443.35,-210.43 1439.11,-183.74 1424,-168 1374.13,-116.07 1342.19,-128 1272,-112 1117.05,-76.68 927.29,-69.04 843.83,-67.42"/>
<polygon fill="midnightblue" stroke="midnightblue" points="843.78,-63.92 833.72,-67.24 843.66,-70.92 843.78,-63.92"/>
</g>
<!-- Node8 -->
<g id="node8" class="node">
<title>Node8</title>
<g id="a_node8"><a xlink:title=" ">
<polygon fill="none" stroke="#bfbfbf" points="1396,-112.5 1396,-131.5 1452,-131.5 1452,-112.5 1396,-112.5"/>
<text text-anchor="middle" x="1424" y="-119.5" font-family="Helvetica,sans-Serif" font-size="10.00">stdarg.h</text>
</a>
</g>
</g>
<!-- Node6&#45;&gt;Node8 -->
<g id="edge7" class="edge">
<title>Node6&#45;&gt;Node8</title>
<path fill="none" stroke="midnightblue" d="M1449.5,-224.41C1455.48,-211.8 1464.59,-187.64 1458,-168 1454.4,-157.25 1447.1,-147.02 1440.18,-139.04"/>
<polygon fill="midnightblue" stroke="midnightblue" points="1442.65,-136.56 1433.29,-131.61 1437.52,-141.32 1442.65,-136.56"/>
</g>
<!-- Node6&#45;&gt;Node9 -->
<g id="edge8" class="edge">
<title>Node6&#45;&gt;Node9</title>
<path fill="none" stroke="midnightblue" d="M1413.63,-224.44C1379.74,-215.2 1325.6,-200.44 1288.28,-190.26"/>
<polygon fill="midnightblue" stroke="midnightblue" points="1288.8,-186.77 1278.23,-187.52 1286.95,-193.52 1288.8,-186.77"/>
</g>
<!-- Node11 -->
<g id="node11" class="node">
<title>Node11</title>
<g id="a_node11"><a xlink:href="VortexConfig_8h.html" target="_top" xlink:title=" ">
<polygon fill="none" stroke="black" points="1477.5,-56.5 1477.5,-75.5 1574.5,-75.5 1574.5,-56.5 1477.5,-56.5"/>
<text text-anchor="middle" x="1526" y="-63.5" font-family="Helvetica,sans-Serif" font-size="10.00">../VortexConfig.h</text>
</a>
</g>
</g>
<!-- Node6&#45;&gt;Node11 -->
<g id="edge17" class="edge">
<title>Node6&#45;&gt;Node11</title>
<path fill="none" stroke="midnightblue" d="M1496.17,-224.45C1535.95,-216.7 1586.55,-204.05 1600,-188 1621.76,-162.03 1623.11,-141.25 1606,-112 1597.14,-96.85 1581.09,-86.41 1565.69,-79.42"/>
<polygon fill="midnightblue" stroke="midnightblue" points="1566.83,-76.11 1556.25,-75.51 1564.15,-82.57 1566.83,-76.11"/>
</g>
<!-- Node9&#45;&gt;Node7 -->
<g id="edge9" class="edge">
<title>Node9&#45;&gt;Node7</title>
<path fill="none" stroke="midnightblue" d="M1212.37,-168.46C1131.76,-148.58 931.7,-99.23 843.69,-77.53"/>
<polygon fill="midnightblue" stroke="midnightblue" points="844.33,-74.08 833.78,-75.09 842.65,-80.88 844.33,-74.08"/>
</g>
<!-- Node10 -->
<g id="node10" class="node">
<title>Node10</title>
<g id="a_node10"><a xlink:href="ColorTypes_8h.html" target="_top" xlink:title=" ">
<polygon fill="none" stroke="black" points="1076,-112.5 1076,-131.5 1198,-131.5 1198,-112.5 1076,-112.5"/>
<text text-anchor="middle" x="1137" y="-119.5" font-family="Helvetica,sans-Serif" font-size="10.00">../Colors/ColorTypes.h</text>
</a>
</g>
</g>
<!-- Node9&#45;&gt;Node10 -->
<g id="edge10" class="edge">
<title>Node9&#45;&gt;Node10</title>
<path fill="none" stroke="midnightblue" d="M1229.33,-168.32C1211.61,-159.62 1184.1,-146.12 1163.71,-136.11"/>
<polygon fill="midnightblue" stroke="midnightblue" points="1165.15,-132.92 1154.63,-131.65 1162.06,-139.2 1165.15,-132.92"/>
</g>
<!-- Node9&#45;&gt;Node11 -->
<g id="edge15" class="edge">
<title>Node9&#45;&gt;Node11</title>
<path fill="none" stroke="midnightblue" d="M1260.81,-168.4C1282.95,-154.89 1328.06,-128.56 1369,-112 1404.58,-97.61 1446.42,-85.86 1477.96,-77.98"/>
<polygon fill="midnightblue" stroke="midnightblue" points="1478.94,-81.34 1487.82,-75.55 1477.27,-74.54 1478.94,-81.34"/>
</g>
<!-- Node13 -->
<g id="node13" class="node">
<title>Node13</title>
<g id="a_node13"><a xlink:title=" ">
<polygon fill="none" stroke="#bfbfbf" points="1216.5,-112.5 1216.5,-131.5 1263.5,-131.5 1263.5,-112.5 1216.5,-112.5"/>
<text text-anchor="middle" x="1240" y="-119.5" font-family="Helvetica,sans-Serif" font-size="10.00">vector</text>
</a>
</g>
</g>
<!-- Node9&#45;&gt;Node13 -->
<g id="edge16" class="edge">
<title>Node9&#45;&gt;Node13</title>
<path fill="none" stroke="midnightblue" d="M1245.84,-168.08C1244.92,-160.93 1243.58,-150.64 1242.42,-141.69"/>
<polygon fill="midnightblue" stroke="midnightblue" points="1245.89,-141.22 1241.13,-131.75 1238.95,-142.12 1245.89,-141.22"/>
</g>
<!-- Node10&#45;&gt;Node7 -->
<g id="edge11" class="edge">
<title>Node10&#45;&gt;Node7</title>
<path fill="none" stroke="midnightblue" d="M1083.76,-112.44C1017.29,-101.76 904.9,-83.7 843.75,-73.87"/>
<polygon fill="midnightblue" stroke="midnightblue" points="844.1,-70.38 833.67,-72.25 842.99,-77.29 844.1,-70.38"/>
</g>
<!-- Node10&#45;&gt;Node11 -->
<g id="edge12" class="edge">
<title>Node10&#45;&gt;Node11</title>
<path fill="none" stroke="midnightblue" d="M1198.21,-112.5C1271.83,-102.28 1394.54,-85.25 1467.11,-75.18"/>
<polygon fill="midnightblue" stroke="midnightblue" points="1468.02,-78.58 1477.44,-73.74 1467.05,-71.65 1468.02,-78.58"/>
</g>
<!-- Node12 -->
<g id="node12" class="node">
<title>Node12</title>
<g id="a_node12"><a xlink:href="ColorConstants_8h.html" target="_top" xlink:title=" ">
<polygon fill="none" stroke="black" points="1342,-0.5 1342,-19.5 1476,-19.5 1476,-0.5 1342,-0.5"/>
<text text-anchor="middle" x="1409" y="-7.5" font-family="Helvetica,sans-Serif" font-size="10.00">Colors/ColorConstants.h</text>
</a>
</g>
</g>
<!-- Node10&#45;&gt;Node12 -->
<g id="edge14" class="edge">
<title>Node10&#45;&gt;Node12</title>
<path fill="none" stroke="midnightblue" d="M1158.34,-112.37C1206.31,-92.97 1322.78,-45.87 1378.42,-23.37"/>
<polygon fill="midnightblue" stroke="midnightblue" points="1379.8,-26.59 1387.76,-19.59 1377.17,-20.1 1379.8,-26.59"/>
</g>
<!-- Node11&#45;&gt;Node12 -->
<g id="edge13" class="edge">
<title>Node11&#45;&gt;Node12</title>
<path fill="none" stroke="midnightblue" d="M1507.46,-56.44C1488.38,-47.64 1458.43,-33.81 1436.56,-23.72"/>
<polygon fill="midnightblue" stroke="midnightblue" points="1438,-20.53 1427.45,-19.52 1435.07,-26.88 1438,-20.53"/>
</g>
<!-- Node14&#45;&gt;Node10 -->
<g id="edge19" class="edge">
<title>Node14&#45;&gt;Node10</title>
<path fill="none" stroke="midnightblue" d="M1325.51,-168.44C1286.68,-159.08 1224.34,-144.06 1182.08,-133.87"/>
<polygon fill="midnightblue" stroke="midnightblue" points="1182.87,-130.46 1172.33,-131.52 1181.23,-137.26 1182.87,-130.46"/>
</g>
<!-- Node14&#45;&gt;Node11 -->
<g id="edge20" class="edge">
<title>Node14&#45;&gt;Node11</title>
<path fill="none" stroke="midnightblue" d="M1362.14,-168.09C1364.38,-154.17 1370.66,-127.27 1387,-112 1408.87,-91.56 1440.11,-80.4 1467.44,-74.31"/>
<polygon fill="midnightblue" stroke="midnightblue" points="1468.21,-77.73 1477.31,-72.29 1466.81,-70.87 1468.21,-77.73"/>
</g>
<!-- Node15&#45;&gt;Node7 -->
<g id="edge22" class="edge">
<title>Node15&#45;&gt;Node7</title>
<path fill="none" stroke="midnightblue" d="M956.18,-224.08C929.7,-197.27 850.59,-117.19 816.69,-82.89"/>
<polygon fill="midnightblue" stroke="midnightblue" points="818.98,-80.22 809.46,-75.57 814,-85.14 818.98,-80.22"/>
</g>
<!-- Node16&#45;&gt;Node7 -->
<g id="edge24" class="edge">
<title>Node16&#45;&gt;Node7</title>
<path fill="none" stroke="midnightblue" d="M1034.12,-168.49C1003.26,-160.64 957.88,-147.82 920,-132 884.87,-117.33 846.64,-95.25 823.24,-80.98"/>
<polygon fill="midnightblue" stroke="midnightblue" points="824.81,-77.84 814.46,-75.57 821.13,-83.8 824.81,-77.84"/>
</g>
<!-- Node17&#45;&gt;Node6 -->
<g id="edge27" class="edge">
<title>Node17&#45;&gt;Node6</title>
<path fill="none" stroke="midnightblue" d="M1447.5,-280.08C1447.11,-273.01 1446.55,-262.86 1446.05,-253.99"/>
<polygon fill="midnightblue" stroke="midnightblue" points="1449.54,-253.54 1445.49,-243.75 1442.55,-253.93 1449.54,-253.54"/>
</g>
<!-- Node17&#45;&gt;Node7 -->
<g id="edge26" class="edge">
<title>Node17&#45;&gt;Node7</title>
<path fill="none" stroke="midnightblue" d="M1427.15,-280.48C1375.61,-259.6 1237.87,-204.9 1120,-168 1059.1,-148.93 1041.97,-150.86 981,-132 928.05,-115.62 867.68,-92.99 832.04,-79.21"/>
<polygon fill="midnightblue" stroke="midnightblue" points="833.26,-75.93 822.67,-75.57 830.72,-82.45 833.26,-75.93"/>
</g>
<!-- Node18&#45;&gt;Node11 -->
<g id="edge34" class="edge">
<title>Node18&#45;&gt;Node11</title>
<path fill="none" stroke="midnightblue" d="M1682.1,-336.47C1727.27,-323.15 1800,-292.74 1800,-235 1800,-235 1800,-235 1800,-177 1800,-142.36 1785.79,-131.25 1757,-112 1729.35,-93.51 1643.42,-80.34 1584.53,-73.2"/>
<polygon fill="midnightblue" stroke="midnightblue" points="1584.94,-69.72 1574.6,-72.02 1584.12,-76.67 1584.94,-69.72"/>
</g>
<!-- Node18&#45;&gt;Node19 -->
<g id="edge30" class="edge">
<title>Node18&#45;&gt;Node19</title>
<path fill="none" stroke="midnightblue" d="M1647.17,-336.08C1647.3,-329.01 1647.48,-318.86 1647.65,-309.99"/>
<polygon fill="midnightblue" stroke="midnightblue" points="1651.15,-309.81 1647.84,-299.75 1644.15,-309.68 1651.15,-309.81"/>
</g>
<!-- Node19&#45;&gt;Node6 -->
<g id="edge33" class="edge">
<title>Node19&#45;&gt;Node6</title>
<path fill="none" stroke="midnightblue" d="M1615.83,-280.44C1580.94,-271.16 1525.11,-256.31 1486.83,-246.13"/>
<polygon fill="midnightblue" stroke="midnightblue" points="1487.58,-242.7 1477.02,-243.52 1485.78,-249.47 1487.58,-242.7"/>
</g>
<!-- Node19&#45;&gt;Node7 -->
<g id="edge31" class="edge">
<title>Node19&#45;&gt;Node7</title>
<path fill="none" stroke="midnightblue" d="M1648.25,-280.1C1648.56,-250.42 1645.11,-154.38 1590,-112 1530.73,-66.42 1000.3,-65.84 844.09,-66.67"/>
<polygon fill="midnightblue" stroke="midnightblue" points="843.91,-63.17 833.93,-66.73 843.95,-70.17 843.91,-63.17"/>
</g>
<!-- Node19&#45;&gt;Node11 -->
<g id="edge32" class="edge">
<title>Node19&#45;&gt;Node11</title>
<path fill="none" stroke="midnightblue" d="M1659.14,-280.14C1692.09,-252.91 1784,-168.79 1738,-112 1719.05,-88.6 1640.94,-76.87 1585.04,-71.37"/>
<polygon fill="midnightblue" stroke="midnightblue" points="1585.17,-67.86 1574.89,-70.41 1584.51,-74.83 1585.17,-67.86"/>
</g>
<!-- Node20&#45;&gt;Node7 -->
<g id="edge36" class="edge">
<title>Node20&#45;&gt;Node7</title>
<path fill="none" stroke="midnightblue" d="M699.98,-393.47C670.53,-387.25 634.75,-376.04 608,-356 559.04,-319.32 560.52,-284.58 569,-224 572.59,-198.37 568.43,-187.89 585,-168 629.65,-114.4 709.11,-87.6 758.21,-75.54"/>
<polygon fill="midnightblue" stroke="midnightblue" points="759.27,-78.89 768.2,-73.19 757.66,-72.08 759.27,-78.89"/>
</g>
<!-- Node20&#45;&gt;Node9 -->
<g id="edge90" class="edge">
<title>Node20&#45;&gt;Node9</title>
<path fill="none" stroke="midnightblue" d="M773.02,-392.43C848.67,-358.37 1128.4,-232.41 1218.7,-191.75"/>
<polygon fill="midnightblue" stroke="midnightblue" points="1220.35,-194.84 1228.03,-187.54 1217.48,-188.46 1220.35,-194.84"/>
</g>
<!-- Node20&#45;&gt;Node11 -->
<g id="edge37" class="edge">
<title>Node20&#45;&gt;Node11</title>
<path fill="none" stroke="midnightblue" d="M808.01,-401.45C983.88,-402.46 1538.71,-401.84 1711,-356 1772.28,-339.7 1838,-354.41 1838,-291 1838,-291 1838,-291 1838,-177 1838,-139.16 1815.82,-130.83 1783,-112 1750.04,-93.09 1649.9,-79.64 1584.79,-72.61"/>
<polygon fill="midnightblue" stroke="midnightblue" points="1584.97,-69.11 1574.66,-71.54 1584.23,-76.07 1584.97,-69.11"/>
</g>
<!-- Node20&#45;&gt;Node18 -->
<g id="edge71" class="edge">
<title>Node20&#45;&gt;Node18</title>
<path fill="none" stroke="midnightblue" d="M808.09,-399.45C939.96,-395.37 1288.4,-382.76 1578,-356 1579.11,-355.9 1580.24,-355.79 1581.37,-355.68"/>
<polygon fill="midnightblue" stroke="midnightblue" points="1582.1,-359.12 1591.68,-354.59 1581.37,-352.16 1582.1,-359.12"/>
</g>
<!-- Node20&#45;&gt;Node19 -->
<g id="edge70" class="edge">
<title>Node20&#45;&gt;Node19</title>
<path fill="none" stroke="midnightblue" d="M808.05,-399.5C951.37,-395.23 1338.68,-381.59 1464,-356 1521.19,-344.32 1584.75,-318.92 1620.2,-303.56"/>
<polygon fill="midnightblue" stroke="midnightblue" points="1621.67,-306.73 1629.42,-299.51 1618.86,-300.32 1621.67,-306.73"/>
</g>
<!-- Node21 -->
<g id="node21" class="node">
<title>Node21</title>
<g id="a_node21"><a xlink:href="PatternBuilder_8h.html" target="_top" xlink:title=" ">
<polygon fill="none" stroke="black" points="678.5,-336.5 678.5,-355.5 815.5,-355.5 815.5,-336.5 678.5,-336.5"/>
<text text-anchor="middle" x="747" y="-343.5" font-family="Helvetica,sans-Serif" font-size="10.00">Patterns/PatternBuilder.h</text>
</a>
</g>
</g>
<!-- Node20&#45;&gt;Node21 -->
<g id="edge38" class="edge">
<title>Node20&#45;&gt;Node21</title>
<path fill="none" stroke="midnightblue" d="M752.84,-392.08C751.92,-384.93 750.58,-374.64 749.42,-365.69"/>
<polygon fill="midnightblue" stroke="midnightblue" points="752.89,-365.22 748.13,-355.75 745.95,-366.12 752.89,-365.22"/>
</g>
<!-- Node22 -->
<g id="node22" class="node">
<title>Node22</title>
<g id="a_node22"><a xlink:href="IRReceiver_8h.html" target="_top" xlink:title=" ">
<polygon fill="none" stroke="black" points="63,-280.5 63,-299.5 185,-299.5 185,-280.5 63,-280.5"/>
<text text-anchor="middle" x="124" y="-287.5" font-family="Helvetica,sans-Serif" font-size="10.00">Wireless/IRReceiver.h</text>
</a>
</g>
</g>
<!-- Node20&#45;&gt;Node22 -->
<g id="edge40" class="edge">
<title>Node20&#45;&gt;Node22</title>
<path fill="none" stroke="midnightblue" d="M699.72,-397.04C625.17,-391.05 487.1,-377.99 371,-356 295.55,-341.71 209.14,-317.01 161.14,-302.52"/>
<polygon fill="midnightblue" stroke="midnightblue" points="162.08,-299.15 151.49,-299.59 160.04,-305.85 162.08,-299.15"/>
</g>
<!-- Node25 -->
<g id="node25" class="node">
<title>Node25</title>
<g id="a_node25"><a xlink:href="IRSender_8h.html" target="_top" xlink:title=" ">
<polygon fill="none" stroke="black" points="203.5,-280.5 203.5,-299.5 316.5,-299.5 316.5,-280.5 203.5,-280.5"/>
<text text-anchor="middle" x="260" y="-287.5" font-family="Helvetica,sans-Serif" font-size="10.00">Wireless/IRSender.h</text>
</a>
</g>
</g>
<!-- Node20&#45;&gt;Node25 -->
<g id="edge45" class="edge">
<title>Node20&#45;&gt;Node25</title>
<path fill="none" stroke="midnightblue" d="M699.74,-396.61C636.63,-390.74 529.64,-378.36 440,-356 385.43,-342.39 324.32,-318.35 289.18,-303.63"/>
<polygon fill="midnightblue" stroke="midnightblue" points="290.14,-300.24 279.57,-299.57 287.41,-306.69 290.14,-300.24"/>
</g>
<!-- Node20&#45;&gt;Node27 -->
<g id="edge91" class="edge">
<title>Node20&#45;&gt;Node27</title>
<path fill="none" stroke="midnightblue" d="M808.09,-401.27C962.77,-400.93 1402.48,-391.73 1506,-300 1536.44,-273.03 1548.28,-224.42 1552.64,-197.75"/>
<polygon fill="midnightblue" stroke="midnightblue" points="1556.16,-197.9 1554.12,-187.5 1549.23,-196.9 1556.16,-197.9"/>
</g>
<!-- Node29 -->
<g id="node29" class="node">
<title>Node29</title>
<g id="a_node29"><a xlink:href="VLReceiver_8h.html" target="_top" xlink:title=" ">
<polygon fill="none" stroke="black" points="334.5,-280.5 334.5,-299.5 459.5,-299.5 459.5,-280.5 334.5,-280.5"/>
<text text-anchor="middle" x="397" y="-287.5" font-family="Helvetica,sans-Serif" font-size="10.00">Wireless/VLReceiver.h</text>
</a>
</g>
</g>
<!-- Node20&#45;&gt;Node29 -->
<g id="edge56" class="edge">
<title>Node20&#45;&gt;Node29</title>
<path fill="none" stroke="midnightblue" d="M699.94,-400.79C641.66,-398.67 547.39,-389.68 474,-356 449.05,-344.55 425.75,-322.71 411.46,-307.52"/>
<polygon fill="midnightblue" stroke="midnightblue" points="413.81,-304.91 404.49,-299.88 408.64,-309.63 413.81,-304.91"/>
</g>
<!-- Node31 -->
<g id="node31" class="node">
<title>Node31</title>
<g id="a_node31"><a xlink:href="VLSender_8h.html" target="_top" xlink:title=" ">
<polygon fill="none" stroke="black" points="592,-280.5 592,-299.5 708,-299.5 708,-280.5 592,-280.5"/>
<text text-anchor="middle" x="650" y="-287.5" font-family="Helvetica,sans-Serif" font-size="10.00">Wireless/VLSender.h</text>
</a>
</g>
</g>
<!-- Node20&#45;&gt;Node31 -->
<g id="edge61" class="edge">
<title>Node20&#45;&gt;Node31</title>
<path fill="none" stroke="midnightblue" d="M725.35,-392.36C706.78,-385.37 683.46,-373.73 669,-356 658.21,-342.77 653.55,-323.64 651.53,-309.56"/>
<polygon fill="midnightblue" stroke="midnightblue" points="655.01,-309.11 650.42,-299.55 648.05,-309.88 655.01,-309.11"/>
</g>
<!-- Node32 -->
<g id="node32" class="node">
<title>Node32</title>
<g id="a_node32"><a xlink:href="Storage_8h.html" target="_top" xlink:title=" ">
<polygon fill="none" stroke="black" points="594,-168.5 594,-187.5 698,-187.5 698,-168.5 594,-168.5"/>
<text text-anchor="middle" x="646" y="-175.5" font-family="Helvetica,sans-Serif" font-size="10.00">Storage/Storage.h</text>
</a>
</g>
</g>
<!-- Node20&#45;&gt;Node32 -->
<g id="edge65" class="edge">
<title>Node20&#45;&gt;Node32</title>
<path fill="none" stroke="midnightblue" d="M719.21,-392.46C677.52,-380.08 609.92,-352.65 583,-300 567.62,-269.92 565.32,-253.93 581,-224 588.28,-210.11 602.01,-199.65 614.98,-192.33"/>
<polygon fill="midnightblue" stroke="midnightblue" points="616.93,-195.27 624.19,-187.55 613.7,-189.05 616.93,-195.27"/>
</g>
<!-- Node33 -->
<g id="node33" class="node">
<title>Node33</title>
<g id="a_node33"><a xlink:href="Buttons_8h.html" target="_top" xlink:title=" ">
<polygon fill="none" stroke="black" points="0,-336.5 0,-355.5 104,-355.5 104,-336.5 0,-336.5"/>
<text text-anchor="middle" x="52" y="-343.5" font-family="Helvetica,sans-Serif" font-size="10.00">Buttons/Buttons.h</text>
</a>
</g>
</g>
<!-- Node20&#45;&gt;Node33 -->
<g id="edge67" class="edge">
<title>Node20&#45;&gt;Node33</title>
<path fill="none" stroke="midnightblue" d="M699.79,-396.83C571.59,-386.97 250.36,-362.26 114.38,-351.8"/>
<polygon fill="midnightblue" stroke="midnightblue" points="114.37,-348.29 104.13,-351.01 113.83,-355.27 114.37,-348.29"/>
</g>
<!-- Node35 -->
<g id="node35" class="node">
<title>Node35</title>
<g id="a_node35"><a xlink:href="Serial_8h.html" target="_top" xlink:title=" ">
<polygon fill="none" stroke="black" points="440,-168.5 440,-187.5 524,-187.5 524,-168.5 440,-168.5"/>
<text text-anchor="middle" x="482" y="-175.5" font-family="Helvetica,sans-Serif" font-size="10.00">Serial/Serial.h</text>
</a>
</g>
</g>
<!-- Node20&#45;&gt;Node35 -->
<g id="edge72" class="edge">
<title>Node20&#45;&gt;Node35</title>
<path fill="none" stroke="midnightblue" d="M699.88,-398C636.71,-393.34 537.59,-382 512,-356 469.78,-313.1 474.19,-234.21 478.9,-198.04"/>
<polygon fill="midnightblue" stroke="midnightblue" points="482.4,-198.29 480.38,-187.89 475.47,-197.28 482.4,-198.29"/>
</g>
<!-- Node36 -->
<g id="node36" class="node">
<title>Node36</title>
<g id="a_node36"><a xlink:href="Modes_8h.html" target="_top" xlink:title=" ">
<polygon fill="none" stroke="black" points="857.5,-280.5 857.5,-299.5 950.5,-299.5 950.5,-280.5 857.5,-280.5"/>
<text text-anchor="middle" x="904" y="-287.5" font-family="Helvetica,sans-Serif" font-size="10.00">Modes/Modes.h</text>
</a>
</g>
</g>
<!-- Node20&#45;&gt;Node36 -->
<g id="edge74" class="edge">
<title>Node20&#45;&gt;Node36</title>
<path fill="none" stroke="midnightblue" d="M768.25,-392.48C782.62,-383.75 805.28,-369.56 824,-356 846.01,-340.06 870.06,-320.15 885.99,-306.6"/>
<polygon fill="midnightblue" stroke="midnightblue" points="888.62,-308.95 893.93,-299.79 884.06,-303.64 888.62,-308.95"/>
</g>
<!-- Node37 -->
<g id="node37" class="node">
<title>Node37</title>
<g id="a_node37"><a xlink:href="Menus_8h.html" target="_top" xlink:title=" ">
<polygon fill="none" stroke="black" points="1177.5,-336.5 1177.5,-355.5 1270.5,-355.5 1270.5,-336.5 1177.5,-336.5"/>
<text text-anchor="middle" x="1224" y="-343.5" font-family="Helvetica,sans-Serif" font-size="10.00">Menus/Menus.h</text>
</a>
</g>
</g>
<!-- Node20&#45;&gt;Node37 -->
<g id="edge81" class="edge">
<title>Node20&#45;&gt;Node37</title>
<path fill="none" stroke="midnightblue" d="M808.03,-396.02C885.24,-388.7 1031.83,-374.07 1167.14,-356.05"/>
<polygon fill="midnightblue" stroke="midnightblue" points="1167.83,-359.49 1177.28,-354.69 1166.9,-352.55 1167.83,-359.49"/>
</g>
<!-- Node38 -->
<g id="node38" class="node">
<title>Node38</title>
<g id="a_node38"><a xlink:href="Mode_8h.html" target="_top" xlink:title=" ">
<polygon fill="none" stroke="black" points="1244.5,-280.5 1244.5,-299.5 1341.5,-299.5 1341.5,-280.5 1244.5,-280.5"/>
<text text-anchor="middle" x="1293" y="-287.5" font-family="Helvetica,sans-Serif" font-size="10.00">../Modes/Mode.h</text>
</a>
</g>
</g>
<!-- Node20&#45;&gt;Node38 -->
<g id="edge89" class="edge">
<title>Node20&#45;&gt;Node38</title>
<path fill="none" stroke="midnightblue" d="M808.18,-399.95C935.22,-396.98 1244.2,-386.65 1279,-356 1291.84,-344.69 1294.5,-324.69 1294.47,-309.85"/>
<polygon fill="midnightblue" stroke="midnightblue" points="1297.96,-309.58 1294.05,-299.74 1290.97,-309.88 1297.96,-309.58"/>
</g>
<!-- Node21&#45;&gt;Node15 -->
<g id="edge39" class="edge">
<title>Node21&#45;&gt;Node15</title>
<path fill="none" stroke="midnightblue" d="M758.65,-336.37C776.98,-323.06 813.97,-297.27 848,-280 874.15,-266.73 905.19,-254.96 928.72,-246.79"/>
<polygon fill="midnightblue" stroke="midnightblue" points="929.98,-250.06 938.31,-243.52 927.72,-243.44 929.98,-250.06"/>
</g>
<!-- Node22&#45;&gt;Node7 -->
<g id="edge41" class="edge">
<title>Node22&#45;&gt;Node7</title>
<path fill="none" stroke="midnightblue" d="M128.09,-280.47C134.84,-267.08 149.47,-240.89 168,-224 244.46,-154.34 273.29,-142.89 372,-112 443.38,-89.66 664.58,-74.78 758.32,-69.33"/>
<polygon fill="midnightblue" stroke="midnightblue" points="758.53,-72.82 768.31,-68.75 758.13,-65.83 758.53,-72.82"/>
</g>
<!-- Node23 -->
<g id="node23" class="node">
<title>Node23</title>
<g id="a_node23"><a xlink:href="BitStream_8h.html" target="_top" xlink:title=" ">
<polygon fill="none" stroke="black" points="270,-224.5 270,-243.5 384,-243.5 384,-224.5 270,-224.5"/>
<text text-anchor="middle" x="327" y="-231.5" font-family="Helvetica,sans-Serif" font-size="10.00">../Serial/BitStream.h</text>
</a>
</g>
</g>
<!-- Node22&#45;&gt;Node23 -->
<g id="edge42" class="edge">
<title>Node22&#45;&gt;Node23</title>
<path fill="none" stroke="midnightblue" d="M156.17,-280.44C191.06,-271.16 246.89,-256.31 285.17,-246.13"/>
<polygon fill="midnightblue" stroke="midnightblue" points="286.22,-249.47 294.98,-243.52 284.42,-242.7 286.22,-249.47"/>
</g>
<!-- Node24 -->
<g id="node24" class="node">
<title>Node24</title>
<g id="a_node24"><a xlink:href="IRConfig_8h.html" target="_top" xlink:title=" ">
<polygon fill="none" stroke="black" points="177,-224.5 177,-243.5 243,-243.5 243,-224.5 177,-224.5"/>
<text text-anchor="middle" x="210" y="-231.5" font-family="Helvetica,sans-Serif" font-size="10.00">IRConfig.h</text>
</a>
</g>
</g>
<!-- Node22&#45;&gt;Node24 -->
<g id="edge44" class="edge">
<title>Node22&#45;&gt;Node24</title>
<path fill="none" stroke="midnightblue" d="M137.82,-280.32C151.23,-271.9 171.82,-258.97 187.59,-249.07"/>
<polygon fill="midnightblue" stroke="midnightblue" points="189.61,-251.94 196.22,-243.65 185.89,-246.01 189.61,-251.94"/>
</g>
<!-- Node23&#45;&gt;Node7 -->
<g id="edge43" class="edge">
<title>Node23&#45;&gt;Node7</title>
<path fill="none" stroke="midnightblue" d="M329.16,-224.41C335.39,-201.62 355.71,-139.45 398,-112 456.65,-73.94 666.91,-67.85 758.2,-67.03"/>
<polygon fill="midnightblue" stroke="midnightblue" points="758.49,-70.53 768.46,-66.96 758.44,-63.53 758.49,-70.53"/>
</g>
<!-- Node25&#45;&gt;Node23 -->
<g id="edge54" class="edge">
<title>Node25&#45;&gt;Node23</title>
<path fill="none" stroke="midnightblue" d="M270.76,-280.32C280.77,-272.26 295.89,-260.08 307.93,-250.37"/>
<polygon fill="midnightblue" stroke="midnightblue" points="310.45,-252.83 316.04,-243.83 306.06,-247.38 310.45,-252.83"/>
</g>
<!-- Node25&#45;&gt;Node24 -->
<g id="edge55" class="edge">
<title>Node25&#45;&gt;Node24</title>
<path fill="none" stroke="midnightblue" d="M251.74,-280.08C244.54,-272.3 233.89,-260.8 225.15,-251.37"/>
<polygon fill="midnightblue" stroke="midnightblue" points="227.47,-248.71 218.1,-243.75 222.33,-253.47 227.47,-248.71"/>
</g>
<!-- Node25&#45;&gt;Node26 -->
<g id="edge46" class="edge">
<title>Node25&#45;&gt;Node26</title>
<path fill="none" stroke="midnightblue" d="M316.71,-281.04C319.51,-280.68 322.29,-280.33 325,-280 473.46,-261.91 513.47,-261.62 666.21,-244.07"/>
<polygon fill="midnightblue" stroke="midnightblue" points="666.9,-247.51 676.44,-242.88 666.1,-240.56 666.9,-247.51"/>
</g>
<!-- Node26&#45;&gt;Node7 -->
<g id="edge47" class="edge">
<title>Node26&#45;&gt;Node7</title>
<path fill="none" stroke="midnightblue" d="M738.97,-224.4C741.5,-204.04 749.46,-151.59 768,-112 772.77,-101.82 779.99,-91.62 786.47,-83.52"/>
<polygon fill="midnightblue" stroke="midnightblue" points="789.32,-85.56 793.05,-75.64 783.95,-81.07 789.32,-85.56"/>
</g>
<!-- Node26&#45;&gt;Node27 -->
<g id="edge48" class="edge">
<title>Node26&#45;&gt;Node27</title>
<path fill="none" stroke="midnightblue" d="M799.96,-229C920.27,-221.22 1193.87,-203.45 1424,-188 1452.19,-186.11 1483.78,-183.94 1508.88,-182.2"/>
<polygon fill="midnightblue" stroke="midnightblue" points="1509.13,-185.69 1518.86,-181.51 1508.64,-178.71 1509.13,-185.69"/>
</g>
<!-- Node27&#45;&gt;Node8 -->
<g id="edge49" class="edge">
<title>Node27&#45;&gt;Node8</title>
<path fill="none" stroke="midnightblue" d="M1534.24,-168.44C1512.68,-159.56 1478.74,-145.56 1454.21,-135.45"/>
<polygon fill="midnightblue" stroke="midnightblue" points="1455.24,-132.09 1444.66,-131.52 1452.57,-138.56 1455.24,-132.09"/>
</g>
<!-- Node27&#45;&gt;Node11 -->
<g id="edge50" class="edge">
<title>Node27&#45;&gt;Node11</title>
<path fill="none" stroke="midnightblue" d="M1565.7,-168.21C1579.49,-155.76 1600.51,-132.25 1590,-112 1582.85,-98.23 1569.33,-87.78 1556.55,-80.44"/>
<polygon fill="midnightblue" stroke="midnightblue" points="1557.96,-77.23 1547.48,-75.64 1554.68,-83.41 1557.96,-77.23"/>
</g>
<!-- Node28 -->
<g id="node28" class="node">
<title>Node28</title>
<g id="a_node28"><a xlink:href="ErrorBlinker_8h.html" target="_top" xlink:title=" ">
<polygon fill="none" stroke="black" points="1470.5,-112.5 1470.5,-131.5 1581.5,-131.5 1581.5,-112.5 1470.5,-112.5"/>
<text text-anchor="middle" x="1526" y="-119.5" font-family="Helvetica,sans-Serif" font-size="10.00">../Log/ErrorBlinker.h</text>
</a>
</g>
</g>
<!-- Node27&#45;&gt;Node28 -->
<g id="edge51" class="edge">
<title>Node27&#45;&gt;Node28</title>
<path fill="none" stroke="midnightblue" d="M1550.21,-168.08C1546.24,-160.69 1540.47,-149.95 1535.57,-140.81"/>
<polygon fill="midnightblue" stroke="midnightblue" points="1538.51,-138.91 1530.7,-131.75 1532.35,-142.22 1538.51,-138.91"/>
</g>
<!-- Node28&#45;&gt;Node7 -->
<g id="edge52" class="edge">
<title>Node28&#45;&gt;Node7</title>
<path fill="none" stroke="midnightblue" d="M1470.36,-113.04C1467.2,-112.67 1464.06,-112.32 1461,-112 1228.78,-88.04 949.23,-73.76 843.91,-68.89"/>
<polygon fill="midnightblue" stroke="midnightblue" points="843.84,-65.38 833.69,-68.42 843.52,-72.38 843.84,-65.38"/>
</g>
<!-- Node28&#45;&gt;Node11 -->
<g id="edge53" class="edge">
<title>Node28&#45;&gt;Node11</title>
<path fill="none" stroke="midnightblue" d="M1526,-112.08C1526,-105.01 1526,-94.86 1526,-85.99"/>
<polygon fill="midnightblue" stroke="midnightblue" points="1529.5,-85.75 1526,-75.75 1522.5,-85.75 1529.5,-85.75"/>
</g>
<!-- Node29&#45;&gt;Node7 -->
<g id="edge57" class="edge">
<title>Node29&#45;&gt;Node7</title>
<path fill="none" stroke="midnightblue" d="M397.47,-280.23C399.01,-259.04 405.37,-204.13 431,-168 456.11,-132.6 470.73,-128.19 511,-112 594.22,-78.54 700.12,-69.82 758.16,-67.63"/>
<polygon fill="midnightblue" stroke="midnightblue" points="758.54,-71.12 768.42,-67.3 758.31,-64.13 758.54,-71.12"/>
</g>
<!-- Node29&#45;&gt;Node23 -->
<g id="edge58" class="edge">
<title>Node29&#45;&gt;Node23</title>
<path fill="none" stroke="midnightblue" d="M385.75,-280.32C375.2,-272.18 359.2,-259.84 346.56,-250.09"/>
<polygon fill="midnightblue" stroke="midnightblue" points="348.51,-247.17 338.45,-243.83 344.23,-252.71 348.51,-247.17"/>
</g>
<!-- Node30 -->
<g id="node30" class="node">
<title>Node30</title>
<g id="a_node30"><a xlink:href="VLConfig_8h.html" target="_top" xlink:title=" ">
<polygon fill="none" stroke="black" points="590,-224.5 590,-243.5 658,-243.5 658,-224.5 590,-224.5"/>
<text text-anchor="middle" x="624" y="-231.5" font-family="Helvetica,sans-Serif" font-size="10.00">VLConfig.h</text>
</a>
</g>
</g>
<!-- Node29&#45;&gt;Node30 -->
<g id="edge59" class="edge">
<title>Node29&#45;&gt;Node30</title>
<path fill="none" stroke="midnightblue" d="M432.97,-280.44C472.78,-270.97 536.98,-255.7 579.82,-245.51"/>
<polygon fill="midnightblue" stroke="midnightblue" points="580.77,-248.88 589.69,-243.16 579.15,-242.07 580.77,-248.88"/>
</g>
<!-- Node30&#45;&gt;Node11 -->
<g id="edge60" class="edge">
<title>Node30&#45;&gt;Node11</title>
<path fill="none" stroke="midnightblue" d="M647.18,-224.41C709.02,-201.87 883.48,-140.81 1034,-112 1188.69,-82.4 1374.58,-72.11 1467.34,-68.66"/>
<polygon fill="midnightblue" stroke="midnightblue" points="1467.51,-72.15 1477.37,-68.3 1467.26,-65.16 1467.51,-72.15"/>
</g>
<!-- Node31&#45;&gt;Node23 -->
<g id="edge63" class="edge">
<title>Node31&#45;&gt;Node23</title>
<path fill="none" stroke="midnightblue" d="M598.82,-280.44C541.53,-270.87 448.76,-255.36 387.81,-245.17"/>
<polygon fill="midnightblue" stroke="midnightblue" points="388.38,-241.71 377.94,-243.52 387.23,-248.62 388.38,-241.71"/>
</g>
<!-- Node31&#45;&gt;Node26 -->
<g id="edge62" class="edge">
<title>Node31&#45;&gt;Node26</title>
<path fill="none" stroke="midnightblue" d="M664.14,-280.32C677.87,-271.9 698.94,-258.97 715.06,-249.07"/>
<polygon fill="midnightblue" stroke="midnightblue" points="717.2,-251.87 723.9,-243.65 713.54,-245.9 717.2,-251.87"/>
</g>
<!-- Node31&#45;&gt;Node30 -->
<g id="edge64" class="edge">
<title>Node31&#45;&gt;Node30</title>
<path fill="none" stroke="midnightblue" d="M645.71,-280.08C642.15,-272.69 636.98,-261.95 632.58,-252.81"/>
<polygon fill="midnightblue" stroke="midnightblue" points="635.71,-251.24 628.21,-243.75 629.4,-254.28 635.71,-251.24"/>
</g>
<!-- Node32&#45;&gt;Node7 -->
<g id="edge66" class="edge">
<title>Node32&#45;&gt;Node7</title>
<path fill="none" stroke="midnightblue" d="M656.15,-168.14C671.17,-155.19 700.42,-130.63 727,-112 743.06,-100.74 761.96,-89.28 776.65,-80.74"/>
<polygon fill="midnightblue" stroke="midnightblue" points="778.69,-83.6 785.61,-75.58 775.2,-77.53 778.69,-83.6"/>
</g>
<!-- Node34 -->
<g id="node34" class="node">
<title>Node34</title>
<g id="a_node34"><a xlink:href="Button_8h.html" target="_top" xlink:title=" ">
<polygon fill="none" stroke="black" points="27,-112.5 27,-131.5 85,-131.5 85,-112.5 27,-112.5"/>
<text text-anchor="middle" x="56" y="-119.5" font-family="Helvetica,sans-Serif" font-size="10.00">Button.h</text>
</a>
</g>
</g>
<!-- Node33&#45;&gt;Node34 -->
<g id="edge68" class="edge">
<title>Node33&#45;&gt;Node34</title>
<path fill="none" stroke="midnightblue" d="M52.16,-336.3C52.75,-303.63 54.83,-187.87 55.66,-141.96"/>
<polygon fill="midnightblue" stroke="midnightblue" points="59.16,-141.95 55.84,-131.88 52.16,-141.82 59.16,-141.95"/>
</g>
<!-- Node34&#45;&gt;Node7 -->
<g id="edge69" class="edge">
<title>Node34&#45;&gt;Node7</title>
<path fill="none" stroke="midnightblue" d="M85.11,-116.22C95.18,-114.69 106.57,-113.11 117,-112 358.65,-86.27 649.99,-72.95 758,-68.62"/>
<polygon fill="midnightblue" stroke="midnightblue" points="758.32,-72.11 768.17,-68.22 758.04,-65.12 758.32,-72.11"/>
</g>
<!-- Node35&#45;&gt;Node7 -->
<g id="edge73" class="edge">
<title>Node35&#45;&gt;Node7</title>
<path fill="none" stroke="midnightblue" d="M486.86,-168.14C495.25,-153.77 513.88,-125.63 538,-112 574.86,-91.16 693.21,-77.14 757.85,-70.82"/>
<polygon fill="midnightblue" stroke="midnightblue" points="758.5,-74.27 768.13,-69.84 757.84,-67.31 758.5,-74.27"/>
</g>
<!-- Node36&#45;&gt;Node7 -->
<g id="edge80" class="edge">
<title>Node36&#45;&gt;Node7</title>
<path fill="none" stroke="midnightblue" d="M899.96,-280.3C884.71,-247.42 830.41,-130.39 809.39,-85.09"/>
<polygon fill="midnightblue" stroke="midnightblue" points="812.51,-83.48 805.12,-75.88 806.16,-86.43 812.51,-83.48"/>
</g>
<!-- Node36&#45;&gt;Node9 -->
<g id="edge78" class="edge">
<title>Node36&#45;&gt;Node9</title>
<path fill="none" stroke="midnightblue" d="M931.82,-280.47C959.46,-271.84 1002.95,-257.83 1040,-244 1061.65,-235.92 1066.18,-231.6 1088,-224 1126.01,-210.75 1170.12,-198.51 1202.22,-190.15"/>
<polygon fill="midnightblue" stroke="midnightblue" points="1203.39,-193.46 1212.2,-187.57 1201.65,-186.68 1203.39,-193.46"/>
</g>
<!-- Node36&#45;&gt;Node10 -->
<g id="edge76" class="edge">
<title>Node36&#45;&gt;Node10</title>
<path fill="none" stroke="midnightblue" d="M945.52,-280.47C966.72,-273.98 991.12,-262.83 1006,-244 1027.29,-217.05 998.06,-194.43 1020,-168 1033.62,-151.6 1053.95,-141.16 1073.86,-134.52"/>
<polygon fill="midnightblue" stroke="midnightblue" points="1075.03,-137.82 1083.57,-131.56 1072.98,-131.13 1075.03,-137.82"/>
</g>
<!-- Node36&#45;&gt;Node11 -->
<g id="edge79" class="edge">
<title>Node36&#45;&gt;Node11</title>
<path fill="none" stroke="midnightblue" d="M904.83,-280.28C906.44,-267.08 910.97,-241.7 923,-224 968.58,-156.95 991.69,-142.03 1067,-112 1138.26,-83.59 1360.01,-72.5 1467.03,-68.72"/>
<polygon fill="midnightblue" stroke="midnightblue" points="1467.46,-72.2 1477.33,-68.36 1467.22,-65.21 1467.46,-72.2"/>
</g>
<!-- Node36&#45;&gt;Node15 -->
<g id="edge77" class="edge">
<title>Node36&#45;&gt;Node15</title>
<path fill="none" stroke="midnightblue" d="M913.8,-280.32C922.82,-272.34 936.41,-260.31 947.32,-250.65"/>
<polygon fill="midnightblue" stroke="midnightblue" points="949.85,-253.08 955.02,-243.83 945.21,-247.84 949.85,-253.08"/>
</g>
<!-- Node36&#45;&gt;Node26 -->
<g id="edge75" class="edge">
<title>Node36&#45;&gt;Node26</title>
<path fill="none" stroke="midnightblue" d="M877.7,-280.44C849.65,-271.32 805.06,-256.81 773.82,-246.65"/>
<polygon fill="midnightblue" stroke="midnightblue" points="774.77,-243.28 764.18,-243.52 772.61,-249.94 774.77,-243.28"/>
</g>
<!-- Node37&#45;&gt;Node6 -->
<g id="edge84" class="edge">
<title>Node37&#45;&gt;Node6</title>
<path fill="none" stroke="midnightblue" d="M1222.66,-336.08C1221.13,-322.14 1220.44,-295.21 1235,-280 1245.28,-269.27 1324.2,-254.45 1382.28,-244.8"/>
<polygon fill="midnightblue" stroke="midnightblue" points="1383.2,-248.19 1392.5,-243.12 1382.06,-241.29 1383.2,-248.19"/>
</g>
<!-- Node37&#45;&gt;Node7 -->
<g id="edge82" class="edge">
<title>Node37&#45;&gt;Node7</title>
<path fill="none" stroke="midnightblue" d="M1177.27,-337.32C1174.14,-336.86 1171.02,-336.41 1168,-336 1097.1,-326.32 900.75,-348.35 848,-300 816.39,-271.03 805.13,-135.55 802.01,-85.58"/>
<polygon fill="midnightblue" stroke="midnightblue" points="805.5,-85.33 801.42,-75.55 798.51,-85.74 805.5,-85.33"/>
</g>
<!-- Node37&#45;&gt;Node10 -->
<g id="edge83" class="edge">
<title>Node37&#45;&gt;Node10</title>
<path fill="none" stroke="midnightblue" d="M1220.59,-336.3C1207.73,-303.49 1162.04,-186.88 1144.2,-141.38"/>
<polygon fill="midnightblue" stroke="midnightblue" points="1147.39,-139.92 1140.48,-131.88 1140.87,-142.47 1147.39,-139.92"/>
</g>
<!-- Node37&#45;&gt;Node38 -->
<g id="edge85" class="edge">
<title>Node37&#45;&gt;Node38</title>
<path fill="none" stroke="midnightblue" d="M1235.09,-336.32C1245.49,-328.18 1261.26,-315.84 1273.72,-306.09"/>
<polygon fill="midnightblue" stroke="midnightblue" points="1275.99,-308.75 1281.71,-299.83 1271.68,-303.24 1275.99,-308.75"/>
</g>
<!-- Node38&#45;&gt;Node6 -->
<g id="edge86" class="edge">
<title>Node38&#45;&gt;Node6</title>
<path fill="none" stroke="midnightblue" d="M1317.08,-280.44C1342.54,-271.4 1382.89,-257.06 1411.46,-246.92"/>
<polygon fill="midnightblue" stroke="midnightblue" points="1412.78,-250.16 1421.03,-243.52 1410.43,-243.57 1412.78,-250.16"/>
</g>
<!-- Node38&#45;&gt;Node11 -->
<g id="edge88" class="edge">
<title>Node38&#45;&gt;Node11</title>
<path fill="none" stroke="midnightblue" d="M1341.83,-281.51C1425.28,-267.55 1589.42,-234.71 1621,-188 1639.94,-159.98 1643.31,-140.44 1625,-112 1614.69,-95.99 1597.15,-85.62 1579.67,-78.92"/>
<polygon fill="midnightblue" stroke="midnightblue" points="1580.6,-75.54 1570.01,-75.56 1578.3,-82.15 1580.6,-75.54"/>
</g>
<!-- Node38&#45;&gt;Node15 -->
<g id="edge87" class="edge">
<title>Node38&#45;&gt;Node15</title>
<path fill="none" stroke="midnightblue" d="M1244.25,-280.97C1180.14,-270.42 1068.53,-252.05 1007.63,-242.02"/>
<polygon fill="midnightblue" stroke="midnightblue" points="1008.03,-238.54 997.59,-240.37 1006.89,-245.44 1008.03,-238.54"/>
</g>
</g>
</svg>
